  0
SECTION
  2
ENTITIES
  0
POLYLINE
  8
0
 10
0
 20
0
 39
0
 70
1
 66
1
  0
VERTEX
  8
0
 10
0
 20
0
 42
0
  0
VERTEX
  8
0
 10
2500
 20
0
 42
0
  0
VERTEX
  8
0
 10
2500
 20
1000
 42
0
  0
VERTEX
  8
0
 10
0
 20
1000
 42
0
  0
SEQEND
  0
POLYLINE
  8
0
 10
0
 20
0
 39
0
 70
1
 66
1
  0
VERTEX
  8
0
 10
165.38461538461539
 20
10.384615384615383
 42
-0
  0
VERTEX
  8
0
 10
10.384615384615387
 20
10.384615384615383
 42
-0
  0
VERTEX
  8
0
 10
10.384615384615387
 20
545.38461538461536
 42
-0
  0
VERTEX
  8
0
 10
165.38461538461539
 20
545.38461538461536
 42
-0
  0
SEQEND
  0
POLYLINE
  8
0
 10
0
 20
0
 39
0
 70
1
 66
1
  0
VERTEX
  8
0
 10
115.88461538461539
 20
92.034830533541168
 42
1
  0
VERTEX
  8
0
 10
59.884615384615387
 20
92.034830533541168
 42
1
  0
SEQEND
  0
POLYLINE
  8
0
 10
0
 20
0
 39
0
 70
1
 66
1
  0
VERTEX
  8
0
 10
115.88461538461539
 20
492.98779531625598
 42
0.24306800961494446
  0
VERTEX
  8
0
 10
59.884615384615387
 20
492.98779531625598
 42
-0
  0
VERTEX
  8
0
 10
59.884615384615387
 20
162.07324453500601
 42
0.24306800961494446
  0
VERTEX
  8
0
 10
115.88461538461539
 20
162.07324453500601
 42
0
  0
SEQEND
  0
POLYLINE
  8
0
 10
0
 20
0
 39
0
 70
1
 66
1
  0
VERTEX
  8
0
 10
330.76923076923077
 20
10.384615384615383
 42
-0
  0
VERTEX
  8
0
 10
175.76923076923077
 20
10.384615384615383
 42
-0
  0
VERTEX
  8
0
 10
175.76923076923077
 20
545.38461538461536
 42
-0
  0
VERTEX
  8
0
 10
330.76923076923077
 20
545.38461538461536
 42
-0
  0
SEQEND
  0
POLYLINE
  8
0
 10
0
 20
0
 39
0
 70
1
 66
1
  0
VERTEX
  8
0
 10
281.26923076923077
 20
92.034830533541168
 42
1
  0
VERTEX
  8
0
 10
225.26923076923077
 20
92.034830533541168
 42
1
  0
SEQEND
  0
POLYLINE
  8
0
 10
0
 20
0
 39
0
 70
1
 66
1
  0
VERTEX
  8
0
 10
281.26923076923077
 20
492.98779531625598
 42
0.24306800961494446
  0
VERTEX
  8
0
 10
225.26923076923077
 20
492.98779531625598
 42
-0
  0
VERTEX
  8
0
 10
225.26923076923077
 20
162.07324453500601
 42
0.24306800961494446
  0
VERTEX
  8
0
 10
281.26923076923077
 20
162.07324453500601
 42
0
  0
SEQEND
  0
POLYLINE
  8
0
 10
0
 20
0
 39
0
 70
1
 66
1
  0
VERTEX
  8
0
 10
496.15384615384613
 20
10.384615384615383
 42
-0
  0
VERTEX
  8
0
 10
341.15384615384613
 20
10.384615384615383
 42
-0
  0
VERTEX
  8
0
 10
341.15384615384613
 20
545.38461538461536
 42
-0
  0
VERTEX
  8
0
 10
496.15384615384613
 20
545.38461538461536
 42
-0
  0
SEQEND
  0
POLYLINE
  8
0
 10
0
 20
0
 39
0
 70
1
 66
1
  0
VERTEX
  8
0
 10
446.65384615384613
 20
92.034830533541168
 42
1
  0
VERTEX
  8
0
 10
390.65384615384613
 20
92.034830533541168
 42
1
  0
SEQEND
  0
POLYLINE
  8
0
 10
0
 20
0
 39
0
 70
1
 66
1
  0
VERTEX
  8
0
 10
446.65384615384613
 20
492.98779531625598
 42
0.24306800961494446
  0
VERTEX
  8
0
 10
390.65384615384613
 20
492.98779531625598
 42
-0
  0
VERTEX
  8
0
 10
390.65384615384613
 20
162.07324453500601
 42
0.24306800961494446
  0
VERTEX
  8
0
 10
446.65384615384613
 20
162.07324453500601
 42
0
  0
SEQEND
  0
POLYLINE
  8
0
 10
0
 20
0
 39
0
 70
1
 66
1
  0
VERTEX
  8
0
 10
10.384615384615394
 20
555.57692307692309
 42
-0
  0
VERTEX
  8
0
 10
10.384615384615385
 20
710.57692307692309
 42
-0
  0
VERTEX
  8
0
 10
545.38461538461536
 20
710.57692307692309
 42
-0
  0
VERTEX
  8
0
 10
545.38461538461536
 20
555.57692307692309
 42
-0
  0
SEQEND
  0
POLYLINE
  8
0
 10
0
 20
0
 39
0
 70
1
 66
1
  0
VERTEX
  8
0
 10
92.034830533541168
 20
605.07692307692309
 42
1
  0
VERTEX
  8
0
 10
92.034830533541168
 20
661.07692307692309
 42
1
  0
SEQEND
  0
POLYLINE
  8
0
 10
0
 20
0
 39
0
 70
1
 66
1
  0
VERTEX
  8
0
 10
492.98779531625604
 20
605.07692307692309
 42
0.24306800961494446
  0
VERTEX
  8
0
 10
492.98779531625604
 20
661.07692307692309
 42
-0
  0
VERTEX
  8
0
 10
162.07324453500601
 20
661.07692307692309
 42
0.24306800961494446
  0
VERTEX
  8
0
 10
162.07324453500601
 20
605.07692307692309
 42
0
  0
SEQEND
  0
POLYLINE
  8
0
 10
0
 20
0
 39
0
 70
1
 66
1
  0
VERTEX
  8
0
 10
10.384615384615394
 20
720.76923076923072
 42
-0
  0
VERTEX
  8
0
 10
10.384615384615385
 20
875.76923076923072
 42
-0
  0
VERTEX
  8
0
 10
545.38461538461536
 20
875.76923076923072
 42
-0
  0
VERTEX
  8
0
 10
545.38461538461536
 20
720.76923076923072
 42
-0
  0
SEQEND
  0
POLYLINE
  8
0
 10
0
 20
0
 39
0
 70
1
 66
1
  0
VERTEX
  8
0
 10
92.034830533541168
 20
770.26923076923072
 42
1
  0
VERTEX
  8
0
 10
92.034830533541168
 20
826.26923076923072
 42
1
  0
SEQEND
  0
POLYLINE
  8
0
 10
0
 20
0
 39
0
 70
1
 66
1
  0
VERTEX
  8
0
 10
492.98779531625604
 20
770.26923076923072
 42
0.24306800961494446
  0
VERTEX
  8
0
 10
492.98779531625604
 20
826.26923076923072
 42
-0
  0
VERTEX
  8
0
 10
162.07324453500601
 20
826.26923076923072
 42
0.24306800961494446
  0
VERTEX
  8
0
 10
162.07324453500601
 20
770.26923076923072
 42
0
  0
SEQEND
  0
POLYLINE
  8
0
 10
0
 20
0
 39
0
 70
1
 66
1
  0
VERTEX
  8
0
 10
661.53846153846155
 20
10.384615384615383
 42
-0
  0
VERTEX
  8
0
 10
506.53846153846155
 20
10.384615384615383
 42
-0
  0
VERTEX
  8
0
 10
506.53846153846155
 20
545.38461538461536
 42
-0
  0
VERTEX
  8
0
 10
661.53846153846155
 20
545.38461538461536
 42
-0
  0
SEQEND
  0
POLYLINE
  8
0
 10
0
 20
0
 39
0
 70
1
 66
1
  0
VERTEX
  8
0
 10
612.03846153846155
 20
92.034830533541168
 42
1
  0
VERTEX
  8
0
 10
556.03846153846155
 20
92.034830533541168
 42
1
  0
SEQEND
  0
POLYLINE
  8
0
 10
0
 20
0
 39
0
 70
1
 66
1
  0
VERTEX
  8
0
 10
612.03846153846155
 20
492.98779531625598
 42
0.24306800961494446
  0
VERTEX
  8
0
 10
556.03846153846155
 20
492.98779531625598
 42
-0
  0
VERTEX
  8
0
 10
556.03846153846155
 20
162.07324453500601
 42
0.24306800961494446
  0
VERTEX
  8
0
 10
612.03846153846155
 20
162.07324453500601
 42
0
  0
SEQEND
  0
POLYLINE
  8
0
 10
0
 20
0
 39
0
 70
1
 66
1
  0
VERTEX
  8
0
 10
831.92307692307691
 20
500.38461538461536
 42
-0
  0
VERTEX
  8
0
 10
831.92307692307691
 20
10.384615384615394
 42
-0
  0
VERTEX
  8
0
 10
671.92307692307691
 20
10.384615384615383
 42
-0
  0
VERTEX
  8
0
 10
671.92307692307691
 20
500.38461538461536
 42
-0
  0
SEQEND
  0
POLYLINE
  8
0
 10
0
 20
0
 39
0
 70
1
 66
1
  0
VERTEX
  8
0
 10
741.92307692307691
 20
20.384615384615387
 42
0
  0
VERTEX
  8
0
 10
761.92307692307691
 20
20.384615384615387
 42
1
  0
VERTEX
  8
0
 10
761.92307692307691
 20
70.384615384615387
 42
-0
  0
VERTEX
  8
0
 10
741.92307692307691
 20
70.384615384615387
 42
1
  0
SEQEND
  0
POLYLINE
  8
0
 10
0
 20
0
 39
0
 70
1
 66
1
  0
VERTEX
  8
0
 10
1002.3076923076923
 20
500.38461538461536
 42
-0
  0
VERTEX
  8
0
 10
1002.3076923076923
 20
10.384615384615394
 42
-0
  0
VERTEX
  8
0
 10
842.30769230769226
 20
10.384615384615383
 42
-0
  0
VERTEX
  8
0
 10
842.30769230769226
 20
500.38461538461536
 42
-0
  0
SEQEND
  0
POLYLINE
  8
0
 10
0
 20
0
 39
0
 70
1
 66
1
  0
VERTEX
  8
0
 10
912.30769230769226
 20
20.384615384615387
 42
0
  0
VERTEX
  8
0
 10
932.30769230769226
 20
20.384615384615387
 42
1
  0
VERTEX
  8
0
 10
932.30769230769226
 20
70.384615384615387
 42
-0
  0
VERTEX
  8
0
 10
912.30769230769226
 20
70.384615384615387
 42
1
  0
SEQEND
  0
POLYLINE
  8
0
 10
0
 20
0
 39
0
 70
1
 66
1
  0
VERTEX
  8
0
 10
555.76923076923072
 20
715.57692307692309
 42
-0
  0
VERTEX
  8
0
 10
1045.7692307692307
 20
715.57692307692309
 42
-0
  0
VERTEX
  8
0
 10
1045.7692307692307
 20
555.57692307692309
 42
-0
  0
VERTEX
  8
0
 10
555.76923076923072
 20
555.57692307692309
 42
-0
  0
SEQEND
  0
POLYLINE
  8
0
 10
0
 20
0
 39
0
 70
1
 66
1
  0
VERTEX
  8
0
 10
1035.7692307692307
 20
625.57692307692309
 42
0
  0
VERTEX
  8
0
 10
1035.7692307692307
 20
645.57692307692309
 42
1
  0
VERTEX
  8
0
 10
985.76923076923072
 20
645.57692307692309
 42
-0
  0
VERTEX
  8
0
 10
985.76923076923072
 20
625.57692307692309
 42
1
  0
SEQEND
  0
POLYLINE
  8
0
 10
0
 20
0
 39
0
 70
1
 66
1
  0
VERTEX
  8
0
 10
555.76923076923072
 20
885.76923076923072
 42
-0
  0
VERTEX
  8
0
 10
1045.7692307692307
 20
885.76923076923072
 42
-0
  0
VERTEX
  8
0
 10
1045.7692307692307
 20
725.76923076923072
 42
-0
  0
VERTEX
  8
0
 10
555.76923076923072
 20
725.76923076923072
 42
-0
  0
SEQEND
  0
POLYLINE
  8
0
 10
0
 20
0
 39
0
 70
1
 66
1
  0
VERTEX
  8
0
 10
1035.7692307692307
 20
795.76923076923072
 42
0
  0
VERTEX
  8
0
 10
1035.7692307692307
 20
815.76923076923072
 42
1
  0
VERTEX
  8
0
 10
985.76923076923072
 20
815.76923076923072
 42
-0
  0
VERTEX
  8
0
 10
985.76923076923072
 20
795.76923076923072
 42
1
  0
SEQEND
  0
POLYLINE
  8
0
 10
0
 20
0
 39
0
 70
1
 66
1
  0
VERTEX
  8
0
 10
1172.6923076923076
 20
500.38461538461536
 42
-0
  0
VERTEX
  8
0
 10
1172.6923076923076
 20
10.384615384615394
 42
-0
  0
VERTEX
  8
0
 10
1012.6923076923076
 20
10.384615384615383
 42
-0
  0
VERTEX
  8
0
 10
1012.6923076923076
 20
500.38461538461536
 42
-0
  0
SEQEND
  0
POLYLINE
  8
0
 10
0
 20
0
 39
0
 70
1
 66
1
  0
VERTEX
  8
0
 10
1082.6923076923076
 20
20.384615384615387
 42
0
  0
VERTEX
  8
0
 10
1102.6923076923076
 20
20.384615384615387
 42
1
  0
VERTEX
  8
0
 10
1102.6923076923076
 20
70.384615384615387
 42
-0
  0
VERTEX
  8
0
 10
1082.6923076923076
 20
70.384615384615387
 42
1
  0
SEQEND
  0
POLYLINE
  8
0
 10
0
 20
0
 39
0
 70
1
 66
1
  0
VERTEX
  8
0
 10
1343.0769230769231
 20
500.38461538461536
 42
-0
  0
VERTEX
  8
0
 10
1343.0769230769231
 20
10.384615384615394
 42
-0
  0
VERTEX
  8
0
 10
1183.0769230769231
 20
10.384615384615383
 42
-0
  0
VERTEX
  8
0
 10
1183.0769230769231
 20
500.38461538461536
 42
-0
  0
SEQEND
  0
POLYLINE
  8
0
 10
0
 20
0
 39
0
 70
1
 66
1
  0
VERTEX
  8
0
 10
1253.0769230769231
 20
20.384615384615387
 42
0
  0
VERTEX
  8
0
 10
1273.0769230769231
 20
20.384615384615387
 42
1
  0
VERTEX
  8
0
 10
1273.0769230769231
 20
70.384615384615387
 42
-0
  0
VERTEX
  8
0
 10
1253.0769230769231
 20
70.384615384615387
 42
1
  0
SEQEND
  0
POLYLINE
  8
0
 10
0
 20
0
 39
0
 70
1
 66
1
  0
VERTEX
  8
0
 10
1056.1538461538462
 20
510.57692307692304
 42
-0
  0
VERTEX
  8
0
 10
1056.1538461538462
 20
800.57692307692309
 42
-0
  0
VERTEX
  8
0
 10
1243.1538461538462
 20
800.57692307692309
 42
-0
  0
VERTEX
  8
0
 10
1253.1538461538462
 20
790.57692307692309
 42
-0
  0
VERTEX
  8
0
 10
1253.1538461538462
 20
520.57692307692309
 42
-0
  0
VERTEX
  8
0
 10
1243.1538461538462
 20
510.57692307692304
 42
-0
  0
SEQEND
  0
POLYLINE
  8
0
 10
0
 20
0
 39
0
 70
1
 66
1
  0
VERTEX
  8
0
 10
1188.1538461538462
 20
640.07692307692309
 42
1
  0
VERTEX
  8
0
 10
1188.1538461538462
 20
671.07692307692309
 42
1
  0
SEQEND
  0
POLYLINE
  8
0
 10
0
 20
0
 39
0
 70
1
 66
1
  0
VERTEX
  8
0
 10
1263.4615384615383
 20
510.57692307692304
 42
-0
  0
VERTEX
  8
0
 10
1263.4615384615383
 20
800.57692307692309
 42
-0
  0
VERTEX
  8
0
 10
1450.4615384615383
 20
800.57692307692309
 42
-0
  0
VERTEX
  8
0
 10
1460.4615384615383
 20
790.57692307692309
 42
-0
  0
VERTEX
  8
0
 10
1460.4615384615383
 20
520.57692307692309
 42
-0
  0
VERTEX
  8
0
 10
1450.4615384615383
 20
510.57692307692304
 42
-0
  0
SEQEND
  0
POLYLINE
  8
0
 10
0
 20
0
 39
0
 70
1
 66
1
  0
VERTEX
  8
0
 10
1395.4615384615383
 20
640.07692307692309
 42
1
  0
VERTEX
  8
0
 10
1395.4615384615383
 20
671.07692307692309
 42
1
  0
SEQEND
  0
POLYLINE
  8
0
 10
0
 20
0
 39
0
 70
1
 66
1
  0
VERTEX
  8
0
 10
1353.4615384615383
 20
10.384615384615383
 42
-0
  0
VERTEX
  8
0
 10
1353.4615384615383
 20
300.38461538461536
 42
-0
  0
VERTEX
  8
0
 10
1540.4615384615383
 20
300.38461538461536
 42
-0
  0
VERTEX
  8
0
 10
1550.4615384615383
 20
290.38461538461536
 42
-0
  0
VERTEX
  8
0
 10
1550.4615384615383
 20
20.384615384615394
 42
-0
  0
VERTEX
  8
0
 10
1540.4615384615383
 20
10.384615384615394
 42
-0
  0
SEQEND
  0
POLYLINE
  8
0
 10
0
 20
0
 39
0
 70
1
 66
1
  0
VERTEX
  8
0
 10
1485.4615384615383
 20
139.88461538461539
 42
1
  0
VERTEX
  8
0
 10
1485.4615384615383
 20
170.88461538461539
 42
1
  0
SEQEND
  0
POLYLINE
  8
0
 10
0
 20
0
 39
0
 70
1
 66
1
  0
VERTEX
  8
0
 10
1470.7692307692307
 20
310.57692307692309
 42
-0
  0
VERTEX
  8
0
 10
1470.7692307692307
 20
600.57692307692309
 42
-0
  0
VERTEX
  8
0
 10
1657.7692307692307
 20
600.57692307692309
 42
-0
  0
VERTEX
  8
0
 10
1667.7692307692307
 20
590.57692307692309
 42
-0
  0
VERTEX
  8
0
 10
1667.7692307692307
 20
320.57692307692309
 42
-0
  0
VERTEX
  8
0
 10
1657.7692307692307
 20
310.57692307692309
 42
-0
  0
SEQEND
  0
POLYLINE
  8
0
 10
0
 20
0
 39
0
 70
1
 66
1
  0
VERTEX
  8
0
 10
1602.7692307692307
 20
440.07692307692309
 42
1
  0
VERTEX
  8
0
 10
1602.7692307692307
 20
471.07692307692309
 42
1
  0
SEQEND
  0
POLYLINE
  8
0
 10
0
 20
0
 39
0
 70
1
 66
1
  0
VERTEX
  8
0
 10
1470.7692307692307
 20
610.76923076923072
 42
-0
  0
VERTEX
  8
0
 10
1470.7692307692307
 20
900.76923076923072
 42
-0
  0
VERTEX
  8
0
 10
1657.7692307692307
 20
900.76923076923072
 42
-0
  0
VERTEX
  8
0
 10
1667.7692307692307
 20
890.76923076923072
 42
-0
  0
VERTEX
  8
0
 10
1667.7692307692307
 20
620.76923076923072
 42
-0
  0
VERTEX
  8
0
 10
1657.7692307692307
 20
610.76923076923072
 42
-0
  0
SEQEND
  0
POLYLINE
  8
0
 10
0
 20
0
 39
0
 70
1
 66
1
  0
VERTEX
  8
0
 10
1602.7692307692307
 20
740.26923076923072
 42
1
  0
VERTEX
  8
0
 10
1602.7692307692307
 20
771.26923076923072
 42
1
  0
SEQEND
  0
POLYLINE
  8
0
 10
0
 20
0
 39
0
 70
1
 66
1
  0
VERTEX
  8
0
 10
1560.7692307692307
 20
10.384615384615383
 42
-0
  0
VERTEX
  8
0
 10
1560.7692307692307
 20
300.38461538461536
 42
-0
  0
VERTEX
  8
0
 10
1747.7692307692307
 20
300.38461538461536
 42
-0
  0
VERTEX
  8
0
 10
1757.7692307692307
 20
290.38461538461536
 42
-0
  0
VERTEX
  8
0
 10
1757.7692307692307
 20
20.384615384615394
 42
-0
  0
VERTEX
  8
0
 10
1747.7692307692307
 20
10.384615384615394
 42
-0
  0
SEQEND
  0
POLYLINE
  8
0
 10
0
 20
0
 39
0
 70
1
 66
1
  0
VERTEX
  8
0
 10
1692.7692307692307
 20
139.88461538461539
 42
1
  0
VERTEX
  8
0
 10
1692.7692307692307
 20
170.88461538461539
 42
1
  0
SEQEND
  0
POLYLINE
  8
0
 10
0
 20
0
 39
0
 70
1
 66
1
  0
VERTEX
  8
0
 10
1678.0769230769231
 20
310.57692307692309
 42
-0
  0
VERTEX
  8
0
 10
1678.0769230769231
 20
600.57692307692309
 42
-0
  0
VERTEX
  8
0
 10
1865.0769230769231
 20
600.57692307692309
 42
-0
  0
VERTEX
  8
0
 10
1875.0769230769231
 20
590.57692307692309
 42
-0
  0
VERTEX
  8
0
 10
1875.0769230769231
 20
320.57692307692309
 42
-0
  0
VERTEX
  8
0
 10
1865.0769230769231
 20
310.57692307692309
 42
-0
  0
SEQEND
  0
POLYLINE
  8
0
 10
0
 20
0
 39
0
 70
1
 66
1
  0
VERTEX
  8
0
 10
1810.0769230769231
 20
440.07692307692309
 42
1
  0
VERTEX
  8
0
 10
1810.0769230769231
 20
471.07692307692309
 42
1
  0
SEQEND
  0
POLYLINE
  8
0
 10
0
 20
0
 39
0
 70
1
 66
1
  0
VERTEX
  8
0
 10
1678.0769230769231
 20
610.76923076923072
 42
-0
  0
VERTEX
  8
0
 10
1678.0769230769231
 20
900.76923076923072
 42
-0
  0
VERTEX
  8
0
 10
1865.0769230769231
 20
900.76923076923072
 42
-0
  0
VERTEX
  8
0
 10
1875.0769230769231
 20
890.76923076923072
 42
-0
  0
VERTEX
  8
0
 10
1875.0769230769231
 20
620.76923076923072
 42
-0
  0
VERTEX
  8
0
 10
1865.0769230769231
 20
610.76923076923072
 42
-0
  0
SEQEND
  0
POLYLINE
  8
0
 10
0
 20
0
 39
0
 70
1
 66
1
  0
VERTEX
  8
0
 10
1810.0769230769231
 20
740.26923076923072
 42
1
  0
VERTEX
  8
0
 10
1810.0769230769231
 20
771.26923076923072
 42
1
  0
SEQEND
  0
POLYLINE
  8
0
 10
0
 20
0
 39
0
 70
1
 66
1
  0
VERTEX
  8
0
 10
1768.0769230769231
 20
10.384615384615383
 42
-0
  0
VERTEX
  8
0
 10
1768.0769230769231
 20
300.38461538461536
 42
-0
  0
VERTEX
  8
0
 10
1955.0769230769231
 20
300.38461538461536
 42
-0
  0
VERTEX
  8
0
 10
1965.0769230769231
 20
290.38461538461536
 42
-0
  0
VERTEX
  8
0
 10
1965.0769230769231
 20
20.384615384615394
 42
-0
  0
VERTEX
  8
0
 10
1955.0769230769231
 20
10.384615384615394
 42
-0
  0
SEQEND
  0
POLYLINE
  8
0
 10
0
 20
0
 39
0
 70
1
 66
1
  0
VERTEX
  8
0
 10
1900.0769230769231
 20
139.88461538461539
 42
1
  0
VERTEX
  8
0
 10
1900.0769230769231
 20
170.88461538461539
 42
1
  0
SEQEND
  0
POLYLINE
  8
0
 10
0
 20
0
 39
0
 70
1
 66
1
  0
VERTEX
  8
0
 10
1017.3076923076924
 20
989.61538461538464
 42
-0
  0
VERTEX
  8
0
 10
1082.3076923076924
 20
989.61538461538464
 42
-0
  0
VERTEX
  8
0
 10
1087.3076923076924
 20
984.61538461538464
 42
-0
  0
VERTEX
  8
0
 10
1089.6140124981221
 20
957.36319497915417
 42
0.8055649995803833
  0
VERTEX
  8
0
 10
1256.2499358837422
 20
935.55763009878308
 42
0
  0
VERTEX
  8
0
 10
1260.3076923076924
 20
939.61538461538464
 42
0
  0
VERTEX
  8
0
 10
1269.3076923076924
 20
939.61538461538464
 42
-0
  0
VERTEX
  8
0
 10
1269.3076923076924
 20
904.61538461538464
 42
0
  0
VERTEX
  8
0
 10
1214.3076923076924
 20
849.61538461538464
 42
-0
  0
VERTEX
  8
0
 10
1102.3076923076924
 20
849.61538461538464
 42
-0
  0
VERTEX
  8
0
 10
1012.3076923076924
 20
929.61538461538464
 42
-0
  0
VERTEX
  8
0
 10
1012.3076923076924
 20
984.61538461538464
 42
0
  0
SEQEND
  0
POLYLINE
  8
0
 10
0
 20
0
 39
0
 70
1
 66
1
  0
VERTEX
  8
0
 10
1083.3076923076924
 20
977.61538461538464
 42
1
  0
VERTEX
  8
0
 10
1071.3076923076924
 20
977.61538461538464
 42
1
  0
SEQEND
  0
POLYLINE
  8
0
 10
0
 20
0
 39
0
 70
1
 66
1
  0
VERTEX
  8
0
 10
1388.7296923076924
 20
849.61538461538464
 42
-0
  0
VERTEX
  8
0
 10
1323.7296923076924
 20
849.61538461538464
 42
-0
  0
VERTEX
  8
0
 10
1318.7296923076924
 20
854.61538461538464
 42
-0
  0
VERTEX
  8
0
 10
1316.4233721172627
 20
881.86757425161511
 42
0.8055649995803833
  0
VERTEX
  8
0
 10
1149.7874487316426
 20
903.6731391319862
 42
0
  0
VERTEX
  8
0
 10
1145.7296923076924
 20
899.61538461538464
 42
0
  0
VERTEX
  8
0
 10
1136.7296923076924
 20
899.61538461538464
 42
-0
  0
VERTEX
  8
0
 10
1136.7296923076924
 20
934.61538461538464
 42
0
  0
VERTEX
  8
0
 10
1191.7296923076924
 20
989.61538461538464
 42
-0
  0
VERTEX
  8
0
 10
1303.7296923076924
 20
989.61538461538464
 42
-0
  0
VERTEX
  8
0
 10
1393.7296923076924
 20
909.61538461538464
 42
-0
  0
VERTEX
  8
0
 10
1393.7296923076924
 20
854.61538461538464
 42
0
  0
SEQEND
  0
POLYLINE
  8
0
 10
0
 20
0
 39
0
 70
1
 66
1
  0
VERTEX
  8
0
 10
1322.7296923076924
 20
861.61538461538464
 42
1
  0
VERTEX
  8
0
 10
1334.7296923076924
 20
861.61538461538464
 42
1
  0
SEQEND
  0
POLYLINE
  8
0
 10
0
 20
0
 39
0
 70
1
 66
1
  0
VERTEX
  8
0
 10
2025.3846153846152
 20
686.99892307692312
 42
-0
  0
VERTEX
  8
0
 10
2025.3846153846152
 20
621.99892307692312
 42
-0
  0
VERTEX
  8
0
 10
2020.3846153846152
 20
616.99892307692312
 42
-0
  0
VERTEX
  8
0
 10
1993.1324257483848
 20
614.69260288649343
 42
0.8055649995803833
  0
VERTEX
  8
0
 10
1971.3268608680137
 20
448.05667950087332
 42
0
  0
VERTEX
  8
0
 10
1975.3846153846152
 20
443.99892307692312
 42
0
  0
VERTEX
  8
0
 10
1975.3846153846152
 20
434.99892307692312
 42
-0
  0
VERTEX
  8
0
 10
1940.3846153846152
 20
434.99892307692312
 42
0
  0
VERTEX
  8
0
 10
1885.3846153846152
 20
489.99892307692312
 42
-0
  0
VERTEX
  8
0
 10
1885.3846153846152
 20
601.99892307692312
 42
-0
  0
VERTEX
  8
0
 10
1965.3846153846152
 20
691.99892307692312
 42
-0
  0
VERTEX
  8
0
 10
2020.3846153846152
 20
691.99892307692312
 42
0
  0
SEQEND
  0
POLYLINE
  8
0
 10
0
 20
0
 39
0
 70
1
 66
1
  0
VERTEX
  8
0
 10
2013.3846153846152
 20
620.99892307692312
 42
1
  0
VERTEX
  8
0
 10
2013.3846153846152
 20
632.99892307692312
 42
1
  0
SEQEND
  0
POLYLINE
  8
0
 10
0
 20
0
 39
0
 70
1
 66
1
  0
VERTEX
  8
0
 10
1885.3846153846152
 20
315.57692307692309
 42
-0
  0
VERTEX
  8
0
 10
1885.3846153846152
 20
380.57692307692309
 42
-0
  0
VERTEX
  8
0
 10
1890.3846153846152
 20
385.57692307692309
 42
-0
  0
VERTEX
  8
0
 10
1917.6368050208457
 20
387.88324326735278
 42
0.8055649995803833
  0
VERTEX
  8
0
 10
1939.4423699012168
 20
554.5191666529729
 42
0
  0
VERTEX
  8
0
 10
1935.3846153846152
 20
558.57692307692309
 42
0
  0
VERTEX
  8
0
 10
1935.3846153846152
 20
567.57692307692309
 42
-0
  0
VERTEX
  8
0
 10
1970.3846153846152
 20
567.57692307692309
 42
0
  0
VERTEX
  8
0
 10
2025.3846153846152
 20
512.57692307692309
 42
-0
  0
VERTEX
  8
0
 10
2025.3846153846152
 20
400.57692307692309
 42
-0
  0
VERTEX
  8
0
 10
1945.3846153846152
 20
310.57692307692309
 42
-0
  0
VERTEX
  8
0
 10
1890.3846153846152
 20
310.57692307692309
 42
0
  0
SEQEND
  0
POLYLINE
  8
0
 10
0
 20
0
 39
0
 70
1
 66
1
  0
VERTEX
  8
0
 10
1897.3846153846152
 20
381.57692307692309
 42
1
  0
VERTEX
  8
0
 10
1897.3846153846152
 20
369.57692307692309
 42
1
  0
SEQEND
  0
POLYLINE
  8
0
 10
0
 20
0
 39
0
 70
1
 66
1
  0
VERTEX
  8
0
 10
2115.3846153846152
 20
386.80661538461538
 42
-0
  0
VERTEX
  8
0
 10
2115.3846153846152
 20
321.80661538461538
 42
-0
  0
VERTEX
  8
0
 10
2110.3846153846152
 20
316.80661538461538
 42
-0
  0
VERTEX
  8
0
 10
2083.1324257483848
 20
314.5002951941857
 42
0.8055649995803833
  0
VERTEX
  8
0
 10
2061.3268608680137
 20
147.86437180856561
 42
0
  0
VERTEX
  8
0
 10
2065.3846153846152
 20
143.80661538461541
 42
0
  0
VERTEX
  8
0
 10
2065.3846153846152
 20
134.80661538461541
 42
-0
  0
VERTEX
  8
0
 10
2030.3846153846152
 20
134.80661538461541
 42
0
  0
VERTEX
  8
0
 10
1975.3846153846152
 20
189.80661538461541
 42
-0
  0
VERTEX
  8
0
 10
1975.3846153846152
 20
301.80661538461538
 42
-0
  0
VERTEX
  8
0
 10
2055.3846153846152
 20
391.80661538461538
 42
-0
  0
VERTEX
  8
0
 10
2110.3846153846152
 20
391.80661538461538
 42
0
  0
SEQEND
  0
POLYLINE
  8
0
 10
0
 20
0
 39
0
 70
1
 66
1
  0
VERTEX
  8
0
 10
2103.3846153846152
 20
320.80661538461538
 42
1
  0
VERTEX
  8
0
 10
2103.3846153846152
 20
332.80661538461538
 42
1
  0
SEQEND
  0
POLYLINE
  8
0
 10
0
 20
0
 39
0
 70
1
 66
1
  0
VERTEX
  8
0
 10
1975.3846153846152
 20
15.384615384615358
 42
-0
  0
VERTEX
  8
0
 10
1975.3846153846152
 20
80.384615384615358
 42
-0
  0
VERTEX
  8
0
 10
1980.3846153846152
 20
85.384615384615358
 42
-0
  0
VERTEX
  8
0
 10
2007.6368050208457
 20
87.690935575045046
 42
0.8055649995803833
  0
VERTEX
  8
0
 10
2029.4423699012168
 20
254.32685896066516
 42
0
  0
VERTEX
  8
0
 10
2025.3846153846152
 20
258.38461538461536
 42
0
  0
VERTEX
  8
0
 10
2025.3846153846152
 20
267.38461538461536
 42
-0
  0
VERTEX
  8
0
 10
2060.3846153846152
 20
267.38461538461536
 42
0
  0
VERTEX
  8
0
 10
2115.3846153846152
 20
212.38461538461536
 42
-0
  0
VERTEX
  8
0
 10
2115.3846153846152
 20
100.38461538461536
 42
-0
  0
VERTEX
  8
0
 10
2035.3846153846152
 20
10.384615384615358
 42
-0
  0
VERTEX
  8
0
 10
1980.3846153846152
 20
10.384615384615358
 42
0
  0
SEQEND
  0
POLYLINE
  8
0
 10
0
 20
0
 39
0
 70
1
 66
1
  0
VERTEX
  8
0
 10
1987.3846153846152
 20
81.384615384615358
 42
1
  0
VERTEX
  8
0
 10
1987.3846153846152
 20
69.384615384615358
 42
1
  0
SEQEND
  0
POLYLINE
  8
0
 10
0
 20
0
 39
0
 70
1
 66
1
  0
VERTEX
  8
0
 10
2156.5384615384614
 20
907.76815384615384
 42
-0
  0
VERTEX
  8
0
 10
2156.5384615384614
 20
842.76815384615384
 42
-0
  0
VERTEX
  8
0
 10
2151.5384615384614
 20
837.76815384615384
 42
-0
  0
VERTEX
  8
0
 10
2124.286271902231
 20
835.46183365572415
 42
0.8055649995803833
  0
VERTEX
  8
0
 10
2102.4807070218599
 20
668.82591027010403
 42
0
  0
VERTEX
  8
0
 10
2106.5384615384614
 20
664.76815384615384
 42
0
  0
VERTEX
  8
0
 10
2106.5384615384614
 20
655.76815384615384
 42
-0
  0
VERTEX
  8
0
 10
2071.5384615384614
 20
655.76815384615384
 42
0
  0
VERTEX
  8
0
 10
2016.5384615384614
 20
710.76815384615384
 42
-0
  0
VERTEX
  8
0
 10
2016.5384615384614
 20
822.76815384615384
 42
-0
  0
VERTEX
  8
0
 10
2096.5384615384614
 20
912.76815384615384
 42
-0
  0
VERTEX
  8
0
 10
2151.5384615384614
 20
912.76815384615384
 42
0
  0
SEQEND
  0
POLYLINE
  8
0
 10
0
 20
0
 39
0
 70
1
 66
1
  0
VERTEX
  8
0
 10
2144.5384615384614
 20
841.76815384615384
 42
1
  0
VERTEX
  8
0
 10
2144.5384615384614
 20
853.76815384615384
 42
1
  0
SEQEND
  0
POLYLINE
  8
0
 10
0
 20
0
 39
0
 70
1
 66
1
  0
VERTEX
  8
0
 10
2016.5384615384614
 20
536.34615384615381
 42
-0
  0
VERTEX
  8
0
 10
2016.5384615384614
 20
601.34615384615381
 42
-0
  0
VERTEX
  8
0
 10
2021.5384615384614
 20
606.34615384615381
 42
-0
  0
VERTEX
  8
0
 10
2048.7906511746919
 20
608.6524740365835
 42
0.8055649995803833
  0
VERTEX
  8
0
 10
2070.596216055063
 20
775.28839742220362
 42
0
  0
VERTEX
  8
0
 10
2066.5384615384614
 20
779.34615384615381
 42
0
  0
VERTEX
  8
0
 10
2066.5384615384614
 20
788.34615384615381
 42
-0
  0
VERTEX
  8
0
 10
2101.5384615384614
 20
788.34615384615381
 42
0
  0
VERTEX
  8
0
 10
2156.5384615384614
 20
733.34615384615381
 42
-0
  0
VERTEX
  8
0
 10
2156.5384615384614
 20
621.34615384615381
 42
-0
  0
VERTEX
  8
0
 10
2076.5384615384614
 20
531.34615384615381
 42
-0
  0
VERTEX
  8
0
 10
2021.5384615384614
 20
531.34615384615381
 42
0
  0
SEQEND
  0
POLYLINE
  8
0
 10
0
 20
0
 39
0
 70
1
 66
1
  0
VERTEX
  8
0
 10
2028.5384615384614
 20
602.34615384615381
 42
1
  0
VERTEX
  8
0
 10
2028.5384615384614
 20
590.34615384615381
 42
1
  0
SEQEND
  0
POLYLINE
  8
0
 10
0
 20
0
 39
0
 70
1
 66
1
  0
VERTEX
  8
0
 10
2246.5384615384614
 20
607.57584615384621
 42
-0
  0
VERTEX
  8
0
 10
2246.5384615384614
 20
542.57584615384621
 42
-0
  0
VERTEX
  8
0
 10
2241.5384615384614
 20
537.57584615384621
 42
-0
  0
VERTEX
  8
0
 10
2214.286271902231
 20
535.26952596341653
 42
0.8055649995803833
  0
VERTEX
  8
0
 10
2192.4807070218599
 20
368.63360257779635
 42
0
  0
VERTEX
  8
0
 10
2196.5384615384614
 20
364.57584615384616
 42
0
  0
VERTEX
  8
0
 10
2196.5384615384614
 20
355.57584615384616
 42
-0
  0
VERTEX
  8
0
 10
2161.5384615384614
 20
355.57584615384616
 42
0
  0
VERTEX
  8
0
 10
2106.5384615384614
 20
410.57584615384616
 42
-0
  0
VERTEX
  8
0
 10
2106.5384615384614
 20
522.57584615384621
 42
-0
  0
VERTEX
  8
0
 10
2186.5384615384614
 20
612.57584615384621
 42
-0
  0
VERTEX
  8
0
 10
2241.5384615384614
 20
612.57584615384621
 42
0
  0
SEQEND
  0
POLYLINE
  8
0
 10
0
 20
0
 39
0
 70
1
 66
1
  0
VERTEX
  8
0
 10
2234.5384615384614
 20
541.57584615384621
 42
1
  0
VERTEX
  8
0
 10
2234.5384615384614
 20
553.57584615384621
 42
1
  0
SEQEND
  0
POLYLINE
  8
0
 10
0
 20
0
 39
0
 70
1
 66
1
  0
VERTEX
  8
0
 10
2106.5384615384614
 20
236.15384615384613
 42
-0
  0
VERTEX
  8
0
 10
2106.5384615384614
 20
301.15384615384613
 42
-0
  0
VERTEX
  8
0
 10
2111.5384615384614
 20
306.15384615384613
 42
-0
  0
VERTEX
  8
0
 10
2138.7906511746919
 20
308.46016634427582
 42
0.8055649995803833
  0
VERTEX
  8
0
 10
2160.596216055063
 20
475.09608972989594
 42
0
  0
VERTEX
  8
0
 10
2156.5384615384614
 20
479.15384615384613
 42
0
  0
VERTEX
  8
0
 10
2156.5384615384614
 20
488.15384615384613
 42
-0
  0
VERTEX
  8
0
 10
2191.5384615384614
 20
488.15384615384613
 42
0
  0
VERTEX
  8
0
 10
2246.5384615384614
 20
433.15384615384613
 42
-0
  0
VERTEX
  8
0
 10
2246.5384615384614
 20
321.15384615384613
 42
-0
  0
VERTEX
  8
0
 10
2166.5384615384614
 20
231.15384615384613
 42
-0
  0
VERTEX
  8
0
 10
2111.5384615384614
 20
231.15384615384613
 42
0
  0
SEQEND
  0
POLYLINE
  8
0
 10
0
 20
0
 39
0
 70
1
 66
1
  0
VERTEX
  8
0
 10
2118.5384615384614
 20
302.15384615384613
 42
1
  0
VERTEX
  8
0
 10
2118.5384615384614
 20
290.15384615384613
 42
1
  0
SEQEND
  0
POLYLINE
  8
0
 10
0
 20
0
 39
0
 70
1
 66
1
  0
VERTEX
  8
0
 10
2377.6923076923076
 20
828.34507692307693
 42
-0
  0
VERTEX
  8
0
 10
2377.6923076923076
 20
763.34507692307693
 42
-0
  0
VERTEX
  8
0
 10
2372.6923076923076
 20
758.34507692307693
 42
-0
  0
VERTEX
  8
0
 10
2345.4401180560772
 20
756.03875673264724
 42
0.8055649995803833
  0
VERTEX
  8
0
 10
2323.6345531757061
 20
589.40283334702713
 42
0
  0
VERTEX
  8
0
 10
2327.6923076923076
 20
585.34507692307693
 42
0
  0
VERTEX
  8
0
 10
2327.6923076923076
 20
576.34507692307693
 42
-0
  0
VERTEX
  8
0
 10
2292.6923076923076
 20
576.34507692307693
 42
0
  0
VERTEX
  8
0
 10
2237.6923076923076
 20
631.34507692307693
 42
-0
  0
VERTEX
  8
0
 10
2237.6923076923076
 20
743.34507692307693
 42
-0
  0
VERTEX
  8
0
 10
2317.6923076923076
 20
833.34507692307693
 42
-0
  0
VERTEX
  8
0
 10
2372.6923076923076
 20
833.34507692307693
 42
0
  0
SEQEND
  0
POLYLINE
  8
0
 10
0
 20
0
 39
0
 70
1
 66
1
  0
VERTEX
  8
0
 10
2365.6923076923076
 20
762.34507692307693
 42
1
  0
VERTEX
  8
0
 10
2365.6923076923076
 20
774.34507692307693
 42
1
  0
SEQEND
  0
POLYLINE
  8
0
 10
0
 20
0
 39
0
 70
1
 66
1
  0
VERTEX
  8
0
 10
2237.6923076923076
 20
456.92307692307691
 42
-0
  0
VERTEX
  8
0
 10
2237.6923076923076
 20
521.92307692307691
 42
-0
  0
VERTEX
  8
0
 10
2242.6923076923076
 20
526.92307692307691
 42
-0
  0
VERTEX
  8
0
 10
2269.9444973285381
 20
529.22939711350659
 42
0.8055649995803833
  0
VERTEX
  8
0
 10
2291.7500622089092
 20
695.86532049912671
 42
0
  0
VERTEX
  8
0
 10
2287.6923076923076
 20
699.92307692307691
 42
0
  0
VERTEX
  8
0
 10
2287.6923076923076
 20
708.92307692307691
 42
-0
  0
VERTEX
  8
0
 10
2322.6923076923076
 20
708.92307692307691
 42
0
  0
VERTEX
  8
0
 10
2377.6923076923076
 20
653.92307692307691
 42
-0
  0
VERTEX
  8
0
 10
2377.6923076923076
 20
541.92307692307691
 42
-0
  0
VERTEX
  8
0
 10
2297.6923076923076
 20
451.92307692307691
 42
-0
  0
VERTEX
  8
0
 10
2242.6923076923076
 20
451.92307692307691
 42
0
  0
SEQEND
  0
POLYLINE
  8
0
 10
0
 20
0
 39
0
 70
1
 66
1
  0
VERTEX
  8
0
 10
2249.6923076923076
 20
522.92307692307691
 42
1
  0
VERTEX
  8
0
 10
2249.6923076923076
 20
510.92307692307691
 42
1
  0
SEQEND
  0
POLYLINE
  8
0
 10
0
 20
0
 39
0
 70
1
 66
1
  0
VERTEX
  8
0
 10
1458.4615384615383
 20
310.57692307692309
 42
-0
  0
VERTEX
  8
0
 10
1353.4615384615383
 20
310.57692307692309
 42
-0
  0
VERTEX
  8
0
 10
1353.4615384615383
 20
485.57692307692309
 42
-0
  0
VERTEX
  8
0
 10
1458.4615384615383
 20
485.57692307692309
 42
-0
  0
SEQEND
  0
POLYLINE
  8
0
 10
0
 20
0
 39
0
 70
1
 66
1
  0
VERTEX
  8
0
 10
1453.5993758715115
 20
465.97861069899341
 42
1
  0
VERTEX
  8
0
 10
1431.5993749178372
 20
465.97861069899341
 42
1
  0
SEQEND
  0
POLYLINE
  8
0
 10
0
 20
0
 39
0
 70
1
 66
1
  0
VERTEX
  8
0
 10
1454.2617599047146
 20
431.09151810866138
 42
1
  0
VERTEX
  8
0
 10
1432.2617608583889
 20
431.09151810866138
 42
1
  0
SEQEND
  0
POLYLINE
  8
0
 10
0
 20
0
 39
0
 70
1
 66
1
  0
VERTEX
  8
0
 10
1453.5993758715115
 20
333.75454873305102
 42
1
  0
VERTEX
  8
0
 10
1431.5993749178372
 20
333.75454873305102
 42
1
  0
SEQEND
  0
POLYLINE
  8
0
 10
0
 20
0
 39
0
 70
1
 66
1
  0
VERTEX
  8
0
 10
1380.3236981905422
 20
465.97861069899341
 42
1
  0
VERTEX
  8
0
 10
1358.3236981905422
 20
465.97861069899341
 42
1
  0
SEQEND
  0
POLYLINE
  8
0
 10
0
 20
0
 39
0
 70
1
 66
1
  0
VERTEX
  8
0
 10
1379.6613141573391
 20
431.09151810866138
 42
1
  0
VERTEX
  8
0
 10
1357.6613141573391
 20
431.09151810866138
 42
1
  0
SEQEND
  0
POLYLINE
  8
0
 10
0
 20
0
 39
0
 70
1
 66
1
  0
VERTEX
  8
0
 10
1380.3236981905422
 20
333.75454873305102
 42
1
  0
VERTEX
  8
0
 10
1358.3236981905422
 20
333.75454873305102
 42
1
  0
SEQEND
  0
POLYLINE
  8
0
 10
0
 20
0
 39
0
 70
1
 66
1
  0
VERTEX
  8
0
 10
1990.3846153846152
 20
702.11538461538464
 42
-0
  0
VERTEX
  8
0
 10
1885.3846153846152
 20
702.11538461538464
 42
-0
  0
VERTEX
  8
0
 10
1885.3846153846152
 20
877.11538461538464
 42
-0
  0
VERTEX
  8
0
 10
1990.3846153846152
 20
877.11538461538464
 42
-0
  0
SEQEND
  0
POLYLINE
  8
0
 10
0
 20
0
 39
0
 70
1
 66
1
  0
VERTEX
  8
0
 10
1985.5224527945884
 20
857.51707223745495
 42
1
  0
VERTEX
  8
0
 10
1963.5224518409141
 20
857.51707223745495
 42
1
  0
SEQEND
  0
POLYLINE
  8
0
 10
0
 20
0
 39
0
 70
1
 66
1
  0
VERTEX
  8
0
 10
1986.1848368277915
 20
822.62997964712292
 42
1
  0
VERTEX
  8
0
 10
1964.1848377814658
 20
822.62997964712292
 42
1
  0
SEQEND
  0
POLYLINE
  8
0
 10
0
 20
0
 39
0
 70
1
 66
1
  0
VERTEX
  8
0
 10
1985.5224527945884
 20
725.29301027151257
 42
1
  0
VERTEX
  8
0
 10
1963.5224518409141
 20
725.29301027151257
 42
1
  0
SEQEND
  0
POLYLINE
  8
0
 10
0
 20
0
 39
0
 70
1
 66
1
  0
VERTEX
  8
0
 10
1912.2467751136192
 20
857.51707223745495
 42
1
  0
VERTEX
  8
0
 10
1890.2467751136192
 20
857.51707223745495
 42
1
  0
SEQEND
  0
POLYLINE
  8
0
 10
0
 20
0
 39
0
 70
1
 66
1
  0
VERTEX
  8
0
 10
1911.584391080416
 20
822.62997964712292
 42
1
  0
VERTEX
  8
0
 10
1889.584391080416
 20
822.62997964712292
 42
1
  0
SEQEND
  0
POLYLINE
  8
0
 10
0
 20
0
 39
0
 70
1
 66
1
  0
VERTEX
  8
0
 10
1912.2467751136192
 20
725.29301027151257
 42
1
  0
VERTEX
  8
0
 10
1890.2467751136192
 20
725.29301027151257
 42
1
  0
SEQEND
  0
POLYLINE
  8
0
 10
0
 20
0
 39
0
 70
1
 66
1
  0
VERTEX
  8
0
 10
2230.7692307692305
 20
10.384615384615383
 42
-0
  0
VERTEX
  8
0
 10
2125.7692307692305
 20
10.384615384615383
 42
-0
  0
VERTEX
  8
0
 10
2125.7692307692305
 20
185.38461538461539
 42
-0
  0
VERTEX
  8
0
 10
2230.7692307692305
 20
185.38461538461539
 42
-0
  0
SEQEND
  0
POLYLINE
  8
0
 10
0
 20
0
 39
0
 70
1
 66
1
  0
VERTEX
  8
0
 10
2225.9070681792036
 20
165.7863030066857
 42
1
  0
VERTEX
  8
0
 10
2203.9070672255293
 20
165.7863030066857
 42
1
  0
SEQEND
  0
POLYLINE
  8
0
 10
0
 20
0
 39
0
 70
1
 66
1
  0
VERTEX
  8
0
 10
2226.5694522124068
 20
130.89921041635367
 42
1
  0
VERTEX
  8
0
 10
2204.5694531660811
 20
130.89921041635367
 42
1
  0
SEQEND
  0
POLYLINE
  8
0
 10
0
 20
0
 39
0
 70
1
 66
1
  0
VERTEX
  8
0
 10
2225.9070681792036
 20
33.562241040743316
 42
1
  0
VERTEX
  8
0
 10
2203.9070672255293
 20
33.562241040743316
 42
1
  0
SEQEND
  0
POLYLINE
  8
0
 10
0
 20
0
 39
0
 70
1
 66
1
  0
VERTEX
  8
0
 10
2152.6313904982344
 20
165.7863030066857
 42
1
  0
VERTEX
  8
0
 10
2130.6313904982344
 20
165.7863030066857
 42
1
  0
SEQEND
  0
POLYLINE
  8
0
 10
0
 20
0
 39
0
 70
1
 66
1
  0
VERTEX
  8
0
 10
2151.9690064650313
 20
130.89921041635367
 42
1
  0
VERTEX
  8
0
 10
2129.9690064650313
 20
130.89921041635367
 42
1
  0
SEQEND
  0
POLYLINE
  8
0
 10
0
 20
0
 39
0
 70
1
 66
1
  0
VERTEX
  8
0
 10
2152.6313904982344
 20
33.562241040743316
 42
1
  0
VERTEX
  8
0
 10
2130.6313904982344
 20
33.562241040743316
 42
1
  0
SEQEND
  0
POLYLINE
  8
0
 10
0
 20
0
 39
0
 70
1
 66
1
  0
VERTEX
  8
0
 10
2271.9230769230767
 20
797.69230769230762
 42
-0
  0
VERTEX
  8
0
 10
2166.9230769230767
 20
797.69230769230762
 42
-0
  0
VERTEX
  8
0
 10
2166.9230769230767
 20
972.69230769230762
 42
-0
  0
VERTEX
  8
0
 10
2271.9230769230767
 20
972.69230769230762
 42
-0
  0
SEQEND
  0
POLYLINE
  8
0
 10
0
 20
0
 39
0
 70
1
 66
1
  0
VERTEX
  8
0
 10
2267.0609143330498
 20
953.09399531437793
 42
1
  0
VERTEX
  8
0
 10
2245.0609133793755
 20
953.09399531437793
 42
1
  0
SEQEND
  0
POLYLINE
  8
0
 10
0
 20
0
 39
0
 70
1
 66
1
  0
VERTEX
  8
0
 10
2267.7232983662529
 20
918.2069027240459
 42
1
  0
VERTEX
  8
0
 10
2245.7232993199273
 20
918.2069027240459
 42
1
  0
SEQEND
  0
POLYLINE
  8
0
 10
0
 20
0
 39
0
 70
1
 66
1
  0
VERTEX
  8
0
 10
2267.0609143330498
 20
820.86993334843555
 42
1
  0
VERTEX
  8
0
 10
2245.0609133793755
 20
820.86993334843555
 42
1
  0
SEQEND
  0
POLYLINE
  8
0
 10
0
 20
0
 39
0
 70
1
 66
1
  0
VERTEX
  8
0
 10
2193.7852366520806
 20
953.09399531437793
 42
1
  0
VERTEX
  8
0
 10
2171.7852366520806
 20
953.09399531437793
 42
1
  0
SEQEND
  0
POLYLINE
  8
0
 10
0
 20
0
 39
0
 70
1
 66
1
  0
VERTEX
  8
0
 10
2193.1228526188775
 20
918.2069027240459
 42
1
  0
VERTEX
  8
0
 10
2171.1228526188775
 20
918.2069027240459
 42
1
  0
SEQEND
  0
POLYLINE
  8
0
 10
0
 20
0
 39
0
 70
1
 66
1
  0
VERTEX
  8
0
 10
2193.7852366520806
 20
820.86993334843555
 42
1
  0
VERTEX
  8
0
 10
2171.7852366520806
 20
820.86993334843555
 42
1
  0
SEQEND
  0
POLYLINE
  8
0
 10
0
 20
0
 39
0
 70
1
 66
1
  0
VERTEX
  8
0
 10
2346.1538461538462
 20
10.384615384615383
 42
-0
  0
VERTEX
  8
0
 10
2241.1538461538462
 20
10.384615384615383
 42
-0
  0
VERTEX
  8
0
 10
2241.1538461538462
 20
185.38461538461539
 42
-0
  0
VERTEX
  8
0
 10
2346.1538461538462
 20
185.38461538461539
 42
-0
  0
SEQEND
  0
POLYLINE
  8
0
 10
0
 20
0
 39
0
 70
1
 66
1
  0
VERTEX
  8
0
 10
2341.2916835638193
 20
165.7863030066857
 42
1
  0
VERTEX
  8
0
 10
2319.291682610145
 20
165.7863030066857
 42
1
  0
SEQEND
  0
POLYLINE
  8
0
 10
0
 20
0
 39
0
 70
1
 66
1
  0
VERTEX
  8
0
 10
2341.9540675970225
 20
130.89921041635367
 42
1
  0
VERTEX
  8
0
 10
2319.9540685506968
 20
130.89921041635367
 42
1
  0
SEQEND
  0
POLYLINE
  8
0
 10
0
 20
0
 39
0
 70
1
 66
1
  0
VERTEX
  8
0
 10
2341.2916835638193
 20
33.562241040743316
 42
1
  0
VERTEX
  8
0
 10
2319.291682610145
 20
33.562241040743316
 42
1
  0
SEQEND
  0
POLYLINE
  8
0
 10
0
 20
0
 39
0
 70
1
 66
1
  0
VERTEX
  8
0
 10
2268.0160058828501
 20
165.7863030066857
 42
1
  0
VERTEX
  8
0
 10
2246.0160058828501
 20
165.7863030066857
 42
1
  0
SEQEND
  0
POLYLINE
  8
0
 10
0
 20
0
 39
0
 70
1
 66
1
  0
VERTEX
  8
0
 10
2267.353621849647
 20
130.89921041635367
 42
1
  0
VERTEX
  8
0
 10
2245.353621849647
 20
130.89921041635367
 42
1
  0
SEQEND
  0
POLYLINE
  8
0
 10
0
 20
0
 39
0
 70
1
 66
1
  0
VERTEX
  8
0
 10
2268.0160058828501
 20
33.562241040743316
 42
1
  0
VERTEX
  8
0
 10
2246.0160058828501
 20
33.562241040743316
 42
1
  0
SEQEND
  0
POLYLINE
  8
0
 10
0
 20
0
 39
0
 70
1
 66
1
  0
VERTEX
  8
0
 10
2361.9230769230767
 20
195.57692307692307
 42
-0
  0
VERTEX
  8
0
 10
2256.9230769230767
 20
195.57692307692307
 42
-0
  0
VERTEX
  8
0
 10
2256.9230769230767
 20
370.57692307692309
 42
-0
  0
VERTEX
  8
0
 10
2361.9230769230767
 20
370.57692307692309
 42
-0
  0
SEQEND
  0
POLYLINE
  8
0
 10
0
 20
0
 39
0
 70
1
 66
1
  0
VERTEX
  8
0
 10
2357.0609143330498
 20
350.97861069899341
 42
1
  0
VERTEX
  8
0
 10
2335.0609133793755
 20
350.97861069899341
 42
1
  0
SEQEND
  0
POLYLINE
  8
0
 10
0
 20
0
 39
0
 70
1
 66
1
  0
VERTEX
  8
0
 10
2357.7232983662529
 20
316.09151810866138
 42
1
  0
VERTEX
  8
0
 10
2335.7232993199273
 20
316.09151810866138
 42
1
  0
SEQEND
  0
POLYLINE
  8
0
 10
0
 20
0
 39
0
 70
1
 66
1
  0
VERTEX
  8
0
 10
2357.0609143330498
 20
218.754548733051
 42
1
  0
VERTEX
  8
0
 10
2335.0609133793755
 20
218.754548733051
 42
1
  0
SEQEND
  0
POLYLINE
  8
0
 10
0
 20
0
 39
0
 70
1
 66
1
  0
VERTEX
  8
0
 10
2283.7852366520806
 20
350.97861069899341
 42
1
  0
VERTEX
  8
0
 10
2261.7852366520806
 20
350.97861069899341
 42
1
  0
SEQEND
  0
POLYLINE
  8
0
 10
0
 20
0
 39
0
 70
1
 66
1
  0
VERTEX
  8
0
 10
2283.1228526188775
 20
316.09151810866138
 42
1
  0
VERTEX
  8
0
 10
2261.1228526188775
 20
316.09151810866138
 42
1
  0
SEQEND
  0
POLYLINE
  8
0
 10
0
 20
0
 39
0
 70
1
 66
1
  0
VERTEX
  8
0
 10
2283.7852366520806
 20
218.754548733051
 42
1
  0
VERTEX
  8
0
 10
2261.7852366520806
 20
218.754548733051
 42
1
  0
SEQEND
  0
POLYLINE
  8
0
 10
0
 20
0
 39
0
 70
1
 66
1
  0
VERTEX
  8
0
 10
2282.3076923076924
 20
843.46153846153845
 42
-0
  0
VERTEX
  8
0
 10
2282.3076923076924
 20
948.46153846153845
 42
-0
  0
VERTEX
  8
0
 10
2457.3076923076924
 20
948.46153846153845
 42
-0
  0
VERTEX
  8
0
 10
2457.3076923076924
 20
843.46153846153845
 42
-0
  0
SEQEND
  0
POLYLINE
  8
0
 10
0
 20
0
 39
0
 70
1
 66
1
  0
VERTEX
  8
0
 10
2437.7093799297627
 20
848.32370105156531
 42
1
  0
VERTEX
  8
0
 10
2437.7093799297627
 20
870.32370200523962
 42
1
  0
SEQEND
  0
POLYLINE
  8
0
 10
0
 20
0
 39
0
 70
1
 66
1
  0
VERTEX
  8
0
 10
2402.8222873394307
 20
847.66131701836218
 42
1
  0
VERTEX
  8
0
 10
2402.8222873394307
 20
869.66131606468787
 42
1
  0
SEQEND
  0
POLYLINE
  8
0
 10
0
 20
0
 39
0
 70
1
 66
1
  0
VERTEX
  8
0
 10
2305.4853179638203
 20
848.32370105156531
 42
1
  0
VERTEX
  8
0
 10
2305.4853179638203
 20
870.32370200523962
 42
1
  0
SEQEND
  0
POLYLINE
  8
0
 10
0
 20
0
 39
0
 70
1
 66
1
  0
VERTEX
  8
0
 10
2437.7093799297627
 20
921.59937873253455
 42
1
  0
VERTEX
  8
0
 10
2437.7093799297627
 20
943.59937873253455
 42
1
  0
SEQEND
  0
POLYLINE
  8
0
 10
0
 20
0
 39
0
 70
1
 66
1
  0
VERTEX
  8
0
 10
2402.8222873394307
 20
922.26176276573767
 42
1
  0
VERTEX
  8
0
 10
2402.8222873394307
 20
944.26176276573767
 42
1
  0
SEQEND
  0
POLYLINE
  8
0
 10
0
 20
0
 39
0
 70
1
 66
1
  0
VERTEX
  8
0
 10
2305.4853179638203
 20
921.59937873253455
 42
1
  0
VERTEX
  8
0
 10
2305.4853179638203
 20
943.59937873253455
 42
1
  0
SEQEND
  0
POLYLINE
  8
0
 10
0
 20
0
 39
0
 70
1
 66
1
  0
VERTEX
  8
0
 10
2461.5384615384614
 20
10.384615384615383
 42
-0
  0
VERTEX
  8
0
 10
2356.5384615384614
 20
10.384615384615383
 42
-0
  0
VERTEX
  8
0
 10
2356.5384615384614
 20
185.38461538461539
 42
-0
  0
VERTEX
  8
0
 10
2461.5384615384614
 20
185.38461538461539
 42
-0
  0
SEQEND
  0
POLYLINE
  8
0
 10
0
 20
0
 39
0
 70
1
 66
1
  0
VERTEX
  8
0
 10
2456.6762989484346
 20
165.7863030066857
 42
1
  0
VERTEX
  8
0
 10
2434.6762979947603
 20
165.7863030066857
 42
1
  0
SEQEND
  0
POLYLINE
  8
0
 10
0
 20
0
 39
0
 70
1
 66
1
  0
VERTEX
  8
0
 10
2457.3386829816377
 20
130.89921041635367
 42
1
  0
VERTEX
  8
0
 10
2435.338683935312
 20
130.89921041635367
 42
1
  0
SEQEND
  0
POLYLINE
  8
0
 10
0
 20
0
 39
0
 70
1
 66
1
  0
VERTEX
  8
0
 10
2456.6762989484346
 20
33.562241040743316
 42
1
  0
VERTEX
  8
0
 10
2434.6762979947603
 20
33.562241040743316
 42
1
  0
SEQEND
  0
POLYLINE
  8
0
 10
0
 20
0
 39
0
 70
1
 66
1
  0
VERTEX
  8
0
 10
2383.4006212674653
 20
165.7863030066857
 42
1
  0
VERTEX
  8
0
 10
2361.4006212674653
 20
165.7863030066857
 42
1
  0
SEQEND
  0
POLYLINE
  8
0
 10
0
 20
0
 39
0
 70
1
 66
1
  0
VERTEX
  8
0
 10
2382.7382372342622
 20
130.89921041635367
 42
1
  0
VERTEX
  8
0
 10
2360.7382372342622
 20
130.89921041635367
 42
1
  0
SEQEND
  0
POLYLINE
  8
0
 10
0
 20
0
 39
0
 70
1
 66
1
  0
VERTEX
  8
0
 10
2383.4006212674653
 20
33.562241040743316
 42
1
  0
VERTEX
  8
0
 10
2361.4006212674653
 20
33.562241040743316
 42
1
  0
SEQEND
  0
POLYLINE
  8
0
 10
0
 20
0
 39
0
 70
1
 66
1
  0
VERTEX
  8
0
 10
2477.3076923076924
 20
195.57692307692307
 42
-0
  0
VERTEX
  8
0
 10
2372.3076923076924
 20
195.57692307692307
 42
-0
  0
VERTEX
  8
0
 10
2372.3076923076924
 20
370.57692307692309
 42
-0
  0
VERTEX
  8
0
 10
2477.3076923076924
 20
370.57692307692309
 42
-0
  0
SEQEND
  0
POLYLINE
  8
0
 10
0
 20
0
 39
0
 70
1
 66
1
  0
VERTEX
  8
0
 10
2472.4455297176655
 20
350.97861069899341
 42
1
  0
VERTEX
  8
0
 10
2450.4455287639912
 20
350.97861069899341
 42
1
  0
SEQEND
  0
POLYLINE
  8
0
 10
0
 20
0
 39
0
 70
1
 66
1
  0
VERTEX
  8
0
 10
2473.1079137508686
 20
316.09151810866138
 42
1
  0
VERTEX
  8
0
 10
2451.107914704543
 20
316.09151810866138
 42
1
  0
SEQEND
  0
POLYLINE
  8
0
 10
0
 20
0
 39
0
 70
1
 66
1
  0
VERTEX
  8
0
 10
2472.4455297176655
 20
218.754548733051
 42
1
  0
VERTEX
  8
0
 10
2450.4455287639912
 20
218.754548733051
 42
1
  0
SEQEND
  0
POLYLINE
  8
0
 10
0
 20
0
 39
0
 70
1
 66
1
  0
VERTEX
  8
0
 10
2399.1698520366963
 20
350.97861069899341
 42
1
  0
VERTEX
  8
0
 10
2377.1698520366963
 20
350.97861069899341
 42
1
  0
SEQEND
  0
POLYLINE
  8
0
 10
0
 20
0
 39
0
 70
1
 66
1
  0
VERTEX
  8
0
 10
2398.5074680034932
 20
316.09151810866138
 42
1
  0
VERTEX
  8
0
 10
2376.5074680034932
 20
316.09151810866138
 42
1
  0
SEQEND
  0
POLYLINE
  8
0
 10
0
 20
0
 39
0
 70
1
 66
1
  0
VERTEX
  8
0
 10
2399.1698520366963
 20
218.754548733051
 42
1
  0
VERTEX
  8
0
 10
2377.1698520366963
 20
218.754548733051
 42
1
  0
SEQEND
  0
POLYLINE
  8
0
 10
0
 20
0
 39
0
 70
1
 66
1
  0
VERTEX
  8
0
 10
209.36461538462027
 20
885.96153846153902
 42
-0
  0
VERTEX
  8
0
 10
84.364615384620265
 20
885.96153846153902
 42
-0
  0
VERTEX
  8
0
 10
84.364615384620265
 20
895.96153846153902
 42
0
  0
VERTEX
  8
0
 10
120.17125600962027
 20
906.82286658653902
 42
0.16402788460254669
  0
VERTEX
  8
0
 10
130.57359975962027
 20
914.24376502403902
 42
0
  0
VERTEX
  8
0
 10
147.07945913462027
 20
937.07286658653902
 42
-0.72784233093261719
  0
VERTEX
  8
0
 10
196.86461538462027
 20
920.93224158653902
 42
0
  0
VERTEX
  8
0
 10
196.86461538462027
 20
912.96153846153902
 42
0.23288553953170776
  0
VERTEX
  8
0
 10
202.72008413462027
 20
901.07091346153902
 42
0
  0
VERTEX
  8
0
 10
209.36461538462027
 20
895.96153846153902
 42
-0
  0
SEQEND
  0
POLYLINE
  8
0
 10
0
 20
0
 39
0
 70
1
 66
1
  0
VERTEX
  8
0
 10
184.36461538462027
 20
920.96153846153902
 42
1
  0
VERTEX
  8
0
 10
154.36461538462027
 20
920.96153846153902
 42
1
  0
SEQEND
  0
POLYLINE
  8
0
 10
0
 20
0
 39
0
 70
1
 66
1
  0
VERTEX
  8
0
 10
10.384615384617064
 20
948.46086930967067
 42
-0
  0
VERTEX
  8
0
 10
135.38461538461706
 20
948.46086930967067
 42
-0
  0
VERTEX
  8
0
 10
135.38461538461706
 20
938.46086930967067
 42
0
  0
VERTEX
  8
0
 10
99.577974759617064
 20
927.59954118467067
 42
0.16402788460254669
  0
VERTEX
  8
0
 10
89.175631009617064
 20
920.17864274717067
 42
0
  0
VERTEX
  8
0
 10
72.669771634617064
 20
897.34954118467067
 42
-0.72784233093261719
  0
VERTEX
  8
0
 10
22.884615384617064
 20
913.49016618467067
 42
0
  0
VERTEX
  8
0
 10
22.884615384617064
 20
921.46086930967067
 42
0.23288553953170776
  0
VERTEX
  8
0
 10
17.029146634617064
 20
933.35149430967067
 42
0
  0
VERTEX
  8
0
 10
10.384615384617064
 20
938.46086930967067
 42
-0
  0
SEQEND
  0
POLYLINE
  8
0
 10
0
 20
0
 39
0
 70
1
 66
1
  0
VERTEX
  8
0
 10
35.384615384617064
 20
913.46086930967067
 42
1
  0
VERTEX
  8
0
 10
65.384615384617064
 20
913.46086930967067
 42
1
  0
SEQEND
  0
POLYLINE
  8
0
 10
0
 20
0
 39
0
 70
1
 66
1
  0
VERTEX
  8
0
 10
384.55692307692516
 20
927.30769230769147
 42
-0
  0
VERTEX
  8
0
 10
259.55692307692516
 20
927.30769230769147
 42
-0
  0
VERTEX
  8
0
 10
259.55692307692516
 20
937.30769230769147
 42
0
  0
VERTEX
  8
0
 10
295.36356370192516
 20
948.16902043269147
 42
0.16402788460254669
  0
VERTEX
  8
0
 10
305.76590745192516
 20
955.58991887019147
 42
0
  0
VERTEX
  8
0
 10
322.27176682692516
 20
978.41902043269147
 42
-0.72784233093261719
  0
VERTEX
  8
0
 10
372.05692307692516
 20
962.27839543269147
 42
0
  0
VERTEX
  8
0
 10
372.05692307692516
 20
954.30769230769147
 42
0.23288553953170776
  0
VERTEX
  8
0
 10
377.91239182692516
 20
942.41706730769147
 42
0
  0
VERTEX
  8
0
 10
384.55692307692516
 20
937.30769230769147
 42
-0
  0
SEQEND
  0
POLYLINE
  8
0
 10
0
 20
0
 39
0
 70
1
 66
1
  0
VERTEX
  8
0
 10
359.55692307692516
 20
962.30769230769147
 42
1
  0
VERTEX
  8
0
 10
329.55692307692516
 20
962.30769230769147
 42
1
  0
SEQEND
  0
POLYLINE
  8
0
 10
0
 20
0
 39
0
 70
1
 66
1
  0
VERTEX
  8
0
 10
185.57692307692196
 20
989.80702315582312
 42
-0
  0
VERTEX
  8
0
 10
310.57692307692196
 20
989.80702315582312
 42
-0
  0
VERTEX
  8
0
 10
310.57692307692196
 20
979.80702315582312
 42
0
  0
VERTEX
  8
0
 10
274.77028245192196
 20
968.94569503082312
 42
0.16402788460254669
  0
VERTEX
  8
0
 10
264.36793870192196
 20
961.52479659332312
 42
0
  0
VERTEX
  8
0
 10
247.86207932692196
 20
938.69569503082312
 42
-0.72784233093261719
  0
VERTEX
  8
0
 10
198.07692307692196
 20
954.83632003082312
 42
0
  0
VERTEX
  8
0
 10
198.07692307692196
 20
962.80702315582312
 42
0.23288553953170776
  0
VERTEX
  8
0
 10
192.22145432692196
 20
974.69764815582312
 42
0
  0
VERTEX
  8
0
 10
185.57692307692196
 20
979.80702315582312
 42
-0
  0
SEQEND
  0
POLYLINE
  8
0
 10
0
 20
0
 39
0
 70
1
 66
1
  0
VERTEX
  8
0
 10
210.57692307692196
 20
954.80702315582312
 42
1
  0
VERTEX
  8
0
 10
240.57692307692196
 20
954.80702315582312
 42
1
  0
SEQEND
  0
POLYLINE
  8
0
 10
0
 20
0
 39
0
 70
1
 66
1
  0
VERTEX
  8
0
 10
394.80769230769232
 20
885.96153846153845
 42
-0
  0
VERTEX
  8
0
 10
394.80769230769232
 20
965.96153846153845
 42
-0
  0
VERTEX
  8
0
 10
464.80769230769232
 20
965.96153846153845
 42
-0
  0
VERTEX
  8
0
 10
464.80769230769232
 20
885.96153846153845
 42
-0
  0
SEQEND
  0
POLYLINE
  8
0
 10
0
 20
0
 39
0
 70
1
 66
1
  0
VERTEX
  8
0
 10
447.30769230769232
 20
905.96153846153845
 42
-0
  0
VERTEX
  8
0
 10
447.30769230769232
 20
945.96153846153845
 42
-0
  0
VERTEX
  8
0
 10
412.30769230769232
 20
945.96153846153845
 42
-0
  0
VERTEX
  8
0
 10
412.30769230769232
 20
905.96153846153845
 42
-0
  0
SEQEND
  0
POLYLINE
  8
0
 10
0
 20
0
 39
0
 70
1
 66
1
  0
VERTEX
  8
0
 10
475.19230769230768
 20
885.96153846153845
 42
-0
  0
VERTEX
  8
0
 10
475.19230769230768
 20
965.96153846153845
 42
-0
  0
VERTEX
  8
0
 10
545.19230769230762
 20
965.96153846153845
 42
-0
  0
VERTEX
  8
0
 10
545.19230769230762
 20
885.96153846153845
 42
-0
  0
SEQEND
  0
POLYLINE
  8
0
 10
0
 20
0
 39
0
 70
1
 66
1
  0
VERTEX
  8
0
 10
527.69230769230762
 20
905.96153846153845
 42
-0
  0
VERTEX
  8
0
 10
527.69230769230762
 20
945.96153846153845
 42
-0
  0
VERTEX
  8
0
 10
492.69230769230768
 20
945.96153846153845
 42
-0
  0
VERTEX
  8
0
 10
492.69230769230768
 20
905.96153846153845
 42
-0
  0
SEQEND
  0
POLYLINE
  8
0
 10
0
 20
0
 39
0
 70
1
 66
1
  0
VERTEX
  8
0
 10
555.57692307692309
 20
895.96153846153845
 42
-0
  0
VERTEX
  8
0
 10
555.57692307692309
 20
975.96153846153845
 42
-0
  0
VERTEX
  8
0
 10
625.57692307692309
 20
975.96153846153845
 42
-0
  0
VERTEX
  8
0
 10
625.57692307692309
 20
895.96153846153845
 42
-0
  0
SEQEND
  0
POLYLINE
  8
0
 10
0
 20
0
 39
0
 70
1
 66
1
  0
VERTEX
  8
0
 10
608.07692307692309
 20
915.96153846153845
 42
-0
  0
VERTEX
  8
0
 10
608.07692307692309
 20
955.96153846153845
 42
-0
  0
VERTEX
  8
0
 10
573.07692307692309
 20
955.96153846153845
 42
-0
  0
VERTEX
  8
0
 10
573.07692307692309
 20
915.96153846153845
 42
-0
  0
SEQEND
  0
POLYLINE
  8
0
 10
0
 20
0
 39
0
 70
1
 66
1
  0
VERTEX
  8
0
 10
635.96153846153845
 20
895.96153846153845
 42
-0
  0
VERTEX
  8
0
 10
635.96153846153845
 20
975.96153846153845
 42
-0
  0
VERTEX
  8
0
 10
705.96153846153845
 20
975.96153846153845
 42
-0
  0
VERTEX
  8
0
 10
705.96153846153845
 20
895.96153846153845
 42
-0
  0
SEQEND
  0
POLYLINE
  8
0
 10
0
 20
0
 39
0
 70
1
 66
1
  0
VERTEX
  8
0
 10
688.46153846153845
 20
915.96153846153845
 42
-0
  0
VERTEX
  8
0
 10
688.46153846153845
 20
955.96153846153845
 42
-0
  0
VERTEX
  8
0
 10
653.46153846153845
 20
955.96153846153845
 42
-0
  0
VERTEX
  8
0
 10
653.46153846153845
 20
915.96153846153845
 42
-0
  0
SEQEND
  0
POLYLINE
  8
0
 10
0
 20
0
 39
0
 70
1
 66
1
  0
VERTEX
  8
0
 10
716.34615384615381
 20
895.96153846153845
 42
-0
  0
VERTEX
  8
0
 10
716.34615384615381
 20
975.96153846153845
 42
-0
  0
VERTEX
  8
0
 10
786.34615384615381
 20
975.96153846153845
 42
-0
  0
VERTEX
  8
0
 10
786.34615384615381
 20
895.96153846153845
 42
-0
  0
SEQEND
  0
POLYLINE
  8
0
 10
0
 20
0
 39
0
 70
1
 66
1
  0
VERTEX
  8
0
 10
768.84615384615381
 20
915.96153846153845
 42
-0
  0
VERTEX
  8
0
 10
768.84615384615381
 20
955.96153846153845
 42
-0
  0
VERTEX
  8
0
 10
733.84615384615381
 20
955.96153846153845
 42
-0
  0
VERTEX
  8
0
 10
733.84615384615381
 20
915.96153846153845
 42
-0
  0
SEQEND
  0
POLYLINE
  8
0
 10
0
 20
0
 39
0
 70
1
 66
1
  0
VERTEX
  8
0
 10
796.73076923076917
 20
895.96153846153845
 42
-0
  0
VERTEX
  8
0
 10
796.73076923076917
 20
975.96153846153845
 42
-0
  0
VERTEX
  8
0
 10
866.73076923076917
 20
975.96153846153845
 42
-0
  0
VERTEX
  8
0
 10
866.73076923076917
 20
895.96153846153845
 42
-0
  0
SEQEND
  0
POLYLINE
  8
0
 10
0
 20
0
 39
0
 70
1
 66
1
  0
VERTEX
  8
0
 10
849.23076923076917
 20
915.96153846153845
 42
-0
  0
VERTEX
  8
0
 10
849.23076923076917
 20
955.96153846153845
 42
-0
  0
VERTEX
  8
0
 10
814.23076923076917
 20
955.96153846153845
 42
-0
  0
VERTEX
  8
0
 10
814.23076923076917
 20
915.96153846153845
 42
-0
  0
SEQEND
  0
POLYLINE
  8
0
 10
0
 20
0
 39
0
 70
1
 66
1
  0
VERTEX
  8
0
 10
877.11538461538464
 20
895.96153846153845
 42
-0
  0
VERTEX
  8
0
 10
877.11538461538464
 20
975.96153846153845
 42
-0
  0
VERTEX
  8
0
 10
947.11538461538464
 20
975.96153846153845
 42
-0
  0
VERTEX
  8
0
 10
947.11538461538464
 20
895.96153846153845
 42
-0
  0
SEQEND
  0
POLYLINE
  8
0
 10
0
 20
0
 39
0
 70
1
 66
1
  0
VERTEX
  8
0
 10
929.61538461538464
 20
915.96153846153845
 42
-0
  0
VERTEX
  8
0
 10
929.61538461538464
 20
955.96153846153845
 42
-0
  0
VERTEX
  8
0
 10
894.61538461538464
 20
955.96153846153845
 42
-0
  0
VERTEX
  8
0
 10
894.61538461538464
 20
915.96153846153845
 42
-0
  0
SEQEND
  0
POLYLINE
  8
0
 10
0
 20
0
 39
0
 70
1
 66
1
  0
VERTEX
  8
0
 10
1478.2692307692307
 20
919.61538461538453
 42
-0
  0
VERTEX
  8
0
 10
1398.2692307692307
 20
919.61538461538453
 42
-0
  0
VERTEX
  8
0
 10
1398.2692307692307
 20
989.61538461538453
 42
-0
  0
VERTEX
  8
0
 10
1478.2692307692307
 20
989.61538461538453
 42
-0
  0
SEQEND
  0
POLYLINE
  8
0
 10
0
 20
0
 39
0
 70
1
 66
1
  0
VERTEX
  8
0
 10
1458.2692307692307
 20
972.11538461538453
 42
-0
  0
VERTEX
  8
0
 10
1418.2692307692307
 20
972.11538461538453
 42
-0
  0
VERTEX
  8
0
 10
1418.2692307692307
 20
937.11538461538453
 42
-0
  0
VERTEX
  8
0
 10
1458.2692307692307
 20
937.11538461538453
 42
-0
  0
SEQEND
  0
POLYLINE
  8
0
 10
0
 20
0
 39
0
 70
1
 66
1
  0
VERTEX
  8
0
 10
1568.6538461538462
 20
910.96153846153845
 42
-0
  0
VERTEX
  8
0
 10
1488.6538461538462
 20
910.96153846153845
 42
-0
  0
VERTEX
  8
0
 10
1488.6538461538462
 20
980.96153846153845
 42
-0
  0
VERTEX
  8
0
 10
1568.6538461538462
 20
980.96153846153845
 42
-0
  0
SEQEND
  0
POLYLINE
  8
0
 10
0
 20
0
 39
0
 70
1
 66
1
  0
VERTEX
  8
0
 10
1548.6538461538462
 20
963.46153846153845
 42
-0
  0
VERTEX
  8
0
 10
1508.6538461538462
 20
963.46153846153845
 42
-0
  0
VERTEX
  8
0
 10
1508.6538461538462
 20
928.46153846153845
 42
-0
  0
VERTEX
  8
0
 10
1548.6538461538462
 20
928.46153846153845
 42
-0
  0
SEQEND
  0
POLYLINE
  8
0
 10
0
 20
0
 39
0
 70
1
 66
1
  0
VERTEX
  8
0
 10
1659.0384615384614
 20
910.96153846153845
 42
-0
  0
VERTEX
  8
0
 10
1579.0384615384614
 20
910.96153846153845
 42
-0
  0
VERTEX
  8
0
 10
1579.0384615384614
 20
980.96153846153845
 42
-0
  0
VERTEX
  8
0
 10
1659.0384615384614
 20
980.96153846153845
 42
-0
  0
SEQEND
  0
POLYLINE
  8
0
 10
0
 20
0
 39
0
 70
1
 66
1
  0
VERTEX
  8
0
 10
1639.0384615384614
 20
963.46153846153845
 42
-0
  0
VERTEX
  8
0
 10
1599.0384615384614
 20
963.46153846153845
 42
-0
  0
VERTEX
  8
0
 10
1599.0384615384614
 20
928.46153846153845
 42
-0
  0
VERTEX
  8
0
 10
1639.0384615384614
 20
928.46153846153845
 42
-0
  0
SEQEND
  0
POLYLINE
  8
0
 10
0
 20
0
 39
0
 70
1
 66
1
  0
VERTEX
  8
0
 10
1749.4230769230769
 20
910.96153846153845
 42
-0
  0
VERTEX
  8
0
 10
1669.4230769230769
 20
910.96153846153845
 42
-0
  0
VERTEX
  8
0
 10
1669.4230769230769
 20
980.96153846153845
 42
-0
  0
VERTEX
  8
0
 10
1749.4230769230769
 20
980.96153846153845
 42
-0
  0
SEQEND
  0
POLYLINE
  8
0
 10
0
 20
0
 39
0
 70
1
 66
1
  0
VERTEX
  8
0
 10
1729.4230769230769
 20
963.46153846153845
 42
-0
  0
VERTEX
  8
0
 10
1689.4230769230769
 20
963.46153846153845
 42
-0
  0
VERTEX
  8
0
 10
1689.4230769230769
 20
928.46153846153845
 42
-0
  0
VERTEX
  8
0
 10
1729.4230769230769
 20
928.46153846153845
 42
-0
  0
SEQEND
  0
POLYLINE
  8
0
 10
0
 20
0
 39
0
 70
1
 66
1
  0
VERTEX
  8
0
 10
1839.8076923076922
 20
910.96153846153845
 42
-0
  0
VERTEX
  8
0
 10
1759.8076923076922
 20
910.96153846153845
 42
-0
  0
VERTEX
  8
0
 10
1759.8076923076922
 20
980.96153846153845
 42
-0
  0
VERTEX
  8
0
 10
1839.8076923076922
 20
980.96153846153845
 42
-0
  0
SEQEND
  0
POLYLINE
  8
0
 10
0
 20
0
 39
0
 70
1
 66
1
  0
VERTEX
  8
0
 10
1819.8076923076922
 20
963.46153846153845
 42
-0
  0
VERTEX
  8
0
 10
1779.8076923076922
 20
963.46153846153845
 42
-0
  0
VERTEX
  8
0
 10
1779.8076923076922
 20
928.46153846153845
 42
-0
  0
VERTEX
  8
0
 10
1819.8076923076922
 20
928.46153846153845
 42
-0
  0
SEQEND
  0
POLYLINE
  8
0
 10
0
 20
0
 39
0
 70
1
 66
1
  0
VERTEX
  8
0
 10
1930.1923076923076
 20
910.96153846153845
 42
-0
  0
VERTEX
  8
0
 10
1850.1923076923076
 20
910.96153846153845
 42
-0
  0
VERTEX
  8
0
 10
1850.1923076923076
 20
980.96153846153845
 42
-0
  0
VERTEX
  8
0
 10
1930.1923076923076
 20
980.96153846153845
 42
-0
  0
SEQEND
  0
POLYLINE
  8
0
 10
0
 20
0
 39
0
 70
1
 66
1
  0
VERTEX
  8
0
 10
1910.1923076923076
 20
963.46153846153845
 42
-0
  0
VERTEX
  8
0
 10
1870.1923076923076
 20
963.46153846153845
 42
-0
  0
VERTEX
  8
0
 10
1870.1923076923076
 20
928.46153846153845
 42
-0
  0
VERTEX
  8
0
 10
1910.1923076923076
 20
928.46153846153845
 42
-0
  0
SEQEND
  0
POLYLINE
  8
0
 10
0
 20
0
 39
0
 70
1
 66
1
  0
VERTEX
  8
0
 10
2045.5769230769231
 20
887.30769230769226
 42
-0
  0
VERTEX
  8
0
 10
1940.5769230769231
 20
887.30769230769226
 42
-0
  0
VERTEX
  8
0
 10
1940.5769230769231
 20
937.30769230769226
 42
-0
  0
VERTEX
  8
0
 10
2045.5769230769231
 20
937.30769230769226
 42
-0
  0
SEQEND
  0
POLYLINE
  8
0
 10
0
 20
0
 39
0
 70
1
 66
1
  0
VERTEX
  8
0
 10
2039.0313755915715
 20
912.30769230769226
 42
1
  0
VERTEX
  8
0
 10
2017.0313755915715
 20
912.30769230769226
 42
1
  0
SEQEND
  0
POLYLINE
  8
0
 10
0
 20
0
 39
0
 70
1
 66
1
  0
VERTEX
  8
0
 10
1969.1224705622747
 20
912.30769230769226
 42
1
  0
VERTEX
  8
0
 10
1947.1224705622747
 20
912.30769230769226
 42
1
  0
SEQEND
  0
POLYLINE
  8
0
 10
0
 20
0
 39
0
 70
1
 66
1
  0
VERTEX
  8
0
 10
2035.7692307692307
 20
401.92307692307691
 42
-0
  0
VERTEX
  8
0
 10
2035.7692307692307
 20
506.92307692307691
 42
-0
  0
VERTEX
  8
0
 10
2085.7692307692305
 20
506.92307692307691
 42
-0
  0
VERTEX
  8
0
 10
2085.7692307692305
 20
401.92307692307691
 42
-0
  0
SEQEND
  0
POLYLINE
  8
0
 10
0
 20
0
 39
0
 70
1
 66
1
  0
VERTEX
  8
0
 10
2060.7692307692305
 20
408.46862440842847
 42
1
  0
VERTEX
  8
0
 10
2060.7692307692305
 20
430.46862440842847
 42
1
  0
SEQEND
  0
POLYLINE
  8
0
 10
0
 20
0
 39
0
 70
1
 66
1
  0
VERTEX
  8
0
 10
2060.7692307692305
 20
478.37752943772534
 42
1
  0
VERTEX
  8
0
 10
2060.7692307692305
 20
500.37752943772534
 42
1
  0
SEQEND
  0
POLYLINE
  8
0
 10
0
 20
0
 39
0
 70
1
 66
1
  0
VERTEX
  8
0
 10
2166.9230769230767
 20
622.69230769230762
 42
-0
  0
VERTEX
  8
0
 10
2166.9230769230767
 20
727.69230769230762
 42
-0
  0
VERTEX
  8
0
 10
2216.9230769230767
 20
727.69230769230762
 42
-0
  0
VERTEX
  8
0
 10
2216.9230769230767
 20
622.69230769230762
 42
-0
  0
SEQEND
  0
POLYLINE
  8
0
 10
0
 20
0
 39
0
 70
1
 66
1
  0
VERTEX
  8
0
 10
2191.9230769230767
 20
629.23785517765918
 42
1
  0
VERTEX
  8
0
 10
2191.9230769230767
 20
651.23785517765918
 42
1
  0
SEQEND
  0
POLYLINE
  8
0
 10
0
 20
0
 39
0
 70
1
 66
1
  0
VERTEX
  8
0
 10
2191.9230769230767
 20
699.14676020695606
 42
1
  0
VERTEX
  8
0
 10
2191.9230769230767
 20
721.14676020695606
 42
1
  0
SEQEND
  0
POLYLINE
  8
0
 10
0
 20
0
 39
0
 70
1
 66
1
  0
VERTEX
  8
0
 10
2361.9230769230767
 20
380.76923076923077
 42
-0
  0
VERTEX
  8
0
 10
2256.9230769230767
 20
380.76923076923077
 42
-0
  0
VERTEX
  8
0
 10
2256.9230769230767
 20
430.76923076923077
 42
-0
  0
VERTEX
  8
0
 10
2361.9230769230767
 20
430.76923076923077
 42
-0
  0
SEQEND
  0
POLYLINE
  8
0
 10
0
 20
0
 39
0
 70
1
 66
1
  0
VERTEX
  8
0
 10
2355.3775294377251
 20
405.76923076923077
 42
1
  0
VERTEX
  8
0
 10
2333.3775294377251
 20
405.76923076923077
 42
1
  0
SEQEND
  0
POLYLINE
  8
0
 10
0
 20
0
 39
0
 70
1
 66
1
  0
VERTEX
  8
0
 10
2285.4686244084282
 20
405.76923076923077
 42
1
  0
VERTEX
  8
0
 10
2263.4686244084282
 20
405.76923076923077
 42
1
  0
SEQEND
  0
POLYLINE
  8
0
 10
0
 20
0
 39
0
 70
1
 66
1
  0
VERTEX
  8
0
 10
2372.3076923076924
 20
380.76923076923077
 42
-0
  0
VERTEX
  8
0
 10
2372.3076923076924
 20
485.76923076923077
 42
-0
  0
VERTEX
  8
0
 10
2422.3076923076924
 20
485.76923076923077
 42
-0
  0
VERTEX
  8
0
 10
2422.3076923076924
 20
380.76923076923077
 42
-0
  0
SEQEND
  0
POLYLINE
  8
0
 10
0
 20
0
 39
0
 70
1
 66
1
  0
VERTEX
  8
0
 10
2397.3076923076924
 20
387.31477825458234
 42
1
  0
VERTEX
  8
0
 10
2397.3076923076924
 20
409.31477825458234
 42
1
  0
SEQEND
  0
POLYLINE
  8
0
 10
0
 20
0
 39
0
 70
1
 66
1
  0
VERTEX
  8
0
 10
2397.3076923076924
 20
457.22368328387921
 42
1
  0
VERTEX
  8
0
 10
2397.3076923076924
 20
479.22368328387921
 42
1
  0
SEQEND
  0
POLYLINE
  8
0
 10
0
 20
0
 39
0
 70
1
 66
1
  0
VERTEX
  8
0
 10
2387.8846153846152
 20
655.96153846153845
 42
-0
  0
VERTEX
  8
0
 10
2387.8846153846152
 20
760.96153846153845
 42
-0
  0
VERTEX
  8
0
 10
2437.8846153846152
 20
760.96153846153845
 42
-0
  0
VERTEX
  8
0
 10
2437.8846153846152
 20
655.96153846153845
 42
-0
  0
SEQEND
  0
POLYLINE
  8
0
 10
0
 20
0
 39
0
 70
1
 66
1
  0
VERTEX
  8
0
 10
2412.8846153846152
 20
662.50708594689002
 42
1
  0
VERTEX
  8
0
 10
2412.8846153846152
 20
684.50708594689002
 42
1
  0
SEQEND
  0
POLYLINE
  8
0
 10
0
 20
0
 39
0
 70
1
 66
1
  0
VERTEX
  8
0
 10
2412.8846153846152
 20
732.41599097618689
 42
1
  0
VERTEX
  8
0
 10
2412.8846153846152
 20
754.41599097618689
 42
1
  0
SEQEND
  0
POLYLINE
  8
0
 10
0
 20
0
 39
0
 70
1
 66
1
  0
VERTEX
  8
0
 10
2388.0769230769229
 20
495.96153846153845
 42
-0
  0
VERTEX
  8
0
 10
2388.0769230769229
 20
600.96153846153845
 42
-0
  0
VERTEX
  8
0
 10
2438.0769230769229
 20
600.96153846153845
 42
-0
  0
VERTEX
  8
0
 10
2438.0769230769229
 20
495.96153846153845
 42
-0
  0
SEQEND
  0
POLYLINE
  8
0
 10
0
 20
0
 39
0
 70
1
 66
1
  0
VERTEX
  8
0
 10
2413.0769230769229
 20
502.50708594689002
 42
1
  0
VERTEX
  8
0
 10
2413.0769230769229
 20
524.50708594689002
 42
1
  0
SEQEND
  0
POLYLINE
  8
0
 10
0
 20
0
 39
0
 70
1
 66
1
  0
VERTEX
  8
0
 10
2413.0769230769229
 20
572.41599097618689
 42
1
  0
VERTEX
  8
0
 10
2413.0769230769229
 20
594.41599097618689
 42
1
  0
SEQEND
  0
POLYLINE
  8
0
 10
0
 20
0
 39
0
 70
1
 66
1
  0
VERTEX
  8
0
 10
2432.6923076923076
 20
380.76923076923077
 42
-0
  0
VERTEX
  8
0
 10
2432.6923076923076
 20
485.76923076923077
 42
-0
  0
VERTEX
  8
0
 10
2482.6923076923076
 20
485.76923076923077
 42
-0
  0
VERTEX
  8
0
 10
2482.6923076923076
 20
380.76923076923077
 42
-0
  0
SEQEND
  0
POLYLINE
  8
0
 10
0
 20
0
 39
0
 70
1
 66
1
  0
VERTEX
  8
0
 10
2457.6923076923076
 20
387.31477825458234
 42
1
  0
VERTEX
  8
0
 10
2457.6923076923076
 20
409.31477825458234
 42
1
  0
SEQEND
  0
POLYLINE
  8
0
 10
0
 20
0
 39
0
 70
1
 66
1
  0
VERTEX
  8
0
 10
2457.6923076923076
 20
457.22368328387921
 42
1
  0
VERTEX
  8
0
 10
2457.6923076923076
 20
479.22368328387921
 42
1
  0
SEQEND
  0
ENDSEC
  0
EOF
