  0
SECTION
  2
ENTITIES
  0
POLYLINE
  8
0
 10
0
 20
0
 39
0
 70
1
 66
1
  0
VERTEX
  8
0
 10
0
 20
0
 42
0
  0
VERTEX
  8
0
 10
2800
 20
0
 42
0
  0
VERTEX
  8
0
 10
2800
 20
1200
 42
0
  0
VERTEX
  8
0
 10
0
 20
1200
 42
0
  0
SEQEND
  0
POLYLINE
  8
0
 10
0
 20
0
 39
0
 70
1
 66
1
  0
VERTEX
  8
0
 10
532.22666666666669
 20
612.84344947916668
 42
-0
  0
VERTEX
  8
0
 10
336.30412027994794
 20
438.14693916422527
 42
-0
  0
VERTEX
  8
0
 10
145.92786905924478
 20
438.14693916422527
 42
-0
  0
VERTEX
  8
0
 10
10.226666666666667
 20
335.65106666666668
 42
-0
  0
VERTEX
  8
0
 10
10.226666666666667
 20
855.65106666666668
 42
-0
  0
VERTEX
  8
0
 10
452.22666666666669
 20
855.65106666666668
 42
-0
  0
VERTEX
  8
0
 10
532.22666666666669
 20
791.4106186686198
 42
-0
  0
SEQEND
  0
POLYLINE
  8
0
 10
0
 20
0
 39
0
 70
1
 66
1
  0
VERTEX
  8
0
 10
421.33332560221356
 20
791.4106186686198
 42
-0
  0
VERTEX
  8
0
 10
273.08216593424481
 20
791.4106186686198
 42
-0
  0
VERTEX
  8
0
 10
273.08216593424481
 20
765.4106186686198
 42
-0
  0
VERTEX
  8
0
 10
169.08215067545572
 20
765.4106186686198
 42
-0
  0
VERTEX
  8
0
 10
169.08215067545572
 20
791.4106186686198
 42
-0
  0
VERTEX
  8
0
 10
78.077267862955722
 20
791.4106186686198
 42
-0
  0
VERTEX
  8
0
 10
78.077267862955722
 20
739.4106186686198
 42
-0
  0
VERTEX
  8
0
 10
145.92786905924478
 20
702.12701881510418
 42
-0
  0
VERTEX
  8
0
 10
145.92786905924478
 20
652.12701881510418
 42
0
  0
VERTEX
  8
0
 10
421.33332560221356
 20
765.4106186686198
 42
0
  0
SEQEND
  0
POLYLINE
  8
0
 10
0
 20
0
 39
0
 70
1
 66
1
  0
VERTEX
  8
0
 10
367.30412027994794
 20
612.84344947916668
 42
1
  0
VERTEX
  8
0
 10
305.30412027994794
 20
612.84344947916668
 42
1
  0
SEQEND
  0
POLYLINE
  8
0
 10
0
 20
0
 39
0
 70
1
 66
1
  0
VERTEX
  8
0
 10
10.226666666666688
 20
253.03428385416674
 42
-0
  0
VERTEX
  8
0
 10
206.14921305338544
 20
427.73079416910815
 42
-0
  0
VERTEX
  8
0
 10
396.52546427408856
 20
427.73079416910809
 42
-0
  0
VERTEX
  8
0
 10
532.22666666666669
 20
530.22666666666669
 42
-0
  0
VERTEX
  8
0
 10
532.22666666666657
 20
10.226666666666688
 42
-0
  0
VERTEX
  8
0
 10
90.226666666666631
 20
10.226666666666688
 42
-0
  0
VERTEX
  8
0
 10
10.226666666666688
 20
74.46711466471362
 42
-0
  0
SEQEND
  0
POLYLINE
  8
0
 10
0
 20
0
 39
0
 70
1
 66
1
  0
VERTEX
  8
0
 10
121.12000773111976
 20
74.46711466471362
 42
-0
  0
VERTEX
  8
0
 10
269.37116739908851
 20
74.46711466471362
 42
-0
  0
VERTEX
  8
0
 10
269.37116739908851
 20
100.46711466471362
 42
-0
  0
VERTEX
  8
0
 10
373.37118265787757
 20
100.46711466471356
 42
-0
  0
VERTEX
  8
0
 10
373.37118265787757
 20
74.467114664713563
 42
-0
  0
VERTEX
  8
0
 10
464.37606547037757
 20
74.467114664713563
 42
-0
  0
VERTEX
  8
0
 10
464.37606547037757
 20
126.46711466471356
 42
-0
  0
VERTEX
  8
0
 10
396.52546427408851
 20
163.75071451822919
 42
-0
  0
VERTEX
  8
0
 10
396.52546427408856
 20
213.75071451822919
 42
0
  0
VERTEX
  8
0
 10
121.12000773111976
 20
100.46711466471362
 42
0
  0
SEQEND
  0
POLYLINE
  8
0
 10
0
 20
0
 39
0
 70
1
 66
1
  0
VERTEX
  8
0
 10
175.14921305338538
 20
253.03428385416674
 42
1
  0
VERTEX
  8
0
 10
237.14921305338538
 20
253.03428385416674
 42
1
  0
SEQEND
  0
POLYLINE
  8
0
 10
0
 20
0
 39
0
 70
1
 66
1
  0
VERTEX
  8
0
 10
1064.4133333333334
 20
612.84344947916668
 42
-0
  0
VERTEX
  8
0
 10
868.49078694661466
 20
438.14693916422527
 42
-0
  0
VERTEX
  8
0
 10
678.11453572591154
 20
438.14693916422527
 42
-0
  0
VERTEX
  8
0
 10
542.41333333333341
 20
335.65106666666668
 42
-0
  0
VERTEX
  8
0
 10
542.41333333333341
 20
855.65106666666668
 42
-0
  0
VERTEX
  8
0
 10
984.41333333333341
 20
855.65106666666668
 42
-0
  0
VERTEX
  8
0
 10
1064.4133333333334
 20
791.4106186686198
 42
-0
  0
SEQEND
  0
POLYLINE
  8
0
 10
0
 20
0
 39
0
 70
1
 66
1
  0
VERTEX
  8
0
 10
953.51999226888029
 20
791.4106186686198
 42
-0
  0
VERTEX
  8
0
 10
805.26883260091154
 20
791.4106186686198
 42
-0
  0
VERTEX
  8
0
 10
805.26883260091154
 20
765.4106186686198
 42
-0
  0
VERTEX
  8
0
 10
701.26881734212247
 20
765.4106186686198
 42
-0
  0
VERTEX
  8
0
 10
701.26881734212247
 20
791.4106186686198
 42
-0
  0
VERTEX
  8
0
 10
610.26393452962247
 20
791.4106186686198
 42
-0
  0
VERTEX
  8
0
 10
610.26393452962247
 20
739.4106186686198
 42
-0
  0
VERTEX
  8
0
 10
678.11453572591154
 20
702.12701881510418
 42
-0
  0
VERTEX
  8
0
 10
678.11453572591154
 20
652.12701881510418
 42
0
  0
VERTEX
  8
0
 10
953.51999226888029
 20
765.4106186686198
 42
0
  0
SEQEND
  0
POLYLINE
  8
0
 10
0
 20
0
 39
0
 70
1
 66
1
  0
VERTEX
  8
0
 10
899.49078694661466
 20
612.84344947916668
 42
1
  0
VERTEX
  8
0
 10
837.49078694661466
 20
612.84344947916668
 42
1
  0
SEQEND
  0
POLYLINE
  8
0
 10
0
 20
0
 39
0
 70
1
 66
1
  0
VERTEX
  8
0
 10
542.41333333333341
 20
253.03428385416674
 42
-0
  0
VERTEX
  8
0
 10
738.33587972005216
 20
427.73079416910815
 42
-0
  0
VERTEX
  8
0
 10
928.71213094075529
 20
427.73079416910809
 42
-0
  0
VERTEX
  8
0
 10
1064.4133333333334
 20
530.22666666666669
 42
-0
  0
VERTEX
  8
0
 10
1064.4133333333334
 20
10.226666666666688
 42
-0
  0
VERTEX
  8
0
 10
622.41333333333341
 20
10.226666666666688
 42
-0
  0
VERTEX
  8
0
 10
542.41333333333341
 20
74.46711466471362
 42
-0
  0
SEQEND
  0
POLYLINE
  8
0
 10
0
 20
0
 39
0
 70
1
 66
1
  0
VERTEX
  8
0
 10
653.30667439778654
 20
74.46711466471362
 42
-0
  0
VERTEX
  8
0
 10
801.55783406575529
 20
74.46711466471362
 42
-0
  0
VERTEX
  8
0
 10
801.55783406575529
 20
100.46711466471362
 42
-0
  0
VERTEX
  8
0
 10
905.55784932454435
 20
100.46711466471356
 42
-0
  0
VERTEX
  8
0
 10
905.55784932454435
 20
74.467114664713563
 42
-0
  0
VERTEX
  8
0
 10
996.56273213704435
 20
74.467114664713563
 42
-0
  0
VERTEX
  8
0
 10
996.56273213704435
 20
126.46711466471356
 42
-0
  0
VERTEX
  8
0
 10
928.71213094075529
 20
163.75071451822919
 42
-0
  0
VERTEX
  8
0
 10
928.71213094075529
 20
213.75071451822919
 42
0
  0
VERTEX
  8
0
 10
653.30667439778654
 20
100.46711466471362
 42
0
  0
SEQEND
  0
POLYLINE
  8
0
 10
0
 20
0
 39
0
 70
1
 66
1
  0
VERTEX
  8
0
 10
707.33587972005216
 20
253.03428385416674
 42
1
  0
VERTEX
  8
0
 10
769.33587972005216
 20
253.03428385416674
 42
1
  0
SEQEND
  0
POLYLINE
  8
0
 10
0
 20
0
 39
0
 70
1
 66
1
  0
VERTEX
  8
0
 10
1596.6000000000001
 20
10.226666666666667
 42
-0
  0
VERTEX
  8
0
 10
1074.6000000000001
 20
10.226666666666667
 42
-0
  0
VERTEX
  8
0
 10
1074.6000000000001
 20
214.22666666666666
 42
-0
  0
VERTEX
  8
0
 10
1210.3012023925783
 20
335.50809977213544
 42
-0
  0
VERTEX
  8
0
 10
1485.706658935547
 20
335.50809977213544
 42
-0
  0
VERTEX
  8
0
 10
1485.706658935547
 20
419.21842692057294
 42
0
  0
VERTEX
  8
0
 10
1596.6000000000001
 20
520.22666666666669
 42
0
  0
SEQEND
  0
POLYLINE
  8
0
 10
0
 20
0
 39
0
 70
1
 66
1
  0
VERTEX
  8
0
 10
1431.6774536132814
 20
171.9902012125651
 42
1
  0
VERTEX
  8
0
 10
1369.6774536132814
 20
171.9902012125651
 42
1
  0
SEQEND
  0
POLYLINE
  8
0
 10
0
 20
0
 39
0
 70
1
 66
1
  0
VERTEX
  8
0
 10
1274.4072814941408
 20
171.9902012125651
 42
1
  0
VERTEX
  8
0
 10
1212.4072814941408
 20
171.9902012125651
 42
1
  0
SEQEND
  0
POLYLINE
  8
0
 10
0
 20
0
 39
0
 70
1
 66
1
  0
VERTEX
  8
0
 10
1074.6000000000001
 20
738.39986666666664
 42
-0
  0
VERTEX
  8
0
 10
1596.6000000000001
 20
738.39986666666653
 42
-0
  0
VERTEX
  8
0
 10
1596.6000000000001
 20
534.39986666666664
 42
-0
  0
VERTEX
  8
0
 10
1460.898797607422
 20
413.11843356119783
 42
-0
  0
VERTEX
  8
0
 10
1185.4933410644533
 20
413.11843356119789
 42
-0
  0
VERTEX
  8
0
 10
1185.4933410644533
 20
329.40810641276039
 42
0
  0
VERTEX
  8
0
 10
1074.6000000000001
 20
228.39986666666664
 42
0
  0
SEQEND
  0
POLYLINE
  8
0
 10
0
 20
0
 39
0
 70
1
 66
1
  0
VERTEX
  8
0
 10
1239.5225463867189
 20
576.6363321207682
 42
1
  0
VERTEX
  8
0
 10
1301.5225463867189
 20
576.6363321207682
 42
1
  0
SEQEND
  0
POLYLINE
  8
0
 10
0
 20
0
 39
0
 70
1
 66
1
  0
VERTEX
  8
0
 10
1396.7927185058595
 20
576.6363321207682
 42
1
  0
VERTEX
  8
0
 10
1458.7927185058595
 20
576.6363321207682
 42
1
  0
SEQEND
  0
POLYLINE
  8
0
 10
0
 20
0
 39
0
 70
1
 66
1
  0
VERTEX
  8
0
 10
2128.7866666666669
 20
10.226666666666667
 42
-0
  0
VERTEX
  8
0
 10
1606.7866666666669
 20
10.226666666666667
 42
-0
  0
VERTEX
  8
0
 10
1606.7866666666669
 20
214.22666666666666
 42
-0
  0
VERTEX
  8
0
 10
1742.487869059245
 20
335.50809977213544
 42
-0
  0
VERTEX
  8
0
 10
2017.8933256022137
 20
335.50809977213544
 42
-0
  0
VERTEX
  8
0
 10
2017.8933256022137
 20
419.21842692057294
 42
0
  0
VERTEX
  8
0
 10
2128.7866666666669
 20
520.22666666666669
 42
0
  0
SEQEND
  0
POLYLINE
  8
0
 10
0
 20
0
 39
0
 70
1
 66
1
  0
VERTEX
  8
0
 10
1963.8641202799481
 20
171.9902012125651
 42
1
  0
VERTEX
  8
0
 10
1901.8641202799481
 20
171.9902012125651
 42
1
  0
SEQEND
  0
POLYLINE
  8
0
 10
0
 20
0
 39
0
 70
1
 66
1
  0
VERTEX
  8
0
 10
1806.5939481608075
 20
171.9902012125651
 42
1
  0
VERTEX
  8
0
 10
1744.5939481608075
 20
171.9902012125651
 42
1
  0
SEQEND
  0
POLYLINE
  8
0
 10
0
 20
0
 39
0
 70
1
 66
1
  0
VERTEX
  8
0
 10
1606.7866666666669
 20
738.39986666666664
 42
-0
  0
VERTEX
  8
0
 10
2128.7866666666669
 20
738.39986666666653
 42
-0
  0
VERTEX
  8
0
 10
2128.7866666666669
 20
534.39986666666664
 42
-0
  0
VERTEX
  8
0
 10
1993.0854642740887
 20
413.11843356119783
 42
-0
  0
VERTEX
  8
0
 10
1717.68000773112
 20
413.11843356119789
 42
-0
  0
VERTEX
  8
0
 10
1717.68000773112
 20
329.40810641276039
 42
0
  0
VERTEX
  8
0
 10
1606.7866666666669
 20
228.39986666666664
 42
0
  0
SEQEND
  0
POLYLINE
  8
0
 10
0
 20
0
 39
0
 70
1
 66
1
  0
VERTEX
  8
0
 10
1771.7092130533856
 20
576.6363321207682
 42
1
  0
VERTEX
  8
0
 10
1833.7092130533856
 20
576.6363321207682
 42
1
  0
SEQEND
  0
POLYLINE
  8
0
 10
0
 20
0
 39
0
 70
1
 66
1
  0
VERTEX
  8
0
 10
1928.9793851725262
 20
576.6363321207682
 42
1
  0
VERTEX
  8
0
 10
1990.9793851725262
 20
576.6363321207682
 42
1
  0
SEQEND
  0
POLYLINE
  8
0
 10
0
 20
0
 39
0
 70
1
 66
1
  0
VERTEX
  8
0
 10
650.22666666666669
 20
865.72000000000003
 42
-0
  0
VERTEX
  8
0
 10
10.226666666666688
 20
865.72000000000003
 42
0
  0
VERTEX
  8
0
 10
10.226666666666688
 20
1165.72
 42
0
  0
VERTEX
  8
0
 10
265.06211588541669
 20
1165.72
 42
0
  0
VERTEX
  8
0
 10
265.06211588541669
 20
1128.6190173339844
 42
0
  0
VERTEX
  8
0
 10
574.06210062662763
 20
1128.6190173339844
 42
0
  0
VERTEX
  8
0
 10
574.06210062662763
 20
1165.72
 42
0
  0
VERTEX
  8
0
 10
650.22666666666669
 20
1165.72
 42
0
  0
SEQEND
  0
POLYLINE
  8
0
 10
0
 20
0
 39
0
 70
1
 66
1
  0
VERTEX
  8
0
 10
574.06210062662763
 20
1079.8370043945313
 42
0
  0
VERTEX
  8
0
 10
503.06210062662763
 20
1079.8370043945313
 42
0
  0
VERTEX
  8
0
 10
503.06210062662763
 20
1015.72
 42
0
  0
VERTEX
  8
0
 10
574.06210062662763
 20
1015.72
 42
0
  0
SEQEND
  0
POLYLINE
  8
0
 10
0
 20
0
 39
0
 70
1
 66
1
  0
VERTEX
  8
0
 10
455.56210062662763
 20
1047.7785021972657
 42
1
  0
VERTEX
  8
0
 10
383.56211588541669
 20
1047.7785021972657
 42
1
  0
SEQEND
  0
POLYLINE
  8
0
 10
0
 20
0
 39
0
 70
1
 66
1
  0
VERTEX
  8
0
 10
345.89381144205731
 20
1047.7785021972657
 42
1
  0
VERTEX
  8
0
 10
273.89381144205731
 20
1047.7785021972657
 42
1
  0
SEQEND
  0
POLYLINE
  8
0
 10
0
 20
0
 39
0
 70
1
 66
1
  0
VERTEX
  8
0
 10
1300.5733333333333
 20
865.72000000000003
 42
-0
  0
VERTEX
  8
0
 10
660.57333333333327
 20
865.72000000000003
 42
0
  0
VERTEX
  8
0
 10
660.57333333333327
 20
1165.72
 42
0
  0
VERTEX
  8
0
 10
915.40878255208327
 20
1165.72
 42
0
  0
VERTEX
  8
0
 10
915.40878255208327
 20
1128.6190173339844
 42
0
  0
VERTEX
  8
0
 10
1224.4087672932942
 20
1128.6190173339844
 42
0
  0
VERTEX
  8
0
 10
1224.4087672932942
 20
1165.72
 42
0
  0
VERTEX
  8
0
 10
1300.5733333333333
 20
1165.72
 42
0
  0
SEQEND
  0
POLYLINE
  8
0
 10
0
 20
0
 39
0
 70
1
 66
1
  0
VERTEX
  8
0
 10
1224.4087672932942
 20
1079.8370043945313
 42
0
  0
VERTEX
  8
0
 10
1153.4087672932942
 20
1079.8370043945313
 42
0
  0
VERTEX
  8
0
 10
1153.4087672932942
 20
1015.72
 42
0
  0
VERTEX
  8
0
 10
1224.4087672932942
 20
1015.72
 42
0
  0
SEQEND
  0
POLYLINE
  8
0
 10
0
 20
0
 39
0
 70
1
 66
1
  0
VERTEX
  8
0
 10
1105.9087672932942
 20
1047.7785021972657
 42
1
  0
VERTEX
  8
0
 10
1033.9087825520833
 20
1047.7785021972657
 42
1
  0
SEQEND
  0
POLYLINE
  8
0
 10
0
 20
0
 39
0
 70
1
 66
1
  0
VERTEX
  8
0
 10
996.24047810872389
 20
1047.7785021972657
 42
1
  0
VERTEX
  8
0
 10
924.24047810872389
 20
1047.7785021972657
 42
1
  0
SEQEND
  0
POLYLINE
  8
0
 10
0
 20
0
 39
0
 70
1
 66
1
  0
VERTEX
  8
0
 10
1310.9200000000001
 20
748.49333333333334
 42
-0
  0
VERTEX
  8
0
 10
1310.9200000000001
 20
1148.4933333333333
 42
0
  0
VERTEX
  8
0
 10
1615.9200000000001
 20
1148.4933333333333
 42
0
  0
VERTEX
  8
0
 10
1615.9200000000001
 20
748.49333333333334
 42
0
  0
SEQEND
  0
POLYLINE
  8
0
 10
0
 20
0
 39
0
 70
1
 66
1
  0
VERTEX
  8
0
 10
1572.1075610351563
 20
1086.1804671223958
 42
1
  0
VERTEX
  8
0
 10
1572.1075610351563
 20
1116.1804671223958
 42
1
  0
SEQEND
  0
POLYLINE
  8
0
 10
0
 20
0
 39
0
 70
1
 66
1
  0
VERTEX
  8
0
 10
1511.2743395996094
 20
885.94058369954428
 42
1
  0
VERTEX
  8
0
 10
1511.2743395996094
 20
941.94058369954428
 42
1
  0
SEQEND
  0
POLYLINE
  8
0
 10
0
 20
0
 39
0
 70
1
 66
1
  0
VERTEX
  8
0
 10
1354.7324427795411
 20
1086.1804671223958
 42
1
  0
VERTEX
  8
0
 10
1354.7324427795411
 20
1116.1804671223958
 42
1
  0
SEQEND
  0
POLYLINE
  8
0
 10
0
 20
0
 39
0
 70
1
 66
1
  0
VERTEX
  8
0
 10
1415.5656604003907
 20
885.94058369954428
 42
1
  0
VERTEX
  8
0
 10
1415.5656604003907
 20
941.94058369954428
 42
1
  0
SEQEND
  0
POLYLINE
  8
0
 10
0
 20
0
 39
0
 70
1
 66
1
  0
VERTEX
  8
0
 10
1626.2
 20
748.49333333333334
 42
-0
  0
VERTEX
  8
0
 10
1626.2
 20
1148.4933333333333
 42
0
  0
VERTEX
  8
0
 10
1931.2
 20
1148.4933333333333
 42
0
  0
VERTEX
  8
0
 10
1931.2
 20
748.49333333333334
 42
0
  0
SEQEND
  0
POLYLINE
  8
0
 10
0
 20
0
 39
0
 70
1
 66
1
  0
VERTEX
  8
0
 10
1887.3875610351563
 20
1086.1804671223958
 42
1
  0
VERTEX
  8
0
 10
1887.3875610351563
 20
1116.1804671223958
 42
1
  0
SEQEND
  0
POLYLINE
  8
0
 10
0
 20
0
 39
0
 70
1
 66
1
  0
VERTEX
  8
0
 10
1826.5543395996094
 20
885.94058369954428
 42
1
  0
VERTEX
  8
0
 10
1826.5543395996094
 20
941.94058369954428
 42
1
  0
SEQEND
  0
POLYLINE
  8
0
 10
0
 20
0
 39
0
 70
1
 66
1
  0
VERTEX
  8
0
 10
1670.0124427795411
 20
1086.1804671223958
 42
1
  0
VERTEX
  8
0
 10
1670.0124427795411
 20
1116.1804671223958
 42
1
  0
SEQEND
  0
POLYLINE
  8
0
 10
0
 20
0
 39
0
 70
1
 66
1
  0
VERTEX
  8
0
 10
1730.8456604003907
 20
885.94058369954428
 42
1
  0
VERTEX
  8
0
 10
1730.8456604003907
 20
941.94058369954428
 42
1
  0
SEQEND
  0
POLYLINE
  8
0
 10
0
 20
0
 39
0
 70
1
 66
1
  0
VERTEX
  8
0
 10
1941.4800000000002
 20
748.49333333333334
 42
-0
  0
VERTEX
  8
0
 10
1941.4800000000002
 20
1148.4933333333333
 42
0
  0
VERTEX
  8
0
 10
2246.4800000000005
 20
1148.4933333333333
 42
0
  0
VERTEX
  8
0
 10
2246.4800000000005
 20
748.49333333333334
 42
0
  0
SEQEND
  0
POLYLINE
  8
0
 10
0
 20
0
 39
0
 70
1
 66
1
  0
VERTEX
  8
0
 10
2202.6675610351567
 20
1086.1804671223958
 42
1
  0
VERTEX
  8
0
 10
2202.6675610351567
 20
1116.1804671223958
 42
1
  0
SEQEND
  0
POLYLINE
  8
0
 10
0
 20
0
 39
0
 70
1
 66
1
  0
VERTEX
  8
0
 10
2141.8343395996098
 20
885.94058369954428
 42
1
  0
VERTEX
  8
0
 10
2141.8343395996098
 20
941.94058369954428
 42
1
  0
SEQEND
  0
POLYLINE
  8
0
 10
0
 20
0
 39
0
 70
1
 66
1
  0
VERTEX
  8
0
 10
1985.2924427795413
 20
1086.1804671223958
 42
1
  0
VERTEX
  8
0
 10
1985.2924427795413
 20
1116.1804671223958
 42
1
  0
SEQEND
  0
POLYLINE
  8
0
 10
0
 20
0
 39
0
 70
1
 66
1
  0
VERTEX
  8
0
 10
2046.1256604003909
 20
885.94058369954428
 42
1
  0
VERTEX
  8
0
 10
2046.1256604003909
 20
941.94058369954428
 42
1
  0
SEQEND
  0
POLYLINE
  8
0
 10
0
 20
0
 39
0
 70
1
 66
1
  0
VERTEX
  8
0
 10
2138.9733333333334
 20
10.226666666666667
 42
-0
  0
VERTEX
  8
0
 10
2138.9733333333334
 20
410.22666666666669
 42
0
  0
VERTEX
  8
0
 10
2443.9733333333334
 20
410.22666666666669
 42
0
  0
VERTEX
  8
0
 10
2443.9733333333334
 20
10.226666666666704
 42
0
  0
SEQEND
  0
POLYLINE
  8
0
 10
0
 20
0
 39
0
 70
1
 66
1
  0
VERTEX
  8
0
 10
2400.1608943684896
 20
347.91380045572919
 42
1
  0
VERTEX
  8
0
 10
2400.1608943684896
 20
377.91380045572919
 42
1
  0
SEQEND
  0
POLYLINE
  8
0
 10
0
 20
0
 39
0
 70
1
 66
1
  0
VERTEX
  8
0
 10
2339.3276729329427
 20
147.6739170328776
 42
1
  0
VERTEX
  8
0
 10
2339.3276729329427
 20
203.6739170328776
 42
1
  0
SEQEND
  0
POLYLINE
  8
0
 10
0
 20
0
 39
0
 70
1
 66
1
  0
VERTEX
  8
0
 10
2182.7857761128744
 20
347.91380045572919
 42
1
  0
VERTEX
  8
0
 10
2182.7857761128744
 20
377.91380045572919
 42
1
  0
SEQEND
  0
POLYLINE
  8
0
 10
0
 20
0
 39
0
 70
1
 66
1
  0
VERTEX
  8
0
 10
2243.618993733724
 20
147.6739170328776
 42
1
  0
VERTEX
  8
0
 10
2243.618993733724
 20
203.6739170328776
 42
1
  0
SEQEND
  0
POLYLINE
  8
0
 10
0
 20
0
 39
0
 70
1
 66
1
  0
VERTEX
  8
0
 10
2538.9733333333334
 20
420.33333333333337
 42
-0
  0
VERTEX
  8
0
 10
2138.9733333333334
 20
420.33333333333337
 42
0
  0
VERTEX
  8
0
 10
2138.9733333333334
 20
725.33333333333337
 42
0
  0
VERTEX
  8
0
 10
2538.9733333333334
 20
725.33333333333337
 42
0
  0
SEQEND
  0
POLYLINE
  8
0
 10
0
 20
0
 39
0
 70
1
 66
1
  0
VERTEX
  8
0
 10
2201.2861995442709
 20
681.52089436848962
 42
1
  0
VERTEX
  8
0
 10
2171.2861995442709
 20
681.52089436848962
 42
1
  0
SEQEND
  0
POLYLINE
  8
0
 10
0
 20
0
 39
0
 70
1
 66
1
  0
VERTEX
  8
0
 10
2401.5260829671224
 20
620.68767293294275
 42
1
  0
VERTEX
  8
0
 10
2345.5260829671224
 20
620.68767293294275
 42
1
  0
SEQEND
  0
POLYLINE
  8
0
 10
0
 20
0
 39
0
 70
1
 66
1
  0
VERTEX
  8
0
 10
2201.2861995442709
 20
464.14577611287439
 42
1
  0
VERTEX
  8
0
 10
2171.2861995442709
 20
464.14577611287439
 42
1
  0
SEQEND
  0
POLYLINE
  8
0
 10
0
 20
0
 39
0
 70
1
 66
1
  0
VERTEX
  8
0
 10
2401.5260829671224
 20
524.978993733724
 42
1
  0
VERTEX
  8
0
 10
2345.5260829671224
 20
524.978993733724
 42
1
  0
SEQEND
  0
POLYLINE
  8
0
 10
0
 20
0
 39
0
 70
1
 66
1
  0
VERTEX
  8
0
 10
2256.7600000000002
 20
735.42666666666673
 42
-0
  0
VERTEX
  8
0
 10
2256.7600000000002
 20
1135.4266666666667
 42
0
  0
VERTEX
  8
0
 10
2561.7600000000002
 20
1135.4266666666667
 42
0
  0
VERTEX
  8
0
 10
2561.7600000000002
 20
735.42666666666673
 42
0
  0
SEQEND
  0
POLYLINE
  8
0
 10
0
 20
0
 39
0
 70
1
 66
1
  0
VERTEX
  8
0
 10
2517.9475610351565
 20
1073.1138004557292
 42
1
  0
VERTEX
  8
0
 10
2517.9475610351565
 20
1103.1138004557292
 42
1
  0
SEQEND
  0
POLYLINE
  8
0
 10
0
 20
0
 39
0
 70
1
 66
1
  0
VERTEX
  8
0
 10
2457.1143395996096
 20
872.87391703287767
 42
1
  0
VERTEX
  8
0
 10
2457.1143395996096
 20
928.87391703287767
 42
1
  0
SEQEND
  0
POLYLINE
  8
0
 10
0
 20
0
 39
0
 70
1
 66
1
  0
VERTEX
  8
0
 10
2300.5724427795412
 20
1073.1138004557292
 42
1
  0
VERTEX
  8
0
 10
2300.5724427795412
 20
1103.1138004557292
 42
1
  0
SEQEND
  0
POLYLINE
  8
0
 10
0
 20
0
 39
0
 70
1
 66
1
  0
VERTEX
  8
0
 10
2361.4056604003908
 20
872.87391703287767
 42
1
  0
VERTEX
  8
0
 10
2361.4056604003908
 20
928.87391703287767
 42
1
  0
SEQEND
  0
POLYLINE
  8
0
 10
0
 20
0
 39
0
 70
1
 66
1
  0
VERTEX
  8
0
 10
2780.2533333333336
 20
10.22666666666694
 42
0
  0
VERTEX
  8
0
 10
2734.6182930501304
 20
10.226666666666938
 42
0.2611909806728363
  0
VERTEX
  8
0
 10
2499.8883888753257
 20
10.226666666666668
 42
0
  0
VERTEX
  8
0
 10
2454.2533333333336
 20
10.226666666666921
 42
-0
  0
VERTEX
  8
0
 10
2454.2533333333336
 20
84.882916666666915
 42
0.24658587574958801
  0
VERTEX
  8
0
 10
2454.2533333333336
 20
308.03657267252629
 42
-0
  0
VERTEX
  8
0
 10
2454.2533333333336
 20
382.69282267252629
 42
-0
  0
VERTEX
  8
0
 10
2499.8883888753257
 20
382.69282267252629
 42
0.2611909806728363
  0
VERTEX
  8
0
 10
2734.6182930501304
 20
382.69282267252629
 42
-0
  0
VERTEX
  8
0
 10
2780.2533333333336
 20
382.69282267252629
 42
0
  0
VERTEX
  8
0
 10
2780.2533333333336
 20
308.03657267252629
 42
0.24658587574958801
  0
VERTEX
  8
0
 10
2780.2533333333336
 20
84.882916666666929
 42
0
  0
SEQEND
  0
POLYLINE
  8
0
 10
0
 20
0
 39
0
 70
1
 66
1
  0
VERTEX
  8
0
 10
2617.2533333333336
 20
137.45975229899116
 42
1
  0
VERTEX
  8
0
 10
2617.2533333333336
 20
255.4597446695966
 42
1
  0
SEQEND
  0
POLYLINE
  8
0
 10
0
 20
0
 39
0
 70
1
 66
1
  0
VERTEX
  8
0
 10
2757.04
 20
392.70666666666671
 42
-0
  0
VERTEX
  8
0
 10
2572.04
 20
392.70666666666671
 42
-0
  0
VERTEX
  8
0
 10
2572.04
 20
737.70666666666671
 42
-0
  0
VERTEX
  8
0
 10
2757.04
 20
737.70666666666671
 42
-0
  0
SEQEND
  0
POLYLINE
  8
0
 10
0
 20
0
 39
0
 70
1
 66
1
  0
VERTEX
  8
0
 10
2731.3949175262451
 20
485.20666666666671
 42
0
  0
VERTEX
  8
0
 10
2731.3949175262451
 20
645.20666666666671
 42
0
  0
VERTEX
  8
0
 10
2691.3949194335937
 20
645.20666666666671
 42
0
  0
VERTEX
  8
0
 10
2691.3949194335937
 20
485.20666666666671
 42
0
  0
SEQEND
  0
POLYLINE
  8
0
 10
0
 20
0
 39
0
 70
1
 66
1
  0
VERTEX
  8
0
 10
2757.04
 20
747.74666666666667
 42
-0
  0
VERTEX
  8
0
 10
2572.04
 20
747.74666666666667
 42
-0
  0
VERTEX
  8
0
 10
2572.04
 20
1092.7466666666667
 42
-0
  0
VERTEX
  8
0
 10
2757.04
 20
1092.7466666666667
 42
-0
  0
SEQEND
  0
POLYLINE
  8
0
 10
0
 20
0
 39
0
 70
1
 66
1
  0
VERTEX
  8
0
 10
2731.3949175262451
 20
840.24666666666667
 42
0
  0
VERTEX
  8
0
 10
2731.3949175262451
 20
1000.2466666666667
 42
0
  0
VERTEX
  8
0
 10
2691.3949194335937
 20
1000.2466666666667
 42
0
  0
VERTEX
  8
0
 10
2691.3949194335937
 20
840.24666666666667
 42
0
  0
SEQEND
  0
POLYLINE
  8
0
 10
0
 20
0
 39
0
 70
1
 66
1
  0
VERTEX
  8
0
 10
425.29333333333335
 20
1138.8133333333335
 42
-0
  0
VERTEX
  8
0
 10
275.29333333333335
 20
1138.8133333333335
 42
0
  0
VERTEX
  8
0
 10
275.29333333333335
 20
1178.8133333333335
 42
0
  0
VERTEX
  8
0
 10
425.29333333333335
 20
1178.8133333333335
 42
0
  0
SEQEND
  0
POLYLINE
  8
0
 10
0
 20
0
 39
0
 70
1
 66
1
  0
VERTEX
  8
0
 10
415.89033631642661
 20
1158.8133333333335
 42
1
  0
VERTEX
  8
0
 10
395.89033727010093
 20
1158.8133333333335
 42
1
  0
SEQEND
  0
POLYLINE
  8
0
 10
0
 20
0
 39
0
 70
1
 66
1
  0
VERTEX
  8
0
 10
384.96103886922202
 20
1158.8133333333335
 42
1
  0
VERTEX
  8
0
 10
364.96103886922202
 20
1158.8133333333335
 42
1
  0
SEQEND
  0
POLYLINE
  8
0
 10
0
 20
0
 39
0
 70
1
 66
1
  0
VERTEX
  8
0
 10
1075.6400000000001
 20
1138.8133333333335
 42
-0
  0
VERTEX
  8
0
 10
925.6400000000001
 20
1138.8133333333335
 42
0
  0
VERTEX
  8
0
 10
925.6400000000001
 20
1178.8133333333335
 42
0
  0
VERTEX
  8
0
 10
1075.6400000000001
 20
1178.8133333333335
 42
0
  0
SEQEND
  0
POLYLINE
  8
0
 10
0
 20
0
 39
0
 70
1
 66
1
  0
VERTEX
  8
0
 10
1066.2370029830934
 20
1158.8133333333335
 42
1
  0
VERTEX
  8
0
 10
1046.2370039367677
 20
1158.8133333333335
 42
1
  0
SEQEND
  0
POLYLINE
  8
0
 10
0
 20
0
 39
0
 70
1
 66
1
  0
VERTEX
  8
0
 10
1035.3077055358888
 20
1158.8133333333335
 42
1
  0
VERTEX
  8
0
 10
1015.3077055358888
 20
1158.8133333333335
 42
1
  0
SEQEND
  0
POLYLINE
  8
0
 10
0
 20
0
 39
0
 70
1
 66
1
  0
VERTEX
  8
0
 10
1200.8933333333334
 20
815.69333333333338
 42
-0
  0
VERTEX
  8
0
 10
1050.8933333333334
 20
815.69333333333338
 42
0
  0
VERTEX
  8
0
 10
1050.8933333333334
 20
855.69333333333338
 42
0
  0
VERTEX
  8
0
 10
1200.8933333333334
 20
855.69333333333338
 42
0
  0
SEQEND
  0
POLYLINE
  8
0
 10
0
 20
0
 39
0
 70
1
 66
1
  0
VERTEX
  8
0
 10
1191.4903363164267
 20
835.69333333333338
 42
1
  0
VERTEX
  8
0
 10
1171.490337270101
 20
835.69333333333338
 42
1
  0
SEQEND
  0
POLYLINE
  8
0
 10
0
 20
0
 39
0
 70
1
 66
1
  0
VERTEX
  8
0
 10
1160.5610388692221
 20
835.69333333333338
 42
1
  0
VERTEX
  8
0
 10
1140.5610388692221
 20
835.69333333333338
 42
1
  0
SEQEND
  0
POLYLINE
  8
0
 10
0
 20
0
 39
0
 70
1
 66
1
  0
VERTEX
  8
0
 10
1224.6000000000001
 20
748.49333333333334
 42
-0
  0
VERTEX
  8
0
 10
1074.6000000000001
 20
748.49333333333334
 42
0
  0
VERTEX
  8
0
 10
1074.6000000000001
 20
788.49333333333334
 42
0
  0
VERTEX
  8
0
 10
1224.6000000000001
 20
788.49333333333334
 42
0
  0
SEQEND
  0
POLYLINE
  8
0
 10
0
 20
0
 39
0
 70
1
 66
1
  0
VERTEX
  8
0
 10
1215.1970029830934
 20
768.49333333333334
 42
1
  0
VERTEX
  8
0
 10
1195.1970039367677
 20
768.49333333333334
 42
1
  0
SEQEND
  0
POLYLINE
  8
0
 10
0
 20
0
 39
0
 70
1
 66
1
  0
VERTEX
  8
0
 10
1184.2677055358888
 20
768.49333333333334
 42
1
  0
VERTEX
  8
0
 10
1164.2677055358888
 20
768.49333333333334
 42
1
  0
SEQEND
  0
POLYLINE
  8
0
 10
0
 20
0
 39
0
 70
1
 66
1
  0
VERTEX
  8
0
 10
1345.7466666666667
 20
345.85333333333335
 42
-0
  0
VERTEX
  8
0
 10
1195.7466666666667
 20
345.85333333333335
 42
0
  0
VERTEX
  8
0
 10
1195.7466666666667
 20
385.85333333333335
 42
0
  0
VERTEX
  8
0
 10
1345.7466666666667
 20
385.85333333333335
 42
0
  0
SEQEND
  0
POLYLINE
  8
0
 10
0
 20
0
 39
0
 70
1
 66
1
  0
VERTEX
  8
0
 10
1336.3436696497599
 20
365.85333333333335
 42
1
  0
VERTEX
  8
0
 10
1316.3436706034342
 20
365.85333333333335
 42
1
  0
SEQEND
  0
POLYLINE
  8
0
 10
0
 20
0
 39
0
 70
1
 66
1
  0
VERTEX
  8
0
 10
1305.4143722025553
 20
365.85333333333335
 42
1
  0
VERTEX
  8
0
 10
1285.4143722025553
 20
365.85333333333335
 42
1
  0
SEQEND
  0
POLYLINE
  8
0
 10
0
 20
0
 39
0
 70
1
 66
1
  0
VERTEX
  8
0
 10
1877.9333333333334
 20
345.85333333333335
 42
-0
  0
VERTEX
  8
0
 10
1727.9333333333334
 20
345.85333333333335
 42
0
  0
VERTEX
  8
0
 10
1727.9333333333334
 20
385.85333333333335
 42
0
  0
VERTEX
  8
0
 10
1877.9333333333334
 20
385.85333333333335
 42
0
  0
SEQEND
  0
POLYLINE
  8
0
 10
0
 20
0
 39
0
 70
1
 66
1
  0
VERTEX
  8
0
 10
1868.5303363164267
 20
365.85333333333335
 42
1
  0
VERTEX
  8
0
 10
1848.530337270101
 20
365.85333333333335
 42
1
  0
SEQEND
  0
POLYLINE
  8
0
 10
0
 20
0
 39
0
 70
1
 66
1
  0
VERTEX
  8
0
 10
1837.6010388692221
 20
365.85333333333335
 42
1
  0
VERTEX
  8
0
 10
1817.6010388692221
 20
365.85333333333335
 42
1
  0
SEQEND
  0
POLYLINE
  8
0
 10
0
 20
0
 39
0
 70
1
 66
1
  0
VERTEX
  8
0
 10
2406.7600000000002
 20
1145.5333333333333
 42
-0
  0
VERTEX
  8
0
 10
2256.7600000000002
 20
1145.5333333333333
 42
0
  0
VERTEX
  8
0
 10
2256.7600000000002
 20
1185.5333333333333
 42
0
  0
VERTEX
  8
0
 10
2406.7600000000002
 20
1185.5333333333333
 42
0
  0
SEQEND
  0
POLYLINE
  8
0
 10
0
 20
0
 39
0
 70
1
 66
1
  0
VERTEX
  8
0
 10
2397.3570029830935
 20
1165.5333333333333
 42
1
  0
VERTEX
  8
0
 10
2377.3570039367678
 20
1165.5333333333333
 42
1
  0
SEQEND
  0
POLYLINE
  8
0
 10
0
 20
0
 39
0
 70
1
 66
1
  0
VERTEX
  8
0
 10
2366.4277055358889
 20
1165.5333333333333
 42
1
  0
VERTEX
  8
0
 10
2346.4277055358889
 20
1165.5333333333333
 42
1
  0
SEQEND
  0
POLYLINE
  8
0
 10
0
 20
0
 39
0
 70
1
 66
1
  0
VERTEX
  8
0
 10
2567.106666666667
 20
1145.5333333333333
 42
-0
  0
VERTEX
  8
0
 10
2417.106666666667
 20
1145.5333333333333
 42
0
  0
VERTEX
  8
0
 10
2417.106666666667
 20
1185.5333333333333
 42
0
  0
VERTEX
  8
0
 10
2567.106666666667
 20
1185.5333333333333
 42
0
  0
SEQEND
  0
POLYLINE
  8
0
 10
0
 20
0
 39
0
 70
1
 66
1
  0
VERTEX
  8
0
 10
2557.7036696497603
 20
1165.5333333333333
 42
1
  0
VERTEX
  8
0
 10
2537.7036706034346
 20
1165.5333333333333
 42
1
  0
SEQEND
  0
POLYLINE
  8
0
 10
0
 20
0
 39
0
 70
1
 66
1
  0
VERTEX
  8
0
 10
2526.7743722025557
 20
1165.5333333333333
 42
1
  0
VERTEX
  8
0
 10
2506.7743722025557
 20
1165.5333333333333
 42
1
  0
SEQEND
  0
POLYLINE
  8
0
 10
0
 20
0
 39
0
 70
1
 66
1
  0
VERTEX
  8
0
 10
2727.2666666666669
 20
1102.7866666666666
 42
-0
  0
VERTEX
  8
0
 10
2577.2666666666669
 20
1102.7866666666666
 42
0
  0
VERTEX
  8
0
 10
2577.2666666666669
 20
1142.7866666666666
 42
0
  0
VERTEX
  8
0
 10
2727.2666666666669
 20
1142.7866666666666
 42
0
  0
SEQEND
  0
POLYLINE
  8
0
 10
0
 20
0
 39
0
 70
1
 66
1
  0
VERTEX
  8
0
 10
2717.8636696497601
 20
1122.7866666666666
 42
1
  0
VERTEX
  8
0
 10
2697.8636706034345
 20
1122.7866666666666
 42
1
  0
SEQEND
  0
POLYLINE
  8
0
 10
0
 20
0
 39
0
 70
1
 66
1
  0
VERTEX
  8
0
 10
2686.9343722025556
 20
1122.7866666666666
 42
1
  0
VERTEX
  8
0
 10
2666.9343722025556
 20
1122.7866666666666
 42
1
  0
SEQEND
  0
ENDSEC
  0
EOF
