  0
SECTION
  2
ENTITIES
  0
POLYLINE
  8
0
 10
0
 20
0
 39
0
 70
1
 66
1
  0
VERTEX
  8
0
 10
0
 20
0
 42
0
  0
VERTEX
  8
0
 10
2500
 20
0
 42
0
  0
VERTEX
  8
0
 10
2500
 20
1000
 42
0
  0
VERTEX
  8
0
 10
0
 20
1000
 42
0
  0
SEQEND
  0
POLYLINE
  8
0
 10
0
 20
0
 39
0
 70
1
 66
1
  0
VERTEX
  8
0
 10
1646
 20
870
 42
1
  0
VERTEX
  8
0
 10
1646
 20
790
 42
0
  0
VERTEX
  8
0
 10
1894
 20
790
 42
1
  0
VERTEX
  8
0
 10
1894
 20
870
 42
-0
  0
SEQEND
  0
POLYLINE
  8
0
 10
0
 20
0
 39
0
 70
1
 66
1
  0
VERTEX
  8
0
 10
1757
 20
830
 42
-1
  0
VERTEX
  8
0
 10
1783
 20
830
 42
-1
  0
SEQEND
  0
POLYLINE
  8
0
 10
0
 20
0
 39
0
 70
1
 66
1
  0
VERTEX
  8
0
 10
1809.6720428466797
 20
830
 42
-1
  0
VERTEX
  8
0
 10
1831.6720428466797
 20
830
 42
-1
  0
SEQEND
  0
POLYLINE
  8
0
 10
0
 20
0
 39
0
 70
1
 66
1
  0
VERTEX
  8
0
 10
1708.3279571533203
 20
830
 42
-1
  0
VERTEX
  8
0
 10
1730.3279571533203
 20
830
 42
-1
  0
SEQEND
  0
POLYLINE
  8
0
 10
0
 20
0
 39
0
 70
1
 66
1
  0
VERTEX
  8
0
 10
530
 20
710
 42
0
  0
VERTEX
  8
0
 10
530
 20
10
 42
-0
  0
VERTEX
  8
0
 10
650
 20
10
 42
-0
  0
VERTEX
  8
0
 10
650
 20
710
 42
-0
  0
SEQEND
  0
POLYLINE
  8
0
 10
0
 20
0
 39
0
 70
1
 66
1
  0
VERTEX
  8
0
 10
590
 20
398
 42
-1
  0
VERTEX
  8
0
 10
590
 20
322
 42
-1
  0
SEQEND
  0
POLYLINE
  8
0
 10
0
 20
0
 39
0
 70
1
 66
1
  0
VERTEX
  8
0
 10
628
 20
668.66972732543945
 42
0
  0
VERTEX
  8
0
 10
628
 20
580.75325012207031
 42
0.085440635681152344
  0
VERTEX
  8
0
 10
552
 20
580.75325012207031
 42
-0
  0
VERTEX
  8
0
 10
552
 20
668.66972732543945
 42
-0.06132299080491066
  0
SEQEND
  0
POLYLINE
  8
0
 10
0
 20
0
 39
0
 70
1
 66
1
  0
VERTEX
  8
0
 10
628
 20
51.33026123046875
 42
-0.06132299080491066
  0
VERTEX
  8
0
 10
552
 20
51.33026123046875
 42
0
  0
VERTEX
  8
0
 10
552
 20
139.24676513671875
 42
0.085440635681152344
  0
VERTEX
  8
0
 10
628
 20
139.24676513671875
 42
-0
  0
SEQEND
  0
POLYLINE
  8
0
 10
0
 20
0
 39
0
 70
1
 66
1
  0
VERTEX
  8
0
 10
10
 20
710
 42
0
  0
VERTEX
  8
0
 10
10.000000000000043
 20
10
 42
-0
  0
VERTEX
  8
0
 10
130.00000000000006
 20
10
 42
-0
  0
VERTEX
  8
0
 10
130
 20
710
 42
-0
  0
SEQEND
  0
POLYLINE
  8
0
 10
0
 20
0
 39
0
 70
1
 66
1
  0
VERTEX
  8
0
 10
70.000000000000028
 20
398
 42
-1
  0
VERTEX
  8
0
 10
70.000000000000028
 20
322
 42
-1
  0
SEQEND
  0
POLYLINE
  8
0
 10
0
 20
0
 39
0
 70
1
 66
1
  0
VERTEX
  8
0
 10
108
 20
668.66972732543945
 42
0
  0
VERTEX
  8
0
 10
108.00000000000001
 20
580.75325012207031
 42
0.085440635681152344
  0
VERTEX
  8
0
 10
32.000000000000007
 20
580.75325012207031
 42
-0
  0
VERTEX
  8
0
 10
32
 20
668.66972732543945
 42
-0.06132299080491066
  0
SEQEND
  0
POLYLINE
  8
0
 10
0
 20
0
 39
0
 70
1
 66
1
  0
VERTEX
  8
0
 10
108.00000000000004
 20
51.33026123046875
 42
-0.06132299080491066
  0
VERTEX
  8
0
 10
32.000000000000043
 20
51.33026123046875
 42
0
  0
VERTEX
  8
0
 10
32.000000000000036
 20
139.24676513671875
 42
0.085440635681152344
  0
VERTEX
  8
0
 10
108.00000000000003
 20
139.24676513671875
 42
-0
  0
SEQEND
  0
POLYLINE
  8
0
 10
0
 20
0
 39
0
 70
1
 66
1
  0
VERTEX
  8
0
 10
400
 20
710
 42
0
  0
VERTEX
  8
0
 10
400.00000000000006
 20
10
 42
-0
  0
VERTEX
  8
0
 10
520
 20
10
 42
-0
  0
VERTEX
  8
0
 10
520
 20
710
 42
-0
  0
SEQEND
  0
POLYLINE
  8
0
 10
0
 20
0
 39
0
 70
1
 66
1
  0
VERTEX
  8
0
 10
460
 20
398
 42
-1
  0
VERTEX
  8
0
 10
460
 20
322
 42
-1
  0
SEQEND
  0
POLYLINE
  8
0
 10
0
 20
0
 39
0
 70
1
 66
1
  0
VERTEX
  8
0
 10
498
 20
668.66972732543945
 42
0
  0
VERTEX
  8
0
 10
498
 20
580.75325012207031
 42
0.085440635681152344
  0
VERTEX
  8
0
 10
422
 20
580.75325012207031
 42
-0
  0
VERTEX
  8
0
 10
422
 20
668.66972732543945
 42
-0.06132299080491066
  0
SEQEND
  0
POLYLINE
  8
0
 10
0
 20
0
 39
0
 70
1
 66
1
  0
VERTEX
  8
0
 10
498.00000000000006
 20
51.33026123046875
 42
-0.06132299080491066
  0
VERTEX
  8
0
 10
422.00000000000006
 20
51.33026123046875
 42
0
  0
VERTEX
  8
0
 10
422.00000000000006
 20
139.24676513671875
 42
0.085440635681152344
  0
VERTEX
  8
0
 10
498
 20
139.24676513671875
 42
-0
  0
SEQEND
  0
POLYLINE
  8
0
 10
0
 20
0
 39
0
 70
1
 66
1
  0
VERTEX
  8
0
 10
270
 20
710
 42
0
  0
VERTEX
  8
0
 10
270.00000000000006
 20
10
 42
-0
  0
VERTEX
  8
0
 10
390.00000000000006
 20
10
 42
-0
  0
VERTEX
  8
0
 10
390
 20
710
 42
-0
  0
SEQEND
  0
POLYLINE
  8
0
 10
0
 20
0
 39
0
 70
1
 66
1
  0
VERTEX
  8
0
 10
330
 20
398
 42
-1
  0
VERTEX
  8
0
 10
330
 20
322
 42
-1
  0
SEQEND
  0
POLYLINE
  8
0
 10
0
 20
0
 39
0
 70
1
 66
1
  0
VERTEX
  8
0
 10
368
 20
668.66972732543945
 42
0
  0
VERTEX
  8
0
 10
368
 20
580.75325012207031
 42
0.085440635681152344
  0
VERTEX
  8
0
 10
292
 20
580.75325012207031
 42
-0
  0
VERTEX
  8
0
 10
292
 20
668.66972732543945
 42
-0.06132299080491066
  0
SEQEND
  0
POLYLINE
  8
0
 10
0
 20
0
 39
0
 70
1
 66
1
  0
VERTEX
  8
0
 10
368.00000000000006
 20
51.33026123046875
 42
-0.06132299080491066
  0
VERTEX
  8
0
 10
292.00000000000006
 20
51.33026123046875
 42
0
  0
VERTEX
  8
0
 10
292.00000000000006
 20
139.24676513671875
 42
0.085440635681152344
  0
VERTEX
  8
0
 10
368
 20
139.24676513671875
 42
-0
  0
SEQEND
  0
POLYLINE
  8
0
 10
0
 20
0
 39
0
 70
1
 66
1
  0
VERTEX
  8
0
 10
470
 20
860
 42
0
  0
VERTEX
  8
0
 10
920
 20
860
 42
0
  0
VERTEX
  8
0
 10
920
 20
914
 42
0
  0
VERTEX
  8
0
 10
470
 20
914
 42
0
  0
SEQEND
  0
POLYLINE
  8
0
 10
0
 20
0
 39
0
 70
1
 66
1
  0
VERTEX
  8
0
 10
569.92702484130859
 20
900.5
 42
0
  0
VERTEX
  8
0
 10
857.42703247070312
 20
900.5
 42
-0
  0
VERTEX
  8
0
 10
857.42703247070312
 20
873.5
 42
-0
  0
VERTEX
  8
0
 10
569.92702484130859
 20
873.5
 42
0
  0
SEQEND
  0
POLYLINE
  8
0
 10
0
 20
0
 39
0
 70
1
 66
1
  0
VERTEX
  8
0
 10
529.92702865600586
 20
896
 42
0
  0
VERTEX
  8
0
 10
557.92702484130859
 20
896
 42
-0
  0
VERTEX
  8
0
 10
557.92702484130859
 20
878
 42
-0
  0
VERTEX
  8
0
 10
529.92702865600586
 20
878
 42
0
  0
SEQEND
  0
POLYLINE
  8
0
 10
0
 20
0
 39
0
 70
1
 66
1
  0
VERTEX
  8
0
 10
501
 20
882
 42
0
  0
VERTEX
  8
0
 10
519
 20
882
 42
0
  0
VERTEX
  8
0
 10
519
 20
864
 42
-0
  0
VERTEX
  8
0
 10
501
 20
864
 42
-0
  0
SEQEND
  0
POLYLINE
  8
0
 10
0
 20
0
 39
0
 70
1
 66
1
  0
VERTEX
  8
0
 10
501
 20
892
 42
-0
  0
VERTEX
  8
0
 10
501
 20
910
 42
0
  0
VERTEX
  8
0
 10
519
 20
910
 42
0
  0
VERTEX
  8
0
 10
519
 20
892
 42
-0
  0
SEQEND
  0
POLYLINE
  8
0
 10
0
 20
0
 39
0
 70
1
 66
1
  0
VERTEX
  8
0
 10
871
 20
882
 42
0
  0
VERTEX
  8
0
 10
889
 20
882
 42
0
  0
VERTEX
  8
0
 10
889
 20
864
 42
-0
  0
VERTEX
  8
0
 10
871
 20
864
 42
-0
  0
SEQEND
  0
POLYLINE
  8
0
 10
0
 20
0
 39
0
 70
1
 66
1
  0
VERTEX
  8
0
 10
871
 20
892
 42
-0
  0
VERTEX
  8
0
 10
871
 20
910
 42
0
  0
VERTEX
  8
0
 10
889
 20
910
 42
0
  0
VERTEX
  8
0
 10
889
 20
892
 42
-0
  0
SEQEND
  0
POLYLINE
  8
0
 10
0
 20
0
 39
0
 70
1
 66
1
  0
VERTEX
  8
0
 10
470
 20
924
 42
0
  0
VERTEX
  8
0
 10
920
 20
924
 42
0
  0
VERTEX
  8
0
 10
920
 20
978
 42
0
  0
VERTEX
  8
0
 10
470
 20
978
 42
0
  0
SEQEND
  0
POLYLINE
  8
0
 10
0
 20
0
 39
0
 70
1
 66
1
  0
VERTEX
  8
0
 10
569.92702484130859
 20
964.5
 42
0
  0
VERTEX
  8
0
 10
857.42703247070312
 20
964.5
 42
-0
  0
VERTEX
  8
0
 10
857.42703247070312
 20
937.5
 42
-0
  0
VERTEX
  8
0
 10
569.92702484130859
 20
937.5
 42
0
  0
SEQEND
  0
POLYLINE
  8
0
 10
0
 20
0
 39
0
 70
1
 66
1
  0
VERTEX
  8
0
 10
529.92702865600586
 20
960
 42
0
  0
VERTEX
  8
0
 10
557.92702484130859
 20
960
 42
-0
  0
VERTEX
  8
0
 10
557.92702484130859
 20
942
 42
-0
  0
VERTEX
  8
0
 10
529.92702865600586
 20
942
 42
0
  0
SEQEND
  0
POLYLINE
  8
0
 10
0
 20
0
 39
0
 70
1
 66
1
  0
VERTEX
  8
0
 10
501
 20
946
 42
0
  0
VERTEX
  8
0
 10
519
 20
946
 42
0
  0
VERTEX
  8
0
 10
519
 20
928
 42
-0
  0
VERTEX
  8
0
 10
501
 20
928
 42
-0
  0
SEQEND
  0
POLYLINE
  8
0
 10
0
 20
0
 39
0
 70
1
 66
1
  0
VERTEX
  8
0
 10
501
 20
956
 42
-0
  0
VERTEX
  8
0
 10
501
 20
974
 42
0
  0
VERTEX
  8
0
 10
519
 20
974
 42
0
  0
VERTEX
  8
0
 10
519
 20
956
 42
-0
  0
SEQEND
  0
POLYLINE
  8
0
 10
0
 20
0
 39
0
 70
1
 66
1
  0
VERTEX
  8
0
 10
871
 20
946
 42
0
  0
VERTEX
  8
0
 10
889
 20
946
 42
0
  0
VERTEX
  8
0
 10
889
 20
928
 42
-0
  0
VERTEX
  8
0
 10
871
 20
928
 42
-0
  0
SEQEND
  0
POLYLINE
  8
0
 10
0
 20
0
 39
0
 70
1
 66
1
  0
VERTEX
  8
0
 10
871
 20
956
 42
-0
  0
VERTEX
  8
0
 10
871
 20
974
 42
0
  0
VERTEX
  8
0
 10
889
 20
974
 42
0
  0
VERTEX
  8
0
 10
889
 20
956
 42
-0
  0
SEQEND
  0
POLYLINE
  8
0
 10
0
 20
0
 39
0
 70
1
 66
1
  0
VERTEX
  8
0
 10
2420.6868133544922
 20
460
 42
0
  0
VERTEX
  8
0
 10
2420.6868133544922
 20
10
 42
0
  0
VERTEX
  8
0
 10
2474.6868133544922
 20
10
 42
0
  0
VERTEX
  8
0
 10
2474.6868133544922
 20
460
 42
0
  0
SEQEND
  0
POLYLINE
  8
0
 10
0
 20
0
 39
0
 70
1
 66
1
  0
VERTEX
  8
0
 10
2461.1868133544922
 20
360.07297515869141
 42
0
  0
VERTEX
  8
0
 10
2461.1868133544922
 20
72.572967529296875
 42
-0
  0
VERTEX
  8
0
 10
2434.1868133544922
 20
72.572967529296875
 42
-0
  0
VERTEX
  8
0
 10
2434.1868133544922
 20
360.07297515869141
 42
0
  0
SEQEND
  0
POLYLINE
  8
0
 10
0
 20
0
 39
0
 70
1
 66
1
  0
VERTEX
  8
0
 10
2456.6868133544922
 20
400.07297134399414
 42
0
  0
VERTEX
  8
0
 10
2456.6868133544922
 20
372.07297515869141
 42
-0
  0
VERTEX
  8
0
 10
2438.6868133544922
 20
372.07297515869141
 42
-0
  0
VERTEX
  8
0
 10
2438.6868133544922
 20
400.07297134399414
 42
0
  0
SEQEND
  0
POLYLINE
  8
0
 10
0
 20
0
 39
0
 70
1
 66
1
  0
VERTEX
  8
0
 10
2442.6868133544922
 20
429
 42
0
  0
VERTEX
  8
0
 10
2442.6868133544922
 20
411
 42
0
  0
VERTEX
  8
0
 10
2424.6868133544922
 20
411
 42
-0
  0
VERTEX
  8
0
 10
2424.6868133544922
 20
429
 42
-0
  0
SEQEND
  0
POLYLINE
  8
0
 10
0
 20
0
 39
0
 70
1
 66
1
  0
VERTEX
  8
0
 10
2452.6868133544922
 20
429
 42
-0
  0
VERTEX
  8
0
 10
2470.6868133544922
 20
429
 42
0
  0
VERTEX
  8
0
 10
2470.6868133544922
 20
411
 42
0
  0
VERTEX
  8
0
 10
2452.6868133544922
 20
411
 42
-0
  0
SEQEND
  0
POLYLINE
  8
0
 10
0
 20
0
 39
0
 70
1
 66
1
  0
VERTEX
  8
0
 10
2442.6868133544922
 20
59
 42
0
  0
VERTEX
  8
0
 10
2442.6868133544922
 20
41
 42
0
  0
VERTEX
  8
0
 10
2424.6868133544922
 20
41
 42
-0
  0
VERTEX
  8
0
 10
2424.6868133544922
 20
59
 42
-0
  0
SEQEND
  0
POLYLINE
  8
0
 10
0
 20
0
 39
0
 70
1
 66
1
  0
VERTEX
  8
0
 10
2452.6868133544922
 20
59
 42
-0
  0
VERTEX
  8
0
 10
2470.6868133544922
 20
59
 42
0
  0
VERTEX
  8
0
 10
2470.6868133544922
 20
41
 42
0
  0
VERTEX
  8
0
 10
2452.6868133544922
 20
41
 42
-0
  0
SEQEND
  0
POLYLINE
  8
0
 10
0
 20
0
 39
0
 70
1
 66
1
  0
VERTEX
  8
0
 10
140
 20
710
 42
0
  0
VERTEX
  8
0
 10
140.00000000000006
 20
10
 42
-0
  0
VERTEX
  8
0
 10
260.00000000000006
 20
10
 42
-0
  0
VERTEX
  8
0
 10
260
 20
710
 42
-0
  0
SEQEND
  0
POLYLINE
  8
0
 10
0
 20
0
 39
0
 70
1
 66
1
  0
VERTEX
  8
0
 10
200.00000000000003
 20
398
 42
-1
  0
VERTEX
  8
0
 10
200.00000000000003
 20
322
 42
-1
  0
SEQEND
  0
POLYLINE
  8
0
 10
0
 20
0
 39
0
 70
1
 66
1
  0
VERTEX
  8
0
 10
238
 20
668.66972732543945
 42
0
  0
VERTEX
  8
0
 10
238
 20
580.75325012207031
 42
0.085440635681152344
  0
VERTEX
  8
0
 10
162
 20
580.75325012207031
 42
-0
  0
VERTEX
  8
0
 10
162
 20
668.66972732543945
 42
-0.06132299080491066
  0
SEQEND
  0
POLYLINE
  8
0
 10
0
 20
0
 39
0
 70
1
 66
1
  0
VERTEX
  8
0
 10
238.00000000000006
 20
51.33026123046875
 42
-0.06132299080491066
  0
VERTEX
  8
0
 10
162.00000000000003
 20
51.33026123046875
 42
0
  0
VERTEX
  8
0
 10
162.00000000000003
 20
139.24676513671875
 42
0.085440635681152344
  0
VERTEX
  8
0
 10
238.00000000000003
 20
139.24676513671875
 42
-0
  0
SEQEND
  0
POLYLINE
  8
0
 10
0
 20
0
 39
0
 70
1
 66
1
  0
VERTEX
  8
0
 10
10
 20
720
 42
0
  0
VERTEX
  8
0
 10
710
 20
720
 42
-0
  0
VERTEX
  8
0
 10
710
 20
840
 42
-0
  0
VERTEX
  8
0
 10
10.000000000000007
 20
840
 42
-0
  0
SEQEND
  0
POLYLINE
  8
0
 10
0
 20
0
 39
0
 70
1
 66
1
  0
VERTEX
  8
0
 10
322
 20
780
 42
-1
  0
VERTEX
  8
0
 10
398
 20
780
 42
-1
  0
SEQEND
  0
POLYLINE
  8
0
 10
0
 20
0
 39
0
 70
1
 66
1
  0
VERTEX
  8
0
 10
51.330272674560547
 20
818
 42
0
  0
VERTEX
  8
0
 10
139.24674987792969
 20
818
 42
0.085440635681152344
  0
VERTEX
  8
0
 10
139.24674987792969
 20
742
 42
-0
  0
VERTEX
  8
0
 10
51.330272674560547
 20
742
 42
-0.06132299080491066
  0
SEQEND
  0
POLYLINE
  8
0
 10
0
 20
0
 39
0
 70
1
 66
1
  0
VERTEX
  8
0
 10
668.66973876953125
 20
818
 42
-0.06132299080491066
  0
VERTEX
  8
0
 10
668.66973876953125
 20
742
 42
0
  0
VERTEX
  8
0
 10
580.75323486328125
 20
742
 42
0.085440635681152344
  0
VERTEX
  8
0
 10
580.75323486328125
 20
818
 42
-0
  0
SEQEND
  0
POLYLINE
  8
0
 10
0
 20
0
 39
0
 70
1
 66
1
  0
VERTEX
  8
0
 10
2054.6868133544922
 20
298
 42
1
  0
VERTEX
  8
0
 10
1974.6868133544922
 20
298
 42
0
  0
VERTEX
  8
0
 10
1974.6868133544922
 20
50
 42
1
  0
VERTEX
  8
0
 10
2054.6868133544922
 20
50
 42
-0
  0
SEQEND
  0
POLYLINE
  8
0
 10
0
 20
0
 39
0
 70
1
 66
1
  0
VERTEX
  8
0
 10
2014.6868133544922
 20
187
 42
-1
  0
VERTEX
  8
0
 10
2014.6868133544922
 20
161
 42
-1
  0
SEQEND
  0
POLYLINE
  8
0
 10
0
 20
0
 39
0
 70
1
 66
1
  0
VERTEX
  8
0
 10
2014.6868133544922
 20
134.32795715332031
 42
-1
  0
VERTEX
  8
0
 10
2014.6868133544922
 20
112.32795715332031
 42
-1
  0
SEQEND
  0
POLYLINE
  8
0
 10
0
 20
0
 39
0
 70
1
 66
1
  0
VERTEX
  8
0
 10
2014.6868133544922
 20
235.67204284667969
 42
-1
  0
VERTEX
  8
0
 10
2014.6868133544922
 20
213.67204284667969
 42
-1
  0
SEQEND
  0
POLYLINE
  8
0
 10
0
 20
0
 39
0
 70
1
 66
1
  0
VERTEX
  8
0
 10
1308
 20
870
 42
1
  0
VERTEX
  8
0
 10
1308
 20
790
 42
0
  0
VERTEX
  8
0
 10
1556
 20
790
 42
1
  0
VERTEX
  8
0
 10
1556
 20
870
 42
-0
  0
SEQEND
  0
POLYLINE
  8
0
 10
0
 20
0
 39
0
 70
1
 66
1
  0
VERTEX
  8
0
 10
1419
 20
830
 42
-1
  0
VERTEX
  8
0
 10
1445
 20
830
 42
-1
  0
SEQEND
  0
POLYLINE
  8
0
 10
0
 20
0
 39
0
 70
1
 66
1
  0
VERTEX
  8
0
 10
1471.6720428466797
 20
830
 42
-1
  0
VERTEX
  8
0
 10
1493.6720428466797
 20
830
 42
-1
  0
SEQEND
  0
POLYLINE
  8
0
 10
0
 20
0
 39
0
 70
1
 66
1
  0
VERTEX
  8
0
 10
1370.3279571533203
 20
830
 42
-1
  0
VERTEX
  8
0
 10
1392.3279571533203
 20
830
 42
-1
  0
SEQEND
  0
POLYLINE
  8
0
 10
0
 20
0
 39
0
 70
1
 66
1
  0
VERTEX
  8
0
 10
10
 20
914
 42
0
  0
VERTEX
  8
0
 10
460
 20
914
 42
0
  0
VERTEX
  8
0
 10
460
 20
968
 42
0
  0
VERTEX
  8
0
 10
10
 20
968
 42
0
  0
SEQEND
  0
POLYLINE
  8
0
 10
0
 20
0
 39
0
 70
1
 66
1
  0
VERTEX
  8
0
 10
109.92702484130859
 20
954.5
 42
0
  0
VERTEX
  8
0
 10
397.42703247070312
 20
954.5
 42
-0
  0
VERTEX
  8
0
 10
397.42703247070312
 20
927.5
 42
-0
  0
VERTEX
  8
0
 10
109.92702484130859
 20
927.5
 42
0
  0
SEQEND
  0
POLYLINE
  8
0
 10
0
 20
0
 39
0
 70
1
 66
1
  0
VERTEX
  8
0
 10
69.927028656005859
 20
950
 42
0
  0
VERTEX
  8
0
 10
97.927024841308594
 20
950
 42
-0
  0
VERTEX
  8
0
 10
97.927024841308594
 20
932
 42
-0
  0
VERTEX
  8
0
 10
69.927028656005859
 20
932
 42
0
  0
SEQEND
  0
POLYLINE
  8
0
 10
0
 20
0
 39
0
 70
1
 66
1
  0
VERTEX
  8
0
 10
41
 20
936
 42
0
  0
VERTEX
  8
0
 10
59
 20
936
 42
0
  0
VERTEX
  8
0
 10
59
 20
918
 42
-0
  0
VERTEX
  8
0
 10
41
 20
918
 42
-0
  0
SEQEND
  0
POLYLINE
  8
0
 10
0
 20
0
 39
0
 70
1
 66
1
  0
VERTEX
  8
0
 10
41
 20
946
 42
-0
  0
VERTEX
  8
0
 10
41
 20
964
 42
0
  0
VERTEX
  8
0
 10
59
 20
964
 42
0
  0
VERTEX
  8
0
 10
59
 20
946
 42
-0
  0
SEQEND
  0
POLYLINE
  8
0
 10
0
 20
0
 39
0
 70
1
 66
1
  0
VERTEX
  8
0
 10
411
 20
936
 42
0
  0
VERTEX
  8
0
 10
429
 20
936
 42
0
  0
VERTEX
  8
0
 10
429
 20
918
 42
-0
  0
VERTEX
  8
0
 10
411
 20
918
 42
-0
  0
SEQEND
  0
POLYLINE
  8
0
 10
0
 20
0
 39
0
 70
1
 66
1
  0
VERTEX
  8
0
 10
411
 20
946
 42
-0
  0
VERTEX
  8
0
 10
411
 20
964
 42
0
  0
VERTEX
  8
0
 10
429
 20
964
 42
0
  0
VERTEX
  8
0
 10
429
 20
946
 42
-0
  0
SEQEND
  0
POLYLINE
  8
0
 10
0
 20
0
 39
0
 70
1
 66
1
  0
VERTEX
  8
0
 10
811.59487748233073
 20
400.00000052015719
 42
0
  0
VERTEX
  8
0
 10
811.59487748233073
 20
550.00000052015719
 42
0
  0
VERTEX
  8
0
 10
746.09487748233073
 20
663.44934134046969
 42
0.97178131341934204
  0
VERTEX
  8
0
 10
693.31775498477214
 20
634.96025137464937
 42
-0
  0
SEQEND
  0
POLYLINE
  8
0
 10
0
 20
0
 39
0
 70
1
 66
1
  0
VERTEX
  8
0
 10
751.30769181338542
 20
566.00000052015719
 42
-1
  0
VERTEX
  8
0
 10
783.30768990603679
 20
566.00000052015719
 42
-1
  0
SEQEND
  0
POLYLINE
  8
0
 10
0
 20
0
 39
0
 70
1
 66
1
  0
VERTEX
  8
0
 10
704.11411881533854
 20
648.44932608168062
 42
-1
  0
VERTEX
  8
0
 10
736.11411881533854
 20
648.44932608168062
 42
-1
  0
SEQEND
  0
POLYLINE
  8
0
 10
0
 20
0
 39
0
 70
1
 66
1
  0
VERTEX
  8
0
 10
660
 20
678.44933783191675
 42
0
  0
VERTEX
  8
0
 10
660
 20
528.44933783191675
 42
0
  0
VERTEX
  8
0
 10
725.5
 20
414.99999701160425
 42
0.97178131341934204
  0
VERTEX
  8
0
 10
778.27712249755859
 20
443.48908697742456
 42
-0
  0
SEQEND
  0
POLYLINE
  8
0
 10
0
 20
0
 39
0
 70
1
 66
1
  0
VERTEX
  8
0
 10
720.28718566894531
 20
512.44933783191675
 42
-1
  0
VERTEX
  8
0
 10
688.28718757629395
 20
512.44933783191675
 42
-1
  0
SEQEND
  0
POLYLINE
  8
0
 10
0
 20
0
 39
0
 70
1
 66
1
  0
VERTEX
  8
0
 10
767.48075866699219
 20
430.00001227039331
 42
-1
  0
VERTEX
  8
0
 10
735.48075866699219
 20
430.00001227039331
 42
-1
  0
SEQEND
  0
POLYLINE
  8
0
 10
0
 20
0
 39
0
 70
1
 66
1
  0
VERTEX
  8
0
 10
821.59487748233073
 20
850
 42
0
  0
VERTEX
  8
0
 10
821.59487748233073
 20
400
 42
0
  0
VERTEX
  8
0
 10
875.59487748233073
 20
400
 42
0
  0
VERTEX
  8
0
 10
875.59487748233073
 20
850
 42
0
  0
SEQEND
  0
POLYLINE
  8
0
 10
0
 20
0
 39
0
 70
1
 66
1
  0
VERTEX
  8
0
 10
862.09487748233073
 20
750.07297515869141
 42
0
  0
VERTEX
  8
0
 10
862.09487748233073
 20
462.57296752929687
 42
-0
  0
VERTEX
  8
0
 10
835.09487748233073
 20
462.57296752929687
 42
-0
  0
VERTEX
  8
0
 10
835.09487748233073
 20
750.07297515869141
 42
0
  0
SEQEND
  0
POLYLINE
  8
0
 10
0
 20
0
 39
0
 70
1
 66
1
  0
VERTEX
  8
0
 10
857.59487748233073
 20
790.07297134399414
 42
0
  0
VERTEX
  8
0
 10
857.59487748233073
 20
762.07297515869141
 42
-0
  0
VERTEX
  8
0
 10
839.59487748233073
 20
762.07297515869141
 42
-0
  0
VERTEX
  8
0
 10
839.59487748233073
 20
790.07297134399414
 42
0
  0
SEQEND
  0
POLYLINE
  8
0
 10
0
 20
0
 39
0
 70
1
 66
1
  0
VERTEX
  8
0
 10
843.59487748233073
 20
819
 42
0
  0
VERTEX
  8
0
 10
843.59487748233073
 20
801
 42
0
  0
VERTEX
  8
0
 10
825.59487748233073
 20
801
 42
-0
  0
VERTEX
  8
0
 10
825.59487748233073
 20
819
 42
-0
  0
SEQEND
  0
POLYLINE
  8
0
 10
0
 20
0
 39
0
 70
1
 66
1
  0
VERTEX
  8
0
 10
853.59487748233073
 20
819
 42
-0
  0
VERTEX
  8
0
 10
871.59487748233073
 20
819
 42
0
  0
VERTEX
  8
0
 10
871.59487748233073
 20
801
 42
0
  0
VERTEX
  8
0
 10
853.59487748233073
 20
801
 42
-0
  0
SEQEND
  0
POLYLINE
  8
0
 10
0
 20
0
 39
0
 70
1
 66
1
  0
VERTEX
  8
0
 10
843.59487748233073
 20
449
 42
0
  0
VERTEX
  8
0
 10
843.59487748233073
 20
431
 42
0
  0
VERTEX
  8
0
 10
825.59487748233073
 20
431
 42
-0
  0
VERTEX
  8
0
 10
825.59487748233073
 20
449
 42
-0
  0
SEQEND
  0
POLYLINE
  8
0
 10
0
 20
0
 39
0
 70
1
 66
1
  0
VERTEX
  8
0
 10
853.59487748233073
 20
449
 42
-0
  0
VERTEX
  8
0
 10
871.59487748233073
 20
449
 42
0
  0
VERTEX
  8
0
 10
871.59487748233073
 20
431
 42
0
  0
VERTEX
  8
0
 10
853.59487748233073
 20
431
 42
-0
  0
SEQEND
  0
POLYLINE
  8
0
 10
0
 20
0
 39
0
 70
1
 66
1
  0
VERTEX
  8
0
 10
2107.3443281659247
 20
636
 42
1
  0
VERTEX
  8
0
 10
2027.3443281659247
 20
636
 42
0
  0
VERTEX
  8
0
 10
2027.3443281659247
 20
388
 42
1
  0
VERTEX
  8
0
 10
2107.3443281659247
 20
388
 42
-0
  0
SEQEND
  0
POLYLINE
  8
0
 10
0
 20
0
 39
0
 70
1
 66
1
  0
VERTEX
  8
0
 10
2067.3443281659247
 20
525
 42
-1
  0
VERTEX
  8
0
 10
2067.3443281659247
 20
499
 42
-1
  0
SEQEND
  0
POLYLINE
  8
0
 10
0
 20
0
 39
0
 70
1
 66
1
  0
VERTEX
  8
0
 10
2067.3443281659247
 20
472.32795715332031
 42
-1
  0
VERTEX
  8
0
 10
2067.3443281659247
 20
450.32795715332031
 42
-1
  0
SEQEND
  0
POLYLINE
  8
0
 10
0
 20
0
 39
0
 70
1
 66
1
  0
VERTEX
  8
0
 10
2067.3443281659247
 20
573.67204284667969
 42
-1
  0
VERTEX
  8
0
 10
2067.3443281659247
 20
551.67204284667969
 42
-1
  0
SEQEND
  0
POLYLINE
  8
0
 10
0
 20
0
 39
0
 70
1
 66
1
  0
VERTEX
  8
0
 10
10
 20
850
 42
0
  0
VERTEX
  8
0
 10
460
 20
850
 42
0
  0
VERTEX
  8
0
 10
460
 20
904
 42
0
  0
VERTEX
  8
0
 10
10
 20
904
 42
0
  0
SEQEND
  0
POLYLINE
  8
0
 10
0
 20
0
 39
0
 70
1
 66
1
  0
VERTEX
  8
0
 10
109.92702484130859
 20
890.5
 42
0
  0
VERTEX
  8
0
 10
397.42703247070312
 20
890.5
 42
-0
  0
VERTEX
  8
0
 10
397.42703247070312
 20
863.5
 42
-0
  0
VERTEX
  8
0
 10
109.92702484130859
 20
863.5
 42
0
  0
SEQEND
  0
POLYLINE
  8
0
 10
0
 20
0
 39
0
 70
1
 66
1
  0
VERTEX
  8
0
 10
69.927028656005859
 20
886
 42
0
  0
VERTEX
  8
0
 10
97.927024841308594
 20
886
 42
-0
  0
VERTEX
  8
0
 10
97.927024841308594
 20
868
 42
-0
  0
VERTEX
  8
0
 10
69.927028656005859
 20
868
 42
0
  0
SEQEND
  0
POLYLINE
  8
0
 10
0
 20
0
 39
0
 70
1
 66
1
  0
VERTEX
  8
0
 10
41
 20
872
 42
0
  0
VERTEX
  8
0
 10
59
 20
872
 42
0
  0
VERTEX
  8
0
 10
59
 20
854
 42
-0
  0
VERTEX
  8
0
 10
41
 20
854
 42
-0
  0
SEQEND
  0
POLYLINE
  8
0
 10
0
 20
0
 39
0
 70
1
 66
1
  0
VERTEX
  8
0
 10
41
 20
882
 42
-0
  0
VERTEX
  8
0
 10
41
 20
900
 42
0
  0
VERTEX
  8
0
 10
59
 20
900
 42
0
  0
VERTEX
  8
0
 10
59
 20
882
 42
-0
  0
SEQEND
  0
POLYLINE
  8
0
 10
0
 20
0
 39
0
 70
1
 66
1
  0
VERTEX
  8
0
 10
411
 20
872
 42
0
  0
VERTEX
  8
0
 10
429
 20
872
 42
0
  0
VERTEX
  8
0
 10
429
 20
854
 42
-0
  0
VERTEX
  8
0
 10
411
 20
854
 42
-0
  0
SEQEND
  0
POLYLINE
  8
0
 10
0
 20
0
 39
0
 70
1
 66
1
  0
VERTEX
  8
0
 10
411
 20
882
 42
-0
  0
VERTEX
  8
0
 10
411
 20
900
 42
0
  0
VERTEX
  8
0
 10
429
 20
900
 42
0
  0
VERTEX
  8
0
 10
429
 20
882
 42
-0
  0
SEQEND
  0
POLYLINE
  8
0
 10
0
 20
0
 39
0
 70
1
 66
1
  0
VERTEX
  8
0
 10
2017.3443281659245
 20
688
 42
1
  0
VERTEX
  8
0
 10
1937.3443281659245
 20
688
 42
0
  0
VERTEX
  8
0
 10
1937.3443281659245
 20
440
 42
1
  0
VERTEX
  8
0
 10
2017.3443281659245
 20
440
 42
-0
  0
SEQEND
  0
POLYLINE
  8
0
 10
0
 20
0
 39
0
 70
1
 66
1
  0
VERTEX
  8
0
 10
1977.3443281659245
 20
577
 42
-1
  0
VERTEX
  8
0
 10
1977.3443281659245
 20
551
 42
-1
  0
SEQEND
  0
POLYLINE
  8
0
 10
0
 20
0
 39
0
 70
1
 66
1
  0
VERTEX
  8
0
 10
1977.3443281659245
 20
524.32795715332031
 42
-1
  0
VERTEX
  8
0
 10
1977.3443281659245
 20
502.32795715332031
 42
-1
  0
SEQEND
  0
POLYLINE
  8
0
 10
0
 20
0
 39
0
 70
1
 66
1
  0
VERTEX
  8
0
 10
1977.3443281659245
 20
625.67204284667969
 42
-1
  0
VERTEX
  8
0
 10
1977.3443281659245
 20
603.67204284667969
 42
-1
  0
SEQEND
  0
POLYLINE
  8
0
 10
0
 20
0
 39
0
 70
1
 66
1
  0
VERTEX
  8
0
 10
1646
 20
960
 42
1
  0
VERTEX
  8
0
 10
1646
 20
880
 42
0
  0
VERTEX
  8
0
 10
1894
 20
880
 42
1
  0
VERTEX
  8
0
 10
1894
 20
960
 42
-0
  0
SEQEND
  0
POLYLINE
  8
0
 10
0
 20
0
 39
0
 70
1
 66
1
  0
VERTEX
  8
0
 10
1757
 20
920
 42
-1
  0
VERTEX
  8
0
 10
1783
 20
920
 42
-1
  0
SEQEND
  0
POLYLINE
  8
0
 10
0
 20
0
 39
0
 70
1
 66
1
  0
VERTEX
  8
0
 10
1809.6720428466797
 20
920
 42
-1
  0
VERTEX
  8
0
 10
1831.6720428466797
 20
920
 42
-1
  0
SEQEND
  0
POLYLINE
  8
0
 10
0
 20
0
 39
0
 70
1
 66
1
  0
VERTEX
  8
0
 10
1708.3279571533203
 20
920
 42
-1
  0
VERTEX
  8
0
 10
1730.3279571533203
 20
920
 42
-1
  0
SEQEND
  0
POLYLINE
  8
0
 10
0
 20
0
 39
0
 70
1
 66
1
  0
VERTEX
  8
0
 10
2273.594877482331
 20
470.00000052015719
 42
0
  0
VERTEX
  8
0
 10
2273.594877482331
 20
620.00000052015719
 42
0
  0
VERTEX
  8
0
 10
2208.094877482331
 20
733.44934134046969
 42
0.97178131341934204
  0
VERTEX
  8
0
 10
2155.3177549847724
 20
704.96025137464937
 42
-0
  0
SEQEND
  0
POLYLINE
  8
0
 10
0
 20
0
 39
0
 70
1
 66
1
  0
VERTEX
  8
0
 10
2213.3076918133856
 20
636.00000052015719
 42
-1
  0
VERTEX
  8
0
 10
2245.307689906037
 20
636.00000052015719
 42
-1
  0
SEQEND
  0
POLYLINE
  8
0
 10
0
 20
0
 39
0
 70
1
 66
1
  0
VERTEX
  8
0
 10
2166.1141188153388
 20
718.44932608168062
 42
-1
  0
VERTEX
  8
0
 10
2198.1141188153388
 20
718.44932608168062
 42
-1
  0
SEQEND
  0
POLYLINE
  8
0
 10
0
 20
0
 39
0
 70
1
 66
1
  0
VERTEX
  8
0
 10
2122
 20
748.44933783191675
 42
0
  0
VERTEX
  8
0
 10
2122
 20
598.44933783191675
 42
0
  0
VERTEX
  8
0
 10
2187.5
 20
484.99999701160425
 42
0.97178131341934204
  0
VERTEX
  8
0
 10
2240.2771224975586
 20
513.48908697742456
 42
-0
  0
SEQEND
  0
POLYLINE
  8
0
 10
0
 20
0
 39
0
 70
1
 66
1
  0
VERTEX
  8
0
 10
2182.2871856689453
 20
582.44933783191675
 42
-1
  0
VERTEX
  8
0
 10
2150.2871875762939
 20
582.44933783191675
 42
-1
  0
SEQEND
  0
POLYLINE
  8
0
 10
0
 20
0
 39
0
 70
1
 66
1
  0
VERTEX
  8
0
 10
2229.4807586669922
 20
500.00001227039331
 42
-1
  0
VERTEX
  8
0
 10
2197.4807586669922
 20
500.00001227039331
 42
-1
  0
SEQEND
  0
POLYLINE
  8
0
 10
0
 20
0
 39
0
 70
1
 66
1
  0
VERTEX
  8
0
 10
970
 20
959
 42
1
  0
VERTEX
  8
0
 10
970
 20
879
 42
0
  0
VERTEX
  8
0
 10
1218
 20
879
 42
1
  0
VERTEX
  8
0
 10
1218
 20
959
 42
-0
  0
SEQEND
  0
POLYLINE
  8
0
 10
0
 20
0
 39
0
 70
1
 66
1
  0
VERTEX
  8
0
 10
1081
 20
919
 42
-1
  0
VERTEX
  8
0
 10
1107
 20
919
 42
-1
  0
SEQEND
  0
POLYLINE
  8
0
 10
0
 20
0
 39
0
 70
1
 66
1
  0
VERTEX
  8
0
 10
1133.6720428466797
 20
919
 42
-1
  0
VERTEX
  8
0
 10
1155.6720428466797
 20
919
 42
-1
  0
SEQEND
  0
POLYLINE
  8
0
 10
0
 20
0
 39
0
 70
1
 66
1
  0
VERTEX
  8
0
 10
1032.3279571533203
 20
919
 42
-1
  0
VERTEX
  8
0
 10
1054.3279571533203
 20
919
 42
-1
  0
SEQEND
  0
POLYLINE
  8
0
 10
0
 20
0
 39
0
 70
1
 66
1
  0
VERTEX
  8
0
 10
2321.6868133544922
 20
30
 42
0
  0
VERTEX
  8
0
 10
2321.6868133544922
 20
210
 42
-0
  0
VERTEX
  8
0
 10
2301.6868133544922
 20
230
 42
0
  0
VERTEX
  8
0
 10
2242.6868133544922
 20
230
 42
0
  0
VERTEX
  8
0
 10
2242.6868133544922
 20
10
 42
0
  0
VERTEX
  8
0
 10
2301.6868133544922
 20
10
 42
-0
  0
SEQEND
  0
POLYLINE
  8
0
 10
0
 20
0
 39
0
 70
1
 66
1
  0
VERTEX
  8
0
 10
2301.6868133544922
 20
59.5
 42
-1
  0
VERTEX
  8
0
 10
2272.6868133544922
 20
59.5
 42
-0
  0
VERTEX
  8
0
 10
2272.6868133544922
 20
180.5
 42
-1
  0
VERTEX
  8
0
 10
2301.6868133544922
 20
180.5
 42
-0
  0
SEQEND
  0
POLYLINE
  8
0
 10
0
 20
0
 39
0
 70
1
 66
1
  0
VERTEX
  8
0
 10
2232.6868133544922
 20
30
 42
0
  0
VERTEX
  8
0
 10
2232.6868133544922
 20
210
 42
-0
  0
VERTEX
  8
0
 10
2212.6868133544922
 20
230
 42
0
  0
VERTEX
  8
0
 10
2153.6868133544922
 20
230
 42
0
  0
VERTEX
  8
0
 10
2153.6868133544922
 20
10
 42
0
  0
VERTEX
  8
0
 10
2212.6868133544922
 20
10
 42
-0
  0
SEQEND
  0
POLYLINE
  8
0
 10
0
 20
0
 39
0
 70
1
 66
1
  0
VERTEX
  8
0
 10
2212.6868133544922
 20
59.5
 42
-1
  0
VERTEX
  8
0
 10
2183.6868133544922
 20
59.5
 42
-0
  0
VERTEX
  8
0
 10
2183.6868133544922
 20
180.5
 42
-1
  0
VERTEX
  8
0
 10
2212.6868133544922
 20
180.5
 42
-0
  0
SEQEND
  0
POLYLINE
  8
0
 10
0
 20
0
 39
0
 70
1
 66
1
  0
VERTEX
  8
0
 10
2201
 20
778.44933835207394
 42
0
  0
VERTEX
  8
0
 10
2201
 20
958.44933835207394
 42
-0
  0
VERTEX
  8
0
 10
2181
 20
978.44933835207394
 42
0
  0
VERTEX
  8
0
 10
2122
 20
978.44933835207394
 42
0
  0
VERTEX
  8
0
 10
2122
 20
758.44933835207394
 42
0
  0
VERTEX
  8
0
 10
2181
 20
758.44933835207394
 42
-0
  0
SEQEND
  0
POLYLINE
  8
0
 10
0
 20
0
 39
0
 70
1
 66
1
  0
VERTEX
  8
0
 10
2181
 20
807.94933835207394
 42
-1
  0
VERTEX
  8
0
 10
2152
 20
807.94933835207394
 42
-0
  0
VERTEX
  8
0
 10
2152
 20
928.94933835207394
 42
-1
  0
VERTEX
  8
0
 10
2181
 20
928.94933835207394
 42
-0
  0
SEQEND
  0
POLYLINE
  8
0
 10
0
 20
0
 39
0
 70
1
 66
1
  0
VERTEX
  8
0
 10
2451.594877482331
 20
490
 42
0
  0
VERTEX
  8
0
 10
2451.594877482331
 20
670
 42
-0
  0
VERTEX
  8
0
 10
2431.594877482331
 20
690
 42
0
  0
VERTEX
  8
0
 10
2372.594877482331
 20
690
 42
0
  0
VERTEX
  8
0
 10
2372.594877482331
 20
470
 42
0
  0
VERTEX
  8
0
 10
2431.594877482331
 20
470
 42
-0
  0
SEQEND
  0
POLYLINE
  8
0
 10
0
 20
0
 39
0
 70
1
 66
1
  0
VERTEX
  8
0
 10
2431.594877482331
 20
519.5
 42
-1
  0
VERTEX
  8
0
 10
2402.594877482331
 20
519.5
 42
-0
  0
VERTEX
  8
0
 10
2402.594877482331
 20
640.5
 42
-1
  0
VERTEX
  8
0
 10
2431.594877482331
 20
640.5
 42
-0
  0
SEQEND
  0
POLYLINE
  8
0
 10
0
 20
0
 39
0
 70
1
 66
1
  0
VERTEX
  8
0
 10
922.93736267089844
 20
390
 42
0
  0
VERTEX
  8
0
 10
922.93736267089844
 20
10
 42
0
  0
VERTEX
  8
0
 10
1065.5215148925781
 20
10
 42
0
  0
VERTEX
  8
0
 10
1175.8747253417969
 20
157.04478454589847
 42
-0
  0
VERTEX
  8
0
 10
1175.8747253417969
 20
254.67083740234378
 42
-0
  0
VERTEX
  8
0
 10
1074.3137969970703
 20
390
 42
-0
  0
SEQEND
  0
POLYLINE
  8
0
 10
0
 20
0
 39
0
 70
1
 66
1
  0
VERTEX
  8
0
 10
1081.2154998779297
 20
341.99380111694336
 42
0
  0
VERTEX
  8
0
 10
1129.6535949707031
 20
277.45040893554687
 42
0
  0
VERTEX
  8
0
 10
1101.1393890380859
 20
277.45040893554687
 42
-0
  0
VERTEX
  8
0
 10
1075.2154998779297
 20
311.99379730224609
 42
-0
  0
VERTEX
  8
0
 10
987.21549224853516
 20
311.99379730224609
 42
-0
  0
VERTEX
  8
0
 10
987.21549224853516
 20
179.99380493164062
 42
-0
  0
VERTEX
  8
0
 10
957.21549224853516
 20
179.99380493164062
 42
-0
  0
VERTEX
  8
0
 10
957.21549224853516
 20
341.99380111694336
 42
-0
  0
SEQEND
  0
POLYLINE
  8
0
 10
0
 20
0
 39
0
 70
1
 66
1
  0
VERTEX
  8
0
 10
1052.9907379150391
 20
245.99380493164062
 42
0
  0
VERTEX
  8
0
 10
1052.9907379150391
 20
103.99380493164062
 42
-0
  0
VERTEX
  8
0
 10
1019.2154922485352
 20
103.99380493164062
 42
-0
  0
VERTEX
  8
0
 10
1019.2154922485352
 20
245.99380493164062
 42
-0
  0
SEQEND
  0
POLYLINE
  8
0
 10
0
 20
0
 39
0
 70
1
 66
1
  0
VERTEX
  8
0
 10
1130
 20
869
 42
0
  0
VERTEX
  8
0
 10
950
 20
869
 42
-0
  0
VERTEX
  8
0
 10
930
 20
849
 42
0
  0
VERTEX
  8
0
 10
930
 20
790
 42
0
  0
VERTEX
  8
0
 10
1150
 20
790
 42
0
  0
VERTEX
  8
0
 10
1150
 20
849
 42
-0
  0
SEQEND
  0
POLYLINE
  8
0
 10
0
 20
0
 39
0
 70
1
 66
1
  0
VERTEX
  8
0
 10
1100.5
 20
849
 42
-1
  0
VERTEX
  8
0
 10
1100.5
 20
820
 42
-0
  0
VERTEX
  8
0
 10
979.5
 20
820
 42
-1
  0
VERTEX
  8
0
 10
979.5
 20
849
 42
-0
  0
SEQEND
  0
POLYLINE
  8
0
 10
0
 20
0
 39
0
 70
1
 66
1
  0
VERTEX
  8
0
 10
2362.594877482331
 20
490
 42
0
  0
VERTEX
  8
0
 10
2362.594877482331
 20
670
 42
-0
  0
VERTEX
  8
0
 10
2342.594877482331
 20
690
 42
0
  0
VERTEX
  8
0
 10
2283.594877482331
 20
690
 42
0
  0
VERTEX
  8
0
 10
2283.594877482331
 20
470
 42
0
  0
VERTEX
  8
0
 10
2342.594877482331
 20
470
 42
-0
  0
SEQEND
  0
POLYLINE
  8
0
 10
0
 20
0
 39
0
 70
1
 66
1
  0
VERTEX
  8
0
 10
2342.594877482331
 20
519.5
 42
-1
  0
VERTEX
  8
0
 10
2313.594877482331
 20
519.5
 42
-0
  0
VERTEX
  8
0
 10
2313.594877482331
 20
640.5
 42
-1
  0
VERTEX
  8
0
 10
2342.594877482331
 20
640.5
 42
-0
  0
SEQEND
  0
POLYLINE
  8
0
 10
0
 20
0
 39
0
 70
1
 66
1
  0
VERTEX
  8
0
 10
2285.3443281659247
 20
260
 42
0
  0
VERTEX
  8
0
 10
2285.3443281659247
 20
440
 42
-0
  0
VERTEX
  8
0
 10
2265.3443281659247
 20
460
 42
0
  0
VERTEX
  8
0
 10
2206.3443281659247
 20
460
 42
0
  0
VERTEX
  8
0
 10
2206.3443281659247
 20
240
 42
0
  0
VERTEX
  8
0
 10
2265.3443281659247
 20
240
 42
-0
  0
SEQEND
  0
POLYLINE
  8
0
 10
0
 20
0
 39
0
 70
1
 66
1
  0
VERTEX
  8
0
 10
2265.3443281659247
 20
289.5
 42
-1
  0
VERTEX
  8
0
 10
2236.3443281659247
 20
289.5
 42
-0
  0
VERTEX
  8
0
 10
2236.3443281659247
 20
410.5
 42
-1
  0
VERTEX
  8
0
 10
2265.3443281659247
 20
410.5
 42
-0
  0
SEQEND
  0
POLYLINE
  8
0
 10
0
 20
0
 39
0
 70
1
 66
1
  0
VERTEX
  8
0
 10
2468
 20
720
 42
0
  0
VERTEX
  8
0
 10
2468
 20
900
 42
-0
  0
VERTEX
  8
0
 10
2448
 20
920
 42
0
  0
VERTEX
  8
0
 10
2389
 20
920
 42
0
  0
VERTEX
  8
0
 10
2389
 20
700
 42
0
  0
VERTEX
  8
0
 10
2448
 20
700
 42
-0
  0
SEQEND
  0
POLYLINE
  8
0
 10
0
 20
0
 39
0
 70
1
 66
1
  0
VERTEX
  8
0
 10
2448
 20
749.5
 42
-1
  0
VERTEX
  8
0
 10
2419
 20
749.5
 42
-0
  0
VERTEX
  8
0
 10
2419
 20
870.5
 42
-1
  0
VERTEX
  8
0
 10
2448
 20
870.5
 42
-0
  0
SEQEND
  0
POLYLINE
  8
0
 10
0
 20
0
 39
0
 70
1
 66
1
  0
VERTEX
  8
0
 10
2112
 20
706
 42
0
  0
VERTEX
  8
0
 10
2112
 20
886
 42
-0
  0
VERTEX
  8
0
 10
2092
 20
906
 42
0
  0
VERTEX
  8
0
 10
2033
 20
906
 42
0
  0
VERTEX
  8
0
 10
2033
 20
686
 42
0
  0
VERTEX
  8
0
 10
2092
 20
686
 42
-0
  0
SEQEND
  0
POLYLINE
  8
0
 10
0
 20
0
 39
0
 70
1
 66
1
  0
VERTEX
  8
0
 10
2092
 20
735.5
 42
-1
  0
VERTEX
  8
0
 10
2063
 20
735.5
 42
-0
  0
VERTEX
  8
0
 10
2063
 20
856.5
 42
-1
  0
VERTEX
  8
0
 10
2092
 20
856.5
 42
-0
  0
SEQEND
  0
POLYLINE
  8
0
 10
0
 20
0
 39
0
 70
1
 66
1
  0
VERTEX
  8
0
 10
1148.5322401532292
 20
780
 42
0
  0
VERTEX
  8
0
 10
1148.5322401532292
 20
400
 42
0
  0
VERTEX
  8
0
 10
1291.1163923749089
 20
400
 42
0
  0
VERTEX
  8
0
 10
1401.4696028241276
 20
547.04478454589844
 42
-0
  0
VERTEX
  8
0
 10
1401.4696028241276
 20
644.67083740234375
 42
-0
  0
VERTEX
  8
0
 10
1299.908674479401
 20
780
 42
-0
  0
SEQEND
  0
POLYLINE
  8
0
 10
0
 20
0
 39
0
 70
1
 66
1
  0
VERTEX
  8
0
 10
1306.8103773602604
 20
731.99380111694336
 42
0
  0
VERTEX
  8
0
 10
1355.2484724530339
 20
667.45040893554687
 42
0
  0
VERTEX
  8
0
 10
1326.7342665204167
 20
667.45040893554687
 42
-0
  0
VERTEX
  8
0
 10
1300.8103773602604
 20
701.99379730224609
 42
-0
  0
VERTEX
  8
0
 10
1212.8103697308659
 20
701.99379730224609
 42
-0
  0
VERTEX
  8
0
 10
1212.8103697308659
 20
569.99380493164062
 42
-0
  0
VERTEX
  8
0
 10
1182.8103697308659
 20
569.99380493164062
 42
-0
  0
VERTEX
  8
0
 10
1182.8103697308659
 20
731.99380111694336
 42
-0
  0
SEQEND
  0
POLYLINE
  8
0
 10
0
 20
0
 39
0
 70
1
 66
1
  0
VERTEX
  8
0
 10
1278.5856153973698
 20
635.99380493164062
 42
0
  0
VERTEX
  8
0
 10
1278.5856153973698
 20
493.99380493164062
 42
-0
  0
VERTEX
  8
0
 10
1244.8103697308659
 20
493.99380493164062
 42
-0
  0
VERTEX
  8
0
 10
1244.8103697308659
 20
635.99380493164062
 42
-0
  0
SEQEND
  0
POLYLINE
  8
0
 10
0
 20
0
 39
0
 70
1
 66
1
  0
VERTEX
  8
0
 10
1411.4696028241276
 20
780
 42
0
  0
VERTEX
  8
0
 10
1411.4696028241276
 20
400
 42
0
  0
VERTEX
  8
0
 10
1554.0537550458073
 20
400
 42
0
  0
VERTEX
  8
0
 10
1664.406965495026
 20
547.04478454589844
 42
-0
  0
VERTEX
  8
0
 10
1664.406965495026
 20
644.67083740234375
 42
-0
  0
VERTEX
  8
0
 10
1562.8460371502995
 20
780
 42
-0
  0
SEQEND
  0
POLYLINE
  8
0
 10
0
 20
0
 39
0
 70
1
 66
1
  0
VERTEX
  8
0
 10
1569.7477400311589
 20
731.99380111694336
 42
0
  0
VERTEX
  8
0
 10
1618.1858351239323
 20
667.45040893554687
 42
0
  0
VERTEX
  8
0
 10
1589.6716291913151
 20
667.45040893554687
 42
-0
  0
VERTEX
  8
0
 10
1563.7477400311589
 20
701.99379730224609
 42
-0
  0
VERTEX
  8
0
 10
1475.7477324017643
 20
701.99379730224609
 42
-0
  0
VERTEX
  8
0
 10
1475.7477324017643
 20
569.99380493164062
 42
-0
  0
VERTEX
  8
0
 10
1445.7477324017643
 20
569.99380493164062
 42
-0
  0
VERTEX
  8
0
 10
1445.7477324017643
 20
731.99380111694336
 42
-0
  0
SEQEND
  0
POLYLINE
  8
0
 10
0
 20
0
 39
0
 70
1
 66
1
  0
VERTEX
  8
0
 10
1541.5229780682682
 20
635.99380493164062
 42
0
  0
VERTEX
  8
0
 10
1541.5229780682682
 20
493.99380493164062
 42
-0
  0
VERTEX
  8
0
 10
1507.7477324017643
 20
493.99380493164062
 42
-0
  0
VERTEX
  8
0
 10
1507.7477324017643
 20
635.99380493164062
 42
-0
  0
SEQEND
  0
POLYLINE
  8
0
 10
0
 20
0
 39
0
 70
1
 66
1
  0
VERTEX
  8
0
 10
2290
 20
778.44933835207394
 42
0
  0
VERTEX
  8
0
 10
2290
 20
958.44933835207394
 42
-0
  0
VERTEX
  8
0
 10
2270
 20
978.44933835207394
 42
0
  0
VERTEX
  8
0
 10
2211
 20
978.44933835207394
 42
0
  0
VERTEX
  8
0
 10
2211
 20
758.44933835207394
 42
0
  0
VERTEX
  8
0
 10
2270
 20
758.44933835207394
 42
-0
  0
SEQEND
  0
POLYLINE
  8
0
 10
0
 20
0
 39
0
 70
1
 66
1
  0
VERTEX
  8
0
 10
2270
 20
807.94933835207394
 42
-1
  0
VERTEX
  8
0
 10
2241
 20
807.94933835207394
 42
-0
  0
VERTEX
  8
0
 10
2241
 20
928.94933835207394
 42
-1
  0
VERTEX
  8
0
 10
2270
 20
928.94933835207394
 42
-0
  0
SEQEND
  0
POLYLINE
  8
0
 10
0
 20
0
 39
0
 70
1
 66
1
  0
VERTEX
  8
0
 10
2143.6868133544922
 20
30
 42
0
  0
VERTEX
  8
0
 10
2143.6868133544922
 20
210
 42
-0
  0
VERTEX
  8
0
 10
2123.6868133544922
 20
230
 42
0
  0
VERTEX
  8
0
 10
2064.6868133544922
 20
230
 42
0
  0
VERTEX
  8
0
 10
2064.6868133544922
 20
10
 42
0
  0
VERTEX
  8
0
 10
2123.6868133544922
 20
10
 42
-0
  0
SEQEND
  0
POLYLINE
  8
0
 10
0
 20
0
 39
0
 70
1
 66
1
  0
VERTEX
  8
0
 10
2123.6868133544922
 20
59.5
 42
-1
  0
VERTEX
  8
0
 10
2094.6868133544922
 20
59.5
 42
-0
  0
VERTEX
  8
0
 10
2094.6868133544922
 20
180.5
 42
-1
  0
VERTEX
  8
0
 10
2123.6868133544922
 20
180.5
 42
-0
  0
SEQEND
  0
POLYLINE
  8
0
 10
0
 20
0
 39
0
 70
1
 66
1
  0
VERTEX
  8
0
 10
1674.406965495026
 20
780
 42
0
  0
VERTEX
  8
0
 10
1674.406965495026
 20
400
 42
0
  0
VERTEX
  8
0
 10
1816.9911177167057
 20
400
 42
0
  0
VERTEX
  8
0
 10
1927.3443281659245
 20
547.04478454589844
 42
-0
  0
VERTEX
  8
0
 10
1927.3443281659245
 20
644.67083740234375
 42
-0
  0
VERTEX
  8
0
 10
1825.7833998211979
 20
780
 42
-0
  0
SEQEND
  0
POLYLINE
  8
0
 10
0
 20
0
 39
0
 70
1
 66
1
  0
VERTEX
  8
0
 10
1832.6851027020573
 20
731.99380111694336
 42
0
  0
VERTEX
  8
0
 10
1881.1231977948307
 20
667.45040893554687
 42
0
  0
VERTEX
  8
0
 10
1852.6089918622135
 20
667.45040893554687
 42
-0
  0
VERTEX
  8
0
 10
1826.6851027020573
 20
701.99379730224609
 42
-0
  0
VERTEX
  8
0
 10
1738.6850950726628
 20
701.99379730224609
 42
-0
  0
VERTEX
  8
0
 10
1738.6850950726628
 20
569.99380493164062
 42
-0
  0
VERTEX
  8
0
 10
1708.6850950726628
 20
569.99380493164062
 42
-0
  0
VERTEX
  8
0
 10
1708.6850950726628
 20
731.99380111694336
 42
-0
  0
SEQEND
  0
POLYLINE
  8
0
 10
0
 20
0
 39
0
 70
1
 66
1
  0
VERTEX
  8
0
 10
1804.4603407391667
 20
635.99380493164062
 42
0
  0
VERTEX
  8
0
 10
1804.4603407391667
 20
493.99380493164062
 42
-0
  0
VERTEX
  8
0
 10
1770.6850950726628
 20
493.99380493164062
 42
-0
  0
VERTEX
  8
0
 10
1770.6850950726628
 20
635.99380493164062
 42
-0
  0
SEQEND
  0
POLYLINE
  8
0
 10
0
 20
0
 39
0
 70
1
 66
1
  0
VERTEX
  8
0
 10
2374.3443281659247
 20
260
 42
0
  0
VERTEX
  8
0
 10
2374.3443281659247
 20
440
 42
-0
  0
VERTEX
  8
0
 10
2354.3443281659247
 20
460
 42
0
  0
VERTEX
  8
0
 10
2295.3443281659247
 20
460
 42
0
  0
VERTEX
  8
0
 10
2295.3443281659247
 20
240
 42
0
  0
VERTEX
  8
0
 10
2354.3443281659247
 20
240
 42
-0
  0
SEQEND
  0
POLYLINE
  8
0
 10
0
 20
0
 39
0
 70
1
 66
1
  0
VERTEX
  8
0
 10
2354.3443281659247
 20
289.5
 42
-1
  0
VERTEX
  8
0
 10
2325.3443281659247
 20
289.5
 42
-0
  0
VERTEX
  8
0
 10
2325.3443281659247
 20
410.5
 42
-1
  0
VERTEX
  8
0
 10
2354.3443281659247
 20
410.5
 42
-0
  0
SEQEND
  0
POLYLINE
  8
0
 10
0
 20
0
 39
0
 70
1
 66
1
  0
VERTEX
  8
0
 10
2410.6868133544922
 20
30
 42
0
  0
VERTEX
  8
0
 10
2410.6868133544922
 20
210
 42
-0
  0
VERTEX
  8
0
 10
2390.6868133544922
 20
230
 42
0
  0
VERTEX
  8
0
 10
2331.6868133544922
 20
230
 42
0
  0
VERTEX
  8
0
 10
2331.6868133544922
 20
10
 42
0
  0
VERTEX
  8
0
 10
2390.6868133544922
 20
10
 42
-0
  0
SEQEND
  0
POLYLINE
  8
0
 10
0
 20
0
 39
0
 70
1
 66
1
  0
VERTEX
  8
0
 10
2390.6868133544922
 20
59.5
 42
-1
  0
VERTEX
  8
0
 10
2361.6868133544922
 20
59.5
 42
-0
  0
VERTEX
  8
0
 10
2361.6868133544922
 20
180.5
 42
-1
  0
VERTEX
  8
0
 10
2390.6868133544922
 20
180.5
 42
-0
  0
SEQEND
  0
POLYLINE
  8
0
 10
0
 20
0
 39
0
 70
1
 66
1
  0
VERTEX
  8
0
 10
2023
 20
758
 42
0
  0
VERTEX
  8
0
 10
2023
 20
938
 42
-0
  0
VERTEX
  8
0
 10
2003
 20
958
 42
0
  0
VERTEX
  8
0
 10
1944
 20
958
 42
0
  0
VERTEX
  8
0
 10
1944
 20
738
 42
0
  0
VERTEX
  8
0
 10
2003
 20
738
 42
-0
  0
SEQEND
  0
POLYLINE
  8
0
 10
0
 20
0
 39
0
 70
1
 66
1
  0
VERTEX
  8
0
 10
2003
 20
787.5
 42
-1
  0
VERTEX
  8
0
 10
1974
 20
787.5
 42
-0
  0
VERTEX
  8
0
 10
1974
 20
908.5
 42
-1
  0
VERTEX
  8
0
 10
2003
 20
908.5
 42
-0
  0
SEQEND
  0
POLYLINE
  8
0
 10
0
 20
0
 39
0
 70
1
 66
1
  0
VERTEX
  8
0
 10
1448.8120880126953
 20
390
 42
0
  0
VERTEX
  8
0
 10
1448.8120880126953
 20
10
 42
0
  0
VERTEX
  8
0
 10
1591.396240234375
 20
10
 42
0
  0
VERTEX
  8
0
 10
1701.7494506835937
 20
157.04478454589847
 42
-0
  0
VERTEX
  8
0
 10
1701.7494506835937
 20
254.67083740234378
 42
-0
  0
VERTEX
  8
0
 10
1600.1885223388672
 20
390
 42
-0
  0
SEQEND
  0
POLYLINE
  8
0
 10
0
 20
0
 39
0
 70
1
 66
1
  0
VERTEX
  8
0
 10
1607.0902252197266
 20
341.99380111694336
 42
0
  0
VERTEX
  8
0
 10
1655.5283203125
 20
277.45040893554687
 42
0
  0
VERTEX
  8
0
 10
1627.0141143798828
 20
277.45040893554687
 42
-0
  0
VERTEX
  8
0
 10
1601.0902252197266
 20
311.99379730224609
 42
-0
  0
VERTEX
  8
0
 10
1513.090217590332
 20
311.99379730224609
 42
-0
  0
VERTEX
  8
0
 10
1513.090217590332
 20
179.99380493164062
 42
-0
  0
VERTEX
  8
0
 10
1483.090217590332
 20
179.99380493164062
 42
-0
  0
VERTEX
  8
0
 10
1483.090217590332
 20
341.99380111694336
 42
-0
  0
SEQEND
  0
POLYLINE
  8
0
 10
0
 20
0
 39
0
 70
1
 66
1
  0
VERTEX
  8
0
 10
1578.8654632568359
 20
245.99380493164062
 42
0
  0
VERTEX
  8
0
 10
1578.8654632568359
 20
103.99380493164062
 42
-0
  0
VERTEX
  8
0
 10
1545.090217590332
 20
103.99380493164062
 42
-0
  0
VERTEX
  8
0
 10
1545.090217590332
 20
245.99380493164062
 42
-0
  0
SEQEND
  0
POLYLINE
  8
0
 10
0
 20
0
 39
0
 70
1
 66
1
  0
VERTEX
  8
0
 10
1308
 20
960
 42
1
  0
VERTEX
  8
0
 10
1308
 20
880
 42
0
  0
VERTEX
  8
0
 10
1556
 20
880
 42
1
  0
VERTEX
  8
0
 10
1556
 20
960
 42
-0
  0
SEQEND
  0
POLYLINE
  8
0
 10
0
 20
0
 39
0
 70
1
 66
1
  0
VERTEX
  8
0
 10
1419
 20
920
 42
-1
  0
VERTEX
  8
0
 10
1445
 20
920
 42
-1
  0
SEQEND
  0
POLYLINE
  8
0
 10
0
 20
0
 39
0
 70
1
 66
1
  0
VERTEX
  8
0
 10
1471.6720428466797
 20
920
 42
-1
  0
VERTEX
  8
0
 10
1493.6720428466797
 20
920
 42
-1
  0
SEQEND
  0
POLYLINE
  8
0
 10
0
 20
0
 39
0
 70
1
 66
1
  0
VERTEX
  8
0
 10
1370.3279571533203
 20
920
 42
-1
  0
VERTEX
  8
0
 10
1392.3279571533203
 20
920
 42
-1
  0
SEQEND
  0
POLYLINE
  8
0
 10
0
 20
0
 39
0
 70
1
 66
1
  0
VERTEX
  8
0
 10
1711.7494506835937
 20
390
 42
0
  0
VERTEX
  8
0
 10
1711.7494506835937
 20
10
 42
0
  0
VERTEX
  8
0
 10
1854.3336029052734
 20
10
 42
0
  0
VERTEX
  8
0
 10
1964.6868133544922
 20
157.04478454589847
 42
-0
  0
VERTEX
  8
0
 10
1964.6868133544922
 20
254.67083740234378
 42
-0
  0
VERTEX
  8
0
 10
1863.1258850097656
 20
390
 42
-0
  0
SEQEND
  0
POLYLINE
  8
0
 10
0
 20
0
 39
0
 70
1
 66
1
  0
VERTEX
  8
0
 10
1870.027587890625
 20
341.99380111694336
 42
0
  0
VERTEX
  8
0
 10
1918.4656829833984
 20
277.45040893554687
 42
0
  0
VERTEX
  8
0
 10
1889.9514770507812
 20
277.45040893554687
 42
-0
  0
VERTEX
  8
0
 10
1864.027587890625
 20
311.99379730224609
 42
-0
  0
VERTEX
  8
0
 10
1776.0275802612305
 20
311.99379730224609
 42
-0
  0
VERTEX
  8
0
 10
1776.0275802612305
 20
179.99380493164062
 42
-0
  0
VERTEX
  8
0
 10
1746.0275802612305
 20
179.99380493164062
 42
-0
  0
VERTEX
  8
0
 10
1746.0275802612305
 20
341.99380111694336
 42
-0
  0
SEQEND
  0
POLYLINE
  8
0
 10
0
 20
0
 39
0
 70
1
 66
1
  0
VERTEX
  8
0
 10
1841.8028259277344
 20
245.99380493164062
 42
0
  0
VERTEX
  8
0
 10
1841.8028259277344
 20
103.99380493164062
 42
-0
  0
VERTEX
  8
0
 10
1808.0275802612305
 20
103.99380493164062
 42
-0
  0
VERTEX
  8
0
 10
1808.0275802612305
 20
245.99380493164062
 42
-0
  0
SEQEND
  0
POLYLINE
  8
0
 10
0
 20
0
 39
0
 70
1
 66
1
  0
VERTEX
  8
0
 10
1185.8747253417969
 20
390
 42
0
  0
VERTEX
  8
0
 10
1185.8747253417969
 20
10
 42
0
  0
VERTEX
  8
0
 10
1328.4588775634766
 20
10
 42
0
  0
VERTEX
  8
0
 10
1438.8120880126953
 20
157.04478454589847
 42
-0
  0
VERTEX
  8
0
 10
1438.8120880126953
 20
254.67083740234378
 42
-0
  0
VERTEX
  8
0
 10
1337.2511596679687
 20
390
 42
-0
  0
SEQEND
  0
POLYLINE
  8
0
 10
0
 20
0
 39
0
 70
1
 66
1
  0
VERTEX
  8
0
 10
1344.1528625488281
 20
341.99380111694336
 42
0
  0
VERTEX
  8
0
 10
1392.5909576416016
 20
277.45040893554687
 42
0
  0
VERTEX
  8
0
 10
1364.0767517089844
 20
277.45040893554687
 42
-0
  0
VERTEX
  8
0
 10
1338.1528625488281
 20
311.99379730224609
 42
-0
  0
VERTEX
  8
0
 10
1250.1528549194336
 20
311.99379730224609
 42
-0
  0
VERTEX
  8
0
 10
1250.1528549194336
 20
179.99380493164062
 42
-0
  0
VERTEX
  8
0
 10
1220.1528549194336
 20
179.99380493164062
 42
-0
  0
VERTEX
  8
0
 10
1220.1528549194336
 20
341.99380111694336
 42
-0
  0
SEQEND
  0
POLYLINE
  8
0
 10
0
 20
0
 39
0
 70
1
 66
1
  0
VERTEX
  8
0
 10
1315.9281005859375
 20
245.99380493164062
 42
0
  0
VERTEX
  8
0
 10
1315.9281005859375
 20
103.99380493164062
 42
-0
  0
VERTEX
  8
0
 10
1282.1528549194336
 20
103.99380493164062
 42
-0
  0
VERTEX
  8
0
 10
1282.1528549194336
 20
245.99380493164062
 42
-0
  0
SEQEND
  0
POLYLINE
  8
0
 10
0
 20
0
 39
0
 70
1
 66
1
  0
VERTEX
  8
0
 10
885.59487748233073
 20
780
 42
0
  0
VERTEX
  8
0
 10
885.59487748233073
 20
400
 42
0
  0
VERTEX
  8
0
 10
1028.1790297040104
 20
400
 42
0
  0
VERTEX
  8
0
 10
1138.5322401532292
 20
547.04478454589844
 42
-0
  0
VERTEX
  8
0
 10
1138.5322401532292
 20
644.67083740234375
 42
-0
  0
VERTEX
  8
0
 10
1036.9713118085026
 20
780
 42
-0
  0
SEQEND
  0
POLYLINE
  8
0
 10
0
 20
0
 39
0
 70
1
 66
1
  0
VERTEX
  8
0
 10
1043.873014689362
 20
731.99380111694336
 42
0
  0
VERTEX
  8
0
 10
1092.3111097821354
 20
667.45040893554687
 42
0
  0
VERTEX
  8
0
 10
1063.7969038495182
 20
667.45040893554687
 42
-0
  0
VERTEX
  8
0
 10
1037.873014689362
 20
701.99379730224609
 42
-0
  0
VERTEX
  8
0
 10
949.87300705996745
 20
701.99379730224609
 42
-0
  0
VERTEX
  8
0
 10
949.87300705996745
 20
569.99380493164062
 42
-0
  0
VERTEX
  8
0
 10
919.87300705996745
 20
569.99380493164062
 42
-0
  0
VERTEX
  8
0
 10
919.87300705996745
 20
731.99380111694336
 42
-0
  0
SEQEND
  0
POLYLINE
  8
0
 10
0
 20
0
 39
0
 70
1
 66
1
  0
VERTEX
  8
0
 10
1015.6482527264714
 20
635.99380493164062
 42
0
  0
VERTEX
  8
0
 10
1015.6482527264714
 20
493.99380493164062
 42
-0
  0
VERTEX
  8
0
 10
981.87300705996745
 20
493.99380493164062
 42
-0
  0
VERTEX
  8
0
 10
981.87300705996745
 20
635.99380493164062
 42
-0
  0
SEQEND
  0
POLYLINE
  8
0
 10
0
 20
0
 39
0
 70
1
 66
1
  0
VERTEX
  8
0
 10
660
 20
390
 42
0
  0
VERTEX
  8
0
 10
660
 20
10
 42
0
  0
VERTEX
  8
0
 10
802.58415222167969
 20
10
 42
0
  0
VERTEX
  8
0
 10
912.93736267089844
 20
157.04478454589847
 42
-0
  0
VERTEX
  8
0
 10
912.93736267089844
 20
254.67083740234378
 42
-0
  0
VERTEX
  8
0
 10
811.37643432617187
 20
390
 42
-0
  0
SEQEND
  0
POLYLINE
  8
0
 10
0
 20
0
 39
0
 70
1
 66
1
  0
VERTEX
  8
0
 10
818.27813720703125
 20
341.99380111694336
 42
0
  0
VERTEX
  8
0
 10
866.71623229980469
 20
277.45040893554687
 42
0
  0
VERTEX
  8
0
 10
838.2020263671875
 20
277.45040893554687
 42
-0
  0
VERTEX
  8
0
 10
812.27813720703125
 20
311.99379730224609
 42
-0
  0
VERTEX
  8
0
 10
724.27812957763672
 20
311.99379730224609
 42
-0
  0
VERTEX
  8
0
 10
724.27812957763672
 20
179.99380493164062
 42
-0
  0
VERTEX
  8
0
 10
694.27812957763672
 20
179.99380493164062
 42
-0
  0
VERTEX
  8
0
 10
694.27812957763672
 20
341.99380111694336
 42
-0
  0
SEQEND
  0
POLYLINE
  8
0
 10
0
 20
0
 39
0
 70
1
 66
1
  0
VERTEX
  8
0
 10
790.05337524414062
 20
245.99380493164062
 42
0
  0
VERTEX
  8
0
 10
790.05337524414062
 20
103.99380493164062
 42
-0
  0
VERTEX
  8
0
 10
756.27812957763672
 20
103.99380493164062
 42
-0
  0
VERTEX
  8
0
 10
756.27812957763672
 20
245.99380493164062
 42
-0
  0
SEQEND
  0
POLYLINE
  8
0
 10
0
 20
0
 39
0
 70
1
 66
1
  0
VERTEX
  8
0
 10
2196.3443281659247
 20
260
 42
0
  0
VERTEX
  8
0
 10
2196.3443281659247
 20
440
 42
-0
  0
VERTEX
  8
0
 10
2176.3443281659247
 20
460
 42
0
  0
VERTEX
  8
0
 10
2117.3443281659247
 20
460
 42
0
  0
VERTEX
  8
0
 10
2117.3443281659247
 20
240
 42
0
  0
VERTEX
  8
0
 10
2176.3443281659247
 20
240
 42
-0
  0
SEQEND
  0
POLYLINE
  8
0
 10
0
 20
0
 39
0
 70
1
 66
1
  0
VERTEX
  8
0
 10
2176.3443281659247
 20
289.5
 42
-1
  0
VERTEX
  8
0
 10
2147.3443281659247
 20
289.5
 42
-0
  0
VERTEX
  8
0
 10
2147.3443281659247
 20
410.5
 42
-1
  0
VERTEX
  8
0
 10
2176.3443281659247
 20
410.5
 42
-0
  0
SEQEND
  0
POLYLINE
  8
0
 10
0
 20
0
 39
0
 70
1
 66
1
  0
VERTEX
  8
0
 10
2379
 20
720
 42
0
  0
VERTEX
  8
0
 10
2379
 20
900
 42
-0
  0
VERTEX
  8
0
 10
2359
 20
920
 42
0
  0
VERTEX
  8
0
 10
2300
 20
920
 42
0
  0
VERTEX
  8
0
 10
2300
 20
700
 42
0
  0
VERTEX
  8
0
 10
2359
 20
700
 42
-0
  0
SEQEND
  0
POLYLINE
  8
0
 10
0
 20
0
 39
0
 70
1
 66
1
  0
VERTEX
  8
0
 10
2359
 20
749.5
 42
-1
  0
VERTEX
  8
0
 10
2330
 20
749.5
 42
-0
  0
VERTEX
  8
0
 10
2330
 20
870.5
 42
-1
  0
VERTEX
  8
0
 10
2359
 20
870.5
 42
-0
  0
SEQEND
  0
ENDSEC
  0
EOF
