  0
SECTION
  2
ENTITIES
  0
POLYLINE
  8
0
 10
0
 20
0
 39
0
 70
1
 66
1
  0
VERTEX
  8
0
 10
0
 20
0
 42
-0
  0
VERTEX
  8
0
 10
1900
 20
0
 42
-0
  0
VERTEX
  8
0
 10
1900
 20
900
 42
-0
  0
VERTEX
  8
0
 10
0
 20
900
 42
-0
  0
SEQEND
  0
POLYLINE
  8
0
 10
0
 20
0
 39
0
 70
1
 66
1
  0
VERTEX
  8
0
 10
410.26153846153846
 20
10.261538461538461
 42
-0
  0
VERTEX
  8
0
 10
10.261538461538464
 20
10.261538461538461
 42
-0
  0
VERTEX
  8
0
 10
10.261538461538464
 20
410.26153846153846
 42
-0
  0
VERTEX
  8
0
 10
231.26153846153846
 20
410.26153846153846
 42
-0
  0
VERTEX
  8
0
 10
410.26153846153846
 20
254.41182227501503
 42
-0
  0
SEQEND
  0
POLYLINE
  8
0
 10
0
 20
0
 39
0
 70
1
 66
1
  0
VERTEX
  8
0
 10
356.46760459313026
 20
221.26153846153846
 42
0
  0
VERTEX
  8
0
 10
209.46760840782753
 20
343.33667273888221
 42
0
  0
VERTEX
  8
0
 10
62.467593149038464
 20
221.26153846153846
 42
0
  0
VERTEX
  8
0
 10
62.467593149038464
 20
75.261538461538464
 42
0
  0
VERTEX
  8
0
 10
356.46760459313026
 20
75.261538461538464
 42
0
  0
SEQEND
  0
POLYLINE
  8
0
 10
0
 20
0
 39
0
 70
1
 66
1
  0
VERTEX
  8
0
 10
410.26153846153846
 20
420.3692307692308
 42
-0
  0
VERTEX
  8
0
 10
10.261538461538464
 20
420.3692307692308
 42
-0
  0
VERTEX
  8
0
 10
10.261538461538464
 20
820.36923076923085
 42
-0
  0
VERTEX
  8
0
 10
231.26153846153846
 20
820.36923076923085
 42
-0
  0
VERTEX
  8
0
 10
410.26153846153846
 20
664.51951458270742
 42
-0
  0
SEQEND
  0
POLYLINE
  8
0
 10
0
 20
0
 39
0
 70
1
 66
1
  0
VERTEX
  8
0
 10
356.46760459313026
 20
631.36923076923085
 42
0
  0
VERTEX
  8
0
 10
209.46760840782753
 20
753.4443650465746
 42
0
  0
VERTEX
  8
0
 10
62.467593149038464
 20
631.36923076923085
 42
0
  0
VERTEX
  8
0
 10
62.467593149038464
 20
485.3692307692308
 42
0
  0
VERTEX
  8
0
 10
356.46760459313026
 20
485.3692307692308
 42
0
  0
SEQEND
  0
POLYLINE
  8
0
 10
0
 20
0
 39
0
 70
1
 66
1
  0
VERTEX
  8
0
 10
820.51538461538462
 20
10.261538461538461
 42
-0
  0
VERTEX
  8
0
 10
420.51538461538462
 20
10.261538461538461
 42
-0
  0
VERTEX
  8
0
 10
420.51538461538462
 20
410.26153846153846
 42
-0
  0
VERTEX
  8
0
 10
641.51538461538462
 20
410.26153846153846
 42
-0
  0
VERTEX
  8
0
 10
820.51538461538462
 20
254.41182227501503
 42
-0
  0
SEQEND
  0
POLYLINE
  8
0
 10
0
 20
0
 39
0
 70
1
 66
1
  0
VERTEX
  8
0
 10
766.72145074697642
 20
221.26153846153846
 42
0
  0
VERTEX
  8
0
 10
619.72145456167368
 20
343.33667273888221
 42
0
  0
VERTEX
  8
0
 10
472.72143930288462
 20
221.26153846153846
 42
0
  0
VERTEX
  8
0
 10
472.72143930288462
 20
75.261538461538464
 42
0
  0
VERTEX
  8
0
 10
766.72145074697642
 20
75.261538461538464
 42
0
  0
SEQEND
  0
POLYLINE
  8
0
 10
0
 20
0
 39
0
 70
1
 66
1
  0
VERTEX
  8
0
 10
820.51538461538462
 20
420.3692307692308
 42
-0
  0
VERTEX
  8
0
 10
420.51538461538462
 20
420.3692307692308
 42
-0
  0
VERTEX
  8
0
 10
420.51538461538462
 20
820.36923076923085
 42
-0
  0
VERTEX
  8
0
 10
641.51538461538462
 20
820.36923076923085
 42
-0
  0
VERTEX
  8
0
 10
820.51538461538462
 20
664.51951458270742
 42
-0
  0
SEQEND
  0
POLYLINE
  8
0
 10
0
 20
0
 39
0
 70
1
 66
1
  0
VERTEX
  8
0
 10
766.72145074697642
 20
631.36923076923085
 42
0
  0
VERTEX
  8
0
 10
619.72145456167368
 20
753.4443650465746
 42
0
  0
VERTEX
  8
0
 10
472.72143930288462
 20
631.36923076923085
 42
0
  0
VERTEX
  8
0
 10
472.72143930288462
 20
485.3692307692308
 42
0
  0
VERTEX
  8
0
 10
766.72145074697642
 20
485.3692307692308
 42
0
  0
SEQEND
  0
POLYLINE
  8
0
 10
0
 20
0
 39
0
 70
1
 66
1
  0
VERTEX
  8
0
 10
1230.7692307692309
 20
10.261538461538461
 42
-0
  0
VERTEX
  8
0
 10
830.76923076923094
 20
10.261538461538461
 42
-0
  0
VERTEX
  8
0
 10
830.76923076923094
 20
410.26153846153846
 42
-0
  0
VERTEX
  8
0
 10
1051.7692307692309
 20
410.26153846153846
 42
-0
  0
VERTEX
  8
0
 10
1230.7692307692309
 20
254.41182227501503
 42
-0
  0
SEQEND
  0
POLYLINE
  8
0
 10
0
 20
0
 39
0
 70
1
 66
1
  0
VERTEX
  8
0
 10
1176.9752969008227
 20
221.26153846153846
 42
0
  0
VERTEX
  8
0
 10
1029.97530071552
 20
343.33667273888221
 42
0
  0
VERTEX
  8
0
 10
882.97528545673094
 20
221.26153846153846
 42
0
  0
VERTEX
  8
0
 10
882.97528545673094
 20
75.261538461538464
 42
0
  0
VERTEX
  8
0
 10
1176.9752969008227
 20
75.261538461538464
 42
0
  0
SEQEND
  0
POLYLINE
  8
0
 10
0
 20
0
 39
0
 70
1
 66
1
  0
VERTEX
  8
0
 10
1027.5232884774464
 20
889.1750360336024
 42
-1
  0
VERTEX
  8
0
 10
1025.7997813725392
 20
494.1788030471522
 42
-1
  0
SEQEND
  0
POLYLINE
  8
0
 10
0
 20
0
 39
0
 70
1
 66
1
  0
VERTEX
  8
0
 10
1027.2942147483132
 20
836.67553671261851
 42
1
  0
VERTEX
  8
0
 10
1026.0288551016724
 20
546.67830236813609
 42
1
  0
SEQEND
  0
POLYLINE
  8
0
 10
0
 20
0
 39
0
 70
1
 66
1
  0
VERTEX
  8
0
 10
1341.1694423236002
 20
632.09042064898699
 42
-1
  0
VERTEX
  8
0
 10
1339.445935218693
 20
237.0941876625368
 42
-1
  0
SEQEND
  0
POLYLINE
  8
0
 10
0
 20
0
 39
0
 70
1
 66
1
  0
VERTEX
  8
0
 10
1340.9403685944669
 20
579.59092132800311
 42
1
  0
VERTEX
  8
0
 10
1339.6750089478262
 20
289.59368698352068
 42
1
  0
SEQEND
  0
POLYLINE
  8
0
 10
0
 20
0
 39
0
 70
1
 66
1
  0
VERTEX
  8
0
 10
1654.2309807851386
 20
889.61349757206403
 42
-1
  0
VERTEX
  8
0
 10
1652.5074736802314
 20
494.61726458561384
 42
-1
  0
SEQEND
  0
POLYLINE
  8
0
 10
0
 20
0
 39
0
 70
1
 66
1
  0
VERTEX
  8
0
 10
1654.0019070560054
 20
837.11399825108015
 42
1
  0
VERTEX
  8
0
 10
1652.7365474093647
 20
547.11676390659773
 42
1
  0
SEQEND
  0
POLYLINE
  8
0
 10
0
 20
0
 39
0
 70
1
 66
1
  0
VERTEX
  8
0
 10
1677.1771346312923
 20
405.2596514182178
 42
-1
  0
VERTEX
  8
0
 10
1675.4536275263852
 20
10.263418431767604
 42
-1
  0
SEQEND
  0
POLYLINE
  8
0
 10
0
 20
0
 39
0
 70
1
 66
1
  0
VERTEX
  8
0
 10
1676.9480609021591
 20
352.76015209723391
 42
1
  0
VERTEX
  8
0
 10
1675.6827012555184
 20
62.762917752751491
 42
1
  0
SEQEND
  0
POLYLINE
  8
0
 10
0
 20
0
 39
0
 70
1
 66
1
  0
VERTEX
  8
0
 10
1152.1526040195376
 20
690.4019982251084
 42
-1
  0
VERTEX
  8
0
 10
892.1550835727603
 20
691.5364585979587
 42
-1
  0
SEQEND
  0
POLYLINE
  8
0
 10
0
 20
0
 39
0
 70
1
 66
1
  0
VERTEX
  8
0
 10
1110.1530045627505
 20
690.58525720841499
 42
1
  0
VERTEX
  8
0
 10
934.15468302954741
 20
691.35319961465211
 42
1
  0
SEQEND
  0
POLYLINE
  8
0
 10
0
 20
0
 39
0
 70
1
 66
1
  0
VERTEX
  8
0
 10
1465.7987578656914
 20
433.31738284049305
 42
-1
  0
VERTEX
  8
0
 10
1205.8012374189141
 20
434.45184321334335
 42
-1
  0
SEQEND
  0
POLYLINE
  8
0
 10
0
 20
0
 39
0
 70
1
 66
1
  0
VERTEX
  8
0
 10
1423.7991584089043
 20
433.50064182379964
 42
1
  0
VERTEX
  8
0
 10
1247.8008368757012
 20
434.26858423003677
 42
1
  0
SEQEND
  0
POLYLINE
  8
0
 10
0
 20
0
 39
0
 70
1
 66
1
  0
VERTEX
  8
0
 10
1778.8602963272299
 20
690.84045976356992
 42
-1
  0
VERTEX
  8
0
 10
1518.8627758804525
 20
691.97492013642022
 42
-1
  0
SEQEND
  0
POLYLINE
  8
0
 10
0
 20
0
 39
0
 70
1
 66
1
  0
VERTEX
  8
0
 10
1736.8606968704428
 20
691.02371874687651
 42
1
  0
VERTEX
  8
0
 10
1560.8623753372397
 20
691.79166115311364
 42
1
  0
SEQEND
  0
POLYLINE
  8
0
 10
0
 20
0
 39
0
 70
1
 66
1
  0
VERTEX
  8
0
 10
1801.8064501733838
 20
206.48661360972386
 42
-1
  0
VERTEX
  8
0
 10
1541.8089297266065
 20
207.62107398257416
 42
-1
  0
SEQEND
  0
POLYLINE
  8
0
 10
0
 20
0
 39
0
 70
1
 66
1
  0
VERTEX
  8
0
 10
1759.8068507165967
 20
206.66987259303045
 42
1
  0
VERTEX
  8
0
 10
1583.8085291833936
 20
207.43781499926757
 42
1
  0
SEQEND
  0
POLYLINE
  8
0
 10
0
 20
0
 39
0
 70
1
 66
1
  0
VERTEX
  8
0
 10
322.66923076923075
 20
85.530769230769238
 42
-0
  0
VERTEX
  8
0
 10
72.669230769230751
 20
85.530769230769238
 42
-0
  0
VERTEX
  8
0
 10
199.87530071551981
 20
298.68701923076924
 42
-0
  0
SEQEND
  0
POLYLINE
  8
0
 10
0
 20
0
 39
0
 70
1
 66
1
  0
VERTEX
  8
0
 10
257.66923076923075
 20
158.23514545147236
 42
1
  0
VERTEX
  8
0
 10
137.66923076923075
 20
158.23514545147236
 42
1
  0
SEQEND
  0
POLYLINE
  8
0
 10
0
 20
0
 39
0
 70
1
 66
1
  0
VERTEX
  8
0
 10
322.66923076923075
 20
495.63846153846157
 42
-0
  0
VERTEX
  8
0
 10
72.669230769230751
 20
495.63846153846157
 42
-0
  0
VERTEX
  8
0
 10
199.87530071551981
 20
708.79471153846157
 42
-0
  0
SEQEND
  0
POLYLINE
  8
0
 10
0
 20
0
 39
0
 70
1
 66
1
  0
VERTEX
  8
0
 10
257.66923076923075
 20
568.34283775916469
 42
1
  0
VERTEX
  8
0
 10
137.66923076923075
 20
568.34283775916469
 42
1
  0
SEQEND
  0
POLYLINE
  8
0
 10
0
 20
0
 39
0
 70
1
 66
1
  0
VERTEX
  8
0
 10
732.92307692307691
 20
85.530769230769238
 42
-0
  0
VERTEX
  8
0
 10
482.92307692307691
 20
85.530769230769238
 42
-0
  0
VERTEX
  8
0
 10
610.12914686936597
 20
298.68701923076924
 42
-0
  0
SEQEND
  0
POLYLINE
  8
0
 10
0
 20
0
 39
0
 70
1
 66
1
  0
VERTEX
  8
0
 10
667.92307692307691
 20
158.23514545147236
 42
1
  0
VERTEX
  8
0
 10
547.92307692307691
 20
158.23514545147236
 42
1
  0
SEQEND
  0
POLYLINE
  8
0
 10
0
 20
0
 39
0
 70
1
 66
1
  0
VERTEX
  8
0
 10
732.92307692307691
 20
495.63846153846157
 42
-0
  0
VERTEX
  8
0
 10
482.92307692307691
 20
495.63846153846157
 42
-0
  0
VERTEX
  8
0
 10
610.12914686936597
 20
708.79471153846157
 42
-0
  0
SEQEND
  0
POLYLINE
  8
0
 10
0
 20
0
 39
0
 70
1
 66
1
  0
VERTEX
  8
0
 10
667.92307692307691
 20
568.34283775916469
 42
1
  0
VERTEX
  8
0
 10
547.92307692307691
 20
568.34283775916469
 42
1
  0
SEQEND
  0
POLYLINE
  8
0
 10
0
 20
0
 39
0
 70
1
 66
1
  0
VERTEX
  8
0
 10
1143.1769230769232
 20
85.530769230769238
 42
-0
  0
VERTEX
  8
0
 10
893.17692307692323
 20
85.530769230769238
 42
-0
  0
VERTEX
  8
0
 10
1020.3829930232123
 20
298.68701923076924
 42
-0
  0
SEQEND
  0
POLYLINE
  8
0
 10
0
 20
0
 39
0
 70
1
 66
1
  0
VERTEX
  8
0
 10
1078.1769230769232
 20
158.23514545147236
 42
1
  0
VERTEX
  8
0
 10
958.17692307692323
 20
158.23514545147236
 42
1
  0
SEQEND
  0
POLYLINE
  8
0
 10
0
 20
0
 39
0
 70
1
 66
1
  0
VERTEX
  8
0
 10
1152.5999999999999
 20
889.5870192307691
 42
-0
  0
VERTEX
  8
0
 10
1402.5999999999999
 20
889.5870192307691
 42
-0
  0
VERTEX
  8
0
 10
1275.3939300537108
 20
676.4307692307691
 42
-0
  0
SEQEND
  0
POLYLINE
  8
0
 10
0
 20
0
 39
0
 70
1
 66
1
  0
VERTEX
  8
0
 10
1217.5999999999999
 20
816.88264301006598
 42
1
  0
VERTEX
  8
0
 10
1337.5999999999999
 20
816.88264301006598
 42
1
  0
SEQEND
  0
POLYLINE
  8
0
 10
0
 20
0
 39
0
 70
1
 66
1
  0
VERTEX
  8
0
 10
341.2528446399337
 20
889.73784042764623
 42
-1
  0
VERTEX
  8
0
 10
340.68561445350855
 20
759.73908020425756
 42
-1
  0
SEQEND
  0
POLYLINE
  8
0
 10
0
 20
0
 39
0
 70
1
 66
1
  0
VERTEX
  8
0
 10
341.10012882051154
 20
854.73817421365698
 42
1
  0
VERTEX
  8
0
 10
340.8383302729307
 20
794.73874641824682
 42
1
  0
SEQEND
  0
POLYLINE
  8
0
 10
0
 20
0
 39
0
 70
1
 66
1
  0
VERTEX
  8
0
 10
751.50669079377985
 20
889.73784042764623
 42
-1
  0
VERTEX
  8
0
 10
750.9394606073547
 20
759.73908020425756
 42
-1
  0
SEQEND
  0
POLYLINE
  8
0
 10
0
 20
0
 39
0
 70
1
 66
1
  0
VERTEX
  8
0
 10
751.3539749743577
 20
854.73817421365698
 42
1
  0
VERTEX
  8
0
 10
751.09217642677686
 20
794.73874641824682
 42
1
  0
SEQEND
  0
POLYLINE
  8
0
 10
0
 20
0
 39
0
 70
1
 66
1
  0
VERTEX
  8
0
 10
1009.9066907937799
 20
754.98399427380014
 42
-1
  0
VERTEX
  8
0
 10
1009.3394606073548
 20
624.98523405041146
 42
-1
  0
SEQEND
  0
POLYLINE
  8
0
 10
0
 20
0
 39
0
 70
1
 66
1
  0
VERTEX
  8
0
 10
1009.7539749743578
 20
719.98432805981088
 42
1
  0
VERTEX
  8
0
 10
1009.492176426777
 20
659.98490026440072
 42
1
  0
SEQEND
  0
POLYLINE
  8
0
 10
0
 20
0
 39
0
 70
1
 66
1
  0
VERTEX
  8
0
 10
1306.30669079378
 20
140.26091735072316
 42
-1
  0
VERTEX
  8
0
 10
1305.7394606073549
 20
10.26215712733449
 42
-1
  0
SEQEND
  0
POLYLINE
  8
0
 10
0
 20
0
 39
0
 70
1
 66
1
  0
VERTEX
  8
0
 10
1306.1539749743579
 20
105.2612511367339
 42
1
  0
VERTEX
  8
0
 10
1305.892176426777
 20
45.261823341323748
 42
1
  0
SEQEND
  0
POLYLINE
  8
0
 10
0
 20
0
 39
0
 70
1
 66
1
  0
VERTEX
  8
0
 10
1323.5528446399337
 20
497.89937888918467
 42
-1
  0
VERTEX
  8
0
 10
1322.9856144535086
 20
367.900618665796
 42
-1
  0
SEQEND
  0
POLYLINE
  8
0
 10
0
 20
0
 39
0
 70
1
 66
1
  0
VERTEX
  8
0
 10
1323.4001288205116
 20
462.89971267519542
 42
1
  0
VERTEX
  8
0
 10
1323.1383302729307
 20
402.90028487978526
 42
1
  0
SEQEND
  0
POLYLINE
  8
0
 10
0
 20
0
 39
0
 70
1
 66
1
  0
VERTEX
  8
0
 10
1380.4066907937799
 20
769.59937888918466
 42
-1
  0
VERTEX
  8
0
 10
1379.8394606073548
 20
639.60061866579599
 42
-1
  0
SEQEND
  0
POLYLINE
  8
0
 10
0
 20
0
 39
0
 70
1
 66
1
  0
VERTEX
  8
0
 10
1380.2539749743578
 20
734.59971267519541
 42
1
  0
VERTEX
  8
0
 10
1379.992176426777
 20
674.60028487978525
 42
1
  0
SEQEND
  0
POLYLINE
  8
0
 10
0
 20
0
 39
0
 70
1
 66
1
  0
VERTEX
  8
0
 10
1636.6143831014722
 20
755.42245581226166
 42
-1
  0
VERTEX
  8
0
 10
1636.047152915047
 20
625.42369558887299
 42
-1
  0
SEQEND
  0
POLYLINE
  8
0
 10
0
 20
0
 39
0
 70
1
 66
1
  0
VERTEX
  8
0
 10
1636.46166728205
 20
720.4227895982724
 42
1
  0
VERTEX
  8
0
 10
1636.1998687344692
 20
660.42336180286225
 42
1
  0
SEQEND
  0
POLYLINE
  8
0
 10
0
 20
0
 39
0
 70
1
 66
1
  0
VERTEX
  8
0
 10
1659.5605369476261
 20
271.06860965841543
 42
-1
  0
VERTEX
  8
0
 10
1658.993306761201
 20
141.06984943502678
 42
-1
  0
SEQEND
  0
POLYLINE
  8
0
 10
0
 20
0
 39
0
 70
1
 66
1
  0
VERTEX
  8
0
 10
1659.407821128204
 20
236.0689434444262
 42
1
  0
VERTEX
  8
0
 10
1659.1460225806231
 20
176.06951564901604
 42
1
  0
SEQEND
  0
POLYLINE
  8
0
 10
0
 20
0
 39
0
 70
1
 66
1
  0
VERTEX
  8
0
 10
1790.3682292553183
 20
520.84553273533857
 42
-1
  0
VERTEX
  8
0
 10
1789.8009990688931
 20
390.84677251194989
 42
-1
  0
SEQEND
  0
POLYLINE
  8
0
 10
0
 20
0
 39
0
 70
1
 66
1
  0
VERTEX
  8
0
 10
1790.2155134358961
 20
485.84586652134931
 42
1
  0
VERTEX
  8
0
 10
1789.9537148883153
 20
425.84643872593915
 42
1
  0
SEQEND
  0
POLYLINE
  8
0
 10
0
 20
0
 39
0
 70
1
 66
1
  0
VERTEX
  8
0
 10
210.26153846153846
 20
830.47692307692307
 42
-0
  0
VERTEX
  8
0
 10
10.261538461538464
 20
830.47692307692307
 42
0
  0
VERTEX
  8
0
 10
10.261538461538464
 20
880.47692307692307
 42
0
  0
VERTEX
  8
0
 10
210.26153846153846
 20
880.47692307692307
 42
0
  0
SEQEND
  0
POLYLINE
  8
0
 10
0
 20
0
 39
0
 70
1
 66
1
  0
VERTEX
  8
0
 10
173.58821387657753
 20
855.47692307692307
 42
1
  0
VERTEX
  8
0
 10
143.58821387657753
 20
855.47692307692307
 42
1
  0
SEQEND
  0
POLYLINE
  8
0
 10
0
 20
0
 39
0
 70
1
 66
1
  0
VERTEX
  8
0
 10
614.96153846153845
 20
838.95384615384614
 42
-0
  0
VERTEX
  8
0
 10
414.96153846153845
 20
838.95384615384614
 42
0
  0
VERTEX
  8
0
 10
414.96153846153845
 20
888.95384615384614
 42
0
  0
VERTEX
  8
0
 10
614.96153846153845
 20
888.95384615384614
 42
0
  0
SEQEND
  0
POLYLINE
  8
0
 10
0
 20
0
 39
0
 70
1
 66
1
  0
VERTEX
  8
0
 10
578.28821387657752
 20
863.95384615384614
 42
1
  0
VERTEX
  8
0
 10
548.28821387657752
 20
863.95384615384614
 42
1
  0
SEQEND
  0
POLYLINE
  8
0
 10
0
 20
0
 39
0
 70
1
 66
1
  0
VERTEX
  8
0
 10
1030.7692307692309
 20
420.3692307692308
 42
-0
  0
VERTEX
  8
0
 10
830.76923076923094
 20
420.3692307692308
 42
0
  0
VERTEX
  8
0
 10
830.76923076923094
 20
470.3692307692308
 42
0
  0
VERTEX
  8
0
 10
1030.7692307692309
 20
470.3692307692308
 42
0
  0
SEQEND
  0
POLYLINE
  8
0
 10
0
 20
0
 39
0
 70
1
 66
1
  0
VERTEX
  8
0
 10
994.09590618427001
 20
445.3692307692308
 42
1
  0
VERTEX
  8
0
 10
964.09590618427001
 20
445.3692307692308
 42
1
  0
SEQEND
  0
POLYLINE
  8
0
 10
0
 20
0
 39
0
 70
1
 66
1
  0
VERTEX
  8
0
 10
1381.1846153846154
 20
10.261538461538461
 42
-0
  0
VERTEX
  8
0
 10
1381.1846153846154
 20
210.26153846153846
 42
0
  0
VERTEX
  8
0
 10
1431.1846153846154
 20
210.26153846153846
 42
0
  0
VERTEX
  8
0
 10
1431.1846153846154
 20
10.261538461538466
 42
0
  0
SEQEND
  0
POLYLINE
  8
0
 10
0
 20
0
 39
0
 70
1
 66
1
  0
VERTEX
  8
0
 10
1406.1846153846154
 20
46.934863046499402
 42
1
  0
VERTEX
  8
0
 10
1406.1846153846154
 20
76.934863046499402
 42
1
  0
SEQEND
  0
POLYLINE
  8
0
 10
0
 20
0
 39
0
 70
1
 66
1
  0
VERTEX
  8
0
 10
404.46923076923076
 20
360.30000000000001
 42
-0
  0
VERTEX
  8
0
 10
304.46923076923076
 20
360.30000000000001
 42
0
  0
VERTEX
  8
0
 10
304.46923076923076
 20
410.30000000000001
 42
0
  0
VERTEX
  8
0
 10
404.46923076923076
 20
410.30000000000001
 42
0
  0
SEQEND
  0
POLYLINE
  8
0
 10
0
 20
0
 39
0
 70
1
 66
1
  0
VERTEX
  8
0
 10
384.06316768939678
 20
385.30000000000001
 42
-0
  0
VERTEX
  8
0
 10
384.06316768939678
 20
398.30000000000001
 42
-0
  0
VERTEX
  8
0
 10
324.87529003436748
 20
398.30000000000001
 42
0
  0
VERTEX
  8
0
 10
324.87529003436748
 20
385.30000000000001
 42
0
  0
VERTEX
  8
0
 10
324.87529003436748
 20
372.30000000000001
 42
0
  0
VERTEX
  8
0
 10
384.06316768939678
 20
372.30000000000001
 42
0
  0
SEQEND
  0
POLYLINE
  8
0
 10
0
 20
0
 39
0
 70
1
 66
1
  0
VERTEX
  8
0
 10
814.72307692307697
 20
360.30000000000001
 42
-0
  0
VERTEX
  8
0
 10
714.72307692307697
 20
360.30000000000001
 42
0
  0
VERTEX
  8
0
 10
714.72307692307697
 20
410.30000000000001
 42
0
  0
VERTEX
  8
0
 10
814.72307692307697
 20
410.30000000000001
 42
0
  0
SEQEND
  0
POLYLINE
  8
0
 10
0
 20
0
 39
0
 70
1
 66
1
  0
VERTEX
  8
0
 10
794.31701384324299
 20
385.30000000000001
 42
-0
  0
VERTEX
  8
0
 10
794.31701384324299
 20
398.30000000000001
 42
-0
  0
VERTEX
  8
0
 10
735.12913618821369
 20
398.30000000000001
 42
0
  0
VERTEX
  8
0
 10
735.12913618821369
 20
385.30000000000001
 42
0
  0
VERTEX
  8
0
 10
735.12913618821369
 20
372.30000000000001
 42
0
  0
VERTEX
  8
0
 10
794.31701384324299
 20
372.30000000000001
 42
0
  0
SEQEND
  0
POLYLINE
  8
0
 10
0
 20
0
 39
0
 70
1
 66
1
  0
VERTEX
  8
0
 10
1341.023076923077
 20
150.27692307692308
 42
-0
  0
VERTEX
  8
0
 10
1241.023076923077
 20
150.27692307692308
 42
0
  0
VERTEX
  8
0
 10
1241.023076923077
 20
200.27692307692308
 42
0
  0
VERTEX
  8
0
 10
1341.023076923077
 20
200.27692307692308
 42
0
  0
SEQEND
  0
POLYLINE
  8
0
 10
0
 20
0
 39
0
 70
1
 66
1
  0
VERTEX
  8
0
 10
1320.6170138432431
 20
175.27692307692308
 42
-0
  0
VERTEX
  8
0
 10
1320.6170138432431
 20
188.27692307692308
 42
-0
  0
VERTEX
  8
0
 10
1261.4291361882138
 20
188.27692307692308
 42
0
  0
VERTEX
  8
0
 10
1261.4291361882138
 20
175.27692307692308
 42
0
  0
VERTEX
  8
0
 10
1261.4291361882138
 20
162.27692307692308
 42
0
  0
VERTEX
  8
0
 10
1320.6170138432431
 20
162.27692307692308
 42
0
  0
SEQEND
  0
POLYLINE
  8
0
 10
0
 20
0
 39
0
 70
1
 66
1
  0
VERTEX
  8
0
 10
1406.176923076923
 20
775.37692307692305
 42
-0
  0
VERTEX
  8
0
 10
1406.176923076923
 20
875.37692307692305
 42
0
  0
VERTEX
  8
0
 10
1456.176923076923
 20
875.37692307692305
 42
0
  0
VERTEX
  8
0
 10
1456.176923076923
 20
775.37692307692305
 42
0
  0
SEQEND
  0
POLYLINE
  8
0
 10
0
 20
0
 39
0
 70
1
 66
1
  0
VERTEX
  8
0
 10
1431.176923076923
 20
795.78298615675703
 42
-0
  0
VERTEX
  8
0
 10
1444.176923076923
 20
795.78298615675703
 42
-0
  0
VERTEX
  8
0
 10
1444.176923076923
 20
854.97086381178633
 42
0
  0
VERTEX
  8
0
 10
1431.176923076923
 20
854.97086381178633
 42
0
  0
VERTEX
  8
0
 10
1418.176923076923
 20
854.97086381178633
 42
0
  0
VERTEX
  8
0
 10
1418.176923076923
 20
795.78298615675703
 42
0
  0
SEQEND
  0
POLYLINE
  8
0
 10
0
 20
0
 39
0
 70
1
 66
1
  0
VERTEX
  8
0
 10
1441.4000000000001
 20
10.261538461538461
 42
-0
  0
VERTEX
  8
0
 10
1441.4000000000001
 20
110.26153846153846
 42
0
  0
VERTEX
  8
0
 10
1491.4000000000001
 20
110.26153846153846
 42
0
  0
VERTEX
  8
0
 10
1491.4000000000001
 20
10.261538461538466
 42
0
  0
SEQEND
  0
POLYLINE
  8
0
 10
0
 20
0
 39
0
 70
1
 66
1
  0
VERTEX
  8
0
 10
1466.4000000000001
 20
30.667601541372445
 42
-0
  0
VERTEX
  8
0
 10
1479.4000000000001
 20
30.667601541372449
 42
-0
  0
VERTEX
  8
0
 10
1479.4000000000001
 20
89.855479196401745
 42
0
  0
VERTEX
  8
0
 10
1466.4000000000001
 20
89.855479196401745
 42
0
  0
VERTEX
  8
0
 10
1453.4000000000001
 20
89.855479196401745
 42
0
  0
VERTEX
  8
0
 10
1453.4000000000001
 20
30.667601541372445
 42
0
  0
SEQEND
  0
POLYLINE
  8
0
 10
0
 20
0
 39
0
 70
1
 66
1
  0
VERTEX
  8
0
 10
1648.0923076923077
 20
413.7923076923077
 42
-0
  0
VERTEX
  8
0
 10
1548.0923076923077
 20
413.7923076923077
 42
0
  0
VERTEX
  8
0
 10
1548.0923076923077
 20
463.7923076923077
 42
0
  0
VERTEX
  8
0
 10
1648.0923076923077
 20
463.7923076923077
 42
0
  0
SEQEND
  0
POLYLINE
  8
0
 10
0
 20
0
 39
0
 70
1
 66
1
  0
VERTEX
  8
0
 10
1627.6862446124737
 20
438.7923076923077
 42
-0
  0
VERTEX
  8
0
 10
1627.6862446124737
 20
451.7923076923077
 42
-0
  0
VERTEX
  8
0
 10
1568.4983669574444
 20
451.7923076923077
 42
0
  0
VERTEX
  8
0
 10
1568.4983669574444
 20
438.7923076923077
 42
0
  0
VERTEX
  8
0
 10
1568.4983669574444
 20
425.7923076923077
 42
0
  0
VERTEX
  8
0
 10
1627.6862446124737
 20
425.7923076923077
 42
0
  0
SEQEND
  0
POLYLINE
  8
0
 10
0
 20
0
 39
0
 70
1
 66
1
  0
VERTEX
  8
0
 10
1837.0384615384617
 20
789.55384615384617
 42
-0
  0
VERTEX
  8
0
 10
1837.0384615384617
 20
889.55384615384617
 42
0
  0
VERTEX
  8
0
 10
1887.0384615384617
 20
889.55384615384617
 42
0
  0
VERTEX
  8
0
 10
1887.0384615384617
 20
789.55384615384617
 42
0
  0
SEQEND
  0
POLYLINE
  8
0
 10
0
 20
0
 39
0
 70
1
 66
1
  0
VERTEX
  8
0
 10
1862.0384615384617
 20
809.95990923368015
 42
-0
  0
VERTEX
  8
0
 10
1875.0384615384617
 20
809.95990923368015
 42
-0
  0
VERTEX
  8
0
 10
1875.0384615384617
 20
869.14778688870945
 42
0
  0
VERTEX
  8
0
 10
1862.0384615384617
 20
869.14778688870945
 42
0
  0
VERTEX
  8
0
 10
1849.0384615384617
 20
869.14778688870945
 42
0
  0
VERTEX
  8
0
 10
1849.0384615384617
 20
809.95990923368015
 42
0
  0
SEQEND
  0
POLYLINE
  8
0
 10
0
 20
0
 39
0
 70
1
 66
1
  0
VERTEX
  8
0
 10
168.4672273904107
 20
130.65288461538148
 42
-0.76732701063156128
  0
VERTEX
  8
0
 10
168.4662508279107
 20
183.77788461538148
 42
0
  0
VERTEX
  8
0
 10
210.5844148904107
 20
192.21343149038148
 42
0
  0
VERTEX
  8
0
 10
210.5844148904107
 20
122.21538461538148
 42
0
  0
SEQEND
  0
POLYLINE
  8
0
 10
0
 20
0
 39
0
 70
1
 66
1
  0
VERTEX
  8
0
 10
175.5844148904107
 20
172.21538461538148
 42
1
  0
VERTEX
  8
0
 10
175.5844148904107
 20
142.21538461538148
 42
1
  0
SEQEND
  0
POLYLINE
  8
0
 10
0
 20
0
 39
0
 70
1
 66
1
  0
VERTEX
  8
0
 10
168.4672273904107
 20
540.76057692307222
 42
-0.76732701063156128
  0
VERTEX
  8
0
 10
168.4662508279107
 20
593.88557692307222
 42
0
  0
VERTEX
  8
0
 10
210.5844148904107
 20
602.32112379807222
 42
0
  0
VERTEX
  8
0
 10
210.5844148904107
 20
532.32307692307222
 42
0
  0
SEQEND
  0
POLYLINE
  8
0
 10
0
 20
0
 39
0
 70
1
 66
1
  0
VERTEX
  8
0
 10
175.5844148904107
 20
582.32307692307222
 42
1
  0
VERTEX
  8
0
 10
175.5844148904107
 20
552.32307692307222
 42
1
  0
SEQEND
  0
POLYLINE
  8
0
 10
0
 20
0
 39
0
 70
1
 66
1
  0
VERTEX
  8
0
 10
578.7210735442568
 20
130.65288461538148
 42
-0.76732701063156128
  0
VERTEX
  8
0
 10
578.7200969817568
 20
183.77788461538148
 42
0
  0
VERTEX
  8
0
 10
620.8382610442568
 20
192.21343149038148
 42
0
  0
VERTEX
  8
0
 10
620.8382610442568
 20
122.21538461538148
 42
0
  0
SEQEND
  0
POLYLINE
  8
0
 10
0
 20
0
 39
0
 70
1
 66
1
  0
VERTEX
  8
0
 10
585.8382610442568
 20
172.21538461538148
 42
1
  0
VERTEX
  8
0
 10
585.8382610442568
 20
142.21538461538148
 42
1
  0
SEQEND
  0
POLYLINE
  8
0
 10
0
 20
0
 39
0
 70
1
 66
1
  0
VERTEX
  8
0
 10
578.7210735442568
 20
540.76057692307222
 42
-0.76732701063156128
  0
VERTEX
  8
0
 10
578.7200969817568
 20
593.88557692307222
 42
0
  0
VERTEX
  8
0
 10
620.8382610442568
 20
602.32112379807222
 42
0
  0
VERTEX
  8
0
 10
620.8382610442568
 20
532.32307692307222
 42
0
  0
SEQEND
  0
POLYLINE
  8
0
 10
0
 20
0
 39
0
 70
1
 66
1
  0
VERTEX
  8
0
 10
585.8382610442568
 20
582.32307692307222
 42
1
  0
VERTEX
  8
0
 10
585.8382610442568
 20
552.32307692307222
 42
1
  0
SEQEND
  0
POLYLINE
  8
0
 10
0
 20
0
 39
0
 70
1
 66
1
  0
VERTEX
  8
0
 10
876.39900841346025
 20
847.20568892887422
 42
-0.76732701063156128
  0
VERTEX
  8
0
 10
823.27400841346025
 20
847.20471236637422
 42
0
  0
VERTEX
  8
0
 10
814.83846153846025
 20
889.32287642887422
 42
0
  0
VERTEX
  8
0
 10
884.83650841346025
 20
889.32287642887422
 42
0
  0
SEQEND
  0
POLYLINE
  8
0
 10
0
 20
0
 39
0
 70
1
 66
1
  0
VERTEX
  8
0
 10
834.83650841346025
 20
854.32287642887422
 42
1
  0
VERTEX
  8
0
 10
864.83650841346025
 20
854.32287642887422
 42
1
  0
SEQEND
  0
POLYLINE
  8
0
 10
0
 20
0
 39
0
 70
1
 66
1
  0
VERTEX
  8
0
 10
872.88641826923049
 20
541.99900841346243
 42
-0.76732701063156128
  0
VERTEX
  8
0
 10
872.88739483173049
 20
488.87400841346243
 42
0
  0
VERTEX
  8
0
 10
830.76923076923049
 20
480.43846153846243
 42
0
  0
VERTEX
  8
0
 10
830.76923076923049
 20
550.43650841346243
 42
0
  0
SEQEND
  0
POLYLINE
  8
0
 10
0
 20
0
 39
0
 70
1
 66
1
  0
VERTEX
  8
0
 10
865.76923076923049
 20
500.43650841346243
 42
1
  0
VERTEX
  8
0
 10
865.76923076923049
 20
530.43650841346243
 42
1
  0
SEQEND
  0
POLYLINE
  8
0
 10
0
 20
0
 39
0
 70
1
 66
1
  0
VERTEX
  8
0
 10
988.97491969810289
 20
130.65288461538148
 42
-0.76732701063156128
  0
VERTEX
  8
0
 10
988.97394313560289
 20
183.77788461538148
 42
0
  0
VERTEX
  8
0
 10
1031.0921071981029
 20
192.21343149038148
 42
0
  0
VERTEX
  8
0
 10
1031.0921071981029
 20
122.21538461538148
 42
0
  0
SEQEND
  0
POLYLINE
  8
0
 10
0
 20
0
 39
0
 70
1
 66
1
  0
VERTEX
  8
0
 10
996.09210719810289
 20
172.21538461538148
 42
1
  0
VERTEX
  8
0
 10
996.09210719810289
 20
142.21538461538148
 42
1
  0
SEQEND
  0
POLYLINE
  8
0
 10
0
 20
0
 39
0
 70
1
 66
1
  0
VERTEX
  8
0
 10
1061.3210735442553
 20
417.84519230769001
 42
-0.76732701063156128
  0
VERTEX
  8
0
 10
1061.3200969817553
 20
470.97019230769001
 42
0
  0
VERTEX
  8
0
 10
1103.4382610442553
 20
479.40573918269001
 42
0
  0
VERTEX
  8
0
 10
1103.4382610442553
 20
409.40769230769001
 42
0
  0
SEQEND
  0
POLYLINE
  8
0
 10
0
 20
0
 39
0
 70
1
 66
1
  0
VERTEX
  8
0
 10
1068.4382610442553
 20
459.40769230769001
 42
1
  0
VERTEX
  8
0
 10
1068.4382610442553
 20
429.40769230769001
 42
1
  0
SEQEND
  0
POLYLINE
  8
0
 10
0
 20
0
 39
0
 70
1
 66
1
  0
VERTEX
  8
0
 10
1248.3979966211791
 20
789.22211538461124
 42
-0.76732701063156128
  0
VERTEX
  8
0
 10
1248.3970200586791
 20
842.34711538461124
 42
0
  0
VERTEX
  8
0
 10
1290.5151841211791
 20
850.78266225961124
 42
0
  0
VERTEX
  8
0
 10
1290.5151841211791
 20
780.78461538461124
 42
0
  0
SEQEND
  0
POLYLINE
  8
0
 10
0
 20
0
 39
0
 70
1
 66
1
  0
VERTEX
  8
0
 10
1255.5151841211791
 20
830.78461538461124
 42
1
  0
VERTEX
  8
0
 10
1255.5151841211791
 20
800.78461538461124
 42
1
  0
SEQEND
  0
ENDSEC
  0
EOF
