  0
SECTION
  2
ENTITIES
  0
POLYLINE
  8
0
 10
0
 20
0
 39
0
 70
1
 66
1
  0
VERTEX
  8
0
 10
0
 20
0
 42
-0
  0
VERTEX
  8
0
 10
1500
 20
0
 42
-0
  0
VERTEX
  8
0
 10
1500
 20
800
 42
-0
  0
VERTEX
  8
0
 10
0
 20
800
 42
-0
  0
SEQEND
  0
POLYLINE
  8
0
 10
0
 20
0
 39
0
 70
1
 66
1
  0
VERTEX
  8
0
 10
410.19232177734375
 20
65.976211547851563
 42
-0
  0
VERTEX
  8
0
 10
410.19232177734375
 20
420.97622680664062
 42
-0
  0
VERTEX
  8
0
 10
10.192307472229004
 20
420.97622680664062
 42
-0
  0
VERTEX
  8
0
 10
10.192307472229004
 20
65.976211547851563
 42
0
  0
VERTEX
  8
0
 10
210.19230651855469
 20
10.192307472229004
 42
0
  0
SEQEND
  0
POLYLINE
  8
0
 10
0
 20
0
 39
0
 70
1
 66
1
  0
VERTEX
  8
0
 10
370.19232177734375
 20
379.92294311523437
 42
-0
  0
VERTEX
  8
0
 10
370.19232177734375
 20
108.92292022705078
 42
-1
  0
VERTEX
  8
0
 10
330.19232177734375
 20
108.92292022705078
 42
1
  0
VERTEX
  8
0
 10
290.19232177734375
 20
108.92292022705078
 42
-1
  0
VERTEX
  8
0
 10
250.19230651855469
 20
108.92292022705078
 42
-0
  0
VERTEX
  8
0
 10
170.19230651855469
 20
108.92292022705078
 42
-1
  0
VERTEX
  8
0
 10
130.19230651855469
 20
108.92292022705078
 42
1
  0
VERTEX
  8
0
 10
90.192306518554688
 20
108.92292022705078
 42
-1
  0
VERTEX
  8
0
 10
50.192306518554688
 20
108.92292022705078
 42
0
  0
VERTEX
  8
0
 10
50.192306518554688
 20
379.92294311523437
 42
0
  0
SEQEND
  0
POLYLINE
  8
0
 10
0
 20
0
 39
0
 70
1
 66
1
  0
VERTEX
  8
0
 10
429.66851806640625
 20
389.69232177734375
 42
-0
  0
VERTEX
  8
0
 10
784.66851806640625
 20
389.69232177734375
 42
-0
  0
VERTEX
  8
0
 10
784.66851806640625
 20
789.69232177734375
 42
-0
  0
VERTEX
  8
0
 10
429.66851806640625
 20
789.69232177734375
 42
0
  0
VERTEX
  8
0
 10
373.88461303710937
 20
589.69232177734375
 42
0
  0
SEQEND
  0
POLYLINE
  8
0
 10
0
 20
0
 39
0
 70
1
 66
1
  0
VERTEX
  8
0
 10
743.615234375
 20
429.69232177734375
 42
-0
  0
VERTEX
  8
0
 10
472.615234375
 20
429.69232177734375
 42
-1
  0
VERTEX
  8
0
 10
472.615234375
 20
469.69232177734375
 42
1
  0
VERTEX
  8
0
 10
472.615234375
 20
509.69232177734375
 42
-1
  0
VERTEX
  8
0
 10
472.615234375
 20
549.69232177734375
 42
-0
  0
VERTEX
  8
0
 10
472.615234375
 20
629.69232177734375
 42
-1
  0
VERTEX
  8
0
 10
472.615234375
 20
669.69232177734375
 42
1
  0
VERTEX
  8
0
 10
472.615234375
 20
709.69232177734375
 42
-1
  0
VERTEX
  8
0
 10
472.615234375
 20
749.69232177734375
 42
0
  0
VERTEX
  8
0
 10
743.615234375
 20
749.69232177734375
 42
0
  0
SEQEND
  0
POLYLINE
  8
0
 10
0
 20
0
 39
0
 70
1
 66
1
  0
VERTEX
  8
0
 10
735.3846435546875
 20
365.19232177734375
 42
-0
  0
VERTEX
  8
0
 10
735.3846435546875
 20
10.192307472229004
 42
-0
  0
VERTEX
  8
0
 10
1135.3846435546875
 20
10.192307472229004
 42
-0
  0
VERTEX
  8
0
 10
1135.3846435546875
 20
365.19232177734375
 42
0
  0
VERTEX
  8
0
 10
935.3846435546875
 20
420.97622680664062
 42
0
  0
SEQEND
  0
POLYLINE
  8
0
 10
0
 20
0
 39
0
 70
1
 66
1
  0
VERTEX
  8
0
 10
775.3846435546875
 20
51.245590209960938
 42
-0
  0
VERTEX
  8
0
 10
775.3846435546875
 20
322.24560546875
 42
-1
  0
VERTEX
  8
0
 10
815.3846435546875
 20
322.24560546875
 42
1
  0
VERTEX
  8
0
 10
855.3846435546875
 20
322.24560546875
 42
-1
  0
VERTEX
  8
0
 10
895.3846435546875
 20
322.24560546875
 42
-0
  0
VERTEX
  8
0
 10
975.3846435546875
 20
322.24560546875
 42
-1
  0
VERTEX
  8
0
 10
1015.3846435546875
 20
322.24560546875
 42
1
  0
VERTEX
  8
0
 10
1055.3846435546875
 20
322.24560546875
 42
-1
  0
VERTEX
  8
0
 10
1095.3846435546875
 20
322.24560546875
 42
0
  0
VERTEX
  8
0
 10
1095.3846435546875
 20
51.245590209960938
 42
0
  0
SEQEND
  0
POLYLINE
  8
0
 10
0
 20
0
 39
0
 70
1
 66
1
  0
VERTEX
  8
0
 10
1324.5
 20
434.74545288085937
 42
-0
  0
VERTEX
  8
0
 10
1324.5
 20
789.74542236328125
 42
-0
  0
VERTEX
  8
0
 10
924.5
 20
789.74542236328125
 42
-0
  0
VERTEX
  8
0
 10
924.5
 20
434.74545288085937
 42
0
  0
VERTEX
  8
0
 10
1124.5
 20
378.9615478515625
 42
0
  0
SEQEND
  0
POLYLINE
  8
0
 10
0
 20
0
 39
0
 70
1
 66
1
  0
VERTEX
  8
0
 10
1284.5
 20
748.692138671875
 42
-0
  0
VERTEX
  8
0
 10
1284.5
 20
477.692138671875
 42
-1
  0
VERTEX
  8
0
 10
1244.5
 20
477.692138671875
 42
1
  0
VERTEX
  8
0
 10
1204.5
 20
477.692138671875
 42
-1
  0
VERTEX
  8
0
 10
1164.5
 20
477.692138671875
 42
-0
  0
VERTEX
  8
0
 10
1084.5
 20
477.692138671875
 42
-1
  0
VERTEX
  8
0
 10
1044.5
 20
477.692138671875
 42
1
  0
VERTEX
  8
0
 10
1004.5
 20
477.692138671875
 42
-1
  0
VERTEX
  8
0
 10
964.5
 20
477.692138671875
 42
0
  0
VERTEX
  8
0
 10
964.5
 20
748.692138671875
 42
0
  0
SEQEND
  0
POLYLINE
  8
0
 10
0
 20
0
 39
0
 70
1
 66
1
  0
VERTEX
  8
0
 10
128.20500183105469
 20
665.9989013671875
 42
1
  0
VERTEX
  8
0
 10
127.17961883544922
 20
431.00112915039063
 42
1
  0
SEQEND
  0
POLYLINE
  8
0
 10
0
 20
0
 39
0
 70
1
 66
1
  0
VERTEX
  8
0
 10
128.04136657714844
 20
628.49920654296875
 42
-0
  0
VERTEX
  8
0
 10
189.38711547851562
 20
588.231201171875
 42
0
  0
VERTEX
  8
0
 10
189.03805541992187
 20
508.23193359375
 42
0
  0
VERTEX
  8
0
 10
127.34323883056641
 20
468.50076293945312
 42
-0
  0
VERTEX
  8
0
 10
65.997482299804688
 20
508.768798828125
 42
0
  0
VERTEX
  8
0
 10
66.346549987792969
 20
588.76806640625
 42
0
  0
SEQEND
  0
POLYLINE
  8
0
 10
0
 20
0
 39
0
 70
1
 66
1
  0
VERTEX
  8
0
 10
178.39730834960937
 20
357.92196655273437
 42
1
  0
VERTEX
  8
0
 10
177.37191772460937
 20
122.9241943359375
 42
1
  0
SEQEND
  0
POLYLINE
  8
0
 10
0
 20
0
 39
0
 70
1
 66
1
  0
VERTEX
  8
0
 10
178.23367309570312
 20
320.42230224609375
 42
-0
  0
VERTEX
  8
0
 10
239.57942199707031
 20
280.15426635742187
 42
0
  0
VERTEX
  8
0
 10
239.23036193847656
 20
200.155029296875
 42
0
  0
VERTEX
  8
0
 10
177.53555297851562
 20
160.42384338378906
 42
-0
  0
VERTEX
  8
0
 10
116.18979644775391
 20
200.69189453125
 42
0
  0
VERTEX
  8
0
 10
116.53885650634766
 20
280.69113159179687
 42
0
  0
SEQEND
  0
POLYLINE
  8
0
 10
0
 20
0
 39
0
 70
1
 66
1
  0
VERTEX
  8
0
 10
538.39727783203125
 20
245.19117736816406
 42
1
  0
VERTEX
  8
0
 10
537.3719482421875
 20
10.193426132202148
 42
1
  0
SEQEND
  0
POLYLINE
  8
0
 10
0
 20
0
 39
0
 70
1
 66
1
  0
VERTEX
  8
0
 10
538.23370361328125
 20
207.69154357910156
 42
-0
  0
VERTEX
  8
0
 10
599.57940673828125
 20
167.42349243164062
 42
0
  0
VERTEX
  8
0
 10
599.2303466796875
 20
87.42425537109375
 42
0
  0
VERTEX
  8
0
 10
537.5355224609375
 20
47.693069458007812
 42
-0
  0
VERTEX
  8
0
 10
476.18978881835937
 20
87.96112060546875
 42
0
  0
VERTEX
  8
0
 10
476.53884887695312
 20
167.96035766601562
 42
0
  0
SEQEND
  0
POLYLINE
  8
0
 10
0
 20
0
 39
0
 70
1
 66
1
  0
VERTEX
  8
0
 10
717.80657958984375
 20
563.67962646484375
 42
1
  0
VERTEX
  8
0
 10
482.80880737304687
 20
564.70501708984375
 42
1
  0
SEQEND
  0
POLYLINE
  8
0
 10
0
 20
0
 39
0
 70
1
 66
1
  0
VERTEX
  8
0
 10
680.30694580078125
 20
563.84326171875
 42
-0
  0
VERTEX
  8
0
 10
640.03887939453125
 20
502.49749755859375
 42
0
  0
VERTEX
  8
0
 10
560.03961181640625
 20
502.8465576171875
 42
0
  0
VERTEX
  8
0
 10
520.3084716796875
 20
564.5413818359375
 42
-0
  0
VERTEX
  8
0
 10
560.57647705078125
 20
625.88714599609375
 42
0
  0
VERTEX
  8
0
 10
640.57574462890625
 20
625.5380859375
 42
0
  0
SEQEND
  0
POLYLINE
  8
0
 10
0
 20
0
 39
0
 70
1
 66
1
  0
VERTEX
  8
0
 10
903.589599609375
 20
296.42196655273438
 42
1
  0
VERTEX
  8
0
 10
902.564208984375
 20
61.4241943359375
 42
1
  0
SEQEND
  0
POLYLINE
  8
0
 10
0
 20
0
 39
0
 70
1
 66
1
  0
VERTEX
  8
0
 10
903.42596435546875
 20
258.92230224609375
 42
-0
  0
VERTEX
  8
0
 10
964.771728515625
 20
218.65426635742187
 42
0
  0
VERTEX
  8
0
 10
964.42266845703125
 20
138.655029296875
 42
0
  0
VERTEX
  8
0
 10
902.72784423828125
 20
98.923835754394531
 42
-0
  0
VERTEX
  8
0
 10
841.382080078125
 20
139.19189453125
 42
0
  0
VERTEX
  8
0
 10
841.73114013671875
 20
219.19113159179687
 42
0
  0
SEQEND
  0
POLYLINE
  8
0
 10
0
 20
0
 39
0
 70
1
 66
1
  0
VERTEX
  8
0
 10
1092.7049560546875
 20
726.691162109375
 42
1
  0
VERTEX
  8
0
 10
1091.6795654296875
 20
491.69342041015625
 42
1
  0
SEQEND
  0
POLYLINE
  8
0
 10
0
 20
0
 39
0
 70
1
 66
1
  0
VERTEX
  8
0
 10
1092.5413818359375
 20
689.1915283203125
 42
-0
  0
VERTEX
  8
0
 10
1153.8870849609375
 20
648.9234619140625
 42
0
  0
VERTEX
  8
0
 10
1153.5380859375
 20
568.92425537109375
 42
0
  0
VERTEX
  8
0
 10
1091.84326171875
 20
529.19305419921875
 42
-0
  0
VERTEX
  8
0
 10
1030.4974365234375
 20
569.46112060546875
 42
0
  0
VERTEX
  8
0
 10
1030.8465576171875
 20
649.46038818359375
 42
0
  0
SEQEND
  0
POLYLINE
  8
0
 10
0
 20
0
 39
0
 70
1
 66
1
  0
VERTEX
  8
0
 10
1332.15380859375
 20
40.192306518554688
 42
1
  0
VERTEX
  8
0
 10
1392.15380859375
 20
40.192306518554688
 42
0
  0
VERTEX
  8
0
 10
1392.15380859375
 20
420.19232177734375
 42
1
  0
VERTEX
  8
0
 10
1332.15380859375
 20
420.19232177734375
 42
0
  0
SEQEND
  0
POLYLINE
  8
0
 10
0
 20
0
 39
0
 70
1
 66
1
  0
VERTEX
  8
0
 10
1372.15380859375
 20
40.192306518554688
 42
-1
  0
VERTEX
  8
0
 10
1352.15380859375
 20
40.192306518554688
 42
-0
  0
VERTEX
  8
0
 10
1352.15380859375
 20
420.19232177734375
 42
-1
  0
VERTEX
  8
0
 10
1372.15380859375
 20
420.19232177734375
 42
0
  0
SEQEND
  0
POLYLINE
  8
0
 10
0
 20
0
 39
0
 70
1
 66
1
  0
VERTEX
  8
0
 10
1402.3077392578125
 20
40.192306518554688
 42
1
  0
VERTEX
  8
0
 10
1462.3077392578125
 20
40.192306518554688
 42
0
  0
VERTEX
  8
0
 10
1462.3077392578125
 20
420.19232177734375
 42
1
  0
VERTEX
  8
0
 10
1402.3077392578125
 20
420.19232177734375
 42
0
  0
SEQEND
  0
POLYLINE
  8
0
 10
0
 20
0
 39
0
 70
1
 66
1
  0
VERTEX
  8
0
 10
1442.3077392578125
 20
40.192306518554688
 42
-1
  0
VERTEX
  8
0
 10
1422.3077392578125
 20
40.192306518554688
 42
-0
  0
VERTEX
  8
0
 10
1422.3077392578125
 20
420.19232177734375
 42
-1
  0
VERTEX
  8
0
 10
1442.3077392578125
 20
420.19232177734375
 42
0
  0
SEQEND
  0
POLYLINE
  8
0
 10
0
 20
0
 39
0
 70
1
 66
1
  0
VERTEX
  8
0
 10
57.397380828857422
 20
755.53802490234375
 42
1
  0
VERTEX
  8
0
 10
56.987232208251953
 20
661.53887939453125
 42
1
  0
SEQEND
  0
POLYLINE
  8
0
 10
0
 20
0
 39
0
 70
1
 66
1
  0
VERTEX
  8
0
 10
51.582511901855469
 20
694.626953125
 42
-0.20607383549213409
  0
VERTEX
  8
0
 10
43.232376098632813
 20
703.05029296875
 42
-0
  0
VERTEX
  8
0
 10
25.232547760009766
 20
703.12884521484375
 42
0
  0
VERTEX
  8
0
 10
25.280971527099609
 20
714.226806640625
 42
0
  0
VERTEX
  8
0
 10
43.280799865722656
 20
714.14825439453125
 42
-0.20607383549213409
  0
VERTEX
  8
0
 10
51.704124450683594
 20
722.4984130859375
 42
-0
  0
VERTEX
  8
0
 10
51.782665252685547
 20
740.49822998046875
 42
0
  0
VERTEX
  8
0
 10
62.880657196044922
 20
740.44976806640625
 42
0
  0
VERTEX
  8
0
 10
62.802116394042969
 20
722.449951171875
 42
-0.20607383549213409
  0
VERTEX
  8
0
 10
71.152252197265625
 20
714.02667236328125
 42
-0
  0
VERTEX
  8
0
 10
89.152084350585937
 20
713.9481201171875
 42
0
  0
VERTEX
  8
0
 10
89.103660583496094
 20
702.85009765625
 42
0
  0
VERTEX
  8
0
 10
71.103828430175781
 20
702.92864990234375
 42
-0.20607383549213409
  0
VERTEX
  8
0
 10
62.680503845214844
 20
694.5784912109375
 42
-0
  0
VERTEX
  8
0
 10
62.601963043212891
 20
676.57867431640625
 42
0
  0
VERTEX
  8
0
 10
51.503971099853516
 20
676.62713623046875
 42
0
  0
SEQEND
  0
POLYLINE
  8
0
 10
0
 20
0
 39
0
 70
1
 66
1
  0
VERTEX
  8
0
 10
123.51276397705078
 20
586.7303466796875
 42
1
  0
VERTEX
  8
0
 10
123.10261535644531
 20
492.73123168945312
 42
1
  0
SEQEND
  0
POLYLINE
  8
0
 10
0
 20
0
 39
0
 70
1
 66
1
  0
VERTEX
  8
0
 10
117.69789886474609
 20
525.81927490234375
 42
-0.20607383549213409
  0
VERTEX
  8
0
 10
109.34776306152344
 20
534.24261474609375
 42
-0
  0
VERTEX
  8
0
 10
91.347930908203125
 20
534.32110595703125
 42
0
  0
VERTEX
  8
0
 10
91.396354675292969
 20
545.41912841796875
 42
0
  0
VERTEX
  8
0
 10
109.39618682861328
 20
545.340576171875
 42
-0.20607383549213409
  0
VERTEX
  8
0
 10
117.81951141357422
 20
553.690673828125
 42
-0
  0
VERTEX
  8
0
 10
117.89804840087891
 20
571.6905517578125
 42
0
  0
VERTEX
  8
0
 10
128.99604797363281
 20
571.64208984375
 42
0
  0
VERTEX
  8
0
 10
128.91749572753906
 20
553.64227294921875
 42
-0.20607383549213409
  0
VERTEX
  8
0
 10
137.26763916015625
 20
545.21893310546875
 42
-0
  0
VERTEX
  8
0
 10
155.26747131347656
 20
545.140380859375
 42
0
  0
VERTEX
  8
0
 10
155.21903991699219
 20
534.04241943359375
 42
0
  0
VERTEX
  8
0
 10
137.21920776367187
 20
534.1209716796875
 42
-0.20607383549213409
  0
VERTEX
  8
0
 10
128.79588317871094
 20
525.77081298828125
 42
-0
  0
VERTEX
  8
0
 10
128.71734619140625
 20
507.77099609375
 42
0
  0
VERTEX
  8
0
 10
117.61935424804687
 20
507.81942749023437
 42
0
  0
SEQEND
  0
POLYLINE
  8
0
 10
0
 20
0
 39
0
 70
1
 66
1
  0
VERTEX
  8
0
 10
156.05122375488281
 20
789.57647705078125
 42
1
  0
VERTEX
  8
0
 10
155.64108276367187
 20
695.577392578125
 42
1
  0
SEQEND
  0
POLYLINE
  8
0
 10
0
 20
0
 39
0
 70
1
 66
1
  0
VERTEX
  8
0
 10
150.23635864257812
 20
728.6654052734375
 42
-0.20607383549213409
  0
VERTEX
  8
0
 10
141.88621520996094
 20
737.0887451171875
 42
-0
  0
VERTEX
  8
0
 10
123.88639068603516
 20
737.16729736328125
 42
0
  0
VERTEX
  8
0
 10
123.934814453125
 20
748.2652587890625
 42
0
  0
VERTEX
  8
0
 10
141.93464660644531
 20
748.18670654296875
 42
-0.20607383549213409
  0
VERTEX
  8
0
 10
150.35797119140625
 20
756.536865234375
 42
-0
  0
VERTEX
  8
0
 10
150.43650817871094
 20
774.53668212890625
 42
0
  0
VERTEX
  8
0
 10
161.53450012207031
 20
774.48828125
 42
0
  0
VERTEX
  8
0
 10
161.45596313476562
 20
756.4884033203125
 42
-0.20607383549213409
  0
VERTEX
  8
0
 10
169.80610656738281
 20
748.06512451171875
 42
-0
  0
VERTEX
  8
0
 10
187.80592346191406
 20
747.986572265625
 42
0
  0
VERTEX
  8
0
 10
187.75750732421875
 20
736.88861083984375
 42
0
  0
VERTEX
  8
0
 10
169.75767517089844
 20
736.96710205078125
 42
-0.20607383549213409
  0
VERTEX
  8
0
 10
161.3343505859375
 20
728.61700439453125
 42
-0
  0
VERTEX
  8
0
 10
161.25581359863281
 20
710.61712646484375
 42
0
  0
VERTEX
  8
0
 10
150.15782165527344
 20
710.66558837890625
 42
0
  0
SEQEND
  0
POLYLINE
  8
0
 10
0
 20
0
 39
0
 70
1
 66
1
  0
VERTEX
  8
0
 10
173.705078125
 20
278.65341186523437
 42
1
  0
VERTEX
  8
0
 10
173.294921875
 20
184.654296875
 42
1
  0
SEQEND
  0
POLYLINE
  8
0
 10
0
 20
0
 39
0
 70
1
 66
1
  0
VERTEX
  8
0
 10
167.89019775390625
 20
217.74232482910156
 42
-0.20607383549213409
  0
VERTEX
  8
0
 10
159.54006958007812
 20
226.16566467285156
 42
-0
  0
VERTEX
  8
0
 10
141.54023742675781
 20
226.24420166015625
 42
0
  0
VERTEX
  8
0
 10
141.58866882324219
 20
237.34217834472656
 42
0
  0
VERTEX
  8
0
 10
159.58848571777344
 20
237.26364135742187
 42
-0.20607383549213409
  0
VERTEX
  8
0
 10
168.01181030273437
 20
245.61376953125
 42
-0
  0
VERTEX
  8
0
 10
168.09036254882812
 20
263.61361694335937
 42
0
  0
VERTEX
  8
0
 10
179.1883544921875
 20
263.565185546875
 42
0
  0
VERTEX
  8
0
 10
179.10980224609375
 20
245.56535339355469
 42
-0.20607383549213409
  0
VERTEX
  8
0
 10
187.45994567871094
 20
237.14202880859375
 42
-0
  0
VERTEX
  8
0
 10
205.45977783203125
 20
237.06349182128906
 42
0
  0
VERTEX
  8
0
 10
205.41134643554687
 20
225.96551513671875
 42
0
  0
VERTEX
  8
0
 10
187.41151428222656
 20
226.04405212402344
 42
-0.20607383549213409
  0
VERTEX
  8
0
 10
178.98818969726562
 20
217.69389343261719
 42
-0
  0
VERTEX
  8
0
 10
178.90965270996094
 20
199.69407653808594
 42
0
  0
VERTEX
  8
0
 10
167.81166076660156
 20
199.74249267578125
 42
0
  0
SEQEND
  0
POLYLINE
  8
0
 10
0
 20
0
 39
0
 70
1
 66
1
  0
VERTEX
  8
0
 10
240.97430419921875
 20
728.768798828125
 42
1
  0
VERTEX
  8
0
 10
240.56414794921875
 20
634.7696533203125
 42
1
  0
SEQEND
  0
POLYLINE
  8
0
 10
0
 20
0
 39
0
 70
1
 66
1
  0
VERTEX
  8
0
 10
235.15943908691406
 20
667.85772705078125
 42
-0.20607383549213409
  0
VERTEX
  8
0
 10
226.80929565429687
 20
676.28106689453125
 42
-0
  0
VERTEX
  8
0
 10
208.80946350097656
 20
676.35955810546875
 42
0
  0
VERTEX
  8
0
 10
208.85789489746094
 20
687.45758056640625
 42
0
  0
VERTEX
  8
0
 10
226.85772705078125
 20
687.3790283203125
 42
-0.20607383549213409
  0
VERTEX
  8
0
 10
235.28105163574219
 20
695.72918701171875
 42
-0
  0
VERTEX
  8
0
 10
235.35958862304687
 20
713.72900390625
 42
0
  0
VERTEX
  8
0
 10
246.45758056640625
 20
713.6805419921875
 42
0
  0
VERTEX
  8
0
 10
246.37904357910156
 20
695.68072509765625
 42
-0.20607383549213409
  0
VERTEX
  8
0
 10
254.72917175292969
 20
687.25738525390625
 42
-0
  0
VERTEX
  8
0
 10
272.72900390625
 20
687.17889404296875
 42
0
  0
VERTEX
  8
0
 10
272.68057250976562
 20
676.08087158203125
 42
0
  0
VERTEX
  8
0
 10
254.68075561523438
 20
676.159423828125
 42
-0.20607383549213409
  0
VERTEX
  8
0
 10
246.25743103027344
 20
667.80926513671875
 42
-0
  0
VERTEX
  8
0
 10
246.17889404296875
 20
649.8094482421875
 42
0
  0
VERTEX
  8
0
 10
235.08090209960937
 20
649.85784912109375
 42
0
  0
SEQEND
  0
POLYLINE
  8
0
 10
0
 20
0
 39
0
 70
1
 66
1
  0
VERTEX
  8
0
 10
287.93585205078125
 20
524.99957275390625
 42
1
  0
VERTEX
  8
0
 10
287.52569580078125
 20
431.00045776367187
 42
1
  0
SEQEND
  0
POLYLINE
  8
0
 10
0
 20
0
 39
0
 70
1
 66
1
  0
VERTEX
  8
0
 10
282.1209716796875
 20
464.08847045898437
 42
-0.20607383549213409
  0
VERTEX
  8
0
 10
273.77084350585937
 20
472.51181030273437
 42
-0
  0
VERTEX
  8
0
 10
255.77101135253906
 20
472.59036254882812
 42
0
  0
VERTEX
  8
0
 10
255.81942749023437
 20
483.68832397460937
 42
0
  0
VERTEX
  8
0
 10
273.81927490234375
 20
483.60980224609375
 42
-0.20607383549213409
  0
VERTEX
  8
0
 10
282.24258422851562
 20
491.95993041992187
 42
-0
  0
VERTEX
  8
0
 10
282.32113647460938
 20
509.95974731445312
 42
0
  0
VERTEX
  8
0
 10
293.41912841796875
 20
509.91134643554687
 42
0
  0
VERTEX
  8
0
 10
293.340576171875
 20
491.9114990234375
 42
-0.20607383549213409
  0
VERTEX
  8
0
 10
301.69070434570312
 20
483.48818969726562
 42
-0
  0
VERTEX
  8
0
 10
319.6905517578125
 20
483.40963745117187
 42
0
  0
VERTEX
  8
0
 10
319.64212036132812
 20
472.31167602539062
 42
0
  0
VERTEX
  8
0
 10
301.64230346679687
 20
472.39019775390625
 42
-0.20607383549213409
  0
VERTEX
  8
0
 10
293.21896362304687
 20
464.0400390625
 42
-0
  0
VERTEX
  8
0
 10
293.14041137695312
 20
446.04022216796875
 42
0
  0
VERTEX
  8
0
 10
282.04241943359375
 20
446.08865356445312
 42
0
  0
SEQEND
  0
POLYLINE
  8
0
 10
0
 20
0
 39
0
 70
1
 66
1
  0
VERTEX
  8
0
 10
297.9615478515625
 20
534.3846435546875
 42
-0
  0
VERTEX
  8
0
 10
337.9615478515625
 20
534.3846435546875
 42
0
  0
VERTEX
  8
0
 10
337.9615478515625
 20
734.3846435546875
 42
0
  0
VERTEX
  8
0
 10
297.9615478515625
 20
734.3846435546875
 42
0
  0
SEQEND
  0
POLYLINE
  8
0
 10
0
 20
0
 39
0
 70
1
 66
1
  0
VERTEX
  8
0
 10
327.9615478515625
 20
550.98095703125
 42
-0
  0
VERTEX
  8
0
 10
307.9615478515625
 20
550.98095703125
 42
-0
  0
VERTEX
  8
0
 10
307.9615478515625
 20
643.98095703125
 42
-0
  0
VERTEX
  8
0
 10
327.9615478515625
 20
643.98095703125
 42
-0
  0
SEQEND
  0
POLYLINE
  8
0
 10
0
 20
0
 39
0
 70
1
 66
1
  0
VERTEX
  8
0
 10
305.57693481445312
 20
139.07691955566406
 42
-0
  0
VERTEX
  8
0
 10
345.57693481445312
 20
139.07691955566406
 42
0
  0
VERTEX
  8
0
 10
345.57693481445312
 20
339.07693481445312
 42
0
  0
VERTEX
  8
0
 10
305.57693481445312
 20
339.07693481445312
 42
0
  0
SEQEND
  0
POLYLINE
  8
0
 10
0
 20
0
 39
0
 70
1
 66
1
  0
VERTEX
  8
0
 10
335.57693481445312
 20
155.67329406738281
 42
-0
  0
VERTEX
  8
0
 10
315.57693481445312
 20
155.67329406738281
 42
-0
  0
VERTEX
  8
0
 10
315.57693481445312
 20
248.67329406738281
 42
-0
  0
VERTEX
  8
0
 10
335.57693481445312
 20
248.67329406738281
 42
-0
  0
SEQEND
  0
POLYLINE
  8
0
 10
0
 20
0
 39
0
 70
1
 66
1
  0
VERTEX
  8
0
 10
620.3846435546875
 20
255.26922607421875
 42
-0
  0
VERTEX
  8
0
 10
620.3846435546875
 20
295.26922607421875
 42
0
  0
VERTEX
  8
0
 10
420.38461303710937
 20
295.26922607421875
 42
0
  0
VERTEX
  8
0
 10
420.38461303710937
 20
255.26922607421875
 42
0
  0
SEQEND
  0
POLYLINE
  8
0
 10
0
 20
0
 39
0
 70
1
 66
1
  0
VERTEX
  8
0
 10
603.78826904296875
 20
285.26922607421875
 42
-0
  0
VERTEX
  8
0
 10
603.78826904296875
 20
265.26922607421875
 42
-0
  0
VERTEX
  8
0
 10
510.78823852539062
 20
265.26922607421875
 42
-0
  0
VERTEX
  8
0
 10
510.78823852539062
 20
285.26922607421875
 42
-0
  0
SEQEND
  0
POLYLINE
  8
0
 10
0
 20
0
 39
0
 70
1
 66
1
  0
VERTEX
  8
0
 10
620.3846435546875
 20
305.34616088867187
 42
-0
  0
VERTEX
  8
0
 10
620.3846435546875
 20
345.34616088867187
 42
0
  0
VERTEX
  8
0
 10
420.38461303710937
 20
345.34616088867187
 42
0
  0
VERTEX
  8
0
 10
420.38461303710937
 20
305.34616088867187
 42
0
  0
SEQEND
  0
POLYLINE
  8
0
 10
0
 20
0
 39
0
 70
1
 66
1
  0
VERTEX
  8
0
 10
603.78826904296875
 20
335.34616088867187
 42
-0
  0
VERTEX
  8
0
 10
603.78826904296875
 20
315.34616088867187
 42
-0
  0
VERTEX
  8
0
 10
510.78823852539062
 20
315.34616088867187
 42
-0
  0
VERTEX
  8
0
 10
510.78823852539062
 20
335.34616088867187
 42
-0
  0
SEQEND
  0
POLYLINE
  8
0
 10
0
 20
0
 39
0
 70
1
 66
1
  0
VERTEX
  8
0
 10
654.73077392578125
 20
179.46153259277344
 42
-0
  0
VERTEX
  8
0
 10
694.73077392578125
 20
179.46153259277344
 42
0
  0
VERTEX
  8
0
 10
694.73077392578125
 20
379.4615478515625
 42
0
  0
VERTEX
  8
0
 10
654.73077392578125
 20
379.4615478515625
 42
0
  0
SEQEND
  0
POLYLINE
  8
0
 10
0
 20
0
 39
0
 70
1
 66
1
  0
VERTEX
  8
0
 10
684.73077392578125
 20
196.05790710449219
 42
-0
  0
VERTEX
  8
0
 10
664.73077392578125
 20
196.05790710449219
 42
-0
  0
VERTEX
  8
0
 10
664.73077392578125
 20
289.05789184570312
 42
-0
  0
VERTEX
  8
0
 10
684.73077392578125
 20
289.05789184570312
 42
-0
  0
SEQEND
  0
POLYLINE
  8
0
 10
0
 20
0
 39
0
 70
1
 66
1
  0
VERTEX
  8
0
 10
701.3846435546875
 20
699.26922607421875
 42
-0
  0
VERTEX
  8
0
 10
701.3846435546875
 20
739.26922607421875
 42
0
  0
VERTEX
  8
0
 10
501.38461303710937
 20
739.26922607421875
 42
0
  0
VERTEX
  8
0
 10
501.38461303710937
 20
699.26922607421875
 42
0
  0
SEQEND
  0
POLYLINE
  8
0
 10
0
 20
0
 39
0
 70
1
 66
1
  0
VERTEX
  8
0
 10
684.78826904296875
 20
729.26922607421875
 42
-0
  0
VERTEX
  8
0
 10
684.78826904296875
 20
709.26922607421875
 42
-0
  0
VERTEX
  8
0
 10
591.78826904296875
 20
709.26922607421875
 42
-0
  0
VERTEX
  8
0
 10
591.78826904296875
 20
729.26922607421875
 42
-0
  0
SEQEND
  0
POLYLINE
  8
0
 10
0
 20
0
 39
0
 70
1
 66
1
  0
VERTEX
  8
0
 10
794.80767822265625
 20
403.65383911132812
 42
-0
  0
VERTEX
  8
0
 10
834.80767822265625
 20
403.65383911132812
 42
0
  0
VERTEX
  8
0
 10
834.80767822265625
 20
603.65386962890625
 42
0
  0
VERTEX
  8
0
 10
794.80767822265625
 20
603.65386962890625
 42
0
  0
SEQEND
  0
POLYLINE
  8
0
 10
0
 20
0
 39
0
 70
1
 66
1
  0
VERTEX
  8
0
 10
824.80767822265625
 20
420.25021362304687
 42
-0
  0
VERTEX
  8
0
 10
804.80767822265625
 20
420.25021362304687
 42
-0
  0
VERTEX
  8
0
 10
804.80767822265625
 20
513.25018310546875
 42
-0
  0
VERTEX
  8
0
 10
824.80767822265625
 20
513.25018310546875
 42
-0
  0
SEQEND
  0
POLYLINE
  8
0
 10
0
 20
0
 39
0
 70
1
 66
1
  0
VERTEX
  8
0
 10
845
 20
417.73077392578125
 42
-0
  0
VERTEX
  8
0
 10
885
 20
417.73077392578125
 42
0
  0
VERTEX
  8
0
 10
885
 20
617.73077392578125
 42
0
  0
VERTEX
  8
0
 10
845
 20
617.73077392578125
 42
0
  0
SEQEND
  0
POLYLINE
  8
0
 10
0
 20
0
 39
0
 70
1
 66
1
  0
VERTEX
  8
0
 10
875
 20
434.3271484375
 42
-0
  0
VERTEX
  8
0
 10
855
 20
434.3271484375
 42
-0
  0
VERTEX
  8
0
 10
855
 20
527.3271484375
 42
-0
  0
VERTEX
  8
0
 10
875
 20
527.3271484375
 42
-0
  0
SEQEND
  0
POLYLINE
  8
0
 10
0
 20
0
 39
0
 70
1
 66
1
  0
VERTEX
  8
0
 10
1030.769287109375
 20
61.423076629638672
 42
-0
  0
VERTEX
  8
0
 10
1070.769287109375
 20
61.423076629638672
 42
0
  0
VERTEX
  8
0
 10
1070.769287109375
 20
261.42306518554687
 42
0
  0
VERTEX
  8
0
 10
1030.769287109375
 20
261.42306518554687
 42
0
  0
SEQEND
  0
POLYLINE
  8
0
 10
0
 20
0
 39
0
 70
1
 66
1
  0
VERTEX
  8
0
 10
1060.769287109375
 20
78.019447326660156
 42
-0
  0
VERTEX
  8
0
 10
1040.769287109375
 20
78.019447326660156
 42
-0
  0
VERTEX
  8
0
 10
1040.769287109375
 20
171.01943969726562
 42
-0
  0
VERTEX
  8
0
 10
1060.769287109375
 20
171.01943969726562
 42
-0
  0
SEQEND
  0
POLYLINE
  8
0
 10
0
 20
0
 39
0
 70
1
 66
1
  0
VERTEX
  8
0
 10
1145.576904296875
 20
10.192307472229004
 42
-0
  0
VERTEX
  8
0
 10
1185.576904296875
 20
10.192307472229004
 42
0
  0
VERTEX
  8
0
 10
1185.576904296875
 20
210.19230651855469
 42
0
  0
VERTEX
  8
0
 10
1145.576904296875
 20
210.19230651855469
 42
0
  0
SEQEND
  0
POLYLINE
  8
0
 10
0
 20
0
 39
0
 70
1
 66
1
  0
VERTEX
  8
0
 10
1175.576904296875
 20
26.788677215576172
 42
-0
  0
VERTEX
  8
0
 10
1155.576904296875
 20
26.788677215576172
 42
-0
  0
VERTEX
  8
0
 10
1155.576904296875
 20
119.78867340087891
 42
-0
  0
VERTEX
  8
0
 10
1175.576904296875
 20
119.78867340087891
 42
-0
  0
SEQEND
  0
POLYLINE
  8
0
 10
0
 20
0
 39
0
 70
1
 66
1
  0
VERTEX
  8
0
 10
1195.769287109375
 20
10.192307472229004
 42
-0
  0
VERTEX
  8
0
 10
1235.769287109375
 20
10.192307472229004
 42
0
  0
VERTEX
  8
0
 10
1235.769287109375
 20
210.19230651855469
 42
0
  0
VERTEX
  8
0
 10
1195.769287109375
 20
210.19230651855469
 42
0
  0
SEQEND
  0
POLYLINE
  8
0
 10
0
 20
0
 39
0
 70
1
 66
1
  0
VERTEX
  8
0
 10
1225.769287109375
 20
26.788677215576172
 42
-0
  0
VERTEX
  8
0
 10
1205.769287109375
 20
26.788677215576172
 42
-0
  0
VERTEX
  8
0
 10
1205.769287109375
 20
119.78867340087891
 42
-0
  0
VERTEX
  8
0
 10
1225.769287109375
 20
119.78867340087891
 42
-0
  0
SEQEND
  0
POLYLINE
  8
0
 10
0
 20
0
 39
0
 70
1
 66
1
  0
VERTEX
  8
0
 10
1219.8846435546875
 20
507.84616088867188
 42
-0
  0
VERTEX
  8
0
 10
1259.8846435546875
 20
507.84616088867188
 42
0
  0
VERTEX
  8
0
 10
1259.8846435546875
 20
707.84613037109375
 42
0
  0
VERTEX
  8
0
 10
1219.8846435546875
 20
707.84613037109375
 42
0
  0
SEQEND
  0
POLYLINE
  8
0
 10
0
 20
0
 39
0
 70
1
 66
1
  0
VERTEX
  8
0
 10
1249.8846435546875
 20
524.4425048828125
 42
-0
  0
VERTEX
  8
0
 10
1229.8846435546875
 20
524.4425048828125
 42
-0
  0
VERTEX
  8
0
 10
1229.8846435546875
 20
617.4425048828125
 42
-0
  0
VERTEX
  8
0
 10
1249.8846435546875
 20
617.4425048828125
 42
-0
  0
SEQEND
  0
POLYLINE
  8
0
 10
0
 20
0
 39
0
 70
1
 66
1
  0
VERTEX
  8
0
 10
665.576904296875
 20
10.192307472229004
 42
-0
  0
VERTEX
  8
0
 10
715.576904296875
 20
10.192307472229004
 42
-0
  0
VERTEX
  8
0
 10
715.576904296875
 20
141.39617919921875
 42
0
  0
VERTEX
  8
0
 10
691.78082275390625
 20
165.19230651855469
 42
-0
  0
VERTEX
  8
0
 10
665.576904296875
 20
165.19230651855469
 42
0
  0
SEQEND
  0
POLYLINE
  8
0
 10
0
 20
0
 39
0
 70
1
 66
1
  0
VERTEX
  8
0
 10
690.576904296875
 20
22.616250991821289
 42
-1
  0
VERTEX
  8
0
 10
690.576904296875
 20
50.616249084472656
 42
-1
  0
SEQEND
  0
POLYLINE
  8
0
 10
0
 20
0
 39
0
 70
1
 66
1
  0
VERTEX
  8
0
 10
794.80767822265625
 20
627.84613037109375
 42
-0
  0
VERTEX
  8
0
 10
844.80767822265625
 20
627.84613037109375
 42
-0
  0
VERTEX
  8
0
 10
844.80767822265625
 20
759.050048828125
 42
0
  0
VERTEX
  8
0
 10
821.01153564453125
 20
782.84613037109375
 42
-0
  0
VERTEX
  8
0
 10
794.80767822265625
 20
782.84613037109375
 42
0
  0
SEQEND
  0
POLYLINE
  8
0
 10
0
 20
0
 39
0
 70
1
 66
1
  0
VERTEX
  8
0
 10
819.80767822265625
 20
640.27008056640625
 42
-1
  0
VERTEX
  8
0
 10
819.80767822265625
 20
668.27008056640625
 42
-1
  0
SEQEND
  0
POLYLINE
  8
0
 10
0
 20
0
 39
0
 70
1
 66
1
  0
VERTEX
  8
0
 10
855.0384521484375
 20
627.84613037109375
 42
-0
  0
VERTEX
  8
0
 10
905.0384521484375
 20
627.84613037109375
 42
-0
  0
VERTEX
  8
0
 10
905.0384521484375
 20
759.050048828125
 42
0
  0
VERTEX
  8
0
 10
881.2423095703125
 20
782.84613037109375
 42
-0
  0
VERTEX
  8
0
 10
855.0384521484375
 20
782.84613037109375
 42
0
  0
SEQEND
  0
POLYLINE
  8
0
 10
0
 20
0
 39
0
 70
1
 66
1
  0
VERTEX
  8
0
 10
880.0384521484375
 20
640.27008056640625
 42
-1
  0
VERTEX
  8
0
 10
880.0384521484375
 20
668.27008056640625
 42
-1
  0
SEQEND
  0
POLYLINE
  8
0
 10
0
 20
0
 39
0
 70
1
 66
1
  0
VERTEX
  8
0
 10
1149.84619140625
 20
220.30769348144531
 42
-0
  0
VERTEX
  8
0
 10
1199.84619140625
 20
220.30769348144531
 42
-0
  0
VERTEX
  8
0
 10
1199.84619140625
 20
351.51156616210937
 42
0
  0
VERTEX
  8
0
 10
1176.050048828125
 20
375.30767822265625
 42
-0
  0
VERTEX
  8
0
 10
1149.84619140625
 20
375.30767822265625
 42
0
  0
SEQEND
  0
POLYLINE
  8
0
 10
0
 20
0
 39
0
 70
1
 66
1
  0
VERTEX
  8
0
 10
1174.84619140625
 20
232.73162841796875
 42
-1
  0
VERTEX
  8
0
 10
1174.84619140625
 20
260.73162841796875
 42
-1
  0
SEQEND
  0
POLYLINE
  8
0
 10
0
 20
0
 39
0
 70
1
 66
1
  0
VERTEX
  8
0
 10
1210.076904296875
 20
220.30769348144531
 42
-0
  0
VERTEX
  8
0
 10
1260.076904296875
 20
220.30769348144531
 42
-0
  0
VERTEX
  8
0
 10
1260.076904296875
 20
351.51156616210937
 42
0
  0
VERTEX
  8
0
 10
1236.28076171875
 20
375.30767822265625
 42
-0
  0
VERTEX
  8
0
 10
1210.076904296875
 20
375.30767822265625
 42
0
  0
SEQEND
  0
POLYLINE
  8
0
 10
0
 20
0
 39
0
 70
1
 66
1
  0
VERTEX
  8
0
 10
1235.076904296875
 20
232.73162841796875
 42
-1
  0
VERTEX
  8
0
 10
1235.076904296875
 20
260.73162841796875
 42
-1
  0
SEQEND
  0
POLYLINE
  8
0
 10
0
 20
0
 39
0
 70
1
 66
1
  0
VERTEX
  8
0
 10
1245.9615478515625
 20
10.192307472229004
 42
-0
  0
VERTEX
  8
0
 10
1295.9615478515625
 20
10.192307472229004
 42
-0
  0
VERTEX
  8
0
 10
1295.9615478515625
 20
141.39617919921875
 42
0
  0
VERTEX
  8
0
 10
1272.1654052734375
 20
165.19230651855469
 42
-0
  0
VERTEX
  8
0
 10
1245.9615478515625
 20
165.19230651855469
 42
0
  0
SEQEND
  0
POLYLINE
  8
0
 10
0
 20
0
 39
0
 70
1
 66
1
  0
VERTEX
  8
0
 10
1270.9615478515625
 20
22.616250991821289
 42
-1
  0
VERTEX
  8
0
 10
1270.9615478515625
 20
50.616249084472656
 42
-1
  0
SEQEND
  0
POLYLINE
  8
0
 10
0
 20
0
 39
0
 70
1
 66
1
  0
VERTEX
  8
0
 10
1320.3077392578125
 20
313
 42
-0
  0
VERTEX
  8
0
 10
1270.3077392578125
 20
313
 42
-0
  0
VERTEX
  8
0
 10
1270.3077392578125
 20
181.79612731933594
 42
0
  0
VERTEX
  8
0
 10
1294.1038818359375
 20
158
 42
-0
  0
VERTEX
  8
0
 10
1320.3077392578125
 20
158
 42
0
  0
SEQEND
  0
POLYLINE
  8
0
 10
0
 20
0
 39
0
 70
1
 66
1
  0
VERTEX
  8
0
 10
1295.3077392578125
 20
300.5760498046875
 42
-1
  0
VERTEX
  8
0
 10
1295.3077392578125
 20
272.5760498046875
 42
-1
  0
SEQEND
  0
POLYLINE
  8
0
 10
0
 20
0
 39
0
 70
1
 66
1
  0
VERTEX
  8
0
 10
1334.6922607421875
 20
460.19232177734375
 42
-0
  0
VERTEX
  8
0
 10
1384.6922607421875
 20
460.19232177734375
 42
-0
  0
VERTEX
  8
0
 10
1384.6922607421875
 20
591.39617919921875
 42
0
  0
VERTEX
  8
0
 10
1360.8961181640625
 20
615.19232177734375
 42
-0
  0
VERTEX
  8
0
 10
1334.6922607421875
 20
615.19232177734375
 42
0
  0
SEQEND
  0
POLYLINE
  8
0
 10
0
 20
0
 39
0
 70
1
 66
1
  0
VERTEX
  8
0
 10
1359.6922607421875
 20
472.61624145507812
 42
-1
  0
VERTEX
  8
0
 10
1359.6922607421875
 20
500.61624145507812
 42
-1
  0
SEQEND
  0
POLYLINE
  8
0
 10
0
 20
0
 39
0
 70
1
 66
1
  0
VERTEX
  8
0
 10
1334.6922607421875
 20
625.30767822265625
 42
-0
  0
VERTEX
  8
0
 10
1384.6922607421875
 20
625.30767822265625
 42
-0
  0
VERTEX
  8
0
 10
1384.6922607421875
 20
756.51153564453125
 42
0
  0
VERTEX
  8
0
 10
1360.8961181640625
 20
780.30767822265625
 42
-0
  0
VERTEX
  8
0
 10
1334.6922607421875
 20
780.30767822265625
 42
0
  0
SEQEND
  0
POLYLINE
  8
0
 10
0
 20
0
 39
0
 70
1
 66
1
  0
VERTEX
  8
0
 10
1359.6922607421875
 20
637.73162841796875
 42
-1
  0
VERTEX
  8
0
 10
1359.6922607421875
 20
665.73162841796875
 42
-1
  0
SEQEND
  0
POLYLINE
  8
0
 10
0
 20
0
 39
0
 70
1
 66
1
  0
VERTEX
  8
0
 10
1394.923095703125
 20
460.19232177734375
 42
-0
  0
VERTEX
  8
0
 10
1444.923095703125
 20
460.19232177734375
 42
-0
  0
VERTEX
  8
0
 10
1444.923095703125
 20
591.39617919921875
 42
0
  0
VERTEX
  8
0
 10
1421.126953125
 20
615.19232177734375
 42
-0
  0
VERTEX
  8
0
 10
1394.923095703125
 20
615.19232177734375
 42
0
  0
SEQEND
  0
POLYLINE
  8
0
 10
0
 20
0
 39
0
 70
1
 66
1
  0
VERTEX
  8
0
 10
1419.923095703125
 20
472.61624145507812
 42
-1
  0
VERTEX
  8
0
 10
1419.923095703125
 20
500.61624145507812
 42
-1
  0
SEQEND
  0
POLYLINE
  8
0
 10
0
 20
0
 39
0
 70
1
 66
1
  0
VERTEX
  8
0
 10
1394.923095703125
 20
625.30767822265625
 42
-0
  0
VERTEX
  8
0
 10
1444.923095703125
 20
625.30767822265625
 42
-0
  0
VERTEX
  8
0
 10
1444.923095703125
 20
756.51153564453125
 42
0
  0
VERTEX
  8
0
 10
1421.126953125
 20
780.30767822265625
 42
-0
  0
VERTEX
  8
0
 10
1394.923095703125
 20
780.30767822265625
 42
0
  0
SEQEND
  0
POLYLINE
  8
0
 10
0
 20
0
 39
0
 70
1
 66
1
  0
VERTEX
  8
0
 10
1419.923095703125
 20
637.73162841796875
 42
-1
  0
VERTEX
  8
0
 10
1419.923095703125
 20
665.73162841796875
 42
-1
  0
SEQEND
  0
POLYLINE
  8
0
 10
0
 20
0
 39
0
 70
1
 66
1
  0
VERTEX
  8
0
 10
317.69232177734375
 20
749.34613037109375
 42
-0
  0
VERTEX
  8
0
 10
317.69232177734375
 20
789.34613037109375
 42
-0
  0
VERTEX
  8
0
 10
212.69230651855469
 20
789.34613037109375
 42
0
  0
VERTEX
  8
0
 10
212.69230651855469
 20
749.34613037109375
 42
0
  0
SEQEND
  0
POLYLINE
  8
0
 10
0
 20
0
 39
0
 70
1
 66
1
  0
VERTEX
  8
0
 10
301.095947265625
 20
779.34613037109375
 42
-0
  0
VERTEX
  8
0
 10
301.095947265625
 20
759.34613037109375
 42
-0
  0
VERTEX
  8
0
 10
265.19232177734375
 20
759.34613037109375
 42
-1
  0
VERTEX
  8
0
 10
265.19232177734375
 20
779.34613037109375
 42
-0
  0
SEQEND
  0
POLYLINE
  8
0
 10
0
 20
0
 39
0
 70
1
 66
1
  0
VERTEX
  8
0
 10
348.15383911132812
 20
679.30767822265625
 42
-0
  0
VERTEX
  8
0
 10
388.15383911132812
 20
679.30767822265625
 42
-0
  0
VERTEX
  8
0
 10
388.15383911132812
 20
784.30767822265625
 42
0
  0
VERTEX
  8
0
 10
348.15383911132812
 20
784.30767822265625
 42
0
  0
SEQEND
  0
POLYLINE
  8
0
 10
0
 20
0
 39
0
 70
1
 66
1
  0
VERTEX
  8
0
 10
378.15383911132812
 20
695.904052734375
 42
-0
  0
VERTEX
  8
0
 10
358.15383911132812
 20
695.904052734375
 42
-0
  0
VERTEX
  8
0
 10
358.15383911132812
 20
731.80767822265625
 42
-1
  0
VERTEX
  8
0
 10
378.15383911132812
 20
731.80767822265625
 42
-0
  0
SEQEND
  0
POLYLINE
  8
0
 10
0
 20
0
 39
0
 70
1
 66
1
  0
VERTEX
  8
0
 10
514.65386962890625
 20
75.038459777832031
 42
-0
  0
VERTEX
  8
0
 10
554.65386962890625
 20
75.038459777832031
 42
-0
  0
VERTEX
  8
0
 10
554.65386962890625
 20
180.03846740722656
 42
0
  0
VERTEX
  8
0
 10
514.65386962890625
 20
180.03846740722656
 42
0
  0
SEQEND
  0
POLYLINE
  8
0
 10
0
 20
0
 39
0
 70
1
 66
1
  0
VERTEX
  8
0
 10
544.65386962890625
 20
91.63482666015625
 42
-0
  0
VERTEX
  8
0
 10
524.65386962890625
 20
91.63482666015625
 42
-0
  0
VERTEX
  8
0
 10
524.65386962890625
 20
127.53845977783203
 42
-1
  0
VERTEX
  8
0
 10
544.65386962890625
 20
127.53845977783203
 42
-0
  0
SEQEND
  0
POLYLINE
  8
0
 10
0
 20
0
 39
0
 70
1
 66
1
  0
VERTEX
  8
0
 10
650.69232177734375
 20
544.19232177734375
 42
-0
  0
VERTEX
  8
0
 10
650.69232177734375
 20
584.19232177734375
 42
-0
  0
VERTEX
  8
0
 10
545.69232177734375
 20
584.19232177734375
 42
0
  0
VERTEX
  8
0
 10
545.69232177734375
 20
544.19232177734375
 42
0
  0
SEQEND
  0
POLYLINE
  8
0
 10
0
 20
0
 39
0
 70
1
 66
1
  0
VERTEX
  8
0
 10
634.095947265625
 20
574.19232177734375
 42
-0
  0
VERTEX
  8
0
 10
634.095947265625
 20
554.19232177734375
 42
-0
  0
VERTEX
  8
0
 10
598.19232177734375
 20
554.19232177734375
 42
-1
  0
VERTEX
  8
0
 10
598.19232177734375
 20
574.19232177734375
 42
-0
  0
SEQEND
  0
POLYLINE
  8
0
 10
0
 20
0
 39
0
 70
1
 66
1
  0
VERTEX
  8
0
 10
879.84613037109375
 20
126.26923370361328
 42
-0
  0
VERTEX
  8
0
 10
919.84613037109375
 20
126.26923370361328
 42
-0
  0
VERTEX
  8
0
 10
919.84613037109375
 20
231.26922607421875
 42
0
  0
VERTEX
  8
0
 10
879.84613037109375
 20
231.26922607421875
 42
0
  0
SEQEND
  0
POLYLINE
  8
0
 10
0
 20
0
 39
0
 70
1
 66
1
  0
VERTEX
  8
0
 10
909.84613037109375
 20
142.8656005859375
 42
-0
  0
VERTEX
  8
0
 10
889.84613037109375
 20
142.8656005859375
 42
-0
  0
VERTEX
  8
0
 10
889.84613037109375
 20
178.76922607421875
 42
-1
  0
VERTEX
  8
0
 10
909.84613037109375
 20
178.76922607421875
 42
-0
  0
SEQEND
  0
POLYLINE
  8
0
 10
0
 20
0
 39
0
 70
1
 66
1
  0
VERTEX
  8
0
 10
1068.9615478515625
 20
556.5384521484375
 42
-0
  0
VERTEX
  8
0
 10
1108.9615478515625
 20
556.5384521484375
 42
-0
  0
VERTEX
  8
0
 10
1108.9615478515625
 20
661.5384521484375
 42
0
  0
VERTEX
  8
0
 10
1068.9615478515625
 20
661.5384521484375
 42
0
  0
SEQEND
  0
POLYLINE
  8
0
 10
0
 20
0
 39
0
 70
1
 66
1
  0
VERTEX
  8
0
 10
1098.9615478515625
 20
573.13482666015625
 42
-0
  0
VERTEX
  8
0
 10
1078.9615478515625
 20
573.13482666015625
 42
-0
  0
VERTEX
  8
0
 10
1078.9615478515625
 20
609.0384521484375
 42
-1
  0
VERTEX
  8
0
 10
1098.9615478515625
 20
609.0384521484375
 42
-0
  0
SEQEND
  0
ENDSEC
  0
EOF
