  0
SECTION
  2
ENTITIES
  0
POLYLINE
  8
0
 10
0
 20
0
 39
0
 70
1
 66
1
  0
VERTEX
  8
0
 10
0
 20
0
 42
0
  0
VERTEX
  8
0
 10
2800
 20
0
 42
0
  0
VERTEX
  8
0
 10
2800
 20
1200
 42
0
  0
VERTEX
  8
0
 10
0
 20
1200
 42
0
  0
SEQEND
  0
POLYLINE
  8
0
 10
0
 20
0
 39
0
 70
1
 66
1
  0
VERTEX
  8
0
 10
521.27264404296875
 20
610.3846435546875
 42
-0
  0
VERTEX
  8
0
 10
521.27264404296875
 20
10.384614944458008
 42
-0
  0
VERTEX
  8
0
 10
721.27264404296875
 20
10.384614944458008
 42
-0
  0
VERTEX
  8
0
 10
721.27264404296875
 20
1010.3846435546875
 42
0
  0
VERTEX
  8
0
 10
221.27261352539062
 20
1010.3846435546875
 42
-0
  0
VERTEX
  8
0
 10
221.27261352539062
 20
610.3846435546875
 42
-0
  0
SEQEND
  0
POLYLINE
  8
0
 10
0
 20
0
 39
0
 70
1
 66
1
  0
VERTEX
  8
0
 10
286.27261352539062
 20
945.3846435546875
 42
-0
  0
VERTEX
  8
0
 10
556.27264404296875
 20
945.3846435546875
 42
-0
  0
VERTEX
  8
0
 10
556.27264404296875
 20
675.3846435546875
 42
0
  0
VERTEX
  8
0
 10
286.27261352539062
 20
675.3846435546875
 42
0
  0
SEQEND
  0
POLYLINE
  8
0
 10
0
 20
0
 39
0
 70
1
 66
1
  0
VERTEX
  8
0
 10
576.27264404296875
 20
477.88461303710937
 42
-0
  0
VERTEX
  8
0
 10
681.27264404296875
 20
477.88461303710937
 42
-0
  0
VERTEX
  8
0
 10
681.27264404296875
 20
322.88461303710937
 42
0
  0
VERTEX
  8
0
 10
576.27264404296875
 20
322.88461303710937
 42
0
  0
SEQEND
  0
POLYLINE
  8
0
 10
0
 20
0
 39
0
 70
1
 66
1
  0
VERTEX
  8
0
 10
210.38461303710937
 20
410.38461303710937
 42
-0
  0
VERTEX
  8
0
 10
210.38461303710937
 20
1010.3846435546875
 42
-0
  0
VERTEX
  8
0
 10
10.384614944458008
 20
1010.3846435546875
 42
-0
  0
VERTEX
  8
0
 10
10.384614944458008
 20
10.384614944458008
 42
0
  0
VERTEX
  8
0
 10
510.38461303710937
 20
10.384614944458008
 42
-0
  0
VERTEX
  8
0
 10
510.38461303710937
 20
410.38461303710937
 42
-0
  0
SEQEND
  0
POLYLINE
  8
0
 10
0
 20
0
 39
0
 70
1
 66
1
  0
VERTEX
  8
0
 10
445.38461303710937
 20
75.384613037109375
 42
-0
  0
VERTEX
  8
0
 10
175.38461303710937
 20
75.384613037109375
 42
-0
  0
VERTEX
  8
0
 10
175.38461303710937
 20
345.38461303710937
 42
0
  0
VERTEX
  8
0
 10
445.38461303710937
 20
345.38461303710937
 42
0
  0
SEQEND
  0
POLYLINE
  8
0
 10
0
 20
0
 39
0
 70
1
 66
1
  0
VERTEX
  8
0
 10
155.38461303710937
 20
542.8846435546875
 42
-0
  0
VERTEX
  8
0
 10
50.384616851806641
 20
542.8846435546875
 42
-0
  0
VERTEX
  8
0
 10
50.384616851806641
 20
697.8846435546875
 42
0
  0
VERTEX
  8
0
 10
155.38461303710937
 20
697.8846435546875
 42
0
  0
SEQEND
  0
POLYLINE
  8
0
 10
0
 20
0
 39
0
 70
1
 66
1
  0
VERTEX
  8
0
 10
1242.3802490234375
 20
610.3846435546875
 42
-0
  0
VERTEX
  8
0
 10
1242.3802490234375
 20
10.384614944458008
 42
-0
  0
VERTEX
  8
0
 10
1442.3802490234375
 20
10.384614944458008
 42
-0
  0
VERTEX
  8
0
 10
1442.3802490234375
 20
1010.3846435546875
 42
0
  0
VERTEX
  8
0
 10
942.38031005859375
 20
1010.3846435546875
 42
-0
  0
VERTEX
  8
0
 10
942.38031005859375
 20
610.3846435546875
 42
-0
  0
SEQEND
  0
POLYLINE
  8
0
 10
0
 20
0
 39
0
 70
1
 66
1
  0
VERTEX
  8
0
 10
1007.3803100585937
 20
945.3846435546875
 42
-0
  0
VERTEX
  8
0
 10
1277.3802490234375
 20
945.3846435546875
 42
-0
  0
VERTEX
  8
0
 10
1277.3802490234375
 20
675.3846435546875
 42
0
  0
VERTEX
  8
0
 10
1007.3803100585937
 20
675.3846435546875
 42
0
  0
SEQEND
  0
POLYLINE
  8
0
 10
0
 20
0
 39
0
 70
1
 66
1
  0
VERTEX
  8
0
 10
1297.3802490234375
 20
477.88461303710937
 42
-0
  0
VERTEX
  8
0
 10
1402.3802490234375
 20
477.88461303710937
 42
-0
  0
VERTEX
  8
0
 10
1402.3802490234375
 20
322.88461303710937
 42
0
  0
VERTEX
  8
0
 10
1297.3802490234375
 20
322.88461303710937
 42
0
  0
SEQEND
  0
POLYLINE
  8
0
 10
0
 20
0
 39
0
 70
1
 66
1
  0
VERTEX
  8
0
 10
931.4923095703125
 20
410.38461303710937
 42
-0
  0
VERTEX
  8
0
 10
931.4923095703125
 20
1010.3846435546875
 42
-0
  0
VERTEX
  8
0
 10
731.4923095703125
 20
1010.3846435546875
 42
-0
  0
VERTEX
  8
0
 10
731.4923095703125
 20
10.384614944458008
 42
0
  0
VERTEX
  8
0
 10
1231.4923095703125
 20
10.384614944458008
 42
-0
  0
VERTEX
  8
0
 10
1231.4923095703125
 20
410.38461303710937
 42
-0
  0
SEQEND
  0
POLYLINE
  8
0
 10
0
 20
0
 39
0
 70
1
 66
1
  0
VERTEX
  8
0
 10
1166.4923095703125
 20
75.384613037109375
 42
-0
  0
VERTEX
  8
0
 10
896.4923095703125
 20
75.384613037109375
 42
-0
  0
VERTEX
  8
0
 10
896.4923095703125
 20
345.38461303710937
 42
0
  0
VERTEX
  8
0
 10
1166.4923095703125
 20
345.38461303710937
 42
0
  0
SEQEND
  0
POLYLINE
  8
0
 10
0
 20
0
 39
0
 70
1
 66
1
  0
VERTEX
  8
0
 10
876.4923095703125
 20
542.8846435546875
 42
-0
  0
VERTEX
  8
0
 10
771.4923095703125
 20
542.8846435546875
 42
-0
  0
VERTEX
  8
0
 10
771.4923095703125
 20
697.8846435546875
 42
0
  0
VERTEX
  8
0
 10
876.4923095703125
 20
697.8846435546875
 42
0
  0
SEQEND
  0
POLYLINE
  8
0
 10
0
 20
0
 39
0
 70
1
 66
1
  0
VERTEX
  8
0
 10
1523.5355224609375
 20
318.25701904296875
 42
-0
  0
VERTEX
  8
0
 10
1452.5999755859375
 20
256.08267211914062
 42
0
  0
VERTEX
  8
0
 10
1452.5999755859375
 20
10.384614944458008
 42
0
  0
VERTEX
  8
0
 10
1924.5999755859375
 20
10.384614944458008
 42
0
  0
VERTEX
  8
0
 10
1924.5999755859375
 20
256.08267211914062
 42
0
  0
VERTEX
  8
0
 10
1853.66455078125
 20
318.25701904296875
 42
0
  0
VERTEX
  8
0
 10
1924.5999755859375
 20
405.769287109375
 42
0
  0
VERTEX
  8
0
 10
1924.5999755859375
 20
626.12945556640625
 42
0
  0
VERTEX
  8
0
 10
1452.5999755859375
 20
626.12945556640625
 42
0
  0
VERTEX
  8
0
 10
1452.5999755859375
 20
405.769287109375
 42
-0
  0
SEQEND
  0
POLYLINE
  8
0
 10
0
 20
0
 39
0
 70
1
 66
1
  0
VERTEX
  8
0
 10
1488.0677490234375
 20
411.90234375
 42
0
  0
VERTEX
  8
0
 10
1488.0677490234375
 20
593.81317138671875
 42
0
  0
VERTEX
  8
0
 10
1889.1322021484375
 20
593.81317138671875
 42
0
  0
VERTEX
  8
0
 10
1889.1322021484375
 20
411.90234375
 42
-0
  0
VERTEX
  8
0
 10
1814.8916015625
 20
318.25701904296875
 42
-0
  0
VERTEX
  8
0
 10
1889.1322021484375
 20
249.48197937011719
 42
0
  0
VERTEX
  8
0
 10
1889.1322021484375
 20
46.813163757324219
 42
0
  0
VERTEX
  8
0
 10
1488.0677490234375
 20
46.813163757324219
 42
0
  0
VERTEX
  8
0
 10
1488.0677490234375
 20
249.48197937011719
 42
0
  0
VERTEX
  8
0
 10
1562.3084716796875
 20
318.25701904296875
 42
0
  0
SEQEND
  0
POLYLINE
  8
0
 10
0
 20
0
 39
0
 70
1
 66
1
  0
VERTEX
  8
0
 10
1760.472412109375
 20
1037.3568115234375
 42
-0
  0
VERTEX
  8
0
 10
1698.298095703125
 20
1108.2923583984375
 42
0
  0
VERTEX
  8
0
 10
1452.5999755859375
 20
1108.2923583984375
 42
0
  0
VERTEX
  8
0
 10
1452.5999755859375
 20
636.29229736328125
 42
0
  0
VERTEX
  8
0
 10
1698.298095703125
 20
636.29229736328125
 42
0
  0
VERTEX
  8
0
 10
1760.472412109375
 20
707.227783203125
 42
0
  0
VERTEX
  8
0
 10
1847.984619140625
 20
636.29229736328125
 42
0
  0
VERTEX
  8
0
 10
2068.3447265625
 20
636.29229736328125
 42
0
  0
VERTEX
  8
0
 10
2068.3447265625
 20
1108.2923583984375
 42
0
  0
VERTEX
  8
0
 10
1847.984619140625
 20
1108.2923583984375
 42
-0
  0
SEQEND
  0
POLYLINE
  8
0
 10
0
 20
0
 39
0
 70
1
 66
1
  0
VERTEX
  8
0
 10
1854.11767578125
 20
1072.8245849609375
 42
0
  0
VERTEX
  8
0
 10
2036.028564453125
 20
1072.8245849609375
 42
0
  0
VERTEX
  8
0
 10
2036.028564453125
 20
671.76007080078125
 42
0
  0
VERTEX
  8
0
 10
1854.11767578125
 20
671.76007080078125
 42
-0
  0
VERTEX
  8
0
 10
1760.472412109375
 20
746.000732421875
 42
-0
  0
VERTEX
  8
0
 10
1691.6973876953125
 20
671.76007080078125
 42
0
  0
VERTEX
  8
0
 10
1489.028564453125
 20
671.76007080078125
 42
0
  0
VERTEX
  8
0
 10
1489.028564453125
 20
1072.8245849609375
 42
0
  0
VERTEX
  8
0
 10
1691.6973876953125
 20
1072.8245849609375
 42
0
  0
VERTEX
  8
0
 10
1760.472412109375
 20
998.5838623046875
 42
0
  0
SEQEND
  0
POLYLINE
  8
0
 10
0
 20
0
 39
0
 70
1
 66
1
  0
VERTEX
  8
0
 10
1499.3385009765625
 20
1007.1692504882812
 42
-0
  0
VERTEX
  8
0
 10
1499.3385009765625
 20
682.16925048828125
 42
-0
  0
VERTEX
  8
0
 10
1612.0902099609375
 20
682.16925048828125
 42
0
  0
VERTEX
  8
0
 10
1759.0743408203125
 20
784.5482177734375
 42
0
  0
VERTEX
  8
0
 10
1759.0743408203125
 20
933.5482177734375
 42
0
  0
VERTEX
  8
0
 10
1697.8385009765625
 20
998.516357421875
 42
0
  0
VERTEX
  8
0
 10
1587.8385009765625
 20
913.05377197265625
 42
0
  0
SEQEND
  0
POLYLINE
  8
0
 10
0
 20
0
 39
0
 70
1
 66
1
  0
VERTEX
  8
0
 10
1697.8385009765625
 20
901.70074462890625
 42
-1
  0
VERTEX
  8
0
 10
1697.8385009765625
 20
842.03533935546875
 42
-1
  0
SEQEND
  0
POLYLINE
  8
0
 10
0
 20
0
 39
0
 70
1
 66
1
  0
VERTEX
  8
0
 10
1587.8385009765625
 20
863.4979248046875
 42
-1
  0
VERTEX
  8
0
 10
1587.8385009765625
 20
743.71893310546875
 42
-1
  0
SEQEND
  0
POLYLINE
  8
0
 10
0
 20
0
 39
0
 70
1
 66
1
  0
VERTEX
  8
0
 10
1796.12060546875
 20
57.123077392578125
 42
-0
  0
VERTEX
  8
0
 10
1796.12060546875
 20
382.12307739257812
 42
-0
  0
VERTEX
  8
0
 10
1683.3687744140625
 20
382.12307739257812
 42
0
  0
VERTEX
  8
0
 10
1536.3846435546875
 20
279.74407958984375
 42
0
  0
VERTEX
  8
0
 10
1536.3846435546875
 20
130.74407958984375
 42
0
  0
VERTEX
  8
0
 10
1597.62060546875
 20
65.77593994140625
 42
0
  0
VERTEX
  8
0
 10
1707.62060546875
 20
151.23855590820312
 42
0
  0
SEQEND
  0
POLYLINE
  8
0
 10
0
 20
0
 39
0
 70
1
 66
1
  0
VERTEX
  8
0
 10
1597.62060546875
 20
162.59158325195312
 42
-1
  0
VERTEX
  8
0
 10
1597.62060546875
 20
222.2569580078125
 42
-1
  0
SEQEND
  0
POLYLINE
  8
0
 10
0
 20
0
 39
0
 70
1
 66
1
  0
VERTEX
  8
0
 10
1707.62060546875
 20
200.79440307617187
 42
-1
  0
VERTEX
  8
0
 10
1707.62060546875
 20
320.5733642578125
 42
-1
  0
SEQEND
  0
POLYLINE
  8
0
 10
0
 20
0
 39
0
 70
1
 66
1
  0
VERTEX
  8
0
 10
2194.58203125
 20
10.384614944458008
 42
-0
  0
VERTEX
  8
0
 10
2194.58203125
 20
335.38461303710937
 42
-0
  0
VERTEX
  8
0
 10
2081.830322265625
 20
335.38461303710937
 42
0
  0
VERTEX
  8
0
 10
1934.84619140625
 20
233.005615234375
 42
0
  0
VERTEX
  8
0
 10
1934.84619140625
 20
84.005622863769531
 42
0
  0
VERTEX
  8
0
 10
1996.08203125
 20
19.0374755859375
 42
0
  0
VERTEX
  8
0
 10
2106.08203125
 20
104.50009155273437
 42
0
  0
SEQEND
  0
POLYLINE
  8
0
 10
0
 20
0
 39
0
 70
1
 66
1
  0
VERTEX
  8
0
 10
1996.08203125
 20
115.85311889648437
 42
-1
  0
VERTEX
  8
0
 10
1996.08203125
 20
175.51849365234375
 42
-1
  0
SEQEND
  0
POLYLINE
  8
0
 10
0
 20
0
 39
0
 70
1
 66
1
  0
VERTEX
  8
0
 10
2106.08203125
 20
154.05593872070312
 42
-1
  0
VERTEX
  8
0
 10
2106.08203125
 20
273.83489990234375
 42
-1
  0
SEQEND
  0
POLYLINE
  8
0
 10
0
 20
0
 39
0
 70
1
 66
1
  0
VERTEX
  8
0
 10
2219.135986328125
 20
324.63076782226562
 42
-0
  0
VERTEX
  8
0
 10
2219.135986328125
 20
649.63079833984375
 42
-0
  0
VERTEX
  8
0
 10
2106.38427734375
 20
649.63079833984375
 42
0
  0
VERTEX
  8
0
 10
1959.4000244140625
 20
547.25177001953125
 42
0
  0
VERTEX
  8
0
 10
1959.4000244140625
 20
398.25177001953125
 42
0
  0
VERTEX
  8
0
 10
2020.635986328125
 20
333.28363037109375
 42
0
  0
VERTEX
  8
0
 10
2130.635986328125
 20
418.74624633789062
 42
0
  0
SEQEND
  0
POLYLINE
  8
0
 10
0
 20
0
 39
0
 70
1
 66
1
  0
VERTEX
  8
0
 10
2020.635986328125
 20
430.09927368164062
 42
-1
  0
VERTEX
  8
0
 10
2020.635986328125
 20
489.7646484375
 42
-1
  0
SEQEND
  0
POLYLINE
  8
0
 10
0
 20
0
 39
0
 70
1
 66
1
  0
VERTEX
  8
0
 10
2130.635986328125
 20
468.30209350585937
 42
-1
  0
VERTEX
  8
0
 10
2130.635986328125
 20
588.0810546875
 42
-1
  0
SEQEND
  0
POLYLINE
  8
0
 10
0
 20
0
 39
0
 70
1
 66
1
  0
VERTEX
  8
0
 10
2338.458984375
 20
651.36920166015625
 42
-0
  0
VERTEX
  8
0
 10
2338.458984375
 20
976.36920166015625
 42
-0
  0
VERTEX
  8
0
 10
2225.707275390625
 20
976.36920166015625
 42
0
  0
VERTEX
  8
0
 10
2078.72314453125
 20
873.990234375
 42
0
  0
VERTEX
  8
0
 10
2078.72314453125
 20
724.990234375
 42
0
  0
VERTEX
  8
0
 10
2139.958984375
 20
660.0220947265625
 42
0
  0
VERTEX
  8
0
 10
2249.958984375
 20
745.48468017578125
 42
0
  0
SEQEND
  0
POLYLINE
  8
0
 10
0
 20
0
 39
0
 70
1
 66
1
  0
VERTEX
  8
0
 10
2139.958984375
 20
756.83770751953125
 42
-1
  0
VERTEX
  8
0
 10
2139.958984375
 20
816.50311279296875
 42
-1
  0
SEQEND
  0
POLYLINE
  8
0
 10
0
 20
0
 39
0
 70
1
 66
1
  0
VERTEX
  8
0
 10
2249.958984375
 20
795.04052734375
 42
-1
  0
VERTEX
  8
0
 10
2249.958984375
 20
914.81951904296875
 42
-1
  0
SEQEND
  0
POLYLINE
  8
0
 10
0
 20
0
 39
0
 70
1
 66
1
  0
VERTEX
  8
0
 10
2464.67431640625
 20
10.384614944458008
 42
-0
  0
VERTEX
  8
0
 10
2464.67431640625
 20
335.38461303710937
 42
-0
  0
VERTEX
  8
0
 10
2351.922607421875
 20
335.38461303710937
 42
0
  0
VERTEX
  8
0
 10
2204.9384765625
 20
233.005615234375
 42
0
  0
VERTEX
  8
0
 10
2204.9384765625
 20
84.005622863769531
 42
0
  0
VERTEX
  8
0
 10
2266.17431640625
 20
19.0374755859375
 42
0
  0
VERTEX
  8
0
 10
2376.17431640625
 20
104.50009155273437
 42
0
  0
SEQEND
  0
POLYLINE
  8
0
 10
0
 20
0
 39
0
 70
1
 66
1
  0
VERTEX
  8
0
 10
2266.17431640625
 20
115.85311889648437
 42
-1
  0
VERTEX
  8
0
 10
2266.17431640625
 20
175.51849365234375
 42
-1
  0
SEQEND
  0
POLYLINE
  8
0
 10
0
 20
0
 39
0
 70
1
 66
1
  0
VERTEX
  8
0
 10
2376.17431640625
 20
154.05593872070312
 42
-1
  0
VERTEX
  8
0
 10
2376.17431640625
 20
273.83489990234375
 42
-1
  0
SEQEND
  0
POLYLINE
  8
0
 10
0
 20
0
 39
0
 70
1
 66
1
  0
VERTEX
  8
0
 10
2489.228271484375
 20
324.63076782226562
 42
-0
  0
VERTEX
  8
0
 10
2489.228271484375
 20
649.63079833984375
 42
-0
  0
VERTEX
  8
0
 10
2376.4765625
 20
649.63079833984375
 42
0
  0
VERTEX
  8
0
 10
2229.4921875
 20
547.25177001953125
 42
0
  0
VERTEX
  8
0
 10
2229.4921875
 20
398.25177001953125
 42
0
  0
VERTEX
  8
0
 10
2290.728271484375
 20
333.28363037109375
 42
0
  0
VERTEX
  8
0
 10
2400.728271484375
 20
418.74624633789062
 42
0
  0
SEQEND
  0
POLYLINE
  8
0
 10
0
 20
0
 39
0
 70
1
 66
1
  0
VERTEX
  8
0
 10
2290.728271484375
 20
430.09927368164062
 42
-1
  0
VERTEX
  8
0
 10
2290.728271484375
 20
489.7646484375
 42
-1
  0
SEQEND
  0
POLYLINE
  8
0
 10
0
 20
0
 39
0
 70
1
 66
1
  0
VERTEX
  8
0
 10
2400.728271484375
 20
468.30209350585937
 42
-1
  0
VERTEX
  8
0
 10
2400.728271484375
 20
588.0810546875
 42
-1
  0
SEQEND
  0
POLYLINE
  8
0
 10
0
 20
0
 39
0
 70
1
 66
1
  0
VERTEX
  8
0
 10
2591.906494140625
 20
1055.4559326171875
 42
1
  0
VERTEX
  8
0
 10
2324.908935546875
 20
1056.6209716796875
 42
1
  0
SEQEND
  0
POLYLINE
  8
0
 10
0
 20
0
 39
0
 70
1
 66
1
  0
VERTEX
  8
0
 10
2567.1591796875
 20
1063.0040283203125
 42
-0.034176722168922424
  0
VERTEX
  8
0
 10
2567.09423828125
 20
1048.1240234375
 42
-0
  0
VERTEX
  8
0
 10
2557.09423828125
 20
1048.167724609375
 42
-0.16008478403091431
  0
VERTEX
  8
0
 10
2533.19189453125
 20
991.1668701171875
 42
0
  0
VERTEX
  8
0
 10
2540.23193359375
 20
984.06500244140625
 42
-0.034176722168922424
  0
VERTEX
  8
0
 10
2529.664306640625
 20
973.58917236328125
 42
-0
  0
VERTEX
  8
0
 10
2522.624267578125
 20
980.6910400390625
 42
-0.16008478403091431
  0
VERTEX
  8
0
 10
2465.4169921875
 20
957.28692626953125
 42
0
  0
VERTEX
  8
0
 10
2465.373291015625
 20
947.2869873046875
 42
-0.034176722168922424
  0
VERTEX
  8
0
 10
2450.493408203125
 20
947.3519287109375
 42
-0
  0
VERTEX
  8
0
 10
2450.536865234375
 20
957.351806640625
 42
-0.16008478403091431
  0
VERTEX
  8
0
 10
2393.5361328125
 20
981.2542724609375
 42
0
  0
VERTEX
  8
0
 10
2386.434326171875
 20
974.214111328125
 42
-0.034176722168922424
  0
VERTEX
  8
0
 10
2375.95849609375
 20
984.78179931640625
 42
-0
  0
VERTEX
  8
0
 10
2383.060302734375
 20
991.82196044921875
 42
-0.16008478403091431
  0
VERTEX
  8
0
 10
2359.65625
 20
1049.0291748046875
 42
0
  0
VERTEX
  8
0
 10
2349.65625
 20
1049.0728759765625
 42
-0.034176722168922424
  0
VERTEX
  8
0
 10
2349.72119140625
 20
1063.952880859375
 42
-0
  0
VERTEX
  8
0
 10
2359.720947265625
 20
1063.9091796875
 42
-0.16008478403091431
  0
VERTEX
  8
0
 10
2383.62353515625
 20
1120.9100341796875
 42
0
  0
VERTEX
  8
0
 10
2376.583251953125
 20
1128.011962890625
 42
-0.034176722168922424
  0
VERTEX
  8
0
 10
2387.151123046875
 20
1138.48779296875
 42
-0
  0
VERTEX
  8
0
 10
2394.191162109375
 20
1131.3858642578125
 42
-0.16008478403091431
  0
VERTEX
  8
0
 10
2451.3984375
 20
1154.7900390625
 42
0
  0
VERTEX
  8
0
 10
2451.442138671875
 20
1164.7899169921875
 42
-0.034176722168922424
  0
VERTEX
  8
0
 10
2466.322021484375
 20
1164.7249755859375
 42
-0
  0
VERTEX
  8
0
 10
2466.278564453125
 20
1154.72509765625
 42
-0.16008478403091431
  0
VERTEX
  8
0
 10
2523.279296875
 20
1130.8226318359375
 42
0
  0
VERTEX
  8
0
 10
2530.381103515625
 20
1137.86279296875
 42
-0.034176722168922424
  0
VERTEX
  8
0
 10
2540.85693359375
 20
1127.295166015625
 42
-0
  0
VERTEX
  8
0
 10
2533.755126953125
 20
1120.2550048828125
 42
-0.16008478403091431
  0
VERTEX
  8
0
 10
2557.1591796875
 20
1063.0477294921875
 42
0
  0
SEQEND
  0
POLYLINE
  8
0
 10
0
 20
0
 39
0
 70
1
 66
1
  0
VERTEX
  8
0
 10
2530.9287109375
 20
921.38336181640625
 42
1
  0
VERTEX
  8
0
 10
2529.763671875
 20
654.3858642578125
 42
1
  0
SEQEND
  0
POLYLINE
  8
0
 10
0
 20
0
 39
0
 70
1
 66
1
  0
VERTEX
  8
0
 10
2523.380615234375
 20
896.63604736328125
 42
-0.034176722168922424
  0
VERTEX
  8
0
 10
2538.260498046875
 20
896.5711669921875
 42
-0
  0
VERTEX
  8
0
 10
2538.216796875
 20
886.57122802734375
 42
-0.16008478403091431
  0
VERTEX
  8
0
 10
2595.2177734375
 20
862.6688232421875
 42
0
  0
VERTEX
  8
0
 10
2602.319580078125
 20
869.70892333984375
 42
-0.034176722168922424
  0
VERTEX
  8
0
 10
2612.79541015625
 20
859.14129638671875
 42
-0
  0
VERTEX
  8
0
 10
2605.693603515625
 20
852.10113525390625
 42
-0.16008478403091431
  0
VERTEX
  8
0
 10
2629.09765625
 20
794.89385986328125
 42
0
  0
VERTEX
  8
0
 10
2639.09765625
 20
794.8502197265625
 42
-0.034176722168922424
  0
VERTEX
  8
0
 10
2639.03271484375
 20
779.97021484375
 42
-0
  0
VERTEX
  8
0
 10
2629.03271484375
 20
780.01385498046875
 42
-0.16008478403091431
  0
VERTEX
  8
0
 10
2605.13037109375
 20
723.01300048828125
 42
0
  0
VERTEX
  8
0
 10
2612.17041015625
 20
715.9111328125
 42
-0.034176722168922424
  0
VERTEX
  8
0
 10
2601.602783203125
 20
705.435302734375
 42
-0
  0
VERTEX
  8
0
 10
2594.562744140625
 20
712.53717041015625
 42
-0.16008478403091431
  0
VERTEX
  8
0
 10
2537.35546875
 20
689.133056640625
 42
0
  0
VERTEX
  8
0
 10
2537.311767578125
 20
679.1331787109375
 42
-0.034176722168922424
  0
VERTEX
  8
0
 10
2522.431884765625
 20
679.19805908203125
 42
-0
  0
VERTEX
  8
0
 10
2522.475341796875
 20
689.197998046875
 42
-0.16008478403091431
  0
VERTEX
  8
0
 10
2465.474609375
 20
713.10040283203125
 42
0
  0
VERTEX
  8
0
 10
2458.372802734375
 20
706.060302734375
 42
-0.034176722168922424
  0
VERTEX
  8
0
 10
2447.896728515625
 20
716.6279296875
 42
-0
  0
VERTEX
  8
0
 10
2454.998779296875
 20
723.6680908203125
 42
-0.16008478403091431
  0
VERTEX
  8
0
 10
2431.594482421875
 20
780.8753662109375
 42
0
  0
VERTEX
  8
0
 10
2421.5947265625
 20
780.91900634765625
 42
-0.034176722168922424
  0
VERTEX
  8
0
 10
2421.65966796875
 20
795.79901123046875
 42
-0
  0
VERTEX
  8
0
 10
2431.659423828125
 20
795.75537109375
 42
-0.16008478403091431
  0
VERTEX
  8
0
 10
2455.56201171875
 20
852.7562255859375
 42
0
  0
VERTEX
  8
0
 10
2448.521728515625
 20
859.85809326171875
 42
-0.034176722168922424
  0
VERTEX
  8
0
 10
2459.089599609375
 20
870.33392333984375
 42
-0
  0
VERTEX
  8
0
 10
2466.129638671875
 20
863.2320556640625
 42
-0.16008478403091431
  0
VERTEX
  8
0
 10
2523.3369140625
 20
886.63616943359375
 42
0
  0
SEQEND
  0
POLYLINE
  8
0
 10
0
 20
0
 39
0
 70
1
 66
1
  0
VERTEX
  8
0
 10
2609.11328125
 20
277.38333129882813
 42
1
  0
VERTEX
  8
0
 10
2607.9482421875
 20
10.385886192321777
 42
1
  0
SEQEND
  0
POLYLINE
  8
0
 10
0
 20
0
 39
0
 70
1
 66
1
  0
VERTEX
  8
0
 10
2601.565185546875
 20
252.63607788085937
 42
-0.034176722168922424
  0
VERTEX
  8
0
 10
2616.445068359375
 20
252.57115173339844
 42
-0
  0
VERTEX
  8
0
 10
2616.401611328125
 20
242.57124328613281
 42
-0.16008478403091431
  0
VERTEX
  8
0
 10
2673.40234375
 20
218.66880798339844
 42
0
  0
VERTEX
  8
0
 10
2680.504150390625
 20
225.70895385742187
 42
-0.034176722168922424
  0
VERTEX
  8
0
 10
2690.97998046875
 20
215.14128112792969
 42
-0
  0
VERTEX
  8
0
 10
2683.878173828125
 20
208.10113525390625
 42
-0.16008478403091431
  0
VERTEX
  8
0
 10
2707.2822265625
 20
150.89387512207031
 42
0
  0
VERTEX
  8
0
 10
2717.2822265625
 20
150.85023498535156
 42
-0.034176722168922424
  0
VERTEX
  8
0
 10
2717.21728515625
 20
135.97023010253906
 42
-0
  0
VERTEX
  8
0
 10
2707.21728515625
 20
136.01385498046875
 42
-0.16008478403091431
  0
VERTEX
  8
0
 10
2683.31494140625
 20
79.013015747070313
 42
0
  0
VERTEX
  8
0
 10
2690.355224609375
 20
71.911155700683594
 42
-0.034176722168922424
  0
VERTEX
  8
0
 10
2679.787353515625
 20
61.435310363769531
 42
-0
  0
VERTEX
  8
0
 10
2672.747314453125
 20
68.537162780761719
 42
-0.16008478403091431
  0
VERTEX
  8
0
 10
2615.5400390625
 20
45.133060455322266
 42
0
  0
VERTEX
  8
0
 10
2615.496337890625
 20
35.133155822753906
 42
-0.034176722168922424
  0
VERTEX
  8
0
 10
2600.616455078125
 20
35.198081970214844
 42
-0
  0
VERTEX
  8
0
 10
2600.659912109375
 20
45.197986602783203
 42
-0.16008478403091431
  0
VERTEX
  8
0
 10
2543.6591796875
 20
69.100418090820313
 42
0
  0
VERTEX
  8
0
 10
2536.557373046875
 20
62.060276031494141
 42
-0.034176722168922424
  0
VERTEX
  8
0
 10
2526.08154296875
 20
72.627944946289062
 42
-0
  0
VERTEX
  8
0
 10
2533.183349609375
 20
79.6680908203125
 42
-0.16008478403091431
  0
VERTEX
  8
0
 10
2509.779296875
 20
136.87535095214844
 42
0
  0
VERTEX
  8
0
 10
2499.779296875
 20
136.91899108886719
 42
-0.034176722168922424
  0
VERTEX
  8
0
 10
2499.84423828125
 20
151.79899597167969
 42
-0
  0
VERTEX
  8
0
 10
2509.84423828125
 20
151.75537109375
 42
-0.16008478403091431
  0
VERTEX
  8
0
 10
2533.74658203125
 20
208.75621032714844
 42
0
  0
VERTEX
  8
0
 10
2526.70654296875
 20
215.85806274414062
 42
-0.034176722168922424
  0
VERTEX
  8
0
 10
2537.274169921875
 20
226.33390808105469
 42
-0
  0
VERTEX
  8
0
 10
2544.314208984375
 20
219.2320556640625
 42
-0.16008478403091431
  0
VERTEX
  8
0
 10
2601.521484375
 20
242.63616943359375
 42
0
  0
SEQEND
  0
POLYLINE
  8
0
 10
0
 20
0
 39
0
 70
1
 66
1
  0
VERTEX
  8
0
 10
2633.667236328125
 20
553.93719482421875
 42
1
  0
VERTEX
  8
0
 10
2632.502197265625
 20
286.93972778320312
 42
1
  0
SEQEND
  0
POLYLINE
  8
0
 10
0
 20
0
 39
0
 70
1
 66
1
  0
VERTEX
  8
0
 10
2626.118896484375
 20
529.18994140625
 42
-0.034176722168922424
  0
VERTEX
  8
0
 10
2640.9990234375
 20
529.125
 42
-0
  0
VERTEX
  8
0
 10
2640.955322265625
 20
519.12506103515625
 42
-0.16008478403091431
  0
VERTEX
  8
0
 10
2697.956298828125
 20
495.22265625
 42
0
  0
VERTEX
  8
0
 10
2705.05810546875
 20
502.26278686523437
 42
-0.034176722168922424
  0
VERTEX
  8
0
 10
2715.533935546875
 20
491.69512939453125
 42
-0
  0
VERTEX
  8
0
 10
2708.43212890625
 20
484.65496826171875
 42
-0.16008478403091431
  0
VERTEX
  8
0
 10
2731.836181640625
 20
427.44772338867187
 42
0
  0
VERTEX
  8
0
 10
2741.836181640625
 20
427.40408325195312
 42
-0.034176722168922424
  0
VERTEX
  8
0
 10
2741.771240234375
 20
412.52407836914062
 42
-0
  0
VERTEX
  8
0
 10
2731.771240234375
 20
412.56771850585937
 42
-0.16008478403091431
  0
VERTEX
  8
0
 10
2707.868896484375
 20
355.56686401367187
 42
0
  0
VERTEX
  8
0
 10
2714.908935546875
 20
348.46499633789062
 42
-0.034176722168922424
  0
VERTEX
  8
0
 10
2704.34130859375
 20
337.98916625976562
 42
-0
  0
VERTEX
  8
0
 10
2697.301025390625
 20
345.09100341796875
 42
-0.16008478403091431
  0
VERTEX
  8
0
 10
2640.093994140625
 20
321.68692016601562
 42
0
  0
VERTEX
  8
0
 10
2640.05029296875
 20
311.68701171875
 42
-0.034176722168922424
  0
VERTEX
  8
0
 10
2625.170166015625
 20
311.75192260742188
 42
-0
  0
VERTEX
  8
0
 10
2625.2138671875
 20
321.7518310546875
 42
-0.16008478403091431
  0
VERTEX
  8
0
 10
2568.212890625
 20
345.65426635742187
 42
0
  0
VERTEX
  8
0
 10
2561.111083984375
 20
338.61410522460937
 42
-0.034176722168922424
  0
VERTEX
  8
0
 10
2550.63525390625
 20
349.18179321289063
 42
-0
  0
VERTEX
  8
0
 10
2557.737060546875
 20
356.221923828125
 42
-0.16008478403091431
  0
VERTEX
  8
0
 10
2534.3330078125
 20
413.42919921875
 42
0
  0
VERTEX
  8
0
 10
2524.333251953125
 20
413.47283935546875
 42
-0.034176722168922424
  0
VERTEX
  8
0
 10
2524.398193359375
 20
428.35284423828125
 42
-0
  0
VERTEX
  8
0
 10
2534.39794921875
 20
428.3092041015625
 42
-0.16008478403091431
  0
VERTEX
  8
0
 10
2558.300537109375
 20
485.31005859375
 42
0
  0
VERTEX
  8
0
 10
2551.26025390625
 20
492.41192626953125
 42
-0.034176722168922424
  0
VERTEX
  8
0
 10
2561.827880859375
 20
502.88775634765625
 42
-0
  0
VERTEX
  8
0
 10
2568.8681640625
 20
495.78591918945312
 42
-0.16008478403091431
  0
VERTEX
  8
0
 10
2626.075439453125
 20
519.19000244140625
 42
0
  0
SEQEND
  0
POLYLINE
  8
0
 10
0
 20
0
 39
0
 70
1
 66
1
  0
VERTEX
  8
0
 10
185.70768737792969
 20
221.76922607421875
 42
-0
  0
VERTEX
  8
0
 10
191.70768737792969
 20
215.76922607421875
 42
0
  0
VERTEX
  8
0
 10
204.70768737792969
 20
215.76922607421875
 42
-0
  0
VERTEX
  8
0
 10
210.70768737792969
 20
209.76922607421875
 42
0
  0
VERTEX
  8
0
 10
210.70768737792969
 20
151.76922607421875
 42
-0
  0
VERTEX
  8
0
 10
204.70768737792969
 20
145.76922607421875
 42
-0
  0
VERTEX
  8
0
 10
191.70768737792969
 20
145.76922607421875
 42
-0
  0
VERTEX
  8
0
 10
185.70768737792969
 20
139.76922607421875
 42
0
  0
VERTEX
  8
0
 10
185.70768737792969
 20
91.769233703613281
 42
-0
  0
VERTEX
  8
0
 10
191.70768737792969
 20
85.769233703613281
 42
0
  0
VERTEX
  8
0
 10
379.70770263671875
 20
85.769233703613281
 42
-0
  0
VERTEX
  8
0
 10
385.70770263671875
 20
91.769233703613281
 42
0
  0
VERTEX
  8
0
 10
385.70770263671875
 20
139.76922607421875
 42
0
  0
VERTEX
  8
0
 10
379.70770263671875
 20
145.76922607421875
 42
-0
  0
VERTEX
  8
0
 10
366.70770263671875
 20
145.76922607421875
 42
0
  0
VERTEX
  8
0
 10
360.70770263671875
 20
151.76922607421875
 42
0
  0
VERTEX
  8
0
 10
360.70770263671875
 20
209.76922607421875
 42
-0
  0
VERTEX
  8
0
 10
366.70770263671875
 20
215.76922607421875
 42
0
  0
VERTEX
  8
0
 10
379.70770263671875
 20
215.76922607421875
 42
-0
  0
VERTEX
  8
0
 10
385.70770263671875
 20
221.76922607421875
 42
0
  0
VERTEX
  8
0
 10
385.70770263671875
 20
299.76922607421875
 42
-0
  0
VERTEX
  8
0
 10
379.70770263671875
 20
305.76922607421875
 42
0
  0
VERTEX
  8
0
 10
331.70770263671875
 20
305.76922607421875
 42
0
  0
VERTEX
  8
0
 10
325.70770263671875
 20
299.76922607421875
 42
0
  0
VERTEX
  8
0
 10
325.70770263671875
 20
276.76922607421875
 42
-0
  0
VERTEX
  8
0
 10
319.70770263671875
 20
270.76922607421875
 42
0
  0
VERTEX
  8
0
 10
251.70768737792969
 20
270.76922607421875
 42
0
  0
VERTEX
  8
0
 10
245.70768737792969
 20
276.76922607421875
 42
-0
  0
VERTEX
  8
0
 10
245.70768737792969
 20
299.76922607421875
 42
-0
  0
VERTEX
  8
0
 10
239.70768737792969
 20
305.76922607421875
 42
0
  0
VERTEX
  8
0
 10
191.70768737792969
 20
305.76922607421875
 42
-0
  0
VERTEX
  8
0
 10
185.70768737792969
 20
299.76922607421875
 42
0
  0
SEQEND
  0
POLYLINE
  8
0
 10
0
 20
0
 39
0
 70
1
 66
1
  0
VERTEX
  8
0
 10
311.70770263671875
 20
141.96923828125
 42
-0.41421356797218323
  0
VERTEX
  8
0
 10
310.5076904296875
 20
140.76922607421875
 42
-0
  0
VERTEX
  8
0
 10
260.90768432617187
 20
140.76922607421875
 42
-0.41421356797218323
  0
VERTEX
  8
0
 10
259.70770263671875
 20
141.96923828125
 42
-0
  0
VERTEX
  8
0
 10
259.70770263671875
 20
209.55879211425781
 42
-0.33088359236717224
  0
VERTEX
  8
0
 10
267.53460693359375
 20
220.0911865234375
 42
-0.1473628431558609
  0
VERTEX
  8
0
 10
303.88076782226562
 20
220.0911865234375
 42
-0.33088359236717224
  0
VERTEX
  8
0
 10
311.70770263671875
 20
209.55879211425781
 42
0
  0
SEQEND
  0
POLYLINE
  8
0
 10
0
 20
0
 39
0
 70
1
 66
1
  0
VERTEX
  8
0
 10
296.63076782226562
 20
821.6153564453125
 42
-0
  0
VERTEX
  8
0
 10
302.63076782226562
 20
815.6153564453125
 42
0
  0
VERTEX
  8
0
 10
315.63076782226562
 20
815.6153564453125
 42
-0
  0
VERTEX
  8
0
 10
321.63076782226562
 20
809.6153564453125
 42
0
  0
VERTEX
  8
0
 10
321.63076782226562
 20
751.6153564453125
 42
-0
  0
VERTEX
  8
0
 10
315.63076782226562
 20
745.6153564453125
 42
-0
  0
VERTEX
  8
0
 10
302.63076782226562
 20
745.6153564453125
 42
-0
  0
VERTEX
  8
0
 10
296.63076782226562
 20
739.6153564453125
 42
0
  0
VERTEX
  8
0
 10
296.63076782226562
 20
691.6153564453125
 42
-0
  0
VERTEX
  8
0
 10
302.63076782226562
 20
685.6153564453125
 42
0
  0
VERTEX
  8
0
 10
490.63076782226562
 20
685.6153564453125
 42
-0
  0
VERTEX
  8
0
 10
496.63076782226562
 20
691.6153564453125
 42
0
  0
VERTEX
  8
0
 10
496.63076782226562
 20
739.6153564453125
 42
0
  0
VERTEX
  8
0
 10
490.63076782226562
 20
745.6153564453125
 42
-0
  0
VERTEX
  8
0
 10
477.63076782226562
 20
745.6153564453125
 42
0
  0
VERTEX
  8
0
 10
471.63076782226562
 20
751.6153564453125
 42
0
  0
VERTEX
  8
0
 10
471.63076782226562
 20
809.6153564453125
 42
-0
  0
VERTEX
  8
0
 10
477.63076782226562
 20
815.6153564453125
 42
0
  0
VERTEX
  8
0
 10
490.63076782226562
 20
815.6153564453125
 42
-0
  0
VERTEX
  8
0
 10
496.63076782226562
 20
821.6153564453125
 42
0
  0
VERTEX
  8
0
 10
496.63076782226562
 20
899.6153564453125
 42
-0
  0
VERTEX
  8
0
 10
490.63076782226562
 20
905.6153564453125
 42
0
  0
VERTEX
  8
0
 10
442.63076782226562
 20
905.6153564453125
 42
0
  0
VERTEX
  8
0
 10
436.63076782226562
 20
899.6153564453125
 42
0
  0
VERTEX
  8
0
 10
436.63076782226562
 20
876.6153564453125
 42
-0
  0
VERTEX
  8
0
 10
430.63076782226562
 20
870.6153564453125
 42
0
  0
VERTEX
  8
0
 10
362.63076782226562
 20
870.6153564453125
 42
0
  0
VERTEX
  8
0
 10
356.63076782226562
 20
876.6153564453125
 42
-0
  0
VERTEX
  8
0
 10
356.63076782226562
 20
899.6153564453125
 42
-0
  0
VERTEX
  8
0
 10
350.63076782226562
 20
905.6153564453125
 42
0
  0
VERTEX
  8
0
 10
302.63076782226562
 20
905.6153564453125
 42
-0
  0
VERTEX
  8
0
 10
296.63076782226562
 20
899.6153564453125
 42
0
  0
SEQEND
  0
POLYLINE
  8
0
 10
0
 20
0
 39
0
 70
1
 66
1
  0
VERTEX
  8
0
 10
422.63076782226562
 20
741.81536865234375
 42
-0.41421356797218323
  0
VERTEX
  8
0
 10
421.4307861328125
 20
740.6153564453125
 42
-0
  0
VERTEX
  8
0
 10
371.83078002929687
 20
740.6153564453125
 42
-0.41421356797218323
  0
VERTEX
  8
0
 10
370.63076782226562
 20
741.81536865234375
 42
-0
  0
VERTEX
  8
0
 10
370.63076782226562
 20
809.40496826171875
 42
-0.33088359236717224
  0
VERTEX
  8
0
 10
378.45770263671875
 20
819.93731689453125
 42
-0.1473628431558609
  0
VERTEX
  8
0
 10
414.80386352539062
 20
819.93731689453125
 42
-0.33088359236717224
  0
VERTEX
  8
0
 10
422.63076782226562
 20
809.40496826171875
 42
0
  0
SEQEND
  0
POLYLINE
  8
0
 10
0
 20
0
 39
0
 70
1
 66
1
  0
VERTEX
  8
0
 10
906.81536865234375
 20
221.76922607421875
 42
-0
  0
VERTEX
  8
0
 10
912.81536865234375
 20
215.76922607421875
 42
0
  0
VERTEX
  8
0
 10
925.81536865234375
 20
215.76922607421875
 42
-0
  0
VERTEX
  8
0
 10
931.81536865234375
 20
209.76922607421875
 42
0
  0
VERTEX
  8
0
 10
931.81536865234375
 20
151.76922607421875
 42
-0
  0
VERTEX
  8
0
 10
925.81536865234375
 20
145.76922607421875
 42
-0
  0
VERTEX
  8
0
 10
912.81536865234375
 20
145.76922607421875
 42
-0
  0
VERTEX
  8
0
 10
906.81536865234375
 20
139.76922607421875
 42
0
  0
VERTEX
  8
0
 10
906.81536865234375
 20
91.769233703613281
 42
-0
  0
VERTEX
  8
0
 10
912.81536865234375
 20
85.769233703613281
 42
0
  0
VERTEX
  8
0
 10
1100.8154296875
 20
85.769233703613281
 42
-0
  0
VERTEX
  8
0
 10
1106.8154296875
 20
91.769233703613281
 42
0
  0
VERTEX
  8
0
 10
1106.8154296875
 20
139.76922607421875
 42
0
  0
VERTEX
  8
0
 10
1100.8154296875
 20
145.76922607421875
 42
-0
  0
VERTEX
  8
0
 10
1087.8154296875
 20
145.76922607421875
 42
0
  0
VERTEX
  8
0
 10
1081.8154296875
 20
151.76922607421875
 42
0
  0
VERTEX
  8
0
 10
1081.8154296875
 20
209.76922607421875
 42
-0
  0
VERTEX
  8
0
 10
1087.8154296875
 20
215.76922607421875
 42
0
  0
VERTEX
  8
0
 10
1100.8154296875
 20
215.76922607421875
 42
-0
  0
VERTEX
  8
0
 10
1106.8154296875
 20
221.76922607421875
 42
0
  0
VERTEX
  8
0
 10
1106.8154296875
 20
299.76922607421875
 42
-0
  0
VERTEX
  8
0
 10
1100.8154296875
 20
305.76922607421875
 42
0
  0
VERTEX
  8
0
 10
1052.8154296875
 20
305.76922607421875
 42
0
  0
VERTEX
  8
0
 10
1046.8154296875
 20
299.76922607421875
 42
0
  0
VERTEX
  8
0
 10
1046.8154296875
 20
276.76922607421875
 42
-0
  0
VERTEX
  8
0
 10
1040.8154296875
 20
270.76922607421875
 42
0
  0
VERTEX
  8
0
 10
972.81536865234375
 20
270.76922607421875
 42
0
  0
VERTEX
  8
0
 10
966.81536865234375
 20
276.76922607421875
 42
-0
  0
VERTEX
  8
0
 10
966.81536865234375
 20
299.76922607421875
 42
-0
  0
VERTEX
  8
0
 10
960.81536865234375
 20
305.76922607421875
 42
0
  0
VERTEX
  8
0
 10
912.81536865234375
 20
305.76922607421875
 42
-0
  0
VERTEX
  8
0
 10
906.81536865234375
 20
299.76922607421875
 42
0
  0
SEQEND
  0
POLYLINE
  8
0
 10
0
 20
0
 39
0
 70
1
 66
1
  0
VERTEX
  8
0
 10
1032.8154296875
 20
141.96923828125
 42
-0.41421356797218323
  0
VERTEX
  8
0
 10
1031.6153564453125
 20
140.76922607421875
 42
-0
  0
VERTEX
  8
0
 10
982.015380859375
 20
140.76922607421875
 42
-0.41421356797218323
  0
VERTEX
  8
0
 10
980.81536865234375
 20
141.96923828125
 42
-0
  0
VERTEX
  8
0
 10
980.81536865234375
 20
209.55879211425781
 42
-0.33088359236717224
  0
VERTEX
  8
0
 10
988.642333984375
 20
220.0911865234375
 42
-0.1473628431558609
  0
VERTEX
  8
0
 10
1024.988525390625
 20
220.0911865234375
 42
-0.33088359236717224
  0
VERTEX
  8
0
 10
1032.8154296875
 20
209.55879211425781
 42
0
  0
SEQEND
  0
POLYLINE
  8
0
 10
0
 20
0
 39
0
 70
1
 66
1
  0
VERTEX
  8
0
 10
1017.7384643554687
 20
821.6153564453125
 42
-0
  0
VERTEX
  8
0
 10
1023.7384643554687
 20
815.6153564453125
 42
0
  0
VERTEX
  8
0
 10
1036.7384033203125
 20
815.6153564453125
 42
-0
  0
VERTEX
  8
0
 10
1042.7384033203125
 20
809.6153564453125
 42
0
  0
VERTEX
  8
0
 10
1042.7384033203125
 20
751.6153564453125
 42
-0
  0
VERTEX
  8
0
 10
1036.7384033203125
 20
745.6153564453125
 42
-0
  0
VERTEX
  8
0
 10
1023.7384643554687
 20
745.6153564453125
 42
-0
  0
VERTEX
  8
0
 10
1017.7384643554687
 20
739.6153564453125
 42
0
  0
VERTEX
  8
0
 10
1017.7384643554687
 20
691.6153564453125
 42
-0
  0
VERTEX
  8
0
 10
1023.7384643554687
 20
685.6153564453125
 42
0
  0
VERTEX
  8
0
 10
1211.7384033203125
 20
685.6153564453125
 42
-0
  0
VERTEX
  8
0
 10
1217.7384033203125
 20
691.6153564453125
 42
0
  0
VERTEX
  8
0
 10
1217.7384033203125
 20
739.6153564453125
 42
0
  0
VERTEX
  8
0
 10
1211.7384033203125
 20
745.6153564453125
 42
-0
  0
VERTEX
  8
0
 10
1198.7384033203125
 20
745.6153564453125
 42
0
  0
VERTEX
  8
0
 10
1192.7384033203125
 20
751.6153564453125
 42
0
  0
VERTEX
  8
0
 10
1192.7384033203125
 20
809.6153564453125
 42
-0
  0
VERTEX
  8
0
 10
1198.7384033203125
 20
815.6153564453125
 42
0
  0
VERTEX
  8
0
 10
1211.7384033203125
 20
815.6153564453125
 42
-0
  0
VERTEX
  8
0
 10
1217.7384033203125
 20
821.6153564453125
 42
0
  0
VERTEX
  8
0
 10
1217.7384033203125
 20
899.6153564453125
 42
-0
  0
VERTEX
  8
0
 10
1211.7384033203125
 20
905.6153564453125
 42
0
  0
VERTEX
  8
0
 10
1163.7384033203125
 20
905.6153564453125
 42
0
  0
VERTEX
  8
0
 10
1157.7384033203125
 20
899.6153564453125
 42
0
  0
VERTEX
  8
0
 10
1157.7384033203125
 20
876.6153564453125
 42
-0
  0
VERTEX
  8
0
 10
1151.7384033203125
 20
870.6153564453125
 42
0
  0
VERTEX
  8
0
 10
1083.7384033203125
 20
870.6153564453125
 42
0
  0
VERTEX
  8
0
 10
1077.7384033203125
 20
876.6153564453125
 42
-0
  0
VERTEX
  8
0
 10
1077.7384033203125
 20
899.6153564453125
 42
-0
  0
VERTEX
  8
0
 10
1071.7384033203125
 20
905.6153564453125
 42
0
  0
VERTEX
  8
0
 10
1023.7384643554687
 20
905.6153564453125
 42
-0
  0
VERTEX
  8
0
 10
1017.7384643554687
 20
899.6153564453125
 42
0
  0
SEQEND
  0
POLYLINE
  8
0
 10
0
 20
0
 39
0
 70
1
 66
1
  0
VERTEX
  8
0
 10
1143.7384033203125
 20
741.81536865234375
 42
-0.41421356797218323
  0
VERTEX
  8
0
 10
1142.5384521484375
 20
740.6153564453125
 42
-0
  0
VERTEX
  8
0
 10
1092.9384765625
 20
740.6153564453125
 42
-0.41421356797218323
  0
VERTEX
  8
0
 10
1091.7384033203125
 20
741.81536865234375
 42
-0
  0
VERTEX
  8
0
 10
1091.7384033203125
 20
809.40496826171875
 42
-0.33088359236717224
  0
VERTEX
  8
0
 10
1099.5654296875
 20
819.93731689453125
 42
-0.1473628431558609
  0
VERTEX
  8
0
 10
1135.9114990234375
 20
819.93731689453125
 42
-0.33088359236717224
  0
VERTEX
  8
0
 10
1143.7384033203125
 20
809.40496826171875
 42
0
  0
SEQEND
  0
POLYLINE
  8
0
 10
0
 20
0
 39
0
 70
1
 66
1
  0
VERTEX
  8
0
 10
110.38462066650391
 20
1122.5384521484375
 42
-0.41421392560005188
  0
VERTEX
  8
0
 10
114.38460540771484
 20
1126.5384521484375
 42
-0
  0
VERTEX
  8
0
 10
119.38462066650391
 20
1126.5384521484375
 42
1
  0
VERTEX
  8
0
 10
119.38462066650391
 20
1186.5384521484375
 42
-0
  0
VERTEX
  8
0
 10
44.604427337646484
 20
1186.5384521484375
 42
0.36396992206573486
  0
VERTEX
  8
0
 10
36.725963592529297
 20
1179.9276123046875
 42
-0
  0
VERTEX
  8
0
 10
10.384614944458008
 20
1030.5384521484375
 42
-0
  0
VERTEX
  8
0
 10
10.384614944458008
 20
1020.5384521484375
 42
-0
  0
VERTEX
  8
0
 10
70.384620666503906
 20
1020.5384521484375
 42
-0
  0
VERTEX
  8
0
 10
80.384620666503906
 20
1030.5384521484375
 42
-0
  0
VERTEX
  8
0
 10
80.384620666503906
 20
1089.5384521484375
 42
-0
  0
VERTEX
  8
0
 10
110.38462066650391
 20
1089.5384521484375
 42
-0
  0
SEQEND
  0
POLYLINE
  8
0
 10
0
 20
0
 39
0
 70
1
 66
1
  0
VERTEX
  8
0
 10
116.38462066650391
 20
1148.5384521484375
 42
-1
  0
VERTEX
  8
0
 10
116.38462066650391
 20
1164.5384521484375
 42
-1
  0
SEQEND
  0
POLYLINE
  8
0
 10
0
 20
0
 39
0
 70
1
 66
1
  0
VERTEX
  8
0
 10
66.384620666503906
 20
1155.9384765625
 42
-1
  0
VERTEX
  8
0
 10
66.384620666503906
 20
1169.138427734375
 42
-1
  0
SEQEND
  0
POLYLINE
  8
0
 10
0
 20
0
 39
0
 70
1
 66
1
  0
VERTEX
  8
0
 10
129.58782958984375
 20
1084.5384521484375
 42
-0.41421392560005188
  0
VERTEX
  8
0
 10
125.58783721923828
 20
1080.5384521484375
 42
-0
  0
VERTEX
  8
0
 10
120.58782196044922
 20
1080.5384521484375
 42
1
  0
VERTEX
  8
0
 10
120.58782196044922
 20
1020.5384521484375
 42
-0
  0
VERTEX
  8
0
 10
195.36802673339844
 20
1020.5384521484375
 42
0.36396992206573486
  0
VERTEX
  8
0
 10
203.24649047851562
 20
1027.1492919921875
 42
-0
  0
VERTEX
  8
0
 10
229.58782958984375
 20
1176.5384521484375
 42
-0
  0
VERTEX
  8
0
 10
229.58782958984375
 20
1186.5384521484375
 42
-0
  0
VERTEX
  8
0
 10
169.58782958984375
 20
1186.5384521484375
 42
-0
  0
VERTEX
  8
0
 10
159.58782958984375
 20
1176.5384521484375
 42
-0
  0
VERTEX
  8
0
 10
159.58782958984375
 20
1117.5384521484375
 42
-0
  0
VERTEX
  8
0
 10
129.58782958984375
 20
1117.5384521484375
 42
-0
  0
SEQEND
  0
POLYLINE
  8
0
 10
0
 20
0
 39
0
 70
1
 66
1
  0
VERTEX
  8
0
 10
123.58782196044922
 20
1058.5384521484375
 42
-1
  0
VERTEX
  8
0
 10
123.58782196044922
 20
1042.5384521484375
 42
-1
  0
SEQEND
  0
POLYLINE
  8
0
 10
0
 20
0
 39
0
 70
1
 66
1
  0
VERTEX
  8
0
 10
173.58782958984375
 20
1051.138427734375
 42
-1
  0
VERTEX
  8
0
 10
173.58782958984375
 20
1037.9384765625
 42
-1
  0
SEQEND
  0
POLYLINE
  8
0
 10
0
 20
0
 39
0
 70
1
 66
1
  0
VERTEX
  8
0
 10
314.78463745117187
 20
1122.5384521484375
 42
-0.41421392560005188
  0
VERTEX
  8
0
 10
318.78460693359375
 20
1126.5384521484375
 42
-0
  0
VERTEX
  8
0
 10
323.78463745117187
 20
1126.5384521484375
 42
1
  0
VERTEX
  8
0
 10
323.78463745117187
 20
1186.5384521484375
 42
-0
  0
VERTEX
  8
0
 10
249.00442504882813
 20
1186.5384521484375
 42
0.36396992206573486
  0
VERTEX
  8
0
 10
241.12596130371094
 20
1179.9276123046875
 42
-0
  0
VERTEX
  8
0
 10
214.78462219238281
 20
1030.5384521484375
 42
-0
  0
VERTEX
  8
0
 10
214.78462219238281
 20
1020.5384521484375
 42
-0
  0
VERTEX
  8
0
 10
274.78463745117187
 20
1020.5384521484375
 42
-0
  0
VERTEX
  8
0
 10
284.78463745117187
 20
1030.5384521484375
 42
-0
  0
VERTEX
  8
0
 10
284.78463745117187
 20
1089.5384521484375
 42
-0
  0
VERTEX
  8
0
 10
314.78463745117187
 20
1089.5384521484375
 42
-0
  0
SEQEND
  0
POLYLINE
  8
0
 10
0
 20
0
 39
0
 70
1
 66
1
  0
VERTEX
  8
0
 10
320.78463745117187
 20
1148.5384521484375
 42
-1
  0
VERTEX
  8
0
 10
320.78463745117187
 20
1164.5384521484375
 42
-1
  0
SEQEND
  0
POLYLINE
  8
0
 10
0
 20
0
 39
0
 70
1
 66
1
  0
VERTEX
  8
0
 10
270.78463745117187
 20
1155.9384765625
 42
-1
  0
VERTEX
  8
0
 10
270.78463745117187
 20
1169.138427734375
 42
-1
  0
SEQEND
  0
POLYLINE
  8
0
 10
0
 20
0
 39
0
 70
1
 66
1
  0
VERTEX
  8
0
 10
333.98782348632812
 20
1084.5384521484375
 42
-0.41421392560005188
  0
VERTEX
  8
0
 10
329.98782348632812
 20
1080.5384521484375
 42
-0
  0
VERTEX
  8
0
 10
324.98782348632812
 20
1080.5384521484375
 42
1
  0
VERTEX
  8
0
 10
324.98782348632812
 20
1020.5384521484375
 42
-0
  0
VERTEX
  8
0
 10
399.76800537109375
 20
1020.5384521484375
 42
0.36396992206573486
  0
VERTEX
  8
0
 10
407.646484375
 20
1027.1492919921875
 42
-0
  0
VERTEX
  8
0
 10
433.98782348632812
 20
1176.5384521484375
 42
-0
  0
VERTEX
  8
0
 10
433.98782348632812
 20
1186.5384521484375
 42
-0
  0
VERTEX
  8
0
 10
373.98782348632812
 20
1186.5384521484375
 42
-0
  0
VERTEX
  8
0
 10
363.98782348632812
 20
1176.5384521484375
 42
-0
  0
VERTEX
  8
0
 10
363.98782348632812
 20
1117.5384521484375
 42
-0
  0
VERTEX
  8
0
 10
333.98782348632812
 20
1117.5384521484375
 42
-0
  0
SEQEND
  0
POLYLINE
  8
0
 10
0
 20
0
 39
0
 70
1
 66
1
  0
VERTEX
  8
0
 10
327.98782348632812
 20
1058.5384521484375
 42
-1
  0
VERTEX
  8
0
 10
327.98782348632812
 20
1042.5384521484375
 42
-1
  0
SEQEND
  0
POLYLINE
  8
0
 10
0
 20
0
 39
0
 70
1
 66
1
  0
VERTEX
  8
0
 10
377.98782348632812
 20
1051.138427734375
 42
-1
  0
VERTEX
  8
0
 10
377.98782348632812
 20
1037.9384765625
 42
-1
  0
SEQEND
  0
POLYLINE
  8
0
 10
0
 20
0
 39
0
 70
1
 66
1
  0
VERTEX
  8
0
 10
320.60000610351562
 20
522.69232177734375
 42
-0.41421392560005188
  0
VERTEX
  8
0
 10
324.60000610351562
 20
526.69232177734375
 42
-0
  0
VERTEX
  8
0
 10
329.60000610351562
 20
526.69232177734375
 42
1
  0
VERTEX
  8
0
 10
329.60000610351562
 20
586.69232177734375
 42
-0
  0
VERTEX
  8
0
 10
254.81980895996094
 20
586.69232177734375
 42
0.36396992206573486
  0
VERTEX
  8
0
 10
246.94134521484375
 20
580.08148193359375
 42
-0
  0
VERTEX
  8
0
 10
220.60000610351562
 20
430.69232177734375
 42
-0
  0
VERTEX
  8
0
 10
220.60000610351562
 20
420.69232177734375
 42
-0
  0
VERTEX
  8
0
 10
280.60000610351562
 20
420.69232177734375
 42
-0
  0
VERTEX
  8
0
 10
290.60000610351562
 20
430.69232177734375
 42
-0
  0
VERTEX
  8
0
 10
290.60000610351562
 20
489.69232177734375
 42
-0
  0
VERTEX
  8
0
 10
320.60000610351562
 20
489.69232177734375
 42
-0
  0
SEQEND
  0
POLYLINE
  8
0
 10
0
 20
0
 39
0
 70
1
 66
1
  0
VERTEX
  8
0
 10
326.60000610351562
 20
548.69232177734375
 42
-1
  0
VERTEX
  8
0
 10
326.60000610351562
 20
564.69232177734375
 42
-1
  0
SEQEND
  0
POLYLINE
  8
0
 10
0
 20
0
 39
0
 70
1
 66
1
  0
VERTEX
  8
0
 10
276.60000610351562
 20
556.09228515625
 42
-1
  0
VERTEX
  8
0
 10
276.60000610351562
 20
569.29229736328125
 42
-1
  0
SEQEND
  0
POLYLINE
  8
0
 10
0
 20
0
 39
0
 70
1
 66
1
  0
VERTEX
  8
0
 10
339.80319213867187
 20
484.69232177734375
 42
-0.41421392560005188
  0
VERTEX
  8
0
 10
335.80322265625
 20
480.69232177734375
 42
-0
  0
VERTEX
  8
0
 10
330.80319213867187
 20
480.69232177734375
 42
1
  0
VERTEX
  8
0
 10
330.80319213867187
 20
420.69232177734375
 42
-0
  0
VERTEX
  8
0
 10
405.58340454101562
 20
420.69232177734375
 42
0.36396992206573486
  0
VERTEX
  8
0
 10
413.46185302734375
 20
427.30313110351562
 42
-0
  0
VERTEX
  8
0
 10
439.80322265625
 20
576.69232177734375
 42
-0
  0
VERTEX
  8
0
 10
439.80322265625
 20
586.69232177734375
 42
-0
  0
VERTEX
  8
0
 10
379.80319213867187
 20
586.69232177734375
 42
-0
  0
VERTEX
  8
0
 10
369.80319213867187
 20
576.69232177734375
 42
-0
  0
VERTEX
  8
0
 10
369.80319213867187
 20
517.69232177734375
 42
-0
  0
VERTEX
  8
0
 10
339.80319213867187
 20
517.69232177734375
 42
-0
  0
SEQEND
  0
POLYLINE
  8
0
 10
0
 20
0
 39
0
 70
1
 66
1
  0
VERTEX
  8
0
 10
333.80319213867187
 20
458.69232177734375
 42
-1
  0
VERTEX
  8
0
 10
333.80319213867187
 20
442.69232177734375
 42
-1
  0
SEQEND
  0
POLYLINE
  8
0
 10
0
 20
0
 39
0
 70
1
 66
1
  0
VERTEX
  8
0
 10
383.80319213867187
 20
451.29232788085937
 42
-1
  0
VERTEX
  8
0
 10
383.80319213867187
 20
438.09231567382812
 42
-1
  0
SEQEND
  0
POLYLINE
  8
0
 10
0
 20
0
 39
0
 70
1
 66
1
  0
VERTEX
  8
0
 10
519.18463134765625
 20
1122.5384521484375
 42
-0.41421392560005188
  0
VERTEX
  8
0
 10
523.18463134765625
 20
1126.5384521484375
 42
-0
  0
VERTEX
  8
0
 10
528.18463134765625
 20
1126.5384521484375
 42
1
  0
VERTEX
  8
0
 10
528.18463134765625
 20
1186.5384521484375
 42
-0
  0
VERTEX
  8
0
 10
453.4044189453125
 20
1186.5384521484375
 42
0.36396992206573486
  0
VERTEX
  8
0
 10
445.52597045898437
 20
1179.9276123046875
 42
-0
  0
VERTEX
  8
0
 10
419.18460083007812
 20
1030.5384521484375
 42
-0
  0
VERTEX
  8
0
 10
419.18460083007812
 20
1020.5384521484375
 42
-0
  0
VERTEX
  8
0
 10
479.18463134765625
 20
1020.5384521484375
 42
-0
  0
VERTEX
  8
0
 10
489.18463134765625
 20
1030.5384521484375
 42
-0
  0
VERTEX
  8
0
 10
489.18463134765625
 20
1089.5384521484375
 42
-0
  0
VERTEX
  8
0
 10
519.18463134765625
 20
1089.5384521484375
 42
-0
  0
SEQEND
  0
POLYLINE
  8
0
 10
0
 20
0
 39
0
 70
1
 66
1
  0
VERTEX
  8
0
 10
525.18463134765625
 20
1148.5384521484375
 42
-1
  0
VERTEX
  8
0
 10
525.18463134765625
 20
1164.5384521484375
 42
-1
  0
SEQEND
  0
POLYLINE
  8
0
 10
0
 20
0
 39
0
 70
1
 66
1
  0
VERTEX
  8
0
 10
475.18463134765625
 20
1155.9384765625
 42
-1
  0
VERTEX
  8
0
 10
475.18463134765625
 20
1169.138427734375
 42
-1
  0
SEQEND
  0
POLYLINE
  8
0
 10
0
 20
0
 39
0
 70
1
 66
1
  0
VERTEX
  8
0
 10
538.3878173828125
 20
1084.5384521484375
 42
-0.41421392560005188
  0
VERTEX
  8
0
 10
534.3878173828125
 20
1080.5384521484375
 42
-0
  0
VERTEX
  8
0
 10
529.3878173828125
 20
1080.5384521484375
 42
1
  0
VERTEX
  8
0
 10
529.3878173828125
 20
1020.5384521484375
 42
-0
  0
VERTEX
  8
0
 10
604.16802978515625
 20
1020.5384521484375
 42
0.36396992206573486
  0
VERTEX
  8
0
 10
612.0465087890625
 20
1027.1492919921875
 42
-0
  0
VERTEX
  8
0
 10
638.3878173828125
 20
1176.5384521484375
 42
-0
  0
VERTEX
  8
0
 10
638.3878173828125
 20
1186.5384521484375
 42
-0
  0
VERTEX
  8
0
 10
578.3878173828125
 20
1186.5384521484375
 42
-0
  0
VERTEX
  8
0
 10
568.3878173828125
 20
1176.5384521484375
 42
-0
  0
VERTEX
  8
0
 10
568.3878173828125
 20
1117.5384521484375
 42
-0
  0
VERTEX
  8
0
 10
538.3878173828125
 20
1117.5384521484375
 42
-0
  0
SEQEND
  0
POLYLINE
  8
0
 10
0
 20
0
 39
0
 70
1
 66
1
  0
VERTEX
  8
0
 10
532.3878173828125
 20
1058.5384521484375
 42
-1
  0
VERTEX
  8
0
 10
532.3878173828125
 20
1042.5384521484375
 42
-1
  0
SEQEND
  0
POLYLINE
  8
0
 10
0
 20
0
 39
0
 70
1
 66
1
  0
VERTEX
  8
0
 10
582.3878173828125
 20
1051.138427734375
 42
-1
  0
VERTEX
  8
0
 10
582.3878173828125
 20
1037.9384765625
 42
-1
  0
SEQEND
  0
POLYLINE
  8
0
 10
0
 20
0
 39
0
 70
1
 66
1
  0
VERTEX
  8
0
 10
723.79998779296875
 20
1122.5384521484375
 42
-0.41421392560005188
  0
VERTEX
  8
0
 10
727.79998779296875
 20
1126.5384521484375
 42
-0
  0
VERTEX
  8
0
 10
732.79998779296875
 20
1126.5384521484375
 42
1
  0
VERTEX
  8
0
 10
732.79998779296875
 20
1186.5384521484375
 42
-0
  0
VERTEX
  8
0
 10
658.01983642578125
 20
1186.5384521484375
 42
0.36396992206573486
  0
VERTEX
  8
0
 10
650.141357421875
 20
1179.9276123046875
 42
-0
  0
VERTEX
  8
0
 10
623.79998779296875
 20
1030.5384521484375
 42
-0
  0
VERTEX
  8
0
 10
623.79998779296875
 20
1020.5384521484375
 42
-0
  0
VERTEX
  8
0
 10
683.79998779296875
 20
1020.5384521484375
 42
-0
  0
VERTEX
  8
0
 10
693.79998779296875
 20
1030.5384521484375
 42
-0
  0
VERTEX
  8
0
 10
693.79998779296875
 20
1089.5384521484375
 42
-0
  0
VERTEX
  8
0
 10
723.79998779296875
 20
1089.5384521484375
 42
-0
  0
SEQEND
  0
POLYLINE
  8
0
 10
0
 20
0
 39
0
 70
1
 66
1
  0
VERTEX
  8
0
 10
729.79998779296875
 20
1148.5384521484375
 42
-1
  0
VERTEX
  8
0
 10
729.79998779296875
 20
1164.5384521484375
 42
-1
  0
SEQEND
  0
POLYLINE
  8
0
 10
0
 20
0
 39
0
 70
1
 66
1
  0
VERTEX
  8
0
 10
679.79998779296875
 20
1155.9384765625
 42
-1
  0
VERTEX
  8
0
 10
679.79998779296875
 20
1169.138427734375
 42
-1
  0
SEQEND
  0
POLYLINE
  8
0
 10
0
 20
0
 39
0
 70
1
 66
1
  0
VERTEX
  8
0
 10
743.00323486328125
 20
1084.5384521484375
 42
-0.41421392560005188
  0
VERTEX
  8
0
 10
739.00323486328125
 20
1080.5384521484375
 42
-0
  0
VERTEX
  8
0
 10
734.00323486328125
 20
1080.5384521484375
 42
1
  0
VERTEX
  8
0
 10
734.00323486328125
 20
1020.5384521484375
 42
-0
  0
VERTEX
  8
0
 10
808.78338623046875
 20
1020.5384521484375
 42
0.36396992206573486
  0
VERTEX
  8
0
 10
816.661865234375
 20
1027.1492919921875
 42
-0
  0
VERTEX
  8
0
 10
843.00323486328125
 20
1176.5384521484375
 42
-0
  0
VERTEX
  8
0
 10
843.00323486328125
 20
1186.5384521484375
 42
-0
  0
VERTEX
  8
0
 10
783.00323486328125
 20
1186.5384521484375
 42
-0
  0
VERTEX
  8
0
 10
773.00323486328125
 20
1176.5384521484375
 42
-0
  0
VERTEX
  8
0
 10
773.00323486328125
 20
1117.5384521484375
 42
-0
  0
VERTEX
  8
0
 10
743.00323486328125
 20
1117.5384521484375
 42
-0
  0
SEQEND
  0
POLYLINE
  8
0
 10
0
 20
0
 39
0
 70
1
 66
1
  0
VERTEX
  8
0
 10
737.00323486328125
 20
1058.5384521484375
 42
-1
  0
VERTEX
  8
0
 10
737.00323486328125
 20
1042.5384521484375
 42
-1
  0
SEQEND
  0
POLYLINE
  8
0
 10
0
 20
0
 39
0
 70
1
 66
1
  0
VERTEX
  8
0
 10
787.00323486328125
 20
1051.138427734375
 42
-1
  0
VERTEX
  8
0
 10
787.00323486328125
 20
1037.9384765625
 42
-1
  0
SEQEND
  0
POLYLINE
  8
0
 10
0
 20
0
 39
0
 70
1
 66
1
  0
VERTEX
  8
0
 10
928.20001220703125
 20
1122.5384521484375
 42
-0.41421392560005188
  0
VERTEX
  8
0
 10
932.20001220703125
 20
1126.5384521484375
 42
-0
  0
VERTEX
  8
0
 10
937.20001220703125
 20
1126.5384521484375
 42
1
  0
VERTEX
  8
0
 10
937.20001220703125
 20
1186.5384521484375
 42
-0
  0
VERTEX
  8
0
 10
862.4197998046875
 20
1186.5384521484375
 42
0.36396992206573486
  0
VERTEX
  8
0
 10
854.54132080078125
 20
1179.9276123046875
 42
-0
  0
VERTEX
  8
0
 10
828.20001220703125
 20
1030.5384521484375
 42
-0
  0
VERTEX
  8
0
 10
828.20001220703125
 20
1020.5384521484375
 42
-0
  0
VERTEX
  8
0
 10
888.20001220703125
 20
1020.5384521484375
 42
-0
  0
VERTEX
  8
0
 10
898.20001220703125
 20
1030.5384521484375
 42
-0
  0
VERTEX
  8
0
 10
898.20001220703125
 20
1089.5384521484375
 42
-0
  0
VERTEX
  8
0
 10
928.20001220703125
 20
1089.5384521484375
 42
-0
  0
SEQEND
  0
POLYLINE
  8
0
 10
0
 20
0
 39
0
 70
1
 66
1
  0
VERTEX
  8
0
 10
934.20001220703125
 20
1148.5384521484375
 42
-1
  0
VERTEX
  8
0
 10
934.20001220703125
 20
1164.5384521484375
 42
-1
  0
SEQEND
  0
POLYLINE
  8
0
 10
0
 20
0
 39
0
 70
1
 66
1
  0
VERTEX
  8
0
 10
884.20001220703125
 20
1155.9384765625
 42
-1
  0
VERTEX
  8
0
 10
884.20001220703125
 20
1169.138427734375
 42
-1
  0
SEQEND
  0
POLYLINE
  8
0
 10
0
 20
0
 39
0
 70
1
 66
1
  0
VERTEX
  8
0
 10
947.4031982421875
 20
1084.5384521484375
 42
-0.41421392560005188
  0
VERTEX
  8
0
 10
943.4031982421875
 20
1080.5384521484375
 42
-0
  0
VERTEX
  8
0
 10
938.4031982421875
 20
1080.5384521484375
 42
1
  0
VERTEX
  8
0
 10
938.4031982421875
 20
1020.5384521484375
 42
-0
  0
VERTEX
  8
0
 10
1013.1834106445312
 20
1020.5384521484375
 42
0.36396992206573486
  0
VERTEX
  8
0
 10
1021.0618896484375
 20
1027.1492919921875
 42
-0
  0
VERTEX
  8
0
 10
1047.4031982421875
 20
1176.5384521484375
 42
-0
  0
VERTEX
  8
0
 10
1047.4031982421875
 20
1186.5384521484375
 42
-0
  0
VERTEX
  8
0
 10
987.4031982421875
 20
1186.5384521484375
 42
-0
  0
VERTEX
  8
0
 10
977.4031982421875
 20
1176.5384521484375
 42
-0
  0
VERTEX
  8
0
 10
977.4031982421875
 20
1117.5384521484375
 42
-0
  0
VERTEX
  8
0
 10
947.4031982421875
 20
1117.5384521484375
 42
-0
  0
SEQEND
  0
POLYLINE
  8
0
 10
0
 20
0
 39
0
 70
1
 66
1
  0
VERTEX
  8
0
 10
941.4031982421875
 20
1058.5384521484375
 42
-1
  0
VERTEX
  8
0
 10
941.4031982421875
 20
1042.5384521484375
 42
-1
  0
SEQEND
  0
POLYLINE
  8
0
 10
0
 20
0
 39
0
 70
1
 66
1
  0
VERTEX
  8
0
 10
991.4031982421875
 20
1051.138427734375
 42
-1
  0
VERTEX
  8
0
 10
991.4031982421875
 20
1037.9384765625
 42
-1
  0
SEQEND
  0
POLYLINE
  8
0
 10
0
 20
0
 39
0
 70
1
 66
1
  0
VERTEX
  8
0
 10
1041.7076416015625
 20
522.69232177734375
 42
-0.41421392560005188
  0
VERTEX
  8
0
 10
1045.7076416015625
 20
526.69232177734375
 42
-0
  0
VERTEX
  8
0
 10
1050.7076416015625
 20
526.69232177734375
 42
1
  0
VERTEX
  8
0
 10
1050.7076416015625
 20
586.69232177734375
 42
-0
  0
VERTEX
  8
0
 10
975.927490234375
 20
586.69232177734375
 42
0.36396992206573486
  0
VERTEX
  8
0
 10
968.04901123046875
 20
580.08148193359375
 42
-0
  0
VERTEX
  8
0
 10
941.70770263671875
 20
430.69232177734375
 42
-0
  0
VERTEX
  8
0
 10
941.70770263671875
 20
420.69232177734375
 42
-0
  0
VERTEX
  8
0
 10
1001.7077026367187
 20
420.69232177734375
 42
-0
  0
VERTEX
  8
0
 10
1011.7077026367187
 20
430.69232177734375
 42
-0
  0
VERTEX
  8
0
 10
1011.7077026367187
 20
489.69232177734375
 42
-0
  0
VERTEX
  8
0
 10
1041.7076416015625
 20
489.69232177734375
 42
-0
  0
SEQEND
  0
POLYLINE
  8
0
 10
0
 20
0
 39
0
 70
1
 66
1
  0
VERTEX
  8
0
 10
1047.7076416015625
 20
548.69232177734375
 42
-1
  0
VERTEX
  8
0
 10
1047.7076416015625
 20
564.69232177734375
 42
-1
  0
SEQEND
  0
POLYLINE
  8
0
 10
0
 20
0
 39
0
 70
1
 66
1
  0
VERTEX
  8
0
 10
997.70770263671875
 20
556.09228515625
 42
-1
  0
VERTEX
  8
0
 10
997.70770263671875
 20
569.29229736328125
 42
-1
  0
SEQEND
  0
POLYLINE
  8
0
 10
0
 20
0
 39
0
 70
1
 66
1
  0
VERTEX
  8
0
 10
1060.910888671875
 20
484.69232177734375
 42
-0.41421392560005188
  0
VERTEX
  8
0
 10
1056.910888671875
 20
480.69232177734375
 42
-0
  0
VERTEX
  8
0
 10
1051.910888671875
 20
480.69232177734375
 42
1
  0
VERTEX
  8
0
 10
1051.910888671875
 20
420.69232177734375
 42
-0
  0
VERTEX
  8
0
 10
1126.6910400390625
 20
420.69232177734375
 42
0.36396992206573486
  0
VERTEX
  8
0
 10
1134.569580078125
 20
427.30313110351562
 42
-0
  0
VERTEX
  8
0
 10
1160.910888671875
 20
576.69232177734375
 42
-0
  0
VERTEX
  8
0
 10
1160.910888671875
 20
586.69232177734375
 42
-0
  0
VERTEX
  8
0
 10
1100.910888671875
 20
586.69232177734375
 42
-0
  0
VERTEX
  8
0
 10
1090.910888671875
 20
576.69232177734375
 42
-0
  0
VERTEX
  8
0
 10
1090.910888671875
 20
517.69232177734375
 42
-0
  0
VERTEX
  8
0
 10
1060.910888671875
 20
517.69232177734375
 42
-0
  0
SEQEND
  0
POLYLINE
  8
0
 10
0
 20
0
 39
0
 70
1
 66
1
  0
VERTEX
  8
0
 10
1054.910888671875
 20
458.69232177734375
 42
-1
  0
VERTEX
  8
0
 10
1054.910888671875
 20
442.69232177734375
 42
-1
  0
SEQEND
  0
POLYLINE
  8
0
 10
0
 20
0
 39
0
 70
1
 66
1
  0
VERTEX
  8
0
 10
1104.910888671875
 20
451.29232788085937
 42
-1
  0
VERTEX
  8
0
 10
1104.910888671875
 20
438.09231567382812
 42
-1
  0
SEQEND
  0
POLYLINE
  8
0
 10
0
 20
0
 39
0
 70
1
 66
1
  0
VERTEX
  8
0
 10
1132.5999755859375
 20
1122.5384521484375
 42
-0.41421392560005188
  0
VERTEX
  8
0
 10
1136.5999755859375
 20
1126.5384521484375
 42
-0
  0
VERTEX
  8
0
 10
1141.5999755859375
 20
1126.5384521484375
 42
1
  0
VERTEX
  8
0
 10
1141.5999755859375
 20
1186.5384521484375
 42
-0
  0
VERTEX
  8
0
 10
1066.81982421875
 20
1186.5384521484375
 42
0.36396992206573486
  0
VERTEX
  8
0
 10
1058.94140625
 20
1179.9276123046875
 42
-0
  0
VERTEX
  8
0
 10
1032.5999755859375
 20
1030.5384521484375
 42
-0
  0
VERTEX
  8
0
 10
1032.5999755859375
 20
1020.5384521484375
 42
-0
  0
VERTEX
  8
0
 10
1092.5999755859375
 20
1020.5384521484375
 42
-0
  0
VERTEX
  8
0
 10
1102.5999755859375
 20
1030.5384521484375
 42
-0
  0
VERTEX
  8
0
 10
1102.5999755859375
 20
1089.5384521484375
 42
-0
  0
VERTEX
  8
0
 10
1132.5999755859375
 20
1089.5384521484375
 42
-0
  0
SEQEND
  0
POLYLINE
  8
0
 10
0
 20
0
 39
0
 70
1
 66
1
  0
VERTEX
  8
0
 10
1138.5999755859375
 20
1148.5384521484375
 42
-1
  0
VERTEX
  8
0
 10
1138.5999755859375
 20
1164.5384521484375
 42
-1
  0
SEQEND
  0
POLYLINE
  8
0
 10
0
 20
0
 39
0
 70
1
 66
1
  0
VERTEX
  8
0
 10
1088.5999755859375
 20
1155.9384765625
 42
-1
  0
VERTEX
  8
0
 10
1088.5999755859375
 20
1169.138427734375
 42
-1
  0
SEQEND
  0
POLYLINE
  8
0
 10
0
 20
0
 39
0
 70
1
 66
1
  0
VERTEX
  8
0
 10
1151.80322265625
 20
1084.5384521484375
 42
-0.41421392560005188
  0
VERTEX
  8
0
 10
1147.80322265625
 20
1080.5384521484375
 42
-0
  0
VERTEX
  8
0
 10
1142.80322265625
 20
1080.5384521484375
 42
1
  0
VERTEX
  8
0
 10
1142.80322265625
 20
1020.5384521484375
 42
-0
  0
VERTEX
  8
0
 10
1217.5833740234375
 20
1020.5384521484375
 42
0.36396992206573486
  0
VERTEX
  8
0
 10
1225.4619140625
 20
1027.1492919921875
 42
-0
  0
VERTEX
  8
0
 10
1251.80322265625
 20
1176.5384521484375
 42
-0
  0
VERTEX
  8
0
 10
1251.80322265625
 20
1186.5384521484375
 42
-0
  0
VERTEX
  8
0
 10
1191.80322265625
 20
1186.5384521484375
 42
-0
  0
VERTEX
  8
0
 10
1181.80322265625
 20
1176.5384521484375
 42
-0
  0
VERTEX
  8
0
 10
1181.80322265625
 20
1117.5384521484375
 42
-0
  0
VERTEX
  8
0
 10
1151.80322265625
 20
1117.5384521484375
 42
-0
  0
SEQEND
  0
POLYLINE
  8
0
 10
0
 20
0
 39
0
 70
1
 66
1
  0
VERTEX
  8
0
 10
1145.80322265625
 20
1058.5384521484375
 42
-1
  0
VERTEX
  8
0
 10
1145.80322265625
 20
1042.5384521484375
 42
-1
  0
SEQEND
  0
POLYLINE
  8
0
 10
0
 20
0
 39
0
 70
1
 66
1
  0
VERTEX
  8
0
 10
1195.80322265625
 20
1051.138427734375
 42
-1
  0
VERTEX
  8
0
 10
1195.80322265625
 20
1037.9384765625
 42
-1
  0
SEQEND
  0
POLYLINE
  8
0
 10
0
 20
0
 39
0
 70
1
 66
1
  0
VERTEX
  8
0
 10
1598.4769287109375
 20
517.73846435546875
 42
-0.41421392560005188
  0
VERTEX
  8
0
 10
1602.4769287109375
 20
521.73846435546875
 42
-0
  0
VERTEX
  8
0
 10
1607.4769287109375
 20
521.73846435546875
 42
1
  0
VERTEX
  8
0
 10
1607.4769287109375
 20
581.73846435546875
 42
-0
  0
VERTEX
  8
0
 10
1532.69677734375
 20
581.73846435546875
 42
0.36396992206573486
  0
VERTEX
  8
0
 10
1524.8182373046875
 20
575.12762451171875
 42
-0
  0
VERTEX
  8
0
 10
1498.4769287109375
 20
425.73846435546875
 42
-0
  0
VERTEX
  8
0
 10
1498.4769287109375
 20
415.73846435546875
 42
-0
  0
VERTEX
  8
0
 10
1558.4769287109375
 20
415.73846435546875
 42
-0
  0
VERTEX
  8
0
 10
1568.4769287109375
 20
425.73846435546875
 42
-0
  0
VERTEX
  8
0
 10
1568.4769287109375
 20
484.73846435546875
 42
-0
  0
VERTEX
  8
0
 10
1598.4769287109375
 20
484.73846435546875
 42
-0
  0
SEQEND
  0
POLYLINE
  8
0
 10
0
 20
0
 39
0
 70
1
 66
1
  0
VERTEX
  8
0
 10
1604.4769287109375
 20
543.73846435546875
 42
-1
  0
VERTEX
  8
0
 10
1604.4769287109375
 20
559.73846435546875
 42
-1
  0
SEQEND
  0
POLYLINE
  8
0
 10
0
 20
0
 39
0
 70
1
 66
1
  0
VERTEX
  8
0
 10
1554.4769287109375
 20
551.13848876953125
 42
-1
  0
VERTEX
  8
0
 10
1554.4769287109375
 20
564.3385009765625
 42
-1
  0
SEQEND
  0
POLYLINE
  8
0
 10
0
 20
0
 39
0
 70
1
 66
1
  0
VERTEX
  8
0
 10
1617.68017578125
 20
479.73846435546875
 42
-0.41421392560005188
  0
VERTEX
  8
0
 10
1613.68017578125
 20
475.73846435546875
 42
-0
  0
VERTEX
  8
0
 10
1608.68017578125
 20
475.73846435546875
 42
1
  0
VERTEX
  8
0
 10
1608.68017578125
 20
415.73846435546875
 42
-0
  0
VERTEX
  8
0
 10
1683.4603271484375
 20
415.73846435546875
 42
0.36396992206573486
  0
VERTEX
  8
0
 10
1691.3387451171875
 20
422.34927368164062
 42
-0
  0
VERTEX
  8
0
 10
1717.68017578125
 20
571.73846435546875
 42
-0
  0
VERTEX
  8
0
 10
1717.68017578125
 20
581.73846435546875
 42
-0
  0
VERTEX
  8
0
 10
1657.68017578125
 20
581.73846435546875
 42
-0
  0
VERTEX
  8
0
 10
1647.68017578125
 20
571.73846435546875
 42
-0
  0
VERTEX
  8
0
 10
1647.68017578125
 20
512.73846435546875
 42
-0
  0
VERTEX
  8
0
 10
1617.68017578125
 20
512.73846435546875
 42
-0
  0
SEQEND
  0
POLYLINE
  8
0
 10
0
 20
0
 39
0
 70
1
 66
1
  0
VERTEX
  8
0
 10
1611.68017578125
 20
453.73846435546875
 42
-1
  0
VERTEX
  8
0
 10
1611.68017578125
 20
437.73846435546875
 42
-1
  0
SEQEND
  0
POLYLINE
  8
0
 10
0
 20
0
 39
0
 70
1
 66
1
  0
VERTEX
  8
0
 10
1661.68017578125
 20
446.33847045898437
 42
-1
  0
VERTEX
  8
0
 10
1661.68017578125
 20
433.13845825195312
 42
-1
  0
SEQEND
  0
POLYLINE
  8
0
 10
0
 20
0
 39
0
 70
1
 66
1
  0
VERTEX
  8
0
 10
1833.4307861328125
 20
822.23077392578125
 42
-0.41421392560005188
  0
VERTEX
  8
0
 10
1829.4307861328125
 20
826.23077392578125
 42
-0
  0
VERTEX
  8
0
 10
1829.4307861328125
 20
831.23077392578125
 42
1
  0
VERTEX
  8
0
 10
1769.4307861328125
 20
831.23077392578125
 42
-0
  0
VERTEX
  8
0
 10
1769.4307861328125
 20
756.4505615234375
 42
0.36396992206573486
  0
VERTEX
  8
0
 10
1776.0416259765625
 20
748.5721435546875
 42
-0
  0
VERTEX
  8
0
 10
1925.4307861328125
 20
722.23077392578125
 42
-0
  0
VERTEX
  8
0
 10
1935.4307861328125
 20
722.23077392578125
 42
-0
  0
VERTEX
  8
0
 10
1935.4307861328125
 20
782.23077392578125
 42
-0
  0
VERTEX
  8
0
 10
1925.4307861328125
 20
792.23077392578125
 42
-0
  0
VERTEX
  8
0
 10
1866.4307861328125
 20
792.23077392578125
 42
-0
  0
VERTEX
  8
0
 10
1866.4307861328125
 20
822.23077392578125
 42
-0
  0
SEQEND
  0
POLYLINE
  8
0
 10
0
 20
0
 39
0
 70
1
 66
1
  0
VERTEX
  8
0
 10
1807.4307861328125
 20
828.23077392578125
 42
-1
  0
VERTEX
  8
0
 10
1791.4307861328125
 20
828.23077392578125
 42
-1
  0
SEQEND
  0
POLYLINE
  8
0
 10
0
 20
0
 39
0
 70
1
 66
1
  0
VERTEX
  8
0
 10
1800.03076171875
 20
778.23077392578125
 42
-1
  0
VERTEX
  8
0
 10
1786.830810546875
 20
778.23077392578125
 42
-1
  0
SEQEND
  0
POLYLINE
  8
0
 10
0
 20
0
 39
0
 70
1
 66
1
  0
VERTEX
  8
0
 10
1871.4307861328125
 20
841.4339599609375
 42
-0.41421392560005188
  0
VERTEX
  8
0
 10
1875.4307861328125
 20
837.43402099609375
 42
-0
  0
VERTEX
  8
0
 10
1875.4307861328125
 20
832.4339599609375
 42
1
  0
VERTEX
  8
0
 10
1935.4307861328125
 20
832.4339599609375
 42
-0
  0
VERTEX
  8
0
 10
1935.4307861328125
 20
907.21417236328125
 42
0.36396992206573486
  0
VERTEX
  8
0
 10
1928.8199462890625
 20
915.0926513671875
 42
-0
  0
VERTEX
  8
0
 10
1779.4307861328125
 20
941.4339599609375
 42
-0
  0
VERTEX
  8
0
 10
1769.4307861328125
 20
941.4339599609375
 42
-0
  0
VERTEX
  8
0
 10
1769.4307861328125
 20
881.4339599609375
 42
-0
  0
VERTEX
  8
0
 10
1779.4307861328125
 20
871.4339599609375
 42
-0
  0
VERTEX
  8
0
 10
1838.4307861328125
 20
871.4339599609375
 42
-0
  0
VERTEX
  8
0
 10
1838.4307861328125
 20
841.4339599609375
 42
-0
  0
SEQEND
  0
POLYLINE
  8
0
 10
0
 20
0
 39
0
 70
1
 66
1
  0
VERTEX
  8
0
 10
1897.4307861328125
 20
835.4339599609375
 42
-1
  0
VERTEX
  8
0
 10
1913.4307861328125
 20
835.4339599609375
 42
-1
  0
SEQEND
  0
POLYLINE
  8
0
 10
0
 20
0
 39
0
 70
1
 66
1
  0
VERTEX
  8
0
 10
1904.830810546875
 20
885.4339599609375
 42
-1
  0
VERTEX
  8
0
 10
1918.03076171875
 20
885.4339599609375
 42
-1
  0
SEQEND
  0
POLYLINE
  8
0
 10
0
 20
0
 39
0
 70
1
 66
1
  0
VERTEX
  8
0
 10
2178.72314453125
 20
1088.5076904296875
 42
-0.41421392560005188
  0
VERTEX
  8
0
 10
2182.72314453125
 20
1092.5076904296875
 42
-0
  0
VERTEX
  8
0
 10
2187.72314453125
 20
1092.5076904296875
 42
1
  0
VERTEX
  8
0
 10
2187.72314453125
 20
1152.5076904296875
 42
-0
  0
VERTEX
  8
0
 10
2112.94287109375
 20
1152.5076904296875
 42
0.36396992206573486
  0
VERTEX
  8
0
 10
2105.064453125
 20
1145.8968505859375
 42
-0
  0
VERTEX
  8
0
 10
2078.72314453125
 20
996.5076904296875
 42
-0
  0
VERTEX
  8
0
 10
2078.72314453125
 20
986.5076904296875
 42
-0
  0
VERTEX
  8
0
 10
2138.72314453125
 20
986.5076904296875
 42
-0
  0
VERTEX
  8
0
 10
2148.72314453125
 20
996.5076904296875
 42
-0
  0
VERTEX
  8
0
 10
2148.72314453125
 20
1055.5076904296875
 42
-0
  0
VERTEX
  8
0
 10
2178.72314453125
 20
1055.5076904296875
 42
-0
  0
SEQEND
  0
POLYLINE
  8
0
 10
0
 20
0
 39
0
 70
1
 66
1
  0
VERTEX
  8
0
 10
2184.72314453125
 20
1114.5076904296875
 42
-1
  0
VERTEX
  8
0
 10
2184.72314453125
 20
1130.5076904296875
 42
-1
  0
SEQEND
  0
POLYLINE
  8
0
 10
0
 20
0
 39
0
 70
1
 66
1
  0
VERTEX
  8
0
 10
2134.72314453125
 20
1121.90771484375
 42
-1
  0
VERTEX
  8
0
 10
2134.72314453125
 20
1135.107666015625
 42
-1
  0
SEQEND
  0
POLYLINE
  8
0
 10
0
 20
0
 39
0
 70
1
 66
1
  0
VERTEX
  8
0
 10
2197.92626953125
 20
1050.5076904296875
 42
-0.41421392560005188
  0
VERTEX
  8
0
 10
2193.92626953125
 20
1046.5076904296875
 42
-0
  0
VERTEX
  8
0
 10
2188.92626953125
 20
1046.5076904296875
 42
1
  0
VERTEX
  8
0
 10
2188.92626953125
 20
986.5076904296875
 42
-0
  0
VERTEX
  8
0
 10
2263.70654296875
 20
986.5076904296875
 42
0.36396992206573486
  0
VERTEX
  8
0
 10
2271.5849609375
 20
993.1185302734375
 42
-0
  0
VERTEX
  8
0
 10
2297.92626953125
 20
1142.5076904296875
 42
-0
  0
VERTEX
  8
0
 10
2297.92626953125
 20
1152.5076904296875
 42
-0
  0
VERTEX
  8
0
 10
2237.92626953125
 20
1152.5076904296875
 42
-0
  0
VERTEX
  8
0
 10
2227.92626953125
 20
1142.5076904296875
 42
-0
  0
VERTEX
  8
0
 10
2227.92626953125
 20
1083.5076904296875
 42
-0
  0
VERTEX
  8
0
 10
2197.92626953125
 20
1083.5076904296875
 42
-0
  0
SEQEND
  0
POLYLINE
  8
0
 10
0
 20
0
 39
0
 70
1
 66
1
  0
VERTEX
  8
0
 10
2191.92626953125
 20
1024.5076904296875
 42
-1
  0
VERTEX
  8
0
 10
2191.92626953125
 20
1008.5076904296875
 42
-1
  0
SEQEND
  0
POLYLINE
  8
0
 10
0
 20
0
 39
0
 70
1
 66
1
  0
VERTEX
  8
0
 10
2241.92626953125
 20
1017.1077270507812
 42
-1
  0
VERTEX
  8
0
 10
2241.92626953125
 20
1003.90771484375
 42
-1
  0
SEQEND
  0
POLYLINE
  8
0
 10
0
 20
0
 39
0
 70
1
 66
1
  0
VERTEX
  8
0
 10
2664.60009765625
 20
1019.3076782226562
 42
-0.41421392560005188
  0
VERTEX
  8
0
 10
2660.60009765625
 20
1023.3076782226562
 42
-0
  0
VERTEX
  8
0
 10
2660.60009765625
 20
1028.3077392578125
 42
1
  0
VERTEX
  8
0
 10
2600.60009765625
 20
1028.3077392578125
 42
-0
  0
VERTEX
  8
0
 10
2600.60009765625
 20
953.52752685546875
 42
0.36396992206573486
  0
VERTEX
  8
0
 10
2607.2109375
 20
945.6490478515625
 42
-0
  0
VERTEX
  8
0
 10
2756.60009765625
 20
919.30767822265625
 42
-0
  0
VERTEX
  8
0
 10
2766.60009765625
 20
919.30767822265625
 42
-0
  0
VERTEX
  8
0
 10
2766.60009765625
 20
979.30767822265625
 42
-0
  0
VERTEX
  8
0
 10
2756.60009765625
 20
989.30767822265625
 42
-0
  0
VERTEX
  8
0
 10
2697.60009765625
 20
989.30767822265625
 42
-0
  0
VERTEX
  8
0
 10
2697.60009765625
 20
1019.3076782226562
 42
-0
  0
SEQEND
  0
POLYLINE
  8
0
 10
0
 20
0
 39
0
 70
1
 66
1
  0
VERTEX
  8
0
 10
2638.60009765625
 20
1025.3077392578125
 42
-1
  0
VERTEX
  8
0
 10
2622.60009765625
 20
1025.3077392578125
 42
-1
  0
SEQEND
  0
POLYLINE
  8
0
 10
0
 20
0
 39
0
 70
1
 66
1
  0
VERTEX
  8
0
 10
2631.199951171875
 20
975.30767822265625
 42
-1
  0
VERTEX
  8
0
 10
2618
 20
975.30767822265625
 42
-1
  0
SEQEND
  0
POLYLINE
  8
0
 10
0
 20
0
 39
0
 70
1
 66
1
  0
VERTEX
  8
0
 10
2702.60009765625
 20
1038.5108642578125
 42
-0.41421392560005188
  0
VERTEX
  8
0
 10
2706.60009765625
 20
1034.5108642578125
 42
-0
  0
VERTEX
  8
0
 10
2706.60009765625
 20
1029.5108642578125
 42
1
  0
VERTEX
  8
0
 10
2766.60009765625
 20
1029.5108642578125
 42
-0
  0
VERTEX
  8
0
 10
2766.60009765625
 20
1104.2911376953125
 42
0.36396992206573486
  0
VERTEX
  8
0
 10
2759.9892578125
 20
1112.1695556640625
 42
-0
  0
VERTEX
  8
0
 10
2610.60009765625
 20
1138.5108642578125
 42
-0
  0
VERTEX
  8
0
 10
2600.60009765625
 20
1138.5108642578125
 42
-0
  0
VERTEX
  8
0
 10
2600.60009765625
 20
1078.5108642578125
 42
-0
  0
VERTEX
  8
0
 10
2610.60009765625
 20
1068.5108642578125
 42
-0
  0
VERTEX
  8
0
 10
2669.60009765625
 20
1068.5108642578125
 42
-0
  0
VERTEX
  8
0
 10
2669.60009765625
 20
1038.5108642578125
 42
-0
  0
SEQEND
  0
POLYLINE
  8
0
 10
0
 20
0
 39
0
 70
1
 66
1
  0
VERTEX
  8
0
 10
2728.60009765625
 20
1032.5108642578125
 42
-1
  0
VERTEX
  8
0
 10
2744.60009765625
 20
1032.5108642578125
 42
-1
  0
SEQEND
  0
POLYLINE
  8
0
 10
0
 20
0
 39
0
 70
1
 66
1
  0
VERTEX
  8
0
 10
2736
 20
1082.5108642578125
 42
-1
  0
VERTEX
  8
0
 10
2749.199951171875
 20
1082.5108642578125
 42
-1
  0
SEQEND
  0
POLYLINE
  8
0
 10
0
 20
0
 39
0
 70
1
 66
1
  0
VERTEX
  8
0
 10
1281.50927734375
 20
1157.4427490234375
 42
-0
  0
VERTEX
  8
0
 10
1279.945068359375
 20
1151.650146484375
 42
-0
  0
VERTEX
  8
0
 10
1269.3135986328125
 20
1141.018798828125
 42
0
  0
VERTEX
  8
0
 10
1263.5211181640625
 20
1139.45458984375
 42
0.11274677515029907
  0
VERTEX
  8
0
 10
1250.5692138671875
 20
1108.18603515625
 42
-0
  0
VERTEX
  8
0
 10
1253.55908203125
 20
1102.9840087890625
 42
-0
  0
VERTEX
  8
0
 10
1253.55908203125
 20
1087.948974609375
 42
0
  0
VERTEX
  8
0
 10
1250.5692138671875
 20
1082.7469482421875
 42
0.11274677515029907
  0
VERTEX
  8
0
 10
1263.5211181640625
 20
1051.478515625
 42
-0
  0
VERTEX
  8
0
 10
1269.3135986328125
 20
1049.914306640625
 42
-0
  0
VERTEX
  8
0
 10
1279.945068359375
 20
1039.2828369140625
 42
0
  0
VERTEX
  8
0
 10
1281.50927734375
 20
1033.4903564453125
 42
0.11274677515029907
  0
VERTEX
  8
0
 10
1312.7777099609375
 20
1020.5384521484375
 42
-0
  0
VERTEX
  8
0
 10
1317.979736328125
 20
1023.5283203125
 42
-0
  0
VERTEX
  8
0
 10
1333.014892578125
 20
1023.5283203125
 42
0
  0
VERTEX
  8
0
 10
1338.216796875
 20
1020.5384521484375
 42
0.11274677515029907
  0
VERTEX
  8
0
 10
1369.4853515625
 20
1033.4903564453125
 42
-0
  0
VERTEX
  8
0
 10
1371.049560546875
 20
1039.2828369140625
 42
-0
  0
VERTEX
  8
0
 10
1381.6810302734375
 20
1049.914306640625
 42
0
  0
VERTEX
  8
0
 10
1387.4735107421875
 20
1051.478515625
 42
0.11274677515029907
  0
VERTEX
  8
0
 10
1400.42529296875
 20
1082.7469482421875
 42
-0
  0
VERTEX
  8
0
 10
1397.4354248046875
 20
1087.948974609375
 42
-0
  0
VERTEX
  8
0
 10
1397.4354248046875
 20
1102.9840087890625
 42
0
  0
VERTEX
  8
0
 10
1400.42529296875
 20
1108.18603515625
 42
0.11274677515029907
  0
VERTEX
  8
0
 10
1387.4735107421875
 20
1139.45458984375
 42
-0
  0
VERTEX
  8
0
 10
1381.6810302734375
 20
1141.018798828125
 42
-0
  0
VERTEX
  8
0
 10
1371.049560546875
 20
1151.650146484375
 42
0
  0
VERTEX
  8
0
 10
1369.4853515625
 20
1157.4427490234375
 42
0.11274677515029907
  0
VERTEX
  8
0
 10
1338.216796875
 20
1170.39453125
 42
-0
  0
VERTEX
  8
0
 10
1333.014892578125
 20
1167.4046630859375
 42
-0
  0
VERTEX
  8
0
 10
1317.979736328125
 20
1167.4046630859375
 42
0
  0
VERTEX
  8
0
 10
1312.7777099609375
 20
1170.39453125
 42
0.11274677515029907
  0
SEQEND
  0
POLYLINE
  8
0
 10
0
 20
0
 39
0
 70
1
 66
1
  0
VERTEX
  8
0
 10
1332.568359375
 20
1102.53759765625
 42
-1
  0
VERTEX
  8
0
 10
1318.42626953125
 20
1088.3953857421875
 42
-1
  0
SEQEND
  0
POLYLINE
  8
0
 10
0
 20
0
 39
0
 70
1
 66
1
  0
VERTEX
  8
0
 10
1743.2938232421875
 20
529.16583251953125
 42
-0
  0
VERTEX
  8
0
 10
1741.7296142578125
 20
523.373291015625
 42
-0
  0
VERTEX
  8
0
 10
1731.09814453125
 20
512.74188232421875
 42
0
  0
VERTEX
  8
0
 10
1725.3056640625
 20
511.17764282226562
 42
0.11274677515029907
  0
VERTEX
  8
0
 10
1712.3538818359375
 20
479.90914916992187
 42
-0
  0
VERTEX
  8
0
 10
1715.34375
 20
474.7071533203125
 42
-0
  0
VERTEX
  8
0
 10
1715.34375
 20
459.67202758789062
 42
0
  0
VERTEX
  8
0
 10
1712.3538818359375
 20
454.47003173828125
 42
0.11274677515029907
  0
VERTEX
  8
0
 10
1725.3056640625
 20
423.2015380859375
 42
-0
  0
VERTEX
  8
0
 10
1731.09814453125
 20
421.6373291015625
 42
-0
  0
VERTEX
  8
0
 10
1741.7296142578125
 20
411.00588989257812
 42
0
  0
VERTEX
  8
0
 10
1743.2938232421875
 20
405.21337890625
 42
0.11274677515029907
  0
VERTEX
  8
0
 10
1774.5623779296875
 20
392.26153564453125
 42
-0
  0
VERTEX
  8
0
 10
1779.7642822265625
 20
395.25140380859375
 42
-0
  0
VERTEX
  8
0
 10
1794.7994384765625
 20
395.25140380859375
 42
0
  0
VERTEX
  8
0
 10
1800.00146484375
 20
392.26153564453125
 42
0.11274677515029907
  0
VERTEX
  8
0
 10
1831.2698974609375
 20
405.21337890625
 42
-0
  0
VERTEX
  8
0
 10
1832.8341064453125
 20
411.00588989257812
 42
-0
  0
VERTEX
  8
0
 10
1843.465576171875
 20
421.6373291015625
 42
0
  0
VERTEX
  8
0
 10
1849.258056640625
 20
423.2015380859375
 42
0.11274677515029907
  0
VERTEX
  8
0
 10
1862.2099609375
 20
454.47003173828125
 42
-0
  0
VERTEX
  8
0
 10
1859.2200927734375
 20
459.67202758789062
 42
-0
  0
VERTEX
  8
0
 10
1859.2200927734375
 20
474.7071533203125
 42
0
  0
VERTEX
  8
0
 10
1862.2099609375
 20
479.90914916992187
 42
0.11274677515029907
  0
VERTEX
  8
0
 10
1849.258056640625
 20
511.17764282226562
 42
-0
  0
VERTEX
  8
0
 10
1843.465576171875
 20
512.74188232421875
 42
-0
  0
VERTEX
  8
0
 10
1832.8341064453125
 20
523.373291015625
 42
0
  0
VERTEX
  8
0
 10
1831.2698974609375
 20
529.16583251953125
 42
0.11274677515029907
  0
VERTEX
  8
0
 10
1800.00146484375
 20
542.11761474609375
 42
-0
  0
VERTEX
  8
0
 10
1794.7994384765625
 20
539.1278076171875
 42
-0
  0
VERTEX
  8
0
 10
1779.7642822265625
 20
539.1278076171875
 42
0
  0
VERTEX
  8
0
 10
1774.5623779296875
 20
542.11761474609375
 42
0.11274677515029907
  0
SEQEND
  0
POLYLINE
  8
0
 10
0
 20
0
 39
0
 70
1
 66
1
  0
VERTEX
  8
0
 10
1794.3529052734375
 20
474.26065063476562
 42
-1
  0
VERTEX
  8
0
 10
1780.2108154296875
 20
460.1185302734375
 42
-1
  0
SEQEND
  0
POLYLINE
  8
0
 10
0
 20
0
 39
0
 70
1
 66
1
  0
VERTEX
  8
0
 10
2401.93994140625
 20
1117.5965576171875
 42
-0
  0
VERTEX
  8
0
 10
2400.375732421875
 20
1111.8040771484375
 42
-0
  0
VERTEX
  8
0
 10
2389.744384765625
 20
1101.172607421875
 42
0
  0
VERTEX
  8
0
 10
2383.951904296875
 20
1099.6083984375
 42
0.11274677515029907
  0
VERTEX
  8
0
 10
2371
 20
1068.3399658203125
 42
-0
  0
VERTEX
  8
0
 10
2373.98974609375
 20
1063.137939453125
 42
-0
  0
VERTEX
  8
0
 10
2373.98974609375
 20
1048.102783203125
 42
0
  0
VERTEX
  8
0
 10
2371
 20
1042.9007568359375
 42
0.11274677515029907
  0
VERTEX
  8
0
 10
2383.951904296875
 20
1011.63232421875
 42
-0
  0
VERTEX
  8
0
 10
2389.744384765625
 20
1010.068115234375
 42
-0
  0
VERTEX
  8
0
 10
2400.375732421875
 20
999.4366455078125
 42
0
  0
VERTEX
  8
0
 10
2401.93994140625
 20
993.6441650390625
 42
0.11274677515029907
  0
VERTEX
  8
0
 10
2433.20849609375
 20
980.69232177734375
 42
-0
  0
VERTEX
  8
0
 10
2438.410400390625
 20
983.68218994140625
 42
-0
  0
VERTEX
  8
0
 10
2453.445556640625
 20
983.68218994140625
 42
0
  0
VERTEX
  8
0
 10
2458.647705078125
 20
980.69232177734375
 42
0.11274677515029907
  0
VERTEX
  8
0
 10
2489.916015625
 20
993.6441650390625
 42
-0
  0
VERTEX
  8
0
 10
2491.480224609375
 20
999.4366455078125
 42
-0
  0
VERTEX
  8
0
 10
2502.11181640625
 20
1010.068115234375
 42
0
  0
VERTEX
  8
0
 10
2507.904296875
 20
1011.63232421875
 42
0.11274677515029907
  0
VERTEX
  8
0
 10
2520.856201171875
 20
1042.9007568359375
 42
-0
  0
VERTEX
  8
0
 10
2517.8662109375
 20
1048.102783203125
 42
-0
  0
VERTEX
  8
0
 10
2517.8662109375
 20
1063.137939453125
 42
0
  0
VERTEX
  8
0
 10
2520.856201171875
 20
1068.3399658203125
 42
0.11274677515029907
  0
VERTEX
  8
0
 10
2507.904296875
 20
1099.6083984375
 42
-0
  0
VERTEX
  8
0
 10
2502.11181640625
 20
1101.172607421875
 42
-0
  0
VERTEX
  8
0
 10
2491.480224609375
 20
1111.8040771484375
 42
0
  0
VERTEX
  8
0
 10
2489.916015625
 20
1117.5965576171875
 42
0.11274677515029907
  0
VERTEX
  8
0
 10
2458.647705078125
 20
1130.5484619140625
 42
-0
  0
VERTEX
  8
0
 10
2453.445556640625
 20
1127.55859375
 42
-0
  0
VERTEX
  8
0
 10
2438.410400390625
 20
1127.55859375
 42
0
  0
VERTEX
  8
0
 10
2433.20849609375
 20
1130.5484619140625
 42
0.11274677515029907
  0
SEQEND
  0
POLYLINE
  8
0
 10
0
 20
0
 39
0
 70
1
 66
1
  0
VERTEX
  8
0
 10
2452.9990234375
 20
1062.69140625
 42
-1
  0
VERTEX
  8
0
 10
2438.85693359375
 20
1048.54931640625
 42
-1
  0
SEQEND
  0
POLYLINE
  8
0
 10
0
 20
0
 39
0
 70
1
 66
1
  0
VERTEX
  8
0
 10
2473.87841796875
 20
849.4427490234375
 42
-0
  0
VERTEX
  8
0
 10
2472.314208984375
 20
843.65020751953125
 42
-0
  0
VERTEX
  8
0
 10
2461.682861328125
 20
833.018798828125
 42
0
  0
VERTEX
  8
0
 10
2455.890380859375
 20
831.45458984375
 42
0.11274677515029907
  0
VERTEX
  8
0
 10
2442.9384765625
 20
800.18603515625
 42
-0
  0
VERTEX
  8
0
 10
2445.92822265625
 20
794.98406982421875
 42
-0
  0
VERTEX
  8
0
 10
2445.92822265625
 20
779.948974609375
 42
0
  0
VERTEX
  8
0
 10
2442.9384765625
 20
774.7469482421875
 42
0.11274677515029907
  0
VERTEX
  8
0
 10
2455.890380859375
 20
743.47845458984375
 42
-0
  0
VERTEX
  8
0
 10
2461.682861328125
 20
741.91424560546875
 42
-0
  0
VERTEX
  8
0
 10
2472.314208984375
 20
731.2828369140625
 42
0
  0
VERTEX
  8
0
 10
2473.87841796875
 20
725.49029541015625
 42
0.11274677515029907
  0
VERTEX
  8
0
 10
2505.14697265625
 20
712.5384521484375
 42
-0
  0
VERTEX
  8
0
 10
2510.348876953125
 20
715.5283203125
 42
-0
  0
VERTEX
  8
0
 10
2525.384033203125
 20
715.5283203125
 42
0
  0
VERTEX
  8
0
 10
2530.5859375
 20
712.5384521484375
 42
0.11274677515029907
  0
VERTEX
  8
0
 10
2561.8544921875
 20
725.49029541015625
 42
-0
  0
VERTEX
  8
0
 10
2563.418701171875
 20
731.2828369140625
 42
-0
  0
VERTEX
  8
0
 10
2574.05029296875
 20
741.91424560546875
 42
0
  0
VERTEX
  8
0
 10
2579.8427734375
 20
743.47845458984375
 42
0.11274677515029907
  0
VERTEX
  8
0
 10
2592.794677734375
 20
774.7469482421875
 42
-0
  0
VERTEX
  8
0
 10
2589.8046875
 20
779.948974609375
 42
-0
  0
VERTEX
  8
0
 10
2589.8046875
 20
794.98406982421875
 42
0
  0
VERTEX
  8
0
 10
2592.794677734375
 20
800.18603515625
 42
0.11274677515029907
  0
VERTEX
  8
0
 10
2579.8427734375
 20
831.45458984375
 42
-0
  0
VERTEX
  8
0
 10
2574.05029296875
 20
833.018798828125
 42
-0
  0
VERTEX
  8
0
 10
2563.418701171875
 20
843.65020751953125
 42
0
  0
VERTEX
  8
0
 10
2561.8544921875
 20
849.4427490234375
 42
0.11274677515029907
  0
VERTEX
  8
0
 10
2530.5859375
 20
862.39459228515625
 42
-0
  0
VERTEX
  8
0
 10
2525.384033203125
 20
859.40472412109375
 42
-0
  0
VERTEX
  8
0
 10
2510.348876953125
 20
859.40472412109375
 42
0
  0
VERTEX
  8
0
 10
2505.14697265625
 20
862.39459228515625
 42
0.11274677515029907
  0
SEQEND
  0
POLYLINE
  8
0
 10
0
 20
0
 39
0
 70
1
 66
1
  0
VERTEX
  8
0
 10
2524.9375
 20
794.53759765625
 42
-1
  0
VERTEX
  8
0
 10
2510.79541015625
 20
780.39544677734375
 42
-1
  0
SEQEND
  0
POLYLINE
  8
0
 10
0
 20
0
 39
0
 70
1
 66
1
  0
VERTEX
  8
0
 10
2552.06298828125
 20
205.44271850585937
 42
-0
  0
VERTEX
  8
0
 10
2550.498779296875
 20
199.65020751953125
 42
-0
  0
VERTEX
  8
0
 10
2539.867431640625
 20
189.01878356933594
 42
0
  0
VERTEX
  8
0
 10
2534.074951171875
 20
187.45457458496094
 42
0.11274677515029907
  0
VERTEX
  8
0
 10
2521.123046875
 20
156.18606567382812
 42
-0
  0
VERTEX
  8
0
 10
2524.113037109375
 20
150.98406982421875
 42
-0
  0
VERTEX
  8
0
 10
2524.113037109375
 20
135.94895935058594
 42
0
  0
VERTEX
  8
0
 10
2521.123046875
 20
130.74696350097656
 42
0.11274677515029907
  0
VERTEX
  8
0
 10
2534.074951171875
 20
99.47845458984375
 42
-0
  0
VERTEX
  8
0
 10
2539.867431640625
 20
97.91424560546875
 42
-0
  0
VERTEX
  8
0
 10
2550.498779296875
 20
87.282821655273438
 42
0
  0
VERTEX
  8
0
 10
2552.06298828125
 20
81.490303039550781
 42
0.11274677515029907
  0
VERTEX
  8
0
 10
2583.33154296875
 20
68.538459777832031
 42
-0
  0
VERTEX
  8
0
 10
2588.53369140625
 20
71.5283203125
 42
-0
  0
VERTEX
  8
0
 10
2603.568603515625
 20
71.5283203125
 42
0
  0
VERTEX
  8
0
 10
2608.770751953125
 20
68.538459777832031
 42
0.11274677515029907
  0
VERTEX
  8
0
 10
2640.039306640625
 20
81.490303039550781
 42
-0
  0
VERTEX
  8
0
 10
2641.603271484375
 20
87.282821655273438
 42
-0
  0
VERTEX
  8
0
 10
2652.23486328125
 20
97.91424560546875
 42
0
  0
VERTEX
  8
0
 10
2658.02734375
 20
99.47845458984375
 42
0.11274677515029907
  0
VERTEX
  8
0
 10
2670.979248046875
 20
130.74696350097656
 42
-0
  0
VERTEX
  8
0
 10
2667.9892578125
 20
135.94895935058594
 42
-0
  0
VERTEX
  8
0
 10
2667.9892578125
 20
150.98406982421875
 42
0
  0
VERTEX
  8
0
 10
2670.979248046875
 20
156.18606567382812
 42
0.11274677515029907
  0
VERTEX
  8
0
 10
2658.02734375
 20
187.45457458496094
 42
-0
  0
VERTEX
  8
0
 10
2652.23486328125
 20
189.01878356933594
 42
-0
  0
VERTEX
  8
0
 10
2641.603271484375
 20
199.65020751953125
 42
0
  0
VERTEX
  8
0
 10
2640.039306640625
 20
205.44271850585937
 42
0.11274677515029907
  0
VERTEX
  8
0
 10
2608.770751953125
 20
218.39456176757812
 42
-0
  0
VERTEX
  8
0
 10
2603.568603515625
 20
215.40470886230469
 42
-0
  0
VERTEX
  8
0
 10
2588.53369140625
 20
215.40470886230469
 42
0
  0
VERTEX
  8
0
 10
2583.33154296875
 20
218.39456176757812
 42
0.11274677515029907
  0
SEQEND
  0
POLYLINE
  8
0
 10
0
 20
0
 39
0
 70
1
 66
1
  0
VERTEX
  8
0
 10
2603.122314453125
 20
150.53758239746094
 42
-1
  0
VERTEX
  8
0
 10
2588.97998046875
 20
136.39544677734375
 42
-1
  0
SEQEND
  0
POLYLINE
  8
0
 10
0
 20
0
 39
0
 70
1
 66
1
  0
VERTEX
  8
0
 10
2576.616943359375
 20
481.99658203125
 42
-0
  0
VERTEX
  8
0
 10
2575.052734375
 20
476.20404052734375
 42
-0
  0
VERTEX
  8
0
 10
2564.42138671875
 20
465.5726318359375
 42
0
  0
VERTEX
  8
0
 10
2558.628662109375
 20
464.0084228515625
 42
0.11274677515029907
  0
VERTEX
  8
0
 10
2545.677001953125
 20
432.73989868164062
 42
-0
  0
VERTEX
  8
0
 10
2548.666748046875
 20
427.53790283203125
 42
-0
  0
VERTEX
  8
0
 10
2548.666748046875
 20
412.5028076171875
 42
0
  0
VERTEX
  8
0
 10
2545.677001953125
 20
407.30081176757812
 42
0.11274677515029907
  0
VERTEX
  8
0
 10
2558.628662109375
 20
376.03228759765625
 42
-0
  0
VERTEX
  8
0
 10
2564.42138671875
 20
374.46810913085937
 42
-0
  0
VERTEX
  8
0
 10
2575.052734375
 20
363.836669921875
 42
0
  0
VERTEX
  8
0
 10
2576.616943359375
 20
358.04415893554687
 42
0.11274677515029907
  0
VERTEX
  8
0
 10
2607.885498046875
 20
345.09231567382812
 42
-0
  0
VERTEX
  8
0
 10
2613.08740234375
 20
348.0821533203125
 42
-0
  0
VERTEX
  8
0
 10
2628.12255859375
 20
348.0821533203125
 42
0
  0
VERTEX
  8
0
 10
2633.324462890625
 20
345.09231567382812
 42
0.11274677515029907
  0
VERTEX
  8
0
 10
2664.593017578125
 20
358.04415893554687
 42
-0
  0
VERTEX
  8
0
 10
2666.1572265625
 20
363.836669921875
 42
-0
  0
VERTEX
  8
0
 10
2676.78857421875
 20
374.46810913085937
 42
0
  0
VERTEX
  8
0
 10
2682.581298828125
 20
376.03228759765625
 42
0.11274677515029907
  0
VERTEX
  8
0
 10
2695.532958984375
 20
407.30081176757812
 42
-0
  0
VERTEX
  8
0
 10
2692.543212890625
 20
412.5028076171875
 42
-0
  0
VERTEX
  8
0
 10
2692.543212890625
 20
427.53790283203125
 42
0
  0
VERTEX
  8
0
 10
2695.532958984375
 20
432.73989868164062
 42
0.11274677515029907
  0
VERTEX
  8
0
 10
2682.581298828125
 20
464.0084228515625
 42
-0
  0
VERTEX
  8
0
 10
2676.78857421875
 20
465.5726318359375
 42
-0
  0
VERTEX
  8
0
 10
2666.1572265625
 20
476.20404052734375
 42
0
  0
VERTEX
  8
0
 10
2664.593017578125
 20
481.99658203125
 42
0.11274677515029907
  0
VERTEX
  8
0
 10
2633.324462890625
 20
494.94839477539062
 42
-0
  0
VERTEX
  8
0
 10
2628.12255859375
 20
491.95855712890625
 42
-0
  0
VERTEX
  8
0
 10
2613.08740234375
 20
491.95855712890625
 42
0
  0
VERTEX
  8
0
 10
2607.885498046875
 20
494.94839477539062
 42
0.11274677515029907
  0
SEQEND
  0
POLYLINE
  8
0
 10
0
 20
0
 39
0
 70
1
 66
1
  0
VERTEX
  8
0
 10
2627.676025390625
 20
427.0914306640625
 42
-1
  0
VERTEX
  8
0
 10
2613.533935546875
 20
412.94927978515625
 42
-1
  0
SEQEND
  0
POLYLINE
  8
0
 10
0
 20
0
 39
0
 70
1
 66
1
  0
VERTEX
  8
0
 10
2641.87841796875
 20
696.30426025390625
 42
-0
  0
VERTEX
  8
0
 10
2640.314208984375
 20
690.51171875
 42
-0
  0
VERTEX
  8
0
 10
2629.682861328125
 20
679.88031005859375
 42
0
  0
VERTEX
  8
0
 10
2623.890380859375
 20
678.31610107421875
 42
0.11274677515029907
  0
VERTEX
  8
0
 10
2610.9384765625
 20
647.047607421875
 42
-0
  0
VERTEX
  8
0
 10
2613.92822265625
 20
641.8455810546875
 42
-0
  0
VERTEX
  8
0
 10
2613.92822265625
 20
626.81048583984375
 42
0
  0
VERTEX
  8
0
 10
2610.9384765625
 20
621.6085205078125
 42
0.11274677515029907
  0
VERTEX
  8
0
 10
2623.890380859375
 20
590.3399658203125
 42
-0
  0
VERTEX
  8
0
 10
2629.682861328125
 20
588.7757568359375
 42
-0
  0
VERTEX
  8
0
 10
2640.314208984375
 20
578.14434814453125
 42
0
  0
VERTEX
  8
0
 10
2641.87841796875
 20
572.35186767578125
 42
0.11274677515029907
  0
VERTEX
  8
0
 10
2673.14697265625
 20
559.4000244140625
 42
-0
  0
VERTEX
  8
0
 10
2678.348876953125
 20
562.38983154296875
 42
-0
  0
VERTEX
  8
0
 10
2693.384033203125
 20
562.38983154296875
 42
0
  0
VERTEX
  8
0
 10
2698.5859375
 20
559.4000244140625
 42
0.11274677515029907
  0
VERTEX
  8
0
 10
2729.8544921875
 20
572.35186767578125
 42
-0
  0
VERTEX
  8
0
 10
2731.418701171875
 20
578.14434814453125
 42
-0
  0
VERTEX
  8
0
 10
2742.05029296875
 20
588.7757568359375
 42
0
  0
VERTEX
  8
0
 10
2747.8427734375
 20
590.3399658203125
 42
0.11274677515029907
  0
VERTEX
  8
0
 10
2760.794677734375
 20
621.6085205078125
 42
-0
  0
VERTEX
  8
0
 10
2757.8046875
 20
626.81048583984375
 42
-0
  0
VERTEX
  8
0
 10
2757.8046875
 20
641.8455810546875
 42
0
  0
VERTEX
  8
0
 10
2760.794677734375
 20
647.047607421875
 42
0.11274677515029907
  0
VERTEX
  8
0
 10
2747.8427734375
 20
678.31610107421875
 42
-0
  0
VERTEX
  8
0
 10
2742.05029296875
 20
679.88031005859375
 42
-0
  0
VERTEX
  8
0
 10
2731.418701171875
 20
690.51171875
 42
0
  0
VERTEX
  8
0
 10
2729.8544921875
 20
696.30426025390625
 42
0.11274677515029907
  0
VERTEX
  8
0
 10
2698.5859375
 20
709.256103515625
 42
-0
  0
VERTEX
  8
0
 10
2693.384033203125
 20
706.2662353515625
 42
-0
  0
VERTEX
  8
0
 10
2678.348876953125
 20
706.2662353515625
 42
0
  0
VERTEX
  8
0
 10
2673.14697265625
 20
709.256103515625
 42
0.11274677515029907
  0
SEQEND
  0
POLYLINE
  8
0
 10
0
 20
0
 39
0
 70
1
 66
1
  0
VERTEX
  8
0
 10
2692.9375
 20
641.39910888671875
 42
-1
  0
VERTEX
  8
0
 10
2678.79541015625
 20
627.2569580078125
 42
-1
  0
SEQEND
  0
POLYLINE
  8
0
 10
0
 20
0
 39
0
 70
1
 66
1
  0
VERTEX
  8
0
 10
1927.73828125
 20
943.4361572265625
 42
-0.41421392560005188
  0
VERTEX
  8
0
 10
1932.3720703125
 20
940.1915283203125
 42
-0
  0
VERTEX
  8
0
 10
1933.2403564453125
 20
935.2674560546875
 42
1
  0
VERTEX
  8
0
 10
1992.328857421875
 20
945.6864013671875
 42
-0
  0
VERTEX
  8
0
 10
1979.3433837890625
 20
1019.3305053710937
 42
0.36396992206573486
  0
VERTEX
  8
0
 10
1971.46484375
 20
1025.9412841796875
 42
-0
  0
VERTEX
  8
0
 10
1819.7711181640625
 20
1025.9412841796875
 42
-0
  0
VERTEX
  8
0
 10
1809.923095703125
 20
1024.204833984375
 42
-0
  0
VERTEX
  8
0
 10
1820.3419189453125
 20
965.1163330078125
 42
-0
  0
VERTEX
  8
0
 10
1831.926513671875
 20
957.0047607421875
 42
-0
  0
VERTEX
  8
0
 10
1890.0301513671875
 20
967.25
 42
-0
  0
VERTEX
  8
0
 10
1895.2396240234375
 20
937.70574951171875
 42
-0
  0
SEQEND
  0
POLYLINE
  8
0
 10
0
 20
0
 39
0
 70
1
 66
1
  0
VERTEX
  8
0
 10
1954.3851318359375
 20
942.04217529296875
 42
-1
  0
VERTEX
  8
0
 10
1970.14208984375
 20
944.820556640625
 42
-1
  0
SEQEND
  0
POLYLINE
  8
0
 10
0
 20
0
 39
0
 70
1
 66
1
  0
VERTEX
  8
0
 10
1952.9903564453125
 20
992.56756591796875
 42
-1
  0
VERTEX
  8
0
 10
1965.9898681640625
 20
994.85968017578125
 42
-1
  0
SEQEND
  0
ENDSEC
  0
EOF
