  0
SECTION
  2
ENTITIES
  0
POLYLINE
  8
0
 10
0
 20
0
 39
0
 70
1
 66
1
  0
VERTEX
  8
0
 10
0
 20
0
 42
0
  0
VERTEX
  8
0
 10
3000
 20
0
 42
0
  0
VERTEX
  8
0
 10
3000
 20
1000
 42
0
  0
VERTEX
  8
0
 10
0
 20
1000
 42
0
  0
SEQEND
  0
POLYLINE
  8
0
 10
0
 20
0
 39
0
 70
1
 66
1
  0
VERTEX
  8
0
 10
10.400000000000091
 20
695.39999999999998
 42
0
  0
VERTEX
  8
0
 10
1490.4000000000001
 20
695.39999999999998
 42
0
  0
VERTEX
  8
0
 10
1490.4000000000001
 20
10.4
 42
0
  0
VERTEX
  8
0
 10
10.400000000000091
 20
10.4
 42
0
  0
SEQEND
  0
POLYLINE
  8
0
 10
0
 20
0
 39
0
 70
1
 66
1
  0
VERTEX
  8
0
 10
750.40000000000009
 20
370.39999999999998
 42
1
  0
VERTEX
  8
0
 10
650.40000000000009
 20
370.39999999999998
 42
1
  0
SEQEND
  0
POLYLINE
  8
0
 10
0
 20
0
 39
0
 70
1
 66
1
  0
VERTEX
  8
0
 10
1471.4000000000001
 20
370.39999999999998
 42
1
  0
VERTEX
  8
0
 10
859.40000000000009
 20
370.39999999999998
 42
1
  0
SEQEND
  0
POLYLINE
  8
0
 10
0
 20
0
 39
0
 70
1
 66
1
  0
VERTEX
  8
0
 10
10.400000000000091
 20
945.60000000000002
 42
-0
  0
VERTEX
  8
0
 10
1304.4000000000001
 20
945.60000000000002
 42
-0
  0
VERTEX
  8
0
 10
1304.4000000000001
 20
705.60000000000002
 42
-0
  0
VERTEX
  8
0
 10
10.400000000000091
 20
705.60000000000002
 42
-0
  0
SEQEND
  0
POLYLINE
  8
0
 10
0
 20
0
 39
0
 70
1
 66
1
  0
VERTEX
  8
0
 10
1215.0050033569337
 20
825.60000000000002
 42
1
  0
VERTEX
  8
0
 10
1199.7949966430665
 20
825.60000000000002
 42
1
  0
SEQEND
  0
POLYLINE
  8
0
 10
0
 20
0
 39
0
 70
1
 66
1
  0
VERTEX
  8
0
 10
1115.0049957275392
 20
825.60000000000002
 42
1
  0
VERTEX
  8
0
 10
1099.795004272461
 20
825.60000000000002
 42
1
  0
SEQEND
  0
POLYLINE
  8
0
 10
0
 20
0
 39
0
 70
1
 66
1
  0
VERTEX
  8
0
 10
1015.0050109863282
 20
825.60000000000002
 42
1
  0
VERTEX
  8
0
 10
999.79498901367197
 20
825.60000000000002
 42
1
  0
SEQEND
  0
POLYLINE
  8
0
 10
0
 20
0
 39
0
 70
1
 66
1
  0
VERTEX
  8
0
 10
915.00501098632822
 20
825.60000000000002
 42
1
  0
VERTEX
  8
0
 10
899.79498901367197
 20
825.60000000000002
 42
1
  0
SEQEND
  0
POLYLINE
  8
0
 10
0
 20
0
 39
0
 70
1
 66
1
  0
VERTEX
  8
0
 10
815.00501098632822
 20
825.60000000000002
 42
1
  0
VERTEX
  8
0
 10
799.79498901367197
 20
825.60000000000002
 42
1
  0
SEQEND
  0
POLYLINE
  8
0
 10
0
 20
0
 39
0
 70
1
 66
1
  0
VERTEX
  8
0
 10
715.00498046875009
 20
825.60000000000002
 42
1
  0
VERTEX
  8
0
 10
699.79501953125009
 20
825.60000000000002
 42
1
  0
SEQEND
  0
POLYLINE
  8
0
 10
0
 20
0
 39
0
 70
1
 66
1
  0
VERTEX
  8
0
 10
615.00498046875009
 20
825.60000000000002
 42
1
  0
VERTEX
  8
0
 10
599.79501953125009
 20
825.60000000000002
 42
1
  0
SEQEND
  0
POLYLINE
  8
0
 10
0
 20
0
 39
0
 70
1
 66
1
  0
VERTEX
  8
0
 10
515.00498046875009
 20
825.60000000000002
 42
1
  0
VERTEX
  8
0
 10
499.79501953125009
 20
825.60000000000002
 42
1
  0
SEQEND
  0
POLYLINE
  8
0
 10
0
 20
0
 39
0
 70
1
 66
1
  0
VERTEX
  8
0
 10
415.00498046875009
 20
825.60000000000002
 42
1
  0
VERTEX
  8
0
 10
399.79501953125009
 20
825.60000000000002
 42
1
  0
SEQEND
  0
POLYLINE
  8
0
 10
0
 20
0
 39
0
 70
1
 66
1
  0
VERTEX
  8
0
 10
315.00498046875009
 20
825.60000000000002
 42
1
  0
VERTEX
  8
0
 10
299.79501953125009
 20
825.60000000000002
 42
1
  0
SEQEND
  0
POLYLINE
  8
0
 10
0
 20
0
 39
0
 70
1
 66
1
  0
VERTEX
  8
0
 10
215.00498046875009
 20
825.60000000000002
 42
1
  0
VERTEX
  8
0
 10
199.79501953125009
 20
825.60000000000002
 42
1
  0
SEQEND
  0
POLYLINE
  8
0
 10
0
 20
0
 39
0
 70
1
 66
1
  0
VERTEX
  8
0
 10
115.00498046875009
 20
825.60000000000002
 42
1
  0
VERTEX
  8
0
 10
99.795019531250091
 20
825.60000000000002
 42
1
  0
SEQEND
  0
POLYLINE
  8
0
 10
0
 20
0
 39
0
 70
1
 66
1
  0
VERTEX
  8
0
 10
930.06179741239328
 20
426.79942666022265
 42
-1
  0
VERTEX
  8
0
 10
929.5382003172316
 20
306.80057106940234
 42
-1
  0
SEQEND
  0
POLYLINE
  8
0
 10
0
 20
0
 39
0
 70
1
 66
1
  0
VERTEX
  8
0
 10
929.93089813860286
 20
396.79971276251757
 42
1
  0
VERTEX
  8
0
 10
929.66909959102202
 20
336.80028496710742
 42
1
  0
SEQEND
  0
POLYLINE
  8
0
 10
0
 20
0
 39
0
 70
1
 66
1
  0
VERTEX
  8
0
 10
1560.8
 20
800.39999999999998
 42
-0
  0
VERTEX
  8
0
 10
1560.8
 20
10.400000000000004
 42
-0
  0
VERTEX
  8
0
 10
1500.8
 20
10.4
 42
-0
  0
VERTEX
  8
0
 10
1500.8
 20
860.39999999999998
 42
-0
  0
VERTEX
  8
0
 10
1535.8
 20
860.39999999999998
 42
0
  0
SEQEND
  0
POLYLINE
  8
0
 10
0
 20
0
 39
0
 70
1
 66
1
  0
VERTEX
  8
0
 10
1530.8
 20
49.899999999999999
 42
1
  0
VERTEX
  8
0
 10
1530.8
 20
66.900000000000006
 42
1
  0
SEQEND
  0
POLYLINE
  8
0
 10
0
 20
0
 39
0
 70
1
 66
1
  0
VERTEX
  8
0
 10
1530.8
 20
649.89999999999998
 42
1
  0
VERTEX
  8
0
 10
1530.8
 20
666.89999999999998
 42
1
  0
SEQEND
  0
POLYLINE
  8
0
 10
0
 20
0
 39
0
 70
1
 66
1
  0
VERTEX
  8
0
 10
1008
 20
120.40000000000001
 42
-0
  0
VERTEX
  8
0
 10
1008
 20
620.39999999999998
 42
-0
  0
VERTEX
  8
0
 10
1208
 20
620.39999999999998
 42
-0
  0
VERTEX
  8
0
 10
1208
 20
120.40000000000002
 42
-0
  0
SEQEND
  0
POLYLINE
  8
0
 10
0
 20
0
 39
0
 70
1
 66
1
  0
VERTEX
  8
0
 10
1169.8850708007812
 20
555.08902587890623
 42
1
  0
VERTEX
  8
0
 10
1169.8850708007812
 20
591.08902587890623
 42
1
  0
SEQEND
  0
POLYLINE
  8
0
 10
0
 20
0
 39
0
 70
1
 66
1
  0
VERTEX
  8
0
 10
1108
 20
318.39999999999998
 42
1
  0
VERTEX
  8
0
 10
1108
 20
422.39999999999998
 42
1
  0
SEQEND
  0
POLYLINE
  8
0
 10
0
 20
0
 39
0
 70
1
 66
1
  0
VERTEX
  8
0
 10
1571.2
 20
10.4
 42
-0
  0
VERTEX
  8
0
 10
1571.2
 20
510.39999999999998
 42
-0
  0
VERTEX
  8
0
 10
1771.2
 20
510.39999999999998
 42
-0
  0
VERTEX
  8
0
 10
1771.2
 20
10.400000000000013
 42
-0
  0
SEQEND
  0
POLYLINE
  8
0
 10
0
 20
0
 39
0
 70
1
 66
1
  0
VERTEX
  8
0
 10
1733.0850708007813
 20
445.08902587890623
 42
1
  0
VERTEX
  8
0
 10
1733.0850708007813
 20
481.08902587890623
 42
1
  0
SEQEND
  0
POLYLINE
  8
0
 10
0
 20
0
 39
0
 70
1
 66
1
  0
VERTEX
  8
0
 10
1671.2
 20
208.40000000000001
 42
1
  0
VERTEX
  8
0
 10
1671.2
 20
312.39999999999998
 42
1
  0
SEQEND
  0
POLYLINE
  8
0
 10
0
 20
0
 39
0
 70
1
 66
1
  0
VERTEX
  8
0
 10
1781.5999999999999
 20
10.4
 42
-0
  0
VERTEX
  8
0
 10
1781.5999999999999
 20
510.39999999999998
 42
-0
  0
VERTEX
  8
0
 10
1981.5999999999999
 20
510.39999999999998
 42
-0
  0
VERTEX
  8
0
 10
1981.5999999999999
 20
10.400000000000013
 42
-0
  0
SEQEND
  0
POLYLINE
  8
0
 10
0
 20
0
 39
0
 70
1
 66
1
  0
VERTEX
  8
0
 10
1943.4850708007812
 20
445.08902587890623
 42
1
  0
VERTEX
  8
0
 10
1943.4850708007812
 20
481.08902587890623
 42
1
  0
SEQEND
  0
POLYLINE
  8
0
 10
0
 20
0
 39
0
 70
1
 66
1
  0
VERTEX
  8
0
 10
1881.5999999999999
 20
208.40000000000001
 42
1
  0
VERTEX
  8
0
 10
1881.5999999999999
 20
312.39999999999998
 42
1
  0
SEQEND
  0
POLYLINE
  8
0
 10
0
 20
0
 39
0
 70
1
 66
1
  0
VERTEX
  8
0
 10
2071.1999999999998
 20
520.60000000000002
 42
-0
  0
VERTEX
  8
0
 10
1571.1999999999998
 20
520.60000000000002
 42
-0
  0
VERTEX
  8
0
 10
1571.1999999999998
 20
720.60000000000002
 42
-0
  0
VERTEX
  8
0
 10
2071.1999999999998
 20
720.60000000000002
 42
-0
  0
SEQEND
  0
POLYLINE
  8
0
 10
0
 20
0
 39
0
 70
1
 66
1
  0
VERTEX
  8
0
 10
1636.5109741210936
 20
682.48507080078127
 42
1
  0
VERTEX
  8
0
 10
1600.5109741210936
 20
682.48507080078127
 42
1
  0
SEQEND
  0
POLYLINE
  8
0
 10
0
 20
0
 39
0
 70
1
 66
1
  0
VERTEX
  8
0
 10
1873.1999999999998
 20
620.60000000000002
 42
1
  0
VERTEX
  8
0
 10
1769.1999999999998
 20
620.60000000000002
 42
1
  0
SEQEND
  0
POLYLINE
  8
0
 10
0
 20
0
 39
0
 70
1
 66
1
  0
VERTEX
  8
0
 10
2071.1999999999998
 20
730.79999999999995
 42
-0
  0
VERTEX
  8
0
 10
1571.1999999999998
 20
730.79999999999995
 42
-0
  0
VERTEX
  8
0
 10
1571.1999999999998
 20
930.79999999999995
 42
-0
  0
VERTEX
  8
0
 10
2071.1999999999998
 20
930.79999999999995
 42
-0
  0
SEQEND
  0
POLYLINE
  8
0
 10
0
 20
0
 39
0
 70
1
 66
1
  0
VERTEX
  8
0
 10
1636.5109741210936
 20
892.6850708007812
 42
1
  0
VERTEX
  8
0
 10
1600.5109741210936
 20
892.6850708007812
 42
1
  0
SEQEND
  0
POLYLINE
  8
0
 10
0
 20
0
 39
0
 70
1
 66
1
  0
VERTEX
  8
0
 10
1873.1999999999998
 20
830.79999999999995
 42
1
  0
VERTEX
  8
0
 10
1769.1999999999998
 20
830.79999999999995
 42
1
  0
SEQEND
  0
POLYLINE
  8
0
 10
0
 20
0
 39
0
 70
1
 66
1
  0
VERTEX
  8
0
 10
1992
 20
10.4
 42
-0
  0
VERTEX
  8
0
 10
1992
 20
510.39999999999998
 42
-0
  0
VERTEX
  8
0
 10
2192
 20
510.39999999999998
 42
-0
  0
VERTEX
  8
0
 10
2192
 20
10.400000000000013
 42
-0
  0
SEQEND
  0
POLYLINE
  8
0
 10
0
 20
0
 39
0
 70
1
 66
1
  0
VERTEX
  8
0
 10
2153.8850708007812
 20
445.08902587890623
 42
1
  0
VERTEX
  8
0
 10
2153.8850708007812
 20
481.08902587890623
 42
1
  0
SEQEND
  0
POLYLINE
  8
0
 10
0
 20
0
 39
0
 70
1
 66
1
  0
VERTEX
  8
0
 10
2092
 20
208.40000000000001
 42
1
  0
VERTEX
  8
0
 10
2092
 20
312.39999999999998
 42
1
  0
SEQEND
  0
POLYLINE
  8
0
 10
0
 20
0
 39
0
 70
1
 66
1
  0
VERTEX
  8
0
 10
2202.4000000000001
 20
10.4
 42
-0
  0
VERTEX
  8
0
 10
2202.4000000000001
 20
510.39999999999998
 42
-0
  0
VERTEX
  8
0
 10
2402.4000000000001
 20
510.39999999999998
 42
-0
  0
VERTEX
  8
0
 10
2402.4000000000001
 20
10.400000000000013
 42
-0
  0
SEQEND
  0
POLYLINE
  8
0
 10
0
 20
0
 39
0
 70
1
 66
1
  0
VERTEX
  8
0
 10
2364.2850708007813
 20
445.08902587890623
 42
1
  0
VERTEX
  8
0
 10
2364.2850708007813
 20
481.08902587890623
 42
1
  0
SEQEND
  0
POLYLINE
  8
0
 10
0
 20
0
 39
0
 70
1
 66
1
  0
VERTEX
  8
0
 10
2302.4000000000001
 20
208.40000000000001
 42
1
  0
VERTEX
  8
0
 10
2302.4000000000001
 20
312.39999999999998
 42
1
  0
SEQEND
  0
POLYLINE
  8
0
 10
0
 20
0
 39
0
 70
1
 66
1
  0
VERTEX
  8
0
 10
2581.5999999999999
 20
520.60000000000002
 42
-0
  0
VERTEX
  8
0
 10
2081.5999999999999
 20
520.60000000000002
 42
-0
  0
VERTEX
  8
0
 10
2081.5999999999999
 20
720.60000000000002
 42
-0
  0
VERTEX
  8
0
 10
2581.5999999999999
 20
720.60000000000002
 42
-0
  0
SEQEND
  0
POLYLINE
  8
0
 10
0
 20
0
 39
0
 70
1
 66
1
  0
VERTEX
  8
0
 10
2146.9109741210937
 20
682.48507080078127
 42
1
  0
VERTEX
  8
0
 10
2110.9109741210937
 20
682.48507080078127
 42
1
  0
SEQEND
  0
POLYLINE
  8
0
 10
0
 20
0
 39
0
 70
1
 66
1
  0
VERTEX
  8
0
 10
2383.5999999999999
 20
620.60000000000002
 42
1
  0
VERTEX
  8
0
 10
2279.5999999999999
 20
620.60000000000002
 42
1
  0
SEQEND
  0
POLYLINE
  8
0
 10
0
 20
0
 39
0
 70
1
 66
1
  0
VERTEX
  8
0
 10
1278.6617974123933
 20
223.99942666022264
 42
-1
  0
VERTEX
  8
0
 10
1278.1382003172316
 20
104.00057106940233
 42
-1
  0
SEQEND
  0
POLYLINE
  8
0
 10
0
 20
0
 39
0
 70
1
 66
1
  0
VERTEX
  8
0
 10
1278.5308981386029
 20
193.99971276251756
 42
1
  0
VERTEX
  8
0
 10
1278.269099591022
 20
134.0002849671074
 42
1
  0
SEQEND
  0
POLYLINE
  8
0
 10
0
 20
0
 39
0
 70
1
 66
1
  0
VERTEX
  8
0
 10
2581.5999999999999
 20
730.79999999999995
 42
-0
  0
VERTEX
  8
0
 10
2081.5999999999999
 20
730.79999999999995
 42
-0
  0
VERTEX
  8
0
 10
2081.5999999999999
 20
930.79999999999995
 42
-0
  0
VERTEX
  8
0
 10
2581.5999999999999
 20
930.79999999999995
 42
-0
  0
SEQEND
  0
POLYLINE
  8
0
 10
0
 20
0
 39
0
 70
1
 66
1
  0
VERTEX
  8
0
 10
2146.9109741210937
 20
892.6850708007812
 42
1
  0
VERTEX
  8
0
 10
2110.9109741210937
 20
892.6850708007812
 42
1
  0
SEQEND
  0
POLYLINE
  8
0
 10
0
 20
0
 39
0
 70
1
 66
1
  0
VERTEX
  8
0
 10
2383.5999999999999
 20
830.79999999999995
 42
1
  0
VERTEX
  8
0
 10
2279.5999999999999
 20
830.79999999999995
 42
1
  0
SEQEND
  0
POLYLINE
  8
0
 10
0
 20
0
 39
0
 70
1
 66
1
  0
VERTEX
  8
0
 10
2412.8000000000002
 20
10.4
 42
-0
  0
VERTEX
  8
0
 10
2412.8000000000002
 20
510.39999999999998
 42
-0
  0
VERTEX
  8
0
 10
2612.8000000000002
 20
510.39999999999998
 42
-0
  0
VERTEX
  8
0
 10
2612.8000000000002
 20
10.400000000000013
 42
-0
  0
SEQEND
  0
POLYLINE
  8
0
 10
0
 20
0
 39
0
 70
1
 66
1
  0
VERTEX
  8
0
 10
2574.6850708007814
 20
445.08902587890623
 42
1
  0
VERTEX
  8
0
 10
2574.6850708007814
 20
481.08902587890623
 42
1
  0
SEQEND
  0
POLYLINE
  8
0
 10
0
 20
0
 39
0
 70
1
 66
1
  0
VERTEX
  8
0
 10
2512.8000000000002
 20
208.40000000000001
 42
1
  0
VERTEX
  8
0
 10
2512.8000000000002
 20
312.39999999999998
 42
1
  0
SEQEND
  0
POLYLINE
  8
0
 10
0
 20
0
 39
0
 70
1
 66
1
  0
VERTEX
  8
0
 10
2683.1999999999998
 20
800.39999999999998
 42
-0
  0
VERTEX
  8
0
 10
2683.1999999999998
 20
10.400000000000004
 42
-0
  0
VERTEX
  8
0
 10
2623.1999999999998
 20
10.4
 42
-0
  0
VERTEX
  8
0
 10
2623.1999999999998
 20
860.39999999999998
 42
-0
  0
VERTEX
  8
0
 10
2658.1999999999998
 20
860.39999999999998
 42
0
  0
SEQEND
  0
POLYLINE
  8
0
 10
0
 20
0
 39
0
 70
1
 66
1
  0
VERTEX
  8
0
 10
2653.1999999999998
 20
49.899999999999999
 42
1
  0
VERTEX
  8
0
 10
2653.1999999999998
 20
66.900000000000006
 42
1
  0
SEQEND
  0
POLYLINE
  8
0
 10
0
 20
0
 39
0
 70
1
 66
1
  0
VERTEX
  8
0
 10
2653.1999999999998
 20
649.89999999999998
 42
1
  0
VERTEX
  8
0
 10
2653.1999999999998
 20
666.89999999999998
 42
1
  0
SEQEND
  0
POLYLINE
  8
0
 10
0
 20
0
 39
0
 70
1
 66
1
  0
VERTEX
  8
0
 10
1218.4000000000001
 20
434.00000762939453
 42
0
  0
VERTEX
  8
0
 10
1322.2348693847657
 20
434.00001525878906
 42
-0.11932211369276047
  0
VERTEX
  8
0
 10
1322.2348693847657
 20
234.00000000000003
 42
-0
  0
VERTEX
  8
0
 10
1218.4000000000001
 20
234.00001525878906
 42
0.1576707661151886
  0
SEQEND
  0
POLYLINE
  8
0
 10
0
 20
0
 39
0
 70
1
 66
1
  0
VERTEX
  8
0
 10
1311.1670898437501
 20
345.00001525878906
 42
-0
  0
VERTEX
  8
0
 10
1301.1670898437501
 20
345.00001525878906
 42
1
  0
VERTEX
  8
0
 10
1301.1670898437501
 20
323.00001525878906
 42
0
  0
VERTEX
  8
0
 10
1311.1670898437501
 20
323.00001525878906
 42
1
  0
SEQEND
  0
POLYLINE
  8
0
 10
0
 20
0
 39
0
 70
1
 66
1
  0
VERTEX
  8
0
 10
2753.5999999999999
 20
800.39999999999998
 42
-0
  0
VERTEX
  8
0
 10
2753.5999999999999
 20
10.400000000000004
 42
-0
  0
VERTEX
  8
0
 10
2693.5999999999999
 20
10.4
 42
-0
  0
VERTEX
  8
0
 10
2693.5999999999999
 20
860.39999999999998
 42
-0
  0
VERTEX
  8
0
 10
2728.5999999999999
 20
860.39999999999998
 42
0
  0
SEQEND
  0
POLYLINE
  8
0
 10
0
 20
0
 39
0
 70
1
 66
1
  0
VERTEX
  8
0
 10
2723.5999999999999
 20
49.899999999999999
 42
1
  0
VERTEX
  8
0
 10
2723.5999999999999
 20
66.900000000000006
 42
1
  0
SEQEND
  0
POLYLINE
  8
0
 10
0
 20
0
 39
0
 70
1
 66
1
  0
VERTEX
  8
0
 10
2723.5999999999999
 20
649.89999999999998
 42
1
  0
VERTEX
  8
0
 10
2723.5999999999999
 20
666.89999999999998
 42
1
  0
SEQEND
  0
POLYLINE
  8
0
 10
0
 20
0
 39
0
 70
1
 66
1
  0
VERTEX
  8
0
 10
1314.8
 20
905.60000762939455
 42
0
  0
VERTEX
  8
0
 10
1418.6348693847656
 20
905.60001525878909
 42
-0.11932211369276047
  0
VERTEX
  8
0
 10
1418.6348693847656
 20
705.60000000000002
 42
-0
  0
VERTEX
  8
0
 10
1314.8
 20
705.60001525878909
 42
0.1576707661151886
  0
SEQEND
  0
POLYLINE
  8
0
 10
0
 20
0
 39
0
 70
1
 66
1
  0
VERTEX
  8
0
 10
1407.56708984375
 20
816.60001525878909
 42
-0
  0
VERTEX
  8
0
 10
1397.56708984375
 20
816.60001525878909
 42
1
  0
VERTEX
  8
0
 10
1397.56708984375
 20
794.60001525878909
 42
0
  0
VERTEX
  8
0
 10
1407.56708984375
 20
794.60001525878909
 42
1
  0
SEQEND
  0
POLYLINE
  8
0
 10
0
 20
0
 39
0
 70
1
 66
1
  0
VERTEX
  8
0
 10
1278.6617974123933
 20
564.19942666022257
 42
-1
  0
VERTEX
  8
0
 10
1278.1382003172316
 20
444.20057106940232
 42
-1
  0
SEQEND
  0
POLYLINE
  8
0
 10
0
 20
0
 39
0
 70
1
 66
1
  0
VERTEX
  8
0
 10
1278.5308981386029
 20
534.19971276251749
 42
1
  0
VERTEX
  8
0
 10
1278.269099591022
 20
474.20028496710739
 42
1
  0
SEQEND
  0
POLYLINE
  8
0
 10
0
 20
0
 39
0
 70
1
 66
1
  0
VERTEX
  8
0
 10
2592.0000076293945
 20
862.79999999999995
 42
0
  0
VERTEX
  8
0
 10
2592
 20
966.63486938476558
 42
-0.11932211369276047
  0
VERTEX
  8
0
 10
2792.0000152587891
 20
966.63486938476558
 42
-0
  0
VERTEX
  8
0
 10
2792
 20
862.79999999999995
 42
0.1576707661151886
  0
SEQEND
  0
POLYLINE
  8
0
 10
0
 20
0
 39
0
 70
1
 66
1
  0
VERTEX
  8
0
 10
2681
 20
955.56708984374995
 42
-0
  0
VERTEX
  8
0
 10
2681
 20
945.56708984374995
 42
1
  0
VERTEX
  8
0
 10
2703
 20
945.56708984374995
 42
0
  0
VERTEX
  8
0
 10
2703
 20
955.56708984374995
 42
1
  0
SEQEND
  0
POLYLINE
  8
0
 10
0
 20
0
 39
0
 70
1
 66
1
  0
VERTEX
  8
0
 10
2764
 20
210.40000762939454
 42
0
  0
VERTEX
  8
0
 10
2867.8348693847656
 20
210.4000152587891
 42
-0.11932211369276047
  0
VERTEX
  8
0
 10
2867.8348693847656
 20
10.40000000000002
 42
-0
  0
VERTEX
  8
0
 10
2764
 20
10.400015258789068
 42
0.1576707661151886
  0
SEQEND
  0
POLYLINE
  8
0
 10
0
 20
0
 39
0
 70
1
 66
1
  0
VERTEX
  8
0
 10
2856.76708984375
 20
121.40001525878908
 42
-0
  0
VERTEX
  8
0
 10
2846.76708984375
 20
121.40001525878908
 42
1
  0
VERTEX
  8
0
 10
2846.76708984375
 20
99.400015258789082
 42
0
  0
VERTEX
  8
0
 10
2856.76708984375
 20
99.400015258789082
 42
1
  0
SEQEND
  0
POLYLINE
  8
0
 10
0
 20
0
 39
0
 70
1
 66
1
  0
VERTEX
  8
0
 10
2764
 20
420.6000076293945
 42
0
  0
VERTEX
  8
0
 10
2867.8348693847656
 20
420.60001525878909
 42
-0.11932211369276047
  0
VERTEX
  8
0
 10
2867.8348693847656
 20
220.59999999999999
 42
-0
  0
VERTEX
  8
0
 10
2764
 20
220.60001525878903
 42
0.1576707661151886
  0
SEQEND
  0
POLYLINE
  8
0
 10
0
 20
0
 39
0
 70
1
 66
1
  0
VERTEX
  8
0
 10
2856.76708984375
 20
331.60001525878903
 42
-0
  0
VERTEX
  8
0
 10
2846.76708984375
 20
331.60001525878903
 42
1
  0
VERTEX
  8
0
 10
2846.76708984375
 20
309.60001525878903
 42
0
  0
VERTEX
  8
0
 10
2856.76708984375
 20
309.60001525878903
 42
1
  0
SEQEND
  0
POLYLINE
  8
0
 10
0
 20
0
 39
0
 70
1
 66
1
  0
VERTEX
  8
0
 10
2764
 20
630.80000762939449
 42
0
  0
VERTEX
  8
0
 10
2867.8348693847656
 20
630.80001525878902
 42
-0.11932211369276047
  0
VERTEX
  8
0
 10
2867.8348693847656
 20
430.79999999999995
 42
-0
  0
VERTEX
  8
0
 10
2764
 20
430.80001525878902
 42
0.1576707661151886
  0
SEQEND
  0
POLYLINE
  8
0
 10
0
 20
0
 39
0
 70
1
 66
1
  0
VERTEX
  8
0
 10
2856.76708984375
 20
541.80001525878902
 42
-0
  0
VERTEX
  8
0
 10
2846.76708984375
 20
541.80001525878902
 42
1
  0
VERTEX
  8
0
 10
2846.76708984375
 20
519.80001525878902
 42
0
  0
VERTEX
  8
0
 10
2856.76708984375
 20
519.80001525878902
 42
1
  0
SEQEND
  0
POLYLINE
  8
0
 10
0
 20
0
 39
0
 70
1
 66
1
  0
VERTEX
  8
0
 10
2764
 20
841.00000762939453
 42
0
  0
VERTEX
  8
0
 10
2867.8348693847656
 20
841.00001525878906
 42
-0.11932211369276047
  0
VERTEX
  8
0
 10
2867.8348693847656
 20
641
 42
-0
  0
VERTEX
  8
0
 10
2764
 20
641.00001525878906
 42
0.1576707661151886
  0
SEQEND
  0
POLYLINE
  8
0
 10
0
 20
0
 39
0
 70
1
 66
1
  0
VERTEX
  8
0
 10
2856.76708984375
 20
752.00001525878906
 42
-0
  0
VERTEX
  8
0
 10
2846.76708984375
 20
752.00001525878906
 42
1
  0
VERTEX
  8
0
 10
2846.76708984375
 20
730.00001525878906
 42
0
  0
VERTEX
  8
0
 10
2856.76708984375
 20
730.00001525878906
 42
1
  0
SEQEND
  0
POLYLINE
  8
0
 10
0
 20
0
 39
0
 70
1
 66
1
  0
VERTEX
  8
0
 10
1485.2617974123932
 20
989.59942666022266
 42
-1
  0
VERTEX
  8
0
 10
1484.7382003172315
 20
869.60057106940235
 42
-1
  0
SEQEND
  0
POLYLINE
  8
0
 10
0
 20
0
 39
0
 70
1
 66
1
  0
VERTEX
  8
0
 10
1485.1308981386028
 20
959.59971276251758
 42
1
  0
VERTEX
  8
0
 10
1484.8690995910219
 20
899.60028496710743
 42
1
  0
SEQEND
  0
POLYLINE
  8
0
 10
0
 20
0
 39
0
 70
1
 66
1
  0
VERTEX
  8
0
 10
2862.6617974123933
 20
971.19942666022268
 42
-1
  0
VERTEX
  8
0
 10
2862.1382003172316
 20
851.20057106940237
 42
-1
  0
SEQEND
  0
POLYLINE
  8
0
 10
0
 20
0
 39
0
 70
1
 66
1
  0
VERTEX
  8
0
 10
2862.5308981386029
 20
941.19971276251761
 42
1
  0
VERTEX
  8
0
 10
2862.269099591022
 20
881.20028496710745
 42
1
  0
SEQEND
  0
POLYLINE
  8
0
 10
0
 20
0
 39
0
 70
1
 66
1
  0
VERTEX
  8
0
 10
2971.1999999999998
 20
800.39999999999998
 42
-0
  0
VERTEX
  8
0
 10
2971.1999999999998
 20
10.400000000000004
 42
-0
  0
VERTEX
  8
0
 10
2911.1999999999998
 20
10.4
 42
-0
  0
VERTEX
  8
0
 10
2911.1999999999998
 20
860.39999999999998
 42
-0
  0
VERTEX
  8
0
 10
2946.1999999999998
 20
860.39999999999998
 42
0
  0
SEQEND
  0
POLYLINE
  8
0
 10
0
 20
0
 39
0
 70
1
 66
1
  0
VERTEX
  8
0
 10
2941.1999999999998
 20
49.899999999999999
 42
1
  0
VERTEX
  8
0
 10
2941.1999999999998
 20
66.900000000000006
 42
1
  0
SEQEND
  0
POLYLINE
  8
0
 10
0
 20
0
 39
0
 70
1
 66
1
  0
VERTEX
  8
0
 10
2941.1999999999998
 20
649.89999999999998
 42
1
  0
VERTEX
  8
0
 10
2941.1999999999998
 20
666.89999999999998
 42
1
  0
SEQEND
  0
ENDSEC
  0
EOF
