  0
SECTION
  2
ENTITIES
  0
POLYLINE
  8
0
 10
0
 20
0
 39
0
 70
1
 66
1
  0
VERTEX
  8
0
 10
0
 20
0
 42
0
  0
VERTEX
  8
0
 10
1800
 20
0
 42
0
  0
VERTEX
  8
0
 10
1800
 20
900
 42
0
  0
VERTEX
  8
0
 10
0
 20
900
 42
0
  0
SEQEND
  0
POLYLINE
  8
0
 10
0
 20
0
 39
0
 70
1
 66
1
  0
VERTEX
  8
0
 10
472.02717389906741
 20
202.30449678744174
 42
0
  0
VERTEX
  8
0
 10
360.12535121287203
 20
67.7571812495122
 42
0
  0
VERTEX
  8
0
 10
50.139773599756722
 20
10.159999839914803
 42
0
  0
VERTEX
  8
0
 10
10.159999839914803
 20
43.410827152384286
 42
0
  0
VERTEX
  8
0
 10
10.302330814255242
 20
358.70192023362017
 42
0
  0
VERTEX
  8
0
 10
122.20415350045062
 20
493.24923577154971
 42
0
  0
VERTEX
  8
0
 10
432.18973111356593
 20
550.8464171811471
 42
0
  0
VERTEX
  8
0
 10
472.16950487340785
 20
517.59558986867762
 42
0
  0
SEQEND
  0
POLYLINE
  8
0
 10
0
 20
0
 39
0
 70
1
 66
1
  0
VERTEX
  8
0
 10
119.67134486879206
 20
134.42326592649317
 42
1
  0
VERTEX
  8
0
 10
362.65815984453059
 20
426.58315109456873
 42
1
  0
SEQEND
  0
POLYLINE
  8
0
 10
0
 20
0
 39
0
 70
1
 66
1
  0
VERTEX
  8
0
 10
944.10717389906745
 20
202.30449678744174
 42
0
  0
VERTEX
  8
0
 10
832.20535121287207
 20
67.7571812495122
 42
0
  0
VERTEX
  8
0
 10
522.21977359975676
 20
10.159999839914803
 42
0
  0
VERTEX
  8
0
 10
482.23999983991484
 20
43.410827152384286
 42
0
  0
VERTEX
  8
0
 10
482.38233081425528
 20
358.70192023362017
 42
0
  0
VERTEX
  8
0
 10
594.28415350045066
 20
493.24923577154971
 42
0
  0
VERTEX
  8
0
 10
904.26973111356597
 20
550.8464171811471
 42
0
  0
VERTEX
  8
0
 10
944.24950487340789
 20
517.59558986867762
 42
0
  0
SEQEND
  0
POLYLINE
  8
0
 10
0
 20
0
 39
0
 70
1
 66
1
  0
VERTEX
  8
0
 10
591.7513448687921
 20
134.42326592649317
 42
1
  0
VERTEX
  8
0
 10
834.73815984453063
 20
426.58315109456873
 42
1
  0
SEQEND
  0
POLYLINE
  8
0
 10
0
 20
0
 39
0
 70
1
 66
1
  0
VERTEX
  8
0
 10
1416.1871738990674
 20
202.30449678744174
 42
0
  0
VERTEX
  8
0
 10
1304.285351212872
 20
67.7571812495122
 42
0
  0
VERTEX
  8
0
 10
994.29977359975669
 20
10.159999839914803
 42
0
  0
VERTEX
  8
0
 10
954.31999983991477
 20
43.410827152384286
 42
0
  0
VERTEX
  8
0
 10
954.46233081425521
 20
358.70192023362017
 42
0
  0
VERTEX
  8
0
 10
1066.3641535004506
 20
493.24923577154971
 42
0
  0
VERTEX
  8
0
 10
1376.3497311135659
 20
550.8464171811471
 42
0
  0
VERTEX
  8
0
 10
1416.3295048734078
 20
517.59558986867762
 42
0
  0
SEQEND
  0
POLYLINE
  8
0
 10
0
 20
0
 39
0
 70
1
 66
1
  0
VERTEX
  8
0
 10
1063.831344868792
 20
134.42326592649317
 42
1
  0
VERTEX
  8
0
 10
1306.8181598445306
 20
426.58315109456873
 42
1
  0
SEQEND
  0
POLYLINE
  8
0
 10
0
 20
0
 39
0
 70
1
 66
1
  0
VERTEX
  8
0
 10
188.43448418266937
 20
874.07830404083097
 42
-1
  0
VERTEX
  8
0
 10
186.88550944281607
 20
519.08168958465421
 42
-1
  0
SEQEND
  0
POLYLINE
  8
0
 10
0
 20
0
 39
0
 70
1
 66
1
  0
VERTEX
  8
0
 10
298.1389117748929
 20
806.09898376709634
 42
0
  0
VERTEX
  8
0
 10
78.141009858388969
 20
807.05891177489275
 42
0
  0
VERTEX
  8
0
 10
77.181081850592562
 20
587.06100985838884
 42
0
  0
VERTEX
  8
0
 10
297.1789837670965
 20
586.10108185059244
 42
0
  0
SEQEND
  0
POLYLINE
  8
0
 10
0
 20
0
 39
0
 70
1
 66
1
  0
VERTEX
  8
0
 10
239.91448418266936
 20
457.31830404083109
 42
-1
  0
VERTEX
  8
0
 10
238.36550944281606
 20
102.32168958465434
 42
-1
  0
SEQEND
  0
POLYLINE
  8
0
 10
0
 20
0
 39
0
 70
1
 66
1
  0
VERTEX
  8
0
 10
349.61891177489287
 20
389.33898376709647
 42
0
  0
VERTEX
  8
0
 10
129.62100985838896
 20
390.29891177489287
 42
0
  0
VERTEX
  8
0
 10
128.66108185059255
 20
170.30100985838897
 42
0
  0
VERTEX
  8
0
 10
348.65898376709646
 20
169.34108185059256
 42
0
  0
SEQEND
  0
POLYLINE
  8
0
 10
0
 20
0
 39
0
 70
1
 66
1
  0
VERTEX
  8
0
 10
553.47448418266936
 20
888.83830404083096
 42
-1
  0
VERTEX
  8
0
 10
551.92550944281606
 20
533.8416895846542
 42
-1
  0
SEQEND
  0
POLYLINE
  8
0
 10
0
 20
0
 39
0
 70
1
 66
1
  0
VERTEX
  8
0
 10
663.17891177489287
 20
820.85898376709633
 42
0
  0
VERTEX
  8
0
 10
443.18100985838896
 20
821.81891177489274
 42
0
  0
VERTEX
  8
0
 10
442.22108185059255
 20
601.82100985838883
 42
0
  0
VERTEX
  8
0
 10
662.21898376709646
 20
600.86108185059243
 42
0
  0
SEQEND
  0
POLYLINE
  8
0
 10
0
 20
0
 39
0
 70
1
 66
1
  0
VERTEX
  8
0
 10
711.99448418266934
 20
457.31830404083109
 42
-1
  0
VERTEX
  8
0
 10
710.44550944281605
 20
102.32168958465434
 42
-1
  0
SEQEND
  0
POLYLINE
  8
0
 10
0
 20
0
 39
0
 70
1
 66
1
  0
VERTEX
  8
0
 10
821.69891177489285
 20
389.33898376709647
 42
0
  0
VERTEX
  8
0
 10
601.70100985838894
 20
390.29891177489287
 42
0
  0
VERTEX
  8
0
 10
600.74108185059254
 20
170.30100985838897
 42
0
  0
VERTEX
  8
0
 10
820.73898376709644
 20
169.34108185059256
 42
0
  0
SEQEND
  0
POLYLINE
  8
0
 10
0
 20
0
 39
0
 70
1
 66
1
  0
VERTEX
  8
0
 10
1001.0744841826693
 20
889.798304040831
 42
-1
  0
VERTEX
  8
0
 10
999.52550944281597
 20
534.80168958465424
 42
-1
  0
SEQEND
  0
POLYLINE
  8
0
 10
0
 20
0
 39
0
 70
1
 66
1
  0
VERTEX
  8
0
 10
1110.7789117748928
 20
821.81898376709637
 42
0
  0
VERTEX
  8
0
 10
890.78100985838887
 20
822.77891177489278
 42
0
  0
VERTEX
  8
0
 10
889.82108185059246
 20
602.78100985838887
 42
0
  0
VERTEX
  8
0
 10
1109.8189837670964
 20
601.82108185059246
 42
0
  0
SEQEND
  0
POLYLINE
  8
0
 10
0
 20
0
 39
0
 70
1
 66
1
  0
VERTEX
  8
0
 10
1184.0744841826693
 20
457.31830404083109
 42
-1
  0
VERTEX
  8
0
 10
1182.525509442816
 20
102.32168958465434
 42
-1
  0
SEQEND
  0
POLYLINE
  8
0
 10
0
 20
0
 39
0
 70
1
 66
1
  0
VERTEX
  8
0
 10
1293.7789117748928
 20
389.33898376709647
 42
0
  0
VERTEX
  8
0
 10
1073.7810098583889
 20
390.29891177489287
 42
0
  0
VERTEX
  8
0
 10
1072.8210818505925
 20
170.30100985838897
 42
0
  0
VERTEX
  8
0
 10
1292.8189837670964
 20
169.34108185059256
 42
0
  0
SEQEND
  0
POLYLINE
  8
0
 10
0
 20
0
 39
0
 70
1
 66
1
  0
VERTEX
  8
0
 10
1473.1544841826692
 20
889.798304040831
 42
-1
  0
VERTEX
  8
0
 10
1471.6055094428159
 20
534.80168958465424
 42
-1
  0
SEQEND
  0
POLYLINE
  8
0
 10
0
 20
0
 39
0
 70
1
 66
1
  0
VERTEX
  8
0
 10
1582.8589117748927
 20
821.81898376709637
 42
0
  0
VERTEX
  8
0
 10
1362.8610098583888
 20
822.77891177489278
 42
0
  0
VERTEX
  8
0
 10
1361.9010818505924
 20
602.78100985838887
 42
0
  0
VERTEX
  8
0
 10
1581.8989837670963
 20
601.82108185059246
 42
0
  0
SEQEND
  0
POLYLINE
  8
0
 10
0
 20
0
 39
0
 70
1
 66
1
  0
VERTEX
  8
0
 10
268.27999999999997
 20
597.19999999999993
 42
-0
  0
VERTEX
  8
0
 10
88.280000000000001
 20
597.19999999999993
 42
-0
  0
VERTEX
  8
0
 10
88.280000000000001
 20
787.19999999999993
 42
-0
  0
VERTEX
  8
0
 10
268.27999999999997
 20
787.19999999999993
 42
-0
  0
SEQEND
  0
POLYLINE
  8
0
 10
0
 20
0
 39
0
 70
1
 66
1
  0
VERTEX
  8
0
 10
197.28
 20
744.12214202880853
 42
1
  0
VERTEX
  8
0
 10
159.28
 20
744.12214202880853
 42
1
  0
SEQEND
  0
POLYLINE
  8
0
 10
0
 20
0
 39
0
 70
1
 66
1
  0
VERTEX
  8
0
 10
197.28
 20
680.24244613647454
 42
-0
  0
VERTEX
  8
0
 10
159.28
 20
680.24244613647454
 42
-0
  0
VERTEX
  8
0
 10
159.28
 20
630.24244232177728
 42
-0
  0
VERTEX
  8
0
 10
197.28
 20
630.24244232177728
 42
-0
  0
SEQEND
  0
POLYLINE
  8
0
 10
0
 20
0
 39
0
 70
1
 66
1
  0
VERTEX
  8
0
 10
319.75999999999999
 20
180.44
 42
-0
  0
VERTEX
  8
0
 10
139.75999999999999
 20
180.44
 42
-0
  0
VERTEX
  8
0
 10
139.75999999999999
 20
370.44
 42
-0
  0
VERTEX
  8
0
 10
319.75999999999999
 20
370.44
 42
-0
  0
SEQEND
  0
POLYLINE
  8
0
 10
0
 20
0
 39
0
 70
1
 66
1
  0
VERTEX
  8
0
 10
248.75999999999999
 20
327.36214202880859
 42
1
  0
VERTEX
  8
0
 10
210.75999999999999
 20
327.36214202880859
 42
1
  0
SEQEND
  0
POLYLINE
  8
0
 10
0
 20
0
 39
0
 70
1
 66
1
  0
VERTEX
  8
0
 10
248.75999999999999
 20
263.48244613647461
 42
-0
  0
VERTEX
  8
0
 10
210.75999999999999
 20
263.48244613647461
 42
-0
  0
VERTEX
  8
0
 10
210.75999999999999
 20
213.48244232177734
 42
-0
  0
VERTEX
  8
0
 10
248.75999999999999
 20
213.48244232177734
 42
-0
  0
SEQEND
  0
POLYLINE
  8
0
 10
0
 20
0
 39
0
 70
1
 66
1
  0
VERTEX
  8
0
 10
633.31999999999994
 20
611.95999999999992
 42
-0
  0
VERTEX
  8
0
 10
453.31999999999994
 20
611.95999999999992
 42
-0
  0
VERTEX
  8
0
 10
453.31999999999994
 20
801.95999999999992
 42
-0
  0
VERTEX
  8
0
 10
633.31999999999994
 20
801.95999999999992
 42
-0
  0
SEQEND
  0
POLYLINE
  8
0
 10
0
 20
0
 39
0
 70
1
 66
1
  0
VERTEX
  8
0
 10
562.31999999999994
 20
758.88214202880852
 42
1
  0
VERTEX
  8
0
 10
524.31999999999994
 20
758.88214202880852
 42
1
  0
SEQEND
  0
POLYLINE
  8
0
 10
0
 20
0
 39
0
 70
1
 66
1
  0
VERTEX
  8
0
 10
562.31999999999994
 20
695.00244613647453
 42
-0
  0
VERTEX
  8
0
 10
524.31999999999994
 20
695.00244613647453
 42
-0
  0
VERTEX
  8
0
 10
524.31999999999994
 20
645.00244232177727
 42
-0
  0
VERTEX
  8
0
 10
562.31999999999994
 20
645.00244232177727
 42
-0
  0
SEQEND
  0
POLYLINE
  8
0
 10
0
 20
0
 39
0
 70
1
 66
1
  0
VERTEX
  8
0
 10
791.83999999999992
 20
180.44
 42
-0
  0
VERTEX
  8
0
 10
611.83999999999992
 20
180.44
 42
-0
  0
VERTEX
  8
0
 10
611.83999999999992
 20
370.44
 42
-0
  0
VERTEX
  8
0
 10
791.83999999999992
 20
370.44
 42
-0
  0
SEQEND
  0
POLYLINE
  8
0
 10
0
 20
0
 39
0
 70
1
 66
1
  0
VERTEX
  8
0
 10
720.83999999999992
 20
327.36214202880859
 42
1
  0
VERTEX
  8
0
 10
682.83999999999992
 20
327.36214202880859
 42
1
  0
SEQEND
  0
POLYLINE
  8
0
 10
0
 20
0
 39
0
 70
1
 66
1
  0
VERTEX
  8
0
 10
720.83999999999992
 20
263.48244613647461
 42
-0
  0
VERTEX
  8
0
 10
682.83999999999992
 20
263.48244613647461
 42
-0
  0
VERTEX
  8
0
 10
682.83999999999992
 20
213.48244232177734
 42
-0
  0
VERTEX
  8
0
 10
720.83999999999992
 20
213.48244232177734
 42
-0
  0
SEQEND
  0
POLYLINE
  8
0
 10
0
 20
0
 39
0
 70
1
 66
1
  0
VERTEX
  8
0
 10
1080.9200000000001
 20
612.91999999999996
 42
-0
  0
VERTEX
  8
0
 10
900.91999999999996
 20
612.91999999999996
 42
-0
  0
VERTEX
  8
0
 10
900.91999999999996
 20
802.91999999999996
 42
-0
  0
VERTEX
  8
0
 10
1080.9200000000001
 20
802.91999999999996
 42
-0
  0
SEQEND
  0
POLYLINE
  8
0
 10
0
 20
0
 39
0
 70
1
 66
1
  0
VERTEX
  8
0
 10
1009.92
 20
759.84214202880855
 42
1
  0
VERTEX
  8
0
 10
971.91999999999996
 20
759.84214202880855
 42
1
  0
SEQEND
  0
POLYLINE
  8
0
 10
0
 20
0
 39
0
 70
1
 66
1
  0
VERTEX
  8
0
 10
1009.92
 20
695.96244613647457
 42
-0
  0
VERTEX
  8
0
 10
971.91999999999996
 20
695.96244613647457
 42
-0
  0
VERTEX
  8
0
 10
971.91999999999996
 20
645.9624423217773
 42
-0
  0
VERTEX
  8
0
 10
1009.92
 20
645.9624423217773
 42
-0
  0
SEQEND
  0
POLYLINE
  8
0
 10
0
 20
0
 39
0
 70
1
 66
1
  0
VERTEX
  8
0
 10
1263.9199999999998
 20
180.44
 42
-0
  0
VERTEX
  8
0
 10
1083.9199999999998
 20
180.44
 42
-0
  0
VERTEX
  8
0
 10
1083.9199999999998
 20
370.44
 42
-0
  0
VERTEX
  8
0
 10
1263.9199999999998
 20
370.44
 42
-0
  0
SEQEND
  0
POLYLINE
  8
0
 10
0
 20
0
 39
0
 70
1
 66
1
  0
VERTEX
  8
0
 10
1192.9199999999998
 20
327.36214202880859
 42
1
  0
VERTEX
  8
0
 10
1154.9199999999998
 20
327.36214202880859
 42
1
  0
SEQEND
  0
POLYLINE
  8
0
 10
0
 20
0
 39
0
 70
1
 66
1
  0
VERTEX
  8
0
 10
1192.9199999999998
 20
263.48244613647461
 42
-0
  0
VERTEX
  8
0
 10
1154.9199999999998
 20
263.48244613647461
 42
-0
  0
VERTEX
  8
0
 10
1154.9199999999998
 20
213.48244232177734
 42
-0
  0
VERTEX
  8
0
 10
1192.9199999999998
 20
213.48244232177734
 42
-0
  0
SEQEND
  0
POLYLINE
  8
0
 10
0
 20
0
 39
0
 70
1
 66
1
  0
VERTEX
  8
0
 10
1553
 20
612.91999999999996
 42
-0
  0
VERTEX
  8
0
 10
1373
 20
612.91999999999996
 42
-0
  0
VERTEX
  8
0
 10
1373
 20
802.91999999999996
 42
-0
  0
VERTEX
  8
0
 10
1553
 20
802.91999999999996
 42
-0
  0
SEQEND
  0
POLYLINE
  8
0
 10
0
 20
0
 39
0
 70
1
 66
1
  0
VERTEX
  8
0
 10
1482
 20
759.84214202880855
 42
1
  0
VERTEX
  8
0
 10
1444
 20
759.84214202880855
 42
1
  0
SEQEND
  0
POLYLINE
  8
0
 10
0
 20
0
 39
0
 70
1
 66
1
  0
VERTEX
  8
0
 10
1482
 20
695.96244613647457
 42
-0
  0
VERTEX
  8
0
 10
1444
 20
695.96244613647457
 42
-0
  0
VERTEX
  8
0
 10
1444
 20
645.9624423217773
 42
-0
  0
VERTEX
  8
0
 10
1482
 20
645.9624423217773
 42
-0
  0
SEQEND
  0
POLYLINE
  8
0
 10
0
 20
0
 39
0
 70
1
 66
1
  0
VERTEX
  8
0
 10
1426.3999999999999
 20
10.16
 42
-0
  0
VERTEX
  8
0
 10
1426.3999999999999
 20
242.16
 42
-0
  0
VERTEX
  8
0
 10
1546.3999999999999
 20
242.16
 42
-0
  0
VERTEX
  8
0
 10
1546.3999999999999
 20
10.160000000000007
 42
-0
  0
SEQEND
  0
POLYLINE
  8
0
 10
0
 20
0
 39
0
 70
1
 66
1
  0
VERTEX
  8
0
 10
1486.3999999999999
 20
49.17378631591798
 42
1
  0
VERTEX
  8
0
 10
1486.3999999999999
 20
69.17378631591798
 42
1
  0
SEQEND
  0
POLYLINE
  8
0
 10
0
 20
0
 39
0
 70
1
 66
1
  0
VERTEX
  8
0
 10
1486.3999999999999
 20
171.34116760253906
 42
1
  0
VERTEX
  8
0
 10
1486.3999999999999
 20
191.34116760253906
 42
1
  0
SEQEND
  0
POLYLINE
  8
0
 10
0
 20
0
 39
0
 70
1
 66
1
  0
VERTEX
  8
0
 10
1426.52
 20
252.19999999999999
 42
-0
  0
VERTEX
  8
0
 10
1426.52
 20
484.19999999999999
 42
-0
  0
VERTEX
  8
0
 10
1546.52
 20
484.19999999999999
 42
-0
  0
VERTEX
  8
0
 10
1546.52
 20
252.19999999999999
 42
-0
  0
SEQEND
  0
POLYLINE
  8
0
 10
0
 20
0
 39
0
 70
1
 66
1
  0
VERTEX
  8
0
 10
1486.52
 20
291.21378631591796
 42
1
  0
VERTEX
  8
0
 10
1486.52
 20
311.21378631591796
 42
1
  0
SEQEND
  0
POLYLINE
  8
0
 10
0
 20
0
 39
0
 70
1
 66
1
  0
VERTEX
  8
0
 10
1486.52
 20
413.38116760253905
 42
1
  0
VERTEX
  8
0
 10
1486.52
 20
433.38116760253905
 42
1
  0
SEQEND
  0
POLYLINE
  8
0
 10
0
 20
0
 39
0
 70
1
 66
1
  0
VERTEX
  8
0
 10
1556.5999999999999
 20
10.16
 42
-0
  0
VERTEX
  8
0
 10
1556.5999999999999
 20
242.16
 42
-0
  0
VERTEX
  8
0
 10
1676.5999999999999
 20
242.16
 42
-0
  0
VERTEX
  8
0
 10
1676.5999999999999
 20
10.160000000000007
 42
-0
  0
SEQEND
  0
POLYLINE
  8
0
 10
0
 20
0
 39
0
 70
1
 66
1
  0
VERTEX
  8
0
 10
1616.5999999999999
 20
49.17378631591798
 42
1
  0
VERTEX
  8
0
 10
1616.5999999999999
 20
69.17378631591798
 42
1
  0
SEQEND
  0
POLYLINE
  8
0
 10
0
 20
0
 39
0
 70
1
 66
1
  0
VERTEX
  8
0
 10
1616.5999999999999
 20
171.34116760253906
 42
1
  0
VERTEX
  8
0
 10
1616.5999999999999
 20
191.34116760253906
 42
1
  0
SEQEND
  0
POLYLINE
  8
0
 10
0
 20
0
 39
0
 70
1
 66
1
  0
VERTEX
  8
0
 10
1556.7199999999998
 20
252.19999999999999
 42
-0
  0
VERTEX
  8
0
 10
1556.7199999999998
 20
484.19999999999999
 42
-0
  0
VERTEX
  8
0
 10
1676.7199999999998
 20
484.19999999999999
 42
-0
  0
VERTEX
  8
0
 10
1676.7199999999998
 20
252.19999999999999
 42
-0
  0
SEQEND
  0
POLYLINE
  8
0
 10
0
 20
0
 39
0
 70
1
 66
1
  0
VERTEX
  8
0
 10
1616.7199999999998
 20
291.21378631591796
 42
1
  0
VERTEX
  8
0
 10
1616.7199999999998
 20
311.21378631591796
 42
1
  0
SEQEND
  0
POLYLINE
  8
0
 10
0
 20
0
 39
0
 70
1
 66
1
  0
VERTEX
  8
0
 10
1616.7199999999998
 20
413.38116760253905
 42
1
  0
VERTEX
  8
0
 10
1616.7199999999998
 20
433.38116760253905
 42
1
  0
SEQEND
  0
POLYLINE
  8
0
 10
0
 20
0
 39
0
 70
1
 66
1
  0
VERTEX
  8
0
 10
1660.04
 20
494.23999999999995
 42
-0
  0
VERTEX
  8
0
 10
1660.04
 20
726.24000000000001
 42
-0
  0
VERTEX
  8
0
 10
1780.04
 20
726.24000000000001
 42
-0
  0
VERTEX
  8
0
 10
1780.04
 20
494.23999999999995
 42
-0
  0
SEQEND
  0
POLYLINE
  8
0
 10
0
 20
0
 39
0
 70
1
 66
1
  0
VERTEX
  8
0
 10
1720.04
 20
533.25378631591798
 42
1
  0
VERTEX
  8
0
 10
1720.04
 20
553.25378631591798
 42
1
  0
SEQEND
  0
POLYLINE
  8
0
 10
0
 20
0
 39
0
 70
1
 66
1
  0
VERTEX
  8
0
 10
1720.04
 20
655.42116760253907
 42
1
  0
VERTEX
  8
0
 10
1720.04
 20
675.42116760253907
 42
1
  0
SEQEND
  0
POLYLINE
  8
0
 10
0
 20
0
 39
0
 70
1
 66
1
  0
VERTEX
  8
0
 10
808.3599999999999
 20
621.75999999999999
 42
-0
  0
VERTEX
  8
0
 10
808.3599999999999
 20
551.75999999999999
 42
0
  0
VERTEX
  8
0
 10
798.3599999999999
 20
541.75999999999999
 42
-0
  0
VERTEX
  8
0
 10
740.3599999999999
 20
541.75999999999999
 42
-0
  0
VERTEX
  8
0
 10
740.3599999999999
 20
706.75999999999999
 42
0
  0
SEQEND
  0
POLYLINE
  8
0
 10
0
 20
0
 39
0
 70
1
 66
1
  0
VERTEX
  8
0
 10
783.3599999999999
 20
580.25999999999999
 42
1
  0
VERTEX
  8
0
 10
783.3599999999999
 20
593.25999999999999
 42
1
  0
SEQEND
  0
POLYLINE
  8
0
 10
0
 20
0
 39
0
 70
1
 66
1
  0
VERTEX
  8
0
 10
740.3599999999999
 20
723.04499999999996
 42
-0
  0
VERTEX
  8
0
 10
740.3599999999999
 20
793.04499999999996
 42
0
  0
VERTEX
  8
0
 10
750.3599999999999
 20
803.04499999999996
 42
-0
  0
VERTEX
  8
0
 10
808.3599999999999
 20
803.04499999999996
 42
-0
  0
VERTEX
  8
0
 10
808.3599999999999
 20
638.04499999999996
 42
0
  0
SEQEND
  0
POLYLINE
  8
0
 10
0
 20
0
 39
0
 70
1
 66
1
  0
VERTEX
  8
0
 10
765.3599999999999
 20
764.54499999999996
 42
1
  0
VERTEX
  8
0
 10
765.3599999999999
 20
751.54499999999996
 42
1
  0
SEQEND
  0
POLYLINE
  8
0
 10
0
 20
0
 39
0
 70
1
 66
1
  0
VERTEX
  8
0
 10
1255.8399999999999
 20
618.03999999999996
 42
-0
  0
VERTEX
  8
0
 10
1255.8399999999999
 20
548.03999999999996
 42
0
  0
VERTEX
  8
0
 10
1245.8399999999999
 20
538.03999999999996
 42
-0
  0
VERTEX
  8
0
 10
1187.8399999999999
 20
538.03999999999996
 42
-0
  0
VERTEX
  8
0
 10
1187.8399999999999
 20
703.03999999999996
 42
0
  0
SEQEND
  0
POLYLINE
  8
0
 10
0
 20
0
 39
0
 70
1
 66
1
  0
VERTEX
  8
0
 10
1230.8399999999999
 20
576.53999999999996
 42
1
  0
VERTEX
  8
0
 10
1230.8399999999999
 20
589.53999999999996
 42
1
  0
SEQEND
  0
POLYLINE
  8
0
 10
0
 20
0
 39
0
 70
1
 66
1
  0
VERTEX
  8
0
 10
1187.8399999999999
 20
719.32499999999993
 42
-0
  0
VERTEX
  8
0
 10
1187.8399999999999
 20
789.32499999999993
 42
0
  0
VERTEX
  8
0
 10
1197.8399999999999
 20
799.32499999999993
 42
-0
  0
VERTEX
  8
0
 10
1255.8399999999999
 20
799.32499999999993
 42
-0
  0
VERTEX
  8
0
 10
1255.8399999999999
 20
634.32499999999993
 42
0
  0
SEQEND
  0
POLYLINE
  8
0
 10
0
 20
0
 39
0
 70
1
 66
1
  0
VERTEX
  8
0
 10
1212.8399999999999
 20
760.82499999999993
 42
1
  0
VERTEX
  8
0
 10
1212.8399999999999
 20
747.82499999999993
 42
1
  0
SEQEND
  0
POLYLINE
  8
0
 10
0
 20
0
 39
0
 70
1
 66
1
  0
VERTEX
  8
0
 10
1755.04
 20
90.159999999999997
 42
-0
  0
VERTEX
  8
0
 10
1755.04
 20
20.160000000000004
 42
0
  0
VERTEX
  8
0
 10
1745.04
 20
10.160000000000004
 42
-0
  0
VERTEX
  8
0
 10
1687.04
 20
10.16
 42
-0
  0
VERTEX
  8
0
 10
1687.04
 20
175.16
 42
0
  0
SEQEND
  0
POLYLINE
  8
0
 10
0
 20
0
 39
0
 70
1
 66
1
  0
VERTEX
  8
0
 10
1730.04
 20
48.659999999999997
 42
1
  0
VERTEX
  8
0
 10
1730.04
 20
61.659999999999997
 42
1
  0
SEQEND
  0
POLYLINE
  8
0
 10
0
 20
0
 39
0
 70
1
 66
1
  0
VERTEX
  8
0
 10
1687.04
 20
191.44499999999999
 42
-0
  0
VERTEX
  8
0
 10
1687.04
 20
261.44499999999999
 42
0
  0
VERTEX
  8
0
 10
1697.04
 20
271.44499999999999
 42
-0
  0
VERTEX
  8
0
 10
1755.04
 20
271.44499999999999
 42
-0
  0
VERTEX
  8
0
 10
1755.04
 20
106.44499999999999
 42
0
  0
SEQEND
  0
POLYLINE
  8
0
 10
0
 20
0
 39
0
 70
1
 66
1
  0
VERTEX
  8
0
 10
1712.04
 20
232.94499999999999
 42
1
  0
VERTEX
  8
0
 10
1712.04
 20
219.94499999999999
 42
1
  0
SEQEND
  0
POLYLINE
  8
0
 10
0
 20
0
 39
0
 70
1
 66
1
  0
VERTEX
  8
0
 10
1655.3599999999999
 20
754.75999999999999
 42
-0
  0
VERTEX
  8
0
 10
1655.3599999999999
 20
889.75999999999999
 42
0
  0
VERTEX
  8
0
 10
1765.3599999999999
 20
754.75999999999999
 42
0
  0
SEQEND
  0
POLYLINE
  8
0
 10
0
 20
0
 39
0
 70
1
 66
1
  0
VERTEX
  8
0
 10
1689.9619134521483
 20
773.22043968200683
 42
1
  0
VERTEX
  8
0
 10
1689.9619134521483
 20
813.22044158935546
 42
1
  0
SEQEND
  0
POLYLINE
  8
0
 10
0
 20
0
 39
0
 70
1
 66
1
  0
VERTEX
  8
0
 10
1778.4534999999998
 20
889.75999999999999
 42
-0
  0
VERTEX
  8
0
 10
1778.4534999999998
 20
754.75999999999999
 42
0
  0
VERTEX
  8
0
 10
1668.4534999999998
 20
889.75999999999999
 42
0
  0
SEQEND
  0
POLYLINE
  8
0
 10
0
 20
0
 39
0
 70
1
 66
1
  0
VERTEX
  8
0
 10
1743.8515865478514
 20
871.29956031799315
 42
1
  0
VERTEX
  8
0
 10
1743.8515865478514
 20
831.29955841064452
 42
1
  0
SEQEND
  0
POLYLINE
  8
0
 10
0
 20
0
 39
0
 70
1
 66
1
  0
VERTEX
  8
0
 10
440.71999999999997
 20
10.16
 42
-0
  0
VERTEX
  8
0
 10
305.71999999999997
 20
10.16
 42
0
  0
VERTEX
  8
0
 10
440.71999999999997
 20
120.16
 42
0
  0
SEQEND
  0
POLYLINE
  8
0
 10
0
 20
0
 39
0
 70
1
 66
1
  0
VERTEX
  8
0
 10
422.25956031799313
 20
44.761913452148434
 42
1
  0
VERTEX
  8
0
 10
382.2595584106445
 20
44.761913452148434
 42
1
  0
SEQEND
  0
POLYLINE
  8
0
 10
0
 20
0
 39
0
 70
1
 66
1
  0
VERTEX
  8
0
 10
912.79999999999995
 20
10.16
 42
-0
  0
VERTEX
  8
0
 10
777.79999999999995
 20
10.16
 42
0
  0
VERTEX
  8
0
 10
912.79999999999995
 20
120.16
 42
0
  0
SEQEND
  0
POLYLINE
  8
0
 10
0
 20
0
 39
0
 70
1
 66
1
  0
VERTEX
  8
0
 10
894.33956031799312
 20
44.761913452148434
 42
1
  0
VERTEX
  8
0
 10
854.33955841064449
 20
44.761913452148434
 42
1
  0
SEQEND
  0
POLYLINE
  8
0
 10
0
 20
0
 39
0
 70
1
 66
1
  0
VERTEX
  8
0
 10
1384.8799999999999
 20
10.16
 42
-0
  0
VERTEX
  8
0
 10
1249.8799999999999
 20
10.16
 42
0
  0
VERTEX
  8
0
 10
1384.8799999999999
 20
120.16
 42
0
  0
SEQEND
  0
POLYLINE
  8
0
 10
0
 20
0
 39
0
 70
1
 66
1
  0
VERTEX
  8
0
 10
1366.419560317993
 20
44.761913452148434
 42
1
  0
VERTEX
  8
0
 10
1326.4195584106444
 20
44.761913452148434
 42
1
  0
SEQEND
  0
POLYLINE
  8
0
 10
0
 20
0
 39
0
 70
1
 66
1
  0
VERTEX
  8
0
 10
1637.1199999999999
 20
494.23999999999995
 42
-0
  0
VERTEX
  8
0
 10
1502.1199999999999
 20
494.23999999999995
 42
0
  0
VERTEX
  8
0
 10
1637.1199999999999
 20
604.24000000000001
 42
0
  0
SEQEND
  0
POLYLINE
  8
0
 10
0
 20
0
 39
0
 70
1
 66
1
  0
VERTEX
  8
0
 10
1618.6595603179931
 20
528.84191345214845
 42
1
  0
VERTEX
  8
0
 10
1578.6595584106444
 20
528.84191345214845
 42
1
  0
SEQEND
  0
POLYLINE
  8
0
 10
0
 20
0
 39
0
 70
1
 66
1
  0
VERTEX
  8
0
 10
10.16
 20
509.59999999999997
 42
0
  0
VERTEX
  8
0
 10
10.160000000000009
 20
374.59999999999997
 42
-0
  0
VERTEX
  8
0
 10
120.16
 20
509.59999999999997
 42
-0
  0
SEQEND
  0
POLYLINE
  8
0
 10
0
 20
0
 39
0
 70
1
 66
1
  0
VERTEX
  8
0
 10
44.761913452148434
 20
491.13956031799313
 42
-1
  0
VERTEX
  8
0
 10
44.761913452148448
 20
451.1395584106445
 42
-1
  0
SEQEND
  0
POLYLINE
  8
0
 10
0
 20
0
 39
0
 70
1
 66
1
  0
VERTEX
  8
0
 10
482.35999999999996
 20
509.71999999999997
 42
0
  0
VERTEX
  8
0
 10
482.35999999999996
 20
374.71999999999997
 42
-0
  0
VERTEX
  8
0
 10
592.3599999999999
 20
509.71999999999997
 42
-0
  0
SEQEND
  0
POLYLINE
  8
0
 10
0
 20
0
 39
0
 70
1
 66
1
  0
VERTEX
  8
0
 10
516.96191345214834
 20
491.25956031799313
 42
-1
  0
VERTEX
  8
0
 10
516.96191345214845
 20
451.2595584106445
 42
-1
  0
SEQEND
  0
POLYLINE
  8
0
 10
0
 20
0
 39
0
 70
1
 66
1
  0
VERTEX
  8
0
 10
954.43999999999994
 20
509.71999999999997
 42
0
  0
VERTEX
  8
0
 10
954.43999999999994
 20
374.71999999999997
 42
-0
  0
VERTEX
  8
0
 10
1064.4400000000001
 20
509.71999999999997
 42
-0
  0
SEQEND
  0
POLYLINE
  8
0
 10
0
 20
0
 39
0
 70
1
 66
1
  0
VERTEX
  8
0
 10
989.04191345214838
 20
491.25956031799313
 42
-1
  0
VERTEX
  8
0
 10
989.04191345214838
 20
451.2595584106445
 42
-1
  0
SEQEND
  0
POLYLINE
  8
0
 10
0
 20
0
 39
0
 70
1
 66
1
  0
VERTEX
  8
0
 10
1296.3199999999999
 20
889.71999999999991
 42
0
  0
VERTEX
  8
0
 10
1161.3199999999999
 20
889.71999999999991
 42
-0
  0
VERTEX
  8
0
 10
1296.3199999999999
 20
779.71999999999991
 42
-0
  0
SEQEND
  0
POLYLINE
  8
0
 10
0
 20
0
 39
0
 70
1
 66
1
  0
VERTEX
  8
0
 10
1277.8595603179931
 20
855.11808654785148
 42
-1
  0
VERTEX
  8
0
 10
1237.8595584106445
 20
855.11808654785148
 42
-1
  0
SEQEND
  0
POLYLINE
  8
0
 10
0
 20
0
 39
0
 70
1
 66
1
  0
VERTEX
  8
0
 10
1787.04
 20
281.47999999999996
 42
-0
  0
VERTEX
  8
0
 10
1687.04
 20
281.47999999999996
 42
-0
  0
VERTEX
  8
0
 10
1687.04
 20
291.47999999999996
 42
0.41421356797218323
  0
VERTEX
  8
0
 10
1777.04
 20
381.47999999999996
 42
0
  0
VERTEX
  8
0
 10
1787.04
 20
381.47999999999996
 42
0
  0
SEQEND
  0
POLYLINE
  8
0
 10
0
 20
0
 39
0
 70
1
 66
1
  0
VERTEX
  8
0
 10
1777.7059078598022
 20
302.31128738403316
 42
1
  0
VERTEX
  8
0
 10
1753.7059088134765
 20
302.31128738403316
 42
1
  0
SEQEND
  0
POLYLINE
  8
0
 10
0
 20
0
 39
0
 70
1
 66
1
  0
VERTEX
  8
0
 10
1687.04
 20
402.23699999999997
 42
-0
  0
VERTEX
  8
0
 10
1787.04
 20
402.23699999999997
 42
-0
  0
VERTEX
  8
0
 10
1787.04
 20
392.23699999999997
 42
0.41421356797218323
  0
VERTEX
  8
0
 10
1697.04
 20
302.23699999999997
 42
0
  0
VERTEX
  8
0
 10
1687.04
 20
302.23699999999997
 42
0
  0
SEQEND
  0
POLYLINE
  8
0
 10
0
 20
0
 39
0
 70
1
 66
1
  0
VERTEX
  8
0
 10
1696.3740921401977
 20
381.40571261596676
 42
1
  0
VERTEX
  8
0
 10
1720.3740911865234
 20
381.40571261596676
 42
1
  0
SEQEND
  0
POLYLINE
  8
0
 10
0
 20
0
 39
0
 70
1
 66
1
  0
VERTEX
  8
0
 10
776.91999999999996
 20
821.71999999999991
 42
-0
  0
VERTEX
  8
0
 10
706.91999999999996
 20
821.71999999999991
 42
0
  0
VERTEX
  8
0
 10
696.91999999999996
 20
831.71999999999991
 42
-0
  0
VERTEX
  8
0
 10
696.91999999999996
 20
889.71999999999991
 42
-0
  0
VERTEX
  8
0
 10
861.91999999999996
 20
889.71999999999991
 42
0
  0
SEQEND
  0
POLYLINE
  8
0
 10
0
 20
0
 39
0
 70
1
 66
1
  0
VERTEX
  8
0
 10
735.41999999999996
 20
846.71999999999991
 42
1
  0
VERTEX
  8
0
 10
748.41999999999996
 20
846.71999999999991
 42
1
  0
SEQEND
  0
POLYLINE
  8
0
 10
0
 20
0
 39
0
 70
1
 66
1
  0
VERTEX
  8
0
 10
10.16
 20
881.63999999999999
 42
-0
  0
VERTEX
  8
0
 10
110.16
 20
881.63999999999999
 42
-0
  0
VERTEX
  8
0
 10
110.16
 20
871.63999999999999
 42
0.41421356797218323
  0
VERTEX
  8
0
 10
20.160000000000011
 20
781.63999999999999
 42
0
  0
VERTEX
  8
0
 10
10.160000000000018
 20
781.63999999999999
 42
0
  0
SEQEND
  0
POLYLINE
  8
0
 10
0
 20
0
 39
0
 70
1
 66
1
  0
VERTEX
  8
0
 10
19.494092140197758
 20
860.80871261596678
 42
1
  0
VERTEX
  8
0
 10
43.494091186523434
 20
860.80871261596678
 42
1
  0
SEQEND
  0
POLYLINE
  8
0
 10
0
 20
0
 39
0
 70
1
 66
1
  0
VERTEX
  8
0
 10
360.71999999999997
 20
889.79999999999995
 42
-0
  0
VERTEX
  8
0
 10
360.71999999999997
 20
789.79999999999995
 42
-0
  0
VERTEX
  8
0
 10
350.71999999999997
 20
789.79999999999995
 42
0.41421356797218323
  0
VERTEX
  8
0
 10
260.71999999999997
 20
879.79999999999995
 42
0
  0
VERTEX
  8
0
 10
260.71999999999997
 20
889.79999999999995
 42
0
  0
SEQEND
  0
POLYLINE
  8
0
 10
0
 20
0
 39
0
 70
1
 66
1
  0
VERTEX
  8
0
 10
339.88871261596677
 20
880.4659078598022
 42
1
  0
VERTEX
  8
0
 10
339.88871261596677
 20
856.46590881347652
 42
1
  0
SEQEND
  0
POLYLINE
  8
0
 10
0
 20
0
 39
0
 70
1
 66
1
  0
VERTEX
  8
0
 10
1176.24
 20
524.24000000000001
 42
-0
  0
VERTEX
  8
0
 10
1076.24
 20
524.24000000000001
 42
-0
  0
VERTEX
  8
0
 10
1076.24
 20
534.24000000000001
 42
0.41421356797218323
  0
VERTEX
  8
0
 10
1166.24
 20
624.24000000000001
 42
0
  0
VERTEX
  8
0
 10
1176.24
 20
624.24000000000001
 42
0
  0
SEQEND
  0
POLYLINE
  8
0
 10
0
 20
0
 39
0
 70
1
 66
1
  0
VERTEX
  8
0
 10
1166.9059078598023
 20
545.07128738403321
 42
1
  0
VERTEX
  8
0
 10
1142.9059088134766
 20
545.07128738403321
 42
1
  0
SEQEND
  0
ENDSEC
  0
EOF
