  0
SECTION
  2
ENTITIES
  0
POLYLINE
  8
0
 10
0
 20
0
 39
0
 70
1
 66
1
  0
VERTEX
  8
0
 10
0
 20
0
 42
0
  0
VERTEX
  8
0
 10
2800
 20
0
 42
0
  0
VERTEX
  8
0
 10
2800
 20
1200
 42
0
  0
VERTEX
  8
0
 10
0
 20
1200
 42
0
  0
SEQEND
  0
POLYLINE
  8
0
 10
0
 20
0
 39
0
 70
1
 66
1
  0
VERTEX
  8
0
 10
32.41767142442103
 20
233.76045845004069
 42
-0.55846434831619263
  0
VERTEX
  8
0
 10
456.94247106896603
 20
755.46061599750669
 42
0
  0
VERTEX
  8
0
 10
665.14589707242226
 20
728.05011714000852
 42
0
  0
VERTEX
  8
0
 10
632.42304860746549
 20
479.49538654515732
 42
-1.0733143091201782
  0
SEQEND
  0
POLYLINE
  8
0
 10
0
 20
0
 39
0
 70
1
 66
1
  0
VERTEX
  8
0
 10
613.76801924299684
 20
299.48986748214179
 42
1
  0
VERTEX
  8
0
 10
68.473332091087912
 20
371.27926925177985
 42
1
  0
SEQEND
  0
POLYLINE
  8
0
 10
0
 20
0
 39
0
 70
1
 66
1
  0
VERTEX
  8
0
 10
1280.5491355051786
 20
966.0178995232236
 42
-0.55846434831619263
  0
VERTEX
  8
0
 10
856.02433586063364
 20
444.3177419757576
 42
0
  0
VERTEX
  8
0
 10
647.82090985717753
 20
471.72824083325571
 42
0
  0
VERTEX
  8
0
 10
680.54375832213418
 20
720.28297142810698
 42
-1.0733143091201782
  0
SEQEND
  0
POLYLINE
  8
0
 10
0
 20
0
 39
0
 70
1
 66
1
  0
VERTEX
  8
0
 10
699.19878768660283
 20
900.2884904911225
 42
1
  0
VERTEX
  8
0
 10
1244.4934748385117
 20
828.49908872148444
 42
1
  0
SEQEND
  0
POLYLINE
  8
0
 10
0
 20
0
 39
0
 70
1
 66
1
  0
VERTEX
  8
0
 10
1181.2792098859593
 20
233.76045845004069
 42
-0.55846434831619263
  0
VERTEX
  8
0
 10
1605.8040095305043
 20
755.46061599750669
 42
0
  0
VERTEX
  8
0
 10
1814.0074355339605
 20
728.05011714000852
 42
0
  0
VERTEX
  8
0
 10
1781.2845870690037
 20
479.49538654515732
 42
-1.0733143091201782
  0
SEQEND
  0
POLYLINE
  8
0
 10
0
 20
0
 39
0
 70
1
 66
1
  0
VERTEX
  8
0
 10
1762.629557704535
 20
299.48986748214179
 42
1
  0
VERTEX
  8
0
 10
1217.3348705526262
 20
371.27926925177985
 42
1
  0
SEQEND
  0
POLYLINE
  8
0
 10
0
 20
0
 39
0
 70
1
 66
1
  0
VERTEX
  8
0
 10
2429.4106739667172
 20
966.0178995232236
 42
-0.55846434831619263
  0
VERTEX
  8
0
 10
2004.8858743221722
 20
444.3177419757576
 42
0
  0
VERTEX
  8
0
 10
1796.6824483187161
 20
471.72824083325571
 42
0
  0
VERTEX
  8
0
 10
1829.4052967836728
 20
720.28297142810698
 42
-1.0733143091201782
  0
SEQEND
  0
POLYLINE
  8
0
 10
0
 20
0
 39
0
 70
1
 66
1
  0
VERTEX
  8
0
 10
1848.0603261481415
 20
900.2884904911225
 42
1
  0
VERTEX
  8
0
 10
2393.3550133000504
 20
828.49908872148444
 42
1
  0
SEQEND
  0
POLYLINE
  8
0
 10
0
 20
0
 39
0
 70
1
 66
1
  0
VERTEX
  8
0
 10
168.57183373404627
 20
1032.0600335865211
 42
-1
  0
VERTEX
  8
0
 10
167.19739135924686
 20
717.06303766061785
 42
-1
  0
SEQEND
  0
POLYLINE
  8
0
 10
0
 20
0
 39
0
 70
1
 66
1
  0
VERTEX
  8
0
 10
168.3863930961765
 20
989.56043889810564
 42
1
  0
VERTEX
  8
0
 10
167.38283199711663
 20
759.56263234903338
 42
1
  0
SEQEND
  0
POLYLINE
  8
0
 10
0
 20
0
 39
0
 70
1
 66
1
  0
VERTEX
  8
0
 10
234.9102952725078
 20
490.152341278829
 42
-1
  0
VERTEX
  8
0
 10
233.53585289770839
 20
175.15534535292568
 42
-1
  0
SEQEND
  0
POLYLINE
  8
0
 10
0
 20
0
 39
0
 70
1
 66
1
  0
VERTEX
  8
0
 10
234.72485463463804
 20
447.65274659041347
 42
1
  0
VERTEX
  8
0
 10
233.72129353557816
 20
217.65494004134121
 42
1
  0
SEQEND
  0
POLYLINE
  8
0
 10
0
 20
0
 39
0
 70
1
 66
1
  0
VERTEX
  8
0
 10
453.3102952725078
 20
1189.7215720480597
 42
-1
  0
VERTEX
  8
0
 10
451.9358528977084
 20
874.72457612215635
 42
-1
  0
SEQEND
  0
POLYLINE
  8
0
 10
0
 20
0
 39
0
 70
1
 66
1
  0
VERTEX
  8
0
 10
453.12485463463804
 20
1147.2219773596441
 42
1
  0
VERTEX
  8
0
 10
452.12129353557816
 20
917.22417081057188
 42
1
  0
SEQEND
  0
POLYLINE
  8
0
 10
0
 20
0
 39
0
 70
1
 66
1
  0
VERTEX
  8
0
 10
805.67952604173854
 20
325.38311050959823
 42
-1
  0
VERTEX
  8
0
 10
804.30508366693914
 20
10.386114583694905
 42
-1
  0
SEQEND
  0
POLYLINE
  8
0
 10
0
 20
0
 39
0
 70
1
 66
1
  0
VERTEX
  8
0
 10
805.49408540386878
 20
282.8835158211827
 42
1
  0
VERTEX
  8
0
 10
804.4905243048089
 20
52.885709272110432
 42
1
  0
SEQEND
  0
POLYLINE
  8
0
 10
0
 20
0
 39
0
 70
1
 66
1
  0
VERTEX
  8
0
 10
865.55644911866159
 20
1020.8600335865212
 42
-1
  0
VERTEX
  8
0
 10
864.18200674386219
 20
705.86303766061792
 42
-1
  0
SEQEND
  0
POLYLINE
  8
0
 10
0
 20
0
 39
0
 70
1
 66
1
  0
VERTEX
  8
0
 10
865.37100848079183
 20
978.36043889810571
 42
1
  0
VERTEX
  8
0
 10
864.36744738173195
 20
748.36263234903345
 42
1
  0
SEQEND
  0
POLYLINE
  8
0
 10
0
 20
0
 39
0
 70
1
 66
1
  0
VERTEX
  8
0
 10
1383.7718337340461
 20
490.152341278829
 42
-1
  0
VERTEX
  8
0
 10
1382.3973913592467
 20
175.15534535292568
 42
-1
  0
SEQEND
  0
POLYLINE
  8
0
 10
0
 20
0
 39
0
 70
1
 66
1
  0
VERTEX
  8
0
 10
1383.5863930961764
 20
447.65274659041347
 42
1
  0
VERTEX
  8
0
 10
1382.5828319971165
 20
217.65494004134121
 42
1
  0
SEQEND
  0
POLYLINE
  8
0
 10
0
 20
0
 39
0
 70
1
 66
1
  0
VERTEX
  8
0
 10
1593.1369566634442
 20
1031.3204682823236
 42
-1
  0
VERTEX
  8
0
 10
1278.1399607375408
 20
1032.694910657123
 42
-1
  0
SEQEND
  0
POLYLINE
  8
0
 10
0
 20
0
 39
0
 70
1
 66
1
  0
VERTEX
  8
0
 10
1550.6373619750286
 20
1031.5059089201934
 42
1
  0
VERTEX
  8
0
 10
1320.6395554259564
 20
1032.5094700192533
 42
1
  0
SEQEND
  0
POLYLINE
  8
0
 10
0
 20
0
 39
0
 70
1
 66
1
  0
VERTEX
  8
0
 10
2064.3384616314347
 20
623.12307692307684
 42
-0
  0
VERTEX
  8
0
 10
2059.3411223827775
 20
1082.6337275578426
 42
-1.0109343528747559
  0
VERTEX
  8
0
 10
2149.3357989727433
 20
1082.6337275578426
 42
0
  0
VERTEX
  8
0
 10
2144.3384616314347
 20
623.12307692307684
 42
0
  0
VERTEX
  8
0
 10
2129.3384616314347
 20
603.12307692307684
 42
-0
  0
VERTEX
  8
0
 10
2079.3384616314347
 20
603.12307692307684
 42
-0
  0
SEQEND
  0
POLYLINE
  8
0
 10
0
 20
0
 39
0
 70
1
 66
1
  0
VERTEX
  8
0
 10
2104.3384616314347
 20
620.12307692307684
 42
1
  0
VERTEX
  8
0
 10
2104.3384616314347
 20
650.12307692307684
 42
1
  0
SEQEND
  0
POLYLINE
  8
0
 10
0
 20
0
 39
0
 70
1
 66
1
  0
VERTEX
  8
0
 10
2104.3384616314347
 20
1063.123076923077
 42
1
  0
VERTEX
  8
0
 10
2104.3384616314347
 20
1103.123076923077
 42
1
  0
SEQEND
  0
POLYLINE
  8
0
 10
0
 20
0
 39
0
 70
1
 66
1
  0
VERTEX
  8
0
 10
2104.3384616314347
 20
1005.3730769230768
 42
1
  0
VERTEX
  8
0
 10
2104.3384616314347
 20
1030.873076923077
 42
1
  0
SEQEND
  0
POLYLINE
  8
0
 10
0
 20
0
 39
0
 70
1
 66
1
  0
VERTEX
  8
0
 10
2207.8769284515256
 20
15.384615477588685
 42
-0
  0
VERTEX
  8
0
 10
1748.36627781676
 20
10.387276228931459
 42
-1.0109343528747559
  0
VERTEX
  8
0
 10
1748.36627781676
 20
100.38195281889728
 42
0
  0
VERTEX
  8
0
 10
2207.8769284515256
 20
95.384615477588682
 42
0
  0
VERTEX
  8
0
 10
2227.8769284515256
 20
80.384615477588682
 42
-0
  0
VERTEX
  8
0
 10
2227.8769284515256
 20
30.384615477588685
 42
-0
  0
SEQEND
  0
POLYLINE
  8
0
 10
0
 20
0
 39
0
 70
1
 66
1
  0
VERTEX
  8
0
 10
2210.8769284515256
 20
55.384615477588682
 42
1
  0
VERTEX
  8
0
 10
2180.8769284515256
 20
55.384615477588682
 42
1
  0
SEQEND
  0
POLYLINE
  8
0
 10
0
 20
0
 39
0
 70
1
 66
1
  0
VERTEX
  8
0
 10
1767.8769284515256
 20
55.384615477588682
 42
1
  0
VERTEX
  8
0
 10
1727.8769284515256
 20
55.384615477588682
 42
1
  0
SEQEND
  0
POLYLINE
  8
0
 10
0
 20
0
 39
0
 70
1
 66
1
  0
VERTEX
  8
0
 10
1825.6269284515256
 20
55.384615477588682
 42
1
  0
VERTEX
  8
0
 10
1800.1269284515256
 20
55.384615477588682
 42
1
  0
SEQEND
  0
POLYLINE
  8
0
 10
0
 20
0
 39
0
 70
1
 66
1
  0
VERTEX
  8
0
 10
2285.2000053746024
 20
114.89230778528099
 42
-0
  0
VERTEX
  8
0
 10
1825.6893547398367
 20
109.89496853662376
 42
-1.0109343528747559
  0
VERTEX
  8
0
 10
1825.6893547398367
 20
199.88964512658958
 42
0
  0
VERTEX
  8
0
 10
2285.2000053746024
 20
194.89230778528099
 42
0
  0
VERTEX
  8
0
 10
2305.2000053746024
 20
179.89230778528099
 42
-0
  0
VERTEX
  8
0
 10
2305.2000053746024
 20
129.89230778528099
 42
-0
  0
SEQEND
  0
POLYLINE
  8
0
 10
0
 20
0
 39
0
 70
1
 66
1
  0
VERTEX
  8
0
 10
2288.2000053746024
 20
154.89230778528099
 42
1
  0
VERTEX
  8
0
 10
2258.2000053746024
 20
154.89230778528099
 42
1
  0
SEQEND
  0
POLYLINE
  8
0
 10
0
 20
0
 39
0
 70
1
 66
1
  0
VERTEX
  8
0
 10
1845.2000053746024
 20
154.89230778528099
 42
1
  0
VERTEX
  8
0
 10
1805.2000053746024
 20
154.89230778528099
 42
1
  0
SEQEND
  0
POLYLINE
  8
0
 10
0
 20
0
 39
0
 70
1
 66
1
  0
VERTEX
  8
0
 10
1902.9500053746024
 20
154.89230778528099
 42
1
  0
VERTEX
  8
0
 10
1877.4500053746024
 20
154.89230778528099
 42
1
  0
SEQEND
  0
POLYLINE
  8
0
 10
0
 20
0
 39
0
 70
1
 66
1
  0
VERTEX
  8
0
 10
2322.0307746053718
 20
214.83076932374252
 42
-0
  0
VERTEX
  8
0
 10
1862.5201239706062
 20
209.83343007508529
 42
-1.0109343528747559
  0
VERTEX
  8
0
 10
1862.5201239706062
 20
299.82810666505111
 42
0
  0
VERTEX
  8
0
 10
2322.0307746053718
 20
294.83076932374252
 42
0
  0
VERTEX
  8
0
 10
2342.0307746053718
 20
279.83076932374252
 42
-0
  0
VERTEX
  8
0
 10
2342.0307746053718
 20
229.83076932374252
 42
-0
  0
SEQEND
  0
POLYLINE
  8
0
 10
0
 20
0
 39
0
 70
1
 66
1
  0
VERTEX
  8
0
 10
2325.0307746053718
 20
254.83076932374252
 42
1
  0
VERTEX
  8
0
 10
2295.0307746053718
 20
254.83076932374252
 42
1
  0
SEQEND
  0
POLYLINE
  8
0
 10
0
 20
0
 39
0
 70
1
 66
1
  0
VERTEX
  8
0
 10
1882.0307746053718
 20
254.83076932374252
 42
1
  0
VERTEX
  8
0
 10
1842.0307746053718
 20
254.83076932374252
 42
1
  0
SEQEND
  0
POLYLINE
  8
0
 10
0
 20
0
 39
0
 70
1
 66
1
  0
VERTEX
  8
0
 10
1939.7807746053718
 20
254.83076932374252
 42
1
  0
VERTEX
  8
0
 10
1914.2807746053718
 20
254.83076932374252
 42
1
  0
SEQEND
  0
POLYLINE
  8
0
 10
0
 20
0
 39
0
 70
1
 66
1
  0
VERTEX
  8
0
 10
2327.2000053746024
 20
346.43076932374254
 42
-0
  0
VERTEX
  8
0
 10
1867.6893547398367
 20
341.43343007508531
 42
-1.0109343528747559
  0
VERTEX
  8
0
 10
1867.6893547398367
 20
431.42810666505113
 42
0
  0
VERTEX
  8
0
 10
2327.2000053746024
 20
426.43076932374254
 42
0
  0
VERTEX
  8
0
 10
2347.2000053746024
 20
411.43076932374254
 42
-0
  0
VERTEX
  8
0
 10
2347.2000053746024
 20
361.43076932374254
 42
-0
  0
SEQEND
  0
POLYLINE
  8
0
 10
0
 20
0
 39
0
 70
1
 66
1
  0
VERTEX
  8
0
 10
2330.2000053746024
 20
386.43076932374254
 42
1
  0
VERTEX
  8
0
 10
2300.2000053746024
 20
386.43076932374254
 42
1
  0
SEQEND
  0
POLYLINE
  8
0
 10
0
 20
0
 39
0
 70
1
 66
1
  0
VERTEX
  8
0
 10
1887.2000053746024
 20
386.43076932374254
 42
1
  0
VERTEX
  8
0
 10
1847.2000053746024
 20
386.43076932374254
 42
1
  0
SEQEND
  0
POLYLINE
  8
0
 10
0
 20
0
 39
0
 70
1
 66
1
  0
VERTEX
  8
0
 10
1944.9500053746024
 20
386.43076932374254
 42
1
  0
VERTEX
  8
0
 10
1919.4500053746024
 20
386.43076932374254
 42
1
  0
SEQEND
  0
POLYLINE
  8
0
 10
0
 20
0
 39
0
 70
1
 66
1
  0
VERTEX
  8
0
 10
2439.4153828010089
 20
515.38462075921814
 42
-0
  0
VERTEX
  8
0
 10
2444.4127220496662
 20
55.873970124452512
 42
-1.0109343528747559
  0
VERTEX
  8
0
 10
2354.4180454597004
 20
55.873970124452512
 42
0
  0
VERTEX
  8
0
 10
2359.4153828010089
 20
515.38462075921814
 42
0
  0
VERTEX
  8
0
 10
2374.4153828010089
 20
535.38462075921814
 42
-0
  0
VERTEX
  8
0
 10
2424.4153828010089
 20
535.38462075921814
 42
-0
  0
SEQEND
  0
POLYLINE
  8
0
 10
0
 20
0
 39
0
 70
1
 66
1
  0
VERTEX
  8
0
 10
2399.4153828010089
 20
518.38462075921814
 42
1
  0
VERTEX
  8
0
 10
2399.4153828010089
 20
488.38462075921814
 42
1
  0
SEQEND
  0
POLYLINE
  8
0
 10
0
 20
0
 39
0
 70
1
 66
1
  0
VERTEX
  8
0
 10
2399.4153828010089
 20
75.384620759218137
 42
1
  0
VERTEX
  8
0
 10
2399.4153828010089
 20
35.384620759218137
 42
1
  0
SEQEND
  0
POLYLINE
  8
0
 10
0
 20
0
 39
0
 70
1
 66
1
  0
VERTEX
  8
0
 10
2399.4153828010089
 20
133.13462075921814
 42
1
  0
VERTEX
  8
0
 10
2399.4153828010089
 20
107.63462075921814
 42
1
  0
SEQEND
  0
POLYLINE
  8
0
 10
0
 20
0
 39
0
 70
1
 66
1
  0
VERTEX
  8
0
 10
2452.892307785281
 20
255.46153846153845
 42
-0
  0
VERTEX
  8
0
 10
2447.8949685366238
 20
714.97218909630408
 42
-1.0109343528747559
  0
VERTEX
  8
0
 10
2537.8896451265896
 20
714.97218909630408
 42
0
  0
VERTEX
  8
0
 10
2532.892307785281
 20
255.46153846153845
 42
0
  0
VERTEX
  8
0
 10
2517.892307785281
 20
235.46153846153845
 42
-0
  0
VERTEX
  8
0
 10
2467.892307785281
 20
235.46153846153845
 42
-0
  0
SEQEND
  0
POLYLINE
  8
0
 10
0
 20
0
 39
0
 70
1
 66
1
  0
VERTEX
  8
0
 10
2492.892307785281
 20
252.46153846153845
 42
1
  0
VERTEX
  8
0
 10
2492.892307785281
 20
282.46153846153845
 42
1
  0
SEQEND
  0
POLYLINE
  8
0
 10
0
 20
0
 39
0
 70
1
 66
1
  0
VERTEX
  8
0
 10
2492.892307785281
 20
695.46153846153845
 42
1
  0
VERTEX
  8
0
 10
2492.892307785281
 20
735.46153846153845
 42
1
  0
SEQEND
  0
POLYLINE
  8
0
 10
0
 20
0
 39
0
 70
1
 66
1
  0
VERTEX
  8
0
 10
2492.892307785281
 20
637.71153846153845
 42
1
  0
VERTEX
  8
0
 10
2492.892307785281
 20
663.21153846153845
 42
1
  0
SEQEND
  0
POLYLINE
  8
0
 10
0
 20
0
 39
0
 70
1
 66
1
  0
VERTEX
  8
0
 10
156.48821977602123
 20
966.02988537924512
 42
-1
  0
VERTEX
  8
0
 10
155.68100758764697
 20
781.03164967673047
 42
-1
  0
SEQEND
  0
POLYLINE
  8
0
 10
0
 20
0
 39
0
 70
1
 66
1
  0
VERTEX
  8
0
 10
156.23732950125626
 20
908.53043374197705
 42
1
  0
VERTEX
  8
0
 10
155.93189786241194
 20
838.53110131399853
 42
1
  0
SEQEND
  0
POLYLINE
  8
0
 10
0
 20
0
 39
0
 70
1
 66
1
  0
VERTEX
  8
0
 10
222.82668131448276
 20
424.12219307155294
 42
-1
  0
VERTEX
  8
0
 10
222.0194691261085
 20
239.12395736903829
 42
-1
  0
SEQEND
  0
POLYLINE
  8
0
 10
0
 20
0
 39
0
 70
1
 66
1
  0
VERTEX
  8
0
 10
222.57579103971779
 20
366.62274143428488
 42
1
  0
VERTEX
  8
0
 10
222.27035940087347
 20
296.62340900630636
 42
1
  0
SEQEND
  0
POLYLINE
  8
0
 10
0
 20
0
 39
0
 70
1
 66
1
  0
VERTEX
  8
0
 10
441.22668131448273
 20
1124.5529623023222
 42
-1
  0
VERTEX
  8
0
 10
440.41946912610848
 20
939.55472659980751
 42
-1
  0
SEQEND
  0
POLYLINE
  8
0
 10
0
 20
0
 39
0
 70
1
 66
1
  0
VERTEX
  8
0
 10
440.97579103971776
 20
1067.0535106650541
 42
1
  0
VERTEX
  8
0
 10
440.67035940087345
 20
997.05417823707558
 42
1
  0
SEQEND
  0
POLYLINE
  8
0
 10
0
 20
0
 39
0
 70
1
 66
1
  0
VERTEX
  8
0
 10
464.27283516063659
 20
548.18373153309142
 42
-1
  0
VERTEX
  8
0
 10
463.46562297226234
 20
363.18549583057677
 42
-1
  0
SEQEND
  0
POLYLINE
  8
0
 10
0
 20
0
 39
0
 70
1
 66
1
  0
VERTEX
  8
0
 10
464.02194488587162
 20
490.68427989582335
 42
1
  0
VERTEX
  8
0
 10
463.71651324702731
 20
420.68494746784484
 42
1
  0
SEQEND
  0
POLYLINE
  8
0
 10
0
 20
0
 39
0
 70
1
 66
1
  0
VERTEX
  8
0
 10
470.30360439140583
 20
314.06065461001447
 42
-1
  0
VERTEX
  8
0
 10
469.49639220303158
 20
129.06241890749982
 42
-1
  0
SEQEND
  0
POLYLINE
  8
0
 10
0
 20
0
 39
0
 70
1
 66
1
  0
VERTEX
  8
0
 10
470.05271411664086
 20
256.5612029727464
 42
1
  0
VERTEX
  8
0
 10
469.74728247779655
 20
186.56187054476788
 42
1
  0
SEQEND
  0
POLYLINE
  8
0
 10
0
 20
0
 39
0
 70
1
 66
1
  0
VERTEX
  8
0
 10
793.59591208371342
 20
259.35296230232217
 42
-1
  0
VERTEX
  8
0
 10
792.78869989533916
 20
74.35472659980752
 42
-1
  0
SEQEND
  0
POLYLINE
  8
0
 10
0
 20
0
 39
0
 70
1
 66
1
  0
VERTEX
  8
0
 10
793.34502180894845
 20
201.8535106650541
 42
1
  0
VERTEX
  8
0
 10
793.03959017010413
 20
131.85417823707559
 42
1
  0
SEQEND
  0
POLYLINE
  8
0
 10
0
 20
0
 39
0
 70
1
 66
1
  0
VERTEX
  8
0
 10
853.47283516063646
 20
954.82988537924518
 42
-1
  0
VERTEX
  8
0
 10
852.66562297226221
 20
769.83164967673054
 42
-1
  0
SEQEND
  0
POLYLINE
  8
0
 10
0
 20
0
 39
0
 70
1
 66
1
  0
VERTEX
  8
0
 10
853.22194488587149
 20
897.33043374197712
 42
1
  0
VERTEX
  8
0
 10
852.91651324702718
 20
827.3311013139986
 42
1
  0
SEQEND
  0
POLYLINE
  8
0
 10
0
 20
0
 39
0
 70
1
 66
1
  0
VERTEX
  8
0
 10
1087.9375776869374
 20
345.21946912610849
 42
-1
  0
VERTEX
  8
0
 10
902.93934198442275
 20
346.02668131448274
 42
-1
  0
SEQEND
  0
POLYLINE
  8
0
 10
0
 20
0
 39
0
 70
1
 66
1
  0
VERTEX
  8
0
 10
1030.4381260496693
 20
345.47035940087346
 42
1
  0
VERTEX
  8
0
 10
960.43879362169082
 20
345.77579103971777
 42
1
  0
SEQEND
  0
POLYLINE
  8
0
 10
0
 20
0
 39
0
 70
1
 66
1
  0
VERTEX
  8
0
 10
1057.8728351606364
 20
195.38373153309141
 42
-1
  0
VERTEX
  8
0
 10
1057.0656229722622
 20
10.385495830576772
 42
-1
  0
SEQEND
  0
POLYLINE
  8
0
 10
0
 20
0
 39
0
 70
1
 66
1
  0
VERTEX
  8
0
 10
1057.6219448858715
 20
137.88427989582334
 42
1
  0
VERTEX
  8
0
 10
1057.3165132470272
 20
67.884947467844839
 42
1
  0
SEQEND
  0
POLYLINE
  8
0
 10
0
 20
0
 39
0
 70
1
 66
1
  0
VERTEX
  8
0
 10
1188.952962302322
 20
982.54254604918526
 42
-1
  0
VERTEX
  8
0
 10
1003.9547265998074
 20
983.34975823755951
 42
-1
  0
SEQEND
  0
POLYLINE
  8
0
 10
0
 20
0
 39
0
 70
1
 66
1
  0
VERTEX
  8
0
 10
1131.453510665054
 20
982.79343632395023
 42
1
  0
VERTEX
  8
0
 10
1061.4541782370754
 20
983.09886796279454
 42
1
  0
SEQEND
  0
POLYLINE
  8
0
 10
0
 20
0
 39
0
 70
1
 66
1
  0
VERTEX
  8
0
 10
1099.2266813144827
 20
841.10680845616821
 42
-1
  0
VERTEX
  8
0
 10
1098.4194691261084
 20
656.10857275365356
 42
-1
  0
SEQEND
  0
POLYLINE
  8
0
 10
0
 20
0
 39
0
 70
1
 66
1
  0
VERTEX
  8
0
 10
1098.9757910397177
 20
783.60735681890014
 42
1
  0
VERTEX
  8
0
 10
1098.6703594008734
 20
713.60802439092163
 42
1
  0
SEQEND
  0
POLYLINE
  8
0
 10
0
 20
0
 39
0
 70
1
 66
1
  0
VERTEX
  8
0
 10
1371.6882197760212
 20
424.98373153309137
 42
-1
  0
VERTEX
  8
0
 10
1370.881007587647
 20
239.98549583057672
 42
-1
  0
SEQEND
  0
POLYLINE
  8
0
 10
0
 20
0
 39
0
 70
1
 66
1
  0
VERTEX
  8
0
 10
1371.4373295012563
 20
367.48427989582331
 42
1
  0
VERTEX
  8
0
 10
1371.131897862412
 20
297.48494746784479
 42
1
  0
SEQEND
  0
POLYLINE
  8
0
 10
0
 20
0
 39
0
 70
1
 66
1
  0
VERTEX
  8
0
 10
1424.2420659298673
 20
1123.4760392253991
 42
-1
  0
VERTEX
  8
0
 10
1423.434853741493
 20
938.47780352288441
 42
-1
  0
SEQEND
  0
POLYLINE
  8
0
 10
0
 20
0
 39
0
 70
1
 66
1
  0
VERTEX
  8
0
 10
1423.9911756551023
 20
1065.976587588131
 42
1
  0
VERTEX
  8
0
 10
1423.685744016258
 20
995.97725516015248
 42
1
  0
SEQEND
  0
POLYLINE
  8
0
 10
0
 20
0
 39
0
 70
1
 66
1
  0
VERTEX
  8
0
 10
1613.134373622175
 20
548.18373153309142
 42
-1
  0
VERTEX
  8
0
 10
1612.3271614338007
 20
363.18549583057677
 42
-1
  0
SEQEND
  0
POLYLINE
  8
0
 10
0
 20
0
 39
0
 70
1
 66
1
  0
VERTEX
  8
0
 10
1612.88348334741
 20
490.68427989582335
 42
1
  0
VERTEX
  8
0
 10
1612.5780517085657
 20
420.68494746784484
 42
1
  0
SEQEND
  0
POLYLINE
  8
0
 10
0
 20
0
 39
0
 70
1
 66
1
  0
VERTEX
  8
0
 10
225.38461224284552
 20
1144.1538464277771
 42
-0
  0
VERTEX
  8
0
 10
225.38461224284552
 20
1064.1538464277771
 42
-0
  0
VERTEX
  8
0
 10
104.87048260417366
 20
1031.7293965071228
 42
-1.3046128749847412
  0
VERTEX
  8
0
 10
104.87048260417366
 20
1176.5782925337342
 42
0
  0
SEQEND
  0
POLYLINE
  8
0
 10
0
 20
0
 39
0
 70
1
 66
1
  0
VERTEX
  8
0
 10
85.384612242845535
 20
1085.6538464277771
 42
1
  0
VERTEX
  8
0
 10
85.384612242845535
 20
1122.6538464277771
 42
1
  0
SEQEND
  0
POLYLINE
  8
0
 10
0
 20
0
 39
0
 70
1
 66
1
  0
VERTEX
  8
0
 10
1552.8615349207723
 20
316.49230455053782
 42
-0
  0
VERTEX
  8
0
 10
1632.8615349207723
 20
316.49230455053782
 42
-0
  0
VERTEX
  8
0
 10
1665.2859848414266
 20
195.97817491186595
 42
-1.3046128749847412
  0
VERTEX
  8
0
 10
1520.4370888148153
 20
195.97817491186595
 42
0
  0
SEQEND
  0
POLYLINE
  8
0
 10
0
 20
0
 39
0
 70
1
 66
1
  0
VERTEX
  8
0
 10
1611.3615349207723
 20
176.49230455053782
 42
1
  0
VERTEX
  8
0
 10
1574.3615349207723
 20
176.49230455053782
 42
1
  0
SEQEND
  0
POLYLINE
  8
0
 10
0
 20
0
 39
0
 70
1
 66
1
  0
VERTEX
  8
0
 10
1595.0769195361568
 20
978.15384301207621
 42
-0
  0
VERTEX
  8
0
 10
1675.0769195361568
 20
978.15384301207621
 42
-0
  0
VERTEX
  8
0
 10
1707.5013694568111
 20
857.63971337340433
 42
-1.3046128749847412
  0
VERTEX
  8
0
 10
1562.6524734301997
 20
857.63971337340433
 42
0
  0
SEQEND
  0
POLYLINE
  8
0
 10
0
 20
0
 39
0
 70
1
 66
1
  0
VERTEX
  8
0
 10
1653.5769195361568
 20
838.15384301207621
 42
1
  0
VERTEX
  8
0
 10
1616.5769195361568
 20
838.15384301207621
 42
1
  0
SEQEND
  0
POLYLINE
  8
0
 10
0
 20
0
 39
0
 70
1
 66
1
  0
VERTEX
  8
0
 10
1682.0923041515414
 20
1189.6615353197685
 42
-0
  0
VERTEX
  8
0
 10
1762.0923041515414
 20
1189.6615353197685
 42
-0
  0
VERTEX
  8
0
 10
1794.5167540721957
 20
1069.1474056810966
 42
-1.3046128749847412
  0
VERTEX
  8
0
 10
1649.6678580455844
 20
1069.1474056810966
 42
0
  0
SEQEND
  0
POLYLINE
  8
0
 10
0
 20
0
 39
0
 70
1
 66
1
  0
VERTEX
  8
0
 10
1740.5923041515414
 20
1049.6615353197685
 42
1
  0
VERTEX
  8
0
 10
1703.5923041515414
 20
1049.6615353197685
 42
1
  0
SEQEND
  0
POLYLINE
  8
0
 10
0
 20
0
 39
0
 70
1
 66
1
  0
VERTEX
  8
0
 10
1971.4461541200849
 20
732.78461538461534
 42
-0
  0
VERTEX
  8
0
 10
1891.4461541200849
 20
732.78461538461534
 42
-0
  0
VERTEX
  8
0
 10
1859.0217041994306
 20
853.29874502328721
 42
-1.3046128749847412
  0
VERTEX
  8
0
 10
2003.8706002260419
 20
853.29874502328721
 42
0
  0
SEQEND
  0
POLYLINE
  8
0
 10
0
 20
0
 39
0
 70
1
 66
1
  0
VERTEX
  8
0
 10
1912.9461541200849
 20
872.78461538461534
 42
1
  0
VERTEX
  8
0
 10
1949.9461541200849
 20
872.78461538461534
 42
1
  0
SEQEND
  0
POLYLINE
  8
0
 10
0
 20
0
 39
0
 70
1
 66
1
  0
VERTEX
  8
0
 10
2190.6153810746182
 20
850.21538147361468
 42
-0
  0
VERTEX
  8
0
 10
2270.6153810746182
 20
850.21538147361468
 42
-0
  0
VERTEX
  8
0
 10
2303.0398309952725
 20
729.70125183494281
 42
-1.3046128749847412
  0
VERTEX
  8
0
 10
2158.1909349686612
 20
729.70125183494281
 42
0
  0
SEQEND
  0
POLYLINE
  8
0
 10
0
 20
0
 39
0
 70
1
 66
1
  0
VERTEX
  8
0
 10
2249.1153810746182
 20
710.21538147361468
 42
1
  0
VERTEX
  8
0
 10
2212.1153810746182
 20
710.21538147361468
 42
1
  0
SEQEND
  0
POLYLINE
  8
0
 10
0
 20
0
 39
0
 70
1
 66
1
  0
VERTEX
  8
0
 10
2193.1999964592337
 20
1075.2923045505377
 42
-0
  0
VERTEX
  8
0
 10
2273.1999964592337
 20
1075.2923045505377
 42
-0
  0
VERTEX
  8
0
 10
2305.624446379888
 20
954.7781749118659
 42
-1.3046128749847412
  0
VERTEX
  8
0
 10
2160.7755503532767
 20
954.7781749118659
 42
0
  0
SEQEND
  0
POLYLINE
  8
0
 10
0
 20
0
 39
0
 70
1
 66
1
  0
VERTEX
  8
0
 10
2251.6999964592337
 20
935.29230455053778
 42
1
  0
VERTEX
  8
0
 10
2214.6999964592337
 20
935.29230455053778
 42
1
  0
SEQEND
  0
POLYLINE
  8
0
 10
0
 20
0
 39
0
 70
1
 66
1
  0
VERTEX
  8
0
 10
2517.6615387354695
 20
974.66153846153838
 42
-0
  0
VERTEX
  8
0
 10
2437.6615387354695
 20
974.66153846153838
 42
-0
  0
VERTEX
  8
0
 10
2405.2370888148153
 20
1095.1756681002103
 42
-1.3046128749847412
  0
VERTEX
  8
0
 10
2550.0859848414266
 20
1095.1756681002103
 42
0
  0
SEQEND
  0
POLYLINE
  8
0
 10
0
 20
0
 39
0
 70
1
 66
1
  0
VERTEX
  8
0
 10
2459.1615387354695
 20
1114.6615384615384
 42
1
  0
VERTEX
  8
0
 10
2496.1615387354695
 20
1114.6615384615384
 42
1
  0
SEQEND
  0
POLYLINE
  8
0
 10
0
 20
0
 39
0
 70
1
 66
1
  0
VERTEX
  8
0
 10
2568.7076925816232
 20
10.384615384615387
 42
-0
  0
VERTEX
  8
0
 10
2488.7076925816232
 20
10.384615384615387
 42
-0
  0
VERTEX
  8
0
 10
2456.2832426609689
 20
130.89874502328726
 42
-1.3046128749847412
  0
VERTEX
  8
0
 10
2601.1321386875802
 20
130.89874502328729
 42
0
  0
SEQEND
  0
POLYLINE
  8
0
 10
0
 20
0
 39
0
 70
1
 66
1
  0
VERTEX
  8
0
 10
2510.2076925816232
 20
150.38461538461539
 42
1
  0
VERTEX
  8
0
 10
2547.2076925816232
 20
150.38461538461542
 42
1
  0
SEQEND
  0
POLYLINE
  8
0
 10
0
 20
0
 39
0
 70
1
 66
1
  0
VERTEX
  8
0
 10
2603.1692310431617
 20
762.07692307692298
 42
-0
  0
VERTEX
  8
0
 10
2523.1692310431617
 20
762.07692307692298
 42
-0
  0
VERTEX
  8
0
 10
2490.7447811225074
 20
882.59105271559486
 42
-1.3046128749847412
  0
VERTEX
  8
0
 10
2635.5936771491188
 20
882.59105271559486
 42
0
  0
SEQEND
  0
POLYLINE
  8
0
 10
0
 20
0
 39
0
 70
1
 66
1
  0
VERTEX
  8
0
 10
2544.6692310431617
 20
902.07692307692298
 42
1
  0
VERTEX
  8
0
 10
2581.6692310431617
 20
902.07692307692298
 42
1
  0
SEQEND
  0
POLYLINE
  8
0
 10
0
 20
0
 39
0
 70
1
 66
1
  0
VERTEX
  8
0
 10
2578.5230733823105
 20
423.53845839669168
 42
-0
  0
VERTEX
  8
0
 10
2658.5230733823105
 20
423.53845839669168
 42
-0
  0
VERTEX
  8
0
 10
2690.9475233029648
 20
303.02432875801981
 42
-1.3046128749847412
  0
VERTEX
  8
0
 10
2546.0986272763535
 20
303.02432875801981
 42
0
  0
SEQEND
  0
POLYLINE
  8
0
 10
0
 20
0
 39
0
 70
1
 66
1
  0
VERTEX
  8
0
 10
2637.0230733823105
 20
283.53845839669168
 42
1
  0
VERTEX
  8
0
 10
2600.0230733823105
 20
283.53845839669168
 42
1
  0
SEQEND
  0
POLYLINE
  8
0
 10
0
 20
0
 39
0
 70
1
 66
1
  0
VERTEX
  8
0
 10
326.12307692307689
 20
782.81538519275944
 42
0
  0
VERTEX
  8
0
 10
323.12307692307689
 20
785.81538519275944
 42
0
  0
VERTEX
  8
0
 10
323.12307692307689
 20
809.81538519275944
 42
0
  0
VERTEX
  8
0
 10
326.12307692307689
 20
812.81538519275944
 42
0
  0
VERTEX
  8
0
 10
426.99375677842357
 20
812.81538519275944
 42
-0.58976781368255615
  0
VERTEX
  8
0
 10
481.25239516038158
 20
812.81538996113102
 42
0
  0
VERTEX
  8
0
 10
585.12307692307695
 20
812.81538519275944
 42
0
  0
VERTEX
  8
0
 10
585.12307692307695
 20
782.81538519275944
 42
0
  0
VERTEX
  8
0
 10
481.25239706773021
 20
782.81538519275944
 42
-0.58976787328720093
  0
VERTEX
  8
0
 10
426.99375487107494
 20
782.81538805378239
 42
0
  0
SEQEND
  0
POLYLINE
  8
0
 10
0
 20
0
 39
0
 70
1
 66
1
  0
VERTEX
  8
0
 10
340.12307692307689
 20
797.81538519275944
 42
1
  0
VERTEX
  8
0
 10
356.12307692307689
 20
797.81538519275944
 42
1
  0
SEQEND
  0
POLYLINE
  8
0
 10
0
 20
0
 39
0
 70
1
 66
1
  0
VERTEX
  8
0
 10
441.12307692307689
 20
797.81538519275944
 42
1
  0
VERTEX
  8
0
 10
467.12307692307689
 20
797.81538519275944
 42
1
  0
SEQEND
  0
POLYLINE
  8
0
 10
0
 20
0
 39
0
 70
1
 66
1
  0
VERTEX
  8
0
 10
552.12307692307695
 20
797.81538519275944
 42
1
  0
VERTEX
  8
0
 10
568.12307692307695
 20
797.81538519275944
 42
1
  0
SEQEND
  0
POLYLINE
  8
0
 10
0
 20
0
 39
0
 70
1
 66
1
  0
VERTEX
  8
0
 10
2348.7230785732227
 20
730.61538461538453
 42
0
  0
VERTEX
  8
0
 10
2345.7230785732227
 20
727.61538461538453
 42
0
  0
VERTEX
  8
0
 10
2321.7230785732227
 20
727.61538461538453
 42
0
  0
VERTEX
  8
0
 10
2318.7230785732227
 20
730.61538461538453
 42
0
  0
VERTEX
  8
0
 10
2318.7230785732227
 20
831.48606447073121
 42
-0.58976781368255615
  0
VERTEX
  8
0
 10
2318.7230738048511
 20
885.74470285268922
 42
0
  0
VERTEX
  8
0
 10
2318.7230785732227
 20
989.61538461538453
 42
0
  0
VERTEX
  8
0
 10
2348.7230785732227
 20
989.61538461538453
 42
0
  0
VERTEX
  8
0
 10
2348.7230785732227
 20
885.74470476003785
 42
-0.58976787328720093
  0
VERTEX
  8
0
 10
2348.7230757121997
 20
831.48606256338257
 42
0
  0
SEQEND
  0
POLYLINE
  8
0
 10
0
 20
0
 39
0
 70
1
 66
1
  0
VERTEX
  8
0
 10
2333.7230785732227
 20
744.61538461538453
 42
1
  0
VERTEX
  8
0
 10
2333.7230785732227
 20
760.61538461538453
 42
1
  0
SEQEND
  0
POLYLINE
  8
0
 10
0
 20
0
 39
0
 70
1
 66
1
  0
VERTEX
  8
0
 10
2333.7230785732227
 20
845.61538461538453
 42
1
  0
VERTEX
  8
0
 10
2333.7230785732227
 20
871.61538461538453
 42
1
  0
SEQEND
  0
POLYLINE
  8
0
 10
0
 20
0
 39
0
 70
1
 66
1
  0
VERTEX
  8
0
 10
2333.7230785732227
 20
956.61538461538453
 42
1
  0
VERTEX
  8
0
 10
2333.7230785732227
 20
972.61538461538453
 42
1
  0
SEQEND
  0
POLYLINE
  8
0
 10
0
 20
0
 39
0
 70
1
 66
1
  0
VERTEX
  8
0
 10
2592.5384631886072
 20
436.61538461538453
 42
0
  0
VERTEX
  8
0
 10
2589.5384631886072
 20
433.61538461538453
 42
0
  0
VERTEX
  8
0
 10
2565.5384631886072
 20
433.61538461538453
 42
0
  0
VERTEX
  8
0
 10
2562.5384631886072
 20
436.61538461538453
 42
0
  0
VERTEX
  8
0
 10
2562.5384631886072
 20
537.48606447073121
 42
-0.58976781368255615
  0
VERTEX
  8
0
 10
2562.5384584202357
 20
591.74470285268922
 42
0
  0
VERTEX
  8
0
 10
2562.5384631886072
 20
695.61538461538453
 42
0
  0
VERTEX
  8
0
 10
2592.5384631886072
 20
695.61538461538453
 42
0
  0
VERTEX
  8
0
 10
2592.5384631886072
 20
591.74470476003785
 42
-0.58976787328720093
  0
VERTEX
  8
0
 10
2592.5384603275843
 20
537.48606256338257
 42
0
  0
SEQEND
  0
POLYLINE
  8
0
 10
0
 20
0
 39
0
 70
1
 66
1
  0
VERTEX
  8
0
 10
2577.5384631886072
 20
450.61538461538453
 42
1
  0
VERTEX
  8
0
 10
2577.5384631886072
 20
466.61538461538453
 42
1
  0
SEQEND
  0
POLYLINE
  8
0
 10
0
 20
0
 39
0
 70
1
 66
1
  0
VERTEX
  8
0
 10
2577.5384631886072
 20
551.61538461538453
 42
1
  0
VERTEX
  8
0
 10
2577.5384631886072
 20
577.61538461538453
 42
1
  0
SEQEND
  0
POLYLINE
  8
0
 10
0
 20
0
 39
0
 70
1
 66
1
  0
VERTEX
  8
0
 10
2577.5384631886072
 20
662.61538461538453
 42
1
  0
VERTEX
  8
0
 10
2577.5384631886072
 20
678.61538461538453
 42
1
  0
SEQEND
  0
POLYLINE
  8
0
 10
0
 20
0
 39
0
 70
1
 66
1
  0
VERTEX
  8
0
 10
2649.1846170347608
 20
482.06153846153848
 42
0
  0
VERTEX
  8
0
 10
2646.1846170347608
 20
479.06153846153848
 42
0
  0
VERTEX
  8
0
 10
2622.1846170347608
 20
479.06153846153848
 42
0
  0
VERTEX
  8
0
 10
2619.1846170347608
 20
482.06153846153848
 42
0
  0
VERTEX
  8
0
 10
2619.1846170347608
 20
582.93221831688516
 42
-0.58976781368255615
  0
VERTEX
  8
0
 10
2619.1846122663892
 20
637.19085669884316
 42
0
  0
VERTEX
  8
0
 10
2619.1846170347608
 20
741.06153846153848
 42
0
  0
VERTEX
  8
0
 10
2649.1846170347608
 20
741.06153846153848
 42
0
  0
VERTEX
  8
0
 10
2649.1846170347608
 20
637.1908586061918
 42
-0.58976787328720093
  0
VERTEX
  8
0
 10
2649.1846141737378
 20
582.93221640953652
 42
0
  0
SEQEND
  0
POLYLINE
  8
0
 10
0
 20
0
 39
0
 70
1
 66
1
  0
VERTEX
  8
0
 10
2634.1846170347608
 20
496.06153846153848
 42
1
  0
VERTEX
  8
0
 10
2634.1846170347608
 20
512.06153846153848
 42
1
  0
SEQEND
  0
POLYLINE
  8
0
 10
0
 20
0
 39
0
 70
1
 66
1
  0
VERTEX
  8
0
 10
2634.1846170347608
 20
597.06153846153848
 42
1
  0
VERTEX
  8
0
 10
2634.1846170347608
 20
623.06153846153848
 42
1
  0
SEQEND
  0
POLYLINE
  8
0
 10
0
 20
0
 39
0
 70
1
 66
1
  0
VERTEX
  8
0
 10
2634.1846170347608
 20
708.06153846153848
 42
1
  0
VERTEX
  8
0
 10
2634.1846170347608
 20
724.06153846153848
 42
1
  0
SEQEND
  0
POLYLINE
  8
0
 10
0
 20
0
 39
0
 70
1
 66
1
  0
VERTEX
  8
0
 10
2673.9538478039917
 20
930.49230769230758
 42
0
  0
VERTEX
  8
0
 10
2670.9538478039917
 20
927.49230769230758
 42
0
  0
VERTEX
  8
0
 10
2646.9538478039917
 20
927.49230769230758
 42
0
  0
VERTEX
  8
0
 10
2643.9538478039917
 20
930.49230769230758
 42
0
  0
VERTEX
  8
0
 10
2643.9538478039917
 20
1031.3629875476543
 42
-0.58976781368255615
  0
VERTEX
  8
0
 10
2643.9538430356201
 20
1085.6216259296123
 42
0
  0
VERTEX
  8
0
 10
2643.9538478039917
 20
1189.4923076923076
 42
0
  0
VERTEX
  8
0
 10
2673.9538478039917
 20
1189.4923076923076
 42
0
  0
VERTEX
  8
0
 10
2673.9538478039917
 20
1085.6216278369609
 42
-0.58976787328720093
  0
VERTEX
  8
0
 10
2673.9538449429688
 20
1031.3629856403056
 42
0
  0
SEQEND
  0
POLYLINE
  8
0
 10
0
 20
0
 39
0
 70
1
 66
1
  0
VERTEX
  8
0
 10
2658.9538478039917
 20
944.49230769230758
 42
1
  0
VERTEX
  8
0
 10
2658.9538478039917
 20
960.49230769230758
 42
1
  0
SEQEND
  0
POLYLINE
  8
0
 10
0
 20
0
 39
0
 70
1
 66
1
  0
VERTEX
  8
0
 10
2658.9538478039917
 20
1045.4923076923076
 42
1
  0
VERTEX
  8
0
 10
2658.9538478039917
 20
1071.4923076923076
 42
1
  0
SEQEND
  0
POLYLINE
  8
0
 10
0
 20
0
 39
0
 70
1
 66
1
  0
VERTEX
  8
0
 10
2658.9538478039917
 20
1156.4923076923076
 42
1
  0
VERTEX
  8
0
 10
2658.9538478039917
 20
1172.4923076923076
 42
1
  0
SEQEND
  0
POLYLINE
  8
0
 10
0
 20
0
 39
0
 70
1
 66
1
  0
VERTEX
  8
0
 10
2689.8923093424532
 20
645.96923076923076
 42
0
  0
VERTEX
  8
0
 10
2686.8923093424532
 20
642.96923076923076
 42
0
  0
VERTEX
  8
0
 10
2662.8923093424532
 20
642.96923076923076
 42
0
  0
VERTEX
  8
0
 10
2659.8923093424532
 20
645.96923076923076
 42
0
  0
VERTEX
  8
0
 10
2659.8923093424532
 20
746.83991062457744
 42
-0.58976781368255615
  0
VERTEX
  8
0
 10
2659.8923045740817
 20
801.09854900653545
 42
0
  0
VERTEX
  8
0
 10
2659.8923093424532
 20
904.96923076923076
 42
0
  0
VERTEX
  8
0
 10
2689.8923093424532
 20
904.96923076923076
 42
0
  0
VERTEX
  8
0
 10
2689.8923093424532
 20
801.09855091388408
 42
-0.58976787328720093
  0
VERTEX
  8
0
 10
2689.8923064814303
 20
746.83990871722881
 42
0
  0
SEQEND
  0
POLYLINE
  8
0
 10
0
 20
0
 39
0
 70
1
 66
1
  0
VERTEX
  8
0
 10
2674.8923093424532
 20
659.96923076923076
 42
1
  0
VERTEX
  8
0
 10
2674.8923093424532
 20
675.96923076923076
 42
1
  0
SEQEND
  0
POLYLINE
  8
0
 10
0
 20
0
 39
0
 70
1
 66
1
  0
VERTEX
  8
0
 10
2674.8923093424532
 20
760.96923076923076
 42
1
  0
VERTEX
  8
0
 10
2674.8923093424532
 20
786.96923076923076
 42
1
  0
SEQEND
  0
POLYLINE
  8
0
 10
0
 20
0
 39
0
 70
1
 66
1
  0
VERTEX
  8
0
 10
2674.8923093424532
 20
871.96923076923076
 42
1
  0
VERTEX
  8
0
 10
2674.8923093424532
 20
887.96923076923076
 42
1
  0
SEQEND
  0
POLYLINE
  8
0
 10
0
 20
0
 39
0
 70
1
 66
1
  0
VERTEX
  8
0
 10
2712.9384631886073
 20
373.72307692307692
 42
0
  0
VERTEX
  8
0
 10
2709.9384631886073
 20
370.72307692307692
 42
0
  0
VERTEX
  8
0
 10
2685.9384631886073
 20
370.72307692307692
 42
0
  0
VERTEX
  8
0
 10
2682.9384631886073
 20
373.72307692307692
 42
0
  0
VERTEX
  8
0
 10
2682.9384631886073
 20
474.5937567784236
 42
-0.58976781368255615
  0
VERTEX
  8
0
 10
2682.9384584202357
 20
528.85239516038155
 42
0
  0
VERTEX
  8
0
 10
2682.9384631886073
 20
632.72307692307686
 42
0
  0
VERTEX
  8
0
 10
2712.9384631886073
 20
632.72307692307686
 42
0
  0
VERTEX
  8
0
 10
2712.9384631886073
 20
528.85239706773018
 42
-0.58976787328720093
  0
VERTEX
  8
0
 10
2712.9384603275844
 20
474.59375487107496
 42
0
  0
SEQEND
  0
POLYLINE
  8
0
 10
0
 20
0
 39
0
 70
1
 66
1
  0
VERTEX
  8
0
 10
2697.9384631886073
 20
387.72307692307692
 42
1
  0
VERTEX
  8
0
 10
2697.9384631886073
 20
403.72307692307692
 42
1
  0
SEQEND
  0
POLYLINE
  8
0
 10
0
 20
0
 39
0
 70
1
 66
1
  0
VERTEX
  8
0
 10
2697.9384631886073
 20
488.72307692307692
 42
1
  0
VERTEX
  8
0
 10
2697.9384631886073
 20
514.72307692307686
 42
1
  0
SEQEND
  0
POLYLINE
  8
0
 10
0
 20
0
 39
0
 70
1
 66
1
  0
VERTEX
  8
0
 10
2697.9384631886073
 20
599.72307692307686
 42
1
  0
VERTEX
  8
0
 10
2697.9384631886073
 20
615.72307692307686
 42
1
  0
SEQEND
  0
POLYLINE
  8
0
 10
0
 20
0
 39
0
 70
1
 66
1
  0
VERTEX
  8
0
 10
2730.6000016501457
 20
809.87692307692305
 42
0
  0
VERTEX
  8
0
 10
2727.6000016501457
 20
806.87692307692305
 42
0
  0
VERTEX
  8
0
 10
2703.6000016501457
 20
806.87692307692305
 42
0
  0
VERTEX
  8
0
 10
2700.6000016501457
 20
809.87692307692305
 42
0
  0
VERTEX
  8
0
 10
2700.6000016501457
 20
910.74760293226973
 42
-0.58976781368255615
  0
VERTEX
  8
0
 10
2700.5999968817741
 20
965.00624131422774
 42
0
  0
VERTEX
  8
0
 10
2700.6000016501457
 20
1068.876923076923
 42
0
  0
VERTEX
  8
0
 10
2730.6000016501457
 20
1068.876923076923
 42
0
  0
VERTEX
  8
0
 10
2730.6000016501457
 20
965.00624322157637
 42
-0.58976787328720093
  0
VERTEX
  8
0
 10
2730.5999987891228
 20
910.7476010249211
 42
0
  0
SEQEND
  0
POLYLINE
  8
0
 10
0
 20
0
 39
0
 70
1
 66
1
  0
VERTEX
  8
0
 10
2715.6000016501457
 20
823.87692307692305
 42
1
  0
VERTEX
  8
0
 10
2715.6000016501457
 20
839.87692307692305
 42
1
  0
SEQEND
  0
POLYLINE
  8
0
 10
0
 20
0
 39
0
 70
1
 66
1
  0
VERTEX
  8
0
 10
2715.6000016501457
 20
924.87692307692305
 42
1
  0
VERTEX
  8
0
 10
2715.6000016501457
 20
950.87692307692305
 42
1
  0
SEQEND
  0
POLYLINE
  8
0
 10
0
 20
0
 39
0
 70
1
 66
1
  0
VERTEX
  8
0
 10
2715.6000016501457
 20
1035.876923076923
 42
1
  0
VERTEX
  8
0
 10
2715.6000016501457
 20
1051.876923076923
 42
1
  0
SEQEND
  0
POLYLINE
  8
0
 10
0
 20
0
 39
0
 70
1
 66
1
  0
VERTEX
  8
0
 10
2702.9692313466057
 20
269.38461538461536
 42
0
  0
VERTEX
  8
0
 10
2705.9692313466057
 20
272.38461538461536
 42
0
  0
VERTEX
  8
0
 10
2729.9692313466057
 20
272.38461538461536
 42
0
  0
VERTEX
  8
0
 10
2732.9692313466057
 20
269.38461538461536
 42
0
  0
VERTEX
  8
0
 10
2732.9692313466057
 20
168.51393552926871
 42
-0.58976781368255615
  0
VERTEX
  8
0
 10
2732.9692361149773
 20
114.2552971473107
 42
0
  0
VERTEX
  8
0
 10
2732.9692313466057
 20
10.384615384615387
 42
0
  0
VERTEX
  8
0
 10
2702.9692313466057
 20
10.384615384615387
 42
0
  0
VERTEX
  8
0
 10
2702.9692313466057
 20
114.25529523996207
 42
-0.58976787328720093
  0
VERTEX
  8
0
 10
2702.9692342076287
 20
168.51393743661734
 42
0
  0
SEQEND
  0
POLYLINE
  8
0
 10
0
 20
0
 39
0
 70
1
 66
1
  0
VERTEX
  8
0
 10
2717.9692313466057
 20
255.38461538461539
 42
1
  0
VERTEX
  8
0
 10
2717.9692313466057
 20
239.38461538461539
 42
1
  0
SEQEND
  0
POLYLINE
  8
0
 10
0
 20
0
 39
0
 70
1
 66
1
  0
VERTEX
  8
0
 10
2717.9692313466057
 20
154.38461538461539
 42
1
  0
VERTEX
  8
0
 10
2717.9692313466057
 20
128.38461538461539
 42
1
  0
SEQEND
  0
POLYLINE
  8
0
 10
0
 20
0
 39
0
 70
1
 66
1
  0
VERTEX
  8
0
 10
2717.9692313466057
 20
43.384615384615387
 42
1
  0
VERTEX
  8
0
 10
2717.9692313466057
 20
27.384615384615387
 42
1
  0
SEQEND
  0
POLYLINE
  8
0
 10
0
 20
0
 39
0
 70
1
 66
1
  0
VERTEX
  8
0
 10
2753.6461554962993
 20
537.63076923076915
 42
0
  0
VERTEX
  8
0
 10
2750.6461554962993
 20
534.63076923076915
 42
0
  0
VERTEX
  8
0
 10
2726.6461554962993
 20
534.63076923076915
 42
0
  0
VERTEX
  8
0
 10
2723.6461554962993
 20
537.63076923076915
 42
0
  0
VERTEX
  8
0
 10
2723.6461554962993
 20
638.50144908611583
 42
-0.58976781368255615
  0
VERTEX
  8
0
 10
2723.6461507279278
 20
692.76008746807383
 42
0
  0
VERTEX
  8
0
 10
2723.6461554962993
 20
796.63076923076915
 42
0
  0
VERTEX
  8
0
 10
2753.6461554962993
 20
796.63076923076915
 42
0
  0
VERTEX
  8
0
 10
2753.6461554962993
 20
692.76008937542247
 42
-0.58976787328720093
  0
VERTEX
  8
0
 10
2753.6461526352764
 20
638.50144717876719
 42
0
  0
SEQEND
  0
POLYLINE
  8
0
 10
0
 20
0
 39
0
 70
1
 66
1
  0
VERTEX
  8
0
 10
2738.6461554962993
 20
551.63076923076915
 42
1
  0
VERTEX
  8
0
 10
2738.6461554962993
 20
567.63076923076915
 42
1
  0
SEQEND
  0
POLYLINE
  8
0
 10
0
 20
0
 39
0
 70
1
 66
1
  0
VERTEX
  8
0
 10
2738.6461554962993
 20
652.63076923076915
 42
1
  0
VERTEX
  8
0
 10
2738.6461554962993
 20
678.63076923076915
 42
1
  0
SEQEND
  0
POLYLINE
  8
0
 10
0
 20
0
 39
0
 70
1
 66
1
  0
VERTEX
  8
0
 10
2738.6461554962993
 20
763.63076923076915
 42
1
  0
VERTEX
  8
0
 10
2738.6461554962993
 20
779.63076923076915
 42
1
  0
SEQEND
  0
ENDSEC
  0
EOF
