  0
SECTION
  2
ENTITIES
  0
POLYLINE
  8
0
 10
0
 20
0
 39
0
 70
1
 66
1
  0
VERTEX
  8
0
 10
0
 20
0
 42
-0
  0
VERTEX
  8
0
 10
1500
 20
0
 42
-0
  0
VERTEX
  8
0
 10
1500
 20
900
 42
-0
  0
VERTEX
  8
0
 10
0
 20
900
 42
-0
  0
SEQEND
  0
POLYLINE
  8
0
 10
0
 20
0
 39
0
 70
1
 66
1
  0
VERTEX
  8
0
 10
336.61037739511085
 20
660.18920248751965
 42
-1
  0
VERTEX
  8
0
 10
333.7742264629851
 20
10.195401370576292
 42
-1
  0
SEQEND
  0
POLYLINE
  8
0
 10
0
 20
0
 39
0
 70
1
 66
1
  0
VERTEX
  8
0
 10
336.37039539316174
 20
605.18972700839367
 42
1
  0
VERTEX
  8
0
 10
334.0142084649342
 20
65.194876849702268
 42
1
  0
SEQEND
  0
POLYLINE
  8
0
 10
0
 20
0
 39
0
 70
1
 66
1
  0
VERTEX
  8
0
 10
955.76422354895703
 20
889.68920248751965
 42
-1
  0
VERTEX
  8
0
 10
952.92807261683129
 20
239.69540137057629
 42
-1
  0
SEQEND
  0
POLYLINE
  8
0
 10
0
 20
0
 39
0
 70
1
 66
1
  0
VERTEX
  8
0
 10
955.52424154700793
 20
834.68972700839367
 42
1
  0
VERTEX
  8
0
 10
953.16805461878039
 20
294.69487684970227
 42
1
  0
SEQEND
  0
POLYLINE
  8
0
 10
0
 20
0
 39
0
 70
1
 66
1
  0
VERTEX
  8
0
 10
273.86175001590783
 20
532.3442668028332
 42
-1
  0
VERTEX
  8
0
 10
272.13824291100065
 20
137.34803381638301
 42
-1
  0
SEQEND
  0
POLYLINE
  8
0
 10
0
 20
0
 39
0
 70
1
 66
1
  0
VERTEX
  8
0
 10
273.81811692464436
 20
522.34436217026484
 42
1
  0
VERTEX
  8
0
 10
272.18187600226412
 20
147.34793844895137
 42
1
  0
SEQEND
  0
POLYLINE
  8
0
 10
0
 20
0
 39
0
 70
1
 66
1
  0
VERTEX
  8
0
 10
254.11029527250781
 20
491.11387974036745
 42
-1
  0
VERTEX
  8
0
 10
252.73585289770841
 20
176.11688381446413
 42
-1
  0
SEQEND
  0
POLYLINE
  8
0
 10
0
 20
0
 39
0
 70
1
 66
1
  0
VERTEX
  8
0
 10
253.92485463463805
 20
448.61428505195192
 42
1
  0
VERTEX
  8
0
 10
252.92129353557817
 20
218.61647850287966
 42
1
  0
SEQEND
  0
POLYLINE
  8
0
 10
0
 20
0
 39
0
 70
1
 66
1
  0
VERTEX
  8
0
 10
1009.652341278829
 20
562.54354520540073
 42
-1
  0
VERTEX
  8
0
 10
694.65534535292568
 20
563.91798758020013
 42
-1
  0
SEQEND
  0
POLYLINE
  8
0
 10
0
 20
0
 39
0
 70
1
 66
1
  0
VERTEX
  8
0
 10
967.15274659041347
 20
562.72898584327049
 42
1
  0
VERTEX
  8
0
 10
737.15494004134121
 20
563.73254694233037
 42
1
  0
SEQEND
  0
POLYLINE
  8
0
 10
0
 20
0
 39
0
 70
1
 66
1
  0
VERTEX
  8
0
 10
1146.8461538461538
 20
10.192307692307693
 42
-0
  0
VERTEX
  8
0
 10
1146.8461538461538
 20
290.19230769230768
 42
-0
  0
VERTEX
  8
0
 10
1431.8461538461538
 20
290.19230769230768
 42
-0
  0
VERTEX
  8
0
 10
1431.8461538461538
 20
10.192307692307711
 42
-0
  0
SEQEND
  0
POLYLINE
  8
0
 10
0
 20
0
 39
0
 70
1
 66
1
  0
VERTEX
  8
0
 10
1383.3461538461538
 20
61.192307692307708
 42
-0
  0
VERTEX
  8
0
 10
1383.3461538461538
 20
239.19230769230774
 42
-0
  0
VERTEX
  8
0
 10
1195.3461538461538
 20
239.19230769230768
 42
0
  0
VERTEX
  8
0
 10
1195.3461538461538
 20
61.192307692307693
 42
0
  0
SEQEND
  0
POLYLINE
  8
0
 10
0
 20
0
 39
0
 70
1
 66
1
  0
VERTEX
  8
0
 10
10.192307692307697
 20
670.07692307692309
 42
-0
  0
VERTEX
  8
0
 10
10.192307692307693
 20
735.07692307692309
 42
-0
  0
VERTEX
  8
0
 10
420.8745891864483
 20
735.07692307692309
 42
-0
  0
VERTEX
  8
0
 10
440.19230769230768
 20
719.35629624586841
 42
-0
  0
VERTEX
  8
0
 10
440.19230769230768
 20
670.07692307692309
 42
0
  0
VERTEX
  8
0
 10
357.96019099308893
 20
670.07692307692309
 42
-0
  0
VERTEX
  8
0
 10
357.96019099308893
 20
693.04959458571216
 42
-0
  0
VERTEX
  8
0
 10
319.96019099308893
 20
693.04959458571216
 42
-0
  0
VERTEX
  8
0
 10
319.96019099308893
 20
670.07692307692309
 42
0
  0
SEQEND
  0
POLYLINE
  8
0
 10
0
 20
0
 39
0
 70
1
 66
1
  0
VERTEX
  8
0
 10
146.62402461125302
 20
685.57692307692309
 42
1
  0
VERTEX
  8
0
 10
146.62402461125302
 20
719.57692307692309
 42
1
  0
SEQEND
  0
POLYLINE
  8
0
 10
0
 20
0
 39
0
 70
1
 66
1
  0
VERTEX
  8
0
 10
10.192307692307697
 20
745.19230769230774
 42
-0
  0
VERTEX
  8
0
 10
10.192307692307693
 20
810.19230769230774
 42
-0
  0
VERTEX
  8
0
 10
420.8745891864483
 20
810.19230769230774
 42
-0
  0
VERTEX
  8
0
 10
440.19230769230768
 20
794.47168086125305
 42
-0
  0
VERTEX
  8
0
 10
440.19230769230768
 20
745.19230769230774
 42
0
  0
VERTEX
  8
0
 10
357.96019099308893
 20
745.19230769230774
 42
-0
  0
VERTEX
  8
0
 10
357.96019099308893
 20
768.1649792010968
 42
-0
  0
VERTEX
  8
0
 10
319.96019099308893
 20
768.1649792010968
 42
-0
  0
VERTEX
  8
0
 10
319.96019099308893
 20
745.19230769230774
 42
0
  0
SEQEND
  0
POLYLINE
  8
0
 10
0
 20
0
 39
0
 70
1
 66
1
  0
VERTEX
  8
0
 10
146.62402461125302
 20
760.69230769230774
 42
1
  0
VERTEX
  8
0
 10
146.62402461125302
 20
794.69230769230774
 42
1
  0
SEQEND
  0
POLYLINE
  8
0
 10
0
 20
0
 39
0
 70
1
 66
1
  0
VERTEX
  8
0
 10
10.192307692307697
 20
820.30769230769238
 42
-0
  0
VERTEX
  8
0
 10
10.192307692307693
 20
885.30769230769238
 42
-0
  0
VERTEX
  8
0
 10
420.8745891864483
 20
885.30769230769238
 42
-0
  0
VERTEX
  8
0
 10
440.19230769230768
 20
869.58706547663769
 42
-0
  0
VERTEX
  8
0
 10
440.19230769230768
 20
820.30769230769238
 42
0
  0
VERTEX
  8
0
 10
357.96019099308893
 20
820.30769230769238
 42
-0
  0
VERTEX
  8
0
 10
357.96019099308893
 20
843.28036381648144
 42
-0
  0
VERTEX
  8
0
 10
319.96019099308893
 20
843.28036381648144
 42
-0
  0
VERTEX
  8
0
 10
319.96019099308893
 20
820.30769230769238
 42
0
  0
SEQEND
  0
POLYLINE
  8
0
 10
0
 20
0
 39
0
 70
1
 66
1
  0
VERTEX
  8
0
 10
146.62402461125302
 20
835.80769230769238
 42
1
  0
VERTEX
  8
0
 10
146.62402461125302
 20
869.80769230769238
 42
1
  0
SEQEND
  0
POLYLINE
  8
0
 10
0
 20
0
 39
0
 70
1
 66
1
  0
VERTEX
  8
0
 10
546.96153846153845
 20
10.192307692307693
 42
-0
  0
VERTEX
  8
0
 10
546.96153846153845
 20
75.192307692307693
 42
-0
  0
VERTEX
  8
0
 10
957.64381995567908
 20
75.192307692307722
 42
-0
  0
VERTEX
  8
0
 10
976.96153846153845
 20
59.471680861253034
 42
-0
  0
VERTEX
  8
0
 10
976.96153846153845
 20
10.192307692307747
 42
0
  0
VERTEX
  8
0
 10
894.7294217623197
 20
10.192307692307736
 42
-0
  0
VERTEX
  8
0
 10
894.7294217623197
 20
33.164979201096777
 42
-0
  0
VERTEX
  8
0
 10
856.7294217623197
 20
33.16497920109677
 42
-0
  0
VERTEX
  8
0
 10
856.7294217623197
 20
10.192307692307731
 42
0
  0
SEQEND
  0
POLYLINE
  8
0
 10
0
 20
0
 39
0
 70
1
 66
1
  0
VERTEX
  8
0
 10
683.39325538048377
 20
25.692307692307701
 42
1
  0
VERTEX
  8
0
 10
683.39325538048377
 20
59.692307692307701
 42
1
  0
SEQEND
  0
POLYLINE
  8
0
 10
0
 20
0
 39
0
 70
1
 66
1
  0
VERTEX
  8
0
 10
522.42307692307691
 20
467.92307692307691
 42
-0
  0
VERTEX
  8
0
 10
522.42307692307691
 20
167.92307692307691
 42
0
  0
VERTEX
  8
0
 10
472.42307692307696
 20
167.92307692307691
 42
0
  0
VERTEX
  8
0
 10
472.42307692307696
 20
242.51078444260816
 42
-0
  0
VERTEX
  8
0
 10
480.80091887253985
 20
242.51078444260816
 42
0
  0
VERTEX
  8
0
 10
480.8009188725398
 20
393.33536940354566
 42
0
  0
VERTEX
  8
0
 10
472.42307692307691
 20
393.33536940354566
 42
0
  0
VERTEX
  8
0
 10
472.42307692307691
 20
467.92307692307691
 42
0
  0
SEQEND
  0
POLYLINE
  8
0
 10
0
 20
0
 39
0
 70
1
 66
1
  0
VERTEX
  8
0
 10
497.42307692307691
 20
448.94057112473706
 42
1
  0
VERTEX
  8
0
 10
497.42307692307691
 20
420.94057112473706
 42
1
  0
SEQEND
  0
POLYLINE
  8
0
 10
0
 20
0
 39
0
 70
1
 66
1
  0
VERTEX
  8
0
 10
497.42307692307696
 20
214.90559035081128
 42
1
  0
VERTEX
  8
0
 10
497.42307692307696
 20
186.90559035081128
 42
1
  0
SEQEND
  0
POLYLINE
  8
0
 10
0
 20
0
 39
0
 70
1
 66
1
  0
VERTEX
  8
0
 10
553.42307692307691
 20
589.76923076923083
 42
-0
  0
VERTEX
  8
0
 10
553.42307692307691
 20
889.76923076923083
 42
0
  0
VERTEX
  8
0
 10
603.42307692307691
 20
889.76923076923083
 42
0
  0
VERTEX
  8
0
 10
603.42307692307691
 20
815.18152324969958
 42
-0
  0
VERTEX
  8
0
 10
595.04523497361401
 20
815.18152324969958
 42
0
  0
VERTEX
  8
0
 10
595.04523497361401
 20
664.35693828876208
 42
0
  0
VERTEX
  8
0
 10
603.42307692307691
 20
664.35693828876208
 42
0
  0
VERTEX
  8
0
 10
603.42307692307691
 20
589.76923076923083
 42
0
  0
SEQEND
  0
POLYLINE
  8
0
 10
0
 20
0
 39
0
 70
1
 66
1
  0
VERTEX
  8
0
 10
578.42307692307691
 20
608.75173656757067
 42
1
  0
VERTEX
  8
0
 10
578.42307692307691
 20
636.75173656757067
 42
1
  0
SEQEND
  0
POLYLINE
  8
0
 10
0
 20
0
 39
0
 70
1
 66
1
  0
VERTEX
  8
0
 10
578.42307692307691
 20
842.78671734149646
 42
1
  0
VERTEX
  8
0
 10
578.42307692307691
 20
870.78671734149646
 42
1
  0
SEQEND
  0
POLYLINE
  8
0
 10
0
 20
0
 39
0
 70
1
 66
1
  0
VERTEX
  8
0
 10
904.53846153846155
 20
85.307692307692307
 42
-0
  0
VERTEX
  8
0
 10
604.53846153846155
 20
85.307692307692307
 42
0
  0
VERTEX
  8
0
 10
604.53846153846155
 20
135.30769230769232
 42
0
  0
VERTEX
  8
0
 10
679.1261690579928
 20
135.30769230769232
 42
-0
  0
VERTEX
  8
0
 10
679.1261690579928
 20
126.92985035822942
 42
0
  0
VERTEX
  8
0
 10
829.9507540189303
 20
126.92985035822942
 42
0
  0
VERTEX
  8
0
 10
829.9507540189303
 20
135.30769230769232
 42
0
  0
VERTEX
  8
0
 10
904.53846153846155
 20
135.30769230769232
 42
0
  0
SEQEND
  0
POLYLINE
  8
0
 10
0
 20
0
 39
0
 70
1
 66
1
  0
VERTEX
  8
0
 10
885.5559557401217
 20
110.30769230769231
 42
1
  0
VERTEX
  8
0
 10
857.5559557401217
 20
110.30769230769231
 42
1
  0
SEQEND
  0
POLYLINE
  8
0
 10
0
 20
0
 39
0
 70
1
 66
1
  0
VERTEX
  8
0
 10
651.52097496619592
 20
110.30769230769231
 42
1
  0
VERTEX
  8
0
 10
623.52097496619592
 20
110.30769230769231
 42
1
  0
SEQEND
  0
POLYLINE
  8
0
 10
0
 20
0
 39
0
 70
1
 66
1
  0
VERTEX
  8
0
 10
940.07692307692309
 20
145.42307692307693
 42
-0
  0
VERTEX
  8
0
 10
640.07692307692309
 20
145.42307692307693
 42
0
  0
VERTEX
  8
0
 10
640.07692307692309
 20
195.42307692307693
 42
0
  0
VERTEX
  8
0
 10
714.66463059645434
 20
195.42307692307693
 42
-0
  0
VERTEX
  8
0
 10
714.66463059645434
 20
187.04523497361404
 42
0
  0
VERTEX
  8
0
 10
865.48921555739184
 20
187.04523497361404
 42
0
  0
VERTEX
  8
0
 10
865.48921555739184
 20
195.42307692307693
 42
0
  0
VERTEX
  8
0
 10
940.07692307692309
 20
195.42307692307693
 42
0
  0
SEQEND
  0
POLYLINE
  8
0
 10
0
 20
0
 39
0
 70
1
 66
1
  0
VERTEX
  8
0
 10
921.09441727858325
 20
170.42307692307693
 42
1
  0
VERTEX
  8
0
 10
893.09441727858325
 20
170.42307692307693
 42
1
  0
SEQEND
  0
POLYLINE
  8
0
 10
0
 20
0
 39
0
 70
1
 66
1
  0
VERTEX
  8
0
 10
687.05943650465747
 20
170.42307692307693
 42
1
  0
VERTEX
  8
0
 10
659.05943650465747
 20
170.42307692307693
 42
1
  0
SEQEND
  0
POLYLINE
  8
0
 10
0
 20
0
 39
0
 70
1
 66
1
  0
VERTEX
  8
0
 10
1061.6153846153848
 20
690.15384615384619
 42
-0
  0
VERTEX
  8
0
 10
1061.6153846153848
 20
390.15384615384619
 42
0
  0
VERTEX
  8
0
 10
1011.6153846153848
 20
390.15384615384619
 42
0
  0
VERTEX
  8
0
 10
1011.6153846153848
 20
464.74155367337744
 42
-0
  0
VERTEX
  8
0
 10
1019.9932265648476
 20
464.74155367337744
 42
0
  0
VERTEX
  8
0
 10
1019.9932265648476
 20
615.56613863431494
 42
0
  0
VERTEX
  8
0
 10
1011.6153846153848
 20
615.56613863431494
 42
0
  0
VERTEX
  8
0
 10
1011.6153846153848
 20
690.15384615384619
 42
0
  0
SEQEND
  0
POLYLINE
  8
0
 10
0
 20
0
 39
0
 70
1
 66
1
  0
VERTEX
  8
0
 10
1036.6153846153848
 20
671.17134035550635
 42
1
  0
VERTEX
  8
0
 10
1036.6153846153848
 20
643.17134035550635
 42
1
  0
SEQEND
  0
POLYLINE
  8
0
 10
0
 20
0
 39
0
 70
1
 66
1
  0
VERTEX
  8
0
 10
1036.6153846153848
 20
437.13635958158056
 42
1
  0
VERTEX
  8
0
 10
1036.6153846153848
 20
409.13635958158056
 42
1
  0
SEQEND
  0
POLYLINE
  8
0
 10
0
 20
0
 39
0
 70
1
 66
1
  0
VERTEX
  8
0
 10
1071.8461538461538
 20
366.26923076923077
 42
-0
  0
VERTEX
  8
0
 10
1071.8461538461538
 20
666.26923076923072
 42
0
  0
VERTEX
  8
0
 10
1121.8461538461538
 20
666.26923076923072
 42
0
  0
VERTEX
  8
0
 10
1121.8461538461538
 20
591.68152324969947
 42
-0
  0
VERTEX
  8
0
 10
1113.4683118966909
 20
591.68152324969947
 42
0
  0
VERTEX
  8
0
 10
1113.4683118966909
 20
440.85693828876202
 42
0
  0
VERTEX
  8
0
 10
1121.8461538461538
 20
440.85693828876202
 42
0
  0
VERTEX
  8
0
 10
1121.8461538461538
 20
366.26923076923077
 42
0
  0
SEQEND
  0
POLYLINE
  8
0
 10
0
 20
0
 39
0
 70
1
 66
1
  0
VERTEX
  8
0
 10
1096.8461538461538
 20
385.25173656757062
 42
1
  0
VERTEX
  8
0
 10
1096.8461538461538
 20
413.25173656757062
 42
1
  0
SEQEND
  0
POLYLINE
  8
0
 10
0
 20
0
 39
0
 70
1
 66
1
  0
VERTEX
  8
0
 10
1096.8461538461538
 20
619.28671734149634
 42
1
  0
VERTEX
  8
0
 10
1096.8461538461538
 20
647.28671734149634
 42
1
  0
SEQEND
  0
POLYLINE
  8
0
 10
0
 20
0
 39
0
 70
1
 66
1
  0
VERTEX
  8
0
 10
180.38461538461539
 20
258.61538461538464
 42
-0
  0
VERTEX
  8
0
 10
180.38461538461539
 20
408.61538461538464
 42
0
  0
VERTEX
  8
0
 10
269.38461538461536
 20
408.61538461538464
 42
0
  0
VERTEX
  8
0
 10
269.38461538461536
 20
380.61538461538464
 42
1
  0
VERTEX
  8
0
 10
269.38461538461536
 20
286.61538461538464
 42
0
  0
VERTEX
  8
0
 10
269.38461538461536
 20
258.61538461538464
 42
0
  0
SEQEND
  0
POLYLINE
  8
0
 10
0
 20
0
 39
0
 70
1
 66
1
  0
VERTEX
  8
0
 10
209.94906850961539
 20
270.61538461538464
 42
1
  0
VERTEX
  8
0
 10
209.94906850961539
 20
302.61538461538464
 42
1
  0
SEQEND
  0
POLYLINE
  8
0
 10
0
 20
0
 39
0
 70
1
 66
1
  0
VERTEX
  8
0
 10
450.38461538461542
 20
650.11538461538464
 42
-0
  0
VERTEX
  8
0
 10
450.38461538461542
 20
800.11538461538464
 42
0
  0
VERTEX
  8
0
 10
539.38461538461536
 20
800.11538461538464
 42
0
  0
VERTEX
  8
0
 10
539.38461538461536
 20
772.11538461538464
 42
1
  0
VERTEX
  8
0
 10
539.38461538461547
 20
678.11538461538464
 42
0
  0
VERTEX
  8
0
 10
539.38461538461547
 20
650.11538461538464
 42
0
  0
SEQEND
  0
POLYLINE
  8
0
 10
0
 20
0
 39
0
 70
1
 66
1
  0
VERTEX
  8
0
 10
479.94906850961542
 20
662.11538461538464
 42
1
  0
VERTEX
  8
0
 10
479.94906850961542
 20
694.11538461538464
 42
1
  0
SEQEND
  0
POLYLINE
  8
0
 10
0
 20
0
 39
0
 70
1
 66
1
  0
VERTEX
  8
0
 10
779.11538461538464
 20
488.23076923076928
 42
-0
  0
VERTEX
  8
0
 10
779.11538461538464
 20
638.23076923076928
 42
0
  0
VERTEX
  8
0
 10
868.11538461538464
 20
638.23076923076928
 42
0
  0
VERTEX
  8
0
 10
868.11538461538464
 20
610.23076923076928
 42
1
  0
VERTEX
  8
0
 10
868.11538461538464
 20
516.23076923076928
 42
0
  0
VERTEX
  8
0
 10
868.11538461538464
 20
488.23076923076928
 42
0
  0
SEQEND
  0
POLYLINE
  8
0
 10
0
 20
0
 39
0
 70
1
 66
1
  0
VERTEX
  8
0
 10
808.67983774038464
 20
500.23076923076928
 42
1
  0
VERTEX
  8
0
 10
808.67983774038464
 20
532.23076923076928
 42
1
  0
SEQEND
  0
POLYLINE
  8
0
 10
0
 20
0
 39
0
 70
1
 66
1
  0
VERTEX
  8
0
 10
968.34615384615392
 20
79.769230769230774
 42
-0
  0
VERTEX
  8
0
 10
968.34615384615392
 20
229.76923076923077
 42
0
  0
VERTEX
  8
0
 10
1057.3461538461538
 20
229.76923076923077
 42
0
  0
VERTEX
  8
0
 10
1057.3461538461538
 20
201.76923076923077
 42
1
  0
VERTEX
  8
0
 10
1057.3461538461538
 20
107.76923076923077
 42
0
  0
VERTEX
  8
0
 10
1057.3461538461538
 20
79.769230769230788
 42
0
  0
SEQEND
  0
POLYLINE
  8
0
 10
0
 20
0
 39
0
 70
1
 66
1
  0
VERTEX
  8
0
 10
997.91060697115392
 20
91.769230769230774
 42
1
  0
VERTEX
  8
0
 10
997.91060697115392
 20
123.76923076923077
 42
1
  0
SEQEND
  0
POLYLINE
  8
0
 10
0
 20
0
 39
0
 70
1
 66
1
  0
VERTEX
  8
0
 10
1112.5
 20
168.61538461538464
 42
-0
  0
VERTEX
  8
0
 10
1112.5
 20
18.615384615384642
 42
0
  0
VERTEX
  8
0
 10
1023.5
 20
18.615384615384613
 42
0
  0
VERTEX
  8
0
 10
1023.5
 20
46.615384615384627
 42
1
  0
VERTEX
  8
0
 10
1023.5
 20
140.61538461538461
 42
0
  0
VERTEX
  8
0
 10
1023.5
 20
168.61538461538461
 42
0
  0
SEQEND
  0
POLYLINE
  8
0
 10
0
 20
0
 39
0
 70
1
 66
1
  0
VERTEX
  8
0
 10
1082.935546875
 20
156.61538461538464
 42
1
  0
VERTEX
  8
0
 10
1082.935546875
 20
124.61538461538464
 42
1
  0
SEQEND
  0
POLYLINE
  8
0
 10
0
 20
0
 39
0
 70
1
 66
1
  0
VERTEX
  8
0
 10
1205.5769230769231
 20
71.346153846153854
 42
-0
  0
VERTEX
  8
0
 10
1205.5769230769231
 20
221.34615384615387
 42
0
  0
VERTEX
  8
0
 10
1294.5769230769231
 20
221.34615384615387
 42
0
  0
VERTEX
  8
0
 10
1294.5769230769231
 20
193.34615384615387
 42
1
  0
VERTEX
  8
0
 10
1294.5769230769231
 20
99.346153846153868
 42
0
  0
VERTEX
  8
0
 10
1294.5769230769231
 20
71.346153846153868
 42
0
  0
SEQEND
  0
POLYLINE
  8
0
 10
0
 20
0
 39
0
 70
1
 66
1
  0
VERTEX
  8
0
 10
1235.1413762019231
 20
83.346153846153854
 42
1
  0
VERTEX
  8
0
 10
1235.1413762019231
 20
115.34615384615385
 42
1
  0
SEQEND
  0
POLYLINE
  8
0
 10
0
 20
0
 39
0
 70
1
 66
1
  0
VERTEX
  8
0
 10
1240.3076923076924
 20
739.76923076923083
 42
-0
  0
VERTEX
  8
0
 10
1240.3076923076924
 20
889.76923076923083
 42
0
  0
VERTEX
  8
0
 10
1329.3076923076924
 20
889.76923076923083
 42
0
  0
VERTEX
  8
0
 10
1329.3076923076924
 20
861.76923076923083
 42
1
  0
VERTEX
  8
0
 10
1329.3076923076924
 20
767.76923076923083
 42
0
  0
VERTEX
  8
0
 10
1329.3076923076924
 20
739.76923076923083
 42
0
  0
SEQEND
  0
POLYLINE
  8
0
 10
0
 20
0
 39
0
 70
1
 66
1
  0
VERTEX
  8
0
 10
1269.8721454326924
 20
751.76923076923083
 42
1
  0
VERTEX
  8
0
 10
1269.8721454326924
 20
783.76923076923083
 42
1
  0
SEQEND
  0
POLYLINE
  8
0
 10
0
 20
0
 39
0
 70
1
 66
1
  0
VERTEX
  8
0
 10
1269.6153846153848
 20
300.26923076923077
 42
-0
  0
VERTEX
  8
0
 10
1269.6153846153848
 20
450.26923076923077
 42
0
  0
VERTEX
  8
0
 10
1358.6153846153848
 20
450.26923076923077
 42
0
  0
VERTEX
  8
0
 10
1358.6153846153848
 20
422.26923076923077
 42
1
  0
VERTEX
  8
0
 10
1358.6153846153848
 20
328.26923076923077
 42
0
  0
VERTEX
  8
0
 10
1358.6153846153848
 20
300.26923076923077
 42
0
  0
SEQEND
  0
POLYLINE
  8
0
 10
0
 20
0
 39
0
 70
1
 66
1
  0
VERTEX
  8
0
 10
1299.1798377403848
 20
312.26923076923077
 42
1
  0
VERTEX
  8
0
 10
1299.1798377403848
 20
344.26923076923077
 42
1
  0
SEQEND
  0
POLYLINE
  8
0
 10
0
 20
0
 39
0
 70
1
 66
1
  0
VERTEX
  8
0
 10
1375.4615384615386
 20
639.50000000000011
 42
-0
  0
VERTEX
  8
0
 10
1375.4615384615386
 20
489.50000000000011
 42
0
  0
VERTEX
  8
0
 10
1286.4615384615386
 20
489.50000000000011
 42
0
  0
VERTEX
  8
0
 10
1286.4615384615386
 20
517.50000000000011
 42
1
  0
VERTEX
  8
0
 10
1286.4615384615386
 20
611.50000000000011
 42
0
  0
VERTEX
  8
0
 10
1286.4615384615386
 20
639.50000000000011
 42
0
  0
SEQEND
  0
POLYLINE
  8
0
 10
0
 20
0
 39
0
 70
1
 66
1
  0
VERTEX
  8
0
 10
1345.8970853365386
 20
627.50000000000011
 42
1
  0
VERTEX
  8
0
 10
1345.8970853365386
 20
595.50000000000011
 42
1
  0
SEQEND
  0
POLYLINE
  8
0
 10
0
 20
0
 39
0
 70
1
 66
1
  0
VERTEX
  8
0
 10
1384.4615384615386
 20
828.61538461538464
 42
-0
  0
VERTEX
  8
0
 10
1384.4615384615386
 20
678.61538461538464
 42
0
  0
VERTEX
  8
0
 10
1295.4615384615386
 20
678.61538461538464
 42
0
  0
VERTEX
  8
0
 10
1295.4615384615386
 20
706.61538461538464
 42
1
  0
VERTEX
  8
0
 10
1295.4615384615386
 20
800.61538461538464
 42
0
  0
VERTEX
  8
0
 10
1295.4615384615386
 20
828.61538461538464
 42
0
  0
SEQEND
  0
POLYLINE
  8
0
 10
0
 20
0
 39
0
 70
1
 66
1
  0
VERTEX
  8
0
 10
1354.8970853365386
 20
816.61538461538464
 42
1
  0
VERTEX
  8
0
 10
1354.8970853365386
 20
784.61538461538464
 42
1
  0
SEQEND
  0
POLYLINE
  8
0
 10
0
 20
0
 39
0
 70
1
 66
1
  0
VERTEX
  8
0
 10
1368.846153846154
 20
300.26923076923077
 42
-0
  0
VERTEX
  8
0
 10
1368.846153846154
 20
450.26923076923077
 42
0
  0
VERTEX
  8
0
 10
1457.846153846154
 20
450.26923076923077
 42
0
  0
VERTEX
  8
0
 10
1457.846153846154
 20
422.26923076923077
 42
1
  0
VERTEX
  8
0
 10
1457.846153846154
 20
328.26923076923077
 42
0
  0
VERTEX
  8
0
 10
1457.846153846154
 20
300.26923076923077
 42
0
  0
SEQEND
  0
POLYLINE
  8
0
 10
0
 20
0
 39
0
 70
1
 66
1
  0
VERTEX
  8
0
 10
1398.410606971154
 20
312.26923076923077
 42
1
  0
VERTEX
  8
0
 10
1398.410606971154
 20
344.26923076923077
 42
1
  0
SEQEND
  0
POLYLINE
  8
0
 10
0
 20
0
 39
0
 70
1
 66
1
  0
VERTEX
  8
0
 10
1385.6923076923078
 20
460.30769230769232
 42
-0
  0
VERTEX
  8
0
 10
1385.6923076923078
 20
610.30769230769238
 42
0
  0
VERTEX
  8
0
 10
1474.6923076923078
 20
610.30769230769238
 42
0
  0
VERTEX
  8
0
 10
1474.6923076923078
 20
582.30769230769238
 42
1
  0
VERTEX
  8
0
 10
1474.6923076923078
 20
488.30769230769232
 42
0
  0
VERTEX
  8
0
 10
1474.6923076923078
 20
460.30769230769232
 42
0
  0
SEQEND
  0
POLYLINE
  8
0
 10
0
 20
0
 39
0
 70
1
 66
1
  0
VERTEX
  8
0
 10
1415.2567608173078
 20
472.30769230769232
 42
1
  0
VERTEX
  8
0
 10
1415.2567608173078
 20
504.30769230769232
 42
1
  0
SEQEND
  0
POLYLINE
  8
0
 10
0
 20
0
 39
0
 70
1
 66
1
  0
VERTEX
  8
0
 10
85.627900343674881
 20
72.910104017991301
 42
-0.35889896750450134
  0
VERTEX
  8
0
 10
85.627900343674881
 20
47.474507551926841
 42
0
  0
VERTEX
  8
0
 10
57.910104017991294
 20
13.833408575791584
 42
-0.22404870390892029
  0
VERTEX
  8
0
 10
50.192307692307701
 20
10.192307692307695
 42
-0
  0
VERTEX
  8
0
 10
10.192307692307699
 20
10.192307692307693
 42
-0
  0
VERTEX
  8
0
 10
10.192307692307693
 20
110.19230769230769
 42
-0
  0
VERTEX
  8
0
 10
50.192307692307693
 20
110.19230769230769
 42
-0.22404871881008148
  0
VERTEX
  8
0
 10
57.910104017991287
 20
106.55120966984676
 42
0
  0
SEQEND
  0
POLYLINE
  8
0
 10
0
 20
0
 39
0
 70
1
 66
1
  0
VERTEX
  8
0
 10
70.192307692307693
 20
45.192307692307701
 42
1
  0
VERTEX
  8
0
 10
70.192307692307693
 20
75.192307692307693
 42
1
  0
SEQEND
  0
POLYLINE
  8
0
 10
0
 20
0
 39
0
 70
1
 66
1
  0
VERTEX
  8
0
 10
85.627900343674881
 20
585.10241171029907
 42
-0.35889896750450134
  0
VERTEX
  8
0
 10
85.627900343674881
 20
559.66681524423461
 42
0
  0
VERTEX
  8
0
 10
57.910104017991294
 20
526.02571626809936
 42
-0.22404870390892029
  0
VERTEX
  8
0
 10
50.192307692307701
 20
522.38461538461547
 42
-0
  0
VERTEX
  8
0
 10
10.192307692307699
 20
522.38461538461547
 42
-0
  0
VERTEX
  8
0
 10
10.192307692307693
 20
622.38461538461547
 42
-0
  0
VERTEX
  8
0
 10
50.192307692307693
 20
622.38461538461547
 42
-0.22404871881008148
  0
VERTEX
  8
0
 10
57.910104017991287
 20
618.74351736215453
 42
0
  0
SEQEND
  0
POLYLINE
  8
0
 10
0
 20
0
 39
0
 70
1
 66
1
  0
VERTEX
  8
0
 10
70.192307692307693
 20
557.38461538461547
 42
1
  0
VERTEX
  8
0
 10
70.192307692307693
 20
587.38461538461547
 42
1
  0
SEQEND
  0
POLYLINE
  8
0
 10
0
 20
0
 39
0
 70
1
 66
1
  0
VERTEX
  8
0
 10
254.52594323935602
 20
320.82066521277818
 42
-0.35889896750450134
  0
VERTEX
  8
0
 10
254.52594323935602
 20
346.25626167884263
 42
0
  0
VERTEX
  8
0
 10
282.24373956503962
 20
379.89736065497789
 42
-0.22404870390892029
  0
VERTEX
  8
0
 10
289.96153589072321
 20
383.53846153846177
 42
-0
  0
VERTEX
  8
0
 10
329.96153589072321
 20
383.53846153846177
 42
-0
  0
VERTEX
  8
0
 10
329.96153589072321
 20
283.53846153846177
 42
-0
  0
VERTEX
  8
0
 10
289.96153589072321
 20
283.53846153846177
 42
-0.22404871881008148
  0
VERTEX
  8
0
 10
282.24373956503962
 20
287.17955956092271
 42
0
  0
SEQEND
  0
POLYLINE
  8
0
 10
0
 20
0
 39
0
 70
1
 66
1
  0
VERTEX
  8
0
 10
269.96153589072321
 20
348.53846153846177
 42
1
  0
VERTEX
  8
0
 10
269.96153589072321
 20
318.53846153846177
 42
1
  0
SEQEND
  0
POLYLINE
  8
0
 10
0
 20
0
 39
0
 70
1
 66
1
  0
VERTEX
  8
0
 10
689.08943880521338
 20
795.33318094106824
 42
-0.35889896750450134
  0
VERTEX
  8
0
 10
689.08943880521338
 20
769.89758447500378
 42
0
  0
VERTEX
  8
0
 10
661.37164247952978
 20
736.25648549886853
 42
-0.22404870390892029
  0
VERTEX
  8
0
 10
653.65384615384619
 20
732.61538461538464
 42
-0
  0
VERTEX
  8
0
 10
613.65384615384619
 20
732.61538461538464
 42
-0
  0
VERTEX
  8
0
 10
613.65384615384619
 20
832.61538461538464
 42
-0
  0
VERTEX
  8
0
 10
653.65384615384619
 20
832.61538461538464
 42
-0.22404871881008148
  0
VERTEX
  8
0
 10
661.37164247952978
 20
828.9742865929237
 42
0
  0
SEQEND
  0
POLYLINE
  8
0
 10
0
 20
0
 39
0
 70
1
 66
1
  0
VERTEX
  8
0
 10
673.65384615384619
 20
767.61538461538464
 42
1
  0
VERTEX
  8
0
 10
673.65384615384619
 20
797.61538461538464
 42
1
  0
SEQEND
  0
POLYLINE
  8
0
 10
0
 20
0
 39
0
 70
1
 66
1
  0
VERTEX
  8
0
 10
666.10286631627901
 20
242.82066521277818
 42
-0.35889896750450134
  0
VERTEX
  8
0
 10
666.10286631627901
 20
268.25626167884263
 42
0
  0
VERTEX
  8
0
 10
693.8206626419626
 20
301.89736065497789
 42
-0.22404870390892029
  0
VERTEX
  8
0
 10
701.53845896764619
 20
305.53846153846177
 42
-0
  0
VERTEX
  8
0
 10
741.53845896764619
 20
305.53846153846177
 42
-0
  0
VERTEX
  8
0
 10
741.53845896764619
 20
205.53846153846177
 42
-0
  0
VERTEX
  8
0
 10
701.53845896764619
 20
205.53846153846177
 42
-0.22404871881008148
  0
VERTEX
  8
0
 10
693.8206626419626
 20
209.17955956092271
 42
0
  0
SEQEND
  0
POLYLINE
  8
0
 10
0
 20
0
 39
0
 70
1
 66
1
  0
VERTEX
  8
0
 10
681.53845896764619
 20
270.53846153846177
 42
1
  0
VERTEX
  8
0
 10
681.53845896764619
 20
240.53846153846177
 42
1
  0
SEQEND
  0
POLYLINE
  8
0
 10
0
 20
0
 39
0
 70
1
 66
1
  0
VERTEX
  8
0
 10
721.14087324876061
 20
814.37209708550995
 42
-0.35889896750450134
  0
VERTEX
  8
0
 10
695.70527678269616
 20
814.37209708550995
 42
0
  0
VERTEX
  8
0
 10
662.06417780656091
 20
842.08989341119354
 42
-0.22404870390892029
  0
VERTEX
  8
0
 10
658.42307692307702
 20
849.80768973687714
 42
-0
  0
VERTEX
  8
0
 10
658.42307692307702
 20
889.80768973687714
 42
-0
  0
VERTEX
  8
0
 10
758.42307692307702
 20
889.80768973687714
 42
-0
  0
VERTEX
  8
0
 10
758.42307692307702
 20
849.80768973687714
 42
-0.22404871881008148
  0
VERTEX
  8
0
 10
754.78197890061608
 20
842.08989341119354
 42
0
  0
SEQEND
  0
POLYLINE
  8
0
 10
0
 20
0
 39
0
 70
1
 66
1
  0
VERTEX
  8
0
 10
693.42307692307702
 20
829.80768973687714
 42
1
  0
VERTEX
  8
0
 10
723.42307692307702
 20
829.80768973687714
 42
1
  0
SEQEND
  0
POLYLINE
  8
0
 10
0
 20
0
 39
0
 70
1
 66
1
  0
VERTEX
  8
0
 10
862.08989598200901
 20
806.20482342059802
 42
-0.35889896750450134
  0
VERTEX
  8
0
 10
887.52549244807346
 20
806.20482342059802
 42
0
  0
VERTEX
  8
0
 10
921.16659142420872
 20
778.48702709491442
 42
-0.22404870390892029
  0
VERTEX
  8
0
 10
924.80769230769261
 20
770.76923076923083
 42
-0
  0
VERTEX
  8
0
 10
924.80769230769261
 20
730.76923076923083
 42
-0
  0
VERTEX
  8
0
 10
824.80769230769261
 20
730.76923076923083
 42
-0
  0
VERTEX
  8
0
 10
824.80769230769261
 20
770.76923076923083
 42
-0.22404871881008148
  0
VERTEX
  8
0
 10
828.44879033015354
 20
778.48702709491442
 42
0
  0
SEQEND
  0
POLYLINE
  8
0
 10
0
 20
0
 39
0
 70
1
 66
1
  0
VERTEX
  8
0
 10
889.80769230769261
 20
790.76923076923083
 42
1
  0
VERTEX
  8
0
 10
859.80769230769261
 20
790.76923076923083
 42
1
  0
SEQEND
  0
POLYLINE
  8
0
 10
0
 20
0
 39
0
 70
1
 66
1
  0
VERTEX
  8
0
 10
853.25671247012519
 20
550.43604982816282
 42
-0.35889896750450134
  0
VERTEX
  8
0
 10
853.25671247012519
 20
575.87164629422728
 42
0
  0
VERTEX
  8
0
 10
880.97450879580879
 20
609.51274527036253
 42
-0.22404870390892029
  0
VERTEX
  8
0
 10
888.69230512149238
 20
613.15384615384642
 42
-0
  0
VERTEX
  8
0
 10
928.69230512149238
 20
613.15384615384642
 42
-0
  0
VERTEX
  8
0
 10
928.69230512149238
 20
513.15384615384642
 42
-0
  0
VERTEX
  8
0
 10
888.69230512149238
 20
513.15384615384642
 42
-0.22404871881008148
  0
VERTEX
  8
0
 10
880.97450879580879
 20
516.79494417630735
 42
0
  0
SEQEND
  0
POLYLINE
  8
0
 10
0
 20
0
 39
0
 70
1
 66
1
  0
VERTEX
  8
0
 10
868.69230512149238
 20
578.15384615384642
 42
1
  0
VERTEX
  8
0
 10
868.69230512149238
 20
548.15384615384642
 42
1
  0
SEQEND
  0
POLYLINE
  8
0
 10
0
 20
0
 39
0
 70
1
 66
1
  0
VERTEX
  8
0
 10
896.41010401799133
 20
320.29517400858674
 42
-0.35889896750450134
  0
VERTEX
  8
0
 10
870.97450755192688
 20
320.29517400858674
 42
0
  0
VERTEX
  8
0
 10
837.33340857579162
 20
348.01297033427034
 42
-0.22404870390892029
  0
VERTEX
  8
0
 10
833.69230769230774
 20
355.73076665995393
 42
-0
  0
VERTEX
  8
0
 10
833.69230769230774
 20
395.73076665995393
 42
-0
  0
VERTEX
  8
0
 10
933.69230769230774
 20
395.73076665995393
 42
-0
  0
VERTEX
  8
0
 10
933.69230769230774
 20
355.73076665995393
 42
-0.22404871881008148
  0
VERTEX
  8
0
 10
930.0512096698468
 20
348.01297033427034
 42
0
  0
SEQEND
  0
POLYLINE
  8
0
 10
0
 20
0
 39
0
 70
1
 66
1
  0
VERTEX
  8
0
 10
868.69230769230774
 20
335.73076665995393
 42
1
  0
VERTEX
  8
0
 10
898.69230769230774
 20
335.73076665995393
 42
1
  0
SEQEND
  0
POLYLINE
  8
0
 10
0
 20
0
 39
0
 70
1
 66
1
  0
VERTEX
  8
0
 10
939.56440477781757
 20
737.47451136662437
 42
-0.35889896750450134
  0
VERTEX
  8
0
 10
939.56440477781757
 20
762.91010783268882
 42
0
  0
VERTEX
  8
0
 10
967.28220110350117
 20
796.55120680882408
 42
-0.22404870390892029
  0
VERTEX
  8
0
 10
974.99999742918476
 20
800.19230769230796
 42
-0
  0
VERTEX
  8
0
 10
1014.9999974291848
 20
800.19230769230796
 42
-0
  0
VERTEX
  8
0
 10
1014.9999974291848
 20
700.19230769230796
 42
-0
  0
VERTEX
  8
0
 10
974.99999742918476
 20
700.19230769230796
 42
-0.22404871881008148
  0
VERTEX
  8
0
 10
967.28220110350117
 20
703.8334057147689
 42
0
  0
SEQEND
  0
POLYLINE
  8
0
 10
0
 20
0
 39
0
 70
1
 66
1
  0
VERTEX
  8
0
 10
954.99999742918476
 20
765.19230769230796
 42
1
  0
VERTEX
  8
0
 10
954.99999742918476
 20
735.19230769230796
 42
1
  0
SEQEND
  0
POLYLINE
  8
0
 10
0
 20
0
 39
0
 70
1
 66
1
  0
VERTEX
  8
0
 10
1062.3975882897014
 20
775.62790034367492
 42
-0.35889896750450134
  0
VERTEX
  8
0
 10
1087.8331847557658
 20
775.62790034367492
 42
0
  0
VERTEX
  8
0
 10
1121.4742837319011
 20
747.91010401799133
 42
-0.22404870390892029
  0
VERTEX
  8
0
 10
1125.115384615385
 20
740.19230769230774
 42
-0
  0
VERTEX
  8
0
 10
1125.115384615385
 20
700.19230769230774
 42
-0
  0
VERTEX
  8
0
 10
1025.115384615385
 20
700.19230769230774
 42
-0
  0
VERTEX
  8
0
 10
1025.115384615385
 20
740.19230769230774
 42
-0.22404871881008148
  0
VERTEX
  8
0
 10
1028.7564826378459
 20
747.91010401799133
 42
0
  0
SEQEND
  0
POLYLINE
  8
0
 10
0
 20
0
 39
0
 70
1
 66
1
  0
VERTEX
  8
0
 10
1090.115384615385
 20
760.19230769230774
 42
1
  0
VERTEX
  8
0
 10
1060.115384615385
 20
760.19230769230774
 42
1
  0
SEQEND
  0
POLYLINE
  8
0
 10
0
 20
0
 39
0
 70
1
 66
1
  0
VERTEX
  8
0
 10
1199.0894388052134
 20
513.79471940260669
 42
-0.35889896750450134
  0
VERTEX
  8
0
 10
1199.0894388052134
 20
488.35912293654224
 42
0
  0
VERTEX
  8
0
 10
1171.3716424795298
 20
454.71802396040698
 42
-0.22404870390892029
  0
VERTEX
  8
0
 10
1163.6538461538462
 20
451.07692307692309
 42
-0
  0
VERTEX
  8
0
 10
1123.6538461538462
 20
451.07692307692309
 42
-0
  0
VERTEX
  8
0
 10
1123.6538461538462
 20
551.07692307692309
 42
-0
  0
VERTEX
  8
0
 10
1163.6538461538462
 20
551.07692307692309
 42
-0.22404871881008148
  0
VERTEX
  8
0
 10
1171.3716424795298
 20
547.43582505446216
 42
0
  0
SEQEND
  0
POLYLINE
  8
0
 10
0
 20
0
 39
0
 70
1
 66
1
  0
VERTEX
  8
0
 10
1183.6538461538462
 20
486.07692307692309
 42
1
  0
VERTEX
  8
0
 10
1183.6538461538462
 20
516.07692307692309
 42
1
  0
SEQEND
  0
POLYLINE
  8
0
 10
0
 20
0
 39
0
 70
1
 66
1
  0
VERTEX
  8
0
 10
1279.7182509316638
 20
133.55143444354741
 42
-0.35889896750450134
  0
VERTEX
  8
0
 10
1279.7182509316638
 20
158.98703090961186
 42
0
  0
VERTEX
  8
0
 10
1307.4360472573474
 20
192.62812988574714
 42
-0.22404870390892029
  0
VERTEX
  8
0
 10
1315.1538435830309
 20
196.26923076923103
 42
-0
  0
VERTEX
  8
0
 10
1355.1538435830309
 20
196.26923076923103
 42
-0
  0
VERTEX
  8
0
 10
1355.1538435830309
 20
96.269230769231029
 42
-0
  0
VERTEX
  8
0
 10
1315.1538435830309
 20
96.269230769231015
 42
-0.22404871881008148
  0
VERTEX
  8
0
 10
1307.4360472573474
 20
99.910328791691953
 42
0
  0
SEQEND
  0
POLYLINE
  8
0
 10
0
 20
0
 39
0
 70
1
 66
1
  0
VERTEX
  8
0
 10
1295.1538435830309
 20
161.269230769231
 42
1
  0
VERTEX
  8
0
 10
1295.1538435830309
 20
131.269230769231
 42
1
  0
SEQEND
  0
POLYLINE
  8
0
 10
0
 20
0
 39
0
 70
1
 66
1
  0
VERTEX
  8
0
 10
1397.2951740085869
 20
826.89758828970128
 42
-0.35889896750450134
  0
VERTEX
  8
0
 10
1397.2951740085869
 20
852.33318475576573
 42
0
  0
VERTEX
  8
0
 10
1425.0129703342704
 20
885.97428373190098
 42
-0.22404870390892029
  0
VERTEX
  8
0
 10
1432.730766659954
 20
889.61538461538487
 42
-0
  0
VERTEX
  8
0
 10
1472.730766659954
 20
889.61538461538487
 42
-0
  0
VERTEX
  8
0
 10
1472.730766659954
 20
789.61538461538487
 42
-0
  0
VERTEX
  8
0
 10
1432.730766659954
 20
789.61538461538487
 42
-0.22404871881008148
  0
VERTEX
  8
0
 10
1425.0129703342704
 20
793.25648263784581
 42
0
  0
SEQEND
  0
POLYLINE
  8
0
 10
0
 20
0
 39
0
 70
1
 66
1
  0
VERTEX
  8
0
 10
1412.730766659954
 20
854.61538461538487
 42
1
  0
VERTEX
  8
0
 10
1412.730766659954
 20
824.61538461538487
 42
1
  0
SEQEND
  0
POLYLINE
  8
0
 10
0
 20
0
 39
0
 70
1
 66
1
  0
VERTEX
  8
0
 10
1398.2182509316638
 20
657.62835752047056
 42
-0.35889896750450134
  0
VERTEX
  8
0
 10
1398.2182509316638
 20
683.06395398653501
 42
0
  0
VERTEX
  8
0
 10
1425.9360472573474
 20
716.70505296267027
 42
-0.22404870390892029
  0
VERTEX
  8
0
 10
1433.6538435830309
 20
720.34615384615415
 42
-0
  0
VERTEX
  8
0
 10
1473.6538435830309
 20
720.34615384615415
 42
-0
  0
VERTEX
  8
0
 10
1473.6538435830309
 20
620.34615384615415
 42
-0
  0
VERTEX
  8
0
 10
1433.6538435830309
 20
620.34615384615415
 42
-0.22404871881008148
  0
VERTEX
  8
0
 10
1425.9360472573474
 20
623.98725186861509
 42
0
  0
SEQEND
  0
POLYLINE
  8
0
 10
0
 20
0
 39
0
 70
1
 66
1
  0
VERTEX
  8
0
 10
1413.6538435830309
 20
685.34615384615415
 42
1
  0
VERTEX
  8
0
 10
1413.6538435830309
 20
655.34615384615415
 42
1
  0
SEQEND
  0
ENDSEC
  0
EOF
