  0
SECTION
  2
ENTITIES
  0
POLYLINE
  8
0
 10
0
 20
0
 39
0
 70
1
 66
1
  0
VERTEX
  8
0
 10
0
 20
0
 42
0
  0
VERTEX
  8
0
 10
1500
 20
0
 42
-0
  0
VERTEX
  8
0
 10
1500
 20
800
 42
-0
  0
VERTEX
  8
0
 10
4.8999998801318653e-014
 20
800
 42
-0
  0
SEQEND
  0
POLYLINE
  8
0
 10
0
 20
0
 39
0
 70
1
 66
1
  0
VERTEX
  8
0
 10
472.11717389906744
 20
202.39449678744171
 42
0
  0
VERTEX
  8
0
 10
360.21535121287206
 20
67.847181249512175
 42
0
  0
VERTEX
  8
0
 10
50.229773599756754
 20
10.249999839914778
 42
0
  0
VERTEX
  8
0
 10
10.249999839914835
 20
43.500827152384261
 42
0
  0
VERTEX
  8
0
 10
10.392330814255274
 20
358.79192023362015
 42
0
  0
VERTEX
  8
0
 10
122.29415350045065
 20
493.33923577154968
 42
0
  0
VERTEX
  8
0
 10
432.27973111356596
 20
550.93641718114714
 42
0
  0
VERTEX
  8
0
 10
472.25950487340788
 20
517.68558986867765
 42
0
  0
SEQEND
  0
POLYLINE
  8
0
 10
0
 20
0
 39
0
 70
1
 66
1
  0
VERTEX
  8
0
 10
119.76134486879209
 20
134.51326592649315
 42
1
  0
VERTEX
  8
0
 10
362.74815984453062
 20
426.67315109456871
 42
1
  0
SEQEND
  0
POLYLINE
  8
0
 10
0
 20
0
 39
0
 70
1
 66
1
  0
VERTEX
  8
0
 10
944.31717389906748
 20
202.39449678744171
 42
0
  0
VERTEX
  8
0
 10
832.41535121287211
 20
67.847181249512175
 42
0
  0
VERTEX
  8
0
 10
522.4297735997568
 20
10.249999839914778
 42
0
  0
VERTEX
  8
0
 10
482.44999983991488
 20
43.500827152384261
 42
0
  0
VERTEX
  8
0
 10
482.59233081425532
 20
358.79192023362015
 42
0
  0
VERTEX
  8
0
 10
594.49415350045069
 20
493.33923577154968
 42
0
  0
VERTEX
  8
0
 10
904.479731113566
 20
550.93641718114714
 42
0
  0
VERTEX
  8
0
 10
944.45950487340792
 20
517.68558986867765
 42
0
  0
SEQEND
  0
POLYLINE
  8
0
 10
0
 20
0
 39
0
 70
1
 66
1
  0
VERTEX
  8
0
 10
591.96134486879214
 20
134.51326592649315
 42
1
  0
VERTEX
  8
0
 10
834.94815984453066
 20
426.67315109456871
 42
1
  0
SEQEND
  0
POLYLINE
  8
0
 10
0
 20
0
 39
0
 70
1
 66
1
  0
VERTEX
  8
0
 10
1416.5171738990675
 20
202.39449678744171
 42
0
  0
VERTEX
  8
0
 10
1304.6153512128722
 20
67.847181249512175
 42
0
  0
VERTEX
  8
0
 10
994.62977359975685
 20
10.249999839914778
 42
0
  0
VERTEX
  8
0
 10
954.64999983991493
 20
43.500827152384261
 42
0
  0
VERTEX
  8
0
 10
954.79233081425537
 20
358.79192023362015
 42
0
  0
VERTEX
  8
0
 10
1066.6941535004507
 20
493.33923577154968
 42
0
  0
VERTEX
  8
0
 10
1376.679731113566
 20
550.93641718114714
 42
0
  0
VERTEX
  8
0
 10
1416.659504873408
 20
517.68558986867765
 42
0
  0
SEQEND
  0
POLYLINE
  8
0
 10
0
 20
0
 39
0
 70
1
 66
1
  0
VERTEX
  8
0
 10
1064.1613448687922
 20
134.51326592649315
 42
1
  0
VERTEX
  8
0
 10
1307.1481598445307
 20
426.67315109456871
 42
1
  0
SEQEND
  0
POLYLINE
  8
0
 10
0
 20
0
 39
0
 70
1
 66
1
  0
VERTEX
  8
0
 10
240.12448418266936
 20
457.94830404083109
 42
-1
  0
VERTEX
  8
0
 10
238.57550944281607
 20
102.95168958465433
 42
-1
  0
SEQEND
  0
POLYLINE
  8
0
 10
0
 20
0
 39
0
 70
1
 66
1
  0
VERTEX
  8
0
 10
240.00449318169481
 20
430.4485663012681
 42
1
  0
VERTEX
  8
0
 10
238.69550044379062
 20
130.45142732421732
 42
1
  0
SEQEND
  0
POLYLINE
  8
0
 10
0
 20
0
 39
0
 70
1
 66
1
  0
VERTEX
  8
0
 10
712.32448418266927
 20
457.34830404083107
 42
-1
  0
VERTEX
  8
0
 10
710.77550944281597
 20
102.35168958465431
 42
-1
  0
SEQEND
  0
POLYLINE
  8
0
 10
0
 20
0
 39
0
 70
1
 66
1
  0
VERTEX
  8
0
 10
712.20449318169472
 20
429.84856630126808
 42
1
  0
VERTEX
  8
0
 10
710.89550044379052
 20
129.8514273242173
 42
1
  0
SEQEND
  0
POLYLINE
  8
0
 10
0
 20
0
 39
0
 70
1
 66
1
  0
VERTEX
  8
0
 10
1184.5244841826693
 20
457.34830404083107
 42
-1
  0
VERTEX
  8
0
 10
1182.975509442816
 20
102.35168958465431
 42
-1
  0
SEQEND
  0
POLYLINE
  8
0
 10
0
 20
0
 39
0
 70
1
 66
1
  0
VERTEX
  8
0
 10
1184.4044931816948
 20
429.84856630126808
 42
1
  0
VERTEX
  8
0
 10
1183.0955004437906
 20
129.8514273242173
 42
1
  0
SEQEND
  0
POLYLINE
  8
0
 10
0
 20
0
 39
0
 70
1
 66
1
  0
VERTEX
  8
0
 10
176.59868621826172
 20
514.09999999999991
 42
-0
  0
VERTEX
  8
0
 10
56.033355712890625
 20
514.09999999999991
 42
-0.13510085642337799
  0
VERTEX
  8
0
 10
10.25
 20
559.88334808349612
 42
0
  0
VERTEX
  8
0
 10
10.25
 20
680.44867858886721
 42
-0.13510085642337799
  0
VERTEX
  8
0
 10
56.033355712890625
 20
726.23203430175784
 42
0
  0
VERTEX
  8
0
 10
176.59868621826172
 20
726.23203430175784
 42
-0.13510085642337799
  0
VERTEX
  8
0
 10
222.38203430175781
 20
680.44867858886721
 42
0
  0
VERTEX
  8
0
 10
222.38203430175787
 20
559.88334808349612
 42
-0.13510085642337799
  0
SEQEND
  0
POLYLINE
  8
0
 10
0
 20
0
 39
0
 70
1
 66
1
  0
VERTEX
  8
0
 10
191.31601715087891
 20
620.16601715087893
 42
1
  0
VERTEX
  8
0
 10
41.316009521484375
 20
620.16601715087893
 42
1
  0
SEQEND
  0
POLYLINE
  8
0
 10
0
 20
0
 39
0
 70
1
 66
1
  0
VERTEX
  8
0
 10
163.81601715087891
 20
704.16602478027346
 42
-0
  0
VERTEX
  8
0
 10
163.81601715087891
 20
719.16602478027346
 42
-0
  0
VERTEX
  8
0
 10
68.816009521484375
 20
719.16602478027346
 42
-0
  0
VERTEX
  8
0
 10
68.816009521484375
 20
704.16602478027346
 42
0
  0
SEQEND
  0
POLYLINE
  8
0
 10
0
 20
0
 39
0
 70
1
 66
1
  0
VERTEX
  8
0
 10
279.79868621826171
 20
174.5
 42
-0
  0
VERTEX
  8
0
 10
159.23335571289061
 20
174.5
 42
-0.13510085642337799
  0
VERTEX
  8
0
 10
113.44999999999999
 20
220.28334808349615
 42
0
  0
VERTEX
  8
0
 10
113.44999999999999
 20
340.84867858886724
 42
-0.13510085642337799
  0
VERTEX
  8
0
 10
159.23335571289061
 20
386.63203430175787
 42
0
  0
VERTEX
  8
0
 10
279.79868621826171
 20
386.63203430175787
 42
-0.13510085642337799
  0
VERTEX
  8
0
 10
325.5820343017578
 20
340.84867858886724
 42
0
  0
VERTEX
  8
0
 10
325.58203430175786
 20
220.28334808349615
 42
-0.13510085642337799
  0
SEQEND
  0
POLYLINE
  8
0
 10
0
 20
0
 39
0
 70
1
 66
1
  0
VERTEX
  8
0
 10
294.51601715087889
 20
280.56601715087896
 42
1
  0
VERTEX
  8
0
 10
144.51600952148436
 20
280.56601715087896
 42
1
  0
SEQEND
  0
POLYLINE
  8
0
 10
0
 20
0
 39
0
 70
1
 66
1
  0
VERTEX
  8
0
 10
267.01601715087889
 20
364.56602478027349
 42
-0
  0
VERTEX
  8
0
 10
267.01601715087889
 20
379.56602478027349
 42
-0
  0
VERTEX
  8
0
 10
172.01600952148436
 20
379.56602478027349
 42
-0
  0
VERTEX
  8
0
 10
172.01600952148436
 20
364.56602478027349
 42
0
  0
SEQEND
  0
POLYLINE
  8
0
 10
0
 20
0
 39
0
 70
1
 66
1
  0
VERTEX
  8
0
 10
398.89868621826167
 20
555.35000000000014
 42
-0
  0
VERTEX
  8
0
 10
278.33335571289058
 20
555.35000000000002
 42
-0.13510085642337799
  0
VERTEX
  8
0
 10
232.54999999999995
 20
601.13334808349623
 42
0
  0
VERTEX
  8
0
 10
232.54999999999995
 20
721.69867858886732
 42
-0.13510085642337799
  0
VERTEX
  8
0
 10
278.33335571289058
 20
767.48203430175795
 42
0
  0
VERTEX
  8
0
 10
398.89868621826167
 20
767.48203430175795
 42
-0.13510085642337799
  0
VERTEX
  8
0
 10
444.68203430175777
 20
721.69867858886732
 42
0
  0
VERTEX
  8
0
 10
444.68203430175782
 20
601.13334808349623
 42
-0.13510085642337799
  0
SEQEND
  0
POLYLINE
  8
0
 10
0
 20
0
 39
0
 70
1
 66
1
  0
VERTEX
  8
0
 10
413.61601715087886
 20
661.41601715087904
 42
1
  0
VERTEX
  8
0
 10
263.61600952148433
 20
661.41601715087904
 42
1
  0
SEQEND
  0
POLYLINE
  8
0
 10
0
 20
0
 39
0
 70
1
 66
1
  0
VERTEX
  8
0
 10
386.11601715087886
 20
745.41602478027357
 42
-0
  0
VERTEX
  8
0
 10
386.11601715087886
 20
760.41602478027357
 42
-0
  0
VERTEX
  8
0
 10
291.11600952148433
 20
760.41602478027357
 42
-0
  0
VERTEX
  8
0
 10
291.11600952148433
 20
745.41602478027357
 42
0
  0
SEQEND
  0
POLYLINE
  8
0
 10
0
 20
0
 39
0
 70
1
 66
1
  0
VERTEX
  8
0
 10
621.19868621826163
 20
510.04999999999995
 42
-0
  0
VERTEX
  8
0
 10
500.63335571289053
 20
510.04999999999995
 42
-0.13510085642337799
  0
VERTEX
  8
0
 10
454.84999999999991
 20
555.83334808349605
 42
0
  0
VERTEX
  8
0
 10
454.84999999999991
 20
676.39867858886714
 42
-0.13510085642337799
  0
VERTEX
  8
0
 10
500.63335571289053
 20
722.18203430175777
 42
0
  0
VERTEX
  8
0
 10
621.19868621826163
 20
722.18203430175777
 42
-0.13510085642337799
  0
VERTEX
  8
0
 10
666.98203430175772
 20
676.39867858886714
 42
0
  0
VERTEX
  8
0
 10
666.98203430175772
 20
555.83334808349605
 42
-0.13510085642337799
  0
SEQEND
  0
POLYLINE
  8
0
 10
0
 20
0
 39
0
 70
1
 66
1
  0
VERTEX
  8
0
 10
635.91601715087882
 20
616.11601715087886
 42
1
  0
VERTEX
  8
0
 10
485.91600952148428
 20
616.11601715087886
 42
1
  0
SEQEND
  0
POLYLINE
  8
0
 10
0
 20
0
 39
0
 70
1
 66
1
  0
VERTEX
  8
0
 10
608.41601715087882
 20
700.11602478027339
 42
-0
  0
VERTEX
  8
0
 10
608.41601715087882
 20
715.11602478027339
 42
-0
  0
VERTEX
  8
0
 10
513.41600952148428
 20
715.11602478027339
 42
-0
  0
VERTEX
  8
0
 10
513.41600952148428
 20
700.11602478027339
 42
0
  0
SEQEND
  0
POLYLINE
  8
0
 10
0
 20
0
 39
0
 70
1
 66
1
  0
VERTEX
  8
0
 10
751.9986862182617
 20
173.90000000000003
 42
-0
  0
VERTEX
  8
0
 10
631.4333557128906
 20
173.90000000000003
 42
-0.13510085642337799
  0
VERTEX
  8
0
 10
585.64999999999998
 20
219.68334808349618
 42
0
  0
VERTEX
  8
0
 10
585.64999999999998
 20
340.24867858886728
 42
-0.13510085642337799
  0
VERTEX
  8
0
 10
631.4333557128906
 20
386.0320343017579
 42
0
  0
VERTEX
  8
0
 10
751.9986862182617
 20
386.0320343017579
 42
-0.13510085642337799
  0
VERTEX
  8
0
 10
797.78203430175779
 20
340.24867858886728
 42
0
  0
VERTEX
  8
0
 10
797.78203430175779
 20
219.68334808349618
 42
-0.13510085642337799
  0
SEQEND
  0
POLYLINE
  8
0
 10
0
 20
0
 39
0
 70
1
 66
1
  0
VERTEX
  8
0
 10
766.71601715087888
 20
279.966017150879
 42
1
  0
VERTEX
  8
0
 10
616.71600952148435
 20
279.966017150879
 42
1
  0
SEQEND
  0
POLYLINE
  8
0
 10
0
 20
0
 39
0
 70
1
 66
1
  0
VERTEX
  8
0
 10
739.21601715087888
 20
363.96602478027353
 42
-0
  0
VERTEX
  8
0
 10
739.21601715087888
 20
378.96602478027353
 42
-0
  0
VERTEX
  8
0
 10
644.21600952148435
 20
378.96602478027353
 42
-0
  0
VERTEX
  8
0
 10
644.21600952148435
 20
363.96602478027353
 42
0
  0
SEQEND
  0
POLYLINE
  8
0
 10
0
 20
0
 39
0
 70
1
 66
1
  0
VERTEX
  8
0
 10
843.4986862182617
 20
550.25
 42
-0
  0
VERTEX
  8
0
 10
722.9333557128906
 20
550.25
 42
-0.13510085642337799
  0
VERTEX
  8
0
 10
677.14999999999998
 20
596.03334808349621
 42
0
  0
VERTEX
  8
0
 10
677.14999999999998
 20
716.5986785888673
 42
-0.13510085642337799
  0
VERTEX
  8
0
 10
722.9333557128906
 20
762.38203430175793
 42
0
  0
VERTEX
  8
0
 10
843.4986862182617
 20
762.38203430175793
 42
-0.13510085642337799
  0
VERTEX
  8
0
 10
889.28203430175779
 20
716.5986785888673
 42
0
  0
VERTEX
  8
0
 10
889.28203430175779
 20
596.03334808349621
 42
-0.13510085642337799
  0
SEQEND
  0
POLYLINE
  8
0
 10
0
 20
0
 39
0
 70
1
 66
1
  0
VERTEX
  8
0
 10
858.21601715087888
 20
656.31601715087902
 42
1
  0
VERTEX
  8
0
 10
708.21600952148435
 20
656.31601715087902
 42
1
  0
SEQEND
  0
POLYLINE
  8
0
 10
0
 20
0
 39
0
 70
1
 66
1
  0
VERTEX
  8
0
 10
830.71601715087888
 20
740.31602478027355
 42
-0
  0
VERTEX
  8
0
 10
830.71601715087888
 20
755.31602478027355
 42
-0
  0
VERTEX
  8
0
 10
735.71600952148435
 20
755.31602478027355
 42
-0
  0
VERTEX
  8
0
 10
735.71600952148435
 20
740.31602478027355
 42
0
  0
SEQEND
  0
POLYLINE
  8
0
 10
0
 20
0
 39
0
 70
1
 66
1
  0
VERTEX
  8
0
 10
1065.7986862182615
 20
533.15000000000009
 42
-0
  0
VERTEX
  8
0
 10
945.23335571289044
 20
533.14999999999998
 42
-0.13510085642337799
  0
VERTEX
  8
0
 10
899.44999999999982
 20
578.93334808349618
 42
0
  0
VERTEX
  8
0
 10
899.44999999999982
 20
699.49867858886728
 42
-0.13510085642337799
  0
VERTEX
  8
0
 10
945.23335571289044
 20
745.2820343017579
 42
0
  0
VERTEX
  8
0
 10
1065.7986862182615
 20
745.2820343017579
 42
-0.13510085642337799
  0
VERTEX
  8
0
 10
1111.5820343017576
 20
699.49867858886728
 42
0
  0
VERTEX
  8
0
 10
1111.5820343017576
 20
578.93334808349618
 42
-0.13510085642337799
  0
SEQEND
  0
POLYLINE
  8
0
 10
0
 20
0
 39
0
 70
1
 66
1
  0
VERTEX
  8
0
 10
1080.5160171508787
 20
639.216017150879
 42
1
  0
VERTEX
  8
0
 10
930.51600952148419
 20
639.216017150879
 42
1
  0
SEQEND
  0
POLYLINE
  8
0
 10
0
 20
0
 39
0
 70
1
 66
1
  0
VERTEX
  8
0
 10
1053.0160171508787
 20
723.21602478027353
 42
-0
  0
VERTEX
  8
0
 10
1053.0160171508787
 20
738.21602478027353
 42
-0
  0
VERTEX
  8
0
 10
958.01600952148419
 20
738.21602478027353
 42
-0
  0
VERTEX
  8
0
 10
958.01600952148419
 20
723.21602478027353
 42
0
  0
SEQEND
  0
POLYLINE
  8
0
 10
0
 20
0
 39
0
 70
1
 66
1
  0
VERTEX
  8
0
 10
1224.1986862182616
 20
173.90000000000003
 42
-0
  0
VERTEX
  8
0
 10
1103.6333557128905
 20
173.90000000000003
 42
-0.13510085642337799
  0
VERTEX
  8
0
 10
1057.8499999999999
 20
219.68334808349618
 42
0
  0
VERTEX
  8
0
 10
1057.8499999999999
 20
340.24867858886728
 42
-0.13510085642337799
  0
VERTEX
  8
0
 10
1103.6333557128905
 20
386.0320343017579
 42
0
  0
VERTEX
  8
0
 10
1224.1986862182616
 20
386.0320343017579
 42
-0.13510085642337799
  0
VERTEX
  8
0
 10
1269.9820343017577
 20
340.24867858886728
 42
0
  0
VERTEX
  8
0
 10
1269.9820343017577
 20
219.68334808349618
 42
-0.13510085642337799
  0
SEQEND
  0
POLYLINE
  8
0
 10
0
 20
0
 39
0
 70
1
 66
1
  0
VERTEX
  8
0
 10
1238.9160171508788
 20
279.966017150879
 42
1
  0
VERTEX
  8
0
 10
1088.9160095214843
 20
279.966017150879
 42
1
  0
SEQEND
  0
POLYLINE
  8
0
 10
0
 20
0
 39
0
 70
1
 66
1
  0
VERTEX
  8
0
 10
1211.4160171508788
 20
363.96602478027353
 42
-0
  0
VERTEX
  8
0
 10
1211.4160171508788
 20
378.96602478027353
 42
-0
  0
VERTEX
  8
0
 10
1116.4160095214843
 20
378.96602478027353
 42
-0
  0
VERTEX
  8
0
 10
1116.4160095214843
 20
363.96602478027353
 42
0
  0
SEQEND
  0
POLYLINE
  8
0
 10
0
 20
0
 39
0
 70
1
 66
1
  0
VERTEX
  8
0
 10
1288.0986862182617
 20
545.15000000000009
 42
-0
  0
VERTEX
  8
0
 10
1167.5333557128906
 20
545.14999999999998
 42
-0.13510085642337799
  0
VERTEX
  8
0
 10
1121.75
 20
590.93334808349618
 42
0
  0
VERTEX
  8
0
 10
1121.75
 20
711.49867858886728
 42
-0.13510085642337799
  0
VERTEX
  8
0
 10
1167.5333557128906
 20
757.2820343017579
 42
0
  0
VERTEX
  8
0
 10
1288.0986862182617
 20
757.2820343017579
 42
-0.13510085642337799
  0
VERTEX
  8
0
 10
1333.8820343017578
 20
711.49867858886728
 42
0
  0
VERTEX
  8
0
 10
1333.8820343017578
 20
590.93334808349618
 42
-0.13510085642337799
  0
SEQEND
  0
POLYLINE
  8
0
 10
0
 20
0
 39
0
 70
1
 66
1
  0
VERTEX
  8
0
 10
1302.8160171508789
 20
651.216017150879
 42
1
  0
VERTEX
  8
0
 10
1152.8160095214844
 20
651.216017150879
 42
1
  0
SEQEND
  0
POLYLINE
  8
0
 10
0
 20
0
 39
0
 70
1
 66
1
  0
VERTEX
  8
0
 10
1275.3160171508789
 20
735.21602478027353
 42
-0
  0
VERTEX
  8
0
 10
1275.3160171508789
 20
750.21602478027353
 42
-0
  0
VERTEX
  8
0
 10
1180.3160095214844
 20
750.21602478027353
 42
-0
  0
VERTEX
  8
0
 10
1180.3160095214844
 20
735.21602478027353
 42
0
  0
SEQEND
  0
POLYLINE
  8
0
 10
0
 20
0
 39
0
 70
1
 66
1
  0
VERTEX
  8
0
 10
159.94999999999999
 20
575.14999999999998
 42
-0
  0
VERTEX
  8
0
 10
69.949999999999989
 20
575.14999999999998
 42
-0
  0
VERTEX
  8
0
 10
69.949999999999989
 20
665.14999999999998
 42
-0
  0
VERTEX
  8
0
 10
159.94999999999999
 20
665.14999999999998
 42
0
  0
SEQEND
  0
POLYLINE
  8
0
 10
0
 20
0
 39
0
 70
1
 66
1
  0
VERTEX
  8
0
 10
132.94999999999999
 20
620.14999999999998
 42
1
  0
VERTEX
  8
0
 10
96.949999999999989
 20
620.14999999999998
 42
1
  0
SEQEND
  0
POLYLINE
  8
0
 10
0
 20
0
 39
0
 70
1
 66
1
  0
VERTEX
  8
0
 10
263.14999999999998
 20
235.54999999999998
 42
-0
  0
VERTEX
  8
0
 10
173.14999999999998
 20
235.54999999999998
 42
-0
  0
VERTEX
  8
0
 10
173.14999999999998
 20
325.54999999999995
 42
-0
  0
VERTEX
  8
0
 10
263.14999999999998
 20
325.54999999999995
 42
0
  0
SEQEND
  0
POLYLINE
  8
0
 10
0
 20
0
 39
0
 70
1
 66
1
  0
VERTEX
  8
0
 10
236.14999999999998
 20
280.54999999999995
 42
1
  0
VERTEX
  8
0
 10
200.14999999999998
 20
280.54999999999995
 42
1
  0
SEQEND
  0
POLYLINE
  8
0
 10
0
 20
0
 39
0
 70
1
 66
1
  0
VERTEX
  8
0
 10
382.25
 20
616.39999999999998
 42
-0
  0
VERTEX
  8
0
 10
292.25
 20
616.39999999999998
 42
-0
  0
VERTEX
  8
0
 10
292.25
 20
706.39999999999998
 42
-0
  0
VERTEX
  8
0
 10
382.25
 20
706.39999999999998
 42
0
  0
SEQEND
  0
POLYLINE
  8
0
 10
0
 20
0
 39
0
 70
1
 66
1
  0
VERTEX
  8
0
 10
355.25
 20
661.39999999999998
 42
1
  0
VERTEX
  8
0
 10
319.25
 20
661.39999999999998
 42
1
  0
SEQEND
  0
POLYLINE
  8
0
 10
0
 20
0
 39
0
 70
1
 66
1
  0
VERTEX
  8
0
 10
604.54999999999995
 20
571.10000000000002
 42
-0
  0
VERTEX
  8
0
 10
514.54999999999995
 20
571.10000000000002
 42
-0
  0
VERTEX
  8
0
 10
514.54999999999995
 20
661.10000000000002
 42
-0
  0
VERTEX
  8
0
 10
604.54999999999995
 20
661.10000000000002
 42
0
  0
SEQEND
  0
POLYLINE
  8
0
 10
0
 20
0
 39
0
 70
1
 66
1
  0
VERTEX
  8
0
 10
577.54999999999995
 20
616.10000000000002
 42
1
  0
VERTEX
  8
0
 10
541.54999999999995
 20
616.10000000000002
 42
1
  0
SEQEND
  0
POLYLINE
  8
0
 10
0
 20
0
 39
0
 70
1
 66
1
  0
VERTEX
  8
0
 10
735.35000000000002
 20
234.94999999999999
 42
-0
  0
VERTEX
  8
0
 10
645.35000000000002
 20
234.94999999999999
 42
-0
  0
VERTEX
  8
0
 10
645.35000000000002
 20
324.94999999999999
 42
-0
  0
VERTEX
  8
0
 10
735.35000000000002
 20
324.94999999999999
 42
0
  0
SEQEND
  0
POLYLINE
  8
0
 10
0
 20
0
 39
0
 70
1
 66
1
  0
VERTEX
  8
0
 10
708.35000000000002
 20
279.94999999999999
 42
1
  0
VERTEX
  8
0
 10
672.35000000000002
 20
279.94999999999999
 42
1
  0
SEQEND
  0
POLYLINE
  8
0
 10
0
 20
0
 39
0
 70
1
 66
1
  0
VERTEX
  8
0
 10
826.85000000000002
 20
611.29999999999995
 42
-0
  0
VERTEX
  8
0
 10
736.85000000000002
 20
611.29999999999995
 42
-0
  0
VERTEX
  8
0
 10
736.85000000000002
 20
701.29999999999995
 42
-0
  0
VERTEX
  8
0
 10
826.85000000000002
 20
701.29999999999995
 42
0
  0
SEQEND
  0
POLYLINE
  8
0
 10
0
 20
0
 39
0
 70
1
 66
1
  0
VERTEX
  8
0
 10
799.85000000000002
 20
656.29999999999995
 42
1
  0
VERTEX
  8
0
 10
763.85000000000002
 20
656.29999999999995
 42
1
  0
SEQEND
  0
POLYLINE
  8
0
 10
0
 20
0
 39
0
 70
1
 66
1
  0
VERTEX
  8
0
 10
1049.1500000000001
 20
594.19999999999993
 42
-0
  0
VERTEX
  8
0
 10
959.15000000000009
 20
594.19999999999993
 42
-0
  0
VERTEX
  8
0
 10
959.15000000000009
 20
684.19999999999993
 42
-0
  0
VERTEX
  8
0
 10
1049.1500000000001
 20
684.19999999999993
 42
0
  0
SEQEND
  0
POLYLINE
  8
0
 10
0
 20
0
 39
0
 70
1
 66
1
  0
VERTEX
  8
0
 10
1022.1500000000001
 20
639.19999999999993
 42
1
  0
VERTEX
  8
0
 10
986.15000000000009
 20
639.19999999999993
 42
1
  0
SEQEND
  0
POLYLINE
  8
0
 10
0
 20
0
 39
0
 70
1
 66
1
  0
VERTEX
  8
0
 10
1207.55
 20
234.94999999999999
 42
-0
  0
VERTEX
  8
0
 10
1117.55
 20
234.94999999999999
 42
-0
  0
VERTEX
  8
0
 10
1117.55
 20
324.94999999999999
 42
-0
  0
VERTEX
  8
0
 10
1207.55
 20
324.94999999999999
 42
0
  0
SEQEND
  0
POLYLINE
  8
0
 10
0
 20
0
 39
0
 70
1
 66
1
  0
VERTEX
  8
0
 10
1180.55
 20
279.94999999999999
 42
1
  0
VERTEX
  8
0
 10
1144.55
 20
279.94999999999999
 42
1
  0
SEQEND
  0
POLYLINE
  8
0
 10
0
 20
0
 39
0
 70
1
 66
1
  0
VERTEX
  8
0
 10
1271.45
 20
606.19999999999993
 42
-0
  0
VERTEX
  8
0
 10
1181.45
 20
606.19999999999993
 42
-0
  0
VERTEX
  8
0
 10
1181.45
 20
696.19999999999993
 42
-0
  0
VERTEX
  8
0
 10
1271.45
 20
696.19999999999993
 42
0
  0
SEQEND
  0
POLYLINE
  8
0
 10
0
 20
0
 39
0
 70
1
 66
1
  0
VERTEX
  8
0
 10
1244.45
 20
651.19999999999993
 42
1
  0
VERTEX
  8
0
 10
1208.45
 20
651.19999999999993
 42
1
  0
SEQEND
  0
POLYLINE
  8
0
 10
0
 20
0
 39
0
 70
1
 66
1
  0
VERTEX
  8
0
 10
1434.05
 20
561.04999999999995
 42
-0
  0
VERTEX
  8
0
 10
1344.05
 20
561.04999999999995
 42
-0
  0
VERTEX
  8
0
 10
1344.05
 20
651.04999999999995
 42
-0
  0
VERTEX
  8
0
 10
1434.05
 20
651.04999999999995
 42
0
  0
SEQEND
  0
POLYLINE
  8
0
 10
0
 20
0
 39
0
 70
1
 66
1
  0
VERTEX
  8
0
 10
1407.05
 20
606.04999999999995
 42
1
  0
VERTEX
  8
0
 10
1371.05
 20
606.04999999999995
 42
1
  0
SEQEND
  0
POLYLINE
  8
0
 10
0
 20
0
 39
0
 70
1
 66
1
  0
VERTEX
  8
0
 10
1434.05
 20
661.10000000000002
 42
-0
  0
VERTEX
  8
0
 10
1344.05
 20
661.10000000000002
 42
-0
  0
VERTEX
  8
0
 10
1344.05
 20
751.10000000000002
 42
-0
  0
VERTEX
  8
0
 10
1434.05
 20
751.10000000000002
 42
0
  0
SEQEND
  0
POLYLINE
  8
0
 10
0
 20
0
 39
0
 70
1
 66
1
  0
VERTEX
  8
0
 10
1407.05
 20
706.10000000000002
 42
1
  0
VERTEX
  8
0
 10
1371.05
 20
706.10000000000002
 42
1
  0
SEQEND
  0
POLYLINE
  8
0
 10
0
 20
0
 39
0
 70
1
 66
1
  0
VERTEX
  8
0
 10
1435.25
 20
10.25
 42
-0
  0
VERTEX
  8
0
 10
1345.25
 20
10.25
 42
-0
  0
VERTEX
  8
0
 10
1345.25
 20
100.25
 42
-0
  0
VERTEX
  8
0
 10
1435.25
 20
100.25
 42
0
  0
SEQEND
  0
POLYLINE
  8
0
 10
0
 20
0
 39
0
 70
1
 66
1
  0
VERTEX
  8
0
 10
1408.25
 20
55.25
 42
1
  0
VERTEX
  8
0
 10
1372.25
 20
55.25
 42
1
  0
SEQEND
  0
POLYLINE
  8
0
 10
0
 20
0
 39
0
 70
1
 66
1
  0
VERTEX
  8
0
 10
165.25
 20
736.25
 42
-0
  0
VERTEX
  8
0
 10
10.25
 20
736.25
 42
0
  0
VERTEX
  8
0
 10
10.25
 20
762.45387077331543
 42
-0
  0
VERTEX
  8
0
 10
34.046127319335937
 20
786.25
 42
0
  0
VERTEX
  8
0
 10
165.25
 20
786.25
 42
0
  0
SEQEND
  0
POLYLINE
  8
0
 10
0
 20
0
 39
0
 70
1
 66
1
  0
VERTEX
  8
0
 10
152.82605648040771
 20
761.25
 42
1
  0
VERTEX
  8
0
 10
124.82605743408203
 20
761.25
 42
1
  0
SEQEND
  0
POLYLINE
  8
0
 10
0
 20
0
 39
0
 70
1
 66
1
  0
VERTEX
  8
0
 10
600.39999999999998
 20
739.69999999999993
 42
-0
  0
VERTEX
  8
0
 10
445.39999999999998
 20
739.69999999999993
 42
0
  0
VERTEX
  8
0
 10
445.39999999999998
 20
765.90387077331536
 42
-0
  0
VERTEX
  8
0
 10
469.19612731933591
 20
789.69999999999993
 42
0
  0
VERTEX
  8
0
 10
600.39999999999998
 20
789.69999999999993
 42
0
  0
SEQEND
  0
POLYLINE
  8
0
 10
0
 20
0
 39
0
 70
1
 66
1
  0
VERTEX
  8
0
 10
587.97605648040769
 20
764.69999999999993
 42
1
  0
VERTEX
  8
0
 10
559.97605743408201
 20
764.69999999999993
 42
1
  0
SEQEND
  0
POLYLINE
  8
0
 10
0
 20
0
 39
0
 70
1
 66
1
  0
VERTEX
  8
0
 10
1476.7
 20
254.64999999999998
 42
-0
  0
VERTEX
  8
0
 10
1476.7
 20
99.649999999999977
 42
0
  0
VERTEX
  8
0
 10
1450.4961292266846
 20
99.649999999999977
 42
-0
  0
VERTEX
  8
0
 10
1426.7
 20
123.44612731933591
 42
0
  0
VERTEX
  8
0
 10
1426.7
 20
254.64999999999998
 42
0
  0
SEQEND
  0
POLYLINE
  8
0
 10
0
 20
0
 39
0
 70
1
 66
1
  0
VERTEX
  8
0
 10
1451.7
 20
242.22605648040769
 42
1
  0
VERTEX
  8
0
 10
1451.7
 20
214.22605743408201
 42
1
  0
SEQEND
  0
POLYLINE
  8
0
 10
0
 20
0
 39
0
 70
1
 66
1
  0
VERTEX
  8
0
 10
1426.8499999999999
 20
264.80000000000001
 42
-0
  0
VERTEX
  8
0
 10
1426.8499999999999
 20
419.80000000000001
 42
0
  0
VERTEX
  8
0
 10
1453.0538707733153
 20
419.80000000000001
 42
-0
  0
VERTEX
  8
0
 10
1476.8499999999999
 20
396.00387268066407
 42
0
  0
VERTEX
  8
0
 10
1476.8499999999999
 20
264.80000000000001
 42
0
  0
SEQEND
  0
POLYLINE
  8
0
 10
0
 20
0
 39
0
 70
1
 66
1
  0
VERTEX
  8
0
 10
1451.8499999999999
 20
277.2239435195923
 42
1
  0
VERTEX
  8
0
 10
1451.8499999999999
 20
305.22394256591798
 42
1
  0
SEQEND
  0
POLYLINE
  8
0
 10
0
 20
0
 39
0
 70
1
 66
1
  0
VERTEX
  8
0
 10
423.55000000000001
 20
10.25
 42
-0
  0
VERTEX
  8
0
 10
268.55000000000001
 20
10.25
 42
0
  0
VERTEX
  8
0
 10
268.55000000000001
 20
15.25
 42
1
  0
VERTEX
  8
0
 10
268.55000000000001
 20
35.25
 42
0
  0
VERTEX
  8
0
 10
268.55000000000001
 20
40.25
 42
0
  0
VERTEX
  8
0
 10
423.55000000000001
 20
40.25
 42
0
  0
SEQEND
  0
POLYLINE
  8
0
 10
0
 20
0
 39
0
 70
1
 66
1
  0
VERTEX
  8
0
 10
406.9676368713379
 20
25.25
 42
1
  0
VERTEX
  8
0
 10
386.9676368713379
 20
25.25
 42
1
  0
SEQEND
  0
POLYLINE
  8
0
 10
0
 20
0
 39
0
 70
1
 66
1
  0
VERTEX
  8
0
 10
895.75
 20
10.25
 42
-0
  0
VERTEX
  8
0
 10
740.75
 20
10.25
 42
0
  0
VERTEX
  8
0
 10
740.75
 20
15.25
 42
1
  0
VERTEX
  8
0
 10
740.75
 20
35.25
 42
0
  0
VERTEX
  8
0
 10
740.75
 20
40.25
 42
0
  0
VERTEX
  8
0
 10
895.75
 20
40.25
 42
0
  0
SEQEND
  0
POLYLINE
  8
0
 10
0
 20
0
 39
0
 70
1
 66
1
  0
VERTEX
  8
0
 10
879.16763687133789
 20
25.25
 42
1
  0
VERTEX
  8
0
 10
859.16763687133789
 20
25.25
 42
1
  0
SEQEND
  0
POLYLINE
  8
0
 10
0
 20
0
 39
0
 70
1
 66
1
  0
VERTEX
  8
0
 10
1020.8499999999999
 20
759.79999999999995
 42
-0
  0
VERTEX
  8
0
 10
865.84999999999991
 20
759.79999999999995
 42
0
  0
VERTEX
  8
0
 10
865.84999999999991
 20
764.79999999999995
 42
1
  0
VERTEX
  8
0
 10
865.84999999999991
 20
784.79999999999995
 42
0
  0
VERTEX
  8
0
 10
865.84999999999991
 20
789.79999999999995
 42
0
  0
VERTEX
  8
0
 10
1020.8499999999999
 20
789.79999999999995
 42
0
  0
SEQEND
  0
POLYLINE
  8
0
 10
0
 20
0
 39
0
 70
1
 66
1
  0
VERTEX
  8
0
 10
1004.2676368713378
 20
774.79999999999995
 42
1
  0
VERTEX
  8
0
 10
984.2676368713378
 20
774.79999999999995
 42
1
  0
SEQEND
  0
POLYLINE
  8
0
 10
0
 20
0
 39
0
 70
1
 66
1
  0
VERTEX
  8
0
 10
1444.25
 20
429.94999999999999
 42
-0
  0
VERTEX
  8
0
 10
1444.25
 20
584.95000000000005
 42
0
  0
VERTEX
  8
0
 10
1449.25
 20
584.95000000000005
 42
1
  0
VERTEX
  8
0
 10
1469.25
 20
584.95000000000005
 42
0
  0
VERTEX
  8
0
 10
1474.25
 20
584.95000000000005
 42
0
  0
VERTEX
  8
0
 10
1474.25
 20
429.94999999999999
 42
0
  0
SEQEND
  0
POLYLINE
  8
0
 10
0
 20
0
 39
0
 70
1
 66
1
  0
VERTEX
  8
0
 10
1459.25
 20
446.5323631286621
 42
1
  0
VERTEX
  8
0
 10
1459.25
 20
466.5323631286621
 42
1
  0
SEQEND
  0
POLYLINE
  8
0
 10
0
 20
0
 39
0
 70
1
 66
1
  0
VERTEX
  8
0
 10
1444.25
 20
595.10000000000002
 42
-0
  0
VERTEX
  8
0
 10
1444.25
 20
750.10000000000002
 42
0
  0
VERTEX
  8
0
 10
1449.25
 20
750.10000000000002
 42
1
  0
VERTEX
  8
0
 10
1469.25
 20
750.10000000000002
 42
0
  0
VERTEX
  8
0
 10
1474.25
 20
750.10000000000002
 42
0
  0
VERTEX
  8
0
 10
1474.25
 20
595.10000000000002
 42
0
  0
SEQEND
  0
POLYLINE
  8
0
 10
0
 20
0
 39
0
 70
1
 66
1
  0
VERTEX
  8
0
 10
1459.25
 20
611.68236312866213
 42
1
  0
VERTEX
  8
0
 10
1459.25
 20
631.68236312866213
 42
1
  0
SEQEND
  0
ENDSEC
  0
EOF
