  0
SECTION
  2
ENTITIES
  0
POLYLINE
  8
0
 10
0
 20
0
 39
0
 70
1
 66
1
  0
VERTEX
  8
0
 10
0
 20
0
 42
-0
  0
VERTEX
  8
0
 10
1700
 20
0
 42
-0
  0
VERTEX
  8
0
 10
1700
 20
900
 42
-0
  0
VERTEX
  8
0
 10
0
 20
900
 42
-0
  0
SEQEND
  0
POLYLINE
  8
0
 10
0
 20
0
 39
0
 70
1
 66
1
  0
VERTEX
  8
0
 10
175.95071411132812
 20
340.22918701171875
 42
1
  0
VERTEX
  8
0
 10
174.51081848144531
 20
10.232339859008789
 42
1
  0
SEQEND
  0
POLYLINE
  8
0
 10
0
 20
0
 39
0
 70
1
 66
1
  0
VERTEX
  8
0
 10
175.77618408203125
 20
300.22958374023437
 42
-1
  0
VERTEX
  8
0
 10
174.68534851074219
 20
50.231956481933594
 42
-1
  0
SEQEND
  0
POLYLINE
  8
0
 10
0
 20
0
 39
0
 70
1
 66
1
  0
VERTEX
  8
0
 10
175.95071411132812
 20
680.22918701171875
 42
1
  0
VERTEX
  8
0
 10
174.51081848144531
 20
350.23233032226562
 42
1
  0
SEQEND
  0
POLYLINE
  8
0
 10
0
 20
0
 39
0
 70
1
 66
1
  0
VERTEX
  8
0
 10
175.77618408203125
 20
640.22955322265625
 42
-1
  0
VERTEX
  8
0
 10
174.68534851074219
 20
390.23196411132812
 42
-1
  0
SEQEND
  0
POLYLINE
  8
0
 10
0
 20
0
 39
0
 70
1
 66
1
  0
VERTEX
  8
0
 10
444.15841674804688
 20
889.852294921875
 42
1
  0
VERTEX
  8
0
 10
442.718505859375
 20
559.85540771484375
 42
1
  0
SEQEND
  0
POLYLINE
  8
0
 10
0
 20
0
 39
0
 70
1
 66
1
  0
VERTEX
  8
0
 10
443.98388671875
 20
849.8526611328125
 42
-1
  0
VERTEX
  8
0
 10
442.89303588867187
 20
599.85504150390625
 42
-1
  0
SEQEND
  0
POLYLINE
  8
0
 10
0
 20
0
 39
0
 70
1
 66
1
  0
VERTEX
  8
0
 10
628.4000244140625
 20
202.59230041503906
 42
0
  0
VERTEX
  8
0
 10
628.4000244140625
 20
487.59231567382812
 42
0
  0
VERTEX
  8
0
 10
348.39999389648437
 20
487.59231567382812
 42
0
  0
VERTEX
  8
0
 10
348.39999389648437
 20
202.59230041503906
 42
0
  0
SEQEND
  0
POLYLINE
  8
0
 10
0
 20
0
 39
0
 70
1
 66
1
  0
VERTEX
  8
0
 10
577.4000244140625
 20
439.09231567382812
 42
-0
  0
VERTEX
  8
0
 10
577.4000244140625
 20
251.09230041503906
 42
-0
  0
VERTEX
  8
0
 10
399.39999389648437
 20
251.09230041503906
 42
0
  0
VERTEX
  8
0
 10
399.39999389648437
 20
439.09231567382812
 42
0
  0
SEQEND
  0
POLYLINE
  8
0
 10
0
 20
0
 39
0
 70
1
 66
1
  0
VERTEX
  8
0
 10
898.5692138671875
 20
497.60769653320312
 42
0
  0
VERTEX
  8
0
 10
898.5692138671875
 20
782.607666015625
 42
0
  0
VERTEX
  8
0
 10
618.5692138671875
 20
782.607666015625
 42
0
  0
VERTEX
  8
0
 10
618.5692138671875
 20
497.60769653320312
 42
0
  0
SEQEND
  0
POLYLINE
  8
0
 10
0
 20
0
 39
0
 70
1
 66
1
  0
VERTEX
  8
0
 10
847.5692138671875
 20
734.107666015625
 42
-0
  0
VERTEX
  8
0
 10
847.5692138671875
 20
546.107666015625
 42
-0
  0
VERTEX
  8
0
 10
669.5692138671875
 20
546.107666015625
 42
0
  0
VERTEX
  8
0
 10
669.5692138671875
 20
734.107666015625
 42
0
  0
SEQEND
  0
POLYLINE
  8
0
 10
0
 20
0
 39
0
 70
1
 66
1
  0
VERTEX
  8
0
 10
918.576904296875
 20
10.230769157409668
 42
0
  0
VERTEX
  8
0
 10
918.576904296875
 20
295.23077392578125
 42
0
  0
VERTEX
  8
0
 10
638.576904296875
 20
295.23077392578125
 42
0
  0
VERTEX
  8
0
 10
638.576904296875
 20
10.230769157409668
 42
0
  0
SEQEND
  0
POLYLINE
  8
0
 10
0
 20
0
 39
0
 70
1
 66
1
  0
VERTEX
  8
0
 10
867.576904296875
 20
246.73077392578125
 42
-0
  0
VERTEX
  8
0
 10
867.576904296875
 20
58.730770111083984
 42
-0
  0
VERTEX
  8
0
 10
689.576904296875
 20
58.730770111083984
 42
0
  0
VERTEX
  8
0
 10
689.576904296875
 20
246.73077392578125
 42
0
  0
SEQEND
  0
POLYLINE
  8
0
 10
0
 20
0
 39
0
 70
1
 66
1
  0
VERTEX
  8
0
 10
1188.74609375
 20
305.24615478515625
 42
0
  0
VERTEX
  8
0
 10
1188.74609375
 20
590.24615478515625
 42
0
  0
VERTEX
  8
0
 10
908.74615478515625
 20
590.24615478515625
 42
0
  0
VERTEX
  8
0
 10
908.74615478515625
 20
305.24615478515625
 42
0
  0
SEQEND
  0
POLYLINE
  8
0
 10
0
 20
0
 39
0
 70
1
 66
1
  0
VERTEX
  8
0
 10
1137.74609375
 20
541.74615478515625
 42
-0
  0
VERTEX
  8
0
 10
1137.74609375
 20
353.74615478515625
 42
-0
  0
VERTEX
  8
0
 10
959.74615478515625
 20
353.74615478515625
 42
0
  0
VERTEX
  8
0
 10
959.74615478515625
 20
541.74615478515625
 42
0
  0
SEQEND
  0
POLYLINE
  8
0
 10
0
 20
0
 39
0
 70
1
 66
1
  0
VERTEX
  8
0
 10
1188.74609375
 20
600.26153564453125
 42
0
  0
VERTEX
  8
0
 10
1188.74609375
 20
885.26153564453125
 42
0
  0
VERTEX
  8
0
 10
908.74615478515625
 20
885.26153564453125
 42
0
  0
VERTEX
  8
0
 10
908.74615478515625
 20
600.26153564453125
 42
0
  0
SEQEND
  0
POLYLINE
  8
0
 10
0
 20
0
 39
0
 70
1
 66
1
  0
VERTEX
  8
0
 10
1137.74609375
 20
836.76153564453125
 42
-0
  0
VERTEX
  8
0
 10
1137.74609375
 20
648.76153564453125
 42
-0
  0
VERTEX
  8
0
 10
959.74615478515625
 20
648.76153564453125
 42
0
  0
VERTEX
  8
0
 10
959.74615478515625
 20
836.76153564453125
 42
0
  0
SEQEND
  0
POLYLINE
  8
0
 10
0
 20
0
 39
0
 70
1
 66
1
  0
VERTEX
  8
0
 10
1208.75390625
 20
10.230769157409668
 42
0
  0
VERTEX
  8
0
 10
1208.75390625
 20
295.23077392578125
 42
0
  0
VERTEX
  8
0
 10
928.75384521484375
 20
295.23077392578125
 42
0
  0
VERTEX
  8
0
 10
928.75384521484375
 20
10.230769157409668
 42
0
  0
SEQEND
  0
POLYLINE
  8
0
 10
0
 20
0
 39
0
 70
1
 66
1
  0
VERTEX
  8
0
 10
1157.75390625
 20
246.73077392578125
 42
-0
  0
VERTEX
  8
0
 10
1157.75390625
 20
58.730770111083984
 42
-0
  0
VERTEX
  8
0
 10
979.75384521484375
 20
58.730770111083984
 42
0
  0
VERTEX
  8
0
 10
979.75384521484375
 20
246.73077392578125
 42
0
  0
SEQEND
  0
POLYLINE
  8
0
 10
0
 20
0
 39
0
 70
1
 66
1
  0
VERTEX
  8
0
 10
1393.923095703125
 20
585.24615478515625
 42
0
  0
VERTEX
  8
0
 10
1198.923095703125
 20
585.24615478515625
 42
0
  0
VERTEX
  8
0
 10
1198.923095703125
 20
305.24615478515625
 42
0
  0
VERTEX
  8
0
 10
1393.923095703125
 20
305.24615478515625
 42
0
  0
SEQEND
  0
POLYLINE
  8
0
 10
0
 20
0
 39
0
 70
1
 66
1
  0
VERTEX
  8
0
 10
1298.923095703125
 20
482.34616088867187
 42
-1
  0
VERTEX
  8
0
 10
1298.923095703125
 20
544.4461669921875
 42
-1
  0
SEQEND
  0
POLYLINE
  8
0
 10
0
 20
0
 39
0
 70
1
 66
1
  0
VERTEX
  8
0
 10
1298.923095703125
 20
350.1961669921875
 42
-1
  0
VERTEX
  8
0
 10
1298.923095703125
 20
440.296142578125
 42
-1
  0
SEQEND
  0
POLYLINE
  8
0
 10
0
 20
0
 39
0
 70
1
 66
1
  0
VERTEX
  8
0
 10
1393.923095703125
 20
875.29229736328125
 42
0
  0
VERTEX
  8
0
 10
1198.923095703125
 20
875.29229736328125
 42
0
  0
VERTEX
  8
0
 10
1198.923095703125
 20
595.29229736328125
 42
0
  0
VERTEX
  8
0
 10
1393.923095703125
 20
595.29229736328125
 42
0
  0
SEQEND
  0
POLYLINE
  8
0
 10
0
 20
0
 39
0
 70
1
 66
1
  0
VERTEX
  8
0
 10
1298.923095703125
 20
772.392333984375
 42
-1
  0
VERTEX
  8
0
 10
1298.923095703125
 20
834.4923095703125
 42
-1
  0
SEQEND
  0
POLYLINE
  8
0
 10
0
 20
0
 39
0
 70
1
 66
1
  0
VERTEX
  8
0
 10
1298.923095703125
 20
640.2423095703125
 42
-1
  0
VERTEX
  8
0
 10
1298.923095703125
 20
730.34228515625
 42
-1
  0
SEQEND
  0
POLYLINE
  8
0
 10
0
 20
0
 39
0
 70
1
 66
1
  0
VERTEX
  8
0
 10
1413.9307861328125
 20
290.23077392578125
 42
0
  0
VERTEX
  8
0
 10
1218.9307861328125
 20
290.23077392578125
 42
0
  0
VERTEX
  8
0
 10
1218.9307861328125
 20
10.230769157409668
 42
0
  0
VERTEX
  8
0
 10
1413.9307861328125
 20
10.230769157409668
 42
0
  0
SEQEND
  0
POLYLINE
  8
0
 10
0
 20
0
 39
0
 70
1
 66
1
  0
VERTEX
  8
0
 10
1318.9307861328125
 20
187.33078002929687
 42
-1
  0
VERTEX
  8
0
 10
1318.9307861328125
 20
249.43077087402344
 42
-1
  0
SEQEND
  0
POLYLINE
  8
0
 10
0
 20
0
 39
0
 70
1
 66
1
  0
VERTEX
  8
0
 10
1318.9307861328125
 20
55.180770874023438
 42
-1
  0
VERTEX
  8
0
 10
1318.9307861328125
 20
145.28077697753906
 42
-1
  0
SEQEND
  0
POLYLINE
  8
0
 10
0
 20
0
 39
0
 70
1
 66
1
  0
VERTEX
  8
0
 10
1598.96923828125
 20
580.27691650390625
 42
0
  0
VERTEX
  8
0
 10
1403.96923828125
 20
580.27691650390625
 42
0
  0
VERTEX
  8
0
 10
1403.96923828125
 20
300.27691650390625
 42
0
  0
VERTEX
  8
0
 10
1598.96923828125
 20
300.27691650390625
 42
0
  0
SEQEND
  0
POLYLINE
  8
0
 10
0
 20
0
 39
0
 70
1
 66
1
  0
VERTEX
  8
0
 10
1503.96923828125
 20
477.37692260742187
 42
-1
  0
VERTEX
  8
0
 10
1503.96923828125
 20
539.4769287109375
 42
-1
  0
SEQEND
  0
POLYLINE
  8
0
 10
0
 20
0
 39
0
 70
1
 66
1
  0
VERTEX
  8
0
 10
1503.96923828125
 20
345.2269287109375
 42
-1
  0
VERTEX
  8
0
 10
1503.96923828125
 20
435.32693481445312
 42
-1
  0
SEQEND
  0
POLYLINE
  8
0
 10
0
 20
0
 39
0
 70
1
 66
1
  0
VERTEX
  8
0
 10
1598.96923828125
 20
870.32305908203125
 42
0
  0
VERTEX
  8
0
 10
1403.96923828125
 20
870.32305908203125
 42
0
  0
VERTEX
  8
0
 10
1403.96923828125
 20
590.32305908203125
 42
0
  0
VERTEX
  8
0
 10
1598.96923828125
 20
590.32305908203125
 42
0
  0
SEQEND
  0
POLYLINE
  8
0
 10
0
 20
0
 39
0
 70
1
 66
1
  0
VERTEX
  8
0
 10
1503.96923828125
 20
767.423095703125
 42
-1
  0
VERTEX
  8
0
 10
1503.96923828125
 20
829.5230712890625
 42
-1
  0
SEQEND
  0
POLYLINE
  8
0
 10
0
 20
0
 39
0
 70
1
 66
1
  0
VERTEX
  8
0
 10
1503.96923828125
 20
635.2730712890625
 42
-1
  0
VERTEX
  8
0
 10
1503.96923828125
 20
725.37310791015625
 42
-1
  0
SEQEND
  0
POLYLINE
  8
0
 10
0
 20
0
 39
0
 70
1
 66
1
  0
VERTEX
  8
0
 10
1618.9769287109375
 20
290.23077392578125
 42
0
  0
VERTEX
  8
0
 10
1423.9769287109375
 20
290.23077392578125
 42
0
  0
VERTEX
  8
0
 10
1423.9769287109375
 20
10.230769157409668
 42
0
  0
VERTEX
  8
0
 10
1618.9769287109375
 20
10.230769157409668
 42
0
  0
SEQEND
  0
POLYLINE
  8
0
 10
0
 20
0
 39
0
 70
1
 66
1
  0
VERTEX
  8
0
 10
1523.9769287109375
 20
187.33078002929687
 42
-1
  0
VERTEX
  8
0
 10
1523.9769287109375
 20
249.43077087402344
 42
-1
  0
SEQEND
  0
POLYLINE
  8
0
 10
0
 20
0
 39
0
 70
1
 66
1
  0
VERTEX
  8
0
 10
1523.9769287109375
 20
55.180770874023438
 42
-1
  0
VERTEX
  8
0
 10
1523.9769287109375
 20
145.28077697753906
 42
-1
  0
SEQEND
  0
POLYLINE
  8
0
 10
0
 20
0
 39
0
 70
1
 66
1
  0
VERTEX
  8
0
 10
385.90768432617187
 20
130.23077392578125
 42
1
  0
VERTEX
  8
0
 10
385.90768432617187
 20
10.230769157409668
 42
0
  0
VERTEX
  8
0
 10
585.90771484375
 20
10.230769157409668
 42
0
  0
VERTEX
  8
0
 10
615.90771484375
 20
40.230770111083984
 42
0
  0
VERTEX
  8
0
 10
615.90771484375
 20
100.23076629638672
 42
0
  0
VERTEX
  8
0
 10
585.90771484375
 20
130.23077392578125
 42
0
  0
SEQEND
  0
POLYLINE
  8
0
 10
0
 20
0
 39
0
 70
1
 66
1
  0
VERTEX
  8
0
 10
545.90771484375
 20
85.480766296386719
 42
-1
  0
VERTEX
  8
0
 10
545.90771484375
 20
54.980770111083984
 42
-1
  0
SEQEND
  0
POLYLINE
  8
0
 10
0
 20
0
 39
0
 70
1
 66
1
  0
VERTEX
  8
0
 10
385.90768432617187
 20
89.480766296386719
 42
-1
  0
VERTEX
  8
0
 10
385.90768432617187
 20
50.980770111083984
 42
-1
  0
SEQEND
  0
POLYLINE
  8
0
 10
0
 20
0
 39
0
 70
1
 66
1
  0
VERTEX
  8
0
 10
100.62346649169922
 20
859.899169921875
 42
1
  0
VERTEX
  8
0
 10
99.838066101074219
 20
679.90087890625
 42
1
  0
SEQEND
  0
POLYLINE
  8
0
 10
0
 20
0
 39
0
 70
1
 66
1
  0
VERTEX
  8
0
 10
100.29621887207031
 20
784.89984130859375
 42
-1
  0
VERTEX
  8
0
 10
100.16532135009766
 20
754.900146484375
 42
-1
  0
SEQEND
  0
POLYLINE
  8
0
 10
0
 20
0
 39
0
 70
1
 66
1
  0
VERTEX
  8
0
 10
240.57606506347656
 20
174.63807678222656
 42
1
  0
VERTEX
  8
0
 10
60.577777862548828
 20
175.4234619140625
 42
1
  0
SEQEND
  0
POLYLINE
  8
0
 10
0
 20
0
 39
0
 70
1
 66
1
  0
VERTEX
  8
0
 10
165.5767822265625
 20
174.96531677246094
 42
-1
  0
VERTEX
  8
0
 10
135.57705688476562
 20
175.09622192382812
 42
-1
  0
SEQEND
  0
POLYLINE
  8
0
 10
0
 20
0
 39
0
 70
1
 66
1
  0
VERTEX
  8
0
 10
240.57606506347656
 20
514.6380615234375
 42
1
  0
VERTEX
  8
0
 10
60.577777862548828
 20
515.4234619140625
 42
1
  0
SEQEND
  0
POLYLINE
  8
0
 10
0
 20
0
 39
0
 70
1
 66
1
  0
VERTEX
  8
0
 10
165.5767822265625
 20
514.96533203125
 42
-1
  0
VERTEX
  8
0
 10
135.57705688476562
 20
515.09619140625
 42
-1
  0
SEQEND
  0
POLYLINE
  8
0
 10
0
 20
0
 39
0
 70
1
 66
1
  0
VERTEX
  8
0
 10
508.78375244140625
 20
724.26116943359375
 42
1
  0
VERTEX
  8
0
 10
328.78546142578125
 20
725.04656982421875
 42
1
  0
SEQEND
  0
POLYLINE
  8
0
 10
0
 20
0
 39
0
 70
1
 66
1
  0
VERTEX
  8
0
 10
433.78448486328125
 20
724.58837890625
 42
-1
  0
VERTEX
  8
0
 10
403.78475952148437
 20
724.71929931640625
 42
-1
  0
SEQEND
  0
POLYLINE
  8
0
 10
0
 20
0
 39
0
 70
1
 66
1
  0
VERTEX
  8
0
 10
728.9696044921875
 20
485.24530029296875
 42
1
  0
VERTEX
  8
0
 10
728.1842041015625
 20
305.24700927734375
 42
1
  0
SEQEND
  0
POLYLINE
  8
0
 10
0
 20
0
 39
0
 70
1
 66
1
  0
VERTEX
  8
0
 10
728.64239501953125
 20
410.24600219726562
 42
-1
  0
VERTEX
  8
0
 10
728.511474609375
 20
380.24630737304687
 42
-1
  0
SEQEND
  0
POLYLINE
  8
0
 10
0
 20
0
 39
0
 70
1
 66
1
  0
VERTEX
  8
0
 10
484.92724609375
 20
411.30697631835937
 42
1
  0
VERTEX
  8
0
 10
484.27273559570312
 20
261.30841064453125
 42
1
  0
SEQEND
  0
POLYLINE
  8
0
 10
0
 20
0
 39
0
 70
1
 66
1
  0
VERTEX
  8
0
 10
504.68707275390625
 20
356.22024536132813
 42
-0
  0
VERTEX
  8
0
 10
504.51254272460937
 20
316.22061157226562
 42
-0
  0
VERTEX
  8
0
 10
464.51290893554687
 20
316.3951416015625
 42
-0
  0
VERTEX
  8
0
 10
464.68746948242187
 20
356.394775390625
 42
-0
  0
SEQEND
  0
POLYLINE
  8
0
 10
0
 20
0
 39
0
 70
1
 66
1
  0
VERTEX
  8
0
 10
755.09649658203125
 20
706.3223876953125
 42
1
  0
VERTEX
  8
0
 10
754.44195556640625
 20
556.32379150390625
 42
1
  0
SEQEND
  0
POLYLINE
  8
0
 10
0
 20
0
 39
0
 70
1
 66
1
  0
VERTEX
  8
0
 10
774.8563232421875
 20
651.235595703125
 42
-0
  0
VERTEX
  8
0
 10
774.6817626953125
 20
611.23602294921875
 42
-0
  0
VERTEX
  8
0
 10
734.68212890625
 20
611.4105224609375
 42
-0
  0
VERTEX
  8
0
 10
734.856689453125
 20
651.41015625
 42
-0
  0
SEQEND
  0
POLYLINE
  8
0
 10
0
 20
0
 39
0
 70
1
 66
1
  0
VERTEX
  8
0
 10
775.10418701171875
 20
218.9454345703125
 42
1
  0
VERTEX
  8
0
 10
774.44964599609375
 20
68.946868896484375
 42
1
  0
SEQEND
  0
POLYLINE
  8
0
 10
0
 20
0
 39
0
 70
1
 66
1
  0
VERTEX
  8
0
 10
794.864013671875
 20
163.85868835449219
 42
-0
  0
VERTEX
  8
0
 10
794.689453125
 20
123.85907745361328
 42
-0
  0
VERTEX
  8
0
 10
754.6898193359375
 20
124.03360748291016
 42
-0
  0
VERTEX
  8
0
 10
754.8643798828125
 20
164.03323364257812
 42
-0
  0
SEQEND
  0
POLYLINE
  8
0
 10
0
 20
0
 39
0
 70
1
 66
1
  0
VERTEX
  8
0
 10
969.9461669921875
 20
363.9615478515625
 42
-0
  0
VERTEX
  8
0
 10
1056.6170654296875
 20
363.9615478515625
 42
-0
  0
VERTEX
  8
0
 10
1074.9461669921875
 20
382.16848754882812
 42
0
  0
VERTEX
  8
0
 10
1074.9461669921875
 20
454.75457763671875
 42
0
  0
VERTEX
  8
0
 10
1056.6170654296875
 20
472.9615478515625
 42
0
  0
VERTEX
  8
0
 10
969.9461669921875
 20
472.9615478515625
 42
0
  0
SEQEND
  0
POLYLINE
  8
0
 10
0
 20
0
 39
0
 70
1
 66
1
  0
VERTEX
  8
0
 10
993.29486083984375
 20
373.49957275390625
 42
-1
  0
VERTEX
  8
0
 10
993.29486083984375
 20
397.49957275390625
 42
-1
  0
SEQEND
  0
POLYLINE
  8
0
 10
0
 20
0
 39
0
 70
1
 66
1
  0
VERTEX
  8
0
 10
993.29486083984375
 20
439.42349243164062
 42
-1
  0
VERTEX
  8
0
 10
993.29486083984375
 20
463.42349243164063
 42
-1
  0
SEQEND
  0
POLYLINE
  8
0
 10
0
 20
0
 39
0
 70
1
 66
1
  0
VERTEX
  8
0
 10
969.9461669921875
 20
658.9769287109375
 42
-0
  0
VERTEX
  8
0
 10
1056.6170654296875
 20
658.9769287109375
 42
-0
  0
VERTEX
  8
0
 10
1074.9461669921875
 20
677.18389892578125
 42
0
  0
VERTEX
  8
0
 10
1074.9461669921875
 20
749.76995849609375
 42
0
  0
VERTEX
  8
0
 10
1056.6170654296875
 20
767.9769287109375
 42
0
  0
VERTEX
  8
0
 10
969.9461669921875
 20
767.9769287109375
 42
0
  0
SEQEND
  0
POLYLINE
  8
0
 10
0
 20
0
 39
0
 70
1
 66
1
  0
VERTEX
  8
0
 10
993.29486083984375
 20
668.51495361328125
 42
-1
  0
VERTEX
  8
0
 10
993.29486083984375
 20
692.51495361328125
 42
-1
  0
SEQEND
  0
POLYLINE
  8
0
 10
0
 20
0
 39
0
 70
1
 66
1
  0
VERTEX
  8
0
 10
993.29486083984375
 20
734.43890380859375
 42
-1
  0
VERTEX
  8
0
 10
993.29486083984375
 20
758.43890380859375
 42
-1
  0
SEQEND
  0
POLYLINE
  8
0
 10
0
 20
0
 39
0
 70
1
 66
1
  0
VERTEX
  8
0
 10
989.953857421875
 20
68.946151733398438
 42
-0
  0
VERTEX
  8
0
 10
1076.624755859375
 20
68.946151733398438
 42
-0
  0
VERTEX
  8
0
 10
1094.953857421875
 20
87.153106689453125
 42
0
  0
VERTEX
  8
0
 10
1094.953857421875
 20
159.73919677734375
 42
0
  0
VERTEX
  8
0
 10
1076.624755859375
 20
177.94615173339844
 42
0
  0
VERTEX
  8
0
 10
989.953857421875
 20
177.94615173339844
 42
0
  0
SEQEND
  0
POLYLINE
  8
0
 10
0
 20
0
 39
0
 70
1
 66
1
  0
VERTEX
  8
0
 10
1013.3025512695312
 20
78.484199523925781
 42
-1
  0
VERTEX
  8
0
 10
1013.3025512695312
 20
102.48419952392578
 42
-1
  0
SEQEND
  0
POLYLINE
  8
0
 10
0
 20
0
 39
0
 70
1
 66
1
  0
VERTEX
  8
0
 10
1013.3025512695312
 20
144.40811157226562
 42
-1
  0
VERTEX
  8
0
 10
1013.3025512695312
 20
168.40811157226562
 42
-1
  0
SEQEND
  0
POLYLINE
  8
0
 10
0
 20
0
 39
0
 70
1
 66
1
  0
VERTEX
  8
0
 10
200.36923217773437
 20
688.79229736328125
 42
-0
  0
VERTEX
  8
0
 10
240.36923217773437
 20
688.79229736328125
 42
-0
  0
VERTEX
  8
0
 10
240.36923217773437
 20
868.79229736328125
 42
-0
  0
VERTEX
  8
0
 10
200.36923217773437
 20
868.79229736328125
 42
0
  0
SEQEND
  0
POLYLINE
  8
0
 10
0
 20
0
 39
0
 70
1
 66
1
  0
VERTEX
  8
0
 10
220.36923217773437
 20
766.79229736328125
 42
-1
  0
VERTEX
  8
0
 10
220.36923217773437
 20
790.79229736328125
 42
-1
  0
SEQEND
  0
POLYLINE
  8
0
 10
0
 20
0
 39
0
 70
1
 66
1
  0
VERTEX
  8
0
 10
530.36151123046875
 20
140.34616088867187
 42
-0
  0
VERTEX
  8
0
 10
530.36151123046875
 20
180.34616088867187
 42
-0
  0
VERTEX
  8
0
 10
350.36154174804687
 20
180.34616088867187
 42
-0
  0
VERTEX
  8
0
 10
350.36154174804687
 20
140.34616088867187
 42
0
  0
SEQEND
  0
POLYLINE
  8
0
 10
0
 20
0
 39
0
 70
1
 66
1
  0
VERTEX
  8
0
 10
452.36154174804687
 20
160.34616088867187
 42
-1
  0
VERTEX
  8
0
 10
428.36154174804687
 20
160.34616088867187
 42
-1
  0
SEQEND
  0
POLYLINE
  8
0
 10
0
 20
0
 39
0
 70
1
 66
1
  0
VERTEX
  8
0
 10
530.36151123046875
 20
497.60769653320312
 42
-0
  0
VERTEX
  8
0
 10
530.36151123046875
 20
537.607666015625
 42
-0
  0
VERTEX
  8
0
 10
350.36154174804687
 20
537.607666015625
 42
-0
  0
VERTEX
  8
0
 10
350.36154174804687
 20
497.60769653320312
 42
0
  0
SEQEND
  0
POLYLINE
  8
0
 10
0
 20
0
 39
0
 70
1
 66
1
  0
VERTEX
  8
0
 10
452.36154174804687
 20
517.607666015625
 42
-1
  0
VERTEX
  8
0
 10
428.36154174804687
 20
517.607666015625
 42
-1
  0
SEQEND
  0
POLYLINE
  8
0
 10
0
 20
0
 39
0
 70
1
 66
1
  0
VERTEX
  8
0
 10
746.5230712890625
 20
849.76922607421875
 42
-0
  0
VERTEX
  8
0
 10
746.5230712890625
 20
889.76922607421875
 42
-0
  0
VERTEX
  8
0
 10
566.5230712890625
 20
889.76922607421875
 42
-0
  0
VERTEX
  8
0
 10
566.5230712890625
 20
849.76922607421875
 42
0
  0
SEQEND
  0
POLYLINE
  8
0
 10
0
 20
0
 39
0
 70
1
 66
1
  0
VERTEX
  8
0
 10
668.5230712890625
 20
869.76922607421875
 42
-1
  0
VERTEX
  8
0
 10
644.5230712890625
 20
869.76922607421875
 42
-1
  0
SEQEND
  0
POLYLINE
  8
0
 10
0
 20
0
 39
0
 70
1
 66
1
  0
VERTEX
  8
0
 10
782.09228515625
 20
799.5538330078125
 42
-0
  0
VERTEX
  8
0
 10
782.09228515625
 20
839.5538330078125
 42
-0
  0
VERTEX
  8
0
 10
602.09228515625
 20
839.5538330078125
 42
-0
  0
VERTEX
  8
0
 10
602.09228515625
 20
799.5538330078125
 42
0
  0
SEQEND
  0
POLYLINE
  8
0
 10
0
 20
0
 39
0
 70
1
 66
1
  0
VERTEX
  8
0
 10
704.09228515625
 20
819.5538330078125
 42
-1
  0
VERTEX
  8
0
 10
680.09228515625
 20
819.5538330078125
 42
-1
  0
SEQEND
  0
POLYLINE
  8
0
 10
0
 20
0
 39
0
 70
1
 66
1
  0
VERTEX
  8
0
 10
828.71539306640625
 20
305.24615478515625
 42
-0
  0
VERTEX
  8
0
 10
868.71539306640625
 20
305.24615478515625
 42
-0
  0
VERTEX
  8
0
 10
868.71539306640625
 20
485.24615478515625
 42
-0
  0
VERTEX
  8
0
 10
828.71539306640625
 20
485.24615478515625
 42
0
  0
SEQEND
  0
POLYLINE
  8
0
 10
0
 20
0
 39
0
 70
1
 66
1
  0
VERTEX
  8
0
 10
848.71539306640625
 20
383.24615478515625
 42
-1
  0
VERTEX
  8
0
 10
848.71539306640625
 20
407.24615478515625
 42
-1
  0
SEQEND
  0
POLYLINE
  8
0
 10
0
 20
0
 39
0
 70
1
 66
1
  0
VERTEX
  8
0
 10
1609.015380859375
 20
300.27691650390625
 42
-0
  0
VERTEX
  8
0
 10
1649.015380859375
 20
300.27691650390625
 42
-0
  0
VERTEX
  8
0
 10
1649.015380859375
 20
480.27691650390625
 42
-0
  0
VERTEX
  8
0
 10
1609.015380859375
 20
480.27691650390625
 42
0
  0
SEQEND
  0
POLYLINE
  8
0
 10
0
 20
0
 39
0
 70
1
 66
1
  0
VERTEX
  8
0
 10
1629.015380859375
 20
378.27691650390625
 42
-1
  0
VERTEX
  8
0
 10
1629.015380859375
 20
402.27691650390625
 42
-1
  0
SEQEND
  0
POLYLINE
  8
0
 10
0
 20
0
 39
0
 70
1
 66
1
  0
VERTEX
  8
0
 10
1609.015380859375
 20
490.28460693359375
 42
-0
  0
VERTEX
  8
0
 10
1649.015380859375
 20
490.28460693359375
 42
-0
  0
VERTEX
  8
0
 10
1649.015380859375
 20
670.28460693359375
 42
-0
  0
VERTEX
  8
0
 10
1609.015380859375
 20
670.28460693359375
 42
0
  0
SEQEND
  0
POLYLINE
  8
0
 10
0
 20
0
 39
0
 70
1
 66
1
  0
VERTEX
  8
0
 10
1629.015380859375
 20
568.28460693359375
 42
-1
  0
VERTEX
  8
0
 10
1629.015380859375
 20
592.28460693359375
 42
-1
  0
SEQEND
  0
POLYLINE
  8
0
 10
0
 20
0
 39
0
 70
1
 66
1
  0
VERTEX
  8
0
 10
1609.015380859375
 20
680.29229736328125
 42
-0
  0
VERTEX
  8
0
 10
1649.015380859375
 20
680.29229736328125
 42
-0
  0
VERTEX
  8
0
 10
1649.015380859375
 20
860.29229736328125
 42
-0
  0
VERTEX
  8
0
 10
1609.015380859375
 20
860.29229736328125
 42
0
  0
SEQEND
  0
POLYLINE
  8
0
 10
0
 20
0
 39
0
 70
1
 66
1
  0
VERTEX
  8
0
 10
1629.015380859375
 20
758.29229736328125
 42
-1
  0
VERTEX
  8
0
 10
1629.015380859375
 20
782.29229736328125
 42
-1
  0
SEQEND
  0
POLYLINE
  8
0
 10
0
 20
0
 39
0
 70
1
 66
1
  0
VERTEX
  8
0
 10
1629.0230712890625
 20
10.230769157409668
 42
-0
  0
VERTEX
  8
0
 10
1669.0230712890625
 20
10.230769157409668
 42
-0
  0
VERTEX
  8
0
 10
1669.0230712890625
 20
190.23077392578125
 42
-0
  0
VERTEX
  8
0
 10
1629.0230712890625
 20
190.23077392578125
 42
0
  0
SEQEND
  0
POLYLINE
  8
0
 10
0
 20
0
 39
0
 70
1
 66
1
  0
VERTEX
  8
0
 10
1649.0230712890625
 20
88.230766296386719
 42
-1
  0
VERTEX
  8
0
 10
1649.0230712890625
 20
112.23076629638672
 42
-1
  0
SEQEND
  0
POLYLINE
  8
0
 10
0
 20
0
 39
0
 70
1
 66
1
  0
VERTEX
  8
0
 10
1119.9461669921875
 20
482.9615478515625
 42
-0
  0
VERTEX
  8
0
 10
1119.9461669921875
 20
522.9615478515625
 42
-0
  0
VERTEX
  8
0
 10
969.9461669921875
 20
522.9615478515625
 42
-0
  0
VERTEX
  8
0
 10
969.9461669921875
 20
482.9615478515625
 42
0
  0
SEQEND
  0
POLYLINE
  8
0
 10
0
 20
0
 39
0
 70
1
 66
1
  0
VERTEX
  8
0
 10
1110.543212890625
 20
502.9615478515625
 42
-1
  0
VERTEX
  8
0
 10
1090.543212890625
 20
502.9615478515625
 42
-1
  0
SEQEND
  0
POLYLINE
  8
0
 10
0
 20
0
 39
0
 70
1
 66
1
  0
VERTEX
  8
0
 10
1079.6138916015625
 20
502.9615478515625
 42
-1
  0
VERTEX
  8
0
 10
1059.6138916015625
 20
502.9615478515625
 42
-1
  0
SEQEND
  0
POLYLINE
  8
0
 10
0
 20
0
 39
0
 70
1
 66
1
  0
VERTEX
  8
0
 10
1119.9461669921875
 20
777.9769287109375
 42
-0
  0
VERTEX
  8
0
 10
1119.9461669921875
 20
817.9769287109375
 42
-0
  0
VERTEX
  8
0
 10
969.9461669921875
 20
817.9769287109375
 42
-0
  0
VERTEX
  8
0
 10
969.9461669921875
 20
777.9769287109375
 42
0
  0
SEQEND
  0
POLYLINE
  8
0
 10
0
 20
0
 39
0
 70
1
 66
1
  0
VERTEX
  8
0
 10
1110.543212890625
 20
797.9769287109375
 42
-1
  0
VERTEX
  8
0
 10
1090.543212890625
 20
797.9769287109375
 42
-1
  0
SEQEND
  0
POLYLINE
  8
0
 10
0
 20
0
 39
0
 70
1
 66
1
  0
VERTEX
  8
0
 10
1079.6138916015625
 20
797.9769287109375
 42
-1
  0
VERTEX
  8
0
 10
1059.6138916015625
 20
797.9769287109375
 42
-1
  0
SEQEND
  0
POLYLINE
  8
0
 10
0
 20
0
 39
0
 70
1
 66
1
  0
VERTEX
  8
0
 10
1139.953857421875
 20
187.94615173339844
 42
-0
  0
VERTEX
  8
0
 10
1139.953857421875
 20
227.94615173339844
 42
-0
  0
VERTEX
  8
0
 10
989.953857421875
 20
227.94615173339844
 42
-0
  0
VERTEX
  8
0
 10
989.953857421875
 20
187.94615173339844
 42
0
  0
SEQEND
  0
POLYLINE
  8
0
 10
0
 20
0
 39
0
 70
1
 66
1
  0
VERTEX
  8
0
 10
1130.5509033203125
 20
207.94615173339844
 42
-1
  0
VERTEX
  8
0
 10
1110.5509033203125
 20
207.94615173339844
 42
-1
  0
SEQEND
  0
POLYLINE
  8
0
 10
0
 20
0
 39
0
 70
1
 66
1
  0
VERTEX
  8
0
 10
1099.62158203125
 20
207.94615173339844
 42
-1
  0
VERTEX
  8
0
 10
1079.62158203125
 20
207.94615173339844
 42
-1
  0
SEQEND
  0
POLYLINE
  8
0
 10
0
 20
0
 39
0
 70
1
 66
1
  0
VERTEX
  8
0
 10
897.23077392578125
 20
792.623046875
 42
0
  0
VERTEX
  8
0
 10
897.23077392578125
 20
842.623046875
 42
0
  0
VERTEX
  8
0
 10
792.23077392578125
 20
842.623046875
 42
0
  0
VERTEX
  8
0
 10
792.23077392578125
 20
792.623046875
 42
0
  0
SEQEND
  0
POLYLINE
  8
0
 10
0
 20
0
 39
0
 70
1
 66
1
  0
VERTEX
  8
0
 10
890.68524169921875
 20
817.623046875
 42
-1
  0
VERTEX
  8
0
 10
868.68524169921875
 20
817.623046875
 42
-1
  0
SEQEND
  0
POLYLINE
  8
0
 10
0
 20
0
 39
0
 70
1
 66
1
  0
VERTEX
  8
0
 10
820.77630615234375
 20
817.623046875
 42
-1
  0
VERTEX
  8
0
 10
798.77630615234375
 20
817.623046875
 42
-1
  0
SEQEND
  0
ENDSEC
  0
EOF
