  0
SECTION
  2
ENTITIES
  0
POLYLINE
  8
0
 10
0
 20
0
 39
0
 70
1
 66
1
  0
VERTEX
  8
0
 10
0
 20
0
 42
0
  0
VERTEX
  8
0
 10
2800
 20
0
 42
0
  0
VERTEX
  8
0
 10
2800
 20
1200
 42
0
  0
VERTEX
  8
0
 10
0
 20
1200
 42
0
  0
SEQEND
  0
POLYLINE
  8
0
 10
0
 20
0
 39
0
 70
1
 66
1
  0
VERTEX
  8
0
 10
521.27261538461516
 20
610.38461538461536
 42
0
  0
VERTEX
  8
0
 10
221.27261538461516
 20
610.38461538461536
 42
0
  0
VERTEX
  8
0
 10
221.27261538461516
 20
1010.3846153846154
 42
-0
  0
VERTEX
  8
0
 10
721.27261538461528
 20
1010.3846153846154
 42
0
  0
VERTEX
  8
0
 10
721.27261538461528
 20
10.384615384615415
 42
0
  0
VERTEX
  8
0
 10
521.27261538461528
 20
10.384615384615415
 42
0
  0
SEQEND
  0
POLYLINE
  8
0
 10
0
 20
0
 39
0
 70
1
 66
1
  0
VERTEX
  8
0
 10
286.27261538461516
 20
945.38461538461536
 42
-0
  0
VERTEX
  8
0
 10
286.27261538461516
 20
675.38461538461536
 42
-0
  0
VERTEX
  8
0
 10
556.27261538461528
 20
675.38461538461536
 42
0
  0
VERTEX
  8
0
 10
556.27261538461528
 20
945.38461538461536
 42
0
  0
SEQEND
  0
POLYLINE
  8
0
 10
0
 20
0
 39
0
 70
1
 66
1
  0
VERTEX
  8
0
 10
576.27261538461528
 20
477.88461538461547
 42
-0
  0
VERTEX
  8
0
 10
576.27261538461528
 20
322.88461538461547
 42
-0
  0
VERTEX
  8
0
 10
681.27261538461528
 20
322.88461538461547
 42
0
  0
VERTEX
  8
0
 10
681.27261538461528
 20
477.88461538461547
 42
0
  0
SEQEND
  0
POLYLINE
  8
0
 10
0
 20
0
 39
0
 70
1
 66
1
  0
VERTEX
  8
0
 10
210.38461538461513
 20
410.38461538461524
 42
0
  0
VERTEX
  8
0
 10
510.38461538461513
 20
410.38461538461524
 42
0
  0
VERTEX
  8
0
 10
510.38461538461513
 20
10.384615384615245
 42
-0
  0
VERTEX
  8
0
 10
10.384615384615245
 20
10.384615384615245
 42
0
  0
VERTEX
  8
0
 10
10.384615384615245
 20
1010.3846153846152
 42
0
  0
VERTEX
  8
0
 10
210.38461538461524
 20
1010.3846153846152
 42
0
  0
SEQEND
  0
POLYLINE
  8
0
 10
0
 20
0
 39
0
 70
1
 66
1
  0
VERTEX
  8
0
 10
445.38461538461513
 20
75.384615384615245
 42
-0
  0
VERTEX
  8
0
 10
445.38461538461513
 20
345.38461538461524
 42
-0
  0
VERTEX
  8
0
 10
175.38461538461524
 20
345.38461538461524
 42
0
  0
VERTEX
  8
0
 10
175.38461538461524
 20
75.384615384615245
 42
0
  0
SEQEND
  0
POLYLINE
  8
0
 10
0
 20
0
 39
0
 70
1
 66
1
  0
VERTEX
  8
0
 10
155.38461538461524
 20
542.88461538461536
 42
-0
  0
VERTEX
  8
0
 10
155.38461538461524
 20
697.88461538461536
 42
-0
  0
VERTEX
  8
0
 10
50.384615384615245
 20
697.88461538461536
 42
0
  0
VERTEX
  8
0
 10
50.384615384615245
 20
542.88461538461536
 42
0
  0
SEQEND
  0
POLYLINE
  8
0
 10
0
 20
0
 39
0
 70
1
 66
1
  0
VERTEX
  8
0
 10
1242.3803076923073
 20
610.38461538461536
 42
0
  0
VERTEX
  8
0
 10
942.38030769230738
 20
610.38461538461536
 42
0
  0
VERTEX
  8
0
 10
942.38030769230738
 20
1010.3846153846154
 42
-0
  0
VERTEX
  8
0
 10
1442.3803076923075
 20
1010.3846153846154
 42
0
  0
VERTEX
  8
0
 10
1442.3803076923075
 20
10.384615384615415
 42
0
  0
VERTEX
  8
0
 10
1242.3803076923075
 20
10.384615384615415
 42
0
  0
SEQEND
  0
POLYLINE
  8
0
 10
0
 20
0
 39
0
 70
1
 66
1
  0
VERTEX
  8
0
 10
1007.3803076923074
 20
945.38461538461536
 42
-0
  0
VERTEX
  8
0
 10
1007.3803076923074
 20
675.38461538461536
 42
-0
  0
VERTEX
  8
0
 10
1277.3803076923075
 20
675.38461538461536
 42
0
  0
VERTEX
  8
0
 10
1277.3803076923075
 20
945.38461538461536
 42
0
  0
SEQEND
  0
POLYLINE
  8
0
 10
0
 20
0
 39
0
 70
1
 66
1
  0
VERTEX
  8
0
 10
1297.3803076923075
 20
477.88461538461547
 42
-0
  0
VERTEX
  8
0
 10
1297.3803076923075
 20
322.88461538461547
 42
-0
  0
VERTEX
  8
0
 10
1402.3803076923075
 20
322.88461538461547
 42
0
  0
VERTEX
  8
0
 10
1402.3803076923075
 20
477.88461538461547
 42
0
  0
SEQEND
  0
POLYLINE
  8
0
 10
0
 20
0
 39
0
 70
1
 66
1
  0
VERTEX
  8
0
 10
931.49230769230746
 20
410.38461538461524
 42
0
  0
VERTEX
  8
0
 10
1231.4923076923073
 20
410.38461538461524
 42
0
  0
VERTEX
  8
0
 10
1231.4923076923073
 20
10.384615384615245
 42
-0
  0
VERTEX
  8
0
 10
731.49230769230758
 20
10.384615384615245
 42
0
  0
VERTEX
  8
0
 10
731.49230769230758
 20
1010.3846153846152
 42
0
  0
VERTEX
  8
0
 10
931.49230769230758
 20
1010.3846153846152
 42
0
  0
SEQEND
  0
POLYLINE
  8
0
 10
0
 20
0
 39
0
 70
1
 66
1
  0
VERTEX
  8
0
 10
1166.4923076923073
 20
75.384615384615245
 42
-0
  0
VERTEX
  8
0
 10
1166.4923076923073
 20
345.38461538461524
 42
-0
  0
VERTEX
  8
0
 10
896.49230769230758
 20
345.38461538461524
 42
0
  0
VERTEX
  8
0
 10
896.49230769230758
 20
75.384615384615245
 42
0
  0
SEQEND
  0
POLYLINE
  8
0
 10
0
 20
0
 39
0
 70
1
 66
1
  0
VERTEX
  8
0
 10
876.49230769230758
 20
542.88461538461536
 42
-0
  0
VERTEX
  8
0
 10
876.49230769230758
 20
697.88461538461536
 42
-0
  0
VERTEX
  8
0
 10
771.49230769230758
 20
697.88461538461536
 42
0
  0
VERTEX
  8
0
 10
771.49230769230758
 20
542.88461538461536
 42
0
  0
SEQEND
  0
POLYLINE
  8
0
 10
0
 20
0
 39
0
 70
1
 66
1
  0
VERTEX
  8
0
 10
1523.5355163574218
 20
318.25702139047473
 42
0
  0
VERTEX
  8
0
 10
1452.5999999999999
 20
405.76928945688098
 42
-0
  0
VERTEX
  8
0
 10
1452.5999999999999
 20
626.12942739633411
 42
-0
  0
VERTEX
  8
0
 10
1924.5999999999999
 20
626.12942739633411
 42
-0
  0
VERTEX
  8
0
 10
1924.5999999999999
 20
405.76928945688098
 42
-0
  0
VERTEX
  8
0
 10
1853.6644989013671
 20
318.25702139047473
 42
-0
  0
VERTEX
  8
0
 10
1924.5999999999999
 20
256.08265920785755
 42
-0
  0
VERTEX
  8
0
 10
1924.5999999999999
 20
10.384615384615383
 42
-0
  0
VERTEX
  8
0
 10
1452.5999999999999
 20
10.384615384615383
 42
-0
  0
VERTEX
  8
0
 10
1452.5999999999999
 20
256.08265920785755
 42
0
  0
SEQEND
  0
POLYLINE
  8
0
 10
0
 20
0
 39
0
 70
1
 66
1
  0
VERTEX
  8
0
 10
1488.0677429199218
 20
411.90234609750598
 42
-0
  0
VERTEX
  8
0
 10
1562.3084350585937
 20
318.25702139047473
 42
-0
  0
VERTEX
  8
0
 10
1488.0677429199218
 20
249.4819817176232
 42
-0
  0
VERTEX
  8
0
 10
1488.0677429199218
 20
46.813162290132965
 42
-0
  0
VERTEX
  8
0
 10
1889.1322494506835
 20
46.813162290132965
 42
-0
  0
VERTEX
  8
0
 10
1889.1322494506835
 20
249.4819817176232
 42
0
  0
VERTEX
  8
0
 10
1814.8915649414062
 20
318.25702139047473
 42
0
  0
VERTEX
  8
0
 10
1889.1322494506835
 20
411.90234609750598
 42
-0
  0
VERTEX
  8
0
 10
1889.1322494506835
 20
593.81314321664661
 42
-0
  0
VERTEX
  8
0
 10
1488.0677429199218
 20
593.81314321664661
 42
-0
  0
SEQEND
  0
POLYLINE
  8
0
 10
0
 20
0
 39
0
 70
1
 66
1
  0
VERTEX
  8
0
 10
1760.4724060058593
 20
1037.3567913348857
 42
0
  0
VERTEX
  8
0
 10
1847.9846740722655
 20
1108.2923076923075
 42
-0
  0
VERTEX
  8
0
 10
2068.3448120117187
 20
1108.2923076923078
 42
-0
  0
VERTEX
  8
0
 10
2068.3448120117187
 20
636.29230769230765
 42
-0
  0
VERTEX
  8
0
 10
1847.9846740722655
 20
636.29230769230765
 42
-0
  0
VERTEX
  8
0
 10
1760.4724060058593
 20
707.22780879094046
 42
-0
  0
VERTEX
  8
0
 10
1698.2980438232421
 20
636.29230769230765
 42
-0
  0
VERTEX
  8
0
 10
1452.5999999999999
 20
636.29230769230765
 42
-0
  0
VERTEX
  8
0
 10
1452.5999999999999
 20
1108.2923076923075
 42
-0
  0
VERTEX
  8
0
 10
1698.2980438232421
 20
1108.2923076923075
 42
0
  0
SEQEND
  0
POLYLINE
  8
0
 10
0
 20
0
 39
0
 70
1
 66
1
  0
VERTEX
  8
0
 10
1854.1177307128905
 20
1072.8245647723857
 42
-0
  0
VERTEX
  8
0
 10
1760.4724060058593
 20
998.5838726337139
 42
-0
  0
VERTEX
  8
0
 10
1691.6973663330077
 20
1072.8245647723857
 42
-0
  0
VERTEX
  8
0
 10
1489.0285469055175
 20
1072.8245647723857
 42
-0
  0
VERTEX
  8
0
 10
1489.0285469055175
 20
671.76005824162405
 42
-0
  0
VERTEX
  8
0
 10
1691.6973663330077
 20
671.76005824162405
 42
0
  0
VERTEX
  8
0
 10
1760.4724060058593
 20
746.0007427509014
 42
0
  0
VERTEX
  8
0
 10
1854.1177307128905
 20
671.76005824162405
 42
-0
  0
VERTEX
  8
0
 10
2036.0285278320312
 20
671.76005824162405
 42
-0
  0
VERTEX
  8
0
 10
2036.0285278320312
 20
1072.8245647723859
 42
-0
  0
SEQEND
  0
POLYLINE
  8
0
 10
0
 20
0
 39
0
 70
1
 66
1
  0
VERTEX
  8
0
 10
1499.3384615384614
 20
1007.1692307692307
 42
-0
  0
VERTEX
  8
0
 10
1587.8384615384614
 20
913.05375225360569
 42
-0
  0
VERTEX
  8
0
 10
1697.8384615384614
 20
998.51637108142552
 42
-0
  0
VERTEX
  8
0
 10
1759.0743929349458
 20
933.54822094257054
 42
-0
  0
VERTEX
  8
0
 10
1759.0743929349458
 20
784.54822857196518
 42
-0
  0
VERTEX
  8
0
 10
1612.0901857816255
 20
682.16923076923069
 42
0
  0
VERTEX
  8
0
 10
1499.3384615384614
 20
682.16923076923069
 42
0
  0
SEQEND
  0
POLYLINE
  8
0
 10
0
 20
0
 39
0
 70
1
 66
1
  0
VERTEX
  8
0
 10
1697.8384615384614
 20
901.70072490985569
 42
1
  0
VERTEX
  8
0
 10
1697.8384615384614
 20
842.03535015399632
 42
1
  0
SEQEND
  0
POLYLINE
  8
0
 10
0
 20
0
 39
0
 70
1
 66
1
  0
VERTEX
  8
0
 10
1587.8384615384614
 20
863.49790508563694
 42
1
  0
VERTEX
  8
0
 10
1587.8384615384614
 20
743.71894390399632
 42
1
  0
SEQEND
  0
POLYLINE
  8
0
 10
0
 20
0
 39
0
 70
1
 66
1
  0
VERTEX
  8
0
 10
1796.1205467810996
 20
57.123076923076916
 42
-0
  0
VERTEX
  8
0
 10
1707.6205467810996
 20
151.23855543870192
 42
-0
  0
VERTEX
  8
0
 10
1597.6205467810996
 20
65.775936610882084
 42
-0
  0
VERTEX
  8
0
 10
1536.3846153846152
 20
130.74408674973705
 42
-0
  0
VERTEX
  8
0
 10
1536.3846153846152
 20
279.74407912034252
 42
-0
  0
VERTEX
  8
0
 10
1683.3688225379356
 20
382.12307692307689
 42
0
  0
VERTEX
  8
0
 10
1796.1205467810996
 20
382.12307692307689
 42
0
  0
SEQEND
  0
POLYLINE
  8
0
 10
0
 20
0
 39
0
 70
1
 66
1
  0
VERTEX
  8
0
 10
1597.6205467810996
 20
162.59158278245189
 42
1
  0
VERTEX
  8
0
 10
1597.6205467810996
 20
222.2569575383113
 42
1
  0
SEQEND
  0
POLYLINE
  8
0
 10
0
 20
0
 39
0
 70
1
 66
1
  0
VERTEX
  8
0
 10
1707.6205467810996
 20
200.79440260667067
 42
1
  0
VERTEX
  8
0
 10
1707.6205467810996
 20
320.57336378831127
 42
1
  0
SEQEND
  0
POLYLINE
  8
0
 10
0
 20
0
 39
0
 70
1
 66
1
  0
VERTEX
  8
0
 10
2194.5820852426377
 20
10.384615384615383
 42
-0
  0
VERTEX
  8
0
 10
2106.0820852426377
 20
104.50009390024039
 42
-0
  0
VERTEX
  8
0
 10
1996.0820852426377
 20
19.037475072420548
 42
-0
  0
VERTEX
  8
0
 10
1934.8461538461534
 20
84.005625211275529
 42
-0
  0
VERTEX
  8
0
 10
1934.8461538461534
 20
233.00561758188098
 42
-0
  0
VERTEX
  8
0
 10
2081.8303609994737
 20
335.38461538461536
 42
0
  0
VERTEX
  8
0
 10
2194.5820852426377
 20
335.38461538461536
 42
0
  0
SEQEND
  0
POLYLINE
  8
0
 10
0
 20
0
 39
0
 70
1
 66
1
  0
VERTEX
  8
0
 10
1996.0820852426377
 20
115.85312124399037
 42
1
  0
VERTEX
  8
0
 10
1996.0820852426377
 20
175.51849599984976
 42
1
  0
SEQEND
  0
POLYLINE
  8
0
 10
0
 20
0
 39
0
 70
1
 66
1
  0
VERTEX
  8
0
 10
2106.0820852426377
 20
154.05594106820914
 42
1
  0
VERTEX
  8
0
 10
2106.0820852426377
 20
273.83490224984973
 42
1
  0
SEQEND
  0
POLYLINE
  8
0
 10
0
 20
0
 39
0
 70
1
 66
1
  0
VERTEX
  8
0
 10
2219.135931396484
 20
324.6307692307692
 42
-0
  0
VERTEX
  8
0
 10
2130.635931396484
 20
418.7462477463942
 42
-0
  0
VERTEX
  8
0
 10
2020.635931396484
 20
333.28362891857438
 42
-0
  0
VERTEX
  8
0
 10
1959.3999999999996
 20
398.25177905742936
 42
-0
  0
VERTEX
  8
0
 10
1959.3999999999996
 20
547.25177142803477
 42
-0
  0
VERTEX
  8
0
 10
2106.3842071533199
 20
649.63076923076915
 42
0
  0
VERTEX
  8
0
 10
2219.135931396484
 20
649.63076923076915
 42
0
  0
SEQEND
  0
POLYLINE
  8
0
 10
0
 20
0
 39
0
 70
1
 66
1
  0
VERTEX
  8
0
 10
2020.635931396484
 20
430.0992750901442
 42
1
  0
VERTEX
  8
0
 10
2020.635931396484
 20
489.76464984600358
 42
1
  0
SEQEND
  0
POLYLINE
  8
0
 10
0
 20
0
 39
0
 70
1
 66
1
  0
VERTEX
  8
0
 10
2130.635931396484
 20
468.30209491436295
 42
1
  0
VERTEX
  8
0
 10
2130.635931396484
 20
588.08105609600352
 42
1
  0
SEQEND
  0
POLYLINE
  8
0
 10
0
 20
0
 39
0
 70
1
 66
1
  0
VERTEX
  8
0
 10
2338.4590083195612
 20
651.36923076923074
 42
-0
  0
VERTEX
  8
0
 10
2249.9590083195612
 20
745.48470928485574
 42
-0
  0
VERTEX
  8
0
 10
2139.9590083195612
 20
660.02209045703592
 42
-0
  0
VERTEX
  8
0
 10
2078.7230769230769
 20
724.9902405958909
 42
-0
  0
VERTEX
  8
0
 10
2078.7230769230769
 20
873.99023296649636
 42
-0
  0
VERTEX
  8
0
 10
2225.7072840763972
 20
976.36923076923074
 42
0
  0
VERTEX
  8
0
 10
2338.4590083195612
 20
976.36923076923074
 42
0
  0
SEQEND
  0
POLYLINE
  8
0
 10
0
 20
0
 39
0
 70
1
 66
1
  0
VERTEX
  8
0
 10
2139.9590083195612
 20
756.83773662860574
 42
1
  0
VERTEX
  8
0
 10
2139.9590083195612
 20
816.50311138446511
 42
1
  0
SEQEND
  0
POLYLINE
  8
0
 10
0
 20
0
 39
0
 70
1
 66
1
  0
VERTEX
  8
0
 10
2249.9590083195612
 20
795.04055645282449
 42
1
  0
VERTEX
  8
0
 10
2249.9590083195612
 20
914.81951763446511
 42
1
  0
SEQEND
  0
POLYLINE
  8
0
 10
0
 20
0
 39
0
 70
1
 66
1
  0
VERTEX
  8
0
 10
2464.6743929349459
 20
10.384615384615383
 42
-0
  0
VERTEX
  8
0
 10
2376.1743929349459
 20
104.50009390024039
 42
-0
  0
VERTEX
  8
0
 10
2266.1743929349459
 20
19.037475072420548
 42
-0
  0
VERTEX
  8
0
 10
2204.9384615384615
 20
84.005625211275529
 42
-0
  0
VERTEX
  8
0
 10
2204.9384615384615
 20
233.00561758188098
 42
-0
  0
VERTEX
  8
0
 10
2351.9226686917818
 20
335.38461538461536
 42
0
  0
VERTEX
  8
0
 10
2464.6743929349459
 20
335.38461538461536
 42
0
  0
SEQEND
  0
POLYLINE
  8
0
 10
0
 20
0
 39
0
 70
1
 66
1
  0
VERTEX
  8
0
 10
2266.1743929349459
 20
115.85312124399037
 42
1
  0
VERTEX
  8
0
 10
2266.1743929349459
 20
175.51849599984976
 42
1
  0
SEQEND
  0
POLYLINE
  8
0
 10
0
 20
0
 39
0
 70
1
 66
1
  0
VERTEX
  8
0
 10
2376.1743929349459
 20
154.05594106820914
 42
1
  0
VERTEX
  8
0
 10
2376.1743929349459
 20
273.83490224984973
 42
1
  0
SEQEND
  0
POLYLINE
  8
0
 10
0
 20
0
 39
0
 70
1
 66
1
  0
VERTEX
  8
0
 10
2489.2282390887917
 20
324.6307692307692
 42
-0
  0
VERTEX
  8
0
 10
2400.7282390887917
 20
418.7462477463942
 42
-0
  0
VERTEX
  8
0
 10
2290.7282390887917
 20
333.28362891857438
 42
-0
  0
VERTEX
  8
0
 10
2229.4923076923073
 20
398.25177905742936
 42
-0
  0
VERTEX
  8
0
 10
2229.4923076923073
 20
547.25177142803477
 42
-0
  0
VERTEX
  8
0
 10
2376.4765148456277
 20
649.63076923076915
 42
0
  0
VERTEX
  8
0
 10
2489.2282390887917
 20
649.63076923076915
 42
0
  0
SEQEND
  0
POLYLINE
  8
0
 10
0
 20
0
 39
0
 70
1
 66
1
  0
VERTEX
  8
0
 10
2290.7282390887917
 20
430.0992750901442
 42
1
  0
VERTEX
  8
0
 10
2290.7282390887917
 20
489.76464984600358
 42
1
  0
SEQEND
  0
POLYLINE
  8
0
 10
0
 20
0
 39
0
 70
1
 66
1
  0
VERTEX
  8
0
 10
2400.7282390887917
 20
468.30209491436295
 42
1
  0
VERTEX
  8
0
 10
2400.7282390887917
 20
588.08105609600352
 42
1
  0
SEQEND
  0
POLYLINE
  8
0
 10
0
 20
0
 39
0
 70
1
 66
1
  0
VERTEX
  8
0
 10
2591.9064167336574
 20
1055.4559573512715
 42
-1
  0
VERTEX
  8
0
 10
2324.9089630440822
 20
1056.6209608880063
 42
-1
  0
SEQEND
  0
POLYLINE
  8
0
 10
0
 20
0
 39
0
 70
1
 66
1
  0
VERTEX
  8
0
 10
2567.1591481576588
 20
1063.0040882710027
 42
-0
  0
VERTEX
  8
0
 10
2557.1592435250905
 20
1063.0477213622662
 42
0.16008478403091431
  0
VERTEX
  8
0
 10
2533.7551383297186
 20
1120.2549828066071
 42
0
  0
VERTEX
  8
0
 10
2540.8569919595284
 20
1127.2951299269994
 42
0.034176722168922424
  0
VERTEX
  8
0
 10
2530.3811442084329
 20
1137.8627979180492
 42
-0
  0
VERTEX
  8
0
 10
2523.2792905786232
 20
1130.8226507976569
 42
0.16008478403091431
  0
VERTEX
  8
0
 10
2466.2784441623708
 20
1154.725086024805
 42
0
  0
VERTEX
  8
0
 10
2466.3220772536342
 20
1164.7249906573734
 42
0.034176722168922424
  0
VERTEX
  8
0
 10
2451.4420607375059
 20
1164.789917388428
 42
-0
  0
VERTEX
  8
0
 10
2451.3984276462425
 20
1154.7900127558596
 42
0.16008478403091431
  0
VERTEX
  8
0
 10
2394.1911662019015
 20
1131.3859075604878
 42
0
  0
VERTEX
  8
0
 10
2387.1510190815093
 20
1138.4877611902975
 42
0.034176722168922424
  0
VERTEX
  8
0
 10
2376.5833510904595
 20
1128.0119134392021
 42
-0
  0
VERTEX
  8
0
 10
2383.6234982108517
 20
1120.9100598093924
 42
0.16008478403091431
  0
VERTEX
  8
0
 10
2359.7210629837036
 20
1063.9092133931399
 42
0
  0
VERTEX
  8
0
 10
2349.7211583511353
 20
1063.9528464844034
 42
0.034176722168922424
  0
VERTEX
  8
0
 10
2349.6562316200807
 20
1049.0728299682751
 42
-0
  0
VERTEX
  8
0
 10
2359.656136252649
 20
1049.0291968770116
 42
0.16008478403091431
  0
VERTEX
  8
0
 10
2383.0602414480209
 20
991.82193543267067
 42
0
  0
VERTEX
  8
0
 10
2375.9583878182111
 20
984.78178831227831
 42
0.034176722168922424
  0
VERTEX
  8
0
 10
2386.4342355693066
 20
974.21412032122862
 42
-0
  0
VERTEX
  8
0
 10
2393.5360891991163
 20
981.25426744162098
 42
0.16008478403091431
  0
VERTEX
  8
0
 10
2450.5369356153687
 20
957.35183221447278
 42
0
  0
VERTEX
  8
0
 10
2450.4933025241053
 20
947.35192758190442
 42
0.034176722168922424
  0
VERTEX
  8
0
 10
2465.3733190402336
 20
947.28700085084984
 42
-0
  0
VERTEX
  8
0
 10
2465.4169521314971
 20
957.2869054834182
 42
0.16008478403091431
  0
VERTEX
  8
0
 10
2522.624213575838
 20
980.69101067878989
 42
0
  0
VERTEX
  8
0
 10
2529.6643606962302
 20
973.58915704898027
 42
0.034176722168922424
  0
VERTEX
  8
0
 10
2540.23202868728
 20
984.06500480007583
 42
-0
  0
VERTEX
  8
0
 10
2533.1918815668878
 20
991.16685842988545
 42
0.16008478403091431
  0
VERTEX
  8
0
 10
2557.0943167940359
 20
1048.1677048461379
 42
0
  0
VERTEX
  8
0
 10
2567.0942214266042
 20
1048.1240717548744
 42
0.034176722168922424
  0
SEQEND
  0
POLYLINE
  8
0
 10
0
 20
0
 39
0
 70
1
 66
1
  0
VERTEX
  8
0
 10
2530.9286531956986
 20
921.38333981058031
 42
-1
  0
VERTEX
  8
0
 10
2529.7636496589639
 20
654.38588612100511
 42
-1
  0
SEQEND
  0
POLYLINE
  8
0
 10
0
 20
0
 39
0
 70
1
 66
1
  0
VERTEX
  8
0
 10
2523.3805222759675
 20
896.63607123458178
 42
-0
  0
VERTEX
  8
0
 10
2523.336889184704
 20
886.63616660201342
 42
0.16008478403091431
  0
VERTEX
  8
0
 10
2466.129627740363
 20
863.23206140664172
 42
0
  0
VERTEX
  8
0
 10
2459.0894806199708
 20
870.33391503645134
 42
0.034176722168922424
  0
VERTEX
  8
0
 10
2448.521812628921
 20
859.85806728535579
 42
-0
  0
VERTEX
  8
0
 10
2455.5619597493132
 20
852.75621365554616
 42
0.16008478403091431
  0
VERTEX
  8
0
 10
2431.6595245221652
 20
795.75536723929383
 42
0
  0
VERTEX
  8
0
 10
2421.6596198895968
 20
795.79900033055731
 42
0.034176722168922424
  0
VERTEX
  8
0
 10
2421.5946931585422
 20
780.918983814429
 42
-0
  0
VERTEX
  8
0
 10
2431.5945977911106
 20
780.87535072316552
 42
0.16008478403091431
  0
VERTEX
  8
0
 10
2454.9987029864824
 20
723.66808927882448
 42
0
  0
VERTEX
  8
0
 10
2447.8968493566726
 20
716.62794215843212
 42
0.034176722168922424
  0
VERTEX
  8
0
 10
2458.3726971077681
 20
706.06027416738243
 42
-0
  0
VERTEX
  8
0
 10
2465.4745507375778
 20
713.10042128777479
 42
0.16008478403091431
  0
VERTEX
  8
0
 10
2522.4753971538303
 20
689.19798606062659
 42
0
  0
VERTEX
  8
0
 10
2522.4317640625668
 20
679.19808142805823
 42
0.034176722168922424
  0
VERTEX
  8
0
 10
2537.3117805786951
 20
679.13315469700365
 42
-0
  0
VERTEX
  8
0
 10
2537.3554136699586
 20
689.13305932957201
 42
0.16008478403091431
  0
VERTEX
  8
0
 10
2594.5626751142995
 20
712.53716452494371
 42
0
  0
VERTEX
  8
0
 10
2601.6028222346918
 20
705.43531089513408
 42
0.034176722168922424
  0
VERTEX
  8
0
 10
2612.1704902257416
 20
715.91115864622964
 42
-0
  0
VERTEX
  8
0
 10
2605.1303431053493
 20
723.01301227603926
 42
0.16008478403091431
  0
VERTEX
  8
0
 10
2629.0327783324974
 20
780.01385869229159
 42
0
  0
VERTEX
  8
0
 10
2639.0326829650658
 20
779.97022560102812
 42
0.034176722168922424
  0
VERTEX
  8
0
 10
2639.0976096961203
 20
794.85024211715643
 42
-0
  0
VERTEX
  8
0
 10
2629.097705063552
 20
794.8938752084199
 42
0.16008478403091431
  0
VERTEX
  8
0
 10
2605.6935998681802
 20
852.10113665276094
 42
0
  0
VERTEX
  8
0
 10
2612.7954534979899
 20
859.1412837731533
 42
0.034176722168922424
  0
VERTEX
  8
0
 10
2602.3196057468945
 20
869.70895176420299
 42
-0
  0
VERTEX
  8
0
 10
2595.2177521170847
 20
862.66880464381063
 42
0.16008478403091431
  0
VERTEX
  8
0
 10
2538.2169057008323
 20
886.57123987095883
 42
0
  0
VERTEX
  8
0
 10
2538.2605387920958
 20
896.57114450352719
 42
0.034176722168922424
  0
SEQEND
  0
POLYLINE
  8
0
 10
0
 20
0
 39
0
 70
1
 66
1
  0
VERTEX
  8
0
 10
2609.1132685803141
 20
277.38333981058031
 42
-1
  0
VERTEX
  8
0
 10
2607.9482650435793
 20
10.385886121005143
 42
-1
  0
SEQEND
  0
POLYLINE
  8
0
 10
0
 20
0
 39
0
 70
1
 66
1
  0
VERTEX
  8
0
 10
2601.5651376605829
 20
252.63607123458181
 42
-0
  0
VERTEX
  8
0
 10
2601.5215045693194
 20
242.63616660201345
 42
0.16008478403091431
  0
VERTEX
  8
0
 10
2544.3142431249785
 20
219.23206140664175
 42
0
  0
VERTEX
  8
0
 10
2537.2740960045862
 20
226.3339150364514
 42
0.034176722168922424
  0
VERTEX
  8
0
 10
2526.7064280135364
 20
215.85806728535584
 42
-0
  0
VERTEX
  8
0
 10
2533.7465751339287
 20
208.75621365554622
 42
0.16008478403091431
  0
VERTEX
  8
0
 10
2509.8441399067806
 20
151.75536723929383
 42
0
  0
VERTEX
  8
0
 10
2499.8442352742122
 20
151.79900033055731
 42
0.034176722168922424
  0
VERTEX
  8
0
 10
2499.7793085431576
 20
136.918983814429
 42
-0
  0
VERTEX
  8
0
 10
2509.779213175726
 20
136.87535072316552
 42
0.16008478403091431
  0
VERTEX
  8
0
 10
2533.1833183710978
 20
79.668089278824539
 42
0
  0
VERTEX
  8
0
 10
2526.0814647412881
 20
72.627942158432191
 42
0.034176722168922424
  0
VERTEX
  8
0
 10
2536.5573124923835
 20
62.060274167382474
 42
-0
  0
VERTEX
  8
0
 10
2543.6591661221933
 20
69.100421287774822
 42
0.16008478403091431
  0
VERTEX
  8
0
 10
2600.6600125384457
 20
45.197986060626619
 42
0
  0
VERTEX
  8
0
 10
2600.6163794471822
 20
35.198081428058259
 42
0.034176722168922424
  0
VERTEX
  8
0
 10
2615.4963959633105
 20
35.133154697003675
 42
-0
  0
VERTEX
  8
0
 10
2615.540029054574
 20
45.133059329572035
 42
0.16008478403091431
  0
VERTEX
  8
0
 10
2672.7472904989149
 20
68.537164524943734
 42
0
  0
VERTEX
  8
0
 10
2679.7874376193072
 20
61.435310895134094
 42
0.034176722168922424
  0
VERTEX
  8
0
 10
2690.355105610357
 20
71.911158646229623
 42
-0
  0
VERTEX
  8
0
 10
2683.3149584899647
 20
79.013012276039262
 42
0.16008478403091431
  0
VERTEX
  8
0
 10
2707.2173937171128
 20
136.01385869229165
 42
0
  0
VERTEX
  8
0
 10
2717.2172983496812
 20
135.97022560102818
 42
0.034176722168922424
  0
VERTEX
  8
0
 10
2717.2822250807358
 20
150.85024211715648
 42
-0
  0
VERTEX
  8
0
 10
2707.2823204481674
 20
150.89387520841996
 42
0.16008478403091431
  0
VERTEX
  8
0
 10
2683.8782152527956
 20
208.10113665276094
 42
0
  0
VERTEX
  8
0
 10
2690.9800688826053
 20
215.1412837731533
 42
0.034176722168922424
  0
VERTEX
  8
0
 10
2680.5042211315099
 20
225.70895176420299
 42
-0
  0
VERTEX
  8
0
 10
2673.4023675017002
 20
218.66880464381066
 42
0.16008478403091431
  0
VERTEX
  8
0
 10
2616.4015210854477
 20
242.57123987095886
 42
0
  0
VERTEX
  8
0
 10
2616.4451541767112
 20
252.57114450352722
 42
0.034176722168922424
  0
SEQEND
  0
POLYLINE
  8
0
 10
0
 20
0
 39
0
 70
1
 66
1
  0
VERTEX
  8
0
 10
2633.6671147341599
 20
553.93718596442648
 42
-1
  0
VERTEX
  8
0
 10
2632.5021111974252
 20
286.93973227485128
 42
-1
  0
SEQEND
  0
POLYLINE
  8
0
 10
0
 20
0
 39
0
 70
1
 66
1
  0
VERTEX
  8
0
 10
2626.1189838144287
 20
529.18991738842794
 42
-0
  0
VERTEX
  8
0
 10
2626.0753507231652
 20
519.19001275585958
 42
0.16008478403091431
  0
VERTEX
  8
0
 10
2568.8680892788243
 20
495.78590756048789
 42
0
  0
VERTEX
  8
0
 10
2561.8279421584321
 20
502.88776119029751
 42
0.034176722168922424
  0
VERTEX
  8
0
 10
2551.2602741673822
 20
492.41191343920201
 42
-0
  0
VERTEX
  8
0
 10
2558.3004212877745
 20
485.31005980939233
 42
0.16008478403091431
  0
VERTEX
  8
0
 10
2534.3979860606264
 20
428.30921339314
 42
0
  0
VERTEX
  8
0
 10
2524.398081428058
 20
428.35284648440347
 42
0.034176722168922424
  0
VERTEX
  8
0
 10
2524.3331546970035
 20
413.47282996827516
 42
-0
  0
VERTEX
  8
0
 10
2534.3330593295718
 20
413.42919687701169
 42
0.16008478403091431
  0
VERTEX
  8
0
 10
2557.7371645249436
 20
356.22193543267065
 42
0
  0
VERTEX
  8
0
 10
2550.6353108951339
 20
349.18178831227834
 42
0.034176722168922424
  0
VERTEX
  8
0
 10
2561.1111586462293
 20
338.6141203212286
 42
-0
  0
VERTEX
  8
0
 10
2568.2130122760391
 20
345.65426744162096
 42
0.16008478403091431
  0
VERTEX
  8
0
 10
2625.2138586922915
 20
321.75183221447276
 42
0
  0
VERTEX
  8
0
 10
2625.1702256010281
 20
311.7519275819044
 42
0.034176722168922424
  0
VERTEX
  8
0
 10
2640.0502421171564
 20
311.68700085084981
 42
-0
  0
VERTEX
  8
0
 10
2640.0938752084198
 20
321.68690548341817
 42
0.16008478403091431
  0
VERTEX
  8
0
 10
2697.3011366527608
 20
345.09101067878987
 42
0
  0
VERTEX
  8
0
 10
2704.341283773153
 20
337.98915704898025
 42
0.034176722168922424
  0
VERTEX
  8
0
 10
2714.9089517642028
 20
348.46500480007575
 42
-0
  0
VERTEX
  8
0
 10
2707.8688046438106
 20
355.56685842988543
 42
0.16008478403091431
  0
VERTEX
  8
0
 10
2731.7712398709587
 20
412.56770484613776
 42
0
  0
VERTEX
  8
0
 10
2741.771144503527
 20
412.52407175487429
 42
0.034176722168922424
  0
VERTEX
  8
0
 10
2741.8360712345816
 20
427.40408827100259
 42
-0
  0
VERTEX
  8
0
 10
2731.8361666020132
 20
427.44772136226607
 42
0.16008478403091431
  0
VERTEX
  8
0
 10
2708.4320614066414
 20
484.65498280660711
 42
0
  0
VERTEX
  8
0
 10
2715.5339150364512
 20
491.69512992699941
 42
0.034176722168922424
  0
VERTEX
  8
0
 10
2705.0580672853557
 20
502.26279791804916
 42
-0
  0
VERTEX
  8
0
 10
2697.956213655546
 20
495.2226507976568
 42
0.16008478403091431
  0
VERTEX
  8
0
 10
2640.9553672392935
 20
519.125086024805
 42
0
  0
VERTEX
  8
0
 10
2640.999000330557
 20
529.12499065737336
 42
0.034176722168922424
  0
SEQEND
  0
POLYLINE
  8
0
 10
0
 20
0
 39
0
 70
1
 66
1
  0
VERTEX
  8
0
 10
185.7076923076923
 20
221.76923076923077
 42
-0
  0
VERTEX
  8
0
 10
185.7076923076923
 20
299.76923076923077
 42
0
  0
VERTEX
  8
0
 10
191.7076923076923
 20
305.76923076923077
 42
-0
  0
VERTEX
  8
0
 10
239.7076923076923
 20
305.76923076923077
 42
0
  0
VERTEX
  8
0
 10
245.7076923076923
 20
299.76923076923077
 42
0
  0
VERTEX
  8
0
 10
245.7076923076923
 20
276.76923076923077
 42
-0
  0
VERTEX
  8
0
 10
251.7076923076923
 20
270.76923076923077
 42
-0
  0
VERTEX
  8
0
 10
319.7076923076923
 20
270.76923076923077
 42
0
  0
VERTEX
  8
0
 10
325.7076923076923
 20
276.76923076923077
 42
-0
  0
VERTEX
  8
0
 10
325.7076923076923
 20
299.76923076923077
 42
-0
  0
VERTEX
  8
0
 10
331.7076923076923
 20
305.76923076923077
 42
-0
  0
VERTEX
  8
0
 10
379.7076923076923
 20
305.76923076923077
 42
0
  0
VERTEX
  8
0
 10
385.7076923076923
 20
299.76923076923077
 42
-0
  0
VERTEX
  8
0
 10
385.7076923076923
 20
221.76923076923077
 42
0
  0
VERTEX
  8
0
 10
379.7076923076923
 20
215.76923076923077
 42
-0
  0
VERTEX
  8
0
 10
366.7076923076923
 20
215.76923076923077
 42
0
  0
VERTEX
  8
0
 10
360.7076923076923
 20
209.76923076923077
 42
-0
  0
VERTEX
  8
0
 10
360.7076923076923
 20
151.76923076923077
 42
-0
  0
VERTEX
  8
0
 10
366.7076923076923
 20
145.76923076923077
 42
0
  0
VERTEX
  8
0
 10
379.7076923076923
 20
145.76923076923077
 42
-0
  0
VERTEX
  8
0
 10
385.7076923076923
 20
139.76923076923077
 42
-0
  0
VERTEX
  8
0
 10
385.7076923076923
 20
91.769230769230774
 42
0
  0
VERTEX
  8
0
 10
379.7076923076923
 20
85.769230769230774
 42
-0
  0
VERTEX
  8
0
 10
191.7076923076923
 20
85.769230769230759
 42
0
  0
VERTEX
  8
0
 10
185.7076923076923
 20
91.769230769230759
 42
-0
  0
VERTEX
  8
0
 10
185.7076923076923
 20
139.76923076923077
 42
0
  0
VERTEX
  8
0
 10
191.7076923076923
 20
145.76923076923077
 42
0
  0
VERTEX
  8
0
 10
204.7076923076923
 20
145.76923076923077
 42
0
  0
VERTEX
  8
0
 10
210.7076923076923
 20
151.76923076923077
 42
-0
  0
VERTEX
  8
0
 10
210.7076923076923
 20
209.76923076923077
 42
0
  0
VERTEX
  8
0
 10
204.7076923076923
 20
215.76923076923077
 42
-0
  0
VERTEX
  8
0
 10
191.7076923076923
 20
215.76923076923077
 42
0
  0
SEQEND
  0
POLYLINE
  8
0
 10
0
 20
0
 39
0
 70
1
 66
1
  0
VERTEX
  8
0
 10
311.7076923076923
 20
141.96923153217023
 42
-0
  0
VERTEX
  8
0
 10
311.7076923076923
 20
209.5587891798753
 42
0.33088359236717224
  0
VERTEX
  8
0
 10
303.88077275202824
 20
220.09119121844952
 42
0.1473628431558609
  0
VERTEX
  8
0
 10
267.53461949275089
 20
220.09119121844952
 42
0.33088359236717224
  0
VERTEX
  8
0
 10
259.7076923076923
 20
209.5587891798753
 42
0
  0
VERTEX
  8
0
 10
259.7076923076923
 20
141.96923153217023
 42
0.41421356797218323
  0
VERTEX
  8
0
 10
260.90768925593449
 20
140.76923076923077
 42
0
  0
VERTEX
  8
0
 10
310.50769535945011
 20
140.76923076923077
 42
0.41421356797218323
  0
SEQEND
  0
POLYLINE
  8
0
 10
0
 20
0
 39
0
 70
1
 66
1
  0
VERTEX
  8
0
 10
296.6307692307692
 20
821.61538461538453
 42
-0
  0
VERTEX
  8
0
 10
296.6307692307692
 20
899.61538461538453
 42
0
  0
VERTEX
  8
0
 10
302.6307692307692
 20
905.61538461538453
 42
-0
  0
VERTEX
  8
0
 10
350.6307692307692
 20
905.61538461538453
 42
0
  0
VERTEX
  8
0
 10
356.6307692307692
 20
899.61538461538453
 42
0
  0
VERTEX
  8
0
 10
356.6307692307692
 20
876.61538461538453
 42
-0
  0
VERTEX
  8
0
 10
362.6307692307692
 20
870.61538461538453
 42
-0
  0
VERTEX
  8
0
 10
430.6307692307692
 20
870.61538461538453
 42
0
  0
VERTEX
  8
0
 10
436.6307692307692
 20
876.61538461538453
 42
-0
  0
VERTEX
  8
0
 10
436.6307692307692
 20
899.61538461538453
 42
-0
  0
VERTEX
  8
0
 10
442.6307692307692
 20
905.61538461538453
 42
-0
  0
VERTEX
  8
0
 10
490.6307692307692
 20
905.61538461538453
 42
0
  0
VERTEX
  8
0
 10
496.6307692307692
 20
899.61538461538453
 42
-0
  0
VERTEX
  8
0
 10
496.6307692307692
 20
821.61538461538453
 42
0
  0
VERTEX
  8
0
 10
490.6307692307692
 20
815.61538461538453
 42
-0
  0
VERTEX
  8
0
 10
477.6307692307692
 20
815.61538461538453
 42
0
  0
VERTEX
  8
0
 10
471.6307692307692
 20
809.61538461538453
 42
-0
  0
VERTEX
  8
0
 10
471.6307692307692
 20
751.61538461538453
 42
-0
  0
VERTEX
  8
0
 10
477.6307692307692
 20
745.61538461538453
 42
0
  0
VERTEX
  8
0
 10
490.6307692307692
 20
745.61538461538453
 42
-0
  0
VERTEX
  8
0
 10
496.6307692307692
 20
739.61538461538453
 42
-0
  0
VERTEX
  8
0
 10
496.6307692307692
 20
691.61538461538453
 42
0
  0
VERTEX
  8
0
 10
490.6307692307692
 20
685.61538461538453
 42
-0
  0
VERTEX
  8
0
 10
302.6307692307692
 20
685.61538461538453
 42
0
  0
VERTEX
  8
0
 10
296.6307692307692
 20
691.61538461538453
 42
-0
  0
VERTEX
  8
0
 10
296.6307692307692
 20
739.61538461538453
 42
0
  0
VERTEX
  8
0
 10
302.6307692307692
 20
745.61538461538453
 42
0
  0
VERTEX
  8
0
 10
315.6307692307692
 20
745.61538461538453
 42
0
  0
VERTEX
  8
0
 10
321.6307692307692
 20
751.61538461538453
 42
-0
  0
VERTEX
  8
0
 10
321.6307692307692
 20
809.61538461538453
 42
0
  0
VERTEX
  8
0
 10
315.6307692307692
 20
815.61538461538453
 42
-0
  0
VERTEX
  8
0
 10
302.6307692307692
 20
815.61538461538453
 42
0
  0
SEQEND
  0
POLYLINE
  8
0
 10
0
 20
0
 39
0
 70
1
 66
1
  0
VERTEX
  8
0
 10
422.6307692307692
 20
741.81538537832398
 42
-0
  0
VERTEX
  8
0
 10
422.6307692307692
 20
809.40494302602906
 42
0.33088359236717224
  0
VERTEX
  8
0
 10
414.80384967510514
 20
819.93734506460328
 42
0.1473628431558609
  0
VERTEX
  8
0
 10
378.4576964158278
 20
819.93734506460328
 42
0.33088359236717224
  0
VERTEX
  8
0
 10
370.6307692307692
 20
809.40494302602906
 42
0
  0
VERTEX
  8
0
 10
370.6307692307692
 20
741.81538537832398
 42
0.41421356797218323
  0
VERTEX
  8
0
 10
371.83076617901139
 20
740.61538461538453
 42
0
  0
VERTEX
  8
0
 10
421.43077228252702
 20
740.61538461538453
 42
0.41421356797218323
  0
SEQEND
  0
POLYLINE
  8
0
 10
0
 20
0
 39
0
 70
1
 66
1
  0
VERTEX
  8
0
 10
906.81538461538457
 20
221.76923076923077
 42
-0
  0
VERTEX
  8
0
 10
906.81538461538457
 20
299.76923076923077
 42
0
  0
VERTEX
  8
0
 10
912.81538461538457
 20
305.76923076923077
 42
-0
  0
VERTEX
  8
0
 10
960.81538461538457
 20
305.76923076923077
 42
0
  0
VERTEX
  8
0
 10
966.81538461538457
 20
299.76923076923077
 42
0
  0
VERTEX
  8
0
 10
966.81538461538457
 20
276.76923076923077
 42
-0
  0
VERTEX
  8
0
 10
972.81538461538457
 20
270.76923076923077
 42
-0
  0
VERTEX
  8
0
 10
1040.8153846153846
 20
270.76923076923077
 42
0
  0
VERTEX
  8
0
 10
1046.8153846153846
 20
276.76923076923077
 42
-0
  0
VERTEX
  8
0
 10
1046.8153846153846
 20
299.76923076923077
 42
-0
  0
VERTEX
  8
0
 10
1052.8153846153846
 20
305.76923076923077
 42
-0
  0
VERTEX
  8
0
 10
1100.8153846153846
 20
305.76923076923077
 42
0
  0
VERTEX
  8
0
 10
1106.8153846153846
 20
299.76923076923077
 42
-0
  0
VERTEX
  8
0
 10
1106.8153846153846
 20
221.76923076923077
 42
0
  0
VERTEX
  8
0
 10
1100.8153846153846
 20
215.76923076923077
 42
-0
  0
VERTEX
  8
0
 10
1087.8153846153846
 20
215.76923076923077
 42
0
  0
VERTEX
  8
0
 10
1081.8153846153846
 20
209.76923076923077
 42
-0
  0
VERTEX
  8
0
 10
1081.8153846153846
 20
151.76923076923077
 42
-0
  0
VERTEX
  8
0
 10
1087.8153846153846
 20
145.76923076923077
 42
0
  0
VERTEX
  8
0
 10
1100.8153846153846
 20
145.76923076923077
 42
-0
  0
VERTEX
  8
0
 10
1106.8153846153846
 20
139.76923076923077
 42
-0
  0
VERTEX
  8
0
 10
1106.8153846153846
 20
91.769230769230774
 42
0
  0
VERTEX
  8
0
 10
1100.8153846153846
 20
85.769230769230774
 42
-0
  0
VERTEX
  8
0
 10
912.81538461538457
 20
85.769230769230759
 42
0
  0
VERTEX
  8
0
 10
906.81538461538457
 20
91.769230769230759
 42
-0
  0
VERTEX
  8
0
 10
906.81538461538457
 20
139.76923076923077
 42
0
  0
VERTEX
  8
0
 10
912.81538461538457
 20
145.76923076923077
 42
0
  0
VERTEX
  8
0
 10
925.81538461538457
 20
145.76923076923077
 42
0
  0
VERTEX
  8
0
 10
931.81538461538457
 20
151.76923076923077
 42
-0
  0
VERTEX
  8
0
 10
931.81538461538457
 20
209.76923076923077
 42
0
  0
VERTEX
  8
0
 10
925.81538461538457
 20
215.76923076923077
 42
-0
  0
VERTEX
  8
0
 10
912.81538461538457
 20
215.76923076923077
 42
0
  0
SEQEND
  0
POLYLINE
  8
0
 10
0
 20
0
 39
0
 70
1
 66
1
  0
VERTEX
  8
0
 10
1032.8153846153846
 20
141.96923153217023
 42
-0
  0
VERTEX
  8
0
 10
1032.8153846153846
 20
209.5587891798753
 42
0.33088359236717224
  0
VERTEX
  8
0
 10
1024.9884650597205
 20
220.09119121844952
 42
0.1473628431558609
  0
VERTEX
  8
0
 10
988.64231180044317
 20
220.09119121844952
 42
0.33088359236717224
  0
VERTEX
  8
0
 10
980.81538461538457
 20
209.5587891798753
 42
0
  0
VERTEX
  8
0
 10
980.81538461538457
 20
141.96923153217023
 42
0.41421356797218323
  0
VERTEX
  8
0
 10
982.01538156362676
 20
140.76923076923077
 42
0
  0
VERTEX
  8
0
 10
1031.6153876671424
 20
140.76923076923077
 42
0.41421356797218323
  0
SEQEND
  0
POLYLINE
  8
0
 10
0
 20
0
 39
0
 70
1
 66
1
  0
VERTEX
  8
0
 10
1017.7384615384615
 20
821.61538461538453
 42
-0
  0
VERTEX
  8
0
 10
1017.7384615384615
 20
899.61538461538453
 42
0
  0
VERTEX
  8
0
 10
1023.7384615384615
 20
905.61538461538453
 42
-0
  0
VERTEX
  8
0
 10
1071.7384615384615
 20
905.61538461538453
 42
0
  0
VERTEX
  8
0
 10
1077.7384615384615
 20
899.61538461538453
 42
0
  0
VERTEX
  8
0
 10
1077.7384615384615
 20
876.61538461538453
 42
-0
  0
VERTEX
  8
0
 10
1083.7384615384615
 20
870.61538461538453
 42
-0
  0
VERTEX
  8
0
 10
1151.7384615384615
 20
870.61538461538453
 42
0
  0
VERTEX
  8
0
 10
1157.7384615384615
 20
876.61538461538453
 42
-0
  0
VERTEX
  8
0
 10
1157.7384615384615
 20
899.61538461538453
 42
-0
  0
VERTEX
  8
0
 10
1163.7384615384615
 20
905.61538461538453
 42
-0
  0
VERTEX
  8
0
 10
1211.7384615384615
 20
905.61538461538453
 42
0
  0
VERTEX
  8
0
 10
1217.7384615384615
 20
899.61538461538453
 42
-0
  0
VERTEX
  8
0
 10
1217.7384615384615
 20
821.61538461538453
 42
0
  0
VERTEX
  8
0
 10
1211.7384615384615
 20
815.61538461538453
 42
-0
  0
VERTEX
  8
0
 10
1198.7384615384615
 20
815.61538461538453
 42
0
  0
VERTEX
  8
0
 10
1192.7384615384615
 20
809.61538461538453
 42
-0
  0
VERTEX
  8
0
 10
1192.7384615384615
 20
751.61538461538453
 42
-0
  0
VERTEX
  8
0
 10
1198.7384615384615
 20
745.61538461538453
 42
0
  0
VERTEX
  8
0
 10
1211.7384615384615
 20
745.61538461538453
 42
-0
  0
VERTEX
  8
0
 10
1217.7384615384615
 20
739.61538461538453
 42
-0
  0
VERTEX
  8
0
 10
1217.7384615384615
 20
691.61538461538453
 42
0
  0
VERTEX
  8
0
 10
1211.7384615384615
 20
685.61538461538453
 42
-0
  0
VERTEX
  8
0
 10
1023.7384615384615
 20
685.61538461538453
 42
0
  0
VERTEX
  8
0
 10
1017.7384615384615
 20
691.61538461538453
 42
-0
  0
VERTEX
  8
0
 10
1017.7384615384615
 20
739.61538461538453
 42
0
  0
VERTEX
  8
0
 10
1023.7384615384615
 20
745.61538461538453
 42
0
  0
VERTEX
  8
0
 10
1036.7384615384615
 20
745.61538461538453
 42
0
  0
VERTEX
  8
0
 10
1042.7384615384615
 20
751.61538461538453
 42
-0
  0
VERTEX
  8
0
 10
1042.7384615384615
 20
809.61538461538453
 42
0
  0
VERTEX
  8
0
 10
1036.7384615384615
 20
815.61538461538453
 42
-0
  0
VERTEX
  8
0
 10
1023.7384615384615
 20
815.61538461538453
 42
0
  0
SEQEND
  0
POLYLINE
  8
0
 10
0
 20
0
 39
0
 70
1
 66
1
  0
VERTEX
  8
0
 10
1143.7384615384615
 20
741.81538537832398
 42
-0
  0
VERTEX
  8
0
 10
1143.7384615384615
 20
809.40494302602906
 42
0.33088359236717224
  0
VERTEX
  8
0
 10
1135.9115419827974
 20
819.93734506460328
 42
0.1473628431558609
  0
VERTEX
  8
0
 10
1099.5653887235201
 20
819.93734506460328
 42
0.33088359236717224
  0
VERTEX
  8
0
 10
1091.7384615384615
 20
809.40494302602906
 42
0
  0
VERTEX
  8
0
 10
1091.7384615384615
 20
741.81538537832398
 42
0.41421356797218323
  0
VERTEX
  8
0
 10
1092.9384584867037
 20
740.61538461538453
 42
0
  0
VERTEX
  8
0
 10
1142.5384645902193
 20
740.61538461538453
 42
0.41421356797218323
  0
SEQEND
  0
POLYLINE
  8
0
 10
0
 20
0
 39
0
 70
1
 66
1
  0
VERTEX
  8
0
 10
110.38462301400992
 20
1122.5384615384614
 42
0
  0
VERTEX
  8
0
 10
110.38462301400992
 20
1089.5384615384614
 42
0
  0
VERTEX
  8
0
 10
80.384623014009918
 20
1089.5384615384614
 42
0
  0
VERTEX
  8
0
 10
80.384623014009918
 20
1030.5384615384614
 42
0
  0
VERTEX
  8
0
 10
70.384623014009918
 20
1020.5384615384614
 42
0
  0
VERTEX
  8
0
 10
10.384615384615387
 20
1020.5384615384614
 42
0
  0
VERTEX
  8
0
 10
10.384615384615387
 20
1030.5384615384614
 42
0
  0
VERTEX
  8
0
 10
36.725962125338029
 20
1179.927644582895
 42
-0.36396992206573486
  0
VERTEX
  8
0
 10
44.604425870455216
 20
1186.538469167856
 42
0
  0
VERTEX
  8
0
 10
119.38462301400992
 20
1186.538469167856
 42
-1
  0
VERTEX
  8
0
 10
119.38462301400992
 20
1126.5384615384614
 42
0
  0
VERTEX
  8
0
 10
114.38460775522086
 20
1126.5384615384614
 42
0.41421392560005188
  0
SEQEND
  0
POLYLINE
  8
0
 10
0
 20
0
 39
0
 70
1
 66
1
  0
VERTEX
  8
0
 10
116.38462301400992
 20
1148.538469167856
 42
1
  0
VERTEX
  8
0
 10
116.38462301400992
 20
1164.538469167856
 42
1
  0
SEQEND
  0
POLYLINE
  8
0
 10
0
 20
0
 39
0
 70
1
 66
1
  0
VERTEX
  8
0
 10
66.384623014009918
 20
1155.9384630643403
 42
1
  0
VERTEX
  8
0
 10
66.384623014009918
 20
1169.1384752713716
 42
1
  0
SEQEND
  0
POLYLINE
  8
0
 10
0
 20
0
 39
0
 70
1
 66
1
  0
VERTEX
  8
0
 10
129.58782267602771
 20
1084.538469167856
 42
0
  0
VERTEX
  8
0
 10
129.58782267602771
 20
1117.538469167856
 42
0
  0
VERTEX
  8
0
 10
159.58782267602771
 20
1117.538469167856
 42
0
  0
VERTEX
  8
0
 10
159.58782267602771
 20
1176.538469167856
 42
0
  0
VERTEX
  8
0
 10
169.58782267602771
 20
1186.538469167856
 42
0
  0
VERTEX
  8
0
 10
229.58783030542224
 20
1186.538469167856
 42
0
  0
VERTEX
  8
0
 10
229.58783030542224
 20
1176.538469167856
 42
0
  0
VERTEX
  8
0
 10
203.24648356469959
 20
1027.1492861234224
 42
-0.36396992206573486
  0
VERTEX
  8
0
 10
195.3680198195824
 20
1020.5384615384614
 42
0
  0
VERTEX
  8
0
 10
120.58782267602771
 20
1020.5384615384614
 42
-1
  0
VERTEX
  8
0
 10
120.58782267602771
 20
1080.538469167856
 42
0
  0
VERTEX
  8
0
 10
125.58783793481678
 20
1080.538469167856
 42
0.41421392560005188
  0
SEQEND
  0
POLYLINE
  8
0
 10
0
 20
0
 39
0
 70
1
 66
1
  0
VERTEX
  8
0
 10
123.58782267602771
 20
1058.5384615384614
 42
1
  0
VERTEX
  8
0
 10
123.58782267602771
 20
1042.5384615384614
 42
1
  0
SEQEND
  0
POLYLINE
  8
0
 10
0
 20
0
 39
0
 70
1
 66
1
  0
VERTEX
  8
0
 10
173.58782267602771
 20
1051.1384676419771
 42
1
  0
VERTEX
  8
0
 10
173.58782267602771
 20
1037.9384554349458
 42
1
  0
SEQEND
  0
POLYLINE
  8
0
 10
0
 20
0
 39
0
 70
1
 66
1
  0
VERTEX
  8
0
 10
314.78462301400987
 20
1122.5384615384614
 42
0
  0
VERTEX
  8
0
 10
314.78462301400987
 20
1089.5384615384614
 42
0
  0
VERTEX
  8
0
 10
284.78462301400987
 20
1089.5384615384614
 42
0
  0
VERTEX
  8
0
 10
284.78462301400987
 20
1030.5384615384614
 42
0
  0
VERTEX
  8
0
 10
274.78462301400987
 20
1020.5384615384614
 42
0
  0
VERTEX
  8
0
 10
214.78461538461536
 20
1020.5384615384614
 42
0
  0
VERTEX
  8
0
 10
214.78461538461536
 20
1030.5384615384614
 42
0
  0
VERTEX
  8
0
 10
241.12596212533799
 20
1179.927644582895
 42
-0.36396992206573486
  0
VERTEX
  8
0
 10
249.00442587045518
 20
1186.538469167856
 42
0
  0
VERTEX
  8
0
 10
323.78462301400987
 20
1186.538469167856
 42
-1
  0
VERTEX
  8
0
 10
323.78462301400987
 20
1126.5384615384614
 42
0
  0
VERTEX
  8
0
 10
318.7846077552208
 20
1126.5384615384614
 42
0.41421392560005188
  0
SEQEND
  0
POLYLINE
  8
0
 10
0
 20
0
 39
0
 70
1
 66
1
  0
VERTEX
  8
0
 10
320.78462301400987
 20
1148.538469167856
 42
1
  0
VERTEX
  8
0
 10
320.78462301400987
 20
1164.538469167856
 42
1
  0
SEQEND
  0
POLYLINE
  8
0
 10
0
 20
0
 39
0
 70
1
 66
1
  0
VERTEX
  8
0
 10
270.78462301400987
 20
1155.9384630643403
 42
1
  0
VERTEX
  8
0
 10
270.78462301400987
 20
1169.1384752713716
 42
1
  0
SEQEND
  0
POLYLINE
  8
0
 10
0
 20
0
 39
0
 70
1
 66
1
  0
VERTEX
  8
0
 10
333.98782267602769
 20
1084.538469167856
 42
0
  0
VERTEX
  8
0
 10
333.98782267602769
 20
1117.538469167856
 42
0
  0
VERTEX
  8
0
 10
363.98782267602769
 20
1117.538469167856
 42
0
  0
VERTEX
  8
0
 10
363.98782267602769
 20
1176.538469167856
 42
0
  0
VERTEX
  8
0
 10
373.98782267602769
 20
1186.538469167856
 42
0
  0
VERTEX
  8
0
 10
433.98783030542222
 20
1186.538469167856
 42
0
  0
VERTEX
  8
0
 10
433.98783030542222
 20
1176.538469167856
 42
0
  0
VERTEX
  8
0
 10
407.64648356469957
 20
1027.1492861234224
 42
-0.36396992206573486
  0
VERTEX
  8
0
 10
399.76801981958238
 20
1020.5384615384614
 42
0
  0
VERTEX
  8
0
 10
324.98782267602769
 20
1020.5384615384614
 42
-1
  0
VERTEX
  8
0
 10
324.98782267602769
 20
1080.538469167856
 42
0
  0
VERTEX
  8
0
 10
329.98783793481675
 20
1080.538469167856
 42
0.41421392560005188
  0
SEQEND
  0
POLYLINE
  8
0
 10
0
 20
0
 39
0
 70
1
 66
1
  0
VERTEX
  8
0
 10
327.98782267602769
 20
1058.5384615384614
 42
1
  0
VERTEX
  8
0
 10
327.98782267602769
 20
1042.5384615384614
 42
1
  0
SEQEND
  0
POLYLINE
  8
0
 10
0
 20
0
 39
0
 70
1
 66
1
  0
VERTEX
  8
0
 10
377.98782267602769
 20
1051.1384676419771
 42
1
  0
VERTEX
  8
0
 10
377.98782267602769
 20
1037.9384554349458
 42
1
  0
SEQEND
  0
POLYLINE
  8
0
 10
0
 20
0
 39
0
 70
1
 66
1
  0
VERTEX
  8
0
 10
320.60000762939455
 20
522.69230769230774
 42
0
  0
VERTEX
  8
0
 10
320.60000762939455
 20
489.69230769230768
 42
0
  0
VERTEX
  8
0
 10
290.60000762939455
 20
489.69230769230768
 42
0
  0
VERTEX
  8
0
 10
290.60000762939455
 20
430.69230769230768
 42
0
  0
VERTEX
  8
0
 10
280.60000762939455
 20
420.69230769230768
 42
0
  0
VERTEX
  8
0
 10
220.59999999999999
 20
420.69230769230768
 42
0
  0
VERTEX
  8
0
 10
220.59999999999999
 20
430.69230769230768
 42
0
  0
VERTEX
  8
0
 10
246.94134674072262
 20
580.08149073674122
 42
-0.36396992206573486
  0
VERTEX
  8
0
 10
254.81981048583981
 20
586.69231532170215
 42
0
  0
VERTEX
  8
0
 10
329.60000762939455
 20
586.69231532170215
 42
-1
  0
VERTEX
  8
0
 10
329.60000762939455
 20
526.69230769230774
 42
0
  0
VERTEX
  8
0
 10
324.59999237060549
 20
526.69230769230774
 42
0.41421392560005188
  0
SEQEND
  0
POLYLINE
  8
0
 10
0
 20
0
 39
0
 70
1
 66
1
  0
VERTEX
  8
0
 10
326.60000762939455
 20
548.69231532170215
 42
1
  0
VERTEX
  8
0
 10
326.60000762939455
 20
564.69231532170215
 42
1
  0
SEQEND
  0
POLYLINE
  8
0
 10
0
 20
0
 39
0
 70
1
 66
1
  0
VERTEX
  8
0
 10
276.60000762939455
 20
556.09230921818653
 42
1
  0
VERTEX
  8
0
 10
276.60000762939455
 20
569.29232142521778
 42
1
  0
SEQEND
  0
POLYLINE
  8
0
 10
0
 20
0
 39
0
 70
1
 66
1
  0
VERTEX
  8
0
 10
339.80320729141238
 20
484.69231532170215
 42
0
  0
VERTEX
  8
0
 10
339.80320729141238
 20
517.69231532170215
 42
0
  0
VERTEX
  8
0
 10
369.80320729141238
 20
517.69231532170215
 42
0
  0
VERTEX
  8
0
 10
369.80320729141238
 20
576.69231532170215
 42
0
  0
VERTEX
  8
0
 10
379.80320729141238
 20
586.69231532170215
 42
0
  0
VERTEX
  8
0
 10
439.80321492080691
 20
586.69231532170215
 42
0
  0
VERTEX
  8
0
 10
439.80321492080691
 20
576.69231532170215
 42
0
  0
VERTEX
  8
0
 10
413.46186818008425
 20
427.30313227726856
 42
-0.36396992206573486
  0
VERTEX
  8
0
 10
405.58340443496706
 20
420.69230769230762
 42
0
  0
VERTEX
  8
0
 10
330.80320729141238
 20
420.69230769230762
 42
-1
  0
VERTEX
  8
0
 10
330.80320729141238
 20
480.69231532170215
 42
0
  0
VERTEX
  8
0
 10
335.80322255020144
 20
480.69231532170215
 42
0.41421392560005188
  0
SEQEND
  0
POLYLINE
  8
0
 10
0
 20
0
 39
0
 70
1
 66
1
  0
VERTEX
  8
0
 10
333.80320729141238
 20
458.69230769230762
 42
1
  0
VERTEX
  8
0
 10
333.80320729141238
 20
442.69230769230762
 42
1
  0
SEQEND
  0
POLYLINE
  8
0
 10
0
 20
0
 39
0
 70
1
 66
1
  0
VERTEX
  8
0
 10
383.80320729141238
 20
451.29231379582325
 42
1
  0
VERTEX
  8
0
 10
383.80320729141238
 20
438.092301588792
 42
1
  0
SEQEND
  0
POLYLINE
  8
0
 10
0
 20
0
 39
0
 70
1
 66
1
  0
VERTEX
  8
0
 10
519.18462301400996
 20
1122.5384615384614
 42
0
  0
VERTEX
  8
0
 10
519.18462301400996
 20
1089.5384615384614
 42
0
  0
VERTEX
  8
0
 10
489.1846230140099
 20
1089.5384615384614
 42
0
  0
VERTEX
  8
0
 10
489.1846230140099
 20
1030.5384615384614
 42
0
  0
VERTEX
  8
0
 10
479.1846230140099
 20
1020.5384615384614
 42
0
  0
VERTEX
  8
0
 10
419.18461538461537
 20
1020.5384615384614
 42
0
  0
VERTEX
  8
0
 10
419.18461538461537
 20
1030.5384615384614
 42
0
  0
VERTEX
  8
0
 10
445.52596212533803
 20
1179.927644582895
 42
-0.36396992206573486
  0
VERTEX
  8
0
 10
453.40442587045521
 20
1186.538469167856
 42
0
  0
VERTEX
  8
0
 10
528.18462301400996
 20
1186.538469167856
 42
-1
  0
VERTEX
  8
0
 10
528.18462301400996
 20
1126.5384615384614
 42
0
  0
VERTEX
  8
0
 10
523.1846077552209
 20
1126.5384615384614
 42
0.41421392560005188
  0
SEQEND
  0
POLYLINE
  8
0
 10
0
 20
0
 39
0
 70
1
 66
1
  0
VERTEX
  8
0
 10
525.18462301400996
 20
1148.538469167856
 42
1
  0
VERTEX
  8
0
 10
525.18462301400996
 20
1164.538469167856
 42
1
  0
SEQEND
  0
POLYLINE
  8
0
 10
0
 20
0
 39
0
 70
1
 66
1
  0
VERTEX
  8
0
 10
475.1846230140099
 20
1155.9384630643403
 42
1
  0
VERTEX
  8
0
 10
475.1846230140099
 20
1169.1384752713716
 42
1
  0
SEQEND
  0
POLYLINE
  8
0
 10
0
 20
0
 39
0
 70
1
 66
1
  0
VERTEX
  8
0
 10
538.38782267602778
 20
1084.538469167856
 42
0
  0
VERTEX
  8
0
 10
538.38782267602778
 20
1117.538469167856
 42
0
  0
VERTEX
  8
0
 10
568.38782267602778
 20
1117.538469167856
 42
0
  0
VERTEX
  8
0
 10
568.38782267602778
 20
1176.538469167856
 42
0
  0
VERTEX
  8
0
 10
578.38782267602778
 20
1186.538469167856
 42
0
  0
VERTEX
  8
0
 10
638.38783030542231
 20
1186.538469167856
 42
0
  0
VERTEX
  8
0
 10
638.38783030542231
 20
1176.538469167856
 42
0
  0
VERTEX
  8
0
 10
612.04648356469966
 20
1027.1492861234224
 42
-0.36396992206573486
  0
VERTEX
  8
0
 10
604.16801981958247
 20
1020.5384615384614
 42
0
  0
VERTEX
  8
0
 10
529.38782267602778
 20
1020.5384615384614
 42
-1
  0
VERTEX
  8
0
 10
529.38782267602778
 20
1080.538469167856
 42
0
  0
VERTEX
  8
0
 10
534.38783793481684
 20
1080.538469167856
 42
0.41421392560005188
  0
SEQEND
  0
POLYLINE
  8
0
 10
0
 20
0
 39
0
 70
1
 66
1
  0
VERTEX
  8
0
 10
532.38782267602778
 20
1058.5384615384614
 42
1
  0
VERTEX
  8
0
 10
532.38782267602778
 20
1042.5384615384614
 42
1
  0
SEQEND
  0
POLYLINE
  8
0
 10
0
 20
0
 39
0
 70
1
 66
1
  0
VERTEX
  8
0
 10
582.38782267602778
 20
1051.1384676419771
 42
1
  0
VERTEX
  8
0
 10
582.38782267602778
 20
1037.9384554349458
 42
1
  0
SEQEND
  0
POLYLINE
  8
0
 10
0
 20
0
 39
0
 70
1
 66
1
  0
VERTEX
  8
0
 10
723.80000762939449
 20
1122.5384615384614
 42
0
  0
VERTEX
  8
0
 10
723.80000762939449
 20
1089.5384615384614
 42
0
  0
VERTEX
  8
0
 10
693.80000762939449
 20
1089.5384615384614
 42
0
  0
VERTEX
  8
0
 10
693.80000762939449
 20
1030.5384615384614
 42
0
  0
VERTEX
  8
0
 10
683.80000762939449
 20
1020.5384615384614
 42
0
  0
VERTEX
  8
0
 10
623.79999999999995
 20
1020.5384615384614
 42
0
  0
VERTEX
  8
0
 10
623.79999999999995
 20
1030.5384615384614
 42
0
  0
VERTEX
  8
0
 10
650.14134674072261
 20
1179.927644582895
 42
-0.36396992206573486
  0
VERTEX
  8
0
 10
658.0198104858398
 20
1186.538469167856
 42
0
  0
VERTEX
  8
0
 10
732.80000762939449
 20
1186.538469167856
 42
-1
  0
VERTEX
  8
0
 10
732.80000762939449
 20
1126.5384615384614
 42
0
  0
VERTEX
  8
0
 10
727.79999237060542
 20
1126.5384615384614
 42
0.41421392560005188
  0
SEQEND
  0
POLYLINE
  8
0
 10
0
 20
0
 39
0
 70
1
 66
1
  0
VERTEX
  8
0
 10
729.80000762939449
 20
1148.538469167856
 42
1
  0
VERTEX
  8
0
 10
729.80000762939449
 20
1164.538469167856
 42
1
  0
SEQEND
  0
POLYLINE
  8
0
 10
0
 20
0
 39
0
 70
1
 66
1
  0
VERTEX
  8
0
 10
679.80000762939449
 20
1155.9384630643403
 42
1
  0
VERTEX
  8
0
 10
679.80000762939449
 20
1169.1384752713716
 42
1
  0
SEQEND
  0
POLYLINE
  8
0
 10
0
 20
0
 39
0
 70
1
 66
1
  0
VERTEX
  8
0
 10
743.00320729141231
 20
1084.538469167856
 42
0
  0
VERTEX
  8
0
 10
743.00320729141231
 20
1117.538469167856
 42
0
  0
VERTEX
  8
0
 10
773.00320729141231
 20
1117.538469167856
 42
0
  0
VERTEX
  8
0
 10
773.00320729141231
 20
1176.538469167856
 42
0
  0
VERTEX
  8
0
 10
783.00320729141231
 20
1186.538469167856
 42
0
  0
VERTEX
  8
0
 10
843.00321492080684
 20
1186.538469167856
 42
0
  0
VERTEX
  8
0
 10
843.00321492080684
 20
1176.538469167856
 42
0
  0
VERTEX
  8
0
 10
816.66186818008418
 20
1027.1492861234224
 42
-0.36396992206573486
  0
VERTEX
  8
0
 10
808.783404434967
 20
1020.5384615384614
 42
0
  0
VERTEX
  8
0
 10
734.00320729141231
 20
1020.5384615384614
 42
-1
  0
VERTEX
  8
0
 10
734.00320729141231
 20
1080.538469167856
 42
0
  0
VERTEX
  8
0
 10
739.00322255020137
 20
1080.538469167856
 42
0.41421392560005188
  0
SEQEND
  0
POLYLINE
  8
0
 10
0
 20
0
 39
0
 70
1
 66
1
  0
VERTEX
  8
0
 10
737.00320729141231
 20
1058.5384615384614
 42
1
  0
VERTEX
  8
0
 10
737.00320729141231
 20
1042.5384615384614
 42
1
  0
SEQEND
  0
POLYLINE
  8
0
 10
0
 20
0
 39
0
 70
1
 66
1
  0
VERTEX
  8
0
 10
787.00320729141231
 20
1051.1384676419771
 42
1
  0
VERTEX
  8
0
 10
787.00320729141231
 20
1037.9384554349458
 42
1
  0
SEQEND
  0
POLYLINE
  8
0
 10
0
 20
0
 39
0
 70
1
 66
1
  0
VERTEX
  8
0
 10
928.20000762939446
 20
1122.5384615384614
 42
0
  0
VERTEX
  8
0
 10
928.20000762939446
 20
1089.5384615384614
 42
0
  0
VERTEX
  8
0
 10
898.20000762939446
 20
1089.5384615384614
 42
0
  0
VERTEX
  8
0
 10
898.20000762939446
 20
1030.5384615384614
 42
0
  0
VERTEX
  8
0
 10
888.20000762939446
 20
1020.5384615384614
 42
0
  0
VERTEX
  8
0
 10
828.19999999999993
 20
1020.5384615384614
 42
0
  0
VERTEX
  8
0
 10
828.19999999999993
 20
1030.5384615384614
 42
0
  0
VERTEX
  8
0
 10
854.54134674072259
 20
1179.927644582895
 42
-0.36396992206573486
  0
VERTEX
  8
0
 10
862.41981048583978
 20
1186.538469167856
 42
0
  0
VERTEX
  8
0
 10
937.20000762939446
 20
1186.538469167856
 42
-1
  0
VERTEX
  8
0
 10
937.20000762939446
 20
1126.5384615384614
 42
0
  0
VERTEX
  8
0
 10
932.1999923706054
 20
1126.5384615384614
 42
0.41421392560005188
  0
SEQEND
  0
POLYLINE
  8
0
 10
0
 20
0
 39
0
 70
1
 66
1
  0
VERTEX
  8
0
 10
934.20000762939446
 20
1148.538469167856
 42
1
  0
VERTEX
  8
0
 10
934.20000762939446
 20
1164.538469167856
 42
1
  0
SEQEND
  0
POLYLINE
  8
0
 10
0
 20
0
 39
0
 70
1
 66
1
  0
VERTEX
  8
0
 10
884.20000762939446
 20
1155.9384630643403
 42
1
  0
VERTEX
  8
0
 10
884.20000762939446
 20
1169.1384752713716
 42
1
  0
SEQEND
  0
POLYLINE
  8
0
 10
0
 20
0
 39
0
 70
1
 66
1
  0
VERTEX
  8
0
 10
947.4032072914124
 20
1084.538469167856
 42
0
  0
VERTEX
  8
0
 10
947.4032072914124
 20
1117.538469167856
 42
0
  0
VERTEX
  8
0
 10
977.4032072914124
 20
1117.538469167856
 42
0
  0
VERTEX
  8
0
 10
977.4032072914124
 20
1176.538469167856
 42
0
  0
VERTEX
  8
0
 10
987.4032072914124
 20
1186.538469167856
 42
0
  0
VERTEX
  8
0
 10
1047.4032149208069
 20
1186.538469167856
 42
0
  0
VERTEX
  8
0
 10
1047.4032149208069
 20
1176.538469167856
 42
0
  0
VERTEX
  8
0
 10
1021.0618681800843
 20
1027.1492861234224
 42
-0.36396992206573486
  0
VERTEX
  8
0
 10
1013.1834044349671
 20
1020.5384615384614
 42
0
  0
VERTEX
  8
0
 10
938.4032072914124
 20
1020.5384615384614
 42
-1
  0
VERTEX
  8
0
 10
938.4032072914124
 20
1080.538469167856
 42
0
  0
VERTEX
  8
0
 10
943.40322255020146
 20
1080.538469167856
 42
0.41421392560005188
  0
SEQEND
  0
POLYLINE
  8
0
 10
0
 20
0
 39
0
 70
1
 66
1
  0
VERTEX
  8
0
 10
941.4032072914124
 20
1058.5384615384614
 42
1
  0
VERTEX
  8
0
 10
941.4032072914124
 20
1042.5384615384614
 42
1
  0
SEQEND
  0
POLYLINE
  8
0
 10
0
 20
0
 39
0
 70
1
 66
1
  0
VERTEX
  8
0
 10
991.4032072914124
 20
1051.1384676419771
 42
1
  0
VERTEX
  8
0
 10
991.4032072914124
 20
1037.9384554349458
 42
1
  0
SEQEND
  0
POLYLINE
  8
0
 10
0
 20
0
 39
0
 70
1
 66
1
  0
VERTEX
  8
0
 10
1041.7076999370868
 20
522.69230769230774
 42
0
  0
VERTEX
  8
0
 10
1041.7076999370868
 20
489.69230769230768
 42
0
  0
VERTEX
  8
0
 10
1011.7076999370868
 20
489.69230769230768
 42
0
  0
VERTEX
  8
0
 10
1011.7076999370868
 20
430.69230769230768
 42
0
  0
VERTEX
  8
0
 10
1001.7076999370868
 20
420.69230769230768
 42
0
  0
VERTEX
  8
0
 10
941.70769230769224
 20
420.69230769230768
 42
0
  0
VERTEX
  8
0
 10
941.70769230769224
 20
430.69230769230768
 42
0
  0
VERTEX
  8
0
 10
968.0490390484149
 20
580.08149073674122
 42
-0.36396992206573486
  0
VERTEX
  8
0
 10
975.92750279353208
 20
586.69231532170215
 42
0
  0
VERTEX
  8
0
 10
1050.7076999370868
 20
586.69231532170215
 42
-1
  0
VERTEX
  8
0
 10
1050.7076999370868
 20
526.69230769230774
 42
0
  0
VERTEX
  8
0
 10
1045.7076846782977
 20
526.69230769230774
 42
0.41421392560005188
  0
SEQEND
  0
POLYLINE
  8
0
 10
0
 20
0
 39
0
 70
1
 66
1
  0
VERTEX
  8
0
 10
1047.7076999370868
 20
548.69231532170215
 42
1
  0
VERTEX
  8
0
 10
1047.7076999370868
 20
564.69231532170215
 42
1
  0
SEQEND
  0
POLYLINE
  8
0
 10
0
 20
0
 39
0
 70
1
 66
1
  0
VERTEX
  8
0
 10
997.70769993708677
 20
556.09230921818653
 42
1
  0
VERTEX
  8
0
 10
997.70769993708677
 20
569.29232142521778
 42
1
  0
SEQEND
  0
POLYLINE
  8
0
 10
0
 20
0
 39
0
 70
1
 66
1
  0
VERTEX
  8
0
 10
1060.9108995991046
 20
484.69231532170215
 42
0
  0
VERTEX
  8
0
 10
1060.9108995991046
 20
517.69231532170215
 42
0
  0
VERTEX
  8
0
 10
1090.9108995991046
 20
517.69231532170215
 42
0
  0
VERTEX
  8
0
 10
1090.9108995991046
 20
576.69231532170215
 42
0
  0
VERTEX
  8
0
 10
1100.9108995991046
 20
586.69231532170215
 42
0
  0
VERTEX
  8
0
 10
1160.9109072284991
 20
586.69231532170215
 42
0
  0
VERTEX
  8
0
 10
1160.9109072284991
 20
576.69231532170215
 42
0
  0
VERTEX
  8
0
 10
1134.5695604877765
 20
427.30313227726856
 42
-0.36396992206573486
  0
VERTEX
  8
0
 10
1126.6910967426593
 20
420.69230769230762
 42
0
  0
VERTEX
  8
0
 10
1051.9108995991046
 20
420.69230769230762
 42
-1
  0
VERTEX
  8
0
 10
1051.9108995991046
 20
480.69231532170215
 42
0
  0
VERTEX
  8
0
 10
1056.9109148578937
 20
480.69231532170215
 42
0.41421392560005188
  0
SEQEND
  0
POLYLINE
  8
0
 10
0
 20
0
 39
0
 70
1
 66
1
  0
VERTEX
  8
0
 10
1054.9108995991046
 20
458.69230769230762
 42
1
  0
VERTEX
  8
0
 10
1054.9108995991046
 20
442.69230769230762
 42
1
  0
SEQEND
  0
POLYLINE
  8
0
 10
0
 20
0
 39
0
 70
1
 66
1
  0
VERTEX
  8
0
 10
1104.9108995991046
 20
451.29231379582325
 42
1
  0
VERTEX
  8
0
 10
1104.9108995991046
 20
438.092301588792
 42
1
  0
SEQEND
  0
POLYLINE
  8
0
 10
0
 20
0
 39
0
 70
1
 66
1
  0
VERTEX
  8
0
 10
1132.6000076293944
 20
1122.5384615384614
 42
0
  0
VERTEX
  8
0
 10
1132.6000076293944
 20
1089.5384615384614
 42
0
  0
VERTEX
  8
0
 10
1102.6000076293944
 20
1089.5384615384614
 42
0
  0
VERTEX
  8
0
 10
1102.6000076293944
 20
1030.5384615384614
 42
0
  0
VERTEX
  8
0
 10
1092.6000076293944
 20
1020.5384615384614
 42
0
  0
VERTEX
  8
0
 10
1032.5999999999999
 20
1020.5384615384614
 42
0
  0
VERTEX
  8
0
 10
1032.5999999999999
 20
1030.5384615384614
 42
0
  0
VERTEX
  8
0
 10
1058.9413467407226
 20
1179.927644582895
 42
-0.36396992206573486
  0
VERTEX
  8
0
 10
1066.8198104858398
 20
1186.538469167856
 42
0
  0
VERTEX
  8
0
 10
1141.6000076293944
 20
1186.538469167856
 42
-1
  0
VERTEX
  8
0
 10
1141.6000076293944
 20
1126.5384615384614
 42
0
  0
VERTEX
  8
0
 10
1136.5999923706054
 20
1126.5384615384614
 42
0.41421392560005188
  0
SEQEND
  0
POLYLINE
  8
0
 10
0
 20
0
 39
0
 70
1
 66
1
  0
VERTEX
  8
0
 10
1138.6000076293944
 20
1148.538469167856
 42
1
  0
VERTEX
  8
0
 10
1138.6000076293944
 20
1164.538469167856
 42
1
  0
SEQEND
  0
POLYLINE
  8
0
 10
0
 20
0
 39
0
 70
1
 66
1
  0
VERTEX
  8
0
 10
1088.6000076293944
 20
1155.9384630643403
 42
1
  0
VERTEX
  8
0
 10
1088.6000076293944
 20
1169.1384752713716
 42
1
  0
SEQEND
  0
POLYLINE
  8
0
 10
0
 20
0
 39
0
 70
1
 66
1
  0
VERTEX
  8
0
 10
1151.8032072914123
 20
1084.538469167856
 42
0
  0
VERTEX
  8
0
 10
1151.8032072914123
 20
1117.538469167856
 42
0
  0
VERTEX
  8
0
 10
1181.8032072914123
 20
1117.538469167856
 42
0
  0
VERTEX
  8
0
 10
1181.8032072914123
 20
1176.538469167856
 42
0
  0
VERTEX
  8
0
 10
1191.8032072914123
 20
1186.538469167856
 42
0
  0
VERTEX
  8
0
 10
1251.8032149208068
 20
1186.538469167856
 42
0
  0
VERTEX
  8
0
 10
1251.8032149208068
 20
1176.538469167856
 42
0
  0
VERTEX
  8
0
 10
1225.4618681800841
 20
1027.1492861234224
 42
-0.36396992206573486
  0
VERTEX
  8
0
 10
1217.583404434967
 20
1020.5384615384614
 42
0
  0
VERTEX
  8
0
 10
1142.8032072914123
 20
1020.5384615384614
 42
-1
  0
VERTEX
  8
0
 10
1142.8032072914123
 20
1080.538469167856
 42
0
  0
VERTEX
  8
0
 10
1147.8032225502013
 20
1080.538469167856
 42
0.41421392560005188
  0
SEQEND
  0
POLYLINE
  8
0
 10
0
 20
0
 39
0
 70
1
 66
1
  0
VERTEX
  8
0
 10
1145.8032072914123
 20
1058.5384615384614
 42
1
  0
VERTEX
  8
0
 10
1145.8032072914123
 20
1042.5384615384614
 42
1
  0
SEQEND
  0
POLYLINE
  8
0
 10
0
 20
0
 39
0
 70
1
 66
1
  0
VERTEX
  8
0
 10
1195.8032072914123
 20
1051.1384676419771
 42
1
  0
VERTEX
  8
0
 10
1195.8032072914123
 20
1037.9384554349458
 42
1
  0
SEQEND
  0
POLYLINE
  8
0
 10
0
 20
0
 39
0
 70
1
 66
1
  0
VERTEX
  8
0
 10
1598.4769307063175
 20
517.73846153846148
 42
0
  0
VERTEX
  8
0
 10
1598.4769307063175
 20
484.73846153846148
 42
0
  0
VERTEX
  8
0
 10
1568.4769307063175
 20
484.73846153846148
 42
0
  0
VERTEX
  8
0
 10
1568.4769307063175
 20
425.73846153846148
 42
0
  0
VERTEX
  8
0
 10
1558.4769307063175
 20
415.73846153846148
 42
0
  0
VERTEX
  8
0
 10
1498.476923076923
 20
415.73846153846148
 42
0
  0
VERTEX
  8
0
 10
1498.476923076923
 20
425.73846153846148
 42
0
  0
VERTEX
  8
0
 10
1524.8182698176456
 20
575.12764458289507
 42
-0.36396992206573486
  0
VERTEX
  8
0
 10
1532.6967335627628
 20
581.73846916785601
 42
0
  0
VERTEX
  8
0
 10
1607.4769307063175
 20
581.73846916785601
 42
-1
  0
VERTEX
  8
0
 10
1607.4769307063175
 20
521.73846153846148
 42
0
  0
VERTEX
  8
0
 10
1602.4769154475284
 20
521.73846153846148
 42
0.41421392560005188
  0
SEQEND
  0
POLYLINE
  8
0
 10
0
 20
0
 39
0
 70
1
 66
1
  0
VERTEX
  8
0
 10
1604.4769307063175
 20
543.73846916785601
 42
1
  0
VERTEX
  8
0
 10
1604.4769307063175
 20
559.73846916785601
 42
1
  0
SEQEND
  0
POLYLINE
  8
0
 10
0
 20
0
 39
0
 70
1
 66
1
  0
VERTEX
  8
0
 10
1554.4769307063175
 20
551.13846306434039
 42
1
  0
VERTEX
  8
0
 10
1554.4769307063175
 20
564.33847527137164
 42
1
  0
SEQEND
  0
POLYLINE
  8
0
 10
0
 20
0
 39
0
 70
1
 66
1
  0
VERTEX
  8
0
 10
1617.6801303683353
 20
479.73846916785601
 42
0
  0
VERTEX
  8
0
 10
1617.6801303683353
 20
512.73846916785601
 42
0
  0
VERTEX
  8
0
 10
1647.6801303683353
 20
512.73846916785601
 42
0
  0
VERTEX
  8
0
 10
1647.6801303683353
 20
571.73846916785601
 42
0
  0
VERTEX
  8
0
 10
1657.6801303683353
 20
581.73846916785601
 42
0
  0
VERTEX
  8
0
 10
1717.6801379977298
 20
581.73846916785601
 42
0
  0
VERTEX
  8
0
 10
1717.6801379977298
 20
571.73846916785601
 42
0
  0
VERTEX
  8
0
 10
1691.3387912570072
 20
422.34928612342242
 42
-0.36396992206573486
  0
VERTEX
  8
0
 10
1683.46032751189
 20
415.73846153846148
 42
0
  0
VERTEX
  8
0
 10
1608.6801303683353
 20
415.73846153846148
 42
-1
  0
VERTEX
  8
0
 10
1608.6801303683353
 20
475.73846916785601
 42
0
  0
VERTEX
  8
0
 10
1613.6801456271244
 20
475.73846916785601
 42
0.41421392560005188
  0
SEQEND
  0
POLYLINE
  8
0
 10
0
 20
0
 39
0
 70
1
 66
1
  0
VERTEX
  8
0
 10
1611.6801303683353
 20
453.73846153846148
 42
1
  0
VERTEX
  8
0
 10
1611.6801303683353
 20
437.73846153846148
 42
1
  0
SEQEND
  0
POLYLINE
  8
0
 10
0
 20
0
 39
0
 70
1
 66
1
  0
VERTEX
  8
0
 10
1661.6801303683353
 20
446.3384676419771
 42
1
  0
VERTEX
  8
0
 10
1661.6801303683353
 20
433.13845543494585
 42
1
  0
SEQEND
  0
POLYLINE
  8
0
 10
0
 20
0
 39
0
 70
1
 66
1
  0
VERTEX
  8
0
 10
1833.4307768601636
 20
822.2307768601637
 42
0
  0
VERTEX
  8
0
 10
1866.4307768601636
 20
822.2307768601637
 42
0
  0
VERTEX
  8
0
 10
1866.4307768601636
 20
792.2307768601637
 42
0
  0
VERTEX
  8
0
 10
1925.4307768601636
 20
792.2307768601637
 42
0
  0
VERTEX
  8
0
 10
1935.4307768601636
 20
782.2307768601637
 42
0
  0
VERTEX
  8
0
 10
1935.4307768601636
 20
722.23076923076917
 42
0
  0
VERTEX
  8
0
 10
1925.4307768601636
 20
722.23076923076917
 42
0
  0
VERTEX
  8
0
 10
1776.04159381573
 20
748.57211597149183
 42
-0.36396992206573486
  0
VERTEX
  8
0
 10
1769.4307692307691
 20
756.45057971660901
 42
0
  0
VERTEX
  8
0
 10
1769.4307692307691
 20
831.2307768601637
 42
-1
  0
VERTEX
  8
0
 10
1829.4307768601636
 20
831.2307768601637
 42
0
  0
VERTEX
  8
0
 10
1829.4307768601636
 20
826.23076160137464
 42
0.41421392560005188
  0
SEQEND
  0
POLYLINE
  8
0
 10
0
 20
0
 39
0
 70
1
 66
1
  0
VERTEX
  8
0
 10
1807.4307692307691
 20
828.2307768601637
 42
1
  0
VERTEX
  8
0
 10
1791.4307692307691
 20
828.2307768601637
 42
1
  0
SEQEND
  0
POLYLINE
  8
0
 10
0
 20
0
 39
0
 70
1
 66
1
  0
VERTEX
  8
0
 10
1800.0307753342847
 20
778.2307768601637
 42
1
  0
VERTEX
  8
0
 10
1786.8307631272535
 20
778.2307768601637
 42
1
  0
SEQEND
  0
POLYLINE
  8
0
 10
0
 20
0
 39
0
 70
1
 66
1
  0
VERTEX
  8
0
 10
1871.4307692307691
 20
841.43397652218152
 42
0
  0
VERTEX
  8
0
 10
1838.4307692307691
 20
841.43397652218152
 42
0
  0
VERTEX
  8
0
 10
1838.4307692307691
 20
871.43397652218152
 42
0
  0
VERTEX
  8
0
 10
1779.4307692307691
 20
871.43397652218152
 42
0
  0
VERTEX
  8
0
 10
1769.4307692307691
 20
881.43397652218152
 42
0
  0
VERTEX
  8
0
 10
1769.4307692307691
 20
941.43398415157606
 42
0
  0
VERTEX
  8
0
 10
1779.4307692307691
 20
941.43398415157606
 42
0
  0
VERTEX
  8
0
 10
1928.8199522752027
 20
915.0926374108534
 42
-0.36396992206573486
  0
VERTEX
  8
0
 10
1935.4307768601636
 20
907.21417366573621
 42
0
  0
VERTEX
  8
0
 10
1935.4307768601636
 20
832.43397652218152
 42
-1
  0
VERTEX
  8
0
 10
1875.4307692307691
 20
832.43397652218152
 42
0
  0
VERTEX
  8
0
 10
1875.4307692307691
 20
837.43399178097059
 42
0.41421392560005188
  0
SEQEND
  0
POLYLINE
  8
0
 10
0
 20
0
 39
0
 70
1
 66
1
  0
VERTEX
  8
0
 10
1897.4307768601636
 20
835.43397652218152
 42
1
  0
VERTEX
  8
0
 10
1913.4307768601636
 20
835.43397652218152
 42
1
  0
SEQEND
  0
POLYLINE
  8
0
 10
0
 20
0
 39
0
 70
1
 66
1
  0
VERTEX
  8
0
 10
1904.830770756648
 20
885.43397652218152
 42
1
  0
VERTEX
  8
0
 10
1918.0307829636793
 20
885.43397652218152
 42
1
  0
SEQEND
  0
POLYLINE
  8
0
 10
0
 20
0
 39
0
 70
1
 66
1
  0
VERTEX
  8
0
 10
2178.7230845524714
 20
1088.5076923076922
 42
0
  0
VERTEX
  8
0
 10
2178.7230845524714
 20
1055.5076923076922
 42
0
  0
VERTEX
  8
0
 10
2148.7230845524714
 20
1055.5076923076922
 42
0
  0
VERTEX
  8
0
 10
2148.7230845524714
 20
996.5076923076922
 42
0
  0
VERTEX
  8
0
 10
2138.7230845524714
 20
986.5076923076922
 42
0
  0
VERTEX
  8
0
 10
2078.7230769230769
 20
986.5076923076922
 42
0
  0
VERTEX
  8
0
 10
2078.7230769230769
 20
996.5076923076922
 42
0
  0
VERTEX
  8
0
 10
2105.0644236637995
 20
1145.8968753521258
 42
-0.36396992206573486
  0
VERTEX
  8
0
 10
2112.9428874089167
 20
1152.5076999370867
 42
0
  0
VERTEX
  8
0
 10
2187.7230845524714
 20
1152.5076999370867
 42
-1
  0
VERTEX
  8
0
 10
2187.7230845524714
 20
1092.5076923076922
 42
0
  0
VERTEX
  8
0
 10
2182.7230692936823
 20
1092.5076923076922
 42
0.41421392560005188
  0
SEQEND
  0
POLYLINE
  8
0
 10
0
 20
0
 39
0
 70
1
 66
1
  0
VERTEX
  8
0
 10
2184.7230845524714
 20
1114.5076999370867
 42
1
  0
VERTEX
  8
0
 10
2184.7230845524714
 20
1130.5076999370867
 42
1
  0
SEQEND
  0
POLYLINE
  8
0
 10
0
 20
0
 39
0
 70
1
 66
1
  0
VERTEX
  8
0
 10
2134.7230845524714
 20
1121.9076938335711
 42
1
  0
VERTEX
  8
0
 10
2134.7230845524714
 20
1135.1077060406024
 42
1
  0
SEQEND
  0
POLYLINE
  8
0
 10
0
 20
0
 39
0
 70
1
 66
1
  0
VERTEX
  8
0
 10
2197.926284214489
 20
1050.5076999370867
 42
0
  0
VERTEX
  8
0
 10
2197.926284214489
 20
1083.5076999370867
 42
0
  0
VERTEX
  8
0
 10
2227.926284214489
 20
1083.5076999370867
 42
0
  0
VERTEX
  8
0
 10
2227.926284214489
 20
1142.5076999370867
 42
0
  0
VERTEX
  8
0
 10
2237.926284214489
 20
1152.5076999370867
 42
0
  0
VERTEX
  8
0
 10
2297.9262918438835
 20
1152.5076999370867
 42
0
  0
VERTEX
  8
0
 10
2297.9262918438835
 20
1142.5076999370867
 42
0
  0
VERTEX
  8
0
 10
2271.5849451031609
 20
993.11851689265313
 42
-0.36396992206573486
  0
VERTEX
  8
0
 10
2263.7064813580437
 20
986.5076923076922
 42
0
  0
VERTEX
  8
0
 10
2188.926284214489
 20
986.5076923076922
 42
-1
  0
VERTEX
  8
0
 10
2188.926284214489
 20
1046.5076999370867
 42
0
  0
VERTEX
  8
0
 10
2193.926299473278
 20
1046.5076999370867
 42
0.41421392560005188
  0
SEQEND
  0
POLYLINE
  8
0
 10
0
 20
0
 39
0
 70
1
 66
1
  0
VERTEX
  8
0
 10
2191.926284214489
 20
1024.5076923076922
 42
1
  0
VERTEX
  8
0
 10
2191.926284214489
 20
1008.5076923076922
 42
1
  0
SEQEND
  0
POLYLINE
  8
0
 10
0
 20
0
 39
0
 70
1
 66
1
  0
VERTEX
  8
0
 10
2241.926284214489
 20
1017.1076984112078
 42
1
  0
VERTEX
  8
0
 10
2241.926284214489
 20
1003.9076862041766
 42
1
  0
SEQEND
  0
POLYLINE
  8
0
 10
0
 20
0
 39
0
 70
1
 66
1
  0
VERTEX
  8
0
 10
2664.6000076293944
 20
1019.3076999370868
 42
0
  0
VERTEX
  8
0
 10
2697.6000076293944
 20
1019.3076999370868
 42
0
  0
VERTEX
  8
0
 10
2697.6000076293944
 20
989.3076999370868
 42
0
  0
VERTEX
  8
0
 10
2756.6000076293944
 20
989.3076999370868
 42
0
  0
VERTEX
  8
0
 10
2766.6000076293944
 20
979.3076999370868
 42
0
  0
VERTEX
  8
0
 10
2766.6000076293944
 20
919.30769230769226
 42
0
  0
VERTEX
  8
0
 10
2756.6000076293944
 20
919.30769230769226
 42
0
  0
VERTEX
  8
0
 10
2607.2108245849608
 20
945.64903904841492
 42
-0.36396992206573486
  0
VERTEX
  8
0
 10
2600.5999999999999
 20
953.52750279353211
 42
0
  0
VERTEX
  8
0
 10
2600.5999999999999
 20
1028.3076999370869
 42
-1
  0
VERTEX
  8
0
 10
2660.6000076293944
 20
1028.3076999370869
 42
0
  0
VERTEX
  8
0
 10
2660.6000076293944
 20
1023.3076846782977
 42
0.41421392560005188
  0
SEQEND
  0
POLYLINE
  8
0
 10
0
 20
0
 39
0
 70
1
 66
1
  0
VERTEX
  8
0
 10
2638.5999999999999
 20
1025.3076999370869
 42
1
  0
VERTEX
  8
0
 10
2622.5999999999999
 20
1025.3076999370869
 42
1
  0
SEQEND
  0
POLYLINE
  8
0
 10
0
 20
0
 39
0
 70
1
 66
1
  0
VERTEX
  8
0
 10
2631.2000061035155
 20
975.3076999370868
 42
1
  0
VERTEX
  8
0
 10
2617.9999938964843
 20
975.3076999370868
 42
1
  0
SEQEND
  0
POLYLINE
  8
0
 10
0
 20
0
 39
0
 70
1
 66
1
  0
VERTEX
  8
0
 10
2702.5999999999999
 20
1038.5108995991045
 42
0
  0
VERTEX
  8
0
 10
2669.5999999999999
 20
1038.5108995991045
 42
0
  0
VERTEX
  8
0
 10
2669.5999999999999
 20
1068.5108995991045
 42
0
  0
VERTEX
  8
0
 10
2610.5999999999999
 20
1068.5108995991045
 42
0
  0
VERTEX
  8
0
 10
2600.5999999999999
 20
1078.5108995991045
 42
0
  0
VERTEX
  8
0
 10
2600.5999999999999
 20
1138.510907228499
 42
0
  0
VERTEX
  8
0
 10
2610.5999999999999
 20
1138.510907228499
 42
0
  0
VERTEX
  8
0
 10
2759.9891830444335
 20
1112.1695604877764
 42
-0.36396992206573486
  0
VERTEX
  8
0
 10
2766.6000076293944
 20
1104.2910967426592
 42
0
  0
VERTEX
  8
0
 10
2766.6000076293944
 20
1029.5108995991045
 42
-1
  0
VERTEX
  8
0
 10
2706.5999999999999
 20
1029.5108995991045
 42
0
  0
VERTEX
  8
0
 10
2706.5999999999999
 20
1034.5109148578936
 42
0.41421392560005188
  0
SEQEND
  0
POLYLINE
  8
0
 10
0
 20
0
 39
0
 70
1
 66
1
  0
VERTEX
  8
0
 10
2728.6000076293944
 20
1032.5108995991045
 42
1
  0
VERTEX
  8
0
 10
2744.6000076293944
 20
1032.5108995991045
 42
1
  0
SEQEND
  0
POLYLINE
  8
0
 10
0
 20
0
 39
0
 70
1
 66
1
  0
VERTEX
  8
0
 10
2736.0000015258788
 20
1082.5108995991045
 42
1
  0
VERTEX
  8
0
 10
2749.2000137329101
 20
1082.5108995991045
 42
1
  0
SEQEND
  0
POLYLINE
  8
0
 10
0
 20
0
 39
0
 70
1
 66
1
  0
VERTEX
  8
0
 10
1281.5092249024954
 20
1157.4427251721538
 42
-0.11274677515029907
  0
VERTEX
  8
0
 10
1312.7777352552382
 20
1170.3945634399199
 42
-0
  0
VERTEX
  8
0
 10
1317.9797271395812
 20
1167.4047024726035
 42
0
  0
VERTEX
  8
0
 10
1333.0148362147672
 20
1167.4047024726035
 42
0
  0
VERTEX
  8
0
 10
1338.2168280991102
 20
1170.3945634399199
 42
-0.11274677515029907
  0
VERTEX
  8
0
 10
1369.4853384518531
 20
1157.4427251721538
 42
-0
  0
VERTEX
  8
0
 10
1371.0495462149852
 20
1151.6502053740614
 42
0
  0
VERTEX
  8
0
 10
1381.6809746048307
 20
1141.0187769842159
 42
0
  0
VERTEX
  8
0
 10
1387.4734944029231
 20
1139.4545692210838
 42
-0.11274677515029907
  0
VERTEX
  8
0
 10
1400.4253326706892
 20
1108.186058868341
 42
-0
  0
VERTEX
  8
0
 10
1397.4354717033727
 20
1102.984066983998
 42
0
  0
VERTEX
  8
0
 10
1397.4354717033727
 20
1087.948957908812
 42
0
  0
VERTEX
  8
0
 10
1400.4253326706892
 20
1082.746966024469
 42
-0.11274677515029907
  0
VERTEX
  8
0
 10
1387.4734944029231
 20
1051.4784556717261
 42
-0
  0
VERTEX
  8
0
 10
1381.6809746048307
 20
1049.914247908594
 42
0
  0
VERTEX
  8
0
 10
1371.0495462149852
 20
1039.2828195187485
 42
0
  0
VERTEX
  8
0
 10
1369.4853384518531
 20
1033.4902997206561
 42
-0.11274677515029907
  0
VERTEX
  8
0
 10
1338.2168280991102
 20
1020.53846145289
 42
-0
  0
VERTEX
  8
0
 10
1333.0148362147672
 20
1023.5283224202065
 42
0
  0
VERTEX
  8
0
 10
1317.9797271395812
 20
1023.5283224202065
 42
0
  0
VERTEX
  8
0
 10
1312.7777352552382
 20
1020.53846145289
 42
-0.11274677515029907
  0
VERTEX
  8
0
 10
1281.5092249024954
 20
1033.4902997206561
 42
-0
  0
VERTEX
  8
0
 10
1279.9450171393632
 20
1039.2828195187485
 42
0
  0
VERTEX
  8
0
 10
1269.3135887495177
 20
1049.914247908594
 42
0
  0
VERTEX
  8
0
 10
1263.5210689514254
 20
1051.4784556717261
 42
-0.11274677515029907
  0
VERTEX
  8
0
 10
1250.5692306836593
 20
1082.746966024469
 42
-0
  0
VERTEX
  8
0
 10
1253.5590916509757
 20
1087.948957908812
 42
0
  0
VERTEX
  8
0
 10
1253.5590916509757
 20
1102.984066983998
 42
0
  0
VERTEX
  8
0
 10
1250.5692306836593
 20
1108.186058868341
 42
-0.11274677515029907
  0
VERTEX
  8
0
 10
1263.5210689514254
 20
1139.4545692210838
 42
-0
  0
VERTEX
  8
0
 10
1269.3135887495177
 20
1141.0187769842159
 42
0
  0
VERTEX
  8
0
 10
1279.9450171393632
 20
1151.6502053740614
 42
0
  0
SEQEND
  0
POLYLINE
  8
0
 10
0
 20
0
 39
0
 70
1
 66
1
  0
VERTEX
  8
0
 10
1332.5683493680235
 20
1102.5375801372543
 42
1
  0
VERTEX
  8
0
 10
1318.4262139863249
 20
1088.3954447555557
 42
1
  0
SEQEND
  0
POLYLINE
  8
0
 10
0
 20
0
 39
0
 70
1
 66
1
  0
VERTEX
  8
0
 10
1743.2938402871107
 20
529.1658020952309
 42
-0.11274677515029907
  0
VERTEX
  8
0
 10
1774.5623506398535
 20
542.11764036299701
 42
-0
  0
VERTEX
  8
0
 10
1779.7643425241965
 20
539.12777939568059
 42
0
  0
VERTEX
  8
0
 10
1794.7994515993826
 20
539.12777939568059
 42
0
  0
VERTEX
  8
0
 10
1800.0014434837256
 20
542.11764036299701
 42
-0.11274677515029907
  0
VERTEX
  8
0
 10
1831.2699538364684
 20
529.1658020952309
 42
-0
  0
VERTEX
  8
0
 10
1832.8341615996005
 20
523.37328229713853
 42
0
  0
VERTEX
  8
0
 10
1843.465589989446
 20
512.74185390729303
 42
0
  0
VERTEX
  8
0
 10
1849.2581097875384
 20
511.17764614416086
 42
-0.11274677515029907
  0
VERTEX
  8
0
 10
1862.2099480553045
 20
479.90913579141801
 42
-0
  0
VERTEX
  8
0
 10
1859.2200870879881
 20
474.70714390707502
 42
0
  0
VERTEX
  8
0
 10
1859.2200870879881
 20
459.67203483188899
 42
0
  0
VERTEX
  8
0
 10
1862.2099480553045
 20
454.47004294754601
 42
-0.11274677515029907
  0
VERTEX
  8
0
 10
1849.2581097875384
 20
423.20153259480315
 42
-0
  0
VERTEX
  8
0
 10
1843.465589989446
 20
421.63732483167104
 42
0
  0
VERTEX
  8
0
 10
1832.8341615996005
 20
411.00589644182554
 42
0
  0
VERTEX
  8
0
 10
1831.2699538364684
 20
405.21337664373317
 42
-0.11274677515029907
  0
VERTEX
  8
0
 10
1800.0014434837256
 20
392.26153837596706
 42
-0
  0
VERTEX
  8
0
 10
1794.7994515993826
 20
395.25139934328348
 42
0
  0
VERTEX
  8
0
 10
1779.7643425241965
 20
395.25139934328348
 42
0
  0
VERTEX
  8
0
 10
1774.5623506398535
 20
392.26153837596706
 42
-0.11274677515029907
  0
VERTEX
  8
0
 10
1743.2938402871107
 20
405.21337664373317
 42
-0
  0
VERTEX
  8
0
 10
1741.7296325239786
 20
411.00589644182554
 42
0
  0
VERTEX
  8
0
 10
1731.0982041341331
 20
421.63732483167104
 42
0
  0
VERTEX
  8
0
 10
1725.3056843360407
 20
423.20153259480315
 42
-0.11274677515029907
  0
VERTEX
  8
0
 10
1712.3538460682746
 20
454.47004294754601
 42
-0
  0
VERTEX
  8
0
 10
1715.343707035591
 20
459.67203483188899
 42
0
  0
VERTEX
  8
0
 10
1715.343707035591
 20
474.70714390707502
 42
0
  0
VERTEX
  8
0
 10
1712.3538460682746
 20
479.90913579141801
 42
-0.11274677515029907
  0
VERTEX
  8
0
 10
1725.3056843360407
 20
511.17764614416086
 42
-0
  0
VERTEX
  8
0
 10
1731.0982041341331
 20
512.74185390729303
 42
0
  0
VERTEX
  8
0
 10
1741.7296325239786
 20
523.37328229713853
 42
0
  0
SEQEND
  0
POLYLINE
  8
0
 10
0
 20
0
 39
0
 70
1
 66
1
  0
VERTEX
  8
0
 10
1794.3529647526389
 20
474.26065706033131
 42
1
  0
VERTEX
  8
0
 10
1780.2108293709402
 20
460.1185216786327
 42
1
  0
SEQEND
  0
POLYLINE
  8
0
 10
0
 20
0
 39
0
 70
1
 66
1
  0
VERTEX
  8
0
 10
2401.9399941332649
 20
1117.596571326
 42
-0.11274677515029907
  0
VERTEX
  8
0
 10
2433.2085044860078
 20
1130.5484095937661
 42
-0
  0
VERTEX
  8
0
 10
2438.4104963703503
 20
1127.5585486264497
 42
0
  0
VERTEX
  8
0
 10
2453.4456054455368
 20
1127.5585486264497
 42
0
  0
VERTEX
  8
0
 10
2458.6475973298793
 20
1130.5484095937661
 42
-0.11274677515029907
  0
VERTEX
  8
0
 10
2489.9161076826222
 20
1117.596571326
 42
-0
  0
VERTEX
  8
0
 10
2491.4803154457545
 20
1111.8040515279076
 42
0
  0
VERTEX
  8
0
 10
2502.1117438356
 20
1101.1726231380621
 42
0
  0
VERTEX
  8
0
 10
2507.9042636336926
 20
1099.60841537493
 42
-0.11274677515029907
  0
VERTEX
  8
0
 10
2520.8561019014587
 20
1068.3399050221872
 42
-0
  0
VERTEX
  8
0
 10
2517.8662409341423
 20
1063.1379131378442
 42
0
  0
VERTEX
  8
0
 10
2517.8662409341423
 20
1048.1028040626582
 42
0
  0
VERTEX
  8
0
 10
2520.8561019014587
 20
1042.9008121783152
 42
-0.11274677515029907
  0
VERTEX
  8
0
 10
2507.9042636336926
 20
1011.6323018255723
 42
-0
  0
VERTEX
  8
0
 10
2502.1117438356
 20
1010.0680940624402
 42
0
  0
VERTEX
  8
0
 10
2491.4803154457545
 20
999.4366656725947
 42
0
  0
VERTEX
  8
0
 10
2489.9161076826222
 20
993.64414587450233
 42
-0.11274677515029907
  0
VERTEX
  8
0
 10
2458.6475973298793
 20
980.69230760673622
 42
-0
  0
VERTEX
  8
0
 10
2453.4456054455368
 20
983.68216857405264
 42
0
  0
VERTEX
  8
0
 10
2438.4104963703503
 20
983.68216857405264
 42
0
  0
VERTEX
  8
0
 10
2433.2085044860078
 20
980.69230760673622
 42
-0.11274677515029907
  0
VERTEX
  8
0
 10
2401.9399941332649
 20
993.64414587450233
 42
-0
  0
VERTEX
  8
0
 10
2400.3757863701326
 20
999.4366656725947
 42
0
  0
VERTEX
  8
0
 10
2389.7443579802871
 20
1010.0680940624402
 42
0
  0
VERTEX
  8
0
 10
2383.9518381821945
 20
1011.6323018255723
 42
-0.11274677515029907
  0
VERTEX
  8
0
 10
2370.9999999144284
 20
1042.9008121783152
 42
-0
  0
VERTEX
  8
0
 10
2373.9898608817448
 20
1048.1028040626582
 42
0
  0
VERTEX
  8
0
 10
2373.9898608817448
 20
1063.1379131378442
 42
0
  0
VERTEX
  8
0
 10
2370.9999999144284
 20
1068.3399050221872
 42
-0.11274677515029907
  0
VERTEX
  8
0
 10
2383.9518381821945
 20
1099.60841537493
 42
-0
  0
VERTEX
  8
0
 10
2389.7443579802871
 20
1101.1726231380621
 42
0
  0
VERTEX
  8
0
 10
2400.3757863701326
 20
1111.8040515279076
 42
0
  0
SEQEND
  0
POLYLINE
  8
0
 10
0
 20
0
 39
0
 70
1
 66
1
  0
VERTEX
  8
0
 10
2452.9991185987928
 20
1062.6914262911005
 42
1
  0
VERTEX
  8
0
 10
2438.8569832170942
 20
1048.5492909094019
 42
1
  0
SEQEND
  0
POLYLINE
  8
0
 10
0
 20
0
 39
0
 70
1
 66
1
  0
VERTEX
  8
0
 10
2473.8784556717264
 20
849.44272517215381
 42
-0.11274677515029907
  0
VERTEX
  8
0
 10
2505.1469660244693
 20
862.39456343991992
 42
-0
  0
VERTEX
  8
0
 10
2510.3489579088118
 20
859.4047024726035
 42
0
  0
VERTEX
  8
0
 10
2525.3840669839983
 20
859.4047024726035
 42
0
  0
VERTEX
  8
0
 10
2530.5860588683408
 20
862.39456343991992
 42
-0.11274677515029907
  0
VERTEX
  8
0
 10
2561.8545692210837
 20
849.44272517215381
 42
-0
  0
VERTEX
  8
0
 10
2563.418776984216
 20
843.65020537406144
 42
0
  0
VERTEX
  8
0
 10
2574.0502053740615
 20
833.01877698421595
 42
0
  0
VERTEX
  8
0
 10
2579.8427251721541
 20
831.45456922108383
 42
-0.11274677515029907
  0
VERTEX
  8
0
 10
2592.7945634399202
 20
800.18605886834098
 42
-0
  0
VERTEX
  8
0
 10
2589.8047024726038
 20
794.98406698399799
 42
0
  0
VERTEX
  8
0
 10
2589.8047024726038
 20
779.94895790881196
 42
0
  0
VERTEX
  8
0
 10
2592.7945634399202
 20
774.74696602446897
 42
-0.11274677515029907
  0
VERTEX
  8
0
 10
2579.8427251721541
 20
743.47845567172612
 42
-0
  0
VERTEX
  8
0
 10
2574.0502053740615
 20
741.91424790859401
 42
0
  0
VERTEX
  8
0
 10
2563.418776984216
 20
731.28281951874851
 42
0
  0
VERTEX
  8
0
 10
2561.8545692210837
 20
725.49029972065614
 42
-0.11274677515029907
  0
VERTEX
  8
0
 10
2530.5860588683408
 20
712.53846145289003
 42
-0
  0
VERTEX
  8
0
 10
2525.3840669839983
 20
715.52832242020645
 42
0
  0
VERTEX
  8
0
 10
2510.3489579088118
 20
715.52832242020645
 42
0
  0
VERTEX
  8
0
 10
2505.1469660244693
 20
712.53846145289003
 42
-0.11274677515029907
  0
VERTEX
  8
0
 10
2473.8784556717264
 20
725.49029972065614
 42
-0
  0
VERTEX
  8
0
 10
2472.3142479085941
 20
731.28281951874851
 42
0
  0
VERTEX
  8
0
 10
2461.6828195187486
 20
741.91424790859401
 42
0
  0
VERTEX
  8
0
 10
2455.890299720656
 20
743.47845567172612
 42
-0.11274677515029907
  0
VERTEX
  8
0
 10
2442.9384614528899
 20
774.74696602446897
 42
-0
  0
VERTEX
  8
0
 10
2445.9283224202063
 20
779.94895790881196
 42
0
  0
VERTEX
  8
0
 10
2445.9283224202063
 20
794.98406698399799
 42
0
  0
VERTEX
  8
0
 10
2442.9384614528899
 20
800.18605886834098
 42
-0.11274677515029907
  0
VERTEX
  8
0
 10
2455.890299720656
 20
831.45456922108383
 42
-0
  0
VERTEX
  8
0
 10
2461.6828195187486
 20
833.01877698421595
 42
0
  0
VERTEX
  8
0
 10
2472.3142479085941
 20
843.65020537406144
 42
0
  0
SEQEND
  0
POLYLINE
  8
0
 10
0
 20
0
 39
0
 70
1
 66
1
  0
VERTEX
  8
0
 10
2524.9375801372544
 20
794.53758013725428
 42
1
  0
VERTEX
  8
0
 10
2510.7954447555558
 20
780.39544475555567
 42
1
  0
SEQEND
  0
POLYLINE
  8
0
 10
0
 20
0
 39
0
 70
1
 66
1
  0
VERTEX
  8
0
 10
2552.063071056341
 20
205.44272517215396
 42
-0.11274677515029907
  0
VERTEX
  8
0
 10
2583.3315814090838
 20
218.39456343992006
 42
-0
  0
VERTEX
  8
0
 10
2588.5335732934273
 20
215.40470247260365
 42
0
  0
VERTEX
  8
0
 10
2603.5686823686128
 20
215.40470247260365
 42
0
  0
VERTEX
  8
0
 10
2608.7706742529563
 20
218.39456343992006
 42
-0.11274677515029907
  0
VERTEX
  8
0
 10
2640.0391846056991
 20
205.44272517215396
 42
-0
  0
VERTEX
  8
0
 10
2641.603392368831
 20
199.65020537406158
 42
0
  0
VERTEX
  8
0
 10
2652.2348207586765
 20
189.01877698421609
 42
0
  0
VERTEX
  8
0
 10
2658.0273405567686
 20
187.45456922108397
 42
-0.11274677515029907
  0
VERTEX
  8
0
 10
2670.9791788245348
 20
156.18605886834112
 42
-0
  0
VERTEX
  8
0
 10
2667.9893178572183
 20
150.98406698399813
 42
0
  0
VERTEX
  8
0
 10
2667.9893178572183
 20
135.9489579088121
 42
0
  0
VERTEX
  8
0
 10
2670.9791788245348
 20
130.74696602446912
 42
-0.11274677515029907
  0
VERTEX
  8
0
 10
2658.0273405567686
 20
99.478455671726266
 42
-0
  0
VERTEX
  8
0
 10
2652.2348207586765
 20
97.914247908594149
 42
0
  0
VERTEX
  8
0
 10
2641.603392368831
 20
87.282819518748653
 42
0
  0
VERTEX
  8
0
 10
2640.0391846056991
 20
81.490299720656282
 42
-0.11274677515029907
  0
VERTEX
  8
0
 10
2608.7706742529563
 20
68.538461452890175
 42
-0
  0
VERTEX
  8
0
 10
2603.5686823686128
 20
71.528322420206592
 42
0
  0
VERTEX
  8
0
 10
2588.5335732934273
 20
71.528322420206592
 42
0
  0
VERTEX
  8
0
 10
2583.3315814090838
 20
68.538461452890175
 42
-0.11274677515029907
  0
VERTEX
  8
0
 10
2552.063071056341
 20
81.490299720656282
 42
-0
  0
VERTEX
  8
0
 10
2550.4988632932091
 20
87.282819518748653
 42
0
  0
VERTEX
  8
0
 10
2539.8674349033636
 20
97.914247908594149
 42
0
  0
VERTEX
  8
0
 10
2534.0749151052714
 20
99.478455671726266
 42
-0.11274677515029907
  0
VERTEX
  8
0
 10
2521.1230768375053
 20
130.74696602446912
 42
-0
  0
VERTEX
  8
0
 10
2524.1129378048217
 20
135.9489579088121
 42
0
  0
VERTEX
  8
0
 10
2524.1129378048217
 20
150.98406698399813
 42
0
  0
VERTEX
  8
0
 10
2521.1230768375053
 20
156.18605886834112
 42
-0.11274677515029907
  0
VERTEX
  8
0
 10
2534.0749151052714
 20
187.45456922108397
 42
-0
  0
VERTEX
  8
0
 10
2539.8674349033636
 20
189.01877698421609
 42
0
  0
VERTEX
  8
0
 10
2550.4988632932091
 20
199.65020537406158
 42
0
  0
SEQEND
  0
POLYLINE
  8
0
 10
0
 20
0
 39
0
 70
1
 66
1
  0
VERTEX
  8
0
 10
2603.1221955218693
 20
150.53758013725442
 42
1
  0
VERTEX
  8
0
 10
2588.9800601401707
 20
136.39544475555581
 42
1
  0
SEQEND
  0
POLYLINE
  8
0
 10
0
 20
0
 39
0
 70
1
 66
1
  0
VERTEX
  8
0
 10
2576.6169172101872
 20
481.99657132600009
 42
-0.11274677515029907
  0
VERTEX
  8
0
 10
2607.8854275629301
 20
494.9484095937662
 42
-0
  0
VERTEX
  8
0
 10
2613.0874194472735
 20
491.95854862644978
 42
0
  0
VERTEX
  8
0
 10
2628.1225285224591
 20
491.95854862644978
 42
0
  0
VERTEX
  8
0
 10
2633.3245204068025
 20
494.9484095937662
 42
-0.11274677515029907
  0
VERTEX
  8
0
 10
2664.5930307595454
 20
481.99657132600009
 42
-0
  0
VERTEX
  8
0
 10
2666.1572385226773
 20
476.20405152790772
 42
0
  0
VERTEX
  8
0
 10
2676.7886669125228
 20
465.57262313806223
 42
0
  0
VERTEX
  8
0
 10
2682.5811867106149
 20
464.00841537493011
 42
-0.11274677515029907
  0
VERTEX
  8
0
 10
2695.533024978381
 20
432.73990502218726
 42
-0
  0
VERTEX
  8
0
 10
2692.5431640110646
 20
427.53791313784427
 42
0
  0
VERTEX
  8
0
 10
2692.5431640110646
 20
412.50280406265824
 42
0
  0
VERTEX
  8
0
 10
2695.533024978381
 20
407.30081217831525
 42
-0.11274677515029907
  0
VERTEX
  8
0
 10
2682.5811867106149
 20
376.0323018255724
 42
-0
  0
VERTEX
  8
0
 10
2676.7886669125228
 20
374.46809406244029
 42
0
  0
VERTEX
  8
0
 10
2666.1572385226773
 20
363.83666567259479
 42
0
  0
VERTEX
  8
0
 10
2664.5930307595454
 20
358.04414587450242
 42
-0.11274677515029907
  0
VERTEX
  8
0
 10
2633.3245204068025
 20
345.09230760673631
 42
-0
  0
VERTEX
  8
0
 10
2628.1225285224591
 20
348.08216857405273
 42
0
  0
VERTEX
  8
0
 10
2613.0874194472735
 20
348.08216857405273
 42
0
  0
VERTEX
  8
0
 10
2607.8854275629301
 20
345.09230760673631
 42
-0.11274677515029907
  0
VERTEX
  8
0
 10
2576.6169172101872
 20
358.04414587450242
 42
-0
  0
VERTEX
  8
0
 10
2575.0527094470553
 20
363.83666567259479
 42
0
  0
VERTEX
  8
0
 10
2564.4212810572099
 20
374.46809406244029
 42
0
  0
VERTEX
  8
0
 10
2558.6287612591177
 20
376.0323018255724
 42
-0.11274677515029907
  0
VERTEX
  8
0
 10
2545.6769229913516
 20
407.30081217831525
 42
-0
  0
VERTEX
  8
0
 10
2548.666783958668
 20
412.50280406265824
 42
0
  0
VERTEX
  8
0
 10
2548.666783958668
 20
427.53791313784427
 42
0
  0
VERTEX
  8
0
 10
2545.6769229913516
 20
432.73990502218726
 42
-0.11274677515029907
  0
VERTEX
  8
0
 10
2558.6287612591177
 20
464.00841537493011
 42
-0
  0
VERTEX
  8
0
 10
2564.4212810572099
 20
465.57262313806223
 42
0
  0
VERTEX
  8
0
 10
2575.0527094470553
 20
476.20405152790772
 42
0
  0
SEQEND
  0
POLYLINE
  8
0
 10
0
 20
0
 39
0
 70
1
 66
1
  0
VERTEX
  8
0
 10
2627.6760416757156
 20
427.09142629110056
 42
1
  0
VERTEX
  8
0
 10
2613.533906294017
 20
412.94929090940195
 42
1
  0
SEQEND
  0
POLYLINE
  8
0
 10
0
 20
0
 39
0
 70
1
 66
1
  0
VERTEX
  8
0
 10
2641.8784556717264
 20
696.30426363369236
 42
-0.11274677515029907
  0
VERTEX
  8
0
 10
2673.1469660244693
 20
709.25610190145846
 42
-0
  0
VERTEX
  8
0
 10
2678.3489579088118
 20
706.26624093414205
 42
0
  0
VERTEX
  8
0
 10
2693.3840669839983
 20
706.26624093414205
 42
0
  0
VERTEX
  8
0
 10
2698.5860588683408
 20
709.25610190145846
 42
-0.11274677515029907
  0
VERTEX
  8
0
 10
2729.8545692210837
 20
696.30426363369236
 42
-0
  0
VERTEX
  8
0
 10
2731.418776984216
 20
690.51174383559999
 42
0
  0
VERTEX
  8
0
 10
2742.0502053740615
 20
679.88031544575449
 42
0
  0
VERTEX
  8
0
 10
2747.8427251721541
 20
678.31610768262237
 42
-0.11274677515029907
  0
VERTEX
  8
0
 10
2760.7945634399202
 20
647.04759732987952
 42
-0
  0
VERTEX
  8
0
 10
2757.8047024726038
 20
641.84560544553653
 42
0
  0
VERTEX
  8
0
 10
2757.8047024726038
 20
626.81049637035051
 42
0
  0
VERTEX
  8
0
 10
2760.7945634399202
 20
621.60850448600752
 42
-0.11274677515029907
  0
VERTEX
  8
0
 10
2747.8427251721541
 20
590.33999413326467
 42
-0
  0
VERTEX
  8
0
 10
2742.0502053740615
 20
588.77578637013255
 42
0
  0
VERTEX
  8
0
 10
2731.418776984216
 20
578.14435798028705
 42
0
  0
VERTEX
  8
0
 10
2729.8545692210837
 20
572.35183818219468
 42
-0.11274677515029907
  0
VERTEX
  8
0
 10
2698.5860588683408
 20
559.39999991442858
 42
-0
  0
VERTEX
  8
0
 10
2693.3840669839983
 20
562.38986088174499
 42
0
  0
VERTEX
  8
0
 10
2678.3489579088118
 20
562.38986088174499
 42
0
  0
VERTEX
  8
0
 10
2673.1469660244693
 20
559.39999991442858
 42
-0.11274677515029907
  0
VERTEX
  8
0
 10
2641.8784556717264
 20
572.35183818219468
 42
-0
  0
VERTEX
  8
0
 10
2640.3142479085941
 20
578.14435798028705
 42
0
  0
VERTEX
  8
0
 10
2629.6828195187486
 20
588.77578637013255
 42
0
  0
VERTEX
  8
0
 10
2623.890299720656
 20
590.33999413326467
 42
-0.11274677515029907
  0
VERTEX
  8
0
 10
2610.9384614528899
 20
621.60850448600752
 42
-0
  0
VERTEX
  8
0
 10
2613.9283224202063
 20
626.81049637035051
 42
0
  0
VERTEX
  8
0
 10
2613.9283224202063
 20
641.84560544553653
 42
0
  0
VERTEX
  8
0
 10
2610.9384614528899
 20
647.04759732987952
 42
-0.11274677515029907
  0
VERTEX
  8
0
 10
2623.890299720656
 20
678.31610768262237
 42
-0
  0
VERTEX
  8
0
 10
2629.6828195187486
 20
679.88031544575449
 42
0
  0
VERTEX
  8
0
 10
2640.3142479085941
 20
690.51174383559999
 42
0
  0
SEQEND
  0
POLYLINE
  8
0
 10
0
 20
0
 39
0
 70
1
 66
1
  0
VERTEX
  8
0
 10
2692.9375801372544
 20
641.39911859879282
 42
1
  0
VERTEX
  8
0
 10
2678.7954447555558
 20
627.25698321709422
 42
1
  0
SEQEND
  0
POLYLINE
  8
0
 10
0
 20
0
 39
0
 70
1
 66
1
  0
VERTEX
  8
0
 10
1927.7382844233025
 20
943.43615692779053
 42
0
  0
VERTEX
  8
0
 10
1895.2396293425072
 20
937.70576703473557
 42
0
  0
VERTEX
  8
0
 10
1890.0301839851845
 20
967.24999892636765
 42
0
  0
VERTEX
  8
0
 10
1831.9265279316414
 20
957.00475639029969
 42
0
  0
VERTEX
  8
0
 10
1820.3419688486565
 20
965.11635190173615
 42
0
  0
VERTEX
  8
0
 10
1809.9230768091807
 20
1024.204823198487
 42
0
  0
VERTEX
  8
0
 10
1819.7711541063914
 20
1025.9413049842613
 42
0
  0
VERTEX
  8
0
 10
1971.4649031880681
 20
1025.9413026375698
 42
-0.36396992206573486
  0
VERTEX
  8
0
 10
1979.3433752184956
 20
1019.3304882911245
 42
0
  0
VERTEX
  8
0
 10
1992.3288202461345
 20
945.68637211408645
 42
-1
  0
VERTEX
  8
0
 10
1933.2403489493836
 20
935.2674800746106
 42
0
  0
VERTEX
  8
0
 10
1932.3721054068355
 20
940.19153375018936
 42
0.41421392560005188
  0
SEQEND
  0
POLYLINE
  8
0
 10
0
 20
0
 39
0
 70
1
 66
1
  0
VERTEX
  8
0
 10
1954.3851819810016
 20
942.04216451730758
 42
1
  0
VERTEX
  8
0
 10
1970.1421056565387
 20
944.82053537454635
 42
1
  0
SEQEND
  0
POLYLINE
  8
0
 10
0
 20
0
 39
0
 70
1
 66
1
  0
VERTEX
  8
0
 10
1952.9903442412769
 20
992.56754646496961
 42
1
  0
VERTEX
  8
0
 10
1965.9898182951738
 20
994.85970454192034
 42
1
  0
SEQEND
  0
ENDSEC
  0
EOF
