  0
SECTION
  2
ENTITIES
  0
POLYLINE
  8
0
 10
0
 20
0
 39
0
 70
1
 66
1
  0
VERTEX
  8
0
 10
0
 20
0
 42
-0
  0
VERTEX
  8
0
 10
2500
 20
0
 42
-0
  0
VERTEX
  8
0
 10
2500
 20
1200
 42
-0
  0
VERTEX
  8
0
 10
0
 20
1200
 42
-0
  0
SEQEND
  0
POLYLINE
  8
0
 10
0
 20
0
 39
0
 70
1
 66
1
  0
VERTEX
  8
0
 10
32.41767142442103
 20
233.76045845004069
 42
-0.55846434831619263
  0
VERTEX
  8
0
 10
456.94247106896603
 20
755.46061599750669
 42
0
  0
VERTEX
  8
0
 10
665.14589707242226
 20
728.05011714000852
 42
0
  0
VERTEX
  8
0
 10
632.42304860746549
 20
479.49538654515732
 42
-1.0733143091201782
  0
SEQEND
  0
POLYLINE
  8
0
 10
0
 20
0
 39
0
 70
1
 66
1
  0
VERTEX
  8
0
 10
613.76801924299684
 20
299.48986748214179
 42
1
  0
VERTEX
  8
0
 10
68.473332091087912
 20
371.27926925177985
 42
1
  0
SEQEND
  0
POLYLINE
  8
0
 10
0
 20
0
 39
0
 70
1
 66
1
  0
VERTEX
  8
0
 10
1280.4337508897941
 20
966.23328413860827
 42
-0.55846434831619263
  0
VERTEX
  8
0
 10
855.90895124524911
 20
444.53312659114226
 42
0
  0
VERTEX
  8
0
 10
647.705525241793
 20
471.94362544864038
 42
0
  0
VERTEX
  8
0
 10
680.42837370674965
 20
720.49835604349164
 42
-1.0733143091201782
  0
SEQEND
  0
POLYLINE
  8
0
 10
0
 20
0
 39
0
 70
1
 66
1
  0
VERTEX
  8
0
 10
699.0834030712183
 20
900.50387510650717
 42
1
  0
VERTEX
  8
0
 10
1244.3780902231272
 20
828.7144733368691
 42
1
  0
SEQEND
  0
POLYLINE
  8
0
 10
0
 20
0
 39
0
 70
1
 66
1
  0
VERTEX
  8
0
 10
1180.8792098859594
 20
233.76045845004069
 42
-0.55846434831619263
  0
VERTEX
  8
0
 10
1605.4040095305045
 20
755.46061599750669
 42
0
  0
VERTEX
  8
0
 10
1813.6074355339606
 20
728.05011714000852
 42
0
  0
VERTEX
  8
0
 10
1780.8845870690038
 20
479.49538654515732
 42
-1.0733143091201782
  0
SEQEND
  0
POLYLINE
  8
0
 10
0
 20
0
 39
0
 70
1
 66
1
  0
VERTEX
  8
0
 10
1762.2295577045352
 20
299.48986748214179
 42
1
  0
VERTEX
  8
0
 10
1216.9348705526263
 20
371.27926925177985
 42
1
  0
SEQEND
  0
POLYLINE
  8
0
 10
0
 20
0
 39
0
 70
1
 66
1
  0
VERTEX
  8
0
 10
168.57183373404627
 20
1031.9215720480597
 42
-1
  0
VERTEX
  8
0
 10
167.19739135924686
 20
716.9245761221564
 42
-1
  0
SEQEND
  0
POLYLINE
  8
0
 10
0
 20
0
 39
0
 70
1
 66
1
  0
VERTEX
  8
0
 10
168.3863930961765
 20
989.42197735964419
 42
1
  0
VERTEX
  8
0
 10
167.38283199711663
 20
759.42417081057192
 42
1
  0
SEQEND
  0
POLYLINE
  8
0
 10
0
 20
0
 39
0
 70
1
 66
1
  0
VERTEX
  8
0
 10
234.9179875802001
 20
489.03695666344436
 42
-1
  0
VERTEX
  8
0
 10
233.5435452054007
 20
174.03996073754104
 42
-1
  0
SEQEND
  0
POLYLINE
  8
0
 10
0
 20
0
 39
0
 70
1
 66
1
  0
VERTEX
  8
0
 10
234.73254694233034
 20
446.53736197502883
 42
1
  0
VERTEX
  8
0
 10
233.72898584327046
 20
216.53955542595656
 42
1
  0
SEQEND
  0
POLYLINE
  8
0
 10
0
 20
0
 39
0
 70
1
 66
1
  0
VERTEX
  8
0
 10
453.37952604173859
 20
1189.6138797403676
 42
-1
  0
VERTEX
  8
0
 10
452.00508366693919
 20
874.61688381446425
 42
-1
  0
SEQEND
  0
POLYLINE
  8
0
 10
0
 20
0
 39
0
 70
1
 66
1
  0
VERTEX
  8
0
 10
453.19408540386883
 20
1147.114285051952
 42
1
  0
VERTEX
  8
0
 10
452.19052430480895
 20
917.11647850287977
 42
1
  0
SEQEND
  0
POLYLINE
  8
0
 10
0
 20
0
 39
0
 70
1
 66
1
  0
VERTEX
  8
0
 10
805.68721834943085
 20
325.38311050959823
 42
-1
  0
VERTEX
  8
0
 10
804.31277597463145
 20
10.386114583694905
 42
-1
  0
SEQEND
  0
POLYLINE
  8
0
 10
0
 20
0
 39
0
 70
1
 66
1
  0
VERTEX
  8
0
 10
805.50177771156109
 20
282.8835158211827
 42
1
  0
VERTEX
  8
0
 10
804.49821661250121
 20
52.885709272110432
 42
1
  0
SEQEND
  0
POLYLINE
  8
0
 10
0
 20
0
 39
0
 70
1
 66
1
  0
VERTEX
  8
0
 10
865.49491065712311
 20
1018.8446489711366
 42
-1
  0
VERTEX
  8
0
 10
864.12046828232371
 20
703.8476530452333
 42
-1
  0
SEQEND
  0
POLYLINE
  8
0
 10
0
 20
0
 39
0
 70
1
 66
1
  0
VERTEX
  8
0
 10
865.30947001925335
 20
976.34505428272109
 42
1
  0
VERTEX
  8
0
 10
864.30590892019347
 20
746.34724773364883
 42
1
  0
SEQEND
  0
POLYLINE
  8
0
 10
0
 20
0
 39
0
 70
1
 66
1
  0
VERTEX
  8
0
 10
1383.3795260417385
 20
489.03695666344436
 42
-1
  0
VERTEX
  8
0
 10
1382.0050836669391
 20
174.03996073754104
 42
-1
  0
SEQEND
  0
POLYLINE
  8
0
 10
0
 20
0
 39
0
 70
1
 66
1
  0
VERTEX
  8
0
 10
1383.1940854038687
 20
446.53736197502883
 42
1
  0
VERTEX
  8
0
 10
1382.1905243048088
 20
216.53955542595656
 42
1
  0
SEQEND
  0
POLYLINE
  8
0
 10
0
 20
0
 39
0
 70
1
 66
1
  0
VERTEX
  8
0
 10
1436.0718337340461
 20
1189.8061874326752
 42
-1
  0
VERTEX
  8
0
 10
1434.6973913592467
 20
874.80919150677187
 42
-1
  0
SEQEND
  0
POLYLINE
  8
0
 10
0
 20
0
 39
0
 70
1
 66
1
  0
VERTEX
  8
0
 10
1435.8863930961763
 20
1147.3065927442597
 42
1
  0
VERTEX
  8
0
 10
1434.8828319971165
 20
917.30878619518739
 42
1
  0
SEQEND
  0
POLYLINE
  8
0
 10
0
 20
0
 39
0
 70
1
 66
1
  0
VERTEX
  8
0
 10
1737.0333721955847
 20
1065.3831105095983
 42
-1
  0
VERTEX
  8
0
 10
1735.6589298207853
 20
750.38611458369485
 42
-1
  0
SEQEND
  0
POLYLINE
  8
0
 10
0
 20
0
 39
0
 70
1
 66
1
  0
VERTEX
  8
0
 10
1736.8479315577149
 20
1022.8835158211826
 42
1
  0
VERTEX
  8
0
 10
1735.844370458655
 20
792.88570927211038
 42
1
  0
SEQEND
  0
POLYLINE
  8
0
 10
0
 20
0
 39
0
 70
1
 66
1
  0
VERTEX
  8
0
 10
1824.8076923076922
 20
37.290999111298134
 42
-0
  0
VERTEX
  8
0
 10
1824.8076923076922
 20
196.28229015744071
 42
-0
  0
VERTEX
  8
0
 10
1859.9375941936785
 20
196.28229015744071
 42
-0
  0
VERTEX
  8
0
 10
1859.9375941936785
 20
236.28229015744071
 42
-0
  0
VERTEX
  8
0
 10
1824.8076923076922
 20
236.28229015744071
 42
-0
  0
VERTEX
  8
0
 10
1824.8076923076922
 20
478.72221630490162
 42
-0
  0
VERTEX
  8
0
 10
1859.9375941936785
 20
478.72221630490162
 42
-0
  0
VERTEX
  8
0
 10
1859.9375941936785
 20
518.72224682247975
 42
-0
  0
VERTEX
  8
0
 10
1824.8076923076922
 20
518.72224682247975
 42
-0
  0
VERTEX
  8
0
 10
1824.8076923076922
 20
677.87398022091725
 42
-0.47935917973518372
  0
VERTEX
  8
0
 10
1937.0674960796648
 20
677.87398022091725
 42
0
  0
VERTEX
  8
0
 10
1937.0674960796648
 20
518.72224682247975
 42
0
  0
VERTEX
  8
0
 10
1901.9375903789812
 20
518.72224682247975
 42
0
  0
VERTEX
  8
0
 10
1901.9375903789812
 20
478.72221630490162
 42
0
  0
VERTEX
  8
0
 10
1937.0674960796648
 20
478.72221630490162
 42
0
  0
VERTEX
  8
0
 10
1937.0674960796648
 20
236.28229015744071
 42
0
  0
VERTEX
  8
0
 10
1901.9375903789812
 20
236.28229015744071
 42
0
  0
VERTEX
  8
0
 10
1901.9375903789812
 20
196.28229015744071
 42
0
  0
VERTEX
  8
0
 10
1937.0674960796648
 20
196.28229015744071
 42
0
  0
VERTEX
  8
0
 10
1937.0674960796648
 20
37.290999111298134
 42
-0.47935917973518372
  0
SEQEND
  0
POLYLINE
  8
0
 10
0
 20
0
 39
0
 70
1
 66
1
  0
VERTEX
  8
0
 10
1880.9375941936785
 20
321.63228100216725
 42
1
  0
VERTEX
  8
0
 10
1880.9375941936785
 20
385.63228100216725
 42
1
  0
SEQEND
  0
POLYLINE
  8
0
 10
0
 20
0
 39
0
 70
1
 66
1
  0
VERTEX
  8
0
 10
1947.3076923076922
 20
37.290999111298134
 42
-0
  0
VERTEX
  8
0
 10
1947.3076923076922
 20
196.28229015744071
 42
-0
  0
VERTEX
  8
0
 10
1982.4375941936785
 20
196.28229015744071
 42
-0
  0
VERTEX
  8
0
 10
1982.4375941936785
 20
236.28229015744071
 42
-0
  0
VERTEX
  8
0
 10
1947.3076923076922
 20
236.28229015744071
 42
-0
  0
VERTEX
  8
0
 10
1947.3076923076922
 20
478.72221630490162
 42
-0
  0
VERTEX
  8
0
 10
1982.4375941936785
 20
478.72221630490162
 42
-0
  0
VERTEX
  8
0
 10
1982.4375941936785
 20
518.72224682247975
 42
-0
  0
VERTEX
  8
0
 10
1947.3076923076922
 20
518.72224682247975
 42
-0
  0
VERTEX
  8
0
 10
1947.3076923076922
 20
677.87398022091725
 42
-0.47935917973518372
  0
VERTEX
  8
0
 10
2059.5674960796646
 20
677.87398022091725
 42
0
  0
VERTEX
  8
0
 10
2059.5674960796646
 20
518.72224682247975
 42
0
  0
VERTEX
  8
0
 10
2024.4375903789812
 20
518.72224682247975
 42
0
  0
VERTEX
  8
0
 10
2024.4375903789812
 20
478.72221630490162
 42
0
  0
VERTEX
  8
0
 10
2059.5674960796646
 20
478.72221630490162
 42
0
  0
VERTEX
  8
0
 10
2059.5674960796646
 20
236.28229015744071
 42
0
  0
VERTEX
  8
0
 10
2024.4375903789812
 20
236.28229015744071
 42
0
  0
VERTEX
  8
0
 10
2024.4375903789812
 20
196.28229015744071
 42
0
  0
VERTEX
  8
0
 10
2059.5674960796646
 20
196.28229015744071
 42
0
  0
VERTEX
  8
0
 10
2059.567496079665
 20
37.290999111298134
 42
-0.47935917973518372
  0
SEQEND
  0
POLYLINE
  8
0
 10
0
 20
0
 39
0
 70
1
 66
1
  0
VERTEX
  8
0
 10
2003.4375941936785
 20
321.63228100216725
 42
1
  0
VERTEX
  8
0
 10
2003.4375941936785
 20
385.63228100216725
 42
1
  0
SEQEND
  0
POLYLINE
  8
0
 10
0
 20
0
 39
0
 70
1
 66
1
  0
VERTEX
  8
0
 10
2069.8076923076924
 20
37.290999111298134
 42
-0
  0
VERTEX
  8
0
 10
2069.8076923076924
 20
196.28229015744071
 42
-0
  0
VERTEX
  8
0
 10
2104.9375941936787
 20
196.28229015744071
 42
-0
  0
VERTEX
  8
0
 10
2104.9375941936787
 20
236.28229015744071
 42
-0
  0
VERTEX
  8
0
 10
2069.8076923076924
 20
236.28229015744071
 42
-0
  0
VERTEX
  8
0
 10
2069.8076923076924
 20
478.72221630490162
 42
-0
  0
VERTEX
  8
0
 10
2104.9375941936787
 20
478.72221630490162
 42
-0
  0
VERTEX
  8
0
 10
2104.9375941936787
 20
518.72224682247975
 42
-0
  0
VERTEX
  8
0
 10
2069.8076923076924
 20
518.72224682247975
 42
-0
  0
VERTEX
  8
0
 10
2069.8076923076924
 20
677.87398022091725
 42
-0.47935917973518372
  0
VERTEX
  8
0
 10
2182.067496079665
 20
677.87398022091725
 42
0
  0
VERTEX
  8
0
 10
2182.067496079665
 20
518.72224682247975
 42
0
  0
VERTEX
  8
0
 10
2146.9375903789814
 20
518.72224682247975
 42
0
  0
VERTEX
  8
0
 10
2146.9375903789814
 20
478.72221630490162
 42
0
  0
VERTEX
  8
0
 10
2182.067496079665
 20
478.72221630490162
 42
0
  0
VERTEX
  8
0
 10
2182.067496079665
 20
236.28229015744071
 42
0
  0
VERTEX
  8
0
 10
2146.9375903789814
 20
236.28229015744071
 42
0
  0
VERTEX
  8
0
 10
2146.9375903789814
 20
196.28229015744071
 42
0
  0
VERTEX
  8
0
 10
2182.067496079665
 20
196.28229015744071
 42
0
  0
VERTEX
  8
0
 10
2182.067496079665
 20
37.290999111298134
 42
-0.47935917973518372
  0
SEQEND
  0
POLYLINE
  8
0
 10
0
 20
0
 39
0
 70
1
 66
1
  0
VERTEX
  8
0
 10
2125.9375941936787
 20
321.63228100216725
 42
1
  0
VERTEX
  8
0
 10
2125.9375941936787
 20
385.63228100216725
 42
1
  0
SEQEND
  0
POLYLINE
  8
0
 10
0
 20
0
 39
0
 70
1
 66
1
  0
VERTEX
  8
0
 10
2248.643210990148
 20
1077.1153846153845
 42
-0
  0
VERTEX
  8
0
 10
2089.6519199440054
 20
1077.1153846153845
 42
-0
  0
VERTEX
  8
0
 10
2089.6519199440054
 20
1112.2452865013709
 42
-0
  0
VERTEX
  8
0
 10
2049.6519199440054
 20
1112.2452865013709
 42
-0
  0
VERTEX
  8
0
 10
2049.6519199440054
 20
1077.1153846153845
 42
-0
  0
VERTEX
  8
0
 10
1807.2119937965444
 20
1077.1153846153845
 42
-0
  0
VERTEX
  8
0
 10
1807.2119937965444
 20
1112.2452865013709
 42
-0
  0
VERTEX
  8
0
 10
1767.2119632789663
 20
1112.2452865013709
 42
-0
  0
VERTEX
  8
0
 10
1767.2119632789663
 20
1077.1153846153845
 42
-0
  0
VERTEX
  8
0
 10
1608.0602298805288
 20
1077.1153846153845
 42
-0.47935917973518372
  0
VERTEX
  8
0
 10
1608.0602298805288
 20
1189.3751883873572
 42
0
  0
VERTEX
  8
0
 10
1767.2119632789663
 20
1189.3751883873572
 42
0
  0
VERTEX
  8
0
 10
1767.2119632789663
 20
1154.2452826866736
 42
0
  0
VERTEX
  8
0
 10
1807.2119937965444
 20
1154.2452826866736
 42
0
  0
VERTEX
  8
0
 10
1807.2119937965444
 20
1189.3751883873572
 42
0
  0
VERTEX
  8
0
 10
2049.6519199440054
 20
1189.3751883873572
 42
0
  0
VERTEX
  8
0
 10
2049.6519199440054
 20
1154.2452826866736
 42
0
  0
VERTEX
  8
0
 10
2089.6519199440054
 20
1154.2452826866736
 42
0
  0
VERTEX
  8
0
 10
2089.6519199440054
 20
1189.3751883873572
 42
0
  0
VERTEX
  8
0
 10
2248.643210990148
 20
1189.3751883873572
 42
-0.47935917973518372
  0
SEQEND
  0
POLYLINE
  8
0
 10
0
 20
0
 39
0
 70
1
 66
1
  0
VERTEX
  8
0
 10
1964.3019290992788
 20
1133.2452865013709
 42
1
  0
VERTEX
  8
0
 10
1900.3019290992788
 20
1133.2452865013709
 42
1
  0
SEQEND
  0
POLYLINE
  8
0
 10
0
 20
0
 39
0
 70
1
 66
1
  0
VERTEX
  8
0
 10
2192.3076923076924
 20
37.290999111298134
 42
-0
  0
VERTEX
  8
0
 10
2192.3076923076924
 20
196.28229015744071
 42
-0
  0
VERTEX
  8
0
 10
2227.4375941936787
 20
196.28229015744071
 42
-0
  0
VERTEX
  8
0
 10
2227.4375941936787
 20
236.28229015744071
 42
-0
  0
VERTEX
  8
0
 10
2192.3076923076924
 20
236.28229015744071
 42
-0
  0
VERTEX
  8
0
 10
2192.3076923076924
 20
478.72221630490162
 42
-0
  0
VERTEX
  8
0
 10
2227.4375941936787
 20
478.72221630490162
 42
-0
  0
VERTEX
  8
0
 10
2227.4375941936787
 20
518.72224682247975
 42
-0
  0
VERTEX
  8
0
 10
2192.3076923076924
 20
518.72224682247975
 42
-0
  0
VERTEX
  8
0
 10
2192.3076923076924
 20
677.87398022091725
 42
-0.47935917973518372
  0
VERTEX
  8
0
 10
2304.567496079665
 20
677.87398022091725
 42
0
  0
VERTEX
  8
0
 10
2304.567496079665
 20
518.72224682247975
 42
0
  0
VERTEX
  8
0
 10
2269.4375903789814
 20
518.72224682247975
 42
0
  0
VERTEX
  8
0
 10
2269.4375903789814
 20
478.72221630490162
 42
0
  0
VERTEX
  8
0
 10
2304.567496079665
 20
478.72221630490162
 42
0
  0
VERTEX
  8
0
 10
2304.567496079665
 20
236.28229015744071
 42
0
  0
VERTEX
  8
0
 10
2269.4375903789814
 20
236.28229015744071
 42
0
  0
VERTEX
  8
0
 10
2269.4375903789814
 20
196.28229015744071
 42
0
  0
VERTEX
  8
0
 10
2304.567496079665
 20
196.28229015744071
 42
0
  0
VERTEX
  8
0
 10
2304.567496079665
 20
37.290999111298134
 42
-0.47935917973518372
  0
SEQEND
  0
POLYLINE
  8
0
 10
0
 20
0
 39
0
 70
1
 66
1
  0
VERTEX
  8
0
 10
2248.4375941936787
 20
321.63228100216725
 42
1
  0
VERTEX
  8
0
 10
2248.4375941936787
 20
385.63228100216725
 42
1
  0
SEQEND
  0
POLYLINE
  8
0
 10
0
 20
0
 39
0
 70
1
 66
1
  0
VERTEX
  8
0
 10
2314.8076923076924
 20
37.290999111298134
 42
-0
  0
VERTEX
  8
0
 10
2314.8076923076924
 20
196.28229015744071
 42
-0
  0
VERTEX
  8
0
 10
2349.9375941936787
 20
196.28229015744071
 42
-0
  0
VERTEX
  8
0
 10
2349.9375941936787
 20
236.28229015744071
 42
-0
  0
VERTEX
  8
0
 10
2314.8076923076924
 20
236.28229015744071
 42
-0
  0
VERTEX
  8
0
 10
2314.8076923076924
 20
478.72221630490162
 42
-0
  0
VERTEX
  8
0
 10
2349.9375941936787
 20
478.72221630490162
 42
-0
  0
VERTEX
  8
0
 10
2349.9375941936787
 20
518.72224682247975
 42
-0
  0
VERTEX
  8
0
 10
2314.8076923076924
 20
518.72224682247975
 42
-0
  0
VERTEX
  8
0
 10
2314.8076923076924
 20
677.87398022091725
 42
-0.47935917973518372
  0
VERTEX
  8
0
 10
2427.067496079665
 20
677.87398022091725
 42
0
  0
VERTEX
  8
0
 10
2427.067496079665
 20
518.72224682247975
 42
0
  0
VERTEX
  8
0
 10
2391.9375903789814
 20
518.72224682247975
 42
0
  0
VERTEX
  8
0
 10
2391.9375903789814
 20
478.72221630490162
 42
0
  0
VERTEX
  8
0
 10
2427.067496079665
 20
478.72221630490162
 42
0
  0
VERTEX
  8
0
 10
2427.067496079665
 20
236.28229015744071
 42
0
  0
VERTEX
  8
0
 10
2391.9375903789814
 20
236.28229015744071
 42
0
  0
VERTEX
  8
0
 10
2391.9375903789814
 20
196.28229015744071
 42
0
  0
VERTEX
  8
0
 10
2427.067496079665
 20
196.28229015744071
 42
0
  0
VERTEX
  8
0
 10
2427.067496079665
 20
37.290999111298134
 42
-0.47935917973518372
  0
SEQEND
  0
POLYLINE
  8
0
 10
0
 20
0
 39
0
 70
1
 66
1
  0
VERTEX
  8
0
 10
2370.9375941936787
 20
321.63228100216725
 42
1
  0
VERTEX
  8
0
 10
2370.9375941936787
 20
385.63228100216725
 42
1
  0
SEQEND
  0
POLYLINE
  8
0
 10
0
 20
0
 39
0
 70
1
 66
1
  0
VERTEX
  8
0
 10
156.3651428529443
 20
966.3452699946298
 42
-1
  0
VERTEX
  8
0
 10
155.55793066457005
 20
781.34703429211515
 42
-1
  0
SEQEND
  0
POLYLINE
  8
0
 10
0
 20
0
 39
0
 70
1
 66
1
  0
VERTEX
  8
0
 10
156.11425257817933
 20
908.84581835736174
 42
1
  0
VERTEX
  8
0
 10
155.80882093933502
 20
838.84648592938322
 42
1
  0
SEQEND
  0
POLYLINE
  8
0
 10
0
 20
0
 39
0
 70
1
 66
1
  0
VERTEX
  8
0
 10
222.71129669909814
 20
423.4606546100145
 42
-1
  0
VERTEX
  8
0
 10
221.90408451072389
 20
238.46241890749985
 42
-1
  0
SEQEND
  0
POLYLINE
  8
0
 10
0
 20
0
 39
0
 70
1
 66
1
  0
VERTEX
  8
0
 10
222.46040642433317
 20
365.96120297274643
 42
1
  0
VERTEX
  8
0
 10
222.15497478548886
 20
295.96187054476792
 42
1
  0
SEQEND
  0
POLYLINE
  8
0
 10
0
 20
0
 39
0
 70
1
 66
1
  0
VERTEX
  8
0
 10
441.17283516063662
 20
1124.0375776869375
 42
-1
  0
VERTEX
  8
0
 10
440.36562297226237
 20
939.03934198442289
 42
-1
  0
SEQEND
  0
POLYLINE
  8
0
 10
0
 20
0
 39
0
 70
1
 66
1
  0
VERTEX
  8
0
 10
440.92194488587165
 20
1066.5381260496695
 42
1
  0
VERTEX
  8
0
 10
440.61651324702734
 20
996.53879362169096
 42
1
  0
SEQEND
  0
POLYLINE
  8
0
 10
0
 20
0
 39
0
 70
1
 66
1
  0
VERTEX
  8
0
 10
462.71129669909817
 20
549.99911614847611
 42
-1
  0
VERTEX
  8
0
 10
461.90408451072392
 20
365.0008804459614
 42
-1
  0
SEQEND
  0
POLYLINE
  8
0
 10
0
 20
0
 39
0
 70
1
 66
1
  0
VERTEX
  8
0
 10
462.4604064243332
 20
492.49966451120798
 42
1
  0
VERTEX
  8
0
 10
462.15497478548889
 20
422.50033208322947
 42
1
  0
SEQEND
  0
POLYLINE
  8
0
 10
0
 20
0
 39
0
 70
1
 66
1
  0
VERTEX
  8
0
 10
471.3651428529443
 20
315.19142384078373
 42
-1
  0
VERTEX
  8
0
 10
470.55793066457005
 20
130.19318813826908
 42
-1
  0
SEQEND
  0
POLYLINE
  8
0
 10
0
 20
0
 39
0
 70
1
 66
1
  0
VERTEX
  8
0
 10
471.11425257817933
 20
257.69197220351566
 42
1
  0
VERTEX
  8
0
 10
470.80882093933502
 20
187.69263977553715
 42
1
  0
SEQEND
  0
POLYLINE
  8
0
 10
0
 20
0
 39
0
 70
1
 66
1
  0
VERTEX
  8
0
 10
793.48052746832889
 20
259.80680845616837
 42
-1
  0
VERTEX
  8
0
 10
792.67331527995464
 20
74.808572753653692
 42
-1
  0
SEQEND
  0
POLYLINE
  8
0
 10
0
 20
0
 39
0
 70
1
 66
1
  0
VERTEX
  8
0
 10
793.22963719356392
 20
202.30735681890027
 42
1
  0
VERTEX
  8
0
 10
792.92420555471961
 20
132.30802439092176
 42
1
  0
SEQEND
  0
POLYLINE
  8
0
 10
0
 20
0
 39
0
 70
1
 66
1
  0
VERTEX
  8
0
 10
853.28821977602115
 20
953.26834691770671
 42
-1
  0
VERTEX
  8
0
 10
852.4810075876469
 20
768.27011121519206
 42
-1
  0
SEQEND
  0
POLYLINE
  8
0
 10
0
 20
0
 39
0
 70
1
 66
1
  0
VERTEX
  8
0
 10
853.03732950125618
 20
895.76889528043864
 42
1
  0
VERTEX
  8
0
 10
852.73189786241187
 20
825.76956285246013
 42
1
  0
SEQEND
  0
POLYLINE
  8
0
 10
0
 20
0
 39
0
 70
1
 66
1
  0
VERTEX
  8
0
 10
995.59591208371342
 20
438.26834691770682
 42
-1
  0
VERTEX
  8
0
 10
994.78869989533916
 20
253.27011121519217
 42
-1
  0
SEQEND
  0
POLYLINE
  8
0
 10
0
 20
0
 39
0
 70
1
 66
1
  0
VERTEX
  8
0
 10
995.34502180894845
 20
380.76889528043876
 42
1
  0
VERTEX
  8
0
 10
995.03959017010413
 20
310.76956285246024
 42
1
  0
SEQEND
  0
POLYLINE
  8
0
 10
0
 20
0
 39
0
 70
1
 66
1
  0
VERTEX
  8
0
 10
1057.7112966990981
 20
195.38373153309141
 42
-1
  0
VERTEX
  8
0
 10
1056.9040845107238
 20
10.385495830576772
 42
-1
  0
SEQEND
  0
POLYLINE
  8
0
 10
0
 20
0
 39
0
 70
1
 66
1
  0
VERTEX
  8
0
 10
1057.4604064243331
 20
137.88427989582334
 42
1
  0
VERTEX
  8
0
 10
1057.1549747854888
 20
67.884947467844839
 42
1
  0
SEQEND
  0
POLYLINE
  8
0
 10
0
 20
0
 39
0
 70
1
 66
1
  0
VERTEX
  8
0
 10
1093.8651428529442
 20
1078.6529623023221
 42
-1
  0
VERTEX
  8
0
 10
1093.05793066457
 20
893.65472659980742
 42
-1
  0
SEQEND
  0
POLYLINE
  8
0
 10
0
 20
0
 39
0
 70
1
 66
1
  0
VERTEX
  8
0
 10
1093.6142525781793
 20
1021.153510665054
 42
1
  0
VERTEX
  8
0
 10
1093.308820939335
 20
951.15417823707548
 42
1
  0
SEQEND
  0
POLYLINE
  8
0
 10
0
 20
0
 39
0
 70
1
 66
1
  0
VERTEX
  8
0
 10
1101.3651428529442
 20
843.65296230232207
 42
-1
  0
VERTEX
  8
0
 10
1100.55793066457
 20
658.65472659980742
 42
-1
  0
SEQEND
  0
POLYLINE
  8
0
 10
0
 20
0
 39
0
 70
1
 66
1
  0
VERTEX
  8
0
 10
1101.1142525781793
 20
786.153510665054
 42
1
  0
VERTEX
  8
0
 10
1100.808820939335
 20
716.15417823707548
 42
1
  0
SEQEND
  0
POLYLINE
  8
0
 10
0
 20
0
 39
0
 70
1
 66
1
  0
VERTEX
  8
0
 10
1371.1728351606366
 20
423.4606546100145
 42
-1
  0
VERTEX
  8
0
 10
1370.3656229722624
 20
238.46241890749985
 42
-1
  0
SEQEND
  0
POLYLINE
  8
0
 10
0
 20
0
 39
0
 70
1
 66
1
  0
VERTEX
  8
0
 10
1370.9219448858717
 20
365.96120297274643
 42
1
  0
VERTEX
  8
0
 10
1370.6165132470273
 20
295.96187054476792
 42
1
  0
SEQEND
  0
POLYLINE
  8
0
 10
0
 20
0
 39
0
 70
1
 66
1
  0
VERTEX
  8
0
 10
1423.8651428529442
 20
1124.2298853792452
 42
-1
  0
VERTEX
  8
0
 10
1423.05793066457
 20
939.23164967673051
 42
-1
  0
SEQEND
  0
POLYLINE
  8
0
 10
0
 20
0
 39
0
 70
1
 66
1
  0
VERTEX
  8
0
 10
1423.6142525781793
 20
1066.7304337419771
 42
1
  0
VERTEX
  8
0
 10
1423.308820939335
 20
996.73110131399858
 42
1
  0
SEQEND
  0
POLYLINE
  8
0
 10
0
 20
0
 39
0
 70
1
 66
1
  0
VERTEX
  8
0
 10
1611.1728351606366
 20
549.99911614847611
 42
-1
  0
VERTEX
  8
0
 10
1610.3656229722624
 20
365.0008804459614
 42
-1
  0
SEQEND
  0
POLYLINE
  8
0
 10
0
 20
0
 39
0
 70
1
 66
1
  0
VERTEX
  8
0
 10
1610.9219448858717
 20
492.49966451120798
 42
1
  0
VERTEX
  8
0
 10
1610.6165132470273
 20
422.50033208322947
 42
1
  0
SEQEND
  0
POLYLINE
  8
0
 10
0
 20
0
 39
0
 70
1
 66
1
  0
VERTEX
  8
0
 10
1619.8266813144828
 20
315.19142384078373
 42
-1
  0
VERTEX
  8
0
 10
1619.0194691261086
 20
130.19318813826908
 42
-1
  0
SEQEND
  0
POLYLINE
  8
0
 10
0
 20
0
 39
0
 70
1
 66
1
  0
VERTEX
  8
0
 10
1619.5757910397178
 20
257.69197220351566
 42
1
  0
VERTEX
  8
0
 10
1619.2703594008735
 20
187.69263977553715
 42
1
  0
SEQEND
  0
POLYLINE
  8
0
 10
0
 20
0
 39
0
 70
1
 66
1
  0
VERTEX
  8
0
 10
1724.8266813144828
 20
999.80680845616826
 42
-1
  0
VERTEX
  8
0
 10
1724.0194691261086
 20
814.80857275365361
 42
-1
  0
SEQEND
  0
POLYLINE
  8
0
 10
0
 20
0
 39
0
 70
1
 66
1
  0
VERTEX
  8
0
 10
1724.5757910397178
 20
942.30735681890019
 42
1
  0
VERTEX
  8
0
 10
1724.2703594008735
 20
872.30802439092167
 42
1
  0
SEQEND
  0
POLYLINE
  8
0
 10
0
 20
0
 39
0
 70
1
 66
1
  0
VERTEX
  8
0
 10
225.38461224284552
 20
1144.0384618123926
 42
-0
  0
VERTEX
  8
0
 10
225.38461224284552
 20
1064.0384618123926
 42
-0
  0
VERTEX
  8
0
 10
104.87048260417366
 20
1031.6140118917383
 42
-1.3046128749847412
  0
VERTEX
  8
0
 10
104.87048260417366
 20
1176.4629079183496
 42
0
  0
SEQEND
  0
POLYLINE
  8
0
 10
0
 20
0
 39
0
 70
1
 66
1
  0
VERTEX
  8
0
 10
85.384612242845535
 20
1085.5384618123926
 42
1
  0
VERTEX
  8
0
 10
85.384612242845535
 20
1122.5384618123926
 42
1
  0
SEQEND
  0
POLYLINE
  8
0
 10
0
 20
0
 39
0
 70
1
 66
1
  0
VERTEX
  8
0
 10
1914.4230733823108
 20
922.69230455053776
 42
-0
  0
VERTEX
  8
0
 10
1994.4230733823108
 20
922.69230455053776
 42
-0
  0
VERTEX
  8
0
 10
2026.8475233029651
 20
802.17817491186588
 42
-1.3046128749847412
  0
VERTEX
  8
0
 10
1881.9986272763538
 20
802.17817491186588
 42
0
  0
SEQEND
  0
POLYLINE
  8
0
 10
0
 20
0
 39
0
 70
1
 66
1
  0
VERTEX
  8
0
 10
1972.9230733823108
 20
782.69230455053776
 42
1
  0
VERTEX
  8
0
 10
1935.9230733823108
 20
782.69230455053776
 42
1
  0
SEQEND
  0
POLYLINE
  8
0
 10
0
 20
0
 39
0
 70
1
 66
1
  0
VERTEX
  8
0
 10
1923.4615384615381
 20
952.69230415154152
 42
-0
  0
VERTEX
  8
0
 10
1923.4615384615381
 20
1032.6923041515415
 42
-0
  0
VERTEX
  8
0
 10
2043.97566810021
 20
1065.1167540721958
 42
-1.3046128749847412
  0
VERTEX
  8
0
 10
2043.97566810021
 20
920.26785804558449
 42
0
  0
SEQEND
  0
POLYLINE
  8
0
 10
0
 20
0
 39
0
 70
1
 66
1
  0
VERTEX
  8
0
 10
2063.4615384615381
 20
1011.1923041515415
 42
1
  0
VERTEX
  8
0
 10
2063.4615384615381
 20
974.19230415154152
 42
1
  0
SEQEND
  0
POLYLINE
  8
0
 10
0
 20
0
 39
0
 70
1
 66
1
  0
VERTEX
  8
0
 10
2185.576923350854
 20
714.80769230769226
 42
-0
  0
VERTEX
  8
0
 10
2105.576923350854
 20
714.80769230769226
 42
-0
  0
VERTEX
  8
0
 10
2073.1524734301997
 20
835.32182194636414
 42
-1.3046128749847412
  0
VERTEX
  8
0
 10
2218.0013694568111
 20
835.32182194636414
 42
0
  0
SEQEND
  0
POLYLINE
  8
0
 10
0
 20
0
 39
0
 70
1
 66
1
  0
VERTEX
  8
0
 10
2127.076923350854
 20
854.80769230769226
 42
1
  0
VERTEX
  8
0
 10
2164.076923350854
 20
854.80769230769226
 42
1
  0
SEQEND
  0
POLYLINE
  8
0
 10
0
 20
0
 39
0
 70
1
 66
1
  0
VERTEX
  8
0
 10
2314.0384618123926
 20
855.38461538461524
 42
-0
  0
VERTEX
  8
0
 10
2234.0384618123926
 20
855.38461538461524
 42
-0
  0
VERTEX
  8
0
 10
2201.6140118917383
 20
975.89874502328712
 42
-1.3046128749847412
  0
VERTEX
  8
0
 10
2346.4629079183496
 20
975.89874502328712
 42
0
  0
SEQEND
  0
POLYLINE
  8
0
 10
0
 20
0
 39
0
 70
1
 66
1
  0
VERTEX
  8
0
 10
2255.5384618123926
 20
995.38461538461524
 42
1
  0
VERTEX
  8
0
 10
2292.5384618123926
 20
995.38461538461524
 42
1
  0
SEQEND
  0
POLYLINE
  8
0
 10
0
 20
0
 39
0
 70
1
 66
1
  0
VERTEX
  8
0
 10
2345.1923041515415
 20
929.8076891659224
 42
-0
  0
VERTEX
  8
0
 10
2425.1923041515415
 20
929.8076891659224
 42
-0
  0
VERTEX
  8
0
 10
2457.6167540721958
 20
809.29355952725052
 42
-1.3046128749847412
  0
VERTEX
  8
0
 10
2312.7678580455845
 20
809.29355952725052
 42
0
  0
SEQEND
  0
POLYLINE
  8
0
 10
0
 20
0
 39
0
 70
1
 66
1
  0
VERTEX
  8
0
 10
2403.6923041515415
 20
789.8076891659224
 42
1
  0
VERTEX
  8
0
 10
2366.6923041515415
 20
789.8076891659224
 42
1
  0
SEQEND
  0
POLYLINE
  8
0
 10
0
 20
0
 39
0
 70
1
 66
1
  0
VERTEX
  8
0
 10
2448.2692310431617
 20
974.42307692307691
 42
-0
  0
VERTEX
  8
0
 10
2368.2692310431617
 20
974.42307692307691
 42
-0
  0
VERTEX
  8
0
 10
2335.8447811225074
 20
1094.9372065617488
 42
-1.3046128749847412
  0
VERTEX
  8
0
 10
2480.6936771491187
 20
1094.9372065617488
 42
0
  0
SEQEND
  0
POLYLINE
  8
0
 10
0
 20
0
 39
0
 70
1
 66
1
  0
VERTEX
  8
0
 10
2389.7692310431617
 20
1114.4230769230769
 42
1
  0
VERTEX
  8
0
 10
2426.7692310431617
 20
1114.4230769230769
 42
1
  0
SEQEND
  0
POLYLINE
  8
0
 10
0
 20
0
 39
0
 70
1
 66
1
  0
VERTEX
  8
0
 10
526.53846153846155
 20
768.84615384615381
 42
-0
  0
VERTEX
  8
0
 10
326.53846153846155
 20
768.84615384615381
 42
0
  0
VERTEX
  8
0
 10
326.53846153846155
 20
818.84615384615381
 42
0
  0
VERTEX
  8
0
 10
526.53846153846155
 20
818.84615384615381
 42
0
  0
SEQEND
  0
POLYLINE
  8
0
 10
0
 20
0
 39
0
 70
1
 66
1
  0
VERTEX
  8
0
 10
489.86513695350061
 20
793.84615384615381
 42
1
  0
VERTEX
  8
0
 10
459.86513695350061
 20
793.84615384615381
 42
1
  0
SEQEND
  0
POLYLINE
  8
0
 10
0
 20
0
 39
0
 70
1
 66
1
  0
VERTEX
  8
0
 10
873.46153846153845
 20
380.76923076923077
 42
-0
  0
VERTEX
  8
0
 10
673.46153846153845
 20
380.76923076923077
 42
0
  0
VERTEX
  8
0
 10
673.46153846153845
 20
430.76923076923077
 42
0
  0
VERTEX
  8
0
 10
873.46153846153845
 20
430.76923076923077
 42
0
  0
SEQEND
  0
POLYLINE
  8
0
 10
0
 20
0
 39
0
 70
1
 66
1
  0
VERTEX
  8
0
 10
836.78821387657752
 20
405.76923076923077
 42
1
  0
VERTEX
  8
0
 10
806.78821387657752
 20
405.76923076923077
 42
1
  0
SEQEND
  0
POLYLINE
  8
0
 10
0
 20
0
 39
0
 70
1
 66
1
  0
VERTEX
  8
0
 10
1097.8846153846152
 20
197.69230769230768
 42
-0
  0
VERTEX
  8
0
 10
1097.8846153846152
 20
397.69230769230768
 42
0
  0
VERTEX
  8
0
 10
1147.8846153846152
 20
397.69230769230768
 42
0
  0
VERTEX
  8
0
 10
1147.8846153846152
 20
197.69230769230768
 42
0
  0
SEQEND
  0
POLYLINE
  8
0
 10
0
 20
0
 39
0
 70
1
 66
1
  0
VERTEX
  8
0
 10
1122.8846153846152
 20
234.36563227726862
 42
1
  0
VERTEX
  8
0
 10
1122.8846153846152
 20
264.36563227726862
 42
1
  0
SEQEND
  0
POLYLINE
  8
0
 10
0
 20
0
 39
0
 70
1
 66
1
  0
VERTEX
  8
0
 10
1512.3076923076922
 20
767.11538461538464
 42
-0
  0
VERTEX
  8
0
 10
1312.3076923076922
 20
767.11538461538464
 42
0
  0
VERTEX
  8
0
 10
1312.3076923076922
 20
817.11538461538464
 42
0
  0
VERTEX
  8
0
 10
1512.3076923076922
 20
817.11538461538464
 42
0
  0
SEQEND
  0
POLYLINE
  8
0
 10
0
 20
0
 39
0
 70
1
 66
1
  0
VERTEX
  8
0
 10
1475.6343677227312
 20
792.11538461538464
 42
1
  0
VERTEX
  8
0
 10
1445.6343677227312
 20
792.11538461538464
 42
1
  0
SEQEND
  0
POLYLINE
  8
0
 10
0
 20
0
 39
0
 70
1
 66
1
  0
VERTEX
  8
0
 10
2437.3076923076924
 20
10.384615384615383
 42
-0
  0
VERTEX
  8
0
 10
2437.3076923076924
 20
210.38461538461539
 42
0
  0
VERTEX
  8
0
 10
2487.3076923076924
 20
210.38461538461539
 42
0
  0
VERTEX
  8
0
 10
2487.3076923076924
 20
10.384615384615389
 42
0
  0
SEQEND
  0
POLYLINE
  8
0
 10
0
 20
0
 39
0
 70
1
 66
1
  0
VERTEX
  8
0
 10
2462.3076923076924
 20
47.057939969576324
 42
1
  0
VERTEX
  8
0
 10
2462.3076923076924
 20
77.057939969576324
 42
1
  0
SEQEND
  0
POLYLINE
  8
0
 10
0
 20
0
 39
0
 70
1
 66
1
  0
VERTEX
  8
0
 10
2437.3076923076924
 20
220.57692307692307
 42
-0
  0
VERTEX
  8
0
 10
2437.3076923076924
 20
420.57692307692309
 42
0
  0
VERTEX
  8
0
 10
2487.3076923076924
 20
420.57692307692309
 42
0
  0
VERTEX
  8
0
 10
2487.3076923076924
 20
220.57692307692307
 42
0
  0
SEQEND
  0
POLYLINE
  8
0
 10
0
 20
0
 39
0
 70
1
 66
1
  0
VERTEX
  8
0
 10
2462.3076923076924
 20
257.25024766188403
 42
1
  0
VERTEX
  8
0
 10
2462.3076923076924
 20
287.25024766188403
 42
1
  0
SEQEND
  0
POLYLINE
  8
0
 10
0
 20
0
 39
0
 70
1
 66
1
  0
VERTEX
  8
0
 10
2437.3076923076924
 20
430.76923076923077
 42
-0
  0
VERTEX
  8
0
 10
2437.3076923076924
 20
630.76923076923072
 42
0
  0
VERTEX
  8
0
 10
2487.3076923076924
 20
630.76923076923072
 42
0
  0
VERTEX
  8
0
 10
2487.3076923076924
 20
430.76923076923077
 42
0
  0
SEQEND
  0
POLYLINE
  8
0
 10
0
 20
0
 39
0
 70
1
 66
1
  0
VERTEX
  8
0
 10
2462.3076923076924
 20
467.44255535419171
 42
1
  0
VERTEX
  8
0
 10
2462.3076923076924
 20
497.44255535419171
 42
1
  0
SEQEND
  0
ENDSEC
  0
EOF
