  0
SECTION
  2
ENTITIES
  0
POLYLINE
  8
0
 10
0
 20
0
 39
0
 70
1
 66
1
  0
VERTEX
  8
0
 10
0
 20
0
 42
-0
  0
VERTEX
  8
0
 10
1750
 20
0
 42
-0
  0
VERTEX
  8
0
 10
1750
 20
1100
 42
-0
  0
VERTEX
  8
0
 10
0
 20
1100
 42
-0
  0
SEQEND
  0
POLYLINE
  8
0
 10
0
 20
0
 39
0
 70
1
 66
1
  0
VERTEX
  8
0
 10
423.81759167248867
 20
10.249999886104092
 42
-0
  0
VERTEX
  8
0
 10
11.125674746048475
 20
83.01872166309397
 42
0
  0
VERTEX
  8
0
 10
10.249999886104064
 20
544.17679846818112
 42
0
  0
VERTEX
  8
0
 10
422.94191681254426
 20
471.40807669119124
 42
0
  0
SEQEND
  0
POLYLINE
  8
0
 10
0
 20
0
 39
0
 70
1
 66
1
  0
VERTEX
  8
0
 10
404.14726442629956
 20
244.22024524743222
 42
1
  0
VERTEX
  8
0
 10
29.920327132293181
 20
310.20655310685299
 42
1
  0
SEQEND
  0
POLYLINE
  8
0
 10
0
 20
0
 39
0
 70
1
 66
1
  0
VERTEX
  8
0
 10
423.81759167248867
 20
481.94230757841183
 42
-0
  0
VERTEX
  8
0
 10
11.125674746048475
 20
554.71102935540171
 42
0
  0
VERTEX
  8
0
 10
10.249999886104064
 20
1015.8691061604889
 42
0
  0
VERTEX
  8
0
 10
422.94191681254426
 20
943.10038438349898
 42
0
  0
SEQEND
  0
POLYLINE
  8
0
 10
0
 20
0
 39
0
 70
1
 66
1
  0
VERTEX
  8
0
 10
404.14726442629956
 20
715.91255293973995
 42
1
  0
VERTEX
  8
0
 10
29.920327132293181
 20
781.89886079916073
 42
1
  0
SEQEND
  0
POLYLINE
  8
0
 10
0
 20
0
 39
0
 70
1
 66
1
  0
VERTEX
  8
0
 10
846.64451474941166
 20
550.73076911687326
 42
-0
  0
VERTEX
  8
0
 10
433.95259782297148
 20
623.49949089386314
 42
0
  0
VERTEX
  8
0
 10
433.07692296302707
 20
1084.6575676989503
 42
0
  0
VERTEX
  8
0
 10
845.76883988946724
 20
1011.8888459219604
 42
0
  0
SEQEND
  0
POLYLINE
  8
0
 10
0
 20
0
 39
0
 70
1
 66
1
  0
VERTEX
  8
0
 10
826.97418750322254
 20
784.70101447820139
 42
1
  0
VERTEX
  8
0
 10
452.74725020921619
 20
850.68732233762216
 42
1
  0
SEQEND
  0
POLYLINE
  8
0
 10
0
 20
0
 39
0
 70
1
 66
1
  0
VERTEX
  8
0
 10
847.58682244171939
 20
10.249999886104092
 42
-0
  0
VERTEX
  8
0
 10
434.89490551527922
 20
83.01872166309397
 42
0
  0
VERTEX
  8
0
 10
434.01923065533481
 20
544.17679846818112
 42
0
  0
VERTEX
  8
0
 10
846.71114758177498
 20
471.40807669119124
 42
0
  0
SEQEND
  0
POLYLINE
  8
0
 10
0
 20
0
 39
0
 70
1
 66
1
  0
VERTEX
  8
0
 10
827.91649519553027
 20
244.22024524743222
 42
1
  0
VERTEX
  8
0
 10
453.68955790152393
 20
310.20655310685299
 42
1
  0
SEQEND
  0
POLYLINE
  8
0
 10
0
 20
0
 39
0
 70
1
 66
1
  0
VERTEX
  8
0
 10
1269.6060532109502
 20
548.71153834764254
 42
-0
  0
VERTEX
  8
0
 10
856.91413628451005
 20
621.48026012463242
 42
0
  0
VERTEX
  8
0
 10
856.03846142456564
 20
1082.6383369297196
 42
0
  0
VERTEX
  8
0
 10
1268.7303783510058
 20
1009.8696151527297
 42
0
  0
SEQEND
  0
POLYLINE
  8
0
 10
0
 20
0
 39
0
 70
1
 66
1
  0
VERTEX
  8
0
 10
1249.9357259647611
 20
782.68178370897067
 42
1
  0
VERTEX
  8
0
 10
875.70878867075476
 20
848.66809156839145
 42
1
  0
SEQEND
  0
POLYLINE
  8
0
 10
0
 20
0
 39
0
 70
1
 66
1
  0
VERTEX
  8
0
 10
1270.5483609032578
 20
10.249999886104092
 42
-0
  0
VERTEX
  8
0
 10
857.85644397681767
 20
83.01872166309397
 42
0
  0
VERTEX
  8
0
 10
856.98076911687326
 20
544.17679846818112
 42
0
  0
VERTEX
  8
0
 10
1269.6726860433134
 20
471.40807669119124
 42
0
  0
SEQEND
  0
POLYLINE
  8
0
 10
0
 20
0
 39
0
 70
1
 66
1
  0
VERTEX
  8
0
 10
1250.8780336570687
 20
244.22024524743222
 42
1
  0
VERTEX
  8
0
 10
876.65109636306238
 20
310.20655310685299
 42
1
  0
SEQEND
  0
POLYLINE
  8
0
 10
0
 20
0
 39
0
 70
1
 66
1
  0
VERTEX
  8
0
 10
1692.5675916724886
 20
546.69230757841171
 42
-0
  0
VERTEX
  8
0
 10
1279.8756747460484
 20
619.46102935540159
 42
0
  0
VERTEX
  8
0
 10
1278.999999886104
 20
1080.6191061604886
 42
0
  0
VERTEX
  8
0
 10
1691.6919168125442
 20
1007.8503843834989
 42
0
  0
SEQEND
  0
POLYLINE
  8
0
 10
0
 20
0
 39
0
 70
1
 66
1
  0
VERTEX
  8
0
 10
1672.8972644262994
 20
780.66255293973984
 42
1
  0
VERTEX
  8
0
 10
1298.6703271322931
 20
846.64886079916062
 42
1
  0
SEQEND
  0
POLYLINE
  8
0
 10
0
 20
0
 39
0
 70
1
 66
1
  0
VERTEX
  8
0
 10
1693.5098993647962
 20
10.249999886104092
 42
-0
  0
VERTEX
  8
0
 10
1280.817982438356
 20
83.01872166309397
 42
0
  0
VERTEX
  8
0
 10
1279.9423075784116
 20
544.17679846818112
 42
0
  0
VERTEX
  8
0
 10
1692.6342245048518
 20
471.40807669119124
 42
0
  0
SEQEND
  0
POLYLINE
  8
0
 10
0
 20
0
 39
0
 70
1
 66
1
  0
VERTEX
  8
0
 10
1673.8395721186071
 20
244.22024524743222
 42
1
  0
VERTEX
  8
0
 10
1299.6126348246007
 20
310.20655310685299
 42
1
  0
SEQEND
  0
POLYLINE
  8
0
 10
0
 20
0
 39
0
 70
1
 66
1
  0
VERTEX
  8
0
 10
215.71679187497705
 20
454.63291942544652
 42
-1
  0
VERTEX
  8
0
 10
214.16781713512376
 20
99.636304969269759
 42
-1
  0
SEQEND
  0
POLYLINE
  8
0
 10
0
 20
0
 39
0
 70
1
 66
1
  0
VERTEX
  8
0
 10
325.42121946720056
 20
386.65359915171189
 42
0
  0
VERTEX
  8
0
 10
105.42331755069665
 20
387.61352715950829
 42
0
  0
VERTEX
  8
0
 10
104.46338954290025
 20
167.61562524300439
 42
0
  0
VERTEX
  8
0
 10
324.46129145940415
 20
166.65569723520798
 42
0
  0
SEQEND
  0
POLYLINE
  8
0
 10
0
 20
0
 39
0
 70
1
 66
1
  0
VERTEX
  8
0
 10
215.71679187497705
 20
926.32522711775414
 42
-1
  0
VERTEX
  8
0
 10
214.16781713512376
 20
571.32861266157738
 42
-1
  0
SEQEND
  0
POLYLINE
  8
0
 10
0
 20
0
 39
0
 70
1
 66
1
  0
VERTEX
  8
0
 10
325.42121946720056
 20
858.34590684401951
 42
0
  0
VERTEX
  8
0
 10
105.42331755069665
 20
859.30583485181592
 42
0
  0
VERTEX
  8
0
 10
104.46338954290025
 20
639.30793293531201
 42
0
  0
VERTEX
  8
0
 10
324.46129145940415
 20
638.3480049275156
 42
0
  0
SEQEND
  0
POLYLINE
  8
0
 10
0
 20
0
 39
0
 70
1
 66
1
  0
VERTEX
  8
0
 10
638.54371495190014
 20
995.1136886562158
 42
-1
  0
VERTEX
  8
0
 10
636.99474021204685
 20
640.11707420003904
 42
-1
  0
SEQEND
  0
POLYLINE
  8
0
 10
0
 20
0
 39
0
 70
1
 66
1
  0
VERTEX
  8
0
 10
748.24814254412365
 20
927.13436838248117
 42
0
  0
VERTEX
  8
0
 10
528.25024062761975
 20
928.09429639027758
 42
0
  0
VERTEX
  8
0
 10
527.29031261982334
 20
708.09639447377367
 42
0
  0
VERTEX
  8
0
 10
747.28821453632725
 20
707.13646646597726
 42
0
  0
SEQEND
  0
POLYLINE
  8
0
 10
0
 20
0
 39
0
 70
1
 66
1
  0
VERTEX
  8
0
 10
639.48602264420788
 20
454.63291942544652
 42
-1
  0
VERTEX
  8
0
 10
637.93704790435459
 20
99.636304969269759
 42
-1
  0
SEQEND
  0
POLYLINE
  8
0
 10
0
 20
0
 39
0
 70
1
 66
1
  0
VERTEX
  8
0
 10
749.19045023643139
 20
386.65359915171189
 42
0
  0
VERTEX
  8
0
 10
529.19254831992748
 20
387.61352715950829
 42
0
  0
VERTEX
  8
0
 10
528.23262031213108
 20
167.61562524300439
 42
0
  0
VERTEX
  8
0
 10
748.23052222863498
 20
166.65569723520798
 42
0
  0
SEQEND
  0
POLYLINE
  8
0
 10
0
 20
0
 39
0
 70
1
 66
1
  0
VERTEX
  8
0
 10
1061.5052534134386
 20
993.09445788698486
 42
-1
  0
VERTEX
  8
0
 10
1059.9562786735853
 20
638.0978434308081
 42
-1
  0
SEQEND
  0
POLYLINE
  8
0
 10
0
 20
0
 39
0
 70
1
 66
1
  0
VERTEX
  8
0
 10
1171.2096810056621
 20
925.11513761325023
 42
0
  0
VERTEX
  8
0
 10
951.2117790891582
 20
926.07506562104663
 42
0
  0
VERTEX
  8
0
 10
950.25185108136179
 20
706.07716370454273
 42
0
  0
VERTEX
  8
0
 10
1170.2497529978657
 20
705.11723569674632
 42
0
  0
SEQEND
  0
POLYLINE
  8
0
 10
0
 20
0
 39
0
 70
1
 66
1
  0
VERTEX
  8
0
 10
1062.4475611057462
 20
454.63291942544652
 42
-1
  0
VERTEX
  8
0
 10
1060.8985863658929
 20
99.636304969269759
 42
-1
  0
SEQEND
  0
POLYLINE
  8
0
 10
0
 20
0
 39
0
 70
1
 66
1
  0
VERTEX
  8
0
 10
1172.1519886979697
 20
386.65359915171189
 42
0
  0
VERTEX
  8
0
 10
952.15408678146582
 20
387.61352715950829
 42
0
  0
VERTEX
  8
0
 10
951.19415877366941
 20
167.61562524300439
 42
0
  0
VERTEX
  8
0
 10
1171.1920606901733
 20
166.65569723520798
 42
0
  0
SEQEND
  0
POLYLINE
  8
0
 10
0
 20
0
 39
0
 70
1
 66
1
  0
VERTEX
  8
0
 10
1484.4667918749769
 20
991.07522711775414
 42
-1
  0
VERTEX
  8
0
 10
1482.9178171351236
 20
636.07861266157738
 42
-1
  0
SEQEND
  0
POLYLINE
  8
0
 10
0
 20
0
 39
0
 70
1
 66
1
  0
VERTEX
  8
0
 10
1594.1712194672004
 20
923.09590684401951
 42
0
  0
VERTEX
  8
0
 10
1374.1733175506965
 20
924.05583485181592
 42
0
  0
VERTEX
  8
0
 10
1373.2133895429001
 20
704.05793293531201
 42
0
  0
VERTEX
  8
0
 10
1593.211291459404
 20
703.0980049275156
 42
0
  0
SEQEND
  0
POLYLINE
  8
0
 10
0
 20
0
 39
0
 70
1
 66
1
  0
VERTEX
  8
0
 10
1485.4090995672846
 20
454.63291942544652
 42
-1
  0
VERTEX
  8
0
 10
1483.8601248274313
 20
99.636304969269759
 42
-1
  0
SEQEND
  0
POLYLINE
  8
0
 10
0
 20
0
 39
0
 70
1
 66
1
  0
VERTEX
  8
0
 10
1595.1135271595081
 20
386.65359915171189
 42
0
  0
VERTEX
  8
0
 10
1375.1156252430042
 20
387.61352715950829
 42
0
  0
VERTEX
  8
0
 10
1374.1556972352078
 20
167.61562524300439
 42
0
  0
VERTEX
  8
0
 10
1594.1535991517117
 20
166.65569723520798
 42
0
  0
SEQEND
  0
POLYLINE
  8
0
 10
0
 20
0
 39
0
 70
1
 66
1
  0
VERTEX
  8
0
 10
295.51923076923077
 20
177.71153846153845
 42
-0
  0
VERTEX
  8
0
 10
115.51923076923077
 20
177.71153846153845
 42
-0
  0
VERTEX
  8
0
 10
115.51923076923077
 20
372.71153846153845
 42
-0
  0
VERTEX
  8
0
 10
295.51923076923077
 20
372.71153846153845
 42
-0
  0
SEQEND
  0
POLYLINE
  8
0
 10
0
 20
0
 39
0
 70
1
 66
1
  0
VERTEX
  8
0
 10
270.51923076923077
 20
236.98221793541541
 42
0
  0
VERTEX
  8
0
 10
270.51923076923077
 20
356.98222175011267
 42
0
  0
VERTEX
  8
0
 10
140.51923076923077
 20
356.98222175011267
 42
0
  0
VERTEX
  8
0
 10
140.51923076923077
 20
236.98221793541541
 42
0
  0
SEQEND
  0
POLYLINE
  8
0
 10
0
 20
0
 39
0
 70
1
 66
1
  0
VERTEX
  8
0
 10
295.51923076923077
 20
649.40384615384608
 42
-0
  0
VERTEX
  8
0
 10
115.51923076923077
 20
649.40384615384608
 42
-0
  0
VERTEX
  8
0
 10
115.51923076923077
 20
844.40384615384608
 42
-0
  0
VERTEX
  8
0
 10
295.51923076923077
 20
844.40384615384608
 42
-0
  0
SEQEND
  0
POLYLINE
  8
0
 10
0
 20
0
 39
0
 70
1
 66
1
  0
VERTEX
  8
0
 10
270.51923076923077
 20
708.67452562772303
 42
0
  0
VERTEX
  8
0
 10
270.51923076923077
 20
828.67452944242029
 42
0
  0
VERTEX
  8
0
 10
140.51923076923077
 20
828.67452944242029
 42
0
  0
VERTEX
  8
0
 10
140.51923076923077
 20
708.67452562772303
 42
0
  0
SEQEND
  0
POLYLINE
  8
0
 10
0
 20
0
 39
0
 70
1
 66
1
  0
VERTEX
  8
0
 10
718.34615384615381
 20
718.19230769230762
 42
-0
  0
VERTEX
  8
0
 10
538.34615384615381
 20
718.19230769230762
 42
-0
  0
VERTEX
  8
0
 10
538.34615384615381
 20
913.19230769230762
 42
-0
  0
VERTEX
  8
0
 10
718.34615384615381
 20
913.19230769230762
 42
-0
  0
SEQEND
  0
POLYLINE
  8
0
 10
0
 20
0
 39
0
 70
1
 66
1
  0
VERTEX
  8
0
 10
693.34615384615381
 20
777.46298716618458
 42
0
  0
VERTEX
  8
0
 10
693.34615384615381
 20
897.46299098088184
 42
0
  0
VERTEX
  8
0
 10
563.34615384615381
 20
897.46299098088184
 42
0
  0
VERTEX
  8
0
 10
563.34615384615381
 20
777.46298716618458
 42
0
  0
SEQEND
  0
POLYLINE
  8
0
 10
0
 20
0
 39
0
 70
1
 66
1
  0
VERTEX
  8
0
 10
719.28846153846155
 20
177.71153846153845
 42
-0
  0
VERTEX
  8
0
 10
539.28846153846155
 20
177.71153846153845
 42
-0
  0
VERTEX
  8
0
 10
539.28846153846155
 20
372.71153846153845
 42
-0
  0
VERTEX
  8
0
 10
719.28846153846155
 20
372.71153846153845
 42
-0
  0
SEQEND
  0
POLYLINE
  8
0
 10
0
 20
0
 39
0
 70
1
 66
1
  0
VERTEX
  8
0
 10
694.28846153846155
 20
236.98221793541541
 42
0
  0
VERTEX
  8
0
 10
694.28846153846155
 20
356.98222175011267
 42
0
  0
VERTEX
  8
0
 10
564.28846153846155
 20
356.98222175011267
 42
0
  0
VERTEX
  8
0
 10
564.28846153846155
 20
236.98221793541541
 42
0
  0
SEQEND
  0
POLYLINE
  8
0
 10
0
 20
0
 39
0
 70
1
 66
1
  0
VERTEX
  8
0
 10
1141.3076923076924
 20
716.17307692307691
 42
-0
  0
VERTEX
  8
0
 10
961.30769230769238
 20
716.17307692307691
 42
-0
  0
VERTEX
  8
0
 10
961.30769230769238
 20
911.17307692307691
 42
-0
  0
VERTEX
  8
0
 10
1141.3076923076924
 20
911.17307692307691
 42
-0
  0
SEQEND
  0
POLYLINE
  8
0
 10
0
 20
0
 39
0
 70
1
 66
1
  0
VERTEX
  8
0
 10
1116.3076923076924
 20
775.44375639695386
 42
0
  0
VERTEX
  8
0
 10
1116.3076923076924
 20
895.44376021165112
 42
0
  0
VERTEX
  8
0
 10
986.30769230769238
 20
895.44376021165112
 42
0
  0
VERTEX
  8
0
 10
986.30769230769238
 20
775.44375639695386
 42
0
  0
SEQEND
  0
POLYLINE
  8
0
 10
0
 20
0
 39
0
 70
1
 66
1
  0
VERTEX
  8
0
 10
1142.25
 20
177.71153846153845
 42
-0
  0
VERTEX
  8
0
 10
962.25
 20
177.71153846153845
 42
-0
  0
VERTEX
  8
0
 10
962.25
 20
372.71153846153845
 42
-0
  0
VERTEX
  8
0
 10
1142.25
 20
372.71153846153845
 42
-0
  0
SEQEND
  0
POLYLINE
  8
0
 10
0
 20
0
 39
0
 70
1
 66
1
  0
VERTEX
  8
0
 10
1117.25
 20
236.98221793541541
 42
0
  0
VERTEX
  8
0
 10
1117.25
 20
356.98222175011267
 42
0
  0
VERTEX
  8
0
 10
987.25
 20
356.98222175011267
 42
0
  0
VERTEX
  8
0
 10
987.25
 20
236.98221793541541
 42
0
  0
SEQEND
  0
POLYLINE
  8
0
 10
0
 20
0
 39
0
 70
1
 66
1
  0
VERTEX
  8
0
 10
1564.2692307692307
 20
714.15384615384608
 42
-0
  0
VERTEX
  8
0
 10
1384.2692307692307
 20
714.15384615384608
 42
-0
  0
VERTEX
  8
0
 10
1384.2692307692307
 20
909.15384615384608
 42
-0
  0
VERTEX
  8
0
 10
1564.2692307692307
 20
909.15384615384608
 42
-0
  0
SEQEND
  0
POLYLINE
  8
0
 10
0
 20
0
 39
0
 70
1
 66
1
  0
VERTEX
  8
0
 10
1539.2692307692307
 20
773.42452562772303
 42
0
  0
VERTEX
  8
0
 10
1539.2692307692307
 20
893.42452944242029
 42
0
  0
VERTEX
  8
0
 10
1409.2692307692307
 20
893.42452944242029
 42
0
  0
VERTEX
  8
0
 10
1409.2692307692307
 20
773.42452562772303
 42
0
  0
SEQEND
  0
POLYLINE
  8
0
 10
0
 20
0
 39
0
 70
1
 66
1
  0
VERTEX
  8
0
 10
1565.2115384615383
 20
177.71153846153845
 42
-0
  0
VERTEX
  8
0
 10
1385.2115384615383
 20
177.71153846153845
 42
-0
  0
VERTEX
  8
0
 10
1385.2115384615383
 20
372.71153846153845
 42
-0
  0
VERTEX
  8
0
 10
1565.2115384615383
 20
372.71153846153845
 42
-0
  0
SEQEND
  0
POLYLINE
  8
0
 10
0
 20
0
 39
0
 70
1
 66
1
  0
VERTEX
  8
0
 10
1540.2115384615383
 20
236.98221793541541
 42
0
  0
VERTEX
  8
0
 10
1540.2115384615383
 20
356.98222175011267
 42
0
  0
VERTEX
  8
0
 10
1410.2115384615383
 20
356.98222175011267
 42
0
  0
VERTEX
  8
0
 10
1410.2115384615383
 20
236.98221793541541
 42
0
  0
SEQEND
  0
POLYLINE
  8
0
 10
0
 20
0
 39
0
 70
1
 66
1
  0
VERTEX
  8
0
 10
170.86705564152419
 20
1089.7305935764361
 42
0
  0
VERTEX
  8
0
 10
171.62901317941305
 20
1089.2858549249759
 42
-0.02266138419508934
  0
VERTEX
  8
0
 10
174.6934570088921
 20
1066.6826172264273
 42
-0.022449150681495667
  0
VERTEX
  8
0
 10
175.71093426969583
 20
1043.8930780453916
 42
-0.02241675928235054
  0
VERTEX
  8
0
 10
174.68194334575173
 20
1021.103764766321
 42
-0.022583933547139168
  0
VERTEX
  8
0
 10
171.60752833689912
 20
998.50203113725559
 42
0
  0
VERTEX
  8
0
 10
170.84545231555364
 20
998.0576922203702
 42
0
  0
VERTEX
  8
0
 10
164.56969747405901
 20
999.75713194942546
 42
-0.019247783347964287
  0
VERTEX
  8
0
 10
133.62632570835802
 20
1009.6942018352772
 42
-0.019087811931967735
  0
VERTEX
  8
0
 10
103.53308262127871
 20
1021.9690487187607
 42
-0.01902422308921814
  0
VERTEX
  8
0
 10
74.461538374216332
 20
1036.4980393153692
 42
0
  0
VERTEX
  8
0
 10
74.465095090712794
 20
1051.3357812691161
 42
-0.007651415653526783
  0
VERTEX
  8
0
 10
85.961281563435534
 20
1057.4104755044978
 42
-0.019108468666672707
  0
VERTEX
  8
0
 10
115.46781631958044
 20
1071.0354448533162
 42
-0.0191365797072649
  0
VERTEX
  8
0
 10
145.92876234913604
 20
1082.3673766299007
 42
-0.015384012833237648
  0
SEQEND
  0
POLYLINE
  8
0
 10
0
 20
0
 39
0
 70
1
 66
1
  0
VERTEX
  8
0
 10
118.63873650805294
 20
1045.9913643719296
 42
0
  0
VERTEX
  8
0
 10
118.63770474273122
 20
1041.821520444247
 42
0
  0
VERTEX
  8
0
 10
145.3040364431132
 20
1026.4270464690035
 42
0
  0
VERTEX
  8
0
 10
148.90284155467566
 20
1028.5006301996723
 42
0
  0
VERTEX
  8
0
 10
148.91015596760769
 20
1059.2980738869448
 42
0
  0
VERTEX
  8
0
 10
145.31235243098138
 20
1061.3732766232383
 42
0
  0
SEQEND
  0
POLYLINE
  8
0
 10
0
 20
0
 39
0
 70
1
 66
1
  0
VERTEX
  8
0
 10
247.19397871844728
 20
338.84597819182079
 42
0
  0
VERTEX
  8
0
 10
247.95593625633614
 20
338.40123954036039
 42
-0.02266138419508934
  0
VERTEX
  8
0
 10
251.02038008581519
 20
315.79800184181192
 42
-0.022449150681495667
  0
VERTEX
  8
0
 10
252.03785734661892
 20
293.00846266077633
 42
-0.02241675928235054
  0
VERTEX
  8
0
 10
251.00886642267483
 20
270.21914938170562
 42
-0.022583933547139168
  0
VERTEX
  8
0
 10
247.93445141382222
 20
247.61741575264023
 42
0
  0
VERTEX
  8
0
 10
247.17237539247674
 20
247.17307683575478
 42
0
  0
VERTEX
  8
0
 10
240.89662055098211
 20
248.87251656481004
 42
-0.019247783347964287
  0
VERTEX
  8
0
 10
209.95324878528112
 20
258.80958645066193
 42
-0.019087811931967735
  0
VERTEX
  8
0
 10
179.8600056982018
 20
271.08443333414539
 42
-0.01902422308921814
  0
VERTEX
  8
0
 10
150.78846145113943
 20
285.61342393075392
 42
0
  0
VERTEX
  8
0
 10
150.79201816763589
 20
300.4511658845006
 42
-0.007651415653526783
  0
VERTEX
  8
0
 10
162.28820464035863
 20
306.52586011988228
 42
-0.019108468666672707
  0
VERTEX
  8
0
 10
191.79473939650353
 20
320.15082946870098
 42
-0.0191365797072649
  0
VERTEX
  8
0
 10
222.25568542605913
 20
331.48276124528547
 42
-0.015384012833237648
  0
SEQEND
  0
POLYLINE
  8
0
 10
0
 20
0
 39
0
 70
1
 66
1
  0
VERTEX
  8
0
 10
194.96565958497604
 20
295.1067489873144
 42
0
  0
VERTEX
  8
0
 10
194.96462781965431
 20
290.93690505963161
 42
0
  0
VERTEX
  8
0
 10
221.6309595200363
 20
275.54243108438811
 42
0
  0
VERTEX
  8
0
 10
225.22976463159875
 20
277.61601481505704
 42
0
  0
VERTEX
  8
0
 10
225.23707904453079
 20
308.41345850232949
 42
0
  0
VERTEX
  8
0
 10
221.63927550790447
 20
310.48866123862308
 42
0
  0
SEQEND
  0
POLYLINE
  8
0
 10
0
 20
0
 39
0
 70
1
 66
1
  0
VERTEX
  8
0
 10
247.19397871844728
 20
810.53828588412853
 42
0
  0
VERTEX
  8
0
 10
247.95593625633614
 20
810.09354723266813
 42
-0.02266138419508934
  0
VERTEX
  8
0
 10
251.02038008581519
 20
787.49030953411966
 42
-0.022449150681495667
  0
VERTEX
  8
0
 10
252.03785734661892
 20
764.70077035308407
 42
-0.02241675928235054
  0
VERTEX
  8
0
 10
251.00886642267483
 20
741.91145707401336
 42
-0.022583933547139168
  0
VERTEX
  8
0
 10
247.93445141382222
 20
719.30972344494796
 42
0
  0
VERTEX
  8
0
 10
247.17237539247674
 20
718.86538452806258
 42
0
  0
VERTEX
  8
0
 10
240.89662055098211
 20
720.56482425711783
 42
-0.019247783347964287
  0
VERTEX
  8
0
 10
209.95324878528112
 20
730.5018941429696
 42
-0.019087811931967735
  0
VERTEX
  8
0
 10
179.8600056982018
 20
742.77674102645312
 42
-0.01902422308921814
  0
VERTEX
  8
0
 10
150.78846145113943
 20
757.30573162306166
 42
0
  0
VERTEX
  8
0
 10
150.79201816763589
 20
772.14347357680833
 42
-0.007651415653526783
  0
VERTEX
  8
0
 10
162.28820464035863
 20
778.21816781219002
 42
-0.019108468666672707
  0
VERTEX
  8
0
 10
191.79473939650353
 20
791.84313716100871
 42
-0.0191365797072649
  0
VERTEX
  8
0
 10
222.25568542605913
 20
803.17506893759321
 42
-0.015384012833237648
  0
SEQEND
  0
POLYLINE
  8
0
 10
0
 20
0
 39
0
 70
1
 66
1
  0
VERTEX
  8
0
 10
194.96565958497604
 20
766.79905667962214
 42
0
  0
VERTEX
  8
0
 10
194.96462781965431
 20
762.62921275193935
 42
0
  0
VERTEX
  8
0
 10
221.6309595200363
 20
747.23473877669585
 42
0
  0
VERTEX
  8
0
 10
225.22976463159875
 20
749.30832250736478
 42
0
  0
VERTEX
  8
0
 10
225.23707904453079
 20
780.10576619463723
 42
0
  0
VERTEX
  8
0
 10
221.63927550790447
 20
782.18096893093082
 42
0
  0
SEQEND
  0
POLYLINE
  8
0
 10
0
 20
0
 39
0
 70
1
 66
1
  0
VERTEX
  8
0
 10
186.59615375883163
 20
1084.9055171799857
 42
0
  0
VERTEX
  8
0
 10
187.04089241029203
 20
1085.6674747178745
 42
-0.02266138419508934
  0
VERTEX
  8
0
 10
209.6441301088405
 20
1088.7319185473536
 42
-0.022449150681495667
  0
VERTEX
  8
0
 10
232.43366928987598
 20
1089.7493958081573
 42
-0.02241675928235054
  0
VERTEX
  8
0
 10
255.22298256894669
 20
1088.7204048842132
 42
-0.022583933547139168
  0
VERTEX
  8
0
 10
277.82471619801214
 20
1085.6459898753608
 42
0
  0
VERTEX
  8
0
 10
278.26905511489758
 20
1084.8839138540152
 42
0
  0
VERTEX
  8
0
 10
276.56961538584233
 20
1078.6081590125204
 42
-0.019247783347964287
  0
VERTEX
  8
0
 10
266.63254549999044
 20
1047.6647872468197
 42
-0.019087811931967735
  0
VERTEX
  8
0
 10
254.35769861650692
 20
1017.5715441597403
 42
-0.01902422308921814
  0
VERTEX
  8
0
 10
239.82870801989839
 20
988.49999991267782
 42
0
  0
VERTEX
  8
0
 10
224.99096606615171
 20
988.50355662917445
 42
-0.007651415653526783
  0
VERTEX
  8
0
 10
218.91627183077014
 20
999.99974310189714
 42
-0.019108468666672707
  0
VERTEX
  8
0
 10
205.29130248195145
 20
1029.506277858042
 42
-0.0191365797072649
  0
VERTEX
  8
0
 10
193.95937070536695
 20
1059.9672238875976
 42
-0.015384012833237648
  0
SEQEND
  0
POLYLINE
  8
0
 10
0
 20
0
 39
0
 70
1
 66
1
  0
VERTEX
  8
0
 10
230.33538296333791
 20
1032.6771980465146
 42
0
  0
VERTEX
  8
0
 10
234.5052268910207
 20
1032.6761662811928
 42
0
  0
VERTEX
  8
0
 10
249.8997008662642
 20
1059.3424979815748
 42
0
  0
VERTEX
  8
0
 10
247.82611713559527
 20
1062.9413030931373
 42
0
  0
VERTEX
  8
0
 10
217.02867344832282
 20
1062.9486175060692
 42
0
  0
VERTEX
  8
0
 10
214.95347071202934
 20
1059.3508139694429
 42
0
  0
SEQEND
  0
POLYLINE
  8
0
 10
0
 20
0
 39
0
 70
1
 66
1
  0
VERTEX
  8
0
 10
347.73059357643615
 20
983.78619575413563
 42
0
  0
VERTEX
  8
0
 10
347.28585492497575
 20
983.02423821624666
 42
-0.02266138419508934
  0
VERTEX
  8
0
 10
324.68261722642728
 20
979.95979438676773
 42
-0.022449150681495667
  0
VERTEX
  8
0
 10
301.8930780453918
 20
978.94231712596388
 42
-0.02241675928235054
  0
VERTEX
  8
0
 10
279.10376476632109
 20
979.97130804990798
 42
-0.022583933547139168
  0
VERTEX
  8
0
 10
256.50203113725559
 20
983.04572305876059
 42
0
  0
VERTEX
  8
0
 10
256.05769222037009
 20
983.80779908010618
 42
0
  0
VERTEX
  8
0
 10
257.75713194942534
 20
990.0835539216007
 42
-0.019247783347964287
  0
VERTEX
  8
0
 10
267.69420183527734
 20
1021.0269256873016
 42
-0.019087811931967735
  0
VERTEX
  8
0
 10
279.96904871876075
 20
1051.120168774381
 42
-0.01902422308921814
  0
VERTEX
  8
0
 10
294.49803931536928
 20
1080.1917130214433
 42
0
  0
VERTEX
  8
0
 10
309.33578126911607
 20
1080.1881563049469
 42
-0.007651415653526783
  0
VERTEX
  8
0
 10
315.41047550449764
 20
1068.6919698322242
 42
-0.019108468666672707
  0
VERTEX
  8
0
 10
329.03544485331633
 20
1039.1854350760793
 42
-0.0191365797072649
  0
VERTEX
  8
0
 10
340.36737662990083
 20
1008.7244890465237
 42
-0.015384012833237648
  0
SEQEND
  0
POLYLINE
  8
0
 10
0
 20
0
 39
0
 70
1
 66
1
  0
VERTEX
  8
0
 10
303.99136437192988
 20
1036.0145148876068
 42
0
  0
VERTEX
  8
0
 10
299.82152044424697
 20
1036.0155466529286
 42
0
  0
VERTEX
  8
0
 10
284.42704646900347
 20
1009.3492149525466
 42
0
  0
VERTEX
  8
0
 10
286.50063019967251
 20
1005.750409840984
 42
0
  0
VERTEX
  8
0
 10
317.29807388694485
 20
1005.7430954280521
 42
0
  0
VERTEX
  8
0
 10
319.37327662323844
 20
1009.3408989646783
 42
0
  0
SEQEND
  0
POLYLINE
  8
0
 10
0
 20
0
 39
0
 70
1
 66
1
  0
VERTEX
  8
0
 10
325.51923068190865
 20
1084.9055171799857
 42
0
  0
VERTEX
  8
0
 10
325.96396933336905
 20
1085.6674747178745
 42
-0.02266138419508934
  0
VERTEX
  8
0
 10
348.56720703191752
 20
1088.7319185473536
 42
-0.022449150681495667
  0
VERTEX
  8
0
 10
371.356746212953
 20
1089.7493958081573
 42
-0.02241675928235054
  0
VERTEX
  8
0
 10
394.14605949202371
 20
1088.7204048842132
 42
-0.022583933547139168
  0
VERTEX
  8
0
 10
416.74779312108916
 20
1085.6459898753608
 42
0
  0
VERTEX
  8
0
 10
417.1921320379746
 20
1084.8839138540152
 42
0
  0
VERTEX
  8
0
 10
415.49269230891935
 20
1078.6081590125204
 42
-0.019247783347964287
  0
VERTEX
  8
0
 10
405.55562242306746
 20
1047.6647872468197
 42
-0.019087811931967735
  0
VERTEX
  8
0
 10
393.28077553958394
 20
1017.5715441597403
 42
-0.01902422308921814
  0
VERTEX
  8
0
 10
378.75178494297541
 20
988.49999991267782
 42
0
  0
VERTEX
  8
0
 10
363.91404298922873
 20
988.50355662917445
 42
-0.007651415653526783
  0
VERTEX
  8
0
 10
357.83934875384716
 20
999.99974310189714
 42
-0.019108468666672707
  0
VERTEX
  8
0
 10
344.21437940502847
 20
1029.506277858042
 42
-0.0191365797072649
  0
VERTEX
  8
0
 10
332.88244762844397
 20
1059.9672238875976
 42
-0.015384012833237648
  0
SEQEND
  0
POLYLINE
  8
0
 10
0
 20
0
 39
0
 70
1
 66
1
  0
VERTEX
  8
0
 10
369.25845988641493
 20
1032.6771980465146
 42
0
  0
VERTEX
  8
0
 10
373.42830381409772
 20
1032.6761662811928
 42
0
  0
VERTEX
  8
0
 10
388.82277778934122
 20
1059.3424979815748
 42
0
  0
VERTEX
  8
0
 10
386.74919405867229
 20
1062.9413030931373
 42
0
  0
VERTEX
  8
0
 10
355.95175037139984
 20
1062.9486175060692
 42
0
  0
VERTEX
  8
0
 10
353.87654763510636
 20
1059.3508139694429
 42
0
  0
SEQEND
  0
POLYLINE
  8
0
 10
0
 20
0
 39
0
 70
1
 66
1
  0
VERTEX
  8
0
 10
670.02090179537038
 20
879.32674742258996
 42
0
  0
VERTEX
  8
0
 10
670.78285933325924
 20
878.88200877112956
 42
-0.02266138419508934
  0
VERTEX
  8
0
 10
673.84730316273829
 20
856.27877107258109
 42
-0.022449150681495667
  0
VERTEX
  8
0
 10
674.86478042354202
 20
833.4892318915455
 42
-0.02241675928235054
  0
VERTEX
  8
0
 10
673.83578949959792
 20
810.69991861247479
 42
-0.022583933547139168
  0
VERTEX
  8
0
 10
670.76137449074531
 20
788.0981849834094
 42
0
  0
VERTEX
  8
0
 10
669.99929846939983
 20
787.65384606652401
 42
0
  0
VERTEX
  8
0
 10
663.7235436279052
 20
789.35328579557927
 42
-0.019247783347964287
  0
VERTEX
  8
0
 10
632.78017186220427
 20
799.29035568143104
 42
-0.019087811931967735
  0
VERTEX
  8
0
 10
602.6869287751249
 20
811.56520256491456
 42
-0.01902422308921814
  0
VERTEX
  8
0
 10
573.61538452806258
 20
826.09419316152309
 42
0
  0
VERTEX
  8
0
 10
573.61894124455898
 20
840.93193511526977
 42
-0.007651415653526783
  0
VERTEX
  8
0
 10
585.11512771728167
 20
847.00662935065145
 42
-0.019108468666672707
  0
VERTEX
  8
0
 10
614.62166247342657
 20
860.63159869947015
 42
-0.0191365797072649
  0
VERTEX
  8
0
 10
645.08260850298223
 20
871.96353047605464
 42
-0.015384012833237648
  0
SEQEND
  0
POLYLINE
  8
0
 10
0
 20
0
 39
0
 70
1
 66
1
  0
VERTEX
  8
0
 10
617.79258266189913
 20
835.58751821808357
 42
0
  0
VERTEX
  8
0
 10
617.79155089657741
 20
831.41767429040078
 42
0
  0
VERTEX
  8
0
 10
644.45788259695939
 20
816.02320031515728
 42
0
  0
VERTEX
  8
0
 10
648.05668770852185
 20
818.09678404582621
 42
0
  0
VERTEX
  8
0
 10
648.06400212145388
 20
848.89422773309866
 42
0
  0
VERTEX
  8
0
 10
644.46619858482757
 20
850.96943046939225
 42
0
  0
SEQEND
  0
POLYLINE
  8
0
 10
0
 20
0
 39
0
 70
1
 66
1
  0
VERTEX
  8
0
 10
670.963209487678
 20
338.84597819182079
 42
0
  0
VERTEX
  8
0
 10
671.72516702556686
 20
338.40123954036039
 42
-0.02266138419508934
  0
VERTEX
  8
0
 10
674.78961085504591
 20
315.79800184181192
 42
-0.022449150681495667
  0
VERTEX
  8
0
 10
675.80708811584964
 20
293.00846266077633
 42
-0.02241675928235054
  0
VERTEX
  8
0
 10
674.77809719190554
 20
270.21914938170562
 42
-0.022583933547139168
  0
VERTEX
  8
0
 10
671.70368218305293
 20
247.61741575264023
 42
0
  0
VERTEX
  8
0
 10
670.94160616170745
 20
247.17307683575478
 42
0
  0
VERTEX
  8
0
 10
664.66585132021282
 20
248.87251656481004
 42
-0.019247783347964287
  0
VERTEX
  8
0
 10
633.72247955451189
 20
258.80958645066193
 42
-0.019087811931967735
  0
VERTEX
  8
0
 10
603.62923646743252
 20
271.08443333414539
 42
-0.01902422308921814
  0
VERTEX
  8
0
 10
574.5576922203702
 20
285.61342393075392
 42
0
  0
VERTEX
  8
0
 10
574.5612489368666
 20
300.4511658845006
 42
-0.007651415653526783
  0
VERTEX
  8
0
 10
586.05743540958929
 20
306.52586011988228
 42
-0.019108468666672707
  0
VERTEX
  8
0
 10
615.56397016573419
 20
320.15082946870098
 42
-0.0191365797072649
  0
VERTEX
  8
0
 10
646.02491619528985
 20
331.48276124528547
 42
-0.015384012833237648
  0
SEQEND
  0
POLYLINE
  8
0
 10
0
 20
0
 39
0
 70
1
 66
1
  0
VERTEX
  8
0
 10
618.73489035420675
 20
295.1067489873144
 42
0
  0
VERTEX
  8
0
 10
618.73385858888503
 20
290.93690505963161
 42
0
  0
VERTEX
  8
0
 10
645.40019028926702
 20
275.54243108438811
 42
0
  0
VERTEX
  8
0
 10
648.99899540082947
 20
277.61601481505704
 42
0
  0
VERTEX
  8
0
 10
649.0063098137615
 20
308.41345850232949
 42
0
  0
VERTEX
  8
0
 10
645.40850627713519
 20
310.48866123862308
 42
0
  0
SEQEND
  0
POLYLINE
  8
0
 10
0
 20
0
 39
0
 70
1
 66
1
  0
VERTEX
  8
0
 10
1092.9824402569088
 20
877.30751665335924
 42
0
  0
VERTEX
  8
0
 10
1093.7443977947978
 20
876.86277800189885
 42
-0.02266138419508934
  0
VERTEX
  8
0
 10
1096.8088416242767
 20
854.25954030335038
 42
-0.022449150681495667
  0
VERTEX
  8
0
 10
1097.8263188850806
 20
831.47000112231478
 42
-0.02241675928235054
  0
VERTEX
  8
0
 10
1096.7973279611365
 20
808.68068784324407
 42
-0.022583933547139168
  0
VERTEX
  8
0
 10
1093.7229129522839
 20
786.07895421417868
 42
0
  0
VERTEX
  8
0
 10
1092.9608369309383
 20
785.63461529729329
 42
0
  0
VERTEX
  8
0
 10
1086.6850820894438
 20
787.33405502634855
 42
-0.019247783347964287
  0
VERTEX
  8
0
 10
1055.7417103237426
 20
797.27112491220032
 42
-0.019087811931967735
  0
VERTEX
  8
0
 10
1025.6484672366632
 20
809.54597179568384
 42
-0.01902422308921814
  0
VERTEX
  8
0
 10
996.57692298960092
 20
824.07496239229238
 42
0
  0
VERTEX
  8
0
 10
996.58047970609744
 20
838.91270434603905
 42
-0.007651415653526783
  0
VERTEX
  8
0
 10
1008.0766661788202
 20
844.98739858142073
 42
-0.019108468666672707
  0
VERTEX
  8
0
 10
1037.5832009349651
 20
858.61236793023943
 42
-0.0191365797072649
  0
VERTEX
  8
0
 10
1068.0441469645207
 20
869.94429970682393
 42
-0.015384012833237648
  0
SEQEND
  0
POLYLINE
  8
0
 10
0
 20
0
 39
0
 70
1
 66
1
  0
VERTEX
  8
0
 10
1040.7541211234375
 20
833.56828744885286
 42
0
  0
VERTEX
  8
0
 10
1040.7530893581159
 20
829.39844352117007
 42
0
  0
VERTEX
  8
0
 10
1067.4194210584978
 20
814.00396954592657
 42
0
  0
VERTEX
  8
0
 10
1071.0182261700602
 20
816.07755327659549
 42
0
  0
VERTEX
  8
0
 10
1071.0255405829923
 20
846.87499696386794
 42
0
  0
VERTEX
  8
0
 10
1067.427737046366
 20
848.95019970016153
 42
0
  0
SEQEND
  0
POLYLINE
  8
0
 10
0
 20
0
 39
0
 70
1
 66
1
  0
VERTEX
  8
0
 10
1093.9247479492165
 20
338.84597819182079
 42
0
  0
VERTEX
  8
0
 10
1094.6867054871054
 20
338.40123954036039
 42
-0.02266138419508934
  0
VERTEX
  8
0
 10
1097.7511493165844
 20
315.79800184181192
 42
-0.022449150681495667
  0
VERTEX
  8
0
 10
1098.7686265773882
 20
293.00846266077633
 42
-0.02241675928235054
  0
VERTEX
  8
0
 10
1097.7396356534441
 20
270.21914938170562
 42
-0.022583933547139168
  0
VERTEX
  8
0
 10
1094.6652206445915
 20
247.61741575264023
 42
0
  0
VERTEX
  8
0
 10
1093.9031446232459
 20
247.17307683575478
 42
0
  0
VERTEX
  8
0
 10
1087.6273897817514
 20
248.87251656481004
 42
-0.019247783347964287
  0
VERTEX
  8
0
 10
1056.6840180160502
 20
258.80958645066193
 42
-0.019087811931967735
  0
VERTEX
  8
0
 10
1026.5907749289709
 20
271.08443333414539
 42
-0.01902422308921814
  0
VERTEX
  8
0
 10
997.51923068190854
 20
285.61342393075392
 42
0
  0
VERTEX
  8
0
 10
997.52278739840506
 20
300.4511658845006
 42
-0.007651415653526783
  0
VERTEX
  8
0
 10
1009.0189738711279
 20
306.52586011988228
 42
-0.019108468666672707
  0
VERTEX
  8
0
 10
1038.5255086272728
 20
320.15082946870098
 42
-0.0191365797072649
  0
VERTEX
  8
0
 10
1068.9864546568283
 20
331.48276124528547
 42
-0.015384012833237648
  0
SEQEND
  0
POLYLINE
  8
0
 10
0
 20
0
 39
0
 70
1
 66
1
  0
VERTEX
  8
0
 10
1041.6964288157451
 20
295.1067489873144
 42
0
  0
VERTEX
  8
0
 10
1041.6953970504235
 20
290.93690505963161
 42
0
  0
VERTEX
  8
0
 10
1068.3617287508055
 20
275.54243108438811
 42
0
  0
VERTEX
  8
0
 10
1071.9605338623678
 20
277.61601481505704
 42
0
  0
VERTEX
  8
0
 10
1071.9678482753
 20
308.41345850232949
 42
0
  0
VERTEX
  8
0
 10
1068.3700447386736
 20
310.48866123862308
 42
0
  0
SEQEND
  0
POLYLINE
  8
0
 10
0
 20
0
 39
0
 70
1
 66
1
  0
VERTEX
  8
0
 10
1515.9439787184474
 20
875.28828588412853
 42
0
  0
VERTEX
  8
0
 10
1516.7059362563361
 20
874.84354723266813
 42
-0.02266138419508934
  0
VERTEX
  8
0
 10
1519.7703800858153
 20
852.24030953411966
 42
-0.022449150681495667
  0
VERTEX
  8
0
 10
1520.7878573466189
 20
829.45077035308407
 42
-0.02241675928235054
  0
VERTEX
  8
0
 10
1519.7588664226748
 20
806.66145707401336
 42
-0.022583933547139168
  0
VERTEX
  8
0
 10
1516.6844514138222
 20
784.05972344494796
 42
0
  0
VERTEX
  8
0
 10
1515.9223753924766
 20
783.61538452806258
 42
0
  0
VERTEX
  8
0
 10
1509.6466205509821
 20
785.31482425711783
 42
-0.019247783347964287
  0
VERTEX
  8
0
 10
1478.7032487852812
 20
795.2518941429696
 42
-0.019087811931967735
  0
VERTEX
  8
0
 10
1448.6100056982018
 20
807.52674102645312
 42
-0.01902422308921814
  0
VERTEX
  8
0
 10
1419.5384614511395
 20
822.05573162306166
 42
0
  0
VERTEX
  8
0
 10
1419.5420181676359
 20
836.89347357680833
 42
-0.007651415653526783
  0
VERTEX
  8
0
 10
1431.0382046403586
 20
842.96816781219002
 42
-0.019108468666672707
  0
VERTEX
  8
0
 10
1460.5447393965035
 20
856.59313716100871
 42
-0.0191365797072649
  0
VERTEX
  8
0
 10
1491.0056854260592
 20
867.92506893759321
 42
-0.015384012833237648
  0
SEQEND
  0
POLYLINE
  8
0
 10
0
 20
0
 39
0
 70
1
 66
1
  0
VERTEX
  8
0
 10
1463.715659584976
 20
831.54905667962214
 42
0
  0
VERTEX
  8
0
 10
1463.7146278196542
 20
827.37921275193935
 42
0
  0
VERTEX
  8
0
 10
1490.3809595200364
 20
811.98473877669585
 42
0
  0
VERTEX
  8
0
 10
1493.9797646315988
 20
814.05832250736478
 42
0
  0
VERTEX
  8
0
 10
1493.9870790445307
 20
844.85576619463723
 42
0
  0
VERTEX
  8
0
 10
1490.3892755079046
 20
846.93096893093082
 42
0
  0
SEQEND
  0
POLYLINE
  8
0
 10
0
 20
0
 39
0
 70
1
 66
1
  0
VERTEX
  8
0
 10
1516.886286410755
 20
338.84597819182079
 42
0
  0
VERTEX
  8
0
 10
1517.6482439486438
 20
338.40123954036039
 42
-0.02266138419508934
  0
VERTEX
  8
0
 10
1520.7126877781229
 20
315.79800184181192
 42
-0.022449150681495667
  0
VERTEX
  8
0
 10
1521.7301650389265
 20
293.00846266077633
 42
-0.02241675928235054
  0
VERTEX
  8
0
 10
1520.7011741149825
 20
270.21914938170562
 42
-0.022583933547139168
  0
VERTEX
  8
0
 10
1517.6267591061298
 20
247.61741575264023
 42
0
  0
VERTEX
  8
0
 10
1516.8646830847842
 20
247.17307683575478
 42
0
  0
VERTEX
  8
0
 10
1510.5889282432897
 20
248.87251656481004
 42
-0.019247783347964287
  0
VERTEX
  8
0
 10
1479.6455564775888
 20
258.80958645066193
 42
-0.019087811931967735
  0
VERTEX
  8
0
 10
1449.5523133905094
 20
271.08443333414539
 42
-0.01902422308921814
  0
VERTEX
  8
0
 10
1420.4807691434471
 20
285.61342393075392
 42
0
  0
VERTEX
  8
0
 10
1420.4843258599435
 20
300.4511658845006
 42
-0.007651415653526783
  0
VERTEX
  8
0
 10
1431.9805123326662
 20
306.52586011988228
 42
-0.019108468666672707
  0
VERTEX
  8
0
 10
1461.4870470888111
 20
320.15082946870098
 42
-0.0191365797072649
  0
VERTEX
  8
0
 10
1491.9479931183669
 20
331.48276124528547
 42
-0.015384012833237648
  0
SEQEND
  0
POLYLINE
  8
0
 10
0
 20
0
 39
0
 70
1
 66
1
  0
VERTEX
  8
0
 10
1464.6579672772837
 20
295.1067489873144
 42
0
  0
VERTEX
  8
0
 10
1464.6569355119618
 20
290.93690505963161
 42
0
  0
VERTEX
  8
0
 10
1491.323267212344
 20
275.54243108438811
 42
0
  0
VERTEX
  8
0
 10
1494.9220723239064
 20
277.61601481505704
 42
0
  0
VERTEX
  8
0
 10
1494.9293867368383
 20
308.41345850232949
 42
0
  0
VERTEX
  8
0
 10
1491.3315832002122
 20
310.48866123862308
 42
0
  0
SEQEND
  0
POLYLINE
  8
0
 10
0
 20
0
 39
0
 70
1
 66
1
  0
VERTEX
  8
0
 10
1693.6346153846152
 20
1049.75
 42
-0
  0
VERTEX
  8
0
 10
1513.6346153846152
 20
1049.75
 42
0
  0
VERTEX
  8
0
 10
1513.6346153846152
 20
1089.75
 42
0
  0
VERTEX
  8
0
 10
1693.6346153846152
 20
1089.75
 42
0
  0
SEQEND
  0
POLYLINE
  8
0
 10
0
 20
0
 39
0
 70
1
 66
1
  0
VERTEX
  8
0
 10
1615.6346153846152
 20
1069.75
 42
1
  0
VERTEX
  8
0
 10
1591.6346153846152
 20
1069.75
 42
1
  0
SEQEND
  0
POLYLINE
  8
0
 10
0
 20
0
 39
0
 70
1
 66
1
  0
VERTEX
  8
0
 10
70.25
 20
10.250000000000004
 42
-0
  0
VERTEX
  8
0
 10
10.250000000000004
 20
10.25
 42
-0
  0
VERTEX
  8
0
 10
10.250000000000002
 20
50.25
 42
-0
  0
VERTEX
  8
0
 10
70.25
 20
50.250000000000007
 42
-1
  0
SEQEND
  0
POLYLINE
  8
0
 10
0
 20
0
 39
0
 70
1
 66
1
  0
VERTEX
  8
0
 10
70.25
 20
22.250000000000004
 42
1
  0
VERTEX
  8
0
 10
70.25
 20
38.25
 42
1
  0
SEQEND
  0
POLYLINE
  8
0
 10
0
 20
0
 39
0
 70
1
 66
1
  0
VERTEX
  8
0
 10
453.88461538461536
 20
591.53846153846155
 42
-0
  0
VERTEX
  8
0
 10
513.88461538461536
 20
591.53846153846155
 42
-0
  0
VERTEX
  8
0
 10
513.88461538461536
 20
551.53846153846155
 42
-0
  0
VERTEX
  8
0
 10
453.88461538461536
 20
551.53846153846155
 42
-1
  0
SEQEND
  0
POLYLINE
  8
0
 10
0
 20
0
 39
0
 70
1
 66
1
  0
VERTEX
  8
0
 10
453.88461538461536
 20
579.53846153846155
 42
1
  0
VERTEX
  8
0
 10
453.88461538461536
 20
563.53846153846155
 42
1
  0
SEQEND
  0
POLYLINE
  8
0
 10
0
 20
0
 39
0
 70
1
 66
1
  0
VERTEX
  8
0
 10
494.01923076923077
 20
10.250000000000004
 42
-0
  0
VERTEX
  8
0
 10
434.01923076923077
 20
10.25
 42
-0
  0
VERTEX
  8
0
 10
434.01923076923077
 20
50.25
 42
-0
  0
VERTEX
  8
0
 10
494.01923076923077
 20
50.250000000000007
 42
-1
  0
SEQEND
  0
POLYLINE
  8
0
 10
0
 20
0
 39
0
 70
1
 66
1
  0
VERTEX
  8
0
 10
494.01923076923077
 20
22.250000000000004
 42
1
  0
VERTEX
  8
0
 10
494.01923076923077
 20
38.25
 42
1
  0
SEQEND
  0
POLYLINE
  8
0
 10
0
 20
0
 39
0
 70
1
 66
1
  0
VERTEX
  8
0
 10
544.07692307692309
 20
575.65384615384619
 42
-0
  0
VERTEX
  8
0
 10
604.07692307692309
 20
575.65384615384619
 42
-0
  0
VERTEX
  8
0
 10
604.07692307692309
 20
535.65384615384619
 42
-0
  0
VERTEX
  8
0
 10
544.07692307692309
 20
535.65384615384619
 42
-1
  0
SEQEND
  0
POLYLINE
  8
0
 10
0
 20
0
 39
0
 70
1
 66
1
  0
VERTEX
  8
0
 10
544.07692307692309
 20
563.65384615384619
 42
1
  0
VERTEX
  8
0
 10
544.07692307692309
 20
547.65384615384619
 42
1
  0
SEQEND
  0
POLYLINE
  8
0
 10
0
 20
0
 39
0
 70
1
 66
1
  0
VERTEX
  8
0
 10
634.26923076923072
 20
559.76923076923072
 42
-0
  0
VERTEX
  8
0
 10
694.26923076923072
 20
559.76923076923072
 42
-0
  0
VERTEX
  8
0
 10
694.26923076923072
 20
519.76923076923072
 42
-0
  0
VERTEX
  8
0
 10
634.26923076923072
 20
519.76923076923072
 42
-1
  0
SEQEND
  0
POLYLINE
  8
0
 10
0
 20
0
 39
0
 70
1
 66
1
  0
VERTEX
  8
0
 10
634.26923076923072
 20
547.76923076923072
 42
1
  0
VERTEX
  8
0
 10
634.26923076923072
 20
531.76923076923072
 42
1
  0
SEQEND
  0
POLYLINE
  8
0
 10
0
 20
0
 39
0
 70
1
 66
1
  0
VERTEX
  8
0
 10
692.69230769230762
 20
1089.75
 42
-0
  0
VERTEX
  8
0
 10
752.69230769230762
 20
1089.75
 42
-0
  0
VERTEX
  8
0
 10
752.69230769230762
 20
1049.75
 42
-0
  0
VERTEX
  8
0
 10
692.69230769230762
 20
1049.75
 42
-1
  0
SEQEND
  0
POLYLINE
  8
0
 10
0
 20
0
 39
0
 70
1
 66
1
  0
VERTEX
  8
0
 10
692.69230769230762
 20
1077.75
 42
1
  0
VERTEX
  8
0
 10
692.69230769230762
 20
1061.75
 42
1
  0
SEQEND
  0
POLYLINE
  8
0
 10
0
 20
0
 39
0
 70
1
 66
1
  0
VERTEX
  8
0
 10
724.46153846153845
 20
543.88461538461536
 42
-0
  0
VERTEX
  8
0
 10
784.46153846153845
 20
543.88461538461536
 42
-0
  0
VERTEX
  8
0
 10
784.46153846153845
 20
503.88461538461536
 42
-0
  0
VERTEX
  8
0
 10
724.46153846153845
 20
503.88461538461536
 42
-1
  0
SEQEND
  0
POLYLINE
  8
0
 10
0
 20
0
 39
0
 70
1
 66
1
  0
VERTEX
  8
0
 10
724.46153846153845
 20
531.88461538461536
 42
1
  0
VERTEX
  8
0
 10
724.46153846153845
 20
515.88461538461536
 42
1
  0
SEQEND
  0
POLYLINE
  8
0
 10
0
 20
0
 39
0
 70
1
 66
1
  0
VERTEX
  8
0
 10
782.88461538461536
 20
1073.8653846153845
 42
-0
  0
VERTEX
  8
0
 10
842.88461538461536
 20
1073.8653846153845
 42
-0
  0
VERTEX
  8
0
 10
842.88461538461536
 20
1033.8653846153845
 42
-0
  0
VERTEX
  8
0
 10
782.88461538461536
 20
1033.8653846153845
 42
-1
  0
SEQEND
  0
POLYLINE
  8
0
 10
0
 20
0
 39
0
 70
1
 66
1
  0
VERTEX
  8
0
 10
782.88461538461536
 20
1061.8653846153845
 42
1
  0
VERTEX
  8
0
 10
782.88461538461536
 20
1045.8653846153845
 42
1
  0
SEQEND
  0
POLYLINE
  8
0
 10
0
 20
0
 39
0
 70
1
 66
1
  0
VERTEX
  8
0
 10
876.84615384615381
 20
591.53846153846155
 42
-0
  0
VERTEX
  8
0
 10
936.84615384615381
 20
591.53846153846155
 42
-0
  0
VERTEX
  8
0
 10
936.84615384615381
 20
551.53846153846155
 42
-0
  0
VERTEX
  8
0
 10
876.84615384615381
 20
551.53846153846155
 42
-1
  0
SEQEND
  0
POLYLINE
  8
0
 10
0
 20
0
 39
0
 70
1
 66
1
  0
VERTEX
  8
0
 10
876.84615384615381
 20
579.53846153846155
 42
1
  0
VERTEX
  8
0
 10
876.84615384615381
 20
563.53846153846155
 42
1
  0
SEQEND
  0
POLYLINE
  8
0
 10
0
 20
0
 39
0
 70
1
 66
1
  0
VERTEX
  8
0
 10
917.78846153846155
 20
10.250000000000004
 42
-0
  0
VERTEX
  8
0
 10
857.78846153846155
 20
10.25
 42
-0
  0
VERTEX
  8
0
 10
857.78846153846155
 20
50.25
 42
-0
  0
VERTEX
  8
0
 10
917.78846153846155
 20
50.250000000000007
 42
-1
  0
SEQEND
  0
POLYLINE
  8
0
 10
0
 20
0
 39
0
 70
1
 66
1
  0
VERTEX
  8
0
 10
917.78846153846155
 20
22.250000000000004
 42
1
  0
VERTEX
  8
0
 10
917.78846153846155
 20
38.25
 42
1
  0
SEQEND
  0
POLYLINE
  8
0
 10
0
 20
0
 39
0
 70
1
 66
1
  0
VERTEX
  8
0
 10
967.03846153846143
 20
575.65384615384619
 42
-0
  0
VERTEX
  8
0
 10
1027.0384615384614
 20
575.65384615384619
 42
-0
  0
VERTEX
  8
0
 10
1027.0384615384614
 20
535.65384615384619
 42
-0
  0
VERTEX
  8
0
 10
967.03846153846143
 20
535.65384615384619
 42
-1
  0
SEQEND
  0
POLYLINE
  8
0
 10
0
 20
0
 39
0
 70
1
 66
1
  0
VERTEX
  8
0
 10
967.03846153846143
 20
563.65384615384619
 42
1
  0
VERTEX
  8
0
 10
967.03846153846143
 20
547.65384615384619
 42
1
  0
SEQEND
  0
POLYLINE
  8
0
 10
0
 20
0
 39
0
 70
1
 66
1
  0
VERTEX
  8
0
 10
1057.2307692307693
 20
559.76923076923072
 42
-0
  0
VERTEX
  8
0
 10
1117.2307692307693
 20
559.76923076923072
 42
-0
  0
VERTEX
  8
0
 10
1117.2307692307693
 20
519.76923076923072
 42
-0
  0
VERTEX
  8
0
 10
1057.2307692307693
 20
519.76923076923072
 42
-1
  0
SEQEND
  0
POLYLINE
  8
0
 10
0
 20
0
 39
0
 70
1
 66
1
  0
VERTEX
  8
0
 10
1057.2307692307693
 20
547.76923076923072
 42
1
  0
VERTEX
  8
0
 10
1057.2307692307693
 20
531.76923076923072
 42
1
  0
SEQEND
  0
POLYLINE
  8
0
 10
0
 20
0
 39
0
 70
1
 66
1
  0
VERTEX
  8
0
 10
1104.0769230769231
 20
1089.75
 42
-0
  0
VERTEX
  8
0
 10
1164.0769230769231
 20
1089.75
 42
-0
  0
VERTEX
  8
0
 10
1164.0769230769231
 20
1049.75
 42
-0
  0
VERTEX
  8
0
 10
1104.0769230769231
 20
1049.75
 42
-1
  0
SEQEND
  0
POLYLINE
  8
0
 10
0
 20
0
 39
0
 70
1
 66
1
  0
VERTEX
  8
0
 10
1104.0769230769231
 20
1077.75
 42
1
  0
VERTEX
  8
0
 10
1104.0769230769231
 20
1061.75
 42
1
  0
SEQEND
  0
POLYLINE
  8
0
 10
0
 20
0
 39
0
 70
1
 66
1
  0
VERTEX
  8
0
 10
1147.4230769230769
 20
543.88461538461536
 42
-0
  0
VERTEX
  8
0
 10
1207.4230769230769
 20
543.88461538461536
 42
-0
  0
VERTEX
  8
0
 10
1207.4230769230769
 20
503.88461538461536
 42
-0
  0
VERTEX
  8
0
 10
1147.4230769230769
 20
503.88461538461536
 42
-1
  0
SEQEND
  0
POLYLINE
  8
0
 10
0
 20
0
 39
0
 70
1
 66
1
  0
VERTEX
  8
0
 10
1147.4230769230769
 20
531.88461538461536
 42
1
  0
VERTEX
  8
0
 10
1147.4230769230769
 20
515.88461538461536
 42
1
  0
SEQEND
  0
POLYLINE
  8
0
 10
0
 20
0
 39
0
 70
1
 66
1
  0
VERTEX
  8
0
 10
1194.2692307692307
 20
1073.8653846153845
 42
-0
  0
VERTEX
  8
0
 10
1254.2692307692307
 20
1073.8653846153845
 42
-0
  0
VERTEX
  8
0
 10
1254.2692307692307
 20
1033.8653846153845
 42
-0
  0
VERTEX
  8
0
 10
1194.2692307692307
 20
1033.8653846153845
 42
-1
  0
SEQEND
  0
POLYLINE
  8
0
 10
0
 20
0
 39
0
 70
1
 66
1
  0
VERTEX
  8
0
 10
1194.2692307692307
 20
1061.8653846153845
 42
1
  0
VERTEX
  8
0
 10
1194.2692307692307
 20
1045.8653846153845
 42
1
  0
SEQEND
  0
POLYLINE
  8
0
 10
0
 20
0
 39
0
 70
1
 66
1
  0
VERTEX
  8
0
 10
1299.8076923076924
 20
591.53846153846155
 42
-0
  0
VERTEX
  8
0
 10
1359.8076923076924
 20
591.53846153846155
 42
-0
  0
VERTEX
  8
0
 10
1359.8076923076924
 20
551.53846153846155
 42
-0
  0
VERTEX
  8
0
 10
1299.8076923076924
 20
551.53846153846155
 42
-1
  0
SEQEND
  0
POLYLINE
  8
0
 10
0
 20
0
 39
0
 70
1
 66
1
  0
VERTEX
  8
0
 10
1299.8076923076924
 20
579.53846153846155
 42
1
  0
VERTEX
  8
0
 10
1299.8076923076924
 20
563.53846153846155
 42
1
  0
SEQEND
  0
POLYLINE
  8
0
 10
0
 20
0
 39
0
 70
1
 66
1
  0
VERTEX
  8
0
 10
1340.75
 20
10.250000000000004
 42
-0
  0
VERTEX
  8
0
 10
1280.75
 20
10.25
 42
-0
  0
VERTEX
  8
0
 10
1280.75
 20
50.25
 42
-0
  0
VERTEX
  8
0
 10
1340.75
 20
50.250000000000007
 42
-1
  0
SEQEND
  0
POLYLINE
  8
0
 10
0
 20
0
 39
0
 70
1
 66
1
  0
VERTEX
  8
0
 10
1340.75
 20
22.250000000000004
 42
1
  0
VERTEX
  8
0
 10
1340.75
 20
38.25
 42
1
  0
SEQEND
  0
POLYLINE
  8
0
 10
0
 20
0
 39
0
 70
1
 66
1
  0
VERTEX
  8
0
 10
1390
 20
575.65384615384619
 42
-0
  0
VERTEX
  8
0
 10
1450
 20
575.65384615384619
 42
-0
  0
VERTEX
  8
0
 10
1450
 20
535.65384615384619
 42
-0
  0
VERTEX
  8
0
 10
1390
 20
535.65384615384619
 42
-1
  0
SEQEND
  0
POLYLINE
  8
0
 10
0
 20
0
 39
0
 70
1
 66
1
  0
VERTEX
  8
0
 10
1390
 20
563.65384615384619
 42
1
  0
VERTEX
  8
0
 10
1390
 20
547.65384615384619
 42
1
  0
SEQEND
  0
POLYLINE
  8
0
 10
0
 20
0
 39
0
 70
1
 66
1
  0
VERTEX
  8
0
 10
1480.1923076923076
 20
559.76923076923072
 42
-0
  0
VERTEX
  8
0
 10
1540.1923076923076
 20
559.76923076923072
 42
-0
  0
VERTEX
  8
0
 10
1540.1923076923076
 20
519.76923076923072
 42
-0
  0
VERTEX
  8
0
 10
1480.1923076923076
 20
519.76923076923072
 42
-1
  0
SEQEND
  0
POLYLINE
  8
0
 10
0
 20
0
 39
0
 70
1
 66
1
  0
VERTEX
  8
0
 10
1480.1923076923076
 20
547.76923076923072
 42
1
  0
VERTEX
  8
0
 10
1480.1923076923076
 20
531.76923076923072
 42
1
  0
SEQEND
  0
POLYLINE
  8
0
 10
0
 20
0
 39
0
 70
1
 66
1
  0
VERTEX
  8
0
 10
1570.3846153846152
 20
543.88461538461536
 42
-0
  0
VERTEX
  8
0
 10
1630.3846153846152
 20
543.88461538461536
 42
-0
  0
VERTEX
  8
0
 10
1630.3846153846152
 20
503.88461538461536
 42
-0
  0
VERTEX
  8
0
 10
1570.3846153846152
 20
503.88461538461536
 42
-1
  0
SEQEND
  0
POLYLINE
  8
0
 10
0
 20
0
 39
0
 70
1
 66
1
  0
VERTEX
  8
0
 10
1570.3846153846152
 20
531.88461538461536
 42
1
  0
VERTEX
  8
0
 10
1570.3846153846152
 20
515.88461538461536
 42
1
  0
SEQEND
  0
POLYLINE
  8
0
 10
0
 20
0
 39
0
 70
1
 66
1
  0
VERTEX
  8
0
 10
1660.5769230769231
 20
528
 42
-0
  0
VERTEX
  8
0
 10
1720.5769230769231
 20
528
 42
-0
  0
VERTEX
  8
0
 10
1720.5769230769231
 20
488
 42
-0
  0
VERTEX
  8
0
 10
1660.5769230769231
 20
488
 42
-1
  0
SEQEND
  0
POLYLINE
  8
0
 10
0
 20
0
 39
0
 70
1
 66
1
  0
VERTEX
  8
0
 10
1660.5769230769231
 20
516
 42
1
  0
VERTEX
  8
0
 10
1660.5769230769231
 20
500
 42
1
  0
SEQEND
  0
ENDSEC
  0
EOF
