  0
SECTION
  2
ENTITIES
  0
POLYLINE
  8
0
 10
0
 20
0
 39
0
 70
1
 66
1
  0
VERTEX
  8
0
 10
0
 20
0
 42
-0
  0
VERTEX
  8
0
 10
1500
 20
0
 42
-0
  0
VERTEX
  8
0
 10
1500
 20
800
 42
-0
  0
VERTEX
  8
0
 10
0
 20
800
 42
-0
  0
SEQEND
  0
POLYLINE
  8
0
 10
0
 20
0
 39
0
 70
1
 66
1
  0
VERTEX
  8
0
 10
130.19230769230768
 20
310.19230769230768
 42
-0
  0
VERTEX
  8
0
 10
265.19230769230768
 20
310.19230769230768
 42
-0
  0
VERTEX
  8
0
 10
265.19230769230768
 20
10.192307692307702
 42
-0
  0
VERTEX
  8
0
 10
130.19230769230771
 20
10.192307692307693
 42
-0
  0
VERTEX
  8
0
 10
10.192307692307697
 20
130.19230769230768
 42
-0
  0
VERTEX
  8
0
 10
10.192307692307693
 20
190.19230769230768
 42
0
  0
SEQEND
  0
POLYLINE
  8
0
 10
0
 20
0
 39
0
 70
1
 66
1
  0
VERTEX
  8
0
 10
100.19230769230771
 20
122.19230769230768
 42
1
  0
VERTEX
  8
0
 10
100.19230769230769
 20
198.19230769230768
 42
1
  0
SEQEND
  0
POLYLINE
  8
0
 10
0
 20
0
 39
0
 70
1
 66
1
  0
VERTEX
  8
0
 10
130.19230769230768
 20
620.23076923076928
 42
-0
  0
VERTEX
  8
0
 10
265.19230769230768
 20
620.23076923076928
 42
-0
  0
VERTEX
  8
0
 10
265.19230769230768
 20
320.23076923076923
 42
-0
  0
VERTEX
  8
0
 10
130.19230769230771
 20
320.23076923076923
 42
-0
  0
VERTEX
  8
0
 10
10.192307692307697
 20
440.23076923076923
 42
-0
  0
VERTEX
  8
0
 10
10.192307692307693
 20
500.23076923076923
 42
0
  0
SEQEND
  0
POLYLINE
  8
0
 10
0
 20
0
 39
0
 70
1
 66
1
  0
VERTEX
  8
0
 10
100.19230769230771
 20
432.23076923076923
 42
1
  0
VERTEX
  8
0
 10
100.19230769230769
 20
508.23076923076923
 42
1
  0
SEQEND
  0
POLYLINE
  8
0
 10
0
 20
0
 39
0
 70
1
 66
1
  0
VERTEX
  8
0
 10
395.34615384615387
 20
310.19230769230768
 42
-0
  0
VERTEX
  8
0
 10
530.34615384615381
 20
310.19230769230768
 42
-0
  0
VERTEX
  8
0
 10
530.34615384615381
 20
10.192307692307702
 42
-0
  0
VERTEX
  8
0
 10
395.34615384615387
 20
10.192307692307693
 42
-0
  0
VERTEX
  8
0
 10
275.34615384615387
 20
130.19230769230768
 42
-0
  0
VERTEX
  8
0
 10
275.34615384615387
 20
190.19230769230768
 42
0
  0
SEQEND
  0
POLYLINE
  8
0
 10
0
 20
0
 39
0
 70
1
 66
1
  0
VERTEX
  8
0
 10
365.34615384615387
 20
122.19230769230768
 42
1
  0
VERTEX
  8
0
 10
365.34615384615387
 20
198.19230769230768
 42
1
  0
SEQEND
  0
POLYLINE
  8
0
 10
0
 20
0
 39
0
 70
1
 66
1
  0
VERTEX
  8
0
 10
395.34615384615387
 20
620.23076923076928
 42
-0
  0
VERTEX
  8
0
 10
530.34615384615381
 20
620.23076923076928
 42
-0
  0
VERTEX
  8
0
 10
530.34615384615381
 20
320.23076923076923
 42
-0
  0
VERTEX
  8
0
 10
395.34615384615387
 20
320.23076923076923
 42
-0
  0
VERTEX
  8
0
 10
275.34615384615387
 20
440.23076923076923
 42
-0
  0
VERTEX
  8
0
 10
275.34615384615387
 20
500.23076923076923
 42
0
  0
SEQEND
  0
POLYLINE
  8
0
 10
0
 20
0
 39
0
 70
1
 66
1
  0
VERTEX
  8
0
 10
365.34615384615387
 20
432.23076923076923
 42
1
  0
VERTEX
  8
0
 10
365.34615384615387
 20
508.23076923076923
 42
1
  0
SEQEND
  0
POLYLINE
  8
0
 10
0
 20
0
 39
0
 70
1
 66
1
  0
VERTEX
  8
0
 10
660.5
 20
310.19230769230768
 42
-0
  0
VERTEX
  8
0
 10
795.5
 20
310.19230769230768
 42
-0
  0
VERTEX
  8
0
 10
795.5
 20
10.192307692307702
 42
-0
  0
VERTEX
  8
0
 10
660.5
 20
10.192307692307693
 42
-0
  0
VERTEX
  8
0
 10
540.5
 20
130.19230769230768
 42
-0
  0
VERTEX
  8
0
 10
540.5
 20
190.19230769230768
 42
0
  0
SEQEND
  0
POLYLINE
  8
0
 10
0
 20
0
 39
0
 70
1
 66
1
  0
VERTEX
  8
0
 10
630.5
 20
122.19230769230768
 42
1
  0
VERTEX
  8
0
 10
630.5
 20
198.19230769230768
 42
1
  0
SEQEND
  0
POLYLINE
  8
0
 10
0
 20
0
 39
0
 70
1
 66
1
  0
VERTEX
  8
0
 10
660.5
 20
620.23076923076928
 42
-0
  0
VERTEX
  8
0
 10
795.5
 20
620.23076923076928
 42
-0
  0
VERTEX
  8
0
 10
795.5
 20
320.23076923076923
 42
-0
  0
VERTEX
  8
0
 10
660.5
 20
320.23076923076923
 42
-0
  0
VERTEX
  8
0
 10
540.5
 20
440.23076923076923
 42
-0
  0
VERTEX
  8
0
 10
540.5
 20
500.23076923076923
 42
0
  0
SEQEND
  0
POLYLINE
  8
0
 10
0
 20
0
 39
0
 70
1
 66
1
  0
VERTEX
  8
0
 10
630.5
 20
432.23076923076923
 42
1
  0
VERTEX
  8
0
 10
630.5
 20
508.23076923076923
 42
1
  0
SEQEND
  0
POLYLINE
  8
0
 10
0
 20
0
 39
0
 70
1
 66
1
  0
VERTEX
  8
0
 10
925.65384615384619
 20
310.19230769230768
 42
-0
  0
VERTEX
  8
0
 10
1060.6538461538462
 20
310.19230769230768
 42
-0
  0
VERTEX
  8
0
 10
1060.6538461538462
 20
10.192307692307702
 42
-0
  0
VERTEX
  8
0
 10
925.65384615384619
 20
10.192307692307693
 42
-0
  0
VERTEX
  8
0
 10
805.65384615384619
 20
130.19230769230768
 42
-0
  0
VERTEX
  8
0
 10
805.65384615384619
 20
190.19230769230768
 42
0
  0
SEQEND
  0
POLYLINE
  8
0
 10
0
 20
0
 39
0
 70
1
 66
1
  0
VERTEX
  8
0
 10
895.65384615384619
 20
122.19230769230768
 42
1
  0
VERTEX
  8
0
 10
895.65384615384619
 20
198.19230769230768
 42
1
  0
SEQEND
  0
POLYLINE
  8
0
 10
0
 20
0
 39
0
 70
1
 66
1
  0
VERTEX
  8
0
 10
925.65384615384619
 20
620.23076923076928
 42
-0
  0
VERTEX
  8
0
 10
1060.6538461538462
 20
620.23076923076928
 42
-0
  0
VERTEX
  8
0
 10
1060.6538461538462
 20
320.23076923076923
 42
-0
  0
VERTEX
  8
0
 10
925.65384615384619
 20
320.23076923076923
 42
-0
  0
VERTEX
  8
0
 10
805.65384615384619
 20
440.23076923076923
 42
-0
  0
VERTEX
  8
0
 10
805.65384615384619
 20
500.23076923076923
 42
0
  0
SEQEND
  0
POLYLINE
  8
0
 10
0
 20
0
 39
0
 70
1
 66
1
  0
VERTEX
  8
0
 10
895.65384615384619
 20
432.23076923076923
 42
1
  0
VERTEX
  8
0
 10
895.65384615384619
 20
508.23076923076923
 42
1
  0
SEQEND
  0
POLYLINE
  8
0
 10
0
 20
0
 39
0
 70
1
 66
1
  0
VERTEX
  8
0
 10
1190.8076923076924
 20
310.19230769230768
 42
-0
  0
VERTEX
  8
0
 10
1325.8076923076924
 20
310.19230769230768
 42
-0
  0
VERTEX
  8
0
 10
1325.8076923076924
 20
10.192307692307702
 42
-0
  0
VERTEX
  8
0
 10
1190.8076923076924
 20
10.192307692307693
 42
-0
  0
VERTEX
  8
0
 10
1070.8076923076924
 20
130.19230769230768
 42
-0
  0
VERTEX
  8
0
 10
1070.8076923076924
 20
190.19230769230768
 42
0
  0
SEQEND
  0
POLYLINE
  8
0
 10
0
 20
0
 39
0
 70
1
 66
1
  0
VERTEX
  8
0
 10
1160.8076923076924
 20
122.19230769230768
 42
1
  0
VERTEX
  8
0
 10
1160.8076923076924
 20
198.19230769230768
 42
1
  0
SEQEND
  0
POLYLINE
  8
0
 10
0
 20
0
 39
0
 70
1
 66
1
  0
VERTEX
  8
0
 10
1190.8076923076924
 20
620.23076923076928
 42
-0
  0
VERTEX
  8
0
 10
1325.8076923076924
 20
620.23076923076928
 42
-0
  0
VERTEX
  8
0
 10
1325.8076923076924
 20
320.23076923076923
 42
-0
  0
VERTEX
  8
0
 10
1190.8076923076924
 20
320.23076923076923
 42
-0
  0
VERTEX
  8
0
 10
1070.8076923076924
 20
440.23076923076923
 42
-0
  0
VERTEX
  8
0
 10
1070.8076923076924
 20
500.23076923076923
 42
0
  0
SEQEND
  0
POLYLINE
  8
0
 10
0
 20
0
 39
0
 70
1
 66
1
  0
VERTEX
  8
0
 10
1160.8076923076924
 20
432.23076923076923
 42
1
  0
VERTEX
  8
0
 10
1160.8076923076924
 20
508.23076923076923
 42
1
  0
SEQEND
  0
POLYLINE
  8
0
 10
0
 20
0
 39
0
 70
1
 66
1
  0
VERTEX
  8
0
 10
280.19230769230768
 20
630.26923076923083
 42
-0
  0
VERTEX
  8
0
 10
80.192307692307679
 20
630.26923076923083
 42
-0
  0
VERTEX
  8
0
 10
10.192307692307679
 20
730.26923076923083
 42
-0
  0
VERTEX
  8
0
 10
10.192307692307679
 20
750.26923076923083
 42
-0
  0
VERTEX
  8
0
 10
280.19230578495905
 20
750.26923076923083
 42
-0.49999997019767761
  0
SEQEND
  0
POLYLINE
  8
0
 10
0
 20
0
 39
0
 70
1
 66
1
  0
VERTEX
  8
0
 10
282.19230769230768
 20
682.26923076923083
 42
1
  0
VERTEX
  8
0
 10
282.19230769230768
 20
698.26923076923083
 42
-0
  0
VERTEX
  8
0
 10
98.192307692307679
 20
698.26923076923083
 42
1
  0
VERTEX
  8
0
 10
98.192307692307679
 20
682.26923076923083
 42
0
  0
SEQEND
  0
POLYLINE
  8
0
 10
0
 20
0
 39
0
 70
1
 66
1
  0
VERTEX
  8
0
 10
553.76923076923072
 20
669.73076923076928
 42
-0
  0
VERTEX
  8
0
 10
353.76923076923072
 20
669.73076923076928
 42
-0
  0
VERTEX
  8
0
 10
283.76923076923072
 20
769.73076923076928
 42
-0
  0
VERTEX
  8
0
 10
283.76923076923072
 20
789.73076923076928
 42
-0
  0
VERTEX
  8
0
 10
553.76922886188208
 20
789.73076923076928
 42
-0.49999997019767761
  0
SEQEND
  0
POLYLINE
  8
0
 10
0
 20
0
 39
0
 70
1
 66
1
  0
VERTEX
  8
0
 10
555.76923076923072
 20
721.73076923076928
 42
1
  0
VERTEX
  8
0
 10
555.76923076923072
 20
737.73076923076928
 42
-0
  0
VERTEX
  8
0
 10
371.76923076923072
 20
737.73076923076928
 42
1
  0
VERTEX
  8
0
 10
371.76923076923072
 20
721.73076923076928
 42
0
  0
SEQEND
  0
POLYLINE
  8
0
 10
0
 20
0
 39
0
 70
1
 66
1
  0
VERTEX
  8
0
 10
854.23076923076928
 20
669.5
 42
-0
  0
VERTEX
  8
0
 10
654.23076923076928
 20
669.5
 42
-0
  0
VERTEX
  8
0
 10
584.23076923076928
 20
769.5
 42
-0
  0
VERTEX
  8
0
 10
584.23076923076928
 20
789.5
 42
-0
  0
VERTEX
  8
0
 10
854.23076732342065
 20
789.5
 42
-0.49999997019767761
  0
SEQEND
  0
POLYLINE
  8
0
 10
0
 20
0
 39
0
 70
1
 66
1
  0
VERTEX
  8
0
 10
856.23076923076928
 20
721.5
 42
1
  0
VERTEX
  8
0
 10
856.23076923076928
 20
737.5
 42
-0
  0
VERTEX
  8
0
 10
672.23076923076928
 20
737.5
 42
1
  0
VERTEX
  8
0
 10
672.23076923076928
 20
721.5
 42
0
  0
SEQEND
  0
POLYLINE
  8
0
 10
0
 20
0
 39
0
 70
1
 66
1
  0
VERTEX
  8
0
 10
1154.5769230769231
 20
669.61538461538464
 42
-0
  0
VERTEX
  8
0
 10
954.57692307692309
 20
669.61538461538464
 42
-0
  0
VERTEX
  8
0
 10
884.57692307692309
 20
769.61538461538464
 42
-0
  0
VERTEX
  8
0
 10
884.57692307692309
 20
789.61538461538464
 42
-0
  0
VERTEX
  8
0
 10
1154.5769211695745
 20
789.61538461538464
 42
-0.49999997019767761
  0
SEQEND
  0
POLYLINE
  8
0
 10
0
 20
0
 39
0
 70
1
 66
1
  0
VERTEX
  8
0
 10
1156.5769230769231
 20
721.61538461538464
 42
1
  0
VERTEX
  8
0
 10
1156.5769230769231
 20
737.61538461538464
 42
-0
  0
VERTEX
  8
0
 10
972.57692307692309
 20
737.61538461538464
 42
1
  0
VERTEX
  8
0
 10
972.57692307692309
 20
721.61538461538464
 42
0
  0
SEQEND
  0
POLYLINE
  8
0
 10
0
 20
0
 39
0
 70
1
 66
1
  0
VERTEX
  8
0
 10
1335.9615384615386
 20
40.192304950494034
 42
-0
  0
VERTEX
  8
0
 10
1335.9615384615386
 20
240.19230495049402
 42
-0
  0
VERTEX
  8
0
 10
1435.9615384615386
 20
310.19230495049402
 42
-0
  0
VERTEX
  8
0
 10
1455.9615384615386
 20
310.19230495049402
 42
-0
  0
VERTEX
  8
0
 10
1455.9615384615386
 20
40.192306857842674
 42
-0.49999997019767761
  0
SEQEND
  0
POLYLINE
  8
0
 10
0
 20
0
 39
0
 70
1
 66
1
  0
VERTEX
  8
0
 10
1387.9615384615386
 20
38.192304950494034
 42
1
  0
VERTEX
  8
0
 10
1403.9615384615386
 20
38.192304950494034
 42
-0
  0
VERTEX
  8
0
 10
1403.9615384615386
 20
222.19230495049402
 42
1
  0
VERTEX
  8
0
 10
1387.9615384615386
 20
222.19230495049402
 42
0
  0
SEQEND
  0
POLYLINE
  8
0
 10
0
 20
0
 39
0
 70
1
 66
1
  0
VERTEX
  8
0
 10
1455.9615384615386
 20
536.80769230769238
 42
-0
  0
VERTEX
  8
0
 10
1455.9615384615386
 20
336.80769230769238
 42
-0
  0
VERTEX
  8
0
 10
1355.9615384615386
 20
266.80769230769238
 42
-0
  0
VERTEX
  8
0
 10
1335.9615384615386
 20
266.80769230769238
 42
-0
  0
VERTEX
  8
0
 10
1335.9615384615386
 20
536.80769040034374
 42
-0.49999997019767761
  0
SEQEND
  0
POLYLINE
  8
0
 10
0
 20
0
 39
0
 70
1
 66
1
  0
VERTEX
  8
0
 10
1403.9615384615386
 20
538.80769230769238
 42
1
  0
VERTEX
  8
0
 10
1387.9615384615386
 20
538.80769230769238
 42
-0
  0
VERTEX
  8
0
 10
1387.9615384615386
 20
354.80769230769238
 42
1
  0
VERTEX
  8
0
 10
1403.9615384615386
 20
354.80769230769238
 42
0
  0
SEQEND
  0
POLYLINE
  8
0
 10
0
 20
0
 39
0
 70
1
 66
1
  0
VERTEX
  8
0
 10
1454.9230769230769
 20
669.73076923076928
 42
-0
  0
VERTEX
  8
0
 10
1254.9230769230769
 20
669.73076923076928
 42
-0
  0
VERTEX
  8
0
 10
1184.9230769230769
 20
769.73076923076928
 42
-0
  0
VERTEX
  8
0
 10
1184.9230769230769
 20
789.73076923076928
 42
-0
  0
VERTEX
  8
0
 10
1454.9230750157283
 20
789.73076923076928
 42
-0.49999997019767761
  0
SEQEND
  0
POLYLINE
  8
0
 10
0
 20
0
 39
0
 70
1
 66
1
  0
VERTEX
  8
0
 10
1456.9230769230769
 20
721.73076923076928
 42
1
  0
VERTEX
  8
0
 10
1456.9230769230769
 20
737.73076923076928
 42
-0
  0
VERTEX
  8
0
 10
1272.9230769230769
 20
737.73076923076928
 42
1
  0
VERTEX
  8
0
 10
1272.9230769230769
 20
721.73076923076928
 42
0
  0
SEQEND
  0
POLYLINE
  8
0
 10
0
 20
0
 39
0
 70
1
 66
1
  0
VERTEX
  8
0
 10
10.192307692307704
 20
206.34615384615387
 42
-0
  0
VERTEX
  8
0
 10
10.192307692307692
 20
416.34615384615387
 42
0
  0
VERTEX
  8
0
 10
99.721505385178787
 20
328.49039517916168
 42
0.28014808893203735
  0
VERTEX
  8
0
 10
99.721505385178801
 20
294.20191251314606
 42
-0
  0
SEQEND
  0
POLYLINE
  8
0
 10
0
 20
0
 39
0
 70
1
 66
1
  0
VERTEX
  8
0
 10
51.401082258958084
 20
287.34615384615387
 42
1
  0
VERTEX
  8
0
 10
51.401082258958084
 20
335.34615384615387
 42
1
  0
SEQEND
  0
POLYLINE
  8
0
 10
0
 20
0
 39
0
 70
1
 66
1
  0
VERTEX
  8
0
 10
275.34615384615387
 20
206.34615384615387
 42
-0
  0
VERTEX
  8
0
 10
275.34615384615387
 20
416.34615384615387
 42
0
  0
VERTEX
  8
0
 10
364.87535153902496
 20
328.49039517916168
 42
0.28014808893203735
  0
VERTEX
  8
0
 10
364.87535153902496
 20
294.20191251314606
 42
-0
  0
SEQEND
  0
POLYLINE
  8
0
 10
0
 20
0
 39
0
 70
1
 66
1
  0
VERTEX
  8
0
 10
316.55492841280426
 20
287.34615384615387
 42
1
  0
VERTEX
  8
0
 10
316.55492841280426
 20
335.34615384615387
 42
1
  0
SEQEND
  0
POLYLINE
  8
0
 10
0
 20
0
 39
0
 70
1
 66
1
  0
VERTEX
  8
0
 10
540.5
 20
206.34615384615387
 42
-0
  0
VERTEX
  8
0
 10
540.5
 20
416.34615384615387
 42
0
  0
VERTEX
  8
0
 10
630.02919769287109
 20
328.49039517916168
 42
0.28014808893203735
  0
VERTEX
  8
0
 10
630.02919769287109
 20
294.20191251314606
 42
-0
  0
SEQEND
  0
POLYLINE
  8
0
 10
0
 20
0
 39
0
 70
1
 66
1
  0
VERTEX
  8
0
 10
581.70877456665039
 20
287.34615384615387
 42
1
  0
VERTEX
  8
0
 10
581.70877456665039
 20
335.34615384615387
 42
1
  0
SEQEND
  0
POLYLINE
  8
0
 10
0
 20
0
 39
0
 70
1
 66
1
  0
VERTEX
  8
0
 10
805.65384615384619
 20
206.34615384615387
 42
-0
  0
VERTEX
  8
0
 10
805.65384615384619
 20
416.34615384615387
 42
0
  0
VERTEX
  8
0
 10
895.18304384671728
 20
328.49039517916168
 42
0.28014808893203735
  0
VERTEX
  8
0
 10
895.18304384671728
 20
294.20191251314606
 42
-0
  0
SEQEND
  0
POLYLINE
  8
0
 10
0
 20
0
 39
0
 70
1
 66
1
  0
VERTEX
  8
0
 10
846.86262072049658
 20
287.34615384615387
 42
1
  0
VERTEX
  8
0
 10
846.86262072049658
 20
335.34615384615387
 42
1
  0
SEQEND
  0
POLYLINE
  8
0
 10
0
 20
0
 39
0
 70
1
 66
1
  0
VERTEX
  8
0
 10
1070.8076923076924
 20
206.34615384615387
 42
-0
  0
VERTEX
  8
0
 10
1070.8076923076924
 20
416.34615384615387
 42
0
  0
VERTEX
  8
0
 10
1160.3368900005635
 20
328.49039517916168
 42
0.28014808893203735
  0
VERTEX
  8
0
 10
1160.3368900005635
 20
294.20191251314606
 42
-0
  0
SEQEND
  0
POLYLINE
  8
0
 10
0
 20
0
 39
0
 70
1
 66
1
  0
VERTEX
  8
0
 10
1112.0164668743428
 20
287.34615384615387
 42
1
  0
VERTEX
  8
0
 10
1112.0164668743428
 20
335.34615384615387
 42
1
  0
SEQEND
  0
POLYLINE
  8
0
 10
0
 20
0
 39
0
 70
1
 66
1
  0
VERTEX
  8
0
 10
1435.9615384615386
 20
576.84615384615392
 42
0
  0
VERTEX
  8
0
 10
1335.9615384615386
 20
576.84615384615392
 42
0
  0
VERTEX
  8
0
 10
1335.9615384615386
 20
626.84615384615392
 42
0
  0
VERTEX
  8
0
 10
1435.9615384615386
 20
626.84615384615392
 42
0
  0
SEQEND
  0
POLYLINE
  8
0
 10
0
 20
0
 39
0
 70
1
 66
1
  0
VERTEX
  8
0
 10
1416.7115384615386
 20
601.84615384615392
 42
1
  0
VERTEX
  8
0
 10
1395.2115384615386
 20
601.84615384615392
 42
1
  0
SEQEND
  0
POLYLINE
  8
0
 10
0
 20
0
 39
0
 70
1
 66
1
  0
VERTEX
  8
0
 10
52.309495192308532
 20
615.21439302884755
 42
-0.76732701063156128
  0
VERTEX
  8
0
 10
52.310471754808532
 20
562.08939302884755
 42
0
  0
VERTEX
  8
0
 10
10.192307692308532
 20
553.65384615384755
 42
0
  0
VERTEX
  8
0
 10
10.192307692308532
 20
623.65189302884755
 42
0
  0
SEQEND
  0
POLYLINE
  8
0
 10
0
 20
0
 39
0
 70
1
 66
1
  0
VERTEX
  8
0
 10
45.192307692308532
 20
573.65189302884755
 42
1
  0
VERTEX
  8
0
 10
45.192307692308532
 20
603.65189302884755
 42
1
  0
SEQEND
  0
POLYLINE
  8
0
 10
0
 20
0
 39
0
 70
1
 66
1
  0
VERTEX
  8
0
 10
358.88641826923049
 20
656.63746995192196
 42
-0.76732701063156128
  0
VERTEX
  8
0
 10
358.88739483173049
 20
603.51246995192196
 42
0
  0
VERTEX
  8
0
 10
316.76923076923049
 20
595.07692307692196
 42
0
  0
VERTEX
  8
0
 10
316.76923076923049
 20
665.07496995192196
 42
0
  0
SEQEND
  0
POLYLINE
  8
0
 10
0
 20
0
 39
0
 70
1
 66
1
  0
VERTEX
  8
0
 10
351.76923076923049
 20
615.07496995192196
 42
1
  0
VERTEX
  8
0
 10
351.76923076923049
 20
645.07496995192196
 42
1
  0
SEQEND
  0
POLYLINE
  8
0
 10
0
 20
0
 39
0
 70
1
 66
1
  0
VERTEX
  8
0
 10
558.57491969810326
 20
607.20673076922685
 42
-0.76732701063156128
  0
VERTEX
  8
0
 10
558.57394313560326
 20
660.33173076922685
 42
0
  0
VERTEX
  8
0
 10
600.69210719810326
 20
668.76727764422685
 42
0
  0
VERTEX
  8
0
 10
600.69210719810326
 20
598.76923076922685
 42
0
  0
SEQEND
  0
POLYLINE
  8
0
 10
0
 20
0
 39
0
 70
1
 66
1
  0
VERTEX
  8
0
 10
565.69210719810326
 20
648.76923076922685
 42
1
  0
VERTEX
  8
0
 10
565.69210719810326
 20
618.76923076922685
 42
1
  0
SEQEND
  0
POLYLINE
  8
0
 10
0
 20
0
 39
0
 70
1
 66
1
  0
VERTEX
  8
0
 10
825.69030431348801
 20
600.0528846153793
 42
-0.76732701063156128
  0
VERTEX
  8
0
 10
825.68932775098801
 20
653.1778846153793
 42
0
  0
VERTEX
  8
0
 10
867.80749181348801
 20
661.6134314903793
 42
0
  0
VERTEX
  8
0
 10
867.80749181348801
 20
591.6153846153793
 42
0
  0
SEQEND
  0
POLYLINE
  8
0
 10
0
 20
0
 39
0
 70
1
 66
1
  0
VERTEX
  8
0
 10
832.80749181348801
 20
641.6153846153793
 42
1
  0
VERTEX
  8
0
 10
832.80749181348801
 20
611.6153846153793
 42
1
  0
SEQEND
  0
POLYLINE
  8
0
 10
0
 20
0
 39
0
 70
1
 66
1
  0
VERTEX
  8
0
 10
1112.9248798076933
 20
615.21439302884755
 42
-0.76732701063156128
  0
VERTEX
  8
0
 10
1112.9258563701933
 20
562.08939302884755
 42
0
  0
VERTEX
  8
0
 10
1070.8076923076933
 20
553.65384615384755
 42
0
  0
VERTEX
  8
0
 10
1070.8076923076933
 20
623.65189302884755
 42
0
  0
SEQEND
  0
POLYLINE
  8
0
 10
0
 20
0
 39
0
 70
1
 66
1
  0
VERTEX
  8
0
 10
1105.8076923076933
 20
573.65189302884755
 42
1
  0
VERTEX
  8
0
 10
1105.8076923076933
 20
603.65189302884755
 42
1
  0
SEQEND
  0
POLYLINE
  8
0
 10
0
 20
0
 39
0
 70
1
 66
1
  0
VERTEX
  8
0
 10
1175.7067307692232
 20
672.38641826923049
 42
-0.76732701063156128
  0
VERTEX
  8
0
 10
1228.8317307692232
 20
672.38739483173049
 42
0
  0
VERTEX
  8
0
 10
1237.2672776442232
 20
630.26923076923049
 42
0
  0
VERTEX
  8
0
 10
1167.2692307692232
 20
630.26923076923049
 42
0
  0
SEQEND
  0
POLYLINE
  8
0
 10
0
 20
0
 39
0
 70
1
 66
1
  0
VERTEX
  8
0
 10
1217.2692307692232
 20
665.26923076923049
 42
1
  0
VERTEX
  8
0
 10
1187.2692307692232
 20
665.26923076923049
 42
1
  0
SEQEND
  0
POLYLINE
  8
0
 10
0
 20
0
 39
0
 70
1
 66
1
  0
VERTEX
  8
0
 10
16.248531294085787
 20
35.544462978301937
 42
-0.07530849426984787
  0
VERTEX
  8
0
 10
16.248530752668664
 20
42.433771967275192
 42
0.34488147497177124
  0
VERTEX
  8
0
 10
15.03645583664963
 20
44.581066955888303
 42
0
  0
VERTEX
  8
0
 10
10.809625340678913
 20
46.331877498343687
 42
-0.38417559862136841
  0
VERTEX
  8
0
 10
10.233798234885022
 20
47.540813341711527
 42
-0.051863282918930054
  0
VERTEX
  8
0
 10
12.609075126054186
 20
53.275238944317351
 42
-0.38417559862136841
  0
VERTEX
  8
0
 10
13.871092749812824
 20
53.722913531974058
 42
-0
  0
VERTEX
  8
0
 10
18.097923245783541
 20
51.972102989518675
 42
0.34488147497177124
  0
VERTEX
  8
0
 10
20.473356127630602
 20
52.633402539522052
 42
-0.075308471918106079
  0
VERTEX
  8
0
 10
25.344831901627636
 20
57.504879940860263
 42
0.34488147497177124
  0
VERTEX
  8
0
 10
26.006132857321639
 20
59.880313392130887
 42
0
  0
VERTEX
  8
0
 10
24.255323686647337
 20
64.107144222191465
 42
-0.38417559862136841
  0
VERTEX
  8
0
 10
24.702996868609496
 20
65.36916122836962
 42
-0.051863282918930054
  0
VERTEX
  8
0
 10
30.437424235948193
 20
67.744438782214417
 42
-0.38417559862136841
  0
VERTEX
  8
0
 10
31.646360247927255
 20
67.168611761853043
 42
-0
  0
VERTEX
  8
0
 10
33.397169418601557
 20
62.941780931792465
 42
0.34488147497177124
  0
VERTEX
  8
0
 10
35.544463287115498
 20
61.729704801282878
 42
-0.075308538973331451
  0
VERTEX
  8
0
 10
42.433774919329217
 20
61.729704247833936
 42
0.34488147497177124
  0
VERTEX
  8
0
 10
44.581067264701865
 20
62.941780258719035
 42
0
  0
VERTEX
  8
0
 10
46.331877807157248
 20
67.168610754689752
 42
-0.38417559862136841
  0
VERTEX
  8
0
 10
47.540813650525088
 20
67.744437860483643
 42
-0.051863282918930054
  0
VERTEX
  8
0
 10
53.275239253130913
 20
65.369160969314478
 42
-0.38417559862136841
  0
VERTEX
  8
0
 10
53.722913840787619
 20
64.107143345555841
 42
-0
  0
VERTEX
  8
0
 10
51.972103298332236
 20
59.880312849585124
 42
0.34488147497177124
  0
VERTEX
  8
0
 10
52.633402848335614
 20
57.504879967738063
 42
-0.075308538973331451
  0
VERTEX
  8
0
 10
57.504882163003579
 20
52.633401336714655
 42
0.34488147497177124
  0
VERTEX
  8
0
 10
59.880313700944448
 20
51.972103238047026
 42
0
  0
VERTEX
  8
0
 10
64.107144531005019
 20
53.722912408721328
 42
-0.38417559862136841
  0
VERTEX
  8
0
 10
65.369161537183174
 20
53.275239226759169
 42
-0.051863282918930054
  0
VERTEX
  8
0
 10
67.744439091027971
 20
47.540811859420472
 42
-0.38417559862136841
  0
VERTEX
  8
0
 10
67.168612070666597
 20
46.33187584744141
 42
-0
  0
VERTEX
  8
0
 10
62.941781240606026
 20
44.581066676767108
 42
0.34488147497177124
  0
VERTEX
  8
0
 10
61.72970511009644
 20
42.433772808253167
 42
-0.075308538973331451
  0
VERTEX
  8
0
 10
61.729704556647498
 20
35.544461176039448
 42
0.34488144516944885
  0
VERTEX
  8
0
 10
62.941780567532597
 20
33.3971688306668
 42
0
  0
VERTEX
  8
0
 10
67.168611063503306
 20
31.646358288211417
 42
-0.38417559862136841
  0
VERTEX
  8
0
 10
67.744438169297212
 20
30.437422444843577
 42
-0.051863282918930054
  0
VERTEX
  8
0
 10
65.369161278128047
 20
24.702996842237752
 42
-0.38417559862136841
  0
VERTEX
  8
0
 10
64.107143654369395
 20
24.255322254581046
 42
-0
  0
VERTEX
  8
0
 10
59.880313158398685
 20
26.006132797036429
 42
0.34488144516944885
  0
VERTEX
  8
0
 10
57.504880276551624
 20
25.344833247033051
 42
-0.075308538973331451
  0
VERTEX
  8
0
 10
52.633401645528217
 20
20.473353932365086
 42
0.34488144516944885
  0
VERTEX
  8
0
 10
51.972103546860588
 20
18.097922394424216
 42
0
  0
VERTEX
  8
0
 10
53.722912717534889
 20
13.871091564363638
 42
-0.38417559862136841
  0
VERTEX
  8
0
 10
53.27523953557273
 20
12.609074558185483
 42
-0.051863282918930054
  0
VERTEX
  8
0
 10
47.540812168234034
 20
10.233797004340687
 42
-0.38417559862136841
  0
VERTEX
  8
0
 10
46.331876156254971
 20
10.80962402470206
 42
-0
  0
VERTEX
  8
0
 10
44.581066985580669
 20
15.036454854762638
 42
0.34488147497177124
  0
VERTEX
  8
0
 10
42.433773117066728
 20
16.248530985272225
 42
-0.075308538973331451
  0
VERTEX
  8
0
 10
35.544461484853009
 20
16.248531538721167
 42
0.34488147497177124
  0
VERTEX
  8
0
 10
33.397169139480361
 20
15.036455527836068
 42
0
  0
VERTEX
  8
0
 10
31.646358597024978
 20
10.809625031865352
 42
-0.38417559862136841
  0
VERTEX
  8
0
 10
30.437422753657138
 20
10.23379792607146
 42
-0.051863271743059158
  0
VERTEX
  8
0
 10
24.702998472671545
 20
12.609074269807593
 42
-0.38417559862136841
  0
VERTEX
  8
0
 10
24.255322563394607
 20
13.871092440999263
 42
-0
  0
VERTEX
  8
0
 10
26.00613310584999
 20
18.097922936969979
 42
0.34488147497177124
  0
VERTEX
  8
0
 10
25.344833555846613
 20
20.473355818817041
 42
-0.075308501720428467
  0
VERTEX
  8
0
 10
20.473355122258802
 20
25.344834084885093
 42
0.34488147497177124
  0
VERTEX
  8
0
 10
18.097922703237778
 20
26.006132548508077
 42
0
  0
VERTEX
  8
0
 10
13.8710918731772
 20
24.255323377833776
 42
-0.38417559862136841
  0
VERTEX
  8
0
 10
12.609074866999045
 20
24.702996559795935
 42
-0.051863253116607666
  0
VERTEX
  8
0
 10
10.233798345403848
 20
30.437421435063612
 42
-0.38417559862136841
  0
VERTEX
  8
0
 10
10.809624333515622
 20
31.646359939113694
 42
-0
  0
VERTEX
  8
0
 10
15.0364551635762
 20
33.397169109787995
 42
0.34488147497177124
  0
SEQEND
  0
POLYLINE
  8
0
 10
0
 20
0
 39
0
 70
1
 66
1
  0
VERTEX
  8
0
 10
45.112053020358935
 20
53.771189960538294
 42
1
  0
VERTEX
  8
0
 10
32.866183383823291
 20
24.20704582601681
 42
1
  0
SEQEND
  0
POLYLINE
  8
0
 10
0
 20
0
 39
0
 70
1
 66
1
  0
VERTEX
  8
0
 10
281.40237744793194
 20
35.544462978301937
 42
-0.07530849426984787
  0
VERTEX
  8
0
 10
281.40237690651486
 20
42.433771967275192
 42
0.34488147497177124
  0
VERTEX
  8
0
 10
280.19030199049581
 20
44.581066955888303
 42
0
  0
VERTEX
  8
0
 10
275.96347149452509
 20
46.331877498343687
 42
-0.38417559862136841
  0
VERTEX
  8
0
 10
275.38764438873119
 20
47.540813341711527
 42
-0.051863282918930054
  0
VERTEX
  8
0
 10
277.76292127990035
 20
53.275238944317351
 42
-0.38417559862136841
  0
VERTEX
  8
0
 10
279.02493890365901
 20
53.722913531974058
 42
-0
  0
VERTEX
  8
0
 10
283.25176939962972
 20
51.972102989518675
 42
0.34488147497177124
  0
VERTEX
  8
0
 10
285.6272022814768
 20
52.633402539522052
 42
-0.075308471918106079
  0
VERTEX
  8
0
 10
290.49867805547382
 20
57.504879940860263
 42
0.34488147497177124
  0
VERTEX
  8
0
 10
291.15997901116782
 20
59.880313392130887
 42
0
  0
VERTEX
  8
0
 10
289.40916984049352
 20
64.107144222191465
 42
-0.38417559862136841
  0
VERTEX
  8
0
 10
289.85684302245568
 20
65.36916122836962
 42
-0.051863282918930054
  0
VERTEX
  8
0
 10
295.59127038979437
 20
67.744438782214417
 42
-0.38417559862136841
  0
VERTEX
  8
0
 10
296.80020640177344
 20
67.168611761853043
 42
-0
  0
VERTEX
  8
0
 10
298.55101557244774
 20
62.941780931792465
 42
0.34488147497177124
  0
VERTEX
  8
0
 10
300.69830944096168
 20
61.729704801282878
 42
-0.075308538973331451
  0
VERTEX
  8
0
 10
307.5876210731754
 20
61.729704247833936
 42
0.34488147497177124
  0
VERTEX
  8
0
 10
309.73491341854805
 20
62.941780258719035
 42
0
  0
VERTEX
  8
0
 10
311.48572396100343
 20
67.168610754689752
 42
-0.38417559862136841
  0
VERTEX
  8
0
 10
312.69465980437127
 20
67.744437860483643
 42
-0.051863282918930054
  0
VERTEX
  8
0
 10
318.42908540697709
 20
65.369160969314478
 42
-0.38417559862136841
  0
VERTEX
  8
0
 10
318.8767599946338
 20
64.107143345555841
 42
-0
  0
VERTEX
  8
0
 10
317.12594945217842
 20
59.880312849585124
 42
0.34488147497177124
  0
VERTEX
  8
0
 10
317.7872490021818
 20
57.504879967738063
 42
-0.075308538973331451
  0
VERTEX
  8
0
 10
322.65872831684976
 20
52.633401336714655
 42
0.34488147497177124
  0
VERTEX
  8
0
 10
325.03415985479063
 20
51.972103238047026
 42
0
  0
VERTEX
  8
0
 10
329.26099068485121
 20
53.722912408721328
 42
-0.38417559862136841
  0
VERTEX
  8
0
 10
330.52300769102936
 20
53.275239226759169
 42
-0.051863282918930054
  0
VERTEX
  8
0
 10
332.89828524487416
 20
47.540811859420472
 42
-0.38417559862136841
  0
VERTEX
  8
0
 10
332.32245822451279
 20
46.33187584744141
 42
-0
  0
VERTEX
  8
0
 10
328.09562739445221
 20
44.581066676767108
 42
0.34488147497177124
  0
VERTEX
  8
0
 10
326.88355126394265
 20
42.433772808253167
 42
-0.075308538973331451
  0
VERTEX
  8
0
 10
326.88355071049369
 20
35.544461176039448
 42
0.34488144516944885
  0
VERTEX
  8
0
 10
328.09562672137878
 20
33.3971688306668
 42
0
  0
VERTEX
  8
0
 10
332.32245721734949
 20
31.646358288211417
 42
-0.38417559862136841
  0
VERTEX
  8
0
 10
332.8982843231434
 20
30.437422444843577
 42
-0.051863282918930054
  0
VERTEX
  8
0
 10
330.52300743197424
 20
24.702996842237752
 42
-0.38417559862136841
  0
VERTEX
  8
0
 10
329.26098980821558
 20
24.255322254581046
 42
-0
  0
VERTEX
  8
0
 10
325.03415931224487
 20
26.006132797036429
 42
0.34488144516944885
  0
VERTEX
  8
0
 10
322.65872643039779
 20
25.344833247033051
 42
-0.075308538973331451
  0
VERTEX
  8
0
 10
317.78724779937443
 20
20.473353932365086
 42
0.34488144516944885
  0
VERTEX
  8
0
 10
317.12594970070677
 20
18.097922394424216
 42
0
  0
VERTEX
  8
0
 10
318.87675887138107
 20
13.871091564363638
 42
-0.38417559862136841
  0
VERTEX
  8
0
 10
318.42908568941891
 20
12.609074558185483
 42
-0.051863282918930054
  0
VERTEX
  8
0
 10
312.69465832208022
 20
10.233797004340687
 42
-0.38417559862136841
  0
VERTEX
  8
0
 10
311.48572231010115
 20
10.80962402470206
 42
-0
  0
VERTEX
  8
0
 10
309.73491313942685
 20
15.036454854762638
 42
0.34488147497177124
  0
VERTEX
  8
0
 10
307.58761927091291
 20
16.248530985272225
 42
-0.075308538973331451
  0
VERTEX
  8
0
 10
300.69830763869919
 20
16.248531538721167
 42
0.34488147497177124
  0
VERTEX
  8
0
 10
298.55101529332654
 20
15.036455527836068
 42
0
  0
VERTEX
  8
0
 10
296.80020475087116
 20
10.809625031865352
 42
-0.38417559862136841
  0
VERTEX
  8
0
 10
295.59126890750332
 20
10.23379792607146
 42
-0.051863271743059158
  0
VERTEX
  8
0
 10
289.85684462651773
 20
12.609074269807593
 42
-0.38417559862136841
  0
VERTEX
  8
0
 10
289.40916871724079
 20
13.871092440999263
 42
-0
  0
VERTEX
  8
0
 10
291.15997925969617
 20
18.097922936969979
 42
0.34488147497177124
  0
VERTEX
  8
0
 10
290.49867970969279
 20
20.473355818817041
 42
-0.075308501720428467
  0
VERTEX
  8
0
 10
285.62720127610498
 20
25.344834084885093
 42
0.34488147497177124
  0
VERTEX
  8
0
 10
283.25176885708396
 20
26.006132548508077
 42
0
  0
VERTEX
  8
0
 10
279.02493802702338
 20
24.255323377833776
 42
-0.38417559862136841
  0
VERTEX
  8
0
 10
277.76292102084523
 20
24.702996559795935
 42
-0.051863253116607666
  0
VERTEX
  8
0
 10
275.38764449925003
 20
30.437421435063612
 42
-0.38417559862136841
  0
VERTEX
  8
0
 10
275.9634704873618
 20
31.646359939113694
 42
-0
  0
VERTEX
  8
0
 10
280.19030131742238
 20
33.397169109787995
 42
0.34488147497177124
  0
SEQEND
  0
POLYLINE
  8
0
 10
0
 20
0
 39
0
 70
1
 66
1
  0
VERTEX
  8
0
 10
310.26589917420512
 20
53.771189960538294
 42
1
  0
VERTEX
  8
0
 10
298.02002953766947
 20
24.20704582601681
 42
1
  0
SEQEND
  0
POLYLINE
  8
0
 10
0
 20
0
 39
0
 70
1
 66
1
  0
VERTEX
  8
0
 10
546.55622360177813
 20
35.544462978301937
 42
-0.07530849426984787
  0
VERTEX
  8
0
 10
546.55622306036094
 20
42.433771967275192
 42
0.34488147497177124
  0
VERTEX
  8
0
 10
545.34414814434194
 20
44.581066955888303
 42
0
  0
VERTEX
  8
0
 10
541.11731764837123
 20
46.331877498343687
 42
-0.38417559862136841
  0
VERTEX
  8
0
 10
540.54149054257732
 20
47.540813341711527
 42
-0.051863282918930054
  0
VERTEX
  8
0
 10
542.91676743374649
 20
53.275238944317351
 42
-0.38417559862136841
  0
VERTEX
  8
0
 10
544.17878505750514
 20
53.722913531974058
 42
-0
  0
VERTEX
  8
0
 10
548.40561555347585
 20
51.972102989518675
 42
0.34488147497177124
  0
VERTEX
  8
0
 10
550.78104843532287
 20
52.633402539522052
 42
-0.075308471918106079
  0
VERTEX
  8
0
 10
555.65252420931995
 20
57.504879940860263
 42
0.34488147497177124
  0
VERTEX
  8
0
 10
556.3138251650139
 20
59.880313392130887
 42
0
  0
VERTEX
  8
0
 10
554.56301599433959
 20
64.107144222191465
 42
-0.38417559862136841
  0
VERTEX
  8
0
 10
555.01068917630187
 20
65.36916122836962
 42
-0.051863282918930054
  0
VERTEX
  8
0
 10
560.74511654364051
 20
67.744438782214417
 42
-0.38417559862136841
  0
VERTEX
  8
0
 10
561.95405255561957
 20
67.168611761853043
 42
-0
  0
VERTEX
  8
0
 10
563.70486172629387
 20
62.941780931792465
 42
0.34488147497177124
  0
VERTEX
  8
0
 10
565.85215559480775
 20
61.729704801282878
 42
-0.075308538973331451
  0
VERTEX
  8
0
 10
572.74146722702153
 20
61.729704247833936
 42
0.34488147497177124
  0
VERTEX
  8
0
 10
574.88875957239418
 20
62.941780258719035
 42
0
  0
VERTEX
  8
0
 10
576.63957011484956
 20
67.168610754689752
 42
-0.38417559862136841
  0
VERTEX
  8
0
 10
577.8485059582174
 20
67.744437860483643
 42
-0.051863282918930054
  0
VERTEX
  8
0
 10
583.58293156082323
 20
65.369160969314478
 42
-0.38417559862136841
  0
VERTEX
  8
0
 10
584.03060614847993
 20
64.107143345555841
 42
-0
  0
VERTEX
  8
0
 10
582.27979560602455
 20
59.880312849585124
 42
0.34488147497177124
  0
VERTEX
  8
0
 10
582.94109515602793
 20
57.504879967738063
 42
-0.075308538973331451
  0
VERTEX
  8
0
 10
587.81257447069584
 20
52.633401336714655
 42
0.34488147497177124
  0
VERTEX
  8
0
 10
590.18800600863676
 20
51.972103238047026
 42
0
  0
VERTEX
  8
0
 10
594.41483683869728
 20
53.722912408721328
 42
-0.38417559862136841
  0
VERTEX
  8
0
 10
595.6768538448755
 20
53.275239226759169
 42
-0.051863282918930054
  0
VERTEX
  8
0
 10
598.05213139872035
 20
47.540811859420472
 42
-0.38417559862136841
  0
VERTEX
  8
0
 10
597.47630437835892
 20
46.33187584744141
 42
-0
  0
VERTEX
  8
0
 10
593.24947354829828
 20
44.581066676767108
 42
0.34488147497177124
  0
VERTEX
  8
0
 10
592.03739741778872
 20
42.433772808253167
 42
-0.075308538973331451
  0
VERTEX
  8
0
 10
592.03739686433983
 20
35.544461176039448
 42
0.34488144516944885
  0
VERTEX
  8
0
 10
593.24947287522491
 20
33.3971688306668
 42
0
  0
VERTEX
  8
0
 10
597.47630337119563
 20
31.646358288211417
 42
-0.38417559862136841
  0
VERTEX
  8
0
 10
598.05213047698953
 20
30.437422444843577
 42
-0.051863282918930054
  0
VERTEX
  8
0
 10
595.67685358582037
 20
24.702996842237752
 42
-0.38417559862136841
  0
VERTEX
  8
0
 10
594.41483596206172
 20
24.255322254581046
 42
-0
  0
VERTEX
  8
0
 10
590.188005466091
 20
26.006132797036429
 42
0.34488144516944885
  0
VERTEX
  8
0
 10
587.81257258424398
 20
25.344833247033051
 42
-0.075308538973331451
  0
VERTEX
  8
0
 10
582.9410939532205
 20
20.473353932365086
 42
0.34488144516944885
  0
VERTEX
  8
0
 10
582.27979585455296
 20
18.097922394424216
 42
0
  0
VERTEX
  8
0
 10
584.03060502522726
 20
13.871091564363638
 42
-0.38417559862136841
  0
VERTEX
  8
0
 10
583.58293184326499
 20
12.609074558185483
 42
-0.051863282918930054
  0
VERTEX
  8
0
 10
577.84850447592635
 20
10.233797004340687
 42
-0.38417559862136841
  0
VERTEX
  8
0
 10
576.63956846394728
 20
10.80962402470206
 42
-0
  0
VERTEX
  8
0
 10
574.88875929327298
 20
15.036454854762638
 42
0.34488147497177124
  0
VERTEX
  8
0
 10
572.7414654247591
 20
16.248530985272225
 42
-0.075308538973331451
  0
VERTEX
  8
0
 10
565.85215379254532
 20
16.248531538721167
 42
0.34488147497177124
  0
VERTEX
  8
0
 10
563.70486144717268
 20
15.036455527836068
 42
0
  0
VERTEX
  8
0
 10
561.95405090471729
 20
10.809625031865352
 42
-0.38417559862136841
  0
VERTEX
  8
0
 10
560.74511506134945
 20
10.23379792607146
 42
-0.051863271743059158
  0
VERTEX
  8
0
 10
555.0106907803638
 20
12.609074269807593
 42
-0.38417559862136841
  0
VERTEX
  8
0
 10
554.56301487108692
 20
13.871092440999263
 42
-0
  0
VERTEX
  8
0
 10
556.3138254135423
 20
18.097922936969979
 42
0.34488147497177124
  0
VERTEX
  8
0
 10
555.65252586353893
 20
20.473355818817041
 42
-0.075308501720428467
  0
VERTEX
  8
0
 10
550.78104742995106
 20
25.344834084885093
 42
0.34488147497177124
  0
VERTEX
  8
0
 10
548.40561501093009
 20
26.006132548508077
 42
0
  0
VERTEX
  8
0
 10
544.17878418086957
 20
24.255323377833776
 42
-0.38417559862136841
  0
VERTEX
  8
0
 10
542.91676717469136
 20
24.702996559795935
 42
-0.051863253116607666
  0
VERTEX
  8
0
 10
540.54149065309616
 20
30.437421435063612
 42
-0.38417559862136841
  0
VERTEX
  8
0
 10
541.11731664120794
 20
31.646359939113694
 42
-0
  0
VERTEX
  8
0
 10
545.34414747126857
 20
33.397169109787995
 42
0.34488147497177124
  0
SEQEND
  0
POLYLINE
  8
0
 10
0
 20
0
 39
0
 70
1
 66
1
  0
VERTEX
  8
0
 10
575.41974532805125
 20
53.771189960538294
 42
1
  0
VERTEX
  8
0
 10
563.1738756915156
 20
24.20704582601681
 42
1
  0
SEQEND
  0
POLYLINE
  8
0
 10
0
 20
0
 39
0
 70
1
 66
1
  0
VERTEX
  8
0
 10
811.71006975562432
 20
35.544462978301937
 42
-0.07530849426984787
  0
VERTEX
  8
0
 10
811.71006921420712
 20
42.433771967275192
 42
0.34488147497177124
  0
VERTEX
  8
0
 10
810.49799429818813
 20
44.581066955888303
 42
0
  0
VERTEX
  8
0
 10
806.27116380221742
 20
46.331877498343687
 42
-0.38417559862136841
  0
VERTEX
  8
0
 10
805.69533669642351
 20
47.540813341711527
 42
-0.051863282918930054
  0
VERTEX
  8
0
 10
808.07061358759267
 20
53.275238944317351
 42
-0.38417559862136841
  0
VERTEX
  8
0
 10
809.33263121135133
 20
53.722913531974058
 42
-0
  0
VERTEX
  8
0
 10
813.55946170732204
 20
51.972102989518675
 42
0.34488147497177124
  0
VERTEX
  8
0
 10
815.93489458916906
 20
52.633402539522052
 42
-0.075308471918106079
  0
VERTEX
  8
0
 10
820.80637036316614
 20
57.504879940860263
 42
0.34488147497177124
  0
VERTEX
  8
0
 10
821.46767131886008
 20
59.880313392130887
 42
0
  0
VERTEX
  8
0
 10
819.71686214818578
 20
64.107144222191465
 42
-0.38417559862136841
  0
VERTEX
  8
0
 10
820.16453533014806
 20
65.36916122836962
 42
-0.051863282918930054
  0
VERTEX
  8
0
 10
825.8989626974867
 20
67.744438782214417
 42
-0.38417559862136841
  0
VERTEX
  8
0
 10
827.10789870946576
 20
67.168611761853043
 42
-0
  0
VERTEX
  8
0
 10
828.85870788014006
 20
62.941780931792465
 42
0.34488147497177124
  0
VERTEX
  8
0
 10
831.00600174865394
 20
61.729704801282878
 42
-0.075308538973331451
  0
VERTEX
  8
0
 10
837.89531338086772
 20
61.729704247833936
 42
0.34488147497177124
  0
VERTEX
  8
0
 10
840.04260572624037
 20
62.941780258719035
 42
0
  0
VERTEX
  8
0
 10
841.79341626869575
 20
67.168610754689752
 42
-0.38417559862136841
  0
VERTEX
  8
0
 10
843.00235211206359
 20
67.744437860483643
 42
-0.051863282918930054
  0
VERTEX
  8
0
 10
848.73677771466942
 20
65.369160969314478
 42
-0.38417559862136841
  0
VERTEX
  8
0
 10
849.18445230232612
 20
64.107143345555841
 42
-0
  0
VERTEX
  8
0
 10
847.43364175987074
 20
59.880312849585124
 42
0.34488147497177124
  0
VERTEX
  8
0
 10
848.09494130987412
 20
57.504879967738063
 42
-0.075308538973331451
  0
VERTEX
  8
0
 10
852.96642062454202
 20
52.633401336714655
 42
0.34488147497177124
  0
VERTEX
  8
0
 10
855.34185216248295
 20
51.972103238047026
 42
0
  0
VERTEX
  8
0
 10
859.56868299254347
 20
53.722912408721328
 42
-0.38417559862136841
  0
VERTEX
  8
0
 10
860.83069999872168
 20
53.275239226759169
 42
-0.051863282918930054
  0
VERTEX
  8
0
 10
863.20597755256654
 20
47.540811859420472
 42
-0.38417559862136841
  0
VERTEX
  8
0
 10
862.63015053220511
 20
46.33187584744141
 42
-0
  0
VERTEX
  8
0
 10
858.40331970214447
 20
44.581066676767108
 42
0.34488147497177124
  0
VERTEX
  8
0
 10
857.19124357163491
 20
42.433772808253167
 42
-0.075308538973331451
  0
VERTEX
  8
0
 10
857.19124301818601
 20
35.544461176039448
 42
0.34488144516944885
  0
VERTEX
  8
0
 10
858.4033190290711
 20
33.3971688306668
 42
0
  0
VERTEX
  8
0
 10
862.63014952504182
 20
31.646358288211417
 42
-0.38417559862136841
  0
VERTEX
  8
0
 10
863.20597663083572
 20
30.437422444843577
 42
-0.051863282918930054
  0
VERTEX
  8
0
 10
860.83069973966656
 20
24.702996842237752
 42
-0.38417559862136841
  0
VERTEX
  8
0
 10
859.5686821159079
 20
24.255322254581046
 42
-0
  0
VERTEX
  8
0
 10
855.34185161993719
 20
26.006132797036429
 42
0.34488144516944885
  0
VERTEX
  8
0
 10
852.96641873809017
 20
25.344833247033051
 42
-0.075308538973331451
  0
VERTEX
  8
0
 10
848.09494010706669
 20
20.473353932365086
 42
0.34488144516944885
  0
VERTEX
  8
0
 10
847.43364200839915
 20
18.097922394424216
 42
0
  0
VERTEX
  8
0
 10
849.18445117907345
 20
13.871091564363638
 42
-0.38417559862136841
  0
VERTEX
  8
0
 10
848.73677799711118
 20
12.609074558185483
 42
-0.051863282918930054
  0
VERTEX
  8
0
 10
843.00235062977254
 20
10.233797004340687
 42
-0.38417559862136841
  0
VERTEX
  8
0
 10
841.79341461779347
 20
10.80962402470206
 42
-0
  0
VERTEX
  8
0
 10
840.04260544711917
 20
15.036454854762638
 42
0.34488147497177124
  0
VERTEX
  8
0
 10
837.89531157860529
 20
16.248530985272225
 42
-0.075308538973331451
  0
VERTEX
  8
0
 10
831.00599994639151
 20
16.248531538721167
 42
0.34488147497177124
  0
VERTEX
  8
0
 10
828.85870760101886
 20
15.036455527836068
 42
0
  0
VERTEX
  8
0
 10
827.10789705856348
 20
10.809625031865352
 42
-0.38417559862136841
  0
VERTEX
  8
0
 10
825.89896121519564
 20
10.23379792607146
 42
-0.051863271743059158
  0
VERTEX
  8
0
 10
820.16453693420999
 20
12.609074269807593
 42
-0.38417559862136841
  0
VERTEX
  8
0
 10
819.71686102493311
 20
13.871092440999263
 42
-0
  0
VERTEX
  8
0
 10
821.46767156738849
 20
18.097922936969979
 42
0.34488147497177124
  0
VERTEX
  8
0
 10
820.80637201738512
 20
20.473355818817041
 42
-0.075308501720428467
  0
VERTEX
  8
0
 10
815.93489358379725
 20
25.344834084885093
 42
0.34488147497177124
  0
VERTEX
  8
0
 10
813.55946116477628
 20
26.006132548508077
 42
0
  0
VERTEX
  8
0
 10
809.33263033471576
 20
24.255323377833776
 42
-0.38417559862136841
  0
VERTEX
  8
0
 10
808.07061332853755
 20
24.702996559795935
 42
-0.051863253116607666
  0
VERTEX
  8
0
 10
805.69533680694235
 20
30.437421435063612
 42
-0.38417559862136841
  0
VERTEX
  8
0
 10
806.27116279505412
 20
31.646359939113694
 42
-0
  0
VERTEX
  8
0
 10
810.49799362511476
 20
33.397169109787995
 42
0.34488147497177124
  0
SEQEND
  0
POLYLINE
  8
0
 10
0
 20
0
 39
0
 70
1
 66
1
  0
VERTEX
  8
0
 10
840.57359148189744
 20
53.771189960538294
 42
1
  0
VERTEX
  8
0
 10
828.32772184536179
 20
24.20704582601681
 42
1
  0
SEQEND
  0
POLYLINE
  8
0
 10
0
 20
0
 39
0
 70
1
 66
1
  0
VERTEX
  8
0
 10
884.05622360177824
 20
652.50600143984047
 42
-0.07530849426984787
  0
VERTEX
  8
0
 10
884.05622306036105
 20
659.39531042881367
 42
0.34488147497177124
  0
VERTEX
  8
0
 10
882.84414814434206
 20
661.54260541742678
 42
0
  0
VERTEX
  8
0
 10
878.61731764837134
 20
663.29341595988217
 42
-0.38417559862136841
  0
VERTEX
  8
0
 10
878.04149054257744
 20
664.50235180325001
 42
-0.051863282918930054
  0
VERTEX
  8
0
 10
880.4167674337466
 20
670.23677740585583
 42
-0.38417559862136841
  0
VERTEX
  8
0
 10
881.67878505750525
 20
670.68445199351254
 42
-0
  0
VERTEX
  8
0
 10
885.90561555347597
 20
668.93364145105716
 42
0.34488147497177124
  0
VERTEX
  8
0
 10
888.28104843532299
 20
669.59494100106053
 42
-0.075308471918106079
  0
VERTEX
  8
0
 10
893.15252420932006
 20
674.46641840239874
 42
0.34488147497177124
  0
VERTEX
  8
0
 10
893.81382516501412
 20
676.84185185366937
 42
0
  0
VERTEX
  8
0
 10
892.06301599433982
 20
681.06868268373
 42
-0.38417559862136841
  0
VERTEX
  8
0
 10
892.51068917630187
 20
682.3306996899081
 42
-0.051863282918930054
  0
VERTEX
  8
0
 10
898.24511654364062
 20
684.70597724375284
 42
-0.38417559862136841
  0
VERTEX
  8
0
 10
899.45405255561968
 20
684.13015022339152
 42
-0
  0
VERTEX
  8
0
 10
901.20486172629398
 20
679.903319393331
 42
0.34488147497177124
  0
VERTEX
  8
0
 10
903.35215559480798
 20
678.69124326282133
 42
-0.075308538973331451
  0
VERTEX
  8
0
 10
910.24146722702164
 20
678.69124270937243
 42
0.34488147497177124
  0
VERTEX
  8
0
 10
912.38875957239429
 20
679.90331872025752
 42
0
  0
VERTEX
  8
0
 10
914.13957011484968
 20
684.13014921622823
 42
-0.38417559862136841
  0
VERTEX
  8
0
 10
915.34850595821752
 20
684.70597632202214
 42
-0.051863282918930054
  0
VERTEX
  8
0
 10
921.08293156082334
 20
682.33069943085297
 42
-0.38417559862136841
  0
VERTEX
  8
0
 10
921.53060614848005
 20
681.06868180709432
 42
-0
  0
VERTEX
  8
0
 10
919.77979560602466
 20
676.84185131112361
 42
0.34488147497177124
  0
VERTEX
  8
0
 10
920.44109515602804
 20
674.46641842927659
 42
-0.075308538973331451
  0
VERTEX
  8
0
 10
925.31257447069606
 20
669.59493979825311
 42
0.34488147497177124
  0
VERTEX
  8
0
 10
927.68800600863688
 20
668.93364169958545
 42
0
  0
VERTEX
  8
0
 10
931.91483683869751
 20
670.68445087025975
 42
-0.38417559862136841
  0
VERTEX
  8
0
 10
933.17685384487561
 20
670.23677768829771
 42
-0.051863282918930054
  0
VERTEX
  8
0
 10
935.55213139872035
 20
664.50235032095895
 42
-0.38417559862136841
  0
VERTEX
  8
0
 10
934.97630437835903
 20
663.29341430897989
 42
-0
  0
VERTEX
  8
0
 10
930.74947354829851
 20
661.54260513830559
 42
0.34488147497177124
  0
VERTEX
  8
0
 10
929.53739741778884
 20
659.39531126979159
 42
-0.075308538973331451
  0
VERTEX
  8
0
 10
929.53739686433994
 20
652.50599963757793
 42
0.34488144516944885
  0
VERTEX
  8
0
 10
930.74947287522502
 20
650.35870729220528
 42
0
  0
VERTEX
  8
0
 10
934.97630337119574
 20
648.6078967497499
 42
-0.38417559862136841
  0
VERTEX
  8
0
 10
935.55213047698965
 20
647.39896090638206
 42
-0.051863282918930054
  0
VERTEX
  8
0
 10
933.17685358582048
 20
641.66453530377623
 42
-0.38417559862136841
  0
VERTEX
  8
0
 10
931.91483596206183
 20
641.21686071611953
 42
-0
  0
VERTEX
  8
0
 10
927.68800546609111
 20
642.96767125857491
 42
0.34488144516944885
  0
VERTEX
  8
0
 10
925.31257258424409
 20
642.30637170857153
 42
-0.075308538973331451
  0
VERTEX
  8
0
 10
920.44109395322062
 20
637.43489239390351
 42
0.34488144516944885
  0
VERTEX
  8
0
 10
919.77979585455296
 20
635.0594608559627
 42
0
  0
VERTEX
  8
0
 10
921.53060502522726
 20
630.83263002590206
 42
-0.38417559862136841
  0
VERTEX
  8
0
 10
921.08293184326521
 20
629.57061301972396
 42
-0.051863282918930054
  0
VERTEX
  8
0
 10
915.34850447592646
 20
627.19533546587923
 42
-0.38417559862136841
  0
VERTEX
  8
0
 10
914.1395684639474
 20
627.77116248624054
 42
-0
  0
VERTEX
  8
0
 10
912.3887592932731
 20
631.99799331630106
 42
0.34488147497177124
  0
VERTEX
  8
0
 10
910.2414654247591
 20
633.21006944681073
 42
-0.075308538973331451
  0
VERTEX
  8
0
 10
903.35215379254544
 20
633.21007000025963
 42
0.34488147497177124
  0
VERTEX
  8
0
 10
901.20486144717279
 20
631.99799398937455
 42
0
  0
VERTEX
  8
0
 10
899.45405090471741
 20
627.77116349340383
 42
-0.38417559862136841
  0
VERTEX
  8
0
 10
898.24511506134957
 20
627.19533638760993
 42
-0.051863271743059158
  0
VERTEX
  8
0
 10
892.51069078036403
 20
629.57061273134605
 42
-0.38417559862136841
  0
VERTEX
  8
0
 10
892.06301487108703
 20
630.83263090253774
 42
-0
  0
VERTEX
  8
0
 10
893.81382541354242
 20
635.05946139850846
 42
0.34488147497177124
  0
VERTEX
  8
0
 10
893.15252586353904
 20
637.43489428035548
 42
-0.075308501720428467
  0
VERTEX
  8
0
 10
888.28104742995129
 20
642.30637254642352
 42
0.34488147497177124
  0
VERTEX
  8
0
 10
885.90561501093021
 20
642.96767101004662
 42
0
  0
VERTEX
  8
0
 10
881.67878418086957
 20
641.21686183937231
 42
-0.38417559862136841
  0
VERTEX
  8
0
 10
880.41676717469147
 20
641.66453502133436
 42
-0.051863253116607666
  0
VERTEX
  8
0
 10
878.04149065309628
 20
647.39895989660204
 42
-0.38417559862136841
  0
VERTEX
  8
0
 10
878.61731664120805
 20
648.60789840065218
 42
-0
  0
VERTEX
  8
0
 10
882.84414747126857
 20
650.35870757132648
 42
0.34488147497177124
  0
SEQEND
  0
POLYLINE
  8
0
 10
0
 20
0
 39
0
 70
1
 66
1
  0
VERTEX
  8
0
 10
912.91974532805136
 20
670.73272842207678
 42
1
  0
VERTEX
  8
0
 10
900.67387569151572
 20
641.16858428755529
 42
1
  0
SEQEND
  0
POLYLINE
  8
0
 10
0
 20
0
 39
0
 70
1
 66
1
  0
VERTEX
  8
0
 10
1076.8639159094705
 20
35.544462978301937
 42
-0.07530849426984787
  0
VERTEX
  8
0
 10
1076.8639153680533
 20
42.433771967275192
 42
0.34488147497177124
  0
VERTEX
  8
0
 10
1075.6518404520343
 20
44.581066955888303
 42
0
  0
VERTEX
  8
0
 10
1071.4250099560636
 20
46.331877498343687
 42
-0.38417559862136841
  0
VERTEX
  8
0
 10
1070.8491828502697
 20
47.540813341711527
 42
-0.051863282918930054
  0
VERTEX
  8
0
 10
1073.224459741439
 20
53.275238944317351
 42
-0.38417559862136841
  0
VERTEX
  8
0
 10
1074.4864773651975
 20
53.722913531974058
 42
-0
  0
VERTEX
  8
0
 10
1078.7133078611682
 20
51.972102989518675
 42
0.34488147497177124
  0
VERTEX
  8
0
 10
1081.0887407430153
 20
52.633402539522052
 42
-0.075308471918106079
  0
VERTEX
  8
0
 10
1085.9602165170122
 20
57.504879940860263
 42
0.34488147497177124
  0
VERTEX
  8
0
 10
1086.6215174727063
 20
59.880313392130887
 42
0
  0
VERTEX
  8
0
 10
1084.870708302032
 20
64.107144222191465
 42
-0.38417559862136841
  0
VERTEX
  8
0
 10
1085.3183814839942
 20
65.36916122836962
 42
-0.051863282918930054
  0
VERTEX
  8
0
 10
1091.0528088513329
 20
67.744438782214417
 42
-0.38417559862136841
  0
VERTEX
  8
0
 10
1092.2617448633118
 20
67.168611761853043
 42
-0
  0
VERTEX
  8
0
 10
1094.0125540339864
 20
62.941780931792465
 42
0.34488147497177124
  0
VERTEX
  8
0
 10
1096.1598479025001
 20
61.729704801282878
 42
-0.075308538973331451
  0
VERTEX
  8
0
 10
1103.0491595347139
 20
61.729704247833936
 42
0.34488147497177124
  0
VERTEX
  8
0
 10
1105.1964518800864
 20
62.941780258719035
 42
0
  0
VERTEX
  8
0
 10
1106.9472624225418
 20
67.168610754689752
 42
-0.38417559862136841
  0
VERTEX
  8
0
 10
1108.1561982659098
 20
67.744437860483643
 42
-0.051863282918930054
  0
VERTEX
  8
0
 10
1113.8906238685156
 20
65.369160969314478
 42
-0.38417559862136841
  0
VERTEX
  8
0
 10
1114.3382984561722
 20
64.107143345555841
 42
-0
  0
VERTEX
  8
0
 10
1112.5874879137168
 20
59.880312849585124
 42
0.34488147497177124
  0
VERTEX
  8
0
 10
1113.2487874637204
 20
57.504879967738063
 42
-0.075308538973331451
  0
VERTEX
  8
0
 10
1118.1202667783882
 20
52.633401336714655
 42
0.34488147497177124
  0
VERTEX
  8
0
 10
1120.4956983163293
 20
51.972103238047026
 42
0
  0
VERTEX
  8
0
 10
1124.7225291463897
 20
53.722912408721328
 42
-0.38417559862136841
  0
VERTEX
  8
0
 10
1125.9845461525679
 20
53.275239226759169
 42
-0.051863282918930054
  0
VERTEX
  8
0
 10
1128.3598237064127
 20
47.540811859420472
 42
-0.38417559862136841
  0
VERTEX
  8
0
 10
1127.7839966860513
 20
46.33187584744141
 42
-0
  0
VERTEX
  8
0
 10
1123.5571658559907
 20
44.581066676767108
 42
0.34488147497177124
  0
VERTEX
  8
0
 10
1122.3450897254811
 20
42.433772808253167
 42
-0.075308538973331451
  0
VERTEX
  8
0
 10
1122.3450891720322
 20
35.544461176039448
 42
0.34488144516944885
  0
VERTEX
  8
0
 10
1123.5571651829173
 20
33.3971688306668
 42
0
  0
VERTEX
  8
0
 10
1127.783995678888
 20
31.646358288211417
 42
-0.38417559862136841
  0
VERTEX
  8
0
 10
1128.3598227846819
 20
30.437422444843577
 42
-0.051863282918930054
  0
VERTEX
  8
0
 10
1125.9845458935126
 20
24.702996842237752
 42
-0.38417559862136841
  0
VERTEX
  8
0
 10
1124.7225282697541
 20
24.255322254581046
 42
-0
  0
VERTEX
  8
0
 10
1120.4956977737834
 20
26.006132797036429
 42
0.34488144516944885
  0
VERTEX
  8
0
 10
1118.1202648919364
 20
25.344833247033051
 42
-0.075308538973331451
  0
VERTEX
  8
0
 10
1113.248786260913
 20
20.473353932365086
 42
0.34488144516944885
  0
VERTEX
  8
0
 10
1112.5874881622453
 20
18.097922394424216
 42
0
  0
VERTEX
  8
0
 10
1114.3382973329196
 20
13.871091564363638
 42
-0.38417559862136841
  0
VERTEX
  8
0
 10
1113.8906241509574
 20
12.609074558185483
 42
-0.051863282918930054
  0
VERTEX
  8
0
 10
1108.1561967836187
 20
10.233797004340687
 42
-0.38417559862136841
  0
VERTEX
  8
0
 10
1106.9472607716398
 20
10.80962402470206
 42
-0
  0
VERTEX
  8
0
 10
1105.1964516009652
 20
15.036454854762638
 42
0.34488147497177124
  0
VERTEX
  8
0
 10
1103.0491577324515
 20
16.248530985272225
 42
-0.075308538973331451
  0
VERTEX
  8
0
 10
1096.1598461002377
 20
16.248531538721167
 42
0.34488147497177124
  0
VERTEX
  8
0
 10
1094.0125537548652
 20
15.036455527836068
 42
0
  0
VERTEX
  8
0
 10
1092.2617432124098
 20
10.809625031865352
 42
-0.38417559862136841
  0
VERTEX
  8
0
 10
1091.0528073690418
 20
10.23379792607146
 42
-0.051863271743059158
  0
VERTEX
  8
0
 10
1085.3183830880562
 20
12.609074269807593
 42
-0.38417559862136841
  0
VERTEX
  8
0
 10
1084.8707071787794
 20
13.871092440999263
 42
-0
  0
VERTEX
  8
0
 10
1086.6215177212348
 20
18.097922936969979
 42
0.34488147497177124
  0
VERTEX
  8
0
 10
1085.9602181712312
 20
20.473355818817041
 42
-0.075308501720428467
  0
VERTEX
  8
0
 10
1081.0887397376434
 20
25.344834084885093
 42
0.34488147497177124
  0
VERTEX
  8
0
 10
1078.7133073186224
 20
26.006132548508077
 42
0
  0
VERTEX
  8
0
 10
1074.4864764885619
 20
24.255323377833776
 42
-0.38417559862136841
  0
VERTEX
  8
0
 10
1073.2244594823837
 20
24.702996559795935
 42
-0.051863253116607666
  0
VERTEX
  8
0
 10
1070.8491829607885
 20
30.437421435063612
 42
-0.38417559862136841
  0
VERTEX
  8
0
 10
1071.4250089489003
 20
31.646359939113694
 42
-0
  0
VERTEX
  8
0
 10
1075.6518397789609
 20
33.397169109787995
 42
0.34488147497177124
  0
SEQEND
  0
POLYLINE
  8
0
 10
0
 20
0
 39
0
 70
1
 66
1
  0
VERTEX
  8
0
 10
1105.7274376357436
 20
53.771189960538294
 42
1
  0
VERTEX
  8
0
 10
1093.481567999208
 20
24.20704582601681
 42
1
  0
SEQEND
  0
POLYLINE
  8
0
 10
0
 20
0
 39
0
 70
1
 66
1
  0
VERTEX
  8
0
 10
1446.1538461538462
 20
570.30769230769238
 42
-0
  0
VERTEX
  8
0
 10
1446.1538461538462
 20
630.30769230769238
 42
-0
  0
VERTEX
  8
0
 10
1486.1538461538462
 20
630.30769230769238
 42
-0
  0
VERTEX
  8
0
 10
1486.1538461538462
 20
570.30769230769238
 42
-1
  0
SEQEND
  0
POLYLINE
  8
0
 10
0
 20
0
 39
0
 70
1
 66
1
  0
VERTEX
  8
0
 10
1458.1538461538462
 20
570.30769230769238
 42
1
  0
VERTEX
  8
0
 10
1474.1538461538462
 20
570.30769230769238
 42
1
  0
SEQEND
  0
POLYLINE
  8
0
 10
0
 20
0
 39
0
 70
1
 66
1
  0
VERTEX
  8
0
 10
111.42307692307693
 20
177.84615479934246
 42
-0
  0
VERTEX
  8
0
 10
111.42307692307693
 20
141.84615479934246
 42
-0
  0
VERTEX
  8
0
 10
109.74089914101822
 20
141.84615384615387
 42
0.34921517968177795
  0
VERTEX
  8
0
 10
81.105255420391387
 20
141.84615479934246
 42
-0
  0
VERTEX
  8
0
 10
79.423076923076934
 20
141.84615479934246
 42
-0
  0
VERTEX
  8
0
 10
79.423076923076934
 20
177.84615479934246
 42
-0
  0
VERTEX
  8
0
 10
84.423076923076934
 20
182.84615479934246
 42
-0
  0
VERTEX
  8
0
 10
106.42307692307693
 20
182.84615479934246
 42
-0
  0
SEQEND
  0
POLYLINE
  8
0
 10
0
 20
0
 39
0
 70
1
 66
1
  0
VERTEX
  8
0
 10
104.5230768277095
 20
165.84615479934246
 42
1
  0
VERTEX
  8
0
 10
86.323076541607207
 20
165.84615479934246
 42
1
  0
SEQEND
  0
POLYLINE
  8
0
 10
0
 20
0
 39
0
 70
1
 66
1
  0
VERTEX
  8
0
 10
111.42307692307693
 20
487.884616337804
 42
-0
  0
VERTEX
  8
0
 10
111.42307692307693
 20
451.884616337804
 42
-0
  0
VERTEX
  8
0
 10
109.74089914101822
 20
451.88461538461542
 42
0.34921517968177795
  0
VERTEX
  8
0
 10
81.105255420391387
 20
451.884616337804
 42
-0
  0
VERTEX
  8
0
 10
79.423076923076934
 20
451.884616337804
 42
-0
  0
VERTEX
  8
0
 10
79.423076923076934
 20
487.884616337804
 42
-0
  0
VERTEX
  8
0
 10
84.423076923076934
 20
492.884616337804
 42
-0
  0
VERTEX
  8
0
 10
106.42307692307693
 20
492.884616337804
 42
-0
  0
SEQEND
  0
POLYLINE
  8
0
 10
0
 20
0
 39
0
 70
1
 66
1
  0
VERTEX
  8
0
 10
104.5230768277095
 20
475.884616337804
 42
1
  0
VERTEX
  8
0
 10
86.323076541607207
 20
475.884616337804
 42
1
  0
SEQEND
  0
POLYLINE
  8
0
 10
0
 20
0
 39
0
 70
1
 66
1
  0
VERTEX
  8
0
 10
307.34615384615387
 20
582.73077018395793
 42
-0
  0
VERTEX
  8
0
 10
307.34615384615387
 20
546.73077018395793
 42
-0
  0
VERTEX
  8
0
 10
305.66397606409515
 20
546.73076923076928
 42
0.34921517968177795
  0
VERTEX
  8
0
 10
277.02833234346832
 20
546.73077018395793
 42
-0
  0
VERTEX
  8
0
 10
275.34615384615387
 20
546.73077018395793
 42
-0
  0
VERTEX
  8
0
 10
275.34615384615387
 20
582.73077018395793
 42
-0
  0
VERTEX
  8
0
 10
280.34615384615387
 20
587.73077018395793
 42
-0
  0
VERTEX
  8
0
 10
302.34615384615387
 20
587.73077018395793
 42
-0
  0
SEQEND
  0
POLYLINE
  8
0
 10
0
 20
0
 39
0
 70
1
 66
1
  0
VERTEX
  8
0
 10
300.44615375078644
 20
570.73077018395793
 42
1
  0
VERTEX
  8
0
 10
282.24615346468414
 20
570.73077018395793
 42
1
  0
SEQEND
  0
POLYLINE
  8
0
 10
0
 20
0
 39
0
 70
1
 66
1
  0
VERTEX
  8
0
 10
376.57692307692309
 20
177.84615479934246
 42
-0
  0
VERTEX
  8
0
 10
376.57692307692309
 20
141.84615479934246
 42
-0
  0
VERTEX
  8
0
 10
374.89474529486438
 20
141.84615384615387
 42
0.34921517968177795
  0
VERTEX
  8
0
 10
346.25910157423755
 20
141.84615479934246
 42
-0
  0
VERTEX
  8
0
 10
344.57692307692309
 20
141.84615479934246
 42
-0
  0
VERTEX
  8
0
 10
344.57692307692309
 20
177.84615479934246
 42
-0
  0
VERTEX
  8
0
 10
349.57692307692309
 20
182.84615479934246
 42
-0
  0
VERTEX
  8
0
 10
371.57692307692309
 20
182.84615479934246
 42
-0
  0
SEQEND
  0
POLYLINE
  8
0
 10
0
 20
0
 39
0
 70
1
 66
1
  0
VERTEX
  8
0
 10
369.67692298155566
 20
165.84615479934246
 42
1
  0
VERTEX
  8
0
 10
351.47692269545337
 20
165.84615479934246
 42
1
  0
SEQEND
  0
POLYLINE
  8
0
 10
0
 20
0
 39
0
 70
1
 66
1
  0
VERTEX
  8
0
 10
376.57692307692309
 20
487.884616337804
 42
-0
  0
VERTEX
  8
0
 10
376.57692307692309
 20
451.884616337804
 42
-0
  0
VERTEX
  8
0
 10
374.89474529486438
 20
451.88461538461542
 42
0.34921517968177795
  0
VERTEX
  8
0
 10
346.25910157423755
 20
451.884616337804
 42
-0
  0
VERTEX
  8
0
 10
344.57692307692309
 20
451.884616337804
 42
-0
  0
VERTEX
  8
0
 10
344.57692307692309
 20
487.884616337804
 42
-0
  0
VERTEX
  8
0
 10
349.57692307692309
 20
492.884616337804
 42
-0
  0
VERTEX
  8
0
 10
371.57692307692309
 20
492.884616337804
 42
-0
  0
SEQEND
  0
POLYLINE
  8
0
 10
0
 20
0
 39
0
 70
1
 66
1
  0
VERTEX
  8
0
 10
369.67692298155566
 20
475.884616337804
 42
1
  0
VERTEX
  8
0
 10
351.47692269545337
 20
475.884616337804
 42
1
  0
SEQEND
  0
POLYLINE
  8
0
 10
0
 20
0
 39
0
 70
1
 66
1
  0
VERTEX
  8
0
 10
572.5
 20
582.73077018395793
 42
-0
  0
VERTEX
  8
0
 10
572.5
 20
546.73077018395793
 42
-0
  0
VERTEX
  8
0
 10
570.81782221794128
 20
546.73076923076928
 42
0.34921517968177795
  0
VERTEX
  8
0
 10
542.18217849731445
 20
546.73077018395793
 42
-0
  0
VERTEX
  8
0
 10
540.5
 20
546.73077018395793
 42
-0
  0
VERTEX
  8
0
 10
540.5
 20
582.73077018395793
 42
-0
  0
VERTEX
  8
0
 10
545.5
 20
587.73077018395793
 42
-0
  0
VERTEX
  8
0
 10
567.5
 20
587.73077018395793
 42
-0
  0
SEQEND
  0
POLYLINE
  8
0
 10
0
 20
0
 39
0
 70
1
 66
1
  0
VERTEX
  8
0
 10
565.59999990463257
 20
570.73077018395793
 42
1
  0
VERTEX
  8
0
 10
547.39999961853027
 20
570.73077018395793
 42
1
  0
SEQEND
  0
POLYLINE
  8
0
 10
0
 20
0
 39
0
 70
1
 66
1
  0
VERTEX
  8
0
 10
641.73076923076928
 20
177.84615479934246
 42
-0
  0
VERTEX
  8
0
 10
641.73076923076928
 20
141.84615479934246
 42
-0
  0
VERTEX
  8
0
 10
640.04859144871057
 20
141.84615384615387
 42
0.34921517968177795
  0
VERTEX
  8
0
 10
611.41294772808374
 20
141.84615479934246
 42
-0
  0
VERTEX
  8
0
 10
609.73076923076928
 20
141.84615479934246
 42
-0
  0
VERTEX
  8
0
 10
609.73076923076928
 20
177.84615479934246
 42
-0
  0
VERTEX
  8
0
 10
614.73076923076928
 20
182.84615479934246
 42
-0
  0
VERTEX
  8
0
 10
636.73076923076928
 20
182.84615479934246
 42
-0
  0
SEQEND
  0
POLYLINE
  8
0
 10
0
 20
0
 39
0
 70
1
 66
1
  0
VERTEX
  8
0
 10
634.83076913540185
 20
165.84615479934246
 42
1
  0
VERTEX
  8
0
 10
616.63076884929956
 20
165.84615479934246
 42
1
  0
SEQEND
  0
POLYLINE
  8
0
 10
0
 20
0
 39
0
 70
1
 66
1
  0
VERTEX
  8
0
 10
641.73076923076928
 20
487.884616337804
 42
-0
  0
VERTEX
  8
0
 10
641.73076923076928
 20
451.884616337804
 42
-0
  0
VERTEX
  8
0
 10
640.04859144871057
 20
451.88461538461542
 42
0.34921517968177795
  0
VERTEX
  8
0
 10
611.41294772808374
 20
451.884616337804
 42
-0
  0
VERTEX
  8
0
 10
609.73076923076928
 20
451.884616337804
 42
-0
  0
VERTEX
  8
0
 10
609.73076923076928
 20
487.884616337804
 42
-0
  0
VERTEX
  8
0
 10
614.73076923076928
 20
492.884616337804
 42
-0
  0
VERTEX
  8
0
 10
636.73076923076928
 20
492.884616337804
 42
-0
  0
SEQEND
  0
POLYLINE
  8
0
 10
0
 20
0
 39
0
 70
1
 66
1
  0
VERTEX
  8
0
 10
634.83076913540185
 20
475.884616337804
 42
1
  0
VERTEX
  8
0
 10
616.63076884929956
 20
475.884616337804
 42
1
  0
SEQEND
  0
POLYLINE
  8
0
 10
0
 20
0
 39
0
 70
1
 66
1
  0
VERTEX
  8
0
 10
642.88461538461547
 20
653.23077018395793
 42
-0
  0
VERTEX
  8
0
 10
642.88461538461547
 20
617.23077018395793
 42
-0
  0
VERTEX
  8
0
 10
641.20243760255676
 20
617.23076923076928
 42
0.34921517968177795
  0
VERTEX
  8
0
 10
612.56679388192993
 20
617.23077018395793
 42
-0
  0
VERTEX
  8
0
 10
610.88461538461547
 20
617.23077018395793
 42
-0
  0
VERTEX
  8
0
 10
610.88461538461547
 20
653.23077018395793
 42
-0
  0
VERTEX
  8
0
 10
615.88461538461547
 20
658.23077018395793
 42
-0
  0
VERTEX
  8
0
 10
637.88461538461547
 20
658.23077018395793
 42
-0
  0
SEQEND
  0
POLYLINE
  8
0
 10
0
 20
0
 39
0
 70
1
 66
1
  0
VERTEX
  8
0
 10
635.98461528924804
 20
641.23077018395793
 42
1
  0
VERTEX
  8
0
 10
617.78461500314575
 20
641.23077018395793
 42
1
  0
SEQEND
  0
POLYLINE
  8
0
 10
0
 20
0
 39
0
 70
1
 66
1
  0
VERTEX
  8
0
 10
837.65384615384619
 20
582.73077018395793
 42
-0
  0
VERTEX
  8
0
 10
837.65384615384619
 20
546.73077018395793
 42
-0
  0
VERTEX
  8
0
 10
835.97166837178747
 20
546.73076923076928
 42
0.34921517968177795
  0
VERTEX
  8
0
 10
807.33602465116064
 20
546.73077018395793
 42
-0
  0
VERTEX
  8
0
 10
805.65384615384619
 20
546.73077018395793
 42
-0
  0
VERTEX
  8
0
 10
805.65384615384619
 20
582.73077018395793
 42
-0
  0
VERTEX
  8
0
 10
810.65384615384619
 20
587.73077018395793
 42
-0
  0
VERTEX
  8
0
 10
832.65384615384619
 20
587.73077018395793
 42
-0
  0
SEQEND
  0
POLYLINE
  8
0
 10
0
 20
0
 39
0
 70
1
 66
1
  0
VERTEX
  8
0
 10
830.75384605847876
 20
570.73077018395793
 42
1
  0
VERTEX
  8
0
 10
812.55384577237646
 20
570.73077018395793
 42
1
  0
SEQEND
  0
POLYLINE
  8
0
 10
0
 20
0
 39
0
 70
1
 66
1
  0
VERTEX
  8
0
 10
906.88461538461547
 20
177.84615479934246
 42
-0
  0
VERTEX
  8
0
 10
906.88461538461547
 20
141.84615479934246
 42
-0
  0
VERTEX
  8
0
 10
905.20243760255676
 20
141.84615384615387
 42
0.34921517968177795
  0
VERTEX
  8
0
 10
876.56679388192993
 20
141.84615479934246
 42
-0
  0
VERTEX
  8
0
 10
874.88461538461547
 20
141.84615479934246
 42
-0
  0
VERTEX
  8
0
 10
874.88461538461547
 20
177.84615479934246
 42
-0
  0
VERTEX
  8
0
 10
879.88461538461547
 20
182.84615479934246
 42
-0
  0
VERTEX
  8
0
 10
901.88461538461547
 20
182.84615479934246
 42
-0
  0
SEQEND
  0
POLYLINE
  8
0
 10
0
 20
0
 39
0
 70
1
 66
1
  0
VERTEX
  8
0
 10
899.98461528924804
 20
165.84615479934246
 42
1
  0
VERTEX
  8
0
 10
881.78461500314575
 20
165.84615479934246
 42
1
  0
SEQEND
  0
POLYLINE
  8
0
 10
0
 20
0
 39
0
 70
1
 66
1
  0
VERTEX
  8
0
 10
906.88461538461547
 20
487.884616337804
 42
-0
  0
VERTEX
  8
0
 10
906.88461538461547
 20
451.884616337804
 42
-0
  0
VERTEX
  8
0
 10
905.20243760255676
 20
451.88461538461542
 42
0.34921517968177795
  0
VERTEX
  8
0
 10
876.56679388192993
 20
451.884616337804
 42
-0
  0
VERTEX
  8
0
 10
874.88461538461547
 20
451.884616337804
 42
-0
  0
VERTEX
  8
0
 10
874.88461538461547
 20
487.884616337804
 42
-0
  0
VERTEX
  8
0
 10
879.88461538461547
 20
492.884616337804
 42
-0
  0
VERTEX
  8
0
 10
901.88461538461547
 20
492.884616337804
 42
-0
  0
SEQEND
  0
POLYLINE
  8
0
 10
0
 20
0
 39
0
 70
1
 66
1
  0
VERTEX
  8
0
 10
899.98461528924804
 20
475.884616337804
 42
1
  0
VERTEX
  8
0
 10
881.78461500314575
 20
475.884616337804
 42
1
  0
SEQEND
  0
POLYLINE
  8
0
 10
0
 20
0
 39
0
 70
1
 66
1
  0
VERTEX
  8
0
 10
1104.0769230769231
 20
659.5
 42
-0
  0
VERTEX
  8
0
 10
1140.0769230769231
 20
659.5
 42
-0
  0
VERTEX
  8
0
 10
1140.0769240301117
 20
657.81782221794128
 42
0.34921517968177795
  0
VERTEX
  8
0
 10
1140.0769230769231
 20
629.18217849731445
 42
-0
  0
VERTEX
  8
0
 10
1140.0769230769231
 20
627.5
 42
-0
  0
VERTEX
  8
0
 10
1104.0769230769231
 20
627.5
 42
-0
  0
VERTEX
  8
0
 10
1099.0769230769231
 20
632.5
 42
-0
  0
VERTEX
  8
0
 10
1099.0769230769231
 20
654.5
 42
-0
  0
SEQEND
  0
POLYLINE
  8
0
 10
0
 20
0
 39
0
 70
1
 66
1
  0
VERTEX
  8
0
 10
1116.0769230769231
 20
652.59999990463257
 42
1
  0
VERTEX
  8
0
 10
1116.0769230769231
 20
634.39999961853027
 42
1
  0
SEQEND
  0
POLYLINE
  8
0
 10
0
 20
0
 39
0
 70
1
 66
1
  0
VERTEX
  8
0
 10
1172.0384615384617
 20
177.84615479934246
 42
-0
  0
VERTEX
  8
0
 10
1172.0384615384617
 20
141.84615479934246
 42
-0
  0
VERTEX
  8
0
 10
1170.3562837564029
 20
141.84615384615387
 42
0.34921517968177795
  0
VERTEX
  8
0
 10
1141.7206400357761
 20
141.84615479934246
 42
-0
  0
VERTEX
  8
0
 10
1140.0384615384617
 20
141.84615479934246
 42
-0
  0
VERTEX
  8
0
 10
1140.0384615384617
 20
177.84615479934246
 42
-0
  0
VERTEX
  8
0
 10
1145.0384615384617
 20
182.84615479934246
 42
-0
  0
VERTEX
  8
0
 10
1167.0384615384617
 20
182.84615479934246
 42
-0
  0
SEQEND
  0
POLYLINE
  8
0
 10
0
 20
0
 39
0
 70
1
 66
1
  0
VERTEX
  8
0
 10
1165.1384614430942
 20
165.84615479934246
 42
1
  0
VERTEX
  8
0
 10
1146.9384611569919
 20
165.84615479934246
 42
1
  0
SEQEND
  0
POLYLINE
  8
0
 10
0
 20
0
 39
0
 70
1
 66
1
  0
VERTEX
  8
0
 10
1172.0384615384617
 20
487.884616337804
 42
-0
  0
VERTEX
  8
0
 10
1172.0384615384617
 20
451.884616337804
 42
-0
  0
VERTEX
  8
0
 10
1170.3562837564029
 20
451.88461538461542
 42
0.34921517968177795
  0
VERTEX
  8
0
 10
1141.7206400357761
 20
451.884616337804
 42
-0
  0
VERTEX
  8
0
 10
1140.0384615384617
 20
451.884616337804
 42
-0
  0
VERTEX
  8
0
 10
1140.0384615384617
 20
487.884616337804
 42
-0
  0
VERTEX
  8
0
 10
1145.0384615384617
 20
492.884616337804
 42
-0
  0
VERTEX
  8
0
 10
1167.0384615384617
 20
492.884616337804
 42
-0
  0
SEQEND
  0
POLYLINE
  8
0
 10
0
 20
0
 39
0
 70
1
 66
1
  0
VERTEX
  8
0
 10
1165.1384614430942
 20
475.884616337804
 42
1
  0
VERTEX
  8
0
 10
1146.9384611569919
 20
475.884616337804
 42
1
  0
SEQEND
  0
ENDSEC
  0
EOF
