  0
SECTION
  2
ENTITIES
  0
POLYLINE
  8
0
 10
0
 20
0
 39
0
 70
1
 66
1
  0
VERTEX
  8
0
 10
0
 20
0
 42
0
  0
VERTEX
  8
0
 10
3000
 20
0
 42
0
  0
VERTEX
  8
0
 10
3000
 20
1000
 42
0
  0
VERTEX
  8
0
 10
0
 20
1000
 42
0
  0
SEQEND
  0
POLYLINE
  8
0
 10
0
 20
0
 39
0
 70
1
 66
1
  0
VERTEX
  8
0
 10
230.63697814941406
 20
388.30767822265625
 42
-0
  0
VERTEX
  8
0
 10
100.30768585205078
 20
388.30767822265625
 42
-0
  0
VERTEX
  8
0
 10
10.307692527770996
 20
190.30769348144531
 42
-0
  0
VERTEX
  8
0
 10
10.307692527770996
 20
10.307692527770996
 42
-0
  0
VERTEX
  8
0
 10
320.636962890625
 20
10.307692527770996
 42
-0
  0
VERTEX
  8
0
 10
320.636962890625
 20
190.30769348144531
 42
-0
  0
SEQEND
  0
POLYLINE
  8
0
 10
0
 20
0
 39
0
 70
1
 66
1
  0
VERTEX
  8
0
 10
40.307693481445313
 20
33.307693481445313
 42
-1
  0
VERTEX
  8
0
 10
40.307693481445313
 20
47.307697296142578
 42
-1
  0
SEQEND
  0
POLYLINE
  8
0
 10
0
 20
0
 39
0
 70
1
 66
1
  0
VERTEX
  8
0
 10
40.307693481445313
 20
163.30769348144531
 42
-1
  0
VERTEX
  8
0
 10
40.307693481445313
 20
177.30769348144531
 42
-1
  0
SEQEND
  0
POLYLINE
  8
0
 10
0
 20
0
 39
0
 70
1
 66
1
  0
VERTEX
  8
0
 10
290.636962890625
 20
33.307693481445313
 42
-1
  0
VERTEX
  8
0
 10
290.636962890625
 20
47.307697296142578
 42
-1
  0
SEQEND
  0
POLYLINE
  8
0
 10
0
 20
0
 39
0
 70
1
 66
1
  0
VERTEX
  8
0
 10
290.636962890625
 20
163.30769348144531
 42
-1
  0
VERTEX
  8
0
 10
290.636962890625
 20
177.30769348144531
 42
-1
  0
SEQEND
  0
POLYLINE
  8
0
 10
0
 20
0
 39
0
 70
1
 66
1
  0
VERTEX
  8
0
 10
230.63697814941406
 20
776.4615478515625
 42
-0
  0
VERTEX
  8
0
 10
100.30768585205078
 20
776.4615478515625
 42
-0
  0
VERTEX
  8
0
 10
10.307692527770996
 20
578.4615478515625
 42
-0
  0
VERTEX
  8
0
 10
10.307692527770996
 20
398.4615478515625
 42
-0
  0
VERTEX
  8
0
 10
320.636962890625
 20
398.4615478515625
 42
-0
  0
VERTEX
  8
0
 10
320.636962890625
 20
578.4615478515625
 42
-0
  0
SEQEND
  0
POLYLINE
  8
0
 10
0
 20
0
 39
0
 70
1
 66
1
  0
VERTEX
  8
0
 10
40.307693481445313
 20
421.4615478515625
 42
-1
  0
VERTEX
  8
0
 10
40.307693481445313
 20
435.4615478515625
 42
-1
  0
SEQEND
  0
POLYLINE
  8
0
 10
0
 20
0
 39
0
 70
1
 66
1
  0
VERTEX
  8
0
 10
40.307693481445313
 20
551.4615478515625
 42
-1
  0
VERTEX
  8
0
 10
40.307693481445313
 20
565.4615478515625
 42
-1
  0
SEQEND
  0
POLYLINE
  8
0
 10
0
 20
0
 39
0
 70
1
 66
1
  0
VERTEX
  8
0
 10
290.636962890625
 20
421.4615478515625
 42
-1
  0
VERTEX
  8
0
 10
290.636962890625
 20
435.4615478515625
 42
-1
  0
SEQEND
  0
POLYLINE
  8
0
 10
0
 20
0
 39
0
 70
1
 66
1
  0
VERTEX
  8
0
 10
290.636962890625
 20
551.4615478515625
 42
-1
  0
VERTEX
  8
0
 10
290.636962890625
 20
565.4615478515625
 42
-1
  0
SEQEND
  0
POLYLINE
  8
0
 10
0
 20
0
 39
0
 70
1
 66
1
  0
VERTEX
  8
0
 10
317.46151733398437
 20
611.23077392578125
 42
-0
  0
VERTEX
  8
0
 10
447.79080200195313
 20
611.23077392578125
 42
-0
  0
VERTEX
  8
0
 10
537.79083251953125
 20
809.23077392578125
 42
-0
  0
VERTEX
  8
0
 10
537.79083251953125
 20
989.23077392578125
 42
-0
  0
VERTEX
  8
0
 10
227.46153259277344
 20
989.23077392578125
 42
-0
  0
VERTEX
  8
0
 10
227.46153259277344
 20
809.23077392578125
 42
-0
  0
SEQEND
  0
POLYLINE
  8
0
 10
0
 20
0
 39
0
 70
1
 66
1
  0
VERTEX
  8
0
 10
507.79080200195312
 20
966.23077392578125
 42
-1
  0
VERTEX
  8
0
 10
507.79080200195312
 20
952.23077392578125
 42
-1
  0
SEQEND
  0
POLYLINE
  8
0
 10
0
 20
0
 39
0
 70
1
 66
1
  0
VERTEX
  8
0
 10
507.79080200195312
 20
836.23077392578125
 42
-1
  0
VERTEX
  8
0
 10
507.79080200195312
 20
822.23077392578125
 42
-1
  0
SEQEND
  0
POLYLINE
  8
0
 10
0
 20
0
 39
0
 70
1
 66
1
  0
VERTEX
  8
0
 10
257.4615478515625
 20
966.23077392578125
 42
-1
  0
VERTEX
  8
0
 10
257.4615478515625
 20
952.23077392578125
 42
-1
  0
SEQEND
  0
POLYLINE
  8
0
 10
0
 20
0
 39
0
 70
1
 66
1
  0
VERTEX
  8
0
 10
257.4615478515625
 20
836.23077392578125
 42
-1
  0
VERTEX
  8
0
 10
257.4615478515625
 20
822.23077392578125
 42
-1
  0
SEQEND
  0
POLYLINE
  8
0
 10
0
 20
0
 39
0
 70
1
 66
1
  0
VERTEX
  8
0
 10
414.15383911132812
 20
10.307692527770996
 42
-0
  0
VERTEX
  8
0
 10
544.48309326171875
 20
10.307692527770996
 42
-0
  0
VERTEX
  8
0
 10
634.48309326171875
 20
208.30767822265625
 42
-0
  0
VERTEX
  8
0
 10
634.48309326171875
 20
388.30767822265625
 42
-0
  0
VERTEX
  8
0
 10
324.15383911132812
 20
388.30767822265625
 42
-0
  0
VERTEX
  8
0
 10
324.15383911132812
 20
208.30767822265625
 42
-0
  0
SEQEND
  0
POLYLINE
  8
0
 10
0
 20
0
 39
0
 70
1
 66
1
  0
VERTEX
  8
0
 10
604.48309326171875
 20
365.30767822265625
 42
-1
  0
VERTEX
  8
0
 10
604.48309326171875
 20
351.30767822265625
 42
-1
  0
SEQEND
  0
POLYLINE
  8
0
 10
0
 20
0
 39
0
 70
1
 66
1
  0
VERTEX
  8
0
 10
604.48309326171875
 20
235.30767822265625
 42
-1
  0
VERTEX
  8
0
 10
604.48309326171875
 20
221.30767822265625
 42
-1
  0
SEQEND
  0
POLYLINE
  8
0
 10
0
 20
0
 39
0
 70
1
 66
1
  0
VERTEX
  8
0
 10
354.15383911132812
 20
365.30767822265625
 42
-1
  0
VERTEX
  8
0
 10
354.15383911132812
 20
351.30767822265625
 42
-1
  0
SEQEND
  0
POLYLINE
  8
0
 10
0
 20
0
 39
0
 70
1
 66
1
  0
VERTEX
  8
0
 10
354.15383911132812
 20
235.30767822265625
 42
-1
  0
VERTEX
  8
0
 10
354.15383911132812
 20
221.30767822265625
 42
-1
  0
SEQEND
  0
POLYLINE
  8
0
 10
0
 20
0
 39
0
 70
1
 66
1
  0
VERTEX
  8
0
 10
664.9447021484375
 20
776.4615478515625
 42
-0
  0
VERTEX
  8
0
 10
534.6153564453125
 20
776.4615478515625
 42
-0
  0
VERTEX
  8
0
 10
444.61538696289062
 20
578.4615478515625
 42
-0
  0
VERTEX
  8
0
 10
444.61538696289062
 20
398.4615478515625
 42
-0
  0
VERTEX
  8
0
 10
754.94464111328125
 20
398.4615478515625
 42
-0
  0
VERTEX
  8
0
 10
754.94464111328125
 20
578.4615478515625
 42
-0
  0
SEQEND
  0
POLYLINE
  8
0
 10
0
 20
0
 39
0
 70
1
 66
1
  0
VERTEX
  8
0
 10
474.61538696289062
 20
421.4615478515625
 42
-1
  0
VERTEX
  8
0
 10
474.61538696289062
 20
435.4615478515625
 42
-1
  0
SEQEND
  0
POLYLINE
  8
0
 10
0
 20
0
 39
0
 70
1
 66
1
  0
VERTEX
  8
0
 10
474.61538696289062
 20
551.4615478515625
 42
-1
  0
VERTEX
  8
0
 10
474.61538696289062
 20
565.4615478515625
 42
-1
  0
SEQEND
  0
POLYLINE
  8
0
 10
0
 20
0
 39
0
 70
1
 66
1
  0
VERTEX
  8
0
 10
724.94464111328125
 20
421.4615478515625
 42
-1
  0
VERTEX
  8
0
 10
724.94464111328125
 20
435.4615478515625
 42
-1
  0
SEQEND
  0
POLYLINE
  8
0
 10
0
 20
0
 39
0
 70
1
 66
1
  0
VERTEX
  8
0
 10
724.94464111328125
 20
551.4615478515625
 42
-1
  0
VERTEX
  8
0
 10
724.94464111328125
 20
565.4615478515625
 42
-1
  0
SEQEND
  0
POLYLINE
  8
0
 10
0
 20
0
 39
0
 70
1
 66
1
  0
VERTEX
  8
0
 10
858.32928466796875
 20
388.30767822265625
 42
-0
  0
VERTEX
  8
0
 10
728
 20
388.30767822265625
 42
-0
  0
VERTEX
  8
0
 10
638
 20
190.30769348144531
 42
-0
  0
VERTEX
  8
0
 10
638
 20
10.307692527770996
 42
-0
  0
VERTEX
  8
0
 10
948.32928466796875
 20
10.307692527770996
 42
-0
  0
VERTEX
  8
0
 10
948.32928466796875
 20
190.30769348144531
 42
-0
  0
SEQEND
  0
POLYLINE
  8
0
 10
0
 20
0
 39
0
 70
1
 66
1
  0
VERTEX
  8
0
 10
668
 20
33.307693481445313
 42
-1
  0
VERTEX
  8
0
 10
668
 20
47.307697296142578
 42
-1
  0
SEQEND
  0
POLYLINE
  8
0
 10
0
 20
0
 39
0
 70
1
 66
1
  0
VERTEX
  8
0
 10
668
 20
163.30769348144531
 42
-1
  0
VERTEX
  8
0
 10
668
 20
177.30769348144531
 42
-1
  0
SEQEND
  0
POLYLINE
  8
0
 10
0
 20
0
 39
0
 70
1
 66
1
  0
VERTEX
  8
0
 10
918.32928466796875
 20
33.307693481445313
 42
-1
  0
VERTEX
  8
0
 10
918.32928466796875
 20
47.307697296142578
 42
-1
  0
SEQEND
  0
POLYLINE
  8
0
 10
0
 20
0
 39
0
 70
1
 66
1
  0
VERTEX
  8
0
 10
918.32928466796875
 20
163.30769348144531
 42
-1
  0
VERTEX
  8
0
 10
918.32928466796875
 20
177.30769348144531
 42
-1
  0
SEQEND
  0
POLYLINE
  8
0
 10
0
 20
0
 39
0
 70
1
 66
1
  0
VERTEX
  8
0
 10
751.76922607421875
 20
611.23077392578125
 42
-0
  0
VERTEX
  8
0
 10
882.0985107421875
 20
611.23077392578125
 42
-0
  0
VERTEX
  8
0
 10
972.0985107421875
 20
809.23077392578125
 42
-0
  0
VERTEX
  8
0
 10
972.0985107421875
 20
989.23077392578125
 42
-0
  0
VERTEX
  8
0
 10
661.76922607421875
 20
989.23077392578125
 42
-0
  0
VERTEX
  8
0
 10
661.76922607421875
 20
809.23077392578125
 42
-0
  0
SEQEND
  0
POLYLINE
  8
0
 10
0
 20
0
 39
0
 70
1
 66
1
  0
VERTEX
  8
0
 10
942.0985107421875
 20
966.23077392578125
 42
-1
  0
VERTEX
  8
0
 10
942.0985107421875
 20
952.23077392578125
 42
-1
  0
SEQEND
  0
POLYLINE
  8
0
 10
0
 20
0
 39
0
 70
1
 66
1
  0
VERTEX
  8
0
 10
942.0985107421875
 20
836.23077392578125
 42
-1
  0
VERTEX
  8
0
 10
942.0985107421875
 20
822.23077392578125
 42
-1
  0
SEQEND
  0
POLYLINE
  8
0
 10
0
 20
0
 39
0
 70
1
 66
1
  0
VERTEX
  8
0
 10
691.76922607421875
 20
966.23077392578125
 42
-1
  0
VERTEX
  8
0
 10
691.76922607421875
 20
952.23077392578125
 42
-1
  0
SEQEND
  0
POLYLINE
  8
0
 10
0
 20
0
 39
0
 70
1
 66
1
  0
VERTEX
  8
0
 10
691.76922607421875
 20
836.23077392578125
 42
-1
  0
VERTEX
  8
0
 10
691.76922607421875
 20
822.23077392578125
 42
-1
  0
SEQEND
  0
POLYLINE
  8
0
 10
0
 20
0
 39
0
 70
1
 66
1
  0
VERTEX
  8
0
 10
867.23077392578125
 20
398.4615478515625
 42
-0
  0
VERTEX
  8
0
 10
922.23077392578125
 20
398.4615478515625
 42
-0
  0
VERTEX
  8
0
 10
922.23077392578125
 20
323.4615478515625
 42
0
  0
VERTEX
  8
0
 10
972.23077392578125
 20
323.4615478515625
 42
0
  0
VERTEX
  8
0
 10
972.23077392578125
 20
673.4615478515625
 42
0
  0
VERTEX
  8
0
 10
922.23077392578125
 20
673.4615478515625
 42
-0
  0
VERTEX
  8
0
 10
922.23077392578125
 20
598.4615478515625
 42
0
  0
VERTEX
  8
0
 10
867.23077392578125
 20
598.4615478515625
 42
1
  0
SEQEND
  0
POLYLINE
  8
0
 10
0
 20
0
 39
0
 70
1
 66
1
  0
VERTEX
  8
0
 10
867.23077392578125
 20
523.4615478515625
 42
-1
  0
VERTEX
  8
0
 10
867.23077392578125
 20
473.4615478515625
 42
-1
  0
SEQEND
  0
POLYLINE
  8
0
 10
0
 20
0
 39
0
 70
1
 66
1
  0
VERTEX
  8
0
 10
1046.5384521484375
 20
141.61538696289062
 42
-0
  0
VERTEX
  8
0
 10
1101.5384521484375
 20
141.61538696289062
 42
-0
  0
VERTEX
  8
0
 10
1101.5384521484375
 20
66.615386962890625
 42
0
  0
VERTEX
  8
0
 10
1151.5384521484375
 20
66.615386962890625
 42
0
  0
VERTEX
  8
0
 10
1151.5384521484375
 20
416.61538696289062
 42
0
  0
VERTEX
  8
0
 10
1101.5384521484375
 20
416.61538696289062
 42
-0
  0
VERTEX
  8
0
 10
1101.5384521484375
 20
341.61538696289062
 42
0
  0
VERTEX
  8
0
 10
1046.5384521484375
 20
341.61538696289062
 42
1
  0
SEQEND
  0
POLYLINE
  8
0
 10
0
 20
0
 39
0
 70
1
 66
1
  0
VERTEX
  8
0
 10
1046.5384521484375
 20
266.61538696289062
 42
-1
  0
VERTEX
  8
0
 10
1046.5384521484375
 20
216.61538696289062
 42
-1
  0
SEQEND
  0
POLYLINE
  8
0
 10
0
 20
0
 39
0
 70
1
 66
1
  0
VERTEX
  8
0
 10
1061.769287109375
 20
638.4615478515625
 42
-0
  0
VERTEX
  8
0
 10
1116.769287109375
 20
638.4615478515625
 42
-0
  0
VERTEX
  8
0
 10
1116.769287109375
 20
563.4615478515625
 42
0
  0
VERTEX
  8
0
 10
1166.769287109375
 20
563.4615478515625
 42
0
  0
VERTEX
  8
0
 10
1166.769287109375
 20
913.4615478515625
 42
0
  0
VERTEX
  8
0
 10
1116.769287109375
 20
913.4615478515625
 42
-0
  0
VERTEX
  8
0
 10
1116.769287109375
 20
838.4615478515625
 42
0
  0
VERTEX
  8
0
 10
1061.769287109375
 20
838.4615478515625
 42
1
  0
SEQEND
  0
POLYLINE
  8
0
 10
0
 20
0
 39
0
 70
1
 66
1
  0
VERTEX
  8
0
 10
1061.769287109375
 20
763.4615478515625
 42
-1
  0
VERTEX
  8
0
 10
1061.769287109375
 20
713.4615478515625
 42
-1
  0
SEQEND
  0
POLYLINE
  8
0
 10
0
 20
0
 39
0
 70
1
 66
1
  0
VERTEX
  8
0
 10
1241.076904296875
 20
381.61538696289062
 42
-0
  0
VERTEX
  8
0
 10
1296.076904296875
 20
381.61538696289062
 42
-0
  0
VERTEX
  8
0
 10
1296.076904296875
 20
306.61538696289062
 42
0
  0
VERTEX
  8
0
 10
1346.076904296875
 20
306.61538696289062
 42
0
  0
VERTEX
  8
0
 10
1346.076904296875
 20
656.6153564453125
 42
0
  0
VERTEX
  8
0
 10
1296.076904296875
 20
656.6153564453125
 42
-0
  0
VERTEX
  8
0
 10
1296.076904296875
 20
581.6153564453125
 42
0
  0
VERTEX
  8
0
 10
1241.076904296875
 20
581.6153564453125
 42
1
  0
SEQEND
  0
POLYLINE
  8
0
 10
0
 20
0
 39
0
 70
1
 66
1
  0
VERTEX
  8
0
 10
1241.076904296875
 20
506.61538696289062
 42
-1
  0
VERTEX
  8
0
 10
1241.076904296875
 20
456.61538696289062
 42
-1
  0
SEQEND
  0
POLYLINE
  8
0
 10
0
 20
0
 39
0
 70
1
 66
1
  0
VERTEX
  8
0
 10
1266.84619140625
 20
285.30767822265625
 42
-0
  0
VERTEX
  8
0
 10
1211.84619140625
 20
285.30767822265625
 42
-0
  0
VERTEX
  8
0
 10
1211.84619140625
 20
360.30767822265625
 42
0
  0
VERTEX
  8
0
 10
1161.84619140625
 20
360.30767822265625
 42
0
  0
VERTEX
  8
0
 10
1161.84619140625
 20
10.307692527770996
 42
0
  0
VERTEX
  8
0
 10
1211.84619140625
 20
10.307692527770996
 42
-0
  0
VERTEX
  8
0
 10
1211.84619140625
 20
85.307693481445313
 42
0
  0
VERTEX
  8
0
 10
1266.84619140625
 20
85.307693481445313
 42
1
  0
SEQEND
  0
POLYLINE
  8
0
 10
0
 20
0
 39
0
 70
1
 66
1
  0
VERTEX
  8
0
 10
1266.84619140625
 20
160.30769348144531
 42
-1
  0
VERTEX
  8
0
 10
1266.84619140625
 20
210.30769348144531
 42
-1
  0
SEQEND
  0
POLYLINE
  8
0
 10
0
 20
0
 39
0
 70
1
 66
1
  0
VERTEX
  8
0
 10
1282.076904296875
 20
866.3846435546875
 42
-0
  0
VERTEX
  8
0
 10
1227.076904296875
 20
866.3846435546875
 42
-0
  0
VERTEX
  8
0
 10
1227.076904296875
 20
941.3846435546875
 42
0
  0
VERTEX
  8
0
 10
1177.076904296875
 20
941.3846435546875
 42
0
  0
VERTEX
  8
0
 10
1177.076904296875
 20
591.3846435546875
 42
0
  0
VERTEX
  8
0
 10
1227.076904296875
 20
591.3846435546875
 42
-0
  0
VERTEX
  8
0
 10
1227.076904296875
 20
666.3846435546875
 42
0
  0
VERTEX
  8
0
 10
1282.076904296875
 20
666.3846435546875
 42
1
  0
SEQEND
  0
POLYLINE
  8
0
 10
0
 20
0
 39
0
 70
1
 66
1
  0
VERTEX
  8
0
 10
1282.076904296875
 20
741.3846435546875
 42
-1
  0
VERTEX
  8
0
 10
1282.076904296875
 20
791.3846435546875
 42
-1
  0
SEQEND
  0
POLYLINE
  8
0
 10
0
 20
0
 39
0
 70
1
 66
1
  0
VERTEX
  8
0
 10
1454.076904296875
 20
181.76922607421875
 42
-0
  0
VERTEX
  8
0
 10
1509.076904296875
 20
181.76922607421875
 42
-0
  0
VERTEX
  8
0
 10
1509.076904296875
 20
106.76923370361328
 42
0
  0
VERTEX
  8
0
 10
1559.076904296875
 20
106.76923370361328
 42
0
  0
VERTEX
  8
0
 10
1559.076904296875
 20
456.76922607421875
 42
0
  0
VERTEX
  8
0
 10
1509.076904296875
 20
456.76922607421875
 42
-0
  0
VERTEX
  8
0
 10
1509.076904296875
 20
381.76922607421875
 42
0
  0
VERTEX
  8
0
 10
1454.076904296875
 20
381.76922607421875
 42
1
  0
SEQEND
  0
POLYLINE
  8
0
 10
0
 20
0
 39
0
 70
1
 66
1
  0
VERTEX
  8
0
 10
1454.076904296875
 20
306.76922607421875
 42
-1
  0
VERTEX
  8
0
 10
1454.076904296875
 20
256.76922607421875
 42
-1
  0
SEQEND
  0
POLYLINE
  8
0
 10
0
 20
0
 39
0
 70
1
 66
1
  0
VERTEX
  8
0
 10
1456.3846435546875
 20
542
 42
-0
  0
VERTEX
  8
0
 10
1511.3846435546875
 20
542
 42
-0
  0
VERTEX
  8
0
 10
1511.3846435546875
 20
467
 42
0
  0
VERTEX
  8
0
 10
1561.3846435546875
 20
467
 42
0
  0
VERTEX
  8
0
 10
1561.3846435546875
 20
817
 42
0
  0
VERTEX
  8
0
 10
1511.3846435546875
 20
817
 42
-0
  0
VERTEX
  8
0
 10
1511.3846435546875
 20
742
 42
0
  0
VERTEX
  8
0
 10
1456.3846435546875
 20
742
 42
1
  0
SEQEND
  0
POLYLINE
  8
0
 10
0
 20
0
 39
0
 70
1
 66
1
  0
VERTEX
  8
0
 10
1456.3846435546875
 20
667
 42
-1
  0
VERTEX
  8
0
 10
1456.3846435546875
 20
617
 42
-1
  0
SEQEND
  0
POLYLINE
  8
0
 10
0
 20
0
 39
0
 70
1
 66
1
  0
VERTEX
  8
0
 10
1674.3846435546875
 20
285.30767822265625
 42
-0
  0
VERTEX
  8
0
 10
1619.3846435546875
 20
285.30767822265625
 42
-0
  0
VERTEX
  8
0
 10
1619.3846435546875
 20
360.30767822265625
 42
0
  0
VERTEX
  8
0
 10
1569.3846435546875
 20
360.30767822265625
 42
0
  0
VERTEX
  8
0
 10
1569.3846435546875
 20
10.307692527770996
 42
0
  0
VERTEX
  8
0
 10
1619.3846435546875
 20
10.307692527770996
 42
-0
  0
VERTEX
  8
0
 10
1619.3846435546875
 20
85.307693481445313
 42
0
  0
VERTEX
  8
0
 10
1674.3846435546875
 20
85.307693481445313
 42
1
  0
SEQEND
  0
POLYLINE
  8
0
 10
0
 20
0
 39
0
 70
1
 66
1
  0
VERTEX
  8
0
 10
1674.3846435546875
 20
160.30769348144531
 42
-1
  0
VERTEX
  8
0
 10
1674.3846435546875
 20
210.30769348144531
 42
-1
  0
SEQEND
  0
POLYLINE
  8
0
 10
0
 20
0
 39
0
 70
1
 66
1
  0
VERTEX
  8
0
 10
1671.6922607421875
 20
357.84616088867188
 42
-0
  0
VERTEX
  8
0
 10
1726.6922607421875
 20
357.84616088867188
 42
-0
  0
VERTEX
  8
0
 10
1726.6922607421875
 20
282.84616088867187
 42
0
  0
VERTEX
  8
0
 10
1776.6922607421875
 20
282.84616088867187
 42
0
  0
VERTEX
  8
0
 10
1776.6922607421875
 20
632.84613037109375
 42
0
  0
VERTEX
  8
0
 10
1726.6922607421875
 20
632.84613037109375
 42
-0
  0
VERTEX
  8
0
 10
1726.6922607421875
 20
557.84613037109375
 42
0
  0
VERTEX
  8
0
 10
1671.6922607421875
 20
557.84613037109375
 42
1
  0
SEQEND
  0
POLYLINE
  8
0
 10
0
 20
0
 39
0
 70
1
 66
1
  0
VERTEX
  8
0
 10
1671.6922607421875
 20
482.84616088867188
 42
-1
  0
VERTEX
  8
0
 10
1671.6922607421875
 20
432.84616088867187
 42
-1
  0
SEQEND
  0
POLYLINE
  8
0
 10
0
 20
0
 39
0
 70
1
 66
1
  0
VERTEX
  8
0
 10
1676.6922607421875
 20
831.76922607421875
 42
-0
  0
VERTEX
  8
0
 10
1621.6922607421875
 20
831.76922607421875
 42
-0
  0
VERTEX
  8
0
 10
1621.6922607421875
 20
906.76922607421875
 42
0
  0
VERTEX
  8
0
 10
1571.6922607421875
 20
906.76922607421875
 42
0
  0
VERTEX
  8
0
 10
1571.6922607421875
 20
556.76922607421875
 42
0
  0
VERTEX
  8
0
 10
1621.6922607421875
 20
556.76922607421875
 42
-0
  0
VERTEX
  8
0
 10
1621.6922607421875
 20
631.76922607421875
 42
0
  0
VERTEX
  8
0
 10
1676.6922607421875
 20
631.76922607421875
 42
1
  0
SEQEND
  0
POLYLINE
  8
0
 10
0
 20
0
 39
0
 70
1
 66
1
  0
VERTEX
  8
0
 10
1676.6922607421875
 20
706.76922607421875
 42
-1
  0
VERTEX
  8
0
 10
1676.6922607421875
 20
756.76922607421875
 42
-1
  0
SEQEND
  0
POLYLINE
  8
0
 10
0
 20
0
 39
0
 70
1
 66
1
  0
VERTEX
  8
0
 10
1870.6153564453125
 20
713.923095703125
 42
-0
  0
VERTEX
  8
0
 10
1925.6153564453125
 20
713.923095703125
 42
-0
  0
VERTEX
  8
0
 10
1925.6153564453125
 20
638.923095703125
 42
0
  0
VERTEX
  8
0
 10
1975.6153564453125
 20
638.923095703125
 42
0
  0
VERTEX
  8
0
 10
1975.6153564453125
 20
988.923095703125
 42
0
  0
VERTEX
  8
0
 10
1925.6153564453125
 20
988.923095703125
 42
-0
  0
VERTEX
  8
0
 10
1925.6153564453125
 20
913.923095703125
 42
0
  0
VERTEX
  8
0
 10
1870.6153564453125
 20
913.923095703125
 42
1
  0
SEQEND
  0
POLYLINE
  8
0
 10
0
 20
0
 39
0
 70
1
 66
1
  0
VERTEX
  8
0
 10
1870.6153564453125
 20
838.923095703125
 42
-1
  0
VERTEX
  8
0
 10
1870.6153564453125
 20
788.923095703125
 42
-1
  0
SEQEND
  0
POLYLINE
  8
0
 10
0
 20
0
 39
0
 70
1
 66
1
  0
VERTEX
  8
0
 10
1878.230712890625
 20
138.61538696289062
 42
-0
  0
VERTEX
  8
0
 10
1933.230712890625
 20
138.61538696289062
 42
-0
  0
VERTEX
  8
0
 10
1933.230712890625
 20
63.615383148193359
 42
0
  0
VERTEX
  8
0
 10
1983.230712890625
 20
63.615383148193359
 42
0
  0
VERTEX
  8
0
 10
1983.230712890625
 20
413.61538696289062
 42
0
  0
VERTEX
  8
0
 10
1933.230712890625
 20
413.61538696289062
 42
-0
  0
VERTEX
  8
0
 10
1933.230712890625
 20
338.61538696289062
 42
0
  0
VERTEX
  8
0
 10
1878.230712890625
 20
338.61538696289062
 42
1
  0
SEQEND
  0
POLYLINE
  8
0
 10
0
 20
0
 39
0
 70
1
 66
1
  0
VERTEX
  8
0
 10
1878.230712890625
 20
263.61538696289062
 42
-1
  0
VERTEX
  8
0
 10
1878.230712890625
 20
213.61538696289062
 42
-1
  0
SEQEND
  0
POLYLINE
  8
0
 10
0
 20
0
 39
0
 70
1
 66
1
  0
VERTEX
  8
0
 10
1787
 20
553.84613037109375
 42
0
  0
VERTEX
  8
0
 10
1787
 20
423.84616088867187
 42
0
  0
VERTEX
  8
0
 10
2112
 20
423.84616088867187
 42
0
  0
VERTEX
  8
0
 10
2112
 20
553.84613037109375
 42
0
  0
SEQEND
  0
POLYLINE
  8
0
 10
0
 20
0
 39
0
 70
1
 66
1
  0
VERTEX
  8
0
 10
1817
 20
480.34616088867187
 42
-1
  0
VERTEX
  8
0
 10
1817
 20
497.34616088867187
 42
-1
  0
SEQEND
  0
POLYLINE
  8
0
 10
0
 20
0
 39
0
 70
1
 66
1
  0
VERTEX
  8
0
 10
1917
 20
435.84616088867187
 42
-0
  0
VERTEX
  8
0
 10
1857
 20
435.84616088867187
 42
-1
  0
VERTEX
  8
0
 10
1857
 20
451.84616088867187
 42
0
  0
VERTEX
  8
0
 10
1917
 20
451.84616088867187
 42
-1
  0
SEQEND
  0
POLYLINE
  8
0
 10
0
 20
0
 39
0
 70
1
 66
1
  0
VERTEX
  8
0
 10
1857
 20
525.84613037109375
 42
-1
  0
VERTEX
  8
0
 10
1857
 20
541.84613037109375
 42
-0
  0
VERTEX
  8
0
 10
1917
 20
541.84613037109375
 42
-1
  0
VERTEX
  8
0
 10
1917
 20
525.84613037109375
 42
0
  0
SEQEND
  0
POLYLINE
  8
0
 10
0
 20
0
 39
0
 70
1
 66
1
  0
VERTEX
  8
0
 10
1985.923095703125
 20
563.923095703125
 42
0
  0
VERTEX
  8
0
 10
2115.923095703125
 20
563.923095703125
 42
0
  0
VERTEX
  8
0
 10
2115.923095703125
 20
888.923095703125
 42
0
  0
VERTEX
  8
0
 10
1985.923095703125
 20
888.923095703125
 42
0
  0
SEQEND
  0
POLYLINE
  8
0
 10
0
 20
0
 39
0
 70
1
 66
1
  0
VERTEX
  8
0
 10
2059.423095703125
 20
593.923095703125
 42
-1
  0
VERTEX
  8
0
 10
2042.423095703125
 20
593.923095703125
 42
-1
  0
SEQEND
  0
POLYLINE
  8
0
 10
0
 20
0
 39
0
 70
1
 66
1
  0
VERTEX
  8
0
 10
2103.923095703125
 20
693.923095703125
 42
-0
  0
VERTEX
  8
0
 10
2103.923095703125
 20
633.923095703125
 42
-1
  0
VERTEX
  8
0
 10
2087.923095703125
 20
633.923095703125
 42
0
  0
VERTEX
  8
0
 10
2087.923095703125
 20
693.923095703125
 42
-1
  0
SEQEND
  0
POLYLINE
  8
0
 10
0
 20
0
 39
0
 70
1
 66
1
  0
VERTEX
  8
0
 10
2013.923095703125
 20
633.923095703125
 42
-1
  0
VERTEX
  8
0
 10
1997.923095703125
 20
633.923095703125
 42
-0
  0
VERTEX
  8
0
 10
1997.923095703125
 20
693.923095703125
 42
-1
  0
VERTEX
  8
0
 10
2013.923095703125
 20
693.923095703125
 42
0
  0
SEQEND
  0
POLYLINE
  8
0
 10
0
 20
0
 39
0
 70
1
 66
1
  0
VERTEX
  8
0
 10
1993.5384521484375
 20
10.307692527770996
 42
0
  0
VERTEX
  8
0
 10
2123.53857421875
 20
10.307692527770996
 42
0
  0
VERTEX
  8
0
 10
2123.53857421875
 20
335.30767822265625
 42
0
  0
VERTEX
  8
0
 10
1993.5384521484375
 20
335.30767822265625
 42
0
  0
SEQEND
  0
POLYLINE
  8
0
 10
0
 20
0
 39
0
 70
1
 66
1
  0
VERTEX
  8
0
 10
2067.03857421875
 20
40.307693481445313
 42
-1
  0
VERTEX
  8
0
 10
2050.03857421875
 20
40.307693481445313
 42
-1
  0
SEQEND
  0
POLYLINE
  8
0
 10
0
 20
0
 39
0
 70
1
 66
1
  0
VERTEX
  8
0
 10
2111.53857421875
 20
140.30769348144531
 42
-0
  0
VERTEX
  8
0
 10
2111.53857421875
 20
80.307693481445312
 42
-1
  0
VERTEX
  8
0
 10
2095.53857421875
 20
80.307693481445312
 42
0
  0
VERTEX
  8
0
 10
2095.53857421875
 20
140.30769348144531
 42
-1
  0
SEQEND
  0
POLYLINE
  8
0
 10
0
 20
0
 39
0
 70
1
 66
1
  0
VERTEX
  8
0
 10
2021.5384521484375
 20
80.307693481445312
 42
-1
  0
VERTEX
  8
0
 10
2005.5384521484375
 20
80.307693481445312
 42
-0
  0
VERTEX
  8
0
 10
2005.5384521484375
 20
140.30769348144531
 42
-1
  0
VERTEX
  8
0
 10
2021.5384521484375
 20
140.30769348144531
 42
0
  0
SEQEND
  0
POLYLINE
  8
0
 10
0
 20
0
 39
0
 70
1
 66
1
  0
VERTEX
  8
0
 10
2126.230712890625
 20
345.38461303710937
 42
0
  0
VERTEX
  8
0
 10
2256.230712890625
 20
345.38461303710937
 42
0
  0
VERTEX
  8
0
 10
2256.230712890625
 20
670.3846435546875
 42
0
  0
VERTEX
  8
0
 10
2126.230712890625
 20
670.3846435546875
 42
0
  0
SEQEND
  0
POLYLINE
  8
0
 10
0
 20
0
 39
0
 70
1
 66
1
  0
VERTEX
  8
0
 10
2199.730712890625
 20
375.38461303710937
 42
-1
  0
VERTEX
  8
0
 10
2182.730712890625
 20
375.38461303710937
 42
-1
  0
SEQEND
  0
POLYLINE
  8
0
 10
0
 20
0
 39
0
 70
1
 66
1
  0
VERTEX
  8
0
 10
2244.230712890625
 20
475.38461303710938
 42
-0
  0
VERTEX
  8
0
 10
2244.230712890625
 20
415.38461303710938
 42
-1
  0
VERTEX
  8
0
 10
2228.230712890625
 20
415.38461303710938
 42
0
  0
VERTEX
  8
0
 10
2228.230712890625
 20
475.38461303710938
 42
-1
  0
SEQEND
  0
POLYLINE
  8
0
 10
0
 20
0
 39
0
 70
1
 66
1
  0
VERTEX
  8
0
 10
2154.230712890625
 20
415.38461303710938
 42
-1
  0
VERTEX
  8
0
 10
2138.230712890625
 20
415.38461303710938
 42
-0
  0
VERTEX
  8
0
 10
2138.230712890625
 20
475.38461303710938
 42
-1
  0
VERTEX
  8
0
 10
2154.230712890625
 20
475.38461303710938
 42
0
  0
SEQEND
  0
POLYLINE
  8
0
 10
0
 20
0
 39
0
 70
1
 66
1
  0
VERTEX
  8
0
 10
2133.84619140625
 20
10.307692527770996
 42
0
  0
VERTEX
  8
0
 10
2263.84619140625
 20
10.307692527770996
 42
0
  0
VERTEX
  8
0
 10
2263.84619140625
 20
335.30767822265625
 42
0
  0
VERTEX
  8
0
 10
2133.84619140625
 20
335.30767822265625
 42
0
  0
SEQEND
  0
POLYLINE
  8
0
 10
0
 20
0
 39
0
 70
1
 66
1
  0
VERTEX
  8
0
 10
2207.34619140625
 20
40.307693481445313
 42
-1
  0
VERTEX
  8
0
 10
2190.34619140625
 20
40.307693481445313
 42
-1
  0
SEQEND
  0
POLYLINE
  8
0
 10
0
 20
0
 39
0
 70
1
 66
1
  0
VERTEX
  8
0
 10
2251.84619140625
 20
140.30769348144531
 42
-0
  0
VERTEX
  8
0
 10
2251.84619140625
 20
80.307693481445312
 42
-1
  0
VERTEX
  8
0
 10
2235.84619140625
 20
80.307693481445312
 42
0
  0
VERTEX
  8
0
 10
2235.84619140625
 20
140.30769348144531
 42
-1
  0
SEQEND
  0
POLYLINE
  8
0
 10
0
 20
0
 39
0
 70
1
 66
1
  0
VERTEX
  8
0
 10
2161.84619140625
 20
80.307693481445312
 42
-1
  0
VERTEX
  8
0
 10
2145.84619140625
 20
80.307693481445312
 42
-0
  0
VERTEX
  8
0
 10
2145.84619140625
 20
140.30769348144531
 42
-1
  0
VERTEX
  8
0
 10
2161.84619140625
 20
140.30769348144531
 42
0
  0
SEQEND
  0
POLYLINE
  8
0
 10
0
 20
0
 39
0
 70
1
 66
1
  0
VERTEX
  8
0
 10
2266.53857421875
 20
345.38461303710937
 42
0
  0
VERTEX
  8
0
 10
2396.53857421875
 20
345.38461303710937
 42
0
  0
VERTEX
  8
0
 10
2396.53857421875
 20
670.3846435546875
 42
0
  0
VERTEX
  8
0
 10
2266.53857421875
 20
670.3846435546875
 42
0
  0
SEQEND
  0
POLYLINE
  8
0
 10
0
 20
0
 39
0
 70
1
 66
1
  0
VERTEX
  8
0
 10
2340.03857421875
 20
375.38461303710937
 42
-1
  0
VERTEX
  8
0
 10
2323.03857421875
 20
375.38461303710937
 42
-1
  0
SEQEND
  0
POLYLINE
  8
0
 10
0
 20
0
 39
0
 70
1
 66
1
  0
VERTEX
  8
0
 10
2384.53857421875
 20
475.38461303710938
 42
-0
  0
VERTEX
  8
0
 10
2384.53857421875
 20
415.38461303710938
 42
-1
  0
VERTEX
  8
0
 10
2368.53857421875
 20
415.38461303710938
 42
0
  0
VERTEX
  8
0
 10
2368.53857421875
 20
475.38461303710938
 42
-1
  0
SEQEND
  0
POLYLINE
  8
0
 10
0
 20
0
 39
0
 70
1
 66
1
  0
VERTEX
  8
0
 10
2294.53857421875
 20
415.38461303710938
 42
-1
  0
VERTEX
  8
0
 10
2278.53857421875
 20
415.38461303710938
 42
-0
  0
VERTEX
  8
0
 10
2278.53857421875
 20
475.38461303710938
 42
-1
  0
VERTEX
  8
0
 10
2294.53857421875
 20
475.38461303710938
 42
0
  0
SEQEND
  0
POLYLINE
  8
0
 10
0
 20
0
 39
0
 70
1
 66
1
  0
VERTEX
  8
0
 10
2274.15380859375
 20
10.307692527770996
 42
0
  0
VERTEX
  8
0
 10
2404.15380859375
 20
10.307692527770996
 42
0
  0
VERTEX
  8
0
 10
2404.15380859375
 20
335.30767822265625
 42
0
  0
VERTEX
  8
0
 10
2274.15380859375
 20
335.30767822265625
 42
0
  0
SEQEND
  0
POLYLINE
  8
0
 10
0
 20
0
 39
0
 70
1
 66
1
  0
VERTEX
  8
0
 10
2347.65380859375
 20
40.307693481445313
 42
-1
  0
VERTEX
  8
0
 10
2330.65380859375
 20
40.307693481445313
 42
-1
  0
SEQEND
  0
POLYLINE
  8
0
 10
0
 20
0
 39
0
 70
1
 66
1
  0
VERTEX
  8
0
 10
2392.15380859375
 20
140.30769348144531
 42
-0
  0
VERTEX
  8
0
 10
2392.15380859375
 20
80.307693481445312
 42
-1
  0
VERTEX
  8
0
 10
2376.15380859375
 20
80.307693481445312
 42
0
  0
VERTEX
  8
0
 10
2376.15380859375
 20
140.30769348144531
 42
-1
  0
SEQEND
  0
POLYLINE
  8
0
 10
0
 20
0
 39
0
 70
1
 66
1
  0
VERTEX
  8
0
 10
2302.15380859375
 20
80.307693481445312
 42
-1
  0
VERTEX
  8
0
 10
2286.15380859375
 20
80.307693481445312
 42
-0
  0
VERTEX
  8
0
 10
2286.15380859375
 20
140.30769348144531
 42
-1
  0
VERTEX
  8
0
 10
2302.15380859375
 20
140.30769348144531
 42
0
  0
SEQEND
  0
POLYLINE
  8
0
 10
0
 20
0
 39
0
 70
1
 66
1
  0
VERTEX
  8
0
 10
2126.230712890625
 20
680.4615478515625
 42
-0
  0
VERTEX
  8
0
 10
2496.230712890625
 20
680.4615478515625
 42
-0
  0
VERTEX
  8
0
 10
2496.230712890625
 20
782.4615478515625
 42
-0
  0
VERTEX
  8
0
 10
2126.230712890625
 20
782.4615478515625
 42
-0
  0
SEQEND
  0
POLYLINE
  8
0
 10
0
 20
0
 39
0
 70
1
 66
1
  0
VERTEX
  8
0
 10
2427.230712890625
 20
718.4615478515625
 42
-1
  0
VERTEX
  8
0
 10
2427.230712890625
 20
744.4615478515625
 42
-1
  0
SEQEND
  0
POLYLINE
  8
0
 10
0
 20
0
 39
0
 70
1
 66
1
  0
VERTEX
  8
0
 10
2126.230712890625
 20
792.6153564453125
 42
-0
  0
VERTEX
  8
0
 10
2496.230712890625
 20
792.6153564453125
 42
-0
  0
VERTEX
  8
0
 10
2496.230712890625
 20
894.61541748046875
 42
-0
  0
VERTEX
  8
0
 10
2126.230712890625
 20
894.61541748046875
 42
-0
  0
SEQEND
  0
POLYLINE
  8
0
 10
0
 20
0
 39
0
 70
1
 66
1
  0
VERTEX
  8
0
 10
2427.230712890625
 20
830.61541748046875
 42
-1
  0
VERTEX
  8
0
 10
2427.230712890625
 20
856.61541748046875
 42
-1
  0
SEQEND
  0
POLYLINE
  8
0
 10
0
 20
0
 39
0
 70
1
 66
1
  0
VERTEX
  8
0
 10
2516.46142578125
 20
10.307692527770996
 42
-0
  0
VERTEX
  8
0
 10
2516.46142578125
 20
380.30770874023437
 42
-0
  0
VERTEX
  8
0
 10
2414.46142578125
 20
380.30770874023437
 42
-0
  0
VERTEX
  8
0
 10
2414.46142578125
 20
10.307692527770996
 42
-0
  0
SEQEND
  0
POLYLINE
  8
0
 10
0
 20
0
 39
0
 70
1
 66
1
  0
VERTEX
  8
0
 10
2478.46142578125
 20
311.30770874023438
 42
-1
  0
VERTEX
  8
0
 10
2452.46142578125
 20
311.30770874023438
 42
-1
  0
SEQEND
  0
POLYLINE
  8
0
 10
0
 20
0
 39
0
 70
1
 66
1
  0
VERTEX
  8
0
 10
2608.53857421875
 20
390.38461303710937
 42
-0
  0
VERTEX
  8
0
 10
2608.53857421875
 20
760.3846435546875
 42
-0
  0
VERTEX
  8
0
 10
2506.53857421875
 20
760.3846435546875
 42
-0
  0
VERTEX
  8
0
 10
2506.53857421875
 20
390.38461303710937
 42
-0
  0
SEQEND
  0
POLYLINE
  8
0
 10
0
 20
0
 39
0
 70
1
 66
1
  0
VERTEX
  8
0
 10
2570.53857421875
 20
691.3846435546875
 42
-1
  0
VERTEX
  8
0
 10
2544.53857421875
 20
691.3846435546875
 42
-1
  0
SEQEND
  0
POLYLINE
  8
0
 10
0
 20
0
 39
0
 70
1
 66
1
  0
VERTEX
  8
0
 10
2628.84619140625
 20
10.307692527770996
 42
-0
  0
VERTEX
  8
0
 10
2628.84619140625
 20
380.30770874023437
 42
-0
  0
VERTEX
  8
0
 10
2526.84619140625
 20
380.30770874023437
 42
-0
  0
VERTEX
  8
0
 10
2526.84619140625
 20
10.307692527770996
 42
-0
  0
SEQEND
  0
POLYLINE
  8
0
 10
0
 20
0
 39
0
 70
1
 66
1
  0
VERTEX
  8
0
 10
2590.84619140625
 20
311.30770874023438
 42
-1
  0
VERTEX
  8
0
 10
2564.84619140625
 20
311.30770874023438
 42
-1
  0
SEQEND
  0
POLYLINE
  8
0
 10
0
 20
0
 39
0
 70
1
 66
1
  0
VERTEX
  8
0
 10
2720.923095703125
 20
390.38461303710937
 42
-0
  0
VERTEX
  8
0
 10
2720.923095703125
 20
760.3846435546875
 42
-0
  0
VERTEX
  8
0
 10
2618.923095703125
 20
760.3846435546875
 42
-0
  0
VERTEX
  8
0
 10
2618.923095703125
 20
390.38461303710937
 42
-0
  0
SEQEND
  0
POLYLINE
  8
0
 10
0
 20
0
 39
0
 70
1
 66
1
  0
VERTEX
  8
0
 10
2682.923095703125
 20
691.3846435546875
 42
-1
  0
VERTEX
  8
0
 10
2656.923095703125
 20
691.3846435546875
 42
-1
  0
SEQEND
  0
POLYLINE
  8
0
 10
0
 20
0
 39
0
 70
1
 66
1
  0
VERTEX
  8
0
 10
2741.230712890625
 20
10.307692527770996
 42
-0
  0
VERTEX
  8
0
 10
2741.230712890625
 20
380.30770874023437
 42
-0
  0
VERTEX
  8
0
 10
2639.230712890625
 20
380.30770874023437
 42
-0
  0
VERTEX
  8
0
 10
2639.230712890625
 20
10.307692527770996
 42
-0
  0
SEQEND
  0
POLYLINE
  8
0
 10
0
 20
0
 39
0
 70
1
 66
1
  0
VERTEX
  8
0
 10
2703.230712890625
 20
311.30770874023438
 42
-1
  0
VERTEX
  8
0
 10
2677.230712890625
 20
311.30770874023438
 42
-1
  0
SEQEND
  0
POLYLINE
  8
0
 10
0
 20
0
 39
0
 70
1
 66
1
  0
VERTEX
  8
0
 10
2833.3076171875
 20
390.38461303710937
 42
-0
  0
VERTEX
  8
0
 10
2833.3076171875
 20
760.3846435546875
 42
-0
  0
VERTEX
  8
0
 10
2731.3076171875
 20
760.3846435546875
 42
-0
  0
VERTEX
  8
0
 10
2731.3076171875
 20
390.38461303710937
 42
-0
  0
SEQEND
  0
POLYLINE
  8
0
 10
0
 20
0
 39
0
 70
1
 66
1
  0
VERTEX
  8
0
 10
2795.3076171875
 20
691.3846435546875
 42
-1
  0
VERTEX
  8
0
 10
2769.3076171875
 20
691.3846435546875
 42
-1
  0
SEQEND
  0
POLYLINE
  8
0
 10
0
 20
0
 39
0
 70
1
 66
1
  0
VERTEX
  8
0
 10
2853.615478515625
 20
10.307692527770996
 42
-0
  0
VERTEX
  8
0
 10
2853.615478515625
 20
380.30770874023437
 42
-0
  0
VERTEX
  8
0
 10
2751.615478515625
 20
380.30770874023437
 42
-0
  0
VERTEX
  8
0
 10
2751.615478515625
 20
10.307692527770996
 42
-0
  0
SEQEND
  0
POLYLINE
  8
0
 10
0
 20
0
 39
0
 70
1
 66
1
  0
VERTEX
  8
0
 10
2815.615478515625
 20
311.30770874023438
 42
-1
  0
VERTEX
  8
0
 10
2789.615478515625
 20
311.30770874023438
 42
-1
  0
SEQEND
  0
POLYLINE
  8
0
 10
0
 20
0
 39
0
 70
1
 66
1
  0
VERTEX
  8
0
 10
2506.53857421875
 20
770.4615478515625
 42
-0
  0
VERTEX
  8
0
 10
2876.53857421875
 20
770.4615478515625
 42
-0
  0
VERTEX
  8
0
 10
2876.53857421875
 20
872.4615478515625
 42
-0
  0
VERTEX
  8
0
 10
2506.53857421875
 20
872.4615478515625
 42
-0
  0
SEQEND
  0
POLYLINE
  8
0
 10
0
 20
0
 39
0
 70
1
 66
1
  0
VERTEX
  8
0
 10
2807.53857421875
 20
808.4615478515625
 42
-1
  0
VERTEX
  8
0
 10
2807.53857421875
 20
834.4615478515625
 42
-1
  0
SEQEND
  0
POLYLINE
  8
0
 10
0
 20
0
 39
0
 70
1
 66
1
  0
VERTEX
  8
0
 10
2506.53857421875
 20
882.6153564453125
 42
-0
  0
VERTEX
  8
0
 10
2876.53857421875
 20
882.6153564453125
 42
-0
  0
VERTEX
  8
0
 10
2876.53857421875
 20
984.61541748046875
 42
-0
  0
VERTEX
  8
0
 10
2506.53857421875
 20
984.61541748046875
 42
-0
  0
SEQEND
  0
POLYLINE
  8
0
 10
0
 20
0
 39
0
 70
1
 66
1
  0
VERTEX
  8
0
 10
2807.53857421875
 20
920.61541748046875
 42
-1
  0
VERTEX
  8
0
 10
2807.53857421875
 20
946.61541748046875
 42
-1
  0
SEQEND
  0
POLYLINE
  8
0
 10
0
 20
0
 39
0
 70
1
 66
1
  0
VERTEX
  8
0
 10
1072.5384521484375
 20
611.84613037109375
 42
0.41421356797218323
  0
VERTEX
  8
0
 10
1062.5384521484375
 20
621.84613037109375
 42
0
  0
VERTEX
  8
0
 10
982.5384521484375
 20
621.84613037109375
 42
0
  0
VERTEX
  8
0
 10
982.5384521484375
 20
351.84616088867187
 42
0
  0
VERTEX
  8
0
 10
1062.5384521484375
 20
351.84616088867187
 42
0.41421356797218323
  0
VERTEX
  8
0
 10
1072.5384521484375
 20
361.84616088867187
 42
0
  0
SEQEND
  0
POLYLINE
  8
0
 10
0
 20
0
 39
0
 70
1
 66
1
  0
VERTEX
  8
0
 10
1017.5384521484375
 20
552.34613037109375
 42
-1
  0
VERTEX
  8
0
 10
1017.5384521484375
 20
571.34613037109375
 42
-1
  0
SEQEND
  0
POLYLINE
  8
0
 10
0
 20
0
 39
0
 70
1
 66
1
  0
VERTEX
  8
0
 10
1017.5384521484375
 20
452.34616088867187
 42
-1
  0
VERTEX
  8
0
 10
1017.5384521484375
 20
471.34616088867187
 42
-1
  0
SEQEND
  0
POLYLINE
  8
0
 10
0
 20
0
 39
0
 70
1
 66
1
  0
VERTEX
  8
0
 10
1247.5384521484375
 20
966.84613037109375
 42
0.41421356797218323
  0
VERTEX
  8
0
 10
1237.5384521484375
 20
956.84613037109375
 42
0
  0
VERTEX
  8
0
 10
1237.5384521484375
 20
876.84613037109375
 42
0
  0
VERTEX
  8
0
 10
1507.5384521484375
 20
876.84613037109375
 42
0
  0
VERTEX
  8
0
 10
1507.5384521484375
 20
956.84613037109375
 42
0.41421356797218323
  0
VERTEX
  8
0
 10
1497.5384521484375
 20
966.84613037109375
 42
0
  0
SEQEND
  0
POLYLINE
  8
0
 10
0
 20
0
 39
0
 70
1
 66
1
  0
VERTEX
  8
0
 10
1307.0384521484375
 20
911.84613037109375
 42
-1
  0
VERTEX
  8
0
 10
1288.0384521484375
 20
911.84613037109375
 42
-1
  0
SEQEND
  0
POLYLINE
  8
0
 10
0
 20
0
 39
0
 70
1
 66
1
  0
VERTEX
  8
0
 10
1407.0384521484375
 20
911.84613037109375
 42
-1
  0
VERTEX
  8
0
 10
1388.0384521484375
 20
911.84613037109375
 42
-1
  0
SEQEND
  0
POLYLINE
  8
0
 10
0
 20
0
 39
0
 70
1
 66
1
  0
VERTEX
  8
0
 10
2933.6923828125
 20
650.3846435546875
 42
0.41421356797218323
  0
VERTEX
  8
0
 10
2923.6923828125
 20
660.3846435546875
 42
0
  0
VERTEX
  8
0
 10
2843.6923828125
 20
660.3846435546875
 42
0
  0
VERTEX
  8
0
 10
2843.6923828125
 20
390.38461303710937
 42
0
  0
VERTEX
  8
0
 10
2923.6923828125
 20
390.38461303710937
 42
0.41421356797218323
  0
VERTEX
  8
0
 10
2933.6923828125
 20
400.38461303710937
 42
0
  0
SEQEND
  0
POLYLINE
  8
0
 10
0
 20
0
 39
0
 70
1
 66
1
  0
VERTEX
  8
0
 10
2878.6923828125
 20
590.8846435546875
 42
-1
  0
VERTEX
  8
0
 10
2878.6923828125
 20
609.8846435546875
 42
-1
  0
SEQEND
  0
POLYLINE
  8
0
 10
0
 20
0
 39
0
 70
1
 66
1
  0
VERTEX
  8
0
 10
2878.6923828125
 20
490.88461303710937
 42
-1
  0
VERTEX
  8
0
 10
2878.6923828125
 20
509.88461303710937
 42
-1
  0
SEQEND
  0
POLYLINE
  8
0
 10
0
 20
0
 39
0
 70
1
 66
1
  0
VERTEX
  8
0
 10
2954
 20
270.30767822265625
 42
0.41421356797218323
  0
VERTEX
  8
0
 10
2944
 20
280.30767822265625
 42
0
  0
VERTEX
  8
0
 10
2864
 20
280.30767822265625
 42
0
  0
VERTEX
  8
0
 10
2864
 20
10.307692527770996
 42
0
  0
VERTEX
  8
0
 10
2944
 20
10.307692527770996
 42
0.41421356797218323
  0
VERTEX
  8
0
 10
2954
 20
20.30769157409668
 42
0
  0
SEQEND
  0
POLYLINE
  8
0
 10
0
 20
0
 39
0
 70
1
 66
1
  0
VERTEX
  8
0
 10
2899
 20
210.80769348144531
 42
-1
  0
VERTEX
  8
0
 10
2899
 20
229.80769348144531
 42
-1
  0
SEQEND
  0
POLYLINE
  8
0
 10
0
 20
0
 39
0
 70
1
 66
1
  0
VERTEX
  8
0
 10
2899
 20
110.80769348144531
 42
-1
  0
VERTEX
  8
0
 10
2899
 20
129.80769348144531
 42
-1
  0
SEQEND
  0
POLYLINE
  8
0
 10
0
 20
0
 39
0
 70
1
 66
1
  0
VERTEX
  8
0
 10
10.307692527770996
 20
790.84246826171875
 42
0
  0
VERTEX
  8
0
 10
58.623138427734375
 20
786.6153564453125
 42
0
  0
VERTEX
  8
0
 10
62.675064086914063
 20
832.9290771484375
 42
-0.36397022008895874
  0
VERTEX
  8
0
 10
72.523139953613281
 20
841.19256591796875
 42
0
  0
VERTEX
  8
0
 10
83.723136901855469
 20
841.19256591796875
 42
-0.36397022008895874
  0
VERTEX
  8
0
 10
93.571212768554688
 20
832.9290771484375
 42
-0
  0
VERTEX
  8
0
 10
97.623138427734375
 20
786.6153564453125
 42
0
  0
VERTEX
  8
0
 10
145.93858337402344
 20
790.84246826171875
 42
-0
  0
VERTEX
  8
0
 10
131.62313842773437
 20
956.6153564453125
 42
0
  0
VERTEX
  8
0
 10
24.623136520385742
 20
956.6153564453125
 42
0
  0
SEQEND
  0
POLYLINE
  8
0
 10
0
 20
0
 39
0
 70
1
 66
1
  0
VERTEX
  8
0
 10
43.373138427734375
 20
931.6153564453125
 42
-1
  0
VERTEX
  8
0
 10
32.873138427734375
 20
931.6153564453125
 42
-1
  0
SEQEND
  0
POLYLINE
  8
0
 10
0
 20
0
 39
0
 70
1
 66
1
  0
VERTEX
  8
0
 10
123.37313842773437
 20
931.6153564453125
 42
-1
  0
VERTEX
  8
0
 10
112.87313842773437
 20
931.6153564453125
 42
-1
  0
SEQEND
  0
POLYLINE
  8
0
 10
0
 20
0
 39
0
 70
1
 66
1
  0
VERTEX
  8
0
 10
2240.923095703125
 20
904.76922607421875
 42
0
  0
VERTEX
  8
0
 10
2240.923095703125
 20
984.76922607421875
 42
0
  0
VERTEX
  8
0
 10
1985.923095703125
 20
984.76922607421875
 42
0
  0
VERTEX
  8
0
 10
1985.923095703125
 20
904.76922607421875
 42
0
  0
SEQEND
  0
POLYLINE
  8
0
 10
0
 20
0
 39
0
 70
1
 66
1
  0
VERTEX
  8
0
 10
2169.22314453125
 20
944.76922607421875
 42
-1
  0
VERTEX
  8
0
 10
2119.22314453125
 20
944.76922607421875
 42
-1
  0
SEQEND
  0
POLYLINE
  8
0
 10
0
 20
0
 39
0
 70
1
 66
1
  0
VERTEX
  8
0
 10
2107.623046875
 20
944.76922607421875
 42
-1
  0
VERTEX
  8
0
 10
2057.623046875
 20
944.76922607421875
 42
-1
  0
SEQEND
  0
POLYLINE
  8
0
 10
0
 20
0
 39
0
 70
1
 66
1
  0
VERTEX
  8
0
 10
2406.84619140625
 20
390.38461303710937
 42
0
  0
VERTEX
  8
0
 10
2486.84619140625
 20
390.38461303710937
 42
0
  0
VERTEX
  8
0
 10
2486.84619140625
 20
645.3846435546875
 42
0
  0
VERTEX
  8
0
 10
2406.84619140625
 20
645.3846435546875
 42
0
  0
SEQEND
  0
POLYLINE
  8
0
 10
0
 20
0
 39
0
 70
1
 66
1
  0
VERTEX
  8
0
 10
2446.84619140625
 20
462.08462524414062
 42
-1
  0
VERTEX
  8
0
 10
2446.84619140625
 20
512.0845947265625
 42
-1
  0
SEQEND
  0
POLYLINE
  8
0
 10
0
 20
0
 39
0
 70
1
 66
1
  0
VERTEX
  8
0
 10
2446.84619140625
 20
523.68463134765625
 42
-1
  0
VERTEX
  8
0
 10
2446.84619140625
 20
573.68463134765625
 42
-1
  0
SEQEND
  0
POLYLINE
  8
0
 10
0
 20
0
 39
0
 70
1
 66
1
  0
VERTEX
  8
0
 10
2886.84619140625
 20
670.5384521484375
 42
0
  0
VERTEX
  8
0
 10
2966.84619140625
 20
670.5384521484375
 42
0
  0
VERTEX
  8
0
 10
2966.84619140625
 20
925.5384521484375
 42
0
  0
VERTEX
  8
0
 10
2886.84619140625
 20
925.5384521484375
 42
0
  0
SEQEND
  0
POLYLINE
  8
0
 10
0
 20
0
 39
0
 70
1
 66
1
  0
VERTEX
  8
0
 10
2926.84619140625
 20
742.23846435546875
 42
-1
  0
VERTEX
  8
0
 10
2926.84619140625
 20
792.23846435546875
 42
-1
  0
SEQEND
  0
POLYLINE
  8
0
 10
0
 20
0
 39
0
 70
1
 66
1
  0
VERTEX
  8
0
 10
2926.84619140625
 20
803.83843994140625
 42
-1
  0
VERTEX
  8
0
 10
2926.84619140625
 20
853.83843994140625
 42
-1
  0
SEQEND
  0
POLYLINE
  8
0
 10
0
 20
0
 39
0
 70
1
 66
1
  0
VERTEX
  8
0
 10
331.07693481445312
 20
548.4615478515625
 42
-0
  0
VERTEX
  8
0
 10
331.07693481445312
 20
398.4615478515625
 42
-0
  0
VERTEX
  8
0
 10
420.07693481445312
 20
398.4615478515625
 42
-0
  0
VERTEX
  8
0
 10
420.07693481445312
 20
418.4615478515625
 42
-1
  0
VERTEX
  8
0
 10
420.07693481445312
 20
528.4615478515625
 42
-0
  0
VERTEX
  8
0
 10
420.07693481445312
 20
548.4615478515625
 42
-0
  0
SEQEND
  0
POLYLINE
  8
0
 10
0
 20
0
 39
0
 70
1
 66
1
  0
VERTEX
  8
0
 10
344.07693481445312
 20
407.9615478515625
 42
-1
  0
VERTEX
  8
0
 10
344.07693481445312
 20
418.9615478515625
 42
-1
  0
SEQEND
  0
POLYLINE
  8
0
 10
0
 20
0
 39
0
 70
1
 66
1
  0
VERTEX
  8
0
 10
344.07693481445312
 20
527.9615478515625
 42
-1
  0
VERTEX
  8
0
 10
344.07693481445312
 20
538.9615478515625
 42
-1
  0
SEQEND
  0
POLYLINE
  8
0
 10
0
 20
0
 39
0
 70
1
 66
1
  0
VERTEX
  8
0
 10
548.23077392578125
 20
936.6153564453125
 42
-0
  0
VERTEX
  8
0
 10
548.23077392578125
 20
786.6153564453125
 42
-0
  0
VERTEX
  8
0
 10
637.23077392578125
 20
786.6153564453125
 42
-0
  0
VERTEX
  8
0
 10
637.23077392578125
 20
806.6153564453125
 42
-1
  0
VERTEX
  8
0
 10
637.23077392578125
 20
916.6153564453125
 42
-0
  0
VERTEX
  8
0
 10
637.23077392578125
 20
936.6153564453125
 42
-0
  0
SEQEND
  0
POLYLINE
  8
0
 10
0
 20
0
 39
0
 70
1
 66
1
  0
VERTEX
  8
0
 10
561.23077392578125
 20
796.1153564453125
 42
-1
  0
VERTEX
  8
0
 10
561.23077392578125
 20
807.1153564453125
 42
-1
  0
SEQEND
  0
POLYLINE
  8
0
 10
0
 20
0
 39
0
 70
1
 66
1
  0
VERTEX
  8
0
 10
561.23077392578125
 20
916.1153564453125
 42
-1
  0
VERTEX
  8
0
 10
561.23077392578125
 20
927.1153564453125
 42
-1
  0
SEQEND
  0
POLYLINE
  8
0
 10
0
 20
0
 39
0
 70
1
 66
1
  0
VERTEX
  8
0
 10
1374.6153564453125
 20
160.30769348144531
 42
-0
  0
VERTEX
  8
0
 10
1374.6153564453125
 20
10.307692527770996
 42
-0
  0
VERTEX
  8
0
 10
1463.6153564453125
 20
10.307692527770996
 42
-0
  0
VERTEX
  8
0
 10
1463.6153564453125
 20
30.30769157409668
 42
-1
  0
VERTEX
  8
0
 10
1463.6153564453125
 20
140.30769348144531
 42
-0
  0
VERTEX
  8
0
 10
1463.6153564453125
 20
160.30769348144531
 42
-0
  0
SEQEND
  0
POLYLINE
  8
0
 10
0
 20
0
 39
0
 70
1
 66
1
  0
VERTEX
  8
0
 10
1387.6153564453125
 20
19.80769157409668
 42
-1
  0
VERTEX
  8
0
 10
1387.6153564453125
 20
30.80769157409668
 42
-1
  0
SEQEND
  0
POLYLINE
  8
0
 10
0
 20
0
 39
0
 70
1
 66
1
  0
VERTEX
  8
0
 10
1387.6153564453125
 20
139.80769348144531
 42
-1
  0
VERTEX
  8
0
 10
1387.6153564453125
 20
150.80769348144531
 42
-1
  0
SEQEND
  0
POLYLINE
  8
0
 10
0
 20
0
 39
0
 70
1
 66
1
  0
VERTEX
  8
0
 10
1667.923095703125
 20
961.923095703125
 42
-0
  0
VERTEX
  8
0
 10
1517.923095703125
 20
961.923095703125
 42
-0
  0
VERTEX
  8
0
 10
1517.923095703125
 20
872.923095703125
 42
-0
  0
VERTEX
  8
0
 10
1537.923095703125
 20
872.923095703125
 42
-1
  0
VERTEX
  8
0
 10
1647.923095703125
 20
872.923095703125
 42
-0
  0
VERTEX
  8
0
 10
1667.923095703125
 20
872.923095703125
 42
-0
  0
SEQEND
  0
POLYLINE
  8
0
 10
0
 20
0
 39
0
 70
1
 66
1
  0
VERTEX
  8
0
 10
1527.423095703125
 20
948.923095703125
 42
-1
  0
VERTEX
  8
0
 10
1538.423095703125
 20
948.923095703125
 42
-1
  0
SEQEND
  0
POLYLINE
  8
0
 10
0
 20
0
 39
0
 70
1
 66
1
  0
VERTEX
  8
0
 10
1647.423095703125
 20
948.923095703125
 42
-1
  0
VERTEX
  8
0
 10
1658.423095703125
 20
948.923095703125
 42
-1
  0
SEQEND
  0
POLYLINE
  8
0
 10
0
 20
0
 39
0
 70
1
 66
1
  0
VERTEX
  8
0
 10
1744.076904296875
 20
10.307692527770996
 42
-0
  0
VERTEX
  8
0
 10
1894.076904296875
 20
10.307692527770996
 42
-0
  0
VERTEX
  8
0
 10
1894.076904296875
 20
99.307693481445313
 42
-0
  0
VERTEX
  8
0
 10
1874.076904296875
 20
99.307693481445313
 42
-1
  0
VERTEX
  8
0
 10
1764.076904296875
 20
99.307693481445313
 42
-0
  0
VERTEX
  8
0
 10
1744.076904296875
 20
99.307693481445313
 42
-0
  0
SEQEND
  0
POLYLINE
  8
0
 10
0
 20
0
 39
0
 70
1
 66
1
  0
VERTEX
  8
0
 10
1884.576904296875
 20
23.30769157409668
 42
-1
  0
VERTEX
  8
0
 10
1873.576904296875
 20
23.30769157409668
 42
-1
  0
SEQEND
  0
POLYLINE
  8
0
 10
0
 20
0
 39
0
 70
1
 66
1
  0
VERTEX
  8
0
 10
1764.576904296875
 20
23.30769157409668
 42
-1
  0
VERTEX
  8
0
 10
1753.576904296875
 20
23.30769157409668
 42
-1
  0
SEQEND
  0
POLYLINE
  8
0
 10
0
 20
0
 39
0
 70
1
 66
1
  0
VERTEX
  8
0
 10
182.07691955566406
 20
987
 42
0
  0
VERTEX
  8
0
 10
148.07691955566406
 20
987
 42
0
  0
VERTEX
  8
0
 10
148.07691955566406
 20
887
 42
0
  0
VERTEX
  8
0
 10
182.07691955566406
 20
887
 42
0
  0
SEQEND
  0
POLYLINE
  8
0
 10
0
 20
0
 39
0
 70
1
 66
1
  0
VERTEX
  8
0
 10
165.07691955566406
 20
963.5
 42
-1
  0
VERTEX
  8
0
 10
165.07691955566406
 20
980.5
 42
-1
  0
SEQEND
  0
POLYLINE
  8
0
 10
0
 20
0
 39
0
 70
1
 66
1
  0
VERTEX
  8
0
 10
165.07691955566406
 20
893.5
 42
-1
  0
VERTEX
  8
0
 10
165.07691955566406
 20
910.5
 42
-1
  0
SEQEND
  0
POLYLINE
  8
0
 10
0
 20
0
 39
0
 70
1
 66
1
  0
VERTEX
  8
0
 10
331.07693481445312
 20
592.6153564453125
 42
0
  0
VERTEX
  8
0
 10
331.07693481445312
 20
558.6153564453125
 42
0
  0
VERTEX
  8
0
 10
431.07693481445312
 20
558.6153564453125
 42
0
  0
VERTEX
  8
0
 10
431.07693481445312
 20
592.6153564453125
 42
0
  0
SEQEND
  0
POLYLINE
  8
0
 10
0
 20
0
 39
0
 70
1
 66
1
  0
VERTEX
  8
0
 10
354.57693481445312
 20
575.6153564453125
 42
-1
  0
VERTEX
  8
0
 10
337.57693481445312
 20
575.6153564453125
 42
-1
  0
SEQEND
  0
POLYLINE
  8
0
 10
0
 20
0
 39
0
 70
1
 66
1
  0
VERTEX
  8
0
 10
424.57693481445312
 20
575.6153564453125
 42
-1
  0
VERTEX
  8
0
 10
407.57693481445312
 20
575.6153564453125
 42
-1
  0
SEQEND
  0
POLYLINE
  8
0
 10
0
 20
0
 39
0
 70
1
 66
1
  0
VERTEX
  8
0
 10
548.23077392578125
 20
980.76922607421875
 42
0
  0
VERTEX
  8
0
 10
548.23077392578125
 20
946.76922607421875
 42
0
  0
VERTEX
  8
0
 10
648.23077392578125
 20
946.76922607421875
 42
0
  0
VERTEX
  8
0
 10
648.23077392578125
 20
980.76922607421875
 42
0
  0
SEQEND
  0
POLYLINE
  8
0
 10
0
 20
0
 39
0
 70
1
 66
1
  0
VERTEX
  8
0
 10
571.73077392578125
 20
963.76922607421875
 42
-1
  0
VERTEX
  8
0
 10
554.73077392578125
 20
963.76922607421875
 42
-1
  0
SEQEND
  0
POLYLINE
  8
0
 10
0
 20
0
 39
0
 70
1
 66
1
  0
VERTEX
  8
0
 10
641.73077392578125
 20
963.76922607421875
 42
-1
  0
VERTEX
  8
0
 10
624.73077392578125
 20
963.76922607421875
 42
-1
  0
SEQEND
  0
POLYLINE
  8
0
 10
0
 20
0
 39
0
 70
1
 66
1
  0
VERTEX
  8
0
 10
992.76922607421875
 20
110.30769348144531
 42
0
  0
VERTEX
  8
0
 10
958.76922607421875
 20
110.30769348144531
 42
0
  0
VERTEX
  8
0
 10
958.76922607421875
 20
10.307692527770996
 42
0
  0
VERTEX
  8
0
 10
992.76922607421875
 20
10.307692527770996
 42
0
  0
SEQEND
  0
POLYLINE
  8
0
 10
0
 20
0
 39
0
 70
1
 66
1
  0
VERTEX
  8
0
 10
975.76922607421875
 20
86.807693481445313
 42
-1
  0
VERTEX
  8
0
 10
975.76922607421875
 20
103.80769348144531
 42
-1
  0
SEQEND
  0
POLYLINE
  8
0
 10
0
 20
0
 39
0
 70
1
 66
1
  0
VERTEX
  8
0
 10
975.76922607421875
 20
16.80769157409668
 42
-1
  0
VERTEX
  8
0
 10
975.76922607421875
 20
33.807693481445313
 42
-1
  0
SEQEND
  0
POLYLINE
  8
0
 10
0
 20
0
 39
0
 70
1
 66
1
  0
VERTEX
  8
0
 10
1016.5384521484375
 20
939.69232177734375
 42
0
  0
VERTEX
  8
0
 10
982.5384521484375
 20
939.69232177734375
 42
0
  0
VERTEX
  8
0
 10
982.5384521484375
 20
839.69232177734375
 42
0
  0
VERTEX
  8
0
 10
1016.5384521484375
 20
839.69232177734375
 42
0
  0
SEQEND
  0
POLYLINE
  8
0
 10
0
 20
0
 39
0
 70
1
 66
1
  0
VERTEX
  8
0
 10
999.5384521484375
 20
916.19232177734375
 42
-1
  0
VERTEX
  8
0
 10
999.5384521484375
 20
933.19232177734375
 42
-1
  0
SEQEND
  0
POLYLINE
  8
0
 10
0
 20
0
 39
0
 70
1
 66
1
  0
VERTEX
  8
0
 10
999.5384521484375
 20
846.19232177734375
 42
-1
  0
VERTEX
  8
0
 10
999.5384521484375
 20
863.19232177734375
 42
-1
  0
SEQEND
  0
POLYLINE
  8
0
 10
0
 20
0
 39
0
 70
1
 66
1
  0
VERTEX
  8
0
 10
1037.076904296875
 20
110.30769348144531
 42
0
  0
VERTEX
  8
0
 10
1003.076904296875
 20
110.30769348144531
 42
0
  0
VERTEX
  8
0
 10
1003.076904296875
 20
10.307692527770996
 42
0
  0
VERTEX
  8
0
 10
1037.076904296875
 20
10.307692527770996
 42
0
  0
SEQEND
  0
POLYLINE
  8
0
 10
0
 20
0
 39
0
 70
1
 66
1
  0
VERTEX
  8
0
 10
1020.076904296875
 20
86.807693481445313
 42
-1
  0
VERTEX
  8
0
 10
1020.076904296875
 20
103.80769348144531
 42
-1
  0
SEQEND
  0
POLYLINE
  8
0
 10
0
 20
0
 39
0
 70
1
 66
1
  0
VERTEX
  8
0
 10
1020.076904296875
 20
16.80769157409668
 42
-1
  0
VERTEX
  8
0
 10
1020.076904296875
 20
33.807693481445313
 42
-1
  0
SEQEND
  0
POLYLINE
  8
0
 10
0
 20
0
 39
0
 70
1
 66
1
  0
VERTEX
  8
0
 10
1060.84619140625
 20
948.69232177734375
 42
0
  0
VERTEX
  8
0
 10
1026.84619140625
 20
948.69232177734375
 42
0
  0
VERTEX
  8
0
 10
1026.84619140625
 20
848.69232177734375
 42
0
  0
VERTEX
  8
0
 10
1060.84619140625
 20
848.69232177734375
 42
0
  0
SEQEND
  0
POLYLINE
  8
0
 10
0
 20
0
 39
0
 70
1
 66
1
  0
VERTEX
  8
0
 10
1043.84619140625
 20
925.19232177734375
 42
-1
  0
VERTEX
  8
0
 10
1043.84619140625
 20
942.19232177734375
 42
-1
  0
SEQEND
  0
POLYLINE
  8
0
 10
0
 20
0
 39
0
 70
1
 66
1
  0
VERTEX
  8
0
 10
1043.84619140625
 20
855.19232177734375
 42
-1
  0
VERTEX
  8
0
 10
1043.84619140625
 20
872.19232177734375
 42
-1
  0
SEQEND
  0
POLYLINE
  8
0
 10
0
 20
0
 39
0
 70
1
 66
1
  0
VERTEX
  8
0
 10
1081.3846435546875
 20
110.30769348144531
 42
0
  0
VERTEX
  8
0
 10
1047.3846435546875
 20
110.30769348144531
 42
0
  0
VERTEX
  8
0
 10
1047.3846435546875
 20
10.307692527770996
 42
0
  0
VERTEX
  8
0
 10
1081.3846435546875
 20
10.307692527770996
 42
0
  0
SEQEND
  0
POLYLINE
  8
0
 10
0
 20
0
 39
0
 70
1
 66
1
  0
VERTEX
  8
0
 10
1064.3846435546875
 20
86.807693481445313
 42
-1
  0
VERTEX
  8
0
 10
1064.3846435546875
 20
103.80769348144531
 42
-1
  0
SEQEND
  0
POLYLINE
  8
0
 10
0
 20
0
 39
0
 70
1
 66
1
  0
VERTEX
  8
0
 10
1064.3846435546875
 20
16.80769157409668
 42
-1
  0
VERTEX
  8
0
 10
1064.3846435546875
 20
33.807693481445313
 42
-1
  0
SEQEND
  0
POLYLINE
  8
0
 10
0
 20
0
 39
0
 70
1
 66
1
  0
VERTEX
  8
0
 10
1105.15380859375
 20
948.69232177734375
 42
0
  0
VERTEX
  8
0
 10
1071.15380859375
 20
948.69232177734375
 42
0
  0
VERTEX
  8
0
 10
1071.15380859375
 20
848.69232177734375
 42
0
  0
VERTEX
  8
0
 10
1105.15380859375
 20
848.69232177734375
 42
0
  0
SEQEND
  0
POLYLINE
  8
0
 10
0
 20
0
 39
0
 70
1
 66
1
  0
VERTEX
  8
0
 10
1088.15380859375
 20
925.19232177734375
 42
-1
  0
VERTEX
  8
0
 10
1088.15380859375
 20
942.19232177734375
 42
-1
  0
SEQEND
  0
POLYLINE
  8
0
 10
0
 20
0
 39
0
 70
1
 66
1
  0
VERTEX
  8
0
 10
1088.15380859375
 20
855.19232177734375
 42
-1
  0
VERTEX
  8
0
 10
1088.15380859375
 20
872.19232177734375
 42
-1
  0
SEQEND
  0
POLYLINE
  8
0
 10
0
 20
0
 39
0
 70
1
 66
1
  0
VERTEX
  8
0
 10
1116.923095703125
 20
526.84613037109375
 42
0
  0
VERTEX
  8
0
 10
1082.923095703125
 20
526.84613037109375
 42
0
  0
VERTEX
  8
0
 10
1082.923095703125
 20
426.84616088867187
 42
0
  0
VERTEX
  8
0
 10
1116.923095703125
 20
426.84616088867187
 42
0
  0
SEQEND
  0
POLYLINE
  8
0
 10
0
 20
0
 39
0
 70
1
 66
1
  0
VERTEX
  8
0
 10
1099.923095703125
 20
503.34616088867187
 42
-1
  0
VERTEX
  8
0
 10
1099.923095703125
 20
520.34613037109375
 42
-1
  0
SEQEND
  0
POLYLINE
  8
0
 10
0
 20
0
 39
0
 70
1
 66
1
  0
VERTEX
  8
0
 10
1099.923095703125
 20
433.34616088867187
 42
-1
  0
VERTEX
  8
0
 10
1099.923095703125
 20
450.34616088867187
 42
-1
  0
SEQEND
  0
POLYLINE
  8
0
 10
0
 20
0
 39
0
 70
1
 66
1
  0
VERTEX
  8
0
 10
1113.3846435546875
 20
989.5384521484375
 42
0
  0
VERTEX
  8
0
 10
1113.3846435546875
 20
955.5384521484375
 42
0
  0
VERTEX
  8
0
 10
1213.3846435546875
 20
955.5384521484375
 42
0
  0
VERTEX
  8
0
 10
1213.3846435546875
 20
989.5384521484375
 42
0
  0
SEQEND
  0
POLYLINE
  8
0
 10
0
 20
0
 39
0
 70
1
 66
1
  0
VERTEX
  8
0
 10
1136.8846435546875
 20
972.5384521484375
 42
-1
  0
VERTEX
  8
0
 10
1119.8846435546875
 20
972.5384521484375
 42
-1
  0
SEQEND
  0
POLYLINE
  8
0
 10
0
 20
0
 39
0
 70
1
 66
1
  0
VERTEX
  8
0
 10
1206.8846435546875
 20
972.5384521484375
 42
-1
  0
VERTEX
  8
0
 10
1189.8846435546875
 20
972.5384521484375
 42
-1
  0
SEQEND
  0
POLYLINE
  8
0
 10
0
 20
0
 39
0
 70
1
 66
1
  0
VERTEX
  8
0
 10
1222.3077392578125
 20
44.307693481445313
 42
0
  0
VERTEX
  8
0
 10
1222.3077392578125
 20
10.307692527770996
 42
0
  0
VERTEX
  8
0
 10
1322.3077392578125
 20
10.307692527770996
 42
0
  0
VERTEX
  8
0
 10
1322.3077392578125
 20
44.307693481445313
 42
0
  0
SEQEND
  0
POLYLINE
  8
0
 10
0
 20
0
 39
0
 70
1
 66
1
  0
VERTEX
  8
0
 10
1245.8077392578125
 20
27.30769157409668
 42
-1
  0
VERTEX
  8
0
 10
1228.8077392578125
 20
27.30769157409668
 42
-1
  0
SEQEND
  0
POLYLINE
  8
0
 10
0
 20
0
 39
0
 70
1
 66
1
  0
VERTEX
  8
0
 10
1315.8077392578125
 20
27.30769157409668
 42
-1
  0
VERTEX
  8
0
 10
1298.8077392578125
 20
27.30769157409668
 42
-1
  0
SEQEND
  0
POLYLINE
  8
0
 10
0
 20
0
 39
0
 70
1
 66
1
  0
VERTEX
  8
0
 10
1390.3846435546875
 20
472.38461303710938
 42
0
  0
VERTEX
  8
0
 10
1356.3846435546875
 20
472.38461303710938
 42
0
  0
VERTEX
  8
0
 10
1356.3846435546875
 20
372.38461303710937
 42
0
  0
VERTEX
  8
0
 10
1390.3846435546875
 20
372.38461303710937
 42
0
  0
SEQEND
  0
POLYLINE
  8
0
 10
0
 20
0
 39
0
 70
1
 66
1
  0
VERTEX
  8
0
 10
1373.3846435546875
 20
448.88461303710937
 42
-1
  0
VERTEX
  8
0
 10
1373.3846435546875
 20
465.88461303710937
 42
-1
  0
SEQEND
  0
POLYLINE
  8
0
 10
0
 20
0
 39
0
 70
1
 66
1
  0
VERTEX
  8
0
 10
1373.3846435546875
 20
378.88461303710937
 42
-1
  0
VERTEX
  8
0
 10
1373.3846435546875
 20
395.88461303710937
 42
-1
  0
SEQEND
  0
POLYLINE
  8
0
 10
0
 20
0
 39
0
 70
1
 66
1
  0
VERTEX
  8
0
 10
1426.3846435546875
 20
848.5384521484375
 42
0
  0
VERTEX
  8
0
 10
1392.3846435546875
 20
848.5384521484375
 42
0
  0
VERTEX
  8
0
 10
1392.3846435546875
 20
748.5384521484375
 42
0
  0
VERTEX
  8
0
 10
1426.3846435546875
 20
748.5384521484375
 42
0
  0
SEQEND
  0
POLYLINE
  8
0
 10
0
 20
0
 39
0
 70
1
 66
1
  0
VERTEX
  8
0
 10
1409.3846435546875
 20
825.0384521484375
 42
-1
  0
VERTEX
  8
0
 10
1409.3846435546875
 20
842.0384521484375
 42
-1
  0
SEQEND
  0
POLYLINE
  8
0
 10
0
 20
0
 39
0
 70
1
 66
1
  0
VERTEX
  8
0
 10
1409.3846435546875
 20
755.0384521484375
 42
-1
  0
VERTEX
  8
0
 10
1409.3846435546875
 20
772.0384521484375
 42
-1
  0
SEQEND
  0
POLYLINE
  8
0
 10
0
 20
0
 39
0
 70
1
 66
1
  0
VERTEX
  8
0
 10
1434.6922607421875
 20
490.61538696289062
 42
0
  0
VERTEX
  8
0
 10
1400.6922607421875
 20
490.61538696289062
 42
0
  0
VERTEX
  8
0
 10
1400.6922607421875
 20
390.61538696289062
 42
0
  0
VERTEX
  8
0
 10
1434.6922607421875
 20
390.61538696289062
 42
0
  0
SEQEND
  0
POLYLINE
  8
0
 10
0
 20
0
 39
0
 70
1
 66
1
  0
VERTEX
  8
0
 10
1417.6922607421875
 20
467.11538696289062
 42
-1
  0
VERTEX
  8
0
 10
1417.6922607421875
 20
484.11538696289062
 42
-1
  0
SEQEND
  0
POLYLINE
  8
0
 10
0
 20
0
 39
0
 70
1
 66
1
  0
VERTEX
  8
0
 10
1417.6922607421875
 20
397.11538696289062
 42
-1
  0
VERTEX
  8
0
 10
1417.6922607421875
 20
414.11538696289062
 42
-1
  0
SEQEND
  0
POLYLINE
  8
0
 10
0
 20
0
 39
0
 70
1
 66
1
  0
VERTEX
  8
0
 10
1470.6922607421875
 20
852.23077392578125
 42
0
  0
VERTEX
  8
0
 10
1436.6922607421875
 20
852.23077392578125
 42
0
  0
VERTEX
  8
0
 10
1436.6922607421875
 20
752.23077392578125
 42
0
  0
VERTEX
  8
0
 10
1470.6922607421875
 20
752.23077392578125
 42
0
  0
SEQEND
  0
POLYLINE
  8
0
 10
0
 20
0
 39
0
 70
1
 66
1
  0
VERTEX
  8
0
 10
1453.6922607421875
 20
828.73077392578125
 42
-1
  0
VERTEX
  8
0
 10
1453.6922607421875
 20
845.73077392578125
 42
-1
  0
SEQEND
  0
POLYLINE
  8
0
 10
0
 20
0
 39
0
 70
1
 66
1
  0
VERTEX
  8
0
 10
1453.6922607421875
 20
758.73077392578125
 42
-1
  0
VERTEX
  8
0
 10
1453.6922607421875
 20
775.73077392578125
 42
-1
  0
SEQEND
  0
POLYLINE
  8
0
 10
0
 20
0
 39
0
 70
1
 66
1
  0
VERTEX
  8
0
 10
1479
 20
492
 42
0
  0
VERTEX
  8
0
 10
1445
 20
492
 42
0
  0
VERTEX
  8
0
 10
1445
 20
392
 42
0
  0
VERTEX
  8
0
 10
1479
 20
392
 42
0
  0
SEQEND
  0
POLYLINE
  8
0
 10
0
 20
0
 39
0
 70
1
 66
1
  0
VERTEX
  8
0
 10
1462
 20
468.5
 42
-1
  0
VERTEX
  8
0
 10
1462
 20
485.5
 42
-1
  0
SEQEND
  0
POLYLINE
  8
0
 10
0
 20
0
 39
0
 70
1
 66
1
  0
VERTEX
  8
0
 10
1462
 20
398.5
 42
-1
  0
VERTEX
  8
0
 10
1462
 20
415.5
 42
-1
  0
SEQEND
  0
POLYLINE
  8
0
 10
0
 20
0
 39
0
 70
1
 66
1
  0
VERTEX
  8
0
 10
1425.6153564453125
 20
96.461540222167969
 42
0
  0
VERTEX
  8
0
 10
1425.6153564453125
 20
62.461540222167969
 42
0
  0
VERTEX
  8
0
 10
1525.6153564453125
 20
62.461540222167969
 42
0
  0
VERTEX
  8
0
 10
1525.6153564453125
 20
96.461540222167969
 42
0
  0
SEQEND
  0
POLYLINE
  8
0
 10
0
 20
0
 39
0
 70
1
 66
1
  0
VERTEX
  8
0
 10
1449.1153564453125
 20
79.461540222167969
 42
-1
  0
VERTEX
  8
0
 10
1432.1153564453125
 20
79.461540222167969
 42
-1
  0
SEQEND
  0
POLYLINE
  8
0
 10
0
 20
0
 39
0
 70
1
 66
1
  0
VERTEX
  8
0
 10
1519.1153564453125
 20
79.461540222167969
 42
-1
  0
VERTEX
  8
0
 10
1502.1153564453125
 20
79.461540222167969
 42
-1
  0
SEQEND
  0
POLYLINE
  8
0
 10
0
 20
0
 39
0
 70
1
 66
1
  0
VERTEX
  8
0
 10
1712.3077392578125
 20
942.23077392578125
 42
0
  0
VERTEX
  8
0
 10
1678.3077392578125
 20
942.23077392578125
 42
0
  0
VERTEX
  8
0
 10
1678.3077392578125
 20
842.23077392578125
 42
0
  0
VERTEX
  8
0
 10
1712.3077392578125
 20
842.23077392578125
 42
0
  0
SEQEND
  0
POLYLINE
  8
0
 10
0
 20
0
 39
0
 70
1
 66
1
  0
VERTEX
  8
0
 10
1695.3077392578125
 20
918.73077392578125
 42
-1
  0
VERTEX
  8
0
 10
1695.3077392578125
 20
935.73077392578125
 42
-1
  0
SEQEND
  0
POLYLINE
  8
0
 10
0
 20
0
 39
0
 70
1
 66
1
  0
VERTEX
  8
0
 10
1695.3077392578125
 20
848.73077392578125
 42
-1
  0
VERTEX
  8
0
 10
1695.3077392578125
 20
865.73077392578125
 42
-1
  0
SEQEND
  0
POLYLINE
  8
0
 10
0
 20
0
 39
0
 70
1
 66
1
  0
VERTEX
  8
0
 10
1629.84619140625
 20
44.307693481445313
 42
0
  0
VERTEX
  8
0
 10
1629.84619140625
 20
10.307692527770996
 42
0
  0
VERTEX
  8
0
 10
1729.84619140625
 20
10.307692527770996
 42
0
  0
VERTEX
  8
0
 10
1729.84619140625
 20
44.307693481445313
 42
0
  0
SEQEND
  0
POLYLINE
  8
0
 10
0
 20
0
 39
0
 70
1
 66
1
  0
VERTEX
  8
0
 10
1653.34619140625
 20
27.30769157409668
 42
-1
  0
VERTEX
  8
0
 10
1636.34619140625
 20
27.30769157409668
 42
-1
  0
SEQEND
  0
POLYLINE
  8
0
 10
0
 20
0
 39
0
 70
1
 66
1
  0
VERTEX
  8
0
 10
1723.34619140625
 20
27.30769157409668
 42
-1
  0
VERTEX
  8
0
 10
1706.34619140625
 20
27.30769157409668
 42
-1
  0
SEQEND
  0
POLYLINE
  8
0
 10
0
 20
0
 39
0
 70
1
 66
1
  0
VERTEX
  8
0
 10
1756.6153564453125
 20
932.5384521484375
 42
0
  0
VERTEX
  8
0
 10
1722.6153564453125
 20
932.5384521484375
 42
0
  0
VERTEX
  8
0
 10
1722.6153564453125
 20
832.5384521484375
 42
0
  0
VERTEX
  8
0
 10
1756.6153564453125
 20
832.5384521484375
 42
0
  0
SEQEND
  0
POLYLINE
  8
0
 10
0
 20
0
 39
0
 70
1
 66
1
  0
VERTEX
  8
0
 10
1739.6153564453125
 20
909.0384521484375
 42
-1
  0
VERTEX
  8
0
 10
1739.6153564453125
 20
926.0384521484375
 42
-1
  0
SEQEND
  0
POLYLINE
  8
0
 10
0
 20
0
 39
0
 70
1
 66
1
  0
VERTEX
  8
0
 10
1739.6153564453125
 20
839.0384521484375
 42
-1
  0
VERTEX
  8
0
 10
1739.6153564453125
 20
856.0384521484375
 42
-1
  0
SEQEND
  0
POLYLINE
  8
0
 10
0
 20
0
 39
0
 70
1
 66
1
  0
VERTEX
  8
0
 10
1678.3077392578125
 20
986.30767822265625
 42
0
  0
VERTEX
  8
0
 10
1678.3077392578125
 20
952.30767822265625
 42
0
  0
VERTEX
  8
0
 10
1778.3077392578125
 20
952.30767822265625
 42
0
  0
VERTEX
  8
0
 10
1778.3077392578125
 20
986.30767822265625
 42
0
  0
SEQEND
  0
POLYLINE
  8
0
 10
0
 20
0
 39
0
 70
1
 66
1
  0
VERTEX
  8
0
 10
1701.8077392578125
 20
969.30767822265625
 42
-1
  0
VERTEX
  8
0
 10
1684.8077392578125
 20
969.30767822265625
 42
-1
  0
SEQEND
  0
POLYLINE
  8
0
 10
0
 20
0
 39
0
 70
1
 66
1
  0
VERTEX
  8
0
 10
1771.8077392578125
 20
969.30767822265625
 42
-1
  0
VERTEX
  8
0
 10
1754.8077392578125
 20
969.30767822265625
 42
-1
  0
SEQEND
  0
POLYLINE
  8
0
 10
0
 20
0
 39
0
 70
1
 66
1
  0
VERTEX
  8
0
 10
1821
 20
663.923095703125
 42
0
  0
VERTEX
  8
0
 10
1787
 20
663.923095703125
 42
0
  0
VERTEX
  8
0
 10
1787
 20
563.923095703125
 42
0
  0
VERTEX
  8
0
 10
1821
 20
563.923095703125
 42
0
  0
SEQEND
  0
POLYLINE
  8
0
 10
0
 20
0
 39
0
 70
1
 66
1
  0
VERTEX
  8
0
 10
1804
 20
640.423095703125
 42
-1
  0
VERTEX
  8
0
 10
1804
 20
657.423095703125
 42
-1
  0
SEQEND
  0
POLYLINE
  8
0
 10
0
 20
0
 39
0
 70
1
 66
1
  0
VERTEX
  8
0
 10
1804
 20
570.423095703125
 42
-1
  0
VERTEX
  8
0
 10
1804
 20
587.423095703125
 42
-1
  0
SEQEND
  0
POLYLINE
  8
0
 10
0
 20
0
 39
0
 70
1
 66
1
  0
VERTEX
  8
0
 10
1865.3077392578125
 20
663.923095703125
 42
0
  0
VERTEX
  8
0
 10
1831.3077392578125
 20
663.923095703125
 42
0
  0
VERTEX
  8
0
 10
1831.3077392578125
 20
563.923095703125
 42
0
  0
VERTEX
  8
0
 10
1865.3077392578125
 20
563.923095703125
 42
0
  0
SEQEND
  0
POLYLINE
  8
0
 10
0
 20
0
 39
0
 70
1
 66
1
  0
VERTEX
  8
0
 10
1848.3077392578125
 20
640.423095703125
 42
-1
  0
VERTEX
  8
0
 10
1848.3077392578125
 20
657.423095703125
 42
-1
  0
SEQEND
  0
POLYLINE
  8
0
 10
0
 20
0
 39
0
 70
1
 66
1
  0
VERTEX
  8
0
 10
1848.3077392578125
 20
570.423095703125
 42
-1
  0
VERTEX
  8
0
 10
1848.3077392578125
 20
587.423095703125
 42
-1
  0
SEQEND
  0
POLYLINE
  8
0
 10
0
 20
0
 39
0
 70
1
 66
1
  0
VERTEX
  8
0
 10
1787
 20
382.84616088867187
 42
0
  0
VERTEX
  8
0
 10
1787
 20
348.84616088867187
 42
0
  0
VERTEX
  8
0
 10
1887
 20
348.84616088867187
 42
0
  0
VERTEX
  8
0
 10
1887
 20
382.84616088867187
 42
0
  0
SEQEND
  0
POLYLINE
  8
0
 10
0
 20
0
 39
0
 70
1
 66
1
  0
VERTEX
  8
0
 10
1810.5
 20
365.84616088867187
 42
-1
  0
VERTEX
  8
0
 10
1793.5
 20
365.84616088867187
 42
-1
  0
SEQEND
  0
POLYLINE
  8
0
 10
0
 20
0
 39
0
 70
1
 66
1
  0
VERTEX
  8
0
 10
1880.5
 20
365.84616088867187
 42
-1
  0
VERTEX
  8
0
 10
1863.5
 20
365.84616088867187
 42
-1
  0
SEQEND
  0
POLYLINE
  8
0
 10
0
 20
0
 39
0
 70
1
 66
1
  0
VERTEX
  8
0
 10
1788.6153564453125
 20
958.15386962890625
 42
0
  0
VERTEX
  8
0
 10
1788.6153564453125
 20
924.15386962890625
 42
0
  0
VERTEX
  8
0
 10
1888.6153564453125
 20
924.15386962890625
 42
0
  0
VERTEX
  8
0
 10
1888.6153564453125
 20
958.15386962890625
 42
0
  0
SEQEND
  0
POLYLINE
  8
0
 10
0
 20
0
 39
0
 70
1
 66
1
  0
VERTEX
  8
0
 10
1812.1153564453125
 20
941.15386962890625
 42
-1
  0
VERTEX
  8
0
 10
1795.1153564453125
 20
941.15386962890625
 42
-1
  0
SEQEND
  0
POLYLINE
  8
0
 10
0
 20
0
 39
0
 70
1
 66
1
  0
VERTEX
  8
0
 10
1882.1153564453125
 20
941.15386962890625
 42
-1
  0
VERTEX
  8
0
 10
1865.1153564453125
 20
941.15386962890625
 42
-1
  0
SEQEND
  0
POLYLINE
  8
0
 10
0
 20
0
 39
0
 70
1
 66
1
  0
VERTEX
  8
0
 10
1909.6153564453125
 20
663.923095703125
 42
0
  0
VERTEX
  8
0
 10
1875.6153564453125
 20
663.923095703125
 42
0
  0
VERTEX
  8
0
 10
1875.6153564453125
 20
563.923095703125
 42
0
  0
VERTEX
  8
0
 10
1909.6153564453125
 20
563.923095703125
 42
0
  0
SEQEND
  0
POLYLINE
  8
0
 10
0
 20
0
 39
0
 70
1
 66
1
  0
VERTEX
  8
0
 10
1892.6153564453125
 20
640.423095703125
 42
-1
  0
VERTEX
  8
0
 10
1892.6153564453125
 20
657.423095703125
 42
-1
  0
SEQEND
  0
POLYLINE
  8
0
 10
0
 20
0
 39
0
 70
1
 66
1
  0
VERTEX
  8
0
 10
1892.6153564453125
 20
570.423095703125
 42
-1
  0
VERTEX
  8
0
 10
1892.6153564453125
 20
587.423095703125
 42
-1
  0
SEQEND
  0
POLYLINE
  8
0
 10
0
 20
0
 39
0
 70
1
 66
1
  0
VERTEX
  8
0
 10
1993.5384521484375
 20
379.38461303710937
 42
0
  0
VERTEX
  8
0
 10
1993.5384521484375
 20
345.38461303710937
 42
0
  0
VERTEX
  8
0
 10
2093.53857421875
 20
345.38461303710937
 42
0
  0
VERTEX
  8
0
 10
2093.53857421875
 20
379.38461303710937
 42
0
  0
SEQEND
  0
POLYLINE
  8
0
 10
0
 20
0
 39
0
 70
1
 66
1
  0
VERTEX
  8
0
 10
2017.0384521484375
 20
362.38461303710937
 42
-1
  0
VERTEX
  8
0
 10
2000.0384521484375
 20
362.38461303710937
 42
-1
  0
SEQEND
  0
POLYLINE
  8
0
 10
0
 20
0
 39
0
 70
1
 66
1
  0
VERTEX
  8
0
 10
2087.03857421875
 20
362.38461303710937
 42
-1
  0
VERTEX
  8
0
 10
2070.03857421875
 20
362.38461303710937
 42
-1
  0
SEQEND
  0
POLYLINE
  8
0
 10
0
 20
0
 39
0
 70
1
 66
1
  0
VERTEX
  8
0
 10
2251.3076171875
 20
938.76922607421875
 42
0
  0
VERTEX
  8
0
 10
2251.3076171875
 20
904.76922607421875
 42
0
  0
VERTEX
  8
0
 10
2351.3076171875
 20
904.76922607421875
 42
0
  0
VERTEX
  8
0
 10
2351.3076171875
 20
938.76922607421875
 42
0
  0
SEQEND
  0
POLYLINE
  8
0
 10
0
 20
0
 39
0
 70
1
 66
1
  0
VERTEX
  8
0
 10
2274.8076171875
 20
921.76922607421875
 42
-1
  0
VERTEX
  8
0
 10
2257.8076171875
 20
921.76922607421875
 42
-1
  0
SEQEND
  0
POLYLINE
  8
0
 10
0
 20
0
 39
0
 70
1
 66
1
  0
VERTEX
  8
0
 10
2344.8076171875
 20
921.76922607421875
 42
-1
  0
VERTEX
  8
0
 10
2327.8076171875
 20
921.76922607421875
 42
-1
  0
SEQEND
  0
POLYLINE
  8
0
 10
0
 20
0
 39
0
 70
1
 66
1
  0
VERTEX
  8
0
 10
2251.3076171875
 20
982.84613037109375
 42
0
  0
VERTEX
  8
0
 10
2251.3076171875
 20
948.84613037109375
 42
0
  0
VERTEX
  8
0
 10
2351.3076171875
 20
948.84613037109375
 42
0
  0
VERTEX
  8
0
 10
2351.3076171875
 20
982.84613037109375
 42
0
  0
SEQEND
  0
POLYLINE
  8
0
 10
0
 20
0
 39
0
 70
1
 66
1
  0
VERTEX
  8
0
 10
2274.8076171875
 20
965.84613037109375
 42
-1
  0
VERTEX
  8
0
 10
2257.8076171875
 20
965.84613037109375
 42
-1
  0
SEQEND
  0
POLYLINE
  8
0
 10
0
 20
0
 39
0
 70
1
 66
1
  0
VERTEX
  8
0
 10
2344.8076171875
 20
965.84613037109375
 42
-1
  0
VERTEX
  8
0
 10
2327.8076171875
 20
965.84613037109375
 42
-1
  0
SEQEND
  0
POLYLINE
  8
0
 10
0
 20
0
 39
0
 70
1
 66
1
  0
VERTEX
  8
0
 10
2361.615478515625
 20
938.76922607421875
 42
0
  0
VERTEX
  8
0
 10
2361.615478515625
 20
904.76922607421875
 42
0
  0
VERTEX
  8
0
 10
2461.615478515625
 20
904.76922607421875
 42
0
  0
VERTEX
  8
0
 10
2461.615478515625
 20
938.76922607421875
 42
0
  0
SEQEND
  0
POLYLINE
  8
0
 10
0
 20
0
 39
0
 70
1
 66
1
  0
VERTEX
  8
0
 10
2385.115478515625
 20
921.76922607421875
 42
-1
  0
VERTEX
  8
0
 10
2368.115478515625
 20
921.76922607421875
 42
-1
  0
SEQEND
  0
POLYLINE
  8
0
 10
0
 20
0
 39
0
 70
1
 66
1
  0
VERTEX
  8
0
 10
2455.115478515625
 20
921.76922607421875
 42
-1
  0
VERTEX
  8
0
 10
2438.115478515625
 20
921.76922607421875
 42
-1
  0
SEQEND
  0
POLYLINE
  8
0
 10
0
 20
0
 39
0
 70
1
 66
1
  0
VERTEX
  8
0
 10
2361.615478515625
 20
982.84613037109375
 42
0
  0
VERTEX
  8
0
 10
2361.615478515625
 20
948.84613037109375
 42
0
  0
VERTEX
  8
0
 10
2461.615478515625
 20
948.84613037109375
 42
0
  0
VERTEX
  8
0
 10
2461.615478515625
 20
982.84613037109375
 42
0
  0
SEQEND
  0
POLYLINE
  8
0
 10
0
 20
0
 39
0
 70
1
 66
1
  0
VERTEX
  8
0
 10
2385.115478515625
 20
965.84613037109375
 42
-1
  0
VERTEX
  8
0
 10
2368.115478515625
 20
965.84613037109375
 42
-1
  0
SEQEND
  0
POLYLINE
  8
0
 10
0
 20
0
 39
0
 70
1
 66
1
  0
VERTEX
  8
0
 10
2455.115478515625
 20
965.84613037109375
 42
-1
  0
VERTEX
  8
0
 10
2438.115478515625
 20
965.84613037109375
 42
-1
  0
SEQEND
  0
ENDSEC
  0
EOF
