  0
SECTION
  2
ENTITIES
  0
POLYLINE
  8
0
 10
0
 20
0
 39
0
 70
1
 66
1
  0
VERTEX
  8
0
 10
0
 20
0
 42
0
  0
VERTEX
  8
0
 10
2800
 20
0
 42
0
  0
VERTEX
  8
0
 10
2800
 20
1200
 42
0
  0
VERTEX
  8
0
 10
0
 20
1200
 42
0
  0
SEQEND
  0
POLYLINE
  8
0
 10
0
 20
0
 39
0
 70
1
 66
1
  0
VERTEX
  8
0
 10
315.32000732421875
 20
800.32000732421875
 42
0
  0
VERTEX
  8
0
 10
10.319999694824219
 20
800.32000732421875
 42
0
  0
VERTEX
  8
0
 10
10.319999694824219
 20
10.319999694824219
 42
0
  0
VERTEX
  8
0
 10
315.32000732421875
 20
10.319999694824219
 42
0
  0
SEQEND
  0
POLYLINE
  8
0
 10
0
 20
0
 39
0
 70
1
 66
1
  0
VERTEX
  8
0
 10
245.32000732421875
 20
85.319999694824219
 42
-0.41421398520469666
  0
VERTEX
  8
0
 10
240.32000732421875
 20
80.319999694824219
 42
-0
  0
VERTEX
  8
0
 10
85.319999694824219
 20
80.319999694824219
 42
-0.41421398520469666
  0
VERTEX
  8
0
 10
80.319999694824219
 20
85.319999694824219
 42
-0
  0
VERTEX
  8
0
 10
80.319999694824219
 20
725.32000732421875
 42
-0.41421398520469666
  0
VERTEX
  8
0
 10
85.319999694824219
 20
730.32000732421875
 42
-0
  0
VERTEX
  8
0
 10
240.32000732421875
 20
730.32000732421875
 42
-0.41421398520469666
  0
VERTEX
  8
0
 10
245.32000732421875
 20
725.32000732421875
 42
-0
  0
SEQEND
  0
POLYLINE
  8
0
 10
0
 20
0
 39
0
 70
1
 66
1
  0
VERTEX
  8
0
 10
280.32000732421875
 20
393.82000732421875
 42
-1
  0
VERTEX
  8
0
 10
280.32000732421875
 20
416.82000732421875
 42
-1
  0
SEQEND
  0
POLYLINE
  8
0
 10
0
 20
0
 39
0
 70
1
 66
1
  0
VERTEX
  8
0
 10
45.319999694824219
 20
393.82000732421875
 42
-1
  0
VERTEX
  8
0
 10
45.319999694824219
 20
416.82000732421875
 42
-1
  0
SEQEND
  0
POLYLINE
  8
0
 10
0
 20
0
 39
0
 70
1
 66
1
  0
VERTEX
  8
0
 10
162.82000732421875
 20
33.819999694824219
 42
-1
  0
VERTEX
  8
0
 10
162.82000732421875
 20
56.819999694824219
 42
-1
  0
SEQEND
  0
POLYLINE
  8
0
 10
0
 20
0
 39
0
 70
1
 66
1
  0
VERTEX
  8
0
 10
45.319999694824219
 20
33.819999694824219
 42
-1
  0
VERTEX
  8
0
 10
45.319999694824219
 20
56.819999694824219
 42
-1
  0
SEQEND
  0
POLYLINE
  8
0
 10
0
 20
0
 39
0
 70
1
 66
1
  0
VERTEX
  8
0
 10
45.319999694824219
 20
213.82000732421875
 42
-1
  0
VERTEX
  8
0
 10
45.319999694824219
 20
236.82000732421875
 42
-1
  0
SEQEND
  0
POLYLINE
  8
0
 10
0
 20
0
 39
0
 70
1
 66
1
  0
VERTEX
  8
0
 10
280.32000732421875
 20
33.819999694824219
 42
-1
  0
VERTEX
  8
0
 10
280.32000732421875
 20
56.819999694824219
 42
-1
  0
SEQEND
  0
POLYLINE
  8
0
 10
0
 20
0
 39
0
 70
1
 66
1
  0
VERTEX
  8
0
 10
280.32000732421875
 20
213.82000732421875
 42
-1
  0
VERTEX
  8
0
 10
280.32000732421875
 20
236.82000732421875
 42
-1
  0
SEQEND
  0
POLYLINE
  8
0
 10
0
 20
0
 39
0
 70
1
 66
1
  0
VERTEX
  8
0
 10
162.82000732421875
 20
753.82000732421875
 42
-1
  0
VERTEX
  8
0
 10
162.82000732421875
 20
776.82000732421875
 42
-1
  0
SEQEND
  0
POLYLINE
  8
0
 10
0
 20
0
 39
0
 70
1
 66
1
  0
VERTEX
  8
0
 10
45.319999694824219
 20
573.82000732421875
 42
-1
  0
VERTEX
  8
0
 10
45.319999694824219
 20
596.82000732421875
 42
-1
  0
SEQEND
  0
POLYLINE
  8
0
 10
0
 20
0
 39
0
 70
1
 66
1
  0
VERTEX
  8
0
 10
45.319999694824219
 20
753.82000732421875
 42
-1
  0
VERTEX
  8
0
 10
45.319999694824219
 20
776.82000732421875
 42
-1
  0
SEQEND
  0
POLYLINE
  8
0
 10
0
 20
0
 39
0
 70
1
 66
1
  0
VERTEX
  8
0
 10
280.32000732421875
 20
573.82000732421875
 42
-1
  0
VERTEX
  8
0
 10
280.32000732421875
 20
596.82000732421875
 42
-1
  0
SEQEND
  0
POLYLINE
  8
0
 10
0
 20
0
 39
0
 70
1
 66
1
  0
VERTEX
  8
0
 10
280.32000732421875
 20
753.82000732421875
 42
-1
  0
VERTEX
  8
0
 10
280.32000732421875
 20
776.82000732421875
 42
-1
  0
SEQEND
  0
POLYLINE
  8
0
 10
0
 20
0
 39
0
 70
1
 66
1
  0
VERTEX
  8
0
 10
630.8800048828125
 20
800.32000732421875
 42
0
  0
VERTEX
  8
0
 10
325.8800048828125
 20
800.32000732421875
 42
0
  0
VERTEX
  8
0
 10
325.8800048828125
 20
10.319999694824219
 42
0
  0
VERTEX
  8
0
 10
630.8800048828125
 20
10.319999694824219
 42
0
  0
SEQEND
  0
POLYLINE
  8
0
 10
0
 20
0
 39
0
 70
1
 66
1
  0
VERTEX
  8
0
 10
560.8800048828125
 20
85.319999694824219
 42
-0.41421398520469666
  0
VERTEX
  8
0
 10
555.8800048828125
 20
80.319999694824219
 42
-0
  0
VERTEX
  8
0
 10
400.8800048828125
 20
80.319999694824219
 42
-0.41421398520469666
  0
VERTEX
  8
0
 10
395.8800048828125
 20
85.319999694824219
 42
-0
  0
VERTEX
  8
0
 10
395.8800048828125
 20
725.32000732421875
 42
-0.41421398520469666
  0
VERTEX
  8
0
 10
400.8800048828125
 20
730.32000732421875
 42
-0
  0
VERTEX
  8
0
 10
555.8800048828125
 20
730.32000732421875
 42
-0.41421398520469666
  0
VERTEX
  8
0
 10
560.8800048828125
 20
725.32000732421875
 42
-0
  0
SEQEND
  0
POLYLINE
  8
0
 10
0
 20
0
 39
0
 70
1
 66
1
  0
VERTEX
  8
0
 10
595.8800048828125
 20
393.82000732421875
 42
-1
  0
VERTEX
  8
0
 10
595.8800048828125
 20
416.82000732421875
 42
-1
  0
SEQEND
  0
POLYLINE
  8
0
 10
0
 20
0
 39
0
 70
1
 66
1
  0
VERTEX
  8
0
 10
360.8800048828125
 20
393.82000732421875
 42
-1
  0
VERTEX
  8
0
 10
360.8800048828125
 20
416.82000732421875
 42
-1
  0
SEQEND
  0
POLYLINE
  8
0
 10
0
 20
0
 39
0
 70
1
 66
1
  0
VERTEX
  8
0
 10
478.3800048828125
 20
33.819999694824219
 42
-1
  0
VERTEX
  8
0
 10
478.3800048828125
 20
56.819999694824219
 42
-1
  0
SEQEND
  0
POLYLINE
  8
0
 10
0
 20
0
 39
0
 70
1
 66
1
  0
VERTEX
  8
0
 10
360.8800048828125
 20
33.819999694824219
 42
-1
  0
VERTEX
  8
0
 10
360.8800048828125
 20
56.819999694824219
 42
-1
  0
SEQEND
  0
POLYLINE
  8
0
 10
0
 20
0
 39
0
 70
1
 66
1
  0
VERTEX
  8
0
 10
360.8800048828125
 20
213.82000732421875
 42
-1
  0
VERTEX
  8
0
 10
360.8800048828125
 20
236.82000732421875
 42
-1
  0
SEQEND
  0
POLYLINE
  8
0
 10
0
 20
0
 39
0
 70
1
 66
1
  0
VERTEX
  8
0
 10
595.8800048828125
 20
33.819999694824219
 42
-1
  0
VERTEX
  8
0
 10
595.8800048828125
 20
56.819999694824219
 42
-1
  0
SEQEND
  0
POLYLINE
  8
0
 10
0
 20
0
 39
0
 70
1
 66
1
  0
VERTEX
  8
0
 10
595.8800048828125
 20
213.82000732421875
 42
-1
  0
VERTEX
  8
0
 10
595.8800048828125
 20
236.82000732421875
 42
-1
  0
SEQEND
  0
POLYLINE
  8
0
 10
0
 20
0
 39
0
 70
1
 66
1
  0
VERTEX
  8
0
 10
478.3800048828125
 20
753.82000732421875
 42
-1
  0
VERTEX
  8
0
 10
478.3800048828125
 20
776.82000732421875
 42
-1
  0
SEQEND
  0
POLYLINE
  8
0
 10
0
 20
0
 39
0
 70
1
 66
1
  0
VERTEX
  8
0
 10
360.8800048828125
 20
573.82000732421875
 42
-1
  0
VERTEX
  8
0
 10
360.8800048828125
 20
596.82000732421875
 42
-1
  0
SEQEND
  0
POLYLINE
  8
0
 10
0
 20
0
 39
0
 70
1
 66
1
  0
VERTEX
  8
0
 10
360.8800048828125
 20
753.82000732421875
 42
-1
  0
VERTEX
  8
0
 10
360.8800048828125
 20
776.82000732421875
 42
-1
  0
SEQEND
  0
POLYLINE
  8
0
 10
0
 20
0
 39
0
 70
1
 66
1
  0
VERTEX
  8
0
 10
595.8800048828125
 20
573.82000732421875
 42
-1
  0
VERTEX
  8
0
 10
595.8800048828125
 20
596.82000732421875
 42
-1
  0
SEQEND
  0
POLYLINE
  8
0
 10
0
 20
0
 39
0
 70
1
 66
1
  0
VERTEX
  8
0
 10
595.8800048828125
 20
753.82000732421875
 42
-1
  0
VERTEX
  8
0
 10
595.8800048828125
 20
776.82000732421875
 42
-1
  0
SEQEND
  0
POLYLINE
  8
0
 10
0
 20
0
 39
0
 70
1
 66
1
  0
VERTEX
  8
0
 10
10.319999694824219
 20
1115.56005859375
 42
0
  0
VERTEX
  8
0
 10
10.319999694824219
 20
810.55999755859375
 42
0
  0
VERTEX
  8
0
 10
800.32000732421875
 20
810.55999755859375
 42
0
  0
VERTEX
  8
0
 10
800.32000732421875
 20
1115.56005859375
 42
0
  0
SEQEND
  0
POLYLINE
  8
0
 10
0
 20
0
 39
0
 70
1
 66
1
  0
VERTEX
  8
0
 10
725.32000732421875
 20
1045.56005859375
 42
-0.41421398520469666
  0
VERTEX
  8
0
 10
730.32000732421875
 20
1040.56005859375
 42
-0
  0
VERTEX
  8
0
 10
730.32000732421875
 20
885.55999755859375
 42
-0.41421398520469666
  0
VERTEX
  8
0
 10
725.32000732421875
 20
880.55999755859375
 42
-0
  0
VERTEX
  8
0
 10
85.319999694824219
 20
880.55999755859375
 42
-0.41421398520469666
  0
VERTEX
  8
0
 10
80.319999694824219
 20
885.55999755859375
 42
-0
  0
VERTEX
  8
0
 10
80.319999694824219
 20
1040.56005859375
 42
-0.41421398520469666
  0
VERTEX
  8
0
 10
85.319999694824219
 20
1045.56005859375
 42
-0
  0
SEQEND
  0
POLYLINE
  8
0
 10
0
 20
0
 39
0
 70
1
 66
1
  0
VERTEX
  8
0
 10
416.82000732421875
 20
1080.56005859375
 42
-1
  0
VERTEX
  8
0
 10
393.82000732421875
 20
1080.56005859375
 42
-1
  0
SEQEND
  0
POLYLINE
  8
0
 10
0
 20
0
 39
0
 70
1
 66
1
  0
VERTEX
  8
0
 10
416.82000732421875
 20
845.55999755859375
 42
-1
  0
VERTEX
  8
0
 10
393.82000732421875
 20
845.55999755859375
 42
-1
  0
SEQEND
  0
POLYLINE
  8
0
 10
0
 20
0
 39
0
 70
1
 66
1
  0
VERTEX
  8
0
 10
776.82000732421875
 20
963.05999755859375
 42
-1
  0
VERTEX
  8
0
 10
753.82000732421875
 20
963.05999755859375
 42
-1
  0
SEQEND
  0
POLYLINE
  8
0
 10
0
 20
0
 39
0
 70
1
 66
1
  0
VERTEX
  8
0
 10
776.82000732421875
 20
845.55999755859375
 42
-1
  0
VERTEX
  8
0
 10
753.82000732421875
 20
845.55999755859375
 42
-1
  0
SEQEND
  0
POLYLINE
  8
0
 10
0
 20
0
 39
0
 70
1
 66
1
  0
VERTEX
  8
0
 10
596.82000732421875
 20
845.55999755859375
 42
-1
  0
VERTEX
  8
0
 10
573.82000732421875
 20
845.55999755859375
 42
-1
  0
SEQEND
  0
POLYLINE
  8
0
 10
0
 20
0
 39
0
 70
1
 66
1
  0
VERTEX
  8
0
 10
776.82000732421875
 20
1080.56005859375
 42
-1
  0
VERTEX
  8
0
 10
753.82000732421875
 20
1080.56005859375
 42
-1
  0
SEQEND
  0
POLYLINE
  8
0
 10
0
 20
0
 39
0
 70
1
 66
1
  0
VERTEX
  8
0
 10
596.82000732421875
 20
1080.56005859375
 42
-1
  0
VERTEX
  8
0
 10
573.82000732421875
 20
1080.56005859375
 42
-1
  0
SEQEND
  0
POLYLINE
  8
0
 10
0
 20
0
 39
0
 70
1
 66
1
  0
VERTEX
  8
0
 10
56.819999694824219
 20
963.05999755859375
 42
-1
  0
VERTEX
  8
0
 10
33.819999694824219
 20
963.05999755859375
 42
-1
  0
SEQEND
  0
POLYLINE
  8
0
 10
0
 20
0
 39
0
 70
1
 66
1
  0
VERTEX
  8
0
 10
236.82000732421875
 20
845.55999755859375
 42
-1
  0
VERTEX
  8
0
 10
213.82000732421875
 20
845.55999755859375
 42
-1
  0
SEQEND
  0
POLYLINE
  8
0
 10
0
 20
0
 39
0
 70
1
 66
1
  0
VERTEX
  8
0
 10
56.819999694824219
 20
845.55999755859375
 42
-1
  0
VERTEX
  8
0
 10
33.819999694824219
 20
845.55999755859375
 42
-1
  0
SEQEND
  0
POLYLINE
  8
0
 10
0
 20
0
 39
0
 70
1
 66
1
  0
VERTEX
  8
0
 10
236.82000732421875
 20
1080.56005859375
 42
-1
  0
VERTEX
  8
0
 10
213.82000732421875
 20
1080.56005859375
 42
-1
  0
SEQEND
  0
POLYLINE
  8
0
 10
0
 20
0
 39
0
 70
1
 66
1
  0
VERTEX
  8
0
 10
56.819999694824219
 20
1080.56005859375
 42
-1
  0
VERTEX
  8
0
 10
33.819999694824219
 20
1080.56005859375
 42
-1
  0
SEQEND
  0
POLYLINE
  8
0
 10
0
 20
0
 39
0
 70
1
 66
1
  0
VERTEX
  8
0
 10
946.44000244140625
 20
800.32000732421875
 42
0
  0
VERTEX
  8
0
 10
641.44000244140625
 20
800.32000732421875
 42
0
  0
VERTEX
  8
0
 10
641.44000244140625
 20
10.319999694824219
 42
0
  0
VERTEX
  8
0
 10
946.44000244140625
 20
10.319999694824219
 42
0
  0
SEQEND
  0
POLYLINE
  8
0
 10
0
 20
0
 39
0
 70
1
 66
1
  0
VERTEX
  8
0
 10
876.44000244140625
 20
85.319999694824219
 42
-0.41421398520469666
  0
VERTEX
  8
0
 10
871.44000244140625
 20
80.319999694824219
 42
-0
  0
VERTEX
  8
0
 10
716.44000244140625
 20
80.319999694824219
 42
-0.41421398520469666
  0
VERTEX
  8
0
 10
711.44000244140625
 20
85.319999694824219
 42
-0
  0
VERTEX
  8
0
 10
711.44000244140625
 20
725.32000732421875
 42
-0.41421398520469666
  0
VERTEX
  8
0
 10
716.44000244140625
 20
730.32000732421875
 42
-0
  0
VERTEX
  8
0
 10
871.44000244140625
 20
730.32000732421875
 42
-0.41421398520469666
  0
VERTEX
  8
0
 10
876.44000244140625
 20
725.32000732421875
 42
-0
  0
SEQEND
  0
POLYLINE
  8
0
 10
0
 20
0
 39
0
 70
1
 66
1
  0
VERTEX
  8
0
 10
911.44000244140625
 20
393.82000732421875
 42
-1
  0
VERTEX
  8
0
 10
911.44000244140625
 20
416.82000732421875
 42
-1
  0
SEQEND
  0
POLYLINE
  8
0
 10
0
 20
0
 39
0
 70
1
 66
1
  0
VERTEX
  8
0
 10
676.44000244140625
 20
393.82000732421875
 42
-1
  0
VERTEX
  8
0
 10
676.44000244140625
 20
416.82000732421875
 42
-1
  0
SEQEND
  0
POLYLINE
  8
0
 10
0
 20
0
 39
0
 70
1
 66
1
  0
VERTEX
  8
0
 10
793.94000244140625
 20
33.819999694824219
 42
-1
  0
VERTEX
  8
0
 10
793.94000244140625
 20
56.819999694824219
 42
-1
  0
SEQEND
  0
POLYLINE
  8
0
 10
0
 20
0
 39
0
 70
1
 66
1
  0
VERTEX
  8
0
 10
676.44000244140625
 20
33.819999694824219
 42
-1
  0
VERTEX
  8
0
 10
676.44000244140625
 20
56.819999694824219
 42
-1
  0
SEQEND
  0
POLYLINE
  8
0
 10
0
 20
0
 39
0
 70
1
 66
1
  0
VERTEX
  8
0
 10
676.44000244140625
 20
213.82000732421875
 42
-1
  0
VERTEX
  8
0
 10
676.44000244140625
 20
236.82000732421875
 42
-1
  0
SEQEND
  0
POLYLINE
  8
0
 10
0
 20
0
 39
0
 70
1
 66
1
  0
VERTEX
  8
0
 10
911.44000244140625
 20
33.819999694824219
 42
-1
  0
VERTEX
  8
0
 10
911.44000244140625
 20
56.819999694824219
 42
-1
  0
SEQEND
  0
POLYLINE
  8
0
 10
0
 20
0
 39
0
 70
1
 66
1
  0
VERTEX
  8
0
 10
911.44000244140625
 20
213.82000732421875
 42
-1
  0
VERTEX
  8
0
 10
911.44000244140625
 20
236.82000732421875
 42
-1
  0
SEQEND
  0
POLYLINE
  8
0
 10
0
 20
0
 39
0
 70
1
 66
1
  0
VERTEX
  8
0
 10
793.94000244140625
 20
753.82000732421875
 42
-1
  0
VERTEX
  8
0
 10
793.94000244140625
 20
776.82000732421875
 42
-1
  0
SEQEND
  0
POLYLINE
  8
0
 10
0
 20
0
 39
0
 70
1
 66
1
  0
VERTEX
  8
0
 10
676.44000244140625
 20
573.82000732421875
 42
-1
  0
VERTEX
  8
0
 10
676.44000244140625
 20
596.82000732421875
 42
-1
  0
SEQEND
  0
POLYLINE
  8
0
 10
0
 20
0
 39
0
 70
1
 66
1
  0
VERTEX
  8
0
 10
676.44000244140625
 20
753.82000732421875
 42
-1
  0
VERTEX
  8
0
 10
676.44000244140625
 20
776.82000732421875
 42
-1
  0
SEQEND
  0
POLYLINE
  8
0
 10
0
 20
0
 39
0
 70
1
 66
1
  0
VERTEX
  8
0
 10
911.44000244140625
 20
573.82000732421875
 42
-1
  0
VERTEX
  8
0
 10
911.44000244140625
 20
596.82000732421875
 42
-1
  0
SEQEND
  0
POLYLINE
  8
0
 10
0
 20
0
 39
0
 70
1
 66
1
  0
VERTEX
  8
0
 10
911.44000244140625
 20
753.82000732421875
 42
-1
  0
VERTEX
  8
0
 10
911.44000244140625
 20
776.82000732421875
 42
-1
  0
SEQEND
  0
POLYLINE
  8
0
 10
0
 20
0
 39
0
 70
1
 66
1
  0
VERTEX
  8
0
 10
1262
 20
800.32000732421875
 42
0
  0
VERTEX
  8
0
 10
957
 20
800.32000732421875
 42
0
  0
VERTEX
  8
0
 10
957
 20
10.319999694824219
 42
0
  0
VERTEX
  8
0
 10
1262
 20
10.319999694824219
 42
0
  0
SEQEND
  0
POLYLINE
  8
0
 10
0
 20
0
 39
0
 70
1
 66
1
  0
VERTEX
  8
0
 10
1192
 20
85.319999694824219
 42
-0.41421398520469666
  0
VERTEX
  8
0
 10
1187
 20
80.319999694824219
 42
-0
  0
VERTEX
  8
0
 10
1032
 20
80.319999694824219
 42
-0.41421398520469666
  0
VERTEX
  8
0
 10
1027
 20
85.319999694824219
 42
-0
  0
VERTEX
  8
0
 10
1027
 20
725.32000732421875
 42
-0.41421398520469666
  0
VERTEX
  8
0
 10
1032
 20
730.32000732421875
 42
-0
  0
VERTEX
  8
0
 10
1187
 20
730.32000732421875
 42
-0.41421398520469666
  0
VERTEX
  8
0
 10
1192
 20
725.32000732421875
 42
-0
  0
SEQEND
  0
POLYLINE
  8
0
 10
0
 20
0
 39
0
 70
1
 66
1
  0
VERTEX
  8
0
 10
1227
 20
393.82000732421875
 42
-1
  0
VERTEX
  8
0
 10
1227
 20
416.82000732421875
 42
-1
  0
SEQEND
  0
POLYLINE
  8
0
 10
0
 20
0
 39
0
 70
1
 66
1
  0
VERTEX
  8
0
 10
992
 20
393.82000732421875
 42
-1
  0
VERTEX
  8
0
 10
992
 20
416.82000732421875
 42
-1
  0
SEQEND
  0
POLYLINE
  8
0
 10
0
 20
0
 39
0
 70
1
 66
1
  0
VERTEX
  8
0
 10
1109.5
 20
33.819999694824219
 42
-1
  0
VERTEX
  8
0
 10
1109.5
 20
56.819999694824219
 42
-1
  0
SEQEND
  0
POLYLINE
  8
0
 10
0
 20
0
 39
0
 70
1
 66
1
  0
VERTEX
  8
0
 10
992
 20
33.819999694824219
 42
-1
  0
VERTEX
  8
0
 10
992
 20
56.819999694824219
 42
-1
  0
SEQEND
  0
POLYLINE
  8
0
 10
0
 20
0
 39
0
 70
1
 66
1
  0
VERTEX
  8
0
 10
992
 20
213.82000732421875
 42
-1
  0
VERTEX
  8
0
 10
992
 20
236.82000732421875
 42
-1
  0
SEQEND
  0
POLYLINE
  8
0
 10
0
 20
0
 39
0
 70
1
 66
1
  0
VERTEX
  8
0
 10
1227
 20
33.819999694824219
 42
-1
  0
VERTEX
  8
0
 10
1227
 20
56.819999694824219
 42
-1
  0
SEQEND
  0
POLYLINE
  8
0
 10
0
 20
0
 39
0
 70
1
 66
1
  0
VERTEX
  8
0
 10
1227
 20
213.82000732421875
 42
-1
  0
VERTEX
  8
0
 10
1227
 20
236.82000732421875
 42
-1
  0
SEQEND
  0
POLYLINE
  8
0
 10
0
 20
0
 39
0
 70
1
 66
1
  0
VERTEX
  8
0
 10
1109.5
 20
753.82000732421875
 42
-1
  0
VERTEX
  8
0
 10
1109.5
 20
776.82000732421875
 42
-1
  0
SEQEND
  0
POLYLINE
  8
0
 10
0
 20
0
 39
0
 70
1
 66
1
  0
VERTEX
  8
0
 10
992
 20
573.82000732421875
 42
-1
  0
VERTEX
  8
0
 10
992
 20
596.82000732421875
 42
-1
  0
SEQEND
  0
POLYLINE
  8
0
 10
0
 20
0
 39
0
 70
1
 66
1
  0
VERTEX
  8
0
 10
992
 20
753.82000732421875
 42
-1
  0
VERTEX
  8
0
 10
992
 20
776.82000732421875
 42
-1
  0
SEQEND
  0
POLYLINE
  8
0
 10
0
 20
0
 39
0
 70
1
 66
1
  0
VERTEX
  8
0
 10
1227
 20
573.82000732421875
 42
-1
  0
VERTEX
  8
0
 10
1227
 20
596.82000732421875
 42
-1
  0
SEQEND
  0
POLYLINE
  8
0
 10
0
 20
0
 39
0
 70
1
 66
1
  0
VERTEX
  8
0
 10
1227
 20
753.82000732421875
 42
-1
  0
VERTEX
  8
0
 10
1227
 20
776.82000732421875
 42
-1
  0
SEQEND
  0
POLYLINE
  8
0
 10
0
 20
0
 39
0
 70
1
 66
1
  0
VERTEX
  8
0
 10
810.84002685546875
 20
810.55999755859375
 42
-0
  0
VERTEX
  8
0
 10
1031.8399658203125
 20
810.55999755859375
 42
-0
  0
VERTEX
  8
0
 10
1031.8399658203125
 20
1111.0509033203125
 42
-0
  0
VERTEX
  8
0
 10
966.601806640625
 20
1185.56005859375
 42
0
  0
VERTEX
  8
0
 10
810.84002685546875
 20
1185.56005859375
 42
0
  0
SEQEND
  0
POLYLINE
  8
0
 10
0
 20
0
 39
0
 70
1
 66
1
  0
VERTEX
  8
0
 10
965.9012451171875
 20
864.15472412109375
 42
-0
  0
VERTEX
  8
0
 10
876.77874755859375
 20
864.15472412109375
 42
-0.54372489452362061
  0
VERTEX
  8
0
 10
867.65301513671875
 20
878.2437744140625
 42
0
  0
VERTEX
  8
0
 10
912.2142333984375
 20
977.69354248046875
 42
-0.64772027730941772
  0
VERTEX
  8
0
 10
930.46575927734375
 20
977.69354248046875
 42
0
  0
VERTEX
  8
0
 10
975.0269775390625
 20
878.2437744140625
 42
-0.54372489452362061
  0
SEQEND
  0
POLYLINE
  8
0
 10
0
 20
0
 39
0
 70
1
 66
1
  0
VERTEX
  8
0
 10
1042.4000244140625
 20
810.55999755859375
 42
-0
  0
VERTEX
  8
0
 10
1263.4000244140625
 20
810.55999755859375
 42
-0
  0
VERTEX
  8
0
 10
1263.4000244140625
 20
1185.56005859375
 42
0
  0
VERTEX
  8
0
 10
1042.4000244140625
 20
1185.56005859375
 42
0
  0
SEQEND
  0
POLYLINE
  8
0
 10
0
 20
0
 39
0
 70
1
 66
1
  0
VERTEX
  8
0
 10
1110.4000244140625
 20
885.55999755859375
 42
-0
  0
VERTEX
  8
0
 10
1110.4000244140625
 20
1110.56005859375
 42
-0
  0
VERTEX
  8
0
 10
1195.4000244140625
 20
1110.56005859375
 42
0
  0
VERTEX
  8
0
 10
1195.4000244140625
 20
885.55999755859375
 42
0
  0
SEQEND
  0
POLYLINE
  8
0
 10
0
 20
0
 39
0
 70
1
 66
1
  0
VERTEX
  8
0
 10
1272.56005859375
 20
10.319999694824219
 42
-0
  0
VERTEX
  8
0
 10
1493.56005859375
 20
10.319999694824219
 42
-0
  0
VERTEX
  8
0
 10
1493.56005859375
 20
385.32000732421875
 42
0
  0
VERTEX
  8
0
 10
1272.56005859375
 20
385.32000732421875
 42
0
  0
SEQEND
  0
POLYLINE
  8
0
 10
0
 20
0
 39
0
 70
1
 66
1
  0
VERTEX
  8
0
 10
1340.56005859375
 20
85.319999694824219
 42
-0
  0
VERTEX
  8
0
 10
1340.56005859375
 20
310.32000732421875
 42
-0
  0
VERTEX
  8
0
 10
1425.56005859375
 20
310.32000732421875
 42
0
  0
VERTEX
  8
0
 10
1425.56005859375
 20
85.319999694824219
 42
0
  0
SEQEND
  0
POLYLINE
  8
0
 10
0
 20
0
 39
0
 70
1
 66
1
  0
VERTEX
  8
0
 10
1272.56005859375
 20
395.32000732421875
 42
-0
  0
VERTEX
  8
0
 10
1493.56005859375
 20
395.32000732421875
 42
-0
  0
VERTEX
  8
0
 10
1493.56005859375
 20
770.32000732421875
 42
0
  0
VERTEX
  8
0
 10
1272.56005859375
 20
770.32000732421875
 42
0
  0
SEQEND
  0
POLYLINE
  8
0
 10
0
 20
0
 39
0
 70
1
 66
1
  0
VERTEX
  8
0
 10
1340.56005859375
 20
470.32000732421875
 42
-0
  0
VERTEX
  8
0
 10
1340.56005859375
 20
695.32000732421875
 42
-0
  0
VERTEX
  8
0
 10
1425.56005859375
 20
695.32000732421875
 42
0
  0
VERTEX
  8
0
 10
1425.56005859375
 20
470.32000732421875
 42
0
  0
SEQEND
  0
POLYLINE
  8
0
 10
0
 20
0
 39
0
 70
1
 66
1
  0
VERTEX
  8
0
 10
1273.9599609375
 20
780.32000732421875
 42
-0
  0
VERTEX
  8
0
 10
1494.9599609375
 20
780.32000732421875
 42
-0
  0
VERTEX
  8
0
 10
1494.9599609375
 20
1155.3199462890625
 42
0
  0
VERTEX
  8
0
 10
1273.9599609375
 20
1155.3199462890625
 42
0
  0
SEQEND
  0
POLYLINE
  8
0
 10
0
 20
0
 39
0
 70
1
 66
1
  0
VERTEX
  8
0
 10
1341.9599609375
 20
855.32000732421875
 42
-0
  0
VERTEX
  8
0
 10
1341.9599609375
 20
1080.3199462890625
 42
-0
  0
VERTEX
  8
0
 10
1426.9599609375
 20
1080.3199462890625
 42
0
  0
VERTEX
  8
0
 10
1426.9599609375
 20
855.32000732421875
 42
0
  0
SEQEND
  0
POLYLINE
  8
0
 10
0
 20
0
 39
0
 70
1
 66
1
  0
VERTEX
  8
0
 10
1504.1199951171875
 20
10.319999694824219
 42
-0
  0
VERTEX
  8
0
 10
1725.1199951171875
 20
10.319999694824219
 42
-0
  0
VERTEX
  8
0
 10
1725.1199951171875
 20
385.32000732421875
 42
0
  0
VERTEX
  8
0
 10
1504.1199951171875
 20
385.32000732421875
 42
0
  0
SEQEND
  0
POLYLINE
  8
0
 10
0
 20
0
 39
0
 70
1
 66
1
  0
VERTEX
  8
0
 10
1572.1199951171875
 20
85.319999694824219
 42
-0
  0
VERTEX
  8
0
 10
1572.1199951171875
 20
310.32000732421875
 42
-0
  0
VERTEX
  8
0
 10
1657.1199951171875
 20
310.32000732421875
 42
0
  0
VERTEX
  8
0
 10
1657.1199951171875
 20
85.319999694824219
 42
0
  0
SEQEND
  0
POLYLINE
  8
0
 10
0
 20
0
 39
0
 70
1
 66
1
  0
VERTEX
  8
0
 10
1504.1199951171875
 20
395.32000732421875
 42
-0
  0
VERTEX
  8
0
 10
1725.1199951171875
 20
395.32000732421875
 42
-0
  0
VERTEX
  8
0
 10
1725.1199951171875
 20
695.81085205078125
 42
-0
  0
VERTEX
  8
0
 10
1659.8818359375
 20
770.32000732421875
 42
0
  0
VERTEX
  8
0
 10
1504.1199951171875
 20
770.32000732421875
 42
0
  0
SEQEND
  0
POLYLINE
  8
0
 10
0
 20
0
 39
0
 70
1
 66
1
  0
VERTEX
  8
0
 10
1659.1812744140625
 20
448.91473388671875
 42
-0
  0
VERTEX
  8
0
 10
1570.0587158203125
 20
448.91473388671875
 42
-0.54372489452362061
  0
VERTEX
  8
0
 10
1560.9329833984375
 20
463.00381469726562
 42
0
  0
VERTEX
  8
0
 10
1605.4942626953125
 20
562.45355224609375
 42
-0.64772027730941772
  0
VERTEX
  8
0
 10
1623.7457275390625
 20
562.45355224609375
 42
0
  0
VERTEX
  8
0
 10
1668.3070068359375
 20
463.00381469726562
 42
-0.54372489452362061
  0
SEQEND
  0
POLYLINE
  8
0
 10
0
 20
0
 39
0
 70
1
 66
1
  0
VERTEX
  8
0
 10
1505.52001953125
 20
780.32000732421875
 42
-0
  0
VERTEX
  8
0
 10
1726.52001953125
 20
780.32000732421875
 42
-0
  0
VERTEX
  8
0
 10
1726.52001953125
 20
1080.810791015625
 42
-0
  0
VERTEX
  8
0
 10
1661.28173828125
 20
1155.3199462890625
 42
0
  0
VERTEX
  8
0
 10
1505.52001953125
 20
1155.3199462890625
 42
0
  0
SEQEND
  0
POLYLINE
  8
0
 10
0
 20
0
 39
0
 70
1
 66
1
  0
VERTEX
  8
0
 10
1660.5811767578125
 20
833.91473388671875
 42
-0
  0
VERTEX
  8
0
 10
1571.458740234375
 20
833.91473388671875
 42
-0.54372489452362061
  0
VERTEX
  8
0
 10
1562.3330078125
 20
848.0037841796875
 42
0
  0
VERTEX
  8
0
 10
1606.894287109375
 20
947.45355224609375
 42
-0.64772027730941772
  0
VERTEX
  8
0
 10
1625.145751953125
 20
947.45355224609375
 42
0
  0
VERTEX
  8
0
 10
1669.70703125
 20
848.0037841796875
 42
-0.54372489452362061
  0
SEQEND
  0
POLYLINE
  8
0
 10
0
 20
0
 39
0
 70
1
 66
1
  0
VERTEX
  8
0
 10
1735.6800537109375
 20
10.319999694824219
 42
-0
  0
VERTEX
  8
0
 10
1956.6800537109375
 20
10.319999694824219
 42
-0
  0
VERTEX
  8
0
 10
1956.6800537109375
 20
310.81085205078125
 42
-0
  0
VERTEX
  8
0
 10
1891.4417724609375
 20
385.32000732421875
 42
0
  0
VERTEX
  8
0
 10
1735.6800537109375
 20
385.32000732421875
 42
0
  0
SEQEND
  0
POLYLINE
  8
0
 10
0
 20
0
 39
0
 70
1
 66
1
  0
VERTEX
  8
0
 10
1890.7412109375
 20
63.914745330810547
 42
-0
  0
VERTEX
  8
0
 10
1801.6187744140625
 20
63.914745330810547
 42
-0.54372489452362061
  0
VERTEX
  8
0
 10
1792.4930419921875
 20
78.003799438476562
 42
0
  0
VERTEX
  8
0
 10
1837.05419921875
 20
177.45353698730469
 42
-0.64772027730941772
  0
VERTEX
  8
0
 10
1855.3057861328125
 20
177.45353698730469
 42
0
  0
VERTEX
  8
0
 10
1899.866943359375
 20
78.003799438476562
 42
-0.54372489452362061
  0
SEQEND
  0
POLYLINE
  8
0
 10
0
 20
0
 39
0
 70
1
 66
1
  0
VERTEX
  8
0
 10
1735.6800537109375
 20
395.32000732421875
 42
-0
  0
VERTEX
  8
0
 10
1956.6800537109375
 20
395.32000732421875
 42
-0
  0
VERTEX
  8
0
 10
1956.6800537109375
 20
695.81085205078125
 42
-0
  0
VERTEX
  8
0
 10
1891.4417724609375
 20
770.32000732421875
 42
0
  0
VERTEX
  8
0
 10
1735.6800537109375
 20
770.32000732421875
 42
0
  0
SEQEND
  0
POLYLINE
  8
0
 10
0
 20
0
 39
0
 70
1
 66
1
  0
VERTEX
  8
0
 10
1890.7412109375
 20
448.91473388671875
 42
-0
  0
VERTEX
  8
0
 10
1801.6187744140625
 20
448.91473388671875
 42
-0.54372489452362061
  0
VERTEX
  8
0
 10
1792.4930419921875
 20
463.00381469726562
 42
0
  0
VERTEX
  8
0
 10
1837.05419921875
 20
562.45355224609375
 42
-0.64772027730941772
  0
VERTEX
  8
0
 10
1855.3057861328125
 20
562.45355224609375
 42
0
  0
VERTEX
  8
0
 10
1899.866943359375
 20
463.00381469726562
 42
-0.54372489452362061
  0
SEQEND
  0
POLYLINE
  8
0
 10
0
 20
0
 39
0
 70
1
 66
1
  0
VERTEX
  8
0
 10
1737.0799560546875
 20
780.32000732421875
 42
-0
  0
VERTEX
  8
0
 10
1958.0799560546875
 20
780.32000732421875
 42
-0
  0
VERTEX
  8
0
 10
1958.0799560546875
 20
1155.3199462890625
 42
0
  0
VERTEX
  8
0
 10
1737.0799560546875
 20
1155.3199462890625
 42
0
  0
SEQEND
  0
POLYLINE
  8
0
 10
0
 20
0
 39
0
 70
1
 66
1
  0
VERTEX
  8
0
 10
1805.0799560546875
 20
855.32000732421875
 42
-0
  0
VERTEX
  8
0
 10
1805.0799560546875
 20
1080.3199462890625
 42
-0
  0
VERTEX
  8
0
 10
1890.0799560546875
 20
1080.3199462890625
 42
0
  0
VERTEX
  8
0
 10
1890.0799560546875
 20
855.32000732421875
 42
0
  0
SEQEND
  0
POLYLINE
  8
0
 10
0
 20
0
 39
0
 70
1
 66
1
  0
VERTEX
  8
0
 10
1967.239990234375
 20
10.319999694824219
 42
-0
  0
VERTEX
  8
0
 10
2227.239990234375
 20
10.319999694824219
 42
-0
  0
VERTEX
  8
0
 10
2227.239990234375
 20
310.32000732421875
 42
-0
  0
VERTEX
  8
0
 10
1967.239990234375
 20
310.32000732421875
 42
0
  0
SEQEND
  0
POLYLINE
  8
0
 10
0
 20
0
 39
0
 70
1
 66
1
  0
VERTEX
  8
0
 10
2189.855712890625
 20
32.438377380371094
 42
-1
  0
VERTEX
  8
0
 10
2189.855712890625
 20
68.438377380371094
 42
-1
  0
SEQEND
  0
POLYLINE
  8
0
 10
0
 20
0
 39
0
 70
1
 66
1
  0
VERTEX
  8
0
 10
2002.8853759765625
 20
250.71212768554687
 42
-1
  0
VERTEX
  8
0
 10
2002.8853759765625
 20
286.71212768554687
 42
-1
  0
SEQEND
  0
POLYLINE
  8
0
 10
0
 20
0
 39
0
 70
1
 66
1
  0
VERTEX
  8
0
 10
1967.239990234375
 20
320.55999755859375
 42
-0
  0
VERTEX
  8
0
 10
2227.239990234375
 20
320.55999755859375
 42
-0
  0
VERTEX
  8
0
 10
2227.239990234375
 20
620.55999755859375
 42
-0
  0
VERTEX
  8
0
 10
1967.239990234375
 20
620.55999755859375
 42
0
  0
SEQEND
  0
POLYLINE
  8
0
 10
0
 20
0
 39
0
 70
1
 66
1
  0
VERTEX
  8
0
 10
2189.855712890625
 20
342.67837524414062
 42
-1
  0
VERTEX
  8
0
 10
2189.855712890625
 20
378.67837524414062
 42
-1
  0
SEQEND
  0
POLYLINE
  8
0
 10
0
 20
0
 39
0
 70
1
 66
1
  0
VERTEX
  8
0
 10
2002.8853759765625
 20
560.9521484375
 42
-1
  0
VERTEX
  8
0
 10
2002.8853759765625
 20
596.9521484375
 42
-1
  0
SEQEND
  0
POLYLINE
  8
0
 10
0
 20
0
 39
0
 70
1
 66
1
  0
VERTEX
  8
0
 10
1968.6400146484375
 20
630.79998779296875
 42
-0
  0
VERTEX
  8
0
 10
2228.639892578125
 20
630.79998779296875
 42
-0
  0
VERTEX
  8
0
 10
2228.639892578125
 20
930.79998779296875
 42
-0
  0
VERTEX
  8
0
 10
1968.6400146484375
 20
930.79998779296875
 42
0
  0
SEQEND
  0
POLYLINE
  8
0
 10
0
 20
0
 39
0
 70
1
 66
1
  0
VERTEX
  8
0
 10
2191.255859375
 20
652.91839599609375
 42
-1
  0
VERTEX
  8
0
 10
2191.255859375
 20
688.91839599609375
 42
-1
  0
SEQEND
  0
POLYLINE
  8
0
 10
0
 20
0
 39
0
 70
1
 66
1
  0
VERTEX
  8
0
 10
2004.2852783203125
 20
871.192138671875
 42
-1
  0
VERTEX
  8
0
 10
2004.2852783203125
 20
907.192138671875
 42
-1
  0
SEQEND
  0
POLYLINE
  8
0
 10
0
 20
0
 39
0
 70
1
 66
1
  0
VERTEX
  8
0
 10
2237.719970703125
 20
10.319999694824219
 42
-0
  0
VERTEX
  8
0
 10
2497.719970703125
 20
10.319999694824219
 42
-0
  0
VERTEX
  8
0
 10
2497.719970703125
 20
310.32000732421875
 42
-0
  0
VERTEX
  8
0
 10
2237.719970703125
 20
310.32000732421875
 42
0
  0
SEQEND
  0
POLYLINE
  8
0
 10
0
 20
0
 39
0
 70
1
 66
1
  0
VERTEX
  8
0
 10
2460.335693359375
 20
32.438377380371094
 42
-1
  0
VERTEX
  8
0
 10
2460.335693359375
 20
68.438377380371094
 42
-1
  0
SEQEND
  0
POLYLINE
  8
0
 10
0
 20
0
 39
0
 70
1
 66
1
  0
VERTEX
  8
0
 10
2273.365234375
 20
250.71212768554687
 42
-1
  0
VERTEX
  8
0
 10
2273.365234375
 20
286.71212768554687
 42
-1
  0
SEQEND
  0
POLYLINE
  8
0
 10
0
 20
0
 39
0
 70
1
 66
1
  0
VERTEX
  8
0
 10
2237.719970703125
 20
320.55999755859375
 42
-0
  0
VERTEX
  8
0
 10
2497.719970703125
 20
320.55999755859375
 42
-0
  0
VERTEX
  8
0
 10
2497.719970703125
 20
620.55999755859375
 42
-0
  0
VERTEX
  8
0
 10
2237.719970703125
 20
620.55999755859375
 42
0
  0
SEQEND
  0
POLYLINE
  8
0
 10
0
 20
0
 39
0
 70
1
 66
1
  0
VERTEX
  8
0
 10
2460.335693359375
 20
342.67837524414062
 42
-1
  0
VERTEX
  8
0
 10
2460.335693359375
 20
378.67837524414062
 42
-1
  0
SEQEND
  0
POLYLINE
  8
0
 10
0
 20
0
 39
0
 70
1
 66
1
  0
VERTEX
  8
0
 10
2273.365234375
 20
560.9521484375
 42
-1
  0
VERTEX
  8
0
 10
2273.365234375
 20
596.9521484375
 42
-1
  0
SEQEND
  0
POLYLINE
  8
0
 10
0
 20
0
 39
0
 70
1
 66
1
  0
VERTEX
  8
0
 10
2239.1201171875
 20
630.79998779296875
 42
-0
  0
VERTEX
  8
0
 10
2499.1201171875
 20
630.79998779296875
 42
-0
  0
VERTEX
  8
0
 10
2499.1201171875
 20
930.79998779296875
 42
-0
  0
VERTEX
  8
0
 10
2239.1201171875
 20
930.79998779296875
 42
0
  0
SEQEND
  0
POLYLINE
  8
0
 10
0
 20
0
 39
0
 70
1
 66
1
  0
VERTEX
  8
0
 10
2461.73583984375
 20
652.91839599609375
 42
-1
  0
VERTEX
  8
0
 10
2461.73583984375
 20
688.91839599609375
 42
-1
  0
SEQEND
  0
POLYLINE
  8
0
 10
0
 20
0
 39
0
 70
1
 66
1
  0
VERTEX
  8
0
 10
2274.765380859375
 20
871.192138671875
 42
-1
  0
VERTEX
  8
0
 10
2274.765380859375
 20
907.192138671875
 42
-1
  0
SEQEND
  0
POLYLINE
  8
0
 10
0
 20
0
 39
0
 70
1
 66
1
  0
VERTEX
  8
0
 10
90.680000305175781
 20
90.680000305175781
 42
0
  0
VERTEX
  8
0
 10
210.67999267578125
 20
90.680000305175781
 42
-0
  0
VERTEX
  8
0
 10
210.67999267578125
 20
350.67999267578125
 42
-0
  0
VERTEX
  8
0
 10
90.680000305175781
 20
435.67999267578125
 42
0
  0
SEQEND
  0
POLYLINE
  8
0
 10
0
 20
0
 39
0
 70
1
 66
1
  0
VERTEX
  8
0
 10
150.67999267578125
 20
112.50202178955078
 42
-1
  0
VERTEX
  8
0
 10
150.67999267578125
 20
158.50201416015625
 42
-1
  0
SEQEND
  0
POLYLINE
  8
0
 10
0
 20
0
 39
0
 70
1
 66
1
  0
VERTEX
  8
0
 10
150.67999267578125
 20
241.44027709960937
 42
-1
  0
VERTEX
  8
0
 10
150.67999267578125
 20
321.44027709960937
 42
-1
  0
SEQEND
  0
POLYLINE
  8
0
 10
0
 20
0
 39
0
 70
1
 66
1
  0
VERTEX
  8
0
 10
210.67999267578125
 20
708.96002197265625
 42
0
  0
VERTEX
  8
0
 10
90.680000305175781
 20
708.96002197265625
 42
-0
  0
VERTEX
  8
0
 10
90.680000305175781
 20
448.95999145507812
 42
-0
  0
VERTEX
  8
0
 10
210.67999267578125
 20
363.95999145507812
 42
0
  0
SEQEND
  0
POLYLINE
  8
0
 10
0
 20
0
 39
0
 70
1
 66
1
  0
VERTEX
  8
0
 10
150.67999267578125
 20
687.13800048828125
 42
-1
  0
VERTEX
  8
0
 10
150.67999267578125
 20
641.13800048828125
 42
-1
  0
SEQEND
  0
POLYLINE
  8
0
 10
0
 20
0
 39
0
 70
1
 66
1
  0
VERTEX
  8
0
 10
150.67999267578125
 20
558.19970703125
 42
-1
  0
VERTEX
  8
0
 10
150.67999267578125
 20
478.19970703125
 42
-1
  0
SEQEND
  0
POLYLINE
  8
0
 10
0
 20
0
 39
0
 70
1
 66
1
  0
VERTEX
  8
0
 10
435.67999267578125
 20
890.91998291015625
 42
0
  0
VERTEX
  8
0
 10
435.67999267578125
 20
1010.9199829101562
 42
-0
  0
VERTEX
  8
0
 10
175.67999267578125
 20
1010.9199829101562
 42
-0
  0
VERTEX
  8
0
 10
90.680000305175781
 20
890.91998291015625
 42
0
  0
SEQEND
  0
POLYLINE
  8
0
 10
0
 20
0
 39
0
 70
1
 66
1
  0
VERTEX
  8
0
 10
413.85797119140625
 20
950.91998291015625
 42
-1
  0
VERTEX
  8
0
 10
367.85797119140625
 20
950.91998291015625
 42
-1
  0
SEQEND
  0
POLYLINE
  8
0
 10
0
 20
0
 39
0
 70
1
 66
1
  0
VERTEX
  8
0
 10
284.91970825195312
 20
950.91998291015625
 42
-1
  0
VERTEX
  8
0
 10
204.91970825195312
 20
950.91998291015625
 42
-1
  0
SEQEND
  0
POLYLINE
  8
0
 10
0
 20
0
 39
0
 70
1
 66
1
  0
VERTEX
  8
0
 10
406.239990234375
 20
90.680000305175781
 42
0
  0
VERTEX
  8
0
 10
526.239990234375
 20
90.680000305175781
 42
-0
  0
VERTEX
  8
0
 10
526.239990234375
 20
350.67999267578125
 42
-0
  0
VERTEX
  8
0
 10
406.239990234375
 20
435.67999267578125
 42
0
  0
SEQEND
  0
POLYLINE
  8
0
 10
0
 20
0
 39
0
 70
1
 66
1
  0
VERTEX
  8
0
 10
466.239990234375
 20
112.50202178955078
 42
-1
  0
VERTEX
  8
0
 10
466.239990234375
 20
158.50201416015625
 42
-1
  0
SEQEND
  0
POLYLINE
  8
0
 10
0
 20
0
 39
0
 70
1
 66
1
  0
VERTEX
  8
0
 10
466.239990234375
 20
241.44027709960937
 42
-1
  0
VERTEX
  8
0
 10
466.239990234375
 20
321.44027709960937
 42
-1
  0
SEQEND
  0
POLYLINE
  8
0
 10
0
 20
0
 39
0
 70
1
 66
1
  0
VERTEX
  8
0
 10
526.239990234375
 20
708.96002197265625
 42
0
  0
VERTEX
  8
0
 10
406.239990234375
 20
708.96002197265625
 42
-0
  0
VERTEX
  8
0
 10
406.239990234375
 20
448.95999145507812
 42
-0
  0
VERTEX
  8
0
 10
526.239990234375
 20
363.95999145507812
 42
0
  0
SEQEND
  0
POLYLINE
  8
0
 10
0
 20
0
 39
0
 70
1
 66
1
  0
VERTEX
  8
0
 10
466.239990234375
 20
687.13800048828125
 42
-1
  0
VERTEX
  8
0
 10
466.239990234375
 20
641.13800048828125
 42
-1
  0
SEQEND
  0
POLYLINE
  8
0
 10
0
 20
0
 39
0
 70
1
 66
1
  0
VERTEX
  8
0
 10
466.239990234375
 20
558.19970703125
 42
-1
  0
VERTEX
  8
0
 10
466.239990234375
 20
478.19970703125
 42
-1
  0
SEQEND
  0
POLYLINE
  8
0
 10
0
 20
0
 39
0
 70
1
 66
1
  0
VERTEX
  8
0
 10
721.79998779296875
 20
90.680000305175781
 42
0
  0
VERTEX
  8
0
 10
841.79998779296875
 20
90.680000305175781
 42
-0
  0
VERTEX
  8
0
 10
841.79998779296875
 20
350.67999267578125
 42
-0
  0
VERTEX
  8
0
 10
721.79998779296875
 20
435.67999267578125
 42
0
  0
SEQEND
  0
POLYLINE
  8
0
 10
0
 20
0
 39
0
 70
1
 66
1
  0
VERTEX
  8
0
 10
781.79998779296875
 20
112.50202178955078
 42
-1
  0
VERTEX
  8
0
 10
781.79998779296875
 20
158.50201416015625
 42
-1
  0
SEQEND
  0
POLYLINE
  8
0
 10
0
 20
0
 39
0
 70
1
 66
1
  0
VERTEX
  8
0
 10
781.79998779296875
 20
241.44027709960937
 42
-1
  0
VERTEX
  8
0
 10
781.79998779296875
 20
321.44027709960937
 42
-1
  0
SEQEND
  0
POLYLINE
  8
0
 10
0
 20
0
 39
0
 70
1
 66
1
  0
VERTEX
  8
0
 10
841.79998779296875
 20
708.96002197265625
 42
0
  0
VERTEX
  8
0
 10
721.79998779296875
 20
708.96002197265625
 42
-0
  0
VERTEX
  8
0
 10
721.79998779296875
 20
448.95999145507812
 42
-0
  0
VERTEX
  8
0
 10
841.79998779296875
 20
363.95999145507812
 42
0
  0
SEQEND
  0
POLYLINE
  8
0
 10
0
 20
0
 39
0
 70
1
 66
1
  0
VERTEX
  8
0
 10
781.79998779296875
 20
687.13800048828125
 42
-1
  0
VERTEX
  8
0
 10
781.79998779296875
 20
641.13800048828125
 42
-1
  0
SEQEND
  0
POLYLINE
  8
0
 10
0
 20
0
 39
0
 70
1
 66
1
  0
VERTEX
  8
0
 10
781.79998779296875
 20
558.19970703125
 42
-1
  0
VERTEX
  8
0
 10
781.79998779296875
 20
478.19970703125
 42
-1
  0
SEQEND
  0
POLYLINE
  8
0
 10
0
 20
0
 39
0
 70
1
 66
1
  0
VERTEX
  8
0
 10
1037.3599853515625
 20
90.680000305175781
 42
0
  0
VERTEX
  8
0
 10
1157.3599853515625
 20
90.680000305175781
 42
-0
  0
VERTEX
  8
0
 10
1157.3599853515625
 20
350.67999267578125
 42
-0
  0
VERTEX
  8
0
 10
1037.3599853515625
 20
435.67999267578125
 42
0
  0
SEQEND
  0
POLYLINE
  8
0
 10
0
 20
0
 39
0
 70
1
 66
1
  0
VERTEX
  8
0
 10
1097.3599853515625
 20
112.50202178955078
 42
-1
  0
VERTEX
  8
0
 10
1097.3599853515625
 20
158.50201416015625
 42
-1
  0
SEQEND
  0
POLYLINE
  8
0
 10
0
 20
0
 39
0
 70
1
 66
1
  0
VERTEX
  8
0
 10
1097.3599853515625
 20
241.44027709960937
 42
-1
  0
VERTEX
  8
0
 10
1097.3599853515625
 20
321.44027709960937
 42
-1
  0
SEQEND
  0
POLYLINE
  8
0
 10
0
 20
0
 39
0
 70
1
 66
1
  0
VERTEX
  8
0
 10
1157.3599853515625
 20
708.96002197265625
 42
0
  0
VERTEX
  8
0
 10
1037.3599853515625
 20
708.96002197265625
 42
-0
  0
VERTEX
  8
0
 10
1037.3599853515625
 20
448.95999145507812
 42
-0
  0
VERTEX
  8
0
 10
1157.3599853515625
 20
363.95999145507812
 42
0
  0
SEQEND
  0
POLYLINE
  8
0
 10
0
 20
0
 39
0
 70
1
 66
1
  0
VERTEX
  8
0
 10
1097.3599853515625
 20
687.13800048828125
 42
-1
  0
VERTEX
  8
0
 10
1097.3599853515625
 20
641.13800048828125
 42
-1
  0
SEQEND
  0
POLYLINE
  8
0
 10
0
 20
0
 39
0
 70
1
 66
1
  0
VERTEX
  8
0
 10
1097.3599853515625
 20
558.19970703125
 42
-1
  0
VERTEX
  8
0
 10
1097.3599853515625
 20
478.19970703125
 42
-1
  0
SEQEND
  0
POLYLINE
  8
0
 10
0
 20
0
 39
0
 70
1
 66
1
  0
VERTEX
  8
0
 10
446
 20
954.91998291015625
 42
0
  0
VERTEX
  8
0
 10
446
 20
890.91998291015625
 42
0
  0
VERTEX
  8
0
 10
646
 20
890.91998291015625
 42
0
  0
VERTEX
  8
0
 10
646
 20
954.91998291015625
 42
0
  0
SEQEND
  0
POLYLINE
  8
0
 10
0
 20
0
 39
0
 70
1
 66
1
  0
VERTEX
  8
0
 10
624
 20
922.91998291015625
 42
-1
  0
VERTEX
  8
0
 10
598
 20
922.91998291015625
 42
-1
  0
SEQEND
  0
POLYLINE
  8
0
 10
0
 20
0
 39
0
 70
1
 66
1
  0
VERTEX
  8
0
 10
494
 20
922.91998291015625
 42
-1
  0
VERTEX
  8
0
 10
468
 20
922.91998291015625
 42
-1
  0
SEQEND
  0
POLYLINE
  8
0
 10
0
 20
0
 39
0
 70
1
 66
1
  0
VERTEX
  8
0
 10
446
 20
1029.1199951171875
 42
0
  0
VERTEX
  8
0
 10
446
 20
965.1199951171875
 42
0
  0
VERTEX
  8
0
 10
646
 20
965.1199951171875
 42
0
  0
VERTEX
  8
0
 10
646
 20
1029.1199951171875
 42
0
  0
SEQEND
  0
POLYLINE
  8
0
 10
0
 20
0
 39
0
 70
1
 66
1
  0
VERTEX
  8
0
 10
624
 20
997.1199951171875
 42
-1
  0
VERTEX
  8
0
 10
598
 20
997.1199951171875
 42
-1
  0
SEQEND
  0
POLYLINE
  8
0
 10
0
 20
0
 39
0
 70
1
 66
1
  0
VERTEX
  8
0
 10
494
 20
997.1199951171875
 42
-1
  0
VERTEX
  8
0
 10
468
 20
997.1199951171875
 42
-1
  0
SEQEND
  0
POLYLINE
  8
0
 10
0
 20
0
 39
0
 70
1
 66
1
  0
VERTEX
  8
0
 10
2032.6400146484375
 20
1141.0400390625
 42
0
  0
VERTEX
  8
0
 10
1968.6400146484375
 20
1141.0400390625
 42
0
  0
VERTEX
  8
0
 10
1968.6400146484375
 20
941.03997802734375
 42
0
  0
VERTEX
  8
0
 10
2032.6400146484375
 20
941.03997802734375
 42
0
  0
SEQEND
  0
POLYLINE
  8
0
 10
0
 20
0
 39
0
 70
1
 66
1
  0
VERTEX
  8
0
 10
2000.6400146484375
 20
963.03997802734375
 42
-1
  0
VERTEX
  8
0
 10
2000.6400146484375
 20
989.03997802734375
 42
-1
  0
SEQEND
  0
POLYLINE
  8
0
 10
0
 20
0
 39
0
 70
1
 66
1
  0
VERTEX
  8
0
 10
2000.6400146484375
 20
1093.0400390625
 42
-1
  0
VERTEX
  8
0
 10
2000.6400146484375
 20
1119.0400390625
 42
-1
  0
SEQEND
  0
POLYLINE
  8
0
 10
0
 20
0
 39
0
 70
1
 66
1
  0
VERTEX
  8
0
 10
2107.1201171875
 20
1141.0400390625
 42
0
  0
VERTEX
  8
0
 10
2043.1199951171875
 20
1141.0400390625
 42
0
  0
VERTEX
  8
0
 10
2043.1199951171875
 20
941.03997802734375
 42
0
  0
VERTEX
  8
0
 10
2107.1201171875
 20
941.03997802734375
 42
0
  0
SEQEND
  0
POLYLINE
  8
0
 10
0
 20
0
 39
0
 70
1
 66
1
  0
VERTEX
  8
0
 10
2075.1201171875
 20
963.03997802734375
 42
-1
  0
VERTEX
  8
0
 10
2075.1201171875
 20
989.03997802734375
 42
-1
  0
SEQEND
  0
POLYLINE
  8
0
 10
0
 20
0
 39
0
 70
1
 66
1
  0
VERTEX
  8
0
 10
2075.1201171875
 20
1093.0400390625
 42
-1
  0
VERTEX
  8
0
 10
2075.1201171875
 20
1119.0400390625
 42
-1
  0
SEQEND
  0
POLYLINE
  8
0
 10
0
 20
0
 39
0
 70
1
 66
1
  0
VERTEX
  8
0
 10
2181.60009765625
 20
1141.0400390625
 42
0
  0
VERTEX
  8
0
 10
2117.60009765625
 20
1141.0400390625
 42
0
  0
VERTEX
  8
0
 10
2117.60009765625
 20
941.03997802734375
 42
0
  0
VERTEX
  8
0
 10
2181.60009765625
 20
941.03997802734375
 42
0
  0
SEQEND
  0
POLYLINE
  8
0
 10
0
 20
0
 39
0
 70
1
 66
1
  0
VERTEX
  8
0
 10
2149.60009765625
 20
963.03997802734375
 42
-1
  0
VERTEX
  8
0
 10
2149.60009765625
 20
989.03997802734375
 42
-1
  0
SEQEND
  0
POLYLINE
  8
0
 10
0
 20
0
 39
0
 70
1
 66
1
  0
VERTEX
  8
0
 10
2149.60009765625
 20
1093.0400390625
 42
-1
  0
VERTEX
  8
0
 10
2149.60009765625
 20
1119.0400390625
 42
-1
  0
SEQEND
  0
POLYLINE
  8
0
 10
0
 20
0
 39
0
 70
1
 66
1
  0
VERTEX
  8
0
 10
2256.080078125
 20
1141.0400390625
 42
0
  0
VERTEX
  8
0
 10
2192.080078125
 20
1141.0400390625
 42
0
  0
VERTEX
  8
0
 10
2192.080078125
 20
941.03997802734375
 42
0
  0
VERTEX
  8
0
 10
2256.080078125
 20
941.03997802734375
 42
0
  0
SEQEND
  0
POLYLINE
  8
0
 10
0
 20
0
 39
0
 70
1
 66
1
  0
VERTEX
  8
0
 10
2224.080078125
 20
963.03997802734375
 42
-1
  0
VERTEX
  8
0
 10
2224.080078125
 20
989.03997802734375
 42
-1
  0
SEQEND
  0
POLYLINE
  8
0
 10
0
 20
0
 39
0
 70
1
 66
1
  0
VERTEX
  8
0
 10
2224.080078125
 20
1093.0400390625
 42
-1
  0
VERTEX
  8
0
 10
2224.080078125
 20
1119.0400390625
 42
-1
  0
SEQEND
  0
POLYLINE
  8
0
 10
0
 20
0
 39
0
 70
1
 66
1
  0
VERTEX
  8
0
 10
2330.56005859375
 20
1141.0400390625
 42
0
  0
VERTEX
  8
0
 10
2266.56005859375
 20
1141.0400390625
 42
0
  0
VERTEX
  8
0
 10
2266.56005859375
 20
941.03997802734375
 42
0
  0
VERTEX
  8
0
 10
2330.56005859375
 20
941.03997802734375
 42
0
  0
SEQEND
  0
POLYLINE
  8
0
 10
0
 20
0
 39
0
 70
1
 66
1
  0
VERTEX
  8
0
 10
2298.56005859375
 20
963.03997802734375
 42
-1
  0
VERTEX
  8
0
 10
2298.56005859375
 20
989.03997802734375
 42
-1
  0
SEQEND
  0
POLYLINE
  8
0
 10
0
 20
0
 39
0
 70
1
 66
1
  0
VERTEX
  8
0
 10
2298.56005859375
 20
1093.0400390625
 42
-1
  0
VERTEX
  8
0
 10
2298.56005859375
 20
1119.0400390625
 42
-1
  0
SEQEND
  0
POLYLINE
  8
0
 10
0
 20
0
 39
0
 70
1
 66
1
  0
VERTEX
  8
0
 10
2405.0400390625
 20
1141.0400390625
 42
0
  0
VERTEX
  8
0
 10
2341.0400390625
 20
1141.0400390625
 42
0
  0
VERTEX
  8
0
 10
2341.0400390625
 20
941.03997802734375
 42
0
  0
VERTEX
  8
0
 10
2405.0400390625
 20
941.03997802734375
 42
0
  0
SEQEND
  0
POLYLINE
  8
0
 10
0
 20
0
 39
0
 70
1
 66
1
  0
VERTEX
  8
0
 10
2373.0400390625
 20
963.03997802734375
 42
-1
  0
VERTEX
  8
0
 10
2373.0400390625
 20
989.03997802734375
 42
-1
  0
SEQEND
  0
POLYLINE
  8
0
 10
0
 20
0
 39
0
 70
1
 66
1
  0
VERTEX
  8
0
 10
2373.0400390625
 20
1093.0400390625
 42
-1
  0
VERTEX
  8
0
 10
2373.0400390625
 20
1119.0400390625
 42
-1
  0
SEQEND
  0
POLYLINE
  8
0
 10
0
 20
0
 39
0
 70
1
 66
1
  0
VERTEX
  8
0
 10
2479.52001953125
 20
1141.0400390625
 42
0
  0
VERTEX
  8
0
 10
2415.52001953125
 20
1141.0400390625
 42
0
  0
VERTEX
  8
0
 10
2415.52001953125
 20
941.03997802734375
 42
0
  0
VERTEX
  8
0
 10
2479.52001953125
 20
941.03997802734375
 42
0
  0
SEQEND
  0
POLYLINE
  8
0
 10
0
 20
0
 39
0
 70
1
 66
1
  0
VERTEX
  8
0
 10
2447.52001953125
 20
963.03997802734375
 42
-1
  0
VERTEX
  8
0
 10
2447.52001953125
 20
989.03997802734375
 42
-1
  0
SEQEND
  0
POLYLINE
  8
0
 10
0
 20
0
 39
0
 70
1
 66
1
  0
VERTEX
  8
0
 10
2447.52001953125
 20
1093.0400390625
 42
-1
  0
VERTEX
  8
0
 10
2447.52001953125
 20
1119.0400390625
 42
-1
  0
SEQEND
  0
POLYLINE
  8
0
 10
0
 20
0
 39
0
 70
1
 66
1
  0
VERTEX
  8
0
 10
2554
 20
1141.0400390625
 42
0
  0
VERTEX
  8
0
 10
2490
 20
1141.0400390625
 42
0
  0
VERTEX
  8
0
 10
2490
 20
941.03997802734375
 42
0
  0
VERTEX
  8
0
 10
2554
 20
941.03997802734375
 42
0
  0
SEQEND
  0
POLYLINE
  8
0
 10
0
 20
0
 39
0
 70
1
 66
1
  0
VERTEX
  8
0
 10
2522
 20
963.03997802734375
 42
-1
  0
VERTEX
  8
0
 10
2522
 20
989.03997802734375
 42
-1
  0
SEQEND
  0
POLYLINE
  8
0
 10
0
 20
0
 39
0
 70
1
 66
1
  0
VERTEX
  8
0
 10
2522
 20
1093.0400390625
 42
-1
  0
VERTEX
  8
0
 10
2522
 20
1119.0400390625
 42
-1
  0
SEQEND
  0
POLYLINE
  8
0
 10
0
 20
0
 39
0
 70
1
 66
1
  0
VERTEX
  8
0
 10
2572.199951171875
 20
210.32000732421875
 42
0
  0
VERTEX
  8
0
 10
2508.199951171875
 20
210.32000732421875
 42
0
  0
VERTEX
  8
0
 10
2508.199951171875
 20
10.319999694824219
 42
0
  0
VERTEX
  8
0
 10
2572.199951171875
 20
10.319999694824219
 42
0
  0
SEQEND
  0
POLYLINE
  8
0
 10
0
 20
0
 39
0
 70
1
 66
1
  0
VERTEX
  8
0
 10
2540.199951171875
 20
32.319999694824219
 42
-1
  0
VERTEX
  8
0
 10
2540.199951171875
 20
58.319999694824219
 42
-1
  0
SEQEND
  0
POLYLINE
  8
0
 10
0
 20
0
 39
0
 70
1
 66
1
  0
VERTEX
  8
0
 10
2540.199951171875
 20
162.32000732421875
 42
-1
  0
VERTEX
  8
0
 10
2540.199951171875
 20
188.32000732421875
 42
-1
  0
SEQEND
  0
POLYLINE
  8
0
 10
0
 20
0
 39
0
 70
1
 66
1
  0
VERTEX
  8
0
 10
2572.199951171875
 20
420.60000610351562
 42
0
  0
VERTEX
  8
0
 10
2508.199951171875
 20
420.60000610351562
 42
0
  0
VERTEX
  8
0
 10
2508.199951171875
 20
220.60000610351562
 42
0
  0
VERTEX
  8
0
 10
2572.199951171875
 20
220.60000610351562
 42
0
  0
SEQEND
  0
POLYLINE
  8
0
 10
0
 20
0
 39
0
 70
1
 66
1
  0
VERTEX
  8
0
 10
2540.199951171875
 20
242.60000610351562
 42
-1
  0
VERTEX
  8
0
 10
2540.199951171875
 20
268.60000610351562
 42
-1
  0
SEQEND
  0
POLYLINE
  8
0
 10
0
 20
0
 39
0
 70
1
 66
1
  0
VERTEX
  8
0
 10
2540.199951171875
 20
372.60000610351562
 42
-1
  0
VERTEX
  8
0
 10
2540.199951171875
 20
398.60000610351562
 42
-1
  0
SEQEND
  0
POLYLINE
  8
0
 10
0
 20
0
 39
0
 70
1
 66
1
  0
VERTEX
  8
0
 10
2573.60009765625
 20
630.8800048828125
 42
0
  0
VERTEX
  8
0
 10
2509.60009765625
 20
630.8800048828125
 42
0
  0
VERTEX
  8
0
 10
2509.60009765625
 20
430.8800048828125
 42
0
  0
VERTEX
  8
0
 10
2573.60009765625
 20
430.8800048828125
 42
0
  0
SEQEND
  0
POLYLINE
  8
0
 10
0
 20
0
 39
0
 70
1
 66
1
  0
VERTEX
  8
0
 10
2541.60009765625
 20
452.8800048828125
 42
-1
  0
VERTEX
  8
0
 10
2541.60009765625
 20
478.8800048828125
 42
-1
  0
SEQEND
  0
POLYLINE
  8
0
 10
0
 20
0
 39
0
 70
1
 66
1
  0
VERTEX
  8
0
 10
2541.60009765625
 20
582.8800048828125
 42
-1
  0
VERTEX
  8
0
 10
2541.60009765625
 20
608.8800048828125
 42
-1
  0
SEQEND
  0
POLYLINE
  8
0
 10
0
 20
0
 39
0
 70
1
 66
1
  0
VERTEX
  8
0
 10
2573.60009765625
 20
841.15997314453125
 42
0
  0
VERTEX
  8
0
 10
2509.60009765625
 20
841.15997314453125
 42
0
  0
VERTEX
  8
0
 10
2509.60009765625
 20
641.15997314453125
 42
0
  0
VERTEX
  8
0
 10
2573.60009765625
 20
641.15997314453125
 42
0
  0
SEQEND
  0
POLYLINE
  8
0
 10
0
 20
0
 39
0
 70
1
 66
1
  0
VERTEX
  8
0
 10
2541.60009765625
 20
663.15997314453125
 42
-1
  0
VERTEX
  8
0
 10
2541.60009765625
 20
689.15997314453125
 42
-1
  0
SEQEND
  0
POLYLINE
  8
0
 10
0
 20
0
 39
0
 70
1
 66
1
  0
VERTEX
  8
0
 10
2541.60009765625
 20
793.15997314453125
 42
-1
  0
VERTEX
  8
0
 10
2541.60009765625
 20
819.15997314453125
 42
-1
  0
SEQEND
  0
POLYLINE
  8
0
 10
0
 20
0
 39
0
 70
1
 66
1
  0
VERTEX
  8
0
 10
2628.47998046875
 20
1051.43994140625
 42
0
  0
VERTEX
  8
0
 10
2564.47998046875
 20
1051.43994140625
 42
0
  0
VERTEX
  8
0
 10
2564.47998046875
 20
851.44000244140625
 42
0
  0
VERTEX
  8
0
 10
2628.47998046875
 20
851.44000244140625
 42
0
  0
SEQEND
  0
POLYLINE
  8
0
 10
0
 20
0
 39
0
 70
1
 66
1
  0
VERTEX
  8
0
 10
2596.47998046875
 20
873.44000244140625
 42
-1
  0
VERTEX
  8
0
 10
2596.47998046875
 20
899.44000244140625
 42
-1
  0
SEQEND
  0
POLYLINE
  8
0
 10
0
 20
0
 39
0
 70
1
 66
1
  0
VERTEX
  8
0
 10
2596.47998046875
 20
1003.4400024414062
 42
-1
  0
VERTEX
  8
0
 10
2596.47998046875
 20
1029.43994140625
 42
-1
  0
SEQEND
  0
POLYLINE
  8
0
 10
0
 20
0
 39
0
 70
1
 66
1
  0
VERTEX
  8
0
 10
2646.679931640625
 20
210.32000732421875
 42
0
  0
VERTEX
  8
0
 10
2582.679931640625
 20
210.32000732421875
 42
0
  0
VERTEX
  8
0
 10
2582.679931640625
 20
10.319999694824219
 42
0
  0
VERTEX
  8
0
 10
2646.679931640625
 20
10.319999694824219
 42
0
  0
SEQEND
  0
POLYLINE
  8
0
 10
0
 20
0
 39
0
 70
1
 66
1
  0
VERTEX
  8
0
 10
2614.679931640625
 20
32.319999694824219
 42
-1
  0
VERTEX
  8
0
 10
2614.679931640625
 20
58.319999694824219
 42
-1
  0
SEQEND
  0
POLYLINE
  8
0
 10
0
 20
0
 39
0
 70
1
 66
1
  0
VERTEX
  8
0
 10
2614.679931640625
 20
162.32000732421875
 42
-1
  0
VERTEX
  8
0
 10
2614.679931640625
 20
188.32000732421875
 42
-1
  0
SEQEND
  0
POLYLINE
  8
0
 10
0
 20
0
 39
0
 70
1
 66
1
  0
VERTEX
  8
0
 10
2646.679931640625
 20
420.60000610351562
 42
0
  0
VERTEX
  8
0
 10
2582.679931640625
 20
420.60000610351562
 42
0
  0
VERTEX
  8
0
 10
2582.679931640625
 20
220.60000610351562
 42
0
  0
VERTEX
  8
0
 10
2646.679931640625
 20
220.60000610351562
 42
0
  0
SEQEND
  0
POLYLINE
  8
0
 10
0
 20
0
 39
0
 70
1
 66
1
  0
VERTEX
  8
0
 10
2614.679931640625
 20
242.60000610351562
 42
-1
  0
VERTEX
  8
0
 10
2614.679931640625
 20
268.60000610351562
 42
-1
  0
SEQEND
  0
POLYLINE
  8
0
 10
0
 20
0
 39
0
 70
1
 66
1
  0
VERTEX
  8
0
 10
2614.679931640625
 20
372.60000610351562
 42
-1
  0
VERTEX
  8
0
 10
2614.679931640625
 20
398.60000610351562
 42
-1
  0
SEQEND
  0
POLYLINE
  8
0
 10
0
 20
0
 39
0
 70
1
 66
1
  0
VERTEX
  8
0
 10
2648.080078125
 20
630.8800048828125
 42
0
  0
VERTEX
  8
0
 10
2584.080078125
 20
630.8800048828125
 42
0
  0
VERTEX
  8
0
 10
2584.080078125
 20
430.8800048828125
 42
0
  0
VERTEX
  8
0
 10
2648.080078125
 20
430.8800048828125
 42
0
  0
SEQEND
  0
POLYLINE
  8
0
 10
0
 20
0
 39
0
 70
1
 66
1
  0
VERTEX
  8
0
 10
2616.080078125
 20
452.8800048828125
 42
-1
  0
VERTEX
  8
0
 10
2616.080078125
 20
478.8800048828125
 42
-1
  0
SEQEND
  0
POLYLINE
  8
0
 10
0
 20
0
 39
0
 70
1
 66
1
  0
VERTEX
  8
0
 10
2616.080078125
 20
582.8800048828125
 42
-1
  0
VERTEX
  8
0
 10
2616.080078125
 20
608.8800048828125
 42
-1
  0
SEQEND
  0
POLYLINE
  8
0
 10
0
 20
0
 39
0
 70
1
 66
1
  0
VERTEX
  8
0
 10
2648.080078125
 20
841.15997314453125
 42
0
  0
VERTEX
  8
0
 10
2584.080078125
 20
841.15997314453125
 42
0
  0
VERTEX
  8
0
 10
2584.080078125
 20
641.15997314453125
 42
0
  0
VERTEX
  8
0
 10
2648.080078125
 20
641.15997314453125
 42
0
  0
SEQEND
  0
POLYLINE
  8
0
 10
0
 20
0
 39
0
 70
1
 66
1
  0
VERTEX
  8
0
 10
2616.080078125
 20
663.15997314453125
 42
-1
  0
VERTEX
  8
0
 10
2616.080078125
 20
689.15997314453125
 42
-1
  0
SEQEND
  0
POLYLINE
  8
0
 10
0
 20
0
 39
0
 70
1
 66
1
  0
VERTEX
  8
0
 10
2616.080078125
 20
793.15997314453125
 42
-1
  0
VERTEX
  8
0
 10
2616.080078125
 20
819.15997314453125
 42
-1
  0
SEQEND
  0
POLYLINE
  8
0
 10
0
 20
0
 39
0
 70
1
 66
1
  0
VERTEX
  8
0
 10
2702.9599609375
 20
1051.43994140625
 42
0
  0
VERTEX
  8
0
 10
2638.9599609375
 20
1051.43994140625
 42
0
  0
VERTEX
  8
0
 10
2638.9599609375
 20
851.44000244140625
 42
0
  0
VERTEX
  8
0
 10
2702.9599609375
 20
851.44000244140625
 42
0
  0
SEQEND
  0
POLYLINE
  8
0
 10
0
 20
0
 39
0
 70
1
 66
1
  0
VERTEX
  8
0
 10
2670.9599609375
 20
873.44000244140625
 42
-1
  0
VERTEX
  8
0
 10
2670.9599609375
 20
899.44000244140625
 42
-1
  0
SEQEND
  0
POLYLINE
  8
0
 10
0
 20
0
 39
0
 70
1
 66
1
  0
VERTEX
  8
0
 10
2670.9599609375
 20
1003.4400024414062
 42
-1
  0
VERTEX
  8
0
 10
2670.9599609375
 20
1029.43994140625
 42
-1
  0
SEQEND
  0
POLYLINE
  8
0
 10
0
 20
0
 39
0
 70
1
 66
1
  0
VERTEX
  8
0
 10
2721.159912109375
 20
210.32000732421875
 42
0
  0
VERTEX
  8
0
 10
2657.159912109375
 20
210.32000732421875
 42
0
  0
VERTEX
  8
0
 10
2657.159912109375
 20
10.319999694824219
 42
0
  0
VERTEX
  8
0
 10
2721.159912109375
 20
10.319999694824219
 42
0
  0
SEQEND
  0
POLYLINE
  8
0
 10
0
 20
0
 39
0
 70
1
 66
1
  0
VERTEX
  8
0
 10
2689.159912109375
 20
32.319999694824219
 42
-1
  0
VERTEX
  8
0
 10
2689.159912109375
 20
58.319999694824219
 42
-1
  0
SEQEND
  0
POLYLINE
  8
0
 10
0
 20
0
 39
0
 70
1
 66
1
  0
VERTEX
  8
0
 10
2689.159912109375
 20
162.32000732421875
 42
-1
  0
VERTEX
  8
0
 10
2689.159912109375
 20
188.32000732421875
 42
-1
  0
SEQEND
  0
POLYLINE
  8
0
 10
0
 20
0
 39
0
 70
1
 66
1
  0
VERTEX
  8
0
 10
2721.159912109375
 20
420.60000610351562
 42
0
  0
VERTEX
  8
0
 10
2657.159912109375
 20
420.60000610351562
 42
0
  0
VERTEX
  8
0
 10
2657.159912109375
 20
220.60000610351562
 42
0
  0
VERTEX
  8
0
 10
2721.159912109375
 20
220.60000610351562
 42
0
  0
SEQEND
  0
POLYLINE
  8
0
 10
0
 20
0
 39
0
 70
1
 66
1
  0
VERTEX
  8
0
 10
2689.159912109375
 20
242.60000610351562
 42
-1
  0
VERTEX
  8
0
 10
2689.159912109375
 20
268.60000610351562
 42
-1
  0
SEQEND
  0
POLYLINE
  8
0
 10
0
 20
0
 39
0
 70
1
 66
1
  0
VERTEX
  8
0
 10
2689.159912109375
 20
372.60000610351562
 42
-1
  0
VERTEX
  8
0
 10
2689.159912109375
 20
398.60000610351562
 42
-1
  0
SEQEND
  0
POLYLINE
  8
0
 10
0
 20
0
 39
0
 70
1
 66
1
  0
VERTEX
  8
0
 10
2722.56005859375
 20
630.8800048828125
 42
0
  0
VERTEX
  8
0
 10
2658.56005859375
 20
630.8800048828125
 42
0
  0
VERTEX
  8
0
 10
2658.56005859375
 20
430.8800048828125
 42
0
  0
VERTEX
  8
0
 10
2722.56005859375
 20
430.8800048828125
 42
0
  0
SEQEND
  0
POLYLINE
  8
0
 10
0
 20
0
 39
0
 70
1
 66
1
  0
VERTEX
  8
0
 10
2690.56005859375
 20
452.8800048828125
 42
-1
  0
VERTEX
  8
0
 10
2690.56005859375
 20
478.8800048828125
 42
-1
  0
SEQEND
  0
POLYLINE
  8
0
 10
0
 20
0
 39
0
 70
1
 66
1
  0
VERTEX
  8
0
 10
2690.56005859375
 20
582.8800048828125
 42
-1
  0
VERTEX
  8
0
 10
2690.56005859375
 20
608.8800048828125
 42
-1
  0
SEQEND
  0
POLYLINE
  8
0
 10
0
 20
0
 39
0
 70
1
 66
1
  0
VERTEX
  8
0
 10
2722.56005859375
 20
841.15997314453125
 42
0
  0
VERTEX
  8
0
 10
2658.56005859375
 20
841.15997314453125
 42
0
  0
VERTEX
  8
0
 10
2658.56005859375
 20
641.15997314453125
 42
0
  0
VERTEX
  8
0
 10
2722.56005859375
 20
641.15997314453125
 42
0
  0
SEQEND
  0
POLYLINE
  8
0
 10
0
 20
0
 39
0
 70
1
 66
1
  0
VERTEX
  8
0
 10
2690.56005859375
 20
663.15997314453125
 42
-1
  0
VERTEX
  8
0
 10
2690.56005859375
 20
689.15997314453125
 42
-1
  0
SEQEND
  0
POLYLINE
  8
0
 10
0
 20
0
 39
0
 70
1
 66
1
  0
VERTEX
  8
0
 10
2690.56005859375
 20
793.15997314453125
 42
-1
  0
VERTEX
  8
0
 10
2690.56005859375
 20
819.15997314453125
 42
-1
  0
SEQEND
  0
POLYLINE
  8
0
 10
0
 20
0
 39
0
 70
1
 66
1
  0
VERTEX
  8
0
 10
2564.47998046875
 20
1125.719970703125
 42
0
  0
VERTEX
  8
0
 10
2564.47998046875
 20
1061.719970703125
 42
0
  0
VERTEX
  8
0
 10
2764.47998046875
 20
1061.719970703125
 42
0
  0
VERTEX
  8
0
 10
2764.47998046875
 20
1125.719970703125
 42
0
  0
SEQEND
  0
POLYLINE
  8
0
 10
0
 20
0
 39
0
 70
1
 66
1
  0
VERTEX
  8
0
 10
2742.47998046875
 20
1093.719970703125
 42
-1
  0
VERTEX
  8
0
 10
2716.47998046875
 20
1093.719970703125
 42
-1
  0
SEQEND
  0
POLYLINE
  8
0
 10
0
 20
0
 39
0
 70
1
 66
1
  0
VERTEX
  8
0
 10
2612.47998046875
 20
1093.719970703125
 42
-1
  0
VERTEX
  8
0
 10
2586.47998046875
 20
1093.719970703125
 42
-1
  0
SEQEND
  0
POLYLINE
  8
0
 10
0
 20
0
 39
0
 70
1
 66
1
  0
VERTEX
  8
0
 10
2777.43994140625
 20
1051.43994140625
 42
0
  0
VERTEX
  8
0
 10
2713.43994140625
 20
1051.43994140625
 42
0
  0
VERTEX
  8
0
 10
2713.43994140625
 20
851.44000244140625
 42
0
  0
VERTEX
  8
0
 10
2777.43994140625
 20
851.44000244140625
 42
0
  0
SEQEND
  0
POLYLINE
  8
0
 10
0
 20
0
 39
0
 70
1
 66
1
  0
VERTEX
  8
0
 10
2745.43994140625
 20
873.44000244140625
 42
-1
  0
VERTEX
  8
0
 10
2745.43994140625
 20
899.44000244140625
 42
-1
  0
SEQEND
  0
POLYLINE
  8
0
 10
0
 20
0
 39
0
 70
1
 66
1
  0
VERTEX
  8
0
 10
2745.43994140625
 20
1003.4400024414062
 42
-1
  0
VERTEX
  8
0
 10
2745.43994140625
 20
1029.43994140625
 42
-1
  0
SEQEND
  0
POLYLINE
  8
0
 10
0
 20
0
 39
0
 70
1
 66
1
  0
VERTEX
  8
0
 10
210.32000732421875
 20
1125.8399658203125
 42
-0
  0
VERTEX
  8
0
 10
210.32000732421875
 20
1175.8399658203125
 42
-0
  0
VERTEX
  8
0
 10
10.319999694824219
 20
1175.8399658203125
 42
-0
  0
VERTEX
  8
0
 10
10.319999694824219
 20
1125.8399658203125
 42
0
  0
SEQEND
  0
POLYLINE
  8
0
 10
0
 20
0
 39
0
 70
1
 66
1
  0
VERTEX
  8
0
 10
173.64668273925781
 20
1150.8399658203125
 42
-1
  0
VERTEX
  8
0
 10
143.64668273925781
 20
1150.8399658203125
 42
-1
  0
SEQEND
  0
POLYLINE
  8
0
 10
0
 20
0
 39
0
 70
1
 66
1
  0
VERTEX
  8
0
 10
420.8800048828125
 20
1125.8399658203125
 42
-0
  0
VERTEX
  8
0
 10
420.8800048828125
 20
1175.8399658203125
 42
-0
  0
VERTEX
  8
0
 10
220.8800048828125
 20
1175.8399658203125
 42
-0
  0
VERTEX
  8
0
 10
220.8800048828125
 20
1125.8399658203125
 42
0
  0
SEQEND
  0
POLYLINE
  8
0
 10
0
 20
0
 39
0
 70
1
 66
1
  0
VERTEX
  8
0
 10
384.2066650390625
 20
1150.8399658203125
 42
-1
  0
VERTEX
  8
0
 10
354.2066650390625
 20
1150.8399658203125
 42
-1
  0
SEQEND
  0
POLYLINE
  8
0
 10
0
 20
0
 39
0
 70
1
 66
1
  0
VERTEX
  8
0
 10
631.44000244140625
 20
1125.8399658203125
 42
-0
  0
VERTEX
  8
0
 10
631.44000244140625
 20
1175.8399658203125
 42
-0
  0
VERTEX
  8
0
 10
431.44000244140625
 20
1175.8399658203125
 42
-0
  0
VERTEX
  8
0
 10
431.44000244140625
 20
1125.8399658203125
 42
0
  0
SEQEND
  0
POLYLINE
  8
0
 10
0
 20
0
 39
0
 70
1
 66
1
  0
VERTEX
  8
0
 10
594.76666259765625
 20
1150.8399658203125
 42
-1
  0
VERTEX
  8
0
 10
564.76666259765625
 20
1150.8399658203125
 42
-1
  0
SEQEND
  0
POLYLINE
  8
0
 10
0
 20
0
 39
0
 70
1
 66
1
  0
VERTEX
  8
0
 10
1120.800048828125
 20
895.96002197265625
 42
-0
  0
VERTEX
  8
0
 10
1170.800048828125
 20
895.96002197265625
 42
-0
  0
VERTEX
  8
0
 10
1170.800048828125
 20
1095.9599609375
 42
-0
  0
VERTEX
  8
0
 10
1120.800048828125
 20
1095.9599609375
 42
0
  0
SEQEND
  0
POLYLINE
  8
0
 10
0
 20
0
 39
0
 70
1
 66
1
  0
VERTEX
  8
0
 10
1145.800048828125
 20
932.63330078125
 42
-1
  0
VERTEX
  8
0
 10
1145.800048828125
 20
962.63330078125
 42
-1
  0
SEQEND
  0
POLYLINE
  8
0
 10
0
 20
0
 39
0
 70
1
 66
1
  0
VERTEX
  8
0
 10
1350.9599609375
 20
95.720001220703125
 42
-0
  0
VERTEX
  8
0
 10
1400.9599609375
 20
95.720001220703125
 42
-0
  0
VERTEX
  8
0
 10
1400.9599609375
 20
295.72000122070313
 42
-0
  0
VERTEX
  8
0
 10
1350.9599609375
 20
295.72000122070313
 42
0
  0
SEQEND
  0
POLYLINE
  8
0
 10
0
 20
0
 39
0
 70
1
 66
1
  0
VERTEX
  8
0
 10
1375.9599609375
 20
132.39332580566406
 42
-1
  0
VERTEX
  8
0
 10
1375.9599609375
 20
162.39332580566406
 42
-1
  0
SEQEND
  0
POLYLINE
  8
0
 10
0
 20
0
 39
0
 70
1
 66
1
  0
VERTEX
  8
0
 10
1350.9599609375
 20
480.72000122070312
 42
-0
  0
VERTEX
  8
0
 10
1400.9599609375
 20
480.72000122070312
 42
-0
  0
VERTEX
  8
0
 10
1400.9599609375
 20
680.719970703125
 42
-0
  0
VERTEX
  8
0
 10
1350.9599609375
 20
680.719970703125
 42
0
  0
SEQEND
  0
POLYLINE
  8
0
 10
0
 20
0
 39
0
 70
1
 66
1
  0
VERTEX
  8
0
 10
1375.9599609375
 20
517.393310546875
 42
-1
  0
VERTEX
  8
0
 10
1375.9599609375
 20
547.393310546875
 42
-1
  0
SEQEND
  0
POLYLINE
  8
0
 10
0
 20
0
 39
0
 70
1
 66
1
  0
VERTEX
  8
0
 10
1352.3599853515625
 20
865.719970703125
 42
-0
  0
VERTEX
  8
0
 10
1402.3599853515625
 20
865.719970703125
 42
-0
  0
VERTEX
  8
0
 10
1402.3599853515625
 20
1065.719970703125
 42
-0
  0
VERTEX
  8
0
 10
1352.3599853515625
 20
1065.719970703125
 42
0
  0
SEQEND
  0
POLYLINE
  8
0
 10
0
 20
0
 39
0
 70
1
 66
1
  0
VERTEX
  8
0
 10
1377.3599853515625
 20
902.393310546875
 42
-1
  0
VERTEX
  8
0
 10
1377.3599853515625
 20
932.393310546875
 42
-1
  0
SEQEND
  0
POLYLINE
  8
0
 10
0
 20
0
 39
0
 70
1
 66
1
  0
VERTEX
  8
0
 10
1582.52001953125
 20
95.720001220703125
 42
-0
  0
VERTEX
  8
0
 10
1632.52001953125
 20
95.720001220703125
 42
-0
  0
VERTEX
  8
0
 10
1632.52001953125
 20
295.72000122070313
 42
-0
  0
VERTEX
  8
0
 10
1582.52001953125
 20
295.72000122070313
 42
0
  0
SEQEND
  0
POLYLINE
  8
0
 10
0
 20
0
 39
0
 70
1
 66
1
  0
VERTEX
  8
0
 10
1607.52001953125
 20
132.39332580566406
 42
-1
  0
VERTEX
  8
0
 10
1607.52001953125
 20
162.39332580566406
 42
-1
  0
SEQEND
  0
POLYLINE
  8
0
 10
0
 20
0
 39
0
 70
1
 66
1
  0
VERTEX
  8
0
 10
1815.47998046875
 20
865.719970703125
 42
-0
  0
VERTEX
  8
0
 10
1865.47998046875
 20
865.719970703125
 42
-0
  0
VERTEX
  8
0
 10
1865.47998046875
 20
1065.719970703125
 42
-0
  0
VERTEX
  8
0
 10
1815.47998046875
 20
1065.719970703125
 42
0
  0
SEQEND
  0
POLYLINE
  8
0
 10
0
 20
0
 39
0
 70
1
 66
1
  0
VERTEX
  8
0
 10
1840.47998046875
 20
902.393310546875
 42
-1
  0
VERTEX
  8
0
 10
1840.47998046875
 20
932.393310546875
 42
-1
  0
SEQEND
  0
POLYLINE
  8
0
 10
0
 20
0
 39
0
 70
1
 66
1
  0
VERTEX
  8
0
 10
2764.47998046875
 20
1135.9200439453125
 42
-0
  0
VERTEX
  8
0
 10
2764.47998046875
 20
1185.9200439453125
 42
-0
  0
VERTEX
  8
0
 10
2564.47998046875
 20
1185.9200439453125
 42
-0
  0
VERTEX
  8
0
 10
2564.47998046875
 20
1135.9200439453125
 42
0
  0
SEQEND
  0
POLYLINE
  8
0
 10
0
 20
0
 39
0
 70
1
 66
1
  0
VERTEX
  8
0
 10
2727.806640625
 20
1160.9200439453125
 42
-1
  0
VERTEX
  8
0
 10
2697.806640625
 20
1160.9200439453125
 42
-1
  0
SEQEND
  0
POLYLINE
  8
0
 10
0
 20
0
 39
0
 70
1
 66
1
  0
VERTEX
  8
0
 10
2731.639892578125
 20
10.319999694824219
 42
-0
  0
VERTEX
  8
0
 10
2781.639892578125
 20
10.319999694824219
 42
-0
  0
VERTEX
  8
0
 10
2781.639892578125
 20
210.32000732421875
 42
-0
  0
VERTEX
  8
0
 10
2731.639892578125
 20
210.32000732421875
 42
0
  0
SEQEND
  0
POLYLINE
  8
0
 10
0
 20
0
 39
0
 70
1
 66
1
  0
VERTEX
  8
0
 10
2756.639892578125
 20
46.993324279785156
 42
-1
  0
VERTEX
  8
0
 10
2756.639892578125
 20
76.993324279785156
 42
-1
  0
SEQEND
  0
POLYLINE
  8
0
 10
0
 20
0
 39
0
 70
1
 66
1
  0
VERTEX
  8
0
 10
2731.639892578125
 20
220.60000610351562
 42
-0
  0
VERTEX
  8
0
 10
2781.639892578125
 20
220.60000610351562
 42
-0
  0
VERTEX
  8
0
 10
2781.639892578125
 20
420.60000610351562
 42
-0
  0
VERTEX
  8
0
 10
2731.639892578125
 20
420.60000610351562
 42
0
  0
SEQEND
  0
POLYLINE
  8
0
 10
0
 20
0
 39
0
 70
1
 66
1
  0
VERTEX
  8
0
 10
2756.639892578125
 20
257.2733154296875
 42
-1
  0
VERTEX
  8
0
 10
2756.639892578125
 20
287.2733154296875
 42
-1
  0
SEQEND
  0
POLYLINE
  8
0
 10
0
 20
0
 39
0
 70
1
 66
1
  0
VERTEX
  8
0
 10
2733.0400390625
 20
430.8800048828125
 42
-0
  0
VERTEX
  8
0
 10
2783.0400390625
 20
430.8800048828125
 42
-0
  0
VERTEX
  8
0
 10
2783.0400390625
 20
630.8800048828125
 42
-0
  0
VERTEX
  8
0
 10
2733.0400390625
 20
630.8800048828125
 42
0
  0
SEQEND
  0
POLYLINE
  8
0
 10
0
 20
0
 39
0
 70
1
 66
1
  0
VERTEX
  8
0
 10
2758.0400390625
 20
467.55331420898437
 42
-1
  0
VERTEX
  8
0
 10
2758.0400390625
 20
497.55331420898437
 42
-1
  0
SEQEND
  0
POLYLINE
  8
0
 10
0
 20
0
 39
0
 70
1
 66
1
  0
VERTEX
  8
0
 10
2733.0400390625
 20
641.15997314453125
 42
-0
  0
VERTEX
  8
0
 10
2783.0400390625
 20
641.15997314453125
 42
-0
  0
VERTEX
  8
0
 10
2783.0400390625
 20
841.15997314453125
 42
-0
  0
VERTEX
  8
0
 10
2733.0400390625
 20
841.15997314453125
 42
0
  0
SEQEND
  0
POLYLINE
  8
0
 10
0
 20
0
 39
0
 70
1
 66
1
  0
VERTEX
  8
0
 10
2758.0400390625
 20
677.83331298828125
 42
-1
  0
VERTEX
  8
0
 10
2758.0400390625
 20
707.83331298828125
 42
-1
  0
SEQEND
  0
ENDSEC
  0
EOF
