  0
SECTION
  2
ENTITIES
  0
POLYLINE
  8
0
 10
0
 20
0
 39
0
 70
1
 66
1
  0
VERTEX
  8
0
 10
0
 20
0
 42
-0
  0
VERTEX
  8
0
 10
1900
 20
0
 42
-0
  0
VERTEX
  8
0
 10
1900
 20
900
 42
-0
  0
VERTEX
  8
0
 10
0
 20
900
 42
-0
  0
SEQEND
  0
POLYLINE
  8
0
 10
0
 20
0
 39
0
 70
1
 66
1
  0
VERTEX
  8
0
 10
410.26153564453125
 20
10.261538505554199
 42
0
  0
VERTEX
  8
0
 10
410.26153564453125
 20
254.41181945800781
 42
0
  0
VERTEX
  8
0
 10
231.26153564453125
 20
410.26153564453125
 42
0
  0
VERTEX
  8
0
 10
10.261538505554199
 20
410.26153564453125
 42
0
  0
VERTEX
  8
0
 10
10.261538505554199
 20
10.261538505554199
 42
0
  0
SEQEND
  0
POLYLINE
  8
0
 10
0
 20
0
 39
0
 70
1
 66
1
  0
VERTEX
  8
0
 10
356.46759033203125
 20
221.26153564453125
 42
-0
  0
VERTEX
  8
0
 10
356.46759033203125
 20
75.26153564453125
 42
-0
  0
VERTEX
  8
0
 10
62.467594146728516
 20
75.26153564453125
 42
-0
  0
VERTEX
  8
0
 10
62.467594146728516
 20
221.26153564453125
 42
-0
  0
VERTEX
  8
0
 10
209.46760559082031
 20
343.336669921875
 42
-0
  0
SEQEND
  0
POLYLINE
  8
0
 10
0
 20
0
 39
0
 70
1
 66
1
  0
VERTEX
  8
0
 10
410.26153564453125
 20
420.36923217773437
 42
0
  0
VERTEX
  8
0
 10
410.26153564453125
 20
664.51953125
 42
0
  0
VERTEX
  8
0
 10
231.26153564453125
 20
820.36920166015625
 42
0
  0
VERTEX
  8
0
 10
10.261538505554199
 20
820.36920166015625
 42
0
  0
VERTEX
  8
0
 10
10.261538505554199
 20
420.36923217773437
 42
0
  0
SEQEND
  0
POLYLINE
  8
0
 10
0
 20
0
 39
0
 70
1
 66
1
  0
VERTEX
  8
0
 10
356.46759033203125
 20
631.36920166015625
 42
-0
  0
VERTEX
  8
0
 10
356.46759033203125
 20
485.36923217773437
 42
-0
  0
VERTEX
  8
0
 10
62.467594146728516
 20
485.36923217773437
 42
-0
  0
VERTEX
  8
0
 10
62.467594146728516
 20
631.36920166015625
 42
-0
  0
VERTEX
  8
0
 10
209.46760559082031
 20
753.4443359375
 42
-0
  0
SEQEND
  0
POLYLINE
  8
0
 10
0
 20
0
 39
0
 70
1
 66
1
  0
VERTEX
  8
0
 10
820.515380859375
 20
10.261538505554199
 42
0
  0
VERTEX
  8
0
 10
820.515380859375
 20
254.41181945800781
 42
0
  0
VERTEX
  8
0
 10
641.515380859375
 20
410.26153564453125
 42
0
  0
VERTEX
  8
0
 10
420.515380859375
 20
410.26153564453125
 42
0
  0
VERTEX
  8
0
 10
420.515380859375
 20
10.261538505554199
 42
0
  0
SEQEND
  0
POLYLINE
  8
0
 10
0
 20
0
 39
0
 70
1
 66
1
  0
VERTEX
  8
0
 10
766.721435546875
 20
221.26153564453125
 42
-0
  0
VERTEX
  8
0
 10
766.721435546875
 20
75.26153564453125
 42
-0
  0
VERTEX
  8
0
 10
472.721435546875
 20
75.26153564453125
 42
-0
  0
VERTEX
  8
0
 10
472.721435546875
 20
221.26153564453125
 42
-0
  0
VERTEX
  8
0
 10
619.721435546875
 20
343.336669921875
 42
-0
  0
SEQEND
  0
POLYLINE
  8
0
 10
0
 20
0
 39
0
 70
1
 66
1
  0
VERTEX
  8
0
 10
820.515380859375
 20
420.36923217773437
 42
0
  0
VERTEX
  8
0
 10
820.515380859375
 20
664.51953125
 42
0
  0
VERTEX
  8
0
 10
641.515380859375
 20
820.36920166015625
 42
0
  0
VERTEX
  8
0
 10
420.515380859375
 20
820.36920166015625
 42
0
  0
VERTEX
  8
0
 10
420.515380859375
 20
420.36923217773437
 42
0
  0
SEQEND
  0
POLYLINE
  8
0
 10
0
 20
0
 39
0
 70
1
 66
1
  0
VERTEX
  8
0
 10
766.721435546875
 20
631.36920166015625
 42
-0
  0
VERTEX
  8
0
 10
766.721435546875
 20
485.36923217773437
 42
-0
  0
VERTEX
  8
0
 10
472.721435546875
 20
485.36923217773437
 42
-0
  0
VERTEX
  8
0
 10
472.721435546875
 20
631.36920166015625
 42
-0
  0
VERTEX
  8
0
 10
619.721435546875
 20
753.4443359375
 42
-0
  0
SEQEND
  0
POLYLINE
  8
0
 10
0
 20
0
 39
0
 70
1
 66
1
  0
VERTEX
  8
0
 10
1230.769287109375
 20
10.261538505554199
 42
0
  0
VERTEX
  8
0
 10
1230.769287109375
 20
254.41181945800781
 42
0
  0
VERTEX
  8
0
 10
1051.769287109375
 20
410.26153564453125
 42
0
  0
VERTEX
  8
0
 10
830.76922607421875
 20
410.26153564453125
 42
0
  0
VERTEX
  8
0
 10
830.76922607421875
 20
10.261538505554199
 42
0
  0
SEQEND
  0
POLYLINE
  8
0
 10
0
 20
0
 39
0
 70
1
 66
1
  0
VERTEX
  8
0
 10
1176.975341796875
 20
221.26153564453125
 42
-0
  0
VERTEX
  8
0
 10
1176.975341796875
 20
75.26153564453125
 42
-0
  0
VERTEX
  8
0
 10
882.97528076171875
 20
75.26153564453125
 42
-0
  0
VERTEX
  8
0
 10
882.97528076171875
 20
221.26153564453125
 42
-0
  0
VERTEX
  8
0
 10
1029.975341796875
 20
343.336669921875
 42
-0
  0
SEQEND
  0
POLYLINE
  8
0
 10
0
 20
0
 39
0
 70
1
 66
1
  0
VERTEX
  8
0
 10
1027.5233154296875
 20
889.175048828125
 42
1
  0
VERTEX
  8
0
 10
1025.7998046875
 20
494.17880249023437
 42
1
  0
SEQEND
  0
POLYLINE
  8
0
 10
0
 20
0
 39
0
 70
1
 66
1
  0
VERTEX
  8
0
 10
1027.294189453125
 20
836.675537109375
 42
-1
  0
VERTEX
  8
0
 10
1026.02880859375
 20
546.67828369140625
 42
-1
  0
SEQEND
  0
POLYLINE
  8
0
 10
0
 20
0
 39
0
 70
1
 66
1
  0
VERTEX
  8
0
 10
1341.16943359375
 20
632.09039306640625
 42
1
  0
VERTEX
  8
0
 10
1339.4459228515625
 20
237.09419250488281
 42
1
  0
SEQEND
  0
POLYLINE
  8
0
 10
0
 20
0
 39
0
 70
1
 66
1
  0
VERTEX
  8
0
 10
1340.9403076171875
 20
579.5909423828125
 42
-1
  0
VERTEX
  8
0
 10
1339.675048828125
 20
289.59368896484375
 42
-1
  0
SEQEND
  0
POLYLINE
  8
0
 10
0
 20
0
 39
0
 70
1
 66
1
  0
VERTEX
  8
0
 10
1654.23095703125
 20
889.613525390625
 42
1
  0
VERTEX
  8
0
 10
1652.5074462890625
 20
494.61727905273437
 42
1
  0
SEQEND
  0
POLYLINE
  8
0
 10
0
 20
0
 39
0
 70
1
 66
1
  0
VERTEX
  8
0
 10
1654.001953125
 20
837.114013671875
 42
-1
  0
VERTEX
  8
0
 10
1652.736572265625
 20
547.11676025390625
 42
-1
  0
SEQEND
  0
POLYLINE
  8
0
 10
0
 20
0
 39
0
 70
1
 66
1
  0
VERTEX
  8
0
 10
1677.1771240234375
 20
405.2596435546875
 42
1
  0
VERTEX
  8
0
 10
1675.45361328125
 20
10.263418197631836
 42
1
  0
SEQEND
  0
POLYLINE
  8
0
 10
0
 20
0
 39
0
 70
1
 66
1
  0
VERTEX
  8
0
 10
1676.9481201171875
 20
352.76016235351562
 42
-1
  0
VERTEX
  8
0
 10
1675.6827392578125
 20
62.762916564941406
 42
-1
  0
SEQEND
  0
POLYLINE
  8
0
 10
0
 20
0
 39
0
 70
1
 66
1
  0
VERTEX
  8
0
 10
1152.152587890625
 20
690.4019775390625
 42
1
  0
VERTEX
  8
0
 10
892.15509033203125
 20
691.53643798828125
 42
1
  0
SEQEND
  0
POLYLINE
  8
0
 10
0
 20
0
 39
0
 70
1
 66
1
  0
VERTEX
  8
0
 10
1110.1529541015625
 20
690.58526611328125
 42
-1
  0
VERTEX
  8
0
 10
934.1546630859375
 20
691.35321044921875
 42
-1
  0
SEQEND
  0
POLYLINE
  8
0
 10
0
 20
0
 39
0
 70
1
 66
1
  0
VERTEX
  8
0
 10
1465.7987060546875
 20
433.3173828125
 42
1
  0
VERTEX
  8
0
 10
1205.80126953125
 20
434.45184326171875
 42
1
  0
SEQEND
  0
POLYLINE
  8
0
 10
0
 20
0
 39
0
 70
1
 66
1
  0
VERTEX
  8
0
 10
1423.7991943359375
 20
433.50064086914062
 42
-1
  0
VERTEX
  8
0
 10
1247.80078125
 20
434.26858520507812
 42
-1
  0
SEQEND
  0
POLYLINE
  8
0
 10
0
 20
0
 39
0
 70
1
 66
1
  0
VERTEX
  8
0
 10
1778.8603515625
 20
690.8404541015625
 42
1
  0
VERTEX
  8
0
 10
1518.86279296875
 20
691.97491455078125
 42
1
  0
SEQEND
  0
POLYLINE
  8
0
 10
0
 20
0
 39
0
 70
1
 66
1
  0
VERTEX
  8
0
 10
1736.8607177734375
 20
691.02374267578125
 42
-1
  0
VERTEX
  8
0
 10
1560.8624267578125
 20
691.79168701171875
 42
-1
  0
SEQEND
  0
POLYLINE
  8
0
 10
0
 20
0
 39
0
 70
1
 66
1
  0
VERTEX
  8
0
 10
1801.806396484375
 20
206.48661804199219
 42
1
  0
VERTEX
  8
0
 10
1541.8089599609375
 20
207.62107849121094
 42
1
  0
SEQEND
  0
POLYLINE
  8
0
 10
0
 20
0
 39
0
 70
1
 66
1
  0
VERTEX
  8
0
 10
1759.806884765625
 20
206.66987609863281
 42
-1
  0
VERTEX
  8
0
 10
1583.8084716796875
 20
207.43782043457031
 42
-1
  0
SEQEND
  0
POLYLINE
  8
0
 10
0
 20
0
 39
0
 70
1
 66
1
  0
VERTEX
  8
0
 10
322.66921997070312
 20
85.530769348144531
 42
0
  0
VERTEX
  8
0
 10
199.87530517578125
 20
298.68701171875
 42
0
  0
VERTEX
  8
0
 10
72.669227600097656
 20
85.530769348144531
 42
0
  0
SEQEND
  0
POLYLINE
  8
0
 10
0
 20
0
 39
0
 70
1
 66
1
  0
VERTEX
  8
0
 10
257.66921997070312
 20
158.23513793945312
 42
-1
  0
VERTEX
  8
0
 10
137.66923522949219
 20
158.23513793945312
 42
-1
  0
SEQEND
  0
POLYLINE
  8
0
 10
0
 20
0
 39
0
 70
1
 66
1
  0
VERTEX
  8
0
 10
322.66921997070312
 20
495.63845825195312
 42
0
  0
VERTEX
  8
0
 10
199.87530517578125
 20
708.79473876953125
 42
0
  0
VERTEX
  8
0
 10
72.669227600097656
 20
495.63845825195312
 42
0
  0
SEQEND
  0
POLYLINE
  8
0
 10
0
 20
0
 39
0
 70
1
 66
1
  0
VERTEX
  8
0
 10
257.66921997070312
 20
568.34283447265625
 42
-1
  0
VERTEX
  8
0
 10
137.66923522949219
 20
568.34283447265625
 42
-1
  0
SEQEND
  0
POLYLINE
  8
0
 10
0
 20
0
 39
0
 70
1
 66
1
  0
VERTEX
  8
0
 10
732.923095703125
 20
85.530769348144531
 42
0
  0
VERTEX
  8
0
 10
610.129150390625
 20
298.68701171875
 42
0
  0
VERTEX
  8
0
 10
482.92306518554687
 20
85.530769348144531
 42
0
  0
SEQEND
  0
POLYLINE
  8
0
 10
0
 20
0
 39
0
 70
1
 66
1
  0
VERTEX
  8
0
 10
667.923095703125
 20
158.23513793945312
 42
-1
  0
VERTEX
  8
0
 10
547.923095703125
 20
158.23513793945312
 42
-1
  0
SEQEND
  0
POLYLINE
  8
0
 10
0
 20
0
 39
0
 70
1
 66
1
  0
VERTEX
  8
0
 10
732.923095703125
 20
495.63845825195312
 42
0
  0
VERTEX
  8
0
 10
610.129150390625
 20
708.79473876953125
 42
0
  0
VERTEX
  8
0
 10
482.92306518554687
 20
495.63845825195312
 42
0
  0
SEQEND
  0
POLYLINE
  8
0
 10
0
 20
0
 39
0
 70
1
 66
1
  0
VERTEX
  8
0
 10
667.923095703125
 20
568.34283447265625
 42
-1
  0
VERTEX
  8
0
 10
547.923095703125
 20
568.34283447265625
 42
-1
  0
SEQEND
  0
POLYLINE
  8
0
 10
0
 20
0
 39
0
 70
1
 66
1
  0
VERTEX
  8
0
 10
1143.1768798828125
 20
85.530769348144531
 42
0
  0
VERTEX
  8
0
 10
1020.3829956054687
 20
298.68701171875
 42
0
  0
VERTEX
  8
0
 10
893.17694091796875
 20
85.530769348144531
 42
0
  0
SEQEND
  0
POLYLINE
  8
0
 10
0
 20
0
 39
0
 70
1
 66
1
  0
VERTEX
  8
0
 10
1078.1768798828125
 20
158.23513793945312
 42
-1
  0
VERTEX
  8
0
 10
958.17694091796875
 20
158.23513793945312
 42
-1
  0
SEQEND
  0
POLYLINE
  8
0
 10
0
 20
0
 39
0
 70
1
 66
1
  0
VERTEX
  8
0
 10
1152.5999755859375
 20
889.5870361328125
 42
0
  0
VERTEX
  8
0
 10
1275.3939208984375
 20
676.4307861328125
 42
0
  0
VERTEX
  8
0
 10
1402.5999755859375
 20
889.5870361328125
 42
0
  0
SEQEND
  0
POLYLINE
  8
0
 10
0
 20
0
 39
0
 70
1
 66
1
  0
VERTEX
  8
0
 10
1217.5999755859375
 20
816.88262939453125
 42
-1
  0
VERTEX
  8
0
 10
1337.5999755859375
 20
816.88262939453125
 42
-1
  0
SEQEND
  0
POLYLINE
  8
0
 10
0
 20
0
 39
0
 70
1
 66
1
  0
VERTEX
  8
0
 10
341.25283813476562
 20
889.73785400390625
 42
1
  0
VERTEX
  8
0
 10
340.68560791015625
 20
759.73907470703125
 42
1
  0
SEQEND
  0
POLYLINE
  8
0
 10
0
 20
0
 39
0
 70
1
 66
1
  0
VERTEX
  8
0
 10
341.10012817382812
 20
854.7381591796875
 42
-1
  0
VERTEX
  8
0
 10
340.83831787109375
 20
794.73876953125
 42
-1
  0
SEQEND
  0
POLYLINE
  8
0
 10
0
 20
0
 39
0
 70
1
 66
1
  0
VERTEX
  8
0
 10
751.5067138671875
 20
889.73785400390625
 42
1
  0
VERTEX
  8
0
 10
750.939453125
 20
759.73907470703125
 42
1
  0
SEQEND
  0
POLYLINE
  8
0
 10
0
 20
0
 39
0
 70
1
 66
1
  0
VERTEX
  8
0
 10
751.35400390625
 20
854.7381591796875
 42
-1
  0
VERTEX
  8
0
 10
751.0921630859375
 20
794.73876953125
 42
-1
  0
SEQEND
  0
POLYLINE
  8
0
 10
0
 20
0
 39
0
 70
1
 66
1
  0
VERTEX
  8
0
 10
1009.9066772460937
 20
754.9840087890625
 42
1
  0
VERTEX
  8
0
 10
1009.3394775390625
 20
624.9852294921875
 42
1
  0
SEQEND
  0
POLYLINE
  8
0
 10
0
 20
0
 39
0
 70
1
 66
1
  0
VERTEX
  8
0
 10
1009.7539672851562
 20
719.98431396484375
 42
-1
  0
VERTEX
  8
0
 10
1009.4921875
 20
659.98492431640625
 42
-1
  0
SEQEND
  0
POLYLINE
  8
0
 10
0
 20
0
 39
0
 70
1
 66
1
  0
VERTEX
  8
0
 10
1306.306640625
 20
140.26091003417969
 42
1
  0
VERTEX
  8
0
 10
1305.739501953125
 20
10.262157440185547
 42
1
  0
SEQEND
  0
POLYLINE
  8
0
 10
0
 20
0
 39
0
 70
1
 66
1
  0
VERTEX
  8
0
 10
1306.1539306640625
 20
105.26125335693359
 42
-1
  0
VERTEX
  8
0
 10
1305.8922119140625
 20
45.261821746826172
 42
-1
  0
SEQEND
  0
POLYLINE
  8
0
 10
0
 20
0
 39
0
 70
1
 66
1
  0
VERTEX
  8
0
 10
1323.5528564453125
 20
497.89938354492187
 42
1
  0
VERTEX
  8
0
 10
1322.985595703125
 20
367.90060424804687
 42
1
  0
SEQEND
  0
POLYLINE
  8
0
 10
0
 20
0
 39
0
 70
1
 66
1
  0
VERTEX
  8
0
 10
1323.400146484375
 20
462.89971923828125
 42
-1
  0
VERTEX
  8
0
 10
1323.1383056640625
 20
402.90029907226563
 42
-1
  0
SEQEND
  0
POLYLINE
  8
0
 10
0
 20
0
 39
0
 70
1
 66
1
  0
VERTEX
  8
0
 10
1380.40673828125
 20
769.599365234375
 42
1
  0
VERTEX
  8
0
 10
1379.8394775390625
 20
639.60064697265625
 42
1
  0
SEQEND
  0
POLYLINE
  8
0
 10
0
 20
0
 39
0
 70
1
 66
1
  0
VERTEX
  8
0
 10
1380.2540283203125
 20
734.5997314453125
 42
-1
  0
VERTEX
  8
0
 10
1379.9921875
 20
674.60028076171875
 42
-1
  0
SEQEND
  0
POLYLINE
  8
0
 10
0
 20
0
 39
0
 70
1
 66
1
  0
VERTEX
  8
0
 10
1636.6143798828125
 20
755.4224853515625
 42
1
  0
VERTEX
  8
0
 10
1636.047119140625
 20
625.4237060546875
 42
1
  0
SEQEND
  0
POLYLINE
  8
0
 10
0
 20
0
 39
0
 70
1
 66
1
  0
VERTEX
  8
0
 10
1636.461669921875
 20
720.42279052734375
 42
-1
  0
VERTEX
  8
0
 10
1636.1998291015625
 20
660.42333984375
 42
-1
  0
SEQEND
  0
POLYLINE
  8
0
 10
0
 20
0
 39
0
 70
1
 66
1
  0
VERTEX
  8
0
 10
1659.560546875
 20
271.068603515625
 42
1
  0
VERTEX
  8
0
 10
1658.9932861328125
 20
141.06985473632812
 42
1
  0
SEQEND
  0
POLYLINE
  8
0
 10
0
 20
0
 39
0
 70
1
 66
1
  0
VERTEX
  8
0
 10
1659.4078369140625
 20
236.06893920898437
 42
-1
  0
VERTEX
  8
0
 10
1659.14599609375
 20
176.06951904296875
 42
-1
  0
SEQEND
  0
POLYLINE
  8
0
 10
0
 20
0
 39
0
 70
1
 66
1
  0
VERTEX
  8
0
 10
1790.3682861328125
 20
520.84552001953125
 42
1
  0
VERTEX
  8
0
 10
1789.801025390625
 20
390.84677124023437
 42
1
  0
SEQEND
  0
POLYLINE
  8
0
 10
0
 20
0
 39
0
 70
1
 66
1
  0
VERTEX
  8
0
 10
1790.2154541015625
 20
485.84585571289062
 42
-1
  0
VERTEX
  8
0
 10
1789.9537353515625
 20
425.846435546875
 42
-1
  0
SEQEND
  0
POLYLINE
  8
0
 10
0
 20
0
 39
0
 70
1
 66
1
  0
VERTEX
  8
0
 10
210.26153564453125
 20
830.4769287109375
 42
-0
  0
VERTEX
  8
0
 10
210.26153564453125
 20
880.4769287109375
 42
-0
  0
VERTEX
  8
0
 10
10.261538505554199
 20
880.4769287109375
 42
-0
  0
VERTEX
  8
0
 10
10.261538505554199
 20
830.4769287109375
 42
0
  0
SEQEND
  0
POLYLINE
  8
0
 10
0
 20
0
 39
0
 70
1
 66
1
  0
VERTEX
  8
0
 10
173.58821105957031
 20
855.4769287109375
 42
-1
  0
VERTEX
  8
0
 10
143.58821105957031
 20
855.4769287109375
 42
-1
  0
SEQEND
  0
POLYLINE
  8
0
 10
0
 20
0
 39
0
 70
1
 66
1
  0
VERTEX
  8
0
 10
614.9615478515625
 20
838.953857421875
 42
-0
  0
VERTEX
  8
0
 10
614.9615478515625
 20
888.953857421875
 42
-0
  0
VERTEX
  8
0
 10
414.9615478515625
 20
888.953857421875
 42
-0
  0
VERTEX
  8
0
 10
414.9615478515625
 20
838.953857421875
 42
0
  0
SEQEND
  0
POLYLINE
  8
0
 10
0
 20
0
 39
0
 70
1
 66
1
  0
VERTEX
  8
0
 10
578.2882080078125
 20
863.953857421875
 42
-1
  0
VERTEX
  8
0
 10
548.2882080078125
 20
863.953857421875
 42
-1
  0
SEQEND
  0
POLYLINE
  8
0
 10
0
 20
0
 39
0
 70
1
 66
1
  0
VERTEX
  8
0
 10
1030.769287109375
 20
420.36923217773437
 42
-0
  0
VERTEX
  8
0
 10
1030.769287109375
 20
470.36923217773437
 42
-0
  0
VERTEX
  8
0
 10
830.76922607421875
 20
470.36923217773437
 42
-0
  0
VERTEX
  8
0
 10
830.76922607421875
 20
420.36923217773437
 42
0
  0
SEQEND
  0
POLYLINE
  8
0
 10
0
 20
0
 39
0
 70
1
 66
1
  0
VERTEX
  8
0
 10
994.09588623046875
 20
445.36923217773437
 42
-1
  0
VERTEX
  8
0
 10
964.09588623046875
 20
445.36923217773437
 42
-1
  0
SEQEND
  0
POLYLINE
  8
0
 10
0
 20
0
 39
0
 70
1
 66
1
  0
VERTEX
  8
0
 10
1381.1845703125
 20
10.261538505554199
 42
-0
  0
VERTEX
  8
0
 10
1431.1845703125
 20
10.261538505554199
 42
-0
  0
VERTEX
  8
0
 10
1431.1845703125
 20
210.26153564453125
 42
-0
  0
VERTEX
  8
0
 10
1381.1845703125
 20
210.26153564453125
 42
0
  0
SEQEND
  0
POLYLINE
  8
0
 10
0
 20
0
 39
0
 70
1
 66
1
  0
VERTEX
  8
0
 10
1406.1845703125
 20
46.934864044189453
 42
-1
  0
VERTEX
  8
0
 10
1406.1845703125
 20
76.934860229492188
 42
-1
  0
SEQEND
  0
POLYLINE
  8
0
 10
0
 20
0
 39
0
 70
1
 66
1
  0
VERTEX
  8
0
 10
404.46923828125
 20
360.29998779296875
 42
-0
  0
VERTEX
  8
0
 10
404.46923828125
 20
410.29998779296875
 42
-0
  0
VERTEX
  8
0
 10
304.46923828125
 20
410.29998779296875
 42
-0
  0
VERTEX
  8
0
 10
304.46923828125
 20
360.29998779296875
 42
0
  0
SEQEND
  0
POLYLINE
  8
0
 10
0
 20
0
 39
0
 70
1
 66
1
  0
VERTEX
  8
0
 10
384.06317138671875
 20
385.29998779296875
 42
-0
  0
VERTEX
  8
0
 10
384.06317138671875
 20
372.29998779296875
 42
-0
  0
VERTEX
  8
0
 10
324.87530517578125
 20
372.29998779296875
 42
-0
  0
VERTEX
  8
0
 10
324.87530517578125
 20
385.29998779296875
 42
-0
  0
VERTEX
  8
0
 10
324.87530517578125
 20
398.29998779296875
 42
0
  0
VERTEX
  8
0
 10
384.06317138671875
 20
398.29998779296875
 42
0
  0
SEQEND
  0
POLYLINE
  8
0
 10
0
 20
0
 39
0
 70
1
 66
1
  0
VERTEX
  8
0
 10
814.72308349609375
 20
360.29998779296875
 42
-0
  0
VERTEX
  8
0
 10
814.72308349609375
 20
410.29998779296875
 42
-0
  0
VERTEX
  8
0
 10
714.72308349609375
 20
410.29998779296875
 42
-0
  0
VERTEX
  8
0
 10
714.72308349609375
 20
360.29998779296875
 42
0
  0
SEQEND
  0
POLYLINE
  8
0
 10
0
 20
0
 39
0
 70
1
 66
1
  0
VERTEX
  8
0
 10
794.3170166015625
 20
385.29998779296875
 42
-0
  0
VERTEX
  8
0
 10
794.3170166015625
 20
372.29998779296875
 42
-0
  0
VERTEX
  8
0
 10
735.129150390625
 20
372.29998779296875
 42
-0
  0
VERTEX
  8
0
 10
735.129150390625
 20
385.29998779296875
 42
-0
  0
VERTEX
  8
0
 10
735.129150390625
 20
398.29998779296875
 42
0
  0
VERTEX
  8
0
 10
794.3170166015625
 20
398.29998779296875
 42
0
  0
SEQEND
  0
POLYLINE
  8
0
 10
0
 20
0
 39
0
 70
1
 66
1
  0
VERTEX
  8
0
 10
1341.0230712890625
 20
150.27691650390625
 42
-0
  0
VERTEX
  8
0
 10
1341.0230712890625
 20
200.27691650390625
 42
-0
  0
VERTEX
  8
0
 10
1241.0230712890625
 20
200.27691650390625
 42
-0
  0
VERTEX
  8
0
 10
1241.0230712890625
 20
150.27691650390625
 42
0
  0
SEQEND
  0
POLYLINE
  8
0
 10
0
 20
0
 39
0
 70
1
 66
1
  0
VERTEX
  8
0
 10
1320.6170654296875
 20
175.27691650390625
 42
-0
  0
VERTEX
  8
0
 10
1320.6170654296875
 20
162.27691650390625
 42
-0
  0
VERTEX
  8
0
 10
1261.4290771484375
 20
162.27691650390625
 42
-0
  0
VERTEX
  8
0
 10
1261.4290771484375
 20
175.27691650390625
 42
-0
  0
VERTEX
  8
0
 10
1261.4290771484375
 20
188.27691650390625
 42
0
  0
VERTEX
  8
0
 10
1320.6170654296875
 20
188.27691650390625
 42
0
  0
SEQEND
  0
POLYLINE
  8
0
 10
0
 20
0
 39
0
 70
1
 66
1
  0
VERTEX
  8
0
 10
1406.1768798828125
 20
775.376953125
 42
-0
  0
VERTEX
  8
0
 10
1456.1768798828125
 20
775.376953125
 42
-0
  0
VERTEX
  8
0
 10
1456.1768798828125
 20
875.376953125
 42
-0
  0
VERTEX
  8
0
 10
1406.1768798828125
 20
875.376953125
 42
0
  0
SEQEND
  0
POLYLINE
  8
0
 10
0
 20
0
 39
0
 70
1
 66
1
  0
VERTEX
  8
0
 10
1431.1768798828125
 20
795.782958984375
 42
-0
  0
VERTEX
  8
0
 10
1418.1768798828125
 20
795.782958984375
 42
-0
  0
VERTEX
  8
0
 10
1418.1768798828125
 20
854.97088623046875
 42
-0
  0
VERTEX
  8
0
 10
1431.1768798828125
 20
854.97088623046875
 42
-0
  0
VERTEX
  8
0
 10
1444.1768798828125
 20
854.97088623046875
 42
0
  0
VERTEX
  8
0
 10
1444.1768798828125
 20
795.782958984375
 42
0
  0
SEQEND
  0
POLYLINE
  8
0
 10
0
 20
0
 39
0
 70
1
 66
1
  0
VERTEX
  8
0
 10
1441.4000244140625
 20
10.261538505554199
 42
-0
  0
VERTEX
  8
0
 10
1491.4000244140625
 20
10.261538505554199
 42
-0
  0
VERTEX
  8
0
 10
1491.4000244140625
 20
110.26153564453125
 42
-0
  0
VERTEX
  8
0
 10
1441.4000244140625
 20
110.26153564453125
 42
0
  0
SEQEND
  0
POLYLINE
  8
0
 10
0
 20
0
 39
0
 70
1
 66
1
  0
VERTEX
  8
0
 10
1466.4000244140625
 20
30.667600631713867
 42
-0
  0
VERTEX
  8
0
 10
1453.4000244140625
 20
30.667600631713867
 42
-0
  0
VERTEX
  8
0
 10
1453.4000244140625
 20
89.855476379394531
 42
-0
  0
VERTEX
  8
0
 10
1466.4000244140625
 20
89.855476379394531
 42
-0
  0
VERTEX
  8
0
 10
1479.4000244140625
 20
89.855476379394531
 42
0
  0
VERTEX
  8
0
 10
1479.4000244140625
 20
30.667600631713867
 42
0
  0
SEQEND
  0
POLYLINE
  8
0
 10
0
 20
0
 39
0
 70
1
 66
1
  0
VERTEX
  8
0
 10
1648.09228515625
 20
413.79229736328125
 42
-0
  0
VERTEX
  8
0
 10
1648.09228515625
 20
463.79229736328125
 42
-0
  0
VERTEX
  8
0
 10
1548.09228515625
 20
463.79229736328125
 42
-0
  0
VERTEX
  8
0
 10
1548.09228515625
 20
413.79229736328125
 42
0
  0
SEQEND
  0
POLYLINE
  8
0
 10
0
 20
0
 39
0
 70
1
 66
1
  0
VERTEX
  8
0
 10
1627.686279296875
 20
438.79229736328125
 42
-0
  0
VERTEX
  8
0
 10
1627.686279296875
 20
425.79229736328125
 42
-0
  0
VERTEX
  8
0
 10
1568.4984130859375
 20
425.79229736328125
 42
-0
  0
VERTEX
  8
0
 10
1568.4984130859375
 20
438.79229736328125
 42
-0
  0
VERTEX
  8
0
 10
1568.4984130859375
 20
451.79229736328125
 42
0
  0
VERTEX
  8
0
 10
1627.686279296875
 20
451.79229736328125
 42
0
  0
SEQEND
  0
POLYLINE
  8
0
 10
0
 20
0
 39
0
 70
1
 66
1
  0
VERTEX
  8
0
 10
1837.0384521484375
 20
789.5538330078125
 42
-0
  0
VERTEX
  8
0
 10
1887.0384521484375
 20
789.5538330078125
 42
-0
  0
VERTEX
  8
0
 10
1887.0384521484375
 20
889.5538330078125
 42
-0
  0
VERTEX
  8
0
 10
1837.0384521484375
 20
889.5538330078125
 42
0
  0
SEQEND
  0
POLYLINE
  8
0
 10
0
 20
0
 39
0
 70
1
 66
1
  0
VERTEX
  8
0
 10
1862.0384521484375
 20
809.95989990234375
 42
-0
  0
VERTEX
  8
0
 10
1849.0384521484375
 20
809.95989990234375
 42
-0
  0
VERTEX
  8
0
 10
1849.0384521484375
 20
869.14776611328125
 42
-0
  0
VERTEX
  8
0
 10
1862.0384521484375
 20
869.14776611328125
 42
-0
  0
VERTEX
  8
0
 10
1875.0384521484375
 20
869.14776611328125
 42
0
  0
VERTEX
  8
0
 10
1875.0384521484375
 20
809.95989990234375
 42
0
  0
SEQEND
  0
POLYLINE
  8
0
 10
0
 20
0
 39
0
 70
1
 66
1
  0
VERTEX
  8
0
 10
168.46722412109375
 20
130.65287780761719
 42
-0
  0
VERTEX
  8
0
 10
210.58441162109375
 20
122.21538543701172
 42
-0
  0
VERTEX
  8
0
 10
210.58441162109375
 20
192.21342468261719
 42
-0
  0
VERTEX
  8
0
 10
168.46624755859375
 20
183.77787780761719
 42
0.76732701063156128
  0
SEQEND
  0
POLYLINE
  8
0
 10
0
 20
0
 39
0
 70
1
 66
1
  0
VERTEX
  8
0
 10
175.58441162109375
 20
172.21537780761719
 42
-1
  0
VERTEX
  8
0
 10
175.58441162109375
 20
142.21537780761719
 42
-1
  0
SEQEND
  0
POLYLINE
  8
0
 10
0
 20
0
 39
0
 70
1
 66
1
  0
VERTEX
  8
0
 10
168.46722412109375
 20
540.76055908203125
 42
-0
  0
VERTEX
  8
0
 10
210.58441162109375
 20
532.32305908203125
 42
-0
  0
VERTEX
  8
0
 10
210.58441162109375
 20
602.32110595703125
 42
-0
  0
VERTEX
  8
0
 10
168.46624755859375
 20
593.88555908203125
 42
0.76732701063156128
  0
SEQEND
  0
POLYLINE
  8
0
 10
0
 20
0
 39
0
 70
1
 66
1
  0
VERTEX
  8
0
 10
175.58441162109375
 20
582.32305908203125
 42
-1
  0
VERTEX
  8
0
 10
175.58441162109375
 20
552.32305908203125
 42
-1
  0
SEQEND
  0
POLYLINE
  8
0
 10
0
 20
0
 39
0
 70
1
 66
1
  0
VERTEX
  8
0
 10
578.7210693359375
 20
130.65287780761719
 42
-0
  0
VERTEX
  8
0
 10
620.8382568359375
 20
122.21538543701172
 42
-0
  0
VERTEX
  8
0
 10
620.8382568359375
 20
192.21342468261719
 42
-0
  0
VERTEX
  8
0
 10
578.7200927734375
 20
183.77787780761719
 42
0.76732701063156128
  0
SEQEND
  0
POLYLINE
  8
0
 10
0
 20
0
 39
0
 70
1
 66
1
  0
VERTEX
  8
0
 10
585.8382568359375
 20
172.21537780761719
 42
-1
  0
VERTEX
  8
0
 10
585.8382568359375
 20
142.21537780761719
 42
-1
  0
SEQEND
  0
POLYLINE
  8
0
 10
0
 20
0
 39
0
 70
1
 66
1
  0
VERTEX
  8
0
 10
578.7210693359375
 20
540.76055908203125
 42
-0
  0
VERTEX
  8
0
 10
620.8382568359375
 20
532.32305908203125
 42
-0
  0
VERTEX
  8
0
 10
620.8382568359375
 20
602.32110595703125
 42
-0
  0
VERTEX
  8
0
 10
578.7200927734375
 20
593.88555908203125
 42
0.76732701063156128
  0
SEQEND
  0
POLYLINE
  8
0
 10
0
 20
0
 39
0
 70
1
 66
1
  0
VERTEX
  8
0
 10
585.8382568359375
 20
582.32305908203125
 42
-1
  0
VERTEX
  8
0
 10
585.8382568359375
 20
552.32305908203125
 42
-1
  0
SEQEND
  0
POLYLINE
  8
0
 10
0
 20
0
 39
0
 70
1
 66
1
  0
VERTEX
  8
0
 10
876.39898681640625
 20
847.2056884765625
 42
-0
  0
VERTEX
  8
0
 10
884.83648681640625
 20
889.3228759765625
 42
-0
  0
VERTEX
  8
0
 10
814.83843994140625
 20
889.3228759765625
 42
-0
  0
VERTEX
  8
0
 10
823.27398681640625
 20
847.2047119140625
 42
0.76732701063156128
  0
SEQEND
  0
POLYLINE
  8
0
 10
0
 20
0
 39
0
 70
1
 66
1
  0
VERTEX
  8
0
 10
834.83648681640625
 20
854.3228759765625
 42
-1
  0
VERTEX
  8
0
 10
864.83648681640625
 20
854.3228759765625
 42
-1
  0
SEQEND
  0
POLYLINE
  8
0
 10
0
 20
0
 39
0
 70
1
 66
1
  0
VERTEX
  8
0
 10
872.88641357421875
 20
541.9990234375
 42
-0
  0
VERTEX
  8
0
 10
830.76922607421875
 20
550.4365234375
 42
-0
  0
VERTEX
  8
0
 10
830.76922607421875
 20
480.4384765625
 42
-0
  0
VERTEX
  8
0
 10
872.88739013671875
 20
488.8740234375
 42
0.76732701063156128
  0
SEQEND
  0
POLYLINE
  8
0
 10
0
 20
0
 39
0
 70
1
 66
1
  0
VERTEX
  8
0
 10
865.76922607421875
 20
500.4365234375
 42
-1
  0
VERTEX
  8
0
 10
865.76922607421875
 20
530.4365234375
 42
-1
  0
SEQEND
  0
POLYLINE
  8
0
 10
0
 20
0
 39
0
 70
1
 66
1
  0
VERTEX
  8
0
 10
988.97491455078125
 20
130.65287780761719
 42
-0
  0
VERTEX
  8
0
 10
1031.0921630859375
 20
122.21538543701172
 42
-0
  0
VERTEX
  8
0
 10
1031.0921630859375
 20
192.21342468261719
 42
-0
  0
VERTEX
  8
0
 10
988.97393798828125
 20
183.77787780761719
 42
0.76732701063156128
  0
SEQEND
  0
POLYLINE
  8
0
 10
0
 20
0
 39
0
 70
1
 66
1
  0
VERTEX
  8
0
 10
996.09210205078125
 20
172.21537780761719
 42
-1
  0
VERTEX
  8
0
 10
996.09210205078125
 20
142.21537780761719
 42
-1
  0
SEQEND
  0
POLYLINE
  8
0
 10
0
 20
0
 39
0
 70
1
 66
1
  0
VERTEX
  8
0
 10
1061.321044921875
 20
417.84518432617187
 42
-0
  0
VERTEX
  8
0
 10
1103.438232421875
 20
409.40768432617187
 42
-0
  0
VERTEX
  8
0
 10
1103.438232421875
 20
479.40573120117187
 42
-0
  0
VERTEX
  8
0
 10
1061.320068359375
 20
470.97018432617187
 42
0.76732701063156128
  0
SEQEND
  0
POLYLINE
  8
0
 10
0
 20
0
 39
0
 70
1
 66
1
  0
VERTEX
  8
0
 10
1068.438232421875
 20
459.40768432617187
 42
-1
  0
VERTEX
  8
0
 10
1068.438232421875
 20
429.40768432617187
 42
-1
  0
SEQEND
  0
POLYLINE
  8
0
 10
0
 20
0
 39
0
 70
1
 66
1
  0
VERTEX
  8
0
 10
1248.39794921875
 20
789.22210693359375
 42
-0
  0
VERTEX
  8
0
 10
1290.51513671875
 20
780.78460693359375
 42
-0
  0
VERTEX
  8
0
 10
1290.51513671875
 20
850.78265380859375
 42
-0
  0
VERTEX
  8
0
 10
1248.39697265625
 20
842.34710693359375
 42
0.76732701063156128
  0
SEQEND
  0
POLYLINE
  8
0
 10
0
 20
0
 39
0
 70
1
 66
1
  0
VERTEX
  8
0
 10
1255.51513671875
 20
830.78460693359375
 42
-1
  0
VERTEX
  8
0
 10
1255.51513671875
 20
800.78460693359375
 42
-1
  0
SEQEND
  0
ENDSEC
  0
EOF
