  0
SECTION
  2
ENTITIES
  0
POLYLINE
  8
0
 10
0
 20
0
 39
0
 70
1
 66
1
  0
VERTEX
  8
0
 10
0
 20
0
 42
-0
  0
VERTEX
  8
0
 10
2000
 20
0
 42
-0
  0
VERTEX
  8
0
 10
2000
 20
1300
 42
-0
  0
VERTEX
  8
0
 10
0
 20
1300
 42
-0
  0
SEQEND
  0
POLYLINE
  8
0
 10
0
 20
0
 39
0
 70
1
 66
1
  0
VERTEX
  8
0
 10
816.39999999999998
 20
1239.5999894887423
 42
0
  0
VERTEX
  8
0
 10
1060.4000000000001
 20
1239.5999971181366
 42
0
  0
VERTEX
  8
0
 10
1060.4000000000001
 20
1179.5999971181366
 42
0
  0
VERTEX
  8
0
 10
420.39999999999992
 20
1054.5999971181368
 42
0
  0
VERTEX
  8
0
 10
140.39999999999998
 20
1054.5999971181368
 42
0
  0
VERTEX
  8
0
 10
10.399999999999975
 20
1084.5999971181368
 42
0
  0
VERTEX
  8
0
 10
10.4
 20
1284.5999971181368
 42
-0
  0
VERTEX
  8
0
 10
80.400000000000006
 20
1289.5999971181368
 42
0.7645079493522644
  0
VERTEX
  8
0
 10
466.39999999999998
 20
1289.6000000000004
 42
0.25831884145736694
  0
SEQEND
  0
POLYLINE
  8
0
 10
0
 20
0
 39
0
 70
1
 66
1
  0
VERTEX
  8
0
 10
470.39999999999998
 20
1106.5999971181368
 42
1
  0
VERTEX
  8
0
 10
510.39999999999998
 20
1106.5999971181368
 42
1
  0
SEQEND
  0
POLYLINE
  8
0
 10
0
 20
0
 39
0
 70
1
 66
1
  0
VERTEX
  8
0
 10
25.399999999999977
 20
1106.5999971181368
 42
1
  0
VERTEX
  8
0
 10
65.399999999999977
 20
1106.5999971181368
 42
1
  0
SEQEND
  0
POLYLINE
  8
0
 10
0
 20
0
 39
0
 70
1
 66
1
  0
VERTEX
  8
0
 10
1183.4000000000003
 20
1085.2000076293946
 42
0
  0
VERTEX
  8
0
 10
939.40000000000032
 20
1085.2
 42
0
  0
VERTEX
  8
0
 10
939.40000000000032
 20
1145.2
 42
0
  0
VERTEX
  8
0
 10
1579.4000000000003
 20
1270.2
 42
0
  0
VERTEX
  8
0
 10
1859.4000000000003
 20
1270.2
 42
0
  0
VERTEX
  8
0
 10
1989.4000000000003
 20
1240.2
 42
0
  0
VERTEX
  8
0
 10
1989.4000000000003
 20
1040.2
 42
-0
  0
VERTEX
  8
0
 10
1919.4000000000003
 20
1035.2
 42
0.7645079493522644
  0
VERTEX
  8
0
 10
1533.4000000000003
 20
1035.1999971181365
 42
0.25831884145736694
  0
SEQEND
  0
POLYLINE
  8
0
 10
0
 20
0
 39
0
 70
1
 66
1
  0
VERTEX
  8
0
 10
1529.4000000000003
 20
1218.2
 42
1
  0
VERTEX
  8
0
 10
1489.4000000000003
 20
1218.2
 42
1
  0
SEQEND
  0
POLYLINE
  8
0
 10
0
 20
0
 39
0
 70
1
 66
1
  0
VERTEX
  8
0
 10
1974.4000000000003
 20
1218.2
 42
1
  0
VERTEX
  8
0
 10
1934.4000000000003
 20
1218.2
 42
1
  0
SEQEND
  0
POLYLINE
  8
0
 10
0
 20
0
 39
0
 70
1
 66
1
  0
VERTEX
  8
0
 10
1657.2000000000003
 20
1048.599989488742
 42
0
  0
VERTEX
  8
0
 10
1901.2000000000003
 20
1048.5999971181363
 42
0
  0
VERTEX
  8
0
 10
1901.2000000000003
 20
988.59999711813646
 42
0
  0
VERTEX
  8
0
 10
1261.2
 20
863.59999711813657
 42
0
  0
VERTEX
  8
0
 10
981.20000000000016
 20
863.59999711813657
 42
0
  0
VERTEX
  8
0
 10
851.20000000000016
 20
893.59999711813657
 42
0
  0
VERTEX
  8
0
 10
851.20000000000016
 20
1093.5999971181366
 42
-0
  0
VERTEX
  8
0
 10
921.20000000000016
 20
1098.5999971181366
 42
0.7645079493522644
  0
VERTEX
  8
0
 10
1307.2000000000003
 20
1098.6000000000001
 42
0.25831884145736694
  0
SEQEND
  0
POLYLINE
  8
0
 10
0
 20
0
 39
0
 70
1
 66
1
  0
VERTEX
  8
0
 10
1311.2000000000003
 20
915.59999711813657
 42
1
  0
VERTEX
  8
0
 10
1351.2000000000003
 20
915.59999711813657
 42
1
  0
SEQEND
  0
POLYLINE
  8
0
 10
0
 20
0
 39
0
 70
1
 66
1
  0
VERTEX
  8
0
 10
866.20000000000016
 20
915.59999711813657
 42
1
  0
VERTEX
  8
0
 10
906.20000000000016
 20
915.59999711813657
 42
1
  0
SEQEND
  0
POLYLINE
  8
0
 10
0
 20
0
 39
0
 70
1
 66
1
  0
VERTEX
  8
0
 10
1183.6000000000001
 20
730.00000762939464
 42
0
  0
VERTEX
  8
0
 10
939.60000000000014
 20
730.00000000000011
 42
0
  0
VERTEX
  8
0
 10
939.60000000000014
 20
790.00000000000011
 42
0
  0
VERTEX
  8
0
 10
1579.6000000000001
 20
915.00000000000011
 42
0
  0
VERTEX
  8
0
 10
1859.6000000000001
 20
915.00000000000011
 42
0
  0
VERTEX
  8
0
 10
1989.6000000000001
 20
885.00000000000011
 42
0
  0
VERTEX
  8
0
 10
1989.6000000000001
 20
685.00000000000011
 42
-0
  0
VERTEX
  8
0
 10
1919.6000000000001
 20
680.00000000000011
 42
0.7645079493522644
  0
VERTEX
  8
0
 10
1533.6000000000001
 20
679.99999711813655
 42
0.25831884145736694
  0
SEQEND
  0
POLYLINE
  8
0
 10
0
 20
0
 39
0
 70
1
 66
1
  0
VERTEX
  8
0
 10
1529.6000000000001
 20
863.00000000000011
 42
1
  0
VERTEX
  8
0
 10
1489.6000000000001
 20
863.00000000000011
 42
1
  0
SEQEND
  0
POLYLINE
  8
0
 10
0
 20
0
 39
0
 70
1
 66
1
  0
VERTEX
  8
0
 10
1974.6000000000001
 20
863.00000000000011
 42
1
  0
VERTEX
  8
0
 10
1934.6000000000001
 20
863.00000000000011
 42
1
  0
SEQEND
  0
POLYLINE
  8
0
 10
0
 20
0
 39
0
 70
1
 66
1
  0
VERTEX
  8
0
 10
1191.4000000000001
 20
721.59998948874204
 42
0
  0
VERTEX
  8
0
 10
1435.4000000000001
 20
721.59999711813657
 42
0
  0
VERTEX
  8
0
 10
1435.4000000000001
 20
661.59999711813657
 42
0
  0
VERTEX
  8
0
 10
795.39999999999986
 20
536.59999711813657
 42
0
  0
VERTEX
  8
0
 10
515.39999999999998
 20
536.59999711813668
 42
0
  0
VERTEX
  8
0
 10
385.39999999999998
 20
566.59999711813668
 42
0
  0
VERTEX
  8
0
 10
385.39999999999998
 20
766.59999711813668
 42
-0
  0
VERTEX
  8
0
 10
455.39999999999998
 20
771.59999711813668
 42
0.7645079493522644
  0
VERTEX
  8
0
 10
841.39999999999998
 20
771.60000000000025
 42
0.25831884145736694
  0
SEQEND
  0
POLYLINE
  8
0
 10
0
 20
0
 39
0
 70
1
 66
1
  0
VERTEX
  8
0
 10
845.39999999999998
 20
588.59999711813657
 42
1
  0
VERTEX
  8
0
 10
885.39999999999998
 20
588.59999711813657
 42
1
  0
SEQEND
  0
POLYLINE
  8
0
 10
0
 20
0
 39
0
 70
1
 66
1
  0
VERTEX
  8
0
 10
400.39999999999998
 20
588.59999711813668
 42
1
  0
VERTEX
  8
0
 10
440.39999999999998
 20
588.59999711813668
 42
1
  0
SEQEND
  0
POLYLINE
  8
0
 10
0
 20
0
 39
0
 70
1
 66
1
  0
VERTEX
  8
0
 10
1183.4000000000001
 20
493.20000762939458
 42
0
  0
VERTEX
  8
0
 10
939.40000000000009
 20
493.20000000000005
 42
0
  0
VERTEX
  8
0
 10
939.40000000000009
 20
553.20000000000005
 42
0
  0
VERTEX
  8
0
 10
1579.4000000000001
 20
678.20000000000005
 42
0
  0
VERTEX
  8
0
 10
1859.4000000000001
 20
678.20000000000005
 42
0
  0
VERTEX
  8
0
 10
1989.4000000000001
 20
648.20000000000005
 42
0
  0
VERTEX
  8
0
 10
1989.4000000000001
 20
448.20000000000005
 42
-0
  0
VERTEX
  8
0
 10
1919.4000000000001
 20
443.20000000000005
 42
0.7645079493522644
  0
VERTEX
  8
0
 10
1533.4000000000001
 20
443.19999711813648
 42
0.25831884145736694
  0
SEQEND
  0
POLYLINE
  8
0
 10
0
 20
0
 39
0
 70
1
 66
1
  0
VERTEX
  8
0
 10
1529.4000000000001
 20
626.20000000000005
 42
1
  0
VERTEX
  8
0
 10
1489.4000000000001
 20
626.20000000000005
 42
1
  0
SEQEND
  0
POLYLINE
  8
0
 10
0
 20
0
 39
0
 70
1
 66
1
  0
VERTEX
  8
0
 10
1974.4000000000001
 20
626.20000000000005
 42
1
  0
VERTEX
  8
0
 10
1934.4000000000001
 20
626.20000000000005
 42
1
  0
SEQEND
  0
POLYLINE
  8
0
 10
0
 20
0
 39
0
 70
1
 66
1
  0
VERTEX
  8
0
 10
481.00000331268802
 20
917.39999870330212
 42
-0.94444441795349121
  0
VERTEX
  8
0
 10
841
 20
917.40001396209118
 42
-0
  0
VERTEX
  8
0
 10
841
 20
787.40001396209118
 42
-0
  0
VERTEX
  8
0
 10
480.99999999999994
 20
787.40001396209118
 42
-0
  0
SEQEND
  0
POLYLINE
  8
0
 10
0
 20
0
 39
0
 70
1
 66
1
  0
VERTEX
  8
0
 10
650.5
 20
847.40001396209118
 42
1
  0
VERTEX
  8
0
 10
671.5
 20
847.40001396209118
 42
1
  0
SEQEND
  0
POLYLINE
  8
0
 10
0
 20
0
 39
0
 70
1
 66
1
  0
VERTEX
  8
0
 10
661
 20
967.40001396209118
 42
-0.41421356797218323
  0
VERTEX
  8
0
 10
781
 20
847.40001396209118
 42
1
  0
VERTEX
  8
0
 10
803
 20
847.40001396209118
 42
0.41421356797218323
  0
VERTEX
  8
0
 10
661
 20
989.40001396209118
 42
1
  0
SEQEND
  0
POLYLINE
  8
0
 10
0
 20
0
 39
0
 70
1
 66
1
  0
VERTEX
  8
0
 10
10.400003312687936
 20
874.1999987033023
 42
-0.94444441795349121
  0
VERTEX
  8
0
 10
370.39999999999992
 20
874.20001396209136
 42
-0
  0
VERTEX
  8
0
 10
370.39999999999986
 20
744.20001396209136
 42
-0
  0
VERTEX
  8
0
 10
10.399999999999897
 20
744.20001396209136
 42
-0
  0
SEQEND
  0
POLYLINE
  8
0
 10
0
 20
0
 39
0
 70
1
 66
1
  0
VERTEX
  8
0
 10
179.89999999999992
 20
804.20001396209136
 42
1
  0
VERTEX
  8
0
 10
200.89999999999992
 20
804.20001396209136
 42
1
  0
SEQEND
  0
POLYLINE
  8
0
 10
0
 20
0
 39
0
 70
1
 66
1
  0
VERTEX
  8
0
 10
190.39999999999992
 20
924.20001396209136
 42
-0.41421356797218323
  0
VERTEX
  8
0
 10
310.39999999999986
 20
804.20001396209136
 42
1
  0
VERTEX
  8
0
 10
332.39999999999986
 20
804.20001396209136
 42
0.41421356797218323
  0
VERTEX
  8
0
 10
190.39999999999992
 20
946.20001396209136
 42
1
  0
SEQEND
  0
POLYLINE
  8
0
 10
0
 20
0
 39
0
 70
1
 66
1
  0
VERTEX
  8
0
 10
10.400003312687879
 20
563.99999870330214
 42
-0.94444441795349121
  0
VERTEX
  8
0
 10
370.39999999999986
 20
564.00001396209109
 42
-0
  0
VERTEX
  8
0
 10
370.39999999999981
 20
434.00001396209115
 42
-0
  0
VERTEX
  8
0
 10
10.39999999999984
 20
434.0000139620912
 42
-0
  0
SEQEND
  0
POLYLINE
  8
0
 10
0
 20
0
 39
0
 70
1
 66
1
  0
VERTEX
  8
0
 10
179.89999999999986
 20
494.0000139620912
 42
1
  0
VERTEX
  8
0
 10
200.89999999999986
 20
494.0000139620912
 42
1
  0
SEQEND
  0
POLYLINE
  8
0
 10
0
 20
0
 39
0
 70
1
 66
1
  0
VERTEX
  8
0
 10
190.39999999999986
 20
614.0000139620912
 42
-0.41421356797218323
  0
VERTEX
  8
0
 10
310.39999999999981
 20
494.0000139620912
 42
1
  0
VERTEX
  8
0
 10
332.39999999999981
 20
494.0000139620912
 42
0.41421356797218323
  0
VERTEX
  8
0
 10
190.39999999999986
 20
636.0000139620912
 42
1
  0
SEQEND
  0
POLYLINE
  8
0
 10
0
 20
0
 39
0
 70
1
 66
1
  0
VERTEX
  8
0
 10
1545.000003312688
 20
409.99999870330191
 42
-0.94444441795349121
  0
VERTEX
  8
0
 10
1905
 20
410.00001396209092
 42
-0
  0
VERTEX
  8
0
 10
1905
 20
280.00001396209092
 42
-0
  0
VERTEX
  8
0
 10
1545
 20
280.00001396209097
 42
-0
  0
SEQEND
  0
POLYLINE
  8
0
 10
0
 20
0
 39
0
 70
1
 66
1
  0
VERTEX
  8
0
 10
1714.5
 20
340.00001396209097
 42
1
  0
VERTEX
  8
0
 10
1735.5
 20
340.00001396209097
 42
1
  0
SEQEND
  0
POLYLINE
  8
0
 10
0
 20
0
 39
0
 70
1
 66
1
  0
VERTEX
  8
0
 10
1725
 20
460.00001396209097
 42
-0.41421356797218323
  0
VERTEX
  8
0
 10
1845
 20
340.00001396209097
 42
1
  0
VERTEX
  8
0
 10
1867
 20
340.00001396209097
 42
0.41421356797218323
  0
VERTEX
  8
0
 10
1725
 20
482.00001396209097
 42
1
  0
SEQEND
  0
POLYLINE
  8
0
 10
0
 20
0
 39
0
 70
1
 66
1
  0
VERTEX
  8
0
 10
636.80000331268798
 20
357.19999870330196
 42
-0.94444441795349121
  0
VERTEX
  8
0
 10
996.79999999999995
 20
357.20001396209096
 42
-0
  0
VERTEX
  8
0
 10
996.79999999999995
 20
227.20001396209096
 42
-0
  0
VERTEX
  8
0
 10
636.79999999999995
 20
227.20001396209102
 42
-0
  0
SEQEND
  0
POLYLINE
  8
0
 10
0
 20
0
 39
0
 70
1
 66
1
  0
VERTEX
  8
0
 10
806.29999999999995
 20
287.20001396209102
 42
1
  0
VERTEX
  8
0
 10
827.29999999999995
 20
287.20001396209102
 42
1
  0
SEQEND
  0
POLYLINE
  8
0
 10
0
 20
0
 39
0
 70
1
 66
1
  0
VERTEX
  8
0
 10
816.79999999999995
 20
407.20001396209102
 42
-0.41421356797218323
  0
VERTEX
  8
0
 10
936.79999999999995
 20
287.20001396209102
 42
1
  0
VERTEX
  8
0
 10
958.79999999999995
 20
287.20001396209102
 42
0.41421356797218323
  0
VERTEX
  8
0
 10
816.79999999999995
 20
429.20001396209102
 42
1
  0
SEQEND
  0
POLYLINE
  8
0
 10
0
 20
0
 39
0
 70
1
 66
1
  0
VERTEX
  8
0
 10
1131.2000033126881
 20
336.59999870330194
 42
-0.94444441795349121
  0
VERTEX
  8
0
 10
1491.2
 20
336.60001396209094
 42
-0
  0
VERTEX
  8
0
 10
1491.2
 20
206.60001396209094
 42
-0
  0
VERTEX
  8
0
 10
1131.2
 20
206.600013962091
 42
-0
  0
SEQEND
  0
POLYLINE
  8
0
 10
0
 20
0
 39
0
 70
1
 66
1
  0
VERTEX
  8
0
 10
1300.7
 20
266.600013962091
 42
1
  0
VERTEX
  8
0
 10
1321.7
 20
266.600013962091
 42
1
  0
SEQEND
  0
POLYLINE
  8
0
 10
0
 20
0
 39
0
 70
1
 66
1
  0
VERTEX
  8
0
 10
1311.2
 20
386.600013962091
 42
-0.41421356797218323
  0
VERTEX
  8
0
 10
1431.2
 20
266.600013962091
 42
1
  0
VERTEX
  8
0
 10
1453.2
 20
266.600013962091
 42
0.41421356797218323
  0
VERTEX
  8
0
 10
1311.2
 20
408.600013962091
 42
1
  0
SEQEND
  0
POLYLINE
  8
0
 10
0
 20
0
 39
0
 70
1
 66
1
  0
VERTEX
  8
0
 10
10.399999999999842
 20
423.8000000000003
 42
-0
  0
VERTEX
  8
0
 10
510.39999999999986
 20
423.80000000000024
 42
-0
  0
VERTEX
  8
0
 10
510.39999999999986
 20
223.80000000000024
 42
-0
  0
VERTEX
  8
0
 10
10.399999999999817
 20
223.8000000000003
 42
-0
  0
SEQEND
  0
POLYLINE
  8
0
 10
0
 20
0
 39
0
 70
1
 66
1
  0
VERTEX
  8
0
 10
445.08902587890611
 20
261.91492919921899
 42
1
  0
VERTEX
  8
0
 10
481.08902587890611
 20
261.91492919921899
 42
1
  0
SEQEND
  0
POLYLINE
  8
0
 10
0
 20
0
 39
0
 70
1
 66
1
  0
VERTEX
  8
0
 10
208.39999999999984
 20
323.8000000000003
 42
1
  0
VERTEX
  8
0
 10
312.39999999999986
 20
323.80000000000024
 42
1
  0
SEQEND
  0
POLYLINE
  8
0
 10
0
 20
0
 39
0
 70
1
 66
1
  0
VERTEX
  8
0
 10
518.19999999999982
 20
217.00000000000014
 42
-0
  0
VERTEX
  8
0
 10
1018.1999999999998
 20
217.00000000000009
 42
-0
  0
VERTEX
  8
0
 10
1018.1999999999998
 20
17.000000000000085
 42
-0
  0
VERTEX
  8
0
 10
518.19999999999982
 20
17.000000000000142
 42
-0
  0
SEQEND
  0
POLYLINE
  8
0
 10
0
 20
0
 39
0
 70
1
 66
1
  0
VERTEX
  8
0
 10
952.88902587890607
 20
55.114929199218835
 42
1
  0
VERTEX
  8
0
 10
988.88902587890607
 20
55.114929199218835
 42
1
  0
SEQEND
  0
POLYLINE
  8
0
 10
0
 20
0
 39
0
 70
1
 66
1
  0
VERTEX
  8
0
 10
716.19999999999982
 20
117.00000000000011
 42
1
  0
VERTEX
  8
0
 10
820.19999999999982
 20
117.0000000000001
 42
1
  0
SEQEND
  0
POLYLINE
  8
0
 10
0
 20
0
 39
0
 70
1
 66
1
  0
VERTEX
  8
0
 10
1878.1999999999998
 20
136.40000000000001
 42
-0
  0
VERTEX
  8
0
 10
1028.1999999999998
 20
136.40000000000012
 42
-0
  0
VERTEX
  8
0
 10
1028.1999999999998
 20
196.40000000000012
 42
-0
  0
VERTEX
  8
0
 10
1878.1999999999998
 20
196.40000000000001
 42
-0
  0
SEQEND
  0
POLYLINE
  8
0
 10
0
 20
0
 39
0
 70
1
 66
1
  0
VERTEX
  8
0
 10
1067.5749999999998
 20
166.40000000000012
 42
1
  0
VERTEX
  8
0
 10
1084.8249999999998
 20
166.40000000000012
 42
1
  0
SEQEND
  0
POLYLINE
  8
0
 10
0
 20
0
 39
0
 70
1
 66
1
  0
VERTEX
  8
0
 10
1667.5749999999998
 20
166.40000000000003
 42
1
  0
VERTEX
  8
0
 10
1684.8249999999998
 20
166.40000000000003
 42
1
  0
SEQEND
  0
POLYLINE
  8
0
 10
0
 20
0
 39
0
 70
1
 66
1
  0
VERTEX
  8
0
 10
1878.1999999999998
 20
65.999999999999943
 42
-0
  0
VERTEX
  8
0
 10
1028.1999999999998
 20
66.000000000000043
 42
-0
  0
VERTEX
  8
0
 10
1028.1999999999998
 20
126.00000000000004
 42
-0
  0
VERTEX
  8
0
 10
1878.1999999999998
 20
125.99999999999994
 42
-0
  0
SEQEND
  0
POLYLINE
  8
0
 10
0
 20
0
 39
0
 70
1
 66
1
  0
VERTEX
  8
0
 10
1067.5749999999998
 20
96.000000000000043
 42
1
  0
VERTEX
  8
0
 10
1084.8249999999998
 20
96.000000000000028
 42
1
  0
SEQEND
  0
POLYLINE
  8
0
 10
0
 20
0
 39
0
 70
1
 66
1
  0
VERTEX
  8
0
 10
1667.5749999999998
 20
95.999999999999972
 42
1
  0
VERTEX
  8
0
 10
1684.8249999999998
 20
95.999999999999957
 42
1
  0
SEQEND
  0
POLYLINE
  8
0
 10
0
 20
0
 39
0
 70
1
 66
1
  0
VERTEX
  8
0
 10
10.399999999999778
 20
13.400000000000318
 42
-0
  0
VERTEX
  8
0
 10
10.399999999999803
 20
213.40000000000032
 42
-0
  0
VERTEX
  8
0
 10
230.39999999999981
 20
213.40000000000029
 42
-0
  0
VERTEX
  8
0
 10
230.39999999999978
 20
13.40000000000029
 42
0
  0
SEQEND
  0
POLYLINE
  8
0
 10
0
 20
0
 39
0
 70
1
 66
1
  0
VERTEX
  8
0
 10
55.899999999999793
 20
68.400000000000318
 42
1
  0
VERTEX
  8
0
 10
74.899999999999793
 20
68.400000000000318
 42
1
  0
SEQEND
  0
POLYLINE
  8
0
 10
0
 20
0
 39
0
 70
1
 66
1
  0
VERTEX
  8
0
 10
165.89999999999981
 20
158.40000000000029
 42
1
  0
VERTEX
  8
0
 10
184.89999999999981
 20
158.40000000000029
 42
1
  0
SEQEND
  0
POLYLINE
  8
0
 10
0
 20
0
 39
0
 70
1
 66
1
  0
VERTEX
  8
0
 10
240.39999999999981
 20
13.400000000000261
 42
-0
  0
VERTEX
  8
0
 10
240.39999999999984
 20
213.40000000000026
 42
-0
  0
VERTEX
  8
0
 10
460.39999999999986
 20
213.40000000000023
 42
-0
  0
VERTEX
  8
0
 10
460.39999999999981
 20
13.400000000000233
 42
0
  0
SEQEND
  0
POLYLINE
  8
0
 10
0
 20
0
 39
0
 70
1
 66
1
  0
VERTEX
  8
0
 10
285.89999999999981
 20
68.400000000000261
 42
1
  0
VERTEX
  8
0
 10
304.89999999999981
 20
68.400000000000261
 42
1
  0
SEQEND
  0
POLYLINE
  8
0
 10
0
 20
0
 39
0
 70
1
 66
1
  0
VERTEX
  8
0
 10
395.89999999999986
 20
158.40000000000023
 42
1
  0
VERTEX
  8
0
 10
414.89999999999986
 20
158.40000000000023
 42
1
  0
SEQEND
  0
POLYLINE
  8
0
 10
0
 20
0
 39
0
 70
1
 66
1
  0
VERTEX
  8
0
 10
148.40000000000003
 20
1199.6000000000004
 42
-0
  0
VERTEX
  8
0
 10
148.40000000000006
 20
1289.6000000000004
 42
0
  0
VERTEX
  8
0
 10
248.40000000000003
 20
1289.6000000000004
 42
0
  0
VERTEX
  8
0
 10
248.40000000000003
 20
1259.6000000000004
 42
0
  0
VERTEX
  8
0
 10
240.01192321777347
 20
1259.6000000000004
 42
0
  0
VERTEX
  8
0
 10
240.01192321777347
 20
1229.6000000000004
 42
0
  0
VERTEX
  8
0
 10
248.40000000000003
 20
1229.6000000000004
 42
0
  0
VERTEX
  8
0
 10
248.40000000000003
 20
1199.6000000000004
 42
0
  0
SEQEND
  0
POLYLINE
  8
0
 10
0
 20
0
 39
0
 70
1
 66
1
  0
VERTEX
  8
0
 10
222.90000000000003
 20
1229.6000000000004
 42
-0
  0
VERTEX
  8
0
 10
222.90000000000003
 20
1259.6000000000004
 42
-0
  0
VERTEX
  8
0
 10
173.90000000000003
 20
1259.6000000000004
 42
-0
  0
VERTEX
  8
0
 10
173.90000000000003
 20
1229.6000000000004
 42
-0
  0
SEQEND
  0
POLYLINE
  8
0
 10
0
 20
0
 39
0
 70
1
 66
1
  0
VERTEX
  8
0
 10
258.40000000000003
 20
1199.6000000000004
 42
-0
  0
VERTEX
  8
0
 10
258.40000000000003
 20
1289.6000000000004
 42
0
  0
VERTEX
  8
0
 10
358.40000000000003
 20
1289.6000000000004
 42
0
  0
VERTEX
  8
0
 10
358.40000000000003
 20
1259.6000000000004
 42
0
  0
VERTEX
  8
0
 10
350.01192321777347
 20
1259.6000000000004
 42
0
  0
VERTEX
  8
0
 10
350.01192321777347
 20
1229.6000000000004
 42
0
  0
VERTEX
  8
0
 10
358.40000000000003
 20
1229.6000000000004
 42
0
  0
VERTEX
  8
0
 10
358.40000000000003
 20
1199.6000000000004
 42
0
  0
SEQEND
  0
POLYLINE
  8
0
 10
0
 20
0
 39
0
 70
1
 66
1
  0
VERTEX
  8
0
 10
332.90000000000003
 20
1229.6000000000004
 42
-0
  0
VERTEX
  8
0
 10
332.90000000000003
 20
1259.6000000000004
 42
-0
  0
VERTEX
  8
0
 10
283.90000000000003
 20
1259.6000000000004
 42
-0
  0
VERTEX
  8
0
 10
283.90000000000003
 20
1229.6000000000004
 42
-0
  0
SEQEND
  0
POLYLINE
  8
0
 10
0
 20
0
 39
0
 70
1
 66
1
  0
VERTEX
  8
0
 10
1676.0000000000002
 20
1075.4000000000003
 42
-0
  0
VERTEX
  8
0
 10
1676.0000000000002
 20
1165.4000000000003
 42
0
  0
VERTEX
  8
0
 10
1776.0000000000002
 20
1165.4000000000003
 42
0
  0
VERTEX
  8
0
 10
1776.0000000000002
 20
1135.4000000000003
 42
0
  0
VERTEX
  8
0
 10
1767.6119232177737
 20
1135.4000000000003
 42
0
  0
VERTEX
  8
0
 10
1767.6119232177737
 20
1105.4000000000003
 42
0
  0
VERTEX
  8
0
 10
1776.0000000000002
 20
1105.4000000000003
 42
0
  0
VERTEX
  8
0
 10
1776.0000000000002
 20
1075.4000000000003
 42
0
  0
SEQEND
  0
POLYLINE
  8
0
 10
0
 20
0
 39
0
 70
1
 66
1
  0
VERTEX
  8
0
 10
1750.5000000000002
 20
1105.4000000000003
 42
-0
  0
VERTEX
  8
0
 10
1750.5000000000002
 20
1135.4000000000003
 42
-0
  0
VERTEX
  8
0
 10
1701.5000000000002
 20
1135.4000000000003
 42
-0
  0
VERTEX
  8
0
 10
1701.5000000000002
 20
1105.4000000000003
 42
-0
  0
SEQEND
  0
POLYLINE
  8
0
 10
0
 20
0
 39
0
 70
1
 66
1
  0
VERTEX
  8
0
 10
1023.2000000000002
 20
985.00000000000023
 42
-0
  0
VERTEX
  8
0
 10
1023.2000000000002
 20
1075.0000000000002
 42
0
  0
VERTEX
  8
0
 10
1123.2000000000003
 20
1075.0000000000002
 42
0
  0
VERTEX
  8
0
 10
1123.2000000000003
 20
1045.0000000000002
 42
0
  0
VERTEX
  8
0
 10
1114.8119232177737
 20
1045.0000000000002
 42
0
  0
VERTEX
  8
0
 10
1114.8119232177737
 20
1015.0000000000002
 42
0
  0
VERTEX
  8
0
 10
1123.2000000000003
 20
1015.0000000000002
 42
0
  0
VERTEX
  8
0
 10
1123.2000000000003
 20
985.00000000000023
 42
0
  0
SEQEND
  0
POLYLINE
  8
0
 10
0
 20
0
 39
0
 70
1
 66
1
  0
VERTEX
  8
0
 10
1097.7000000000003
 20
1015.0000000000002
 42
-0
  0
VERTEX
  8
0
 10
1097.7000000000003
 20
1045.0000000000002
 42
-0
  0
VERTEX
  8
0
 10
1048.7000000000003
 20
1045.0000000000002
 42
-0
  0
VERTEX
  8
0
 10
1048.7000000000003
 20
1015.0000000000002
 42
-0
  0
SEQEND
  0
POLYLINE
  8
0
 10
0
 20
0
 39
0
 70
1
 66
1
  0
VERTEX
  8
0
 10
358.60000000000002
 20
954.20000000000027
 42
-0
  0
VERTEX
  8
0
 10
358.60000000000002
 20
1044.2000000000003
 42
0
  0
VERTEX
  8
0
 10
458.60000000000002
 20
1044.2000000000003
 42
0
  0
VERTEX
  8
0
 10
458.60000000000002
 20
1014.2000000000003
 42
0
  0
VERTEX
  8
0
 10
450.21192321777346
 20
1014.2000000000003
 42
0
  0
VERTEX
  8
0
 10
450.21192321777346
 20
984.20000000000027
 42
0
  0
VERTEX
  8
0
 10
458.60000000000002
 20
984.20000000000027
 42
0
  0
VERTEX
  8
0
 10
458.60000000000002
 20
954.20000000000027
 42
0
  0
SEQEND
  0
POLYLINE
  8
0
 10
0
 20
0
 39
0
 70
1
 66
1
  0
VERTEX
  8
0
 10
433.10000000000002
 20
984.20000000000027
 42
-0
  0
VERTEX
  8
0
 10
433.10000000000002
 20
1014.2000000000003
 42
-0
  0
VERTEX
  8
0
 10
384.10000000000002
 20
1014.2000000000003
 42
-0
  0
VERTEX
  8
0
 10
384.10000000000002
 20
984.20000000000027
 42
-0
  0
SEQEND
  0
POLYLINE
  8
0
 10
0
 20
0
 39
0
 70
1
 66
1
  0
VERTEX
  8
0
 10
380.40000000000003
 20
943.8000000000003
 42
-0
  0
VERTEX
  8
0
 10
470.40000000000003
 20
943.8000000000003
 42
0
  0
VERTEX
  8
0
 10
470.40000000000003
 20
843.8000000000003
 42
0
  0
VERTEX
  8
0
 10
440.40000000000003
 20
843.8000000000003
 42
0
  0
VERTEX
  8
0
 10
440.40000000000003
 20
852.18807678222686
 42
0
  0
VERTEX
  8
0
 10
410.40000000000003
 20
852.18807678222686
 42
0
  0
VERTEX
  8
0
 10
410.40000000000003
 20
843.8000000000003
 42
0
  0
VERTEX
  8
0
 10
380.40000000000003
 20
843.8000000000003
 42
0
  0
SEQEND
  0
POLYLINE
  8
0
 10
0
 20
0
 39
0
 70
1
 66
1
  0
VERTEX
  8
0
 10
410.40000000000003
 20
869.3000000000003
 42
-0
  0
VERTEX
  8
0
 10
440.40000000000003
 20
869.3000000000003
 42
-0
  0
VERTEX
  8
0
 10
440.40000000000003
 20
918.3000000000003
 42
-0
  0
VERTEX
  8
0
 10
410.40000000000003
 20
918.3000000000003
 42
-0
  0
SEQEND
  0
POLYLINE
  8
0
 10
0
 20
0
 39
0
 70
1
 66
1
  0
VERTEX
  8
0
 10
1676.2000000000003
 20
720.20000000000005
 42
-0
  0
VERTEX
  8
0
 10
1676.2000000000003
 20
810.20000000000005
 42
0
  0
VERTEX
  8
0
 10
1776.2000000000003
 20
810.20000000000005
 42
0
  0
VERTEX
  8
0
 10
1776.2000000000003
 20
780.20000000000005
 42
0
  0
VERTEX
  8
0
 10
1767.8119232177737
 20
780.20000000000005
 42
0
  0
VERTEX
  8
0
 10
1767.8119232177737
 20
750.20000000000005
 42
0
  0
VERTEX
  8
0
 10
1776.2000000000003
 20
750.20000000000005
 42
0
  0
VERTEX
  8
0
 10
1776.2000000000003
 20
720.20000000000005
 42
0
  0
SEQEND
  0
POLYLINE
  8
0
 10
0
 20
0
 39
0
 70
1
 66
1
  0
VERTEX
  8
0
 10
1750.7000000000003
 20
750.20000000000005
 42
-0
  0
VERTEX
  8
0
 10
1750.7000000000003
 20
780.20000000000005
 42
-0
  0
VERTEX
  8
0
 10
1701.7000000000003
 20
780.20000000000005
 42
-0
  0
VERTEX
  8
0
 10
1701.7000000000003
 20
750.20000000000005
 42
-0
  0
SEQEND
  0
POLYLINE
  8
0
 10
0
 20
0
 39
0
 70
1
 66
1
  0
VERTEX
  8
0
 10
517.19999999999993
 20
687.20000000000027
 42
-0
  0
VERTEX
  8
0
 10
517.19999999999993
 20
777.20000000000027
 42
0
  0
VERTEX
  8
0
 10
617.19999999999993
 20
777.20000000000027
 42
0
  0
VERTEX
  8
0
 10
617.19999999999993
 20
747.20000000000027
 42
0
  0
VERTEX
  8
0
 10
608.81192321777337
 20
747.20000000000027
 42
0
  0
VERTEX
  8
0
 10
608.81192321777337
 20
717.20000000000027
 42
0
  0
VERTEX
  8
0
 10
617.19999999999993
 20
717.20000000000027
 42
0
  0
VERTEX
  8
0
 10
617.19999999999993
 20
687.20000000000027
 42
0
  0
SEQEND
  0
POLYLINE
  8
0
 10
0
 20
0
 39
0
 70
1
 66
1
  0
VERTEX
  8
0
 10
591.69999999999993
 20
717.20000000000027
 42
-0
  0
VERTEX
  8
0
 10
591.69999999999993
 20
747.20000000000027
 42
-0
  0
VERTEX
  8
0
 10
542.69999999999993
 20
747.20000000000027
 42
-0
  0
VERTEX
  8
0
 10
542.69999999999993
 20
717.20000000000027
 42
-0
  0
SEQEND
  0
POLYLINE
  8
0
 10
0
 20
0
 39
0
 70
1
 66
1
  0
VERTEX
  8
0
 10
627.20000000000005
 20
687.20000000000027
 42
-0
  0
VERTEX
  8
0
 10
627.20000000000005
 20
777.20000000000027
 42
0
  0
VERTEX
  8
0
 10
727.20000000000005
 20
777.20000000000027
 42
0
  0
VERTEX
  8
0
 10
727.20000000000005
 20
747.20000000000027
 42
0
  0
VERTEX
  8
0
 10
718.81192321777348
 20
747.20000000000027
 42
0
  0
VERTEX
  8
0
 10
718.81192321777348
 20
717.20000000000027
 42
0
  0
VERTEX
  8
0
 10
727.20000000000005
 20
717.20000000000027
 42
0
  0
VERTEX
  8
0
 10
727.20000000000005
 20
687.20000000000027
 42
0
  0
SEQEND
  0
POLYLINE
  8
0
 10
0
 20
0
 39
0
 70
1
 66
1
  0
VERTEX
  8
0
 10
701.70000000000005
 20
717.20000000000027
 42
-0
  0
VERTEX
  8
0
 10
701.70000000000005
 20
747.20000000000027
 42
-0
  0
VERTEX
  8
0
 10
652.70000000000005
 20
747.20000000000027
 42
-0
  0
VERTEX
  8
0
 10
652.70000000000005
 20
717.20000000000027
 42
-0
  0
SEQEND
  0
POLYLINE
  8
0
 10
0
 20
0
 39
0
 70
1
 66
1
  0
VERTEX
  8
0
 10
380.39999999999992
 20
443.80000000000024
 42
-0
  0
VERTEX
  8
0
 10
380.39999999999992
 20
533.80000000000018
 42
0
  0
VERTEX
  8
0
 10
480.39999999999992
 20
533.80000000000018
 42
0
  0
VERTEX
  8
0
 10
480.39999999999992
 20
503.80000000000024
 42
0
  0
VERTEX
  8
0
 10
472.01192321777336
 20
503.80000000000024
 42
0
  0
VERTEX
  8
0
 10
472.01192321777336
 20
473.80000000000024
 42
0
  0
VERTEX
  8
0
 10
480.39999999999992
 20
473.80000000000024
 42
0
  0
VERTEX
  8
0
 10
480.39999999999992
 20
443.80000000000024
 42
0
  0
SEQEND
  0
POLYLINE
  8
0
 10
0
 20
0
 39
0
 70
1
 66
1
  0
VERTEX
  8
0
 10
454.89999999999992
 20
473.80000000000024
 42
-0
  0
VERTEX
  8
0
 10
454.89999999999992
 20
503.80000000000024
 42
-0
  0
VERTEX
  8
0
 10
405.89999999999992
 20
503.80000000000024
 42
-0
  0
VERTEX
  8
0
 10
405.89999999999992
 20
473.80000000000024
 42
-0
  0
SEQEND
  0
POLYLINE
  8
0
 10
0
 20
0
 39
0
 70
1
 66
1
  0
VERTEX
  8
0
 10
490.39999999999992
 20
436.20000000000016
 42
-0
  0
VERTEX
  8
0
 10
490.39999999999992
 20
526.20000000000016
 42
0
  0
VERTEX
  8
0
 10
590.39999999999998
 20
526.20000000000016
 42
0
  0
VERTEX
  8
0
 10
590.39999999999998
 20
496.20000000000016
 42
0
  0
VERTEX
  8
0
 10
582.01192321777341
 20
496.20000000000016
 42
0
  0
VERTEX
  8
0
 10
582.0119232177733
 20
466.20000000000016
 42
0
  0
VERTEX
  8
0
 10
590.39999999999986
 20
466.20000000000016
 42
0
  0
VERTEX
  8
0
 10
590.39999999999986
 20
436.20000000000016
 42
0
  0
SEQEND
  0
POLYLINE
  8
0
 10
0
 20
0
 39
0
 70
1
 66
1
  0
VERTEX
  8
0
 10
564.89999999999986
 20
466.20000000000016
 42
-0
  0
VERTEX
  8
0
 10
564.89999999999998
 20
496.20000000000016
 42
-0
  0
VERTEX
  8
0
 10
515.89999999999998
 20
496.20000000000016
 42
-0
  0
VERTEX
  8
0
 10
515.89999999999998
 20
466.20000000000016
 42
-0
  0
SEQEND
  0
POLYLINE
  8
0
 10
0
 20
0
 39
0
 70
1
 66
1
  0
VERTEX
  8
0
 10
1002.0000000000001
 20
393.00000000000017
 42
-0
  0
VERTEX
  8
0
 10
1002.0000000000001
 20
483.00000000000017
 42
0
  0
VERTEX
  8
0
 10
1102.0000000000002
 20
483.00000000000017
 42
0
  0
VERTEX
  8
0
 10
1102.0000000000002
 20
453.00000000000017
 42
0
  0
VERTEX
  8
0
 10
1093.6119232177737
 20
453.00000000000017
 42
0
  0
VERTEX
  8
0
 10
1093.6119232177734
 20
423.00000000000017
 42
0
  0
VERTEX
  8
0
 10
1102
 20
423.00000000000017
 42
0
  0
VERTEX
  8
0
 10
1102
 20
393.00000000000017
 42
0
  0
SEQEND
  0
POLYLINE
  8
0
 10
0
 20
0
 39
0
 70
1
 66
1
  0
VERTEX
  8
0
 10
1076.5
 20
423.00000000000017
 42
-0
  0
VERTEX
  8
0
 10
1076.5000000000002
 20
453.00000000000017
 42
-0
  0
VERTEX
  8
0
 10
1027.5000000000002
 20
453.00000000000017
 42
-0
  0
VERTEX
  8
0
 10
1027.5000000000002
 20
423.00000000000017
 42
-0
  0
SEQEND
  0
ENDSEC
  0
EOF
