  0
SECTION
  2
ENTITIES
  0
POLYLINE
  8
0
 10
0
 20
0
 39
0
 70
1
 66
1
  0
VERTEX
  8
0
 10
0
 20
0
 42
0
  0
VERTEX
  8
0
 10
2400
 20
0
 42
0
  0
VERTEX
  8
0
 10
2400
 20
800
 42
0
  0
VERTEX
  8
0
 10
0
 20
800
 42
0
  0
SEQEND
  0
POLYLINE
  8
0
 10
0
 20
0
 39
0
 70
1
 66
1
  0
VERTEX
  8
0
 10
130.35384615384615
 20
310.35384615384612
 42
-0
  0
VERTEX
  8
0
 10
265.35384615384612
 20
310.35384615384612
 42
-0
  0
VERTEX
  8
0
 10
265.35384615384618
 20
10.353846153846161
 42
-0
  0
VERTEX
  8
0
 10
130.35384615384618
 20
10.353846153846153
 42
-0
  0
VERTEX
  8
0
 10
10.353846153846156
 20
130.35384615384615
 42
-0
  0
VERTEX
  8
0
 10
10.353846153846153
 20
190.35384615384615
 42
0
  0
SEQEND
  0
POLYLINE
  8
0
 10
0
 20
0
 39
0
 70
1
 66
1
  0
VERTEX
  8
0
 10
100.35384615384616
 20
122.35384615384615
 42
1
  0
VERTEX
  8
0
 10
100.35384615384615
 20
198.35384615384615
 42
1
  0
SEQEND
  0
POLYLINE
  8
0
 10
0
 20
0
 39
0
 70
1
 66
1
  0
VERTEX
  8
0
 10
130.35384615384615
 20
620.50769230769231
 42
-0
  0
VERTEX
  8
0
 10
265.35384615384612
 20
620.50769230769231
 42
-0
  0
VERTEX
  8
0
 10
265.35384615384618
 20
320.50769230769231
 42
-0
  0
VERTEX
  8
0
 10
130.35384615384618
 20
320.50769230769231
 42
-0
  0
VERTEX
  8
0
 10
10.353846153846156
 20
440.50769230769231
 42
-0
  0
VERTEX
  8
0
 10
10.353846153846153
 20
500.50769230769231
 42
0
  0
SEQEND
  0
POLYLINE
  8
0
 10
0
 20
0
 39
0
 70
1
 66
1
  0
VERTEX
  8
0
 10
100.35384615384616
 20
432.50769230769231
 42
1
  0
VERTEX
  8
0
 10
100.35384615384615
 20
508.50769230769231
 42
1
  0
SEQEND
  0
POLYLINE
  8
0
 10
0
 20
0
 39
0
 70
1
 66
1
  0
VERTEX
  8
0
 10
395.64615384615382
 20
310.35384615384612
 42
-0
  0
VERTEX
  8
0
 10
530.64615384615377
 20
310.35384615384612
 42
-0
  0
VERTEX
  8
0
 10
530.64615384615377
 20
10.353846153846161
 42
-0
  0
VERTEX
  8
0
 10
395.64615384615382
 20
10.353846153846153
 42
-0
  0
VERTEX
  8
0
 10
275.64615384615382
 20
130.35384615384615
 42
-0
  0
VERTEX
  8
0
 10
275.64615384615382
 20
190.35384615384615
 42
0
  0
SEQEND
  0
POLYLINE
  8
0
 10
0
 20
0
 39
0
 70
1
 66
1
  0
VERTEX
  8
0
 10
365.64615384615382
 20
122.35384615384615
 42
1
  0
VERTEX
  8
0
 10
365.64615384615382
 20
198.35384615384615
 42
1
  0
SEQEND
  0
POLYLINE
  8
0
 10
0
 20
0
 39
0
 70
1
 66
1
  0
VERTEX
  8
0
 10
395.64615384615382
 20
620.50769230769231
 42
-0
  0
VERTEX
  8
0
 10
530.64615384615377
 20
620.50769230769231
 42
-0
  0
VERTEX
  8
0
 10
530.64615384615377
 20
320.50769230769231
 42
-0
  0
VERTEX
  8
0
 10
395.64615384615382
 20
320.50769230769231
 42
-0
  0
VERTEX
  8
0
 10
275.64615384615382
 20
440.50769230769231
 42
-0
  0
VERTEX
  8
0
 10
275.64615384615382
 20
500.50769230769231
 42
0
  0
SEQEND
  0
POLYLINE
  8
0
 10
0
 20
0
 39
0
 70
1
 66
1
  0
VERTEX
  8
0
 10
365.64615384615382
 20
432.50769230769231
 42
1
  0
VERTEX
  8
0
 10
365.64615384615382
 20
508.50769230769231
 42
1
  0
SEQEND
  0
POLYLINE
  8
0
 10
0
 20
0
 39
0
 70
1
 66
1
  0
VERTEX
  8
0
 10
660.93846153846152
 20
310.35384615384612
 42
-0
  0
VERTEX
  8
0
 10
795.93846153846152
 20
310.35384615384612
 42
-0
  0
VERTEX
  8
0
 10
795.93846153846152
 20
10.353846153846161
 42
-0
  0
VERTEX
  8
0
 10
660.93846153846152
 20
10.353846153846153
 42
-0
  0
VERTEX
  8
0
 10
540.93846153846152
 20
130.35384615384615
 42
-0
  0
VERTEX
  8
0
 10
540.93846153846152
 20
190.35384615384615
 42
0
  0
SEQEND
  0
POLYLINE
  8
0
 10
0
 20
0
 39
0
 70
1
 66
1
  0
VERTEX
  8
0
 10
630.93846153846152
 20
122.35384615384615
 42
1
  0
VERTEX
  8
0
 10
630.93846153846152
 20
198.35384615384615
 42
1
  0
SEQEND
  0
POLYLINE
  8
0
 10
0
 20
0
 39
0
 70
1
 66
1
  0
VERTEX
  8
0
 10
660.93846153846152
 20
620.50769230769231
 42
-0
  0
VERTEX
  8
0
 10
795.93846153846152
 20
620.50769230769231
 42
-0
  0
VERTEX
  8
0
 10
795.93846153846152
 20
320.50769230769231
 42
-0
  0
VERTEX
  8
0
 10
660.93846153846152
 20
320.50769230769231
 42
-0
  0
VERTEX
  8
0
 10
540.93846153846152
 20
440.50769230769231
 42
-0
  0
VERTEX
  8
0
 10
540.93846153846152
 20
500.50769230769231
 42
0
  0
SEQEND
  0
POLYLINE
  8
0
 10
0
 20
0
 39
0
 70
1
 66
1
  0
VERTEX
  8
0
 10
630.93846153846152
 20
432.50769230769231
 42
1
  0
VERTEX
  8
0
 10
630.93846153846152
 20
508.50769230769231
 42
1
  0
SEQEND
  0
POLYLINE
  8
0
 10
0
 20
0
 39
0
 70
1
 66
1
  0
VERTEX
  8
0
 10
926.23076923076917
 20
310.35384615384612
 42
-0
  0
VERTEX
  8
0
 10
1061.2307692307691
 20
310.35384615384612
 42
-0
  0
VERTEX
  8
0
 10
1061.2307692307691
 20
10.353846153846161
 42
-0
  0
VERTEX
  8
0
 10
926.23076923076917
 20
10.353846153846153
 42
-0
  0
VERTEX
  8
0
 10
806.23076923076917
 20
130.35384615384615
 42
-0
  0
VERTEX
  8
0
 10
806.23076923076917
 20
190.35384615384615
 42
0
  0
SEQEND
  0
POLYLINE
  8
0
 10
0
 20
0
 39
0
 70
1
 66
1
  0
VERTEX
  8
0
 10
896.23076923076917
 20
122.35384615384615
 42
1
  0
VERTEX
  8
0
 10
896.23076923076917
 20
198.35384615384615
 42
1
  0
SEQEND
  0
POLYLINE
  8
0
 10
0
 20
0
 39
0
 70
1
 66
1
  0
VERTEX
  8
0
 10
926.23076923076917
 20
620.50769230769231
 42
-0
  0
VERTEX
  8
0
 10
1061.2307692307691
 20
620.50769230769231
 42
-0
  0
VERTEX
  8
0
 10
1061.2307692307691
 20
320.50769230769231
 42
-0
  0
VERTEX
  8
0
 10
926.23076923076917
 20
320.50769230769231
 42
-0
  0
VERTEX
  8
0
 10
806.23076923076917
 20
440.50769230769231
 42
-0
  0
VERTEX
  8
0
 10
806.23076923076917
 20
500.50769230769231
 42
0
  0
SEQEND
  0
POLYLINE
  8
0
 10
0
 20
0
 39
0
 70
1
 66
1
  0
VERTEX
  8
0
 10
896.23076923076917
 20
432.50769230769231
 42
1
  0
VERTEX
  8
0
 10
896.23076923076917
 20
508.50769230769231
 42
1
  0
SEQEND
  0
POLYLINE
  8
0
 10
0
 20
0
 39
0
 70
1
 66
1
  0
VERTEX
  8
0
 10
1191.5230769230768
 20
310.35384615384612
 42
-0
  0
VERTEX
  8
0
 10
1326.5230769230768
 20
310.35384615384612
 42
-0
  0
VERTEX
  8
0
 10
1326.5230769230768
 20
10.353846153846161
 42
-0
  0
VERTEX
  8
0
 10
1191.5230769230768
 20
10.353846153846153
 42
-0
  0
VERTEX
  8
0
 10
1071.5230769230768
 20
130.35384615384615
 42
-0
  0
VERTEX
  8
0
 10
1071.5230769230768
 20
190.35384615384615
 42
0
  0
SEQEND
  0
POLYLINE
  8
0
 10
0
 20
0
 39
0
 70
1
 66
1
  0
VERTEX
  8
0
 10
1161.5230769230768
 20
122.35384615384615
 42
1
  0
VERTEX
  8
0
 10
1161.5230769230768
 20
198.35384615384615
 42
1
  0
SEQEND
  0
POLYLINE
  8
0
 10
0
 20
0
 39
0
 70
1
 66
1
  0
VERTEX
  8
0
 10
1191.5230769230768
 20
620.50769230769231
 42
-0
  0
VERTEX
  8
0
 10
1326.5230769230768
 20
620.50769230769231
 42
-0
  0
VERTEX
  8
0
 10
1326.5230769230768
 20
320.50769230769231
 42
-0
  0
VERTEX
  8
0
 10
1191.5230769230768
 20
320.50769230769231
 42
-0
  0
VERTEX
  8
0
 10
1071.5230769230768
 20
440.50769230769231
 42
-0
  0
VERTEX
  8
0
 10
1071.5230769230768
 20
500.50769230769231
 42
0
  0
SEQEND
  0
POLYLINE
  8
0
 10
0
 20
0
 39
0
 70
1
 66
1
  0
VERTEX
  8
0
 10
1161.5230769230768
 20
432.50769230769231
 42
1
  0
VERTEX
  8
0
 10
1161.5230769230768
 20
508.50769230769231
 42
1
  0
SEQEND
  0
POLYLINE
  8
0
 10
0
 20
0
 39
0
 70
1
 66
1
  0
VERTEX
  8
0
 10
280.35384615384618
 20
630.66153846153838
 42
-0
  0
VERTEX
  8
0
 10
80.353846153846177
 20
630.66153846153838
 42
-0
  0
VERTEX
  8
0
 10
10.353846153846177
 20
730.66153846153838
 42
-0
  0
VERTEX
  8
0
 10
10.353846153846177
 20
750.66153846153838
 42
-0
  0
VERTEX
  8
0
 10
280.35384424649754
 20
750.66153846153838
 42
-0.49999997019767761
  0
SEQEND
  0
POLYLINE
  8
0
 10
0
 20
0
 39
0
 70
1
 66
1
  0
VERTEX
  8
0
 10
282.35384615384618
 20
682.66153846153838
 42
1
  0
VERTEX
  8
0
 10
282.35384615384618
 20
698.66153846153838
 42
-0
  0
VERTEX
  8
0
 10
98.353846153846177
 20
698.66153846153838
 42
1
  0
VERTEX
  8
0
 10
98.353846153846177
 20
682.66153846153838
 42
0
  0
SEQEND
  0
POLYLINE
  8
0
 10
0
 20
0
 39
0
 70
1
 66
1
  0
VERTEX
  8
0
 10
554.50769230769231
 20
669.61538461538453
 42
-0
  0
VERTEX
  8
0
 10
354.50769230769231
 20
669.61538461538453
 42
-0
  0
VERTEX
  8
0
 10
284.50769230769231
 20
769.61538461538453
 42
-0
  0
VERTEX
  8
0
 10
284.50769230769231
 20
789.61538461538453
 42
-0
  0
VERTEX
  8
0
 10
554.50769040034368
 20
789.61538461538453
 42
-0.49999997019767761
  0
SEQEND
  0
POLYLINE
  8
0
 10
0
 20
0
 39
0
 70
1
 66
1
  0
VERTEX
  8
0
 10
556.50769230769231
 20
721.61538461538453
 42
1
  0
VERTEX
  8
0
 10
556.50769230769231
 20
737.61538461538453
 42
-0
  0
VERTEX
  8
0
 10
372.50769230769231
 20
737.61538461538453
 42
1
  0
VERTEX
  8
0
 10
372.50769230769231
 20
721.61538461538453
 42
0
  0
SEQEND
  0
POLYLINE
  8
0
 10
0
 20
0
 39
0
 70
1
 66
1
  0
VERTEX
  8
0
 10
855.24615384615379
 20
669.43076923076922
 42
-0
  0
VERTEX
  8
0
 10
655.24615384615379
 20
669.43076923076922
 42
-0
  0
VERTEX
  8
0
 10
585.24615384615379
 20
769.43076923076922
 42
-0
  0
VERTEX
  8
0
 10
585.24615384615379
 20
789.43076923076922
 42
-0
  0
VERTEX
  8
0
 10
855.24615193880516
 20
789.43076923076922
 42
-0.49999997019767761
  0
SEQEND
  0
POLYLINE
  8
0
 10
0
 20
0
 39
0
 70
1
 66
1
  0
VERTEX
  8
0
 10
857.24615384615379
 20
721.43076923076922
 42
1
  0
VERTEX
  8
0
 10
857.24615384615379
 20
737.43076923076922
 42
-0
  0
VERTEX
  8
0
 10
673.24615384615379
 20
737.43076923076922
 42
1
  0
VERTEX
  8
0
 10
673.24615384615379
 20
721.43076923076922
 42
0
  0
SEQEND
  0
POLYLINE
  8
0
 10
0
 20
0
 39
0
 70
1
 66
1
  0
VERTEX
  8
0
 10
1155.8
 20
669.61538461538453
 42
-0
  0
VERTEX
  8
0
 10
955.79999999999995
 20
669.61538461538453
 42
-0
  0
VERTEX
  8
0
 10
885.79999999999995
 20
769.61538461538453
 42
-0
  0
VERTEX
  8
0
 10
885.79999999999995
 20
789.61538461538453
 42
-0
  0
VERTEX
  8
0
 10
1155.7999980926513
 20
789.61538461538453
 42
-0.49999997019767761
  0
SEQEND
  0
POLYLINE
  8
0
 10
0
 20
0
 39
0
 70
1
 66
1
  0
VERTEX
  8
0
 10
1157.8
 20
721.61538461538453
 42
1
  0
VERTEX
  8
0
 10
1157.8
 20
737.61538461538453
 42
-0
  0
VERTEX
  8
0
 10
973.79999999999995
 20
737.61538461538453
 42
1
  0
VERTEX
  8
0
 10
973.79999999999995
 20
721.61538461538453
 42
0
  0
SEQEND
  0
POLYLINE
  8
0
 10
0
 20
0
 39
0
 70
1
 66
1
  0
VERTEX
  8
0
 10
1336.8153846153846
 20
40.353843412032489
 42
-0
  0
VERTEX
  8
0
 10
1336.8153846153846
 20
240.35384341203249
 42
-0
  0
VERTEX
  8
0
 10
1436.8153846153846
 20
310.35384341203252
 42
-0
  0
VERTEX
  8
0
 10
1456.8153846153846
 20
310.35384341203252
 42
-0
  0
VERTEX
  8
0
 10
1456.8153846153846
 20
40.353845319381136
 42
-0.49999997019767761
  0
SEQEND
  0
POLYLINE
  8
0
 10
0
 20
0
 39
0
 70
1
 66
1
  0
VERTEX
  8
0
 10
1388.8153846153846
 20
38.353843412032496
 42
1
  0
VERTEX
  8
0
 10
1404.8153846153846
 20
38.353843412032496
 42
-0
  0
VERTEX
  8
0
 10
1404.8153846153846
 20
222.35384341203249
 42
1
  0
VERTEX
  8
0
 10
1388.8153846153846
 20
222.35384341203249
 42
0
  0
SEQEND
  0
POLYLINE
  8
0
 10
0
 20
0
 39
0
 70
1
 66
1
  0
VERTEX
  8
0
 10
1456.8153846153846
 20
537.15384615384619
 42
-0
  0
VERTEX
  8
0
 10
1456.8153846153846
 20
337.15384615384619
 42
-0
  0
VERTEX
  8
0
 10
1356.8153846153846
 20
267.15384615384619
 42
-0
  0
VERTEX
  8
0
 10
1336.8153846153846
 20
267.15384615384619
 42
-0
  0
VERTEX
  8
0
 10
1336.8153846153846
 20
537.15384424649756
 42
-0.49999997019767761
  0
SEQEND
  0
POLYLINE
  8
0
 10
0
 20
0
 39
0
 70
1
 66
1
  0
VERTEX
  8
0
 10
1404.8153846153846
 20
539.15384615384619
 42
1
  0
VERTEX
  8
0
 10
1388.8153846153846
 20
539.15384615384619
 42
-0
  0
VERTEX
  8
0
 10
1388.8153846153846
 20
355.15384615384619
 42
1
  0
VERTEX
  8
0
 10
1404.8153846153846
 20
355.15384615384619
 42
0
  0
SEQEND
  0
POLYLINE
  8
0
 10
0
 20
0
 39
0
 70
1
 66
1
  0
VERTEX
  8
0
 10
1456.7230769230769
 20
669.43076923076922
 42
-0
  0
VERTEX
  8
0
 10
1256.7230769230769
 20
669.43076923076922
 42
-0
  0
VERTEX
  8
0
 10
1186.7230769230769
 20
769.43076923076922
 42
-0
  0
VERTEX
  8
0
 10
1186.7230769230769
 20
789.43076923076922
 42
-0
  0
VERTEX
  8
0
 10
1456.7230750157282
 20
789.43076923076922
 42
-0.49999997019767761
  0
SEQEND
  0
POLYLINE
  8
0
 10
0
 20
0
 39
0
 70
1
 66
1
  0
VERTEX
  8
0
 10
1458.7230769230769
 20
721.43076923076922
 42
1
  0
VERTEX
  8
0
 10
1458.7230769230769
 20
737.43076923076922
 42
-0
  0
VERTEX
  8
0
 10
1274.7230769230769
 20
737.43076923076922
 42
1
  0
VERTEX
  8
0
 10
1274.7230769230769
 20
721.43076923076922
 42
0
  0
SEQEND
  0
POLYLINE
  8
0
 10
0
 20
0
 39
0
 70
1
 66
1
  0
VERTEX
  8
0
 10
1467.153846153846
 20
40.353843412032489
 42
-0
  0
VERTEX
  8
0
 10
1467.153846153846
 20
240.35384341203249
 42
-0
  0
VERTEX
  8
0
 10
1567.153846153846
 20
310.35384341203252
 42
-0
  0
VERTEX
  8
0
 10
1587.153846153846
 20
310.35384341203252
 42
-0
  0
VERTEX
  8
0
 10
1587.153846153846
 20
40.353845319381136
 42
-0.49999997019767761
  0
SEQEND
  0
POLYLINE
  8
0
 10
0
 20
0
 39
0
 70
1
 66
1
  0
VERTEX
  8
0
 10
1519.153846153846
 20
38.353843412032496
 42
1
  0
VERTEX
  8
0
 10
1535.153846153846
 20
38.353843412032496
 42
-0
  0
VERTEX
  8
0
 10
1535.153846153846
 20
222.35384341203249
 42
1
  0
VERTEX
  8
0
 10
1519.153846153846
 20
222.35384341203249
 42
0
  0
SEQEND
  0
POLYLINE
  8
0
 10
0
 20
0
 39
0
 70
1
 66
1
  0
VERTEX
  8
0
 10
1587.153846153846
 20
537.15384615384619
 42
-0
  0
VERTEX
  8
0
 10
1587.153846153846
 20
337.15384615384619
 42
-0
  0
VERTEX
  8
0
 10
1487.153846153846
 20
267.15384615384619
 42
-0
  0
VERTEX
  8
0
 10
1467.153846153846
 20
267.15384615384619
 42
-0
  0
VERTEX
  8
0
 10
1467.153846153846
 20
537.15384424649756
 42
-0.49999997019767761
  0
SEQEND
  0
POLYLINE
  8
0
 10
0
 20
0
 39
0
 70
1
 66
1
  0
VERTEX
  8
0
 10
1535.153846153846
 20
539.15384615384619
 42
1
  0
VERTEX
  8
0
 10
1519.153846153846
 20
539.15384615384619
 42
-0
  0
VERTEX
  8
0
 10
1519.153846153846
 20
355.15384615384619
 42
1
  0
VERTEX
  8
0
 10
1535.153846153846
 20
355.15384615384619
 42
0
  0
SEQEND
  0
POLYLINE
  8
0
 10
0
 20
0
 39
0
 70
1
 66
1
  0
VERTEX
  8
0
 10
1597.4923076923076
 20
40.353843412032489
 42
-0
  0
VERTEX
  8
0
 10
1597.4923076923076
 20
240.35384341203249
 42
-0
  0
VERTEX
  8
0
 10
1697.4923076923076
 20
310.35384341203252
 42
-0
  0
VERTEX
  8
0
 10
1717.4923076923076
 20
310.35384341203252
 42
-0
  0
VERTEX
  8
0
 10
1717.4923076923076
 20
40.353845319381136
 42
-0.49999997019767761
  0
SEQEND
  0
POLYLINE
  8
0
 10
0
 20
0
 39
0
 70
1
 66
1
  0
VERTEX
  8
0
 10
1649.4923076923076
 20
38.353843412032496
 42
1
  0
VERTEX
  8
0
 10
1665.4923076923076
 20
38.353843412032496
 42
-0
  0
VERTEX
  8
0
 10
1665.4923076923076
 20
222.35384341203249
 42
1
  0
VERTEX
  8
0
 10
1649.4923076923076
 20
222.35384341203249
 42
0
  0
SEQEND
  0
POLYLINE
  8
0
 10
0
 20
0
 39
0
 70
1
 66
1
  0
VERTEX
  8
0
 10
1717.4923076923076
 20
537.15384615384619
 42
-0
  0
VERTEX
  8
0
 10
1717.4923076923076
 20
337.15384615384619
 42
-0
  0
VERTEX
  8
0
 10
1617.4923076923076
 20
267.15384615384619
 42
-0
  0
VERTEX
  8
0
 10
1597.4923076923076
 20
267.15384615384619
 42
-0
  0
VERTEX
  8
0
 10
1597.4923076923076
 20
537.15384424649756
 42
-0.49999997019767761
  0
SEQEND
  0
POLYLINE
  8
0
 10
0
 20
0
 39
0
 70
1
 66
1
  0
VERTEX
  8
0
 10
1665.4923076923076
 20
539.15384615384619
 42
1
  0
VERTEX
  8
0
 10
1649.4923076923076
 20
539.15384615384619
 42
-0
  0
VERTEX
  8
0
 10
1649.4923076923076
 20
355.15384615384619
 42
1
  0
VERTEX
  8
0
 10
1665.4923076923076
 20
355.15384615384619
 42
0
  0
SEQEND
  0
POLYLINE
  8
0
 10
0
 20
0
 39
0
 70
1
 66
1
  0
VERTEX
  8
0
 10
1498.2615357197246
 20
697.30769230769226
 42
-0
  0
VERTEX
  8
0
 10
1698.2615357197246
 20
697.30769230769226
 42
-0
  0
VERTEX
  8
0
 10
1768.2615357197246
 20
597.30769230769226
 42
-0
  0
VERTEX
  8
0
 10
1768.2615357197246
 20
577.30769230769226
 42
-0
  0
VERTEX
  8
0
 10
1498.2615376270733
 20
577.30769230769226
 42
-0.49999997019767761
  0
SEQEND
  0
POLYLINE
  8
0
 10
0
 20
0
 39
0
 70
1
 66
1
  0
VERTEX
  8
0
 10
1496.2615357197246
 20
645.30769230769226
 42
1
  0
VERTEX
  8
0
 10
1496.2615357197246
 20
629.30769230769226
 42
-0
  0
VERTEX
  8
0
 10
1680.2615357197246
 20
629.30769230769226
 42
1
  0
VERTEX
  8
0
 10
1680.2615357197246
 20
645.30769230769226
 42
0
  0
SEQEND
  0
POLYLINE
  8
0
 10
0
 20
0
 39
0
 70
1
 66
1
  0
VERTEX
  8
0
 10
1727.8307692307692
 20
40.353843412032489
 42
-0
  0
VERTEX
  8
0
 10
1727.8307692307692
 20
240.35384341203249
 42
-0
  0
VERTEX
  8
0
 10
1827.8307692307692
 20
310.35384341203252
 42
-0
  0
VERTEX
  8
0
 10
1847.8307692307692
 20
310.35384341203252
 42
-0
  0
VERTEX
  8
0
 10
1847.8307692307692
 20
40.353845319381136
 42
-0.49999997019767761
  0
SEQEND
  0
POLYLINE
  8
0
 10
0
 20
0
 39
0
 70
1
 66
1
  0
VERTEX
  8
0
 10
1779.8307692307692
 20
38.353843412032496
 42
1
  0
VERTEX
  8
0
 10
1795.8307692307692
 20
38.353843412032496
 42
-0
  0
VERTEX
  8
0
 10
1795.8307692307692
 20
222.35384341203249
 42
1
  0
VERTEX
  8
0
 10
1779.8307692307692
 20
222.35384341203249
 42
0
  0
SEQEND
  0
POLYLINE
  8
0
 10
0
 20
0
 39
0
 70
1
 66
1
  0
VERTEX
  8
0
 10
1847.8307692307692
 20
537.15384615384619
 42
-0
  0
VERTEX
  8
0
 10
1847.8307692307692
 20
337.15384615384619
 42
-0
  0
VERTEX
  8
0
 10
1747.8307692307692
 20
267.15384615384619
 42
-0
  0
VERTEX
  8
0
 10
1727.8307692307692
 20
267.15384615384619
 42
-0
  0
VERTEX
  8
0
 10
1727.8307692307692
 20
537.15384424649756
 42
-0.49999997019767761
  0
SEQEND
  0
POLYLINE
  8
0
 10
0
 20
0
 39
0
 70
1
 66
1
  0
VERTEX
  8
0
 10
1795.8307692307692
 20
539.15384615384619
 42
1
  0
VERTEX
  8
0
 10
1779.8307692307692
 20
539.15384615384619
 42
-0
  0
VERTEX
  8
0
 10
1779.8307692307692
 20
355.15384615384619
 42
1
  0
VERTEX
  8
0
 10
1795.8307692307692
 20
355.15384615384619
 42
0
  0
SEQEND
  0
POLYLINE
  8
0
 10
0
 20
0
 39
0
 70
1
 66
1
  0
VERTEX
  8
0
 10
1519.9461538461546
 20
734.60000000000036
 42
-1
  0
VERTEX
  8
0
 10
1519.9461538461546
 20
789.60000000000036
 42
0
  0
VERTEX
  8
0
 10
1749.9461538461546
 20
789.60000000000036
 42
-0.32588791847229004
  0
VERTEX
  8
0
 10
1776.1297475961546
 20
770.50625000000036
 42
-0.50842314958572388
  0
VERTEX
  8
0
 10
1749.9461538461546
 20
734.60000000000036
 42
0
  0
SEQEND
  0
POLYLINE
  8
0
 10
0
 20
0
 39
0
 70
1
 66
1
  0
VERTEX
  8
0
 10
1764.9461538461546
 20
762.10000000000036
 42
1
  0
VERTEX
  8
0
 10
1734.9461538461546
 20
762.10000000000036
 42
1
  0
SEQEND
  0
POLYLINE
  8
0
 10
0
 20
0
 39
0
 70
1
 66
1
  0
VERTEX
  8
0
 10
1534.9461538461546
 20
762.10000000000036
 42
1
  0
VERTEX
  8
0
 10
1504.9461538461546
 20
762.10000000000036
 42
1
  0
SEQEND
  0
POLYLINE
  8
0
 10
0
 20
0
 39
0
 70
1
 66
1
  0
VERTEX
  8
0
 10
1858.1692307692301
 20
267.85378439252236
 42
-1
  0
VERTEX
  8
0
 10
1913.1692307692301
 20
267.85378439252236
 42
0
  0
VERTEX
  8
0
 10
1913.1692307692301
 20
37.853784392522357
 42
-0.32588791847229004
  0
VERTEX
  8
0
 10
1894.0754807692301
 20
11.670190642522357
 42
-0.50842314958572388
  0
VERTEX
  8
0
 10
1858.1692307692301
 20
37.853784392522357
 42
0
  0
SEQEND
  0
POLYLINE
  8
0
 10
0
 20
0
 39
0
 70
1
 66
1
  0
VERTEX
  8
0
 10
1885.6692307692301
 20
22.853784392522357
 42
1
  0
VERTEX
  8
0
 10
1885.6692307692301
 20
52.853784392522357
 42
1
  0
SEQEND
  0
POLYLINE
  8
0
 10
0
 20
0
 39
0
 70
1
 66
1
  0
VERTEX
  8
0
 10
1885.6692307692301
 20
252.85378439252236
 42
1
  0
VERTEX
  8
0
 10
1885.6692307692301
 20
282.85378439252236
 42
1
  0
SEQEND
  0
POLYLINE
  8
0
 10
0
 20
0
 39
0
 70
1
 66
1
  0
VERTEX
  8
0
 10
1858.1692307692301
 20
562.86916900790675
 42
-1
  0
VERTEX
  8
0
 10
1913.1692307692301
 20
562.86916900790675
 42
0
  0
VERTEX
  8
0
 10
1913.1692307692301
 20
332.86916900790675
 42
-0.32588791847229004
  0
VERTEX
  8
0
 10
1894.0754807692301
 20
306.68557525790675
 42
-0.50842314958572388
  0
VERTEX
  8
0
 10
1858.1692307692301
 20
332.86916900790675
 42
0
  0
SEQEND
  0
POLYLINE
  8
0
 10
0
 20
0
 39
0
 70
1
 66
1
  0
VERTEX
  8
0
 10
1885.6692307692301
 20
317.86916900790675
 42
1
  0
VERTEX
  8
0
 10
1885.6692307692301
 20
347.86916900790675
 42
1
  0
SEQEND
  0
POLYLINE
  8
0
 10
0
 20
0
 39
0
 70
1
 66
1
  0
VERTEX
  8
0
 10
1885.6692307692301
 20
547.86916900790675
 42
1
  0
VERTEX
  8
0
 10
1885.6692307692301
 20
577.86916900790675
 42
1
  0
SEQEND
  0
POLYLINE
  8
0
 10
0
 20
0
 39
0
 70
1
 66
1
  0
VERTEX
  8
0
 10
1923.5230769230766
 20
267.85378439252236
 42
-1
  0
VERTEX
  8
0
 10
1978.5230769230766
 20
267.85378439252236
 42
0
  0
VERTEX
  8
0
 10
1978.5230769230766
 20
37.853784392522357
 42
-0.32588791847229004
  0
VERTEX
  8
0
 10
1959.4293269230766
 20
11.670190642522357
 42
-0.50842314958572388
  0
VERTEX
  8
0
 10
1923.5230769230766
 20
37.853784392522357
 42
0
  0
SEQEND
  0
POLYLINE
  8
0
 10
0
 20
0
 39
0
 70
1
 66
1
  0
VERTEX
  8
0
 10
1951.0230769230766
 20
22.853784392522357
 42
1
  0
VERTEX
  8
0
 10
1951.0230769230766
 20
52.853784392522357
 42
1
  0
SEQEND
  0
POLYLINE
  8
0
 10
0
 20
0
 39
0
 70
1
 66
1
  0
VERTEX
  8
0
 10
1951.0230769230766
 20
252.85378439252236
 42
1
  0
VERTEX
  8
0
 10
1951.0230769230766
 20
282.85378439252236
 42
1
  0
SEQEND
  0
POLYLINE
  8
0
 10
0
 20
0
 39
0
 70
1
 66
1
  0
VERTEX
  8
0
 10
1923.5230769230766
 20
562.86916900790675
 42
-1
  0
VERTEX
  8
0
 10
1978.5230769230766
 20
562.86916900790675
 42
0
  0
VERTEX
  8
0
 10
1978.5230769230766
 20
332.86916900790675
 42
-0.32588791847229004
  0
VERTEX
  8
0
 10
1959.4293269230766
 20
306.68557525790675
 42
-0.50842314958572388
  0
VERTEX
  8
0
 10
1923.5230769230766
 20
332.86916900790675
 42
0
  0
SEQEND
  0
POLYLINE
  8
0
 10
0
 20
0
 39
0
 70
1
 66
1
  0
VERTEX
  8
0
 10
1951.0230769230766
 20
317.86916900790675
 42
1
  0
VERTEX
  8
0
 10
1951.0230769230766
 20
347.86916900790675
 42
1
  0
SEQEND
  0
POLYLINE
  8
0
 10
0
 20
0
 39
0
 70
1
 66
1
  0
VERTEX
  8
0
 10
1951.0230769230766
 20
547.86916900790675
 42
1
  0
VERTEX
  8
0
 10
1951.0230769230766
 20
577.86916900790675
 42
1
  0
SEQEND
  0
POLYLINE
  8
0
 10
0
 20
0
 39
0
 70
1
 66
1
  0
VERTEX
  8
0
 10
1744.9923076923078
 20
669.2461538461539
 42
-1
  0
VERTEX
  8
0
 10
1744.9923076923078
 20
724.2461538461539
 42
0
  0
VERTEX
  8
0
 10
1974.9923076923078
 20
724.2461538461539
 42
-0.32588791847229004
  0
VERTEX
  8
0
 10
2001.1759014423078
 20
705.1524038461539
 42
-0.50842314958572388
  0
VERTEX
  8
0
 10
1974.9923076923078
 20
669.2461538461539
 42
0
  0
SEQEND
  0
POLYLINE
  8
0
 10
0
 20
0
 39
0
 70
1
 66
1
  0
VERTEX
  8
0
 10
1989.9923076923078
 20
696.7461538461539
 42
1
  0
VERTEX
  8
0
 10
1959.9923076923078
 20
696.7461538461539
 42
1
  0
SEQEND
  0
POLYLINE
  8
0
 10
0
 20
0
 39
0
 70
1
 66
1
  0
VERTEX
  8
0
 10
1759.9923076923078
 20
696.7461538461539
 42
1
  0
VERTEX
  8
0
 10
1729.9923076923078
 20
696.7461538461539
 42
1
  0
SEQEND
  0
POLYLINE
  8
0
 10
0
 20
0
 39
0
 70
1
 66
1
  0
VERTEX
  8
0
 10
1988.876923076923
 20
267.85378439252236
 42
-1
  0
VERTEX
  8
0
 10
2043.876923076923
 20
267.85378439252236
 42
0
  0
VERTEX
  8
0
 10
2043.876923076923
 20
37.853784392522357
 42
-0.32588791847229004
  0
VERTEX
  8
0
 10
2024.783173076923
 20
11.670190642522357
 42
-0.50842314958572388
  0
VERTEX
  8
0
 10
1988.876923076923
 20
37.853784392522357
 42
0
  0
SEQEND
  0
POLYLINE
  8
0
 10
0
 20
0
 39
0
 70
1
 66
1
  0
VERTEX
  8
0
 10
2016.376923076923
 20
22.853784392522357
 42
1
  0
VERTEX
  8
0
 10
2016.376923076923
 20
52.853784392522357
 42
1
  0
SEQEND
  0
POLYLINE
  8
0
 10
0
 20
0
 39
0
 70
1
 66
1
  0
VERTEX
  8
0
 10
2016.376923076923
 20
252.85378439252236
 42
1
  0
VERTEX
  8
0
 10
2016.376923076923
 20
282.85378439252236
 42
1
  0
SEQEND
  0
POLYLINE
  8
0
 10
0
 20
0
 39
0
 70
1
 66
1
  0
VERTEX
  8
0
 10
1988.876923076923
 20
562.86916900790675
 42
-1
  0
VERTEX
  8
0
 10
2043.876923076923
 20
562.86916900790675
 42
0
  0
VERTEX
  8
0
 10
2043.876923076923
 20
332.86916900790675
 42
-0.32588791847229004
  0
VERTEX
  8
0
 10
2024.783173076923
 20
306.68557525790675
 42
-0.50842314958572388
  0
VERTEX
  8
0
 10
1988.876923076923
 20
332.86916900790675
 42
0
  0
SEQEND
  0
POLYLINE
  8
0
 10
0
 20
0
 39
0
 70
1
 66
1
  0
VERTEX
  8
0
 10
2016.376923076923
 20
317.86916900790675
 42
1
  0
VERTEX
  8
0
 10
2016.376923076923
 20
347.86916900790675
 42
1
  0
SEQEND
  0
POLYLINE
  8
0
 10
0
 20
0
 39
0
 70
1
 66
1
  0
VERTEX
  8
0
 10
2016.376923076923
 20
547.86916900790675
 42
1
  0
VERTEX
  8
0
 10
2016.376923076923
 20
577.86916900790675
 42
1
  0
SEQEND
  0
POLYLINE
  8
0
 10
0
 20
0
 39
0
 70
1
 66
1
  0
VERTEX
  8
0
 10
1790.5923076923063
 20
604.07692307692378
 42
-1
  0
VERTEX
  8
0
 10
1790.5923076923063
 20
659.07692307692378
 42
0
  0
VERTEX
  8
0
 10
2020.5923076923063
 20
659.07692307692378
 42
-0.32588791847229004
  0
VERTEX
  8
0
 10
2046.7759014423063
 20
639.98317307692378
 42
-0.50842314958572388
  0
VERTEX
  8
0
 10
2020.5923076923063
 20
604.07692307692378
 42
0
  0
SEQEND
  0
POLYLINE
  8
0
 10
0
 20
0
 39
0
 70
1
 66
1
  0
VERTEX
  8
0
 10
2035.5923076923063
 20
631.57692307692378
 42
1
  0
VERTEX
  8
0
 10
2005.5923076923063
 20
631.57692307692378
 42
1
  0
SEQEND
  0
POLYLINE
  8
0
 10
0
 20
0
 39
0
 70
1
 66
1
  0
VERTEX
  8
0
 10
1805.5923076923063
 20
631.57692307692378
 42
1
  0
VERTEX
  8
0
 10
1775.5923076923063
 20
631.57692307692378
 42
1
  0
SEQEND
  0
POLYLINE
  8
0
 10
0
 20
0
 39
0
 70
1
 66
1
  0
VERTEX
  8
0
 10
1815.1461538461554
 20
734.41538461538403
 42
-1
  0
VERTEX
  8
0
 10
1815.1461538461554
 20
789.41538461538403
 42
0
  0
VERTEX
  8
0
 10
2045.1461538461554
 20
789.41538461538403
 42
-0.32588791847229004
  0
VERTEX
  8
0
 10
2071.3297475961554
 20
770.32163461538403
 42
-0.50842314958572388
  0
VERTEX
  8
0
 10
2045.1461538461554
 20
734.41538461538403
 42
0
  0
SEQEND
  0
POLYLINE
  8
0
 10
0
 20
0
 39
0
 70
1
 66
1
  0
VERTEX
  8
0
 10
2060.1461538461554
 20
761.91538461538403
 42
1
  0
VERTEX
  8
0
 10
2030.1461538461554
 20
761.91538461538403
 42
1
  0
SEQEND
  0
POLYLINE
  8
0
 10
0
 20
0
 39
0
 70
1
 66
1
  0
VERTEX
  8
0
 10
1830.1461538461554
 20
761.91538461538403
 42
1
  0
VERTEX
  8
0
 10
1800.1461538461554
 20
761.91538461538403
 42
1
  0
SEQEND
  0
POLYLINE
  8
0
 10
0
 20
0
 39
0
 70
1
 66
1
  0
VERTEX
  8
0
 10
2054.2307692307695
 20
267.85378439252236
 42
-1
  0
VERTEX
  8
0
 10
2109.2307692307695
 20
267.85378439252236
 42
0
  0
VERTEX
  8
0
 10
2109.2307692307695
 20
37.853784392522357
 42
-0.32588791847229004
  0
VERTEX
  8
0
 10
2090.1370192307695
 20
11.670190642522357
 42
-0.50842314958572388
  0
VERTEX
  8
0
 10
2054.2307692307695
 20
37.853784392522357
 42
0
  0
SEQEND
  0
POLYLINE
  8
0
 10
0
 20
0
 39
0
 70
1
 66
1
  0
VERTEX
  8
0
 10
2081.7307692307695
 20
22.853784392522357
 42
1
  0
VERTEX
  8
0
 10
2081.7307692307695
 20
52.853784392522357
 42
1
  0
SEQEND
  0
POLYLINE
  8
0
 10
0
 20
0
 39
0
 70
1
 66
1
  0
VERTEX
  8
0
 10
2081.7307692307695
 20
252.85378439252236
 42
1
  0
VERTEX
  8
0
 10
2081.7307692307695
 20
282.85378439252236
 42
1
  0
SEQEND
  0
POLYLINE
  8
0
 10
0
 20
0
 39
0
 70
1
 66
1
  0
VERTEX
  8
0
 10
2054.2307692307695
 20
562.86916900790675
 42
-1
  0
VERTEX
  8
0
 10
2109.2307692307695
 20
562.86916900790675
 42
0
  0
VERTEX
  8
0
 10
2109.2307692307695
 20
332.86916900790675
 42
-0.32588791847229004
  0
VERTEX
  8
0
 10
2090.1370192307695
 20
306.68557525790675
 42
-0.50842314958572388
  0
VERTEX
  8
0
 10
2054.2307692307695
 20
332.86916900790675
 42
0
  0
SEQEND
  0
POLYLINE
  8
0
 10
0
 20
0
 39
0
 70
1
 66
1
  0
VERTEX
  8
0
 10
2081.7307692307695
 20
317.86916900790675
 42
1
  0
VERTEX
  8
0
 10
2081.7307692307695
 20
347.86916900790675
 42
1
  0
SEQEND
  0
POLYLINE
  8
0
 10
0
 20
0
 39
0
 70
1
 66
1
  0
VERTEX
  8
0
 10
2081.7307692307695
 20
547.86916900790675
 42
1
  0
VERTEX
  8
0
 10
2081.7307692307695
 20
577.86916900790675
 42
1
  0
SEQEND
  0
POLYLINE
  8
0
 10
0
 20
0
 39
0
 70
1
 66
1
  0
VERTEX
  8
0
 10
2119.584615384616
 20
267.85378439252236
 42
-1
  0
VERTEX
  8
0
 10
2174.584615384616
 20
267.85378439252236
 42
0
  0
VERTEX
  8
0
 10
2174.584615384616
 20
37.853784392522357
 42
-0.32588791847229004
  0
VERTEX
  8
0
 10
2155.490865384616
 20
11.670190642522357
 42
-0.50842314958572388
  0
VERTEX
  8
0
 10
2119.584615384616
 20
37.853784392522357
 42
0
  0
SEQEND
  0
POLYLINE
  8
0
 10
0
 20
0
 39
0
 70
1
 66
1
  0
VERTEX
  8
0
 10
2147.084615384616
 20
22.853784392522357
 42
1
  0
VERTEX
  8
0
 10
2147.084615384616
 20
52.853784392522357
 42
1
  0
SEQEND
  0
POLYLINE
  8
0
 10
0
 20
0
 39
0
 70
1
 66
1
  0
VERTEX
  8
0
 10
2147.084615384616
 20
252.85378439252236
 42
1
  0
VERTEX
  8
0
 10
2147.084615384616
 20
282.85378439252236
 42
1
  0
SEQEND
  0
POLYLINE
  8
0
 10
0
 20
0
 39
0
 70
1
 66
1
  0
VERTEX
  8
0
 10
2119.584615384616
 20
562.86916900790675
 42
-1
  0
VERTEX
  8
0
 10
2174.584615384616
 20
562.86916900790675
 42
0
  0
VERTEX
  8
0
 10
2174.584615384616
 20
332.86916900790675
 42
-0.32588791847229004
  0
VERTEX
  8
0
 10
2155.490865384616
 20
306.68557525790675
 42
-0.50842314958572388
  0
VERTEX
  8
0
 10
2119.584615384616
 20
332.86916900790675
 42
0
  0
SEQEND
  0
POLYLINE
  8
0
 10
0
 20
0
 39
0
 70
1
 66
1
  0
VERTEX
  8
0
 10
2147.084615384616
 20
317.86916900790675
 42
1
  0
VERTEX
  8
0
 10
2147.084615384616
 20
347.86916900790675
 42
1
  0
SEQEND
  0
POLYLINE
  8
0
 10
0
 20
0
 39
0
 70
1
 66
1
  0
VERTEX
  8
0
 10
2147.084615384616
 20
547.86916900790675
 42
1
  0
VERTEX
  8
0
 10
2147.084615384616
 20
577.86916900790675
 42
1
  0
SEQEND
  0
POLYLINE
  8
0
 10
0
 20
0
 39
0
 70
1
 66
1
  0
VERTEX
  8
0
 10
2184.9384615384606
 20
267.85378439252236
 42
-1
  0
VERTEX
  8
0
 10
2239.9384615384606
 20
267.85378439252236
 42
0
  0
VERTEX
  8
0
 10
2239.9384615384606
 20
37.853784392522357
 42
-0.32588791847229004
  0
VERTEX
  8
0
 10
2220.8447115384606
 20
11.670190642522357
 42
-0.50842314958572388
  0
VERTEX
  8
0
 10
2184.9384615384606
 20
37.853784392522357
 42
0
  0
SEQEND
  0
POLYLINE
  8
0
 10
0
 20
0
 39
0
 70
1
 66
1
  0
VERTEX
  8
0
 10
2212.4384615384606
 20
22.853784392522357
 42
1
  0
VERTEX
  8
0
 10
2212.4384615384606
 20
52.853784392522357
 42
1
  0
SEQEND
  0
POLYLINE
  8
0
 10
0
 20
0
 39
0
 70
1
 66
1
  0
VERTEX
  8
0
 10
2212.4384615384606
 20
252.85378439252236
 42
1
  0
VERTEX
  8
0
 10
2212.4384615384606
 20
282.85378439252236
 42
1
  0
SEQEND
  0
POLYLINE
  8
0
 10
0
 20
0
 39
0
 70
1
 66
1
  0
VERTEX
  8
0
 10
2184.9384615384606
 20
562.86916900790675
 42
-1
  0
VERTEX
  8
0
 10
2239.9384615384606
 20
562.86916900790675
 42
0
  0
VERTEX
  8
0
 10
2239.9384615384606
 20
332.86916900790675
 42
-0.32588791847229004
  0
VERTEX
  8
0
 10
2220.8447115384606
 20
306.68557525790675
 42
-0.50842314958572388
  0
VERTEX
  8
0
 10
2184.9384615384606
 20
332.86916900790675
 42
0
  0
SEQEND
  0
POLYLINE
  8
0
 10
0
 20
0
 39
0
 70
1
 66
1
  0
VERTEX
  8
0
 10
2212.4384615384606
 20
317.86916900790675
 42
1
  0
VERTEX
  8
0
 10
2212.4384615384606
 20
347.86916900790675
 42
1
  0
SEQEND
  0
POLYLINE
  8
0
 10
0
 20
0
 39
0
 70
1
 66
1
  0
VERTEX
  8
0
 10
2212.4384615384606
 20
547.86916900790675
 42
1
  0
VERTEX
  8
0
 10
2212.4384615384606
 20
577.86916900790675
 42
1
  0
SEQEND
  0
POLYLINE
  8
0
 10
0
 20
0
 39
0
 70
1
 66
1
  0
VERTEX
  8
0
 10
2040.1923076923085
 20
666.66153846153793
 42
-1
  0
VERTEX
  8
0
 10
2040.1923076923085
 20
721.66153846153793
 42
0
  0
VERTEX
  8
0
 10
2270.1923076923085
 20
721.66153846153793
 42
-0.32588791847229004
  0
VERTEX
  8
0
 10
2296.3759014423085
 20
702.56778846153793
 42
-0.50842314958572388
  0
VERTEX
  8
0
 10
2270.1923076923085
 20
666.66153846153793
 42
0
  0
SEQEND
  0
POLYLINE
  8
0
 10
0
 20
0
 39
0
 70
1
 66
1
  0
VERTEX
  8
0
 10
2285.1923076923085
 20
694.16153846153793
 42
1
  0
VERTEX
  8
0
 10
2255.1923076923085
 20
694.16153846153793
 42
1
  0
SEQEND
  0
POLYLINE
  8
0
 10
0
 20
0
 39
0
 70
1
 66
1
  0
VERTEX
  8
0
 10
2055.1923076923085
 20
694.16153846153793
 42
1
  0
VERTEX
  8
0
 10
2025.1923076923085
 20
694.16153846153793
 42
1
  0
SEQEND
  0
POLYLINE
  8
0
 10
0
 20
0
 39
0
 70
1
 66
1
  0
VERTEX
  8
0
 10
2250.2923076923071
 20
267.85378439252236
 42
-1
  0
VERTEX
  8
0
 10
2305.2923076923071
 20
267.85378439252236
 42
0
  0
VERTEX
  8
0
 10
2305.2923076923071
 20
37.853784392522357
 42
-0.32588791847229004
  0
VERTEX
  8
0
 10
2286.1985576923071
 20
11.670190642522357
 42
-0.50842314958572388
  0
VERTEX
  8
0
 10
2250.2923076923071
 20
37.853784392522357
 42
0
  0
SEQEND
  0
POLYLINE
  8
0
 10
0
 20
0
 39
0
 70
1
 66
1
  0
VERTEX
  8
0
 10
2277.7923076923071
 20
22.853784392522357
 42
1
  0
VERTEX
  8
0
 10
2277.7923076923071
 20
52.853784392522357
 42
1
  0
SEQEND
  0
POLYLINE
  8
0
 10
0
 20
0
 39
0
 70
1
 66
1
  0
VERTEX
  8
0
 10
2277.7923076923071
 20
252.85378439252236
 42
1
  0
VERTEX
  8
0
 10
2277.7923076923071
 20
282.85378439252236
 42
1
  0
SEQEND
  0
POLYLINE
  8
0
 10
0
 20
0
 39
0
 70
1
 66
1
  0
VERTEX
  8
0
 10
2250.2923076923071
 20
562.86916900790675
 42
-1
  0
VERTEX
  8
0
 10
2305.2923076923071
 20
562.86916900790675
 42
0
  0
VERTEX
  8
0
 10
2305.2923076923071
 20
332.86916900790675
 42
-0.32588791847229004
  0
VERTEX
  8
0
 10
2286.1985576923071
 20
306.68557525790675
 42
-0.50842314958572388
  0
VERTEX
  8
0
 10
2250.2923076923071
 20
332.86916900790675
 42
0
  0
SEQEND
  0
POLYLINE
  8
0
 10
0
 20
0
 39
0
 70
1
 66
1
  0
VERTEX
  8
0
 10
2277.7923076923071
 20
317.86916900790675
 42
1
  0
VERTEX
  8
0
 10
2277.7923076923071
 20
347.86916900790675
 42
1
  0
SEQEND
  0
POLYLINE
  8
0
 10
0
 20
0
 39
0
 70
1
 66
1
  0
VERTEX
  8
0
 10
2277.7923076923071
 20
547.86916900790675
 42
1
  0
VERTEX
  8
0
 10
2277.7923076923071
 20
577.86916900790675
 42
1
  0
SEQEND
  0
POLYLINE
  8
0
 10
0
 20
0
 39
0
 70
1
 66
1
  0
VERTEX
  8
0
 10
2085.7923076923071
 20
600.38461538461524
 42
-1
  0
VERTEX
  8
0
 10
2085.7923076923071
 20
655.38461538461524
 42
0
  0
VERTEX
  8
0
 10
2315.7923076923071
 20
655.38461538461524
 42
-0.32588791847229004
  0
VERTEX
  8
0
 10
2341.9759014423071
 20
636.29086538461524
 42
-0.50842314958572388
  0
VERTEX
  8
0
 10
2315.7923076923071
 20
600.38461538461524
 42
0
  0
SEQEND
  0
POLYLINE
  8
0
 10
0
 20
0
 39
0
 70
1
 66
1
  0
VERTEX
  8
0
 10
2330.7923076923071
 20
627.88461538461524
 42
1
  0
VERTEX
  8
0
 10
2300.7923076923071
 20
627.88461538461524
 42
1
  0
SEQEND
  0
POLYLINE
  8
0
 10
0
 20
0
 39
0
 70
1
 66
1
  0
VERTEX
  8
0
 10
2100.7923076923071
 20
627.88461538461524
 42
1
  0
VERTEX
  8
0
 10
2070.7923076923071
 20
627.88461538461524
 42
1
  0
SEQEND
  0
POLYLINE
  8
0
 10
0
 20
0
 39
0
 70
1
 66
1
  0
VERTEX
  8
0
 10
2110.3461538461524
 20
731.83076923076987
 42
-1
  0
VERTEX
  8
0
 10
2110.3461538461524
 20
786.83076923076987
 42
0
  0
VERTEX
  8
0
 10
2340.3461538461524
 20
786.83076923076987
 42
-0.32588791847229004
  0
VERTEX
  8
0
 10
2366.5297475961524
 20
767.73701923076987
 42
-0.50842314958572388
  0
VERTEX
  8
0
 10
2340.3461538461524
 20
731.83076923076987
 42
0
  0
SEQEND
  0
POLYLINE
  8
0
 10
0
 20
0
 39
0
 70
1
 66
1
  0
VERTEX
  8
0
 10
2355.3461538461524
 20
759.33076923076987
 42
1
  0
VERTEX
  8
0
 10
2325.3461538461524
 20
759.33076923076987
 42
1
  0
SEQEND
  0
POLYLINE
  8
0
 10
0
 20
0
 39
0
 70
1
 66
1
  0
VERTEX
  8
0
 10
2125.3461538461524
 20
759.33076923076987
 42
1
  0
VERTEX
  8
0
 10
2095.3461538461524
 20
759.33076923076987
 42
1
  0
SEQEND
  0
POLYLINE
  8
0
 10
0
 20
0
 39
0
 70
1
 66
1
  0
VERTEX
  8
0
 10
2315.6461538461535
 20
267.85378439252236
 42
-1
  0
VERTEX
  8
0
 10
2370.6461538461535
 20
267.85378439252236
 42
0
  0
VERTEX
  8
0
 10
2370.6461538461535
 20
37.853784392522357
 42
-0.32588791847229004
  0
VERTEX
  8
0
 10
2351.5524038461535
 20
11.670190642522357
 42
-0.50842314958572388
  0
VERTEX
  8
0
 10
2315.6461538461535
 20
37.853784392522357
 42
0
  0
SEQEND
  0
POLYLINE
  8
0
 10
0
 20
0
 39
0
 70
1
 66
1
  0
VERTEX
  8
0
 10
2343.1461538461535
 20
22.853784392522357
 42
1
  0
VERTEX
  8
0
 10
2343.1461538461535
 20
52.853784392522357
 42
1
  0
SEQEND
  0
POLYLINE
  8
0
 10
0
 20
0
 39
0
 70
1
 66
1
  0
VERTEX
  8
0
 10
2343.1461538461535
 20
252.85378439252236
 42
1
  0
VERTEX
  8
0
 10
2343.1461538461535
 20
282.85378439252236
 42
1
  0
SEQEND
  0
POLYLINE
  8
0
 10
0
 20
0
 39
0
 70
1
 66
1
  0
VERTEX
  8
0
 10
2315.6461538461535
 20
562.86916900790675
 42
-1
  0
VERTEX
  8
0
 10
2370.6461538461535
 20
562.86916900790675
 42
0
  0
VERTEX
  8
0
 10
2370.6461538461535
 20
332.86916900790675
 42
-0.32588791847229004
  0
VERTEX
  8
0
 10
2351.5524038461535
 20
306.68557525790675
 42
-0.50842314958572388
  0
VERTEX
  8
0
 10
2315.6461538461535
 20
332.86916900790675
 42
0
  0
SEQEND
  0
POLYLINE
  8
0
 10
0
 20
0
 39
0
 70
1
 66
1
  0
VERTEX
  8
0
 10
2343.1461538461535
 20
317.86916900790675
 42
1
  0
VERTEX
  8
0
 10
2343.1461538461535
 20
347.86916900790675
 42
1
  0
SEQEND
  0
POLYLINE
  8
0
 10
0
 20
0
 39
0
 70
1
 66
1
  0
VERTEX
  8
0
 10
2343.1461538461535
 20
547.86916900790675
 42
1
  0
VERTEX
  8
0
 10
2343.1461538461535
 20
577.86916900790675
 42
1
  0
SEQEND
  0
POLYLINE
  8
0
 10
0
 20
0
 39
0
 70
1
 66
1
  0
VERTEX
  8
0
 10
10.35384615384616
 20
255.15384615384613
 42
0
  0
VERTEX
  8
0
 10
10.353846153846154
 20
355.15384615384613
 42
0
  0
VERTEX
  8
0
 10
60.353846153846149
 20
355.15384615384613
 42
0
  0
VERTEX
  8
0
 10
60.353846153846163
 20
255.15384615384613
 42
0
  0
SEQEND
  0
POLYLINE
  8
0
 10
0
 20
0
 39
0
 70
1
 66
1
  0
VERTEX
  8
0
 10
35.353846153846163
 20
274.40384615384613
 42
1
  0
VERTEX
  8
0
 10
35.353846153846156
 20
295.90384615384613
 42
1
  0
SEQEND
  0
POLYLINE
  8
0
 10
0
 20
0
 39
0
 70
1
 66
1
  0
VERTEX
  8
0
 10
275.64615384615382
 20
255.15384615384613
 42
0
  0
VERTEX
  8
0
 10
275.64615384615382
 20
355.15384615384613
 42
0
  0
VERTEX
  8
0
 10
325.64615384615382
 20
355.15384615384613
 42
0
  0
VERTEX
  8
0
 10
325.64615384615382
 20
255.15384615384613
 42
0
  0
SEQEND
  0
POLYLINE
  8
0
 10
0
 20
0
 39
0
 70
1
 66
1
  0
VERTEX
  8
0
 10
300.64615384615382
 20
274.40384615384613
 42
1
  0
VERTEX
  8
0
 10
300.64615384615382
 20
295.90384615384613
 42
1
  0
SEQEND
  0
POLYLINE
  8
0
 10
0
 20
0
 39
0
 70
1
 66
1
  0
VERTEX
  8
0
 10
540.93846153846152
 20
255.15384615384613
 42
0
  0
VERTEX
  8
0
 10
540.93846153846152
 20
355.15384615384613
 42
0
  0
VERTEX
  8
0
 10
590.93846153846152
 20
355.15384615384613
 42
0
  0
VERTEX
  8
0
 10
590.93846153846152
 20
255.15384615384613
 42
0
  0
SEQEND
  0
POLYLINE
  8
0
 10
0
 20
0
 39
0
 70
1
 66
1
  0
VERTEX
  8
0
 10
565.93846153846152
 20
274.40384615384613
 42
1
  0
VERTEX
  8
0
 10
565.93846153846152
 20
295.90384615384613
 42
1
  0
SEQEND
  0
POLYLINE
  8
0
 10
0
 20
0
 39
0
 70
1
 66
1
  0
VERTEX
  8
0
 10
806.23076923076917
 20
255.15384615384613
 42
0
  0
VERTEX
  8
0
 10
806.23076923076917
 20
355.15384615384613
 42
0
  0
VERTEX
  8
0
 10
856.23076923076917
 20
355.15384615384613
 42
0
  0
VERTEX
  8
0
 10
856.23076923076917
 20
255.15384615384613
 42
0
  0
SEQEND
  0
POLYLINE
  8
0
 10
0
 20
0
 39
0
 70
1
 66
1
  0
VERTEX
  8
0
 10
831.23076923076917
 20
274.40384615384613
 42
1
  0
VERTEX
  8
0
 10
831.23076923076917
 20
295.90384615384613
 42
1
  0
SEQEND
  0
POLYLINE
  8
0
 10
0
 20
0
 39
0
 70
1
 66
1
  0
VERTEX
  8
0
 10
1071.5230769230768
 20
255.15384615384613
 42
0
  0
VERTEX
  8
0
 10
1071.5230769230768
 20
355.15384615384613
 42
0
  0
VERTEX
  8
0
 10
1121.5230769230768
 20
355.15384615384613
 42
0
  0
VERTEX
  8
0
 10
1121.5230769230768
 20
255.15384615384613
 42
0
  0
SEQEND
  0
POLYLINE
  8
0
 10
0
 20
0
 39
0
 70
1
 66
1
  0
VERTEX
  8
0
 10
1096.5230769230768
 20
274.40384615384613
 42
1
  0
VERTEX
  8
0
 10
1096.5230769230768
 20
295.90384615384613
 42
1
  0
SEQEND
  0
POLYLINE
  8
0
 10
0
 20
0
 39
0
 70
1
 66
1
  0
VERTEX
  8
0
 10
52.471033653846462
 20
615.79131610576951
 42
-0.76732701063156128
  0
VERTEX
  8
0
 10
52.472010216346462
 20
562.66631610576951
 42
0
  0
VERTEX
  8
0
 10
10.353846153846462
 20
554.23076923076951
 42
0
  0
VERTEX
  8
0
 10
10.353846153846462
 20
624.22881610576951
 42
0
  0
SEQEND
  0
POLYLINE
  8
0
 10
0
 20
0
 39
0
 70
1
 66
1
  0
VERTEX
  8
0
 10
45.353846153846462
 20
574.22881610576951
 42
1
  0
VERTEX
  8
0
 10
45.353846153846462
 20
604.22881610576951
 42
1
  0
SEQEND
  0
POLYLINE
  8
0
 10
0
 20
0
 39
0
 70
1
 66
1
  0
VERTEX
  8
0
 10
359.30180288461452
 20
657.32977764423049
 42
-0.76732701063156128
  0
VERTEX
  8
0
 10
359.30277944711452
 20
604.20477764423049
 42
0
  0
VERTEX
  8
0
 10
317.18461538461452
 20
595.76923076923049
 42
0
  0
VERTEX
  8
0
 10
317.18461538461452
 20
665.76727764423049
 42
0
  0
SEQEND
  0
POLYLINE
  8
0
 10
0
 20
0
 39
0
 70
1
 66
1
  0
VERTEX
  8
0
 10
352.18461538461452
 20
615.76727764423049
 42
1
  0
VERTEX
  8
0
 10
352.18461538461452
 20
645.76727764423049
 42
1
  0
SEQEND
  0
POLYLINE
  8
0
 10
0
 20
0
 39
0
 70
1
 66
1
  0
VERTEX
  8
0
 10
559.29030431348656
 20
606.791346153841
 42
-0.76732701063156128
  0
VERTEX
  8
0
 10
559.28932775098656
 20
659.916346153841
 42
0
  0
VERTEX
  8
0
 10
601.40749181348656
 20
668.351893028841
 42
0
  0
VERTEX
  8
0
 10
601.40749181348656
 20
598.353846153841
 42
0
  0
SEQEND
  0
POLYLINE
  8
0
 10
0
 20
0
 39
0
 70
1
 66
1
  0
VERTEX
  8
0
 10
566.40749181348656
 20
648.353846153841
 42
1
  0
VERTEX
  8
0
 10
566.40749181348656
 20
618.353846153841
 42
1
  0
SEQEND
  0
POLYLINE
  8
0
 10
0
 20
0
 39
0
 70
1
 66
1
  0
VERTEX
  8
0
 10
826.4287658519479
 20
599.77596153845661
 42
-0.76732701063156128
  0
VERTEX
  8
0
 10
826.4277892894479
 20
652.90096153845661
 42
0
  0
VERTEX
  8
0
 10
868.5459533519479
 20
661.33650841345661
 42
0
  0
VERTEX
  8
0
 10
868.5459533519479
 20
591.33846153845661
 42
0
  0
SEQEND
  0
POLYLINE
  8
0
 10
0
 20
0
 39
0
 70
1
 66
1
  0
VERTEX
  8
0
 10
833.5459533519479
 20
641.33846153845661
 42
1
  0
VERTEX
  8
0
 10
833.5459533519479
 20
611.33846153845661
 42
1
  0
SEQEND
  0
POLYLINE
  8
0
 10
0
 20
0
 39
0
 70
1
 66
1
  0
VERTEX
  8
0
 10
1113.6402644230766
 20
615.79131610576951
 42
-0.76732701063156128
  0
VERTEX
  8
0
 10
1113.6412409855766
 20
562.66631610576951
 42
0
  0
VERTEX
  8
0
 10
1071.5230769230766
 20
554.23076923076951
 42
0
  0
VERTEX
  8
0
 10
1071.5230769230766
 20
624.22881610576951
 42
0
  0
SEQEND
  0
POLYLINE
  8
0
 10
0
 20
0
 39
0
 70
1
 66
1
  0
VERTEX
  8
0
 10
1106.5230769230766
 20
574.22881610576951
 42
1
  0
VERTEX
  8
0
 10
1106.5230769230766
 20
604.22881610576951
 42
1
  0
SEQEND
  0
POLYLINE
  8
0
 10
0
 20
0
 39
0
 70
1
 66
1
  0
VERTEX
  8
0
 10
1177.6221153846091
 20
672.77872596153793
 42
-0.76732701063156128
  0
VERTEX
  8
0
 10
1230.7471153846091
 20
672.77970252403793
 42
0
  0
VERTEX
  8
0
 10
1239.1826622596091
 20
630.66153846153793
 42
0
  0
VERTEX
  8
0
 10
1169.1846153846091
 20
630.66153846153793
 42
0
  0
SEQEND
  0
POLYLINE
  8
0
 10
0
 20
0
 39
0
 70
1
 66
1
  0
VERTEX
  8
0
 10
1219.1846153846091
 20
665.66153846153793
 42
1
  0
VERTEX
  8
0
 10
1189.1846153846091
 20
665.66153846153793
 42
1
  0
SEQEND
  0
POLYLINE
  8
0
 10
0
 20
0
 39
0
 70
1
 66
1
  0
VERTEX
  8
0
 10
16.410069755624249
 20
35.706001439840399
 42
-0.07530849426984787
  0
VERTEX
  8
0
 10
16.410069214207127
 20
42.595310428813654
 42
0.34488147497177124
  0
VERTEX
  8
0
 10
15.197994298188092
 20
44.742605417426766
 42
0
  0
VERTEX
  8
0
 10
10.971163802217376
 20
46.493415959882149
 42
-0.38417559862136841
  0
VERTEX
  8
0
 10
10.395336696423485
 20
47.702351803249989
 42
-0.051863282918930054
  0
VERTEX
  8
0
 10
12.770613587592649
 20
53.436777405855814
 42
-0.38417559862136841
  0
VERTEX
  8
0
 10
14.032631211351287
 20
53.884451993512521
 42
-0
  0
VERTEX
  8
0
 10
18.259461707322004
 20
52.133641451057137
 42
0.34488147497177124
  0
VERTEX
  8
0
 10
20.634894589169065
 20
52.794941001060515
 42
-0.075308471918106079
  0
VERTEX
  8
0
 10
25.506370363166099
 20
57.666418402398726
 42
0.34488147497177124
  0
VERTEX
  8
0
 10
26.167671318860101
 20
60.04185185366935
 42
0
  0
VERTEX
  8
0
 10
24.4168621481858
 20
64.268682683729935
 42
-0.38417559862136841
  0
VERTEX
  8
0
 10
24.864535330147959
 20
65.53069968990809
 42
-0.051863282918930054
  0
VERTEX
  8
0
 10
30.598962697486655
 20
67.905977243752886
 42
-0.38417559862136841
  0
VERTEX
  8
0
 10
31.807898709465718
 20
67.330150223391513
 42
-0
  0
VERTEX
  8
0
 10
33.55870788014002
 20
63.103319393330928
 42
0.34488147497177124
  0
VERTEX
  8
0
 10
35.706001748653961
 20
61.891243262821341
 42
-0.075308538973331451
  0
VERTEX
  8
0
 10
42.59531338086768
 20
61.891242709372399
 42
0.34488147497177124
  0
VERTEX
  8
0
 10
44.742605726240328
 20
63.103318720257498
 42
0
  0
VERTEX
  8
0
 10
46.493416268695711
 20
67.330149216228222
 42
-0.38417559862136841
  0
VERTEX
  8
0
 10
47.702352112063551
 20
67.905976322022099
 42
-0.051863282918930054
  0
VERTEX
  8
0
 10
53.436777714669375
 20
65.530699430852934
 42
-0.38417559862136841
  0
VERTEX
  8
0
 10
53.884452302326082
 20
64.26868180709431
 42
-0
  0
VERTEX
  8
0
 10
52.133641759870699
 20
60.041851311123587
 42
0.34488147497177124
  0
VERTEX
  8
0
 10
52.794941309874076
 20
57.666418429276526
 42
-0.075308538973331451
  0
VERTEX
  8
0
 10
57.666420624542042
 20
52.794939798253118
 42
0.34488147497177124
  0
VERTEX
  8
0
 10
60.041852162482911
 20
52.133641699585489
 42
0
  0
VERTEX
  8
0
 10
64.268682992543489
 20
53.884450870259791
 42
-0.38417559862136841
  0
VERTEX
  8
0
 10
65.530699998721644
 20
53.436777688297632
 42
-0.051863282918930054
  0
VERTEX
  8
0
 10
67.905977552566441
 20
47.702350320958935
 42
-0.38417559862136841
  0
VERTEX
  8
0
 10
67.330150532205067
 20
46.493414308979872
 42
-0
  0
VERTEX
  8
0
 10
63.103319702144489
 20
44.742605138305571
 42
0.34488147497177124
  0
VERTEX
  8
0
 10
61.891243571634902
 20
42.59531126979163
 42
-0.075308538973331451
  0
VERTEX
  8
0
 10
61.891243018185961
 20
35.705999637577911
 42
0.34488144516944885
  0
VERTEX
  8
0
 10
63.103319029071059
 20
33.558707292205263
 42
0
  0
VERTEX
  8
0
 10
67.330149525041776
 20
31.807896749749879
 42
-0.38417559862136841
  0
VERTEX
  8
0
 10
67.905976630835667
 20
30.59896090638204
 42
-0.051863282918930054
  0
VERTEX
  8
0
 10
65.530699739666503
 20
24.864535303776215
 42
-0.38417559862136841
  0
VERTEX
  8
0
 10
64.268682115907865
 20
24.416860716119508
 42
-0
  0
VERTEX
  8
0
 10
60.041851619937148
 20
26.167671258574892
 42
0.34488144516944885
  0
VERTEX
  8
0
 10
57.666418738090087
 20
25.506371708571514
 42
-0.075308538973331451
  0
VERTEX
  8
0
 10
52.79494010706668
 20
20.634892393903549
 42
0.34488144516944885
  0
VERTEX
  8
0
 10
52.13364200839905
 20
18.259460855962679
 42
0
  0
VERTEX
  8
0
 10
53.884451179073352
 20
14.032630025902101
 42
-0.38417559862136841
  0
VERTEX
  8
0
 10
53.436777997111193
 20
12.770613019723946
 42
-0.051863282918930054
  0
VERTEX
  8
0
 10
47.702350629772496
 20
10.39533546587915
 42
-0.38417559862136841
  0
VERTEX
  8
0
 10
46.493414617793434
 20
10.971162486240523
 42
-0
  0
VERTEX
  8
0
 10
44.742605447119132
 20
15.197993316301101
 42
0.34488147497177124
  0
VERTEX
  8
0
 10
42.595311578605191
 20
16.410069446810688
 42
-0.075308538973331451
  0
VERTEX
  8
0
 10
35.705999946391472
 20
16.41007000025963
 42
0.34488147497177124
  0
VERTEX
  8
0
 10
33.558707601018824
 20
15.197993989374531
 42
0
  0
VERTEX
  8
0
 10
31.807897058563441
 20
10.971163493403814
 42
-0.38417559862136841
  0
VERTEX
  8
0
 10
30.598961215195601
 20
10.395336387609923
 42
-0.051863271743059158
  0
VERTEX
  8
0
 10
24.864536934210008
 20
12.770612731346056
 42
-0.38417559862136841
  0
VERTEX
  8
0
 10
24.41686102493307
 20
14.032630902537726
 42
-0
  0
VERTEX
  8
0
 10
26.167671567388453
 20
18.259461398508442
 42
0.34488147497177124
  0
VERTEX
  8
0
 10
25.506372017385075
 20
20.634894280355503
 42
-0.075308501720428467
  0
VERTEX
  8
0
 10
20.634893583797265
 20
25.506372546423556
 42
0.34488147497177124
  0
VERTEX
  8
0
 10
18.259461164776241
 20
26.16767101004654
 42
0
  0
VERTEX
  8
0
 10
14.032630334715662
 20
24.416861839372238
 42
-0.38417559862136841
  0
VERTEX
  8
0
 10
12.770613328537507
 20
24.864535021334397
 42
-0.051863253116607666
  0
VERTEX
  8
0
 10
10.395336806942311
 20
30.598959896602075
 42
-0.38417559862136841
  0
VERTEX
  8
0
 10
10.971162795054084
 20
31.807898400652157
 42
-0
  0
VERTEX
  8
0
 10
15.197993625114663
 20
33.558707571326458
 42
0.34488147497177124
  0
SEQEND
  0
POLYLINE
  8
0
 10
0
 20
0
 39
0
 70
1
 66
1
  0
VERTEX
  8
0
 10
45.273591481897398
 20
53.932728422076757
 42
1
  0
VERTEX
  8
0
 10
33.027721845361754
 20
24.368584287555272
 42
1
  0
SEQEND
  0
POLYLINE
  8
0
 10
0
 20
0
 39
0
 70
1
 66
1
  0
VERTEX
  8
0
 10
281.70237744793189
 20
35.706001439840399
 42
-0.07530849426984787
  0
VERTEX
  8
0
 10
281.70237690651481
 20
42.595310428813654
 42
0.34488147497177124
  0
VERTEX
  8
0
 10
280.49030199049577
 20
44.742605417426766
 42
0
  0
VERTEX
  8
0
 10
276.26347149452505
 20
46.493415959882149
 42
-0.38417559862136841
  0
VERTEX
  8
0
 10
275.68764438873114
 20
47.702351803249989
 42
-0.051863282918930054
  0
VERTEX
  8
0
 10
278.06292127990031
 20
53.436777405855814
 42
-0.38417559862136841
  0
VERTEX
  8
0
 10
279.32493890365896
 20
53.884451993512521
 42
-0
  0
VERTEX
  8
0
 10
283.55176939962968
 20
52.133641451057137
 42
0.34488147497177124
  0
VERTEX
  8
0
 10
285.92720228147675
 20
52.794941001060515
 42
-0.075308471918106079
  0
VERTEX
  8
0
 10
290.79867805547377
 20
57.666418402398726
 42
0.34488147497177124
  0
VERTEX
  8
0
 10
291.45997901116777
 20
60.04185185366935
 42
0
  0
VERTEX
  8
0
 10
289.70916984049347
 20
64.268682683729935
 42
-0.38417559862136841
  0
VERTEX
  8
0
 10
290.15684302245563
 20
65.53069968990809
 42
-0.051863282918930054
  0
VERTEX
  8
0
 10
295.89127038979433
 20
67.905977243752886
 42
-0.38417559862136841
  0
VERTEX
  8
0
 10
297.10020640177339
 20
67.330150223391513
 42
-0
  0
VERTEX
  8
0
 10
298.85101557244769
 20
63.103319393330928
 42
0.34488147497177124
  0
VERTEX
  8
0
 10
300.99830944096163
 20
61.891243262821341
 42
-0.075308538973331451
  0
VERTEX
  8
0
 10
307.88762107317535
 20
61.891242709372399
 42
0.34488147497177124
  0
VERTEX
  8
0
 10
310.034913418548
 20
63.103318720257498
 42
0
  0
VERTEX
  8
0
 10
311.78572396100338
 20
67.330149216228222
 42
-0.38417559862136841
  0
VERTEX
  8
0
 10
312.99465980437122
 20
67.905976322022099
 42
-0.051863282918930054
  0
VERTEX
  8
0
 10
318.72908540697705
 20
65.530699430852934
 42
-0.38417559862136841
  0
VERTEX
  8
0
 10
319.17675999463376
 20
64.26868180709431
 42
-0
  0
VERTEX
  8
0
 10
317.42594945217837
 20
60.041851311123587
 42
0.34488147497177124
  0
VERTEX
  8
0
 10
318.08724900218175
 20
57.666418429276526
 42
-0.075308538973331451
  0
VERTEX
  8
0
 10
322.95872831684972
 20
52.794939798253118
 42
0.34488147497177124
  0
VERTEX
  8
0
 10
325.33415985479058
 20
52.133641699585489
 42
0
  0
VERTEX
  8
0
 10
329.56099068485116
 20
53.884450870259791
 42
-0.38417559862136841
  0
VERTEX
  8
0
 10
330.82300769102932
 20
53.436777688297632
 42
-0.051863282918930054
  0
VERTEX
  8
0
 10
333.19828524487411
 20
47.702350320958935
 42
-0.38417559862136841
  0
VERTEX
  8
0
 10
332.62245822451274
 20
46.493414308979872
 42
-0
  0
VERTEX
  8
0
 10
328.39562739445216
 20
44.742605138305571
 42
0.34488147497177124
  0
VERTEX
  8
0
 10
327.1835512639426
 20
42.59531126979163
 42
-0.075308538973331451
  0
VERTEX
  8
0
 10
327.18355071049365
 20
35.705999637577911
 42
0.34488144516944885
  0
VERTEX
  8
0
 10
328.39562672137873
 20
33.558707292205263
 42
0
  0
VERTEX
  8
0
 10
332.62245721734945
 20
31.807896749749879
 42
-0.38417559862136841
  0
VERTEX
  8
0
 10
333.19828432314335
 20
30.59896090638204
 42
-0.051863282918930054
  0
VERTEX
  8
0
 10
330.82300743197419
 20
24.864535303776215
 42
-0.38417559862136841
  0
VERTEX
  8
0
 10
329.56098980821554
 20
24.416860716119508
 42
-0
  0
VERTEX
  8
0
 10
325.33415931224482
 20
26.167671258574892
 42
0.34488144516944885
  0
VERTEX
  8
0
 10
322.95872643039775
 20
25.506371708571514
 42
-0.075308538973331451
  0
VERTEX
  8
0
 10
318.08724779937438
 20
20.634892393903549
 42
0.34488144516944885
  0
VERTEX
  8
0
 10
317.42594970070672
 20
18.259460855962679
 42
0
  0
VERTEX
  8
0
 10
319.17675887138103
 20
14.032630025902101
 42
-0.38417559862136841
  0
VERTEX
  8
0
 10
318.72908568941887
 20
12.770613019723946
 42
-0.051863282918930054
  0
VERTEX
  8
0
 10
312.99465832208017
 20
10.39533546587915
 42
-0.38417559862136841
  0
VERTEX
  8
0
 10
311.78572231010111
 20
10.971162486240523
 42
-0
  0
VERTEX
  8
0
 10
310.03491313942681
 20
15.197993316301101
 42
0.34488147497177124
  0
VERTEX
  8
0
 10
307.88761927091286
 20
16.410069446810688
 42
-0.075308538973331451
  0
VERTEX
  8
0
 10
300.99830763869915
 20
16.41007000025963
 42
0.34488147497177124
  0
VERTEX
  8
0
 10
298.8510152933265
 20
15.197993989374531
 42
0
  0
VERTEX
  8
0
 10
297.10020475087111
 20
10.971163493403814
 42
-0.38417559862136841
  0
VERTEX
  8
0
 10
295.89126890750327
 20
10.395336387609923
 42
-0.051863271743059158
  0
VERTEX
  8
0
 10
290.15684462651768
 20
12.770612731346056
 42
-0.38417559862136841
  0
VERTEX
  8
0
 10
289.70916871724074
 20
14.032630902537726
 42
-0
  0
VERTEX
  8
0
 10
291.45997925969613
 20
18.259461398508442
 42
0.34488147497177124
  0
VERTEX
  8
0
 10
290.79867970969275
 20
20.634894280355503
 42
-0.075308501720428467
  0
VERTEX
  8
0
 10
285.92720127610494
 20
25.506372546423556
 42
0.34488147497177124
  0
VERTEX
  8
0
 10
283.55176885708391
 20
26.16767101004654
 42
0
  0
VERTEX
  8
0
 10
279.32493802702334
 20
24.416861839372238
 42
-0.38417559862136841
  0
VERTEX
  8
0
 10
278.06292102084518
 20
24.864535021334397
 42
-0.051863253116607666
  0
VERTEX
  8
0
 10
275.68764449924998
 20
30.598959896602075
 42
-0.38417559862136841
  0
VERTEX
  8
0
 10
276.26347048736176
 20
31.807898400652157
 42
-0
  0
VERTEX
  8
0
 10
280.49030131742234
 20
33.558707571326458
 42
0.34488147497177124
  0
SEQEND
  0
POLYLINE
  8
0
 10
0
 20
0
 39
0
 70
1
 66
1
  0
VERTEX
  8
0
 10
310.56589917420507
 20
53.932728422076757
 42
1
  0
VERTEX
  8
0
 10
298.32002953766943
 20
24.368584287555272
 42
1
  0
SEQEND
  0
POLYLINE
  8
0
 10
0
 20
0
 39
0
 70
1
 66
1
  0
VERTEX
  8
0
 10
546.99468514023965
 20
35.706001439840399
 42
-0.07530849426984787
  0
VERTEX
  8
0
 10
546.99468459882246
 20
42.595310428813654
 42
0.34488147497177124
  0
VERTEX
  8
0
 10
545.78260968280347
 20
44.742605417426766
 42
0
  0
VERTEX
  8
0
 10
541.55577918683275
 20
46.493415959882149
 42
-0.38417559862136841
  0
VERTEX
  8
0
 10
540.97995208103885
 20
47.702351803249989
 42
-0.051863282918930054
  0
VERTEX
  8
0
 10
543.35522897220801
 20
53.436777405855814
 42
-0.38417559862136841
  0
VERTEX
  8
0
 10
544.61724659596666
 20
53.884451993512521
 42
-0
  0
VERTEX
  8
0
 10
548.84407709193738
 20
52.133641451057137
 42
0.34488147497177124
  0
VERTEX
  8
0
 10
551.2195099737844
 20
52.794941001060515
 42
-0.075308471918106079
  0
VERTEX
  8
0
 10
556.09098574778147
 20
57.666418402398726
 42
0.34488147497177124
  0
VERTEX
  8
0
 10
556.75228670347542
 20
60.04185185366935
 42
0
  0
VERTEX
  8
0
 10
555.00147753280112
 20
64.268682683729935
 42
-0.38417559862136841
  0
VERTEX
  8
0
 10
555.44915071476339
 20
65.53069968990809
 42
-0.051863282918930054
  0
VERTEX
  8
0
 10
561.18357808210203
 20
67.905977243752886
 42
-0.38417559862136841
  0
VERTEX
  8
0
 10
562.39251409408109
 20
67.330150223391513
 42
-0
  0
VERTEX
  8
0
 10
564.1433232647554
 20
63.103319393330928
 42
0.34488147497177124
  0
VERTEX
  8
0
 10
566.29061713326928
 20
61.891243262821341
 42
-0.075308538973331451
  0
VERTEX
  8
0
 10
573.17992876548306
 20
61.891242709372399
 42
0.34488147497177124
  0
VERTEX
  8
0
 10
575.3272211108557
 20
63.103318720257498
 42
0
  0
VERTEX
  8
0
 10
577.07803165331109
 20
67.330149216228222
 42
-0.38417559862136841
  0
VERTEX
  8
0
 10
578.28696749667893
 20
67.905976322022099
 42
-0.051863282918930054
  0
VERTEX
  8
0
 10
584.02139309928475
 20
65.530699430852934
 42
-0.38417559862136841
  0
VERTEX
  8
0
 10
584.46906768694146
 20
64.26868180709431
 42
-0
  0
VERTEX
  8
0
 10
582.71825714448607
 20
60.041851311123587
 42
0.34488147497177124
  0
VERTEX
  8
0
 10
583.37955669448945
 20
57.666418429276526
 42
-0.075308538973331451
  0
VERTEX
  8
0
 10
588.25103600915736
 20
52.794939798253118
 42
0.34488147497177124
  0
VERTEX
  8
0
 10
590.62646754709829
 20
52.133641699585489
 42
0
  0
VERTEX
  8
0
 10
594.85329837715881
 20
53.884450870259791
 42
-0.38417559862136841
  0
VERTEX
  8
0
 10
596.11531538333702
 20
53.436777688297632
 42
-0.051863282918930054
  0
VERTEX
  8
0
 10
598.49059293718187
 20
47.702350320958935
 42
-0.38417559862136841
  0
VERTEX
  8
0
 10
597.91476591682044
 20
46.493414308979872
 42
-0
  0
VERTEX
  8
0
 10
593.68793508675981
 20
44.742605138305571
 42
0.34488147497177124
  0
VERTEX
  8
0
 10
592.47585895625025
 20
42.59531126979163
 42
-0.075308538973331451
  0
VERTEX
  8
0
 10
592.47585840280135
 20
35.705999637577911
 42
0.34488144516944885
  0
VERTEX
  8
0
 10
593.68793441368643
 20
33.558707292205263
 42
0
  0
VERTEX
  8
0
 10
597.91476490965715
 20
31.807896749749879
 42
-0.38417559862136841
  0
VERTEX
  8
0
 10
598.49059201545106
 20
30.59896090638204
 42
-0.051863282918930054
  0
VERTEX
  8
0
 10
596.11531512428189
 20
24.864535303776215
 42
-0.38417559862136841
  0
VERTEX
  8
0
 10
594.85329750052324
 20
24.416860716119508
 42
-0
  0
VERTEX
  8
0
 10
590.62646700455252
 20
26.167671258574892
 42
0.34488144516944885
  0
VERTEX
  8
0
 10
588.25103412270551
 20
25.506371708571514
 42
-0.075308538973331451
  0
VERTEX
  8
0
 10
583.37955549168203
 20
20.634892393903549
 42
0.34488144516944885
  0
VERTEX
  8
0
 10
582.71825739301448
 20
18.259460855962679
 42
0
  0
VERTEX
  8
0
 10
584.46906656368878
 20
14.032630025902101
 42
-0.38417559862136841
  0
VERTEX
  8
0
 10
584.02139338172651
 20
12.770613019723946
 42
-0.051863282918930054
  0
VERTEX
  8
0
 10
578.28696601438787
 20
10.39533546587915
 42
-0.38417559862136841
  0
VERTEX
  8
0
 10
577.07803000240881
 20
10.971162486240523
 42
-0
  0
VERTEX
  8
0
 10
575.32722083173451
 20
15.197993316301101
 42
0.34488147497177124
  0
VERTEX
  8
0
 10
573.17992696322062
 20
16.410069446810688
 42
-0.075308538973331451
  0
VERTEX
  8
0
 10
566.29061533100685
 20
16.41007000025963
 42
0.34488147497177124
  0
VERTEX
  8
0
 10
564.1433229856342
 20
15.197993989374531
 42
0
  0
VERTEX
  8
0
 10
562.39251244317882
 20
10.971163493403814
 42
-0.38417559862136841
  0
VERTEX
  8
0
 10
561.18357659981098
 20
10.395336387609923
 42
-0.051863271743059158
  0
VERTEX
  8
0
 10
555.44915231882533
 20
12.770612731346056
 42
-0.38417559862136841
  0
VERTEX
  8
0
 10
555.00147640954845
 20
14.032630902537726
 42
-0
  0
VERTEX
  8
0
 10
556.75228695200383
 20
18.259461398508442
 42
0.34488147497177124
  0
VERTEX
  8
0
 10
556.09098740200045
 20
20.634894280355503
 42
-0.075308501720428467
  0
VERTEX
  8
0
 10
551.21950896841258
 20
25.506372546423556
 42
0.34488147497177124
  0
VERTEX
  8
0
 10
548.84407654939162
 20
26.16767101004654
 42
0
  0
VERTEX
  8
0
 10
544.61724571933109
 20
24.416861839372238
 42
-0.38417559862136841
  0
VERTEX
  8
0
 10
543.35522871315288
 20
24.864535021334397
 42
-0.051863253116607666
  0
VERTEX
  8
0
 10
540.97995219155769
 20
30.598959896602075
 42
-0.38417559862136841
  0
VERTEX
  8
0
 10
541.55577817966946
 20
31.807898400652157
 42
-0
  0
VERTEX
  8
0
 10
545.78260900973009
 20
33.558707571326458
 42
0.34488147497177124
  0
SEQEND
  0
POLYLINE
  8
0
 10
0
 20
0
 39
0
 70
1
 66
1
  0
VERTEX
  8
0
 10
575.85820686651277
 20
53.932728422076757
 42
1
  0
VERTEX
  8
0
 10
563.61233722997713
 20
24.368584287555272
 42
1
  0
SEQEND
  0
POLYLINE
  8
0
 10
0
 20
0
 39
0
 70
1
 66
1
  0
VERTEX
  8
0
 10
812.2869928325473
 20
35.706001439840399
 42
-0.07530849426984787
  0
VERTEX
  8
0
 10
812.2869922911301
 20
42.595310428813654
 42
0.34488147497177124
  0
VERTEX
  8
0
 10
811.07491737511111
 20
44.742605417426766
 42
0
  0
VERTEX
  8
0
 10
806.8480868791404
 20
46.493415959882149
 42
-0.38417559862136841
  0
VERTEX
  8
0
 10
806.27225977334649
 20
47.702351803249989
 42
-0.051863282918930054
  0
VERTEX
  8
0
 10
808.64753666451566
 20
53.436777405855814
 42
-0.38417559862136841
  0
VERTEX
  8
0
 10
809.90955428827431
 20
53.884451993512521
 42
-0
  0
VERTEX
  8
0
 10
814.13638478424502
 20
52.133641451057137
 42
0.34488147497177124
  0
VERTEX
  8
0
 10
816.51181766609204
 20
52.794941001060515
 42
-0.075308471918106079
  0
VERTEX
  8
0
 10
821.38329344008912
 20
57.666418402398726
 42
0.34488147497177124
  0
VERTEX
  8
0
 10
822.04459439578318
 20
60.04185185366935
 42
0
  0
VERTEX
  8
0
 10
820.29378522510888
 20
64.268682683729935
 42
-0.38417559862136841
  0
VERTEX
  8
0
 10
820.74145840707092
 20
65.53069968990809
 42
-0.051863282918930054
  0
VERTEX
  8
0
 10
826.47588577440968
 20
67.905977243752886
 42
-0.38417559862136841
  0
VERTEX
  8
0
 10
827.68482178638874
 20
67.330150223391513
 42
-0
  0
VERTEX
  8
0
 10
829.43563095706304
 20
63.103319393330928
 42
0.34488147497177124
  0
VERTEX
  8
0
 10
831.58292482557704
 20
61.891243262821341
 42
-0.075308538973331451
  0
VERTEX
  8
0
 10
838.4722364577907
 20
61.891242709372399
 42
0.34488147497177124
  0
VERTEX
  8
0
 10
840.61952880316335
 20
63.103318720257498
 42
0
  0
VERTEX
  8
0
 10
842.37033934561873
 20
67.330149216228222
 42
-0.38417559862136841
  0
VERTEX
  8
0
 10
843.57927518898657
 20
67.905976322022099
 42
-0.051863282918930054
  0
VERTEX
  8
0
 10
849.3137007915924
 20
65.530699430852934
 42
-0.38417559862136841
  0
VERTEX
  8
0
 10
849.7613753792491
 20
64.26868180709431
 42
-0
  0
VERTEX
  8
0
 10
848.01056483679372
 20
60.041851311123587
 42
0.34488147497177124
  0
VERTEX
  8
0
 10
848.6718643867971
 20
57.666418429276526
 42
-0.075308538973331451
  0
VERTEX
  8
0
 10
853.54334370146512
 20
52.794939798253118
 42
0.34488147497177124
  0
VERTEX
  8
0
 10
855.91877523940593
 20
52.133641699585489
 42
0
  0
VERTEX
  8
0
 10
860.14560606946657
 20
53.884450870259791
 42
-0.38417559862136841
  0
VERTEX
  8
0
 10
861.40762307564466
 20
53.436777688297632
 42
-0.051863282918930054
  0
VERTEX
  8
0
 10
863.7829006294894
 20
47.702350320958935
 42
-0.38417559862136841
  0
VERTEX
  8
0
 10
863.20707360912809
 20
46.493414308979872
 42
-0
  0
VERTEX
  8
0
 10
858.98024277906757
 20
44.742605138305571
 42
0.34488147497177124
  0
VERTEX
  8
0
 10
857.76816664855789
 20
42.59531126979163
 42
-0.075308538973331451
  0
VERTEX
  8
0
 10
857.768166095109
 20
35.705999637577911
 42
0.34488144516944885
  0
VERTEX
  8
0
 10
858.98024210599408
 20
33.558707292205263
 42
0
  0
VERTEX
  8
0
 10
863.2070726019648
 20
31.807896749749879
 42
-0.38417559862136841
  0
VERTEX
  8
0
 10
863.7828997077587
 20
30.59896090638204
 42
-0.051863282918930054
  0
VERTEX
  8
0
 10
861.40762281658954
 20
24.864535303776215
 42
-0.38417559862136841
  0
VERTEX
  8
0
 10
860.14560519283089
 20
24.416860716119508
 42
-0
  0
VERTEX
  8
0
 10
855.91877469686017
 20
26.167671258574892
 42
0.34488144516944885
  0
VERTEX
  8
0
 10
853.54334181501315
 20
25.506371708571514
 42
-0.075308538973331451
  0
VERTEX
  8
0
 10
848.67186318398967
 20
20.634892393903549
 42
0.34488144516944885
  0
VERTEX
  8
0
 10
848.01056508532201
 20
18.259460855962679
 42
0
  0
VERTEX
  8
0
 10
849.76137425599632
 20
14.032630025902101
 42
-0.38417559862136841
  0
VERTEX
  8
0
 10
849.31370107403427
 20
12.770613019723946
 42
-0.051863282918930054
  0
VERTEX
  8
0
 10
843.57927370669552
 20
10.39533546587915
 42
-0.38417559862136841
  0
VERTEX
  8
0
 10
842.37033769471645
 20
10.971162486240523
 42
-0
  0
VERTEX
  8
0
 10
840.61952852404215
 20
15.197993316301101
 42
0.34488147497177124
  0
VERTEX
  8
0
 10
838.47223465552815
 20
16.410069446810688
 42
-0.075308538973331451
  0
VERTEX
  8
0
 10
831.58292302331449
 20
16.41007000025963
 42
0.34488147497177124
  0
VERTEX
  8
0
 10
829.43563067794184
 20
15.197993989374531
 42
0
  0
VERTEX
  8
0
 10
827.68482013548646
 20
10.971163493403814
 42
-0.38417559862136841
  0
VERTEX
  8
0
 10
826.47588429211862
 20
10.395336387609923
 42
-0.051863271743059158
  0
VERTEX
  8
0
 10
820.74146001113309
 20
12.770612731346056
 42
-0.38417559862136841
  0
VERTEX
  8
0
 10
820.29378410185609
 20
14.032630902537726
 42
-0
  0
VERTEX
  8
0
 10
822.04459464431147
 20
18.259461398508442
 42
0.34488147497177124
  0
VERTEX
  8
0
 10
821.3832950943081
 20
20.634894280355503
 42
-0.075308501720428467
  0
VERTEX
  8
0
 10
816.51181666072034
 20
25.506372546423556
 42
0.34488147497177124
  0
VERTEX
  8
0
 10
814.13638424169926
 20
26.16767101004654
 42
0
  0
VERTEX
  8
0
 10
809.90955341163863
 20
24.416861839372238
 42
-0.38417559862136841
  0
VERTEX
  8
0
 10
808.64753640546053
 20
24.864535021334397
 42
-0.051863253116607666
  0
VERTEX
  8
0
 10
806.27225988386533
 20
30.598959896602075
 42
-0.38417559862136841
  0
VERTEX
  8
0
 10
806.8480858719771
 20
31.807898400652157
 42
-0
  0
VERTEX
  8
0
 10
811.07491670203763
 20
33.558707571326458
 42
0.34488147497177124
  0
SEQEND
  0
POLYLINE
  8
0
 10
0
 20
0
 39
0
 70
1
 66
1
  0
VERTEX
  8
0
 10
841.15051455882042
 20
53.932728422076757
 42
1
  0
VERTEX
  8
0
 10
828.90464492228477
 20
24.368584287555272
 42
1
  0
SEQEND
  0
POLYLINE
  8
0
 10
0
 20
0
 39
0
 70
1
 66
1
  0
VERTEX
  8
0
 10
884.84083898639346
 20
653.05984759368653
 42
-0.07530849426984787
  0
VERTEX
  8
0
 10
884.84083844497627
 20
659.94915658265973
 42
0.34488147497177124
  0
VERTEX
  8
0
 10
883.62876352895728
 20
662.09645157127284
 42
0
  0
VERTEX
  8
0
 10
879.40193303298656
 20
663.84726211372822
 42
-0.38417559862136841
  0
VERTEX
  8
0
 10
878.82610592719266
 20
665.05619795709606
 42
-0.051863282918930054
  0
VERTEX
  8
0
 10
881.20138281836182
 20
670.79062355970188
 42
-0.38417559862136841
  0
VERTEX
  8
0
 10
882.46340044212047
 20
671.23829814735859
 42
-0
  0
VERTEX
  8
0
 10
886.69023093809119
 20
669.48748760490321
 42
0.34488147497177124
  0
VERTEX
  8
0
 10
889.06566381993821
 20
670.14878715490659
 42
-0.075308471918106079
  0
VERTEX
  8
0
 10
893.93713959393529
 20
675.0202645562448
 42
0.34488147497177124
  0
VERTEX
  8
0
 10
894.59844054962923
 20
677.39569800751542
 42
0
  0
VERTEX
  8
0
 10
892.84763137895493
 20
681.62252883757606
 42
-0.38417559862136841
  0
VERTEX
  8
0
 10
893.2953045609172
 20
682.88454584375415
 42
-0.051863282918930054
  0
VERTEX
  8
0
 10
899.02973192825584
 20
685.25982339759889
 42
-0.38417559862136841
  0
VERTEX
  8
0
 10
900.2386679402349
 20
684.68399637723758
 42
-0
  0
VERTEX
  8
0
 10
901.98947711090921
 20
680.45716554717706
 42
0.34488147497177124
  0
VERTEX
  8
0
 10
904.13677097942309
 20
679.24508941666738
 42
-0.075308538973331451
  0
VERTEX
  8
0
 10
911.02608261163687
 20
679.24508886321848
 42
0.34488147497177124
  0
VERTEX
  8
0
 10
913.17337495700951
 20
680.45716487410357
 42
0
  0
VERTEX
  8
0
 10
914.9241854994649
 20
684.68399537007429
 42
-0.38417559862136841
  0
VERTEX
  8
0
 10
916.13312134283274
 20
685.25982247586819
 42
-0.051863282918930054
  0
VERTEX
  8
0
 10
921.86754694543856
 20
682.88454558469903
 42
-0.38417559862136841
  0
VERTEX
  8
0
 10
922.31522153309527
 20
681.62252796094037
 42
-0
  0
VERTEX
  8
0
 10
920.56441099063989
 20
677.39569746496966
 42
0.34488147497177124
  0
VERTEX
  8
0
 10
921.22571054064326
 20
675.02026458312264
 42
-0.075308538973331451
  0
VERTEX
  8
0
 10
926.09718985531117
 20
670.14878595209916
 42
0.34488147497177124
  0
VERTEX
  8
0
 10
928.4726213932521
 20
669.4874878534315
 42
0
  0
VERTEX
  8
0
 10
932.69945222331262
 20
671.2382970241058
 42
-0.38417559862136841
  0
VERTEX
  8
0
 10
933.96146922949083
 20
670.79062384214376
 42
-0.051863282918930054
  0
VERTEX
  8
0
 10
936.33674678333568
 20
665.05619647480501
 42
-0.38417559862136841
  0
VERTEX
  8
0
 10
935.76091976297425
 20
663.84726046282594
 42
-0
  0
VERTEX
  8
0
 10
931.53408893291362
 20
662.09645129215164
 42
0.34488147497177124
  0
VERTEX
  8
0
 10
930.32201280240406
 20
659.94915742363764
 42
-0.075308538973331451
  0
VERTEX
  8
0
 10
930.32201224895516
 20
653.05984579142398
 42
0.34488144516944885
  0
VERTEX
  8
0
 10
931.53408825984025
 20
650.91255344605133
 42
0
  0
VERTEX
  8
0
 10
935.76091875581096
 20
649.16174290359595
 42
-0.38417559862136841
  0
VERTEX
  8
0
 10
936.33674586160487
 20
647.95280706022811
 42
-0.051863282918930054
  0
VERTEX
  8
0
 10
933.9614689704357
 20
642.21838145762229
 42
-0.38417559862136841
  0
VERTEX
  8
0
 10
932.69945134667705
 20
641.77070686996558
 42
-0
  0
VERTEX
  8
0
 10
928.47262085070633
 20
643.52151741242096
 42
0.34488144516944885
  0
VERTEX
  8
0
 10
926.09718796885932
 20
642.86021786241758
 42
-0.075308538973331451
  0
VERTEX
  8
0
 10
921.22570933783584
 20
637.98873854774956
 42
0.34488144516944885
  0
VERTEX
  8
0
 10
920.56441123916829
 20
635.61330700980875
 42
0
  0
VERTEX
  8
0
 10
922.3152204098426
 20
631.38647617974812
 42
-0.38417559862136841
  0
VERTEX
  8
0
 10
921.86754722788032
 20
630.12445917357002
 42
-0.051863282918930054
  0
VERTEX
  8
0
 10
916.13311986054168
 20
627.74918161972528
 42
-0.38417559862136841
  0
VERTEX
  8
0
 10
914.92418384856262
 20
628.32500864008659
 42
-0
  0
VERTEX
  8
0
 10
913.17337467788832
 20
632.55183947014712
 42
0.34488147497177124
  0
VERTEX
  8
0
 10
911.02608080937443
 20
633.76391560065679
 42
-0.075308538973331451
  0
VERTEX
  8
0
 10
904.13676917716066
 20
633.76391615410569
 42
0.34488147497177124
  0
VERTEX
  8
0
 10
901.98947683178801
 20
632.5518401432206
 42
0
  0
VERTEX
  8
0
 10
900.23866628933263
 20
628.32500964724989
 42
-0.38417559862136841
  0
VERTEX
  8
0
 10
899.02973044596479
 20
627.74918254145598
 42
-0.051863271743059158
  0
VERTEX
  8
0
 10
893.29530616497914
 20
630.1244588851921
 42
-0.38417559862136841
  0
VERTEX
  8
0
 10
892.84763025570226
 20
631.3864770563838
 42
-0
  0
VERTEX
  8
0
 10
894.59844079815764
 20
635.61330755235451
 42
0.34488147497177124
  0
VERTEX
  8
0
 10
893.93714124815426
 20
637.98874043420153
 42
-0.075308501720428467
  0
VERTEX
  8
0
 10
889.06566281456639
 20
642.86021870026957
 42
0.34488147497177124
  0
VERTEX
  8
0
 10
886.69023039554543
 20
643.52151716389267
 42
0
  0
VERTEX
  8
0
 10
882.46339956548491
 20
641.77070799321837
 42
-0.38417559862136841
  0
VERTEX
  8
0
 10
881.20138255930669
 20
642.21838117518041
 42
-0.051863253116607666
  0
VERTEX
  8
0
 10
878.8261060377115
 20
647.95280605044809
 42
-0.38417559862136841
  0
VERTEX
  8
0
 10
879.40193202582327
 20
649.16174455449823
 42
-0
  0
VERTEX
  8
0
 10
883.62876285588391
 20
650.91255372517253
 42
0.34488147497177124
  0
SEQEND
  0
POLYLINE
  8
0
 10
0
 20
0
 39
0
 70
1
 66
1
  0
VERTEX
  8
0
 10
913.70436071266658
 20
671.28657457592283
 42
1
  0
VERTEX
  8
0
 10
901.45849107613094
 20
641.72243044140134
 42
1
  0
SEQEND
  0
POLYLINE
  8
0
 10
0
 20
0
 39
0
 70
1
 66
1
  0
VERTEX
  8
0
 10
1077.5793005248549
 20
35.706001439840399
 42
-0.07530849426984787
  0
VERTEX
  8
0
 10
1077.5792999834377
 20
42.595310428813654
 42
0.34488147497177124
  0
VERTEX
  8
0
 10
1076.3672250674188
 20
44.742605417426766
 42
0
  0
VERTEX
  8
0
 10
1072.140394571448
 20
46.493415959882149
 42
-0.38417559862136841
  0
VERTEX
  8
0
 10
1071.5645674656541
 20
47.702351803249989
 42
-0.051863282918930054
  0
VERTEX
  8
0
 10
1073.9398443568234
 20
53.436777405855814
 42
-0.38417559862136841
  0
VERTEX
  8
0
 10
1075.201861980582
 20
53.884451993512521
 42
-0
  0
VERTEX
  8
0
 10
1079.4286924765527
 20
52.133641451057137
 42
0.34488147497177124
  0
VERTEX
  8
0
 10
1081.8041253583997
 20
52.794941001060515
 42
-0.075308471918106079
  0
VERTEX
  8
0
 10
1086.6756011323969
 20
57.666418402398726
 42
0.34488147497177124
  0
VERTEX
  8
0
 10
1087.3369020880907
 20
60.04185185366935
 42
0
  0
VERTEX
  8
0
 10
1085.5860929174164
 20
64.268682683729935
 42
-0.38417559862136841
  0
VERTEX
  8
0
 10
1086.0337660993787
 20
65.53069968990809
 42
-0.051863282918930054
  0
VERTEX
  8
0
 10
1091.7681934667173
 20
67.905977243752886
 42
-0.38417559862136841
  0
VERTEX
  8
0
 10
1092.9771294786965
 20
67.330150223391513
 42
-0
  0
VERTEX
  8
0
 10
1094.7279386493706
 20
63.103319393330928
 42
0.34488147497177124
  0
VERTEX
  8
0
 10
1096.8752325178846
 20
61.891243262821341
 42
-0.075308538973331451
  0
VERTEX
  8
0
 10
1103.7645441500983
 20
61.891242709372399
 42
0.34488147497177124
  0
VERTEX
  8
0
 10
1105.9118364954711
 20
63.103318720257498
 42
0
  0
VERTEX
  8
0
 10
1107.6626470379265
 20
67.330149216228222
 42
-0.38417559862136841
  0
VERTEX
  8
0
 10
1108.8715828812942
 20
67.905976322022099
 42
-0.051863282918930054
  0
VERTEX
  8
0
 10
1114.6060084839
 20
65.530699430852934
 42
-0.38417559862136841
  0
VERTEX
  8
0
 10
1115.0536830715569
 20
64.26868180709431
 42
-0
  0
VERTEX
  8
0
 10
1113.3028725291015
 20
60.041851311123587
 42
0.34488147497177124
  0
VERTEX
  8
0
 10
1113.9641720791046
 20
57.666418429276526
 42
-0.075308538973331451
  0
VERTEX
  8
0
 10
1118.8356513937727
 20
52.794939798253118
 42
0.34488147497177124
  0
VERTEX
  8
0
 10
1121.2110829317135
 20
52.133641699585489
 42
0
  0
VERTEX
  8
0
 10
1125.4379137617741
 20
53.884450870259791
 42
-0.38417559862136841
  0
VERTEX
  8
0
 10
1126.6999307679523
 20
53.436777688297632
 42
-0.051863282918930054
  0
VERTEX
  8
0
 10
1129.0752083217972
 20
47.702350320958935
 42
-0.38417559862136841
  0
VERTEX
  8
0
 10
1128.4993813014357
 20
46.493414308979872
 42
-0
  0
VERTEX
  8
0
 10
1124.2725504713751
 20
44.742605138305571
 42
0.34488147497177124
  0
VERTEX
  8
0
 10
1123.0604743408655
 20
42.59531126979163
 42
-0.075308538973331451
  0
VERTEX
  8
0
 10
1123.0604737874166
 20
35.705999637577911
 42
0.34488144516944885
  0
VERTEX
  8
0
 10
1124.2725497983017
 20
33.558707292205263
 42
0
  0
VERTEX
  8
0
 10
1128.4993802942724
 20
31.807896749749879
 42
-0.38417559862136841
  0
VERTEX
  8
0
 10
1129.0752074000663
 20
30.59896090638204
 42
-0.051863282918930054
  0
VERTEX
  8
0
 10
1126.6999305088971
 20
24.864535303776215
 42
-0.38417559862136841
  0
VERTEX
  8
0
 10
1125.4379128851385
 20
24.416860716119508
 42
-0
  0
VERTEX
  8
0
 10
1121.2110823891678
 20
26.167671258574892
 42
0.34488144516944885
  0
VERTEX
  8
0
 10
1118.8356495073208
 20
25.506371708571514
 42
-0.075308538973331451
  0
VERTEX
  8
0
 10
1113.9641708762974
 20
20.634892393903549
 42
0.34488144516944885
  0
VERTEX
  8
0
 10
1113.3028727776298
 20
18.259460855962679
 42
0
  0
VERTEX
  8
0
 10
1115.0536819483041
 20
14.032630025902101
 42
-0.38417559862136841
  0
VERTEX
  8
0
 10
1114.6060087663418
 20
12.770613019723946
 42
-0.051863282918930054
  0
VERTEX
  8
0
 10
1108.8715813990032
 20
10.39533546587915
 42
-0.38417559862136841
  0
VERTEX
  8
0
 10
1107.662645387024
 20
10.971162486240523
 42
-0
  0
VERTEX
  8
0
 10
1105.9118362163499
 20
15.197993316301101
 42
0.34488147497177124
  0
VERTEX
  8
0
 10
1103.7645423478359
 20
16.410069446810688
 42
-0.075308538973331451
  0
VERTEX
  8
0
 10
1096.8752307156221
 20
16.41007000025963
 42
0.34488147497177124
  0
VERTEX
  8
0
 10
1094.7279383702494
 20
15.197993989374531
 42
0
  0
VERTEX
  8
0
 10
1092.977127827794
 20
10.971163493403814
 42
-0.38417559862136841
  0
VERTEX
  8
0
 10
1091.7681919844263
 20
10.395336387609923
 42
-0.051863271743059158
  0
VERTEX
  8
0
 10
1086.0337677034406
 20
12.770612731346056
 42
-0.38417559862136841
  0
VERTEX
  8
0
 10
1085.5860917941636
 20
14.032630902537726
 42
-0
  0
VERTEX
  8
0
 10
1087.336902336619
 20
18.259461398508442
 42
0.34488147497177124
  0
VERTEX
  8
0
 10
1086.6756027866159
 20
20.634894280355503
 42
-0.075308501720428467
  0
VERTEX
  8
0
 10
1081.8041243530279
 20
25.506372546423556
 42
0.34488147497177124
  0
VERTEX
  8
0
 10
1079.428691934007
 20
26.16767101004654
 42
0
  0
VERTEX
  8
0
 10
1075.2018611039464
 20
24.416861839372238
 42
-0.38417559862136841
  0
VERTEX
  8
0
 10
1073.9398440977682
 20
24.864535021334397
 42
-0.051863253116607666
  0
VERTEX
  8
0
 10
1071.564567576173
 20
30.598959896602075
 42
-0.38417559862136841
  0
VERTEX
  8
0
 10
1072.1403935642848
 20
31.807898400652157
 42
-0
  0
VERTEX
  8
0
 10
1076.3672243943454
 20
33.558707571326458
 42
0.34488147497177124
  0
SEQEND
  0
POLYLINE
  8
0
 10
0
 20
0
 39
0
 70
1
 66
1
  0
VERTEX
  8
0
 10
1106.4428222511281
 20
53.932728422076757
 42
1
  0
VERTEX
  8
0
 10
1094.1969526145924
 20
24.368584287555272
 42
1
  0
SEQEND
  0
POLYLINE
  8
0
 10
0
 20
0
 39
0
 70
1
 66
1
  0
VERTEX
  8
0
 10
1336.8153846153846
 20
589.92307692307691
 42
-0
  0
VERTEX
  8
0
 10
1336.8153846153846
 20
649.92307692307691
 42
-0
  0
VERTEX
  8
0
 10
1376.8153846153846
 20
649.92307692307691
 42
-0
  0
VERTEX
  8
0
 10
1376.8153846153846
 20
589.92307692307691
 42
-1
  0
SEQEND
  0
POLYLINE
  8
0
 10
0
 20
0
 39
0
 70
1
 66
1
  0
VERTEX
  8
0
 10
1348.8153846153846
 20
589.92307692307691
 42
1
  0
VERTEX
  8
0
 10
1364.8153846153846
 20
589.92307692307691
 42
1
  0
SEQEND
  0
POLYLINE
  8
0
 10
0
 20
0
 39
0
 70
1
 66
1
  0
VERTEX
  8
0
 10
1387.0307692307692
 20
597.12307692307684
 42
-0
  0
VERTEX
  8
0
 10
1387.0307692307692
 20
657.12307692307684
 42
-0
  0
VERTEX
  8
0
 10
1427.0307692307692
 20
657.12307692307684
 42
-0
  0
VERTEX
  8
0
 10
1427.0307692307692
 20
597.12307692307684
 42
-1
  0
SEQEND
  0
POLYLINE
  8
0
 10
0
 20
0
 39
0
 70
1
 66
1
  0
VERTEX
  8
0
 10
1399.0307692307692
 20
597.12307692307684
 42
1
  0
VERTEX
  8
0
 10
1415.0307692307692
 20
597.12307692307684
 42
1
  0
SEQEND
  0
POLYLINE
  8
0
 10
0
 20
0
 39
0
 70
1
 66
1
  0
VERTEX
  8
0
 10
79.953846153846143
 20
142.73846153846154
 42
-0
  0
VERTEX
  8
0
 10
79.953846153846143
 20
178.73846153846154
 42
-0
  0
VERTEX
  8
0
 10
81.636023935904859
 20
178.73846249165013
 42
0.34921517968177795
  0
VERTEX
  8
0
 10
110.27166765653169
 20
178.73846153846154
 42
-0
  0
VERTEX
  8
0
 10
111.95384615384614
 20
178.73846153846154
 42
-0
  0
VERTEX
  8
0
 10
111.95384615384614
 20
142.73846153846154
 42
-0
  0
VERTEX
  8
0
 10
106.95384615384614
 20
137.73846153846154
 42
-0
  0
VERTEX
  8
0
 10
84.953846153846143
 20
137.73846153846154
 42
-0
  0
SEQEND
  0
POLYLINE
  8
0
 10
0
 20
0
 39
0
 70
1
 66
1
  0
VERTEX
  8
0
 10
86.853846249213575
 20
154.73846153846154
 42
1
  0
VERTEX
  8
0
 10
105.05384653531587
 20
154.73846153846154
 42
1
  0
SEQEND
  0
POLYLINE
  8
0
 10
0
 20
0
 39
0
 70
1
 66
1
  0
VERTEX
  8
0
 10
79.953846153846143
 20
452.89230769230767
 42
-0
  0
VERTEX
  8
0
 10
79.953846153846143
 20
488.89230769230767
 42
-0
  0
VERTEX
  8
0
 10
81.636023935904859
 20
488.89230864549626
 42
0.34921517968177795
  0
VERTEX
  8
0
 10
110.27166765653169
 20
488.89230769230767
 42
-0
  0
VERTEX
  8
0
 10
111.95384615384614
 20
488.89230769230767
 42
-0
  0
VERTEX
  8
0
 10
111.95384615384614
 20
452.89230769230767
 42
-0
  0
VERTEX
  8
0
 10
106.95384615384614
 20
447.89230769230767
 42
-0
  0
VERTEX
  8
0
 10
84.953846153846143
 20
447.89230769230767
 42
-0
  0
SEQEND
  0
POLYLINE
  8
0
 10
0
 20
0
 39
0
 70
1
 66
1
  0
VERTEX
  8
0
 10
86.853846249213575
 20
464.89230769230767
 42
1
  0
VERTEX
  8
0
 10
105.05384653531587
 20
464.89230769230767
 42
1
  0
SEQEND
  0
POLYLINE
  8
0
 10
0
 20
0
 39
0
 70
1
 66
1
  0
VERTEX
  8
0
 10
275.64615384615382
 20
547.4153846153846
 42
-0
  0
VERTEX
  8
0
 10
275.64615384615382
 20
583.4153846153846
 42
-0
  0
VERTEX
  8
0
 10
277.32833162821254
 20
583.41538556857324
 42
0.34921517968177795
  0
VERTEX
  8
0
 10
305.96397534883937
 20
583.4153846153846
 42
-0
  0
VERTEX
  8
0
 10
307.64615384615382
 20
583.4153846153846
 42
-0
  0
VERTEX
  8
0
 10
307.64615384615382
 20
547.4153846153846
 42
-0
  0
VERTEX
  8
0
 10
302.64615384615382
 20
542.4153846153846
 42
-0
  0
VERTEX
  8
0
 10
280.64615384615382
 20
542.4153846153846
 42
-0
  0
SEQEND
  0
POLYLINE
  8
0
 10
0
 20
0
 39
0
 70
1
 66
1
  0
VERTEX
  8
0
 10
282.54615394152125
 20
559.4153846153846
 42
1
  0
VERTEX
  8
0
 10
300.74615422762355
 20
559.4153846153846
 42
1
  0
SEQEND
  0
POLYLINE
  8
0
 10
0
 20
0
 39
0
 70
1
 66
1
  0
VERTEX
  8
0
 10
345.24615384615385
 20
142.73846153846154
 42
-0
  0
VERTEX
  8
0
 10
345.24615384615385
 20
178.73846153846154
 42
-0
  0
VERTEX
  8
0
 10
346.92833162821256
 20
178.73846249165013
 42
0.34921517968177795
  0
VERTEX
  8
0
 10
375.56397534883939
 20
178.73846153846154
 42
-0
  0
VERTEX
  8
0
 10
377.24615384615385
 20
178.73846153846154
 42
-0
  0
VERTEX
  8
0
 10
377.24615384615385
 20
142.73846153846154
 42
-0
  0
VERTEX
  8
0
 10
372.24615384615385
 20
137.73846153846154
 42
-0
  0
VERTEX
  8
0
 10
350.24615384615385
 20
137.73846153846154
 42
-0
  0
SEQEND
  0
POLYLINE
  8
0
 10
0
 20
0
 39
0
 70
1
 66
1
  0
VERTEX
  8
0
 10
352.14615394152128
 20
154.73846153846154
 42
1
  0
VERTEX
  8
0
 10
370.34615422762357
 20
154.73846153846154
 42
1
  0
SEQEND
  0
POLYLINE
  8
0
 10
0
 20
0
 39
0
 70
1
 66
1
  0
VERTEX
  8
0
 10
345.24615384615385
 20
452.89230769230767
 42
-0
  0
VERTEX
  8
0
 10
345.24615384615385
 20
488.89230769230767
 42
-0
  0
VERTEX
  8
0
 10
346.92833162821256
 20
488.89230864549626
 42
0.34921517968177795
  0
VERTEX
  8
0
 10
375.56397534883939
 20
488.89230769230767
 42
-0
  0
VERTEX
  8
0
 10
377.24615384615385
 20
488.89230769230767
 42
-0
  0
VERTEX
  8
0
 10
377.24615384615385
 20
452.89230769230767
 42
-0
  0
VERTEX
  8
0
 10
372.24615384615385
 20
447.89230769230767
 42
-0
  0
VERTEX
  8
0
 10
350.24615384615385
 20
447.89230769230767
 42
-0
  0
SEQEND
  0
POLYLINE
  8
0
 10
0
 20
0
 39
0
 70
1
 66
1
  0
VERTEX
  8
0
 10
352.14615394152128
 20
464.89230769230767
 42
1
  0
VERTEX
  8
0
 10
370.34615422762357
 20
464.89230769230767
 42
1
  0
SEQEND
  0
POLYLINE
  8
0
 10
0
 20
0
 39
0
 70
1
 66
1
  0
VERTEX
  8
0
 10
540.93846153846152
 20
547.4153846153846
 42
-0
  0
VERTEX
  8
0
 10
540.93846153846152
 20
583.4153846153846
 42
-0
  0
VERTEX
  8
0
 10
542.62063932052024
 20
583.41538556857324
 42
0.34921517968177795
  0
VERTEX
  8
0
 10
571.25628304114707
 20
583.4153846153846
 42
-0
  0
VERTEX
  8
0
 10
572.93846153846152
 20
583.4153846153846
 42
-0
  0
VERTEX
  8
0
 10
572.93846153846152
 20
547.4153846153846
 42
-0
  0
VERTEX
  8
0
 10
567.93846153846152
 20
542.4153846153846
 42
-0
  0
VERTEX
  8
0
 10
545.93846153846152
 20
542.4153846153846
 42
-0
  0
SEQEND
  0
POLYLINE
  8
0
 10
0
 20
0
 39
0
 70
1
 66
1
  0
VERTEX
  8
0
 10
547.83846163382896
 20
559.4153846153846
 42
1
  0
VERTEX
  8
0
 10
566.03846191993125
 20
559.4153846153846
 42
1
  0
SEQEND
  0
POLYLINE
  8
0
 10
0
 20
0
 39
0
 70
1
 66
1
  0
VERTEX
  8
0
 10
610.53846153846155
 20
142.73846153846154
 42
-0
  0
VERTEX
  8
0
 10
610.53846153846155
 20
178.73846153846154
 42
-0
  0
VERTEX
  8
0
 10
612.22063932052026
 20
178.73846249165013
 42
0.34921517968177795
  0
VERTEX
  8
0
 10
640.85628304114709
 20
178.73846153846154
 42
-0
  0
VERTEX
  8
0
 10
642.53846153846155
 20
178.73846153846154
 42
-0
  0
VERTEX
  8
0
 10
642.53846153846155
 20
142.73846153846154
 42
-0
  0
VERTEX
  8
0
 10
637.53846153846155
 20
137.73846153846154
 42
-0
  0
VERTEX
  8
0
 10
615.53846153846155
 20
137.73846153846154
 42
-0
  0
SEQEND
  0
POLYLINE
  8
0
 10
0
 20
0
 39
0
 70
1
 66
1
  0
VERTEX
  8
0
 10
617.43846163382898
 20
154.73846153846154
 42
1
  0
VERTEX
  8
0
 10
635.63846191993127
 20
154.73846153846154
 42
1
  0
SEQEND
  0
POLYLINE
  8
0
 10
0
 20
0
 39
0
 70
1
 66
1
  0
VERTEX
  8
0
 10
610.53846153846155
 20
452.89230769230767
 42
-0
  0
VERTEX
  8
0
 10
610.53846153846155
 20
488.89230769230767
 42
-0
  0
VERTEX
  8
0
 10
612.22063932052026
 20
488.89230864549626
 42
0.34921517968177795
  0
VERTEX
  8
0
 10
640.85628304114709
 20
488.89230769230767
 42
-0
  0
VERTEX
  8
0
 10
642.53846153846155
 20
488.89230769230767
 42
-0
  0
VERTEX
  8
0
 10
642.53846153846155
 20
452.89230769230767
 42
-0
  0
VERTEX
  8
0
 10
637.53846153846155
 20
447.89230769230767
 42
-0
  0
VERTEX
  8
0
 10
615.53846153846155
 20
447.89230769230767
 42
-0
  0
SEQEND
  0
POLYLINE
  8
0
 10
0
 20
0
 39
0
 70
1
 66
1
  0
VERTEX
  8
0
 10
617.43846163382898
 20
464.89230769230767
 42
1
  0
VERTEX
  8
0
 10
635.63846191993127
 20
464.89230769230767
 42
1
  0
SEQEND
  0
POLYLINE
  8
0
 10
0
 20
0
 39
0
 70
1
 66
1
  0
VERTEX
  8
0
 10
611.64615384615377
 20
618.12307692307684
 42
-0
  0
VERTEX
  8
0
 10
611.64615384615377
 20
654.12307692307684
 42
-0
  0
VERTEX
  8
0
 10
613.32833162821248
 20
654.12307787626548
 42
0.34921517968177795
  0
VERTEX
  8
0
 10
641.96397534883931
 20
654.12307692307684
 42
-0
  0
VERTEX
  8
0
 10
643.64615384615377
 20
654.12307692307684
 42
-0
  0
VERTEX
  8
0
 10
643.64615384615377
 20
618.12307692307684
 42
-0
  0
VERTEX
  8
0
 10
638.64615384615377
 20
613.12307692307684
 42
-0
  0
VERTEX
  8
0
 10
616.64615384615377
 20
613.12307692307684
 42
-0
  0
SEQEND
  0
POLYLINE
  8
0
 10
0
 20
0
 39
0
 70
1
 66
1
  0
VERTEX
  8
0
 10
618.5461539415212
 20
630.12307692307684
 42
1
  0
VERTEX
  8
0
 10
636.74615422762349
 20
630.12307692307684
 42
1
  0
SEQEND
  0
POLYLINE
  8
0
 10
0
 20
0
 39
0
 70
1
 66
1
  0
VERTEX
  8
0
 10
806.23076923076917
 20
547.4153846153846
 42
-0
  0
VERTEX
  8
0
 10
806.23076923076917
 20
583.4153846153846
 42
-0
  0
VERTEX
  8
0
 10
807.91294701282789
 20
583.41538556857324
 42
0.34921517968177795
  0
VERTEX
  8
0
 10
836.54859073345472
 20
583.4153846153846
 42
-0
  0
VERTEX
  8
0
 10
838.23076923076917
 20
583.4153846153846
 42
-0
  0
VERTEX
  8
0
 10
838.23076923076917
 20
547.4153846153846
 42
-0
  0
VERTEX
  8
0
 10
833.23076923076917
 20
542.4153846153846
 42
-0
  0
VERTEX
  8
0
 10
811.23076923076917
 20
542.4153846153846
 42
-0
  0
SEQEND
  0
POLYLINE
  8
0
 10
0
 20
0
 39
0
 70
1
 66
1
  0
VERTEX
  8
0
 10
813.1307693261366
 20
559.4153846153846
 42
1
  0
VERTEX
  8
0
 10
831.3307696122389
 20
559.4153846153846
 42
1
  0
SEQEND
  0
POLYLINE
  8
0
 10
0
 20
0
 39
0
 70
1
 66
1
  0
VERTEX
  8
0
 10
875.83076923076919
 20
142.73846153846154
 42
-0
  0
VERTEX
  8
0
 10
875.83076923076919
 20
178.73846153846154
 42
-0
  0
VERTEX
  8
0
 10
877.51294701282791
 20
178.73846249165013
 42
0.34921517968177795
  0
VERTEX
  8
0
 10
906.14859073345474
 20
178.73846153846154
 42
-0
  0
VERTEX
  8
0
 10
907.83076923076919
 20
178.73846153846154
 42
-0
  0
VERTEX
  8
0
 10
907.83076923076919
 20
142.73846153846154
 42
-0
  0
VERTEX
  8
0
 10
902.83076923076919
 20
137.73846153846154
 42
-0
  0
VERTEX
  8
0
 10
880.83076923076919
 20
137.73846153846154
 42
-0
  0
SEQEND
  0
POLYLINE
  8
0
 10
0
 20
0
 39
0
 70
1
 66
1
  0
VERTEX
  8
0
 10
882.73076932613662
 20
154.73846153846154
 42
1
  0
VERTEX
  8
0
 10
900.93076961223892
 20
154.73846153846154
 42
1
  0
SEQEND
  0
POLYLINE
  8
0
 10
0
 20
0
 39
0
 70
1
 66
1
  0
VERTEX
  8
0
 10
875.83076923076919
 20
452.89230769230767
 42
-0
  0
VERTEX
  8
0
 10
875.83076923076919
 20
488.89230769230767
 42
-0
  0
VERTEX
  8
0
 10
877.51294701282791
 20
488.89230864549626
 42
0.34921517968177795
  0
VERTEX
  8
0
 10
906.14859073345474
 20
488.89230769230767
 42
-0
  0
VERTEX
  8
0
 10
907.83076923076919
 20
488.89230769230767
 42
-0
  0
VERTEX
  8
0
 10
907.83076923076919
 20
452.89230769230767
 42
-0
  0
VERTEX
  8
0
 10
902.83076923076919
 20
447.89230769230767
 42
-0
  0
VERTEX
  8
0
 10
880.83076923076919
 20
447.89230769230767
 42
-0
  0
SEQEND
  0
POLYLINE
  8
0
 10
0
 20
0
 39
0
 70
1
 66
1
  0
VERTEX
  8
0
 10
882.73076932613662
 20
464.89230769230767
 42
1
  0
VERTEX
  8
0
 10
900.93076961223892
 20
464.89230769230767
 42
1
  0
SEQEND
  0
POLYLINE
  8
0
 10
0
 20
0
 39
0
 70
1
 66
1
  0
VERTEX
  8
0
 10
1108.4615384615383
 20
659.52307692307693
 42
-0
  0
VERTEX
  8
0
 10
1144.4615384615383
 20
659.52307692307693
 42
-0
  0
VERTEX
  8
0
 10
1144.461539414727
 20
657.84089914101821
 42
0.34921517968177795
  0
VERTEX
  8
0
 10
1144.4615384615383
 20
629.20525542039138
 42
-0
  0
VERTEX
  8
0
 10
1144.4615384615383
 20
627.52307692307693
 42
-0
  0
VERTEX
  8
0
 10
1108.4615384615383
 20
627.52307692307693
 42
-0
  0
VERTEX
  8
0
 10
1103.4615384615383
 20
632.52307692307693
 42
-0
  0
VERTEX
  8
0
 10
1103.4615384615383
 20
654.52307692307693
 42
-0
  0
SEQEND
  0
POLYLINE
  8
0
 10
0
 20
0
 39
0
 70
1
 66
1
  0
VERTEX
  8
0
 10
1120.4615384615383
 20
652.6230768277095
 42
1
  0
VERTEX
  8
0
 10
1120.4615384615383
 20
634.4230765416072
 42
1
  0
SEQEND
  0
POLYLINE
  8
0
 10
0
 20
0
 39
0
 70
1
 66
1
  0
VERTEX
  8
0
 10
1141.123076923077
 20
142.73846153846154
 42
-0
  0
VERTEX
  8
0
 10
1141.123076923077
 20
178.73846153846154
 42
-0
  0
VERTEX
  8
0
 10
1142.8052547051357
 20
178.73846249165013
 42
0.34921517968177795
  0
VERTEX
  8
0
 10
1171.4408984257625
 20
178.73846153846154
 42
-0
  0
VERTEX
  8
0
 10
1173.123076923077
 20
178.73846153846154
 42
-0
  0
VERTEX
  8
0
 10
1173.123076923077
 20
142.73846153846154
 42
-0
  0
VERTEX
  8
0
 10
1168.123076923077
 20
137.73846153846154
 42
-0
  0
VERTEX
  8
0
 10
1146.123076923077
 20
137.73846153846154
 42
-0
  0
SEQEND
  0
POLYLINE
  8
0
 10
0
 20
0
 39
0
 70
1
 66
1
  0
VERTEX
  8
0
 10
1148.0230770184444
 20
154.73846153846154
 42
1
  0
VERTEX
  8
0
 10
1166.2230773045467
 20
154.73846153846154
 42
1
  0
SEQEND
  0
POLYLINE
  8
0
 10
0
 20
0
 39
0
 70
1
 66
1
  0
VERTEX
  8
0
 10
1141.123076923077
 20
452.89230769230767
 42
-0
  0
VERTEX
  8
0
 10
1141.123076923077
 20
488.89230769230767
 42
-0
  0
VERTEX
  8
0
 10
1142.8052547051357
 20
488.89230864549626
 42
0.34921517968177795
  0
VERTEX
  8
0
 10
1171.4408984257625
 20
488.89230769230767
 42
-0
  0
VERTEX
  8
0
 10
1173.123076923077
 20
488.89230769230767
 42
-0
  0
VERTEX
  8
0
 10
1173.123076923077
 20
452.89230769230767
 42
-0
  0
VERTEX
  8
0
 10
1168.123076923077
 20
447.89230769230767
 42
-0
  0
VERTEX
  8
0
 10
1146.123076923077
 20
447.89230769230767
 42
-0
  0
SEQEND
  0
POLYLINE
  8
0
 10
0
 20
0
 39
0
 70
1
 66
1
  0
VERTEX
  8
0
 10
1148.0230770184444
 20
464.89230769230767
 42
1
  0
VERTEX
  8
0
 10
1166.2230773045467
 20
464.89230769230767
 42
1
  0
SEQEND
  0
POLYLINE
  8
0
 10
0
 20
0
 39
0
 70
1
 66
1
  0
VERTEX
  8
0
 10
2339.8923076923074
 20
701.5538471070347
 42
-0
  0
VERTEX
  8
0
 10
2339.8923076923074
 20
665.5538471070347
 42
-0
  0
VERTEX
  8
0
 10
2338.2101299102487
 20
665.55384615384605
 42
0.34921517968177795
  0
VERTEX
  8
0
 10
2309.5744861896219
 20
665.5538471070347
 42
-0
  0
VERTEX
  8
0
 10
2307.8923076923074
 20
665.5538471070347
 42
-0
  0
VERTEX
  8
0
 10
2307.8923076923074
 20
701.5538471070347
 42
-0
  0
VERTEX
  8
0
 10
2312.8923076923074
 20
706.5538471070347
 42
-0
  0
VERTEX
  8
0
 10
2334.8923076923074
 20
706.5538471070347
 42
-0
  0
SEQEND
  0
POLYLINE
  8
0
 10
0
 20
0
 39
0
 70
1
 66
1
  0
VERTEX
  8
0
 10
2332.99230759694
 20
689.5538471070347
 42
1
  0
VERTEX
  8
0
 10
2314.7923073108377
 20
689.5538471070347
 42
1
  0
SEQEND
  0
POLYLINE
  8
0
 10
0
 20
0
 39
0
 70
1
 66
1
  0
VERTEX
  8
0
 10
2350.1692307692306
 20
644.15384615384608
 42
-0
  0
VERTEX
  8
0
 10
2350.1692307692306
 20
680.15384615384608
 42
-0
  0
VERTEX
  8
0
 10
2351.8514085512893
 20
680.15384710703472
 42
0.34921517968177795
  0
VERTEX
  8
0
 10
2380.4870522719161
 20
680.15384615384608
 42
-0
  0
VERTEX
  8
0
 10
2382.1692307692306
 20
680.15384615384608
 42
-0
  0
VERTEX
  8
0
 10
2382.1692307692306
 20
644.15384615384608
 42
-0
  0
VERTEX
  8
0
 10
2377.1692307692306
 20
639.15384615384608
 42
-0
  0
VERTEX
  8
0
 10
2355.1692307692306
 20
639.15384615384608
 42
-0
  0
SEQEND
  0
POLYLINE
  8
0
 10
0
 20
0
 39
0
 70
1
 66
1
  0
VERTEX
  8
0
 10
2357.069230864598
 20
656.15384615384608
 42
1
  0
VERTEX
  8
0
 10
2375.2692311507003
 20
656.15384615384608
 42
1
  0
SEQEND
  0
ENDSEC
  0
EOF
