  0
SECTION
  2
ENTITIES
  0
POLYLINE
  8
0
 10
0
 20
0
 39
0
 70
1
 66
1
  0
VERTEX
  8
0
 10
0
 20
0
 42
-0
  0
VERTEX
  8
0
 10
1700
 20
0
 42
-0
  0
VERTEX
  8
0
 10
1700
 20
900
 42
-0
  0
VERTEX
  8
0
 10
0
 20
900
 42
-0
  0
SEQEND
  0
POLYLINE
  8
0
 10
0
 20
0
 39
0
 70
1
 66
1
  0
VERTEX
  8
0
 10
175.95071226766456
 20
340.22919269919521
 42
-1
  0
VERTEX
  8
0
 10
174.51082025596995
 20
10.232339824439322
 42
-1
  0
SEQEND
  0
POLYLINE
  8
0
 10
0
 20
0
 39
0
 70
1
 66
1
  0
VERTEX
  8
0
 10
175.77617990261066
 20
300.22957416892177
 42
1
  0
VERTEX
  8
0
 10
174.68535262102384
 20
50.231958354712759
 42
1
  0
SEQEND
  0
POLYLINE
  8
0
 10
0
 20
0
 39
0
 70
1
 66
1
  0
VERTEX
  8
0
 10
175.95071226766456
 20
680.22919269919521
 42
-1
  0
VERTEX
  8
0
 10
174.51082025596995
 20
350.23233982443935
 42
-1
  0
SEQEND
  0
POLYLINE
  8
0
 10
0
 20
0
 39
0
 70
1
 66
1
  0
VERTEX
  8
0
 10
175.77617990261066
 20
640.22957416892177
 42
1
  0
VERTEX
  8
0
 10
174.68535262102384
 20
390.23195835471279
 42
1
  0
SEQEND
  0
POLYLINE
  8
0
 10
0
 20
0
 39
0
 70
1
 66
1
  0
VERTEX
  8
0
 10
444.15840457535683
 20
889.85226962227205
 42
-1
  0
VERTEX
  8
0
 10
442.71851256366222
 20
559.85541674751619
 42
-1
  0
SEQEND
  0
POLYLINE
  8
0
 10
0
 20
0
 39
0
 70
1
 66
1
  0
VERTEX
  8
0
 10
443.98387221030293
 20
849.85265109199861
 42
1
  0
VERTEX
  8
0
 10
442.89304492871611
 20
599.85503527778963
 42
1
  0
SEQEND
  0
POLYLINE
  8
0
 10
0
 20
0
 39
0
 70
1
 66
1
  0
VERTEX
  8
0
 10
628.39999999999998
 20
202.59230769230768
 42
-0
  0
VERTEX
  8
0
 10
348.39999999999998
 20
202.59230769230768
 42
-0
  0
VERTEX
  8
0
 10
348.39999999999998
 20
487.59230769230771
 42
-0
  0
VERTEX
  8
0
 10
628.39999999999998
 20
487.59230769230771
 42
-0
  0
SEQEND
  0
POLYLINE
  8
0
 10
0
 20
0
 39
0
 70
1
 66
1
  0
VERTEX
  8
0
 10
577.39999999999998
 20
439.09230769230771
 42
-0
  0
VERTEX
  8
0
 10
399.39999999999998
 20
439.09230769230771
 42
-0
  0
VERTEX
  8
0
 10
399.39999999999998
 20
251.09230769230768
 42
0
  0
VERTEX
  8
0
 10
577.39999999999998
 20
251.09230769230768
 42
0
  0
SEQEND
  0
POLYLINE
  8
0
 10
0
 20
0
 39
0
 70
1
 66
1
  0
VERTEX
  8
0
 10
898.56923076923078
 20
497.60769230769228
 42
-0
  0
VERTEX
  8
0
 10
618.56923076923078
 20
497.60769230769228
 42
-0
  0
VERTEX
  8
0
 10
618.56923076923078
 20
782.60769230769233
 42
-0
  0
VERTEX
  8
0
 10
898.56923076923078
 20
782.60769230769233
 42
-0
  0
SEQEND
  0
POLYLINE
  8
0
 10
0
 20
0
 39
0
 70
1
 66
1
  0
VERTEX
  8
0
 10
847.56923076923078
 20
734.10769230769233
 42
-0
  0
VERTEX
  8
0
 10
669.56923076923078
 20
734.10769230769233
 42
-0
  0
VERTEX
  8
0
 10
669.56923076923078
 20
546.10769230769233
 42
0
  0
VERTEX
  8
0
 10
847.56923076923078
 20
546.10769230769233
 42
0
  0
SEQEND
  0
POLYLINE
  8
0
 10
0
 20
0
 39
0
 70
1
 66
1
  0
VERTEX
  8
0
 10
918.57692307692309
 20
10.23076923076923
 42
-0
  0
VERTEX
  8
0
 10
638.57692307692309
 20
10.23076923076923
 42
-0
  0
VERTEX
  8
0
 10
638.57692307692309
 20
295.23076923076923
 42
-0
  0
VERTEX
  8
0
 10
918.57692307692309
 20
295.23076923076923
 42
-0
  0
SEQEND
  0
POLYLINE
  8
0
 10
0
 20
0
 39
0
 70
1
 66
1
  0
VERTEX
  8
0
 10
867.57692307692309
 20
246.73076923076923
 42
-0
  0
VERTEX
  8
0
 10
689.57692307692309
 20
246.73076923076923
 42
-0
  0
VERTEX
  8
0
 10
689.57692307692309
 20
58.730769230769226
 42
0
  0
VERTEX
  8
0
 10
867.57692307692309
 20
58.730769230769226
 42
0
  0
SEQEND
  0
POLYLINE
  8
0
 10
0
 20
0
 39
0
 70
1
 66
1
  0
VERTEX
  8
0
 10
1188.7461538461539
 20
305.24615384615385
 42
-0
  0
VERTEX
  8
0
 10
908.7461538461539
 20
305.24615384615385
 42
-0
  0
VERTEX
  8
0
 10
908.7461538461539
 20
590.2461538461539
 42
-0
  0
VERTEX
  8
0
 10
1188.7461538461539
 20
590.2461538461539
 42
-0
  0
SEQEND
  0
POLYLINE
  8
0
 10
0
 20
0
 39
0
 70
1
 66
1
  0
VERTEX
  8
0
 10
1137.7461538461539
 20
541.7461538461539
 42
-0
  0
VERTEX
  8
0
 10
959.7461538461539
 20
541.7461538461539
 42
-0
  0
VERTEX
  8
0
 10
959.7461538461539
 20
353.74615384615385
 42
0
  0
VERTEX
  8
0
 10
1137.7461538461539
 20
353.74615384615385
 42
0
  0
SEQEND
  0
POLYLINE
  8
0
 10
0
 20
0
 39
0
 70
1
 66
1
  0
VERTEX
  8
0
 10
1188.7461538461539
 20
600.26153846153841
 42
-0
  0
VERTEX
  8
0
 10
908.7461538461539
 20
600.26153846153841
 42
-0
  0
VERTEX
  8
0
 10
908.7461538461539
 20
885.26153846153841
 42
-0
  0
VERTEX
  8
0
 10
1188.7461538461539
 20
885.26153846153841
 42
-0
  0
SEQEND
  0
POLYLINE
  8
0
 10
0
 20
0
 39
0
 70
1
 66
1
  0
VERTEX
  8
0
 10
1137.7461538461539
 20
836.76153846153841
 42
-0
  0
VERTEX
  8
0
 10
959.7461538461539
 20
836.76153846153841
 42
-0
  0
VERTEX
  8
0
 10
959.7461538461539
 20
648.76153846153841
 42
0
  0
VERTEX
  8
0
 10
1137.7461538461539
 20
648.76153846153841
 42
0
  0
SEQEND
  0
POLYLINE
  8
0
 10
0
 20
0
 39
0
 70
1
 66
1
  0
VERTEX
  8
0
 10
1208.7538461538461
 20
10.23076923076923
 42
-0
  0
VERTEX
  8
0
 10
928.7538461538461
 20
10.23076923076923
 42
-0
  0
VERTEX
  8
0
 10
928.7538461538461
 20
295.23076923076923
 42
-0
  0
VERTEX
  8
0
 10
1208.7538461538461
 20
295.23076923076923
 42
-0
  0
SEQEND
  0
POLYLINE
  8
0
 10
0
 20
0
 39
0
 70
1
 66
1
  0
VERTEX
  8
0
 10
1157.7538461538461
 20
246.73076923076923
 42
-0
  0
VERTEX
  8
0
 10
979.7538461538461
 20
246.73076923076923
 42
-0
  0
VERTEX
  8
0
 10
979.7538461538461
 20
58.730769230769226
 42
0
  0
VERTEX
  8
0
 10
1157.7538461538461
 20
58.730769230769226
 42
0
  0
SEQEND
  0
POLYLINE
  8
0
 10
0
 20
0
 39
0
 70
1
 66
1
  0
VERTEX
  8
0
 10
1393.9230769230769
 20
585.2461538461539
 42
-0
  0
VERTEX
  8
0
 10
1393.9230769230769
 20
305.24615384615385
 42
-0
  0
VERTEX
  8
0
 10
1198.9230769230769
 20
305.24615384615385
 42
-0
  0
VERTEX
  8
0
 10
1198.9230769230769
 20
585.2461538461539
 42
-0
  0
SEQEND
  0
POLYLINE
  8
0
 10
0
 20
0
 39
0
 70
1
 66
1
  0
VERTEX
  8
0
 10
1298.9230769230769
 20
482.34615994966947
 42
1
  0
VERTEX
  8
0
 10
1298.9230769230769
 20
544.44615079439609
 42
1
  0
SEQEND
  0
POLYLINE
  8
0
 10
0
 20
0
 39
0
 70
1
 66
1
  0
VERTEX
  8
0
 10
1298.9230769230769
 20
350.1961546090933
 42
1
  0
VERTEX
  8
0
 10
1298.9230769230769
 20
440.29615689791166
 42
1
  0
SEQEND
  0
POLYLINE
  8
0
 10
0
 20
0
 39
0
 70
1
 66
1
  0
VERTEX
  8
0
 10
1393.9230769230769
 20
875.29230769230765
 42
-0
  0
VERTEX
  8
0
 10
1393.9230769230769
 20
595.29230769230765
 42
-0
  0
VERTEX
  8
0
 10
1198.9230769230769
 20
595.29230769230765
 42
-0
  0
VERTEX
  8
0
 10
1198.9230769230769
 20
875.29230769230765
 42
-0
  0
SEQEND
  0
POLYLINE
  8
0
 10
0
 20
0
 39
0
 70
1
 66
1
  0
VERTEX
  8
0
 10
1298.9230769230769
 20
772.39231379582327
 42
1
  0
VERTEX
  8
0
 10
1298.9230769230769
 20
834.49230464054983
 42
1
  0
SEQEND
  0
POLYLINE
  8
0
 10
0
 20
0
 39
0
 70
1
 66
1
  0
VERTEX
  8
0
 10
1298.9230769230769
 20
640.2423084552471
 42
1
  0
VERTEX
  8
0
 10
1298.9230769230769
 20
730.34231074406546
 42
1
  0
SEQEND
  0
POLYLINE
  8
0
 10
0
 20
0
 39
0
 70
1
 66
1
  0
VERTEX
  8
0
 10
1413.9307692307691
 20
290.23076923076923
 42
-0
  0
VERTEX
  8
0
 10
1413.9307692307691
 20
10.230769230769242
 42
-0
  0
VERTEX
  8
0
 10
1218.9307692307691
 20
10.23076923076923
 42
-0
  0
VERTEX
  8
0
 10
1218.9307692307691
 20
290.23076923076923
 42
-0
  0
SEQEND
  0
POLYLINE
  8
0
 10
0
 20
0
 39
0
 70
1
 66
1
  0
VERTEX
  8
0
 10
1318.9307692307691
 20
187.33077533428485
 42
1
  0
VERTEX
  8
0
 10
1318.9307692307691
 20
249.43076617901141
 42
1
  0
SEQEND
  0
POLYLINE
  8
0
 10
0
 20
0
 39
0
 70
1
 66
1
  0
VERTEX
  8
0
 10
1318.9307692307691
 20
55.180769993708694
 42
1
  0
VERTEX
  8
0
 10
1318.9307692307691
 20
145.28077228252704
 42
1
  0
SEQEND
  0
POLYLINE
  8
0
 10
0
 20
0
 39
0
 70
1
 66
1
  0
VERTEX
  8
0
 10
1598.9692307692308
 20
580.27692307692314
 42
-0
  0
VERTEX
  8
0
 10
1598.9692307692308
 20
300.27692307692308
 42
-0
  0
VERTEX
  8
0
 10
1403.9692307692308
 20
300.27692307692308
 42
-0
  0
VERTEX
  8
0
 10
1403.9692307692308
 20
580.27692307692314
 42
-0
  0
SEQEND
  0
POLYLINE
  8
0
 10
0
 20
0
 39
0
 70
1
 66
1
  0
VERTEX
  8
0
 10
1503.9692307692308
 20
477.37692918043871
 42
1
  0
VERTEX
  8
0
 10
1503.9692307692308
 20
539.47692002516533
 42
1
  0
SEQEND
  0
POLYLINE
  8
0
 10
0
 20
0
 39
0
 70
1
 66
1
  0
VERTEX
  8
0
 10
1503.9692307692308
 20
345.22692383986254
 42
1
  0
VERTEX
  8
0
 10
1503.9692307692308
 20
435.3269261286809
 42
1
  0
SEQEND
  0
POLYLINE
  8
0
 10
0
 20
0
 39
0
 70
1
 66
1
  0
VERTEX
  8
0
 10
1598.9692307692308
 20
870.32307692307688
 42
-0
  0
VERTEX
  8
0
 10
1598.9692307692308
 20
590.32307692307688
 42
-0
  0
VERTEX
  8
0
 10
1403.9692307692308
 20
590.32307692307688
 42
-0
  0
VERTEX
  8
0
 10
1403.9692307692308
 20
870.32307692307688
 42
-0
  0
SEQEND
  0
POLYLINE
  8
0
 10
0
 20
0
 39
0
 70
1
 66
1
  0
VERTEX
  8
0
 10
1503.9692307692308
 20
767.42308302659251
 42
1
  0
VERTEX
  8
0
 10
1503.9692307692308
 20
829.52307387131907
 42
1
  0
SEQEND
  0
POLYLINE
  8
0
 10
0
 20
0
 39
0
 70
1
 66
1
  0
VERTEX
  8
0
 10
1503.9692307692308
 20
635.27307768601634
 42
1
  0
VERTEX
  8
0
 10
1503.9692307692308
 20
725.3730799748347
 42
1
  0
SEQEND
  0
POLYLINE
  8
0
 10
0
 20
0
 39
0
 70
1
 66
1
  0
VERTEX
  8
0
 10
1618.976923076923
 20
290.23076923076923
 42
-0
  0
VERTEX
  8
0
 10
1618.976923076923
 20
10.230769230769242
 42
-0
  0
VERTEX
  8
0
 10
1423.976923076923
 20
10.23076923076923
 42
-0
  0
VERTEX
  8
0
 10
1423.976923076923
 20
290.23076923076923
 42
-0
  0
SEQEND
  0
POLYLINE
  8
0
 10
0
 20
0
 39
0
 70
1
 66
1
  0
VERTEX
  8
0
 10
1523.976923076923
 20
187.33077533428485
 42
1
  0
VERTEX
  8
0
 10
1523.976923076923
 20
249.43076617901141
 42
1
  0
SEQEND
  0
POLYLINE
  8
0
 10
0
 20
0
 39
0
 70
1
 66
1
  0
VERTEX
  8
0
 10
1523.976923076923
 20
55.180769993708694
 42
1
  0
VERTEX
  8
0
 10
1523.976923076923
 20
145.28077228252704
 42
1
  0
SEQEND
  0
POLYLINE
  8
0
 10
0
 20
0
 39
0
 70
1
 66
1
  0
VERTEX
  8
0
 10
385.90769230769229
 20
130.23076923076925
 42
-0
  0
VERTEX
  8
0
 10
585.90769230769229
 20
130.23076923076928
 42
-0
  0
VERTEX
  8
0
 10
615.90769230769229
 20
100.23076923076928
 42
-0
  0
VERTEX
  8
0
 10
615.90769230769229
 20
40.230769230769283
 42
-0
  0
VERTEX
  8
0
 10
585.90769230769229
 20
10.230769230769283
 42
-0
  0
VERTEX
  8
0
 10
385.90769230769229
 20
10.230769230769241
 42
-1
  0
SEQEND
  0
POLYLINE
  8
0
 10
0
 20
0
 39
0
 70
1
 66
1
  0
VERTEX
  8
0
 10
545.90769230769229
 20
85.480769230769269
 42
1
  0
VERTEX
  8
0
 10
545.90769230769229
 20
54.980769230769269
 42
1
  0
SEQEND
  0
POLYLINE
  8
0
 10
0
 20
0
 39
0
 70
1
 66
1
  0
VERTEX
  8
0
 10
385.90769230769229
 20
89.480769230769241
 42
1
  0
VERTEX
  8
0
 10
385.90769230769229
 20
50.980769230769241
 42
1
  0
SEQEND
  0
POLYLINE
  8
0
 10
0
 20
0
 39
0
 70
1
 66
1
  0
VERTEX
  8
0
 10
100.62346539302025
 20
859.89914003399497
 42
-1
  0
VERTEX
  8
0
 10
99.838069750277739
 20
679.9008566477645
 42
-1
  0
SEQEND
  0
POLYLINE
  8
0
 10
0
 20
0
 39
0
 70
1
 66
1
  0
VERTEX
  8
0
 10
100.29621720854421
 20
784.89985528973227
 42
1
  0
VERTEX
  8
0
 10
100.16531793475379
 20
754.90014139202719
 42
1
  0
SEQEND
  0
POLYLINE
  8
0
 10
0
 20
0
 39
0
 70
1
 66
1
  0
VERTEX
  8
0
 10
240.57606311091808
 20
174.63806975027774
 42
-1
  0
VERTEX
  8
0
 10
60.577779724687616
 20
175.42346539302025
 42
-1
  0
SEQEND
  0
POLYLINE
  8
0
 10
0
 20
0
 39
0
 70
1
 66
1
  0
VERTEX
  8
0
 10
165.57677836665539
 20
174.96531793475378
 42
1
  0
VERTEX
  8
0
 10
135.57706446895031
 20
175.0962172085442
 42
1
  0
SEQEND
  0
POLYLINE
  8
0
 10
0
 20
0
 39
0
 70
1
 66
1
  0
VERTEX
  8
0
 10
240.57606311091808
 20
514.63806975027774
 42
-1
  0
VERTEX
  8
0
 10
60.577779724687616
 20
515.42346539302025
 42
-1
  0
SEQEND
  0
POLYLINE
  8
0
 10
0
 20
0
 39
0
 70
1
 66
1
  0
VERTEX
  8
0
 10
165.57677836665539
 20
514.96531793475378
 42
1
  0
VERTEX
  8
0
 10
135.57706446895031
 20
515.0962172085442
 42
1
  0
SEQEND
  0
POLYLINE
  8
0
 10
0
 20
0
 39
0
 70
1
 66
1
  0
VERTEX
  8
0
 10
508.78375541861038
 20
724.26114667335457
 42
-1
  0
VERTEX
  8
0
 10
328.78547203237991
 20
725.04654231609709
 42
-1
  0
SEQEND
  0
POLYLINE
  8
0
 10
0
 20
0
 39
0
 70
1
 66
1
  0
VERTEX
  8
0
 10
433.78447067434769
 20
724.58839485783062
 42
1
  0
VERTEX
  8
0
 10
403.78475677664261
 20
724.71929413162104
 42
1
  0
SEQEND
  0
POLYLINE
  8
0
 10
0
 20
0
 39
0
 70
1
 66
1
  0
VERTEX
  8
0
 10
728.96961923917411
 20
485.24529388014884
 42
-1
  0
VERTEX
  8
0
 10
728.18422359643159
 20
305.24701049391837
 42
-1
  0
SEQEND
  0
POLYLINE
  8
0
 10
0
 20
0
 39
0
 70
1
 66
1
  0
VERTEX
  8
0
 10
728.64237105469806
 20
410.24600913588614
 42
1
  0
VERTEX
  8
0
 10
728.51147178090764
 20
380.24629523818106
 42
1
  0
SEQEND
  0
POLYLINE
  8
0
 10
0
 20
0
 39
0
 70
1
 66
1
  0
VERTEX
  8
0
 10
484.92724678732213
 20
411.30697565480114
 42
-1
  0
VERTEX
  8
0
 10
484.27275041837004
 20
261.30840616627574
 42
-1
  0
SEQEND
  0
POLYLINE
  8
0
 10
0
 20
0
 39
0
 70
1
 66
1
  0
VERTEX
  8
0
 10
504.68707405050975
 20
356.22023399314821
 42
0
  0
VERTEX
  8
0
 10
464.68745552023631
 20
356.39476635820211
 42
0
  0
VERTEX
  8
0
 10
464.51292315518242
 20
316.39514782792867
 42
0
  0
VERTEX
  8
0
 10
504.51254168545586
 20
316.22061546287478
 42
0
  0
SEQEND
  0
POLYLINE
  8
0
 10
0
 20
0
 39
0
 70
1
 66
1
  0
VERTEX
  8
0
 10
755.09647755655283
 20
706.32236027018575
 42
-1
  0
VERTEX
  8
0
 10
754.44198118760073
 20
556.32379078166036
 42
-1
  0
SEQEND
  0
POLYLINE
  8
0
 10
0
 20
0
 39
0
 70
1
 66
1
  0
VERTEX
  8
0
 10
774.85630481974044
 20
651.23561860853283
 42
0
  0
VERTEX
  8
0
 10
734.85668628946701
 20
651.41015097358672
 42
0
  0
VERTEX
  8
0
 10
734.68215392441311
 20
611.41053244331329
 42
0
  0
VERTEX
  8
0
 10
774.68177245468655
 20
611.23600007825939
 42
0
  0
SEQEND
  0
POLYLINE
  8
0
 10
0
 20
0
 39
0
 70
1
 66
1
  0
VERTEX
  8
0
 10
775.10416986424525
 20
218.94543719326265
 42
-1
  0
VERTEX
  8
0
 10
774.44967349529315
 20
68.946867704737258
 42
-1
  0
SEQEND
  0
POLYLINE
  8
0
 10
0
 20
0
 39
0
 70
1
 66
1
  0
VERTEX
  8
0
 10
794.86399712743287
 20
163.85869553160973
 42
0
  0
VERTEX
  8
0
 10
754.86437859715943
 20
164.03322789666362
 42
0
  0
VERTEX
  8
0
 10
754.68984623210554
 20
124.03360936639018
 42
0
  0
VERTEX
  8
0
 10
794.68946476237898
 20
123.85907700133629
 42
0
  0
SEQEND
  0
POLYLINE
  8
0
 10
0
 20
0
 39
0
 70
1
 66
1
  0
VERTEX
  8
0
 10
969.94615384615383
 20
363.96153846153845
 42
-0
  0
VERTEX
  8
0
 10
969.94615384615383
 20
472.96153846153845
 42
-0
  0
VERTEX
  8
0
 10
1056.6170065072865
 20
472.96153846153845
 42
-0
  0
VERTEX
  8
0
 10
1074.9461538461537
 20
454.75458350548377
 42
-0
  0
VERTEX
  8
0
 10
1074.9461538461537
 20
382.16849151024451
 42
0
  0
VERTEX
  8
0
 10
1056.6170065072865
 20
363.96153846153845
 42
0
  0
SEQEND
  0
POLYLINE
  8
0
 10
0
 20
0
 39
0
 70
1
 66
1
  0
VERTEX
  8
0
 10
993.29483052767239
 20
373.4995805300199
 42
1
  0
VERTEX
  8
0
 10
993.29483052767239
 20
397.49958243736853
 42
1
  0
SEQEND
  0
POLYLINE
  8
0
 10
0
 20
0
 39
0
 70
1
 66
1
  0
VERTEX
  8
0
 10
993.29483052767239
 20
439.42349830040564
 42
1
  0
VERTEX
  8
0
 10
993.29483052767239
 20
463.42349830040564
 42
1
  0
SEQEND
  0
POLYLINE
  8
0
 10
0
 20
0
 39
0
 70
1
 66
1
  0
VERTEX
  8
0
 10
969.94615384615383
 20
658.97692307692307
 42
-0
  0
VERTEX
  8
0
 10
969.94615384615383
 20
767.97692307692307
 42
-0
  0
VERTEX
  8
0
 10
1056.6170065072865
 20
767.97692307692307
 42
-0
  0
VERTEX
  8
0
 10
1074.9461538461537
 20
749.76996812086838
 42
-0
  0
VERTEX
  8
0
 10
1074.9461538461537
 20
677.18387612562913
 42
0
  0
VERTEX
  8
0
 10
1056.6170065072865
 20
658.97692307692307
 42
0
  0
SEQEND
  0
POLYLINE
  8
0
 10
0
 20
0
 39
0
 70
1
 66
1
  0
VERTEX
  8
0
 10
993.29483052767239
 20
668.51496514540452
 42
1
  0
VERTEX
  8
0
 10
993.29483052767239
 20
692.51496705275315
 42
1
  0
SEQEND
  0
POLYLINE
  8
0
 10
0
 20
0
 39
0
 70
1
 66
1
  0
VERTEX
  8
0
 10
993.29483052767239
 20
734.43888291579026
 42
1
  0
VERTEX
  8
0
 10
993.29483052767239
 20
758.43888291579026
 42
1
  0
SEQEND
  0
POLYLINE
  8
0
 10
0
 20
0
 39
0
 70
1
 66
1
  0
VERTEX
  8
0
 10
989.95384615384614
 20
68.946153846153834
 42
-0
  0
VERTEX
  8
0
 10
989.95384615384614
 20
177.94615384615383
 42
-0
  0
VERTEX
  8
0
 10
1076.624698814979
 20
177.94615384615383
 42
-0
  0
VERTEX
  8
0
 10
1094.9538461538461
 20
159.73919889009915
 42
-0
  0
VERTEX
  8
0
 10
1094.9538461538461
 20
87.153106894859889
 42
0
  0
VERTEX
  8
0
 10
1076.624698814979
 20
68.946153846153848
 42
0
  0
SEQEND
  0
POLYLINE
  8
0
 10
0
 20
0
 39
0
 70
1
 66
1
  0
VERTEX
  8
0
 10
1013.3025228353647
 20
78.484195914635279
 42
1
  0
VERTEX
  8
0
 10
1013.3025228353647
 20
102.48419782198391
 42
1
  0
SEQEND
  0
POLYLINE
  8
0
 10
0
 20
0
 39
0
 70
1
 66
1
  0
VERTEX
  8
0
 10
1013.3025228353647
 20
144.40811368502102
 42
1
  0
VERTEX
  8
0
 10
1013.3025228353647
 20
168.40811368502102
 42
1
  0
SEQEND
  0
POLYLINE
  8
0
 10
0
 20
0
 39
0
 70
1
 66
1
  0
VERTEX
  8
0
 10
200.36923076923077
 20
688.79230769230765
 42
-0
  0
VERTEX
  8
0
 10
200.36923076923077
 20
868.79230769230765
 42
0
  0
VERTEX
  8
0
 10
240.36923076923074
 20
868.79230769230765
 42
0
  0
VERTEX
  8
0
 10
240.36923076923077
 20
688.79230769230765
 42
0
  0
SEQEND
  0
POLYLINE
  8
0
 10
0
 20
0
 39
0
 70
1
 66
1
  0
VERTEX
  8
0
 10
220.36923076923077
 20
766.79230769230765
 42
1
  0
VERTEX
  8
0
 10
220.36923076923077
 20
790.79230769230765
 42
1
  0
SEQEND
  0
POLYLINE
  8
0
 10
0
 20
0
 39
0
 70
1
 66
1
  0
VERTEX
  8
0
 10
530.36153846153843
 20
140.34615384615384
 42
-0
  0
VERTEX
  8
0
 10
350.36153846153843
 20
140.34615384615384
 42
0
  0
VERTEX
  8
0
 10
350.36153846153843
 20
180.34615384615384
 42
0
  0
VERTEX
  8
0
 10
530.36153846153843
 20
180.34615384615384
 42
0
  0
SEQEND
  0
POLYLINE
  8
0
 10
0
 20
0
 39
0
 70
1
 66
1
  0
VERTEX
  8
0
 10
452.36153846153843
 20
160.34615384615384
 42
1
  0
VERTEX
  8
0
 10
428.36153846153843
 20
160.34615384615384
 42
1
  0
SEQEND
  0
POLYLINE
  8
0
 10
0
 20
0
 39
0
 70
1
 66
1
  0
VERTEX
  8
0
 10
530.36153846153843
 20
497.60769230769228
 42
-0
  0
VERTEX
  8
0
 10
350.36153846153843
 20
497.60769230769228
 42
0
  0
VERTEX
  8
0
 10
350.36153846153843
 20
537.60769230769233
 42
0
  0
VERTEX
  8
0
 10
530.36153846153843
 20
537.60769230769233
 42
0
  0
SEQEND
  0
POLYLINE
  8
0
 10
0
 20
0
 39
0
 70
1
 66
1
  0
VERTEX
  8
0
 10
452.36153846153843
 20
517.60769230769233
 42
1
  0
VERTEX
  8
0
 10
428.36153846153843
 20
517.60769230769233
 42
1
  0
SEQEND
  0
POLYLINE
  8
0
 10
0
 20
0
 39
0
 70
1
 66
1
  0
VERTEX
  8
0
 10
746.52307692307693
 20
849.76923076923072
 42
-0
  0
VERTEX
  8
0
 10
566.52307692307693
 20
849.76923076923072
 42
0
  0
VERTEX
  8
0
 10
566.52307692307693
 20
889.76923076923072
 42
0
  0
VERTEX
  8
0
 10
746.52307692307693
 20
889.76923076923072
 42
0
  0
SEQEND
  0
POLYLINE
  8
0
 10
0
 20
0
 39
0
 70
1
 66
1
  0
VERTEX
  8
0
 10
668.52307692307693
 20
869.76923076923072
 42
1
  0
VERTEX
  8
0
 10
644.52307692307693
 20
869.76923076923072
 42
1
  0
SEQEND
  0
POLYLINE
  8
0
 10
0
 20
0
 39
0
 70
1
 66
1
  0
VERTEX
  8
0
 10
782.09230769230771
 20
799.55384615384617
 42
-0
  0
VERTEX
  8
0
 10
602.09230769230771
 20
799.55384615384617
 42
0
  0
VERTEX
  8
0
 10
602.09230769230771
 20
839.55384615384617
 42
0
  0
VERTEX
  8
0
 10
782.09230769230771
 20
839.55384615384617
 42
0
  0
SEQEND
  0
POLYLINE
  8
0
 10
0
 20
0
 39
0
 70
1
 66
1
  0
VERTEX
  8
0
 10
704.09230769230771
 20
819.55384615384617
 42
1
  0
VERTEX
  8
0
 10
680.09230769230771
 20
819.55384615384617
 42
1
  0
SEQEND
  0
POLYLINE
  8
0
 10
0
 20
0
 39
0
 70
1
 66
1
  0
VERTEX
  8
0
 10
828.71538461538455
 20
305.24615384615385
 42
-0
  0
VERTEX
  8
0
 10
828.71538461538455
 20
485.24615384615385
 42
0
  0
VERTEX
  8
0
 10
868.71538461538455
 20
485.24615384615385
 42
0
  0
VERTEX
  8
0
 10
868.71538461538455
 20
305.24615384615385
 42
0
  0
SEQEND
  0
POLYLINE
  8
0
 10
0
 20
0
 39
0
 70
1
 66
1
  0
VERTEX
  8
0
 10
848.71538461538455
 20
383.24615384615385
 42
1
  0
VERTEX
  8
0
 10
848.71538461538455
 20
407.24615384615385
 42
1
  0
SEQEND
  0
POLYLINE
  8
0
 10
0
 20
0
 39
0
 70
1
 66
1
  0
VERTEX
  8
0
 10
1609.0153846153846
 20
300.27692307692308
 42
-0
  0
VERTEX
  8
0
 10
1609.0153846153846
 20
480.27692307692308
 42
0
  0
VERTEX
  8
0
 10
1649.0153846153846
 20
480.27692307692308
 42
0
  0
VERTEX
  8
0
 10
1649.0153846153846
 20
300.27692307692308
 42
0
  0
SEQEND
  0
POLYLINE
  8
0
 10
0
 20
0
 39
0
 70
1
 66
1
  0
VERTEX
  8
0
 10
1629.0153846153846
 20
378.27692307692308
 42
1
  0
VERTEX
  8
0
 10
1629.0153846153846
 20
402.27692307692308
 42
1
  0
SEQEND
  0
POLYLINE
  8
0
 10
0
 20
0
 39
0
 70
1
 66
1
  0
VERTEX
  8
0
 10
1609.0153846153846
 20
490.28461538461534
 42
-0
  0
VERTEX
  8
0
 10
1609.0153846153846
 20
670.28461538461534
 42
0
  0
VERTEX
  8
0
 10
1649.0153846153846
 20
670.28461538461534
 42
0
  0
VERTEX
  8
0
 10
1649.0153846153846
 20
490.28461538461534
 42
0
  0
SEQEND
  0
POLYLINE
  8
0
 10
0
 20
0
 39
0
 70
1
 66
1
  0
VERTEX
  8
0
 10
1629.0153846153846
 20
568.28461538461534
 42
1
  0
VERTEX
  8
0
 10
1629.0153846153846
 20
592.28461538461534
 42
1
  0
SEQEND
  0
POLYLINE
  8
0
 10
0
 20
0
 39
0
 70
1
 66
1
  0
VERTEX
  8
0
 10
1609.0153846153846
 20
680.29230769230765
 42
-0
  0
VERTEX
  8
0
 10
1609.0153846153846
 20
860.29230769230765
 42
0
  0
VERTEX
  8
0
 10
1649.0153846153846
 20
860.29230769230765
 42
0
  0
VERTEX
  8
0
 10
1649.0153846153846
 20
680.29230769230765
 42
0
  0
SEQEND
  0
POLYLINE
  8
0
 10
0
 20
0
 39
0
 70
1
 66
1
  0
VERTEX
  8
0
 10
1629.0153846153846
 20
758.29230769230765
 42
1
  0
VERTEX
  8
0
 10
1629.0153846153846
 20
782.29230769230765
 42
1
  0
SEQEND
  0
POLYLINE
  8
0
 10
0
 20
0
 39
0
 70
1
 66
1
  0
VERTEX
  8
0
 10
1629.0230769230768
 20
10.23076923076923
 42
-0
  0
VERTEX
  8
0
 10
1629.0230769230768
 20
190.23076923076923
 42
0
  0
VERTEX
  8
0
 10
1669.0230769230768
 20
190.23076923076923
 42
0
  0
VERTEX
  8
0
 10
1669.0230769230768
 20
10.230769230769235
 42
0
  0
SEQEND
  0
POLYLINE
  8
0
 10
0
 20
0
 39
0
 70
1
 66
1
  0
VERTEX
  8
0
 10
1649.0230769230768
 20
88.230769230769226
 42
1
  0
VERTEX
  8
0
 10
1649.0230769230768
 20
112.23076923076923
 42
1
  0
SEQEND
  0
POLYLINE
  8
0
 10
0
 20
0
 39
0
 70
1
 66
1
  0
VERTEX
  8
0
 10
1119.9461538461537
 20
482.96153846153845
 42
-0
  0
VERTEX
  8
0
 10
969.94615384615372
 20
482.96153846153845
 42
0
  0
VERTEX
  8
0
 10
969.94615384615372
 20
522.96153846153845
 42
0
  0
VERTEX
  8
0
 10
1119.9461538461537
 20
522.96153846153845
 42
0
  0
SEQEND
  0
POLYLINE
  8
0
 10
0
 20
0
 39
0
 70
1
 66
1
  0
VERTEX
  8
0
 10
1110.543156829247
 20
502.96153846153845
 42
1
  0
VERTEX
  8
0
 10
1090.5431577829213
 20
502.96153846153845
 42
1
  0
SEQEND
  0
POLYLINE
  8
0
 10
0
 20
0
 39
0
 70
1
 66
1
  0
VERTEX
  8
0
 10
1079.6138593820424
 20
502.96153846153845
 42
1
  0
VERTEX
  8
0
 10
1059.6138593820424
 20
502.96153846153845
 42
1
  0
SEQEND
  0
POLYLINE
  8
0
 10
0
 20
0
 39
0
 70
1
 66
1
  0
VERTEX
  8
0
 10
1119.9461538461537
 20
777.97692307692307
 42
-0
  0
VERTEX
  8
0
 10
969.94615384615372
 20
777.97692307692307
 42
0
  0
VERTEX
  8
0
 10
969.94615384615372
 20
817.97692307692307
 42
0
  0
VERTEX
  8
0
 10
1119.9461538461537
 20
817.97692307692307
 42
0
  0
SEQEND
  0
POLYLINE
  8
0
 10
0
 20
0
 39
0
 70
1
 66
1
  0
VERTEX
  8
0
 10
1110.543156829247
 20
797.97692307692307
 42
1
  0
VERTEX
  8
0
 10
1090.5431577829213
 20
797.97692307692307
 42
1
  0
SEQEND
  0
POLYLINE
  8
0
 10
0
 20
0
 39
0
 70
1
 66
1
  0
VERTEX
  8
0
 10
1079.6138593820424
 20
797.97692307692307
 42
1
  0
VERTEX
  8
0
 10
1059.6138593820424
 20
797.97692307692307
 42
1
  0
SEQEND
  0
POLYLINE
  8
0
 10
0
 20
0
 39
0
 70
1
 66
1
  0
VERTEX
  8
0
 10
1139.9538461538461
 20
187.94615384615383
 42
-0
  0
VERTEX
  8
0
 10
989.95384615384614
 20
187.94615384615383
 42
0
  0
VERTEX
  8
0
 10
989.95384615384614
 20
227.94615384615383
 42
0
  0
VERTEX
  8
0
 10
1139.9538461538461
 20
227.94615384615383
 42
0
  0
SEQEND
  0
POLYLINE
  8
0
 10
0
 20
0
 39
0
 70
1
 66
1
  0
VERTEX
  8
0
 10
1130.5508491369394
 20
207.94615384615383
 42
1
  0
VERTEX
  8
0
 10
1110.5508500906137
 20
207.94615384615383
 42
1
  0
SEQEND
  0
POLYLINE
  8
0
 10
0
 20
0
 39
0
 70
1
 66
1
  0
VERTEX
  8
0
 10
1099.6215516897348
 20
207.94615384615383
 42
1
  0
VERTEX
  8
0
 10
1079.6215516897348
 20
207.94615384615383
 42
1
  0
SEQEND
  0
POLYLINE
  8
0
 10
0
 20
0
 39
0
 70
1
 66
1
  0
VERTEX
  8
0
 10
897.23076923076917
 20
792.62307692307684
 42
-0
  0
VERTEX
  8
0
 10
792.23076923076917
 20
792.62307692307684
 42
-0
  0
VERTEX
  8
0
 10
792.23076923076917
 20
842.62307692307684
 42
-0
  0
VERTEX
  8
0
 10
897.23076923076917
 20
842.62307692307684
 42
-0
  0
SEQEND
  0
POLYLINE
  8
0
 10
0
 20
0
 39
0
 70
1
 66
1
  0
VERTEX
  8
0
 10
890.68522174541761
 20
817.62307692307684
 42
1
  0
VERTEX
  8
0
 10
868.68522174541761
 20
817.62307692307684
 42
1
  0
SEQEND
  0
POLYLINE
  8
0
 10
0
 20
0
 39
0
 70
1
 66
1
  0
VERTEX
  8
0
 10
820.77631671612073
 20
817.62307692307684
 42
1
  0
VERTEX
  8
0
 10
798.77631671612073
 20
817.62307692307684
 42
1
  0
SEQEND
  0
ENDSEC
  0
EOF
