  0
SECTION
  2
ENTITIES
  0
POLYLINE
  8
0
 10
0
 20
0
 39
0
 70
1
 66
1
  0
VERTEX
  8
0
 10
0
 20
0
 42
0
  0
VERTEX
  8
0
 10
2500
 20
0
 42
0
  0
VERTEX
  8
0
 10
2500
 20
1000
 42
0
  0
VERTEX
  8
0
 10
0
 20
1000
 42
0
  0
SEQEND
  0
POLYLINE
  8
0
 10
0
 20
0
 39
0
 70
1
 66
1
  0
VERTEX
  8
0
 10
10.5
 20
636.5
 42
-0
  0
VERTEX
  8
0
 10
1310.5
 20
636.5
 42
-0
  0
VERTEX
  8
0
 10
1310.5
 20
10.5
 42
-0
  0
VERTEX
  8
0
 10
10.5
 20
10.5
 42
-0
  0
SEQEND
  0
POLYLINE
  8
0
 10
0
 20
0
 39
0
 70
1
 66
1
  0
VERTEX
  8
0
 10
895.5
 20
123.5
 42
1
  0
VERTEX
  8
0
 10
785.5
 20
123.5
 42
1
  0
SEQEND
  0
POLYLINE
  8
0
 10
0
 20
0
 39
0
 70
1
 66
1
  0
VERTEX
  8
0
 10
895.5
 20
523.5
 42
1
  0
VERTEX
  8
0
 10
785.5
 20
523.5
 42
1
  0
SEQEND
  0
POLYLINE
  8
0
 10
0
 20
0
 39
0
 70
1
 66
1
  0
VERTEX
  8
0
 10
895.5
 20
323.5
 42
1
  0
VERTEX
  8
0
 10
785.5
 20
323.5
 42
1
  0
SEQEND
  0
POLYLINE
  8
0
 10
0
 20
0
 39
0
 70
1
 66
1
  0
VERTEX
  8
0
 10
850.5
 20
646.75
 42
-0
  0
VERTEX
  8
0
 10
10.5
 20
646.75
 42
0
  0
VERTEX
  8
0
 10
10.5
 20
856.75
 42
0
  0
VERTEX
  8
0
 10
850.5
 20
856.75
 42
0
  0
SEQEND
  0
POLYLINE
  8
0
 10
0
 20
0
 39
0
 70
1
 66
1
  0
VERTEX
  8
0
 10
807.30205917358398
 20
751.75
 42
1
  0
VERTEX
  8
0
 10
695.30206298828125
 20
751.75
 42
1
  0
SEQEND
  0
POLYLINE
  8
0
 10
0
 20
0
 39
0
 70
1
 66
1
  0
VERTEX
  8
0
 10
643.28938293457031
 20
751.75
 42
1
  0
VERTEX
  8
0
 10
531.28936767578125
 20
751.75
 42
1
  0
SEQEND
  0
POLYLINE
  8
0
 10
0
 20
0
 39
0
 70
1
 66
1
  0
VERTEX
  8
0
 10
165.69793701171875
 20
751.75
 42
1
  0
VERTEX
  8
0
 10
53.69793701171875
 20
751.75
 42
1
  0
SEQEND
  0
POLYLINE
  8
0
 10
0
 20
0
 39
0
 70
1
 66
1
  0
VERTEX
  8
0
 10
329.71063232421875
 20
751.75
 42
1
  0
VERTEX
  8
0
 10
217.71063232421875
 20
751.75
 42
1
  0
SEQEND
  0
POLYLINE
  8
0
 10
0
 20
0
 39
0
 70
1
 66
1
  0
VERTEX
  8
0
 10
1321
 20
10.5
 42
-0
  0
VERTEX
  8
0
 10
1321
 20
850.5
 42
0
  0
VERTEX
  8
0
 10
1531
 20
850.5
 42
0
  0
VERTEX
  8
0
 10
1531
 20
10.500000000000027
 42
0
  0
SEQEND
  0
POLYLINE
  8
0
 10
0
 20
0
 39
0
 70
1
 66
1
  0
VERTEX
  8
0
 10
1426
 20
53.697940826416023
 42
1
  0
VERTEX
  8
0
 10
1426
 20
165.69793701171875
 42
1
  0
SEQEND
  0
POLYLINE
  8
0
 10
0
 20
0
 39
0
 70
1
 66
1
  0
VERTEX
  8
0
 10
1426
 20
217.71061706542969
 42
1
  0
VERTEX
  8
0
 10
1426
 20
329.71063232421875
 42
1
  0
SEQEND
  0
POLYLINE
  8
0
 10
0
 20
0
 39
0
 70
1
 66
1
  0
VERTEX
  8
0
 10
1426
 20
695.30206298828125
 42
1
  0
VERTEX
  8
0
 10
1426
 20
807.30206298828125
 42
1
  0
SEQEND
  0
POLYLINE
  8
0
 10
0
 20
0
 39
0
 70
1
 66
1
  0
VERTEX
  8
0
 10
1426
 20
531.28936767578125
 42
1
  0
VERTEX
  8
0
 10
1426
 20
643.28936767578125
 42
1
  0
SEQEND
  0
POLYLINE
  8
0
 10
0
 20
0
 39
0
 70
1
 66
1
  0
VERTEX
  8
0
 10
1541.5
 20
10.5
 42
-0
  0
VERTEX
  8
0
 10
1541.5
 20
850.5
 42
0
  0
VERTEX
  8
0
 10
1751.5
 20
850.5
 42
0
  0
VERTEX
  8
0
 10
1751.5
 20
10.500000000000027
 42
0
  0
SEQEND
  0
POLYLINE
  8
0
 10
0
 20
0
 39
0
 70
1
 66
1
  0
VERTEX
  8
0
 10
1646.5
 20
53.697940826416023
 42
1
  0
VERTEX
  8
0
 10
1646.5
 20
165.69793701171875
 42
1
  0
SEQEND
  0
POLYLINE
  8
0
 10
0
 20
0
 39
0
 70
1
 66
1
  0
VERTEX
  8
0
 10
1646.5
 20
217.71061706542969
 42
1
  0
VERTEX
  8
0
 10
1646.5
 20
329.71063232421875
 42
1
  0
SEQEND
  0
POLYLINE
  8
0
 10
0
 20
0
 39
0
 70
1
 66
1
  0
VERTEX
  8
0
 10
1646.5
 20
695.30206298828125
 42
1
  0
VERTEX
  8
0
 10
1646.5
 20
807.30206298828125
 42
1
  0
SEQEND
  0
POLYLINE
  8
0
 10
0
 20
0
 39
0
 70
1
 66
1
  0
VERTEX
  8
0
 10
1646.5
 20
531.28936767578125
 42
1
  0
VERTEX
  8
0
 10
1646.5
 20
643.28936767578125
 42
1
  0
SEQEND
  0
POLYLINE
  8
0
 10
0
 20
0
 39
0
 70
1
 66
1
  0
VERTEX
  8
0
 10
710.5
 20
867
 42
-0
  0
VERTEX
  8
0
 10
10.5
 20
867
 42
0
  0
VERTEX
  8
0
 10
10.5
 20
987
 42
0
  0
VERTEX
  8
0
 10
710.5
 20
987
 42
0
  0
SEQEND
  0
POLYLINE
  8
0
 10
0
 20
0
 39
0
 70
1
 66
1
  0
VERTEX
  8
0
 10
398.5
 20
927
 42
1
  0
VERTEX
  8
0
 10
322.5
 20
927
 42
1
  0
SEQEND
  0
POLYLINE
  8
0
 10
0
 20
0
 39
0
 70
1
 66
1
  0
VERTEX
  8
0
 10
669.16972732543945
 20
965
 42
-0
  0
VERTEX
  8
0
 10
581.25325012207031
 20
965
 42
-0.085440635681152344
  0
VERTEX
  8
0
 10
581.25325012207031
 20
889
 42
0
  0
VERTEX
  8
0
 10
669.16972732543945
 20
889
 42
0.06132299080491066
  0
SEQEND
  0
POLYLINE
  8
0
 10
0
 20
0
 39
0
 70
1
 66
1
  0
VERTEX
  8
0
 10
51.83026123046875
 20
965
 42
0.06132299080491066
  0
VERTEX
  8
0
 10
51.83026123046875
 20
889
 42
-0
  0
VERTEX
  8
0
 10
139.74676513671875
 20
889
 42
-0.085440635681152344
  0
VERTEX
  8
0
 10
139.74676513671875
 20
965
 42
0
  0
SEQEND
  0
POLYLINE
  8
0
 10
0
 20
0
 39
0
 70
1
 66
1
  0
VERTEX
  8
0
 10
1421
 20
867
 42
-0
  0
VERTEX
  8
0
 10
721
 20
867
 42
0
  0
VERTEX
  8
0
 10
721
 20
987
 42
0
  0
VERTEX
  8
0
 10
1421
 20
987
 42
0
  0
SEQEND
  0
POLYLINE
  8
0
 10
0
 20
0
 39
0
 70
1
 66
1
  0
VERTEX
  8
0
 10
1109
 20
927
 42
1
  0
VERTEX
  8
0
 10
1033
 20
927
 42
1
  0
SEQEND
  0
POLYLINE
  8
0
 10
0
 20
0
 39
0
 70
1
 66
1
  0
VERTEX
  8
0
 10
1379.6697273254395
 20
965
 42
-0
  0
VERTEX
  8
0
 10
1291.7532501220703
 20
965
 42
-0.085440635681152344
  0
VERTEX
  8
0
 10
1291.7532501220703
 20
889
 42
0
  0
VERTEX
  8
0
 10
1379.6697273254395
 20
889
 42
0.06132299080491066
  0
SEQEND
  0
POLYLINE
  8
0
 10
0
 20
0
 39
0
 70
1
 66
1
  0
VERTEX
  8
0
 10
762.33026123046875
 20
965
 42
0.06132299080491066
  0
VERTEX
  8
0
 10
762.33026123046875
 20
889
 42
-0
  0
VERTEX
  8
0
 10
850.24676513671875
 20
889
 42
-0.085440635681152344
  0
VERTEX
  8
0
 10
850.24676513671875
 20
965
 42
0
  0
SEQEND
  0
POLYLINE
  8
0
 10
0
 20
0
 39
0
 70
1
 66
1
  0
VERTEX
  8
0
 10
1762
 20
10.5
 42
-0
  0
VERTEX
  8
0
 10
1762
 20
710.5
 42
0
  0
VERTEX
  8
0
 10
1882
 20
710.5
 42
0
  0
VERTEX
  8
0
 10
1882
 20
10.500000000000014
 42
0
  0
SEQEND
  0
POLYLINE
  8
0
 10
0
 20
0
 39
0
 70
1
 66
1
  0
VERTEX
  8
0
 10
1822
 20
322.5
 42
1
  0
VERTEX
  8
0
 10
1822
 20
398.5
 42
1
  0
SEQEND
  0
POLYLINE
  8
0
 10
0
 20
0
 39
0
 70
1
 66
1
  0
VERTEX
  8
0
 10
1860
 20
51.830272674560554
 42
-0
  0
VERTEX
  8
0
 10
1860
 20
139.74674987792969
 42
-0.085440635681152344
  0
VERTEX
  8
0
 10
1784
 20
139.74674987792969
 42
0
  0
VERTEX
  8
0
 10
1784
 20
51.830272674560547
 42
0.06132299080491066
  0
SEQEND
  0
POLYLINE
  8
0
 10
0
 20
0
 39
0
 70
1
 66
1
  0
VERTEX
  8
0
 10
1860
 20
669.16973876953125
 42
0.06132299080491066
  0
VERTEX
  8
0
 10
1784
 20
669.16973876953125
 42
-0
  0
VERTEX
  8
0
 10
1784
 20
581.25323486328125
 42
-0.085440635681152344
  0
VERTEX
  8
0
 10
1860
 20
581.25323486328125
 42
0
  0
SEQEND
  0
POLYLINE
  8
0
 10
0
 20
0
 39
0
 70
1
 66
1
  0
VERTEX
  8
0
 10
1892.5
 20
10.5
 42
-0
  0
VERTEX
  8
0
 10
1892.5
 20
710.5
 42
0
  0
VERTEX
  8
0
 10
2012.5
 20
710.5
 42
0
  0
VERTEX
  8
0
 10
2012.5
 20
10.500000000000014
 42
0
  0
SEQEND
  0
POLYLINE
  8
0
 10
0
 20
0
 39
0
 70
1
 66
1
  0
VERTEX
  8
0
 10
1952.5
 20
322.5
 42
1
  0
VERTEX
  8
0
 10
1952.5
 20
398.5
 42
1
  0
SEQEND
  0
POLYLINE
  8
0
 10
0
 20
0
 39
0
 70
1
 66
1
  0
VERTEX
  8
0
 10
1990.5
 20
51.830272674560554
 42
-0
  0
VERTEX
  8
0
 10
1990.5
 20
139.74674987792969
 42
-0.085440635681152344
  0
VERTEX
  8
0
 10
1914.5
 20
139.74674987792969
 42
0
  0
VERTEX
  8
0
 10
1914.5
 20
51.830272674560547
 42
0.06132299080491066
  0
SEQEND
  0
POLYLINE
  8
0
 10
0
 20
0
 39
0
 70
1
 66
1
  0
VERTEX
  8
0
 10
1990.5
 20
669.16973876953125
 42
0.06132299080491066
  0
VERTEX
  8
0
 10
1914.5
 20
669.16973876953125
 42
-0
  0
VERTEX
  8
0
 10
1914.5
 20
581.25323486328125
 42
-0.085440635681152344
  0
VERTEX
  8
0
 10
1990.5
 20
581.25323486328125
 42
0
  0
SEQEND
  0
POLYLINE
  8
0
 10
0
 20
0
 39
0
 70
1
 66
1
  0
VERTEX
  8
0
 10
1979.75
 20
860.75
 42
-0
  0
VERTEX
  8
0
 10
1429.75
 20
860.75
 42
0
  0
VERTEX
  8
0
 10
1606.75
 20
960.75
 42
0
  0
VERTEX
  8
0
 10
1979.75
 20
960.75
 42
0
  0
SEQEND
  0
POLYLINE
  8
0
 10
0
 20
0
 39
0
 70
1
 66
1
  0
VERTEX
  8
0
 10
1947.3709831237793
 20
928.73052978515625
 42
-0
  0
VERTEX
  8
0
 10
1738.3709869384766
 20
928.73052978515625
 42
-0
  0
VERTEX
  8
0
 10
1738.3709869384766
 20
896.73052597045898
 42
-0
  0
VERTEX
  8
0
 10
1947.3709831237793
 20
896.73052597045898
 42
-0
  0
SEQEND
  0
POLYLINE
  8
0
 10
0
 20
0
 39
0
 70
1
 66
1
  0
VERTEX
  8
0
 10
1696.9061584472656
 20
910.75
 42
1
  0
VERTEX
  8
0
 10
1636.9061584472656
 20
910.75
 42
1
  0
SEQEND
  0
POLYLINE
  8
0
 10
0
 20
0
 39
0
 70
1
 66
1
  0
VERTEX
  8
0
 10
2023
 20
10.5
 42
-0
  0
VERTEX
  8
0
 10
2023
 20
560.5
 42
0
  0
VERTEX
  8
0
 10
2123
 20
383.5
 42
0
  0
VERTEX
  8
0
 10
2123
 20
10.500000000000012
 42
0
  0
SEQEND
  0
POLYLINE
  8
0
 10
0
 20
0
 39
0
 70
1
 66
1
  0
VERTEX
  8
0
 10
2090.9805297851562
 20
42.87901687622071
 42
-0
  0
VERTEX
  8
0
 10
2090.9805297851562
 20
251.87901306152344
 42
-0
  0
VERTEX
  8
0
 10
2058.980525970459
 20
251.87901306152344
 42
-0
  0
VERTEX
  8
0
 10
2058.980525970459
 20
42.879016876220703
 42
-0
  0
SEQEND
  0
POLYLINE
  8
0
 10
0
 20
0
 39
0
 70
1
 66
1
  0
VERTEX
  8
0
 10
2073
 20
293.34384155273437
 42
1
  0
VERTEX
  8
0
 10
2073
 20
353.34384155273437
 42
1
  0
SEQEND
  0
POLYLINE
  8
0
 10
0
 20
0
 39
0
 70
1
 66
1
  0
VERTEX
  8
0
 10
2123
 20
955
 42
-0
  0
VERTEX
  8
0
 10
2123
 20
405
 42
0
  0
VERTEX
  8
0
 10
2023
 20
582
 42
0
  0
VERTEX
  8
0
 10
2023
 20
955
 42
0
  0
SEQEND
  0
POLYLINE
  8
0
 10
0
 20
0
 39
0
 70
1
 66
1
  0
VERTEX
  8
0
 10
2055.0194702148437
 20
922.6209831237793
 42
-0
  0
VERTEX
  8
0
 10
2055.0194702148437
 20
713.62098693847656
 42
-0
  0
VERTEX
  8
0
 10
2087.019474029541
 20
713.62098693847656
 42
-0
  0
VERTEX
  8
0
 10
2087.019474029541
 20
922.6209831237793
 42
-0
  0
SEQEND
  0
POLYLINE
  8
0
 10
0
 20
0
 39
0
 70
1
 66
1
  0
VERTEX
  8
0
 10
2073
 20
672.15615844726562
 42
1
  0
VERTEX
  8
0
 10
2073
 20
612.15615844726562
 42
1
  0
SEQEND
  0
POLYLINE
  8
0
 10
0
 20
0
 39
0
 70
1
 66
1
  0
VERTEX
  8
0
 10
2133.5
 20
10.5
 42
-0
  0
VERTEX
  8
0
 10
2133.5
 20
560.5
 42
0
  0
VERTEX
  8
0
 10
2233.5
 20
383.5
 42
0
  0
VERTEX
  8
0
 10
2233.5
 20
10.500000000000012
 42
0
  0
SEQEND
  0
POLYLINE
  8
0
 10
0
 20
0
 39
0
 70
1
 66
1
  0
VERTEX
  8
0
 10
2201.4805297851562
 20
42.87901687622071
 42
-0
  0
VERTEX
  8
0
 10
2201.4805297851562
 20
251.87901306152344
 42
-0
  0
VERTEX
  8
0
 10
2169.480525970459
 20
251.87901306152344
 42
-0
  0
VERTEX
  8
0
 10
2169.480525970459
 20
42.879016876220703
 42
-0
  0
SEQEND
  0
POLYLINE
  8
0
 10
0
 20
0
 39
0
 70
1
 66
1
  0
VERTEX
  8
0
 10
2183.5
 20
293.34384155273437
 42
1
  0
VERTEX
  8
0
 10
2183.5
 20
353.34384155273437
 42
1
  0
SEQEND
  0
POLYLINE
  8
0
 10
0
 20
0
 39
0
 70
1
 66
1
  0
VERTEX
  8
0
 10
2233.5
 20
955
 42
-0
  0
VERTEX
  8
0
 10
2233.5
 20
405
 42
0
  0
VERTEX
  8
0
 10
2133.5
 20
582
 42
0
  0
VERTEX
  8
0
 10
2133.5
 20
955
 42
0
  0
SEQEND
  0
POLYLINE
  8
0
 10
0
 20
0
 39
0
 70
1
 66
1
  0
VERTEX
  8
0
 10
2165.5194702148437
 20
922.6209831237793
 42
-0
  0
VERTEX
  8
0
 10
2165.5194702148437
 20
713.62098693847656
 42
-0
  0
VERTEX
  8
0
 10
2197.519474029541
 20
713.62098693847656
 42
-0
  0
VERTEX
  8
0
 10
2197.519474029541
 20
922.6209831237793
 42
-0
  0
SEQEND
  0
POLYLINE
  8
0
 10
0
 20
0
 39
0
 70
1
 66
1
  0
VERTEX
  8
0
 10
2183.5
 20
672.15615844726562
 42
1
  0
VERTEX
  8
0
 10
2183.5
 20
612.15615844726562
 42
1
  0
SEQEND
  0
POLYLINE
  8
0
 10
0
 20
0
 39
0
 70
1
 66
1
  0
VERTEX
  8
0
 10
2244
 20
10.5
 42
-0
  0
VERTEX
  8
0
 10
2244
 20
560.5
 42
0
  0
VERTEX
  8
0
 10
2344
 20
383.5
 42
0
  0
VERTEX
  8
0
 10
2344
 20
10.500000000000012
 42
0
  0
SEQEND
  0
POLYLINE
  8
0
 10
0
 20
0
 39
0
 70
1
 66
1
  0
VERTEX
  8
0
 10
2311.9805297851562
 20
42.87901687622071
 42
-0
  0
VERTEX
  8
0
 10
2311.9805297851562
 20
251.87901306152344
 42
-0
  0
VERTEX
  8
0
 10
2279.980525970459
 20
251.87901306152344
 42
-0
  0
VERTEX
  8
0
 10
2279.980525970459
 20
42.879016876220703
 42
-0
  0
SEQEND
  0
POLYLINE
  8
0
 10
0
 20
0
 39
0
 70
1
 66
1
  0
VERTEX
  8
0
 10
2294
 20
293.34384155273437
 42
1
  0
VERTEX
  8
0
 10
2294
 20
353.34384155273437
 42
1
  0
SEQEND
  0
POLYLINE
  8
0
 10
0
 20
0
 39
0
 70
1
 66
1
  0
VERTEX
  8
0
 10
2344
 20
955
 42
-0
  0
VERTEX
  8
0
 10
2344
 20
405
 42
0
  0
VERTEX
  8
0
 10
2244
 20
582
 42
0
  0
VERTEX
  8
0
 10
2244
 20
955
 42
0
  0
SEQEND
  0
POLYLINE
  8
0
 10
0
 20
0
 39
0
 70
1
 66
1
  0
VERTEX
  8
0
 10
2276.0194702148437
 20
922.6209831237793
 42
-0
  0
VERTEX
  8
0
 10
2276.0194702148437
 20
713.62098693847656
 42
-0
  0
VERTEX
  8
0
 10
2308.019474029541
 20
713.62098693847656
 42
-0
  0
VERTEX
  8
0
 10
2308.019474029541
 20
922.6209831237793
 42
-0
  0
SEQEND
  0
POLYLINE
  8
0
 10
0
 20
0
 39
0
 70
1
 66
1
  0
VERTEX
  8
0
 10
2294
 20
672.15615844726562
 42
1
  0
VERTEX
  8
0
 10
2294
 20
612.15615844726562
 42
1
  0
SEQEND
  0
POLYLINE
  8
0
 10
0
 20
0
 39
0
 70
1
 66
1
  0
VERTEX
  8
0
 10
984.84287643432617
 20
711.00028991699219
 42
0.28324300050735474
  0
VERTEX
  8
0
 10
998.23845291137695
 20
702.75
 42
0
  0
VERTEX
  8
0
 10
1014
 20
702.75
 42
-1
  0
VERTEX
  8
0
 10
1014
 20
646.75
 42
0
  0
VERTEX
  8
0
 10
889
 20
646.75
 42
-1
  0
VERTEX
  8
0
 10
889
 20
702.75
 42
0.41421398520469666
  0
VERTEX
  8
0
 10
899
 20
712.75
 42
0
  0
VERTEX
  8
0
 10
899
 20
831.75
 42
0
  0
VERTEX
  8
0
 10
914.76155090332031
 20
831.75
 42
-0.28324300050735474
  0
VERTEX
  8
0
 10
928.15712738037109
 20
823.49971008300781
 42
0
  0
SEQEND
  0
POLYLINE
  8
0
 10
0
 20
0
 39
0
 70
1
 66
1
  0
VERTEX
  8
0
 10
1026
 20
674.75
 42
1
  0
VERTEX
  8
0
 10
1002
 20
674.75
 42
1
  0
SEQEND
  0
POLYLINE
  8
0
 10
0
 20
0
 39
0
 70
1
 66
1
  0
VERTEX
  8
0
 10
901
 20
674.75
 42
1
  0
VERTEX
  8
0
 10
877
 20
674.75
 42
1
  0
SEQEND
  0
POLYLINE
  8
0
 10
0
 20
0
 39
0
 70
1
 66
1
  0
VERTEX
  8
0
 10
1010.0021235656749
 20
767.49971008301009
 42
0.28324300050735474
  0
VERTEX
  8
0
 10
996.6065470886241
 20
775.75000000000227
 42
0
  0
VERTEX
  8
0
 10
980.84500000000105
 20
775.75000000000227
 42
-1
  0
VERTEX
  8
0
 10
980.84500000000105
 20
831.75000000000227
 42
0
  0
VERTEX
  8
0
 10
1105.8450000000012
 20
831.75000000000227
 42
-1
  0
VERTEX
  8
0
 10
1105.8450000000012
 20
775.75000000000227
 42
0.41421398520469666
  0
VERTEX
  8
0
 10
1095.8450000000012
 20
765.75000000000227
 42
0
  0
VERTEX
  8
0
 10
1095.8450000000009
 20
646.75000000000227
 42
0
  0
VERTEX
  8
0
 10
1080.0834490966806
 20
646.75000000000227
 42
-0.28324300050735474
  0
VERTEX
  8
0
 10
1066.6878726196298
 20
655.00028991699446
 42
0
  0
SEQEND
  0
POLYLINE
  8
0
 10
0
 20
0
 39
0
 70
1
 66
1
  0
VERTEX
  8
0
 10
968.84500000000105
 20
803.75000000000227
 42
1
  0
VERTEX
  8
0
 10
992.84500000000105
 20
803.75000000000227
 42
1
  0
SEQEND
  0
POLYLINE
  8
0
 10
0
 20
0
 39
0
 70
1
 66
1
  0
VERTEX
  8
0
 10
1093.8450000000012
 20
803.75000000000227
 42
1
  0
VERTEX
  8
0
 10
1117.8450000000012
 20
803.75000000000227
 42
1
  0
SEQEND
  0
POLYLINE
  8
0
 10
0
 20
0
 39
0
 70
1
 66
1
  0
VERTEX
  8
0
 10
2474.5
 20
188.50000015604311
 42
0
  0
VERTEX
  8
0
 10
2479.5
 20
164.50000015604311
 42
-0
  0
VERTEX
  8
0
 10
2479.5
 20
132.50000015604311
 42
0
  0
VERTEX
  8
0
 10
2474.5
 20
108.50000015604311
 42
-0
  0
VERTEX
  8
0
 10
2389.1336631774902
 20
16.867101348517473
 42
-0.26658442616462708
  0
VERTEX
  8
0
 10
2370.1097536087036
 20
10.987805492756896
 42
0
  0
VERTEX
  8
0
 10
2354.5
 20
14.500000156043104
 42
0
  0
VERTEX
  8
0
 10
2377.5
 20
132.50000015604311
 42
0
  0
VERTEX
  8
0
 10
2377.5
 20
164.50000015604311
 42
-0
  0
VERTEX
  8
0
 10
2354.5
 20
282.50000015604309
 42
-0
  0
VERTEX
  8
0
 10
2370.1097564697266
 20
286.01220718729309
 42
-0.26658442616462708
  0
VERTEX
  8
0
 10
2389.1336631774902
 20
280.13290420877746
 42
0
  0
SEQEND
  0
POLYLINE
  8
0
 10
0
 20
0
 39
0
 70
1
 66
1
  0
VERTEX
  8
0
 10
2449.5
 20
138.50000015604311
 42
1
  0
VERTEX
  8
0
 10
2449.5
 20
158.50000015604311
 42
1
  0
SEQEND
  0
POLYLINE
  8
0
 10
0
 20
0
 39
0
 70
1
 66
1
  0
VERTEX
  8
0
 10
2359.5
 20
327.75001037944298
 42
0
  0
VERTEX
  8
0
 10
2354.5
 20
351.75001037944298
 42
-0
  0
VERTEX
  8
0
 10
2354.5
 20
383.75001037944298
 42
0
  0
VERTEX
  8
0
 10
2359.5
 20
407.75001037944298
 42
-0
  0
VERTEX
  8
0
 10
2444.8663368225098
 20
499.38290918696862
 42
-0.26658442616462708
  0
VERTEX
  8
0
 10
2463.8902463912964
 20
505.26220504272919
 42
0
  0
VERTEX
  8
0
 10
2479.5
 20
501.75001037944298
 42
0
  0
VERTEX
  8
0
 10
2456.5
 20
383.75001037944298
 42
0
  0
VERTEX
  8
0
 10
2456.5
 20
351.75001037944298
 42
-0
  0
VERTEX
  8
0
 10
2479.5
 20
233.75001037944298
 42
-0
  0
VERTEX
  8
0
 10
2463.8902435302734
 20
230.23780334819298
 42
-0.26658442616462708
  0
VERTEX
  8
0
 10
2444.8663368225098
 20
236.11710632670861
 42
0
  0
SEQEND
  0
POLYLINE
  8
0
 10
0
 20
0
 39
0
 70
1
 66
1
  0
VERTEX
  8
0
 10
2384.5
 20
377.75001037944298
 42
1
  0
VERTEX
  8
0
 10
2384.5
 20
357.75001037944298
 42
1
  0
SEQEND
  0
POLYLINE
  8
0
 10
0
 20
0
 39
0
 70
1
 66
1
  0
VERTEX
  8
0
 10
2474.5
 20
626.75000015604314
 42
0
  0
VERTEX
  8
0
 10
2479.5
 20
602.75000015604314
 42
-0
  0
VERTEX
  8
0
 10
2479.5
 20
570.75000015604314
 42
0
  0
VERTEX
  8
0
 10
2474.5
 20
546.75000015604314
 42
-0
  0
VERTEX
  8
0
 10
2389.1336631774902
 20
455.11710134851745
 42
-0.26658442616462708
  0
VERTEX
  8
0
 10
2370.1097536087036
 20
449.23780549275688
 42
0
  0
VERTEX
  8
0
 10
2354.5
 20
452.75000015604309
 42
0
  0
VERTEX
  8
0
 10
2377.5
 20
570.75000015604314
 42
0
  0
VERTEX
  8
0
 10
2377.5
 20
602.75000015604314
 42
-0
  0
VERTEX
  8
0
 10
2354.5
 20
720.75000015604314
 42
-0
  0
VERTEX
  8
0
 10
2370.1097564697266
 20
724.26220718729314
 42
-0.26658442616462708
  0
VERTEX
  8
0
 10
2389.1336631774902
 20
718.38290420877752
 42
0
  0
SEQEND
  0
POLYLINE
  8
0
 10
0
 20
0
 39
0
 70
1
 66
1
  0
VERTEX
  8
0
 10
2449.5
 20
576.75000015604314
 42
1
  0
VERTEX
  8
0
 10
2449.5
 20
596.75000015604314
 42
1
  0
SEQEND
  0
POLYLINE
  8
0
 10
0
 20
0
 39
0
 70
1
 66
1
  0
VERTEX
  8
0
 10
2359.5
 20
766.00001037944298
 42
0
  0
VERTEX
  8
0
 10
2354.5
 20
790.00001037944298
 42
-0
  0
VERTEX
  8
0
 10
2354.5
 20
822.00001037944298
 42
0
  0
VERTEX
  8
0
 10
2359.5
 20
846.00001037944298
 42
-0
  0
VERTEX
  8
0
 10
2444.8663368225098
 20
937.63290918696862
 42
-0.26658442616462708
  0
VERTEX
  8
0
 10
2463.8902463912964
 20
943.51220504272919
 42
0
  0
VERTEX
  8
0
 10
2479.5
 20
940.00001037944298
 42
0
  0
VERTEX
  8
0
 10
2456.5
 20
822.00001037944298
 42
0
  0
VERTEX
  8
0
 10
2456.5
 20
790.00001037944298
 42
-0
  0
VERTEX
  8
0
 10
2479.5
 20
672.00001037944298
 42
-0
  0
VERTEX
  8
0
 10
2463.8902435302734
 20
668.48780334819298
 42
-0.26658442616462708
  0
VERTEX
  8
0
 10
2444.8663368225098
 20
674.36710632670861
 42
0
  0
SEQEND
  0
POLYLINE
  8
0
 10
0
 20
0
 39
0
 70
1
 66
1
  0
VERTEX
  8
0
 10
2384.5
 20
816.00001037944298
 42
1
  0
VERTEX
  8
0
 10
2384.5
 20
796.00001037944298
 42
1
  0
SEQEND
  0
POLYLINE
  8
0
 10
0
 20
0
 39
0
 70
1
 66
1
  0
VERTEX
  8
0
 10
1207.3118041528739
 20
759.2300377324284
 42
0.28324300050735474
  0
VERTEX
  8
0
 10
1212.1417184737929
 20
774.20270243490336
 42
0
  0
VERTEX
  8
0
 10
1208.3954211419289
 20
789.51255647503672
 42
-1
  0
VERTEX
  8
0
 10
1262.7905780022804
 20
802.82296625935373
 42
0
  0
VERTEX
  8
0
 10
1292.5013141279881
 20
681.40520541035471
 42
-1
  0
VERTEX
  8
0
 10
1238.1061572676365
 20
668.09479562603769
 42
0.41421398520469666
  0
VERTEX
  8
0
 10
1226.01587750966
 20
675.43135760390101
 42
0
  0
VERTEX
  8
0
 10
1110.4261691814129
 20
647.14673681222735
 42
0
  0
VERTEX
  8
0
 10
1106.6798709428492
 20
662.45659455773671
 42
-0.28324300050735474
  0
VERTEX
  8
0
 10
1111.5097852637682
 20
677.42925926021167
 42
0
  0
SEQEND
  0
POLYLINE
  8
0
 10
0
 20
0
 39
0
 70
1
 66
1
  0
VERTEX
  8
0
 10
1232.7407689040367
 20
807.82386640869913
 42
1
  0
VERTEX
  8
0
 10
1238.4452302401726
 20
784.51165632569132
 42
1
  0
SEQEND
  0
POLYLINE
  8
0
 10
0
 20
0
 39
0
 70
1
 66
1
  0
VERTEX
  8
0
 10
1262.4515050297443
 20
686.40610555970011
 42
1
  0
VERTEX
  8
0
 10
1268.1559663658802
 20
663.0938954766923
 42
1
  0
SEQEND
  0
POLYLINE
  8
0
 10
0
 20
0
 39
0
 70
1
 66
1
  0
VERTEX
  8
0
 10
1762
 20
720.75
 42
-0
  0
VERTEX
  8
0
 10
1762
 20
845.75
 42
-0
  0
VERTEX
  8
0
 10
1942
 20
845.75
 42
-0
  0
VERTEX
  8
0
 10
1942
 20
720.75
 42
-0
  0
SEQEND
  0
POLYLINE
  8
0
 10
0
 20
0
 39
0
 70
1
 66
1
  0
VERTEX
  8
0
 10
1927.3353881835937
 20
773.22104835510254
 42
0.066269710659980774
  0
VERTEX
  8
0
 10
1927.3353881835937
 20
793.27895224094391
 42
-0
  0
VERTEX
  8
0
 10
1776.6646156311035
 20
793.27895224094391
 42
0.066269710659980774
  0
VERTEX
  8
0
 10
1776.6646156311035
 20
773.22104835510254
 42
0
  0
SEQEND
  0
ENDSEC
  0
EOF
