  0
SECTION
  2
ENTITIES
  0
POLYLINE
  8
0
 10
0
 20
0
 39
0
 70
1
 66
1
  0
VERTEX
  8
0
 10
0
 20
0
 42
0
  0
VERTEX
  8
0
 10
1200
 20
0
 42
-0
  0
VERTEX
  8
0
 10
1200
 20
700
 42
-0
  0
VERTEX
  8
0
 10
4.2899999552108506e-014
 20
700
 42
-0
  0
SEQEND
  0
POLYLINE
  8
0
 10
0
 20
0
 39
0
 70
1
 66
1
  0
VERTEX
  8
0
 10
1006
 20
679.37667307150457
 42
0
  0
VERTEX
  8
0
 10
1006
 20
595.37667307150457
 42
0
  0
VERTEX
  8
0
 10
1120
 20
595.37667307150457
 42
0
  0
VERTEX
  8
0
 10
1120
 20
679.37667307150457
 42
0
  0
SEQEND
  0
POLYLINE
  8
0
 10
0
 20
0
 39
0
 70
1
 66
1
  0
VERTEX
  8
0
 10
1063
 20
659.87667307150457
 42
-1
  0
VERTEX
  8
0
 10
1063
 20
614.87667307150457
 42
-1
  0
SEQEND
  0
POLYLINE
  8
0
 10
0
 20
0
 39
0
 70
1
 66
1
  0
VERTEX
  8
0
 10
1008.0000103607156
 20
582.87667307150457
 42
0
  0
VERTEX
  8
0
 10
1008.0000103607156
 20
352.87925180685613
 42
-0
  0
VERTEX
  8
0
 10
1036.0000103607156
 20
345.37667307150457
 42
0
  0
VERTEX
  8
0
 10
1089.5000103607156
 20
345.37667307150457
 42
-0
  0
VERTEX
  8
0
 10
1092.0000103607156
 20
347.87667307150457
 42
0
  0
VERTEX
  8
0
 10
1092.0000103607156
 20
582.87667307150457
 42
-0
  0
VERTEX
  8
0
 10
1089.5000103607156
 20
585.37667307150457
 42
0
  0
VERTEX
  8
0
 10
1010.5000103607156
 20
585.37667307150457
 42
0
  0
SEQEND
  0
POLYLINE
  8
0
 10
0
 20
0
 39
0
 70
1
 66
1
  0
VERTEX
  8
0
 10
1050.0000103607156
 20
483.37667307150457
 42
-1
  0
VERTEX
  8
0
 10
1050.0000103607156
 20
447.37667307150457
 42
-1
  0
SEQEND
  0
POLYLINE
  8
0
 10
0
 20
0
 39
0
 70
1
 66
1
  0
VERTEX
  8
0
 10
386.5
 20
596.13002602563881
 42
0
  0
VERTEX
  8
0
 10
616.49742126464844
 20
596.13002602563881
 42
-0
  0
VERTEX
  8
0
 10
624
 20
624.13002602563881
 42
0
  0
VERTEX
  8
0
 10
624
 20
677.63002602563881
 42
-0
  0
VERTEX
  8
0
 10
621.5
 20
680.13002602563881
 42
0
  0
VERTEX
  8
0
 10
386.5
 20
680.13002602563881
 42
-0
  0
VERTEX
  8
0
 10
384
 20
677.63002602563881
 42
0
  0
VERTEX
  8
0
 10
384
 20
598.63002602563881
 42
0
  0
SEQEND
  0
POLYLINE
  8
0
 10
0
 20
0
 39
0
 70
1
 66
1
  0
VERTEX
  8
0
 10
486
 20
638.13002602563881
 42
-1
  0
VERTEX
  8
0
 10
522
 20
638.13002602563881
 42
-1
  0
SEQEND
  0
POLYLINE
  8
0
 10
0
 20
0
 39
0
 70
1
 66
1
  0
VERTEX
  8
0
 10
914.00001036071558
 20
582.87667307150457
 42
0
  0
VERTEX
  8
0
 10
914.00001036071558
 20
352.87925180685613
 42
-0
  0
VERTEX
  8
0
 10
942.00001036071558
 20
345.37667307150457
 42
0
  0
VERTEX
  8
0
 10
995.50001036071558
 20
345.37667307150457
 42
-0
  0
VERTEX
  8
0
 10
998.00001036071558
 20
347.87667307150457
 42
0
  0
VERTEX
  8
0
 10
998.00001036071558
 20
582.87667307150457
 42
-0
  0
VERTEX
  8
0
 10
995.50001036071558
 20
585.37667307150457
 42
0
  0
VERTEX
  8
0
 10
916.50001036071558
 20
585.37667307150457
 42
0
  0
SEQEND
  0
POLYLINE
  8
0
 10
0
 20
0
 39
0
 70
1
 66
1
  0
VERTEX
  8
0
 10
956.00001036071558
 20
483.37667307150457
 42
-1
  0
VERTEX
  8
0
 10
956.00001036071558
 20
447.37667307150457
 42
-1
  0
SEQEND
  0
POLYLINE
  8
0
 10
0
 20
0
 39
0
 70
1
 66
1
  0
VERTEX
  8
0
 10
330
 20
150
 42
0
  0
VERTEX
  8
0
 10
290
 20
190
 42
0
  0
VERTEX
  8
0
 10
175
 20
190
 42
0
  0
VERTEX
  8
0
 10
175
 20
10
 42
0
  0
VERTEX
  8
0
 10
280
 20
10
 42
0
  0
VERTEX
  8
0
 10
330
 20
60
 42
0
  0
SEQEND
  0
POLYLINE
  8
0
 10
0
 20
0
 39
0
 70
1
 66
1
  0
VERTEX
  8
0
 10
280
 20
135
 42
-1
  0
VERTEX
  8
0
 10
280
 20
85
 42
-1
  0
SEQEND
  0
POLYLINE
  8
0
 10
0
 20
0
 39
0
 70
1
 66
1
  0
VERTEX
  8
0
 10
136.5
 20
596.13002602563881
 42
0
  0
VERTEX
  8
0
 10
366.49742126464844
 20
596.13002602563881
 42
-0
  0
VERTEX
  8
0
 10
374
 20
624.13002602563881
 42
0
  0
VERTEX
  8
0
 10
374
 20
677.63002602563881
 42
-0
  0
VERTEX
  8
0
 10
371.5
 20
680.13002602563881
 42
0
  0
VERTEX
  8
0
 10
136.5
 20
680.13002602563881
 42
-0
  0
VERTEX
  8
0
 10
134
 20
677.63002602563881
 42
0
  0
VERTEX
  8
0
 10
134
 20
598.63002602563881
 42
0
  0
SEQEND
  0
POLYLINE
  8
0
 10
0
 20
0
 39
0
 70
1
 66
1
  0
VERTEX
  8
0
 10
236
 20
638.13002602563881
 42
-1
  0
VERTEX
  8
0
 10
272
 20
638.13002602563881
 42
-1
  0
SEQEND
  0
POLYLINE
  8
0
 10
0
 20
0
 39
0
 70
1
 66
1
  0
VERTEX
  8
0
 10
660
 20
150
 42
0
  0
VERTEX
  8
0
 10
620
 20
190
 42
0
  0
VERTEX
  8
0
 10
505
 20
190
 42
0
  0
VERTEX
  8
0
 10
505
 20
10
 42
0
  0
VERTEX
  8
0
 10
610
 20
10
 42
0
  0
VERTEX
  8
0
 10
660
 20
60
 42
0
  0
SEQEND
  0
POLYLINE
  8
0
 10
0
 20
0
 39
0
 70
1
 66
1
  0
VERTEX
  8
0
 10
610
 20
135
 42
-1
  0
VERTEX
  8
0
 10
610
 20
85
 42
-1
  0
SEQEND
  0
POLYLINE
  8
0
 10
0
 20
0
 39
0
 70
1
 66
1
  0
VERTEX
  8
0
 10
330
 20
530
 42
0
  0
VERTEX
  8
0
 10
290
 20
570
 42
0
  0
VERTEX
  8
0
 10
175
 20
570
 42
0
  0
VERTEX
  8
0
 10
175
 20
390
 42
0
  0
VERTEX
  8
0
 10
280
 20
390
 42
0
  0
VERTEX
  8
0
 10
330
 20
440
 42
0
  0
SEQEND
  0
POLYLINE
  8
0
 10
0
 20
0
 39
0
 70
1
 66
1
  0
VERTEX
  8
0
 10
280
 20
515
 42
-1
  0
VERTEX
  8
0
 10
280
 20
465
 42
-1
  0
SEQEND
  0
POLYLINE
  8
0
 10
0
 20
0
 39
0
 70
1
 66
1
  0
VERTEX
  8
0
 10
165
 20
340
 42
0
  0
VERTEX
  8
0
 10
125
 20
380
 42
0
  0
VERTEX
  8
0
 10
10
 20
380
 42
0
  0
VERTEX
  8
0
 10
10.000000000000011
 20
200
 42
0
  0
VERTEX
  8
0
 10
115.00000000000001
 20
200
 42
0
  0
VERTEX
  8
0
 10
165
 20
250
 42
0
  0
SEQEND
  0
POLYLINE
  8
0
 10
0
 20
0
 39
0
 70
1
 66
1
  0
VERTEX
  8
0
 10
115
 20
325
 42
-1
  0
VERTEX
  8
0
 10
115
 20
275
 42
-1
  0
SEQEND
  0
POLYLINE
  8
0
 10
0
 20
0
 39
0
 70
1
 66
1
  0
VERTEX
  8
0
 10
165
 20
150
 42
0
  0
VERTEX
  8
0
 10
125
 20
190
 42
0
  0
VERTEX
  8
0
 10
10
 20
190
 42
0
  0
VERTEX
  8
0
 10
10.000000000000011
 20
10
 42
0
  0
VERTEX
  8
0
 10
115.00000000000001
 20
10
 42
0
  0
VERTEX
  8
0
 10
165
 20
60
 42
0
  0
SEQEND
  0
POLYLINE
  8
0
 10
0
 20
0
 39
0
 70
1
 66
1
  0
VERTEX
  8
0
 10
115
 20
135
 42
-1
  0
VERTEX
  8
0
 10
115
 20
85
 42
-1
  0
SEQEND
  0
POLYLINE
  8
0
 10
0
 20
0
 39
0
 70
1
 66
1
  0
VERTEX
  8
0
 10
1102.0000103607156
 20
582.87667307150457
 42
0
  0
VERTEX
  8
0
 10
1102.0000103607156
 20
352.87925180685613
 42
-0
  0
VERTEX
  8
0
 10
1130.0000103607156
 20
345.37667307150457
 42
0
  0
VERTEX
  8
0
 10
1183.5000103607156
 20
345.37667307150457
 42
-0
  0
VERTEX
  8
0
 10
1186.0000103607156
 20
347.87667307150457
 42
0
  0
VERTEX
  8
0
 10
1186.0000103607156
 20
582.87667307150457
 42
-0
  0
VERTEX
  8
0
 10
1183.5000103607156
 20
585.37667307150457
 42
0
  0
VERTEX
  8
0
 10
1104.5000103607156
 20
585.37667307150457
 42
0
  0
SEQEND
  0
POLYLINE
  8
0
 10
0
 20
0
 39
0
 70
1
 66
1
  0
VERTEX
  8
0
 10
1144.0000103607156
 20
483.37667307150457
 42
-1
  0
VERTEX
  8
0
 10
1144.0000103607156
 20
447.37667307150457
 42
-1
  0
SEQEND
  0
POLYLINE
  8
0
 10
0
 20
0
 39
0
 70
1
 66
1
  0
VERTEX
  8
0
 10
1118.7163918619403
 20
335.37605431838642
 42
1
  0
VERTEX
  8
0
 10
1119.2836220483655
 20
205.37729409499775
 42
1
  0
SEQEND
  0
POLYLINE
  8
0
 10
0
 20
0
 39
0
 70
1
 66
1
  0
VERTEX
  8
0
 10
1118.8691076813625
 20
300.37638810439717
 42
-1
  0
VERTEX
  8
0
 10
1119.1309062289433
 20
240.37696030898701
 42
-1
  0
SEQEND
  0
POLYLINE
  8
0
 10
0
 20
0
 39
0
 70
1
 66
1
  0
VERTEX
  8
0
 10
978.71639413231549
 20
335.37605431838642
 42
1
  0
VERTEX
  8
0
 10
979.28362431874064
 20
205.37729409499775
 42
1
  0
SEQEND
  0
POLYLINE
  8
0
 10
0
 20
0
 39
0
 70
1
 66
1
  0
VERTEX
  8
0
 10
978.86910995173764
 20
300.37638810439717
 42
-1
  0
VERTEX
  8
0
 10
979.13090849931848
 20
240.37696030898701
 42
-1
  0
SEQEND
  0
POLYLINE
  8
0
 10
0
 20
0
 39
0
 70
1
 66
1
  0
VERTEX
  8
0
 10
495
 20
340
 42
0
  0
VERTEX
  8
0
 10
455
 20
380
 42
0
  0
VERTEX
  8
0
 10
340
 20
380
 42
0
  0
VERTEX
  8
0
 10
340
 20
200
 42
0
  0
VERTEX
  8
0
 10
445
 20
200
 42
0
  0
VERTEX
  8
0
 10
495
 20
250
 42
0
  0
SEQEND
  0
POLYLINE
  8
0
 10
0
 20
0
 39
0
 70
1
 66
1
  0
VERTEX
  8
0
 10
445
 20
325
 42
-1
  0
VERTEX
  8
0
 10
445
 20
275
 42
-1
  0
SEQEND
  0
POLYLINE
  8
0
 10
0
 20
0
 39
0
 70
1
 66
1
  0
VERTEX
  8
0
 10
495
 20
530
 42
0
  0
VERTEX
  8
0
 10
455
 20
570
 42
0
  0
VERTEX
  8
0
 10
340
 20
570
 42
0
  0
VERTEX
  8
0
 10
340
 20
390
 42
0
  0
VERTEX
  8
0
 10
445
 20
390
 42
0
  0
VERTEX
  8
0
 10
495
 20
440
 42
0
  0
SEQEND
  0
POLYLINE
  8
0
 10
0
 20
0
 39
0
 70
1
 66
1
  0
VERTEX
  8
0
 10
445
 20
515
 42
-1
  0
VERTEX
  8
0
 10
445
 20
465
 42
-1
  0
SEQEND
  0
POLYLINE
  8
0
 10
0
 20
0
 39
0
 70
1
 66
1
  0
VERTEX
  8
0
 10
330
 20
340
 42
0
  0
VERTEX
  8
0
 10
290
 20
380
 42
0
  0
VERTEX
  8
0
 10
175
 20
380
 42
0
  0
VERTEX
  8
0
 10
175
 20
200
 42
0
  0
VERTEX
  8
0
 10
280
 20
200
 42
0
  0
VERTEX
  8
0
 10
330
 20
250
 42
0
  0
SEQEND
  0
POLYLINE
  8
0
 10
0
 20
0
 39
0
 70
1
 66
1
  0
VERTEX
  8
0
 10
280
 20
325
 42
-1
  0
VERTEX
  8
0
 10
280
 20
275
 42
-1
  0
SEQEND
  0
POLYLINE
  8
0
 10
0
 20
0
 39
0
 70
1
 66
1
  0
VERTEX
  8
0
 10
660
 20
530
 42
0
  0
VERTEX
  8
0
 10
620
 20
570
 42
0
  0
VERTEX
  8
0
 10
505
 20
570
 42
0
  0
VERTEX
  8
0
 10
505
 20
390
 42
0
  0
VERTEX
  8
0
 10
610
 20
390
 42
0
  0
VERTEX
  8
0
 10
660
 20
440
 42
0
  0
SEQEND
  0
POLYLINE
  8
0
 10
0
 20
0
 39
0
 70
1
 66
1
  0
VERTEX
  8
0
 10
610
 20
515
 42
-1
  0
VERTEX
  8
0
 10
610
 20
465
 42
-1
  0
SEQEND
  0
POLYLINE
  8
0
 10
0
 20
0
 39
0
 70
1
 66
1
  0
VERTEX
  8
0
 10
634
 20
680.13002602563881
 42
0
  0
VERTEX
  8
0
 10
634
 20
596.13002602563881
 42
0
  0
VERTEX
  8
0
 10
748
 20
596.13002602563881
 42
0
  0
VERTEX
  8
0
 10
748
 20
680.13002602563881
 42
0
  0
SEQEND
  0
POLYLINE
  8
0
 10
0
 20
0
 39
0
 70
1
 66
1
  0
VERTEX
  8
0
 10
691
 20
660.63002602563881
 42
-1
  0
VERTEX
  8
0
 10
691
 20
615.63002602563881
 42
-1
  0
SEQEND
  0
POLYLINE
  8
0
 10
0
 20
0
 39
0
 70
1
 66
1
  0
VERTEX
  8
0
 10
660
 20
340
 42
0
  0
VERTEX
  8
0
 10
620
 20
380
 42
0
  0
VERTEX
  8
0
 10
505
 20
380
 42
0
  0
VERTEX
  8
0
 10
505
 20
200
 42
0
  0
VERTEX
  8
0
 10
610
 20
200
 42
0
  0
VERTEX
  8
0
 10
660
 20
250
 42
0
  0
SEQEND
  0
POLYLINE
  8
0
 10
0
 20
0
 39
0
 70
1
 66
1
  0
VERTEX
  8
0
 10
610
 20
325
 42
-1
  0
VERTEX
  8
0
 10
610
 20
275
 42
-1
  0
SEQEND
  0
POLYLINE
  8
0
 10
0
 20
0
 39
0
 70
1
 66
1
  0
VERTEX
  8
0
 10
495
 20
150
 42
0
  0
VERTEX
  8
0
 10
455
 20
190
 42
0
  0
VERTEX
  8
0
 10
340
 20
190
 42
0
  0
VERTEX
  8
0
 10
340
 20
10
 42
0
  0
VERTEX
  8
0
 10
445
 20
10
 42
0
  0
VERTEX
  8
0
 10
495
 20
60
 42
0
  0
SEQEND
  0
POLYLINE
  8
0
 10
0
 20
0
 39
0
 70
1
 66
1
  0
VERTEX
  8
0
 10
445
 20
135
 42
-1
  0
VERTEX
  8
0
 10
445
 20
85
 42
-1
  0
SEQEND
  0
POLYLINE
  8
0
 10
0
 20
0
 39
0
 70
1
 66
1
  0
VERTEX
  8
0
 10
165
 20
530
 42
0
  0
VERTEX
  8
0
 10
125
 20
570
 42
0
  0
VERTEX
  8
0
 10
10
 20
570
 42
0
  0
VERTEX
  8
0
 10
10.000000000000011
 20
390
 42
0
  0
VERTEX
  8
0
 10
115.00000000000001
 20
390
 42
0
  0
VERTEX
  8
0
 10
165
 20
440
 42
0
  0
SEQEND
  0
POLYLINE
  8
0
 10
0
 20
0
 39
0
 70
1
 66
1
  0
VERTEX
  8
0
 10
115
 20
515
 42
-1
  0
VERTEX
  8
0
 10
115
 20
465
 42
-1
  0
SEQEND
  0
POLYLINE
  8
0
 10
0
 20
0
 39
0
 70
1
 66
1
  0
VERTEX
  8
0
 10
10
 20
664
 42
0
  0
VERTEX
  8
0
 10
10.000000000000004
 20
580
 42
0
  0
VERTEX
  8
0
 10
124
 20
580
 42
0
  0
VERTEX
  8
0
 10
124
 20
664
 42
0
  0
SEQEND
  0
POLYLINE
  8
0
 10
0
 20
0
 39
0
 70
1
 66
1
  0
VERTEX
  8
0
 10
67
 20
644.5
 42
-1
  0
VERTEX
  8
0
 10
67
 20
599.5
 42
-1
  0
SEQEND
  0
POLYLINE
  8
0
 10
0
 20
0
 39
0
 70
1
 66
1
  0
VERTEX
  8
0
 10
758
 20
680.13002602563881
 42
0
  0
VERTEX
  8
0
 10
758
 20
596.13002602563881
 42
0
  0
VERTEX
  8
0
 10
872
 20
596.13002602563881
 42
0
  0
VERTEX
  8
0
 10
872
 20
680.13002602563881
 42
0
  0
SEQEND
  0
POLYLINE
  8
0
 10
0
 20
0
 39
0
 70
1
 66
1
  0
VERTEX
  8
0
 10
815
 20
660.63002602563881
 42
-1
  0
VERTEX
  8
0
 10
815
 20
615.63002602563881
 42
-1
  0
SEQEND
  0
POLYLINE
  8
0
 10
0
 20
0
 39
0
 70
1
 66
1
  0
VERTEX
  8
0
 10
670.00020612904916
 20
456.90529540792488
 42
1.2110600471496582
  0
VERTEX
  8
0
 10
778.04750462317111
 20
477.41873065316156
 42
-0
  0
VERTEX
  8
0
 10
744.52918875047499
 20
561.83746484415929
 42
0.82572293281555176
  0
VERTEX
  8
0
 10
670.24666988423201
 20
547.73448857224253
 42
0
  0
SEQEND
  0
POLYLINE
  8
0
 10
0
 20
0
 39
0
 70
1
 66
1
  0
VERTEX
  8
0
 10
720.40428047288401
 20
486.2268672087929
 42
-1
  0
VERTEX
  8
0
 10
731.59572248567088
 20
427.27984167130205
 42
-1
  0
SEQEND
  0
POLYLINE
  8
0
 10
0
 20
0
 39
0
 70
1
 66
1
  0
VERTEX
  8
0
 10
728.67532293904765
 20
549.88682384283754
 42
0
  0
VERTEX
  8
0
 10
731.75296949256403
 20
533.67639182002756
 42
-1
  0
VERTEX
  8
0
 10
692.45495246757014
 20
526.21543047816965
 42
-0
  0
VERTEX
  8
0
 10
689.37730591405375
 20
542.42586250097963
 42
-1
  0
SEQEND
  0
POLYLINE
  8
0
 10
0
 20
0
 39
0
 70
1
 66
1
  0
VERTEX
  8
0
 10
792.00021130940695
 20
456.90529540792488
 42
1.2110600471496582
  0
VERTEX
  8
0
 10
900.0475098035289
 20
477.41873065316156
 42
-0
  0
VERTEX
  8
0
 10
866.52919393083278
 20
561.83746484415929
 42
0.82572293281555176
  0
VERTEX
  8
0
 10
792.24667506458979
 20
547.73448857224253
 42
0
  0
SEQEND
  0
POLYLINE
  8
0
 10
0
 20
0
 39
0
 70
1
 66
1
  0
VERTEX
  8
0
 10
842.4042856532418
 20
486.2268672087929
 42
-1
  0
VERTEX
  8
0
 10
853.59572766602867
 20
427.27984167130205
 42
-1
  0
SEQEND
  0
POLYLINE
  8
0
 10
0
 20
0
 39
0
 70
1
 66
1
  0
VERTEX
  8
0
 10
850.67532811940544
 20
549.88682384283754
 42
0
  0
VERTEX
  8
0
 10
853.75297467292182
 20
533.67639182002756
 42
-1
  0
VERTEX
  8
0
 10
814.45495764792793
 20
526.21543047816965
 42
-0
  0
VERTEX
  8
0
 10
811.37731109441154
 20
542.42586250097963
 42
-1
  0
SEQEND
  0
POLYLINE
  8
0
 10
0
 20
0
 39
0
 70
1
 66
1
  0
VERTEX
  8
0
 10
670.00020612904916
 20
261.52862006604528
 42
1.2110600471496582
  0
VERTEX
  8
0
 10
778.04750462317111
 20
282.04205531128196
 42
-0
  0
VERTEX
  8
0
 10
744.52918875047499
 20
366.46078950227968
 42
0.82572293281555176
  0
VERTEX
  8
0
 10
670.24666988423201
 20
352.35781323036292
 42
0
  0
SEQEND
  0
POLYLINE
  8
0
 10
0
 20
0
 39
0
 70
1
 66
1
  0
VERTEX
  8
0
 10
720.40428047288401
 20
290.85019186691329
 42
-1
  0
VERTEX
  8
0
 10
731.59572248567088
 20
231.90316632942245
 42
-1
  0
SEQEND
  0
POLYLINE
  8
0
 10
0
 20
0
 39
0
 70
1
 66
1
  0
VERTEX
  8
0
 10
728.67532293904765
 20
354.51014850095794
 42
0
  0
VERTEX
  8
0
 10
731.75296949256403
 20
338.29971647814796
 42
-1
  0
VERTEX
  8
0
 10
692.45495246757014
 20
330.83875513629005
 42
-0
  0
VERTEX
  8
0
 10
689.37730591405375
 20
347.04918715910003
 42
-1
  0
SEQEND
  0
POLYLINE
  8
0
 10
0
 20
0
 39
0
 70
1
 66
1
  0
VERTEX
  8
0
 10
914.00021648976485
 20
66.151944724165645
 42
1.2110600471496582
  0
VERTEX
  8
0
 10
1022.0475149838868
 20
86.665379969402352
 42
-0
  0
VERTEX
  8
0
 10
988.52919911119068
 20
171.08411416040008
 42
0.82572293281555176
  0
VERTEX
  8
0
 10
914.2466802449477
 20
156.98113788848332
 42
0
  0
SEQEND
  0
POLYLINE
  8
0
 10
0
 20
0
 39
0
 70
1
 66
1
  0
VERTEX
  8
0
 10
964.4042908335997
 20
95.473516525033688
 42
-1
  0
VERTEX
  8
0
 10
975.59573284638657
 20
36.526490987542843
 42
-1
  0
SEQEND
  0
POLYLINE
  8
0
 10
0
 20
0
 39
0
 70
1
 66
1
  0
VERTEX
  8
0
 10
972.67533329976334
 20
159.13347315907833
 42
0
  0
VERTEX
  8
0
 10
975.75297985327973
 20
142.92304113626835
 42
-1
  0
VERTEX
  8
0
 10
936.45496282828583
 20
135.46207979441044
 42
-0
  0
VERTEX
  8
0
 10
933.37731627476944
 20
151.67251181722042
 42
-1
  0
SEQEND
  0
POLYLINE
  8
0
 10
0
 20
0
 39
0
 70
1
 66
1
  0
VERTEX
  8
0
 10
670.00020612904916
 20
66.151944724165645
 42
1.2110600471496582
  0
VERTEX
  8
0
 10
778.04750462317111
 20
86.665379969402352
 42
-0
  0
VERTEX
  8
0
 10
744.52918875047499
 20
171.08411416040008
 42
0.82572293281555176
  0
VERTEX
  8
0
 10
670.24666988423201
 20
156.98113788848332
 42
0
  0
SEQEND
  0
POLYLINE
  8
0
 10
0
 20
0
 39
0
 70
1
 66
1
  0
VERTEX
  8
0
 10
720.40428047288401
 20
95.473516525033688
 42
-1
  0
VERTEX
  8
0
 10
731.59572248567088
 20
36.526490987542843
 42
-1
  0
SEQEND
  0
POLYLINE
  8
0
 10
0
 20
0
 39
0
 70
1
 66
1
  0
VERTEX
  8
0
 10
728.67532293904765
 20
159.13347315907833
 42
0
  0
VERTEX
  8
0
 10
731.75296949256403
 20
142.92304113626835
 42
-1
  0
VERTEX
  8
0
 10
692.45495246757014
 20
135.46207979441044
 42
-0
  0
VERTEX
  8
0
 10
689.37730591405375
 20
151.67251181722042
 42
-1
  0
SEQEND
  0
POLYLINE
  8
0
 10
0
 20
0
 39
0
 70
1
 66
1
  0
VERTEX
  8
0
 10
882
 20
680.13002602563881
 42
0
  0
VERTEX
  8
0
 10
882
 20
596.13002602563881
 42
0
  0
VERTEX
  8
0
 10
996
 20
596.13002602563881
 42
0
  0
VERTEX
  8
0
 10
996
 20
680.13002602563881
 42
0
  0
SEQEND
  0
POLYLINE
  8
0
 10
0
 20
0
 39
0
 70
1
 66
1
  0
VERTEX
  8
0
 10
939
 20
660.63002602563881
 42
-1
  0
VERTEX
  8
0
 10
939
 20
615.63002602563881
 42
-1
  0
SEQEND
  0
POLYLINE
  8
0
 10
0
 20
0
 39
0
 70
1
 66
1
  0
VERTEX
  8
0
 10
792.00021130940695
 20
261.52862006604528
 42
1.2110600471496582
  0
VERTEX
  8
0
 10
900.0475098035289
 20
282.04205531128196
 42
-0
  0
VERTEX
  8
0
 10
866.52919393083278
 20
366.46078950227968
 42
0.82572293281555176
  0
VERTEX
  8
0
 10
792.24667506458979
 20
352.35781323036292
 42
0
  0
SEQEND
  0
POLYLINE
  8
0
 10
0
 20
0
 39
0
 70
1
 66
1
  0
VERTEX
  8
0
 10
842.4042856532418
 20
290.85019186691329
 42
-1
  0
VERTEX
  8
0
 10
853.59572766602867
 20
231.90316632942245
 42
-1
  0
SEQEND
  0
POLYLINE
  8
0
 10
0
 20
0
 39
0
 70
1
 66
1
  0
VERTEX
  8
0
 10
850.67532811940544
 20
354.51014850095794
 42
0
  0
VERTEX
  8
0
 10
853.75297467292182
 20
338.29971647814796
 42
-1
  0
VERTEX
  8
0
 10
814.45495764792793
 20
330.83875513629005
 42
-0
  0
VERTEX
  8
0
 10
811.37731109441154
 20
347.04918715910003
 42
-1
  0
SEQEND
  0
POLYLINE
  8
0
 10
0
 20
0
 39
0
 70
1
 66
1
  0
VERTEX
  8
0
 10
792.00021130940695
 20
66.151944724165645
 42
1.2110600471496582
  0
VERTEX
  8
0
 10
900.0475098035289
 20
86.665379969402352
 42
-0
  0
VERTEX
  8
0
 10
866.52919393083278
 20
171.08411416040008
 42
0.82572293281555176
  0
VERTEX
  8
0
 10
792.24667506458979
 20
156.98113788848332
 42
0
  0
SEQEND
  0
POLYLINE
  8
0
 10
0
 20
0
 39
0
 70
1
 66
1
  0
VERTEX
  8
0
 10
842.4042856532418
 20
95.473516525033688
 42
-1
  0
VERTEX
  8
0
 10
853.59572766602867
 20
36.526490987542843
 42
-1
  0
SEQEND
  0
POLYLINE
  8
0
 10
0
 20
0
 39
0
 70
1
 66
1
  0
VERTEX
  8
0
 10
850.67532811940544
 20
159.13347315907833
 42
0
  0
VERTEX
  8
0
 10
853.75297467292182
 20
142.92304113626835
 42
-1
  0
VERTEX
  8
0
 10
814.45495764792793
 20
135.46207979441044
 42
-0
  0
VERTEX
  8
0
 10
811.37731109441154
 20
151.67251181722042
 42
-1
  0
SEQEND
  0
POLYLINE
  8
0
 10
0
 20
0
 39
0
 70
1
 66
1
  0
VERTEX
  8
0
 10
1036.0002216701225
 20
66.151944724165645
 42
1.2110600471496582
  0
VERTEX
  8
0
 10
1144.0475201642446
 20
86.665379969402352
 42
-0
  0
VERTEX
  8
0
 10
1110.5292042915485
 20
171.08411416040008
 42
0.82572293281555176
  0
VERTEX
  8
0
 10
1036.2466854253055
 20
156.98113788848332
 42
0
  0
SEQEND
  0
POLYLINE
  8
0
 10
0
 20
0
 39
0
 70
1
 66
1
  0
VERTEX
  8
0
 10
1086.4042960139575
 20
95.473516525033688
 42
-1
  0
VERTEX
  8
0
 10
1097.5957380267444
 20
36.526490987542843
 42
-1
  0
SEQEND
  0
POLYLINE
  8
0
 10
0
 20
0
 39
0
 70
1
 66
1
  0
VERTEX
  8
0
 10
1094.6753384801211
 20
159.13347315907833
 42
0
  0
VERTEX
  8
0
 10
1097.7529850336375
 20
142.92304113626835
 42
-1
  0
VERTEX
  8
0
 10
1058.4549680086436
 20
135.46207979441044
 42
-0
  0
VERTEX
  8
0
 10
1055.3773214551272
 20
151.67251181722042
 42
-1
  0
SEQEND
  0
ENDSEC
  0
EOF
