  0
SECTION
  2
ENTITIES
  0
POLYLINE
  8
0
 10
0
 20
0
 39
0
 70
1
 66
1
  0
VERTEX
  8
0
 10
0
 20
0
 42
-0
  0
VERTEX
  8
0
 10
1200
 20
0
 42
-0
  0
VERTEX
  8
0
 10
1200
 20
600
 42
-0
  0
VERTEX
  8
0
 10
0
 20
600
 42
-0
  0
SEQEND
  0
POLYLINE
  8
0
 10
0
 20
0
 39
0
 70
1
 66
1
  0
VERTEX
  8
0
 10
195.96720887013379
 20
380.15823238427419
 42
-1
  0
VERTEX
  8
0
 10
194.35278449338529
 20
10.161760979244889
 42
-1
  0
SEQEND
  0
POLYLINE
  8
0
 10
0
 20
0
 39
0
 70
1
 66
1
  0
VERTEX
  8
0
 10
195.81449305071163
 20
345.15856617028493
 42
1
  0
VERTEX
  8
0
 10
194.50550031280744
 20
45.161427193234147
 42
1
  0
SEQEND
  0
POLYLINE
  8
0
 10
0
 20
0
 39
0
 70
1
 66
1
  0
VERTEX
  8
0
 10
200.5622797442341
 20
373.43593983983681
 42
1
  0
VERTEX
  8
0
 10
200.46628694345446
 20
351.43614964818642
 42
1
  0
SEQEND
  0
POLYLINE
  8
0
 10
0
 20
0
 39
0
 70
1
 66
1
  0
VERTEX
  8
0
 10
513.36720887013382
 20
589.79823238427412
 42
-1
  0
VERTEX
  8
0
 10
511.75278449338532
 20
219.80176097924488
 42
-1
  0
SEQEND
  0
POLYLINE
  8
0
 10
0
 20
0
 39
0
 70
1
 66
1
  0
VERTEX
  8
0
 10
513.21449305071167
 20
554.79856617028486
 42
1
  0
VERTEX
  8
0
 10
511.90550031280748
 20
254.80142719323413
 42
1
  0
SEQEND
  0
POLYLINE
  8
0
 10
0
 20
0
 39
0
 70
1
 66
1
  0
VERTEX
  8
0
 10
517.96227974423414
 20
583.07593983983679
 42
1
  0
VERTEX
  8
0
 10
517.8662869434545
 20
561.0761496481864
 42
1
  0
SEQEND
  0
POLYLINE
  8
0
 10
0
 20
0
 39
0
 70
1
 66
1
  0
VERTEX
  8
0
 10
830.76720887013369
 20
380.15823238427419
 42
-1
  0
VERTEX
  8
0
 10
829.15278449338518
 20
10.161760979244889
 42
-1
  0
SEQEND
  0
POLYLINE
  8
0
 10
0
 20
0
 39
0
 70
1
 66
1
  0
VERTEX
  8
0
 10
830.61449305071153
 20
345.15856617028493
 42
1
  0
VERTEX
  8
0
 10
829.30550031280734
 20
45.161427193234147
 42
1
  0
SEQEND
  0
POLYLINE
  8
0
 10
0
 20
0
 39
0
 70
1
 66
1
  0
VERTEX
  8
0
 10
835.362279744234
 20
373.43593983983681
 42
1
  0
VERTEX
  8
0
 10
835.26628694345436
 20
351.43614964818642
 42
1
  0
SEQEND
  0
POLYLINE
  8
0
 10
0
 20
0
 39
0
 70
1
 66
1
  0
VERTEX
  8
0
 10
191.10904428703759
 20
330.07871009465356
 42
-1
  0
VERTEX
  8
0
 10
189.93095082292382
 20
60.081285015307856
 42
-1
  0
SEQEND
  0
POLYLINE
  8
0
 10
0
 20
0
 39
0
 70
1
 66
1
  0
VERTEX
  8
0
 10
190.89524213984657
 20
281.0791773950686
 42
1
  0
VERTEX
  8
0
 10
190.14475297011484
 20
109.08081771489282
 42
1
  0
SEQEND
  0
POLYLINE
  8
0
 10
0
 20
0
 39
0
 70
1
 66
1
  0
VERTEX
  8
0
 10
508.50904428703757
 20
539.71871009465349
 42
-1
  0
VERTEX
  8
0
 10
507.3309508229238
 20
269.72128501530784
 42
-1
  0
SEQEND
  0
POLYLINE
  8
0
 10
0
 20
0
 39
0
 70
1
 66
1
  0
VERTEX
  8
0
 10
508.29524213984655
 20
490.71917739506858
 42
1
  0
VERTEX
  8
0
 10
507.54475297011481
 20
318.7208177148928
 42
1
  0
SEQEND
  0
POLYLINE
  8
0
 10
0
 20
0
 39
0
 70
1
 66
1
  0
VERTEX
  8
0
 10
825.90904428703755
 20
330.07871009465356
 42
-1
  0
VERTEX
  8
0
 10
824.73095082292377
 20
60.081285015307856
 42
-1
  0
SEQEND
  0
POLYLINE
  8
0
 10
0
 20
0
 39
0
 70
1
 66
1
  0
VERTEX
  8
0
 10
825.69524213984653
 20
281.0791773950686
 42
1
  0
VERTEX
  8
0
 10
824.94475297011479
 20
109.08081771489282
 42
1
  0
SEQEND
  0
POLYLINE
  8
0
 10
0
 20
0
 39
0
 70
1
 66
1
  0
VERTEX
  8
0
 10
1034.8290442870375
 20
589.75871009465357
 42
-1
  0
VERTEX
  8
0
 10
1033.6509508229237
 20
319.76128501530786
 42
-1
  0
SEQEND
  0
POLYLINE
  8
0
 10
0
 20
0
 39
0
 70
1
 66
1
  0
VERTEX
  8
0
 10
1034.6152421398465
 20
540.7591773950686
 42
1
  0
VERTEX
  8
0
 10
1033.8647529701148
 20
368.76081771489282
 42
1
  0
SEQEND
  0
POLYLINE
  8
0
 10
0
 20
0
 39
0
 70
1
 66
1
  0
VERTEX
  8
0
 10
45.159996459233909
 20
582.1599968582301
 42
-0
  0
VERTEX
  8
0
 10
125.15999645923391
 20
582.1599968582301
 42
-0
  0
VERTEX
  8
0
 10
157.58444637988822
 20
461.64586721955823
 42
-1.3046128749847412
  0
VERTEX
  8
0
 10
12.735550353276878
 20
461.64586721955823
 42
0
  0
SEQEND
  0
POLYLINE
  8
0
 10
0
 20
0
 39
0
 70
1
 66
1
  0
VERTEX
  8
0
 10
103.65999645923391
 20
442.1599968582301
 42
1
  0
VERTEX
  8
0
 10
66.659996459233909
 20
442.1599968582301
 42
1
  0
SEQEND
  0
POLYLINE
  8
0
 10
0
 20
0
 39
0
 70
1
 66
1
  0
VERTEX
  8
0
 10
582.1599968582301
 20
125.16000027393119
 42
-0
  0
VERTEX
  8
0
 10
582.1599968582301
 20
45.160000273931182
 42
-0
  0
VERTEX
  8
0
 10
461.64586721955823
 20
12.735550353276878
 42
-1.3046128749847412
  0
VERTEX
  8
0
 10
461.64586721955823
 20
157.58444637988819
 42
0
  0
SEQEND
  0
POLYLINE
  8
0
 10
0
 20
0
 39
0
 70
1
 66
1
  0
VERTEX
  8
0
 10
442.1599968582301
 20
66.660000273931175
 42
1
  0
VERTEX
  8
0
 10
442.1599968582301
 20
103.66000027393117
 42
1
  0
SEQEND
  0
POLYLINE
  8
0
 10
0
 20
0
 39
0
 70
1
 66
1
  0
VERTEX
  8
0
 10
1040.3199964592338
 20
225.15999685823016
 42
-0
  0
VERTEX
  8
0
 10
1120.3199964592338
 20
225.15999685823016
 42
-0
  0
VERTEX
  8
0
 10
1152.7444463798881
 20
104.64586721955827
 42
-1.3046128749847412
  0
VERTEX
  8
0
 10
1007.8955503532768
 20
104.64586721955827
 42
0
  0
SEQEND
  0
POLYLINE
  8
0
 10
0
 20
0
 39
0
 70
1
 66
1
  0
VERTEX
  8
0
 10
1098.8199964592338
 20
85.159996858230144
 42
1
  0
VERTEX
  8
0
 10
1061.8199964592338
 20
85.159996858230144
 42
1
  0
SEQEND
  0
POLYLINE
  8
0
 10
0
 20
0
 39
0
 70
1
 66
1
  0
VERTEX
  8
0
 10
180.20361387070292
 20
259.19937888918469
 42
-1
  0
VERTEX
  8
0
 10
179.63638368427777
 20
129.20061866579601
 42
-1
  0
SEQEND
  0
POLYLINE
  8
0
 10
0
 20
0
 39
0
 70
1
 66
1
  0
VERTEX
  8
0
 10
180.05089805128077
 20
224.19971267519543
 42
1
  0
VERTEX
  8
0
 10
179.78909950369993
 20
164.20028487978527
 42
1
  0
SEQEND
  0
POLYLINE
  8
0
 10
0
 20
0
 39
0
 70
1
 66
1
  0
VERTEX
  8
0
 10
218.96361387070291
 20
589.67937888918459
 42
-1
  0
VERTEX
  8
0
 10
218.39638368427777
 20
459.68061866579592
 42
-1
  0
SEQEND
  0
POLYLINE
  8
0
 10
0
 20
0
 39
0
 70
1
 66
1
  0
VERTEX
  8
0
 10
218.81089805128076
 20
554.67971267519533
 42
1
  0
VERTEX
  8
0
 10
218.54909950369992
 20
494.68028487978518
 42
1
  0
SEQEND
  0
POLYLINE
  8
0
 10
0
 20
0
 39
0
 70
1
 66
1
  0
VERTEX
  8
0
 10
497.60361387070293
 20
468.83937888918467
 42
-1
  0
VERTEX
  8
0
 10
497.03638368427778
 20
338.840618665796
 42
-1
  0
SEQEND
  0
POLYLINE
  8
0
 10
0
 20
0
 39
0
 70
1
 66
1
  0
VERTEX
  8
0
 10
497.45089805128077
 20
433.83971267519541
 42
1
  0
VERTEX
  8
0
 10
497.18909950369994
 20
373.84028487978526
 42
1
  0
SEQEND
  0
POLYLINE
  8
0
 10
0
 20
0
 39
0
 70
1
 66
1
  0
VERTEX
  8
0
 10
743.96361387070283
 20
589.67937888918459
 42
-1
  0
VERTEX
  8
0
 10
743.39638368427768
 20
459.68061866579592
 42
-1
  0
SEQEND
  0
POLYLINE
  8
0
 10
0
 20
0
 39
0
 70
1
 66
1
  0
VERTEX
  8
0
 10
743.81089805128067
 20
554.67971267519533
 42
1
  0
VERTEX
  8
0
 10
743.54909950369984
 20
494.68028487978518
 42
1
  0
SEQEND
  0
POLYLINE
  8
0
 10
0
 20
0
 39
0
 70
1
 66
1
  0
VERTEX
  8
0
 10
815.00361387070279
 20
259.19937888918469
 42
-1
  0
VERTEX
  8
0
 10
814.43638368427764
 20
129.20061866579601
 42
-1
  0
SEQEND
  0
POLYLINE
  8
0
 10
0
 20
0
 39
0
 70
1
 66
1
  0
VERTEX
  8
0
 10
814.85089805128064
 20
224.19971267519543
 42
1
  0
VERTEX
  8
0
 10
814.5890995036998
 20
164.20028487978527
 42
1
  0
SEQEND
  0
POLYLINE
  8
0
 10
0
 20
0
 39
0
 70
1
 66
1
  0
VERTEX
  8
0
 10
1023.9236138707029
 20
518.87937888918464
 42
-1
  0
VERTEX
  8
0
 10
1023.3563836842777
 20
388.88061866579602
 42
-1
  0
SEQEND
  0
POLYLINE
  8
0
 10
0
 20
0
 39
0
 70
1
 66
1
  0
VERTEX
  8
0
 10
1023.7708980512807
 20
483.87971267519544
 42
1
  0
VERTEX
  8
0
 10
1023.5090995036999
 20
423.88028487978528
 42
1
  0
SEQEND
  0
POLYLINE
  8
0
 10
0
 20
0
 39
0
 70
1
 66
1
  0
VERTEX
  8
0
 10
265.24000000000001
 20
389.59999999999997
 42
-0
  0
VERTEX
  8
0
 10
215.24000000000001
 20
389.59999999999997
 42
-1
  0
VERTEX
  8
0
 10
215.24000000000001
 20
449.59999999999997
 42
0
  0
VERTEX
  8
0
 10
265.24000000000001
 20
449.59999999999997
 42
-1
  0
SEQEND
  0
POLYLINE
  8
0
 10
0
 20
0
 39
0
 70
1
 66
1
  0
VERTEX
  8
0
 10
254.24000000000001
 20
419.59999999999997
 42
1
  0
VERTEX
  8
0
 10
226.24000000000001
 20
419.59999999999997
 42
1
  0
SEQEND
  0
POLYLINE
  8
0
 10
0
 20
0
 39
0
 70
1
 66
1
  0
VERTEX
  8
0
 10
582.51999999999998
 20
150.31999999999999
 42
-0
  0
VERTEX
  8
0
 10
532.51999999999998
 20
150.31999999999999
 42
-1
  0
VERTEX
  8
0
 10
532.51999999999998
 20
210.31999999999999
 42
0
  0
VERTEX
  8
0
 10
582.51999999999998
 20
210.31999999999999
 42
-1
  0
SEQEND
  0
POLYLINE
  8
0
 10
0
 20
0
 39
0
 70
1
 66
1
  0
VERTEX
  8
0
 10
571.51999999999998
 20
180.31999999999999
 42
1
  0
VERTEX
  8
0
 10
543.51999999999998
 20
180.31999999999999
 42
1
  0
SEQEND
  0
POLYLINE
  8
0
 10
0
 20
0
 39
0
 70
1
 66
1
  0
VERTEX
  8
0
 10
592.27999999999997
 20
40.159999999999997
 42
-0
  0
VERTEX
  8
0
 10
592.27999999999997
 20
90.159999999999997
 42
-1
  0
VERTEX
  8
0
 10
652.27999999999997
 20
90.159999999999997
 42
0
  0
VERTEX
  8
0
 10
652.27999999999997
 20
40.160000000000004
 42
-1
  0
SEQEND
  0
POLYLINE
  8
0
 10
0
 20
0
 39
0
 70
1
 66
1
  0
VERTEX
  8
0
 10
622.27999999999997
 20
51.159999999999997
 42
1
  0
VERTEX
  8
0
 10
622.27999999999997
 20
79.159999999999997
 42
1
  0
SEQEND
  0
POLYLINE
  8
0
 10
0
 20
0
 39
0
 70
1
 66
1
  0
VERTEX
  8
0
 10
787.4799999999999
 20
387.67999999999995
 42
-0
  0
VERTEX
  8
0
 10
737.4799999999999
 20
387.67999999999995
 42
-1
  0
VERTEX
  8
0
 10
737.4799999999999
 20
447.67999999999995
 42
0
  0
VERTEX
  8
0
 10
787.4799999999999
 20
447.67999999999995
 42
-1
  0
SEQEND
  0
POLYLINE
  8
0
 10
0
 20
0
 39
0
 70
1
 66
1
  0
VERTEX
  8
0
 10
776.4799999999999
 20
417.67999999999995
 42
1
  0
VERTEX
  8
0
 10
748.4799999999999
 20
417.67999999999995
 42
1
  0
SEQEND
  0
POLYLINE
  8
0
 10
0
 20
0
 39
0
 70
1
 66
1
  0
VERTEX
  8
0
 10
817.15999999999997
 20
454.88
 42
-0
  0
VERTEX
  8
0
 10
817.15999999999997
 20
504.88
 42
-1
  0
VERTEX
  8
0
 10
877.15999999999997
 20
504.88
 42
0
  0
VERTEX
  8
0
 10
877.15999999999997
 20
454.88
 42
-1
  0
SEQEND
  0
POLYLINE
  8
0
 10
0
 20
0
 39
0
 70
1
 66
1
  0
VERTEX
  8
0
 10
847.15999999999997
 20
465.88
 42
1
  0
VERTEX
  8
0
 10
847.15999999999997
 20
493.88
 42
1
  0
SEQEND
  0
POLYLINE
  8
0
 10
0
 20
0
 39
0
 70
1
 66
1
  0
VERTEX
  8
0
 10
1088.9200000000001
 20
249.55999999999997
 42
-0
  0
VERTEX
  8
0
 10
1038.9200000000001
 20
249.55999999999997
 42
-1
  0
VERTEX
  8
0
 10
1038.9200000000001
 20
309.55999999999995
 42
0
  0
VERTEX
  8
0
 10
1088.9200000000001
 20
309.55999999999995
 42
-1
  0
SEQEND
  0
POLYLINE
  8
0
 10
0
 20
0
 39
0
 70
1
 66
1
  0
VERTEX
  8
0
 10
1077.9200000000001
 20
279.55999999999995
 42
1
  0
VERTEX
  8
0
 10
1049.9200000000001
 20
279.55999999999995
 42
1
  0
SEQEND
  0
POLYLINE
  8
0
 10
0
 20
0
 39
0
 70
1
 66
1
  0
VERTEX
  8
0
 10
1129.04
 20
230.71999999999997
 42
-0
  0
VERTEX
  8
0
 10
1129.04
 20
340.71999999999997
 42
-0
  0
VERTEX
  8
0
 10
1179.04
 20
340.71999999999997
 42
-0
  0
VERTEX
  8
0
 10
1179.04
 20
230.71999999999997
 42
0
  0
SEQEND
  0
POLYLINE
  8
0
 10
0
 20
0
 39
0
 70
1
 66
1
  0
VERTEX
  8
0
 10
1154.04
 20
270.71999999999997
 42
1
  0
VERTEX
  8
0
 10
1154.04
 20
300.71999999999997
 42
1
  0
SEQEND
  0
POLYLINE
  8
0
 10
0
 20
0
 39
0
 70
1
 66
1
  0
VERTEX
  8
0
 10
329.83999999999997
 20
473.96000000000004
 42
0
  0
VERTEX
  8
0
 10
293.83999999999997
 20
473.96000000000004
 42
0
  0
VERTEX
  8
0
 10
293.83999999999997
 20
573.96000000000004
 42
0
  0
VERTEX
  8
0
 10
329.83999999999997
 20
573.96000000000004
 42
0
  0
SEQEND
  0
POLYLINE
  8
0
 10
0
 20
0
 39
0
 70
1
 66
1
  0
VERTEX
  8
0
 10
311.83999999999997
 20
512.96000000000004
 42
1
  0
VERTEX
  8
0
 10
311.83999999999997
 20
534.96000000000004
 42
1
  0
SEQEND
  0
POLYLINE
  8
0
 10
0
 20
0
 39
0
 70
1
 66
1
  0
VERTEX
  8
0
 10
490.31999999999999
 20
206.23999999999998
 42
0
  0
VERTEX
  8
0
 10
490.31999999999999
 20
170.23999999999998
 42
0
  0
VERTEX
  8
0
 10
390.31999999999999
 20
170.23999999999998
 42
0
  0
VERTEX
  8
0
 10
390.31999999999999
 20
206.23999999999998
 42
0
  0
SEQEND
  0
POLYLINE
  8
0
 10
0
 20
0
 39
0
 70
1
 66
1
  0
VERTEX
  8
0
 10
451.31999999999999
 20
188.23999999999998
 42
1
  0
VERTEX
  8
0
 10
429.31999999999999
 20
188.23999999999998
 42
1
  0
SEQEND
  0
POLYLINE
  8
0
 10
0
 20
0
 39
0
 70
1
 66
1
  0
VERTEX
  8
0
 10
913.19999999999993
 20
589.75999999999999
 42
0
  0
VERTEX
  8
0
 10
913.19999999999993
 20
553.75999999999999
 42
0
  0
VERTEX
  8
0
 10
813.19999999999993
 20
553.75999999999999
 42
0
  0
VERTEX
  8
0
 10
813.19999999999993
 20
589.75999999999999
 42
0
  0
SEQEND
  0
POLYLINE
  8
0
 10
0
 20
0
 39
0
 70
1
 66
1
  0
VERTEX
  8
0
 10
874.19999999999993
 20
571.75999999999999
 42
1
  0
VERTEX
  8
0
 10
852.19999999999993
 20
571.75999999999999
 42
1
  0
SEQEND
  0
ENDSEC
  0
EOF
