  0
SECTION
  2
ENTITIES
  0
POLYLINE
  8
0
 10
0
 20
0
 39
0
 70
1
 66
1
  0
VERTEX
  8
0
 10
0
 20
0
 42
0
  0
VERTEX
  8
0
 10
4000
 20
0
 42
0
  0
VERTEX
  8
0
 10
4000
 20
1500
 42
0
  0
VERTEX
  8
0
 10
0
 20
1500
 42
0
  0
SEQEND
  0
POLYLINE
  8
0
 10
0
 20
0
 39
0
 70
1
 66
1
  0
VERTEX
  8
0
 10
3843.8635152388115
 20
369.99999668731198
 42
0.94444441795349121
  0
VERTEX
  8
0
 10
3843.8634999800224
 20
10
 42
0
  0
VERTEX
  8
0
 10
3973.8634999800224
 20
10
 42
0
  0
VERTEX
  8
0
 10
3973.8634999800224
 20
370
 42
0
  0
SEQEND
  0
POLYLINE
  8
0
 10
0
 20
0
 39
0
 70
1
 66
1
  0
VERTEX
  8
0
 10
3913.8634999800224
 20
200.50000000000003
 42
-1
  0
VERTEX
  8
0
 10
3913.8634999800224
 20
179.50000000000003
 42
-1
  0
SEQEND
  0
POLYLINE
  8
0
 10
0
 20
0
 39
0
 70
1
 66
1
  0
VERTEX
  8
0
 10
3793.8634999800224
 20
190
 42
0.41421356797218323
  0
VERTEX
  8
0
 10
3913.8634999800224
 20
70
 42
-1
  0
VERTEX
  8
0
 10
3913.8634999800224
 20
48
 42
-0.41421356797218323
  0
VERTEX
  8
0
 10
3771.8634999800224
 20
190
 42
-1
  0
SEQEND
  0
POLYLINE
  8
0
 10
0
 20
0
 39
0
 70
1
 66
1
  0
VERTEX
  8
0
 10
1295.0000144093178
 20
10
 42
0
  0
VERTEX
  8
0
 10
1295.0000144093178
 20
860
 42
0
  0
VERTEX
  8
0
 10
1235.0000144093178
 20
860
 42
0
  0
VERTEX
  8
0
 10
1235.0000144093178
 20
10
 42
0
  0
SEQEND
  0
POLYLINE
  8
0
 10
0
 20
0
 39
0
 70
1
 66
1
  0
VERTEX
  8
0
 10
1265.0000144093178
 20
820.625
 42
-1
  0
VERTEX
  8
0
 10
1265.0000144093178
 20
803.375
 42
-1
  0
SEQEND
  0
POLYLINE
  8
0
 10
0
 20
0
 39
0
 70
1
 66
1
  0
VERTEX
  8
0
 10
1265.0000144093178
 20
220.625
 42
-1
  0
VERTEX
  8
0
 10
1265.0000144093178
 20
203.375
 42
-1
  0
SEQEND
  0
POLYLINE
  8
0
 10
0
 20
0
 39
0
 70
1
 66
1
  0
VERTEX
  8
0
 10
2139.9999860379094
 20
1470.0000096958897
 42
0
  0
VERTEX
  8
0
 10
1289.9999860379094
 20
1470.0000096958897
 42
0
  0
VERTEX
  8
0
 10
1289.9999860379094
 20
1410.0000096958897
 42
0
  0
VERTEX
  8
0
 10
2139.9999860379094
 20
1410.0000096958897
 42
0
  0
SEQEND
  0
POLYLINE
  8
0
 10
0
 20
0
 39
0
 70
1
 66
1
  0
VERTEX
  8
0
 10
1329.3749860379094
 20
1440.0000096958897
 42
-1
  0
VERTEX
  8
0
 10
1346.6249860379094
 20
1440.0000096958897
 42
-1
  0
SEQEND
  0
POLYLINE
  8
0
 10
0
 20
0
 39
0
 70
1
 66
1
  0
VERTEX
  8
0
 10
1929.3749860379094
 20
1440.0000096958897
 42
-1
  0
VERTEX
  8
0
 10
1946.6249860379094
 20
1440.0000096958897
 42
-1
  0
SEQEND
  0
POLYLINE
  8
0
 10
0
 20
0
 39
0
 70
1
 66
1
  0
VERTEX
  8
0
 10
2639.9999862634181
 20
254
 42
-0
  0
VERTEX
  8
0
 10
2639.9999786340236
 20
10
 42
-0
  0
VERTEX
  8
0
 10
2699.9999786340236
 20
10
 42
-0
  0
VERTEX
  8
0
 10
2824.9999786340236
 20
650
 42
-0
  0
VERTEX
  8
0
 10
2824.9999786340236
 20
930
 42
-0
  0
VERTEX
  8
0
 10
2794.9999786340236
 20
1060
 42
-0
  0
VERTEX
  8
0
 10
2594.9999786340236
 20
1060
 42
0
  0
VERTEX
  8
0
 10
2589.9999786340236
 20
990
 42
-0.7645079493522644
  0
VERTEX
  8
0
 10
2589.99997575216
 20
604
 42
-0.25831884145736694
  0
SEQEND
  0
POLYLINE
  8
0
 10
0
 20
0
 39
0
 70
1
 66
1
  0
VERTEX
  8
0
 10
2772.9999786340236
 20
600
 42
-1
  0
VERTEX
  8
0
 10
2772.9999786340236
 20
560
 42
-1
  0
SEQEND
  0
POLYLINE
  8
0
 10
0
 20
0
 39
0
 70
1
 66
1
  0
VERTEX
  8
0
 10
2772.9999786340236
 20
1045
 42
-1
  0
VERTEX
  8
0
 10
2772.9999786340236
 20
1005
 42
-1
  0
SEQEND
  0
POLYLINE
  8
0
 10
0
 20
0
 39
0
 70
1
 66
1
  0
VERTEX
  8
0
 10
1040.0000220387124
 20
254
 42
-0
  0
VERTEX
  8
0
 10
1040.0000144093178
 20
10
 42
-0
  0
VERTEX
  8
0
 10
1100.0000144093178
 20
10
 42
-0
  0
VERTEX
  8
0
 10
1225.0000144093178
 20
650
 42
-0
  0
VERTEX
  8
0
 10
1225.0000144093178
 20
930
 42
-0
  0
VERTEX
  8
0
 10
1195.0000144093178
 20
1060
 42
-0
  0
VERTEX
  8
0
 10
995.00001440931783
 20
1060
 42
0
  0
VERTEX
  8
0
 10
990.00001440931783
 20
990
 42
-0.7645079493522644
  0
VERTEX
  8
0
 10
990.00001152745426
 20
604
 42
-0.25831884145736694
  0
SEQEND
  0
POLYLINE
  8
0
 10
0
 20
0
 39
0
 70
1
 66
1
  0
VERTEX
  8
0
 10
1173.0000144093178
 20
600
 42
-1
  0
VERTEX
  8
0
 10
1173.0000144093178
 20
560
 42
-1
  0
SEQEND
  0
POLYLINE
  8
0
 10
0
 20
0
 39
0
 70
1
 66
1
  0
VERTEX
  8
0
 10
1173.0000144093178
 20
1045
 42
-1
  0
VERTEX
  8
0
 10
1173.0000144093178
 20
1005
 42
-1
  0
SEQEND
  0
POLYLINE
  8
0
 10
0
 20
0
 39
0
 70
1
 66
1
  0
VERTEX
  8
0
 10
60.000010511258118
 20
254
 42
-0
  0
VERTEX
  8
0
 10
60.000002881863601
 20
10
 42
-0
  0
VERTEX
  8
0
 10
120.00000288186361
 20
10
 42
-0
  0
VERTEX
  8
0
 10
245.00000288186357
 20
650
 42
-0
  0
VERTEX
  8
0
 10
245.00000288186354
 20
930
 42
-0
  0
VERTEX
  8
0
 10
215.00000288186354
 20
1060
 42
-0
  0
VERTEX
  8
0
 10
15.000002881863537
 20
1060
 42
0
  0
VERTEX
  8
0
 10
10.000002881863541
 20
990
 42
-0.7645079493522644
  0
VERTEX
  8
0
 10
10
 20
604
 42
-0.25831884145736694
  0
SEQEND
  0
POLYLINE
  8
0
 10
0
 20
0
 39
0
 70
1
 66
1
  0
VERTEX
  8
0
 10
193.00000288186357
 20
600
 42
-1
  0
VERTEX
  8
0
 10
193.00000288186357
 20
560
 42
-1
  0
SEQEND
  0
POLYLINE
  8
0
 10
0
 20
0
 39
0
 70
1
 66
1
  0
VERTEX
  8
0
 10
193.00000288186354
 20
1045
 42
-1
  0
VERTEX
  8
0
 10
193.00000288186354
 20
1005
 42
-1
  0
SEQEND
  0
POLYLINE
  8
0
 10
0
 20
0
 39
0
 70
1
 66
1
  0
VERTEX
  8
0
 10
1575.0000144093178
 20
10
 42
0
  0
VERTEX
  8
0
 10
1575.0000144093178
 20
860
 42
0
  0
VERTEX
  8
0
 10
1515.0000144093178
 20
860
 42
0
  0
VERTEX
  8
0
 10
1515.0000144093178
 20
10
 42
0
  0
SEQEND
  0
POLYLINE
  8
0
 10
0
 20
0
 39
0
 70
1
 66
1
  0
VERTEX
  8
0
 10
1545.0000144093178
 20
820.625
 42
-1
  0
VERTEX
  8
0
 10
1545.0000144093178
 20
803.375
 42
-1
  0
SEQEND
  0
POLYLINE
  8
0
 10
0
 20
0
 39
0
 70
1
 66
1
  0
VERTEX
  8
0
 10
1545.0000144093178
 20
220.625
 42
-1
  0
VERTEX
  8
0
 10
1545.0000144093178
 20
203.375
 42
-1
  0
SEQEND
  0
POLYLINE
  8
0
 10
0
 20
0
 39
0
 70
1
 66
1
  0
VERTEX
  8
0
 10
3774.9999900287085
 20
380
 42
0
  0
VERTEX
  8
0
 10
3774.9999900287085
 20
1230
 42
0
  0
VERTEX
  8
0
 10
3714.9999900287085
 20
1230
 42
0
  0
VERTEX
  8
0
 10
3714.9999900287085
 20
380
 42
0
  0
SEQEND
  0
POLYLINE
  8
0
 10
0
 20
0
 39
0
 70
1
 66
1
  0
VERTEX
  8
0
 10
3744.9999900287085
 20
1190.625
 42
-1
  0
VERTEX
  8
0
 10
3744.9999900287085
 20
1173.375
 42
-1
  0
SEQEND
  0
POLYLINE
  8
0
 10
0
 20
0
 39
0
 70
1
 66
1
  0
VERTEX
  8
0
 10
3744.9999900287085
 20
590.625
 42
-1
  0
VERTEX
  8
0
 10
3744.9999900287085
 20
573.375
 42
-1
  0
SEQEND
  0
POLYLINE
  8
0
 10
0
 20
0
 39
0
 70
1
 66
1
  0
VERTEX
  8
0
 10
2579.99997575216
 20
10
 42
0
  0
VERTEX
  8
0
 10
2579.99997575216
 20
860
 42
0
  0
VERTEX
  8
0
 10
2519.99997575216
 20
860
 42
0
  0
VERTEX
  8
0
 10
2519.99997575216
 20
10
 42
0
  0
SEQEND
  0
POLYLINE
  8
0
 10
0
 20
0
 39
0
 70
1
 66
1
  0
VERTEX
  8
0
 10
2549.99997575216
 20
820.625
 42
-1
  0
VERTEX
  8
0
 10
2549.99997575216
 20
803.375
 42
-1
  0
SEQEND
  0
POLYLINE
  8
0
 10
0
 20
0
 39
0
 70
1
 66
1
  0
VERTEX
  8
0
 10
2549.99997575216
 20
220.625
 42
-1
  0
VERTEX
  8
0
 10
2549.99997575216
 20
203.375
 42
-1
  0
SEQEND
  0
POLYLINE
  8
0
 10
0
 20
0
 39
0
 70
1
 66
1
  0
VERTEX
  8
0
 10
3784.9999900287085
 20
880
 42
0
  0
VERTEX
  8
0
 10
3784.9999900287085
 20
380
 42
0
  0
VERTEX
  8
0
 10
3984.9999900287085
 20
380
 42
0
  0
VERTEX
  8
0
 10
3984.9999900287085
 20
880
 42
0
  0
SEQEND
  0
POLYLINE
  8
0
 10
0
 20
0
 39
0
 70
1
 66
1
  0
VERTEX
  8
0
 10
3946.8850608294897
 20
445.31097412109375
 42
-1
  0
VERTEX
  8
0
 10
3946.8850608294897
 20
409.31097412109375
 42
-1
  0
SEQEND
  0
POLYLINE
  8
0
 10
0
 20
0
 39
0
 70
1
 66
1
  0
VERTEX
  8
0
 10
3884.9999900287085
 20
682
 42
-1
  0
VERTEX
  8
0
 10
3884.9999900287085
 20
578
 42
-1
  0
SEQEND
  0
POLYLINE
  8
0
 10
0
 20
0
 39
0
 70
1
 66
1
  0
VERTEX
  8
0
 10
1169.9999860379091
 20
1130
 42
0
  0
VERTEX
  8
0
 10
319.99998603790914
 20
1130
 42
0
  0
VERTEX
  8
0
 10
319.99998603790914
 20
1070
 42
0
  0
VERTEX
  8
0
 10
1169.9999860379091
 20
1070
 42
0
  0
SEQEND
  0
POLYLINE
  8
0
 10
0
 20
0
 39
0
 70
1
 66
1
  0
VERTEX
  8
0
 10
359.37498603790914
 20
1100
 42
-1
  0
VERTEX
  8
0
 10
376.62498603790914
 20
1100
 42
-1
  0
SEQEND
  0
POLYLINE
  8
0
 10
0
 20
0
 39
0
 70
1
 66
1
  0
VERTEX
  8
0
 10
959.37498603790914
 20
1100
 42
-1
  0
VERTEX
  8
0
 10
976.62498603790914
 20
1100
 42
-1
  0
SEQEND
  0
POLYLINE
  8
0
 10
0
 20
0
 39
0
 70
1
 66
1
  0
VERTEX
  8
0
 10
305.00001339312166
 20
254
 42
-0
  0
VERTEX
  8
0
 10
305.00000576372719
 20
10
 42
-0
  0
VERTEX
  8
0
 10
365.00000576372719
 20
10
 42
-0
  0
VERTEX
  8
0
 10
490.00000576372713
 20
650
 42
-0
  0
VERTEX
  8
0
 10
490.00000576372713
 20
930
 42
-0
  0
VERTEX
  8
0
 10
460.00000576372713
 20
1060
 42
-0
  0
VERTEX
  8
0
 10
260.00000576372713
 20
1060
 42
0
  0
VERTEX
  8
0
 10
255.0000057637271
 20
990
 42
-0.7645079493522644
  0
VERTEX
  8
0
 10
255.00000288186357
 20
604
 42
-0.25831884145736694
  0
SEQEND
  0
POLYLINE
  8
0
 10
0
 20
0
 39
0
 70
1
 66
1
  0
VERTEX
  8
0
 10
438.00000576372713
 20
600
 42
-1
  0
VERTEX
  8
0
 10
438.00000576372713
 20
560
 42
-1
  0
SEQEND
  0
POLYLINE
  8
0
 10
0
 20
0
 39
0
 70
1
 66
1
  0
VERTEX
  8
0
 10
438.00000576372713
 20
1045
 42
-1
  0
VERTEX
  8
0
 10
438.00000576372713
 20
1005
 42
-1
  0
SEQEND
  0
POLYLINE
  8
0
 10
0
 20
0
 39
0
 70
1
 66
1
  0
VERTEX
  8
0
 10
1505.0000144093178
 20
10
 42
0
  0
VERTEX
  8
0
 10
1505.0000144093178
 20
860
 42
0
  0
VERTEX
  8
0
 10
1445.0000144093178
 20
860
 42
0
  0
VERTEX
  8
0
 10
1445.0000144093178
 20
10
 42
0
  0
SEQEND
  0
POLYLINE
  8
0
 10
0
 20
0
 39
0
 70
1
 66
1
  0
VERTEX
  8
0
 10
1475.0000144093178
 20
820.625
 42
-1
  0
VERTEX
  8
0
 10
1475.0000144093178
 20
803.375
 42
-1
  0
SEQEND
  0
POLYLINE
  8
0
 10
0
 20
0
 39
0
 70
1
 66
1
  0
VERTEX
  8
0
 10
1475.0000144093178
 20
220.625
 42
-1
  0
VERTEX
  8
0
 10
1475.0000144093178
 20
203.375
 42
-1
  0
SEQEND
  0
POLYLINE
  8
0
 10
0
 20
0
 39
0
 70
1
 66
1
  0
VERTEX
  8
0
 10
2295.00000583786
 20
510
 42
0
  0
VERTEX
  8
0
 10
2295.00000583786
 20
10
 42
0
  0
VERTEX
  8
0
 10
2495.00000583786
 20
10
 42
0
  0
VERTEX
  8
0
 10
2495.00000583786
 20
510
 42
0
  0
SEQEND
  0
POLYLINE
  8
0
 10
0
 20
0
 39
0
 70
1
 66
1
  0
VERTEX
  8
0
 10
2456.8850766386413
 20
75.31097412109375
 42
-1
  0
VERTEX
  8
0
 10
2456.8850766386413
 20
39.31097412109375
 42
-1
  0
SEQEND
  0
POLYLINE
  8
0
 10
0
 20
0
 39
0
 70
1
 66
1
  0
VERTEX
  8
0
 10
2395.00000583786
 20
312
 42
-1
  0
VERTEX
  8
0
 10
2395.00000583786
 20
208
 42
-1
  0
SEQEND
  0
POLYLINE
  8
0
 10
0
 20
0
 39
0
 70
1
 66
1
  0
VERTEX
  8
0
 10
3914.9999900287085
 20
1460
 42
0
  0
VERTEX
  8
0
 10
3714.9999900287085
 20
1460
 42
0
  0
VERTEX
  8
0
 10
3714.9999900287085
 20
1240
 42
0
  0
VERTEX
  8
0
 10
3914.9999900287085
 20
1240
 42
-0
  0
SEQEND
  0
POLYLINE
  8
0
 10
0
 20
0
 39
0
 70
1
 66
1
  0
VERTEX
  8
0
 10
3859.9999900287085
 20
1414.5
 42
-1
  0
VERTEX
  8
0
 10
3859.9999900287085
 20
1395.5
 42
-1
  0
SEQEND
  0
POLYLINE
  8
0
 10
0
 20
0
 39
0
 70
1
 66
1
  0
VERTEX
  8
0
 10
3769.9999900287085
 20
1304.5
 42
-1
  0
VERTEX
  8
0
 10
3769.9999900287085
 20
1285.5
 42
-1
  0
SEQEND
  0
POLYLINE
  8
0
 10
0
 20
0
 39
0
 70
1
 66
1
  0
VERTEX
  8
0
 10
1899.9999791807431
 20
1045.0000057050906
 42
0
  0
VERTEX
  8
0
 10
1899.9999791807431
 20
545.00000570509064
 42
0
  0
VERTEX
  8
0
 10
2099.9999791807431
 20
545.00000570509064
 42
0
  0
VERTEX
  8
0
 10
2099.9999791807431
 20
1045.0000057050906
 42
0
  0
SEQEND
  0
POLYLINE
  8
0
 10
0
 20
0
 39
0
 70
1
 66
1
  0
VERTEX
  8
0
 10
2061.8850499815244
 20
610.31097982618439
 42
-1
  0
VERTEX
  8
0
 10
2061.8850499815244
 20
574.31097982618439
 42
-1
  0
SEQEND
  0
POLYLINE
  8
0
 10
0
 20
0
 39
0
 70
1
 66
1
  0
VERTEX
  8
0
 10
1999.9999791807431
 20
847.00000570509064
 42
-1
  0
VERTEX
  8
0
 10
1999.9999791807431
 20
743.00000570509064
 42
-1
  0
SEQEND
  0
POLYLINE
  8
0
 10
0
 20
0
 39
0
 70
1
 66
1
  0
VERTEX
  8
0
 10
2834.9999786340236
 20
510
 42
0
  0
VERTEX
  8
0
 10
2834.9999786340236
 20
10
 42
0
  0
VERTEX
  8
0
 10
3034.9999786340236
 20
10
 42
0
  0
VERTEX
  8
0
 10
3034.9999786340236
 20
510
 42
0
  0
SEQEND
  0
POLYLINE
  8
0
 10
0
 20
0
 39
0
 70
1
 66
1
  0
VERTEX
  8
0
 10
2996.8850494348048
 20
75.31097412109375
 42
-1
  0
VERTEX
  8
0
 10
2996.8850494348048
 20
39.31097412109375
 42
-1
  0
SEQEND
  0
POLYLINE
  8
0
 10
0
 20
0
 39
0
 70
1
 66
1
  0
VERTEX
  8
0
 10
2934.9999786340236
 20
312
 42
-1
  0
VERTEX
  8
0
 10
2934.9999786340236
 20
208
 42
-1
  0
SEQEND
  0
POLYLINE
  8
0
 10
0
 20
0
 39
0
 70
1
 66
1
  0
VERTEX
  8
0
 10
550.00001627498523
 20
254
 42
-0
  0
VERTEX
  8
0
 10
550.00000864559081
 20
10
 42
-0
  0
VERTEX
  8
0
 10
610.00000864559081
 20
10
 42
-0
  0
VERTEX
  8
0
 10
735.0000086455907
 20
650
 42
-0
  0
VERTEX
  8
0
 10
735.0000086455907
 20
930
 42
-0
  0
VERTEX
  8
0
 10
705.0000086455907
 20
1060
 42
-0
  0
VERTEX
  8
0
 10
505.0000086455907
 20
1060
 42
0
  0
VERTEX
  8
0
 10
500.0000086455907
 20
990
 42
-0.7645079493522644
  0
VERTEX
  8
0
 10
500.00000576372713
 20
604
 42
-0.25831884145736694
  0
SEQEND
  0
POLYLINE
  8
0
 10
0
 20
0
 39
0
 70
1
 66
1
  0
VERTEX
  8
0
 10
683.0000086455907
 20
600
 42
-1
  0
VERTEX
  8
0
 10
683.0000086455907
 20
560
 42
-1
  0
SEQEND
  0
POLYLINE
  8
0
 10
0
 20
0
 39
0
 70
1
 66
1
  0
VERTEX
  8
0
 10
683.0000086455907
 20
1045
 42
-1
  0
VERTEX
  8
0
 10
683.0000086455907
 20
1005
 42
-1
  0
SEQEND
  0
POLYLINE
  8
0
 10
0
 20
0
 39
0
 70
1
 66
1
  0
VERTEX
  8
0
 10
319.99998603790914
 20
1280
 42
0
  0
VERTEX
  8
0
 10
819.99998603790914
 20
1280
 42
0
  0
VERTEX
  8
0
 10
819.99998603790914
 20
1480
 42
0
  0
VERTEX
  8
0
 10
319.99998603790914
 20
1480
 42
0
  0
SEQEND
  0
POLYLINE
  8
0
 10
0
 20
0
 39
0
 70
1
 66
1
  0
VERTEX
  8
0
 10
754.68901191681539
 20
1441.8850708007812
 42
-1
  0
VERTEX
  8
0
 10
790.68901191681539
 20
1441.8850708007812
 42
-1
  0
SEQEND
  0
POLYLINE
  8
0
 10
0
 20
0
 39
0
 70
1
 66
1
  0
VERTEX
  8
0
 10
517.99998603790914
 20
1380
 42
-1
  0
VERTEX
  8
0
 10
621.99998603790914
 20
1380
 42
-1
  0
SEQEND
  0
POLYLINE
  8
0
 10
0
 20
0
 39
0
 70
1
 66
1
  0
VERTEX
  8
0
 10
1365.0000144093178
 20
10
 42
0
  0
VERTEX
  8
0
 10
1365.0000144093178
 20
860
 42
0
  0
VERTEX
  8
0
 10
1305.0000144093178
 20
860
 42
0
  0
VERTEX
  8
0
 10
1305.0000144093178
 20
10
 42
0
  0
SEQEND
  0
POLYLINE
  8
0
 10
0
 20
0
 39
0
 70
1
 66
1
  0
VERTEX
  8
0
 10
1335.0000144093178
 20
820.625
 42
-1
  0
VERTEX
  8
0
 10
1335.0000144093178
 20
803.375
 42
-1
  0
SEQEND
  0
POLYLINE
  8
0
 10
0
 20
0
 39
0
 70
1
 66
1
  0
VERTEX
  8
0
 10
1335.0000144093178
 20
220.625
 42
-1
  0
VERTEX
  8
0
 10
1335.0000144093178
 20
203.375
 42
-1
  0
SEQEND
  0
POLYLINE
  8
0
 10
0
 20
0
 39
0
 70
1
 66
1
  0
VERTEX
  8
0
 10
1289.9999860379091
 20
1370
 42
0
  0
VERTEX
  8
0
 10
1289.9999860379091
 20
870
 42
0
  0
VERTEX
  8
0
 10
1489.9999860379091
 20
870
 42
0
  0
VERTEX
  8
0
 10
1489.9999860379091
 20
1370
 42
0
  0
SEQEND
  0
POLYLINE
  8
0
 10
0
 20
0
 39
0
 70
1
 66
1
  0
VERTEX
  8
0
 10
1451.8850568386904
 20
935.31097412109375
 42
-1
  0
VERTEX
  8
0
 10
1451.8850568386904
 20
899.31097412109375
 42
-1
  0
SEQEND
  0
POLYLINE
  8
0
 10
0
 20
0
 39
0
 70
1
 66
1
  0
VERTEX
  8
0
 10
1389.9999860379091
 20
1172
 42
-1
  0
VERTEX
  8
0
 10
1389.9999860379091
 20
1068
 42
-1
  0
SEQEND
  0
POLYLINE
  8
0
 10
0
 20
0
 39
0
 70
1
 66
1
  0
VERTEX
  8
0
 10
2309.99997575216
 20
1020
 42
0
  0
VERTEX
  8
0
 10
2309.99997575216
 20
520
 42
0
  0
VERTEX
  8
0
 10
2509.99997575216
 20
520
 42
0
  0
VERTEX
  8
0
 10
2509.99997575216
 20
1020
 42
0
  0
SEQEND
  0
POLYLINE
  8
0
 10
0
 20
0
 39
0
 70
1
 66
1
  0
VERTEX
  8
0
 10
2471.8850465529413
 20
585.31097412109375
 42
-1
  0
VERTEX
  8
0
 10
2471.8850465529413
 20
549.31097412109375
 42
-1
  0
SEQEND
  0
POLYLINE
  8
0
 10
0
 20
0
 39
0
 70
1
 66
1
  0
VERTEX
  8
0
 10
2409.99997575216
 20
822
 42
-1
  0
VERTEX
  8
0
 10
2409.99997575216
 20
718
 42
-1
  0
SEQEND
  0
POLYLINE
  8
0
 10
0
 20
0
 39
0
 70
1
 66
1
  0
VERTEX
  8
0
 10
795.00001915684879
 20
254
 42
-0
  0
VERTEX
  8
0
 10
795.00001152745438
 20
10
 42
-0
  0
VERTEX
  8
0
 10
855.00001152745438
 20
10
 42
-0
  0
VERTEX
  8
0
 10
980.00001152745426
 20
650
 42
-0
  0
VERTEX
  8
0
 10
980.00001152745426
 20
930
 42
-0
  0
VERTEX
  8
0
 10
950.00001152745426
 20
1060
 42
-0
  0
VERTEX
  8
0
 10
750.00001152745426
 20
1060
 42
0
  0
VERTEX
  8
0
 10
745.00001152745426
 20
990
 42
-0.7645079493522644
  0
VERTEX
  8
0
 10
745.0000086455907
 20
604
 42
-0.25831884145736694
  0
SEQEND
  0
POLYLINE
  8
0
 10
0
 20
0
 39
0
 70
1
 66
1
  0
VERTEX
  8
0
 10
928.00001152745426
 20
600
 42
-1
  0
VERTEX
  8
0
 10
928.00001152745426
 20
560
 42
-1
  0
SEQEND
  0
POLYLINE
  8
0
 10
0
 20
0
 39
0
 70
1
 66
1
  0
VERTEX
  8
0
 10
928.00001152745426
 20
1045
 42
-1
  0
VERTEX
  8
0
 10
928.00001152745426
 20
1005
 42
-1
  0
SEQEND
  0
POLYLINE
  8
0
 10
0
 20
0
 39
0
 70
1
 66
1
  0
VERTEX
  8
0
 10
2149.9999860379094
 20
1285.0000057050906
 42
0
  0
VERTEX
  8
0
 10
2649.9999860379094
 20
1285.0000057050906
 42
0
  0
VERTEX
  8
0
 10
2649.9999860379094
 20
1485.0000057050906
 42
0
  0
VERTEX
  8
0
 10
2149.9999860379094
 20
1485.0000057050906
 42
0
  0
SEQEND
  0
POLYLINE
  8
0
 10
0
 20
0
 39
0
 70
1
 66
1
  0
VERTEX
  8
0
 10
2584.6890119168156
 20
1446.8850765058719
 42
-1
  0
VERTEX
  8
0
 10
2620.6890119168156
 20
1446.8850765058719
 42
-1
  0
SEQEND
  0
POLYLINE
  8
0
 10
0
 20
0
 39
0
 70
1
 66
1
  0
VERTEX
  8
0
 10
2347.9999860379094
 20
1385.0000057050906
 42
-1
  0
VERTEX
  8
0
 10
2451.9999860379094
 20
1385.0000057050906
 42
-1
  0
SEQEND
  0
POLYLINE
  8
0
 10
0
 20
0
 39
0
 70
1
 66
1
  0
VERTEX
  8
0
 10
2085.00000583786
 20
510
 42
0
  0
VERTEX
  8
0
 10
2085.00000583786
 20
10
 42
0
  0
VERTEX
  8
0
 10
2285.00000583786
 20
10
 42
0
  0
VERTEX
  8
0
 10
2285.00000583786
 20
510
 42
0
  0
SEQEND
  0
POLYLINE
  8
0
 10
0
 20
0
 39
0
 70
1
 66
1
  0
VERTEX
  8
0
 10
2246.8850766386413
 20
75.31097412109375
 42
-1
  0
VERTEX
  8
0
 10
2246.8850766386413
 20
39.31097412109375
 42
-1
  0
SEQEND
  0
POLYLINE
  8
0
 10
0
 20
0
 39
0
 70
1
 66
1
  0
VERTEX
  8
0
 10
2185.00000583786
 20
312
 42
-1
  0
VERTEX
  8
0
 10
2185.00000583786
 20
208
 42
-1
  0
SEQEND
  0
POLYLINE
  8
0
 10
0
 20
0
 39
0
 70
1
 66
1
  0
VERTEX
  8
0
 10
3489.9999581137281
 20
880
 42
0
  0
VERTEX
  8
0
 10
3489.9999581137281
 20
380
 42
0
  0
VERTEX
  8
0
 10
3689.9999581137281
 20
380
 42
0
  0
VERTEX
  8
0
 10
3689.9999581137281
 20
880
 42
0
  0
SEQEND
  0
POLYLINE
  8
0
 10
0
 20
0
 39
0
 70
1
 66
1
  0
VERTEX
  8
0
 10
3651.8850289145093
 20
445.31097412109375
 42
-1
  0
VERTEX
  8
0
 10
3651.8850289145093
 20
409.31097412109375
 42
-1
  0
SEQEND
  0
POLYLINE
  8
0
 10
0
 20
0
 39
0
 70
1
 66
1
  0
VERTEX
  8
0
 10
3589.9999581137281
 20
682
 42
-1
  0
VERTEX
  8
0
 10
3589.9999581137281
 20
578
 42
-1
  0
SEQEND
  0
POLYLINE
  8
0
 10
0
 20
0
 39
0
 70
1
 66
1
  0
VERTEX
  8
0
 10
1435.0000144093178
 20
10
 42
0
  0
VERTEX
  8
0
 10
1435.0000144093178
 20
860
 42
0
  0
VERTEX
  8
0
 10
1375.0000144093178
 20
860
 42
0
  0
VERTEX
  8
0
 10
1375.0000144093178
 20
10
 42
0
  0
SEQEND
  0
POLYLINE
  8
0
 10
0
 20
0
 39
0
 70
1
 66
1
  0
VERTEX
  8
0
 10
1405.0000144093178
 20
820.625
 42
-1
  0
VERTEX
  8
0
 10
1405.0000144093178
 20
803.375
 42
-1
  0
SEQEND
  0
POLYLINE
  8
0
 10
0
 20
0
 39
0
 70
1
 66
1
  0
VERTEX
  8
0
 10
1405.0000144093178
 20
220.625
 42
-1
  0
VERTEX
  8
0
 10
1405.0000144093178
 20
203.375
 42
-1
  0
SEQEND
  0
POLYLINE
  8
0
 10
0
 20
0
 39
0
 70
1
 66
1
  0
VERTEX
  8
0
 10
2834.9999786340236
 20
1020
 42
0
  0
VERTEX
  8
0
 10
2834.9999786340236
 20
520
 42
0
  0
VERTEX
  8
0
 10
3034.9999786340236
 20
520
 42
0
  0
VERTEX
  8
0
 10
3034.9999786340236
 20
1020
 42
0
  0
SEQEND
  0
POLYLINE
  8
0
 10
0
 20
0
 39
0
 70
1
 66
1
  0
VERTEX
  8
0
 10
2996.8850494348048
 20
585.31097412109375
 42
-1
  0
VERTEX
  8
0
 10
2996.8850494348048
 20
549.31097412109375
 42
-1
  0
SEQEND
  0
POLYLINE
  8
0
 10
0
 20
0
 39
0
 70
1
 66
1
  0
VERTEX
  8
0
 10
2934.9999786340236
 20
822
 42
-1
  0
VERTEX
  8
0
 10
2934.9999786340236
 20
718
 42
-1
  0
SEQEND
  0
POLYLINE
  8
0
 10
0
 20
0
 39
0
 70
1
 66
1
  0
VERTEX
  8
0
 10
3533.8635292009021
 20
369.99999668731198
 42
0.94444441795349121
  0
VERTEX
  8
0
 10
3533.8635139421131
 20
10
 42
0
  0
VERTEX
  8
0
 10
3663.8635139421131
 20
10
 42
0
  0
VERTEX
  8
0
 10
3663.8635139421131
 20
370
 42
0
  0
SEQEND
  0
POLYLINE
  8
0
 10
0
 20
0
 39
0
 70
1
 66
1
  0
VERTEX
  8
0
 10
3603.8635139421131
 20
200.50000000000003
 42
-1
  0
VERTEX
  8
0
 10
3603.8635139421131
 20
179.50000000000003
 42
-1
  0
SEQEND
  0
POLYLINE
  8
0
 10
0
 20
0
 39
0
 70
1
 66
1
  0
VERTEX
  8
0
 10
3483.8635139421131
 20
190
 42
0.41421356797218323
  0
VERTEX
  8
0
 10
3603.8635139421131
 20
70
 42
-1
  0
VERTEX
  8
0
 10
3603.8635139421131
 20
48
 42
-0.41421356797218323
  0
VERTEX
  8
0
 10
3461.8635139421131
 20
190
 42
-1
  0
SEQEND
  0
POLYLINE
  8
0
 10
0
 20
0
 39
0
 70
1
 66
1
  0
VERTEX
  8
0
 10
1169.9999860379091
 20
1270
 42
0
  0
VERTEX
  8
0
 10
319.99998603790914
 20
1270
 42
0
  0
VERTEX
  8
0
 10
319.99998603790914
 20
1210
 42
0
  0
VERTEX
  8
0
 10
1169.9999860379091
 20
1210
 42
0
  0
SEQEND
  0
POLYLINE
  8
0
 10
0
 20
0
 39
0
 70
1
 66
1
  0
VERTEX
  8
0
 10
359.37498603790914
 20
1240
 42
-1
  0
VERTEX
  8
0
 10
376.62498603790914
 20
1240
 42
-1
  0
SEQEND
  0
POLYLINE
  8
0
 10
0
 20
0
 39
0
 70
1
 66
1
  0
VERTEX
  8
0
 10
959.37498603790914
 20
1240
 42
-1
  0
VERTEX
  8
0
 10
976.62498603790914
 20
1240
 42
-1
  0
SEQEND
  0
POLYLINE
  8
0
 10
0
 20
0
 39
0
 70
1
 66
1
  0
VERTEX
  8
0
 10
2859.9999860379094
 20
1389.9999982857084
 42
0
  0
VERTEX
  8
0
 10
2659.9999860379094
 20
1389.9999982857084
 42
0
  0
VERTEX
  8
0
 10
2659.9999860379094
 20
1169.9999982857084
 42
0
  0
VERTEX
  8
0
 10
2859.9999860379094
 20
1169.9999982857084
 42
-0
  0
SEQEND
  0
POLYLINE
  8
0
 10
0
 20
0
 39
0
 70
1
 66
1
  0
VERTEX
  8
0
 10
2804.9999860379094
 20
1344.4999982857084
 42
-1
  0
VERTEX
  8
0
 10
2804.9999860379094
 20
1325.4999982857084
 42
-1
  0
SEQEND
  0
POLYLINE
  8
0
 10
0
 20
0
 39
0
 70
1
 66
1
  0
VERTEX
  8
0
 10
2714.9999860379094
 20
1234.4999982857084
 42
-1
  0
VERTEX
  8
0
 10
2714.9999860379094
 20
1215.4999982857084
 42
-1
  0
SEQEND
  0
POLYLINE
  8
0
 10
0
 20
0
 39
0
 70
1
 66
1
  0
VERTEX
  8
0
 10
1169.9999860379091
 20
1200
 42
0
  0
VERTEX
  8
0
 10
319.99998603790914
 20
1200
 42
0
  0
VERTEX
  8
0
 10
319.99998603790914
 20
1140
 42
0
  0
VERTEX
  8
0
 10
1169.9999860379091
 20
1140
 42
0
  0
SEQEND
  0
POLYLINE
  8
0
 10
0
 20
0
 39
0
 70
1
 66
1
  0
VERTEX
  8
0
 10
359.37498603790914
 20
1170
 42
-1
  0
VERTEX
  8
0
 10
376.62498603790914
 20
1170
 42
-1
  0
SEQEND
  0
POLYLINE
  8
0
 10
0
 20
0
 39
0
 70
1
 66
1
  0
VERTEX
  8
0
 10
959.37498603790914
 20
1170
 42
-1
  0
VERTEX
  8
0
 10
976.62498603790914
 20
1170
 42
-1
  0
SEQEND
  0
POLYLINE
  8
0
 10
0
 20
0
 39
0
 70
1
 66
1
  0
VERTEX
  8
0
 10
2219.9999843236178
 20
1275.0000057050906
 42
0
  0
VERTEX
  8
0
 10
2019.9999843236178
 20
1275.0000057050906
 42
0
  0
VERTEX
  8
0
 10
2019.9999843236178
 20
1055.0000057050906
 42
0
  0
VERTEX
  8
0
 10
2219.9999843236178
 20
1055.0000057050906
 42
-0
  0
SEQEND
  0
POLYLINE
  8
0
 10
0
 20
0
 39
0
 70
1
 66
1
  0
VERTEX
  8
0
 10
2164.9999843236178
 20
1229.5000057050906
 42
-1
  0
VERTEX
  8
0
 10
2164.9999843236178
 20
1210.5000057050906
 42
-1
  0
SEQEND
  0
POLYLINE
  8
0
 10
0
 20
0
 39
0
 70
1
 66
1
  0
VERTEX
  8
0
 10
2074.9999843236178
 20
1119.5000057050906
 42
-1
  0
VERTEX
  8
0
 10
2074.9999843236178
 20
1100.5000057050906
 42
-1
  0
SEQEND
  0
POLYLINE
  8
0
 10
0
 20
0
 39
0
 70
1
 66
1
  0
VERTEX
  8
0
 10
2009.9999843236178
 20
1300.0000114101813
 42
0
  0
VERTEX
  8
0
 10
1809.9999843236178
 20
1300.0000114101813
 42
0
  0
VERTEX
  8
0
 10
1809.9999843236178
 20
1080.0000114101813
 42
0
  0
VERTEX
  8
0
 10
2009.9999843236178
 20
1080.0000114101813
 42
-0
  0
SEQEND
  0
POLYLINE
  8
0
 10
0
 20
0
 39
0
 70
1
 66
1
  0
VERTEX
  8
0
 10
1954.9999843236178
 20
1254.5000114101813
 42
-1
  0
VERTEX
  8
0
 10
1954.9999843236178
 20
1235.5000114101813
 42
-1
  0
SEQEND
  0
POLYLINE
  8
0
 10
0
 20
0
 39
0
 70
1
 66
1
  0
VERTEX
  8
0
 10
1864.9999843236178
 20
1144.5000114101813
 42
-1
  0
VERTEX
  8
0
 10
1864.9999843236178
 20
1125.5000114101813
 42
-1
  0
SEQEND
  0
POLYLINE
  8
0
 10
0
 20
0
 39
0
 70
1
 66
1
  0
VERTEX
  8
0
 10
829.99998603790914
 20
1480
 42
0
  0
VERTEX
  8
0
 10
829.99998603790914
 20
1280
 42
0
  0
VERTEX
  8
0
 10
1049.9999860379091
 20
1280
 42
0
  0
VERTEX
  8
0
 10
1049.9999860379091
 20
1480
 42
-0
  0
SEQEND
  0
POLYLINE
  8
0
 10
0
 20
0
 39
0
 70
1
 66
1
  0
VERTEX
  8
0
 10
875.49998603790914
 20
1425
 42
-1
  0
VERTEX
  8
0
 10
894.49998603790914
 20
1425
 42
-1
  0
SEQEND
  0
POLYLINE
  8
0
 10
0
 20
0
 39
0
 70
1
 66
1
  0
VERTEX
  8
0
 10
985.49998603790914
 20
1335
 42
-1
  0
VERTEX
  8
0
 10
1004.4999860379091
 20
1335
 42
-1
  0
SEQEND
  0
POLYLINE
  8
0
 10
0
 20
0
 39
0
 70
1
 66
1
  0
VERTEX
  8
0
 10
3984.9999900287085
 20
1110
 42
0
  0
VERTEX
  8
0
 10
3784.9999900287085
 20
1110
 42
0
  0
VERTEX
  8
0
 10
3784.9999900287085
 20
890
 42
0
  0
VERTEX
  8
0
 10
3984.9999900287085
 20
890
 42
-0
  0
SEQEND
  0
POLYLINE
  8
0
 10
0
 20
0
 39
0
 70
1
 66
1
  0
VERTEX
  8
0
 10
3929.9999900287085
 20
1064.5
 42
-1
  0
VERTEX
  8
0
 10
3929.9999900287085
 20
1045.5
 42
-1
  0
SEQEND
  0
POLYLINE
  8
0
 10
0
 20
0
 39
0
 70
1
 66
1
  0
VERTEX
  8
0
 10
3839.9999900287085
 20
954.5
 42
-1
  0
VERTEX
  8
0
 10
3839.9999900287085
 20
935.5
 42
-1
  0
SEQEND
  0
POLYLINE
  8
0
 10
0
 20
0
 39
0
 70
1
 66
1
  0
VERTEX
  8
0
 10
1799.9999843236178
 20
1300.0000114101813
 42
0
  0
VERTEX
  8
0
 10
1599.9999843236178
 20
1300.0000114101813
 42
0
  0
VERTEX
  8
0
 10
1599.9999843236178
 20
1080.0000114101813
 42
0
  0
VERTEX
  8
0
 10
1799.9999843236178
 20
1080.0000114101813
 42
-0
  0
SEQEND
  0
POLYLINE
  8
0
 10
0
 20
0
 39
0
 70
1
 66
1
  0
VERTEX
  8
0
 10
1744.9999843236178
 20
1254.5000114101813
 42
-1
  0
VERTEX
  8
0
 10
1744.9999843236178
 20
1235.5000114101813
 42
-1
  0
SEQEND
  0
POLYLINE
  8
0
 10
0
 20
0
 39
0
 70
1
 66
1
  0
VERTEX
  8
0
 10
1654.9999843236178
 20
1144.5000114101813
 42
-1
  0
VERTEX
  8
0
 10
1654.9999843236178
 20
1125.5000114101813
 42
-1
  0
SEQEND
  0
POLYLINE
  8
0
 10
0
 20
0
 39
0
 70
1
 66
1
  0
VERTEX
  8
0
 10
1059.9999860379091
 20
1480
 42
0
  0
VERTEX
  8
0
 10
1059.9999860379091
 20
1280
 42
0
  0
VERTEX
  8
0
 10
1279.9999860379091
 20
1280
 42
0
  0
VERTEX
  8
0
 10
1279.9999860379091
 20
1480
 42
-0
  0
SEQEND
  0
POLYLINE
  8
0
 10
0
 20
0
 39
0
 70
1
 66
1
  0
VERTEX
  8
0
 10
1105.4999860379091
 20
1425
 42
-1
  0
VERTEX
  8
0
 10
1124.4999860379091
 20
1425
 42
-1
  0
SEQEND
  0
POLYLINE
  8
0
 10
0
 20
0
 39
0
 70
1
 66
1
  0
VERTEX
  8
0
 10
1215.4999860379091
 20
1335
 42
-1
  0
VERTEX
  8
0
 10
1234.4999860379091
 20
1335
 42
-1
  0
SEQEND
  0
POLYLINE
  8
0
 10
0
 20
0
 39
0
 70
1
 66
1
  0
VERTEX
  8
0
 10
3394.999991743
 20
1479.4549865722656
 42
0
  0
VERTEX
  8
0
 10
3194.999991743
 20
1479.4549865722656
 42
0
  0
VERTEX
  8
0
 10
3194.999991743
 20
1259.4549865722656
 42
0
  0
VERTEX
  8
0
 10
3394.999991743
 20
1259.4549865722656
 42
-0
  0
SEQEND
  0
POLYLINE
  8
0
 10
0
 20
0
 39
0
 70
1
 66
1
  0
VERTEX
  8
0
 10
3339.999991743
 20
1433.9549865722656
 42
-1
  0
VERTEX
  8
0
 10
3339.999991743
 20
1414.9549865722656
 42
-1
  0
SEQEND
  0
POLYLINE
  8
0
 10
0
 20
0
 39
0
 70
1
 66
1
  0
VERTEX
  8
0
 10
3249.999991743
 20
1323.9549865722656
 42
-1
  0
VERTEX
  8
0
 10
3249.999991743
 20
1304.9549865722656
 42
-1
  0
SEQEND
  0
POLYLINE
  8
0
 10
0
 20
0
 39
0
 70
1
 66
1
  0
VERTEX
  8
0
 10
3604.999991743
 20
1479.4549865722656
 42
0
  0
VERTEX
  8
0
 10
3404.999991743
 20
1479.4549865722656
 42
0
  0
VERTEX
  8
0
 10
3404.999991743
 20
1259.4549865722656
 42
0
  0
VERTEX
  8
0
 10
3604.999991743
 20
1259.4549865722656
 42
-0
  0
SEQEND
  0
POLYLINE
  8
0
 10
0
 20
0
 39
0
 70
1
 66
1
  0
VERTEX
  8
0
 10
3549.999991743
 20
1433.9549865722656
 42
-1
  0
VERTEX
  8
0
 10
3549.999991743
 20
1414.9549865722656
 42
-1
  0
SEQEND
  0
POLYLINE
  8
0
 10
0
 20
0
 39
0
 70
1
 66
1
  0
VERTEX
  8
0
 10
3459.999991743
 20
1323.9549865722656
 42
-1
  0
VERTEX
  8
0
 10
3459.999991743
 20
1304.9549865722656
 42
-1
  0
SEQEND
  0
POLYLINE
  8
0
 10
0
 20
0
 39
0
 70
1
 66
1
  0
VERTEX
  8
0
 10
3321.2878296874487
 20
879.4549832595776
 42
0.94444441795349121
  0
VERTEX
  8
0
 10
3321.2878144286597
 20
519.45498657226562
 42
0
  0
VERTEX
  8
0
 10
3451.2878144286597
 20
519.45498657226562
 42
0
  0
VERTEX
  8
0
 10
3451.2878144286597
 20
879.45498657226562
 42
0
  0
SEQEND
  0
POLYLINE
  8
0
 10
0
 20
0
 39
0
 70
1
 66
1
  0
VERTEX
  8
0
 10
3391.2878144286597
 20
709.95498657226563
 42
-1
  0
VERTEX
  8
0
 10
3391.2878144286597
 20
688.95498657226562
 42
-1
  0
SEQEND
  0
POLYLINE
  8
0
 10
0
 20
0
 39
0
 70
1
 66
1
  0
VERTEX
  8
0
 10
3271.2878144286597
 20
699.45498657226563
 42
0.41421356797218323
  0
VERTEX
  8
0
 10
3391.2878144286597
 20
579.45498657226563
 42
-1
  0
VERTEX
  8
0
 10
3391.2878144286597
 20
557.45498657226563
 42
-0.41421356797218323
  0
VERTEX
  8
0
 10
3249.2878144286597
 20
699.45498657226563
 42
-1
  0
SEQEND
  0
POLYLINE
  8
0
 10
0
 20
0
 39
0
 70
1
 66
1
  0
VERTEX
  8
0
 10
3619.9999918395288
 20
1395.0000057050906
 42
0
  0
VERTEX
  8
0
 10
3615.0026525908715
 20
935.48935507032502
 42
1.0109343528747559
  0
VERTEX
  8
0
 10
3704.9973291808374
 20
935.48935507032502
 42
-0
  0
VERTEX
  8
0
 10
3699.9999918395288
 20
1395.0000057050906
 42
-0
  0
VERTEX
  8
0
 10
3684.9999918395288
 20
1415.0000057050906
 42
0
  0
VERTEX
  8
0
 10
3634.9999918395288
 20
1415.0000057050906
 42
0
  0
SEQEND
  0
POLYLINE
  8
0
 10
0
 20
0
 39
0
 70
1
 66
1
  0
VERTEX
  8
0
 10
3659.9999918395288
 20
1398.0000057050906
 42
-1
  0
VERTEX
  8
0
 10
3659.9999918395288
 20
1368.0000057050906
 42
-1
  0
SEQEND
  0
POLYLINE
  8
0
 10
0
 20
0
 39
0
 70
1
 66
1
  0
VERTEX
  8
0
 10
3659.9999918395288
 20
955.00000570509064
 42
-1
  0
VERTEX
  8
0
 10
3659.9999918395288
 20
915.00000570509064
 42
-1
  0
SEQEND
  0
POLYLINE
  8
0
 10
0
 20
0
 39
0
 70
1
 66
1
  0
VERTEX
  8
0
 10
3659.9999918395288
 20
1012.7500057050906
 42
-1
  0
VERTEX
  8
0
 10
3659.9999918395288
 20
987.25000570509064
 42
-1
  0
SEQEND
  0
POLYLINE
  8
0
 10
0
 20
0
 39
0
 70
1
 66
1
  0
VERTEX
  8
0
 10
1890.0000093629717
 20
515.00000570509064
 42
0
  0
VERTEX
  8
0
 10
1885.0026701143145
 20
55.489355070325018
 42
1.0109343528747559
  0
VERTEX
  8
0
 10
1974.9973467042803
 20
55.489355070325018
 42
-0
  0
VERTEX
  8
0
 10
1970.0000093629717
 20
515.00000570509064
 42
-0
  0
VERTEX
  8
0
 10
1955.0000093629717
 20
535.00000570509064
 42
0
  0
VERTEX
  8
0
 10
1905.0000093629717
 20
535.00000570509064
 42
0
  0
SEQEND
  0
POLYLINE
  8
0
 10
0
 20
0
 39
0
 70
1
 66
1
  0
VERTEX
  8
0
 10
1930.0000093629717
 20
518.00000570509064
 42
-1
  0
VERTEX
  8
0
 10
1930.0000093629717
 20
488.00000570509064
 42
-1
  0
SEQEND
  0
POLYLINE
  8
0
 10
0
 20
0
 39
0
 70
1
 66
1
  0
VERTEX
  8
0
 10
1930.0000093629717
 20
75.000005705090643
 42
-1
  0
VERTEX
  8
0
 10
1930.0000093629717
 20
35.000005705090643
 42
-1
  0
SEQEND
  0
POLYLINE
  8
0
 10
0
 20
0
 39
0
 70
1
 66
1
  0
VERTEX
  8
0
 10
1930.0000093629717
 20
132.75000570509064
 42
-1
  0
VERTEX
  8
0
 10
1930.0000093629717
 20
107.25000570509064
 42
-1
  0
SEQEND
  0
POLYLINE
  8
0
 10
0
 20
0
 39
0
 70
1
 66
1
  0
VERTEX
  8
0
 10
1804.9999809915632
 20
1050.0000114101813
 42
0
  0
VERTEX
  8
0
 10
1800.002641742906
 20
590.48936077541566
 42
1.0109343528747559
  0
VERTEX
  8
0
 10
1889.9973183328718
 20
590.48936077541566
 42
-0
  0
VERTEX
  8
0
 10
1884.9999809915632
 20
1050.0000114101813
 42
-0
  0
VERTEX
  8
0
 10
1869.9999809915632
 20
1070.0000114101813
 42
0
  0
VERTEX
  8
0
 10
1819.9999809915632
 20
1070.0000114101813
 42
0
  0
SEQEND
  0
POLYLINE
  8
0
 10
0
 20
0
 39
0
 70
1
 66
1
  0
VERTEX
  8
0
 10
1844.9999809915632
 20
1053.0000114101813
 42
-1
  0
VERTEX
  8
0
 10
1844.9999809915632
 20
1023.0000114101813
 42
-1
  0
SEQEND
  0
POLYLINE
  8
0
 10
0
 20
0
 39
0
 70
1
 66
1
  0
VERTEX
  8
0
 10
1844.9999809915632
 20
610.00001141018129
 42
-1
  0
VERTEX
  8
0
 10
1844.9999809915632
 20
570.00001141018129
 42
-1
  0
SEQEND
  0
POLYLINE
  8
0
 10
0
 20
0
 39
0
 70
1
 66
1
  0
VERTEX
  8
0
 10
1844.9999809915632
 20
667.75001141018129
 42
-1
  0
VERTEX
  8
0
 10
1844.9999809915632
 20
642.25001141018129
 42
-1
  0
SEQEND
  0
POLYLINE
  8
0
 10
0
 20
0
 39
0
 70
1
 66
1
  0
VERTEX
  8
0
 10
2249.9999843236178
 20
1075.0000000965285
 42
0
  0
VERTEX
  8
0
 10
2709.5106349583834
 20
1070.0026608478713
 42
1.0109343528747559
  0
VERTEX
  8
0
 10
2709.5106349583834
 20
1159.9973374378371
 42
-0
  0
VERTEX
  8
0
 10
2249.9999843236178
 20
1155.0000000965285
 42
-0
  0
VERTEX
  8
0
 10
2229.9999843236178
 20
1140.0000000965285
 42
0
  0
VERTEX
  8
0
 10
2229.9999843236178
 20
1090.0000000965285
 42
0
  0
SEQEND
  0
POLYLINE
  8
0
 10
0
 20
0
 39
0
 70
1
 66
1
  0
VERTEX
  8
0
 10
2246.9999843236178
 20
1115.0000000965285
 42
-1
  0
VERTEX
  8
0
 10
2276.9999843236178
 20
1115.0000000965285
 42
-1
  0
SEQEND
  0
POLYLINE
  8
0
 10
0
 20
0
 39
0
 70
1
 66
1
  0
VERTEX
  8
0
 10
2689.9999843236178
 20
1115.0000000965285
 42
-1
  0
VERTEX
  8
0
 10
2729.9999843236178
 20
1115.0000000965285
 42
-1
  0
SEQEND
  0
POLYLINE
  8
0
 10
0
 20
0
 39
0
 70
1
 66
1
  0
VERTEX
  8
0
 10
2632.2499843236178
 20
1115.0000000965285
 42
-1
  0
VERTEX
  8
0
 10
2657.7499843236178
 20
1115.0000000965285
 42
-1
  0
SEQEND
  0
POLYLINE
  8
0
 10
0
 20
0
 39
0
 70
1
 66
1
  0
VERTEX
  8
0
 10
1990.0000076486801
 20
515.00000570509064
 42
0
  0
VERTEX
  8
0
 10
1985.0026684000229
 20
55.489355070325018
 42
1.0109343528747559
  0
VERTEX
  8
0
 10
2074.997344989989
 20
55.489355070325018
 42
-0
  0
VERTEX
  8
0
 10
2070.0000076486804
 20
515.00000570509064
 42
-0
  0
VERTEX
  8
0
 10
2055.0000076486804
 20
535.00000570509064
 42
0
  0
VERTEX
  8
0
 10
2005.0000076486801
 20
535.00000570509064
 42
0
  0
SEQEND
  0
POLYLINE
  8
0
 10
0
 20
0
 39
0
 70
1
 66
1
  0
VERTEX
  8
0
 10
2030.0000076486801
 20
518.00000570509064
 42
-1
  0
VERTEX
  8
0
 10
2030.0000076486801
 20
488.00000570509064
 42
-1
  0
SEQEND
  0
POLYLINE
  8
0
 10
0
 20
0
 39
0
 70
1
 66
1
  0
VERTEX
  8
0
 10
2030.0000076486801
 20
75.000005705090643
 42
-1
  0
VERTEX
  8
0
 10
2030.0000076486801
 20
35.000005705090643
 42
-1
  0
SEQEND
  0
POLYLINE
  8
0
 10
0
 20
0
 39
0
 70
1
 66
1
  0
VERTEX
  8
0
 10
2030.0000076486801
 20
132.75000570509064
 42
-1
  0
VERTEX
  8
0
 10
2030.0000076486801
 20
107.25000570509064
 42
-1
  0
SEQEND
  0
POLYLINE
  8
0
 10
0
 20
0
 39
0
 70
1
 66
1
  0
VERTEX
  8
0
 10
2114.9999792772719
 20
1025.0000057050906
 42
0
  0
VERTEX
  8
0
 10
2110.0026400286147
 20
565.48935507032502
 42
1.0109343528747559
  0
VERTEX
  8
0
 10
2199.9973166185805
 20
565.48935507032502
 42
-0
  0
VERTEX
  8
0
 10
2194.9999792772719
 20
1025.0000057050906
 42
-0
  0
VERTEX
  8
0
 10
2179.9999792772719
 20
1045.0000057050906
 42
0
  0
VERTEX
  8
0
 10
2129.9999792772719
 20
1045.0000057050906
 42
0
  0
SEQEND
  0
POLYLINE
  8
0
 10
0
 20
0
 39
0
 70
1
 66
1
  0
VERTEX
  8
0
 10
2154.9999792772719
 20
1028.0000057050906
 42
-1
  0
VERTEX
  8
0
 10
2154.9999792772719
 20
998.00000570509064
 42
-1
  0
SEQEND
  0
POLYLINE
  8
0
 10
0
 20
0
 39
0
 70
1
 66
1
  0
VERTEX
  8
0
 10
2154.9999792772719
 20
585.00000570509064
 42
-1
  0
VERTEX
  8
0
 10
2154.9999792772719
 20
545.00000570509064
 42
-1
  0
SEQEND
  0
POLYLINE
  8
0
 10
0
 20
0
 39
0
 70
1
 66
1
  0
VERTEX
  8
0
 10
2154.9999792772719
 20
642.75000570509064
 42
-1
  0
VERTEX
  8
0
 10
2154.9999792772719
 20
617.25000570509064
 42
-1
  0
SEQEND
  0
POLYLINE
  8
0
 10
0
 20
0
 39
0
 70
1
 66
1
  0
VERTEX
  8
0
 10
3349.9999733725172
 20
1249.4549832595776
 42
0.94444441795349121
  0
VERTEX
  8
0
 10
3349.9999581137281
 20
889.45498657226562
 42
0
  0
VERTEX
  8
0
 10
3479.9999581137281
 20
889.45498657226562
 42
0
  0
VERTEX
  8
0
 10
3479.9999581137281
 20
1249.4549865722656
 42
0
  0
SEQEND
  0
POLYLINE
  8
0
 10
0
 20
0
 39
0
 70
1
 66
1
  0
VERTEX
  8
0
 10
3419.9999581137281
 20
1079.9549865722656
 42
-1
  0
VERTEX
  8
0
 10
3419.9999581137281
 20
1058.9549865722656
 42
-1
  0
SEQEND
  0
POLYLINE
  8
0
 10
0
 20
0
 39
0
 70
1
 66
1
  0
VERTEX
  8
0
 10
3299.9999581137281
 20
1069.4549865722656
 42
0.41421356797218323
  0
VERTEX
  8
0
 10
3419.9999581137281
 20
949.45498657226563
 42
-1
  0
VERTEX
  8
0
 10
3419.9999581137281
 20
927.45498657226562
 42
-0.41421356797218323
  0
VERTEX
  8
0
 10
3277.9999581137281
 20
1069.4549865722656
 42
-1
  0
SEQEND
  0
POLYLINE
  8
0
 10
0
 20
0
 39
0
 70
1
 66
1
  0
VERTEX
  8
0
 10
1690.0000127915548
 20
515.00000570509064
 42
0
  0
VERTEX
  8
0
 10
1685.0026735428976
 20
55.489355070325018
 42
1.0109343528747559
  0
VERTEX
  8
0
 10
1774.9973501328634
 20
55.489355070325018
 42
-0
  0
VERTEX
  8
0
 10
1770.0000127915548
 20
515.00000570509064
 42
-0
  0
VERTEX
  8
0
 10
1755.0000127915548
 20
535.00000570509064
 42
0
  0
VERTEX
  8
0
 10
1705.0000127915548
 20
535.00000570509064
 42
0
  0
SEQEND
  0
POLYLINE
  8
0
 10
0
 20
0
 39
0
 70
1
 66
1
  0
VERTEX
  8
0
 10
1730.0000127915548
 20
518.00000570509064
 42
-1
  0
VERTEX
  8
0
 10
1730.0000127915548
 20
488.00000570509064
 42
-1
  0
SEQEND
  0
POLYLINE
  8
0
 10
0
 20
0
 39
0
 70
1
 66
1
  0
VERTEX
  8
0
 10
1730.0000127915548
 20
75.000005705090643
 42
-1
  0
VERTEX
  8
0
 10
1730.0000127915548
 20
35.000005705090643
 42
-1
  0
SEQEND
  0
POLYLINE
  8
0
 10
0
 20
0
 39
0
 70
1
 66
1
  0
VERTEX
  8
0
 10
1730.0000127915548
 20
132.75000570509064
 42
-1
  0
VERTEX
  8
0
 10
1730.0000127915548
 20
107.25000570509064
 42
-1
  0
SEQEND
  0
POLYLINE
  8
0
 10
0
 20
0
 39
0
 70
1
 66
1
  0
VERTEX
  8
0
 10
1790.0000110772633
 20
515.00000570509064
 42
0
  0
VERTEX
  8
0
 10
1785.002671828606
 20
55.489355070325018
 42
1.0109343528747559
  0
VERTEX
  8
0
 10
1874.9973484185718
 20
55.489355070325018
 42
-0
  0
VERTEX
  8
0
 10
1870.0000110772633
 20
515.00000570509064
 42
-0
  0
VERTEX
  8
0
 10
1855.0000110772633
 20
535.00000570509064
 42
0
  0
VERTEX
  8
0
 10
1805.0000110772633
 20
535.00000570509064
 42
0
  0
SEQEND
  0
POLYLINE
  8
0
 10
0
 20
0
 39
0
 70
1
 66
1
  0
VERTEX
  8
0
 10
1830.0000110772633
 20
518.00000570509064
 42
-1
  0
VERTEX
  8
0
 10
1830.0000110772633
 20
488.00000570509064
 42
-1
  0
SEQEND
  0
POLYLINE
  8
0
 10
0
 20
0
 39
0
 70
1
 66
1
  0
VERTEX
  8
0
 10
1830.0000110772633
 20
75.000005705090643
 42
-1
  0
VERTEX
  8
0
 10
1830.0000110772633
 20
35.000005705090643
 42
-1
  0
SEQEND
  0
POLYLINE
  8
0
 10
0
 20
0
 39
0
 70
1
 66
1
  0
VERTEX
  8
0
 10
1830.0000110772633
 20
132.75000570509064
 42
-1
  0
VERTEX
  8
0
 10
1830.0000110772633
 20
107.25000570509064
 42
-1
  0
SEQEND
  0
POLYLINE
  8
0
 10
0
 20
0
 39
0
 70
1
 66
1
  0
VERTEX
  8
0
 10
1604.9999844201463
 20
1050.0000114101813
 42
0
  0
VERTEX
  8
0
 10
1600.0026451714891
 20
590.48936077541566
 42
1.0109343528747559
  0
VERTEX
  8
0
 10
1689.9973217614549
 20
590.48936077541566
 42
-0
  0
VERTEX
  8
0
 10
1684.9999844201463
 20
1050.0000114101813
 42
-0
  0
VERTEX
  8
0
 10
1669.9999844201463
 20
1070.0000114101813
 42
0
  0
VERTEX
  8
0
 10
1619.9999844201463
 20
1070.0000114101813
 42
0
  0
SEQEND
  0
POLYLINE
  8
0
 10
0
 20
0
 39
0
 70
1
 66
1
  0
VERTEX
  8
0
 10
1644.9999844201463
 20
1053.0000114101813
 42
-1
  0
VERTEX
  8
0
 10
1644.9999844201463
 20
1023.0000114101813
 42
-1
  0
SEQEND
  0
POLYLINE
  8
0
 10
0
 20
0
 39
0
 70
1
 66
1
  0
VERTEX
  8
0
 10
1644.9999844201463
 20
610.00001141018129
 42
-1
  0
VERTEX
  8
0
 10
1644.9999844201463
 20
570.00001141018129
 42
-1
  0
SEQEND
  0
POLYLINE
  8
0
 10
0
 20
0
 39
0
 70
1
 66
1
  0
VERTEX
  8
0
 10
1644.9999844201463
 20
667.75001141018129
 42
-1
  0
VERTEX
  8
0
 10
1644.9999844201463
 20
642.25001141018129
 42
-1
  0
SEQEND
  0
POLYLINE
  8
0
 10
0
 20
0
 39
0
 70
1
 66
1
  0
VERTEX
  8
0
 10
3086.2468242098421
 20
509.45498657226562
 42
0.069234177470207214
  0
VERTEX
  8
0
 10
3058.2388247896761
 20
470.510986328125
 42
0.079816624522209167
  0
VERTEX
  8
0
 10
3046.0818246056169
 20
434.78298950195312
 42
0.047521818429231644
  0
VERTEX
  8
0
 10
3045.0308246065706
 20
419.25399017333984
 42
-0
  0
VERTEX
  8
0
 10
3068.7868251253694
 20
426.62298583984375
 42
-0.38637956976890564
  0
VERTEX
  8
0
 10
3084.6358241488069
 20
421.05898284912109
 42
-0.088767781853675842
  0
VERTEX
  8
0
 10
3086.2418231417269
 20
415.10898590087891
 42
-0
  0
VERTEX
  8
0
 10
3086.2468242098421
 20
333.96098327636719
 42
0.070435717701911926
  0
VERTEX
  8
0
 10
3058.2388247896761
 20
295.3909912109375
 42
0.080368667840957642
  0
VERTEX
  8
0
 10
3046.0818246056169
 20
259.77499389648437
 42
0.047553077340126038
  0
VERTEX
  8
0
 10
3045.0308246065706
 20
244.25399780273437
 42
-0
  0
VERTEX
  8
0
 10
3068.7868251253694
 20
251.62298583984375
 42
-0.52468550205230713
  0
VERTEX
  8
0
 10
3086.2418231417269
 20
240.10897827148437
 42
-0
  0
VERTEX
  8
0
 10
3086.2468242098421
 20
158.50399780273437
 42
0.071582213044166565
  0
VERTEX
  8
0
 10
3058.2388247896761
 20
120.27899169921875
 42
0.080889515578746796
  0
VERTEX
  8
0
 10
3046.0818246056169
 20
84.767974853515625
 42
0.047581363469362259
  0
VERTEX
  8
0
 10
3045.0308246065706
 20
69.253997802734375
 42
-0
  0
VERTEX
  8
0
 10
3068.7868251253694
 20
76.62298583984375
 42
-0.52468550205230713
  0
VERTEX
  8
0
 10
3086.2418231417269
 20
65.108978271484375
 42
-0
  0
VERTEX
  8
0
 10
3086.287824576053
 20
10
 42
-0
  0
VERTEX
  8
0
 10
3141.2878283907503
 20
10
 42
-0
  0
VERTEX
  8
0
 10
3141.2878283907503
 20
508.30598652362823
 42
-0
  0
SEQEND
  0
POLYLINE
  8
0
 10
0
 20
0
 39
0
 70
1
 66
1
  0
VERTEX
  8
0
 10
3113.5166034151644
 20
458.38297653198242
 42
-1
  0
VERTEX
  8
0
 10
3113.5166034151644
 20
446.38297653198242
 42
-1
  0
SEQEND
  0
POLYLINE
  8
0
 10
0
 20
0
 39
0
 70
1
 66
1
  0
VERTEX
  8
0
 10
3113.5165805269808
 20
283.86795043945312
 42
-1
  0
VERTEX
  8
0
 10
3113.5165805269808
 20
271.86795043945312
 42
-1
  0
SEQEND
  0
POLYLINE
  8
0
 10
0
 20
0
 39
0
 70
1
 66
1
  0
VERTEX
  8
0
 10
3113.5178851534456
 20
109.35427856445312
 42
-1
  0
VERTEX
  8
0
 10
3113.5178851534456
 20
97.354278564453125
 42
-1
  0
SEQEND
  0
POLYLINE
  8
0
 10
0
 20
0
 39
0
 70
1
 66
1
  0
VERTEX
  8
0
 10
3298.8225237232955
 20
509.45498657226562
 42
0.069234177470207214
  0
VERTEX
  8
0
 10
3270.8145243031295
 20
470.510986328125
 42
0.079816624522209167
  0
VERTEX
  8
0
 10
3258.6575241190703
 20
434.78298950195312
 42
0.047521818429231644
  0
VERTEX
  8
0
 10
3257.606524120024
 20
419.25399017333984
 42
-0
  0
VERTEX
  8
0
 10
3281.3625246388228
 20
426.62298583984375
 42
-0.38637956976890564
  0
VERTEX
  8
0
 10
3297.2115236622603
 20
421.05898284912109
 42
-0.088767781853675842
  0
VERTEX
  8
0
 10
3298.8175226551803
 20
415.10898590087891
 42
-0
  0
VERTEX
  8
0
 10
3298.8225237232955
 20
333.96098327636719
 42
0.070435717701911926
  0
VERTEX
  8
0
 10
3270.8145243031295
 20
295.3909912109375
 42
0.080368667840957642
  0
VERTEX
  8
0
 10
3258.6575241190703
 20
259.77499389648437
 42
0.047553077340126038
  0
VERTEX
  8
0
 10
3257.606524120024
 20
244.25399780273437
 42
-0
  0
VERTEX
  8
0
 10
3281.3625246388228
 20
251.62298583984375
 42
-0.52468550205230713
  0
VERTEX
  8
0
 10
3298.8175226551803
 20
240.10897827148437
 42
-0
  0
VERTEX
  8
0
 10
3298.8225237232955
 20
158.50399780273437
 42
0.071582213044166565
  0
VERTEX
  8
0
 10
3270.8145243031295
 20
120.27899169921875
 42
0.080889515578746796
  0
VERTEX
  8
0
 10
3258.6575241190703
 20
84.767974853515625
 42
0.047581363469362259
  0
VERTEX
  8
0
 10
3257.606524120024
 20
69.253997802734375
 42
-0
  0
VERTEX
  8
0
 10
3281.3625246388228
 20
76.62298583984375
 42
-0.52468550205230713
  0
VERTEX
  8
0
 10
3298.8175226551803
 20
65.108978271484375
 42
-0
  0
VERTEX
  8
0
 10
3298.8635240895064
 20
10
 42
-0
  0
VERTEX
  8
0
 10
3353.8635279042037
 20
10
 42
-0
  0
VERTEX
  8
0
 10
3353.8635279042037
 20
508.30598652362823
 42
-0
  0
SEQEND
  0
POLYLINE
  8
0
 10
0
 20
0
 39
0
 70
1
 66
1
  0
VERTEX
  8
0
 10
3326.0923029286178
 20
458.38297653198242
 42
-1
  0
VERTEX
  8
0
 10
3326.0923029286178
 20
446.38297653198242
 42
-1
  0
SEQEND
  0
POLYLINE
  8
0
 10
0
 20
0
 39
0
 70
1
 66
1
  0
VERTEX
  8
0
 10
3326.0922800404342
 20
283.86795043945312
 42
-1
  0
VERTEX
  8
0
 10
3326.0922800404342
 20
271.86795043945312
 42
-1
  0
SEQEND
  0
POLYLINE
  8
0
 10
0
 20
0
 39
0
 70
1
 66
1
  0
VERTEX
  8
0
 10
3326.093584666899
 20
109.35427856445312
 42
-1
  0
VERTEX
  8
0
 10
3326.093584666899
 20
97.354278564453125
 42
-1
  0
SEQEND
  0
POLYLINE
  8
0
 10
0
 20
0
 39
0
 70
1
 66
1
  0
VERTEX
  8
0
 10
3192.5346739665688
 20
509.45498657226562
 42
0.069234177470207214
  0
VERTEX
  8
0
 10
3164.5266745464028
 20
470.510986328125
 42
0.079816624522209167
  0
VERTEX
  8
0
 10
3152.3696743623436
 20
434.78298950195312
 42
0.047521818429231644
  0
VERTEX
  8
0
 10
3151.3186743632973
 20
419.25399017333984
 42
-0
  0
VERTEX
  8
0
 10
3175.0746748820961
 20
426.62298583984375
 42
-0.38637956976890564
  0
VERTEX
  8
0
 10
3190.9236739055336
 20
421.05898284912109
 42
-0.088767781853675842
  0
VERTEX
  8
0
 10
3192.5296728984536
 20
415.10898590087891
 42
-0
  0
VERTEX
  8
0
 10
3192.5346739665688
 20
333.96098327636719
 42
0.070435717701911926
  0
VERTEX
  8
0
 10
3164.5266745464028
 20
295.3909912109375
 42
0.080368667840957642
  0
VERTEX
  8
0
 10
3152.3696743623436
 20
259.77499389648437
 42
0.047553077340126038
  0
VERTEX
  8
0
 10
3151.3186743632973
 20
244.25399780273437
 42
-0
  0
VERTEX
  8
0
 10
3175.0746748820961
 20
251.62298583984375
 42
-0.52468550205230713
  0
VERTEX
  8
0
 10
3192.5296728984536
 20
240.10897827148437
 42
-0
  0
VERTEX
  8
0
 10
3192.5346739665688
 20
158.50399780273437
 42
0.071582213044166565
  0
VERTEX
  8
0
 10
3164.5266745464028
 20
120.27899169921875
 42
0.080889515578746796
  0
VERTEX
  8
0
 10
3152.3696743623436
 20
84.767974853515625
 42
0.047581363469362259
  0
VERTEX
  8
0
 10
3151.3186743632973
 20
69.253997802734375
 42
-0
  0
VERTEX
  8
0
 10
3175.0746748820961
 20
76.62298583984375
 42
-0.52468550205230713
  0
VERTEX
  8
0
 10
3192.5296728984536
 20
65.108978271484375
 42
-0
  0
VERTEX
  8
0
 10
3192.5756743327797
 20
10
 42
-0
  0
VERTEX
  8
0
 10
3247.575678147477
 20
10
 42
-0
  0
VERTEX
  8
0
 10
3247.575678147477
 20
508.30598652362823
 42
-0
  0
SEQEND
  0
POLYLINE
  8
0
 10
0
 20
0
 39
0
 70
1
 66
1
  0
VERTEX
  8
0
 10
3219.8044531718911
 20
458.38297653198242
 42
-1
  0
VERTEX
  8
0
 10
3219.8044531718911
 20
446.38297653198242
 42
-1
  0
SEQEND
  0
POLYLINE
  8
0
 10
0
 20
0
 39
0
 70
1
 66
1
  0
VERTEX
  8
0
 10
3219.8044302837075
 20
283.86795043945312
 42
-1
  0
VERTEX
  8
0
 10
3219.8044302837075
 20
271.86795043945312
 42
-1
  0
SEQEND
  0
POLYLINE
  8
0
 10
0
 20
0
 39
0
 70
1
 66
1
  0
VERTEX
  8
0
 10
3219.8057349101723
 20
109.35427856445312
 42
-1
  0
VERTEX
  8
0
 10
3219.8057349101723
 20
97.354278564453125
 42
-1
  0
SEQEND
  0
POLYLINE
  8
0
 10
0
 20
0
 39
0
 70
1
 66
1
  0
VERTEX
  8
0
 10
1704.9999827058548
 20
1050.0000114101813
 42
0
  0
VERTEX
  8
0
 10
1700.0026434571976
 20
590.48936077541566
 42
1.0109343528747559
  0
VERTEX
  8
0
 10
1789.9973200471634
 20
590.48936077541566
 42
-0
  0
VERTEX
  8
0
 10
1784.9999827058548
 20
1050.0000114101813
 42
-0
  0
VERTEX
  8
0
 10
1769.9999827058548
 20
1070.0000114101813
 42
0
  0
VERTEX
  8
0
 10
1719.9999827058548
 20
1070.0000114101813
 42
0
  0
SEQEND
  0
POLYLINE
  8
0
 10
0
 20
0
 39
0
 70
1
 66
1
  0
VERTEX
  8
0
 10
1744.9999827058548
 20
1053.0000114101813
 42
-1
  0
VERTEX
  8
0
 10
1744.9999827058548
 20
1023.0000114101813
 42
-1
  0
SEQEND
  0
POLYLINE
  8
0
 10
0
 20
0
 39
0
 70
1
 66
1
  0
VERTEX
  8
0
 10
1744.9999827058548
 20
610.00001141018129
 42
-1
  0
VERTEX
  8
0
 10
1744.9999827058548
 20
570.00001141018129
 42
-1
  0
SEQEND
  0
POLYLINE
  8
0
 10
0
 20
0
 39
0
 70
1
 66
1
  0
VERTEX
  8
0
 10
1744.9999827058548
 20
667.75001141018129
 42
-1
  0
VERTEX
  8
0
 10
1744.9999827058548
 20
642.25001141018129
 42
-1
  0
SEQEND
  0
POLYLINE
  8
0
 10
0
 20
0
 39
0
 70
1
 66
1
  0
VERTEX
  8
0
 10
1504.9999861344379
 20
1375.0000057050906
 42
0
  0
VERTEX
  8
0
 10
1500.0026468857807
 20
915.48935507032502
 42
1.0109343528747559
  0
VERTEX
  8
0
 10
1589.9973234757465
 20
915.48935507032502
 42
-0
  0
VERTEX
  8
0
 10
1584.9999861344379
 20
1375.0000057050906
 42
-0
  0
VERTEX
  8
0
 10
1569.9999861344379
 20
1395.0000057050906
 42
0
  0
VERTEX
  8
0
 10
1519.9999861344379
 20
1395.0000057050906
 42
0
  0
SEQEND
  0
POLYLINE
  8
0
 10
0
 20
0
 39
0
 70
1
 66
1
  0
VERTEX
  8
0
 10
1544.9999861344379
 20
1378.0000057050906
 42
-1
  0
VERTEX
  8
0
 10
1544.9999861344379
 20
1348.0000057050906
 42
-1
  0
SEQEND
  0
POLYLINE
  8
0
 10
0
 20
0
 39
0
 70
1
 66
1
  0
VERTEX
  8
0
 10
1544.9999861344379
 20
935.00000570509064
 42
-1
  0
VERTEX
  8
0
 10
1544.9999861344379
 20
895.00000570509064
 42
-1
  0
SEQEND
  0
POLYLINE
  8
0
 10
0
 20
0
 39
0
 70
1
 66
1
  0
VERTEX
  8
0
 10
1544.9999861344379
 20
992.75000570509064
 42
-1
  0
VERTEX
  8
0
 10
1544.9999861344379
 20
967.25000570509064
 42
-1
  0
SEQEND
  0
POLYLINE
  8
0
 10
0
 20
0
 39
0
 70
1
 66
1
  0
VERTEX
  8
0
 10
3086.2468242098421
 20
1018.9099731445312
 42
0.069234177470207214
  0
VERTEX
  8
0
 10
3058.2388247896761
 20
979.96597290039062
 42
0.079816624522209167
  0
VERTEX
  8
0
 10
3046.0818246056169
 20
944.23797607421875
 42
0.047521818429231644
  0
VERTEX
  8
0
 10
3045.0308246065706
 20
928.70897674560547
 42
-0
  0
VERTEX
  8
0
 10
3068.7868251253694
 20
936.07797241210937
 42
-0.38637956976890564
  0
VERTEX
  8
0
 10
3084.6358241488069
 20
930.51396942138672
 42
-0.088767781853675842
  0
VERTEX
  8
0
 10
3086.2418231417269
 20
924.56397247314453
 42
-0
  0
VERTEX
  8
0
 10
3086.2468242098421
 20
843.41596984863281
 42
0.070435717701911926
  0
VERTEX
  8
0
 10
3058.2388247896761
 20
804.84597778320312
 42
0.080368667840957642
  0
VERTEX
  8
0
 10
3046.0818246056169
 20
769.22998046875
 42
0.047553077340126038
  0
VERTEX
  8
0
 10
3045.0308246065706
 20
753.708984375
 42
-0
  0
VERTEX
  8
0
 10
3068.7868251253694
 20
761.07797241210937
 42
-0.52468550205230713
  0
VERTEX
  8
0
 10
3086.2418231417269
 20
749.56396484375
 42
-0
  0
VERTEX
  8
0
 10
3086.2468242098421
 20
667.958984375
 42
0.071582213044166565
  0
VERTEX
  8
0
 10
3058.2388247896761
 20
629.73397827148437
 42
0.080889515578746796
  0
VERTEX
  8
0
 10
3046.0818246056169
 20
594.22296142578125
 42
0.047581363469362259
  0
VERTEX
  8
0
 10
3045.0308246065706
 20
578.708984375
 42
-0
  0
VERTEX
  8
0
 10
3068.7868251253694
 20
586.07797241210937
 42
-0.52468550205230713
  0
VERTEX
  8
0
 10
3086.2418231417269
 20
574.56396484375
 42
-0
  0
VERTEX
  8
0
 10
3086.287824576053
 20
519.45498657226562
 42
-0
  0
VERTEX
  8
0
 10
3141.2878283907503
 20
519.45498657226562
 42
-0
  0
VERTEX
  8
0
 10
3141.2878283907503
 20
1017.7609730958939
 42
-0
  0
SEQEND
  0
POLYLINE
  8
0
 10
0
 20
0
 39
0
 70
1
 66
1
  0
VERTEX
  8
0
 10
3113.5166034151644
 20
967.83796310424805
 42
-1
  0
VERTEX
  8
0
 10
3113.5166034151644
 20
955.83796310424805
 42
-1
  0
SEQEND
  0
POLYLINE
  8
0
 10
0
 20
0
 39
0
 70
1
 66
1
  0
VERTEX
  8
0
 10
3113.5165805269808
 20
793.32293701171875
 42
-1
  0
VERTEX
  8
0
 10
3113.5165805269808
 20
781.32293701171875
 42
-1
  0
SEQEND
  0
POLYLINE
  8
0
 10
0
 20
0
 39
0
 70
1
 66
1
  0
VERTEX
  8
0
 10
3113.5178851534456
 20
618.80926513671875
 42
-1
  0
VERTEX
  8
0
 10
3113.5178851534456
 20
606.80926513671875
 42
-1
  0
SEQEND
  0
POLYLINE
  8
0
 10
0
 20
0
 39
0
 70
1
 66
1
  0
VERTEX
  8
0
 10
1619.9999843236178
 20
1315.0000115067098
 42
0
  0
VERTEX
  8
0
 10
2079.5106349583834
 20
1310.0026722580526
 42
1.0109343528747559
  0
VERTEX
  8
0
 10
2079.5106349583834
 20
1399.9973488480184
 42
-0
  0
VERTEX
  8
0
 10
1619.9999843236178
 20
1395.0000115067098
 42
-0
  0
VERTEX
  8
0
 10
1599.9999843236178
 20
1380.0000115067098
 42
0
  0
VERTEX
  8
0
 10
1599.9999843236178
 20
1330.0000115067098
 42
0
  0
SEQEND
  0
POLYLINE
  8
0
 10
0
 20
0
 39
0
 70
1
 66
1
  0
VERTEX
  8
0
 10
1616.9999843236178
 20
1355.0000115067098
 42
-1
  0
VERTEX
  8
0
 10
1646.9999843236178
 20
1355.0000115067098
 42
-1
  0
SEQEND
  0
POLYLINE
  8
0
 10
0
 20
0
 39
0
 70
1
 66
1
  0
VERTEX
  8
0
 10
2059.9999843236178
 20
1355.0000115067098
 42
-1
  0
VERTEX
  8
0
 10
2099.9999843236178
 20
1355.0000115067098
 42
-1
  0
SEQEND
  0
POLYLINE
  8
0
 10
0
 20
0
 39
0
 70
1
 66
1
  0
VERTEX
  8
0
 10
2002.2499843236178
 20
1355.0000115067098
 42
-1
  0
VERTEX
  8
0
 10
2027.7499843236178
 20
1355.0000115067098
 42
-1
  0
SEQEND
  0
POLYLINE
  8
0
 10
0
 20
0
 39
0
 70
1
 66
1
  0
VERTEX
  8
0
 10
2679.9999860379094
 20
1405.0000000965285
 42
0
  0
VERTEX
  8
0
 10
3139.510636672675
 20
1400.0026608478713
 42
1.0109343528747559
  0
VERTEX
  8
0
 10
3139.510636672675
 20
1489.9973374378371
 42
-0
  0
VERTEX
  8
0
 10
2679.9999860379094
 20
1485.0000000965285
 42
-0
  0
VERTEX
  8
0
 10
2659.9999860379094
 20
1470.0000000965285
 42
0
  0
VERTEX
  8
0
 10
2659.9999860379094
 20
1420.0000000965285
 42
0
  0
SEQEND
  0
POLYLINE
  8
0
 10
0
 20
0
 39
0
 70
1
 66
1
  0
VERTEX
  8
0
 10
2676.9999860379094
 20
1445.0000000965285
 42
-1
  0
VERTEX
  8
0
 10
2706.9999860379094
 20
1445.0000000965285
 42
-1
  0
SEQEND
  0
POLYLINE
  8
0
 10
0
 20
0
 39
0
 70
1
 66
1
  0
VERTEX
  8
0
 10
3119.9999860379094
 20
1445.0000000965285
 42
-1
  0
VERTEX
  8
0
 10
3159.9999860379094
 20
1445.0000000965285
 42
-1
  0
SEQEND
  0
POLYLINE
  8
0
 10
0
 20
0
 39
0
 70
1
 66
1
  0
VERTEX
  8
0
 10
3062.2499860379094
 20
1445.0000000965285
 42
-1
  0
VERTEX
  8
0
 10
3087.7499860379094
 20
1445.0000000965285
 42
-1
  0
SEQEND
  0
POLYLINE
  8
0
 10
0
 20
0
 39
0
 70
1
 66
1
  0
VERTEX
  8
0
 10
3039.9999873346078
 20
1389.999996687312
 42
0.94444441795349121
  0
VERTEX
  8
0
 10
3039.9999720758187
 20
1030
 42
0
  0
VERTEX
  8
0
 10
3169.9999720758187
 20
1030
 42
0
  0
VERTEX
  8
0
 10
3169.9999720758187
 20
1390
 42
0
  0
SEQEND
  0
POLYLINE
  8
0
 10
0
 20
0
 39
0
 70
1
 66
1
  0
VERTEX
  8
0
 10
3109.9999720758187
 20
1220.5
 42
-1
  0
VERTEX
  8
0
 10
3109.9999720758187
 20
1199.5
 42
-1
  0
SEQEND
  0
POLYLINE
  8
0
 10
0
 20
0
 39
0
 70
1
 66
1
  0
VERTEX
  8
0
 10
2989.9999720758187
 20
1210
 42
0.41421356797218323
  0
VERTEX
  8
0
 10
3109.9999720758187
 20
1090
 42
-1
  0
VERTEX
  8
0
 10
3109.9999720758187
 20
1068
 42
-0.41421356797218323
  0
VERTEX
  8
0
 10
2967.9999720758187
 20
1210
 42
-1
  0
SEQEND
  0
POLYLINE
  8
0
 10
0
 20
0
 39
0
 70
1
 66
1
  0
VERTEX
  8
0
 10
2214.9999775629803
 20
1025.0000057050906
 42
0
  0
VERTEX
  8
0
 10
2210.0026383143231
 20
565.48935507032502
 42
1.0109343528747559
  0
VERTEX
  8
0
 10
2299.9973149042889
 20
565.48935507032502
 42
-0
  0
VERTEX
  8
0
 10
2294.9999775629803
 20
1025.0000057050906
 42
-0
  0
VERTEX
  8
0
 10
2279.9999775629803
 20
1045.0000057050906
 42
0
  0
VERTEX
  8
0
 10
2229.9999775629803
 20
1045.0000057050906
 42
0
  0
SEQEND
  0
POLYLINE
  8
0
 10
0
 20
0
 39
0
 70
1
 66
1
  0
VERTEX
  8
0
 10
2254.9999775629803
 20
1028.0000057050906
 42
-1
  0
VERTEX
  8
0
 10
2254.9999775629803
 20
998.00000570509064
 42
-1
  0
SEQEND
  0
POLYLINE
  8
0
 10
0
 20
0
 39
0
 70
1
 66
1
  0
VERTEX
  8
0
 10
2254.9999775629803
 20
585.00000570509064
 42
-1
  0
VERTEX
  8
0
 10
2254.9999775629803
 20
545.00000570509064
 42
-1
  0
SEQEND
  0
POLYLINE
  8
0
 10
0
 20
0
 39
0
 70
1
 66
1
  0
VERTEX
  8
0
 10
2254.9999775629803
 20
642.75000570509064
 42
-1
  0
VERTEX
  8
0
 10
2254.9999775629803
 20
617.25000570509064
 42
-1
  0
SEQEND
  0
POLYLINE
  8
0
 10
0
 20
0
 39
0
 70
1
 66
1
  0
VERTEX
  8
0
 10
1590.0000145058464
 20
515.00000570509064
 42
0
  0
VERTEX
  8
0
 10
1585.0026752571891
 20
55.489355070325018
 42
1.0109343528747559
  0
VERTEX
  8
0
 10
1674.997351847155
 20
55.489355070325018
 42
-0
  0
VERTEX
  8
0
 10
1670.0000145058464
 20
515.00000570509064
 42
-0
  0
VERTEX
  8
0
 10
1655.0000145058464
 20
535.00000570509064
 42
0
  0
VERTEX
  8
0
 10
1605.0000145058464
 20
535.00000570509064
 42
0
  0
SEQEND
  0
POLYLINE
  8
0
 10
0
 20
0
 39
0
 70
1
 66
1
  0
VERTEX
  8
0
 10
1630.0000145058464
 20
518.00000570509064
 42
-1
  0
VERTEX
  8
0
 10
1630.0000145058464
 20
488.00000570509064
 42
-1
  0
SEQEND
  0
POLYLINE
  8
0
 10
0
 20
0
 39
0
 70
1
 66
1
  0
VERTEX
  8
0
 10
1630.0000145058464
 20
75.000005705090643
 42
-1
  0
VERTEX
  8
0
 10
1630.0000145058464
 20
35.000005705090643
 42
-1
  0
SEQEND
  0
POLYLINE
  8
0
 10
0
 20
0
 39
0
 70
1
 66
1
  0
VERTEX
  8
0
 10
1630.0000145058464
 20
132.75000570509064
 42
-1
  0
VERTEX
  8
0
 10
1630.0000145058464
 20
107.25000570509064
 42
-1
  0
SEQEND
  0
POLYLINE
  8
0
 10
0
 20
0
 39
0
 70
1
 66
1
  0
VERTEX
  8
0
 10
180.00000129669823
 20
1429.999996687312
 42
0.94444441795349121
  0
VERTEX
  8
0
 10
179.9999860379092
 20
1070
 42
0
  0
VERTEX
  8
0
 10
309.99998603790914
 20
1070
 42
0
  0
VERTEX
  8
0
 10
309.99998603790914
 20
1430
 42
0
  0
SEQEND
  0
POLYLINE
  8
0
 10
0
 20
0
 39
0
 70
1
 66
1
  0
VERTEX
  8
0
 10
249.99998603790917
 20
1260.5
 42
-1
  0
VERTEX
  8
0
 10
249.99998603790917
 20
1239.5
 42
-1
  0
SEQEND
  0
POLYLINE
  8
0
 10
0
 20
0
 39
0
 70
1
 66
1
  0
VERTEX
  8
0
 10
129.9999860379092
 20
1250
 42
0.41421356797218323
  0
VERTEX
  8
0
 10
249.9999860379092
 20
1130
 42
-1
  0
VERTEX
  8
0
 10
249.9999860379092
 20
1108
 42
-0.41421356797218323
  0
VERTEX
  8
0
 10
107.99998603790918
 20
1250
 42
-1
  0
SEQEND
  0
ENDSEC
  0
EOF
