  0
SECTION
  2
ENTITIES
  0
POLYLINE
  8
0
 10
0
 20
0
 39
0
 70
1
 66
1
  0
VERTEX
  8
0
 10
0
 20
0
 42
-0
  0
VERTEX
  8
0
 10
5000
 20
0
 42
-0
  0
VERTEX
  8
0
 10
5000
 20
2000
 42
-0
  0
VERTEX
  8
0
 10
0
 20
2000
 42
-0
  0
SEQEND
  0
POLYLINE
  8
0
 10
0
 20
0
 39
0
 70
1
 66
1
  0
VERTEX
  8
0
 10
697.37451171875
 20
10.600000381469727
 42
-0
  0
VERTEX
  8
0
 10
699.9464111328125
 20
26.391941070556641
 42
-0
  0
VERTEX
  8
0
 10
457.7786865234375
 20
604.84051513671875
 42
-0
  0
VERTEX
  8
0
 10
602.86712646484375
 20
581.21136474609375
 42
-0
  0
VERTEX
  8
0
 10
567.99896240234375
 20
895.90838623046875
 42
-0
  0
VERTEX
  8
0
 10
693.33380126953125
 20
1012.27490234375
 42
-0
  0
VERTEX
  8
0
 10
700.56719970703125
 20
1056.689697265625
 42
-0
  0
VERTEX
  8
0
 10
680.8272705078125
 20
1059.9046630859375
 42
-0
  0
VERTEX
  8
0
 10
251.59034729003906
 20
926.93389892578125
 42
0.31490704417228699
  0
VERTEX
  8
0
 10
216.4505615234375
 20
881.67742919921875
 42
-0
  0
VERTEX
  8
0
 10
212.22271728515625
 20
797.3701171875
 42
-0.19975088536739349
  0
VERTEX
  8
0
 10
195.70829772949219
 20
762.68695068359375
 42
-0
  0
VERTEX
  8
0
 10
134.94070434570312
 20
708.0767822265625
 42
0.62975972890853882
  0
VERTEX
  8
0
 10
325.32199096679687
 20
59.034507751464844
 42
-0
  0
VERTEX
  8
0
 10
478.30642700195312
 20
34.119407653808594
 42
-0
  0
VERTEX
  8
0
 10
480.23919677734375
 20
45.962738037109375
 42
-0
  0
SEQEND
  0
POLYLINE
  8
0
 10
0
 20
0
 39
0
 70
1
 66
1
  0
VERTEX
  8
0
 10
291.0616455078125
 20
875.15411376953125
 42
-1
  0
VERTEX
  8
0
 10
241.71183776855469
 20
883.19122314453125
 42
-1
  0
SEQEND
  0
POLYLINE
  8
0
 10
0
 20
0
 39
0
 70
1
 66
1
  0
VERTEX
  8
0
 10
13.792672157287598
 20
1919.504638671875
 42
-0
  0
VERTEX
  8
0
 10
11.220791816711426
 20
1903.712646484375
 42
-0
  0
VERTEX
  8
0
 10
253.38853454589844
 20
1325.2640380859375
 42
-0
  0
VERTEX
  8
0
 10
108.30007171630859
 20
1348.8931884765625
 42
-0
  0
VERTEX
  8
0
 10
143.16827392578125
 20
1034.1961669921875
 42
-0
  0
VERTEX
  8
0
 10
17.833415985107422
 20
917.8297119140625
 42
-0
  0
VERTEX
  8
0
 10
10.600000381469727
 20
873.41485595703125
 42
-0
  0
VERTEX
  8
0
 10
30.339927673339844
 20
870.20001220703125
 42
-0
  0
VERTEX
  8
0
 10
459.57687377929687
 20
1003.1707153320312
 42
0.31490704417228699
  0
VERTEX
  8
0
 10
494.71664428710937
 20
1048.4271240234375
 42
-0
  0
VERTEX
  8
0
 10
498.94448852539062
 20
1132.7344970703125
 42
-0.19975088536739349
  0
VERTEX
  8
0
 10
515.45892333984375
 20
1167.4176025390625
 42
-0
  0
VERTEX
  8
0
 10
576.22650146484375
 20
1222.02783203125
 42
0.62975972890853882
  0
VERTEX
  8
0
 10
385.84521484375
 20
1871.070068359375
 42
-0
  0
VERTEX
  8
0
 10
232.86077880859375
 20
1895.9852294921875
 42
-0
  0
VERTEX
  8
0
 10
230.92800903320312
 20
1884.141845703125
 42
-0
  0
SEQEND
  0
POLYLINE
  8
0
 10
0
 20
0
 39
0
 70
1
 66
1
  0
VERTEX
  8
0
 10
420.10556030273437
 20
1054.950439453125
 42
-1
  0
VERTEX
  8
0
 10
469.45538330078125
 20
1046.913330078125
 42
-1
  0
SEQEND
  0
POLYLINE
  8
0
 10
0
 20
0
 39
0
 70
1
 66
1
  0
VERTEX
  8
0
 10
1269.7745361328125
 20
10.600000381469727
 42
-0
  0
VERTEX
  8
0
 10
1272.346435546875
 20
26.391941070556641
 42
-0
  0
VERTEX
  8
0
 10
1030.1787109375
 20
604.84051513671875
 42
-0
  0
VERTEX
  8
0
 10
1175.26708984375
 20
581.21136474609375
 42
-0
  0
VERTEX
  8
0
 10
1140.39892578125
 20
895.90838623046875
 42
-0
  0
VERTEX
  8
0
 10
1265.7337646484375
 20
1012.27490234375
 42
-0
  0
VERTEX
  8
0
 10
1272.9671630859375
 20
1056.689697265625
 42
-0
  0
VERTEX
  8
0
 10
1253.227294921875
 20
1059.9046630859375
 42
-0
  0
VERTEX
  8
0
 10
823.9903564453125
 20
926.93389892578125
 42
0.31490704417228699
  0
VERTEX
  8
0
 10
788.8505859375
 20
881.67742919921875
 42
-0
  0
VERTEX
  8
0
 10
784.6226806640625
 20
797.3701171875
 42
-0.19975088536739349
  0
VERTEX
  8
0
 10
768.1082763671875
 20
762.68695068359375
 42
-0
  0
VERTEX
  8
0
 10
707.3406982421875
 20
708.0767822265625
 42
0.62975972890853882
  0
VERTEX
  8
0
 10
897.72198486328125
 20
59.034507751464844
 42
-0
  0
VERTEX
  8
0
 10
1050.7064208984375
 20
34.119407653808594
 42
-0
  0
VERTEX
  8
0
 10
1052.63916015625
 20
45.962738037109375
 42
-0
  0
SEQEND
  0
POLYLINE
  8
0
 10
0
 20
0
 39
0
 70
1
 66
1
  0
VERTEX
  8
0
 10
863.461669921875
 20
875.15411376953125
 42
-1
  0
VERTEX
  8
0
 10
814.11181640625
 20
883.19122314453125
 42
-1
  0
SEQEND
  0
POLYLINE
  8
0
 10
0
 20
0
 39
0
 70
1
 66
1
  0
VERTEX
  8
0
 10
612.99267578125
 20
1927.9046630859375
 42
-0
  0
VERTEX
  8
0
 10
610.4207763671875
 20
1912.1126708984375
 42
-0
  0
VERTEX
  8
0
 10
852.58856201171875
 20
1333.6640625
 42
-0
  0
VERTEX
  8
0
 10
707.50006103515625
 20
1357.293212890625
 42
-0
  0
VERTEX
  8
0
 10
742.3682861328125
 20
1042.59619140625
 42
-0
  0
VERTEX
  8
0
 10
617.03338623046875
 20
926.22967529296875
 42
-0
  0
VERTEX
  8
0
 10
609.79998779296875
 20
881.81488037109375
 42
-0
  0
VERTEX
  8
0
 10
629.5399169921875
 20
878.5999755859375
 42
-0
  0
VERTEX
  8
0
 10
1058.77685546875
 20
1011.5707397460937
 42
0.31490704417228699
  0
VERTEX
  8
0
 10
1093.9166259765625
 20
1056.8271484375
 42
-0
  0
VERTEX
  8
0
 10
1098.14453125
 20
1141.134521484375
 42
-0.19975088536739349
  0
VERTEX
  8
0
 10
1114.658935546875
 20
1175.817626953125
 42
-0
  0
VERTEX
  8
0
 10
1175.426513671875
 20
1230.4278564453125
 42
0.62975972890853882
  0
VERTEX
  8
0
 10
985.04522705078125
 20
1879.4700927734375
 42
-0
  0
VERTEX
  8
0
 10
832.060791015625
 20
1904.38525390625
 42
-0
  0
VERTEX
  8
0
 10
830.12799072265625
 20
1892.5418701171875
 42
-0
  0
SEQEND
  0
POLYLINE
  8
0
 10
0
 20
0
 39
0
 70
1
 66
1
  0
VERTEX
  8
0
 10
1019.3055419921875
 20
1063.3504638671875
 42
-1
  0
VERTEX
  8
0
 10
1068.6553955078125
 20
1055.3133544921875
 42
-1
  0
SEQEND
  0
POLYLINE
  8
0
 10
0
 20
0
 39
0
 70
1
 66
1
  0
VERTEX
  8
0
 10
1842.174560546875
 20
10.600000381469727
 42
-0
  0
VERTEX
  8
0
 10
1844.7464599609375
 20
26.391941070556641
 42
-0
  0
VERTEX
  8
0
 10
1602.5787353515625
 20
604.84051513671875
 42
-0
  0
VERTEX
  8
0
 10
1747.6671142578125
 20
581.21136474609375
 42
-0
  0
VERTEX
  8
0
 10
1712.7989501953125
 20
895.90838623046875
 42
-0
  0
VERTEX
  8
0
 10
1838.1337890625
 20
1012.27490234375
 42
-0
  0
VERTEX
  8
0
 10
1845.3671875
 20
1056.689697265625
 42
-0
  0
VERTEX
  8
0
 10
1825.6273193359375
 20
1059.9046630859375
 42
-0
  0
VERTEX
  8
0
 10
1396.390380859375
 20
926.93389892578125
 42
0.31490704417228699
  0
VERTEX
  8
0
 10
1361.2506103515625
 20
881.67742919921875
 42
-0
  0
VERTEX
  8
0
 10
1357.022705078125
 20
797.3701171875
 42
-0.19975088536739349
  0
VERTEX
  8
0
 10
1340.50830078125
 20
762.68695068359375
 42
-0
  0
VERTEX
  8
0
 10
1279.74072265625
 20
708.0767822265625
 42
0.62975972890853882
  0
VERTEX
  8
0
 10
1470.1219482421875
 20
59.034507751464844
 42
-0
  0
VERTEX
  8
0
 10
1623.1064453125
 20
34.119407653808594
 42
-0
  0
VERTEX
  8
0
 10
1625.0391845703125
 20
45.962738037109375
 42
-0
  0
SEQEND
  0
POLYLINE
  8
0
 10
0
 20
0
 39
0
 70
1
 66
1
  0
VERTEX
  8
0
 10
1435.8616943359375
 20
875.15411376953125
 42
-1
  0
VERTEX
  8
0
 10
1386.5118408203125
 20
883.19122314453125
 42
-1
  0
SEQEND
  0
POLYLINE
  8
0
 10
0
 20
0
 39
0
 70
1
 66
1
  0
VERTEX
  8
0
 10
1185.3927001953125
 20
1927.9046630859375
 42
-0
  0
VERTEX
  8
0
 10
1182.82080078125
 20
1912.1126708984375
 42
-0
  0
VERTEX
  8
0
 10
1424.988525390625
 20
1333.6640625
 42
-0
  0
VERTEX
  8
0
 10
1279.9000244140625
 20
1357.293212890625
 42
-0
  0
VERTEX
  8
0
 10
1314.768310546875
 20
1042.59619140625
 42
-0
  0
VERTEX
  8
0
 10
1189.4334716796875
 20
926.22967529296875
 42
-0
  0
VERTEX
  8
0
 10
1182.199951171875
 20
881.81488037109375
 42
-0
  0
VERTEX
  8
0
 10
1201.93994140625
 20
878.5999755859375
 42
-0
  0
VERTEX
  8
0
 10
1631.1768798828125
 20
1011.5707397460937
 42
0.31490704417228699
  0
VERTEX
  8
0
 10
1666.316650390625
 20
1056.8271484375
 42
-0
  0
VERTEX
  8
0
 10
1670.5445556640625
 20
1141.134521484375
 42
-0.19975088536739349
  0
VERTEX
  8
0
 10
1687.0589599609375
 20
1175.817626953125
 42
-0
  0
VERTEX
  8
0
 10
1747.8265380859375
 20
1230.4278564453125
 42
0.62975972890853882
  0
VERTEX
  8
0
 10
1557.4451904296875
 20
1879.4700927734375
 42
-0
  0
VERTEX
  8
0
 10
1404.4608154296875
 20
1904.38525390625
 42
-0
  0
VERTEX
  8
0
 10
1402.5279541015625
 20
1892.5418701171875
 42
-0
  0
SEQEND
  0
POLYLINE
  8
0
 10
0
 20
0
 39
0
 70
1
 66
1
  0
VERTEX
  8
0
 10
1591.70556640625
 20
1063.3504638671875
 42
-1
  0
VERTEX
  8
0
 10
1641.055419921875
 20
1055.3133544921875
 42
-1
  0
SEQEND
  0
POLYLINE
  8
0
 10
0
 20
0
 39
0
 70
1
 66
1
  0
VERTEX
  8
0
 10
2414.574462890625
 20
10.600000381469727
 42
-0
  0
VERTEX
  8
0
 10
2417.146484375
 20
26.391941070556641
 42
-0
  0
VERTEX
  8
0
 10
2174.978759765625
 20
604.84051513671875
 42
-0
  0
VERTEX
  8
0
 10
2320.067138671875
 20
581.21136474609375
 42
-0
  0
VERTEX
  8
0
 10
2285.198974609375
 20
895.90838623046875
 42
-0
  0
VERTEX
  8
0
 10
2410.53369140625
 20
1012.27490234375
 42
-0
  0
VERTEX
  8
0
 10
2417.767333984375
 20
1056.689697265625
 42
-0
  0
VERTEX
  8
0
 10
2398.02734375
 20
1059.9046630859375
 42
-0
  0
VERTEX
  8
0
 10
1968.790283203125
 20
926.93389892578125
 42
0.31490704417228699
  0
VERTEX
  8
0
 10
1933.6505126953125
 20
881.67742919921875
 42
-0
  0
VERTEX
  8
0
 10
1929.4227294921875
 20
797.3701171875
 42
-0.19975088536739349
  0
VERTEX
  8
0
 10
1912.9083251953125
 20
762.68695068359375
 42
-0
  0
VERTEX
  8
0
 10
1852.1407470703125
 20
708.0767822265625
 42
0.62975972890853882
  0
VERTEX
  8
0
 10
2042.52197265625
 20
59.034507751464844
 42
-0
  0
VERTEX
  8
0
 10
2195.50634765625
 20
34.119407653808594
 42
-0
  0
VERTEX
  8
0
 10
2197.439208984375
 20
45.962738037109375
 42
-0
  0
SEQEND
  0
POLYLINE
  8
0
 10
0
 20
0
 39
0
 70
1
 66
1
  0
VERTEX
  8
0
 10
2008.2615966796875
 20
875.15411376953125
 42
-1
  0
VERTEX
  8
0
 10
1958.911865234375
 20
883.19122314453125
 42
-1
  0
SEQEND
  0
POLYLINE
  8
0
 10
0
 20
0
 39
0
 70
1
 66
1
  0
VERTEX
  8
0
 10
1757.792724609375
 20
1927.9046630859375
 42
-0
  0
VERTEX
  8
0
 10
1755.2208251953125
 20
1912.1126708984375
 42
-0
  0
VERTEX
  8
0
 10
1997.3885498046875
 20
1333.6640625
 42
-0
  0
VERTEX
  8
0
 10
1852.300048828125
 20
1357.293212890625
 42
-0
  0
VERTEX
  8
0
 10
1887.1683349609375
 20
1042.59619140625
 42
-0
  0
VERTEX
  8
0
 10
1761.8333740234375
 20
926.22967529296875
 42
-0
  0
VERTEX
  8
0
 10
1754.5999755859375
 20
881.81488037109375
 42
-0
  0
VERTEX
  8
0
 10
1774.3399658203125
 20
878.5999755859375
 42
-0
  0
VERTEX
  8
0
 10
2203.576904296875
 20
1011.5707397460937
 42
0.31490704417228699
  0
VERTEX
  8
0
 10
2238.716552734375
 20
1056.8271484375
 42
-0
  0
VERTEX
  8
0
 10
2242.944580078125
 20
1141.134521484375
 42
-0.19975088536739349
  0
VERTEX
  8
0
 10
2259.458984375
 20
1175.817626953125
 42
-0
  0
VERTEX
  8
0
 10
2320.2265625
 20
1230.4278564453125
 42
0.62975972890853882
  0
VERTEX
  8
0
 10
2129.84521484375
 20
1879.4700927734375
 42
-0
  0
VERTEX
  8
0
 10
1976.86083984375
 20
1904.38525390625
 42
-0
  0
VERTEX
  8
0
 10
1974.927978515625
 20
1892.5418701171875
 42
-0
  0
SEQEND
  0
POLYLINE
  8
0
 10
0
 20
0
 39
0
 70
1
 66
1
  0
VERTEX
  8
0
 10
2164.10546875
 20
1063.3504638671875
 42
-1
  0
VERTEX
  8
0
 10
2213.455322265625
 20
1055.3133544921875
 42
-1
  0
SEQEND
  0
POLYLINE
  8
0
 10
0
 20
0
 39
0
 70
1
 66
1
  0
VERTEX
  8
0
 10
2317.92236328125
 20
549.40399169921875
 42
1.2323212623596191
  0
VERTEX
  8
0
 10
2941.405029296875
 20
423.4862060546875
 42
-0
  0
VERTEX
  8
0
 10
2941.04541015625
 20
698.1077880859375
 42
0.51156294345855713
  0
SEQEND
  0
POLYLINE
  8
0
 10
0
 20
0
 39
0
 70
1
 66
1
  0
VERTEX
  8
0
 10
2684.607666015625
 20
341.005126953125
 42
-1
  0
VERTEX
  8
0
 10
2548.2236328125
 20
500.69039916992187
 42
-1
  0
SEQEND
  0
POLYLINE
  8
0
 10
0
 20
0
 39
0
 70
1
 66
1
  0
VERTEX
  8
0
 10
2417.5224609375
 20
1340.60400390625
 42
1.2323212623596191
  0
VERTEX
  8
0
 10
3041.0048828125
 20
1214.6861572265625
 42
-0
  0
VERTEX
  8
0
 10
3040.6455078125
 20
1489.307861328125
 42
0.51156294345855713
  0
SEQEND
  0
POLYLINE
  8
0
 10
0
 20
0
 39
0
 70
1
 66
1
  0
VERTEX
  8
0
 10
2784.207763671875
 20
1132.2052001953125
 42
-1
  0
VERTEX
  8
0
 10
2647.82373046875
 20
1291.890380859375
 42
-1
  0
SEQEND
  0
POLYLINE
  8
0
 10
0
 20
0
 39
0
 70
1
 66
1
  0
VERTEX
  8
0
 10
2955.122314453125
 20
950.2039794921875
 42
1.2323212623596191
  0
VERTEX
  8
0
 10
3578.60498046875
 20
824.28619384765625
 42
-0
  0
VERTEX
  8
0
 10
3578.24560546875
 20
1098.9078369140625
 42
0.51156294345855713
  0
SEQEND
  0
POLYLINE
  8
0
 10
0
 20
0
 39
0
 70
1
 66
1
  0
VERTEX
  8
0
 10
3321.807861328125
 20
741.80511474609375
 42
-1
  0
VERTEX
  8
0
 10
3185.423583984375
 20
901.49041748046875
 42
-1
  0
SEQEND
  0
POLYLINE
  8
0
 10
0
 20
0
 39
0
 70
1
 66
1
  0
VERTEX
  8
0
 10
3216.724365234375
 20
1365.5223388671875
 42
1.2323212623596191
  0
VERTEX
  8
0
 10
3342.64208984375
 20
1989.0050048828125
 42
-0
  0
VERTEX
  8
0
 10
3068.0205078125
 20
1988.6455078125
 42
0.51156294345855713
  0
SEQEND
  0
POLYLINE
  8
0
 10
0
 20
0
 39
0
 70
1
 66
1
  0
VERTEX
  8
0
 10
3425.123046875
 20
1732.207763671875
 42
-1
  0
VERTEX
  8
0
 10
3265.437744140625
 20
1595.8236083984375
 42
-1
  0
SEQEND
  0
POLYLINE
  8
0
 10
0
 20
0
 39
0
 70
1
 66
1
  0
VERTEX
  8
0
 10
3414.322265625
 20
464.2039794921875
 42
1.2323212623596191
  0
VERTEX
  8
0
 10
4037.804931640625
 20
338.28619384765625
 42
-0
  0
VERTEX
  8
0
 10
4037.445556640625
 20
612.9078369140625
 42
0.51156294345855713
  0
SEQEND
  0
POLYLINE
  8
0
 10
0
 20
0
 39
0
 70
1
 66
1
  0
VERTEX
  8
0
 10
3781.0078125
 20
255.80514526367187
 42
-1
  0
VERTEX
  8
0
 10
3644.623779296875
 20
415.49038696289062
 42
-1
  0
SEQEND
  0
POLYLINE
  8
0
 10
0
 20
0
 39
0
 70
1
 66
1
  0
VERTEX
  8
0
 10
3574.722412109375
 20
1388.60400390625
 42
1.2323212623596191
  0
VERTEX
  8
0
 10
4198.205078125
 20
1262.6861572265625
 42
-0
  0
VERTEX
  8
0
 10
4197.845703125
 20
1537.307861328125
 42
0.51156294345855713
  0
SEQEND
  0
POLYLINE
  8
0
 10
0
 20
0
 39
0
 70
1
 66
1
  0
VERTEX
  8
0
 10
3941.40771484375
 20
1180.2052001953125
 42
-1
  0
VERTEX
  8
0
 10
3805.023681640625
 20
1339.890380859375
 42
-1
  0
SEQEND
  0
POLYLINE
  8
0
 10
0
 20
0
 39
0
 70
1
 66
1
  0
VERTEX
  8
0
 10
2436.605712890625
 20
1637.152099609375
 42
-0
  0
VERTEX
  8
0
 10
2483.17626953125
 20
1750.98095703125
 42
-0.22677740454673767
  0
VERTEX
  8
0
 10
2725.419921875
 20
1970.6015625
 42
0
  0
VERTEX
  8
0
 10
2716.73095703125
 20
1988.615478515625
 42
-0
  0
VERTEX
  8
0
 10
2439.494140625
 20
1989.3431396484375
 42
0.51879560947418213
  0
VERTEX
  8
0
 10
2352.51611328125
 20
1870.6417236328125
 42
0
  0
VERTEX
  8
0
 10
2419.22705078125
 20
1673.181884765625
 42
-0
  0
SEQEND
  0
POLYLINE
  8
0
 10
0
 20
0
 39
0
 70
1
 66
1
  0
VERTEX
  8
0
 10
2453.01611328125
 20
1867.8353271484375
 42
-1
  0
VERTEX
  8
0
 10
2422.604736328125
 20
1930.8841552734375
 42
-1
  0
SEQEND
  0
POLYLINE
  8
0
 10
0
 20
0
 39
0
 70
1
 66
1
  0
VERTEX
  8
0
 10
2729.951416015625
 20
1961.206787109375
 42
-0
  0
VERTEX
  8
0
 10
2683.380859375
 20
1847.3780517578125
 42
-0.22677740454673767
  0
VERTEX
  8
0
 10
2441.13720703125
 20
1627.7574462890625
 42
0
  0
VERTEX
  8
0
 10
2449.825927734375
 20
1609.7435302734375
 42
-0
  0
VERTEX
  8
0
 10
2727.062744140625
 20
1609.015869140625
 42
0.51879560947418213
  0
VERTEX
  8
0
 10
2814.040771484375
 20
1727.71728515625
 42
0
  0
VERTEX
  8
0
 10
2747.330078125
 20
1925.1771240234375
 42
-0
  0
SEQEND
  0
POLYLINE
  8
0
 10
0
 20
0
 39
0
 70
1
 66
1
  0
VERTEX
  8
0
 10
2713.541015625
 20
1730.523681640625
 42
-1
  0
VERTEX
  8
0
 10
2743.9521484375
 20
1667.474853515625
 42
-1
  0
SEQEND
  0
POLYLINE
  8
0
 10
0
 20
0
 39
0
 70
1
 66
1
  0
VERTEX
  8
0
 10
3301.60693359375
 20
99.4056396484375
 42
-0
  0
VERTEX
  8
0
 10
3187.778076171875
 20
145.97625732421875
 42
-0.22677740454673767
  0
VERTEX
  8
0
 10
2968.157470703125
 20
388.21990966796875
 42
0
  0
VERTEX
  8
0
 10
2950.1435546875
 20
379.531005859375
 42
-0
  0
VERTEX
  8
0
 10
2949.415771484375
 20
102.29415130615234
 42
0.51879560947418213
  0
VERTEX
  8
0
 10
3068.1171875
 20
15.316176414489746
 42
0
  0
VERTEX
  8
0
 10
3265.5771484375
 20
82.0269775390625
 42
-0
  0
SEQEND
  0
POLYLINE
  8
0
 10
0
 20
0
 39
0
 70
1
 66
1
  0
VERTEX
  8
0
 10
3070.923583984375
 20
115.81602478027344
 42
-1
  0
VERTEX
  8
0
 10
3007.874755859375
 20
85.404853820800781
 42
-1
  0
SEQEND
  0
POLYLINE
  8
0
 10
0
 20
0
 39
0
 70
1
 66
1
  0
VERTEX
  8
0
 10
2977.55224609375
 20
392.75137329101562
 42
-0
  0
VERTEX
  8
0
 10
3091.380859375
 20
346.18075561523437
 42
-0.22677740454673767
  0
VERTEX
  8
0
 10
3311.00146484375
 20
103.93710327148437
 42
0
  0
VERTEX
  8
0
 10
3329.015625
 20
112.62600708007812
 42
-0
  0
VERTEX
  8
0
 10
3329.7431640625
 20
389.86285400390625
 42
0.51879560947418213
  0
VERTEX
  8
0
 10
3211.041748046875
 20
476.8408203125
 42
0
  0
VERTEX
  8
0
 10
3013.581787109375
 20
410.13003540039062
 42
-0
  0
SEQEND
  0
POLYLINE
  8
0
 10
0
 20
0
 39
0
 70
1
 66
1
  0
VERTEX
  8
0
 10
3208.2353515625
 20
376.34097290039062
 42
-1
  0
VERTEX
  8
0
 10
3271.2841796875
 20
406.75213623046875
 42
-1
  0
SEQEND
  0
POLYLINE
  8
0
 10
0
 20
0
 39
0
 70
1
 66
1
  0
VERTEX
  8
0
 10
4375.20703125
 20
679.005615234375
 42
-0
  0
VERTEX
  8
0
 10
4261.3779296875
 20
725.57623291015625
 42
-0.22677740454673767
  0
VERTEX
  8
0
 10
4041.757568359375
 20
967.81988525390625
 42
0
  0
VERTEX
  8
0
 10
4023.743408203125
 20
959.1309814453125
 42
-0
  0
VERTEX
  8
0
 10
4023.015869140625
 20
681.8941650390625
 42
0.51879560947418213
  0
VERTEX
  8
0
 10
4141.71728515625
 20
594.91619873046875
 42
0
  0
VERTEX
  8
0
 10
4339.17724609375
 20
661.626953125
 42
-0
  0
SEQEND
  0
POLYLINE
  8
0
 10
0
 20
0
 39
0
 70
1
 66
1
  0
VERTEX
  8
0
 10
4144.52392578125
 20
695.416015625
 42
-1
  0
VERTEX
  8
0
 10
4081.474853515625
 20
665.0048828125
 42
-1
  0
SEQEND
  0
POLYLINE
  8
0
 10
0
 20
0
 39
0
 70
1
 66
1
  0
VERTEX
  8
0
 10
4051.152099609375
 20
972.35137939453125
 42
-0
  0
VERTEX
  8
0
 10
4164.98095703125
 20
925.78076171875
 42
-0.22677740454673767
  0
VERTEX
  8
0
 10
4384.6015625
 20
683.537109375
 42
0
  0
VERTEX
  8
0
 10
4402.61572265625
 20
692.22601318359375
 42
-0
  0
VERTEX
  8
0
 10
4403.34326171875
 20
969.46282958984375
 42
0.51879560947418213
  0
VERTEX
  8
0
 10
4284.6416015625
 20
1056.4407958984375
 42
0
  0
VERTEX
  8
0
 10
4087.181884765625
 20
989.73004150390625
 42
-0
  0
SEQEND
  0
POLYLINE
  8
0
 10
0
 20
0
 39
0
 70
1
 66
1
  0
VERTEX
  8
0
 10
4281.83544921875
 20
955.94097900390625
 42
-1
  0
VERTEX
  8
0
 10
4344.88427734375
 20
986.3521728515625
 42
-1
  0
SEQEND
  0
POLYLINE
  8
0
 10
0
 20
0
 39
0
 70
1
 66
1
  0
VERTEX
  8
0
 10
4400.806640625
 20
99.4056396484375
 42
-0
  0
VERTEX
  8
0
 10
4286.97802734375
 20
145.97625732421875
 42
-0.22677740454673767
  0
VERTEX
  8
0
 10
4067.357421875
 20
388.21990966796875
 42
0
  0
VERTEX
  8
0
 10
4049.343505859375
 20
379.531005859375
 42
-0
  0
VERTEX
  8
0
 10
4048.615966796875
 20
102.29415130615234
 42
0.51879560947418213
  0
VERTEX
  8
0
 10
4167.3173828125
 20
15.316176414489746
 42
0
  0
VERTEX
  8
0
 10
4364.77734375
 20
82.0269775390625
 42
-0
  0
SEQEND
  0
POLYLINE
  8
0
 10
0
 20
0
 39
0
 70
1
 66
1
  0
VERTEX
  8
0
 10
4170.12353515625
 20
115.81602478027344
 42
-1
  0
VERTEX
  8
0
 10
4107.07470703125
 20
85.404853820800781
 42
-1
  0
SEQEND
  0
POLYLINE
  8
0
 10
0
 20
0
 39
0
 70
1
 66
1
  0
VERTEX
  8
0
 10
4076.752197265625
 20
392.75137329101562
 42
-0
  0
VERTEX
  8
0
 10
4190.5810546875
 20
346.18075561523437
 42
-0.22677740454673767
  0
VERTEX
  8
0
 10
4410.20166015625
 20
103.93710327148437
 42
0
  0
VERTEX
  8
0
 10
4428.21533203125
 20
112.62600708007812
 42
-0
  0
VERTEX
  8
0
 10
4428.943359375
 20
389.86285400390625
 42
0.51879560947418213
  0
VERTEX
  8
0
 10
4310.24169921875
 20
476.8408203125
 42
0
  0
VERTEX
  8
0
 10
4112.78173828125
 20
410.13003540039062
 42
-0
  0
SEQEND
  0
POLYLINE
  8
0
 10
0
 20
0
 39
0
 70
1
 66
1
  0
VERTEX
  8
0
 10
4307.43505859375
 20
376.34097290039062
 42
-1
  0
VERTEX
  8
0
 10
4370.484375
 20
406.75213623046875
 42
-1
  0
SEQEND
  0
POLYLINE
  8
0
 10
0
 20
0
 39
0
 70
1
 66
1
  0
VERTEX
  8
0
 10
3640.60009765625
 20
1918.5999755859375
 42
0
  0
VERTEX
  8
0
 10
3640.60009765625
 20
1824.5999755859375
 42
0
  0
VERTEX
  8
0
 10
3960.60009765625
 20
1824.5999755859375
 42
-0
  0
VERTEX
  8
0
 10
3751.547119140625
 20
1975.3743896484375
 42
0.61160182952880859
  0
SEQEND
  0
POLYLINE
  8
0
 10
0
 20
0
 39
0
 70
1
 66
1
  0
VERTEX
  8
0
 10
3729.10009765625
 20
1918.5999755859375
 42
-1
  0
VERTEX
  8
0
 10
3692.10009765625
 20
1918.5999755859375
 42
-1
  0
SEQEND
  0
POLYLINE
  8
0
 10
0
 20
0
 39
0
 70
1
 66
1
  0
VERTEX
  8
0
 10
4071.31494140625
 20
1894.5999755859375
 42
0
  0
VERTEX
  8
0
 10
4071.31494140625
 20
1988.5999755859375
 42
0
  0
VERTEX
  8
0
 10
3751.31494140625
 20
1988.5999755859375
 42
-0
  0
VERTEX
  8
0
 10
3960.367919921875
 20
1837.82568359375
 42
0.61160182952880859
  0
SEQEND
  0
POLYLINE
  8
0
 10
0
 20
0
 39
0
 70
1
 66
1
  0
VERTEX
  8
0
 10
3982.81494140625
 20
1894.5999755859375
 42
-1
  0
VERTEX
  8
0
 10
4019.81494140625
 20
1894.5999755859375
 42
-1
  0
SEQEND
  0
POLYLINE
  8
0
 10
0
 20
0
 39
0
 70
1
 66
1
  0
VERTEX
  8
0
 10
3681
 20
1737.4000244140625
 42
0
  0
VERTEX
  8
0
 10
3681
 20
1643.4000244140625
 42
0
  0
VERTEX
  8
0
 10
4001
 20
1643.4000244140625
 42
-0
  0
VERTEX
  8
0
 10
3791.947265625
 20
1794.17431640625
 42
0.61160182952880859
  0
SEQEND
  0
POLYLINE
  8
0
 10
0
 20
0
 39
0
 70
1
 66
1
  0
VERTEX
  8
0
 10
3769.5
 20
1737.4000244140625
 42
-1
  0
VERTEX
  8
0
 10
3732.5
 20
1737.4000244140625
 42
-1
  0
SEQEND
  0
POLYLINE
  8
0
 10
0
 20
0
 39
0
 70
1
 66
1
  0
VERTEX
  8
0
 10
4111.71484375
 20
1713.4000244140625
 42
0
  0
VERTEX
  8
0
 10
4111.71484375
 20
1807.4000244140625
 42
0
  0
VERTEX
  8
0
 10
3791.715087890625
 20
1807.4000244140625
 42
-0
  0
VERTEX
  8
0
 10
4000.767822265625
 20
1656.6256103515625
 42
0.61160182952880859
  0
SEQEND
  0
POLYLINE
  8
0
 10
0
 20
0
 39
0
 70
1
 66
1
  0
VERTEX
  8
0
 10
4023.215087890625
 20
1713.4000244140625
 42
-1
  0
VERTEX
  8
0
 10
4060.215087890625
 20
1713.4000244140625
 42
-1
  0
SEQEND
  0
POLYLINE
  8
0
 10
0
 20
0
 39
0
 70
1
 66
1
  0
VERTEX
  8
0
 10
4236.2001953125
 20
1989.31494140625
 42
0
  0
VERTEX
  8
0
 10
4142.2001953125
 20
1989.31494140625
 42
0
  0
VERTEX
  8
0
 10
4142.2001953125
 20
1669.31494140625
 42
-0
  0
VERTEX
  8
0
 10
4292.974609375
 20
1878.3677978515625
 42
0.61160182952880859
  0
SEQEND
  0
POLYLINE
  8
0
 10
0
 20
0
 39
0
 70
1
 66
1
  0
VERTEX
  8
0
 10
4236.2001953125
 20
1900.81494140625
 42
-1
  0
VERTEX
  8
0
 10
4236.2001953125
 20
1937.81494140625
 42
-1
  0
SEQEND
  0
POLYLINE
  8
0
 10
0
 20
0
 39
0
 70
1
 66
1
  0
VERTEX
  8
0
 10
4212.2001953125
 20
1558.5999755859375
 42
0
  0
VERTEX
  8
0
 10
4306.2001953125
 20
1558.5999755859375
 42
0
  0
VERTEX
  8
0
 10
4306.2001953125
 20
1878.5999755859375
 42
-0
  0
VERTEX
  8
0
 10
4155.42578125
 20
1669.547119140625
 42
0.61160182952880859
  0
SEQEND
  0
POLYLINE
  8
0
 10
0
 20
0
 39
0
 70
1
 66
1
  0
VERTEX
  8
0
 10
4212.2001953125
 20
1647.0999755859375
 42
-1
  0
VERTEX
  8
0
 10
4212.2001953125
 20
1610.0999755859375
 42
-1
  0
SEQEND
  0
POLYLINE
  8
0
 10
0
 20
0
 39
0
 70
1
 66
1
  0
VERTEX
  8
0
 10
4303
 20
1502.114990234375
 42
0
  0
VERTEX
  8
0
 10
4209
 20
1502.114990234375
 42
0
  0
VERTEX
  8
0
 10
4209
 20
1182.114990234375
 42
-0
  0
VERTEX
  8
0
 10
4359.7744140625
 20
1391.1678466796875
 42
0.61160182952880859
  0
SEQEND
  0
POLYLINE
  8
0
 10
0
 20
0
 39
0
 70
1
 66
1
  0
VERTEX
  8
0
 10
4303
 20
1413.614990234375
 42
-1
  0
VERTEX
  8
0
 10
4303
 20
1450.614990234375
 42
-1
  0
SEQEND
  0
POLYLINE
  8
0
 10
0
 20
0
 39
0
 70
1
 66
1
  0
VERTEX
  8
0
 10
4279
 20
1071.4000244140625
 42
0
  0
VERTEX
  8
0
 10
4373
 20
1071.4000244140625
 42
0
  0
VERTEX
  8
0
 10
4373
 20
1391.4000244140625
 42
-0
  0
VERTEX
  8
0
 10
4222.2255859375
 20
1182.34716796875
 42
0.61160182952880859
  0
SEQEND
  0
POLYLINE
  8
0
 10
0
 20
0
 39
0
 70
1
 66
1
  0
VERTEX
  8
0
 10
4279
 20
1159.9000244140625
 42
-1
  0
VERTEX
  8
0
 10
4279
 20
1122.9000244140625
 42
-1
  0
SEQEND
  0
POLYLINE
  8
0
 10
0
 20
0
 39
0
 70
1
 66
1
  0
VERTEX
  8
0
 10
4410.60009765625
 20
1918.5150146484375
 42
0
  0
VERTEX
  8
0
 10
4316.60009765625
 20
1918.5150146484375
 42
0
  0
VERTEX
  8
0
 10
4316.60009765625
 20
1598.5150146484375
 42
-0
  0
VERTEX
  8
0
 10
4467.37451171875
 20
1807.56787109375
 42
0.61160182952880859
  0
SEQEND
  0
POLYLINE
  8
0
 10
0
 20
0
 39
0
 70
1
 66
1
  0
VERTEX
  8
0
 10
4410.60009765625
 20
1830.0150146484375
 42
-1
  0
VERTEX
  8
0
 10
4410.60009765625
 20
1867.0150146484375
 42
-1
  0
SEQEND
  0
POLYLINE
  8
0
 10
0
 20
0
 39
0
 70
1
 66
1
  0
VERTEX
  8
0
 10
4386.60009765625
 20
1487.800048828125
 42
0
  0
VERTEX
  8
0
 10
4480.60009765625
 20
1487.800048828125
 42
0
  0
VERTEX
  8
0
 10
4480.60009765625
 20
1807.800048828125
 42
-0
  0
VERTEX
  8
0
 10
4329.82568359375
 20
1598.7471923828125
 42
0.61160182952880859
  0
SEQEND
  0
POLYLINE
  8
0
 10
0
 20
0
 39
0
 70
1
 66
1
  0
VERTEX
  8
0
 10
4386.60009765625
 20
1576.300048828125
 42
-1
  0
VERTEX
  8
0
 10
4386.60009765625
 20
1539.300048828125
 42
-1
  0
SEQEND
  0
POLYLINE
  8
0
 10
0
 20
0
 39
0
 70
1
 66
1
  0
VERTEX
  8
0
 10
4477.39990234375
 20
1430.114990234375
 42
0
  0
VERTEX
  8
0
 10
4383.39990234375
 20
1430.114990234375
 42
0
  0
VERTEX
  8
0
 10
4383.39990234375
 20
1110.114990234375
 42
-0
  0
VERTEX
  8
0
 10
4534.17431640625
 20
1319.1678466796875
 42
0.61160182952880859
  0
SEQEND
  0
POLYLINE
  8
0
 10
0
 20
0
 39
0
 70
1
 66
1
  0
VERTEX
  8
0
 10
4477.39990234375
 20
1341.614990234375
 42
-1
  0
VERTEX
  8
0
 10
4477.39990234375
 20
1378.614990234375
 42
-1
  0
SEQEND
  0
POLYLINE
  8
0
 10
0
 20
0
 39
0
 70
1
 66
1
  0
VERTEX
  8
0
 10
4453.39990234375
 20
999.4000244140625
 42
0
  0
VERTEX
  8
0
 10
4547.39990234375
 20
999.4000244140625
 42
0
  0
VERTEX
  8
0
 10
4547.39990234375
 20
1319.4000244140625
 42
-0
  0
VERTEX
  8
0
 10
4396.62548828125
 20
1110.34716796875
 42
0.61160182952880859
  0
SEQEND
  0
POLYLINE
  8
0
 10
0
 20
0
 39
0
 70
1
 66
1
  0
VERTEX
  8
0
 10
4453.39990234375
 20
1087.9000244140625
 42
-1
  0
VERTEX
  8
0
 10
4453.39990234375
 20
1050.9000244140625
 42
-1
  0
SEQEND
  0
POLYLINE
  8
0
 10
0
 20
0
 39
0
 70
1
 66
1
  0
VERTEX
  8
0
 10
4507.7998046875
 20
843.31500244140625
 42
0
  0
VERTEX
  8
0
 10
4413.7998046875
 20
843.31500244140625
 42
0
  0
VERTEX
  8
0
 10
4413.7998046875
 20
523.31500244140625
 42
-0
  0
VERTEX
  8
0
 10
4564.57421875
 20
732.36785888671875
 42
0.61160182952880859
  0
SEQEND
  0
POLYLINE
  8
0
 10
0
 20
0
 39
0
 70
1
 66
1
  0
VERTEX
  8
0
 10
4507.7998046875
 20
754.81500244140625
 42
-1
  0
VERTEX
  8
0
 10
4507.7998046875
 20
791.81500244140625
 42
-1
  0
SEQEND
  0
POLYLINE
  8
0
 10
0
 20
0
 39
0
 70
1
 66
1
  0
VERTEX
  8
0
 10
4483.7998046875
 20
412.60000610351562
 42
0
  0
VERTEX
  8
0
 10
4577.7998046875
 20
412.60000610351562
 42
0
  0
VERTEX
  8
0
 10
4577.7998046875
 20
732.5999755859375
 42
-0
  0
VERTEX
  8
0
 10
4427.025390625
 20
523.54718017578125
 42
0.61160182952880859
  0
SEQEND
  0
POLYLINE
  8
0
 10
0
 20
0
 39
0
 70
1
 66
1
  0
VERTEX
  8
0
 10
4483.7998046875
 20
501.10000610351562
 42
-1
  0
VERTEX
  8
0
 10
4483.7998046875
 20
464.10000610351562
 42
-1
  0
SEQEND
  0
POLYLINE
  8
0
 10
0
 20
0
 39
0
 70
1
 66
1
  0
VERTEX
  8
0
 10
4569.5673828125
 20
270.5987548828125
 42
1
  0
VERTEX
  8
0
 10
4568.4326171875
 20
10.601237297058105
 42
1
  0
SEQEND
  0
POLYLINE
  8
0
 10
0
 20
0
 39
0
 70
1
 66
1
  0
VERTEX
  8
0
 10
4456.54052734375
 20
150.09078979492187
 42
-1
  0
VERTEX
  8
0
 10
4456.4619140625
 20
132.09095764160156
 42
-1
  0
SEQEND
  0
POLYLINE
  8
0
 10
0
 20
0
 39
0
 70
1
 66
1
  0
VERTEX
  8
0
 10
4496.18994140625
 20
226.83198547363281
 42
-1
  0
VERTEX
  8
0
 10
4483.40673828125
 20
214.15971374511719
 42
-1
  0
SEQEND
  0
POLYLINE
  8
0
 10
0
 20
0
 39
0
 70
1
 66
1
  0
VERTEX
  8
0
 10
4578.49072265625
 20
253.05966186523437
 42
-1
  0
VERTEX
  8
0
 10
4560.49072265625
 20
253.13819885253906
 42
-1
  0
SEQEND
  0
POLYLINE
  8
0
 10
0
 20
0
 39
0
 70
1
 66
1
  0
VERTEX
  8
0
 10
4655.23193359375
 20
213.40998840332031
 42
-1
  0
VERTEX
  8
0
 10
4642.5595703125
 20
226.19332885742187
 42
-1
  0
SEQEND
  0
POLYLINE
  8
0
 10
0
 20
0
 39
0
 70
1
 66
1
  0
VERTEX
  8
0
 10
4681.45947265625
 20
131.10920715332031
 42
-1
  0
VERTEX
  8
0
 10
4681.5380859375
 20
149.10903930664062
 42
-1
  0
SEQEND
  0
POLYLINE
  8
0
 10
0
 20
0
 39
0
 70
1
 66
1
  0
VERTEX
  8
0
 10
4641.81005859375
 20
54.368011474609375
 42
-1
  0
VERTEX
  8
0
 10
4654.59326171875
 20
67.040275573730469
 42
-1
  0
SEQEND
  0
POLYLINE
  8
0
 10
0
 20
0
 39
0
 70
1
 66
1
  0
VERTEX
  8
0
 10
4559.50927734375
 20
28.140340805053711
 42
-1
  0
VERTEX
  8
0
 10
4577.50927734375
 20
28.061800003051758
 42
-1
  0
SEQEND
  0
POLYLINE
  8
0
 10
0
 20
0
 39
0
 70
1
 66
1
  0
VERTEX
  8
0
 10
4482.76806640625
 20
67.790008544921875
 42
-1
  0
VERTEX
  8
0
 10
4495.4404296875
 20
55.006671905517578
 42
-1
  0
SEQEND
  0
POLYLINE
  8
0
 10
0
 20
0
 39
0
 70
1
 66
1
  0
VERTEX
  8
0
 10
4750.5986328125
 20
1823.6328125
 42
1
  0
VERTEX
  8
0
 10
4490.60107421875
 20
1824.7672119140625
 42
1
  0
SEQEND
  0
POLYLINE
  8
0
 10
0
 20
0
 39
0
 70
1
 66
1
  0
VERTEX
  8
0
 10
4630.0908203125
 20
1936.65966796875
 42
-1
  0
VERTEX
  8
0
 10
4612.0908203125
 20
1936.7381591796875
 42
-1
  0
SEQEND
  0
POLYLINE
  8
0
 10
0
 20
0
 39
0
 70
1
 66
1
  0
VERTEX
  8
0
 10
4706.83203125
 20
1897.010009765625
 42
-1
  0
VERTEX
  8
0
 10
4694.15966796875
 20
1909.7933349609375
 42
-1
  0
SEQEND
  0
POLYLINE
  8
0
 10
0
 20
0
 39
0
 70
1
 66
1
  0
VERTEX
  8
0
 10
4733.0595703125
 20
1814.709228515625
 42
-1
  0
VERTEX
  8
0
 10
4733.13818359375
 20
1832.708984375
 42
-1
  0
SEQEND
  0
POLYLINE
  8
0
 10
0
 20
0
 39
0
 70
1
 66
1
  0
VERTEX
  8
0
 10
4693.41015625
 20
1737.968017578125
 42
-1
  0
VERTEX
  8
0
 10
4706.193359375
 20
1750.6402587890625
 42
-1
  0
SEQEND
  0
POLYLINE
  8
0
 10
0
 20
0
 39
0
 70
1
 66
1
  0
VERTEX
  8
0
 10
4611.109375
 20
1711.7403564453125
 42
-1
  0
VERTEX
  8
0
 10
4629.10888671875
 20
1711.6617431640625
 42
-1
  0
SEQEND
  0
POLYLINE
  8
0
 10
0
 20
0
 39
0
 70
1
 66
1
  0
VERTEX
  8
0
 10
4534.3681640625
 20
1751.3900146484375
 42
-1
  0
VERTEX
  8
0
 10
4547.0400390625
 20
1738.606689453125
 42
-1
  0
SEQEND
  0
POLYLINE
  8
0
 10
0
 20
0
 39
0
 70
1
 66
1
  0
VERTEX
  8
0
 10
4508.14013671875
 20
1833.6907958984375
 42
-1
  0
VERTEX
  8
0
 10
4508.06201171875
 20
1815.69091796875
 42
-1
  0
SEQEND
  0
POLYLINE
  8
0
 10
0
 20
0
 39
0
 70
1
 66
1
  0
VERTEX
  8
0
 10
4547.7900390625
 20
1910.4320068359375
 42
-1
  0
VERTEX
  8
0
 10
4535.0068359375
 20
1897.759765625
 42
-1
  0
SEQEND
  0
POLYLINE
  8
0
 10
0
 20
0
 39
0
 70
1
 66
1
  0
VERTEX
  8
0
 10
4621.5673828125
 20
1644.5987548828125
 42
1
  0
VERTEX
  8
0
 10
4620.4326171875
 20
1384.6011962890625
 42
1
  0
SEQEND
  0
POLYLINE
  8
0
 10
0
 20
0
 39
0
 70
1
 66
1
  0
VERTEX
  8
0
 10
4508.54052734375
 20
1524.0908203125
 42
-1
  0
VERTEX
  8
0
 10
4508.4619140625
 20
1506.0909423828125
 42
-1
  0
SEQEND
  0
POLYLINE
  8
0
 10
0
 20
0
 39
0
 70
1
 66
1
  0
VERTEX
  8
0
 10
4548.18994140625
 20
1600.83203125
 42
-1
  0
VERTEX
  8
0
 10
4535.40673828125
 20
1588.15966796875
 42
-1
  0
SEQEND
  0
POLYLINE
  8
0
 10
0
 20
0
 39
0
 70
1
 66
1
  0
VERTEX
  8
0
 10
4630.49072265625
 20
1627.0596923828125
 42
-1
  0
VERTEX
  8
0
 10
4612.49072265625
 20
1627.13818359375
 42
-1
  0
SEQEND
  0
POLYLINE
  8
0
 10
0
 20
0
 39
0
 70
1
 66
1
  0
VERTEX
  8
0
 10
4707.23193359375
 20
1587.4100341796875
 42
-1
  0
VERTEX
  8
0
 10
4694.5595703125
 20
1600.193359375
 42
-1
  0
SEQEND
  0
POLYLINE
  8
0
 10
0
 20
0
 39
0
 70
1
 66
1
  0
VERTEX
  8
0
 10
4733.45947265625
 20
1505.1092529296875
 42
-1
  0
VERTEX
  8
0
 10
4733.5380859375
 20
1523.1090087890625
 42
-1
  0
SEQEND
  0
POLYLINE
  8
0
 10
0
 20
0
 39
0
 70
1
 66
1
  0
VERTEX
  8
0
 10
4693.81005859375
 20
1428.3680419921875
 42
-1
  0
VERTEX
  8
0
 10
4706.59326171875
 20
1441.040283203125
 42
-1
  0
SEQEND
  0
POLYLINE
  8
0
 10
0
 20
0
 39
0
 70
1
 66
1
  0
VERTEX
  8
0
 10
4611.50927734375
 20
1402.140380859375
 42
-1
  0
VERTEX
  8
0
 10
4629.50927734375
 20
1402.061767578125
 42
-1
  0
SEQEND
  0
POLYLINE
  8
0
 10
0
 20
0
 39
0
 70
1
 66
1
  0
VERTEX
  8
0
 10
4534.76806640625
 20
1441.7900390625
 42
-1
  0
VERTEX
  8
0
 10
4547.4404296875
 20
1429.0067138671875
 42
-1
  0
SEQEND
  0
POLYLINE
  8
0
 10
0
 20
0
 39
0
 70
1
 66
1
  0
VERTEX
  8
0
 10
4662.76708984375
 20
1046.998779296875
 42
1
  0
VERTEX
  8
0
 10
4661.6328125
 20
787.001220703125
 42
1
  0
SEQEND
  0
POLYLINE
  8
0
 10
0
 20
0
 39
0
 70
1
 66
1
  0
VERTEX
  8
0
 10
4549.740234375
 20
926.49078369140625
 42
-1
  0
VERTEX
  8
0
 10
4549.66162109375
 20
908.490966796875
 42
-1
  0
SEQEND
  0
POLYLINE
  8
0
 10
0
 20
0
 39
0
 70
1
 66
1
  0
VERTEX
  8
0
 10
4589.39013671875
 20
1003.2319946289062
 42
-1
  0
VERTEX
  8
0
 10
4576.6064453125
 20
990.5596923828125
 42
-1
  0
SEQEND
  0
POLYLINE
  8
0
 10
0
 20
0
 39
0
 70
1
 66
1
  0
VERTEX
  8
0
 10
4671.69091796875
 20
1029.4595947265625
 42
-1
  0
VERTEX
  8
0
 10
4653.69091796875
 20
1029.5382080078125
 42
-1
  0
SEQEND
  0
POLYLINE
  8
0
 10
0
 20
0
 39
0
 70
1
 66
1
  0
VERTEX
  8
0
 10
4748.43212890625
 20
989.80999755859375
 42
-1
  0
VERTEX
  8
0
 10
4735.759765625
 20
1002.5933227539062
 42
-1
  0
SEQEND
  0
POLYLINE
  8
0
 10
0
 20
0
 39
0
 70
1
 66
1
  0
VERTEX
  8
0
 10
4774.65966796875
 20
907.50921630859375
 42
-1
  0
VERTEX
  8
0
 10
4774.73828125
 20
925.509033203125
 42
-1
  0
SEQEND
  0
POLYLINE
  8
0
 10
0
 20
0
 39
0
 70
1
 66
1
  0
VERTEX
  8
0
 10
4735.009765625
 20
830.76800537109375
 42
-1
  0
VERTEX
  8
0
 10
4747.79345703125
 20
843.44024658203125
 42
-1
  0
SEQEND
  0
POLYLINE
  8
0
 10
0
 20
0
 39
0
 70
1
 66
1
  0
VERTEX
  8
0
 10
4652.708984375
 20
804.54034423828125
 42
-1
  0
VERTEX
  8
0
 10
4670.708984375
 20
804.4617919921875
 42
-1
  0
SEQEND
  0
POLYLINE
  8
0
 10
0
 20
0
 39
0
 70
1
 66
1
  0
VERTEX
  8
0
 10
4575.9677734375
 20
844.19000244140625
 42
-1
  0
VERTEX
  8
0
 10
4588.64013671875
 20
831.40667724609375
 42
-1
  0
SEQEND
  0
POLYLINE
  8
0
 10
0
 20
0
 39
0
 70
1
 66
1
  0
VERTEX
  8
0
 10
4688.3671875
 20
1316.998779296875
 42
1
  0
VERTEX
  8
0
 10
4687.23291015625
 20
1057.001220703125
 42
1
  0
SEQEND
  0
POLYLINE
  8
0
 10
0
 20
0
 39
0
 70
1
 66
1
  0
VERTEX
  8
0
 10
4575.34033203125
 20
1196.4908447265625
 42
-1
  0
VERTEX
  8
0
 10
4575.26171875
 20
1178.490966796875
 42
-1
  0
SEQEND
  0
POLYLINE
  8
0
 10
0
 20
0
 39
0
 70
1
 66
1
  0
VERTEX
  8
0
 10
4614.990234375
 20
1273.23193359375
 42
-1
  0
VERTEX
  8
0
 10
4602.20654296875
 20
1260.5596923828125
 42
-1
  0
SEQEND
  0
POLYLINE
  8
0
 10
0
 20
0
 39
0
 70
1
 66
1
  0
VERTEX
  8
0
 10
4697.291015625
 20
1299.4595947265625
 42
-1
  0
VERTEX
  8
0
 10
4679.291015625
 20
1299.5382080078125
 42
-1
  0
SEQEND
  0
POLYLINE
  8
0
 10
0
 20
0
 39
0
 70
1
 66
1
  0
VERTEX
  8
0
 10
4774.0322265625
 20
1259.8099365234375
 42
-1
  0
VERTEX
  8
0
 10
4761.35986328125
 20
1272.59326171875
 42
-1
  0
SEQEND
  0
POLYLINE
  8
0
 10
0
 20
0
 39
0
 70
1
 66
1
  0
VERTEX
  8
0
 10
4800.259765625
 20
1177.5091552734375
 42
-1
  0
VERTEX
  8
0
 10
4800.33837890625
 20
1195.509033203125
 42
-1
  0
SEQEND
  0
POLYLINE
  8
0
 10
0
 20
0
 39
0
 70
1
 66
1
  0
VERTEX
  8
0
 10
4760.60986328125
 20
1100.76806640625
 42
-1
  0
VERTEX
  8
0
 10
4773.3935546875
 20
1113.4403076171875
 42
-1
  0
SEQEND
  0
POLYLINE
  8
0
 10
0
 20
0
 39
0
 70
1
 66
1
  0
VERTEX
  8
0
 10
4678.30908203125
 20
1074.540283203125
 42
-1
  0
VERTEX
  8
0
 10
4696.30908203125
 20
1074.4617919921875
 42
-1
  0
SEQEND
  0
POLYLINE
  8
0
 10
0
 20
0
 39
0
 70
1
 66
1
  0
VERTEX
  8
0
 10
4601.56787109375
 20
1114.1900634765625
 42
-1
  0
VERTEX
  8
0
 10
4614.240234375
 20
1101.4066162109375
 42
-1
  0
SEQEND
  0
POLYLINE
  8
0
 10
0
 20
0
 39
0
 70
1
 66
1
  0
VERTEX
  8
0
 10
4713.1669921875
 20
500.5987548828125
 42
1
  0
VERTEX
  8
0
 10
4712.03271484375
 20
240.60124206542969
 42
1
  0
SEQEND
  0
POLYLINE
  8
0
 10
0
 20
0
 39
0
 70
1
 66
1
  0
VERTEX
  8
0
 10
4600.14013671875
 20
380.09078979492187
 42
-1
  0
VERTEX
  8
0
 10
4600.06201171875
 20
362.0909423828125
 42
-1
  0
SEQEND
  0
POLYLINE
  8
0
 10
0
 20
0
 39
0
 70
1
 66
1
  0
VERTEX
  8
0
 10
4639.7900390625
 20
456.83197021484375
 42
-1
  0
VERTEX
  8
0
 10
4627.0068359375
 20
444.15972900390625
 42
-1
  0
SEQEND
  0
POLYLINE
  8
0
 10
0
 20
0
 39
0
 70
1
 66
1
  0
VERTEX
  8
0
 10
4722.0908203125
 20
483.05966186523437
 42
-1
  0
VERTEX
  8
0
 10
4704.0908203125
 20
483.13818359375
 42
-1
  0
SEQEND
  0
POLYLINE
  8
0
 10
0
 20
0
 39
0
 70
1
 66
1
  0
VERTEX
  8
0
 10
4798.83203125
 20
443.40997314453125
 42
-1
  0
VERTEX
  8
0
 10
4786.15966796875
 20
456.19332885742187
 42
-1
  0
SEQEND
  0
POLYLINE
  8
0
 10
0
 20
0
 39
0
 70
1
 66
1
  0
VERTEX
  8
0
 10
4825.0595703125
 20
361.10922241210937
 42
-1
  0
VERTEX
  8
0
 10
4825.13818359375
 20
379.10903930664062
 42
-1
  0
SEQEND
  0
POLYLINE
  8
0
 10
0
 20
0
 39
0
 70
1
 66
1
  0
VERTEX
  8
0
 10
4785.41015625
 20
284.36801147460937
 42
-1
  0
VERTEX
  8
0
 10
4798.193359375
 20
297.040283203125
 42
-1
  0
SEQEND
  0
POLYLINE
  8
0
 10
0
 20
0
 39
0
 70
1
 66
1
  0
VERTEX
  8
0
 10
4703.109375
 20
258.14035034179687
 42
-1
  0
VERTEX
  8
0
 10
4721.10888671875
 20
258.06179809570312
 42
-1
  0
SEQEND
  0
POLYLINE
  8
0
 10
0
 20
0
 39
0
 70
1
 66
1
  0
VERTEX
  8
0
 10
4626.3681640625
 20
297.79000854492187
 42
-1
  0
VERTEX
  8
0
 10
4639.0400390625
 20
285.00668334960937
 42
-1
  0
SEQEND
  0
POLYLINE
  8
0
 10
0
 20
0
 39
0
 70
1
 66
1
  0
VERTEX
  8
0
 10
4718.76708984375
 20
770.5987548828125
 42
1
  0
VERTEX
  8
0
 10
4717.6328125
 20
510.60122680664062
 42
1
  0
SEQEND
  0
POLYLINE
  8
0
 10
0
 20
0
 39
0
 70
1
 66
1
  0
VERTEX
  8
0
 10
4605.740234375
 20
650.09075927734375
 42
-1
  0
VERTEX
  8
0
 10
4605.66162109375
 20
632.0909423828125
 42
-1
  0
SEQEND
  0
POLYLINE
  8
0
 10
0
 20
0
 39
0
 70
1
 66
1
  0
VERTEX
  8
0
 10
4645.39013671875
 20
726.83197021484375
 42
-1
  0
VERTEX
  8
0
 10
4632.6064453125
 20
714.15972900390625
 42
-1
  0
SEQEND
  0
POLYLINE
  8
0
 10
0
 20
0
 39
0
 70
1
 66
1
  0
VERTEX
  8
0
 10
4727.69091796875
 20
753.05963134765625
 42
-1
  0
VERTEX
  8
0
 10
4709.69091796875
 20
753.13818359375
 42
-1
  0
SEQEND
  0
POLYLINE
  8
0
 10
0
 20
0
 39
0
 70
1
 66
1
  0
VERTEX
  8
0
 10
4804.43212890625
 20
713.40997314453125
 42
-1
  0
VERTEX
  8
0
 10
4791.759765625
 20
726.19329833984375
 42
-1
  0
SEQEND
  0
POLYLINE
  8
0
 10
0
 20
0
 39
0
 70
1
 66
1
  0
VERTEX
  8
0
 10
4830.65966796875
 20
631.10919189453125
 42
-1
  0
VERTEX
  8
0
 10
4830.73828125
 20
649.10906982421875
 42
-1
  0
SEQEND
  0
POLYLINE
  8
0
 10
0
 20
0
 39
0
 70
1
 66
1
  0
VERTEX
  8
0
 10
4791.009765625
 20
554.36798095703125
 42
-1
  0
VERTEX
  8
0
 10
4803.79345703125
 20
567.040283203125
 42
-1
  0
SEQEND
  0
POLYLINE
  8
0
 10
0
 20
0
 39
0
 70
1
 66
1
  0
VERTEX
  8
0
 10
4708.708984375
 20
528.14031982421875
 42
-1
  0
VERTEX
  8
0
 10
4726.708984375
 20
528.06182861328125
 42
-1
  0
SEQEND
  0
POLYLINE
  8
0
 10
0
 20
0
 39
0
 70
1
 66
1
  0
VERTEX
  8
0
 10
4631.9677734375
 20
567.78997802734375
 42
-1
  0
VERTEX
  8
0
 10
4644.64013671875
 20
555.00665283203125
 42
-1
  0
SEQEND
  0
POLYLINE
  8
0
 10
0
 20
0
 39
0
 70
1
 66
1
  0
VERTEX
  8
0
 10
4843.96728515625
 20
1799.7987060546875
 42
1
  0
VERTEX
  8
0
 10
4842.8330078125
 20
1539.80126953125
 42
1
  0
SEQEND
  0
POLYLINE
  8
0
 10
0
 20
0
 39
0
 70
1
 66
1
  0
VERTEX
  8
0
 10
4730.9404296875
 20
1679.290771484375
 42
-1
  0
VERTEX
  8
0
 10
4730.86181640625
 20
1661.291015625
 42
-1
  0
SEQEND
  0
POLYLINE
  8
0
 10
0
 20
0
 39
0
 70
1
 66
1
  0
VERTEX
  8
0
 10
4770.58984375
 20
1756.031982421875
 42
-1
  0
VERTEX
  8
0
 10
4757.806640625
 20
1743.3597412109375
 42
-1
  0
SEQEND
  0
POLYLINE
  8
0
 10
0
 20
0
 39
0
 70
1
 66
1
  0
VERTEX
  8
0
 10
4852.890625
 20
1782.2596435546875
 42
-1
  0
VERTEX
  8
0
 10
4834.89111328125
 20
1782.338134765625
 42
-1
  0
SEQEND
  0
POLYLINE
  8
0
 10
0
 20
0
 39
0
 70
1
 66
1
  0
VERTEX
  8
0
 10
4929.6318359375
 20
1742.6099853515625
 42
-1
  0
VERTEX
  8
0
 10
4916.9599609375
 20
1755.393310546875
 42
-1
  0
SEQEND
  0
POLYLINE
  8
0
 10
0
 20
0
 39
0
 70
1
 66
1
  0
VERTEX
  8
0
 10
4955.85986328125
 20
1660.3092041015625
 42
-1
  0
VERTEX
  8
0
 10
4955.93798828125
 20
1678.30908203125
 42
-1
  0
SEQEND
  0
POLYLINE
  8
0
 10
0
 20
0
 39
0
 70
1
 66
1
  0
VERTEX
  8
0
 10
4916.2099609375
 20
1583.5679931640625
 42
-1
  0
VERTEX
  8
0
 10
4928.9931640625
 20
1596.240234375
 42
-1
  0
SEQEND
  0
POLYLINE
  8
0
 10
0
 20
0
 39
0
 70
1
 66
1
  0
VERTEX
  8
0
 10
4833.9091796875
 20
1557.34033203125
 42
-1
  0
VERTEX
  8
0
 10
4851.9091796875
 20
1557.2618408203125
 42
-1
  0
SEQEND
  0
POLYLINE
  8
0
 10
0
 20
0
 39
0
 70
1
 66
1
  0
VERTEX
  8
0
 10
4757.16796875
 20
1596.989990234375
 42
-1
  0
VERTEX
  8
0
 10
4769.84033203125
 20
1584.2066650390625
 42
-1
  0
SEQEND
  0
POLYLINE
  8
0
 10
0
 20
0
 39
0
 70
1
 66
1
  0
VERTEX
  8
0
 10
4856.3671875
 20
270.5987548828125
 42
1
  0
VERTEX
  8
0
 10
4855.23291015625
 20
10.601237297058105
 42
1
  0
SEQEND
  0
POLYLINE
  8
0
 10
0
 20
0
 39
0
 70
1
 66
1
  0
VERTEX
  8
0
 10
4743.34033203125
 20
150.09078979492187
 42
-1
  0
VERTEX
  8
0
 10
4743.26171875
 20
132.09095764160156
 42
-1
  0
SEQEND
  0
POLYLINE
  8
0
 10
0
 20
0
 39
0
 70
1
 66
1
  0
VERTEX
  8
0
 10
4782.990234375
 20
226.83198547363281
 42
-1
  0
VERTEX
  8
0
 10
4770.20654296875
 20
214.15971374511719
 42
-1
  0
SEQEND
  0
POLYLINE
  8
0
 10
0
 20
0
 39
0
 70
1
 66
1
  0
VERTEX
  8
0
 10
4865.291015625
 20
253.05966186523437
 42
-1
  0
VERTEX
  8
0
 10
4847.291015625
 20
253.13819885253906
 42
-1
  0
SEQEND
  0
POLYLINE
  8
0
 10
0
 20
0
 39
0
 70
1
 66
1
  0
VERTEX
  8
0
 10
4942.0322265625
 20
213.40998840332031
 42
-1
  0
VERTEX
  8
0
 10
4929.35986328125
 20
226.19332885742187
 42
-1
  0
SEQEND
  0
POLYLINE
  8
0
 10
0
 20
0
 39
0
 70
1
 66
1
  0
VERTEX
  8
0
 10
4968.259765625
 20
131.10920715332031
 42
-1
  0
VERTEX
  8
0
 10
4968.33837890625
 20
149.10903930664062
 42
-1
  0
SEQEND
  0
POLYLINE
  8
0
 10
0
 20
0
 39
0
 70
1
 66
1
  0
VERTEX
  8
0
 10
4928.60986328125
 20
54.368011474609375
 42
-1
  0
VERTEX
  8
0
 10
4941.3935546875
 20
67.040275573730469
 42
-1
  0
SEQEND
  0
POLYLINE
  8
0
 10
0
 20
0
 39
0
 70
1
 66
1
  0
VERTEX
  8
0
 10
4846.30908203125
 20
28.140340805053711
 42
-1
  0
VERTEX
  8
0
 10
4864.30908203125
 20
28.061800003051758
 42
-1
  0
SEQEND
  0
POLYLINE
  8
0
 10
0
 20
0
 39
0
 70
1
 66
1
  0
VERTEX
  8
0
 10
4769.56787109375
 20
67.790008544921875
 42
-1
  0
VERTEX
  8
0
 10
4782.240234375
 20
55.006671905517578
 42
-1
  0
SEQEND
  0
POLYLINE
  8
0
 10
0
 20
0
 39
0
 70
1
 66
1
  0
VERTEX
  8
0
 10
10.600000381469727
 20
1559.4000244140625
 42
-0.1576707661151886
  0
VERTEX
  8
0
 10
10.600000381469727
 20
1359.4000244140625
 42
0
  0
VERTEX
  8
0
 10
114.43486785888672
 20
1359.4000244140625
 42
0.11932211369276047
  0
VERTEX
  8
0
 10
114.43486785888672
 20
1559.4000244140625
 42
-0
  0
SEQEND
  0
POLYLINE
  8
0
 10
0
 20
0
 39
0
 70
1
 66
1
  0
VERTEX
  8
0
 10
103.36708831787109
 20
1470.4000244140625
 42
-1
  0
VERTEX
  8
0
 10
103.36708831787109
 20
1448.4000244140625
 42
-0
  0
VERTEX
  8
0
 10
93.367088317871094
 20
1448.4000244140625
 42
-1
  0
VERTEX
  8
0
 10
93.367088317871094
 20
1470.4000244140625
 42
0
  0
SEQEND
  0
POLYLINE
  8
0
 10
0
 20
0
 39
0
 70
1
 66
1
  0
VERTEX
  8
0
 10
574.60003662109375
 20
1989.1671142578125
 42
-0.1576707661151886
  0
VERTEX
  8
0
 10
374.60000610351562
 20
1989.1671142578125
 42
0
  0
VERTEX
  8
0
 10
374.60000610351562
 20
1885.3321533203125
 42
0.11932211369276047
  0
VERTEX
  8
0
 10
574.60003662109375
 20
1885.3321533203125
 42
-0
  0
SEQEND
  0
POLYLINE
  8
0
 10
0
 20
0
 39
0
 70
1
 66
1
  0
VERTEX
  8
0
 10
485.60000610351562
 20
1896.4000244140625
 42
-1
  0
VERTEX
  8
0
 10
463.60000610351562
 20
1896.4000244140625
 42
-0
  0
VERTEX
  8
0
 10
463.60000610351562
 20
1906.4000244140625
 42
-1
  0
VERTEX
  8
0
 10
485.60000610351562
 20
1906.4000244140625
 42
0
  0
SEQEND
  0
POLYLINE
  8
0
 10
0
 20
0
 39
0
 70
1
 66
1
  0
VERTEX
  8
0
 10
2423.967041015625
 20
713.4000244140625
 42
-0.1576707661151886
  0
VERTEX
  8
0
 10
2423.967041015625
 20
913.4000244140625
 42
0
  0
VERTEX
  8
0
 10
2320.13232421875
 20
913.4000244140625
 42
0.11932211369276047
  0
VERTEX
  8
0
 10
2320.13232421875
 20
713.4000244140625
 42
-0
  0
SEQEND
  0
POLYLINE
  8
0
 10
0
 20
0
 39
0
 70
1
 66
1
  0
VERTEX
  8
0
 10
2331.199951171875
 20
802.4000244140625
 42
-1
  0
VERTEX
  8
0
 10
2331.199951171875
 20
824.4000244140625
 42
-0
  0
VERTEX
  8
0
 10
2341.199951171875
 20
824.4000244140625
 42
-1
  0
VERTEX
  8
0
 10
2341.199951171875
 20
802.4000244140625
 42
0
  0
SEQEND
  0
POLYLINE
  8
0
 10
0
 20
0
 39
0
 70
1
 66
1
  0
VERTEX
  8
0
 10
2909.1669921875
 20
1788.199951171875
 42
-0.1576707661151886
  0
VERTEX
  8
0
 10
2909.1669921875
 20
1988.199951171875
 42
0
  0
VERTEX
  8
0
 10
2805.332275390625
 20
1988.2000732421875
 42
0.11932211369276047
  0
VERTEX
  8
0
 10
2805.332275390625
 20
1788.199951171875
 42
-0
  0
SEQEND
  0
POLYLINE
  8
0
 10
0
 20
0
 39
0
 70
1
 66
1
  0
VERTEX
  8
0
 10
2816.39990234375
 20
1877.199951171875
 42
-1
  0
VERTEX
  8
0
 10
2816.39990234375
 20
1899.199951171875
 42
-0
  0
VERTEX
  8
0
 10
2826.39990234375
 20
1899.199951171875
 42
-1
  0
VERTEX
  8
0
 10
2826.39990234375
 20
1877.199951171875
 42
0
  0
SEQEND
  0
POLYLINE
  8
0
 10
0
 20
0
 39
0
 70
1
 66
1
  0
VERTEX
  8
0
 10
3051.39990234375
 20
1371
 42
-0.1576707661151886
  0
VERTEX
  8
0
 10
3051.39990234375
 20
1171
 42
0
  0
VERTEX
  8
0
 10
3155.23486328125
 20
1171
 42
0.11932211369276047
  0
VERTEX
  8
0
 10
3155.23486328125
 20
1371
 42
-0
  0
SEQEND
  0
POLYLINE
  8
0
 10
0
 20
0
 39
0
 70
1
 66
1
  0
VERTEX
  8
0
 10
3144.1669921875
 20
1282
 42
-1
  0
VERTEX
  8
0
 10
3144.1669921875
 20
1260
 42
-0
  0
VERTEX
  8
0
 10
3134.1669921875
 20
1260
 42
-1
  0
VERTEX
  8
0
 10
3134.1669921875
 20
1282
 42
0
  0
SEQEND
  0
POLYLINE
  8
0
 10
0
 20
0
 39
0
 70
1
 66
1
  0
VERTEX
  8
0
 10
3177.800048828125
 20
1201.800048828125
 42
-0.1576707661151886
  0
VERTEX
  8
0
 10
3377.800048828125
 20
1201.800048828125
 42
0
  0
VERTEX
  8
0
 10
3377.800048828125
 20
1305.6348876953125
 42
0.11932211369276047
  0
VERTEX
  8
0
 10
3177.800048828125
 20
1305.6348876953125
 42
-0
  0
SEQEND
  0
POLYLINE
  8
0
 10
0
 20
0
 39
0
 70
1
 66
1
  0
VERTEX
  8
0
 10
3266.800048828125
 20
1294.567138671875
 42
-1
  0
VERTEX
  8
0
 10
3288.800048828125
 20
1294.567138671875
 42
-0
  0
VERTEX
  8
0
 10
3288.800048828125
 20
1284.567138671875
 42
-1
  0
VERTEX
  8
0
 10
3266.800048828125
 20
1284.567138671875
 42
0
  0
SEQEND
  0
POLYLINE
  8
0
 10
0
 20
0
 39
0
 70
1
 66
1
  0
VERTEX
  8
0
 10
3589
 20
910.20001220703125
 42
-0.1576707661151886
  0
VERTEX
  8
0
 10
3589
 20
710.20001220703125
 42
0
  0
VERTEX
  8
0
 10
3692.8349609375
 20
710.20001220703125
 42
0.11932211369276047
  0
VERTEX
  8
0
 10
3692.8349609375
 20
910.20001220703125
 42
-0
  0
SEQEND
  0
POLYLINE
  8
0
 10
0
 20
0
 39
0
 70
1
 66
1
  0
VERTEX
  8
0
 10
3681.76708984375
 20
821.20001220703125
 42
-1
  0
VERTEX
  8
0
 10
3681.76708984375
 20
799.20001220703125
 42
-0
  0
VERTEX
  8
0
 10
3671.76708984375
 20
799.20001220703125
 42
-1
  0
VERTEX
  8
0
 10
3671.76708984375
 20
821.20001220703125
 42
0
  0
SEQEND
  0
POLYLINE
  8
0
 10
0
 20
0
 39
0
 70
1
 66
1
  0
VERTEX
  8
0
 10
3706.199951171875
 20
919
 42
-0.1576707661151886
  0
VERTEX
  8
0
 10
3706.199951171875
 20
719
 42
0
  0
VERTEX
  8
0
 10
3810.034912109375
 20
719
 42
0.11932211369276047
  0
VERTEX
  8
0
 10
3810.034912109375
 20
919
 42
-0
  0
SEQEND
  0
POLYLINE
  8
0
 10
0
 20
0
 39
0
 70
1
 66
1
  0
VERTEX
  8
0
 10
3798.967041015625
 20
830
 42
-1
  0
VERTEX
  8
0
 10
3798.967041015625
 20
808
 42
-0
  0
VERTEX
  8
0
 10
3788.967041015625
 20
808
 42
-1
  0
VERTEX
  8
0
 10
3788.967041015625
 20
830
 42
0
  0
SEQEND
  0
POLYLINE
  8
0
 10
0
 20
0
 39
0
 70
1
 66
1
  0
VERTEX
  8
0
 10
3821.39990234375
 20
919
 42
-0.1576707661151886
  0
VERTEX
  8
0
 10
3821.39990234375
 20
719
 42
0
  0
VERTEX
  8
0
 10
3925.23486328125
 20
719
 42
0.11932211369276047
  0
VERTEX
  8
0
 10
3925.23486328125
 20
919
 42
-0
  0
SEQEND
  0
POLYLINE
  8
0
 10
0
 20
0
 39
0
 70
1
 66
1
  0
VERTEX
  8
0
 10
3914.1669921875
 20
830
 42
-1
  0
VERTEX
  8
0
 10
3914.1669921875
 20
808
 42
-0
  0
VERTEX
  8
0
 10
3904.1669921875
 20
808
 42
-1
  0
VERTEX
  8
0
 10
3904.1669921875
 20
830
 42
0
  0
SEQEND
  0
POLYLINE
  8
0
 10
0
 20
0
 39
0
 70
1
 66
1
  0
VERTEX
  8
0
 10
4248.2001953125
 20
571.56707763671875
 42
-0.1576707661151886
  0
VERTEX
  8
0
 10
4048.199951171875
 20
571.56707763671875
 42
0
  0
VERTEX
  8
0
 10
4048.199951171875
 20
467.73220825195312
 42
0.11932211369276047
  0
VERTEX
  8
0
 10
4248.2001953125
 20
467.73220825195312
 42
-0
  0
SEQEND
  0
POLYLINE
  8
0
 10
0
 20
0
 39
0
 70
1
 66
1
  0
VERTEX
  8
0
 10
4159.2001953125
 20
478.79998779296875
 42
-1
  0
VERTEX
  8
0
 10
4137.2001953125
 20
478.79998779296875
 42
-0
  0
VERTEX
  8
0
 10
4137.2001953125
 20
488.79998779296875
 42
-1
  0
VERTEX
  8
0
 10
4159.2001953125
 20
488.79998779296875
 42
0
  0
SEQEND
  0
POLYLINE
  8
0
 10
0
 20
0
 39
0
 70
1
 66
1
  0
VERTEX
  8
0
 10
4867.56689453125
 20
1306.199951171875
 42
-0.1576707661151886
  0
VERTEX
  8
0
 10
4867.56689453125
 20
1506.199951171875
 42
0
  0
VERTEX
  8
0
 10
4763.732421875
 20
1506.2000732421875
 42
0.11932211369276047
  0
VERTEX
  8
0
 10
4763.732421875
 20
1306.199951171875
 42
-0
  0
SEQEND
  0
POLYLINE
  8
0
 10
0
 20
0
 39
0
 70
1
 66
1
  0
VERTEX
  8
0
 10
4774.7998046875
 20
1395.199951171875
 42
-1
  0
VERTEX
  8
0
 10
4774.7998046875
 20
1417.199951171875
 42
-0
  0
VERTEX
  8
0
 10
4784.7998046875
 20
1417.199951171875
 42
-1
  0
VERTEX
  8
0
 10
4784.7998046875
 20
1395.199951171875
 42
0
  0
SEQEND
  0
POLYLINE
  8
0
 10
0
 20
0
 39
0
 70
1
 66
1
  0
VERTEX
  8
0
 10
4787.39990234375
 20
1017
 42
-0.1576707661151886
  0
VERTEX
  8
0
 10
4787.39990234375
 20
817
 42
0
  0
VERTEX
  8
0
 10
4891.23486328125
 20
817
 42
0.11932211369276047
  0
VERTEX
  8
0
 10
4891.23486328125
 20
1017
 42
-0
  0
SEQEND
  0
POLYLINE
  8
0
 10
0
 20
0
 39
0
 70
1
 66
1
  0
VERTEX
  8
0
 10
4880.1669921875
 20
928
 42
-1
  0
VERTEX
  8
0
 10
4880.1669921875
 20
906
 42
-0
  0
VERTEX
  8
0
 10
4870.1669921875
 20
906
 42
-1
  0
VERTEX
  8
0
 10
4870.1669921875
 20
928
 42
0
  0
SEQEND
  0
POLYLINE
  8
0
 10
0
 20
0
 39
0
 70
1
 66
1
  0
VERTEX
  8
0
 10
4813
 20
1287
 42
-0.1576707661151886
  0
VERTEX
  8
0
 10
4813
 20
1087
 42
0
  0
VERTEX
  8
0
 10
4916.8349609375
 20
1087
 42
0.11932211369276047
  0
VERTEX
  8
0
 10
4916.8349609375
 20
1287
 42
-0
  0
SEQEND
  0
POLYLINE
  8
0
 10
0
 20
0
 39
0
 70
1
 66
1
  0
VERTEX
  8
0
 10
4905.76708984375
 20
1198
 42
-1
  0
VERTEX
  8
0
 10
4905.76708984375
 20
1176
 42
-0
  0
VERTEX
  8
0
 10
4895.76708984375
 20
1176
 42
-1
  0
VERTEX
  8
0
 10
4895.76708984375
 20
1198
 42
0
  0
SEQEND
  0
POLYLINE
  8
0
 10
0
 20
0
 39
0
 70
1
 66
1
  0
VERTEX
  8
0
 10
4947.7998046875
 20
1989.1671142578125
 42
-0.1576707661151886
  0
VERTEX
  8
0
 10
4747.7998046875
 20
1989.1671142578125
 42
0
  0
VERTEX
  8
0
 10
4747.7998046875
 20
1885.3321533203125
 42
0.11932211369276047
  0
VERTEX
  8
0
 10
4947.7998046875
 20
1885.3321533203125
 42
-0
  0
SEQEND
  0
POLYLINE
  8
0
 10
0
 20
0
 39
0
 70
1
 66
1
  0
VERTEX
  8
0
 10
4858.7998046875
 20
1896.4000244140625
 42
-1
  0
VERTEX
  8
0
 10
4836.7998046875
 20
1896.4000244140625
 42
-0
  0
VERTEX
  8
0
 10
4836.7998046875
 20
1906.4000244140625
 42
-1
  0
VERTEX
  8
0
 10
4858.7998046875
 20
1906.4000244140625
 42
0
  0
SEQEND
  0
POLYLINE
  8
0
 10
0
 20
0
 39
0
 70
1
 66
1
  0
VERTEX
  8
0
 10
4838.60009765625
 20
480.60000610351562
 42
-0.1576707661151886
  0
VERTEX
  8
0
 10
4838.60009765625
 20
280.60000610351562
 42
0
  0
VERTEX
  8
0
 10
4942.43505859375
 20
280.60000610351562
 42
0.11932211369276047
  0
VERTEX
  8
0
 10
4942.43505859375
 20
480.60000610351562
 42
-0
  0
SEQEND
  0
POLYLINE
  8
0
 10
0
 20
0
 39
0
 70
1
 66
1
  0
VERTEX
  8
0
 10
4931.3671875
 20
391.60000610351562
 42
-1
  0
VERTEX
  8
0
 10
4931.3671875
 20
369.60000610351562
 42
-0
  0
VERTEX
  8
0
 10
4921.3671875
 20
369.60000610351562
 42
-1
  0
VERTEX
  8
0
 10
4921.3671875
 20
391.60000610351562
 42
0
  0
SEQEND
  0
POLYLINE
  8
0
 10
0
 20
0
 39
0
 70
1
 66
1
  0
VERTEX
  8
0
 10
4843.39990234375
 20
740.60003662109375
 42
-0.1576707661151886
  0
VERTEX
  8
0
 10
4843.39990234375
 20
540.60003662109375
 42
0
  0
VERTEX
  8
0
 10
4947.23486328125
 20
540.5999755859375
 42
0.11932211369276047
  0
VERTEX
  8
0
 10
4947.23486328125
 20
740.60003662109375
 42
-0
  0
SEQEND
  0
POLYLINE
  8
0
 10
0
 20
0
 39
0
 70
1
 66
1
  0
VERTEX
  8
0
 10
4936.1669921875
 20
651.60003662109375
 42
-1
  0
VERTEX
  8
0
 10
4936.1669921875
 20
629.60003662109375
 42
-0
  0
VERTEX
  8
0
 10
4926.1669921875
 20
629.60003662109375
 42
-1
  0
VERTEX
  8
0
 10
4926.1669921875
 20
651.60003662109375
 42
0
  0
SEQEND
  0
ENDSEC
  0
EOF
