  0
SECTION
  2
ENTITIES
  0
POLYLINE
  8
0
 10
0
 20
0
 39
0
 70
1
 66
1
  0
VERTEX
  8
0
 10
0
 20
0
 42
-0
  0
VERTEX
  8
0
 10
3000
 20
0
 42
-0
  0
VERTEX
  8
0
 10
3000
 20
1500
 42
-0
  0
VERTEX
  8
0
 10
0
 20
1500
 42
-0
  0
SEQEND
  0
POLYLINE
  8
0
 10
0
 20
0
 39
0
 70
1
 66
1
  0
VERTEX
  8
0
 10
1962.0859375
 20
305
 42
0
  0
VERTEX
  8
0
 10
1962.0859375
 20
75
 42
1
  0
VERTEX
  8
0
 10
2092.0859375
 20
75
 42
0
  0
VERTEX
  8
0
 10
2092.0859375
 20
305
 42
1
  0
SEQEND
  0
POLYLINE
  8
0
 10
0
 20
0
 39
0
 70
1
 66
1
  0
VERTEX
  8
0
 10
2027.0859375
 20
332.5
 42
-1
  0
VERTEX
  8
0
 10
2027.0859375
 20
277.5
 42
-1
  0
SEQEND
  0
POLYLINE
  8
0
 10
0
 20
0
 39
0
 70
1
 66
1
  0
VERTEX
  8
0
 10
2027.0859375
 20
102.5
 42
-1
  0
VERTEX
  8
0
 10
2027.0859375
 20
47.5
 42
-1
  0
SEQEND
  0
POLYLINE
  8
0
 10
0
 20
0
 39
0
 70
1
 66
1
  0
VERTEX
  8
0
 10
2662.0859375
 20
675
 42
0
  0
VERTEX
  8
0
 10
2662.0859375
 20
445
 42
1
  0
VERTEX
  8
0
 10
2792.0859375
 20
445
 42
0
  0
VERTEX
  8
0
 10
2792.0859375
 20
675
 42
1
  0
SEQEND
  0
POLYLINE
  8
0
 10
0
 20
0
 39
0
 70
1
 66
1
  0
VERTEX
  8
0
 10
2727.0859375
 20
702.5
 42
-1
  0
VERTEX
  8
0
 10
2727.0859375
 20
647.5
 42
-1
  0
SEQEND
  0
POLYLINE
  8
0
 10
0
 20
0
 39
0
 70
1
 66
1
  0
VERTEX
  8
0
 10
2727.0859375
 20
472.5
 42
-1
  0
VERTEX
  8
0
 10
2727.0859375
 20
417.5
 42
-1
  0
SEQEND
  0
POLYLINE
  8
0
 10
0
 20
0
 39
0
 70
1
 66
1
  0
VERTEX
  8
0
 10
1682.0859375
 20
675
 42
0
  0
VERTEX
  8
0
 10
1682.0859375
 20
445
 42
1
  0
VERTEX
  8
0
 10
1812.0859375
 20
445
 42
0
  0
VERTEX
  8
0
 10
1812.0859375
 20
675
 42
1
  0
SEQEND
  0
POLYLINE
  8
0
 10
0
 20
0
 39
0
 70
1
 66
1
  0
VERTEX
  8
0
 10
1747.0859375
 20
702.5
 42
-1
  0
VERTEX
  8
0
 10
1747.0859375
 20
647.5
 42
-1
  0
SEQEND
  0
POLYLINE
  8
0
 10
0
 20
0
 39
0
 70
1
 66
1
  0
VERTEX
  8
0
 10
1747.0859375
 20
472.5
 42
-1
  0
VERTEX
  8
0
 10
1747.0859375
 20
417.5
 42
-1
  0
SEQEND
  0
POLYLINE
  8
0
 10
0
 20
0
 39
0
 70
1
 66
1
  0
VERTEX
  8
0
 10
2522.0859375
 20
675
 42
0
  0
VERTEX
  8
0
 10
2522.0859375
 20
445
 42
1
  0
VERTEX
  8
0
 10
2652.0859375
 20
445
 42
0
  0
VERTEX
  8
0
 10
2652.0859375
 20
675
 42
1
  0
SEQEND
  0
POLYLINE
  8
0
 10
0
 20
0
 39
0
 70
1
 66
1
  0
VERTEX
  8
0
 10
2587.0859375
 20
702.5
 42
-1
  0
VERTEX
  8
0
 10
2587.0859375
 20
647.5
 42
-1
  0
SEQEND
  0
POLYLINE
  8
0
 10
0
 20
0
 39
0
 70
1
 66
1
  0
VERTEX
  8
0
 10
2587.0859375
 20
472.5
 42
-1
  0
VERTEX
  8
0
 10
2587.0859375
 20
417.5
 42
-1
  0
SEQEND
  0
POLYLINE
  8
0
 10
0
 20
0
 39
0
 70
1
 66
1
  0
VERTEX
  8
0
 10
2242.0859375
 20
675
 42
0
  0
VERTEX
  8
0
 10
2242.0859375
 20
445
 42
1
  0
VERTEX
  8
0
 10
2372.0859375
 20
445
 42
0
  0
VERTEX
  8
0
 10
2372.0859375
 20
675
 42
1
  0
SEQEND
  0
POLYLINE
  8
0
 10
0
 20
0
 39
0
 70
1
 66
1
  0
VERTEX
  8
0
 10
2307.0859375
 20
702.5
 42
-1
  0
VERTEX
  8
0
 10
2307.0859375
 20
647.5
 42
-1
  0
SEQEND
  0
POLYLINE
  8
0
 10
0
 20
0
 39
0
 70
1
 66
1
  0
VERTEX
  8
0
 10
2307.0859375
 20
472.5
 42
-1
  0
VERTEX
  8
0
 10
2307.0859375
 20
417.5
 42
-1
  0
SEQEND
  0
POLYLINE
  8
0
 10
0
 20
0
 39
0
 70
1
 66
1
  0
VERTEX
  8
0
 10
2802.0859375
 20
675
 42
0
  0
VERTEX
  8
0
 10
2802.0859375
 20
445
 42
1
  0
VERTEX
  8
0
 10
2932.0859375
 20
445
 42
0
  0
VERTEX
  8
0
 10
2932.0859375
 20
675
 42
1
  0
SEQEND
  0
POLYLINE
  8
0
 10
0
 20
0
 39
0
 70
1
 66
1
  0
VERTEX
  8
0
 10
2867.0859375
 20
702.5
 42
-1
  0
VERTEX
  8
0
 10
2867.0859375
 20
647.5
 42
-1
  0
SEQEND
  0
POLYLINE
  8
0
 10
0
 20
0
 39
0
 70
1
 66
1
  0
VERTEX
  8
0
 10
2867.0859375
 20
472.5
 42
-1
  0
VERTEX
  8
0
 10
2867.0859375
 20
417.5
 42
-1
  0
SEQEND
  0
POLYLINE
  8
0
 10
0
 20
0
 39
0
 70
1
 66
1
  0
VERTEX
  8
0
 10
2662.0859375
 20
1415
 42
0
  0
VERTEX
  8
0
 10
2662.0859375
 20
1185
 42
1
  0
VERTEX
  8
0
 10
2792.0859375
 20
1185
 42
0
  0
VERTEX
  8
0
 10
2792.0859375
 20
1415
 42
1
  0
SEQEND
  0
POLYLINE
  8
0
 10
0
 20
0
 39
0
 70
1
 66
1
  0
VERTEX
  8
0
 10
2727.0859375
 20
1442.5
 42
-1
  0
VERTEX
  8
0
 10
2727.0859375
 20
1387.5
 42
-1
  0
SEQEND
  0
POLYLINE
  8
0
 10
0
 20
0
 39
0
 70
1
 66
1
  0
VERTEX
  8
0
 10
2727.0859375
 20
1212.5
 42
-1
  0
VERTEX
  8
0
 10
2727.0859375
 20
1157.5
 42
-1
  0
SEQEND
  0
POLYLINE
  8
0
 10
0
 20
0
 39
0
 70
1
 66
1
  0
VERTEX
  8
0
 10
2522.0859375
 20
1415
 42
0
  0
VERTEX
  8
0
 10
2522.0859375
 20
1185
 42
1
  0
VERTEX
  8
0
 10
2652.0859375
 20
1185
 42
0
  0
VERTEX
  8
0
 10
2652.0859375
 20
1415
 42
1
  0
SEQEND
  0
POLYLINE
  8
0
 10
0
 20
0
 39
0
 70
1
 66
1
  0
VERTEX
  8
0
 10
2587.0859375
 20
1442.5
 42
-1
  0
VERTEX
  8
0
 10
2587.0859375
 20
1387.5
 42
-1
  0
SEQEND
  0
POLYLINE
  8
0
 10
0
 20
0
 39
0
 70
1
 66
1
  0
VERTEX
  8
0
 10
2587.0859375
 20
1212.5
 42
-1
  0
VERTEX
  8
0
 10
2587.0859375
 20
1157.5
 42
-1
  0
SEQEND
  0
POLYLINE
  8
0
 10
0
 20
0
 39
0
 70
1
 66
1
  0
VERTEX
  8
0
 10
2242.0859375
 20
305
 42
0
  0
VERTEX
  8
0
 10
2242.0859375
 20
75
 42
1
  0
VERTEX
  8
0
 10
2372.0859375
 20
75
 42
0
  0
VERTEX
  8
0
 10
2372.0859375
 20
305
 42
1
  0
SEQEND
  0
POLYLINE
  8
0
 10
0
 20
0
 39
0
 70
1
 66
1
  0
VERTEX
  8
0
 10
2307.0859375
 20
332.5
 42
-1
  0
VERTEX
  8
0
 10
2307.0859375
 20
277.5
 42
-1
  0
SEQEND
  0
POLYLINE
  8
0
 10
0
 20
0
 39
0
 70
1
 66
1
  0
VERTEX
  8
0
 10
2307.0859375
 20
102.5
 42
-1
  0
VERTEX
  8
0
 10
2307.0859375
 20
47.5
 42
-1
  0
SEQEND
  0
POLYLINE
  8
0
 10
0
 20
0
 39
0
 70
1
 66
1
  0
VERTEX
  8
0
 10
2382.0859375
 20
1415
 42
0
  0
VERTEX
  8
0
 10
2382.0859375
 20
1185
 42
1
  0
VERTEX
  8
0
 10
2512.0859375
 20
1185
 42
0
  0
VERTEX
  8
0
 10
2512.0859375
 20
1415
 42
1
  0
SEQEND
  0
POLYLINE
  8
0
 10
0
 20
0
 39
0
 70
1
 66
1
  0
VERTEX
  8
0
 10
2447.0859375
 20
1442.5
 42
-1
  0
VERTEX
  8
0
 10
2447.0859375
 20
1387.5
 42
-1
  0
SEQEND
  0
POLYLINE
  8
0
 10
0
 20
0
 39
0
 70
1
 66
1
  0
VERTEX
  8
0
 10
2447.0859375
 20
1212.5
 42
-1
  0
VERTEX
  8
0
 10
2447.0859375
 20
1157.5
 42
-1
  0
SEQEND
  0
POLYLINE
  8
0
 10
0
 20
0
 39
0
 70
1
 66
1
  0
VERTEX
  8
0
 10
1962.0859375
 20
675
 42
0
  0
VERTEX
  8
0
 10
1962.0859375
 20
445
 42
1
  0
VERTEX
  8
0
 10
2092.0859375
 20
445
 42
0
  0
VERTEX
  8
0
 10
2092.0859375
 20
675
 42
1
  0
SEQEND
  0
POLYLINE
  8
0
 10
0
 20
0
 39
0
 70
1
 66
1
  0
VERTEX
  8
0
 10
2027.0859375
 20
702.5
 42
-1
  0
VERTEX
  8
0
 10
2027.0859375
 20
647.5
 42
-1
  0
SEQEND
  0
POLYLINE
  8
0
 10
0
 20
0
 39
0
 70
1
 66
1
  0
VERTEX
  8
0
 10
2027.0859375
 20
472.5
 42
-1
  0
VERTEX
  8
0
 10
2027.0859375
 20
417.5
 42
-1
  0
SEQEND
  0
POLYLINE
  8
0
 10
0
 20
0
 39
0
 70
1
 66
1
  0
VERTEX
  8
0
 10
1682.0859375
 20
305
 42
0
  0
VERTEX
  8
0
 10
1682.0859375
 20
75
 42
1
  0
VERTEX
  8
0
 10
1812.0859375
 20
75
 42
0
  0
VERTEX
  8
0
 10
1812.0859375
 20
305
 42
1
  0
SEQEND
  0
POLYLINE
  8
0
 10
0
 20
0
 39
0
 70
1
 66
1
  0
VERTEX
  8
0
 10
1747.0859375
 20
332.5
 42
-1
  0
VERTEX
  8
0
 10
1747.0859375
 20
277.5
 42
-1
  0
SEQEND
  0
POLYLINE
  8
0
 10
0
 20
0
 39
0
 70
1
 66
1
  0
VERTEX
  8
0
 10
1747.0859375
 20
102.5
 42
-1
  0
VERTEX
  8
0
 10
1747.0859375
 20
47.5
 42
-1
  0
SEQEND
  0
POLYLINE
  8
0
 10
0
 20
0
 39
0
 70
1
 66
1
  0
VERTEX
  8
0
 10
2802.0859375
 20
1045
 42
0
  0
VERTEX
  8
0
 10
2802.0859375
 20
815
 42
1
  0
VERTEX
  8
0
 10
2932.0859375
 20
815
 42
0
  0
VERTEX
  8
0
 10
2932.0859375
 20
1045
 42
1
  0
SEQEND
  0
POLYLINE
  8
0
 10
0
 20
0
 39
0
 70
1
 66
1
  0
VERTEX
  8
0
 10
2867.0859375
 20
1072.5
 42
-1
  0
VERTEX
  8
0
 10
2867.0859375
 20
1017.5
 42
-1
  0
SEQEND
  0
POLYLINE
  8
0
 10
0
 20
0
 39
0
 70
1
 66
1
  0
VERTEX
  8
0
 10
2867.0859375
 20
842.5
 42
-1
  0
VERTEX
  8
0
 10
2867.0859375
 20
787.5
 42
-1
  0
SEQEND
  0
POLYLINE
  8
0
 10
0
 20
0
 39
0
 70
1
 66
1
  0
VERTEX
  8
0
 10
2662.0859375
 20
1045
 42
0
  0
VERTEX
  8
0
 10
2662.0859375
 20
815
 42
1
  0
VERTEX
  8
0
 10
2792.0859375
 20
815
 42
0
  0
VERTEX
  8
0
 10
2792.0859375
 20
1045
 42
1
  0
SEQEND
  0
POLYLINE
  8
0
 10
0
 20
0
 39
0
 70
1
 66
1
  0
VERTEX
  8
0
 10
2727.0859375
 20
1072.5
 42
-1
  0
VERTEX
  8
0
 10
2727.0859375
 20
1017.5
 42
-1
  0
SEQEND
  0
POLYLINE
  8
0
 10
0
 20
0
 39
0
 70
1
 66
1
  0
VERTEX
  8
0
 10
2727.0859375
 20
842.5
 42
-1
  0
VERTEX
  8
0
 10
2727.0859375
 20
787.5
 42
-1
  0
SEQEND
  0
POLYLINE
  8
0
 10
0
 20
0
 39
0
 70
1
 66
1
  0
VERTEX
  8
0
 10
1542.0859375
 20
675
 42
0
  0
VERTEX
  8
0
 10
1542.0859375
 20
445
 42
1
  0
VERTEX
  8
0
 10
1672.0859375
 20
445
 42
0
  0
VERTEX
  8
0
 10
1672.0859375
 20
675
 42
1
  0
SEQEND
  0
POLYLINE
  8
0
 10
0
 20
0
 39
0
 70
1
 66
1
  0
VERTEX
  8
0
 10
1607.0859375
 20
702.5
 42
-1
  0
VERTEX
  8
0
 10
1607.0859375
 20
647.5
 42
-1
  0
SEQEND
  0
POLYLINE
  8
0
 10
0
 20
0
 39
0
 70
1
 66
1
  0
VERTEX
  8
0
 10
1607.0859375
 20
472.5
 42
-1
  0
VERTEX
  8
0
 10
1607.0859375
 20
417.5
 42
-1
  0
SEQEND
  0
POLYLINE
  8
0
 10
0
 20
0
 39
0
 70
1
 66
1
  0
VERTEX
  8
0
 10
445
 20
1344.0872802734375
 42
0
  0
VERTEX
  8
0
 10
675
 20
1344.0872802734375
 42
1
  0
VERTEX
  8
0
 10
675
 20
1474.0872802734375
 42
0
  0
VERTEX
  8
0
 10
445
 20
1474.0872802734375
 42
1
  0
SEQEND
  0
POLYLINE
  8
0
 10
0
 20
0
 39
0
 70
1
 66
1
  0
VERTEX
  8
0
 10
417.5
 20
1409.0872802734375
 42
-1
  0
VERTEX
  8
0
 10
472.5
 20
1409.0872802734375
 42
-1
  0
SEQEND
  0
POLYLINE
  8
0
 10
0
 20
0
 39
0
 70
1
 66
1
  0
VERTEX
  8
0
 10
647.5
 20
1409.0872802734375
 42
-1
  0
VERTEX
  8
0
 10
702.5
 20
1409.0872802734375
 42
-1
  0
SEQEND
  0
POLYLINE
  8
0
 10
0
 20
0
 39
0
 70
1
 66
1
  0
VERTEX
  8
0
 10
2522.0859375
 20
305
 42
0
  0
VERTEX
  8
0
 10
2522.0859375
 20
75
 42
1
  0
VERTEX
  8
0
 10
2652.0859375
 20
75
 42
0
  0
VERTEX
  8
0
 10
2652.0859375
 20
305
 42
1
  0
SEQEND
  0
POLYLINE
  8
0
 10
0
 20
0
 39
0
 70
1
 66
1
  0
VERTEX
  8
0
 10
2587.0859375
 20
332.5
 42
-1
  0
VERTEX
  8
0
 10
2587.0859375
 20
277.5
 42
-1
  0
SEQEND
  0
POLYLINE
  8
0
 10
0
 20
0
 39
0
 70
1
 66
1
  0
VERTEX
  8
0
 10
2587.0859375
 20
102.5
 42
-1
  0
VERTEX
  8
0
 10
2587.0859375
 20
47.5
 42
-1
  0
SEQEND
  0
POLYLINE
  8
0
 10
0
 20
0
 39
0
 70
1
 66
1
  0
VERTEX
  8
0
 10
2102.0859375
 20
1045
 42
0
  0
VERTEX
  8
0
 10
2102.0859375
 20
815
 42
1
  0
VERTEX
  8
0
 10
2232.0859375
 20
815
 42
0
  0
VERTEX
  8
0
 10
2232.0859375
 20
1045
 42
1
  0
SEQEND
  0
POLYLINE
  8
0
 10
0
 20
0
 39
0
 70
1
 66
1
  0
VERTEX
  8
0
 10
2167.0859375
 20
1072.5
 42
-1
  0
VERTEX
  8
0
 10
2167.0859375
 20
1017.5
 42
-1
  0
SEQEND
  0
POLYLINE
  8
0
 10
0
 20
0
 39
0
 70
1
 66
1
  0
VERTEX
  8
0
 10
2167.0859375
 20
842.5
 42
-1
  0
VERTEX
  8
0
 10
2167.0859375
 20
787.5
 42
-1
  0
SEQEND
  0
POLYLINE
  8
0
 10
0
 20
0
 39
0
 70
1
 66
1
  0
VERTEX
  8
0
 10
1822.0859375
 20
305
 42
0
  0
VERTEX
  8
0
 10
1822.0859375
 20
75
 42
1
  0
VERTEX
  8
0
 10
1952.0859375
 20
75
 42
0
  0
VERTEX
  8
0
 10
1952.0859375
 20
305
 42
1
  0
SEQEND
  0
POLYLINE
  8
0
 10
0
 20
0
 39
0
 70
1
 66
1
  0
VERTEX
  8
0
 10
1887.0859375
 20
332.5
 42
-1
  0
VERTEX
  8
0
 10
1887.0859375
 20
277.5
 42
-1
  0
SEQEND
  0
POLYLINE
  8
0
 10
0
 20
0
 39
0
 70
1
 66
1
  0
VERTEX
  8
0
 10
1887.0859375
 20
102.5
 42
-1
  0
VERTEX
  8
0
 10
1887.0859375
 20
47.5
 42
-1
  0
SEQEND
  0
POLYLINE
  8
0
 10
0
 20
0
 39
0
 70
1
 66
1
  0
VERTEX
  8
0
 10
2102.0859375
 20
675
 42
0
  0
VERTEX
  8
0
 10
2102.0859375
 20
445
 42
1
  0
VERTEX
  8
0
 10
2232.0859375
 20
445
 42
0
  0
VERTEX
  8
0
 10
2232.0859375
 20
675
 42
1
  0
SEQEND
  0
POLYLINE
  8
0
 10
0
 20
0
 39
0
 70
1
 66
1
  0
VERTEX
  8
0
 10
2167.0859375
 20
702.5
 42
-1
  0
VERTEX
  8
0
 10
2167.0859375
 20
647.5
 42
-1
  0
SEQEND
  0
POLYLINE
  8
0
 10
0
 20
0
 39
0
 70
1
 66
1
  0
VERTEX
  8
0
 10
2167.0859375
 20
472.5
 42
-1
  0
VERTEX
  8
0
 10
2167.0859375
 20
417.5
 42
-1
  0
SEQEND
  0
POLYLINE
  8
0
 10
0
 20
0
 39
0
 70
1
 66
1
  0
VERTEX
  8
0
 10
2102.0859375
 20
305
 42
0
  0
VERTEX
  8
0
 10
2102.0859375
 20
75
 42
1
  0
VERTEX
  8
0
 10
2232.0859375
 20
75
 42
0
  0
VERTEX
  8
0
 10
2232.0859375
 20
305
 42
1
  0
SEQEND
  0
POLYLINE
  8
0
 10
0
 20
0
 39
0
 70
1
 66
1
  0
VERTEX
  8
0
 10
2167.0859375
 20
332.5
 42
-1
  0
VERTEX
  8
0
 10
2167.0859375
 20
277.5
 42
-1
  0
SEQEND
  0
POLYLINE
  8
0
 10
0
 20
0
 39
0
 70
1
 66
1
  0
VERTEX
  8
0
 10
2167.0859375
 20
102.5
 42
-1
  0
VERTEX
  8
0
 10
2167.0859375
 20
47.5
 42
-1
  0
SEQEND
  0
POLYLINE
  8
0
 10
0
 20
0
 39
0
 70
1
 66
1
  0
VERTEX
  8
0
 10
2242.0859375
 20
1045
 42
0
  0
VERTEX
  8
0
 10
2242.0859375
 20
815
 42
1
  0
VERTEX
  8
0
 10
2372.0859375
 20
815
 42
0
  0
VERTEX
  8
0
 10
2372.0859375
 20
1045
 42
1
  0
SEQEND
  0
POLYLINE
  8
0
 10
0
 20
0
 39
0
 70
1
 66
1
  0
VERTEX
  8
0
 10
2307.0859375
 20
1072.5
 42
-1
  0
VERTEX
  8
0
 10
2307.0859375
 20
1017.5
 42
-1
  0
SEQEND
  0
POLYLINE
  8
0
 10
0
 20
0
 39
0
 70
1
 66
1
  0
VERTEX
  8
0
 10
2307.0859375
 20
842.5
 42
-1
  0
VERTEX
  8
0
 10
2307.0859375
 20
787.5
 42
-1
  0
SEQEND
  0
POLYLINE
  8
0
 10
0
 20
0
 39
0
 70
1
 66
1
  0
VERTEX
  8
0
 10
2382.0859375
 20
675
 42
0
  0
VERTEX
  8
0
 10
2382.0859375
 20
445
 42
1
  0
VERTEX
  8
0
 10
2512.0859375
 20
445
 42
0
  0
VERTEX
  8
0
 10
2512.0859375
 20
675
 42
1
  0
SEQEND
  0
POLYLINE
  8
0
 10
0
 20
0
 39
0
 70
1
 66
1
  0
VERTEX
  8
0
 10
2447.0859375
 20
702.5
 42
-1
  0
VERTEX
  8
0
 10
2447.0859375
 20
647.5
 42
-1
  0
SEQEND
  0
POLYLINE
  8
0
 10
0
 20
0
 39
0
 70
1
 66
1
  0
VERTEX
  8
0
 10
2447.0859375
 20
472.5
 42
-1
  0
VERTEX
  8
0
 10
2447.0859375
 20
417.5
 42
-1
  0
SEQEND
  0
POLYLINE
  8
0
 10
0
 20
0
 39
0
 70
1
 66
1
  0
VERTEX
  8
0
 10
1185
 20
1344.0872802734375
 42
0
  0
VERTEX
  8
0
 10
1415
 20
1344.0872802734375
 42
1
  0
VERTEX
  8
0
 10
1415
 20
1474.0872802734375
 42
0
  0
VERTEX
  8
0
 10
1185
 20
1474.0872802734375
 42
1
  0
SEQEND
  0
POLYLINE
  8
0
 10
0
 20
0
 39
0
 70
1
 66
1
  0
VERTEX
  8
0
 10
1157.5
 20
1409.0872802734375
 42
-1
  0
VERTEX
  8
0
 10
1212.5
 20
1409.0872802734375
 42
-1
  0
SEQEND
  0
POLYLINE
  8
0
 10
0
 20
0
 39
0
 70
1
 66
1
  0
VERTEX
  8
0
 10
1387.5
 20
1409.0872802734375
 42
-1
  0
VERTEX
  8
0
 10
1442.5
 20
1409.0872802734375
 42
-1
  0
SEQEND
  0
POLYLINE
  8
0
 10
0
 20
0
 39
0
 70
1
 66
1
  0
VERTEX
  8
0
 10
1822.0859375
 20
675
 42
0
  0
VERTEX
  8
0
 10
1822.0859375
 20
445
 42
1
  0
VERTEX
  8
0
 10
1952.0859375
 20
445
 42
0
  0
VERTEX
  8
0
 10
1952.0859375
 20
675
 42
1
  0
SEQEND
  0
POLYLINE
  8
0
 10
0
 20
0
 39
0
 70
1
 66
1
  0
VERTEX
  8
0
 10
1887.0859375
 20
702.5
 42
-1
  0
VERTEX
  8
0
 10
1887.0859375
 20
647.5
 42
-1
  0
SEQEND
  0
POLYLINE
  8
0
 10
0
 20
0
 39
0
 70
1
 66
1
  0
VERTEX
  8
0
 10
1887.0859375
 20
472.5
 42
-1
  0
VERTEX
  8
0
 10
1887.0859375
 20
417.5
 42
-1
  0
SEQEND
  0
POLYLINE
  8
0
 10
0
 20
0
 39
0
 70
1
 66
1
  0
VERTEX
  8
0
 10
815
 20
1344.0872802734375
 42
0
  0
VERTEX
  8
0
 10
1045
 20
1344.0872802734375
 42
1
  0
VERTEX
  8
0
 10
1045
 20
1474.0872802734375
 42
0
  0
VERTEX
  8
0
 10
815
 20
1474.0872802734375
 42
1
  0
SEQEND
  0
POLYLINE
  8
0
 10
0
 20
0
 39
0
 70
1
 66
1
  0
VERTEX
  8
0
 10
787.5
 20
1409.0872802734375
 42
-1
  0
VERTEX
  8
0
 10
842.5
 20
1409.0872802734375
 42
-1
  0
SEQEND
  0
POLYLINE
  8
0
 10
0
 20
0
 39
0
 70
1
 66
1
  0
VERTEX
  8
0
 10
1017.5
 20
1409.0872802734375
 42
-1
  0
VERTEX
  8
0
 10
1072.5
 20
1409.0872802734375
 42
-1
  0
SEQEND
  0
POLYLINE
  8
0
 10
0
 20
0
 39
0
 70
1
 66
1
  0
VERTEX
  8
0
 10
1682.0859375
 20
1045
 42
0
  0
VERTEX
  8
0
 10
1682.0859375
 20
815
 42
1
  0
VERTEX
  8
0
 10
1812.0859375
 20
815
 42
0
  0
VERTEX
  8
0
 10
1812.0859375
 20
1045
 42
1
  0
SEQEND
  0
POLYLINE
  8
0
 10
0
 20
0
 39
0
 70
1
 66
1
  0
VERTEX
  8
0
 10
1747.0859375
 20
1072.5
 42
-1
  0
VERTEX
  8
0
 10
1747.0859375
 20
1017.5
 42
-1
  0
SEQEND
  0
POLYLINE
  8
0
 10
0
 20
0
 39
0
 70
1
 66
1
  0
VERTEX
  8
0
 10
1747.0859375
 20
842.5
 42
-1
  0
VERTEX
  8
0
 10
1747.0859375
 20
787.5
 42
-1
  0
SEQEND
  0
POLYLINE
  8
0
 10
0
 20
0
 39
0
 70
1
 66
1
  0
VERTEX
  8
0
 10
2662.0859375
 20
305
 42
0
  0
VERTEX
  8
0
 10
2662.0859375
 20
75
 42
1
  0
VERTEX
  8
0
 10
2792.0859375
 20
75
 42
0
  0
VERTEX
  8
0
 10
2792.0859375
 20
305
 42
1
  0
SEQEND
  0
POLYLINE
  8
0
 10
0
 20
0
 39
0
 70
1
 66
1
  0
VERTEX
  8
0
 10
2727.0859375
 20
332.5
 42
-1
  0
VERTEX
  8
0
 10
2727.0859375
 20
277.5
 42
-1
  0
SEQEND
  0
POLYLINE
  8
0
 10
0
 20
0
 39
0
 70
1
 66
1
  0
VERTEX
  8
0
 10
2727.0859375
 20
102.5
 42
-1
  0
VERTEX
  8
0
 10
2727.0859375
 20
47.5
 42
-1
  0
SEQEND
  0
POLYLINE
  8
0
 10
0
 20
0
 39
0
 70
1
 66
1
  0
VERTEX
  8
0
 10
1822.0859375
 20
1415
 42
0
  0
VERTEX
  8
0
 10
1822.0859375
 20
1185
 42
1
  0
VERTEX
  8
0
 10
1952.0859375
 20
1185
 42
0
  0
VERTEX
  8
0
 10
1952.0859375
 20
1415
 42
1
  0
SEQEND
  0
POLYLINE
  8
0
 10
0
 20
0
 39
0
 70
1
 66
1
  0
VERTEX
  8
0
 10
1887.0859375
 20
1442.5
 42
-1
  0
VERTEX
  8
0
 10
1887.0859375
 20
1387.5
 42
-1
  0
SEQEND
  0
POLYLINE
  8
0
 10
0
 20
0
 39
0
 70
1
 66
1
  0
VERTEX
  8
0
 10
1887.0859375
 20
1212.5
 42
-1
  0
VERTEX
  8
0
 10
1887.0859375
 20
1157.5
 42
-1
  0
SEQEND
  0
POLYLINE
  8
0
 10
0
 20
0
 39
0
 70
1
 66
1
  0
VERTEX
  8
0
 10
1542.0859375
 20
1415
 42
0
  0
VERTEX
  8
0
 10
1542.0859375
 20
1185
 42
1
  0
VERTEX
  8
0
 10
1672.0859375
 20
1185
 42
0
  0
VERTEX
  8
0
 10
1672.0859375
 20
1415
 42
1
  0
SEQEND
  0
POLYLINE
  8
0
 10
0
 20
0
 39
0
 70
1
 66
1
  0
VERTEX
  8
0
 10
1607.0859375
 20
1442.5
 42
-1
  0
VERTEX
  8
0
 10
1607.0859375
 20
1387.5
 42
-1
  0
SEQEND
  0
POLYLINE
  8
0
 10
0
 20
0
 39
0
 70
1
 66
1
  0
VERTEX
  8
0
 10
1607.0859375
 20
1212.5
 42
-1
  0
VERTEX
  8
0
 10
1607.0859375
 20
1157.5
 42
-1
  0
SEQEND
  0
POLYLINE
  8
0
 10
0
 20
0
 39
0
 70
1
 66
1
  0
VERTEX
  8
0
 10
75
 20
1344.0872802734375
 42
0
  0
VERTEX
  8
0
 10
305
 20
1344.0872802734375
 42
1
  0
VERTEX
  8
0
 10
305
 20
1474.0872802734375
 42
0
  0
VERTEX
  8
0
 10
75
 20
1474.0872802734375
 42
1
  0
SEQEND
  0
POLYLINE
  8
0
 10
0
 20
0
 39
0
 70
1
 66
1
  0
VERTEX
  8
0
 10
47.5
 20
1409.0872802734375
 42
-1
  0
VERTEX
  8
0
 10
102.5
 20
1409.0872802734375
 42
-1
  0
SEQEND
  0
POLYLINE
  8
0
 10
0
 20
0
 39
0
 70
1
 66
1
  0
VERTEX
  8
0
 10
277.5
 20
1409.0872802734375
 42
-1
  0
VERTEX
  8
0
 10
332.5
 20
1409.0872802734375
 42
-1
  0
SEQEND
  0
POLYLINE
  8
0
 10
0
 20
0
 39
0
 70
1
 66
1
  0
VERTEX
  8
0
 10
2382.0859375
 20
1045
 42
0
  0
VERTEX
  8
0
 10
2382.0859375
 20
815
 42
1
  0
VERTEX
  8
0
 10
2512.0859375
 20
815
 42
0
  0
VERTEX
  8
0
 10
2512.0859375
 20
1045
 42
1
  0
SEQEND
  0
POLYLINE
  8
0
 10
0
 20
0
 39
0
 70
1
 66
1
  0
VERTEX
  8
0
 10
2447.0859375
 20
1072.5
 42
-1
  0
VERTEX
  8
0
 10
2447.0859375
 20
1017.5
 42
-1
  0
SEQEND
  0
POLYLINE
  8
0
 10
0
 20
0
 39
0
 70
1
 66
1
  0
VERTEX
  8
0
 10
2447.0859375
 20
842.5
 42
-1
  0
VERTEX
  8
0
 10
2447.0859375
 20
787.5
 42
-1
  0
SEQEND
  0
POLYLINE
  8
0
 10
0
 20
0
 39
0
 70
1
 66
1
  0
VERTEX
  8
0
 10
1682.0859375
 20
1415
 42
0
  0
VERTEX
  8
0
 10
1682.0859375
 20
1185
 42
1
  0
VERTEX
  8
0
 10
1812.0859375
 20
1185
 42
0
  0
VERTEX
  8
0
 10
1812.0859375
 20
1415
 42
1
  0
SEQEND
  0
POLYLINE
  8
0
 10
0
 20
0
 39
0
 70
1
 66
1
  0
VERTEX
  8
0
 10
1747.0859375
 20
1442.5
 42
-1
  0
VERTEX
  8
0
 10
1747.0859375
 20
1387.5
 42
-1
  0
SEQEND
  0
POLYLINE
  8
0
 10
0
 20
0
 39
0
 70
1
 66
1
  0
VERTEX
  8
0
 10
1747.0859375
 20
1212.5
 42
-1
  0
VERTEX
  8
0
 10
1747.0859375
 20
1157.5
 42
-1
  0
SEQEND
  0
POLYLINE
  8
0
 10
0
 20
0
 39
0
 70
1
 66
1
  0
VERTEX
  8
0
 10
2522.0859375
 20
1045
 42
0
  0
VERTEX
  8
0
 10
2522.0859375
 20
815
 42
1
  0
VERTEX
  8
0
 10
2652.0859375
 20
815
 42
0
  0
VERTEX
  8
0
 10
2652.0859375
 20
1045
 42
1
  0
SEQEND
  0
POLYLINE
  8
0
 10
0
 20
0
 39
0
 70
1
 66
1
  0
VERTEX
  8
0
 10
2587.0859375
 20
1072.5
 42
-1
  0
VERTEX
  8
0
 10
2587.0859375
 20
1017.5
 42
-1
  0
SEQEND
  0
POLYLINE
  8
0
 10
0
 20
0
 39
0
 70
1
 66
1
  0
VERTEX
  8
0
 10
2587.0859375
 20
842.5
 42
-1
  0
VERTEX
  8
0
 10
2587.0859375
 20
787.5
 42
-1
  0
SEQEND
  0
POLYLINE
  8
0
 10
0
 20
0
 39
0
 70
1
 66
1
  0
VERTEX
  8
0
 10
2802.0859375
 20
1415
 42
0
  0
VERTEX
  8
0
 10
2802.0859375
 20
1185
 42
1
  0
VERTEX
  8
0
 10
2932.0859375
 20
1185
 42
0
  0
VERTEX
  8
0
 10
2932.0859375
 20
1415
 42
1
  0
SEQEND
  0
POLYLINE
  8
0
 10
0
 20
0
 39
0
 70
1
 66
1
  0
VERTEX
  8
0
 10
2867.0859375
 20
1442.5
 42
-1
  0
VERTEX
  8
0
 10
2867.0859375
 20
1387.5
 42
-1
  0
SEQEND
  0
POLYLINE
  8
0
 10
0
 20
0
 39
0
 70
1
 66
1
  0
VERTEX
  8
0
 10
2867.0859375
 20
1212.5
 42
-1
  0
VERTEX
  8
0
 10
2867.0859375
 20
1157.5
 42
-1
  0
SEQEND
  0
POLYLINE
  8
0
 10
0
 20
0
 39
0
 70
1
 66
1
  0
VERTEX
  8
0
 10
2382.0859375
 20
305
 42
0
  0
VERTEX
  8
0
 10
2382.0859375
 20
75
 42
1
  0
VERTEX
  8
0
 10
2512.0859375
 20
75
 42
0
  0
VERTEX
  8
0
 10
2512.0859375
 20
305
 42
1
  0
SEQEND
  0
POLYLINE
  8
0
 10
0
 20
0
 39
0
 70
1
 66
1
  0
VERTEX
  8
0
 10
2447.0859375
 20
332.5
 42
-1
  0
VERTEX
  8
0
 10
2447.0859375
 20
277.5
 42
-1
  0
SEQEND
  0
POLYLINE
  8
0
 10
0
 20
0
 39
0
 70
1
 66
1
  0
VERTEX
  8
0
 10
2447.0859375
 20
102.5
 42
-1
  0
VERTEX
  8
0
 10
2447.0859375
 20
47.5
 42
-1
  0
SEQEND
  0
POLYLINE
  8
0
 10
0
 20
0
 39
0
 70
1
 66
1
  0
VERTEX
  8
0
 10
2102.0859375
 20
1415
 42
0
  0
VERTEX
  8
0
 10
2102.0859375
 20
1185
 42
1
  0
VERTEX
  8
0
 10
2232.0859375
 20
1185
 42
0
  0
VERTEX
  8
0
 10
2232.0859375
 20
1415
 42
1
  0
SEQEND
  0
POLYLINE
  8
0
 10
0
 20
0
 39
0
 70
1
 66
1
  0
VERTEX
  8
0
 10
2167.0859375
 20
1442.5
 42
-1
  0
VERTEX
  8
0
 10
2167.0859375
 20
1387.5
 42
-1
  0
SEQEND
  0
POLYLINE
  8
0
 10
0
 20
0
 39
0
 70
1
 66
1
  0
VERTEX
  8
0
 10
2167.0859375
 20
1212.5
 42
-1
  0
VERTEX
  8
0
 10
2167.0859375
 20
1157.5
 42
-1
  0
SEQEND
  0
POLYLINE
  8
0
 10
0
 20
0
 39
0
 70
1
 66
1
  0
VERTEX
  8
0
 10
1962.0859375
 20
1415
 42
0
  0
VERTEX
  8
0
 10
1962.0859375
 20
1185
 42
1
  0
VERTEX
  8
0
 10
2092.0859375
 20
1185
 42
0
  0
VERTEX
  8
0
 10
2092.0859375
 20
1415
 42
1
  0
SEQEND
  0
POLYLINE
  8
0
 10
0
 20
0
 39
0
 70
1
 66
1
  0
VERTEX
  8
0
 10
2027.0859375
 20
1442.5
 42
-1
  0
VERTEX
  8
0
 10
2027.0859375
 20
1387.5
 42
-1
  0
SEQEND
  0
POLYLINE
  8
0
 10
0
 20
0
 39
0
 70
1
 66
1
  0
VERTEX
  8
0
 10
2027.0859375
 20
1212.5
 42
-1
  0
VERTEX
  8
0
 10
2027.0859375
 20
1157.5
 42
-1
  0
SEQEND
  0
POLYLINE
  8
0
 10
0
 20
0
 39
0
 70
1
 66
1
  0
VERTEX
  8
0
 10
1962.0859375
 20
1045
 42
0
  0
VERTEX
  8
0
 10
1962.0859375
 20
815
 42
1
  0
VERTEX
  8
0
 10
2092.0859375
 20
815
 42
0
  0
VERTEX
  8
0
 10
2092.0859375
 20
1045
 42
1
  0
SEQEND
  0
POLYLINE
  8
0
 10
0
 20
0
 39
0
 70
1
 66
1
  0
VERTEX
  8
0
 10
2027.0859375
 20
1072.5
 42
-1
  0
VERTEX
  8
0
 10
2027.0859375
 20
1017.5
 42
-1
  0
SEQEND
  0
POLYLINE
  8
0
 10
0
 20
0
 39
0
 70
1
 66
1
  0
VERTEX
  8
0
 10
2027.0859375
 20
842.5
 42
-1
  0
VERTEX
  8
0
 10
2027.0859375
 20
787.5
 42
-1
  0
SEQEND
  0
POLYLINE
  8
0
 10
0
 20
0
 39
0
 70
1
 66
1
  0
VERTEX
  8
0
 10
1542.0859375
 20
1045
 42
0
  0
VERTEX
  8
0
 10
1542.0859375
 20
815
 42
1
  0
VERTEX
  8
0
 10
1672.0859375
 20
815
 42
0
  0
VERTEX
  8
0
 10
1672.0859375
 20
1045
 42
1
  0
SEQEND
  0
POLYLINE
  8
0
 10
0
 20
0
 39
0
 70
1
 66
1
  0
VERTEX
  8
0
 10
1607.0859375
 20
1072.5
 42
-1
  0
VERTEX
  8
0
 10
1607.0859375
 20
1017.5
 42
-1
  0
SEQEND
  0
POLYLINE
  8
0
 10
0
 20
0
 39
0
 70
1
 66
1
  0
VERTEX
  8
0
 10
1607.0859375
 20
842.5
 42
-1
  0
VERTEX
  8
0
 10
1607.0859375
 20
787.5
 42
-1
  0
SEQEND
  0
POLYLINE
  8
0
 10
0
 20
0
 39
0
 70
1
 66
1
  0
VERTEX
  8
0
 10
2802.0859375
 20
305
 42
0
  0
VERTEX
  8
0
 10
2802.0859375
 20
75
 42
1
  0
VERTEX
  8
0
 10
2932.0859375
 20
75
 42
0
  0
VERTEX
  8
0
 10
2932.0859375
 20
305
 42
1
  0
SEQEND
  0
POLYLINE
  8
0
 10
0
 20
0
 39
0
 70
1
 66
1
  0
VERTEX
  8
0
 10
2867.0859375
 20
332.5
 42
-1
  0
VERTEX
  8
0
 10
2867.0859375
 20
277.5
 42
-1
  0
SEQEND
  0
POLYLINE
  8
0
 10
0
 20
0
 39
0
 70
1
 66
1
  0
VERTEX
  8
0
 10
2867.0859375
 20
102.5
 42
-1
  0
VERTEX
  8
0
 10
2867.0859375
 20
47.5
 42
-1
  0
SEQEND
  0
POLYLINE
  8
0
 10
0
 20
0
 39
0
 70
1
 66
1
  0
VERTEX
  8
0
 10
1532.0859375
 20
728.12860107421875
 42
0.13957709074020386
  0
VERTEX
  8
0
 10
1520.1141357421875
 20
770.2723388671875
 42
0
  0
VERTEX
  8
0
 10
1461.060302734375
 20
865.70220947265625
 42
0.87229293584823608
  0
VERTEX
  8
0
 10
1370.513916015625
 20
825.49072265625
 42
0
  0
VERTEX
  8
0
 10
1453.5589599609375
 20
538.56121826171875
 42
0.86794537305831909
  0
VERTEX
  8
0
 10
1531.98193359375
 20
549.6585693359375
 42
-0
  0
SEQEND
  0
POLYLINE
  8
0
 10
0
 20
0
 39
0
 70
1
 66
1
  0
VERTEX
  8
0
 10
1402.451171875
 20
855.89337158203125
 42
-1
  0
VERTEX
  8
0
 10
1426.1307373046875
 20
817.6275634765625
 42
-1
  0
SEQEND
  0
POLYLINE
  8
0
 10
0
 20
0
 39
0
 70
1
 66
1
  0
VERTEX
  8
0
 10
1475.585205078125
 20
557.175048828125
 42
-1
  0
VERTEX
  8
0
 10
1491.3717041015625
 20
531.66448974609375
 42
-1
  0
SEQEND
  0
POLYLINE
  8
0
 10
0
 20
0
 39
0
 70
1
 66
1
  0
VERTEX
  8
0
 10
1286.73828125
 20
615.95867919921875
 42
0.13957709074020386
  0
VERTEX
  8
0
 10
1298.7100830078125
 20
573.81494140625
 42
0
  0
VERTEX
  8
0
 10
1357.763916015625
 20
478.38507080078125
 42
0.87229293584823608
  0
VERTEX
  8
0
 10
1448.310302734375
 20
518.5965576171875
 42
0
  0
VERTEX
  8
0
 10
1365.265380859375
 20
805.52606201171875
 42
0.86794537305831909
  0
VERTEX
  8
0
 10
1286.84228515625
 20
794.4287109375
 42
-0
  0
SEQEND
  0
POLYLINE
  8
0
 10
0
 20
0
 39
0
 70
1
 66
1
  0
VERTEX
  8
0
 10
1416.3731689453125
 20
488.19390869140625
 42
-1
  0
VERTEX
  8
0
 10
1392.6934814453125
 20
526.45977783203125
 42
-1
  0
SEQEND
  0
POLYLINE
  8
0
 10
0
 20
0
 39
0
 70
1
 66
1
  0
VERTEX
  8
0
 10
1343.239013671875
 20
786.9122314453125
 42
-1
  0
VERTEX
  8
0
 10
1327.45263671875
 20
812.4228515625
 42
-1
  0
SEQEND
  0
POLYLINE
  8
0
 10
0
 20
0
 39
0
 70
1
 66
1
  0
VERTEX
  8
0
 10
255.34764099121094
 20
283.432861328125
 42
0.13957709074020386
  0
VERTEX
  8
0
 10
243.37583923339844
 20
325.57656860351562
 42
0
  0
VERTEX
  8
0
 10
184.322021484375
 20
421.0064697265625
 42
0.87229293584823608
  0
VERTEX
  8
0
 10
93.775596618652344
 20
380.79495239257812
 42
0
  0
VERTEX
  8
0
 10
176.82063293457031
 20
93.865463256835938
 42
0.86794537305831909
  0
VERTEX
  8
0
 10
255.24368286132813
 20
104.96282958984375
 42
-0
  0
SEQEND
  0
POLYLINE
  8
0
 10
0
 20
0
 39
0
 70
1
 66
1
  0
VERTEX
  8
0
 10
125.71283721923828
 20
411.1976318359375
 42
-1
  0
VERTEX
  8
0
 10
149.39247131347656
 20
372.9317626953125
 42
-1
  0
SEQEND
  0
POLYLINE
  8
0
 10
0
 20
0
 39
0
 70
1
 66
1
  0
VERTEX
  8
0
 10
198.84695434570312
 20
112.47927093505859
 42
-1
  0
VERTEX
  8
0
 10
214.63337707519531
 20
86.968704223632813
 42
-1
  0
SEQEND
  0
POLYLINE
  8
0
 10
0
 20
0
 39
0
 70
1
 66
1
  0
VERTEX
  8
0
 10
10.00001335144043
 20
171.26290893554687
 42
0.13957709074020386
  0
VERTEX
  8
0
 10
21.971824645996094
 20
129.11918640136719
 42
0
  0
VERTEX
  8
0
 10
81.025634765625
 20
33.689304351806641
 42
0.87229293584823608
  0
VERTEX
  8
0
 10
171.57206726074219
 20
73.900810241699219
 42
0
  0
VERTEX
  8
0
 10
88.527023315429687
 20
360.83029174804687
 42
0.86794537305831909
  0
VERTEX
  8
0
 10
10.103981018066406
 20
349.73294067382812
 42
-0
  0
SEQEND
  0
POLYLINE
  8
0
 10
0
 20
0
 39
0
 70
1
 66
1
  0
VERTEX
  8
0
 10
139.63482666015625
 20
43.498146057128906
 42
-1
  0
VERTEX
  8
0
 10
115.95519256591797
 20
81.763992309570313
 42
-1
  0
SEQEND
  0
POLYLINE
  8
0
 10
0
 20
0
 39
0
 70
1
 66
1
  0
VERTEX
  8
0
 10
66.500701904296875
 20
342.21649169921875
 42
-1
  0
VERTEX
  8
0
 10
50.714286804199219
 20
367.72705078125
 42
-1
  0
SEQEND
  0
POLYLINE
  8
0
 10
0
 20
0
 39
0
 70
1
 66
1
  0
VERTEX
  8
0
 10
510.6953125
 20
283.432861328125
 42
0.13957709074020386
  0
VERTEX
  8
0
 10
498.72348022460937
 20
325.57656860351562
 42
0
  0
VERTEX
  8
0
 10
439.669677734375
 20
421.0064697265625
 42
0.87229293584823608
  0
VERTEX
  8
0
 10
349.12326049804687
 20
380.79495239257812
 42
0
  0
VERTEX
  8
0
 10
432.16830444335937
 20
93.865463256835938
 42
0.86794537305831909
  0
VERTEX
  8
0
 10
510.59133911132812
 20
104.96282958984375
 42
-0
  0
SEQEND
  0
POLYLINE
  8
0
 10
0
 20
0
 39
0
 70
1
 66
1
  0
VERTEX
  8
0
 10
381.06048583984375
 20
411.1976318359375
 42
-1
  0
VERTEX
  8
0
 10
404.7401123046875
 20
372.9317626953125
 42
-1
  0
SEQEND
  0
POLYLINE
  8
0
 10
0
 20
0
 39
0
 70
1
 66
1
  0
VERTEX
  8
0
 10
454.19461059570312
 20
112.47927093505859
 42
-1
  0
VERTEX
  8
0
 10
469.98104858398437
 20
86.968704223632813
 42
-1
  0
SEQEND
  0
POLYLINE
  8
0
 10
0
 20
0
 39
0
 70
1
 66
1
  0
VERTEX
  8
0
 10
265.34768676757812
 20
171.26290893554687
 42
0.13957709074020386
  0
VERTEX
  8
0
 10
277.31948852539062
 20
129.11918640136719
 42
0
  0
VERTEX
  8
0
 10
336.373291015625
 20
33.689304351806641
 42
0.87229293584823608
  0
VERTEX
  8
0
 10
426.91970825195312
 20
73.900810241699219
 42
0
  0
VERTEX
  8
0
 10
343.87469482421875
 20
360.83029174804687
 42
0.86794537305831909
  0
VERTEX
  8
0
 10
265.45162963867187
 20
349.73294067382812
 42
-0
  0
SEQEND
  0
POLYLINE
  8
0
 10
0
 20
0
 39
0
 70
1
 66
1
  0
VERTEX
  8
0
 10
394.98248291015625
 20
43.498146057128906
 42
-1
  0
VERTEX
  8
0
 10
371.3028564453125
 20
81.763992309570313
 42
-1
  0
SEQEND
  0
POLYLINE
  8
0
 10
0
 20
0
 39
0
 70
1
 66
1
  0
VERTEX
  8
0
 10
321.84835815429687
 20
342.21649169921875
 42
-1
  0
VERTEX
  8
0
 10
306.06195068359375
 20
367.72705078125
 42
-1
  0
SEQEND
  0
POLYLINE
  8
0
 10
0
 20
0
 39
0
 70
1
 66
1
  0
VERTEX
  8
0
 10
1542.0859375
 20
305
 42
0
  0
VERTEX
  8
0
 10
1542.0859375
 20
75
 42
1
  0
VERTEX
  8
0
 10
1672.0859375
 20
75
 42
0
  0
VERTEX
  8
0
 10
1672.0859375
 20
305
 42
1
  0
SEQEND
  0
POLYLINE
  8
0
 10
0
 20
0
 39
0
 70
1
 66
1
  0
VERTEX
  8
0
 10
1607.0859375
 20
332.5
 42
-1
  0
VERTEX
  8
0
 10
1607.0859375
 20
277.5
 42
-1
  0
SEQEND
  0
POLYLINE
  8
0
 10
0
 20
0
 39
0
 70
1
 66
1
  0
VERTEX
  8
0
 10
1607.0859375
 20
102.5
 42
-1
  0
VERTEX
  8
0
 10
1607.0859375
 20
47.5
 42
-1
  0
SEQEND
  0
POLYLINE
  8
0
 10
0
 20
0
 39
0
 70
1
 66
1
  0
VERTEX
  8
0
 10
1532.0859375
 20
1172.8243408203125
 42
0.13957709074020386
  0
VERTEX
  8
0
 10
1520.1141357421875
 20
1214.9681396484375
 42
0
  0
VERTEX
  8
0
 10
1461.060302734375
 20
1310.39794921875
 42
0.87229293584823608
  0
VERTEX
  8
0
 10
1370.513916015625
 20
1270.1865234375
 42
0
  0
VERTEX
  8
0
 10
1453.5589599609375
 20
983.25701904296875
 42
0.86794537305831909
  0
VERTEX
  8
0
 10
1531.98193359375
 20
994.3543701171875
 42
-0
  0
SEQEND
  0
POLYLINE
  8
0
 10
0
 20
0
 39
0
 70
1
 66
1
  0
VERTEX
  8
0
 10
1402.451171875
 20
1300.589111328125
 42
-1
  0
VERTEX
  8
0
 10
1426.1307373046875
 20
1262.3232421875
 42
-1
  0
SEQEND
  0
POLYLINE
  8
0
 10
0
 20
0
 39
0
 70
1
 66
1
  0
VERTEX
  8
0
 10
1475.585205078125
 20
1001.8707885742187
 42
-1
  0
VERTEX
  8
0
 10
1491.3717041015625
 20
976.3602294921875
 42
-1
  0
SEQEND
  0
POLYLINE
  8
0
 10
0
 20
0
 39
0
 70
1
 66
1
  0
VERTEX
  8
0
 10
1286.73828125
 20
1060.6544189453125
 42
0.13957709074020386
  0
VERTEX
  8
0
 10
1298.7100830078125
 20
1018.5107421875
 42
0
  0
VERTEX
  8
0
 10
1357.763916015625
 20
923.080810546875
 42
0.87229293584823608
  0
VERTEX
  8
0
 10
1448.310302734375
 20
963.2923583984375
 42
0
  0
VERTEX
  8
0
 10
1365.265380859375
 20
1250.2218017578125
 42
0.86794537305831909
  0
VERTEX
  8
0
 10
1286.84228515625
 20
1239.12451171875
 42
-0
  0
SEQEND
  0
POLYLINE
  8
0
 10
0
 20
0
 39
0
 70
1
 66
1
  0
VERTEX
  8
0
 10
1416.3731689453125
 20
932.8896484375
 42
-1
  0
VERTEX
  8
0
 10
1392.6934814453125
 20
971.155517578125
 42
-1
  0
SEQEND
  0
POLYLINE
  8
0
 10
0
 20
0
 39
0
 70
1
 66
1
  0
VERTEX
  8
0
 10
1343.239013671875
 20
1231.6080322265625
 42
-1
  0
VERTEX
  8
0
 10
1327.45263671875
 20
1257.11865234375
 42
-1
  0
SEQEND
  0
POLYLINE
  8
0
 10
0
 20
0
 39
0
 70
1
 66
1
  0
VERTEX
  8
0
 10
766.04296875
 20
1172.8243408203125
 42
0.13957709074020386
  0
VERTEX
  8
0
 10
754.0711669921875
 20
1214.9681396484375
 42
0
  0
VERTEX
  8
0
 10
695.017333984375
 20
1310.39794921875
 42
0.87229293584823608
  0
VERTEX
  8
0
 10
604.47088623046875
 20
1270.1865234375
 42
0
  0
VERTEX
  8
0
 10
687.51593017578125
 20
983.25701904296875
 42
0.86794537305831909
  0
VERTEX
  8
0
 10
765.93902587890625
 20
994.3543701171875
 42
-0
  0
SEQEND
  0
POLYLINE
  8
0
 10
0
 20
0
 39
0
 70
1
 66
1
  0
VERTEX
  8
0
 10
636.40814208984375
 20
1300.589111328125
 42
-1
  0
VERTEX
  8
0
 10
660.0877685546875
 20
1262.3232421875
 42
-1
  0
SEQEND
  0
POLYLINE
  8
0
 10
0
 20
0
 39
0
 70
1
 66
1
  0
VERTEX
  8
0
 10
709.54229736328125
 20
1001.8707885742187
 42
-1
  0
VERTEX
  8
0
 10
725.32867431640625
 20
976.3602294921875
 42
-1
  0
SEQEND
  0
POLYLINE
  8
0
 10
0
 20
0
 39
0
 70
1
 66
1
  0
VERTEX
  8
0
 10
520.6953125
 20
1060.6544189453125
 42
0.13957709074020386
  0
VERTEX
  8
0
 10
532.6671142578125
 20
1018.5107421875
 42
0
  0
VERTEX
  8
0
 10
591.720947265625
 20
923.080810546875
 42
0.87229293584823608
  0
VERTEX
  8
0
 10
682.26739501953125
 20
963.2923583984375
 42
0
  0
VERTEX
  8
0
 10
599.22235107421875
 20
1250.2218017578125
 42
0.86794537305831909
  0
VERTEX
  8
0
 10
520.79931640625
 20
1239.12451171875
 42
-0
  0
SEQEND
  0
POLYLINE
  8
0
 10
0
 20
0
 39
0
 70
1
 66
1
  0
VERTEX
  8
0
 10
650.33013916015625
 20
932.8896484375
 42
-1
  0
VERTEX
  8
0
 10
626.6505126953125
 20
971.155517578125
 42
-1
  0
SEQEND
  0
POLYLINE
  8
0
 10
0
 20
0
 39
0
 70
1
 66
1
  0
VERTEX
  8
0
 10
577.196044921875
 20
1231.6080322265625
 42
-1
  0
VERTEX
  8
0
 10
561.40960693359375
 20
1257.11865234375
 42
-1
  0
SEQEND
  0
POLYLINE
  8
0
 10
0
 20
0
 39
0
 70
1
 66
1
  0
VERTEX
  8
0
 10
1822.0859375
 20
1045
 42
0
  0
VERTEX
  8
0
 10
1822.0859375
 20
815
 42
1
  0
VERTEX
  8
0
 10
1952.0859375
 20
815
 42
0
  0
VERTEX
  8
0
 10
1952.0859375
 20
1045
 42
1
  0
SEQEND
  0
POLYLINE
  8
0
 10
0
 20
0
 39
0
 70
1
 66
1
  0
VERTEX
  8
0
 10
1887.0859375
 20
1072.5
 42
-1
  0
VERTEX
  8
0
 10
1887.0859375
 20
1017.5
 42
-1
  0
SEQEND
  0
POLYLINE
  8
0
 10
0
 20
0
 39
0
 70
1
 66
1
  0
VERTEX
  8
0
 10
1887.0859375
 20
842.5
 42
-1
  0
VERTEX
  8
0
 10
1887.0859375
 20
787.5
 42
-1
  0
SEQEND
  0
POLYLINE
  8
0
 10
0
 20
0
 39
0
 70
1
 66
1
  0
VERTEX
  8
0
 10
510.6953125
 20
1172.8243408203125
 42
0.13957709074020386
  0
VERTEX
  8
0
 10
498.72348022460937
 20
1214.9681396484375
 42
0
  0
VERTEX
  8
0
 10
439.669677734375
 20
1310.39794921875
 42
0.87229293584823608
  0
VERTEX
  8
0
 10
349.12326049804687
 20
1270.1865234375
 42
0
  0
VERTEX
  8
0
 10
432.16830444335937
 20
983.25701904296875
 42
0.86794537305831909
  0
VERTEX
  8
0
 10
510.59133911132812
 20
994.3543701171875
 42
-0
  0
SEQEND
  0
POLYLINE
  8
0
 10
0
 20
0
 39
0
 70
1
 66
1
  0
VERTEX
  8
0
 10
381.06048583984375
 20
1300.589111328125
 42
-1
  0
VERTEX
  8
0
 10
404.7401123046875
 20
1262.3232421875
 42
-1
  0
SEQEND
  0
POLYLINE
  8
0
 10
0
 20
0
 39
0
 70
1
 66
1
  0
VERTEX
  8
0
 10
454.19461059570312
 20
1001.8707885742187
 42
-1
  0
VERTEX
  8
0
 10
469.98104858398437
 20
976.3602294921875
 42
-1
  0
SEQEND
  0
POLYLINE
  8
0
 10
0
 20
0
 39
0
 70
1
 66
1
  0
VERTEX
  8
0
 10
265.34768676757812
 20
1060.6544189453125
 42
0.13957709074020386
  0
VERTEX
  8
0
 10
277.31948852539062
 20
1018.5107421875
 42
0
  0
VERTEX
  8
0
 10
336.373291015625
 20
923.080810546875
 42
0.87229293584823608
  0
VERTEX
  8
0
 10
426.91970825195312
 20
963.2923583984375
 42
0
  0
VERTEX
  8
0
 10
343.87469482421875
 20
1250.2218017578125
 42
0.86794537305831909
  0
VERTEX
  8
0
 10
265.45162963867187
 20
1239.12451171875
 42
-0
  0
SEQEND
  0
POLYLINE
  8
0
 10
0
 20
0
 39
0
 70
1
 66
1
  0
VERTEX
  8
0
 10
394.98248291015625
 20
932.8896484375
 42
-1
  0
VERTEX
  8
0
 10
371.3028564453125
 20
971.155517578125
 42
-1
  0
SEQEND
  0
POLYLINE
  8
0
 10
0
 20
0
 39
0
 70
1
 66
1
  0
VERTEX
  8
0
 10
321.84835815429687
 20
1231.6080322265625
 42
-1
  0
VERTEX
  8
0
 10
306.06195068359375
 20
1257.11865234375
 42
-1
  0
SEQEND
  0
POLYLINE
  8
0
 10
0
 20
0
 39
0
 70
1
 66
1
  0
VERTEX
  8
0
 10
1532.0859375
 20
283.432861328125
 42
0.13957709074020386
  0
VERTEX
  8
0
 10
1520.1141357421875
 20
325.57656860351562
 42
0
  0
VERTEX
  8
0
 10
1461.060302734375
 20
421.0064697265625
 42
0.87229293584823608
  0
VERTEX
  8
0
 10
1370.513916015625
 20
380.79495239257812
 42
0
  0
VERTEX
  8
0
 10
1453.5589599609375
 20
93.865463256835938
 42
0.86794537305831909
  0
VERTEX
  8
0
 10
1531.98193359375
 20
104.96282958984375
 42
-0
  0
SEQEND
  0
POLYLINE
  8
0
 10
0
 20
0
 39
0
 70
1
 66
1
  0
VERTEX
  8
0
 10
1402.451171875
 20
411.1976318359375
 42
-1
  0
VERTEX
  8
0
 10
1426.1307373046875
 20
372.9317626953125
 42
-1
  0
SEQEND
  0
POLYLINE
  8
0
 10
0
 20
0
 39
0
 70
1
 66
1
  0
VERTEX
  8
0
 10
1475.585205078125
 20
112.47927093505859
 42
-1
  0
VERTEX
  8
0
 10
1491.3717041015625
 20
86.968704223632813
 42
-1
  0
SEQEND
  0
POLYLINE
  8
0
 10
0
 20
0
 39
0
 70
1
 66
1
  0
VERTEX
  8
0
 10
1286.73828125
 20
171.26290893554687
 42
0.13957709074020386
  0
VERTEX
  8
0
 10
1298.7100830078125
 20
129.11918640136719
 42
0
  0
VERTEX
  8
0
 10
1357.763916015625
 20
33.689304351806641
 42
0.87229293584823608
  0
VERTEX
  8
0
 10
1448.310302734375
 20
73.900810241699219
 42
0
  0
VERTEX
  8
0
 10
1365.265380859375
 20
360.83029174804687
 42
0.86794537305831909
  0
VERTEX
  8
0
 10
1286.84228515625
 20
349.73294067382812
 42
-0
  0
SEQEND
  0
POLYLINE
  8
0
 10
0
 20
0
 39
0
 70
1
 66
1
  0
VERTEX
  8
0
 10
1416.3731689453125
 20
43.498146057128906
 42
-1
  0
VERTEX
  8
0
 10
1392.6934814453125
 20
81.763992309570313
 42
-1
  0
SEQEND
  0
POLYLINE
  8
0
 10
0
 20
0
 39
0
 70
1
 66
1
  0
VERTEX
  8
0
 10
1343.239013671875
 20
342.21649169921875
 42
-1
  0
VERTEX
  8
0
 10
1327.45263671875
 20
367.72705078125
 42
-1
  0
SEQEND
  0
POLYLINE
  8
0
 10
0
 20
0
 39
0
 70
1
 66
1
  0
VERTEX
  8
0
 10
2242.0859375
 20
1415
 42
0
  0
VERTEX
  8
0
 10
2242.0859375
 20
1185
 42
1
  0
VERTEX
  8
0
 10
2372.0859375
 20
1185
 42
0
  0
VERTEX
  8
0
 10
2372.0859375
 20
1415
 42
1
  0
SEQEND
  0
POLYLINE
  8
0
 10
0
 20
0
 39
0
 70
1
 66
1
  0
VERTEX
  8
0
 10
2307.0859375
 20
1442.5
 42
-1
  0
VERTEX
  8
0
 10
2307.0859375
 20
1387.5
 42
-1
  0
SEQEND
  0
POLYLINE
  8
0
 10
0
 20
0
 39
0
 70
1
 66
1
  0
VERTEX
  8
0
 10
2307.0859375
 20
1212.5
 42
-1
  0
VERTEX
  8
0
 10
2307.0859375
 20
1157.5
 42
-1
  0
SEQEND
  0
POLYLINE
  8
0
 10
0
 20
0
 39
0
 70
1
 66
1
  0
VERTEX
  8
0
 10
255.34764099121094
 20
1172.8243408203125
 42
0.13957709074020386
  0
VERTEX
  8
0
 10
243.37583923339844
 20
1214.9681396484375
 42
0
  0
VERTEX
  8
0
 10
184.322021484375
 20
1310.39794921875
 42
0.87229293584823608
  0
VERTEX
  8
0
 10
93.775596618652344
 20
1270.1865234375
 42
0
  0
VERTEX
  8
0
 10
176.82063293457031
 20
983.25701904296875
 42
0.86794537305831909
  0
VERTEX
  8
0
 10
255.24368286132813
 20
994.3543701171875
 42
-0
  0
SEQEND
  0
POLYLINE
  8
0
 10
0
 20
0
 39
0
 70
1
 66
1
  0
VERTEX
  8
0
 10
125.71283721923828
 20
1300.589111328125
 42
-1
  0
VERTEX
  8
0
 10
149.39247131347656
 20
1262.3232421875
 42
-1
  0
SEQEND
  0
POLYLINE
  8
0
 10
0
 20
0
 39
0
 70
1
 66
1
  0
VERTEX
  8
0
 10
198.84695434570312
 20
1001.8707885742187
 42
-1
  0
VERTEX
  8
0
 10
214.63337707519531
 20
976.3602294921875
 42
-1
  0
SEQEND
  0
POLYLINE
  8
0
 10
0
 20
0
 39
0
 70
1
 66
1
  0
VERTEX
  8
0
 10
10.00001335144043
 20
1060.6544189453125
 42
0.13957709074020386
  0
VERTEX
  8
0
 10
21.971824645996094
 20
1018.5107421875
 42
0
  0
VERTEX
  8
0
 10
81.025634765625
 20
923.080810546875
 42
0.87229293584823608
  0
VERTEX
  8
0
 10
171.57206726074219
 20
963.2923583984375
 42
0
  0
VERTEX
  8
0
 10
88.527023315429687
 20
1250.2218017578125
 42
0.86794537305831909
  0
VERTEX
  8
0
 10
10.103981018066406
 20
1239.12451171875
 42
-0
  0
SEQEND
  0
POLYLINE
  8
0
 10
0
 20
0
 39
0
 70
1
 66
1
  0
VERTEX
  8
0
 10
139.63482666015625
 20
932.8896484375
 42
-1
  0
VERTEX
  8
0
 10
115.95519256591797
 20
971.155517578125
 42
-1
  0
SEQEND
  0
POLYLINE
  8
0
 10
0
 20
0
 39
0
 70
1
 66
1
  0
VERTEX
  8
0
 10
66.500701904296875
 20
1231.6080322265625
 42
-1
  0
VERTEX
  8
0
 10
50.714286804199219
 20
1257.11865234375
 42
-1
  0
SEQEND
  0
POLYLINE
  8
0
 10
0
 20
0
 39
0
 70
1
 66
1
  0
VERTEX
  8
0
 10
255.34764099121094
 20
728.12860107421875
 42
0.13957709074020386
  0
VERTEX
  8
0
 10
243.37583923339844
 20
770.2723388671875
 42
0
  0
VERTEX
  8
0
 10
184.322021484375
 20
865.70220947265625
 42
0.87229293584823608
  0
VERTEX
  8
0
 10
93.775596618652344
 20
825.49072265625
 42
0
  0
VERTEX
  8
0
 10
176.82063293457031
 20
538.56121826171875
 42
0.86794537305831909
  0
VERTEX
  8
0
 10
255.24368286132813
 20
549.6585693359375
 42
-0
  0
SEQEND
  0
POLYLINE
  8
0
 10
0
 20
0
 39
0
 70
1
 66
1
  0
VERTEX
  8
0
 10
125.71283721923828
 20
855.89337158203125
 42
-1
  0
VERTEX
  8
0
 10
149.39247131347656
 20
817.6275634765625
 42
-1
  0
SEQEND
  0
POLYLINE
  8
0
 10
0
 20
0
 39
0
 70
1
 66
1
  0
VERTEX
  8
0
 10
198.84695434570312
 20
557.175048828125
 42
-1
  0
VERTEX
  8
0
 10
214.63337707519531
 20
531.66448974609375
 42
-1
  0
SEQEND
  0
POLYLINE
  8
0
 10
0
 20
0
 39
0
 70
1
 66
1
  0
VERTEX
  8
0
 10
10.00001335144043
 20
615.95867919921875
 42
0.13957709074020386
  0
VERTEX
  8
0
 10
21.971824645996094
 20
573.81494140625
 42
0
  0
VERTEX
  8
0
 10
81.025634765625
 20
478.38507080078125
 42
0.87229293584823608
  0
VERTEX
  8
0
 10
171.57206726074219
 20
518.5965576171875
 42
0
  0
VERTEX
  8
0
 10
88.527023315429687
 20
805.52606201171875
 42
0.86794537305831909
  0
VERTEX
  8
0
 10
10.103981018066406
 20
794.4287109375
 42
-0
  0
SEQEND
  0
POLYLINE
  8
0
 10
0
 20
0
 39
0
 70
1
 66
1
  0
VERTEX
  8
0
 10
139.63482666015625
 20
488.19390869140625
 42
-1
  0
VERTEX
  8
0
 10
115.95519256591797
 20
526.45977783203125
 42
-1
  0
SEQEND
  0
POLYLINE
  8
0
 10
0
 20
0
 39
0
 70
1
 66
1
  0
VERTEX
  8
0
 10
66.500701904296875
 20
786.9122314453125
 42
-1
  0
VERTEX
  8
0
 10
50.714286804199219
 20
812.4228515625
 42
-1
  0
SEQEND
  0
POLYLINE
  8
0
 10
0
 20
0
 39
0
 70
1
 66
1
  0
VERTEX
  8
0
 10
510.6953125
 20
728.12860107421875
 42
0.13957709074020386
  0
VERTEX
  8
0
 10
498.72348022460937
 20
770.2723388671875
 42
0
  0
VERTEX
  8
0
 10
439.669677734375
 20
865.70220947265625
 42
0.87229293584823608
  0
VERTEX
  8
0
 10
349.12326049804687
 20
825.49072265625
 42
0
  0
VERTEX
  8
0
 10
432.16830444335937
 20
538.56121826171875
 42
0.86794537305831909
  0
VERTEX
  8
0
 10
510.59133911132812
 20
549.6585693359375
 42
-0
  0
SEQEND
  0
POLYLINE
  8
0
 10
0
 20
0
 39
0
 70
1
 66
1
  0
VERTEX
  8
0
 10
381.06048583984375
 20
855.89337158203125
 42
-1
  0
VERTEX
  8
0
 10
404.7401123046875
 20
817.6275634765625
 42
-1
  0
SEQEND
  0
POLYLINE
  8
0
 10
0
 20
0
 39
0
 70
1
 66
1
  0
VERTEX
  8
0
 10
454.19461059570312
 20
557.175048828125
 42
-1
  0
VERTEX
  8
0
 10
469.98104858398437
 20
531.66448974609375
 42
-1
  0
SEQEND
  0
POLYLINE
  8
0
 10
0
 20
0
 39
0
 70
1
 66
1
  0
VERTEX
  8
0
 10
265.34768676757812
 20
615.95867919921875
 42
0.13957709074020386
  0
VERTEX
  8
0
 10
277.31948852539062
 20
573.81494140625
 42
0
  0
VERTEX
  8
0
 10
336.373291015625
 20
478.38507080078125
 42
0.87229293584823608
  0
VERTEX
  8
0
 10
426.91970825195312
 20
518.5965576171875
 42
0
  0
VERTEX
  8
0
 10
343.87469482421875
 20
805.52606201171875
 42
0.86794537305831909
  0
VERTEX
  8
0
 10
265.45162963867187
 20
794.4287109375
 42
-0
  0
SEQEND
  0
POLYLINE
  8
0
 10
0
 20
0
 39
0
 70
1
 66
1
  0
VERTEX
  8
0
 10
394.98248291015625
 20
488.19390869140625
 42
-1
  0
VERTEX
  8
0
 10
371.3028564453125
 20
526.45977783203125
 42
-1
  0
SEQEND
  0
POLYLINE
  8
0
 10
0
 20
0
 39
0
 70
1
 66
1
  0
VERTEX
  8
0
 10
321.84835815429687
 20
786.9122314453125
 42
-1
  0
VERTEX
  8
0
 10
306.06195068359375
 20
812.4228515625
 42
-1
  0
SEQEND
  0
POLYLINE
  8
0
 10
0
 20
0
 39
0
 70
1
 66
1
  0
VERTEX
  8
0
 10
1021.390625
 20
283.432861328125
 42
0.13957709074020386
  0
VERTEX
  8
0
 10
1009.4188232421875
 20
325.57656860351562
 42
0
  0
VERTEX
  8
0
 10
950.364990234375
 20
421.0064697265625
 42
0.87229293584823608
  0
VERTEX
  8
0
 10
859.818603515625
 20
380.79495239257812
 42
0
  0
VERTEX
  8
0
 10
942.86358642578125
 20
93.865463256835938
 42
0.86794537305831909
  0
VERTEX
  8
0
 10
1021.2866821289062
 20
104.96282958984375
 42
-0
  0
SEQEND
  0
POLYLINE
  8
0
 10
0
 20
0
 39
0
 70
1
 66
1
  0
VERTEX
  8
0
 10
891.75579833984375
 20
411.1976318359375
 42
-1
  0
VERTEX
  8
0
 10
915.4354248046875
 20
372.9317626953125
 42
-1
  0
SEQEND
  0
POLYLINE
  8
0
 10
0
 20
0
 39
0
 70
1
 66
1
  0
VERTEX
  8
0
 10
964.88995361328125
 20
112.47927093505859
 42
-1
  0
VERTEX
  8
0
 10
980.67633056640625
 20
86.968704223632813
 42
-1
  0
SEQEND
  0
POLYLINE
  8
0
 10
0
 20
0
 39
0
 70
1
 66
1
  0
VERTEX
  8
0
 10
776.04296875
 20
171.26290893554687
 42
0.13957709074020386
  0
VERTEX
  8
0
 10
788.01483154296875
 20
129.11918640136719
 42
0
  0
VERTEX
  8
0
 10
847.068603515625
 20
33.689304351806641
 42
0.87229293584823608
  0
VERTEX
  8
0
 10
937.61505126953125
 20
73.900810241699219
 42
0
  0
VERTEX
  8
0
 10
854.57000732421875
 20
360.83029174804687
 42
0.86794537305831909
  0
VERTEX
  8
0
 10
776.14697265625
 20
349.73294067382812
 42
-0
  0
SEQEND
  0
POLYLINE
  8
0
 10
0
 20
0
 39
0
 70
1
 66
1
  0
VERTEX
  8
0
 10
905.67779541015625
 20
43.498146057128906
 42
-1
  0
VERTEX
  8
0
 10
881.9981689453125
 20
81.763992309570313
 42
-1
  0
SEQEND
  0
POLYLINE
  8
0
 10
0
 20
0
 39
0
 70
1
 66
1
  0
VERTEX
  8
0
 10
832.543701171875
 20
342.21649169921875
 42
-1
  0
VERTEX
  8
0
 10
816.75726318359375
 20
367.72705078125
 42
-1
  0
SEQEND
  0
POLYLINE
  8
0
 10
0
 20
0
 39
0
 70
1
 66
1
  0
VERTEX
  8
0
 10
1021.390625
 20
728.12860107421875
 42
0.13957709074020386
  0
VERTEX
  8
0
 10
1009.4188232421875
 20
770.2723388671875
 42
0
  0
VERTEX
  8
0
 10
950.364990234375
 20
865.70220947265625
 42
0.87229293584823608
  0
VERTEX
  8
0
 10
859.818603515625
 20
825.49072265625
 42
0
  0
VERTEX
  8
0
 10
942.86358642578125
 20
538.56121826171875
 42
0.86794537305831909
  0
VERTEX
  8
0
 10
1021.2866821289062
 20
549.6585693359375
 42
-0
  0
SEQEND
  0
POLYLINE
  8
0
 10
0
 20
0
 39
0
 70
1
 66
1
  0
VERTEX
  8
0
 10
891.75579833984375
 20
855.89337158203125
 42
-1
  0
VERTEX
  8
0
 10
915.4354248046875
 20
817.6275634765625
 42
-1
  0
SEQEND
  0
POLYLINE
  8
0
 10
0
 20
0
 39
0
 70
1
 66
1
  0
VERTEX
  8
0
 10
964.88995361328125
 20
557.175048828125
 42
-1
  0
VERTEX
  8
0
 10
980.67633056640625
 20
531.66448974609375
 42
-1
  0
SEQEND
  0
POLYLINE
  8
0
 10
0
 20
0
 39
0
 70
1
 66
1
  0
VERTEX
  8
0
 10
776.04296875
 20
615.95867919921875
 42
0.13957709074020386
  0
VERTEX
  8
0
 10
788.01483154296875
 20
573.81494140625
 42
0
  0
VERTEX
  8
0
 10
847.068603515625
 20
478.38507080078125
 42
0.87229293584823608
  0
VERTEX
  8
0
 10
937.61505126953125
 20
518.5965576171875
 42
0
  0
VERTEX
  8
0
 10
854.57000732421875
 20
805.52606201171875
 42
0.86794537305831909
  0
VERTEX
  8
0
 10
776.14697265625
 20
794.4287109375
 42
-0
  0
SEQEND
  0
POLYLINE
  8
0
 10
0
 20
0
 39
0
 70
1
 66
1
  0
VERTEX
  8
0
 10
905.67779541015625
 20
488.19390869140625
 42
-1
  0
VERTEX
  8
0
 10
881.9981689453125
 20
526.45977783203125
 42
-1
  0
SEQEND
  0
POLYLINE
  8
0
 10
0
 20
0
 39
0
 70
1
 66
1
  0
VERTEX
  8
0
 10
832.543701171875
 20
786.9122314453125
 42
-1
  0
VERTEX
  8
0
 10
816.75726318359375
 20
812.4228515625
 42
-1
  0
SEQEND
  0
POLYLINE
  8
0
 10
0
 20
0
 39
0
 70
1
 66
1
  0
VERTEX
  8
0
 10
766.04296875
 20
728.12860107421875
 42
0.13957709074020386
  0
VERTEX
  8
0
 10
754.0711669921875
 20
770.2723388671875
 42
0
  0
VERTEX
  8
0
 10
695.017333984375
 20
865.70220947265625
 42
0.87229293584823608
  0
VERTEX
  8
0
 10
604.47088623046875
 20
825.49072265625
 42
0
  0
VERTEX
  8
0
 10
687.51593017578125
 20
538.56121826171875
 42
0.86794537305831909
  0
VERTEX
  8
0
 10
765.93902587890625
 20
549.6585693359375
 42
-0
  0
SEQEND
  0
POLYLINE
  8
0
 10
0
 20
0
 39
0
 70
1
 66
1
  0
VERTEX
  8
0
 10
636.40814208984375
 20
855.89337158203125
 42
-1
  0
VERTEX
  8
0
 10
660.0877685546875
 20
817.6275634765625
 42
-1
  0
SEQEND
  0
POLYLINE
  8
0
 10
0
 20
0
 39
0
 70
1
 66
1
  0
VERTEX
  8
0
 10
709.54229736328125
 20
557.175048828125
 42
-1
  0
VERTEX
  8
0
 10
725.32867431640625
 20
531.66448974609375
 42
-1
  0
SEQEND
  0
POLYLINE
  8
0
 10
0
 20
0
 39
0
 70
1
 66
1
  0
VERTEX
  8
0
 10
520.6953125
 20
615.95867919921875
 42
0.13957709074020386
  0
VERTEX
  8
0
 10
532.6671142578125
 20
573.81494140625
 42
0
  0
VERTEX
  8
0
 10
591.720947265625
 20
478.38507080078125
 42
0.87229293584823608
  0
VERTEX
  8
0
 10
682.26739501953125
 20
518.5965576171875
 42
0
  0
VERTEX
  8
0
 10
599.22235107421875
 20
805.52606201171875
 42
0.86794537305831909
  0
VERTEX
  8
0
 10
520.79931640625
 20
794.4287109375
 42
-0
  0
SEQEND
  0
POLYLINE
  8
0
 10
0
 20
0
 39
0
 70
1
 66
1
  0
VERTEX
  8
0
 10
650.33013916015625
 20
488.19390869140625
 42
-1
  0
VERTEX
  8
0
 10
626.6505126953125
 20
526.45977783203125
 42
-1
  0
SEQEND
  0
POLYLINE
  8
0
 10
0
 20
0
 39
0
 70
1
 66
1
  0
VERTEX
  8
0
 10
577.196044921875
 20
786.9122314453125
 42
-1
  0
VERTEX
  8
0
 10
561.40960693359375
 20
812.4228515625
 42
-1
  0
SEQEND
  0
POLYLINE
  8
0
 10
0
 20
0
 39
0
 70
1
 66
1
  0
VERTEX
  8
0
 10
1276.73828125
 20
728.12860107421875
 42
0.13957709074020386
  0
VERTEX
  8
0
 10
1264.7664794921875
 20
770.2723388671875
 42
0
  0
VERTEX
  8
0
 10
1205.712646484375
 20
865.70220947265625
 42
0.87229293584823608
  0
VERTEX
  8
0
 10
1115.166259765625
 20
825.49072265625
 42
0
  0
VERTEX
  8
0
 10
1198.2113037109375
 20
538.56121826171875
 42
0.86794537305831909
  0
VERTEX
  8
0
 10
1276.63427734375
 20
549.6585693359375
 42
-0
  0
SEQEND
  0
POLYLINE
  8
0
 10
0
 20
0
 39
0
 70
1
 66
1
  0
VERTEX
  8
0
 10
1147.103515625
 20
855.89337158203125
 42
-1
  0
VERTEX
  8
0
 10
1170.7830810546875
 20
817.6275634765625
 42
-1
  0
SEQEND
  0
POLYLINE
  8
0
 10
0
 20
0
 39
0
 70
1
 66
1
  0
VERTEX
  8
0
 10
1220.237548828125
 20
557.175048828125
 42
-1
  0
VERTEX
  8
0
 10
1236.0240478515625
 20
531.66448974609375
 42
-1
  0
SEQEND
  0
POLYLINE
  8
0
 10
0
 20
0
 39
0
 70
1
 66
1
  0
VERTEX
  8
0
 10
1031.390625
 20
615.95867919921875
 42
0.13957709074020386
  0
VERTEX
  8
0
 10
1043.3624267578125
 20
573.81494140625
 42
0
  0
VERTEX
  8
0
 10
1102.416259765625
 20
478.38507080078125
 42
0.87229293584823608
  0
VERTEX
  8
0
 10
1192.962646484375
 20
518.5965576171875
 42
0
  0
VERTEX
  8
0
 10
1109.9176025390625
 20
805.52606201171875
 42
0.86794537305831909
  0
VERTEX
  8
0
 10
1031.49462890625
 20
794.4287109375
 42
-0
  0
SEQEND
  0
POLYLINE
  8
0
 10
0
 20
0
 39
0
 70
1
 66
1
  0
VERTEX
  8
0
 10
1161.0255126953125
 20
488.19390869140625
 42
-1
  0
VERTEX
  8
0
 10
1137.3458251953125
 20
526.45977783203125
 42
-1
  0
SEQEND
  0
POLYLINE
  8
0
 10
0
 20
0
 39
0
 70
1
 66
1
  0
VERTEX
  8
0
 10
1087.891357421875
 20
786.9122314453125
 42
-1
  0
VERTEX
  8
0
 10
1072.10498046875
 20
812.4228515625
 42
-1
  0
SEQEND
  0
POLYLINE
  8
0
 10
0
 20
0
 39
0
 70
1
 66
1
  0
VERTEX
  8
0
 10
1276.73828125
 20
1172.8243408203125
 42
0.13957709074020386
  0
VERTEX
  8
0
 10
1264.7664794921875
 20
1214.9681396484375
 42
0
  0
VERTEX
  8
0
 10
1205.712646484375
 20
1310.39794921875
 42
0.87229293584823608
  0
VERTEX
  8
0
 10
1115.166259765625
 20
1270.1865234375
 42
0
  0
VERTEX
  8
0
 10
1198.2113037109375
 20
983.25701904296875
 42
0.86794537305831909
  0
VERTEX
  8
0
 10
1276.63427734375
 20
994.3543701171875
 42
-0
  0
SEQEND
  0
POLYLINE
  8
0
 10
0
 20
0
 39
0
 70
1
 66
1
  0
VERTEX
  8
0
 10
1147.103515625
 20
1300.589111328125
 42
-1
  0
VERTEX
  8
0
 10
1170.7830810546875
 20
1262.3232421875
 42
-1
  0
SEQEND
  0
POLYLINE
  8
0
 10
0
 20
0
 39
0
 70
1
 66
1
  0
VERTEX
  8
0
 10
1220.237548828125
 20
1001.8707885742187
 42
-1
  0
VERTEX
  8
0
 10
1236.0240478515625
 20
976.3602294921875
 42
-1
  0
SEQEND
  0
POLYLINE
  8
0
 10
0
 20
0
 39
0
 70
1
 66
1
  0
VERTEX
  8
0
 10
1031.390625
 20
1060.6544189453125
 42
0.13957709074020386
  0
VERTEX
  8
0
 10
1043.3624267578125
 20
1018.5107421875
 42
0
  0
VERTEX
  8
0
 10
1102.416259765625
 20
923.080810546875
 42
0.87229293584823608
  0
VERTEX
  8
0
 10
1192.962646484375
 20
963.2923583984375
 42
0
  0
VERTEX
  8
0
 10
1109.9176025390625
 20
1250.2218017578125
 42
0.86794537305831909
  0
VERTEX
  8
0
 10
1031.49462890625
 20
1239.12451171875
 42
-0
  0
SEQEND
  0
POLYLINE
  8
0
 10
0
 20
0
 39
0
 70
1
 66
1
  0
VERTEX
  8
0
 10
1161.0255126953125
 20
932.8896484375
 42
-1
  0
VERTEX
  8
0
 10
1137.3458251953125
 20
971.155517578125
 42
-1
  0
SEQEND
  0
POLYLINE
  8
0
 10
0
 20
0
 39
0
 70
1
 66
1
  0
VERTEX
  8
0
 10
1087.891357421875
 20
1231.6080322265625
 42
-1
  0
VERTEX
  8
0
 10
1072.10498046875
 20
1257.11865234375
 42
-1
  0
SEQEND
  0
POLYLINE
  8
0
 10
0
 20
0
 39
0
 70
1
 66
1
  0
VERTEX
  8
0
 10
766.04296875
 20
283.432861328125
 42
0.13957709074020386
  0
VERTEX
  8
0
 10
754.0711669921875
 20
325.57656860351562
 42
0
  0
VERTEX
  8
0
 10
695.017333984375
 20
421.0064697265625
 42
0.87229293584823608
  0
VERTEX
  8
0
 10
604.47088623046875
 20
380.79495239257812
 42
0
  0
VERTEX
  8
0
 10
687.51593017578125
 20
93.865463256835938
 42
0.86794537305831909
  0
VERTEX
  8
0
 10
765.93902587890625
 20
104.96282958984375
 42
-0
  0
SEQEND
  0
POLYLINE
  8
0
 10
0
 20
0
 39
0
 70
1
 66
1
  0
VERTEX
  8
0
 10
636.40814208984375
 20
411.1976318359375
 42
-1
  0
VERTEX
  8
0
 10
660.0877685546875
 20
372.9317626953125
 42
-1
  0
SEQEND
  0
POLYLINE
  8
0
 10
0
 20
0
 39
0
 70
1
 66
1
  0
VERTEX
  8
0
 10
709.54229736328125
 20
112.47927093505859
 42
-1
  0
VERTEX
  8
0
 10
725.32867431640625
 20
86.968704223632813
 42
-1
  0
SEQEND
  0
POLYLINE
  8
0
 10
0
 20
0
 39
0
 70
1
 66
1
  0
VERTEX
  8
0
 10
520.6953125
 20
171.26290893554687
 42
0.13957709074020386
  0
VERTEX
  8
0
 10
532.6671142578125
 20
129.11918640136719
 42
0
  0
VERTEX
  8
0
 10
591.720947265625
 20
33.689304351806641
 42
0.87229293584823608
  0
VERTEX
  8
0
 10
682.26739501953125
 20
73.900810241699219
 42
0
  0
VERTEX
  8
0
 10
599.22235107421875
 20
360.83029174804687
 42
0.86794537305831909
  0
VERTEX
  8
0
 10
520.79931640625
 20
349.73294067382812
 42
-0
  0
SEQEND
  0
POLYLINE
  8
0
 10
0
 20
0
 39
0
 70
1
 66
1
  0
VERTEX
  8
0
 10
650.33013916015625
 20
43.498146057128906
 42
-1
  0
VERTEX
  8
0
 10
626.6505126953125
 20
81.763992309570313
 42
-1
  0
SEQEND
  0
POLYLINE
  8
0
 10
0
 20
0
 39
0
 70
1
 66
1
  0
VERTEX
  8
0
 10
577.196044921875
 20
342.21649169921875
 42
-1
  0
VERTEX
  8
0
 10
561.40960693359375
 20
367.72705078125
 42
-1
  0
SEQEND
  0
POLYLINE
  8
0
 10
0
 20
0
 39
0
 70
1
 66
1
  0
VERTEX
  8
0
 10
1276.73828125
 20
283.432861328125
 42
0.13957709074020386
  0
VERTEX
  8
0
 10
1264.7664794921875
 20
325.57656860351562
 42
0
  0
VERTEX
  8
0
 10
1205.712646484375
 20
421.0064697265625
 42
0.87229293584823608
  0
VERTEX
  8
0
 10
1115.166259765625
 20
380.79495239257812
 42
0
  0
VERTEX
  8
0
 10
1198.2113037109375
 20
93.865463256835938
 42
0.86794537305831909
  0
VERTEX
  8
0
 10
1276.63427734375
 20
104.96282958984375
 42
-0
  0
SEQEND
  0
POLYLINE
  8
0
 10
0
 20
0
 39
0
 70
1
 66
1
  0
VERTEX
  8
0
 10
1147.103515625
 20
411.1976318359375
 42
-1
  0
VERTEX
  8
0
 10
1170.7830810546875
 20
372.9317626953125
 42
-1
  0
SEQEND
  0
POLYLINE
  8
0
 10
0
 20
0
 39
0
 70
1
 66
1
  0
VERTEX
  8
0
 10
1220.237548828125
 20
112.47927093505859
 42
-1
  0
VERTEX
  8
0
 10
1236.0240478515625
 20
86.968704223632813
 42
-1
  0
SEQEND
  0
POLYLINE
  8
0
 10
0
 20
0
 39
0
 70
1
 66
1
  0
VERTEX
  8
0
 10
1031.390625
 20
171.26290893554687
 42
0.13957709074020386
  0
VERTEX
  8
0
 10
1043.3624267578125
 20
129.11918640136719
 42
0
  0
VERTEX
  8
0
 10
1102.416259765625
 20
33.689304351806641
 42
0.87229293584823608
  0
VERTEX
  8
0
 10
1192.962646484375
 20
73.900810241699219
 42
0
  0
VERTEX
  8
0
 10
1109.9176025390625
 20
360.83029174804687
 42
0.86794537305831909
  0
VERTEX
  8
0
 10
1031.49462890625
 20
349.73294067382812
 42
-0
  0
SEQEND
  0
POLYLINE
  8
0
 10
0
 20
0
 39
0
 70
1
 66
1
  0
VERTEX
  8
0
 10
1161.0255126953125
 20
43.498146057128906
 42
-1
  0
VERTEX
  8
0
 10
1137.3458251953125
 20
81.763992309570313
 42
-1
  0
SEQEND
  0
POLYLINE
  8
0
 10
0
 20
0
 39
0
 70
1
 66
1
  0
VERTEX
  8
0
 10
1087.891357421875
 20
342.21649169921875
 42
-1
  0
VERTEX
  8
0
 10
1072.10498046875
 20
367.72705078125
 42
-1
  0
SEQEND
  0
POLYLINE
  8
0
 10
0
 20
0
 39
0
 70
1
 66
1
  0
VERTEX
  8
0
 10
1021.390625
 20
1172.8243408203125
 42
0.13957709074020386
  0
VERTEX
  8
0
 10
1009.4188232421875
 20
1214.9681396484375
 42
0
  0
VERTEX
  8
0
 10
950.364990234375
 20
1310.39794921875
 42
0.87229293584823608
  0
VERTEX
  8
0
 10
859.818603515625
 20
1270.1865234375
 42
0
  0
VERTEX
  8
0
 10
942.86358642578125
 20
983.25701904296875
 42
0.86794537305831909
  0
VERTEX
  8
0
 10
1021.2866821289062
 20
994.3543701171875
 42
-0
  0
SEQEND
  0
POLYLINE
  8
0
 10
0
 20
0
 39
0
 70
1
 66
1
  0
VERTEX
  8
0
 10
891.75579833984375
 20
1300.589111328125
 42
-1
  0
VERTEX
  8
0
 10
915.4354248046875
 20
1262.3232421875
 42
-1
  0
SEQEND
  0
POLYLINE
  8
0
 10
0
 20
0
 39
0
 70
1
 66
1
  0
VERTEX
  8
0
 10
964.88995361328125
 20
1001.8707885742187
 42
-1
  0
VERTEX
  8
0
 10
980.67633056640625
 20
976.3602294921875
 42
-1
  0
SEQEND
  0
POLYLINE
  8
0
 10
0
 20
0
 39
0
 70
1
 66
1
  0
VERTEX
  8
0
 10
776.04296875
 20
1060.6544189453125
 42
0.13957709074020386
  0
VERTEX
  8
0
 10
788.01483154296875
 20
1018.5107421875
 42
0
  0
VERTEX
  8
0
 10
847.068603515625
 20
923.080810546875
 42
0.87229293584823608
  0
VERTEX
  8
0
 10
937.61505126953125
 20
963.2923583984375
 42
0
  0
VERTEX
  8
0
 10
854.57000732421875
 20
1250.2218017578125
 42
0.86794537305831909
  0
VERTEX
  8
0
 10
776.14697265625
 20
1239.12451171875
 42
-0
  0
SEQEND
  0
POLYLINE
  8
0
 10
0
 20
0
 39
0
 70
1
 66
1
  0
VERTEX
  8
0
 10
905.67779541015625
 20
932.8896484375
 42
-1
  0
VERTEX
  8
0
 10
881.9981689453125
 20
971.155517578125
 42
-1
  0
SEQEND
  0
POLYLINE
  8
0
 10
0
 20
0
 39
0
 70
1
 66
1
  0
VERTEX
  8
0
 10
832.543701171875
 20
1231.6080322265625
 42
-1
  0
VERTEX
  8
0
 10
816.75726318359375
 20
1257.11865234375
 42
-1
  0
SEQEND
  0
ENDSEC
  0
EOF
