  0
SECTION
  2
ENTITIES
  0
POLYLINE
  8
0
 10
0
 20
0
 39
0
 70
1
 66
1
  0
VERTEX
  8
0
 10
0
 20
0
 42
0
  0
VERTEX
  8
0
 10
2000
 20
0
 42
0
  0
VERTEX
  8
0
 10
2000
 20
900
 42
0
  0
VERTEX
  8
0
 10
0
 20
900
 42
0
  0
SEQEND
  0
POLYLINE
  8
0
 10
0
 20
0
 39
0
 70
1
 66
1
  0
VERTEX
  8
0
 10
10.399999618530273
 20
510.39999389648437
 42
0
  0
VERTEX
  8
0
 10
10.399999618530273
 20
10.399999618530273
 42
0
  0
VERTEX
  8
0
 10
1010.4000244140625
 20
10.399999618530273
 42
0
  0
VERTEX
  8
0
 10
1010.4000244140625
 20
510.39999389648437
 42
0
  0
SEQEND
  0
POLYLINE
  8
0
 10
0
 20
0
 39
0
 70
1
 66
1
  0
VERTEX
  8
0
 10
667.4000244140625
 20
260.39999389648437
 42
-1
  0
VERTEX
  8
0
 10
353.39999389648438
 20
260.39999389648437
 42
-1
  0
SEQEND
  0
POLYLINE
  8
0
 10
0
 20
0
 39
0
 70
1
 66
1
  0
VERTEX
  8
0
 10
910.4000244140625
 20
363.39999389648437
 42
-0
  0
VERTEX
  8
0
 10
910.4000244140625
 20
133.39999389648437
 42
-0
  0
VERTEX
  8
0
 10
760.4000244140625
 20
133.39999389648437
 42
0
  0
VERTEX
  8
0
 10
760.4000244140625
 20
363.39999389648437
 42
0
  0
SEQEND
  0
POLYLINE
  8
0
 10
0
 20
0
 39
0
 70
1
 66
1
  0
VERTEX
  8
0
 10
110.40000152587891
 20
363.39999389648437
 42
-0
  0
VERTEX
  8
0
 10
260.39999389648437
 20
363.39999389648437
 42
-0
  0
VERTEX
  8
0
 10
260.39999389648437
 20
133.39999389648437
 42
0
  0
VERTEX
  8
0
 10
110.40000152587891
 20
133.39999389648437
 42
0
  0
SEQEND
  0
POLYLINE
  8
0
 10
0
 20
0
 39
0
 70
1
 66
1
  0
VERTEX
  8
0
 10
1121.47265625
 20
889.798095703125
 42
1
  0
VERTEX
  8
0
 10
1119.727294921875
 20
489.80191040039062
 42
1
  0
SEQEND
  0
POLYLINE
  8
0
 10
0
 20
0
 39
0
 70
1
 66
1
  0
VERTEX
  8
0
 10
1121.2806396484375
 20
845.79852294921875
 42
-1
  0
VERTEX
  8
0
 10
1119.9193115234375
 20
533.801513671875
 42
-1
  0
SEQEND
  0
POLYLINE
  8
0
 10
0
 20
0
 39
0
 70
1
 66
1
  0
VERTEX
  8
0
 10
1221.672607421875
 20
410.39810180664062
 42
1
  0
VERTEX
  8
0
 10
1219.9273681640625
 20
10.401904106140137
 42
1
  0
SEQEND
  0
POLYLINE
  8
0
 10
0
 20
0
 39
0
 70
1
 66
1
  0
VERTEX
  8
0
 10
1221.480712890625
 20
366.39849853515625
 42
-1
  0
VERTEX
  8
0
 10
1220.1192626953125
 20
54.401485443115234
 42
-1
  0
SEQEND
  0
POLYLINE
  8
0
 10
0
 20
0
 39
0
 70
1
 66
1
  0
VERTEX
  8
0
 10
1494.0726318359375
 20
717.3980712890625
 42
1
  0
VERTEX
  8
0
 10
1492.327392578125
 20
317.40191650390625
 42
1
  0
SEQEND
  0
POLYLINE
  8
0
 10
0
 20
0
 39
0
 70
1
 66
1
  0
VERTEX
  8
0
 10
1493.880615234375
 20
673.39849853515625
 42
-1
  0
VERTEX
  8
0
 10
1492.519287109375
 20
361.4014892578125
 42
-1
  0
SEQEND
  0
POLYLINE
  8
0
 10
0
 20
0
 39
0
 70
1
 66
1
  0
VERTEX
  8
0
 10
10.399999618530273
 20
520.5999755859375
 42
-0
  0
VERTEX
  8
0
 10
140.39999389648437
 20
520.5999755859375
 42
-0
  0
VERTEX
  8
0
 10
140.39999389648437
 20
713.5999755859375
 42
-0.41421356797218323
  0
VERTEX
  8
0
 10
73.400001525878906
 20
780.5999755859375
 42
0
  0
VERTEX
  8
0
 10
10.399999618530273
 20
780.5999755859375
 42
0
  0
SEQEND
  0
POLYLINE
  8
0
 10
0
 20
0
 39
0
 70
1
 66
1
  0
VERTEX
  8
0
 10
37.665836334228516
 20
540.27880859375
 42
-1
  0
VERTEX
  8
0
 10
37.665836334228516
 20
564.27880859375
 42
-1
  0
SEQEND
  0
POLYLINE
  8
0
 10
0
 20
0
 39
0
 70
1
 66
1
  0
VERTEX
  8
0
 10
150.80000305175781
 20
520.5999755859375
 42
-0
  0
VERTEX
  8
0
 10
280.79998779296875
 20
520.5999755859375
 42
-0
  0
VERTEX
  8
0
 10
280.79998779296875
 20
713.5999755859375
 42
-0.41421356797218323
  0
VERTEX
  8
0
 10
213.80000305175781
 20
780.5999755859375
 42
0
  0
VERTEX
  8
0
 10
150.80000305175781
 20
780.5999755859375
 42
0
  0
SEQEND
  0
POLYLINE
  8
0
 10
0
 20
0
 39
0
 70
1
 66
1
  0
VERTEX
  8
0
 10
178.06584167480469
 20
540.27880859375
 42
-1
  0
VERTEX
  8
0
 10
178.06584167480469
 20
564.27880859375
 42
-1
  0
SEQEND
  0
POLYLINE
  8
0
 10
0
 20
0
 39
0
 70
1
 66
1
  0
VERTEX
  8
0
 10
291.20001220703125
 20
520.5999755859375
 42
-0
  0
VERTEX
  8
0
 10
421.20001220703125
 20
520.5999755859375
 42
-0
  0
VERTEX
  8
0
 10
421.20001220703125
 20
713.5999755859375
 42
-0.41421356797218323
  0
VERTEX
  8
0
 10
354.20001220703125
 20
780.5999755859375
 42
0
  0
VERTEX
  8
0
 10
291.20001220703125
 20
780.5999755859375
 42
0
  0
SEQEND
  0
POLYLINE
  8
0
 10
0
 20
0
 39
0
 70
1
 66
1
  0
VERTEX
  8
0
 10
318.46585083007812
 20
540.27880859375
 42
-1
  0
VERTEX
  8
0
 10
318.46585083007812
 20
564.27880859375
 42
-1
  0
SEQEND
  0
POLYLINE
  8
0
 10
0
 20
0
 39
0
 70
1
 66
1
  0
VERTEX
  8
0
 10
559.4000244140625
 20
382.39999389648437
 42
-0
  0
VERTEX
  8
0
 10
429.39999389648437
 20
382.39999389648437
 42
-0
  0
VERTEX
  8
0
 10
429.39999389648437
 20
189.39999389648437
 42
-0.41421356797218323
  0
VERTEX
  8
0
 10
496.39999389648437
 20
122.40000152587891
 42
0
  0
VERTEX
  8
0
 10
559.4000244140625
 20
122.40000152587891
 42
0
  0
SEQEND
  0
POLYLINE
  8
0
 10
0
 20
0
 39
0
 70
1
 66
1
  0
VERTEX
  8
0
 10
532.1341552734375
 20
362.72116088867187
 42
-1
  0
VERTEX
  8
0
 10
532.1341552734375
 20
338.72116088867187
 42
-1
  0
SEQEND
  0
POLYLINE
  8
0
 10
0
 20
0
 39
0
 70
1
 66
1
  0
VERTEX
  8
0
 10
431.60000610351562
 20
520.5999755859375
 42
-0
  0
VERTEX
  8
0
 10
561.5999755859375
 20
520.5999755859375
 42
-0
  0
VERTEX
  8
0
 10
561.5999755859375
 20
713.5999755859375
 42
-0.41421356797218323
  0
VERTEX
  8
0
 10
494.60000610351562
 20
780.5999755859375
 42
0
  0
VERTEX
  8
0
 10
431.60000610351562
 20
780.5999755859375
 42
0
  0
SEQEND
  0
POLYLINE
  8
0
 10
0
 20
0
 39
0
 70
1
 66
1
  0
VERTEX
  8
0
 10
458.8658447265625
 20
540.27880859375
 42
-1
  0
VERTEX
  8
0
 10
458.8658447265625
 20
564.27880859375
 42
-1
  0
SEQEND
  0
POLYLINE
  8
0
 10
0
 20
0
 39
0
 70
1
 66
1
  0
VERTEX
  8
0
 10
572
 20
520.5999755859375
 42
-0
  0
VERTEX
  8
0
 10
702
 20
520.5999755859375
 42
-0
  0
VERTEX
  8
0
 10
702
 20
713.5999755859375
 42
-0.41421356797218323
  0
VERTEX
  8
0
 10
635
 20
780.5999755859375
 42
0
  0
VERTEX
  8
0
 10
572
 20
780.5999755859375
 42
0
  0
SEQEND
  0
POLYLINE
  8
0
 10
0
 20
0
 39
0
 70
1
 66
1
  0
VERTEX
  8
0
 10
599.26580810546875
 20
540.27880859375
 42
-1
  0
VERTEX
  8
0
 10
599.26580810546875
 20
564.27880859375
 42
-1
  0
SEQEND
  0
POLYLINE
  8
0
 10
0
 20
0
 39
0
 70
1
 66
1
  0
VERTEX
  8
0
 10
712.4000244140625
 20
520.5999755859375
 42
-0
  0
VERTEX
  8
0
 10
842.4000244140625
 20
520.5999755859375
 42
-0
  0
VERTEX
  8
0
 10
842.4000244140625
 20
713.5999755859375
 42
-0.41421356797218323
  0
VERTEX
  8
0
 10
775.4000244140625
 20
780.5999755859375
 42
0
  0
VERTEX
  8
0
 10
712.4000244140625
 20
780.5999755859375
 42
0
  0
SEQEND
  0
POLYLINE
  8
0
 10
0
 20
0
 39
0
 70
1
 66
1
  0
VERTEX
  8
0
 10
739.66583251953125
 20
540.27880859375
 42
-1
  0
VERTEX
  8
0
 10
739.66583251953125
 20
564.27880859375
 42
-1
  0
SEQEND
  0
POLYLINE
  8
0
 10
0
 20
0
 39
0
 70
1
 66
1
  0
VERTEX
  8
0
 10
1180.800048828125
 20
817.4000244140625
 42
-0
  0
VERTEX
  8
0
 10
1050.800048828125
 20
817.4000244140625
 42
-0
  0
VERTEX
  8
0
 10
1050.800048828125
 20
624.4000244140625
 42
-0.41421356797218323
  0
VERTEX
  8
0
 10
1117.800048828125
 20
557.4000244140625
 42
0
  0
VERTEX
  8
0
 10
1180.800048828125
 20
557.4000244140625
 42
0
  0
SEQEND
  0
POLYLINE
  8
0
 10
0
 20
0
 39
0
 70
1
 66
1
  0
VERTEX
  8
0
 10
1153.5341796875
 20
797.72119140625
 42
-1
  0
VERTEX
  8
0
 10
1153.5341796875
 20
773.72119140625
 42
-1
  0
SEQEND
  0
POLYLINE
  8
0
 10
0
 20
0
 39
0
 70
1
 66
1
  0
VERTEX
  8
0
 10
1281
 20
338
 42
-0
  0
VERTEX
  8
0
 10
1151
 20
338
 42
-0
  0
VERTEX
  8
0
 10
1151
 20
145
 42
-0.41421356797218323
  0
VERTEX
  8
0
 10
1218
 20
78
 42
0
  0
VERTEX
  8
0
 10
1281
 20
78
 42
0
  0
SEQEND
  0
POLYLINE
  8
0
 10
0
 20
0
 39
0
 70
1
 66
1
  0
VERTEX
  8
0
 10
1253.734130859375
 20
318.3211669921875
 42
-1
  0
VERTEX
  8
0
 10
1253.734130859375
 20
294.3211669921875
 42
-1
  0
SEQEND
  0
POLYLINE
  8
0
 10
0
 20
0
 39
0
 70
1
 66
1
  0
VERTEX
  8
0
 10
1553.4000244140625
 20
645
 42
-0
  0
VERTEX
  8
0
 10
1423.4000244140625
 20
645
 42
-0
  0
VERTEX
  8
0
 10
1423.4000244140625
 20
452
 42
-0.41421356797218323
  0
VERTEX
  8
0
 10
1490.4000244140625
 20
385
 42
0
  0
VERTEX
  8
0
 10
1553.4000244140625
 20
385
 42
0
  0
SEQEND
  0
POLYLINE
  8
0
 10
0
 20
0
 39
0
 70
1
 66
1
  0
VERTEX
  8
0
 10
1526.1341552734375
 20
625.3211669921875
 42
-1
  0
VERTEX
  8
0
 10
1526.1341552734375
 20
601.3211669921875
 42
-1
  0
SEQEND
  0
POLYLINE
  8
0
 10
0
 20
0
 39
0
 70
1
 66
1
  0
VERTEX
  8
0
 10
1431
 20
10.399999618530273
 42
-0
  0
VERTEX
  8
0
 10
1561
 20
10.399999618530273
 42
-0
  0
VERTEX
  8
0
 10
1561
 20
203.39999389648437
 42
-0.41421356797218323
  0
VERTEX
  8
0
 10
1494
 20
270.39999389648437
 42
0
  0
VERTEX
  8
0
 10
1431
 20
270.39999389648437
 42
0
  0
SEQEND
  0
POLYLINE
  8
0
 10
0
 20
0
 39
0
 70
1
 66
1
  0
VERTEX
  8
0
 10
1458.265869140625
 20
30.078830718994141
 42
-1
  0
VERTEX
  8
0
 10
1458.265869140625
 20
54.078834533691406
 42
-1
  0
SEQEND
  0
POLYLINE
  8
0
 10
0
 20
0
 39
0
 70
1
 66
1
  0
VERTEX
  8
0
 10
1579.4000244140625
 20
759.20001220703125
 42
-0
  0
VERTEX
  8
0
 10
1579.4000244140625
 20
889.20001220703125
 42
-0
  0
VERTEX
  8
0
 10
1386.4000244140625
 20
889.20001220703125
 42
-0.41421356797218323
  0
VERTEX
  8
0
 10
1319.4000244140625
 20
822.20001220703125
 42
0
  0
VERTEX
  8
0
 10
1319.4000244140625
 20
759.20001220703125
 42
0
  0
SEQEND
  0
POLYLINE
  8
0
 10
0
 20
0
 39
0
 70
1
 66
1
  0
VERTEX
  8
0
 10
1559.72119140625
 20
786.4658203125
 42
-1
  0
VERTEX
  8
0
 10
1535.72119140625
 20
786.4658203125
 42
-1
  0
SEQEND
  0
POLYLINE
  8
0
 10
0
 20
0
 39
0
 70
1
 66
1
  0
VERTEX
  8
0
 10
1571.4000244140625
 20
10.399999618530273
 42
-0
  0
VERTEX
  8
0
 10
1701.4000244140625
 20
10.399999618530273
 42
-0
  0
VERTEX
  8
0
 10
1701.4000244140625
 20
203.39999389648437
 42
-0.41421356797218323
  0
VERTEX
  8
0
 10
1634.4000244140625
 20
270.39999389648437
 42
0
  0
VERTEX
  8
0
 10
1571.4000244140625
 20
270.39999389648437
 42
0
  0
SEQEND
  0
POLYLINE
  8
0
 10
0
 20
0
 39
0
 70
1
 66
1
  0
VERTEX
  8
0
 10
1598.6658935546875
 20
30.078830718994141
 42
-1
  0
VERTEX
  8
0
 10
1598.6658935546875
 20
54.078834533691406
 42
-1
  0
SEQEND
  0
POLYLINE
  8
0
 10
0
 20
0
 39
0
 70
1
 66
1
  0
VERTEX
  8
0
 10
1734.4000244140625
 20
889.5999755859375
 42
-0
  0
VERTEX
  8
0
 10
1604.4000244140625
 20
889.5999755859375
 42
-0
  0
VERTEX
  8
0
 10
1604.4000244140625
 20
696.5999755859375
 42
-0.41421356797218323
  0
VERTEX
  8
0
 10
1671.4000244140625
 20
629.5999755859375
 42
0
  0
VERTEX
  8
0
 10
1734.4000244140625
 20
629.5999755859375
 42
0
  0
SEQEND
  0
POLYLINE
  8
0
 10
0
 20
0
 39
0
 70
1
 66
1
  0
VERTEX
  8
0
 10
1707.1341552734375
 20
869.921142578125
 42
-1
  0
VERTEX
  8
0
 10
1707.1341552734375
 20
845.921142578125
 42
-1
  0
SEQEND
  0
POLYLINE
  8
0
 10
0
 20
0
 39
0
 70
1
 66
1
  0
VERTEX
  8
0
 10
1806.199951171875
 20
413
 42
-0
  0
VERTEX
  8
0
 10
1676.199951171875
 20
413
 42
-0
  0
VERTEX
  8
0
 10
1676.199951171875
 20
220
 42
-0.41421356797218323
  0
VERTEX
  8
0
 10
1743.199951171875
 20
153
 42
0
  0
VERTEX
  8
0
 10
1806.199951171875
 20
153
 42
0
  0
SEQEND
  0
POLYLINE
  8
0
 10
0
 20
0
 39
0
 70
1
 66
1
  0
VERTEX
  8
0
 10
1778.9342041015625
 20
393.3211669921875
 42
-1
  0
VERTEX
  8
0
 10
1778.9342041015625
 20
369.3211669921875
 42
-1
  0
SEQEND
  0
POLYLINE
  8
0
 10
0
 20
0
 39
0
 70
1
 66
1
  0
VERTEX
  8
0
 10
1874.800048828125
 20
682
 42
-0
  0
VERTEX
  8
0
 10
1744.800048828125
 20
682
 42
-0
  0
VERTEX
  8
0
 10
1744.800048828125
 20
489
 42
-0.41421356797218323
  0
VERTEX
  8
0
 10
1811.800048828125
 20
422
 42
0
  0
VERTEX
  8
0
 10
1874.800048828125
 20
422
 42
0
  0
SEQEND
  0
POLYLINE
  8
0
 10
0
 20
0
 39
0
 70
1
 66
1
  0
VERTEX
  8
0
 10
1847.5341796875
 20
662.3211669921875
 42
-1
  0
VERTEX
  8
0
 10
1847.5341796875
 20
638.3211669921875
 42
-1
  0
SEQEND
  0
POLYLINE
  8
0
 10
0
 20
0
 39
0
 70
1
 66
1
  0
VERTEX
  8
0
 10
1892.800048828125
 20
692.20001220703125
 42
-0
  0
VERTEX
  8
0
 10
1892.800048828125
 20
802.20001220703125
 42
0
  0
VERTEX
  8
0
 10
1744.800048828125
 20
747.20001220703125
 42
0
  0
VERTEX
  8
0
 10
1744.800048828125
 20
692.20001220703125
 42
0
  0
SEQEND
  0
POLYLINE
  8
0
 10
0
 20
0
 39
0
 70
1
 66
1
  0
VERTEX
  8
0
 10
1866.44921875
 20
714.70001220703125
 42
-0
  0
VERTEX
  8
0
 10
1795.44921875
 20
714.70001220703125
 42
-0
  0
VERTEX
  8
0
 10
1795.44921875
 20
744.70001220703125
 42
-0
  0
VERTEX
  8
0
 10
1841.44921875
 20
744.70001220703125
 42
-0
  0
VERTEX
  8
0
 10
1841.44921875
 20
760.70001220703125
 42
-0
  0
VERTEX
  8
0
 10
1866.44921875
 20
760.70001220703125
 42
-0
  0
SEQEND
  0
POLYLINE
  8
0
 10
0
 20
0
 39
0
 70
1
 66
1
  0
VERTEX
  8
0
 10
1744.800048828125
 20
868.08599853515625
 42
-0
  0
VERTEX
  8
0
 10
1744.800048828125
 20
758.08599853515625
 42
0
  0
VERTEX
  8
0
 10
1892.800048828125
 20
813.08599853515625
 42
0
  0
VERTEX
  8
0
 10
1892.800048828125
 20
868.08599853515625
 42
0
  0
SEQEND
  0
POLYLINE
  8
0
 10
0
 20
0
 39
0
 70
1
 66
1
  0
VERTEX
  8
0
 10
1771.1507568359375
 20
845.58599853515625
 42
-0
  0
VERTEX
  8
0
 10
1842.1507568359375
 20
845.58599853515625
 42
-0
  0
VERTEX
  8
0
 10
1842.1507568359375
 20
815.58599853515625
 42
-0
  0
VERTEX
  8
0
 10
1796.1507568359375
 20
815.58599853515625
 42
-0
  0
VERTEX
  8
0
 10
1796.1507568359375
 20
799.58599853515625
 42
-0
  0
VERTEX
  8
0
 10
1771.1507568359375
 20
799.58599853515625
 42
-0
  0
SEQEND
  0
POLYLINE
  8
0
 10
0
 20
0
 39
0
 70
1
 66
1
  0
VERTEX
  8
0
 10
1964.5999755859375
 20
10.399999618530273
 42
-0
  0
VERTEX
  8
0
 10
1964.5999755859375
 20
120.40000152587891
 42
0
  0
VERTEX
  8
0
 10
1816.5999755859375
 20
65.400001525878906
 42
0
  0
VERTEX
  8
0
 10
1816.5999755859375
 20
10.399999618530273
 42
0
  0
SEQEND
  0
POLYLINE
  8
0
 10
0
 20
0
 39
0
 70
1
 66
1
  0
VERTEX
  8
0
 10
1938.249267578125
 20
32.900001525878906
 42
-0
  0
VERTEX
  8
0
 10
1867.249267578125
 20
32.900001525878906
 42
-0
  0
VERTEX
  8
0
 10
1867.249267578125
 20
62.900001525878906
 42
-0
  0
VERTEX
  8
0
 10
1913.249267578125
 20
62.900001525878906
 42
-0
  0
VERTEX
  8
0
 10
1913.249267578125
 20
78.900001525878906
 42
-0
  0
VERTEX
  8
0
 10
1938.249267578125
 20
78.900001525878906
 42
-0
  0
SEQEND
  0
POLYLINE
  8
0
 10
0
 20
0
 39
0
 70
1
 66
1
  0
VERTEX
  8
0
 10
1816.5999755859375
 20
186.28599548339844
 42
-0
  0
VERTEX
  8
0
 10
1816.5999755859375
 20
76.286003112792969
 42
0
  0
VERTEX
  8
0
 10
1964.5999755859375
 20
131.28599548339844
 42
0
  0
VERTEX
  8
0
 10
1964.5999755859375
 20
186.28599548339844
 42
0
  0
SEQEND
  0
POLYLINE
  8
0
 10
0
 20
0
 39
0
 70
1
 66
1
  0
VERTEX
  8
0
 10
1842.95068359375
 20
163.78599548339844
 42
-0
  0
VERTEX
  8
0
 10
1913.95068359375
 20
163.78599548339844
 42
-0
  0
VERTEX
  8
0
 10
1913.95068359375
 20
133.78599548339844
 42
-0
  0
VERTEX
  8
0
 10
1867.95068359375
 20
133.78599548339844
 42
-0
  0
VERTEX
  8
0
 10
1867.95068359375
 20
117.78600311279297
 42
-0
  0
VERTEX
  8
0
 10
1842.95068359375
 20
117.78600311279297
 42
-0
  0
SEQEND
  0
POLYLINE
  8
0
 10
0
 20
0
 39
0
 70
1
 66
1
  0
VERTEX
  8
0
 10
1964.5999755859375
 20
196.39999389648437
 42
-0
  0
VERTEX
  8
0
 10
1964.5999755859375
 20
306.39999389648437
 42
0
  0
VERTEX
  8
0
 10
1816.5999755859375
 20
251.39999389648438
 42
0
  0
VERTEX
  8
0
 10
1816.5999755859375
 20
196.39999389648437
 42
0
  0
SEQEND
  0
POLYLINE
  8
0
 10
0
 20
0
 39
0
 70
1
 66
1
  0
VERTEX
  8
0
 10
1938.249267578125
 20
218.89999389648437
 42
-0
  0
VERTEX
  8
0
 10
1867.249267578125
 20
218.89999389648437
 42
-0
  0
VERTEX
  8
0
 10
1867.249267578125
 20
248.89999389648437
 42
-0
  0
VERTEX
  8
0
 10
1913.249267578125
 20
248.89999389648437
 42
-0
  0
VERTEX
  8
0
 10
1913.249267578125
 20
264.89999389648437
 42
-0
  0
VERTEX
  8
0
 10
1938.249267578125
 20
264.89999389648437
 42
-0
  0
SEQEND
  0
POLYLINE
  8
0
 10
0
 20
0
 39
0
 70
1
 66
1
  0
VERTEX
  8
0
 10
1816.5999755859375
 20
372.2860107421875
 42
-0
  0
VERTEX
  8
0
 10
1816.5999755859375
 20
262.2860107421875
 42
0
  0
VERTEX
  8
0
 10
1964.5999755859375
 20
317.2860107421875
 42
0
  0
VERTEX
  8
0
 10
1964.5999755859375
 20
372.2860107421875
 42
0
  0
SEQEND
  0
POLYLINE
  8
0
 10
0
 20
0
 39
0
 70
1
 66
1
  0
VERTEX
  8
0
 10
1842.95068359375
 20
349.7860107421875
 42
-0
  0
VERTEX
  8
0
 10
1913.95068359375
 20
349.7860107421875
 42
-0
  0
VERTEX
  8
0
 10
1913.95068359375
 20
319.7860107421875
 42
-0
  0
VERTEX
  8
0
 10
1867.95068359375
 20
319.7860107421875
 42
-0
  0
VERTEX
  8
0
 10
1867.95068359375
 20
303.7860107421875
 42
-0
  0
VERTEX
  8
0
 10
1842.95068359375
 20
303.7860107421875
 42
-0
  0
SEQEND
  0
POLYLINE
  8
0
 10
0
 20
0
 39
0
 70
1
 66
1
  0
VERTEX
  8
0
 10
120.80000305175781
 20
143.80000305175781
 42
-0
  0
VERTEX
  8
0
 10
230.80000305175781
 20
143.80000305175781
 42
0
  0
VERTEX
  8
0
 10
175.80000305175781
 20
291.79998779296875
 42
0
  0
VERTEX
  8
0
 10
120.80000305175781
 20
291.79998779296875
 42
0
  0
SEQEND
  0
POLYLINE
  8
0
 10
0
 20
0
 39
0
 70
1
 66
1
  0
VERTEX
  8
0
 10
143.30000305175781
 20
170.15074157714844
 42
-0
  0
VERTEX
  8
0
 10
143.30000305175781
 20
241.15074157714844
 42
-0
  0
VERTEX
  8
0
 10
173.30000305175781
 20
241.15074157714844
 42
-0
  0
VERTEX
  8
0
 10
173.30000305175781
 20
195.15074157714844
 42
-0
  0
VERTEX
  8
0
 10
189.30000305175781
 20
195.15074157714844
 42
-0
  0
VERTEX
  8
0
 10
189.30000305175781
 20
170.15074157714844
 42
-0
  0
SEQEND
  0
POLYLINE
  8
0
 10
0
 20
0
 39
0
 70
1
 66
1
  0
VERTEX
  8
0
 10
83.800003051757813
 20
887.5999755859375
 42
-0
  0
VERTEX
  8
0
 10
83.800003051757813
 20
777.5999755859375
 42
0
  0
VERTEX
  8
0
 10
231.80000305175781
 20
832.5999755859375
 42
0
  0
VERTEX
  8
0
 10
231.80000305175781
 20
887.5999755859375
 42
0
  0
SEQEND
  0
POLYLINE
  8
0
 10
0
 20
0
 39
0
 70
1
 66
1
  0
VERTEX
  8
0
 10
110.15074157714844
 20
865.0999755859375
 42
-0
  0
VERTEX
  8
0
 10
181.15074157714844
 20
865.0999755859375
 42
-0
  0
VERTEX
  8
0
 10
181.15074157714844
 20
835.0999755859375
 42
-0
  0
VERTEX
  8
0
 10
135.15074157714844
 20
835.0999755859375
 42
-0
  0
VERTEX
  8
0
 10
135.15074157714844
 20
819.0999755859375
 42
-0
  0
VERTEX
  8
0
 10
110.15074157714844
 20
819.0999755859375
 42
-0
  0
SEQEND
  0
POLYLINE
  8
0
 10
0
 20
0
 39
0
 70
1
 66
1
  0
VERTEX
  8
0
 10
242.19999694824219
 20
883.79998779296875
 42
-0
  0
VERTEX
  8
0
 10
242.19999694824219
 20
773.79998779296875
 42
0
  0
VERTEX
  8
0
 10
390.20001220703125
 20
828.79998779296875
 42
0
  0
VERTEX
  8
0
 10
390.20001220703125
 20
883.79998779296875
 42
0
  0
SEQEND
  0
POLYLINE
  8
0
 10
0
 20
0
 39
0
 70
1
 66
1
  0
VERTEX
  8
0
 10
268.55075073242187
 20
861.29998779296875
 42
-0
  0
VERTEX
  8
0
 10
339.55075073242187
 20
861.29998779296875
 42
-0
  0
VERTEX
  8
0
 10
339.55075073242187
 20
831.29998779296875
 42
-0
  0
VERTEX
  8
0
 10
293.55075073242187
 20
831.29998779296875
 42
-0
  0
VERTEX
  8
0
 10
293.55075073242187
 20
815.29998779296875
 42
-0
  0
VERTEX
  8
0
 10
268.55075073242187
 20
815.29998779296875
 42
-0
  0
SEQEND
  0
POLYLINE
  8
0
 10
0
 20
0
 39
0
 70
1
 66
1
  0
VERTEX
  8
0
 10
505
 20
887.5999755859375
 42
-0
  0
VERTEX
  8
0
 10
505
 20
777.5999755859375
 42
0
  0
VERTEX
  8
0
 10
653
 20
832.5999755859375
 42
0
  0
VERTEX
  8
0
 10
653
 20
887.5999755859375
 42
0
  0
SEQEND
  0
POLYLINE
  8
0
 10
0
 20
0
 39
0
 70
1
 66
1
  0
VERTEX
  8
0
 10
531.3507080078125
 20
865.0999755859375
 42
-0
  0
VERTEX
  8
0
 10
602.3507080078125
 20
865.0999755859375
 42
-0
  0
VERTEX
  8
0
 10
602.3507080078125
 20
835.0999755859375
 42
-0
  0
VERTEX
  8
0
 10
556.3507080078125
 20
835.0999755859375
 42
-0
  0
VERTEX
  8
0
 10
556.3507080078125
 20
819.0999755859375
 42
-0
  0
VERTEX
  8
0
 10
531.3507080078125
 20
819.0999755859375
 42
-0
  0
SEQEND
  0
POLYLINE
  8
0
 10
0
 20
0
 39
0
 70
1
 66
1
  0
VERTEX
  8
0
 10
663.4000244140625
 20
883.79998779296875
 42
-0
  0
VERTEX
  8
0
 10
663.4000244140625
 20
773.79998779296875
 42
0
  0
VERTEX
  8
0
 10
811.4000244140625
 20
828.79998779296875
 42
0
  0
VERTEX
  8
0
 10
811.4000244140625
 20
883.79998779296875
 42
0
  0
SEQEND
  0
POLYLINE
  8
0
 10
0
 20
0
 39
0
 70
1
 66
1
  0
VERTEX
  8
0
 10
689.750732421875
 20
861.29998779296875
 42
-0
  0
VERTEX
  8
0
 10
760.750732421875
 20
861.29998779296875
 42
-0
  0
VERTEX
  8
0
 10
760.750732421875
 20
831.29998779296875
 42
-0
  0
VERTEX
  8
0
 10
714.750732421875
 20
831.29998779296875
 42
-0
  0
VERTEX
  8
0
 10
714.750732421875
 20
815.29998779296875
 42
-0
  0
VERTEX
  8
0
 10
689.750732421875
 20
815.29998779296875
 42
-0
  0
SEQEND
  0
POLYLINE
  8
0
 10
0
 20
0
 39
0
 70
1
 66
1
  0
VERTEX
  8
0
 10
770.79998779296875
 20
143.80000305175781
 42
-0
  0
VERTEX
  8
0
 10
880.79998779296875
 20
143.80000305175781
 42
0
  0
VERTEX
  8
0
 10
825.79998779296875
 20
291.79998779296875
 42
0
  0
VERTEX
  8
0
 10
770.79998779296875
 20
291.79998779296875
 42
0
  0
SEQEND
  0
POLYLINE
  8
0
 10
0
 20
0
 39
0
 70
1
 66
1
  0
VERTEX
  8
0
 10
793.29998779296875
 20
170.15074157714844
 42
-0
  0
VERTEX
  8
0
 10
793.29998779296875
 20
241.15074157714844
 42
-0
  0
VERTEX
  8
0
 10
823.29998779296875
 20
241.15074157714844
 42
-0
  0
VERTEX
  8
0
 10
823.29998779296875
 20
195.15074157714844
 42
-0
  0
VERTEX
  8
0
 10
839.29998779296875
 20
195.15074157714844
 42
-0
  0
VERTEX
  8
0
 10
839.29998779296875
 20
170.15074157714844
 42
-0
  0
SEQEND
  0
POLYLINE
  8
0
 10
0
 20
0
 39
0
 70
1
 66
1
  0
VERTEX
  8
0
 10
1020.7999877929687
 20
470.79998779296875
 42
-0
  0
VERTEX
  8
0
 10
1020.7999877929687
 20
360.79998779296875
 42
0
  0
VERTEX
  8
0
 10
1168.800048828125
 20
415.79998779296875
 42
0
  0
VERTEX
  8
0
 10
1168.800048828125
 20
470.79998779296875
 42
0
  0
SEQEND
  0
POLYLINE
  8
0
 10
0
 20
0
 39
0
 70
1
 66
1
  0
VERTEX
  8
0
 10
1047.1507568359375
 20
448.29998779296875
 42
-0
  0
VERTEX
  8
0
 10
1118.1507568359375
 20
448.29998779296875
 42
-0
  0
VERTEX
  8
0
 10
1118.1507568359375
 20
418.29998779296875
 42
-0
  0
VERTEX
  8
0
 10
1072.1507568359375
 20
418.29998779296875
 42
-0
  0
VERTEX
  8
0
 10
1072.1507568359375
 20
402.29998779296875
 42
-0
  0
VERTEX
  8
0
 10
1047.1507568359375
 20
402.29998779296875
 42
-0
  0
SEQEND
  0
POLYLINE
  8
0
 10
0
 20
0
 39
0
 70
1
 66
1
  0
VERTEX
  8
0
 10
911.5999755859375
 20
741.5999755859375
 42
0
  0
VERTEX
  8
0
 10
911.5999755859375
 20
889.5999755859375
 42
0
  0
VERTEX
  8
0
 10
856.5999755859375
 20
889.5999755859375
 42
0
  0
VERTEX
  8
0
 10
801.5999755859375
 20
741.5999755859375
 42
-0
  0
SEQEND
  0
POLYLINE
  8
0
 10
0
 20
0
 39
0
 70
1
 66
1
  0
VERTEX
  8
0
 10
889.0999755859375
 20
767.95074462890625
 42
-0
  0
VERTEX
  8
0
 10
843.0999755859375
 20
767.95074462890625
 42
-0
  0
VERTEX
  8
0
 10
843.0999755859375
 20
792.95074462890625
 42
-0
  0
VERTEX
  8
0
 10
859.0999755859375
 20
792.95074462890625
 42
-0
  0
VERTEX
  8
0
 10
859.0999755859375
 20
838.95074462890625
 42
-0
  0
VERTEX
  8
0
 10
889.0999755859375
 20
838.95074462890625
 42
-0
  0
SEQEND
  0
POLYLINE
  8
0
 10
0
 20
0
 39
0
 70
1
 66
1
  0
VERTEX
  8
0
 10
1981.4000244140625
 20
382.39999389648437
 42
0
  0
VERTEX
  8
0
 10
1981.4000244140625
 20
530.4000244140625
 42
0
  0
VERTEX
  8
0
 10
1926.4000244140625
 20
530.4000244140625
 42
0
  0
VERTEX
  8
0
 10
1871.4000244140625
 20
382.39999389648437
 42
-0
  0
SEQEND
  0
POLYLINE
  8
0
 10
0
 20
0
 39
0
 70
1
 66
1
  0
VERTEX
  8
0
 10
1958.9000244140625
 20
408.750732421875
 42
-0
  0
VERTEX
  8
0
 10
1912.9000244140625
 20
408.750732421875
 42
-0
  0
VERTEX
  8
0
 10
1912.9000244140625
 20
433.750732421875
 42
-0
  0
VERTEX
  8
0
 10
1928.9000244140625
 20
433.750732421875
 42
-0
  0
VERTEX
  8
0
 10
1928.9000244140625
 20
479.750732421875
 42
-0
  0
VERTEX
  8
0
 10
1958.9000244140625
 20
479.750732421875
 42
-0
  0
SEQEND
  0
POLYLINE
  8
0
 10
0
 20
0
 39
0
 70
1
 66
1
  0
VERTEX
  8
0
 10
630.594970703125
 20
290.79998779296875
 42
-0
  0
VERTEX
  8
0
 10
569.79998779296875
 20
290.79998779296875
 42
0
  0
VERTEX
  8
0
 10
569.79998779296875
 20
176.80000305175781
 42
0
  0
VERTEX
  8
0
 10
630.594970703125
 20
176.80000305175781
 42
-0
  0
VERTEX
  8
0
 10
649.79998779296875
 20
229.5653076171875
 42
-0
  0
VERTEX
  8
0
 10
649.79998779296875
 20
238.03468322753906
 42
0
  0
SEQEND
  0
POLYLINE
  8
0
 10
0
 20
0
 39
0
 70
1
 66
1
  0
VERTEX
  8
0
 10
630.594970703125
 20
225.80000305175781
 42
-1
  0
VERTEX
  8
0
 10
630.594970703125
 20
241.80000305175781
 42
-1
  0
SEQEND
  0
POLYLINE
  8
0
 10
0
 20
0
 39
0
 70
1
 66
1
  0
VERTEX
  8
0
 10
582.6114501953125
 20
193.46723937988281
 42
-0
  0
VERTEX
  8
0
 10
582.6114501953125
 20
274.13275146484375
 42
-0.16584248840808868
  0
VERTEX
  8
0
 10
610.921875
 20
276.4730224609375
 42
0
  0
VERTEX
  8
0
 10
610.921875
 20
191.12696838378906
 42
-0.16584248840808868
  0
SEQEND
  0
POLYLINE
  8
0
 10
0
 20
0
 39
0
 70
1
 66
1
  0
VERTEX
  8
0
 10
913.594970703125
 20
634.5999755859375
 42
-0
  0
VERTEX
  8
0
 10
852.79998779296875
 20
634.5999755859375
 42
0
  0
VERTEX
  8
0
 10
852.79998779296875
 20
520.5999755859375
 42
0
  0
VERTEX
  8
0
 10
913.594970703125
 20
520.5999755859375
 42
-0
  0
VERTEX
  8
0
 10
932.79998779296875
 20
573.36529541015625
 42
-0
  0
VERTEX
  8
0
 10
932.79998779296875
 20
581.834716796875
 42
0
  0
SEQEND
  0
POLYLINE
  8
0
 10
0
 20
0
 39
0
 70
1
 66
1
  0
VERTEX
  8
0
 10
913.594970703125
 20
569.5999755859375
 42
-1
  0
VERTEX
  8
0
 10
913.594970703125
 20
585.5999755859375
 42
-1
  0
SEQEND
  0
POLYLINE
  8
0
 10
0
 20
0
 39
0
 70
1
 66
1
  0
VERTEX
  8
0
 10
865.6114501953125
 20
537.2672119140625
 42
-0
  0
VERTEX
  8
0
 10
865.6114501953125
 20
617.9327392578125
 42
-0.16584248840808868
  0
VERTEX
  8
0
 10
893.921875
 20
620.27301025390625
 42
0
  0
VERTEX
  8
0
 10
893.921875
 20
534.92694091796875
 42
-0.16584248840808868
  0
SEQEND
  0
POLYLINE
  8
0
 10
0
 20
0
 39
0
 70
1
 66
1
  0
VERTEX
  8
0
 10
1772.594970703125
 20
124.40000152587891
 42
-0
  0
VERTEX
  8
0
 10
1711.800048828125
 20
124.40000152587891
 42
0
  0
VERTEX
  8
0
 10
1711.800048828125
 20
10.399999618530273
 42
0
  0
VERTEX
  8
0
 10
1772.594970703125
 20
10.399999618530273
 42
-0
  0
VERTEX
  8
0
 10
1791.800048828125
 20
63.165313720703125
 42
-0
  0
VERTEX
  8
0
 10
1791.800048828125
 20
71.634689331054687
 42
0
  0
SEQEND
  0
POLYLINE
  8
0
 10
0
 20
0
 39
0
 70
1
 66
1
  0
VERTEX
  8
0
 10
1772.594970703125
 20
59.400001525878906
 42
-1
  0
VERTEX
  8
0
 10
1772.594970703125
 20
75.400001525878906
 42
-1
  0
SEQEND
  0
POLYLINE
  8
0
 10
0
 20
0
 39
0
 70
1
 66
1
  0
VERTEX
  8
0
 10
1724.6114501953125
 20
27.067237854003906
 42
-0
  0
VERTEX
  8
0
 10
1724.6114501953125
 20
107.73276519775391
 42
-0.16584248840808868
  0
VERTEX
  8
0
 10
1752.921875
 20
110.07302856445312
 42
0
  0
VERTEX
  8
0
 10
1752.921875
 20
24.726970672607422
 42
-0.16584248840808868
  0
SEQEND
  0
POLYLINE
  8
0
 10
0
 20
0
 39
0
 70
1
 66
1
  0
VERTEX
  8
0
 10
1945.9949951171875
 20
654.5999755859375
 42
-0
  0
VERTEX
  8
0
 10
1885.199951171875
 20
654.5999755859375
 42
0
  0
VERTEX
  8
0
 10
1885.199951171875
 20
540.5999755859375
 42
0
  0
VERTEX
  8
0
 10
1945.9949951171875
 20
540.5999755859375
 42
-0
  0
VERTEX
  8
0
 10
1965.199951171875
 20
593.36529541015625
 42
-0
  0
VERTEX
  8
0
 10
1965.199951171875
 20
601.834716796875
 42
0
  0
SEQEND
  0
POLYLINE
  8
0
 10
0
 20
0
 39
0
 70
1
 66
1
  0
VERTEX
  8
0
 10
1945.9949951171875
 20
589.5999755859375
 42
-1
  0
VERTEX
  8
0
 10
1945.9949951171875
 20
605.5999755859375
 42
-1
  0
SEQEND
  0
POLYLINE
  8
0
 10
0
 20
0
 39
0
 70
1
 66
1
  0
VERTEX
  8
0
 10
1898.011474609375
 20
557.2672119140625
 42
-0
  0
VERTEX
  8
0
 10
1898.011474609375
 20
637.9327392578125
 42
-0.16584248840808868
  0
VERTEX
  8
0
 10
1926.3218994140625
 20
640.27301025390625
 42
0
  0
VERTEX
  8
0
 10
1926.3218994140625
 20
554.92694091796875
 42
-0.16584248840808868
  0
SEQEND
  0
POLYLINE
  8
0
 10
0
 20
0
 39
0
 70
1
 66
1
  0
VERTEX
  8
0
 10
1963.9949951171875
 20
778.79998779296875
 42
-0
  0
VERTEX
  8
0
 10
1903.199951171875
 20
778.79998779296875
 42
0
  0
VERTEX
  8
0
 10
1903.199951171875
 20
664.79998779296875
 42
0
  0
VERTEX
  8
0
 10
1963.9949951171875
 20
664.79998779296875
 42
-0
  0
VERTEX
  8
0
 10
1983.199951171875
 20
717.5653076171875
 42
-0
  0
VERTEX
  8
0
 10
1983.199951171875
 20
726.03466796875
 42
0
  0
SEQEND
  0
POLYLINE
  8
0
 10
0
 20
0
 39
0
 70
1
 66
1
  0
VERTEX
  8
0
 10
1963.9949951171875
 20
713.79998779296875
 42
-1
  0
VERTEX
  8
0
 10
1963.9949951171875
 20
729.79998779296875
 42
-1
  0
SEQEND
  0
POLYLINE
  8
0
 10
0
 20
0
 39
0
 70
1
 66
1
  0
VERTEX
  8
0
 10
1916.011474609375
 20
681.46722412109375
 42
-0
  0
VERTEX
  8
0
 10
1916.011474609375
 20
762.13275146484375
 42
-0.16584248840808868
  0
VERTEX
  8
0
 10
1944.3218994140625
 20
764.4730224609375
 42
0
  0
VERTEX
  8
0
 10
1944.3218994140625
 20
679.126953125
 42
-0.16584248840808868
  0
SEQEND
  0
ENDSEC
  0
EOF
