  0
SECTION
  2
ENTITIES
  0
POLYLINE
  8
0
 10
0
 20
0
 39
0
 70
1
 66
1
  0
VERTEX
  8
0
 10
0
 20
0
 42
0
  0
VERTEX
  8
0
 10
1200
 20
0
 42
0
  0
VERTEX
  8
0
 10
1200
 20
600
 42
0
  0
VERTEX
  8
0
 10
0
 20
600
 42
0
  0
SEQEND
  0
POLYLINE
  8
0
 10
0
 20
0
 39
0
 70
1
 66
1
  0
VERTEX
  8
0
 10
10.159999847412109
 20
10.159999847412109
 42
-0
  0
VERTEX
  8
0
 10
181.70542907714844
 20
10.159999847412109
 42
-0
  0
VERTEX
  8
0
 10
210.16000366210937
 20
37.552410125732422
 42
-0
  0
VERTEX
  8
0
 10
210.16000366210937
 20
245.83123779296875
 42
0
  0
VERTEX
  8
0
 10
10.159999847412109
 20
245.83123779296875
 42
0
  0
SEQEND
  0
POLYLINE
  8
0
 10
0
 20
0
 39
0
 70
1
 66
1
  0
VERTEX
  8
0
 10
22.704973220825195
 20
25.99681282043457
 42
-0
  0
VERTEX
  8
0
 10
22.704973220825195
 20
105.99681854248047
 42
-0
  0
VERTEX
  8
0
 10
122.70497131347656
 20
105.99681854248047
 42
-0
  0
VERTEX
  8
0
 10
122.70497131347656
 20
25.99681282043457
 42
-0
  0
SEQEND
  0
POLYLINE
  8
0
 10
0
 20
0
 39
0
 70
1
 66
1
  0
VERTEX
  8
0
 10
44.752857208251953
 20
201.12446594238281
 42
-1
  0
VERTEX
  8
0
 10
176.72529602050781
 20
95.410308837890625
 42
-0
  0
VERTEX
  8
0
 10
141.72529602050781
 20
95.410308837890625
 42
-0
  0
VERTEX
  8
0
 10
141.72529602050781
 20
125.12445831298828
 42
0
  0
VERTEX
  8
0
 10
44.752857208251953
 20
125.12445831298828
 42
0
  0
SEQEND
  0
POLYLINE
  8
0
 10
0
 20
0
 39
0
 70
1
 66
1
  0
VERTEX
  8
0
 10
10.159999847412109
 20
255.91999816894531
 42
-0
  0
VERTEX
  8
0
 10
181.70542907714844
 20
255.91999816894531
 42
-0
  0
VERTEX
  8
0
 10
210.16000366210937
 20
283.31240844726562
 42
-0
  0
VERTEX
  8
0
 10
210.16000366210937
 20
491.59124755859375
 42
0
  0
VERTEX
  8
0
 10
10.159999847412109
 20
491.59124755859375
 42
0
  0
SEQEND
  0
POLYLINE
  8
0
 10
0
 20
0
 39
0
 70
1
 66
1
  0
VERTEX
  8
0
 10
22.704973220825195
 20
271.75680541992187
 42
-0
  0
VERTEX
  8
0
 10
22.704973220825195
 20
351.75680541992187
 42
-0
  0
VERTEX
  8
0
 10
122.70497131347656
 20
351.75680541992187
 42
-0
  0
VERTEX
  8
0
 10
122.70497131347656
 20
271.75680541992187
 42
-0
  0
SEQEND
  0
POLYLINE
  8
0
 10
0
 20
0
 39
0
 70
1
 66
1
  0
VERTEX
  8
0
 10
44.752857208251953
 20
446.88446044921875
 42
-1
  0
VERTEX
  8
0
 10
176.72529602050781
 20
341.17031860351562
 42
-0
  0
VERTEX
  8
0
 10
141.72529602050781
 20
341.17031860351562
 42
-0
  0
VERTEX
  8
0
 10
141.72529602050781
 20
370.88446044921875
 42
0
  0
VERTEX
  8
0
 10
44.752857208251953
 20
370.88446044921875
 42
0
  0
SEQEND
  0
POLYLINE
  8
0
 10
0
 20
0
 39
0
 70
1
 66
1
  0
VERTEX
  8
0
 10
220.39999389648437
 20
10.159999847412109
 42
-0
  0
VERTEX
  8
0
 10
391.9454345703125
 20
10.159999847412109
 42
-0
  0
VERTEX
  8
0
 10
420.39999389648437
 20
37.552410125732422
 42
-0
  0
VERTEX
  8
0
 10
420.39999389648437
 20
245.83123779296875
 42
0
  0
VERTEX
  8
0
 10
220.39999389648437
 20
245.83123779296875
 42
0
  0
SEQEND
  0
POLYLINE
  8
0
 10
0
 20
0
 39
0
 70
1
 66
1
  0
VERTEX
  8
0
 10
232.94497680664062
 20
25.99681282043457
 42
-0
  0
VERTEX
  8
0
 10
232.94497680664062
 20
105.99681854248047
 42
-0
  0
VERTEX
  8
0
 10
332.94497680664062
 20
105.99681854248047
 42
-0
  0
VERTEX
  8
0
 10
332.94497680664062
 20
25.99681282043457
 42
-0
  0
SEQEND
  0
POLYLINE
  8
0
 10
0
 20
0
 39
0
 70
1
 66
1
  0
VERTEX
  8
0
 10
254.99285888671875
 20
201.12446594238281
 42
-1
  0
VERTEX
  8
0
 10
386.96530151367187
 20
95.410308837890625
 42
-0
  0
VERTEX
  8
0
 10
351.96530151367187
 20
95.410308837890625
 42
-0
  0
VERTEX
  8
0
 10
351.96530151367187
 20
125.12445831298828
 42
0
  0
VERTEX
  8
0
 10
254.99285888671875
 20
125.12445831298828
 42
0
  0
SEQEND
  0
POLYLINE
  8
0
 10
0
 20
0
 39
0
 70
1
 66
1
  0
VERTEX
  8
0
 10
220.39999389648437
 20
255.91999816894531
 42
-0
  0
VERTEX
  8
0
 10
391.9454345703125
 20
255.91999816894531
 42
-0
  0
VERTEX
  8
0
 10
420.39999389648437
 20
283.31240844726562
 42
-0
  0
VERTEX
  8
0
 10
420.39999389648437
 20
491.59124755859375
 42
0
  0
VERTEX
  8
0
 10
220.39999389648437
 20
491.59124755859375
 42
0
  0
SEQEND
  0
POLYLINE
  8
0
 10
0
 20
0
 39
0
 70
1
 66
1
  0
VERTEX
  8
0
 10
232.94497680664062
 20
271.75680541992187
 42
-0
  0
VERTEX
  8
0
 10
232.94497680664062
 20
351.75680541992187
 42
-0
  0
VERTEX
  8
0
 10
332.94497680664062
 20
351.75680541992187
 42
-0
  0
VERTEX
  8
0
 10
332.94497680664062
 20
271.75680541992187
 42
-0
  0
SEQEND
  0
POLYLINE
  8
0
 10
0
 20
0
 39
0
 70
1
 66
1
  0
VERTEX
  8
0
 10
254.99285888671875
 20
446.88446044921875
 42
-1
  0
VERTEX
  8
0
 10
386.96530151367187
 20
341.17031860351562
 42
-0
  0
VERTEX
  8
0
 10
351.96530151367187
 20
341.17031860351562
 42
-0
  0
VERTEX
  8
0
 10
351.96530151367187
 20
370.88446044921875
 42
0
  0
VERTEX
  8
0
 10
254.99285888671875
 20
370.88446044921875
 42
0
  0
SEQEND
  0
POLYLINE
  8
0
 10
0
 20
0
 39
0
 70
1
 66
1
  0
VERTEX
  8
0
 10
430.6400146484375
 20
10.159999847412109
 42
-0
  0
VERTEX
  8
0
 10
602.1854248046875
 20
10.159999847412109
 42
-0
  0
VERTEX
  8
0
 10
630.6400146484375
 20
37.552410125732422
 42
-0
  0
VERTEX
  8
0
 10
630.6400146484375
 20
245.83123779296875
 42
0
  0
VERTEX
  8
0
 10
430.6400146484375
 20
245.83123779296875
 42
0
  0
SEQEND
  0
POLYLINE
  8
0
 10
0
 20
0
 39
0
 70
1
 66
1
  0
VERTEX
  8
0
 10
443.18496704101562
 20
25.99681282043457
 42
-0
  0
VERTEX
  8
0
 10
443.18496704101562
 20
105.99681854248047
 42
-0
  0
VERTEX
  8
0
 10
543.18499755859375
 20
105.99681854248047
 42
-0
  0
VERTEX
  8
0
 10
543.18499755859375
 20
25.99681282043457
 42
-0
  0
SEQEND
  0
POLYLINE
  8
0
 10
0
 20
0
 39
0
 70
1
 66
1
  0
VERTEX
  8
0
 10
465.23284912109375
 20
201.12446594238281
 42
-1
  0
VERTEX
  8
0
 10
597.205322265625
 20
95.410308837890625
 42
-0
  0
VERTEX
  8
0
 10
562.205322265625
 20
95.410308837890625
 42
-0
  0
VERTEX
  8
0
 10
562.205322265625
 20
125.12445831298828
 42
0
  0
VERTEX
  8
0
 10
465.23284912109375
 20
125.12445831298828
 42
0
  0
SEQEND
  0
POLYLINE
  8
0
 10
0
 20
0
 39
0
 70
1
 66
1
  0
VERTEX
  8
0
 10
430.6400146484375
 20
255.91999816894531
 42
-0
  0
VERTEX
  8
0
 10
602.1854248046875
 20
255.91999816894531
 42
-0
  0
VERTEX
  8
0
 10
630.6400146484375
 20
283.31240844726562
 42
-0
  0
VERTEX
  8
0
 10
630.6400146484375
 20
491.59124755859375
 42
0
  0
VERTEX
  8
0
 10
430.6400146484375
 20
491.59124755859375
 42
0
  0
SEQEND
  0
POLYLINE
  8
0
 10
0
 20
0
 39
0
 70
1
 66
1
  0
VERTEX
  8
0
 10
443.18496704101562
 20
271.75680541992187
 42
-0
  0
VERTEX
  8
0
 10
443.18496704101562
 20
351.75680541992187
 42
-0
  0
VERTEX
  8
0
 10
543.18499755859375
 20
351.75680541992187
 42
-0
  0
VERTEX
  8
0
 10
543.18499755859375
 20
271.75680541992187
 42
-0
  0
SEQEND
  0
POLYLINE
  8
0
 10
0
 20
0
 39
0
 70
1
 66
1
  0
VERTEX
  8
0
 10
465.23284912109375
 20
446.88446044921875
 42
-1
  0
VERTEX
  8
0
 10
597.205322265625
 20
341.17031860351562
 42
-0
  0
VERTEX
  8
0
 10
562.205322265625
 20
341.17031860351562
 42
-0
  0
VERTEX
  8
0
 10
562.205322265625
 20
370.88446044921875
 42
0
  0
VERTEX
  8
0
 10
465.23284912109375
 20
370.88446044921875
 42
0
  0
SEQEND
  0
POLYLINE
  8
0
 10
0
 20
0
 39
0
 70
1
 66
1
  0
VERTEX
  8
0
 10
640.8800048828125
 20
10.159999847412109
 42
-0
  0
VERTEX
  8
0
 10
812.4254150390625
 20
10.159999847412109
 42
-0
  0
VERTEX
  8
0
 10
840.8800048828125
 20
37.552410125732422
 42
-0
  0
VERTEX
  8
0
 10
840.8800048828125
 20
245.83123779296875
 42
0
  0
VERTEX
  8
0
 10
640.8800048828125
 20
245.83123779296875
 42
0
  0
SEQEND
  0
POLYLINE
  8
0
 10
0
 20
0
 39
0
 70
1
 66
1
  0
VERTEX
  8
0
 10
653.42498779296875
 20
25.99681282043457
 42
-0
  0
VERTEX
  8
0
 10
653.42498779296875
 20
105.99681854248047
 42
-0
  0
VERTEX
  8
0
 10
753.42498779296875
 20
105.99681854248047
 42
-0
  0
VERTEX
  8
0
 10
753.42498779296875
 20
25.99681282043457
 42
-0
  0
SEQEND
  0
POLYLINE
  8
0
 10
0
 20
0
 39
0
 70
1
 66
1
  0
VERTEX
  8
0
 10
675.47283935546875
 20
201.12446594238281
 42
-1
  0
VERTEX
  8
0
 10
807.4453125
 20
95.410308837890625
 42
-0
  0
VERTEX
  8
0
 10
772.4453125
 20
95.410308837890625
 42
-0
  0
VERTEX
  8
0
 10
772.4453125
 20
125.12445831298828
 42
0
  0
VERTEX
  8
0
 10
675.47283935546875
 20
125.12445831298828
 42
0
  0
SEQEND
  0
POLYLINE
  8
0
 10
0
 20
0
 39
0
 70
1
 66
1
  0
VERTEX
  8
0
 10
640.8800048828125
 20
255.91999816894531
 42
-0
  0
VERTEX
  8
0
 10
812.4254150390625
 20
255.91999816894531
 42
-0
  0
VERTEX
  8
0
 10
840.8800048828125
 20
283.31240844726562
 42
-0
  0
VERTEX
  8
0
 10
840.8800048828125
 20
491.59124755859375
 42
0
  0
VERTEX
  8
0
 10
640.8800048828125
 20
491.59124755859375
 42
0
  0
SEQEND
  0
POLYLINE
  8
0
 10
0
 20
0
 39
0
 70
1
 66
1
  0
VERTEX
  8
0
 10
653.42498779296875
 20
271.75680541992187
 42
-0
  0
VERTEX
  8
0
 10
653.42498779296875
 20
351.75680541992187
 42
-0
  0
VERTEX
  8
0
 10
753.42498779296875
 20
351.75680541992187
 42
-0
  0
VERTEX
  8
0
 10
753.42498779296875
 20
271.75680541992187
 42
-0
  0
SEQEND
  0
POLYLINE
  8
0
 10
0
 20
0
 39
0
 70
1
 66
1
  0
VERTEX
  8
0
 10
675.47283935546875
 20
446.88446044921875
 42
-1
  0
VERTEX
  8
0
 10
807.4453125
 20
341.17031860351562
 42
-0
  0
VERTEX
  8
0
 10
772.4453125
 20
341.17031860351562
 42
-0
  0
VERTEX
  8
0
 10
772.4453125
 20
370.88446044921875
 42
0
  0
VERTEX
  8
0
 10
675.47283935546875
 20
370.88446044921875
 42
0
  0
SEQEND
  0
POLYLINE
  8
0
 10
0
 20
0
 39
0
 70
1
 66
1
  0
VERTEX
  8
0
 10
851.1199951171875
 20
10.159999847412109
 42
-0
  0
VERTEX
  8
0
 10
1022.6654052734375
 20
10.159999847412109
 42
-0
  0
VERTEX
  8
0
 10
1051.1199951171875
 20
37.552410125732422
 42
-0
  0
VERTEX
  8
0
 10
1051.1199951171875
 20
245.83123779296875
 42
0
  0
VERTEX
  8
0
 10
851.1199951171875
 20
245.83123779296875
 42
0
  0
SEQEND
  0
POLYLINE
  8
0
 10
0
 20
0
 39
0
 70
1
 66
1
  0
VERTEX
  8
0
 10
863.66497802734375
 20
25.99681282043457
 42
-0
  0
VERTEX
  8
0
 10
863.66497802734375
 20
105.99681854248047
 42
-0
  0
VERTEX
  8
0
 10
963.66497802734375
 20
105.99681854248047
 42
-0
  0
VERTEX
  8
0
 10
963.66497802734375
 20
25.99681282043457
 42
-0
  0
SEQEND
  0
POLYLINE
  8
0
 10
0
 20
0
 39
0
 70
1
 66
1
  0
VERTEX
  8
0
 10
885.71282958984375
 20
201.12446594238281
 42
-1
  0
VERTEX
  8
0
 10
1017.685302734375
 20
95.410308837890625
 42
-0
  0
VERTEX
  8
0
 10
982.685302734375
 20
95.410308837890625
 42
-0
  0
VERTEX
  8
0
 10
982.685302734375
 20
125.12445831298828
 42
0
  0
VERTEX
  8
0
 10
885.71282958984375
 20
125.12445831298828
 42
0
  0
SEQEND
  0
POLYLINE
  8
0
 10
0
 20
0
 39
0
 70
1
 66
1
  0
VERTEX
  8
0
 10
851.1199951171875
 20
255.91999816894531
 42
-0
  0
VERTEX
  8
0
 10
1022.6654052734375
 20
255.91999816894531
 42
-0
  0
VERTEX
  8
0
 10
1051.1199951171875
 20
283.31240844726562
 42
-0
  0
VERTEX
  8
0
 10
1051.1199951171875
 20
491.59124755859375
 42
0
  0
VERTEX
  8
0
 10
851.1199951171875
 20
491.59124755859375
 42
0
  0
SEQEND
  0
POLYLINE
  8
0
 10
0
 20
0
 39
0
 70
1
 66
1
  0
VERTEX
  8
0
 10
863.66497802734375
 20
271.75680541992187
 42
-0
  0
VERTEX
  8
0
 10
863.66497802734375
 20
351.75680541992187
 42
-0
  0
VERTEX
  8
0
 10
963.66497802734375
 20
351.75680541992187
 42
-0
  0
VERTEX
  8
0
 10
963.66497802734375
 20
271.75680541992187
 42
-0
  0
SEQEND
  0
POLYLINE
  8
0
 10
0
 20
0
 39
0
 70
1
 66
1
  0
VERTEX
  8
0
 10
885.71282958984375
 20
446.88446044921875
 42
-1
  0
VERTEX
  8
0
 10
1017.685302734375
 20
341.17031860351562
 42
-0
  0
VERTEX
  8
0
 10
982.685302734375
 20
341.17031860351562
 42
-0
  0
VERTEX
  8
0
 10
982.685302734375
 20
370.88446044921875
 42
0
  0
VERTEX
  8
0
 10
885.71282958984375
 20
370.88446044921875
 42
0
  0
SEQEND
  0
POLYLINE
  8
0
 10
0
 20
0
 39
0
 70
1
 66
1
  0
VERTEX
  8
0
 10
1116.558837890625
 20
456.79998779296875
 42
-0
  0
VERTEX
  8
0
 10
1116.558837890625
 20
526.345947265625
 42
-0
  0
VERTEX
  8
0
 10
1080.558837890625
 20
526.345947265625
 42
0
  0
VERTEX
  8
0
 10
1080.558837890625
 20
554.2120361328125
 42
0
  0
VERTEX
  8
0
 10
1036.2012939453125
 20
554.2120361328125
 42
0
  0
VERTEX
  8
0
 10
1036.2012939453125
 20
579.90435791015625
 42
0
  0
VERTEX
  8
0
 10
953.3599853515625
 20
579.90435791015625
 42
0
  0
VERTEX
  8
0
 10
953.3599853515625
 20
501.79998779296875
 42
-0
  0
VERTEX
  8
0
 10
1061.558837890625
 20
501.79998779296875
 42
-0
  0
VERTEX
  8
0
 10
1061.558837890625
 20
456.79998779296875
 42
-0
  0
SEQEND
  0
POLYLINE
  8
0
 10
0
 20
0
 39
0
 70
1
 66
1
  0
VERTEX
  8
0
 10
1069.4710693359375
 20
484.67022705078125
 42
-1
  0
VERTEX
  8
0
 10
1108.646484375
 20
484.67022705078125
 42
-1
  0
SEQEND
  0
POLYLINE
  8
0
 10
0
 20
0
 39
0
 70
1
 66
1
  0
VERTEX
  8
0
 10
1184.46435546875
 20
173.35879516601562
 42
-0
  0
VERTEX
  8
0
 10
1114.91845703125
 20
173.35879516601562
 42
-0
  0
VERTEX
  8
0
 10
1114.91845703125
 20
137.35879516601562
 42
0
  0
VERTEX
  8
0
 10
1087.0523681640625
 20
137.35879516601562
 42
0
  0
VERTEX
  8
0
 10
1087.0523681640625
 20
93.001274108886719
 42
0
  0
VERTEX
  8
0
 10
1061.3599853515625
 20
93.001274108886719
 42
0
  0
VERTEX
  8
0
 10
1061.3599853515625
 20
10.159999847412109
 42
0
  0
VERTEX
  8
0
 10
1139.46435546875
 20
10.159999847412109
 42
-0
  0
VERTEX
  8
0
 10
1139.46435546875
 20
118.35879516601562
 42
-0
  0
VERTEX
  8
0
 10
1184.46435546875
 20
118.35879516601562
 42
-0
  0
SEQEND
  0
POLYLINE
  8
0
 10
0
 20
0
 39
0
 70
1
 66
1
  0
VERTEX
  8
0
 10
1156.5941162109375
 20
126.27106475830078
 42
-1
  0
VERTEX
  8
0
 10
1156.5941162109375
 20
165.44651794433594
 42
-1
  0
SEQEND
  0
POLYLINE
  8
0
 10
0
 20
0
 39
0
 70
1
 66
1
  0
VERTEX
  8
0
 10
185.16000366210937
 20
501.67999267578125
 42
-0
  0
VERTEX
  8
0
 10
185.16000366210937
 20
567.71795654296875
 42
0
  0
VERTEX
  8
0
 10
166.27772521972656
 20
581.67999267578125
 42
-0
  0
VERTEX
  8
0
 10
112.44679260253906
 20
581.67999267578125
 42
-0
  0
VERTEX
  8
0
 10
97.660003662109375
 20
570.74627685546875
 42
0
  0
VERTEX
  8
0
 10
82.873214721679688
 20
581.67999267578125
 42
-0
  0
VERTEX
  8
0
 10
29.042278289794922
 20
581.67999267578125
 42
-0
  0
VERTEX
  8
0
 10
10.159999847412109
 20
567.71795654296875
 42
-0
  0
VERTEX
  8
0
 10
10.159999847412109
 20
501.67999267578125
 42
0
  0
SEQEND
  0
POLYLINE
  8
0
 10
0
 20
0
 39
0
 70
1
 66
1
  0
VERTEX
  8
0
 10
168.66000366210937
 20
517.27435302734375
 42
-0
  0
VERTEX
  8
0
 10
26.659999847412109
 20
517.27435302734375
 42
-0
  0
VERTEX
  8
0
 10
26.659999847412109
 20
562.27435302734375
 42
-0
  0
VERTEX
  8
0
 10
56.659999847412109
 20
562.27435302734375
 42
-0
  0
VERTEX
  8
0
 10
56.659999847412109
 20
539.27435302734375
 42
0
  0
VERTEX
  8
0
 10
138.66000366210937
 20
539.27435302734375
 42
0
  0
VERTEX
  8
0
 10
138.66000366210937
 20
562.27435302734375
 42
0
  0
VERTEX
  8
0
 10
168.66000366210937
 20
562.27435302734375
 42
0
  0
SEQEND
  0
POLYLINE
  8
0
 10
0
 20
0
 39
0
 70
1
 66
1
  0
VERTEX
  8
0
 10
370.32000732421875
 20
501.67999267578125
 42
-0
  0
VERTEX
  8
0
 10
370.32000732421875
 20
567.71795654296875
 42
0
  0
VERTEX
  8
0
 10
351.43771362304688
 20
581.67999267578125
 42
-0
  0
VERTEX
  8
0
 10
297.60678100585937
 20
581.67999267578125
 42
-0
  0
VERTEX
  8
0
 10
282.82000732421875
 20
570.74627685546875
 42
0
  0
VERTEX
  8
0
 10
268.033203125
 20
581.67999267578125
 42
-0
  0
VERTEX
  8
0
 10
214.20228576660156
 20
581.67999267578125
 42
-0
  0
VERTEX
  8
0
 10
195.32000732421875
 20
567.71795654296875
 42
-0
  0
VERTEX
  8
0
 10
195.32000732421875
 20
501.67999267578125
 42
0
  0
SEQEND
  0
POLYLINE
  8
0
 10
0
 20
0
 39
0
 70
1
 66
1
  0
VERTEX
  8
0
 10
353.82000732421875
 20
517.27435302734375
 42
-0
  0
VERTEX
  8
0
 10
211.82000732421875
 20
517.27435302734375
 42
-0
  0
VERTEX
  8
0
 10
211.82000732421875
 20
562.27435302734375
 42
-0
  0
VERTEX
  8
0
 10
241.82000732421875
 20
562.27435302734375
 42
-0
  0
VERTEX
  8
0
 10
241.82000732421875
 20
539.27435302734375
 42
0
  0
VERTEX
  8
0
 10
323.82000732421875
 20
539.27435302734375
 42
0
  0
VERTEX
  8
0
 10
323.82000732421875
 20
562.27435302734375
 42
0
  0
VERTEX
  8
0
 10
353.82000732421875
 20
562.27435302734375
 42
0
  0
SEQEND
  0
POLYLINE
  8
0
 10
0
 20
0
 39
0
 70
1
 66
1
  0
VERTEX
  8
0
 10
555.47998046875
 20
501.67999267578125
 42
-0
  0
VERTEX
  8
0
 10
555.47998046875
 20
567.71795654296875
 42
0
  0
VERTEX
  8
0
 10
536.59771728515625
 20
581.67999267578125
 42
-0
  0
VERTEX
  8
0
 10
482.76678466796875
 20
581.67999267578125
 42
-0
  0
VERTEX
  8
0
 10
467.98001098632812
 20
570.74627685546875
 42
0
  0
VERTEX
  8
0
 10
453.19320678710937
 20
581.67999267578125
 42
-0
  0
VERTEX
  8
0
 10
399.36227416992187
 20
581.67999267578125
 42
-0
  0
VERTEX
  8
0
 10
380.48001098632812
 20
567.71795654296875
 42
-0
  0
VERTEX
  8
0
 10
380.48001098632812
 20
501.67999267578125
 42
0
  0
SEQEND
  0
POLYLINE
  8
0
 10
0
 20
0
 39
0
 70
1
 66
1
  0
VERTEX
  8
0
 10
538.97998046875
 20
517.27435302734375
 42
-0
  0
VERTEX
  8
0
 10
396.98001098632812
 20
517.27435302734375
 42
-0
  0
VERTEX
  8
0
 10
396.98001098632812
 20
562.27435302734375
 42
-0
  0
VERTEX
  8
0
 10
426.98001098632812
 20
562.27435302734375
 42
-0
  0
VERTEX
  8
0
 10
426.98001098632812
 20
539.27435302734375
 42
0
  0
VERTEX
  8
0
 10
508.98001098632812
 20
539.27435302734375
 42
0
  0
VERTEX
  8
0
 10
508.98001098632812
 20
562.27435302734375
 42
0
  0
VERTEX
  8
0
 10
538.97998046875
 20
562.27435302734375
 42
0
  0
SEQEND
  0
POLYLINE
  8
0
 10
0
 20
0
 39
0
 70
1
 66
1
  0
VERTEX
  8
0
 10
740.6400146484375
 20
501.67999267578125
 42
-0
  0
VERTEX
  8
0
 10
740.6400146484375
 20
567.71795654296875
 42
0
  0
VERTEX
  8
0
 10
721.75775146484375
 20
581.67999267578125
 42
-0
  0
VERTEX
  8
0
 10
667.92681884765625
 20
581.67999267578125
 42
-0
  0
VERTEX
  8
0
 10
653.1400146484375
 20
570.74627685546875
 42
0
  0
VERTEX
  8
0
 10
638.35321044921875
 20
581.67999267578125
 42
-0
  0
VERTEX
  8
0
 10
584.52227783203125
 20
581.67999267578125
 42
-0
  0
VERTEX
  8
0
 10
565.6400146484375
 20
567.71795654296875
 42
-0
  0
VERTEX
  8
0
 10
565.6400146484375
 20
501.67999267578125
 42
0
  0
SEQEND
  0
POLYLINE
  8
0
 10
0
 20
0
 39
0
 70
1
 66
1
  0
VERTEX
  8
0
 10
724.1400146484375
 20
517.27435302734375
 42
-0
  0
VERTEX
  8
0
 10
582.1400146484375
 20
517.27435302734375
 42
-0
  0
VERTEX
  8
0
 10
582.1400146484375
 20
562.27435302734375
 42
-0
  0
VERTEX
  8
0
 10
612.1400146484375
 20
562.27435302734375
 42
-0
  0
VERTEX
  8
0
 10
612.1400146484375
 20
539.27435302734375
 42
0
  0
VERTEX
  8
0
 10
694.1400146484375
 20
539.27435302734375
 42
0
  0
VERTEX
  8
0
 10
694.1400146484375
 20
562.27435302734375
 42
0
  0
VERTEX
  8
0
 10
724.1400146484375
 20
562.27435302734375
 42
0
  0
SEQEND
  0
POLYLINE
  8
0
 10
0
 20
0
 39
0
 70
1
 66
1
  0
VERTEX
  8
0
 10
925.79998779296875
 20
501.67999267578125
 42
-0
  0
VERTEX
  8
0
 10
925.79998779296875
 20
567.71795654296875
 42
0
  0
VERTEX
  8
0
 10
906.917724609375
 20
581.67999267578125
 42
-0
  0
VERTEX
  8
0
 10
853.0867919921875
 20
581.67999267578125
 42
-0
  0
VERTEX
  8
0
 10
838.29998779296875
 20
570.74627685546875
 42
0
  0
VERTEX
  8
0
 10
823.51318359375
 20
581.67999267578125
 42
-0
  0
VERTEX
  8
0
 10
769.6822509765625
 20
581.67999267578125
 42
-0
  0
VERTEX
  8
0
 10
750.79998779296875
 20
567.71795654296875
 42
-0
  0
VERTEX
  8
0
 10
750.79998779296875
 20
501.67999267578125
 42
0
  0
SEQEND
  0
POLYLINE
  8
0
 10
0
 20
0
 39
0
 70
1
 66
1
  0
VERTEX
  8
0
 10
909.29998779296875
 20
517.27435302734375
 42
-0
  0
VERTEX
  8
0
 10
767.29998779296875
 20
517.27435302734375
 42
-0
  0
VERTEX
  8
0
 10
767.29998779296875
 20
562.27435302734375
 42
-0
  0
VERTEX
  8
0
 10
797.29998779296875
 20
562.27435302734375
 42
-0
  0
VERTEX
  8
0
 10
797.29998779296875
 20
539.27435302734375
 42
0
  0
VERTEX
  8
0
 10
879.29998779296875
 20
539.27435302734375
 42
0
  0
VERTEX
  8
0
 10
879.29998779296875
 20
562.27435302734375
 42
0
  0
VERTEX
  8
0
 10
909.29998779296875
 20
562.27435302734375
 42
0
  0
SEQEND
  0
POLYLINE
  8
0
 10
0
 20
0
 39
0
 70
1
 66
1
  0
VERTEX
  8
0
 10
164.91999816894531
 20
135.32000732421875
 42
-0
  0
VERTEX
  8
0
 10
164.91999816894531
 20
185.32000732421875
 42
-0
  0
VERTEX
  8
0
 10
54.919998168945313
 20
185.32000732421875
 42
-0
  0
VERTEX
  8
0
 10
54.919998168945313
 20
173.32000732421875
 42
-1
  0
VERTEX
  8
0
 10
54.919998168945313
 20
147.32000732421875
 42
-0
  0
VERTEX
  8
0
 10
54.919998168945313
 20
135.32000732421875
 42
0
  0
SEQEND
  0
POLYLINE
  8
0
 10
0
 20
0
 39
0
 70
1
 66
1
  0
VERTEX
  8
0
 10
122.91999816894531
 20
160.32000732421875
 42
-1
  0
VERTEX
  8
0
 10
96.919998168945313
 20
160.32000732421875
 42
-1
  0
SEQEND
  0
POLYLINE
  8
0
 10
0
 20
0
 39
0
 70
1
 66
1
  0
VERTEX
  8
0
 10
164.91999816894531
 20
381.07998657226562
 42
-0
  0
VERTEX
  8
0
 10
164.91999816894531
 20
431.07998657226562
 42
-0
  0
VERTEX
  8
0
 10
54.919998168945313
 20
431.07998657226562
 42
-0
  0
VERTEX
  8
0
 10
54.919998168945313
 20
419.07998657226562
 42
-1
  0
VERTEX
  8
0
 10
54.919998168945313
 20
393.07998657226562
 42
-0
  0
VERTEX
  8
0
 10
54.919998168945313
 20
381.07998657226562
 42
0
  0
SEQEND
  0
POLYLINE
  8
0
 10
0
 20
0
 39
0
 70
1
 66
1
  0
VERTEX
  8
0
 10
151.30064392089844
 20
396.07998657226562
 42
0
  0
VERTEX
  8
0
 10
81.300643920898437
 20
396.07998657226562
 42
0
  0
VERTEX
  8
0
 10
81.300643920898437
 20
416.07998657226562
 42
0
  0
VERTEX
  8
0
 10
151.30064392089844
 20
416.07998657226562
 42
0
  0
SEQEND
  0
POLYLINE
  8
0
 10
0
 20
0
 39
0
 70
1
 66
1
  0
VERTEX
  8
0
 10
375.16000366210937
 20
135.32000732421875
 42
-0
  0
VERTEX
  8
0
 10
375.16000366210937
 20
185.32000732421875
 42
-0
  0
VERTEX
  8
0
 10
265.16000366210937
 20
185.32000732421875
 42
-0
  0
VERTEX
  8
0
 10
265.16000366210937
 20
173.32000732421875
 42
-1
  0
VERTEX
  8
0
 10
265.16000366210937
 20
147.32000732421875
 42
-0
  0
VERTEX
  8
0
 10
265.16000366210937
 20
135.32000732421875
 42
0
  0
SEQEND
  0
POLYLINE
  8
0
 10
0
 20
0
 39
0
 70
1
 66
1
  0
VERTEX
  8
0
 10
333.16000366210937
 20
160.32000732421875
 42
-1
  0
VERTEX
  8
0
 10
307.16000366210937
 20
160.32000732421875
 42
-1
  0
SEQEND
  0
POLYLINE
  8
0
 10
0
 20
0
 39
0
 70
1
 66
1
  0
VERTEX
  8
0
 10
375.16000366210937
 20
381.07998657226562
 42
-0
  0
VERTEX
  8
0
 10
375.16000366210937
 20
431.07998657226562
 42
-0
  0
VERTEX
  8
0
 10
265.16000366210937
 20
431.07998657226562
 42
-0
  0
VERTEX
  8
0
 10
265.16000366210937
 20
419.07998657226562
 42
-1
  0
VERTEX
  8
0
 10
265.16000366210937
 20
393.07998657226562
 42
-0
  0
VERTEX
  8
0
 10
265.16000366210937
 20
381.07998657226562
 42
0
  0
SEQEND
  0
POLYLINE
  8
0
 10
0
 20
0
 39
0
 70
1
 66
1
  0
VERTEX
  8
0
 10
333.16000366210937
 20
406.07998657226562
 42
-1
  0
VERTEX
  8
0
 10
307.16000366210937
 20
406.07998657226562
 42
-1
  0
SEQEND
  0
POLYLINE
  8
0
 10
0
 20
0
 39
0
 70
1
 66
1
  0
VERTEX
  8
0
 10
585.4000244140625
 20
135.32000732421875
 42
-0
  0
VERTEX
  8
0
 10
585.4000244140625
 20
185.32000732421875
 42
-0
  0
VERTEX
  8
0
 10
475.39999389648437
 20
185.32000732421875
 42
-0
  0
VERTEX
  8
0
 10
475.39999389648437
 20
173.32000732421875
 42
-1
  0
VERTEX
  8
0
 10
475.39999389648437
 20
147.32000732421875
 42
-0
  0
VERTEX
  8
0
 10
475.39999389648437
 20
135.32000732421875
 42
0
  0
SEQEND
  0
POLYLINE
  8
0
 10
0
 20
0
 39
0
 70
1
 66
1
  0
VERTEX
  8
0
 10
543.4000244140625
 20
160.32000732421875
 42
-1
  0
VERTEX
  8
0
 10
517.4000244140625
 20
160.32000732421875
 42
-1
  0
SEQEND
  0
POLYLINE
  8
0
 10
0
 20
0
 39
0
 70
1
 66
1
  0
VERTEX
  8
0
 10
585.4000244140625
 20
381.07998657226562
 42
-0
  0
VERTEX
  8
0
 10
585.4000244140625
 20
431.07998657226562
 42
-0
  0
VERTEX
  8
0
 10
475.39999389648437
 20
431.07998657226562
 42
-0
  0
VERTEX
  8
0
 10
475.39999389648437
 20
419.07998657226562
 42
-1
  0
VERTEX
  8
0
 10
475.39999389648437
 20
393.07998657226562
 42
-0
  0
VERTEX
  8
0
 10
475.39999389648437
 20
381.07998657226562
 42
0
  0
SEQEND
  0
POLYLINE
  8
0
 10
0
 20
0
 39
0
 70
1
 66
1
  0
VERTEX
  8
0
 10
543.4000244140625
 20
406.07998657226562
 42
-1
  0
VERTEX
  8
0
 10
517.4000244140625
 20
406.07998657226562
 42
-1
  0
SEQEND
  0
POLYLINE
  8
0
 10
0
 20
0
 39
0
 70
1
 66
1
  0
VERTEX
  8
0
 10
795.6400146484375
 20
135.32000732421875
 42
-0
  0
VERTEX
  8
0
 10
795.6400146484375
 20
185.32000732421875
 42
-0
  0
VERTEX
  8
0
 10
685.6400146484375
 20
185.32000732421875
 42
-0
  0
VERTEX
  8
0
 10
685.6400146484375
 20
173.32000732421875
 42
-1
  0
VERTEX
  8
0
 10
685.6400146484375
 20
147.32000732421875
 42
-0
  0
VERTEX
  8
0
 10
685.6400146484375
 20
135.32000732421875
 42
0
  0
SEQEND
  0
POLYLINE
  8
0
 10
0
 20
0
 39
0
 70
1
 66
1
  0
VERTEX
  8
0
 10
753.6400146484375
 20
160.32000732421875
 42
-1
  0
VERTEX
  8
0
 10
727.6400146484375
 20
160.32000732421875
 42
-1
  0
SEQEND
  0
POLYLINE
  8
0
 10
0
 20
0
 39
0
 70
1
 66
1
  0
VERTEX
  8
0
 10
795.6400146484375
 20
381.07998657226562
 42
-0
  0
VERTEX
  8
0
 10
795.6400146484375
 20
431.07998657226562
 42
-0
  0
VERTEX
  8
0
 10
685.6400146484375
 20
431.07998657226562
 42
-0
  0
VERTEX
  8
0
 10
685.6400146484375
 20
419.07998657226562
 42
-1
  0
VERTEX
  8
0
 10
685.6400146484375
 20
393.07998657226562
 42
-0
  0
VERTEX
  8
0
 10
685.6400146484375
 20
381.07998657226562
 42
0
  0
SEQEND
  0
POLYLINE
  8
0
 10
0
 20
0
 39
0
 70
1
 66
1
  0
VERTEX
  8
0
 10
753.6400146484375
 20
406.07998657226562
 42
-1
  0
VERTEX
  8
0
 10
727.6400146484375
 20
406.07998657226562
 42
-1
  0
SEQEND
  0
POLYLINE
  8
0
 10
0
 20
0
 39
0
 70
1
 66
1
  0
VERTEX
  8
0
 10
1005.8800048828125
 20
135.32000732421875
 42
-0
  0
VERTEX
  8
0
 10
1005.8800048828125
 20
185.32000732421875
 42
-0
  0
VERTEX
  8
0
 10
895.8800048828125
 20
185.32000732421875
 42
-0
  0
VERTEX
  8
0
 10
895.8800048828125
 20
173.32000732421875
 42
-1
  0
VERTEX
  8
0
 10
895.8800048828125
 20
147.32000732421875
 42
-0
  0
VERTEX
  8
0
 10
895.8800048828125
 20
135.32000732421875
 42
0
  0
SEQEND
  0
POLYLINE
  8
0
 10
0
 20
0
 39
0
 70
1
 66
1
  0
VERTEX
  8
0
 10
963.8800048828125
 20
160.32000732421875
 42
-1
  0
VERTEX
  8
0
 10
937.8800048828125
 20
160.32000732421875
 42
-1
  0
SEQEND
  0
POLYLINE
  8
0
 10
0
 20
0
 39
0
 70
1
 66
1
  0
VERTEX
  8
0
 10
1005.8800048828125
 20
381.07998657226562
 42
-0
  0
VERTEX
  8
0
 10
1005.8800048828125
 20
431.07998657226562
 42
-0
  0
VERTEX
  8
0
 10
895.8800048828125
 20
431.07998657226562
 42
-0
  0
VERTEX
  8
0
 10
895.8800048828125
 20
419.07998657226562
 42
-1
  0
VERTEX
  8
0
 10
895.8800048828125
 20
393.07998657226562
 42
-0
  0
VERTEX
  8
0
 10
895.8800048828125
 20
381.07998657226562
 42
0
  0
SEQEND
  0
POLYLINE
  8
0
 10
0
 20
0
 39
0
 70
1
 66
1
  0
VERTEX
  8
0
 10
992.2606201171875
 20
396.07998657226562
 42
0
  0
VERTEX
  8
0
 10
922.2606201171875
 20
396.07998657226562
 42
0
  0
VERTEX
  8
0
 10
922.2606201171875
 20
416.07998657226562
 42
0
  0
VERTEX
  8
0
 10
992.2606201171875
 20
416.07998657226562
 42
0
  0
SEQEND
  0
POLYLINE
  8
0
 10
0
 20
0
 39
0
 70
1
 66
1
  0
VERTEX
  8
0
 10
1061.3599853515625
 20
183.08000183105469
 42
-0
  0
VERTEX
  8
0
 10
1111.3599853515625
 20
183.08000183105469
 42
-0
  0
VERTEX
  8
0
 10
1111.3599853515625
 20
293.07998657226562
 42
-0
  0
VERTEX
  8
0
 10
1099.3599853515625
 20
293.07998657226562
 42
-1
  0
VERTEX
  8
0
 10
1073.3599853515625
 20
293.07998657226562
 42
-0
  0
VERTEX
  8
0
 10
1061.3599853515625
 20
293.07998657226562
 42
0
  0
SEQEND
  0
POLYLINE
  8
0
 10
0
 20
0
 39
0
 70
1
 66
1
  0
VERTEX
  8
0
 10
1076.3599853515625
 20
196.69935607910156
 42
0
  0
VERTEX
  8
0
 10
1076.3599853515625
 20
266.6993408203125
 42
0
  0
VERTEX
  8
0
 10
1096.3599853515625
 20
266.6993408203125
 42
0
  0
VERTEX
  8
0
 10
1096.3599853515625
 20
196.69935607910156
 42
0
  0
SEQEND
  0
POLYLINE
  8
0
 10
0
 20
0
 39
0
 70
1
 66
1
  0
VERTEX
  8
0
 10
1061.3599853515625
 20
303.20001220703125
 42
-0
  0
VERTEX
  8
0
 10
1111.3599853515625
 20
303.20001220703125
 42
-0
  0
VERTEX
  8
0
 10
1111.3599853515625
 20
413.20001220703125
 42
-0
  0
VERTEX
  8
0
 10
1099.3599853515625
 20
413.20001220703125
 42
-1
  0
VERTEX
  8
0
 10
1073.3599853515625
 20
413.20001220703125
 42
-0
  0
VERTEX
  8
0
 10
1061.3599853515625
 20
413.20001220703125
 42
0
  0
SEQEND
  0
POLYLINE
  8
0
 10
0
 20
0
 39
0
 70
1
 66
1
  0
VERTEX
  8
0
 10
1076.3599853515625
 20
316.81936645507812
 42
0
  0
VERTEX
  8
0
 10
1076.3599853515625
 20
386.81936645507812
 42
0
  0
VERTEX
  8
0
 10
1096.3599853515625
 20
386.81936645507812
 42
0
  0
VERTEX
  8
0
 10
1096.3599853515625
 20
316.81936645507812
 42
0
  0
SEQEND
  0
POLYLINE
  8
0
 10
0
 20
0
 39
0
 70
1
 66
1
  0
VERTEX
  8
0
 10
1121.5999755859375
 20
183.44000244140625
 42
-0
  0
VERTEX
  8
0
 10
1171.5999755859375
 20
183.44000244140625
 42
-0
  0
VERTEX
  8
0
 10
1171.5999755859375
 20
293.44000244140625
 42
-0
  0
VERTEX
  8
0
 10
1159.5999755859375
 20
293.44000244140625
 42
-1
  0
VERTEX
  8
0
 10
1133.5999755859375
 20
293.44000244140625
 42
-0
  0
VERTEX
  8
0
 10
1121.5999755859375
 20
293.44000244140625
 42
0
  0
SEQEND
  0
POLYLINE
  8
0
 10
0
 20
0
 39
0
 70
1
 66
1
  0
VERTEX
  8
0
 10
1136.5999755859375
 20
197.05935668945312
 42
0
  0
VERTEX
  8
0
 10
1136.5999755859375
 20
267.05935668945312
 42
0
  0
VERTEX
  8
0
 10
1156.5999755859375
 20
267.05935668945312
 42
0
  0
VERTEX
  8
0
 10
1156.5999755859375
 20
197.05935668945312
 42
0
  0
SEQEND
  0
POLYLINE
  8
0
 10
0
 20
0
 39
0
 70
1
 66
1
  0
VERTEX
  8
0
 10
1121.5999755859375
 20
303.55999755859375
 42
-0
  0
VERTEX
  8
0
 10
1171.5999755859375
 20
303.55999755859375
 42
-0
  0
VERTEX
  8
0
 10
1171.5999755859375
 20
413.55999755859375
 42
-0
  0
VERTEX
  8
0
 10
1159.5999755859375
 20
413.55999755859375
 42
-1
  0
VERTEX
  8
0
 10
1133.5999755859375
 20
413.55999755859375
 42
-0
  0
VERTEX
  8
0
 10
1121.5999755859375
 20
413.55999755859375
 42
0
  0
SEQEND
  0
POLYLINE
  8
0
 10
0
 20
0
 39
0
 70
1
 66
1
  0
VERTEX
  8
0
 10
1136.5999755859375
 20
317.17935180664062
 42
0
  0
VERTEX
  8
0
 10
1136.5999755859375
 20
387.17935180664062
 42
0
  0
VERTEX
  8
0
 10
1156.5999755859375
 20
387.17935180664062
 42
0
  0
VERTEX
  8
0
 10
1156.5999755859375
 20
317.17935180664062
 42
0
  0
SEQEND
  0
POLYLINE
  8
0
 10
0
 20
0
 39
0
 70
1
 66
1
  0
VERTEX
  8
0
 10
1126.760009765625
 20
423.67999267578125
 42
-0
  0
VERTEX
  8
0
 10
1176.760009765625
 20
423.67999267578125
 42
-0
  0
VERTEX
  8
0
 10
1176.760009765625
 20
533.67999267578125
 42
-0
  0
VERTEX
  8
0
 10
1164.760009765625
 20
533.67999267578125
 42
-1
  0
VERTEX
  8
0
 10
1138.760009765625
 20
533.67999267578125
 42
-0
  0
VERTEX
  8
0
 10
1126.760009765625
 20
533.67999267578125
 42
0
  0
SEQEND
  0
POLYLINE
  8
0
 10
0
 20
0
 39
0
 70
1
 66
1
  0
VERTEX
  8
0
 10
1141.760009765625
 20
437.29934692382812
 42
0
  0
VERTEX
  8
0
 10
1141.760009765625
 20
507.29934692382813
 42
0
  0
VERTEX
  8
0
 10
1161.760009765625
 20
507.29934692382813
 42
0
  0
VERTEX
  8
0
 10
1161.760009765625
 20
437.29934692382812
 42
0
  0
SEQEND
  0
POLYLINE
  8
0
 10
0
 20
0
 39
0
 70
1
 66
1
  0
VERTEX
  8
0
 10
1180.760009765625
 20
543.79998779296875
 42
-0
  0
VERTEX
  8
0
 10
1180.760009765625
 20
583.79998779296875
 42
-0
  0
VERTEX
  8
0
 10
1090.760009765625
 20
583.79998779296875
 42
-0
  0
VERTEX
  8
0
 10
1090.760009765625
 20
543.79998779296875
 42
0
  0
SEQEND
  0
POLYLINE
  8
0
 10
0
 20
0
 39
0
 70
1
 66
1
  0
VERTEX
  8
0
 10
1147.760009765625
 20
563.79998779296875
 42
-1
  0
VERTEX
  8
0
 10
1123.760009765625
 20
563.79998779296875
 42
-1
  0
SEQEND
  0
POLYLINE
  8
0
 10
0
 20
0
 39
0
 70
1
 66
1
  0
VERTEX
  8
0
 10
1149.6800537109375
 20
10.159999847412109
 42
-0
  0
VERTEX
  8
0
 10
1189.6800537109375
 20
10.159999847412109
 42
-0
  0
VERTEX
  8
0
 10
1189.6800537109375
 20
100.16000366210937
 42
-0
  0
VERTEX
  8
0
 10
1149.6800537109375
 20
100.16000366210937
 42
0
  0
SEQEND
  0
POLYLINE
  8
0
 10
0
 20
0
 39
0
 70
1
 66
1
  0
VERTEX
  8
0
 10
1169.6800537109375
 20
43.159999847412109
 42
-1
  0
VERTEX
  8
0
 10
1169.6800537109375
 20
67.160003662109375
 42
-1
  0
SEQEND
  0
POLYLINE
  8
0
 10
0
 20
0
 39
0
 70
1
 66
1
  0
VERTEX
  8
0
 10
61.631702423095703
 20
46.200000762939453
 42
3.2966630458831787
  0
VERTEX
  8
0
 10
61.631702423095703
 20
71.199996948242187
 42
0
  0
VERTEX
  8
0
 10
32.840000152587891
 20
71.199996948242187
 42
0
  0
VERTEX
  8
0
 10
32.840000152587891
 20
46.200000762939453
 42
0
  0
SEQEND
  0
POLYLINE
  8
0
 10
0
 20
0
 39
0
 70
1
 66
1
  0
VERTEX
  8
0
 10
80.340011596679687
 20
46.200000762939453
 42
-1
  0
VERTEX
  8
0
 10
80.340011596679687
 20
71.199996948242187
 42
-1
  0
SEQEND
  0
POLYLINE
  8
0
 10
0
 20
0
 39
0
 70
1
 66
1
  0
VERTEX
  8
0
 10
61.631702423095703
 20
291.95999145507812
 42
3.2966630458831787
  0
VERTEX
  8
0
 10
61.631702423095703
 20
316.95999145507812
 42
0
  0
VERTEX
  8
0
 10
32.840000152587891
 20
316.95999145507812
 42
0
  0
VERTEX
  8
0
 10
32.840000152587891
 20
291.95999145507812
 42
0
  0
SEQEND
  0
POLYLINE
  8
0
 10
0
 20
0
 39
0
 70
1
 66
1
  0
VERTEX
  8
0
 10
80.340011596679687
 20
291.95999145507812
 42
-1
  0
VERTEX
  8
0
 10
80.340011596679687
 20
316.95999145507812
 42
-1
  0
SEQEND
  0
POLYLINE
  8
0
 10
0
 20
0
 39
0
 70
1
 66
1
  0
VERTEX
  8
0
 10
271.99169921875
 20
46.200000762939453
 42
3.2966630458831787
  0
VERTEX
  8
0
 10
271.99169921875
 20
71.199996948242187
 42
0
  0
VERTEX
  8
0
 10
243.19999694824219
 20
71.199996948242187
 42
0
  0
VERTEX
  8
0
 10
243.19999694824219
 20
46.200000762939453
 42
0
  0
SEQEND
  0
POLYLINE
  8
0
 10
0
 20
0
 39
0
 70
1
 66
1
  0
VERTEX
  8
0
 10
290.70001220703125
 20
46.200000762939453
 42
-1
  0
VERTEX
  8
0
 10
290.70001220703125
 20
71.199996948242187
 42
-1
  0
SEQEND
  0
POLYLINE
  8
0
 10
0
 20
0
 39
0
 70
1
 66
1
  0
VERTEX
  8
0
 10
271.99169921875
 20
291.95999145507812
 42
3.2966630458831787
  0
VERTEX
  8
0
 10
271.99169921875
 20
316.95999145507812
 42
0
  0
VERTEX
  8
0
 10
243.19999694824219
 20
316.95999145507812
 42
0
  0
VERTEX
  8
0
 10
243.19999694824219
 20
291.95999145507812
 42
0
  0
SEQEND
  0
POLYLINE
  8
0
 10
0
 20
0
 39
0
 70
1
 66
1
  0
VERTEX
  8
0
 10
290.70001220703125
 20
291.95999145507812
 42
-1
  0
VERTEX
  8
0
 10
290.70001220703125
 20
316.95999145507812
 42
-1
  0
SEQEND
  0
POLYLINE
  8
0
 10
0
 20
0
 39
0
 70
1
 66
1
  0
VERTEX
  8
0
 10
482.1116943359375
 20
46.200000762939453
 42
3.2966630458831787
  0
VERTEX
  8
0
 10
482.1116943359375
 20
71.199996948242187
 42
0
  0
VERTEX
  8
0
 10
453.32000732421875
 20
71.199996948242187
 42
0
  0
VERTEX
  8
0
 10
453.32000732421875
 20
46.200000762939453
 42
0
  0
SEQEND
  0
POLYLINE
  8
0
 10
0
 20
0
 39
0
 70
1
 66
1
  0
VERTEX
  8
0
 10
500.82000732421875
 20
46.200000762939453
 42
-1
  0
VERTEX
  8
0
 10
500.82000732421875
 20
71.199996948242187
 42
-1
  0
SEQEND
  0
POLYLINE
  8
0
 10
0
 20
0
 39
0
 70
1
 66
1
  0
VERTEX
  8
0
 10
482.1116943359375
 20
291.95999145507812
 42
3.2966630458831787
  0
VERTEX
  8
0
 10
482.1116943359375
 20
316.95999145507812
 42
0
  0
VERTEX
  8
0
 10
453.32000732421875
 20
316.95999145507812
 42
0
  0
VERTEX
  8
0
 10
453.32000732421875
 20
291.95999145507812
 42
0
  0
SEQEND
  0
POLYLINE
  8
0
 10
0
 20
0
 39
0
 70
1
 66
1
  0
VERTEX
  8
0
 10
500.82000732421875
 20
291.95999145507812
 42
-1
  0
VERTEX
  8
0
 10
500.82000732421875
 20
316.95999145507812
 42
-1
  0
SEQEND
  0
POLYLINE
  8
0
 10
0
 20
0
 39
0
 70
1
 66
1
  0
VERTEX
  8
0
 10
692.3516845703125
 20
46.200000762939453
 42
3.2966630458831787
  0
VERTEX
  8
0
 10
692.3516845703125
 20
71.199996948242187
 42
0
  0
VERTEX
  8
0
 10
663.55999755859375
 20
71.199996948242187
 42
0
  0
VERTEX
  8
0
 10
663.55999755859375
 20
46.200000762939453
 42
0
  0
SEQEND
  0
POLYLINE
  8
0
 10
0
 20
0
 39
0
 70
1
 66
1
  0
VERTEX
  8
0
 10
711.05999755859375
 20
46.200000762939453
 42
-1
  0
VERTEX
  8
0
 10
711.05999755859375
 20
71.199996948242187
 42
-1
  0
SEQEND
  0
POLYLINE
  8
0
 10
0
 20
0
 39
0
 70
1
 66
1
  0
VERTEX
  8
0
 10
692.3516845703125
 20
291.95999145507812
 42
3.2966630458831787
  0
VERTEX
  8
0
 10
692.3516845703125
 20
316.95999145507812
 42
0
  0
VERTEX
  8
0
 10
663.55999755859375
 20
316.95999145507812
 42
0
  0
VERTEX
  8
0
 10
663.55999755859375
 20
291.95999145507812
 42
0
  0
SEQEND
  0
POLYLINE
  8
0
 10
0
 20
0
 39
0
 70
1
 66
1
  0
VERTEX
  8
0
 10
711.05999755859375
 20
291.95999145507812
 42
-1
  0
VERTEX
  8
0
 10
711.05999755859375
 20
316.95999145507812
 42
-1
  0
SEQEND
  0
POLYLINE
  8
0
 10
0
 20
0
 39
0
 70
1
 66
1
  0
VERTEX
  8
0
 10
902.5916748046875
 20
46.200000762939453
 42
3.2966630458831787
  0
VERTEX
  8
0
 10
902.5916748046875
 20
71.199996948242187
 42
0
  0
VERTEX
  8
0
 10
873.79998779296875
 20
71.199996948242187
 42
0
  0
VERTEX
  8
0
 10
873.79998779296875
 20
46.200000762939453
 42
0
  0
SEQEND
  0
POLYLINE
  8
0
 10
0
 20
0
 39
0
 70
1
 66
1
  0
VERTEX
  8
0
 10
921.29998779296875
 20
46.200000762939453
 42
-1
  0
VERTEX
  8
0
 10
921.29998779296875
 20
71.199996948242187
 42
-1
  0
SEQEND
  0
POLYLINE
  8
0
 10
0
 20
0
 39
0
 70
1
 66
1
  0
VERTEX
  8
0
 10
902.5916748046875
 20
291.95999145507812
 42
3.2966630458831787
  0
VERTEX
  8
0
 10
902.5916748046875
 20
316.95999145507812
 42
0
  0
VERTEX
  8
0
 10
873.79998779296875
 20
316.95999145507812
 42
0
  0
VERTEX
  8
0
 10
873.79998779296875
 20
291.95999145507812
 42
0
  0
SEQEND
  0
POLYLINE
  8
0
 10
0
 20
0
 39
0
 70
1
 66
1
  0
VERTEX
  8
0
 10
921.29998779296875
 20
291.95999145507812
 42
-1
  0
VERTEX
  8
0
 10
921.29998779296875
 20
316.95999145507812
 42
-1
  0
SEQEND
  0
ENDSEC
  0
EOF
