  0
SECTION
  2
ENTITIES
  0
POLYLINE
  8
0
 10
0
 20
0
 39
0
 70
1
 66
1
  0
VERTEX
  8
0
 10
0
 20
0
 42
0
  0
VERTEX
  8
0
 10
2100
 20
0
 42
0
  0
VERTEX
  8
0
 10
2100
 20
1100
 42
0
  0
VERTEX
  8
0
 10
0
 20
1100
 42
0
  0
SEQEND
  0
POLYLINE
  8
0
 10
0
 20
0
 39
0
 70
1
 66
1
  0
VERTEX
  8
0
 10
10.250000000000028
 20
35.249999999999986
 42
-0
  0
VERTEX
  8
0
 10
10.25
 20
485.25
 42
-0
  0
VERTEX
  8
0
 10
386.05708694458008
 20
510.25
 42
0
  0
VERTEX
  8
0
 10
386.05708694458008
 20
10.250000000000007
 42
-0
  0
SEQEND
  0
POLYLINE
  8
0
 10
0
 20
0
 39
0
 70
1
 66
1
  0
VERTEX
  8
0
 10
51.455524444580107
 20
65.249999999999986
 42
-0
  0
VERTEX
  8
0
 10
217.15266799926761
 20
65.25
 42
0.6528351902961731
  0
VERTEX
  8
0
 10
217.15266799926758
 20
455.25
 42
0
  0
VERTEX
  8
0
 10
51.455524444580085
 20
455.25
 42
0
  0
SEQEND
  0
POLYLINE
  8
0
 10
0
 20
0
 39
0
 70
1
 66
1
  0
VERTEX
  8
0
 10
386.05708694458008
 20
970.98000000000002
 42
-0
  0
VERTEX
  8
0
 10
386.05708694458013
 20
520.98000000000002
 42
-0
  0
VERTEX
  8
0
 10
10.250000000000057
 20
495.97999999999996
 42
0
  0
VERTEX
  8
0
 10
10.25
 20
995.9799999999999
 42
-0
  0
SEQEND
  0
POLYLINE
  8
0
 10
0
 20
0
 39
0
 70
1
 66
1
  0
VERTEX
  8
0
 10
344.8515625
 20
940.98000000000002
 42
-0
  0
VERTEX
  8
0
 10
179.1544189453125
 20
940.98000000000002
 42
0.6528351902961731
  0
VERTEX
  8
0
 10
179.15441894531259
 20
550.98000000000002
 42
0
  0
VERTEX
  8
0
 10
344.85156250000006
 20
550.98000000000002
 42
0
  0
SEQEND
  0
POLYLINE
  8
0
 10
0
 20
0
 39
0
 70
1
 66
1
  0
VERTEX
  8
0
 10
396.44000000000005
 20
35.249999999999986
 42
-0
  0
VERTEX
  8
0
 10
396.44000000000005
 20
485.25
 42
-0
  0
VERTEX
  8
0
 10
772.24708694458013
 20
510.25
 42
0
  0
VERTEX
  8
0
 10
772.24708694458013
 20
10.250000000000007
 42
-0
  0
SEQEND
  0
POLYLINE
  8
0
 10
0
 20
0
 39
0
 70
1
 66
1
  0
VERTEX
  8
0
 10
437.64552444458013
 20
65.249999999999986
 42
-0
  0
VERTEX
  8
0
 10
603.34266799926763
 20
65.25
 42
0.6528351902961731
  0
VERTEX
  8
0
 10
603.34266799926763
 20
455.25
 42
0
  0
VERTEX
  8
0
 10
437.64552444458013
 20
455.25
 42
0
  0
SEQEND
  0
POLYLINE
  8
0
 10
0
 20
0
 39
0
 70
1
 66
1
  0
VERTEX
  8
0
 10
772.24708694458013
 20
970.98000000000002
 42
-0
  0
VERTEX
  8
0
 10
772.24708694458025
 20
520.98000000000002
 42
-0
  0
VERTEX
  8
0
 10
396.44000000000011
 20
495.97999999999996
 42
0
  0
VERTEX
  8
0
 10
396.44000000000005
 20
995.9799999999999
 42
-0
  0
SEQEND
  0
POLYLINE
  8
0
 10
0
 20
0
 39
0
 70
1
 66
1
  0
VERTEX
  8
0
 10
731.04156250000005
 20
940.98000000000002
 42
-0
  0
VERTEX
  8
0
 10
565.34441894531255
 20
940.98000000000002
 42
0.6528351902961731
  0
VERTEX
  8
0
 10
565.34441894531267
 20
550.98000000000002
 42
0
  0
VERTEX
  8
0
 10
731.04156250000017
 20
550.98000000000002
 42
0
  0
SEQEND
  0
POLYLINE
  8
0
 10
0
 20
0
 39
0
 70
1
 66
1
  0
VERTEX
  8
0
 10
782.63
 20
35.249999999999986
 42
-0
  0
VERTEX
  8
0
 10
782.63
 20
485.25
 42
-0
  0
VERTEX
  8
0
 10
1158.4370869445802
 20
510.25
 42
0
  0
VERTEX
  8
0
 10
1158.4370869445802
 20
10.250000000000007
 42
-0
  0
SEQEND
  0
POLYLINE
  8
0
 10
0
 20
0
 39
0
 70
1
 66
1
  0
VERTEX
  8
0
 10
823.83552444458007
 20
65.249999999999986
 42
-0
  0
VERTEX
  8
0
 10
989.53266799926757
 20
65.25
 42
0.6528351902961731
  0
VERTEX
  8
0
 10
989.53266799926757
 20
455.25
 42
0
  0
VERTEX
  8
0
 10
823.83552444458007
 20
455.25
 42
0
  0
SEQEND
  0
POLYLINE
  8
0
 10
0
 20
0
 39
0
 70
1
 66
1
  0
VERTEX
  8
0
 10
1158.4370869445802
 20
970.98000000000002
 42
-0
  0
VERTEX
  8
0
 10
1158.4370869445802
 20
520.98000000000002
 42
-0
  0
VERTEX
  8
0
 10
782.63000000000011
 20
495.97999999999996
 42
0
  0
VERTEX
  8
0
 10
782.63000000000011
 20
995.9799999999999
 42
-0
  0
SEQEND
  0
POLYLINE
  8
0
 10
0
 20
0
 39
0
 70
1
 66
1
  0
VERTEX
  8
0
 10
1117.2315625000001
 20
940.98000000000002
 42
-0
  0
VERTEX
  8
0
 10
951.53441894531261
 20
940.98000000000002
 42
0.6528351902961731
  0
VERTEX
  8
0
 10
951.53441894531272
 20
550.98000000000002
 42
0
  0
VERTEX
  8
0
 10
1117.2315625000001
 20
550.98000000000002
 42
0
  0
SEQEND
  0
POLYLINE
  8
0
 10
0
 20
0
 39
0
 70
1
 66
1
  0
VERTEX
  8
0
 10
1168.8199999999999
 20
35.249999999999986
 42
-0
  0
VERTEX
  8
0
 10
1168.8199999999999
 20
485.25
 42
-0
  0
VERTEX
  8
0
 10
1544.62708694458
 20
510.25
 42
0
  0
VERTEX
  8
0
 10
1544.62708694458
 20
10.250000000000007
 42
-0
  0
SEQEND
  0
POLYLINE
  8
0
 10
0
 20
0
 39
0
 70
1
 66
1
  0
VERTEX
  8
0
 10
1210.02552444458
 20
65.249999999999986
 42
-0
  0
VERTEX
  8
0
 10
1375.7226679992675
 20
65.25
 42
0.6528351902961731
  0
VERTEX
  8
0
 10
1375.7226679992675
 20
455.25
 42
0
  0
VERTEX
  8
0
 10
1210.02552444458
 20
455.25
 42
0
  0
SEQEND
  0
POLYLINE
  8
0
 10
0
 20
0
 39
0
 70
1
 66
1
  0
VERTEX
  8
0
 10
1544.62708694458
 20
970.98000000000002
 42
-0
  0
VERTEX
  8
0
 10
1544.62708694458
 20
520.98000000000002
 42
-0
  0
VERTEX
  8
0
 10
1168.8199999999999
 20
495.97999999999996
 42
0
  0
VERTEX
  8
0
 10
1168.8199999999999
 20
995.9799999999999
 42
-0
  0
SEQEND
  0
POLYLINE
  8
0
 10
0
 20
0
 39
0
 70
1
 66
1
  0
VERTEX
  8
0
 10
1503.4215624999999
 20
940.98000000000002
 42
-0
  0
VERTEX
  8
0
 10
1337.7244189453124
 20
940.98000000000002
 42
0.6528351902961731
  0
VERTEX
  8
0
 10
1337.7244189453124
 20
550.98000000000002
 42
0
  0
VERTEX
  8
0
 10
1503.4215624999999
 20
550.98000000000002
 42
0
  0
SEQEND
  0
POLYLINE
  8
0
 10
0
 20
0
 39
0
 70
1
 66
1
  0
VERTEX
  8
0
 10
1555.01
 20
35.249999999999986
 42
-0
  0
VERTEX
  8
0
 10
1555.01
 20
485.25
 42
-0
  0
VERTEX
  8
0
 10
1930.8170869445801
 20
510.25
 42
0
  0
VERTEX
  8
0
 10
1930.8170869445801
 20
10.250000000000007
 42
-0
  0
SEQEND
  0
POLYLINE
  8
0
 10
0
 20
0
 39
0
 70
1
 66
1
  0
VERTEX
  8
0
 10
1596.2155244445801
 20
65.249999999999986
 42
-0
  0
VERTEX
  8
0
 10
1761.9126679992676
 20
65.25
 42
0.6528351902961731
  0
VERTEX
  8
0
 10
1761.9126679992676
 20
455.25
 42
0
  0
VERTEX
  8
0
 10
1596.2155244445801
 20
455.25
 42
0
  0
SEQEND
  0
POLYLINE
  8
0
 10
0
 20
0
 39
0
 70
1
 66
1
  0
VERTEX
  8
0
 10
1930.8170869445801
 20
970.98000000000002
 42
-0
  0
VERTEX
  8
0
 10
1930.8170869445801
 20
520.98000000000002
 42
-0
  0
VERTEX
  8
0
 10
1555.01
 20
495.97999999999996
 42
0
  0
VERTEX
  8
0
 10
1555.01
 20
995.9799999999999
 42
-0
  0
SEQEND
  0
POLYLINE
  8
0
 10
0
 20
0
 39
0
 70
1
 66
1
  0
VERTEX
  8
0
 10
1889.6115625
 20
940.98000000000002
 42
-0
  0
VERTEX
  8
0
 10
1723.9144189453125
 20
940.98000000000002
 42
0.6528351902961731
  0
VERTEX
  8
0
 10
1723.9144189453125
 20
550.98000000000002
 42
0
  0
VERTEX
  8
0
 10
1889.6115625
 20
550.98000000000002
 42
0
  0
SEQEND
  0
POLYLINE
  8
0
 10
0
 20
0
 39
0
 70
1
 66
1
  0
VERTEX
  8
0
 10
61.70000000000001
 20
140.56
 42
-0
  0
VERTEX
  8
0
 10
61.699999999999996
 20
370.56
 42
-1
  0
VERTEX
  8
0
 10
191.69999999999999
 20
370.56
 42
-0
  0
VERTEX
  8
0
 10
191.70000000000002
 20
140.56
 42
-1
  0
SEQEND
  0
POLYLINE
  8
0
 10
0
 20
0
 39
0
 70
1
 66
1
  0
VERTEX
  8
0
 10
126.70000000000002
 20
113.06
 42
1
  0
VERTEX
  8
0
 10
126.70000000000002
 20
168.06
 42
1
  0
SEQEND
  0
POLYLINE
  8
0
 10
0
 20
0
 39
0
 70
1
 66
1
  0
VERTEX
  8
0
 10
126.7
 20
343.06
 42
1
  0
VERTEX
  8
0
 10
126.7
 20
398.06
 42
1
  0
SEQEND
  0
POLYLINE
  8
0
 10
0
 20
0
 39
0
 70
1
 66
1
  0
VERTEX
  8
0
 10
124.70000000000002
 20
630.90999999999997
 42
-0
  0
VERTEX
  8
0
 10
124.7
 20
860.90999999999997
 42
-1
  0
VERTEX
  8
0
 10
254.69999999999999
 20
860.90999999999997
 42
-0
  0
VERTEX
  8
0
 10
254.70000000000002
 20
630.90999999999997
 42
-1
  0
SEQEND
  0
POLYLINE
  8
0
 10
0
 20
0
 39
0
 70
1
 66
1
  0
VERTEX
  8
0
 10
189.70000000000002
 20
603.40999999999997
 42
1
  0
VERTEX
  8
0
 10
189.70000000000002
 20
658.40999999999997
 42
1
  0
SEQEND
  0
POLYLINE
  8
0
 10
0
 20
0
 39
0
 70
1
 66
1
  0
VERTEX
  8
0
 10
189.69999999999999
 20
833.40999999999997
 42
1
  0
VERTEX
  8
0
 10
189.69999999999999
 20
888.40999999999997
 42
1
  0
SEQEND
  0
POLYLINE
  8
0
 10
0
 20
0
 39
0
 70
1
 66
1
  0
VERTEX
  8
0
 10
447.88999999999999
 20
140.56
 42
-0
  0
VERTEX
  8
0
 10
447.88999999999999
 20
370.56
 42
-1
  0
VERTEX
  8
0
 10
577.88999999999999
 20
370.56
 42
-0
  0
VERTEX
  8
0
 10
577.88999999999999
 20
140.56
 42
-1
  0
SEQEND
  0
POLYLINE
  8
0
 10
0
 20
0
 39
0
 70
1
 66
1
  0
VERTEX
  8
0
 10
512.88999999999999
 20
113.06
 42
1
  0
VERTEX
  8
0
 10
512.88999999999999
 20
168.06
 42
1
  0
SEQEND
  0
POLYLINE
  8
0
 10
0
 20
0
 39
0
 70
1
 66
1
  0
VERTEX
  8
0
 10
512.88999999999999
 20
343.06
 42
1
  0
VERTEX
  8
0
 10
512.88999999999999
 20
398.06
 42
1
  0
SEQEND
  0
POLYLINE
  8
0
 10
0
 20
0
 39
0
 70
1
 66
1
  0
VERTEX
  8
0
 10
510.88999999999999
 20
630.90999999999997
 42
-0
  0
VERTEX
  8
0
 10
510.88999999999999
 20
860.90999999999997
 42
-1
  0
VERTEX
  8
0
 10
640.88999999999999
 20
860.90999999999997
 42
-0
  0
VERTEX
  8
0
 10
640.88999999999999
 20
630.90999999999997
 42
-1
  0
SEQEND
  0
POLYLINE
  8
0
 10
0
 20
0
 39
0
 70
1
 66
1
  0
VERTEX
  8
0
 10
575.88999999999999
 20
603.40999999999997
 42
1
  0
VERTEX
  8
0
 10
575.88999999999999
 20
658.40999999999997
 42
1
  0
SEQEND
  0
POLYLINE
  8
0
 10
0
 20
0
 39
0
 70
1
 66
1
  0
VERTEX
  8
0
 10
575.88999999999999
 20
833.40999999999997
 42
1
  0
VERTEX
  8
0
 10
575.88999999999999
 20
888.40999999999997
 42
1
  0
SEQEND
  0
POLYLINE
  8
0
 10
0
 20
0
 39
0
 70
1
 66
1
  0
VERTEX
  8
0
 10
834.08000000000004
 20
140.56
 42
-0
  0
VERTEX
  8
0
 10
834.08000000000004
 20
370.56
 42
-1
  0
VERTEX
  8
0
 10
964.08000000000004
 20
370.56
 42
-0
  0
VERTEX
  8
0
 10
964.08000000000004
 20
140.56
 42
-1
  0
SEQEND
  0
POLYLINE
  8
0
 10
0
 20
0
 39
0
 70
1
 66
1
  0
VERTEX
  8
0
 10
899.08000000000004
 20
113.06
 42
1
  0
VERTEX
  8
0
 10
899.08000000000004
 20
168.06
 42
1
  0
SEQEND
  0
POLYLINE
  8
0
 10
0
 20
0
 39
0
 70
1
 66
1
  0
VERTEX
  8
0
 10
899.08000000000004
 20
343.06
 42
1
  0
VERTEX
  8
0
 10
899.08000000000004
 20
398.06
 42
1
  0
SEQEND
  0
POLYLINE
  8
0
 10
0
 20
0
 39
0
 70
1
 66
1
  0
VERTEX
  8
0
 10
897.08000000000004
 20
630.90999999999997
 42
-0
  0
VERTEX
  8
0
 10
897.08000000000004
 20
860.90999999999997
 42
-1
  0
VERTEX
  8
0
 10
1027.0799999999999
 20
860.90999999999997
 42
-0
  0
VERTEX
  8
0
 10
1027.0799999999999
 20
630.90999999999997
 42
-1
  0
SEQEND
  0
POLYLINE
  8
0
 10
0
 20
0
 39
0
 70
1
 66
1
  0
VERTEX
  8
0
 10
962.08000000000004
 20
603.40999999999997
 42
1
  0
VERTEX
  8
0
 10
962.08000000000004
 20
658.40999999999997
 42
1
  0
SEQEND
  0
POLYLINE
  8
0
 10
0
 20
0
 39
0
 70
1
 66
1
  0
VERTEX
  8
0
 10
962.08000000000004
 20
833.40999999999997
 42
1
  0
VERTEX
  8
0
 10
962.08000000000004
 20
888.40999999999997
 42
1
  0
SEQEND
  0
POLYLINE
  8
0
 10
0
 20
0
 39
0
 70
1
 66
1
  0
VERTEX
  8
0
 10
1220.27
 20
140.56
 42
-0
  0
VERTEX
  8
0
 10
1220.27
 20
370.56
 42
-1
  0
VERTEX
  8
0
 10
1350.27
 20
370.56
 42
-0
  0
VERTEX
  8
0
 10
1350.27
 20
140.56
 42
-1
  0
SEQEND
  0
POLYLINE
  8
0
 10
0
 20
0
 39
0
 70
1
 66
1
  0
VERTEX
  8
0
 10
1285.27
 20
113.06
 42
1
  0
VERTEX
  8
0
 10
1285.27
 20
168.06
 42
1
  0
SEQEND
  0
POLYLINE
  8
0
 10
0
 20
0
 39
0
 70
1
 66
1
  0
VERTEX
  8
0
 10
1285.27
 20
343.06
 42
1
  0
VERTEX
  8
0
 10
1285.27
 20
398.06
 42
1
  0
SEQEND
  0
POLYLINE
  8
0
 10
0
 20
0
 39
0
 70
1
 66
1
  0
VERTEX
  8
0
 10
1283.27
 20
630.90999999999997
 42
-0
  0
VERTEX
  8
0
 10
1283.27
 20
860.90999999999997
 42
-1
  0
VERTEX
  8
0
 10
1413.27
 20
860.90999999999997
 42
-0
  0
VERTEX
  8
0
 10
1413.27
 20
630.90999999999997
 42
-1
  0
SEQEND
  0
POLYLINE
  8
0
 10
0
 20
0
 39
0
 70
1
 66
1
  0
VERTEX
  8
0
 10
1348.27
 20
603.40999999999997
 42
1
  0
VERTEX
  8
0
 10
1348.27
 20
658.40999999999997
 42
1
  0
SEQEND
  0
POLYLINE
  8
0
 10
0
 20
0
 39
0
 70
1
 66
1
  0
VERTEX
  8
0
 10
1348.27
 20
833.40999999999997
 42
1
  0
VERTEX
  8
0
 10
1348.27
 20
888.40999999999997
 42
1
  0
SEQEND
  0
POLYLINE
  8
0
 10
0
 20
0
 39
0
 70
1
 66
1
  0
VERTEX
  8
0
 10
1606.46
 20
140.56
 42
-0
  0
VERTEX
  8
0
 10
1606.46
 20
370.56
 42
-1
  0
VERTEX
  8
0
 10
1736.46
 20
370.56
 42
-0
  0
VERTEX
  8
0
 10
1736.46
 20
140.56
 42
-1
  0
SEQEND
  0
POLYLINE
  8
0
 10
0
 20
0
 39
0
 70
1
 66
1
  0
VERTEX
  8
0
 10
1671.46
 20
113.06
 42
1
  0
VERTEX
  8
0
 10
1671.46
 20
168.06
 42
1
  0
SEQEND
  0
POLYLINE
  8
0
 10
0
 20
0
 39
0
 70
1
 66
1
  0
VERTEX
  8
0
 10
1671.46
 20
343.06
 42
1
  0
VERTEX
  8
0
 10
1671.46
 20
398.06
 42
1
  0
SEQEND
  0
POLYLINE
  8
0
 10
0
 20
0
 39
0
 70
1
 66
1
  0
VERTEX
  8
0
 10
1669.46
 20
630.90999999999997
 42
-0
  0
VERTEX
  8
0
 10
1669.46
 20
860.90999999999997
 42
-1
  0
VERTEX
  8
0
 10
1799.46
 20
860.90999999999997
 42
-0
  0
VERTEX
  8
0
 10
1799.46
 20
630.90999999999997
 42
-1
  0
SEQEND
  0
POLYLINE
  8
0
 10
0
 20
0
 39
0
 70
1
 66
1
  0
VERTEX
  8
0
 10
1734.46
 20
603.40999999999997
 42
1
  0
VERTEX
  8
0
 10
1734.46
 20
658.40999999999997
 42
1
  0
SEQEND
  0
POLYLINE
  8
0
 10
0
 20
0
 39
0
 70
1
 66
1
  0
VERTEX
  8
0
 10
1734.46
 20
833.40999999999997
 42
1
  0
VERTEX
  8
0
 10
1734.46
 20
888.40999999999997
 42
1
  0
SEQEND
  0
POLYLINE
  8
0
 10
0
 20
0
 39
0
 70
1
 66
1
  0
VERTEX
  8
0
 10
201.99673857898597
 20
308.35948989741223
 42
-0.3599417507648468
  0
VERTEX
  8
0
 10
265.36290017897295
 20
388.25108796731979
 42
0
  0
VERTEX
  8
0
 10
304.28566449574441
 20
188.0108292326502
 42
0
  0
VERTEX
  8
0
 10
302.72551046766353
 20
178.16039449084442
 42
0
  0
VERTEX
  8
0
 10
292.84862713043486
 20
179.72473600544734
 42
1
  0
VERTEX
  8
0
 10
289.71993962874001
 20
159.97097234772187
 42
-0
  0
VERTEX
  8
0
 10
299.59682369384723
 20
158.40662708850849
 42
0
  0
VERTEX
  8
0
 10
297.36853743374041
 20
144.33781040336791
 42
0
  0
VERTEX
  8
0
 10
239.87268762255243
 20
109.7908173305628
 42
-0.58318275213241577
  0
VERTEX
  8
0
 10
201.99673581291472
 20
131.21999916701049
 42
-0
  0
SEQEND
  0
POLYLINE
  8
0
 10
0
 20
0
 39
0
 70
1
 66
1
  0
VERTEX
  8
0
 10
228.9048257329398
 20
121.40372752050226
 42
1
  0
VERTEX
  8
0
 10
225.08864580177601
 20
141.03627084592645
 42
1
  0
SEQEND
  0
POLYLINE
  8
0
 10
0
 20
0
 39
0
 70
1
 66
1
  0
VERTEX
  8
0
 10
416.50948989741227
 20
1089.6689258335814
 42
-0.3599417507648468
  0
VERTEX
  8
0
 10
496.40108796731982
 20
1026.3027642335944
 42
0
  0
VERTEX
  8
0
 10
296.1608292326502
 20
987.37999991682295
 42
0
  0
VERTEX
  8
0
 10
286.31039449084443
 20
988.94015394490384
 42
0
  0
VERTEX
  8
0
 10
287.87473600544735
 20
998.81703728213256
 42
1
  0
VERTEX
  8
0
 10
268.12097234772187
 20
1001.9457247838274
 42
-0
  0
VERTEX
  8
0
 10
266.55662708850849
 20
992.06884071872014
 42
0
  0
VERTEX
  8
0
 10
252.48781040336792
 20
994.29712697882701
 42
0
  0
VERTEX
  8
0
 10
217.94081733056282
 20
1051.792976790015
 42
-0.58318275213241577
  0
VERTEX
  8
0
 10
239.36999916701049
 20
1089.6689285996526
 42
-0
  0
SEQEND
  0
POLYLINE
  8
0
 10
0
 20
0
 39
0
 70
1
 66
1
  0
VERTEX
  8
0
 10
229.55372752050226
 20
1062.7608386796276
 42
1
  0
VERTEX
  8
0
 10
249.18627084592646
 20
1066.5770186107914
 42
1
  0
SEQEND
  0
POLYLINE
  8
0
 10
0
 20
0
 39
0
 70
1
 66
1
  0
VERTEX
  8
0
 10
588.18673857898591
 20
308.35948989741223
 42
-0.3599417507648468
  0
VERTEX
  8
0
 10
651.55290017897289
 20
388.25108796731979
 42
0
  0
VERTEX
  8
0
 10
690.47566449574435
 20
188.0108292326502
 42
0
  0
VERTEX
  8
0
 10
688.91551046766347
 20
178.16039449084442
 42
0
  0
VERTEX
  8
0
 10
679.03862713043486
 20
179.72473600544734
 42
1
  0
VERTEX
  8
0
 10
675.90993962873995
 20
159.97097234772187
 42
-0
  0
VERTEX
  8
0
 10
685.78682369384717
 20
158.40662708850849
 42
0
  0
VERTEX
  8
0
 10
683.5585374337403
 20
144.33781040336791
 42
0
  0
VERTEX
  8
0
 10
626.0626876225524
 20
109.7908173305628
 42
-0.58318275213241577
  0
VERTEX
  8
0
 10
588.18673581291466
 20
131.21999916701049
 42
-0
  0
SEQEND
  0
POLYLINE
  8
0
 10
0
 20
0
 39
0
 70
1
 66
1
  0
VERTEX
  8
0
 10
615.09482573293974
 20
121.40372752050226
 42
1
  0
VERTEX
  8
0
 10
611.27864580177595
 20
141.03627084592645
 42
1
  0
SEQEND
  0
POLYLINE
  8
0
 10
0
 20
0
 39
0
 70
1
 66
1
  0
VERTEX
  8
0
 10
802.69948989741226
 20
1089.6689258335814
 42
-0.3599417507648468
  0
VERTEX
  8
0
 10
882.59108796731982
 20
1026.3027642335944
 42
0
  0
VERTEX
  8
0
 10
682.3508292326502
 20
987.37999991682295
 42
0
  0
VERTEX
  8
0
 10
672.50039449084443
 20
988.94015394490384
 42
0
  0
VERTEX
  8
0
 10
674.06473600544734
 20
998.81703728213256
 42
1
  0
VERTEX
  8
0
 10
654.31097234772187
 20
1001.9457247838274
 42
-0
  0
VERTEX
  8
0
 10
652.74662708850849
 20
992.06884071872014
 42
0
  0
VERTEX
  8
0
 10
638.67781040336786
 20
994.29712697882701
 42
0
  0
VERTEX
  8
0
 10
604.13081733056276
 20
1051.792976790015
 42
-0.58318275213241577
  0
VERTEX
  8
0
 10
625.55999916701046
 20
1089.6689285996526
 42
-0
  0
SEQEND
  0
POLYLINE
  8
0
 10
0
 20
0
 39
0
 70
1
 66
1
  0
VERTEX
  8
0
 10
615.74372752050226
 20
1062.7608386796276
 42
1
  0
VERTEX
  8
0
 10
635.37627084592646
 20
1066.5770186107914
 42
1
  0
SEQEND
  0
POLYLINE
  8
0
 10
0
 20
0
 39
0
 70
1
 66
1
  0
VERTEX
  8
0
 10
974.37673857898596
 20
308.35948989741223
 42
-0.3599417507648468
  0
VERTEX
  8
0
 10
1037.7429001789728
 20
388.25108796731979
 42
0
  0
VERTEX
  8
0
 10
1076.6656644957443
 20
188.0108292326502
 42
0
  0
VERTEX
  8
0
 10
1075.1055104676636
 20
178.16039449084442
 42
0
  0
VERTEX
  8
0
 10
1065.2286271304349
 20
179.72473600544734
 42
1
  0
VERTEX
  8
0
 10
1062.09993962874
 20
159.97097234772187
 42
-0
  0
VERTEX
  8
0
 10
1071.9768236938473
 20
158.40662708850849
 42
0
  0
VERTEX
  8
0
 10
1069.7485374337405
 20
144.33781040336791
 42
0
  0
VERTEX
  8
0
 10
1012.2526876225525
 20
109.7908173305628
 42
-0.58318275213241577
  0
VERTEX
  8
0
 10
974.37673581291472
 20
131.21999916701049
 42
-0
  0
SEQEND
  0
POLYLINE
  8
0
 10
0
 20
0
 39
0
 70
1
 66
1
  0
VERTEX
  8
0
 10
1001.2848257329398
 20
121.40372752050226
 42
1
  0
VERTEX
  8
0
 10
997.46864580177601
 20
141.03627084592645
 42
1
  0
SEQEND
  0
POLYLINE
  8
0
 10
0
 20
0
 39
0
 70
1
 66
1
  0
VERTEX
  8
0
 10
1188.8894898974122
 20
1089.6689258335814
 42
-0.3599417507648468
  0
VERTEX
  8
0
 10
1268.7810879673198
 20
1026.3027642335944
 42
0
  0
VERTEX
  8
0
 10
1068.5408292326501
 20
987.37999991682295
 42
0
  0
VERTEX
  8
0
 10
1058.6903944908445
 20
988.94015394490384
 42
0
  0
VERTEX
  8
0
 10
1060.2547360054473
 20
998.81703728213256
 42
1
  0
VERTEX
  8
0
 10
1040.5009723477219
 20
1001.9457247838274
 42
-0
  0
VERTEX
  8
0
 10
1038.9366270885084
 20
992.06884071872014
 42
0
  0
VERTEX
  8
0
 10
1024.8678104033679
 20
994.29712697882701
 42
0
  0
VERTEX
  8
0
 10
990.3208173305627
 20
1051.792976790015
 42
-0.58318275213241577
  0
VERTEX
  8
0
 10
1011.7499991670104
 20
1089.6689285996526
 42
-0
  0
SEQEND
  0
POLYLINE
  8
0
 10
0
 20
0
 39
0
 70
1
 66
1
  0
VERTEX
  8
0
 10
1001.9337275205022
 20
1062.7608386796276
 42
1
  0
VERTEX
  8
0
 10
1021.5662708459264
 20
1066.5770186107914
 42
1
  0
SEQEND
  0
POLYLINE
  8
0
 10
0
 20
0
 39
0
 70
1
 66
1
  0
VERTEX
  8
0
 10
1360.5667385789859
 20
308.35948989741223
 42
-0.3599417507648468
  0
VERTEX
  8
0
 10
1423.9329001789729
 20
388.25108796731979
 42
0
  0
VERTEX
  8
0
 10
1462.8556644957443
 20
188.0108292326502
 42
0
  0
VERTEX
  8
0
 10
1461.2955104676635
 20
178.16039449084442
 42
0
  0
VERTEX
  8
0
 10
1451.4186271304347
 20
179.72473600544734
 42
1
  0
VERTEX
  8
0
 10
1448.2899396287398
 20
159.97097234772187
 42
-0
  0
VERTEX
  8
0
 10
1458.1668236938472
 20
158.40662708850849
 42
0
  0
VERTEX
  8
0
 10
1455.9385374337403
 20
144.33781040336791
 42
0
  0
VERTEX
  8
0
 10
1398.4426876225523
 20
109.7908173305628
 42
-0.58318275213241577
  0
VERTEX
  8
0
 10
1360.5667358129147
 20
131.21999916701049
 42
-0
  0
SEQEND
  0
POLYLINE
  8
0
 10
0
 20
0
 39
0
 70
1
 66
1
  0
VERTEX
  8
0
 10
1387.4748257329397
 20
121.40372752050226
 42
1
  0
VERTEX
  8
0
 10
1383.6586458017759
 20
141.03627084592645
 42
1
  0
SEQEND
  0
POLYLINE
  8
0
 10
0
 20
0
 39
0
 70
1
 66
1
  0
VERTEX
  8
0
 10
1575.0794898974123
 20
1089.6689258335814
 42
-0.3599417507648468
  0
VERTEX
  8
0
 10
1654.9710879673198
 20
1026.3027642335944
 42
0
  0
VERTEX
  8
0
 10
1454.7308292326504
 20
987.37999991682295
 42
0
  0
VERTEX
  8
0
 10
1444.8803944908445
 20
988.94015394490384
 42
0
  0
VERTEX
  8
0
 10
1446.4447360054476
 20
998.81703728213256
 42
1
  0
VERTEX
  8
0
 10
1426.690972347722
 20
1001.9457247838274
 42
-0
  0
VERTEX
  8
0
 10
1425.1266270885087
 20
992.06884071872014
 42
0
  0
VERTEX
  8
0
 10
1411.057810403368
 20
994.29712697882701
 42
0
  0
VERTEX
  8
0
 10
1376.510817330563
 20
1051.792976790015
 42
-0.58318275213241577
  0
VERTEX
  8
0
 10
1397.9399991670107
 20
1089.6689285996526
 42
-0
  0
SEQEND
  0
POLYLINE
  8
0
 10
0
 20
0
 39
0
 70
1
 66
1
  0
VERTEX
  8
0
 10
1388.1237275205024
 20
1062.7608386796276
 42
1
  0
VERTEX
  8
0
 10
1407.7562708459266
 20
1066.5770186107914
 42
1
  0
SEQEND
  0
POLYLINE
  8
0
 10
0
 20
0
 39
0
 70
1
 66
1
  0
VERTEX
  8
0
 10
1746.756738578986
 20
308.35948989741223
 42
-0.3599417507648468
  0
VERTEX
  8
0
 10
1810.1229001789729
 20
388.25108796731979
 42
0
  0
VERTEX
  8
0
 10
1849.0456644957444
 20
188.0108292326502
 42
0
  0
VERTEX
  8
0
 10
1847.4855104676635
 20
178.16039449084442
 42
0
  0
VERTEX
  8
0
 10
1837.6086271304348
 20
179.72473600544734
 42
1
  0
VERTEX
  8
0
 10
1834.4799396287399
 20
159.97097234772187
 42
-0
  0
VERTEX
  8
0
 10
1844.3568236938472
 20
158.40662708850849
 42
0
  0
VERTEX
  8
0
 10
1842.1285374337403
 20
144.33781040336791
 42
0
  0
VERTEX
  8
0
 10
1784.6326876225523
 20
109.7908173305628
 42
-0.58318275213241577
  0
VERTEX
  8
0
 10
1746.7567358129147
 20
131.21999916701049
 42
-0
  0
SEQEND
  0
POLYLINE
  8
0
 10
0
 20
0
 39
0
 70
1
 66
1
  0
VERTEX
  8
0
 10
1773.6648257329398
 20
121.40372752050226
 42
1
  0
VERTEX
  8
0
 10
1769.848645801776
 20
141.03627084592645
 42
1
  0
SEQEND
  0
POLYLINE
  8
0
 10
0
 20
0
 39
0
 70
1
 66
1
  0
VERTEX
  8
0
 10
264.98000000000002
 20
561.28999999999996
 42
-0
  0
VERTEX
  8
0
 10
264.98000000000002
 20
588.9735670471191
 42
1
  0
VERTEX
  8
0
 10
264.98000000000002
 20
612.9735670471191
 42
-0
  0
VERTEX
  8
0
 10
264.98000000000002
 20
647.95236877441403
 42
1
  0
VERTEX
  8
0
 10
264.98000000000002
 20
671.95236877441403
 42
-0
  0
VERTEX
  8
0
 10
264.98000000000002
 20
810.6276312255859
 42
1
  0
VERTEX
  8
0
 10
264.98000000000002
 20
834.62761596679684
 42
-0
  0
VERTEX
  8
0
 10
264.98000000000002
 20
869.60643676757809
 42
1
  0
VERTEX
  8
0
 10
264.98000000000002
 20
893.60643676757809
 42
-0
  0
VERTEX
  8
0
 10
264.98000000000002
 20
921.28999999999996
 42
0
  0
VERTEX
  8
0
 10
324.98000000000002
 20
921.28999999999996
 42
0
  0
VERTEX
  8
0
 10
324.98000000000002
 20
893.60643676757809
 42
1
  0
VERTEX
  8
0
 10
324.98000000000002
 20
869.60643676757809
 42
0
  0
VERTEX
  8
0
 10
324.98000000000002
 20
834.62761596679684
 42
1
  0
VERTEX
  8
0
 10
324.98000000000002
 20
810.6276312255859
 42
0
  0
VERTEX
  8
0
 10
324.98000000000002
 20
671.95236877441403
 42
1
  0
VERTEX
  8
0
 10
324.98000000000002
 20
647.95236877441403
 42
0
  0
VERTEX
  8
0
 10
324.98000000000002
 20
612.9735670471191
 42
1
  0
VERTEX
  8
0
 10
324.98000000000002
 20
588.9735670471191
 42
0
  0
VERTEX
  8
0
 10
324.98000000000002
 20
561.28999999999996
 42
0
  0
SEQEND
  0
POLYLINE
  8
0
 10
0
 20
0
 39
0
 70
1
 66
1
  0
VERTEX
  8
0
 10
294.98000000000002
 20
723.28999999999996
 42
1
  0
VERTEX
  8
0
 10
294.98000000000002
 20
759.28999999999996
 42
1
  0
SEQEND
  0
POLYLINE
  8
0
 10
0
 20
0
 39
0
 70
1
 66
1
  0
VERTEX
  8
0
 10
651.16999999999996
 20
561.28999999999996
 42
-0
  0
VERTEX
  8
0
 10
651.16999999999996
 20
588.9735670471191
 42
1
  0
VERTEX
  8
0
 10
651.16999999999996
 20
612.9735670471191
 42
-0
  0
VERTEX
  8
0
 10
651.16999999999996
 20
647.95236877441403
 42
1
  0
VERTEX
  8
0
 10
651.16999999999996
 20
671.95236877441403
 42
-0
  0
VERTEX
  8
0
 10
651.16999999999996
 20
810.6276312255859
 42
1
  0
VERTEX
  8
0
 10
651.16999999999996
 20
834.62761596679684
 42
-0
  0
VERTEX
  8
0
 10
651.16999999999996
 20
869.60643676757809
 42
1
  0
VERTEX
  8
0
 10
651.16999999999996
 20
893.60643676757809
 42
-0
  0
VERTEX
  8
0
 10
651.16999999999996
 20
921.28999999999996
 42
0
  0
VERTEX
  8
0
 10
711.16999999999996
 20
921.28999999999996
 42
0
  0
VERTEX
  8
0
 10
711.16999999999996
 20
893.60643676757809
 42
1
  0
VERTEX
  8
0
 10
711.16999999999996
 20
869.60643676757809
 42
0
  0
VERTEX
  8
0
 10
711.16999999999996
 20
834.62761596679684
 42
1
  0
VERTEX
  8
0
 10
711.16999999999996
 20
810.6276312255859
 42
0
  0
VERTEX
  8
0
 10
711.16999999999996
 20
671.95236877441403
 42
1
  0
VERTEX
  8
0
 10
711.16999999999996
 20
647.95236877441403
 42
0
  0
VERTEX
  8
0
 10
711.16999999999996
 20
612.9735670471191
 42
1
  0
VERTEX
  8
0
 10
711.16999999999996
 20
588.9735670471191
 42
0
  0
VERTEX
  8
0
 10
711.16999999999996
 20
561.28999999999996
 42
0
  0
SEQEND
  0
POLYLINE
  8
0
 10
0
 20
0
 39
0
 70
1
 66
1
  0
VERTEX
  8
0
 10
681.16999999999996
 20
723.28999999999996
 42
1
  0
VERTEX
  8
0
 10
681.16999999999996
 20
759.28999999999996
 42
1
  0
SEQEND
  0
POLYLINE
  8
0
 10
0
 20
0
 39
0
 70
1
 66
1
  0
VERTEX
  8
0
 10
1037.3599999999999
 20
561.28999999999996
 42
-0
  0
VERTEX
  8
0
 10
1037.3599999999999
 20
588.9735670471191
 42
1
  0
VERTEX
  8
0
 10
1037.3599999999999
 20
612.9735670471191
 42
-0
  0
VERTEX
  8
0
 10
1037.3599999999999
 20
647.95236877441403
 42
1
  0
VERTEX
  8
0
 10
1037.3599999999999
 20
671.95236877441403
 42
-0
  0
VERTEX
  8
0
 10
1037.3599999999999
 20
810.6276312255859
 42
1
  0
VERTEX
  8
0
 10
1037.3599999999999
 20
834.62761596679684
 42
-0
  0
VERTEX
  8
0
 10
1037.3599999999999
 20
869.60643676757809
 42
1
  0
VERTEX
  8
0
 10
1037.3599999999999
 20
893.60643676757809
 42
-0
  0
VERTEX
  8
0
 10
1037.3599999999999
 20
921.28999999999996
 42
0
  0
VERTEX
  8
0
 10
1097.3599999999999
 20
921.28999999999996
 42
0
  0
VERTEX
  8
0
 10
1097.3599999999999
 20
893.60643676757809
 42
1
  0
VERTEX
  8
0
 10
1097.3599999999999
 20
869.60643676757809
 42
0
  0
VERTEX
  8
0
 10
1097.3599999999999
 20
834.62761596679684
 42
1
  0
VERTEX
  8
0
 10
1097.3599999999999
 20
810.6276312255859
 42
0
  0
VERTEX
  8
0
 10
1097.3599999999999
 20
671.95236877441403
 42
1
  0
VERTEX
  8
0
 10
1097.3599999999999
 20
647.95236877441403
 42
0
  0
VERTEX
  8
0
 10
1097.3599999999999
 20
612.9735670471191
 42
1
  0
VERTEX
  8
0
 10
1097.3599999999999
 20
588.9735670471191
 42
0
  0
VERTEX
  8
0
 10
1097.3599999999999
 20
561.28999999999996
 42
0
  0
SEQEND
  0
POLYLINE
  8
0
 10
0
 20
0
 39
0
 70
1
 66
1
  0
VERTEX
  8
0
 10
1067.3599999999999
 20
723.28999999999996
 42
1
  0
VERTEX
  8
0
 10
1067.3599999999999
 20
759.28999999999996
 42
1
  0
SEQEND
  0
POLYLINE
  8
0
 10
0
 20
0
 39
0
 70
1
 66
1
  0
VERTEX
  8
0
 10
1423.55
 20
561.28999999999996
 42
-0
  0
VERTEX
  8
0
 10
1423.55
 20
588.9735670471191
 42
1
  0
VERTEX
  8
0
 10
1423.55
 20
612.9735670471191
 42
-0
  0
VERTEX
  8
0
 10
1423.55
 20
647.95236877441403
 42
1
  0
VERTEX
  8
0
 10
1423.55
 20
671.95236877441403
 42
-0
  0
VERTEX
  8
0
 10
1423.55
 20
810.6276312255859
 42
1
  0
VERTEX
  8
0
 10
1423.55
 20
834.62761596679684
 42
-0
  0
VERTEX
  8
0
 10
1423.55
 20
869.60643676757809
 42
1
  0
VERTEX
  8
0
 10
1423.55
 20
893.60643676757809
 42
-0
  0
VERTEX
  8
0
 10
1423.55
 20
921.28999999999996
 42
0
  0
VERTEX
  8
0
 10
1483.55
 20
921.28999999999996
 42
0
  0
VERTEX
  8
0
 10
1483.55
 20
893.60643676757809
 42
1
  0
VERTEX
  8
0
 10
1483.55
 20
869.60643676757809
 42
0
  0
VERTEX
  8
0
 10
1483.55
 20
834.62761596679684
 42
1
  0
VERTEX
  8
0
 10
1483.55
 20
810.6276312255859
 42
0
  0
VERTEX
  8
0
 10
1483.55
 20
671.95236877441403
 42
1
  0
VERTEX
  8
0
 10
1483.55
 20
647.95236877441403
 42
0
  0
VERTEX
  8
0
 10
1483.55
 20
612.9735670471191
 42
1
  0
VERTEX
  8
0
 10
1483.55
 20
588.9735670471191
 42
0
  0
VERTEX
  8
0
 10
1483.55
 20
561.28999999999996
 42
0
  0
SEQEND
  0
POLYLINE
  8
0
 10
0
 20
0
 39
0
 70
1
 66
1
  0
VERTEX
  8
0
 10
1453.55
 20
723.28999999999996
 42
1
  0
VERTEX
  8
0
 10
1453.55
 20
759.28999999999996
 42
1
  0
SEQEND
  0
POLYLINE
  8
0
 10
0
 20
0
 39
0
 70
1
 66
1
  0
VERTEX
  8
0
 10
1809.74
 20
561.28999999999996
 42
-0
  0
VERTEX
  8
0
 10
1809.74
 20
588.9735670471191
 42
1
  0
VERTEX
  8
0
 10
1809.74
 20
612.9735670471191
 42
-0
  0
VERTEX
  8
0
 10
1809.74
 20
647.95236877441403
 42
1
  0
VERTEX
  8
0
 10
1809.74
 20
671.95236877441403
 42
-0
  0
VERTEX
  8
0
 10
1809.74
 20
810.6276312255859
 42
1
  0
VERTEX
  8
0
 10
1809.74
 20
834.62761596679684
 42
-0
  0
VERTEX
  8
0
 10
1809.74
 20
869.60643676757809
 42
1
  0
VERTEX
  8
0
 10
1809.74
 20
893.60643676757809
 42
-0
  0
VERTEX
  8
0
 10
1809.74
 20
921.28999999999996
 42
0
  0
VERTEX
  8
0
 10
1869.74
 20
921.28999999999996
 42
0
  0
VERTEX
  8
0
 10
1869.74
 20
893.60643676757809
 42
1
  0
VERTEX
  8
0
 10
1869.74
 20
869.60643676757809
 42
0
  0
VERTEX
  8
0
 10
1869.74
 20
834.62761596679684
 42
1
  0
VERTEX
  8
0
 10
1869.74
 20
810.6276312255859
 42
0
  0
VERTEX
  8
0
 10
1869.74
 20
671.95236877441403
 42
1
  0
VERTEX
  8
0
 10
1869.74
 20
647.95236877441403
 42
0
  0
VERTEX
  8
0
 10
1869.74
 20
612.9735670471191
 42
1
  0
VERTEX
  8
0
 10
1869.74
 20
588.9735670471191
 42
0
  0
VERTEX
  8
0
 10
1869.74
 20
561.28999999999996
 42
0
  0
SEQEND
  0
POLYLINE
  8
0
 10
0
 20
0
 39
0
 70
1
 66
1
  0
VERTEX
  8
0
 10
1839.74
 20
723.28999999999996
 42
1
  0
VERTEX
  8
0
 10
1839.74
 20
759.28999999999996
 42
1
  0
SEQEND
  0
POLYLINE
  8
0
 10
0
 20
0
 39
0
 70
1
 66
1
  0
VERTEX
  8
0
 10
1941.2
 20
10.25
 42
-0
  0
VERTEX
  8
0
 10
1941.2
 20
37.933567047119141
 42
1
  0
VERTEX
  8
0
 10
1941.2
 20
61.933567047119141
 42
-0
  0
VERTEX
  8
0
 10
1941.2
 20
96.912368774414063
 42
1
  0
VERTEX
  8
0
 10
1941.2
 20
120.91236877441406
 42
-0
  0
VERTEX
  8
0
 10
1941.2
 20
259.58763122558594
 42
1
  0
VERTEX
  8
0
 10
1941.2
 20
283.58761596679688
 42
-0
  0
VERTEX
  8
0
 10
1941.2
 20
318.56643676757812
 42
1
  0
VERTEX
  8
0
 10
1941.2
 20
342.56643676757812
 42
-0
  0
VERTEX
  8
0
 10
1941.2
 20
370.25
 42
0
  0
VERTEX
  8
0
 10
2001.2
 20
370.25
 42
0
  0
VERTEX
  8
0
 10
2001.2
 20
342.56643676757812
 42
1
  0
VERTEX
  8
0
 10
2001.2
 20
318.56643676757812
 42
0
  0
VERTEX
  8
0
 10
2001.2
 20
283.58761596679688
 42
1
  0
VERTEX
  8
0
 10
2001.2
 20
259.58763122558594
 42
0
  0
VERTEX
  8
0
 10
2001.2
 20
120.91236877441406
 42
1
  0
VERTEX
  8
0
 10
2001.2
 20
96.912368774414063
 42
0
  0
VERTEX
  8
0
 10
2001.2
 20
61.933567047119148
 42
1
  0
VERTEX
  8
0
 10
2001.2
 20
37.933567047119141
 42
0
  0
VERTEX
  8
0
 10
2001.2
 20
10.250000000000007
 42
0
  0
SEQEND
  0
POLYLINE
  8
0
 10
0
 20
0
 39
0
 70
1
 66
1
  0
VERTEX
  8
0
 10
1971.2
 20
172.25
 42
1
  0
VERTEX
  8
0
 10
1971.2
 20
208.25
 42
1
  0
SEQEND
  0
POLYLINE
  8
0
 10
0
 20
0
 39
0
 70
1
 66
1
  0
VERTEX
  8
0
 10
1941.2
 20
380.26999999999998
 42
-0
  0
VERTEX
  8
0
 10
1941.2
 20
407.95356704711912
 42
1
  0
VERTEX
  8
0
 10
1941.2
 20
431.95356704711912
 42
-0
  0
VERTEX
  8
0
 10
1941.2
 20
466.93236877441404
 42
1
  0
VERTEX
  8
0
 10
1941.2
 20
490.93236877441404
 42
-0
  0
VERTEX
  8
0
 10
1941.2
 20
629.60763122558592
 42
1
  0
VERTEX
  8
0
 10
1941.2
 20
653.60761596679686
 42
-0
  0
VERTEX
  8
0
 10
1941.2
 20
688.58643676757811
 42
1
  0
VERTEX
  8
0
 10
1941.2
 20
712.58643676757811
 42
-0
  0
VERTEX
  8
0
 10
1941.2
 20
740.26999999999998
 42
0
  0
VERTEX
  8
0
 10
2001.2
 20
740.26999999999998
 42
0
  0
VERTEX
  8
0
 10
2001.2
 20
712.58643676757811
 42
1
  0
VERTEX
  8
0
 10
2001.2
 20
688.58643676757811
 42
0
  0
VERTEX
  8
0
 10
2001.2
 20
653.60761596679686
 42
1
  0
VERTEX
  8
0
 10
2001.2
 20
629.60763122558592
 42
0
  0
VERTEX
  8
0
 10
2001.2
 20
490.93236877441404
 42
1
  0
VERTEX
  8
0
 10
2001.2
 20
466.93236877441404
 42
0
  0
VERTEX
  8
0
 10
2001.2
 20
431.95356704711912
 42
1
  0
VERTEX
  8
0
 10
2001.2
 20
407.95356704711912
 42
0
  0
VERTEX
  8
0
 10
2001.2
 20
380.26999999999998
 42
0
  0
SEQEND
  0
POLYLINE
  8
0
 10
0
 20
0
 39
0
 70
1
 66
1
  0
VERTEX
  8
0
 10
1971.2
 20
542.26999999999998
 42
1
  0
VERTEX
  8
0
 10
1971.2
 20
578.26999999999998
 42
1
  0
SEQEND
  0
POLYLINE
  8
0
 10
0
 20
0
 39
0
 70
1
 66
1
  0
VERTEX
  8
0
 10
2025.05
 20
1029.5899999999999
 42
-0
  0
VERTEX
  8
0
 10
1997.3664329528808
 20
1029.5899999999999
 42
1
  0
VERTEX
  8
0
 10
1973.3664329528808
 20
1029.5899999999999
 42
-0
  0
VERTEX
  8
0
 10
1938.3876312255859
 20
1029.5899999999999
 42
1
  0
VERTEX
  8
0
 10
1914.3876312255859
 20
1029.5899999999999
 42
-0
  0
VERTEX
  8
0
 10
1775.712368774414
 20
1029.5899999999999
 42
1
  0
VERTEX
  8
0
 10
1751.7123840332031
 20
1029.5899999999999
 42
-0
  0
VERTEX
  8
0
 10
1716.7335632324218
 20
1029.5899999999999
 42
1
  0
VERTEX
  8
0
 10
1692.7335632324218
 20
1029.5899999999999
 42
-0
  0
VERTEX
  8
0
 10
1665.05
 20
1029.5899999999999
 42
0
  0
VERTEX
  8
0
 10
1665.05
 20
1089.5899999999999
 42
0
  0
VERTEX
  8
0
 10
1692.7335632324218
 20
1089.5899999999999
 42
1
  0
VERTEX
  8
0
 10
1716.7335632324218
 20
1089.5899999999999
 42
0
  0
VERTEX
  8
0
 10
1751.7123840332031
 20
1089.5899999999999
 42
1
  0
VERTEX
  8
0
 10
1775.712368774414
 20
1089.5899999999999
 42
0
  0
VERTEX
  8
0
 10
1914.3876312255859
 20
1089.5899999999999
 42
1
  0
VERTEX
  8
0
 10
1938.3876312255859
 20
1089.5899999999999
 42
0
  0
VERTEX
  8
0
 10
1973.3664329528808
 20
1089.5899999999999
 42
1
  0
VERTEX
  8
0
 10
1997.3664329528808
 20
1089.5899999999999
 42
0
  0
VERTEX
  8
0
 10
2025.05
 20
1089.5899999999999
 42
0
  0
SEQEND
  0
POLYLINE
  8
0
 10
0
 20
0
 39
0
 70
1
 66
1
  0
VERTEX
  8
0
 10
1863.05
 20
1059.5899999999999
 42
1
  0
VERTEX
  8
0
 10
1827.05
 20
1059.5899999999999
 42
1
  0
SEQEND
  0
POLYLINE
  8
0
 10
0
 20
0
 39
0
 70
1
 66
1
  0
VERTEX
  8
0
 10
2011.55
 20
10.25
 42
-0
  0
VERTEX
  8
0
 10
2011.55
 20
37.933567047119141
 42
1
  0
VERTEX
  8
0
 10
2011.55
 20
61.933567047119141
 42
-0
  0
VERTEX
  8
0
 10
2011.55
 20
96.912368774414063
 42
1
  0
VERTEX
  8
0
 10
2011.55
 20
120.91236877441406
 42
-0
  0
VERTEX
  8
0
 10
2011.55
 20
259.58763122558594
 42
1
  0
VERTEX
  8
0
 10
2011.55
 20
283.58761596679688
 42
-0
  0
VERTEX
  8
0
 10
2011.55
 20
318.56643676757812
 42
1
  0
VERTEX
  8
0
 10
2011.55
 20
342.56643676757812
 42
-0
  0
VERTEX
  8
0
 10
2011.55
 20
370.25
 42
0
  0
VERTEX
  8
0
 10
2071.5499999999997
 20
370.25
 42
0
  0
VERTEX
  8
0
 10
2071.5499999999997
 20
342.56643676757812
 42
1
  0
VERTEX
  8
0
 10
2071.5499999999997
 20
318.56643676757812
 42
0
  0
VERTEX
  8
0
 10
2071.5499999999997
 20
283.58761596679688
 42
1
  0
VERTEX
  8
0
 10
2071.5499999999997
 20
259.58763122558594
 42
0
  0
VERTEX
  8
0
 10
2071.5499999999997
 20
120.91236877441406
 42
1
  0
VERTEX
  8
0
 10
2071.5499999999997
 20
96.912368774414063
 42
0
  0
VERTEX
  8
0
 10
2071.5500000000002
 20
61.933567047119148
 42
1
  0
VERTEX
  8
0
 10
2071.5500000000002
 20
37.933567047119141
 42
0
  0
VERTEX
  8
0
 10
2071.5500000000002
 20
10.250000000000007
 42
0
  0
SEQEND
  0
POLYLINE
  8
0
 10
0
 20
0
 39
0
 70
1
 66
1
  0
VERTEX
  8
0
 10
2041.55
 20
172.25
 42
1
  0
VERTEX
  8
0
 10
2041.55
 20
208.25
 42
1
  0
SEQEND
  0
POLYLINE
  8
0
 10
0
 20
0
 39
0
 70
1
 66
1
  0
VERTEX
  8
0
 10
2011.55
 20
380.26999999999998
 42
-0
  0
VERTEX
  8
0
 10
2011.55
 20
407.95356704711912
 42
1
  0
VERTEX
  8
0
 10
2011.55
 20
431.95356704711912
 42
-0
  0
VERTEX
  8
0
 10
2011.55
 20
466.93236877441404
 42
1
  0
VERTEX
  8
0
 10
2011.55
 20
490.93236877441404
 42
-0
  0
VERTEX
  8
0
 10
2011.55
 20
629.60763122558592
 42
1
  0
VERTEX
  8
0
 10
2011.55
 20
653.60761596679686
 42
-0
  0
VERTEX
  8
0
 10
2011.55
 20
688.58643676757811
 42
1
  0
VERTEX
  8
0
 10
2011.55
 20
712.58643676757811
 42
-0
  0
VERTEX
  8
0
 10
2011.55
 20
740.26999999999998
 42
0
  0
VERTEX
  8
0
 10
2071.5499999999997
 20
740.26999999999998
 42
0
  0
VERTEX
  8
0
 10
2071.5499999999997
 20
712.58643676757811
 42
1
  0
VERTEX
  8
0
 10
2071.5499999999997
 20
688.58643676757811
 42
0
  0
VERTEX
  8
0
 10
2071.5499999999997
 20
653.60761596679686
 42
1
  0
VERTEX
  8
0
 10
2071.5499999999997
 20
629.60763122558592
 42
0
  0
VERTEX
  8
0
 10
2071.5499999999997
 20
490.93236877441404
 42
1
  0
VERTEX
  8
0
 10
2071.5499999999997
 20
466.93236877441404
 42
0
  0
VERTEX
  8
0
 10
2071.5500000000002
 20
431.95356704711912
 42
1
  0
VERTEX
  8
0
 10
2071.5500000000002
 20
407.95356704711912
 42
0
  0
VERTEX
  8
0
 10
2071.5500000000002
 20
380.26999999999998
 42
0
  0
SEQEND
  0
POLYLINE
  8
0
 10
0
 20
0
 39
0
 70
1
 66
1
  0
VERTEX
  8
0
 10
2041.55
 20
542.26999999999998
 42
1
  0
VERTEX
  8
0
 10
2041.55
 20
578.26999999999998
 42
1
  0
SEQEND
  0
POLYLINE
  8
0
 10
0
 20
0
 39
0
 70
1
 66
1
  0
VERTEX
  8
0
 10
140.25
 20
1006.0700000000001
 42
-0
  0
VERTEX
  8
0
 10
10.25
 20
1006.0700000000001
 42
0
  0
VERTEX
  8
0
 10
10.25
 20
1066.0700000000002
 42
0
  0
VERTEX
  8
0
 10
140.25
 20
1066.0700000000002
 42
0
  0
SEQEND
  0
POLYLINE
  8
0
 10
0
 20
0
 39
0
 70
1
 66
1
  0
VERTEX
  8
0
 10
131.19801712036133
 20
1036.0700000000002
 42
1
  0
VERTEX
  8
0
 10
105.19801712036133
 20
1036.0700000000002
 42
1
  0
SEQEND
  0
POLYLINE
  8
0
 10
0
 20
0
 39
0
 70
1
 66
1
  0
VERTEX
  8
0
 10
1941.2
 20
750.28999999999996
 42
-0
  0
VERTEX
  8
0
 10
1941.2
 20
880.28999999999996
 42
0
  0
VERTEX
  8
0
 10
2001.2
 20
880.28999999999996
 42
0
  0
VERTEX
  8
0
 10
2001.2
 20
750.28999999999996
 42
0
  0
SEQEND
  0
POLYLINE
  8
0
 10
0
 20
0
 39
0
 70
1
 66
1
  0
VERTEX
  8
0
 10
1971.2
 20
759.34198287963864
 42
1
  0
VERTEX
  8
0
 10
1971.2
 20
785.34198287963864
 42
1
  0
SEQEND
  0
POLYLINE
  8
0
 10
0
 20
0
 39
0
 70
1
 66
1
  0
VERTEX
  8
0
 10
2006.51
 20
889.51999999999998
 42
-0
  0
VERTEX
  8
0
 10
2006.51
 20
1019.52
 42
0
  0
VERTEX
  8
0
 10
2066.5099999999998
 20
1019.52
 42
0
  0
VERTEX
  8
0
 10
2066.5100000000002
 20
889.51999999999998
 42
0
  0
SEQEND
  0
POLYLINE
  8
0
 10
0
 20
0
 39
0
 70
1
 66
1
  0
VERTEX
  8
0
 10
2036.51
 20
898.57198287963865
 42
1
  0
VERTEX
  8
0
 10
2036.51
 20
924.57198287963865
 42
1
  0
SEQEND
  0
ENDSEC
  0
EOF
