  0
SECTION
  2
ENTITIES
  0
POLYLINE
  8
0
 10
0
 20
0
 39
0
 70
1
 66
1
  0
VERTEX
  8
0
 10
0
 20
0
 42
-0
  0
VERTEX
  8
0
 10
2000
 20
0
 42
-0
  0
VERTEX
  8
0
 10
2000
 20
1200
 42
-0
  0
VERTEX
  8
0
 10
0
 20
1200
 42
-0
  0
SEQEND
  0
POLYLINE
  8
0
 10
0
 20
0
 39
0
 70
1
 66
1
  0
VERTEX
  8
0
 10
10.230769157409668
 20
10.230769157409668
 42
-0
  0
VERTEX
  8
0
 10
106.79733276367188
 20
10.230769157409668
 42
-0.37596109509468079
  0
VERTEX
  8
0
 10
218.66419982910156
 20
10.230769157409668
 42
-0
  0
VERTEX
  8
0
 10
315.23077392578125
 20
10.230769157409668
 42
-0
  0
VERTEX
  8
0
 10
315.23077392578125
 20
358.98251342773437
 42
-0.38888081908226013
  0
VERTEX
  8
0
 10
315.23077392578125
 20
451.47903442382812
 42
-0
  0
VERTEX
  8
0
 10
315.23077392578125
 20
800.23077392578125
 42
-0
  0
VERTEX
  8
0
 10
218.66419982910156
 20
800.23077392578125
 42
-0.37596109509468079
  0
VERTEX
  8
0
 10
106.79733276367188
 20
800.23077392578125
 42
-0
  0
VERTEX
  8
0
 10
10.230769157409668
 20
800.23077392578125
 42
0
  0
VERTEX
  8
0
 10
10.230769157409668
 20
451.47903442382812
 42
-0.38888081908226013
  0
VERTEX
  8
0
 10
10.230769157409668
 20
358.98251342773437
 42
0
  0
SEQEND
  0
POLYLINE
  8
0
 10
0
 20
0
 39
0
 70
1
 66
1
  0
VERTEX
  8
0
 10
80.230766296386719
 20
80.230766296386719
 42
-0
  0
VERTEX
  8
0
 10
80.230766296386719
 20
730.23077392578125
 42
0
  0
VERTEX
  8
0
 10
245.23077392578125
 20
730.23077392578125
 42
0
  0
VERTEX
  8
0
 10
245.23077392578125
 20
80.230766296386719
 42
0
  0
SEQEND
  0
POLYLINE
  8
0
 10
0
 20
0
 39
0
 70
1
 66
1
  0
VERTEX
  8
0
 10
273.57028198242187
 20
23.725812911987305
 42
-1
  0
VERTEX
  8
0
 10
273.57028198242187
 20
73.725807189941406
 42
-1
  0
SEQEND
  0
POLYLINE
  8
0
 10
0
 20
0
 39
0
 70
1
 66
1
  0
VERTEX
  8
0
 10
51.891273498535156
 20
736.7357177734375
 42
-1
  0
VERTEX
  8
0
 10
51.891273498535156
 20
786.7357177734375
 42
-1
  0
SEQEND
  0
POLYLINE
  8
0
 10
0
 20
0
 39
0
 70
1
 66
1
  0
VERTEX
  8
0
 10
325.30767822265625
 20
10.230769157409668
 42
-0
  0
VERTEX
  8
0
 10
421.874267578125
 20
10.230769157409668
 42
-0.37596109509468079
  0
VERTEX
  8
0
 10
533.7410888671875
 20
10.230769157409668
 42
-0
  0
VERTEX
  8
0
 10
630.30767822265625
 20
10.230769157409668
 42
-0
  0
VERTEX
  8
0
 10
630.30767822265625
 20
358.98251342773437
 42
-0.38888081908226013
  0
VERTEX
  8
0
 10
630.30767822265625
 20
451.47903442382812
 42
-0
  0
VERTEX
  8
0
 10
630.30767822265625
 20
800.23077392578125
 42
-0
  0
VERTEX
  8
0
 10
533.7410888671875
 20
800.23077392578125
 42
-0.37596109509468079
  0
VERTEX
  8
0
 10
421.874267578125
 20
800.23077392578125
 42
-0
  0
VERTEX
  8
0
 10
325.30767822265625
 20
800.23077392578125
 42
0
  0
VERTEX
  8
0
 10
325.30767822265625
 20
451.47903442382812
 42
-0.38888081908226013
  0
VERTEX
  8
0
 10
325.30767822265625
 20
358.98251342773437
 42
0
  0
SEQEND
  0
POLYLINE
  8
0
 10
0
 20
0
 39
0
 70
1
 66
1
  0
VERTEX
  8
0
 10
395.30767822265625
 20
80.230766296386719
 42
-0
  0
VERTEX
  8
0
 10
395.30767822265625
 20
730.23077392578125
 42
0
  0
VERTEX
  8
0
 10
560.30767822265625
 20
730.23077392578125
 42
0
  0
VERTEX
  8
0
 10
560.30767822265625
 20
80.230766296386719
 42
0
  0
SEQEND
  0
POLYLINE
  8
0
 10
0
 20
0
 39
0
 70
1
 66
1
  0
VERTEX
  8
0
 10
588.647216796875
 20
23.725812911987305
 42
-1
  0
VERTEX
  8
0
 10
588.647216796875
 20
73.725807189941406
 42
-1
  0
SEQEND
  0
POLYLINE
  8
0
 10
0
 20
0
 39
0
 70
1
 66
1
  0
VERTEX
  8
0
 10
366.96820068359375
 20
736.7357177734375
 42
-1
  0
VERTEX
  8
0
 10
366.96820068359375
 20
786.7357177734375
 42
-1
  0
SEQEND
  0
POLYLINE
  8
0
 10
0
 20
0
 39
0
 70
1
 66
1
  0
VERTEX
  8
0
 10
800.23077392578125
 20
810.3846435546875
 42
-0
  0
VERTEX
  8
0
 10
800.23077392578125
 20
906.951171875
 42
-0.37596109509468079
  0
VERTEX
  8
0
 10
800.23077392578125
 20
1018.8180541992187
 42
-0
  0
VERTEX
  8
0
 10
800.23077392578125
 20
1115.3846435546875
 42
-0
  0
VERTEX
  8
0
 10
451.47903442382812
 20
1115.3846435546875
 42
-0.38888081908226013
  0
VERTEX
  8
0
 10
358.98251342773437
 20
1115.3846435546875
 42
-0
  0
VERTEX
  8
0
 10
10.230769157409668
 20
1115.3846435546875
 42
-0
  0
VERTEX
  8
0
 10
10.230769157409668
 20
1018.8180541992187
 42
-0.37596109509468079
  0
VERTEX
  8
0
 10
10.230769157409668
 20
906.951171875
 42
-0
  0
VERTEX
  8
0
 10
10.230769157409668
 20
810.3846435546875
 42
0
  0
VERTEX
  8
0
 10
358.98251342773437
 20
810.3846435546875
 42
-0.38888081908226013
  0
VERTEX
  8
0
 10
451.47903442382812
 20
810.3846435546875
 42
0
  0
SEQEND
  0
POLYLINE
  8
0
 10
0
 20
0
 39
0
 70
1
 66
1
  0
VERTEX
  8
0
 10
730.23077392578125
 20
880.3846435546875
 42
-0
  0
VERTEX
  8
0
 10
80.230766296386719
 20
880.3846435546875
 42
0
  0
VERTEX
  8
0
 10
80.230766296386719
 20
1045.3846435546875
 42
0
  0
VERTEX
  8
0
 10
730.23077392578125
 20
1045.3846435546875
 42
0
  0
SEQEND
  0
POLYLINE
  8
0
 10
0
 20
0
 39
0
 70
1
 66
1
  0
VERTEX
  8
0
 10
786.7357177734375
 20
1073.72412109375
 42
-1
  0
VERTEX
  8
0
 10
736.7357177734375
 20
1073.72412109375
 42
-1
  0
SEQEND
  0
POLYLINE
  8
0
 10
0
 20
0
 39
0
 70
1
 66
1
  0
VERTEX
  8
0
 10
73.725822448730469
 20
852.04510498046875
 42
-1
  0
VERTEX
  8
0
 10
23.725826263427734
 20
852.04510498046875
 42
-1
  0
SEQEND
  0
POLYLINE
  8
0
 10
0
 20
0
 39
0
 70
1
 66
1
  0
VERTEX
  8
0
 10
640.3846435546875
 20
10.230769157409668
 42
-0
  0
VERTEX
  8
0
 10
736.951171875
 20
10.230769157409668
 42
-0.37596109509468079
  0
VERTEX
  8
0
 10
848.81805419921875
 20
10.230769157409668
 42
-0
  0
VERTEX
  8
0
 10
945.3846435546875
 20
10.230769157409668
 42
-0
  0
VERTEX
  8
0
 10
945.3846435546875
 20
358.98251342773437
 42
-0.38888081908226013
  0
VERTEX
  8
0
 10
945.3846435546875
 20
451.47903442382812
 42
-0
  0
VERTEX
  8
0
 10
945.3846435546875
 20
800.23077392578125
 42
-0
  0
VERTEX
  8
0
 10
848.81805419921875
 20
800.23077392578125
 42
-0.37596109509468079
  0
VERTEX
  8
0
 10
736.951171875
 20
800.23077392578125
 42
-0
  0
VERTEX
  8
0
 10
640.3846435546875
 20
800.23077392578125
 42
0
  0
VERTEX
  8
0
 10
640.3846435546875
 20
451.47903442382812
 42
-0.38888081908226013
  0
VERTEX
  8
0
 10
640.3846435546875
 20
358.98251342773437
 42
0
  0
SEQEND
  0
POLYLINE
  8
0
 10
0
 20
0
 39
0
 70
1
 66
1
  0
VERTEX
  8
0
 10
710.3846435546875
 20
80.230766296386719
 42
-0
  0
VERTEX
  8
0
 10
710.3846435546875
 20
730.23077392578125
 42
0
  0
VERTEX
  8
0
 10
875.3846435546875
 20
730.23077392578125
 42
0
  0
VERTEX
  8
0
 10
875.3846435546875
 20
80.230766296386719
 42
0
  0
SEQEND
  0
POLYLINE
  8
0
 10
0
 20
0
 39
0
 70
1
 66
1
  0
VERTEX
  8
0
 10
903.72412109375
 20
23.725812911987305
 42
-1
  0
VERTEX
  8
0
 10
903.72412109375
 20
73.725807189941406
 42
-1
  0
SEQEND
  0
POLYLINE
  8
0
 10
0
 20
0
 39
0
 70
1
 66
1
  0
VERTEX
  8
0
 10
682.04510498046875
 20
736.7357177734375
 42
-1
  0
VERTEX
  8
0
 10
682.04510498046875
 20
786.7357177734375
 42
-1
  0
SEQEND
  0
POLYLINE
  8
0
 10
0
 20
0
 39
0
 70
1
 66
1
  0
VERTEX
  8
0
 10
955.4615478515625
 20
10.230769157409668
 42
-0
  0
VERTEX
  8
0
 10
1052.028076171875
 20
10.230769157409668
 42
-0.37596109509468079
  0
VERTEX
  8
0
 10
1163.89501953125
 20
10.230769157409668
 42
-0
  0
VERTEX
  8
0
 10
1260.4615478515625
 20
10.230769157409668
 42
-0
  0
VERTEX
  8
0
 10
1260.4615478515625
 20
358.98251342773437
 42
-0.38888081908226013
  0
VERTEX
  8
0
 10
1260.4615478515625
 20
451.47903442382812
 42
-0
  0
VERTEX
  8
0
 10
1260.4615478515625
 20
800.23077392578125
 42
-0
  0
VERTEX
  8
0
 10
1163.89501953125
 20
800.23077392578125
 42
-0.37596109509468079
  0
VERTEX
  8
0
 10
1052.028076171875
 20
800.23077392578125
 42
-0
  0
VERTEX
  8
0
 10
955.4615478515625
 20
800.23077392578125
 42
0
  0
VERTEX
  8
0
 10
955.4615478515625
 20
451.47903442382812
 42
-0.38888081908226013
  0
VERTEX
  8
0
 10
955.4615478515625
 20
358.98251342773437
 42
0
  0
SEQEND
  0
POLYLINE
  8
0
 10
0
 20
0
 39
0
 70
1
 66
1
  0
VERTEX
  8
0
 10
1025.4615478515625
 20
80.230766296386719
 42
-0
  0
VERTEX
  8
0
 10
1025.4615478515625
 20
730.23077392578125
 42
0
  0
VERTEX
  8
0
 10
1190.4615478515625
 20
730.23077392578125
 42
0
  0
VERTEX
  8
0
 10
1190.4615478515625
 20
80.230766296386719
 42
0
  0
SEQEND
  0
POLYLINE
  8
0
 10
0
 20
0
 39
0
 70
1
 66
1
  0
VERTEX
  8
0
 10
1218.801025390625
 20
23.725812911987305
 42
-1
  0
VERTEX
  8
0
 10
1218.801025390625
 20
73.725807189941406
 42
-1
  0
SEQEND
  0
POLYLINE
  8
0
 10
0
 20
0
 39
0
 70
1
 66
1
  0
VERTEX
  8
0
 10
997.1220703125
 20
736.7357177734375
 42
-1
  0
VERTEX
  8
0
 10
997.1220703125
 20
786.7357177734375
 42
-1
  0
SEQEND
  0
POLYLINE
  8
0
 10
0
 20
0
 39
0
 70
1
 66
1
  0
VERTEX
  8
0
 10
810.5384521484375
 20
810.3846435546875
 42
-0
  0
VERTEX
  8
0
 10
1031.5384521484375
 20
810.3846435546875
 42
-0
  0
VERTEX
  8
0
 10
1031.5384521484375
 20
1110.87548828125
 42
-0
  0
VERTEX
  8
0
 10
966.30023193359375
 20
1185.3846435546875
 42
0
  0
VERTEX
  8
0
 10
810.5384521484375
 20
1185.3846435546875
 42
0
  0
SEQEND
  0
POLYLINE
  8
0
 10
0
 20
0
 39
0
 70
1
 66
1
  0
VERTEX
  8
0
 10
965.59967041015625
 20
863.9793701171875
 42
-0
  0
VERTEX
  8
0
 10
876.47723388671875
 20
863.9793701171875
 42
-0.54372489452362061
  0
VERTEX
  8
0
 10
867.3514404296875
 20
878.06842041015625
 42
0
  0
VERTEX
  8
0
 10
911.9127197265625
 20
977.51812744140625
 42
-0.64772027730941772
  0
VERTEX
  8
0
 10
930.16424560546875
 20
977.51812744140625
 42
0
  0
VERTEX
  8
0
 10
974.7254638671875
 20
878.06842041015625
 42
-0.54372489452362061
  0
SEQEND
  0
POLYLINE
  8
0
 10
0
 20
0
 39
0
 70
1
 66
1
  0
VERTEX
  8
0
 10
1041.769287109375
 20
810.3846435546875
 42
-0
  0
VERTEX
  8
0
 10
1262.769287109375
 20
810.3846435546875
 42
-0
  0
VERTEX
  8
0
 10
1262.769287109375
 20
1185.3846435546875
 42
0
  0
VERTEX
  8
0
 10
1041.769287109375
 20
1185.3846435546875
 42
0
  0
SEQEND
  0
POLYLINE
  8
0
 10
0
 20
0
 39
0
 70
1
 66
1
  0
VERTEX
  8
0
 10
1109.769287109375
 20
885.3846435546875
 42
-0
  0
VERTEX
  8
0
 10
1109.769287109375
 20
1110.3846435546875
 42
-0
  0
VERTEX
  8
0
 10
1194.769287109375
 20
1110.3846435546875
 42
0
  0
VERTEX
  8
0
 10
1194.769287109375
 20
885.3846435546875
 42
0
  0
SEQEND
  0
POLYLINE
  8
0
 10
0
 20
0
 39
0
 70
1
 66
1
  0
VERTEX
  8
0
 10
1270.5384521484375
 20
10.230769157409668
 42
-0
  0
VERTEX
  8
0
 10
1491.5384521484375
 20
10.230769157409668
 42
-0
  0
VERTEX
  8
0
 10
1491.5384521484375
 20
310.72161865234375
 42
-0
  0
VERTEX
  8
0
 10
1426.30029296875
 20
385.23077392578125
 42
0
  0
VERTEX
  8
0
 10
1270.5384521484375
 20
385.23077392578125
 42
0
  0
SEQEND
  0
POLYLINE
  8
0
 10
0
 20
0
 39
0
 70
1
 66
1
  0
VERTEX
  8
0
 10
1425.5997314453125
 20
63.825515747070312
 42
-0
  0
VERTEX
  8
0
 10
1336.4771728515625
 20
63.825515747070312
 42
-0.54372489452362061
  0
VERTEX
  8
0
 10
1327.3514404296875
 20
77.914566040039063
 42
0
  0
VERTEX
  8
0
 10
1371.9127197265625
 20
177.36430358886719
 42
-0.64772027730941772
  0
VERTEX
  8
0
 10
1390.1641845703125
 20
177.36430358886719
 42
0
  0
VERTEX
  8
0
 10
1434.7254638671875
 20
77.914566040039063
 42
-0.54372489452362061
  0
SEQEND
  0
POLYLINE
  8
0
 10
0
 20
0
 39
0
 70
1
 66
1
  0
VERTEX
  8
0
 10
1270.5384521484375
 20
395.30767822265625
 42
-0
  0
VERTEX
  8
0
 10
1491.5384521484375
 20
395.30767822265625
 42
-0
  0
VERTEX
  8
0
 10
1491.5384521484375
 20
695.79852294921875
 42
-0
  0
VERTEX
  8
0
 10
1426.30029296875
 20
770.30767822265625
 42
0
  0
VERTEX
  8
0
 10
1270.5384521484375
 20
770.30767822265625
 42
0
  0
SEQEND
  0
POLYLINE
  8
0
 10
0
 20
0
 39
0
 70
1
 66
1
  0
VERTEX
  8
0
 10
1425.5997314453125
 20
448.90243530273437
 42
-0
  0
VERTEX
  8
0
 10
1336.4771728515625
 20
448.90243530273437
 42
-0.54372489452362061
  0
VERTEX
  8
0
 10
1327.3514404296875
 20
462.99148559570312
 42
0
  0
VERTEX
  8
0
 10
1371.9127197265625
 20
562.44122314453125
 42
-0.64772027730941772
  0
VERTEX
  8
0
 10
1390.1641845703125
 20
562.44122314453125
 42
0
  0
VERTEX
  8
0
 10
1434.7254638671875
 20
462.99148559570312
 42
-0.54372489452362061
  0
SEQEND
  0
POLYLINE
  8
0
 10
0
 20
0
 39
0
 70
1
 66
1
  0
VERTEX
  8
0
 10
1273
 20
780.3846435546875
 42
-0
  0
VERTEX
  8
0
 10
1494
 20
780.3846435546875
 42
-0
  0
VERTEX
  8
0
 10
1494
 20
1155.3846435546875
 42
0
  0
VERTEX
  8
0
 10
1273
 20
1155.3846435546875
 42
0
  0
SEQEND
  0
POLYLINE
  8
0
 10
0
 20
0
 39
0
 70
1
 66
1
  0
VERTEX
  8
0
 10
1341
 20
855.3846435546875
 42
-0
  0
VERTEX
  8
0
 10
1341
 20
1080.3846435546875
 42
-0
  0
VERTEX
  8
0
 10
1426
 20
1080.3846435546875
 42
0
  0
VERTEX
  8
0
 10
1426
 20
855.3846435546875
 42
0
  0
SEQEND
  0
POLYLINE
  8
0
 10
0
 20
0
 39
0
 70
1
 66
1
  0
VERTEX
  8
0
 10
1501.769287109375
 20
10.230769157409668
 42
-0
  0
VERTEX
  8
0
 10
1722.769287109375
 20
10.230769157409668
 42
-0
  0
VERTEX
  8
0
 10
1722.769287109375
 20
385.23077392578125
 42
0
  0
VERTEX
  8
0
 10
1501.769287109375
 20
385.23077392578125
 42
0
  0
SEQEND
  0
POLYLINE
  8
0
 10
0
 20
0
 39
0
 70
1
 66
1
  0
VERTEX
  8
0
 10
1569.769287109375
 20
85.230766296386719
 42
-0
  0
VERTEX
  8
0
 10
1569.769287109375
 20
310.23077392578125
 42
-0
  0
VERTEX
  8
0
 10
1654.769287109375
 20
310.23077392578125
 42
0
  0
VERTEX
  8
0
 10
1654.769287109375
 20
85.230766296386719
 42
0
  0
SEQEND
  0
POLYLINE
  8
0
 10
0
 20
0
 39
0
 70
1
 66
1
  0
VERTEX
  8
0
 10
1501.769287109375
 20
395.30767822265625
 42
-0
  0
VERTEX
  8
0
 10
1722.769287109375
 20
395.30767822265625
 42
-0
  0
VERTEX
  8
0
 10
1722.769287109375
 20
770.30767822265625
 42
0
  0
VERTEX
  8
0
 10
1501.769287109375
 20
770.30767822265625
 42
0
  0
SEQEND
  0
POLYLINE
  8
0
 10
0
 20
0
 39
0
 70
1
 66
1
  0
VERTEX
  8
0
 10
1569.769287109375
 20
470.30767822265625
 42
-0
  0
VERTEX
  8
0
 10
1569.769287109375
 20
695.30767822265625
 42
-0
  0
VERTEX
  8
0
 10
1654.769287109375
 20
695.30767822265625
 42
0
  0
VERTEX
  8
0
 10
1654.769287109375
 20
470.30767822265625
 42
0
  0
SEQEND
  0
POLYLINE
  8
0
 10
0
 20
0
 39
0
 70
1
 66
1
  0
VERTEX
  8
0
 10
1504.230712890625
 20
780.3846435546875
 42
-0
  0
VERTEX
  8
0
 10
1725.230712890625
 20
780.3846435546875
 42
-0
  0
VERTEX
  8
0
 10
1725.230712890625
 20
1155.3846435546875
 42
0
  0
VERTEX
  8
0
 10
1504.230712890625
 20
1155.3846435546875
 42
0
  0
SEQEND
  0
POLYLINE
  8
0
 10
0
 20
0
 39
0
 70
1
 66
1
  0
VERTEX
  8
0
 10
1572.230712890625
 20
855.3846435546875
 42
-0
  0
VERTEX
  8
0
 10
1572.230712890625
 20
1080.3846435546875
 42
-0
  0
VERTEX
  8
0
 10
1657.230712890625
 20
1080.3846435546875
 42
0
  0
VERTEX
  8
0
 10
1657.230712890625
 20
855.3846435546875
 42
0
  0
SEQEND
  0
POLYLINE
  8
0
 10
0
 20
0
 39
0
 70
1
 66
1
  0
VERTEX
  8
0
 10
1733
 20
10.230769157409668
 42
-0
  0
VERTEX
  8
0
 10
1954
 20
10.230769157409668
 42
-0
  0
VERTEX
  8
0
 10
1954
 20
385.23077392578125
 42
0
  0
VERTEX
  8
0
 10
1733
 20
385.23077392578125
 42
0
  0
SEQEND
  0
POLYLINE
  8
0
 10
0
 20
0
 39
0
 70
1
 66
1
  0
VERTEX
  8
0
 10
1801
 20
85.230766296386719
 42
-0
  0
VERTEX
  8
0
 10
1801
 20
310.23077392578125
 42
-0
  0
VERTEX
  8
0
 10
1886
 20
310.23077392578125
 42
0
  0
VERTEX
  8
0
 10
1886
 20
85.230766296386719
 42
0
  0
SEQEND
  0
POLYLINE
  8
0
 10
0
 20
0
 39
0
 70
1
 66
1
  0
VERTEX
  8
0
 10
1733
 20
395.30767822265625
 42
-0
  0
VERTEX
  8
0
 10
1954
 20
395.30767822265625
 42
-0
  0
VERTEX
  8
0
 10
1954
 20
695.79852294921875
 42
-0
  0
VERTEX
  8
0
 10
1888.76171875
 20
770.30767822265625
 42
0
  0
VERTEX
  8
0
 10
1733
 20
770.30767822265625
 42
0
  0
SEQEND
  0
POLYLINE
  8
0
 10
0
 20
0
 39
0
 70
1
 66
1
  0
VERTEX
  8
0
 10
1888.061279296875
 20
448.90243530273437
 42
-0
  0
VERTEX
  8
0
 10
1798.938720703125
 20
448.90243530273437
 42
-0.54372489452362061
  0
VERTEX
  8
0
 10
1789.81298828125
 20
462.99148559570312
 42
0
  0
VERTEX
  8
0
 10
1834.374267578125
 20
562.44122314453125
 42
-0.64772027730941772
  0
VERTEX
  8
0
 10
1852.625732421875
 20
562.44122314453125
 42
0
  0
VERTEX
  8
0
 10
1897.18701171875
 20
462.99148559570312
 42
-0.54372489452362061
  0
SEQEND
  0
POLYLINE
  8
0
 10
0
 20
0
 39
0
 70
1
 66
1
  0
VERTEX
  8
0
 10
1735.4615478515625
 20
780.3846435546875
 42
-0
  0
VERTEX
  8
0
 10
1956.4615478515625
 20
780.3846435546875
 42
-0
  0
VERTEX
  8
0
 10
1956.4615478515625
 20
1080.87548828125
 42
-0
  0
VERTEX
  8
0
 10
1891.2232666015625
 20
1155.3846435546875
 42
0
  0
VERTEX
  8
0
 10
1735.4615478515625
 20
1155.3846435546875
 42
0
  0
SEQEND
  0
POLYLINE
  8
0
 10
0
 20
0
 39
0
 70
1
 66
1
  0
VERTEX
  8
0
 10
1890.5228271484375
 20
833.9793701171875
 42
-0
  0
VERTEX
  8
0
 10
1801.4002685546875
 20
833.9793701171875
 42
-0.54372489452362061
  0
VERTEX
  8
0
 10
1792.2745361328125
 20
848.06842041015625
 42
0
  0
VERTEX
  8
0
 10
1836.8358154296875
 20
947.51812744140625
 42
-0.64772027730941772
  0
VERTEX
  8
0
 10
1855.0872802734375
 20
947.51812744140625
 42
0
  0
VERTEX
  8
0
 10
1899.6485595703125
 20
848.06842041015625
 42
-0.54372489452362061
  0
SEQEND
  0
POLYLINE
  8
0
 10
0
 20
0
 39
0
 70
1
 66
1
  0
VERTEX
  8
0
 10
90.538459777832031
 20
90.538459777832031
 42
0
  0
VERTEX
  8
0
 10
210.53846740722656
 20
90.538459777832031
 42
-0
  0
VERTEX
  8
0
 10
210.53846740722656
 20
350.5384521484375
 42
-0
  0
VERTEX
  8
0
 10
90.538459777832031
 20
435.5384521484375
 42
0
  0
SEQEND
  0
POLYLINE
  8
0
 10
0
 20
0
 39
0
 70
1
 66
1
  0
VERTEX
  8
0
 10
150.53846740722656
 20
112.36048889160156
 42
-1
  0
VERTEX
  8
0
 10
150.53846740722656
 20
158.36048889160156
 42
-1
  0
SEQEND
  0
POLYLINE
  8
0
 10
0
 20
0
 39
0
 70
1
 66
1
  0
VERTEX
  8
0
 10
150.53846740722656
 20
241.29875183105469
 42
-1
  0
VERTEX
  8
0
 10
150.53846740722656
 20
321.29873657226562
 42
-1
  0
SEQEND
  0
POLYLINE
  8
0
 10
0
 20
0
 39
0
 70
1
 66
1
  0
VERTEX
  8
0
 10
210.53846740722656
 20
708.30767822265625
 42
0
  0
VERTEX
  8
0
 10
90.538459777832031
 20
708.30767822265625
 42
-0
  0
VERTEX
  8
0
 10
90.538459777832031
 20
448.30767822265625
 42
-0
  0
VERTEX
  8
0
 10
210.53846740722656
 20
363.30767822265625
 42
0
  0
SEQEND
  0
POLYLINE
  8
0
 10
0
 20
0
 39
0
 70
1
 66
1
  0
VERTEX
  8
0
 10
150.53846740722656
 20
686.48565673828125
 42
-1
  0
VERTEX
  8
0
 10
150.53846740722656
 20
640.48565673828125
 42
-1
  0
SEQEND
  0
POLYLINE
  8
0
 10
0
 20
0
 39
0
 70
1
 66
1
  0
VERTEX
  8
0
 10
150.53846740722656
 20
557.54742431640625
 42
-1
  0
VERTEX
  8
0
 10
150.53846740722656
 20
477.54739379882812
 42
-1
  0
SEQEND
  0
POLYLINE
  8
0
 10
0
 20
0
 39
0
 70
1
 66
1
  0
VERTEX
  8
0
 10
435.5384521484375
 20
890.69232177734375
 42
0
  0
VERTEX
  8
0
 10
435.5384521484375
 20
1010.6923217773437
 42
-0
  0
VERTEX
  8
0
 10
175.53846740722656
 20
1010.6923217773437
 42
-0
  0
VERTEX
  8
0
 10
90.538459777832031
 20
890.69232177734375
 42
0
  0
SEQEND
  0
POLYLINE
  8
0
 10
0
 20
0
 39
0
 70
1
 66
1
  0
VERTEX
  8
0
 10
413.7164306640625
 20
950.69232177734375
 42
-1
  0
VERTEX
  8
0
 10
367.7164306640625
 20
950.69232177734375
 42
-1
  0
SEQEND
  0
POLYLINE
  8
0
 10
0
 20
0
 39
0
 70
1
 66
1
  0
VERTEX
  8
0
 10
284.77816772460937
 20
950.69232177734375
 42
-1
  0
VERTEX
  8
0
 10
204.77818298339844
 20
950.69232177734375
 42
-1
  0
SEQEND
  0
POLYLINE
  8
0
 10
0
 20
0
 39
0
 70
1
 66
1
  0
VERTEX
  8
0
 10
405.61538696289062
 20
90.538459777832031
 42
0
  0
VERTEX
  8
0
 10
525.6153564453125
 20
90.538459777832031
 42
-0
  0
VERTEX
  8
0
 10
525.6153564453125
 20
350.5384521484375
 42
-0
  0
VERTEX
  8
0
 10
405.61538696289062
 20
435.5384521484375
 42
0
  0
SEQEND
  0
POLYLINE
  8
0
 10
0
 20
0
 39
0
 70
1
 66
1
  0
VERTEX
  8
0
 10
465.61538696289062
 20
112.36048889160156
 42
-1
  0
VERTEX
  8
0
 10
465.61538696289062
 20
158.36048889160156
 42
-1
  0
SEQEND
  0
POLYLINE
  8
0
 10
0
 20
0
 39
0
 70
1
 66
1
  0
VERTEX
  8
0
 10
465.61538696289062
 20
241.29875183105469
 42
-1
  0
VERTEX
  8
0
 10
465.61538696289062
 20
321.29873657226562
 42
-1
  0
SEQEND
  0
POLYLINE
  8
0
 10
0
 20
0
 39
0
 70
1
 66
1
  0
VERTEX
  8
0
 10
525.6153564453125
 20
708.30767822265625
 42
0
  0
VERTEX
  8
0
 10
405.61538696289062
 20
708.30767822265625
 42
-0
  0
VERTEX
  8
0
 10
405.61538696289062
 20
448.30767822265625
 42
-0
  0
VERTEX
  8
0
 10
525.6153564453125
 20
363.30767822265625
 42
0
  0
SEQEND
  0
POLYLINE
  8
0
 10
0
 20
0
 39
0
 70
1
 66
1
  0
VERTEX
  8
0
 10
465.61538696289062
 20
686.48565673828125
 42
-1
  0
VERTEX
  8
0
 10
465.61538696289062
 20
640.48565673828125
 42
-1
  0
SEQEND
  0
POLYLINE
  8
0
 10
0
 20
0
 39
0
 70
1
 66
1
  0
VERTEX
  8
0
 10
465.61538696289062
 20
557.54742431640625
 42
-1
  0
VERTEX
  8
0
 10
465.61538696289062
 20
477.54739379882812
 42
-1
  0
SEQEND
  0
POLYLINE
  8
0
 10
0
 20
0
 39
0
 70
1
 66
1
  0
VERTEX
  8
0
 10
720.69232177734375
 20
90.538459777832031
 42
0
  0
VERTEX
  8
0
 10
840.69232177734375
 20
90.538459777832031
 42
-0
  0
VERTEX
  8
0
 10
840.69232177734375
 20
350.5384521484375
 42
-0
  0
VERTEX
  8
0
 10
720.69232177734375
 20
435.5384521484375
 42
0
  0
SEQEND
  0
POLYLINE
  8
0
 10
0
 20
0
 39
0
 70
1
 66
1
  0
VERTEX
  8
0
 10
780.69232177734375
 20
112.36048889160156
 42
-1
  0
VERTEX
  8
0
 10
780.69232177734375
 20
158.36048889160156
 42
-1
  0
SEQEND
  0
POLYLINE
  8
0
 10
0
 20
0
 39
0
 70
1
 66
1
  0
VERTEX
  8
0
 10
780.69232177734375
 20
241.29875183105469
 42
-1
  0
VERTEX
  8
0
 10
780.69232177734375
 20
321.29873657226562
 42
-1
  0
SEQEND
  0
POLYLINE
  8
0
 10
0
 20
0
 39
0
 70
1
 66
1
  0
VERTEX
  8
0
 10
840.69232177734375
 20
708.30767822265625
 42
0
  0
VERTEX
  8
0
 10
720.69232177734375
 20
708.30767822265625
 42
-0
  0
VERTEX
  8
0
 10
720.69232177734375
 20
448.30767822265625
 42
-0
  0
VERTEX
  8
0
 10
840.69232177734375
 20
363.30767822265625
 42
0
  0
SEQEND
  0
POLYLINE
  8
0
 10
0
 20
0
 39
0
 70
1
 66
1
  0
VERTEX
  8
0
 10
780.69232177734375
 20
686.48565673828125
 42
-1
  0
VERTEX
  8
0
 10
780.69232177734375
 20
640.48565673828125
 42
-1
  0
SEQEND
  0
POLYLINE
  8
0
 10
0
 20
0
 39
0
 70
1
 66
1
  0
VERTEX
  8
0
 10
780.69232177734375
 20
557.54742431640625
 42
-1
  0
VERTEX
  8
0
 10
780.69232177734375
 20
477.54739379882812
 42
-1
  0
SEQEND
  0
POLYLINE
  8
0
 10
0
 20
0
 39
0
 70
1
 66
1
  0
VERTEX
  8
0
 10
1035.769287109375
 20
90.538459777832031
 42
0
  0
VERTEX
  8
0
 10
1155.769287109375
 20
90.538459777832031
 42
-0
  0
VERTEX
  8
0
 10
1155.769287109375
 20
350.5384521484375
 42
-0
  0
VERTEX
  8
0
 10
1035.769287109375
 20
435.5384521484375
 42
0
  0
SEQEND
  0
POLYLINE
  8
0
 10
0
 20
0
 39
0
 70
1
 66
1
  0
VERTEX
  8
0
 10
1095.769287109375
 20
112.36048889160156
 42
-1
  0
VERTEX
  8
0
 10
1095.769287109375
 20
158.36048889160156
 42
-1
  0
SEQEND
  0
POLYLINE
  8
0
 10
0
 20
0
 39
0
 70
1
 66
1
  0
VERTEX
  8
0
 10
1095.769287109375
 20
241.29875183105469
 42
-1
  0
VERTEX
  8
0
 10
1095.769287109375
 20
321.29873657226562
 42
-1
  0
SEQEND
  0
POLYLINE
  8
0
 10
0
 20
0
 39
0
 70
1
 66
1
  0
VERTEX
  8
0
 10
1155.769287109375
 20
708.30767822265625
 42
0
  0
VERTEX
  8
0
 10
1035.769287109375
 20
708.30767822265625
 42
-0
  0
VERTEX
  8
0
 10
1035.769287109375
 20
448.30767822265625
 42
-0
  0
VERTEX
  8
0
 10
1155.769287109375
 20
363.30767822265625
 42
0
  0
SEQEND
  0
POLYLINE
  8
0
 10
0
 20
0
 39
0
 70
1
 66
1
  0
VERTEX
  8
0
 10
1095.769287109375
 20
686.48565673828125
 42
-1
  0
VERTEX
  8
0
 10
1095.769287109375
 20
640.48565673828125
 42
-1
  0
SEQEND
  0
POLYLINE
  8
0
 10
0
 20
0
 39
0
 70
1
 66
1
  0
VERTEX
  8
0
 10
1095.769287109375
 20
557.54742431640625
 42
-1
  0
VERTEX
  8
0
 10
1095.769287109375
 20
477.54739379882812
 42
-1
  0
SEQEND
  0
POLYLINE
  8
0
 10
0
 20
0
 39
0
 70
1
 66
1
  0
VERTEX
  8
0
 10
10.230769157409668
 20
1189.4615478515625
 42
0
  0
VERTEX
  8
0
 10
10.230769157409668
 20
1125.4615478515625
 42
0
  0
VERTEX
  8
0
 10
210.23077392578125
 20
1125.4615478515625
 42
0
  0
VERTEX
  8
0
 10
210.23077392578125
 20
1189.4615478515625
 42
0
  0
SEQEND
  0
POLYLINE
  8
0
 10
0
 20
0
 39
0
 70
1
 66
1
  0
VERTEX
  8
0
 10
188.23077392578125
 20
1157.4615478515625
 42
-1
  0
VERTEX
  8
0
 10
162.23077392578125
 20
1157.4615478515625
 42
-1
  0
SEQEND
  0
POLYLINE
  8
0
 10
0
 20
0
 39
0
 70
1
 66
1
  0
VERTEX
  8
0
 10
58.230770111083984
 20
1157.4615478515625
 42
-1
  0
VERTEX
  8
0
 10
32.230770111083984
 20
1157.4615478515625
 42
-1
  0
SEQEND
  0
POLYLINE
  8
0
 10
0
 20
0
 39
0
 70
1
 66
1
  0
VERTEX
  8
0
 10
220.53846740722656
 20
1189.4615478515625
 42
0
  0
VERTEX
  8
0
 10
220.53846740722656
 20
1125.4615478515625
 42
0
  0
VERTEX
  8
0
 10
420.5384521484375
 20
1125.4615478515625
 42
0
  0
VERTEX
  8
0
 10
420.5384521484375
 20
1189.4615478515625
 42
0
  0
SEQEND
  0
POLYLINE
  8
0
 10
0
 20
0
 39
0
 70
1
 66
1
  0
VERTEX
  8
0
 10
398.5384521484375
 20
1157.4615478515625
 42
-1
  0
VERTEX
  8
0
 10
372.5384521484375
 20
1157.4615478515625
 42
-1
  0
SEQEND
  0
POLYLINE
  8
0
 10
0
 20
0
 39
0
 70
1
 66
1
  0
VERTEX
  8
0
 10
268.5384521484375
 20
1157.4615478515625
 42
-1
  0
VERTEX
  8
0
 10
242.53846740722656
 20
1157.4615478515625
 42
-1
  0
SEQEND
  0
POLYLINE
  8
0
 10
0
 20
0
 39
0
 70
1
 66
1
  0
VERTEX
  8
0
 10
630.84613037109375
 20
1125.4615478515625
 42
-0
  0
VERTEX
  8
0
 10
630.84613037109375
 20
1175.4615478515625
 42
-0
  0
VERTEX
  8
0
 10
430.84616088867187
 20
1175.4615478515625
 42
-0
  0
VERTEX
  8
0
 10
430.84616088867187
 20
1125.4615478515625
 42
0
  0
SEQEND
  0
POLYLINE
  8
0
 10
0
 20
0
 39
0
 70
1
 66
1
  0
VERTEX
  8
0
 10
594.1728515625
 20
1150.4615478515625
 42
-1
  0
VERTEX
  8
0
 10
564.1728515625
 20
1150.4615478515625
 42
-1
  0
SEQEND
  0
POLYLINE
  8
0
 10
0
 20
0
 39
0
 70
1
 66
1
  0
VERTEX
  8
0
 10
645.76922607421875
 20
890.69232177734375
 42
-0
  0
VERTEX
  8
0
 10
645.76922607421875
 20
940.69232177734375
 42
-0
  0
VERTEX
  8
0
 10
445.76922607421875
 20
940.69232177734375
 42
-0
  0
VERTEX
  8
0
 10
445.76922607421875
 20
890.69232177734375
 42
0
  0
SEQEND
  0
POLYLINE
  8
0
 10
0
 20
0
 39
0
 70
1
 66
1
  0
VERTEX
  8
0
 10
609.09588623046875
 20
915.69232177734375
 42
-1
  0
VERTEX
  8
0
 10
579.09588623046875
 20
915.69232177734375
 42
-1
  0
SEQEND
  0
POLYLINE
  8
0
 10
0
 20
0
 39
0
 70
1
 66
1
  0
VERTEX
  8
0
 10
645.76922607421875
 20
950.84613037109375
 42
-0
  0
VERTEX
  8
0
 10
645.76922607421875
 20
1000.8461303710937
 42
-0
  0
VERTEX
  8
0
 10
445.76922607421875
 20
1000.8461303710937
 42
-0
  0
VERTEX
  8
0
 10
445.76922607421875
 20
950.84613037109375
 42
0
  0
SEQEND
  0
POLYLINE
  8
0
 10
0
 20
0
 39
0
 70
1
 66
1
  0
VERTEX
  8
0
 10
609.09588623046875
 20
975.84613037109375
 42
-1
  0
VERTEX
  8
0
 10
579.09588623046875
 20
975.84613037109375
 42
-1
  0
SEQEND
  0
POLYLINE
  8
0
 10
0
 20
0
 39
0
 70
1
 66
1
  0
VERTEX
  8
0
 10
1120.076904296875
 20
895.6153564453125
 42
-0
  0
VERTEX
  8
0
 10
1170.076904296875
 20
895.6153564453125
 42
-0
  0
VERTEX
  8
0
 10
1170.076904296875
 20
1095.6153564453125
 42
-0
  0
VERTEX
  8
0
 10
1120.076904296875
 20
1095.6153564453125
 42
0
  0
SEQEND
  0
POLYLINE
  8
0
 10
0
 20
0
 39
0
 70
1
 66
1
  0
VERTEX
  8
0
 10
1145.076904296875
 20
932.2886962890625
 42
-1
  0
VERTEX
  8
0
 10
1145.076904296875
 20
962.2886962890625
 42
-1
  0
SEQEND
  0
POLYLINE
  8
0
 10
0
 20
0
 39
0
 70
1
 66
1
  0
VERTEX
  8
0
 10
1351.3077392578125
 20
865.6153564453125
 42
-0
  0
VERTEX
  8
0
 10
1401.3077392578125
 20
865.6153564453125
 42
-0
  0
VERTEX
  8
0
 10
1401.3077392578125
 20
1065.6153564453125
 42
-0
  0
VERTEX
  8
0
 10
1351.3077392578125
 20
1065.6153564453125
 42
0
  0
SEQEND
  0
POLYLINE
  8
0
 10
0
 20
0
 39
0
 70
1
 66
1
  0
VERTEX
  8
0
 10
1376.3077392578125
 20
902.2886962890625
 42
-1
  0
VERTEX
  8
0
 10
1376.3077392578125
 20
932.2886962890625
 42
-1
  0
SEQEND
  0
POLYLINE
  8
0
 10
0
 20
0
 39
0
 70
1
 66
1
  0
VERTEX
  8
0
 10
1580.076904296875
 20
95.461540222167969
 42
-0
  0
VERTEX
  8
0
 10
1630.076904296875
 20
95.461540222167969
 42
-0
  0
VERTEX
  8
0
 10
1630.076904296875
 20
295.4615478515625
 42
-0
  0
VERTEX
  8
0
 10
1580.076904296875
 20
295.4615478515625
 42
0
  0
SEQEND
  0
POLYLINE
  8
0
 10
0
 20
0
 39
0
 70
1
 66
1
  0
VERTEX
  8
0
 10
1605.076904296875
 20
132.13485717773437
 42
-1
  0
VERTEX
  8
0
 10
1605.076904296875
 20
162.13485717773437
 42
-1
  0
SEQEND
  0
POLYLINE
  8
0
 10
0
 20
0
 39
0
 70
1
 66
1
  0
VERTEX
  8
0
 10
1580.076904296875
 20
480.5384521484375
 42
-0
  0
VERTEX
  8
0
 10
1630.076904296875
 20
480.5384521484375
 42
-0
  0
VERTEX
  8
0
 10
1630.076904296875
 20
680.5384521484375
 42
-0
  0
VERTEX
  8
0
 10
1580.076904296875
 20
680.5384521484375
 42
0
  0
SEQEND
  0
POLYLINE
  8
0
 10
0
 20
0
 39
0
 70
1
 66
1
  0
VERTEX
  8
0
 10
1605.076904296875
 20
517.2117919921875
 42
-1
  0
VERTEX
  8
0
 10
1605.076904296875
 20
547.2117919921875
 42
-1
  0
SEQEND
  0
POLYLINE
  8
0
 10
0
 20
0
 39
0
 70
1
 66
1
  0
VERTEX
  8
0
 10
1582.5384521484375
 20
865.6153564453125
 42
-0
  0
VERTEX
  8
0
 10
1632.5384521484375
 20
865.6153564453125
 42
-0
  0
VERTEX
  8
0
 10
1632.5384521484375
 20
1065.6153564453125
 42
-0
  0
VERTEX
  8
0
 10
1582.5384521484375
 20
1065.6153564453125
 42
0
  0
SEQEND
  0
POLYLINE
  8
0
 10
0
 20
0
 39
0
 70
1
 66
1
  0
VERTEX
  8
0
 10
1607.5384521484375
 20
902.2886962890625
 42
-1
  0
VERTEX
  8
0
 10
1607.5384521484375
 20
932.2886962890625
 42
-1
  0
SEQEND
  0
POLYLINE
  8
0
 10
0
 20
0
 39
0
 70
1
 66
1
  0
VERTEX
  8
0
 10
1811.3077392578125
 20
95.461540222167969
 42
-0
  0
VERTEX
  8
0
 10
1861.3077392578125
 20
95.461540222167969
 42
-0
  0
VERTEX
  8
0
 10
1861.3077392578125
 20
295.4615478515625
 42
-0
  0
VERTEX
  8
0
 10
1811.3077392578125
 20
295.4615478515625
 42
0
  0
SEQEND
  0
POLYLINE
  8
0
 10
0
 20
0
 39
0
 70
1
 66
1
  0
VERTEX
  8
0
 10
1836.3077392578125
 20
132.13485717773437
 42
-1
  0
VERTEX
  8
0
 10
1836.3077392578125
 20
162.13485717773437
 42
-1
  0
SEQEND
  0
POLYLINE
  8
0
 10
0
 20
0
 39
0
 70
1
 66
1
  0
VERTEX
  8
0
 10
656.076904296875
 20
890.69232177734375
 42
-0
  0
VERTEX
  8
0
 10
706.076904296875
 20
890.69232177734375
 42
-0
  0
VERTEX
  8
0
 10
706.076904296875
 20
990.69232177734375
 42
-0
  0
VERTEX
  8
0
 10
656.076904296875
 20
990.69232177734375
 42
0
  0
SEQEND
  0
POLYLINE
  8
0
 10
0
 20
0
 39
0
 70
1
 66
1
  0
VERTEX
  8
0
 10
681.076904296875
 20
911.098388671875
 42
-0
  0
VERTEX
  8
0
 10
668.076904296875
 20
911.098388671875
 42
-0
  0
VERTEX
  8
0
 10
668.076904296875
 20
970.2862548828125
 42
-0
  0
VERTEX
  8
0
 10
681.076904296875
 20
970.2862548828125
 42
-0
  0
VERTEX
  8
0
 10
694.076904296875
 20
970.2862548828125
 42
0
  0
VERTEX
  8
0
 10
694.076904296875
 20
911.098388671875
 42
0
  0
SEQEND
  0
POLYLINE
  8
0
 10
0
 20
0
 39
0
 70
1
 66
1
  0
VERTEX
  8
0
 10
741.15386962890625
 20
1125.4615478515625
 42
-0
  0
VERTEX
  8
0
 10
741.15386962890625
 20
1175.4615478515625
 42
-0
  0
VERTEX
  8
0
 10
641.15386962890625
 20
1175.4615478515625
 42
-0
  0
VERTEX
  8
0
 10
641.15386962890625
 20
1125.4615478515625
 42
0
  0
SEQEND
  0
POLYLINE
  8
0
 10
0
 20
0
 39
0
 70
1
 66
1
  0
VERTEX
  8
0
 10
720.747802734375
 20
1150.4615478515625
 42
-0
  0
VERTEX
  8
0
 10
720.747802734375
 20
1137.4615478515625
 42
-0
  0
VERTEX
  8
0
 10
661.55987548828125
 20
1137.4615478515625
 42
-0
  0
VERTEX
  8
0
 10
661.55987548828125
 20
1150.4615478515625
 42
-0
  0
VERTEX
  8
0
 10
661.55987548828125
 20
1163.4615478515625
 42
0
  0
VERTEX
  8
0
 10
720.747802734375
 20
1163.4615478515625
 42
0
  0
SEQEND
  0
ENDSEC
  0
EOF
