  0
SECTION
  2
ENTITIES
  0
POLYLINE
  8
0
 10
0
 20
0
 39
0
 70
1
 66
1
  0
VERTEX
  8
0
 10
0
 20
0
 42
0
  0
VERTEX
  8
0
 10
2000
 20
0
 42
0
  0
VERTEX
  8
0
 10
2000
 20
1000
 42
0
  0
VERTEX
  8
0
 10
0
 20
1000
 42
0
  0
SEQEND
  0
POLYLINE
  8
0
 10
0
 20
0
 39
0
 70
1
 66
1
  0
VERTEX
  8
0
 10
320.39999999999998
 20
10.4
 42
-0
  0
VERTEX
  8
0
 10
10.399999999999977
 20
10.4
 42
-0
  0
VERTEX
  8
0
 10
10.399999999999977
 20
201.03070678710938
 42
-0
  0
VERTEX
  8
0
 10
96.44316711425779
 20
388.39999999999998
 42
-0
  0
VERTEX
  8
0
 10
234.35683288574216
 20
388.39999999999998
 42
0
  0
VERTEX
  8
0
 10
320.39999999999998
 20
201.03070678710938
 42
0
  0
SEQEND
  0
POLYLINE
  8
0
 10
0
 20
0
 39
0
 70
1
 66
1
  0
VERTEX
  8
0
 10
268.80329742431638
 20
170.71330871582032
 42
0
  0
VERTEX
  8
0
 10
229.30329742431638
 20
170.71330871582032
 42
0
  0
VERTEX
  8
0
 10
229.30329742431638
 20
97.713316345214849
 42
0
  0
VERTEX
  8
0
 10
187.30328979492185
 20
97.713316345214849
 42
0
  0
VERTEX
  8
0
 10
187.30328979492185
 20
117.71331634521485
 42
0
  0
VERTEX
  8
0
 10
105.80328979492185
 20
117.71331634521485
 42
0
  0
VERTEX
  8
0
 10
105.80328979492185
 20
64.713316345214849
 42
0
  0
VERTEX
  8
0
 10
268.80329742431638
 20
64.713316345214849
 42
0
  0
SEQEND
  0
POLYLINE
  8
0
 10
0
 20
0
 39
0
 70
1
 66
1
  0
VERTEX
  8
0
 10
320.39999999999998
 20
398.60000000000002
 42
-0
  0
VERTEX
  8
0
 10
10.399999999999977
 20
398.60000000000002
 42
-0
  0
VERTEX
  8
0
 10
10.399999999999977
 20
589.2307067871094
 42
-0
  0
VERTEX
  8
0
 10
96.44316711425779
 20
776.60000000000002
 42
-0
  0
VERTEX
  8
0
 10
234.35683288574216
 20
776.60000000000002
 42
0
  0
VERTEX
  8
0
 10
320.39999999999998
 20
589.2307067871094
 42
0
  0
SEQEND
  0
POLYLINE
  8
0
 10
0
 20
0
 39
0
 70
1
 66
1
  0
VERTEX
  8
0
 10
268.80329742431638
 20
558.91330871582034
 42
0
  0
VERTEX
  8
0
 10
229.30329742431638
 20
558.91330871582034
 42
0
  0
VERTEX
  8
0
 10
229.30329742431638
 20
485.91331634521487
 42
0
  0
VERTEX
  8
0
 10
187.30328979492185
 20
485.91331634521487
 42
0
  0
VERTEX
  8
0
 10
187.30328979492185
 20
505.91331634521487
 42
0
  0
VERTEX
  8
0
 10
105.80328979492185
 20
505.91331634521487
 42
0
  0
VERTEX
  8
0
 10
105.80328979492185
 20
452.91331634521487
 42
0
  0
VERTEX
  8
0
 10
268.80329742431638
 20
452.91331634521487
 42
0
  0
SEQEND
  0
POLYLINE
  8
0
 10
0
 20
0
 39
0
 70
1
 66
1
  0
VERTEX
  8
0
 10
235.80000000000001
 20
989.39999999999998
 42
-0
  0
VERTEX
  8
0
 10
545.79999999999995
 20
989.39999999999998
 42
-0
  0
VERTEX
  8
0
 10
545.79999999999995
 20
798.7692932128906
 42
-0
  0
VERTEX
  8
0
 10
459.75683288574226
 20
611.39999999999998
 42
-0
  0
VERTEX
  8
0
 10
321.84316711425788
 20
611.39999999999998
 42
0
  0
VERTEX
  8
0
 10
235.80000000000004
 20
798.7692932128906
 42
0
  0
SEQEND
  0
POLYLINE
  8
0
 10
0
 20
0
 39
0
 70
1
 66
1
  0
VERTEX
  8
0
 10
287.39670257568361
 20
829.08669128417966
 42
0
  0
VERTEX
  8
0
 10
326.89670257568361
 20
829.08669128417966
 42
0
  0
VERTEX
  8
0
 10
326.89670257568361
 20
902.08668365478513
 42
0
  0
VERTEX
  8
0
 10
368.89671020507814
 20
902.08668365478513
 42
0
  0
VERTEX
  8
0
 10
368.89671020507814
 20
882.08668365478513
 42
0
  0
VERTEX
  8
0
 10
450.39671020507814
 20
882.08668365478513
 42
0
  0
VERTEX
  8
0
 10
450.39671020507814
 20
935.08668365478513
 42
0
  0
VERTEX
  8
0
 10
287.39670257568361
 20
935.08668365478513
 42
0
  0
SEQEND
  0
POLYLINE
  8
0
 10
0
 20
0
 39
0
 70
1
 66
1
  0
VERTEX
  8
0
 10
330.39999999999998
 20
395
 42
-0
  0
VERTEX
  8
0
 10
640.39999999999998
 20
395.00000000000006
 42
-0
  0
VERTEX
  8
0
 10
640.39999999999998
 20
204.36929321289065
 42
-0
  0
VERTEX
  8
0
 10
554.35683288574228
 20
17
 42
-0
  0
VERTEX
  8
0
 10
416.44316711425785
 20
17
 42
0
  0
VERTEX
  8
0
 10
330.40000000000003
 20
204.36929321289062
 42
0
  0
SEQEND
  0
POLYLINE
  8
0
 10
0
 20
0
 39
0
 70
1
 66
1
  0
VERTEX
  8
0
 10
381.99670257568357
 20
234.68669128417969
 42
0
  0
VERTEX
  8
0
 10
421.49670257568357
 20
234.68669128417969
 42
0
  0
VERTEX
  8
0
 10
421.49670257568357
 20
307.68668365478516
 42
0
  0
VERTEX
  8
0
 10
463.4967102050781
 20
307.68668365478516
 42
0
  0
VERTEX
  8
0
 10
463.4967102050781
 20
287.68668365478516
 42
0
  0
VERTEX
  8
0
 10
544.9967102050781
 20
287.68668365478516
 42
0
  0
VERTEX
  8
0
 10
544.9967102050781
 20
340.68668365478516
 42
0
  0
VERTEX
  8
0
 10
381.99670257568357
 20
340.68668365478516
 42
0
  0
SEQEND
  0
POLYLINE
  8
0
 10
0
 20
0
 39
0
 70
1
 66
1
  0
VERTEX
  8
0
 10
774.39999999999998
 20
405.19999999999999
 42
-0
  0
VERTEX
  8
0
 10
464.39999999999998
 20
405.19999999999999
 42
-0
  0
VERTEX
  8
0
 10
464.39999999999998
 20
595.83070678710942
 42
-0
  0
VERTEX
  8
0
 10
550.44316711425779
 20
783.20000000000005
 42
-0
  0
VERTEX
  8
0
 10
688.35683288574216
 20
783.20000000000005
 42
0
  0
VERTEX
  8
0
 10
774.39999999999998
 20
595.83070678710942
 42
0
  0
SEQEND
  0
POLYLINE
  8
0
 10
0
 20
0
 39
0
 70
1
 66
1
  0
VERTEX
  8
0
 10
722.80329742431638
 20
565.51330871582036
 42
0
  0
VERTEX
  8
0
 10
683.30329742431638
 20
565.51330871582036
 42
0
  0
VERTEX
  8
0
 10
683.30329742431638
 20
492.51331634521483
 42
0
  0
VERTEX
  8
0
 10
641.30328979492185
 20
492.51331634521483
 42
0
  0
VERTEX
  8
0
 10
641.30328979492185
 20
512.51331634521489
 42
0
  0
VERTEX
  8
0
 10
559.80328979492185
 20
512.51331634521489
 42
0
  0
VERTEX
  8
0
 10
559.80328979492185
 20
459.51331634521483
 42
0
  0
VERTEX
  8
0
 10
722.80329742431638
 20
459.51331634521483
 42
0
  0
SEQEND
  0
POLYLINE
  8
0
 10
0
 20
0
 39
0
 70
1
 66
1
  0
VERTEX
  8
0
 10
960.39999999999998
 20
10.4
 42
-0
  0
VERTEX
  8
0
 10
650.39999999999998
 20
10.4
 42
-0
  0
VERTEX
  8
0
 10
650.39999999999998
 20
201.03070678710938
 42
-0
  0
VERTEX
  8
0
 10
736.44316711425779
 20
388.39999999999998
 42
-0
  0
VERTEX
  8
0
 10
874.35683288574216
 20
388.39999999999998
 42
0
  0
VERTEX
  8
0
 10
960.39999999999998
 20
201.03070678710938
 42
0
  0
SEQEND
  0
POLYLINE
  8
0
 10
0
 20
0
 39
0
 70
1
 66
1
  0
VERTEX
  8
0
 10
908.80329742431638
 20
170.71330871582032
 42
0
  0
VERTEX
  8
0
 10
869.30329742431638
 20
170.71330871582032
 42
0
  0
VERTEX
  8
0
 10
869.30329742431638
 20
97.713316345214849
 42
0
  0
VERTEX
  8
0
 10
827.30328979492185
 20
97.713316345214849
 42
0
  0
VERTEX
  8
0
 10
827.30328979492185
 20
117.71331634521485
 42
0
  0
VERTEX
  8
0
 10
745.80328979492185
 20
117.71331634521485
 42
0
  0
VERTEX
  8
0
 10
745.80328979492185
 20
64.713316345214849
 42
0
  0
VERTEX
  8
0
 10
908.80329742431638
 20
64.713316345214849
 42
0
  0
SEQEND
  0
POLYLINE
  8
0
 10
0
 20
0
 39
0
 70
1
 66
1
  0
VERTEX
  8
0
 10
692.79999999999995
 20
989.60000000000002
 42
-0
  0
VERTEX
  8
0
 10
1002.8
 20
989.60000000000002
 42
-0
  0
VERTEX
  8
0
 10
1002.8
 20
798.96929321289065
 42
-0
  0
VERTEX
  8
0
 10
916.75683288574214
 20
611.60000000000002
 42
-0
  0
VERTEX
  8
0
 10
778.84316711425777
 20
611.60000000000002
 42
0
  0
VERTEX
  8
0
 10
692.79999999999995
 20
798.96929321289065
 42
0
  0
SEQEND
  0
POLYLINE
  8
0
 10
0
 20
0
 39
0
 70
1
 66
1
  0
VERTEX
  8
0
 10
744.39670257568355
 20
829.28669128417971
 42
0
  0
VERTEX
  8
0
 10
783.89670257568355
 20
829.28669128417971
 42
0
  0
VERTEX
  8
0
 10
783.89670257568355
 20
902.28668365478518
 42
0
  0
VERTEX
  8
0
 10
825.89671020507808
 20
902.28668365478518
 42
0
  0
VERTEX
  8
0
 10
825.89671020507808
 20
882.28668365478518
 42
0
  0
VERTEX
  8
0
 10
907.39671020507808
 20
882.28668365478518
 42
0
  0
VERTEX
  8
0
 10
907.39671020507808
 20
935.28668365478518
 42
0
  0
VERTEX
  8
0
 10
744.39670257568355
 20
935.28668365478518
 42
0
  0
SEQEND
  0
POLYLINE
  8
0
 10
0
 20
0
 39
0
 70
1
 66
1
  0
VERTEX
  8
0
 10
900.79999999999995
 20
395.79999999999995
 42
-1
  0
VERTEX
  8
0
 10
900.79999999999995
 20
595.79999999999995
 42
-0
  0
VERTEX
  8
0
 10
955.79999999999995
 20
595.79999999999995
 42
0
  0
VERTEX
  8
0
 10
955.79999999999995
 20
670.79999999999995
 42
-0
  0
VERTEX
  8
0
 10
1005.8
 20
670.79999999999995
 42
-0
  0
VERTEX
  8
0
 10
1005.8000000000001
 20
320.79999999999995
 42
-0
  0
VERTEX
  8
0
 10
955.80000000000007
 20
320.79999999999995
 42
0
  0
VERTEX
  8
0
 10
955.79999999999995
 20
395.79999999999995
 42
0
  0
SEQEND
  0
POLYLINE
  8
0
 10
0
 20
0
 39
0
 70
1
 66
1
  0
VERTEX
  8
0
 10
900.79999999999995
 20
520.79999999999995
 42
1
  0
VERTEX
  8
0
 10
900.79999999999995
 20
470.79999999999995
 42
1
  0
SEQEND
  0
POLYLINE
  8
0
 10
0
 20
0
 39
0
 70
1
 66
1
  0
VERTEX
  8
0
 10
1067.3999999999999
 20
129
 42
-1
  0
VERTEX
  8
0
 10
1067.3999999999999
 20
329
 42
-0
  0
VERTEX
  8
0
 10
1122.3999999999999
 20
329
 42
0
  0
VERTEX
  8
0
 10
1122.3999999999999
 20
404
 42
-0
  0
VERTEX
  8
0
 10
1172.3999999999999
 20
404
 42
-0
  0
VERTEX
  8
0
 10
1172.3999999999999
 20
54
 42
-0
  0
VERTEX
  8
0
 10
1122.3999999999999
 20
54
 42
0
  0
VERTEX
  8
0
 10
1122.3999999999999
 20
129
 42
0
  0
SEQEND
  0
POLYLINE
  8
0
 10
0
 20
0
 39
0
 70
1
 66
1
  0
VERTEX
  8
0
 10
1067.3999999999999
 20
253.99999999999997
 42
1
  0
VERTEX
  8
0
 10
1067.3999999999999
 20
203.99999999999997
 42
1
  0
SEQEND
  0
POLYLINE
  8
0
 10
0
 20
0
 39
0
 70
1
 66
1
  0
VERTEX
  8
0
 10
1095.3999999999999
 20
635.60000000000002
 42
-1
  0
VERTEX
  8
0
 10
1095.3999999999999
 20
835.60000000000002
 42
-0
  0
VERTEX
  8
0
 10
1150.3999999999999
 20
835.60000000000002
 42
0
  0
VERTEX
  8
0
 10
1150.3999999999999
 20
910.60000000000002
 42
-0
  0
VERTEX
  8
0
 10
1200.3999999999999
 20
910.60000000000002
 42
-0
  0
VERTEX
  8
0
 10
1200.3999999999999
 20
560.60000000000002
 42
-0
  0
VERTEX
  8
0
 10
1150.3999999999999
 20
560.60000000000002
 42
0
  0
VERTEX
  8
0
 10
1150.3999999999999
 20
635.60000000000002
 42
0
  0
SEQEND
  0
POLYLINE
  8
0
 10
0
 20
0
 39
0
 70
1
 66
1
  0
VERTEX
  8
0
 10
1095.3999999999999
 20
760.60000000000002
 42
1
  0
VERTEX
  8
0
 10
1095.3999999999999
 20
710.60000000000002
 42
1
  0
SEQEND
  0
POLYLINE
  8
0
 10
0
 20
0
 39
0
 70
1
 66
1
  0
VERTEX
  8
0
 10
1284.8000028610229
 20
10.4
 42
0
  0
VERTEX
  8
0
 10
1182.8
 20
10.4
 42
0
  0
VERTEX
  8
0
 10
1182.8
 20
380.40000953674314
 42
0
  0
VERTEX
  8
0
 10
1284.8000028610229
 20
380.40000953674314
 42
0
  0
SEQEND
  0
POLYLINE
  8
0
 10
0
 20
0
 39
0
 70
1
 66
1
  0
VERTEX
  8
0
 10
1246.8
 20
311.40000953674314
 42
1
  0
VERTEX
  8
0
 10
1220.8
 20
311.40000953674314
 42
1
  0
SEQEND
  0
POLYLINE
  8
0
 10
0
 20
0
 39
0
 70
1
 66
1
  0
VERTEX
  8
0
 10
1312.8000028610229
 20
390.60000000000002
 42
0
  0
VERTEX
  8
0
 10
1210.8
 20
390.60000000000002
 42
0
  0
VERTEX
  8
0
 10
1210.8
 20
760.60000953674319
 42
0
  0
VERTEX
  8
0
 10
1312.8000028610229
 20
760.60000953674319
 42
0
  0
SEQEND
  0
POLYLINE
  8
0
 10
0
 20
0
 39
0
 70
1
 66
1
  0
VERTEX
  8
0
 10
1274.8
 20
691.60000953674319
 42
1
  0
VERTEX
  8
0
 10
1248.8
 20
691.60000953674319
 42
1
  0
SEQEND
  0
POLYLINE
  8
0
 10
0
 20
0
 39
0
 70
1
 66
1
  0
VERTEX
  8
0
 10
1397.200002861023
 20
10.4
 42
0
  0
VERTEX
  8
0
 10
1295.2
 20
10.4
 42
0
  0
VERTEX
  8
0
 10
1295.2
 20
380.40000953674314
 42
0
  0
VERTEX
  8
0
 10
1397.200002861023
 20
380.40000953674314
 42
0
  0
SEQEND
  0
POLYLINE
  8
0
 10
0
 20
0
 39
0
 70
1
 66
1
  0
VERTEX
  8
0
 10
1359.2
 20
311.40000953674314
 42
1
  0
VERTEX
  8
0
 10
1333.2
 20
311.40000953674314
 42
1
  0
SEQEND
  0
POLYLINE
  8
0
 10
0
 20
0
 39
0
 70
1
 66
1
  0
VERTEX
  8
0
 10
1425.200002861023
 20
390.60000000000002
 42
0
  0
VERTEX
  8
0
 10
1323.2
 20
390.60000000000002
 42
0
  0
VERTEX
  8
0
 10
1323.2
 20
760.60000953674319
 42
0
  0
VERTEX
  8
0
 10
1425.200002861023
 20
760.60000953674319
 42
0
  0
SEQEND
  0
POLYLINE
  8
0
 10
0
 20
0
 39
0
 70
1
 66
1
  0
VERTEX
  8
0
 10
1387.2
 20
691.60000953674319
 42
1
  0
VERTEX
  8
0
 10
1361.2
 20
691.60000953674319
 42
1
  0
SEQEND
  0
POLYLINE
  8
0
 10
0
 20
0
 39
0
 70
1
 66
1
  0
VERTEX
  8
0
 10
1509.6000028610229
 20
10.4
 42
0
  0
VERTEX
  8
0
 10
1407.5999999999999
 20
10.4
 42
0
  0
VERTEX
  8
0
 10
1407.5999999999999
 20
380.40000953674314
 42
0
  0
VERTEX
  8
0
 10
1509.6000028610229
 20
380.40000953674314
 42
0
  0
SEQEND
  0
POLYLINE
  8
0
 10
0
 20
0
 39
0
 70
1
 66
1
  0
VERTEX
  8
0
 10
1471.5999999999999
 20
311.40000953674314
 42
1
  0
VERTEX
  8
0
 10
1445.5999999999999
 20
311.40000953674314
 42
1
  0
SEQEND
  0
POLYLINE
  8
0
 10
0
 20
0
 39
0
 70
1
 66
1
  0
VERTEX
  8
0
 10
1537.6000028610229
 20
390.60000000000002
 42
0
  0
VERTEX
  8
0
 10
1435.5999999999999
 20
390.60000000000002
 42
0
  0
VERTEX
  8
0
 10
1435.5999999999999
 20
760.60000953674319
 42
0
  0
VERTEX
  8
0
 10
1537.6000028610229
 20
760.60000953674319
 42
0
  0
SEQEND
  0
POLYLINE
  8
0
 10
0
 20
0
 39
0
 70
1
 66
1
  0
VERTEX
  8
0
 10
1499.5999999999999
 20
691.60000953674319
 42
1
  0
VERTEX
  8
0
 10
1473.5999999999999
 20
691.60000953674319
 42
1
  0
SEQEND
  0
POLYLINE
  8
0
 10
0
 20
0
 39
0
 70
1
 66
1
  0
VERTEX
  8
0
 10
1210.5999999999999
 20
770.79999999999995
 42
0
  0
VERTEX
  8
0
 10
1210.5999999999999
 20
872.8000028610229
 42
0
  0
VERTEX
  8
0
 10
1580.6000095367431
 20
872.8000028610229
 42
0
  0
VERTEX
  8
0
 10
1580.6000095367431
 20
770.79999999999995
 42
0
  0
SEQEND
  0
POLYLINE
  8
0
 10
0
 20
0
 39
0
 70
1
 66
1
  0
VERTEX
  8
0
 10
1511.6000095367431
 20
808.8000028610229
 42
1
  0
VERTEX
  8
0
 10
1511.6000095367431
 20
834.8000028610229
 42
1
  0
SEQEND
  0
POLYLINE
  8
0
 10
0
 20
0
 39
0
 70
1
 66
1
  0
VERTEX
  8
0
 10
1210.5999999999999
 20
883
 42
0
  0
VERTEX
  8
0
 10
1210.5999999999999
 20
985.00000286102295
 42
0
  0
VERTEX
  8
0
 10
1580.6000095367431
 20
985.00000286102295
 42
0
  0
VERTEX
  8
0
 10
1580.6000095367431
 20
883
 42
0
  0
SEQEND
  0
POLYLINE
  8
0
 10
0
 20
0
 39
0
 70
1
 66
1
  0
VERTEX
  8
0
 10
1511.6000095367431
 20
921.00000286102295
 42
1
  0
VERTEX
  8
0
 10
1511.6000095367431
 20
947.00000286102295
 42
1
  0
SEQEND
  0
POLYLINE
  8
0
 10
0
 20
0
 39
0
 70
1
 66
1
  0
VERTEX
  8
0
 10
1622.0000028610229
 20
10.4
 42
0
  0
VERTEX
  8
0
 10
1520
 20
10.4
 42
0
  0
VERTEX
  8
0
 10
1520
 20
380.40000953674314
 42
0
  0
VERTEX
  8
0
 10
1622.0000028610229
 20
380.40000953674314
 42
0
  0
SEQEND
  0
POLYLINE
  8
0
 10
0
 20
0
 39
0
 70
1
 66
1
  0
VERTEX
  8
0
 10
1584
 20
311.40000953674314
 42
1
  0
VERTEX
  8
0
 10
1558
 20
311.40000953674314
 42
1
  0
SEQEND
  0
POLYLINE
  8
0
 10
0
 20
0
 39
0
 70
1
 66
1
  0
VERTEX
  8
0
 10
1650.0000028610229
 20
390.60000000000002
 42
0
  0
VERTEX
  8
0
 10
1548
 20
390.60000000000002
 42
0
  0
VERTEX
  8
0
 10
1548
 20
760.60000953674319
 42
0
  0
VERTEX
  8
0
 10
1650.0000028610229
 20
760.60000953674319
 42
0
  0
SEQEND
  0
POLYLINE
  8
0
 10
0
 20
0
 39
0
 70
1
 66
1
  0
VERTEX
  8
0
 10
1612
 20
691.60000953674319
 42
1
  0
VERTEX
  8
0
 10
1586
 20
691.60000953674319
 42
1
  0
SEQEND
  0
POLYLINE
  8
0
 10
0
 20
0
 39
0
 70
1
 66
1
  0
VERTEX
  8
0
 10
1016.2
 20
339.39999999999998
 42
-0
  0
VERTEX
  8
0
 10
1016.2
 20
609.39999999999998
 42
0
  0
VERTEX
  8
0
 10
1027.2727872848511
 20
609.39999999999998
 42
1
  0
VERTEX
  8
0
 10
1059.2727882385254
 20
609.39999999999998
 42
0
  0
VERTEX
  8
0
 10
1070.3455726623536
 20
609.39999999999998
 42
-0.21420902013778687
  0
VERTEX
  8
0
 10
1106.2
 20
576.98435058593748
 42
0
  0
VERTEX
  8
0
 10
1106.2
 20
339.39999999999998
 42
0
  0
SEQEND
  0
POLYLINE
  8
0
 10
0
 20
0
 39
0
 70
1
 66
1
  0
VERTEX
  8
0
 10
1061.2
 20
409.82311096191404
 42
1
  0
VERTEX
  8
0
 10
1061.2
 20
449.82311096191404
 42
1
  0
SEQEND
  0
POLYLINE
  8
0
 10
0
 20
0
 39
0
 70
1
 66
1
  0
VERTEX
  8
0
 10
1632.4000000000001
 20
10.4
 42
-0
  0
VERTEX
  8
0
 10
1632.4000000000001
 20
280.39999999999998
 42
0
  0
VERTEX
  8
0
 10
1643.4727872848512
 20
280.39999999999998
 42
1
  0
VERTEX
  8
0
 10
1675.4727882385255
 20
280.39999999999998
 42
0
  0
VERTEX
  8
0
 10
1686.5455726623536
 20
280.39999999999998
 42
-0.21420902013778687
  0
VERTEX
  8
0
 10
1722.4000000000001
 20
247.98435058593751
 42
0
  0
VERTEX
  8
0
 10
1722.4000000000001
 20
10.400000000000011
 42
0
  0
SEQEND
  0
POLYLINE
  8
0
 10
0
 20
0
 39
0
 70
1
 66
1
  0
VERTEX
  8
0
 10
1677.4000000000001
 20
80.823110961914068
 42
1
  0
VERTEX
  8
0
 10
1677.4000000000001
 20
120.82311096191407
 42
1
  0
SEQEND
  0
POLYLINE
  8
0
 10
0
 20
0
 39
0
 70
1
 66
1
  0
VERTEX
  8
0
 10
1750.4000000000001
 20
558.20000000000005
 42
-0
  0
VERTEX
  8
0
 10
1750.4000000000001
 20
288.20000000000005
 42
0
  0
VERTEX
  8
0
 10
1739.327212715149
 20
288.20000000000005
 42
1
  0
VERTEX
  8
0
 10
1707.3272117614747
 20
288.20000000000005
 42
0
  0
VERTEX
  8
0
 10
1696.2544273376466
 20
288.20000000000005
 42
-0.21420902013778687
  0
VERTEX
  8
0
 10
1660.4000000000001
 20
320.61564941406255
 42
0
  0
VERTEX
  8
0
 10
1660.4000000000001
 20
558.20000000000005
 42
0
  0
SEQEND
  0
POLYLINE
  8
0
 10
0
 20
0
 39
0
 70
1
 66
1
  0
VERTEX
  8
0
 10
1705.4000000000001
 20
487.77688903808598
 42
1
  0
VERTEX
  8
0
 10
1705.4000000000001
 20
447.77688903808598
 42
1
  0
SEQEND
  0
POLYLINE
  8
0
 10
0
 20
0
 39
0
 70
1
 66
1
  0
VERTEX
  8
0
 10
1660.4000000000001
 20
568.39999999999998
 42
-0
  0
VERTEX
  8
0
 10
1660.4000000000001
 20
838.39999999999998
 42
0
  0
VERTEX
  8
0
 10
1671.4727872848512
 20
838.39999999999998
 42
1
  0
VERTEX
  8
0
 10
1703.4727882385255
 20
838.39999999999998
 42
0
  0
VERTEX
  8
0
 10
1714.5455726623536
 20
838.39999999999998
 42
-0.21420902013778687
  0
VERTEX
  8
0
 10
1750.4000000000001
 20
805.98435058593748
 42
0
  0
VERTEX
  8
0
 10
1750.4000000000001
 20
568.39999999999998
 42
0
  0
SEQEND
  0
POLYLINE
  8
0
 10
0
 20
0
 39
0
 70
1
 66
1
  0
VERTEX
  8
0
 10
1705.4000000000001
 20
638.82311096191404
 42
1
  0
VERTEX
  8
0
 10
1705.4000000000001
 20
678.82311096191404
 42
1
  0
SEQEND
  0
POLYLINE
  8
0
 10
0
 20
0
 39
0
 70
1
 66
1
  0
VERTEX
  8
0
 10
1757.2
 20
10.4
 42
-0
  0
VERTEX
  8
0
 10
1757.2
 20
280.39999999999998
 42
0
  0
VERTEX
  8
0
 10
1768.2727872848511
 20
280.39999999999998
 42
1
  0
VERTEX
  8
0
 10
1800.2727882385254
 20
280.39999999999998
 42
0
  0
VERTEX
  8
0
 10
1811.3455726623536
 20
280.39999999999998
 42
-0.21420902013778687
  0
VERTEX
  8
0
 10
1847.2
 20
247.98435058593751
 42
0
  0
VERTEX
  8
0
 10
1847.2
 20
10.400000000000011
 42
0
  0
SEQEND
  0
POLYLINE
  8
0
 10
0
 20
0
 39
0
 70
1
 66
1
  0
VERTEX
  8
0
 10
1802.2
 20
80.823110961914068
 42
1
  0
VERTEX
  8
0
 10
1802.2
 20
120.82311096191407
 42
1
  0
SEQEND
  0
POLYLINE
  8
0
 10
0
 20
0
 39
0
 70
1
 66
1
  0
VERTEX
  8
0
 10
1760.8
 20
290.60000000000002
 42
-0
  0
VERTEX
  8
0
 10
1760.8
 20
560.60000000000002
 42
0
  0
VERTEX
  8
0
 10
1771.872787284851
 20
560.60000000000002
 42
1
  0
VERTEX
  8
0
 10
1803.8727882385253
 20
560.60000000000002
 42
0
  0
VERTEX
  8
0
 10
1814.9455726623535
 20
560.60000000000002
 42
-0.21420902013778687
  0
VERTEX
  8
0
 10
1850.8
 20
528.18435058593752
 42
0
  0
VERTEX
  8
0
 10
1850.8
 20
290.60000000000002
 42
0
  0
SEQEND
  0
POLYLINE
  8
0
 10
0
 20
0
 39
0
 70
1
 66
1
  0
VERTEX
  8
0
 10
1805.8
 20
361.02311096191409
 42
1
  0
VERTEX
  8
0
 10
1805.8
 20
401.02311096191409
 42
1
  0
SEQEND
  0
POLYLINE
  8
0
 10
0
 20
0
 39
0
 70
1
 66
1
  0
VERTEX
  8
0
 10
1760.8
 20
570.79999999999995
 42
-0
  0
VERTEX
  8
0
 10
1760.8
 20
840.79999999999995
 42
0
  0
VERTEX
  8
0
 10
1771.872787284851
 20
840.79999999999995
 42
1
  0
VERTEX
  8
0
 10
1803.8727882385253
 20
840.79999999999995
 42
0
  0
VERTEX
  8
0
 10
1814.9455726623535
 20
840.79999999999995
 42
-0.21420902013778687
  0
VERTEX
  8
0
 10
1850.8
 20
808.38435058593745
 42
0
  0
VERTEX
  8
0
 10
1850.8
 20
570.79999999999995
 42
0
  0
SEQEND
  0
POLYLINE
  8
0
 10
0
 20
0
 39
0
 70
1
 66
1
  0
VERTEX
  8
0
 10
1805.8
 20
641.22311096191402
 42
1
  0
VERTEX
  8
0
 10
1805.8
 20
681.22311096191402
 42
1
  0
SEQEND
  0
POLYLINE
  8
0
 10
0
 20
0
 39
0
 70
1
 66
1
  0
VERTEX
  8
0
 10
10.400000000000006
 20
791.02705411911006
 42
-0
  0
VERTEX
  8
0
 10
24.715444946289068
 20
956.79999999999995
 42
-0
  0
VERTEX
  8
0
 10
131.71544494628907
 20
956.79999999999995
 42
0
  0
VERTEX
  8
0
 10
146.03088794052601
 20
791.02705411911006
 42
-0
  0
VERTEX
  8
0
 10
97.715444946289068
 20
786.79999999999995
 42
0
  0
VERTEX
  8
0
 10
93.663519287109381
 20
833.11368637084956
 42
0.36397022008895874
  0
VERTEX
  8
0
 10
83.815443420410162
 20
841.37720565795894
 42
-0
  0
VERTEX
  8
0
 10
72.615446472167974
 20
841.37720565795894
 42
0.36397022008895874
  0
VERTEX
  8
0
 10
62.767370605468756
 20
833.11368637084956
 42
-0
  0
VERTEX
  8
0
 10
58.715444946289068
 20
786.79999999999995
 42
-0
  0
SEQEND
  0
POLYLINE
  8
0
 10
0
 20
0
 39
0
 70
1
 66
1
  0
VERTEX
  8
0
 10
43.465444946289068
 20
931.79999999999995
 42
1
  0
VERTEX
  8
0
 10
32.965444946289068
 20
931.79999999999995
 42
1
  0
SEQEND
  0
POLYLINE
  8
0
 10
0
 20
0
 39
0
 70
1
 66
1
  0
VERTEX
  8
0
 10
123.46544494628907
 20
931.79999999999995
 42
1
  0
VERTEX
  8
0
 10
112.96544494628907
 20
931.79999999999995
 42
1
  0
SEQEND
  0
POLYLINE
  8
0
 10
0
 20
0
 39
0
 70
1
 66
1
  0
VERTEX
  8
0
 10
1846
 20
851
 42
-0
  0
VERTEX
  8
0
 10
1591
 20
851
 42
0
  0
VERTEX
  8
0
 10
1591
 20
931
 42
0
  0
VERTEX
  8
0
 10
1644
 20
931
 42
0
  0
VERTEX
  8
0
 10
1644
 20
917
 42
0
  0
VERTEX
  8
0
 10
1674
 20
917
 42
0
  0
VERTEX
  8
0
 10
1674
 20
931
 42
0
  0
VERTEX
  8
0
 10
1846
 20
931
 42
0
  0
SEQEND
  0
POLYLINE
  8
0
 10
0
 20
0
 39
0
 70
1
 66
1
  0
VERTEX
  8
0
 10
1831.5467052459717
 20
917.5
 42
-0
  0
VERTEX
  8
0
 10
1763.5467071533203
 20
917.5
 42
0
  0
VERTEX
  8
0
 10
1763.5467071533203
 20
901.5
 42
0
  0
VERTEX
  8
0
 10
1779.643798828125
 20
901.5
 42
0
  0
VERTEX
  8
0
 10
1779.643798828125
 20
879
 42
0
  0
VERTEX
  8
0
 10
1722
 20
879
 42
0
  0
VERTEX
  8
0
 10
1722
 20
917
 42
0
  0
VERTEX
  8
0
 10
1686
 20
917
 42
0
  0
VERTEX
  8
0
 10
1686
 20
901.5
 42
0
  0
VERTEX
  8
0
 10
1659
 20
901.5
 42
0
  0
VERTEX
  8
0
 10
1659
 20
864.5
 42
0
  0
VERTEX
  8
0
 10
1831.5467052459717
 20
864.5
 42
0
  0
SEQEND
  0
POLYLINE
  8
0
 10
0
 20
0
 39
0
 70
1
 66
1
  0
VERTEX
  8
0
 10
1857.5999999999999
 20
10.4
 42
-0
  0
VERTEX
  8
0
 10
1857.5999999999999
 20
265.39999999999998
 42
0
  0
VERTEX
  8
0
 10
1937.5999999999999
 20
265.39999999999998
 42
0
  0
VERTEX
  8
0
 10
1937.5999999999999
 20
212.40000000000001
 42
0
  0
VERTEX
  8
0
 10
1923.5999999999999
 20
212.40000000000001
 42
0
  0
VERTEX
  8
0
 10
1923.5999999999999
 20
182.40000000000001
 42
0
  0
VERTEX
  8
0
 10
1937.5999999999999
 20
182.40000000000001
 42
0
  0
VERTEX
  8
0
 10
1937.5999999999999
 20
10.400000000000011
 42
0
  0
SEQEND
  0
POLYLINE
  8
0
 10
0
 20
0
 39
0
 70
1
 66
1
  0
VERTEX
  8
0
 10
1924.0999999999999
 20
24.853294754028326
 42
-0
  0
VERTEX
  8
0
 10
1924.0999999999999
 20
92.853292846679693
 42
0
  0
VERTEX
  8
0
 10
1908.0999999999999
 20
92.853292846679693
 42
0
  0
VERTEX
  8
0
 10
1908.0999999999999
 20
76.756201171875006
 42
0
  0
VERTEX
  8
0
 10
1885.5999999999999
 20
76.756201171875006
 42
0
  0
VERTEX
  8
0
 10
1885.5999999999999
 20
134.40000000000001
 42
0
  0
VERTEX
  8
0
 10
1923.5999999999999
 20
134.40000000000001
 42
0
  0
VERTEX
  8
0
 10
1923.5999999999999
 20
170.40000000000001
 42
0
  0
VERTEX
  8
0
 10
1908.0999999999999
 20
170.40000000000001
 42
0
  0
VERTEX
  8
0
 10
1908.0999999999999
 20
197.40000000000001
 42
0
  0
VERTEX
  8
0
 10
1871.0999999999999
 20
197.40000000000001
 42
0
  0
VERTEX
  8
0
 10
1871.0999999999999
 20
24.853294754028319
 42
0
  0
SEQEND
  0
POLYLINE
  8
0
 10
0
 20
0
 39
0
 70
1
 66
1
  0
VERTEX
  8
0
 10
1861.2
 20
275.60000000000002
 42
-0
  0
VERTEX
  8
0
 10
1861.2
 20
530.60000000000002
 42
0
  0
VERTEX
  8
0
 10
1941.2
 20
530.60000000000002
 42
0
  0
VERTEX
  8
0
 10
1941.2
 20
477.60000000000002
 42
0
  0
VERTEX
  8
0
 10
1927.2
 20
477.60000000000002
 42
0
  0
VERTEX
  8
0
 10
1927.2
 20
447.60000000000002
 42
0
  0
VERTEX
  8
0
 10
1941.2
 20
447.60000000000002
 42
0
  0
VERTEX
  8
0
 10
1941.2
 20
275.60000000000002
 42
0
  0
SEQEND
  0
POLYLINE
  8
0
 10
0
 20
0
 39
0
 70
1
 66
1
  0
VERTEX
  8
0
 10
1927.7
 20
290.05329475402834
 42
-0
  0
VERTEX
  8
0
 10
1927.7
 20
358.05329284667971
 42
0
  0
VERTEX
  8
0
 10
1911.7
 20
358.05329284667971
 42
0
  0
VERTEX
  8
0
 10
1911.7
 20
341.95620117187502
 42
0
  0
VERTEX
  8
0
 10
1889.2
 20
341.95620117187502
 42
0
  0
VERTEX
  8
0
 10
1889.2
 20
399.60000000000002
 42
0
  0
VERTEX
  8
0
 10
1927.2
 20
399.60000000000002
 42
0
  0
VERTEX
  8
0
 10
1927.2
 20
435.60000000000002
 42
0
  0
VERTEX
  8
0
 10
1911.7
 20
435.60000000000002
 42
0
  0
VERTEX
  8
0
 10
1911.7
 20
462.60000000000002
 42
0
  0
VERTEX
  8
0
 10
1874.7
 20
462.60000000000002
 42
0
  0
VERTEX
  8
0
 10
1874.7
 20
290.05329475402834
 42
0
  0
SEQEND
  0
POLYLINE
  8
0
 10
0
 20
0
 39
0
 70
1
 66
1
  0
VERTEX
  8
0
 10
1861.2
 20
540.79999999999995
 42
-0
  0
VERTEX
  8
0
 10
1861.2
 20
795.79999999999995
 42
0
  0
VERTEX
  8
0
 10
1941.2
 20
795.79999999999995
 42
0
  0
VERTEX
  8
0
 10
1941.2
 20
742.79999999999995
 42
0
  0
VERTEX
  8
0
 10
1927.2
 20
742.79999999999995
 42
0
  0
VERTEX
  8
0
 10
1927.2
 20
712.79999999999995
 42
0
  0
VERTEX
  8
0
 10
1941.2
 20
712.79999999999995
 42
0
  0
VERTEX
  8
0
 10
1941.2
 20
540.79999999999995
 42
0
  0
SEQEND
  0
POLYLINE
  8
0
 10
0
 20
0
 39
0
 70
1
 66
1
  0
VERTEX
  8
0
 10
1927.7
 20
555.25329475402827
 42
-0
  0
VERTEX
  8
0
 10
1927.7
 20
623.25329284667964
 42
0
  0
VERTEX
  8
0
 10
1911.7
 20
623.25329284667964
 42
0
  0
VERTEX
  8
0
 10
1911.7
 20
607.15620117187495
 42
0
  0
VERTEX
  8
0
 10
1889.2
 20
607.15620117187495
 42
0
  0
VERTEX
  8
0
 10
1889.2
 20
664.79999999999995
 42
0
  0
VERTEX
  8
0
 10
1927.2
 20
664.79999999999995
 42
0
  0
VERTEX
  8
0
 10
1927.2
 20
700.79999999999995
 42
0
  0
VERTEX
  8
0
 10
1911.7
 20
700.79999999999995
 42
0
  0
VERTEX
  8
0
 10
1911.7
 20
727.79999999999995
 42
0
  0
VERTEX
  8
0
 10
1874.7
 20
727.79999999999995
 42
0
  0
VERTEX
  8
0
 10
1874.7
 20
555.25329475402827
 42
0
  0
SEQEND
  0
POLYLINE
  8
0
 10
0
 20
0
 39
0
 70
1
 66
1
  0
VERTEX
  8
0
 10
330.80000000000001
 20
405.19999999999999
 42
-0
  0
VERTEX
  8
0
 10
330.80000000000001
 20
555.20000000000005
 42
0
  0
VERTEX
  8
0
 10
419.80000000000001
 20
555.20000000000005
 42
0
  0
VERTEX
  8
0
 10
419.80000000000001
 20
527.20000000000005
 42
1
  0
VERTEX
  8
0
 10
419.80000000000001
 20
433.19999999999999
 42
0
  0
VERTEX
  8
0
 10
419.80000000000001
 20
405.19999999999999
 42
0
  0
SEQEND
  0
POLYLINE
  8
0
 10
0
 20
0
 39
0
 70
1
 66
1
  0
VERTEX
  8
0
 10
360.36445312500001
 20
417.19999999999999
 42
1
  0
VERTEX
  8
0
 10
360.36445312500001
 20
449.19999999999999
 42
1
  0
SEQEND
  0
POLYLINE
  8
0
 10
0
 20
0
 39
0
 70
1
 66
1
  0
VERTEX
  8
0
 10
556.20000000000005
 20
793.39999999999998
 42
-0
  0
VERTEX
  8
0
 10
556.20000000000005
 20
943.39999999999998
 42
0
  0
VERTEX
  8
0
 10
645.20000000000005
 20
943.39999999999998
 42
0
  0
VERTEX
  8
0
 10
645.20000000000005
 20
915.39999999999998
 42
1
  0
VERTEX
  8
0
 10
645.20000000000005
 20
821.39999999999998
 42
0
  0
VERTEX
  8
0
 10
645.20000000000005
 20
793.39999999999998
 42
0
  0
SEQEND
  0
POLYLINE
  8
0
 10
0
 20
0
 39
0
 70
1
 66
1
  0
VERTEX
  8
0
 10
585.76445312500005
 20
805.39999999999998
 42
1
  0
VERTEX
  8
0
 10
585.76445312500005
 20
837.39999999999998
 42
1
  0
SEQEND
  0
POLYLINE
  8
0
 10
0
 20
0
 39
0
 70
1
 66
1
  0
VERTEX
  8
0
 10
1945.2
 20
970.79999999999995
 42
-0
  0
VERTEX
  8
0
 10
1945.2
 20
820.79999999999995
 42
0
  0
VERTEX
  8
0
 10
1856.2
 20
820.79999999999995
 42
0
  0
VERTEX
  8
0
 10
1856.2
 20
848.79999999999995
 42
1
  0
VERTEX
  8
0
 10
1856.2
 20
942.79999999999995
 42
0
  0
VERTEX
  8
0
 10
1856.2
 20
970.79999999999995
 42
0
  0
SEQEND
  0
POLYLINE
  8
0
 10
0
 20
0
 39
0
 70
1
 66
1
  0
VERTEX
  8
0
 10
1915.635546875
 20
958.79999999999995
 42
1
  0
VERTEX
  8
0
 10
1915.635546875
 20
926.79999999999995
 42
1
  0
SEQEND
  0
POLYLINE
  8
0
 10
0
 20
0
 39
0
 70
1
 66
1
  0
VERTEX
  8
0
 10
184
 20
888.60000000000002
 42
0
  0
VERTEX
  8
0
 10
148
 20
888.60000000000002
 42
0
  0
VERTEX
  8
0
 10
148
 20
988.60000000000002
 42
0
  0
VERTEX
  8
0
 10
184
 20
988.60000000000002
 42
0
  0
SEQEND
  0
POLYLINE
  8
0
 10
0
 20
0
 39
0
 70
1
 66
1
  0
VERTEX
  8
0
 10
166
 20
927.60000000000002
 42
1
  0
VERTEX
  8
0
 10
166
 20
949.60000000000002
 42
1
  0
SEQEND
  0
POLYLINE
  8
0
 10
0
 20
0
 39
0
 70
1
 66
1
  0
VERTEX
  8
0
 10
656.20000000000005
 20
989.60000000000002
 42
0
  0
VERTEX
  8
0
 10
656.20000000000005
 20
953.60000000000002
 42
0
  0
VERTEX
  8
0
 10
556.20000000000005
 20
953.60000000000002
 42
0
  0
VERTEX
  8
0
 10
556.20000000000005
 20
989.60000000000002
 42
0
  0
SEQEND
  0
POLYLINE
  8
0
 10
0
 20
0
 39
0
 70
1
 66
1
  0
VERTEX
  8
0
 10
617.20000000000005
 20
971.60000000000002
 42
1
  0
VERTEX
  8
0
 10
595.20000000000005
 20
971.60000000000002
 42
1
  0
SEQEND
  0
POLYLINE
  8
0
 10
0
 20
0
 39
0
 70
1
 66
1
  0
VERTEX
  8
0
 10
1006.8
 20
10.399999999999999
 42
0
  0
VERTEX
  8
0
 10
970.79999999999995
 20
10.399999999999999
 42
0
  0
VERTEX
  8
0
 10
970.79999999999995
 20
110.40000000000001
 42
0
  0
VERTEX
  8
0
 10
1006.8
 20
110.40000000000001
 42
0
  0
SEQEND
  0
POLYLINE
  8
0
 10
0
 20
0
 39
0
 70
1
 66
1
  0
VERTEX
  8
0
 10
988.79999999999995
 20
49.399999999999999
 42
1
  0
VERTEX
  8
0
 10
988.79999999999995
 20
71.400000000000006
 42
1
  0
SEQEND
  0
POLYLINE
  8
0
 10
0
 20
0
 39
0
 70
1
 66
1
  0
VERTEX
  8
0
 10
1049.2
 20
836.20000000000005
 42
0
  0
VERTEX
  8
0
 10
1013.2
 20
836.20000000000005
 42
0
  0
VERTEX
  8
0
 10
1013.2
 20
936.20000000000005
 42
0
  0
VERTEX
  8
0
 10
1049.2
 20
936.20000000000005
 42
0
  0
SEQEND
  0
POLYLINE
  8
0
 10
0
 20
0
 39
0
 70
1
 66
1
  0
VERTEX
  8
0
 10
1031.2
 20
875.20000000000005
 42
1
  0
VERTEX
  8
0
 10
1031.2
 20
897.20000000000005
 42
1
  0
SEQEND
  0
POLYLINE
  8
0
 10
0
 20
0
 39
0
 70
1
 66
1
  0
VERTEX
  8
0
 10
1053.2
 20
10.399999999999999
 42
0
  0
VERTEX
  8
0
 10
1017.2
 20
10.399999999999999
 42
0
  0
VERTEX
  8
0
 10
1017.2
 20
110.40000000000001
 42
0
  0
VERTEX
  8
0
 10
1053.2
 20
110.40000000000001
 42
0
  0
SEQEND
  0
POLYLINE
  8
0
 10
0
 20
0
 39
0
 70
1
 66
1
  0
VERTEX
  8
0
 10
1035.2
 20
49.399999999999999
 42
1
  0
VERTEX
  8
0
 10
1035.2
 20
71.400000000000006
 42
1
  0
SEQEND
  0
POLYLINE
  8
0
 10
0
 20
0
 39
0
 70
1
 66
1
  0
VERTEX
  8
0
 10
1095.5999999999999
 20
846
 42
0
  0
VERTEX
  8
0
 10
1059.5999999999999
 20
846
 42
0
  0
VERTEX
  8
0
 10
1059.5999999999999
 20
946
 42
0
  0
VERTEX
  8
0
 10
1095.5999999999999
 20
946
 42
0
  0
SEQEND
  0
POLYLINE
  8
0
 10
0
 20
0
 39
0
 70
1
 66
1
  0
VERTEX
  8
0
 10
1077.5999999999999
 20
885
 42
1
  0
VERTEX
  8
0
 10
1077.5999999999999
 20
907
 42
1
  0
SEQEND
  0
POLYLINE
  8
0
 10
0
 20
0
 39
0
 70
1
 66
1
  0
VERTEX
  8
0
 10
1099.5999999999999
 20
10.399999999999999
 42
0
  0
VERTEX
  8
0
 10
1063.5999999999999
 20
10.399999999999999
 42
0
  0
VERTEX
  8
0
 10
1063.5999999999999
 20
110.40000000000001
 42
0
  0
VERTEX
  8
0
 10
1099.5999999999999
 20
110.40000000000001
 42
0
  0
SEQEND
  0
POLYLINE
  8
0
 10
0
 20
0
 39
0
 70
1
 66
1
  0
VERTEX
  8
0
 10
1081.5999999999999
 20
49.399999999999999
 42
1
  0
VERTEX
  8
0
 10
1081.5999999999999
 20
71.400000000000006
 42
1
  0
SEQEND
  0
POLYLINE
  8
0
 10
0
 20
0
 39
0
 70
1
 66
1
  0
VERTEX
  8
0
 10
1152.5999999999999
 20
414.19999999999999
 42
0
  0
VERTEX
  8
0
 10
1116.5999999999999
 20
414.19999999999999
 42
0
  0
VERTEX
  8
0
 10
1116.5999999999999
 20
514.20000000000005
 42
0
  0
VERTEX
  8
0
 10
1152.5999999999999
 20
514.20000000000005
 42
0
  0
SEQEND
  0
POLYLINE
  8
0
 10
0
 20
0
 39
0
 70
1
 66
1
  0
VERTEX
  8
0
 10
1134.5999999999999
 20
453.19999999999999
 42
1
  0
VERTEX
  8
0
 10
1134.5999999999999
 20
475.19999999999999
 42
1
  0
SEQEND
  0
POLYLINE
  8
0
 10
0
 20
0
 39
0
 70
1
 66
1
  0
VERTEX
  8
0
 10
1199
 20
414.19999999999999
 42
0
  0
VERTEX
  8
0
 10
1163
 20
414.19999999999999
 42
0
  0
VERTEX
  8
0
 10
1163
 20
514.20000000000005
 42
0
  0
VERTEX
  8
0
 10
1199
 20
514.20000000000005
 42
0
  0
SEQEND
  0
POLYLINE
  8
0
 10
0
 20
0
 39
0
 70
1
 66
1
  0
VERTEX
  8
0
 10
1181
 20
453.19999999999999
 42
1
  0
VERTEX
  8
0
 10
1181
 20
475.19999999999999
 42
1
  0
SEQEND
  0
POLYLINE
  8
0
 10
0
 20
0
 39
0
 70
1
 66
1
  0
VERTEX
  8
0
 10
1691
 20
977.20000000000005
 42
0
  0
VERTEX
  8
0
 10
1691
 20
941.20000000000005
 42
0
  0
VERTEX
  8
0
 10
1591
 20
941.20000000000005
 42
0
  0
VERTEX
  8
0
 10
1591
 20
977.20000000000005
 42
0
  0
SEQEND
  0
POLYLINE
  8
0
 10
0
 20
0
 39
0
 70
1
 66
1
  0
VERTEX
  8
0
 10
1652
 20
959.20000000000005
 42
1
  0
VERTEX
  8
0
 10
1630
 20
959.20000000000005
 42
1
  0
SEQEND
  0
POLYLINE
  8
0
 10
0
 20
0
 39
0
 70
1
 66
1
  0
VERTEX
  8
0
 10
1801.4000000000001
 20
977.20000000000005
 42
0
  0
VERTEX
  8
0
 10
1801.4000000000001
 20
941.20000000000005
 42
0
  0
VERTEX
  8
0
 10
1701.4000000000001
 20
941.20000000000005
 42
0
  0
VERTEX
  8
0
 10
1701.4000000000001
 20
977.20000000000005
 42
0
  0
SEQEND
  0
POLYLINE
  8
0
 10
0
 20
0
 39
0
 70
1
 66
1
  0
VERTEX
  8
0
 10
1762.4000000000001
 20
959.20000000000005
 42
1
  0
VERTEX
  8
0
 10
1740.4000000000001
 20
959.20000000000005
 42
1
  0
SEQEND
  0
POLYLINE
  8
0
 10
0
 20
0
 39
0
 70
1
 66
1
  0
VERTEX
  8
0
 10
1984
 20
10.399999999999999
 42
0
  0
VERTEX
  8
0
 10
1948
 20
10.399999999999999
 42
0
  0
VERTEX
  8
0
 10
1948
 20
110.40000000000001
 42
0
  0
VERTEX
  8
0
 10
1984
 20
110.40000000000001
 42
0
  0
SEQEND
  0
POLYLINE
  8
0
 10
0
 20
0
 39
0
 70
1
 66
1
  0
VERTEX
  8
0
 10
1966
 20
49.399999999999999
 42
1
  0
VERTEX
  8
0
 10
1966
 20
71.400000000000006
 42
1
  0
SEQEND
  0
POLYLINE
  8
0
 10
0
 20
0
 39
0
 70
1
 66
1
  0
VERTEX
  8
0
 10
1984
 20
120.59999999999999
 42
0
  0
VERTEX
  8
0
 10
1948
 20
120.59999999999999
 42
0
  0
VERTEX
  8
0
 10
1948
 20
220.59999999999999
 42
0
  0
VERTEX
  8
0
 10
1984
 20
220.59999999999999
 42
0
  0
SEQEND
  0
POLYLINE
  8
0
 10
0
 20
0
 39
0
 70
1
 66
1
  0
VERTEX
  8
0
 10
1966
 20
159.59999999999999
 42
1
  0
VERTEX
  8
0
 10
1966
 20
181.59999999999999
 42
1
  0
SEQEND
  0
POLYLINE
  8
0
 10
0
 20
0
 39
0
 70
1
 66
1
  0
VERTEX
  8
0
 10
1987.5999999999999
 20
230.80000000000001
 42
0
  0
VERTEX
  8
0
 10
1951.5999999999999
 20
230.80000000000001
 42
0
  0
VERTEX
  8
0
 10
1951.5999999999999
 20
330.80000000000001
 42
0
  0
VERTEX
  8
0
 10
1987.5999999999999
 20
330.80000000000001
 42
0
  0
SEQEND
  0
POLYLINE
  8
0
 10
0
 20
0
 39
0
 70
1
 66
1
  0
VERTEX
  8
0
 10
1969.5999999999999
 20
269.80000000000001
 42
1
  0
VERTEX
  8
0
 10
1969.5999999999999
 20
291.80000000000001
 42
1
  0
SEQEND
  0
POLYLINE
  8
0
 10
0
 20
0
 39
0
 70
1
 66
1
  0
VERTEX
  8
0
 10
1987.5999999999999
 20
341
 42
0
  0
VERTEX
  8
0
 10
1951.5999999999999
 20
341
 42
0
  0
VERTEX
  8
0
 10
1951.5999999999999
 20
441
 42
0
  0
VERTEX
  8
0
 10
1987.5999999999999
 20
441
 42
0
  0
SEQEND
  0
POLYLINE
  8
0
 10
0
 20
0
 39
0
 70
1
 66
1
  0
VERTEX
  8
0
 10
1969.5999999999999
 20
380
 42
1
  0
VERTEX
  8
0
 10
1969.5999999999999
 20
402
 42
1
  0
SEQEND
  0
POLYLINE
  8
0
 10
0
 20
0
 39
0
 70
1
 66
1
  0
VERTEX
  8
0
 10
1987.5999999999999
 20
451.19999999999999
 42
0
  0
VERTEX
  8
0
 10
1951.5999999999999
 20
451.19999999999999
 42
0
  0
VERTEX
  8
0
 10
1951.5999999999999
 20
551.20000000000005
 42
0
  0
VERTEX
  8
0
 10
1987.5999999999999
 20
551.20000000000005
 42
0
  0
SEQEND
  0
POLYLINE
  8
0
 10
0
 20
0
 39
0
 70
1
 66
1
  0
VERTEX
  8
0
 10
1969.5999999999999
 20
490.19999999999999
 42
1
  0
VERTEX
  8
0
 10
1969.5999999999999
 20
512.20000000000005
 42
1
  0
SEQEND
  0
POLYLINE
  8
0
 10
0
 20
0
 39
0
 70
1
 66
1
  0
VERTEX
  8
0
 10
1987.5999999999999
 20
561.39999999999998
 42
0
  0
VERTEX
  8
0
 10
1951.5999999999999
 20
561.39999999999998
 42
0
  0
VERTEX
  8
0
 10
1951.5999999999999
 20
661.39999999999998
 42
0
  0
VERTEX
  8
0
 10
1987.5999999999999
 20
661.39999999999998
 42
0
  0
SEQEND
  0
POLYLINE
  8
0
 10
0
 20
0
 39
0
 70
1
 66
1
  0
VERTEX
  8
0
 10
1969.5999999999999
 20
600.39999999999998
 42
1
  0
VERTEX
  8
0
 10
1969.5999999999999
 20
622.39999999999998
 42
1
  0
SEQEND
  0
POLYLINE
  8
0
 10
0
 20
0
 39
0
 70
1
 66
1
  0
VERTEX
  8
0
 10
1987.5999999999999
 20
671.60000000000002
 42
0
  0
VERTEX
  8
0
 10
1951.5999999999999
 20
671.60000000000002
 42
0
  0
VERTEX
  8
0
 10
1951.5999999999999
 20
771.60000000000002
 42
0
  0
VERTEX
  8
0
 10
1987.5999999999999
 20
771.60000000000002
 42
0
  0
SEQEND
  0
POLYLINE
  8
0
 10
0
 20
0
 39
0
 70
1
 66
1
  0
VERTEX
  8
0
 10
1969.5999999999999
 20
710.60000000000002
 42
1
  0
VERTEX
  8
0
 10
1969.5999999999999
 20
732.60000000000002
 42
1
  0
SEQEND
  0
ENDSEC
  0
EOF
