  0
SECTION
  2
ENTITIES
  0
POLYLINE
  8
0
 10
0
 20
0
 39
0
 70
1
 66
1
  0
VERTEX
  8
0
 10
0
 20
0
 42
0
  0
VERTEX
  8
0
 10
1800
 20
0
 42
0
  0
VERTEX
  8
0
 10
1800
 20
900
 42
0
  0
VERTEX
  8
0
 10
0
 20
900
 42
0
  0
SEQEND
  0
POLYLINE
  8
0
 10
0
 20
0
 39
0
 70
1
 66
1
  0
VERTEX
  8
0
 10
165.22000122070312
 20
10.220000267028809
 42
0
  0
VERTEX
  8
0
 10
165.22000122070312
 20
545.219970703125
 42
0
  0
VERTEX
  8
0
 10
10.220000267028809
 20
545.219970703125
 42
0
  0
VERTEX
  8
0
 10
10.220000267028809
 20
10.220000267028809
 42
0
  0
SEQEND
  0
POLYLINE
  8
0
 10
0
 20
0
 39
0
 70
1
 66
1
  0
VERTEX
  8
0
 10
115.72000122070312
 20
91.870216369628906
 42
-1
  0
VERTEX
  8
0
 10
59.720001220703125
 20
91.870216369628906
 42
-1
  0
SEQEND
  0
POLYLINE
  8
0
 10
0
 20
0
 39
0
 70
1
 66
1
  0
VERTEX
  8
0
 10
115.72000122070312
 20
492.82318115234375
 42
-0
  0
VERTEX
  8
0
 10
115.72000122070312
 20
161.90863037109375
 42
-0.24306800961494446
  0
VERTEX
  8
0
 10
59.720001220703125
 20
161.90863037109375
 42
0
  0
VERTEX
  8
0
 10
59.720001220703125
 20
492.82318115234375
 42
-0.24306800961494446
  0
SEQEND
  0
POLYLINE
  8
0
 10
0
 20
0
 39
0
 70
1
 66
1
  0
VERTEX
  8
0
 10
330.45999145507812
 20
10.220000267028809
 42
0
  0
VERTEX
  8
0
 10
330.45999145507812
 20
545.219970703125
 42
0
  0
VERTEX
  8
0
 10
175.46000671386719
 20
545.219970703125
 42
0
  0
VERTEX
  8
0
 10
175.46000671386719
 20
10.220000267028809
 42
0
  0
SEQEND
  0
POLYLINE
  8
0
 10
0
 20
0
 39
0
 70
1
 66
1
  0
VERTEX
  8
0
 10
280.95999145507812
 20
91.870216369628906
 42
-1
  0
VERTEX
  8
0
 10
224.96000671386719
 20
91.870216369628906
 42
-1
  0
SEQEND
  0
POLYLINE
  8
0
 10
0
 20
0
 39
0
 70
1
 66
1
  0
VERTEX
  8
0
 10
280.95999145507812
 20
492.82318115234375
 42
-0
  0
VERTEX
  8
0
 10
280.95999145507812
 20
161.90863037109375
 42
-0.24306800961494446
  0
VERTEX
  8
0
 10
224.96000671386719
 20
161.90863037109375
 42
0
  0
VERTEX
  8
0
 10
224.96000671386719
 20
492.82318115234375
 42
-0.24306800961494446
  0
SEQEND
  0
POLYLINE
  8
0
 10
0
 20
0
 39
0
 70
1
 66
1
  0
VERTEX
  8
0
 10
10.220000267028809
 20
715.260009765625
 42
0
  0
VERTEX
  8
0
 10
10.220000267028809
 20
555.260009765625
 42
0
  0
VERTEX
  8
0
 10
500.22000122070312
 20
555.260009765625
 42
0
  0
VERTEX
  8
0
 10
500.22000122070312
 20
715.260009765625
 42
0
  0
SEQEND
  0
POLYLINE
  8
0
 10
0
 20
0
 39
0
 70
1
 66
1
  0
VERTEX
  8
0
 10
490.22000122070312
 20
625.260009765625
 42
-1
  0
VERTEX
  8
0
 10
440.22000122070313
 20
625.260009765625
 42
0
  0
VERTEX
  8
0
 10
440.22000122070313
 20
645.260009765625
 42
-1
  0
VERTEX
  8
0
 10
490.22000122070312
 20
645.260009765625
 42
-0
  0
SEQEND
  0
POLYLINE
  8
0
 10
0
 20
0
 39
0
 70
1
 66
1
  0
VERTEX
  8
0
 10
10.220000267028809
 20
885.3599853515625
 42
0
  0
VERTEX
  8
0
 10
10.220000267028809
 20
725.3599853515625
 42
0
  0
VERTEX
  8
0
 10
500.22000122070312
 20
725.3599853515625
 42
0
  0
VERTEX
  8
0
 10
500.22000122070312
 20
885.3599853515625
 42
0
  0
SEQEND
  0
POLYLINE
  8
0
 10
0
 20
0
 39
0
 70
1
 66
1
  0
VERTEX
  8
0
 10
490.22000122070312
 20
795.3599853515625
 42
-1
  0
VERTEX
  8
0
 10
440.22000122070313
 20
795.3599853515625
 42
0
  0
VERTEX
  8
0
 10
440.22000122070313
 20
815.3599853515625
 42
-1
  0
VERTEX
  8
0
 10
490.22000122070312
 20
815.3599853515625
 42
-0
  0
SEQEND
  0
POLYLINE
  8
0
 10
0
 20
0
 39
0
 70
1
 66
1
  0
VERTEX
  8
0
 10
500.70001220703125
 20
500.22000122070312
 42
0
  0
VERTEX
  8
0
 10
340.70001220703125
 20
500.22000122070312
 42
0
  0
VERTEX
  8
0
 10
340.70001220703125
 20
10.220000267028809
 42
0
  0
VERTEX
  8
0
 10
500.70001220703125
 20
10.220000267028809
 42
0
  0
SEQEND
  0
POLYLINE
  8
0
 10
0
 20
0
 39
0
 70
1
 66
1
  0
VERTEX
  8
0
 10
410.70001220703125
 20
20.219999313354492
 42
-1
  0
VERTEX
  8
0
 10
410.70001220703125
 20
70.220001220703125
 42
0
  0
VERTEX
  8
0
 10
430.70001220703125
 20
70.220001220703125
 42
-1
  0
VERTEX
  8
0
 10
430.70001220703125
 20
20.219999313354492
 42
-0
  0
SEQEND
  0
POLYLINE
  8
0
 10
0
 20
0
 39
0
 70
1
 66
1
  0
VERTEX
  8
0
 10
670.97998046875
 20
500.22000122070312
 42
0
  0
VERTEX
  8
0
 10
510.98001098632813
 20
500.22000122070312
 42
0
  0
VERTEX
  8
0
 10
510.98001098632813
 20
10.220000267028809
 42
0
  0
VERTEX
  8
0
 10
670.97998046875
 20
10.220000267028809
 42
0
  0
SEQEND
  0
POLYLINE
  8
0
 10
0
 20
0
 39
0
 70
1
 66
1
  0
VERTEX
  8
0
 10
580.97998046875
 20
20.219999313354492
 42
-1
  0
VERTEX
  8
0
 10
580.97998046875
 20
70.220001220703125
 42
0
  0
VERTEX
  8
0
 10
600.97998046875
 20
70.220001220703125
 42
-1
  0
VERTEX
  8
0
 10
600.97998046875
 20
20.219999313354492
 42
-0
  0
SEQEND
  0
POLYLINE
  8
0
 10
0
 20
0
 39
0
 70
1
 66
1
  0
VERTEX
  8
0
 10
841.260009765625
 20
500.22000122070312
 42
0
  0
VERTEX
  8
0
 10
681.260009765625
 20
500.22000122070312
 42
0
  0
VERTEX
  8
0
 10
681.260009765625
 20
10.220000267028809
 42
0
  0
VERTEX
  8
0
 10
841.260009765625
 20
10.220000267028809
 42
0
  0
SEQEND
  0
POLYLINE
  8
0
 10
0
 20
0
 39
0
 70
1
 66
1
  0
VERTEX
  8
0
 10
751.260009765625
 20
20.219999313354492
 42
-1
  0
VERTEX
  8
0
 10
751.260009765625
 20
70.220001220703125
 42
0
  0
VERTEX
  8
0
 10
771.260009765625
 20
70.220001220703125
 42
-1
  0
VERTEX
  8
0
 10
771.260009765625
 20
20.219999313354492
 42
-0
  0
SEQEND
  0
POLYLINE
  8
0
 10
0
 20
0
 39
0
 70
1
 66
1
  0
VERTEX
  8
0
 10
510.44000244140625
 20
670.260009765625
 42
0
  0
VERTEX
  8
0
 10
510.44000244140625
 20
510.260009765625
 42
0
  0
VERTEX
  8
0
 10
1000.4400024414062
 20
510.260009765625
 42
0
  0
VERTEX
  8
0
 10
1000.4400024414062
 20
670.260009765625
 42
0
  0
SEQEND
  0
POLYLINE
  8
0
 10
0
 20
0
 39
0
 70
1
 66
1
  0
VERTEX
  8
0
 10
990.44000244140625
 20
580.260009765625
 42
-1
  0
VERTEX
  8
0
 10
940.44000244140625
 20
580.260009765625
 42
0
  0
VERTEX
  8
0
 10
940.44000244140625
 20
600.260009765625
 42
-1
  0
VERTEX
  8
0
 10
990.44000244140625
 20
600.260009765625
 42
-0
  0
SEQEND
  0
POLYLINE
  8
0
 10
0
 20
0
 39
0
 70
1
 66
1
  0
VERTEX
  8
0
 10
800.44000244140625
 20
680.3599853515625
 42
0
  0
VERTEX
  8
0
 10
800.44000244140625
 20
867.3599853515625
 42
0
  0
VERTEX
  8
0
 10
790.44000244140625
 20
877.3599853515625
 42
0
  0
VERTEX
  8
0
 10
520.44000244140625
 20
877.3599853515625
 42
0
  0
VERTEX
  8
0
 10
510.44000244140625
 20
867.3599853515625
 42
0
  0
VERTEX
  8
0
 10
510.44000244140625
 20
680.3599853515625
 42
0
  0
SEQEND
  0
POLYLINE
  8
0
 10
0
 20
0
 39
0
 70
1
 66
1
  0
VERTEX
  8
0
 10
670.94000244140625
 20
812.3599853515625
 42
-1
  0
VERTEX
  8
0
 10
639.94000244140625
 20
812.3599853515625
 42
-1
  0
SEQEND
  0
POLYLINE
  8
0
 10
0
 20
0
 39
0
 70
1
 66
1
  0
VERTEX
  8
0
 10
851.53997802734375
 20
10.220000267028809
 42
0
  0
VERTEX
  8
0
 10
1038.5400390625
 20
10.220000267028809
 42
0
  0
VERTEX
  8
0
 10
1048.5400390625
 20
20.219999313354492
 42
0
  0
VERTEX
  8
0
 10
1048.5400390625
 20
290.22000122070312
 42
0
  0
VERTEX
  8
0
 10
1038.5400390625
 20
300.22000122070312
 42
0
  0
VERTEX
  8
0
 10
851.53997802734375
 20
300.22000122070312
 42
0
  0
SEQEND
  0
POLYLINE
  8
0
 10
0
 20
0
 39
0
 70
1
 66
1
  0
VERTEX
  8
0
 10
983.53997802734375
 20
139.72000122070312
 42
-1
  0
VERTEX
  8
0
 10
983.53997802734375
 20
170.72000122070313
 42
-1
  0
SEQEND
  0
POLYLINE
  8
0
 10
0
 20
0
 39
0
 70
1
 66
1
  0
VERTEX
  8
0
 10
1100.6800537109375
 20
680.3599853515625
 42
0
  0
VERTEX
  8
0
 10
1100.6800537109375
 20
867.3599853515625
 42
0
  0
VERTEX
  8
0
 10
1090.6800537109375
 20
877.3599853515625
 42
0
  0
VERTEX
  8
0
 10
820.67999267578125
 20
877.3599853515625
 42
0
  0
VERTEX
  8
0
 10
810.67999267578125
 20
867.3599853515625
 42
0
  0
VERTEX
  8
0
 10
810.67999267578125
 20
680.3599853515625
 42
0
  0
SEQEND
  0
POLYLINE
  8
0
 10
0
 20
0
 39
0
 70
1
 66
1
  0
VERTEX
  8
0
 10
971.17999267578125
 20
812.3599853515625
 42
-1
  0
VERTEX
  8
0
 10
940.17999267578125
 20
812.3599853515625
 42
-1
  0
SEQEND
  0
POLYLINE
  8
0
 10
0
 20
0
 39
0
 70
1
 66
1
  0
VERTEX
  8
0
 10
1010.6599731445312
 20
310.27999877929687
 42
0
  0
VERTEX
  8
0
 10
1197.6600341796875
 20
310.27999877929687
 42
0
  0
VERTEX
  8
0
 10
1207.6600341796875
 20
320.27999877929687
 42
0
  0
VERTEX
  8
0
 10
1207.6600341796875
 20
590.280029296875
 42
0
  0
VERTEX
  8
0
 10
1197.6600341796875
 20
600.280029296875
 42
0
  0
VERTEX
  8
0
 10
1010.6599731445312
 20
600.280029296875
 42
0
  0
SEQEND
  0
POLYLINE
  8
0
 10
0
 20
0
 39
0
 70
1
 66
1
  0
VERTEX
  8
0
 10
1142.6600341796875
 20
439.77999877929687
 42
-1
  0
VERTEX
  8
0
 10
1142.6600341796875
 20
470.77999877929687
 42
-1
  0
SEQEND
  0
POLYLINE
  8
0
 10
0
 20
0
 39
0
 70
1
 66
1
  0
VERTEX
  8
0
 10
1058.9000244140625
 20
10.220000267028809
 42
0
  0
VERTEX
  8
0
 10
1245.9000244140625
 20
10.220000267028809
 42
0
  0
VERTEX
  8
0
 10
1255.9000244140625
 20
20.219999313354492
 42
0
  0
VERTEX
  8
0
 10
1255.9000244140625
 20
290.22000122070312
 42
0
  0
VERTEX
  8
0
 10
1245.9000244140625
 20
300.22000122070312
 42
0
  0
VERTEX
  8
0
 10
1058.9000244140625
 20
300.22000122070312
 42
0
  0
SEQEND
  0
POLYLINE
  8
0
 10
0
 20
0
 39
0
 70
1
 66
1
  0
VERTEX
  8
0
 10
1190.9000244140625
 20
139.72000122070312
 42
-1
  0
VERTEX
  8
0
 10
1190.9000244140625
 20
170.72000122070313
 42
-1
  0
SEQEND
  0
POLYLINE
  8
0
 10
0
 20
0
 39
0
 70
1
 66
1
  0
VERTEX
  8
0
 10
1400.0799560546875
 20
889.719970703125
 42
0
  0
VERTEX
  8
0
 10
1213.0799560546875
 20
889.719970703125
 42
0
  0
VERTEX
  8
0
 10
1203.0799560546875
 20
879.719970703125
 42
0
  0
VERTEX
  8
0
 10
1203.0799560546875
 20
609.719970703125
 42
0
  0
VERTEX
  8
0
 10
1213.0799560546875
 20
599.719970703125
 42
0
  0
VERTEX
  8
0
 10
1400.0799560546875
 20
599.719970703125
 42
0
  0
SEQEND
  0
POLYLINE
  8
0
 10
0
 20
0
 39
0
 70
1
 66
1
  0
VERTEX
  8
0
 10
1268.0799560546875
 20
760.219970703125
 42
-1
  0
VERTEX
  8
0
 10
1268.0799560546875
 20
729.219970703125
 42
-1
  0
SEQEND
  0
POLYLINE
  8
0
 10
0
 20
0
 39
0
 70
1
 66
1
  0
VERTEX
  8
0
 10
1406.0799560546875
 20
528.39501953125
 42
-0
  0
VERTEX
  8
0
 10
1401.0799560546875
 20
533.39501953125
 42
0
  0
VERTEX
  8
0
 10
1346.0799560546875
 20
533.39501953125
 42
0
  0
VERTEX
  8
0
 10
1266.0799560546875
 20
443.39498901367187
 42
0
  0
VERTEX
  8
0
 10
1266.0799560546875
 20
331.39498901367187
 42
-0
  0
VERTEX
  8
0
 10
1321.0799560546875
 20
276.39498901367187
 42
0
  0
VERTEX
  8
0
 10
1356.0799560546875
 20
276.39498901367187
 42
-0
  0
VERTEX
  8
0
 10
1356.0799560546875
 20
285.39498901367187
 42
-0
  0
VERTEX
  8
0
 10
1352.022216796875
 20
289.4527587890625
 42
-0.8055649995803833
  0
VERTEX
  8
0
 10
1373.8277587890625
 20
456.08868408203125
 42
0
  0
VERTEX
  8
0
 10
1401.0799560546875
 20
458.39498901367187
 42
0
  0
VERTEX
  8
0
 10
1406.0799560546875
 20
463.39498901367187
 42
0
  0
SEQEND
  0
POLYLINE
  8
0
 10
0
 20
0
 39
0
 70
1
 66
1
  0
VERTEX
  8
0
 10
1394.0799560546875
 20
462.39498901367187
 42
-1
  0
VERTEX
  8
0
 10
1394.0799560546875
 20
474.39498901367187
 42
-1
  0
SEQEND
  0
POLYLINE
  8
0
 10
0
 20
0
 39
0
 70
1
 66
1
  0
VERTEX
  8
0
 10
1266.0799560546875
 20
157.24000549316406
 42
-0
  0
VERTEX
  8
0
 10
1271.0799560546875
 20
152.24000549316406
 42
0
  0
VERTEX
  8
0
 10
1326.0799560546875
 20
152.24000549316406
 42
0
  0
VERTEX
  8
0
 10
1406.0799560546875
 20
242.24000549316406
 42
0
  0
VERTEX
  8
0
 10
1406.0799560546875
 20
354.239990234375
 42
-0
  0
VERTEX
  8
0
 10
1351.0799560546875
 20
409.239990234375
 42
0
  0
VERTEX
  8
0
 10
1316.0799560546875
 20
409.239990234375
 42
-0
  0
VERTEX
  8
0
 10
1316.0799560546875
 20
400.239990234375
 42
-0
  0
VERTEX
  8
0
 10
1320.1376953125
 20
396.1822509765625
 42
-0.8055649995803833
  0
VERTEX
  8
0
 10
1298.3321533203125
 20
229.54632568359375
 42
0
  0
VERTEX
  8
0
 10
1271.0799560546875
 20
227.24000549316406
 42
0
  0
VERTEX
  8
0
 10
1266.0799560546875
 20
222.24000549316406
 42
0
  0
SEQEND
  0
POLYLINE
  8
0
 10
0
 20
0
 39
0
 70
1
 66
1
  0
VERTEX
  8
0
 10
1278.0799560546875
 20
223.24000549316406
 42
-1
  0
VERTEX
  8
0
 10
1278.0799560546875
 20
211.24000549316406
 42
-1
  0
SEQEND
  0
POLYLINE
  8
0
 10
0
 20
0
 39
0
 70
1
 66
1
  0
VERTEX
  8
0
 10
1550.43994140625
 20
735.93499755859375
 42
-0
  0
VERTEX
  8
0
 10
1545.43994140625
 20
740.93499755859375
 42
0
  0
VERTEX
  8
0
 10
1490.43994140625
 20
740.93499755859375
 42
0
  0
VERTEX
  8
0
 10
1410.43994140625
 20
650.93499755859375
 42
0
  0
VERTEX
  8
0
 10
1410.43994140625
 20
538.93499755859375
 42
-0
  0
VERTEX
  8
0
 10
1465.43994140625
 20
483.93499755859375
 42
0
  0
VERTEX
  8
0
 10
1500.43994140625
 20
483.93499755859375
 42
-0
  0
VERTEX
  8
0
 10
1500.43994140625
 20
492.93499755859375
 42
-0
  0
VERTEX
  8
0
 10
1496.3822021484375
 20
496.99276733398438
 42
-0.8055649995803833
  0
VERTEX
  8
0
 10
1518.1878662109375
 20
663.628662109375
 42
0
  0
VERTEX
  8
0
 10
1545.43994140625
 20
665.93499755859375
 42
0
  0
VERTEX
  8
0
 10
1550.43994140625
 20
670.93499755859375
 42
0
  0
SEQEND
  0
POLYLINE
  8
0
 10
0
 20
0
 39
0
 70
1
 66
1
  0
VERTEX
  8
0
 10
1538.43994140625
 20
669.93499755859375
 42
-1
  0
VERTEX
  8
0
 10
1538.43994140625
 20
681.93499755859375
 42
-1
  0
SEQEND
  0
POLYLINE
  8
0
 10
0
 20
0
 39
0
 70
1
 66
1
  0
VERTEX
  8
0
 10
1410.43994140625
 20
364.77999877929687
 42
-0
  0
VERTEX
  8
0
 10
1415.43994140625
 20
359.77999877929687
 42
0
  0
VERTEX
  8
0
 10
1470.43994140625
 20
359.77999877929687
 42
0
  0
VERTEX
  8
0
 10
1550.43994140625
 20
449.77999877929687
 42
0
  0
VERTEX
  8
0
 10
1550.43994140625
 20
561.780029296875
 42
-0
  0
VERTEX
  8
0
 10
1495.43994140625
 20
616.780029296875
 42
0
  0
VERTEX
  8
0
 10
1460.43994140625
 20
616.780029296875
 42
-0
  0
VERTEX
  8
0
 10
1460.43994140625
 20
607.780029296875
 42
-0
  0
VERTEX
  8
0
 10
1464.497802734375
 20
603.72222900390625
 42
-0.8055649995803833
  0
VERTEX
  8
0
 10
1442.692138671875
 20
437.08633422851562
 42
0
  0
VERTEX
  8
0
 10
1415.43994140625
 20
434.77999877929687
 42
0
  0
VERTEX
  8
0
 10
1410.43994140625
 20
429.77999877929687
 42
0
  0
SEQEND
  0
POLYLINE
  8
0
 10
0
 20
0
 39
0
 70
1
 66
1
  0
VERTEX
  8
0
 10
1422.43994140625
 20
430.77999877929687
 42
-1
  0
VERTEX
  8
0
 10
1422.43994140625
 20
418.77999877929687
 42
-1
  0
SEQEND
  0
POLYLINE
  8
0
 10
0
 20
0
 39
0
 70
1
 66
1
  0
VERTEX
  8
0
 10
1572.5799560546875
 20
386.375
 42
-0
  0
VERTEX
  8
0
 10
1567.5799560546875
 20
391.375
 42
0
  0
VERTEX
  8
0
 10
1512.5799560546875
 20
391.375
 42
0
  0
VERTEX
  8
0
 10
1432.5799560546875
 20
301.375
 42
0
  0
VERTEX
  8
0
 10
1432.5799560546875
 20
189.375
 42
-0
  0
VERTEX
  8
0
 10
1487.5799560546875
 20
134.375
 42
0
  0
VERTEX
  8
0
 10
1522.5799560546875
 20
134.375
 42
-0
  0
VERTEX
  8
0
 10
1522.5799560546875
 20
143.375
 42
-0
  0
VERTEX
  8
0
 10
1518.522216796875
 20
147.43275451660156
 42
-0.8055649995803833
  0
VERTEX
  8
0
 10
1540.3277587890625
 20
314.06866455078125
 42
0
  0
VERTEX
  8
0
 10
1567.5799560546875
 20
316.375
 42
0
  0
VERTEX
  8
0
 10
1572.5799560546875
 20
321.375
 42
0
  0
SEQEND
  0
POLYLINE
  8
0
 10
0
 20
0
 39
0
 70
1
 66
1
  0
VERTEX
  8
0
 10
1560.5799560546875
 20
320.375
 42
-1
  0
VERTEX
  8
0
 10
1560.5799560546875
 20
332.375
 42
-1
  0
SEQEND
  0
POLYLINE
  8
0
 10
0
 20
0
 39
0
 70
1
 66
1
  0
VERTEX
  8
0
 10
1432.5799560546875
 20
15.220000267028809
 42
-0
  0
VERTEX
  8
0
 10
1437.5799560546875
 20
10.220000267028809
 42
0
  0
VERTEX
  8
0
 10
1492.5799560546875
 20
10.220000267028809
 42
0
  0
VERTEX
  8
0
 10
1572.5799560546875
 20
100.22000122070312
 42
0
  0
VERTEX
  8
0
 10
1572.5799560546875
 20
212.22000122070312
 42
-0
  0
VERTEX
  8
0
 10
1517.5799560546875
 20
267.22000122070313
 42
0
  0
VERTEX
  8
0
 10
1482.5799560546875
 20
267.22000122070313
 42
-0
  0
VERTEX
  8
0
 10
1482.5799560546875
 20
258.22000122070313
 42
-0
  0
VERTEX
  8
0
 10
1486.6376953125
 20
254.16224670410156
 42
-0.8055649995803833
  0
VERTEX
  8
0
 10
1464.8321533203125
 20
87.526321411132813
 42
0
  0
VERTEX
  8
0
 10
1437.5799560546875
 20
85.220001220703125
 42
0
  0
VERTEX
  8
0
 10
1432.5799560546875
 20
80.220001220703125
 42
0
  0
SEQEND
  0
POLYLINE
  8
0
 10
0
 20
0
 39
0
 70
1
 66
1
  0
VERTEX
  8
0
 10
1444.5799560546875
 20
81.220001220703125
 42
-1
  0
VERTEX
  8
0
 10
1444.5799560546875
 20
69.220001220703125
 42
-1
  0
SEQEND
  0
POLYLINE
  8
0
 10
0
 20
0
 39
0
 70
1
 66
1
  0
VERTEX
  8
0
 10
1700.739990234375
 20
777.69500732421875
 42
-0
  0
VERTEX
  8
0
 10
1695.739990234375
 20
782.69500732421875
 42
0
  0
VERTEX
  8
0
 10
1640.739990234375
 20
782.69500732421875
 42
0
  0
VERTEX
  8
0
 10
1560.739990234375
 20
692.69500732421875
 42
0
  0
VERTEX
  8
0
 10
1560.739990234375
 20
580.69500732421875
 42
-0
  0
VERTEX
  8
0
 10
1615.739990234375
 20
525.69500732421875
 42
0
  0
VERTEX
  8
0
 10
1650.739990234375
 20
525.69500732421875
 42
-0
  0
VERTEX
  8
0
 10
1650.739990234375
 20
534.69500732421875
 42
-0
  0
VERTEX
  8
0
 10
1646.6822509765625
 20
538.75274658203125
 42
-0.8055649995803833
  0
VERTEX
  8
0
 10
1668.48779296875
 20
705.388671875
 42
0
  0
VERTEX
  8
0
 10
1695.739990234375
 20
707.69500732421875
 42
0
  0
VERTEX
  8
0
 10
1700.739990234375
 20
712.69500732421875
 42
0
  0
SEQEND
  0
POLYLINE
  8
0
 10
0
 20
0
 39
0
 70
1
 66
1
  0
VERTEX
  8
0
 10
1688.739990234375
 20
711.69500732421875
 42
-1
  0
VERTEX
  8
0
 10
1688.739990234375
 20
723.69500732421875
 42
-1
  0
SEQEND
  0
POLYLINE
  8
0
 10
0
 20
0
 39
0
 70
1
 66
1
  0
VERTEX
  8
0
 10
1560.739990234375
 20
406.54000854492187
 42
-0
  0
VERTEX
  8
0
 10
1565.739990234375
 20
401.54000854492187
 42
0
  0
VERTEX
  8
0
 10
1620.739990234375
 20
401.54000854492187
 42
0
  0
VERTEX
  8
0
 10
1700.739990234375
 20
491.54000854492187
 42
0
  0
VERTEX
  8
0
 10
1700.739990234375
 20
603.53997802734375
 42
-0
  0
VERTEX
  8
0
 10
1645.739990234375
 20
658.53997802734375
 42
0
  0
VERTEX
  8
0
 10
1610.739990234375
 20
658.53997802734375
 42
-0
  0
VERTEX
  8
0
 10
1610.739990234375
 20
649.53997802734375
 42
-0
  0
VERTEX
  8
0
 10
1614.7977294921875
 20
645.48223876953125
 42
-0.8055649995803833
  0
VERTEX
  8
0
 10
1592.9921875
 20
478.8463134765625
 42
0
  0
VERTEX
  8
0
 10
1565.739990234375
 20
476.54000854492187
 42
0
  0
VERTEX
  8
0
 10
1560.739990234375
 20
471.54000854492187
 42
0
  0
SEQEND
  0
POLYLINE
  8
0
 10
0
 20
0
 39
0
 70
1
 66
1
  0
VERTEX
  8
0
 10
1572.739990234375
 20
472.54000854492187
 42
-1
  0
VERTEX
  8
0
 10
1572.739990234375
 20
460.54000854492187
 42
-1
  0
SEQEND
  0
POLYLINE
  8
0
 10
0
 20
0
 39
0
 70
1
 66
1
  0
VERTEX
  8
0
 10
1722.8800048828125
 20
386.375
 42
-0
  0
VERTEX
  8
0
 10
1717.8800048828125
 20
391.375
 42
0
  0
VERTEX
  8
0
 10
1662.8800048828125
 20
391.375
 42
0
  0
VERTEX
  8
0
 10
1582.8800048828125
 20
301.375
 42
0
  0
VERTEX
  8
0
 10
1582.8800048828125
 20
189.375
 42
-0
  0
VERTEX
  8
0
 10
1637.8800048828125
 20
134.375
 42
0
  0
VERTEX
  8
0
 10
1672.8800048828125
 20
134.375
 42
-0
  0
VERTEX
  8
0
 10
1672.8800048828125
 20
143.375
 42
-0
  0
VERTEX
  8
0
 10
1668.822265625
 20
147.43275451660156
 42
-0.8055649995803833
  0
VERTEX
  8
0
 10
1690.6278076171875
 20
314.06866455078125
 42
0
  0
VERTEX
  8
0
 10
1717.8800048828125
 20
316.375
 42
0
  0
VERTEX
  8
0
 10
1722.8800048828125
 20
321.375
 42
0
  0
SEQEND
  0
POLYLINE
  8
0
 10
0
 20
0
 39
0
 70
1
 66
1
  0
VERTEX
  8
0
 10
1710.8800048828125
 20
320.375
 42
-1
  0
VERTEX
  8
0
 10
1710.8800048828125
 20
332.375
 42
-1
  0
SEQEND
  0
POLYLINE
  8
0
 10
0
 20
0
 39
0
 70
1
 66
1
  0
VERTEX
  8
0
 10
1582.8800048828125
 20
15.220000267028809
 42
-0
  0
VERTEX
  8
0
 10
1587.8800048828125
 20
10.220000267028809
 42
0
  0
VERTEX
  8
0
 10
1642.8800048828125
 20
10.220000267028809
 42
0
  0
VERTEX
  8
0
 10
1722.8800048828125
 20
100.22000122070312
 42
0
  0
VERTEX
  8
0
 10
1722.8800048828125
 20
212.22000122070312
 42
-0
  0
VERTEX
  8
0
 10
1667.8800048828125
 20
267.22000122070313
 42
0
  0
VERTEX
  8
0
 10
1632.8800048828125
 20
267.22000122070313
 42
-0
  0
VERTEX
  8
0
 10
1632.8800048828125
 20
258.22000122070313
 42
-0
  0
VERTEX
  8
0
 10
1636.937744140625
 20
254.16224670410156
 42
-0.8055649995803833
  0
VERTEX
  8
0
 10
1615.1322021484375
 20
87.526321411132813
 42
0
  0
VERTEX
  8
0
 10
1587.8800048828125
 20
85.220001220703125
 42
0
  0
VERTEX
  8
0
 10
1582.8800048828125
 20
80.220001220703125
 42
0
  0
SEQEND
  0
POLYLINE
  8
0
 10
0
 20
0
 39
0
 70
1
 66
1
  0
VERTEX
  8
0
 10
1594.8800048828125
 20
81.220001220703125
 42
-1
  0
VERTEX
  8
0
 10
1594.8800048828125
 20
69.220001220703125
 42
-1
  0
SEQEND
  0
POLYLINE
  8
0
 10
0
 20
0
 39
0
 70
1
 66
1
  0
VERTEX
  8
0
 10
1110.9200439453125
 20
610.34002685546875
 42
0
  0
VERTEX
  8
0
 10
1120.9200439453125
 20
610.34002685546875
 42
-0
  0
VERTEX
  8
0
 10
1126.0294189453125
 20
616.98455810546875
 42
-0.23288553953170776
  0
VERTEX
  8
0
 10
1137.9200439453125
 20
622.84002685546875
 42
-0
  0
VERTEX
  8
0
 10
1145.8907470703125
 20
622.84002685546875
 42
0.72784233093261719
  0
VERTEX
  8
0
 10
1162.0313720703125
 20
672.62518310546875
 42
-0
  0
VERTEX
  8
0
 10
1139.2022705078125
 20
689.13104248046875
 42
-0.16402788460254669
  0
VERTEX
  8
0
 10
1131.7813720703125
 20
699.53338623046875
 42
-0
  0
VERTEX
  8
0
 10
1120.9200439453125
 20
735.34002685546875
 42
0
  0
VERTEX
  8
0
 10
1110.9200439453125
 20
735.34002685546875
 42
0
  0
SEQEND
  0
POLYLINE
  8
0
 10
0
 20
0
 39
0
 70
1
 66
1
  0
VERTEX
  8
0
 10
1145.9200439453125
 20
635.34002685546875
 42
-1
  0
VERTEX
  8
0
 10
1145.9200439453125
 20
665.34002685546875
 42
-1
  0
SEQEND
  0
POLYLINE
  8
0
 10
0
 20
0
 39
0
 70
1
 66
1
  0
VERTEX
  8
0
 10
1173.4193115234375
 20
809.1309814453125
 42
0
  0
VERTEX
  8
0
 10
1163.4193115234375
 20
809.1309814453125
 42
-0
  0
VERTEX
  8
0
 10
1158.3099365234375
 20
802.4864501953125
 42
-0.23288553953170776
  0
VERTEX
  8
0
 10
1146.4193115234375
 20
796.6309814453125
 42
-0
  0
VERTEX
  8
0
 10
1138.4486083984375
 20
796.6309814453125
 42
0.72784233093261719
  0
VERTEX
  8
0
 10
1122.3079833984375
 20
746.8458251953125
 42
-0
  0
VERTEX
  8
0
 10
1145.1370849609375
 20
730.3399658203125
 42
-0.16402788460254669
  0
VERTEX
  8
0
 10
1152.5579833984375
 20
719.9376220703125
 42
-0
  0
VERTEX
  8
0
 10
1163.4193115234375
 20
684.1309814453125
 42
0
  0
VERTEX
  8
0
 10
1173.4193115234375
 20
684.1309814453125
 42
0
  0
SEQEND
  0
POLYLINE
  8
0
 10
0
 20
0
 39
0
 70
1
 66
1
  0
VERTEX
  8
0
 10
1138.4193115234375
 20
784.1309814453125
 42
-1
  0
VERTEX
  8
0
 10
1138.4193115234375
 20
754.1309814453125
 42
-1
  0
SEQEND
  0
POLYLINE
  8
0
 10
0
 20
0
 39
0
 70
1
 66
1
  0
VERTEX
  8
0
 10
1609.23095703125
 20
762.79998779296875
 42
0
  0
VERTEX
  8
0
 10
1609.23095703125
 20
772.79998779296875
 42
-0
  0
VERTEX
  8
0
 10
1602.58642578125
 20
777.90936279296875
 42
-0.23288553953170776
  0
VERTEX
  8
0
 10
1596.73095703125
 20
789.79998779296875
 42
-0
  0
VERTEX
  8
0
 10
1596.73095703125
 20
797.77069091796875
 42
0.72784233093261719
  0
VERTEX
  8
0
 10
1546.94580078125
 20
813.91131591796875
 42
-0
  0
VERTEX
  8
0
 10
1530.43994140625
 20
791.08221435546875
 42
-0.16402788460254669
  0
VERTEX
  8
0
 10
1520.03759765625
 20
783.66131591796875
 42
-0
  0
VERTEX
  8
0
 10
1484.23095703125
 20
772.79998779296875
 42
0
  0
VERTEX
  8
0
 10
1484.23095703125
 20
762.79998779296875
 42
0
  0
SEQEND
  0
POLYLINE
  8
0
 10
0
 20
0
 39
0
 70
1
 66
1
  0
VERTEX
  8
0
 10
1584.23095703125
 20
797.79998779296875
 42
-1
  0
VERTEX
  8
0
 10
1554.23095703125
 20
797.79998779296875
 42
-1
  0
SEQEND
  0
POLYLINE
  8
0
 10
0
 20
0
 39
0
 70
1
 66
1
  0
VERTEX
  8
0
 10
1410.43994140625
 20
825.29931640625
 42
0
  0
VERTEX
  8
0
 10
1410.43994140625
 20
815.29931640625
 42
-0
  0
VERTEX
  8
0
 10
1417.08447265625
 20
810.18994140625
 42
-0.23288553953170776
  0
VERTEX
  8
0
 10
1422.93994140625
 20
798.29931640625
 42
-0
  0
VERTEX
  8
0
 10
1422.93994140625
 20
790.32861328125
 42
0.72784233093261719
  0
VERTEX
  8
0
 10
1472.72509765625
 20
774.18798828125
 42
-0
  0
VERTEX
  8
0
 10
1489.23095703125
 20
797.01708984375
 42
-0.16402788460254669
  0
VERTEX
  8
0
 10
1499.63330078125
 20
804.43798828125
 42
-0
  0
VERTEX
  8
0
 10
1535.43994140625
 20
815.29931640625
 42
0
  0
VERTEX
  8
0
 10
1535.43994140625
 20
825.29931640625
 42
0
  0
SEQEND
  0
POLYLINE
  8
0
 10
0
 20
0
 39
0
 70
1
 66
1
  0
VERTEX
  8
0
 10
1435.43994140625
 20
790.29931640625
 42
-1
  0
VERTEX
  8
0
 10
1465.43994140625
 20
790.29931640625
 42
-1
  0
SEQEND
  0
POLYLINE
  8
0
 10
0
 20
0
 39
0
 70
1
 66
1
  0
VERTEX
  8
0
 10
1760.4310302734375
 20
827.239990234375
 42
0
  0
VERTEX
  8
0
 10
1760.4310302734375
 20
837.239990234375
 42
-0
  0
VERTEX
  8
0
 10
1753.7864990234375
 20
842.349365234375
 42
-0.23288553953170776
  0
VERTEX
  8
0
 10
1747.9310302734375
 20
854.239990234375
 42
-0
  0
VERTEX
  8
0
 10
1747.9310302734375
 20
862.210693359375
 42
0.72784233093261719
  0
VERTEX
  8
0
 10
1698.1458740234375
 20
878.351318359375
 42
-0
  0
VERTEX
  8
0
 10
1681.6400146484375
 20
855.522216796875
 42
-0.16402788460254669
  0
VERTEX
  8
0
 10
1671.2376708984375
 20
848.101318359375
 42
-0
  0
VERTEX
  8
0
 10
1635.4310302734375
 20
837.239990234375
 42
0
  0
VERTEX
  8
0
 10
1635.4310302734375
 20
827.239990234375
 42
0
  0
SEQEND
  0
POLYLINE
  8
0
 10
0
 20
0
 39
0
 70
1
 66
1
  0
VERTEX
  8
0
 10
1735.4310302734375
 20
862.239990234375
 42
-1
  0
VERTEX
  8
0
 10
1705.4310302734375
 20
862.239990234375
 42
-1
  0
SEQEND
  0
POLYLINE
  8
0
 10
0
 20
0
 39
0
 70
1
 66
1
  0
VERTEX
  8
0
 10
1561.6400146484375
 20
889.73931884765625
 42
0
  0
VERTEX
  8
0
 10
1561.6400146484375
 20
879.73931884765625
 42
-0
  0
VERTEX
  8
0
 10
1568.2845458984375
 20
874.62994384765625
 42
-0.23288553953170776
  0
VERTEX
  8
0
 10
1574.1400146484375
 20
862.73931884765625
 42
-0
  0
VERTEX
  8
0
 10
1574.1400146484375
 20
854.76861572265625
 42
0.72784233093261719
  0
VERTEX
  8
0
 10
1623.9251708984375
 20
838.62799072265625
 42
-0
  0
VERTEX
  8
0
 10
1640.4310302734375
 20
861.45709228515625
 42
-0.16402788460254669
  0
VERTEX
  8
0
 10
1650.8333740234375
 20
868.87799072265625
 42
-0
  0
VERTEX
  8
0
 10
1686.6400146484375
 20
879.73931884765625
 42
0
  0
VERTEX
  8
0
 10
1686.6400146484375
 20
889.73931884765625
 42
0
  0
SEQEND
  0
POLYLINE
  8
0
 10
0
 20
0
 39
0
 70
1
 66
1
  0
VERTEX
  8
0
 10
1586.6400146484375
 20
854.73931884765625
 42
-1
  0
VERTEX
  8
0
 10
1616.6400146484375
 20
854.73931884765625
 42
-1
  0
SEQEND
  0
POLYLINE
  8
0
 10
0
 20
0
 39
0
 70
1
 66
1
  0
VERTEX
  8
0
 10
1711.0400390625
 20
401.54000854492187
 42
0
  0
VERTEX
  8
0
 10
1721.0400390625
 20
401.54000854492187
 42
-0
  0
VERTEX
  8
0
 10
1726.1494140625
 20
408.18453979492187
 42
-0.23288553953170776
  0
VERTEX
  8
0
 10
1738.0400390625
 20
414.04000854492187
 42
-0
  0
VERTEX
  8
0
 10
1746.0107421875
 20
414.04000854492187
 42
0.72784233093261719
  0
VERTEX
  8
0
 10
1762.1513671875
 20
463.82516479492187
 42
-0
  0
VERTEX
  8
0
 10
1739.322265625
 20
480.33102416992187
 42
-0.16402788460254669
  0
VERTEX
  8
0
 10
1731.9013671875
 20
490.73336791992187
 42
-0
  0
VERTEX
  8
0
 10
1721.0400390625
 20
526.53997802734375
 42
0
  0
VERTEX
  8
0
 10
1711.0400390625
 20
526.53997802734375
 42
0
  0
SEQEND
  0
POLYLINE
  8
0
 10
0
 20
0
 39
0
 70
1
 66
1
  0
VERTEX
  8
0
 10
1746.0400390625
 20
426.54000854492187
 42
-1
  0
VERTEX
  8
0
 10
1746.0400390625
 20
456.54000854492188
 42
-1
  0
SEQEND
  0
POLYLINE
  8
0
 10
0
 20
0
 39
0
 70
1
 66
1
  0
VERTEX
  8
0
 10
1773.539306640625
 20
600.33099365234375
 42
0
  0
VERTEX
  8
0
 10
1763.539306640625
 20
600.33099365234375
 42
-0
  0
VERTEX
  8
0
 10
1758.429931640625
 20
593.68646240234375
 42
-0.23288553953170776
  0
VERTEX
  8
0
 10
1746.539306640625
 20
587.83099365234375
 42
-0
  0
VERTEX
  8
0
 10
1738.568603515625
 20
587.83099365234375
 42
0.72784233093261719
  0
VERTEX
  8
0
 10
1722.427978515625
 20
538.04583740234375
 42
-0
  0
VERTEX
  8
0
 10
1745.257080078125
 20
521.53997802734375
 42
-0.16402788460254669
  0
VERTEX
  8
0
 10
1752.677978515625
 20
511.13763427734375
 42
-0
  0
VERTEX
  8
0
 10
1763.539306640625
 20
475.33099365234375
 42
0
  0
VERTEX
  8
0
 10
1773.539306640625
 20
475.33099365234375
 42
0
  0
SEQEND
  0
POLYLINE
  8
0
 10
0
 20
0
 39
0
 70
1
 66
1
  0
VERTEX
  8
0
 10
1738.539306640625
 20
575.33099365234375
 42
-1
  0
VERTEX
  8
0
 10
1738.539306640625
 20
545.33099365234375
 42
-1
  0
SEQEND
  0
POLYLINE
  8
0
 10
0
 20
0
 39
0
 70
1
 66
1
  0
VERTEX
  8
0
 10
851.53997802734375
 20
310.27999877929687
 42
0
  0
VERTEX
  8
0
 10
921.53997802734375
 20
310.27999877929687
 42
0
  0
VERTEX
  8
0
 10
921.53997802734375
 20
390.27999877929687
 42
0
  0
VERTEX
  8
0
 10
851.53997802734375
 20
390.27999877929687
 42
0
  0
SEQEND
  0
POLYLINE
  8
0
 10
0
 20
0
 39
0
 70
1
 66
1
  0
VERTEX
  8
0
 10
904.03997802734375
 20
330.27999877929687
 42
0
  0
VERTEX
  8
0
 10
869.03997802734375
 20
330.27999877929687
 42
0
  0
VERTEX
  8
0
 10
869.03997802734375
 20
370.27999877929687
 42
0
  0
VERTEX
  8
0
 10
904.03997802734375
 20
370.27999877929687
 42
0
  0
SEQEND
  0
POLYLINE
  8
0
 10
0
 20
0
 39
0
 70
1
 66
1
  0
VERTEX
  8
0
 10
851.53997802734375
 20
400.45999145507812
 42
0
  0
VERTEX
  8
0
 10
921.53997802734375
 20
400.45999145507812
 42
0
  0
VERTEX
  8
0
 10
921.53997802734375
 20
480.45999145507812
 42
0
  0
VERTEX
  8
0
 10
851.53997802734375
 20
480.45999145507812
 42
0
  0
SEQEND
  0
POLYLINE
  8
0
 10
0
 20
0
 39
0
 70
1
 66
1
  0
VERTEX
  8
0
 10
904.03997802734375
 20
420.45999145507812
 42
0
  0
VERTEX
  8
0
 10
869.03997802734375
 20
420.45999145507812
 42
0
  0
VERTEX
  8
0
 10
869.03997802734375
 20
460.45999145507812
 42
0
  0
VERTEX
  8
0
 10
904.03997802734375
 20
460.45999145507812
 42
0
  0
SEQEND
  0
POLYLINE
  8
0
 10
0
 20
0
 39
0
 70
1
 66
1
  0
VERTEX
  8
0
 10
1190.9200439453125
 20
819.1400146484375
 42
0
  0
VERTEX
  8
0
 10
1190.9200439453125
 20
889.1400146484375
 42
0
  0
VERTEX
  8
0
 10
1110.9200439453125
 20
889.1400146484375
 42
0
  0
VERTEX
  8
0
 10
1110.9200439453125
 20
819.1400146484375
 42
0
  0
SEQEND
  0
POLYLINE
  8
0
 10
0
 20
0
 39
0
 70
1
 66
1
  0
VERTEX
  8
0
 10
1170.9200439453125
 20
871.6400146484375
 42
0
  0
VERTEX
  8
0
 10
1170.9200439453125
 20
836.6400146484375
 42
0
  0
VERTEX
  8
0
 10
1130.9200439453125
 20
836.6400146484375
 42
0
  0
VERTEX
  8
0
 10
1130.9200439453125
 20
871.6400146484375
 42
0
  0
SEQEND
  0
POLYLINE
  8
0
 10
0
 20
0
 39
0
 70
1
 66
1
  0
VERTEX
  8
0
 10
1217.8399658203125
 20
483.6199951171875
 42
0
  0
VERTEX
  8
0
 10
1287.8399658203125
 20
483.6199951171875
 42
0
  0
VERTEX
  8
0
 10
1287.8399658203125
 20
563.6199951171875
 42
0
  0
VERTEX
  8
0
 10
1217.8399658203125
 20
563.6199951171875
 42
0
  0
SEQEND
  0
POLYLINE
  8
0
 10
0
 20
0
 39
0
 70
1
 66
1
  0
VERTEX
  8
0
 10
1270.3399658203125
 20
503.6199951171875
 42
0
  0
VERTEX
  8
0
 10
1235.3399658203125
 20
503.6199951171875
 42
0
  0
VERTEX
  8
0
 10
1235.3399658203125
 20
543.6199951171875
 42
0
  0
VERTEX
  8
0
 10
1270.3399658203125
 20
543.6199951171875
 42
0
  0
SEQEND
  0
POLYLINE
  8
0
 10
0
 20
0
 39
0
 70
1
 66
1
  0
VERTEX
  8
0
 10
1266.260009765625
 20
10.220000267028809
 42
0
  0
VERTEX
  8
0
 10
1336.260009765625
 20
10.220000267028809
 42
0
  0
VERTEX
  8
0
 10
1336.260009765625
 20
90.220001220703125
 42
0
  0
VERTEX
  8
0
 10
1266.260009765625
 20
90.220001220703125
 42
0
  0
SEQEND
  0
POLYLINE
  8
0
 10
0
 20
0
 39
0
 70
1
 66
1
  0
VERTEX
  8
0
 10
1318.760009765625
 20
30.219999313354492
 42
0
  0
VERTEX
  8
0
 10
1283.760009765625
 20
30.219999313354492
 42
0
  0
VERTEX
  8
0
 10
1283.760009765625
 20
70.220001220703125
 42
0
  0
VERTEX
  8
0
 10
1318.760009765625
 20
70.220001220703125
 42
0
  0
SEQEND
  0
POLYLINE
  8
0
 10
0
 20
0
 39
0
 70
1
 66
1
  0
VERTEX
  8
0
 10
1346.5400390625
 20
10.220000267028809
 42
0
  0
VERTEX
  8
0
 10
1416.5400390625
 20
10.220000267028809
 42
0
  0
VERTEX
  8
0
 10
1416.5400390625
 20
90.220001220703125
 42
0
  0
VERTEX
  8
0
 10
1346.5400390625
 20
90.220001220703125
 42
0
  0
SEQEND
  0
POLYLINE
  8
0
 10
0
 20
0
 39
0
 70
1
 66
1
  0
VERTEX
  8
0
 10
1399.0400390625
 20
30.219999313354492
 42
0
  0
VERTEX
  8
0
 10
1364.0400390625
 20
30.219999313354492
 42
0
  0
VERTEX
  8
0
 10
1364.0400390625
 20
70.220001220703125
 42
0
  0
VERTEX
  8
0
 10
1399.0400390625
 20
70.220001220703125
 42
0
  0
SEQEND
  0
POLYLINE
  8
0
 10
0
 20
0
 39
0
 70
1
 66
1
  0
VERTEX
  8
0
 10
1436.260009765625
 20
100.40000152587891
 42
0
  0
VERTEX
  8
0
 10
1436.260009765625
 20
170.39999389648438
 42
0
  0
VERTEX
  8
0
 10
1356.260009765625
 20
170.39999389648438
 42
0
  0
VERTEX
  8
0
 10
1356.260009765625
 20
100.40000152587891
 42
0
  0
SEQEND
  0
POLYLINE
  8
0
 10
0
 20
0
 39
0
 70
1
 66
1
  0
VERTEX
  8
0
 10
1416.260009765625
 20
152.89999389648437
 42
0
  0
VERTEX
  8
0
 10
1416.260009765625
 20
117.90000152587891
 42
0
  0
VERTEX
  8
0
 10
1376.260009765625
 20
117.90000152587891
 42
0
  0
VERTEX
  8
0
 10
1376.260009765625
 20
152.89999389648437
 42
0
  0
SEQEND
  0
POLYLINE
  8
0
 10
0
 20
0
 39
0
 70
1
 66
1
  0
VERTEX
  8
0
 10
1700.780029296875
 20
618.260009765625
 42
0
  0
VERTEX
  8
0
 10
1770.780029296875
 20
618.260009765625
 42
0
  0
VERTEX
  8
0
 10
1770.780029296875
 20
698.260009765625
 42
0
  0
VERTEX
  8
0
 10
1700.780029296875
 20
698.260009765625
 42
0
  0
SEQEND
  0
POLYLINE
  8
0
 10
0
 20
0
 39
0
 70
1
 66
1
  0
VERTEX
  8
0
 10
1753.280029296875
 20
638.260009765625
 42
0
  0
VERTEX
  8
0
 10
1718.280029296875
 20
638.260009765625
 42
0
  0
VERTEX
  8
0
 10
1718.280029296875
 20
678.260009765625
 42
0
  0
VERTEX
  8
0
 10
1753.280029296875
 20
678.260009765625
 42
0
  0
SEQEND
  0
POLYLINE
  8
0
 10
0
 20
0
 39
0
 70
1
 66
1
  0
VERTEX
  8
0
 10
1711.0400390625
 20
708.44000244140625
 42
0
  0
VERTEX
  8
0
 10
1781.0400390625
 20
708.44000244140625
 42
0
  0
VERTEX
  8
0
 10
1781.0400390625
 20
788.44000244140625
 42
0
  0
VERTEX
  8
0
 10
1711.0400390625
 20
788.44000244140625
 42
0
  0
SEQEND
  0
POLYLINE
  8
0
 10
0
 20
0
 39
0
 70
1
 66
1
  0
VERTEX
  8
0
 10
1763.5400390625
 20
728.44000244140625
 42
0
  0
VERTEX
  8
0
 10
1728.5400390625
 20
728.44000244140625
 42
0
  0
VERTEX
  8
0
 10
1728.5400390625
 20
768.44000244140625
 42
0
  0
VERTEX
  8
0
 10
1763.5400390625
 20
768.44000244140625
 42
0
  0
SEQEND
  0
POLYLINE
  8
0
 10
0
 20
0
 39
0
 70
1
 66
1
  0
VERTEX
  8
0
 10
931.82000732421875
 20
310.27999877929687
 42
0
  0
VERTEX
  8
0
 10
981.82000732421875
 20
310.27999877929687
 42
0
  0
VERTEX
  8
0
 10
981.82000732421875
 20
415.27999877929687
 42
0
  0
VERTEX
  8
0
 10
931.82000732421875
 20
415.27999877929687
 42
0
  0
SEQEND
  0
POLYLINE
  8
0
 10
0
 20
0
 39
0
 70
1
 66
1
  0
VERTEX
  8
0
 10
956.82000732421875
 20
316.8255615234375
 42
-1
  0
VERTEX
  8
0
 10
956.82000732421875
 20
338.8255615234375
 42
-1
  0
SEQEND
  0
POLYLINE
  8
0
 10
0
 20
0
 39
0
 70
1
 66
1
  0
VERTEX
  8
0
 10
956.82000732421875
 20
386.73446655273438
 42
-1
  0
VERTEX
  8
0
 10
956.82000732421875
 20
408.73446655273438
 42
-1
  0
SEQEND
  0
POLYLINE
  8
0
 10
0
 20
0
 39
0
 70
1
 66
1
  0
VERTEX
  8
0
 10
1515.43994140625
 20
835.34002685546875
 42
0
  0
VERTEX
  8
0
 10
1515.43994140625
 20
885.34002685546875
 42
0
  0
VERTEX
  8
0
 10
1410.43994140625
 20
885.34002685546875
 42
0
  0
VERTEX
  8
0
 10
1410.43994140625
 20
835.34002685546875
 42
0
  0
SEQEND
  0
POLYLINE
  8
0
 10
0
 20
0
 39
0
 70
1
 66
1
  0
VERTEX
  8
0
 10
1508.8944091796875
 20
860.34002685546875
 42
-1
  0
VERTEX
  8
0
 10
1486.8944091796875
 20
860.34002685546875
 42
-1
  0
SEQEND
  0
POLYLINE
  8
0
 10
0
 20
0
 39
0
 70
1
 66
1
  0
VERTEX
  8
0
 10
1438.985595703125
 20
860.34002685546875
 42
-1
  0
VERTEX
  8
0
 10
1416.985595703125
 20
860.34002685546875
 42
-1
  0
SEQEND
  0
POLYLINE
  8
0
 10
0
 20
0
 39
0
 70
1
 66
1
  0
VERTEX
  8
0
 10
1733.1800537109375
 20
10.220000267028809
 42
0
  0
VERTEX
  8
0
 10
1783.1800537109375
 20
10.220000267028809
 42
0
  0
VERTEX
  8
0
 10
1783.1800537109375
 20
115.22000122070312
 42
0
  0
VERTEX
  8
0
 10
1733.1800537109375
 20
115.22000122070312
 42
0
  0
SEQEND
  0
POLYLINE
  8
0
 10
0
 20
0
 39
0
 70
1
 66
1
  0
VERTEX
  8
0
 10
1758.1800537109375
 20
16.765546798706055
 42
-1
  0
VERTEX
  8
0
 10
1758.1800537109375
 20
38.765548706054687
 42
-1
  0
SEQEND
  0
POLYLINE
  8
0
 10
0
 20
0
 39
0
 70
1
 66
1
  0
VERTEX
  8
0
 10
1758.1800537109375
 20
86.674453735351563
 42
-1
  0
VERTEX
  8
0
 10
1758.1800537109375
 20
108.67445373535156
 42
-1
  0
SEQEND
  0
POLYLINE
  8
0
 10
0
 20
0
 39
0
 70
1
 66
1
  0
VERTEX
  8
0
 10
1733.1800537109375
 20
125.23999786376953
 42
0
  0
VERTEX
  8
0
 10
1783.1800537109375
 20
125.23999786376953
 42
0
  0
VERTEX
  8
0
 10
1783.1800537109375
 20
230.24000549316406
 42
0
  0
VERTEX
  8
0
 10
1733.1800537109375
 20
230.24000549316406
 42
0
  0
SEQEND
  0
POLYLINE
  8
0
 10
0
 20
0
 39
0
 70
1
 66
1
  0
VERTEX
  8
0
 10
1758.1800537109375
 20
131.78555297851563
 42
-1
  0
VERTEX
  8
0
 10
1758.1800537109375
 20
153.78555297851562
 42
-1
  0
SEQEND
  0
POLYLINE
  8
0
 10
0
 20
0
 39
0
 70
1
 66
1
  0
VERTEX
  8
0
 10
1758.1800537109375
 20
201.6944580078125
 42
-1
  0
VERTEX
  8
0
 10
1758.1800537109375
 20
223.6944580078125
 42
-1
  0
SEQEND
  0
POLYLINE
  8
0
 10
0
 20
0
 39
0
 70
1
 66
1
  0
VERTEX
  8
0
 10
1733.1800537109375
 20
240.25999450683594
 42
0
  0
VERTEX
  8
0
 10
1783.1800537109375
 20
240.25999450683594
 42
0
  0
VERTEX
  8
0
 10
1783.1800537109375
 20
345.260009765625
 42
0
  0
VERTEX
  8
0
 10
1733.1800537109375
 20
345.260009765625
 42
0
  0
SEQEND
  0
POLYLINE
  8
0
 10
0
 20
0
 39
0
 70
1
 66
1
  0
VERTEX
  8
0
 10
1758.1800537109375
 20
246.8055419921875
 42
-1
  0
VERTEX
  8
0
 10
1758.1800537109375
 20
268.8055419921875
 42
-1
  0
SEQEND
  0
POLYLINE
  8
0
 10
0
 20
0
 39
0
 70
1
 66
1
  0
VERTEX
  8
0
 10
1758.1800537109375
 20
316.71444702148437
 42
-1
  0
VERTEX
  8
0
 10
1758.1800537109375
 20
338.71444702148437
 42
-1
  0
SEQEND
  0
ENDSEC
  0
EOF
