  0
SECTION
  2
ENTITIES
  0
POLYLINE
  8
0
 10
0
 20
0
 39
0
 70
1
 66
1
  0
VERTEX
  8
0
 10
0
 20
0
 42
-0
  0
VERTEX
  8
0
 10
1550
 20
0
 42
-0
  0
VERTEX
  8
0
 10
1550
 20
1100
 42
-0
  0
VERTEX
  8
0
 10
0
 20
1100
 42
-0
  0
SEQEND
  0
POLYLINE
  8
0
 10
0
 20
0
 39
0
 70
1
 66
1
  0
VERTEX
  8
0
 10
10.126922607421875
 20
10.126922607421875
 42
0
  0
VERTEX
  8
0
 10
423.35919189453125
 20
10.126922607421875
 42
-0.17797042429447174
  0
VERTEX
  8
0
 10
490.12692260742187
 20
137.17660522460937
 42
-0
  0
VERTEX
  8
0
 10
490.12692260742187
 20
428.19989013671875
 42
-0.17797042429447174
  0
VERTEX
  8
0
 10
423.35919189453125
 20
555.24957275390625
 42
-0
  0
VERTEX
  8
0
 10
10.126922607421875
 20
555.24957275390625
 42
0
  0
SEQEND
  0
POLYLINE
  8
0
 10
0
 20
0
 39
0
 70
1
 66
1
  0
VERTEX
  8
0
 10
158.214599609375
 20
105.05908203125
 42
-0
  0
VERTEX
  8
0
 10
128.51611328125
 20
75.360595703125
 42
-0
  0
VERTEX
  8
0
 10
42.799263000488281
 20
161.07742309570312
 42
0
  0
VERTEX
  8
0
 10
72.497749328613281
 20
190.77590942382812
 42
-0.24339307844638824
  0
VERTEX
  8
0
 10
72.497749328613281
 20
374.6005859375
 42
-0
  0
VERTEX
  8
0
 10
42.799263000488281
 20
404.299072265625
 42
-0
  0
VERTEX
  8
0
 10
128.51611328125
 20
490.01593017578125
 42
0
  0
VERTEX
  8
0
 10
158.214599609375
 20
460.31744384765625
 42
-1.6433805227279663
  0
SEQEND
  0
POLYLINE
  8
0
 10
0
 20
0
 39
0
 70
1
 66
1
  0
VERTEX
  8
0
 10
555.24957275390625
 20
565.265380859375
 42
0
  0
VERTEX
  8
0
 10
555.24957275390625
 20
978.4976806640625
 42
-0.17797042429447174
  0
VERTEX
  8
0
 10
428.19989013671875
 20
1045.265380859375
 42
-0
  0
VERTEX
  8
0
 10
137.17660522460937
 20
1045.265380859375
 42
-0.17797042429447174
  0
VERTEX
  8
0
 10
10.126922607421875
 20
978.4976806640625
 42
-0
  0
VERTEX
  8
0
 10
10.126922607421875
 20
565.265380859375
 42
0
  0
SEQEND
  0
POLYLINE
  8
0
 10
0
 20
0
 39
0
 70
1
 66
1
  0
VERTEX
  8
0
 10
460.31741333007812
 20
713.35308837890625
 42
-0
  0
VERTEX
  8
0
 10
490.01589965820312
 20
683.65460205078125
 42
-0
  0
VERTEX
  8
0
 10
404.299072265625
 20
597.937744140625
 42
0
  0
VERTEX
  8
0
 10
374.6005859375
 20
627.63623046875
 42
-0.24339307844638824
  0
VERTEX
  8
0
 10
190.77590942382812
 20
627.63623046875
 42
-0
  0
VERTEX
  8
0
 10
161.07742309570312
 20
597.937744140625
 42
-0
  0
VERTEX
  8
0
 10
75.360565185546875
 20
683.65460205078125
 42
0
  0
VERTEX
  8
0
 10
105.05905151367187
 20
713.35308837890625
 42
-1.6433805227279663
  0
SEQEND
  0
POLYLINE
  8
0
 10
0
 20
0
 39
0
 70
1
 66
1
  0
VERTEX
  8
0
 10
500.28460693359375
 20
10.126922607421875
 42
0
  0
VERTEX
  8
0
 10
913.51690673828125
 20
10.126922607421875
 42
-0.17797042429447174
  0
VERTEX
  8
0
 10
980.28460693359375
 20
137.17660522460937
 42
-0
  0
VERTEX
  8
0
 10
980.28460693359375
 20
428.19989013671875
 42
-0.17797042429447174
  0
VERTEX
  8
0
 10
913.51690673828125
 20
555.24957275390625
 42
-0
  0
VERTEX
  8
0
 10
500.28460693359375
 20
555.24957275390625
 42
0
  0
SEQEND
  0
POLYLINE
  8
0
 10
0
 20
0
 39
0
 70
1
 66
1
  0
VERTEX
  8
0
 10
648.372314453125
 20
105.05908203125
 42
-0
  0
VERTEX
  8
0
 10
618.673828125
 20
75.360595703125
 42
-0
  0
VERTEX
  8
0
 10
532.95697021484375
 20
161.07742309570312
 42
0
  0
VERTEX
  8
0
 10
562.65545654296875
 20
190.77590942382812
 42
-0.24339307844638824
  0
VERTEX
  8
0
 10
562.65545654296875
 20
374.6005859375
 42
-0
  0
VERTEX
  8
0
 10
532.95697021484375
 20
404.299072265625
 42
-0
  0
VERTEX
  8
0
 10
618.673828125
 20
490.01593017578125
 42
0
  0
VERTEX
  8
0
 10
648.372314453125
 20
460.31744384765625
 42
-1.6433805227279663
  0
SEQEND
  0
POLYLINE
  8
0
 10
0
 20
0
 39
0
 70
1
 66
1
  0
VERTEX
  8
0
 10
1110.50732421875
 20
565.265380859375
 42
0
  0
VERTEX
  8
0
 10
1110.50732421875
 20
978.4976806640625
 42
-0.17797042429447174
  0
VERTEX
  8
0
 10
983.45758056640625
 20
1045.265380859375
 42
-0
  0
VERTEX
  8
0
 10
692.434326171875
 20
1045.265380859375
 42
-0.17797042429447174
  0
VERTEX
  8
0
 10
565.3846435546875
 20
978.4976806640625
 42
-0
  0
VERTEX
  8
0
 10
565.3846435546875
 20
565.265380859375
 42
0
  0
SEQEND
  0
POLYLINE
  8
0
 10
0
 20
0
 39
0
 70
1
 66
1
  0
VERTEX
  8
0
 10
1015.5751342773437
 20
713.35308837890625
 42
-0
  0
VERTEX
  8
0
 10
1045.2735595703125
 20
683.65460205078125
 42
-0
  0
VERTEX
  8
0
 10
959.5567626953125
 20
597.937744140625
 42
0
  0
VERTEX
  8
0
 10
929.8582763671875
 20
627.63623046875
 42
-0.24339307844638824
  0
VERTEX
  8
0
 10
746.03363037109375
 20
627.63623046875
 42
-0
  0
VERTEX
  8
0
 10
716.33514404296875
 20
597.937744140625
 42
-0
  0
VERTEX
  8
0
 10
630.6182861328125
 20
683.65460205078125
 42
0
  0
VERTEX
  8
0
 10
660.3167724609375
 20
713.35308837890625
 42
-1.6433805227279663
  0
SEQEND
  0
POLYLINE
  8
0
 10
0
 20
0
 39
0
 70
1
 66
1
  0
VERTEX
  8
0
 10
990.44232177734375
 20
10.126922607421875
 42
0
  0
VERTEX
  8
0
 10
1403.674560546875
 20
10.126922607421875
 42
-0.17797042429447174
  0
VERTEX
  8
0
 10
1470.4422607421875
 20
137.17660522460937
 42
-0
  0
VERTEX
  8
0
 10
1470.4422607421875
 20
428.19989013671875
 42
-0.17797042429447174
  0
VERTEX
  8
0
 10
1403.674560546875
 20
555.24957275390625
 42
-0
  0
VERTEX
  8
0
 10
990.44232177734375
 20
555.24957275390625
 42
0
  0
SEQEND
  0
POLYLINE
  8
0
 10
0
 20
0
 39
0
 70
1
 66
1
  0
VERTEX
  8
0
 10
1138.530029296875
 20
105.05908203125
 42
-0
  0
VERTEX
  8
0
 10
1108.83154296875
 20
75.360595703125
 42
-0
  0
VERTEX
  8
0
 10
1023.1146240234375
 20
161.07742309570312
 42
0
  0
VERTEX
  8
0
 10
1052.8131103515625
 20
190.77590942382812
 42
-0.24339307844638824
  0
VERTEX
  8
0
 10
1052.8131103515625
 20
374.6005859375
 42
-0
  0
VERTEX
  8
0
 10
1023.1146240234375
 20
404.299072265625
 42
-0
  0
VERTEX
  8
0
 10
1108.83154296875
 20
490.01593017578125
 42
0
  0
VERTEX
  8
0
 10
1138.530029296875
 20
460.31744384765625
 42
-1.6433805227279663
  0
SEQEND
  0
POLYLINE
  8
0
 10
0
 20
0
 39
0
 70
1
 66
1
  0
VERTEX
  8
0
 10
248.87965393066406
 20
469.65975952148437
 42
1
  0
VERTEX
  8
0
 10
247.243408203125
 20
94.663322448730469
 42
1
  0
SEQEND
  0
POLYLINE
  8
0
 10
0
 20
0
 39
0
 70
1
 66
1
  0
VERTEX
  8
0
 10
126.98251342773438
 20
404.30181884765625
 42
-0
  0
VERTEX
  8
0
 10
370.20181274414062
 20
403.24057006835937
 42
-0
  0
VERTEX
  8
0
 10
369.14056396484375
 20
160.02122497558594
 42
0
  0
VERTEX
  8
0
 10
125.92125701904297
 20
161.08247375488281
 42
0
  0
SEQEND
  0
POLYLINE
  8
0
 10
0
 20
0
 39
0
 70
1
 66
1
  0
VERTEX
  8
0
 10
281.42965698242187
 20
992.24822998046875
 42
1
  0
VERTEX
  8
0
 10
279.79342651367187
 20
617.25177001953125
 42
1
  0
SEQEND
  0
POLYLINE
  8
0
 10
0
 20
0
 39
0
 70
1
 66
1
  0
VERTEX
  8
0
 10
159.53251647949219
 20
926.8902587890625
 42
-0
  0
VERTEX
  8
0
 10
402.75180053710937
 20
925.82904052734375
 42
-0
  0
VERTEX
  8
0
 10
401.6905517578125
 20
682.60968017578125
 42
0
  0
VERTEX
  8
0
 10
158.47125244140625
 20
683.67095947265625
 42
0
  0
SEQEND
  0
POLYLINE
  8
0
 10
0
 20
0
 39
0
 70
1
 66
1
  0
VERTEX
  8
0
 10
739.037353515625
 20
469.65975952148437
 42
1
  0
VERTEX
  8
0
 10
737.401123046875
 20
94.663322448730469
 42
1
  0
SEQEND
  0
POLYLINE
  8
0
 10
0
 20
0
 39
0
 70
1
 66
1
  0
VERTEX
  8
0
 10
617.14019775390625
 20
404.30181884765625
 42
-0
  0
VERTEX
  8
0
 10
860.3594970703125
 20
403.24057006835937
 42
-0
  0
VERTEX
  8
0
 10
859.29827880859375
 20
160.02122497558594
 42
0
  0
VERTEX
  8
0
 10
616.0789794921875
 20
161.08247375488281
 42
0
  0
SEQEND
  0
POLYLINE
  8
0
 10
0
 20
0
 39
0
 70
1
 66
1
  0
VERTEX
  8
0
 10
836.6873779296875
 20
992.24822998046875
 42
1
  0
VERTEX
  8
0
 10
835.05108642578125
 20
617.25177001953125
 42
1
  0
SEQEND
  0
POLYLINE
  8
0
 10
0
 20
0
 39
0
 70
1
 66
1
  0
VERTEX
  8
0
 10
714.79022216796875
 20
926.8902587890625
 42
-0
  0
VERTEX
  8
0
 10
958.009521484375
 20
925.82904052734375
 42
-0
  0
VERTEX
  8
0
 10
956.9482421875
 20
682.60968017578125
 42
0
  0
VERTEX
  8
0
 10
713.72894287109375
 20
683.67095947265625
 42
0
  0
SEQEND
  0
POLYLINE
  8
0
 10
0
 20
0
 39
0
 70
1
 66
1
  0
VERTEX
  8
0
 10
1229.195068359375
 20
469.65975952148437
 42
1
  0
VERTEX
  8
0
 10
1227.558837890625
 20
94.663322448730469
 42
1
  0
SEQEND
  0
POLYLINE
  8
0
 10
0
 20
0
 39
0
 70
1
 66
1
  0
VERTEX
  8
0
 10
1107.2978515625
 20
404.30181884765625
 42
-0
  0
VERTEX
  8
0
 10
1350.5172119140625
 20
403.24057006835937
 42
-0
  0
VERTEX
  8
0
 10
1349.4559326171875
 20
160.02122497558594
 42
0
  0
VERTEX
  8
0
 10
1106.2366943359375
 20
161.08247375488281
 42
0
  0
SEQEND
  0
POLYLINE
  8
0
 10
0
 20
0
 39
0
 70
1
 66
1
  0
VERTEX
  8
0
 10
247.11073303222656
 20
390.72970581054687
 42
1
  0
VERTEX
  8
0
 10
246.15080261230469
 20
170.7318115234375
 42
1
  0
SEQEND
  0
POLYLINE
  8
0
 10
0
 20
0
 39
0
 70
1
 66
1
  0
VERTEX
  8
0
 10
246.99073791503906
 20
363.22998046875
 42
-1
  0
VERTEX
  8
0
 10
246.27079772949219
 20
198.23155212402344
 42
-1
  0
SEQEND
  0
POLYLINE
  8
0
 10
0
 20
0
 39
0
 70
1
 66
1
  0
VERTEX
  8
0
 10
150.29899597167969
 20
289.15118408203125
 42
-1
  0
VERTEX
  8
0
 10
150.22918701171875
 20
273.15133666992187
 42
-1
  0
SEQEND
  0
POLYLINE
  8
0
 10
0
 20
0
 39
0
 70
1
 66
1
  0
VERTEX
  8
0
 10
279.77996826171875
 20
913.31817626953125
 42
1
  0
VERTEX
  8
0
 10
278.82003784179687
 20
693.32025146484375
 42
1
  0
SEQEND
  0
POLYLINE
  8
0
 10
0
 20
0
 39
0
 70
1
 66
1
  0
VERTEX
  8
0
 10
279.65997314453125
 20
885.81842041015625
 42
-1
  0
VERTEX
  8
0
 10
278.94003295898437
 20
720.82000732421875
 42
-1
  0
SEQEND
  0
POLYLINE
  8
0
 10
0
 20
0
 39
0
 70
1
 66
1
  0
VERTEX
  8
0
 10
182.96823120117187
 20
811.7396240234375
 42
-1
  0
VERTEX
  8
0
 10
182.89840698242187
 20
795.73980712890625
 42
-1
  0
SEQEND
  0
POLYLINE
  8
0
 10
0
 20
0
 39
0
 70
1
 66
1
  0
VERTEX
  8
0
 10
737.2684326171875
 20
390.72970581054687
 42
1
  0
VERTEX
  8
0
 10
736.3084716796875
 20
170.7318115234375
 42
1
  0
SEQEND
  0
POLYLINE
  8
0
 10
0
 20
0
 39
0
 70
1
 66
1
  0
VERTEX
  8
0
 10
737.1484375
 20
363.22998046875
 42
-1
  0
VERTEX
  8
0
 10
736.428466796875
 20
198.23155212402344
 42
-1
  0
SEQEND
  0
POLYLINE
  8
0
 10
0
 20
0
 39
0
 70
1
 66
1
  0
VERTEX
  8
0
 10
640.4566650390625
 20
289.15118408203125
 42
-1
  0
VERTEX
  8
0
 10
640.38690185546875
 20
273.15133666992187
 42
-1
  0
SEQEND
  0
POLYLINE
  8
0
 10
0
 20
0
 39
0
 70
1
 66
1
  0
VERTEX
  8
0
 10
834.91839599609375
 20
913.31817626953125
 42
1
  0
VERTEX
  8
0
 10
833.95849609375
 20
693.32025146484375
 42
1
  0
SEQEND
  0
POLYLINE
  8
0
 10
0
 20
0
 39
0
 70
1
 66
1
  0
VERTEX
  8
0
 10
834.7984619140625
 20
885.81842041015625
 42
-1
  0
VERTEX
  8
0
 10
834.0784912109375
 20
720.82000732421875
 42
-1
  0
SEQEND
  0
POLYLINE
  8
0
 10
0
 20
0
 39
0
 70
1
 66
1
  0
VERTEX
  8
0
 10
738.106689453125
 20
811.7396240234375
 42
-1
  0
VERTEX
  8
0
 10
738.036865234375
 20
795.73980712890625
 42
-1
  0
SEQEND
  0
POLYLINE
  8
0
 10
0
 20
0
 39
0
 70
1
 66
1
  0
VERTEX
  8
0
 10
1227.4261474609375
 20
390.72970581054687
 42
1
  0
VERTEX
  8
0
 10
1226.4661865234375
 20
170.7318115234375
 42
1
  0
SEQEND
  0
POLYLINE
  8
0
 10
0
 20
0
 39
0
 70
1
 66
1
  0
VERTEX
  8
0
 10
1227.30615234375
 20
363.22998046875
 42
-1
  0
VERTEX
  8
0
 10
1226.586181640625
 20
198.23155212402344
 42
-1
  0
SEQEND
  0
POLYLINE
  8
0
 10
0
 20
0
 39
0
 70
1
 66
1
  0
VERTEX
  8
0
 10
1130.6143798828125
 20
289.15118408203125
 42
-1
  0
VERTEX
  8
0
 10
1130.5445556640625
 20
273.15133666992187
 42
-1
  0
SEQEND
  0
POLYLINE
  8
0
 10
0
 20
0
 39
0
 70
1
 66
1
  0
VERTEX
  8
0
 10
1231.122314453125
 20
785.26434326171875
 42
1
  0
VERTEX
  8
0
 10
1230.162353515625
 20
565.26641845703125
 42
1
  0
SEQEND
  0
POLYLINE
  8
0
 10
0
 20
0
 39
0
 70
1
 66
1
  0
VERTEX
  8
0
 10
1231.0023193359375
 20
757.76458740234375
 42
-1
  0
VERTEX
  8
0
 10
1230.2823486328125
 20
592.76617431640625
 42
-1
  0
SEQEND
  0
POLYLINE
  8
0
 10
0
 20
0
 39
0
 70
1
 66
1
  0
VERTEX
  8
0
 10
1134.310546875
 20
683.685791015625
 42
-1
  0
VERTEX
  8
0
 10
1134.24072265625
 20
667.6859130859375
 42
-1
  0
SEQEND
  0
POLYLINE
  8
0
 10
0
 20
0
 39
0
 70
1
 66
1
  0
VERTEX
  8
0
 10
1120.642333984375
 20
791.923095703125
 42
0
  0
VERTEX
  8
0
 10
1200.642333984375
 20
791.923095703125
 42
0
  0
VERTEX
  8
0
 10
1200.642333984375
 20
1046.923095703125
 42
0
  0
VERTEX
  8
0
 10
1120.642333984375
 20
1046.923095703125
 42
0
  0
SEQEND
  0
POLYLINE
  8
0
 10
0
 20
0
 39
0
 70
1
 66
1
  0
VERTEX
  8
0
 10
1160.642333984375
 20
863.623046875
 42
-1
  0
VERTEX
  8
0
 10
1160.642333984375
 20
913.623046875
 42
-1
  0
SEQEND
  0
POLYLINE
  8
0
 10
0
 20
0
 39
0
 70
1
 66
1
  0
VERTEX
  8
0
 10
1160.642333984375
 20
925.22308349609375
 42
-1
  0
VERTEX
  8
0
 10
1160.642333984375
 20
975.22308349609375
 42
-1
  0
SEQEND
  0
POLYLINE
  8
0
 10
0
 20
0
 39
0
 70
1
 66
1
  0
VERTEX
  8
0
 10
1210.78076171875
 20
795.38079833984375
 42
0
  0
VERTEX
  8
0
 10
1290.78076171875
 20
795.38079833984375
 42
0
  0
VERTEX
  8
0
 10
1290.78076171875
 20
1050.3807373046875
 42
0
  0
VERTEX
  8
0
 10
1210.78076171875
 20
1050.3807373046875
 42
0
  0
SEQEND
  0
POLYLINE
  8
0
 10
0
 20
0
 39
0
 70
1
 66
1
  0
VERTEX
  8
0
 10
1250.78076171875
 20
867.08074951171875
 42
-1
  0
VERTEX
  8
0
 10
1250.78076171875
 20
917.08074951171875
 42
-1
  0
SEQEND
  0
POLYLINE
  8
0
 10
0
 20
0
 39
0
 70
1
 66
1
  0
VERTEX
  8
0
 10
1250.78076171875
 20
928.6807861328125
 42
-1
  0
VERTEX
  8
0
 10
1250.78076171875
 20
978.6807861328125
 42
-1
  0
SEQEND
  0
POLYLINE
  8
0
 10
0
 20
0
 39
0
 70
1
 66
1
  0
VERTEX
  8
0
 10
1300.919189453125
 20
772.96539306640625
 42
0
  0
VERTEX
  8
0
 10
1380.919189453125
 20
772.96539306640625
 42
0
  0
VERTEX
  8
0
 10
1380.919189453125
 20
1027.96533203125
 42
0
  0
VERTEX
  8
0
 10
1300.919189453125
 20
1027.96533203125
 42
0
  0
SEQEND
  0
POLYLINE
  8
0
 10
0
 20
0
 39
0
 70
1
 66
1
  0
VERTEX
  8
0
 10
1340.919189453125
 20
844.6654052734375
 42
-1
  0
VERTEX
  8
0
 10
1340.919189453125
 20
894.6654052734375
 42
-1
  0
SEQEND
  0
POLYLINE
  8
0
 10
0
 20
0
 39
0
 70
1
 66
1
  0
VERTEX
  8
0
 10
1340.919189453125
 20
906.265380859375
 42
-1
  0
VERTEX
  8
0
 10
1340.919189453125
 20
956.265380859375
 42
-1
  0
SEQEND
  0
POLYLINE
  8
0
 10
0
 20
0
 39
0
 70
1
 66
1
  0
VERTEX
  8
0
 10
1391.0577392578125
 20
565.265380859375
 42
0
  0
VERTEX
  8
0
 10
1471.0577392578125
 20
565.265380859375
 42
0
  0
VERTEX
  8
0
 10
1471.0577392578125
 20
820.265380859375
 42
0
  0
VERTEX
  8
0
 10
1391.0577392578125
 20
820.265380859375
 42
0
  0
SEQEND
  0
POLYLINE
  8
0
 10
0
 20
0
 39
0
 70
1
 66
1
  0
VERTEX
  8
0
 10
1431.0577392578125
 20
636.96539306640625
 42
-1
  0
VERTEX
  8
0
 10
1431.0577392578125
 20
686.96539306640625
 42
-1
  0
SEQEND
  0
POLYLINE
  8
0
 10
0
 20
0
 39
0
 70
1
 66
1
  0
VERTEX
  8
0
 10
1431.0577392578125
 20
698.56536865234375
 42
-1
  0
VERTEX
  8
0
 10
1431.0577392578125
 20
748.56536865234375
 42
-1
  0
SEQEND
  0
POLYLINE
  8
0
 10
0
 20
0
 39
0
 70
1
 66
1
  0
VERTEX
  8
0
 10
1391.0577392578125
 20
830.31536865234375
 42
0
  0
VERTEX
  8
0
 10
1471.0577392578125
 20
830.31536865234375
 42
0
  0
VERTEX
  8
0
 10
1471.0577392578125
 20
1085.3154296875
 42
0
  0
VERTEX
  8
0
 10
1391.0577392578125
 20
1085.3154296875
 42
0
  0
SEQEND
  0
POLYLINE
  8
0
 10
0
 20
0
 39
0
 70
1
 66
1
  0
VERTEX
  8
0
 10
1431.0577392578125
 20
902.015380859375
 42
-1
  0
VERTEX
  8
0
 10
1431.0577392578125
 20
952.015380859375
 42
-1
  0
SEQEND
  0
POLYLINE
  8
0
 10
0
 20
0
 39
0
 70
1
 66
1
  0
VERTEX
  8
0
 10
1431.0577392578125
 20
963.61541748046875
 42
-1
  0
VERTEX
  8
0
 10
1431.0577392578125
 20
1013.6154174804687
 42
-1
  0
SEQEND
  0
POLYLINE
  8
0
 10
0
 20
0
 39
0
 70
1
 66
1
  0
VERTEX
  8
0
 10
229.080078125
 20
222.59616088867187
 42
-0
  0
VERTEX
  8
0
 10
281.65972900390625
 20
244.27525329589844
 42
-0
  0
VERTEX
  8
0
 10
281.75442504882812
 20
336.942626953125
 42
0
  0
VERTEX
  8
0
 10
189.89216613769531
 20
324.75326538085937
 42
0
  0
VERTEX
  8
0
 10
175.26153564453125
 20
269.79376220703125
 42
0
  0
SEQEND
  0
POLYLINE
  8
0
 10
0
 20
0
 39
0
 70
1
 66
1
  0
VERTEX
  8
0
 10
247.90255737304687
 20
252.06228637695312
 42
-0
  0
VERTEX
  8
0
 10
214.10838317871094
 20
259.80709838867187
 42
0
  0
VERTEX
  8
0
 10
202.01878356933594
 20
292.30126953125
 42
-0
  0
VERTEX
  8
0
 10
212.83407592773437
 20
304.63375854492188
 42
-0
  0
VERTEX
  8
0
 10
246.62826538085937
 20
296.888916015625
 42
0
  0
VERTEX
  8
0
 10
258.71783447265625
 20
264.394775390625
 42
0
  0
SEQEND
  0
POLYLINE
  8
0
 10
0
 20
0
 39
0
 70
1
 66
1
  0
VERTEX
  8
0
 10
270.03802490234375
 20
305.38278198242187
 42
-1
  0
VERTEX
  8
0
 10
251.99386596679687
 20
321.20706176757812
 42
-1
  0
SEQEND
  0
POLYLINE
  8
0
 10
0
 20
0
 39
0
 70
1
 66
1
  0
VERTEX
  8
0
 10
261.74929809570312
 20
745.18463134765625
 42
-0
  0
VERTEX
  8
0
 10
314.3289794921875
 20
766.86370849609375
 42
-0
  0
VERTEX
  8
0
 10
314.42364501953125
 20
859.53106689453125
 42
0
  0
VERTEX
  8
0
 10
222.5614013671875
 20
847.34173583984375
 42
0
  0
VERTEX
  8
0
 10
207.93077087402344
 20
792.3822021484375
 42
0
  0
SEQEND
  0
POLYLINE
  8
0
 10
0
 20
0
 39
0
 70
1
 66
1
  0
VERTEX
  8
0
 10
280.57177734375
 20
774.6507568359375
 42
-0
  0
VERTEX
  8
0
 10
246.77760314941406
 20
782.39556884765625
 42
0
  0
VERTEX
  8
0
 10
234.68801879882812
 20
814.88970947265625
 42
-0
  0
VERTEX
  8
0
 10
245.5032958984375
 20
827.22222900390625
 42
-0
  0
VERTEX
  8
0
 10
279.29751586914063
 20
819.4774169921875
 42
0
  0
VERTEX
  8
0
 10
291.3870849609375
 20
786.98321533203125
 42
0
  0
SEQEND
  0
POLYLINE
  8
0
 10
0
 20
0
 39
0
 70
1
 66
1
  0
VERTEX
  8
0
 10
302.70724487304687
 20
827.97125244140625
 42
-1
  0
VERTEX
  8
0
 10
284.6630859375
 20
843.7955322265625
 42
-1
  0
SEQEND
  0
POLYLINE
  8
0
 10
0
 20
0
 39
0
 70
1
 66
1
  0
VERTEX
  8
0
 10
719.23779296875
 20
222.59616088867187
 42
-0
  0
VERTEX
  8
0
 10
771.81744384765625
 20
244.27525329589844
 42
-0
  0
VERTEX
  8
0
 10
771.912109375
 20
336.942626953125
 42
0
  0
VERTEX
  8
0
 10
680.04986572265625
 20
324.75326538085937
 42
0
  0
VERTEX
  8
0
 10
665.41925048828125
 20
269.79376220703125
 42
0
  0
SEQEND
  0
POLYLINE
  8
0
 10
0
 20
0
 39
0
 70
1
 66
1
  0
VERTEX
  8
0
 10
738.06024169921875
 20
252.06228637695312
 42
-0
  0
VERTEX
  8
0
 10
704.26605224609375
 20
259.80709838867187
 42
0
  0
VERTEX
  8
0
 10
692.17645263671875
 20
292.30126953125
 42
-0
  0
VERTEX
  8
0
 10
702.99176025390625
 20
304.63375854492188
 42
-0
  0
VERTEX
  8
0
 10
736.78594970703125
 20
296.888916015625
 42
0
  0
VERTEX
  8
0
 10
748.87554931640625
 20
264.394775390625
 42
0
  0
SEQEND
  0
POLYLINE
  8
0
 10
0
 20
0
 39
0
 70
1
 66
1
  0
VERTEX
  8
0
 10
760.19573974609375
 20
305.38278198242187
 42
-1
  0
VERTEX
  8
0
 10
742.15155029296875
 20
321.20706176757812
 42
-1
  0
SEQEND
  0
POLYLINE
  8
0
 10
0
 20
0
 39
0
 70
1
 66
1
  0
VERTEX
  8
0
 10
816.88775634765625
 20
745.18463134765625
 42
-0
  0
VERTEX
  8
0
 10
869.4674072265625
 20
766.86370849609375
 42
-0
  0
VERTEX
  8
0
 10
869.5621337890625
 20
859.53106689453125
 42
0
  0
VERTEX
  8
0
 10
777.69989013671875
 20
847.34173583984375
 42
0
  0
VERTEX
  8
0
 10
763.0692138671875
 20
792.3822021484375
 42
0
  0
SEQEND
  0
POLYLINE
  8
0
 10
0
 20
0
 39
0
 70
1
 66
1
  0
VERTEX
  8
0
 10
835.71026611328125
 20
774.6507568359375
 42
-0
  0
VERTEX
  8
0
 10
801.91607666015625
 20
782.39556884765625
 42
0
  0
VERTEX
  8
0
 10
789.82647705078125
 20
814.88970947265625
 42
-0
  0
VERTEX
  8
0
 10
800.64178466796875
 20
827.22222900390625
 42
-0
  0
VERTEX
  8
0
 10
834.43597412109375
 20
819.4774169921875
 42
0
  0
VERTEX
  8
0
 10
846.5255126953125
 20
786.98321533203125
 42
0
  0
SEQEND
  0
POLYLINE
  8
0
 10
0
 20
0
 39
0
 70
1
 66
1
  0
VERTEX
  8
0
 10
857.845703125
 20
827.97125244140625
 42
-1
  0
VERTEX
  8
0
 10
839.80157470703125
 20
843.7955322265625
 42
-1
  0
SEQEND
  0
POLYLINE
  8
0
 10
0
 20
0
 39
0
 70
1
 66
1
  0
VERTEX
  8
0
 10
1209.3955078125
 20
222.59616088867187
 42
-0
  0
VERTEX
  8
0
 10
1261.97509765625
 20
244.27525329589844
 42
-0
  0
VERTEX
  8
0
 10
1262.06982421875
 20
336.942626953125
 42
0
  0
VERTEX
  8
0
 10
1170.20751953125
 20
324.75326538085937
 42
0
  0
VERTEX
  8
0
 10
1155.576904296875
 20
269.79376220703125
 42
0
  0
SEQEND
  0
POLYLINE
  8
0
 10
0
 20
0
 39
0
 70
1
 66
1
  0
VERTEX
  8
0
 10
1228.2178955078125
 20
252.06228637695312
 42
-0
  0
VERTEX
  8
0
 10
1194.4237060546875
 20
259.80709838867187
 42
0
  0
VERTEX
  8
0
 10
1182.3341064453125
 20
292.30126953125
 42
-0
  0
VERTEX
  8
0
 10
1193.1494140625
 20
304.63375854492188
 42
-0
  0
VERTEX
  8
0
 10
1226.943603515625
 20
296.888916015625
 42
0
  0
VERTEX
  8
0
 10
1239.033203125
 20
264.394775390625
 42
0
  0
SEQEND
  0
POLYLINE
  8
0
 10
0
 20
0
 39
0
 70
1
 66
1
  0
VERTEX
  8
0
 10
1250.3533935546875
 20
305.38278198242187
 42
-1
  0
VERTEX
  8
0
 10
1232.3092041015625
 20
321.20706176757812
 42
-1
  0
SEQEND
  0
POLYLINE
  8
0
 10
0
 20
0
 39
0
 70
1
 66
1
  0
VERTEX
  8
0
 10
1213.0916748046875
 20
617.13079833984375
 42
-0
  0
VERTEX
  8
0
 10
1265.6712646484375
 20
638.80987548828125
 42
-0
  0
VERTEX
  8
0
 10
1265.7659912109375
 20
731.47723388671875
 42
0
  0
VERTEX
  8
0
 10
1173.9036865234375
 20
719.287841796875
 42
0
  0
VERTEX
  8
0
 10
1159.2730712890625
 20
664.328369140625
 42
0
  0
SEQEND
  0
POLYLINE
  8
0
 10
0
 20
0
 39
0
 70
1
 66
1
  0
VERTEX
  8
0
 10
1231.9140625
 20
646.596923828125
 42
-0
  0
VERTEX
  8
0
 10
1198.119873046875
 20
654.34173583984375
 42
0
  0
VERTEX
  8
0
 10
1186.0302734375
 20
686.83587646484375
 42
-0
  0
VERTEX
  8
0
 10
1196.8455810546875
 20
699.1683349609375
 42
-0
  0
VERTEX
  8
0
 10
1230.6397705078125
 20
691.42352294921875
 42
0
  0
VERTEX
  8
0
 10
1242.7293701171875
 20
658.92938232421875
 42
0
  0
SEQEND
  0
POLYLINE
  8
0
 10
0
 20
0
 39
0
 70
1
 66
1
  0
VERTEX
  8
0
 10
1254.049560546875
 20
699.91741943359375
 42
-1
  0
VERTEX
  8
0
 10
1236.00537109375
 20
715.74169921875
 42
-1
  0
SEQEND
  0
POLYLINE
  8
0
 10
0
 20
0
 39
0
 70
1
 66
1
  0
VERTEX
  8
0
 10
190.12692260742187
 20
1055.3038330078125
 42
-0
  0
VERTEX
  8
0
 10
190.12692260742187
 20
1085.3038330078125
 42
-0
  0
VERTEX
  8
0
 10
113.03911590576172
 20
1085.3038330078125
 42
-0.46467694640159607
  0
VERTEX
  8
0
 10
87.214729309082031
 20
1085.3038330078125
 42
-0
  0
VERTEX
  8
0
 10
10.126922607421875
 20
1085.3038330078125
 42
-0
  0
VERTEX
  8
0
 10
10.126922607421875
 20
1055.3038330078125
 42
0
  0
VERTEX
  8
0
 10
87.214729309082031
 20
1055.3038330078125
 42
-0.46467694640159607
  0
VERTEX
  8
0
 10
113.03911590576172
 20
1055.3038330078125
 42
0
  0
SEQEND
  0
POLYLINE
  8
0
 10
0
 20
0
 39
0
 70
1
 66
1
  0
VERTEX
  8
0
 10
179.38700866699219
 20
1070.3038330078125
 42
-1
  0
VERTEX
  8
0
 10
161.38700866699219
 20
1070.3038330078125
 42
-1
  0
SEQEND
  0
POLYLINE
  8
0
 10
0
 20
0
 39
0
 70
1
 66
1
  0
VERTEX
  8
0
 10
380.29998779296875
 20
1055.3038330078125
 42
-0
  0
VERTEX
  8
0
 10
380.29998779296875
 20
1085.3038330078125
 42
-0
  0
VERTEX
  8
0
 10
303.21218872070313
 20
1085.3038330078125
 42
-0.46467694640159607
  0
VERTEX
  8
0
 10
277.3878173828125
 20
1085.3038330078125
 42
-0
  0
VERTEX
  8
0
 10
200.30000305175781
 20
1085.3038330078125
 42
-0
  0
VERTEX
  8
0
 10
200.30000305175781
 20
1055.3038330078125
 42
0
  0
VERTEX
  8
0
 10
277.3878173828125
 20
1055.3038330078125
 42
-0.46467694640159607
  0
VERTEX
  8
0
 10
303.21218872070313
 20
1055.3038330078125
 42
0
  0
SEQEND
  0
POLYLINE
  8
0
 10
0
 20
0
 39
0
 70
1
 66
1
  0
VERTEX
  8
0
 10
369.56008911132812
 20
1070.3038330078125
 42
-1
  0
VERTEX
  8
0
 10
351.56008911132812
 20
1070.3038330078125
 42
-1
  0
SEQEND
  0
POLYLINE
  8
0
 10
0
 20
0
 39
0
 70
1
 66
1
  0
VERTEX
  8
0
 10
570.47308349609375
 20
1055.3038330078125
 42
-0
  0
VERTEX
  8
0
 10
570.47308349609375
 20
1085.3038330078125
 42
-0
  0
VERTEX
  8
0
 10
493.38528442382812
 20
1085.3038330078125
 42
-0.46467694640159607
  0
VERTEX
  8
0
 10
467.56088256835937
 20
1085.3038330078125
 42
-0
  0
VERTEX
  8
0
 10
390.47308349609375
 20
1085.3038330078125
 42
-0
  0
VERTEX
  8
0
 10
390.47308349609375
 20
1055.3038330078125
 42
0
  0
VERTEX
  8
0
 10
467.56088256835937
 20
1055.3038330078125
 42
-0.46467694640159607
  0
VERTEX
  8
0
 10
493.38528442382812
 20
1055.3038330078125
 42
0
  0
SEQEND
  0
POLYLINE
  8
0
 10
0
 20
0
 39
0
 70
1
 66
1
  0
VERTEX
  8
0
 10
559.733154296875
 20
1070.3038330078125
 42
-1
  0
VERTEX
  8
0
 10
541.733154296875
 20
1070.3038330078125
 42
-1
  0
SEQEND
  0
POLYLINE
  8
0
 10
0
 20
0
 39
0
 70
1
 66
1
  0
VERTEX
  8
0
 10
760.64617919921875
 20
1055.3038330078125
 42
-0
  0
VERTEX
  8
0
 10
760.64617919921875
 20
1085.3038330078125
 42
-0
  0
VERTEX
  8
0
 10
683.558349609375
 20
1085.3038330078125
 42
-0.46467694640159607
  0
VERTEX
  8
0
 10
657.73394775390625
 20
1085.3038330078125
 42
-0
  0
VERTEX
  8
0
 10
580.64617919921875
 20
1085.3038330078125
 42
-0
  0
VERTEX
  8
0
 10
580.64617919921875
 20
1055.3038330078125
 42
0
  0
VERTEX
  8
0
 10
657.73394775390625
 20
1055.3038330078125
 42
-0.46467694640159607
  0
VERTEX
  8
0
 10
683.558349609375
 20
1055.3038330078125
 42
0
  0
SEQEND
  0
POLYLINE
  8
0
 10
0
 20
0
 39
0
 70
1
 66
1
  0
VERTEX
  8
0
 10
749.90625
 20
1070.3038330078125
 42
-1
  0
VERTEX
  8
0
 10
731.90625
 20
1070.3038330078125
 42
-1
  0
SEQEND
  0
POLYLINE
  8
0
 10
0
 20
0
 39
0
 70
1
 66
1
  0
VERTEX
  8
0
 10
950.8192138671875
 20
1055.3038330078125
 42
-0
  0
VERTEX
  8
0
 10
950.8192138671875
 20
1085.3038330078125
 42
-0
  0
VERTEX
  8
0
 10
873.7314453125
 20
1085.3038330078125
 42
-0.46467694640159607
  0
VERTEX
  8
0
 10
847.90704345703125
 20
1085.3038330078125
 42
-0
  0
VERTEX
  8
0
 10
770.8192138671875
 20
1085.3038330078125
 42
-0
  0
VERTEX
  8
0
 10
770.8192138671875
 20
1055.3038330078125
 42
0
  0
VERTEX
  8
0
 10
847.90704345703125
 20
1055.3038330078125
 42
-0.46467694640159607
  0
VERTEX
  8
0
 10
873.7314453125
 20
1055.3038330078125
 42
0
  0
SEQEND
  0
POLYLINE
  8
0
 10
0
 20
0
 39
0
 70
1
 66
1
  0
VERTEX
  8
0
 10
940.07928466796875
 20
1070.3038330078125
 42
-1
  0
VERTEX
  8
0
 10
922.07928466796875
 20
1070.3038330078125
 42
-1
  0
SEQEND
  0
POLYLINE
  8
0
 10
0
 20
0
 39
0
 70
1
 66
1
  0
VERTEX
  8
0
 10
1140.9923095703125
 20
1056.9730224609375
 42
-0
  0
VERTEX
  8
0
 10
1140.9923095703125
 20
1086.9730224609375
 42
-0
  0
VERTEX
  8
0
 10
1063.904541015625
 20
1086.9730224609375
 42
-0.46467694640159607
  0
VERTEX
  8
0
 10
1038.080078125
 20
1086.9730224609375
 42
-0
  0
VERTEX
  8
0
 10
960.9923095703125
 20
1086.9730224609375
 42
-0
  0
VERTEX
  8
0
 10
960.9923095703125
 20
1056.9730224609375
 42
0
  0
VERTEX
  8
0
 10
1038.080078125
 20
1056.9730224609375
 42
-0.46467694640159607
  0
VERTEX
  8
0
 10
1063.904541015625
 20
1056.9730224609375
 42
0
  0
SEQEND
  0
POLYLINE
  8
0
 10
0
 20
0
 39
0
 70
1
 66
1
  0
VERTEX
  8
0
 10
1130.25244140625
 20
1071.9730224609375
 42
-1
  0
VERTEX
  8
0
 10
1112.25244140625
 20
1071.9730224609375
 42
-1
  0
SEQEND
  0
POLYLINE
  8
0
 10
0
 20
0
 39
0
 70
1
 66
1
  0
VERTEX
  8
0
 10
1350.519287109375
 20
581.36151123046875
 42
-0
  0
VERTEX
  8
0
 10
1380.519287109375
 20
581.36151123046875
 42
-0
  0
VERTEX
  8
0
 10
1380.519287109375
 20
658.4493408203125
 42
-0.46467694640159607
  0
VERTEX
  8
0
 10
1380.519287109375
 20
684.27374267578125
 42
-0
  0
VERTEX
  8
0
 10
1380.519287109375
 20
761.36151123046875
 42
-0
  0
VERTEX
  8
0
 10
1350.519287109375
 20
761.36151123046875
 42
0
  0
VERTEX
  8
0
 10
1350.519287109375
 20
684.27374267578125
 42
-0.46467694640159607
  0
VERTEX
  8
0
 10
1350.519287109375
 20
658.4493408203125
 42
0
  0
SEQEND
  0
POLYLINE
  8
0
 10
0
 20
0
 39
0
 70
1
 66
1
  0
VERTEX
  8
0
 10
1365.519287109375
 20
592.1014404296875
 42
-1
  0
VERTEX
  8
0
 10
1365.519287109375
 20
610.1014404296875
 42
-1
  0
SEQEND
  0
POLYLINE
  8
0
 10
0
 20
0
 39
0
 70
1
 66
1
  0
VERTEX
  8
0
 10
1480.5999755859375
 20
10.126922607421875
 42
-0
  0
VERTEX
  8
0
 10
1510.5999755859375
 20
10.126922607421875
 42
-0
  0
VERTEX
  8
0
 10
1510.5999755859375
 20
87.214729309082031
 42
-0.46467694640159607
  0
VERTEX
  8
0
 10
1510.5999755859375
 20
113.03911590576172
 42
-0
  0
VERTEX
  8
0
 10
1510.5999755859375
 20
190.12692260742187
 42
-0
  0
VERTEX
  8
0
 10
1480.5999755859375
 20
190.12692260742187
 42
0
  0
VERTEX
  8
0
 10
1480.5999755859375
 20
113.03911590576172
 42
-0.46467694640159607
  0
VERTEX
  8
0
 10
1480.5999755859375
 20
87.214729309082031
 42
0
  0
SEQEND
  0
POLYLINE
  8
0
 10
0
 20
0
 39
0
 70
1
 66
1
  0
VERTEX
  8
0
 10
1495.5999755859375
 20
20.866842269897461
 42
-1
  0
VERTEX
  8
0
 10
1495.5999755859375
 20
38.866844177246094
 42
-1
  0
SEQEND
  0
POLYLINE
  8
0
 10
0
 20
0
 39
0
 70
1
 66
1
  0
VERTEX
  8
0
 10
1480.5999755859375
 20
200.18077087402344
 42
-0
  0
VERTEX
  8
0
 10
1510.5999755859375
 20
200.18077087402344
 42
-0
  0
VERTEX
  8
0
 10
1510.5999755859375
 20
277.26858520507812
 42
-0.46467694640159607
  0
VERTEX
  8
0
 10
1510.5999755859375
 20
303.09295654296875
 42
-0
  0
VERTEX
  8
0
 10
1510.5999755859375
 20
380.18075561523437
 42
-0
  0
VERTEX
  8
0
 10
1480.5999755859375
 20
380.18075561523437
 42
0
  0
VERTEX
  8
0
 10
1480.5999755859375
 20
303.09295654296875
 42
-0.46467694640159607
  0
VERTEX
  8
0
 10
1480.5999755859375
 20
277.26858520507812
 42
0
  0
SEQEND
  0
POLYLINE
  8
0
 10
0
 20
0
 39
0
 70
1
 66
1
  0
VERTEX
  8
0
 10
1495.5999755859375
 20
210.92068481445312
 42
-1
  0
VERTEX
  8
0
 10
1495.5999755859375
 20
228.92068481445312
 42
-1
  0
SEQEND
  0
POLYLINE
  8
0
 10
0
 20
0
 39
0
 70
1
 66
1
  0
VERTEX
  8
0
 10
1481.1961669921875
 20
390.234619140625
 42
-0
  0
VERTEX
  8
0
 10
1511.1961669921875
 20
390.234619140625
 42
-0
  0
VERTEX
  8
0
 10
1511.1961669921875
 20
467.32241821289062
 42
-0.46467694640159607
  0
VERTEX
  8
0
 10
1511.1961669921875
 20
493.14682006835937
 42
-0
  0
VERTEX
  8
0
 10
1511.1961669921875
 20
570.234619140625
 42
-0
  0
VERTEX
  8
0
 10
1481.1961669921875
 20
570.234619140625
 42
0
  0
VERTEX
  8
0
 10
1481.1961669921875
 20
493.14682006835937
 42
-0.46467694640159607
  0
VERTEX
  8
0
 10
1481.1961669921875
 20
467.32241821289062
 42
0
  0
SEQEND
  0
POLYLINE
  8
0
 10
0
 20
0
 39
0
 70
1
 66
1
  0
VERTEX
  8
0
 10
1496.1961669921875
 20
400.97454833984375
 42
-1
  0
VERTEX
  8
0
 10
1496.1961669921875
 20
418.97454833984375
 42
-1
  0
SEQEND
  0
POLYLINE
  8
0
 10
0
 20
0
 39
0
 70
1
 66
1
  0
VERTEX
  8
0
 10
1481.1961669921875
 20
580.2884521484375
 42
-0
  0
VERTEX
  8
0
 10
1511.1961669921875
 20
580.2884521484375
 42
-0
  0
VERTEX
  8
0
 10
1511.1961669921875
 20
657.37628173828125
 42
-0.46467694640159607
  0
VERTEX
  8
0
 10
1511.1961669921875
 20
683.20068359375
 42
-0
  0
VERTEX
  8
0
 10
1511.1961669921875
 20
760.2884521484375
 42
-0
  0
VERTEX
  8
0
 10
1481.1961669921875
 20
760.2884521484375
 42
0
  0
VERTEX
  8
0
 10
1481.1961669921875
 20
683.20068359375
 42
-0.46467694640159607
  0
VERTEX
  8
0
 10
1481.1961669921875
 20
657.37628173828125
 42
0
  0
SEQEND
  0
POLYLINE
  8
0
 10
0
 20
0
 39
0
 70
1
 66
1
  0
VERTEX
  8
0
 10
1496.1961669921875
 20
591.02838134765625
 42
-1
  0
VERTEX
  8
0
 10
1496.1961669921875
 20
609.02838134765625
 42
-1
  0
SEQEND
  0
POLYLINE
  8
0
 10
0
 20
0
 39
0
 70
1
 66
1
  0
VERTEX
  8
0
 10
1481.1961669921875
 20
770.34228515625
 42
-0
  0
VERTEX
  8
0
 10
1511.1961669921875
 20
770.34228515625
 42
-0
  0
VERTEX
  8
0
 10
1511.1961669921875
 20
847.43011474609375
 42
-0.46467694640159607
  0
VERTEX
  8
0
 10
1511.1961669921875
 20
873.2545166015625
 42
-0
  0
VERTEX
  8
0
 10
1511.1961669921875
 20
950.34228515625
 42
-0
  0
VERTEX
  8
0
 10
1481.1961669921875
 20
950.34228515625
 42
0
  0
VERTEX
  8
0
 10
1481.1961669921875
 20
873.2545166015625
 42
-0.46467694640159607
  0
VERTEX
  8
0
 10
1481.1961669921875
 20
847.43011474609375
 42
0
  0
SEQEND
  0
POLYLINE
  8
0
 10
0
 20
0
 39
0
 70
1
 66
1
  0
VERTEX
  8
0
 10
1496.1961669921875
 20
781.08221435546875
 42
-1
  0
VERTEX
  8
0
 10
1496.1961669921875
 20
799.08221435546875
 42
-1
  0
SEQEND
  0
ENDSEC
  0
EOF
