  0
SECTION
  2
ENTITIES
  0
POLYLINE
  8
0
 10
0
 20
0
 39
0
 70
1
 66
1
  0
VERTEX
  8
0
 10
0
 20
0
 42
-0
  0
VERTEX
  8
0
 10
6000
 20
0
 42
-0
  0
VERTEX
  8
0
 10
6000
 20
1500
 42
-0
  0
VERTEX
  8
0
 10
0
 20
1500
 42
-0
  0
SEQEND
  0
POLYLINE
  8
0
 10
0
 20
0
 39
0
 70
1
 66
1
  0
VERTEX
  8
0
 10
5812.828125
 20
1265.875
 42
0
  0
VERTEX
  8
0
 10
5927.072265625
 20
1265.875
 42
0.29410767555236816
  0
VERTEX
  8
0
 10
5945.279296875
 20
1277.59765625
 42
0
  0
VERTEX
  8
0
 10
5988.1572265625
 20
1371.9296875
 42
0.10706308484077454
  0
VERTEX
  8
0
 10
5989.9501953125
 20
1380.20703125
 42
-0
  0
VERTEX
  8
0
 10
5989.9501953125
 20
1465.875
 42
0.41421356797218323
  0
VERTEX
  8
0
 10
5969.9501953125
 20
1485.875
 42
-0
  0
VERTEX
  8
0
 10
5769.9501953125
 20
1485.875
 42
0.41421356797218323
  0
VERTEX
  8
0
 10
5749.9501953125
 20
1465.875
 42
0
  0
VERTEX
  8
0
 10
5749.9501953125
 20
1380.20703125
 42
0.10706308484077454
  0
VERTEX
  8
0
 10
5751.7431640625
 20
1371.9296875
 42
-0
  0
VERTEX
  8
0
 10
5794.62109375
 20
1277.59765625
 42
0.29410767555236816
  0
SEQEND
  0
POLYLINE
  8
0
 10
0
 20
0
 39
0
 70
1
 66
1
  0
VERTEX
  8
0
 10
5819.9501953125
 20
1390.875
 42
-1
  0
VERTEX
  8
0
 10
5919.9501953125
 20
1390.875
 42
-1
  0
SEQEND
  0
POLYLINE
  8
0
 10
0
 20
0
 39
0
 70
1
 66
1
  0
VERTEX
  8
0
 10
5927.072265625
 20
660.703125
 42
0
  0
VERTEX
  8
0
 10
5812.828125
 20
660.703125
 42
0.29410767555236816
  0
VERTEX
  8
0
 10
5794.62109375
 20
648.98046875
 42
0
  0
VERTEX
  8
0
 10
5751.7431640625
 20
554.6484375
 42
0.10706308484077454
  0
VERTEX
  8
0
 10
5749.9501953125
 20
546.37109375
 42
-0
  0
VERTEX
  8
0
 10
5749.94921875
 20
460.703125
 42
0.41421356797218323
  0
VERTEX
  8
0
 10
5769.94921875
 20
440.703125
 42
-0
  0
VERTEX
  8
0
 10
5969.94921875
 20
440.703125
 42
0.41421356797218323
  0
VERTEX
  8
0
 10
5989.94921875
 20
460.703125
 42
0
  0
VERTEX
  8
0
 10
5989.9501953125
 20
546.37109375
 42
0.10706308484077454
  0
VERTEX
  8
0
 10
5988.1572265625
 20
554.6484375
 42
-0
  0
VERTEX
  8
0
 10
5945.279296875
 20
648.98046875
 42
0.29410767555236816
  0
SEQEND
  0
POLYLINE
  8
0
 10
0
 20
0
 39
0
 70
1
 66
1
  0
VERTEX
  8
0
 10
5919.94921875
 20
535.703125
 42
-1
  0
VERTEX
  8
0
 10
5819.94921875
 20
535.703125
 42
-1
  0
SEQEND
  0
POLYLINE
  8
0
 10
0
 20
0
 39
0
 70
1
 66
1
  0
VERTEX
  8
0
 10
5812.828125
 20
210.65234375
 42
0
  0
VERTEX
  8
0
 10
5927.072265625
 20
210.65234375
 42
0.29410767555236816
  0
VERTEX
  8
0
 10
5945.279296875
 20
222.375
 42
0
  0
VERTEX
  8
0
 10
5988.1572265625
 20
316.70703125
 42
0.10706308484077454
  0
VERTEX
  8
0
 10
5989.9501953125
 20
324.984375
 42
-0
  0
VERTEX
  8
0
 10
5989.9501953125
 20
410.65234375
 42
0.41421356797218323
  0
VERTEX
  8
0
 10
5969.9501953125
 20
430.65234375
 42
-0
  0
VERTEX
  8
0
 10
5769.9501953125
 20
430.65234375
 42
0.41421356797218323
  0
VERTEX
  8
0
 10
5749.9501953125
 20
410.65234375
 42
0
  0
VERTEX
  8
0
 10
5749.9501953125
 20
324.984375
 42
0.10706308484077454
  0
VERTEX
  8
0
 10
5751.7431640625
 20
316.70703125
 42
-0
  0
VERTEX
  8
0
 10
5794.62109375
 20
222.375
 42
0.29410767555236816
  0
SEQEND
  0
POLYLINE
  8
0
 10
0
 20
0
 39
0
 70
1
 66
1
  0
VERTEX
  8
0
 10
5819.9501953125
 20
335.65234375
 42
-1
  0
VERTEX
  8
0
 10
5919.9501953125
 20
335.65234375
 42
-1
  0
SEQEND
  0
POLYLINE
  8
0
 10
0
 20
0
 39
0
 70
1
 66
1
  0
VERTEX
  8
0
 10
1402.3125
 20
424.609375
 42
-0
  0
VERTEX
  8
0
 10
1566.181640625
 20
571.390625
 42
-0
  0
VERTEX
  8
0
 10
1574.19140625
 20
562.453125
 42
-0
  0
VERTEX
  8
0
 10
1689.646484375
 20
665.875
 42
0.62975972890853882
  0
VERTEX
  8
0
 10
1500.326171875
 20
1315.2265625
 42
-0
  0
VERTEX
  8
0
 10
1419.708984375
 20
1328.4921875
 42
-0.19975088536739349
  0
VERTEX
  8
0
 10
1387.111328125
 20
1348.8125
 42
-0
  0
VERTEX
  8
0
 10
1338.125
 20
1417.5546875
 42
0.31490704417228699
  0
VERTEX
  8
0
 10
1284.13671875
 20
1436.75
 42
-0
  0
VERTEX
  8
0
 10
850.88671875
 20
1317.4921875
 42
-0
  0
VERTEX
  8
0
 10
835.990234375
 20
1304.1484375
 42
-0
  0
VERTEX
  8
0
 10
866.015625
 20
1270.6328125
 42
-0
  0
VERTEX
  8
0
 10
1034.298828125
 20
1240.1328125
 42
-0
  0
VERTEX
  8
0
 10
1174.484375
 20
956.234375
 42
-0
  0
VERTEX
  8
0
 10
1283.98046875
 20
1054.3125
 42
-0
  0
VERTEX
  8
0
 10
1391.63671875
 20
436.52734375
 42
-0
  0
SEQEND
  0
POLYLINE
  8
0
 10
0
 20
0
 39
0
 70
1
 66
1
  0
VERTEX
  8
0
 10
1278.783203125
 20
1371.859375
 42
-1
  0
VERTEX
  8
0
 10
1316.02734375
 20
1405.21875
 42
-1
  0
SEQEND
  0
POLYLINE
  8
0
 10
0
 20
0
 39
0
 70
1
 66
1
  0
VERTEX
  8
0
 10
576.3720703125
 20
424.609375
 42
-0
  0
VERTEX
  8
0
 10
740.2412109375
 20
571.390625
 42
-0
  0
VERTEX
  8
0
 10
748.2509765625
 20
562.453125
 42
-0
  0
VERTEX
  8
0
 10
863.7060546875
 20
665.875
 42
0.62975972890853882
  0
VERTEX
  8
0
 10
674.3857421875
 20
1315.2265625
 42
-0
  0
VERTEX
  8
0
 10
593.7685546875
 20
1328.4921875
 42
-0.19975088536739349
  0
VERTEX
  8
0
 10
561.1708984375
 20
1348.8125
 42
-0
  0
VERTEX
  8
0
 10
512.1845703125
 20
1417.5546875
 42
0.31490704417228699
  0
VERTEX
  8
0
 10
458.1962890625
 20
1436.75
 42
-0
  0
VERTEX
  8
0
 10
24.9462890625
 20
1317.4921875
 42
-0
  0
VERTEX
  8
0
 10
10.0498046875
 20
1304.1484375
 42
-0
  0
VERTEX
  8
0
 10
40.0751953125
 20
1270.6328125
 42
-0
  0
VERTEX
  8
0
 10
208.3583984375
 20
1240.1328125
 42
-0
  0
VERTEX
  8
0
 10
348.5439453125
 20
956.234375
 42
-0
  0
VERTEX
  8
0
 10
458.0400390625
 20
1054.3125
 42
-0
  0
VERTEX
  8
0
 10
565.6962890625
 20
436.52734375
 42
-0
  0
SEQEND
  0
POLYLINE
  8
0
 10
0
 20
0
 39
0
 70
1
 66
1
  0
VERTEX
  8
0
 10
452.8427734375
 20
1371.859375
 42
-1
  0
VERTEX
  8
0
 10
490.0869140625
 20
1405.21875
 42
-1
  0
SEQEND
  0
POLYLINE
  8
0
 10
0
 20
0
 39
0
 70
1
 66
1
  0
VERTEX
  8
0
 10
2095.0107421875
 20
1023.984375
 42
-0
  0
VERTEX
  8
0
 10
1931.1416015625
 20
877.19921875
 42
-0
  0
VERTEX
  8
0
 10
1923.1318359375
 20
886.13671875
 42
-0
  0
VERTEX
  8
0
 10
1807.6767578125
 20
782.71875
 42
0.62975972890853882
  0
VERTEX
  8
0
 10
1996.9951171875
 20
133.3671875
 42
-0
  0
VERTEX
  8
0
 10
2077.6103515625
 20
120.1015625
 42
-0.19975088536739349
  0
VERTEX
  8
0
 10
2110.2099609375
 20
99.78125
 42
-0
  0
VERTEX
  8
0
 10
2159.1962890625
 20
31.03515625
 42
0.31490704417228699
  0
VERTEX
  8
0
 10
2213.1845703125
 20
11.84375
 42
-0
  0
VERTEX
  8
0
 10
2646.4326171875
 20
131.09375
 42
-0
  0
VERTEX
  8
0
 10
2661.3310546875
 20
144.4375
 42
-0
  0
VERTEX
  8
0
 10
2631.3076171875
 20
177.9609375
 42
-0
  0
VERTEX
  8
0
 10
2463.0205078125
 20
208.4609375
 42
-0
  0
VERTEX
  8
0
 10
2322.8369140625
 20
492.359375
 42
-0
  0
VERTEX
  8
0
 10
2213.3408203125
 20
394.28125
 42
-0
  0
VERTEX
  8
0
 10
2105.6865234375
 20
1012.0625
 42
-0
  0
SEQEND
  0
POLYLINE
  8
0
 10
0
 20
0
 39
0
 70
1
 66
1
  0
VERTEX
  8
0
 10
2218.5380859375
 20
76.734375
 42
-1
  0
VERTEX
  8
0
 10
2181.2939453125
 20
43.37109375
 42
-1
  0
SEQEND
  0
POLYLINE
  8
0
 10
0
 20
0
 39
0
 70
1
 66
1
  0
VERTEX
  8
0
 10
2228.25
 20
424.609375
 42
-0
  0
VERTEX
  8
0
 10
2392.119140625
 20
571.390625
 42
-0
  0
VERTEX
  8
0
 10
2400.12890625
 20
562.453125
 42
-0
  0
VERTEX
  8
0
 10
2515.583984375
 20
665.875
 42
0.62975972890853882
  0
VERTEX
  8
0
 10
2326.263671875
 20
1315.2265625
 42
-0
  0
VERTEX
  8
0
 10
2245.646484375
 20
1328.4921875
 42
-0.19975088536739349
  0
VERTEX
  8
0
 10
2213.048828125
 20
1348.8125
 42
-0
  0
VERTEX
  8
0
 10
2164.0625
 20
1417.5546875
 42
0.31490704417228699
  0
VERTEX
  8
0
 10
2110.07421875
 20
1436.75
 42
-0
  0
VERTEX
  8
0
 10
1676.82421875
 20
1317.4921875
 42
-0
  0
VERTEX
  8
0
 10
1661.927734375
 20
1304.1484375
 42
-0
  0
VERTEX
  8
0
 10
1691.953125
 20
1270.6328125
 42
-0
  0
VERTEX
  8
0
 10
1860.236328125
 20
1240.1328125
 42
-0
  0
VERTEX
  8
0
 10
2000.421875
 20
956.234375
 42
-0
  0
VERTEX
  8
0
 10
2109.91796875
 20
1054.3125
 42
-0
  0
VERTEX
  8
0
 10
2217.57421875
 20
436.52734375
 42
-0
  0
SEQEND
  0
POLYLINE
  8
0
 10
0
 20
0
 39
0
 70
1
 66
1
  0
VERTEX
  8
0
 10
2104.720703125
 20
1371.859375
 42
-1
  0
VERTEX
  8
0
 10
2141.96484375
 20
1405.21875
 42
-1
  0
SEQEND
  0
POLYLINE
  8
0
 10
0
 20
0
 39
0
 70
1
 66
1
  0
VERTEX
  8
0
 10
2920.9541015625
 20
1023.98828125
 42
-0
  0
VERTEX
  8
0
 10
2757.0849609375
 20
877.203125
 42
-0
  0
VERTEX
  8
0
 10
2749.0751953125
 20
886.140625
 42
-0
  0
VERTEX
  8
0
 10
2633.6201171875
 20
782.72265625
 42
0.62975972890853882
  0
VERTEX
  8
0
 10
2822.9384765625
 20
133.37109375
 42
-0
  0
VERTEX
  8
0
 10
2903.5537109375
 20
120.10546875
 42
-0.19975088536739349
  0
VERTEX
  8
0
 10
2936.1533203125
 20
99.78515625
 42
-0
  0
VERTEX
  8
0
 10
2985.1396484375
 20
31.0390625
 42
0.31490704417228699
  0
VERTEX
  8
0
 10
3039.1279296875
 20
11.84765625
 42
-0
  0
VERTEX
  8
0
 10
3472.3759765625
 20
131.09765625
 42
-0
  0
VERTEX
  8
0
 10
3487.2744140625
 20
144.44140625
 42
-0
  0
VERTEX
  8
0
 10
3457.2509765625
 20
177.96484375
 42
-0
  0
VERTEX
  8
0
 10
3288.9638671875
 20
208.46484375
 42
-0
  0
VERTEX
  8
0
 10
3148.7802734375
 20
492.36328125
 42
-0
  0
VERTEX
  8
0
 10
3039.2841796875
 20
394.28515625
 42
-0
  0
VERTEX
  8
0
 10
2931.6298828125
 20
1012.06640625
 42
-0
  0
SEQEND
  0
POLYLINE
  8
0
 10
0
 20
0
 39
0
 70
1
 66
1
  0
VERTEX
  8
0
 10
3044.4814453125
 20
76.73828125
 42
-1
  0
VERTEX
  8
0
 10
3007.2373046875
 20
43.375
 42
-1
  0
SEQEND
  0
POLYLINE
  8
0
 10
0
 20
0
 39
0
 70
1
 66
1
  0
VERTEX
  8
0
 10
3054.193359375
 20
424.61328125
 42
-0
  0
VERTEX
  8
0
 10
3218.0625
 20
571.39453125
 42
-0
  0
VERTEX
  8
0
 10
3226.072265625
 20
562.45703125
 42
-0
  0
VERTEX
  8
0
 10
3341.52734375
 20
665.87890625
 42
0.62975972890853882
  0
VERTEX
  8
0
 10
3152.20703125
 20
1315.23046875
 42
-0
  0
VERTEX
  8
0
 10
3071.58984375
 20
1328.49609375
 42
-0.19975088536739349
  0
VERTEX
  8
0
 10
3038.9921875
 20
1348.81640625
 42
-0
  0
VERTEX
  8
0
 10
2990.005859375
 20
1417.55859375
 42
0.31490704417228699
  0
VERTEX
  8
0
 10
2936.017578125
 20
1436.75390625
 42
-0
  0
VERTEX
  8
0
 10
2502.767578125
 20
1317.49609375
 42
-0
  0
VERTEX
  8
0
 10
2487.87109375
 20
1304.15234375
 42
-0
  0
VERTEX
  8
0
 10
2517.896484375
 20
1270.63671875
 42
-0
  0
VERTEX
  8
0
 10
2686.1796875
 20
1240.13671875
 42
-0
  0
VERTEX
  8
0
 10
2826.365234375
 20
956.23828125
 42
-0
  0
VERTEX
  8
0
 10
2935.861328125
 20
1054.31640625
 42
-0
  0
VERTEX
  8
0
 10
3043.517578125
 20
436.53125
 42
-0
  0
SEQEND
  0
POLYLINE
  8
0
 10
0
 20
0
 39
0
 70
1
 66
1
  0
VERTEX
  8
0
 10
2930.6640625
 20
1371.86328125
 42
-1
  0
VERTEX
  8
0
 10
2967.908203125
 20
1405.22265625
 42
-1
  0
SEQEND
  0
POLYLINE
  8
0
 10
0
 20
0
 39
0
 70
1
 66
1
  0
VERTEX
  8
0
 10
3746.8974609375
 20
1023.98828125
 42
-0
  0
VERTEX
  8
0
 10
3583.0283203125
 20
877.203125
 42
-0
  0
VERTEX
  8
0
 10
3575.0185546875
 20
886.140625
 42
-0
  0
VERTEX
  8
0
 10
3459.5634765625
 20
782.72265625
 42
0.62975972890853882
  0
VERTEX
  8
0
 10
3648.8818359375
 20
133.37109375
 42
-0
  0
VERTEX
  8
0
 10
3729.4970703125
 20
120.10546875
 42
-0.19975088536739349
  0
VERTEX
  8
0
 10
3762.0966796875
 20
99.78515625
 42
-0
  0
VERTEX
  8
0
 10
3811.0830078125
 20
31.0390625
 42
0.31490704417228699
  0
VERTEX
  8
0
 10
3865.0712890625
 20
11.84765625
 42
-0
  0
VERTEX
  8
0
 10
4298.3193359375
 20
131.09765625
 42
-0
  0
VERTEX
  8
0
 10
4313.2177734375
 20
144.44140625
 42
-0
  0
VERTEX
  8
0
 10
4283.1943359375
 20
177.96484375
 42
-0
  0
VERTEX
  8
0
 10
4114.9072265625
 20
208.46484375
 42
-0
  0
VERTEX
  8
0
 10
3974.7236328125
 20
492.36328125
 42
-0
  0
VERTEX
  8
0
 10
3865.2275390625
 20
394.28515625
 42
-0
  0
VERTEX
  8
0
 10
3757.5732421875
 20
1012.06640625
 42
-0
  0
SEQEND
  0
POLYLINE
  8
0
 10
0
 20
0
 39
0
 70
1
 66
1
  0
VERTEX
  8
0
 10
3870.4248046875
 20
76.73828125
 42
-1
  0
VERTEX
  8
0
 10
3833.1806640625
 20
43.375
 42
-1
  0
SEQEND
  0
POLYLINE
  8
0
 10
0
 20
0
 39
0
 70
1
 66
1
  0
VERTEX
  8
0
 10
3880.13671875
 20
424.61328125
 42
-0
  0
VERTEX
  8
0
 10
4044.005859375
 20
571.39453125
 42
-0
  0
VERTEX
  8
0
 10
4052.015625
 20
562.45703125
 42
-0
  0
VERTEX
  8
0
 10
4167.470703125
 20
665.87890625
 42
0.62975972890853882
  0
VERTEX
  8
0
 10
3978.150390625
 20
1315.23046875
 42
-0
  0
VERTEX
  8
0
 10
3897.533203125
 20
1328.49609375
 42
-0.19975088536739349
  0
VERTEX
  8
0
 10
3864.935546875
 20
1348.81640625
 42
-0
  0
VERTEX
  8
0
 10
3815.94921875
 20
1417.55859375
 42
0.31490704417228699
  0
VERTEX
  8
0
 10
3761.9609375
 20
1436.75390625
 42
-0
  0
VERTEX
  8
0
 10
3328.7109375
 20
1317.49609375
 42
-0
  0
VERTEX
  8
0
 10
3313.814453125
 20
1304.15234375
 42
-0
  0
VERTEX
  8
0
 10
3343.83984375
 20
1270.63671875
 42
-0
  0
VERTEX
  8
0
 10
3512.123046875
 20
1240.13671875
 42
-0
  0
VERTEX
  8
0
 10
3652.30859375
 20
956.23828125
 42
-0
  0
VERTEX
  8
0
 10
3761.8046875
 20
1054.31640625
 42
-0
  0
VERTEX
  8
0
 10
3869.4609375
 20
436.53125
 42
-0
  0
SEQEND
  0
POLYLINE
  8
0
 10
0
 20
0
 39
0
 70
1
 66
1
  0
VERTEX
  8
0
 10
3756.607421875
 20
1371.86328125
 42
-1
  0
VERTEX
  8
0
 10
3793.8515625
 20
1405.22265625
 42
-1
  0
SEQEND
  0
POLYLINE
  8
0
 10
0
 20
0
 39
0
 70
1
 66
1
  0
VERTEX
  8
0
 10
1269.0732421875
 20
1023.984375
 42
-0
  0
VERTEX
  8
0
 10
1105.2041015625
 20
877.19921875
 42
-0
  0
VERTEX
  8
0
 10
1097.1943359375
 20
886.13671875
 42
-0
  0
VERTEX
  8
0
 10
981.7392578125
 20
782.71875
 42
0.62975972890853882
  0
VERTEX
  8
0
 10
1171.0576171875
 20
133.3671875
 42
-0
  0
VERTEX
  8
0
 10
1251.6728515625
 20
120.1015625
 42
-0.19975088536739349
  0
VERTEX
  8
0
 10
1284.2724609375
 20
99.78125
 42
-0
  0
VERTEX
  8
0
 10
1333.2587890625
 20
31.03515625
 42
0.31490704417228699
  0
VERTEX
  8
0
 10
1387.2470703125
 20
11.84375
 42
-0
  0
VERTEX
  8
0
 10
1820.4951171875
 20
131.09375
 42
-0
  0
VERTEX
  8
0
 10
1835.3935546875
 20
144.4375
 42
-0
  0
VERTEX
  8
0
 10
1805.3701171875
 20
177.9609375
 42
-0
  0
VERTEX
  8
0
 10
1637.0830078125
 20
208.4609375
 42
-0
  0
VERTEX
  8
0
 10
1496.8994140625
 20
492.359375
 42
-0
  0
VERTEX
  8
0
 10
1387.4033203125
 20
394.28125
 42
-0
  0
VERTEX
  8
0
 10
1279.7490234375
 20
1012.0625
 42
-0
  0
SEQEND
  0
POLYLINE
  8
0
 10
0
 20
0
 39
0
 70
1
 66
1
  0
VERTEX
  8
0
 10
1392.6005859375
 20
76.734375
 42
-1
  0
VERTEX
  8
0
 10
1355.3564453125
 20
43.37109375
 42
-1
  0
SEQEND
  0
POLYLINE
  8
0
 10
0
 20
0
 39
0
 70
1
 66
1
  0
VERTEX
  8
0
 10
4572.8359375
 20
1023.984375
 42
-0
  0
VERTEX
  8
0
 10
4408.966796875
 20
877.19921875
 42
-0
  0
VERTEX
  8
0
 10
4400.95703125
 20
886.13671875
 42
-0
  0
VERTEX
  8
0
 10
4285.501953125
 20
782.71875
 42
0.62975972890853882
  0
VERTEX
  8
0
 10
4474.8203125
 20
133.3671875
 42
-0
  0
VERTEX
  8
0
 10
4555.435546875
 20
120.1015625
 42
-0.19975088536739349
  0
VERTEX
  8
0
 10
4588.03515625
 20
99.78125
 42
-0
  0
VERTEX
  8
0
 10
4637.021484375
 20
31.03515625
 42
0.31490704417228699
  0
VERTEX
  8
0
 10
4691.009765625
 20
11.84375
 42
-0
  0
VERTEX
  8
0
 10
5124.2578125
 20
131.09375
 42
-0
  0
VERTEX
  8
0
 10
5139.15625
 20
144.4375
 42
-0
  0
VERTEX
  8
0
 10
5109.1328125
 20
177.9609375
 42
-0
  0
VERTEX
  8
0
 10
4940.845703125
 20
208.4609375
 42
-0
  0
VERTEX
  8
0
 10
4800.662109375
 20
492.359375
 42
-0
  0
VERTEX
  8
0
 10
4691.166015625
 20
394.28125
 42
-0
  0
VERTEX
  8
0
 10
4583.51171875
 20
1012.0625
 42
-0
  0
SEQEND
  0
POLYLINE
  8
0
 10
0
 20
0
 39
0
 70
1
 66
1
  0
VERTEX
  8
0
 10
4696.36328125
 20
76.734375
 42
-1
  0
VERTEX
  8
0
 10
4659.119140625
 20
43.37109375
 42
-1
  0
SEQEND
  0
POLYLINE
  8
0
 10
0
 20
0
 39
0
 70
1
 66
1
  0
VERTEX
  8
0
 10
4706.076171875
 20
424.609375
 42
-0
  0
VERTEX
  8
0
 10
4869.9453125
 20
571.390625
 42
-0
  0
VERTEX
  8
0
 10
4877.955078125
 20
562.453125
 42
-0
  0
VERTEX
  8
0
 10
4993.41015625
 20
665.875
 42
0.62975972890853882
  0
VERTEX
  8
0
 10
4804.08984375
 20
1315.2265625
 42
-0
  0
VERTEX
  8
0
 10
4723.47265625
 20
1328.4921875
 42
-0.19975088536739349
  0
VERTEX
  8
0
 10
4690.875
 20
1348.8125
 42
-0
  0
VERTEX
  8
0
 10
4641.888671875
 20
1417.5546875
 42
0.31490704417228699
  0
VERTEX
  8
0
 10
4587.900390625
 20
1436.75
 42
-0
  0
VERTEX
  8
0
 10
4154.650390625
 20
1317.4921875
 42
-0
  0
VERTEX
  8
0
 10
4139.75390625
 20
1304.1484375
 42
-0
  0
VERTEX
  8
0
 10
4169.779296875
 20
1270.6328125
 42
-0
  0
VERTEX
  8
0
 10
4338.0625
 20
1240.1328125
 42
-0
  0
VERTEX
  8
0
 10
4478.248046875
 20
956.234375
 42
-0
  0
VERTEX
  8
0
 10
4587.744140625
 20
1054.3125
 42
-0
  0
VERTEX
  8
0
 10
4695.400390625
 20
436.52734375
 42
-0
  0
SEQEND
  0
POLYLINE
  8
0
 10
0
 20
0
 39
0
 70
1
 66
1
  0
VERTEX
  8
0
 10
4582.546875
 20
1371.859375
 42
-1
  0
VERTEX
  8
0
 10
4619.791015625
 20
1405.21875
 42
-1
  0
SEQEND
  0
POLYLINE
  8
0
 10
0
 20
0
 39
0
 70
1
 66
1
  0
VERTEX
  8
0
 10
5398.775390625
 20
1023.984375
 42
-0
  0
VERTEX
  8
0
 10
5234.90625
 20
877.19921875
 42
-0
  0
VERTEX
  8
0
 10
5226.896484375
 20
886.13671875
 42
-0
  0
VERTEX
  8
0
 10
5111.44140625
 20
782.71875
 42
0.62975972890853882
  0
VERTEX
  8
0
 10
5300.759765625
 20
133.3671875
 42
-0
  0
VERTEX
  8
0
 10
5381.375
 20
120.1015625
 42
-0.19975088536739349
  0
VERTEX
  8
0
 10
5413.974609375
 20
99.78125
 42
-0
  0
VERTEX
  8
0
 10
5462.9609375
 20
31.03515625
 42
0.31490704417228699
  0
VERTEX
  8
0
 10
5516.94921875
 20
11.84375
 42
-0
  0
VERTEX
  8
0
 10
5950.197265625
 20
131.09375
 42
-0
  0
VERTEX
  8
0
 10
5965.095703125
 20
144.4375
 42
-0
  0
VERTEX
  8
0
 10
5935.072265625
 20
177.9609375
 42
-0
  0
VERTEX
  8
0
 10
5766.78515625
 20
208.4609375
 42
-0
  0
VERTEX
  8
0
 10
5626.6015625
 20
492.359375
 42
-0
  0
VERTEX
  8
0
 10
5517.10546875
 20
394.28125
 42
-0
  0
VERTEX
  8
0
 10
5409.451171875
 20
1012.0625
 42
-0
  0
SEQEND
  0
POLYLINE
  8
0
 10
0
 20
0
 39
0
 70
1
 66
1
  0
VERTEX
  8
0
 10
5522.302734375
 20
76.734375
 42
-1
  0
VERTEX
  8
0
 10
5485.05859375
 20
43.37109375
 42
-1
  0
SEQEND
  0
POLYLINE
  8
0
 10
0
 20
0
 39
0
 70
1
 66
1
  0
VERTEX
  8
0
 10
443.13427734375
 20
1023.984375
 42
-0
  0
VERTEX
  8
0
 10
279.26513671875
 20
877.19921875
 42
-0
  0
VERTEX
  8
0
 10
271.25341796875
 20
886.1328125
 42
-0
  0
VERTEX
  8
0
 10
155.79833984375
 20
782.71875
 42
0.62975972890853882
  0
VERTEX
  8
0
 10
345.11865234375
 20
133.3671875
 42
-0
  0
VERTEX
  8
0
 10
425.73583984375
 20
120.1015625
 42
-0.19975088536739349
  0
VERTEX
  8
0
 10
458.33544921875
 20
99.78125
 42
-0
  0
VERTEX
  8
0
 10
507.32177734375
 20
31.03515625
 42
0.31490704417228699
  0
VERTEX
  8
0
 10
561.31005859375
 20
11.84375
 42
-0
  0
VERTEX
  8
0
 10
994.55615234375
 20
131.09375
 42
-0
  0
VERTEX
  8
0
 10
1009.45458984375
 20
144.4375
 42
-0
  0
VERTEX
  8
0
 10
979.43115234375
 20
177.9609375
 42
-0
  0
VERTEX
  8
0
 10
811.14599609375
 20
208.4609375
 42
-0
  0
VERTEX
  8
0
 10
670.96044921875
 20
492.359375
 42
-0
  0
VERTEX
  8
0
 10
561.46435546875
 20
394.28125
 42
-0
  0
VERTEX
  8
0
 10
453.80810546875
 20
1012.0625
 42
-0
  0
SEQEND
  0
POLYLINE
  8
0
 10
0
 20
0
 39
0
 70
1
 66
1
  0
VERTEX
  8
0
 10
566.65966796875
 20
76.73046875
 42
-1
  0
VERTEX
  8
0
 10
529.41748046875
 20
43.37109375
 42
-1
  0
SEQEND
  0
POLYLINE
  8
0
 10
0
 20
0
 39
0
 70
1
 66
1
  0
VERTEX
  8
0
 10
5527.6357421875
 20
445.08984375
 42
-0
  0
VERTEX
  8
0
 10
5691.5048828125
 20
591.87109375
 42
-0
  0
VERTEX
  8
0
 10
5699.5146484375
 20
582.93359375
 42
-0
  0
VERTEX
  8
0
 10
5814.9697265625
 20
686.35546875
 42
0.62975972890853882
  0
VERTEX
  8
0
 10
5625.6494140625
 20
1335.70703125
 42
-0
  0
VERTEX
  8
0
 10
5545.0322265625
 20
1348.97265625
 42
-0.19975088536739349
  0
VERTEX
  8
0
 10
5512.4345703125
 20
1369.29296875
 42
-0
  0
VERTEX
  8
0
 10
5463.4482421875
 20
1438.03515625
 42
0.31490704417228699
  0
VERTEX
  8
0
 10
5409.4599609375
 20
1457.23046875
 42
-0
  0
VERTEX
  8
0
 10
4976.2099609375
 20
1337.97265625
 42
-0
  0
VERTEX
  8
0
 10
4961.3134765625
 20
1324.62890625
 42
-0
  0
VERTEX
  8
0
 10
4991.3388671875
 20
1291.11328125
 42
-0
  0
VERTEX
  8
0
 10
5159.6220703125
 20
1260.61328125
 42
-0
  0
VERTEX
  8
0
 10
5299.8076171875
 20
976.71484375
 42
-0
  0
VERTEX
  8
0
 10
5409.3037109375
 20
1074.79296875
 42
-0
  0
VERTEX
  8
0
 10
5516.9599609375
 20
457.0078125
 42
-0
  0
SEQEND
  0
POLYLINE
  8
0
 10
0
 20
0
 39
0
 70
1
 66
1
  0
VERTEX
  8
0
 10
5404.1064453125
 20
1392.33984375
 42
-1
  0
VERTEX
  8
0
 10
5441.3505859375
 20
1425.69921875
 42
-1
  0
SEQEND
  0
POLYLINE
  8
0
 10
0
 20
0
 39
0
 70
1
 66
1
  0
VERTEX
  8
0
 10
267.55078125
 20
10.0498046875
 42
1
  0
VERTEX
  8
0
 10
267.55078125
 20
65.0498046875
 42
-0
  0
VERTEX
  8
0
 10
37.55078125
 20
65.0498046875
 42
0.32588791847229004
  0
VERTEX
  8
0
 10
11.3671875
 20
45.9560546875
 42
0.50842314958572388
  0
VERTEX
  8
0
 10
37.55078125
 20
10.0498046875
 42
-0
  0
SEQEND
  0
POLYLINE
  8
0
 10
0
 20
0
 39
0
 70
1
 66
1
  0
VERTEX
  8
0
 10
22.55078125
 20
37.5498046875
 42
-1
  0
VERTEX
  8
0
 10
52.55078125
 20
37.5498046875
 42
-1
  0
SEQEND
  0
POLYLINE
  8
0
 10
0
 20
0
 39
0
 70
1
 66
1
  0
VERTEX
  8
0
 10
252.55078125
 20
37.5498046875
 42
-1
  0
VERTEX
  8
0
 10
282.55078125
 20
37.5498046875
 42
-1
  0
SEQEND
  0
POLYLINE
  8
0
 10
0
 20
0
 39
0
 70
1
 66
1
  0
VERTEX
  8
0
 10
267.55078125
 20
75.099609375
 42
1
  0
VERTEX
  8
0
 10
267.55078125
 20
130.099609375
 42
-0
  0
VERTEX
  8
0
 10
37.55078125
 20
130.099609375
 42
0.32588791847229004
  0
VERTEX
  8
0
 10
11.3671875
 20
111.005859375
 42
0.50842314958572388
  0
VERTEX
  8
0
 10
37.55078125
 20
75.099609375
 42
-0
  0
SEQEND
  0
POLYLINE
  8
0
 10
0
 20
0
 39
0
 70
1
 66
1
  0
VERTEX
  8
0
 10
22.55078125
 20
102.599609375
 42
-1
  0
VERTEX
  8
0
 10
52.55078125
 20
102.599609375
 42
-1
  0
SEQEND
  0
POLYLINE
  8
0
 10
0
 20
0
 39
0
 70
1
 66
1
  0
VERTEX
  8
0
 10
252.55078125
 20
102.599609375
 42
-1
  0
VERTEX
  8
0
 10
282.55078125
 20
102.599609375
 42
-1
  0
SEQEND
  0
POLYLINE
  8
0
 10
0
 20
0
 39
0
 70
1
 66
1
  0
VERTEX
  8
0
 10
10.0498046875
 20
688.91015625
 42
1
  0
VERTEX
  8
0
 10
65.0498046875
 20
688.91015625
 42
-0
  0
VERTEX
  8
0
 10
65.0498046875
 20
918.91015625
 42
0.32588791847229004
  0
VERTEX
  8
0
 10
45.9560546875
 20
945.09375
 42
0.50842314958572388
  0
VERTEX
  8
0
 10
10.0498046875
 20
918.91015625
 42
-0
  0
SEQEND
  0
POLYLINE
  8
0
 10
0
 20
0
 39
0
 70
1
 66
1
  0
VERTEX
  8
0
 10
37.5498046875
 20
933.91015625
 42
-1
  0
VERTEX
  8
0
 10
37.5498046875
 20
903.91015625
 42
-1
  0
SEQEND
  0
POLYLINE
  8
0
 10
0
 20
0
 39
0
 70
1
 66
1
  0
VERTEX
  8
0
 10
37.5498046875
 20
703.91015625
 42
-1
  0
VERTEX
  8
0
 10
37.5498046875
 20
673.91015625
 42
-1
  0
SEQEND
  0
POLYLINE
  8
0
 10
0
 20
0
 39
0
 70
1
 66
1
  0
VERTEX
  8
0
 10
4094.802734375
 20
271.8681640625
 42
1
  0
VERTEX
  8
0
 10
4144.119140625
 20
296.21875
 42
-0
  0
VERTEX
  8
0
 10
4042.287109375
 20
502.447265625
 42
0.32588791847229004
  0
VERTEX
  8
0
 10
4013.576171875
 20
517.4697265625
 42
0.50842314958572388
  0
VERTEX
  8
0
 10
3992.970703125
 20
478.0966796875
 42
-0
  0
SEQEND
  0
POLYLINE
  8
0
 10
0
 20
0
 39
0
 70
1
 66
1
  0
VERTEX
  8
0
 10
4010.990234375
 20
503.7216796875
 42
-1
  0
VERTEX
  8
0
 10
4024.271484375
 20
476.8232421875
 42
-1
  0
SEQEND
  0
POLYLINE
  8
0
 10
0
 20
0
 39
0
 70
1
 66
1
  0
VERTEX
  8
0
 10
4112.8203125
 20
297.4931640625
 42
-1
  0
VERTEX
  8
0
 10
4126.103515625
 20
270.5927734375
 42
-1
  0
SEQEND
  0
POLYLINE
  8
0
 10
0
 20
0
 39
0
 70
1
 66
1
  0
VERTEX
  8
0
 10
1619.255859375
 20
281.013671875
 42
1
  0
VERTEX
  8
0
 10
1668.572265625
 20
305.3642578125
 42
-0
  0
VERTEX
  8
0
 10
1566.740234375
 20
511.5927734375
 42
0.32588791847229004
  0
VERTEX
  8
0
 10
1538.029296875
 20
526.615234375
 42
0.50842314958572388
  0
VERTEX
  8
0
 10
1517.423828125
 20
487.2421875
 42
-0
  0
SEQEND
  0
POLYLINE
  8
0
 10
0
 20
0
 39
0
 70
1
 66
1
  0
VERTEX
  8
0
 10
1535.443359375
 20
512.8671875
 42
-1
  0
VERTEX
  8
0
 10
1548.724609375
 20
485.96875
 42
-1
  0
SEQEND
  0
POLYLINE
  8
0
 10
0
 20
0
 39
0
 70
1
 66
1
  0
VERTEX
  8
0
 10
1637.2734375
 20
306.638671875
 42
-1
  0
VERTEX
  8
0
 10
1650.556640625
 20
279.73828125
 42
-1
  0
SEQEND
  0
POLYLINE
  8
0
 10
0
 20
0
 39
0
 70
1
 66
1
  0
VERTEX
  8
0
 10
4329.806640625
 20
10.0498046875
 42
1
  0
VERTEX
  8
0
 10
4329.806640625
 20
65.0498046875
 42
-0
  0
VERTEX
  8
0
 10
4099.806640625
 20
65.0498046875
 42
0.32588791847229004
  0
VERTEX
  8
0
 10
4073.623046875
 20
45.9560546875
 42
0.50842314958572388
  0
VERTEX
  8
0
 10
4099.806640625
 20
10.0498046875
 42
-0
  0
SEQEND
  0
POLYLINE
  8
0
 10
0
 20
0
 39
0
 70
1
 66
1
  0
VERTEX
  8
0
 10
4084.806640625
 20
37.5498046875
 42
-1
  0
VERTEX
  8
0
 10
4114.806640625
 20
37.5498046875
 42
-1
  0
SEQEND
  0
POLYLINE
  8
0
 10
0
 20
0
 39
0
 70
1
 66
1
  0
VERTEX
  8
0
 10
4314.806640625
 20
37.5498046875
 42
-1
  0
VERTEX
  8
0
 10
4344.806640625
 20
37.5498046875
 42
-1
  0
SEQEND
  0
POLYLINE
  8
0
 10
0
 20
0
 39
0
 70
1
 66
1
  0
VERTEX
  8
0
 10
1851.99609375
 20
10.0498046875
 42
1
  0
VERTEX
  8
0
 10
1851.99609375
 20
65.0498046875
 42
-0
  0
VERTEX
  8
0
 10
1621.99609375
 20
65.0498046875
 42
0.32588791847229004
  0
VERTEX
  8
0
 10
1595.8125
 20
45.9560546875
 42
0.50842314958572388
  0
VERTEX
  8
0
 10
1621.99609375
 20
10.0498046875
 42
-0
  0
SEQEND
  0
POLYLINE
  8
0
 10
0
 20
0
 39
0
 70
1
 66
1
  0
VERTEX
  8
0
 10
1606.99609375
 20
37.5498046875
 42
-1
  0
VERTEX
  8
0
 10
1636.99609375
 20
37.5498046875
 42
-1
  0
SEQEND
  0
POLYLINE
  8
0
 10
0
 20
0
 39
0
 70
1
 66
1
  0
VERTEX
  8
0
 10
1836.99609375
 20
37.5498046875
 42
-1
  0
VERTEX
  8
0
 10
1866.99609375
 20
37.5498046875
 42
-1
  0
SEQEND
  0
POLYLINE
  8
0
 10
0
 20
0
 39
0
 70
1
 66
1
  0
VERTEX
  8
0
 10
4394.201171875
 20
979.525390625
 42
1
  0
VERTEX
  8
0
 10
4443.517578125
 20
1003.876953125
 42
-0
  0
VERTEX
  8
0
 10
4341.685546875
 20
1210.10546875
 42
0.32588791847229004
  0
VERTEX
  8
0
 10
4312.97265625
 20
1225.1298828125
 42
0.50842314958572388
  0
VERTEX
  8
0
 10
4292.369140625
 20
1185.75390625
 42
-0
  0
SEQEND
  0
POLYLINE
  8
0
 10
0
 20
0
 39
0
 70
1
 66
1
  0
VERTEX
  8
0
 10
4310.388671875
 20
1211.380859375
 42
-1
  0
VERTEX
  8
0
 10
4323.669921875
 20
1184.48046875
 42
-1
  0
SEQEND
  0
POLYLINE
  8
0
 10
0
 20
0
 39
0
 70
1
 66
1
  0
VERTEX
  8
0
 10
4412.220703125
 20
1005.15234375
 42
-1
  0
VERTEX
  8
0
 10
4425.501953125
 20
978.251953125
 42
-1
  0
SEQEND
  0
POLYLINE
  8
0
 10
0
 20
0
 39
0
 70
1
 66
1
  0
VERTEX
  8
0
 10
2755.455078125
 20
952.92578125
 42
1
  0
VERTEX
  8
0
 10
2804.771484375
 20
977.27734375
 42
-0
  0
VERTEX
  8
0
 10
2702.939453125
 20
1183.505859375
 42
0.32588791847229004
  0
VERTEX
  8
0
 10
2674.2265625
 20
1198.5302734375
 42
0.50842314958572388
  0
VERTEX
  8
0
 10
2653.623046875
 20
1159.154296875
 42
-0
  0
SEQEND
  0
POLYLINE
  8
0
 10
0
 20
0
 39
0
 70
1
 66
1
  0
VERTEX
  8
0
 10
2671.642578125
 20
1184.78125
 42
-1
  0
VERTEX
  8
0
 10
2684.923828125
 20
1157.880859375
 42
-1
  0
SEQEND
  0
POLYLINE
  8
0
 10
0
 20
0
 39
0
 70
1
 66
1
  0
VERTEX
  8
0
 10
2773.474609375
 20
978.552734375
 42
-1
  0
VERTEX
  8
0
 10
2786.755859375
 20
951.65234375
 42
-1
  0
SEQEND
  0
POLYLINE
  8
0
 10
0
 20
0
 39
0
 70
1
 66
1
  0
VERTEX
  8
0
 10
1105.41796875
 20
949.1904296875
 42
1
  0
VERTEX
  8
0
 10
1154.732421875
 20
973.5419921875
 42
-0
  0
VERTEX
  8
0
 10
1052.900390625
 20
1179.7705078125
 42
0.32588791847229004
  0
VERTEX
  8
0
 10
1024.189453125
 20
1194.7939453125
 42
0.50842314958572388
  0
VERTEX
  8
0
 10
1003.5859375
 20
1155.4189453125
 42
-0
  0
SEQEND
  0
POLYLINE
  8
0
 10
0
 20
0
 39
0
 70
1
 66
1
  0
VERTEX
  8
0
 10
1021.603515625
 20
1181.0439453125
 42
-1
  0
VERTEX
  8
0
 10
1034.884765625
 20
1154.1435546875
 42
-1
  0
SEQEND
  0
POLYLINE
  8
0
 10
0
 20
0
 39
0
 70
1
 66
1
  0
VERTEX
  8
0
 10
1123.435546875
 20
974.8154296875
 42
-1
  0
VERTEX
  8
0
 10
1136.716796875
 20
947.9150390625
 42
-1
  0
SEQEND
  0
POLYLINE
  8
0
 10
0
 20
0
 39
0
 70
1
 66
1
  0
VERTEX
  8
0
 10
4052.12109375
 20
1434.9501953125
 42
1
  0
VERTEX
  8
0
 10
4052.12109375
 20
1489.9501953125
 42
-0
  0
VERTEX
  8
0
 10
3822.12109375
 20
1489.9501953125
 42
0.32588791847229004
  0
VERTEX
  8
0
 10
3795.9375
 20
1470.8564453125
 42
0.50842314958572388
  0
VERTEX
  8
0
 10
3822.12109375
 20
1434.9501953125
 42
-0
  0
SEQEND
  0
POLYLINE
  8
0
 10
0
 20
0
 39
0
 70
1
 66
1
  0
VERTEX
  8
0
 10
3807.12109375
 20
1462.4501953125
 42
-1
  0
VERTEX
  8
0
 10
3837.12109375
 20
1462.4501953125
 42
-1
  0
SEQEND
  0
POLYLINE
  8
0
 10
0
 20
0
 39
0
 70
1
 66
1
  0
VERTEX
  8
0
 10
4037.12109375
 20
1462.4501953125
 42
-1
  0
VERTEX
  8
0
 10
4067.12109375
 20
1462.4501953125
 42
-1
  0
SEQEND
  0
POLYLINE
  8
0
 10
0
 20
0
 39
0
 70
1
 66
1
  0
VERTEX
  8
0
 10
3521.228515625
 20
1434.9501953125
 42
1
  0
VERTEX
  8
0
 10
3521.228515625
 20
1489.9501953125
 42
-0
  0
VERTEX
  8
0
 10
3291.228515625
 20
1489.9501953125
 42
0.32588791847229004
  0
VERTEX
  8
0
 10
3265.044921875
 20
1470.8564453125
 42
0.50842314958572388
  0
VERTEX
  8
0
 10
3291.228515625
 20
1434.9501953125
 42
-0
  0
SEQEND
  0
POLYLINE
  8
0
 10
0
 20
0
 39
0
 70
1
 66
1
  0
VERTEX
  8
0
 10
3276.228515625
 20
1462.4501953125
 42
-1
  0
VERTEX
  8
0
 10
3306.228515625
 20
1462.4501953125
 42
-1
  0
SEQEND
  0
POLYLINE
  8
0
 10
0
 20
0
 39
0
 70
1
 66
1
  0
VERTEX
  8
0
 10
3506.228515625
 20
1462.4501953125
 42
-1
  0
VERTEX
  8
0
 10
3536.228515625
 20
1462.4501953125
 42
-1
  0
SEQEND
  0
POLYLINE
  8
0
 10
0
 20
0
 39
0
 70
1
 66
1
  0
VERTEX
  8
0
 10
2454.521484375
 20
1369.900390625
 42
1
  0
VERTEX
  8
0
 10
2454.521484375
 20
1424.900390625
 42
-0
  0
VERTEX
  8
0
 10
2224.521484375
 20
1424.900390625
 42
0.32588791847229004
  0
VERTEX
  8
0
 10
2198.337890625
 20
1405.806640625
 42
0.50842314958572388
  0
VERTEX
  8
0
 10
2224.521484375
 20
1369.900390625
 42
-0
  0
SEQEND
  0
POLYLINE
  8
0
 10
0
 20
0
 39
0
 70
1
 66
1
  0
VERTEX
  8
0
 10
2209.521484375
 20
1397.400390625
 42
-1
  0
VERTEX
  8
0
 10
2239.521484375
 20
1397.400390625
 42
-1
  0
SEQEND
  0
POLYLINE
  8
0
 10
0
 20
0
 39
0
 70
1
 66
1
  0
VERTEX
  8
0
 10
2439.521484375
 20
1397.400390625
 42
-1
  0
VERTEX
  8
0
 10
2469.521484375
 20
1397.400390625
 42
-1
  0
SEQEND
  0
POLYLINE
  8
0
 10
0
 20
0
 39
0
 70
1
 66
1
  0
VERTEX
  8
0
 10
1869.341796875
 20
1434.9501953125
 42
1
  0
VERTEX
  8
0
 10
1869.341796875
 20
1489.9501953125
 42
-0
  0
VERTEX
  8
0
 10
1639.341796875
 20
1489.9501953125
 42
0.32588791847229004
  0
VERTEX
  8
0
 10
1613.158203125
 20
1470.8564453125
 42
0.50842314958572388
  0
VERTEX
  8
0
 10
1639.341796875
 20
1434.9501953125
 42
-0
  0
SEQEND
  0
POLYLINE
  8
0
 10
0
 20
0
 39
0
 70
1
 66
1
  0
VERTEX
  8
0
 10
1624.341796875
 20
1462.4501953125
 42
-1
  0
VERTEX
  8
0
 10
1654.341796875
 20
1462.4501953125
 42
-1
  0
SEQEND
  0
POLYLINE
  8
0
 10
0
 20
0
 39
0
 70
1
 66
1
  0
VERTEX
  8
0
 10
1854.341796875
 20
1462.4501953125
 42
-1
  0
VERTEX
  8
0
 10
1884.341796875
 20
1462.4501953125
 42
-1
  0
SEQEND
  0
POLYLINE
  8
0
 10
0
 20
0
 39
0
 70
1
 66
1
  0
VERTEX
  8
0
 10
1043.40234375
 20
1434.9501953125
 42
1
  0
VERTEX
  8
0
 10
1043.40234375
 20
1489.9501953125
 42
-0
  0
VERTEX
  8
0
 10
813.40234375
 20
1489.9501953125
 42
0.32588791847229004
  0
VERTEX
  8
0
 10
787.21875
 20
1470.8564453125
 42
0.50842314958572388
  0
VERTEX
  8
0
 10
813.40234375
 20
1434.9501953125
 42
-0
  0
SEQEND
  0
POLYLINE
  8
0
 10
0
 20
0
 39
0
 70
1
 66
1
  0
VERTEX
  8
0
 10
798.40234375
 20
1462.4501953125
 42
-1
  0
VERTEX
  8
0
 10
828.40234375
 20
1462.4501953125
 42
-1
  0
SEQEND
  0
POLYLINE
  8
0
 10
0
 20
0
 39
0
 70
1
 66
1
  0
VERTEX
  8
0
 10
1028.40234375
 20
1462.4501953125
 42
-1
  0
VERTEX
  8
0
 10
1058.40234375
 20
1462.4501953125
 42
-1
  0
SEQEND
  0
POLYLINE
  8
0
 10
0
 20
0
 39
0
 70
1
 66
1
  0
VERTEX
  8
0
 10
5063.150390625
 20
1414.7919921875
 42
1
  0
VERTEX
  8
0
 10
5063.150390625
 20
1469.7919921875
 42
-0
  0
VERTEX
  8
0
 10
4833.150390625
 20
1469.7919921875
 42
0.32588791847229004
  0
VERTEX
  8
0
 10
4806.966796875
 20
1450.6982421875
 42
0.50842314958572388
  0
VERTEX
  8
0
 10
4833.150390625
 20
1414.7919921875
 42
-0
  0
SEQEND
  0
POLYLINE
  8
0
 10
0
 20
0
 39
0
 70
1
 66
1
  0
VERTEX
  8
0
 10
4818.150390625
 20
1442.2919921875
 42
-1
  0
VERTEX
  8
0
 10
4848.150390625
 20
1442.2919921875
 42
-1
  0
SEQEND
  0
POLYLINE
  8
0
 10
0
 20
0
 39
0
 70
1
 66
1
  0
VERTEX
  8
0
 10
5048.150390625
 20
1442.2919921875
 42
-1
  0
VERTEX
  8
0
 10
5078.150390625
 20
1442.2919921875
 42
-1
  0
SEQEND
  0
POLYLINE
  8
0
 10
0
 20
0
 39
0
 70
1
 66
1
  0
VERTEX
  8
0
 10
3226.177734375
 20
1434.9501953125
 42
1
  0
VERTEX
  8
0
 10
3226.177734375
 20
1489.9501953125
 42
-0
  0
VERTEX
  8
0
 10
2996.177734375
 20
1489.9501953125
 42
0.32588791847229004
  0
VERTEX
  8
0
 10
2969.994140625
 20
1470.8564453125
 42
0.50842314958572388
  0
VERTEX
  8
0
 10
2996.177734375
 20
1434.9501953125
 42
-0
  0
SEQEND
  0
POLYLINE
  8
0
 10
0
 20
0
 39
0
 70
1
 66
1
  0
VERTEX
  8
0
 10
2981.177734375
 20
1462.4501953125
 42
-1
  0
VERTEX
  8
0
 10
3011.177734375
 20
1462.4501953125
 42
-1
  0
SEQEND
  0
POLYLINE
  8
0
 10
0
 20
0
 39
0
 70
1
 66
1
  0
VERTEX
  8
0
 10
3211.177734375
 20
1462.4501953125
 42
-1
  0
VERTEX
  8
0
 10
3241.177734375
 20
1462.4501953125
 42
-1
  0
SEQEND
  0
POLYLINE
  8
0
 10
0
 20
0
 39
0
 70
1
 66
1
  0
VERTEX
  8
0
 10
2695.279296875
 20
1434.9501953125
 42
1
  0
VERTEX
  8
0
 10
2695.279296875
 20
1489.9501953125
 42
-0
  0
VERTEX
  8
0
 10
2465.279296875
 20
1489.9501953125
 42
0.32588791847229004
  0
VERTEX
  8
0
 10
2439.095703125
 20
1470.8564453125
 42
0.50842314958572388
  0
VERTEX
  8
0
 10
2465.279296875
 20
1434.9501953125
 42
-0
  0
SEQEND
  0
POLYLINE
  8
0
 10
0
 20
0
 39
0
 70
1
 66
1
  0
VERTEX
  8
0
 10
2450.279296875
 20
1462.4501953125
 42
-1
  0
VERTEX
  8
0
 10
2480.279296875
 20
1462.4501953125
 42
-1
  0
SEQEND
  0
POLYLINE
  8
0
 10
0
 20
0
 39
0
 70
1
 66
1
  0
VERTEX
  8
0
 10
2680.279296875
 20
1462.4501953125
 42
-1
  0
VERTEX
  8
0
 10
2710.279296875
 20
1462.4501953125
 42
-1
  0
SEQEND
  0
POLYLINE
  8
0
 10
0
 20
0
 39
0
 70
1
 66
1
  0
VERTEX
  8
0
 10
1574.291015625
 20
1434.9501953125
 42
1
  0
VERTEX
  8
0
 10
1574.291015625
 20
1489.9501953125
 42
-0
  0
VERTEX
  8
0
 10
1344.291015625
 20
1489.9501953125
 42
0.32588791847229004
  0
VERTEX
  8
0
 10
1318.107421875
 20
1470.8564453125
 42
0.50842314958572388
  0
VERTEX
  8
0
 10
1344.291015625
 20
1434.9501953125
 42
-0
  0
SEQEND
  0
POLYLINE
  8
0
 10
0
 20
0
 39
0
 70
1
 66
1
  0
VERTEX
  8
0
 10
1329.291015625
 20
1462.4501953125
 42
-1
  0
VERTEX
  8
0
 10
1359.291015625
 20
1462.4501953125
 42
-1
  0
SEQEND
  0
POLYLINE
  8
0
 10
0
 20
0
 39
0
 70
1
 66
1
  0
VERTEX
  8
0
 10
1559.291015625
 20
1462.4501953125
 42
-1
  0
VERTEX
  8
0
 10
1589.291015625
 20
1462.4501953125
 42
-1
  0
SEQEND
  0
POLYLINE
  8
0
 10
0
 20
0
 39
0
 70
1
 66
1
  0
VERTEX
  8
0
 10
748.3515625
 20
1434.9501953125
 42
1
  0
VERTEX
  8
0
 10
748.3515625
 20
1489.9501953125
 42
-0
  0
VERTEX
  8
0
 10
518.3515625
 20
1489.9501953125
 42
0.32588791847229004
  0
VERTEX
  8
0
 10
492.16796875
 20
1470.8564453125
 42
0.50842314958572388
  0
VERTEX
  8
0
 10
518.3515625
 20
1434.9501953125
 42
-0
  0
SEQEND
  0
POLYLINE
  8
0
 10
0
 20
0
 39
0
 70
1
 66
1
  0
VERTEX
  8
0
 10
503.3515625
 20
1462.4501953125
 42
-1
  0
VERTEX
  8
0
 10
533.3515625
 20
1462.4501953125
 42
-1
  0
SEQEND
  0
POLYLINE
  8
0
 10
0
 20
0
 39
0
 70
1
 66
1
  0
VERTEX
  8
0
 10
733.3515625
 20
1462.4501953125
 42
-1
  0
VERTEX
  8
0
 10
763.3515625
 20
1462.4501953125
 42
-1
  0
SEQEND
  0
POLYLINE
  8
0
 10
0
 20
0
 39
0
 70
1
 66
1
  0
VERTEX
  8
0
 10
37.55078125
 20
1489.9501953125
 42
1
  0
VERTEX
  8
0
 10
37.55078125
 20
1434.9501953125
 42
-0
  0
VERTEX
  8
0
 10
267.55078125
 20
1434.9501953125
 42
0.32588791847229004
  0
VERTEX
  8
0
 10
293.734375
 20
1454.0439453125
 42
0.50842314958572388
  0
VERTEX
  8
0
 10
267.55078125
 20
1489.9501953125
 42
-0
  0
SEQEND
  0
POLYLINE
  8
0
 10
0
 20
0
 39
0
 70
1
 66
1
  0
VERTEX
  8
0
 10
282.55078125
 20
1462.4501953125
 42
-1
  0
VERTEX
  8
0
 10
252.55078125
 20
1462.4501953125
 42
-1
  0
SEQEND
  0
POLYLINE
  8
0
 10
0
 20
0
 39
0
 70
1
 66
1
  0
VERTEX
  8
0
 10
52.55078125
 20
1462.4501953125
 42
-1
  0
VERTEX
  8
0
 10
22.55078125
 20
1462.4501953125
 42
-1
  0
SEQEND
  0
POLYLINE
  8
0
 10
0
 20
0
 39
0
 70
1
 66
1
  0
VERTEX
  8
0
 10
140.1494140625
 20
843.724609375
 42
1
  0
VERTEX
  8
0
 10
195.1494140625
 20
843.724609375
 42
-0
  0
VERTEX
  8
0
 10
195.1494140625
 20
1073.724609375
 42
0.32588791847229004
  0
VERTEX
  8
0
 10
176.0556640625
 20
1099.908203125
 42
0.50842314958572388
  0
VERTEX
  8
0
 10
140.1494140625
 20
1073.724609375
 42
-0
  0
SEQEND
  0
POLYLINE
  8
0
 10
0
 20
0
 39
0
 70
1
 66
1
  0
VERTEX
  8
0
 10
167.6494140625
 20
1088.724609375
 42
-1
  0
VERTEX
  8
0
 10
167.6494140625
 20
1058.724609375
 42
-1
  0
SEQEND
  0
POLYLINE
  8
0
 10
0
 20
0
 39
0
 70
1
 66
1
  0
VERTEX
  8
0
 10
167.6494140625
 20
858.724609375
 42
-1
  0
VERTEX
  8
0
 10
167.6494140625
 20
828.724609375
 42
-1
  0
SEQEND
  0
POLYLINE
  8
0
 10
0
 20
0
 39
0
 70
1
 66
1
  0
VERTEX
  8
0
 10
75.099609375
 20
782.91015625
 42
1
  0
VERTEX
  8
0
 10
130.099609375
 20
782.91015625
 42
-0
  0
VERTEX
  8
0
 10
130.099609375
 20
1012.91015625
 42
0.32588791847229004
  0
VERTEX
  8
0
 10
111.005859375
 20
1039.09375
 42
0.50842314958572388
  0
VERTEX
  8
0
 10
75.099609375
 20
1012.91015625
 42
-0
  0
SEQEND
  0
POLYLINE
  8
0
 10
0
 20
0
 39
0
 70
1
 66
1
  0
VERTEX
  8
0
 10
102.599609375
 20
1027.91015625
 42
-1
  0
VERTEX
  8
0
 10
102.599609375
 20
997.91015625
 42
-1
  0
SEQEND
  0
POLYLINE
  8
0
 10
0
 20
0
 39
0
 70
1
 66
1
  0
VERTEX
  8
0
 10
102.599609375
 20
797.91015625
 42
-1
  0
VERTEX
  8
0
 10
102.599609375
 20
767.91015625
 42
-1
  0
SEQEND
  0
POLYLINE
  8
0
 10
0
 20
0
 39
0
 70
1
 66
1
  0
VERTEX
  8
0
 10
10.0498046875
 20
983.9609375
 42
1
  0
VERTEX
  8
0
 10
65.0498046875
 20
983.9609375
 42
-0
  0
VERTEX
  8
0
 10
65.0498046875
 20
1213.9609375
 42
0.32588791847229004
  0
VERTEX
  8
0
 10
45.9560546875
 20
1240.14453125
 42
0.50842314958572388
  0
VERTEX
  8
0
 10
10.0498046875
 20
1213.9609375
 42
-0
  0
SEQEND
  0
POLYLINE
  8
0
 10
0
 20
0
 39
0
 70
1
 66
1
  0
VERTEX
  8
0
 10
37.5498046875
 20
1228.9609375
 42
-1
  0
VERTEX
  8
0
 10
37.5498046875
 20
1198.9609375
 42
-1
  0
SEQEND
  0
POLYLINE
  8
0
 10
0
 20
0
 39
0
 70
1
 66
1
  0
VERTEX
  8
0
 10
37.5498046875
 20
998.9609375
 42
-1
  0
VERTEX
  8
0
 10
37.5498046875
 20
968.9609375
 42
-1
  0
SEQEND
  0
POLYLINE
  8
0
 10
0
 20
0
 39
0
 70
1
 66
1
  0
VERTEX
  8
0
 10
3275.30078125
 20
284.7470703125
 42
1
  0
VERTEX
  8
0
 10
3324.6171875
 20
309.09765625
 42
-0
  0
VERTEX
  8
0
 10
3222.78515625
 20
515.326171875
 42
0.32588791847229004
  0
VERTEX
  8
0
 10
3194.07421875
 20
530.3486328125
 42
0.50842314958572388
  0
VERTEX
  8
0
 10
3173.46875
 20
490.9755859375
 42
-0
  0
SEQEND
  0
POLYLINE
  8
0
 10
0
 20
0
 39
0
 70
1
 66
1
  0
VERTEX
  8
0
 10
3191.48828125
 20
516.6005859375
 42
-1
  0
VERTEX
  8
0
 10
3204.76953125
 20
489.7021484375
 42
-1
  0
SEQEND
  0
POLYLINE
  8
0
 10
0
 20
0
 39
0
 70
1
 66
1
  0
VERTEX
  8
0
 10
3293.318359375
 20
310.3720703125
 42
-1
  0
VERTEX
  8
0
 10
3306.6015625
 20
283.4716796875
 42
-1
  0
SEQEND
  0
POLYLINE
  8
0
 10
0
 20
0
 39
0
 70
1
 66
1
  0
VERTEX
  8
0
 10
2454.548828125
 20
248.255859375
 42
1
  0
VERTEX
  8
0
 10
2503.865234375
 20
272.6064453125
 42
-0
  0
VERTEX
  8
0
 10
2402.033203125
 20
478.8349609375
 42
0.32588791847229004
  0
VERTEX
  8
0
 10
2373.322265625
 20
493.857421875
 42
0.50842314958572388
  0
VERTEX
  8
0
 10
2352.716796875
 20
454.484375
 42
-0
  0
SEQEND
  0
POLYLINE
  8
0
 10
0
 20
0
 39
0
 70
1
 66
1
  0
VERTEX
  8
0
 10
2370.736328125
 20
480.109375
 42
-1
  0
VERTEX
  8
0
 10
2384.017578125
 20
453.2109375
 42
-1
  0
SEQEND
  0
POLYLINE
  8
0
 10
0
 20
0
 39
0
 70
1
 66
1
  0
VERTEX
  8
0
 10
2472.56640625
 20
273.880859375
 42
-1
  0
VERTEX
  8
0
 10
2485.849609375
 20
246.98046875
 42
-1
  0
SEQEND
  0
POLYLINE
  8
0
 10
0
 20
0
 39
0
 70
1
 66
1
  0
VERTEX
  8
0
 10
3503.86328125
 20
10.0498046875
 42
1
  0
VERTEX
  8
0
 10
3503.86328125
 20
65.0498046875
 42
-0
  0
VERTEX
  8
0
 10
3273.86328125
 20
65.0498046875
 42
0.32588791847229004
  0
VERTEX
  8
0
 10
3247.6796875
 20
45.9560546875
 42
0.50842314958572388
  0
VERTEX
  8
0
 10
3273.86328125
 20
10.0498046875
 42
-0
  0
SEQEND
  0
POLYLINE
  8
0
 10
0
 20
0
 39
0
 70
1
 66
1
  0
VERTEX
  8
0
 10
3258.86328125
 20
37.5498046875
 42
-1
  0
VERTEX
  8
0
 10
3288.86328125
 20
37.5498046875
 42
-1
  0
SEQEND
  0
POLYLINE
  8
0
 10
0
 20
0
 39
0
 70
1
 66
1
  0
VERTEX
  8
0
 10
3488.86328125
 20
37.5498046875
 42
-1
  0
VERTEX
  8
0
 10
3518.86328125
 20
37.5498046875
 42
-1
  0
SEQEND
  0
POLYLINE
  8
0
 10
0
 20
0
 39
0
 70
1
 66
1
  0
VERTEX
  8
0
 10
2677.93359375
 20
10.0498046875
 42
1
  0
VERTEX
  8
0
 10
2677.93359375
 20
65.0498046875
 42
-0
  0
VERTEX
  8
0
 10
2447.93359375
 20
65.0498046875
 42
0.32588791847229004
  0
VERTEX
  8
0
 10
2421.75
 20
45.9560546875
 42
0.50842314958572388
  0
VERTEX
  8
0
 10
2447.93359375
 20
10.0498046875
 42
-0
  0
SEQEND
  0
POLYLINE
  8
0
 10
0
 20
0
 39
0
 70
1
 66
1
  0
VERTEX
  8
0
 10
2432.93359375
 20
37.5498046875
 42
-1
  0
VERTEX
  8
0
 10
2462.93359375
 20
37.5498046875
 42
-1
  0
SEQEND
  0
POLYLINE
  8
0
 10
0
 20
0
 39
0
 70
1
 66
1
  0
VERTEX
  8
0
 10
2662.93359375
 20
37.5498046875
 42
-1
  0
VERTEX
  8
0
 10
2692.93359375
 20
37.5498046875
 42
-1
  0
SEQEND
  0
POLYLINE
  8
0
 10
0
 20
0
 39
0
 70
1
 66
1
  0
VERTEX
  8
0
 10
1026.060546875
 20
10.0498046875
 42
1
  0
VERTEX
  8
0
 10
1026.060546875
 20
65.0498046875
 42
-0
  0
VERTEX
  8
0
 10
796.060546875
 20
65.0498046875
 42
0.32588791847229004
  0
VERTEX
  8
0
 10
769.876953125
 20
45.9560546875
 42
0.50842314958572388
  0
VERTEX
  8
0
 10
796.060546875
 20
10.0498046875
 42
-0
  0
SEQEND
  0
POLYLINE
  8
0
 10
0
 20
0
 39
0
 70
1
 66
1
  0
VERTEX
  8
0
 10
781.060546875
 20
37.5498046875
 42
-1
  0
VERTEX
  8
0
 10
811.060546875
 20
37.5498046875
 42
-1
  0
SEQEND
  0
POLYLINE
  8
0
 10
0
 20
0
 39
0
 70
1
 66
1
  0
VERTEX
  8
0
 10
1011.060546875
 20
37.5498046875
 42
-1
  0
VERTEX
  8
0
 10
1041.060546875
 20
37.5498046875
 42
-1
  0
SEQEND
  0
POLYLINE
  8
0
 10
0
 20
0
 39
0
 70
1
 66
1
  0
VERTEX
  8
0
 10
3580.55859375
 20
954.62890625
 42
1
  0
VERTEX
  8
0
 10
3629.875
 20
978.98046875
 42
-0
  0
VERTEX
  8
0
 10
3528.04296875
 20
1185.208984375
 42
0.32588791847229004
  0
VERTEX
  8
0
 10
3499.330078125
 20
1200.2333984375
 42
0.50842314958572388
  0
VERTEX
  8
0
 10
3478.7265625
 20
1160.857421875
 42
-0
  0
SEQEND
  0
POLYLINE
  8
0
 10
0
 20
0
 39
0
 70
1
 66
1
  0
VERTEX
  8
0
 10
3496.74609375
 20
1186.484375
 42
-1
  0
VERTEX
  8
0
 10
3510.02734375
 20
1159.583984375
 42
-1
  0
SEQEND
  0
POLYLINE
  8
0
 10
0
 20
0
 39
0
 70
1
 66
1
  0
VERTEX
  8
0
 10
3598.578125
 20
980.255859375
 42
-1
  0
VERTEX
  8
0
 10
3611.859375
 20
953.35546875
 42
-1
  0
SEQEND
  0
POLYLINE
  8
0
 10
0
 20
0
 39
0
 70
1
 66
1
  0
VERTEX
  8
0
 10
1934.4453125
 20
942.93359375
 42
1
  0
VERTEX
  8
0
 10
1983.759765625
 20
967.28515625
 42
-0
  0
VERTEX
  8
0
 10
1881.927734375
 20
1173.513671875
 42
0.32588791847229004
  0
VERTEX
  8
0
 10
1853.216796875
 20
1188.537109375
 42
0.50842314958572388
  0
VERTEX
  8
0
 10
1832.61328125
 20
1149.162109375
 42
-0
  0
SEQEND
  0
POLYLINE
  8
0
 10
0
 20
0
 39
0
 70
1
 66
1
  0
VERTEX
  8
0
 10
1850.630859375
 20
1174.787109375
 42
-1
  0
VERTEX
  8
0
 10
1863.912109375
 20
1147.88671875
 42
-1
  0
SEQEND
  0
POLYLINE
  8
0
 10
0
 20
0
 39
0
 70
1
 66
1
  0
VERTEX
  8
0
 10
1952.462890625
 20
968.55859375
 42
-1
  0
VERTEX
  8
0
 10
1965.744140625
 20
941.658203125
 42
-1
  0
SEQEND
  0
POLYLINE
  8
0
 10
0
 20
0
 39
0
 70
1
 66
1
  0
VERTEX
  8
0
 10
4347.171875
 20
1434.9501953125
 42
1
  0
VERTEX
  8
0
 10
4347.171875
 20
1489.9501953125
 42
-0
  0
VERTEX
  8
0
 10
4117.171875
 20
1489.9501953125
 42
0.32588791847229004
  0
VERTEX
  8
0
 10
4090.98828125
 20
1470.8564453125
 42
0.50842314958572388
  0
VERTEX
  8
0
 10
4117.171875
 20
1434.9501953125
 42
-0
  0
SEQEND
  0
POLYLINE
  8
0
 10
0
 20
0
 39
0
 70
1
 66
1
  0
VERTEX
  8
0
 10
4102.171875
 20
1462.4501953125
 42
-1
  0
VERTEX
  8
0
 10
4132.171875
 20
1462.4501953125
 42
-1
  0
SEQEND
  0
POLYLINE
  8
0
 10
0
 20
0
 39
0
 70
1
 66
1
  0
VERTEX
  8
0
 10
4332.171875
 20
1462.4501953125
 42
-1
  0
VERTEX
  8
0
 10
4362.171875
 20
1462.4501953125
 42
-1
  0
SEQEND
  0
POLYLINE
  8
0
 10
0
 20
0
 39
0
 70
1
 66
1
  0
VERTEX
  8
0
 10
3280.466796875
 20
1369.900390625
 42
1
  0
VERTEX
  8
0
 10
3280.466796875
 20
1424.900390625
 42
-0
  0
VERTEX
  8
0
 10
3050.466796875
 20
1424.900390625
 42
0.32588791847229004
  0
VERTEX
  8
0
 10
3024.283203125
 20
1405.806640625
 42
0.50842314958572388
  0
VERTEX
  8
0
 10
3050.466796875
 20
1369.900390625
 42
-0
  0
SEQEND
  0
POLYLINE
  8
0
 10
0
 20
0
 39
0
 70
1
 66
1
  0
VERTEX
  8
0
 10
3035.466796875
 20
1397.400390625
 42
-1
  0
VERTEX
  8
0
 10
3065.466796875
 20
1397.400390625
 42
-1
  0
SEQEND
  0
POLYLINE
  8
0
 10
0
 20
0
 39
0
 70
1
 66
1
  0
VERTEX
  8
0
 10
3265.466796875
 20
1397.400390625
 42
-1
  0
VERTEX
  8
0
 10
3295.466796875
 20
1397.400390625
 42
-1
  0
SEQEND
  0
POLYLINE
  8
0
 10
0
 20
0
 39
0
 70
1
 66
1
  0
VERTEX
  8
0
 10
2400.228515625
 20
1434.9501953125
 42
1
  0
VERTEX
  8
0
 10
2400.228515625
 20
1489.9501953125
 42
-0
  0
VERTEX
  8
0
 10
2170.228515625
 20
1489.9501953125
 42
0.32588791847229004
  0
VERTEX
  8
0
 10
2144.044921875
 20
1470.8564453125
 42
0.50842314958572388
  0
VERTEX
  8
0
 10
2170.228515625
 20
1434.9501953125
 42
-0
  0
SEQEND
  0
POLYLINE
  8
0
 10
0
 20
0
 39
0
 70
1
 66
1
  0
VERTEX
  8
0
 10
2155.228515625
 20
1462.4501953125
 42
-1
  0
VERTEX
  8
0
 10
2185.228515625
 20
1462.4501953125
 42
-1
  0
SEQEND
  0
POLYLINE
  8
0
 10
0
 20
0
 39
0
 70
1
 66
1
  0
VERTEX
  8
0
 10
2385.228515625
 20
1462.4501953125
 42
-1
  0
VERTEX
  8
0
 10
2415.228515625
 20
1462.4501953125
 42
-1
  0
SEQEND
  0
POLYLINE
  8
0
 10
0
 20
0
 39
0
 70
1
 66
1
  0
VERTEX
  8
0
 10
1628.583984375
 20
1369.900390625
 42
1
  0
VERTEX
  8
0
 10
1628.583984375
 20
1424.900390625
 42
-0
  0
VERTEX
  8
0
 10
1398.583984375
 20
1424.900390625
 42
0.32588791847229004
  0
VERTEX
  8
0
 10
1372.400390625
 20
1405.806640625
 42
0.50842314958572388
  0
VERTEX
  8
0
 10
1398.583984375
 20
1369.900390625
 42
-0
  0
SEQEND
  0
POLYLINE
  8
0
 10
0
 20
0
 39
0
 70
1
 66
1
  0
VERTEX
  8
0
 10
1383.583984375
 20
1397.400390625
 42
-1
  0
VERTEX
  8
0
 10
1413.583984375
 20
1397.400390625
 42
-1
  0
SEQEND
  0
POLYLINE
  8
0
 10
0
 20
0
 39
0
 70
1
 66
1
  0
VERTEX
  8
0
 10
1613.583984375
 20
1397.400390625
 42
-1
  0
VERTEX
  8
0
 10
1643.583984375
 20
1397.400390625
 42
-1
  0
SEQEND
  0
POLYLINE
  8
0
 10
0
 20
0
 39
0
 70
1
 66
1
  0
VERTEX
  8
0
 10
802.642578125
 20
1369.900390625
 42
1
  0
VERTEX
  8
0
 10
802.642578125
 20
1424.900390625
 42
-0
  0
VERTEX
  8
0
 10
572.642578125
 20
1424.900390625
 42
0.32588791847229004
  0
VERTEX
  8
0
 10
546.458984375
 20
1405.806640625
 42
0.50842314958572388
  0
VERTEX
  8
0
 10
572.642578125
 20
1369.900390625
 42
-0
  0
SEQEND
  0
POLYLINE
  8
0
 10
0
 20
0
 39
0
 70
1
 66
1
  0
VERTEX
  8
0
 10
557.642578125
 20
1397.400390625
 42
-1
  0
VERTEX
  8
0
 10
587.642578125
 20
1397.400390625
 42
-1
  0
SEQEND
  0
POLYLINE
  8
0
 10
0
 20
0
 39
0
 70
1
 66
1
  0
VERTEX
  8
0
 10
787.642578125
 20
1397.400390625
 42
-1
  0
VERTEX
  8
0
 10
817.642578125
 20
1397.400390625
 42
-1
  0
SEQEND
  0
POLYLINE
  8
0
 10
0
 20
0
 39
0
 70
1
 66
1
  0
VERTEX
  8
0
 10
793.84375
 20
281.4853515625
 42
1
  0
VERTEX
  8
0
 10
843.158203125
 20
305.8359375
 42
-0
  0
VERTEX
  8
0
 10
741.326171875
 20
512.064453125
 42
0.32588791847229004
  0
VERTEX
  8
0
 10
712.615234375
 20
527.0888671875
 42
0.50842314958572388
  0
VERTEX
  8
0
 10
692.01171875
 20
487.7138671875
 42
-0
  0
SEQEND
  0
POLYLINE
  8
0
 10
0
 20
0
 39
0
 70
1
 66
1
  0
VERTEX
  8
0
 10
710.029296875
 20
513.3388671875
 42
-1
  0
VERTEX
  8
0
 10
723.310546875
 20
486.4404296875
 42
-1
  0
SEQEND
  0
POLYLINE
  8
0
 10
0
 20
0
 39
0
 70
1
 66
1
  0
VERTEX
  8
0
 10
811.859375
 20
307.1103515625
 42
-1
  0
VERTEX
  8
0
 10
825.142578125
 20
280.2119140625
 42
-1
  0
SEQEND
  0
POLYLINE
  8
0
 10
0
 20
0
 39
0
 70
1
 66
1
  0
VERTEX
  8
0
 10
4106.41015625
 20
1369.900390625
 42
1
  0
VERTEX
  8
0
 10
4106.41015625
 20
1424.900390625
 42
-0
  0
VERTEX
  8
0
 10
3876.41015625
 20
1424.900390625
 42
0.32588791847229004
  0
VERTEX
  8
0
 10
3850.2265625
 20
1405.806640625
 42
0.50842314958572388
  0
VERTEX
  8
0
 10
3876.41015625
 20
1369.900390625
 42
-0
  0
SEQEND
  0
POLYLINE
  8
0
 10
0
 20
0
 39
0
 70
1
 66
1
  0
VERTEX
  8
0
 10
3861.41015625
 20
1397.400390625
 42
-1
  0
VERTEX
  8
0
 10
3891.41015625
 20
1397.400390625
 42
-1
  0
SEQEND
  0
POLYLINE
  8
0
 10
0
 20
0
 39
0
 70
1
 66
1
  0
VERTEX
  8
0
 10
4091.41015625
 20
1397.400390625
 42
-1
  0
VERTEX
  8
0
 10
4121.41015625
 20
1397.400390625
 42
-1
  0
SEQEND
  0
POLYLINE
  8
0
 10
0
 20
0
 39
0
 70
1
 66
1
  0
VERTEX
  8
0
 10
4979.568359375
 20
52.1669921875
 42
0.76732701063156128
  0
VERTEX
  8
0
 10
4926.443359375
 20
52.16796875
 42
-0
  0
VERTEX
  8
0
 10
4918.0078125
 20
10.0498046875
 42
-0
  0
VERTEX
  8
0
 10
4988.005859375
 20
10.0498046875
 42
-0
  0
SEQEND
  0
POLYLINE
  8
0
 10
0
 20
0
 39
0
 70
1
 66
1
  0
VERTEX
  8
0
 10
4938.005859375
 20
45.0498046875
 42
-1
  0
VERTEX
  8
0
 10
4968.005859375
 20
45.0498046875
 42
-1
  0
SEQEND
  0
POLYLINE
  8
0
 10
0
 20
0
 39
0
 70
1
 66
1
  0
VERTEX
  8
0
 10
5059.576171875
 20
52.1669921875
 42
0.76732701063156128
  0
VERTEX
  8
0
 10
5006.451171875
 20
52.16796875
 42
-0
  0
VERTEX
  8
0
 10
4998.015625
 20
10.0498046875
 42
-0
  0
VERTEX
  8
0
 10
5068.013671875
 20
10.0498046875
 42
-0
  0
SEQEND
  0
POLYLINE
  8
0
 10
0
 20
0
 39
0
 70
1
 66
1
  0
VERTEX
  8
0
 10
5018.013671875
 20
45.0498046875
 42
-1
  0
VERTEX
  8
0
 10
5048.013671875
 20
45.0498046875
 42
-1
  0
SEQEND
  0
POLYLINE
  8
0
 10
0
 20
0
 39
0
 70
1
 66
1
  0
VERTEX
  8
0
 10
5139.583984375
 20
52.1669921875
 42
0.76732701063156128
  0
VERTEX
  8
0
 10
5086.458984375
 20
52.16796875
 42
-0
  0
VERTEX
  8
0
 10
5078.0234375
 20
10.0498046875
 42
-0
  0
VERTEX
  8
0
 10
5148.021484375
 20
10.0498046875
 42
-0
  0
SEQEND
  0
POLYLINE
  8
0
 10
0
 20
0
 39
0
 70
1
 66
1
  0
VERTEX
  8
0
 10
5098.021484375
 20
45.0498046875
 42
-1
  0
VERTEX
  8
0
 10
5128.021484375
 20
45.0498046875
 42
-1
  0
SEQEND
  0
POLYLINE
  8
0
 10
0
 20
0
 39
0
 70
1
 66
1
  0
VERTEX
  8
0
 10
5219.591796875
 20
52.1669921875
 42
0.76732701063156128
  0
VERTEX
  8
0
 10
5166.466796875
 20
52.16796875
 42
-0
  0
VERTEX
  8
0
 10
5158.03125
 20
10.0498046875
 42
-0
  0
VERTEX
  8
0
 10
5228.029296875
 20
10.0498046875
 42
-0
  0
SEQEND
  0
POLYLINE
  8
0
 10
0
 20
0
 39
0
 70
1
 66
1
  0
VERTEX
  8
0
 10
5178.029296875
 20
45.0498046875
 42
-1
  0
VERTEX
  8
0
 10
5208.029296875
 20
45.0498046875
 42
-1
  0
SEQEND
  0
POLYLINE
  8
0
 10
0
 20
0
 39
0
 70
1
 66
1
  0
VERTEX
  8
0
 10
5299.6015625
 20
52.1669921875
 42
0.76732701063156128
  0
VERTEX
  8
0
 10
5246.4765625
 20
52.16796875
 42
-0
  0
VERTEX
  8
0
 10
5238.041015625
 20
10.0498046875
 42
-0
  0
VERTEX
  8
0
 10
5308.0390625
 20
10.0498046875
 42
-0
  0
SEQEND
  0
POLYLINE
  8
0
 10
0
 20
0
 39
0
 70
1
 66
1
  0
VERTEX
  8
0
 10
5258.0390625
 20
45.0498046875
 42
-1
  0
VERTEX
  8
0
 10
5288.0390625
 20
45.0498046875
 42
-1
  0
SEQEND
  0
POLYLINE
  8
0
 10
0
 20
0
 39
0
 70
1
 66
1
  0
VERTEX
  8
0
 10
5379.609375
 20
52.1669921875
 42
0.76732701063156128
  0
VERTEX
  8
0
 10
5326.484375
 20
52.16796875
 42
-0
  0
VERTEX
  8
0
 10
5318.048828125
 20
10.0498046875
 42
-0
  0
VERTEX
  8
0
 10
5388.046875
 20
10.0498046875
 42
-0
  0
SEQEND
  0
POLYLINE
  8
0
 10
0
 20
0
 39
0
 70
1
 66
1
  0
VERTEX
  8
0
 10
5338.046875
 20
45.0498046875
 42
-1
  0
VERTEX
  8
0
 10
5368.046875
 20
45.0498046875
 42
-1
  0
SEQEND
  0
POLYLINE
  8
0
 10
0
 20
0
 39
0
 70
1
 66
1
  0
VERTEX
  8
0
 10
4885.8955078125
 20
456.96875
 42
0.76732701063156128
  0
VERTEX
  8
0
 10
4862.3759765625
 20
504.6044921875
 42
-0
  0
VERTEX
  8
0
 10
4820.8759765625
 20
493.5185546875
 42
-0
  0
VERTEX
  8
0
 10
4851.8681640625
 20
430.7548828125
 42
-0
  0
SEQEND
  0
POLYLINE
  8
0
 10
0
 20
0
 39
0
 70
1
 66
1
  0
VERTEX
  8
0
 10
4861.1142578125
 20
491.0849609375
 42
-1
  0
VERTEX
  8
0
 10
4874.3955078125
 20
464.1845703125
 42
-1
  0
SEQEND
  0
POLYLINE
  8
0
 10
0
 20
0
 39
0
 70
1
 66
1
  0
VERTEX
  8
0
 10
4921.3193359375
 20
385.23046875
 42
0.76732701063156128
  0
VERTEX
  8
0
 10
4897.7998046875
 20
432.8662109375
 42
-0
  0
VERTEX
  8
0
 10
4856.2998046875
 20
421.7802734375
 42
-0
  0
VERTEX
  8
0
 10
4887.2919921875
 20
359.0166015625
 42
-0
  0
SEQEND
  0
POLYLINE
  8
0
 10
0
 20
0
 39
0
 70
1
 66
1
  0
VERTEX
  8
0
 10
4896.5380859375
 20
419.3466796875
 42
-1
  0
VERTEX
  8
0
 10
4909.8193359375
 20
392.4462890625
 42
-1
  0
SEQEND
  0
POLYLINE
  8
0
 10
0
 20
0
 39
0
 70
1
 66
1
  0
VERTEX
  8
0
 10
4956.7431640625
 20
313.4921875
 42
0.76732701063156128
  0
VERTEX
  8
0
 10
4933.2236328125
 20
361.1279296875
 42
-0
  0
VERTEX
  8
0
 10
4891.7236328125
 20
350.0419921875
 42
-0
  0
VERTEX
  8
0
 10
4922.7158203125
 20
287.2783203125
 42
-0
  0
SEQEND
  0
POLYLINE
  8
0
 10
0
 20
0
 39
0
 70
1
 66
1
  0
VERTEX
  8
0
 10
4931.9619140625
 20
347.6083984375
 42
-1
  0
VERTEX
  8
0
 10
4945.2431640625
 20
320.7080078125
 42
-1
  0
SEQEND
  0
POLYLINE
  8
0
 10
0
 20
0
 39
0
 70
1
 66
1
  0
VERTEX
  8
0
 10
4992.1650390625
 20
241.751953125
 42
0.76732701063156128
  0
VERTEX
  8
0
 10
4968.6455078125
 20
289.3876953125
 42
-0
  0
VERTEX
  8
0
 10
4927.1455078125
 20
278.3017578125
 42
-0
  0
VERTEX
  8
0
 10
4958.1376953125
 20
215.5380859375
 42
-0
  0
SEQEND
  0
POLYLINE
  8
0
 10
0
 20
0
 39
0
 70
1
 66
1
  0
VERTEX
  8
0
 10
4967.3837890625
 20
275.8681640625
 42
-1
  0
VERTEX
  8
0
 10
4980.6650390625
 20
248.9677734375
 42
-1
  0
SEQEND
  0
POLYLINE
  8
0
 10
0
 20
0
 39
0
 70
1
 66
1
  0
VERTEX
  8
0
 10
4944.291015625
 20
502.556640625
 42
0.76732701063156128
  0
VERTEX
  8
0
 10
4920.771484375
 20
550.1923828125
 42
-0
  0
VERTEX
  8
0
 10
4879.271484375
 20
539.1064453125
 42
-0
  0
VERTEX
  8
0
 10
4910.263671875
 20
476.3427734375
 42
-0
  0
SEQEND
  0
POLYLINE
  8
0
 10
0
 20
0
 39
0
 70
1
 66
1
  0
VERTEX
  8
0
 10
4919.509765625
 20
536.6728515625
 42
-1
  0
VERTEX
  8
0
 10
4932.791015625
 20
509.7724609375
 42
-1
  0
SEQEND
  0
POLYLINE
  8
0
 10
0
 20
0
 39
0
 70
1
 66
1
  0
VERTEX
  8
0
 10
1120.408203125
 20
52.1669921875
 42
0.76732701063156128
  0
VERTEX
  8
0
 10
1067.283203125
 20
52.16796875
 42
-0
  0
VERTEX
  8
0
 10
1058.84765625
 20
10.0498046875
 42
-0
  0
VERTEX
  8
0
 10
1128.845703125
 20
10.0498046875
 42
-0
  0
SEQEND
  0
POLYLINE
  8
0
 10
0
 20
0
 39
0
 70
1
 66
1
  0
VERTEX
  8
0
 10
1078.845703125
 20
45.0498046875
 42
-1
  0
VERTEX
  8
0
 10
1108.845703125
 20
45.0498046875
 42
-1
  0
SEQEND
  0
POLYLINE
  8
0
 10
0
 20
0
 39
0
 70
1
 66
1
  0
VERTEX
  8
0
 10
1200.416015625
 20
52.1669921875
 42
0.76732701063156128
  0
VERTEX
  8
0
 10
1147.291015625
 20
52.16796875
 42
-0
  0
VERTEX
  8
0
 10
1138.85546875
 20
10.0498046875
 42
-0
  0
VERTEX
  8
0
 10
1208.853515625
 20
10.0498046875
 42
-0
  0
SEQEND
  0
POLYLINE
  8
0
 10
0
 20
0
 39
0
 70
1
 66
1
  0
VERTEX
  8
0
 10
1158.853515625
 20
45.0498046875
 42
-1
  0
VERTEX
  8
0
 10
1188.853515625
 20
45.0498046875
 42
-1
  0
SEQEND
  0
POLYLINE
  8
0
 10
0
 20
0
 39
0
 70
1
 66
1
  0
VERTEX
  8
0
 10
1280.423828125
 20
52.1669921875
 42
0.76732701063156128
  0
VERTEX
  8
0
 10
1227.298828125
 20
52.16796875
 42
-0
  0
VERTEX
  8
0
 10
1218.86328125
 20
10.0498046875
 42
-0
  0
VERTEX
  8
0
 10
1288.861328125
 20
10.0498046875
 42
-0
  0
SEQEND
  0
POLYLINE
  8
0
 10
0
 20
0
 39
0
 70
1
 66
1
  0
VERTEX
  8
0
 10
1238.861328125
 20
45.0498046875
 42
-1
  0
VERTEX
  8
0
 10
1268.861328125
 20
45.0498046875
 42
-1
  0
SEQEND
  0
POLYLINE
  8
0
 10
0
 20
0
 39
0
 70
1
 66
1
  0
VERTEX
  8
0
 10
1946.34375
 20
52.1669921875
 42
0.76732701063156128
  0
VERTEX
  8
0
 10
1893.21875
 20
52.16796875
 42
-0
  0
VERTEX
  8
0
 10
1884.783203125
 20
10.0498046875
 42
-0
  0
VERTEX
  8
0
 10
1954.78125
 20
10.0498046875
 42
-0
  0
SEQEND
  0
POLYLINE
  8
0
 10
0
 20
0
 39
0
 70
1
 66
1
  0
VERTEX
  8
0
 10
1904.78125
 20
45.0498046875
 42
-1
  0
VERTEX
  8
0
 10
1934.78125
 20
45.0498046875
 42
-1
  0
SEQEND
  0
POLYLINE
  8
0
 10
0
 20
0
 39
0
 70
1
 66
1
  0
VERTEX
  8
0
 10
2026.3515625
 20
52.1669921875
 42
0.76732701063156128
  0
VERTEX
  8
0
 10
1973.2265625
 20
52.16796875
 42
-0
  0
VERTEX
  8
0
 10
1964.791015625
 20
10.0498046875
 42
-0
  0
VERTEX
  8
0
 10
2034.7890625
 20
10.0498046875
 42
-0
  0
SEQEND
  0
POLYLINE
  8
0
 10
0
 20
0
 39
0
 70
1
 66
1
  0
VERTEX
  8
0
 10
1984.7890625
 20
45.0498046875
 42
-1
  0
VERTEX
  8
0
 10
2014.7890625
 20
45.0498046875
 42
-1
  0
SEQEND
  0
POLYLINE
  8
0
 10
0
 20
0
 39
0
 70
1
 66
1
  0
VERTEX
  8
0
 10
2106.359375
 20
52.1669921875
 42
0.76732701063156128
  0
VERTEX
  8
0
 10
2053.234375
 20
52.16796875
 42
-0
  0
VERTEX
  8
0
 10
2044.798828125
 20
10.0498046875
 42
-0
  0
VERTEX
  8
0
 10
2114.796875
 20
10.0498046875
 42
-0
  0
SEQEND
  0
POLYLINE
  8
0
 10
0
 20
0
 39
0
 70
1
 66
1
  0
VERTEX
  8
0
 10
2064.796875
 20
45.0498046875
 42
-1
  0
VERTEX
  8
0
 10
2094.796875
 20
45.0498046875
 42
-1
  0
SEQEND
  0
POLYLINE
  8
0
 10
0
 20
0
 39
0
 70
1
 66
1
  0
VERTEX
  8
0
 10
3598.2109375
 20
52.1669921875
 42
0.76732701063156128
  0
VERTEX
  8
0
 10
3545.0859375
 20
52.16796875
 42
-0
  0
VERTEX
  8
0
 10
3536.650390625
 20
10.0498046875
 42
-0
  0
VERTEX
  8
0
 10
3606.6484375
 20
10.0498046875
 42
-0
  0
SEQEND
  0
POLYLINE
  8
0
 10
0
 20
0
 39
0
 70
1
 66
1
  0
VERTEX
  8
0
 10
3556.6484375
 20
45.0498046875
 42
-1
  0
VERTEX
  8
0
 10
3586.6484375
 20
45.0498046875
 42
-1
  0
SEQEND
  0
POLYLINE
  8
0
 10
0
 20
0
 39
0
 70
1
 66
1
  0
VERTEX
  8
0
 10
3678.21875
 20
52.1669921875
 42
0.76732701063156128
  0
VERTEX
  8
0
 10
3625.09375
 20
52.16796875
 42
-0
  0
VERTEX
  8
0
 10
3616.658203125
 20
10.0498046875
 42
-0
  0
VERTEX
  8
0
 10
3686.65625
 20
10.0498046875
 42
-0
  0
SEQEND
  0
POLYLINE
  8
0
 10
0
 20
0
 39
0
 70
1
 66
1
  0
VERTEX
  8
0
 10
3636.65625
 20
45.0498046875
 42
-1
  0
VERTEX
  8
0
 10
3666.65625
 20
45.0498046875
 42
-1
  0
SEQEND
  0
ENDSEC
  0
EOF
