  0
SECTION
  2
ENTITIES
  0
POLYLINE
  8
0
 10
0
 20
0
 39
0
 70
1
 66
1
  0
VERTEX
  8
0
 10
0
 20
0
 42
-0
  0
VERTEX
  8
0
 10
1650
 20
0
 42
-0
  0
VERTEX
  8
0
 10
1650
 20
900
 42
-0
  0
VERTEX
  8
0
 10
0
 20
900
 42
-0
  0
SEQEND
  0
POLYLINE
  8
0
 10
0
 20
0
 39
0
 70
1
 66
1
  0
VERTEX
  8
0
 10
336.62191585664931
 20
660.20074094905817
 42
-1
  0
VERTEX
  8
0
 10
333.78576492452356
 20
10.206939832114756
 42
-1
  0
SEQEND
  0
POLYLINE
  8
0
 10
0
 20
0
 39
0
 70
1
 66
1
  0
VERTEX
  8
0
 10
336.38193385470021
 20
605.2012654699322
 42
1
  0
VERTEX
  8
0
 10
334.02574692647266
 20
65.206415311240733
 42
1
  0
SEQEND
  0
POLYLINE
  8
0
 10
0
 20
0
 39
0
 70
1
 66
1
  0
VERTEX
  8
0
 10
955.87960816434156
 20
889.55074094905808
 42
-1
  0
VERTEX
  8
0
 10
953.04345723221581
 20
239.55693983211472
 42
-1
  0
SEQEND
  0
POLYLINE
  8
0
 10
0
 20
0
 39
0
 70
1
 66
1
  0
VERTEX
  8
0
 10
955.63962616239246
 20
834.5512654699321
 42
1
  0
VERTEX
  8
0
 10
953.28343923416492
 20
294.5564153112407
 42
1
  0
SEQEND
  0
POLYLINE
  8
0
 10
0
 20
0
 39
0
 70
1
 66
1
  0
VERTEX
  8
0
 10
233.75644911866164
 20
490.45618743267516
 42
-1
  0
VERTEX
  8
0
 10
232.38200674386223
 20
175.45919150677184
 42
-1
  0
SEQEND
  0
POLYLINE
  8
0
 10
0
 20
0
 39
0
 70
1
 66
1
  0
VERTEX
  8
0
 10
233.57100848079187
 20
447.95659274425964
 42
1
  0
VERTEX
  8
0
 10
232.56744738173199
 20
217.95878619518737
 42
1
  0
SEQEND
  0
POLYLINE
  8
0
 10
0
 20
0
 39
0
 70
1
 66
1
  0
VERTEX
  8
0
 10
853.01414142635394
 20
719.80618743267519
 42
-1
  0
VERTEX
  8
0
 10
851.63969905155454
 20
404.80919150677187
 42
-1
  0
SEQEND
  0
POLYLINE
  8
0
 10
0
 20
0
 39
0
 70
1
 66
1
  0
VERTEX
  8
0
 10
852.82870078848418
 20
677.30659274425966
 42
1
  0
VERTEX
  8
0
 10
851.8251396894243
 20
447.30878619518739
 42
1
  0
SEQEND
  0
POLYLINE
  8
0
 10
0
 20
0
 39
0
 70
1
 66
1
  0
VERTEX
  8
0
 10
1404.1754182019058
 20
167.01662212847762
 42
-1
  0
VERTEX
  8
0
 10
1089.1784222760025
 20
168.39106450327702
 42
-1
  0
SEQEND
  0
POLYLINE
  8
0
 10
0
 20
0
 39
0
 70
1
 66
1
  0
VERTEX
  8
0
 10
1361.6758235134903
 20
167.20206276634738
 42
1
  0
VERTEX
  8
0
 10
1131.678016964418
 20
168.20562386540726
 42
1
  0
SEQEND
  0
POLYLINE
  8
0
 10
0
 20
0
 39
0
 70
1
 66
1
  0
VERTEX
  8
0
 10
1418.7102952725077
 20
889.50234127882891
 42
-1
  0
VERTEX
  8
0
 10
1417.3358528977083
 20
574.50534535292559
 42
-1
  0
SEQEND
  0
POLYLINE
  8
0
 10
0
 20
0
 39
0
 70
1
 66
1
  0
VERTEX
  8
0
 10
1418.5248546346379
 20
847.00274659041338
 42
1
  0
VERTEX
  8
0
 10
1417.521293535578
 20
617.00494004134111
 42
1
  0
SEQEND
  0
POLYLINE
  8
0
 10
0
 20
0
 39
0
 70
1
 66
1
  0
VERTEX
  8
0
 10
1464.6564491186616
 20
567.37157204805976
 42
-1
  0
VERTEX
  8
0
 10
1463.2820067438622
 20
252.37457612215644
 42
-1
  0
SEQEND
  0
POLYLINE
  8
0
 10
0
 20
0
 39
0
 70
1
 66
1
  0
VERTEX
  8
0
 10
1464.4710084807919
 20
524.87197735964423
 42
1
  0
VERTEX
  8
0
 10
1463.467447381732
 20
294.87417081057197
 42
1
  0
SEQEND
  0
POLYLINE
  8
0
 10
0
 20
0
 39
0
 70
1
 66
1
  0
VERTEX
  8
0
 10
10.203846153846163
 20
670.20384615384614
 42
-0
  0
VERTEX
  8
0
 10
10.203846153846154
 20
820.20384615384614
 42
-1
  0
VERTEX
  8
0
 10
60.203846153846158
 20
820.20384615384614
 42
0
  0
VERTEX
  8
0
 10
60.203846153846165
 20
720.20384615384614
 42
0
  0
VERTEX
  8
0
 10
260.20384615384614
 20
720.20384615384614
 42
-1
  0
VERTEX
  8
0
 10
260.20384615384614
 20
670.20384615384614
 42
0
  0
SEQEND
  0
POLYLINE
  8
0
 10
0
 20
0
 39
0
 70
1
 66
1
  0
VERTEX
  8
0
 10
35.203846153846158
 20
805.20384615384614
 42
1
  0
VERTEX
  8
0
 10
35.20384615384615
 20
835.20384615384614
 42
1
  0
SEQEND
  0
POLYLINE
  8
0
 10
0
 20
0
 39
0
 70
1
 66
1
  0
VERTEX
  8
0
 10
345.48134615384612
 20
845.20384615384614
 42
-0
  0
VERTEX
  8
0
 10
345.48134615384612
 20
695.20384615384614
 42
-1
  0
VERTEX
  8
0
 10
295.48134615384612
 20
695.20384615384614
 42
0
  0
VERTEX
  8
0
 10
295.48134615384612
 20
795.20384615384614
 42
0
  0
VERTEX
  8
0
 10
95.481346153846118
 20
795.20384615384614
 42
-1
  0
VERTEX
  8
0
 10
95.481346153846118
 20
845.20384615384614
 42
0
  0
SEQEND
  0
POLYLINE
  8
0
 10
0
 20
0
 39
0
 70
1
 66
1
  0
VERTEX
  8
0
 10
320.48134615384612
 20
710.20384615384614
 42
1
  0
VERTEX
  8
0
 10
320.48134615384612
 20
680.20384615384614
 42
1
  0
SEQEND
  0
POLYLINE
  8
0
 10
0
 20
0
 39
0
 70
1
 66
1
  0
VERTEX
  8
0
 10
625.27307692307693
 20
10.203846153846154
 42
-0
  0
VERTEX
  8
0
 10
625.27307692307693
 20
160.20384615384614
 42
-1
  0
VERTEX
  8
0
 10
675.27307692307693
 20
160.20384615384614
 42
0
  0
VERTEX
  8
0
 10
675.27307692307693
 20
60.203846153846158
 42
0
  0
VERTEX
  8
0
 10
875.27307692307693
 20
60.203846153846172
 42
-1
  0
VERTEX
  8
0
 10
875.27307692307693
 20
10.203846153846184
 42
0
  0
SEQEND
  0
POLYLINE
  8
0
 10
0
 20
0
 39
0
 70
1
 66
1
  0
VERTEX
  8
0
 10
650.27307692307693
 20
145.20384615384614
 42
1
  0
VERTEX
  8
0
 10
650.27307692307693
 20
175.20384615384614
 42
1
  0
SEQEND
  0
POLYLINE
  8
0
 10
0
 20
0
 39
0
 70
1
 66
1
  0
VERTEX
  8
0
 10
960.55057692307696
 20
185.20384615384617
 42
-0
  0
VERTEX
  8
0
 10
960.55057692307696
 20
35.203846153846172
 42
-1
  0
VERTEX
  8
0
 10
910.55057692307696
 20
35.203846153846172
 42
0
  0
VERTEX
  8
0
 10
910.55057692307696
 20
135.20384615384617
 42
0
  0
VERTEX
  8
0
 10
710.55057692307696
 20
135.2038461538462
 42
-1
  0
VERTEX
  8
0
 10
710.55057692307696
 20
185.20384615384617
 42
0
  0
SEQEND
  0
POLYLINE
  8
0
 10
0
 20
0
 39
0
 70
1
 66
1
  0
VERTEX
  8
0
 10
935.55057692307696
 20
50.203846153846172
 42
1
  0
VERTEX
  8
0
 10
935.55057692307696
 20
20.203846153846172
 42
1
  0
SEQEND
  0
POLYLINE
  8
0
 10
0
 20
0
 39
0
 70
1
 66
1
  0
VERTEX
  8
0
 10
448.30000000000001
 20
550.74230769230769
 42
-0
  0
VERTEX
  8
0
 10
448.30000000000001
 20
400.74230769230769
 42
-1
  0
VERTEX
  8
0
 10
398.30000000000007
 20
400.74230769230769
 42
0
  0
VERTEX
  8
0
 10
398.30000000000001
 20
500.74230769230769
 42
0
  0
VERTEX
  8
0
 10
198.30000000000001
 20
500.74230769230763
 42
-1
  0
VERTEX
  8
0
 10
198.30000000000001
 20
550.74230769230758
 42
0
  0
SEQEND
  0
POLYLINE
  8
0
 10
0
 20
0
 39
0
 70
1
 66
1
  0
VERTEX
  8
0
 10
423.30000000000001
 20
415.74230769230769
 42
1
  0
VERTEX
  8
0
 10
423.30000000000007
 20
385.74230769230769
 42
1
  0
SEQEND
  0
POLYLINE
  8
0
 10
0
 20
0
 39
0
 70
1
 66
1
  0
VERTEX
  8
0
 10
507.96923076923076
 20
141.3153846153846
 42
-0
  0
VERTEX
  8
0
 10
357.96923076923076
 20
141.3153846153846
 42
-1
  0
VERTEX
  8
0
 10
357.96923076923076
 20
191.3153846153846
 42
0
  0
VERTEX
  8
0
 10
457.96923076923076
 20
191.3153846153846
 42
0
  0
VERTEX
  8
0
 10
457.96923076923076
 20
391.31538461538457
 42
-1
  0
VERTEX
  8
0
 10
507.96923076923076
 20
391.31538461538457
 42
0
  0
SEQEND
  0
POLYLINE
  8
0
 10
0
 20
0
 39
0
 70
1
 66
1
  0
VERTEX
  8
0
 10
372.96923076923076
 20
166.3153846153846
 42
1
  0
VERTEX
  8
0
 10
342.96923076923076
 20
166.3153846153846
 42
1
  0
SEQEND
  0
POLYLINE
  8
0
 10
0
 20
0
 39
0
 70
1
 66
1
  0
VERTEX
  8
0
 10
624.97692307692307
 20
889.7538461538461
 42
-0
  0
VERTEX
  8
0
 10
624.97692307692307
 20
739.7538461538461
 42
-1
  0
VERTEX
  8
0
 10
574.97692307692307
 20
739.7538461538461
 42
0
  0
VERTEX
  8
0
 10
574.97692307692307
 20
839.7538461538461
 42
0
  0
VERTEX
  8
0
 10
374.97692307692307
 20
839.7538461538461
 42
-1
  0
VERTEX
  8
0
 10
374.97692307692307
 20
889.75384615384598
 42
0
  0
SEQEND
  0
POLYLINE
  8
0
 10
0
 20
0
 39
0
 70
1
 66
1
  0
VERTEX
  8
0
 10
599.97692307692307
 20
754.7538461538461
 42
1
  0
VERTEX
  8
0
 10
599.97692307692307
 20
724.7538461538461
 42
1
  0
SEQEND
  0
POLYLINE
  8
0
 10
0
 20
0
 39
0
 70
1
 66
1
  0
VERTEX
  8
0
 10
1067.5576923076924
 20
780.09230769230771
 42
-0
  0
VERTEX
  8
0
 10
1067.5576923076924
 20
630.09230769230771
 42
-1
  0
VERTEX
  8
0
 10
1017.5576923076924
 20
630.09230769230771
 42
0
  0
VERTEX
  8
0
 10
1017.5576923076924
 20
730.09230769230771
 42
0
  0
VERTEX
  8
0
 10
817.55769230769238
 20
730.09230769230771
 42
-1
  0
VERTEX
  8
0
 10
817.55769230769238
 20
780.0923076923076
 42
0
  0
SEQEND
  0
POLYLINE
  8
0
 10
0
 20
0
 39
0
 70
1
 66
1
  0
VERTEX
  8
0
 10
1042.5576923076924
 20
645.09230769230771
 42
1
  0
VERTEX
  8
0
 10
1042.5576923076924
 20
615.09230769230771
 42
1
  0
SEQEND
  0
POLYLINE
  8
0
 10
0
 20
0
 39
0
 70
1
 66
1
  0
VERTEX
  8
0
 10
1127.226923076923
 20
370.6653846153846
 42
-0
  0
VERTEX
  8
0
 10
977.22692307692296
 20
370.6653846153846
 42
-1
  0
VERTEX
  8
0
 10
977.22692307692296
 20
420.6653846153846
 42
0
  0
VERTEX
  8
0
 10
1077.226923076923
 20
420.6653846153846
 42
0
  0
VERTEX
  8
0
 10
1077.226923076923
 20
620.6653846153846
 42
-1
  0
VERTEX
  8
0
 10
1127.226923076923
 20
620.6653846153846
 42
0
  0
SEQEND
  0
POLYLINE
  8
0
 10
0
 20
0
 39
0
 70
1
 66
1
  0
VERTEX
  8
0
 10
992.22692307692296
 20
395.6653846153846
 42
1
  0
VERTEX
  8
0
 10
962.22692307692296
 20
395.6653846153846
 42
1
  0
SEQEND
  0
POLYLINE
  8
0
 10
0
 20
0
 39
0
 70
1
 66
1
  0
VERTEX
  8
0
 10
1610.4230769230769
 20
10.203846153846154
 42
-0
  0
VERTEX
  8
0
 10
1460.4230769230769
 20
10.203846153846154
 42
-1
  0
VERTEX
  8
0
 10
1460.4230769230769
 20
60.203846153846158
 42
0
  0
VERTEX
  8
0
 10
1560.4230769230769
 20
60.203846153846158
 42
0
  0
VERTEX
  8
0
 10
1560.4230769230769
 20
260.20384615384614
 42
-1
  0
VERTEX
  8
0
 10
1610.4230769230769
 20
260.20384615384614
 42
0
  0
SEQEND
  0
POLYLINE
  8
0
 10
0
 20
0
 39
0
 70
1
 66
1
  0
VERTEX
  8
0
 10
1475.4230769230769
 20
35.203846153846158
 42
1
  0
VERTEX
  8
0
 10
1445.4230769230769
 20
35.203846153846158
 42
1
  0
SEQEND
  0
POLYLINE
  8
0
 10
0
 20
0
 39
0
 70
1
 66
1
  0
VERTEX
  8
0
 10
328.49519833807301
 20
331.88289802283157
 42
-1
  0
VERTEX
  8
0
 10
128.49710568670579
 20
332.75555984810103
 42
-1
  0
SEQEND
  0
POLYLINE
  8
0
 10
0
 20
0
 39
0
 70
1
 66
1
  0
VERTEX
  8
0
 10
294.08871935195924
 20
360.95898438264396
 42
1
  0
VERTEX
  8
0
 10
264.08900545425416
 20
361.08988365643438
 42
-0
  0
VERTEX
  8
0
 10
263.91447309336144
 20
321.09026607982616
 42
-0
  0
VERTEX
  8
0
 10
192.98118961138172
 20
321.39977287469162
 42
0
  0
VERTEX
  8
0
 10
193.15572197227442
 20
361.39939045129984
 42
1
  0
VERTEX
  8
0
 10
163.15600807456934
 20
361.53028972509026
 42
0
  0
VERTEX
  8
0
 10
162.86802968055278
 20
295.53092105746953
 42
0
  0
VERTEX
  8
0
 10
293.80074095794271
 20
294.95961571502323
 42
0
  0
SEQEND
  0
POLYLINE
  8
0
 10
0
 20
0
 39
0
 70
1
 66
1
  0
VERTEX
  8
0
 10
947.75289064576521
 20
561.23289802283159
 42
-1
  0
VERTEX
  8
0
 10
747.75479799439802
 20
562.10555984810105
 42
-1
  0
SEQEND
  0
POLYLINE
  8
0
 10
0
 20
0
 39
0
 70
1
 66
1
  0
VERTEX
  8
0
 10
913.34641165965149
 20
590.30898438264398
 42
1
  0
VERTEX
  8
0
 10
883.34669776194642
 20
590.4398836564344
 42
-0
  0
VERTEX
  8
0
 10
883.17216540105369
 20
550.44026607982619
 42
-0
  0
VERTEX
  8
0
 10
812.23888191907395
 20
550.74977287469164
 42
0
  0
VERTEX
  8
0
 10
812.41341427996667
 20
590.74939045129986
 42
1
  0
VERTEX
  8
0
 10
782.4137003822616
 20
590.88028972509028
 42
0
  0
VERTEX
  8
0
 10
782.125721988245
 20
524.88092105746955
 42
0
  0
VERTEX
  8
0
 10
913.0584332656349
 20
524.30961571502326
 42
0
  0
SEQEND
  0
POLYLINE
  8
0
 10
0
 20
0
 39
0
 70
1
 66
1
  0
VERTEX
  8
0
 10
1342.1028906457655
 20
166.62905186898541
 42
-1
  0
VERTEX
  8
0
 10
1142.1047979943983
 20
167.50171369425487
 42
-1
  0
SEQEND
  0
POLYLINE
  8
0
 10
0
 20
0
 39
0
 70
1
 66
1
  0
VERTEX
  8
0
 10
1307.6964116596516
 20
195.70513822879778
 42
1
  0
VERTEX
  8
0
 10
1277.6966977619466
 20
195.8360375025882
 42
-0
  0
VERTEX
  8
0
 10
1277.5221654010538
 20
155.83641992597998
 42
-0
  0
VERTEX
  8
0
 10
1206.5888819190741
 20
156.14592672084549
 42
0
  0
VERTEX
  8
0
 10
1206.7634142799668
 20
196.14554429745371
 42
1
  0
VERTEX
  8
0
 10
1176.7637003822617
 20
196.27644357124413
 42
0
  0
VERTEX
  8
0
 10
1176.4757219882454
 20
130.2770749036234
 42
0
  0
VERTEX
  8
0
 10
1307.4084332656353
 20
129.70576956117705
 42
0
  0
SEQEND
  0
POLYLINE
  8
0
 10
0
 20
0
 39
0
 70
1
 66
1
  0
VERTEX
  8
0
 10
1513.4490444919193
 20
730.92905186898543
 42
-1
  0
VERTEX
  8
0
 10
1313.4509518405521
 20
731.80171369425489
 42
-1
  0
SEQEND
  0
POLYLINE
  8
0
 10
0
 20
0
 39
0
 70
1
 66
1
  0
VERTEX
  8
0
 10
1479.0425655058054
 20
760.00513822879782
 42
1
  0
VERTEX
  8
0
 10
1449.0428516081004
 20
760.13603750258824
 42
-0
  0
VERTEX
  8
0
 10
1448.8683192472076
 20
720.13641992598002
 42
-0
  0
VERTEX
  8
0
 10
1377.9350357652279
 20
720.44592672084548
 42
0
  0
VERTEX
  8
0
 10
1378.1095681261206
 20
760.44554429745369
 42
1
  0
VERTEX
  8
0
 10
1348.1098542284155
 20
760.57644357124411
 42
0
  0
VERTEX
  8
0
 10
1347.8218758343992
 20
694.57707490362338
 42
0
  0
VERTEX
  8
0
 10
1478.7545871117891
 20
694.00576956117709
 42
0
  0
SEQEND
  0
POLYLINE
  8
0
 10
0
 20
0
 39
0
 70
1
 66
1
  0
VERTEX
  8
0
 10
1559.395198338073
 20
408.79828263821616
 42
-1
  0
VERTEX
  8
0
 10
1359.3971056867058
 20
409.67094446348563
 42
-1
  0
SEQEND
  0
POLYLINE
  8
0
 10
0
 20
0
 39
0
 70
1
 66
1
  0
VERTEX
  8
0
 10
1524.9887193519592
 20
437.87436899802856
 42
1
  0
VERTEX
  8
0
 10
1494.9890054542541
 20
438.00526827181898
 42
-0
  0
VERTEX
  8
0
 10
1494.8144730933614
 20
398.00565069521076
 42
-0
  0
VERTEX
  8
0
 10
1423.8811896113816
 20
398.31515749007622
 42
0
  0
VERTEX
  8
0
 10
1424.0557219722743
 20
438.31477506668443
 42
1
  0
VERTEX
  8
0
 10
1394.0560080745693
 20
438.44567434047485
 42
0
  0
VERTEX
  8
0
 10
1393.7680296805529
 20
372.44630567285412
 42
0
  0
VERTEX
  8
0
 10
1524.7007409579428
 20
371.87500033040783
 42
0
  0
SEQEND
  0
POLYLINE
  8
0
 10
0
 20
0
 39
0
 70
1
 66
1
  0
VERTEX
  8
0
 10
355.68846153846152
 20
669.82307692307688
 42
-0
  0
VERTEX
  8
0
 10
355.68846153846152
 20
804.82307692307688
 42
0
  0
VERTEX
  8
0
 10
465.68846153846152
 20
669.82307692307688
 42
0
  0
SEQEND
  0
POLYLINE
  8
0
 10
0
 20
0
 39
0
 70
1
 66
1
  0
VERTEX
  8
0
 10
390.29037499060996
 20
688.28351660508372
 42
1
  0
VERTEX
  8
0
 10
390.29037499060996
 20
728.28351851243235
 42
1
  0
SEQEND
  0
POLYLINE
  8
0
 10
0
 20
0
 39
0
 70
1
 66
1
  0
VERTEX
  8
0
 10
478.78196153846153
 20
804.82307692307688
 42
-0
  0
VERTEX
  8
0
 10
478.78196153846153
 20
669.82307692307688
 42
0
  0
VERTEX
  8
0
 10
368.78196153846153
 20
804.82307692307688
 42
0
  0
SEQEND
  0
POLYLINE
  8
0
 10
0
 20
0
 39
0
 70
1
 66
1
  0
VERTEX
  8
0
 10
444.18004808631309
 20
786.36263724107005
 42
1
  0
VERTEX
  8
0
 10
444.18004808631309
 20
746.36263533372141
 42
1
  0
SEQEND
  0
POLYLINE
  8
0
 10
0
 20
0
 39
0
 70
1
 66
1
  0
VERTEX
  8
0
 10
1414.3538461538462
 20
70.365384615384613
 42
-0
  0
VERTEX
  8
0
 10
1414.3538461538462
 20
205.36538461538461
 42
0
  0
VERTEX
  8
0
 10
1524.3538461538462
 20
70.365384615384627
 42
0
  0
SEQEND
  0
POLYLINE
  8
0
 10
0
 20
0
 39
0
 70
1
 66
1
  0
VERTEX
  8
0
 10
1448.9557596059947
 20
88.825824297391449
 42
1
  0
VERTEX
  8
0
 10
1448.9557596059947
 20
128.82582620474008
 42
1
  0
SEQEND
  0
POLYLINE
  8
0
 10
0
 20
0
 39
0
 70
1
 66
1
  0
VERTEX
  8
0
 10
1537.4473461538462
 20
205.36538461538461
 42
-0
  0
VERTEX
  8
0
 10
1537.4473461538462
 20
70.365384615384613
 42
0
  0
VERTEX
  8
0
 10
1427.4473461538462
 20
205.36538461538461
 42
0
  0
SEQEND
  0
POLYLINE
  8
0
 10
0
 20
0
 39
0
 70
1
 66
1
  0
VERTEX
  8
0
 10
1502.8454327016977
 20
186.90494493337778
 42
1
  0
VERTEX
  8
0
 10
1502.8454327016977
 20
146.90494302602914
 42
1
  0
SEQEND
  0
POLYLINE
  8
0
 10
0
 20
0
 39
0
 70
1
 66
1
  0
VERTEX
  8
0
 10
10.203846153846161
 20
10.203846153846154
 42
-0
  0
VERTEX
  8
0
 10
10.203846153846152
 20
145.20384615384614
 42
0
  0
VERTEX
  8
0
 10
120.20384615384616
 20
10.203846153846168
 42
0
  0
SEQEND
  0
POLYLINE
  8
0
 10
0
 20
0
 39
0
 70
1
 66
1
  0
VERTEX
  8
0
 10
44.805759605994595
 20
28.664285835852994
 42
1
  0
VERTEX
  8
0
 10
44.805759605994595
 20
68.664287743201626
 42
1
  0
SEQEND
  0
POLYLINE
  8
0
 10
0
 20
0
 39
0
 70
1
 66
1
  0
VERTEX
  8
0
 10
10.203846153846154
 20
612.91923076923081
 42
-0
  0
VERTEX
  8
0
 10
145.20384615384614
 20
612.91923076923081
 42
0
  0
VERTEX
  8
0
 10
10.203846153846174
 20
502.91923076923081
 42
0
  0
SEQEND
  0
POLYLINE
  8
0
 10
0
 20
0
 39
0
 70
1
 66
1
  0
VERTEX
  8
0
 10
28.664285835852994
 20
578.31731731708237
 42
1
  0
VERTEX
  8
0
 10
68.664287743201626
 20
578.31731731708237
 42
1
  0
SEQEND
  0
POLYLINE
  8
0
 10
0
 20
0
 39
0
 70
1
 66
1
  0
VERTEX
  8
0
 10
458.49615384615385
 20
426.38461538461536
 42
-0
  0
VERTEX
  8
0
 10
458.49615384615385
 20
561.38461538461536
 42
0
  0
VERTEX
  8
0
 10
568.4961538461539
 20
426.38461538461536
 42
0
  0
SEQEND
  0
POLYLINE
  8
0
 10
0
 20
0
 39
0
 70
1
 66
1
  0
VERTEX
  8
0
 10
493.09806729830228
 20
444.84505506662219
 42
1
  0
VERTEX
  8
0
 10
493.09806729830228
 20
484.84505697397083
 42
1
  0
SEQEND
  0
POLYLINE
  8
0
 10
0
 20
0
 39
0
 70
1
 66
1
  0
VERTEX
  8
0
 10
598.95769230769224
 20
677.39230769230767
 42
-0
  0
VERTEX
  8
0
 10
598.95769230769224
 20
542.39230769230767
 42
0
  0
VERTEX
  8
0
 10
488.95769230769224
 20
677.39230769230767
 42
0
  0
SEQEND
  0
POLYLINE
  8
0
 10
0
 20
0
 39
0
 70
1
 66
1
  0
VERTEX
  8
0
 10
564.3557788555438
 20
658.93186801030083
 42
1
  0
VERTEX
  8
0
 10
564.3557788555438
 20
618.9318661029522
 42
1
  0
SEQEND
  0
POLYLINE
  8
0
 10
0
 20
0
 39
0
 70
1
 66
1
  0
VERTEX
  8
0
 10
270.36538461538464
 20
730.36538461538464
 42
-0
  0
VERTEX
  8
0
 10
70.365384615384642
 20
730.36538461538464
 42
0
  0
VERTEX
  8
0
 10
70.365384615384642
 20
780.36538461538464
 42
0
  0
VERTEX
  8
0
 10
270.36538461538464
 20
780.36538461538464
 42
0
  0
SEQEND
  0
POLYLINE
  8
0
 10
0
 20
0
 39
0
 70
1
 66
1
  0
VERTEX
  8
0
 10
233.6920600304237
 20
755.36538461538464
 42
1
  0
VERTEX
  8
0
 10
203.6920600304237
 20
755.36538461538464
 42
1
  0
SEQEND
  0
POLYLINE
  8
0
 10
0
 20
0
 39
0
 70
1
 66
1
  0
VERTEX
  8
0
 10
885.43461538461543
 20
70.365384615384613
 42
-0
  0
VERTEX
  8
0
 10
685.43461538461543
 20
70.365384615384613
 42
0
  0
VERTEX
  8
0
 10
685.43461538461543
 20
120.36538461538461
 42
0
  0
VERTEX
  8
0
 10
885.43461538461543
 20
120.36538461538461
 42
0
  0
SEQEND
  0
POLYLINE
  8
0
 10
0
 20
0
 39
0
 70
1
 66
1
  0
VERTEX
  8
0
 10
848.76129079965449
 20
95.365384615384613
 42
1
  0
VERTEX
  8
0
 10
818.76129079965449
 20
95.365384615384613
 42
1
  0
SEQEND
  0
POLYLINE
  8
0
 10
0
 20
0
 39
0
 70
1
 66
1
  0
VERTEX
  8
0
 10
970.75769230769231
 20
10.203846153846154
 42
-0
  0
VERTEX
  8
0
 10
970.75769230769231
 20
210.20384615384614
 42
0
  0
VERTEX
  8
0
 10
1020.7576923076923
 20
210.20384615384614
 42
0
  0
VERTEX
  8
0
 10
1020.7576923076923
 20
10.203846153846159
 42
0
  0
SEQEND
  0
POLYLINE
  8
0
 10
0
 20
0
 39
0
 70
1
 66
1
  0
VERTEX
  8
0
 10
995.75769230769231
 20
46.877170738807095
 42
1
  0
VERTEX
  8
0
 10
995.75769230769231
 20
76.877170738807095
 42
1
  0
SEQEND
  0
POLYLINE
  8
0
 10
0
 20
0
 39
0
 70
1
 66
1
  0
VERTEX
  8
0
 10
1137.4076923076923
 20
449.99230769230769
 42
-0
  0
VERTEX
  8
0
 10
1137.4076923076923
 20
649.99230769230769
 42
0
  0
VERTEX
  8
0
 10
1187.4076923076923
 20
649.99230769230769
 42
0
  0
VERTEX
  8
0
 10
1187.4076923076923
 20
449.99230769230769
 42
0
  0
SEQEND
  0
POLYLINE
  8
0
 10
0
 20
0
 39
0
 70
1
 66
1
  0
VERTEX
  8
0
 10
1162.4076923076923
 20
486.66563227726863
 42
1
  0
VERTEX
  8
0
 10
1162.4076923076923
 20
516.66563227726863
 42
1
  0
SEQEND
  0
POLYLINE
  8
0
 10
0
 20
0
 39
0
 70
1
 66
1
  0
VERTEX
  8
0
 10
1585.7
 20
525.38461538461536
 42
-0
  0
VERTEX
  8
0
 10
1585.7
 20
725.38461538461536
 42
0
  0
VERTEX
  8
0
 10
1635.7
 20
725.38461538461536
 42
0
  0
VERTEX
  8
0
 10
1635.7
 20
525.38461538461536
 42
0
  0
SEQEND
  0
POLYLINE
  8
0
 10
0
 20
0
 39
0
 70
1
 66
1
  0
VERTEX
  8
0
 10
1610.7
 20
562.0579399695763
 42
1
  0
VERTEX
  8
0
 10
1610.7
 20
592.0579399695763
 42
1
  0
SEQEND
  0
POLYLINE
  8
0
 10
0
 20
0
 39
0
 70
1
 66
1
  0
VERTEX
  8
0
 10
280.31395017183746
 20
89.906712470125214
 42
-0.35889896750450134
  0
VERTEX
  8
0
 10
254.87835370577298
 20
89.9067124701252
 42
0
  0
VERTEX
  8
0
 10
221.23725472963773
 20
117.62450879580879
 42
-0.22404870390892029
  0
VERTEX
  8
0
 10
217.59615384615384
 20
125.34230512149239
 42
-0
  0
VERTEX
  8
0
 10
217.59615384615384
 20
165.34230512149239
 42
-0
  0
VERTEX
  8
0
 10
317.59615384615381
 20
165.34230512149239
 42
-0
  0
VERTEX
  8
0
 10
317.59615384615381
 20
125.3423051214924
 42
-0.22404871881008148
  0
VERTEX
  8
0
 10
313.95505582369287
 20
117.62450879580881
 42
0
  0
SEQEND
  0
POLYLINE
  8
0
 10
0
 20
0
 39
0
 70
1
 66
1
  0
VERTEX
  8
0
 10
252.59615384615384
 20
105.34230512149239
 42
1
  0
VERTEX
  8
0
 10
282.59615384615387
 20
105.34230512149239
 42
1
  0
SEQEND
  0
POLYLINE
  8
0
 10
0
 20
0
 39
0
 70
1
 66
1
  0
VERTEX
  8
0
 10
710.60866957444409
 20
821.3870270949144
 42
-0.35889896750450134
  0
VERTEX
  8
0
 10
710.60866957444409
 20
795.95143062884995
 42
0
  0
VERTEX
  8
0
 10
682.8908732487605
 20
762.31033165271469
 42
-0.22404870390892029
  0
VERTEX
  8
0
 10
675.17307692307691
 20
758.66923076923081
 42
-0
  0
VERTEX
  8
0
 10
635.17307692307691
 20
758.66923076923081
 42
-0
  0
VERTEX
  8
0
 10
635.17307692307691
 20
858.66923076923081
 42
-0
  0
VERTEX
  8
0
 10
675.17307692307691
 20
858.66923076923081
 42
-0.22404871881008148
  0
VERTEX
  8
0
 10
682.8908732487605
 20
855.02813274676987
 42
0
  0
SEQEND
  0
POLYLINE
  8
0
 10
0
 20
0
 39
0
 70
1
 66
1
  0
VERTEX
  8
0
 10
695.17307692307691
 20
793.66923076923081
 42
1
  0
VERTEX
  8
0
 10
695.17307692307691
 20
823.66923076923081
 42
1
  0
SEQEND
  0
POLYLINE
  8
0
 10
0
 20
0
 39
0
 70
1
 66
1
  0
VERTEX
  8
0
 10
663.59902016243291
 20
232.53989598200894
 42
-0.35889896750450134
  0
VERTEX
  8
0
 10
663.59902016243291
 20
257.9754924480734
 42
0
  0
VERTEX
  8
0
 10
691.3168164881165
 20
291.61659142420865
 42
-0.22404870390892029
  0
VERTEX
  8
0
 10
699.03461281380009
 20
295.25769230769254
 42
-0
  0
VERTEX
  8
0
 10
739.03461281380009
 20
295.25769230769254
 42
-0
  0
VERTEX
  8
0
 10
739.03461281380009
 20
195.25769230769254
 42
-0
  0
VERTEX
  8
0
 10
699.03461281380009
 20
195.25769230769254
 42
-0.22404871881008148
  0
VERTEX
  8
0
 10
691.3168164881165
 20
198.89879033015347
 42
0
  0
SEQEND
  0
POLYLINE
  8
0
 10
0
 20
0
 39
0
 70
1
 66
1
  0
VERTEX
  8
0
 10
679.03461281380009
 20
260.25769230769254
 42
1
  0
VERTEX
  8
0
 10
679.03461281380009
 20
230.25769230769254
 42
1
  0
SEQEND
  0
POLYLINE
  8
0
 10
0
 20
0
 39
0
 70
1
 66
1
  0
VERTEX
  8
0
 10
899.57164247952971
 20
319.25671247012519
 42
-0.35889896750450134
  0
VERTEX
  8
0
 10
874.13604601346526
 20
319.25671247012519
 42
0
  0
VERTEX
  8
0
 10
840.49494703733001
 20
346.97450879580879
 42
-0.22404870390892029
  0
VERTEX
  8
0
 10
836.85384615384612
 20
354.69230512149238
 42
-0
  0
VERTEX
  8
0
 10
836.85384615384612
 20
394.69230512149238
 42
-0
  0
VERTEX
  8
0
 10
936.85384615384612
 20
394.69230512149238
 42
-0
  0
VERTEX
  8
0
 10
936.85384615384612
 20
354.69230512149238
 42
-0.22404871881008148
  0
VERTEX
  8
0
 10
933.21274813138518
 20
346.97450879580879
 42
0
  0
SEQEND
  0
POLYLINE
  8
0
 10
0
 20
0
 39
0
 70
1
 66
1
  0
VERTEX
  8
0
 10
871.85384615384612
 20
334.69230512149238
 42
1
  0
VERTEX
  8
0
 10
901.85384615384612
 20
334.69230512149238
 42
1
  0
SEQEND
  0
POLYLINE
  8
0
 10
0
 20
0
 39
0
 70
1
 66
1
  0
VERTEX
  8
0
 10
1106.354823420598
 20
72.921642479529751
 42
-0.35889896750450134
  0
VERTEX
  8
0
 10
1106.354823420598
 20
47.486046013465298
 42
0
  0
VERTEX
  8
0
 10
1078.6370270949144
 20
13.844947037330044
 42
-0.22404870390892029
  0
VERTEX
  8
0
 10
1070.9192307692308
 20
10.203846153846156
 42
-0
  0
VERTEX
  8
0
 10
1030.9192307692308
 20
10.203846153846154
 42
-0
  0
VERTEX
  8
0
 10
1030.9192307692308
 20
110.20384615384616
 42
-0
  0
VERTEX
  8
0
 10
1070.9192307692308
 20
110.20384615384616
 42
-0.22404871881008148
  0
VERTEX
  8
0
 10
1078.6370270949144
 20
106.56274813138522
 42
0
  0
SEQEND
  0
POLYLINE
  8
0
 10
0
 20
0
 39
0
 70
1
 66
1
  0
VERTEX
  8
0
 10
1090.9192307692308
 20
45.203846153846158
 42
1
  0
VERTEX
  8
0
 10
1090.9192307692308
 20
75.203846153846158
 42
1
  0
SEQEND
  0
POLYLINE
  8
0
 10
0
 20
0
 39
0
 70
1
 66
1
  0
VERTEX
  8
0
 10
1153.1894388052133
 20
718.45241171029897
 42
-0.35889896750450134
  0
VERTEX
  8
0
 10
1153.1894388052133
 20
693.01681524423452
 42
0
  0
VERTEX
  8
0
 10
1125.4716424795297
 20
659.37571626809927
 42
-0.22404870390892029
  0
VERTEX
  8
0
 10
1117.7538461538461
 20
655.73461538461538
 42
-0
  0
VERTEX
  8
0
 10
1077.7538461538461
 20
655.73461538461538
 42
-0
  0
VERTEX
  8
0
 10
1077.7538461538461
 20
755.73461538461538
 42
-0
  0
VERTEX
  8
0
 10
1117.7538461538461
 20
755.73461538461538
 42
-0.22404871881008148
  0
VERTEX
  8
0
 10
1125.4716424795297
 20
752.09351736215444
 42
0
  0
SEQEND
  0
POLYLINE
  8
0
 10
0
 20
0
 39
0
 70
1
 66
1
  0
VERTEX
  8
0
 10
1137.7538461538461
 20
690.73461538461538
 42
1
  0
VERTEX
  8
0
 10
1137.7538461538461
 20
720.73461538461538
 42
1
  0
SEQEND
  0
POLYLINE
  8
0
 10
0
 20
0
 39
0
 70
1
 66
1
  0
VERTEX
  8
0
 10
1204.1870270949144
 20
814.25671247012519
 42
-0.35889896750450134
  0
VERTEX
  8
0
 10
1178.7514306288499
 20
814.25671247012519
 42
0
  0
VERTEX
  8
0
 10
1145.1103316527146
 20
841.97450879580879
 42
-0.22404870390892029
  0
VERTEX
  8
0
 10
1141.4692307692308
 20
849.69230512149238
 42
-0
  0
VERTEX
  8
0
 10
1141.4692307692308
 20
889.69230512149238
 42
-0
  0
VERTEX
  8
0
 10
1241.4692307692308
 20
889.69230512149238
 42
-0
  0
VERTEX
  8
0
 10
1241.4692307692308
 20
849.69230512149238
 42
-0.22404871881008148
  0
VERTEX
  8
0
 10
1237.8281327467698
 20
841.97450879580879
 42
0
  0
SEQEND
  0
POLYLINE
  8
0
 10
0
 20
0
 39
0
 70
1
 66
1
  0
VERTEX
  8
0
 10
1176.4692307692308
 20
829.69230512149238
 42
1
  0
VERTEX
  8
0
 10
1206.4692307692308
 20
829.69230512149238
 42
1
  0
SEQEND
  0
POLYLINE
  8
0
 10
0
 20
0
 39
0
 70
1
 66
1
  0
VERTEX
  8
0
 10
1556.5028663162791
 20
826.9206652127782
 42
-0.35889896750450134
  0
VERTEX
  8
0
 10
1556.5028663162791
 20
852.35626167884266
 42
0
  0
VERTEX
  8
0
 10
1584.2206626419627
 20
885.99736065497791
 42
-0.22404870390892029
  0
VERTEX
  8
0
 10
1591.9384589676463
 20
889.6384615384618
 42
-0
  0
VERTEX
  8
0
 10
1631.9384589676463
 20
889.6384615384618
 42
-0
  0
VERTEX
  8
0
 10
1631.9384589676463
 20
789.6384615384618
 42
-0
  0
VERTEX
  8
0
 10
1591.9384589676463
 20
789.6384615384618
 42
-0.22404871881008148
  0
VERTEX
  8
0
 10
1584.2206626419627
 20
793.27955956092273
 42
0
  0
SEQEND
  0
POLYLINE
  8
0
 10
0
 20
0
 39
0
 70
1
 66
1
  0
VERTEX
  8
0
 10
1571.9384589676463
 20
854.6384615384618
 42
1
  0
VERTEX
  8
0
 10
1571.9384589676463
 20
824.6384615384618
 42
1
  0
SEQEND
  0
POLYLINE
  8
0
 10
0
 20
0
 39
0
 70
1
 66
1
  0
VERTEX
  8
0
 10
488.9576923076923
 20
687.46538461538455
 42
-0
  0
VERTEX
  8
0
 10
488.9576923076923
 20
787.46538461538455
 42
0
  0
VERTEX
  8
0
 10
538.95769230769224
 20
787.46538461538455
 42
0
  0
VERTEX
  8
0
 10
538.95769230769224
 20
687.46538461538455
 42
0
  0
SEQEND
  0
POLYLINE
  8
0
 10
0
 20
0
 39
0
 70
1
 66
1
  0
VERTEX
  8
0
 10
513.95769230769224
 20
707.87144769521854
 42
-0
  0
VERTEX
  8
0
 10
526.95769230769224
 20
707.87144769521854
 42
-0
  0
VERTEX
  8
0
 10
526.95769230769224
 20
767.05932535024783
 42
0
  0
VERTEX
  8
0
 10
513.95769230769224
 20
767.05932535024783
 42
0
  0
VERTEX
  8
0
 10
500.9576923076923
 20
767.05932535024783
 42
0
  0
VERTEX
  8
0
 10
500.9576923076923
 20
707.87144769521854
 42
0
  0
SEQEND
  0
POLYLINE
  8
0
 10
0
 20
0
 39
0
 70
1
 66
1
  0
VERTEX
  8
0
 10
518.14999999999998
 20
220.6423076923077
 42
-0
  0
VERTEX
  8
0
 10
518.14999999999998
 20
320.64230769230767
 42
0
  0
VERTEX
  8
0
 10
568.14999999999998
 20
320.64230769230767
 42
0
  0
VERTEX
  8
0
 10
568.14999999999998
 20
220.6423076923077
 42
0
  0
SEQEND
  0
POLYLINE
  8
0
 10
0
 20
0
 39
0
 70
1
 66
1
  0
VERTEX
  8
0
 10
543.14999999999998
 20
241.04837077214168
 42
-0
  0
VERTEX
  8
0
 10
556.14999999999998
 20
241.04837077214168
 42
-0
  0
VERTEX
  8
0
 10
556.14999999999998
 20
300.23624842717095
 42
0
  0
VERTEX
  8
0
 10
543.14999999999998
 20
300.23624842717095
 42
0
  0
VERTEX
  8
0
 10
530.14999999999998
 20
300.23624842717095
 42
0
  0
VERTEX
  8
0
 10
530.14999999999998
 20
241.04837077214168
 42
0
  0
SEQEND
  0
POLYLINE
  8
0
 10
0
 20
0
 39
0
 70
1
 66
1
  0
VERTEX
  8
0
 10
849.27692307692303
 20
195.25769230769231
 42
-0
  0
VERTEX
  8
0
 10
749.27692307692303
 20
195.25769230769231
 42
0
  0
VERTEX
  8
0
 10
749.27692307692303
 20
245.25769230769231
 42
0
  0
VERTEX
  8
0
 10
849.27692307692303
 20
245.25769230769231
 42
0
  0
SEQEND
  0
POLYLINE
  8
0
 10
0
 20
0
 39
0
 70
1
 66
1
  0
VERTEX
  8
0
 10
828.87085999708904
 20
220.25769230769231
 42
-0
  0
VERTEX
  8
0
 10
828.87085999708904
 20
233.25769230769231
 42
-0
  0
VERTEX
  8
0
 10
769.68298234205974
 20
233.25769230769231
 42
0
  0
VERTEX
  8
0
 10
769.68298234205974
 20
220.25769230769231
 42
0
  0
VERTEX
  8
0
 10
769.68298234205974
 20
207.25769230769231
 42
0
  0
VERTEX
  8
0
 10
828.87085999708904
 20
207.25769230769231
 42
0
  0
SEQEND
  0
ENDSEC
  0
EOF
