  0
SECTION
  2
ENTITIES
  0
POLYLINE
  8
0
 10
0
 20
0
 39
0
 70
1
 66
1
  0
VERTEX
  8
0
 10
0
 20
0
 42
0
  0
VERTEX
  8
0
 10
2000
 20
0
 42
0
  0
VERTEX
  8
0
 10
2000
 20
900
 42
0
  0
VERTEX
  8
0
 10
0
 20
900
 42
0
  0
SEQEND
  0
POLYLINE
  8
0
 10
0
 20
0
 39
0
 70
1
 66
1
  0
VERTEX
  8
0
 10
10.399999999999977
 20
510.39999999999998
 42
-0
  0
VERTEX
  8
0
 10
1010.4
 20
510.39999999999998
 42
-0
  0
VERTEX
  8
0
 10
1010.4
 20
10.4
 42
-0
  0
VERTEX
  8
0
 10
10.399999999999977
 20
10.4
 42
-0
  0
SEQEND
  0
POLYLINE
  8
0
 10
0
 20
0
 39
0
 70
1
 66
1
  0
VERTEX
  8
0
 10
667.39999999999998
 20
260.39999999999998
 42
1
  0
VERTEX
  8
0
 10
353.39999999999998
 20
260.39999999999998
 42
1
  0
SEQEND
  0
POLYLINE
  8
0
 10
0
 20
0
 39
0
 70
1
 66
1
  0
VERTEX
  8
0
 10
910.39999999999998
 20
363.39999999999998
 42
-0
  0
VERTEX
  8
0
 10
760.39999999999998
 20
363.39999999999998
 42
-0
  0
VERTEX
  8
0
 10
760.39999999999998
 20
133.40000000000001
 42
0
  0
VERTEX
  8
0
 10
910.39999999999998
 20
133.40000000000001
 42
0
  0
SEQEND
  0
POLYLINE
  8
0
 10
0
 20
0
 39
0
 70
1
 66
1
  0
VERTEX
  8
0
 10
110.39999999999998
 20
363.39999999999998
 42
-0
  0
VERTEX
  8
0
 10
110.39999999999998
 20
133.40000000000001
 42
-0
  0
VERTEX
  8
0
 10
260.39999999999998
 20
133.40000000000001
 42
0
  0
VERTEX
  8
0
 10
260.39999999999998
 20
363.39999999999998
 42
0
  0
SEQEND
  0
POLYLINE
  8
0
 10
0
 20
0
 39
0
 70
1
 66
1
  0
VERTEX
  8
0
 10
1121.4726582450626
 20
889.79808907116035
 42
-1
  0
VERTEX
  8
0
 10
1119.7273345945237
 20
489.80190376842597
 42
-1
  0
SEQEND
  0
POLYLINE
  8
0
 10
0
 20
0
 39
0
 70
1
 66
1
  0
VERTEX
  8
0
 10
1121.2806726435033
 20
845.79850868785957
 42
1
  0
VERTEX
  8
0
 10
1119.9193201960829
 20
533.80148415172675
 42
1
  0
SEQEND
  0
POLYLINE
  8
0
 10
0
 20
0
 39
0
 70
1
 66
1
  0
VERTEX
  8
0
 10
1221.6726582450626
 20
410.39808907116037
 42
-1
  0
VERTEX
  8
0
 10
1219.9273345945237
 20
10.401903768425996
 42
-1
  0
SEQEND
  0
POLYLINE
  8
0
 10
0
 20
0
 39
0
 70
1
 66
1
  0
VERTEX
  8
0
 10
1221.4806726435033
 20
366.39850868785959
 42
1
  0
VERTEX
  8
0
 10
1220.119320196083
 20
54.401484151726777
 42
1
  0
SEQEND
  0
POLYLINE
  8
0
 10
0
 20
0
 39
0
 70
1
 66
1
  0
VERTEX
  8
0
 10
1494.0726582450627
 20
717.39808907116037
 42
-1
  0
VERTEX
  8
0
 10
1492.3273345945238
 20
317.401903768426
 42
-1
  0
SEQEND
  0
POLYLINE
  8
0
 10
0
 20
0
 39
0
 70
1
 66
1
  0
VERTEX
  8
0
 10
1493.8806726435034
 20
673.39850868785959
 42
1
  0
VERTEX
  8
0
 10
1492.5193201960831
 20
361.40148415172678
 42
1
  0
SEQEND
  0
POLYLINE
  8
0
 10
0
 20
0
 39
0
 70
1
 66
1
  0
VERTEX
  8
0
 10
10.400000000000016
 20
520.60000000000002
 42
-0
  0
VERTEX
  8
0
 10
10.4
 20
780.60000000000002
 42
-0
  0
VERTEX
  8
0
 10
73.400000000000006
 20
780.60000000000002
 42
0.41421356797218323
  0
VERTEX
  8
0
 10
140.40000000000001
 20
713.60000000000002
 42
0
  0
VERTEX
  8
0
 10
140.40000000000001
 20
520.60000000000002
 42
0
  0
SEQEND
  0
POLYLINE
  8
0
 10
0
 20
0
 39
0
 70
1
 66
1
  0
VERTEX
  8
0
 10
37.665836715698262
 20
540.27883110046389
 42
1
  0
VERTEX
  8
0
 10
37.665836715698255
 20
564.27883300781252
 42
1
  0
SEQEND
  0
POLYLINE
  8
0
 10
0
 20
0
 39
0
 70
1
 66
1
  0
VERTEX
  8
0
 10
150.80000000000004
 20
520.60000000000002
 42
-0
  0
VERTEX
  8
0
 10
150.80000000000001
 20
780.60000000000002
 42
-0
  0
VERTEX
  8
0
 10
213.80000000000001
 20
780.60000000000002
 42
0.41421356797218323
  0
VERTEX
  8
0
 10
280.80000000000007
 20
713.60000000000002
 42
0
  0
VERTEX
  8
0
 10
280.80000000000007
 20
520.60000000000002
 42
0
  0
SEQEND
  0
POLYLINE
  8
0
 10
0
 20
0
 39
0
 70
1
 66
1
  0
VERTEX
  8
0
 10
178.06583671569828
 20
540.27883110046389
 42
1
  0
VERTEX
  8
0
 10
178.06583671569828
 20
564.27883300781252
 42
1
  0
SEQEND
  0
POLYLINE
  8
0
 10
0
 20
0
 39
0
 70
1
 66
1
  0
VERTEX
  8
0
 10
291.19999999999999
 20
520.60000000000002
 42
-0
  0
VERTEX
  8
0
 10
291.19999999999999
 20
780.60000000000002
 42
-0
  0
VERTEX
  8
0
 10
354.19999999999999
 20
780.60000000000002
 42
0.41421356797218323
  0
VERTEX
  8
0
 10
421.19999999999999
 20
713.60000000000002
 42
0
  0
VERTEX
  8
0
 10
421.19999999999999
 20
520.60000000000002
 42
0
  0
SEQEND
  0
POLYLINE
  8
0
 10
0
 20
0
 39
0
 70
1
 66
1
  0
VERTEX
  8
0
 10
318.46583671569823
 20
540.27883110046389
 42
1
  0
VERTEX
  8
0
 10
318.46583671569823
 20
564.27883300781252
 42
1
  0
SEQEND
  0
POLYLINE
  8
0
 10
0
 20
0
 39
0
 70
1
 66
1
  0
VERTEX
  8
0
 10
559.39999999999998
 20
382.39999999999998
 42
-0
  0
VERTEX
  8
0
 10
559.39999999999998
 20
122.39999999999998
 42
-0
  0
VERTEX
  8
0
 10
496.40000000000003
 20
122.39999999999998
 42
0.41421356797218323
  0
VERTEX
  8
0
 10
429.39999999999998
 20
189.39999999999995
 42
0
  0
VERTEX
  8
0
 10
429.39999999999998
 20
382.39999999999992
 42
0
  0
SEQEND
  0
POLYLINE
  8
0
 10
0
 20
0
 39
0
 70
1
 66
1
  0
VERTEX
  8
0
 10
532.13416328430174
 20
362.72116889953611
 42
1
  0
VERTEX
  8
0
 10
532.13416328430174
 20
338.72116699218748
 42
1
  0
SEQEND
  0
POLYLINE
  8
0
 10
0
 20
0
 39
0
 70
1
 66
1
  0
VERTEX
  8
0
 10
431.60000000000002
 20
520.60000000000002
 42
-0
  0
VERTEX
  8
0
 10
431.60000000000002
 20
780.60000000000002
 42
-0
  0
VERTEX
  8
0
 10
494.60000000000002
 20
780.60000000000002
 42
0.41421356797218323
  0
VERTEX
  8
0
 10
561.60000000000002
 20
713.60000000000002
 42
0
  0
VERTEX
  8
0
 10
561.60000000000002
 20
520.60000000000002
 42
0
  0
SEQEND
  0
POLYLINE
  8
0
 10
0
 20
0
 39
0
 70
1
 66
1
  0
VERTEX
  8
0
 10
458.86583671569826
 20
540.27883110046389
 42
1
  0
VERTEX
  8
0
 10
458.86583671569826
 20
564.27883300781252
 42
1
  0
SEQEND
  0
POLYLINE
  8
0
 10
0
 20
0
 39
0
 70
1
 66
1
  0
VERTEX
  8
0
 10
572
 20
520.60000000000002
 42
-0
  0
VERTEX
  8
0
 10
572
 20
780.60000000000002
 42
-0
  0
VERTEX
  8
0
 10
635
 20
780.60000000000002
 42
0.41421356797218323
  0
VERTEX
  8
0
 10
702
 20
713.60000000000002
 42
0
  0
VERTEX
  8
0
 10
702
 20
520.60000000000002
 42
0
  0
SEQEND
  0
POLYLINE
  8
0
 10
0
 20
0
 39
0
 70
1
 66
1
  0
VERTEX
  8
0
 10
599.26583671569824
 20
540.27883110046389
 42
1
  0
VERTEX
  8
0
 10
599.26583671569824
 20
564.27883300781252
 42
1
  0
SEQEND
  0
POLYLINE
  8
0
 10
0
 20
0
 39
0
 70
1
 66
1
  0
VERTEX
  8
0
 10
712.39999999999998
 20
520.60000000000002
 42
-0
  0
VERTEX
  8
0
 10
712.39999999999998
 20
780.60000000000002
 42
-0
  0
VERTEX
  8
0
 10
775.39999999999998
 20
780.60000000000002
 42
0.41421356797218323
  0
VERTEX
  8
0
 10
842.39999999999998
 20
713.60000000000002
 42
0
  0
VERTEX
  8
0
 10
842.39999999999998
 20
520.60000000000002
 42
0
  0
SEQEND
  0
POLYLINE
  8
0
 10
0
 20
0
 39
0
 70
1
 66
1
  0
VERTEX
  8
0
 10
739.66583671569822
 20
540.27883110046389
 42
1
  0
VERTEX
  8
0
 10
739.66583671569822
 20
564.27883300781252
 42
1
  0
SEQEND
  0
POLYLINE
  8
0
 10
0
 20
0
 39
0
 70
1
 66
1
  0
VERTEX
  8
0
 10
1180.8
 20
817.39999999999998
 42
-0
  0
VERTEX
  8
0
 10
1180.8
 20
557.39999999999998
 42
-0
  0
VERTEX
  8
0
 10
1117.8
 20
557.39999999999998
 42
0.41421356797218323
  0
VERTEX
  8
0
 10
1050.8
 20
624.39999999999998
 42
0
  0
VERTEX
  8
0
 10
1050.8
 20
817.39999999999998
 42
0
  0
SEQEND
  0
POLYLINE
  8
0
 10
0
 20
0
 39
0
 70
1
 66
1
  0
VERTEX
  8
0
 10
1153.5341632843017
 20
797.72116889953611
 42
1
  0
VERTEX
  8
0
 10
1153.5341632843017
 20
773.72116699218748
 42
1
  0
SEQEND
  0
POLYLINE
  8
0
 10
0
 20
0
 39
0
 70
1
 66
1
  0
VERTEX
  8
0
 10
1281
 20
338
 42
-0
  0
VERTEX
  8
0
 10
1281
 20
78
 42
-0
  0
VERTEX
  8
0
 10
1218
 20
78
 42
0.41421356797218323
  0
VERTEX
  8
0
 10
1151
 20
144.99999999999997
 42
0
  0
VERTEX
  8
0
 10
1151
 20
337.99999999999994
 42
0
  0
SEQEND
  0
POLYLINE
  8
0
 10
0
 20
0
 39
0
 70
1
 66
1
  0
VERTEX
  8
0
 10
1253.7341632843018
 20
318.32116889953613
 42
1
  0
VERTEX
  8
0
 10
1253.7341632843018
 20
294.3211669921875
 42
1
  0
SEQEND
  0
POLYLINE
  8
0
 10
0
 20
0
 39
0
 70
1
 66
1
  0
VERTEX
  8
0
 10
1553.4000000000001
 20
645
 42
-0
  0
VERTEX
  8
0
 10
1553.4000000000001
 20
385
 42
-0
  0
VERTEX
  8
0
 10
1490.4000000000001
 20
385
 42
0.41421356797218323
  0
VERTEX
  8
0
 10
1423.4000000000001
 20
452
 42
0
  0
VERTEX
  8
0
 10
1423.4000000000001
 20
645
 42
0
  0
SEQEND
  0
POLYLINE
  8
0
 10
0
 20
0
 39
0
 70
1
 66
1
  0
VERTEX
  8
0
 10
1526.1341632843018
 20
625.32116889953613
 42
1
  0
VERTEX
  8
0
 10
1526.1341632843018
 20
601.3211669921875
 42
1
  0
SEQEND
  0
POLYLINE
  8
0
 10
0
 20
0
 39
0
 70
1
 66
1
  0
VERTEX
  8
0
 10
1431
 20
10.4
 42
-0
  0
VERTEX
  8
0
 10
1431
 20
270.39999999999998
 42
-0
  0
VERTEX
  8
0
 10
1494
 20
270.39999999999998
 42
0.41421356797218323
  0
VERTEX
  8
0
 10
1561
 20
203.40000000000001
 42
0
  0
VERTEX
  8
0
 10
1561
 20
10.400000000000016
 42
0
  0
SEQEND
  0
POLYLINE
  8
0
 10
0
 20
0
 39
0
 70
1
 66
1
  0
VERTEX
  8
0
 10
1458.2658367156982
 20
30.078831100463866
 42
1
  0
VERTEX
  8
0
 10
1458.2658367156982
 20
54.078833007812499
 42
1
  0
SEQEND
  0
POLYLINE
  8
0
 10
0
 20
0
 39
0
 70
1
 66
1
  0
VERTEX
  8
0
 10
1579.4000000000001
 20
759.20000000000005
 42
-0
  0
VERTEX
  8
0
 10
1319.4000000000001
 20
759.20000000000005
 42
-0
  0
VERTEX
  8
0
 10
1319.4000000000001
 20
822.20000000000005
 42
0.41421356797218323
  0
VERTEX
  8
0
 10
1386.4000000000001
 20
889.20000000000005
 42
0
  0
VERTEX
  8
0
 10
1579.4000000000001
 20
889.20000000000005
 42
0
  0
SEQEND
  0
POLYLINE
  8
0
 10
0
 20
0
 39
0
 70
1
 66
1
  0
VERTEX
  8
0
 10
1559.7211688995362
 20
786.46583671569829
 42
1
  0
VERTEX
  8
0
 10
1535.7211669921876
 20
786.46583671569829
 42
1
  0
SEQEND
  0
POLYLINE
  8
0
 10
0
 20
0
 39
0
 70
1
 66
1
  0
VERTEX
  8
0
 10
1571.4000000000001
 20
10.4
 42
-0
  0
VERTEX
  8
0
 10
1571.4000000000001
 20
270.39999999999998
 42
-0
  0
VERTEX
  8
0
 10
1634.4000000000001
 20
270.39999999999998
 42
0.41421356797218323
  0
VERTEX
  8
0
 10
1701.4000000000001
 20
203.40000000000001
 42
0
  0
VERTEX
  8
0
 10
1701.4000000000001
 20
10.400000000000016
 42
0
  0
SEQEND
  0
POLYLINE
  8
0
 10
0
 20
0
 39
0
 70
1
 66
1
  0
VERTEX
  8
0
 10
1598.6658367156983
 20
30.078831100463866
 42
1
  0
VERTEX
  8
0
 10
1598.6658367156983
 20
54.078833007812499
 42
1
  0
SEQEND
  0
POLYLINE
  8
0
 10
0
 20
0
 39
0
 70
1
 66
1
  0
VERTEX
  8
0
 10
1734.4000000000001
 20
889.60000000000002
 42
-0
  0
VERTEX
  8
0
 10
1734.4000000000001
 20
629.60000000000002
 42
-0
  0
VERTEX
  8
0
 10
1671.4000000000001
 20
629.60000000000002
 42
0.41421356797218323
  0
VERTEX
  8
0
 10
1604.4000000000001
 20
696.60000000000002
 42
0
  0
VERTEX
  8
0
 10
1604.4000000000001
 20
889.60000000000002
 42
0
  0
SEQEND
  0
POLYLINE
  8
0
 10
0
 20
0
 39
0
 70
1
 66
1
  0
VERTEX
  8
0
 10
1707.1341632843018
 20
869.92116889953616
 42
1
  0
VERTEX
  8
0
 10
1707.1341632843018
 20
845.92116699218752
 42
1
  0
SEQEND
  0
POLYLINE
  8
0
 10
0
 20
0
 39
0
 70
1
 66
1
  0
VERTEX
  8
0
 10
1806.2
 20
413
 42
-0
  0
VERTEX
  8
0
 10
1806.2
 20
153
 42
-0
  0
VERTEX
  8
0
 10
1743.2
 20
153
 42
0.41421356797218323
  0
VERTEX
  8
0
 10
1676.2
 20
219.99999999999997
 42
0
  0
VERTEX
  8
0
 10
1676.2
 20
412.99999999999994
 42
0
  0
SEQEND
  0
POLYLINE
  8
0
 10
0
 20
0
 39
0
 70
1
 66
1
  0
VERTEX
  8
0
 10
1778.9341632843018
 20
393.32116889953613
 42
1
  0
VERTEX
  8
0
 10
1778.9341632843018
 20
369.3211669921875
 42
1
  0
SEQEND
  0
POLYLINE
  8
0
 10
0
 20
0
 39
0
 70
1
 66
1
  0
VERTEX
  8
0
 10
1874.8
 20
682
 42
-0
  0
VERTEX
  8
0
 10
1874.8
 20
422
 42
-0
  0
VERTEX
  8
0
 10
1811.8
 20
422
 42
0.41421356797218323
  0
VERTEX
  8
0
 10
1744.8
 20
489
 42
0
  0
VERTEX
  8
0
 10
1744.8
 20
682
 42
0
  0
SEQEND
  0
POLYLINE
  8
0
 10
0
 20
0
 39
0
 70
1
 66
1
  0
VERTEX
  8
0
 10
1847.5341632843017
 20
662.32116889953613
 42
1
  0
VERTEX
  8
0
 10
1847.5341632843017
 20
638.3211669921875
 42
1
  0
SEQEND
  0
POLYLINE
  8
0
 10
0
 20
0
 39
0
 70
1
 66
1
  0
VERTEX
  8
0
 10
1892.8
 20
692.20000000000005
 42
-0
  0
VERTEX
  8
0
 10
1744.8
 20
692.20000000000005
 42
-0
  0
VERTEX
  8
0
 10
1744.8
 20
747.20000000000005
 42
-0
  0
VERTEX
  8
0
 10
1892.8
 20
802.20000000000005
 42
0
  0
SEQEND
  0
POLYLINE
  8
0
 10
0
 20
0
 39
0
 70
1
 66
1
  0
VERTEX
  8
0
 10
1866.4492614746093
 20
714.70000000000005
 42
0
  0
VERTEX
  8
0
 10
1866.4492614746093
 20
760.70000000000005
 42
0
  0
VERTEX
  8
0
 10
1841.4492614746093
 20
760.70000000000005
 42
0
  0
VERTEX
  8
0
 10
1841.4492614746093
 20
744.70000000000005
 42
0
  0
VERTEX
  8
0
 10
1795.4492614746093
 20
744.70000000000005
 42
0
  0
VERTEX
  8
0
 10
1795.4492614746093
 20
714.70000000000005
 42
0
  0
SEQEND
  0
POLYLINE
  8
0
 10
0
 20
0
 39
0
 70
1
 66
1
  0
VERTEX
  8
0
 10
1744.8
 20
868.08600000000001
 42
-0
  0
VERTEX
  8
0
 10
1892.8
 20
868.08600000000001
 42
-0
  0
VERTEX
  8
0
 10
1892.8
 20
813.08600000000001
 42
-0
  0
VERTEX
  8
0
 10
1744.8
 20
758.08600000000001
 42
0
  0
SEQEND
  0
POLYLINE
  8
0
 10
0
 20
0
 39
0
 70
1
 66
1
  0
VERTEX
  8
0
 10
1771.1507385253906
 20
845.58600000000001
 42
0
  0
VERTEX
  8
0
 10
1771.1507385253906
 20
799.58600000000001
 42
0
  0
VERTEX
  8
0
 10
1796.1507385253906
 20
799.58600000000001
 42
0
  0
VERTEX
  8
0
 10
1796.1507385253906
 20
815.58600000000001
 42
0
  0
VERTEX
  8
0
 10
1842.1507385253906
 20
815.58600000000001
 42
0
  0
VERTEX
  8
0
 10
1842.1507385253906
 20
845.58600000000001
 42
0
  0
SEQEND
  0
POLYLINE
  8
0
 10
0
 20
0
 39
0
 70
1
 66
1
  0
VERTEX
  8
0
 10
1964.5999999999999
 20
10.4
 42
-0
  0
VERTEX
  8
0
 10
1816.5999999999999
 20
10.4
 42
-0
  0
VERTEX
  8
0
 10
1816.5999999999999
 20
65.400000000000006
 42
-0
  0
VERTEX
  8
0
 10
1964.5999999999999
 20
120.40000000000001
 42
0
  0
SEQEND
  0
POLYLINE
  8
0
 10
0
 20
0
 39
0
 70
1
 66
1
  0
VERTEX
  8
0
 10
1938.2492614746093
 20
32.899999999999999
 42
0
  0
VERTEX
  8
0
 10
1938.2492614746093
 20
78.900000000000006
 42
0
  0
VERTEX
  8
0
 10
1913.2492614746093
 20
78.900000000000006
 42
0
  0
VERTEX
  8
0
 10
1913.2492614746093
 20
62.899999999999999
 42
0
  0
VERTEX
  8
0
 10
1867.2492614746093
 20
62.899999999999999
 42
0
  0
VERTEX
  8
0
 10
1867.2492614746093
 20
32.899999999999999
 42
0
  0
SEQEND
  0
POLYLINE
  8
0
 10
0
 20
0
 39
0
 70
1
 66
1
  0
VERTEX
  8
0
 10
1816.5999999999999
 20
186.286
 42
-0
  0
VERTEX
  8
0
 10
1964.5999999999999
 20
186.28599999999997
 42
-0
  0
VERTEX
  8
0
 10
1964.5999999999999
 20
131.28599999999997
 42
-0
  0
VERTEX
  8
0
 10
1816.5999999999999
 20
76.286000000000001
 42
0
  0
SEQEND
  0
POLYLINE
  8
0
 10
0
 20
0
 39
0
 70
1
 66
1
  0
VERTEX
  8
0
 10
1842.9507385253905
 20
163.786
 42
0
  0
VERTEX
  8
0
 10
1842.9507385253905
 20
117.786
 42
0
  0
VERTEX
  8
0
 10
1867.9507385253905
 20
117.786
 42
0
  0
VERTEX
  8
0
 10
1867.9507385253905
 20
133.786
 42
0
  0
VERTEX
  8
0
 10
1913.9507385253905
 20
133.786
 42
0
  0
VERTEX
  8
0
 10
1913.9507385253905
 20
163.786
 42
0
  0
SEQEND
  0
POLYLINE
  8
0
 10
0
 20
0
 39
0
 70
1
 66
1
  0
VERTEX
  8
0
 10
1964.5999999999999
 20
196.40000000000001
 42
-0
  0
VERTEX
  8
0
 10
1816.5999999999999
 20
196.40000000000001
 42
-0
  0
VERTEX
  8
0
 10
1816.5999999999999
 20
251.40000000000001
 42
-0
  0
VERTEX
  8
0
 10
1964.5999999999999
 20
306.39999999999998
 42
0
  0
SEQEND
  0
POLYLINE
  8
0
 10
0
 20
0
 39
0
 70
1
 66
1
  0
VERTEX
  8
0
 10
1938.2492614746093
 20
218.90000000000001
 42
0
  0
VERTEX
  8
0
 10
1938.2492614746093
 20
264.89999999999998
 42
0
  0
VERTEX
  8
0
 10
1913.2492614746093
 20
264.89999999999998
 42
0
  0
VERTEX
  8
0
 10
1913.2492614746093
 20
248.90000000000001
 42
0
  0
VERTEX
  8
0
 10
1867.2492614746093
 20
248.90000000000001
 42
0
  0
VERTEX
  8
0
 10
1867.2492614746093
 20
218.90000000000001
 42
0
  0
SEQEND
  0
POLYLINE
  8
0
 10
0
 20
0
 39
0
 70
1
 66
1
  0
VERTEX
  8
0
 10
1816.5999999999999
 20
372.286
 42
-0
  0
VERTEX
  8
0
 10
1964.5999999999999
 20
372.286
 42
-0
  0
VERTEX
  8
0
 10
1964.5999999999999
 20
317.286
 42
-0
  0
VERTEX
  8
0
 10
1816.5999999999999
 20
262.286
 42
0
  0
SEQEND
  0
POLYLINE
  8
0
 10
0
 20
0
 39
0
 70
1
 66
1
  0
VERTEX
  8
0
 10
1842.9507385253905
 20
349.786
 42
0
  0
VERTEX
  8
0
 10
1842.9507385253905
 20
303.786
 42
0
  0
VERTEX
  8
0
 10
1867.9507385253905
 20
303.786
 42
0
  0
VERTEX
  8
0
 10
1867.9507385253905
 20
319.786
 42
0
  0
VERTEX
  8
0
 10
1913.9507385253905
 20
319.786
 42
0
  0
VERTEX
  8
0
 10
1913.9507385253905
 20
349.786
 42
0
  0
SEQEND
  0
POLYLINE
  8
0
 10
0
 20
0
 39
0
 70
1
 66
1
  0
VERTEX
  8
0
 10
120.80000000000001
 20
143.80000000000001
 42
-0
  0
VERTEX
  8
0
 10
120.8
 20
291.80000000000001
 42
-0
  0
VERTEX
  8
0
 10
175.80000000000001
 20
291.80000000000001
 42
-0
  0
VERTEX
  8
0
 10
230.80000000000001
 20
143.80000000000001
 42
0
  0
SEQEND
  0
POLYLINE
  8
0
 10
0
 20
0
 39
0
 70
1
 66
1
  0
VERTEX
  8
0
 10
143.30000000000001
 20
170.15073852539064
 42
0
  0
VERTEX
  8
0
 10
189.30000000000001
 20
170.15073852539064
 42
0
  0
VERTEX
  8
0
 10
189.30000000000001
 20
195.15073852539064
 42
0
  0
VERTEX
  8
0
 10
173.30000000000001
 20
195.15073852539064
 42
0
  0
VERTEX
  8
0
 10
173.30000000000001
 20
241.15073852539064
 42
0
  0
VERTEX
  8
0
 10
143.30000000000001
 20
241.15073852539064
 42
0
  0
SEQEND
  0
POLYLINE
  8
0
 10
0
 20
0
 39
0
 70
1
 66
1
  0
VERTEX
  8
0
 10
83.799999999999997
 20
887.60000000000002
 42
-0
  0
VERTEX
  8
0
 10
231.80000000000001
 20
887.60000000000002
 42
-0
  0
VERTEX
  8
0
 10
231.80000000000001
 20
832.60000000000002
 42
-0
  0
VERTEX
  8
0
 10
83.800000000000011
 20
777.60000000000002
 42
0
  0
SEQEND
  0
POLYLINE
  8
0
 10
0
 20
0
 39
0
 70
1
 66
1
  0
VERTEX
  8
0
 10
110.15073852539062
 20
865.10000000000002
 42
0
  0
VERTEX
  8
0
 10
110.15073852539064
 20
819.10000000000002
 42
0
  0
VERTEX
  8
0
 10
135.15073852539064
 20
819.10000000000002
 42
0
  0
VERTEX
  8
0
 10
135.15073852539064
 20
835.10000000000002
 42
0
  0
VERTEX
  8
0
 10
181.15073852539064
 20
835.10000000000002
 42
0
  0
VERTEX
  8
0
 10
181.15073852539064
 20
865.10000000000002
 42
0
  0
SEQEND
  0
POLYLINE
  8
0
 10
0
 20
0
 39
0
 70
1
 66
1
  0
VERTEX
  8
0
 10
242.19999999999999
 20
883.79999999999995
 42
-0
  0
VERTEX
  8
0
 10
390.19999999999999
 20
883.79999999999995
 42
-0
  0
VERTEX
  8
0
 10
390.19999999999999
 20
828.79999999999995
 42
-0
  0
VERTEX
  8
0
 10
242.20000000000002
 20
773.79999999999995
 42
0
  0
SEQEND
  0
POLYLINE
  8
0
 10
0
 20
0
 39
0
 70
1
 66
1
  0
VERTEX
  8
0
 10
268.55073852539061
 20
861.29999999999995
 42
0
  0
VERTEX
  8
0
 10
268.55073852539061
 20
815.29999999999995
 42
0
  0
VERTEX
  8
0
 10
293.55073852539061
 20
815.29999999999995
 42
0
  0
VERTEX
  8
0
 10
293.55073852539061
 20
831.29999999999995
 42
0
  0
VERTEX
  8
0
 10
339.55073852539061
 20
831.29999999999995
 42
0
  0
VERTEX
  8
0
 10
339.55073852539061
 20
861.29999999999995
 42
0
  0
SEQEND
  0
POLYLINE
  8
0
 10
0
 20
0
 39
0
 70
1
 66
1
  0
VERTEX
  8
0
 10
505
 20
887.60000000000002
 42
-0
  0
VERTEX
  8
0
 10
653
 20
887.60000000000002
 42
-0
  0
VERTEX
  8
0
 10
653
 20
832.60000000000002
 42
-0
  0
VERTEX
  8
0
 10
505
 20
777.60000000000002
 42
0
  0
SEQEND
  0
POLYLINE
  8
0
 10
0
 20
0
 39
0
 70
1
 66
1
  0
VERTEX
  8
0
 10
531.35073852539062
 20
865.10000000000002
 42
0
  0
VERTEX
  8
0
 10
531.35073852539062
 20
819.10000000000002
 42
0
  0
VERTEX
  8
0
 10
556.35073852539062
 20
819.10000000000002
 42
0
  0
VERTEX
  8
0
 10
556.35073852539062
 20
835.10000000000002
 42
0
  0
VERTEX
  8
0
 10
602.35073852539062
 20
835.10000000000002
 42
0
  0
VERTEX
  8
0
 10
602.35073852539062
 20
865.10000000000002
 42
0
  0
SEQEND
  0
POLYLINE
  8
0
 10
0
 20
0
 39
0
 70
1
 66
1
  0
VERTEX
  8
0
 10
663.39999999999998
 20
883.79999999999995
 42
-0
  0
VERTEX
  8
0
 10
811.39999999999998
 20
883.79999999999995
 42
-0
  0
VERTEX
  8
0
 10
811.39999999999998
 20
828.79999999999995
 42
-0
  0
VERTEX
  8
0
 10
663.39999999999998
 20
773.79999999999995
 42
0
  0
SEQEND
  0
POLYLINE
  8
0
 10
0
 20
0
 39
0
 70
1
 66
1
  0
VERTEX
  8
0
 10
689.7507385253906
 20
861.29999999999995
 42
0
  0
VERTEX
  8
0
 10
689.7507385253906
 20
815.29999999999995
 42
0
  0
VERTEX
  8
0
 10
714.7507385253906
 20
815.29999999999995
 42
0
  0
VERTEX
  8
0
 10
714.7507385253906
 20
831.29999999999995
 42
0
  0
VERTEX
  8
0
 10
760.7507385253906
 20
831.29999999999995
 42
0
  0
VERTEX
  8
0
 10
760.7507385253906
 20
861.29999999999995
 42
0
  0
SEQEND
  0
POLYLINE
  8
0
 10
0
 20
0
 39
0
 70
1
 66
1
  0
VERTEX
  8
0
 10
770.79999999999995
 20
143.80000000000001
 42
-0
  0
VERTEX
  8
0
 10
770.79999999999995
 20
291.80000000000001
 42
-0
  0
VERTEX
  8
0
 10
825.79999999999995
 20
291.80000000000001
 42
-0
  0
VERTEX
  8
0
 10
880.79999999999995
 20
143.80000000000001
 42
0
  0
SEQEND
  0
POLYLINE
  8
0
 10
0
 20
0
 39
0
 70
1
 66
1
  0
VERTEX
  8
0
 10
793.29999999999995
 20
170.15073852539064
 42
0
  0
VERTEX
  8
0
 10
839.29999999999995
 20
170.15073852539064
 42
0
  0
VERTEX
  8
0
 10
839.29999999999995
 20
195.15073852539064
 42
0
  0
VERTEX
  8
0
 10
823.29999999999995
 20
195.15073852539064
 42
0
  0
VERTEX
  8
0
 10
823.29999999999995
 20
241.15073852539064
 42
0
  0
VERTEX
  8
0
 10
793.29999999999995
 20
241.15073852539064
 42
0
  0
SEQEND
  0
POLYLINE
  8
0
 10
0
 20
0
 39
0
 70
1
 66
1
  0
VERTEX
  8
0
 10
1020.8
 20
470.80000000000001
 42
-0
  0
VERTEX
  8
0
 10
1168.8
 20
470.80000000000001
 42
-0
  0
VERTEX
  8
0
 10
1168.8
 20
415.80000000000001
 42
-0
  0
VERTEX
  8
0
 10
1020.8
 20
360.80000000000001
 42
0
  0
SEQEND
  0
POLYLINE
  8
0
 10
0
 20
0
 39
0
 70
1
 66
1
  0
VERTEX
  8
0
 10
1047.1507385253906
 20
448.30000000000001
 42
0
  0
VERTEX
  8
0
 10
1047.1507385253906
 20
402.30000000000001
 42
0
  0
VERTEX
  8
0
 10
1072.1507385253906
 20
402.30000000000001
 42
0
  0
VERTEX
  8
0
 10
1072.1507385253906
 20
418.30000000000001
 42
0
  0
VERTEX
  8
0
 10
1118.1507385253906
 20
418.30000000000001
 42
0
  0
VERTEX
  8
0
 10
1118.1507385253906
 20
448.30000000000001
 42
0
  0
SEQEND
  0
POLYLINE
  8
0
 10
0
 20
0
 39
0
 70
1
 66
1
  0
VERTEX
  8
0
 10
911.60000000000002
 20
741.60000000000002
 42
0
  0
VERTEX
  8
0
 10
911.60000000000002
 20
889.60000000000002
 42
0
  0
VERTEX
  8
0
 10
856.60000000000002
 20
889.60000000000002
 42
0
  0
VERTEX
  8
0
 10
801.60000000000002
 20
741.60000000000002
 42
-0
  0
SEQEND
  0
POLYLINE
  8
0
 10
0
 20
0
 39
0
 70
1
 66
1
  0
VERTEX
  8
0
 10
889.10000000000002
 20
767.95073852539065
 42
-0
  0
VERTEX
  8
0
 10
843.10000000000002
 20
767.95073852539065
 42
-0
  0
VERTEX
  8
0
 10
843.10000000000002
 20
792.95073852539065
 42
-0
  0
VERTEX
  8
0
 10
859.10000000000002
 20
792.95073852539065
 42
-0
  0
VERTEX
  8
0
 10
859.10000000000002
 20
838.95073852539065
 42
-0
  0
VERTEX
  8
0
 10
889.10000000000002
 20
838.95073852539065
 42
-0
  0
SEQEND
  0
POLYLINE
  8
0
 10
0
 20
0
 39
0
 70
1
 66
1
  0
VERTEX
  8
0
 10
1981.4000000000001
 20
382.39999999999998
 42
0
  0
VERTEX
  8
0
 10
1981.4000000000001
 20
530.39999999999998
 42
0
  0
VERTEX
  8
0
 10
1926.4000000000001
 20
530.39999999999998
 42
0
  0
VERTEX
  8
0
 10
1871.4000000000001
 20
382.39999999999998
 42
-0
  0
SEQEND
  0
POLYLINE
  8
0
 10
0
 20
0
 39
0
 70
1
 66
1
  0
VERTEX
  8
0
 10
1958.9000000000001
 20
408.7507385253906
 42
-0
  0
VERTEX
  8
0
 10
1912.9000000000001
 20
408.7507385253906
 42
-0
  0
VERTEX
  8
0
 10
1912.9000000000001
 20
433.7507385253906
 42
-0
  0
VERTEX
  8
0
 10
1928.9000000000001
 20
433.7507385253906
 42
-0
  0
VERTEX
  8
0
 10
1928.9000000000001
 20
479.7507385253906
 42
-0
  0
VERTEX
  8
0
 10
1958.9000000000001
 20
479.7507385253906
 42
-0
  0
SEQEND
  0
POLYLINE
  8
0
 10
0
 20
0
 39
0
 70
1
 66
1
  0
VERTEX
  8
0
 10
630.59499816894527
 20
290.80000000000001
 42
-0
  0
VERTEX
  8
0
 10
649.79999999999995
 20
238.03468780517579
 42
0
  0
VERTEX
  8
0
 10
649.79999999999995
 20
229.56531219482423
 42
0
  0
VERTEX
  8
0
 10
630.59499816894527
 20
176.80000000000001
 42
-0
  0
VERTEX
  8
0
 10
569.79999999999995
 20
176.80000000000001
 42
-0
  0
VERTEX
  8
0
 10
569.79999999999995
 20
290.80000000000001
 42
0
  0
SEQEND
  0
POLYLINE
  8
0
 10
0
 20
0
 39
0
 70
1
 66
1
  0
VERTEX
  8
0
 10
630.59499816894527
 20
225.80000000000001
 42
1
  0
VERTEX
  8
0
 10
630.59499816894527
 20
241.80000000000001
 42
1
  0
SEQEND
  0
POLYLINE
  8
0
 10
0
 20
0
 39
0
 70
1
 66
1
  0
VERTEX
  8
0
 10
582.61147003173824
 20
193.46723823547364
 42
0.16584248840808868
  0
VERTEX
  8
0
 10
610.9218872070312
 20
191.12697010040284
 42
-0
  0
VERTEX
  8
0
 10
610.9218872070312
 20
276.47302703857423
 42
0.16584248840808868
  0
VERTEX
  8
0
 10
582.61147003173824
 20
274.13276367187501
 42
0
  0
SEQEND
  0
POLYLINE
  8
0
 10
0
 20
0
 39
0
 70
1
 66
1
  0
VERTEX
  8
0
 10
913.59499816894527
 20
634.60000000000002
 42
-0
  0
VERTEX
  8
0
 10
932.79999999999995
 20
581.8346878051758
 42
0
  0
VERTEX
  8
0
 10
932.79999999999995
 20
573.36531219482424
 42
0
  0
VERTEX
  8
0
 10
913.59499816894527
 20
520.60000000000002
 42
-0
  0
VERTEX
  8
0
 10
852.79999999999995
 20
520.60000000000002
 42
-0
  0
VERTEX
  8
0
 10
852.79999999999995
 20
634.60000000000002
 42
0
  0
SEQEND
  0
POLYLINE
  8
0
 10
0
 20
0
 39
0
 70
1
 66
1
  0
VERTEX
  8
0
 10
913.59499816894527
 20
569.60000000000002
 42
1
  0
VERTEX
  8
0
 10
913.59499816894527
 20
585.60000000000002
 42
1
  0
SEQEND
  0
POLYLINE
  8
0
 10
0
 20
0
 39
0
 70
1
 66
1
  0
VERTEX
  8
0
 10
865.61147003173824
 20
537.26723823547366
 42
0.16584248840808868
  0
VERTEX
  8
0
 10
893.9218872070312
 20
534.92697010040285
 42
-0
  0
VERTEX
  8
0
 10
893.9218872070312
 20
620.27302703857424
 42
0.16584248840808868
  0
VERTEX
  8
0
 10
865.61147003173824
 20
617.93276367187502
 42
0
  0
SEQEND
  0
POLYLINE
  8
0
 10
0
 20
0
 39
0
 70
1
 66
1
  0
VERTEX
  8
0
 10
1772.5949981689453
 20
124.40000000000001
 42
-0
  0
VERTEX
  8
0
 10
1791.8
 20
71.634687805175787
 42
0
  0
VERTEX
  8
0
 10
1791.8
 20
63.165312194824224
 42
0
  0
VERTEX
  8
0
 10
1772.5949981689453
 20
10.400000000000004
 42
-0
  0
VERTEX
  8
0
 10
1711.8
 20
10.4
 42
-0
  0
VERTEX
  8
0
 10
1711.8
 20
124.40000000000001
 42
0
  0
SEQEND
  0
POLYLINE
  8
0
 10
0
 20
0
 39
0
 70
1
 66
1
  0
VERTEX
  8
0
 10
1772.5949981689453
 20
59.400000000000006
 42
1
  0
VERTEX
  8
0
 10
1772.5949981689453
 20
75.400000000000006
 42
1
  0
SEQEND
  0
POLYLINE
  8
0
 10
0
 20
0
 39
0
 70
1
 66
1
  0
VERTEX
  8
0
 10
1724.6114700317382
 20
27.067238235473631
 42
0.16584248840808868
  0
VERTEX
  8
0
 10
1752.9218872070312
 20
24.726970100402834
 42
-0
  0
VERTEX
  8
0
 10
1752.9218872070312
 20
110.07302703857422
 42
0.16584248840808868
  0
VERTEX
  8
0
 10
1724.6114700317382
 20
107.73276367187501
 42
0
  0
SEQEND
  0
POLYLINE
  8
0
 10
0
 20
0
 39
0
 70
1
 66
1
  0
VERTEX
  8
0
 10
1945.9949981689454
 20
654.60000000000002
 42
-0
  0
VERTEX
  8
0
 10
1965.2
 20
601.8346878051758
 42
0
  0
VERTEX
  8
0
 10
1965.2
 20
593.36531219482424
 42
0
  0
VERTEX
  8
0
 10
1945.9949981689454
 20
540.60000000000002
 42
-0
  0
VERTEX
  8
0
 10
1885.2
 20
540.60000000000002
 42
-0
  0
VERTEX
  8
0
 10
1885.2
 20
654.60000000000002
 42
0
  0
SEQEND
  0
POLYLINE
  8
0
 10
0
 20
0
 39
0
 70
1
 66
1
  0
VERTEX
  8
0
 10
1945.9949981689454
 20
589.60000000000002
 42
1
  0
VERTEX
  8
0
 10
1945.9949981689454
 20
605.60000000000002
 42
1
  0
SEQEND
  0
POLYLINE
  8
0
 10
0
 20
0
 39
0
 70
1
 66
1
  0
VERTEX
  8
0
 10
1898.0114700317383
 20
557.26723823547366
 42
0.16584248840808868
  0
VERTEX
  8
0
 10
1926.3218872070313
 20
554.92697010040285
 42
-0
  0
VERTEX
  8
0
 10
1926.3218872070313
 20
640.27302703857424
 42
0.16584248840808868
  0
VERTEX
  8
0
 10
1898.0114700317383
 20
637.93276367187502
 42
0
  0
SEQEND
  0
POLYLINE
  8
0
 10
0
 20
0
 39
0
 70
1
 66
1
  0
VERTEX
  8
0
 10
1963.9949981689454
 20
778.79999999999995
 42
-0
  0
VERTEX
  8
0
 10
1983.2
 20
726.03468780517574
 42
0
  0
VERTEX
  8
0
 10
1983.2
 20
717.56531219482417
 42
0
  0
VERTEX
  8
0
 10
1963.9949981689454
 20
664.79999999999995
 42
-0
  0
VERTEX
  8
0
 10
1903.2
 20
664.79999999999995
 42
-0
  0
VERTEX
  8
0
 10
1903.2
 20
778.79999999999995
 42
0
  0
SEQEND
  0
POLYLINE
  8
0
 10
0
 20
0
 39
0
 70
1
 66
1
  0
VERTEX
  8
0
 10
1963.9949981689454
 20
713.79999999999995
 42
1
  0
VERTEX
  8
0
 10
1963.9949981689454
 20
729.79999999999995
 42
1
  0
SEQEND
  0
POLYLINE
  8
0
 10
0
 20
0
 39
0
 70
1
 66
1
  0
VERTEX
  8
0
 10
1916.0114700317383
 20
681.46723823547359
 42
0.16584248840808868
  0
VERTEX
  8
0
 10
1944.3218872070313
 20
679.12697010040279
 42
-0
  0
VERTEX
  8
0
 10
1944.3218872070313
 20
764.47302703857417
 42
0.16584248840808868
  0
VERTEX
  8
0
 10
1916.0114700317383
 20
762.13276367187495
 42
0
  0
SEQEND
  0
ENDSEC
  0
EOF
