  0
SECTION
  2
ENTITIES
  0
POLYLINE
  8
0
 10
0
 20
0
 39
0
 70
1
 66
1
  0
VERTEX
  8
0
 10
0
 20
0
 42
-0
  0
VERTEX
  8
0
 10
2000
 20
0
 42
-0
  0
VERTEX
  8
0
 10
2000
 20
1000
 42
-0
  0
VERTEX
  8
0
 10
0
 20
1000
 42
-0
  0
SEQEND
  0
POLYLINE
  8
0
 10
0
 20
0
 39
0
 70
1
 66
1
  0
VERTEX
  8
0
 10
310
 20
780.36968994140625
 42
0
  0
VERTEX
  8
0
 10
310
 20
454.99887084960937
 42
0
  0
VERTEX
  8
0
 10
387.93365478515625
 20
400.18484497070312
 42
-0.5192331075668335
  0
VERTEX
  8
0
 10
558.06634521484375
 20
400.18484497070312
 42
0
  0
VERTEX
  8
0
 10
636
 20
454.99887084960937
 42
-0
  0
VERTEX
  8
0
 10
636
 20
780.36968994140625
 42
-0
  0
VERTEX
  8
0
 10
473
 20
665.72492980957031
 42
-0
  0
SEQEND
  0
POLYLINE
  8
0
 10
0
 20
0
 39
0
 70
1
 66
1
  0
VERTEX
  8
0
 10
473
 20
600.71211242675781
 42
-1
  0
VERTEX
  8
0
 10
473
 20
548.71211242675781
 42
-1
  0
SEQEND
  0
POLYLINE
  8
0
 10
0
 20
0
 39
0
 70
1
 66
1
  0
VERTEX
  8
0
 10
310
 20
390.18484497070312
 42
0
  0
VERTEX
  8
0
 10
310
 20
64.81402587890625
 42
0
  0
VERTEX
  8
0
 10
387.93365478515625
 20
10
 42
-0.5192331075668335
  0
VERTEX
  8
0
 10
558.06634521484375
 20
10
 42
0
  0
VERTEX
  8
0
 10
636
 20
64.81402587890625
 42
-0
  0
VERTEX
  8
0
 10
636
 20
390.18484497070312
 42
-0
  0
VERTEX
  8
0
 10
473
 20
275.54008483886719
 42
-0
  0
SEQEND
  0
POLYLINE
  8
0
 10
0
 20
0
 39
0
 70
1
 66
1
  0
VERTEX
  8
0
 10
473
 20
210.52726745605469
 42
-1
  0
VERTEX
  8
0
 10
473
 20
158.52726745605469
 42
-1
  0
SEQEND
  0
POLYLINE
  8
0
 10
0
 20
0
 39
0
 70
1
 66
1
  0
VERTEX
  8
0
 10
1591.2523704276764
 20
313.55380630493164
 42
0
  0
VERTEX
  8
0
 10
1591.2523704276764
 20
72.446197509765625
 42
0
  0
VERTEX
  8
0
 10
1602.2523704276764
 20
72.446197509765625
 42
0
  0
VERTEX
  8
0
 10
1602.2523704276764
 20
10
 42
-0
  0
VERTEX
  8
0
 10
1686.2523704276764
 20
10
 42
-0
  0
VERTEX
  8
0
 10
1686.2523704276764
 20
72.446197509765625
 42
-0
  0
VERTEX
  8
0
 10
1697.2523704276764
 20
72.446197509765625
 42
-0
  0
VERTEX
  8
0
 10
1697.2523704276764
 20
313.55380630493164
 42
0
  0
VERTEX
  8
0
 10
1686.2523704276764
 20
313.55380630493164
 42
0
  0
VERTEX
  8
0
 10
1686.2523704276764
 20
376
 42
-0
  0
VERTEX
  8
0
 10
1602.2523704276764
 20
376
 42
-0
  0
VERTEX
  8
0
 10
1602.2523704276764
 20
313.55380630493164
 42
-0
  0
SEQEND
  0
POLYLINE
  8
0
 10
0
 20
0
 39
0
 70
1
 66
1
  0
VERTEX
  8
0
 10
1666.6785255180084
 20
368.05130672454834
 42
-1
  0
VERTEX
  8
0
 10
1666.6785255180084
 20
346.05130767822266
 42
-1
  0
SEQEND
  0
POLYLINE
  8
0
 10
0
 20
0
 39
0
 70
1
 66
1
  0
VERTEX
  8
0
 10
1666.6785255180084
 20
39.948699951171875
 42
-1
  0
VERTEX
  8
0
 10
1666.6785255180084
 20
17.948699951171875
 42
-1
  0
SEQEND
  0
POLYLINE
  8
0
 10
0
 20
0
 39
0
 70
1
 66
1
  0
VERTEX
  8
0
 10
1251.2523551688873
 20
359.99998474121094
 42
0
  0
VERTEX
  8
0
 10
1251.2523551688873
 20
10
 42
0
  0
VERTEX
  8
0
 10
1411.2523627982819
 20
10
 42
0
  0
VERTEX
  8
0
 10
1411.2523627982819
 20
359.99998474121094
 42
0
  0
SEQEND
  0
POLYLINE
  8
0
 10
0
 20
0
 39
0
 70
1
 66
1
  0
VERTEX
  8
0
 10
1360.8954444633209
 20
346.8670654296875
 42
-0.40095469355583191
  0
VERTEX
  8
0
 10
1360.8954444633209
 20
290.21771049499512
 42
0
  0
VERTEX
  8
0
 10
1301.6092677818024
 20
290.21771049499512
 42
-0.40095469355583191
  0
VERTEX
  8
0
 10
1301.6092677818024
 20
346.8670654296875
 42
-0
  0
SEQEND
  0
POLYLINE
  8
0
 10
0
 20
0
 39
0
 70
1
 66
1
  0
VERTEX
  8
0
 10
235
 20
450
 42
0
  0
VERTEX
  8
0
 10
300
 20
450
 42
0
  0
VERTEX
  8
0
 10
300
 20
860.68228149414062
 42
0
  0
VERTEX
  8
0
 10
284.27937316894531
 20
880
 42
0
  0
VERTEX
  8
0
 10
235.00000000000003
 20
880
 42
-0
  0
VERTEX
  8
0
 10
235.00000000000003
 20
797.76788330078125
 42
0
  0
VERTEX
  8
0
 10
257.97267150878906
 20
797.76788330078125
 42
0
  0
VERTEX
  8
0
 10
257.97267150878906
 20
759.76788330078125
 42
0
  0
VERTEX
  8
0
 10
235.00000000000003
 20
759.76788330078125
 42
-0
  0
SEQEND
  0
POLYLINE
  8
0
 10
0
 20
0
 39
0
 70
1
 66
1
  0
VERTEX
  8
0
 10
250.5
 20
586.43171691894531
 42
-1
  0
VERTEX
  8
0
 10
284.5
 20
586.43171691894531
 42
-1
  0
SEQEND
  0
POLYLINE
  8
0
 10
0
 20
0
 39
0
 70
1
 66
1
  0
VERTEX
  8
0
 10
1749.2523704276764
 20
436.00001095530592
 42
0
  0
VERTEX
  8
0
 10
1726.2523704276764
 20
376.00001095530592
 42
0
  0
VERTEX
  8
0
 10
1726.2523704276764
 20
296.00001095530592
 42
0
  0
VERTEX
  8
0
 10
1746.2523704276764
 20
296.00001095530592
 42
-0
  0
VERTEX
  8
0
 10
1796.2523704276764
 20
436.00001095530592
 42
0
  0
VERTEX
  8
0
 10
1796.2523704276764
 20
520.00001095530592
 42
-0
  0
VERTEX
  8
0
 10
1746.2523704276764
 20
660.00001095530592
 42
0
  0
VERTEX
  8
0
 10
1726.2523704276764
 20
660.00001095530592
 42
0
  0
VERTEX
  8
0
 10
1726.2523704276764
 20
580.00001095530592
 42
0
  0
VERTEX
  8
0
 10
1749.2523704276764
 20
520.00001095530592
 42
-0
  0
SEQEND
  0
POLYLINE
  8
0
 10
0
 20
0
 39
0
 70
1
 66
1
  0
VERTEX
  8
0
 10
1774.2523704276764
 20
489.00001095530592
 42
-1
  0
VERTEX
  8
0
 10
1774.2523704276764
 20
467.00001095530592
 42
-1
  0
SEQEND
  0
POLYLINE
  8
0
 10
0
 20
0
 39
0
 70
1
 66
1
  0
VERTEX
  8
0
 10
1806.2523704276764
 20
645.99999569651686
 42
0
  0
VERTEX
  8
0
 10
1806.2523704276764
 20
296.00001095530592
 42
0
  0
VERTEX
  8
0
 10
1966.2523780570709
 20
296.00001095530592
 42
0
  0
VERTEX
  8
0
 10
1966.2523780570709
 20
645.99999569651686
 42
0
  0
SEQEND
  0
POLYLINE
  8
0
 10
0
 20
0
 39
0
 70
1
 66
1
  0
VERTEX
  8
0
 10
1915.89545972211
 20
632.86707638499342
 42
-0.40095469355583191
  0
VERTEX
  8
0
 10
1915.89545972211
 20
576.21772145030104
 42
0
  0
VERTEX
  8
0
 10
1856.6092830405914
 20
576.21772145030104
 42
-0.40095469355583191
  0
VERTEX
  8
0
 10
1856.6092830405914
 20
632.86707638499342
 42
-0
  0
SEQEND
  0
POLYLINE
  8
0
 10
0
 20
0
 39
0
 70
1
 66
1
  0
VERTEX
  8
0
 10
598.44933835207394
 20
816.00929742367077
 42
0
  0
VERTEX
  8
0
 10
948.44932309328487
 20
816.00929742367077
 42
0
  0
VERTEX
  8
0
 10
948.44932309328487
 20
976.0093050530653
 42
0
  0
VERTEX
  8
0
 10
598.44933835207394
 20
976.0093050530653
 42
0
  0
SEQEND
  0
POLYLINE
  8
0
 10
0
 20
0
 39
0
 70
1
 66
1
  0
VERTEX
  8
0
 10
611.58225766359737
 20
925.65238671810437
 42
-0.40095469355583191
  0
VERTEX
  8
0
 10
668.23161259828976
 20
925.65238671810437
 42
0
  0
VERTEX
  8
0
 10
668.23161259828976
 20
866.36621003658581
 42
-0.40095469355583191
  0
VERTEX
  8
0
 10
611.58225766359737
 20
866.36621003658581
 42
-0
  0
SEQEND
  0
POLYLINE
  8
0
 10
0
 20
0
 39
0
 70
1
 66
1
  0
VERTEX
  8
0
 10
958.44932309328487
 20
816.00929742367077
 42
0
  0
VERTEX
  8
0
 10
1308.4493078344958
 20
816.00929742367077
 42
0
  0
VERTEX
  8
0
 10
1308.4493078344958
 20
976.0093050530653
 42
0
  0
VERTEX
  8
0
 10
958.44932309328487
 20
976.0093050530653
 42
0
  0
SEQEND
  0
POLYLINE
  8
0
 10
0
 20
0
 39
0
 70
1
 66
1
  0
VERTEX
  8
0
 10
971.58224240480831
 20
925.65238671810437
 42
-0.40095469355583191
  0
VERTEX
  8
0
 10
1028.2315973395007
 20
925.65238671810437
 42
0
  0
VERTEX
  8
0
 10
1028.2315973395007
 20
866.36621003658581
 42
-0.40095469355583191
  0
VERTEX
  8
0
 10
971.58224240480831
 20
866.36621003658581
 42
-0
  0
SEQEND
  0
POLYLINE
  8
0
 10
0
 20
0
 39
0
 70
1
 66
1
  0
VERTEX
  8
0
 10
646
 20
801.28948974609375
 42
0
  0
VERTEX
  8
0
 10
646
 20
525.28948974609375
 42
0
  0
VERTEX
  8
0
 10
809
 20
410.64474487304687
 42
0
  0
VERTEX
  8
0
 10
972
 20
525.28948974609375
 42
-0
  0
VERTEX
  8
0
 10
972
 20
801.28948974609375
 42
-0
  0
SEQEND
  0
POLYLINE
  8
0
 10
0
 20
0
 39
0
 70
1
 66
1
  0
VERTEX
  8
0
 10
809
 20
707.28948974609375
 42
-1
  0
VERTEX
  8
0
 10
809
 20
619.28948974609375
 42
-1
  0
SEQEND
  0
POLYLINE
  8
0
 10
0
 20
0
 39
0
 70
1
 66
1
  0
VERTEX
  8
0
 10
646
 20
400.64474487304687
 42
0
  0
VERTEX
  8
0
 10
646
 20
124.64474487304687
 42
0
  0
VERTEX
  8
0
 10
809
 20
10
 42
0
  0
VERTEX
  8
0
 10
972
 20
124.64474487304687
 42
-0
  0
VERTEX
  8
0
 10
972
 20
400.64474487304687
 42
-0
  0
SEQEND
  0
POLYLINE
  8
0
 10
0
 20
0
 39
0
 70
1
 66
1
  0
VERTEX
  8
0
 10
809
 20
306.64474487304687
 42
-1
  0
VERTEX
  8
0
 10
809
 20
218.64474487304687
 42
-1
  0
SEQEND
  0
POLYLINE
  8
0
 10
0
 20
0
 39
0
 70
1
 66
1
  0
VERTEX
  8
0
 10
1022.5926044366594
 20
22.284613094679401
 42
-0
  0
VERTEX
  8
0
 10
1100.6336499399079
 20
252.71449575613164
 42
-0
  0
VERTEX
  8
0
 10
997.13680690930983
 20
512.17600757755383
 42
0
  0
VERTEX
  8
0
 10
984.71585591230371
 20
497.95768350032182
 42
0.26977404952049255
  0
VERTEX
  8
0
 10
982.61502156552615
 20
487.09416724300792
 42
0
  0
VERTEX
  8
0
 10
1056.0681590751099
 20
276.75668320874991
 42
-0.32629111409187317
  0
VERTEX
  8
0
 10
1050.3365611117426
 20
256.89386129233674
 42
0
  0
VERTEX
  8
0
 10
1018.4617178931726
 20
245.85864881251206
 42
0.2579103410243988
  0
VERTEX
  8
0
 10
1008.2751877780029
 20
234.53737844655421
 42
0
  0
VERTEX
  8
0
 10
982.58709101441684
 20
33.712146213878384
 42
0.8593367338180542
  0
SEQEND
  0
POLYLINE
  8
0
 10
0
 20
0
 39
0
 70
1
 66
1
  0
VERTEX
  8
0
 10
1027.2179798401389
 20
238.09724303539775
 42
-1
  0
VERTEX
  8
0
 10
1025.5618157602344
 20
218.16593262012981
 42
-1
  0
SEQEND
  0
POLYLINE
  8
0
 10
0
 20
0
 39
0
 70
1
 66
1
  0
VERTEX
  8
0
 10
1082.3388380776869
 20
261.81746794507842
 42
-1
  0
VERTEX
  8
0
 10
1080.6826739977823
 20
241.88615752981045
 42
-1
  0
SEQEND
  0
POLYLINE
  8
0
 10
0
 20
0
 39
0
 70
1
 66
1
  0
VERTEX
  8
0
 10
1004.4944468018147
 20
43.499370365224934
 42
-1
  0
VERTEX
  8
0
 10
1002.424241701934
 20
18.585232346140003
 42
-1
  0
SEQEND
  0
POLYLINE
  8
0
 10
0
 20
0
 39
0
 70
1
 66
1
  0
VERTEX
  8
0
 10
1066.0335731477842
 20
793.72468432899132
 42
-0
  0
VERTEX
  8
0
 10
987.99252764453558
 20
563.2948016675391
 42
-0
  0
VERTEX
  8
0
 10
1091.4893706751336
 20
303.833289846117
 42
0
  0
VERTEX
  8
0
 10
1103.9103216721398
 20
318.05161392334895
 42
0.26977404952049255
  0
VERTEX
  8
0
 10
1106.0111560189175
 20
328.91513018066286
 42
0
  0
VERTEX
  8
0
 10
1032.5580185093336
 20
539.25261421492087
 42
-0.32629111409187317
  0
VERTEX
  8
0
 10
1038.2896164727008
 20
559.11543613133404
 42
0
  0
VERTEX
  8
0
 10
1070.1644596912708
 20
570.15064861115866
 42
0.2579103410243988
  0
VERTEX
  8
0
 10
1080.3509898064406
 20
581.4719189771165
 42
0
  0
VERTEX
  8
0
 10
1106.0390865700267
 20
782.29715120979245
 42
0.8593367338180542
  0
SEQEND
  0
POLYLINE
  8
0
 10
0
 20
0
 39
0
 70
1
 66
1
  0
VERTEX
  8
0
 10
1061.4081977443047
 20
577.91205438827296
 42
-1
  0
VERTEX
  8
0
 10
1063.0643618242093
 20
597.84336480354091
 42
-1
  0
SEQEND
  0
POLYLINE
  8
0
 10
0
 20
0
 39
0
 70
1
 66
1
  0
VERTEX
  8
0
 10
1006.2873395067566
 20
554.19182947859235
 42
-1
  0
VERTEX
  8
0
 10
1007.9435035866611
 20
574.1231398938603
 42
-1
  0
SEQEND
  0
POLYLINE
  8
0
 10
0
 20
0
 39
0
 70
1
 66
1
  0
VERTEX
  8
0
 10
1084.1317307826289
 20
772.50992705844578
 42
-1
  0
VERTEX
  8
0
 10
1086.2019358825096
 20
797.42406507753071
 42
-1
  0
SEQEND
  0
POLYLINE
  8
0
 10
0
 20
0
 39
0
 70
1
 66
1
  0
VERTEX
  8
0
 10
1421.2523627982819
 20
359.99998474121094
 42
0
  0
VERTEX
  8
0
 10
1421.2523627982819
 20
10
 42
0
  0
VERTEX
  8
0
 10
1581.2523704276764
 20
10
 42
0
  0
VERTEX
  8
0
 10
1581.2523704276764
 20
359.99998474121094
 42
0
  0
SEQEND
  0
POLYLINE
  8
0
 10
0
 20
0
 39
0
 70
1
 66
1
  0
VERTEX
  8
0
 10
1530.8954520927155
 20
346.8670654296875
 42
-0.40095469355583191
  0
VERTEX
  8
0
 10
1530.8954520927155
 20
290.21771049499512
 42
0
  0
VERTEX
  8
0
 10
1471.6092754111969
 20
290.21771049499512
 42
-0.40095469355583191
  0
VERTEX
  8
0
 10
1471.6092754111969
 20
346.8670654296875
 42
-0
  0
SEQEND
  0
POLYLINE
  8
0
 10
0
 20
0
 39
0
 70
1
 66
1
  0
VERTEX
  8
0
 10
10
 20
10
 42
0
  0
VERTEX
  8
0
 10
75
 20
10
 42
0
  0
VERTEX
  8
0
 10
75
 20
420.68228149414062
 42
0
  0
VERTEX
  8
0
 10
59.279373168945313
 20
440
 42
0
  0
VERTEX
  8
0
 10
10.000000000000027
 20
440
 42
-0
  0
VERTEX
  8
0
 10
10.000000000000021
 20
357.76788330078125
 42
0
  0
VERTEX
  8
0
 10
32.972671508789062
 20
357.76788330078125
 42
0
  0
VERTEX
  8
0
 10
32.972671508789062
 20
319.76788330078125
 42
0
  0
VERTEX
  8
0
 10
10.000000000000018
 20
319.76788330078125
 42
-0
  0
SEQEND
  0
POLYLINE
  8
0
 10
0
 20
0
 39
0
 70
1
 66
1
  0
VERTEX
  8
0
 10
25.5
 20
146.43171691894531
 42
-1
  0
VERTEX
  8
0
 10
59.5
 20
146.43171691894531
 42
-1
  0
SEQEND
  0
POLYLINE
  8
0
 10
0
 20
0
 39
0
 70
1
 66
1
  0
VERTEX
  8
0
 10
1251.2523551688873
 20
719.99996948242187
 42
0
  0
VERTEX
  8
0
 10
1251.2523551688873
 20
369.99998474121094
 42
0
  0
VERTEX
  8
0
 10
1411.2523627982819
 20
369.99998474121094
 42
0
  0
VERTEX
  8
0
 10
1411.2523627982819
 20
719.99996948242187
 42
0
  0
SEQEND
  0
POLYLINE
  8
0
 10
0
 20
0
 39
0
 70
1
 66
1
  0
VERTEX
  8
0
 10
1360.8954444633209
 20
706.86705017089844
 42
-0.40095469355583191
  0
VERTEX
  8
0
 10
1360.8954444633209
 20
650.21769523620605
 42
0
  0
VERTEX
  8
0
 10
1301.6092677818024
 20
650.21769523620605
 42
-0.40095469355583191
  0
VERTEX
  8
0
 10
1301.6092677818024
 20
706.86705017089844
 42
-0
  0
SEQEND
  0
POLYLINE
  8
0
 10
0
 20
0
 39
0
 70
1
 66
1
  0
VERTEX
  8
0
 10
310.00000052015719
 20
811.28948974609375
 42
0
  0
VERTEX
  8
0
 10
460.00000052015719
 20
811.28948974609375
 42
0
  0
VERTEX
  8
0
 10
573.44934134046969
 20
876.78948974609375
 42
0.97178131341934204
  0
VERTEX
  8
0
 10
544.96025137464937
 20
929.56661224365234
 42
-0
  0
SEQEND
  0
POLYLINE
  8
0
 10
0
 20
0
 39
0
 70
1
 66
1
  0
VERTEX
  8
0
 10
476.00000052015719
 20
871.57667541503906
 42
-1
  0
VERTEX
  8
0
 10
476.00000052015719
 20
839.5766773223877
 42
-1
  0
SEQEND
  0
POLYLINE
  8
0
 10
0
 20
0
 39
0
 70
1
 66
1
  0
VERTEX
  8
0
 10
558.44932608168062
 20
918.77024841308594
 42
-1
  0
VERTEX
  8
0
 10
558.44932608168062
 20
886.77024841308594
 42
-1
  0
SEQEND
  0
POLYLINE
  8
0
 10
0
 20
0
 39
0
 70
1
 66
1
  0
VERTEX
  8
0
 10
588.44933783191675
 20
962.88436722842448
 42
0
  0
VERTEX
  8
0
 10
438.44933783191675
 20
962.88436722842448
 42
0
  0
VERTEX
  8
0
 10
324.99999701160425
 20
897.38436722842448
 42
0.97178131341934204
  0
VERTEX
  8
0
 10
353.48908697742456
 20
844.60724473086589
 42
-0
  0
SEQEND
  0
POLYLINE
  8
0
 10
0
 20
0
 39
0
 70
1
 66
1
  0
VERTEX
  8
0
 10
422.44933783191675
 20
902.59718155947917
 42
-1
  0
VERTEX
  8
0
 10
422.44933783191675
 20
934.59717965213054
 42
-1
  0
SEQEND
  0
POLYLINE
  8
0
 10
0
 20
0
 39
0
 70
1
 66
1
  0
VERTEX
  8
0
 10
340.00001227039331
 20
855.40360856143229
 42
-1
  0
VERTEX
  8
0
 10
340.00001227039331
 20
887.40360856143229
 42
-1
  0
SEQEND
  0
POLYLINE
  8
0
 10
0
 20
0
 39
0
 70
1
 66
1
  0
VERTEX
  8
0
 10
85
 20
450
 42
0
  0
VERTEX
  8
0
 10
150
 20
450
 42
0
  0
VERTEX
  8
0
 10
150
 20
860.68228149414062
 42
0
  0
VERTEX
  8
0
 10
134.27937316894531
 20
880
 42
0
  0
VERTEX
  8
0
 10
85.000000000000028
 20
880
 42
-0
  0
VERTEX
  8
0
 10
85.000000000000014
 20
797.76788330078125
 42
0
  0
VERTEX
  8
0
 10
107.97267150878906
 20
797.76788330078125
 42
0
  0
VERTEX
  8
0
 10
107.97267150878906
 20
759.76788330078125
 42
0
  0
VERTEX
  8
0
 10
85.000000000000014
 20
759.76788330078125
 42
-0
  0
SEQEND
  0
POLYLINE
  8
0
 10
0
 20
0
 39
0
 70
1
 66
1
  0
VERTEX
  8
0
 10
100.5
 20
586.43171691894531
 42
-1
  0
VERTEX
  8
0
 10
134.5
 20
586.43171691894531
 42
-1
  0
SEQEND
  0
POLYLINE
  8
0
 10
0
 20
0
 39
0
 70
1
 66
1
  0
VERTEX
  8
0
 10
1421.2523627982819
 20
719.99996948242187
 42
0
  0
VERTEX
  8
0
 10
1421.2523627982819
 20
369.99998474121094
 42
0
  0
VERTEX
  8
0
 10
1581.2523704276764
 20
369.99998474121094
 42
0
  0
VERTEX
  8
0
 10
1581.2523704276764
 20
719.99996948242187
 42
0
  0
SEQEND
  0
POLYLINE
  8
0
 10
0
 20
0
 39
0
 70
1
 66
1
  0
VERTEX
  8
0
 10
1530.8954520927155
 20
706.86705017089844
 42
-0.40095469355583191
  0
VERTEX
  8
0
 10
1530.8954520927155
 20
650.21769523620605
 42
0
  0
VERTEX
  8
0
 10
1471.6092754111969
 20
650.21769523620605
 42
-0.40095469355583191
  0
VERTEX
  8
0
 10
1471.6092754111969
 20
706.86705017089844
 42
-0
  0
SEQEND
  0
POLYLINE
  8
0
 10
0
 20
0
 39
0
 70
1
 66
1
  0
VERTEX
  8
0
 10
85
 20
10
 42
0
  0
VERTEX
  8
0
 10
150
 20
10
 42
0
  0
VERTEX
  8
0
 10
150
 20
420.68228149414062
 42
0
  0
VERTEX
  8
0
 10
134.27937316894531
 20
440
 42
0
  0
VERTEX
  8
0
 10
85.000000000000028
 20
440
 42
-0
  0
VERTEX
  8
0
 10
85.000000000000014
 20
357.76788330078125
 42
0
  0
VERTEX
  8
0
 10
107.97267150878906
 20
357.76788330078125
 42
0
  0
VERTEX
  8
0
 10
107.97267150878906
 20
319.76788330078125
 42
0
  0
VERTEX
  8
0
 10
85.000000000000014
 20
319.76788330078125
 42
-0
  0
SEQEND
  0
POLYLINE
  8
0
 10
0
 20
0
 39
0
 70
1
 66
1
  0
VERTEX
  8
0
 10
100.5
 20
146.43171691894531
 42
-1
  0
VERTEX
  8
0
 10
134.5
 20
146.43171691894531
 42
-1
  0
SEQEND
  0
POLYLINE
  8
0
 10
0
 20
0
 39
0
 70
1
 66
1
  0
VERTEX
  8
0
 10
160
 20
10
 42
0
  0
VERTEX
  8
0
 10
225
 20
10
 42
0
  0
VERTEX
  8
0
 10
225
 20
420.68228149414062
 42
0
  0
VERTEX
  8
0
 10
209.27937316894531
 20
440
 42
0
  0
VERTEX
  8
0
 10
160.00000000000003
 20
440
 42
-0
  0
VERTEX
  8
0
 10
160.00000000000003
 20
357.76788330078125
 42
0
  0
VERTEX
  8
0
 10
182.97267150878906
 20
357.76788330078125
 42
0
  0
VERTEX
  8
0
 10
182.97267150878906
 20
319.76788330078125
 42
0
  0
VERTEX
  8
0
 10
160.00000000000003
 20
319.76788330078125
 42
-0
  0
SEQEND
  0
POLYLINE
  8
0
 10
0
 20
0
 39
0
 70
1
 66
1
  0
VERTEX
  8
0
 10
175.5
 20
146.43171691894531
 42
-1
  0
VERTEX
  8
0
 10
209.5
 20
146.43171691894531
 42
-1
  0
SEQEND
  0
POLYLINE
  8
0
 10
0
 20
0
 39
0
 70
1
 66
1
  0
VERTEX
  8
0
 10
235
 20
10
 42
0
  0
VERTEX
  8
0
 10
300
 20
10
 42
0
  0
VERTEX
  8
0
 10
300
 20
420.68228149414062
 42
0
  0
VERTEX
  8
0
 10
284.27937316894531
 20
440
 42
0
  0
VERTEX
  8
0
 10
235.00000000000003
 20
440
 42
-0
  0
VERTEX
  8
0
 10
235.00000000000003
 20
357.76788330078125
 42
0
  0
VERTEX
  8
0
 10
257.97267150878906
 20
357.76788330078125
 42
0
  0
VERTEX
  8
0
 10
257.97267150878906
 20
319.76788330078125
 42
0
  0
VERTEX
  8
0
 10
235.00000000000003
 20
319.76788330078125
 42
-0
  0
SEQEND
  0
POLYLINE
  8
0
 10
0
 20
0
 39
0
 70
1
 66
1
  0
VERTEX
  8
0
 10
250.5
 20
146.43171691894531
 42
-1
  0
VERTEX
  8
0
 10
284.5
 20
146.43171691894531
 42
-1
  0
SEQEND
  0
POLYLINE
  8
0
 10
0
 20
0
 39
0
 70
1
 66
1
  0
VERTEX
  8
0
 10
1157.2187820211032
 20
22.284613094679401
 42
-0
  0
VERTEX
  8
0
 10
1235.2598275243515
 20
252.71449575613164
 42
-0
  0
VERTEX
  8
0
 10
1131.7629844937535
 20
512.17600757755383
 42
0
  0
VERTEX
  8
0
 10
1119.3420334967473
 20
497.95768350032182
 42
0.26977404952049255
  0
VERTEX
  8
0
 10
1117.2411991499698
 20
487.09416724300792
 42
0
  0
VERTEX
  8
0
 10
1190.6943366595535
 20
276.75668320874991
 42
-0.32629111409187317
  0
VERTEX
  8
0
 10
1184.9627386961863
 20
256.89386129233674
 42
0
  0
VERTEX
  8
0
 10
1153.0878954776163
 20
245.85864881251206
 42
0.2579103410243988
  0
VERTEX
  8
0
 10
1142.9013653624465
 20
234.53737844655421
 42
0
  0
VERTEX
  8
0
 10
1117.2132685988606
 20
33.712146213878384
 42
0.8593367338180542
  0
SEQEND
  0
POLYLINE
  8
0
 10
0
 20
0
 39
0
 70
1
 66
1
  0
VERTEX
  8
0
 10
1161.8441574245826
 20
238.09724303539775
 42
-1
  0
VERTEX
  8
0
 10
1160.187993344678
 20
218.16593262012981
 42
-1
  0
SEQEND
  0
POLYLINE
  8
0
 10
0
 20
0
 39
0
 70
1
 66
1
  0
VERTEX
  8
0
 10
1216.9650156621306
 20
261.81746794507842
 42
-1
  0
VERTEX
  8
0
 10
1215.308851582226
 20
241.88615752981045
 42
-1
  0
SEQEND
  0
POLYLINE
  8
0
 10
0
 20
0
 39
0
 70
1
 66
1
  0
VERTEX
  8
0
 10
1139.1206243862584
 20
43.499370365224934
 42
-1
  0
VERTEX
  8
0
 10
1137.0504192863777
 20
18.585232346140003
 42
-1
  0
SEQEND
  0
POLYLINE
  8
0
 10
0
 20
0
 39
0
 70
1
 66
1
  0
VERTEX
  8
0
 10
1200.6597507322278
 20
793.72468432899132
 42
-0
  0
VERTEX
  8
0
 10
1122.6187052289793
 20
563.2948016675391
 42
-0
  0
VERTEX
  8
0
 10
1226.1155482595773
 20
303.833289846117
 42
0
  0
VERTEX
  8
0
 10
1238.5364992565835
 20
318.05161392334895
 42
0.26977404952049255
  0
VERTEX
  8
0
 10
1240.6373336033612
 20
328.91513018066286
 42
0
  0
VERTEX
  8
0
 10
1167.1841960937772
 20
539.25261421492087
 42
-0.32629111409187317
  0
VERTEX
  8
0
 10
1172.9157940571445
 20
559.11543613133404
 42
0
  0
VERTEX
  8
0
 10
1204.7906372757145
 20
570.15064861115866
 42
0.2579103410243988
  0
VERTEX
  8
0
 10
1214.9771673908842
 20
581.4719189771165
 42
0
  0
VERTEX
  8
0
 10
1240.6652641544704
 20
782.29715120979245
 42
0.8593367338180542
  0
SEQEND
  0
POLYLINE
  8
0
 10
0
 20
0
 39
0
 70
1
 66
1
  0
VERTEX
  8
0
 10
1196.0343753287484
 20
577.91205438827296
 42
-1
  0
VERTEX
  8
0
 10
1197.690539408653
 20
597.84336480354091
 42
-1
  0
SEQEND
  0
POLYLINE
  8
0
 10
0
 20
0
 39
0
 70
1
 66
1
  0
VERTEX
  8
0
 10
1140.9135170912002
 20
554.19182947859235
 42
-1
  0
VERTEX
  8
0
 10
1142.5696811711048
 20
574.1231398938603
 42
-1
  0
SEQEND
  0
POLYLINE
  8
0
 10
0
 20
0
 39
0
 70
1
 66
1
  0
VERTEX
  8
0
 10
1218.7579083670726
 20
772.50992705844578
 42
-1
  0
VERTEX
  8
0
 10
1220.8281134669533
 20
797.42406507753071
 42
-1
  0
SEQEND
  0
POLYLINE
  8
0
 10
0
 20
0
 39
0
 70
1
 66
1
  0
VERTEX
  8
0
 10
10
 20
450
 42
0
  0
VERTEX
  8
0
 10
75
 20
450
 42
0
  0
VERTEX
  8
0
 10
75
 20
860.68228149414062
 42
0
  0
VERTEX
  8
0
 10
59.279373168945313
 20
880
 42
0
  0
VERTEX
  8
0
 10
10.000000000000027
 20
880
 42
-0
  0
VERTEX
  8
0
 10
10.000000000000021
 20
797.76788330078125
 42
0
  0
VERTEX
  8
0
 10
32.972671508789062
 20
797.76788330078125
 42
0
  0
VERTEX
  8
0
 10
32.972671508789062
 20
759.76788330078125
 42
0
  0
VERTEX
  8
0
 10
10.000000000000018
 20
759.76788330078125
 42
-0
  0
SEQEND
  0
POLYLINE
  8
0
 10
0
 20
0
 39
0
 70
1
 66
1
  0
VERTEX
  8
0
 10
25.5
 20
586.43171691894531
 42
-1
  0
VERTEX
  8
0
 10
59.5
 20
586.43171691894531
 42
-1
  0
SEQEND
  0
POLYLINE
  8
0
 10
0
 20
0
 39
0
 70
1
 66
1
  0
VERTEX
  8
0
 10
160
 20
450
 42
0
  0
VERTEX
  8
0
 10
225
 20
450
 42
0
  0
VERTEX
  8
0
 10
225
 20
860.68228149414062
 42
0
  0
VERTEX
  8
0
 10
209.27937316894531
 20
880
 42
0
  0
VERTEX
  8
0
 10
160.00000000000003
 20
880
 42
-0
  0
VERTEX
  8
0
 10
160.00000000000003
 20
797.76788330078125
 42
0
  0
VERTEX
  8
0
 10
182.97267150878906
 20
797.76788330078125
 42
0
  0
VERTEX
  8
0
 10
182.97267150878906
 20
759.76788330078125
 42
0
  0
VERTEX
  8
0
 10
160.00000000000003
 20
759.76788330078125
 42
-0
  0
SEQEND
  0
POLYLINE
  8
0
 10
0
 20
0
 39
0
 70
1
 66
1
  0
VERTEX
  8
0
 10
175.5
 20
586.43171691894531
 42
-1
  0
VERTEX
  8
0
 10
209.5
 20
586.43171691894531
 42
-1
  0
SEQEND
  0
POLYLINE
  8
0
 10
0
 20
0
 39
0
 70
1
 66
1
  0
VERTEX
  8
0
 10
1883.6585617876685
 20
21.636624132621932
 42
0
  0
VERTEX
  8
0
 10
1941.7114373064674
 20
130.34492186211412
 42
0.53799772262573242
  0
VERTEX
  8
0
 10
1866.1631756640113
 20
269.736865681935
 42
0.75537842512130737
  0
VERTEX
  8
0
 10
1851.0996180391944
 20
230.18466642998521
 42
-0.1175055131316185
  0
VERTEX
  8
0
 10
1873.8404332018531
 20
202.96773222588365
 42
0
  0
VERTEX
  8
0
 10
1882.702369771067
 20
208.14000395439928
 42
0
  0
VERTEX
  8
0
 10
1891.9202462053931
 20
174.37566069268053
 42
-0
  0
VERTEX
  8
0
 10
1881.6684075213111
 20
174.32735899590318
 42
-0.097169861197471619
  0
VERTEX
  8
0
 10
1878.0771103716529
 20
145.09124449395006
 42
-0
  0
VERTEX
  8
0
 10
1843.3413804388679
 20
38.835964952934432
 42
0.91632872819900513
  0
SEQEND
  0
POLYLINE
  8
0
 10
0
 20
0
 39
0
 70
1
 66
1
  0
VERTEX
  8
0
 10
1864.2523690081275
 20
255.82000425957506
 42
-1
  0
VERTEX
  8
0
 10
1864.2523690081275
 20
239.82000425957506
 42
-1
  0
SEQEND
  0
POLYLINE
  8
0
 10
0
 20
0
 39
0
 70
1
 66
1
  0
VERTEX
  8
0
 10
1864.2523690081275
 20
39.999996935356307
 42
-1
  0
VERTEX
  8
0
 10
1864.2523690081275
 20
23.999996935356307
 42
-1
  0
SEQEND
  0
POLYLINE
  8
0
 10
0
 20
0
 39
0
 70
1
 66
1
  0
VERTEX
  8
0
 10
1711.2523704276764
 20
484.00001081056098
 42
-0
  0
VERTEX
  8
0
 10
1716.2523704276764
 20
508.00001081056098
 42
0
  0
VERTEX
  8
0
 10
1716.2523704276764
 20
540.00001081056098
 42
-0
  0
VERTEX
  8
0
 10
1711.2523704276764
 20
564.00001081056098
 42
0
  0
VERTEX
  8
0
 10
1625.8860336051666
 20
655.63290961808661
 42
0.26658442616462708
  0
VERTEX
  8
0
 10
1606.86212403638
 20
661.51220547384719
 42
-0
  0
VERTEX
  8
0
 10
1591.2523704276764
 20
658.00001081056098
 42
-0
  0
VERTEX
  8
0
 10
1614.2523704276764
 20
540.00001081056098
 42
-0
  0
VERTEX
  8
0
 10
1614.2523704276764
 20
508.00001081056098
 42
0
  0
VERTEX
  8
0
 10
1591.2523704276764
 20
390.00001081056098
 42
0
  0
VERTEX
  8
0
 10
1606.862126897403
 20
386.48780377931098
 42
0.26658442616462708
  0
VERTEX
  8
0
 10
1625.8860336051666
 20
392.3671067578266
 42
-0
  0
SEQEND
  0
POLYLINE
  8
0
 10
0
 20
0
 39
0
 70
1
 66
1
  0
VERTEX
  8
0
 10
1686.2523704276764
 20
534.00001081056098
 42
-1
  0
VERTEX
  8
0
 10
1686.2523704276764
 20
514.00001081056098
 42
-1
  0
SEQEND
  0
POLYLINE
  8
0
 10
0
 20
0
 39
0
 70
1
 66
1
  0
VERTEX
  8
0
 10
1617.1088982127442
 20
849.99996948242187
 42
-0
  0
VERTEX
  8
0
 10
1593.1088982127442
 20
854.99996948242187
 42
0
  0
VERTEX
  8
0
 10
1561.1088982127442
 20
854.99996948242187
 42
-0
  0
VERTEX
  8
0
 10
1537.1088982127442
 20
849.99996948242187
 42
0
  0
VERTEX
  8
0
 10
1445.4759994052185
 20
764.63363265991211
 42
0.26658442616462708
  0
VERTEX
  8
0
 10
1439.596703549458
 20
745.60972309112549
 42
-0
  0
VERTEX
  8
0
 10
1443.1088982127442
 20
729.99996948242187
 42
-0
  0
VERTEX
  8
0
 10
1561.1088982127442
 20
752.99996948242187
 42
-0
  0
VERTEX
  8
0
 10
1593.1088982127442
 20
752.99996948242187
 42
0
  0
VERTEX
  8
0
 10
1711.1088982127442
 20
729.99996948242187
 42
0
  0
VERTEX
  8
0
 10
1714.6211052439942
 20
745.60972595214844
 42
0.26658442616462708
  0
VERTEX
  8
0
 10
1708.7418022654786
 20
764.63363265991211
 42
-0
  0
SEQEND
  0
POLYLINE
  8
0
 10
0
 20
0
 39
0
 70
1
 66
1
  0
VERTEX
  8
0
 10
1567.1088982127442
 20
824.99996948242187
 42
-1
  0
VERTEX
  8
0
 10
1587.1088982127442
 20
824.99996948242187
 42
-1
  0
SEQEND
  0
POLYLINE
  8
0
 10
0
 20
0
 39
0
 70
1
 66
1
  0
VERTEX
  8
0
 10
1359.8554991944879
 20
741.63659361504381
 42
0
  0
VERTEX
  8
0
 10
1417.9083747132868
 20
850.34489134453599
 42
0.53799772262573242
  0
VERTEX
  8
0
 10
1342.3601130708307
 20
989.73683516435688
 42
0.75537842512130737
  0
VERTEX
  8
0
 10
1327.2965554460138
 20
950.18463591240709
 42
-0.1175055131316185
  0
VERTEX
  8
0
 10
1350.0373706086725
 20
922.96770170830553
 42
0
  0
VERTEX
  8
0
 10
1358.8993071778864
 20
928.13997343682115
 42
0
  0
VERTEX
  8
0
 10
1368.1171836122126
 20
894.3756301751024
 42
-0
  0
VERTEX
  8
0
 10
1357.8653449281305
 20
894.32732847832506
 42
-0.097169861197471619
  0
VERTEX
  8
0
 10
1354.2740477784723
 20
865.09121397637193
 42
-0
  0
VERTEX
  8
0
 10
1319.5383178456873
 20
758.83593443535631
 42
0.91632872819900513
  0
SEQEND
  0
POLYLINE
  8
0
 10
0
 20
0
 39
0
 70
1
 66
1
  0
VERTEX
  8
0
 10
1340.4493064149469
 20
975.81997374199693
 42
-1
  0
VERTEX
  8
0
 10
1340.4493064149469
 20
959.81997374199693
 42
-1
  0
SEQEND
  0
POLYLINE
  8
0
 10
0
 20
0
 39
0
 70
1
 66
1
  0
VERTEX
  8
0
 10
1340.4493064149469
 20
759.99996641777818
 42
-1
  0
VERTEX
  8
0
 10
1340.4493064149469
 20
743.99996641777818
 42
-1
  0
SEQEND
  0
POLYLINE
  8
0
 10
0
 20
0
 39
0
 70
1
 66
1
  0
VERTEX
  8
0
 10
1845.1089090233052
 20
770.0000217658669
 42
-0
  0
VERTEX
  8
0
 10
1850.1089090233052
 20
794.0000217658669
 42
0
  0
VERTEX
  8
0
 10
1850.1089090233052
 20
826.0000217658669
 42
-0
  0
VERTEX
  8
0
 10
1845.1089090233052
 20
850.0000217658669
 42
0
  0
VERTEX
  8
0
 10
1759.7425722007954
 20
941.63292057339254
 42
0.26658442616462708
  0
VERTEX
  8
0
 10
1740.7186626320088
 20
947.51221642915311
 42
-0
  0
VERTEX
  8
0
 10
1725.1089090233052
 20
944.0000217658669
 42
-0
  0
VERTEX
  8
0
 10
1748.1089090233052
 20
826.0000217658669
 42
-0
  0
VERTEX
  8
0
 10
1748.1089090233052
 20
794.0000217658669
 42
0
  0
VERTEX
  8
0
 10
1725.1089090233052
 20
676.0000217658669
 42
0
  0
VERTEX
  8
0
 10
1740.7186654930317
 20
672.4878147346169
 42
0.26658442616462708
  0
VERTEX
  8
0
 10
1759.7425722007954
 20
678.36711771313253
 42
-0
  0
SEQEND
  0
POLYLINE
  8
0
 10
0
 20
0
 39
0
 70
1
 66
1
  0
VERTEX
  8
0
 10
1820.1089090233052
 20
820.0000217658669
 42
-1
  0
VERTEX
  8
0
 10
1820.1089090233052
 20
800.0000217658669
 42
-1
  0
SEQEND
  0
POLYLINE
  8
0
 10
0
 20
0
 39
0
 70
1
 66
1
  0
VERTEX
  8
0
 10
1980.1089090233052
 20
754.00000650707784
 42
-0
  0
VERTEX
  8
0
 10
1985.1089090233052
 20
778.00000650707784
 42
0
  0
VERTEX
  8
0
 10
1985.1089090233052
 20
810.00000650707784
 42
-0
  0
VERTEX
  8
0
 10
1980.1089090233052
 20
834.00000650707784
 42
0
  0
VERTEX
  8
0
 10
1894.7425722007954
 20
925.63290531460348
 42
0.26658442616462708
  0
VERTEX
  8
0
 10
1875.7186626320088
 20
931.51220117036405
 42
-0
  0
VERTEX
  8
0
 10
1860.1089090233052
 20
928.00000650707784
 42
-0
  0
VERTEX
  8
0
 10
1883.1089090233052
 20
810.00000650707784
 42
-0
  0
VERTEX
  8
0
 10
1883.1089090233052
 20
778.00000650707784
 42
0
  0
VERTEX
  8
0
 10
1860.1089090233052
 20
660.00000650707784
 42
0
  0
VERTEX
  8
0
 10
1875.7186654930317
 20
656.48779947582784
 42
0.26658442616462708
  0
VERTEX
  8
0
 10
1894.7425722007954
 20
662.36710245434347
 42
-0
  0
SEQEND
  0
POLYLINE
  8
0
 10
0
 20
0
 39
0
 70
1
 66
1
  0
VERTEX
  8
0
 10
1955.1089090233052
 20
804.00000650707784
 42
-1
  0
VERTEX
  8
0
 10
1955.1089090233052
 20
784.00000650707784
 42
-1
  0
SEQEND
  0
POLYLINE
  8
0
 10
0
 20
0
 39
0
 70
1
 66
1
  0
VERTEX
  8
0
 10
1827.2523704276764
 20
108.00001081056104
 42
-0
  0
VERTEX
  8
0
 10
1832.2523704276764
 20
132.00001081056104
 42
0
  0
VERTEX
  8
0
 10
1832.2523704276764
 20
164.00001081056104
 42
-0
  0
VERTEX
  8
0
 10
1827.2523704276764
 20
188.00001081056104
 42
0
  0
VERTEX
  8
0
 10
1741.8860336051666
 20
279.63290961808667
 42
0.26658442616462708
  0
VERTEX
  8
0
 10
1722.86212403638
 20
285.51220547384725
 42
-0
  0
VERTEX
  8
0
 10
1707.2523704276764
 20
282.00001081056104
 42
-0
  0
VERTEX
  8
0
 10
1730.2523704276764
 20
164.00001081056104
 42
-0
  0
VERTEX
  8
0
 10
1730.2523704276764
 20
132.00001081056104
 42
0
  0
VERTEX
  8
0
 10
1707.2523704276764
 20
14.000010810561037
 42
0
  0
VERTEX
  8
0
 10
1722.862126897403
 20
10.487803779311037
 42
0.26658442616462708
  0
VERTEX
  8
0
 10
1741.8860336051666
 20
16.367106757826662
 42
-0
  0
SEQEND
  0
POLYLINE
  8
0
 10
0
 20
0
 39
0
 70
1
 66
1
  0
VERTEX
  8
0
 10
1802.2523704276764
 20
158.00001081056104
 42
-1
  0
VERTEX
  8
0
 10
1802.2523704276764
 20
138.00001081056104
 42
-1
  0
SEQEND
  0
POLYLINE
  8
0
 10
0
 20
0
 39
0
 70
1
 66
1
  0
VERTEX
  8
0
 10
1687.292277949002
 20
906.4061608424139
 42
0
  0
VERTEX
  8
0
 10
1578.5839802195098
 20
964.45903636121272
 42
0.53799772262573242
  0
VERTEX
  8
0
 10
1439.192036399689
 20
888.91077471875667
 42
0.75537842512130737
  0
VERTEX
  8
0
 10
1478.7442356516387
 20
873.84721709393978
 42
-0.1175055131316185
  0
VERTEX
  8
0
 10
1505.9611698557403
 20
896.58803225659847
 42
0
  0
VERTEX
  8
0
 10
1500.7888981272247
 20
905.44996882581233
 42
0
  0
VERTEX
  8
0
 10
1534.5532413889434
 20
914.66784526013851
 42
-0
  0
VERTEX
  8
0
 10
1534.6015430857208
 20
904.41600657605647
 42
-0.097169861197471619
  0
VERTEX
  8
0
 10
1563.8376575876739
 20
900.82470942639827
 42
-0
  0
VERTEX
  8
0
 10
1670.0929371286895
 20
866.08897949361324
 42
0.91632872819900513
  0
SEQEND
  0
POLYLINE
  8
0
 10
0
 20
0
 39
0
 70
1
 66
1
  0
VERTEX
  8
0
 10
1453.1088978220489
 20
886.99996806287288
 42
-1
  0
VERTEX
  8
0
 10
1469.1088978220489
 20
886.99996806287288
 42
-1
  0
SEQEND
  0
POLYLINE
  8
0
 10
0
 20
0
 39
0
 70
1
 66
1
  0
VERTEX
  8
0
 10
1668.9289051462677
 20
886.99996806287288
 42
-1
  0
VERTEX
  8
0
 10
1684.9289051462677
 20
886.99996806287288
 42
-1
  0
SEQEND
  0
ENDSEC
  0
EOF
