  0
SECTION
  2
ENTITIES
  0
POLYLINE
  8
0
 10
0
 20
0
 39
0
 70
1
 66
1
  0
VERTEX
  8
0
 10
0
 20
0
 42
-0
  0
VERTEX
  8
0
 10
1200
 20
0
 42
-0
  0
VERTEX
  8
0
 10
1200
 20
700
 42
-0
  0
VERTEX
  8
0
 10
0
 20
700
 42
-0
  0
SEQEND
  0
POLYLINE
  8
0
 10
0
 20
0
 39
0
 70
1
 66
1
  0
VERTEX
  8
0
 10
197.1600105462926
 20
10.16000000000011
 42
-2.4142136573791504
  0
VERTEX
  8
0
 10
384.1600105462926
 20
197.16000000000014
 42
0
  0
VERTEX
  8
0
 10
384.1600105462926
 20
10.16000000000011
 42
0
  0
SEQEND
  0
POLYLINE
  8
0
 10
0
 20
0
 39
0
 70
1
 66
1
  0
VERTEX
  8
0
 10
349.6600105462926
 20
197.16000000000011
 42
1
  0
VERTEX
  8
0
 10
44.660010546292568
 20
197.16000000000011
 42
1
  0
SEQEND
  0
POLYLINE
  8
0
 10
0
 20
0
 39
0
 70
1
 66
1
  0
VERTEX
  8
0
 10
430.32001054629262
 20
315.68000000000006
 42
-2.4142136573791504
  0
VERTEX
  8
0
 10
617.32001054629256
 20
502.68000000000006
 42
0
  0
VERTEX
  8
0
 10
617.32001054629256
 20
315.68000000000006
 42
0
  0
SEQEND
  0
POLYLINE
  8
0
 10
0
 20
0
 39
0
 70
1
 66
1
  0
VERTEX
  8
0
 10
582.82001054629256
 20
502.68000000000006
 42
1
  0
VERTEX
  8
0
 10
277.82001054629256
 20
502.68000000000006
 42
1
  0
SEQEND
  0
POLYLINE
  8
0
 10
0
 20
0
 39
0
 70
1
 66
1
  0
VERTEX
  8
0
 10
775.08001054629244
 20
10.16000000000011
 42
-2.4142136573791504
  0
VERTEX
  8
0
 10
962.08001054629244
 20
197.16000000000014
 42
0
  0
VERTEX
  8
0
 10
962.08001054629244
 20
10.16000000000011
 42
0
  0
SEQEND
  0
POLYLINE
  8
0
 10
0
 20
0
 39
0
 70
1
 66
1
  0
VERTEX
  8
0
 10
927.58001054629244
 20
197.16000000000011
 42
1
  0
VERTEX
  8
0
 10
622.58001054629244
 20
197.16000000000011
 42
1
  0
SEQEND
  0
POLYLINE
  8
0
 10
0
 20
0
 39
0
 70
1
 66
1
  0
VERTEX
  8
0
 10
200.96369567871096
 20
609.77829805988051
 42
-0
  0
VERTEX
  8
0
 10
200.96369567871096
 20
421.58171145099379
 42
-0.41824883222579956
  0
VERTEX
  8
0
 10
10.160000000000025
 20
421.58171145099379
 42
0
  0
VERTEX
  8
0
 10
10.160000000000025
 20
609.77829805988051
 42
-0.41824883222579956
  0
SEQEND
  0
POLYLINE
  8
0
 10
0
 20
0
 39
0
 70
1
 66
1
  0
VERTEX
  8
0
 10
32.245327148437525
 20
556.6761709846852
 42
0
  0
VERTEX
  8
0
 10
32.245327148437525
 20
474.68383089679457
 42
-0
  0
VERTEX
  8
0
 10
105.56185546875003
 20
402.66406313556411
 42
0
  0
VERTEX
  8
0
 10
178.87838378906253
 20
474.68383089679457
 42
0
  0
VERTEX
  8
0
 10
178.87838378906253
 20
556.6761709846852
 42
-0
  0
VERTEX
  8
0
 10
105.56185546875003
 20
628.69593111652114
 42
0
  0
SEQEND
  0
POLYLINE
  8
0
 10
0
 20
0
 39
0
 70
1
 66
1
  0
VERTEX
  8
0
 10
281.36369567871094
 20
291.17829805988055
 42
-0
  0
VERTEX
  8
0
 10
281.36369567871094
 20
102.98171145099384
 42
-0.41824883222579956
  0
VERTEX
  8
0
 10
90.560000000000002
 20
102.98171145099384
 42
0
  0
VERTEX
  8
0
 10
90.560000000000002
 20
291.17829805988055
 42
-0.41824883222579956
  0
SEQEND
  0
POLYLINE
  8
0
 10
0
 20
0
 39
0
 70
1
 66
1
  0
VERTEX
  8
0
 10
112.6453271484375
 20
238.07617098468523
 42
0
  0
VERTEX
  8
0
 10
112.6453271484375
 20
156.08383089679461
 42
-0
  0
VERTEX
  8
0
 10
185.96185546875
 20
84.064063135564155
 42
0
  0
VERTEX
  8
0
 10
259.2783837890625
 20
156.08383089679461
 42
0
  0
VERTEX
  8
0
 10
259.2783837890625
 20
238.07617098468523
 42
-0
  0
VERTEX
  8
0
 10
185.96185546875
 20
310.09593111652117
 42
0
  0
SEQEND
  0
POLYLINE
  8
0
 10
0
 20
0
 39
0
 70
1
 66
1
  0
VERTEX
  8
0
 10
514.52369567871096
 20
596.69829805988047
 42
-0
  0
VERTEX
  8
0
 10
514.52369567871096
 20
408.50171145099381
 42
-0.41824883222579956
  0
VERTEX
  8
0
 10
323.72000000000003
 20
408.50171145099381
 42
0
  0
VERTEX
  8
0
 10
323.72000000000003
 20
596.69829805988047
 42
-0.41824883222579956
  0
SEQEND
  0
POLYLINE
  8
0
 10
0
 20
0
 39
0
 70
1
 66
1
  0
VERTEX
  8
0
 10
345.80532714843753
 20
543.59617098468516
 42
0
  0
VERTEX
  8
0
 10
345.80532714843753
 20
461.60383089679459
 42
-0
  0
VERTEX
  8
0
 10
419.12185546875003
 20
389.58406313556412
 42
0
  0
VERTEX
  8
0
 10
492.43838378906253
 20
461.60383089679459
 42
0
  0
VERTEX
  8
0
 10
492.43838378906253
 20
543.59617098468516
 42
-0
  0
VERTEX
  8
0
 10
419.12185546875003
 20
615.6159311165211
 42
0
  0
SEQEND
  0
POLYLINE
  8
0
 10
0
 20
0
 39
0
 70
1
 66
1
  0
VERTEX
  8
0
 10
818.36369567871088
 20
618.53829805988062
 42
-0
  0
VERTEX
  8
0
 10
818.36369567871088
 20
430.34171145099384
 42
-0.41824883222579956
  0
VERTEX
  8
0
 10
627.55999999999995
 20
430.34171145099384
 42
0
  0
VERTEX
  8
0
 10
627.55999999999995
 20
618.53829805988062
 42
-0.41824883222579956
  0
SEQEND
  0
POLYLINE
  8
0
 10
0
 20
0
 39
0
 70
1
 66
1
  0
VERTEX
  8
0
 10
649.64532714843745
 20
565.4361709846853
 42
0
  0
VERTEX
  8
0
 10
649.64532714843745
 20
483.44383089679462
 42
-0
  0
VERTEX
  8
0
 10
722.96185546874995
 20
411.42406313556415
 42
0
  0
VERTEX
  8
0
 10
796.27838378906245
 20
483.44383089679462
 42
0
  0
VERTEX
  8
0
 10
796.27838378906245
 20
565.4361709846853
 42
-0
  0
VERTEX
  8
0
 10
722.96185546874995
 20
637.45593111652124
 42
0
  0
SEQEND
  0
POLYLINE
  8
0
 10
0
 20
0
 39
0
 70
1
 66
1
  0
VERTEX
  8
0
 10
859.28369567871084
 20
291.17829805988055
 42
-0
  0
VERTEX
  8
0
 10
859.28369567871084
 20
102.98171145099384
 42
-0.41824883222579956
  0
VERTEX
  8
0
 10
668.4799999999999
 20
102.98171145099384
 42
0
  0
VERTEX
  8
0
 10
668.4799999999999
 20
291.17829805988055
 42
-0.41824883222579956
  0
SEQEND
  0
POLYLINE
  8
0
 10
0
 20
0
 39
0
 70
1
 66
1
  0
VERTEX
  8
0
 10
690.5653271484374
 20
238.07617098468523
 42
0
  0
VERTEX
  8
0
 10
690.5653271484374
 20
156.08383089679461
 42
-0
  0
VERTEX
  8
0
 10
763.8818554687499
 20
84.064063135564155
 42
0
  0
VERTEX
  8
0
 10
837.1983837890624
 20
156.08383089679461
 42
0
  0
VERTEX
  8
0
 10
837.1983837890624
 20
238.07617098468523
 42
-0
  0
VERTEX
  8
0
 10
763.8818554687499
 20
310.09593111652117
 42
0
  0
SEQEND
  0
POLYLINE
  8
0
 10
0
 20
0
 39
0
 70
1
 66
1
  0
VERTEX
  8
0
 10
1019.3636956787109
 20
587.33829805988057
 42
-0
  0
VERTEX
  8
0
 10
1019.3636956787109
 20
399.1417114509938
 42
-0.41824883222579956
  0
VERTEX
  8
0
 10
828.55999999999995
 20
399.1417114509938
 42
0
  0
VERTEX
  8
0
 10
828.55999999999995
 20
587.33829805988057
 42
-0.41824883222579956
  0
SEQEND
  0
POLYLINE
  8
0
 10
0
 20
0
 39
0
 70
1
 66
1
  0
VERTEX
  8
0
 10
850.64532714843745
 20
534.23617098468526
 42
0
  0
VERTEX
  8
0
 10
850.64532714843745
 20
452.24383089679458
 42
-0
  0
VERTEX
  8
0
 10
923.96185546874995
 20
380.22406313556411
 42
0
  0
VERTEX
  8
0
 10
997.27838378906245
 20
452.24383089679458
 42
0
  0
VERTEX
  8
0
 10
997.27838378906245
 20
534.23617098468526
 42
-0
  0
VERTEX
  8
0
 10
923.96185546874995
 20
606.2559311165212
 42
0
  0
SEQEND
  0
POLYLINE
  8
0
 10
0
 20
0
 39
0
 70
1
 66
1
  0
VERTEX
  8
0
 10
1086.9199999999998
 20
345.16000000000003
 42
-0
  0
VERTEX
  8
0
 10
1086.9200000000001
 20
55.160000000000011
 42
-1
  0
VERTEX
  8
0
 10
996.91999999999996
 20
55.159999999999997
 42
-0
  0
VERTEX
  8
0
 10
996.91999999999996
 20
345.16000000000003
 42
-1
  0
SEQEND
  0
POLYLINE
  8
0
 10
0
 20
0
 39
0
 70
1
 66
1
  0
VERTEX
  8
0
 10
1041.9199999999998
 20
329.13500610351565
 42
1
  0
VERTEX
  8
0
 10
1041.9199999999998
 20
361.1849938964844
 42
1
  0
SEQEND
  0
POLYLINE
  8
0
 10
0
 20
0
 39
0
 70
1
 66
1
  0
VERTEX
  8
0
 10
1041.9200000000001
 20
39.13500038146973
 42
1
  0
VERTEX
  8
0
 10
1041.9199999999998
 20
71.185001525878903
 42
1
  0
SEQEND
  0
POLYLINE
  8
0
 10
0
 20
0
 39
0
 70
1
 66
1
  0
VERTEX
  8
0
 10
1186.8799999999999
 20
644.07999999999993
 42
-0
  0
VERTEX
  8
0
 10
1186.8799999999999
 20
354.07999999999998
 42
-1
  0
VERTEX
  8
0
 10
1096.8799999999999
 20
354.07999999999998
 42
-0
  0
VERTEX
  8
0
 10
1096.8799999999999
 20
644.07999999999993
 42
-1
  0
SEQEND
  0
POLYLINE
  8
0
 10
0
 20
0
 39
0
 70
1
 66
1
  0
VERTEX
  8
0
 10
1141.8799999999999
 20
628.05500610351555
 42
1
  0
VERTEX
  8
0
 10
1141.8799999999999
 20
660.1049938964843
 42
1
  0
SEQEND
  0
POLYLINE
  8
0
 10
0
 20
0
 39
0
 70
1
 66
1
  0
VERTEX
  8
0
 10
1141.8799999999999
 20
338.05500038146971
 42
1
  0
VERTEX
  8
0
 10
1141.8799999999999
 20
370.10500152587889
 42
1
  0
SEQEND
  0
POLYLINE
  8
0
 10
0
 20
0
 39
0
 70
1
 66
1
  0
VERTEX
  8
0
 10
542.39999999999998
 20
10.16
 42
-0
  0
VERTEX
  8
0
 10
394.39999999999998
 20
10.16
 42
-0
  0
VERTEX
  8
0
 10
394.39999999999998
 20
65.159999999999997
 42
-0
  0
VERTEX
  8
0
 10
542.39999999999998
 20
120.16
 42
0
  0
SEQEND
  0
POLYLINE
  8
0
 10
0
 20
0
 39
0
 70
1
 66
1
  0
VERTEX
  8
0
 10
516.04926147460935
 20
32.659999999999997
 42
0
  0
VERTEX
  8
0
 10
516.04926147460935
 20
78.659999999999997
 42
0
  0
VERTEX
  8
0
 10
491.04926147460935
 20
78.659999999999997
 42
0
  0
VERTEX
  8
0
 10
491.04926147460935
 20
62.659999999999997
 42
0
  0
VERTEX
  8
0
 10
445.04926147460935
 20
62.659999999999997
 42
0
  0
VERTEX
  8
0
 10
445.04926147460935
 20
32.659999999999997
 42
0
  0
SEQEND
  0
POLYLINE
  8
0
 10
0
 20
0
 39
0
 70
1
 66
1
  0
VERTEX
  8
0
 10
394.39999999999998
 20
186.04599999999999
 42
-0
  0
VERTEX
  8
0
 10
542.39999999999998
 20
186.04599999999996
 42
-0
  0
VERTEX
  8
0
 10
542.39999999999998
 20
131.04599999999996
 42
-0
  0
VERTEX
  8
0
 10
394.39999999999998
 20
76.045999999999992
 42
0
  0
SEQEND
  0
POLYLINE
  8
0
 10
0
 20
0
 39
0
 70
1
 66
1
  0
VERTEX
  8
0
 10
420.7507385253906
 20
163.54599999999999
 42
0
  0
VERTEX
  8
0
 10
420.7507385253906
 20
117.54599999999999
 42
0
  0
VERTEX
  8
0
 10
445.7507385253906
 20
117.54599999999999
 42
0
  0
VERTEX
  8
0
 10
445.7507385253906
 20
133.54599999999999
 42
0
  0
VERTEX
  8
0
 10
491.7507385253906
 20
133.54599999999999
 42
0
  0
VERTEX
  8
0
 10
491.7507385253906
 20
163.54599999999999
 42
0
  0
SEQEND
  0
POLYLINE
  8
0
 10
0
 20
0
 39
0
 70
1
 66
1
  0
VERTEX
  8
0
 10
167.44
 20
522.50203872680663
 42
-0
  0
VERTEX
  8
0
 10
167.44
 20
505.25999999999999
 42
-1
  0
VERTEX
  8
0
 10
42.439999999999998
 20
505.25999999999999
 42
0
  0
VERTEX
  8
0
 10
42.439999999999998
 20
522.50203872680663
 42
-1
  0
SEQEND
  0
POLYLINE
  8
0
 10
0
 20
0
 39
0
 70
1
 66
1
  0
VERTEX
  8
0
 10
156.94
 20
522.50203872680663
 42
1
  0
VERTEX
  8
0
 10
52.939999999999998
 20
522.50203872680663
 42
-0
  0
VERTEX
  8
0
 10
52.939999999999998
 20
505.25999999999999
 42
1
  0
VERTEX
  8
0
 10
156.94
 20
505.25999999999999
 42
0
  0
SEQEND
  0
POLYLINE
  8
0
 10
0
 20
0
 39
0
 70
1
 66
1
  0
VERTEX
  8
0
 10
247.83999999999997
 20
203.90203872680664
 42
-0
  0
VERTEX
  8
0
 10
247.83999999999997
 20
186.66
 42
-1
  0
VERTEX
  8
0
 10
122.83999999999997
 20
186.66
 42
0
  0
VERTEX
  8
0
 10
122.83999999999997
 20
203.90203872680664
 42
-1
  0
SEQEND
  0
POLYLINE
  8
0
 10
0
 20
0
 39
0
 70
1
 66
1
  0
VERTEX
  8
0
 10
237.33999999999997
 20
203.90203872680664
 42
1
  0
VERTEX
  8
0
 10
133.33999999999997
 20
203.90203872680664
 42
-0
  0
VERTEX
  8
0
 10
133.33999999999997
 20
186.66
 42
1
  0
VERTEX
  8
0
 10
237.33999999999997
 20
186.66
 42
0
  0
SEQEND
  0
POLYLINE
  8
0
 10
0
 20
0
 39
0
 70
1
 66
1
  0
VERTEX
  8
0
 10
481
 20
509.42203872680659
 42
-0
  0
VERTEX
  8
0
 10
481
 20
492.17999999999995
 42
-1
  0
VERTEX
  8
0
 10
356
 20
492.17999999999995
 42
0
  0
VERTEX
  8
0
 10
356
 20
509.42203872680659
 42
-1
  0
SEQEND
  0
POLYLINE
  8
0
 10
0
 20
0
 39
0
 70
1
 66
1
  0
VERTEX
  8
0
 10
470.5
 20
509.42203872680659
 42
1
  0
VERTEX
  8
0
 10
366.5
 20
509.42203872680659
 42
-0
  0
VERTEX
  8
0
 10
366.5
 20
492.17999999999995
 42
1
  0
VERTEX
  8
0
 10
470.5
 20
492.17999999999995
 42
0
  0
SEQEND
  0
POLYLINE
  8
0
 10
0
 20
0
 39
0
 70
1
 66
1
  0
VERTEX
  8
0
 10
784.83999999999992
 20
531.26203872680662
 42
-0
  0
VERTEX
  8
0
 10
784.83999999999992
 20
514.01999999999998
 42
-1
  0
VERTEX
  8
0
 10
659.83999999999992
 20
514.01999999999998
 42
0
  0
VERTEX
  8
0
 10
659.83999999999992
 20
531.26203872680662
 42
-1
  0
SEQEND
  0
POLYLINE
  8
0
 10
0
 20
0
 39
0
 70
1
 66
1
  0
VERTEX
  8
0
 10
774.33999999999992
 20
531.26203872680662
 42
1
  0
VERTEX
  8
0
 10
670.33999999999992
 20
531.26203872680662
 42
-0
  0
VERTEX
  8
0
 10
670.33999999999992
 20
514.01999999999998
 42
1
  0
VERTEX
  8
0
 10
774.33999999999992
 20
514.01999999999998
 42
0
  0
SEQEND
  0
POLYLINE
  8
0
 10
0
 20
0
 39
0
 70
1
 66
1
  0
VERTEX
  8
0
 10
825.75999999999999
 20
203.90203872680664
 42
-0
  0
VERTEX
  8
0
 10
825.75999999999999
 20
186.66
 42
-1
  0
VERTEX
  8
0
 10
700.75999999999999
 20
186.66
 42
0
  0
VERTEX
  8
0
 10
700.75999999999999
 20
203.90203872680664
 42
-1
  0
SEQEND
  0
POLYLINE
  8
0
 10
0
 20
0
 39
0
 70
1
 66
1
  0
VERTEX
  8
0
 10
815.25999999999999
 20
203.90203872680664
 42
1
  0
VERTEX
  8
0
 10
711.25999999999999
 20
203.90203872680664
 42
-0
  0
VERTEX
  8
0
 10
711.25999999999999
 20
186.66
 42
1
  0
VERTEX
  8
0
 10
815.25999999999999
 20
186.66
 42
0
  0
SEQEND
  0
POLYLINE
  8
0
 10
0
 20
0
 39
0
 70
1
 66
1
  0
VERTEX
  8
0
 10
985.83999999999992
 20
500.06203872680663
 42
-0
  0
VERTEX
  8
0
 10
985.83999999999992
 20
482.81999999999999
 42
-1
  0
VERTEX
  8
0
 10
860.83999999999992
 20
482.81999999999999
 42
0
  0
VERTEX
  8
0
 10
860.83999999999992
 20
500.06203872680663
 42
-1
  0
SEQEND
  0
POLYLINE
  8
0
 10
0
 20
0
 39
0
 70
1
 66
1
  0
VERTEX
  8
0
 10
975.33999999999992
 20
500.06203872680663
 42
1
  0
VERTEX
  8
0
 10
871.33999999999992
 20
500.06203872680663
 42
-0
  0
VERTEX
  8
0
 10
871.33999999999992
 20
482.81999999999999
 42
1
  0
VERTEX
  8
0
 10
975.33999999999992
 20
482.81999999999999
 42
0
  0
SEQEND
  0
POLYLINE
  8
0
 10
0
 20
0
 39
0
 70
1
 66
1
  0
VERTEX
  8
0
 10
394.39999999999998
 20
196.16
 42
0
  0
VERTEX
  8
0
 10
542.39999999999998
 20
196.16
 42
0
  0
VERTEX
  8
0
 10
542.39999999999998
 20
251.16
 42
0
  0
VERTEX
  8
0
 10
394.39999999999998
 20
306.15999999999997
 42
-0
  0
SEQEND
  0
POLYLINE
  8
0
 10
0
 20
0
 39
0
 70
1
 66
1
  0
VERTEX
  8
0
 10
420.7507385253906
 20
218.66
 42
-0
  0
VERTEX
  8
0
 10
420.7507385253906
 20
264.65999999999997
 42
-0
  0
VERTEX
  8
0
 10
445.7507385253906
 20
264.65999999999997
 42
-0
  0
VERTEX
  8
0
 10
445.7507385253906
 20
248.66
 42
-0
  0
VERTEX
  8
0
 10
491.7507385253906
 20
248.66
 42
-0
  0
VERTEX
  8
0
 10
491.7507385253906
 20
218.66
 42
-0
  0
SEQEND
  0
POLYLINE
  8
0
 10
0
 20
0
 39
0
 70
1
 66
1
  0
VERTEX
  8
0
 10
919.83999999999992
 20
639.67999999999995
 42
-0
  0
VERTEX
  8
0
 10
809.83999999999992
 20
639.67999999999995
 42
0
  0
VERTEX
  8
0
 10
809.83999999999992
 20
689.67999999999995
 42
0
  0
VERTEX
  8
0
 10
919.83999999999992
 20
689.67999999999995
 42
0
  0
SEQEND
  0
POLYLINE
  8
0
 10
0
 20
0
 39
0
 70
1
 66
1
  0
VERTEX
  8
0
 10
905.04744228363029
 20
664.67999999999995
 42
1
  0
VERTEX
  8
0
 10
879.04744323730461
 20
664.67999999999995
 42
1
  0
SEQEND
  0
POLYLINE
  8
0
 10
0
 20
0
 39
0
 70
1
 66
1
  0
VERTEX
  8
0
 10
1040.0799999999999
 20
637.27999999999997
 42
-0
  0
VERTEX
  8
0
 10
930.07999999999993
 20
637.27999999999997
 42
0
  0
VERTEX
  8
0
 10
930.07999999999993
 20
687.27999999999997
 42
0
  0
VERTEX
  8
0
 10
1040.0799999999999
 20
687.27999999999997
 42
0
  0
SEQEND
  0
POLYLINE
  8
0
 10
0
 20
0
 39
0
 70
1
 66
1
  0
VERTEX
  8
0
 10
1025.2874422836303
 20
662.27999999999997
 42
1
  0
VERTEX
  8
0
 10
999.28744323730461
 20
662.27999999999997
 42
1
  0
SEQEND
  0
POLYLINE
  8
0
 10
0
 20
0
 39
0
 70
1
 66
1
  0
VERTEX
  8
0
 10
135.35999999999999
 20
492.40584350585937
 42
-0.11934766173362732
  0
VERTEX
  8
0
 10
121.71415649414061
 20
478.75999999999999
 42
-0
  0
VERTEX
  8
0
 10
79.00584350585936
 20
478.75999999999999
 42
-0.11934766173362732
  0
VERTEX
  8
0
 10
65.359999999999985
 20
492.40584350585937
 42
0
  0
VERTEX
  8
0
 10
65.359999999999985
 20
535.11415649414062
 42
-0.11934766173362732
  0
VERTEX
  8
0
 10
79.00584350585936
 20
548.75999999999999
 42
0
  0
VERTEX
  8
0
 10
121.71415649414061
 20
548.75999999999999
 42
-0.11934766173362732
  0
VERTEX
  8
0
 10
135.35999999999999
 20
535.11415649414062
 42
0
  0
SEQEND
  0
POLYLINE
  8
0
 10
0
 20
0
 39
0
 70
1
 66
1
  0
VERTEX
  8
0
 10
109.11416755676268
 20
513.75999999999999
 42
1
  0
VERTEX
  8
0
 10
77.114165649414048
 20
513.75999999999999
 42
1
  0
SEQEND
  0
POLYLINE
  8
0
 10
0
 20
0
 39
0
 70
1
 66
1
  0
VERTEX
  8
0
 10
215.75999999999999
 20
173.80584350585937
 42
-0.11934766173362732
  0
VERTEX
  8
0
 10
202.11415649414062
 20
160.16
 42
-0
  0
VERTEX
  8
0
 10
159.40584350585937
 20
160.16
 42
-0.11934766173362732
  0
VERTEX
  8
0
 10
145.75999999999999
 20
173.80584350585937
 42
0
  0
VERTEX
  8
0
 10
145.75999999999999
 20
216.51415649414062
 42
-0.11934766173362732
  0
VERTEX
  8
0
 10
159.40584350585937
 20
230.16
 42
0
  0
VERTEX
  8
0
 10
202.11415649414062
 20
230.16
 42
-0.11934766173362732
  0
VERTEX
  8
0
 10
215.75999999999999
 20
216.51415649414062
 42
0
  0
SEQEND
  0
POLYLINE
  8
0
 10
0
 20
0
 39
0
 70
1
 66
1
  0
VERTEX
  8
0
 10
189.51416755676269
 20
195.16
 42
1
  0
VERTEX
  8
0
 10
157.51416564941405
 20
195.16
 42
1
  0
SEQEND
  0
POLYLINE
  8
0
 10
0
 20
0
 39
0
 70
1
 66
1
  0
VERTEX
  8
0
 10
263.03999999999996
 20
633.40584350585937
 42
-0.11934766173362732
  0
VERTEX
  8
0
 10
249.39415649414059
 20
619.75999999999999
 42
-0
  0
VERTEX
  8
0
 10
206.68584350585934
 20
619.75999999999999
 42
-0.11934766173362732
  0
VERTEX
  8
0
 10
193.03999999999996
 20
633.40584350585937
 42
0
  0
VERTEX
  8
0
 10
193.03999999999996
 20
676.11415649414062
 42
-0.11934766173362732
  0
VERTEX
  8
0
 10
206.68584350585934
 20
689.75999999999999
 42
0
  0
VERTEX
  8
0
 10
249.39415649414059
 20
689.75999999999999
 42
-0.11934766173362732
  0
VERTEX
  8
0
 10
263.03999999999996
 20
676.11415649414062
 42
0
  0
SEQEND
  0
POLYLINE
  8
0
 10
0
 20
0
 39
0
 70
1
 66
1
  0
VERTEX
  8
0
 10
236.79416755676266
 20
654.75999999999999
 42
1
  0
VERTEX
  8
0
 10
204.79416564941403
 20
654.75999999999999
 42
1
  0
SEQEND
  0
POLYLINE
  8
0
 10
0
 20
0
 39
0
 70
1
 66
1
  0
VERTEX
  8
0
 10
448.91999999999996
 20
479.32584350585932
 42
-0.11934766173362732
  0
VERTEX
  8
0
 10
435.27415649414058
 20
465.67999999999995
 42
-0
  0
VERTEX
  8
0
 10
392.56584350585933
 20
465.67999999999995
 42
-0.11934766173362732
  0
VERTEX
  8
0
 10
378.91999999999996
 20
479.32584350585932
 42
0
  0
VERTEX
  8
0
 10
378.91999999999996
 20
522.03415649414057
 42
-0.11934766173362732
  0
VERTEX
  8
0
 10
392.56584350585933
 20
535.67999999999995
 42
0
  0
VERTEX
  8
0
 10
435.27415649414058
 20
535.67999999999995
 42
-0.11934766173362732
  0
VERTEX
  8
0
 10
448.91999999999996
 20
522.03415649414057
 42
0
  0
SEQEND
  0
POLYLINE
  8
0
 10
0
 20
0
 39
0
 70
1
 66
1
  0
VERTEX
  8
0
 10
422.67416755676265
 20
500.67999999999995
 42
1
  0
VERTEX
  8
0
 10
390.67416564941402
 20
500.67999999999995
 42
1
  0
SEQEND
  0
POLYLINE
  8
0
 10
0
 20
0
 39
0
 70
1
 66
1
  0
VERTEX
  8
0
 10
622.55999999999995
 20
23.805843505859382
 42
-0.11934766173362732
  0
VERTEX
  8
0
 10
608.91415649414057
 20
10.16
 42
-0
  0
VERTEX
  8
0
 10
566.20584350585932
 20
10.160000000000007
 42
-0.11934766173362732
  0
VERTEX
  8
0
 10
552.55999999999995
 20
23.805843505859382
 42
0
  0
VERTEX
  8
0
 10
552.55999999999995
 20
66.514156494140636
 42
-0.11934766173362732
  0
VERTEX
  8
0
 10
566.20584350585932
 20
80.160000000000011
 42
0
  0
VERTEX
  8
0
 10
608.91415649414057
 20
80.160000000000011
 42
-0.11934766173362732
  0
VERTEX
  8
0
 10
622.55999999999995
 20
66.514156494140636
 42
0
  0
SEQEND
  0
POLYLINE
  8
0
 10
0
 20
0
 39
0
 70
1
 66
1
  0
VERTEX
  8
0
 10
596.31416755676264
 20
45.160000000000011
 42
1
  0
VERTEX
  8
0
 10
564.31416564941401
 20
45.160000000000011
 42
1
  0
SEQEND
  0
POLYLINE
  8
0
 10
0
 20
0
 39
0
 70
1
 66
1
  0
VERTEX
  8
0
 10
752.75999999999999
 20
501.16584350585936
 42
-0.11934766173362732
  0
VERTEX
  8
0
 10
739.11415649414062
 20
487.51999999999998
 42
-0
  0
VERTEX
  8
0
 10
696.40584350585937
 20
487.51999999999998
 42
-0.11934766173362732
  0
VERTEX
  8
0
 10
682.75999999999999
 20
501.16584350585936
 42
0
  0
VERTEX
  8
0
 10
682.75999999999999
 20
543.87415649414061
 42
-0.11934766173362732
  0
VERTEX
  8
0
 10
696.40584350585937
 20
557.51999999999998
 42
0
  0
VERTEX
  8
0
 10
739.11415649414062
 20
557.51999999999998
 42
-0.11934766173362732
  0
VERTEX
  8
0
 10
752.75999999999999
 20
543.87415649414061
 42
0
  0
SEQEND
  0
POLYLINE
  8
0
 10
0
 20
0
 39
0
 70
1
 66
1
  0
VERTEX
  8
0
 10
726.51416755676269
 20
522.51999999999998
 42
1
  0
VERTEX
  8
0
 10
694.51416564941405
 20
522.51999999999998
 42
1
  0
SEQEND
  0
POLYLINE
  8
0
 10
0
 20
0
 39
0
 70
1
 66
1
  0
VERTEX
  8
0
 10
793.67999999999995
 20
173.80584350585937
 42
-0.11934766173362732
  0
VERTEX
  8
0
 10
780.03415649414057
 20
160.16
 42
-0
  0
VERTEX
  8
0
 10
737.32584350585932
 20
160.16
 42
-0.11934766173362732
  0
VERTEX
  8
0
 10
723.67999999999995
 20
173.80584350585937
 42
0
  0
VERTEX
  8
0
 10
723.67999999999995
 20
216.51415649414062
 42
-0.11934766173362732
  0
VERTEX
  8
0
 10
737.32584350585932
 20
230.16
 42
0
  0
VERTEX
  8
0
 10
780.03415649414057
 20
230.16
 42
-0.11934766173362732
  0
VERTEX
  8
0
 10
793.67999999999995
 20
216.51415649414062
 42
0
  0
SEQEND
  0
POLYLINE
  8
0
 10
0
 20
0
 39
0
 70
1
 66
1
  0
VERTEX
  8
0
 10
767.43416755676265
 20
195.16
 42
1
  0
VERTEX
  8
0
 10
735.43416564941401
 20
195.16
 42
1
  0
SEQEND
  0
POLYLINE
  8
0
 10
0
 20
0
 39
0
 70
1
 66
1
  0
VERTEX
  8
0
 10
953.75999999999999
 20
469.96584350585937
 42
-0.11934766173362732
  0
VERTEX
  8
0
 10
940.11415649414062
 20
456.31999999999999
 42
-0
  0
VERTEX
  8
0
 10
897.40584350585937
 20
456.31999999999999
 42
-0.11934766173362732
  0
VERTEX
  8
0
 10
883.75999999999999
 20
469.96584350585937
 42
0
  0
VERTEX
  8
0
 10
883.75999999999999
 20
512.67415649414056
 42
-0.11934766173362732
  0
VERTEX
  8
0
 10
897.40584350585937
 20
526.31999999999994
 42
0
  0
VERTEX
  8
0
 10
940.11415649414062
 20
526.31999999999994
 42
-0.11934766173362732
  0
VERTEX
  8
0
 10
953.75999999999999
 20
512.67415649414056
 42
0
  0
SEQEND
  0
POLYLINE
  8
0
 10
0
 20
0
 39
0
 70
1
 66
1
  0
VERTEX
  8
0
 10
927.51416755676269
 20
491.31999999999999
 42
1
  0
VERTEX
  8
0
 10
895.51416564941405
 20
491.31999999999999
 42
1
  0
SEQEND
  0
POLYLINE
  8
0
 10
0
 20
0
 39
0
 70
1
 66
1
  0
VERTEX
  8
0
 10
1167.1199999999999
 20
23.805843505859382
 42
-0.11934766173362732
  0
VERTEX
  8
0
 10
1153.4741564941405
 20
10.16
 42
-0
  0
VERTEX
  8
0
 10
1110.7658435058593
 20
10.160000000000007
 42
-0.11934766173362732
  0
VERTEX
  8
0
 10
1097.1199999999999
 20
23.805843505859382
 42
0
  0
VERTEX
  8
0
 10
1097.1199999999999
 20
66.514156494140636
 42
-0.11934766173362732
  0
VERTEX
  8
0
 10
1110.7658435058593
 20
80.160000000000011
 42
0
  0
VERTEX
  8
0
 10
1153.4741564941405
 20
80.160000000000011
 42
-0.11934766173362732
  0
VERTEX
  8
0
 10
1167.1199999999999
 20
66.514156494140636
 42
0
  0
SEQEND
  0
POLYLINE
  8
0
 10
0
 20
0
 39
0
 70
1
 66
1
  0
VERTEX
  8
0
 10
1140.8741675567626
 20
45.160000000000011
 42
1
  0
VERTEX
  8
0
 10
1108.874165649414
 20
45.160000000000011
 42
1
  0
SEQEND
  0
POLYLINE
  8
0
 10
0
 20
0
 39
0
 70
1
 66
1
  0
VERTEX
  8
0
 10
1167.1199999999999
 20
103.84584350585936
 42
-0.11934766173362732
  0
VERTEX
  8
0
 10
1153.4741564941405
 20
90.199999999999989
 42
-0
  0
VERTEX
  8
0
 10
1110.7658435058593
 20
90.199999999999989
 42
-0.11934766173362732
  0
VERTEX
  8
0
 10
1097.1199999999999
 20
103.84584350585936
 42
0
  0
VERTEX
  8
0
 10
1097.1199999999999
 20
146.55415649414061
 42
-0.11934766173362732
  0
VERTEX
  8
0
 10
1110.7658435058593
 20
160.19999999999999
 42
0
  0
VERTEX
  8
0
 10
1153.4741564941405
 20
160.19999999999999
 42
-0.11934766173362732
  0
VERTEX
  8
0
 10
1167.1199999999999
 20
146.55415649414061
 42
0
  0
SEQEND
  0
POLYLINE
  8
0
 10
0
 20
0
 39
0
 70
1
 66
1
  0
VERTEX
  8
0
 10
1140.8741675567626
 20
125.19999999999999
 42
1
  0
VERTEX
  8
0
 10
1108.874165649414
 20
125.19999999999999
 42
1
  0
SEQEND
  0
POLYLINE
  8
0
 10
0
 20
0
 39
0
 70
1
 66
1
  0
VERTEX
  8
0
 10
1167.1199999999999
 20
183.88584350585936
 42
-0.11934766173362732
  0
VERTEX
  8
0
 10
1153.4741564941405
 20
170.23999999999998
 42
-0
  0
VERTEX
  8
0
 10
1110.7658435058593
 20
170.23999999999998
 42
-0.11934766173362732
  0
VERTEX
  8
0
 10
1097.1199999999999
 20
183.88584350585936
 42
0
  0
VERTEX
  8
0
 10
1097.1199999999999
 20
226.59415649414061
 42
-0.11934766173362732
  0
VERTEX
  8
0
 10
1110.7658435058593
 20
240.23999999999998
 42
0
  0
VERTEX
  8
0
 10
1153.4741564941405
 20
240.23999999999998
 42
-0.11934766173362732
  0
VERTEX
  8
0
 10
1167.1199999999999
 20
226.59415649414061
 42
0
  0
SEQEND
  0
POLYLINE
  8
0
 10
0
 20
0
 39
0
 70
1
 66
1
  0
VERTEX
  8
0
 10
1140.8741675567626
 20
205.23999999999998
 42
1
  0
VERTEX
  8
0
 10
1108.874165649414
 20
205.23999999999998
 42
1
  0
SEQEND
  0
POLYLINE
  8
0
 10
0
 20
0
 39
0
 70
1
 66
1
  0
VERTEX
  8
0
 10
1029.5599999999999
 20
400.27999999999997
 42
-0
  0
VERTEX
  8
0
 10
1029.5599999999999
 20
406.79178026199338
 42
0.35743856430053711
  0
VERTEX
  8
0
 10
1029.5599999999999
 20
428.34403732299802
 42
-0
  0
VERTEX
  8
0
 10
1029.5599999999999
 20
472.21596649169919
 42
0.35743856430053711
  0
VERTEX
  8
0
 10
1029.5599999999999
 20
493.76822021484372
 42
-0
  0
VERTEX
  8
0
 10
1029.5599999999999
 20
500.27999999999997
 42
-0
  0
VERTEX
  8
0
 10
1069.5599999999999
 20
500.27999999999997
 42
-0
  0
VERTEX
  8
0
 10
1069.5599999999999
 20
493.76822021484372
 42
0.35743856430053711
  0
VERTEX
  8
0
 10
1069.5599999999999
 20
472.21596649169919
 42
-0
  0
VERTEX
  8
0
 10
1069.5599999999999
 20
428.34403732299802
 42
0.35743856430053711
  0
VERTEX
  8
0
 10
1069.5599999999999
 20
406.79178026199338
 42
-0
  0
VERTEX
  8
0
 10
1069.5599999999999
 20
400.27999999999997
 42
0
  0
SEQEND
  0
POLYLINE
  8
0
 10
0
 20
0
 39
0
 70
1
 66
1
  0
VERTEX
  8
0
 10
1049.5599999999999
 20
439.27999999999997
 42
1
  0
VERTEX
  8
0
 10
1049.5599999999999
 20
461.27999999999997
 42
1
  0
SEQEND
  0
POLYLINE
  8
0
 10
0
 20
0
 39
0
 70
1
 66
1
  0
VERTEX
  8
0
 10
1029.5599999999999
 20
510.31999999999994
 42
-0
  0
VERTEX
  8
0
 10
1029.5599999999999
 20
516.83178026199334
 42
0.35743856430053711
  0
VERTEX
  8
0
 10
1029.5599999999999
 20
538.38403732299798
 42
-0
  0
VERTEX
  8
0
 10
1029.5599999999999
 20
582.25596649169916
 42
0.35743856430053711
  0
VERTEX
  8
0
 10
1029.5599999999999
 20
603.80822021484369
 42
-0
  0
VERTEX
  8
0
 10
1029.5599999999999
 20
610.31999999999994
 42
-0
  0
VERTEX
  8
0
 10
1069.5599999999999
 20
610.31999999999994
 42
-0
  0
VERTEX
  8
0
 10
1069.5599999999999
 20
603.80822021484369
 42
0.35743856430053711
  0
VERTEX
  8
0
 10
1069.5599999999999
 20
582.25596649169916
 42
-0
  0
VERTEX
  8
0
 10
1069.5599999999999
 20
538.38403732299798
 42
0.35743856430053711
  0
VERTEX
  8
0
 10
1069.5599999999999
 20
516.83178026199334
 42
-0
  0
VERTEX
  8
0
 10
1069.5599999999999
 20
510.31999999999994
 42
0
  0
SEQEND
  0
POLYLINE
  8
0
 10
0
 20
0
 39
0
 70
1
 66
1
  0
VERTEX
  8
0
 10
1049.5599999999999
 20
549.31999999999994
 42
1
  0
VERTEX
  8
0
 10
1049.5599999999999
 20
571.31999999999994
 42
1
  0
SEQEND
  0
POLYLINE
  8
0
 10
0
 20
0
 39
0
 70
1
 66
1
  0
VERTEX
  8
0
 10
115.16
 20
659.71999999999991
 42
-0
  0
VERTEX
  8
0
 10
10.159999999999997
 20
659.71999999999991
 42
-0
  0
VERTEX
  8
0
 10
10.159999999999997
 20
689.71999999999991
 42
0
  0
VERTEX
  8
0
 10
115.16
 20
689.71999999999991
 42
0
  0
SEQEND
  0
POLYLINE
  8
0
 10
0
 20
0
 39
0
 70
1
 66
1
  0
VERTEX
  8
0
 10
72.659999999999997
 20
674.71999999999991
 42
1
  0
VERTEX
  8
0
 10
52.659999999999997
 20
674.71999999999991
 42
1
  0
SEQEND
  0
POLYLINE
  8
0
 10
0
 20
0
 39
0
 70
1
 66
1
  0
VERTEX
  8
0
 10
291.56
 20
128.35999999999999
 42
-0
  0
VERTEX
  8
0
 10
291.56
 20
233.35999999999999
 42
-0
  0
VERTEX
  8
0
 10
321.56
 20
233.35999999999999
 42
0
  0
VERTEX
  8
0
 10
321.56
 20
128.35999999999999
 42
0
  0
SEQEND
  0
POLYLINE
  8
0
 10
0
 20
0
 39
0
 70
1
 66
1
  0
VERTEX
  8
0
 10
306.56
 20
170.85999999999999
 42
1
  0
VERTEX
  8
0
 10
306.56
 20
190.85999999999999
 42
1
  0
SEQEND
  0
POLYLINE
  8
0
 10
0
 20
0
 39
0
 70
1
 66
1
  0
VERTEX
  8
0
 10
524.71999999999991
 20
433.88
 42
-0
  0
VERTEX
  8
0
 10
524.71999999999991
 20
538.88
 42
-0
  0
VERTEX
  8
0
 10
554.71999999999991
 20
538.88
 42
0
  0
VERTEX
  8
0
 10
554.71999999999991
 20
433.88
 42
0
  0
SEQEND
  0
POLYLINE
  8
0
 10
0
 20
0
 39
0
 70
1
 66
1
  0
VERTEX
  8
0
 10
539.71999999999991
 20
476.38
 42
1
  0
VERTEX
  8
0
 10
539.71999999999991
 20
496.38
 42
1
  0
SEQEND
  0
POLYLINE
  8
0
 10
0
 20
0
 39
0
 70
1
 66
1
  0
VERTEX
  8
0
 10
654.79999999999995
 20
659.71999999999991
 42
-0
  0
VERTEX
  8
0
 10
549.79999999999995
 20
659.71999999999991
 42
-0
  0
VERTEX
  8
0
 10
549.79999999999995
 20
689.71999999999991
 42
0
  0
VERTEX
  8
0
 10
654.79999999999995
 20
689.71999999999991
 42
0
  0
SEQEND
  0
POLYLINE
  8
0
 10
0
 20
0
 39
0
 70
1
 66
1
  0
VERTEX
  8
0
 10
612.29999999999995
 20
674.71999999999991
 42
1
  0
VERTEX
  8
0
 10
592.29999999999995
 20
674.71999999999991
 42
1
  0
SEQEND
  0
POLYLINE
  8
0
 10
0
 20
0
 39
0
 70
1
 66
1
  0
VERTEX
  8
0
 10
869.4799999999999
 20
128.35999999999999
 42
-0
  0
VERTEX
  8
0
 10
869.4799999999999
 20
233.35999999999999
 42
-0
  0
VERTEX
  8
0
 10
899.4799999999999
 20
233.35999999999999
 42
0
  0
VERTEX
  8
0
 10
899.4799999999999
 20
128.35999999999999
 42
0
  0
SEQEND
  0
POLYLINE
  8
0
 10
0
 20
0
 39
0
 70
1
 66
1
  0
VERTEX
  8
0
 10
884.4799999999999
 20
170.85999999999999
 42
1
  0
VERTEX
  8
0
 10
884.4799999999999
 20
190.85999999999999
 42
1
  0
SEQEND
  0
ENDSEC
  0
EOF
