  0
SECTION
  2
ENTITIES
  0
POLYLINE
  8
0
 10
0
 20
0
 39
0
 70
1
 66
1
  0
VERTEX
  8
0
 10
0
 20
0
 42
0
  0
VERTEX
  8
0
 10
2100
 20
0
 42
0
  0
VERTEX
  8
0
 10
2100
 20
1100
 42
0
  0
VERTEX
  8
0
 10
0
 20
1100
 42
0
  0
SEQEND
  0
POLYLINE
  8
0
 10
0
 20
0
 39
0
 70
1
 66
1
  0
VERTEX
  8
0
 10
10.25
 20
35.25
 42
0
  0
VERTEX
  8
0
 10
386.05709838867187
 20
10.25
 42
-0
  0
VERTEX
  8
0
 10
386.05709838867187
 20
510.25
 42
0
  0
VERTEX
  8
0
 10
10.25
 20
485.25
 42
0
  0
SEQEND
  0
POLYLINE
  8
0
 10
0
 20
0
 39
0
 70
1
 66
1
  0
VERTEX
  8
0
 10
51.455524444580078
 20
65.25
 42
-0
  0
VERTEX
  8
0
 10
51.455524444580078
 20
455.25
 42
-0
  0
VERTEX
  8
0
 10
217.15266418457031
 20
455.25
 42
-0.6528351902961731
  0
VERTEX
  8
0
 10
217.15266418457031
 20
65.25
 42
0
  0
SEQEND
  0
POLYLINE
  8
0
 10
0
 20
0
 39
0
 70
1
 66
1
  0
VERTEX
  8
0
 10
386.05709838867187
 20
970.97998046875
 42
0
  0
VERTEX
  8
0
 10
10.25
 20
995.97998046875
 42
-0
  0
VERTEX
  8
0
 10
10.25
 20
495.98001098632812
 42
0
  0
VERTEX
  8
0
 10
386.05709838867187
 20
520.97998046875
 42
0
  0
SEQEND
  0
POLYLINE
  8
0
 10
0
 20
0
 39
0
 70
1
 66
1
  0
VERTEX
  8
0
 10
344.8515625
 20
940.97998046875
 42
-0
  0
VERTEX
  8
0
 10
344.8515625
 20
550.97998046875
 42
-0
  0
VERTEX
  8
0
 10
179.1544189453125
 20
550.97998046875
 42
-0.6528351902961731
  0
VERTEX
  8
0
 10
179.1544189453125
 20
940.97998046875
 42
0
  0
SEQEND
  0
POLYLINE
  8
0
 10
0
 20
0
 39
0
 70
1
 66
1
  0
VERTEX
  8
0
 10
396.44000244140625
 20
35.25
 42
0
  0
VERTEX
  8
0
 10
772.2470703125
 20
10.25
 42
-0
  0
VERTEX
  8
0
 10
772.2470703125
 20
510.25
 42
0
  0
VERTEX
  8
0
 10
396.44000244140625
 20
485.25
 42
0
  0
SEQEND
  0
POLYLINE
  8
0
 10
0
 20
0
 39
0
 70
1
 66
1
  0
VERTEX
  8
0
 10
437.64553833007812
 20
65.25
 42
-0
  0
VERTEX
  8
0
 10
437.64553833007812
 20
455.25
 42
-0
  0
VERTEX
  8
0
 10
603.3426513671875
 20
455.25
 42
-0.6528351902961731
  0
VERTEX
  8
0
 10
603.3426513671875
 20
65.25
 42
0
  0
SEQEND
  0
POLYLINE
  8
0
 10
0
 20
0
 39
0
 70
1
 66
1
  0
VERTEX
  8
0
 10
772.2470703125
 20
970.97998046875
 42
0
  0
VERTEX
  8
0
 10
396.44000244140625
 20
995.97998046875
 42
-0
  0
VERTEX
  8
0
 10
396.44000244140625
 20
495.98001098632812
 42
0
  0
VERTEX
  8
0
 10
772.2470703125
 20
520.97998046875
 42
0
  0
SEQEND
  0
POLYLINE
  8
0
 10
0
 20
0
 39
0
 70
1
 66
1
  0
VERTEX
  8
0
 10
731.04156494140625
 20
940.97998046875
 42
-0
  0
VERTEX
  8
0
 10
731.04156494140625
 20
550.97998046875
 42
-0
  0
VERTEX
  8
0
 10
565.34442138671875
 20
550.97998046875
 42
-0.6528351902961731
  0
VERTEX
  8
0
 10
565.34442138671875
 20
940.97998046875
 42
0
  0
SEQEND
  0
POLYLINE
  8
0
 10
0
 20
0
 39
0
 70
1
 66
1
  0
VERTEX
  8
0
 10
782.6300048828125
 20
35.25
 42
0
  0
VERTEX
  8
0
 10
1158.4371337890625
 20
10.25
 42
-0
  0
VERTEX
  8
0
 10
1158.4371337890625
 20
510.25
 42
0
  0
VERTEX
  8
0
 10
782.6300048828125
 20
485.25
 42
0
  0
SEQEND
  0
POLYLINE
  8
0
 10
0
 20
0
 39
0
 70
1
 66
1
  0
VERTEX
  8
0
 10
823.83551025390625
 20
65.25
 42
-0
  0
VERTEX
  8
0
 10
823.83551025390625
 20
455.25
 42
-0
  0
VERTEX
  8
0
 10
989.53265380859375
 20
455.25
 42
-0.6528351902961731
  0
VERTEX
  8
0
 10
989.53265380859375
 20
65.25
 42
0
  0
SEQEND
  0
POLYLINE
  8
0
 10
0
 20
0
 39
0
 70
1
 66
1
  0
VERTEX
  8
0
 10
1158.4371337890625
 20
970.97998046875
 42
0
  0
VERTEX
  8
0
 10
782.6300048828125
 20
995.97998046875
 42
-0
  0
VERTEX
  8
0
 10
782.6300048828125
 20
495.98001098632812
 42
0
  0
VERTEX
  8
0
 10
1158.4371337890625
 20
520.97998046875
 42
0
  0
SEQEND
  0
POLYLINE
  8
0
 10
0
 20
0
 39
0
 70
1
 66
1
  0
VERTEX
  8
0
 10
1117.2315673828125
 20
940.97998046875
 42
-0
  0
VERTEX
  8
0
 10
1117.2315673828125
 20
550.97998046875
 42
-0
  0
VERTEX
  8
0
 10
951.534423828125
 20
550.97998046875
 42
-0.6528351902961731
  0
VERTEX
  8
0
 10
951.534423828125
 20
940.97998046875
 42
0
  0
SEQEND
  0
POLYLINE
  8
0
 10
0
 20
0
 39
0
 70
1
 66
1
  0
VERTEX
  8
0
 10
1168.8199462890625
 20
35.25
 42
0
  0
VERTEX
  8
0
 10
1544.6270751953125
 20
10.25
 42
-0
  0
VERTEX
  8
0
 10
1544.6270751953125
 20
510.25
 42
0
  0
VERTEX
  8
0
 10
1168.8199462890625
 20
485.25
 42
0
  0
SEQEND
  0
POLYLINE
  8
0
 10
0
 20
0
 39
0
 70
1
 66
1
  0
VERTEX
  8
0
 10
1210.0255126953125
 20
65.25
 42
-0
  0
VERTEX
  8
0
 10
1210.0255126953125
 20
455.25
 42
-0
  0
VERTEX
  8
0
 10
1375.72265625
 20
455.25
 42
-0.6528351902961731
  0
VERTEX
  8
0
 10
1375.72265625
 20
65.25
 42
0
  0
SEQEND
  0
POLYLINE
  8
0
 10
0
 20
0
 39
0
 70
1
 66
1
  0
VERTEX
  8
0
 10
1544.6270751953125
 20
970.97998046875
 42
0
  0
VERTEX
  8
0
 10
1168.8199462890625
 20
995.97998046875
 42
-0
  0
VERTEX
  8
0
 10
1168.8199462890625
 20
495.98001098632812
 42
0
  0
VERTEX
  8
0
 10
1544.6270751953125
 20
520.97998046875
 42
0
  0
SEQEND
  0
POLYLINE
  8
0
 10
0
 20
0
 39
0
 70
1
 66
1
  0
VERTEX
  8
0
 10
1503.4215087890625
 20
940.97998046875
 42
-0
  0
VERTEX
  8
0
 10
1503.4215087890625
 20
550.97998046875
 42
-0
  0
VERTEX
  8
0
 10
1337.724365234375
 20
550.97998046875
 42
-0.6528351902961731
  0
VERTEX
  8
0
 10
1337.724365234375
 20
940.97998046875
 42
0
  0
SEQEND
  0
POLYLINE
  8
0
 10
0
 20
0
 39
0
 70
1
 66
1
  0
VERTEX
  8
0
 10
1555.010009765625
 20
35.25
 42
0
  0
VERTEX
  8
0
 10
1930.817138671875
 20
10.25
 42
-0
  0
VERTEX
  8
0
 10
1930.817138671875
 20
510.25
 42
0
  0
VERTEX
  8
0
 10
1555.010009765625
 20
485.25
 42
0
  0
SEQEND
  0
POLYLINE
  8
0
 10
0
 20
0
 39
0
 70
1
 66
1
  0
VERTEX
  8
0
 10
1596.215576171875
 20
65.25
 42
-0
  0
VERTEX
  8
0
 10
1596.215576171875
 20
455.25
 42
-0
  0
VERTEX
  8
0
 10
1761.9127197265625
 20
455.25
 42
-0.6528351902961731
  0
VERTEX
  8
0
 10
1761.9127197265625
 20
65.25
 42
0
  0
SEQEND
  0
POLYLINE
  8
0
 10
0
 20
0
 39
0
 70
1
 66
1
  0
VERTEX
  8
0
 10
1930.817138671875
 20
970.97998046875
 42
0
  0
VERTEX
  8
0
 10
1555.010009765625
 20
995.97998046875
 42
-0
  0
VERTEX
  8
0
 10
1555.010009765625
 20
495.98001098632812
 42
0
  0
VERTEX
  8
0
 10
1930.817138671875
 20
520.97998046875
 42
0
  0
SEQEND
  0
POLYLINE
  8
0
 10
0
 20
0
 39
0
 70
1
 66
1
  0
VERTEX
  8
0
 10
1889.611572265625
 20
940.97998046875
 42
-0
  0
VERTEX
  8
0
 10
1889.611572265625
 20
550.97998046875
 42
-0
  0
VERTEX
  8
0
 10
1723.9144287109375
 20
550.97998046875
 42
-0.6528351902961731
  0
VERTEX
  8
0
 10
1723.9144287109375
 20
940.97998046875
 42
0
  0
SEQEND
  0
POLYLINE
  8
0
 10
0
 20
0
 39
0
 70
1
 66
1
  0
VERTEX
  8
0
 10
61.700000762939453
 20
140.55999755859375
 42
1
  0
VERTEX
  8
0
 10
191.69999694824219
 20
140.55999755859375
 42
0
  0
VERTEX
  8
0
 10
191.69999694824219
 20
370.55999755859375
 42
1
  0
VERTEX
  8
0
 10
61.700000762939453
 20
370.55999755859375
 42
0
  0
SEQEND
  0
POLYLINE
  8
0
 10
0
 20
0
 39
0
 70
1
 66
1
  0
VERTEX
  8
0
 10
126.69999694824219
 20
113.05999755859375
 42
-1
  0
VERTEX
  8
0
 10
126.69999694824219
 20
168.05999755859375
 42
-1
  0
SEQEND
  0
POLYLINE
  8
0
 10
0
 20
0
 39
0
 70
1
 66
1
  0
VERTEX
  8
0
 10
126.69999694824219
 20
343.05999755859375
 42
-1
  0
VERTEX
  8
0
 10
126.69999694824219
 20
398.05999755859375
 42
-1
  0
SEQEND
  0
POLYLINE
  8
0
 10
0
 20
0
 39
0
 70
1
 66
1
  0
VERTEX
  8
0
 10
124.69999694824219
 20
630.90997314453125
 42
1
  0
VERTEX
  8
0
 10
254.69999694824219
 20
630.90997314453125
 42
0
  0
VERTEX
  8
0
 10
254.69999694824219
 20
860.90997314453125
 42
1
  0
VERTEX
  8
0
 10
124.69999694824219
 20
860.90997314453125
 42
0
  0
SEQEND
  0
POLYLINE
  8
0
 10
0
 20
0
 39
0
 70
1
 66
1
  0
VERTEX
  8
0
 10
189.69999694824219
 20
603.40997314453125
 42
-1
  0
VERTEX
  8
0
 10
189.69999694824219
 20
658.40997314453125
 42
-1
  0
SEQEND
  0
POLYLINE
  8
0
 10
0
 20
0
 39
0
 70
1
 66
1
  0
VERTEX
  8
0
 10
189.69999694824219
 20
833.40997314453125
 42
-1
  0
VERTEX
  8
0
 10
189.69999694824219
 20
888.40997314453125
 42
-1
  0
SEQEND
  0
POLYLINE
  8
0
 10
0
 20
0
 39
0
 70
1
 66
1
  0
VERTEX
  8
0
 10
447.8900146484375
 20
140.55999755859375
 42
1
  0
VERTEX
  8
0
 10
577.8900146484375
 20
140.55999755859375
 42
0
  0
VERTEX
  8
0
 10
577.8900146484375
 20
370.55999755859375
 42
1
  0
VERTEX
  8
0
 10
447.8900146484375
 20
370.55999755859375
 42
0
  0
SEQEND
  0
POLYLINE
  8
0
 10
0
 20
0
 39
0
 70
1
 66
1
  0
VERTEX
  8
0
 10
512.8900146484375
 20
113.05999755859375
 42
-1
  0
VERTEX
  8
0
 10
512.8900146484375
 20
168.05999755859375
 42
-1
  0
SEQEND
  0
POLYLINE
  8
0
 10
0
 20
0
 39
0
 70
1
 66
1
  0
VERTEX
  8
0
 10
512.8900146484375
 20
343.05999755859375
 42
-1
  0
VERTEX
  8
0
 10
512.8900146484375
 20
398.05999755859375
 42
-1
  0
SEQEND
  0
POLYLINE
  8
0
 10
0
 20
0
 39
0
 70
1
 66
1
  0
VERTEX
  8
0
 10
510.8900146484375
 20
630.90997314453125
 42
1
  0
VERTEX
  8
0
 10
640.8900146484375
 20
630.90997314453125
 42
0
  0
VERTEX
  8
0
 10
640.8900146484375
 20
860.90997314453125
 42
1
  0
VERTEX
  8
0
 10
510.8900146484375
 20
860.90997314453125
 42
0
  0
SEQEND
  0
POLYLINE
  8
0
 10
0
 20
0
 39
0
 70
1
 66
1
  0
VERTEX
  8
0
 10
575.8900146484375
 20
603.40997314453125
 42
-1
  0
VERTEX
  8
0
 10
575.8900146484375
 20
658.40997314453125
 42
-1
  0
SEQEND
  0
POLYLINE
  8
0
 10
0
 20
0
 39
0
 70
1
 66
1
  0
VERTEX
  8
0
 10
575.8900146484375
 20
833.40997314453125
 42
-1
  0
VERTEX
  8
0
 10
575.8900146484375
 20
888.40997314453125
 42
-1
  0
SEQEND
  0
POLYLINE
  8
0
 10
0
 20
0
 39
0
 70
1
 66
1
  0
VERTEX
  8
0
 10
834.08001708984375
 20
140.55999755859375
 42
1
  0
VERTEX
  8
0
 10
964.08001708984375
 20
140.55999755859375
 42
0
  0
VERTEX
  8
0
 10
964.08001708984375
 20
370.55999755859375
 42
1
  0
VERTEX
  8
0
 10
834.08001708984375
 20
370.55999755859375
 42
0
  0
SEQEND
  0
POLYLINE
  8
0
 10
0
 20
0
 39
0
 70
1
 66
1
  0
VERTEX
  8
0
 10
899.08001708984375
 20
113.05999755859375
 42
-1
  0
VERTEX
  8
0
 10
899.08001708984375
 20
168.05999755859375
 42
-1
  0
SEQEND
  0
POLYLINE
  8
0
 10
0
 20
0
 39
0
 70
1
 66
1
  0
VERTEX
  8
0
 10
899.08001708984375
 20
343.05999755859375
 42
-1
  0
VERTEX
  8
0
 10
899.08001708984375
 20
398.05999755859375
 42
-1
  0
SEQEND
  0
POLYLINE
  8
0
 10
0
 20
0
 39
0
 70
1
 66
1
  0
VERTEX
  8
0
 10
897.08001708984375
 20
630.90997314453125
 42
1
  0
VERTEX
  8
0
 10
1027.0799560546875
 20
630.90997314453125
 42
0
  0
VERTEX
  8
0
 10
1027.0799560546875
 20
860.90997314453125
 42
1
  0
VERTEX
  8
0
 10
897.08001708984375
 20
860.90997314453125
 42
0
  0
SEQEND
  0
POLYLINE
  8
0
 10
0
 20
0
 39
0
 70
1
 66
1
  0
VERTEX
  8
0
 10
962.08001708984375
 20
603.40997314453125
 42
-1
  0
VERTEX
  8
0
 10
962.08001708984375
 20
658.40997314453125
 42
-1
  0
SEQEND
  0
POLYLINE
  8
0
 10
0
 20
0
 39
0
 70
1
 66
1
  0
VERTEX
  8
0
 10
962.08001708984375
 20
833.40997314453125
 42
-1
  0
VERTEX
  8
0
 10
962.08001708984375
 20
888.40997314453125
 42
-1
  0
SEQEND
  0
POLYLINE
  8
0
 10
0
 20
0
 39
0
 70
1
 66
1
  0
VERTEX
  8
0
 10
1220.27001953125
 20
140.55999755859375
 42
1
  0
VERTEX
  8
0
 10
1350.27001953125
 20
140.55999755859375
 42
0
  0
VERTEX
  8
0
 10
1350.27001953125
 20
370.55999755859375
 42
1
  0
VERTEX
  8
0
 10
1220.27001953125
 20
370.55999755859375
 42
0
  0
SEQEND
  0
POLYLINE
  8
0
 10
0
 20
0
 39
0
 70
1
 66
1
  0
VERTEX
  8
0
 10
1285.27001953125
 20
113.05999755859375
 42
-1
  0
VERTEX
  8
0
 10
1285.27001953125
 20
168.05999755859375
 42
-1
  0
SEQEND
  0
POLYLINE
  8
0
 10
0
 20
0
 39
0
 70
1
 66
1
  0
VERTEX
  8
0
 10
1285.27001953125
 20
343.05999755859375
 42
-1
  0
VERTEX
  8
0
 10
1285.27001953125
 20
398.05999755859375
 42
-1
  0
SEQEND
  0
POLYLINE
  8
0
 10
0
 20
0
 39
0
 70
1
 66
1
  0
VERTEX
  8
0
 10
1283.27001953125
 20
630.90997314453125
 42
1
  0
VERTEX
  8
0
 10
1413.27001953125
 20
630.90997314453125
 42
0
  0
VERTEX
  8
0
 10
1413.27001953125
 20
860.90997314453125
 42
1
  0
VERTEX
  8
0
 10
1283.27001953125
 20
860.90997314453125
 42
0
  0
SEQEND
  0
POLYLINE
  8
0
 10
0
 20
0
 39
0
 70
1
 66
1
  0
VERTEX
  8
0
 10
1348.27001953125
 20
603.40997314453125
 42
-1
  0
VERTEX
  8
0
 10
1348.27001953125
 20
658.40997314453125
 42
-1
  0
SEQEND
  0
POLYLINE
  8
0
 10
0
 20
0
 39
0
 70
1
 66
1
  0
VERTEX
  8
0
 10
1348.27001953125
 20
833.40997314453125
 42
-1
  0
VERTEX
  8
0
 10
1348.27001953125
 20
888.40997314453125
 42
-1
  0
SEQEND
  0
POLYLINE
  8
0
 10
0
 20
0
 39
0
 70
1
 66
1
  0
VERTEX
  8
0
 10
1606.4599609375
 20
140.55999755859375
 42
1
  0
VERTEX
  8
0
 10
1736.4599609375
 20
140.55999755859375
 42
0
  0
VERTEX
  8
0
 10
1736.4599609375
 20
370.55999755859375
 42
1
  0
VERTEX
  8
0
 10
1606.4599609375
 20
370.55999755859375
 42
0
  0
SEQEND
  0
POLYLINE
  8
0
 10
0
 20
0
 39
0
 70
1
 66
1
  0
VERTEX
  8
0
 10
1671.4599609375
 20
113.05999755859375
 42
-1
  0
VERTEX
  8
0
 10
1671.4599609375
 20
168.05999755859375
 42
-1
  0
SEQEND
  0
POLYLINE
  8
0
 10
0
 20
0
 39
0
 70
1
 66
1
  0
VERTEX
  8
0
 10
1671.4599609375
 20
343.05999755859375
 42
-1
  0
VERTEX
  8
0
 10
1671.4599609375
 20
398.05999755859375
 42
-1
  0
SEQEND
  0
POLYLINE
  8
0
 10
0
 20
0
 39
0
 70
1
 66
1
  0
VERTEX
  8
0
 10
1669.4599609375
 20
630.90997314453125
 42
1
  0
VERTEX
  8
0
 10
1799.4599609375
 20
630.90997314453125
 42
0
  0
VERTEX
  8
0
 10
1799.4599609375
 20
860.90997314453125
 42
1
  0
VERTEX
  8
0
 10
1669.4599609375
 20
860.90997314453125
 42
0
  0
SEQEND
  0
POLYLINE
  8
0
 10
0
 20
0
 39
0
 70
1
 66
1
  0
VERTEX
  8
0
 10
1734.4599609375
 20
603.40997314453125
 42
-1
  0
VERTEX
  8
0
 10
1734.4599609375
 20
658.40997314453125
 42
-1
  0
SEQEND
  0
POLYLINE
  8
0
 10
0
 20
0
 39
0
 70
1
 66
1
  0
VERTEX
  8
0
 10
1734.4599609375
 20
833.40997314453125
 42
-1
  0
VERTEX
  8
0
 10
1734.4599609375
 20
888.40997314453125
 42
-1
  0
SEQEND
  0
POLYLINE
  8
0
 10
0
 20
0
 39
0
 70
1
 66
1
  0
VERTEX
  8
0
 10
201.99673461914063
 20
308.3594970703125
 42
0
  0
VERTEX
  8
0
 10
201.99673461914063
 20
131.22000122070312
 42
0.58318275213241577
  0
VERTEX
  8
0
 10
239.8726806640625
 20
109.79081726074219
 42
-0
  0
VERTEX
  8
0
 10
297.3685302734375
 20
144.33781433105469
 42
-0
  0
VERTEX
  8
0
 10
299.59683227539062
 20
158.40663146972656
 42
0
  0
VERTEX
  8
0
 10
289.71994018554688
 20
159.97097778320312
 42
-1
  0
VERTEX
  8
0
 10
292.8486328125
 20
179.7247314453125
 42
-0
  0
VERTEX
  8
0
 10
302.72552490234375
 20
178.160400390625
 42
-0
  0
VERTEX
  8
0
 10
304.28567504882812
 20
188.01083374023437
 42
-0
  0
VERTEX
  8
0
 10
265.3629150390625
 20
388.2510986328125
 42
0.3599417507648468
  0
SEQEND
  0
POLYLINE
  8
0
 10
0
 20
0
 39
0
 70
1
 66
1
  0
VERTEX
  8
0
 10
228.90483093261719
 20
121.40372467041016
 42
-1
  0
VERTEX
  8
0
 10
225.08863830566406
 20
141.03627014160156
 42
-1
  0
SEQEND
  0
POLYLINE
  8
0
 10
0
 20
0
 39
0
 70
1
 66
1
  0
VERTEX
  8
0
 10
416.50949096679688
 20
1089.6689453125
 42
0
  0
VERTEX
  8
0
 10
239.3699951171875
 20
1089.6689453125
 42
0.58318275213241577
  0
VERTEX
  8
0
 10
217.94081115722656
 20
1051.79296875
 42
-0
  0
VERTEX
  8
0
 10
252.48780822753906
 20
994.297119140625
 42
-0
  0
VERTEX
  8
0
 10
266.556640625
 20
992.06884765625
 42
0
  0
VERTEX
  8
0
 10
268.1209716796875
 20
1001.9457397460937
 42
-1
  0
VERTEX
  8
0
 10
287.87472534179687
 20
998.8170166015625
 42
-0
  0
VERTEX
  8
0
 10
286.31039428710937
 20
988.94012451171875
 42
-0
  0
VERTEX
  8
0
 10
296.16082763671875
 20
987.3800048828125
 42
-0
  0
VERTEX
  8
0
 10
496.40109252929687
 20
1026.302734375
 42
0.3599417507648468
  0
SEQEND
  0
POLYLINE
  8
0
 10
0
 20
0
 39
0
 70
1
 66
1
  0
VERTEX
  8
0
 10
229.55372619628906
 20
1062.7608642578125
 42
-1
  0
VERTEX
  8
0
 10
249.18626403808594
 20
1066.5770263671875
 42
-1
  0
SEQEND
  0
POLYLINE
  8
0
 10
0
 20
0
 39
0
 70
1
 66
1
  0
VERTEX
  8
0
 10
588.186767578125
 20
308.3594970703125
 42
0
  0
VERTEX
  8
0
 10
588.18670654296875
 20
131.22000122070312
 42
0.58318275213241577
  0
VERTEX
  8
0
 10
626.06268310546875
 20
109.79081726074219
 42
-0
  0
VERTEX
  8
0
 10
683.55853271484375
 20
144.33781433105469
 42
-0
  0
VERTEX
  8
0
 10
685.78680419921875
 20
158.40663146972656
 42
0
  0
VERTEX
  8
0
 10
675.909912109375
 20
159.97097778320312
 42
-1
  0
VERTEX
  8
0
 10
679.03863525390625
 20
179.7247314453125
 42
-0
  0
VERTEX
  8
0
 10
688.91552734375
 20
178.160400390625
 42
-0
  0
VERTEX
  8
0
 10
690.47564697265625
 20
188.01083374023437
 42
-0
  0
VERTEX
  8
0
 10
651.55291748046875
 20
388.2510986328125
 42
0.3599417507648468
  0
SEQEND
  0
POLYLINE
  8
0
 10
0
 20
0
 39
0
 70
1
 66
1
  0
VERTEX
  8
0
 10
615.0948486328125
 20
121.40372467041016
 42
-1
  0
VERTEX
  8
0
 10
611.27862548828125
 20
141.03627014160156
 42
-1
  0
SEQEND
  0
POLYLINE
  8
0
 10
0
 20
0
 39
0
 70
1
 66
1
  0
VERTEX
  8
0
 10
802.699462890625
 20
1089.6689453125
 42
0
  0
VERTEX
  8
0
 10
625.55999755859375
 20
1089.6689453125
 42
0.58318275213241577
  0
VERTEX
  8
0
 10
604.13079833984375
 20
1051.79296875
 42
-0
  0
VERTEX
  8
0
 10
638.67779541015625
 20
994.297119140625
 42
-0
  0
VERTEX
  8
0
 10
652.74664306640625
 20
992.06884765625
 42
0
  0
VERTEX
  8
0
 10
654.31097412109375
 20
1001.9457397460937
 42
-1
  0
VERTEX
  8
0
 10
674.06475830078125
 20
998.8170166015625
 42
-0
  0
VERTEX
  8
0
 10
672.5003662109375
 20
988.94012451171875
 42
-0
  0
VERTEX
  8
0
 10
682.350830078125
 20
987.3800048828125
 42
-0
  0
VERTEX
  8
0
 10
882.591064453125
 20
1026.302734375
 42
0.3599417507648468
  0
SEQEND
  0
POLYLINE
  8
0
 10
0
 20
0
 39
0
 70
1
 66
1
  0
VERTEX
  8
0
 10
615.74371337890625
 20
1062.7608642578125
 42
-1
  0
VERTEX
  8
0
 10
635.37628173828125
 20
1066.5770263671875
 42
-1
  0
SEQEND
  0
POLYLINE
  8
0
 10
0
 20
0
 39
0
 70
1
 66
1
  0
VERTEX
  8
0
 10
974.376708984375
 20
308.3594970703125
 42
0
  0
VERTEX
  8
0
 10
974.376708984375
 20
131.22000122070312
 42
0.58318275213241577
  0
VERTEX
  8
0
 10
1012.252685546875
 20
109.79081726074219
 42
-0
  0
VERTEX
  8
0
 10
1069.74853515625
 20
144.33781433105469
 42
-0
  0
VERTEX
  8
0
 10
1071.976806640625
 20
158.40663146972656
 42
0
  0
VERTEX
  8
0
 10
1062.0999755859375
 20
159.97097778320312
 42
-1
  0
VERTEX
  8
0
 10
1065.2286376953125
 20
179.7247314453125
 42
-0
  0
VERTEX
  8
0
 10
1075.10546875
 20
178.160400390625
 42
-0
  0
VERTEX
  8
0
 10
1076.6656494140625
 20
188.01083374023437
 42
-0
  0
VERTEX
  8
0
 10
1037.742919921875
 20
388.2510986328125
 42
0.3599417507648468
  0
SEQEND
  0
POLYLINE
  8
0
 10
0
 20
0
 39
0
 70
1
 66
1
  0
VERTEX
  8
0
 10
1001.2848510742187
 20
121.40372467041016
 42
-1
  0
VERTEX
  8
0
 10
997.4686279296875
 20
141.03627014160156
 42
-1
  0
SEQEND
  0
POLYLINE
  8
0
 10
0
 20
0
 39
0
 70
1
 66
1
  0
VERTEX
  8
0
 10
1188.8895263671875
 20
1089.6689453125
 42
0
  0
VERTEX
  8
0
 10
1011.75
 20
1089.6689453125
 42
0.58318275213241577
  0
VERTEX
  8
0
 10
990.32080078125
 20
1051.79296875
 42
-0
  0
VERTEX
  8
0
 10
1024.8677978515625
 20
994.297119140625
 42
-0
  0
VERTEX
  8
0
 10
1038.9366455078125
 20
992.06884765625
 42
0
  0
VERTEX
  8
0
 10
1040.5009765625
 20
1001.9457397460937
 42
-1
  0
VERTEX
  8
0
 10
1060.2547607421875
 20
998.8170166015625
 42
-0
  0
VERTEX
  8
0
 10
1058.6904296875
 20
988.94012451171875
 42
-0
  0
VERTEX
  8
0
 10
1068.540771484375
 20
987.3800048828125
 42
-0
  0
VERTEX
  8
0
 10
1268.7811279296875
 20
1026.302734375
 42
0.3599417507648468
  0
SEQEND
  0
POLYLINE
  8
0
 10
0
 20
0
 39
0
 70
1
 66
1
  0
VERTEX
  8
0
 10
1001.9337158203125
 20
1062.7608642578125
 42
-1
  0
VERTEX
  8
0
 10
1021.5662841796875
 20
1066.5770263671875
 42
-1
  0
SEQEND
  0
POLYLINE
  8
0
 10
0
 20
0
 39
0
 70
1
 66
1
  0
VERTEX
  8
0
 10
1360.5667724609375
 20
308.3594970703125
 42
0
  0
VERTEX
  8
0
 10
1360.5667724609375
 20
131.22000122070312
 42
0.58318275213241577
  0
VERTEX
  8
0
 10
1398.442626953125
 20
109.79081726074219
 42
-0
  0
VERTEX
  8
0
 10
1455.9384765625
 20
144.33781433105469
 42
-0
  0
VERTEX
  8
0
 10
1458.1668701171875
 20
158.40663146972656
 42
0
  0
VERTEX
  8
0
 10
1448.2899169921875
 20
159.97097778320312
 42
-1
  0
VERTEX
  8
0
 10
1451.4185791015625
 20
179.7247314453125
 42
-0
  0
VERTEX
  8
0
 10
1461.2955322265625
 20
178.160400390625
 42
-0
  0
VERTEX
  8
0
 10
1462.855712890625
 20
188.01083374023437
 42
-0
  0
VERTEX
  8
0
 10
1423.932861328125
 20
388.2510986328125
 42
0.3599417507648468
  0
SEQEND
  0
POLYLINE
  8
0
 10
0
 20
0
 39
0
 70
1
 66
1
  0
VERTEX
  8
0
 10
1387.474853515625
 20
121.40372467041016
 42
-1
  0
VERTEX
  8
0
 10
1383.65869140625
 20
141.03627014160156
 42
-1
  0
SEQEND
  0
POLYLINE
  8
0
 10
0
 20
0
 39
0
 70
1
 66
1
  0
VERTEX
  8
0
 10
1575.0794677734375
 20
1089.6689453125
 42
0
  0
VERTEX
  8
0
 10
1397.93994140625
 20
1089.6689453125
 42
0.58318275213241577
  0
VERTEX
  8
0
 10
1376.5108642578125
 20
1051.79296875
 42
-0
  0
VERTEX
  8
0
 10
1411.057861328125
 20
994.297119140625
 42
-0
  0
VERTEX
  8
0
 10
1425.1265869140625
 20
992.06884765625
 42
0
  0
VERTEX
  8
0
 10
1426.69091796875
 20
1001.9457397460937
 42
-1
  0
VERTEX
  8
0
 10
1446.4447021484375
 20
998.8170166015625
 42
-0
  0
VERTEX
  8
0
 10
1444.88037109375
 20
988.94012451171875
 42
-0
  0
VERTEX
  8
0
 10
1454.7308349609375
 20
987.3800048828125
 42
-0
  0
VERTEX
  8
0
 10
1654.9710693359375
 20
1026.302734375
 42
0.3599417507648468
  0
SEQEND
  0
POLYLINE
  8
0
 10
0
 20
0
 39
0
 70
1
 66
1
  0
VERTEX
  8
0
 10
1388.123779296875
 20
1062.7608642578125
 42
-1
  0
VERTEX
  8
0
 10
1407.7562255859375
 20
1066.5770263671875
 42
-1
  0
SEQEND
  0
POLYLINE
  8
0
 10
0
 20
0
 39
0
 70
1
 66
1
  0
VERTEX
  8
0
 10
1746.7567138671875
 20
308.3594970703125
 42
0
  0
VERTEX
  8
0
 10
1746.7567138671875
 20
131.22000122070312
 42
0.58318275213241577
  0
VERTEX
  8
0
 10
1784.6326904296875
 20
109.79081726074219
 42
-0
  0
VERTEX
  8
0
 10
1842.1285400390625
 20
144.33781433105469
 42
-0
  0
VERTEX
  8
0
 10
1844.3568115234375
 20
158.40663146972656
 42
0
  0
VERTEX
  8
0
 10
1834.47998046875
 20
159.97097778320312
 42
-1
  0
VERTEX
  8
0
 10
1837.608642578125
 20
179.7247314453125
 42
-0
  0
VERTEX
  8
0
 10
1847.4854736328125
 20
178.160400390625
 42
-0
  0
VERTEX
  8
0
 10
1849.045654296875
 20
188.01083374023437
 42
-0
  0
VERTEX
  8
0
 10
1810.1229248046875
 20
388.2510986328125
 42
0.3599417507648468
  0
SEQEND
  0
POLYLINE
  8
0
 10
0
 20
0
 39
0
 70
1
 66
1
  0
VERTEX
  8
0
 10
1773.664794921875
 20
121.40372467041016
 42
-1
  0
VERTEX
  8
0
 10
1769.8486328125
 20
141.03627014160156
 42
-1
  0
SEQEND
  0
POLYLINE
  8
0
 10
0
 20
0
 39
0
 70
1
 66
1
  0
VERTEX
  8
0
 10
264.98001098632812
 20
561.28997802734375
 42
-0
  0
VERTEX
  8
0
 10
324.98001098632812
 20
561.28997802734375
 42
-0
  0
VERTEX
  8
0
 10
324.98001098632812
 20
588.97357177734375
 42
-1
  0
VERTEX
  8
0
 10
324.98001098632812
 20
612.97357177734375
 42
-0
  0
VERTEX
  8
0
 10
324.98001098632812
 20
647.952392578125
 42
-1
  0
VERTEX
  8
0
 10
324.98001098632812
 20
671.952392578125
 42
-0
  0
VERTEX
  8
0
 10
324.98001098632812
 20
810.62762451171875
 42
-1
  0
VERTEX
  8
0
 10
324.98001098632812
 20
834.62762451171875
 42
-0
  0
VERTEX
  8
0
 10
324.98001098632812
 20
869.6064453125
 42
-1
  0
VERTEX
  8
0
 10
324.98001098632812
 20
893.6064453125
 42
-0
  0
VERTEX
  8
0
 10
324.98001098632812
 20
921.28997802734375
 42
-0
  0
VERTEX
  8
0
 10
264.98001098632812
 20
921.28997802734375
 42
0
  0
VERTEX
  8
0
 10
264.98001098632812
 20
893.6064453125
 42
-1
  0
VERTEX
  8
0
 10
264.98001098632812
 20
869.6064453125
 42
0
  0
VERTEX
  8
0
 10
264.98001098632812
 20
834.62762451171875
 42
-1
  0
VERTEX
  8
0
 10
264.98001098632812
 20
810.62762451171875
 42
0
  0
VERTEX
  8
0
 10
264.98001098632812
 20
671.952392578125
 42
-1
  0
VERTEX
  8
0
 10
264.98001098632812
 20
647.952392578125
 42
0
  0
VERTEX
  8
0
 10
264.98001098632812
 20
612.97357177734375
 42
-1
  0
VERTEX
  8
0
 10
264.98001098632812
 20
588.97357177734375
 42
0
  0
SEQEND
  0
POLYLINE
  8
0
 10
0
 20
0
 39
0
 70
1
 66
1
  0
VERTEX
  8
0
 10
294.98001098632812
 20
723.28997802734375
 42
-1
  0
VERTEX
  8
0
 10
294.98001098632812
 20
759.28997802734375
 42
-1
  0
SEQEND
  0
POLYLINE
  8
0
 10
0
 20
0
 39
0
 70
1
 66
1
  0
VERTEX
  8
0
 10
651.16998291015625
 20
561.28997802734375
 42
-0
  0
VERTEX
  8
0
 10
711.16998291015625
 20
561.28997802734375
 42
-0
  0
VERTEX
  8
0
 10
711.16998291015625
 20
588.97357177734375
 42
-1
  0
VERTEX
  8
0
 10
711.16998291015625
 20
612.97357177734375
 42
-0
  0
VERTEX
  8
0
 10
711.16998291015625
 20
647.952392578125
 42
-1
  0
VERTEX
  8
0
 10
711.16998291015625
 20
671.952392578125
 42
-0
  0
VERTEX
  8
0
 10
711.16998291015625
 20
810.62762451171875
 42
-1
  0
VERTEX
  8
0
 10
711.16998291015625
 20
834.62762451171875
 42
-0
  0
VERTEX
  8
0
 10
711.16998291015625
 20
869.6064453125
 42
-1
  0
VERTEX
  8
0
 10
711.16998291015625
 20
893.6064453125
 42
-0
  0
VERTEX
  8
0
 10
711.16998291015625
 20
921.28997802734375
 42
-0
  0
VERTEX
  8
0
 10
651.16998291015625
 20
921.28997802734375
 42
0
  0
VERTEX
  8
0
 10
651.16998291015625
 20
893.6064453125
 42
-1
  0
VERTEX
  8
0
 10
651.16998291015625
 20
869.6064453125
 42
0
  0
VERTEX
  8
0
 10
651.16998291015625
 20
834.62762451171875
 42
-1
  0
VERTEX
  8
0
 10
651.16998291015625
 20
810.62762451171875
 42
0
  0
VERTEX
  8
0
 10
651.16998291015625
 20
671.952392578125
 42
-1
  0
VERTEX
  8
0
 10
651.16998291015625
 20
647.952392578125
 42
0
  0
VERTEX
  8
0
 10
651.16998291015625
 20
612.97357177734375
 42
-1
  0
VERTEX
  8
0
 10
651.16998291015625
 20
588.97357177734375
 42
0
  0
SEQEND
  0
POLYLINE
  8
0
 10
0
 20
0
 39
0
 70
1
 66
1
  0
VERTEX
  8
0
 10
681.16998291015625
 20
723.28997802734375
 42
-1
  0
VERTEX
  8
0
 10
681.16998291015625
 20
759.28997802734375
 42
-1
  0
SEQEND
  0
POLYLINE
  8
0
 10
0
 20
0
 39
0
 70
1
 66
1
  0
VERTEX
  8
0
 10
1037.3599853515625
 20
561.28997802734375
 42
-0
  0
VERTEX
  8
0
 10
1097.3599853515625
 20
561.28997802734375
 42
-0
  0
VERTEX
  8
0
 10
1097.3599853515625
 20
588.97357177734375
 42
-1
  0
VERTEX
  8
0
 10
1097.3599853515625
 20
612.97357177734375
 42
-0
  0
VERTEX
  8
0
 10
1097.3599853515625
 20
647.952392578125
 42
-1
  0
VERTEX
  8
0
 10
1097.3599853515625
 20
671.952392578125
 42
-0
  0
VERTEX
  8
0
 10
1097.3599853515625
 20
810.62762451171875
 42
-1
  0
VERTEX
  8
0
 10
1097.3599853515625
 20
834.62762451171875
 42
-0
  0
VERTEX
  8
0
 10
1097.3599853515625
 20
869.6064453125
 42
-1
  0
VERTEX
  8
0
 10
1097.3599853515625
 20
893.6064453125
 42
-0
  0
VERTEX
  8
0
 10
1097.3599853515625
 20
921.28997802734375
 42
-0
  0
VERTEX
  8
0
 10
1037.3599853515625
 20
921.28997802734375
 42
0
  0
VERTEX
  8
0
 10
1037.3599853515625
 20
893.6064453125
 42
-1
  0
VERTEX
  8
0
 10
1037.3599853515625
 20
869.6064453125
 42
0
  0
VERTEX
  8
0
 10
1037.3599853515625
 20
834.62762451171875
 42
-1
  0
VERTEX
  8
0
 10
1037.3599853515625
 20
810.62762451171875
 42
0
  0
VERTEX
  8
0
 10
1037.3599853515625
 20
671.952392578125
 42
-1
  0
VERTEX
  8
0
 10
1037.3599853515625
 20
647.952392578125
 42
0
  0
VERTEX
  8
0
 10
1037.3599853515625
 20
612.97357177734375
 42
-1
  0
VERTEX
  8
0
 10
1037.3599853515625
 20
588.97357177734375
 42
0
  0
SEQEND
  0
POLYLINE
  8
0
 10
0
 20
0
 39
0
 70
1
 66
1
  0
VERTEX
  8
0
 10
1067.3599853515625
 20
723.28997802734375
 42
-1
  0
VERTEX
  8
0
 10
1067.3599853515625
 20
759.28997802734375
 42
-1
  0
SEQEND
  0
POLYLINE
  8
0
 10
0
 20
0
 39
0
 70
1
 66
1
  0
VERTEX
  8
0
 10
1423.550048828125
 20
561.28997802734375
 42
-0
  0
VERTEX
  8
0
 10
1483.550048828125
 20
561.28997802734375
 42
-0
  0
VERTEX
  8
0
 10
1483.550048828125
 20
588.97357177734375
 42
-1
  0
VERTEX
  8
0
 10
1483.550048828125
 20
612.97357177734375
 42
-0
  0
VERTEX
  8
0
 10
1483.550048828125
 20
647.952392578125
 42
-1
  0
VERTEX
  8
0
 10
1483.550048828125
 20
671.952392578125
 42
-0
  0
VERTEX
  8
0
 10
1483.550048828125
 20
810.62762451171875
 42
-1
  0
VERTEX
  8
0
 10
1483.550048828125
 20
834.62762451171875
 42
-0
  0
VERTEX
  8
0
 10
1483.550048828125
 20
869.6064453125
 42
-1
  0
VERTEX
  8
0
 10
1483.550048828125
 20
893.6064453125
 42
-0
  0
VERTEX
  8
0
 10
1483.550048828125
 20
921.28997802734375
 42
-0
  0
VERTEX
  8
0
 10
1423.550048828125
 20
921.28997802734375
 42
0
  0
VERTEX
  8
0
 10
1423.550048828125
 20
893.6064453125
 42
-1
  0
VERTEX
  8
0
 10
1423.550048828125
 20
869.6064453125
 42
0
  0
VERTEX
  8
0
 10
1423.550048828125
 20
834.62762451171875
 42
-1
  0
VERTEX
  8
0
 10
1423.550048828125
 20
810.62762451171875
 42
0
  0
VERTEX
  8
0
 10
1423.550048828125
 20
671.952392578125
 42
-1
  0
VERTEX
  8
0
 10
1423.550048828125
 20
647.952392578125
 42
0
  0
VERTEX
  8
0
 10
1423.550048828125
 20
612.97357177734375
 42
-1
  0
VERTEX
  8
0
 10
1423.550048828125
 20
588.97357177734375
 42
0
  0
SEQEND
  0
POLYLINE
  8
0
 10
0
 20
0
 39
0
 70
1
 66
1
  0
VERTEX
  8
0
 10
1453.550048828125
 20
723.28997802734375
 42
-1
  0
VERTEX
  8
0
 10
1453.550048828125
 20
759.28997802734375
 42
-1
  0
SEQEND
  0
POLYLINE
  8
0
 10
0
 20
0
 39
0
 70
1
 66
1
  0
VERTEX
  8
0
 10
1809.739990234375
 20
561.28997802734375
 42
-0
  0
VERTEX
  8
0
 10
1869.739990234375
 20
561.28997802734375
 42
-0
  0
VERTEX
  8
0
 10
1869.739990234375
 20
588.97357177734375
 42
-1
  0
VERTEX
  8
0
 10
1869.739990234375
 20
612.97357177734375
 42
-0
  0
VERTEX
  8
0
 10
1869.739990234375
 20
647.952392578125
 42
-1
  0
VERTEX
  8
0
 10
1869.739990234375
 20
671.952392578125
 42
-0
  0
VERTEX
  8
0
 10
1869.739990234375
 20
810.62762451171875
 42
-1
  0
VERTEX
  8
0
 10
1869.739990234375
 20
834.62762451171875
 42
-0
  0
VERTEX
  8
0
 10
1869.739990234375
 20
869.6064453125
 42
-1
  0
VERTEX
  8
0
 10
1869.739990234375
 20
893.6064453125
 42
-0
  0
VERTEX
  8
0
 10
1869.739990234375
 20
921.28997802734375
 42
-0
  0
VERTEX
  8
0
 10
1809.739990234375
 20
921.28997802734375
 42
0
  0
VERTEX
  8
0
 10
1809.739990234375
 20
893.6064453125
 42
-1
  0
VERTEX
  8
0
 10
1809.739990234375
 20
869.6064453125
 42
0
  0
VERTEX
  8
0
 10
1809.739990234375
 20
834.62762451171875
 42
-1
  0
VERTEX
  8
0
 10
1809.739990234375
 20
810.62762451171875
 42
0
  0
VERTEX
  8
0
 10
1809.739990234375
 20
671.952392578125
 42
-1
  0
VERTEX
  8
0
 10
1809.739990234375
 20
647.952392578125
 42
0
  0
VERTEX
  8
0
 10
1809.739990234375
 20
612.97357177734375
 42
-1
  0
VERTEX
  8
0
 10
1809.739990234375
 20
588.97357177734375
 42
0
  0
SEQEND
  0
POLYLINE
  8
0
 10
0
 20
0
 39
0
 70
1
 66
1
  0
VERTEX
  8
0
 10
1839.739990234375
 20
723.28997802734375
 42
-1
  0
VERTEX
  8
0
 10
1839.739990234375
 20
759.28997802734375
 42
-1
  0
SEQEND
  0
POLYLINE
  8
0
 10
0
 20
0
 39
0
 70
1
 66
1
  0
VERTEX
  8
0
 10
1941.199951171875
 20
10.25
 42
-0
  0
VERTEX
  8
0
 10
2001.199951171875
 20
10.25
 42
-0
  0
VERTEX
  8
0
 10
2001.199951171875
 20
37.933567047119141
 42
-1
  0
VERTEX
  8
0
 10
2001.199951171875
 20
61.933567047119141
 42
-0
  0
VERTEX
  8
0
 10
2001.199951171875
 20
96.912368774414063
 42
-1
  0
VERTEX
  8
0
 10
2001.199951171875
 20
120.91236877441406
 42
-0
  0
VERTEX
  8
0
 10
2001.199951171875
 20
259.587646484375
 42
-1
  0
VERTEX
  8
0
 10
2001.199951171875
 20
283.58761596679688
 42
-0
  0
VERTEX
  8
0
 10
2001.199951171875
 20
318.56643676757812
 42
-1
  0
VERTEX
  8
0
 10
2001.199951171875
 20
342.56643676757812
 42
-0
  0
VERTEX
  8
0
 10
2001.199951171875
 20
370.25
 42
-0
  0
VERTEX
  8
0
 10
1941.199951171875
 20
370.25
 42
0
  0
VERTEX
  8
0
 10
1941.199951171875
 20
342.56643676757812
 42
-1
  0
VERTEX
  8
0
 10
1941.199951171875
 20
318.56643676757812
 42
0
  0
VERTEX
  8
0
 10
1941.199951171875
 20
283.58761596679688
 42
-1
  0
VERTEX
  8
0
 10
1941.199951171875
 20
259.587646484375
 42
0
  0
VERTEX
  8
0
 10
1941.199951171875
 20
120.91236877441406
 42
-1
  0
VERTEX
  8
0
 10
1941.199951171875
 20
96.912368774414063
 42
0
  0
VERTEX
  8
0
 10
1941.199951171875
 20
61.933567047119141
 42
-1
  0
VERTEX
  8
0
 10
1941.199951171875
 20
37.933567047119141
 42
0
  0
SEQEND
  0
POLYLINE
  8
0
 10
0
 20
0
 39
0
 70
1
 66
1
  0
VERTEX
  8
0
 10
1971.199951171875
 20
172.25
 42
-1
  0
VERTEX
  8
0
 10
1971.199951171875
 20
208.25
 42
-1
  0
SEQEND
  0
POLYLINE
  8
0
 10
0
 20
0
 39
0
 70
1
 66
1
  0
VERTEX
  8
0
 10
1941.199951171875
 20
380.26998901367187
 42
-0
  0
VERTEX
  8
0
 10
2001.199951171875
 20
380.26998901367187
 42
-0
  0
VERTEX
  8
0
 10
2001.199951171875
 20
407.95355224609375
 42
-1
  0
VERTEX
  8
0
 10
2001.199951171875
 20
431.95355224609375
 42
-0
  0
VERTEX
  8
0
 10
2001.199951171875
 20
466.932373046875
 42
-1
  0
VERTEX
  8
0
 10
2001.199951171875
 20
490.932373046875
 42
-0
  0
VERTEX
  8
0
 10
2001.199951171875
 20
629.60760498046875
 42
-1
  0
VERTEX
  8
0
 10
2001.199951171875
 20
653.60760498046875
 42
-0
  0
VERTEX
  8
0
 10
2001.199951171875
 20
688.58642578125
 42
-1
  0
VERTEX
  8
0
 10
2001.199951171875
 20
712.58642578125
 42
-0
  0
VERTEX
  8
0
 10
2001.199951171875
 20
740.27001953125
 42
-0
  0
VERTEX
  8
0
 10
1941.199951171875
 20
740.27001953125
 42
0
  0
VERTEX
  8
0
 10
1941.199951171875
 20
712.58642578125
 42
-1
  0
VERTEX
  8
0
 10
1941.199951171875
 20
688.58642578125
 42
0
  0
VERTEX
  8
0
 10
1941.199951171875
 20
653.60760498046875
 42
-1
  0
VERTEX
  8
0
 10
1941.199951171875
 20
629.60760498046875
 42
0
  0
VERTEX
  8
0
 10
1941.199951171875
 20
490.932373046875
 42
-1
  0
VERTEX
  8
0
 10
1941.199951171875
 20
466.932373046875
 42
0
  0
VERTEX
  8
0
 10
1941.199951171875
 20
431.95355224609375
 42
-1
  0
VERTEX
  8
0
 10
1941.199951171875
 20
407.95355224609375
 42
0
  0
SEQEND
  0
POLYLINE
  8
0
 10
0
 20
0
 39
0
 70
1
 66
1
  0
VERTEX
  8
0
 10
1971.199951171875
 20
542.27001953125
 42
-1
  0
VERTEX
  8
0
 10
1971.199951171875
 20
578.27001953125
 42
-1
  0
SEQEND
  0
POLYLINE
  8
0
 10
0
 20
0
 39
0
 70
1
 66
1
  0
VERTEX
  8
0
 10
2025.050048828125
 20
1029.5899658203125
 42
-0
  0
VERTEX
  8
0
 10
2025.050048828125
 20
1089.5899658203125
 42
-0
  0
VERTEX
  8
0
 10
1997.366455078125
 20
1089.5899658203125
 42
-1
  0
VERTEX
  8
0
 10
1973.366455078125
 20
1089.5899658203125
 42
-0
  0
VERTEX
  8
0
 10
1938.3875732421875
 20
1089.5899658203125
 42
-1
  0
VERTEX
  8
0
 10
1914.3875732421875
 20
1089.5899658203125
 42
-0
  0
VERTEX
  8
0
 10
1775.71240234375
 20
1089.5899658203125
 42
-1
  0
VERTEX
  8
0
 10
1751.71240234375
 20
1089.5899658203125
 42
-0
  0
VERTEX
  8
0
 10
1716.7335205078125
 20
1089.5899658203125
 42
-1
  0
VERTEX
  8
0
 10
1692.7335205078125
 20
1089.5899658203125
 42
-0
  0
VERTEX
  8
0
 10
1665.050048828125
 20
1089.5899658203125
 42
-0
  0
VERTEX
  8
0
 10
1665.050048828125
 20
1029.5899658203125
 42
0
  0
VERTEX
  8
0
 10
1692.7335205078125
 20
1029.5899658203125
 42
-1
  0
VERTEX
  8
0
 10
1716.7335205078125
 20
1029.5899658203125
 42
0
  0
VERTEX
  8
0
 10
1751.71240234375
 20
1029.5899658203125
 42
-1
  0
VERTEX
  8
0
 10
1775.71240234375
 20
1029.5899658203125
 42
0
  0
VERTEX
  8
0
 10
1914.3875732421875
 20
1029.5899658203125
 42
-1
  0
VERTEX
  8
0
 10
1938.3875732421875
 20
1029.5899658203125
 42
0
  0
VERTEX
  8
0
 10
1973.366455078125
 20
1029.5899658203125
 42
-1
  0
VERTEX
  8
0
 10
1997.366455078125
 20
1029.5899658203125
 42
0
  0
SEQEND
  0
POLYLINE
  8
0
 10
0
 20
0
 39
0
 70
1
 66
1
  0
VERTEX
  8
0
 10
1863.050048828125
 20
1059.5899658203125
 42
-1
  0
VERTEX
  8
0
 10
1827.050048828125
 20
1059.5899658203125
 42
-1
  0
SEQEND
  0
POLYLINE
  8
0
 10
0
 20
0
 39
0
 70
1
 66
1
  0
VERTEX
  8
0
 10
2011.550048828125
 20
10.25
 42
-0
  0
VERTEX
  8
0
 10
2071.550048828125
 20
10.25
 42
-0
  0
VERTEX
  8
0
 10
2071.550048828125
 20
37.933567047119141
 42
-1
  0
VERTEX
  8
0
 10
2071.550048828125
 20
61.933567047119141
 42
-0
  0
VERTEX
  8
0
 10
2071.550048828125
 20
96.912368774414063
 42
-1
  0
VERTEX
  8
0
 10
2071.550048828125
 20
120.91236877441406
 42
-0
  0
VERTEX
  8
0
 10
2071.550048828125
 20
259.587646484375
 42
-1
  0
VERTEX
  8
0
 10
2071.550048828125
 20
283.58761596679688
 42
-0
  0
VERTEX
  8
0
 10
2071.550048828125
 20
318.56643676757812
 42
-1
  0
VERTEX
  8
0
 10
2071.550048828125
 20
342.56643676757812
 42
-0
  0
VERTEX
  8
0
 10
2071.550048828125
 20
370.25
 42
-0
  0
VERTEX
  8
0
 10
2011.550048828125
 20
370.25
 42
0
  0
VERTEX
  8
0
 10
2011.550048828125
 20
342.56643676757812
 42
-1
  0
VERTEX
  8
0
 10
2011.550048828125
 20
318.56643676757812
 42
0
  0
VERTEX
  8
0
 10
2011.550048828125
 20
283.58761596679688
 42
-1
  0
VERTEX
  8
0
 10
2011.550048828125
 20
259.587646484375
 42
0
  0
VERTEX
  8
0
 10
2011.550048828125
 20
120.91236877441406
 42
-1
  0
VERTEX
  8
0
 10
2011.550048828125
 20
96.912368774414063
 42
0
  0
VERTEX
  8
0
 10
2011.550048828125
 20
61.933567047119141
 42
-1
  0
VERTEX
  8
0
 10
2011.550048828125
 20
37.933567047119141
 42
0
  0
SEQEND
  0
POLYLINE
  8
0
 10
0
 20
0
 39
0
 70
1
 66
1
  0
VERTEX
  8
0
 10
2041.550048828125
 20
172.25
 42
-1
  0
VERTEX
  8
0
 10
2041.550048828125
 20
208.25
 42
-1
  0
SEQEND
  0
POLYLINE
  8
0
 10
0
 20
0
 39
0
 70
1
 66
1
  0
VERTEX
  8
0
 10
2011.550048828125
 20
380.26998901367187
 42
-0
  0
VERTEX
  8
0
 10
2071.550048828125
 20
380.26998901367187
 42
-0
  0
VERTEX
  8
0
 10
2071.550048828125
 20
407.95355224609375
 42
-1
  0
VERTEX
  8
0
 10
2071.550048828125
 20
431.95355224609375
 42
-0
  0
VERTEX
  8
0
 10
2071.550048828125
 20
466.932373046875
 42
-1
  0
VERTEX
  8
0
 10
2071.550048828125
 20
490.932373046875
 42
-0
  0
VERTEX
  8
0
 10
2071.550048828125
 20
629.60760498046875
 42
-1
  0
VERTEX
  8
0
 10
2071.550048828125
 20
653.60760498046875
 42
-0
  0
VERTEX
  8
0
 10
2071.550048828125
 20
688.58642578125
 42
-1
  0
VERTEX
  8
0
 10
2071.550048828125
 20
712.58642578125
 42
-0
  0
VERTEX
  8
0
 10
2071.550048828125
 20
740.27001953125
 42
-0
  0
VERTEX
  8
0
 10
2011.550048828125
 20
740.27001953125
 42
0
  0
VERTEX
  8
0
 10
2011.550048828125
 20
712.58642578125
 42
-1
  0
VERTEX
  8
0
 10
2011.550048828125
 20
688.58642578125
 42
0
  0
VERTEX
  8
0
 10
2011.550048828125
 20
653.60760498046875
 42
-1
  0
VERTEX
  8
0
 10
2011.550048828125
 20
629.60760498046875
 42
0
  0
VERTEX
  8
0
 10
2011.550048828125
 20
490.932373046875
 42
-1
  0
VERTEX
  8
0
 10
2011.550048828125
 20
466.932373046875
 42
0
  0
VERTEX
  8
0
 10
2011.550048828125
 20
431.95355224609375
 42
-1
  0
VERTEX
  8
0
 10
2011.550048828125
 20
407.95355224609375
 42
0
  0
SEQEND
  0
POLYLINE
  8
0
 10
0
 20
0
 39
0
 70
1
 66
1
  0
VERTEX
  8
0
 10
2041.550048828125
 20
542.27001953125
 42
-1
  0
VERTEX
  8
0
 10
2041.550048828125
 20
578.27001953125
 42
-1
  0
SEQEND
  0
POLYLINE
  8
0
 10
0
 20
0
 39
0
 70
1
 66
1
  0
VERTEX
  8
0
 10
140.25
 20
1006.0700073242187
 42
-0
  0
VERTEX
  8
0
 10
140.25
 20
1066.0699462890625
 42
-0
  0
VERTEX
  8
0
 10
10.25
 20
1066.0699462890625
 42
-0
  0
VERTEX
  8
0
 10
10.25
 20
1006.0700073242187
 42
0
  0
SEQEND
  0
POLYLINE
  8
0
 10
0
 20
0
 39
0
 70
1
 66
1
  0
VERTEX
  8
0
 10
131.19801330566406
 20
1036.0699462890625
 42
-1
  0
VERTEX
  8
0
 10
105.19801330566406
 20
1036.0699462890625
 42
-1
  0
SEQEND
  0
POLYLINE
  8
0
 10
0
 20
0
 39
0
 70
1
 66
1
  0
VERTEX
  8
0
 10
1941.199951171875
 20
750.28997802734375
 42
-0
  0
VERTEX
  8
0
 10
2001.199951171875
 20
750.28997802734375
 42
-0
  0
VERTEX
  8
0
 10
2001.199951171875
 20
880.28997802734375
 42
-0
  0
VERTEX
  8
0
 10
1941.199951171875
 20
880.28997802734375
 42
0
  0
SEQEND
  0
POLYLINE
  8
0
 10
0
 20
0
 39
0
 70
1
 66
1
  0
VERTEX
  8
0
 10
1971.199951171875
 20
759.34197998046875
 42
-1
  0
VERTEX
  8
0
 10
1971.199951171875
 20
785.34197998046875
 42
-1
  0
SEQEND
  0
POLYLINE
  8
0
 10
0
 20
0
 39
0
 70
1
 66
1
  0
VERTEX
  8
0
 10
2006.510009765625
 20
889.52001953125
 42
-0
  0
VERTEX
  8
0
 10
2066.510009765625
 20
889.52001953125
 42
-0
  0
VERTEX
  8
0
 10
2066.510009765625
 20
1019.52001953125
 42
-0
  0
VERTEX
  8
0
 10
2006.510009765625
 20
1019.52001953125
 42
0
  0
SEQEND
  0
POLYLINE
  8
0
 10
0
 20
0
 39
0
 70
1
 66
1
  0
VERTEX
  8
0
 10
2036.510009765625
 20
898.57196044921875
 42
-1
  0
VERTEX
  8
0
 10
2036.510009765625
 20
924.57196044921875
 42
-1
  0
SEQEND
  0
ENDSEC
  0
EOF
