  0
SECTION
  2
ENTITIES
  0
POLYLINE
  8
0
 10
0
 20
0
 39
0
 70
1
 66
1
  0
VERTEX
  8
0
 10
0
 20
0
 42
0
  0
VERTEX
  8
0
 10
4000
 20
0
 42
0
  0
VERTEX
  8
0
 10
4000
 20
1500
 42
0
  0
VERTEX
  8
0
 10
0
 20
1500
 42
0
  0
SEQEND
  0
POLYLINE
  8
0
 10
0
 20
0
 39
0
 70
1
 66
1
  0
VERTEX
  8
0
 10
3843.863525390625
 20
370
 42
0.94444441795349121
  0
VERTEX
  8
0
 10
3843.863525390625
 20
10
 42
0
  0
VERTEX
  8
0
 10
3973.863525390625
 20
10
 42
0
  0
VERTEX
  8
0
 10
3973.863525390625
 20
370
 42
0
  0
SEQEND
  0
POLYLINE
  8
0
 10
0
 20
0
 39
0
 70
1
 66
1
  0
VERTEX
  8
0
 10
3913.863525390625
 20
200.5
 42
-1
  0
VERTEX
  8
0
 10
3913.863525390625
 20
179.5
 42
-1
  0
SEQEND
  0
POLYLINE
  8
0
 10
0
 20
0
 39
0
 70
1
 66
1
  0
VERTEX
  8
0
 10
3793.863525390625
 20
190
 42
0.41421356797218323
  0
VERTEX
  8
0
 10
3913.863525390625
 20
70
 42
-1
  0
VERTEX
  8
0
 10
3913.863525390625
 20
48
 42
-0.41421356797218323
  0
VERTEX
  8
0
 10
3771.863525390625
 20
190
 42
-1
  0
SEQEND
  0
POLYLINE
  8
0
 10
0
 20
0
 39
0
 70
1
 66
1
  0
VERTEX
  8
0
 10
1295
 20
10
 42
0
  0
VERTEX
  8
0
 10
1295
 20
860
 42
0
  0
VERTEX
  8
0
 10
1235
 20
860
 42
0
  0
VERTEX
  8
0
 10
1235
 20
10
 42
0
  0
SEQEND
  0
POLYLINE
  8
0
 10
0
 20
0
 39
0
 70
1
 66
1
  0
VERTEX
  8
0
 10
1265
 20
820.625
 42
-1
  0
VERTEX
  8
0
 10
1265
 20
803.375
 42
-1
  0
SEQEND
  0
POLYLINE
  8
0
 10
0
 20
0
 39
0
 70
1
 66
1
  0
VERTEX
  8
0
 10
1265
 20
220.625
 42
-1
  0
VERTEX
  8
0
 10
1265
 20
203.375
 42
-1
  0
SEQEND
  0
POLYLINE
  8
0
 10
0
 20
0
 39
0
 70
1
 66
1
  0
VERTEX
  8
0
 10
2140
 20
1470
 42
0
  0
VERTEX
  8
0
 10
1290
 20
1470
 42
0
  0
VERTEX
  8
0
 10
1290
 20
1410
 42
0
  0
VERTEX
  8
0
 10
2140
 20
1410
 42
0
  0
SEQEND
  0
POLYLINE
  8
0
 10
0
 20
0
 39
0
 70
1
 66
1
  0
VERTEX
  8
0
 10
1329.375
 20
1440
 42
-1
  0
VERTEX
  8
0
 10
1346.625
 20
1440
 42
-1
  0
SEQEND
  0
POLYLINE
  8
0
 10
0
 20
0
 39
0
 70
1
 66
1
  0
VERTEX
  8
0
 10
1929.375
 20
1440
 42
-1
  0
VERTEX
  8
0
 10
1946.625
 20
1440
 42
-1
  0
SEQEND
  0
POLYLINE
  8
0
 10
0
 20
0
 39
0
 70
1
 66
1
  0
VERTEX
  8
0
 10
2640
 20
254
 42
-0
  0
VERTEX
  8
0
 10
2640
 20
10
 42
-0
  0
VERTEX
  8
0
 10
2700
 20
10
 42
-0
  0
VERTEX
  8
0
 10
2825
 20
650
 42
-0
  0
VERTEX
  8
0
 10
2825
 20
930
 42
-0
  0
VERTEX
  8
0
 10
2795
 20
1060
 42
-0
  0
VERTEX
  8
0
 10
2595
 20
1060
 42
0
  0
VERTEX
  8
0
 10
2590
 20
990
 42
-0.7645079493522644
  0
VERTEX
  8
0
 10
2590
 20
604
 42
-0.25831884145736694
  0
SEQEND
  0
POLYLINE
  8
0
 10
0
 20
0
 39
0
 70
1
 66
1
  0
VERTEX
  8
0
 10
2773
 20
600
 42
-1
  0
VERTEX
  8
0
 10
2773
 20
560
 42
-1
  0
SEQEND
  0
POLYLINE
  8
0
 10
0
 20
0
 39
0
 70
1
 66
1
  0
VERTEX
  8
0
 10
2773
 20
1045
 42
-1
  0
VERTEX
  8
0
 10
2773
 20
1005
 42
-1
  0
SEQEND
  0
POLYLINE
  8
0
 10
0
 20
0
 39
0
 70
1
 66
1
  0
VERTEX
  8
0
 10
1040
 20
254
 42
-0
  0
VERTEX
  8
0
 10
1040
 20
10
 42
-0
  0
VERTEX
  8
0
 10
1100
 20
10
 42
-0
  0
VERTEX
  8
0
 10
1225
 20
650
 42
-0
  0
VERTEX
  8
0
 10
1225
 20
930
 42
-0
  0
VERTEX
  8
0
 10
1195
 20
1060
 42
-0
  0
VERTEX
  8
0
 10
995
 20
1060
 42
0
  0
VERTEX
  8
0
 10
990
 20
990
 42
-0.7645079493522644
  0
VERTEX
  8
0
 10
990
 20
604
 42
-0.25831884145736694
  0
SEQEND
  0
POLYLINE
  8
0
 10
0
 20
0
 39
0
 70
1
 66
1
  0
VERTEX
  8
0
 10
1173
 20
600
 42
-1
  0
VERTEX
  8
0
 10
1173
 20
560
 42
-1
  0
SEQEND
  0
POLYLINE
  8
0
 10
0
 20
0
 39
0
 70
1
 66
1
  0
VERTEX
  8
0
 10
1173
 20
1045
 42
-1
  0
VERTEX
  8
0
 10
1173
 20
1005
 42
-1
  0
SEQEND
  0
POLYLINE
  8
0
 10
0
 20
0
 39
0
 70
1
 66
1
  0
VERTEX
  8
0
 10
60.000011444091797
 20
254
 42
-0
  0
VERTEX
  8
0
 10
60.000003814697266
 20
10
 42
-0
  0
VERTEX
  8
0
 10
120
 20
10
 42
-0
  0
VERTEX
  8
0
 10
245
 20
650
 42
-0
  0
VERTEX
  8
0
 10
245
 20
930
 42
-0
  0
VERTEX
  8
0
 10
215
 20
1060
 42
-0
  0
VERTEX
  8
0
 10
15.000002861022949
 20
1060
 42
0
  0
VERTEX
  8
0
 10
10.000002861022949
 20
990
 42
-0.7645079493522644
  0
VERTEX
  8
0
 10
10
 20
604
 42
-0.25831884145736694
  0
SEQEND
  0
POLYLINE
  8
0
 10
0
 20
0
 39
0
 70
1
 66
1
  0
VERTEX
  8
0
 10
193
 20
600
 42
-1
  0
VERTEX
  8
0
 10
193
 20
560
 42
-1
  0
SEQEND
  0
POLYLINE
  8
0
 10
0
 20
0
 39
0
 70
1
 66
1
  0
VERTEX
  8
0
 10
193
 20
1045
 42
-1
  0
VERTEX
  8
0
 10
193
 20
1005
 42
-1
  0
SEQEND
  0
POLYLINE
  8
0
 10
0
 20
0
 39
0
 70
1
 66
1
  0
VERTEX
  8
0
 10
1575
 20
10
 42
0
  0
VERTEX
  8
0
 10
1575
 20
860
 42
0
  0
VERTEX
  8
0
 10
1515
 20
860
 42
0
  0
VERTEX
  8
0
 10
1515
 20
10
 42
0
  0
SEQEND
  0
POLYLINE
  8
0
 10
0
 20
0
 39
0
 70
1
 66
1
  0
VERTEX
  8
0
 10
1545
 20
820.625
 42
-1
  0
VERTEX
  8
0
 10
1545
 20
803.375
 42
-1
  0
SEQEND
  0
POLYLINE
  8
0
 10
0
 20
0
 39
0
 70
1
 66
1
  0
VERTEX
  8
0
 10
1545
 20
220.625
 42
-1
  0
VERTEX
  8
0
 10
1545
 20
203.375
 42
-1
  0
SEQEND
  0
POLYLINE
  8
0
 10
0
 20
0
 39
0
 70
1
 66
1
  0
VERTEX
  8
0
 10
3775
 20
380
 42
0
  0
VERTEX
  8
0
 10
3775
 20
1230
 42
0
  0
VERTEX
  8
0
 10
3715
 20
1230
 42
0
  0
VERTEX
  8
0
 10
3715
 20
380
 42
0
  0
SEQEND
  0
POLYLINE
  8
0
 10
0
 20
0
 39
0
 70
1
 66
1
  0
VERTEX
  8
0
 10
3745
 20
1190.625
 42
-1
  0
VERTEX
  8
0
 10
3745
 20
1173.375
 42
-1
  0
SEQEND
  0
POLYLINE
  8
0
 10
0
 20
0
 39
0
 70
1
 66
1
  0
VERTEX
  8
0
 10
3745
 20
590.625
 42
-1
  0
VERTEX
  8
0
 10
3745
 20
573.375
 42
-1
  0
SEQEND
  0
POLYLINE
  8
0
 10
0
 20
0
 39
0
 70
1
 66
1
  0
VERTEX
  8
0
 10
2580
 20
10
 42
0
  0
VERTEX
  8
0
 10
2580
 20
860
 42
0
  0
VERTEX
  8
0
 10
2520
 20
860
 42
0
  0
VERTEX
  8
0
 10
2520
 20
10
 42
0
  0
SEQEND
  0
POLYLINE
  8
0
 10
0
 20
0
 39
0
 70
1
 66
1
  0
VERTEX
  8
0
 10
2550
 20
820.625
 42
-1
  0
VERTEX
  8
0
 10
2550
 20
803.375
 42
-1
  0
SEQEND
  0
POLYLINE
  8
0
 10
0
 20
0
 39
0
 70
1
 66
1
  0
VERTEX
  8
0
 10
2550
 20
220.625
 42
-1
  0
VERTEX
  8
0
 10
2550
 20
203.375
 42
-1
  0
SEQEND
  0
POLYLINE
  8
0
 10
0
 20
0
 39
0
 70
1
 66
1
  0
VERTEX
  8
0
 10
3785
 20
880
 42
0
  0
VERTEX
  8
0
 10
3785
 20
380
 42
0
  0
VERTEX
  8
0
 10
3985
 20
380
 42
0
  0
VERTEX
  8
0
 10
3985
 20
880
 42
0
  0
SEQEND
  0
POLYLINE
  8
0
 10
0
 20
0
 39
0
 70
1
 66
1
  0
VERTEX
  8
0
 10
3946.885009765625
 20
445.31097412109375
 42
-1
  0
VERTEX
  8
0
 10
3946.885009765625
 20
409.31097412109375
 42
-1
  0
SEQEND
  0
POLYLINE
  8
0
 10
0
 20
0
 39
0
 70
1
 66
1
  0
VERTEX
  8
0
 10
3885
 20
682
 42
-1
  0
VERTEX
  8
0
 10
3885
 20
578
 42
-1
  0
SEQEND
  0
POLYLINE
  8
0
 10
0
 20
0
 39
0
 70
1
 66
1
  0
VERTEX
  8
0
 10
1170
 20
1130
 42
0
  0
VERTEX
  8
0
 10
320
 20
1130
 42
0
  0
VERTEX
  8
0
 10
320
 20
1070
 42
0
  0
VERTEX
  8
0
 10
1170
 20
1070
 42
0
  0
SEQEND
  0
POLYLINE
  8
0
 10
0
 20
0
 39
0
 70
1
 66
1
  0
VERTEX
  8
0
 10
359.375
 20
1100
 42
-1
  0
VERTEX
  8
0
 10
376.625
 20
1100
 42
-1
  0
SEQEND
  0
POLYLINE
  8
0
 10
0
 20
0
 39
0
 70
1
 66
1
  0
VERTEX
  8
0
 10
959.375
 20
1100
 42
-1
  0
VERTEX
  8
0
 10
976.625
 20
1100
 42
-1
  0
SEQEND
  0
POLYLINE
  8
0
 10
0
 20
0
 39
0
 70
1
 66
1
  0
VERTEX
  8
0
 10
305
 20
254
 42
-0
  0
VERTEX
  8
0
 10
305
 20
10
 42
-0
  0
VERTEX
  8
0
 10
365
 20
10
 42
-0
  0
VERTEX
  8
0
 10
490
 20
650
 42
-0
  0
VERTEX
  8
0
 10
490
 20
930
 42
-0
  0
VERTEX
  8
0
 10
460
 20
1060
 42
-0
  0
VERTEX
  8
0
 10
260
 20
1060
 42
0
  0
VERTEX
  8
0
 10
255
 20
990
 42
-0.7645079493522644
  0
VERTEX
  8
0
 10
255
 20
604
 42
-0.25831884145736694
  0
SEQEND
  0
POLYLINE
  8
0
 10
0
 20
0
 39
0
 70
1
 66
1
  0
VERTEX
  8
0
 10
438
 20
600
 42
-1
  0
VERTEX
  8
0
 10
438
 20
560
 42
-1
  0
SEQEND
  0
POLYLINE
  8
0
 10
0
 20
0
 39
0
 70
1
 66
1
  0
VERTEX
  8
0
 10
438
 20
1045
 42
-1
  0
VERTEX
  8
0
 10
438
 20
1005
 42
-1
  0
SEQEND
  0
POLYLINE
  8
0
 10
0
 20
0
 39
0
 70
1
 66
1
  0
VERTEX
  8
0
 10
1505
 20
10
 42
0
  0
VERTEX
  8
0
 10
1505
 20
860
 42
0
  0
VERTEX
  8
0
 10
1445
 20
860
 42
0
  0
VERTEX
  8
0
 10
1445
 20
10
 42
0
  0
SEQEND
  0
POLYLINE
  8
0
 10
0
 20
0
 39
0
 70
1
 66
1
  0
VERTEX
  8
0
 10
1475
 20
820.625
 42
-1
  0
VERTEX
  8
0
 10
1475
 20
803.375
 42
-1
  0
SEQEND
  0
POLYLINE
  8
0
 10
0
 20
0
 39
0
 70
1
 66
1
  0
VERTEX
  8
0
 10
1475
 20
220.625
 42
-1
  0
VERTEX
  8
0
 10
1475
 20
203.375
 42
-1
  0
SEQEND
  0
POLYLINE
  8
0
 10
0
 20
0
 39
0
 70
1
 66
1
  0
VERTEX
  8
0
 10
2295
 20
510
 42
0
  0
VERTEX
  8
0
 10
2295
 20
10
 42
0
  0
VERTEX
  8
0
 10
2495
 20
10
 42
0
  0
VERTEX
  8
0
 10
2495
 20
510
 42
0
  0
SEQEND
  0
POLYLINE
  8
0
 10
0
 20
0
 39
0
 70
1
 66
1
  0
VERTEX
  8
0
 10
2456.885009765625
 20
75.31097412109375
 42
-1
  0
VERTEX
  8
0
 10
2456.885009765625
 20
39.31097412109375
 42
-1
  0
SEQEND
  0
POLYLINE
  8
0
 10
0
 20
0
 39
0
 70
1
 66
1
  0
VERTEX
  8
0
 10
2395
 20
312
 42
-1
  0
VERTEX
  8
0
 10
2395
 20
208
 42
-1
  0
SEQEND
  0
POLYLINE
  8
0
 10
0
 20
0
 39
0
 70
1
 66
1
  0
VERTEX
  8
0
 10
3915
 20
1460
 42
0
  0
VERTEX
  8
0
 10
3715
 20
1460
 42
0
  0
VERTEX
  8
0
 10
3715
 20
1240
 42
0
  0
VERTEX
  8
0
 10
3915
 20
1240
 42
-0
  0
SEQEND
  0
POLYLINE
  8
0
 10
0
 20
0
 39
0
 70
1
 66
1
  0
VERTEX
  8
0
 10
3860
 20
1414.5
 42
-1
  0
VERTEX
  8
0
 10
3860
 20
1395.5
 42
-1
  0
SEQEND
  0
POLYLINE
  8
0
 10
0
 20
0
 39
0
 70
1
 66
1
  0
VERTEX
  8
0
 10
3770
 20
1304.5
 42
-1
  0
VERTEX
  8
0
 10
3770
 20
1285.5
 42
-1
  0
SEQEND
  0
POLYLINE
  8
0
 10
0
 20
0
 39
0
 70
1
 66
1
  0
VERTEX
  8
0
 10
1900
 20
1045
 42
0
  0
VERTEX
  8
0
 10
1900
 20
545
 42
0
  0
VERTEX
  8
0
 10
2100
 20
545
 42
0
  0
VERTEX
  8
0
 10
2100
 20
1045
 42
0
  0
SEQEND
  0
POLYLINE
  8
0
 10
0
 20
0
 39
0
 70
1
 66
1
  0
VERTEX
  8
0
 10
2061.885009765625
 20
610.31097412109375
 42
-1
  0
VERTEX
  8
0
 10
2061.885009765625
 20
574.31097412109375
 42
-1
  0
SEQEND
  0
POLYLINE
  8
0
 10
0
 20
0
 39
0
 70
1
 66
1
  0
VERTEX
  8
0
 10
2000
 20
847
 42
-1
  0
VERTEX
  8
0
 10
2000
 20
743
 42
-1
  0
SEQEND
  0
POLYLINE
  8
0
 10
0
 20
0
 39
0
 70
1
 66
1
  0
VERTEX
  8
0
 10
2835
 20
510
 42
0
  0
VERTEX
  8
0
 10
2835
 20
10
 42
0
  0
VERTEX
  8
0
 10
3035
 20
10
 42
0
  0
VERTEX
  8
0
 10
3035
 20
510
 42
0
  0
SEQEND
  0
POLYLINE
  8
0
 10
0
 20
0
 39
0
 70
1
 66
1
  0
VERTEX
  8
0
 10
2996.885009765625
 20
75.31097412109375
 42
-1
  0
VERTEX
  8
0
 10
2996.885009765625
 20
39.31097412109375
 42
-1
  0
SEQEND
  0
POLYLINE
  8
0
 10
0
 20
0
 39
0
 70
1
 66
1
  0
VERTEX
  8
0
 10
2935
 20
312
 42
-1
  0
VERTEX
  8
0
 10
2935
 20
208
 42
-1
  0
SEQEND
  0
POLYLINE
  8
0
 10
0
 20
0
 39
0
 70
1
 66
1
  0
VERTEX
  8
0
 10
550
 20
254
 42
-0
  0
VERTEX
  8
0
 10
550
 20
10
 42
-0
  0
VERTEX
  8
0
 10
610
 20
10
 42
-0
  0
VERTEX
  8
0
 10
735
 20
650
 42
-0
  0
VERTEX
  8
0
 10
735
 20
930
 42
-0
  0
VERTEX
  8
0
 10
705
 20
1060
 42
-0
  0
VERTEX
  8
0
 10
505
 20
1060
 42
0
  0
VERTEX
  8
0
 10
500
 20
990
 42
-0.7645079493522644
  0
VERTEX
  8
0
 10
500
 20
604
 42
-0.25831884145736694
  0
SEQEND
  0
POLYLINE
  8
0
 10
0
 20
0
 39
0
 70
1
 66
1
  0
VERTEX
  8
0
 10
683
 20
600
 42
-1
  0
VERTEX
  8
0
 10
683
 20
560
 42
-1
  0
SEQEND
  0
POLYLINE
  8
0
 10
0
 20
0
 39
0
 70
1
 66
1
  0
VERTEX
  8
0
 10
683
 20
1045
 42
-1
  0
VERTEX
  8
0
 10
683
 20
1005
 42
-1
  0
SEQEND
  0
POLYLINE
  8
0
 10
0
 20
0
 39
0
 70
1
 66
1
  0
VERTEX
  8
0
 10
320
 20
1280
 42
0
  0
VERTEX
  8
0
 10
820
 20
1280
 42
0
  0
VERTEX
  8
0
 10
820
 20
1480
 42
0
  0
VERTEX
  8
0
 10
320
 20
1480
 42
0
  0
SEQEND
  0
POLYLINE
  8
0
 10
0
 20
0
 39
0
 70
1
 66
1
  0
VERTEX
  8
0
 10
754.68902587890625
 20
1441.885009765625
 42
-1
  0
VERTEX
  8
0
 10
790.68902587890625
 20
1441.885009765625
 42
-1
  0
SEQEND
  0
POLYLINE
  8
0
 10
0
 20
0
 39
0
 70
1
 66
1
  0
VERTEX
  8
0
 10
518
 20
1380
 42
-1
  0
VERTEX
  8
0
 10
622
 20
1380
 42
-1
  0
SEQEND
  0
POLYLINE
  8
0
 10
0
 20
0
 39
0
 70
1
 66
1
  0
VERTEX
  8
0
 10
1365
 20
10
 42
0
  0
VERTEX
  8
0
 10
1365
 20
860
 42
0
  0
VERTEX
  8
0
 10
1305
 20
860
 42
0
  0
VERTEX
  8
0
 10
1305
 20
10
 42
0
  0
SEQEND
  0
POLYLINE
  8
0
 10
0
 20
0
 39
0
 70
1
 66
1
  0
VERTEX
  8
0
 10
1335
 20
820.625
 42
-1
  0
VERTEX
  8
0
 10
1335
 20
803.375
 42
-1
  0
SEQEND
  0
POLYLINE
  8
0
 10
0
 20
0
 39
0
 70
1
 66
1
  0
VERTEX
  8
0
 10
1335
 20
220.625
 42
-1
  0
VERTEX
  8
0
 10
1335
 20
203.375
 42
-1
  0
SEQEND
  0
POLYLINE
  8
0
 10
0
 20
0
 39
0
 70
1
 66
1
  0
VERTEX
  8
0
 10
1290
 20
1370
 42
0
  0
VERTEX
  8
0
 10
1290
 20
870
 42
0
  0
VERTEX
  8
0
 10
1490
 20
870
 42
0
  0
VERTEX
  8
0
 10
1490
 20
1370
 42
0
  0
SEQEND
  0
POLYLINE
  8
0
 10
0
 20
0
 39
0
 70
1
 66
1
  0
VERTEX
  8
0
 10
1451.885009765625
 20
935.31097412109375
 42
-1
  0
VERTEX
  8
0
 10
1451.885009765625
 20
899.31097412109375
 42
-1
  0
SEQEND
  0
POLYLINE
  8
0
 10
0
 20
0
 39
0
 70
1
 66
1
  0
VERTEX
  8
0
 10
1390
 20
1172
 42
-1
  0
VERTEX
  8
0
 10
1390
 20
1068
 42
-1
  0
SEQEND
  0
POLYLINE
  8
0
 10
0
 20
0
 39
0
 70
1
 66
1
  0
VERTEX
  8
0
 10
2310
 20
1020
 42
0
  0
VERTEX
  8
0
 10
2310
 20
520
 42
0
  0
VERTEX
  8
0
 10
2510
 20
520
 42
0
  0
VERTEX
  8
0
 10
2510
 20
1020
 42
0
  0
SEQEND
  0
POLYLINE
  8
0
 10
0
 20
0
 39
0
 70
1
 66
1
  0
VERTEX
  8
0
 10
2471.885009765625
 20
585.31097412109375
 42
-1
  0
VERTEX
  8
0
 10
2471.885009765625
 20
549.31097412109375
 42
-1
  0
SEQEND
  0
POLYLINE
  8
0
 10
0
 20
0
 39
0
 70
1
 66
1
  0
VERTEX
  8
0
 10
2410
 20
822
 42
-1
  0
VERTEX
  8
0
 10
2410
 20
718
 42
-1
  0
SEQEND
  0
POLYLINE
  8
0
 10
0
 20
0
 39
0
 70
1
 66
1
  0
VERTEX
  8
0
 10
795
 20
254
 42
-0
  0
VERTEX
  8
0
 10
795
 20
10
 42
-0
  0
VERTEX
  8
0
 10
855
 20
10
 42
-0
  0
VERTEX
  8
0
 10
980
 20
650
 42
-0
  0
VERTEX
  8
0
 10
980
 20
930
 42
-0
  0
VERTEX
  8
0
 10
950
 20
1060
 42
-0
  0
VERTEX
  8
0
 10
750
 20
1060
 42
0
  0
VERTEX
  8
0
 10
745
 20
990
 42
-0.7645079493522644
  0
VERTEX
  8
0
 10
745
 20
604
 42
-0.25831884145736694
  0
SEQEND
  0
POLYLINE
  8
0
 10
0
 20
0
 39
0
 70
1
 66
1
  0
VERTEX
  8
0
 10
928
 20
600
 42
-1
  0
VERTEX
  8
0
 10
928
 20
560
 42
-1
  0
SEQEND
  0
POLYLINE
  8
0
 10
0
 20
0
 39
0
 70
1
 66
1
  0
VERTEX
  8
0
 10
928
 20
1045
 42
-1
  0
VERTEX
  8
0
 10
928
 20
1005
 42
-1
  0
SEQEND
  0
POLYLINE
  8
0
 10
0
 20
0
 39
0
 70
1
 66
1
  0
VERTEX
  8
0
 10
2150
 20
1285
 42
0
  0
VERTEX
  8
0
 10
2650
 20
1285
 42
0
  0
VERTEX
  8
0
 10
2650
 20
1485
 42
0
  0
VERTEX
  8
0
 10
2150
 20
1485
 42
0
  0
SEQEND
  0
POLYLINE
  8
0
 10
0
 20
0
 39
0
 70
1
 66
1
  0
VERTEX
  8
0
 10
2584.68896484375
 20
1446.8851318359375
 42
-1
  0
VERTEX
  8
0
 10
2620.68896484375
 20
1446.8851318359375
 42
-1
  0
SEQEND
  0
POLYLINE
  8
0
 10
0
 20
0
 39
0
 70
1
 66
1
  0
VERTEX
  8
0
 10
2348
 20
1385
 42
-1
  0
VERTEX
  8
0
 10
2452
 20
1385
 42
-1
  0
SEQEND
  0
POLYLINE
  8
0
 10
0
 20
0
 39
0
 70
1
 66
1
  0
VERTEX
  8
0
 10
2085
 20
510
 42
0
  0
VERTEX
  8
0
 10
2085
 20
10
 42
0
  0
VERTEX
  8
0
 10
2285
 20
10
 42
0
  0
VERTEX
  8
0
 10
2285
 20
510
 42
0
  0
SEQEND
  0
POLYLINE
  8
0
 10
0
 20
0
 39
0
 70
1
 66
1
  0
VERTEX
  8
0
 10
2246.885009765625
 20
75.31097412109375
 42
-1
  0
VERTEX
  8
0
 10
2246.885009765625
 20
39.31097412109375
 42
-1
  0
SEQEND
  0
POLYLINE
  8
0
 10
0
 20
0
 39
0
 70
1
 66
1
  0
VERTEX
  8
0
 10
2185
 20
312
 42
-1
  0
VERTEX
  8
0
 10
2185
 20
208
 42
-1
  0
SEQEND
  0
POLYLINE
  8
0
 10
0
 20
0
 39
0
 70
1
 66
1
  0
VERTEX
  8
0
 10
3490
 20
880
 42
0
  0
VERTEX
  8
0
 10
3490
 20
380
 42
0
  0
VERTEX
  8
0
 10
3690
 20
380
 42
0
  0
VERTEX
  8
0
 10
3690
 20
880
 42
0
  0
SEQEND
  0
POLYLINE
  8
0
 10
0
 20
0
 39
0
 70
1
 66
1
  0
VERTEX
  8
0
 10
3651.885009765625
 20
445.31097412109375
 42
-1
  0
VERTEX
  8
0
 10
3651.885009765625
 20
409.31097412109375
 42
-1
  0
SEQEND
  0
POLYLINE
  8
0
 10
0
 20
0
 39
0
 70
1
 66
1
  0
VERTEX
  8
0
 10
3590
 20
682
 42
-1
  0
VERTEX
  8
0
 10
3590
 20
578
 42
-1
  0
SEQEND
  0
POLYLINE
  8
0
 10
0
 20
0
 39
0
 70
1
 66
1
  0
VERTEX
  8
0
 10
1435
 20
10
 42
0
  0
VERTEX
  8
0
 10
1435
 20
860
 42
0
  0
VERTEX
  8
0
 10
1375
 20
860
 42
0
  0
VERTEX
  8
0
 10
1375
 20
10
 42
0
  0
SEQEND
  0
POLYLINE
  8
0
 10
0
 20
0
 39
0
 70
1
 66
1
  0
VERTEX
  8
0
 10
1405
 20
820.625
 42
-1
  0
VERTEX
  8
0
 10
1405
 20
803.375
 42
-1
  0
SEQEND
  0
POLYLINE
  8
0
 10
0
 20
0
 39
0
 70
1
 66
1
  0
VERTEX
  8
0
 10
1405
 20
220.625
 42
-1
  0
VERTEX
  8
0
 10
1405
 20
203.375
 42
-1
  0
SEQEND
  0
POLYLINE
  8
0
 10
0
 20
0
 39
0
 70
1
 66
1
  0
VERTEX
  8
0
 10
2835
 20
1020
 42
0
  0
VERTEX
  8
0
 10
2835
 20
520
 42
0
  0
VERTEX
  8
0
 10
3035
 20
520
 42
0
  0
VERTEX
  8
0
 10
3035
 20
1020
 42
0
  0
SEQEND
  0
POLYLINE
  8
0
 10
0
 20
0
 39
0
 70
1
 66
1
  0
VERTEX
  8
0
 10
2996.885009765625
 20
585.31097412109375
 42
-1
  0
VERTEX
  8
0
 10
2996.885009765625
 20
549.31097412109375
 42
-1
  0
SEQEND
  0
POLYLINE
  8
0
 10
0
 20
0
 39
0
 70
1
 66
1
  0
VERTEX
  8
0
 10
2935
 20
822
 42
-1
  0
VERTEX
  8
0
 10
2935
 20
718
 42
-1
  0
SEQEND
  0
POLYLINE
  8
0
 10
0
 20
0
 39
0
 70
1
 66
1
  0
VERTEX
  8
0
 10
3533.863525390625
 20
370
 42
0.94444441795349121
  0
VERTEX
  8
0
 10
3533.863525390625
 20
10
 42
0
  0
VERTEX
  8
0
 10
3663.863525390625
 20
10
 42
0
  0
VERTEX
  8
0
 10
3663.863525390625
 20
370
 42
0
  0
SEQEND
  0
POLYLINE
  8
0
 10
0
 20
0
 39
0
 70
1
 66
1
  0
VERTEX
  8
0
 10
3603.863525390625
 20
200.5
 42
-1
  0
VERTEX
  8
0
 10
3603.863525390625
 20
179.5
 42
-1
  0
SEQEND
  0
POLYLINE
  8
0
 10
0
 20
0
 39
0
 70
1
 66
1
  0
VERTEX
  8
0
 10
3483.863525390625
 20
190
 42
0.41421356797218323
  0
VERTEX
  8
0
 10
3603.863525390625
 20
70
 42
-1
  0
VERTEX
  8
0
 10
3603.863525390625
 20
48
 42
-0.41421356797218323
  0
VERTEX
  8
0
 10
3461.863525390625
 20
190
 42
-1
  0
SEQEND
  0
POLYLINE
  8
0
 10
0
 20
0
 39
0
 70
1
 66
1
  0
VERTEX
  8
0
 10
1170
 20
1270
 42
0
  0
VERTEX
  8
0
 10
320
 20
1270
 42
0
  0
VERTEX
  8
0
 10
320
 20
1210
 42
0
  0
VERTEX
  8
0
 10
1170
 20
1210
 42
0
  0
SEQEND
  0
POLYLINE
  8
0
 10
0
 20
0
 39
0
 70
1
 66
1
  0
VERTEX
  8
0
 10
359.375
 20
1240
 42
-1
  0
VERTEX
  8
0
 10
376.625
 20
1240
 42
-1
  0
SEQEND
  0
POLYLINE
  8
0
 10
0
 20
0
 39
0
 70
1
 66
1
  0
VERTEX
  8
0
 10
959.375
 20
1240
 42
-1
  0
VERTEX
  8
0
 10
976.625
 20
1240
 42
-1
  0
SEQEND
  0
POLYLINE
  8
0
 10
0
 20
0
 39
0
 70
1
 66
1
  0
VERTEX
  8
0
 10
2860
 20
1390
 42
0
  0
VERTEX
  8
0
 10
2660
 20
1390
 42
0
  0
VERTEX
  8
0
 10
2660
 20
1170
 42
0
  0
VERTEX
  8
0
 10
2860
 20
1170
 42
-0
  0
SEQEND
  0
POLYLINE
  8
0
 10
0
 20
0
 39
0
 70
1
 66
1
  0
VERTEX
  8
0
 10
2805
 20
1344.5
 42
-1
  0
VERTEX
  8
0
 10
2805
 20
1325.5
 42
-1
  0
SEQEND
  0
POLYLINE
  8
0
 10
0
 20
0
 39
0
 70
1
 66
1
  0
VERTEX
  8
0
 10
2715
 20
1234.5
 42
-1
  0
VERTEX
  8
0
 10
2715
 20
1215.5
 42
-1
  0
SEQEND
  0
POLYLINE
  8
0
 10
0
 20
0
 39
0
 70
1
 66
1
  0
VERTEX
  8
0
 10
1170
 20
1200
 42
0
  0
VERTEX
  8
0
 10
320
 20
1200
 42
0
  0
VERTEX
  8
0
 10
320
 20
1140
 42
0
  0
VERTEX
  8
0
 10
1170
 20
1140
 42
0
  0
SEQEND
  0
POLYLINE
  8
0
 10
0
 20
0
 39
0
 70
1
 66
1
  0
VERTEX
  8
0
 10
359.375
 20
1170
 42
-1
  0
VERTEX
  8
0
 10
376.625
 20
1170
 42
-1
  0
SEQEND
  0
POLYLINE
  8
0
 10
0
 20
0
 39
0
 70
1
 66
1
  0
VERTEX
  8
0
 10
959.375
 20
1170
 42
-1
  0
VERTEX
  8
0
 10
976.625
 20
1170
 42
-1
  0
SEQEND
  0
POLYLINE
  8
0
 10
0
 20
0
 39
0
 70
1
 66
1
  0
VERTEX
  8
0
 10
2220
 20
1275
 42
0
  0
VERTEX
  8
0
 10
2020
 20
1275
 42
0
  0
VERTEX
  8
0
 10
2020
 20
1055
 42
0
  0
VERTEX
  8
0
 10
2220
 20
1055
 42
-0
  0
SEQEND
  0
POLYLINE
  8
0
 10
0
 20
0
 39
0
 70
1
 66
1
  0
VERTEX
  8
0
 10
2165
 20
1229.5
 42
-1
  0
VERTEX
  8
0
 10
2165
 20
1210.5
 42
-1
  0
SEQEND
  0
POLYLINE
  8
0
 10
0
 20
0
 39
0
 70
1
 66
1
  0
VERTEX
  8
0
 10
2075
 20
1119.5
 42
-1
  0
VERTEX
  8
0
 10
2075
 20
1100.5
 42
-1
  0
SEQEND
  0
POLYLINE
  8
0
 10
0
 20
0
 39
0
 70
1
 66
1
  0
VERTEX
  8
0
 10
2010
 20
1300
 42
0
  0
VERTEX
  8
0
 10
1810
 20
1300
 42
0
  0
VERTEX
  8
0
 10
1810
 20
1080
 42
0
  0
VERTEX
  8
0
 10
2010
 20
1080
 42
-0
  0
SEQEND
  0
POLYLINE
  8
0
 10
0
 20
0
 39
0
 70
1
 66
1
  0
VERTEX
  8
0
 10
1955
 20
1254.5
 42
-1
  0
VERTEX
  8
0
 10
1955
 20
1235.5
 42
-1
  0
SEQEND
  0
POLYLINE
  8
0
 10
0
 20
0
 39
0
 70
1
 66
1
  0
VERTEX
  8
0
 10
1865
 20
1144.5
 42
-1
  0
VERTEX
  8
0
 10
1865
 20
1125.5
 42
-1
  0
SEQEND
  0
POLYLINE
  8
0
 10
0
 20
0
 39
0
 70
1
 66
1
  0
VERTEX
  8
0
 10
830
 20
1480
 42
0
  0
VERTEX
  8
0
 10
830
 20
1280
 42
0
  0
VERTEX
  8
0
 10
1050
 20
1280
 42
0
  0
VERTEX
  8
0
 10
1050
 20
1480
 42
-0
  0
SEQEND
  0
POLYLINE
  8
0
 10
0
 20
0
 39
0
 70
1
 66
1
  0
VERTEX
  8
0
 10
875.5
 20
1425
 42
-1
  0
VERTEX
  8
0
 10
894.5
 20
1425
 42
-1
  0
SEQEND
  0
POLYLINE
  8
0
 10
0
 20
0
 39
0
 70
1
 66
1
  0
VERTEX
  8
0
 10
985.5
 20
1335
 42
-1
  0
VERTEX
  8
0
 10
1004.5
 20
1335
 42
-1
  0
SEQEND
  0
POLYLINE
  8
0
 10
0
 20
0
 39
0
 70
1
 66
1
  0
VERTEX
  8
0
 10
3985
 20
1110
 42
0
  0
VERTEX
  8
0
 10
3785
 20
1110
 42
0
  0
VERTEX
  8
0
 10
3785
 20
890
 42
0
  0
VERTEX
  8
0
 10
3985
 20
890
 42
-0
  0
SEQEND
  0
POLYLINE
  8
0
 10
0
 20
0
 39
0
 70
1
 66
1
  0
VERTEX
  8
0
 10
3930
 20
1064.5
 42
-1
  0
VERTEX
  8
0
 10
3930
 20
1045.5
 42
-1
  0
SEQEND
  0
POLYLINE
  8
0
 10
0
 20
0
 39
0
 70
1
 66
1
  0
VERTEX
  8
0
 10
3840
 20
954.5
 42
-1
  0
VERTEX
  8
0
 10
3840
 20
935.5
 42
-1
  0
SEQEND
  0
POLYLINE
  8
0
 10
0
 20
0
 39
0
 70
1
 66
1
  0
VERTEX
  8
0
 10
1800
 20
1300
 42
0
  0
VERTEX
  8
0
 10
1600
 20
1300
 42
0
  0
VERTEX
  8
0
 10
1600
 20
1080
 42
0
  0
VERTEX
  8
0
 10
1800
 20
1080
 42
-0
  0
SEQEND
  0
POLYLINE
  8
0
 10
0
 20
0
 39
0
 70
1
 66
1
  0
VERTEX
  8
0
 10
1745
 20
1254.5
 42
-1
  0
VERTEX
  8
0
 10
1745
 20
1235.5
 42
-1
  0
SEQEND
  0
POLYLINE
  8
0
 10
0
 20
0
 39
0
 70
1
 66
1
  0
VERTEX
  8
0
 10
1655
 20
1144.5
 42
-1
  0
VERTEX
  8
0
 10
1655
 20
1125.5
 42
-1
  0
SEQEND
  0
POLYLINE
  8
0
 10
0
 20
0
 39
0
 70
1
 66
1
  0
VERTEX
  8
0
 10
1060
 20
1480
 42
0
  0
VERTEX
  8
0
 10
1060
 20
1280
 42
0
  0
VERTEX
  8
0
 10
1280
 20
1280
 42
0
  0
VERTEX
  8
0
 10
1280
 20
1480
 42
-0
  0
SEQEND
  0
POLYLINE
  8
0
 10
0
 20
0
 39
0
 70
1
 66
1
  0
VERTEX
  8
0
 10
1105.5
 20
1425
 42
-1
  0
VERTEX
  8
0
 10
1124.5
 20
1425
 42
-1
  0
SEQEND
  0
POLYLINE
  8
0
 10
0
 20
0
 39
0
 70
1
 66
1
  0
VERTEX
  8
0
 10
1215.5
 20
1335
 42
-1
  0
VERTEX
  8
0
 10
1234.5
 20
1335
 42
-1
  0
SEQEND
  0
POLYLINE
  8
0
 10
0
 20
0
 39
0
 70
1
 66
1
  0
VERTEX
  8
0
 10
3395
 20
1479.4549560546875
 42
0
  0
VERTEX
  8
0
 10
3195
 20
1479.4549560546875
 42
0
  0
VERTEX
  8
0
 10
3195
 20
1259.4549560546875
 42
0
  0
VERTEX
  8
0
 10
3395
 20
1259.4549560546875
 42
-0
  0
SEQEND
  0
POLYLINE
  8
0
 10
0
 20
0
 39
0
 70
1
 66
1
  0
VERTEX
  8
0
 10
3340
 20
1433.9549560546875
 42
-1
  0
VERTEX
  8
0
 10
3340
 20
1414.9549560546875
 42
-1
  0
SEQEND
  0
POLYLINE
  8
0
 10
0
 20
0
 39
0
 70
1
 66
1
  0
VERTEX
  8
0
 10
3250
 20
1323.9549560546875
 42
-1
  0
VERTEX
  8
0
 10
3250
 20
1304.9549560546875
 42
-1
  0
SEQEND
  0
POLYLINE
  8
0
 10
0
 20
0
 39
0
 70
1
 66
1
  0
VERTEX
  8
0
 10
3605
 20
1479.4549560546875
 42
0
  0
VERTEX
  8
0
 10
3405
 20
1479.4549560546875
 42
0
  0
VERTEX
  8
0
 10
3405
 20
1259.4549560546875
 42
0
  0
VERTEX
  8
0
 10
3605
 20
1259.4549560546875
 42
-0
  0
SEQEND
  0
POLYLINE
  8
0
 10
0
 20
0
 39
0
 70
1
 66
1
  0
VERTEX
  8
0
 10
3550
 20
1433.9549560546875
 42
-1
  0
VERTEX
  8
0
 10
3550
 20
1414.9549560546875
 42
-1
  0
SEQEND
  0
POLYLINE
  8
0
 10
0
 20
0
 39
0
 70
1
 66
1
  0
VERTEX
  8
0
 10
3460
 20
1323.9549560546875
 42
-1
  0
VERTEX
  8
0
 10
3460
 20
1304.9549560546875
 42
-1
  0
SEQEND
  0
POLYLINE
  8
0
 10
0
 20
0
 39
0
 70
1
 66
1
  0
VERTEX
  8
0
 10
3321.287841796875
 20
879.4549560546875
 42
0.94444441795349121
  0
VERTEX
  8
0
 10
3321.287841796875
 20
519.4549560546875
 42
0
  0
VERTEX
  8
0
 10
3451.287841796875
 20
519.4549560546875
 42
0
  0
VERTEX
  8
0
 10
3451.287841796875
 20
879.4549560546875
 42
0
  0
SEQEND
  0
POLYLINE
  8
0
 10
0
 20
0
 39
0
 70
1
 66
1
  0
VERTEX
  8
0
 10
3391.287841796875
 20
709.9549560546875
 42
-1
  0
VERTEX
  8
0
 10
3391.287841796875
 20
688.9549560546875
 42
-1
  0
SEQEND
  0
POLYLINE
  8
0
 10
0
 20
0
 39
0
 70
1
 66
1
  0
VERTEX
  8
0
 10
3271.287841796875
 20
699.4549560546875
 42
0.41421356797218323
  0
VERTEX
  8
0
 10
3391.287841796875
 20
579.4549560546875
 42
-1
  0
VERTEX
  8
0
 10
3391.287841796875
 20
557.4549560546875
 42
-0.41421356797218323
  0
VERTEX
  8
0
 10
3249.287841796875
 20
699.4549560546875
 42
-1
  0
SEQEND
  0
POLYLINE
  8
0
 10
0
 20
0
 39
0
 70
1
 66
1
  0
VERTEX
  8
0
 10
3620
 20
1395
 42
0
  0
VERTEX
  8
0
 10
3615.002685546875
 20
935.4893798828125
 42
1.0109343528747559
  0
VERTEX
  8
0
 10
3704.997314453125
 20
935.4893798828125
 42
-0
  0
VERTEX
  8
0
 10
3700
 20
1395
 42
-0
  0
VERTEX
  8
0
 10
3685
 20
1415
 42
0
  0
VERTEX
  8
0
 10
3635
 20
1415
 42
0
  0
SEQEND
  0
POLYLINE
  8
0
 10
0
 20
0
 39
0
 70
1
 66
1
  0
VERTEX
  8
0
 10
3660
 20
1398
 42
-1
  0
VERTEX
  8
0
 10
3660
 20
1368
 42
-1
  0
SEQEND
  0
POLYLINE
  8
0
 10
0
 20
0
 39
0
 70
1
 66
1
  0
VERTEX
  8
0
 10
3660
 20
955
 42
-1
  0
VERTEX
  8
0
 10
3660
 20
915
 42
-1
  0
SEQEND
  0
POLYLINE
  8
0
 10
0
 20
0
 39
0
 70
1
 66
1
  0
VERTEX
  8
0
 10
3660
 20
1012.75
 42
-1
  0
VERTEX
  8
0
 10
3660
 20
987.25
 42
-1
  0
SEQEND
  0
POLYLINE
  8
0
 10
0
 20
0
 39
0
 70
1
 66
1
  0
VERTEX
  8
0
 10
1890
 20
515
 42
0
  0
VERTEX
  8
0
 10
1885.002685546875
 20
55.489353179931641
 42
1.0109343528747559
  0
VERTEX
  8
0
 10
1974.997314453125
 20
55.489353179931641
 42
-0
  0
VERTEX
  8
0
 10
1970
 20
515
 42
-0
  0
VERTEX
  8
0
 10
1955
 20
535
 42
0
  0
VERTEX
  8
0
 10
1905
 20
535
 42
0
  0
SEQEND
  0
POLYLINE
  8
0
 10
0
 20
0
 39
0
 70
1
 66
1
  0
VERTEX
  8
0
 10
1930
 20
518
 42
-1
  0
VERTEX
  8
0
 10
1930
 20
488
 42
-1
  0
SEQEND
  0
POLYLINE
  8
0
 10
0
 20
0
 39
0
 70
1
 66
1
  0
VERTEX
  8
0
 10
1930
 20
75.000007629394531
 42
-1
  0
VERTEX
  8
0
 10
1930
 20
35.000003814697266
 42
-1
  0
SEQEND
  0
POLYLINE
  8
0
 10
0
 20
0
 39
0
 70
1
 66
1
  0
VERTEX
  8
0
 10
1930
 20
132.75
 42
-1
  0
VERTEX
  8
0
 10
1930
 20
107.25000762939453
 42
-1
  0
SEQEND
  0
POLYLINE
  8
0
 10
0
 20
0
 39
0
 70
1
 66
1
  0
VERTEX
  8
0
 10
1805
 20
1050
 42
0
  0
VERTEX
  8
0
 10
1800.002685546875
 20
590.4893798828125
 42
1.0109343528747559
  0
VERTEX
  8
0
 10
1889.997314453125
 20
590.4893798828125
 42
-0
  0
VERTEX
  8
0
 10
1885
 20
1050
 42
-0
  0
VERTEX
  8
0
 10
1870
 20
1070
 42
0
  0
VERTEX
  8
0
 10
1820
 20
1070
 42
0
  0
SEQEND
  0
POLYLINE
  8
0
 10
0
 20
0
 39
0
 70
1
 66
1
  0
VERTEX
  8
0
 10
1845
 20
1053
 42
-1
  0
VERTEX
  8
0
 10
1845
 20
1023
 42
-1
  0
SEQEND
  0
POLYLINE
  8
0
 10
0
 20
0
 39
0
 70
1
 66
1
  0
VERTEX
  8
0
 10
1845
 20
610
 42
-1
  0
VERTEX
  8
0
 10
1845
 20
570
 42
-1
  0
SEQEND
  0
POLYLINE
  8
0
 10
0
 20
0
 39
0
 70
1
 66
1
  0
VERTEX
  8
0
 10
1845
 20
667.75
 42
-1
  0
VERTEX
  8
0
 10
1845
 20
642.25
 42
-1
  0
SEQEND
  0
POLYLINE
  8
0
 10
0
 20
0
 39
0
 70
1
 66
1
  0
VERTEX
  8
0
 10
2250
 20
1075
 42
0
  0
VERTEX
  8
0
 10
2709.5107421875
 20
1070.002685546875
 42
1.0109343528747559
  0
VERTEX
  8
0
 10
2709.5107421875
 20
1159.997314453125
 42
-0
  0
VERTEX
  8
0
 10
2250
 20
1155
 42
-0
  0
VERTEX
  8
0
 10
2230
 20
1140
 42
0
  0
VERTEX
  8
0
 10
2230
 20
1090
 42
0
  0
SEQEND
  0
POLYLINE
  8
0
 10
0
 20
0
 39
0
 70
1
 66
1
  0
VERTEX
  8
0
 10
2247
 20
1115
 42
-1
  0
VERTEX
  8
0
 10
2277
 20
1115
 42
-1
  0
SEQEND
  0
POLYLINE
  8
0
 10
0
 20
0
 39
0
 70
1
 66
1
  0
VERTEX
  8
0
 10
2690
 20
1115
 42
-1
  0
VERTEX
  8
0
 10
2730
 20
1115
 42
-1
  0
SEQEND
  0
POLYLINE
  8
0
 10
0
 20
0
 39
0
 70
1
 66
1
  0
VERTEX
  8
0
 10
2632.25
 20
1115
 42
-1
  0
VERTEX
  8
0
 10
2657.75
 20
1115
 42
-1
  0
SEQEND
  0
POLYLINE
  8
0
 10
0
 20
0
 39
0
 70
1
 66
1
  0
VERTEX
  8
0
 10
1990
 20
515
 42
0
  0
VERTEX
  8
0
 10
1985.002685546875
 20
55.489353179931641
 42
1.0109343528747559
  0
VERTEX
  8
0
 10
2074.997314453125
 20
55.489353179931641
 42
-0
  0
VERTEX
  8
0
 10
2070
 20
515
 42
-0
  0
VERTEX
  8
0
 10
2055
 20
535
 42
0
  0
VERTEX
  8
0
 10
2005
 20
535
 42
0
  0
SEQEND
  0
POLYLINE
  8
0
 10
0
 20
0
 39
0
 70
1
 66
1
  0
VERTEX
  8
0
 10
2030
 20
518
 42
-1
  0
VERTEX
  8
0
 10
2030
 20
488
 42
-1
  0
SEQEND
  0
POLYLINE
  8
0
 10
0
 20
0
 39
0
 70
1
 66
1
  0
VERTEX
  8
0
 10
2030
 20
75.000007629394531
 42
-1
  0
VERTEX
  8
0
 10
2030
 20
35.000003814697266
 42
-1
  0
SEQEND
  0
POLYLINE
  8
0
 10
0
 20
0
 39
0
 70
1
 66
1
  0
VERTEX
  8
0
 10
2030
 20
132.75
 42
-1
  0
VERTEX
  8
0
 10
2030
 20
107.25000762939453
 42
-1
  0
SEQEND
  0
POLYLINE
  8
0
 10
0
 20
0
 39
0
 70
1
 66
1
  0
VERTEX
  8
0
 10
2115
 20
1025
 42
0
  0
VERTEX
  8
0
 10
2110.002685546875
 20
565.4893798828125
 42
1.0109343528747559
  0
VERTEX
  8
0
 10
2199.997314453125
 20
565.4893798828125
 42
-0
  0
VERTEX
  8
0
 10
2195
 20
1025
 42
-0
  0
VERTEX
  8
0
 10
2180
 20
1045
 42
0
  0
VERTEX
  8
0
 10
2130
 20
1045
 42
0
  0
SEQEND
  0
POLYLINE
  8
0
 10
0
 20
0
 39
0
 70
1
 66
1
  0
VERTEX
  8
0
 10
2155
 20
1028
 42
-1
  0
VERTEX
  8
0
 10
2155
 20
998
 42
-1
  0
SEQEND
  0
POLYLINE
  8
0
 10
0
 20
0
 39
0
 70
1
 66
1
  0
VERTEX
  8
0
 10
2155
 20
585
 42
-1
  0
VERTEX
  8
0
 10
2155
 20
545
 42
-1
  0
SEQEND
  0
POLYLINE
  8
0
 10
0
 20
0
 39
0
 70
1
 66
1
  0
VERTEX
  8
0
 10
2155
 20
642.75
 42
-1
  0
VERTEX
  8
0
 10
2155
 20
617.25
 42
-1
  0
SEQEND
  0
POLYLINE
  8
0
 10
0
 20
0
 39
0
 70
1
 66
1
  0
VERTEX
  8
0
 10
3350
 20
1249.4549560546875
 42
0.94444441795349121
  0
VERTEX
  8
0
 10
3350
 20
889.4549560546875
 42
0
  0
VERTEX
  8
0
 10
3480
 20
889.4549560546875
 42
0
  0
VERTEX
  8
0
 10
3480
 20
1249.4549560546875
 42
0
  0
SEQEND
  0
POLYLINE
  8
0
 10
0
 20
0
 39
0
 70
1
 66
1
  0
VERTEX
  8
0
 10
3420
 20
1079.9549560546875
 42
-1
  0
VERTEX
  8
0
 10
3420
 20
1058.9549560546875
 42
-1
  0
SEQEND
  0
POLYLINE
  8
0
 10
0
 20
0
 39
0
 70
1
 66
1
  0
VERTEX
  8
0
 10
3300
 20
1069.4549560546875
 42
0.41421356797218323
  0
VERTEX
  8
0
 10
3420
 20
949.4549560546875
 42
-1
  0
VERTEX
  8
0
 10
3420
 20
927.4549560546875
 42
-0.41421356797218323
  0
VERTEX
  8
0
 10
3278
 20
1069.4549560546875
 42
-1
  0
SEQEND
  0
POLYLINE
  8
0
 10
0
 20
0
 39
0
 70
1
 66
1
  0
VERTEX
  8
0
 10
1690
 20
515
 42
0
  0
VERTEX
  8
0
 10
1685.002685546875
 20
55.489353179931641
 42
1.0109343528747559
  0
VERTEX
  8
0
 10
1774.997314453125
 20
55.489353179931641
 42
-0
  0
VERTEX
  8
0
 10
1770
 20
515
 42
-0
  0
VERTEX
  8
0
 10
1755
 20
535
 42
0
  0
VERTEX
  8
0
 10
1705
 20
535
 42
0
  0
SEQEND
  0
POLYLINE
  8
0
 10
0
 20
0
 39
0
 70
1
 66
1
  0
VERTEX
  8
0
 10
1730
 20
518
 42
-1
  0
VERTEX
  8
0
 10
1730
 20
488
 42
-1
  0
SEQEND
  0
POLYLINE
  8
0
 10
0
 20
0
 39
0
 70
1
 66
1
  0
VERTEX
  8
0
 10
1730
 20
75.000007629394531
 42
-1
  0
VERTEX
  8
0
 10
1730
 20
35.000003814697266
 42
-1
  0
SEQEND
  0
POLYLINE
  8
0
 10
0
 20
0
 39
0
 70
1
 66
1
  0
VERTEX
  8
0
 10
1730
 20
132.75
 42
-1
  0
VERTEX
  8
0
 10
1730
 20
107.25000762939453
 42
-1
  0
SEQEND
  0
POLYLINE
  8
0
 10
0
 20
0
 39
0
 70
1
 66
1
  0
VERTEX
  8
0
 10
1790
 20
515
 42
0
  0
VERTEX
  8
0
 10
1785.002685546875
 20
55.489353179931641
 42
1.0109343528747559
  0
VERTEX
  8
0
 10
1874.997314453125
 20
55.489353179931641
 42
-0
  0
VERTEX
  8
0
 10
1870
 20
515
 42
-0
  0
VERTEX
  8
0
 10
1855
 20
535
 42
0
  0
VERTEX
  8
0
 10
1805
 20
535
 42
0
  0
SEQEND
  0
POLYLINE
  8
0
 10
0
 20
0
 39
0
 70
1
 66
1
  0
VERTEX
  8
0
 10
1830
 20
518
 42
-1
  0
VERTEX
  8
0
 10
1830
 20
488
 42
-1
  0
SEQEND
  0
POLYLINE
  8
0
 10
0
 20
0
 39
0
 70
1
 66
1
  0
VERTEX
  8
0
 10
1830
 20
75.000007629394531
 42
-1
  0
VERTEX
  8
0
 10
1830
 20
35.000003814697266
 42
-1
  0
SEQEND
  0
POLYLINE
  8
0
 10
0
 20
0
 39
0
 70
1
 66
1
  0
VERTEX
  8
0
 10
1830
 20
132.75
 42
-1
  0
VERTEX
  8
0
 10
1830
 20
107.25000762939453
 42
-1
  0
SEQEND
  0
POLYLINE
  8
0
 10
0
 20
0
 39
0
 70
1
 66
1
  0
VERTEX
  8
0
 10
1605
 20
1050
 42
0
  0
VERTEX
  8
0
 10
1600.002685546875
 20
590.4893798828125
 42
1.0109343528747559
  0
VERTEX
  8
0
 10
1689.997314453125
 20
590.4893798828125
 42
-0
  0
VERTEX
  8
0
 10
1685
 20
1050
 42
-0
  0
VERTEX
  8
0
 10
1670
 20
1070
 42
0
  0
VERTEX
  8
0
 10
1620
 20
1070
 42
0
  0
SEQEND
  0
POLYLINE
  8
0
 10
0
 20
0
 39
0
 70
1
 66
1
  0
VERTEX
  8
0
 10
1645
 20
1053
 42
-1
  0
VERTEX
  8
0
 10
1645
 20
1023
 42
-1
  0
SEQEND
  0
POLYLINE
  8
0
 10
0
 20
0
 39
0
 70
1
 66
1
  0
VERTEX
  8
0
 10
1645
 20
610
 42
-1
  0
VERTEX
  8
0
 10
1645
 20
570
 42
-1
  0
SEQEND
  0
POLYLINE
  8
0
 10
0
 20
0
 39
0
 70
1
 66
1
  0
VERTEX
  8
0
 10
1645
 20
667.75
 42
-1
  0
VERTEX
  8
0
 10
1645
 20
642.25
 42
-1
  0
SEQEND
  0
POLYLINE
  8
0
 10
0
 20
0
 39
0
 70
1
 66
1
  0
VERTEX
  8
0
 10
3086.246826171875
 20
509.45498657226562
 42
0.069234177470207214
  0
VERTEX
  8
0
 10
3058.23876953125
 20
470.510986328125
 42
0.079816624522209167
  0
VERTEX
  8
0
 10
3046.081787109375
 20
434.78298950195312
 42
0.047521818429231644
  0
VERTEX
  8
0
 10
3045.03076171875
 20
419.25399780273437
 42
-0
  0
VERTEX
  8
0
 10
3068.786865234375
 20
426.62298583984375
 42
-0.38637956976890564
  0
VERTEX
  8
0
 10
3084.6357421875
 20
421.05899047851562
 42
-0.088767781853675842
  0
VERTEX
  8
0
 10
3086.241943359375
 20
415.10897827148437
 42
-0
  0
VERTEX
  8
0
 10
3086.246826171875
 20
333.96099853515625
 42
0.070435717701911926
  0
VERTEX
  8
0
 10
3058.23876953125
 20
295.3909912109375
 42
0.080368667840957642
  0
VERTEX
  8
0
 10
3046.081787109375
 20
259.77499389648437
 42
0.047553077340126038
  0
VERTEX
  8
0
 10
3045.03076171875
 20
244.25399780273437
 42
-0
  0
VERTEX
  8
0
 10
3068.786865234375
 20
251.62298583984375
 42
-0.52468550205230713
  0
VERTEX
  8
0
 10
3086.241943359375
 20
240.10897827148437
 42
-0
  0
VERTEX
  8
0
 10
3086.246826171875
 20
158.50399780273437
 42
0.071582213044166565
  0
VERTEX
  8
0
 10
3058.23876953125
 20
120.27899169921875
 42
0.080889515578746796
  0
VERTEX
  8
0
 10
3046.081787109375
 20
84.767974853515625
 42
0.047581363469362259
  0
VERTEX
  8
0
 10
3045.03076171875
 20
69.253997802734375
 42
-0
  0
VERTEX
  8
0
 10
3068.786865234375
 20
76.62298583984375
 42
-0.52468550205230713
  0
VERTEX
  8
0
 10
3086.241943359375
 20
65.108978271484375
 42
-0
  0
VERTEX
  8
0
 10
3086.287841796875
 20
10
 42
-0
  0
VERTEX
  8
0
 10
3141.287841796875
 20
10
 42
-0
  0
VERTEX
  8
0
 10
3141.287841796875
 20
508.30599975585937
 42
-0
  0
SEQEND
  0
POLYLINE
  8
0
 10
0
 20
0
 39
0
 70
1
 66
1
  0
VERTEX
  8
0
 10
3113.5166015625
 20
458.38296508789063
 42
-1
  0
VERTEX
  8
0
 10
3113.5166015625
 20
446.38296508789063
 42
-1
  0
SEQEND
  0
POLYLINE
  8
0
 10
0
 20
0
 39
0
 70
1
 66
1
  0
VERTEX
  8
0
 10
3113.5166015625
 20
283.86795043945312
 42
-1
  0
VERTEX
  8
0
 10
3113.5166015625
 20
271.86795043945312
 42
-1
  0
SEQEND
  0
POLYLINE
  8
0
 10
0
 20
0
 39
0
 70
1
 66
1
  0
VERTEX
  8
0
 10
3113.517822265625
 20
109.35427856445312
 42
-1
  0
VERTEX
  8
0
 10
3113.517822265625
 20
97.354278564453125
 42
-1
  0
SEQEND
  0
POLYLINE
  8
0
 10
0
 20
0
 39
0
 70
1
 66
1
  0
VERTEX
  8
0
 10
3298.822509765625
 20
509.45498657226562
 42
0.069234177470207214
  0
VERTEX
  8
0
 10
3270.814453125
 20
470.510986328125
 42
0.079816624522209167
  0
VERTEX
  8
0
 10
3258.657470703125
 20
434.78298950195312
 42
0.047521818429231644
  0
VERTEX
  8
0
 10
3257.6064453125
 20
419.25399780273437
 42
-0
  0
VERTEX
  8
0
 10
3281.362548828125
 20
426.62298583984375
 42
-0.38637956976890564
  0
VERTEX
  8
0
 10
3297.21142578125
 20
421.05899047851562
 42
-0.088767781853675842
  0
VERTEX
  8
0
 10
3298.817626953125
 20
415.10897827148437
 42
-0
  0
VERTEX
  8
0
 10
3298.822509765625
 20
333.96099853515625
 42
0.070435717701911926
  0
VERTEX
  8
0
 10
3270.814453125
 20
295.3909912109375
 42
0.080368667840957642
  0
VERTEX
  8
0
 10
3258.657470703125
 20
259.77499389648437
 42
0.047553077340126038
  0
VERTEX
  8
0
 10
3257.6064453125
 20
244.25399780273437
 42
-0
  0
VERTEX
  8
0
 10
3281.362548828125
 20
251.62298583984375
 42
-0.52468550205230713
  0
VERTEX
  8
0
 10
3298.817626953125
 20
240.10897827148437
 42
-0
  0
VERTEX
  8
0
 10
3298.822509765625
 20
158.50399780273437
 42
0.071582213044166565
  0
VERTEX
  8
0
 10
3270.814453125
 20
120.27899169921875
 42
0.080889515578746796
  0
VERTEX
  8
0
 10
3258.657470703125
 20
84.767974853515625
 42
0.047581363469362259
  0
VERTEX
  8
0
 10
3257.6064453125
 20
69.253997802734375
 42
-0
  0
VERTEX
  8
0
 10
3281.362548828125
 20
76.62298583984375
 42
-0.52468550205230713
  0
VERTEX
  8
0
 10
3298.817626953125
 20
65.108978271484375
 42
-0
  0
VERTEX
  8
0
 10
3298.863525390625
 20
10
 42
-0
  0
VERTEX
  8
0
 10
3353.863525390625
 20
10
 42
-0
  0
VERTEX
  8
0
 10
3353.863525390625
 20
508.30599975585937
 42
-0
  0
SEQEND
  0
POLYLINE
  8
0
 10
0
 20
0
 39
0
 70
1
 66
1
  0
VERTEX
  8
0
 10
3326.09228515625
 20
458.38296508789063
 42
-1
  0
VERTEX
  8
0
 10
3326.09228515625
 20
446.38296508789063
 42
-1
  0
SEQEND
  0
POLYLINE
  8
0
 10
0
 20
0
 39
0
 70
1
 66
1
  0
VERTEX
  8
0
 10
3326.09228515625
 20
283.86795043945312
 42
-1
  0
VERTEX
  8
0
 10
3326.09228515625
 20
271.86795043945312
 42
-1
  0
SEQEND
  0
POLYLINE
  8
0
 10
0
 20
0
 39
0
 70
1
 66
1
  0
VERTEX
  8
0
 10
3326.093505859375
 20
109.35427856445312
 42
-1
  0
VERTEX
  8
0
 10
3326.093505859375
 20
97.354278564453125
 42
-1
  0
SEQEND
  0
POLYLINE
  8
0
 10
0
 20
0
 39
0
 70
1
 66
1
  0
VERTEX
  8
0
 10
3192.53466796875
 20
509.45498657226562
 42
0.069234177470207214
  0
VERTEX
  8
0
 10
3164.526611328125
 20
470.510986328125
 42
0.079816624522209167
  0
VERTEX
  8
0
 10
3152.36962890625
 20
434.78298950195312
 42
0.047521818429231644
  0
VERTEX
  8
0
 10
3151.318603515625
 20
419.25399780273437
 42
-0
  0
VERTEX
  8
0
 10
3175.07470703125
 20
426.62298583984375
 42
-0.38637956976890564
  0
VERTEX
  8
0
 10
3190.923583984375
 20
421.05899047851562
 42
-0.088767781853675842
  0
VERTEX
  8
0
 10
3192.52978515625
 20
415.10897827148437
 42
-0
  0
VERTEX
  8
0
 10
3192.53466796875
 20
333.96099853515625
 42
0.070435717701911926
  0
VERTEX
  8
0
 10
3164.526611328125
 20
295.3909912109375
 42
0.080368667840957642
  0
VERTEX
  8
0
 10
3152.36962890625
 20
259.77499389648437
 42
0.047553077340126038
  0
VERTEX
  8
0
 10
3151.318603515625
 20
244.25399780273437
 42
-0
  0
VERTEX
  8
0
 10
3175.07470703125
 20
251.62298583984375
 42
-0.52468550205230713
  0
VERTEX
  8
0
 10
3192.52978515625
 20
240.10897827148437
 42
-0
  0
VERTEX
  8
0
 10
3192.53466796875
 20
158.50399780273437
 42
0.071582213044166565
  0
VERTEX
  8
0
 10
3164.526611328125
 20
120.27899169921875
 42
0.080889515578746796
  0
VERTEX
  8
0
 10
3152.36962890625
 20
84.767974853515625
 42
0.047581363469362259
  0
VERTEX
  8
0
 10
3151.318603515625
 20
69.253997802734375
 42
-0
  0
VERTEX
  8
0
 10
3175.07470703125
 20
76.62298583984375
 42
-0.52468550205230713
  0
VERTEX
  8
0
 10
3192.52978515625
 20
65.108978271484375
 42
-0
  0
VERTEX
  8
0
 10
3192.57568359375
 20
10
 42
-0
  0
VERTEX
  8
0
 10
3247.57568359375
 20
10
 42
-0
  0
VERTEX
  8
0
 10
3247.57568359375
 20
508.30599975585937
 42
-0
  0
SEQEND
  0
POLYLINE
  8
0
 10
0
 20
0
 39
0
 70
1
 66
1
  0
VERTEX
  8
0
 10
3219.804443359375
 20
458.38296508789063
 42
-1
  0
VERTEX
  8
0
 10
3219.804443359375
 20
446.38296508789063
 42
-1
  0
SEQEND
  0
POLYLINE
  8
0
 10
0
 20
0
 39
0
 70
1
 66
1
  0
VERTEX
  8
0
 10
3219.804443359375
 20
283.86795043945312
 42
-1
  0
VERTEX
  8
0
 10
3219.804443359375
 20
271.86795043945312
 42
-1
  0
SEQEND
  0
POLYLINE
  8
0
 10
0
 20
0
 39
0
 70
1
 66
1
  0
VERTEX
  8
0
 10
3219.8056640625
 20
109.35427856445312
 42
-1
  0
VERTEX
  8
0
 10
3219.8056640625
 20
97.354278564453125
 42
-1
  0
SEQEND
  0
POLYLINE
  8
0
 10
0
 20
0
 39
0
 70
1
 66
1
  0
VERTEX
  8
0
 10
1705
 20
1050
 42
0
  0
VERTEX
  8
0
 10
1700.002685546875
 20
590.4893798828125
 42
1.0109343528747559
  0
VERTEX
  8
0
 10
1789.997314453125
 20
590.4893798828125
 42
-0
  0
VERTEX
  8
0
 10
1785
 20
1050
 42
-0
  0
VERTEX
  8
0
 10
1770
 20
1070
 42
0
  0
VERTEX
  8
0
 10
1720
 20
1070
 42
0
  0
SEQEND
  0
POLYLINE
  8
0
 10
0
 20
0
 39
0
 70
1
 66
1
  0
VERTEX
  8
0
 10
1745
 20
1053
 42
-1
  0
VERTEX
  8
0
 10
1745
 20
1023
 42
-1
  0
SEQEND
  0
POLYLINE
  8
0
 10
0
 20
0
 39
0
 70
1
 66
1
  0
VERTEX
  8
0
 10
1745
 20
610
 42
-1
  0
VERTEX
  8
0
 10
1745
 20
570
 42
-1
  0
SEQEND
  0
POLYLINE
  8
0
 10
0
 20
0
 39
0
 70
1
 66
1
  0
VERTEX
  8
0
 10
1745
 20
667.75
 42
-1
  0
VERTEX
  8
0
 10
1745
 20
642.25
 42
-1
  0
SEQEND
  0
POLYLINE
  8
0
 10
0
 20
0
 39
0
 70
1
 66
1
  0
VERTEX
  8
0
 10
1505
 20
1375
 42
0
  0
VERTEX
  8
0
 10
1500.002685546875
 20
915.4893798828125
 42
1.0109343528747559
  0
VERTEX
  8
0
 10
1589.997314453125
 20
915.4893798828125
 42
-0
  0
VERTEX
  8
0
 10
1585
 20
1375
 42
-0
  0
VERTEX
  8
0
 10
1570
 20
1395
 42
0
  0
VERTEX
  8
0
 10
1520
 20
1395
 42
0
  0
SEQEND
  0
POLYLINE
  8
0
 10
0
 20
0
 39
0
 70
1
 66
1
  0
VERTEX
  8
0
 10
1545
 20
1378
 42
-1
  0
VERTEX
  8
0
 10
1545
 20
1348
 42
-1
  0
SEQEND
  0
POLYLINE
  8
0
 10
0
 20
0
 39
0
 70
1
 66
1
  0
VERTEX
  8
0
 10
1545
 20
935
 42
-1
  0
VERTEX
  8
0
 10
1545
 20
895
 42
-1
  0
SEQEND
  0
POLYLINE
  8
0
 10
0
 20
0
 39
0
 70
1
 66
1
  0
VERTEX
  8
0
 10
1545
 20
992.75
 42
-1
  0
VERTEX
  8
0
 10
1545
 20
967.25
 42
-1
  0
SEQEND
  0
POLYLINE
  8
0
 10
0
 20
0
 39
0
 70
1
 66
1
  0
VERTEX
  8
0
 10
3086.246826171875
 20
1018.9099731445312
 42
0.069234177470207214
  0
VERTEX
  8
0
 10
3058.23876953125
 20
979.9659423828125
 42
0.079816624522209167
  0
VERTEX
  8
0
 10
3046.081787109375
 20
944.23797607421875
 42
0.047521818429231644
  0
VERTEX
  8
0
 10
3045.03076171875
 20
928.708984375
 42
-0
  0
VERTEX
  8
0
 10
3068.786865234375
 20
936.0780029296875
 42
-0.38637956976890564
  0
VERTEX
  8
0
 10
3084.6357421875
 20
930.51397705078125
 42
-0.088767781853675842
  0
VERTEX
  8
0
 10
3086.241943359375
 20
924.56396484375
 42
-0
  0
VERTEX
  8
0
 10
3086.246826171875
 20
843.41595458984375
 42
0.070435717701911926
  0
VERTEX
  8
0
 10
3058.23876953125
 20
804.845947265625
 42
0.080368667840957642
  0
VERTEX
  8
0
 10
3046.081787109375
 20
769.22998046875
 42
0.047553077340126038
  0
VERTEX
  8
0
 10
3045.03076171875
 20
753.708984375
 42
-0
  0
VERTEX
  8
0
 10
3068.786865234375
 20
761.0780029296875
 42
-0.52468550205230713
  0
VERTEX
  8
0
 10
3086.241943359375
 20
749.56396484375
 42
-0
  0
VERTEX
  8
0
 10
3086.246826171875
 20
667.958984375
 42
0.071582213044166565
  0
VERTEX
  8
0
 10
3058.23876953125
 20
629.7340087890625
 42
0.080889515578746796
  0
VERTEX
  8
0
 10
3046.081787109375
 20
594.22296142578125
 42
0.047581363469362259
  0
VERTEX
  8
0
 10
3045.03076171875
 20
578.708984375
 42
-0
  0
VERTEX
  8
0
 10
3068.786865234375
 20
586.0780029296875
 42
-0.52468550205230713
  0
VERTEX
  8
0
 10
3086.241943359375
 20
574.56396484375
 42
-0
  0
VERTEX
  8
0
 10
3086.287841796875
 20
519.4549560546875
 42
-0
  0
VERTEX
  8
0
 10
3141.287841796875
 20
519.4549560546875
 42
-0
  0
VERTEX
  8
0
 10
3141.287841796875
 20
1017.760986328125
 42
-0
  0
SEQEND
  0
POLYLINE
  8
0
 10
0
 20
0
 39
0
 70
1
 66
1
  0
VERTEX
  8
0
 10
3113.5166015625
 20
967.83795166015625
 42
-1
  0
VERTEX
  8
0
 10
3113.5166015625
 20
955.83795166015625
 42
-1
  0
SEQEND
  0
POLYLINE
  8
0
 10
0
 20
0
 39
0
 70
1
 66
1
  0
VERTEX
  8
0
 10
3113.5166015625
 20
793.32293701171875
 42
-1
  0
VERTEX
  8
0
 10
3113.5166015625
 20
781.32293701171875
 42
-1
  0
SEQEND
  0
POLYLINE
  8
0
 10
0
 20
0
 39
0
 70
1
 66
1
  0
VERTEX
  8
0
 10
3113.517822265625
 20
618.80926513671875
 42
-1
  0
VERTEX
  8
0
 10
3113.517822265625
 20
606.80926513671875
 42
-1
  0
SEQEND
  0
POLYLINE
  8
0
 10
0
 20
0
 39
0
 70
1
 66
1
  0
VERTEX
  8
0
 10
1620
 20
1315
 42
0
  0
VERTEX
  8
0
 10
2079.5107421875
 20
1310.002685546875
 42
1.0109343528747559
  0
VERTEX
  8
0
 10
2079.5107421875
 20
1399.997314453125
 42
-0
  0
VERTEX
  8
0
 10
1620
 20
1395
 42
-0
  0
VERTEX
  8
0
 10
1600
 20
1380
 42
0
  0
VERTEX
  8
0
 10
1600
 20
1330
 42
0
  0
SEQEND
  0
POLYLINE
  8
0
 10
0
 20
0
 39
0
 70
1
 66
1
  0
VERTEX
  8
0
 10
1617
 20
1355
 42
-1
  0
VERTEX
  8
0
 10
1647
 20
1355
 42
-1
  0
SEQEND
  0
POLYLINE
  8
0
 10
0
 20
0
 39
0
 70
1
 66
1
  0
VERTEX
  8
0
 10
2060
 20
1355
 42
-1
  0
VERTEX
  8
0
 10
2100
 20
1355
 42
-1
  0
SEQEND
  0
POLYLINE
  8
0
 10
0
 20
0
 39
0
 70
1
 66
1
  0
VERTEX
  8
0
 10
2002.25
 20
1355
 42
-1
  0
VERTEX
  8
0
 10
2027.75
 20
1355
 42
-1
  0
SEQEND
  0
POLYLINE
  8
0
 10
0
 20
0
 39
0
 70
1
 66
1
  0
VERTEX
  8
0
 10
2680
 20
1405
 42
0
  0
VERTEX
  8
0
 10
3139.5107421875
 20
1400.002685546875
 42
1.0109343528747559
  0
VERTEX
  8
0
 10
3139.5107421875
 20
1489.997314453125
 42
-0
  0
VERTEX
  8
0
 10
2680
 20
1485
 42
-0
  0
VERTEX
  8
0
 10
2660
 20
1470
 42
0
  0
VERTEX
  8
0
 10
2660
 20
1420
 42
0
  0
SEQEND
  0
POLYLINE
  8
0
 10
0
 20
0
 39
0
 70
1
 66
1
  0
VERTEX
  8
0
 10
2677
 20
1445
 42
-1
  0
VERTEX
  8
0
 10
2707
 20
1445
 42
-1
  0
SEQEND
  0
POLYLINE
  8
0
 10
0
 20
0
 39
0
 70
1
 66
1
  0
VERTEX
  8
0
 10
3120
 20
1445
 42
-1
  0
VERTEX
  8
0
 10
3160
 20
1445
 42
-1
  0
SEQEND
  0
POLYLINE
  8
0
 10
0
 20
0
 39
0
 70
1
 66
1
  0
VERTEX
  8
0
 10
3062.25
 20
1445
 42
-1
  0
VERTEX
  8
0
 10
3087.75
 20
1445
 42
-1
  0
SEQEND
  0
POLYLINE
  8
0
 10
0
 20
0
 39
0
 70
1
 66
1
  0
VERTEX
  8
0
 10
3040
 20
1390
 42
0.94444441795349121
  0
VERTEX
  8
0
 10
3040
 20
1030
 42
0
  0
VERTEX
  8
0
 10
3170
 20
1030
 42
0
  0
VERTEX
  8
0
 10
3170
 20
1390
 42
0
  0
SEQEND
  0
POLYLINE
  8
0
 10
0
 20
0
 39
0
 70
1
 66
1
  0
VERTEX
  8
0
 10
3110
 20
1220.5
 42
-1
  0
VERTEX
  8
0
 10
3110
 20
1199.5
 42
-1
  0
SEQEND
  0
POLYLINE
  8
0
 10
0
 20
0
 39
0
 70
1
 66
1
  0
VERTEX
  8
0
 10
2990
 20
1210
 42
0.41421356797218323
  0
VERTEX
  8
0
 10
3110
 20
1090
 42
-1
  0
VERTEX
  8
0
 10
3110
 20
1068
 42
-0.41421356797218323
  0
VERTEX
  8
0
 10
2968
 20
1210
 42
-1
  0
SEQEND
  0
POLYLINE
  8
0
 10
0
 20
0
 39
0
 70
1
 66
1
  0
VERTEX
  8
0
 10
2215
 20
1025
 42
0
  0
VERTEX
  8
0
 10
2210.002685546875
 20
565.4893798828125
 42
1.0109343528747559
  0
VERTEX
  8
0
 10
2299.997314453125
 20
565.4893798828125
 42
-0
  0
VERTEX
  8
0
 10
2295
 20
1025
 42
-0
  0
VERTEX
  8
0
 10
2280
 20
1045
 42
0
  0
VERTEX
  8
0
 10
2230
 20
1045
 42
0
  0
SEQEND
  0
POLYLINE
  8
0
 10
0
 20
0
 39
0
 70
1
 66
1
  0
VERTEX
  8
0
 10
2255
 20
1028
 42
-1
  0
VERTEX
  8
0
 10
2255
 20
998
 42
-1
  0
SEQEND
  0
POLYLINE
  8
0
 10
0
 20
0
 39
0
 70
1
 66
1
  0
VERTEX
  8
0
 10
2255
 20
585
 42
-1
  0
VERTEX
  8
0
 10
2255
 20
545
 42
-1
  0
SEQEND
  0
POLYLINE
  8
0
 10
0
 20
0
 39
0
 70
1
 66
1
  0
VERTEX
  8
0
 10
2255
 20
642.75
 42
-1
  0
VERTEX
  8
0
 10
2255
 20
617.25
 42
-1
  0
SEQEND
  0
POLYLINE
  8
0
 10
0
 20
0
 39
0
 70
1
 66
1
  0
VERTEX
  8
0
 10
1590
 20
515
 42
0
  0
VERTEX
  8
0
 10
1585.002685546875
 20
55.489353179931641
 42
1.0109343528747559
  0
VERTEX
  8
0
 10
1674.997314453125
 20
55.489353179931641
 42
-0
  0
VERTEX
  8
0
 10
1670
 20
515
 42
-0
  0
VERTEX
  8
0
 10
1655
 20
535
 42
0
  0
VERTEX
  8
0
 10
1605
 20
535
 42
0
  0
SEQEND
  0
POLYLINE
  8
0
 10
0
 20
0
 39
0
 70
1
 66
1
  0
VERTEX
  8
0
 10
1630
 20
518
 42
-1
  0
VERTEX
  8
0
 10
1630
 20
488
 42
-1
  0
SEQEND
  0
POLYLINE
  8
0
 10
0
 20
0
 39
0
 70
1
 66
1
  0
VERTEX
  8
0
 10
1630
 20
75.000007629394531
 42
-1
  0
VERTEX
  8
0
 10
1630
 20
35.000003814697266
 42
-1
  0
SEQEND
  0
POLYLINE
  8
0
 10
0
 20
0
 39
0
 70
1
 66
1
  0
VERTEX
  8
0
 10
1630
 20
132.75
 42
-1
  0
VERTEX
  8
0
 10
1630
 20
107.25000762939453
 42
-1
  0
SEQEND
  0
POLYLINE
  8
0
 10
0
 20
0
 39
0
 70
1
 66
1
  0
VERTEX
  8
0
 10
180
 20
1430
 42
0.94444441795349121
  0
VERTEX
  8
0
 10
179.99998474121094
 20
1070
 42
0
  0
VERTEX
  8
0
 10
310
 20
1070
 42
0
  0
VERTEX
  8
0
 10
310
 20
1430
 42
0
  0
SEQEND
  0
POLYLINE
  8
0
 10
0
 20
0
 39
0
 70
1
 66
1
  0
VERTEX
  8
0
 10
249.99998474121094
 20
1260.5
 42
-1
  0
VERTEX
  8
0
 10
249.99998474121094
 20
1239.5
 42
-1
  0
SEQEND
  0
POLYLINE
  8
0
 10
0
 20
0
 39
0
 70
1
 66
1
  0
VERTEX
  8
0
 10
129.99998474121094
 20
1250
 42
0.41421356797218323
  0
VERTEX
  8
0
 10
249.99998474121094
 20
1130
 42
-1
  0
VERTEX
  8
0
 10
249.99998474121094
 20
1108
 42
-0.41421356797218323
  0
VERTEX
  8
0
 10
107.99998474121094
 20
1250
 42
-1
  0
SEQEND
  0
ENDSEC
  0
EOF
