  0
SECTION
  2
ENTITIES
  0
POLYLINE
  8
0
 10
0
 20
0
 39
0
 70
1
 66
1
  0
VERTEX
  8
0
 10
0
 20
0
 42
-0
  0
VERTEX
  8
0
 10
1500
 20
0
 42
-0
  0
VERTEX
  8
0
 10
1500
 20
900
 42
-0
  0
VERTEX
  8
0
 10
0
 20
900
 42
-0
  0
SEQEND
  0
POLYLINE
  8
0
 10
0
 20
0
 39
0
 70
1
 66
1
  0
VERTEX
  8
0
 10
360.19230769230768
 20
10.192307692307693
 42
-0
  0
VERTEX
  8
0
 10
10.192307692307679
 20
10.192307692307693
 42
0
  0
VERTEX
  8
0
 10
10.192307692307679
 20
98.040589552659256
 42
0.15373215079307556
  0
VERTEX
  8
0
 10
10.192307692307679
 20
347.34401057316705
 42
0
  0
VERTEX
  8
0
 10
10.192307692307679
 20
389.25596736027643
 42
-0
  0
VERTEX
  8
0
 10
56.128648024338929
 20
435.19230769230768
 42
0
  0
VERTEX
  8
0
 10
126.19230769230768
 20
435.19230769230768
 42
0
  0
VERTEX
  8
0
 10
126.19230769230768
 20
400.19230769230768
 42
0
  0
VERTEX
  8
0
 10
166.19230769230768
 20
400.19230769230768
 42
0
  0
VERTEX
  8
0
 10
166.19230769230768
 20
435.19230769230768
 42
0
  0
VERTEX
  8
0
 10
243.19230769230768
 20
435.19230769230768
 42
0
  0
VERTEX
  8
0
 10
243.19230769230768
 20
400.19230769230768
 42
0
  0
VERTEX
  8
0
 10
283.19230769230768
 20
400.19230769230768
 42
0
  0
VERTEX
  8
0
 10
283.19230769230768
 20
435.19230769230768
 42
0
  0
VERTEX
  8
0
 10
360.19230769230768
 20
435.19230769230768
 42
0
  0
SEQEND
  0
POLYLINE
  8
0
 10
0
 20
0
 39
0
 70
1
 66
1
  0
VERTEX
  8
0
 10
330.69230769230768
 20
342.16832087590143
 42
0
  0
VERTEX
  8
0
 10
330.69230769230768
 20
372.16832087590143
 42
0
  0
VERTEX
  8
0
 10
63.692307692307679
 20
372.16832087590143
 42
0
  0
VERTEX
  8
0
 10
63.692307692307679
 20
37.168313246506912
 42
0
  0
VERTEX
  8
0
 10
213.69230769230768
 20
37.168313246506912
 42
0
  0
VERTEX
  8
0
 10
241.21840785099909
 20
108.92438624455379
 42
1
  0
VERTEX
  8
0
 10
257.50832484318659
 20
151.38954279972955
 42
0
  0
VERTEX
  8
0
 10
264.04734919621393
 20
168.43573115422174
 42
1
  0
VERTEX
  8
0
 10
280.33726618840143
 20
210.90089533879205
 42
0
  0
VERTEX
  8
0
 10
286.78856013371393
 20
227.71838496281549
 42
1
  0
VERTEX
  8
0
 10
303.07847712590143
 20
270.1835491473858
 42
0
  0
SEQEND
  0
POLYLINE
  8
0
 10
0
 20
0
 39
0
 70
1
 66
1
  0
VERTEX
  8
0
 10
360.19230769230768
 20
445.30769230769232
 42
-0
  0
VERTEX
  8
0
 10
10.192307692307679
 20
445.30769230769232
 42
0
  0
VERTEX
  8
0
 10
10.192307692307679
 20
533.15597416804394
 42
0.15373215079307556
  0
VERTEX
  8
0
 10
10.192307692307679
 20
782.45939518855175
 42
0
  0
VERTEX
  8
0
 10
10.192307692307679
 20
824.37135197566113
 42
-0
  0
VERTEX
  8
0
 10
56.128648024338929
 20
870.30769230769238
 42
0
  0
VERTEX
  8
0
 10
126.19230769230768
 20
870.30769230769238
 42
0
  0
VERTEX
  8
0
 10
126.19230769230768
 20
835.30769230769238
 42
0
  0
VERTEX
  8
0
 10
166.19230769230768
 20
835.30769230769238
 42
0
  0
VERTEX
  8
0
 10
166.19230769230768
 20
870.30769230769238
 42
0
  0
VERTEX
  8
0
 10
243.19230769230768
 20
870.30769230769238
 42
0
  0
VERTEX
  8
0
 10
243.19230769230768
 20
835.30769230769238
 42
0
  0
VERTEX
  8
0
 10
283.19230769230768
 20
835.30769230769238
 42
0
  0
VERTEX
  8
0
 10
283.19230769230768
 20
870.30769230769238
 42
0
  0
VERTEX
  8
0
 10
360.19230769230768
 20
870.30769230769238
 42
0
  0
SEQEND
  0
POLYLINE
  8
0
 10
0
 20
0
 39
0
 70
1
 66
1
  0
VERTEX
  8
0
 10
330.69230769230768
 20
777.28370549128613
 42
0
  0
VERTEX
  8
0
 10
330.69230769230768
 20
807.28370549128613
 42
0
  0
VERTEX
  8
0
 10
63.692307692307679
 20
807.28370549128613
 42
0
  0
VERTEX
  8
0
 10
63.692307692307679
 20
472.28369786189154
 42
0
  0
VERTEX
  8
0
 10
213.69230769230768
 20
472.28369786189154
 42
0
  0
VERTEX
  8
0
 10
241.21840785099909
 20
544.03977085993847
 42
1
  0
VERTEX
  8
0
 10
257.50832484318659
 20
586.50492741511425
 42
0
  0
VERTEX
  8
0
 10
264.04734919621393
 20
603.55111576960644
 42
1
  0
VERTEX
  8
0
 10
280.33726618840143
 20
646.01627995417675
 42
0
  0
VERTEX
  8
0
 10
286.78856013371393
 20
662.83376957820019
 42
1
  0
VERTEX
  8
0
 10
303.07847712590143
 20
705.2989337627705
 42
0
  0
SEQEND
  0
POLYLINE
  8
0
 10
0
 20
0
 39
0
 70
1
 66
1
  0
VERTEX
  8
0
 10
720.42307692307691
 20
10.192307692307693
 42
-0
  0
VERTEX
  8
0
 10
370.42307692307691
 20
10.192307692307693
 42
0
  0
VERTEX
  8
0
 10
370.42307692307691
 20
98.040589552659256
 42
0.15373215079307556
  0
VERTEX
  8
0
 10
370.42307692307691
 20
347.34401057316705
 42
0
  0
VERTEX
  8
0
 10
370.42307692307691
 20
389.25596736027643
 42
-0
  0
VERTEX
  8
0
 10
416.35941725510816
 20
435.19230769230768
 42
0
  0
VERTEX
  8
0
 10
486.42307692307691
 20
435.19230769230768
 42
0
  0
VERTEX
  8
0
 10
486.42307692307691
 20
400.19230769230768
 42
0
  0
VERTEX
  8
0
 10
526.42307692307691
 20
400.19230769230768
 42
0
  0
VERTEX
  8
0
 10
526.42307692307691
 20
435.19230769230768
 42
0
  0
VERTEX
  8
0
 10
603.42307692307691
 20
435.19230769230768
 42
0
  0
VERTEX
  8
0
 10
603.42307692307691
 20
400.19230769230768
 42
0
  0
VERTEX
  8
0
 10
643.42307692307691
 20
400.19230769230768
 42
0
  0
VERTEX
  8
0
 10
643.42307692307691
 20
435.19230769230768
 42
0
  0
VERTEX
  8
0
 10
720.42307692307691
 20
435.19230769230768
 42
0
  0
SEQEND
  0
POLYLINE
  8
0
 10
0
 20
0
 39
0
 70
1
 66
1
  0
VERTEX
  8
0
 10
690.92307692307691
 20
342.16832087590143
 42
0
  0
VERTEX
  8
0
 10
690.92307692307691
 20
372.16832087590143
 42
0
  0
VERTEX
  8
0
 10
423.92307692307691
 20
372.16832087590143
 42
0
  0
VERTEX
  8
0
 10
423.92307692307691
 20
37.168313246506912
 42
0
  0
VERTEX
  8
0
 10
573.92307692307691
 20
37.168313246506912
 42
0
  0
VERTEX
  8
0
 10
601.44917708176831
 20
108.92438624455379
 42
1
  0
VERTEX
  8
0
 10
617.73909407395581
 20
151.38954279972955
 42
0
  0
VERTEX
  8
0
 10
624.27811842698316
 20
168.43573115422174
 42
1
  0
VERTEX
  8
0
 10
640.56803541917066
 20
210.90089533879205
 42
0
  0
VERTEX
  8
0
 10
647.01932936448316
 20
227.71838496281549
 42
1
  0
VERTEX
  8
0
 10
663.30924635667066
 20
270.1835491473858
 42
0
  0
SEQEND
  0
POLYLINE
  8
0
 10
0
 20
0
 39
0
 70
1
 66
1
  0
VERTEX
  8
0
 10
720.42307692307691
 20
445.30769230769232
 42
-0
  0
VERTEX
  8
0
 10
370.42307692307691
 20
445.30769230769232
 42
0
  0
VERTEX
  8
0
 10
370.42307692307691
 20
533.15597416804394
 42
0.15373215079307556
  0
VERTEX
  8
0
 10
370.42307692307691
 20
782.45939518855175
 42
0
  0
VERTEX
  8
0
 10
370.42307692307691
 20
824.37135197566113
 42
-0
  0
VERTEX
  8
0
 10
416.35941725510816
 20
870.30769230769238
 42
0
  0
VERTEX
  8
0
 10
486.42307692307691
 20
870.30769230769238
 42
0
  0
VERTEX
  8
0
 10
486.42307692307691
 20
835.30769230769238
 42
0
  0
VERTEX
  8
0
 10
526.42307692307691
 20
835.30769230769238
 42
0
  0
VERTEX
  8
0
 10
526.42307692307691
 20
870.30769230769238
 42
0
  0
VERTEX
  8
0
 10
603.42307692307691
 20
870.30769230769238
 42
0
  0
VERTEX
  8
0
 10
603.42307692307691
 20
835.30769230769238
 42
0
  0
VERTEX
  8
0
 10
643.42307692307691
 20
835.30769230769238
 42
0
  0
VERTEX
  8
0
 10
643.42307692307691
 20
870.30769230769238
 42
0
  0
VERTEX
  8
0
 10
720.42307692307691
 20
870.30769230769238
 42
0
  0
SEQEND
  0
POLYLINE
  8
0
 10
0
 20
0
 39
0
 70
1
 66
1
  0
VERTEX
  8
0
 10
690.92307692307691
 20
777.28370549128613
 42
0
  0
VERTEX
  8
0
 10
690.92307692307691
 20
807.28370549128613
 42
0
  0
VERTEX
  8
0
 10
423.92307692307691
 20
807.28370549128613
 42
0
  0
VERTEX
  8
0
 10
423.92307692307691
 20
472.28369786189154
 42
0
  0
VERTEX
  8
0
 10
573.92307692307691
 20
472.28369786189154
 42
0
  0
VERTEX
  8
0
 10
601.44917708176831
 20
544.03977085993847
 42
1
  0
VERTEX
  8
0
 10
617.73909407395581
 20
586.50492741511425
 42
0
  0
VERTEX
  8
0
 10
624.27811842698316
 20
603.55111576960644
 42
1
  0
VERTEX
  8
0
 10
640.56803541917066
 20
646.01627995417675
 42
0
  0
VERTEX
  8
0
 10
647.01932936448316
 20
662.83376957820019
 42
1
  0
VERTEX
  8
0
 10
663.30924635667066
 20
705.2989337627705
 42
0
  0
SEQEND
  0
POLYLINE
  8
0
 10
0
 20
0
 39
0
 70
1
 66
1
  0
VERTEX
  8
0
 10
1080.6538461538462
 20
10.192307692307693
 42
-0
  0
VERTEX
  8
0
 10
730.65384615384619
 20
10.192307692307693
 42
0
  0
VERTEX
  8
0
 10
730.65384615384619
 20
98.040589552659256
 42
0.15373215079307556
  0
VERTEX
  8
0
 10
730.65384615384619
 20
347.34401057316705
 42
0
  0
VERTEX
  8
0
 10
730.65384615384619
 20
389.25596736027643
 42
-0
  0
VERTEX
  8
0
 10
776.59018648587744
 20
435.19230769230768
 42
0
  0
VERTEX
  8
0
 10
846.65384615384619
 20
435.19230769230768
 42
0
  0
VERTEX
  8
0
 10
846.65384615384619
 20
400.19230769230768
 42
0
  0
VERTEX
  8
0
 10
886.65384615384619
 20
400.19230769230768
 42
0
  0
VERTEX
  8
0
 10
886.65384615384619
 20
435.19230769230768
 42
0
  0
VERTEX
  8
0
 10
963.65384615384619
 20
435.19230769230768
 42
0
  0
VERTEX
  8
0
 10
963.65384615384619
 20
400.19230769230768
 42
0
  0
VERTEX
  8
0
 10
1003.6538461538462
 20
400.19230769230768
 42
0
  0
VERTEX
  8
0
 10
1003.6538461538462
 20
435.19230769230768
 42
0
  0
VERTEX
  8
0
 10
1080.6538461538462
 20
435.19230769230768
 42
0
  0
SEQEND
  0
POLYLINE
  8
0
 10
0
 20
0
 39
0
 70
1
 66
1
  0
VERTEX
  8
0
 10
1051.1538461538462
 20
342.16832087590143
 42
0
  0
VERTEX
  8
0
 10
1051.1538461538462
 20
372.16832087590143
 42
0
  0
VERTEX
  8
0
 10
784.15384615384619
 20
372.16832087590143
 42
0
  0
VERTEX
  8
0
 10
784.15384615384619
 20
37.168313246506912
 42
0
  0
VERTEX
  8
0
 10
934.15384615384619
 20
37.168313246506912
 42
0
  0
VERTEX
  8
0
 10
961.6799463125376
 20
108.92438624455379
 42
1
  0
VERTEX
  8
0
 10
977.9698633047251
 20
151.38954279972955
 42
0
  0
VERTEX
  8
0
 10
984.50888765775244
 20
168.43573115422174
 42
1
  0
VERTEX
  8
0
 10
1000.7988046499399
 20
210.90089533879205
 42
0
  0
VERTEX
  8
0
 10
1007.2500985952524
 20
227.71838496281549
 42
1
  0
VERTEX
  8
0
 10
1023.5400155874399
 20
270.1835491473858
 42
0
  0
SEQEND
  0
POLYLINE
  8
0
 10
0
 20
0
 39
0
 70
1
 66
1
  0
VERTEX
  8
0
 10
1080.6538461538462
 20
445.30769230769232
 42
-0
  0
VERTEX
  8
0
 10
730.65384615384619
 20
445.30769230769232
 42
0
  0
VERTEX
  8
0
 10
730.65384615384619
 20
533.15597416804394
 42
0.15373215079307556
  0
VERTEX
  8
0
 10
730.65384615384619
 20
782.45939518855175
 42
0
  0
VERTEX
  8
0
 10
730.65384615384619
 20
824.37135197566113
 42
-0
  0
VERTEX
  8
0
 10
776.59018648587744
 20
870.30769230769238
 42
0
  0
VERTEX
  8
0
 10
846.65384615384619
 20
870.30769230769238
 42
0
  0
VERTEX
  8
0
 10
846.65384615384619
 20
835.30769230769238
 42
0
  0
VERTEX
  8
0
 10
886.65384615384619
 20
835.30769230769238
 42
0
  0
VERTEX
  8
0
 10
886.65384615384619
 20
870.30769230769238
 42
0
  0
VERTEX
  8
0
 10
963.65384615384619
 20
870.30769230769238
 42
0
  0
VERTEX
  8
0
 10
963.65384615384619
 20
835.30769230769238
 42
0
  0
VERTEX
  8
0
 10
1003.6538461538462
 20
835.30769230769238
 42
0
  0
VERTEX
  8
0
 10
1003.6538461538462
 20
870.30769230769238
 42
0
  0
VERTEX
  8
0
 10
1080.6538461538462
 20
870.30769230769238
 42
0
  0
SEQEND
  0
POLYLINE
  8
0
 10
0
 20
0
 39
0
 70
1
 66
1
  0
VERTEX
  8
0
 10
1051.1538461538462
 20
777.28370549128613
 42
0
  0
VERTEX
  8
0
 10
1051.1538461538462
 20
807.28370549128613
 42
0
  0
VERTEX
  8
0
 10
784.15384615384619
 20
807.28370549128613
 42
0
  0
VERTEX
  8
0
 10
784.15384615384619
 20
472.28369786189154
 42
0
  0
VERTEX
  8
0
 10
934.15384615384619
 20
472.28369786189154
 42
0
  0
VERTEX
  8
0
 10
961.6799463125376
 20
544.03977085993847
 42
1
  0
VERTEX
  8
0
 10
977.9698633047251
 20
586.50492741511425
 42
0
  0
VERTEX
  8
0
 10
984.50888765775244
 20
603.55111576960644
 42
1
  0
VERTEX
  8
0
 10
1000.7988046499399
 20
646.01627995417675
 42
0
  0
VERTEX
  8
0
 10
1007.2500985952524
 20
662.83376957820019
 42
1
  0
VERTEX
  8
0
 10
1023.5400155874399
 20
705.2989337627705
 42
0
  0
SEQEND
  0
POLYLINE
  8
0
 10
0
 20
0
 39
0
 70
1
 66
1
  0
VERTEX
  8
0
 10
1440.8846153846155
 20
10.192307692307693
 42
-0
  0
VERTEX
  8
0
 10
1090.8846153846155
 20
10.192307692307693
 42
0
  0
VERTEX
  8
0
 10
1090.8846153846155
 20
98.040589552659256
 42
0.15373215079307556
  0
VERTEX
  8
0
 10
1090.8846153846155
 20
347.34401057316705
 42
0
  0
VERTEX
  8
0
 10
1090.8846153846155
 20
389.25596736027643
 42
-0
  0
VERTEX
  8
0
 10
1136.8209557166467
 20
435.19230769230768
 42
0
  0
VERTEX
  8
0
 10
1206.8846153846155
 20
435.19230769230768
 42
0
  0
VERTEX
  8
0
 10
1206.8846153846155
 20
400.19230769230768
 42
0
  0
VERTEX
  8
0
 10
1246.8846153846155
 20
400.19230769230768
 42
0
  0
VERTEX
  8
0
 10
1246.8846153846155
 20
435.19230769230768
 42
0
  0
VERTEX
  8
0
 10
1323.8846153846155
 20
435.19230769230768
 42
0
  0
VERTEX
  8
0
 10
1323.8846153846155
 20
400.19230769230768
 42
0
  0
VERTEX
  8
0
 10
1363.8846153846155
 20
400.19230769230768
 42
0
  0
VERTEX
  8
0
 10
1363.8846153846155
 20
435.19230769230768
 42
0
  0
VERTEX
  8
0
 10
1440.8846153846155
 20
435.19230769230768
 42
0
  0
SEQEND
  0
POLYLINE
  8
0
 10
0
 20
0
 39
0
 70
1
 66
1
  0
VERTEX
  8
0
 10
1411.3846153846155
 20
342.16832087590143
 42
0
  0
VERTEX
  8
0
 10
1411.3846153846155
 20
372.16832087590143
 42
0
  0
VERTEX
  8
0
 10
1144.3846153846155
 20
372.16832087590143
 42
0
  0
VERTEX
  8
0
 10
1144.3846153846155
 20
37.168313246506912
 42
0
  0
VERTEX
  8
0
 10
1294.3846153846155
 20
37.168313246506912
 42
0
  0
VERTEX
  8
0
 10
1321.9107155433069
 20
108.92438624455379
 42
1
  0
VERTEX
  8
0
 10
1338.2006325354944
 20
151.38954279972955
 42
0
  0
VERTEX
  8
0
 10
1344.7396568885217
 20
168.43573115422174
 42
1
  0
VERTEX
  8
0
 10
1361.0295738807092
 20
210.90089533879205
 42
0
  0
VERTEX
  8
0
 10
1367.4808678260217
 20
227.71838496281549
 42
1
  0
VERTEX
  8
0
 10
1383.7707848182092
 20
270.1835491473858
 42
0
  0
SEQEND
  0
POLYLINE
  8
0
 10
0
 20
0
 39
0
 70
1
 66
1
  0
VERTEX
  8
0
 10
1440.8846153846155
 20
445.30769230769232
 42
-0
  0
VERTEX
  8
0
 10
1090.8846153846155
 20
445.30769230769232
 42
0
  0
VERTEX
  8
0
 10
1090.8846153846155
 20
533.15597416804394
 42
0.15373215079307556
  0
VERTEX
  8
0
 10
1090.8846153846155
 20
782.45939518855175
 42
0
  0
VERTEX
  8
0
 10
1090.8846153846155
 20
824.37135197566113
 42
-0
  0
VERTEX
  8
0
 10
1136.8209557166467
 20
870.30769230769238
 42
0
  0
VERTEX
  8
0
 10
1206.8846153846155
 20
870.30769230769238
 42
0
  0
VERTEX
  8
0
 10
1206.8846153846155
 20
835.30769230769238
 42
0
  0
VERTEX
  8
0
 10
1246.8846153846155
 20
835.30769230769238
 42
0
  0
VERTEX
  8
0
 10
1246.8846153846155
 20
870.30769230769238
 42
0
  0
VERTEX
  8
0
 10
1323.8846153846155
 20
870.30769230769238
 42
0
  0
VERTEX
  8
0
 10
1323.8846153846155
 20
835.30769230769238
 42
0
  0
VERTEX
  8
0
 10
1363.8846153846155
 20
835.30769230769238
 42
0
  0
VERTEX
  8
0
 10
1363.8846153846155
 20
870.30769230769238
 42
0
  0
VERTEX
  8
0
 10
1440.8846153846155
 20
870.30769230769238
 42
0
  0
SEQEND
  0
POLYLINE
  8
0
 10
0
 20
0
 39
0
 70
1
 66
1
  0
VERTEX
  8
0
 10
1411.3846153846155
 20
777.28370549128613
 42
0
  0
VERTEX
  8
0
 10
1411.3846153846155
 20
807.28370549128613
 42
0
  0
VERTEX
  8
0
 10
1144.3846153846155
 20
807.28370549128613
 42
0
  0
VERTEX
  8
0
 10
1144.3846153846155
 20
472.28369786189154
 42
0
  0
VERTEX
  8
0
 10
1294.3846153846155
 20
472.28369786189154
 42
0
  0
VERTEX
  8
0
 10
1321.9107155433069
 20
544.03977085993847
 42
1
  0
VERTEX
  8
0
 10
1338.2006325354944
 20
586.50492741511425
 42
0
  0
VERTEX
  8
0
 10
1344.7396568885217
 20
603.55111576960644
 42
1
  0
VERTEX
  8
0
 10
1361.0295738807092
 20
646.01627995417675
 42
0
  0
VERTEX
  8
0
 10
1367.4808678260217
 20
662.83376957820019
 42
1
  0
VERTEX
  8
0
 10
1383.7707848182092
 20
705.2989337627705
 42
0
  0
SEQEND
  0
POLYLINE
  8
0
 10
0
 20
0
 39
0
 70
1
 66
1
  0
VERTEX
  8
0
 10
166.78821977602121
 20
293.49911614847605
 42
-1
  0
VERTEX
  8
0
 10
165.98100758764696
 20
108.5008804459614
 42
-1
  0
SEQEND
  0
POLYLINE
  8
0
 10
0
 20
0
 39
0
 70
1
 66
1
  0
VERTEX
  8
0
 10
166.722770139126
 20
278.49925919962351
 42
1
  0
VERTEX
  8
0
 10
166.04645722454217
 20
123.50073739481394
 42
1
  0
SEQEND
  0
POLYLINE
  8
0
 10
0
 20
0
 39
0
 70
1
 66
1
  0
VERTEX
  8
0
 10
166.78821977602121
 20
728.61450076386063
 42
-1
  0
VERTEX
  8
0
 10
165.98100758764696
 20
543.61626506134598
 42
-1
  0
SEQEND
  0
POLYLINE
  8
0
 10
0
 20
0
 39
0
 70
1
 66
1
  0
VERTEX
  8
0
 10
166.722770139126
 20
713.61464381500809
 42
1
  0
VERTEX
  8
0
 10
166.04645722454217
 20
558.61612201019852
 42
1
  0
SEQEND
  0
POLYLINE
  8
0
 10
0
 20
0
 39
0
 70
1
 66
1
  0
VERTEX
  8
0
 10
527.01898900679043
 20
293.49911614847605
 42
-1
  0
VERTEX
  8
0
 10
526.21177681841618
 20
108.5008804459614
 42
-1
  0
SEQEND
  0
POLYLINE
  8
0
 10
0
 20
0
 39
0
 70
1
 66
1
  0
VERTEX
  8
0
 10
526.95353936989522
 20
278.49925919962351
 42
1
  0
VERTEX
  8
0
 10
526.27722645531139
 20
123.50073739481394
 42
1
  0
SEQEND
  0
POLYLINE
  8
0
 10
0
 20
0
 39
0
 70
1
 66
1
  0
VERTEX
  8
0
 10
527.01898900679043
 20
728.61450076386063
 42
-1
  0
VERTEX
  8
0
 10
526.21177681841618
 20
543.61626506134598
 42
-1
  0
SEQEND
  0
POLYLINE
  8
0
 10
0
 20
0
 39
0
 70
1
 66
1
  0
VERTEX
  8
0
 10
526.95353936989522
 20
713.61464381500809
 42
1
  0
VERTEX
  8
0
 10
526.27722645531139
 20
558.61612201019852
 42
1
  0
SEQEND
  0
POLYLINE
  8
0
 10
0
 20
0
 39
0
 70
1
 66
1
  0
VERTEX
  8
0
 10
887.24975823755972
 20
293.49911614847605
 42
-1
  0
VERTEX
  8
0
 10
886.44254604918547
 20
108.5008804459614
 42
-1
  0
SEQEND
  0
POLYLINE
  8
0
 10
0
 20
0
 39
0
 70
1
 66
1
  0
VERTEX
  8
0
 10
887.18430860066451
 20
278.49925919962351
 42
1
  0
VERTEX
  8
0
 10
886.50799568608068
 20
123.50073739481394
 42
1
  0
SEQEND
  0
POLYLINE
  8
0
 10
0
 20
0
 39
0
 70
1
 66
1
  0
VERTEX
  8
0
 10
887.24975823755972
 20
728.61450076386063
 42
-1
  0
VERTEX
  8
0
 10
886.44254604918547
 20
543.61626506134598
 42
-1
  0
SEQEND
  0
POLYLINE
  8
0
 10
0
 20
0
 39
0
 70
1
 66
1
  0
VERTEX
  8
0
 10
887.18430860066451
 20
713.61464381500809
 42
1
  0
VERTEX
  8
0
 10
886.50799568608068
 20
558.61612201019852
 42
1
  0
SEQEND
  0
POLYLINE
  8
0
 10
0
 20
0
 39
0
 70
1
 66
1
  0
VERTEX
  8
0
 10
1247.480527468329
 20
293.49911614847605
 42
-1
  0
VERTEX
  8
0
 10
1246.6733152799547
 20
108.5008804459614
 42
-1
  0
SEQEND
  0
POLYLINE
  8
0
 10
0
 20
0
 39
0
 70
1
 66
1
  0
VERTEX
  8
0
 10
1247.4150778314338
 20
278.49925919962351
 42
1
  0
VERTEX
  8
0
 10
1246.73876491685
 20
123.50073739481394
 42
1
  0
SEQEND
  0
POLYLINE
  8
0
 10
0
 20
0
 39
0
 70
1
 66
1
  0
VERTEX
  8
0
 10
1247.480527468329
 20
728.61450076386063
 42
-1
  0
VERTEX
  8
0
 10
1246.6733152799547
 20
543.61626506134598
 42
-1
  0
SEQEND
  0
POLYLINE
  8
0
 10
0
 20
0
 39
0
 70
1
 66
1
  0
VERTEX
  8
0
 10
1247.4150778314338
 20
713.61464381500809
 42
1
  0
VERTEX
  8
0
 10
1246.73876491685
 20
558.61612201019852
 42
1
  0
SEQEND
  0
POLYLINE
  8
0
 10
0
 20
0
 39
0
 70
1
 66
1
  0
VERTEX
  8
0
 10
125.64953554593609
 20
250.84615384615415
 42
-0
  0
VERTEX
  8
0
 10
190.6581567617564
 20
250.84615384615415
 42
-0.66817861795425415
  0
VERTEX
  8
0
 10
192.77947748624371
 20
245.72483121431821
 42
-0
  0
VERTEX
  8
0
 10
190.80317820035503
 20
244.06275235689634
 42
1.0900845527648926
  0
VERTEX
  8
0
 10
201.37044609509991
 20
233.49548398531431
 42
0
  0
VERTEX
  8
0
 10
203.0325259061961
 20
235.47178708590025
 42
-0.66817861795425415
  0
VERTEX
  8
0
 10
208.15384615384625
 20
233.35046445406431
 42
-0
  0
VERTEX
  8
0
 10
208.15384615384625
 20
168.341843238244
 42
-0.66817861795425415
  0
VERTEX
  8
0
 10
203.03252638303326
 20
166.22052251375669
 42
-0
  0
VERTEX
  8
0
 10
201.37044514142559
 20
168.19682179964536
 42
1.0900845527648926
  0
VERTEX
  8
0
 10
190.80317820035503
 20
157.62955390490049
 42
0
  0
VERTEX
  8
0
 10
192.77947748624371
 20
155.9674740938043
 42
-0.66817861795425415
  0
VERTEX
  8
0
 10
190.6581567617564
 20
150.84615384615415
 42
-0
  0
VERTEX
  8
0
 10
125.64953554593609
 20
150.84615384615415
 42
-0.66817861795425415
  0
VERTEX
  8
0
 10
123.52821291410015
 20
155.96747361696714
 42
-0
  0
VERTEX
  8
0
 10
125.50450838529156
 20
157.62955485857481
 42
1.0900845527648926
  0
VERTEX
  8
0
 10
114.93724764310406
 20
168.19682179964536
 42
0
  0
VERTEX
  8
0
 10
113.27516878568218
 20
166.22052251375669
 42
-0.66817861795425415
  0
VERTEX
  8
0
 10
108.15384615384625
 20
168.341843238244
 42
-0
  0
VERTEX
  8
0
 10
108.15384615384625
 20
233.35046445406431
 42
-0.66817861795425415
  0
VERTEX
  8
0
 10
113.27516878568218
 20
235.47178708590025
 42
-0
  0
VERTEX
  8
0
 10
114.93724764310406
 20
233.49549161470884
 42
1.0900845527648926
  0
VERTEX
  8
0
 10
125.50451601468609
 20
244.06275235689634
 42
0
  0
VERTEX
  8
0
 10
123.52821291410015
 20
245.72483121431821
 42
-0.66817861795425415
  0
SEQEND
  0
POLYLINE
  8
0
 10
0
 20
0
 39
0
 70
1
 66
1
  0
VERTEX
  8
0
 10
196.15384615384625
 20
200.84615384615415
 42
1
  0
VERTEX
  8
0
 10
120.15384615384625
 20
200.84615384615415
 42
1
  0
SEQEND
  0
POLYLINE
  8
0
 10
0
 20
0
 39
0
 70
1
 66
1
  0
VERTEX
  8
0
 10
125.64953554593609
 20
685.96153846153879
 42
-0
  0
VERTEX
  8
0
 10
190.6581567617564
 20
685.96153846153879
 42
-0.66817861795425415
  0
VERTEX
  8
0
 10
192.77947748624371
 20
680.84021582970286
 42
-0
  0
VERTEX
  8
0
 10
190.80317820035503
 20
679.17813697228098
 42
1.0900845527648926
  0
VERTEX
  8
0
 10
201.37044609509991
 20
668.61086860069895
 42
0
  0
VERTEX
  8
0
 10
203.0325259061961
 20
670.58717170128489
 42
-0.66817861795425415
  0
VERTEX
  8
0
 10
208.15384615384625
 20
668.46584906944895
 42
-0
  0
VERTEX
  8
0
 10
208.15384615384625
 20
603.45722785362864
 42
-0.66817861795425415
  0
VERTEX
  8
0
 10
203.03252638303326
 20
601.33590712914133
 42
-0
  0
VERTEX
  8
0
 10
201.37044514142559
 20
603.31220641503
 42
1.0900845527648926
  0
VERTEX
  8
0
 10
190.80317820035503
 20
592.74493852028513
 42
0
  0
VERTEX
  8
0
 10
192.77947748624371
 20
591.08285870918894
 42
-0.66817861795425415
  0
VERTEX
  8
0
 10
190.6581567617564
 20
585.96153846153879
 42
-0
  0
VERTEX
  8
0
 10
125.64953554593609
 20
585.96153846153879
 42
-0.66817861795425415
  0
VERTEX
  8
0
 10
123.52821291410015
 20
591.08285823235178
 42
-0
  0
VERTEX
  8
0
 10
125.50450838529156
 20
592.74493947395945
 42
1.0900845527648926
  0
VERTEX
  8
0
 10
114.93724764310406
 20
603.31220641503
 42
0
  0
VERTEX
  8
0
 10
113.27516878568218
 20
601.33590712914133
 42
-0.66817861795425415
  0
VERTEX
  8
0
 10
108.15384615384625
 20
603.45722785362864
 42
-0
  0
VERTEX
  8
0
 10
108.15384615384625
 20
668.46584906944895
 42
-0.66817861795425415
  0
VERTEX
  8
0
 10
113.27516878568218
 20
670.58717170128489
 42
-0
  0
VERTEX
  8
0
 10
114.93724764310406
 20
668.61087623009348
 42
1.0900845527648926
  0
VERTEX
  8
0
 10
125.50451601468609
 20
679.17813697228098
 42
0
  0
VERTEX
  8
0
 10
123.52821291410015
 20
680.84021582970286
 42
-0.66817861795425415
  0
SEQEND
  0
POLYLINE
  8
0
 10
0
 20
0
 39
0
 70
1
 66
1
  0
VERTEX
  8
0
 10
196.15384615384625
 20
635.96153846153879
 42
1
  0
VERTEX
  8
0
 10
120.15384615384625
 20
635.96153846153879
 42
1
  0
SEQEND
  0
POLYLINE
  8
0
 10
0
 20
0
 39
0
 70
1
 66
1
  0
VERTEX
  8
0
 10
485.88030477670532
 20
250.84615384615415
 42
-0
  0
VERTEX
  8
0
 10
550.88892599252563
 20
250.84615384615415
 42
-0.66817861795425415
  0
VERTEX
  8
0
 10
553.01024671701293
 20
245.72483121431821
 42
-0
  0
VERTEX
  8
0
 10
551.03394743112426
 20
244.06275235689634
 42
1.0900845527648926
  0
VERTEX
  8
0
 10
561.60121532586913
 20
233.49548398531431
 42
0
  0
VERTEX
  8
0
 10
563.26329513696533
 20
235.47178708590025
 42
-0.66817861795425415
  0
VERTEX
  8
0
 10
568.38461538461547
 20
233.35046445406431
 42
-0
  0
VERTEX
  8
0
 10
568.38461538461547
 20
168.341843238244
 42
-0.66817861795425415
  0
VERTEX
  8
0
 10
563.26329561380248
 20
166.22052251375669
 42
-0
  0
VERTEX
  8
0
 10
561.60121437219482
 20
168.19682179964536
 42
1.0900845527648926
  0
VERTEX
  8
0
 10
551.03394743112426
 20
157.62955390490049
 42
0
  0
VERTEX
  8
0
 10
553.01024671701293
 20
155.9674740938043
 42
-0.66817861795425415
  0
VERTEX
  8
0
 10
550.88892599252563
 20
150.84615384615415
 42
-0
  0
VERTEX
  8
0
 10
485.88030477670532
 20
150.84615384615415
 42
-0.66817861795425415
  0
VERTEX
  8
0
 10
483.75898214486938
 20
155.96747361696714
 42
-0
  0
VERTEX
  8
0
 10
485.73527761606078
 20
157.62955485857481
 42
1.0900845527648926
  0
VERTEX
  8
0
 10
475.16801687387328
 20
168.19682179964536
 42
0
  0
VERTEX
  8
0
 10
473.50593801645141
 20
166.22052251375669
 42
-0.66817861795425415
  0
VERTEX
  8
0
 10
468.38461538461547
 20
168.341843238244
 42
-0
  0
VERTEX
  8
0
 10
468.38461538461547
 20
233.35046445406431
 42
-0.66817861795425415
  0
VERTEX
  8
0
 10
473.50593801645141
 20
235.47178708590025
 42
-0
  0
VERTEX
  8
0
 10
475.16801687387328
 20
233.49549161470884
 42
1.0900845527648926
  0
VERTEX
  8
0
 10
485.73528524545532
 20
244.06275235689634
 42
0
  0
VERTEX
  8
0
 10
483.75898214486938
 20
245.72483121431821
 42
-0.66817861795425415
  0
SEQEND
  0
POLYLINE
  8
0
 10
0
 20
0
 39
0
 70
1
 66
1
  0
VERTEX
  8
0
 10
556.38461538461547
 20
200.84615384615415
 42
1
  0
VERTEX
  8
0
 10
480.38461538461547
 20
200.84615384615415
 42
1
  0
SEQEND
  0
POLYLINE
  8
0
 10
0
 20
0
 39
0
 70
1
 66
1
  0
VERTEX
  8
0
 10
485.88030477670532
 20
685.96153846153879
 42
-0
  0
VERTEX
  8
0
 10
550.88892599252563
 20
685.96153846153879
 42
-0.66817861795425415
  0
VERTEX
  8
0
 10
553.01024671701293
 20
680.84021582970286
 42
-0
  0
VERTEX
  8
0
 10
551.03394743112426
 20
679.17813697228098
 42
1.0900845527648926
  0
VERTEX
  8
0
 10
561.60121532586913
 20
668.61086860069895
 42
0
  0
VERTEX
  8
0
 10
563.26329513696533
 20
670.58717170128489
 42
-0.66817861795425415
  0
VERTEX
  8
0
 10
568.38461538461547
 20
668.46584906944895
 42
-0
  0
VERTEX
  8
0
 10
568.38461538461547
 20
603.45722785362864
 42
-0.66817861795425415
  0
VERTEX
  8
0
 10
563.26329561380248
 20
601.33590712914133
 42
-0
  0
VERTEX
  8
0
 10
561.60121437219482
 20
603.31220641503
 42
1.0900845527648926
  0
VERTEX
  8
0
 10
551.03394743112426
 20
592.74493852028513
 42
0
  0
VERTEX
  8
0
 10
553.01024671701293
 20
591.08285870918894
 42
-0.66817861795425415
  0
VERTEX
  8
0
 10
550.88892599252563
 20
585.96153846153879
 42
-0
  0
VERTEX
  8
0
 10
485.88030477670532
 20
585.96153846153879
 42
-0.66817861795425415
  0
VERTEX
  8
0
 10
483.75898214486938
 20
591.08285823235178
 42
-0
  0
VERTEX
  8
0
 10
485.73527761606078
 20
592.74493947395945
 42
1.0900845527648926
  0
VERTEX
  8
0
 10
475.16801687387328
 20
603.31220641503
 42
0
  0
VERTEX
  8
0
 10
473.50593801645141
 20
601.33590712914133
 42
-0.66817861795425415
  0
VERTEX
  8
0
 10
468.38461538461547
 20
603.45722785362864
 42
-0
  0
VERTEX
  8
0
 10
468.38461538461547
 20
668.46584906944895
 42
-0.66817861795425415
  0
VERTEX
  8
0
 10
473.50593801645141
 20
670.58717170128489
 42
-0
  0
VERTEX
  8
0
 10
475.16801687387328
 20
668.61087623009348
 42
1.0900845527648926
  0
VERTEX
  8
0
 10
485.73528524545532
 20
679.17813697228098
 42
0
  0
VERTEX
  8
0
 10
483.75898214486938
 20
680.84021582970286
 42
-0.66817861795425415
  0
SEQEND
  0
POLYLINE
  8
0
 10
0
 20
0
 39
0
 70
1
 66
1
  0
VERTEX
  8
0
 10
556.38461538461547
 20
635.96153846153879
 42
1
  0
VERTEX
  8
0
 10
480.38461538461547
 20
635.96153846153879
 42
1
  0
SEQEND
  0
POLYLINE
  8
0
 10
0
 20
0
 39
0
 70
1
 66
1
  0
VERTEX
  8
0
 10
846.1110740074746
 20
250.84615384615415
 42
-0
  0
VERTEX
  8
0
 10
911.11969522329491
 20
250.84615384615415
 42
-0.66817861795425415
  0
VERTEX
  8
0
 10
913.24101594778222
 20
245.72483121431821
 42
-0
  0
VERTEX
  8
0
 10
911.26471666189354
 20
244.06275235689634
 42
1.0900845527648926
  0
VERTEX
  8
0
 10
921.83198455663842
 20
233.49548398531431
 42
0
  0
VERTEX
  8
0
 10
923.49406436773461
 20
235.47178708590025
 42
-0.66817861795425415
  0
VERTEX
  8
0
 10
928.61538461538476
 20
233.35046445406431
 42
-0
  0
VERTEX
  8
0
 10
928.61538461538476
 20
168.341843238244
 42
-0.66817861795425415
  0
VERTEX
  8
0
 10
923.49406484457177
 20
166.22052251375669
 42
-0
  0
VERTEX
  8
0
 10
921.8319836029641
 20
168.19682179964536
 42
1.0900845527648926
  0
VERTEX
  8
0
 10
911.26471666189354
 20
157.62955390490049
 42
0
  0
VERTEX
  8
0
 10
913.24101594778222
 20
155.9674740938043
 42
-0.66817861795425415
  0
VERTEX
  8
0
 10
911.11969522329491
 20
150.84615384615415
 42
-0
  0
VERTEX
  8
0
 10
846.1110740074746
 20
150.84615384615415
 42
-0.66817861795425415
  0
VERTEX
  8
0
 10
843.98975137563866
 20
155.96747361696714
 42
-0
  0
VERTEX
  8
0
 10
845.96604684683007
 20
157.62955485857481
 42
1.0900845527648926
  0
VERTEX
  8
0
 10
835.39878610464257
 20
168.19682179964536
 42
0
  0
VERTEX
  8
0
 10
833.73670724722069
 20
166.22052251375669
 42
-0.66817861795425415
  0
VERTEX
  8
0
 10
828.61538461538476
 20
168.341843238244
 42
-0
  0
VERTEX
  8
0
 10
828.61538461538476
 20
233.35046445406431
 42
-0.66817861795425415
  0
VERTEX
  8
0
 10
833.73670724722069
 20
235.47178708590025
 42
-0
  0
VERTEX
  8
0
 10
835.39878610464257
 20
233.49549161470884
 42
1.0900845527648926
  0
VERTEX
  8
0
 10
845.9660544762246
 20
244.06275235689634
 42
0
  0
VERTEX
  8
0
 10
843.98975137563866
 20
245.72483121431821
 42
-0.66817861795425415
  0
SEQEND
  0
POLYLINE
  8
0
 10
0
 20
0
 39
0
 70
1
 66
1
  0
VERTEX
  8
0
 10
916.61538461538476
 20
200.84615384615415
 42
1
  0
VERTEX
  8
0
 10
840.61538461538476
 20
200.84615384615415
 42
1
  0
SEQEND
  0
POLYLINE
  8
0
 10
0
 20
0
 39
0
 70
1
 66
1
  0
VERTEX
  8
0
 10
846.1110740074746
 20
685.96153846153879
 42
-0
  0
VERTEX
  8
0
 10
911.11969522329491
 20
685.96153846153879
 42
-0.66817861795425415
  0
VERTEX
  8
0
 10
913.24101594778222
 20
680.84021582970286
 42
-0
  0
VERTEX
  8
0
 10
911.26471666189354
 20
679.17813697228098
 42
1.0900845527648926
  0
VERTEX
  8
0
 10
921.83198455663842
 20
668.61086860069895
 42
0
  0
VERTEX
  8
0
 10
923.49406436773461
 20
670.58717170128489
 42
-0.66817861795425415
  0
VERTEX
  8
0
 10
928.61538461538476
 20
668.46584906944895
 42
-0
  0
VERTEX
  8
0
 10
928.61538461538476
 20
603.45722785362864
 42
-0.66817861795425415
  0
VERTEX
  8
0
 10
923.49406484457177
 20
601.33590712914133
 42
-0
  0
VERTEX
  8
0
 10
921.8319836029641
 20
603.31220641503
 42
1.0900845527648926
  0
VERTEX
  8
0
 10
911.26471666189354
 20
592.74493852028513
 42
0
  0
VERTEX
  8
0
 10
913.24101594778222
 20
591.08285870918894
 42
-0.66817861795425415
  0
VERTEX
  8
0
 10
911.11969522329491
 20
585.96153846153879
 42
-0
  0
VERTEX
  8
0
 10
846.1110740074746
 20
585.96153846153879
 42
-0.66817861795425415
  0
VERTEX
  8
0
 10
843.98975137563866
 20
591.08285823235178
 42
-0
  0
VERTEX
  8
0
 10
845.96604684683007
 20
592.74493947395945
 42
1.0900845527648926
  0
VERTEX
  8
0
 10
835.39878610464257
 20
603.31220641503
 42
0
  0
VERTEX
  8
0
 10
833.73670724722069
 20
601.33590712914133
 42
-0.66817861795425415
  0
VERTEX
  8
0
 10
828.61538461538476
 20
603.45722785362864
 42
-0
  0
VERTEX
  8
0
 10
828.61538461538476
 20
668.46584906944895
 42
-0.66817861795425415
  0
VERTEX
  8
0
 10
833.73670724722069
 20
670.58717170128489
 42
-0
  0
VERTEX
  8
0
 10
835.39878610464257
 20
668.61087623009348
 42
1.0900845527648926
  0
VERTEX
  8
0
 10
845.9660544762246
 20
679.17813697228098
 42
0
  0
VERTEX
  8
0
 10
843.98975137563866
 20
680.84021582970286
 42
-0.66817861795425415
  0
SEQEND
  0
POLYLINE
  8
0
 10
0
 20
0
 39
0
 70
1
 66
1
  0
VERTEX
  8
0
 10
916.61538461538476
 20
635.96153846153879
 42
1
  0
VERTEX
  8
0
 10
840.61538461538476
 20
635.96153846153879
 42
1
  0
SEQEND
  0
POLYLINE
  8
0
 10
0
 20
0
 39
0
 70
1
 66
1
  0
VERTEX
  8
0
 10
1206.3418432382439
 20
250.84615384615415
 42
-0
  0
VERTEX
  8
0
 10
1271.3504644540642
 20
250.84615384615415
 42
-0.66817861795425415
  0
VERTEX
  8
0
 10
1273.4717851785515
 20
245.72483121431821
 42
-0
  0
VERTEX
  8
0
 10
1271.4954858926628
 20
244.06275235689634
 42
1.0900845527648926
  0
VERTEX
  8
0
 10
1282.0627537874077
 20
233.49548398531431
 42
0
  0
VERTEX
  8
0
 10
1283.7248335985039
 20
235.47178708590025
 42
-0.66817861795425415
  0
VERTEX
  8
0
 10
1288.846153846154
 20
233.35046445406431
 42
-0
  0
VERTEX
  8
0
 10
1288.846153846154
 20
168.341843238244
 42
-0.66817861795425415
  0
VERTEX
  8
0
 10
1283.7248340753411
 20
166.22052251375669
 42
-0
  0
VERTEX
  8
0
 10
1282.0627528337334
 20
168.19682179964536
 42
1.0900845527648926
  0
VERTEX
  8
0
 10
1271.4954858926628
 20
157.62955390490049
 42
0
  0
VERTEX
  8
0
 10
1273.4717851785515
 20
155.9674740938043
 42
-0.66817861795425415
  0
VERTEX
  8
0
 10
1271.3504644540642
 20
150.84615384615415
 42
-0
  0
VERTEX
  8
0
 10
1206.3418432382439
 20
150.84615384615415
 42
-0.66817861795425415
  0
VERTEX
  8
0
 10
1204.2205206064079
 20
155.96747361696714
 42
-0
  0
VERTEX
  8
0
 10
1206.1968160775994
 20
157.62955485857481
 42
1.0900845527648926
  0
VERTEX
  8
0
 10
1195.6295553354119
 20
168.19682179964536
 42
0
  0
VERTEX
  8
0
 10
1193.96747647799
 20
166.22052251375669
 42
-0.66817861795425415
  0
VERTEX
  8
0
 10
1188.846153846154
 20
168.341843238244
 42
-0
  0
VERTEX
  8
0
 10
1188.846153846154
 20
233.35046445406431
 42
-0.66817861795425415
  0
VERTEX
  8
0
 10
1193.96747647799
 20
235.47178708590025
 42
-0
  0
VERTEX
  8
0
 10
1195.6295553354119
 20
233.49549161470884
 42
1.0900845527648926
  0
VERTEX
  8
0
 10
1206.1968237069939
 20
244.06275235689634
 42
0
  0
VERTEX
  8
0
 10
1204.2205206064079
 20
245.72483121431821
 42
-0.66817861795425415
  0
SEQEND
  0
POLYLINE
  8
0
 10
0
 20
0
 39
0
 70
1
 66
1
  0
VERTEX
  8
0
 10
1276.846153846154
 20
200.84615384615415
 42
1
  0
VERTEX
  8
0
 10
1200.846153846154
 20
200.84615384615415
 42
1
  0
SEQEND
  0
POLYLINE
  8
0
 10
0
 20
0
 39
0
 70
1
 66
1
  0
VERTEX
  8
0
 10
1206.3418432382439
 20
685.96153846153879
 42
-0
  0
VERTEX
  8
0
 10
1271.3504644540642
 20
685.96153846153879
 42
-0.66817861795425415
  0
VERTEX
  8
0
 10
1273.4717851785515
 20
680.84021582970286
 42
-0
  0
VERTEX
  8
0
 10
1271.4954858926628
 20
679.17813697228098
 42
1.0900845527648926
  0
VERTEX
  8
0
 10
1282.0627537874077
 20
668.61086860069895
 42
0
  0
VERTEX
  8
0
 10
1283.7248335985039
 20
670.58717170128489
 42
-0.66817861795425415
  0
VERTEX
  8
0
 10
1288.846153846154
 20
668.46584906944895
 42
-0
  0
VERTEX
  8
0
 10
1288.846153846154
 20
603.45722785362864
 42
-0.66817861795425415
  0
VERTEX
  8
0
 10
1283.7248340753411
 20
601.33590712914133
 42
-0
  0
VERTEX
  8
0
 10
1282.0627528337334
 20
603.31220641503
 42
1.0900845527648926
  0
VERTEX
  8
0
 10
1271.4954858926628
 20
592.74493852028513
 42
0
  0
VERTEX
  8
0
 10
1273.4717851785515
 20
591.08285870918894
 42
-0.66817861795425415
  0
VERTEX
  8
0
 10
1271.3504644540642
 20
585.96153846153879
 42
-0
  0
VERTEX
  8
0
 10
1206.3418432382439
 20
585.96153846153879
 42
-0.66817861795425415
  0
VERTEX
  8
0
 10
1204.2205206064079
 20
591.08285823235178
 42
-0
  0
VERTEX
  8
0
 10
1206.1968160775994
 20
592.74493947395945
 42
1.0900845527648926
  0
VERTEX
  8
0
 10
1195.6295553354119
 20
603.31220641503
 42
0
  0
VERTEX
  8
0
 10
1193.96747647799
 20
601.33590712914133
 42
-0.66817861795425415
  0
VERTEX
  8
0
 10
1188.846153846154
 20
603.45722785362864
 42
-0
  0
VERTEX
  8
0
 10
1188.846153846154
 20
668.46584906944895
 42
-0.66817861795425415
  0
VERTEX
  8
0
 10
1193.96747647799
 20
670.58717170128489
 42
-0
  0
VERTEX
  8
0
 10
1195.6295553354119
 20
668.61087623009348
 42
1.0900845527648926
  0
VERTEX
  8
0
 10
1206.1968237069939
 20
679.17813697228098
 42
0
  0
VERTEX
  8
0
 10
1204.2205206064079
 20
680.84021582970286
 42
-0.66817861795425415
  0
SEQEND
  0
POLYLINE
  8
0
 10
0
 20
0
 39
0
 70
1
 66
1
  0
VERTEX
  8
0
 10
1276.846153846154
 20
635.96153846153879
 42
1
  0
VERTEX
  8
0
 10
1200.846153846154
 20
635.96153846153879
 42
1
  0
SEQEND
  0
POLYLINE
  8
0
 10
0
 20
0
 39
0
 70
1
 66
1
  0
VERTEX
  8
0
 10
273.88461538461536
 20
303.5
 42
-0
  0
VERTEX
  8
0
 10
73.884615384615358
 20
303.5
 42
0
  0
VERTEX
  8
0
 10
73.884615384615358
 20
353.5
 42
0
  0
VERTEX
  8
0
 10
273.88461538461536
 20
353.5
 42
0
  0
SEQEND
  0
POLYLINE
  8
0
 10
0
 20
0
 39
0
 70
1
 66
1
  0
VERTEX
  8
0
 10
237.21129079965442
 20
328.5
 42
1
  0
VERTEX
  8
0
 10
207.21129079965442
 20
328.5
 42
1
  0
SEQEND
  0
POLYLINE
  8
0
 10
0
 20
0
 39
0
 70
1
 66
1
  0
VERTEX
  8
0
 10
273.88461538461536
 20
738.61538461538464
 42
-0
  0
VERTEX
  8
0
 10
73.884615384615358
 20
738.61538461538464
 42
0
  0
VERTEX
  8
0
 10
73.884615384615358
 20
788.61538461538464
 42
0
  0
VERTEX
  8
0
 10
273.88461538461536
 20
788.61538461538464
 42
0
  0
SEQEND
  0
POLYLINE
  8
0
 10
0
 20
0
 39
0
 70
1
 66
1
  0
VERTEX
  8
0
 10
237.21129079965442
 20
763.61538461538464
 42
1
  0
VERTEX
  8
0
 10
207.21129079965442
 20
763.61538461538464
 42
1
  0
SEQEND
  0
POLYLINE
  8
0
 10
0
 20
0
 39
0
 70
1
 66
1
  0
VERTEX
  8
0
 10
634.11538461538464
 20
303.5
 42
-0
  0
VERTEX
  8
0
 10
434.11538461538464
 20
303.5
 42
0
  0
VERTEX
  8
0
 10
434.11538461538464
 20
353.5
 42
0
  0
VERTEX
  8
0
 10
634.11538461538464
 20
353.5
 42
0
  0
SEQEND
  0
POLYLINE
  8
0
 10
0
 20
0
 39
0
 70
1
 66
1
  0
VERTEX
  8
0
 10
597.4420600304237
 20
328.5
 42
1
  0
VERTEX
  8
0
 10
567.4420600304237
 20
328.5
 42
1
  0
SEQEND
  0
POLYLINE
  8
0
 10
0
 20
0
 39
0
 70
1
 66
1
  0
VERTEX
  8
0
 10
634.11538461538464
 20
738.61538461538464
 42
-0
  0
VERTEX
  8
0
 10
434.11538461538464
 20
738.61538461538464
 42
0
  0
VERTEX
  8
0
 10
434.11538461538464
 20
788.61538461538464
 42
0
  0
VERTEX
  8
0
 10
634.11538461538464
 20
788.61538461538464
 42
0
  0
SEQEND
  0
POLYLINE
  8
0
 10
0
 20
0
 39
0
 70
1
 66
1
  0
VERTEX
  8
0
 10
597.4420600304237
 20
763.61538461538464
 42
1
  0
VERTEX
  8
0
 10
567.4420600304237
 20
763.61538461538464
 42
1
  0
SEQEND
  0
POLYLINE
  8
0
 10
0
 20
0
 39
0
 70
1
 66
1
  0
VERTEX
  8
0
 10
994.34615384615392
 20
303.5
 42
-0
  0
VERTEX
  8
0
 10
794.34615384615392
 20
303.5
 42
0
  0
VERTEX
  8
0
 10
794.34615384615392
 20
353.5
 42
0
  0
VERTEX
  8
0
 10
994.34615384615392
 20
353.5
 42
0
  0
SEQEND
  0
POLYLINE
  8
0
 10
0
 20
0
 39
0
 70
1
 66
1
  0
VERTEX
  8
0
 10
957.67282926119299
 20
328.5
 42
1
  0
VERTEX
  8
0
 10
927.67282926119299
 20
328.5
 42
1
  0
SEQEND
  0
POLYLINE
  8
0
 10
0
 20
0
 39
0
 70
1
 66
1
  0
VERTEX
  8
0
 10
994.34615384615392
 20
738.61538461538464
 42
-0
  0
VERTEX
  8
0
 10
794.34615384615392
 20
738.61538461538464
 42
0
  0
VERTEX
  8
0
 10
794.34615384615392
 20
788.61538461538464
 42
0
  0
VERTEX
  8
0
 10
994.34615384615392
 20
788.61538461538464
 42
0
  0
SEQEND
  0
POLYLINE
  8
0
 10
0
 20
0
 39
0
 70
1
 66
1
  0
VERTEX
  8
0
 10
957.67282926119299
 20
763.61538461538464
 42
1
  0
VERTEX
  8
0
 10
927.67282926119299
 20
763.61538461538464
 42
1
  0
SEQEND
  0
POLYLINE
  8
0
 10
0
 20
0
 39
0
 70
1
 66
1
  0
VERTEX
  8
0
 10
1354.5769230769231
 20
303.5
 42
-0
  0
VERTEX
  8
0
 10
1154.5769230769231
 20
303.5
 42
0
  0
VERTEX
  8
0
 10
1154.5769230769231
 20
353.5
 42
0
  0
VERTEX
  8
0
 10
1354.5769230769231
 20
353.5
 42
0
  0
SEQEND
  0
POLYLINE
  8
0
 10
0
 20
0
 39
0
 70
1
 66
1
  0
VERTEX
  8
0
 10
1317.9035984919622
 20
328.5
 42
1
  0
VERTEX
  8
0
 10
1287.9035984919622
 20
328.5
 42
1
  0
SEQEND
  0
POLYLINE
  8
0
 10
0
 20
0
 39
0
 70
1
 66
1
  0
VERTEX
  8
0
 10
1354.5769230769231
 20
738.61538461538464
 42
-0
  0
VERTEX
  8
0
 10
1154.5769230769231
 20
738.61538461538464
 42
0
  0
VERTEX
  8
0
 10
1154.5769230769231
 20
788.61538461538464
 42
0
  0
VERTEX
  8
0
 10
1354.5769230769231
 20
788.61538461538464
 42
0
  0
SEQEND
  0
POLYLINE
  8
0
 10
0
 20
0
 39
0
 70
1
 66
1
  0
VERTEX
  8
0
 10
1317.9035984919622
 20
763.61538461538464
 42
1
  0
VERTEX
  8
0
 10
1287.9035984919622
 20
763.61538461538464
 42
1
  0
SEQEND
  0
POLYLINE
  8
0
 10
0
 20
0
 39
0
 70
1
 66
1
  0
VERTEX
  8
0
 10
173.88461538461539
 20
47.346153846153847
 42
-0
  0
VERTEX
  8
0
 10
73.884615384615387
 20
47.346153846153847
 42
-0
  0
VERTEX
  8
0
 10
73.884615384615387
 20
97.34615384615384
 42
-0
  0
VERTEX
  8
0
 10
173.88461538461539
 20
97.34615384615384
 42
0
  0
SEQEND
  0
POLYLINE
  8
0
 10
0
 20
0
 39
0
 70
1
 66
1
  0
VERTEX
  8
0
 10
150.28665014413687
 20
72.34615384615384
 42
1
  0
VERTEX
  8
0
 10
123.28665014413687
 20
72.34615384615384
 42
1
  0
SEQEND
  0
POLYLINE
  8
0
 10
0
 20
0
 39
0
 70
1
 66
1
  0
VERTEX
  8
0
 10
173.88461538461539
 20
482.46153846153851
 42
-0
  0
VERTEX
  8
0
 10
73.884615384615387
 20
482.46153846153851
 42
-0
  0
VERTEX
  8
0
 10
73.884615384615387
 20
532.46153846153857
 42
-0
  0
VERTEX
  8
0
 10
173.88461538461539
 20
532.46153846153857
 42
0
  0
SEQEND
  0
POLYLINE
  8
0
 10
0
 20
0
 39
0
 70
1
 66
1
  0
VERTEX
  8
0
 10
150.28665014413687
 20
507.46153846153851
 42
1
  0
VERTEX
  8
0
 10
123.28665014413687
 20
507.46153846153851
 42
1
  0
SEQEND
  0
POLYLINE
  8
0
 10
0
 20
0
 39
0
 70
1
 66
1
  0
VERTEX
  8
0
 10
534.11538461538464
 20
47.346153846153847
 42
-0
  0
VERTEX
  8
0
 10
434.11538461538464
 20
47.346153846153847
 42
-0
  0
VERTEX
  8
0
 10
434.11538461538464
 20
97.34615384615384
 42
-0
  0
VERTEX
  8
0
 10
534.11538461538464
 20
97.34615384615384
 42
0
  0
SEQEND
  0
POLYLINE
  8
0
 10
0
 20
0
 39
0
 70
1
 66
1
  0
VERTEX
  8
0
 10
510.51741937490613
 20
72.34615384615384
 42
1
  0
VERTEX
  8
0
 10
483.51741937490613
 20
72.34615384615384
 42
1
  0
SEQEND
  0
POLYLINE
  8
0
 10
0
 20
0
 39
0
 70
1
 66
1
  0
VERTEX
  8
0
 10
534.11538461538464
 20
482.46153846153851
 42
-0
  0
VERTEX
  8
0
 10
434.11538461538464
 20
482.46153846153851
 42
-0
  0
VERTEX
  8
0
 10
434.11538461538464
 20
532.46153846153857
 42
-0
  0
VERTEX
  8
0
 10
534.11538461538464
 20
532.46153846153857
 42
0
  0
SEQEND
  0
POLYLINE
  8
0
 10
0
 20
0
 39
0
 70
1
 66
1
  0
VERTEX
  8
0
 10
510.51741937490613
 20
507.46153846153851
 42
1
  0
VERTEX
  8
0
 10
483.51741937490613
 20
507.46153846153851
 42
1
  0
SEQEND
  0
POLYLINE
  8
0
 10
0
 20
0
 39
0
 70
1
 66
1
  0
VERTEX
  8
0
 10
894.34615384615392
 20
47.346153846153847
 42
-0
  0
VERTEX
  8
0
 10
794.34615384615392
 20
47.346153846153847
 42
-0
  0
VERTEX
  8
0
 10
794.34615384615392
 20
97.34615384615384
 42
-0
  0
VERTEX
  8
0
 10
894.34615384615392
 20
97.34615384615384
 42
0
  0
SEQEND
  0
POLYLINE
  8
0
 10
0
 20
0
 39
0
 70
1
 66
1
  0
VERTEX
  8
0
 10
870.74818860567541
 20
72.34615384615384
 42
1
  0
VERTEX
  8
0
 10
843.74818860567541
 20
72.34615384615384
 42
1
  0
SEQEND
  0
POLYLINE
  8
0
 10
0
 20
0
 39
0
 70
1
 66
1
  0
VERTEX
  8
0
 10
894.34615384615392
 20
482.46153846153851
 42
-0
  0
VERTEX
  8
0
 10
794.34615384615392
 20
482.46153846153851
 42
-0
  0
VERTEX
  8
0
 10
794.34615384615392
 20
532.46153846153857
 42
-0
  0
VERTEX
  8
0
 10
894.34615384615392
 20
532.46153846153857
 42
0
  0
SEQEND
  0
POLYLINE
  8
0
 10
0
 20
0
 39
0
 70
1
 66
1
  0
VERTEX
  8
0
 10
870.74818860567541
 20
507.46153846153851
 42
1
  0
VERTEX
  8
0
 10
843.74818860567541
 20
507.46153846153851
 42
1
  0
SEQEND
  0
POLYLINE
  8
0
 10
0
 20
0
 39
0
 70
1
 66
1
  0
VERTEX
  8
0
 10
1254.5769230769231
 20
47.346153846153847
 42
-0
  0
VERTEX
  8
0
 10
1154.5769230769231
 20
47.346153846153847
 42
-0
  0
VERTEX
  8
0
 10
1154.5769230769231
 20
97.34615384615384
 42
-0
  0
VERTEX
  8
0
 10
1254.5769230769231
 20
97.34615384615384
 42
0
  0
SEQEND
  0
POLYLINE
  8
0
 10
0
 20
0
 39
0
 70
1
 66
1
  0
VERTEX
  8
0
 10
1230.9789578364446
 20
72.34615384615384
 42
1
  0
VERTEX
  8
0
 10
1203.9789578364446
 20
72.34615384615384
 42
1
  0
SEQEND
  0
POLYLINE
  8
0
 10
0
 20
0
 39
0
 70
1
 66
1
  0
VERTEX
  8
0
 10
1254.5769230769231
 20
482.46153846153851
 42
-0
  0
VERTEX
  8
0
 10
1154.5769230769231
 20
482.46153846153851
 42
-0
  0
VERTEX
  8
0
 10
1154.5769230769231
 20
532.46153846153857
 42
-0
  0
VERTEX
  8
0
 10
1254.5769230769231
 20
532.46153846153857
 42
0
  0
SEQEND
  0
POLYLINE
  8
0
 10
0
 20
0
 39
0
 70
1
 66
1
  0
VERTEX
  8
0
 10
1230.9789578364446
 20
507.46153846153851
 42
1
  0
VERTEX
  8
0
 10
1203.9789578364446
 20
507.46153846153851
 42
1
  0
SEQEND
  0
POLYLINE
  8
0
 10
0
 20
0
 39
0
 70
1
 66
1
  0
VERTEX
  8
0
 10
1451.1153846153848
 20
10.192307692307693
 42
-0
  0
VERTEX
  8
0
 10
1451.1153846153848
 20
165.19230769230768
 42
0
  0
VERTEX
  8
0
 10
1456.1153846153848
 20
165.19230769230768
 42
1
  0
VERTEX
  8
0
 10
1476.1153846153848
 20
165.19230769230768
 42
0
  0
VERTEX
  8
0
 10
1481.1153846153848
 20
165.19230769230768
 42
0
  0
VERTEX
  8
0
 10
1481.1153846153848
 20
10.192307692307697
 42
0
  0
SEQEND
  0
POLYLINE
  8
0
 10
0
 20
0
 39
0
 70
1
 66
1
  0
VERTEX
  8
0
 10
1466.1153846153848
 20
26.774670820969803
 42
1
  0
VERTEX
  8
0
 10
1466.1153846153848
 20
46.774670820969803
 42
1
  0
SEQEND
  0
POLYLINE
  8
0
 10
0
 20
0
 39
0
 70
1
 66
1
  0
VERTEX
  8
0
 10
1451.1153846153848
 20
175.30769230769232
 42
-0
  0
VERTEX
  8
0
 10
1451.1153846153848
 20
330.30769230769232
 42
0
  0
VERTEX
  8
0
 10
1456.1153846153848
 20
330.30769230769232
 42
1
  0
VERTEX
  8
0
 10
1476.1153846153848
 20
330.30769230769232
 42
0
  0
VERTEX
  8
0
 10
1481.1153846153848
 20
330.30769230769232
 42
0
  0
VERTEX
  8
0
 10
1481.1153846153848
 20
175.30769230769232
 42
0
  0
SEQEND
  0
POLYLINE
  8
0
 10
0
 20
0
 39
0
 70
1
 66
1
  0
VERTEX
  8
0
 10
1466.1153846153848
 20
191.89005543635443
 42
1
  0
VERTEX
  8
0
 10
1466.1153846153848
 20
211.89005543635443
 42
1
  0
SEQEND
  0
POLYLINE
  8
0
 10
0
 20
0
 39
0
 70
1
 66
1
  0
VERTEX
  8
0
 10
1451.1153846153848
 20
340.42307692307696
 42
-0
  0
VERTEX
  8
0
 10
1451.1153846153848
 20
495.42307692307696
 42
0
  0
VERTEX
  8
0
 10
1456.1153846153848
 20
495.42307692307696
 42
1
  0
VERTEX
  8
0
 10
1476.1153846153848
 20
495.42307692307696
 42
0
  0
VERTEX
  8
0
 10
1481.1153846153848
 20
495.42307692307696
 42
0
  0
VERTEX
  8
0
 10
1481.1153846153848
 20
340.42307692307696
 42
0
  0
SEQEND
  0
POLYLINE
  8
0
 10
0
 20
0
 39
0
 70
1
 66
1
  0
VERTEX
  8
0
 10
1466.1153846153848
 20
357.00544005173907
 42
1
  0
VERTEX
  8
0
 10
1466.1153846153848
 20
377.00544005173907
 42
1
  0
SEQEND
  0
POLYLINE
  8
0
 10
0
 20
0
 39
0
 70
1
 66
1
  0
VERTEX
  8
0
 10
1451.1153846153848
 20
505.53846153846155
 42
-0
  0
VERTEX
  8
0
 10
1451.1153846153848
 20
660.53846153846155
 42
0
  0
VERTEX
  8
0
 10
1456.1153846153848
 20
660.53846153846155
 42
1
  0
VERTEX
  8
0
 10
1476.1153846153848
 20
660.53846153846155
 42
0
  0
VERTEX
  8
0
 10
1481.1153846153848
 20
660.53846153846155
 42
0
  0
VERTEX
  8
0
 10
1481.1153846153848
 20
505.53846153846155
 42
0
  0
SEQEND
  0
POLYLINE
  8
0
 10
0
 20
0
 39
0
 70
1
 66
1
  0
VERTEX
  8
0
 10
1466.1153846153848
 20
522.12082466712366
 42
1
  0
VERTEX
  8
0
 10
1466.1153846153848
 20
542.12082466712366
 42
1
  0
SEQEND
  0
POLYLINE
  8
0
 10
0
 20
0
 39
0
 70
1
 66
1
  0
VERTEX
  8
0
 10
1451.1153846153848
 20
670.65384615384619
 42
-0
  0
VERTEX
  8
0
 10
1451.1153846153848
 20
825.65384615384619
 42
0
  0
VERTEX
  8
0
 10
1456.1153846153848
 20
825.65384615384619
 42
1
  0
VERTEX
  8
0
 10
1476.1153846153848
 20
825.65384615384619
 42
0
  0
VERTEX
  8
0
 10
1481.1153846153848
 20
825.65384615384619
 42
0
  0
VERTEX
  8
0
 10
1481.1153846153848
 20
670.65384615384619
 42
0
  0
SEQEND
  0
POLYLINE
  8
0
 10
0
 20
0
 39
0
 70
1
 66
1
  0
VERTEX
  8
0
 10
1466.1153846153848
 20
687.2362092825083
 42
1
  0
VERTEX
  8
0
 10
1466.1153846153848
 20
707.2362092825083
 42
1
  0
SEQEND
  0
ENDSEC
  0
EOF
