  0
SECTION
  2
ENTITIES
  0
POLYLINE
  8
0
 10
0
 20
0
 39
0
 70
1
 66
1
  0
VERTEX
  8
0
 10
0
 20
0
 42
-0
  0
VERTEX
  8
0
 10
1800
 20
0
 42
-0
  0
VERTEX
  8
0
 10
1800
 20
1000
 42
-0
  0
VERTEX
  8
0
 10
0
 20
1000
 42
-0
  0
SEQEND
  0
POLYLINE
  8
0
 10
0
 20
0
 39
0
 70
1
 66
1
  0
VERTEX
  8
0
 10
430.26153846153852
 20
90.261538461538464
 42
0
  0
VERTEX
  8
0
 10
110.26153846153852
 20
10.261538461538461
 42
-0
  0
VERTEX
  8
0
 10
10.261538461538521
 20
10.261538461538461
 42
-0
  0
VERTEX
  8
0
 10
10.261538461538521
 20
140.26153846153846
 42
0
  0
VERTEX
  8
0
 10
430.26153846153852
 20
337.26153846153846
 42
-0
  0
VERTEX
  8
0
 10
730.26153846153852
 20
337.26153846153846
 42
0
  0
VERTEX
  8
0
 10
1272.2615384615385
 20
140.26153846153846
 42
-0
  0
VERTEX
  8
0
 10
1272.2615384615385
 20
10.261538461538461
 42
-0
  0
VERTEX
  8
0
 10
1172.2615384615385
 20
10.261538461538461
 42
-0
  0
VERTEX
  8
0
 10
730.26153846153852
 20
90.261538461538464
 42
0
  0
SEQEND
  0
POLYLINE
  8
0
 10
0
 20
0
 39
0
 70
1
 66
1
  0
VERTEX
  8
0
 10
1232.2615384615385
 20
90.261538461538464
 42
1
  0
VERTEX
  8
0
 10
1152.2615384615385
 20
90.261538461538464
 42
1
  0
SEQEND
  0
POLYLINE
  8
0
 10
0
 20
0
 39
0
 70
1
 66
1
  0
VERTEX
  8
0
 10
582.26153846153852
 20
210.26153846153846
 42
1
  0
VERTEX
  8
0
 10
502.26153846153852
 20
210.26153846153846
 42
1
  0
SEQEND
  0
POLYLINE
  8
0
 10
0
 20
0
 39
0
 70
1
 66
1
  0
VERTEX
  8
0
 10
128.26153846153852
 20
90.261538461538464
 42
1
  0
VERTEX
  8
0
 10
48.261538461538521
 20
90.261538461538464
 42
1
  0
SEQEND
  0
POLYLINE
  8
0
 10
0
 20
0
 39
0
 70
1
 66
1
  0
VERTEX
  8
0
 10
430.26153846153852
 20
348.07692307692309
 42
0
  0
VERTEX
  8
0
 10
110.26153846153852
 20
268.07692307692309
 42
-0
  0
VERTEX
  8
0
 10
10.261538461538521
 20
268.07692307692309
 42
-0
  0
VERTEX
  8
0
 10
10.261538461538521
 20
398.07692307692309
 42
0
  0
VERTEX
  8
0
 10
430.26153846153852
 20
595.07692307692309
 42
-0
  0
VERTEX
  8
0
 10
730.26153846153852
 20
595.07692307692309
 42
0
  0
VERTEX
  8
0
 10
1272.2615384615385
 20
398.07692307692309
 42
-0
  0
VERTEX
  8
0
 10
1272.2615384615385
 20
268.07692307692309
 42
-0
  0
VERTEX
  8
0
 10
1172.2615384615385
 20
268.07692307692309
 42
-0
  0
VERTEX
  8
0
 10
730.26153846153852
 20
348.07692307692309
 42
0
  0
SEQEND
  0
POLYLINE
  8
0
 10
0
 20
0
 39
0
 70
1
 66
1
  0
VERTEX
  8
0
 10
1232.2615384615385
 20
348.07692307692309
 42
1
  0
VERTEX
  8
0
 10
1152.2615384615385
 20
348.07692307692309
 42
1
  0
SEQEND
  0
POLYLINE
  8
0
 10
0
 20
0
 39
0
 70
1
 66
1
  0
VERTEX
  8
0
 10
582.26153846153852
 20
468.07692307692309
 42
1
  0
VERTEX
  8
0
 10
502.26153846153852
 20
468.07692307692309
 42
1
  0
SEQEND
  0
POLYLINE
  8
0
 10
0
 20
0
 39
0
 70
1
 66
1
  0
VERTEX
  8
0
 10
128.26153846153852
 20
348.07692307692309
 42
1
  0
VERTEX
  8
0
 10
48.261538461538521
 20
348.07692307692309
 42
1
  0
SEQEND
  0
POLYLINE
  8
0
 10
0
 20
0
 39
0
 70
1
 66
1
  0
VERTEX
  8
0
 10
430.26153846153852
 20
605.89230769230767
 42
0
  0
VERTEX
  8
0
 10
110.26153846153852
 20
525.89230769230767
 42
-0
  0
VERTEX
  8
0
 10
10.261538461538521
 20
525.89230769230767
 42
-0
  0
VERTEX
  8
0
 10
10.261538461538521
 20
655.89230769230767
 42
0
  0
VERTEX
  8
0
 10
430.26153846153852
 20
852.89230769230767
 42
-0
  0
VERTEX
  8
0
 10
730.26153846153852
 20
852.89230769230767
 42
0
  0
VERTEX
  8
0
 10
1272.2615384615385
 20
655.89230769230767
 42
-0
  0
VERTEX
  8
0
 10
1272.2615384615385
 20
525.89230769230767
 42
-0
  0
VERTEX
  8
0
 10
1172.2615384615385
 20
525.89230769230767
 42
-0
  0
VERTEX
  8
0
 10
730.26153846153852
 20
605.89230769230767
 42
0
  0
SEQEND
  0
POLYLINE
  8
0
 10
0
 20
0
 39
0
 70
1
 66
1
  0
VERTEX
  8
0
 10
1232.2615384615385
 20
605.89230769230767
 42
1
  0
VERTEX
  8
0
 10
1152.2615384615385
 20
605.89230769230767
 42
1
  0
SEQEND
  0
POLYLINE
  8
0
 10
0
 20
0
 39
0
 70
1
 66
1
  0
VERTEX
  8
0
 10
582.26153846153852
 20
725.89230769230767
 42
1
  0
VERTEX
  8
0
 10
502.26153846153852
 20
725.89230769230767
 42
1
  0
SEQEND
  0
POLYLINE
  8
0
 10
0
 20
0
 39
0
 70
1
 66
1
  0
VERTEX
  8
0
 10
128.26153846153852
 20
605.89230769230767
 42
1
  0
VERTEX
  8
0
 10
48.261538461538521
 20
605.89230769230767
 42
1
  0
SEQEND
  0
POLYLINE
  8
0
 10
0
 20
0
 39
0
 70
1
 66
1
  0
VERTEX
  8
0
 10
320.26153846153846
 20
812.78461538461534
 42
-0
  0
VERTEX
  8
0
 10
10.261538461538482
 20
812.78461538461534
 42
-0
  0
VERTEX
  8
0
 10
10.261538461538461
 20
982.78461538461534
 42
-0
  0
VERTEX
  8
0
 10
385.26153846153846
 20
982.78461538461534
 42
-0
  0
SEQEND
  0
POLYLINE
  8
0
 10
0
 20
0
 39
0
 70
1
 66
1
  0
VERTEX
  8
0
 10
66.261538461538478
 20
857.78461538461534
 42
1
  0
VERTEX
  8
0
 10
84.261538461538478
 20
857.78461538461534
 42
1
  0
SEQEND
  0
POLYLINE
  8
0
 10
0
 20
0
 39
0
 70
1
 66
1
  0
VERTEX
  8
0
 10
248.26153846153849
 20
857.78461538461534
 42
1
  0
VERTEX
  8
0
 10
266.26153846153846
 20
857.78461538461534
 42
1
  0
SEQEND
  0
POLYLINE
  8
0
 10
0
 20
0
 39
0
 70
1
 66
1
  0
VERTEX
  8
0
 10
1161.9692307692308
 20
819.70769230769224
 42
-0
  0
VERTEX
  8
0
 10
851.96923076923076
 20
819.70769230769224
 42
-0
  0
VERTEX
  8
0
 10
851.96923076923076
 20
989.70769230769224
 42
-0
  0
VERTEX
  8
0
 10
1226.9692307692308
 20
989.70769230769224
 42
-0
  0
SEQEND
  0
POLYLINE
  8
0
 10
0
 20
0
 39
0
 70
1
 66
1
  0
VERTEX
  8
0
 10
907.96923076923076
 20
864.70769230769224
 42
1
  0
VERTEX
  8
0
 10
925.96923076923076
 20
864.70769230769224
 42
1
  0
SEQEND
  0
POLYLINE
  8
0
 10
0
 20
0
 39
0
 70
1
 66
1
  0
VERTEX
  8
0
 10
1089.9692307692308
 20
864.70769230769224
 42
1
  0
VERTEX
  8
0
 10
1107.9692307692308
 20
864.70769230769224
 42
1
  0
SEQEND
  0
POLYLINE
  8
0
 10
0
 20
0
 39
0
 70
1
 66
1
  0
VERTEX
  8
0
 10
1238.9692307692308
 20
679.78461538461534
 42
-0
  0
VERTEX
  8
0
 10
1238.9692307692308
 20
989.78461538461534
 42
-0
  0
VERTEX
  8
0
 10
1408.9692307692308
 20
989.78461538461534
 42
-0
  0
VERTEX
  8
0
 10
1408.9692307692308
 20
614.78461538461534
 42
-0
  0
SEQEND
  0
POLYLINE
  8
0
 10
0
 20
0
 39
0
 70
1
 66
1
  0
VERTEX
  8
0
 10
1283.9692307692308
 20
933.78461538461534
 42
1
  0
VERTEX
  8
0
 10
1283.9692307692308
 20
915.78461538461534
 42
1
  0
SEQEND
  0
POLYLINE
  8
0
 10
0
 20
0
 39
0
 70
1
 66
1
  0
VERTEX
  8
0
 10
1283.9692307692308
 20
751.78461538461534
 42
1
  0
VERTEX
  8
0
 10
1283.9692307692308
 20
733.78461538461534
 42
1
  0
SEQEND
  0
POLYLINE
  8
0
 10
0
 20
0
 39
0
 70
1
 66
1
  0
VERTEX
  8
0
 10
1452.4461538461537
 20
320.26153846153846
 42
-0
  0
VERTEX
  8
0
 10
1452.4461538461537
 20
10.261538461538471
 42
-0
  0
VERTEX
  8
0
 10
1282.4461538461537
 20
10.261538461538461
 42
-0
  0
VERTEX
  8
0
 10
1282.4461538461537
 20
385.26153846153846
 42
-0
  0
SEQEND
  0
POLYLINE
  8
0
 10
0
 20
0
 39
0
 70
1
 66
1
  0
VERTEX
  8
0
 10
1407.4461538461537
 20
66.261538461538464
 42
1
  0
VERTEX
  8
0
 10
1407.4461538461537
 20
84.261538461538478
 42
1
  0
SEQEND
  0
POLYLINE
  8
0
 10
0
 20
0
 39
0
 70
1
 66
1
  0
VERTEX
  8
0
 10
1407.4461538461537
 20
248.26153846153846
 42
1
  0
VERTEX
  8
0
 10
1407.4461538461537
 20
266.26153846153846
 42
1
  0
SEQEND
  0
POLYLINE
  8
0
 10
0
 20
0
 39
0
 70
1
 66
1
  0
VERTEX
  8
0
 10
1419.2461538461539
 20
344.15384615384613
 42
-0
  0
VERTEX
  8
0
 10
1419.2461538461539
 20
654.15384615384619
 42
-0
  0
VERTEX
  8
0
 10
1589.2461538461539
 20
654.15384615384619
 42
-0
  0
VERTEX
  8
0
 10
1589.2461538461539
 20
279.15384615384619
 42
-0
  0
SEQEND
  0
POLYLINE
  8
0
 10
0
 20
0
 39
0
 70
1
 66
1
  0
VERTEX
  8
0
 10
1464.2461538461539
 20
598.15384615384619
 42
1
  0
VERTEX
  8
0
 10
1464.2461538461539
 20
580.15384615384619
 42
1
  0
SEQEND
  0
POLYLINE
  8
0
 10
0
 20
0
 39
0
 70
1
 66
1
  0
VERTEX
  8
0
 10
1464.2461538461539
 20
416.15384615384619
 42
1
  0
VERTEX
  8
0
 10
1464.2461538461539
 20
398.15384615384619
 42
1
  0
SEQEND
  0
POLYLINE
  8
0
 10
0
 20
0
 39
0
 70
1
 66
1
  0
VERTEX
  8
0
 10
1551.476923076923
 20
679.78461538461534
 42
-0
  0
VERTEX
  8
0
 10
1551.476923076923
 20
989.78461538461534
 42
-0
  0
VERTEX
  8
0
 10
1721.476923076923
 20
989.78461538461534
 42
-0
  0
VERTEX
  8
0
 10
1721.476923076923
 20
614.78461538461534
 42
-0
  0
SEQEND
  0
POLYLINE
  8
0
 10
0
 20
0
 39
0
 70
1
 66
1
  0
VERTEX
  8
0
 10
1596.476923076923
 20
933.78461538461534
 42
1
  0
VERTEX
  8
0
 10
1596.476923076923
 20
915.78461538461534
 42
1
  0
SEQEND
  0
POLYLINE
  8
0
 10
0
 20
0
 39
0
 70
1
 66
1
  0
VERTEX
  8
0
 10
1596.476923076923
 20
751.78461538461534
 42
1
  0
VERTEX
  8
0
 10
1596.476923076923
 20
733.78461538461534
 42
1
  0
SEQEND
  0
POLYLINE
  8
0
 10
0
 20
0
 39
0
 70
1
 66
1
  0
VERTEX
  8
0
 10
1769.5230769230768
 20
320.26153846153846
 42
-0
  0
VERTEX
  8
0
 10
1769.5230769230768
 20
10.261538461538471
 42
-0
  0
VERTEX
  8
0
 10
1599.5230769230768
 20
10.261538461538461
 42
-0
  0
VERTEX
  8
0
 10
1599.5230769230768
 20
385.26153846153846
 42
-0
  0
SEQEND
  0
POLYLINE
  8
0
 10
0
 20
0
 39
0
 70
1
 66
1
  0
VERTEX
  8
0
 10
1724.5230769230768
 20
66.261538461538464
 42
1
  0
VERTEX
  8
0
 10
1724.5230769230768
 20
84.261538461538478
 42
1
  0
SEQEND
  0
POLYLINE
  8
0
 10
0
 20
0
 39
0
 70
1
 66
1
  0
VERTEX
  8
0
 10
1724.5230769230768
 20
248.26153846153846
 42
1
  0
VERTEX
  8
0
 10
1724.5230769230768
 20
266.26153846153846
 42
1
  0
SEQEND
  0
POLYLINE
  8
0
 10
0
 20
0
 39
0
 70
1
 66
1
  0
VERTEX
  8
0
 10
1599.5230772536931
 20
615.64999061110098
 42
-0
  0
VERTEX
  8
0
 10
1599.523076855771
 20
471.45126471374061
 42
0.26794919371604919
  0
VERTEX
  8
0
 10
1637.0230697374491
 20
406.49936529558028
 42
0
  0
VERTEX
  8
0
 10
1761.9028379958806
 20
334.39999993269413
 42
-0
  0
VERTEX
  8
0
 10
1761.9028383938028
 20
478.59872583005455
 42
0.26794919371604919
  0
VERTEX
  8
0
 10
1724.4028403011514
 20
543.55062664449088
 42
0
  0
SEQEND
  0
POLYLINE
  8
0
 10
0
 20
0
 39
0
 70
1
 66
1
  0
VERTEX
  8
0
 10
1707.8965342086492
 20
427.94166034227106
 42
-1
  0
VERTEX
  8
0
 10
1728.4750807326971
 20
392.29857285643067
 42
-1
  0
SEQEND
  0
POLYLINE
  8
0
 10
0
 20
0
 39
0
 70
1
 66
1
  0
VERTEX
  8
0
 10
1632.9508345168767
 20
557.75141768736444
 42
-1
  0
VERTEX
  8
0
 10
1653.5293810409246
 20
522.10833020152404
 42
-1
  0
SEQEND
  0
POLYLINE
  8
0
 10
0
 20
0
 39
0
 70
1
 66
1
  0
VERTEX
  8
0
 10
1661.9629576247869
 20
507.50094733092811
 42
-1
  0
VERTEX
  8
0
 10
1699.4629576247869
 20
442.54904321286705
 42
-1
  0
SEQEND
  0
POLYLINE
  8
0
 10
0
 20
0
 39
0
 70
1
 66
1
  0
VERTEX
  8
0
 10
1346.4748824525814
 20
372.06153839423257
 42
-0
  0
VERTEX
  8
0
 10
1206.1538460865404
 20
453.07592467476377
 42
-0
  0
VERTEX
  8
0
 10
1206.1538474448876
 20
475.7992340882023
 42
-0
  0
VERTEX
  8
0
 10
1340.1538463513393
 20
553.16417091681558
 42
0
  0
VERTEX
  8
0
 10
1359.4652633427086
 20
542.01471994056044
 42
0
  0
VERTEX
  8
0
 10
1359.4652632761936
 20
379.56153839423257
 42
0
  0
SEQEND
  0
POLYLINE
  8
0
 10
0
 20
0
 39
0
 70
1
 66
1
  0
VERTEX
  8
0
 10
1224.4437926908695
 20
455.18202483250695
 42
1
  0
VERTEX
  8
0
 10
1243.4963545357921
 20
466.18202673985559
 42
1
  0
SEQEND
  0
POLYLINE
  8
0
 10
0
 20
0
 39
0
 70
1
 66
1
  0
VERTEX
  8
0
 10
1329.4437911929829
 20
515.80380332066613
 42
1
  0
VERTEX
  8
0
 10
1348.4963530379055
 20
526.80380522801477
 42
1
  0
SEQEND
  0
POLYLINE
  8
0
 10
0
 20
0
 39
0
 70
1
 66
1
  0
VERTEX
  8
0
 10
1329.4437935937385
 20
394.56024926497537
 42
1
  0
VERTEX
  8
0
 10
1348.4963521350364
 20
405.56024926497537
 42
1
  0
SEQEND
  0
POLYLINE
  8
0
 10
0
 20
0
 39
0
 70
1
 66
1
  0
VERTEX
  8
0
 10
573.07692307692309
 20
30.288145811287851
 42
-0
  0
VERTEX
  8
0
 10
471.37058610182544
 20
30.288145811287851
 42
-0.70781236886978149
  0
VERTEX
  8
0
 10
414.78325242262622
 20
30.288145811287851
 42
-0
  0
VERTEX
  8
0
 10
313.07692307692309
 20
30.288145811287851
 42
0
  0
VERTEX
  8
0
 10
313.07692307692309
 20
50.23493841382691
 42
0
  0
VERTEX
  8
0
 10
414.78325242262622
 20
50.23493841382691
 42
-0.70781236886978149
  0
VERTEX
  8
0
 10
471.37058610182544
 20
50.23493841382691
 42
0
  0
VERTEX
  8
0
 10
573.07692307692309
 20
50.23493841382691
 42
0
  0
SEQEND
  0
POLYLINE
  8
0
 10
0
 20
0
 39
0
 70
1
 66
1
  0
VERTEX
  8
0
 10
458.07692307692309
 20
40.261542112557379
 42
1
  0
VERTEX
  8
0
 10
428.07692307692309
 20
40.261542112557379
 42
1
  0
SEQEND
  0
POLYLINE
  8
0
 10
0
 20
0
 39
0
 70
1
 66
1
  0
VERTEX
  8
0
 10
625.96923076923076
 20
882.93429965744167
 42
-0
  0
VERTEX
  8
0
 10
524.26289379413311
 20
882.93429965744167
 42
-0.70781236886978149
  0
VERTEX
  8
0
 10
467.67556011493389
 20
882.93429965744167
 42
-0
  0
VERTEX
  8
0
 10
365.96923076923076
 20
882.93429965744167
 42
0
  0
VERTEX
  8
0
 10
365.96923076923076
 20
902.88109225998073
 42
0
  0
VERTEX
  8
0
 10
467.67556011493389
 20
902.88109225998073
 42
-0.70781236886978149
  0
VERTEX
  8
0
 10
524.26289379413311
 20
902.88109225998073
 42
0
  0
VERTEX
  8
0
 10
625.96923076923076
 20
902.88109225998073
 42
0
  0
SEQEND
  0
POLYLINE
  8
0
 10
0
 20
0
 39
0
 70
1
 66
1
  0
VERTEX
  8
0
 10
510.96923076923076
 20
892.9076959587112
 42
1
  0
VERTEX
  8
0
 10
480.96923076923076
 20
892.9076959587112
 42
1
  0
SEQEND
  0
POLYLINE
  8
0
 10
0
 20
0
 39
0
 70
1
 66
1
  0
VERTEX
  8
0
 10
651.16923076923081
 20
948.7035304266725
 42
-0
  0
VERTEX
  8
0
 10
549.46289379413315
 20
948.7035304266725
 42
-0.70781236886978149
  0
VERTEX
  8
0
 10
492.87556011493393
 20
948.7035304266725
 42
-0
  0
VERTEX
  8
0
 10
391.16923076923081
 20
948.7035304266725
 42
0
  0
VERTEX
  8
0
 10
391.16923076923081
 20
968.65032302921156
 42
0
  0
VERTEX
  8
0
 10
492.87556011493393
 20
968.65032302921156
 42
-0.70781236886978149
  0
VERTEX
  8
0
 10
549.46289379413315
 20
968.65032302921156
 42
0
  0
VERTEX
  8
0
 10
651.16923076923081
 20
968.65032302921156
 42
0
  0
SEQEND
  0
POLYLINE
  8
0
 10
0
 20
0
 39
0
 70
1
 66
1
  0
VERTEX
  8
0
 10
536.16923076923081
 20
958.67692672794203
 42
1
  0
VERTEX
  8
0
 10
506.16923076923081
 20
958.67692672794203
 42
1
  0
SEQEND
  0
POLYLINE
  8
0
 10
0
 20
0
 39
0
 70
1
 66
1
  0
VERTEX
  8
0
 10
812.47692307692307
 20
913.25737658051855
 42
-0
  0
VERTEX
  8
0
 10
710.77058610182542
 20
913.25737658051855
 42
-0.70781236886978149
  0
VERTEX
  8
0
 10
654.1832524226262
 20
913.25737658051855
 42
-0
  0
VERTEX
  8
0
 10
552.47692307692307
 20
913.25737658051855
 42
0
  0
VERTEX
  8
0
 10
552.47692307692307
 20
933.20416918305762
 42
0
  0
VERTEX
  8
0
 10
654.1832524226262
 20
933.20416918305762
 42
-0.70781236886978149
  0
VERTEX
  8
0
 10
710.77058610182542
 20
933.20416918305762
 42
0
  0
VERTEX
  8
0
 10
812.47692307692307
 20
933.20416918305762
 42
0
  0
SEQEND
  0
POLYLINE
  8
0
 10
0
 20
0
 39
0
 70
1
 66
1
  0
VERTEX
  8
0
 10
697.47692307692307
 20
923.23077288178808
 42
1
  0
VERTEX
  8
0
 10
667.47692307692307
 20
923.23077288178808
 42
1
  0
SEQEND
  0
POLYLINE
  8
0
 10
0
 20
0
 39
0
 70
1
 66
1
  0
VERTEX
  8
0
 10
843.35384615384612
 20
30.288145811287851
 42
-0
  0
VERTEX
  8
0
 10
741.64750917874846
 20
30.288145811287851
 42
-0.70781236886978149
  0
VERTEX
  8
0
 10
685.06017549954925
 20
30.288145811287851
 42
-0
  0
VERTEX
  8
0
 10
583.35384615384612
 20
30.288145811287851
 42
0
  0
VERTEX
  8
0
 10
583.35384615384612
 20
50.23493841382691
 42
0
  0
VERTEX
  8
0
 10
685.06017549954925
 20
50.23493841382691
 42
-0.70781236886978149
  0
VERTEX
  8
0
 10
741.64750917874846
 20
50.23493841382691
 42
0
  0
VERTEX
  8
0
 10
843.35384615384612
 20
50.23493841382691
 42
0
  0
SEQEND
  0
POLYLINE
  8
0
 10
0
 20
0
 39
0
 70
1
 66
1
  0
VERTEX
  8
0
 10
728.35384615384612
 20
40.261542112557379
 42
1
  0
VERTEX
  8
0
 10
698.35384615384612
 20
40.261542112557379
 42
1
  0
SEQEND
  0
POLYLINE
  8
0
 10
0
 20
0
 39
0
 70
1
 66
1
  0
VERTEX
  8
0
 10
1439.2727611959033
 20
664.21538461538455
 42
-0
  0
VERTEX
  8
0
 10
1439.2727611959033
 20
765.92172159048221
 42
-0.70781236886978149
  0
VERTEX
  8
0
 10
1439.2727611959033
 20
822.50905526968143
 42
-0
  0
VERTEX
  8
0
 10
1439.2727611959033
 20
924.21538461538455
 42
0
  0
VERTEX
  8
0
 10
1459.2195537984423
 20
924.21538461538455
 42
0
  0
VERTEX
  8
0
 10
1459.2195537984423
 20
822.50905526968143
 42
-0.70781236886978149
  0
VERTEX
  8
0
 10
1459.2195537984423
 20
765.92172159048221
 42
0
  0
VERTEX
  8
0
 10
1459.2195537984423
 20
664.21538461538455
 42
0
  0
SEQEND
  0
POLYLINE
  8
0
 10
0
 20
0
 39
0
 70
1
 66
1
  0
VERTEX
  8
0
 10
1449.2461574971728
 20
779.21538461538455
 42
1
  0
VERTEX
  8
0
 10
1449.2461574971728
 20
809.21538461538455
 42
1
  0
SEQEND
  0
POLYLINE
  8
0
 10
0
 20
0
 39
0
 70
1
 66
1
  0
VERTEX
  8
0
 10
1482.7496842728262
 20
10.261538461538462
 42
-0
  0
VERTEX
  8
0
 10
1482.7496842728262
 20
111.96787543663612
 42
-0.70781236886978149
  0
VERTEX
  8
0
 10
1482.7496842728262
 20
168.55520911583534
 42
-0
  0
VERTEX
  8
0
 10
1482.7496842728262
 20
270.26153846153846
 42
0
  0
VERTEX
  8
0
 10
1502.6964768753653
 20
270.26153846153846
 42
0
  0
VERTEX
  8
0
 10
1502.6964768753653
 20
168.55520911583534
 42
-0.70781236886978149
  0
VERTEX
  8
0
 10
1502.6964768753653
 20
111.96787543663612
 42
0
  0
VERTEX
  8
0
 10
1502.6964768753653
 20
10.261538461538466
 42
0
  0
SEQEND
  0
POLYLINE
  8
0
 10
0
 20
0
 39
0
 70
1
 66
1
  0
VERTEX
  8
0
 10
1492.7230805740958
 20
125.26153846153846
 42
1
  0
VERTEX
  8
0
 10
1492.7230805740958
 20
155.26153846153846
 42
1
  0
SEQEND
  0
POLYLINE
  8
0
 10
0
 20
0
 39
0
 70
1
 66
1
  0
VERTEX
  8
0
 10
1489.6727611959031
 20
713.36923076923074
 42
-0
  0
VERTEX
  8
0
 10
1489.6727611959031
 20
815.0755677443284
 42
-0.70781236886978149
  0
VERTEX
  8
0
 10
1489.6727611959031
 20
871.66290142352761
 42
-0
  0
VERTEX
  8
0
 10
1489.6727611959031
 20
973.36923076923074
 42
0
  0
VERTEX
  8
0
 10
1509.6195537984422
 20
973.36923076923074
 42
0
  0
VERTEX
  8
0
 10
1509.6195537984422
 20
871.66290142352761
 42
-0.70781236886978149
  0
VERTEX
  8
0
 10
1509.6195537984422
 20
815.0755677443284
 42
0
  0
VERTEX
  8
0
 10
1509.6195537984422
 20
713.36923076923074
 42
0
  0
SEQEND
  0
POLYLINE
  8
0
 10
0
 20
0
 39
0
 70
1
 66
1
  0
VERTEX
  8
0
 10
1499.6461574971727
 20
828.36923076923074
 42
1
  0
VERTEX
  8
0
 10
1499.6461574971727
 20
858.36923076923074
 42
1
  0
SEQEND
  0
POLYLINE
  8
0
 10
0
 20
0
 39
0
 70
1
 66
1
  0
VERTEX
  8
0
 10
10.261538461538468
 20
690.93846153846152
 42
-0
  0
VERTEX
  8
0
 10
10.261538461538462
 20
790.93846153846152
 42
0
  0
VERTEX
  8
0
 10
60.261538461538464
 20
790.93846153846152
 42
0
  0
VERTEX
  8
0
 10
60.261538461538464
 20
690.93846153846152
 42
0
  0
SEQEND
  0
POLYLINE
  8
0
 10
0
 20
0
 39
0
 70
1
 66
1
  0
VERTEX
  8
0
 10
35.261538461538464
 20
711.34452461829551
 42
-0
  0
VERTEX
  8
0
 10
48.261538461538464
 20
711.34452461829551
 42
-0
  0
VERTEX
  8
0
 10
48.261538461538464
 20
770.53240227332481
 42
0
  0
VERTEX
  8
0
 10
35.261538461538464
 20
770.53240227332481
 42
0
  0
VERTEX
  8
0
 10
22.261538461538464
 20
770.53240227332481
 42
0
  0
VERTEX
  8
0
 10
22.261538461538464
 20
711.34452461829551
 42
0
  0
SEQEND
  0
POLYLINE
  8
0
 10
0
 20
0
 39
0
 70
1
 66
1
  0
VERTEX
  8
0
 10
110.26153846153846
 20
198.7076923076923
 42
-0
  0
VERTEX
  8
0
 10
10.261538461538464
 20
198.7076923076923
 42
0
  0
VERTEX
  8
0
 10
10.261538461538464
 20
248.7076923076923
 42
0
  0
VERTEX
  8
0
 10
110.26153846153846
 20
248.7076923076923
 42
0
  0
SEQEND
  0
POLYLINE
  8
0
 10
0
 20
0
 39
0
 70
1
 66
1
  0
VERTEX
  8
0
 10
89.85547538170448
 20
223.7076923076923
 42
-0
  0
VERTEX
  8
0
 10
89.85547538170448
 20
236.7076923076923
 42
-0
  0
VERTEX
  8
0
 10
30.667597726675183
 20
236.7076923076923
 42
0
  0
VERTEX
  8
0
 10
30.667597726675183
 20
223.7076923076923
 42
0
  0
VERTEX
  8
0
 10
30.667597726675183
 20
210.7076923076923
 42
0
  0
VERTEX
  8
0
 10
89.85547538170448
 20
210.7076923076923
 42
0
  0
SEQEND
  0
POLYLINE
  8
0
 10
0
 20
0
 39
0
 70
1
 66
1
  0
VERTEX
  8
0
 10
110.26153846153846
 20
456.52307692307693
 42
-0
  0
VERTEX
  8
0
 10
10.261538461538464
 20
456.52307692307693
 42
0
  0
VERTEX
  8
0
 10
10.261538461538464
 20
506.52307692307693
 42
0
  0
VERTEX
  8
0
 10
110.26153846153846
 20
506.52307692307693
 42
0
  0
SEQEND
  0
POLYLINE
  8
0
 10
0
 20
0
 39
0
 70
1
 66
1
  0
VERTEX
  8
0
 10
89.85547538170448
 20
481.52307692307693
 42
-0
  0
VERTEX
  8
0
 10
89.85547538170448
 20
494.52307692307693
 42
-0
  0
VERTEX
  8
0
 10
30.667597726675183
 20
494.52307692307693
 42
0
  0
VERTEX
  8
0
 10
30.667597726675183
 20
481.52307692307693
 42
0
  0
VERTEX
  8
0
 10
30.667597726675183
 20
468.52307692307693
 42
0
  0
VERTEX
  8
0
 10
89.85547538170448
 20
468.52307692307693
 42
0
  0
SEQEND
  0
POLYLINE
  8
0
 10
0
 20
0
 39
0
 70
1
 66
1
  0
VERTEX
  8
0
 10
170.49230769230769
 20
742.5846153846154
 42
-0
  0
VERTEX
  8
0
 10
70.492307692307691
 20
742.5846153846154
 42
0
  0
VERTEX
  8
0
 10
70.492307692307691
 20
792.5846153846154
 42
0
  0
VERTEX
  8
0
 10
170.49230769230769
 20
792.5846153846154
 42
0
  0
SEQEND
  0
POLYLINE
  8
0
 10
0
 20
0
 39
0
 70
1
 66
1
  0
VERTEX
  8
0
 10
150.08624461247371
 20
767.5846153846154
 42
-0
  0
VERTEX
  8
0
 10
150.08624461247371
 20
780.5846153846154
 42
-0
  0
VERTEX
  8
0
 10
90.898366957444409
 20
780.5846153846154
 42
0
  0
VERTEX
  8
0
 10
90.898366957444409
 20
767.5846153846154
 42
0
  0
VERTEX
  8
0
 10
90.898366957444409
 20
754.5846153846154
 42
0
  0
VERTEX
  8
0
 10
150.08624461247371
 20
754.5846153846154
 42
0
  0
SEQEND
  0
POLYLINE
  8
0
 10
0
 20
0
 39
0
 70
1
 66
1
  0
VERTEX
  8
0
 10
1117.2923076923075
 20
759.61538461538464
 42
-0
  0
VERTEX
  8
0
 10
1017.2923076923075
 20
759.61538461538464
 42
0
  0
VERTEX
  8
0
 10
1017.2923076923075
 20
809.61538461538464
 42
0
  0
VERTEX
  8
0
 10
1117.2923076923075
 20
809.61538461538464
 42
0
  0
SEQEND
  0
POLYLINE
  8
0
 10
0
 20
0
 39
0
 70
1
 66
1
  0
VERTEX
  8
0
 10
1096.8862446124735
 20
784.61538461538464
 42
-0
  0
VERTEX
  8
0
 10
1096.8862446124735
 20
797.61538461538464
 42
-0
  0
VERTEX
  8
0
 10
1037.6983669574443
 20
797.61538461538464
 42
0
  0
VERTEX
  8
0
 10
1037.6983669574443
 20
784.61538461538464
 42
0
  0
VERTEX
  8
0
 10
1037.6983669574443
 20
771.61538461538464
 42
0
  0
VERTEX
  8
0
 10
1096.8862446124735
 20
771.61538461538464
 42
0
  0
SEQEND
  0
POLYLINE
  8
0
 10
0
 20
0
 39
0
 70
1
 66
1
  0
VERTEX
  8
0
 10
1154.9230769230769
 20
709.63076923076926
 42
-0
  0
VERTEX
  8
0
 10
1154.9230769230769
 20
809.63076923076926
 42
0
  0
VERTEX
  8
0
 10
1204.9230769230769
 20
809.63076923076926
 42
0
  0
VERTEX
  8
0
 10
1204.9230769230769
 20
709.63076923076926
 42
0
  0
SEQEND
  0
POLYLINE
  8
0
 10
0
 20
0
 39
0
 70
1
 66
1
  0
VERTEX
  8
0
 10
1179.9230769230769
 20
730.03683231060324
 42
-0
  0
VERTEX
  8
0
 10
1192.9230769230769
 20
730.03683231060324
 42
-0
  0
VERTEX
  8
0
 10
1192.9230769230769
 20
789.22470996563254
 42
0
  0
VERTEX
  8
0
 10
1179.9230769230769
 20
789.22470996563254
 42
0
  0
VERTEX
  8
0
 10
1166.9230769230769
 20
789.22470996563254
 42
0
  0
VERTEX
  8
0
 10
1166.9230769230769
 20
730.03683231060324
 42
0
  0
SEQEND
  0
POLYLINE
  8
0
 10
0
 20
0
 39
0
 70
1
 66
1
  0
VERTEX
  8
0
 10
1216.4307692307693
 20
207.98461538461538
 42
-0
  0
VERTEX
  8
0
 10
1116.4307692307693
 20
207.98461538461538
 42
0
  0
VERTEX
  8
0
 10
1116.4307692307693
 20
257.98461538461538
 42
0
  0
VERTEX
  8
0
 10
1216.4307692307693
 20
257.98461538461538
 42
0
  0
SEQEND
  0
POLYLINE
  8
0
 10
0
 20
0
 39
0
 70
1
 66
1
  0
VERTEX
  8
0
 10
1196.0247061509353
 20
232.98461538461538
 42
-0
  0
VERTEX
  8
0
 10
1196.0247061509353
 20
245.98461538461538
 42
-0
  0
VERTEX
  8
0
 10
1136.836828495906
 20
245.98461538461538
 42
0
  0
VERTEX
  8
0
 10
1136.836828495906
 20
232.98461538461538
 42
0
  0
VERTEX
  8
0
 10
1136.836828495906
 20
219.98461538461538
 42
0
  0
VERTEX
  8
0
 10
1196.0247061509353
 20
219.98461538461538
 42
0
  0
SEQEND
  0
POLYLINE
  8
0
 10
0
 20
0
 39
0
 70
1
 66
1
  0
VERTEX
  8
0
 10
1382.4461538461537
 20
563.27692307692303
 42
-0
  0
VERTEX
  8
0
 10
1282.4461538461537
 20
563.27692307692303
 42
0
  0
VERTEX
  8
0
 10
1282.4461538461537
 20
613.27692307692303
 42
0
  0
VERTEX
  8
0
 10
1382.4461538461537
 20
613.27692307692303
 42
0
  0
SEQEND
  0
POLYLINE
  8
0
 10
0
 20
0
 39
0
 70
1
 66
1
  0
VERTEX
  8
0
 10
1362.0400907663197
 20
588.27692307692303
 42
-0
  0
VERTEX
  8
0
 10
1362.0400907663197
 20
601.27692307692303
 42
-0
  0
VERTEX
  8
0
 10
1302.8522131112904
 20
601.27692307692303
 42
0
  0
VERTEX
  8
0
 10
1302.8522131112904
 20
588.27692307692303
 42
0
  0
VERTEX
  8
0
 10
1302.8522131112904
 20
575.27692307692303
 42
0
  0
VERTEX
  8
0
 10
1362.0400907663197
 20
575.27692307692303
 42
0
  0
SEQEND
  0
POLYLINE
  8
0
 10
0
 20
0
 39
0
 70
1
 66
1
  0
VERTEX
  8
0
 10
1512.8461538461538
 20
175.30769230769229
 42
-0
  0
VERTEX
  8
0
 10
1512.8461538461538
 20
275.30769230769226
 42
0
  0
VERTEX
  8
0
 10
1562.8461538461538
 20
275.30769230769226
 42
0
  0
VERTEX
  8
0
 10
1562.8461538461538
 20
175.30769230769229
 42
0
  0
SEQEND
  0
POLYLINE
  8
0
 10
0
 20
0
 39
0
 70
1
 66
1
  0
VERTEX
  8
0
 10
1537.8461538461538
 20
195.71375538752628
 42
-0
  0
VERTEX
  8
0
 10
1550.8461538461538
 20
195.71375538752628
 42
-0
  0
VERTEX
  8
0
 10
1550.8461538461538
 20
254.90163304255557
 42
0
  0
VERTEX
  8
0
 10
1537.8461538461538
 20
254.90163304255557
 42
0
  0
VERTEX
  8
0
 10
1524.8461538461538
 20
254.90163304255557
 42
0
  0
VERTEX
  8
0
 10
1524.8461538461538
 20
195.71375538752628
 42
0
  0
SEQEND
  0
POLYLINE
  8
0
 10
0
 20
0
 39
0
 70
1
 66
1
  0
VERTEX
  8
0
 10
1519.7692307692307
 20
10.261538461538461
 42
-0
  0
VERTEX
  8
0
 10
1519.7692307692307
 20
110.26153846153846
 42
0
  0
VERTEX
  8
0
 10
1569.7692307692307
 20
110.26153846153846
 42
0
  0
VERTEX
  8
0
 10
1569.7692307692307
 20
10.261538461538466
 42
0
  0
SEQEND
  0
POLYLINE
  8
0
 10
0
 20
0
 39
0
 70
1
 66
1
  0
VERTEX
  8
0
 10
1544.7692307692307
 20
30.667601541372445
 42
-0
  0
VERTEX
  8
0
 10
1557.7692307692307
 20
30.667601541372449
 42
-0
  0
VERTEX
  8
0
 10
1557.7692307692307
 20
89.855479196401745
 42
0
  0
VERTEX
  8
0
 10
1544.7692307692307
 20
89.855479196401745
 42
0
  0
VERTEX
  8
0
 10
1531.7692307692307
 20
89.855479196401745
 42
0
  0
VERTEX
  8
0
 10
1531.7692307692307
 20
30.667601541372445
 42
0
  0
SEQEND
  0
POLYLINE
  8
0
 10
0
 20
0
 39
0
 70
1
 66
1
  0
VERTEX
  8
0
 10
1731.7538461538461
 20
551.36923076923074
 42
-0
  0
VERTEX
  8
0
 10
1731.7538461538461
 20
651.36923076923074
 42
0
  0
VERTEX
  8
0
 10
1781.7538461538461
 20
651.36923076923074
 42
0
  0
VERTEX
  8
0
 10
1781.7538461538461
 20
551.36923076923074
 42
0
  0
SEQEND
  0
POLYLINE
  8
0
 10
0
 20
0
 39
0
 70
1
 66
1
  0
VERTEX
  8
0
 10
1756.7538461538461
 20
571.77529384906472
 42
-0
  0
VERTEX
  8
0
 10
1769.7538461538461
 20
571.77529384906472
 42
-0
  0
VERTEX
  8
0
 10
1769.7538461538461
 20
630.96317150409402
 42
0
  0
VERTEX
  8
0
 10
1756.7538461538461
 20
630.96317150409402
 42
0
  0
VERTEX
  8
0
 10
1743.7538461538461
 20
630.96317150409402
 42
0
  0
VERTEX
  8
0
 10
1743.7538461538461
 20
571.77529384906472
 42
0
  0
SEQEND
  0
POLYLINE
  8
0
 10
0
 20
0
 39
0
 70
1
 66
1
  0
VERTEX
  8
0
 10
1731.7538461538461
 20
661.44615384615383
 42
-0
  0
VERTEX
  8
0
 10
1731.7538461538461
 20
761.44615384615383
 42
0
  0
VERTEX
  8
0
 10
1781.7538461538461
 20
761.44615384615383
 42
0
  0
VERTEX
  8
0
 10
1781.7538461538461
 20
661.44615384615383
 42
0
  0
SEQEND
  0
POLYLINE
  8
0
 10
0
 20
0
 39
0
 70
1
 66
1
  0
VERTEX
  8
0
 10
1756.7538461538461
 20
681.85221692598782
 42
-0
  0
VERTEX
  8
0
 10
1769.7538461538461
 20
681.85221692598782
 42
-0
  0
VERTEX
  8
0
 10
1769.7538461538461
 20
741.04009458101712
 42
0
  0
VERTEX
  8
0
 10
1756.7538461538461
 20
741.04009458101712
 42
0
  0
VERTEX
  8
0
 10
1743.7538461538461
 20
741.04009458101712
 42
0
  0
VERTEX
  8
0
 10
1743.7538461538461
 20
681.85221692598782
 42
0
  0
SEQEND
  0
POLYLINE
  8
0
 10
0
 20
0
 39
0
 70
1
 66
1
  0
VERTEX
  8
0
 10
1731.7538461538461
 20
771.52307692307693
 42
-0
  0
VERTEX
  8
0
 10
1731.7538461538461
 20
871.52307692307693
 42
0
  0
VERTEX
  8
0
 10
1781.7538461538461
 20
871.52307692307693
 42
0
  0
VERTEX
  8
0
 10
1781.7538461538461
 20
771.52307692307693
 42
0
  0
SEQEND
  0
POLYLINE
  8
0
 10
0
 20
0
 39
0
 70
1
 66
1
  0
VERTEX
  8
0
 10
1756.7538461538461
 20
791.92914000291091
 42
-0
  0
VERTEX
  8
0
 10
1769.7538461538461
 20
791.92914000291091
 42
-0
  0
VERTEX
  8
0
 10
1769.7538461538461
 20
851.11701765794021
 42
0
  0
VERTEX
  8
0
 10
1756.7538461538461
 20
851.11701765794021
 42
0
  0
VERTEX
  8
0
 10
1743.7538461538461
 20
851.11701765794021
 42
0
  0
VERTEX
  8
0
 10
1743.7538461538461
 20
791.92914000291091
 42
0
  0
SEQEND
  0
POLYLINE
  8
0
 10
0
 20
0
 39
0
 70
1
 66
1
  0
VERTEX
  8
0
 10
1731.7538461538461
 20
881.60000000000002
 42
-0
  0
VERTEX
  8
0
 10
1731.7538461538461
 20
981.60000000000002
 42
0
  0
VERTEX
  8
0
 10
1781.7538461538461
 20
981.60000000000002
 42
0
  0
VERTEX
  8
0
 10
1781.7538461538461
 20
881.60000000000002
 42
0
  0
SEQEND
  0
POLYLINE
  8
0
 10
0
 20
0
 39
0
 70
1
 66
1
  0
VERTEX
  8
0
 10
1756.7538461538461
 20
902.00606307983401
 42
-0
  0
VERTEX
  8
0
 10
1769.7538461538461
 20
902.00606307983401
 42
-0
  0
VERTEX
  8
0
 10
1769.7538461538461
 20
961.1939407348633
 42
0
  0
VERTEX
  8
0
 10
1756.7538461538461
 20
961.1939407348633
 42
0
  0
VERTEX
  8
0
 10
1743.7538461538461
 20
961.1939407348633
 42
0
  0
VERTEX
  8
0
 10
1743.7538461538461
 20
902.00606307983401
 42
0
  0
SEQEND
  0
ENDSEC
  0
EOF
