  0
SECTION
  2
ENTITIES
  0
POLYLINE
  8
0
 10
0
 20
0
 39
0
 70
1
 66
1
  0
VERTEX
  8
0
 10
0
 20
0
 42
0
  0
VERTEX
  8
0
 10
3000
 20
0
 42
0
  0
VERTEX
  8
0
 10
3000
 20
1000
 42
0
  0
VERTEX
  8
0
 10
0
 20
1000
 42
0
  0
SEQEND
  0
POLYLINE
  8
0
 10
0
 20
0
 39
0
 70
1
 66
1
  0
VERTEX
  8
0
 10
10.307692527770996
 20
250.30769348144531
 42
0
  0
VERTEX
  8
0
 10
10.307692527770996
 20
10.307692527770996
 42
0
  0
VERTEX
  8
0
 10
1304.3077392578125
 20
10.307692527770996
 42
0
  0
VERTEX
  8
0
 10
1304.3077392578125
 20
250.30769348144531
 42
0
  0
SEQEND
  0
POLYLINE
  8
0
 10
0
 20
0
 39
0
 70
1
 66
1
  0
VERTEX
  8
0
 10
1214.9127197265625
 20
130.30769348144531
 42
-1
  0
VERTEX
  8
0
 10
1199.70263671875
 20
130.30769348144531
 42
-1
  0
SEQEND
  0
POLYLINE
  8
0
 10
0
 20
0
 39
0
 70
1
 66
1
  0
VERTEX
  8
0
 10
1114.9127197265625
 20
130.30769348144531
 42
-1
  0
VERTEX
  8
0
 10
1099.70263671875
 20
130.30769348144531
 42
-1
  0
SEQEND
  0
POLYLINE
  8
0
 10
0
 20
0
 39
0
 70
1
 66
1
  0
VERTEX
  8
0
 10
1014.9127197265625
 20
130.30769348144531
 42
-1
  0
VERTEX
  8
0
 10
999.70269775390625
 20
130.30769348144531
 42
-1
  0
SEQEND
  0
POLYLINE
  8
0
 10
0
 20
0
 39
0
 70
1
 66
1
  0
VERTEX
  8
0
 10
914.9127197265625
 20
130.30769348144531
 42
-1
  0
VERTEX
  8
0
 10
899.70269775390625
 20
130.30769348144531
 42
-1
  0
SEQEND
  0
POLYLINE
  8
0
 10
0
 20
0
 39
0
 70
1
 66
1
  0
VERTEX
  8
0
 10
814.9127197265625
 20
130.30769348144531
 42
-1
  0
VERTEX
  8
0
 10
799.70269775390625
 20
130.30769348144531
 42
-1
  0
SEQEND
  0
POLYLINE
  8
0
 10
0
 20
0
 39
0
 70
1
 66
1
  0
VERTEX
  8
0
 10
714.91265869140625
 20
130.30769348144531
 42
-1
  0
VERTEX
  8
0
 10
699.70269775390625
 20
130.30769348144531
 42
-1
  0
SEQEND
  0
POLYLINE
  8
0
 10
0
 20
0
 39
0
 70
1
 66
1
  0
VERTEX
  8
0
 10
614.91265869140625
 20
130.30769348144531
 42
-1
  0
VERTEX
  8
0
 10
599.70269775390625
 20
130.30769348144531
 42
-1
  0
SEQEND
  0
POLYLINE
  8
0
 10
0
 20
0
 39
0
 70
1
 66
1
  0
VERTEX
  8
0
 10
514.91265869140625
 20
130.30769348144531
 42
-1
  0
VERTEX
  8
0
 10
499.70269775390625
 20
130.30769348144531
 42
-1
  0
SEQEND
  0
POLYLINE
  8
0
 10
0
 20
0
 39
0
 70
1
 66
1
  0
VERTEX
  8
0
 10
414.91265869140625
 20
130.30769348144531
 42
-1
  0
VERTEX
  8
0
 10
399.70269775390625
 20
130.30769348144531
 42
-1
  0
SEQEND
  0
POLYLINE
  8
0
 10
0
 20
0
 39
0
 70
1
 66
1
  0
VERTEX
  8
0
 10
314.91265869140625
 20
130.30769348144531
 42
-1
  0
VERTEX
  8
0
 10
299.70269775390625
 20
130.30769348144531
 42
-1
  0
SEQEND
  0
POLYLINE
  8
0
 10
0
 20
0
 39
0
 70
1
 66
1
  0
VERTEX
  8
0
 10
214.91267395019531
 20
130.30769348144531
 42
-1
  0
VERTEX
  8
0
 10
199.70271301269531
 20
130.30769348144531
 42
-1
  0
SEQEND
  0
POLYLINE
  8
0
 10
0
 20
0
 39
0
 70
1
 66
1
  0
VERTEX
  8
0
 10
114.91267395019531
 20
130.30769348144531
 42
-1
  0
VERTEX
  8
0
 10
99.702713012695313
 20
130.30769348144531
 42
-1
  0
SEQEND
  0
POLYLINE
  8
0
 10
0
 20
0
 39
0
 70
1
 66
1
  0
VERTEX
  8
0
 10
10.307692527770996
 20
500.4615478515625
 42
0
  0
VERTEX
  8
0
 10
10.307692527770996
 20
260.4615478515625
 42
0
  0
VERTEX
  8
0
 10
1304.3077392578125
 20
260.4615478515625
 42
0
  0
VERTEX
  8
0
 10
1304.3077392578125
 20
500.4615478515625
 42
0
  0
SEQEND
  0
POLYLINE
  8
0
 10
0
 20
0
 39
0
 70
1
 66
1
  0
VERTEX
  8
0
 10
1214.9127197265625
 20
380.4615478515625
 42
-1
  0
VERTEX
  8
0
 10
1199.70263671875
 20
380.4615478515625
 42
-1
  0
SEQEND
  0
POLYLINE
  8
0
 10
0
 20
0
 39
0
 70
1
 66
1
  0
VERTEX
  8
0
 10
1114.9127197265625
 20
380.4615478515625
 42
-1
  0
VERTEX
  8
0
 10
1099.70263671875
 20
380.4615478515625
 42
-1
  0
SEQEND
  0
POLYLINE
  8
0
 10
0
 20
0
 39
0
 70
1
 66
1
  0
VERTEX
  8
0
 10
1014.9127197265625
 20
380.4615478515625
 42
-1
  0
VERTEX
  8
0
 10
999.70269775390625
 20
380.4615478515625
 42
-1
  0
SEQEND
  0
POLYLINE
  8
0
 10
0
 20
0
 39
0
 70
1
 66
1
  0
VERTEX
  8
0
 10
914.9127197265625
 20
380.4615478515625
 42
-1
  0
VERTEX
  8
0
 10
899.70269775390625
 20
380.4615478515625
 42
-1
  0
SEQEND
  0
POLYLINE
  8
0
 10
0
 20
0
 39
0
 70
1
 66
1
  0
VERTEX
  8
0
 10
814.9127197265625
 20
380.4615478515625
 42
-1
  0
VERTEX
  8
0
 10
799.70269775390625
 20
380.4615478515625
 42
-1
  0
SEQEND
  0
POLYLINE
  8
0
 10
0
 20
0
 39
0
 70
1
 66
1
  0
VERTEX
  8
0
 10
714.91265869140625
 20
380.4615478515625
 42
-1
  0
VERTEX
  8
0
 10
699.70269775390625
 20
380.4615478515625
 42
-1
  0
SEQEND
  0
POLYLINE
  8
0
 10
0
 20
0
 39
0
 70
1
 66
1
  0
VERTEX
  8
0
 10
614.91265869140625
 20
380.4615478515625
 42
-1
  0
VERTEX
  8
0
 10
599.70269775390625
 20
380.4615478515625
 42
-1
  0
SEQEND
  0
POLYLINE
  8
0
 10
0
 20
0
 39
0
 70
1
 66
1
  0
VERTEX
  8
0
 10
514.91265869140625
 20
380.4615478515625
 42
-1
  0
VERTEX
  8
0
 10
499.70269775390625
 20
380.4615478515625
 42
-1
  0
SEQEND
  0
POLYLINE
  8
0
 10
0
 20
0
 39
0
 70
1
 66
1
  0
VERTEX
  8
0
 10
414.91265869140625
 20
380.4615478515625
 42
-1
  0
VERTEX
  8
0
 10
399.70269775390625
 20
380.4615478515625
 42
-1
  0
SEQEND
  0
POLYLINE
  8
0
 10
0
 20
0
 39
0
 70
1
 66
1
  0
VERTEX
  8
0
 10
314.91265869140625
 20
380.4615478515625
 42
-1
  0
VERTEX
  8
0
 10
299.70269775390625
 20
380.4615478515625
 42
-1
  0
SEQEND
  0
POLYLINE
  8
0
 10
0
 20
0
 39
0
 70
1
 66
1
  0
VERTEX
  8
0
 10
214.91267395019531
 20
380.4615478515625
 42
-1
  0
VERTEX
  8
0
 10
199.70271301269531
 20
380.4615478515625
 42
-1
  0
SEQEND
  0
POLYLINE
  8
0
 10
0
 20
0
 39
0
 70
1
 66
1
  0
VERTEX
  8
0
 10
114.91267395019531
 20
380.4615478515625
 42
-1
  0
VERTEX
  8
0
 10
99.702713012695313
 20
380.4615478515625
 42
-1
  0
SEQEND
  0
POLYLINE
  8
0
 10
0
 20
0
 39
0
 70
1
 66
1
  0
VERTEX
  8
0
 10
10.307692527770996
 20
750.6153564453125
 42
0
  0
VERTEX
  8
0
 10
10.307692527770996
 20
510.61538696289062
 42
0
  0
VERTEX
  8
0
 10
1304.3077392578125
 20
510.61538696289062
 42
0
  0
VERTEX
  8
0
 10
1304.3077392578125
 20
750.6153564453125
 42
0
  0
SEQEND
  0
POLYLINE
  8
0
 10
0
 20
0
 39
0
 70
1
 66
1
  0
VERTEX
  8
0
 10
1214.9127197265625
 20
630.6153564453125
 42
-1
  0
VERTEX
  8
0
 10
1199.70263671875
 20
630.6153564453125
 42
-1
  0
SEQEND
  0
POLYLINE
  8
0
 10
0
 20
0
 39
0
 70
1
 66
1
  0
VERTEX
  8
0
 10
1114.9127197265625
 20
630.6153564453125
 42
-1
  0
VERTEX
  8
0
 10
1099.70263671875
 20
630.6153564453125
 42
-1
  0
SEQEND
  0
POLYLINE
  8
0
 10
0
 20
0
 39
0
 70
1
 66
1
  0
VERTEX
  8
0
 10
1014.9127197265625
 20
630.6153564453125
 42
-1
  0
VERTEX
  8
0
 10
999.70269775390625
 20
630.6153564453125
 42
-1
  0
SEQEND
  0
POLYLINE
  8
0
 10
0
 20
0
 39
0
 70
1
 66
1
  0
VERTEX
  8
0
 10
914.9127197265625
 20
630.6153564453125
 42
-1
  0
VERTEX
  8
0
 10
899.70269775390625
 20
630.6153564453125
 42
-1
  0
SEQEND
  0
POLYLINE
  8
0
 10
0
 20
0
 39
0
 70
1
 66
1
  0
VERTEX
  8
0
 10
814.9127197265625
 20
630.6153564453125
 42
-1
  0
VERTEX
  8
0
 10
799.70269775390625
 20
630.6153564453125
 42
-1
  0
SEQEND
  0
POLYLINE
  8
0
 10
0
 20
0
 39
0
 70
1
 66
1
  0
VERTEX
  8
0
 10
714.91265869140625
 20
630.6153564453125
 42
-1
  0
VERTEX
  8
0
 10
699.70269775390625
 20
630.6153564453125
 42
-1
  0
SEQEND
  0
POLYLINE
  8
0
 10
0
 20
0
 39
0
 70
1
 66
1
  0
VERTEX
  8
0
 10
614.91265869140625
 20
630.6153564453125
 42
-1
  0
VERTEX
  8
0
 10
599.70269775390625
 20
630.6153564453125
 42
-1
  0
SEQEND
  0
POLYLINE
  8
0
 10
0
 20
0
 39
0
 70
1
 66
1
  0
VERTEX
  8
0
 10
514.91265869140625
 20
630.6153564453125
 42
-1
  0
VERTEX
  8
0
 10
499.70269775390625
 20
630.6153564453125
 42
-1
  0
SEQEND
  0
POLYLINE
  8
0
 10
0
 20
0
 39
0
 70
1
 66
1
  0
VERTEX
  8
0
 10
414.91265869140625
 20
630.6153564453125
 42
-1
  0
VERTEX
  8
0
 10
399.70269775390625
 20
630.6153564453125
 42
-1
  0
SEQEND
  0
POLYLINE
  8
0
 10
0
 20
0
 39
0
 70
1
 66
1
  0
VERTEX
  8
0
 10
314.91265869140625
 20
630.6153564453125
 42
-1
  0
VERTEX
  8
0
 10
299.70269775390625
 20
630.6153564453125
 42
-1
  0
SEQEND
  0
POLYLINE
  8
0
 10
0
 20
0
 39
0
 70
1
 66
1
  0
VERTEX
  8
0
 10
214.91267395019531
 20
630.6153564453125
 42
-1
  0
VERTEX
  8
0
 10
199.70271301269531
 20
630.6153564453125
 42
-1
  0
SEQEND
  0
POLYLINE
  8
0
 10
0
 20
0
 39
0
 70
1
 66
1
  0
VERTEX
  8
0
 10
114.91267395019531
 20
630.6153564453125
 42
-1
  0
VERTEX
  8
0
 10
99.702713012695313
 20
630.6153564453125
 42
-1
  0
SEQEND
  0
POLYLINE
  8
0
 10
0
 20
0
 39
0
 70
1
 66
1
  0
VERTEX
  8
0
 10
1475.6153564453125
 20
629.4615478515625
 42
0
  0
VERTEX
  8
0
 10
1605.6153564453125
 20
629.4615478515625
 42
0
  0
VERTEX
  8
0
 10
1605.6153564453125
 20
989.4615478515625
 42
0
  0
VERTEX
  8
0
 10
1475.6153564453125
 20
989.4615478515625
 42
0.94444441795349121
  0
SEQEND
  0
POLYLINE
  8
0
 10
0
 20
0
 39
0
 70
1
 66
1
  0
VERTEX
  8
0
 10
1545.6153564453125
 20
798.9615478515625
 42
-1
  0
VERTEX
  8
0
 10
1545.6153564453125
 20
819.9615478515625
 42
-1
  0
SEQEND
  0
POLYLINE
  8
0
 10
0
 20
0
 39
0
 70
1
 66
1
  0
VERTEX
  8
0
 10
1425.6153564453125
 20
809.4615478515625
 42
-1
  0
VERTEX
  8
0
 10
1403.6153564453125
 20
809.4615478515625
 42
-0.41421356797218323
  0
VERTEX
  8
0
 10
1545.6153564453125
 20
951.4615478515625
 42
-1
  0
VERTEX
  8
0
 10
1545.6153564453125
 20
929.4615478515625
 42
0.41421356797218323
  0
SEQEND
  0
POLYLINE
  8
0
 10
0
 20
0
 39
0
 70
1
 66
1
  0
VERTEX
  8
0
 10
1484.6153564453125
 20
10.307695388793945
 42
0
  0
VERTEX
  8
0
 10
1614.6153564453125
 20
10.307692527770996
 42
0
  0
VERTEX
  8
0
 10
1614.6153564453125
 20
370.30767822265625
 42
0
  0
VERTEX
  8
0
 10
1484.6153564453125
 20
370.30767822265625
 42
0.94444441795349121
  0
SEQEND
  0
POLYLINE
  8
0
 10
0
 20
0
 39
0
 70
1
 66
1
  0
VERTEX
  8
0
 10
1554.6153564453125
 20
179.80769348144531
 42
-1
  0
VERTEX
  8
0
 10
1554.6153564453125
 20
200.80769348144531
 42
-1
  0
SEQEND
  0
POLYLINE
  8
0
 10
0
 20
0
 39
0
 70
1
 66
1
  0
VERTEX
  8
0
 10
1434.6153564453125
 20
190.30769348144531
 42
-1
  0
VERTEX
  8
0
 10
1412.6153564453125
 20
190.30769348144531
 42
-0.41421356797218323
  0
VERTEX
  8
0
 10
1554.6153564453125
 20
332.30767822265625
 42
-1
  0
VERTEX
  8
0
 10
1554.6153564453125
 20
310.30767822265625
 42
0.41421356797218323
  0
SEQEND
  0
POLYLINE
  8
0
 10
0
 20
0
 39
0
 70
1
 66
1
  0
VERTEX
  8
0
 10
1739.84619140625
 20
324.61538696289062
 42
0
  0
VERTEX
  8
0
 10
1869.84619140625
 20
324.61538696289062
 42
0
  0
VERTEX
  8
0
 10
1869.84619140625
 20
684.6153564453125
 42
0
  0
VERTEX
  8
0
 10
1739.84619140625
 20
684.6153564453125
 42
0.94444441795349121
  0
SEQEND
  0
POLYLINE
  8
0
 10
0
 20
0
 39
0
 70
1
 66
1
  0
VERTEX
  8
0
 10
1809.84619140625
 20
494.11538696289062
 42
-1
  0
VERTEX
  8
0
 10
1809.84619140625
 20
515.1153564453125
 42
-1
  0
SEQEND
  0
POLYLINE
  8
0
 10
0
 20
0
 39
0
 70
1
 66
1
  0
VERTEX
  8
0
 10
1689.84619140625
 20
504.61538696289063
 42
-1
  0
VERTEX
  8
0
 10
1667.84619140625
 20
504.61538696289063
 42
-0.41421356797218323
  0
VERTEX
  8
0
 10
1809.84619140625
 20
646.6153564453125
 42
-1
  0
VERTEX
  8
0
 10
1809.84619140625
 20
624.6153564453125
 42
0.41421356797218323
  0
SEQEND
  0
POLYLINE
  8
0
 10
0
 20
0
 39
0
 70
1
 66
1
  0
VERTEX
  8
0
 10
1984.769287109375
 20
180.30769348144531
 42
0
  0
VERTEX
  8
0
 10
1984.769287109375
 20
310.30767822265625
 42
0
  0
VERTEX
  8
0
 10
1624.769287109375
 20
310.30767822265625
 42
0
  0
VERTEX
  8
0
 10
1624.769287109375
 20
180.30767822265625
 42
0.94444441795349121
  0
SEQEND
  0
POLYLINE
  8
0
 10
0
 20
0
 39
0
 70
1
 66
1
  0
VERTEX
  8
0
 10
1815.269287109375
 20
250.30767822265625
 42
-1
  0
VERTEX
  8
0
 10
1794.269287109375
 20
250.30767822265625
 42
-1
  0
SEQEND
  0
POLYLINE
  8
0
 10
0
 20
0
 39
0
 70
1
 66
1
  0
VERTEX
  8
0
 10
1804.769287109375
 20
130.30767822265625
 42
-1
  0
VERTEX
  8
0
 10
1804.769287109375
 20
108.30767822265625
 42
-0.41421356797218323
  0
VERTEX
  8
0
 10
1662.769287109375
 20
250.30767822265625
 42
-1
  0
VERTEX
  8
0
 10
1684.769287109375
 20
250.30767822265625
 42
0.41421356797218323
  0
SEQEND
  0
POLYLINE
  8
0
 10
0
 20
0
 39
0
 70
1
 66
1
  0
VERTEX
  8
0
 10
2096.46142578125
 20
859.4615478515625
 42
0
  0
VERTEX
  8
0
 10
2096.46142578125
 20
989.4615478515625
 42
0
  0
VERTEX
  8
0
 10
1736.4615478515625
 20
989.4615478515625
 42
0
  0
VERTEX
  8
0
 10
1736.4615478515625
 20
859.4615478515625
 42
0.94444441795349121
  0
SEQEND
  0
POLYLINE
  8
0
 10
0
 20
0
 39
0
 70
1
 66
1
  0
VERTEX
  8
0
 10
1926.9615478515625
 20
929.4615478515625
 42
-1
  0
VERTEX
  8
0
 10
1905.9615478515625
 20
929.4615478515625
 42
-1
  0
SEQEND
  0
POLYLINE
  8
0
 10
0
 20
0
 39
0
 70
1
 66
1
  0
VERTEX
  8
0
 10
1916.4615478515625
 20
809.4615478515625
 42
-1
  0
VERTEX
  8
0
 10
1916.4615478515625
 20
787.4615478515625
 42
-0.41421356797218323
  0
VERTEX
  8
0
 10
1774.4615478515625
 20
929.4615478515625
 42
-1
  0
VERTEX
  8
0
 10
1796.4615478515625
 20
929.4615478515625
 42
0.41421356797218323
  0
SEQEND
  0
POLYLINE
  8
0
 10
0
 20
0
 39
0
 70
1
 66
1
  0
VERTEX
  8
0
 10
2050
 20
305.69232177734375
 42
0
  0
VERTEX
  8
0
 10
2180
 20
305.69232177734375
 42
0
  0
VERTEX
  8
0
 10
2180
 20
665.69232177734375
 42
0
  0
VERTEX
  8
0
 10
2050
 20
665.69232177734375
 42
0.94444441795349121
  0
SEQEND
  0
POLYLINE
  8
0
 10
0
 20
0
 39
0
 70
1
 66
1
  0
VERTEX
  8
0
 10
2120
 20
475.19232177734375
 42
-1
  0
VERTEX
  8
0
 10
2120
 20
496.19232177734375
 42
-1
  0
SEQEND
  0
POLYLINE
  8
0
 10
0
 20
0
 39
0
 70
1
 66
1
  0
VERTEX
  8
0
 10
2000
 20
485.69232177734375
 42
-1
  0
VERTEX
  8
0
 10
1978
 20
485.69232177734375
 42
-0.41421356797218323
  0
VERTEX
  8
0
 10
2120
 20
627.69232177734375
 42
-1
  0
VERTEX
  8
0
 10
2120
 20
605.69232177734375
 42
0.41421356797218323
  0
SEQEND
  0
POLYLINE
  8
0
 10
0
 20
0
 39
0
 70
1
 66
1
  0
VERTEX
  8
0
 10
2396.580322265625
 20
894.1939697265625
 42
0
  0
VERTEX
  8
0
 10
2378.845703125
 20
893.2645263671875
 42
-0.35411858558654785
  0
VERTEX
  8
0
 10
2358.48046875
 20
908.06072998046875
 42
0
  0
VERTEX
  8
0
 10
2340.730224609375
 20
974.30517578125
 42
0.35411858558654785
  0
VERTEX
  8
0
 10
2320.364990234375
 20
989.10137939453125
 42
-0
  0
VERTEX
  8
0
 10
2290.349365234375
 20
987.5283203125
 42
0.32491970062255859
  0
VERTEX
  8
0
 10
2272.07763671875
 20
972.73211669921875
 42
-0
  0
VERTEX
  8
0
 10
2252.3564453125
 20
899.1322021484375
 42
-0.32491970062255859
  0
VERTEX
  8
0
 10
2234.084716796875
 20
884.33599853515625
 42
0
  0
VERTEX
  8
0
 10
2207.49169921875
 20
882.94232177734375
 42
0.39895954728126526
  0
VERTEX
  8
0
 10
2188.53857421875
 20
862.9697265625
 42
0
  0
VERTEX
  8
0
 10
2188.53857421875
 20
676.92828369140625
 42
0.39895954728126526
  0
VERTEX
  8
0
 10
2207.49169921875
 20
656.9556884765625
 42
-0
  0
VERTEX
  8
0
 10
2234.084716796875
 20
655.56201171875
 42
-0.32491970062255859
  0
VERTEX
  8
0
 10
2252.3564453125
 20
640.765869140625
 42
0
  0
VERTEX
  8
0
 10
2272.07763671875
 20
567.1658935546875
 42
0.32491970062255859
  0
VERTEX
  8
0
 10
2290.349365234375
 20
552.36968994140625
 42
0
  0
VERTEX
  8
0
 10
2320.364990234375
 20
550.796630859375
 42
0.35411858558654785
  0
VERTEX
  8
0
 10
2340.730224609375
 20
565.59283447265625
 42
-0
  0
VERTEX
  8
0
 10
2358.48046875
 20
631.8372802734375
 42
-0.35411858558654785
  0
VERTEX
  8
0
 10
2378.845703125
 20
646.63348388671875
 42
-0
  0
VERTEX
  8
0
 10
2396.580322265625
 20
645.70404052734375
 42
0.14499309659004211
  0
VERTEX
  8
0
 10
2402.103759765625
 20
647.03009033203125
 42
-0
  0
VERTEX
  8
0
 10
2419.53857421875
 20
657.09600830078125
 42
0.26794919371604919
  0
VERTEX
  8
0
 10
2424.53857421875
 20
665.75628662109375
 42
0
  0
VERTEX
  8
0
 10
2424.53857421875
 20
874.14178466796875
 42
0.26794919371604919
  0
VERTEX
  8
0
 10
2419.53857421875
 20
882.802001953125
 42
0
  0
VERTEX
  8
0
 10
2402.103759765625
 20
892.867919921875
 42
0.14499309659004211
  0
SEQEND
  0
POLYLINE
  8
0
 10
0
 20
0
 39
0
 70
1
 66
1
  0
VERTEX
  8
0
 10
2292.53857421875
 20
929.94903564453125
 42
-1
  0
VERTEX
  8
0
 10
2320.53857421875
 20
929.94903564453125
 42
-1
  0
SEQEND
  0
POLYLINE
  8
0
 10
0
 20
0
 39
0
 70
1
 66
1
  0
VERTEX
  8
0
 10
2292.53857421875
 20
609.94903564453125
 42
-1
  0
VERTEX
  8
0
 10
2320.53857421875
 20
609.94903564453125
 42
-1
  0
SEQEND
  0
POLYLINE
  8
0
 10
0
 20
0
 39
0
 70
1
 66
1
  0
VERTEX
  8
0
 10
2218.11181640625
 20
105.24251556396484
 42
0
  0
VERTEX
  8
0
 10
2235.8466796875
 20
106.17195129394531
 42
-0.35411858558654785
  0
VERTEX
  8
0
 10
2256.2119140625
 20
91.375747680664062
 42
0
  0
VERTEX
  8
0
 10
2273.962158203125
 20
25.131311416625977
 42
0.35411858558654785
  0
VERTEX
  8
0
 10
2294.327392578125
 20
10.335102081298828
 42
-0
  0
VERTEX
  8
0
 10
2324.343017578125
 20
11.908150672912598
 42
0.32491970062255859
  0
VERTEX
  8
0
 10
2342.61474609375
 20
26.704362869262695
 42
-0
  0
VERTEX
  8
0
 10
2362.335693359375
 20
100.30429840087891
 42
-0.32491970062255859
  0
VERTEX
  8
0
 10
2380.607666015625
 20
115.10050201416016
 42
0
  0
VERTEX
  8
0
 10
2407.20068359375
 20
116.49418640136719
 42
0.39895954728126526
  0
VERTEX
  8
0
 10
2426.15380859375
 20
136.46678161621094
 42
0
  0
VERTEX
  8
0
 10
2426.15380859375
 20
322.50820922851562
 42
0.39895954728126526
  0
VERTEX
  8
0
 10
2407.20068359375
 20
342.48080444335937
 42
-0
  0
VERTEX
  8
0
 10
2380.607666015625
 20
343.87448120117187
 42
-0.32491970062255859
  0
VERTEX
  8
0
 10
2362.335693359375
 20
358.670654296875
 42
0
  0
VERTEX
  8
0
 10
2342.61474609375
 20
432.27059936523437
 42
0.32491970062255859
  0
VERTEX
  8
0
 10
2324.343017578125
 20
447.06683349609375
 42
0
  0
VERTEX
  8
0
 10
2294.327392578125
 20
448.63986206054687
 42
0.35411858558654785
  0
VERTEX
  8
0
 10
2273.962158203125
 20
433.84365844726562
 42
-0
  0
VERTEX
  8
0
 10
2256.2119140625
 20
367.5992431640625
 42
-0.35411858558654785
  0
VERTEX
  8
0
 10
2235.8466796875
 20
352.80300903320312
 42
-0
  0
VERTEX
  8
0
 10
2218.11181640625
 20
353.73245239257812
 42
0.14499309659004211
  0
VERTEX
  8
0
 10
2212.588623046875
 20
352.40640258789063
 42
-0
  0
VERTEX
  8
0
 10
2195.15380859375
 20
342.34048461914062
 42
0.26794919371604919
  0
VERTEX
  8
0
 10
2190.15380859375
 20
333.68023681640625
 42
0
  0
VERTEX
  8
0
 10
2190.15380859375
 20
125.29474639892578
 42
0.26794919371604919
  0
VERTEX
  8
0
 10
2195.15380859375
 20
116.63449096679687
 42
0
  0
VERTEX
  8
0
 10
2212.588623046875
 20
106.56855773925781
 42
0.14499309659004211
  0
SEQEND
  0
POLYLINE
  8
0
 10
0
 20
0
 39
0
 70
1
 66
1
  0
VERTEX
  8
0
 10
2322.15380859375
 20
69.48748779296875
 42
-1
  0
VERTEX
  8
0
 10
2294.15380859375
 20
69.48748779296875
 42
-1
  0
SEQEND
  0
POLYLINE
  8
0
 10
0
 20
0
 39
0
 70
1
 66
1
  0
VERTEX
  8
0
 10
2322.15380859375
 20
389.48748779296875
 42
-1
  0
VERTEX
  8
0
 10
2294.15380859375
 20
389.48748779296875
 42
-1
  0
SEQEND
  0
POLYLINE
  8
0
 10
0
 20
0
 39
0
 70
1
 66
1
  0
VERTEX
  8
0
 10
2569.88818359375
 20
621.655517578125
 42
0
  0
VERTEX
  8
0
 10
2552.1533203125
 20
620.72607421875
 42
-0.35411858558654785
  0
VERTEX
  8
0
 10
2531.7880859375
 20
635.52227783203125
 42
0
  0
VERTEX
  8
0
 10
2514.037841796875
 20
701.7667236328125
 42
0.35411858558654785
  0
VERTEX
  8
0
 10
2493.672607421875
 20
716.56292724609375
 42
-0
  0
VERTEX
  8
0
 10
2463.656982421875
 20
714.9898681640625
 42
0.32491970062255859
  0
VERTEX
  8
0
 10
2445.38525390625
 20
700.19366455078125
 42
-0
  0
VERTEX
  8
0
 10
2425.664306640625
 20
626.59375
 42
-0.32491970062255859
  0
VERTEX
  8
0
 10
2407.392333984375
 20
611.79754638671875
 42
0
  0
VERTEX
  8
0
 10
2380.79931640625
 20
610.40386962890625
 42
0.39895954728126526
  0
VERTEX
  8
0
 10
2361.84619140625
 20
590.4312744140625
 42
0
  0
VERTEX
  8
0
 10
2361.84619140625
 20
404.38983154296875
 42
0.39895954728126526
  0
VERTEX
  8
0
 10
2380.79931640625
 20
384.417236328125
 42
-0
  0
VERTEX
  8
0
 10
2407.392333984375
 20
383.0235595703125
 42
-0.32491970062255859
  0
VERTEX
  8
0
 10
2425.664306640625
 20
368.22738647460938
 42
0
  0
VERTEX
  8
0
 10
2445.38525390625
 20
294.62744140625
 42
0.32491970062255859
  0
VERTEX
  8
0
 10
2463.656982421875
 20
279.83120727539062
 42
0
  0
VERTEX
  8
0
 10
2493.672607421875
 20
278.2581787109375
 42
0.35411858558654785
  0
VERTEX
  8
0
 10
2514.037841796875
 20
293.05438232421875
 42
-0
  0
VERTEX
  8
0
 10
2531.7880859375
 20
359.29879760742187
 42
-0.35411858558654785
  0
VERTEX
  8
0
 10
2552.1533203125
 20
374.09503173828125
 42
-0
  0
VERTEX
  8
0
 10
2569.88818359375
 20
373.16558837890625
 42
0.14499309659004211
  0
VERTEX
  8
0
 10
2575.411376953125
 20
374.49163818359375
 42
-0
  0
VERTEX
  8
0
 10
2592.84619140625
 20
384.55755615234375
 42
0.26794919371604919
  0
VERTEX
  8
0
 10
2597.84619140625
 20
393.21780395507812
 42
0
  0
VERTEX
  8
0
 10
2597.84619140625
 20
601.603271484375
 42
0.26794919371604919
  0
VERTEX
  8
0
 10
2592.84619140625
 20
610.2635498046875
 42
0
  0
VERTEX
  8
0
 10
2575.411376953125
 20
620.3294677734375
 42
0.14499309659004211
  0
SEQEND
  0
POLYLINE
  8
0
 10
0
 20
0
 39
0
 70
1
 66
1
  0
VERTEX
  8
0
 10
2465.84619140625
 20
657.41058349609375
 42
-1
  0
VERTEX
  8
0
 10
2493.84619140625
 20
657.41058349609375
 42
-1
  0
SEQEND
  0
POLYLINE
  8
0
 10
0
 20
0
 39
0
 70
1
 66
1
  0
VERTEX
  8
0
 10
2465.84619140625
 20
337.41055297851562
 42
-1
  0
VERTEX
  8
0
 10
2493.84619140625
 20
337.41055297851562
 42
-1
  0
SEQEND
  0
POLYLINE
  8
0
 10
0
 20
0
 39
0
 70
1
 66
1
  0
VERTEX
  8
0
 10
2742.965087890625
 20
894.1939697265625
 42
0
  0
VERTEX
  8
0
 10
2725.230224609375
 20
893.2645263671875
 42
-0.35411858558654785
  0
VERTEX
  8
0
 10
2704.864990234375
 20
908.06072998046875
 42
0
  0
VERTEX
  8
0
 10
2687.11474609375
 20
974.30517578125
 42
0.35411858558654785
  0
VERTEX
  8
0
 10
2666.74951171875
 20
989.10137939453125
 42
-0
  0
VERTEX
  8
0
 10
2636.734130859375
 20
987.5283203125
 42
0.32491970062255859
  0
VERTEX
  8
0
 10
2618.462158203125
 20
972.73211669921875
 42
-0
  0
VERTEX
  8
0
 10
2598.7412109375
 20
899.1322021484375
 42
-0.32491970062255859
  0
VERTEX
  8
0
 10
2580.469482421875
 20
884.33599853515625
 42
0
  0
VERTEX
  8
0
 10
2553.87646484375
 20
882.94232177734375
 42
0.39895954728126526
  0
VERTEX
  8
0
 10
2534.923095703125
 20
862.9697265625
 42
0
  0
VERTEX
  8
0
 10
2534.923095703125
 20
676.92828369140625
 42
0.39895954728126526
  0
VERTEX
  8
0
 10
2553.87646484375
 20
656.9556884765625
 42
-0
  0
VERTEX
  8
0
 10
2580.469482421875
 20
655.56201171875
 42
-0.32491970062255859
  0
VERTEX
  8
0
 10
2598.7412109375
 20
640.765869140625
 42
0
  0
VERTEX
  8
0
 10
2618.462158203125
 20
567.1658935546875
 42
0.32491970062255859
  0
VERTEX
  8
0
 10
2636.734130859375
 20
552.36968994140625
 42
0
  0
VERTEX
  8
0
 10
2666.74951171875
 20
550.796630859375
 42
0.35411858558654785
  0
VERTEX
  8
0
 10
2687.11474609375
 20
565.59283447265625
 42
-0
  0
VERTEX
  8
0
 10
2704.864990234375
 20
631.8372802734375
 42
-0.35411858558654785
  0
VERTEX
  8
0
 10
2725.230224609375
 20
646.63348388671875
 42
-0
  0
VERTEX
  8
0
 10
2742.965087890625
 20
645.70404052734375
 42
0.14499309659004211
  0
VERTEX
  8
0
 10
2748.48828125
 20
647.03009033203125
 42
-0
  0
VERTEX
  8
0
 10
2765.923095703125
 20
657.09600830078125
 42
0.26794919371604919
  0
VERTEX
  8
0
 10
2770.923095703125
 20
665.75628662109375
 42
0
  0
VERTEX
  8
0
 10
2770.923095703125
 20
874.14178466796875
 42
0.26794919371604919
  0
VERTEX
  8
0
 10
2765.923095703125
 20
882.802001953125
 42
0
  0
VERTEX
  8
0
 10
2748.48828125
 20
892.867919921875
 42
0.14499309659004211
  0
SEQEND
  0
POLYLINE
  8
0
 10
0
 20
0
 39
0
 70
1
 66
1
  0
VERTEX
  8
0
 10
2638.923095703125
 20
929.94903564453125
 42
-1
  0
VERTEX
  8
0
 10
2666.923095703125
 20
929.94903564453125
 42
-1
  0
SEQEND
  0
POLYLINE
  8
0
 10
0
 20
0
 39
0
 70
1
 66
1
  0
VERTEX
  8
0
 10
2638.923095703125
 20
609.94903564453125
 42
-1
  0
VERTEX
  8
0
 10
2666.923095703125
 20
609.94903564453125
 42
-1
  0
SEQEND
  0
POLYLINE
  8
0
 10
0
 20
0
 39
0
 70
1
 66
1
  0
VERTEX
  8
0
 10
2564.265869140625
 20
105.24251556396484
 42
0
  0
VERTEX
  8
0
 10
2582.00048828125
 20
106.17195129394531
 42
-0.35411858558654785
  0
VERTEX
  8
0
 10
2602.36572265625
 20
91.375747680664062
 42
0
  0
VERTEX
  8
0
 10
2620.115966796875
 20
25.131311416625977
 42
0.35411858558654785
  0
VERTEX
  8
0
 10
2640.481201171875
 20
10.335102081298828
 42
-0
  0
VERTEX
  8
0
 10
2670.496826171875
 20
11.908150672912598
 42
0.32491970062255859
  0
VERTEX
  8
0
 10
2688.7685546875
 20
26.704362869262695
 42
-0
  0
VERTEX
  8
0
 10
2708.489501953125
 20
100.30429840087891
 42
-0.32491970062255859
  0
VERTEX
  8
0
 10
2726.761474609375
 20
115.10050201416016
 42
0
  0
VERTEX
  8
0
 10
2753.3544921875
 20
116.49418640136719
 42
0.39895954728126526
  0
VERTEX
  8
0
 10
2772.3076171875
 20
136.46678161621094
 42
0
  0
VERTEX
  8
0
 10
2772.3076171875
 20
322.50820922851562
 42
0.39895954728126526
  0
VERTEX
  8
0
 10
2753.3544921875
 20
342.48080444335937
 42
-0
  0
VERTEX
  8
0
 10
2726.761474609375
 20
343.87448120117187
 42
-0.32491970062255859
  0
VERTEX
  8
0
 10
2708.489501953125
 20
358.670654296875
 42
0
  0
VERTEX
  8
0
 10
2688.7685546875
 20
432.27059936523437
 42
0.32491970062255859
  0
VERTEX
  8
0
 10
2670.496826171875
 20
447.06683349609375
 42
0
  0
VERTEX
  8
0
 10
2640.481201171875
 20
448.63986206054687
 42
0.35411858558654785
  0
VERTEX
  8
0
 10
2620.115966796875
 20
433.84365844726562
 42
-0
  0
VERTEX
  8
0
 10
2602.36572265625
 20
367.5992431640625
 42
-0.35411858558654785
  0
VERTEX
  8
0
 10
2582.00048828125
 20
352.80300903320312
 42
-0
  0
VERTEX
  8
0
 10
2564.265869140625
 20
353.73245239257812
 42
0.14499309659004211
  0
VERTEX
  8
0
 10
2558.742431640625
 20
352.40640258789063
 42
-0
  0
VERTEX
  8
0
 10
2541.3076171875
 20
342.34048461914062
 42
0.26794919371604919
  0
VERTEX
  8
0
 10
2536.3076171875
 20
333.68023681640625
 42
0
  0
VERTEX
  8
0
 10
2536.3076171875
 20
125.29474639892578
 42
0.26794919371604919
  0
VERTEX
  8
0
 10
2541.3076171875
 20
116.63449096679687
 42
0
  0
VERTEX
  8
0
 10
2558.742431640625
 20
106.56855773925781
 42
0.14499309659004211
  0
SEQEND
  0
POLYLINE
  8
0
 10
0
 20
0
 39
0
 70
1
 66
1
  0
VERTEX
  8
0
 10
2668.3076171875
 20
69.48748779296875
 42
-1
  0
VERTEX
  8
0
 10
2640.3076171875
 20
69.48748779296875
 42
-1
  0
SEQEND
  0
POLYLINE
  8
0
 10
0
 20
0
 39
0
 70
1
 66
1
  0
VERTEX
  8
0
 10
2668.3076171875
 20
389.48748779296875
 42
-1
  0
VERTEX
  8
0
 10
2640.3076171875
 20
389.48748779296875
 42
-1
  0
SEQEND
  0
POLYLINE
  8
0
 10
0
 20
0
 39
0
 70
1
 66
1
  0
VERTEX
  8
0
 10
2916.0419921875
 20
621.655517578125
 42
0
  0
VERTEX
  8
0
 10
2898.30712890625
 20
620.72607421875
 42
-0.35411858558654785
  0
VERTEX
  8
0
 10
2877.94189453125
 20
635.52227783203125
 42
0
  0
VERTEX
  8
0
 10
2860.191650390625
 20
701.7667236328125
 42
0.35411858558654785
  0
VERTEX
  8
0
 10
2839.826416015625
 20
716.56292724609375
 42
-0
  0
VERTEX
  8
0
 10
2809.81103515625
 20
714.9898681640625
 42
0.32491970062255859
  0
VERTEX
  8
0
 10
2791.5390625
 20
700.19366455078125
 42
-0
  0
VERTEX
  8
0
 10
2771.818115234375
 20
626.59375
 42
-0.32491970062255859
  0
VERTEX
  8
0
 10
2753.54638671875
 20
611.79754638671875
 42
0
  0
VERTEX
  8
0
 10
2726.953369140625
 20
610.40386962890625
 42
0.39895954728126526
  0
VERTEX
  8
0
 10
2708
 20
590.4312744140625
 42
0
  0
VERTEX
  8
0
 10
2708
 20
404.38983154296875
 42
0.39895954728126526
  0
VERTEX
  8
0
 10
2726.953369140625
 20
384.417236328125
 42
-0
  0
VERTEX
  8
0
 10
2753.54638671875
 20
383.0235595703125
 42
-0.32491970062255859
  0
VERTEX
  8
0
 10
2771.818115234375
 20
368.22738647460938
 42
0
  0
VERTEX
  8
0
 10
2791.5390625
 20
294.62744140625
 42
0.32491970062255859
  0
VERTEX
  8
0
 10
2809.81103515625
 20
279.83120727539062
 42
0
  0
VERTEX
  8
0
 10
2839.826416015625
 20
278.2581787109375
 42
0.35411858558654785
  0
VERTEX
  8
0
 10
2860.191650390625
 20
293.05438232421875
 42
-0
  0
VERTEX
  8
0
 10
2877.94189453125
 20
359.29879760742187
 42
-0.35411858558654785
  0
VERTEX
  8
0
 10
2898.30712890625
 20
374.09503173828125
 42
-0
  0
VERTEX
  8
0
 10
2916.0419921875
 20
373.16558837890625
 42
0.14499309659004211
  0
VERTEX
  8
0
 10
2921.565185546875
 20
374.49163818359375
 42
-0
  0
VERTEX
  8
0
 10
2939
 20
384.55755615234375
 42
0.26794919371604919
  0
VERTEX
  8
0
 10
2944
 20
393.21780395507812
 42
0
  0
VERTEX
  8
0
 10
2944
 20
601.603271484375
 42
0.26794919371604919
  0
VERTEX
  8
0
 10
2939
 20
610.2635498046875
 42
0
  0
VERTEX
  8
0
 10
2921.565185546875
 20
620.3294677734375
 42
0.14499309659004211
  0
SEQEND
  0
POLYLINE
  8
0
 10
0
 20
0
 39
0
 70
1
 66
1
  0
VERTEX
  8
0
 10
2812
 20
657.41058349609375
 42
-1
  0
VERTEX
  8
0
 10
2840
 20
657.41058349609375
 42
-1
  0
SEQEND
  0
POLYLINE
  8
0
 10
0
 20
0
 39
0
 70
1
 66
1
  0
VERTEX
  8
0
 10
2812
 20
337.41055297851562
 42
-1
  0
VERTEX
  8
0
 10
2840
 20
337.41055297851562
 42
-1
  0
SEQEND
  0
POLYLINE
  8
0
 10
0
 20
0
 39
0
 70
1
 66
1
  0
VERTEX
  8
0
 10
10.307692527770996
 20
912.53717041015625
 42
-0
  0
VERTEX
  8
0
 10
245.2679443359375
 20
794.26007080078125
 42
0.97178131341934204
  0
VERTEX
  8
0
 10
273.75701904296875
 20
847.03717041015625
 42
0
  0
VERTEX
  8
0
 10
160.30769348144531
 20
912.53717041015625
 42
0
  0
SEQEND
  0
POLYLINE
  8
0
 10
0
 20
0
 39
0
 70
1
 66
1
  0
VERTEX
  8
0
 10
176.30769348144531
 20
852.25
 42
-1
  0
VERTEX
  8
0
 10
176.30769348144531
 20
884.25
 42
-1
  0
SEQEND
  0
POLYLINE
  8
0
 10
0
 20
0
 39
0
 70
1
 66
1
  0
VERTEX
  8
0
 10
258.75701904296875
 20
805.056396484375
 42
-1
  0
VERTEX
  8
0
 10
258.75701904296875
 20
837.056396484375
 42
-1
  0
SEQEND
  0
POLYLINE
  8
0
 10
0
 20
0
 39
0
 70
1
 66
1
  0
VERTEX
  8
0
 10
288.75701904296875
 20
760.76922607421875
 42
-0
  0
VERTEX
  8
0
 10
53.796779632568359
 20
879.04632568359375
 42
0.97178131341934204
  0
VERTEX
  8
0
 10
25.307689666748047
 20
826.26922607421875
 42
0
  0
VERTEX
  8
0
 10
138.75703430175781
 20
760.76922607421875
 42
0
  0
SEQEND
  0
POLYLINE
  8
0
 10
0
 20
0
 39
0
 70
1
 66
1
  0
VERTEX
  8
0
 10
122.75702667236328
 20
821.056396484375
 42
-1
  0
VERTEX
  8
0
 10
122.75702667236328
 20
789.056396484375
 42
-1
  0
SEQEND
  0
POLYLINE
  8
0
 10
0
 20
0
 39
0
 70
1
 66
1
  0
VERTEX
  8
0
 10
40.307704925537109
 20
868.25
 42
-1
  0
VERTEX
  8
0
 10
40.307704925537109
 20
836.25
 42
-1
  0
SEQEND
  0
POLYLINE
  8
0
 10
0
 20
0
 39
0
 70
1
 66
1
  0
VERTEX
  8
0
 10
182.69230651855469
 20
989.61407470703125
 42
-0
  0
VERTEX
  8
0
 10
417.65255737304687
 20
871.33697509765625
 42
0.97178131341934204
  0
VERTEX
  8
0
 10
446.14166259765625
 20
924.11407470703125
 42
0
  0
VERTEX
  8
0
 10
332.69232177734375
 20
989.61407470703125
 42
0
  0
SEQEND
  0
POLYLINE
  8
0
 10
0
 20
0
 39
0
 70
1
 66
1
  0
VERTEX
  8
0
 10
348.69232177734375
 20
929.326904296875
 42
-1
  0
VERTEX
  8
0
 10
348.69232177734375
 20
961.326904296875
 42
-1
  0
SEQEND
  0
POLYLINE
  8
0
 10
0
 20
0
 39
0
 70
1
 66
1
  0
VERTEX
  8
0
 10
431.14163208007812
 20
882.13336181640625
 42
-1
  0
VERTEX
  8
0
 10
431.14163208007812
 20
914.13336181640625
 42
-1
  0
SEQEND
  0
POLYLINE
  8
0
 10
0
 20
0
 39
0
 70
1
 66
1
  0
VERTEX
  8
0
 10
461.14163208007812
 20
837.84613037109375
 42
-0
  0
VERTEX
  8
0
 10
226.181396484375
 20
956.123291015625
 42
0.97178131341934204
  0
VERTEX
  8
0
 10
197.69230651855469
 20
903.34613037109375
 42
0
  0
VERTEX
  8
0
 10
311.14163208007813
 20
837.84613037109375
 42
0
  0
SEQEND
  0
POLYLINE
  8
0
 10
0
 20
0
 39
0
 70
1
 66
1
  0
VERTEX
  8
0
 10
295.14163208007812
 20
898.13336181640625
 42
-1
  0
VERTEX
  8
0
 10
295.14163208007812
 20
866.13336181640625
 42
-1
  0
SEQEND
  0
POLYLINE
  8
0
 10
0
 20
0
 39
0
 70
1
 66
1
  0
VERTEX
  8
0
 10
212.69232177734375
 20
945.326904296875
 42
-1
  0
VERTEX
  8
0
 10
212.69232177734375
 20
913.326904296875
 42
-1
  0
SEQEND
  0
POLYLINE
  8
0
 10
0
 20
0
 39
0
 70
1
 66
1
  0
VERTEX
  8
0
 10
462.84616088867188
 20
923.61407470703125
 42
-0
  0
VERTEX
  8
0
 10
697.806396484375
 20
805.33697509765625
 42
0.97178131341934204
  0
VERTEX
  8
0
 10
726.29547119140625
 20
858.11407470703125
 42
0
  0
VERTEX
  8
0
 10
612.84613037109375
 20
923.61407470703125
 42
0
  0
SEQEND
  0
POLYLINE
  8
0
 10
0
 20
0
 39
0
 70
1
 66
1
  0
VERTEX
  8
0
 10
628.84613037109375
 20
863.326904296875
 42
-1
  0
VERTEX
  8
0
 10
628.84613037109375
 20
895.326904296875
 42
-1
  0
SEQEND
  0
POLYLINE
  8
0
 10
0
 20
0
 39
0
 70
1
 66
1
  0
VERTEX
  8
0
 10
711.29547119140625
 20
816.13336181640625
 42
-1
  0
VERTEX
  8
0
 10
711.29547119140625
 20
848.13336181640625
 42
-1
  0
SEQEND
  0
POLYLINE
  8
0
 10
0
 20
0
 39
0
 70
1
 66
1
  0
VERTEX
  8
0
 10
741.29547119140625
 20
771.84613037109375
 42
-0
  0
VERTEX
  8
0
 10
506.33523559570312
 20
890.123291015625
 42
0.97178131341934204
  0
VERTEX
  8
0
 10
477.84616088867187
 20
837.34613037109375
 42
0
  0
VERTEX
  8
0
 10
591.29547119140625
 20
771.84613037109375
 42
0
  0
SEQEND
  0
POLYLINE
  8
0
 10
0
 20
0
 39
0
 70
1
 66
1
  0
VERTEX
  8
0
 10
575.29547119140625
 20
832.13336181640625
 42
-1
  0
VERTEX
  8
0
 10
575.29547119140625
 20
800.13336181640625
 42
-1
  0
SEQEND
  0
POLYLINE
  8
0
 10
0
 20
0
 39
0
 70
1
 66
1
  0
VERTEX
  8
0
 10
492.84616088867187
 20
879.326904296875
 42
-1
  0
VERTEX
  8
0
 10
492.84616088867187
 20
847.326904296875
 42
-1
  0
SEQEND
  0
POLYLINE
  8
0
 10
0
 20
0
 39
0
 70
1
 66
1
  0
VERTEX
  8
0
 10
654.3846435546875
 20
989.61407470703125
 42
-0
  0
VERTEX
  8
0
 10
889.3448486328125
 20
871.33697509765625
 42
0.97178131341934204
  0
VERTEX
  8
0
 10
917.833984375
 20
924.11407470703125
 42
0
  0
VERTEX
  8
0
 10
804.3846435546875
 20
989.61407470703125
 42
0
  0
SEQEND
  0
POLYLINE
  8
0
 10
0
 20
0
 39
0
 70
1
 66
1
  0
VERTEX
  8
0
 10
820.3846435546875
 20
929.326904296875
 42
-1
  0
VERTEX
  8
0
 10
820.3846435546875
 20
961.326904296875
 42
-1
  0
SEQEND
  0
POLYLINE
  8
0
 10
0
 20
0
 39
0
 70
1
 66
1
  0
VERTEX
  8
0
 10
902.83392333984375
 20
882.13336181640625
 42
-1
  0
VERTEX
  8
0
 10
902.83392333984375
 20
914.13336181640625
 42
-1
  0
SEQEND
  0
POLYLINE
  8
0
 10
0
 20
0
 39
0
 70
1
 66
1
  0
VERTEX
  8
0
 10
932.83392333984375
 20
837.84613037109375
 42
-0
  0
VERTEX
  8
0
 10
697.87371826171875
 20
956.123291015625
 42
0.97178131341934204
  0
VERTEX
  8
0
 10
669.38458251953125
 20
903.34613037109375
 42
0
  0
VERTEX
  8
0
 10
782.83392333984375
 20
837.84613037109375
 42
0
  0
SEQEND
  0
POLYLINE
  8
0
 10
0
 20
0
 39
0
 70
1
 66
1
  0
VERTEX
  8
0
 10
766.83392333984375
 20
898.13336181640625
 42
-1
  0
VERTEX
  8
0
 10
766.83392333984375
 20
866.13336181640625
 42
-1
  0
SEQEND
  0
POLYLINE
  8
0
 10
0
 20
0
 39
0
 70
1
 66
1
  0
VERTEX
  8
0
 10
684.3846435546875
 20
945.326904296875
 42
-1
  0
VERTEX
  8
0
 10
684.3846435546875
 20
913.326904296875
 42
-1
  0
SEQEND
  0
POLYLINE
  8
0
 10
0
 20
0
 39
0
 70
1
 66
1
  0
VERTEX
  8
0
 10
934.5384521484375
 20
923.61407470703125
 42
-0
  0
VERTEX
  8
0
 10
1169.4986572265625
 20
805.33697509765625
 42
0.97178131341934204
  0
VERTEX
  8
0
 10
1197.98779296875
 20
858.11407470703125
 42
0
  0
VERTEX
  8
0
 10
1084.5384521484375
 20
923.61407470703125
 42
0
  0
SEQEND
  0
POLYLINE
  8
0
 10
0
 20
0
 39
0
 70
1
 66
1
  0
VERTEX
  8
0
 10
1100.5384521484375
 20
863.326904296875
 42
-1
  0
VERTEX
  8
0
 10
1100.5384521484375
 20
895.326904296875
 42
-1
  0
SEQEND
  0
POLYLINE
  8
0
 10
0
 20
0
 39
0
 70
1
 66
1
  0
VERTEX
  8
0
 10
1182.98779296875
 20
816.13336181640625
 42
-1
  0
VERTEX
  8
0
 10
1182.98779296875
 20
848.13336181640625
 42
-1
  0
SEQEND
  0
POLYLINE
  8
0
 10
0
 20
0
 39
0
 70
1
 66
1
  0
VERTEX
  8
0
 10
1212.98779296875
 20
771.84613037109375
 42
-0
  0
VERTEX
  8
0
 10
978.02752685546875
 20
890.123291015625
 42
0.97178131341934204
  0
VERTEX
  8
0
 10
949.5384521484375
 20
837.34613037109375
 42
0
  0
VERTEX
  8
0
 10
1062.98779296875
 20
771.84613037109375
 42
0
  0
SEQEND
  0
POLYLINE
  8
0
 10
0
 20
0
 39
0
 70
1
 66
1
  0
VERTEX
  8
0
 10
1046.98779296875
 20
832.13336181640625
 42
-1
  0
VERTEX
  8
0
 10
1046.98779296875
 20
800.13336181640625
 42
-1
  0
SEQEND
  0
POLYLINE
  8
0
 10
0
 20
0
 39
0
 70
1
 66
1
  0
VERTEX
  8
0
 10
964.5384521484375
 20
879.326904296875
 42
-1
  0
VERTEX
  8
0
 10
964.5384521484375
 20
847.326904296875
 42
-1
  0
SEQEND
  0
POLYLINE
  8
0
 10
0
 20
0
 39
0
 70
1
 66
1
  0
VERTEX
  8
0
 10
1993.3077392578125
 20
10.307692527770996
 42
-0
  0
VERTEX
  8
0
 10
2111.584716796875
 20
245.2679443359375
 42
0.97178131341934204
  0
VERTEX
  8
0
 10
2058.8076171875
 20
273.75701904296875
 42
0
  0
VERTEX
  8
0
 10
1993.3077392578125
 20
160.30769348144531
 42
0
  0
SEQEND
  0
POLYLINE
  8
0
 10
0
 20
0
 39
0
 70
1
 66
1
  0
VERTEX
  8
0
 10
2053.594970703125
 20
176.30769348144531
 42
-1
  0
VERTEX
  8
0
 10
2021.5948486328125
 20
176.30769348144531
 42
-1
  0
SEQEND
  0
POLYLINE
  8
0
 10
0
 20
0
 39
0
 70
1
 66
1
  0
VERTEX
  8
0
 10
2100.788330078125
 20
258.75701904296875
 42
-1
  0
VERTEX
  8
0
 10
2068.788330078125
 20
258.75701904296875
 42
-1
  0
SEQEND
  0
POLYLINE
  8
0
 10
0
 20
0
 39
0
 70
1
 66
1
  0
VERTEX
  8
0
 10
2145.07568359375
 20
288.75701904296875
 42
-0
  0
VERTEX
  8
0
 10
2026.7984619140625
 20
53.796779632568359
 42
0.97178131341934204
  0
VERTEX
  8
0
 10
2079.57568359375
 20
25.307689666748047
 42
0
  0
VERTEX
  8
0
 10
2145.07568359375
 20
138.75703430175781
 42
0
  0
SEQEND
  0
POLYLINE
  8
0
 10
0
 20
0
 39
0
 70
1
 66
1
  0
VERTEX
  8
0
 10
2084.78857421875
 20
122.75702667236328
 42
-1
  0
VERTEX
  8
0
 10
2116.788330078125
 20
122.75702667236328
 42
-1
  0
SEQEND
  0
POLYLINE
  8
0
 10
0
 20
0
 39
0
 70
1
 66
1
  0
VERTEX
  8
0
 10
2037.5948486328125
 20
40.307704925537109
 42
-1
  0
VERTEX
  8
0
 10
2069.594970703125
 20
40.307704925537109
 42
-1
  0
SEQEND
  0
POLYLINE
  8
0
 10
0
 20
0
 39
0
 70
1
 66
1
  0
VERTEX
  8
0
 10
1292.15380859375
 20
989.4615478515625
 42
-0.19762420654296875
  0
VERTEX
  8
0
 10
1098.15380859375
 20
989.4615478515625
 42
-0
  0
VERTEX
  8
0
 10
1050.15380859375
 20
989.4615478515625
 42
-0
  0
VERTEX
  8
0
 10
1050.15380859375
 20
949.4615478515625
 42
-0
  0
VERTEX
  8
0
 10
1098.15380859375
 20
929.4615478515625
 42
-0
  0
VERTEX
  8
0
 10
1292.15380859375
 20
929.4615478515625
 42
-0
  0
VERTEX
  8
0
 10
1340.15380859375
 20
949.4615478515625
 42
-0
  0
VERTEX
  8
0
 10
1340.15380859375
 20
989.4615478515625
 42
-0
  0
SEQEND
  0
POLYLINE
  8
0
 10
0
 20
0
 39
0
 70
1
 66
1
  0
VERTEX
  8
0
 10
1141.15380859375
 20
944.4615478515625
 42
-1
  0
VERTEX
  8
0
 10
1129.15380859375
 20
944.4615478515625
 42
-1
  0
SEQEND
  0
POLYLINE
  8
0
 10
0
 20
0
 39
0
 70
1
 66
1
  0
VERTEX
  8
0
 10
1261.15380859375
 20
944.4615478515625
 42
-1
  0
VERTEX
  8
0
 10
1249.15380859375
 20
944.4615478515625
 42
-1
  0
SEQEND
  0
POLYLINE
  8
0
 10
0
 20
0
 39
0
 70
1
 66
1
  0
VERTEX
  8
0
 10
1314.6153564453125
 20
561.5384521484375
 42
-0.19762420654296875
  0
VERTEX
  8
0
 10
1314.6153564453125
 20
367.5384521484375
 42
-0
  0
VERTEX
  8
0
 10
1314.6153564453125
 20
319.5384521484375
 42
-0
  0
VERTEX
  8
0
 10
1354.6153564453125
 20
319.5384521484375
 42
-0
  0
VERTEX
  8
0
 10
1374.6153564453125
 20
367.5384521484375
 42
-0
  0
VERTEX
  8
0
 10
1374.6153564453125
 20
561.5384521484375
 42
-0
  0
VERTEX
  8
0
 10
1354.6153564453125
 20
609.5384521484375
 42
-0
  0
VERTEX
  8
0
 10
1314.6153564453125
 20
609.5384521484375
 42
-0
  0
SEQEND
  0
POLYLINE
  8
0
 10
0
 20
0
 39
0
 70
1
 66
1
  0
VERTEX
  8
0
 10
1359.6153564453125
 20
410.5384521484375
 42
-1
  0
VERTEX
  8
0
 10
1359.6153564453125
 20
398.5384521484375
 42
-1
  0
SEQEND
  0
POLYLINE
  8
0
 10
0
 20
0
 39
0
 70
1
 66
1
  0
VERTEX
  8
0
 10
1359.6153564453125
 20
530.5384521484375
 42
-1
  0
VERTEX
  8
0
 10
1359.6153564453125
 20
518.5384521484375
 42
-1
  0
SEQEND
  0
POLYLINE
  8
0
 10
0
 20
0
 39
0
 70
1
 66
1
  0
VERTEX
  8
0
 10
1615.769287109375
 20
912.5384521484375
 42
-0.19762420654296875
  0
VERTEX
  8
0
 10
1615.769287109375
 20
718.5384521484375
 42
-0
  0
VERTEX
  8
0
 10
1615.769287109375
 20
670.5384521484375
 42
-0
  0
VERTEX
  8
0
 10
1655.769287109375
 20
670.5384521484375
 42
-0
  0
VERTEX
  8
0
 10
1675.769287109375
 20
718.5384521484375
 42
-0
  0
VERTEX
  8
0
 10
1675.769287109375
 20
912.5384521484375
 42
-0
  0
VERTEX
  8
0
 10
1655.769287109375
 20
960.5384521484375
 42
-0
  0
VERTEX
  8
0
 10
1615.769287109375
 20
960.5384521484375
 42
-0
  0
SEQEND
  0
POLYLINE
  8
0
 10
0
 20
0
 39
0
 70
1
 66
1
  0
VERTEX
  8
0
 10
1660.769287109375
 20
761.5384521484375
 42
-1
  0
VERTEX
  8
0
 10
1660.769287109375
 20
749.5384521484375
 42
-1
  0
SEQEND
  0
POLYLINE
  8
0
 10
0
 20
0
 39
0
 70
1
 66
1
  0
VERTEX
  8
0
 10
1660.769287109375
 20
881.5384521484375
 42
-1
  0
VERTEX
  8
0
 10
1660.769287109375
 20
869.5384521484375
 42
-1
  0
SEQEND
  0
POLYLINE
  8
0
 10
0
 20
0
 39
0
 70
1
 66
1
  0
VERTEX
  8
0
 10
2166.84619140625
 20
723.84619140625
 42
-0.19762420654296875
  0
VERTEX
  8
0
 10
2166.84619140625
 20
917.84613037109375
 42
-0
  0
VERTEX
  8
0
 10
2166.84619140625
 20
965.84613037109375
 42
-0
  0
VERTEX
  8
0
 10
2126.84619140625
 20
965.84613037109375
 42
-0
  0
VERTEX
  8
0
 10
2106.84619140625
 20
917.84613037109375
 42
-0
  0
VERTEX
  8
0
 10
2106.84619140625
 20
723.84613037109375
 42
-0
  0
VERTEX
  8
0
 10
2126.84619140625
 20
675.84613037109375
 42
-0
  0
VERTEX
  8
0
 10
2166.84619140625
 20
675.84613037109375
 42
-0
  0
SEQEND
  0
POLYLINE
  8
0
 10
0
 20
0
 39
0
 70
1
 66
1
  0
VERTEX
  8
0
 10
2121.84619140625
 20
874.84613037109375
 42
-1
  0
VERTEX
  8
0
 10
2121.84619140625
 20
886.84613037109375
 42
-1
  0
SEQEND
  0
POLYLINE
  8
0
 10
0
 20
0
 39
0
 70
1
 66
1
  0
VERTEX
  8
0
 10
2121.84619140625
 20
754.84613037109375
 42
-1
  0
VERTEX
  8
0
 10
2121.84619140625
 20
766.84613037109375
 42
-1
  0
SEQEND
  0
POLYLINE
  8
0
 10
0
 20
0
 39
0
 70
1
 66
1
  0
VERTEX
  8
0
 10
2912.923095703125
 20
747.3846435546875
 42
-0.19762420654296875
  0
VERTEX
  8
0
 10
2912.923095703125
 20
941.3846435546875
 42
-0
  0
VERTEX
  8
0
 10
2912.923095703125
 20
989.3846435546875
 42
-0
  0
VERTEX
  8
0
 10
2872.923095703125
 20
989.3846435546875
 42
-0
  0
VERTEX
  8
0
 10
2852.923095703125
 20
941.3846435546875
 42
-0
  0
VERTEX
  8
0
 10
2852.923095703125
 20
747.3846435546875
 42
-0
  0
VERTEX
  8
0
 10
2872.923095703125
 20
699.3846435546875
 42
-0
  0
VERTEX
  8
0
 10
2912.923095703125
 20
699.3846435546875
 42
-0
  0
SEQEND
  0
POLYLINE
  8
0
 10
0
 20
0
 39
0
 70
1
 66
1
  0
VERTEX
  8
0
 10
2867.923095703125
 20
898.3846435546875
 42
-1
  0
VERTEX
  8
0
 10
2867.923095703125
 20
910.3846435546875
 42
-1
  0
SEQEND
  0
POLYLINE
  8
0
 10
0
 20
0
 39
0
 70
1
 66
1
  0
VERTEX
  8
0
 10
2867.923095703125
 20
778.3846435546875
 42
-1
  0
VERTEX
  8
0
 10
2867.923095703125
 20
790.3846435546875
 42
-1
  0
SEQEND
  0
POLYLINE
  8
0
 10
0
 20
0
 39
0
 70
1
 66
1
  0
VERTEX
  8
0
 10
2915
 20
58.307712554931641
 42
-0.19762420654296875
  0
VERTEX
  8
0
 10
2915
 20
252.30769348144531
 42
-0
  0
VERTEX
  8
0
 10
2915
 20
300.30767822265625
 42
-0
  0
VERTEX
  8
0
 10
2875
 20
300.30767822265625
 42
-0
  0
VERTEX
  8
0
 10
2855
 20
252.30769348144531
 42
-0
  0
VERTEX
  8
0
 10
2855
 20
58.307693481445313
 42
-0
  0
VERTEX
  8
0
 10
2875
 20
10.307692527770996
 42
-0
  0
VERTEX
  8
0
 10
2915
 20
10.307692527770996
 42
-0
  0
SEQEND
  0
POLYLINE
  8
0
 10
0
 20
0
 39
0
 70
1
 66
1
  0
VERTEX
  8
0
 10
2870
 20
209.30769348144531
 42
-1
  0
VERTEX
  8
0
 10
2870
 20
221.30769348144531
 42
-1
  0
SEQEND
  0
POLYLINE
  8
0
 10
0
 20
0
 39
0
 70
1
 66
1
  0
VERTEX
  8
0
 10
2870
 20
89.307693481445312
 42
-1
  0
VERTEX
  8
0
 10
2870
 20
101.30769348144531
 42
-1
  0
SEQEND
  0
POLYLINE
  8
0
 10
0
 20
0
 39
0
 70
1
 66
1
  0
VERTEX
  8
0
 10
2917.076904296875
 20
874
 42
-0.19762420654296875
  0
VERTEX
  8
0
 10
2917.076904296875
 20
680
 42
-0
  0
VERTEX
  8
0
 10
2917.076904296875
 20
632
 42
-0
  0
VERTEX
  8
0
 10
2957.076904296875
 20
632
 42
-0
  0
VERTEX
  8
0
 10
2977.076904296875
 20
680
 42
-0
  0
VERTEX
  8
0
 10
2977.076904296875
 20
874
 42
-0
  0
VERTEX
  8
0
 10
2957.076904296875
 20
922
 42
-0
  0
VERTEX
  8
0
 10
2917.076904296875
 20
922
 42
-0
  0
SEQEND
  0
POLYLINE
  8
0
 10
0
 20
0
 39
0
 70
1
 66
1
  0
VERTEX
  8
0
 10
2962.076904296875
 20
723
 42
-1
  0
VERTEX
  8
0
 10
2962.076904296875
 20
711
 42
-1
  0
SEQEND
  0
POLYLINE
  8
0
 10
0
 20
0
 39
0
 70
1
 66
1
  0
VERTEX
  8
0
 10
2962.076904296875
 20
843
 42
-1
  0
VERTEX
  8
0
 10
2962.076904296875
 20
831
 42
-1
  0
SEQEND
  0
POLYLINE
  8
0
 10
0
 20
0
 39
0
 70
1
 66
1
  0
VERTEX
  8
0
 10
2920.769287109375
 20
314.84613037109375
 42
-0.19762420654296875
  0
VERTEX
  8
0
 10
2920.769287109375
 20
120.84615325927734
 42
-0
  0
VERTEX
  8
0
 10
2920.769287109375
 20
72.846153259277344
 42
-0
  0
VERTEX
  8
0
 10
2960.769287109375
 20
72.846153259277344
 42
-0
  0
VERTEX
  8
0
 10
2980.769287109375
 20
120.84615325927734
 42
-0
  0
VERTEX
  8
0
 10
2980.769287109375
 20
314.84616088867187
 42
-0
  0
VERTEX
  8
0
 10
2960.769287109375
 20
362.84616088867187
 42
-0
  0
VERTEX
  8
0
 10
2920.769287109375
 20
362.84616088867187
 42
-0
  0
SEQEND
  0
POLYLINE
  8
0
 10
0
 20
0
 39
0
 70
1
 66
1
  0
VERTEX
  8
0
 10
2965.769287109375
 20
163.84616088867187
 42
-1
  0
VERTEX
  8
0
 10
2965.769287109375
 20
151.84616088867187
 42
-1
  0
SEQEND
  0
POLYLINE
  8
0
 10
0
 20
0
 39
0
 70
1
 66
1
  0
VERTEX
  8
0
 10
2965.769287109375
 20
283.84616088867188
 42
-1
  0
VERTEX
  8
0
 10
2965.769287109375
 20
271.84616088867187
 42
-1
  0
SEQEND
  0
POLYLINE
  8
0
 10
0
 20
0
 39
0
 70
1
 66
1
  0
VERTEX
  8
0
 10
165.30769348144531
 20
922.5384521484375
 42
-0
  0
VERTEX
  8
0
 10
165.30769348144531
 20
972.5384521484375
 42
-0
  0
VERTEX
  8
0
 10
10.307692527770996
 20
972.5384521484375
 42
-0
  0
VERTEX
  8
0
 10
10.307692527770996
 20
922.5384521484375
 42
-0
  0
SEQEND
  0
POLYLINE
  8
0
 10
0
 20
0
 39
0
 70
1
 66
1
  0
VERTEX
  8
0
 10
145.55769348144531
 20
947.5384521484375
 42
-1
  0
VERTEX
  8
0
 10
125.05769348144531
 20
947.5384521484375
 42
-1
  0
SEQEND
  0
POLYLINE
  8
0
 10
0
 20
0
 39
0
 70
1
 66
1
  0
VERTEX
  8
0
 10
50.557693481445313
 20
947.5384521484375
 42
-1
  0
VERTEX
  8
0
 10
30.05769157409668
 20
947.5384521484375
 42
-1
  0
SEQEND
  0
POLYLINE
  8
0
 10
0
 20
0
 39
0
 70
1
 66
1
  0
VERTEX
  8
0
 10
453.76922607421875
 20
764.4615478515625
 42
-0
  0
VERTEX
  8
0
 10
453.76922607421875
 20
814.4615478515625
 42
-0
  0
VERTEX
  8
0
 10
298.76922607421875
 20
814.4615478515625
 42
-0
  0
VERTEX
  8
0
 10
298.76922607421875
 20
764.4615478515625
 42
-0
  0
SEQEND
  0
POLYLINE
  8
0
 10
0
 20
0
 39
0
 70
1
 66
1
  0
VERTEX
  8
0
 10
434.01922607421875
 20
789.4615478515625
 42
-1
  0
VERTEX
  8
0
 10
413.51922607421875
 20
789.4615478515625
 42
-1
  0
SEQEND
  0
POLYLINE
  8
0
 10
0
 20
0
 39
0
 70
1
 66
1
  0
VERTEX
  8
0
 10
339.01922607421875
 20
789.4615478515625
 42
-1
  0
VERTEX
  8
0
 10
318.51922607421875
 20
789.4615478515625
 42
-1
  0
SEQEND
  0
POLYLINE
  8
0
 10
0
 20
0
 39
0
 70
1
 66
1
  0
VERTEX
  8
0
 10
595.923095703125
 20
939.3846435546875
 42
-0
  0
VERTEX
  8
0
 10
595.923095703125
 20
989.3846435546875
 42
-0
  0
VERTEX
  8
0
 10
440.92306518554687
 20
989.3846435546875
 42
-0
  0
VERTEX
  8
0
 10
440.92306518554687
 20
939.3846435546875
 42
-0
  0
SEQEND
  0
POLYLINE
  8
0
 10
0
 20
0
 39
0
 70
1
 66
1
  0
VERTEX
  8
0
 10
576.173095703125
 20
964.3846435546875
 42
-1
  0
VERTEX
  8
0
 10
555.673095703125
 20
964.3846435546875
 42
-1
  0
SEQEND
  0
POLYLINE
  8
0
 10
0
 20
0
 39
0
 70
1
 66
1
  0
VERTEX
  8
0
 10
481.17306518554687
 20
964.3846435546875
 42
-1
  0
VERTEX
  8
0
 10
460.67306518554687
 20
964.3846435546875
 42
-1
  0
SEQEND
  0
POLYLINE
  8
0
 10
0
 20
0
 39
0
 70
1
 66
1
  0
VERTEX
  8
0
 10
906.30767822265625
 20
775.5384521484375
 42
-0
  0
VERTEX
  8
0
 10
906.30767822265625
 20
825.5384521484375
 42
-0
  0
VERTEX
  8
0
 10
751.30767822265625
 20
825.5384521484375
 42
-0
  0
VERTEX
  8
0
 10
751.30767822265625
 20
775.5384521484375
 42
-0
  0
SEQEND
  0
POLYLINE
  8
0
 10
0
 20
0
 39
0
 70
1
 66
1
  0
VERTEX
  8
0
 10
886.55767822265625
 20
800.5384521484375
 42
-1
  0
VERTEX
  8
0
 10
866.05767822265625
 20
800.5384521484375
 42
-1
  0
SEQEND
  0
POLYLINE
  8
0
 10
0
 20
0
 39
0
 70
1
 66
1
  0
VERTEX
  8
0
 10
791.55767822265625
 20
800.5384521484375
 42
-1
  0
VERTEX
  8
0
 10
771.05767822265625
 20
800.5384521484375
 42
-1
  0
SEQEND
  0
POLYLINE
  8
0
 10
0
 20
0
 39
0
 70
1
 66
1
  0
VERTEX
  8
0
 10
1223.230712890625
 20
760.76922607421875
 42
-0
  0
VERTEX
  8
0
 10
1273.230712890625
 20
760.76922607421875
 42
-0
  0
VERTEX
  8
0
 10
1273.230712890625
 20
915.76922607421875
 42
-0
  0
VERTEX
  8
0
 10
1223.230712890625
 20
915.76922607421875
 42
-0
  0
SEQEND
  0
POLYLINE
  8
0
 10
0
 20
0
 39
0
 70
1
 66
1
  0
VERTEX
  8
0
 10
1248.230712890625
 20
780.51922607421875
 42
-1
  0
VERTEX
  8
0
 10
1248.230712890625
 20
801.01922607421875
 42
-1
  0
SEQEND
  0
POLYLINE
  8
0
 10
0
 20
0
 39
0
 70
1
 66
1
  0
VERTEX
  8
0
 10
1248.230712890625
 20
875.51922607421875
 42
-1
  0
VERTEX
  8
0
 10
1248.230712890625
 20
896.01922607421875
 42
-1
  0
SEQEND
  0
POLYLINE
  8
0
 10
0
 20
0
 39
0
 70
1
 66
1
  0
VERTEX
  8
0
 10
1385
 20
371.69232177734375
 42
-0
  0
VERTEX
  8
0
 10
1435
 20
371.69232177734375
 42
-0
  0
VERTEX
  8
0
 10
1435
 20
526.69232177734375
 42
-0
  0
VERTEX
  8
0
 10
1385
 20
526.69232177734375
 42
-0
  0
SEQEND
  0
POLYLINE
  8
0
 10
0
 20
0
 39
0
 70
1
 66
1
  0
VERTEX
  8
0
 10
1410
 20
391.44232177734375
 42
-1
  0
VERTEX
  8
0
 10
1410
 20
411.94232177734375
 42
-1
  0
SEQEND
  0
POLYLINE
  8
0
 10
0
 20
0
 39
0
 70
1
 66
1
  0
VERTEX
  8
0
 10
1410
 20
486.44232177734375
 42
-1
  0
VERTEX
  8
0
 10
1410
 20
506.94232177734375
 42
-1
  0
SEQEND
  0
POLYLINE
  8
0
 10
0
 20
0
 39
0
 70
1
 66
1
  0
VERTEX
  8
0
 10
1445.4615478515625
 20
380.4615478515625
 42
-0
  0
VERTEX
  8
0
 10
1495.4615478515625
 20
380.4615478515625
 42
-0
  0
VERTEX
  8
0
 10
1495.4615478515625
 20
535.4615478515625
 42
-0
  0
VERTEX
  8
0
 10
1445.4615478515625
 20
535.4615478515625
 42
-0
  0
SEQEND
  0
POLYLINE
  8
0
 10
0
 20
0
 39
0
 70
1
 66
1
  0
VERTEX
  8
0
 10
1470.4615478515625
 20
400.2115478515625
 42
-1
  0
VERTEX
  8
0
 10
1470.4615478515625
 20
420.7115478515625
 42
-1
  0
SEQEND
  0
POLYLINE
  8
0
 10
0
 20
0
 39
0
 70
1
 66
1
  0
VERTEX
  8
0
 10
1470.4615478515625
 20
495.2115478515625
 42
-1
  0
VERTEX
  8
0
 10
1470.4615478515625
 20
515.7115478515625
 42
-1
  0
SEQEND
  0
POLYLINE
  8
0
 10
0
 20
0
 39
0
 70
1
 66
1
  0
VERTEX
  8
0
 10
1538.15380859375
 20
568.76922607421875
 42
-0
  0
VERTEX
  8
0
 10
1538.15380859375
 20
618.76922607421875
 42
-0
  0
VERTEX
  8
0
 10
1383.15380859375
 20
618.76922607421875
 42
-0
  0
VERTEX
  8
0
 10
1383.15380859375
 20
568.76922607421875
 42
-0
  0
SEQEND
  0
POLYLINE
  8
0
 10
0
 20
0
 39
0
 70
1
 66
1
  0
VERTEX
  8
0
 10
1518.40380859375
 20
593.76922607421875
 42
-1
  0
VERTEX
  8
0
 10
1497.90380859375
 20
593.76922607421875
 42
-1
  0
SEQEND
  0
POLYLINE
  8
0
 10
0
 20
0
 39
0
 70
1
 66
1
  0
VERTEX
  8
0
 10
1423.40380859375
 20
593.76922607421875
 42
-1
  0
VERTEX
  8
0
 10
1402.90380859375
 20
593.76922607421875
 42
-1
  0
SEQEND
  0
POLYLINE
  8
0
 10
0
 20
0
 39
0
 70
1
 66
1
  0
VERTEX
  8
0
 10
1505.923095703125
 20
380.4615478515625
 42
-0
  0
VERTEX
  8
0
 10
1555.923095703125
 20
380.4615478515625
 42
-0
  0
VERTEX
  8
0
 10
1555.923095703125
 20
535.4615478515625
 42
-0
  0
VERTEX
  8
0
 10
1505.923095703125
 20
535.4615478515625
 42
-0
  0
SEQEND
  0
POLYLINE
  8
0
 10
0
 20
0
 39
0
 70
1
 66
1
  0
VERTEX
  8
0
 10
1530.923095703125
 20
400.2115478515625
 42
-1
  0
VERTEX
  8
0
 10
1530.923095703125
 20
420.7115478515625
 42
-1
  0
SEQEND
  0
POLYLINE
  8
0
 10
0
 20
0
 39
0
 70
1
 66
1
  0
VERTEX
  8
0
 10
1530.923095703125
 20
495.2115478515625
 42
-1
  0
VERTEX
  8
0
 10
1530.923095703125
 20
515.7115478515625
 42
-1
  0
SEQEND
  0
POLYLINE
  8
0
 10
0
 20
0
 39
0
 70
1
 66
1
  0
VERTEX
  8
0
 10
2190.15380859375
 20
364.07693481445312
 42
-0
  0
VERTEX
  8
0
 10
2240.15380859375
 20
364.07693481445312
 42
-0
  0
VERTEX
  8
0
 10
2240.15380859375
 20
519.076904296875
 42
-0
  0
VERTEX
  8
0
 10
2190.15380859375
 20
519.076904296875
 42
-0
  0
SEQEND
  0
POLYLINE
  8
0
 10
0
 20
0
 39
0
 70
1
 66
1
  0
VERTEX
  8
0
 10
2215.15380859375
 20
383.82693481445312
 42
-1
  0
VERTEX
  8
0
 10
2215.15380859375
 20
404.32693481445312
 42
-1
  0
SEQEND
  0
POLYLINE
  8
0
 10
0
 20
0
 39
0
 70
1
 66
1
  0
VERTEX
  8
0
 10
2215.15380859375
 20
478.82693481445312
 42
-1
  0
VERTEX
  8
0
 10
2215.15380859375
 20
499.32693481445312
 42
-1
  0
SEQEND
  0
POLYLINE
  8
0
 10
0
 20
0
 39
0
 70
1
 66
1
  0
VERTEX
  8
0
 10
2435
 20
726.6153564453125
 42
-0
  0
VERTEX
  8
0
 10
2485
 20
726.6153564453125
 42
-0
  0
VERTEX
  8
0
 10
2485
 20
881.6153564453125
 42
-0
  0
VERTEX
  8
0
 10
2435
 20
881.6153564453125
 42
-0
  0
SEQEND
  0
POLYLINE
  8
0
 10
0
 20
0
 39
0
 70
1
 66
1
  0
VERTEX
  8
0
 10
2460
 20
746.3653564453125
 42
-1
  0
VERTEX
  8
0
 10
2460
 20
766.8653564453125
 42
-1
  0
SEQEND
  0
POLYLINE
  8
0
 10
0
 20
0
 39
0
 70
1
 66
1
  0
VERTEX
  8
0
 10
2460
 20
841.3653564453125
 42
-1
  0
VERTEX
  8
0
 10
2460
 20
861.8653564453125
 42
-1
  0
SEQEND
  0
POLYLINE
  8
0
 10
0
 20
0
 39
0
 70
1
 66
1
  0
VERTEX
  8
0
 10
2436.615478515625
 20
10.307692527770996
 42
-0
  0
VERTEX
  8
0
 10
2486.615478515625
 20
10.307692527770996
 42
-0
  0
VERTEX
  8
0
 10
2486.615478515625
 20
165.30769348144531
 42
-0
  0
VERTEX
  8
0
 10
2436.615478515625
 20
165.30769348144531
 42
-0
  0
SEQEND
  0
POLYLINE
  8
0
 10
0
 20
0
 39
0
 70
1
 66
1
  0
VERTEX
  8
0
 10
2461.615478515625
 20
30.05769157409668
 42
-1
  0
VERTEX
  8
0
 10
2461.615478515625
 20
50.557693481445313
 42
-1
  0
SEQEND
  0
POLYLINE
  8
0
 10
0
 20
0
 39
0
 70
1
 66
1
  0
VERTEX
  8
0
 10
2461.615478515625
 20
125.05769348144531
 42
-1
  0
VERTEX
  8
0
 10
2461.615478515625
 20
145.55769348144531
 42
-1
  0
SEQEND
  0
POLYLINE
  8
0
 10
0
 20
0
 39
0
 70
1
 66
1
  0
VERTEX
  8
0
 10
2516.15380859375
 20
939.15386962890625
 42
-0
  0
VERTEX
  8
0
 10
2516.15380859375
 20
989.15386962890625
 42
-0
  0
VERTEX
  8
0
 10
2361.15380859375
 20
989.15386962890625
 42
-0
  0
VERTEX
  8
0
 10
2361.15380859375
 20
939.15386962890625
 42
-0
  0
SEQEND
  0
POLYLINE
  8
0
 10
0
 20
0
 39
0
 70
1
 66
1
  0
VERTEX
  8
0
 10
2496.40380859375
 20
964.15386962890625
 42
-1
  0
VERTEX
  8
0
 10
2475.90380859375
 20
964.15386962890625
 42
-1
  0
SEQEND
  0
POLYLINE
  8
0
 10
0
 20
0
 39
0
 70
1
 66
1
  0
VERTEX
  8
0
 10
2401.40380859375
 20
964.15386962890625
 42
-1
  0
VERTEX
  8
0
 10
2380.90380859375
 20
964.15386962890625
 42
-1
  0
SEQEND
  0
POLYLINE
  8
0
 10
0
 20
0
 39
0
 70
1
 66
1
  0
VERTEX
  8
0
 10
2781.384521484375
 20
726.6153564453125
 42
-0
  0
VERTEX
  8
0
 10
2831.384521484375
 20
726.6153564453125
 42
-0
  0
VERTEX
  8
0
 10
2831.384521484375
 20
881.6153564453125
 42
-0
  0
VERTEX
  8
0
 10
2781.384521484375
 20
881.6153564453125
 42
-0
  0
SEQEND
  0
POLYLINE
  8
0
 10
0
 20
0
 39
0
 70
1
 66
1
  0
VERTEX
  8
0
 10
2806.384521484375
 20
746.3653564453125
 42
-1
  0
VERTEX
  8
0
 10
2806.384521484375
 20
766.8653564453125
 42
-1
  0
SEQEND
  0
POLYLINE
  8
0
 10
0
 20
0
 39
0
 70
1
 66
1
  0
VERTEX
  8
0
 10
2806.384521484375
 20
841.3653564453125
 42
-1
  0
VERTEX
  8
0
 10
2806.384521484375
 20
861.8653564453125
 42
-1
  0
SEQEND
  0
POLYLINE
  8
0
 10
0
 20
0
 39
0
 70
1
 66
1
  0
VERTEX
  8
0
 10
2782.769287109375
 20
10.307692527770996
 42
-0
  0
VERTEX
  8
0
 10
2832.769287109375
 20
10.307692527770996
 42
-0
  0
VERTEX
  8
0
 10
2832.769287109375
 20
165.30769348144531
 42
-0
  0
VERTEX
  8
0
 10
2782.769287109375
 20
165.30769348144531
 42
-0
  0
SEQEND
  0
POLYLINE
  8
0
 10
0
 20
0
 39
0
 70
1
 66
1
  0
VERTEX
  8
0
 10
2807.769287109375
 20
30.05769157409668
 42
-1
  0
VERTEX
  8
0
 10
2807.769287109375
 20
50.557693481445313
 42
-1
  0
SEQEND
  0
POLYLINE
  8
0
 10
0
 20
0
 39
0
 70
1
 66
1
  0
VERTEX
  8
0
 10
2807.769287109375
 20
125.05769348144531
 42
-1
  0
VERTEX
  8
0
 10
2807.769287109375
 20
145.55769348144531
 42
-1
  0
SEQEND
  0
POLYLINE
  8
0
 10
0
 20
0
 39
0
 70
1
 66
1
  0
VERTEX
  8
0
 10
2157.14697265625
 20
95.307289123535156
 42
1
  0
VERTEX
  8
0
 10
2156.776123046875
 20
10.308096885681152
 42
1
  0
SEQEND
  0
POLYLINE
  8
0
 10
0
 20
0
 39
0
 70
1
 66
1
  0
VERTEX
  8
0
 10
2157.027099609375
 20
67.807548522949219
 42
-1
  0
VERTEX
  8
0
 10
2156.89599609375
 20
37.807834625244141
 42
-1
  0
SEQEND
  0
POLYLINE
  8
0
 10
0
 20
0
 39
0
 70
1
 66
1
  0
VERTEX
  8
0
 10
2479.30078125
 20
260.53805541992187
 42
1
  0
VERTEX
  8
0
 10
2478.929931640625
 20
175.53886413574219
 42
1
  0
SEQEND
  0
POLYLINE
  8
0
 10
0
 20
0
 39
0
 70
1
 66
1
  0
VERTEX
  8
0
 10
2479.180908203125
 20
233.03831481933594
 42
-1
  0
VERTEX
  8
0
 10
2479.050048828125
 20
203.03860473632812
 42
-1
  0
SEQEND
  0
POLYLINE
  8
0
 10
0
 20
0
 39
0
 70
1
 66
1
  0
VERTEX
  8
0
 10
2539.762451171875
 20
95.307289123535156
 42
1
  0
VERTEX
  8
0
 10
2539.3916015625
 20
10.308096885681152
 42
1
  0
SEQEND
  0
POLYLINE
  8
0
 10
0
 20
0
 39
0
 70
1
 66
1
  0
VERTEX
  8
0
 10
2539.642333984375
 20
67.807548522949219
 42
-1
  0
VERTEX
  8
0
 10
2539.511474609375
 20
37.807834625244141
 42
-1
  0
SEQEND
  0
POLYLINE
  8
0
 10
0
 20
0
 39
0
 70
1
 66
1
  0
VERTEX
  8
0
 10
2749.762451171875
 20
989.53802490234375
 42
1
  0
VERTEX
  8
0
 10
2749.3916015625
 20
904.53887939453125
 42
1
  0
SEQEND
  0
POLYLINE
  8
0
 10
0
 20
0
 39
0
 70
1
 66
1
  0
VERTEX
  8
0
 10
2749.642333984375
 20
962.038330078125
 42
-1
  0
VERTEX
  8
0
 10
2749.511474609375
 20
932.03857421875
 42
-1
  0
SEQEND
  0
ENDSEC
  0
EOF
