  0
SECTION
  2
ENTITIES
  0
POLYLINE
  8
0
 10
0
 20
0
 39
0
 70
1
 66
1
  0
VERTEX
  8
0
 10
0
 20
0
 42
-0
  0
VERTEX
  8
0
 10
1500
 20
0
 42
-0
  0
VERTEX
  8
0
 10
1500
 20
800
 42
-0
  0
VERTEX
  8
0
 10
0
 20
800
 42
-0
  0
SEQEND
  0
POLYLINE
  8
0
 10
0
 20
0
 39
0
 70
1
 66
1
  0
VERTEX
  8
0
 10
410.19230769230768
 20
65.976212721604568
 42
-0
  0
VERTEX
  8
0
 10
210.19230769230768
 20
10.192307692307693
 42
-0
  0
VERTEX
  8
0
 10
10.192307692307679
 20
65.976212721604568
 42
0
  0
VERTEX
  8
0
 10
10.192307692307679
 20
420.97621272160455
 42
0
  0
VERTEX
  8
0
 10
410.19230769230768
 20
420.97621272160455
 42
0
  0
SEQEND
  0
POLYLINE
  8
0
 10
0
 20
0
 39
0
 70
1
 66
1
  0
VERTEX
  8
0
 10
370.19230769230768
 20
379.9229290301983
 42
-0
  0
VERTEX
  8
0
 10
50.192307692307679
 20
379.9229290301983
 42
-0
  0
VERTEX
  8
0
 10
50.192307692307679
 20
108.92291758610652
 42
1
  0
VERTEX
  8
0
 10
90.192307692307679
 20
108.92291758610652
 42
-1
  0
VERTEX
  8
0
 10
130.19230769230768
 20
108.92291758610652
 42
1
  0
VERTEX
  8
0
 10
170.19230769230768
 20
108.92291758610652
 42
0
  0
VERTEX
  8
0
 10
250.19230769230768
 20
108.92291758610652
 42
1
  0
VERTEX
  8
0
 10
290.19230769230768
 20
108.92291758610652
 42
-1
  0
VERTEX
  8
0
 10
330.19230769230768
 20
108.92291758610652
 42
1
  0
VERTEX
  8
0
 10
370.19230769230768
 20
108.92291758610652
 42
0
  0
SEQEND
  0
POLYLINE
  8
0
 10
0
 20
0
 39
0
 70
1
 66
1
  0
VERTEX
  8
0
 10
429.66852041391229
 20
389.69230769230774
 42
-0
  0
VERTEX
  8
0
 10
373.88461538461542
 20
589.69230769230774
 42
-0
  0
VERTEX
  8
0
 10
429.66852041391229
 20
789.69230769230774
 42
0
  0
VERTEX
  8
0
 10
784.66852041391235
 20
789.69230769230774
 42
0
  0
VERTEX
  8
0
 10
784.66852041391235
 20
389.69230769230779
 42
0
  0
SEQEND
  0
POLYLINE
  8
0
 10
0
 20
0
 39
0
 70
1
 66
1
  0
VERTEX
  8
0
 10
743.6152367225061
 20
429.69230769230774
 42
-0
  0
VERTEX
  8
0
 10
743.6152367225061
 20
749.69230769230774
 42
-0
  0
VERTEX
  8
0
 10
472.61522527841424
 20
749.69230769230774
 42
1
  0
VERTEX
  8
0
 10
472.61522527841424
 20
709.69230769230774
 42
-1
  0
VERTEX
  8
0
 10
472.61522527841424
 20
669.69230769230774
 42
1
  0
VERTEX
  8
0
 10
472.61522527841424
 20
629.69230769230774
 42
0
  0
VERTEX
  8
0
 10
472.61522527841424
 20
549.69230769230774
 42
1
  0
VERTEX
  8
0
 10
472.61522527841424
 20
509.69230769230774
 42
-1
  0
VERTEX
  8
0
 10
472.61522527841424
 20
469.69230769230774
 42
1
  0
VERTEX
  8
0
 10
472.61522527841424
 20
429.69230769230774
 42
0
  0
SEQEND
  0
POLYLINE
  8
0
 10
0
 20
0
 39
0
 70
1
 66
1
  0
VERTEX
  8
0
 10
735.38461538461547
 20
365.19230769230768
 42
-0
  0
VERTEX
  8
0
 10
935.38461538461547
 20
420.97621272160455
 42
-0
  0
VERTEX
  8
0
 10
1135.3846153846155
 20
365.19230769230774
 42
0
  0
VERTEX
  8
0
 10
1135.3846153846155
 20
10.192307692307736
 42
0
  0
VERTEX
  8
0
 10
735.38461538461559
 20
10.192307692307679
 42
0
  0
SEQEND
  0
POLYLINE
  8
0
 10
0
 20
0
 39
0
 70
1
 66
1
  0
VERTEX
  8
0
 10
775.38461538461547
 20
51.245591383713929
 42
-0
  0
VERTEX
  8
0
 10
1095.3846153846155
 20
51.245591383713986
 42
-0
  0
VERTEX
  8
0
 10
1095.3846153846155
 20
322.24560282780578
 42
1
  0
VERTEX
  8
0
 10
1055.3846153846155
 20
322.24560282780578
 42
-1
  0
VERTEX
  8
0
 10
1015.3846153846155
 20
322.24560282780578
 42
1
  0
VERTEX
  8
0
 10
975.38461538461547
 20
322.24560282780578
 42
0
  0
VERTEX
  8
0
 10
895.38461538461547
 20
322.24560282780573
 42
1
  0
VERTEX
  8
0
 10
855.38461538461547
 20
322.24560282780573
 42
-1
  0
VERTEX
  8
0
 10
815.38461538461547
 20
322.24560282780573
 42
1
  0
VERTEX
  8
0
 10
775.38461538461547
 20
322.24560282780573
 42
0
  0
SEQEND
  0
POLYLINE
  8
0
 10
0
 20
0
 39
0
 70
1
 66
1
  0
VERTEX
  8
0
 10
1324.5
 20
434.74544349083538
 42
-0
  0
VERTEX
  8
0
 10
1124.5
 20
378.96153846153851
 42
-0
  0
VERTEX
  8
0
 10
924.5
 20
434.74544349083538
 42
0
  0
VERTEX
  8
0
 10
924.5
 20
789.74544349083544
 42
0
  0
VERTEX
  8
0
 10
1324.5
 20
789.74544349083544
 42
0
  0
SEQEND
  0
POLYLINE
  8
0
 10
0
 20
0
 39
0
 70
1
 66
1
  0
VERTEX
  8
0
 10
1284.5
 20
748.69215979942919
 42
-0
  0
VERTEX
  8
0
 10
964.5
 20
748.69215979942919
 42
-0
  0
VERTEX
  8
0
 10
964.5
 20
477.69214835533734
 42
1
  0
VERTEX
  8
0
 10
1004.5
 20
477.69214835533734
 42
-1
  0
VERTEX
  8
0
 10
1044.5
 20
477.69214835533734
 42
1
  0
VERTEX
  8
0
 10
1084.5
 20
477.69214835533734
 42
0
  0
VERTEX
  8
0
 10
1164.5
 20
477.69214835533734
 42
1
  0
VERTEX
  8
0
 10
1204.5
 20
477.69214835533734
 42
-1
  0
VERTEX
  8
0
 10
1244.5
 20
477.69214835533734
 42
1
  0
VERTEX
  8
0
 10
1284.5
 20
477.69214835533734
 42
0
  0
SEQEND
  0
POLYLINE
  8
0
 10
0
 20
0
 39
0
 70
1
 66
1
  0
VERTEX
  8
0
 10
128.20499437526161
 20
665.99887729328634
 42
-1
  0
VERTEX
  8
0
 10
127.17961673056999
 20
431.0011184279299
 42
-1
  0
SEQEND
  0
POLYLINE
  8
0
 10
0
 20
0
 39
0
 70
1
 66
1
  0
VERTEX
  8
0
 10
128.04137028302358
 20
628.49923492115499
 42
-0
  0
VERTEX
  8
0
 10
66.34655060330698
 20
588.76805098196883
 42
-0
  0
VERTEX
  8
0
 10
65.997485873199196
 20
508.76881392142201
 42
0
  0
VERTEX
  8
0
 10
127.34324082280801
 20
468.50076080006124
 42
-0
  0
VERTEX
  8
0
 10
189.03805287320284
 20
508.23194477253674
 42
-0
  0
VERTEX
  8
0
 10
189.38711760331063
 20
588.23118183308361
 42
0
  0
SEQEND
  0
POLYLINE
  8
0
 10
0
 20
0
 39
0
 70
1
 66
1
  0
VERTEX
  8
0
 10
178.39730206756929
 20
357.92195421636325
 42
-1
  0
VERTEX
  8
0
 10
177.37192442287767
 20
122.9241953510068
 42
-1
  0
SEQEND
  0
POLYLINE
  8
0
 10
0
 20
0
 39
0
 70
1
 66
1
  0
VERTEX
  8
0
 10
178.23367797533126
 20
320.4223118442319
 42
-0
  0
VERTEX
  8
0
 10
116.53885829561466
 20
280.69112790504579
 42
-0
  0
VERTEX
  8
0
 10
116.18979356550687
 20
200.69189084449891
 42
0
  0
VERTEX
  8
0
 10
177.53554851511569
 20
160.42383772313815
 42
-0
  0
VERTEX
  8
0
 10
239.23036056551052
 20
200.15502169561367
 42
-0
  0
VERTEX
  8
0
 10
239.57942529561831
 20
280.15425875616052
 42
0
  0
SEQEND
  0
POLYLINE
  8
0
 10
0
 20
0
 39
0
 70
1
 66
1
  0
VERTEX
  8
0
 10
538.3973020675694
 20
245.19118498559402
 42
-1
  0
VERTEX
  8
0
 10
537.37192442287778
 20
10.193426120237575
 42
-1
  0
SEQEND
  0
POLYLINE
  8
0
 10
0
 20
0
 39
0
 70
1
 66
1
  0
VERTEX
  8
0
 10
538.23367797533137
 20
207.69154261346267
 42
-0
  0
VERTEX
  8
0
 10
476.53885829561477
 20
167.96035867427656
 42
-0
  0
VERTEX
  8
0
 10
476.18979356550699
 20
87.961121613729688
 42
0
  0
VERTEX
  8
0
 10
537.53554851511581
 20
47.693068492368923
 42
-0
  0
VERTEX
  8
0
 10
599.23036056551064
 20
87.424252464844443
 42
-0
  0
VERTEX
  8
0
 10
599.57942529561842
 20
167.42348952539132
 42
0
  0
SEQEND
  0
POLYLINE
  8
0
 10
0
 20
0
 39
0
 70
1
 66
1
  0
VERTEX
  8
0
 10
717.80656960097872
 20
563.67961673057005
 42
-1
  0
VERTEX
  8
0
 10
482.80881073562227
 20
564.70499437526166
 42
-1
  0
SEQEND
  0
POLYLINE
  8
0
 10
0
 20
0
 39
0
 70
1
 66
1
  0
VERTEX
  8
0
 10
680.30692722884737
 20
563.84324082280807
 42
-0
  0
VERTEX
  8
0
 10
640.5757432896612
 20
625.53806050252467
 42
-0
  0
VERTEX
  8
0
 10
560.57650622911433
 20
625.88712523263246
 42
0
  0
VERTEX
  8
0
 10
520.30845310775362
 20
564.54137028302364
 42
-0
  0
VERTEX
  8
0
 10
560.03963708022911
 20
502.84655823262881
 42
-0
  0
VERTEX
  8
0
 10
640.03887414077599
 20
502.49749350252102
 42
0
  0
SEQEND
  0
POLYLINE
  8
0
 10
0
 20
0
 39
0
 70
1
 66
1
  0
VERTEX
  8
0
 10
903.58960975987702
 20
296.42195421636325
 42
-1
  0
VERTEX
  8
0
 10
902.5642321151854
 20
61.424195351006802
 42
-1
  0
SEQEND
  0
POLYLINE
  8
0
 10
0
 20
0
 39
0
 70
1
 66
1
  0
VERTEX
  8
0
 10
903.425985667639
 20
258.9223118442319
 42
-0
  0
VERTEX
  8
0
 10
841.7311659879224
 20
219.19112790504579
 42
-0
  0
VERTEX
  8
0
 10
841.38210125781461
 20
139.19189084449891
 42
0
  0
VERTEX
  8
0
 10
902.72785620742343
 20
98.923837723138149
 42
-0
  0
VERTEX
  8
0
 10
964.42266825781826
 20
138.65502169561367
 42
-0
  0
VERTEX
  8
0
 10
964.77173298792604
 20
218.65425875616054
 42
0
  0
SEQEND
  0
POLYLINE
  8
0
 10
0
 20
0
 39
0
 70
1
 66
1
  0
VERTEX
  8
0
 10
1092.7049943752618
 20
726.69118498559408
 42
-1
  0
VERTEX
  8
0
 10
1091.6796167305702
 20
491.69342612023763
 42
-1
  0
SEQEND
  0
POLYLINE
  8
0
 10
0
 20
0
 39
0
 70
1
 66
1
  0
VERTEX
  8
0
 10
1092.5413702830238
 20
689.19154261346273
 42
-0
  0
VERTEX
  8
0
 10
1030.8465506033072
 20
649.46035867427668
 42
-0
  0
VERTEX
  8
0
 10
1030.4974858731994
 20
569.4611216137298
 42
0
  0
VERTEX
  8
0
 10
1091.8432408228082
 20
529.19306849236898
 42
-0
  0
VERTEX
  8
0
 10
1153.538052873203
 20
568.92425246484447
 42
-0
  0
VERTEX
  8
0
 10
1153.8871176033108
 20
648.92348952539135
 42
0
  0
SEQEND
  0
POLYLINE
  8
0
 10
0
 20
0
 39
0
 70
1
 66
1
  0
VERTEX
  8
0
 10
1332.1538461538462
 20
40.192307692307693
 42
-0
  0
VERTEX
  8
0
 10
1332.1538461538462
 20
420.19230769230768
 42
-1
  0
VERTEX
  8
0
 10
1392.1538461538462
 20
420.19230769230768
 42
-0
  0
VERTEX
  8
0
 10
1392.1538461538462
 20
40.192307692307693
 42
-1
  0
SEQEND
  0
POLYLINE
  8
0
 10
0
 20
0
 39
0
 70
1
 66
1
  0
VERTEX
  8
0
 10
1372.1538461538462
 20
40.192307692307693
 42
-0
  0
VERTEX
  8
0
 10
1372.1538461538462
 20
420.19230769230768
 42
1
  0
VERTEX
  8
0
 10
1352.1538461538462
 20
420.19230769230768
 42
0
  0
VERTEX
  8
0
 10
1352.1538461538462
 20
40.192307692307693
 42
1
  0
SEQEND
  0
POLYLINE
  8
0
 10
0
 20
0
 39
0
 70
1
 66
1
  0
VERTEX
  8
0
 10
1402.3076923076924
 20
40.192307692307693
 42
-0
  0
VERTEX
  8
0
 10
1402.3076923076924
 20
420.19230769230768
 42
-1
  0
VERTEX
  8
0
 10
1462.3076923076924
 20
420.19230769230768
 42
-0
  0
VERTEX
  8
0
 10
1462.3076923076924
 20
40.192307692307693
 42
-1
  0
SEQEND
  0
POLYLINE
  8
0
 10
0
 20
0
 39
0
 70
1
 66
1
  0
VERTEX
  8
0
 10
1442.3076923076924
 20
40.192307692307693
 42
-0
  0
VERTEX
  8
0
 10
1442.3076923076924
 20
420.19230769230768
 42
1
  0
VERTEX
  8
0
 10
1422.3076923076924
 20
420.19230769230768
 42
0
  0
VERTEX
  8
0
 10
1422.3076923076924
 20
40.192307692307693
 42
1
  0
SEQEND
  0
POLYLINE
  8
0
 10
0
 20
0
 39
0
 70
1
 66
1
  0
VERTEX
  8
0
 10
57.397382313095989
 20
755.53801240338282
 42
-1
  0
VERTEX
  8
0
 10
56.987231255219342
 20
661.53890885724024
 42
-1
  0
SEQEND
  0
POLYLINE
  8
0
 10
0
 20
0
 39
0
 70
1
 66
1
  0
VERTEX
  8
0
 10
51.582511458881328
 20
694.62693840803024
 42
-0
  0
VERTEX
  8
0
 10
51.503971894607076
 20
676.62711006940719
 42
-0
  0
VERTEX
  8
0
 10
62.601964809772454
 20
676.57868563382499
 42
0
  0
VERTEX
  8
0
 10
62.680504374046706
 20
694.57851397244804
 42
0.20607383549213409
  0
VERTEX
  8
0
 10
71.103829006438929
 20
702.92866530503522
 42
-0
  0
VERTEX
  8
0
 10
89.103657345061976
 20
702.85012574076097
 42
-0
  0
VERTEX
  8
0
 10
89.152081714065446
 20
713.94810339728281
 42
0
  0
VERTEX
  8
0
 10
71.152253375442399
 20
714.02664296155706
 42
0.20607383549213409
  0
VERTEX
  8
0
 10
62.802117301498726
 20
722.44996752737052
 42
-0
  0
VERTEX
  8
0
 10
62.880656865772977
 20
740.44979586599356
 42
-0
  0
VERTEX
  8
0
 10
51.782663950607599
 20
740.49822030157577
 42
0
  0
VERTEX
  8
0
 10
51.704124386333348
 20
722.49839196295272
 42
0.20607383549213409
  0
VERTEX
  8
0
 10
43.280799820519917
 20
714.14825588900908
 42
-0
  0
VERTEX
  8
0
 10
25.28097148189687
 20
714.22679545328333
 42
-0
  0
VERTEX
  8
0
 10
25.2325471128934
 20
703.1288177967615
 42
0
  0
VERTEX
  8
0
 10
43.232375451516447
 20
703.05027823248724
 42
0.20607383549213409
  0
SEQEND
  0
POLYLINE
  8
0
 10
0
 20
0
 39
0
 70
1
 66
1
  0
VERTEX
  8
0
 10
123.5127669284806
 20
586.73032009569056
 42
-1
  0
VERTEX
  8
0
 10
123.10261587060396
 20
492.73121654954798
 42
-1
  0
SEQEND
  0
POLYLINE
  8
0
 10
0
 20
0
 39
0
 70
1
 66
1
  0
VERTEX
  8
0
 10
117.69789607426594
 20
525.81924610033798
 42
-0
  0
VERTEX
  8
0
 10
117.61935650999169
 20
507.81941776171493
 42
-0
  0
VERTEX
  8
0
 10
128.71734942515707
 20
507.77099332613267
 42
0
  0
VERTEX
  8
0
 10
128.79588898943132
 20
525.77082166475566
 42
0.20607383549213409
  0
VERTEX
  8
0
 10
137.21921362182354
 20
534.12097299734296
 42
-0
  0
VERTEX
  8
0
 10
155.21904196044659
 20
534.04243343306871
 42
-0
  0
VERTEX
  8
0
 10
155.26746632945006
 20
545.14041108959054
 42
0
  0
VERTEX
  8
0
 10
137.26763799082701
 20
545.21895065386479
 42
0.20607383549213409
  0
VERTEX
  8
0
 10
128.91750191688334
 20
553.64227521967814
 42
-0
  0
VERTEX
  8
0
 10
128.99604148115759
 20
571.64210355830119
 42
-0
  0
VERTEX
  8
0
 10
117.89804856599221
 20
571.69052799388351
 42
0
  0
VERTEX
  8
0
 10
117.81950900171796
 20
553.69069965526046
 42
0.20607383549213409
  0
VERTEX
  8
0
 10
109.39618443590453
 20
545.34056358131681
 42
-0
  0
VERTEX
  8
0
 10
91.396356097281483
 20
545.41910314559107
 42
-0
  0
VERTEX
  8
0
 10
91.347931728278013
 20
534.32112548906923
 42
0
  0
VERTEX
  8
0
 10
109.34776006690106
 20
534.24258592479498
 42
0.20607383549213409
  0
SEQEND
  0
POLYLINE
  8
0
 10
0
 20
0
 39
0
 70
1
 66
1
  0
VERTEX
  8
0
 10
156.05122846694215
 20
789.57647394184437
 42
-1
  0
VERTEX
  8
0
 10
155.6410774090655
 20
695.57737039570179
 42
-1
  0
SEQEND
  0
POLYLINE
  8
0
 10
0
 20
0
 39
0
 70
1
 66
1
  0
VERTEX
  8
0
 10
150.23635761272749
 20
728.66539994649179
 42
-0
  0
VERTEX
  8
0
 10
150.15781804845324
 20
710.66557160786874
 42
-0
  0
VERTEX
  8
0
 10
161.25581096361861
 20
710.61714717228642
 42
0
  0
VERTEX
  8
0
 10
161.33435052789287
 20
728.61697551090947
 42
0.20607383549213409
  0
VERTEX
  8
0
 10
169.75767516028509
 20
736.96712684349677
 42
-0
  0
VERTEX
  8
0
 10
187.75750349890814
 20
736.88858727922252
 42
-0
  0
VERTEX
  8
0
 10
187.80592786791161
 20
747.98656493574435
 42
0
  0
VERTEX
  8
0
 10
169.80609952928856
 20
748.06510450001861
 42
0.20607383549213409
  0
VERTEX
  8
0
 10
161.45596345534489
 20
756.48842906583195
 42
-0
  0
VERTEX
  8
0
 10
161.53450301961914
 20
774.488257404455
 42
-0
  0
VERTEX
  8
0
 10
150.43651010445376
 20
774.53668184003732
 42
0
  0
VERTEX
  8
0
 10
150.35797054017951
 20
756.53685350141427
 42
0.20607383549213409
  0
VERTEX
  8
0
 10
141.93464597436608
 20
748.18671742747063
 42
-0
  0
VERTEX
  8
0
 10
123.93481763574303
 20
748.26525699174488
 42
-0
  0
VERTEX
  8
0
 10
123.88639326673956
 20
737.16727933522304
 42
0
  0
VERTEX
  8
0
 10
141.88622160536261
 20
737.08873977094879
 42
0.20607383549213409
  0
SEQEND
  0
POLYLINE
  8
0
 10
0
 20
0
 39
0
 70
1
 66
1
  0
VERTEX
  8
0
 10
173.70507462078834
 20
278.65339701876746
 42
-1
  0
VERTEX
  8
0
 10
173.29492356291169
 20
184.65429347262486
 42
-1
  0
SEQEND
  0
POLYLINE
  8
0
 10
0
 20
0
 39
0
 70
1
 66
1
  0
VERTEX
  8
0
 10
167.89020376657368
 20
217.74232302341485
 42
-0
  0
VERTEX
  8
0
 10
167.81166420229943
 20
199.74249468479181
 42
-0
  0
VERTEX
  8
0
 10
178.9096571174648
 20
199.69407024920952
 42
0
  0
VERTEX
  8
0
 10
178.98819668173905
 20
217.69389858783256
 42
0.20607383549213409
  0
VERTEX
  8
0
 10
187.41152131413128
 20
226.04404992041981
 42
-0
  0
VERTEX
  8
0
 10
205.41134965275432
 20
225.96551035614556
 42
-0
  0
VERTEX
  8
0
 10
205.4597740217578
 20
237.06348801266739
 42
0
  0
VERTEX
  8
0
 10
187.45994568313475
 20
237.14202757694164
 42
0.20607383549213409
  0
VERTEX
  8
0
 10
179.10980960919107
 20
245.56535214275505
 42
-0
  0
VERTEX
  8
0
 10
179.18834917346533
 20
263.56518048137809
 42
-0
  0
VERTEX
  8
0
 10
168.09035625829995
 20
263.61360491696041
 42
0
  0
VERTEX
  8
0
 10
168.0118166940257
 20
245.61377657833734
 42
0.20607383549213409
  0
VERTEX
  8
0
 10
159.58849212821227
 20
237.26364050439366
 42
-0
  0
VERTEX
  8
0
 10
141.58866378958922
 20
237.34218006866791
 42
-0
  0
VERTEX
  8
0
 10
141.54023942058575
 20
226.24420241214608
 42
0
  0
VERTEX
  8
0
 10
159.5400677592088
 20
226.16566284787183
 42
0.20607383549213409
  0
SEQEND
  0
POLYLINE
  8
0
 10
0
 20
0
 39
0
 70
1
 66
1
  0
VERTEX
  8
0
 10
240.97430539001905
 20
728.76878163415211
 42
-1
  0
VERTEX
  8
0
 10
240.56415433214241
 20
634.76967808800953
 42
-1
  0
SEQEND
  0
POLYLINE
  8
0
 10
0
 20
0
 39
0
 70
1
 66
1
  0
VERTEX
  8
0
 10
235.15943453580439
 20
667.85770763879952
 42
-0
  0
VERTEX
  8
0
 10
235.08089497153014
 20
649.85787930017648
 42
-0
  0
VERTEX
  8
0
 10
246.17888788669552
 20
649.80945486459427
 42
0
  0
VERTEX
  8
0
 10
246.25742745096977
 20
667.80928320321732
 42
0.20607383549213409
  0
VERTEX
  8
0
 10
254.68075208336199
 20
676.15943453580451
 42
-0
  0
VERTEX
  8
0
 10
272.68058042198504
 20
676.08089497153026
 42
-0
  0
VERTEX
  8
0
 10
272.72900479098848
 20
687.17887262805209
 42
0
  0
VERTEX
  8
0
 10
254.72917645236546
 20
687.25741219232634
 42
0.20607383549213409
  0
VERTEX
  8
0
 10
246.37904037842179
 20
695.6807367581398
 42
-0
  0
VERTEX
  8
0
 10
246.45757994269604
 20
713.68056509676285
 42
-0
  0
VERTEX
  8
0
 10
235.35958702753067
 20
713.72898953234505
 42
0
  0
VERTEX
  8
0
 10
235.28104746325641
 20
695.72916119372201
 42
0.20607383549213409
  0
VERTEX
  8
0
 10
226.85772289744298
 20
687.37902511977836
 42
-0
  0
VERTEX
  8
0
 10
208.85789455881994
 20
687.45756468405261
 42
-0
  0
VERTEX
  8
0
 10
208.80947018981647
 20
676.35958702753078
 42
0
  0
VERTEX
  8
0
 10
226.80929852843951
 20
676.28104746325653
 42
0.20607383549213409
  0
SEQEND
  0
POLYLINE
  8
0
 10
0
 20
0
 39
0
 70
1
 66
1
  0
VERTEX
  8
0
 10
287.93584385155759
 20
524.99955086492128
 42
-1
  0
VERTEX
  8
0
 10
287.52569279368095
 20
431.0004473187787
 42
-1
  0
SEQEND
  0
POLYLINE
  8
0
 10
0
 20
0
 39
0
 70
1
 66
1
  0
VERTEX
  8
0
 10
282.1209729973429
 20
464.08847686956869
 42
-0
  0
VERTEX
  8
0
 10
282.04243343306865
 20
446.08864853094565
 42
-0
  0
VERTEX
  8
0
 10
293.14042634823403
 20
446.04022409536339
 42
0
  0
VERTEX
  8
0
 10
293.21896591250828
 20
464.04005243398643
 42
0.20607383549213409
  0
VERTEX
  8
0
 10
301.6422905449005
 20
472.39020376657368
 42
-0
  0
VERTEX
  8
0
 10
319.64211888352355
 20
472.31166420229943
 42
-0
  0
VERTEX
  8
0
 10
319.69054325252705
 20
483.40964185882126
 42
0
  0
VERTEX
  8
0
 10
301.690714913904
 20
483.48818142309551
 42
0.20607383549213409
  0
VERTEX
  8
0
 10
293.3405788399603
 20
491.91150598890891
 42
-0
  0
VERTEX
  8
0
 10
293.41911840423455
 20
509.91133432753196
 42
-0
  0
VERTEX
  8
0
 10
282.32112548906917
 20
509.95975876311422
 42
0
  0
VERTEX
  8
0
 10
282.24258592479492
 20
491.95993042449118
 42
0.20607383549213409
  0
VERTEX
  8
0
 10
273.81926135898152
 20
483.60979435054753
 42
-0
  0
VERTEX
  8
0
 10
255.81943302035845
 20
483.68833391482178
 42
-0
  0
VERTEX
  8
0
 10
255.77100865135498
 20
472.59035625829995
 42
0
  0
VERTEX
  8
0
 10
273.77083698997802
 20
472.5118166940257
 42
0.20607383549213409
  0
SEQEND
  0
POLYLINE
  8
0
 10
0
 20
0
 39
0
 70
1
 66
1
  0
VERTEX
  8
0
 10
297.96153846153851
 20
534.38461538461547
 42
-0
  0
VERTEX
  8
0
 10
297.96153846153851
 20
734.38461538461547
 42
-0
  0
VERTEX
  8
0
 10
337.96153846153851
 20
734.38461538461547
 42
-0
  0
VERTEX
  8
0
 10
337.96153846153851
 20
534.38461538461547
 42
0
  0
SEQEND
  0
POLYLINE
  8
0
 10
0
 20
0
 39
0
 70
1
 66
1
  0
VERTEX
  8
0
 10
327.96153846153851
 20
550.98098417428832
 42
0
  0
VERTEX
  8
0
 10
327.96153846153851
 20
643.98098226693969
 42
0
  0
VERTEX
  8
0
 10
307.96153846153851
 20
643.98098226693969
 42
0
  0
VERTEX
  8
0
 10
307.96153846153851
 20
550.98098417428832
 42
0
  0
SEQEND
  0
POLYLINE
  8
0
 10
0
 20
0
 39
0
 70
1
 66
1
  0
VERTEX
  8
0
 10
305.57692307692309
 20
139.07692307692309
 42
-0
  0
VERTEX
  8
0
 10
305.57692307692309
 20
339.07692307692309
 42
-0
  0
VERTEX
  8
0
 10
345.57692307692309
 20
339.07692307692309
 42
-0
  0
VERTEX
  8
0
 10
345.57692307692309
 20
139.07692307692309
 42
0
  0
SEQEND
  0
POLYLINE
  8
0
 10
0
 20
0
 39
0
 70
1
 66
1
  0
VERTEX
  8
0
 10
335.57692307692309
 20
155.67329186659595
 42
0
  0
VERTEX
  8
0
 10
335.57692307692309
 20
248.67328995924731
 42
0
  0
VERTEX
  8
0
 10
315.57692307692309
 20
248.67328995924731
 42
0
  0
VERTEX
  8
0
 10
315.57692307692309
 20
155.67329186659595
 42
0
  0
SEQEND
  0
POLYLINE
  8
0
 10
0
 20
0
 39
0
 70
1
 66
1
  0
VERTEX
  8
0
 10
620.38461538461547
 20
255.26923076923077
 42
-0
  0
VERTEX
  8
0
 10
420.38461538461547
 20
255.26923076923077
 42
-0
  0
VERTEX
  8
0
 10
420.38461538461547
 20
295.26923076923077
 42
-0
  0
VERTEX
  8
0
 10
620.38461538461547
 20
295.26923076923077
 42
0
  0
SEQEND
  0
POLYLINE
  8
0
 10
0
 20
0
 39
0
 70
1
 66
1
  0
VERTEX
  8
0
 10
603.78824659494262
 20
285.26923076923077
 42
0
  0
VERTEX
  8
0
 10
510.78824850229125
 20
285.26923076923077
 42
0
  0
VERTEX
  8
0
 10
510.78824850229125
 20
265.26923076923077
 42
0
  0
VERTEX
  8
0
 10
603.78824659494262
 20
265.26923076923077
 42
0
  0
SEQEND
  0
POLYLINE
  8
0
 10
0
 20
0
 39
0
 70
1
 66
1
  0
VERTEX
  8
0
 10
620.38461538461547
 20
305.34615384615387
 42
-0
  0
VERTEX
  8
0
 10
420.38461538461547
 20
305.34615384615387
 42
-0
  0
VERTEX
  8
0
 10
420.38461538461547
 20
345.34615384615387
 42
-0
  0
VERTEX
  8
0
 10
620.38461538461547
 20
345.34615384615387
 42
0
  0
SEQEND
  0
POLYLINE
  8
0
 10
0
 20
0
 39
0
 70
1
 66
1
  0
VERTEX
  8
0
 10
603.78824659494262
 20
335.34615384615387
 42
0
  0
VERTEX
  8
0
 10
510.78824850229125
 20
335.34615384615387
 42
0
  0
VERTEX
  8
0
 10
510.78824850229125
 20
315.34615384615387
 42
0
  0
VERTEX
  8
0
 10
603.78824659494262
 20
315.34615384615387
 42
0
  0
SEQEND
  0
POLYLINE
  8
0
 10
0
 20
0
 39
0
 70
1
 66
1
  0
VERTEX
  8
0
 10
654.73076923076928
 20
179.46153846153848
 42
-0
  0
VERTEX
  8
0
 10
654.73076923076928
 20
379.46153846153845
 42
-0
  0
VERTEX
  8
0
 10
694.73076923076928
 20
379.46153846153845
 42
-0
  0
VERTEX
  8
0
 10
694.73076923076928
 20
179.46153846153848
 42
0
  0
SEQEND
  0
POLYLINE
  8
0
 10
0
 20
0
 39
0
 70
1
 66
1
  0
VERTEX
  8
0
 10
684.73076923076928
 20
196.05790725121133
 42
0
  0
VERTEX
  8
0
 10
684.73076923076928
 20
289.05790534386267
 42
0
  0
VERTEX
  8
0
 10
664.73076923076928
 20
289.05790534386267
 42
0
  0
VERTEX
  8
0
 10
664.73076923076928
 20
196.05790725121133
 42
0
  0
SEQEND
  0
POLYLINE
  8
0
 10
0
 20
0
 39
0
 70
1
 66
1
  0
VERTEX
  8
0
 10
701.38461538461547
 20
699.26923076923083
 42
-0
  0
VERTEX
  8
0
 10
501.38461538461547
 20
699.26923076923083
 42
-0
  0
VERTEX
  8
0
 10
501.38461538461547
 20
739.26923076923083
 42
-0
  0
VERTEX
  8
0
 10
701.38461538461547
 20
739.26923076923083
 42
0
  0
SEQEND
  0
POLYLINE
  8
0
 10
0
 20
0
 39
0
 70
1
 66
1
  0
VERTEX
  8
0
 10
684.78824659494262
 20
729.26923076923083
 42
0
  0
VERTEX
  8
0
 10
591.78824850229125
 20
729.26923076923083
 42
0
  0
VERTEX
  8
0
 10
591.78824850229125
 20
709.26923076923083
 42
0
  0
VERTEX
  8
0
 10
684.78824659494262
 20
709.26923076923083
 42
0
  0
SEQEND
  0
POLYLINE
  8
0
 10
0
 20
0
 39
0
 70
1
 66
1
  0
VERTEX
  8
0
 10
794.80769230769238
 20
403.65384615384619
 42
-0
  0
VERTEX
  8
0
 10
794.80769230769238
 20
603.65384615384619
 42
-0
  0
VERTEX
  8
0
 10
834.80769230769238
 20
603.65384615384619
 42
-0
  0
VERTEX
  8
0
 10
834.80769230769238
 20
403.65384615384619
 42
0
  0
SEQEND
  0
POLYLINE
  8
0
 10
0
 20
0
 39
0
 70
1
 66
1
  0
VERTEX
  8
0
 10
824.80769230769238
 20
420.25021494351904
 42
0
  0
VERTEX
  8
0
 10
824.80769230769238
 20
513.25021303617041
 42
0
  0
VERTEX
  8
0
 10
804.80769230769238
 20
513.25021303617041
 42
0
  0
VERTEX
  8
0
 10
804.80769230769238
 20
420.25021494351904
 42
0
  0
SEQEND
  0
POLYLINE
  8
0
 10
0
 20
0
 39
0
 70
1
 66
1
  0
VERTEX
  8
0
 10
845.00000000000011
 20
417.73076923076928
 42
-0
  0
VERTEX
  8
0
 10
845.00000000000011
 20
617.73076923076928
 42
-0
  0
VERTEX
  8
0
 10
885.00000000000011
 20
617.73076923076928
 42
-0
  0
VERTEX
  8
0
 10
885.00000000000011
 20
417.73076923076928
 42
0
  0
SEQEND
  0
POLYLINE
  8
0
 10
0
 20
0
 39
0
 70
1
 66
1
  0
VERTEX
  8
0
 10
875.00000000000011
 20
434.32713802044213
 42
0
  0
VERTEX
  8
0
 10
875.00000000000011
 20
527.3271361130935
 42
0
  0
VERTEX
  8
0
 10
855.00000000000011
 20
527.3271361130935
 42
0
  0
VERTEX
  8
0
 10
855.00000000000011
 20
434.32713802044213
 42
0
  0
SEQEND
  0
POLYLINE
  8
0
 10
0
 20
0
 39
0
 70
1
 66
1
  0
VERTEX
  8
0
 10
1030.7692307692309
 20
61.423076923076927
 42
-0
  0
VERTEX
  8
0
 10
1030.7692307692309
 20
261.42307692307691
 42
-0
  0
VERTEX
  8
0
 10
1070.7692307692309
 20
261.42307692307691
 42
-0
  0
VERTEX
  8
0
 10
1070.7692307692309
 20
61.423076923076934
 42
0
  0
SEQEND
  0
POLYLINE
  8
0
 10
0
 20
0
 39
0
 70
1
 66
1
  0
VERTEX
  8
0
 10
1060.7692307692309
 20
78.019445712749786
 42
0
  0
VERTEX
  8
0
 10
1060.7692307692309
 20
171.01944380540115
 42
0
  0
VERTEX
  8
0
 10
1040.7692307692309
 20
171.01944380540115
 42
0
  0
VERTEX
  8
0
 10
1040.7692307692309
 20
78.019445712749786
 42
0
  0
SEQEND
  0
POLYLINE
  8
0
 10
0
 20
0
 39
0
 70
1
 66
1
  0
VERTEX
  8
0
 10
1145.5769230769231
 20
10.192307692307693
 42
-0
  0
VERTEX
  8
0
 10
1145.5769230769231
 20
210.19230769230768
 42
-0
  0
VERTEX
  8
0
 10
1185.5769230769231
 20
210.19230769230768
 42
-0
  0
VERTEX
  8
0
 10
1185.5769230769231
 20
10.192307692307699
 42
0
  0
SEQEND
  0
POLYLINE
  8
0
 10
0
 20
0
 39
0
 70
1
 66
1
  0
VERTEX
  8
0
 10
1175.5769230769231
 20
26.788676481980549
 42
0
  0
VERTEX
  8
0
 10
1175.5769230769231
 20
119.78867457463191
 42
0
  0
VERTEX
  8
0
 10
1155.5769230769231
 20
119.78867457463191
 42
0
  0
VERTEX
  8
0
 10
1155.5769230769231
 20
26.788676481980545
 42
0
  0
SEQEND
  0
POLYLINE
  8
0
 10
0
 20
0
 39
0
 70
1
 66
1
  0
VERTEX
  8
0
 10
1195.7692307692309
 20
10.192307692307693
 42
-0
  0
VERTEX
  8
0
 10
1195.7692307692309
 20
210.19230769230768
 42
-0
  0
VERTEX
  8
0
 10
1235.7692307692309
 20
210.19230769230768
 42
-0
  0
VERTEX
  8
0
 10
1235.7692307692309
 20
10.192307692307699
 42
0
  0
SEQEND
  0
POLYLINE
  8
0
 10
0
 20
0
 39
0
 70
1
 66
1
  0
VERTEX
  8
0
 10
1225.7692307692309
 20
26.788676481980549
 42
0
  0
VERTEX
  8
0
 10
1225.7692307692309
 20
119.78867457463191
 42
0
  0
VERTEX
  8
0
 10
1205.7692307692309
 20
119.78867457463191
 42
0
  0
VERTEX
  8
0
 10
1205.7692307692309
 20
26.788676481980545
 42
0
  0
SEQEND
  0
POLYLINE
  8
0
 10
0
 20
0
 39
0
 70
1
 66
1
  0
VERTEX
  8
0
 10
1219.8846153846155
 20
507.84615384615387
 42
-0
  0
VERTEX
  8
0
 10
1219.8846153846155
 20
707.84615384615381
 42
-0
  0
VERTEX
  8
0
 10
1259.8846153846155
 20
707.84615384615381
 42
-0
  0
VERTEX
  8
0
 10
1259.8846153846155
 20
507.84615384615387
 42
0
  0
SEQEND
  0
POLYLINE
  8
0
 10
0
 20
0
 39
0
 70
1
 66
1
  0
VERTEX
  8
0
 10
1249.8846153846155
 20
524.44252263582678
 42
0
  0
VERTEX
  8
0
 10
1249.8846153846155
 20
617.44252072847803
 42
0
  0
VERTEX
  8
0
 10
1229.8846153846155
 20
617.44252072847803
 42
0
  0
VERTEX
  8
0
 10
1229.8846153846155
 20
524.44252263582666
 42
0
  0
SEQEND
  0
POLYLINE
  8
0
 10
0
 20
0
 39
0
 70
1
 66
1
  0
VERTEX
  8
0
 10
665.57692307692309
 20
10.192307692307693
 42
-0
  0
VERTEX
  8
0
 10
665.57692307692309
 20
165.19230769230768
 42
0
  0
VERTEX
  8
0
 10
691.78079385023852
 20
165.19230769230768
 42
-0
  0
VERTEX
  8
0
 10
715.57692307692309
 20
141.39618037297174
 42
0
  0
VERTEX
  8
0
 10
715.57692307692309
 20
10.192307692307699
 42
0
  0
SEQEND
  0
POLYLINE
  8
0
 10
0
 20
0
 39
0
 70
1
 66
1
  0
VERTEX
  8
0
 10
690.57692307692309
 20
22.616251211899979
 42
1
  0
VERTEX
  8
0
 10
690.57692307692309
 20
50.616250258225662
 42
1
  0
SEQEND
  0
POLYLINE
  8
0
 10
0
 20
0
 39
0
 70
1
 66
1
  0
VERTEX
  8
0
 10
794.80769230769238
 20
627.84615384615392
 42
-0
  0
VERTEX
  8
0
 10
794.80769230769238
 20
782.84615384615392
 42
0
  0
VERTEX
  8
0
 10
821.01156308100781
 20
782.84615384615392
 42
-0
  0
VERTEX
  8
0
 10
844.80769230769238
 20
759.05002652681799
 42
0
  0
VERTEX
  8
0
 10
844.80769230769238
 20
627.84615384615392
 42
0
  0
SEQEND
  0
POLYLINE
  8
0
 10
0
 20
0
 39
0
 70
1
 66
1
  0
VERTEX
  8
0
 10
819.80769230769238
 20
640.27009736574621
 42
1
  0
VERTEX
  8
0
 10
819.80769230769238
 20
668.27009641207189
 42
1
  0
SEQEND
  0
POLYLINE
  8
0
 10
0
 20
0
 39
0
 70
1
 66
1
  0
VERTEX
  8
0
 10
855.03846153846155
 20
627.84615384615392
 42
-0
  0
VERTEX
  8
0
 10
855.03846153846155
 20
782.84615384615392
 42
0
  0
VERTEX
  8
0
 10
881.24233231177698
 20
782.84615384615392
 42
-0
  0
VERTEX
  8
0
 10
905.03846153846155
 20
759.05002652681799
 42
0
  0
VERTEX
  8
0
 10
905.03846153846155
 20
627.84615384615392
 42
0
  0
SEQEND
  0
POLYLINE
  8
0
 10
0
 20
0
 39
0
 70
1
 66
1
  0
VERTEX
  8
0
 10
880.03846153846155
 20
640.27009736574621
 42
1
  0
VERTEX
  8
0
 10
880.03846153846155
 20
668.27009641207189
 42
1
  0
SEQEND
  0
POLYLINE
  8
0
 10
0
 20
0
 39
0
 70
1
 66
1
  0
VERTEX
  8
0
 10
1149.8461538461538
 20
220.30769230769232
 42
-0
  0
VERTEX
  8
0
 10
1149.8461538461538
 20
375.30769230769232
 42
0
  0
VERTEX
  8
0
 10
1176.0500246194692
 20
375.30769230769232
 42
-0
  0
VERTEX
  8
0
 10
1199.8461538461538
 20
351.51156498835638
 42
0
  0
VERTEX
  8
0
 10
1199.8461538461538
 20
220.30769230769232
 42
0
  0
SEQEND
  0
POLYLINE
  8
0
 10
0
 20
0
 39
0
 70
1
 66
1
  0
VERTEX
  8
0
 10
1174.8461538461538
 20
232.73163582728461
 42
1
  0
VERTEX
  8
0
 10
1174.8461538461538
 20
260.73163487361029
 42
1
  0
SEQEND
  0
POLYLINE
  8
0
 10
0
 20
0
 39
0
 70
1
 66
1
  0
VERTEX
  8
0
 10
1210.0769230769231
 20
220.30769230769232
 42
-0
  0
VERTEX
  8
0
 10
1210.0769230769231
 20
375.30769230769232
 42
0
  0
VERTEX
  8
0
 10
1236.2807938502385
 20
375.30769230769232
 42
-0
  0
VERTEX
  8
0
 10
1260.0769230769231
 20
351.51156498835638
 42
0
  0
VERTEX
  8
0
 10
1260.0769230769231
 20
220.30769230769232
 42
0
  0
SEQEND
  0
POLYLINE
  8
0
 10
0
 20
0
 39
0
 70
1
 66
1
  0
VERTEX
  8
0
 10
1235.0769230769231
 20
232.73163582728461
 42
1
  0
VERTEX
  8
0
 10
1235.0769230769231
 20
260.73163487361029
 42
1
  0
SEQEND
  0
POLYLINE
  8
0
 10
0
 20
0
 39
0
 70
1
 66
1
  0
VERTEX
  8
0
 10
1245.9615384615386
 20
10.192307692307693
 42
-0
  0
VERTEX
  8
0
 10
1245.9615384615386
 20
165.19230769230768
 42
0
  0
VERTEX
  8
0
 10
1272.165409234854
 20
165.19230769230768
 42
-0
  0
VERTEX
  8
0
 10
1295.9615384615386
 20
141.39618037297174
 42
0
  0
VERTEX
  8
0
 10
1295.9615384615386
 20
10.192307692307699
 42
0
  0
SEQEND
  0
POLYLINE
  8
0
 10
0
 20
0
 39
0
 70
1
 66
1
  0
VERTEX
  8
0
 10
1270.9615384615386
 20
22.616251211899979
 42
1
  0
VERTEX
  8
0
 10
1270.9615384615386
 20
50.616250258225662
 42
1
  0
SEQEND
  0
POLYLINE
  8
0
 10
0
 20
0
 39
0
 70
1
 66
1
  0
VERTEX
  8
0
 10
1320.3076923076924
 20
313
 42
-0
  0
VERTEX
  8
0
 10
1320.3076923076924
 20
158
 42
0
  0
VERTEX
  8
0
 10
1294.1038215343769
 20
158
 42
-0
  0
VERTEX
  8
0
 10
1270.3076923076924
 20
181.79612731933594
 42
0
  0
VERTEX
  8
0
 10
1270.3076923076924
 20
313
 42
0
  0
SEQEND
  0
POLYLINE
  8
0
 10
0
 20
0
 39
0
 70
1
 66
1
  0
VERTEX
  8
0
 10
1295.3076923076924
 20
300.57605648040771
 42
1
  0
VERTEX
  8
0
 10
1295.3076923076924
 20
272.57605743408203
 42
1
  0
SEQEND
  0
POLYLINE
  8
0
 10
0
 20
0
 39
0
 70
1
 66
1
  0
VERTEX
  8
0
 10
1334.6923076923078
 20
460.19230769230774
 42
-0
  0
VERTEX
  8
0
 10
1334.6923076923078
 20
615.19230769230774
 42
0
  0
VERTEX
  8
0
 10
1360.8961784656233
 20
615.19230769230774
 42
-0
  0
VERTEX
  8
0
 10
1384.6923076923078
 20
591.3961803729718
 42
0
  0
VERTEX
  8
0
 10
1384.6923076923078
 20
460.19230769230774
 42
0
  0
SEQEND
  0
POLYLINE
  8
0
 10
0
 20
0
 39
0
 70
1
 66
1
  0
VERTEX
  8
0
 10
1359.6923076923078
 20
472.61625121190002
 42
1
  0
VERTEX
  8
0
 10
1359.6923076923078
 20
500.6162502582257
 42
1
  0
SEQEND
  0
POLYLINE
  8
0
 10
0
 20
0
 39
0
 70
1
 66
1
  0
VERTEX
  8
0
 10
1334.6923076923078
 20
625.30769230769238
 42
-0
  0
VERTEX
  8
0
 10
1334.6923076923078
 20
780.30769230769238
 42
0
  0
VERTEX
  8
0
 10
1360.8961784656233
 20
780.30769230769238
 42
-0
  0
VERTEX
  8
0
 10
1384.6923076923078
 20
756.51156498835644
 42
0
  0
VERTEX
  8
0
 10
1384.6923076923078
 20
625.30769230769238
 42
0
  0
SEQEND
  0
POLYLINE
  8
0
 10
0
 20
0
 39
0
 70
1
 66
1
  0
VERTEX
  8
0
 10
1359.6923076923078
 20
637.73163582728466
 42
1
  0
VERTEX
  8
0
 10
1359.6923076923078
 20
665.73163487361035
 42
1
  0
SEQEND
  0
POLYLINE
  8
0
 10
0
 20
0
 39
0
 70
1
 66
1
  0
VERTEX
  8
0
 10
1394.9230769230769
 20
460.19230769230774
 42
-0
  0
VERTEX
  8
0
 10
1394.9230769230769
 20
615.19230769230774
 42
0
  0
VERTEX
  8
0
 10
1421.1269476963923
 20
615.19230769230774
 42
-0
  0
VERTEX
  8
0
 10
1444.9230769230769
 20
591.3961803729718
 42
0
  0
VERTEX
  8
0
 10
1444.9230769230769
 20
460.19230769230774
 42
0
  0
SEQEND
  0
POLYLINE
  8
0
 10
0
 20
0
 39
0
 70
1
 66
1
  0
VERTEX
  8
0
 10
1419.9230769230769
 20
472.61625121190002
 42
1
  0
VERTEX
  8
0
 10
1419.9230769230769
 20
500.6162502582257
 42
1
  0
SEQEND
  0
POLYLINE
  8
0
 10
0
 20
0
 39
0
 70
1
 66
1
  0
VERTEX
  8
0
 10
1394.9230769230769
 20
625.30769230769238
 42
-0
  0
VERTEX
  8
0
 10
1394.9230769230769
 20
780.30769230769238
 42
0
  0
VERTEX
  8
0
 10
1421.1269476963923
 20
780.30769230769238
 42
-0
  0
VERTEX
  8
0
 10
1444.9230769230769
 20
756.51156498835644
 42
0
  0
VERTEX
  8
0
 10
1444.9230769230769
 20
625.30769230769238
 42
0
  0
SEQEND
  0
POLYLINE
  8
0
 10
0
 20
0
 39
0
 70
1
 66
1
  0
VERTEX
  8
0
 10
1419.9230769230769
 20
637.73163582728466
 42
1
  0
VERTEX
  8
0
 10
1419.9230769230769
 20
665.73163487361035
 42
1
  0
SEQEND
  0
POLYLINE
  8
0
 10
0
 20
0
 39
0
 70
1
 66
1
  0
VERTEX
  8
0
 10
317.69230769230774
 20
749.34615384615392
 42
-0
  0
VERTEX
  8
0
 10
212.69230769230774
 20
749.34615384615392
 42
-0
  0
VERTEX
  8
0
 10
212.69230769230774
 20
789.34615384615392
 42
0
  0
VERTEX
  8
0
 10
317.69230769230774
 20
789.34615384615392
 42
0
  0
SEQEND
  0
POLYLINE
  8
0
 10
0
 20
0
 39
0
 70
1
 66
1
  0
VERTEX
  8
0
 10
301.09593890263488
 20
779.34615384615392
 42
0
  0
VERTEX
  8
0
 10
265.19230769230774
 20
779.34615384615392
 42
1
  0
VERTEX
  8
0
 10
265.19230769230774
 20
759.34615384615392
 42
0
  0
VERTEX
  8
0
 10
301.09593890263488
 20
759.34615384615392
 42
0
  0
SEQEND
  0
POLYLINE
  8
0
 10
0
 20
0
 39
0
 70
1
 66
1
  0
VERTEX
  8
0
 10
348.15384615384619
 20
679.30769230769238
 42
-0
  0
VERTEX
  8
0
 10
348.15384615384619
 20
784.30769230769238
 42
-0
  0
VERTEX
  8
0
 10
388.15384615384619
 20
784.30769230769238
 42
0
  0
VERTEX
  8
0
 10
388.15384615384619
 20
679.30769230769238
 42
0
  0
SEQEND
  0
POLYLINE
  8
0
 10
0
 20
0
 39
0
 70
1
 66
1
  0
VERTEX
  8
0
 10
378.15384615384619
 20
695.90406109736523
 42
0
  0
VERTEX
  8
0
 10
378.15384615384619
 20
731.80769230769238
 42
1
  0
VERTEX
  8
0
 10
358.15384615384619
 20
731.80769230769238
 42
0
  0
VERTEX
  8
0
 10
358.15384615384619
 20
695.90406109736523
 42
0
  0
SEQEND
  0
POLYLINE
  8
0
 10
0
 20
0
 39
0
 70
1
 66
1
  0
VERTEX
  8
0
 10
514.65384615384619
 20
75.038461538461547
 42
-0
  0
VERTEX
  8
0
 10
514.65384615384619
 20
180.03846153846155
 42
-0
  0
VERTEX
  8
0
 10
554.65384615384619
 20
180.03846153846155
 42
0
  0
VERTEX
  8
0
 10
554.65384615384619
 20
75.038461538461547
 42
0
  0
SEQEND
  0
POLYLINE
  8
0
 10
0
 20
0
 39
0
 70
1
 66
1
  0
VERTEX
  8
0
 10
544.65384615384619
 20
91.634830328134399
 42
0
  0
VERTEX
  8
0
 10
544.65384615384619
 20
127.53846153846155
 42
1
  0
VERTEX
  8
0
 10
524.65384615384619
 20
127.53846153846155
 42
0
  0
VERTEX
  8
0
 10
524.65384615384619
 20
91.634830328134399
 42
0
  0
SEQEND
  0
POLYLINE
  8
0
 10
0
 20
0
 39
0
 70
1
 66
1
  0
VERTEX
  8
0
 10
650.69230769230774
 20
544.19230769230774
 42
-0
  0
VERTEX
  8
0
 10
545.69230769230774
 20
544.19230769230774
 42
-0
  0
VERTEX
  8
0
 10
545.69230769230774
 20
584.19230769230774
 42
0
  0
VERTEX
  8
0
 10
650.69230769230774
 20
584.19230769230774
 42
0
  0
SEQEND
  0
POLYLINE
  8
0
 10
0
 20
0
 39
0
 70
1
 66
1
  0
VERTEX
  8
0
 10
634.09593890263488
 20
574.19230769230774
 42
0
  0
VERTEX
  8
0
 10
598.19230769230774
 20
574.19230769230774
 42
1
  0
VERTEX
  8
0
 10
598.19230769230774
 20
554.19230769230774
 42
0
  0
VERTEX
  8
0
 10
634.09593890263488
 20
554.19230769230774
 42
0
  0
SEQEND
  0
POLYLINE
  8
0
 10
0
 20
0
 39
0
 70
1
 66
1
  0
VERTEX
  8
0
 10
879.84615384615392
 20
126.26923076923077
 42
-0
  0
VERTEX
  8
0
 10
879.84615384615392
 20
231.26923076923077
 42
-0
  0
VERTEX
  8
0
 10
919.84615384615392
 20
231.26923076923077
 42
0
  0
VERTEX
  8
0
 10
919.84615384615392
 20
126.26923076923077
 42
0
  0
SEQEND
  0
POLYLINE
  8
0
 10
0
 20
0
 39
0
 70
1
 66
1
  0
VERTEX
  8
0
 10
909.84615384615392
 20
142.86559955890363
 42
0
  0
VERTEX
  8
0
 10
909.84615384615392
 20
178.76923076923077
 42
1
  0
VERTEX
  8
0
 10
889.84615384615392
 20
178.76923076923077
 42
0
  0
VERTEX
  8
0
 10
889.84615384615392
 20
142.86559955890363
 42
0
  0
SEQEND
  0
POLYLINE
  8
0
 10
0
 20
0
 39
0
 70
1
 66
1
  0
VERTEX
  8
0
 10
1068.9615384615386
 20
556.53846153846155
 42
-0
  0
VERTEX
  8
0
 10
1068.9615384615386
 20
661.53846153846155
 42
-0
  0
VERTEX
  8
0
 10
1108.9615384615386
 20
661.53846153846155
 42
0
  0
VERTEX
  8
0
 10
1108.9615384615386
 20
556.53846153846155
 42
0
  0
SEQEND
  0
POLYLINE
  8
0
 10
0
 20
0
 39
0
 70
1
 66
1
  0
VERTEX
  8
0
 10
1098.9615384615386
 20
573.1348303281344
 42
0
  0
VERTEX
  8
0
 10
1098.9615384615386
 20
609.03846153846155
 42
1
  0
VERTEX
  8
0
 10
1078.9615384615386
 20
609.03846153846155
 42
0
  0
VERTEX
  8
0
 10
1078.9615384615386
 20
573.1348303281344
 42
0
  0
SEQEND
  0
ENDSEC
  0
EOF
