  0
SECTION
  2
ENTITIES
  0
POLYLINE
  8
0
 10
0
 20
0
 39
0
 70
1
 66
1
  0
VERTEX
  8
0
 10
0
 20
0
 42
-0
  0
VERTEX
  8
0
 10
2000
 20
0
 42
-0
  0
VERTEX
  8
0
 10
2000
 20
1300
 42
-0
  0
VERTEX
  8
0
 10
0
 20
1300
 42
-0
  0
SEQEND
  0
POLYLINE
  8
0
 10
0
 20
0
 39
0
 70
1
 66
1
  0
VERTEX
  8
0
 10
816.4000244140625
 20
1239.5999755859375
 42
-0.25831884145736694
  0
VERTEX
  8
0
 10
466.39999389648437
 20
1289.5999755859375
 42
-0.7645079493522644
  0
VERTEX
  8
0
 10
80.400001525878906
 20
1289.5999755859375
 42
0
  0
VERTEX
  8
0
 10
10.399999618530273
 20
1284.5999755859375
 42
-0
  0
VERTEX
  8
0
 10
10.399999618530273
 20
1084.5999755859375
 42
-0
  0
VERTEX
  8
0
 10
140.39999389648437
 20
1054.5999755859375
 42
-0
  0
VERTEX
  8
0
 10
420.39999389648437
 20
1054.5999755859375
 42
-0
  0
VERTEX
  8
0
 10
1060.4000244140625
 20
1179.5999755859375
 42
-0
  0
VERTEX
  8
0
 10
1060.4000244140625
 20
1239.5999755859375
 42
-0
  0
SEQEND
  0
POLYLINE
  8
0
 10
0
 20
0
 39
0
 70
1
 66
1
  0
VERTEX
  8
0
 10
470.39999389648437
 20
1106.5999755859375
 42
-1
  0
VERTEX
  8
0
 10
510.39999389648437
 20
1106.5999755859375
 42
-1
  0
SEQEND
  0
POLYLINE
  8
0
 10
0
 20
0
 39
0
 70
1
 66
1
  0
VERTEX
  8
0
 10
25.399999618530273
 20
1106.5999755859375
 42
-1
  0
VERTEX
  8
0
 10
65.400001525878906
 20
1106.5999755859375
 42
-1
  0
SEQEND
  0
POLYLINE
  8
0
 10
0
 20
0
 39
0
 70
1
 66
1
  0
VERTEX
  8
0
 10
1183.4000244140625
 20
1085.199951171875
 42
-0.25831884145736694
  0
VERTEX
  8
0
 10
1533.4000244140625
 20
1035.199951171875
 42
-0.7645079493522644
  0
VERTEX
  8
0
 10
1919.4000244140625
 20
1035.199951171875
 42
0
  0
VERTEX
  8
0
 10
1989.4000244140625
 20
1040.199951171875
 42
-0
  0
VERTEX
  8
0
 10
1989.4000244140625
 20
1240.199951171875
 42
-0
  0
VERTEX
  8
0
 10
1859.4000244140625
 20
1270.199951171875
 42
-0
  0
VERTEX
  8
0
 10
1579.4000244140625
 20
1270.199951171875
 42
-0
  0
VERTEX
  8
0
 10
939.4000244140625
 20
1145.199951171875
 42
-0
  0
VERTEX
  8
0
 10
939.4000244140625
 20
1085.199951171875
 42
-0
  0
SEQEND
  0
POLYLINE
  8
0
 10
0
 20
0
 39
0
 70
1
 66
1
  0
VERTEX
  8
0
 10
1529.4000244140625
 20
1218.199951171875
 42
-1
  0
VERTEX
  8
0
 10
1489.4000244140625
 20
1218.199951171875
 42
-1
  0
SEQEND
  0
POLYLINE
  8
0
 10
0
 20
0
 39
0
 70
1
 66
1
  0
VERTEX
  8
0
 10
1974.4000244140625
 20
1218.199951171875
 42
-1
  0
VERTEX
  8
0
 10
1934.4000244140625
 20
1218.199951171875
 42
-1
  0
SEQEND
  0
POLYLINE
  8
0
 10
0
 20
0
 39
0
 70
1
 66
1
  0
VERTEX
  8
0
 10
1657.199951171875
 20
1048.5999755859375
 42
-0.25831884145736694
  0
VERTEX
  8
0
 10
1307.199951171875
 20
1098.5999755859375
 42
-0.7645079493522644
  0
VERTEX
  8
0
 10
921.20001220703125
 20
1098.5999755859375
 42
0
  0
VERTEX
  8
0
 10
851.20001220703125
 20
1093.5999755859375
 42
-0
  0
VERTEX
  8
0
 10
851.20001220703125
 20
893.5999755859375
 42
-0
  0
VERTEX
  8
0
 10
981.20001220703125
 20
863.5999755859375
 42
-0
  0
VERTEX
  8
0
 10
1261.199951171875
 20
863.5999755859375
 42
-0
  0
VERTEX
  8
0
 10
1901.199951171875
 20
988.5999755859375
 42
-0
  0
VERTEX
  8
0
 10
1901.199951171875
 20
1048.5999755859375
 42
-0
  0
SEQEND
  0
POLYLINE
  8
0
 10
0
 20
0
 39
0
 70
1
 66
1
  0
VERTEX
  8
0
 10
1311.199951171875
 20
915.5999755859375
 42
-1
  0
VERTEX
  8
0
 10
1351.199951171875
 20
915.5999755859375
 42
-1
  0
SEQEND
  0
POLYLINE
  8
0
 10
0
 20
0
 39
0
 70
1
 66
1
  0
VERTEX
  8
0
 10
866.20001220703125
 20
915.5999755859375
 42
-1
  0
VERTEX
  8
0
 10
906.20001220703125
 20
915.5999755859375
 42
-1
  0
SEQEND
  0
POLYLINE
  8
0
 10
0
 20
0
 39
0
 70
1
 66
1
  0
VERTEX
  8
0
 10
1183.5999755859375
 20
730
 42
-0.25831884145736694
  0
VERTEX
  8
0
 10
1533.5999755859375
 20
680
 42
-0.7645079493522644
  0
VERTEX
  8
0
 10
1919.5999755859375
 20
680
 42
0
  0
VERTEX
  8
0
 10
1989.5999755859375
 20
685
 42
-0
  0
VERTEX
  8
0
 10
1989.5999755859375
 20
885
 42
-0
  0
VERTEX
  8
0
 10
1859.5999755859375
 20
915
 42
-0
  0
VERTEX
  8
0
 10
1579.5999755859375
 20
915
 42
-0
  0
VERTEX
  8
0
 10
939.5999755859375
 20
790
 42
-0
  0
VERTEX
  8
0
 10
939.5999755859375
 20
730
 42
-0
  0
SEQEND
  0
POLYLINE
  8
0
 10
0
 20
0
 39
0
 70
1
 66
1
  0
VERTEX
  8
0
 10
1529.5999755859375
 20
863
 42
-1
  0
VERTEX
  8
0
 10
1489.5999755859375
 20
863
 42
-1
  0
SEQEND
  0
POLYLINE
  8
0
 10
0
 20
0
 39
0
 70
1
 66
1
  0
VERTEX
  8
0
 10
1974.5999755859375
 20
863
 42
-1
  0
VERTEX
  8
0
 10
1934.5999755859375
 20
863
 42
-1
  0
SEQEND
  0
POLYLINE
  8
0
 10
0
 20
0
 39
0
 70
1
 66
1
  0
VERTEX
  8
0
 10
1191.4000244140625
 20
721.5999755859375
 42
-0.25831884145736694
  0
VERTEX
  8
0
 10
841.4000244140625
 20
771.5999755859375
 42
-0.7645079493522644
  0
VERTEX
  8
0
 10
455.39999389648437
 20
771.5999755859375
 42
0
  0
VERTEX
  8
0
 10
385.39999389648437
 20
766.5999755859375
 42
-0
  0
VERTEX
  8
0
 10
385.39999389648437
 20
566.5999755859375
 42
-0
  0
VERTEX
  8
0
 10
515.4000244140625
 20
536.5999755859375
 42
-0
  0
VERTEX
  8
0
 10
795.4000244140625
 20
536.5999755859375
 42
-0
  0
VERTEX
  8
0
 10
1435.4000244140625
 20
661.5999755859375
 42
-0
  0
VERTEX
  8
0
 10
1435.4000244140625
 20
721.5999755859375
 42
-0
  0
SEQEND
  0
POLYLINE
  8
0
 10
0
 20
0
 39
0
 70
1
 66
1
  0
VERTEX
  8
0
 10
845.4000244140625
 20
588.5999755859375
 42
-1
  0
VERTEX
  8
0
 10
885.4000244140625
 20
588.5999755859375
 42
-1
  0
SEQEND
  0
POLYLINE
  8
0
 10
0
 20
0
 39
0
 70
1
 66
1
  0
VERTEX
  8
0
 10
400.39999389648437
 20
588.5999755859375
 42
-1
  0
VERTEX
  8
0
 10
440.39999389648437
 20
588.5999755859375
 42
-1
  0
SEQEND
  0
POLYLINE
  8
0
 10
0
 20
0
 39
0
 70
1
 66
1
  0
VERTEX
  8
0
 10
1183.4000244140625
 20
493.20001220703125
 42
-0.25831884145736694
  0
VERTEX
  8
0
 10
1533.4000244140625
 20
443.20001220703125
 42
-0.7645079493522644
  0
VERTEX
  8
0
 10
1919.4000244140625
 20
443.20001220703125
 42
0
  0
VERTEX
  8
0
 10
1989.4000244140625
 20
448.20001220703125
 42
-0
  0
VERTEX
  8
0
 10
1989.4000244140625
 20
648.20001220703125
 42
-0
  0
VERTEX
  8
0
 10
1859.4000244140625
 20
678.20001220703125
 42
-0
  0
VERTEX
  8
0
 10
1579.4000244140625
 20
678.20001220703125
 42
-0
  0
VERTEX
  8
0
 10
939.4000244140625
 20
553.20001220703125
 42
-0
  0
VERTEX
  8
0
 10
939.4000244140625
 20
493.20001220703125
 42
-0
  0
SEQEND
  0
POLYLINE
  8
0
 10
0
 20
0
 39
0
 70
1
 66
1
  0
VERTEX
  8
0
 10
1529.4000244140625
 20
626.20001220703125
 42
-1
  0
VERTEX
  8
0
 10
1489.4000244140625
 20
626.20001220703125
 42
-1
  0
SEQEND
  0
POLYLINE
  8
0
 10
0
 20
0
 39
0
 70
1
 66
1
  0
VERTEX
  8
0
 10
1974.4000244140625
 20
626.20001220703125
 42
-1
  0
VERTEX
  8
0
 10
1934.4000244140625
 20
626.20001220703125
 42
-1
  0
SEQEND
  0
POLYLINE
  8
0
 10
0
 20
0
 39
0
 70
1
 66
1
  0
VERTEX
  8
0
 10
481
 20
917.4000244140625
 42
0
  0
VERTEX
  8
0
 10
481
 20
787.4000244140625
 42
0
  0
VERTEX
  8
0
 10
841
 20
787.4000244140625
 42
0
  0
VERTEX
  8
0
 10
841
 20
917.4000244140625
 42
0.94444441795349121
  0
SEQEND
  0
POLYLINE
  8
0
 10
0
 20
0
 39
0
 70
1
 66
1
  0
VERTEX
  8
0
 10
650.5
 20
847.4000244140625
 42
-1
  0
VERTEX
  8
0
 10
671.5
 20
847.4000244140625
 42
-1
  0
SEQEND
  0
POLYLINE
  8
0
 10
0
 20
0
 39
0
 70
1
 66
1
  0
VERTEX
  8
0
 10
661
 20
967.4000244140625
 42
-1
  0
VERTEX
  8
0
 10
661
 20
989.4000244140625
 42
-0.41421356797218323
  0
VERTEX
  8
0
 10
803
 20
847.4000244140625
 42
-1
  0
VERTEX
  8
0
 10
781
 20
847.4000244140625
 42
0.41421356797218323
  0
SEQEND
  0
POLYLINE
  8
0
 10
0
 20
0
 39
0
 70
1
 66
1
  0
VERTEX
  8
0
 10
10.400003433227539
 20
874.20001220703125
 42
0
  0
VERTEX
  8
0
 10
10.399999618530273
 20
744.20001220703125
 42
0
  0
VERTEX
  8
0
 10
370.39999389648438
 20
744.20001220703125
 42
0
  0
VERTEX
  8
0
 10
370.39999389648438
 20
874.20001220703125
 42
0.94444441795349121
  0
SEQEND
  0
POLYLINE
  8
0
 10
0
 20
0
 39
0
 70
1
 66
1
  0
VERTEX
  8
0
 10
179.89999389648437
 20
804.20001220703125
 42
-1
  0
VERTEX
  8
0
 10
200.89999389648437
 20
804.20001220703125
 42
-1
  0
SEQEND
  0
POLYLINE
  8
0
 10
0
 20
0
 39
0
 70
1
 66
1
  0
VERTEX
  8
0
 10
190.39999389648437
 20
924.20001220703125
 42
-1
  0
VERTEX
  8
0
 10
190.39999389648437
 20
946.20001220703125
 42
-0.41421356797218323
  0
VERTEX
  8
0
 10
332.39999389648437
 20
804.20001220703125
 42
-1
  0
VERTEX
  8
0
 10
310.39999389648437
 20
804.20001220703125
 42
0.41421356797218323
  0
SEQEND
  0
POLYLINE
  8
0
 10
0
 20
0
 39
0
 70
1
 66
1
  0
VERTEX
  8
0
 10
10.400003433227539
 20
564
 42
0
  0
VERTEX
  8
0
 10
10.399999618530273
 20
434
 42
0
  0
VERTEX
  8
0
 10
370.39999389648438
 20
434
 42
0
  0
VERTEX
  8
0
 10
370.39999389648438
 20
564
 42
0.94444441795349121
  0
SEQEND
  0
POLYLINE
  8
0
 10
0
 20
0
 39
0
 70
1
 66
1
  0
VERTEX
  8
0
 10
179.89999389648437
 20
494
 42
-1
  0
VERTEX
  8
0
 10
200.89999389648437
 20
494
 42
-1
  0
SEQEND
  0
POLYLINE
  8
0
 10
0
 20
0
 39
0
 70
1
 66
1
  0
VERTEX
  8
0
 10
190.39999389648437
 20
614
 42
-1
  0
VERTEX
  8
0
 10
190.39999389648437
 20
636
 42
-0.41421356797218323
  0
VERTEX
  8
0
 10
332.39999389648437
 20
494
 42
-1
  0
VERTEX
  8
0
 10
310.39999389648437
 20
494
 42
0.41421356797218323
  0
SEQEND
  0
POLYLINE
  8
0
 10
0
 20
0
 39
0
 70
1
 66
1
  0
VERTEX
  8
0
 10
1545
 20
410
 42
0
  0
VERTEX
  8
0
 10
1545
 20
280
 42
0
  0
VERTEX
  8
0
 10
1905
 20
280
 42
0
  0
VERTEX
  8
0
 10
1905
 20
410
 42
0.94444441795349121
  0
SEQEND
  0
POLYLINE
  8
0
 10
0
 20
0
 39
0
 70
1
 66
1
  0
VERTEX
  8
0
 10
1714.5
 20
340
 42
-1
  0
VERTEX
  8
0
 10
1735.5
 20
340
 42
-1
  0
SEQEND
  0
POLYLINE
  8
0
 10
0
 20
0
 39
0
 70
1
 66
1
  0
VERTEX
  8
0
 10
1725
 20
460
 42
-1
  0
VERTEX
  8
0
 10
1725
 20
482
 42
-0.41421356797218323
  0
VERTEX
  8
0
 10
1867
 20
340
 42
-1
  0
VERTEX
  8
0
 10
1845
 20
340
 42
0.41421356797218323
  0
SEQEND
  0
POLYLINE
  8
0
 10
0
 20
0
 39
0
 70
1
 66
1
  0
VERTEX
  8
0
 10
636.79998779296875
 20
357.20001220703125
 42
0
  0
VERTEX
  8
0
 10
636.79998779296875
 20
227.20001220703125
 42
0
  0
VERTEX
  8
0
 10
996.79998779296875
 20
227.20001220703125
 42
0
  0
VERTEX
  8
0
 10
996.79998779296875
 20
357.20001220703125
 42
0.94444441795349121
  0
SEQEND
  0
POLYLINE
  8
0
 10
0
 20
0
 39
0
 70
1
 66
1
  0
VERTEX
  8
0
 10
806.29998779296875
 20
287.20001220703125
 42
-1
  0
VERTEX
  8
0
 10
827.29998779296875
 20
287.20001220703125
 42
-1
  0
SEQEND
  0
POLYLINE
  8
0
 10
0
 20
0
 39
0
 70
1
 66
1
  0
VERTEX
  8
0
 10
816.79998779296875
 20
407.20001220703125
 42
-1
  0
VERTEX
  8
0
 10
816.79998779296875
 20
429.20001220703125
 42
-0.41421356797218323
  0
VERTEX
  8
0
 10
958.79998779296875
 20
287.20001220703125
 42
-1
  0
VERTEX
  8
0
 10
936.79998779296875
 20
287.20001220703125
 42
0.41421356797218323
  0
SEQEND
  0
POLYLINE
  8
0
 10
0
 20
0
 39
0
 70
1
 66
1
  0
VERTEX
  8
0
 10
1131.199951171875
 20
336.60000610351562
 42
0
  0
VERTEX
  8
0
 10
1131.199951171875
 20
206.60002136230469
 42
0
  0
VERTEX
  8
0
 10
1491.199951171875
 20
206.60002136230469
 42
0
  0
VERTEX
  8
0
 10
1491.199951171875
 20
336.60000610351562
 42
0.94444441795349121
  0
SEQEND
  0
POLYLINE
  8
0
 10
0
 20
0
 39
0
 70
1
 66
1
  0
VERTEX
  8
0
 10
1300.699951171875
 20
266.60000610351562
 42
-1
  0
VERTEX
  8
0
 10
1321.699951171875
 20
266.60000610351562
 42
-1
  0
SEQEND
  0
POLYLINE
  8
0
 10
0
 20
0
 39
0
 70
1
 66
1
  0
VERTEX
  8
0
 10
1311.199951171875
 20
386.60000610351562
 42
-1
  0
VERTEX
  8
0
 10
1311.199951171875
 20
408.60000610351562
 42
-0.41421356797218323
  0
VERTEX
  8
0
 10
1453.199951171875
 20
266.60000610351562
 42
-1
  0
VERTEX
  8
0
 10
1431.199951171875
 20
266.60000610351562
 42
0.41421356797218323
  0
SEQEND
  0
POLYLINE
  8
0
 10
0
 20
0
 39
0
 70
1
 66
1
  0
VERTEX
  8
0
 10
10.399999618530273
 20
423.79998779296875
 42
0
  0
VERTEX
  8
0
 10
10.399999618530273
 20
223.80000305175781
 42
0
  0
VERTEX
  8
0
 10
510.39999389648437
 20
223.80000305175781
 42
0
  0
VERTEX
  8
0
 10
510.39999389648437
 20
423.79998779296875
 42
0
  0
SEQEND
  0
POLYLINE
  8
0
 10
0
 20
0
 39
0
 70
1
 66
1
  0
VERTEX
  8
0
 10
445.08901977539062
 20
261.9149169921875
 42
-1
  0
VERTEX
  8
0
 10
481.08901977539062
 20
261.9149169921875
 42
-1
  0
SEQEND
  0
POLYLINE
  8
0
 10
0
 20
0
 39
0
 70
1
 66
1
  0
VERTEX
  8
0
 10
208.39999389648437
 20
323.79998779296875
 42
-1
  0
VERTEX
  8
0
 10
312.39999389648437
 20
323.79998779296875
 42
-1
  0
SEQEND
  0
POLYLINE
  8
0
 10
0
 20
0
 39
0
 70
1
 66
1
  0
VERTEX
  8
0
 10
518.20001220703125
 20
217
 42
0
  0
VERTEX
  8
0
 10
518.20001220703125
 20
17
 42
0
  0
VERTEX
  8
0
 10
1018.2000122070312
 20
17
 42
0
  0
VERTEX
  8
0
 10
1018.2000122070312
 20
217
 42
0
  0
SEQEND
  0
POLYLINE
  8
0
 10
0
 20
0
 39
0
 70
1
 66
1
  0
VERTEX
  8
0
 10
952.8890380859375
 20
55.11492919921875
 42
-1
  0
VERTEX
  8
0
 10
988.8890380859375
 20
55.11492919921875
 42
-1
  0
SEQEND
  0
POLYLINE
  8
0
 10
0
 20
0
 39
0
 70
1
 66
1
  0
VERTEX
  8
0
 10
716.20001220703125
 20
117
 42
-1
  0
VERTEX
  8
0
 10
820.20001220703125
 20
117
 42
-1
  0
SEQEND
  0
POLYLINE
  8
0
 10
0
 20
0
 39
0
 70
1
 66
1
  0
VERTEX
  8
0
 10
1878.199951171875
 20
136.39999389648437
 42
0
  0
VERTEX
  8
0
 10
1878.199951171875
 20
196.39999389648437
 42
0
  0
VERTEX
  8
0
 10
1028.199951171875
 20
196.39999389648437
 42
0
  0
VERTEX
  8
0
 10
1028.199951171875
 20
136.39999389648437
 42
0
  0
SEQEND
  0
POLYLINE
  8
0
 10
0
 20
0
 39
0
 70
1
 66
1
  0
VERTEX
  8
0
 10
1067.574951171875
 20
166.39999389648437
 42
-1
  0
VERTEX
  8
0
 10
1084.824951171875
 20
166.39999389648437
 42
-1
  0
SEQEND
  0
POLYLINE
  8
0
 10
0
 20
0
 39
0
 70
1
 66
1
  0
VERTEX
  8
0
 10
1667.574951171875
 20
166.39999389648437
 42
-1
  0
VERTEX
  8
0
 10
1684.824951171875
 20
166.39999389648437
 42
-1
  0
SEQEND
  0
POLYLINE
  8
0
 10
0
 20
0
 39
0
 70
1
 66
1
  0
VERTEX
  8
0
 10
1878.199951171875
 20
66
 42
0
  0
VERTEX
  8
0
 10
1878.199951171875
 20
126
 42
0
  0
VERTEX
  8
0
 10
1028.199951171875
 20
126
 42
0
  0
VERTEX
  8
0
 10
1028.199951171875
 20
66
 42
0
  0
SEQEND
  0
POLYLINE
  8
0
 10
0
 20
0
 39
0
 70
1
 66
1
  0
VERTEX
  8
0
 10
1067.574951171875
 20
96
 42
-1
  0
VERTEX
  8
0
 10
1084.824951171875
 20
96
 42
-1
  0
SEQEND
  0
POLYLINE
  8
0
 10
0
 20
0
 39
0
 70
1
 66
1
  0
VERTEX
  8
0
 10
1667.574951171875
 20
96
 42
-1
  0
VERTEX
  8
0
 10
1684.824951171875
 20
96
 42
-1
  0
SEQEND
  0
POLYLINE
  8
0
 10
0
 20
0
 39
0
 70
1
 66
1
  0
VERTEX
  8
0
 10
10.399999618530273
 20
13.399999618530273
 42
-0
  0
VERTEX
  8
0
 10
230.39999389648437
 20
13.399999618530273
 42
0
  0
VERTEX
  8
0
 10
230.39999389648437
 20
213.39999389648437
 42
0
  0
VERTEX
  8
0
 10
10.399999618530273
 20
213.39999389648437
 42
0
  0
SEQEND
  0
POLYLINE
  8
0
 10
0
 20
0
 39
0
 70
1
 66
1
  0
VERTEX
  8
0
 10
55.900001525878906
 20
68.400001525878906
 42
-1
  0
VERTEX
  8
0
 10
74.900001525878906
 20
68.400001525878906
 42
-1
  0
SEQEND
  0
POLYLINE
  8
0
 10
0
 20
0
 39
0
 70
1
 66
1
  0
VERTEX
  8
0
 10
165.89999389648437
 20
158.39999389648437
 42
-1
  0
VERTEX
  8
0
 10
184.89999389648437
 20
158.39999389648437
 42
-1
  0
SEQEND
  0
POLYLINE
  8
0
 10
0
 20
0
 39
0
 70
1
 66
1
  0
VERTEX
  8
0
 10
240.39999389648437
 20
13.399999618530273
 42
-0
  0
VERTEX
  8
0
 10
460.39999389648437
 20
13.399999618530273
 42
0
  0
VERTEX
  8
0
 10
460.39999389648437
 20
213.39999389648437
 42
0
  0
VERTEX
  8
0
 10
240.39999389648437
 20
213.39999389648437
 42
0
  0
SEQEND
  0
POLYLINE
  8
0
 10
0
 20
0
 39
0
 70
1
 66
1
  0
VERTEX
  8
0
 10
285.89999389648437
 20
68.400001525878906
 42
-1
  0
VERTEX
  8
0
 10
304.89999389648438
 20
68.400001525878906
 42
-1
  0
SEQEND
  0
POLYLINE
  8
0
 10
0
 20
0
 39
0
 70
1
 66
1
  0
VERTEX
  8
0
 10
395.89999389648438
 20
158.39999389648437
 42
-1
  0
VERTEX
  8
0
 10
414.89999389648437
 20
158.39999389648437
 42
-1
  0
SEQEND
  0
POLYLINE
  8
0
 10
0
 20
0
 39
0
 70
1
 66
1
  0
VERTEX
  8
0
 10
148.39999389648437
 20
1199.5999755859375
 42
-0
  0
VERTEX
  8
0
 10
248.39999389648437
 20
1199.5999755859375
 42
-0
  0
VERTEX
  8
0
 10
248.39999389648437
 20
1229.5999755859375
 42
-0
  0
VERTEX
  8
0
 10
240.01191711425781
 20
1229.5999755859375
 42
-0
  0
VERTEX
  8
0
 10
240.01191711425781
 20
1259.5999755859375
 42
-0
  0
VERTEX
  8
0
 10
248.39999389648437
 20
1259.5999755859375
 42
-0
  0
VERTEX
  8
0
 10
248.39999389648437
 20
1289.5999755859375
 42
-0
  0
VERTEX
  8
0
 10
148.39999389648437
 20
1289.5999755859375
 42
0
  0
SEQEND
  0
POLYLINE
  8
0
 10
0
 20
0
 39
0
 70
1
 66
1
  0
VERTEX
  8
0
 10
222.89999389648437
 20
1229.5999755859375
 42
0
  0
VERTEX
  8
0
 10
173.89999389648437
 20
1229.5999755859375
 42
0
  0
VERTEX
  8
0
 10
173.89999389648437
 20
1259.5999755859375
 42
0
  0
VERTEX
  8
0
 10
222.89999389648437
 20
1259.5999755859375
 42
0
  0
SEQEND
  0
POLYLINE
  8
0
 10
0
 20
0
 39
0
 70
1
 66
1
  0
VERTEX
  8
0
 10
258.39999389648437
 20
1199.5999755859375
 42
-0
  0
VERTEX
  8
0
 10
358.39999389648437
 20
1199.5999755859375
 42
-0
  0
VERTEX
  8
0
 10
358.39999389648437
 20
1229.5999755859375
 42
-0
  0
VERTEX
  8
0
 10
350.01193237304687
 20
1229.5999755859375
 42
-0
  0
VERTEX
  8
0
 10
350.01193237304687
 20
1259.5999755859375
 42
-0
  0
VERTEX
  8
0
 10
358.39999389648437
 20
1259.5999755859375
 42
-0
  0
VERTEX
  8
0
 10
358.39999389648437
 20
1289.5999755859375
 42
-0
  0
VERTEX
  8
0
 10
258.39999389648437
 20
1289.5999755859375
 42
0
  0
SEQEND
  0
POLYLINE
  8
0
 10
0
 20
0
 39
0
 70
1
 66
1
  0
VERTEX
  8
0
 10
332.89999389648437
 20
1229.5999755859375
 42
0
  0
VERTEX
  8
0
 10
283.89999389648437
 20
1229.5999755859375
 42
0
  0
VERTEX
  8
0
 10
283.89999389648437
 20
1259.5999755859375
 42
0
  0
VERTEX
  8
0
 10
332.89999389648437
 20
1259.5999755859375
 42
0
  0
SEQEND
  0
POLYLINE
  8
0
 10
0
 20
0
 39
0
 70
1
 66
1
  0
VERTEX
  8
0
 10
1676
 20
1075.4000244140625
 42
-0
  0
VERTEX
  8
0
 10
1776
 20
1075.4000244140625
 42
-0
  0
VERTEX
  8
0
 10
1776
 20
1105.4000244140625
 42
-0
  0
VERTEX
  8
0
 10
1767.6119384765625
 20
1105.4000244140625
 42
-0
  0
VERTEX
  8
0
 10
1767.6119384765625
 20
1135.4000244140625
 42
-0
  0
VERTEX
  8
0
 10
1776
 20
1135.4000244140625
 42
-0
  0
VERTEX
  8
0
 10
1776
 20
1165.4000244140625
 42
-0
  0
VERTEX
  8
0
 10
1676
 20
1165.4000244140625
 42
0
  0
SEQEND
  0
POLYLINE
  8
0
 10
0
 20
0
 39
0
 70
1
 66
1
  0
VERTEX
  8
0
 10
1750.5
 20
1105.4000244140625
 42
0
  0
VERTEX
  8
0
 10
1701.5
 20
1105.4000244140625
 42
0
  0
VERTEX
  8
0
 10
1701.5
 20
1135.4000244140625
 42
0
  0
VERTEX
  8
0
 10
1750.5
 20
1135.4000244140625
 42
0
  0
SEQEND
  0
POLYLINE
  8
0
 10
0
 20
0
 39
0
 70
1
 66
1
  0
VERTEX
  8
0
 10
1023.2000122070312
 20
985
 42
-0
  0
VERTEX
  8
0
 10
1123.199951171875
 20
985
 42
-0
  0
VERTEX
  8
0
 10
1123.199951171875
 20
1015
 42
-0
  0
VERTEX
  8
0
 10
1114.8118896484375
 20
1015
 42
-0
  0
VERTEX
  8
0
 10
1114.8118896484375
 20
1045
 42
-0
  0
VERTEX
  8
0
 10
1123.199951171875
 20
1045
 42
-0
  0
VERTEX
  8
0
 10
1123.199951171875
 20
1075
 42
-0
  0
VERTEX
  8
0
 10
1023.2000122070312
 20
1075
 42
0
  0
SEQEND
  0
POLYLINE
  8
0
 10
0
 20
0
 39
0
 70
1
 66
1
  0
VERTEX
  8
0
 10
1097.699951171875
 20
1015
 42
0
  0
VERTEX
  8
0
 10
1048.699951171875
 20
1015
 42
0
  0
VERTEX
  8
0
 10
1048.699951171875
 20
1045
 42
0
  0
VERTEX
  8
0
 10
1097.699951171875
 20
1045
 42
0
  0
SEQEND
  0
POLYLINE
  8
0
 10
0
 20
0
 39
0
 70
1
 66
1
  0
VERTEX
  8
0
 10
358.60000610351562
 20
954.20001220703125
 42
-0
  0
VERTEX
  8
0
 10
458.60000610351562
 20
954.20001220703125
 42
-0
  0
VERTEX
  8
0
 10
458.60000610351562
 20
984.20001220703125
 42
-0
  0
VERTEX
  8
0
 10
450.2119140625
 20
984.20001220703125
 42
-0
  0
VERTEX
  8
0
 10
450.2119140625
 20
1014.2000122070312
 42
-0
  0
VERTEX
  8
0
 10
458.60000610351562
 20
1014.2000122070312
 42
-0
  0
VERTEX
  8
0
 10
458.60000610351562
 20
1044.199951171875
 42
-0
  0
VERTEX
  8
0
 10
358.60000610351562
 20
1044.199951171875
 42
0
  0
SEQEND
  0
POLYLINE
  8
0
 10
0
 20
0
 39
0
 70
1
 66
1
  0
VERTEX
  8
0
 10
433.10000610351562
 20
984.20001220703125
 42
0
  0
VERTEX
  8
0
 10
384.10000610351562
 20
984.20001220703125
 42
0
  0
VERTEX
  8
0
 10
384.10000610351562
 20
1014.2000122070312
 42
0
  0
VERTEX
  8
0
 10
433.10000610351562
 20
1014.2000122070312
 42
0
  0
SEQEND
  0
POLYLINE
  8
0
 10
0
 20
0
 39
0
 70
1
 66
1
  0
VERTEX
  8
0
 10
380.39999389648437
 20
943.79998779296875
 42
-0
  0
VERTEX
  8
0
 10
380.39999389648437
 20
843.79998779296875
 42
-0
  0
VERTEX
  8
0
 10
410.39999389648438
 20
843.79998779296875
 42
-0
  0
VERTEX
  8
0
 10
410.39999389648438
 20
852.18804931640625
 42
-0
  0
VERTEX
  8
0
 10
440.39999389648437
 20
852.18804931640625
 42
-0
  0
VERTEX
  8
0
 10
440.39999389648437
 20
843.79998779296875
 42
-0
  0
VERTEX
  8
0
 10
470.39999389648437
 20
843.79998779296875
 42
-0
  0
VERTEX
  8
0
 10
470.39999389648437
 20
943.79998779296875
 42
0
  0
SEQEND
  0
POLYLINE
  8
0
 10
0
 20
0
 39
0
 70
1
 66
1
  0
VERTEX
  8
0
 10
410.39999389648438
 20
869.29998779296875
 42
0
  0
VERTEX
  8
0
 10
410.39999389648438
 20
918.29998779296875
 42
0
  0
VERTEX
  8
0
 10
440.39999389648437
 20
918.29998779296875
 42
0
  0
VERTEX
  8
0
 10
440.39999389648437
 20
869.29998779296875
 42
0
  0
SEQEND
  0
POLYLINE
  8
0
 10
0
 20
0
 39
0
 70
1
 66
1
  0
VERTEX
  8
0
 10
1676.199951171875
 20
720.20001220703125
 42
-0
  0
VERTEX
  8
0
 10
1776.199951171875
 20
720.20001220703125
 42
-0
  0
VERTEX
  8
0
 10
1776.199951171875
 20
750.20001220703125
 42
-0
  0
VERTEX
  8
0
 10
1767.8118896484375
 20
750.20001220703125
 42
-0
  0
VERTEX
  8
0
 10
1767.8118896484375
 20
780.20001220703125
 42
-0
  0
VERTEX
  8
0
 10
1776.199951171875
 20
780.20001220703125
 42
-0
  0
VERTEX
  8
0
 10
1776.199951171875
 20
810.20001220703125
 42
-0
  0
VERTEX
  8
0
 10
1676.199951171875
 20
810.20001220703125
 42
0
  0
SEQEND
  0
POLYLINE
  8
0
 10
0
 20
0
 39
0
 70
1
 66
1
  0
VERTEX
  8
0
 10
1750.699951171875
 20
750.20001220703125
 42
0
  0
VERTEX
  8
0
 10
1701.699951171875
 20
750.20001220703125
 42
0
  0
VERTEX
  8
0
 10
1701.699951171875
 20
780.20001220703125
 42
0
  0
VERTEX
  8
0
 10
1750.699951171875
 20
780.20001220703125
 42
0
  0
SEQEND
  0
POLYLINE
  8
0
 10
0
 20
0
 39
0
 70
1
 66
1
  0
VERTEX
  8
0
 10
517.20001220703125
 20
687.20001220703125
 42
-0
  0
VERTEX
  8
0
 10
617.20001220703125
 20
687.20001220703125
 42
-0
  0
VERTEX
  8
0
 10
617.20001220703125
 20
717.20001220703125
 42
-0
  0
VERTEX
  8
0
 10
608.81195068359375
 20
717.20001220703125
 42
-0
  0
VERTEX
  8
0
 10
608.81195068359375
 20
747.20001220703125
 42
-0
  0
VERTEX
  8
0
 10
617.20001220703125
 20
747.20001220703125
 42
-0
  0
VERTEX
  8
0
 10
617.20001220703125
 20
777.20001220703125
 42
-0
  0
VERTEX
  8
0
 10
517.20001220703125
 20
777.20001220703125
 42
0
  0
SEQEND
  0
POLYLINE
  8
0
 10
0
 20
0
 39
0
 70
1
 66
1
  0
VERTEX
  8
0
 10
591.70001220703125
 20
717.20001220703125
 42
0
  0
VERTEX
  8
0
 10
542.70001220703125
 20
717.20001220703125
 42
0
  0
VERTEX
  8
0
 10
542.70001220703125
 20
747.20001220703125
 42
0
  0
VERTEX
  8
0
 10
591.70001220703125
 20
747.20001220703125
 42
0
  0
SEQEND
  0
POLYLINE
  8
0
 10
0
 20
0
 39
0
 70
1
 66
1
  0
VERTEX
  8
0
 10
627.20001220703125
 20
687.20001220703125
 42
-0
  0
VERTEX
  8
0
 10
727.20001220703125
 20
687.20001220703125
 42
-0
  0
VERTEX
  8
0
 10
727.20001220703125
 20
717.20001220703125
 42
-0
  0
VERTEX
  8
0
 10
718.81195068359375
 20
717.20001220703125
 42
-0
  0
VERTEX
  8
0
 10
718.81195068359375
 20
747.20001220703125
 42
-0
  0
VERTEX
  8
0
 10
727.20001220703125
 20
747.20001220703125
 42
-0
  0
VERTEX
  8
0
 10
727.20001220703125
 20
777.20001220703125
 42
-0
  0
VERTEX
  8
0
 10
627.20001220703125
 20
777.20001220703125
 42
0
  0
SEQEND
  0
POLYLINE
  8
0
 10
0
 20
0
 39
0
 70
1
 66
1
  0
VERTEX
  8
0
 10
701.70001220703125
 20
717.20001220703125
 42
0
  0
VERTEX
  8
0
 10
652.70001220703125
 20
717.20001220703125
 42
0
  0
VERTEX
  8
0
 10
652.70001220703125
 20
747.20001220703125
 42
0
  0
VERTEX
  8
0
 10
701.70001220703125
 20
747.20001220703125
 42
0
  0
SEQEND
  0
POLYLINE
  8
0
 10
0
 20
0
 39
0
 70
1
 66
1
  0
VERTEX
  8
0
 10
380.39999389648437
 20
443.79998779296875
 42
-0
  0
VERTEX
  8
0
 10
480.39999389648437
 20
443.79998779296875
 42
-0
  0
VERTEX
  8
0
 10
480.39999389648437
 20
473.79998779296875
 42
-0
  0
VERTEX
  8
0
 10
472.01193237304687
 20
473.79998779296875
 42
-0
  0
VERTEX
  8
0
 10
472.01193237304687
 20
503.79998779296875
 42
-0
  0
VERTEX
  8
0
 10
480.39999389648437
 20
503.79998779296875
 42
-0
  0
VERTEX
  8
0
 10
480.39999389648437
 20
533.79998779296875
 42
-0
  0
VERTEX
  8
0
 10
380.39999389648437
 20
533.79998779296875
 42
0
  0
SEQEND
  0
POLYLINE
  8
0
 10
0
 20
0
 39
0
 70
1
 66
1
  0
VERTEX
  8
0
 10
454.89999389648437
 20
473.79998779296875
 42
0
  0
VERTEX
  8
0
 10
405.89999389648437
 20
473.79998779296875
 42
0
  0
VERTEX
  8
0
 10
405.89999389648437
 20
503.79998779296875
 42
0
  0
VERTEX
  8
0
 10
454.89999389648437
 20
503.79998779296875
 42
0
  0
SEQEND
  0
POLYLINE
  8
0
 10
0
 20
0
 39
0
 70
1
 66
1
  0
VERTEX
  8
0
 10
490.39999389648437
 20
436.20001220703125
 42
-0
  0
VERTEX
  8
0
 10
590.4000244140625
 20
436.20001220703125
 42
-0
  0
VERTEX
  8
0
 10
590.4000244140625
 20
466.20001220703125
 42
-0
  0
VERTEX
  8
0
 10
582.01190185546875
 20
466.20001220703125
 42
-0
  0
VERTEX
  8
0
 10
582.01190185546875
 20
496.20001220703125
 42
-0
  0
VERTEX
  8
0
 10
590.4000244140625
 20
496.20001220703125
 42
-0
  0
VERTEX
  8
0
 10
590.4000244140625
 20
526.20001220703125
 42
-0
  0
VERTEX
  8
0
 10
490.39999389648437
 20
526.20001220703125
 42
0
  0
SEQEND
  0
POLYLINE
  8
0
 10
0
 20
0
 39
0
 70
1
 66
1
  0
VERTEX
  8
0
 10
564.9000244140625
 20
466.20001220703125
 42
0
  0
VERTEX
  8
0
 10
515.9000244140625
 20
466.20001220703125
 42
0
  0
VERTEX
  8
0
 10
515.9000244140625
 20
496.20001220703125
 42
0
  0
VERTEX
  8
0
 10
564.9000244140625
 20
496.20001220703125
 42
0
  0
SEQEND
  0
POLYLINE
  8
0
 10
0
 20
0
 39
0
 70
1
 66
1
  0
VERTEX
  8
0
 10
1002
 20
393
 42
-0
  0
VERTEX
  8
0
 10
1102
 20
393
 42
-0
  0
VERTEX
  8
0
 10
1102
 20
423
 42
-0
  0
VERTEX
  8
0
 10
1093.6119384765625
 20
423
 42
-0
  0
VERTEX
  8
0
 10
1093.6119384765625
 20
453
 42
-0
  0
VERTEX
  8
0
 10
1102
 20
453
 42
-0
  0
VERTEX
  8
0
 10
1102
 20
483
 42
-0
  0
VERTEX
  8
0
 10
1002
 20
483
 42
0
  0
SEQEND
  0
POLYLINE
  8
0
 10
0
 20
0
 39
0
 70
1
 66
1
  0
VERTEX
  8
0
 10
1076.5
 20
423
 42
0
  0
VERTEX
  8
0
 10
1027.5
 20
423
 42
0
  0
VERTEX
  8
0
 10
1027.5
 20
453
 42
0
  0
VERTEX
  8
0
 10
1076.5
 20
453
 42
0
  0
SEQEND
  0
ENDSEC
  0
EOF
