  0
SECTION
  2
ENTITIES
  0
POLYLINE
  8
0
 10
0
 20
0
 39
0
 70
1
 66
1
  0
VERTEX
  8
0
 10
0
 20
0
 42
0
  0
VERTEX
  8
0
 10
3600
 20
0
 42
0
  0
VERTEX
  8
0
 10
3600
 20
1500
 42
0
  0
VERTEX
  8
0
 10
0
 20
1500
 42
0
  0
SEQEND
  0
POLYLINE
  8
0
 10
0
 20
0
 39
0
 70
1
 66
1
  0
VERTEX
  8
0
 10
510.53846153846155
 20
1010.5384615384615
 42
-0
  0
VERTEX
  8
0
 10
510.5384615384616
 20
10.538461538461569
 42
-0
  0
VERTEX
  8
0
 10
10.5384615384616
 20
10.538461538461538
 42
-0
  0
VERTEX
  8
0
 10
10.53846153846154
 20
1010.5384615384615
 42
-0
  0
SEQEND
  0
POLYLINE
  8
0
 10
0
 20
0
 39
0
 70
1
 66
1
  0
VERTEX
  8
0
 10
260.53846153846155
 20
353.53846153846155
 42
1
  0
VERTEX
  8
0
 10
260.53846153846155
 20
667.53846153846155
 42
1
  0
SEQEND
  0
POLYLINE
  8
0
 10
0
 20
0
 39
0
 70
1
 66
1
  0
VERTEX
  8
0
 10
363.5384615384616
 20
110.53846153846156
 42
-0
  0
VERTEX
  8
0
 10
363.5384615384616
 20
260.53846153846155
 42
-0
  0
VERTEX
  8
0
 10
133.53846153846158
 20
260.53846153846155
 42
0
  0
VERTEX
  8
0
 10
133.5384615384616
 20
110.53846153846155
 42
0
  0
SEQEND
  0
POLYLINE
  8
0
 10
0
 20
0
 39
0
 70
1
 66
1
  0
VERTEX
  8
0
 10
363.53846153846155
 20
910.53846153846155
 42
-0
  0
VERTEX
  8
0
 10
133.53846153846155
 20
910.53846153846155
 42
-0
  0
VERTEX
  8
0
 10
133.53846153846155
 20
760.53846153846155
 42
0
  0
VERTEX
  8
0
 10
363.53846153846155
 20
760.53846153846155
 42
0
  0
SEQEND
  0
POLYLINE
  8
0
 10
0
 20
0
 39
0
 70
1
 66
1
  0
VERTEX
  8
0
 10
1020.9076923076923
 20
1010.5384615384615
 42
-0
  0
VERTEX
  8
0
 10
1020.9076923076924
 20
10.538461538461569
 42
-0
  0
VERTEX
  8
0
 10
520.9076923076924
 20
10.538461538461538
 42
-0
  0
VERTEX
  8
0
 10
520.90769230769229
 20
1010.5384615384615
 42
-0
  0
SEQEND
  0
POLYLINE
  8
0
 10
0
 20
0
 39
0
 70
1
 66
1
  0
VERTEX
  8
0
 10
770.9076923076924
 20
353.53846153846155
 42
1
  0
VERTEX
  8
0
 10
770.9076923076924
 20
667.53846153846155
 42
1
  0
SEQEND
  0
POLYLINE
  8
0
 10
0
 20
0
 39
0
 70
1
 66
1
  0
VERTEX
  8
0
 10
873.9076923076924
 20
110.53846153846156
 42
-0
  0
VERTEX
  8
0
 10
873.9076923076924
 20
260.53846153846155
 42
-0
  0
VERTEX
  8
0
 10
643.9076923076924
 20
260.53846153846155
 42
0
  0
VERTEX
  8
0
 10
643.9076923076924
 20
110.53846153846155
 42
0
  0
SEQEND
  0
POLYLINE
  8
0
 10
0
 20
0
 39
0
 70
1
 66
1
  0
VERTEX
  8
0
 10
873.90769230769229
 20
910.53846153846155
 42
-0
  0
VERTEX
  8
0
 10
643.90769230769229
 20
910.53846153846155
 42
-0
  0
VERTEX
  8
0
 10
643.9076923076924
 20
760.53846153846155
 42
0
  0
VERTEX
  8
0
 10
873.90769230769229
 20
760.53846153846155
 42
0
  0
SEQEND
  0
POLYLINE
  8
0
 10
0
 20
0
 39
0
 70
1
 66
1
  0
VERTEX
  8
0
 10
1531.2769230769231
 20
1010.5384615384615
 42
-0
  0
VERTEX
  8
0
 10
1531.2769230769231
 20
10.538461538461569
 42
-0
  0
VERTEX
  8
0
 10
1031.2769230769231
 20
10.538461538461538
 42
-0
  0
VERTEX
  8
0
 10
1031.2769230769231
 20
1010.5384615384615
 42
-0
  0
SEQEND
  0
POLYLINE
  8
0
 10
0
 20
0
 39
0
 70
1
 66
1
  0
VERTEX
  8
0
 10
1281.2769230769231
 20
353.53846153846155
 42
1
  0
VERTEX
  8
0
 10
1281.2769230769231
 20
667.53846153846155
 42
1
  0
SEQEND
  0
POLYLINE
  8
0
 10
0
 20
0
 39
0
 70
1
 66
1
  0
VERTEX
  8
0
 10
1384.2769230769231
 20
110.53846153846156
 42
-0
  0
VERTEX
  8
0
 10
1384.2769230769231
 20
260.53846153846155
 42
-0
  0
VERTEX
  8
0
 10
1154.2769230769231
 20
260.53846153846155
 42
0
  0
VERTEX
  8
0
 10
1154.2769230769231
 20
110.53846153846155
 42
0
  0
SEQEND
  0
POLYLINE
  8
0
 10
0
 20
0
 39
0
 70
1
 66
1
  0
VERTEX
  8
0
 10
1384.2769230769231
 20
910.53846153846155
 42
-0
  0
VERTEX
  8
0
 10
1154.2769230769231
 20
910.53846153846155
 42
-0
  0
VERTEX
  8
0
 10
1154.2769230769231
 20
760.53846153846155
 42
0
  0
VERTEX
  8
0
 10
1384.2769230769231
 20
760.53846153846155
 42
0
  0
SEQEND
  0
POLYLINE
  8
0
 10
0
 20
0
 39
0
 70
1
 66
1
  0
VERTEX
  8
0
 10
2041.6461538461538
 20
1010.5384615384615
 42
-0
  0
VERTEX
  8
0
 10
2041.6461538461538
 20
10.538461538461569
 42
-0
  0
VERTEX
  8
0
 10
1541.6461538461538
 20
10.538461538461538
 42
-0
  0
VERTEX
  8
0
 10
1541.6461538461538
 20
1010.5384615384615
 42
-0
  0
SEQEND
  0
POLYLINE
  8
0
 10
0
 20
0
 39
0
 70
1
 66
1
  0
VERTEX
  8
0
 10
1791.6461538461538
 20
353.53846153846155
 42
1
  0
VERTEX
  8
0
 10
1791.6461538461538
 20
667.53846153846155
 42
1
  0
SEQEND
  0
POLYLINE
  8
0
 10
0
 20
0
 39
0
 70
1
 66
1
  0
VERTEX
  8
0
 10
1894.6461538461538
 20
110.53846153846156
 42
-0
  0
VERTEX
  8
0
 10
1894.6461538461538
 20
260.53846153846155
 42
-0
  0
VERTEX
  8
0
 10
1664.6461538461538
 20
260.53846153846155
 42
0
  0
VERTEX
  8
0
 10
1664.6461538461538
 20
110.53846153846155
 42
0
  0
SEQEND
  0
POLYLINE
  8
0
 10
0
 20
0
 39
0
 70
1
 66
1
  0
VERTEX
  8
0
 10
1894.6461538461538
 20
910.53846153846155
 42
-0
  0
VERTEX
  8
0
 10
1664.6461538461538
 20
910.53846153846155
 42
-0
  0
VERTEX
  8
0
 10
1664.6461538461538
 20
760.53846153846155
 42
0
  0
VERTEX
  8
0
 10
1894.6461538461538
 20
760.53846153846155
 42
0
  0
SEQEND
  0
POLYLINE
  8
0
 10
0
 20
0
 39
0
 70
1
 66
1
  0
VERTEX
  8
0
 10
2552.0153846153848
 20
1010.5384615384615
 42
-0
  0
VERTEX
  8
0
 10
2552.0153846153848
 20
10.538461538461569
 42
-0
  0
VERTEX
  8
0
 10
2052.0153846153848
 20
10.538461538461538
 42
-0
  0
VERTEX
  8
0
 10
2052.0153846153848
 20
1010.5384615384615
 42
-0
  0
SEQEND
  0
POLYLINE
  8
0
 10
0
 20
0
 39
0
 70
1
 66
1
  0
VERTEX
  8
0
 10
2302.0153846153848
 20
353.53846153846155
 42
1
  0
VERTEX
  8
0
 10
2302.0153846153848
 20
667.53846153846155
 42
1
  0
SEQEND
  0
POLYLINE
  8
0
 10
0
 20
0
 39
0
 70
1
 66
1
  0
VERTEX
  8
0
 10
2405.0153846153848
 20
110.53846153846156
 42
-0
  0
VERTEX
  8
0
 10
2405.0153846153848
 20
260.53846153846155
 42
-0
  0
VERTEX
  8
0
 10
2175.0153846153848
 20
260.53846153846155
 42
0
  0
VERTEX
  8
0
 10
2175.0153846153848
 20
110.53846153846155
 42
0
  0
SEQEND
  0
POLYLINE
  8
0
 10
0
 20
0
 39
0
 70
1
 66
1
  0
VERTEX
  8
0
 10
2405.0153846153848
 20
910.53846153846155
 42
-0
  0
VERTEX
  8
0
 10
2175.0153846153848
 20
910.53846153846155
 42
-0
  0
VERTEX
  8
0
 10
2175.0153846153848
 20
760.53846153846155
 42
0
  0
VERTEX
  8
0
 10
2405.0153846153848
 20
760.53846153846155
 42
0
  0
SEQEND
  0
POLYLINE
  8
0
 10
0
 20
0
 39
0
 70
1
 66
1
  0
VERTEX
  8
0
 10
3062.3846153846152
 20
1010.5384615384615
 42
-0
  0
VERTEX
  8
0
 10
3062.3846153846152
 20
10.538461538461569
 42
-0
  0
VERTEX
  8
0
 10
2562.3846153846152
 20
10.538461538461538
 42
-0
  0
VERTEX
  8
0
 10
2562.3846153846152
 20
1010.5384615384615
 42
-0
  0
SEQEND
  0
POLYLINE
  8
0
 10
0
 20
0
 39
0
 70
1
 66
1
  0
VERTEX
  8
0
 10
2812.3846153846152
 20
353.53846153846155
 42
1
  0
VERTEX
  8
0
 10
2812.3846153846152
 20
667.53846153846155
 42
1
  0
SEQEND
  0
POLYLINE
  8
0
 10
0
 20
0
 39
0
 70
1
 66
1
  0
VERTEX
  8
0
 10
2915.3846153846152
 20
110.53846153846156
 42
-0
  0
VERTEX
  8
0
 10
2915.3846153846152
 20
260.53846153846155
 42
-0
  0
VERTEX
  8
0
 10
2685.3846153846152
 20
260.53846153846155
 42
0
  0
VERTEX
  8
0
 10
2685.3846153846152
 20
110.53846153846155
 42
0
  0
SEQEND
  0
POLYLINE
  8
0
 10
0
 20
0
 39
0
 70
1
 66
1
  0
VERTEX
  8
0
 10
2915.3846153846152
 20
910.53846153846155
 42
-0
  0
VERTEX
  8
0
 10
2685.3846153846152
 20
910.53846153846155
 42
-0
  0
VERTEX
  8
0
 10
2685.3846153846152
 20
760.53846153846155
 42
0
  0
VERTEX
  8
0
 10
2915.3846153846152
 20
760.53846153846155
 42
0
  0
SEQEND
  0
POLYLINE
  8
0
 10
0
 20
0
 39
0
 70
1
 66
1
  0
VERTEX
  8
0
 10
3572.7538461538461
 20
1010.5384615384615
 42
-0
  0
VERTEX
  8
0
 10
3572.7538461538461
 20
10.538461538461569
 42
-0
  0
VERTEX
  8
0
 10
3072.7538461538461
 20
10.538461538461538
 42
-0
  0
VERTEX
  8
0
 10
3072.7538461538461
 20
1010.5384615384615
 42
-0
  0
SEQEND
  0
POLYLINE
  8
0
 10
0
 20
0
 39
0
 70
1
 66
1
  0
VERTEX
  8
0
 10
3322.7538461538461
 20
353.53846153846155
 42
1
  0
VERTEX
  8
0
 10
3322.7538461538461
 20
667.53846153846155
 42
1
  0
SEQEND
  0
POLYLINE
  8
0
 10
0
 20
0
 39
0
 70
1
 66
1
  0
VERTEX
  8
0
 10
3425.7538461538461
 20
110.53846153846156
 42
-0
  0
VERTEX
  8
0
 10
3425.7538461538461
 20
260.53846153846155
 42
-0
  0
VERTEX
  8
0
 10
3195.7538461538461
 20
260.53846153846155
 42
0
  0
VERTEX
  8
0
 10
3195.7538461538461
 20
110.53846153846155
 42
0
  0
SEQEND
  0
POLYLINE
  8
0
 10
0
 20
0
 39
0
 70
1
 66
1
  0
VERTEX
  8
0
 10
3425.7538461538461
 20
910.53846153846155
 42
-0
  0
VERTEX
  8
0
 10
3195.7538461538461
 20
910.53846153846155
 42
-0
  0
VERTEX
  8
0
 10
3195.7538461538461
 20
760.53846153846155
 42
0
  0
VERTEX
  8
0
 10
3425.7538461538461
 20
760.53846153846155
 42
0
  0
SEQEND
  0
POLYLINE
  8
0
 10
0
 20
0
 39
0
 70
1
 66
1
  0
VERTEX
  8
0
 10
211.41111978352419
 20
1420.7519352250065
 42
-1
  0
VERTEX
  8
0
 10
209.66579613298526
 20
1020.7557499222721
 42
-1
  0
SEQEND
  0
POLYLINE
  8
0
 10
0
 20
0
 39
0
 70
1
 66
1
  0
VERTEX
  8
0
 10
211.2191341819649
 20
1376.7523548417057
 42
1
  0
VERTEX
  8
0
 10
209.85778173454455
 20
1064.7553303055729
 42
1
  0
SEQEND
  0
POLYLINE
  8
0
 10
0
 20
0
 39
0
 70
1
 66
1
  0
VERTEX
  8
0
 10
616.54958132198567
 20
1488.8750121480834
 42
-1
  0
VERTEX
  8
0
 10
614.80425767144675
 20
1088.8788268453491
 42
-1
  0
SEQEND
  0
POLYLINE
  8
0
 10
0
 20
0
 39
0
 70
1
 66
1
  0
VERTEX
  8
0
 10
616.35759572042639
 20
1444.8754317647827
 42
1
  0
VERTEX
  8
0
 10
614.99624327300603
 20
1132.8784072286498
 42
1
  0
SEQEND
  0
POLYLINE
  8
0
 10
0
 20
0
 39
0
 70
1
 66
1
  0
VERTEX
  8
0
 10
1021.6880428604472
 20
1420.7519352250065
 42
-1
  0
VERTEX
  8
0
 10
1019.9427192099083
 20
1020.7557499222721
 42
-1
  0
SEQEND
  0
POLYLINE
  8
0
 10
0
 20
0
 39
0
 70
1
 66
1
  0
VERTEX
  8
0
 10
1021.496057258888
 20
1376.7523548417057
 42
1
  0
VERTEX
  8
0
 10
1020.1347048114676
 20
1064.7553303055729
 42
1
  0
SEQEND
  0
POLYLINE
  8
0
 10
0
 20
0
 39
0
 70
1
 66
1
  0
VERTEX
  8
0
 10
1426.8265043989088
 20
1488.8750121480834
 42
-1
  0
VERTEX
  8
0
 10
1425.0811807483699
 20
1088.8788268453491
 42
-1
  0
SEQEND
  0
POLYLINE
  8
0
 10
0
 20
0
 39
0
 70
1
 66
1
  0
VERTEX
  8
0
 10
1426.6345187973495
 20
1444.8754317647827
 42
1
  0
VERTEX
  8
0
 10
1425.2731663499292
 20
1132.8784072286498
 42
1
  0
SEQEND
  0
POLYLINE
  8
0
 10
0
 20
0
 39
0
 70
1
 66
1
  0
VERTEX
  8
0
 10
1831.9649659373704
 20
1420.7519352250065
 42
-1
  0
VERTEX
  8
0
 10
1830.2196422868315
 20
1020.7557499222721
 42
-1
  0
SEQEND
  0
POLYLINE
  8
0
 10
0
 20
0
 39
0
 70
1
 66
1
  0
VERTEX
  8
0
 10
1831.7729803358111
 20
1376.7523548417057
 42
1
  0
VERTEX
  8
0
 10
1830.4116278883907
 20
1064.7553303055729
 42
1
  0
SEQEND
  0
POLYLINE
  8
0
 10
0
 20
0
 39
0
 70
1
 66
1
  0
VERTEX
  8
0
 10
2237.1034274758317
 20
1488.8750121480834
 42
-1
  0
VERTEX
  8
0
 10
2235.3581038252928
 20
1088.8788268453491
 42
-1
  0
SEQEND
  0
POLYLINE
  8
0
 10
0
 20
0
 39
0
 70
1
 66
1
  0
VERTEX
  8
0
 10
2236.9114418742724
 20
1444.8754317647827
 42
1
  0
VERTEX
  8
0
 10
2235.5500894268521
 20
1132.8784072286498
 42
1
  0
SEQEND
  0
POLYLINE
  8
0
 10
0
 20
0
 39
0
 70
1
 66
1
  0
VERTEX
  8
0
 10
2642.2418890142935
 20
1420.7519352250065
 42
-1
  0
VERTEX
  8
0
 10
2640.4965653637546
 20
1020.7557499222721
 42
-1
  0
SEQEND
  0
POLYLINE
  8
0
 10
0
 20
0
 39
0
 70
1
 66
1
  0
VERTEX
  8
0
 10
2642.0499034127342
 20
1376.7523548417057
 42
1
  0
VERTEX
  8
0
 10
2640.6885509653139
 20
1064.7553303055729
 42
1
  0
SEQEND
  0
POLYLINE
  8
0
 10
0
 20
0
 39
0
 70
1
 66
1
  0
VERTEX
  8
0
 10
3047.3803505527549
 20
1488.8750121480834
 42
-1
  0
VERTEX
  8
0
 10
3045.6350269022159
 20
1088.8788268453491
 42
-1
  0
SEQEND
  0
POLYLINE
  8
0
 10
0
 20
0
 39
0
 70
1
 66
1
  0
VERTEX
  8
0
 10
3047.1883649511956
 20
1444.8754317647827
 42
1
  0
VERTEX
  8
0
 10
3045.8270125037752
 20
1132.8784072286498
 42
1
  0
SEQEND
  0
POLYLINE
  8
0
 10
0
 20
0
 39
0
 70
1
 66
1
  0
VERTEX
  8
0
 10
3427.0638110234186
 20
1094.1465005727914
 42
-0.34054654836654663
  0
VERTEX
  8
0
 10
3285.5823390080377
 20
1094.1465005727914
 42
-0
  0
VERTEX
  8
0
 10
3281.6000849797174
 20
1079.6230020376352
 42
-0
  0
VERTEX
  8
0
 10
3281.6000849797174
 20
1020.7538461538461
 42
0
  0
VERTEX
  8
0
 10
3248.3230769230768
 20
1020.7538461538461
 42
0
  0
VERTEX
  8
0
 10
3248.3230769230768
 20
1228.0462198110727
 42
-0.19170823693275452
  0
VERTEX
  8
0
 10
3306.7842127873346
 20
1290.7538461538461
 42
0
  0
VERTEX
  8
0
 10
3405.861941058819
 20
1290.7538461538461
 42
-0.19170823693275452
  0
VERTEX
  8
0
 10
3464.3230769230768
 20
1228.0462198110727
 42
-0
  0
VERTEX
  8
0
 10
3464.3230769230768
 20
1020.7538461538461
 42
-0
  0
VERTEX
  8
0
 10
3431.0460612370416
 20
1020.7538461538461
 42
0
  0
VERTEX
  8
0
 10
3431.0460612370416
 20
1079.6230020376352
 42
0
  0
SEQEND
  0
POLYLINE
  8
0
 10
0
 20
0
 39
0
 70
1
 66
1
  0
VERTEX
  8
0
 10
3411.3230769230768
 20
1185.9647836538461
 42
1
  0
VERTEX
  8
0
 10
3301.3230769230768
 20
1185.9647836538461
 42
1
  0
SEQEND
  0
POLYLINE
  8
0
 10
0
 20
0
 39
0
 70
1
 66
1
  0
VERTEX
  8
0
 10
193.5846153846154
 20
380.50769230769231
 42
-0
  0
VERTEX
  8
0
 10
193.5846153846154
 20
640.50769230769231
 42
-0
  0
VERTEX
  8
0
 10
323.5846153846154
 20
640.50769230769231
 42
-0
  0
VERTEX
  8
0
 10
323.5846153846154
 20
380.50769230769231
 42
-0
  0
SEQEND
  0
POLYLINE
  8
0
 10
0
 20
0
 39
0
 70
1
 66
1
  0
VERTEX
  8
0
 10
267.0846153846154
 20
405.50769230769231
 42
1
  0
VERTEX
  8
0
 10
250.0846153846154
 20
405.50769230769231
 42
1
  0
SEQEND
  0
POLYLINE
  8
0
 10
0
 20
0
 39
0
 70
1
 66
1
  0
VERTEX
  8
0
 10
310.5846153846154
 20
435.50769230769231
 42
1
  0
VERTEX
  8
0
 10
296.5846153846154
 20
435.50769230769231
 42
1
  0
SEQEND
  0
POLYLINE
  8
0
 10
0
 20
0
 39
0
 70
1
 66
1
  0
VERTEX
  8
0
 10
220.5846153846154
 20
435.50769230769231
 42
1
  0
VERTEX
  8
0
 10
206.5846153846154
 20
435.50769230769231
 42
1
  0
SEQEND
  0
POLYLINE
  8
0
 10
0
 20
0
 39
0
 70
1
 66
1
  0
VERTEX
  8
0
 10
296.5846153846154
 20
610.50769230769231
 42
-0
  0
VERTEX
  8
0
 10
296.5846153846154
 20
594.50769230769231
 42
1
  0
VERTEX
  8
0
 10
310.5846153846154
 20
594.50769230769231
 42
0
  0
VERTEX
  8
0
 10
310.5846153846154
 20
610.50769230769231
 42
1
  0
SEQEND
  0
POLYLINE
  8
0
 10
0
 20
0
 39
0
 70
1
 66
1
  0
VERTEX
  8
0
 10
206.5846153846154
 20
610.50769230769231
 42
0
  0
VERTEX
  8
0
 10
206.5846153846154
 20
594.50769230769231
 42
1
  0
VERTEX
  8
0
 10
220.5846153846154
 20
594.50769230769231
 42
-0
  0
VERTEX
  8
0
 10
220.5846153846154
 20
610.50769230769231
 42
1
  0
SEQEND
  0
POLYLINE
  8
0
 10
0
 20
0
 39
0
 70
1
 66
1
  0
VERTEX
  8
0
 10
703.95384615384614
 20
380.50769230769231
 42
-0
  0
VERTEX
  8
0
 10
703.95384615384614
 20
640.50769230769231
 42
-0
  0
VERTEX
  8
0
 10
833.95384615384614
 20
640.50769230769231
 42
-0
  0
VERTEX
  8
0
 10
833.95384615384614
 20
380.50769230769231
 42
-0
  0
SEQEND
  0
POLYLINE
  8
0
 10
0
 20
0
 39
0
 70
1
 66
1
  0
VERTEX
  8
0
 10
777.45384615384614
 20
405.50769230769231
 42
1
  0
VERTEX
  8
0
 10
760.45384615384614
 20
405.50769230769231
 42
1
  0
SEQEND
  0
POLYLINE
  8
0
 10
0
 20
0
 39
0
 70
1
 66
1
  0
VERTEX
  8
0
 10
820.95384615384614
 20
435.50769230769231
 42
1
  0
VERTEX
  8
0
 10
806.95384615384614
 20
435.50769230769231
 42
1
  0
SEQEND
  0
POLYLINE
  8
0
 10
0
 20
0
 39
0
 70
1
 66
1
  0
VERTEX
  8
0
 10
730.95384615384614
 20
435.50769230769231
 42
1
  0
VERTEX
  8
0
 10
716.95384615384614
 20
435.50769230769231
 42
1
  0
SEQEND
  0
POLYLINE
  8
0
 10
0
 20
0
 39
0
 70
1
 66
1
  0
VERTEX
  8
0
 10
806.95384615384614
 20
610.50769230769231
 42
-0
  0
VERTEX
  8
0
 10
806.95384615384614
 20
594.50769230769231
 42
1
  0
VERTEX
  8
0
 10
820.95384615384614
 20
594.50769230769231
 42
0
  0
VERTEX
  8
0
 10
820.95384615384614
 20
610.50769230769231
 42
1
  0
SEQEND
  0
POLYLINE
  8
0
 10
0
 20
0
 39
0
 70
1
 66
1
  0
VERTEX
  8
0
 10
716.95384615384614
 20
610.50769230769231
 42
0
  0
VERTEX
  8
0
 10
716.95384615384614
 20
594.50769230769231
 42
1
  0
VERTEX
  8
0
 10
730.95384615384614
 20
594.50769230769231
 42
-0
  0
VERTEX
  8
0
 10
730.95384615384614
 20
610.50769230769231
 42
1
  0
SEQEND
  0
POLYLINE
  8
0
 10
0
 20
0
 39
0
 70
1
 66
1
  0
VERTEX
  8
0
 10
1214.323076923077
 20
380.50769230769231
 42
-0
  0
VERTEX
  8
0
 10
1214.323076923077
 20
640.50769230769231
 42
-0
  0
VERTEX
  8
0
 10
1344.323076923077
 20
640.50769230769231
 42
-0
  0
VERTEX
  8
0
 10
1344.323076923077
 20
380.50769230769231
 42
-0
  0
SEQEND
  0
POLYLINE
  8
0
 10
0
 20
0
 39
0
 70
1
 66
1
  0
VERTEX
  8
0
 10
1287.823076923077
 20
405.50769230769231
 42
1
  0
VERTEX
  8
0
 10
1270.823076923077
 20
405.50769230769231
 42
1
  0
SEQEND
  0
POLYLINE
  8
0
 10
0
 20
0
 39
0
 70
1
 66
1
  0
VERTEX
  8
0
 10
1331.323076923077
 20
435.50769230769231
 42
1
  0
VERTEX
  8
0
 10
1317.323076923077
 20
435.50769230769231
 42
1
  0
SEQEND
  0
POLYLINE
  8
0
 10
0
 20
0
 39
0
 70
1
 66
1
  0
VERTEX
  8
0
 10
1241.323076923077
 20
435.50769230769231
 42
1
  0
VERTEX
  8
0
 10
1227.323076923077
 20
435.50769230769231
 42
1
  0
SEQEND
  0
POLYLINE
  8
0
 10
0
 20
0
 39
0
 70
1
 66
1
  0
VERTEX
  8
0
 10
1317.323076923077
 20
610.50769230769231
 42
-0
  0
VERTEX
  8
0
 10
1317.323076923077
 20
594.50769230769231
 42
1
  0
VERTEX
  8
0
 10
1331.323076923077
 20
594.50769230769231
 42
0
  0
VERTEX
  8
0
 10
1331.323076923077
 20
610.50769230769231
 42
1
  0
SEQEND
  0
POLYLINE
  8
0
 10
0
 20
0
 39
0
 70
1
 66
1
  0
VERTEX
  8
0
 10
1227.323076923077
 20
610.50769230769231
 42
0
  0
VERTEX
  8
0
 10
1227.323076923077
 20
594.50769230769231
 42
1
  0
VERTEX
  8
0
 10
1241.323076923077
 20
594.50769230769231
 42
-0
  0
VERTEX
  8
0
 10
1241.323076923077
 20
610.50769230769231
 42
1
  0
SEQEND
  0
POLYLINE
  8
0
 10
0
 20
0
 39
0
 70
1
 66
1
  0
VERTEX
  8
0
 10
1724.6923076923076
 20
380.50769230769231
 42
-0
  0
VERTEX
  8
0
 10
1724.6923076923076
 20
640.50769230769231
 42
-0
  0
VERTEX
  8
0
 10
1854.6923076923076
 20
640.50769230769231
 42
-0
  0
VERTEX
  8
0
 10
1854.6923076923076
 20
380.50769230769231
 42
-0
  0
SEQEND
  0
POLYLINE
  8
0
 10
0
 20
0
 39
0
 70
1
 66
1
  0
VERTEX
  8
0
 10
1798.1923076923076
 20
405.50769230769231
 42
1
  0
VERTEX
  8
0
 10
1781.1923076923076
 20
405.50769230769231
 42
1
  0
SEQEND
  0
POLYLINE
  8
0
 10
0
 20
0
 39
0
 70
1
 66
1
  0
VERTEX
  8
0
 10
1841.6923076923076
 20
435.50769230769231
 42
1
  0
VERTEX
  8
0
 10
1827.6923076923076
 20
435.50769230769231
 42
1
  0
SEQEND
  0
POLYLINE
  8
0
 10
0
 20
0
 39
0
 70
1
 66
1
  0
VERTEX
  8
0
 10
1751.6923076923076
 20
435.50769230769231
 42
1
  0
VERTEX
  8
0
 10
1737.6923076923076
 20
435.50769230769231
 42
1
  0
SEQEND
  0
POLYLINE
  8
0
 10
0
 20
0
 39
0
 70
1
 66
1
  0
VERTEX
  8
0
 10
1827.6923076923076
 20
610.50769230769231
 42
-0
  0
VERTEX
  8
0
 10
1827.6923076923076
 20
594.50769230769231
 42
1
  0
VERTEX
  8
0
 10
1841.6923076923076
 20
594.50769230769231
 42
0
  0
VERTEX
  8
0
 10
1841.6923076923076
 20
610.50769230769231
 42
1
  0
SEQEND
  0
POLYLINE
  8
0
 10
0
 20
0
 39
0
 70
1
 66
1
  0
VERTEX
  8
0
 10
1737.6923076923076
 20
610.50769230769231
 42
0
  0
VERTEX
  8
0
 10
1737.6923076923076
 20
594.50769230769231
 42
1
  0
VERTEX
  8
0
 10
1751.6923076923076
 20
594.50769230769231
 42
-0
  0
VERTEX
  8
0
 10
1751.6923076923076
 20
610.50769230769231
 42
1
  0
SEQEND
  0
POLYLINE
  8
0
 10
0
 20
0
 39
0
 70
1
 66
1
  0
VERTEX
  8
0
 10
2235.0615384615385
 20
380.50769230769231
 42
-0
  0
VERTEX
  8
0
 10
2235.0615384615385
 20
640.50769230769231
 42
-0
  0
VERTEX
  8
0
 10
2365.0615384615385
 20
640.50769230769231
 42
-0
  0
VERTEX
  8
0
 10
2365.0615384615385
 20
380.50769230769231
 42
-0
  0
SEQEND
  0
POLYLINE
  8
0
 10
0
 20
0
 39
0
 70
1
 66
1
  0
VERTEX
  8
0
 10
2308.5615384615385
 20
405.50769230769231
 42
1
  0
VERTEX
  8
0
 10
2291.5615384615385
 20
405.50769230769231
 42
1
  0
SEQEND
  0
POLYLINE
  8
0
 10
0
 20
0
 39
0
 70
1
 66
1
  0
VERTEX
  8
0
 10
2352.0615384615385
 20
435.50769230769231
 42
1
  0
VERTEX
  8
0
 10
2338.0615384615385
 20
435.50769230769231
 42
1
  0
SEQEND
  0
POLYLINE
  8
0
 10
0
 20
0
 39
0
 70
1
 66
1
  0
VERTEX
  8
0
 10
2262.0615384615385
 20
435.50769230769231
 42
1
  0
VERTEX
  8
0
 10
2248.0615384615385
 20
435.50769230769231
 42
1
  0
SEQEND
  0
POLYLINE
  8
0
 10
0
 20
0
 39
0
 70
1
 66
1
  0
VERTEX
  8
0
 10
2338.0615384615385
 20
610.50769230769231
 42
-0
  0
VERTEX
  8
0
 10
2338.0615384615385
 20
594.50769230769231
 42
1
  0
VERTEX
  8
0
 10
2352.0615384615385
 20
594.50769230769231
 42
0
  0
VERTEX
  8
0
 10
2352.0615384615385
 20
610.50769230769231
 42
1
  0
SEQEND
  0
POLYLINE
  8
0
 10
0
 20
0
 39
0
 70
1
 66
1
  0
VERTEX
  8
0
 10
2248.0615384615385
 20
610.50769230769231
 42
0
  0
VERTEX
  8
0
 10
2248.0615384615385
 20
594.50769230769231
 42
1
  0
VERTEX
  8
0
 10
2262.0615384615385
 20
594.50769230769231
 42
-0
  0
VERTEX
  8
0
 10
2262.0615384615385
 20
610.50769230769231
 42
1
  0
SEQEND
  0
POLYLINE
  8
0
 10
0
 20
0
 39
0
 70
1
 66
1
  0
VERTEX
  8
0
 10
2745.4307692307693
 20
380.50769230769231
 42
-0
  0
VERTEX
  8
0
 10
2745.4307692307693
 20
640.50769230769231
 42
-0
  0
VERTEX
  8
0
 10
2875.4307692307693
 20
640.50769230769231
 42
-0
  0
VERTEX
  8
0
 10
2875.4307692307693
 20
380.50769230769231
 42
-0
  0
SEQEND
  0
POLYLINE
  8
0
 10
0
 20
0
 39
0
 70
1
 66
1
  0
VERTEX
  8
0
 10
2818.9307692307693
 20
405.50769230769231
 42
1
  0
VERTEX
  8
0
 10
2801.9307692307693
 20
405.50769230769231
 42
1
  0
SEQEND
  0
POLYLINE
  8
0
 10
0
 20
0
 39
0
 70
1
 66
1
  0
VERTEX
  8
0
 10
2862.4307692307693
 20
435.50769230769231
 42
1
  0
VERTEX
  8
0
 10
2848.4307692307693
 20
435.50769230769231
 42
1
  0
SEQEND
  0
POLYLINE
  8
0
 10
0
 20
0
 39
0
 70
1
 66
1
  0
VERTEX
  8
0
 10
2772.4307692307693
 20
435.50769230769231
 42
1
  0
VERTEX
  8
0
 10
2758.4307692307693
 20
435.50769230769231
 42
1
  0
SEQEND
  0
POLYLINE
  8
0
 10
0
 20
0
 39
0
 70
1
 66
1
  0
VERTEX
  8
0
 10
2848.4307692307693
 20
610.50769230769231
 42
-0
  0
VERTEX
  8
0
 10
2848.4307692307693
 20
594.50769230769231
 42
1
  0
VERTEX
  8
0
 10
2862.4307692307693
 20
594.50769230769231
 42
0
  0
VERTEX
  8
0
 10
2862.4307692307693
 20
610.50769230769231
 42
1
  0
SEQEND
  0
POLYLINE
  8
0
 10
0
 20
0
 39
0
 70
1
 66
1
  0
VERTEX
  8
0
 10
2758.4307692307693
 20
610.50769230769231
 42
0
  0
VERTEX
  8
0
 10
2758.4307692307693
 20
594.50769230769231
 42
1
  0
VERTEX
  8
0
 10
2772.4307692307693
 20
594.50769230769231
 42
-0
  0
VERTEX
  8
0
 10
2772.4307692307693
 20
610.50769230769231
 42
1
  0
SEQEND
  0
POLYLINE
  8
0
 10
0
 20
0
 39
0
 70
1
 66
1
  0
VERTEX
  8
0
 10
3255.8000000000002
 20
380.50769230769231
 42
-0
  0
VERTEX
  8
0
 10
3255.8000000000002
 20
640.50769230769231
 42
-0
  0
VERTEX
  8
0
 10
3385.8000000000002
 20
640.50769230769231
 42
-0
  0
VERTEX
  8
0
 10
3385.8000000000002
 20
380.50769230769231
 42
-0
  0
SEQEND
  0
POLYLINE
  8
0
 10
0
 20
0
 39
0
 70
1
 66
1
  0
VERTEX
  8
0
 10
3329.3000000000002
 20
405.50769230769231
 42
1
  0
VERTEX
  8
0
 10
3312.3000000000002
 20
405.50769230769231
 42
1
  0
SEQEND
  0
POLYLINE
  8
0
 10
0
 20
0
 39
0
 70
1
 66
1
  0
VERTEX
  8
0
 10
3372.8000000000002
 20
435.50769230769231
 42
1
  0
VERTEX
  8
0
 10
3358.8000000000002
 20
435.50769230769231
 42
1
  0
SEQEND
  0
POLYLINE
  8
0
 10
0
 20
0
 39
0
 70
1
 66
1
  0
VERTEX
  8
0
 10
3282.8000000000002
 20
435.50769230769231
 42
1
  0
VERTEX
  8
0
 10
3268.8000000000002
 20
435.50769230769231
 42
1
  0
SEQEND
  0
POLYLINE
  8
0
 10
0
 20
0
 39
0
 70
1
 66
1
  0
VERTEX
  8
0
 10
3358.8000000000002
 20
610.50769230769231
 42
-0
  0
VERTEX
  8
0
 10
3358.8000000000002
 20
594.50769230769231
 42
1
  0
VERTEX
  8
0
 10
3372.8000000000002
 20
594.50769230769231
 42
0
  0
VERTEX
  8
0
 10
3372.8000000000002
 20
610.50769230769231
 42
1
  0
SEQEND
  0
POLYLINE
  8
0
 10
0
 20
0
 39
0
 70
1
 66
1
  0
VERTEX
  8
0
 10
3268.8000000000002
 20
610.50769230769231
 42
0
  0
VERTEX
  8
0
 10
3268.8000000000002
 20
594.50769230769231
 42
1
  0
VERTEX
  8
0
 10
3282.8000000000002
 20
594.50769230769231
 42
-0
  0
VERTEX
  8
0
 10
3282.8000000000002
 20
610.50769230769231
 42
1
  0
SEQEND
  0
POLYLINE
  8
0
 10
0
 20
0
 39
0
 70
1
 66
1
  0
VERTEX
  8
0
 10
3245.2769230769231
 20
1488.876923076923
 42
-0
  0
VERTEX
  8
0
 10
3505.2769230769231
 20
1488.876923076923
 42
-0
  0
VERTEX
  8
0
 10
3505.2769230769231
 20
1358.876923076923
 42
-0
  0
VERTEX
  8
0
 10
3245.2769230769231
 20
1358.876923076923
 42
-0
  0
SEQEND
  0
POLYLINE
  8
0
 10
0
 20
0
 39
0
 70
1
 66
1
  0
VERTEX
  8
0
 10
3270.2769230769231
 20
1415.376923076923
 42
1
  0
VERTEX
  8
0
 10
3270.2769230769231
 20
1432.376923076923
 42
1
  0
SEQEND
  0
POLYLINE
  8
0
 10
0
 20
0
 39
0
 70
1
 66
1
  0
VERTEX
  8
0
 10
3300.2769230769231
 20
1371.876923076923
 42
1
  0
VERTEX
  8
0
 10
3300.2769230769231
 20
1385.876923076923
 42
1
  0
SEQEND
  0
POLYLINE
  8
0
 10
0
 20
0
 39
0
 70
1
 66
1
  0
VERTEX
  8
0
 10
3300.2769230769231
 20
1461.876923076923
 42
1
  0
VERTEX
  8
0
 10
3300.2769230769231
 20
1475.876923076923
 42
1
  0
SEQEND
  0
POLYLINE
  8
0
 10
0
 20
0
 39
0
 70
1
 66
1
  0
VERTEX
  8
0
 10
3475.2769230769231
 20
1385.876923076923
 42
-0
  0
VERTEX
  8
0
 10
3459.2769230769231
 20
1385.876923076923
 42
1
  0
VERTEX
  8
0
 10
3459.2769230769231
 20
1371.876923076923
 42
0
  0
VERTEX
  8
0
 10
3475.2769230769231
 20
1371.876923076923
 42
1
  0
SEQEND
  0
POLYLINE
  8
0
 10
0
 20
0
 39
0
 70
1
 66
1
  0
VERTEX
  8
0
 10
3475.2769230769231
 20
1475.876923076923
 42
0
  0
VERTEX
  8
0
 10
3459.2769230769231
 20
1475.876923076923
 42
1
  0
VERTEX
  8
0
 10
3459.2769230769231
 20
1461.876923076923
 42
-0
  0
VERTEX
  8
0
 10
3475.2769230769231
 20
1461.876923076923
 42
1
  0
SEQEND
  0
POLYLINE
  8
0
 10
0
 20
0
 39
0
 70
1
 66
1
  0
VERTEX
  8
0
 10
196.35384615384615
 20
1298.7807692307692
 42
-0
  0
VERTEX
  8
0
 10
196.35384615384615
 20
1258.5307692307692
 42
0
  0
VERTEX
  8
0
 10
220.35384615384615
 20
1258.5307692307692
 42
-0
  0
VERTEX
  8
0
 10
220.35384615384615
 20
1182.5307692307692
 42
-0
  0
VERTEX
  8
0
 10
196.35384615384615
 20
1182.5307692307692
 42
-0
  0
VERTEX
  8
0
 10
196.35384615384615
 20
1142.2807692307692
 42
-0
  0
VERTEX
  8
0
 10
175.35384615384615
 20
1111.0307692307692
 42
-0
  0
VERTEX
  8
0
 10
115.35384615384615
 20
1111.0307692307692
 42
-0
  0
VERTEX
  8
0
 10
94.353846153846149
 20
1142.2807692307692
 42
0
  0
VERTEX
  8
0
 10
94.353846153846149
 20
1182.5307692307692
 42
-0
  0
VERTEX
  8
0
 10
70.353846153846149
 20
1182.5307692307692
 42
-0
  0
VERTEX
  8
0
 10
70.353846153846149
 20
1258.5307692307692
 42
0
  0
VERTEX
  8
0
 10
94.353846153846149
 20
1258.5307692307692
 42
0
  0
VERTEX
  8
0
 10
94.353846153846149
 20
1298.7807692307692
 42
0
  0
VERTEX
  8
0
 10
115.35384615384615
 20
1330.0307692307692
 42
-0
  0
VERTEX
  8
0
 10
175.35384615384615
 20
1330.0307692307692
 42
0
  0
SEQEND
  0
POLYLINE
  8
0
 10
0
 20
0
 39
0
 70
1
 66
1
  0
VERTEX
  8
0
 10
130.35384615384615
 20
1129.7807692307692
 42
-0
  0
VERTEX
  8
0
 10
160.35384615384615
 20
1129.7807692307692
 42
1
  0
VERTEX
  8
0
 10
160.35384615384615
 20
1142.2807692307692
 42
0
  0
VERTEX
  8
0
 10
130.35384615384615
 20
1142.2807692307692
 42
1
  0
SEQEND
  0
POLYLINE
  8
0
 10
0
 20
0
 39
0
 70
1
 66
1
  0
VERTEX
  8
0
 10
208.60384615384615
 20
1211.7807692307692
 42
0
  0
VERTEX
  8
0
 10
208.60384615384615
 20
1229.2807692307692
 42
1
  0
VERTEX
  8
0
 10
196.10384615384615
 20
1229.2807692307692
 42
-0
  0
VERTEX
  8
0
 10
196.10384615384615
 20
1211.7807692307692
 42
1
  0
SEQEND
  0
POLYLINE
  8
0
 10
0
 20
0
 39
0
 70
1
 66
1
  0
VERTEX
  8
0
 10
82.103846153846149
 20
1229.2807692307692
 42
-0
  0
VERTEX
  8
0
 10
82.103846153846149
 20
1211.7807692307692
 42
1
  0
VERTEX
  8
0
 10
94.603846153846149
 20
1211.7807692307692
 42
0
  0
VERTEX
  8
0
 10
94.603846153846149
 20
1229.2807692307692
 42
1
  0
SEQEND
  0
POLYLINE
  8
0
 10
0
 20
0
 39
0
 70
1
 66
1
  0
VERTEX
  8
0
 10
130.35384615384615
 20
1311.2807692307692
 42
1
  0
VERTEX
  8
0
 10
130.35384615384615
 20
1298.7807692307692
 42
-0
  0
VERTEX
  8
0
 10
160.35384615384615
 20
1298.7807692307692
 42
1
  0
VERTEX
  8
0
 10
160.35384615384615
 20
1311.2807692307692
 42
0
  0
SEQEND
  0
POLYLINE
  8
0
 10
0
 20
0
 39
0
 70
1
 66
1
  0
VERTEX
  8
0
 10
601.49230769230769
 20
1366.9038461538462
 42
-0
  0
VERTEX
  8
0
 10
601.49230769230769
 20
1326.6538461538462
 42
0
  0
VERTEX
  8
0
 10
625.49230769230769
 20
1326.6538461538462
 42
-0
  0
VERTEX
  8
0
 10
625.49230769230769
 20
1250.6538461538462
 42
-0
  0
VERTEX
  8
0
 10
601.49230769230769
 20
1250.6538461538462
 42
-0
  0
VERTEX
  8
0
 10
601.49230769230769
 20
1210.4038461538462
 42
-0
  0
VERTEX
  8
0
 10
580.49230769230769
 20
1179.1538461538462
 42
-0
  0
VERTEX
  8
0
 10
520.49230769230769
 20
1179.1538461538462
 42
-0
  0
VERTEX
  8
0
 10
499.49230769230769
 20
1210.4038461538462
 42
0
  0
VERTEX
  8
0
 10
499.49230769230769
 20
1250.6538461538462
 42
-0
  0
VERTEX
  8
0
 10
475.49230769230769
 20
1250.6538461538462
 42
-0
  0
VERTEX
  8
0
 10
475.49230769230769
 20
1326.6538461538462
 42
0
  0
VERTEX
  8
0
 10
499.49230769230769
 20
1326.6538461538462
 42
0
  0
VERTEX
  8
0
 10
499.49230769230769
 20
1366.9038461538462
 42
0
  0
VERTEX
  8
0
 10
520.49230769230769
 20
1398.1538461538462
 42
-0
  0
VERTEX
  8
0
 10
580.49230769230769
 20
1398.1538461538462
 42
0
  0
SEQEND
  0
POLYLINE
  8
0
 10
0
 20
0
 39
0
 70
1
 66
1
  0
VERTEX
  8
0
 10
535.49230769230769
 20
1197.9038461538462
 42
-0
  0
VERTEX
  8
0
 10
565.49230769230769
 20
1197.9038461538462
 42
1
  0
VERTEX
  8
0
 10
565.49230769230769
 20
1210.4038461538462
 42
0
  0
VERTEX
  8
0
 10
535.49230769230769
 20
1210.4038461538462
 42
1
  0
SEQEND
  0
POLYLINE
  8
0
 10
0
 20
0
 39
0
 70
1
 66
1
  0
VERTEX
  8
0
 10
613.74230769230769
 20
1279.9038461538462
 42
0
  0
VERTEX
  8
0
 10
613.74230769230769
 20
1297.4038461538462
 42
1
  0
VERTEX
  8
0
 10
601.24230769230769
 20
1297.4038461538462
 42
-0
  0
VERTEX
  8
0
 10
601.24230769230769
 20
1279.9038461538462
 42
1
  0
SEQEND
  0
POLYLINE
  8
0
 10
0
 20
0
 39
0
 70
1
 66
1
  0
VERTEX
  8
0
 10
487.24230769230769
 20
1297.4038461538462
 42
-0
  0
VERTEX
  8
0
 10
487.24230769230769
 20
1279.9038461538462
 42
1
  0
VERTEX
  8
0
 10
499.74230769230769
 20
1279.9038461538462
 42
0
  0
VERTEX
  8
0
 10
499.74230769230769
 20
1297.4038461538462
 42
1
  0
SEQEND
  0
POLYLINE
  8
0
 10
0
 20
0
 39
0
 70
1
 66
1
  0
VERTEX
  8
0
 10
535.49230769230769
 20
1379.4038461538462
 42
1
  0
VERTEX
  8
0
 10
535.49230769230769
 20
1366.9038461538462
 42
-0
  0
VERTEX
  8
0
 10
565.49230769230769
 20
1366.9038461538462
 42
1
  0
VERTEX
  8
0
 10
565.49230769230769
 20
1379.4038461538462
 42
0
  0
SEQEND
  0
POLYLINE
  8
0
 10
0
 20
0
 39
0
 70
1
 66
1
  0
VERTEX
  8
0
 10
1006.6307692307691
 20
1298.7807692307692
 42
-0
  0
VERTEX
  8
0
 10
1006.6307692307691
 20
1258.5307692307692
 42
0
  0
VERTEX
  8
0
 10
1030.6307692307691
 20
1258.5307692307692
 42
-0
  0
VERTEX
  8
0
 10
1030.6307692307691
 20
1182.5307692307692
 42
-0
  0
VERTEX
  8
0
 10
1006.6307692307691
 20
1182.5307692307692
 42
-0
  0
VERTEX
  8
0
 10
1006.6307692307691
 20
1142.2807692307692
 42
-0
  0
VERTEX
  8
0
 10
985.63076923076915
 20
1111.0307692307692
 42
-0
  0
VERTEX
  8
0
 10
925.63076923076915
 20
1111.0307692307692
 42
-0
  0
VERTEX
  8
0
 10
904.63076923076915
 20
1142.2807692307692
 42
0
  0
VERTEX
  8
0
 10
904.63076923076915
 20
1182.5307692307692
 42
-0
  0
VERTEX
  8
0
 10
880.63076923076915
 20
1182.5307692307692
 42
-0
  0
VERTEX
  8
0
 10
880.63076923076915
 20
1258.5307692307692
 42
0
  0
VERTEX
  8
0
 10
904.63076923076915
 20
1258.5307692307692
 42
0
  0
VERTEX
  8
0
 10
904.63076923076915
 20
1298.7807692307692
 42
0
  0
VERTEX
  8
0
 10
925.63076923076915
 20
1330.0307692307692
 42
-0
  0
VERTEX
  8
0
 10
985.63076923076915
 20
1330.0307692307692
 42
0
  0
SEQEND
  0
POLYLINE
  8
0
 10
0
 20
0
 39
0
 70
1
 66
1
  0
VERTEX
  8
0
 10
940.63076923076915
 20
1129.7807692307692
 42
-0
  0
VERTEX
  8
0
 10
970.63076923076915
 20
1129.7807692307692
 42
1
  0
VERTEX
  8
0
 10
970.63076923076915
 20
1142.2807692307692
 42
0
  0
VERTEX
  8
0
 10
940.63076923076915
 20
1142.2807692307692
 42
1
  0
SEQEND
  0
POLYLINE
  8
0
 10
0
 20
0
 39
0
 70
1
 66
1
  0
VERTEX
  8
0
 10
1018.8807692307691
 20
1211.7807692307692
 42
0
  0
VERTEX
  8
0
 10
1018.8807692307691
 20
1229.2807692307692
 42
1
  0
VERTEX
  8
0
 10
1006.3807692307691
 20
1229.2807692307692
 42
-0
  0
VERTEX
  8
0
 10
1006.3807692307691
 20
1211.7807692307692
 42
1
  0
SEQEND
  0
POLYLINE
  8
0
 10
0
 20
0
 39
0
 70
1
 66
1
  0
VERTEX
  8
0
 10
892.38076923076915
 20
1229.2807692307692
 42
-0
  0
VERTEX
  8
0
 10
892.38076923076915
 20
1211.7807692307692
 42
1
  0
VERTEX
  8
0
 10
904.88076923076915
 20
1211.7807692307692
 42
0
  0
VERTEX
  8
0
 10
904.88076923076915
 20
1229.2807692307692
 42
1
  0
SEQEND
  0
POLYLINE
  8
0
 10
0
 20
0
 39
0
 70
1
 66
1
  0
VERTEX
  8
0
 10
940.63076923076915
 20
1311.2807692307692
 42
1
  0
VERTEX
  8
0
 10
940.63076923076915
 20
1298.7807692307692
 42
-0
  0
VERTEX
  8
0
 10
970.63076923076915
 20
1298.7807692307692
 42
1
  0
VERTEX
  8
0
 10
970.63076923076915
 20
1311.2807692307692
 42
0
  0
SEQEND
  0
POLYLINE
  8
0
 10
0
 20
0
 39
0
 70
1
 66
1
  0
VERTEX
  8
0
 10
1411.7692307692307
 20
1366.9038461538462
 42
-0
  0
VERTEX
  8
0
 10
1411.7692307692307
 20
1326.6538461538462
 42
0
  0
VERTEX
  8
0
 10
1435.7692307692307
 20
1326.6538461538462
 42
-0
  0
VERTEX
  8
0
 10
1435.7692307692307
 20
1250.6538461538462
 42
-0
  0
VERTEX
  8
0
 10
1411.7692307692307
 20
1250.6538461538462
 42
-0
  0
VERTEX
  8
0
 10
1411.7692307692307
 20
1210.4038461538462
 42
-0
  0
VERTEX
  8
0
 10
1390.7692307692307
 20
1179.1538461538462
 42
-0
  0
VERTEX
  8
0
 10
1330.7692307692307
 20
1179.1538461538462
 42
-0
  0
VERTEX
  8
0
 10
1309.7692307692307
 20
1210.4038461538462
 42
0
  0
VERTEX
  8
0
 10
1309.7692307692307
 20
1250.6538461538462
 42
-0
  0
VERTEX
  8
0
 10
1285.7692307692307
 20
1250.6538461538462
 42
-0
  0
VERTEX
  8
0
 10
1285.7692307692307
 20
1326.6538461538462
 42
0
  0
VERTEX
  8
0
 10
1309.7692307692307
 20
1326.6538461538462
 42
0
  0
VERTEX
  8
0
 10
1309.7692307692307
 20
1366.9038461538462
 42
0
  0
VERTEX
  8
0
 10
1330.7692307692307
 20
1398.1538461538462
 42
-0
  0
VERTEX
  8
0
 10
1390.7692307692307
 20
1398.1538461538462
 42
0
  0
SEQEND
  0
POLYLINE
  8
0
 10
0
 20
0
 39
0
 70
1
 66
1
  0
VERTEX
  8
0
 10
1345.7692307692307
 20
1197.9038461538462
 42
-0
  0
VERTEX
  8
0
 10
1375.7692307692307
 20
1197.9038461538462
 42
1
  0
VERTEX
  8
0
 10
1375.7692307692307
 20
1210.4038461538462
 42
0
  0
VERTEX
  8
0
 10
1345.7692307692307
 20
1210.4038461538462
 42
1
  0
SEQEND
  0
POLYLINE
  8
0
 10
0
 20
0
 39
0
 70
1
 66
1
  0
VERTEX
  8
0
 10
1424.0192307692307
 20
1279.9038461538462
 42
0
  0
VERTEX
  8
0
 10
1424.0192307692307
 20
1297.4038461538462
 42
1
  0
VERTEX
  8
0
 10
1411.5192307692307
 20
1297.4038461538462
 42
-0
  0
VERTEX
  8
0
 10
1411.5192307692307
 20
1279.9038461538462
 42
1
  0
SEQEND
  0
POLYLINE
  8
0
 10
0
 20
0
 39
0
 70
1
 66
1
  0
VERTEX
  8
0
 10
1297.5192307692307
 20
1297.4038461538462
 42
-0
  0
VERTEX
  8
0
 10
1297.5192307692307
 20
1279.9038461538462
 42
1
  0
VERTEX
  8
0
 10
1310.0192307692307
 20
1279.9038461538462
 42
0
  0
VERTEX
  8
0
 10
1310.0192307692307
 20
1297.4038461538462
 42
1
  0
SEQEND
  0
POLYLINE
  8
0
 10
0
 20
0
 39
0
 70
1
 66
1
  0
VERTEX
  8
0
 10
1345.7692307692307
 20
1379.4038461538462
 42
1
  0
VERTEX
  8
0
 10
1345.7692307692307
 20
1366.9038461538462
 42
-0
  0
VERTEX
  8
0
 10
1375.7692307692307
 20
1366.9038461538462
 42
1
  0
VERTEX
  8
0
 10
1375.7692307692307
 20
1379.4038461538462
 42
0
  0
SEQEND
  0
POLYLINE
  8
0
 10
0
 20
0
 39
0
 70
1
 66
1
  0
VERTEX
  8
0
 10
1816.9076923076923
 20
1298.7807692307692
 42
-0
  0
VERTEX
  8
0
 10
1816.9076923076923
 20
1258.5307692307692
 42
0
  0
VERTEX
  8
0
 10
1840.9076923076923
 20
1258.5307692307692
 42
-0
  0
VERTEX
  8
0
 10
1840.9076923076923
 20
1182.5307692307692
 42
-0
  0
VERTEX
  8
0
 10
1816.9076923076923
 20
1182.5307692307692
 42
-0
  0
VERTEX
  8
0
 10
1816.9076923076923
 20
1142.2807692307692
 42
-0
  0
VERTEX
  8
0
 10
1795.9076923076923
 20
1111.0307692307692
 42
-0
  0
VERTEX
  8
0
 10
1735.9076923076923
 20
1111.0307692307692
 42
-0
  0
VERTEX
  8
0
 10
1714.9076923076923
 20
1142.2807692307692
 42
0
  0
VERTEX
  8
0
 10
1714.9076923076923
 20
1182.5307692307692
 42
-0
  0
VERTEX
  8
0
 10
1690.9076923076923
 20
1182.5307692307692
 42
-0
  0
VERTEX
  8
0
 10
1690.9076923076923
 20
1258.5307692307692
 42
0
  0
VERTEX
  8
0
 10
1714.9076923076923
 20
1258.5307692307692
 42
0
  0
VERTEX
  8
0
 10
1714.9076923076923
 20
1298.7807692307692
 42
0
  0
VERTEX
  8
0
 10
1735.9076923076923
 20
1330.0307692307692
 42
-0
  0
VERTEX
  8
0
 10
1795.9076923076923
 20
1330.0307692307692
 42
0
  0
SEQEND
  0
POLYLINE
  8
0
 10
0
 20
0
 39
0
 70
1
 66
1
  0
VERTEX
  8
0
 10
1750.9076923076923
 20
1129.7807692307692
 42
-0
  0
VERTEX
  8
0
 10
1780.9076923076923
 20
1129.7807692307692
 42
1
  0
VERTEX
  8
0
 10
1780.9076923076923
 20
1142.2807692307692
 42
0
  0
VERTEX
  8
0
 10
1750.9076923076923
 20
1142.2807692307692
 42
1
  0
SEQEND
  0
POLYLINE
  8
0
 10
0
 20
0
 39
0
 70
1
 66
1
  0
VERTEX
  8
0
 10
1829.1576923076923
 20
1211.7807692307692
 42
0
  0
VERTEX
  8
0
 10
1829.1576923076923
 20
1229.2807692307692
 42
1
  0
VERTEX
  8
0
 10
1816.6576923076923
 20
1229.2807692307692
 42
-0
  0
VERTEX
  8
0
 10
1816.6576923076923
 20
1211.7807692307692
 42
1
  0
SEQEND
  0
POLYLINE
  8
0
 10
0
 20
0
 39
0
 70
1
 66
1
  0
VERTEX
  8
0
 10
1702.6576923076923
 20
1229.2807692307692
 42
-0
  0
VERTEX
  8
0
 10
1702.6576923076923
 20
1211.7807692307692
 42
1
  0
VERTEX
  8
0
 10
1715.1576923076923
 20
1211.7807692307692
 42
0
  0
VERTEX
  8
0
 10
1715.1576923076923
 20
1229.2807692307692
 42
1
  0
SEQEND
  0
POLYLINE
  8
0
 10
0
 20
0
 39
0
 70
1
 66
1
  0
VERTEX
  8
0
 10
1750.9076923076923
 20
1311.2807692307692
 42
1
  0
VERTEX
  8
0
 10
1750.9076923076923
 20
1298.7807692307692
 42
-0
  0
VERTEX
  8
0
 10
1780.9076923076923
 20
1298.7807692307692
 42
1
  0
VERTEX
  8
0
 10
1780.9076923076923
 20
1311.2807692307692
 42
0
  0
SEQEND
  0
POLYLINE
  8
0
 10
0
 20
0
 39
0
 70
1
 66
1
  0
VERTEX
  8
0
 10
2222.0461538461536
 20
1366.9038461538462
 42
-0
  0
VERTEX
  8
0
 10
2222.0461538461536
 20
1326.6538461538462
 42
0
  0
VERTEX
  8
0
 10
2246.0461538461536
 20
1326.6538461538462
 42
-0
  0
VERTEX
  8
0
 10
2246.0461538461536
 20
1250.6538461538462
 42
-0
  0
VERTEX
  8
0
 10
2222.0461538461536
 20
1250.6538461538462
 42
-0
  0
VERTEX
  8
0
 10
2222.0461538461536
 20
1210.4038461538462
 42
-0
  0
VERTEX
  8
0
 10
2201.0461538461536
 20
1179.1538461538462
 42
-0
  0
VERTEX
  8
0
 10
2141.0461538461536
 20
1179.1538461538462
 42
-0
  0
VERTEX
  8
0
 10
2120.0461538461536
 20
1210.4038461538462
 42
0
  0
VERTEX
  8
0
 10
2120.0461538461536
 20
1250.6538461538462
 42
-0
  0
VERTEX
  8
0
 10
2096.0461538461536
 20
1250.6538461538462
 42
-0
  0
VERTEX
  8
0
 10
2096.0461538461536
 20
1326.6538461538462
 42
0
  0
VERTEX
  8
0
 10
2120.0461538461536
 20
1326.6538461538462
 42
0
  0
VERTEX
  8
0
 10
2120.0461538461536
 20
1366.9038461538462
 42
0
  0
VERTEX
  8
0
 10
2141.0461538461536
 20
1398.1538461538462
 42
-0
  0
VERTEX
  8
0
 10
2201.0461538461536
 20
1398.1538461538462
 42
0
  0
SEQEND
  0
POLYLINE
  8
0
 10
0
 20
0
 39
0
 70
1
 66
1
  0
VERTEX
  8
0
 10
2156.0461538461536
 20
1197.9038461538462
 42
-0
  0
VERTEX
  8
0
 10
2186.0461538461536
 20
1197.9038461538462
 42
1
  0
VERTEX
  8
0
 10
2186.0461538461536
 20
1210.4038461538462
 42
0
  0
VERTEX
  8
0
 10
2156.0461538461536
 20
1210.4038461538462
 42
1
  0
SEQEND
  0
POLYLINE
  8
0
 10
0
 20
0
 39
0
 70
1
 66
1
  0
VERTEX
  8
0
 10
2234.2961538461536
 20
1279.9038461538462
 42
0
  0
VERTEX
  8
0
 10
2234.2961538461536
 20
1297.4038461538462
 42
1
  0
VERTEX
  8
0
 10
2221.7961538461536
 20
1297.4038461538462
 42
-0
  0
VERTEX
  8
0
 10
2221.7961538461536
 20
1279.9038461538462
 42
1
  0
SEQEND
  0
POLYLINE
  8
0
 10
0
 20
0
 39
0
 70
1
 66
1
  0
VERTEX
  8
0
 10
2107.7961538461536
 20
1297.4038461538462
 42
-0
  0
VERTEX
  8
0
 10
2107.7961538461536
 20
1279.9038461538462
 42
1
  0
VERTEX
  8
0
 10
2120.2961538461536
 20
1279.9038461538462
 42
0
  0
VERTEX
  8
0
 10
2120.2961538461536
 20
1297.4038461538462
 42
1
  0
SEQEND
  0
POLYLINE
  8
0
 10
0
 20
0
 39
0
 70
1
 66
1
  0
VERTEX
  8
0
 10
2156.0461538461536
 20
1379.4038461538462
 42
1
  0
VERTEX
  8
0
 10
2156.0461538461536
 20
1366.9038461538462
 42
-0
  0
VERTEX
  8
0
 10
2186.0461538461536
 20
1366.9038461538462
 42
1
  0
VERTEX
  8
0
 10
2186.0461538461536
 20
1379.4038461538462
 42
0
  0
SEQEND
  0
POLYLINE
  8
0
 10
0
 20
0
 39
0
 70
1
 66
1
  0
VERTEX
  8
0
 10
2627.1846153846154
 20
1298.7807692307692
 42
-0
  0
VERTEX
  8
0
 10
2627.1846153846154
 20
1258.5307692307692
 42
0
  0
VERTEX
  8
0
 10
2651.1846153846154
 20
1258.5307692307692
 42
-0
  0
VERTEX
  8
0
 10
2651.1846153846154
 20
1182.5307692307692
 42
-0
  0
VERTEX
  8
0
 10
2627.1846153846154
 20
1182.5307692307692
 42
-0
  0
VERTEX
  8
0
 10
2627.1846153846154
 20
1142.2807692307692
 42
-0
  0
VERTEX
  8
0
 10
2606.1846153846154
 20
1111.0307692307692
 42
-0
  0
VERTEX
  8
0
 10
2546.1846153846154
 20
1111.0307692307692
 42
-0
  0
VERTEX
  8
0
 10
2525.1846153846154
 20
1142.2807692307692
 42
0
  0
VERTEX
  8
0
 10
2525.1846153846154
 20
1182.5307692307692
 42
-0
  0
VERTEX
  8
0
 10
2501.1846153846154
 20
1182.5307692307692
 42
-0
  0
VERTEX
  8
0
 10
2501.1846153846154
 20
1258.5307692307692
 42
0
  0
VERTEX
  8
0
 10
2525.1846153846154
 20
1258.5307692307692
 42
0
  0
VERTEX
  8
0
 10
2525.1846153846154
 20
1298.7807692307692
 42
0
  0
VERTEX
  8
0
 10
2546.1846153846154
 20
1330.0307692307692
 42
-0
  0
VERTEX
  8
0
 10
2606.1846153846154
 20
1330.0307692307692
 42
0
  0
SEQEND
  0
POLYLINE
  8
0
 10
0
 20
0
 39
0
 70
1
 66
1
  0
VERTEX
  8
0
 10
2561.1846153846154
 20
1129.7807692307692
 42
-0
  0
VERTEX
  8
0
 10
2591.1846153846154
 20
1129.7807692307692
 42
1
  0
VERTEX
  8
0
 10
2591.1846153846154
 20
1142.2807692307692
 42
0
  0
VERTEX
  8
0
 10
2561.1846153846154
 20
1142.2807692307692
 42
1
  0
SEQEND
  0
POLYLINE
  8
0
 10
0
 20
0
 39
0
 70
1
 66
1
  0
VERTEX
  8
0
 10
2639.4346153846154
 20
1211.7807692307692
 42
0
  0
VERTEX
  8
0
 10
2639.4346153846154
 20
1229.2807692307692
 42
1
  0
VERTEX
  8
0
 10
2626.9346153846154
 20
1229.2807692307692
 42
-0
  0
VERTEX
  8
0
 10
2626.9346153846154
 20
1211.7807692307692
 42
1
  0
SEQEND
  0
POLYLINE
  8
0
 10
0
 20
0
 39
0
 70
1
 66
1
  0
VERTEX
  8
0
 10
2512.9346153846154
 20
1229.2807692307692
 42
-0
  0
VERTEX
  8
0
 10
2512.9346153846154
 20
1211.7807692307692
 42
1
  0
VERTEX
  8
0
 10
2525.4346153846154
 20
1211.7807692307692
 42
0
  0
VERTEX
  8
0
 10
2525.4346153846154
 20
1229.2807692307692
 42
1
  0
SEQEND
  0
POLYLINE
  8
0
 10
0
 20
0
 39
0
 70
1
 66
1
  0
VERTEX
  8
0
 10
2561.1846153846154
 20
1311.2807692307692
 42
1
  0
VERTEX
  8
0
 10
2561.1846153846154
 20
1298.7807692307692
 42
-0
  0
VERTEX
  8
0
 10
2591.1846153846154
 20
1298.7807692307692
 42
1
  0
VERTEX
  8
0
 10
2591.1846153846154
 20
1311.2807692307692
 42
0
  0
SEQEND
  0
POLYLINE
  8
0
 10
0
 20
0
 39
0
 70
1
 66
1
  0
VERTEX
  8
0
 10
3032.3230769230768
 20
1366.9038461538462
 42
-0
  0
VERTEX
  8
0
 10
3032.3230769230768
 20
1326.6538461538462
 42
0
  0
VERTEX
  8
0
 10
3056.3230769230768
 20
1326.6538461538462
 42
-0
  0
VERTEX
  8
0
 10
3056.3230769230768
 20
1250.6538461538462
 42
-0
  0
VERTEX
  8
0
 10
3032.3230769230768
 20
1250.6538461538462
 42
-0
  0
VERTEX
  8
0
 10
3032.3230769230768
 20
1210.4038461538462
 42
-0
  0
VERTEX
  8
0
 10
3011.3230769230768
 20
1179.1538461538462
 42
-0
  0
VERTEX
  8
0
 10
2951.3230769230768
 20
1179.1538461538462
 42
-0
  0
VERTEX
  8
0
 10
2930.3230769230768
 20
1210.4038461538462
 42
0
  0
VERTEX
  8
0
 10
2930.3230769230768
 20
1250.6538461538462
 42
-0
  0
VERTEX
  8
0
 10
2906.3230769230768
 20
1250.6538461538462
 42
-0
  0
VERTEX
  8
0
 10
2906.3230769230768
 20
1326.6538461538462
 42
0
  0
VERTEX
  8
0
 10
2930.3230769230768
 20
1326.6538461538462
 42
0
  0
VERTEX
  8
0
 10
2930.3230769230768
 20
1366.9038461538462
 42
0
  0
VERTEX
  8
0
 10
2951.3230769230768
 20
1398.1538461538462
 42
-0
  0
VERTEX
  8
0
 10
3011.3230769230768
 20
1398.1538461538462
 42
0
  0
SEQEND
  0
POLYLINE
  8
0
 10
0
 20
0
 39
0
 70
1
 66
1
  0
VERTEX
  8
0
 10
2966.3230769230768
 20
1197.9038461538462
 42
-0
  0
VERTEX
  8
0
 10
2996.3230769230768
 20
1197.9038461538462
 42
1
  0
VERTEX
  8
0
 10
2996.3230769230768
 20
1210.4038461538462
 42
0
  0
VERTEX
  8
0
 10
2966.3230769230768
 20
1210.4038461538462
 42
1
  0
SEQEND
  0
POLYLINE
  8
0
 10
0
 20
0
 39
0
 70
1
 66
1
  0
VERTEX
  8
0
 10
3044.5730769230768
 20
1279.9038461538462
 42
0
  0
VERTEX
  8
0
 10
3044.5730769230768
 20
1297.4038461538462
 42
1
  0
VERTEX
  8
0
 10
3032.0730769230768
 20
1297.4038461538462
 42
-0
  0
VERTEX
  8
0
 10
3032.0730769230768
 20
1279.9038461538462
 42
1
  0
SEQEND
  0
POLYLINE
  8
0
 10
0
 20
0
 39
0
 70
1
 66
1
  0
VERTEX
  8
0
 10
2918.0730769230768
 20
1297.4038461538462
 42
-0
  0
VERTEX
  8
0
 10
2918.0730769230768
 20
1279.9038461538462
 42
1
  0
VERTEX
  8
0
 10
2930.5730769230768
 20
1279.9038461538462
 42
0
  0
VERTEX
  8
0
 10
2930.5730769230768
 20
1297.4038461538462
 42
1
  0
SEQEND
  0
POLYLINE
  8
0
 10
0
 20
0
 39
0
 70
1
 66
1
  0
VERTEX
  8
0
 10
2966.3230769230768
 20
1379.4038461538462
 42
1
  0
VERTEX
  8
0
 10
2966.3230769230768
 20
1366.9038461538462
 42
-0
  0
VERTEX
  8
0
 10
2996.3230769230768
 20
1366.9038461538462
 42
1
  0
VERTEX
  8
0
 10
2996.3230769230768
 20
1379.4038461538462
 42
0
  0
SEQEND
  0
POLYLINE
  8
0
 10
0
 20
0
 39
0
 70
1
 66
1
  0
VERTEX
  8
0
 10
181.68174400227076
 20
146.39807145794828
 42
-0
  0
VERTEX
  8
0
 10
147.16640761650297
 20
200.3674192194527
 42
-0.59317100048065186
  0
VERTEX
  8
0
 10
164.05042280111729
 20
231.14291462114545
 42
0
  0
VERTEX
  8
0
 10
228.11278484254689
 20
231.03068214037978
 42
-1.6858545541763306
  0
SEQEND
  0
POLYLINE
  8
0
 10
0
 20
0
 39
0
 70
1
 66
1
  0
VERTEX
  8
0
 10
172.43268218462663
 20
226.48566681157092
 42
1
  0
VERTEX
  8
0
 10
155.59807520930963
 20
195.80023068200092
 42
1
  0
SEQEND
  0
POLYLINE
  8
0
 10
0
 20
0
 39
0
 70
1
 66
1
  0
VERTEX
  8
0
 10
242.44609431748586
 20
202.33257088075618
 42
1
  0
VERTEX
  8
0
 10
213.58676807408528
 20
149.7289660872076
 42
1
  0
SEQEND
  0
POLYLINE
  8
0
 10
0
 20
0
 39
0
 70
1
 66
1
  0
VERTEX
  8
0
 10
181.68174400227076
 20
796.3365329964098
 42
-0
  0
VERTEX
  8
0
 10
147.16640761650297
 20
850.30588075791422
 42
-0.59317100048065186
  0
VERTEX
  8
0
 10
164.05042280111729
 20
881.08137615960698
 42
0
  0
VERTEX
  8
0
 10
228.11278484254689
 20
880.96914367884131
 42
-1.6858545541763306
  0
SEQEND
  0
POLYLINE
  8
0
 10
0
 20
0
 39
0
 70
1
 66
1
  0
VERTEX
  8
0
 10
172.43268218462663
 20
876.42412835003245
 42
1
  0
VERTEX
  8
0
 10
155.59807520930963
 20
845.73869222046244
 42
1
  0
SEQEND
  0
POLYLINE
  8
0
 10
0
 20
0
 39
0
 70
1
 66
1
  0
VERTEX
  8
0
 10
242.44609431748586
 20
852.2710324192177
 42
1
  0
VERTEX
  8
0
 10
213.58676807408528
 20
799.66742762566912
 42
1
  0
SEQEND
  0
POLYLINE
  8
0
 10
0
 20
0
 39
0
 70
1
 66
1
  0
VERTEX
  8
0
 10
314.60641228171721
 20
1123.2202055407322
 42
-0
  0
VERTEX
  8
0
 10
260.63706452021279
 20
1088.7048691549644
 42
-0.59317100048065186
  0
VERTEX
  8
0
 10
229.86156911852001
 20
1105.5888843395787
 42
0
  0
VERTEX
  8
0
 10
229.97380159928565
 20
1169.6512463810084
 42
-1.6858545541763306
  0
SEQEND
  0
POLYLINE
  8
0
 10
0
 20
0
 39
0
 70
1
 66
1
  0
VERTEX
  8
0
 10
234.51881692809454
 20
1113.9711437230881
 42
1
  0
VERTEX
  8
0
 10
265.20425305766457
 20
1097.1365367477711
 42
1
  0
SEQEND
  0
POLYLINE
  8
0
 10
0
 20
0
 39
0
 70
1
 66
1
  0
VERTEX
  8
0
 10
258.67191285890925
 20
1183.9845558559473
 42
1
  0
VERTEX
  8
0
 10
311.27551765245789
 20
1155.1252296125467
 42
1
  0
SEQEND
  0
POLYLINE
  8
0
 10
0
 20
0
 39
0
 70
1
 66
1
  0
VERTEX
  8
0
 10
322.08174400227074
 20
1404.73653299641
 42
-0
  0
VERTEX
  8
0
 10
287.56640761650294
 20
1458.7058807579144
 42
-0.59317100048065186
  0
VERTEX
  8
0
 10
304.45042280111727
 20
1489.4813761596072
 42
0
  0
VERTEX
  8
0
 10
368.51278484254686
 20
1489.3691436788415
 42
-1.6858545541763306
  0
SEQEND
  0
POLYLINE
  8
0
 10
0
 20
0
 39
0
 70
1
 66
1
  0
VERTEX
  8
0
 10
312.83268218462661
 20
1484.8241283500327
 42
1
  0
VERTEX
  8
0
 10
295.9980752093096
 20
1454.1386922204626
 42
1
  0
SEQEND
  0
POLYLINE
  8
0
 10
0
 20
0
 39
0
 70
1
 66
1
  0
VERTEX
  8
0
 10
382.84609431748584
 20
1460.6710324192179
 42
1
  0
VERTEX
  8
0
 10
353.98676807408526
 20
1408.0674276256693
 42
1
  0
SEQEND
  0
POLYLINE
  8
0
 10
0
 20
0
 39
0
 70
1
 66
1
  0
VERTEX
  8
0
 10
479.90391573953679
 20
1105.4987199740249
 42
-0
  0
VERTEX
  8
0
 10
514.41925212530464
 20
1051.5293722125205
 42
-0.59317100048065186
  0
VERTEX
  8
0
 10
497.53523694069031
 20
1020.7538768108277
 42
0
  0
VERTEX
  8
0
 10
433.47287489926066
 20
1020.8661092915934
 42
-1.6858545541763306
  0
SEQEND
  0
POLYLINE
  8
0
 10
0
 20
0
 39
0
 70
1
 66
1
  0
VERTEX
  8
0
 10
489.15297755718092
 20
1025.4111246204022
 42
1
  0
VERTEX
  8
0
 10
505.98758453249792
 20
1056.0965607499722
 42
1
  0
SEQEND
  0
POLYLINE
  8
0
 10
0
 20
0
 39
0
 70
1
 66
1
  0
VERTEX
  8
0
 10
419.13956542432169
 20
1049.564220551217
 42
1
  0
VERTEX
  8
0
 10
447.99889166772226
 20
1102.1678253447656
 42
1
  0
SEQEND
  0
POLYLINE
  8
0
 10
0
 20
0
 39
0
 70
1
 66
1
  0
VERTEX
  8
0
 10
719.74487382017867
 20
1191.6202055407323
 42
-0
  0
VERTEX
  8
0
 10
665.77552605867425
 20
1157.1048691549645
 42
-0.59317100048065186
  0
VERTEX
  8
0
 10
635.00003065698149
 20
1173.9888843395788
 42
0
  0
VERTEX
  8
0
 10
635.11226313774716
 20
1238.0512463810085
 42
-1.6858545541763306
  0
SEQEND
  0
POLYLINE
  8
0
 10
0
 20
0
 39
0
 70
1
 66
1
  0
VERTEX
  8
0
 10
639.65727846655602
 20
1182.3711437230882
 42
1
  0
VERTEX
  8
0
 10
670.34271459612603
 20
1165.5365367477712
 42
1
  0
SEQEND
  0
POLYLINE
  8
0
 10
0
 20
0
 39
0
 70
1
 66
1
  0
VERTEX
  8
0
 10
663.81037439737077
 20
1252.3845558559474
 42
1
  0
VERTEX
  8
0
 10
716.41397919091935
 20
1223.5252296125468
 42
1
  0
SEQEND
  0
POLYLINE
  8
0
 10
0
 20
0
 39
0
 70
1
 66
1
  0
VERTEX
  8
0
 10
692.0509747715015
 20
146.39807145794828
 42
-0
  0
VERTEX
  8
0
 10
657.53563838573371
 20
200.3674192194527
 42
-0.59317100048065186
  0
VERTEX
  8
0
 10
674.41965357034803
 20
231.14291462114545
 42
0
  0
VERTEX
  8
0
 10
738.48201561177757
 20
231.03068214037978
 42
-1.6858545541763306
  0
SEQEND
  0
POLYLINE
  8
0
 10
0
 20
0
 39
0
 70
1
 66
1
  0
VERTEX
  8
0
 10
682.80191295385737
 20
226.48566681157092
 42
1
  0
VERTEX
  8
0
 10
665.96730597854037
 20
195.80023068200092
 42
1
  0
SEQEND
  0
POLYLINE
  8
0
 10
0
 20
0
 39
0
 70
1
 66
1
  0
VERTEX
  8
0
 10
752.8153250867166
 20
202.33257088075618
 42
1
  0
VERTEX
  8
0
 10
723.95599884331602
 20
149.7289660872076
 42
1
  0
SEQEND
  0
POLYLINE
  8
0
 10
0
 20
0
 39
0
 70
1
 66
1
  0
VERTEX
  8
0
 10
692.0509747715015
 20
796.3365329964098
 42
-0
  0
VERTEX
  8
0
 10
657.53563838573371
 20
850.30588075791422
 42
-0.59317100048065186
  0
VERTEX
  8
0
 10
674.41965357034803
 20
881.08137615960698
 42
0
  0
VERTEX
  8
0
 10
738.48201561177757
 20
880.96914367884131
 42
-1.6858545541763306
  0
SEQEND
  0
POLYLINE
  8
0
 10
0
 20
0
 39
0
 70
1
 66
1
  0
VERTEX
  8
0
 10
682.80191295385737
 20
876.42412835003245
 42
1
  0
VERTEX
  8
0
 10
665.96730597854037
 20
845.73869222046244
 42
1
  0
SEQEND
  0
POLYLINE
  8
0
 10
0
 20
0
 39
0
 70
1
 66
1
  0
VERTEX
  8
0
 10
752.8153250867166
 20
852.2710324192177
 42
1
  0
VERTEX
  8
0
 10
723.95599884331602
 20
799.66742762566912
 42
1
  0
SEQEND
  0
POLYLINE
  8
0
 10
0
 20
0
 39
0
 70
1
 66
1
  0
VERTEX
  8
0
 10
820.7962234318444
 20
1105.4987199740249
 42
-0
  0
VERTEX
  8
0
 10
855.31155981761219
 20
1051.5293722125205
 42
-0.59317100048065186
  0
VERTEX
  8
0
 10
838.42754463299786
 20
1020.7538768108277
 42
0
  0
VERTEX
  8
0
 10
774.36518259156833
 20
1020.8661092915934
 42
-1.6858545541763306
  0
SEQEND
  0
POLYLINE
  8
0
 10
0
 20
0
 39
0
 70
1
 66
1
  0
VERTEX
  8
0
 10
830.04528524948853
 20
1025.4111246204022
 42
1
  0
VERTEX
  8
0
 10
846.87989222480553
 20
1056.0965607499722
 42
1
  0
SEQEND
  0
POLYLINE
  8
0
 10
0
 20
0
 39
0
 70
1
 66
1
  0
VERTEX
  8
0
 10
760.0318731166293
 20
1049.564220551217
 42
1
  0
VERTEX
  8
0
 10
788.89119936002987
 20
1102.1678253447656
 42
1
  0
SEQEND
  0
POLYLINE
  8
0
 10
0
 20
0
 39
0
 70
1
 66
1
  0
VERTEX
  8
0
 10
792.02020554073226
 20
1404.4596099194869
 42
-0
  0
VERTEX
  8
0
 10
757.50486915496447
 20
1458.4289576809913
 42
-0.59317100048065186
  0
VERTEX
  8
0
 10
774.38888433957879
 20
1489.204453082684
 42
0
  0
VERTEX
  8
0
 10
838.45124638100833
 20
1489.0922206019184
 42
-1.6858545541763306
  0
SEQEND
  0
POLYLINE
  8
0
 10
0
 20
0
 39
0
 70
1
 66
1
  0
VERTEX
  8
0
 10
782.77114372308813
 20
1484.5472052731095
 42
1
  0
VERTEX
  8
0
 10
765.93653674777113
 20
1453.8617691435395
 42
1
  0
SEQEND
  0
POLYLINE
  8
0
 10
0
 20
0
 39
0
 70
1
 66
1
  0
VERTEX
  8
0
 10
852.78455585594736
 20
1460.3941093422948
 42
1
  0
VERTEX
  8
0
 10
823.92522961254679
 20
1407.7905045487462
 42
1
  0
SEQEND
  0
POLYLINE
  8
0
 10
0
 20
0
 39
0
 70
1
 66
1
  0
VERTEX
  8
0
 10
1124.8833353586404
 20
1123.2202055407322
 42
-0
  0
VERTEX
  8
0
 10
1070.9139875971359
 20
1088.7048691549644
 42
-0.59317100048065186
  0
VERTEX
  8
0
 10
1040.1384921954432
 20
1105.5888843395787
 42
0
  0
VERTEX
  8
0
 10
1040.2507246762088
 20
1169.6512463810084
 42
-1.6858545541763306
  0
SEQEND
  0
POLYLINE
  8
0
 10
0
 20
0
 39
0
 70
1
 66
1
  0
VERTEX
  8
0
 10
1044.7957400050177
 20
1113.9711437230881
 42
1
  0
VERTEX
  8
0
 10
1075.4811761345877
 20
1097.1365367477711
 42
1
  0
SEQEND
  0
POLYLINE
  8
0
 10
0
 20
0
 39
0
 70
1
 66
1
  0
VERTEX
  8
0
 10
1068.9488359358324
 20
1183.9845558559473
 42
1
  0
VERTEX
  8
0
 10
1121.552440729381
 20
1155.1252296125467
 42
1
  0
SEQEND
  0
POLYLINE
  8
0
 10
0
 20
0
 39
0
 70
1
 66
1
  0
VERTEX
  8
0
 10
1132.3586670791938
 20
1404.73653299641
 42
-0
  0
VERTEX
  8
0
 10
1097.843330693426
 20
1458.7058807579144
 42
-0.59317100048065186
  0
VERTEX
  8
0
 10
1114.7273458780403
 20
1489.4813761596072
 42
0
  0
VERTEX
  8
0
 10
1178.7897079194699
 20
1489.3691436788415
 42
-1.6858545541763306
  0
SEQEND
  0
POLYLINE
  8
0
 10
0
 20
0
 39
0
 70
1
 66
1
  0
VERTEX
  8
0
 10
1123.1096052615496
 20
1484.8241283500327
 42
1
  0
VERTEX
  8
0
 10
1106.2749982862326
 20
1454.1386922204626
 42
1
  0
SEQEND
  0
POLYLINE
  8
0
 10
0
 20
0
 39
0
 70
1
 66
1
  0
VERTEX
  8
0
 10
1193.1230173944089
 20
1460.6710324192179
 42
1
  0
VERTEX
  8
0
 10
1164.2636911510083
 20
1408.0674276256693
 42
1
  0
SEQEND
  0
POLYLINE
  8
0
 10
0
 20
0
 39
0
 70
1
 66
1
  0
VERTEX
  8
0
 10
1202.4202055407322
 20
146.39807145794828
 42
-0
  0
VERTEX
  8
0
 10
1167.9048691549644
 20
200.3674192194527
 42
-0.59317100048065186
  0
VERTEX
  8
0
 10
1184.7888843395788
 20
231.14291462114545
 42
0
  0
VERTEX
  8
0
 10
1248.8512463810084
 20
231.03068214037978
 42
-1.6858545541763306
  0
SEQEND
  0
POLYLINE
  8
0
 10
0
 20
0
 39
0
 70
1
 66
1
  0
VERTEX
  8
0
 10
1193.1711437230881
 20
226.48566681157092
 42
1
  0
VERTEX
  8
0
 10
1176.3365367477711
 20
195.80023068200092
 42
1
  0
SEQEND
  0
POLYLINE
  8
0
 10
0
 20
0
 39
0
 70
1
 66
1
  0
VERTEX
  8
0
 10
1263.1845558559473
 20
202.33257088075618
 42
1
  0
VERTEX
  8
0
 10
1234.3252296125468
 20
149.7289660872076
 42
1
  0
SEQEND
  0
POLYLINE
  8
0
 10
0
 20
0
 39
0
 70
1
 66
1
  0
VERTEX
  8
0
 10
1202.4202055407322
 20
796.3365329964098
 42
-0
  0
VERTEX
  8
0
 10
1167.9048691549644
 20
850.30588075791422
 42
-0.59317100048065186
  0
VERTEX
  8
0
 10
1184.7888843395788
 20
881.08137615960698
 42
0
  0
VERTEX
  8
0
 10
1248.8512463810084
 20
880.96914367884131
 42
-1.6858545541763306
  0
SEQEND
  0
POLYLINE
  8
0
 10
0
 20
0
 39
0
 70
1
 66
1
  0
VERTEX
  8
0
 10
1193.1711437230881
 20
876.42412835003245
 42
1
  0
VERTEX
  8
0
 10
1176.3365367477711
 20
845.73869222046244
 42
1
  0
SEQEND
  0
POLYLINE
  8
0
 10
0
 20
0
 39
0
 70
1
 66
1
  0
VERTEX
  8
0
 10
1263.1845558559473
 20
852.2710324192177
 42
1
  0
VERTEX
  8
0
 10
1234.3252296125468
 20
799.66742762566912
 42
1
  0
SEQEND
  0
POLYLINE
  8
0
 10
0
 20
0
 39
0
 70
1
 66
1
  0
VERTEX
  8
0
 10
1290.1808388164598
 20
1105.4987199740249
 42
-0
  0
VERTEX
  8
0
 10
1324.6961752022276
 20
1051.5293722125205
 42
-0.59317100048065186
  0
VERTEX
  8
0
 10
1307.8121600176132
 20
1020.7538768108277
 42
0
  0
VERTEX
  8
0
 10
1243.7497979761836
 20
1020.8661092915934
 42
-1.6858545541763306
  0
SEQEND
  0
POLYLINE
  8
0
 10
0
 20
0
 39
0
 70
1
 66
1
  0
VERTEX
  8
0
 10
1299.4299006341039
 20
1025.4111246204022
 42
1
  0
VERTEX
  8
0
 10
1316.2645076094209
 20
1056.0965607499722
 42
1
  0
SEQEND
  0
POLYLINE
  8
0
 10
0
 20
0
 39
0
 70
1
 66
1
  0
VERTEX
  8
0
 10
1229.4164885012447
 20
1049.564220551217
 42
1
  0
VERTEX
  8
0
 10
1258.2758147446452
 20
1102.1678253447656
 42
1
  0
SEQEND
  0
POLYLINE
  8
0
 10
0
 20
0
 39
0
 70
1
 66
1
  0
VERTEX
  8
0
 10
1530.0217968971019
 20
1191.3432824638091
 42
-0
  0
VERTEX
  8
0
 10
1476.0524491355975
 20
1156.8279460780414
 42
-0.59317100048065186
  0
VERTEX
  8
0
 10
1445.2769537339047
 20
1173.7119612626557
 42
0
  0
VERTEX
  8
0
 10
1445.3891862146704
 20
1237.7743233040853
 42
-1.6858545541763306
  0
SEQEND
  0
POLYLINE
  8
0
 10
0
 20
0
 39
0
 70
1
 66
1
  0
VERTEX
  8
0
 10
1449.9342015434793
 20
1182.094220646165
 42
1
  0
VERTEX
  8
0
 10
1480.6196376730493
 20
1165.259613670848
 42
1
  0
SEQEND
  0
POLYLINE
  8
0
 10
0
 20
0
 39
0
 70
1
 66
1
  0
VERTEX
  8
0
 10
1474.087297474294
 20
1252.1076327790242
 42
1
  0
VERTEX
  8
0
 10
1526.6909022678426
 20
1223.2483065356237
 42
1
  0
SEQEND
  0
POLYLINE
  8
0
 10
0
 20
0
 39
0
 70
1
 66
1
  0
VERTEX
  8
0
 10
1631.0731465087674
 20
1105.4987199740249
 42
-0
  0
VERTEX
  8
0
 10
1665.5884828945352
 20
1051.5293722125205
 42
-0.59317100048065186
  0
VERTEX
  8
0
 10
1648.7044677099209
 20
1020.7538768108277
 42
0
  0
VERTEX
  8
0
 10
1584.6421056684912
 20
1020.8661092915934
 42
-1.6858545541763306
  0
SEQEND
  0
POLYLINE
  8
0
 10
0
 20
0
 39
0
 70
1
 66
1
  0
VERTEX
  8
0
 10
1640.3222083264116
 20
1025.4111246204022
 42
1
  0
VERTEX
  8
0
 10
1657.1568153017286
 20
1056.0965607499722
 42
1
  0
SEQEND
  0
POLYLINE
  8
0
 10
0
 20
0
 39
0
 70
1
 66
1
  0
VERTEX
  8
0
 10
1570.3087961935523
 20
1049.564220551217
 42
1
  0
VERTEX
  8
0
 10
1599.1681224369529
 20
1102.1678253447656
 42
1
  0
SEQEND
  0
POLYLINE
  8
0
 10
0
 20
0
 39
0
 70
1
 66
1
  0
VERTEX
  8
0
 10
1602.2971286176553
 20
1404.4596099194869
 42
-0
  0
VERTEX
  8
0
 10
1567.7817922318875
 20
1458.4289576809913
 42
-0.59317100048065186
  0
VERTEX
  8
0
 10
1584.6658074165018
 20
1489.204453082684
 42
0
  0
VERTEX
  8
0
 10
1648.7281694579315
 20
1489.0922206019184
 42
-1.6858545541763306
  0
SEQEND
  0
POLYLINE
  8
0
 10
0
 20
0
 39
0
 70
1
 66
1
  0
VERTEX
  8
0
 10
1593.0480668000112
 20
1484.5472052731095
 42
1
  0
VERTEX
  8
0
 10
1576.2134598246942
 20
1453.8617691435395
 42
1
  0
SEQEND
  0
POLYLINE
  8
0
 10
0
 20
0
 39
0
 70
1
 66
1
  0
VERTEX
  8
0
 10
1663.0614789328704
 20
1460.3941093422948
 42
1
  0
VERTEX
  8
0
 10
1634.2021526894698
 20
1407.7905045487462
 42
1
  0
SEQEND
  0
POLYLINE
  8
0
 10
0
 20
0
 39
0
 70
1
 66
1
  0
VERTEX
  8
0
 10
1712.7894363099631
 20
146.39807145794828
 42
-0
  0
VERTEX
  8
0
 10
1678.2740999241953
 20
200.3674192194527
 42
-0.59317100048065186
  0
VERTEX
  8
0
 10
1695.1581151088096
 20
231.14291462114545
 42
0
  0
VERTEX
  8
0
 10
1759.2204771502393
 20
231.03068214037978
 42
-1.6858545541763306
  0
SEQEND
  0
POLYLINE
  8
0
 10
0
 20
0
 39
0
 70
1
 66
1
  0
VERTEX
  8
0
 10
1703.540374492319
 20
226.48566681157092
 42
1
  0
VERTEX
  8
0
 10
1686.705767517002
 20
195.80023068200092
 42
1
  0
SEQEND
  0
POLYLINE
  8
0
 10
0
 20
0
 39
0
 70
1
 66
1
  0
VERTEX
  8
0
 10
1773.5537866251782
 20
202.33257088075618
 42
1
  0
VERTEX
  8
0
 10
1744.6944603817776
 20
149.7289660872076
 42
1
  0
SEQEND
  0
POLYLINE
  8
0
 10
0
 20
0
 39
0
 70
1
 66
1
  0
VERTEX
  8
0
 10
1712.7894363099631
 20
796.3365329964098
 42
-0
  0
VERTEX
  8
0
 10
1678.2740999241953
 20
850.30588075791422
 42
-0.59317100048065186
  0
VERTEX
  8
0
 10
1695.1581151088096
 20
881.08137615960698
 42
0
  0
VERTEX
  8
0
 10
1759.2204771502393
 20
880.96914367884131
 42
-1.6858545541763306
  0
SEQEND
  0
POLYLINE
  8
0
 10
0
 20
0
 39
0
 70
1
 66
1
  0
VERTEX
  8
0
 10
1703.540374492319
 20
876.42412835003245
 42
1
  0
VERTEX
  8
0
 10
1686.705767517002
 20
845.73869222046244
 42
1
  0
SEQEND
  0
POLYLINE
  8
0
 10
0
 20
0
 39
0
 70
1
 66
1
  0
VERTEX
  8
0
 10
1773.5537866251782
 20
852.2710324192177
 42
1
  0
VERTEX
  8
0
 10
1744.6944603817776
 20
799.66742762566912
 42
1
  0
SEQEND
  0
POLYLINE
  8
0
 10
0
 20
0
 39
0
 70
1
 66
1
  0
VERTEX
  8
0
 10
1935.1602584355633
 20
1123.2202055407322
 42
-0
  0
VERTEX
  8
0
 10
1881.1909106740588
 20
1088.7048691549644
 42
-0.59317100048065186
  0
VERTEX
  8
0
 10
1850.4154152723661
 20
1105.5888843395787
 42
0
  0
VERTEX
  8
0
 10
1850.5276477531318
 20
1169.6512463810084
 42
-1.6858545541763306
  0
SEQEND
  0
POLYLINE
  8
0
 10
0
 20
0
 39
0
 70
1
 66
1
  0
VERTEX
  8
0
 10
1855.0726630819406
 20
1113.9711437230881
 42
1
  0
VERTEX
  8
0
 10
1885.7580992115106
 20
1097.1365367477711
 42
1
  0
SEQEND
  0
POLYLINE
  8
0
 10
0
 20
0
 39
0
 70
1
 66
1
  0
VERTEX
  8
0
 10
1879.2257590127554
 20
1183.9845558559473
 42
1
  0
VERTEX
  8
0
 10
1931.8293638063039
 20
1155.1252296125467
 42
1
  0
SEQEND
  0
POLYLINE
  8
0
 10
0
 20
0
 39
0
 70
1
 66
1
  0
VERTEX
  8
0
 10
1942.6355901561167
 20
1404.73653299641
 42
-0
  0
VERTEX
  8
0
 10
1908.1202537703489
 20
1458.7058807579144
 42
-0.59317100048065186
  0
VERTEX
  8
0
 10
1925.0042689549632
 20
1489.4813761596072
 42
0
  0
VERTEX
  8
0
 10
1989.0666309963929
 20
1489.3691436788415
 42
-1.6858545541763306
  0
SEQEND
  0
POLYLINE
  8
0
 10
0
 20
0
 39
0
 70
1
 66
1
  0
VERTEX
  8
0
 10
1933.3865283384725
 20
1484.8241283500327
 42
1
  0
VERTEX
  8
0
 10
1916.5519213631555
 20
1454.1386922204626
 42
1
  0
SEQEND
  0
POLYLINE
  8
0
 10
0
 20
0
 39
0
 70
1
 66
1
  0
VERTEX
  8
0
 10
2003.3999404713318
 20
1460.6710324192179
 42
1
  0
VERTEX
  8
0
 10
1974.5406142279312
 20
1408.0674276256693
 42
1
  0
SEQEND
  0
POLYLINE
  8
0
 10
0
 20
0
 39
0
 70
1
 66
1
  0
VERTEX
  8
0
 10
2100.4577618933827
 20
1105.4987199740249
 42
-0
  0
VERTEX
  8
0
 10
2134.9730982791507
 20
1051.5293722125205
 42
-0.59317100048065186
  0
VERTEX
  8
0
 10
2118.0890830945364
 20
1020.7538768108277
 42
0
  0
VERTEX
  8
0
 10
2054.0267210531069
 20
1020.8661092915934
 42
-1.6858545541763306
  0
SEQEND
  0
POLYLINE
  8
0
 10
0
 20
0
 39
0
 70
1
 66
1
  0
VERTEX
  8
0
 10
2109.706823711027
 20
1025.4111246204022
 42
1
  0
VERTEX
  8
0
 10
2126.541430686344
 20
1056.0965607499722
 42
1
  0
SEQEND
  0
POLYLINE
  8
0
 10
0
 20
0
 39
0
 70
1
 66
1
  0
VERTEX
  8
0
 10
2039.6934115781678
 20
1049.564220551217
 42
1
  0
VERTEX
  8
0
 10
2068.5527378215684
 20
1102.1678253447656
 42
1
  0
SEQEND
  0
POLYLINE
  8
0
 10
0
 20
0
 39
0
 70
1
 66
1
  0
VERTEX
  8
0
 10
2223.1586670791939
 20
146.39807145794828
 42
-0
  0
VERTEX
  8
0
 10
2188.6433306934259
 20
200.3674192194527
 42
-0.59317100048065186
  0
VERTEX
  8
0
 10
2205.5273458780403
 20
231.14291462114545
 42
0
  0
VERTEX
  8
0
 10
2269.5897079194697
 20
231.03068214037978
 42
-1.6858545541763306
  0
SEQEND
  0
POLYLINE
  8
0
 10
0
 20
0
 39
0
 70
1
 66
1
  0
VERTEX
  8
0
 10
2213.9096052615496
 20
226.48566681157092
 42
1
  0
VERTEX
  8
0
 10
2197.0749982862326
 20
195.80023068200092
 42
1
  0
SEQEND
  0
POLYLINE
  8
0
 10
0
 20
0
 39
0
 70
1
 66
1
  0
VERTEX
  8
0
 10
2283.9230173944088
 20
202.33257088075618
 42
1
  0
VERTEX
  8
0
 10
2255.0636911510082
 20
149.7289660872076
 42
1
  0
SEQEND
  0
POLYLINE
  8
0
 10
0
 20
0
 39
0
 70
1
 66
1
  0
VERTEX
  8
0
 10
2223.1586670791939
 20
796.3365329964098
 42
-0
  0
VERTEX
  8
0
 10
2188.6433306934259
 20
850.30588075791422
 42
-0.59317100048065186
  0
VERTEX
  8
0
 10
2205.5273458780403
 20
881.08137615960698
 42
0
  0
VERTEX
  8
0
 10
2269.5897079194697
 20
880.96914367884131
 42
-1.6858545541763306
  0
SEQEND
  0
POLYLINE
  8
0
 10
0
 20
0
 39
0
 70
1
 66
1
  0
VERTEX
  8
0
 10
2213.9096052615496
 20
876.42412835003245
 42
1
  0
VERTEX
  8
0
 10
2197.0749982862326
 20
845.73869222046244
 42
1
  0
SEQEND
  0
POLYLINE
  8
0
 10
0
 20
0
 39
0
 70
1
 66
1
  0
VERTEX
  8
0
 10
2283.9230173944088
 20
852.2710324192177
 42
1
  0
VERTEX
  8
0
 10
2255.0636911510082
 20
799.66742762566912
 42
1
  0
SEQEND
  0
POLYLINE
  8
0
 10
0
 20
0
 39
0
 70
1
 66
1
  0
VERTEX
  8
0
 10
2340.2987199740251
 20
1191.3432824638091
 42
-0
  0
VERTEX
  8
0
 10
2286.3293722125204
 20
1156.8279460780414
 42
-0.59317100048065186
  0
VERTEX
  8
0
 10
2255.5538768108277
 20
1173.7119612626557
 42
0
  0
VERTEX
  8
0
 10
2255.6661092915933
 20
1237.7743233040853
 42
-1.6858545541763306
  0
SEQEND
  0
POLYLINE
  8
0
 10
0
 20
0
 39
0
 70
1
 66
1
  0
VERTEX
  8
0
 10
2260.2111246204022
 20
1182.094220646165
 42
1
  0
VERTEX
  8
0
 10
2290.8965607499722
 20
1165.259613670848
 42
1
  0
SEQEND
  0
POLYLINE
  8
0
 10
0
 20
0
 39
0
 70
1
 66
1
  0
VERTEX
  8
0
 10
2284.3642205512169
 20
1252.1076327790242
 42
1
  0
VERTEX
  8
0
 10
2336.9678253447655
 20
1223.2483065356237
 42
1
  0
SEQEND
  0
POLYLINE
  8
0
 10
0
 20
0
 39
0
 70
1
 66
1
  0
VERTEX
  8
0
 10
2441.3500695856901
 20
1105.4987199740249
 42
-0
  0
VERTEX
  8
0
 10
2475.8654059714581
 20
1051.5293722125205
 42
-0.59317100048065186
  0
VERTEX
  8
0
 10
2458.9813907868438
 20
1020.7538768108277
 42
0
  0
VERTEX
  8
0
 10
2394.9190287454144
 20
1020.8661092915934
 42
-1.6858545541763306
  0
SEQEND
  0
POLYLINE
  8
0
 10
0
 20
0
 39
0
 70
1
 66
1
  0
VERTEX
  8
0
 10
2450.5991314033345
 20
1025.4111246204022
 42
1
  0
VERTEX
  8
0
 10
2467.4337383786515
 20
1056.0965607499722
 42
1
  0
SEQEND
  0
POLYLINE
  8
0
 10
0
 20
0
 39
0
 70
1
 66
1
  0
VERTEX
  8
0
 10
2380.5857192704752
 20
1049.564220551217
 42
1
  0
VERTEX
  8
0
 10
2409.4450455138758
 20
1102.1678253447656
 42
1
  0
SEQEND
  0
POLYLINE
  8
0
 10
0
 20
0
 39
0
 70
1
 66
1
  0
VERTEX
  8
0
 10
2412.574051694578
 20
1404.4596099194869
 42
-0
  0
VERTEX
  8
0
 10
2378.0587153088104
 20
1458.4289576809913
 42
-0.59317100048065186
  0
VERTEX
  8
0
 10
2394.9427304934247
 20
1489.204453082684
 42
0
  0
VERTEX
  8
0
 10
2459.0050925348542
 20
1489.0922206019184
 42
-1.6858545541763306
  0
SEQEND
  0
POLYLINE
  8
0
 10
0
 20
0
 39
0
 70
1
 66
1
  0
VERTEX
  8
0
 10
2403.3249898769341
 20
1484.5472052731095
 42
1
  0
VERTEX
  8
0
 10
2386.4903829016171
 20
1453.8617691435395
 42
1
  0
SEQEND
  0
POLYLINE
  8
0
 10
0
 20
0
 39
0
 70
1
 66
1
  0
VERTEX
  8
0
 10
2473.3384020097933
 20
1460.3941093422948
 42
1
  0
VERTEX
  8
0
 10
2444.4790757663927
 20
1407.7905045487462
 42
1
  0
SEQEND
  0
POLYLINE
  8
0
 10
0
 20
0
 39
0
 70
1
 66
1
  0
VERTEX
  8
0
 10
2745.4371815124864
 20
1123.2202055407322
 42
-0
  0
VERTEX
  8
0
 10
2691.4678337509818
 20
1088.7048691549644
 42
-0.59317100048065186
  0
VERTEX
  8
0
 10
2660.692338349289
 20
1105.5888843395787
 42
0
  0
VERTEX
  8
0
 10
2660.8045708300547
 20
1169.6512463810084
 42
-1.6858545541763306
  0
SEQEND
  0
POLYLINE
  8
0
 10
0
 20
0
 39
0
 70
1
 66
1
  0
VERTEX
  8
0
 10
2665.3495861588635
 20
1113.9711437230881
 42
1
  0
VERTEX
  8
0
 10
2696.0350222884335
 20
1097.1365367477711
 42
1
  0
SEQEND
  0
POLYLINE
  8
0
 10
0
 20
0
 39
0
 70
1
 66
1
  0
VERTEX
  8
0
 10
2689.5026820896783
 20
1183.9845558559473
 42
1
  0
VERTEX
  8
0
 10
2742.1062868832269
 20
1155.1252296125467
 42
1
  0
SEQEND
  0
POLYLINE
  8
0
 10
0
 20
0
 39
0
 70
1
 66
1
  0
VERTEX
  8
0
 10
2733.5278978484239
 20
146.39807145794828
 42
-0
  0
VERTEX
  8
0
 10
2699.0125614626563
 20
200.3674192194527
 42
-0.59317100048065186
  0
VERTEX
  8
0
 10
2715.8965766472706
 20
231.14291462114545
 42
0
  0
VERTEX
  8
0
 10
2779.9589386887001
 20
231.03068214037978
 42
-1.6858545541763306
  0
SEQEND
  0
POLYLINE
  8
0
 10
0
 20
0
 39
0
 70
1
 66
1
  0
VERTEX
  8
0
 10
2724.27883603078
 20
226.48566681157092
 42
1
  0
VERTEX
  8
0
 10
2707.444229055463
 20
195.80023068200092
 42
1
  0
SEQEND
  0
POLYLINE
  8
0
 10
0
 20
0
 39
0
 70
1
 66
1
  0
VERTEX
  8
0
 10
2794.2922481636392
 20
202.33257088075618
 42
1
  0
VERTEX
  8
0
 10
2765.4329219202386
 20
149.7289660872076
 42
1
  0
SEQEND
  0
POLYLINE
  8
0
 10
0
 20
0
 39
0
 70
1
 66
1
  0
VERTEX
  8
0
 10
2733.5278978484239
 20
796.3365329964098
 42
-0
  0
VERTEX
  8
0
 10
2699.0125614626563
 20
850.30588075791422
 42
-0.59317100048065186
  0
VERTEX
  8
0
 10
2715.8965766472706
 20
881.08137615960698
 42
0
  0
VERTEX
  8
0
 10
2779.9589386887001
 20
880.96914367884131
 42
-1.6858545541763306
  0
SEQEND
  0
POLYLINE
  8
0
 10
0
 20
0
 39
0
 70
1
 66
1
  0
VERTEX
  8
0
 10
2724.27883603078
 20
876.42412835003245
 42
1
  0
VERTEX
  8
0
 10
2707.444229055463
 20
845.73869222046244
 42
1
  0
SEQEND
  0
POLYLINE
  8
0
 10
0
 20
0
 39
0
 70
1
 66
1
  0
VERTEX
  8
0
 10
2794.2922481636392
 20
852.2710324192177
 42
1
  0
VERTEX
  8
0
 10
2765.4329219202386
 20
799.66742762566912
 42
1
  0
SEQEND
  0
POLYLINE
  8
0
 10
0
 20
0
 39
0
 70
1
 66
1
  0
VERTEX
  8
0
 10
2752.91251323304
 20
1404.73653299641
 42
-0
  0
VERTEX
  8
0
 10
2718.397176847272
 20
1458.7058807579144
 42
-0.59317100048065186
  0
VERTEX
  8
0
 10
2735.2811920318863
 20
1489.4813761596072
 42
0
  0
VERTEX
  8
0
 10
2799.3435540733158
 20
1489.3691436788415
 42
-1.6858545541763306
  0
SEQEND
  0
POLYLINE
  8
0
 10
0
 20
0
 39
0
 70
1
 66
1
  0
VERTEX
  8
0
 10
2743.6634514153957
 20
1484.8241283500327
 42
1
  0
VERTEX
  8
0
 10
2726.8288444400787
 20
1454.1386922204626
 42
1
  0
SEQEND
  0
POLYLINE
  8
0
 10
0
 20
0
 39
0
 70
1
 66
1
  0
VERTEX
  8
0
 10
2813.6768635482549
 20
1460.6710324192179
 42
1
  0
VERTEX
  8
0
 10
2784.8175373048543
 20
1408.0674276256693
 42
1
  0
SEQEND
  0
POLYLINE
  8
0
 10
0
 20
0
 39
0
 70
1
 66
1
  0
VERTEX
  8
0
 10
2910.7346849703063
 20
1105.4987199740249
 42
-0
  0
VERTEX
  8
0
 10
2945.2500213560738
 20
1051.5293722125205
 42
-0.59317100048065186
  0
VERTEX
  8
0
 10
2928.3660061714595
 20
1020.7538768108277
 42
0
  0
VERTEX
  8
0
 10
2864.3036441300301
 20
1020.8661092915934
 42
-1.6858545541763306
  0
SEQEND
  0
POLYLINE
  8
0
 10
0
 20
0
 39
0
 70
1
 66
1
  0
VERTEX
  8
0
 10
2919.9837467879502
 20
1025.4111246204022
 42
1
  0
VERTEX
  8
0
 10
2936.8183537632672
 20
1056.0965607499722
 42
1
  0
SEQEND
  0
POLYLINE
  8
0
 10
0
 20
0
 39
0
 70
1
 66
1
  0
VERTEX
  8
0
 10
2849.9703346550909
 20
1049.564220551217
 42
1
  0
VERTEX
  8
0
 10
2878.8296608984915
 20
1102.1678253447656
 42
1
  0
SEQEND
  0
POLYLINE
  8
0
 10
0
 20
0
 39
0
 70
1
 66
1
  0
VERTEX
  8
0
 10
3150.5756430509477
 20
1191.3432824638091
 42
-0
  0
VERTEX
  8
0
 10
3096.6062952894431
 20
1156.8279460780414
 42
-0.59317100048065186
  0
VERTEX
  8
0
 10
3065.8307998877503
 20
1173.7119612626557
 42
0
  0
VERTEX
  8
0
 10
3065.943032368516
 20
1237.7743233040853
 42
-1.6858545541763306
  0
SEQEND
  0
POLYLINE
  8
0
 10
0
 20
0
 39
0
 70
1
 66
1
  0
VERTEX
  8
0
 10
3070.4880476973249
 20
1182.094220646165
 42
1
  0
VERTEX
  8
0
 10
3101.1734838268949
 20
1165.259613670848
 42
1
  0
SEQEND
  0
POLYLINE
  8
0
 10
0
 20
0
 39
0
 70
1
 66
1
  0
VERTEX
  8
0
 10
3094.6411436281396
 20
1252.1076327790242
 42
1
  0
VERTEX
  8
0
 10
3147.2447484216882
 20
1223.2483065356237
 42
1
  0
SEQEND
  0
POLYLINE
  8
0
 10
0
 20
0
 39
0
 70
1
 66
1
  0
VERTEX
  8
0
 10
3243.8971286176547
 20
146.39807145794828
 42
-0
  0
VERTEX
  8
0
 10
3209.3817922318872
 20
200.3674192194527
 42
-0.59317100048065186
  0
VERTEX
  8
0
 10
3226.2658074165015
 20
231.14291462114545
 42
0
  0
VERTEX
  8
0
 10
3290.3281694579309
 20
231.03068214037978
 42
-1.6858545541763306
  0
SEQEND
  0
POLYLINE
  8
0
 10
0
 20
0
 39
0
 70
1
 66
1
  0
VERTEX
  8
0
 10
3234.6480668000108
 20
226.48566681157092
 42
1
  0
VERTEX
  8
0
 10
3217.8134598246938
 20
195.80023068200092
 42
1
  0
SEQEND
  0
POLYLINE
  8
0
 10
0
 20
0
 39
0
 70
1
 66
1
  0
VERTEX
  8
0
 10
3304.6614789328701
 20
202.33257088075618
 42
1
  0
VERTEX
  8
0
 10
3275.8021526894695
 20
149.7289660872076
 42
1
  0
SEQEND
  0
POLYLINE
  8
0
 10
0
 20
0
 39
0
 70
1
 66
1
  0
VERTEX
  8
0
 10
3243.8971286176547
 20
796.3365329964098
 42
-0
  0
VERTEX
  8
0
 10
3209.3817922318872
 20
850.30588075791422
 42
-0.59317100048065186
  0
VERTEX
  8
0
 10
3226.2658074165015
 20
881.08137615960698
 42
0
  0
VERTEX
  8
0
 10
3290.3281694579309
 20
880.96914367884131
 42
-1.6858545541763306
  0
SEQEND
  0
POLYLINE
  8
0
 10
0
 20
0
 39
0
 70
1
 66
1
  0
VERTEX
  8
0
 10
3234.6480668000108
 20
876.42412835003245
 42
1
  0
VERTEX
  8
0
 10
3217.8134598246938
 20
845.73869222046244
 42
1
  0
SEQEND
  0
POLYLINE
  8
0
 10
0
 20
0
 39
0
 70
1
 66
1
  0
VERTEX
  8
0
 10
3304.6614789328701
 20
852.2710324192177
 42
1
  0
VERTEX
  8
0
 10
3275.8021526894695
 20
799.66742762566912
 42
1
  0
SEQEND
  0
POLYLINE
  8
0
 10
0
 20
0
 39
0
 70
1
 66
1
  0
VERTEX
  8
0
 10
3456.2971286176553
 20
1264.0596099194868
 42
-0
  0
VERTEX
  8
0
 10
3421.7817922318873
 20
1318.0289576809912
 42
-0.59317100048065186
  0
VERTEX
  8
0
 10
3438.6658074165016
 20
1348.8044530826839
 42
0
  0
VERTEX
  8
0
 10
3502.728169457931
 20
1348.6922206019183
 42
-1.6858545541763306
  0
SEQEND
  0
POLYLINE
  8
0
 10
0
 20
0
 39
0
 70
1
 66
1
  0
VERTEX
  8
0
 10
3447.0480668000109
 20
1344.1472052731094
 42
1
  0
VERTEX
  8
0
 10
3430.2134598246939
 20
1313.4617691435394
 42
1
  0
SEQEND
  0
POLYLINE
  8
0
 10
0
 20
0
 39
0
 70
1
 66
1
  0
VERTEX
  8
0
 10
3517.0614789328702
 20
1319.9941093422947
 42
1
  0
VERTEX
  8
0
 10
3488.2021526894696
 20
1267.3905045487461
 42
1
  0
SEQEND
  0
POLYLINE
  8
0
 10
0
 20
0
 39
0
 70
1
 66
1
  0
VERTEX
  8
0
 10
3500.2134560733325
 20
1122.088531124152
 42
-0
  0
VERTEX
  8
0
 10
3554.1828038348372
 20
1156.6038675099198
 42
-0.59317100048065186
  0
VERTEX
  8
0
 10
3584.9582992365299
 20
1139.7198523253055
 42
0
  0
VERTEX
  8
0
 10
3584.8460667557642
 20
1075.6574902838759
 42
-1.6858545541763306
  0
SEQEND
  0
POLYLINE
  8
0
 10
0
 20
0
 39
0
 70
1
 66
1
  0
VERTEX
  8
0
 10
3580.3010514269554
 20
1131.3375929417962
 42
1
  0
VERTEX
  8
0
 10
3549.6156152973854
 20
1148.1721999171132
 42
1
  0
SEQEND
  0
POLYLINE
  8
0
 10
0
 20
0
 39
0
 70
1
 66
1
  0
VERTEX
  8
0
 10
3556.1479554961406
 20
1061.3241808089369
 42
1
  0
VERTEX
  8
0
 10
3503.5443507025921
 20
1090.1835070523375
 42
1
  0
SEQEND
  0
ENDSEC
  0
EOF
