  0
SECTION
  2
ENTITIES
  0
POLYLINE
  8
0
 10
0
 20
0
 39
0
 70
1
 66
1
  0
VERTEX
  8
0
 10
0
 20
0
 42
0
  0
VERTEX
  8
0
 10
2000
 20
0
 42
0
  0
VERTEX
  8
0
 10
2000
 20
1000
 42
0
  0
VERTEX
  8
0
 10
0
 20
1000
 42
0
  0
SEQEND
  0
POLYLINE
  8
0
 10
0
 20
0
 39
0
 70
1
 66
1
  0
VERTEX
  8
0
 10
1403
 20
785.4324951171875
 42
0
  0
VERTEX
  8
0
 10
1403
 20
638.51251220703125
 42
0
  0
VERTEX
  8
0
 10
1483
 20
638.51251220703125
 42
0
  0
VERTEX
  8
0
 10
1483
 20
785.4324951171875
 42
0
  0
SEQEND
  0
POLYLINE
  8
0
 10
0
 20
0
 39
0
 70
1
 66
1
  0
VERTEX
  8
0
 10
1443
 20
736.97247314453125
 42
-1
  0
VERTEX
  8
0
 10
1443
 20
686.97247314453125
 42
-1
  0
SEQEND
  0
POLYLINE
  8
0
 10
0
 20
0
 39
0
 70
1
 66
1
  0
VERTEX
  8
0
 10
1645
 20
156.91999816894531
 42
0
  0
VERTEX
  8
0
 10
1645
 20
10
 42
0
  0
VERTEX
  8
0
 10
1725
 20
10
 42
0
  0
VERTEX
  8
0
 10
1725
 20
156.91999816894531
 42
0
  0
SEQEND
  0
POLYLINE
  8
0
 10
0
 20
0
 39
0
 70
1
 66
1
  0
VERTEX
  8
0
 10
1685
 20
108.45999908447266
 42
-1
  0
VERTEX
  8
0
 10
1685
 20
58.459999084472656
 42
-1
  0
SEQEND
  0
POLYLINE
  8
0
 10
0
 20
0
 39
0
 70
1
 66
1
  0
VERTEX
  8
0
 10
1571
 20
752.27252197265625
 42
0
  0
VERTEX
  8
0
 10
1717.9200439453125
 20
752.27252197265625
 42
0
  0
VERTEX
  8
0
 10
1717.9200439453125
 20
832.27252197265625
 42
0
  0
VERTEX
  8
0
 10
1571
 20
832.27252197265625
 42
0
  0
SEQEND
  0
POLYLINE
  8
0
 10
0
 20
0
 39
0
 70
1
 66
1
  0
VERTEX
  8
0
 10
1619.4599609375
 20
792.27252197265625
 42
-1
  0
VERTEX
  8
0
 10
1669.4599609375
 20
792.27252197265625
 42
-1
  0
SEQEND
  0
POLYLINE
  8
0
 10
0
 20
0
 39
0
 70
1
 66
1
  0
VERTEX
  8
0
 10
1735
 20
156.91999816894531
 42
0
  0
VERTEX
  8
0
 10
1735
 20
10
 42
0
  0
VERTEX
  8
0
 10
1815
 20
10
 42
0
  0
VERTEX
  8
0
 10
1815
 20
156.91999816894531
 42
0
  0
SEQEND
  0
POLYLINE
  8
0
 10
0
 20
0
 39
0
 70
1
 66
1
  0
VERTEX
  8
0
 10
1775
 20
108.45999908447266
 42
-1
  0
VERTEX
  8
0
 10
1775
 20
58.459999084472656
 42
-1
  0
SEQEND
  0
POLYLINE
  8
0
 10
0
 20
0
 39
0
 70
1
 66
1
  0
VERTEX
  8
0
 10
1907.9200439453125
 20
969.94500732421875
 42
0
  0
VERTEX
  8
0
 10
1907.9200439453125
 20
823.0250244140625
 42
0
  0
VERTEX
  8
0
 10
1987.9200439453125
 20
823.0250244140625
 42
0
  0
VERTEX
  8
0
 10
1987.9200439453125
 20
969.94500732421875
 42
0
  0
SEQEND
  0
POLYLINE
  8
0
 10
0
 20
0
 39
0
 70
1
 66
1
  0
VERTEX
  8
0
 10
1947.9200439453125
 20
921.4849853515625
 42
-1
  0
VERTEX
  8
0
 10
1947.9200439453125
 20
871.4849853515625
 42
-1
  0
SEQEND
  0
POLYLINE
  8
0
 10
0
 20
0
 39
0
 70
1
 66
1
  0
VERTEX
  8
0
 10
1555
 20
156.91999816894531
 42
0
  0
VERTEX
  8
0
 10
1555
 20
10
 42
0
  0
VERTEX
  8
0
 10
1635
 20
10
 42
0
  0
VERTEX
  8
0
 10
1635
 20
156.91999816894531
 42
0
  0
SEQEND
  0
POLYLINE
  8
0
 10
0
 20
0
 39
0
 70
1
 66
1
  0
VERTEX
  8
0
 10
1595
 20
108.45999908447266
 42
-1
  0
VERTEX
  8
0
 10
1595
 20
58.459999084472656
 42
-1
  0
SEQEND
  0
POLYLINE
  8
0
 10
0
 20
0
 39
0
 70
1
 66
1
  0
VERTEX
  8
0
 10
1555
 20
313.83999633789062
 42
0
  0
VERTEX
  8
0
 10
1555
 20
166.91999816894531
 42
0
  0
VERTEX
  8
0
 10
1635
 20
166.91999816894531
 42
0
  0
VERTEX
  8
0
 10
1635
 20
313.83999633789062
 42
0
  0
SEQEND
  0
POLYLINE
  8
0
 10
0
 20
0
 39
0
 70
1
 66
1
  0
VERTEX
  8
0
 10
1595
 20
265.3800048828125
 42
-1
  0
VERTEX
  8
0
 10
1595
 20
215.3800048828125
 42
-1
  0
SEQEND
  0
POLYLINE
  8
0
 10
0
 20
0
 39
0
 70
1
 66
1
  0
VERTEX
  8
0
 10
1465
 20
156.91999816894531
 42
0
  0
VERTEX
  8
0
 10
1465
 20
10
 42
0
  0
VERTEX
  8
0
 10
1545
 20
10
 42
0
  0
VERTEX
  8
0
 10
1545
 20
156.91999816894531
 42
0
  0
SEQEND
  0
POLYLINE
  8
0
 10
0
 20
0
 39
0
 70
1
 66
1
  0
VERTEX
  8
0
 10
1505
 20
108.45999908447266
 42
-1
  0
VERTEX
  8
0
 10
1505
 20
58.459999084472656
 42
-1
  0
SEQEND
  0
POLYLINE
  8
0
 10
0
 20
0
 39
0
 70
1
 66
1
  0
VERTEX
  8
0
 10
1739.9200439453125
 20
899.1925048828125
 42
0
  0
VERTEX
  8
0
 10
1739.9200439453125
 20
752.27252197265625
 42
0
  0
VERTEX
  8
0
 10
1819.9200439453125
 20
752.27252197265625
 42
0
  0
VERTEX
  8
0
 10
1819.9200439453125
 20
899.1925048828125
 42
0
  0
SEQEND
  0
POLYLINE
  8
0
 10
0
 20
0
 39
0
 70
1
 66
1
  0
VERTEX
  8
0
 10
1779.9200439453125
 20
850.73248291015625
 42
-1
  0
VERTEX
  8
0
 10
1779.9200439453125
 20
800.73248291015625
 42
-1
  0
SEQEND
  0
POLYLINE
  8
0
 10
0
 20
0
 39
0
 70
1
 66
1
  0
VERTEX
  8
0
 10
1465
 20
313.83999633789062
 42
0
  0
VERTEX
  8
0
 10
1465
 20
166.91999816894531
 42
0
  0
VERTEX
  8
0
 10
1545
 20
166.91999816894531
 42
0
  0
VERTEX
  8
0
 10
1545
 20
313.83999633789062
 42
0
  0
SEQEND
  0
POLYLINE
  8
0
 10
0
 20
0
 39
0
 70
1
 66
1
  0
VERTEX
  8
0
 10
1505
 20
265.3800048828125
 42
-1
  0
VERTEX
  8
0
 10
1505
 20
215.3800048828125
 42
-1
  0
SEQEND
  0
POLYLINE
  8
0
 10
0
 20
0
 39
0
 70
1
 66
1
  0
VERTEX
  8
0
 10
1807
 20
662.27252197265625
 42
0
  0
VERTEX
  8
0
 10
1807
 20
732.27252197265625
 42
-0
  0
VERTEX
  8
0
 10
1797
 20
742.27252197265625
 42
0
  0
VERTEX
  8
0
 10
1739
 20
742.27252197265625
 42
0
  0
VERTEX
  8
0
 10
1739
 20
577.27252197265625
 42
-0
  0
SEQEND
  0
POLYLINE
  8
0
 10
0
 20
0
 39
0
 70
1
 66
1
  0
VERTEX
  8
0
 10
1782
 20
703.77252197265625
 42
-1
  0
VERTEX
  8
0
 10
1782
 20
690.77252197265625
 42
-1
  0
SEQEND
  0
POLYLINE
  8
0
 10
0
 20
0
 39
0
 70
1
 66
1
  0
VERTEX
  8
0
 10
1739
 20
560.760009765625
 42
0
  0
VERTEX
  8
0
 10
1739
 20
490.760009765625
 42
-0
  0
VERTEX
  8
0
 10
1749
 20
480.760009765625
 42
0
  0
VERTEX
  8
0
 10
1807
 20
480.760009765625
 42
0
  0
VERTEX
  8
0
 10
1807
 20
645.760009765625
 42
-0
  0
SEQEND
  0
POLYLINE
  8
0
 10
0
 20
0
 39
0
 70
1
 66
1
  0
VERTEX
  8
0
 10
1764
 20
519.260009765625
 42
-1
  0
VERTEX
  8
0
 10
1764
 20
532.260009765625
 42
-1
  0
SEQEND
  0
POLYLINE
  8
0
 10
0
 20
0
 39
0
 70
1
 66
1
  0
VERTEX
  8
0
 10
1645
 20
313.83999633789062
 42
0
  0
VERTEX
  8
0
 10
1645
 20
166.91999816894531
 42
0
  0
VERTEX
  8
0
 10
1725
 20
166.91999816894531
 42
0
  0
VERTEX
  8
0
 10
1725
 20
313.83999633789062
 42
0
  0
SEQEND
  0
POLYLINE
  8
0
 10
0
 20
0
 39
0
 70
1
 66
1
  0
VERTEX
  8
0
 10
1685
 20
265.3800048828125
 42
-1
  0
VERTEX
  8
0
 10
1685
 20
215.3800048828125
 42
-1
  0
SEQEND
  0
POLYLINE
  8
0
 10
0
 20
0
 39
0
 70
1
 66
1
  0
VERTEX
  8
0
 10
1727
 20
470.760009765625
 42
0
  0
VERTEX
  8
0
 10
1727
 20
323.83999633789062
 42
0
  0
VERTEX
  8
0
 10
1807
 20
323.83999633789062
 42
0
  0
VERTEX
  8
0
 10
1807
 20
470.760009765625
 42
0
  0
SEQEND
  0
POLYLINE
  8
0
 10
0
 20
0
 39
0
 70
1
 66
1
  0
VERTEX
  8
0
 10
1767
 20
422.29998779296875
 42
-1
  0
VERTEX
  8
0
 10
1767
 20
372.29998779296875
 42
-1
  0
SEQEND
  0
POLYLINE
  8
0
 10
0
 20
0
 39
0
 70
1
 66
1
  0
VERTEX
  8
0
 10
1739.9200439453125
 20
909.1925048828125
 42
0
  0
VERTEX
  8
0
 10
1886.8399658203125
 20
909.1925048828125
 42
0
  0
VERTEX
  8
0
 10
1886.8399658203125
 20
989.1925048828125
 42
0
  0
VERTEX
  8
0
 10
1739.9200439453125
 20
989.1925048828125
 42
0
  0
SEQEND
  0
POLYLINE
  8
0
 10
0
 20
0
 39
0
 70
1
 66
1
  0
VERTEX
  8
0
 10
1788.3800048828125
 20
949.1925048828125
 42
-1
  0
VERTEX
  8
0
 10
1838.3800048828125
 20
949.1925048828125
 42
-1
  0
SEQEND
  0
POLYLINE
  8
0
 10
0
 20
0
 39
0
 70
1
 66
1
  0
VERTEX
  8
0
 10
1637
 20
470.760009765625
 42
0
  0
VERTEX
  8
0
 10
1637
 20
323.83999633789062
 42
0
  0
VERTEX
  8
0
 10
1717
 20
323.83999633789062
 42
0
  0
VERTEX
  8
0
 10
1717
 20
470.760009765625
 42
0
  0
SEQEND
  0
POLYLINE
  8
0
 10
0
 20
0
 39
0
 70
1
 66
1
  0
VERTEX
  8
0
 10
1677
 20
422.29998779296875
 42
-1
  0
VERTEX
  8
0
 10
1677
 20
372.29998779296875
 42
-1
  0
SEQEND
  0
POLYLINE
  8
0
 10
0
 20
0
 39
0
 70
1
 66
1
  0
VERTEX
  8
0
 10
1025
 20
510
 42
0
  0
VERTEX
  8
0
 10
1025
 20
10
 42
0
  0
VERTEX
  8
0
 10
1225
 20
10
 42
0
  0
VERTEX
  8
0
 10
1225
 20
510
 42
0
  0
SEQEND
  0
POLYLINE
  8
0
 10
0
 20
0
 39
0
 70
1
 66
1
  0
VERTEX
  8
0
 10
1186.885009765625
 20
75.31097412109375
 42
-1
  0
VERTEX
  8
0
 10
1186.885009765625
 20
39.31097412109375
 42
-1
  0
SEQEND
  0
POLYLINE
  8
0
 10
0
 20
0
 39
0
 70
1
 66
1
  0
VERTEX
  8
0
 10
1125
 20
312
 42
-1
  0
VERTEX
  8
0
 10
1125
 20
208
 42
-1
  0
SEQEND
  0
POLYLINE
  8
0
 10
0
 20
0
 39
0
 70
1
 66
1
  0
VERTEX
  8
0
 10
815
 20
510
 42
0
  0
VERTEX
  8
0
 10
815
 20
10
 42
0
  0
VERTEX
  8
0
 10
1015
 20
10
 42
0
  0
VERTEX
  8
0
 10
1015
 20
510
 42
0
  0
SEQEND
  0
POLYLINE
  8
0
 10
0
 20
0
 39
0
 70
1
 66
1
  0
VERTEX
  8
0
 10
976.88507080078125
 20
75.31097412109375
 42
-1
  0
VERTEX
  8
0
 10
976.88507080078125
 20
39.31097412109375
 42
-1
  0
SEQEND
  0
POLYLINE
  8
0
 10
0
 20
0
 39
0
 70
1
 66
1
  0
VERTEX
  8
0
 10
915
 20
312
 42
-1
  0
VERTEX
  8
0
 10
915
 20
208
 42
-1
  0
SEQEND
  0
POLYLINE
  8
0
 10
0
 20
0
 39
0
 70
1
 66
1
  0
VERTEX
  8
0
 10
815
 20
520
 42
0
  0
VERTEX
  8
0
 10
1315
 20
520
 42
0
  0
VERTEX
  8
0
 10
1315
 20
720
 42
0
  0
VERTEX
  8
0
 10
815
 20
720
 42
0
  0
SEQEND
  0
POLYLINE
  8
0
 10
0
 20
0
 39
0
 70
1
 66
1
  0
VERTEX
  8
0
 10
1249.68896484375
 20
681.88507080078125
 42
-1
  0
VERTEX
  8
0
 10
1285.68896484375
 20
681.88507080078125
 42
-1
  0
SEQEND
  0
POLYLINE
  8
0
 10
0
 20
0
 39
0
 70
1
 66
1
  0
VERTEX
  8
0
 10
1013
 20
620
 42
-1
  0
VERTEX
  8
0
 10
1117
 20
620
 42
-1
  0
SEQEND
  0
POLYLINE
  8
0
 10
0
 20
0
 39
0
 70
1
 66
1
  0
VERTEX
  8
0
 10
1493
 20
866.864990234375
 42
0
  0
VERTEX
  8
0
 10
1639.9200439453125
 20
866.864990234375
 42
0
  0
VERTEX
  8
0
 10
1639.9200439453125
 20
946.864990234375
 42
0
  0
VERTEX
  8
0
 10
1493
 20
946.864990234375
 42
0
  0
SEQEND
  0
POLYLINE
  8
0
 10
0
 20
0
 39
0
 70
1
 66
1
  0
VERTEX
  8
0
 10
1541.4599609375
 20
906.864990234375
 42
-1
  0
VERTEX
  8
0
 10
1591.4599609375
 20
906.864990234375
 42
-1
  0
SEQEND
  0
POLYLINE
  8
0
 10
0
 20
0
 39
0
 70
1
 66
1
  0
VERTEX
  8
0
 10
815
 20
730
 42
0
  0
VERTEX
  8
0
 10
1315
 20
730
 42
0
  0
VERTEX
  8
0
 10
1315
 20
930
 42
0
  0
VERTEX
  8
0
 10
815
 20
930
 42
0
  0
SEQEND
  0
POLYLINE
  8
0
 10
0
 20
0
 39
0
 70
1
 66
1
  0
VERTEX
  8
0
 10
1249.68896484375
 20
891.88507080078125
 42
-1
  0
VERTEX
  8
0
 10
1285.68896484375
 20
891.88507080078125
 42
-1
  0
SEQEND
  0
POLYLINE
  8
0
 10
0
 20
0
 39
0
 70
1
 66
1
  0
VERTEX
  8
0
 10
1013
 20
830
 42
-1
  0
VERTEX
  8
0
 10
1117
 20
830
 42
-1
  0
SEQEND
  0
POLYLINE
  8
0
 10
0
 20
0
 39
0
 70
1
 66
1
  0
VERTEX
  8
0
 10
1897.9200439453125
 20
776.864990234375
 42
0
  0
VERTEX
  8
0
 10
1897.9200439453125
 20
846.864990234375
 42
-0
  0
VERTEX
  8
0
 10
1887.9200439453125
 20
856.864990234375
 42
0
  0
VERTEX
  8
0
 10
1829.9200439453125
 20
856.864990234375
 42
0
  0
VERTEX
  8
0
 10
1829.9200439453125
 20
691.864990234375
 42
-0
  0
SEQEND
  0
POLYLINE
  8
0
 10
0
 20
0
 39
0
 70
1
 66
1
  0
VERTEX
  8
0
 10
1872.9200439453125
 20
818.364990234375
 42
-1
  0
VERTEX
  8
0
 10
1872.9200439453125
 20
805.364990234375
 42
-1
  0
SEQEND
  0
POLYLINE
  8
0
 10
0
 20
0
 39
0
 70
1
 66
1
  0
VERTEX
  8
0
 10
1829.9200439453125
 20
675.35247802734375
 42
0
  0
VERTEX
  8
0
 10
1829.9200439453125
 20
605.35247802734375
 42
-0
  0
VERTEX
  8
0
 10
1839.9200439453125
 20
595.35247802734375
 42
0
  0
VERTEX
  8
0
 10
1897.9200439453125
 20
595.35247802734375
 42
0
  0
VERTEX
  8
0
 10
1897.9200439453125
 20
760.35247802734375
 42
-0
  0
SEQEND
  0
POLYLINE
  8
0
 10
0
 20
0
 39
0
 70
1
 66
1
  0
VERTEX
  8
0
 10
1854.9200439453125
 20
633.85247802734375
 42
-1
  0
VERTEX
  8
0
 10
1854.9200439453125
 20
646.85247802734375
 42
-1
  0
SEQEND
  0
POLYLINE
  8
0
 10
0
 20
0
 39
0
 70
1
 66
1
  0
VERTEX
  8
0
 10
1735
 20
313.83999633789062
 42
0
  0
VERTEX
  8
0
 10
1735
 20
166.91999816894531
 42
0
  0
VERTEX
  8
0
 10
1815
 20
166.91999816894531
 42
0
  0
VERTEX
  8
0
 10
1815
 20
313.83999633789062
 42
0
  0
SEQEND
  0
POLYLINE
  8
0
 10
0
 20
0
 39
0
 70
1
 66
1
  0
VERTEX
  8
0
 10
1775
 20
265.3800048828125
 42
-1
  0
VERTEX
  8
0
 10
1775
 20
215.3800048828125
 42
-1
  0
SEQEND
  0
POLYLINE
  8
0
 10
0
 20
0
 39
0
 70
1
 66
1
  0
VERTEX
  8
0
 10
1403
 20
942.35247802734375
 42
0
  0
VERTEX
  8
0
 10
1403
 20
795.4324951171875
 42
0
  0
VERTEX
  8
0
 10
1483
 20
795.4324951171875
 42
0
  0
VERTEX
  8
0
 10
1483
 20
942.35247802734375
 42
0
  0
SEQEND
  0
POLYLINE
  8
0
 10
0
 20
0
 39
0
 70
1
 66
1
  0
VERTEX
  8
0
 10
1443
 20
893.89251708984375
 42
-1
  0
VERTEX
  8
0
 10
1443
 20
843.89251708984375
 42
-1
  0
SEQEND
  0
POLYLINE
  8
0
 10
0
 20
0
 39
0
 70
1
 66
1
  0
VERTEX
  8
0
 10
1571
 20
742.27252197265625
 42
0
  0
VERTEX
  8
0
 10
1571
 20
595.35247802734375
 42
0
  0
VERTEX
  8
0
 10
1651
 20
595.35247802734375
 42
0
  0
VERTEX
  8
0
 10
1651
 20
742.27252197265625
 42
0
  0
SEQEND
  0
POLYLINE
  8
0
 10
0
 20
0
 39
0
 70
1
 66
1
  0
VERTEX
  8
0
 10
1611
 20
693.8125
 42
-1
  0
VERTEX
  8
0
 10
1611
 20
643.8125
 42
-1
  0
SEQEND
  0
POLYLINE
  8
0
 10
0
 20
0
 39
0
 70
1
 66
1
  0
VERTEX
  8
0
 10
1885
 20
505.35250854492188
 42
0
  0
VERTEX
  8
0
 10
1885
 20
575.35247802734375
 42
-0
  0
VERTEX
  8
0
 10
1875
 20
585.35247802734375
 42
0
  0
VERTEX
  8
0
 10
1817
 20
585.35247802734375
 42
0
  0
VERTEX
  8
0
 10
1817
 20
420.35250854492187
 42
-0
  0
SEQEND
  0
POLYLINE
  8
0
 10
0
 20
0
 39
0
 70
1
 66
1
  0
VERTEX
  8
0
 10
1860
 20
546.85247802734375
 42
-1
  0
VERTEX
  8
0
 10
1860
 20
533.85247802734375
 42
-1
  0
SEQEND
  0
POLYLINE
  8
0
 10
0
 20
0
 39
0
 70
1
 66
1
  0
VERTEX
  8
0
 10
1817
 20
403.83999633789062
 42
0
  0
VERTEX
  8
0
 10
1817
 20
333.83999633789062
 42
-0
  0
VERTEX
  8
0
 10
1827
 20
323.83999633789062
 42
0
  0
VERTEX
  8
0
 10
1885
 20
323.83999633789062
 42
0
  0
VERTEX
  8
0
 10
1885
 20
488.83999633789062
 42
-0
  0
SEQEND
  0
POLYLINE
  8
0
 10
0
 20
0
 39
0
 70
1
 66
1
  0
VERTEX
  8
0
 10
1842
 20
362.33999633789062
 42
-1
  0
VERTEX
  8
0
 10
1842
 20
375.33999633789062
 42
-1
  0
SEQEND
  0
POLYLINE
  8
0
 10
0
 20
0
 39
0
 70
1
 66
1
  0
VERTEX
  8
0
 10
1471
 20
548.51251220703125
 42
0
  0
VERTEX
  8
0
 10
1471
 20
618.51251220703125
 42
-0
  0
VERTEX
  8
0
 10
1461
 20
628.51251220703125
 42
0
  0
VERTEX
  8
0
 10
1403
 20
628.51251220703125
 42
0
  0
VERTEX
  8
0
 10
1403
 20
463.51251220703125
 42
-0
  0
SEQEND
  0
POLYLINE
  8
0
 10
0
 20
0
 39
0
 70
1
 66
1
  0
VERTEX
  8
0
 10
1446
 20
590.01251220703125
 42
-1
  0
VERTEX
  8
0
 10
1446
 20
577.01251220703125
 42
-1
  0
SEQEND
  0
POLYLINE
  8
0
 10
0
 20
0
 39
0
 70
1
 66
1
  0
VERTEX
  8
0
 10
1403
 20
447
 42
0
  0
VERTEX
  8
0
 10
1403
 20
377
 42
-0
  0
VERTEX
  8
0
 10
1413
 20
367
 42
0
  0
VERTEX
  8
0
 10
1471
 20
367
 42
0
  0
VERTEX
  8
0
 10
1471
 20
532
 42
-0
  0
SEQEND
  0
POLYLINE
  8
0
 10
0
 20
0
 39
0
 70
1
 66
1
  0
VERTEX
  8
0
 10
1428
 20
405.5
 42
-1
  0
VERTEX
  8
0
 10
1428
 20
418.5
 42
-1
  0
SEQEND
  0
POLYLINE
  8
0
 10
0
 20
0
 39
0
 70
1
 66
1
  0
VERTEX
  8
0
 10
1649.9200439453125
 20
989.1925048828125
 42
0
  0
VERTEX
  8
0
 10
1649.9200439453125
 20
842.27252197265625
 42
0
  0
VERTEX
  8
0
 10
1729.9200439453125
 20
842.27252197265625
 42
0
  0
VERTEX
  8
0
 10
1729.9200439453125
 20
989.1925048828125
 42
0
  0
SEQEND
  0
POLYLINE
  8
0
 10
0
 20
0
 39
0
 70
1
 66
1
  0
VERTEX
  8
0
 10
1689.9200439453125
 20
940.73248291015625
 42
-1
  0
VERTEX
  8
0
 10
1689.9200439453125
 20
890.73248291015625
 42
-1
  0
SEQEND
  0
POLYLINE
  8
0
 10
0
 20
0
 39
0
 70
1
 66
1
  0
VERTEX
  8
0
 10
334
 20
909
 42
0
  0
VERTEX
  8
0
 10
480.91998291015625
 20
909
 42
0
  0
VERTEX
  8
0
 10
480.91998291015625
 20
989
 42
0
  0
VERTEX
  8
0
 10
334
 20
989
 42
0
  0
SEQEND
  0
POLYLINE
  8
0
 10
0
 20
0
 39
0
 70
1
 66
1
  0
VERTEX
  8
0
 10
382.45999145507812
 20
949
 42
-1
  0
VERTEX
  8
0
 10
432.45999145507812
 20
949
 42
-1
  0
SEQEND
  0
POLYLINE
  8
0
 10
0
 20
0
 39
0
 70
1
 66
1
  0
VERTEX
  8
0
 10
1235
 20
119
 42
0
  0
VERTEX
  8
0
 10
1235
 20
10
 42
0
  0
VERTEX
  8
0
 10
1340
 20
10
 42
0
  0
VERTEX
  8
0
 10
1340
 20
119
 42
-0
  0
SEQEND
  0
POLYLINE
  8
0
 10
0
 20
0
 39
0
 70
1
 66
1
  0
VERTEX
  8
0
 10
1323.7708740234375
 20
42.935173034667969
 42
-1
  0
VERTEX
  8
0
 10
1323.7708740234375
 20
20.935173034667969
 42
-1
  0
SEQEND
  0
POLYLINE
  8
0
 10
0
 20
0
 39
0
 70
1
 66
1
  0
VERTEX
  8
0
 10
1323.7708740234375
 20
75.5
 42
-1
  0
VERTEX
  8
0
 10
1323.7708740234375
 20
53.5
 42
-1
  0
SEQEND
  0
POLYLINE
  8
0
 10
0
 20
0
 39
0
 70
1
 66
1
  0
VERTEX
  8
0
 10
1293.2908935546875
 20
42.935173034667969
 42
-1
  0
VERTEX
  8
0
 10
1293.2908935546875
 20
20.935173034667969
 42
-1
  0
SEQEND
  0
POLYLINE
  8
0
 10
0
 20
0
 39
0
 70
1
 66
1
  0
VERTEX
  8
0
 10
1350
 20
357
 42
0
  0
VERTEX
  8
0
 10
1350
 20
248
 42
0
  0
VERTEX
  8
0
 10
1455
 20
248
 42
0
  0
VERTEX
  8
0
 10
1455
 20
357
 42
-0
  0
SEQEND
  0
POLYLINE
  8
0
 10
0
 20
0
 39
0
 70
1
 66
1
  0
VERTEX
  8
0
 10
1438.7708740234375
 20
280.9351806640625
 42
-1
  0
VERTEX
  8
0
 10
1438.7708740234375
 20
258.9351806640625
 42
-1
  0
SEQEND
  0
POLYLINE
  8
0
 10
0
 20
0
 39
0
 70
1
 66
1
  0
VERTEX
  8
0
 10
1438.7708740234375
 20
313.5
 42
-1
  0
VERTEX
  8
0
 10
1438.7708740234375
 20
291.5
 42
-1
  0
SEQEND
  0
POLYLINE
  8
0
 10
0
 20
0
 39
0
 70
1
 66
1
  0
VERTEX
  8
0
 10
1408.2908935546875
 20
280.9351806640625
 42
-1
  0
VERTEX
  8
0
 10
1408.2908935546875
 20
258.9351806640625
 42
-1
  0
SEQEND
  0
POLYLINE
  8
0
 10
0
 20
0
 39
0
 70
1
 66
1
  0
VERTEX
  8
0
 10
445
 20
129
 42
0
  0
VERTEX
  8
0
 10
480
 20
129
 42
0
  0
VERTEX
  8
0
 10
480
 20
383
 42
0
  0
VERTEX
  8
0
 10
462.5
 20
383
 42
0
  0
VERTEX
  8
0
 10
462.5
 20
419
 42
0
  0
VERTEX
  8
0
 10
480
 20
419
 42
0
  0
VERTEX
  8
0
 10
480
 20
443
 42
-0
  0
VERTEX
  8
0
 10
445
 20
443
 42
-0
  0
SEQEND
  0
POLYLINE
  8
0
 10
0
 20
0
 39
0
 70
1
 66
1
  0
VERTEX
  8
0
 10
452.5
 20
165.54946899414062
 42
-1
  0
VERTEX
  8
0
 10
472.5
 20
165.54946899414062
 42
-1
  0
SEQEND
  0
POLYLINE
  8
0
 10
0
 20
0
 39
0
 70
1
 66
1
  0
VERTEX
  8
0
 10
665
 20
10
 42
0
  0
VERTEX
  8
0
 10
665
 20
270
 42
0
  0
VERTEX
  8
0
 10
535
 20
270
 42
0
  0
VERTEX
  8
0
 10
535
 20
10
 42
0
  0
SEQEND
  0
POLYLINE
  8
0
 10
0
 20
0
 39
0
 70
1
 66
1
  0
VERTEX
  8
0
 10
591.5
 20
35
 42
-1
  0
VERTEX
  8
0
 10
608.5
 20
35
 42
-1
  0
SEQEND
  0
POLYLINE
  8
0
 10
0
 20
0
 39
0
 70
1
 66
1
  0
VERTEX
  8
0
 10
548
 20
65
 42
-1
  0
VERTEX
  8
0
 10
562
 20
65
 42
-1
  0
SEQEND
  0
POLYLINE
  8
0
 10
0
 20
0
 39
0
 70
1
 66
1
  0
VERTEX
  8
0
 10
638
 20
65
 42
-1
  0
VERTEX
  8
0
 10
652
 20
65
 42
-1
  0
SEQEND
  0
POLYLINE
  8
0
 10
0
 20
0
 39
0
 70
1
 66
1
  0
VERTEX
  8
0
 10
562
 20
240
 42
0
  0
VERTEX
  8
0
 10
562
 20
224
 42
-1
  0
VERTEX
  8
0
 10
548
 20
224
 42
-0
  0
VERTEX
  8
0
 10
548
 20
240
 42
-1
  0
SEQEND
  0
POLYLINE
  8
0
 10
0
 20
0
 39
0
 70
1
 66
1
  0
VERTEX
  8
0
 10
652
 20
240
 42
-0
  0
VERTEX
  8
0
 10
652
 20
224
 42
-1
  0
VERTEX
  8
0
 10
638
 20
224
 42
0
  0
VERTEX
  8
0
 10
638
 20
240
 42
-1
  0
SEQEND
  0
POLYLINE
  8
0
 10
0
 20
0
 39
0
 70
1
 66
1
  0
VERTEX
  8
0
 10
490
 20
129
 42
0
  0
VERTEX
  8
0
 10
525
 20
129
 42
0
  0
VERTEX
  8
0
 10
525
 20
383
 42
0
  0
VERTEX
  8
0
 10
507.5
 20
383
 42
0
  0
VERTEX
  8
0
 10
507.5
 20
419
 42
0
  0
VERTEX
  8
0
 10
525
 20
419
 42
0
  0
VERTEX
  8
0
 10
525
 20
443
 42
-0
  0
VERTEX
  8
0
 10
490
 20
443
 42
-0
  0
SEQEND
  0
POLYLINE
  8
0
 10
0
 20
0
 39
0
 70
1
 66
1
  0
VERTEX
  8
0
 10
497.5
 20
165.54946899414062
 42
-1
  0
VERTEX
  8
0
 10
517.5
 20
165.54946899414062
 42
-1
  0
SEQEND
  0
POLYLINE
  8
0
 10
0
 20
0
 39
0
 70
1
 66
1
  0
VERTEX
  8
0
 10
10
 20
960
 42
0
  0
VERTEX
  8
0
 10
10
 20
925
 42
0
  0
VERTEX
  8
0
 10
264
 20
925
 42
0
  0
VERTEX
  8
0
 10
264
 20
942.5
 42
0
  0
VERTEX
  8
0
 10
300
 20
942.5
 42
0
  0
VERTEX
  8
0
 10
300
 20
925
 42
0
  0
VERTEX
  8
0
 10
324
 20
925
 42
-0
  0
VERTEX
  8
0
 10
324
 20
960
 42
-0
  0
SEQEND
  0
POLYLINE
  8
0
 10
0
 20
0
 39
0
 70
1
 66
1
  0
VERTEX
  8
0
 10
46.549476623535156
 20
952.5
 42
-1
  0
VERTEX
  8
0
 10
46.549476623535156
 20
932.5
 42
-1
  0
SEQEND
  0
POLYLINE
  8
0
 10
0
 20
0
 39
0
 70
1
 66
1
  0
VERTEX
  8
0
 10
1350
 20
238
 42
0
  0
VERTEX
  8
0
 10
1350
 20
129
 42
0
  0
VERTEX
  8
0
 10
1455
 20
129
 42
0
  0
VERTEX
  8
0
 10
1455
 20
238
 42
-0
  0
SEQEND
  0
POLYLINE
  8
0
 10
0
 20
0
 39
0
 70
1
 66
1
  0
VERTEX
  8
0
 10
1438.7708740234375
 20
161.9351806640625
 42
-1
  0
VERTEX
  8
0
 10
1438.7708740234375
 20
139.9351806640625
 42
-1
  0
SEQEND
  0
POLYLINE
  8
0
 10
0
 20
0
 39
0
 70
1
 66
1
  0
VERTEX
  8
0
 10
1438.7708740234375
 20
194.5
 42
-1
  0
VERTEX
  8
0
 10
1438.7708740234375
 20
172.5
 42
-1
  0
SEQEND
  0
POLYLINE
  8
0
 10
0
 20
0
 39
0
 70
1
 66
1
  0
VERTEX
  8
0
 10
1408.2908935546875
 20
161.9351806640625
 42
-1
  0
VERTEX
  8
0
 10
1408.2908935546875
 20
139.9351806640625
 42
-1
  0
SEQEND
  0
POLYLINE
  8
0
 10
0
 20
0
 39
0
 70
1
 66
1
  0
VERTEX
  8
0
 10
445
 20
453
 42
0
  0
VERTEX
  8
0
 10
480
 20
453
 42
0
  0
VERTEX
  8
0
 10
480
 20
707
 42
0
  0
VERTEX
  8
0
 10
462.5
 20
707
 42
0
  0
VERTEX
  8
0
 10
462.5
 20
743
 42
0
  0
VERTEX
  8
0
 10
480
 20
743
 42
0
  0
VERTEX
  8
0
 10
480
 20
767
 42
-0
  0
VERTEX
  8
0
 10
445
 20
767
 42
-0
  0
SEQEND
  0
POLYLINE
  8
0
 10
0
 20
0
 39
0
 70
1
 66
1
  0
VERTEX
  8
0
 10
452.5
 20
489.54946899414062
 42
-1
  0
VERTEX
  8
0
 10
472.5
 20
489.54946899414062
 42
-1
  0
SEQEND
  0
POLYLINE
  8
0
 10
0
 20
0
 39
0
 70
1
 66
1
  0
VERTEX
  8
0
 10
1084.9200439453125
 20
987.35247802734375
 42
0
  0
VERTEX
  8
0
 10
1084.9200439453125
 20
952.35247802734375
 42
0
  0
VERTEX
  8
0
 10
1338.9200439453125
 20
952.35247802734375
 42
0
  0
VERTEX
  8
0
 10
1338.9200439453125
 20
969.85247802734375
 42
0
  0
VERTEX
  8
0
 10
1374.9200439453125
 20
969.85247802734375
 42
0
  0
VERTEX
  8
0
 10
1374.9200439453125
 20
952.35247802734375
 42
0
  0
VERTEX
  8
0
 10
1398.9200439453125
 20
952.35247802734375
 42
-0
  0
VERTEX
  8
0
 10
1398.9200439453125
 20
987.35247802734375
 42
-0
  0
SEQEND
  0
POLYLINE
  8
0
 10
0
 20
0
 39
0
 70
1
 66
1
  0
VERTEX
  8
0
 10
1121.469482421875
 20
979.85247802734375
 42
-1
  0
VERTEX
  8
0
 10
1121.469482421875
 20
959.85247802734375
 42
-1
  0
SEQEND
  0
POLYLINE
  8
0
 10
0
 20
0
 39
0
 70
1
 66
1
  0
VERTEX
  8
0
 10
10
 20
870
 42
0
  0
VERTEX
  8
0
 10
10
 20
835
 42
0
  0
VERTEX
  8
0
 10
264
 20
835
 42
0
  0
VERTEX
  8
0
 10
264
 20
852.5
 42
0
  0
VERTEX
  8
0
 10
300
 20
852.5
 42
0
  0
VERTEX
  8
0
 10
300
 20
835
 42
0
  0
VERTEX
  8
0
 10
324
 20
835
 42
-0
  0
VERTEX
  8
0
 10
324
 20
870
 42
-0
  0
SEQEND
  0
POLYLINE
  8
0
 10
0
 20
0
 39
0
 70
1
 66
1
  0
VERTEX
  8
0
 10
46.549476623535156
 20
862.5
 42
-1
  0
VERTEX
  8
0
 10
46.549476623535156
 20
842.5
 42
-1
  0
SEQEND
  0
POLYLINE
  8
0
 10
0
 20
0
 39
0
 70
1
 66
1
  0
VERTEX
  8
0
 10
760.91998291015625
 20
975
 42
0
  0
VERTEX
  8
0
 10
760.91998291015625
 20
940
 42
0
  0
VERTEX
  8
0
 10
1014.9199829101562
 20
940
 42
0
  0
VERTEX
  8
0
 10
1014.9199829101562
 20
957.5
 42
0
  0
VERTEX
  8
0
 10
1050.9200439453125
 20
957.5
 42
0
  0
VERTEX
  8
0
 10
1050.9200439453125
 20
940
 42
0
  0
VERTEX
  8
0
 10
1074.9200439453125
 20
940
 42
-0
  0
VERTEX
  8
0
 10
1074.9200439453125
 20
975
 42
-0
  0
SEQEND
  0
POLYLINE
  8
0
 10
0
 20
0
 39
0
 70
1
 66
1
  0
VERTEX
  8
0
 10
797.469482421875
 20
967.5
 42
-1
  0
VERTEX
  8
0
 10
797.469482421875
 20
947.5
 42
-1
  0
SEQEND
  0
POLYLINE
  8
0
 10
0
 20
0
 39
0
 70
1
 66
1
  0
VERTEX
  8
0
 10
334
 20
899
 42
0
  0
VERTEX
  8
0
 10
334
 20
790
 42
0
  0
VERTEX
  8
0
 10
439
 20
790
 42
0
  0
VERTEX
  8
0
 10
439
 20
899
 42
-0
  0
SEQEND
  0
POLYLINE
  8
0
 10
0
 20
0
 39
0
 70
1
 66
1
  0
VERTEX
  8
0
 10
422.7708740234375
 20
822.9351806640625
 42
-1
  0
VERTEX
  8
0
 10
422.7708740234375
 20
800.9351806640625
 42
-1
  0
SEQEND
  0
POLYLINE
  8
0
 10
0
 20
0
 39
0
 70
1
 66
1
  0
VERTEX
  8
0
 10
422.7708740234375
 20
855.5
 42
-1
  0
VERTEX
  8
0
 10
422.7708740234375
 20
833.5
 42
-1
  0
SEQEND
  0
POLYLINE
  8
0
 10
0
 20
0
 39
0
 70
1
 66
1
  0
VERTEX
  8
0
 10
392.2908935546875
 20
822.9351806640625
 42
-1
  0
VERTEX
  8
0
 10
392.2908935546875
 20
800.9351806640625
 42
-1
  0
SEQEND
  0
POLYLINE
  8
0
 10
0
 20
0
 39
0
 70
1
 66
1
  0
VERTEX
  8
0
 10
400
 20
129
 42
0
  0
VERTEX
  8
0
 10
435
 20
129
 42
0
  0
VERTEX
  8
0
 10
435
 20
383
 42
0
  0
VERTEX
  8
0
 10
417.5
 20
383
 42
0
  0
VERTEX
  8
0
 10
417.5
 20
419
 42
0
  0
VERTEX
  8
0
 10
435
 20
419
 42
0
  0
VERTEX
  8
0
 10
435
 20
443
 42
-0
  0
VERTEX
  8
0
 10
400
 20
443
 42
-0
  0
SEQEND
  0
POLYLINE
  8
0
 10
0
 20
0
 39
0
 70
1
 66
1
  0
VERTEX
  8
0
 10
407.5
 20
165.54946899414062
 42
-1
  0
VERTEX
  8
0
 10
427.5
 20
165.54946899414062
 42
-1
  0
SEQEND
  0
POLYLINE
  8
0
 10
0
 20
0
 39
0
 70
1
 66
1
  0
VERTEX
  8
0
 10
400
 20
119
 42
0
  0
VERTEX
  8
0
 10
400
 20
10
 42
0
  0
VERTEX
  8
0
 10
505
 20
10
 42
0
  0
VERTEX
  8
0
 10
505
 20
119
 42
-0
  0
SEQEND
  0
POLYLINE
  8
0
 10
0
 20
0
 39
0
 70
1
 66
1
  0
VERTEX
  8
0
 10
488.7708740234375
 20
42.935173034667969
 42
-1
  0
VERTEX
  8
0
 10
488.7708740234375
 20
20.935173034667969
 42
-1
  0
SEQEND
  0
POLYLINE
  8
0
 10
0
 20
0
 39
0
 70
1
 66
1
  0
VERTEX
  8
0
 10
488.7708740234375
 20
75.5
 42
-1
  0
VERTEX
  8
0
 10
488.7708740234375
 20
53.5
 42
-1
  0
SEQEND
  0
POLYLINE
  8
0
 10
0
 20
0
 39
0
 70
1
 66
1
  0
VERTEX
  8
0
 10
458.2908935546875
 20
42.935173034667969
 42
-1
  0
VERTEX
  8
0
 10
458.2908935546875
 20
20.935173034667969
 42
-1
  0
SEQEND
  0
POLYLINE
  8
0
 10
0
 20
0
 39
0
 70
1
 66
1
  0
VERTEX
  8
0
 10
1350
 20
119
 42
0
  0
VERTEX
  8
0
 10
1350
 20
10
 42
0
  0
VERTEX
  8
0
 10
1455
 20
10
 42
0
  0
VERTEX
  8
0
 10
1455
 20
119
 42
-0
  0
SEQEND
  0
POLYLINE
  8
0
 10
0
 20
0
 39
0
 70
1
 66
1
  0
VERTEX
  8
0
 10
1438.7708740234375
 20
42.935173034667969
 42
-1
  0
VERTEX
  8
0
 10
1438.7708740234375
 20
20.935173034667969
 42
-1
  0
SEQEND
  0
POLYLINE
  8
0
 10
0
 20
0
 39
0
 70
1
 66
1
  0
VERTEX
  8
0
 10
1438.7708740234375
 20
75.5
 42
-1
  0
VERTEX
  8
0
 10
1438.7708740234375
 20
53.5
 42
-1
  0
SEQEND
  0
POLYLINE
  8
0
 10
0
 20
0
 39
0
 70
1
 66
1
  0
VERTEX
  8
0
 10
1408.2908935546875
 20
42.935173034667969
 42
-1
  0
VERTEX
  8
0
 10
1408.2908935546875
 20
20.935173034667969
 42
-1
  0
SEQEND
  0
POLYLINE
  8
0
 10
0
 20
0
 39
0
 70
1
 66
1
  0
VERTEX
  8
0
 10
1235
 20
357
 42
0
  0
VERTEX
  8
0
 10
1235
 20
248
 42
0
  0
VERTEX
  8
0
 10
1340
 20
248
 42
0
  0
VERTEX
  8
0
 10
1340
 20
357
 42
-0
  0
SEQEND
  0
POLYLINE
  8
0
 10
0
 20
0
 39
0
 70
1
 66
1
  0
VERTEX
  8
0
 10
1323.7708740234375
 20
280.9351806640625
 42
-1
  0
VERTEX
  8
0
 10
1323.7708740234375
 20
258.9351806640625
 42
-1
  0
SEQEND
  0
POLYLINE
  8
0
 10
0
 20
0
 39
0
 70
1
 66
1
  0
VERTEX
  8
0
 10
1323.7708740234375
 20
313.5
 42
-1
  0
VERTEX
  8
0
 10
1323.7708740234375
 20
291.5
 42
-1
  0
SEQEND
  0
POLYLINE
  8
0
 10
0
 20
0
 39
0
 70
1
 66
1
  0
VERTEX
  8
0
 10
1293.2908935546875
 20
280.9351806640625
 42
-1
  0
VERTEX
  8
0
 10
1293.2908935546875
 20
258.9351806640625
 42
-1
  0
SEQEND
  0
POLYLINE
  8
0
 10
0
 20
0
 39
0
 70
1
 66
1
  0
VERTEX
  8
0
 10
1955
 20
10
 42
0
  0
VERTEX
  8
0
 10
1955
 20
270
 42
0
  0
VERTEX
  8
0
 10
1825
 20
270
 42
0
  0
VERTEX
  8
0
 10
1825
 20
10
 42
0
  0
SEQEND
  0
POLYLINE
  8
0
 10
0
 20
0
 39
0
 70
1
 66
1
  0
VERTEX
  8
0
 10
1881.5
 20
35
 42
-1
  0
VERTEX
  8
0
 10
1898.5
 20
35
 42
-1
  0
SEQEND
  0
POLYLINE
  8
0
 10
0
 20
0
 39
0
 70
1
 66
1
  0
VERTEX
  8
0
 10
1838
 20
65
 42
-1
  0
VERTEX
  8
0
 10
1852
 20
65
 42
-1
  0
SEQEND
  0
POLYLINE
  8
0
 10
0
 20
0
 39
0
 70
1
 66
1
  0
VERTEX
  8
0
 10
1928
 20
65
 42
-1
  0
VERTEX
  8
0
 10
1942
 20
65
 42
-1
  0
SEQEND
  0
POLYLINE
  8
0
 10
0
 20
0
 39
0
 70
1
 66
1
  0
VERTEX
  8
0
 10
1852
 20
240
 42
0
  0
VERTEX
  8
0
 10
1852
 20
224
 42
-1
  0
VERTEX
  8
0
 10
1838
 20
224
 42
-0
  0
VERTEX
  8
0
 10
1838
 20
240
 42
-1
  0
SEQEND
  0
POLYLINE
  8
0
 10
0
 20
0
 39
0
 70
1
 66
1
  0
VERTEX
  8
0
 10
1942
 20
240
 42
-0
  0
VERTEX
  8
0
 10
1942
 20
224
 42
-1
  0
VERTEX
  8
0
 10
1928
 20
224
 42
0
  0
VERTEX
  8
0
 10
1928
 20
240
 42
-1
  0
SEQEND
  0
POLYLINE
  8
0
 10
0
 20
0
 39
0
 70
1
 66
1
  0
VERTEX
  8
0
 10
1235
 20
238
 42
0
  0
VERTEX
  8
0
 10
1235
 20
129
 42
0
  0
VERTEX
  8
0
 10
1340
 20
129
 42
0
  0
VERTEX
  8
0
 10
1340
 20
238
 42
-0
  0
SEQEND
  0
POLYLINE
  8
0
 10
0
 20
0
 39
0
 70
1
 66
1
  0
VERTEX
  8
0
 10
1323.7708740234375
 20
161.9351806640625
 42
-1
  0
VERTEX
  8
0
 10
1323.7708740234375
 20
139.9351806640625
 42
-1
  0
SEQEND
  0
POLYLINE
  8
0
 10
0
 20
0
 39
0
 70
1
 66
1
  0
VERTEX
  8
0
 10
1323.7708740234375
 20
194.5
 42
-1
  0
VERTEX
  8
0
 10
1323.7708740234375
 20
172.5
 42
-1
  0
SEQEND
  0
POLYLINE
  8
0
 10
0
 20
0
 39
0
 70
1
 66
1
  0
VERTEX
  8
0
 10
1293.2908935546875
 20
161.9351806640625
 42
-1
  0
VERTEX
  8
0
 10
1293.2908935546875
 20
139.9351806640625
 42
-1
  0
SEQEND
  0
POLYLINE
  8
0
 10
0
 20
0
 39
0
 70
1
 66
1
  0
VERTEX
  8
0
 10
490
 20
453
 42
0
  0
VERTEX
  8
0
 10
525
 20
453
 42
0
  0
VERTEX
  8
0
 10
525
 20
707
 42
0
  0
VERTEX
  8
0
 10
507.5
 20
707
 42
0
  0
VERTEX
  8
0
 10
507.5
 20
743
 42
0
  0
VERTEX
  8
0
 10
525
 20
743
 42
0
  0
VERTEX
  8
0
 10
525
 20
767
 42
-0
  0
VERTEX
  8
0
 10
490
 20
767
 42
-0
  0
SEQEND
  0
POLYLINE
  8
0
 10
0
 20
0
 39
0
 70
1
 66
1
  0
VERTEX
  8
0
 10
497.5
 20
489.54946899414062
 42
-1
  0
VERTEX
  8
0
 10
517.5
 20
489.54946899414062
 42
-1
  0
SEQEND
  0
POLYLINE
  8
0
 10
0
 20
0
 39
0
 70
1
 66
1
  0
VERTEX
  8
0
 10
199.17097473144531
 20
389.99819946289062
 42
1
  0
VERTEX
  8
0
 10
200.82902526855469
 20
10.001809120178223
 42
1
  0
SEQEND
  0
POLYLINE
  8
0
 10
0
 20
0
 39
0
 70
1
 66
1
  0
VERTEX
  8
0
 10
199.35641479492187
 20
347.49859619140625
 42
-1
  0
VERTEX
  8
0
 10
199.79273986816406
 20
247.49954223632812
 42
-1
  0
SEQEND
  0
POLYLINE
  8
0
 10
0
 20
0
 39
0
 70
1
 66
1
  0
VERTEX
  8
0
 10
200.20726013183594
 20
152.50044250488281
 42
-1
  0
VERTEX
  8
0
 10
200.64358520507812
 20
52.50140380859375
 42
-1
  0
SEQEND
  0
POLYLINE
  8
0
 10
0
 20
0
 39
0
 70
1
 66
1
  0
VERTEX
  8
0
 10
102.28276062011719
 20
249.5740966796875
 42
-1
  0
VERTEX
  8
0
 10
102.71909332275391
 20
149.57505798339844
 42
-1
  0
SEQEND
  0
POLYLINE
  8
0
 10
0
 20
0
 39
0
 70
1
 66
1
  0
VERTEX
  8
0
 10
297.28091430664062
 20
250.42494201660156
 42
-1
  0
VERTEX
  8
0
 10
297.71722412109375
 20
150.4259033203125
 42
-1
  0
SEQEND
  0
POLYLINE
  8
0
 10
0
 20
0
 39
0
 70
1
 66
1
  0
VERTEX
  8
0
 10
10
 20
825
 42
0
  0
VERTEX
  8
0
 10
10
 20
790
 42
0
  0
VERTEX
  8
0
 10
264
 20
790
 42
0
  0
VERTEX
  8
0
 10
264
 20
807.5
 42
0
  0
VERTEX
  8
0
 10
300
 20
807.5
 42
0
  0
VERTEX
  8
0
 10
300
 20
790
 42
0
  0
VERTEX
  8
0
 10
324
 20
790
 42
-0
  0
VERTEX
  8
0
 10
324
 20
825
 42
-0
  0
SEQEND
  0
POLYLINE
  8
0
 10
0
 20
0
 39
0
 70
1
 66
1
  0
VERTEX
  8
0
 10
46.549476623535156
 20
817.5
 42
-1
  0
VERTEX
  8
0
 10
46.549476623535156
 20
797.5
 42
-1
  0
SEQEND
  0
POLYLINE
  8
0
 10
0
 20
0
 39
0
 70
1
 66
1
  0
VERTEX
  8
0
 10
665
 20
280
 42
0
  0
VERTEX
  8
0
 10
665
 20
540
 42
0
  0
VERTEX
  8
0
 10
535
 20
540
 42
0
  0
VERTEX
  8
0
 10
535
 20
280
 42
0
  0
SEQEND
  0
POLYLINE
  8
0
 10
0
 20
0
 39
0
 70
1
 66
1
  0
VERTEX
  8
0
 10
591.5
 20
305
 42
-1
  0
VERTEX
  8
0
 10
608.5
 20
305
 42
-1
  0
SEQEND
  0
POLYLINE
  8
0
 10
0
 20
0
 39
0
 70
1
 66
1
  0
VERTEX
  8
0
 10
548
 20
335
 42
-1
  0
VERTEX
  8
0
 10
562
 20
335
 42
-1
  0
SEQEND
  0
POLYLINE
  8
0
 10
0
 20
0
 39
0
 70
1
 66
1
  0
VERTEX
  8
0
 10
638
 20
335
 42
-1
  0
VERTEX
  8
0
 10
652
 20
335
 42
-1
  0
SEQEND
  0
POLYLINE
  8
0
 10
0
 20
0
 39
0
 70
1
 66
1
  0
VERTEX
  8
0
 10
562
 20
510
 42
0
  0
VERTEX
  8
0
 10
562
 20
494
 42
-1
  0
VERTEX
  8
0
 10
548
 20
494
 42
-0
  0
VERTEX
  8
0
 10
548
 20
510
 42
-1
  0
SEQEND
  0
POLYLINE
  8
0
 10
0
 20
0
 39
0
 70
1
 66
1
  0
VERTEX
  8
0
 10
652
 20
510
 42
-0
  0
VERTEX
  8
0
 10
652
 20
494
 42
-1
  0
VERTEX
  8
0
 10
638
 20
494
 42
0
  0
VERTEX
  8
0
 10
638
 20
510
 42
-1
  0
SEQEND
  0
POLYLINE
  8
0
 10
0
 20
0
 39
0
 70
1
 66
1
  0
VERTEX
  8
0
 10
400
 20
453
 42
0
  0
VERTEX
  8
0
 10
435
 20
453
 42
0
  0
VERTEX
  8
0
 10
435
 20
707
 42
0
  0
VERTEX
  8
0
 10
417.5
 20
707
 42
0
  0
VERTEX
  8
0
 10
417.5
 20
743
 42
0
  0
VERTEX
  8
0
 10
435
 20
743
 42
0
  0
VERTEX
  8
0
 10
435
 20
767
 42
-0
  0
VERTEX
  8
0
 10
400
 20
767
 42
-0
  0
SEQEND
  0
POLYLINE
  8
0
 10
0
 20
0
 39
0
 70
1
 66
1
  0
VERTEX
  8
0
 10
407.5
 20
489.54946899414062
 42
-1
  0
VERTEX
  8
0
 10
427.5
 20
489.54946899414062
 42
-1
  0
SEQEND
  0
POLYLINE
  8
0
 10
0
 20
0
 39
0
 70
1
 66
1
  0
VERTEX
  8
0
 10
665
 20
550
 42
0
  0
VERTEX
  8
0
 10
665
 20
810
 42
0
  0
VERTEX
  8
0
 10
535
 20
810
 42
0
  0
VERTEX
  8
0
 10
535
 20
550
 42
0
  0
SEQEND
  0
POLYLINE
  8
0
 10
0
 20
0
 39
0
 70
1
 66
1
  0
VERTEX
  8
0
 10
591.5
 20
575
 42
-1
  0
VERTEX
  8
0
 10
608.5
 20
575
 42
-1
  0
SEQEND
  0
POLYLINE
  8
0
 10
0
 20
0
 39
0
 70
1
 66
1
  0
VERTEX
  8
0
 10
548
 20
605
 42
-1
  0
VERTEX
  8
0
 10
562
 20
605
 42
-1
  0
SEQEND
  0
POLYLINE
  8
0
 10
0
 20
0
 39
0
 70
1
 66
1
  0
VERTEX
  8
0
 10
638
 20
605
 42
-1
  0
VERTEX
  8
0
 10
652
 20
605
 42
-1
  0
SEQEND
  0
POLYLINE
  8
0
 10
0
 20
0
 39
0
 70
1
 66
1
  0
VERTEX
  8
0
 10
562
 20
780
 42
0
  0
VERTEX
  8
0
 10
562
 20
764
 42
-1
  0
VERTEX
  8
0
 10
548
 20
764
 42
-0
  0
VERTEX
  8
0
 10
548
 20
780
 42
-1
  0
SEQEND
  0
POLYLINE
  8
0
 10
0
 20
0
 39
0
 70
1
 66
1
  0
VERTEX
  8
0
 10
652
 20
780
 42
-0
  0
VERTEX
  8
0
 10
652
 20
764
 42
-1
  0
VERTEX
  8
0
 10
638
 20
764
 42
0
  0
VERTEX
  8
0
 10
638
 20
780
 42
-1
  0
SEQEND
  0
POLYLINE
  8
0
 10
0
 20
0
 39
0
 70
1
 66
1
  0
VERTEX
  8
0
 10
199.17097473144531
 20
779.9981689453125
 42
1
  0
VERTEX
  8
0
 10
200.82902526855469
 20
400.00180053710937
 42
1
  0
SEQEND
  0
POLYLINE
  8
0
 10
0
 20
0
 39
0
 70
1
 66
1
  0
VERTEX
  8
0
 10
199.35641479492187
 20
737.49859619140625
 42
-1
  0
VERTEX
  8
0
 10
199.79273986816406
 20
637.49951171875
 42
-1
  0
SEQEND
  0
POLYLINE
  8
0
 10
0
 20
0
 39
0
 70
1
 66
1
  0
VERTEX
  8
0
 10
200.20726013183594
 20
542.50042724609375
 42
-1
  0
VERTEX
  8
0
 10
200.64358520507812
 20
442.50140380859375
 42
-1
  0
SEQEND
  0
POLYLINE
  8
0
 10
0
 20
0
 39
0
 70
1
 66
1
  0
VERTEX
  8
0
 10
102.28276062011719
 20
639.5740966796875
 42
-1
  0
VERTEX
  8
0
 10
102.71909332275391
 20
539.5750732421875
 42
-1
  0
SEQEND
  0
POLYLINE
  8
0
 10
0
 20
0
 39
0
 70
1
 66
1
  0
VERTEX
  8
0
 10
297.28091430664062
 20
640.4249267578125
 42
-1
  0
VERTEX
  8
0
 10
297.71722412109375
 20
540.4259033203125
 42
-1
  0
SEQEND
  0
POLYLINE
  8
0
 10
0
 20
0
 39
0
 70
1
 66
1
  0
VERTEX
  8
0
 10
10
 20
915
 42
0
  0
VERTEX
  8
0
 10
10
 20
880
 42
0
  0
VERTEX
  8
0
 10
264
 20
880
 42
0
  0
VERTEX
  8
0
 10
264
 20
897.5
 42
0
  0
VERTEX
  8
0
 10
300
 20
897.5
 42
0
  0
VERTEX
  8
0
 10
300
 20
880
 42
0
  0
VERTEX
  8
0
 10
324
 20
880
 42
-0
  0
VERTEX
  8
0
 10
324
 20
915
 42
-0
  0
SEQEND
  0
POLYLINE
  8
0
 10
0
 20
0
 39
0
 70
1
 66
1
  0
VERTEX
  8
0
 10
46.549476623535156
 20
907.5
 42
-1
  0
VERTEX
  8
0
 10
46.549476623535156
 20
887.5
 42
-1
  0
SEQEND
  0
POLYLINE
  8
0
 10
0
 20
0
 39
0
 70
1
 66
1
  0
VERTEX
  8
0
 10
490.91998291015625
 20
820
 42
0
  0
VERTEX
  8
0
 10
750.91998291015625
 20
820
 42
0
  0
VERTEX
  8
0
 10
750.91998291015625
 20
950
 42
0
  0
VERTEX
  8
0
 10
490.91998291015625
 20
950
 42
0
  0
SEQEND
  0
POLYLINE
  8
0
 10
0
 20
0
 39
0
 70
1
 66
1
  0
VERTEX
  8
0
 10
515.91998291015625
 20
893.5
 42
-1
  0
VERTEX
  8
0
 10
515.91998291015625
 20
876.5
 42
-1
  0
SEQEND
  0
POLYLINE
  8
0
 10
0
 20
0
 39
0
 70
1
 66
1
  0
VERTEX
  8
0
 10
545.91998291015625
 20
937
 42
-1
  0
VERTEX
  8
0
 10
545.91998291015625
 20
923
 42
-1
  0
SEQEND
  0
POLYLINE
  8
0
 10
0
 20
0
 39
0
 70
1
 66
1
  0
VERTEX
  8
0
 10
545.91998291015625
 20
847
 42
-1
  0
VERTEX
  8
0
 10
545.91998291015625
 20
833
 42
-1
  0
SEQEND
  0
POLYLINE
  8
0
 10
0
 20
0
 39
0
 70
1
 66
1
  0
VERTEX
  8
0
 10
720.91998291015625
 20
923
 42
0
  0
VERTEX
  8
0
 10
704.91998291015625
 20
923
 42
-1
  0
VERTEX
  8
0
 10
704.91998291015625
 20
937
 42
-0
  0
VERTEX
  8
0
 10
720.91998291015625
 20
937
 42
-1
  0
SEQEND
  0
POLYLINE
  8
0
 10
0
 20
0
 39
0
 70
1
 66
1
  0
VERTEX
  8
0
 10
720.91998291015625
 20
833
 42
-0
  0
VERTEX
  8
0
 10
704.91998291015625
 20
833
 42
-1
  0
VERTEX
  8
0
 10
704.91998291015625
 20
847
 42
0
  0
VERTEX
  8
0
 10
720.91998291015625
 20
847
 42
-1
  0
SEQEND
  0
POLYLINE
  8
0
 10
0
 20
0
 39
0
 70
1
 66
1
  0
VERTEX
  8
0
 10
1627
 20
505.35250854492188
 42
0
  0
VERTEX
  8
0
 10
1627
 20
575.35247802734375
 42
-0
  0
VERTEX
  8
0
 10
1617
 20
585.35247802734375
 42
0
  0
VERTEX
  8
0
 10
1559
 20
585.35247802734375
 42
0
  0
VERTEX
  8
0
 10
1559
 20
420.35250854492187
 42
-0
  0
SEQEND
  0
POLYLINE
  8
0
 10
0
 20
0
 39
0
 70
1
 66
1
  0
VERTEX
  8
0
 10
1602
 20
546.85247802734375
 42
-1
  0
VERTEX
  8
0
 10
1602
 20
533.85247802734375
 42
-1
  0
SEQEND
  0
POLYLINE
  8
0
 10
0
 20
0
 39
0
 70
1
 66
1
  0
VERTEX
  8
0
 10
1559
 20
403.83999633789062
 42
0
  0
VERTEX
  8
0
 10
1559
 20
333.83999633789062
 42
-0
  0
VERTEX
  8
0
 10
1569
 20
323.83999633789062
 42
0
  0
VERTEX
  8
0
 10
1627
 20
323.83999633789062
 42
0
  0
VERTEX
  8
0
 10
1627
 20
488.83999633789062
 42
-0
  0
SEQEND
  0
POLYLINE
  8
0
 10
0
 20
0
 39
0
 70
1
 66
1
  0
VERTEX
  8
0
 10
1584
 20
362.33999633789062
 42
-1
  0
VERTEX
  8
0
 10
1584
 20
375.33999633789062
 42
-1
  0
SEQEND
  0
POLYLINE
  8
0
 10
0
 20
0
 39
0
 70
1
 66
1
  0
VERTEX
  8
0
 10
805
 20
550
 42
0
  0
VERTEX
  8
0
 10
805
 20
810
 42
0
  0
VERTEX
  8
0
 10
675
 20
810
 42
0
  0
VERTEX
  8
0
 10
675
 20
550
 42
0
  0
SEQEND
  0
POLYLINE
  8
0
 10
0
 20
0
 39
0
 70
1
 66
1
  0
VERTEX
  8
0
 10
731.5
 20
575
 42
-1
  0
VERTEX
  8
0
 10
748.5
 20
575
 42
-1
  0
SEQEND
  0
POLYLINE
  8
0
 10
0
 20
0
 39
0
 70
1
 66
1
  0
VERTEX
  8
0
 10
688
 20
605
 42
-1
  0
VERTEX
  8
0
 10
702
 20
605
 42
-1
  0
SEQEND
  0
POLYLINE
  8
0
 10
0
 20
0
 39
0
 70
1
 66
1
  0
VERTEX
  8
0
 10
778
 20
605
 42
-1
  0
VERTEX
  8
0
 10
792
 20
605
 42
-1
  0
SEQEND
  0
POLYLINE
  8
0
 10
0
 20
0
 39
0
 70
1
 66
1
  0
VERTEX
  8
0
 10
702
 20
780
 42
0
  0
VERTEX
  8
0
 10
702
 20
764
 42
-1
  0
VERTEX
  8
0
 10
688
 20
764
 42
-0
  0
VERTEX
  8
0
 10
688
 20
780
 42
-1
  0
SEQEND
  0
POLYLINE
  8
0
 10
0
 20
0
 39
0
 70
1
 66
1
  0
VERTEX
  8
0
 10
792
 20
780
 42
-0
  0
VERTEX
  8
0
 10
792
 20
764
 42
-1
  0
VERTEX
  8
0
 10
778
 20
764
 42
0
  0
VERTEX
  8
0
 10
778
 20
780
 42
-1
  0
SEQEND
  0
POLYLINE
  8
0
 10
0
 20
0
 39
0
 70
1
 66
1
  0
VERTEX
  8
0
 10
1549
 20
505.35250854492188
 42
0
  0
VERTEX
  8
0
 10
1549
 20
575.35247802734375
 42
-0
  0
VERTEX
  8
0
 10
1539
 20
585.35247802734375
 42
0
  0
VERTEX
  8
0
 10
1481
 20
585.35247802734375
 42
0
  0
VERTEX
  8
0
 10
1481
 20
420.35250854492187
 42
-0
  0
SEQEND
  0
POLYLINE
  8
0
 10
0
 20
0
 39
0
 70
1
 66
1
  0
VERTEX
  8
0
 10
1524
 20
546.85247802734375
 42
-1
  0
VERTEX
  8
0
 10
1524
 20
533.85247802734375
 42
-1
  0
SEQEND
  0
POLYLINE
  8
0
 10
0
 20
0
 39
0
 70
1
 66
1
  0
VERTEX
  8
0
 10
1481
 20
403.83999633789062
 42
0
  0
VERTEX
  8
0
 10
1481
 20
333.83999633789062
 42
-0
  0
VERTEX
  8
0
 10
1491
 20
323.83999633789062
 42
0
  0
VERTEX
  8
0
 10
1549
 20
323.83999633789062
 42
0
  0
VERTEX
  8
0
 10
1549
 20
488.83999633789062
 42
-0
  0
SEQEND
  0
POLYLINE
  8
0
 10
0
 20
0
 39
0
 70
1
 66
1
  0
VERTEX
  8
0
 10
1506
 20
362.33999633789062
 42
-1
  0
VERTEX
  8
0
 10
1506
 20
375.33999633789062
 42
-1
  0
SEQEND
  0
POLYLINE
  8
0
 10
0
 20
0
 39
0
 70
1
 66
1
  0
VERTEX
  8
0
 10
1393
 20
820.0250244140625
 42
0
  0
VERTEX
  8
0
 10
1393
 20
890.0250244140625
 42
-0
  0
VERTEX
  8
0
 10
1383
 20
900.0250244140625
 42
0
  0
VERTEX
  8
0
 10
1325
 20
900.0250244140625
 42
0
  0
VERTEX
  8
0
 10
1325
 20
735.0250244140625
 42
-0
  0
SEQEND
  0
POLYLINE
  8
0
 10
0
 20
0
 39
0
 70
1
 66
1
  0
VERTEX
  8
0
 10
1368
 20
861.5250244140625
 42
-1
  0
VERTEX
  8
0
 10
1368
 20
848.5250244140625
 42
-1
  0
SEQEND
  0
POLYLINE
  8
0
 10
0
 20
0
 39
0
 70
1
 66
1
  0
VERTEX
  8
0
 10
1325
 20
718.51251220703125
 42
0
  0
VERTEX
  8
0
 10
1325
 20
648.51251220703125
 42
-0
  0
VERTEX
  8
0
 10
1335
 20
638.51251220703125
 42
0
  0
VERTEX
  8
0
 10
1393
 20
638.51251220703125
 42
0
  0
VERTEX
  8
0
 10
1393
 20
803.51251220703125
 42
-0
  0
SEQEND
  0
POLYLINE
  8
0
 10
0
 20
0
 39
0
 70
1
 66
1
  0
VERTEX
  8
0
 10
1350
 20
677.01251220703125
 42
-1
  0
VERTEX
  8
0
 10
1350
 20
690.01251220703125
 42
-1
  0
SEQEND
  0
POLYLINE
  8
0
 10
0
 20
0
 39
0
 70
1
 66
1
  0
VERTEX
  8
0
 10
1561
 20
776.864990234375
 42
0
  0
VERTEX
  8
0
 10
1561
 20
846.864990234375
 42
-0
  0
VERTEX
  8
0
 10
1551
 20
856.864990234375
 42
0
  0
VERTEX
  8
0
 10
1493
 20
856.864990234375
 42
0
  0
VERTEX
  8
0
 10
1493
 20
691.864990234375
 42
-0
  0
SEQEND
  0
POLYLINE
  8
0
 10
0
 20
0
 39
0
 70
1
 66
1
  0
VERTEX
  8
0
 10
1536
 20
818.364990234375
 42
-1
  0
VERTEX
  8
0
 10
1536
 20
805.364990234375
 42
-1
  0
SEQEND
  0
POLYLINE
  8
0
 10
0
 20
0
 39
0
 70
1
 66
1
  0
VERTEX
  8
0
 10
1493
 20
675.35247802734375
 42
0
  0
VERTEX
  8
0
 10
1493
 20
605.35247802734375
 42
-0
  0
VERTEX
  8
0
 10
1503
 20
595.35247802734375
 42
0
  0
VERTEX
  8
0
 10
1561
 20
595.35247802734375
 42
0
  0
VERTEX
  8
0
 10
1561
 20
760.35247802734375
 42
-0
  0
SEQEND
  0
POLYLINE
  8
0
 10
0
 20
0
 39
0
 70
1
 66
1
  0
VERTEX
  8
0
 10
1518
 20
633.85247802734375
 42
-1
  0
VERTEX
  8
0
 10
1518
 20
646.85247802734375
 42
-1
  0
SEQEND
  0
POLYLINE
  8
0
 10
0
 20
0
 39
0
 70
1
 66
1
  0
VERTEX
  8
0
 10
1963
 20
461.51251220703125
 42
0
  0
VERTEX
  8
0
 10
1963
 20
531.51251220703125
 42
-0
  0
VERTEX
  8
0
 10
1953
 20
541.51251220703125
 42
0
  0
VERTEX
  8
0
 10
1895
 20
541.51251220703125
 42
0
  0
VERTEX
  8
0
 10
1895
 20
376.51251220703125
 42
-0
  0
SEQEND
  0
POLYLINE
  8
0
 10
0
 20
0
 39
0
 70
1
 66
1
  0
VERTEX
  8
0
 10
1938
 20
503.01251220703125
 42
-1
  0
VERTEX
  8
0
 10
1938
 20
490.01251220703125
 42
-1
  0
SEQEND
  0
POLYLINE
  8
0
 10
0
 20
0
 39
0
 70
1
 66
1
  0
VERTEX
  8
0
 10
1895
 20
360
 42
0
  0
VERTEX
  8
0
 10
1895
 20
290
 42
-0
  0
VERTEX
  8
0
 10
1905
 20
280
 42
0
  0
VERTEX
  8
0
 10
1963
 20
280
 42
0
  0
VERTEX
  8
0
 10
1963
 20
445
 42
-0
  0
SEQEND
  0
POLYLINE
  8
0
 10
0
 20
0
 39
0
 70
1
 66
1
  0
VERTEX
  8
0
 10
1920
 20
318.5
 42
-1
  0
VERTEX
  8
0
 10
1920
 20
331.5
 42
-1
  0
SEQEND
  0
POLYLINE
  8
0
 10
0
 20
0
 39
0
 70
1
 66
1
  0
VERTEX
  8
0
 10
1729
 20
662.27252197265625
 42
0
  0
VERTEX
  8
0
 10
1729
 20
732.27252197265625
 42
-0
  0
VERTEX
  8
0
 10
1719
 20
742.27252197265625
 42
0
  0
VERTEX
  8
0
 10
1661
 20
742.27252197265625
 42
0
  0
VERTEX
  8
0
 10
1661
 20
577.27252197265625
 42
-0
  0
SEQEND
  0
POLYLINE
  8
0
 10
0
 20
0
 39
0
 70
1
 66
1
  0
VERTEX
  8
0
 10
1704
 20
703.77252197265625
 42
-1
  0
VERTEX
  8
0
 10
1704
 20
690.77252197265625
 42
-1
  0
SEQEND
  0
POLYLINE
  8
0
 10
0
 20
0
 39
0
 70
1
 66
1
  0
VERTEX
  8
0
 10
1661
 20
560.760009765625
 42
0
  0
VERTEX
  8
0
 10
1661
 20
490.760009765625
 42
-0
  0
VERTEX
  8
0
 10
1671
 20
480.760009765625
 42
0
  0
VERTEX
  8
0
 10
1729
 20
480.760009765625
 42
0
  0
VERTEX
  8
0
 10
1729
 20
645.760009765625
 42
-0
  0
SEQEND
  0
POLYLINE
  8
0
 10
0
 20
0
 39
0
 70
1
 66
1
  0
VERTEX
  8
0
 10
1686
 20
519.260009765625
 42
-1
  0
VERTEX
  8
0
 10
1686
 20
532.260009765625
 42
-1
  0
SEQEND
  0
POLYLINE
  8
0
 10
0
 20
0
 39
0
 70
1
 66
1
  0
VERTEX
  8
0
 10
1393
 20
548.51251220703125
 42
0
  0
VERTEX
  8
0
 10
1393
 20
618.51251220703125
 42
-0
  0
VERTEX
  8
0
 10
1383
 20
628.51251220703125
 42
0
  0
VERTEX
  8
0
 10
1325
 20
628.51251220703125
 42
0
  0
VERTEX
  8
0
 10
1325
 20
463.51251220703125
 42
-0
  0
SEQEND
  0
POLYLINE
  8
0
 10
0
 20
0
 39
0
 70
1
 66
1
  0
VERTEX
  8
0
 10
1368
 20
590.01251220703125
 42
-1
  0
VERTEX
  8
0
 10
1368
 20
577.01251220703125
 42
-1
  0
SEQEND
  0
POLYLINE
  8
0
 10
0
 20
0
 39
0
 70
1
 66
1
  0
VERTEX
  8
0
 10
1325
 20
447
 42
0
  0
VERTEX
  8
0
 10
1325
 20
377
 42
-0
  0
VERTEX
  8
0
 10
1335
 20
367
 42
0
  0
VERTEX
  8
0
 10
1393
 20
367
 42
0
  0
VERTEX
  8
0
 10
1393
 20
532
 42
-0
  0
SEQEND
  0
POLYLINE
  8
0
 10
0
 20
0
 39
0
 70
1
 66
1
  0
VERTEX
  8
0
 10
1350
 20
405.5
 42
-1
  0
VERTEX
  8
0
 10
1350
 20
418.5
 42
-1
  0
SEQEND
  0
POLYLINE
  8
0
 10
0
 20
0
 39
0
 70
1
 66
1
  0
VERTEX
  8
0
 10
1975.9200439453125
 20
733.0250244140625
 42
0
  0
VERTEX
  8
0
 10
1975.9200439453125
 20
803.0250244140625
 42
-0
  0
VERTEX
  8
0
 10
1965.9200439453125
 20
813.0250244140625
 42
0
  0
VERTEX
  8
0
 10
1907.9200439453125
 20
813.0250244140625
 42
0
  0
VERTEX
  8
0
 10
1907.9200439453125
 20
648.0250244140625
 42
-0
  0
SEQEND
  0
POLYLINE
  8
0
 10
0
 20
0
 39
0
 70
1
 66
1
  0
VERTEX
  8
0
 10
1950.9200439453125
 20
774.5250244140625
 42
-1
  0
VERTEX
  8
0
 10
1950.9200439453125
 20
761.5250244140625
 42
-1
  0
SEQEND
  0
POLYLINE
  8
0
 10
0
 20
0
 39
0
 70
1
 66
1
  0
VERTEX
  8
0
 10
1907.9200439453125
 20
631.51251220703125
 42
0
  0
VERTEX
  8
0
 10
1907.9200439453125
 20
561.51251220703125
 42
-0
  0
VERTEX
  8
0
 10
1917.9200439453125
 20
551.51251220703125
 42
0
  0
VERTEX
  8
0
 10
1975.9200439453125
 20
551.51251220703125
 42
0
  0
VERTEX
  8
0
 10
1975.9200439453125
 20
716.51251220703125
 42
-0
  0
SEQEND
  0
POLYLINE
  8
0
 10
0
 20
0
 39
0
 70
1
 66
1
  0
VERTEX
  8
0
 10
1932.9200439453125
 20
590.01251220703125
 42
-1
  0
VERTEX
  8
0
 10
1932.9200439453125
 20
603.01251220703125
 42
-1
  0
SEQEND
  0
POLYLINE
  8
0
 10
0
 20
0
 39
0
 70
1
 66
1
  0
VERTEX
  8
0
 10
805
 20
280
 42
0
  0
VERTEX
  8
0
 10
805
 20
540
 42
0
  0
VERTEX
  8
0
 10
675
 20
540
 42
0
  0
VERTEX
  8
0
 10
675
 20
280
 42
0
  0
SEQEND
  0
POLYLINE
  8
0
 10
0
 20
0
 39
0
 70
1
 66
1
  0
VERTEX
  8
0
 10
731.5
 20
305
 42
-1
  0
VERTEX
  8
0
 10
748.5
 20
305
 42
-1
  0
SEQEND
  0
POLYLINE
  8
0
 10
0
 20
0
 39
0
 70
1
 66
1
  0
VERTEX
  8
0
 10
688
 20
335
 42
-1
  0
VERTEX
  8
0
 10
702
 20
335
 42
-1
  0
SEQEND
  0
POLYLINE
  8
0
 10
0
 20
0
 39
0
 70
1
 66
1
  0
VERTEX
  8
0
 10
778
 20
335
 42
-1
  0
VERTEX
  8
0
 10
792
 20
335
 42
-1
  0
SEQEND
  0
POLYLINE
  8
0
 10
0
 20
0
 39
0
 70
1
 66
1
  0
VERTEX
  8
0
 10
702
 20
510
 42
0
  0
VERTEX
  8
0
 10
702
 20
494
 42
-1
  0
VERTEX
  8
0
 10
688
 20
494
 42
-0
  0
VERTEX
  8
0
 10
688
 20
510
 42
-1
  0
SEQEND
  0
POLYLINE
  8
0
 10
0
 20
0
 39
0
 70
1
 66
1
  0
VERTEX
  8
0
 10
792
 20
510
 42
-0
  0
VERTEX
  8
0
 10
792
 20
494
 42
-1
  0
VERTEX
  8
0
 10
778
 20
494
 42
0
  0
VERTEX
  8
0
 10
778
 20
510
 42
-1
  0
SEQEND
  0
POLYLINE
  8
0
 10
0
 20
0
 39
0
 70
1
 66
1
  0
VERTEX
  8
0
 10
805
 20
10
 42
0
  0
VERTEX
  8
0
 10
805
 20
270
 42
0
  0
VERTEX
  8
0
 10
675
 20
270
 42
0
  0
VERTEX
  8
0
 10
675
 20
10
 42
0
  0
SEQEND
  0
POLYLINE
  8
0
 10
0
 20
0
 39
0
 70
1
 66
1
  0
VERTEX
  8
0
 10
731.5
 20
35
 42
-1
  0
VERTEX
  8
0
 10
748.5
 20
35
 42
-1
  0
SEQEND
  0
POLYLINE
  8
0
 10
0
 20
0
 39
0
 70
1
 66
1
  0
VERTEX
  8
0
 10
688
 20
65
 42
-1
  0
VERTEX
  8
0
 10
702
 20
65
 42
-1
  0
SEQEND
  0
POLYLINE
  8
0
 10
0
 20
0
 39
0
 70
1
 66
1
  0
VERTEX
  8
0
 10
778
 20
65
 42
-1
  0
VERTEX
  8
0
 10
792
 20
65
 42
-1
  0
SEQEND
  0
POLYLINE
  8
0
 10
0
 20
0
 39
0
 70
1
 66
1
  0
VERTEX
  8
0
 10
702
 20
240
 42
0
  0
VERTEX
  8
0
 10
702
 20
224
 42
-1
  0
VERTEX
  8
0
 10
688
 20
224
 42
-0
  0
VERTEX
  8
0
 10
688
 20
240
 42
-1
  0
SEQEND
  0
POLYLINE
  8
0
 10
0
 20
0
 39
0
 70
1
 66
1
  0
VERTEX
  8
0
 10
792
 20
240
 42
-0
  0
VERTEX
  8
0
 10
792
 20
224
 42
-1
  0
VERTEX
  8
0
 10
778
 20
224
 42
0
  0
VERTEX
  8
0
 10
778
 20
240
 42
-1
  0
SEQEND
  0
ENDSEC
  0
EOF
