  0
SECTION
  2
ENTITIES
  0
POLYLINE
  8
0
 10
0
 20
0
 39
0
 70
1
 66
1
  0
VERTEX
  8
0
 10
0
 20
0
 42
0
  0
VERTEX
  8
0
 10
1800
 20
0
 42
0
  0
VERTEX
  8
0
 10
1800
 20
900
 42
0
  0
VERTEX
  8
0
 10
0
 20
900
 42
0
  0
SEQEND
  0
POLYLINE
  8
0
 10
0
 20
0
 39
0
 70
1
 66
1
  0
VERTEX
  8
0
 10
1345.0000000000005
 20
699.0000039935112
 42
0
  0
VERTEX
  8
0
 10
1345.0000000000005
 20
590.0000039935112
 42
0
  0
VERTEX
  8
0
 10
1431.6708526611333
 20
590.0000039935112
 42
0
  0
VERTEX
  8
0
 10
1450.0000000000005
 20
608.20695894956589
 42
0
  0
VERTEX
  8
0
 10
1450.0000000000005
 20
680.79305094480515
 42
-0
  0
VERTEX
  8
0
 10
1431.6708526611333
 20
699.0000039935112
 42
-0
  0
SEQEND
  0
POLYLINE
  8
0
 10
0
 20
0
 39
0
 70
1
 66
1
  0
VERTEX
  8
0
 10
1368.348676681519
 20
689.46196192502975
 42
-1
  0
VERTEX
  8
0
 10
1368.348676681519
 20
665.46196001768112
 42
-1
  0
SEQEND
  0
POLYLINE
  8
0
 10
0
 20
0
 39
0
 70
1
 66
1
  0
VERTEX
  8
0
 10
1368.348676681519
 20
623.53804415464401
 42
-1
  0
VERTEX
  8
0
 10
1368.348676681519
 20
599.53804415464401
 42
-1
  0
SEQEND
  0
POLYLINE
  8
0
 10
0
 20
0
 39
0
 70
1
 66
1
  0
VERTEX
  8
0
 10
915.00000000000045
 20
540
 42
0
  0
VERTEX
  8
0
 10
1125.0000000000005
 20
540
 42
0
  0
VERTEX
  8
0
 10
1125.0000000000005
 20
750
 42
0
  0
VERTEX
  8
0
 10
915.00000000000045
 20
750
 42
0
  0
SEQEND
  0
POLYLINE
  8
0
 10
0
 20
0
 39
0
 70
1
 66
1
  0
VERTEX
  8
0
 10
965.00000000000045
 20
645
 42
-1
  0
VERTEX
  8
0
 10
1075.0000000000005
 20
645
 42
-1
  0
SEQEND
  0
POLYLINE
  8
0
 10
0
 20
0
 39
0
 70
1
 66
1
  0
VERTEX
  8
0
 10
605.00000000000045
 20
10
 42
0
  0
VERTEX
  8
0
 10
805.00000000000045
 20
10
 42
-0
  0
VERTEX
  8
0
 10
805.00000000000045
 20
158.96781921386719
 42
-0
  0
VERTEX
  8
0
 10
702.06732940673874
 20
240
 42
-0
  0
VERTEX
  8
0
 10
605.00000000000045
 20
240
 42
-0
  0
SEQEND
  0
POLYLINE
  8
0
 10
0
 20
0
 39
0
 70
1
 66
1
  0
VERTEX
  8
0
 10
670.49187469482467
 20
183.78579711914063
 42
0
  0
VERTEX
  8
0
 10
739.5081176757817
 20
129.45381164550781
 42
-0
  0
VERTEX
  8
0
 10
739.5081176757817
 20
51.453807830810547
 42
-0
  0
VERTEX
  8
0
 10
670.49187469482467
 20
105.78580474853516
 42
-0
  0
SEQEND
  0
POLYLINE
  8
0
 10
0
 20
0
 39
0
 70
1
 66
1
  0
VERTEX
  8
0
 10
10
 20
489.0000039935112
 42
0
  0
VERTEX
  8
0
 10
10.000000000000007
 20
380.0000039935112
 42
0
  0
VERTEX
  8
0
 10
96.670852661132813
 20
380.0000039935112
 42
0
  0
VERTEX
  8
0
 10
115
 20
398.20695894956589
 42
0
  0
VERTEX
  8
0
 10
115
 20
470.79305094480515
 42
-0
  0
VERTEX
  8
0
 10
96.670852661132813
 20
489.0000039935112
 42
-0
  0
SEQEND
  0
POLYLINE
  8
0
 10
0
 20
0
 39
0
 70
1
 66
1
  0
VERTEX
  8
0
 10
33.348676681518555
 20
479.46196192502975
 42
-1
  0
VERTEX
  8
0
 10
33.348676681518555
 20
455.46196001768112
 42
-1
  0
SEQEND
  0
POLYLINE
  8
0
 10
0
 20
0
 39
0
 70
1
 66
1
  0
VERTEX
  8
0
 10
33.348676681518555
 20
413.53804415464401
 42
-1
  0
VERTEX
  8
0
 10
33.348676681518562
 20
389.53804415464401
 42
-1
  0
SEQEND
  0
POLYLINE
  8
0
 10
0
 20
0
 39
0
 70
1
 66
1
  0
VERTEX
  8
0
 10
1767.0000000000009
 20
10
 42
0
  0
VERTEX
  8
0
 10
1767.0000000000009
 20
184
 42
0
  0
VERTEX
  8
0
 10
1683.0000000000009
 20
184
 42
-0.41421356797218323
  0
VERTEX
  8
0
 10
1671.0000000000009
 20
172
 42
0
  0
VERTEX
  8
0
 10
1671.0000000000009
 20
22
 42
-0.41421356797218323
  0
VERTEX
  8
0
 10
1683.0000000000009
 20
10
 42
0
  0
SEQEND
  0
POLYLINE
  8
0
 10
0
 20
0
 39
0
 70
1
 66
1
  0
VERTEX
  8
0
 10
1706.5000000000009
 20
97
 42
-1
  0
VERTEX
  8
0
 10
1731.5000000000009
 20
97
 42
-1
  0
SEQEND
  0
POLYLINE
  8
0
 10
0
 20
0
 39
0
 70
1
 66
1
  0
VERTEX
  8
0
 10
1661.0000000000009
 20
170
 42
0
  0
VERTEX
  8
0
 10
1661.0000000000009
 20
344
 42
0
  0
VERTEX
  8
0
 10
1577.0000000000009
 20
344
 42
-0.41421356797218323
  0
VERTEX
  8
0
 10
1565.0000000000009
 20
332
 42
0
  0
VERTEX
  8
0
 10
1565.0000000000009
 20
182
 42
-0.41421356797218323
  0
VERTEX
  8
0
 10
1577.0000000000009
 20
170
 42
0
  0
SEQEND
  0
POLYLINE
  8
0
 10
0
 20
0
 39
0
 70
1
 66
1
  0
VERTEX
  8
0
 10
1600.5000000000009
 20
257
 42
-1
  0
VERTEX
  8
0
 10
1625.5000000000009
 20
257
 42
-1
  0
SEQEND
  0
POLYLINE
  8
0
 10
0
 20
0
 39
0
 70
1
 66
1
  0
VERTEX
  8
0
 10
1620.0000000000005
 20
10
 42
0
  0
VERTEX
  8
0
 10
1620.0000000000005
 20
160
 42
0
  0
VERTEX
  8
0
 10
1495.0000000000005
 20
160
 42
0
  0
VERTEX
  8
0
 10
1495.0000000000005
 20
10
 42
0
  0
SEQEND
  0
POLYLINE
  8
0
 10
0
 20
0
 39
0
 70
1
 66
1
  0
VERTEX
  8
0
 10
1565.0000000000005
 20
135
 42
-1
  0
VERTEX
  8
0
 10
1565.0000000000005
 20
115
 42
-1
  0
SEQEND
  0
POLYLINE
  8
0
 10
0
 20
0
 39
0
 70
1
 66
1
  0
VERTEX
  8
0
 10
1565.0000000000005
 20
55
 42
-1
  0
VERTEX
  8
0
 10
1565.0000000000005
 20
35
 42
-1
  0
SEQEND
  0
POLYLINE
  8
0
 10
0
 20
0
 39
0
 70
1
 66
1
  0
VERTEX
  8
0
 10
1655.0000000000005
 20
696.0000039935112
 42
0
  0
VERTEX
  8
0
 10
1655.0000000000005
 20
870.0000039935112
 42
0
  0
VERTEX
  8
0
 10
1571.0000000000005
 20
870.0000039935112
 42
-0.41421356797218323
  0
VERTEX
  8
0
 10
1559.0000000000005
 20
858.0000039935112
 42
0
  0
VERTEX
  8
0
 10
1559.0000000000005
 20
708.0000039935112
 42
-0.41421356797218323
  0
VERTEX
  8
0
 10
1571.0000000000005
 20
696.0000039935112
 42
0
  0
SEQEND
  0
POLYLINE
  8
0
 10
0
 20
0
 39
0
 70
1
 66
1
  0
VERTEX
  8
0
 10
1594.5000000000005
 20
783.0000039935112
 42
-1
  0
VERTEX
  8
0
 10
1619.5000000000005
 20
783.0000039935112
 42
-1
  0
SEQEND
  0
POLYLINE
  8
0
 10
0
 20
0
 39
0
 70
1
 66
1
  0
VERTEX
  8
0
 10
1035.0000000000005
 20
10
 42
0
  0
VERTEX
  8
0
 10
1245.0000000000005
 20
10
 42
0
  0
VERTEX
  8
0
 10
1245.0000000000005
 20
220
 42
0
  0
VERTEX
  8
0
 10
1035.0000000000005
 20
220
 42
0
  0
SEQEND
  0
POLYLINE
  8
0
 10
0
 20
0
 39
0
 70
1
 66
1
  0
VERTEX
  8
0
 10
1085.0000000000005
 20
115
 42
-1
  0
VERTEX
  8
0
 10
1195.0000000000005
 20
115
 42
-1
  0
SEQEND
  0
POLYLINE
  8
0
 10
0
 20
0
 39
0
 70
1
 66
1
  0
VERTEX
  8
0
 10
1549.0000000000005
 20
709.0000039935112
 42
0
  0
VERTEX
  8
0
 10
1549.0000000000005
 20
883.0000039935112
 42
0
  0
VERTEX
  8
0
 10
1465.0000000000005
 20
883.0000039935112
 42
-0.41421356797218323
  0
VERTEX
  8
0
 10
1453.0000000000005
 20
871.0000039935112
 42
0
  0
VERTEX
  8
0
 10
1453.0000000000005
 20
721.0000039935112
 42
-0.41421356797218323
  0
VERTEX
  8
0
 10
1465.0000000000005
 20
709.0000039935112
 42
0
  0
SEQEND
  0
POLYLINE
  8
0
 10
0
 20
0
 39
0
 70
1
 66
1
  0
VERTEX
  8
0
 10
1488.5000000000005
 20
796.0000039935112
 42
-1
  0
VERTEX
  8
0
 10
1513.5000000000005
 20
796.0000039935112
 42
-1
  0
SEQEND
  0
POLYLINE
  8
0
 10
0
 20
0
 39
0
 70
1
 66
1
  0
VERTEX
  8
0
 10
1761.0000000000005
 20
574
 42
0
  0
VERTEX
  8
0
 10
1761.0000000000005
 20
748
 42
0
  0
VERTEX
  8
0
 10
1677.0000000000005
 20
748
 42
-0.41421356797218323
  0
VERTEX
  8
0
 10
1665.0000000000005
 20
736
 42
0
  0
VERTEX
  8
0
 10
1665.0000000000005
 20
586
 42
-0.41421356797218323
  0
VERTEX
  8
0
 10
1677.0000000000005
 20
574
 42
0
  0
SEQEND
  0
POLYLINE
  8
0
 10
0
 20
0
 39
0
 70
1
 66
1
  0
VERTEX
  8
0
 10
1700.5000000000005
 20
661
 42
-1
  0
VERTEX
  8
0
 10
1725.5000000000005
 20
661
 42
-1
  0
SEQEND
  0
POLYLINE
  8
0
 10
0
 20
0
 39
0
 70
1
 66
1
  0
VERTEX
  8
0
 10
815.00000000000045
 20
10
 42
0
  0
VERTEX
  8
0
 10
1025.0000000000005
 20
10
 42
0
  0
VERTEX
  8
0
 10
1025.0000000000005
 20
220
 42
0
  0
VERTEX
  8
0
 10
815.00000000000045
 20
220
 42
0
  0
SEQEND
  0
POLYLINE
  8
0
 10
0
 20
0
 39
0
 70
1
 66
1
  0
VERTEX
  8
0
 10
865.00000000000045
 20
115
 42
-1
  0
VERTEX
  8
0
 10
975.00000000000045
 20
115
 42
-1
  0
SEQEND
  0
POLYLINE
  8
0
 10
0
 20
0
 39
0
 70
1
 66
1
  0
VERTEX
  8
0
 10
1443.0000000000005
 20
709.0000039935112
 42
0
  0
VERTEX
  8
0
 10
1443.0000000000005
 20
883.0000039935112
 42
0
  0
VERTEX
  8
0
 10
1359.0000000000005
 20
883.0000039935112
 42
-0.41421356797218323
  0
VERTEX
  8
0
 10
1347.0000000000005
 20
871.0000039935112
 42
0
  0
VERTEX
  8
0
 10
1347.0000000000005
 20
721.0000039935112
 42
-0.41421356797218323
  0
VERTEX
  8
0
 10
1359.0000000000005
 20
709.0000039935112
 42
0
  0
SEQEND
  0
POLYLINE
  8
0
 10
0
 20
0
 39
0
 70
1
 66
1
  0
VERTEX
  8
0
 10
1382.5000000000005
 20
796.0000039935112
 42
-1
  0
VERTEX
  8
0
 10
1407.5000000000005
 20
796.0000039935112
 42
-1
  0
SEQEND
  0
POLYLINE
  8
0
 10
0
 20
0
 39
0
 70
1
 66
1
  0
VERTEX
  8
0
 10
110.00000000000017
 20
851.91617253422737
 42
0.14167670905590057
  0
VERTEX
  8
0
 10
10
 20
851.91617253422737
 42
-0
  0
VERTEX
  8
0
 10
10.000000000000185
 20
506.08383944630623
 42
0.14167670905590057
  0
VERTEX
  8
0
 10
110.0000000000002
 20
506.08383944630623
 42
-0
  0
SEQEND
  0
POLYLINE
  8
0
 10
0
 20
0
 39
0
 70
1
 66
1
  0
VERTEX
  8
0
 10
60.000000000000163
 20
848.66392138600349
 42
-1
  0
VERTEX
  8
0
 10
60.000000000000163
 20
816.66392138600349
 42
-1
  0
SEQEND
  0
POLYLINE
  8
0
 10
0
 20
0
 39
0
 70
1
 66
1
  0
VERTEX
  8
0
 10
60.000000000000185
 20
538.17749789357185
 42
-1
  0
VERTEX
  8
0
 10
60.000000000000185
 20
506.17749789357185
 42
-1
  0
SEQEND
  0
POLYLINE
  8
0
 10
0
 20
0
 39
0
 70
1
 66
1
  0
VERTEX
  8
0
 10
1337.0000000000005
 20
710
 42
0
  0
VERTEX
  8
0
 10
1337.0000000000005
 20
884
 42
0
  0
VERTEX
  8
0
 10
1253.0000000000005
 20
884
 42
-0.41421356797218323
  0
VERTEX
  8
0
 10
1241.0000000000005
 20
872
 42
0
  0
VERTEX
  8
0
 10
1241.0000000000005
 20
722
 42
-0.41421356797218323
  0
VERTEX
  8
0
 10
1253.0000000000005
 20
710
 42
0
  0
SEQEND
  0
POLYLINE
  8
0
 10
0
 20
0
 39
0
 70
1
 66
1
  0
VERTEX
  8
0
 10
1276.5000000000005
 20
797
 42
-1
  0
VERTEX
  8
0
 10
1301.5000000000005
 20
797
 42
-1
  0
SEQEND
  0
POLYLINE
  8
0
 10
0
 20
0
 39
0
 70
1
 66
1
  0
VERTEX
  8
0
 10
1065.0000000000005
 20
885
 42
0
  0
VERTEX
  8
0
 10
915.00000000000045
 20
885
 42
0
  0
VERTEX
  8
0
 10
915.00000000000045
 20
760
 42
0
  0
VERTEX
  8
0
 10
1065.0000000000005
 20
760
 42
0
  0
SEQEND
  0
POLYLINE
  8
0
 10
0
 20
0
 39
0
 70
1
 66
1
  0
VERTEX
  8
0
 10
940.00000000000045
 20
830
 42
-1
  0
VERTEX
  8
0
 10
960.00000000000045
 20
830
 42
-1
  0
SEQEND
  0
POLYLINE
  8
0
 10
0
 20
0
 39
0
 70
1
 66
1
  0
VERTEX
  8
0
 10
1020.0000000000005
 20
830
 42
-1
  0
VERTEX
  8
0
 10
1040.0000000000005
 20
830
 42
-1
  0
SEQEND
  0
POLYLINE
  8
0
 10
0
 20
0
 39
0
 70
1
 66
1
  0
VERTEX
  8
0
 10
330.00000000000051
 20
362.91616854071617
 42
0.14167670905590057
  0
VERTEX
  8
0
 10
230.00000000000034
 20
362.91616854071617
 42
-0
  0
VERTEX
  8
0
 10
230.00000000000054
 20
17.083835452795029
 42
0.14167670905590057
  0
VERTEX
  8
0
 10
330.00000000000057
 20
17.083835452795029
 42
-0
  0
SEQEND
  0
POLYLINE
  8
0
 10
0
 20
0
 39
0
 70
1
 66
1
  0
VERTEX
  8
0
 10
280.00000000000051
 20
359.66391739249229
 42
-1
  0
VERTEX
  8
0
 10
280.00000000000051
 20
327.66391739249229
 42
-1
  0
SEQEND
  0
POLYLINE
  8
0
 10
0
 20
0
 39
0
 70
1
 66
1
  0
VERTEX
  8
0
 10
280.00000000000051
 20
49.177493900060654
 42
-1
  0
VERTEX
  8
0
 10
280.00000000000051
 20
17.177493900060654
 42
-1
  0
SEQEND
  0
POLYLINE
  8
0
 10
0
 20
0
 39
0
 70
1
 66
1
  0
VERTEX
  8
0
 10
1231.0000000000005
 20
710
 42
0
  0
VERTEX
  8
0
 10
1231.0000000000005
 20
884
 42
0
  0
VERTEX
  8
0
 10
1147.0000000000005
 20
884
 42
-0.41421356797218323
  0
VERTEX
  8
0
 10
1135.0000000000005
 20
872
 42
0
  0
VERTEX
  8
0
 10
1135.0000000000005
 20
722
 42
-0.41421356797218323
  0
VERTEX
  8
0
 10
1147.0000000000005
 20
710
 42
0
  0
SEQEND
  0
POLYLINE
  8
0
 10
0
 20
0
 39
0
 70
1
 66
1
  0
VERTEX
  8
0
 10
1170.5000000000005
 20
797
 42
-1
  0
VERTEX
  8
0
 10
1195.5000000000005
 20
797
 42
-1
  0
SEQEND
  0
POLYLINE
  8
0
 10
0
 20
0
 39
0
 70
1
 66
1
  0
VERTEX
  8
0
 10
1460.0000000000005
 20
590.0000039935112
 42
0
  0
VERTEX
  8
0
 10
1634.0000000000005
 20
590.0000039935112
 42
0
  0
VERTEX
  8
0
 10
1634.0000000000005
 20
674.0000039935112
 42
-0.41421356797218323
  0
VERTEX
  8
0
 10
1622.0000000000005
 20
686.0000039935112
 42
0
  0
VERTEX
  8
0
 10
1472.0000000000005
 20
686.0000039935112
 42
-0.41421356797218323
  0
VERTEX
  8
0
 10
1460.0000000000005
 20
674.0000039935112
 42
0
  0
SEQEND
  0
POLYLINE
  8
0
 10
0
 20
0
 39
0
 70
1
 66
1
  0
VERTEX
  8
0
 10
1547.0000000000005
 20
650.5000039935112
 42
-1
  0
VERTEX
  8
0
 10
1547.0000000000005
 20
625.5000039935112
 42
-1
  0
SEQEND
  0
POLYLINE
  8
0
 10
0
 20
0
 39
0
 70
1
 66
1
  0
VERTEX
  8
0
 10
220.00000000000034
 20
851.91617253422737
 42
0.14167670905590057
  0
VERTEX
  8
0
 10
120.00000000000017
 20
851.91617253422737
 42
-0
  0
VERTEX
  8
0
 10
120.00000000000036
 20
506.08383944630623
 42
0.14167670905590057
  0
VERTEX
  8
0
 10
220.00000000000034
 20
506.08383944630623
 42
-0
  0
SEQEND
  0
POLYLINE
  8
0
 10
0
 20
0
 39
0
 70
1
 66
1
  0
VERTEX
  8
0
 10
170.00000000000034
 20
848.66392138600349
 42
-1
  0
VERTEX
  8
0
 10
170.00000000000034
 20
816.66392138600349
 42
-1
  0
SEQEND
  0
POLYLINE
  8
0
 10
0
 20
0
 39
0
 70
1
 66
1
  0
VERTEX
  8
0
 10
170.00000000000034
 20
538.17749789357185
 42
-1
  0
VERTEX
  8
0
 10
170.00000000000034
 20
506.17749789357185
 42
-1
  0
SEQEND
  0
POLYLINE
  8
0
 10
0
 20
0
 39
0
 70
1
 66
1
  0
VERTEX
  8
0
 10
125
 20
380.0000039935112
 42
0
  0
VERTEX
  8
0
 10
299
 20
380.0000039935112
 42
0
  0
VERTEX
  8
0
 10
299
 20
464.0000039935112
 42
-0.41421356797218323
  0
VERTEX
  8
0
 10
287
 20
476.0000039935112
 42
0
  0
VERTEX
  8
0
 10
137
 20
476.0000039935112
 42
-0.41421356797218323
  0
VERTEX
  8
0
 10
125
 20
464.0000039935112
 42
0
  0
SEQEND
  0
POLYLINE
  8
0
 10
0
 20
0
 39
0
 70
1
 66
1
  0
VERTEX
  8
0
 10
212
 20
440.5000039935112
 42
-1
  0
VERTEX
  8
0
 10
212
 20
415.5000039935112
 42
-1
  0
SEQEND
  0
POLYLINE
  8
0
 10
0
 20
0
 39
0
 70
1
 66
1
  0
VERTEX
  8
0
 10
1565.0000000000009
 20
354
 42
0
  0
VERTEX
  8
0
 10
1775.0000000000009
 20
354
 42
0
  0
VERTEX
  8
0
 10
1775.0000000000009
 20
564
 42
0
  0
VERTEX
  8
0
 10
1565.0000000000009
 20
564
 42
0
  0
SEQEND
  0
POLYLINE
  8
0
 10
0
 20
0
 39
0
 70
1
 66
1
  0
VERTEX
  8
0
 10
1615.0000000000009
 20
459
 42
-1
  0
VERTEX
  8
0
 10
1725.0000000000009
 20
459
 42
-1
  0
SEQEND
  0
POLYLINE
  8
0
 10
0
 20
0
 39
0
 70
1
 66
1
  0
VERTEX
  8
0
 10
220.00000000000034
 20
362.91616854071617
 42
0.14167670905590057
  0
VERTEX
  8
0
 10
120.00000000000017
 20
362.91616854071617
 42
-0
  0
VERTEX
  8
0
 10
120.00000000000036
 20
17.083835452795029
 42
0.14167670905590057
  0
VERTEX
  8
0
 10
220.00000000000034
 20
17.083835452795029
 42
-0
  0
SEQEND
  0
POLYLINE
  8
0
 10
0
 20
0
 39
0
 70
1
 66
1
  0
VERTEX
  8
0
 10
170.00000000000034
 20
359.66391739249229
 42
-1
  0
VERTEX
  8
0
 10
170.00000000000034
 20
327.66391739249229
 42
-1
  0
SEQEND
  0
POLYLINE
  8
0
 10
0
 20
0
 39
0
 70
1
 66
1
  0
VERTEX
  8
0
 10
170.00000000000034
 20
49.177493900060654
 42
-1
  0
VERTEX
  8
0
 10
170.00000000000034
 20
17.177493900060654
 42
-1
  0
SEQEND
  0
POLYLINE
  8
0
 10
0
 20
0
 39
0
 70
1
 66
1
  0
VERTEX
  8
0
 10
1445.0000000000007
 20
572.91616854071617
 42
0.14167670905590057
  0
VERTEX
  8
0
 10
1345.0000000000005
 20
572.91616854071617
 42
-0
  0
VERTEX
  8
0
 10
1345.0000000000007
 20
227.08383545279503
 42
0.14167670905590057
  0
VERTEX
  8
0
 10
1445.0000000000007
 20
227.08383545279503
 42
-0
  0
SEQEND
  0
POLYLINE
  8
0
 10
0
 20
0
 39
0
 70
1
 66
1
  0
VERTEX
  8
0
 10
1395.0000000000007
 20
569.66391739249229
 42
-1
  0
VERTEX
  8
0
 10
1395.0000000000007
 20
537.66391739249229
 42
-1
  0
SEQEND
  0
POLYLINE
  8
0
 10
0
 20
0
 39
0
 70
1
 66
1
  0
VERTEX
  8
0
 10
1395.0000000000007
 20
259.17749390006065
 42
-1
  0
VERTEX
  8
0
 10
1395.0000000000007
 20
227.17749390006065
 42
-1
  0
SEQEND
  0
POLYLINE
  8
0
 10
0
 20
0
 39
0
 70
1
 66
1
  0
VERTEX
  8
0
 10
1555.0000000000009
 20
572.91616854071617
 42
0.14167670905590057
  0
VERTEX
  8
0
 10
1455.0000000000007
 20
572.91616854071617
 42
-0
  0
VERTEX
  8
0
 10
1455.0000000000009
 20
227.08383545279503
 42
0.14167670905590057
  0
VERTEX
  8
0
 10
1555.0000000000009
 20
227.08383545279503
 42
-0
  0
SEQEND
  0
POLYLINE
  8
0
 10
0
 20
0
 39
0
 70
1
 66
1
  0
VERTEX
  8
0
 10
1505.0000000000009
 20
569.66391739249229
 42
-1
  0
VERTEX
  8
0
 10
1505.0000000000009
 20
537.66391739249229
 42
-1
  0
SEQEND
  0
POLYLINE
  8
0
 10
0
 20
0
 39
0
 70
1
 66
1
  0
VERTEX
  8
0
 10
1505.0000000000009
 20
259.17749390006065
 42
-1
  0
VERTEX
  8
0
 10
1505.0000000000009
 20
227.17749390006065
 42
-1
  0
SEQEND
  0
POLYLINE
  8
0
 10
0
 20
0
 39
0
 70
1
 66
1
  0
VERTEX
  8
0
 10
110.00000000000017
 20
362.91616854071617
 42
0.14167670905590057
  0
VERTEX
  8
0
 10
10
 20
362.91616854071617
 42
-0
  0
VERTEX
  8
0
 10
10.000000000000185
 20
17.083835452795029
 42
0.14167670905590057
  0
VERTEX
  8
0
 10
110.0000000000002
 20
17.083835452795029
 42
-0
  0
SEQEND
  0
POLYLINE
  8
0
 10
0
 20
0
 39
0
 70
1
 66
1
  0
VERTEX
  8
0
 10
60.000000000000163
 20
359.66391739249229
 42
-1
  0
VERTEX
  8
0
 10
60.000000000000163
 20
327.66391739249229
 42
-1
  0
SEQEND
  0
POLYLINE
  8
0
 10
0
 20
0
 39
0
 70
1
 66
1
  0
VERTEX
  8
0
 10
60.000000000000185
 20
49.177493900060654
 42
-1
  0
VERTEX
  8
0
 10
60.000000000000185
 20
17.177493900060654
 42
-1
  0
SEQEND
  0
POLYLINE
  8
0
 10
0
 20
0
 39
0
 70
1
 66
1
  0
VERTEX
  8
0
 10
330.00000000000051
 20
838.91617253422737
 42
0.14167670905590057
  0
VERTEX
  8
0
 10
230.00000000000034
 20
838.91617253422737
 42
-0
  0
VERTEX
  8
0
 10
230.00000000000054
 20
493.08383944630623
 42
0.14167670905590057
  0
VERTEX
  8
0
 10
330.00000000000057
 20
493.08383944630623
 42
-0
  0
SEQEND
  0
POLYLINE
  8
0
 10
0
 20
0
 39
0
 70
1
 66
1
  0
VERTEX
  8
0
 10
280.00000000000051
 20
835.66392138600349
 42
-1
  0
VERTEX
  8
0
 10
280.00000000000051
 20
803.66392138600349
 42
-1
  0
SEQEND
  0
POLYLINE
  8
0
 10
0
 20
0
 39
0
 70
1
 66
1
  0
VERTEX
  8
0
 10
280.00000000000051
 20
525.17749789357185
 42
-1
  0
VERTEX
  8
0
 10
280.00000000000051
 20
493.17749789357185
 42
-1
  0
SEQEND
  0
POLYLINE
  8
0
 10
0
 20
0
 39
0
 70
1
 66
1
  0
VERTEX
  8
0
 10
1255.0000000000005
 20
210
 42
0
  0
VERTEX
  8
0
 10
1255.0000000000005
 20
10
 42
-0
  0
VERTEX
  8
0
 10
1403.9678192138676
 20
10
 42
-0
  0
VERTEX
  8
0
 10
1485.0000000000005
 20
112.93267059326173
 42
-0
  0
VERTEX
  8
0
 10
1485.0000000000005
 20
210
 42
-0
  0
SEQEND
  0
POLYLINE
  8
0
 10
0
 20
0
 39
0
 70
1
 66
1
  0
VERTEX
  8
0
 10
1428.7857971191411
 20
144.50812530517578
 42
0
  0
VERTEX
  8
0
 10
1374.4538116455083
 20
75.49188232421875
 42
-0
  0
VERTEX
  8
0
 10
1296.453807830811
 20
75.49188232421875
 42
-0
  0
VERTEX
  8
0
 10
1350.7858047485356
 20
144.50812530517578
 42
-0
  0
SEQEND
  0
POLYLINE
  8
0
 10
0
 20
0
 39
0
 70
1
 66
1
  0
VERTEX
  8
0
 10
1135.0000000000005
 20
230
 42
0
  0
VERTEX
  8
0
 10
1335.0000000000005
 20
230
 42
-0
  0
VERTEX
  8
0
 10
1335.0000000000005
 20
378.96781921386719
 42
-0
  0
VERTEX
  8
0
 10
1232.0673294067387
 20
460
 42
-0
  0
VERTEX
  8
0
 10
1135.0000000000005
 20
460
 42
-0
  0
SEQEND
  0
POLYLINE
  8
0
 10
0
 20
0
 39
0
 70
1
 66
1
  0
VERTEX
  8
0
 10
1200.4918746948247
 20
403.78579711914062
 42
0
  0
VERTEX
  8
0
 10
1269.5081176757817
 20
349.45381164550781
 42
-0
  0
VERTEX
  8
0
 10
1269.5081176757817
 20
271.45380783081055
 42
-0
  0
VERTEX
  8
0
 10
1200.4918746948247
 20
325.78580474853516
 42
-0
  0
SEQEND
  0
POLYLINE
  8
0
 10
0
 20
0
 39
0
 70
1
 66
1
  0
VERTEX
  8
0
 10
1135.0000000000005
 20
470
 42
0
  0
VERTEX
  8
0
 10
1335.0000000000005
 20
470
 42
-0
  0
VERTEX
  8
0
 10
1335.0000000000005
 20
618.96781921386719
 42
-0
  0
VERTEX
  8
0
 10
1232.0673294067387
 20
700
 42
-0
  0
VERTEX
  8
0
 10
1135.0000000000005
 20
700
 42
-0
  0
SEQEND
  0
POLYLINE
  8
0
 10
0
 20
0
 39
0
 70
1
 66
1
  0
VERTEX
  8
0
 10
1200.4918746948247
 20
643.78579711914063
 42
0
  0
VERTEX
  8
0
 10
1269.5081176757817
 20
589.45381164550781
 42
-0
  0
VERTEX
  8
0
 10
1269.5081176757817
 20
511.45380783081055
 42
-0
  0
VERTEX
  8
0
 10
1200.4918746948247
 20
565.78580474853516
 42
-0
  0
SEQEND
  0
POLYLINE
  8
0
 10
0
 20
0
 39
0
 70
1
 66
1
  0
VERTEX
  8
0
 10
1671.0000000000009
 20
194
 42
0
  0
VERTEX
  8
0
 10
1761.0000000000009
 20
194
 42
-0
  0
VERTEX
  8
0
 10
1761.0000000000009
 20
294
 42
-0
  0
VERTEX
  8
0
 10
1731.0000000000009
 20
294
 42
-0
  0
VERTEX
  8
0
 10
1731.0000000000009
 20
285.61192321777344
 42
-0
  0
VERTEX
  8
0
 10
1701.0000000000009
 20
285.61192321777344
 42
-0
  0
VERTEX
  8
0
 10
1701.0000000000009
 20
294
 42
-0
  0
VERTEX
  8
0
 10
1671.0000000000009
 20
294
 42
-0
  0
SEQEND
  0
POLYLINE
  8
0
 10
0
 20
0
 39
0
 70
1
 66
1
  0
VERTEX
  8
0
 10
1701.0000000000009
 20
268.5
 42
0
  0
VERTEX
  8
0
 10
1731.0000000000009
 20
268.5
 42
0
  0
VERTEX
  8
0
 10
1731.0000000000009
 20
219.5
 42
0
  0
VERTEX
  8
0
 10
1701.0000000000009
 20
219.5
 42
0
  0
SEQEND
  0
POLYLINE
  8
0
 10
0
 20
0
 39
0
 70
1
 66
1
  0
VERTEX
  8
0
 10
1665.0000000000005
 20
758
 42
0
  0
VERTEX
  8
0
 10
1755.0000000000005
 20
758
 42
-0
  0
VERTEX
  8
0
 10
1755.0000000000005
 20
858
 42
-0
  0
VERTEX
  8
0
 10
1725.0000000000005
 20
858
 42
-0
  0
VERTEX
  8
0
 10
1725.0000000000005
 20
849.61192321777344
 42
-0
  0
VERTEX
  8
0
 10
1695.0000000000005
 20
849.61192321777344
 42
-0
  0
VERTEX
  8
0
 10
1695.0000000000005
 20
858
 42
-0
  0
VERTEX
  8
0
 10
1665.0000000000005
 20
858
 42
-0
  0
SEQEND
  0
POLYLINE
  8
0
 10
0
 20
0
 39
0
 70
1
 66
1
  0
VERTEX
  8
0
 10
1695.0000000000005
 20
832.5
 42
0
  0
VERTEX
  8
0
 10
1725.0000000000005
 20
832.5
 42
0
  0
VERTEX
  8
0
 10
1725.0000000000005
 20
783.5
 42
0
  0
VERTEX
  8
0
 10
1695.0000000000005
 20
783.5
 42
0
  0
SEQEND
  0
POLYLINE
  8
0
 10
0
 20
0
 39
0
 70
1
 66
1
  0
VERTEX
  8
0
 10
650.00000000000045
 20
860
 42
0
  0
VERTEX
  8
0
 10
650.00000000000045
 20
560
 42
0
  0
VERTEX
  8
0
 10
848.44471740722702
 20
560
 42
0
  0
VERTEX
  8
0
 10
848.44471740722702
 20
679.12667846679687
 42
-0
  0
VERTEX
  8
0
 10
905.00000000000045
 20
706.49212646484375
 42
0
  0
VERTEX
  8
0
 10
905.00000000000045
 20
860
 42
-0
  0
SEQEND
  0
POLYLINE
  8
0
 10
0
 20
0
 39
0
 70
1
 66
1
  0
VERTEX
  8
0
 10
876.7223510742192
 20
756.64584350585937
 42
-1
  0
VERTEX
  8
0
 10
876.7223510742192
 20
722.64584350585937
 42
-1
  0
SEQEND
  0
POLYLINE
  8
0
 10
0
 20
0
 39
0
 70
1
 66
1
  0
VERTEX
  8
0
 10
340.00000000000045
 20
630
 42
0
  0
VERTEX
  8
0
 10
640.00000000000045
 20
630
 42
0
  0
VERTEX
  8
0
 10
640.00000000000045
 20
828.44471740722656
 42
0
  0
VERTEX
  8
0
 10
520.87332153320358
 20
828.44471740722656
 42
-0
  0
VERTEX
  8
0
 10
493.5078735351567
 20
885
 42
0
  0
VERTEX
  8
0
 10
340.00000000000045
 20
885
 42
-0
  0
SEQEND
  0
POLYLINE
  8
0
 10
0
 20
0
 39
0
 70
1
 66
1
  0
VERTEX
  8
0
 10
443.35415649414108
 20
856.72235107421875
 42
-1
  0
VERTEX
  8
0
 10
477.35415649414108
 20
856.72235107421875
 42
-1
  0
SEQEND
  0
POLYLINE
  8
0
 10
0
 20
0
 39
0
 70
1
 66
1
  0
VERTEX
  8
0
 10
605.00000000000045
 20
550
 42
0
  0
VERTEX
  8
0
 10
605.00000000000045
 20
250
 42
0
  0
VERTEX
  8
0
 10
803.44471740722702
 20
250
 42
0
  0
VERTEX
  8
0
 10
803.44471740722702
 20
369.12667846679688
 42
-0
  0
VERTEX
  8
0
 10
860.00000000000045
 20
396.49212646484375
 42
0
  0
VERTEX
  8
0
 10
860.00000000000045
 20
550
 42
-0
  0
SEQEND
  0
POLYLINE
  8
0
 10
0
 20
0
 39
0
 70
1
 66
1
  0
VERTEX
  8
0
 10
831.7223510742192
 20
446.64584350585937
 42
-1
  0
VERTEX
  8
0
 10
831.7223510742192
 20
412.64584350585937
 42
-1
  0
SEQEND
  0
POLYLINE
  8
0
 10
0
 20
0
 39
0
 70
1
 66
1
  0
VERTEX
  8
0
 10
340.00000000000045
 20
310
 42
0
  0
VERTEX
  8
0
 10
340.00000000000045
 20
10
 42
0
  0
VERTEX
  8
0
 10
538.44471740722702
 20
10
 42
0
  0
VERTEX
  8
0
 10
538.44471740722702
 20
129.12667846679687
 42
-0
  0
VERTEX
  8
0
 10
595.00000000000045
 20
156.49212646484378
 42
0
  0
VERTEX
  8
0
 10
595.00000000000045
 20
310
 42
-0
  0
SEQEND
  0
POLYLINE
  8
0
 10
0
 20
0
 39
0
 70
1
 66
1
  0
VERTEX
  8
0
 10
566.7223510742192
 20
206.64584350585937
 42
-1
  0
VERTEX
  8
0
 10
566.7223510742192
 20
172.64584350585937
 42
-1
  0
SEQEND
  0
POLYLINE
  8
0
 10
0
 20
0
 39
0
 70
1
 66
1
  0
VERTEX
  8
0
 10
870.00000000000045
 20
530
 42
0
  0
VERTEX
  8
0
 10
870.00000000000045
 20
230
 42
0
  0
VERTEX
  8
0
 10
1068.444717407227
 20
230
 42
0
  0
VERTEX
  8
0
 10
1068.444717407227
 20
349.12667846679688
 42
-0
  0
VERTEX
  8
0
 10
1125.0000000000005
 20
376.49212646484375
 42
0
  0
VERTEX
  8
0
 10
1125.0000000000005
 20
530
 42
-0
  0
SEQEND
  0
POLYLINE
  8
0
 10
0
 20
0
 39
0
 70
1
 66
1
  0
VERTEX
  8
0
 10
1096.7223510742192
 20
426.64584350585937
 42
-1
  0
VERTEX
  8
0
 10
1096.7223510742192
 20
392.64584350585937
 42
-1
  0
SEQEND
  0
POLYLINE
  8
0
 10
0
 20
0
 39
0
 70
1
 66
1
  0
VERTEX
  8
0
 10
340.00000000000045
 20
620
 42
0
  0
VERTEX
  8
0
 10
340.00000000000045
 20
320
 42
0
  0
VERTEX
  8
0
 10
538.44471740722702
 20
320
 42
0
  0
VERTEX
  8
0
 10
538.44471740722702
 20
439.12667846679687
 42
-0
  0
VERTEX
  8
0
 10
595.00000000000045
 20
466.49212646484375
 42
0
  0
VERTEX
  8
0
 10
595.00000000000045
 20
620
 42
-0
  0
SEQEND
  0
POLYLINE
  8
0
 10
0
 20
0
 39
0
 70
1
 66
1
  0
VERTEX
  8
0
 10
566.7223510742192
 20
516.64584350585937
 42
-1
  0
VERTEX
  8
0
 10
566.7223510742192
 20
482.64584350585937
 42
-1
  0
SEQEND
  0
ENDSEC
  0
EOF
