  0
SECTION
  2
ENTITIES
  0
POLYLINE
  8
0
 10
0
 20
0
 39
0
 70
1
 66
1
  0
VERTEX
  8
0
 10
0
 20
0
 42
-0
  0
VERTEX
  8
0
 10
1550
 20
0
 42
-0
  0
VERTEX
  8
0
 10
1550
 20
1100
 42
-0
  0
VERTEX
  8
0
 10
0
 20
1100
 42
-0
  0
SEQEND
  0
POLYLINE
  8
0
 10
0
 20
0
 39
0
 70
1
 66
1
  0
VERTEX
  8
0
 10
10.126923076923109
 20
10.126923076923077
 42
-0
  0
VERTEX
  8
0
 10
10.126923076923076
 20
555.24957322340742
 42
0
  0
VERTEX
  8
0
 10
423.35919236403242
 20
555.24957322340742
 42
0.17797042429447174
  0
VERTEX
  8
0
 10
490.12692307692305
 20
428.19989060621992
 42
0
  0
VERTEX
  8
0
 10
490.12692307692311
 20
137.17660569411063
 42
0.17797042429447174
  0
VERTEX
  8
0
 10
423.35919236403248
 20
10.126923076923106
 42
-0
  0
SEQEND
  0
POLYLINE
  8
0
 10
0
 20
0
 39
0
 70
1
 66
1
  0
VERTEX
  8
0
 10
158.21460007887623
 20
105.0590825007512
 42
1.6433805227279663
  0
VERTEX
  8
0
 10
158.21460007887623
 20
460.31744431715742
 42
-0
  0
VERTEX
  8
0
 10
128.5161137507512
 20
490.01593064528242
 42
0
  0
VERTEX
  8
0
 10
42.799263469989498
 20
404.29907273512617
 42
0
  0
VERTEX
  8
0
 10
72.497745983417232
 20
374.60058640700117
 42
0.24339307844638824
  0
VERTEX
  8
0
 10
72.497745983417232
 20
190.77590989332933
 42
-0
  0
VERTEX
  8
0
 10
42.799263469989512
 20
161.07742356520433
 42
0
  0
VERTEX
  8
0
 10
128.51611375075123
 20
75.360596172626202
 42
0
  0
SEQEND
  0
POLYLINE
  8
0
 10
0
 20
0
 39
0
 70
1
 66
1
  0
VERTEX
  8
0
 10
555.24957322340742
 20
565.26538461538462
 42
-0
  0
VERTEX
  8
0
 10
10.126923076923049
 20
565.26538461538462
 42
0
  0
VERTEX
  8
0
 10
10.126923076923049
 20
978.49765390249399
 42
0.17797042429447174
  0
VERTEX
  8
0
 10
137.17660569411055
 20
1045.2653846153846
 42
0
  0
VERTEX
  8
0
 10
428.19989060621992
 20
1045.2653846153846
 42
0.17797042429447174
  0
VERTEX
  8
0
 10
555.24957322340742
 20
978.49765390249399
 42
-0
  0
SEQEND
  0
POLYLINE
  8
0
 10
0
 20
0
 39
0
 70
1
 66
1
  0
VERTEX
  8
0
 10
460.3174137995793
 20
713.35306161733774
 42
1.6433805227279663
  0
VERTEX
  8
0
 10
105.05905198317305
 20
713.35306161733774
 42
-0
  0
VERTEX
  8
0
 10
75.360565655048049
 20
683.65457528921274
 42
0
  0
VERTEX
  8
0
 10
161.0774235652043
 20
597.93772500845103
 42
0
  0
VERTEX
  8
0
 10
190.7759098933293
 20
627.63620752187876
 42
0.24339307844638824
  0
VERTEX
  8
0
 10
374.60058640700117
 20
627.63620752187876
 42
-0
  0
VERTEX
  8
0
 10
404.29907273512617
 20
597.93772500845103
 42
0
  0
VERTEX
  8
0
 10
490.0159001277043
 20
683.65457528921274
 42
0
  0
SEQEND
  0
POLYLINE
  8
0
 10
0
 20
0
 39
0
 70
1
 66
1
  0
VERTEX
  8
0
 10
500.28461538461545
 20
10.126923076923077
 42
-0
  0
VERTEX
  8
0
 10
500.28461538461539
 20
555.24957322340742
 42
0
  0
VERTEX
  8
0
 10
913.51688467172471
 20
555.24957322340742
 42
0.17797042429447174
  0
VERTEX
  8
0
 10
980.28461538461534
 20
428.19989060621992
 42
0
  0
VERTEX
  8
0
 10
980.28461538461545
 20
137.17660569411063
 42
0.17797042429447174
  0
VERTEX
  8
0
 10
913.51688467172482
 20
10.126923076923106
 42
-0
  0
SEQEND
  0
POLYLINE
  8
0
 10
0
 20
0
 39
0
 70
1
 66
1
  0
VERTEX
  8
0
 10
648.37229238656857
 20
105.0590825007512
 42
1.6433805227279663
  0
VERTEX
  8
0
 10
648.37229238656857
 20
460.31744431715742
 42
-0
  0
VERTEX
  8
0
 10
618.67380605844357
 20
490.01593064528242
 42
0
  0
VERTEX
  8
0
 10
532.95695577768186
 20
404.29907273512617
 42
0
  0
VERTEX
  8
0
 10
562.65543829110959
 20
374.60058640700117
 42
0.24339307844638824
  0
VERTEX
  8
0
 10
562.65543829110959
 20
190.77590989332933
 42
-0
  0
VERTEX
  8
0
 10
532.95695577768186
 20
161.07742356520433
 42
0
  0
VERTEX
  8
0
 10
618.67380605844357
 20
75.360596172626202
 42
0
  0
SEQEND
  0
POLYLINE
  8
0
 10
0
 20
0
 39
0
 70
1
 66
1
  0
VERTEX
  8
0
 10
1110.5072655310996
 20
565.26538461538462
 42
-0
  0
VERTEX
  8
0
 10
565.38461538461524
 20
565.26538461538462
 42
0
  0
VERTEX
  8
0
 10
565.38461538461524
 20
978.49765390249399
 42
0.17797042429447174
  0
VERTEX
  8
0
 10
692.43429800180274
 20
1045.2653846153846
 42
0
  0
VERTEX
  8
0
 10
983.45758291391212
 20
1045.2653846153846
 42
0.17797042429447174
  0
VERTEX
  8
0
 10
1110.5072655310996
 20
978.49765390249399
 42
-0
  0
SEQEND
  0
POLYLINE
  8
0
 10
0
 20
0
 39
0
 70
1
 66
1
  0
VERTEX
  8
0
 10
1015.5751061072715
 20
713.35306161733774
 42
1.6433805227279663
  0
VERTEX
  8
0
 10
660.31674429086524
 20
713.35306161733774
 42
-0
  0
VERTEX
  8
0
 10
630.61825796274024
 20
683.65457528921274
 42
0
  0
VERTEX
  8
0
 10
716.33511587289649
 20
597.93772500845103
 42
0
  0
VERTEX
  8
0
 10
746.03360220102149
 20
627.63620752187876
 42
0.24339307844638824
  0
VERTEX
  8
0
 10
929.85827871469337
 20
627.63620752187876
 42
-0
  0
VERTEX
  8
0
 10
959.55676504281837
 20
597.93772500845103
 42
0
  0
VERTEX
  8
0
 10
1045.2735924353965
 20
683.65457528921274
 42
0
  0
SEQEND
  0
POLYLINE
  8
0
 10
0
 20
0
 39
0
 70
1
 66
1
  0
VERTEX
  8
0
 10
990.44230769230774
 20
10.126923076923077
 42
-0
  0
VERTEX
  8
0
 10
990.44230769230774
 20
555.24957322340742
 42
0
  0
VERTEX
  8
0
 10
1403.674576979417
 20
555.24957322340742
 42
0.17797042429447174
  0
VERTEX
  8
0
 10
1470.4423076923076
 20
428.19989060621992
 42
0
  0
VERTEX
  8
0
 10
1470.4423076923076
 20
137.17660569411063
 42
0.17797042429447174
  0
VERTEX
  8
0
 10
1403.674576979417
 20
10.126923076923106
 42
-0
  0
SEQEND
  0
POLYLINE
  8
0
 10
0
 20
0
 39
0
 70
1
 66
1
  0
VERTEX
  8
0
 10
1138.5299846942607
 20
105.0590825007512
 42
1.6433805227279663
  0
VERTEX
  8
0
 10
1138.5299846942607
 20
460.31744431715742
 42
-0
  0
VERTEX
  8
0
 10
1108.8314983661357
 20
490.01593064528242
 42
0
  0
VERTEX
  8
0
 10
1023.1146480853741
 20
404.29907273512617
 42
0
  0
VERTEX
  8
0
 10
1052.8131305988018
 20
374.60058640700117
 42
0.24339307844638824
  0
VERTEX
  8
0
 10
1052.8131305988018
 20
190.77590989332933
 42
-0
  0
VERTEX
  8
0
 10
1023.1146480853741
 20
161.07742356520433
 42
0
  0
VERTEX
  8
0
 10
1108.8314983661357
 20
75.360596172626202
 42
0
  0
SEQEND
  0
POLYLINE
  8
0
 10
0
 20
0
 39
0
 70
1
 66
1
  0
VERTEX
  8
0
 10
248.87965556082708
 20
469.65974696029377
 42
-1
  0
VERTEX
  8
0
 10
247.24341463844684
 20
94.663323238980297
 42
-1
  0
SEQEND
  0
POLYLINE
  8
0
 10
0
 20
0
 39
0
 70
1
 66
1
  0
VERTEX
  8
0
 10
126.98251109871495
 20
404.30181020894975
 42
-0
  0
VERTEX
  8
0
 10
125.9212598571666
 20
161.08248058142794
 42
-0
  0
VERTEX
  8
0
 10
369.14055896740132
 20
160.02122947303724
 42
0
  0
VERTEX
  8
0
 10
370.20181020894967
 20
403.24055910055904
 42
0
  0
SEQEND
  0
POLYLINE
  8
0
 10
0
 20
0
 39
0
 70
1
 66
1
  0
VERTEX
  8
0
 10
281.42965556082703
 20
992.24820849875528
 42
-1
  0
VERTEX
  8
0
 10
279.79341463844679
 20
617.2517847774418
 42
-1
  0
SEQEND
  0
POLYLINE
  8
0
 10
0
 20
0
 39
0
 70
1
 66
1
  0
VERTEX
  8
0
 10
159.53251109871491
 20
926.89027174741125
 42
-0
  0
VERTEX
  8
0
 10
158.47125985716656
 20
683.67094211988945
 42
-0
  0
VERTEX
  8
0
 10
401.69055896740127
 20
682.60969101149874
 42
0
  0
VERTEX
  8
0
 10
402.75181020894962
 20
925.82902063902054
 42
0
  0
SEQEND
  0
POLYLINE
  8
0
 10
0
 20
0
 39
0
 70
1
 66
1
  0
VERTEX
  8
0
 10
739.03734786851942
 20
469.65974696029377
 42
-1
  0
VERTEX
  8
0
 10
737.40110694613918
 20
94.663323238980297
 42
-1
  0
SEQEND
  0
POLYLINE
  8
0
 10
0
 20
0
 39
0
 70
1
 66
1
  0
VERTEX
  8
0
 10
617.14020340640718
 20
404.30181020894975
 42
-0
  0
VERTEX
  8
0
 10
616.07895216485895
 20
161.08248058142794
 42
-0
  0
VERTEX
  8
0
 10
859.29825127509366
 20
160.02122947303724
 42
0
  0
VERTEX
  8
0
 10
860.35950251664201
 20
403.24055910055904
 42
0
  0
SEQEND
  0
POLYLINE
  8
0
 10
0
 20
0
 39
0
 70
1
 66
1
  0
VERTEX
  8
0
 10
836.68734786851928
 20
992.24820849875528
 42
-1
  0
VERTEX
  8
0
 10
835.05110694613904
 20
617.2517847774418
 42
-1
  0
SEQEND
  0
POLYLINE
  8
0
 10
0
 20
0
 39
0
 70
1
 66
1
  0
VERTEX
  8
0
 10
714.79020340640727
 20
926.89027174741125
 42
-0
  0
VERTEX
  8
0
 10
713.72895216485881
 20
683.67094211988945
 42
-0
  0
VERTEX
  8
0
 10
956.94825127509353
 20
682.60969101149874
 42
0
  0
VERTEX
  8
0
 10
958.00950251664199
 20
925.82902063902054
 42
0
  0
SEQEND
  0
POLYLINE
  8
0
 10
0
 20
0
 39
0
 70
1
 66
1
  0
VERTEX
  8
0
 10
1229.1950401762115
 20
469.65974696029377
 42
-1
  0
VERTEX
  8
0
 10
1227.5587992538312
 20
94.663323238980297
 42
-1
  0
SEQEND
  0
POLYLINE
  8
0
 10
0
 20
0
 39
0
 70
1
 66
1
  0
VERTEX
  8
0
 10
1107.2978957140995
 20
404.30181020894975
 42
-0
  0
VERTEX
  8
0
 10
1106.236644472551
 20
161.08248058142794
 42
-0
  0
VERTEX
  8
0
 10
1349.4559435827857
 20
160.02122947303724
 42
0
  0
VERTEX
  8
0
 10
1350.5171948243342
 20
403.24055910055904
 42
0
  0
SEQEND
  0
POLYLINE
  8
0
 10
0
 20
0
 39
0
 70
1
 66
1
  0
VERTEX
  8
0
 10
247.11073122625879
 20
390.72971818061239
 42
-1
  0
VERTEX
  8
0
 10
246.15080321846239
 20
170.73181626410849
 42
-1
  0
SEQEND
  0
POLYLINE
  8
0
 10
0
 20
0
 39
0
 70
1
 66
1
  0
VERTEX
  8
0
 10
246.99074022528424
 20
363.22998044104941
 42
1
  0
VERTEX
  8
0
 10
246.27079421943694
 20
198.23155400367148
 42
1
  0
SEQEND
  0
POLYLINE
  8
0
 10
0
 20
0
 39
0
 70
1
 66
1
  0
VERTEX
  8
0
 10
150.29899324111233
 20
289.15117255474229
 42
1
  0
VERTEX
  8
0
 10
150.22918029509077
 20
273.15132514263291
 42
1
  0
SEQEND
  0
POLYLINE
  8
0
 10
0
 20
0
 39
0
 70
1
 66
1
  0
VERTEX
  8
0
 10
279.77996199548949
 20
913.31817971907401
 42
-1
  0
VERTEX
  8
0
 10
278.82003398769308
 20
693.3202778025701
 42
-1
  0
SEQEND
  0
POLYLINE
  8
0
 10
0
 20
0
 39
0
 70
1
 66
1
  0
VERTEX
  8
0
 10
279.65997099451494
 20
885.81844197951102
 42
1
  0
VERTEX
  8
0
 10
278.94002498866763
 20
720.82001554213309
 42
1
  0
SEQEND
  0
POLYLINE
  8
0
 10
0
 20
0
 39
0
 70
1
 66
1
  0
VERTEX
  8
0
 10
182.96822401034302
 20
811.7396340932039
 42
1
  0
VERTEX
  8
0
 10
182.89841106432146
 20
795.73978668109453
 42
1
  0
SEQEND
  0
POLYLINE
  8
0
 10
0
 20
0
 39
0
 70
1
 66
1
  0
VERTEX
  8
0
 10
737.26842353395114
 20
390.72971818061239
 42
-1
  0
VERTEX
  8
0
 10
736.30849552615473
 20
170.73181626410849
 42
-1
  0
SEQEND
  0
POLYLINE
  8
0
 10
0
 20
0
 39
0
 70
1
 66
1
  0
VERTEX
  8
0
 10
737.14843253297659
 20
363.22998044104941
 42
1
  0
VERTEX
  8
0
 10
736.42848652712928
 20
198.23155400367148
 42
1
  0
SEQEND
  0
POLYLINE
  8
0
 10
0
 20
0
 39
0
 70
1
 66
1
  0
VERTEX
  8
0
 10
640.45668554880467
 20
289.15117255474229
 42
1
  0
VERTEX
  8
0
 10
640.38687260278311
 20
273.15132514263291
 42
1
  0
SEQEND
  0
POLYLINE
  8
0
 10
0
 20
0
 39
0
 70
1
 66
1
  0
VERTEX
  8
0
 10
834.918423533951
 20
913.31817971907401
 42
-1
  0
VERTEX
  8
0
 10
833.95849552615459
 20
693.3202778025701
 42
-1
  0
SEQEND
  0
POLYLINE
  8
0
 10
0
 20
0
 39
0
 70
1
 66
1
  0
VERTEX
  8
0
 10
834.79843253297645
 20
885.81844197951102
 42
1
  0
VERTEX
  8
0
 10
834.07848652712914
 20
720.82001554213309
 42
1
  0
SEQEND
  0
POLYLINE
  8
0
 10
0
 20
0
 39
0
 70
1
 66
1
  0
VERTEX
  8
0
 10
738.10668554880453
 20
811.7396340932039
 42
1
  0
VERTEX
  8
0
 10
738.03687260278298
 20
795.73978668109453
 42
1
  0
SEQEND
  0
POLYLINE
  8
0
 10
0
 20
0
 39
0
 70
1
 66
1
  0
VERTEX
  8
0
 10
1227.4261158416434
 20
390.72971818061239
 42
-1
  0
VERTEX
  8
0
 10
1226.466187833847
 20
170.73181626410849
 42
-1
  0
SEQEND
  0
POLYLINE
  8
0
 10
0
 20
0
 39
0
 70
1
 66
1
  0
VERTEX
  8
0
 10
1227.3061248406689
 20
363.22998044104941
 42
1
  0
VERTEX
  8
0
 10
1226.5861788348216
 20
198.23155400367148
 42
1
  0
SEQEND
  0
POLYLINE
  8
0
 10
0
 20
0
 39
0
 70
1
 66
1
  0
VERTEX
  8
0
 10
1130.614377856497
 20
289.15117255474229
 42
1
  0
VERTEX
  8
0
 10
1130.5445649104754
 20
273.15132514263291
 42
1
  0
SEQEND
  0
POLYLINE
  8
0
 10
0
 20
0
 39
0
 70
1
 66
1
  0
VERTEX
  8
0
 10
1231.1222696877971
 20
785.26433356522773
 42
-1
  0
VERTEX
  8
0
 10
1230.1623416800007
 20
565.26643164872382
 42
-1
  0
SEQEND
  0
POLYLINE
  8
0
 10
0
 20
0
 39
0
 70
1
 66
1
  0
VERTEX
  8
0
 10
1231.0022786868226
 20
757.76459582566474
 42
1
  0
VERTEX
  8
0
 10
1230.2823326809753
 20
592.76616938828681
 42
1
  0
SEQEND
  0
POLYLINE
  8
0
 10
0
 20
0
 39
0
 70
1
 66
1
  0
VERTEX
  8
0
 10
1134.3105317026507
 20
683.68578793935762
 42
1
  0
VERTEX
  8
0
 10
1134.2407187566291
 20
667.68594052724825
 42
1
  0
SEQEND
  0
POLYLINE
  8
0
 10
0
 20
0
 39
0
 70
1
 66
1
  0
VERTEX
  8
0
 10
1120.6423076923077
 20
791.92307692307691
 42
-0
  0
VERTEX
  8
0
 10
1120.6423076923077
 20
1046.9230769230769
 42
-0
  0
VERTEX
  8
0
 10
1200.6423076923077
 20
1046.9230769230769
 42
-0
  0
VERTEX
  8
0
 10
1200.6423076923077
 20
791.92307692307691
 42
-0
  0
SEQEND
  0
POLYLINE
  8
0
 10
0
 20
0
 39
0
 70
1
 66
1
  0
VERTEX
  8
0
 10
1160.6423076923077
 20
863.62307387131909
 42
1
  0
VERTEX
  8
0
 10
1160.6423076923077
 20
913.62307387131909
 42
1
  0
SEQEND
  0
POLYLINE
  8
0
 10
0
 20
0
 39
0
 70
1
 66
1
  0
VERTEX
  8
0
 10
1160.6423076923077
 20
925.22307997483472
 42
1
  0
VERTEX
  8
0
 10
1160.6423076923077
 20
975.22307997483472
 42
1
  0
SEQEND
  0
POLYLINE
  8
0
 10
0
 20
0
 39
0
 70
1
 66
1
  0
VERTEX
  8
0
 10
1210.7807692307692
 20
795.38076923076926
 42
-0
  0
VERTEX
  8
0
 10
1210.7807692307692
 20
1050.3807692307691
 42
-0
  0
VERTEX
  8
0
 10
1290.7807692307692
 20
1050.3807692307691
 42
-0
  0
VERTEX
  8
0
 10
1290.7807692307692
 20
795.38076923076926
 42
-0
  0
SEQEND
  0
POLYLINE
  8
0
 10
0
 20
0
 39
0
 70
1
 66
1
  0
VERTEX
  8
0
 10
1250.7807692307692
 20
867.08076617901145
 42
1
  0
VERTEX
  8
0
 10
1250.7807692307692
 20
917.08076617901145
 42
1
  0
SEQEND
  0
POLYLINE
  8
0
 10
0
 20
0
 39
0
 70
1
 66
1
  0
VERTEX
  8
0
 10
1250.7807692307692
 20
928.68077228252707
 42
1
  0
VERTEX
  8
0
 10
1250.7807692307692
 20
978.68077228252707
 42
1
  0
SEQEND
  0
POLYLINE
  8
0
 10
0
 20
0
 39
0
 70
1
 66
1
  0
VERTEX
  8
0
 10
1300.9192307692308
 20
772.96538461538466
 42
-0
  0
VERTEX
  8
0
 10
1300.9192307692308
 20
1027.9653846153847
 42
-0
  0
VERTEX
  8
0
 10
1380.9192307692308
 20
1027.9653846153847
 42
-0
  0
VERTEX
  8
0
 10
1380.9192307692308
 20
772.96538461538466
 42
-0
  0
SEQEND
  0
POLYLINE
  8
0
 10
0
 20
0
 39
0
 70
1
 66
1
  0
VERTEX
  8
0
 10
1340.9192307692308
 20
844.66538156362685
 42
1
  0
VERTEX
  8
0
 10
1340.9192307692308
 20
894.66538156362685
 42
1
  0
SEQEND
  0
POLYLINE
  8
0
 10
0
 20
0
 39
0
 70
1
 66
1
  0
VERTEX
  8
0
 10
1340.9192307692308
 20
906.26538766714248
 42
1
  0
VERTEX
  8
0
 10
1340.9192307692308
 20
956.26538766714248
 42
1
  0
SEQEND
  0
POLYLINE
  8
0
 10
0
 20
0
 39
0
 70
1
 66
1
  0
VERTEX
  8
0
 10
1391.0576923076924
 20
565.26538461538462
 42
-0
  0
VERTEX
  8
0
 10
1391.0576923076924
 20
820.26538461538462
 42
-0
  0
VERTEX
  8
0
 10
1471.0576923076924
 20
820.26538461538462
 42
-0
  0
VERTEX
  8
0
 10
1471.0576923076924
 20
565.26538461538462
 42
-0
  0
SEQEND
  0
POLYLINE
  8
0
 10
0
 20
0
 39
0
 70
1
 66
1
  0
VERTEX
  8
0
 10
1431.0576923076924
 20
636.96538156362681
 42
1
  0
VERTEX
  8
0
 10
1431.0576923076924
 20
686.96538156362681
 42
1
  0
SEQEND
  0
POLYLINE
  8
0
 10
0
 20
0
 39
0
 70
1
 66
1
  0
VERTEX
  8
0
 10
1431.0576923076924
 20
698.56538766714243
 42
1
  0
VERTEX
  8
0
 10
1431.0576923076924
 20
748.56538766714243
 42
1
  0
SEQEND
  0
POLYLINE
  8
0
 10
0
 20
0
 39
0
 70
1
 66
1
  0
VERTEX
  8
0
 10
1391.0576923076924
 20
830.31538461538469
 42
-0
  0
VERTEX
  8
0
 10
1391.0576923076924
 20
1085.3153846153846
 42
-0
  0
VERTEX
  8
0
 10
1471.0576923076924
 20
1085.3153846153846
 42
-0
  0
VERTEX
  8
0
 10
1471.0576923076924
 20
830.31538461538469
 42
-0
  0
SEQEND
  0
POLYLINE
  8
0
 10
0
 20
0
 39
0
 70
1
 66
1
  0
VERTEX
  8
0
 10
1431.0576923076924
 20
902.01538156362687
 42
1
  0
VERTEX
  8
0
 10
1431.0576923076924
 20
952.01538156362687
 42
1
  0
SEQEND
  0
POLYLINE
  8
0
 10
0
 20
0
 39
0
 70
1
 66
1
  0
VERTEX
  8
0
 10
1431.0576923076924
 20
963.6153876671425
 42
1
  0
VERTEX
  8
0
 10
1431.0576923076924
 20
1013.6153876671425
 42
1
  0
SEQEND
  0
POLYLINE
  8
0
 10
0
 20
0
 39
0
 70
1
 66
1
  0
VERTEX
  8
0
 10
229.08008092989667
 20
222.59615384915901
 42
-0
  0
VERTEX
  8
0
 10
175.26153846454372
 20
269.79374761631493
 42
-0
  0
VERTEX
  8
0
 10
189.89217227885956
 20
324.75325372246766
 42
-0
  0
VERTEX
  8
0
 10
281.75441265493964
 20
336.94261367361901
 42
0
  0
VERTEX
  8
0
 10
281.6597422971422
 20
244.27525687760203
 42
0
  0
SEQEND
  0
POLYLINE
  8
0
 10
0
 20
0
 39
0
 70
1
 66
1
  0
VERTEX
  8
0
 10
247.90255464370648
 20
252.06228681114203
 42
-0
  0
VERTEX
  8
0
 10
258.71784405648896
 20
264.39476111922772
 42
-0
  0
VERTEX
  8
0
 10
246.62827192445866
 20
296.88892564296179
 42
0
  0
VERTEX
  8
0
 10
212.83407051951281
 20
304.63374948084197
 42
0
  0
VERTEX
  8
0
 10
202.01878110673033
 20
292.30127517275628
 42
-0
  0
VERTEX
  8
0
 10
214.10837618309097
 20
259.80709052738507
 42
0
  0
SEQEND
  0
POLYLINE
  8
0
 10
0
 20
0
 39
0
 70
1
 66
1
  0
VERTEX
  8
0
 10
270.03802453224262
 20
305.38277521964733
 42
1
  0
VERTEX
  8
0
 10
251.99386893455585
 20
321.20707455512706
 42
1
  0
SEQEND
  0
POLYLINE
  8
0
 10
0
 20
0
 39
0
 70
1
 66
1
  0
VERTEX
  8
0
 10
261.74931169912747
 20
745.18461538762062
 42
-0
  0
VERTEX
  8
0
 10
207.93076923377453
 20
792.38220915477655
 42
-0
  0
VERTEX
  8
0
 10
222.56140304809037
 20
847.34171526092928
 42
-0
  0
VERTEX
  8
0
 10
314.42364342417045
 20
859.53107521208062
 42
0
  0
VERTEX
  8
0
 10
314.32897306637301
 20
766.86371841606365
 42
0
  0
SEQEND
  0
POLYLINE
  8
0
 10
0
 20
0
 39
0
 70
1
 66
1
  0
VERTEX
  8
0
 10
280.57178541293729
 20
774.65074834960365
 42
-0
  0
VERTEX
  8
0
 10
291.38707482571976
 20
786.98322265768934
 42
-0
  0
VERTEX
  8
0
 10
279.29750269368947
 20
819.47738718142341
 42
0
  0
VERTEX
  8
0
 10
245.50330128874361
 20
827.22221101930359
 42
0
  0
VERTEX
  8
0
 10
234.68801187596114
 20
814.88973671121789
 42
-0
  0
VERTEX
  8
0
 10
246.77760695232178
 20
782.39555206584669
 42
0
  0
SEQEND
  0
POLYLINE
  8
0
 10
0
 20
0
 39
0
 70
1
 66
1
  0
VERTEX
  8
0
 10
302.70725530147342
 20
827.97123675810894
 42
1
  0
VERTEX
  8
0
 10
284.66309970378666
 20
843.79553609358868
 42
1
  0
SEQEND
  0
POLYLINE
  8
0
 10
0
 20
0
 39
0
 70
1
 66
1
  0
VERTEX
  8
0
 10
719.23777323758895
 20
222.59615384915901
 42
-0
  0
VERTEX
  8
0
 10
665.41923077223601
 20
269.79374761631493
 42
-0
  0
VERTEX
  8
0
 10
680.04986458655185
 20
324.75325372246766
 42
-0
  0
VERTEX
  8
0
 10
771.91210496263193
 20
336.94261367361901
 42
0
  0
VERTEX
  8
0
 10
771.81743460483449
 20
244.27525687760203
 42
0
  0
SEQEND
  0
POLYLINE
  8
0
 10
0
 20
0
 39
0
 70
1
 66
1
  0
VERTEX
  8
0
 10
738.06024695139877
 20
252.06228681114203
 42
-0
  0
VERTEX
  8
0
 10
748.87553636418124
 20
264.39476111922772
 42
-0
  0
VERTEX
  8
0
 10
736.78596423215095
 20
296.88892564296179
 42
0
  0
VERTEX
  8
0
 10
702.99176282720509
 20
304.63374948084197
 42
0
  0
VERTEX
  8
0
 10
692.17647341442262
 20
292.30127517275628
 42
-0
  0
VERTEX
  8
0
 10
704.26606849078325
 20
259.80709052738507
 42
0
  0
SEQEND
  0
POLYLINE
  8
0
 10
0
 20
0
 39
0
 70
1
 66
1
  0
VERTEX
  8
0
 10
760.1957168399349
 20
305.38277521964733
 42
1
  0
VERTEX
  8
0
 10
742.15156124224814
 20
321.20707455512706
 42
1
  0
SEQEND
  0
POLYLINE
  8
0
 10
0
 20
0
 39
0
 70
1
 66
1
  0
VERTEX
  8
0
 10
816.88777323758904
 20
745.18461538762062
 42
-0
  0
VERTEX
  8
0
 10
763.0692307722361
 20
792.38220915477655
 42
-0
  0
VERTEX
  8
0
 10
777.69986458655194
 20
847.34171526092928
 42
-0
  0
VERTEX
  8
0
 10
869.56210496263202
 20
859.53107521208062
 42
0
  0
VERTEX
  8
0
 10
869.46743460483458
 20
766.86371841606365
 42
0
  0
SEQEND
  0
POLYLINE
  8
0
 10
0
 20
0
 39
0
 70
1
 66
1
  0
VERTEX
  8
0
 10
835.71024695139886
 20
774.65074834960365
 42
-0
  0
VERTEX
  8
0
 10
846.52553636418133
 20
786.98322265768934
 42
-0
  0
VERTEX
  8
0
 10
834.43596423215104
 20
819.47738718142341
 42
0
  0
VERTEX
  8
0
 10
800.64176282720518
 20
827.22221101930359
 42
0
  0
VERTEX
  8
0
 10
789.82647341442271
 20
814.88973671121789
 42
-0
  0
VERTEX
  8
0
 10
801.91606849078335
 20
782.39555206584669
 42
0
  0
SEQEND
  0
POLYLINE
  8
0
 10
0
 20
0
 39
0
 70
1
 66
1
  0
VERTEX
  8
0
 10
857.84571683993499
 20
827.97123675810894
 42
1
  0
VERTEX
  8
0
 10
839.80156124224823
 20
843.79553609358868
 42
1
  0
SEQEND
  0
POLYLINE
  8
0
 10
0
 20
0
 39
0
 70
1
 66
1
  0
VERTEX
  8
0
 10
1209.3954655452812
 20
222.59615384915901
 42
-0
  0
VERTEX
  8
0
 10
1155.5769230799283
 20
269.79374761631493
 42
-0
  0
VERTEX
  8
0
 10
1170.2075568942441
 20
324.75325372246766
 42
-0
  0
VERTEX
  8
0
 10
1262.0697972703242
 20
336.94261367361901
 42
0
  0
VERTEX
  8
0
 10
1261.9751269125268
 20
244.27525687760203
 42
0
  0
SEQEND
  0
POLYLINE
  8
0
 10
0
 20
0
 39
0
 70
1
 66
1
  0
VERTEX
  8
0
 10
1228.2179392590911
 20
252.06228681114203
 42
-0
  0
VERTEX
  8
0
 10
1239.0332286718735
 20
264.39476111922772
 42
-0
  0
VERTEX
  8
0
 10
1226.9436565398432
 20
296.88892564296179
 42
0
  0
VERTEX
  8
0
 10
1193.1494551348974
 20
304.63374948084197
 42
0
  0
VERTEX
  8
0
 10
1182.3341657221149
 20
292.30127517275628
 42
-0
  0
VERTEX
  8
0
 10
1194.4237607984755
 20
259.80709052738507
 42
0
  0
SEQEND
  0
POLYLINE
  8
0
 10
0
 20
0
 39
0
 70
1
 66
1
  0
VERTEX
  8
0
 10
1250.3534091476272
 20
305.38277521964733
 42
1
  0
VERTEX
  8
0
 10
1232.3092535499404
 20
321.20707455512706
 42
1
  0
SEQEND
  0
POLYLINE
  8
0
 10
0
 20
0
 39
0
 70
1
 66
1
  0
VERTEX
  8
0
 10
1213.0916193914352
 20
617.13076923377434
 42
-0
  0
VERTEX
  8
0
 10
1159.2730769260822
 20
664.32836300093027
 42
-0
  0
VERTEX
  8
0
 10
1173.9037107403981
 20
719.287869107083
 42
-0
  0
VERTEX
  8
0
 10
1265.7659511164782
 20
731.47722905823434
 42
0
  0
VERTEX
  8
0
 10
1265.6712807586807
 20
638.80987226221737
 42
0
  0
SEQEND
  0
POLYLINE
  8
0
 10
0
 20
0
 39
0
 70
1
 66
1
  0
VERTEX
  8
0
 10
1231.914093105245
 20
646.59690219575737
 42
-0
  0
VERTEX
  8
0
 10
1242.7293825180275
 20
658.92937650384306
 42
-0
  0
VERTEX
  8
0
 10
1230.6398103859972
 20
691.42354102757713
 42
0
  0
VERTEX
  8
0
 10
1196.8456089810513
 20
699.16836486545731
 42
0
  0
VERTEX
  8
0
 10
1186.0303195682689
 20
686.83589055737161
 42
-0
  0
VERTEX
  8
0
 10
1198.1199146446295
 20
654.34170591200041
 42
0
  0
SEQEND
  0
POLYLINE
  8
0
 10
0
 20
0
 39
0
 70
1
 66
1
  0
VERTEX
  8
0
 10
1254.0495629937811
 20
699.91739060426266
 42
1
  0
VERTEX
  8
0
 10
1236.0054073960944
 20
715.7416899397424
 42
1
  0
SEQEND
  0
POLYLINE
  8
0
 10
0
 20
0
 39
0
 70
1
 66
1
  0
VERTEX
  8
0
 10
190.12692307692308
 20
1055.3038461538463
 42
-0
  0
VERTEX
  8
0
 10
113.03911637526292
 20
1055.3038461538463
 42
0.46467694640159607
  0
VERTEX
  8
0
 10
87.214729778583234
 20
1055.3038461538463
 42
-0
  0
VERTEX
  8
0
 10
10.126923076923077
 20
1055.3038461538463
 42
0
  0
VERTEX
  8
0
 10
10.126923076923077
 20
1085.3038461538463
 42
0
  0
VERTEX
  8
0
 10
87.214729778583234
 20
1085.3038461538463
 42
0.46467694640159607
  0
VERTEX
  8
0
 10
113.03911637526292
 20
1085.3038461538463
 42
0
  0
VERTEX
  8
0
 10
190.12692307692308
 20
1085.3038461538463
 42
0
  0
SEQEND
  0
POLYLINE
  8
0
 10
0
 20
0
 39
0
 70
1
 66
1
  0
VERTEX
  8
0
 10
179.38700341444749
 20
1070.3038461538463
 42
1
  0
VERTEX
  8
0
 10
161.38700341444749
 20
1070.3038461538463
 42
1
  0
SEQEND
  0
POLYLINE
  8
0
 10
0
 20
0
 39
0
 70
1
 66
1
  0
VERTEX
  8
0
 10
380.30000000000001
 20
1055.3038461538463
 42
-0
  0
VERTEX
  8
0
 10
303.21219329833986
 20
1055.3038461538463
 42
0.46467694640159607
  0
VERTEX
  8
0
 10
277.38780670166017
 20
1055.3038461538463
 42
-0
  0
VERTEX
  8
0
 10
200.30000000000001
 20
1055.3038461538463
 42
0
  0
VERTEX
  8
0
 10
200.30000000000001
 20
1085.3038461538463
 42
0
  0
VERTEX
  8
0
 10
277.38780670166017
 20
1085.3038461538463
 42
0.46467694640159607
  0
VERTEX
  8
0
 10
303.21219329833986
 20
1085.3038461538463
 42
0
  0
VERTEX
  8
0
 10
380.30000000000001
 20
1085.3038461538463
 42
0
  0
SEQEND
  0
POLYLINE
  8
0
 10
0
 20
0
 39
0
 70
1
 66
1
  0
VERTEX
  8
0
 10
369.56008033752443
 20
1070.3038461538463
 42
1
  0
VERTEX
  8
0
 10
351.56008033752443
 20
1070.3038461538463
 42
1
  0
SEQEND
  0
POLYLINE
  8
0
 10
0
 20
0
 39
0
 70
1
 66
1
  0
VERTEX
  8
0
 10
570.47307692307686
 20
1055.3038461538463
 42
-0
  0
VERTEX
  8
0
 10
493.3852702214167
 20
1055.3038461538463
 42
0.46467694640159607
  0
VERTEX
  8
0
 10
467.56088362473702
 20
1055.3038461538463
 42
-0
  0
VERTEX
  8
0
 10
390.47307692307686
 20
1055.3038461538463
 42
0
  0
VERTEX
  8
0
 10
390.47307692307686
 20
1085.3038461538463
 42
0
  0
VERTEX
  8
0
 10
467.56088362473702
 20
1085.3038461538463
 42
0.46467694640159607
  0
VERTEX
  8
0
 10
493.3852702214167
 20
1085.3038461538463
 42
0
  0
VERTEX
  8
0
 10
570.47307692307686
 20
1085.3038461538463
 42
0
  0
SEQEND
  0
POLYLINE
  8
0
 10
0
 20
0
 39
0
 70
1
 66
1
  0
VERTEX
  8
0
 10
559.73315726060127
 20
1070.3038461538463
 42
1
  0
VERTEX
  8
0
 10
541.73315726060127
 20
1070.3038461538463
 42
1
  0
SEQEND
  0
POLYLINE
  8
0
 10
0
 20
0
 39
0
 70
1
 66
1
  0
VERTEX
  8
0
 10
760.64615384615388
 20
1055.3038461538463
 42
-0
  0
VERTEX
  8
0
 10
683.55834714449372
 20
1055.3038461538463
 42
0.46467694640159607
  0
VERTEX
  8
0
 10
657.73396054781404
 20
1055.3038461538463
 42
-0
  0
VERTEX
  8
0
 10
580.64615384615388
 20
1055.3038461538463
 42
0
  0
VERTEX
  8
0
 10
580.64615384615388
 20
1085.3038461538463
 42
0
  0
VERTEX
  8
0
 10
657.73396054781404
 20
1085.3038461538463
 42
0.46467694640159607
  0
VERTEX
  8
0
 10
683.55834714449372
 20
1085.3038461538463
 42
0
  0
VERTEX
  8
0
 10
760.64615384615388
 20
1085.3038461538463
 42
0
  0
SEQEND
  0
POLYLINE
  8
0
 10
0
 20
0
 39
0
 70
1
 66
1
  0
VERTEX
  8
0
 10
749.90623418367829
 20
1070.3038461538463
 42
1
  0
VERTEX
  8
0
 10
731.90623418367829
 20
1070.3038461538463
 42
1
  0
SEQEND
  0
POLYLINE
  8
0
 10
0
 20
0
 39
0
 70
1
 66
1
  0
VERTEX
  8
0
 10
950.81923076923078
 20
1055.3038461538463
 42
-0
  0
VERTEX
  8
0
 10
873.73142406757063
 20
1055.3038461538463
 42
0.46467694640159607
  0
VERTEX
  8
0
 10
847.90703747089094
 20
1055.3038461538463
 42
-0
  0
VERTEX
  8
0
 10
770.81923076923078
 20
1055.3038461538463
 42
0
  0
VERTEX
  8
0
 10
770.81923076923078
 20
1085.3038461538463
 42
0
  0
VERTEX
  8
0
 10
847.90703747089094
 20
1085.3038461538463
 42
0.46467694640159607
  0
VERTEX
  8
0
 10
873.73142406757063
 20
1085.3038461538463
 42
0
  0
VERTEX
  8
0
 10
950.81923076923078
 20
1085.3038461538463
 42
0
  0
SEQEND
  0
POLYLINE
  8
0
 10
0
 20
0
 39
0
 70
1
 66
1
  0
VERTEX
  8
0
 10
940.0793111067552
 20
1070.3038461538463
 42
1
  0
VERTEX
  8
0
 10
922.0793111067552
 20
1070.3038461538463
 42
1
  0
SEQEND
  0
POLYLINE
  8
0
 10
0
 20
0
 39
0
 70
1
 66
1
  0
VERTEX
  8
0
 10
1140.9923076923078
 20
1056.9730769230769
 42
-0
  0
VERTEX
  8
0
 10
1063.9045009906476
 20
1056.9730769230769
 42
0.46467694640159607
  0
VERTEX
  8
0
 10
1038.080114393968
 20
1056.9730769230769
 42
-0
  0
VERTEX
  8
0
 10
960.9923076923078
 20
1056.9730769230769
 42
0
  0
VERTEX
  8
0
 10
960.9923076923078
 20
1086.9730769230769
 42
0
  0
VERTEX
  8
0
 10
1038.080114393968
 20
1086.9730769230769
 42
0.46467694640159607
  0
VERTEX
  8
0
 10
1063.9045009906476
 20
1086.9730769230769
 42
0
  0
VERTEX
  8
0
 10
1140.9923076923078
 20
1086.9730769230769
 42
0
  0
SEQEND
  0
POLYLINE
  8
0
 10
0
 20
0
 39
0
 70
1
 66
1
  0
VERTEX
  8
0
 10
1130.2523880298322
 20
1071.9730769230769
 42
1
  0
VERTEX
  8
0
 10
1112.2523880298322
 20
1071.9730769230769
 42
1
  0
SEQEND
  0
POLYLINE
  8
0
 10
0
 20
0
 39
0
 70
1
 66
1
  0
VERTEX
  8
0
 10
1350.5192307692307
 20
581.36153846153843
 42
-0
  0
VERTEX
  8
0
 10
1350.5192307692307
 20
658.44934516319859
 42
0.46467694640159607
  0
VERTEX
  8
0
 10
1350.5192307692307
 20
684.27373175987827
 42
-0
  0
VERTEX
  8
0
 10
1350.5192307692307
 20
761.36153846153843
 42
0
  0
VERTEX
  8
0
 10
1380.5192307692307
 20
761.36153846153843
 42
0
  0
VERTEX
  8
0
 10
1380.5192307692307
 20
684.27373175987827
 42
0.46467694640159607
  0
VERTEX
  8
0
 10
1380.5192307692307
 20
658.44934516319859
 42
0
  0
VERTEX
  8
0
 10
1380.5192307692307
 20
581.36153846153843
 42
0
  0
SEQEND
  0
POLYLINE
  8
0
 10
0
 20
0
 39
0
 70
1
 66
1
  0
VERTEX
  8
0
 10
1365.5192307692307
 20
592.10145812401402
 42
1
  0
VERTEX
  8
0
 10
1365.5192307692307
 20
610.10145812401402
 42
1
  0
SEQEND
  0
POLYLINE
  8
0
 10
0
 20
0
 39
0
 70
1
 66
1
  0
VERTEX
  8
0
 10
1480.6000000000001
 20
10.126923076923077
 42
-0
  0
VERTEX
  8
0
 10
1480.6000000000001
 20
87.214729778583234
 42
0.46467694640159607
  0
VERTEX
  8
0
 10
1480.6000000000001
 20
113.03911637526292
 42
-0
  0
VERTEX
  8
0
 10
1480.6000000000001
 20
190.12692307692308
 42
0
  0
VERTEX
  8
0
 10
1510.6000000000001
 20
190.12692307692308
 42
0
  0
VERTEX
  8
0
 10
1510.6000000000001
 20
113.03911637526292
 42
0.46467694640159607
  0
VERTEX
  8
0
 10
1510.6000000000001
 20
87.214729778583234
 42
0
  0
VERTEX
  8
0
 10
1510.6000000000001
 20
10.126923076923081
 42
0
  0
SEQEND
  0
POLYLINE
  8
0
 10
0
 20
0
 39
0
 70
1
 66
1
  0
VERTEX
  8
0
 10
1495.6000000000001
 20
20.866842739398663
 42
1
  0
VERTEX
  8
0
 10
1495.6000000000001
 20
38.866842739398663
 42
1
  0
SEQEND
  0
POLYLINE
  8
0
 10
0
 20
0
 39
0
 70
1
 66
1
  0
VERTEX
  8
0
 10
1480.6000000000001
 20
200.18076923076924
 42
-0
  0
VERTEX
  8
0
 10
1480.6000000000001
 20
277.26857593242937
 42
0.46467694640159607
  0
VERTEX
  8
0
 10
1480.6000000000001
 20
303.09296252910906
 42
-0
  0
VERTEX
  8
0
 10
1480.6000000000001
 20
380.18076923076922
 42
0
  0
VERTEX
  8
0
 10
1510.6000000000001
 20
380.18076923076922
 42
0
  0
VERTEX
  8
0
 10
1510.6000000000001
 20
303.09296252910906
 42
0.46467694640159607
  0
VERTEX
  8
0
 10
1510.6000000000001
 20
277.26857593242937
 42
0
  0
VERTEX
  8
0
 10
1510.6000000000001
 20
200.18076923076924
 42
0
  0
SEQEND
  0
POLYLINE
  8
0
 10
0
 20
0
 39
0
 70
1
 66
1
  0
VERTEX
  8
0
 10
1495.6000000000001
 20
210.92068889324483
 42
1
  0
VERTEX
  8
0
 10
1495.6000000000001
 20
228.92068889324483
 42
1
  0
SEQEND
  0
POLYLINE
  8
0
 10
0
 20
0
 39
0
 70
1
 66
1
  0
VERTEX
  8
0
 10
1481.1961538461539
 20
390.23461538461538
 42
-0
  0
VERTEX
  8
0
 10
1481.1961538461539
 20
467.32242208627554
 42
0.46467694640159607
  0
VERTEX
  8
0
 10
1481.1961538461539
 20
493.14680868295522
 42
-0
  0
VERTEX
  8
0
 10
1481.1961538461539
 20
570.23461538461538
 42
0
  0
VERTEX
  8
0
 10
1511.1961538461539
 20
570.23461538461538
 42
0
  0
VERTEX
  8
0
 10
1511.1961538461539
 20
493.14680868295522
 42
0.46467694640159607
  0
VERTEX
  8
0
 10
1511.1961538461539
 20
467.32242208627554
 42
0
  0
VERTEX
  8
0
 10
1511.1961538461539
 20
390.23461538461538
 42
0
  0
SEQEND
  0
POLYLINE
  8
0
 10
0
 20
0
 39
0
 70
1
 66
1
  0
VERTEX
  8
0
 10
1496.1961538461539
 20
400.97453504709097
 42
1
  0
VERTEX
  8
0
 10
1496.1961538461539
 20
418.97453504709097
 42
1
  0
SEQEND
  0
POLYLINE
  8
0
 10
0
 20
0
 39
0
 70
1
 66
1
  0
VERTEX
  8
0
 10
1481.1961538461539
 20
580.28846153846155
 42
-0
  0
VERTEX
  8
0
 10
1481.1961538461539
 20
657.3762682401217
 42
0.46467694640159607
  0
VERTEX
  8
0
 10
1481.1961538461539
 20
683.20065483680139
 42
-0
  0
VERTEX
  8
0
 10
1481.1961538461539
 20
760.28846153846155
 42
0
  0
VERTEX
  8
0
 10
1511.1961538461539
 20
760.28846153846155
 42
0
  0
VERTEX
  8
0
 10
1511.1961538461539
 20
683.20065483680139
 42
0.46467694640159607
  0
VERTEX
  8
0
 10
1511.1961538461539
 20
657.3762682401217
 42
0
  0
VERTEX
  8
0
 10
1511.1961538461539
 20
580.28846153846155
 42
0
  0
SEQEND
  0
POLYLINE
  8
0
 10
0
 20
0
 39
0
 70
1
 66
1
  0
VERTEX
  8
0
 10
1496.1961538461539
 20
591.02838120093713
 42
1
  0
VERTEX
  8
0
 10
1496.1961538461539
 20
609.02838120093713
 42
1
  0
SEQEND
  0
POLYLINE
  8
0
 10
0
 20
0
 39
0
 70
1
 66
1
  0
VERTEX
  8
0
 10
1481.1961538461539
 20
770.34230769230771
 42
-0
  0
VERTEX
  8
0
 10
1481.1961538461539
 20
847.43011439396787
 42
0.46467694640159607
  0
VERTEX
  8
0
 10
1481.1961538461539
 20
873.25450099064756
 42
-0
  0
VERTEX
  8
0
 10
1481.1961538461539
 20
950.34230769230771
 42
0
  0
VERTEX
  8
0
 10
1511.1961538461539
 20
950.34230769230771
 42
0
  0
VERTEX
  8
0
 10
1511.1961538461539
 20
873.25450099064756
 42
0.46467694640159607
  0
VERTEX
  8
0
 10
1511.1961538461539
 20
847.43011439396787
 42
0
  0
VERTEX
  8
0
 10
1511.1961538461539
 20
770.34230769230771
 42
0
  0
SEQEND
  0
POLYLINE
  8
0
 10
0
 20
0
 39
0
 70
1
 66
1
  0
VERTEX
  8
0
 10
1496.1961538461539
 20
781.0822273547833
 42
1
  0
VERTEX
  8
0
 10
1496.1961538461539
 20
799.0822273547833
 42
1
  0
SEQEND
  0
ENDSEC
  0
EOF
