  0
SECTION
  2
ENTITIES
  0
POLYLINE
  8
0
 10
0
 20
0
 39
0
 70
1
 66
1
  0
VERTEX
  8
0
 10
0
 20
0
 42
-0
  0
VERTEX
  8
0
 10
2000
 20
0
 42
-0
  0
VERTEX
  8
0
 10
2000
 20
1200
 42
-0
  0
VERTEX
  8
0
 10
0
 20
1200
 42
-0
  0
SEQEND
  0
POLYLINE
  8
0
 10
0
 20
0
 39
0
 70
1
 66
1
  0
VERTEX
  8
0
 10
521.11876923076898
 20
610.23076923076928
 42
0
  0
VERTEX
  8
0
 10
221.11876923076903
 20
610.23076923076928
 42
0
  0
VERTEX
  8
0
 10
221.11876923076903
 20
1010.2307692307693
 42
-0
  0
VERTEX
  8
0
 10
721.1187692307692
 20
1010.2307692307693
 42
0
  0
VERTEX
  8
0
 10
721.1187692307692
 20
10.230769230769283
 42
0
  0
VERTEX
  8
0
 10
521.1187692307692
 20
10.230769230769283
 42
0
  0
SEQEND
  0
POLYLINE
  8
0
 10
0
 20
0
 39
0
 70
1
 66
1
  0
VERTEX
  8
0
 10
286.11876923076903
 20
945.23076923076928
 42
-0
  0
VERTEX
  8
0
 10
286.11876923076903
 20
675.23076923076928
 42
-0
  0
VERTEX
  8
0
 10
556.1187692307692
 20
675.23076923076928
 42
0
  0
VERTEX
  8
0
 10
556.1187692307692
 20
945.23076923076928
 42
0
  0
SEQEND
  0
POLYLINE
  8
0
 10
0
 20
0
 39
0
 70
1
 66
1
  0
VERTEX
  8
0
 10
576.1187692307692
 20
477.73076923076934
 42
-0
  0
VERTEX
  8
0
 10
576.1187692307692
 20
322.73076923076934
 42
-0
  0
VERTEX
  8
0
 10
681.1187692307692
 20
322.73076923076934
 42
0
  0
VERTEX
  8
0
 10
681.1187692307692
 20
477.73076923076934
 42
0
  0
SEQEND
  0
POLYLINE
  8
0
 10
0
 20
0
 39
0
 70
1
 66
1
  0
VERTEX
  8
0
 10
210.23076923076917
 20
410.23076923076928
 42
0
  0
VERTEX
  8
0
 10
510.23076923076917
 20
410.23076923076928
 42
0
  0
VERTEX
  8
0
 10
510.23076923076917
 20
10.230769230769283
 42
-0
  0
VERTEX
  8
0
 10
10.230769230769283
 20
10.230769230769283
 42
0
  0
VERTEX
  8
0
 10
10.230769230769283
 20
1010.2307692307693
 42
0
  0
VERTEX
  8
0
 10
210.23076923076928
 20
1010.2307692307693
 42
0
  0
SEQEND
  0
POLYLINE
  8
0
 10
0
 20
0
 39
0
 70
1
 66
1
  0
VERTEX
  8
0
 10
445.23076923076917
 20
75.230769230769283
 42
-0
  0
VERTEX
  8
0
 10
445.23076923076917
 20
345.23076923076928
 42
-0
  0
VERTEX
  8
0
 10
175.23076923076928
 20
345.23076923076928
 42
0
  0
VERTEX
  8
0
 10
175.23076923076928
 20
75.230769230769283
 42
0
  0
SEQEND
  0
POLYLINE
  8
0
 10
0
 20
0
 39
0
 70
1
 66
1
  0
VERTEX
  8
0
 10
155.23076923076928
 20
542.7307692307694
 42
-0
  0
VERTEX
  8
0
 10
155.23076923076928
 20
697.7307692307694
 42
-0
  0
VERTEX
  8
0
 10
50.230769230769283
 20
697.7307692307694
 42
0
  0
VERTEX
  8
0
 10
50.230769230769283
 20
542.7307692307694
 42
0
  0
SEQEND
  0
POLYLINE
  8
0
 10
0
 20
0
 39
0
 70
1
 66
1
  0
VERTEX
  8
0
 10
1242.1956923076921
 20
610.23076923076928
 42
0
  0
VERTEX
  8
0
 10
942.19569230769207
 20
610.23076923076928
 42
0
  0
VERTEX
  8
0
 10
942.19569230769207
 20
1010.2307692307693
 42
-0
  0
VERTEX
  8
0
 10
1442.1956923076923
 20
1010.2307692307693
 42
0
  0
VERTEX
  8
0
 10
1442.1956923076923
 20
10.230769230769283
 42
0
  0
VERTEX
  8
0
 10
1242.1956923076923
 20
10.230769230769283
 42
0
  0
SEQEND
  0
POLYLINE
  8
0
 10
0
 20
0
 39
0
 70
1
 66
1
  0
VERTEX
  8
0
 10
1007.1956923076921
 20
945.23076923076928
 42
-0
  0
VERTEX
  8
0
 10
1007.1956923076921
 20
675.23076923076928
 42
-0
  0
VERTEX
  8
0
 10
1277.1956923076923
 20
675.23076923076928
 42
0
  0
VERTEX
  8
0
 10
1277.1956923076923
 20
945.23076923076928
 42
0
  0
SEQEND
  0
POLYLINE
  8
0
 10
0
 20
0
 39
0
 70
1
 66
1
  0
VERTEX
  8
0
 10
1297.1956923076923
 20
477.73076923076934
 42
-0
  0
VERTEX
  8
0
 10
1297.1956923076923
 20
322.73076923076934
 42
-0
  0
VERTEX
  8
0
 10
1402.1956923076923
 20
322.73076923076934
 42
0
  0
VERTEX
  8
0
 10
1402.1956923076923
 20
477.73076923076934
 42
0
  0
SEQEND
  0
POLYLINE
  8
0
 10
0
 20
0
 39
0
 70
1
 66
1
  0
VERTEX
  8
0
 10
931.30769230769226
 20
410.23076923076928
 42
0
  0
VERTEX
  8
0
 10
1231.3076923076924
 20
410.23076923076928
 42
0
  0
VERTEX
  8
0
 10
1231.3076923076924
 20
10.230769230769283
 42
-0
  0
VERTEX
  8
0
 10
731.30769230769238
 20
10.230769230769283
 42
0
  0
VERTEX
  8
0
 10
731.30769230769238
 20
1010.2307692307693
 42
0
  0
VERTEX
  8
0
 10
931.30769230769238
 20
1010.2307692307693
 42
0
  0
SEQEND
  0
POLYLINE
  8
0
 10
0
 20
0
 39
0
 70
1
 66
1
  0
VERTEX
  8
0
 10
1166.3076923076924
 20
75.230769230769283
 42
-0
  0
VERTEX
  8
0
 10
1166.3076923076924
 20
345.23076923076928
 42
-0
  0
VERTEX
  8
0
 10
896.30769230769238
 20
345.23076923076928
 42
0
  0
VERTEX
  8
0
 10
896.30769230769238
 20
75.230769230769283
 42
0
  0
SEQEND
  0
POLYLINE
  8
0
 10
0
 20
0
 39
0
 70
1
 66
1
  0
VERTEX
  8
0
 10
876.30769230769238
 20
542.7307692307694
 42
-0
  0
VERTEX
  8
0
 10
876.30769230769238
 20
697.7307692307694
 42
-0
  0
VERTEX
  8
0
 10
771.30769230769238
 20
697.7307692307694
 42
0
  0
VERTEX
  8
0
 10
771.30769230769238
 20
542.7307692307694
 42
0
  0
SEQEND
  0
POLYLINE
  8
0
 10
0
 20
0
 39
0
 70
1
 66
1
  0
VERTEX
  8
0
 10
1523.3201317420373
 20
318.1031752366286
 42
0
  0
VERTEX
  8
0
 10
1452.3846153846155
 20
405.61544330303485
 42
-0
  0
VERTEX
  8
0
 10
1452.3846153846155
 20
625.97558124248803
 42
-0
  0
VERTEX
  8
0
 10
1924.3846153846155
 20
625.97558124248803
 42
-0
  0
VERTEX
  8
0
 10
1924.3846153846155
 20
405.61544330303485
 42
-0
  0
VERTEX
  8
0
 10
1853.4491142859827
 20
318.1031752366286
 42
-0
  0
VERTEX
  8
0
 10
1924.3846153846155
 20
255.92881305401141
 42
-0
  0
VERTEX
  8
0
 10
1924.3846153846155
 20
10.23076923076923
 42
-0
  0
VERTEX
  8
0
 10
1452.3846153846155
 20
10.23076923076923
 42
-0
  0
VERTEX
  8
0
 10
1452.3846153846155
 20
255.92881305401141
 42
0
  0
SEQEND
  0
POLYLINE
  8
0
 10
0
 20
0
 39
0
 70
1
 66
1
  0
VERTEX
  8
0
 10
1487.8523583045373
 20
411.74849994365985
 42
-0
  0
VERTEX
  8
0
 10
1562.0930504432092
 20
318.1031752366286
 42
-0
  0
VERTEX
  8
0
 10
1487.8523583045373
 20
249.32813556377704
 42
-0
  0
VERTEX
  8
0
 10
1487.8523583045373
 20
46.659316136286805
 42
-0
  0
VERTEX
  8
0
 10
1888.9168648352991
 20
46.659316136286805
 42
-0
  0
VERTEX
  8
0
 10
1888.9168648352991
 20
249.32813556377704
 42
0
  0
VERTEX
  8
0
 10
1814.6761803260217
 20
318.1031752366286
 42
0
  0
VERTEX
  8
0
 10
1888.9168648352991
 20
411.74849994365985
 42
-0
  0
VERTEX
  8
0
 10
1888.9168648352991
 20
593.65929706280053
 42
-0
  0
VERTEX
  8
0
 10
1487.8523583045373
 20
593.65929706280053
 42
-0
  0
SEQEND
  0
POLYLINE
  8
0
 10
0
 20
0
 39
0
 70
1
 66
1
  0
VERTEX
  8
0
 10
1579.236345503391
 20
1189.5371859644265
 42
-1
  0
VERTEX
  8
0
 10
1578.0713419666563
 20
922.5397322748513
 42
-1
  0
SEQEND
  0
POLYLINE
  8
0
 10
0
 20
0
 39
0
 70
1
 66
1
  0
VERTEX
  8
0
 10
1571.6882145836598
 20
1164.789917388428
 42
-0
  0
VERTEX
  8
0
 10
1571.6445814923964
 20
1154.7900127558596
 42
0.16008478403091431
  0
VERTEX
  8
0
 10
1514.4373200480554
 20
1131.3859075604878
 42
0
  0
VERTEX
  8
0
 10
1507.3971729276632
 20
1138.4877611902975
 42
0.034176722168922424
  0
VERTEX
  8
0
 10
1496.8295049366134
 20
1128.0119134392021
 42
-0
  0
VERTEX
  8
0
 10
1503.8696520570056
 20
1120.9100598093924
 42
0.16008478403091431
  0
VERTEX
  8
0
 10
1479.9672168298575
 20
1063.9092133931399
 42
0
  0
VERTEX
  8
0
 10
1469.9673121972892
 20
1063.9528464844034
 42
0.034176722168922424
  0
VERTEX
  8
0
 10
1469.9023854662346
 20
1049.0728299682751
 42
-0
  0
VERTEX
  8
0
 10
1479.902290098803
 20
1049.0291968770116
 42
0.16008478403091431
  0
VERTEX
  8
0
 10
1503.3063952941748
 20
991.82193543267067
 42
0
  0
VERTEX
  8
0
 10
1496.204541664365
 20
984.78178831227831
 42
0.034176722168922424
  0
VERTEX
  8
0
 10
1506.6803894154605
 20
974.21412032122862
 42
-0
  0
VERTEX
  8
0
 10
1513.7822430452702
 20
981.25426744162098
 42
0.16008478403091431
  0
VERTEX
  8
0
 10
1570.7830894615226
 20
957.35183221447278
 42
0
  0
VERTEX
  8
0
 10
1570.7394563702592
 20
947.35192758190442
 42
0.034176722168922424
  0
VERTEX
  8
0
 10
1585.6194728863875
 20
947.28700085084984
 42
-0
  0
VERTEX
  8
0
 10
1585.663105977651
 20
957.2869054834182
 42
0.16008478403091431
  0
VERTEX
  8
0
 10
1642.8703674219919
 20
980.69101067878989
 42
0
  0
VERTEX
  8
0
 10
1649.9105145423841
 20
973.58915704898027
 42
0.034176722168922424
  0
VERTEX
  8
0
 10
1660.4781825334339
 20
984.06500480007583
 42
-0
  0
VERTEX
  8
0
 10
1653.4380354130417
 20
991.16685842988545
 42
0.16008478403091431
  0
VERTEX
  8
0
 10
1677.3404706401898
 20
1048.1677048461379
 42
0
  0
VERTEX
  8
0
 10
1687.3403752727581
 20
1048.1240717548744
 42
0.034176722168922424
  0
VERTEX
  8
0
 10
1687.4053020038127
 20
1063.0040882710027
 42
-0
  0
VERTEX
  8
0
 10
1677.4053973712444
 20
1063.0477213622662
 42
0.16008478403091431
  0
VERTEX
  8
0
 10
1654.0012921758725
 20
1120.2549828066071
 42
0
  0
VERTEX
  8
0
 10
1661.1031458056823
 20
1127.2951299269994
 42
0.034176722168922424
  0
VERTEX
  8
0
 10
1650.6272980545868
 20
1137.8627979180492
 42
-0
  0
VERTEX
  8
0
 10
1643.5254444247771
 20
1130.8226507976569
 42
0.16008478403091431
  0
VERTEX
  8
0
 10
1586.5245980085247
 20
1154.725086024805
 42
0
  0
VERTEX
  8
0
 10
1586.5682310997881
 20
1164.7249906573734
 42
0.034176722168922424
  0
SEQEND
  0
POLYLINE
  8
0
 10
0
 20
0
 39
0
 70
1
 66
1
  0
VERTEX
  8
0
 10
1586.4671147341601
 20
903.07564750288805
 42
-1
  0
VERTEX
  8
0
 10
1585.3021111974253
 20
636.07819381331285
 42
-1
  0
SEQEND
  0
POLYLINE
  8
0
 10
0
 20
0
 39
0
 70
1
 66
1
  0
VERTEX
  8
0
 10
1578.9189838144289
 20
878.32837892688951
 42
-0
  0
VERTEX
  8
0
 10
1578.8753507231654
 20
868.32847429432115
 42
0.16008478403091431
  0
VERTEX
  8
0
 10
1521.6680892788245
 20
844.92436909894946
 42
0
  0
VERTEX
  8
0
 10
1514.6279421584322
 20
852.02622272875908
 42
0.034176722168922424
  0
VERTEX
  8
0
 10
1504.0602741673824
 20
841.55037497766352
 42
-0
  0
VERTEX
  8
0
 10
1511.1004212877747
 20
834.4485213478539
 42
0.16008478403091431
  0
VERTEX
  8
0
 10
1487.1979860606266
 20
777.44767493160157
 42
0
  0
VERTEX
  8
0
 10
1477.1980814280582
 20
777.49130802286504
 42
0.034176722168922424
  0
VERTEX
  8
0
 10
1477.1331546970036
 20
762.61129150673673
 42
-0
  0
VERTEX
  8
0
 10
1487.133059329572
 20
762.56765841547326
 42
0.16008478403091431
  0
VERTEX
  8
0
 10
1510.5371645249438
 20
705.36039697113222
 42
0
  0
VERTEX
  8
0
 10
1503.4353108951341
 20
698.32024985073986
 42
0.034176722168922424
  0
VERTEX
  8
0
 10
1513.9111586462295
 20
687.75258185969017
 42
-0
  0
VERTEX
  8
0
 10
1521.0130122760393
 20
694.79272898008253
 42
0.16008478403091431
  0
VERTEX
  8
0
 10
1578.0138586922917
 20
670.89029375293433
 42
0
  0
VERTEX
  8
0
 10
1577.9702256010282
 20
660.89038912036597
 42
0.034176722168922424
  0
VERTEX
  8
0
 10
1592.8502421171565
 20
660.82546238931138
 42
-0
  0
VERTEX
  8
0
 10
1592.89387520842
 20
670.82536702187974
 42
0.16008478403091431
  0
VERTEX
  8
0
 10
1650.1011366527609
 20
694.22947221725144
 42
0
  0
VERTEX
  8
0
 10
1657.1412837731532
 20
687.12761858744182
 42
0.034176722168922424
  0
VERTEX
  8
0
 10
1667.708951764203
 20
697.60346633853737
 42
-0
  0
VERTEX
  8
0
 10
1660.6688046438107
 20
704.705319968347
 42
0.16008478403091431
  0
VERTEX
  8
0
 10
1684.5712398709588
 20
761.70616638459933
 42
0
  0
VERTEX
  8
0
 10
1694.5711445035272
 20
761.66253329333585
 42
0.034176722168922424
  0
VERTEX
  8
0
 10
1694.6360712345818
 20
776.54254980946416
 42
-0
  0
VERTEX
  8
0
 10
1684.6361666020134
 20
776.58618290072764
 42
0.16008478403091431
  0
VERTEX
  8
0
 10
1661.2320614066416
 20
833.79344434506868
 42
0
  0
VERTEX
  8
0
 10
1668.3339150364513
 20
840.83359146546104
 42
0.034176722168922424
  0
VERTEX
  8
0
 10
1657.8580672853559
 20
851.40125945651073
 42
-0
  0
VERTEX
  8
0
 10
1650.7562136555462
 20
844.36111233611837
 42
0.16008478403091431
  0
VERTEX
  8
0
 10
1593.7553672392937
 20
868.26354756326657
 42
0
  0
VERTEX
  8
0
 10
1593.7990003305572
 20
878.26345219583493
 42
0.034176722168922424
  0
SEQEND
  0
POLYLINE
  8
0
 10
0
 20
0
 39
0
 70
1
 66
1
  0
VERTEX
  8
0
 10
1636.4671147341601
 20
323.84487827211876
 42
-1
  0
VERTEX
  8
0
 10
1635.3021111974253
 20
56.847424582543596
 42
-1
  0
SEQEND
  0
POLYLINE
  8
0
 10
0
 20
0
 39
0
 70
1
 66
1
  0
VERTEX
  8
0
 10
1628.9189838144289
 20
299.09760969612023
 42
-0
  0
VERTEX
  8
0
 10
1628.8753507231654
 20
289.09770506355187
 42
0.16008478403091431
  0
VERTEX
  8
0
 10
1571.6680892788245
 20
265.69359986818017
 42
0
  0
VERTEX
  8
0
 10
1564.6279421584322
 20
272.79545349798985
 42
0.034176722168922424
  0
VERTEX
  8
0
 10
1554.0602741673824
 20
262.3196057468943
 42
-0
  0
VERTEX
  8
0
 10
1561.1004212877747
 20
255.21775211708467
 42
0.16008478403091431
  0
VERTEX
  8
0
 10
1537.1979860606266
 20
198.21690570083229
 42
0
  0
VERTEX
  8
0
 10
1527.1980814280582
 20
198.26053879209576
 42
0.034176722168922424
  0
VERTEX
  8
0
 10
1527.1331546970036
 20
183.38052227596745
 42
-0
  0
VERTEX
  8
0
 10
1537.133059329572
 20
183.33688918470398
 42
0.16008478403091431
  0
VERTEX
  8
0
 10
1560.5371645249438
 20
126.12962774036299
 42
0
  0
VERTEX
  8
0
 10
1553.4353108951341
 20
119.08948061997064
 42
0.034176722168922424
  0
VERTEX
  8
0
 10
1563.9111586462295
 20
108.52181262892093
 42
-0
  0
VERTEX
  8
0
 10
1571.0130122760393
 20
115.56195974931327
 42
0.16008478403091431
  0
VERTEX
  8
0
 10
1628.0138586922917
 20
91.659524522165071
 42
0
  0
VERTEX
  8
0
 10
1627.9702256010282
 20
81.659619889596712
 42
0.034176722168922424
  0
VERTEX
  8
0
 10
1642.8502421171565
 20
81.594693158542128
 42
-0
  0
VERTEX
  8
0
 10
1642.89387520842
 20
91.594597791110488
 42
0.16008478403091431
  0
VERTEX
  8
0
 10
1700.1011366527609
 20
114.99870298648219
 42
0
  0
VERTEX
  8
0
 10
1707.1412837731532
 20
107.89684935667255
 42
0.034176722168922424
  0
VERTEX
  8
0
 10
1717.708951764203
 20
118.37269710776808
 42
-0
  0
VERTEX
  8
0
 10
1710.6688046438107
 20
125.47455073757772
 42
0.16008478403091431
  0
VERTEX
  8
0
 10
1734.5712398709588
 20
182.4753971538301
 42
0
  0
VERTEX
  8
0
 10
1744.5711445035272
 20
182.43176406256663
 42
0.034176722168922424
  0
VERTEX
  8
0
 10
1744.6360712345818
 20
197.31178057869494
 42
-0
  0
VERTEX
  8
0
 10
1734.6361666020134
 20
197.35541366995841
 42
0.16008478403091431
  0
VERTEX
  8
0
 10
1711.2320614066416
 20
254.5626751142994
 42
0
  0
VERTEX
  8
0
 10
1718.3339150364513
 20
261.60282223469176
 42
0.034176722168922424
  0
VERTEX
  8
0
 10
1707.8580672853559
 20
272.17049022574145
 42
-0
  0
VERTEX
  8
0
 10
1700.7562136555462
 20
265.13034310534908
 42
0.16008478403091431
  0
VERTEX
  8
0
 10
1643.7553672392937
 20
289.03277833249729
 42
0
  0
VERTEX
  8
0
 10
1643.7990003305572
 20
299.03268296506565
 42
0.034176722168922424
  0
SEQEND
  0
POLYLINE
  8
0
 10
0
 20
0
 39
0
 70
1
 66
1
  0
VERTEX
  8
0
 10
1734.6209608880063
 20
583.38333981058031
 42
-1
  0
VERTEX
  8
0
 10
1733.4559573512715
 20
316.38588612100511
 42
-1
  0
SEQEND
  0
POLYLINE
  8
0
 10
0
 20
0
 39
0
 70
1
 66
1
  0
VERTEX
  8
0
 10
1727.0728299682751
 20
558.63607123458178
 42
-0
  0
VERTEX
  8
0
 10
1727.0291968770116
 20
548.63616660201342
 42
0.16008478403091431
  0
VERTEX
  8
0
 10
1669.8219354326707
 20
525.23206140664172
 42
0
  0
VERTEX
  8
0
 10
1662.7817883122784
 20
532.33391503645134
 42
0.034176722168922424
  0
VERTEX
  8
0
 10
1652.2141203212286
 20
521.85806728535579
 42
-0
  0
VERTEX
  8
0
 10
1659.2542674416209
 20
514.75621365554616
 42
0.16008478403091431
  0
VERTEX
  8
0
 10
1635.3518322144728
 20
457.75536723929383
 42
0
  0
VERTEX
  8
0
 10
1625.3519275819044
 20
457.79900033055731
 42
0.034176722168922424
  0
VERTEX
  8
0
 10
1625.2870008508498
 20
442.918983814429
 42
-0
  0
VERTEX
  8
0
 10
1635.2869054834182
 20
442.87535072316552
 42
0.16008478403091431
  0
VERTEX
  8
0
 10
1658.69101067879
 20
385.66808927882448
 42
0
  0
VERTEX
  8
0
 10
1651.5891570489803
 20
378.62794215843218
 42
0.034176722168922424
  0
VERTEX
  8
0
 10
1662.0650048000757
 20
368.06027416738243
 42
-0
  0
VERTEX
  8
0
 10
1669.1668584298855
 20
375.10042128777479
 42
0.16008478403091431
  0
VERTEX
  8
0
 10
1726.1677048461379
 20
351.19798606062659
 42
0
  0
VERTEX
  8
0
 10
1726.1240717548744
 20
341.19808142805823
 42
0.034176722168922424
  0
VERTEX
  8
0
 10
1741.0040882710027
 20
341.13315469700365
 42
-0
  0
VERTEX
  8
0
 10
1741.0477213622662
 20
351.13305932957201
 42
0.16008478403091431
  0
VERTEX
  8
0
 10
1798.2549828066071
 20
374.53716452494371
 42
0
  0
VERTEX
  8
0
 10
1805.2951299269994
 20
367.43531089513408
 42
0.034176722168922424
  0
VERTEX
  8
0
 10
1815.8627979180492
 20
377.91115864622958
 42
-0
  0
VERTEX
  8
0
 10
1808.8226507976569
 20
385.01301227603926
 42
0.16008478403091431
  0
VERTEX
  8
0
 10
1832.725086024805
 20
442.01385869229159
 42
0
  0
VERTEX
  8
0
 10
1842.7249906573734
 20
441.97022560102812
 42
0.034176722168922424
  0
VERTEX
  8
0
 10
1842.789917388428
 20
456.85024211715643
 42
-0
  0
VERTEX
  8
0
 10
1832.7900127558596
 20
456.8938752084199
 42
0.16008478403091431
  0
VERTEX
  8
0
 10
1809.3859075604878
 20
514.10113665276094
 42
0
  0
VERTEX
  8
0
 10
1816.4877611902975
 20
521.1412837731533
 42
0.034176722168922424
  0
VERTEX
  8
0
 10
1806.0119134392021
 20
531.70895176420299
 42
-0
  0
VERTEX
  8
0
 10
1798.9100598093924
 20
524.66880464381063
 42
0.16008478403091431
  0
VERTEX
  8
0
 10
1741.9092133931399
 20
548.57123987095883
 42
0
  0
VERTEX
  8
0
 10
1741.9528464844034
 20
558.57114450352719
 42
0.034176722168922424
  0
SEQEND
  0
POLYLINE
  8
0
 10
0
 20
0
 39
0
 70
1
 66
1
  0
VERTEX
  8
0
 10
1820.4671147341601
 20
1052.1525705798113
 42
-1
  0
VERTEX
  8
0
 10
1819.3021111974253
 20
785.15511689023594
 42
-1
  0
SEQEND
  0
POLYLINE
  8
0
 10
0
 20
0
 39
0
 70
1
 66
1
  0
VERTEX
  8
0
 10
1812.9189838144289
 20
1027.4053020038127
 42
-0
  0
VERTEX
  8
0
 10
1812.8753507231654
 20
1017.4053973712442
 42
0.16008478403091431
  0
VERTEX
  8
0
 10
1755.6680892788245
 20
994.00129217587255
 42
0
  0
VERTEX
  8
0
 10
1748.6279421584322
 20
1001.1031458056822
 42
0.034176722168922424
  0
VERTEX
  8
0
 10
1738.0602741673824
 20
990.62729805458662
 42
-0
  0
VERTEX
  8
0
 10
1745.1004212877747
 20
983.52544442477699
 42
0.16008478403091431
  0
VERTEX
  8
0
 10
1721.1979860606266
 20
926.52459800852466
 42
0
  0
VERTEX
  8
0
 10
1711.1980814280582
 20
926.56823109978814
 42
0.034176722168922424
  0
VERTEX
  8
0
 10
1711.1331546970036
 20
911.68821458365983
 42
-0
  0
VERTEX
  8
0
 10
1721.133059329572
 20
911.64458149239636
 42
0.16008478403091431
  0
VERTEX
  8
0
 10
1744.5371645249438
 20
854.43732004805531
 42
0
  0
VERTEX
  8
0
 10
1737.4353108951341
 20
847.39717292766295
 42
0.034176722168922424
  0
VERTEX
  8
0
 10
1747.9111586462295
 20
836.82950493661326
 42
-0
  0
VERTEX
  8
0
 10
1755.0130122760393
 20
843.86965205700562
 42
0.16008478403091431
  0
VERTEX
  8
0
 10
1812.0138586922917
 20
819.96721682985742
 42
0
  0
VERTEX
  8
0
 10
1811.9702256010282
 20
809.96731219728906
 42
0.034176722168922424
  0
VERTEX
  8
0
 10
1826.8502421171565
 20
809.90238546623448
 42
-0
  0
VERTEX
  8
0
 10
1826.89387520842
 20
819.90229009880284
 42
0.16008478403091431
  0
VERTEX
  8
0
 10
1884.1011366527609
 20
843.30639529417454
 42
0
  0
VERTEX
  8
0
 10
1891.1412837731532
 20
836.20454166436491
 42
0.034176722168922424
  0
VERTEX
  8
0
 10
1901.708951764203
 20
846.68038941546047
 42
-0
  0
VERTEX
  8
0
 10
1894.6688046438107
 20
853.78224304527009
 42
0.16008478403091431
  0
VERTEX
  8
0
 10
1918.5712398709588
 20
910.78308946152242
 42
0
  0
VERTEX
  8
0
 10
1928.5711445035272
 20
910.73945637025895
 42
0.034176722168922424
  0
VERTEX
  8
0
 10
1928.6360712345818
 20
925.61947288638726
 42
-0
  0
VERTEX
  8
0
 10
1918.6361666020134
 20
925.66310597765073
 42
0.16008478403091431
  0
VERTEX
  8
0
 10
1895.2320614066416
 20
982.87036742199177
 42
0
  0
VERTEX
  8
0
 10
1902.3339150364513
 20
989.91051454238413
 42
0.034176722168922424
  0
VERTEX
  8
0
 10
1891.8580672853559
 20
1000.4781825334338
 42
-0
  0
VERTEX
  8
0
 10
1884.7562136555462
 20
993.43803541304146
 42
0.16008478403091431
  0
VERTEX
  8
0
 10
1827.7553672392937
 20
1017.3404706401897
 42
0
  0
VERTEX
  8
0
 10
1827.7990003305572
 20
1027.3403752727581
 42
0.034176722168922424
  0
SEQEND
  0
POLYLINE
  8
0
 10
0
 20
0
 39
0
 70
1
 66
1
  0
VERTEX
  8
0
 10
185.46153846153845
 20
221.46153846153845
 42
-0
  0
VERTEX
  8
0
 10
185.46153846153845
 20
299.46153846153845
 42
0
  0
VERTEX
  8
0
 10
191.46153846153845
 20
305.46153846153845
 42
-0
  0
VERTEX
  8
0
 10
239.46153846153845
 20
305.46153846153845
 42
0
  0
VERTEX
  8
0
 10
245.46153846153845
 20
299.46153846153845
 42
0
  0
VERTEX
  8
0
 10
245.46153846153845
 20
276.46153846153845
 42
-0
  0
VERTEX
  8
0
 10
251.46153846153845
 20
270.46153846153845
 42
-0
  0
VERTEX
  8
0
 10
319.46153846153845
 20
270.46153846153845
 42
0
  0
VERTEX
  8
0
 10
325.46153846153845
 20
276.46153846153845
 42
-0
  0
VERTEX
  8
0
 10
325.46153846153845
 20
299.46153846153845
 42
-0
  0
VERTEX
  8
0
 10
331.46153846153845
 20
305.46153846153845
 42
-0
  0
VERTEX
  8
0
 10
379.46153846153845
 20
305.46153846153845
 42
0
  0
VERTEX
  8
0
 10
385.46153846153845
 20
299.46153846153845
 42
-0
  0
VERTEX
  8
0
 10
385.46153846153845
 20
221.46153846153845
 42
0
  0
VERTEX
  8
0
 10
379.46153846153845
 20
215.46153846153845
 42
-0
  0
VERTEX
  8
0
 10
366.46153846153845
 20
215.46153846153845
 42
0
  0
VERTEX
  8
0
 10
360.46153846153845
 20
209.46153846153848
 42
-0
  0
VERTEX
  8
0
 10
360.46153846153845
 20
151.46153846153848
 42
-0
  0
VERTEX
  8
0
 10
366.46153846153845
 20
145.46153846153848
 42
0
  0
VERTEX
  8
0
 10
379.46153846153845
 20
145.46153846153848
 42
-0
  0
VERTEX
  8
0
 10
385.46153846153845
 20
139.46153846153848
 42
-0
  0
VERTEX
  8
0
 10
385.46153846153845
 20
91.461538461538481
 42
0
  0
VERTEX
  8
0
 10
379.46153846153845
 20
85.461538461538481
 42
-0
  0
VERTEX
  8
0
 10
191.46153846153845
 20
85.461538461538467
 42
0
  0
VERTEX
  8
0
 10
185.46153846153845
 20
91.461538461538467
 42
-0
  0
VERTEX
  8
0
 10
185.46153846153845
 20
139.46153846153845
 42
0
  0
VERTEX
  8
0
 10
191.46153846153845
 20
145.46153846153845
 42
0
  0
VERTEX
  8
0
 10
204.46153846153845
 20
145.46153846153845
 42
0
  0
VERTEX
  8
0
 10
210.46153846153845
 20
151.46153846153845
 42
-0
  0
VERTEX
  8
0
 10
210.46153846153845
 20
209.46153846153845
 42
0
  0
VERTEX
  8
0
 10
204.46153846153845
 20
215.46153846153845
 42
-0
  0
VERTEX
  8
0
 10
191.46153846153845
 20
215.46153846153845
 42
0
  0
SEQEND
  0
POLYLINE
  8
0
 10
0
 20
0
 39
0
 70
1
 66
1
  0
VERTEX
  8
0
 10
311.46153846153845
 20
141.66153922447793
 42
-0
  0
VERTEX
  8
0
 10
311.46153846153845
 20
209.25109687218301
 42
0.33088359236717224
  0
VERTEX
  8
0
 10
303.63461890587439
 20
219.7834989107572
 42
0.1473628431558609
  0
VERTEX
  8
0
 10
267.28846564659705
 20
219.7834989107572
 42
0.33088359236717224
  0
VERTEX
  8
0
 10
259.46153846153845
 20
209.25109687218298
 42
0
  0
VERTEX
  8
0
 10
259.46153846153845
 20
141.66153922447793
 42
0.41421356797218323
  0
VERTEX
  8
0
 10
260.66153540978064
 20
140.46153846153848
 42
0
  0
VERTEX
  8
0
 10
310.26154151329627
 20
140.46153846153848
 42
0.41421356797218323
  0
SEQEND
  0
POLYLINE
  8
0
 10
0
 20
0
 39
0
 70
1
 66
1
  0
VERTEX
  8
0
 10
296.38461538461536
 20
821.46153846153845
 42
-0
  0
VERTEX
  8
0
 10
296.38461538461536
 20
899.46153846153845
 42
0
  0
VERTEX
  8
0
 10
302.38461538461536
 20
905.46153846153845
 42
-0
  0
VERTEX
  8
0
 10
350.38461538461536
 20
905.46153846153845
 42
0
  0
VERTEX
  8
0
 10
356.38461538461536
 20
899.46153846153845
 42
0
  0
VERTEX
  8
0
 10
356.38461538461536
 20
876.46153846153845
 42
-0
  0
VERTEX
  8
0
 10
362.38461538461536
 20
870.46153846153845
 42
-0
  0
VERTEX
  8
0
 10
430.38461538461536
 20
870.46153846153845
 42
0
  0
VERTEX
  8
0
 10
436.38461538461536
 20
876.46153846153845
 42
-0
  0
VERTEX
  8
0
 10
436.38461538461536
 20
899.46153846153845
 42
-0
  0
VERTEX
  8
0
 10
442.38461538461536
 20
905.46153846153845
 42
-0
  0
VERTEX
  8
0
 10
490.38461538461536
 20
905.46153846153845
 42
0
  0
VERTEX
  8
0
 10
496.38461538461536
 20
899.46153846153845
 42
-0
  0
VERTEX
  8
0
 10
496.38461538461536
 20
821.46153846153845
 42
0
  0
VERTEX
  8
0
 10
490.38461538461536
 20
815.46153846153845
 42
-0
  0
VERTEX
  8
0
 10
477.38461538461536
 20
815.46153846153845
 42
0
  0
VERTEX
  8
0
 10
471.38461538461536
 20
809.46153846153845
 42
-0
  0
VERTEX
  8
0
 10
471.38461538461536
 20
751.46153846153845
 42
-0
  0
VERTEX
  8
0
 10
477.38461538461536
 20
745.46153846153845
 42
0
  0
VERTEX
  8
0
 10
490.38461538461536
 20
745.46153846153845
 42
-0
  0
VERTEX
  8
0
 10
496.38461538461536
 20
739.46153846153845
 42
-0
  0
VERTEX
  8
0
 10
496.38461538461536
 20
691.46153846153845
 42
0
  0
VERTEX
  8
0
 10
490.38461538461536
 20
685.46153846153845
 42
-0
  0
VERTEX
  8
0
 10
302.38461538461536
 20
685.46153846153845
 42
0
  0
VERTEX
  8
0
 10
296.38461538461536
 20
691.46153846153845
 42
-0
  0
VERTEX
  8
0
 10
296.38461538461536
 20
739.46153846153845
 42
0
  0
VERTEX
  8
0
 10
302.38461538461536
 20
745.46153846153845
 42
0
  0
VERTEX
  8
0
 10
315.38461538461536
 20
745.46153846153845
 42
0
  0
VERTEX
  8
0
 10
321.38461538461536
 20
751.46153846153845
 42
-0
  0
VERTEX
  8
0
 10
321.38461538461536
 20
809.46153846153845
 42
0
  0
VERTEX
  8
0
 10
315.38461538461536
 20
815.46153846153845
 42
-0
  0
VERTEX
  8
0
 10
302.38461538461536
 20
815.46153846153845
 42
0
  0
SEQEND
  0
POLYLINE
  8
0
 10
0
 20
0
 39
0
 70
1
 66
1
  0
VERTEX
  8
0
 10
422.38461538461536
 20
741.66153922447791
 42
-0
  0
VERTEX
  8
0
 10
422.38461538461536
 20
809.25109687218298
 42
0.33088359236717224
  0
VERTEX
  8
0
 10
414.5576958289513
 20
819.7834989107572
 42
0.1473628431558609
  0
VERTEX
  8
0
 10
378.21154256967395
 20
819.7834989107572
 42
0.33088359236717224
  0
VERTEX
  8
0
 10
370.38461538461536
 20
809.25109687218298
 42
0
  0
VERTEX
  8
0
 10
370.38461538461536
 20
741.66153922447791
 42
0.41421356797218323
  0
VERTEX
  8
0
 10
371.58461233285755
 20
740.46153846153845
 42
0
  0
VERTEX
  8
0
 10
421.18461843637317
 20
740.46153846153845
 42
0.41421356797218323
  0
SEQEND
  0
POLYLINE
  8
0
 10
0
 20
0
 39
0
 70
1
 66
1
  0
VERTEX
  8
0
 10
906.53846153846155
 20
221.46153846153845
 42
-0
  0
VERTEX
  8
0
 10
906.53846153846155
 20
299.46153846153845
 42
0
  0
VERTEX
  8
0
 10
912.53846153846155
 20
305.46153846153845
 42
-0
  0
VERTEX
  8
0
 10
960.53846153846155
 20
305.46153846153845
 42
0
  0
VERTEX
  8
0
 10
966.53846153846155
 20
299.46153846153845
 42
0
  0
VERTEX
  8
0
 10
966.53846153846155
 20
276.46153846153845
 42
-0
  0
VERTEX
  8
0
 10
972.53846153846155
 20
270.46153846153845
 42
-0
  0
VERTEX
  8
0
 10
1040.5384615384614
 20
270.46153846153845
 42
0
  0
VERTEX
  8
0
 10
1046.5384615384614
 20
276.46153846153845
 42
-0
  0
VERTEX
  8
0
 10
1046.5384615384614
 20
299.46153846153845
 42
-0
  0
VERTEX
  8
0
 10
1052.5384615384614
 20
305.46153846153845
 42
-0
  0
VERTEX
  8
0
 10
1100.5384615384614
 20
305.46153846153845
 42
0
  0
VERTEX
  8
0
 10
1106.5384615384614
 20
299.46153846153845
 42
-0
  0
VERTEX
  8
0
 10
1106.5384615384614
 20
221.46153846153845
 42
0
  0
VERTEX
  8
0
 10
1100.5384615384614
 20
215.46153846153845
 42
-0
  0
VERTEX
  8
0
 10
1087.5384615384614
 20
215.46153846153845
 42
0
  0
VERTEX
  8
0
 10
1081.5384615384614
 20
209.46153846153848
 42
-0
  0
VERTEX
  8
0
 10
1081.5384615384614
 20
151.46153846153848
 42
-0
  0
VERTEX
  8
0
 10
1087.5384615384614
 20
145.46153846153848
 42
0
  0
VERTEX
  8
0
 10
1100.5384615384614
 20
145.46153846153848
 42
-0
  0
VERTEX
  8
0
 10
1106.5384615384614
 20
139.46153846153848
 42
-0
  0
VERTEX
  8
0
 10
1106.5384615384614
 20
91.461538461538481
 42
0
  0
VERTEX
  8
0
 10
1100.5384615384614
 20
85.461538461538481
 42
-0
  0
VERTEX
  8
0
 10
912.53846153846155
 20
85.461538461538467
 42
0
  0
VERTEX
  8
0
 10
906.53846153846155
 20
91.461538461538467
 42
-0
  0
VERTEX
  8
0
 10
906.53846153846155
 20
139.46153846153845
 42
0
  0
VERTEX
  8
0
 10
912.53846153846155
 20
145.46153846153845
 42
0
  0
VERTEX
  8
0
 10
925.53846153846155
 20
145.46153846153845
 42
0
  0
VERTEX
  8
0
 10
931.53846153846155
 20
151.46153846153845
 42
-0
  0
VERTEX
  8
0
 10
931.53846153846155
 20
209.46153846153845
 42
0
  0
VERTEX
  8
0
 10
925.53846153846155
 20
215.46153846153845
 42
-0
  0
VERTEX
  8
0
 10
912.53846153846155
 20
215.46153846153845
 42
0
  0
SEQEND
  0
POLYLINE
  8
0
 10
0
 20
0
 39
0
 70
1
 66
1
  0
VERTEX
  8
0
 10
1032.5384615384614
 20
141.66153922447793
 42
-0
  0
VERTEX
  8
0
 10
1032.5384615384614
 20
209.25109687218301
 42
0.33088359236717224
  0
VERTEX
  8
0
 10
1024.7115419827974
 20
219.7834989107572
 42
0.1473628431558609
  0
VERTEX
  8
0
 10
988.36538872352014
 20
219.7834989107572
 42
0.33088359236717224
  0
VERTEX
  8
0
 10
980.53846153846155
 20
209.25109687218298
 42
0
  0
VERTEX
  8
0
 10
980.53846153846155
 20
141.66153922447793
 42
0.41421356797218323
  0
VERTEX
  8
0
 10
981.73845848670373
 20
140.46153846153848
 42
0
  0
VERTEX
  8
0
 10
1031.3384645902192
 20
140.46153846153848
 42
0.41421356797218323
  0
SEQEND
  0
POLYLINE
  8
0
 10
0
 20
0
 39
0
 70
1
 66
1
  0
VERTEX
  8
0
 10
1017.4615384615385
 20
821.46153846153845
 42
-0
  0
VERTEX
  8
0
 10
1017.4615384615385
 20
899.46153846153845
 42
0
  0
VERTEX
  8
0
 10
1023.4615384615385
 20
905.46153846153845
 42
-0
  0
VERTEX
  8
0
 10
1071.4615384615383
 20
905.46153846153845
 42
0
  0
VERTEX
  8
0
 10
1077.4615384615383
 20
899.46153846153845
 42
0
  0
VERTEX
  8
0
 10
1077.4615384615383
 20
876.46153846153845
 42
-0
  0
VERTEX
  8
0
 10
1083.4615384615383
 20
870.46153846153845
 42
-0
  0
VERTEX
  8
0
 10
1151.4615384615386
 20
870.46153846153845
 42
0
  0
VERTEX
  8
0
 10
1157.4615384615386
 20
876.46153846153845
 42
-0
  0
VERTEX
  8
0
 10
1157.4615384615386
 20
899.46153846153845
 42
-0
  0
VERTEX
  8
0
 10
1163.4615384615386
 20
905.46153846153845
 42
-0
  0
VERTEX
  8
0
 10
1211.4615384615386
 20
905.46153846153845
 42
0
  0
VERTEX
  8
0
 10
1217.4615384615386
 20
899.46153846153845
 42
-0
  0
VERTEX
  8
0
 10
1217.4615384615386
 20
821.46153846153845
 42
0
  0
VERTEX
  8
0
 10
1211.4615384615386
 20
815.46153846153845
 42
-0
  0
VERTEX
  8
0
 10
1198.4615384615386
 20
815.46153846153845
 42
0
  0
VERTEX
  8
0
 10
1192.4615384615386
 20
809.46153846153845
 42
-0
  0
VERTEX
  8
0
 10
1192.4615384615386
 20
751.46153846153845
 42
-0
  0
VERTEX
  8
0
 10
1198.4615384615386
 20
745.46153846153845
 42
0
  0
VERTEX
  8
0
 10
1211.4615384615386
 20
745.46153846153845
 42
-0
  0
VERTEX
  8
0
 10
1217.4615384615386
 20
739.46153846153845
 42
-0
  0
VERTEX
  8
0
 10
1217.4615384615386
 20
691.46153846153845
 42
0
  0
VERTEX
  8
0
 10
1211.4615384615386
 20
685.46153846153845
 42
-0
  0
VERTEX
  8
0
 10
1023.4615384615385
 20
685.46153846153845
 42
0
  0
VERTEX
  8
0
 10
1017.4615384615385
 20
691.46153846153845
 42
-0
  0
VERTEX
  8
0
 10
1017.4615384615385
 20
739.46153846153845
 42
0
  0
VERTEX
  8
0
 10
1023.4615384615385
 20
745.46153846153845
 42
0
  0
VERTEX
  8
0
 10
1036.4615384615383
 20
745.46153846153845
 42
0
  0
VERTEX
  8
0
 10
1042.4615384615383
 20
751.46153846153845
 42
-0
  0
VERTEX
  8
0
 10
1042.4615384615383
 20
809.46153846153845
 42
0
  0
VERTEX
  8
0
 10
1036.4615384615383
 20
815.46153846153845
 42
-0
  0
VERTEX
  8
0
 10
1023.4615384615385
 20
815.46153846153845
 42
0
  0
SEQEND
  0
POLYLINE
  8
0
 10
0
 20
0
 39
0
 70
1
 66
1
  0
VERTEX
  8
0
 10
1143.4615384615386
 20
741.66153922447791
 42
-0
  0
VERTEX
  8
0
 10
1143.4615384615383
 20
809.25109687218298
 42
0.33088359236717224
  0
VERTEX
  8
0
 10
1135.6346189058743
 20
819.7834989107572
 42
0.1473628431558609
  0
VERTEX
  8
0
 10
1099.2884656465969
 20
819.7834989107572
 42
0.33088359236717224
  0
VERTEX
  8
0
 10
1091.4615384615383
 20
809.25109687218298
 42
0
  0
VERTEX
  8
0
 10
1091.4615384615386
 20
741.66153922447791
 42
0.41421356797218323
  0
VERTEX
  8
0
 10
1092.6615354097808
 20
740.46153846153845
 42
0
  0
VERTEX
  8
0
 10
1142.2615415132964
 20
740.46153846153845
 42
0.41421356797218323
  0
SEQEND
  0
POLYLINE
  8
0
 10
0
 20
0
 39
0
 70
1
 66
1
  0
VERTEX
  8
0
 10
110.23077686016376
 20
1122.3846153846155
 42
0
  0
VERTEX
  8
0
 10
110.23077686016376
 20
1089.3846153846155
 42
0
  0
VERTEX
  8
0
 10
80.230776860163758
 20
1089.3846153846155
 42
0
  0
VERTEX
  8
0
 10
80.230776860163758
 20
1030.3846153846155
 42
0
  0
VERTEX
  8
0
 10
70.230776860163758
 20
1020.3846153846154
 42
0
  0
VERTEX
  8
0
 10
10.230769230769226
 20
1020.3846153846154
 42
0
  0
VERTEX
  8
0
 10
10.230769230769226
 20
1030.3846153846155
 42
0
  0
VERTEX
  8
0
 10
36.572115971491868
 20
1179.7737984290488
 42
-0.36396992206573486
  0
VERTEX
  8
0
 10
44.450579716609056
 20
1186.3846230140098
 42
0
  0
VERTEX
  8
0
 10
119.23077686016376
 20
1186.3846230140098
 42
-1
  0
VERTEX
  8
0
 10
119.23077686016376
 20
1126.3846153846155
 42
0
  0
VERTEX
  8
0
 10
114.2307616013747
 20
1126.3846153846155
 42
0.41421392560005188
  0
SEQEND
  0
POLYLINE
  8
0
 10
0
 20
0
 39
0
 70
1
 66
1
  0
VERTEX
  8
0
 10
116.23077686016376
 20
1148.3846230140098
 42
1
  0
VERTEX
  8
0
 10
116.23077686016376
 20
1164.3846230140098
 42
1
  0
SEQEND
  0
POLYLINE
  8
0
 10
0
 20
0
 39
0
 70
1
 66
1
  0
VERTEX
  8
0
 10
66.230776860163758
 20
1155.7846169104942
 42
1
  0
VERTEX
  8
0
 10
66.230776860163758
 20
1168.9846291175254
 42
1
  0
SEQEND
  0
POLYLINE
  8
0
 10
0
 20
0
 39
0
 70
1
 66
1
  0
VERTEX
  8
0
 10
129.43397652218158
 20
1084.3846230140098
 42
0
  0
VERTEX
  8
0
 10
129.43397652218158
 20
1117.3846230140098
 42
0
  0
VERTEX
  8
0
 10
159.43397652218158
 20
1117.3846230140098
 42
0
  0
VERTEX
  8
0
 10
159.43397652218158
 20
1176.3846230140098
 42
0
  0
VERTEX
  8
0
 10
169.43397652218158
 20
1186.3846230140098
 42
0
  0
VERTEX
  8
0
 10
229.43398415157611
 20
1186.3846230140098
 42
0
  0
VERTEX
  8
0
 10
229.43398415157611
 20
1176.3846230140098
 42
0
  0
VERTEX
  8
0
 10
203.09263741085346
 20
1026.9954399695762
 42
-0.36396992206573486
  0
VERTEX
  8
0
 10
195.21417366573627
 20
1020.3846153846152
 42
0
  0
VERTEX
  8
0
 10
120.43397652218158
 20
1020.3846153846152
 42
-1
  0
VERTEX
  8
0
 10
120.43397652218158
 20
1080.3846230140098
 42
0
  0
VERTEX
  8
0
 10
125.43399178097064
 20
1080.3846230140098
 42
0.41421392560005188
  0
SEQEND
  0
POLYLINE
  8
0
 10
0
 20
0
 39
0
 70
1
 66
1
  0
VERTEX
  8
0
 10
123.43397652218158
 20
1058.3846153846152
 42
1
  0
VERTEX
  8
0
 10
123.43397652218158
 20
1042.3846153846152
 42
1
  0
SEQEND
  0
POLYLINE
  8
0
 10
0
 20
0
 39
0
 70
1
 66
1
  0
VERTEX
  8
0
 10
173.43397652218158
 20
1050.9846214881309
 42
1
  0
VERTEX
  8
0
 10
173.43397652218158
 20
1037.7846092810996
 42
1
  0
SEQEND
  0
POLYLINE
  8
0
 10
0
 20
0
 39
0
 70
1
 66
1
  0
VERTEX
  8
0
 10
314.38462301400989
 20
1122.3846153846155
 42
0
  0
VERTEX
  8
0
 10
314.38462301400989
 20
1089.3846153846155
 42
0
  0
VERTEX
  8
0
 10
284.38462301400989
 20
1089.3846153846155
 42
0
  0
VERTEX
  8
0
 10
284.38462301400989
 20
1030.3846153846155
 42
0
  0
VERTEX
  8
0
 10
274.38462301400989
 20
1020.3846153846154
 42
0
  0
VERTEX
  8
0
 10
214.38461538461539
 20
1020.3846153846154
 42
0
  0
VERTEX
  8
0
 10
214.38461538461539
 20
1030.3846153846155
 42
0
  0
VERTEX
  8
0
 10
240.72596212533801
 20
1179.7737984290488
 42
-0.36396992206573486
  0
VERTEX
  8
0
 10
248.6044258704552
 20
1186.3846230140098
 42
0
  0
VERTEX
  8
0
 10
323.38462301400989
 20
1186.3846230140098
 42
-1
  0
VERTEX
  8
0
 10
323.38462301400989
 20
1126.3846153846155
 42
0
  0
VERTEX
  8
0
 10
318.38460775522083
 20
1126.3846153846155
 42
0.41421392560005188
  0
SEQEND
  0
POLYLINE
  8
0
 10
0
 20
0
 39
0
 70
1
 66
1
  0
VERTEX
  8
0
 10
320.38462301400989
 20
1148.3846230140098
 42
1
  0
VERTEX
  8
0
 10
320.38462301400989
 20
1164.3846230140098
 42
1
  0
SEQEND
  0
POLYLINE
  8
0
 10
0
 20
0
 39
0
 70
1
 66
1
  0
VERTEX
  8
0
 10
270.38462301400989
 20
1155.7846169104942
 42
1
  0
VERTEX
  8
0
 10
270.38462301400989
 20
1168.9846291175254
 42
1
  0
SEQEND
  0
POLYLINE
  8
0
 10
0
 20
0
 39
0
 70
1
 66
1
  0
VERTEX
  8
0
 10
333.58782267602771
 20
1084.3846230140098
 42
0
  0
VERTEX
  8
0
 10
333.58782267602771
 20
1117.3846230140098
 42
0
  0
VERTEX
  8
0
 10
363.58782267602771
 20
1117.3846230140098
 42
0
  0
VERTEX
  8
0
 10
363.58782267602771
 20
1176.3846230140098
 42
0
  0
VERTEX
  8
0
 10
373.58782267602771
 20
1186.3846230140098
 42
0
  0
VERTEX
  8
0
 10
433.58783030542224
 20
1186.3846230140098
 42
0
  0
VERTEX
  8
0
 10
433.58783030542224
 20
1176.3846230140098
 42
0
  0
VERTEX
  8
0
 10
407.24648356469959
 20
1026.9954399695762
 42
-0.36396992206573486
  0
VERTEX
  8
0
 10
399.3680198195824
 20
1020.3846153846152
 42
0
  0
VERTEX
  8
0
 10
324.58782267602771
 20
1020.3846153846152
 42
-1
  0
VERTEX
  8
0
 10
324.58782267602771
 20
1080.3846230140098
 42
0
  0
VERTEX
  8
0
 10
329.58783793481678
 20
1080.3846230140098
 42
0.41421392560005188
  0
SEQEND
  0
POLYLINE
  8
0
 10
0
 20
0
 39
0
 70
1
 66
1
  0
VERTEX
  8
0
 10
327.58782267602771
 20
1058.3846153846152
 42
1
  0
VERTEX
  8
0
 10
327.58782267602771
 20
1042.3846153846152
 42
1
  0
SEQEND
  0
POLYLINE
  8
0
 10
0
 20
0
 39
0
 70
1
 66
1
  0
VERTEX
  8
0
 10
377.58782267602771
 20
1050.9846214881309
 42
1
  0
VERTEX
  8
0
 10
377.58782267602771
 20
1037.7846092810996
 42
1
  0
SEQEND
  0
POLYLINE
  8
0
 10
0
 20
0
 39
0
 70
1
 66
1
  0
VERTEX
  8
0
 10
320.38462301400989
 20
522.53846153846155
 42
0
  0
VERTEX
  8
0
 10
320.38462301400989
 20
489.53846153846155
 42
0
  0
VERTEX
  8
0
 10
290.38462301400989
 20
489.53846153846155
 42
0
  0
VERTEX
  8
0
 10
290.38462301400989
 20
430.53846153846155
 42
0
  0
VERTEX
  8
0
 10
280.38462301400989
 20
420.53846153846155
 42
0
  0
VERTEX
  8
0
 10
220.38461538461539
 20
420.53846153846155
 42
0
  0
VERTEX
  8
0
 10
220.38461538461539
 20
430.53846153846155
 42
0
  0
VERTEX
  8
0
 10
246.72596212533801
 20
579.92764458289514
 42
-0.36396992206573486
  0
VERTEX
  8
0
 10
254.6044258704552
 20
586.53846916785608
 42
0
  0
VERTEX
  8
0
 10
329.38462301400989
 20
586.53846916785608
 42
-1
  0
VERTEX
  8
0
 10
329.38462301400989
 20
526.53846153846155
 42
0
  0
VERTEX
  8
0
 10
324.38460775522083
 20
526.53846153846155
 42
0.41421392560005188
  0
SEQEND
  0
POLYLINE
  8
0
 10
0
 20
0
 39
0
 70
1
 66
1
  0
VERTEX
  8
0
 10
326.38462301400989
 20
548.53846916785608
 42
1
  0
VERTEX
  8
0
 10
326.38462301400989
 20
564.53846916785608
 42
1
  0
SEQEND
  0
POLYLINE
  8
0
 10
0
 20
0
 39
0
 70
1
 66
1
  0
VERTEX
  8
0
 10
276.38462301400989
 20
555.93846306434045
 42
1
  0
VERTEX
  8
0
 10
276.38462301400989
 20
569.1384752713717
 42
1
  0
SEQEND
  0
POLYLINE
  8
0
 10
0
 20
0
 39
0
 70
1
 66
1
  0
VERTEX
  8
0
 10
339.58782267602771
 20
484.53846916785608
 42
0
  0
VERTEX
  8
0
 10
339.58782267602771
 20
517.53846916785608
 42
0
  0
VERTEX
  8
0
 10
369.58782267602771
 20
517.53846916785608
 42
0
  0
VERTEX
  8
0
 10
369.58782267602771
 20
576.53846916785608
 42
0
  0
VERTEX
  8
0
 10
379.58782267602771
 20
586.53846916785608
 42
0
  0
VERTEX
  8
0
 10
439.58783030542224
 20
586.53846916785608
 42
0
  0
VERTEX
  8
0
 10
439.58783030542224
 20
576.53846916785608
 42
0
  0
VERTEX
  8
0
 10
413.24648356469959
 20
427.14928612342248
 42
-0.36396992206573486
  0
VERTEX
  8
0
 10
405.3680198195824
 20
420.53846153846155
 42
0
  0
VERTEX
  8
0
 10
330.58782267602771
 20
420.53846153846155
 42
-1
  0
VERTEX
  8
0
 10
330.58782267602771
 20
480.53846916785608
 42
0
  0
VERTEX
  8
0
 10
335.58783793481678
 20
480.53846916785608
 42
0.41421392560005188
  0
SEQEND
  0
POLYLINE
  8
0
 10
0
 20
0
 39
0
 70
1
 66
1
  0
VERTEX
  8
0
 10
333.58782267602771
 20
458.53846153846155
 42
1
  0
VERTEX
  8
0
 10
333.58782267602771
 20
442.53846153846155
 42
1
  0
SEQEND
  0
POLYLINE
  8
0
 10
0
 20
0
 39
0
 70
1
 66
1
  0
VERTEX
  8
0
 10
383.58782267602771
 20
451.13846764197717
 42
1
  0
VERTEX
  8
0
 10
383.58782267602771
 20
437.93845543494592
 42
1
  0
SEQEND
  0
POLYLINE
  8
0
 10
0
 20
0
 39
0
 70
1
 66
1
  0
VERTEX
  8
0
 10
518.53846916785608
 20
1122.3846153846155
 42
0
  0
VERTEX
  8
0
 10
518.53846916785608
 20
1089.3846153846155
 42
0
  0
VERTEX
  8
0
 10
488.53846916785608
 20
1089.3846153846155
 42
0
  0
VERTEX
  8
0
 10
488.53846916785608
 20
1030.3846153846155
 42
0
  0
VERTEX
  8
0
 10
478.53846916785608
 20
1020.3846153846154
 42
0
  0
VERTEX
  8
0
 10
418.53846153846155
 20
1020.3846153846154
 42
0
  0
VERTEX
  8
0
 10
418.53846153846155
 20
1030.3846153846155
 42
0
  0
VERTEX
  8
0
 10
444.8798082791842
 20
1179.7737984290488
 42
-0.36396992206573486
  0
VERTEX
  8
0
 10
452.75827202430139
 20
1186.3846230140098
 42
0
  0
VERTEX
  8
0
 10
527.53846916785608
 20
1186.3846230140098
 42
-1
  0
VERTEX
  8
0
 10
527.53846916785608
 20
1126.3846153846155
 42
0
  0
VERTEX
  8
0
 10
522.53845390906702
 20
1126.3846153846155
 42
0.41421392560005188
  0
SEQEND
  0
POLYLINE
  8
0
 10
0
 20
0
 39
0
 70
1
 66
1
  0
VERTEX
  8
0
 10
524.53846916785608
 20
1148.3846230140098
 42
1
  0
VERTEX
  8
0
 10
524.53846916785608
 20
1164.3846230140098
 42
1
  0
SEQEND
  0
POLYLINE
  8
0
 10
0
 20
0
 39
0
 70
1
 66
1
  0
VERTEX
  8
0
 10
474.53846916785608
 20
1155.7846169104942
 42
1
  0
VERTEX
  8
0
 10
474.53846916785608
 20
1168.9846291175254
 42
1
  0
SEQEND
  0
POLYLINE
  8
0
 10
0
 20
0
 39
0
 70
1
 66
1
  0
VERTEX
  8
0
 10
537.7416688298739
 20
1084.3846230140098
 42
0
  0
VERTEX
  8
0
 10
537.7416688298739
 20
1117.3846230140098
 42
0
  0
VERTEX
  8
0
 10
567.7416688298739
 20
1117.3846230140098
 42
0
  0
VERTEX
  8
0
 10
567.7416688298739
 20
1176.3846230140098
 42
0
  0
VERTEX
  8
0
 10
577.7416688298739
 20
1186.3846230140098
 42
0
  0
VERTEX
  8
0
 10
637.74167645926843
 20
1186.3846230140098
 42
0
  0
VERTEX
  8
0
 10
637.74167645926843
 20
1176.3846230140098
 42
0
  0
VERTEX
  8
0
 10
611.40032971854578
 20
1026.9954399695762
 42
-0.36396992206573486
  0
VERTEX
  8
0
 10
603.52186597342859
 20
1020.3846153846152
 42
0
  0
VERTEX
  8
0
 10
528.7416688298739
 20
1020.3846153846152
 42
-1
  0
VERTEX
  8
0
 10
528.7416688298739
 20
1080.3846230140098
 42
0
  0
VERTEX
  8
0
 10
533.74168408866296
 20
1080.3846230140098
 42
0.41421392560005188
  0
SEQEND
  0
POLYLINE
  8
0
 10
0
 20
0
 39
0
 70
1
 66
1
  0
VERTEX
  8
0
 10
531.7416688298739
 20
1058.3846153846152
 42
1
  0
VERTEX
  8
0
 10
531.7416688298739
 20
1042.3846153846152
 42
1
  0
SEQEND
  0
POLYLINE
  8
0
 10
0
 20
0
 39
0
 70
1
 66
1
  0
VERTEX
  8
0
 10
581.7416688298739
 20
1050.9846214881309
 42
1
  0
VERTEX
  8
0
 10
581.7416688298739
 20
1037.7846092810996
 42
1
  0
SEQEND
  0
POLYLINE
  8
0
 10
0
 20
0
 39
0
 70
1
 66
1
  0
VERTEX
  8
0
 10
722.69231532170227
 20
1122.3846153846155
 42
0
  0
VERTEX
  8
0
 10
722.69231532170227
 20
1089.3846153846155
 42
0
  0
VERTEX
  8
0
 10
692.69231532170227
 20
1089.3846153846155
 42
0
  0
VERTEX
  8
0
 10
692.69231532170227
 20
1030.3846153846155
 42
0
  0
VERTEX
  8
0
 10
682.69231532170227
 20
1020.3846153846154
 42
0
  0
VERTEX
  8
0
 10
622.69230769230774
 20
1020.3846153846154
 42
0
  0
VERTEX
  8
0
 10
622.69230769230774
 20
1030.3846153846155
 42
0
  0
VERTEX
  8
0
 10
649.03365443303039
 20
1179.7737984290488
 42
-0.36396992206573486
  0
VERTEX
  8
0
 10
656.91211817814758
 20
1186.3846230140098
 42
0
  0
VERTEX
  8
0
 10
731.69231532170227
 20
1186.3846230140098
 42
-1
  0
VERTEX
  8
0
 10
731.69231532170227
 20
1126.3846153846155
 42
0
  0
VERTEX
  8
0
 10
726.6923000629132
 20
1126.3846153846155
 42
0.41421392560005188
  0
SEQEND
  0
POLYLINE
  8
0
 10
0
 20
0
 39
0
 70
1
 66
1
  0
VERTEX
  8
0
 10
728.69231532170227
 20
1148.3846230140098
 42
1
  0
VERTEX
  8
0
 10
728.69231532170227
 20
1164.3846230140098
 42
1
  0
SEQEND
  0
POLYLINE
  8
0
 10
0
 20
0
 39
0
 70
1
 66
1
  0
VERTEX
  8
0
 10
678.69231532170227
 20
1155.7846169104942
 42
1
  0
VERTEX
  8
0
 10
678.69231532170227
 20
1168.9846291175254
 42
1
  0
SEQEND
  0
POLYLINE
  8
0
 10
0
 20
0
 39
0
 70
1
 66
1
  0
VERTEX
  8
0
 10
741.89551498372009
 20
1084.3846230140098
 42
0
  0
VERTEX
  8
0
 10
741.89551498372009
 20
1117.3846230140098
 42
0
  0
VERTEX
  8
0
 10
771.89551498372009
 20
1117.3846230140098
 42
0
  0
VERTEX
  8
0
 10
771.89551498372009
 20
1176.3846230140098
 42
0
  0
VERTEX
  8
0
 10
781.89551498372009
 20
1186.3846230140098
 42
0
  0
VERTEX
  8
0
 10
841.89552261311462
 20
1186.3846230140098
 42
0
  0
VERTEX
  8
0
 10
841.89552261311462
 20
1176.3846230140098
 42
0
  0
VERTEX
  8
0
 10
815.55417587239197
 20
1026.9954399695762
 42
-0.36396992206573486
  0
VERTEX
  8
0
 10
807.67571212727478
 20
1020.3846153846152
 42
0
  0
VERTEX
  8
0
 10
732.89551498372009
 20
1020.3846153846152
 42
-1
  0
VERTEX
  8
0
 10
732.89551498372009
 20
1080.3846230140098
 42
0
  0
VERTEX
  8
0
 10
737.89553024250915
 20
1080.3846230140098
 42
0.41421392560005188
  0
SEQEND
  0
POLYLINE
  8
0
 10
0
 20
0
 39
0
 70
1
 66
1
  0
VERTEX
  8
0
 10
735.89551498372009
 20
1058.3846153846152
 42
1
  0
VERTEX
  8
0
 10
735.89551498372009
 20
1042.3846153846152
 42
1
  0
SEQEND
  0
POLYLINE
  8
0
 10
0
 20
0
 39
0
 70
1
 66
1
  0
VERTEX
  8
0
 10
785.89551498372009
 20
1050.9846214881309
 42
1
  0
VERTEX
  8
0
 10
785.89551498372009
 20
1037.7846092810996
 42
1
  0
SEQEND
  0
POLYLINE
  8
0
 10
0
 20
0
 39
0
 70
1
 66
1
  0
VERTEX
  8
0
 10
926.84616147554834
 20
1122.3846153846155
 42
0
  0
VERTEX
  8
0
 10
926.84616147554834
 20
1089.3846153846155
 42
0
  0
VERTEX
  8
0
 10
896.84616147554834
 20
1089.3846153846155
 42
0
  0
VERTEX
  8
0
 10
896.84616147554834
 20
1030.3846153846155
 42
0
  0
VERTEX
  8
0
 10
886.84616147554834
 20
1020.3846153846154
 42
0
  0
VERTEX
  8
0
 10
826.84615384615381
 20
1020.3846153846154
 42
0
  0
VERTEX
  8
0
 10
826.84615384615381
 20
1030.3846153846155
 42
0
  0
VERTEX
  8
0
 10
853.18750058687647
 20
1179.7737984290488
 42
-0.36396992206573486
  0
VERTEX
  8
0
 10
861.06596433199365
 20
1186.3846230140098
 42
0
  0
VERTEX
  8
0
 10
935.84616147554834
 20
1186.3846230140098
 42
-1
  0
VERTEX
  8
0
 10
935.84616147554834
 20
1126.3846153846155
 42
0
  0
VERTEX
  8
0
 10
930.84614621675928
 20
1126.3846153846155
 42
0.41421392560005188
  0
SEQEND
  0
POLYLINE
  8
0
 10
0
 20
0
 39
0
 70
1
 66
1
  0
VERTEX
  8
0
 10
932.84616147554834
 20
1148.3846230140098
 42
1
  0
VERTEX
  8
0
 10
932.84616147554834
 20
1164.3846230140098
 42
1
  0
SEQEND
  0
POLYLINE
  8
0
 10
0
 20
0
 39
0
 70
1
 66
1
  0
VERTEX
  8
0
 10
882.84616147554834
 20
1155.7846169104942
 42
1
  0
VERTEX
  8
0
 10
882.84616147554834
 20
1168.9846291175254
 42
1
  0
SEQEND
  0
POLYLINE
  8
0
 10
0
 20
0
 39
0
 70
1
 66
1
  0
VERTEX
  8
0
 10
946.04936113756617
 20
1084.3846230140098
 42
0
  0
VERTEX
  8
0
 10
946.04936113756617
 20
1117.3846230140098
 42
0
  0
VERTEX
  8
0
 10
976.04936113756617
 20
1117.3846230140098
 42
0
  0
VERTEX
  8
0
 10
976.04936113756617
 20
1176.3846230140098
 42
0
  0
VERTEX
  8
0
 10
986.04936113756617
 20
1186.3846230140098
 42
0
  0
VERTEX
  8
0
 10
1046.0493687669607
 20
1186.3846230140098
 42
0
  0
VERTEX
  8
0
 10
1046.0493687669607
 20
1176.3846230140098
 42
0
  0
VERTEX
  8
0
 10
1019.708022026238
 20
1026.9954399695762
 42
-0.36396992206573486
  0
VERTEX
  8
0
 10
1011.8295582811209
 20
1020.3846153846152
 42
0
  0
VERTEX
  8
0
 10
937.04936113756617
 20
1020.3846153846152
 42
-1
  0
VERTEX
  8
0
 10
937.04936113756617
 20
1080.3846230140098
 42
0
  0
VERTEX
  8
0
 10
942.04937639635523
 20
1080.3846230140098
 42
0.41421392560005188
  0
SEQEND
  0
POLYLINE
  8
0
 10
0
 20
0
 39
0
 70
1
 66
1
  0
VERTEX
  8
0
 10
940.04936113756617
 20
1058.3846153846152
 42
1
  0
VERTEX
  8
0
 10
940.04936113756617
 20
1042.3846153846152
 42
1
  0
SEQEND
  0
POLYLINE
  8
0
 10
0
 20
0
 39
0
 70
1
 66
1
  0
VERTEX
  8
0
 10
990.04936113756617
 20
1050.9846214881309
 42
1
  0
VERTEX
  8
0
 10
990.04936113756617
 20
1037.7846092810996
 42
1
  0
SEQEND
  0
POLYLINE
  8
0
 10
0
 20
0
 39
0
 70
1
 66
1
  0
VERTEX
  8
0
 10
1041.4615460909331
 20
522.53846153846155
 42
0
  0
VERTEX
  8
0
 10
1041.4615460909331
 20
489.53846153846155
 42
0
  0
VERTEX
  8
0
 10
1011.461546090933
 20
489.53846153846155
 42
0
  0
VERTEX
  8
0
 10
1011.461546090933
 20
430.53846153846155
 42
0
  0
VERTEX
  8
0
 10
1001.461546090933
 20
420.53846153846155
 42
0
  0
VERTEX
  8
0
 10
941.46153846153845
 20
420.53846153846155
 42
0
  0
VERTEX
  8
0
 10
941.46153846153845
 20
430.53846153846155
 42
0
  0
VERTEX
  8
0
 10
967.80288520226111
 20
579.92764458289514
 42
-0.36396992206573486
  0
VERTEX
  8
0
 10
975.6813489473783
 20
586.53846916785608
 42
0
  0
VERTEX
  8
0
 10
1050.4615460909331
 20
586.53846916785608
 42
-1
  0
VERTEX
  8
0
 10
1050.4615460909331
 20
526.53846153846155
 42
0
  0
VERTEX
  8
0
 10
1045.461530832144
 20
526.53846153846155
 42
0.41421392560005188
  0
SEQEND
  0
POLYLINE
  8
0
 10
0
 20
0
 39
0
 70
1
 66
1
  0
VERTEX
  8
0
 10
1047.4615460909331
 20
548.53846916785608
 42
1
  0
VERTEX
  8
0
 10
1047.4615460909331
 20
564.53846916785608
 42
1
  0
SEQEND
  0
POLYLINE
  8
0
 10
0
 20
0
 39
0
 70
1
 66
1
  0
VERTEX
  8
0
 10
997.46154609093298
 20
555.93846306434045
 42
1
  0
VERTEX
  8
0
 10
997.46154609093298
 20
569.1384752713717
 42
1
  0
SEQEND
  0
POLYLINE
  8
0
 10
0
 20
0
 39
0
 70
1
 66
1
  0
VERTEX
  8
0
 10
1060.6647457529507
 20
484.53846916785608
 42
0
  0
VERTEX
  8
0
 10
1060.6647457529507
 20
517.53846916785608
 42
0
  0
VERTEX
  8
0
 10
1090.6647457529507
 20
517.53846916785608
 42
0
  0
VERTEX
  8
0
 10
1090.6647457529507
 20
576.53846916785608
 42
0
  0
VERTEX
  8
0
 10
1100.6647457529507
 20
586.53846916785608
 42
0
  0
VERTEX
  8
0
 10
1160.6647533823452
 20
586.53846916785608
 42
0
  0
VERTEX
  8
0
 10
1160.6647533823452
 20
576.53846916785608
 42
0
  0
VERTEX
  8
0
 10
1134.3234066416226
 20
427.14928612342248
 42
-0.36396992206573486
  0
VERTEX
  8
0
 10
1126.4449428965054
 20
420.53846153846155
 42
0
  0
VERTEX
  8
0
 10
1051.6647457529507
 20
420.53846153846155
 42
-1
  0
VERTEX
  8
0
 10
1051.6647457529507
 20
480.53846916785608
 42
0
  0
VERTEX
  8
0
 10
1056.6647610117398
 20
480.53846916785608
 42
0.41421392560005188
  0
SEQEND
  0
POLYLINE
  8
0
 10
0
 20
0
 39
0
 70
1
 66
1
  0
VERTEX
  8
0
 10
1054.6647457529507
 20
458.53846153846155
 42
1
  0
VERTEX
  8
0
 10
1054.6647457529507
 20
442.53846153846155
 42
1
  0
SEQEND
  0
POLYLINE
  8
0
 10
0
 20
0
 39
0
 70
1
 66
1
  0
VERTEX
  8
0
 10
1104.6647457529507
 20
451.13846764197717
 42
1
  0
VERTEX
  8
0
 10
1104.6647457529507
 20
437.93845543494592
 42
1
  0
SEQEND
  0
POLYLINE
  8
0
 10
0
 20
0
 39
0
 70
1
 66
1
  0
VERTEX
  8
0
 10
1131.0000076293945
 20
1122.3846153846155
 42
0
  0
VERTEX
  8
0
 10
1131.0000076293945
 20
1089.3846153846155
 42
0
  0
VERTEX
  8
0
 10
1101.0000076293945
 20
1089.3846153846155
 42
0
  0
VERTEX
  8
0
 10
1101.0000076293945
 20
1030.3846153846155
 42
0
  0
VERTEX
  8
0
 10
1091.0000076293945
 20
1020.3846153846154
 42
0
  0
VERTEX
  8
0
 10
1031
 20
1020.3846153846154
 42
0
  0
VERTEX
  8
0
 10
1031
 20
1030.3846153846155
 42
0
  0
VERTEX
  8
0
 10
1057.3413467407227
 20
1179.7737984290488
 42
-0.36396992206573486
  0
VERTEX
  8
0
 10
1065.2198104858398
 20
1186.3846230140098
 42
0
  0
VERTEX
  8
0
 10
1140.0000076293945
 20
1186.3846230140098
 42
-1
  0
VERTEX
  8
0
 10
1140.0000076293945
 20
1126.3846153846155
 42
0
  0
VERTEX
  8
0
 10
1134.9999923706055
 20
1126.3846153846155
 42
0.41421392560005188
  0
SEQEND
  0
POLYLINE
  8
0
 10
0
 20
0
 39
0
 70
1
 66
1
  0
VERTEX
  8
0
 10
1137.0000076293945
 20
1148.3846230140098
 42
1
  0
VERTEX
  8
0
 10
1137.0000076293945
 20
1164.3846230140098
 42
1
  0
SEQEND
  0
POLYLINE
  8
0
 10
0
 20
0
 39
0
 70
1
 66
1
  0
VERTEX
  8
0
 10
1087.0000076293945
 20
1155.7846169104942
 42
1
  0
VERTEX
  8
0
 10
1087.0000076293945
 20
1168.9846291175254
 42
1
  0
SEQEND
  0
POLYLINE
  8
0
 10
0
 20
0
 39
0
 70
1
 66
1
  0
VERTEX
  8
0
 10
1150.2032072914124
 20
1084.3846230140098
 42
0
  0
VERTEX
  8
0
 10
1150.2032072914124
 20
1117.3846230140098
 42
0
  0
VERTEX
  8
0
 10
1180.2032072914124
 20
1117.3846230140098
 42
0
  0
VERTEX
  8
0
 10
1180.2032072914124
 20
1176.3846230140098
 42
0
  0
VERTEX
  8
0
 10
1190.2032072914124
 20
1186.3846230140098
 42
0
  0
VERTEX
  8
0
 10
1250.2032149208069
 20
1186.3846230140098
 42
0
  0
VERTEX
  8
0
 10
1250.2032149208069
 20
1176.3846230140098
 42
0
  0
VERTEX
  8
0
 10
1223.8618681800842
 20
1026.9954399695762
 42
-0.36396992206573486
  0
VERTEX
  8
0
 10
1215.983404434967
 20
1020.3846153846152
 42
0
  0
VERTEX
  8
0
 10
1141.2032072914124
 20
1020.3846153846152
 42
-1
  0
VERTEX
  8
0
 10
1141.2032072914124
 20
1080.3846230140098
 42
0
  0
VERTEX
  8
0
 10
1146.2032225502014
 20
1080.3846230140098
 42
0.41421392560005188
  0
SEQEND
  0
POLYLINE
  8
0
 10
0
 20
0
 39
0
 70
1
 66
1
  0
VERTEX
  8
0
 10
1144.2032072914124
 20
1058.3846153846152
 42
1
  0
VERTEX
  8
0
 10
1144.2032072914124
 20
1042.3846153846152
 42
1
  0
SEQEND
  0
POLYLINE
  8
0
 10
0
 20
0
 39
0
 70
1
 66
1
  0
VERTEX
  8
0
 10
1194.2032072914124
 20
1050.9846214881309
 42
1
  0
VERTEX
  8
0
 10
1194.2032072914124
 20
1037.7846092810996
 42
1
  0
SEQEND
  0
POLYLINE
  8
0
 10
0
 20
0
 39
0
 70
1
 66
1
  0
VERTEX
  8
0
 10
1279.7861479794185
 20
1157.2888790183079
 42
-0.11274677515029907
  0
VERTEX
  8
0
 10
1311.0546583321614
 20
1170.240717286074
 42
-0
  0
VERTEX
  8
0
 10
1316.2566502165043
 20
1167.2508563187575
 42
0
  0
VERTEX
  8
0
 10
1331.2917592916904
 20
1167.2508563187575
 42
0
  0
VERTEX
  8
0
 10
1336.4937511760334
 20
1170.240717286074
 42
-0.11274677515029907
  0
VERTEX
  8
0
 10
1367.7622615287762
 20
1157.2888790183079
 42
-0
  0
VERTEX
  8
0
 10
1369.3264692919083
 20
1151.4963592202155
 42
0
  0
VERTEX
  8
0
 10
1379.9578976817538
 20
1140.86493083037
 42
0
  0
VERTEX
  8
0
 10
1385.7504174798462
 20
1139.3007230672379
 42
-0.11274677515029907
  0
VERTEX
  8
0
 10
1398.7022557476123
 20
1108.032212714495
 42
-0
  0
VERTEX
  8
0
 10
1395.7123947802959
 20
1102.830220830152
 42
0
  0
VERTEX
  8
0
 10
1395.7123947802959
 20
1087.795111754966
 42
0
  0
VERTEX
  8
0
 10
1398.7022557476123
 20
1082.593119870623
 42
-0.11274677515029907
  0
VERTEX
  8
0
 10
1385.7504174798462
 20
1051.3246095178802
 42
-0
  0
VERTEX
  8
0
 10
1379.9578976817538
 20
1049.760401754748
 42
0
  0
VERTEX
  8
0
 10
1369.3264692919083
 20
1039.1289733649025
 42
0
  0
VERTEX
  8
0
 10
1367.7622615287762
 20
1033.3364535668102
 42
-0.11274677515029907
  0
VERTEX
  8
0
 10
1336.4937511760334
 20
1020.3846152990441
 42
-0
  0
VERTEX
  8
0
 10
1331.2917592916904
 20
1023.3744762663605
 42
0
  0
VERTEX
  8
0
 10
1316.2566502165043
 20
1023.3744762663605
 42
0
  0
VERTEX
  8
0
 10
1311.0546583321614
 20
1020.3846152990441
 42
-0.11274677515029907
  0
VERTEX
  8
0
 10
1279.7861479794185
 20
1033.3364535668102
 42
-0
  0
VERTEX
  8
0
 10
1278.2219402162864
 20
1039.1289733649025
 42
0
  0
VERTEX
  8
0
 10
1267.5905118264409
 20
1049.760401754748
 42
0
  0
VERTEX
  8
0
 10
1261.7979920283485
 20
1051.3246095178802
 42
-0.11274677515029907
  0
VERTEX
  8
0
 10
1248.8461537605824
 20
1082.593119870623
 42
-0
  0
VERTEX
  8
0
 10
1251.8360147278988
 20
1087.795111754966
 42
0
  0
VERTEX
  8
0
 10
1251.8360147278988
 20
1102.830220830152
 42
0
  0
VERTEX
  8
0
 10
1248.8461537605824
 20
1108.032212714495
 42
-0.11274677515029907
  0
VERTEX
  8
0
 10
1261.7979920283485
 20
1139.3007230672379
 42
-0
  0
VERTEX
  8
0
 10
1267.5905118264409
 20
1140.86493083037
 42
0
  0
VERTEX
  8
0
 10
1278.2219402162864
 20
1151.4963592202155
 42
0
  0
SEQEND
  0
POLYLINE
  8
0
 10
0
 20
0
 39
0
 70
1
 66
1
  0
VERTEX
  8
0
 10
1330.8452724449467
 20
1102.3837339834083
 42
1
  0
VERTEX
  8
0
 10
1316.7031370632481
 20
1088.2415986017097
 42
1
  0
SEQEND
  0
POLYLINE
  8
0
 10
0
 20
0
 39
0
 70
1
 66
1
  0
VERTEX
  8
0
 10
1521.9399941332647
 20
1118.0581097875386
 42
-0.11274677515029907
  0
VERTEX
  8
0
 10
1553.2085044860075
 20
1131.0099480553047
 42
-0
  0
VERTEX
  8
0
 10
1558.4104963703505
 20
1128.0200870879883
 42
0
  0
VERTEX
  8
0
 10
1573.4456054455366
 20
1128.0200870879883
 42
0
  0
VERTEX
  8
0
 10
1578.6475973298795
 20
1131.0099480553047
 42
-0.11274677515029907
  0
VERTEX
  8
0
 10
1609.9161076826224
 20
1118.0581097875386
 42
-0
  0
VERTEX
  8
0
 10
1611.4803154457545
 20
1112.2655899894462
 42
0
  0
VERTEX
  8
0
 10
1622.1117438356
 20
1101.6341615996007
 42
0
  0
VERTEX
  8
0
 10
1627.9042636336924
 20
1100.0699538364686
 42
-0.11274677515029907
  0
VERTEX
  8
0
 10
1640.8561019014585
 20
1068.8014434837257
 42
-0
  0
VERTEX
  8
0
 10
1637.8662409341421
 20
1063.5994515993827
 42
0
  0
VERTEX
  8
0
 10
1637.8662409341421
 20
1048.5643425241967
 42
0
  0
VERTEX
  8
0
 10
1640.8561019014585
 20
1043.3623506398537
 42
-0.11274677515029907
  0
VERTEX
  8
0
 10
1627.9042636336924
 20
1012.0938402871109
 42
-0
  0
VERTEX
  8
0
 10
1622.1117438356
 20
1010.5296325239788
 42
0
  0
VERTEX
  8
0
 10
1611.4803154457545
 20
999.89820413413327
 42
0
  0
VERTEX
  8
0
 10
1609.9161076826224
 20
994.10568433604089
 42
-0.11274677515029907
  0
VERTEX
  8
0
 10
1578.6475973298795
 20
981.15384606827479
 42
-0
  0
VERTEX
  8
0
 10
1573.4456054455366
 20
984.14370703559121
 42
0
  0
VERTEX
  8
0
 10
1558.4104963703505
 20
984.14370703559121
 42
0
  0
VERTEX
  8
0
 10
1553.2085044860075
 20
981.15384606827479
 42
-0.11274677515029907
  0
VERTEX
  8
0
 10
1521.9399941332647
 20
994.10568433604089
 42
-0
  0
VERTEX
  8
0
 10
1520.3757863701326
 20
999.89820413413327
 42
0
  0
VERTEX
  8
0
 10
1509.7443579802871
 20
1010.5296325239788
 42
0
  0
VERTEX
  8
0
 10
1503.9518381821947
 20
1012.0938402871109
 42
-0.11274677515029907
  0
VERTEX
  8
0
 10
1490.9999999144286
 20
1043.3623506398537
 42
-0
  0
VERTEX
  8
0
 10
1493.989860881745
 20
1048.5643425241967
 42
0
  0
VERTEX
  8
0
 10
1493.989860881745
 20
1063.5994515993827
 42
0
  0
VERTEX
  8
0
 10
1490.9999999144286
 20
1068.8014434837257
 42
-0.11274677515029907
  0
VERTEX
  8
0
 10
1503.9518381821947
 20
1100.0699538364686
 42
-0
  0
VERTEX
  8
0
 10
1509.7443579802871
 20
1101.6341615996007
 42
0
  0
VERTEX
  8
0
 10
1520.3757863701326
 20
1112.2655899894462
 42
0
  0
SEQEND
  0
POLYLINE
  8
0
 10
0
 20
0
 39
0
 70
1
 66
1
  0
VERTEX
  8
0
 10
1572.9991185987928
 20
1063.152964752639
 42
1
  0
VERTEX
  8
0
 10
1558.8569832170942
 20
1049.0108293709404
 42
1
  0
SEQEND
  0
POLYLINE
  8
0
 10
0
 20
0
 39
0
 70
1
 66
1
  0
VERTEX
  8
0
 10
1529.170763364034
 20
831.59657132600012
 42
-0.11274677515029907
  0
VERTEX
  8
0
 10
1560.4392737167768
 20
844.54840959376622
 42
-0
  0
VERTEX
  8
0
 10
1565.6412656011198
 20
841.55854862644981
 42
0
  0
VERTEX
  8
0
 10
1580.6763746763058
 20
841.55854862644981
 42
0
  0
VERTEX
  8
0
 10
1585.8783665606488
 20
844.54840959376622
 42
-0.11274677515029907
  0
VERTEX
  8
0
 10
1617.1468769133917
 20
831.59657132600012
 42
-0
  0
VERTEX
  8
0
 10
1618.7110846765238
 20
825.80405152790775
 42
0
  0
VERTEX
  8
0
 10
1629.3425130663693
 20
815.17262313806225
 42
0
  0
VERTEX
  8
0
 10
1635.1350328644617
 20
813.60841537493013
 42
-0.11274677515029907
  0
VERTEX
  8
0
 10
1648.0868711322278
 20
782.33990502218728
 42
-0
  0
VERTEX
  8
0
 10
1645.0970101649114
 20
777.13791313784429
 42
0
  0
VERTEX
  8
0
 10
1645.0970101649114
 20
762.10280406265827
 42
0
  0
VERTEX
  8
0
 10
1648.0868711322278
 20
756.90081217831528
 42
-0.11274677515029907
  0
VERTEX
  8
0
 10
1635.1350328644617
 20
725.63230182557243
 42
-0
  0
VERTEX
  8
0
 10
1629.3425130663693
 20
724.06809406244031
 42
0
  0
VERTEX
  8
0
 10
1618.7110846765238
 20
713.43666567259481
 42
0
  0
VERTEX
  8
0
 10
1617.1468769133917
 20
707.64414587450244
 42
-0.11274677515029907
  0
VERTEX
  8
0
 10
1585.8783665606488
 20
694.69230760673634
 42
-0
  0
VERTEX
  8
0
 10
1580.6763746763058
 20
697.68216857405275
 42
0
  0
VERTEX
  8
0
 10
1565.6412656011198
 20
697.68216857405275
 42
0
  0
VERTEX
  8
0
 10
1560.4392737167768
 20
694.69230760673634
 42
-0.11274677515029907
  0
VERTEX
  8
0
 10
1529.170763364034
 20
707.64414587450244
 42
-0
  0
VERTEX
  8
0
 10
1527.6065556009019
 20
713.43666567259481
 42
0
  0
VERTEX
  8
0
 10
1516.9751272110564
 20
724.06809406244031
 42
0
  0
VERTEX
  8
0
 10
1511.182607412964
 20
725.63230182557243
 42
-0.11274677515029907
  0
VERTEX
  8
0
 10
1498.2307691451979
 20
756.90081217831528
 42
-0
  0
VERTEX
  8
0
 10
1501.2206301125143
 20
762.10280406265827
 42
0
  0
VERTEX
  8
0
 10
1501.2206301125143
 20
777.13791313784429
 42
0
  0
VERTEX
  8
0
 10
1498.2307691451979
 20
782.33990502218728
 42
-0.11274677515029907
  0
VERTEX
  8
0
 10
1511.182607412964
 20
813.60841537493013
 42
-0
  0
VERTEX
  8
0
 10
1516.9751272110564
 20
815.17262313806225
 42
0
  0
VERTEX
  8
0
 10
1527.6065556009019
 20
825.80405152790775
 42
0
  0
SEQEND
  0
POLYLINE
  8
0
 10
0
 20
0
 39
0
 70
1
 66
1
  0
VERTEX
  8
0
 10
1580.2298878295621
 20
776.69142629110058
 42
1
  0
VERTEX
  8
0
 10
1566.0877524478635
 20
762.54929090940198
 42
1
  0
SEQEND
  0
POLYLINE
  8
0
 10
0
 20
0
 39
0
 70
1
 66
1
  0
VERTEX
  8
0
 10
1579.170763364034
 20
252.36580209523089
 42
-0.11274677515029907
  0
VERTEX
  8
0
 10
1610.4392737167768
 20
265.317640362997
 42
-0
  0
VERTEX
  8
0
 10
1615.6412656011198
 20
262.32777939568058
 42
0
  0
VERTEX
  8
0
 10
1630.6763746763058
 20
262.32777939568058
 42
0
  0
VERTEX
  8
0
 10
1635.8783665606488
 20
265.317640362997
 42
-0.11274677515029907
  0
VERTEX
  8
0
 10
1667.1468769133917
 20
252.36580209523089
 42
-0
  0
VERTEX
  8
0
 10
1668.7110846765238
 20
246.57328229713852
 42
0
  0
VERTEX
  8
0
 10
1679.3425130663693
 20
235.94185390729302
 42
0
  0
VERTEX
  8
0
 10
1685.1350328644617
 20
234.37764614416091
 42
-0.11274677515029907
  0
VERTEX
  8
0
 10
1698.0868711322278
 20
203.10913579141805
 42
-0
  0
VERTEX
  8
0
 10
1695.0970101649114
 20
197.90714390707507
 42
0
  0
VERTEX
  8
0
 10
1695.0970101649114
 20
182.87203483188904
 42
0
  0
VERTEX
  8
0
 10
1698.0868711322278
 20
177.67004294754605
 42
-0.11274677515029907
  0
VERTEX
  8
0
 10
1685.1350328644617
 20
146.4015325948032
 42
-0
  0
VERTEX
  8
0
 10
1679.3425130663693
 20
144.83732483167108
 42
0
  0
VERTEX
  8
0
 10
1668.7110846765238
 20
134.20589644182559
 42
0
  0
VERTEX
  8
0
 10
1667.1468769133917
 20
128.41337664373322
 42
-0.11274677515029907
  0
VERTEX
  8
0
 10
1635.8783665606488
 20
115.46153837596711
 42
-0
  0
VERTEX
  8
0
 10
1630.6763746763058
 20
118.45139934328353
 42
0
  0
VERTEX
  8
0
 10
1615.6412656011198
 20
118.45139934328353
 42
0
  0
VERTEX
  8
0
 10
1610.4392737167768
 20
115.46153837596711
 42
-0.11274677515029907
  0
VERTEX
  8
0
 10
1579.170763364034
 20
128.41337664373322
 42
-0
  0
VERTEX
  8
0
 10
1577.6065556009019
 20
134.20589644182559
 42
0
  0
VERTEX
  8
0
 10
1566.9751272110564
 20
144.83732483167108
 42
0
  0
VERTEX
  8
0
 10
1561.182607412964
 20
146.4015325948032
 42
-0.11274677515029907
  0
VERTEX
  8
0
 10
1548.2307691451979
 20
177.67004294754605
 42
-0
  0
VERTEX
  8
0
 10
1551.2206301125143
 20
182.87203483188904
 42
0
  0
VERTEX
  8
0
 10
1551.2206301125143
 20
197.90714390707507
 42
0
  0
VERTEX
  8
0
 10
1548.2307691451979
 20
203.10913579141805
 42
-0.11274677515029907
  0
VERTEX
  8
0
 10
1561.182607412964
 20
234.37764614416091
 42
-0
  0
VERTEX
  8
0
 10
1566.9751272110564
 20
235.94185390729302
 42
0
  0
VERTEX
  8
0
 10
1577.6065556009019
 20
246.57328229713852
 42
0
  0
SEQEND
  0
POLYLINE
  8
0
 10
0
 20
0
 39
0
 70
1
 66
1
  0
VERTEX
  8
0
 10
1630.2298878295621
 20
197.46065706033136
 42
1
  0
VERTEX
  8
0
 10
1616.0877524478635
 20
183.31852167863275
 42
1
  0
SEQEND
  0
POLYLINE
  8
0
 10
0
 20
0
 39
0
 70
1
 66
1
  0
VERTEX
  8
0
 10
1677.3246095178802
 20
511.90426363369244
 42
-0.11274677515029907
  0
VERTEX
  8
0
 10
1708.593119870623
 20
524.85610190145849
 42
-0
  0
VERTEX
  8
0
 10
1713.795111754966
 20
521.86624093414207
 42
0
  0
VERTEX
  8
0
 10
1728.830220830152
 20
521.86624093414207
 42
0
  0
VERTEX
  8
0
 10
1734.032212714495
 20
524.85610190145849
 42
-0.11274677515029907
  0
VERTEX
  8
0
 10
1765.3007230672379
 20
511.90426363369244
 42
-0
  0
VERTEX
  8
0
 10
1766.86493083037
 20
506.11174383560007
 42
0
  0
VERTEX
  8
0
 10
1777.4963592202155
 20
495.48031544575457
 42
0
  0
VERTEX
  8
0
 10
1783.2888790183079
 20
493.91610768262245
 42
-0.11274677515029907
  0
VERTEX
  8
0
 10
1796.240717286074
 20
462.6475973298796
 42
-0
  0
VERTEX
  8
0
 10
1793.2508563187575
 20
457.44560544553661
 42
0
  0
VERTEX
  8
0
 10
1793.2508563187575
 20
442.41049637035059
 42
0
  0
VERTEX
  8
0
 10
1796.240717286074
 20
437.2085044860076
 42
-0.11274677515029907
  0
VERTEX
  8
0
 10
1783.2888790183079
 20
405.93999413326475
 42
-0
  0
VERTEX
  8
0
 10
1777.4963592202155
 20
404.37578637013263
 42
0
  0
VERTEX
  8
0
 10
1766.86493083037
 20
393.74435798028713
 42
0
  0
VERTEX
  8
0
 10
1765.3007230672379
 20
387.95183818219476
 42
-0.11274677515029907
  0
VERTEX
  8
0
 10
1734.032212714495
 20
374.99999991442866
 42
-0
  0
VERTEX
  8
0
 10
1728.830220830152
 20
377.98986088174507
 42
0
  0
VERTEX
  8
0
 10
1713.795111754966
 20
377.98986088174507
 42
0
  0
VERTEX
  8
0
 10
1708.593119870623
 20
374.99999991442866
 42
-0.11274677515029907
  0
VERTEX
  8
0
 10
1677.3246095178802
 20
387.95183818219476
 42
-0
  0
VERTEX
  8
0
 10
1675.760401754748
 20
393.74435798028713
 42
0
  0
VERTEX
  8
0
 10
1665.1289733649025
 20
404.37578637013263
 42
0
  0
VERTEX
  8
0
 10
1659.3364535668102
 20
405.93999413326475
 42
-0.11274677515029907
  0
VERTEX
  8
0
 10
1646.3846152990441
 20
437.2085044860076
 42
-0
  0
VERTEX
  8
0
 10
1649.3744762663605
 20
442.41049637035059
 42
0
  0
VERTEX
  8
0
 10
1649.3744762663605
 20
457.44560544553661
 42
0
  0
VERTEX
  8
0
 10
1646.3846152990441
 20
462.6475973298796
 42
-0.11274677515029907
  0
VERTEX
  8
0
 10
1659.3364535668102
 20
493.91610768262245
 42
-0
  0
VERTEX
  8
0
 10
1665.1289733649025
 20
495.48031544575457
 42
0
  0
VERTEX
  8
0
 10
1675.760401754748
 20
506.11174383560007
 42
0
  0
SEQEND
  0
POLYLINE
  8
0
 10
0
 20
0
 39
0
 70
1
 66
1
  0
VERTEX
  8
0
 10
1728.3837339834083
 20
456.9991185987929
 42
1
  0
VERTEX
  8
0
 10
1714.2415986017097
 20
442.8569832170943
 42
1
  0
SEQEND
  0
POLYLINE
  8
0
 10
0
 20
0
 39
0
 70
1
 66
1
  0
VERTEX
  8
0
 10
1763.170763364034
 20
980.6734944029231
 42
-0.11274677515029907
  0
VERTEX
  8
0
 10
1794.4392737167768
 20
993.6253326706892
 42
-0
  0
VERTEX
  8
0
 10
1799.6412656011198
 20
990.63547170337279
 42
0
  0
VERTEX
  8
0
 10
1814.6763746763058
 20
990.63547170337279
 42
0
  0
VERTEX
  8
0
 10
1819.8783665606488
 20
993.6253326706892
 42
-0.11274677515029907
  0
VERTEX
  8
0
 10
1851.1468769133917
 20
980.6734944029231
 42
-0
  0
VERTEX
  8
0
 10
1852.7110846765238
 20
974.88097460483073
 42
0
  0
VERTEX
  8
0
 10
1863.3425130663693
 20
964.24954621498523
 42
0
  0
VERTEX
  8
0
 10
1869.1350328644617
 20
962.68533845185311
 42
-0.11274677515029907
  0
VERTEX
  8
0
 10
1882.0868711322278
 20
931.41682809911026
 42
-0
  0
VERTEX
  8
0
 10
1879.0970101649114
 20
926.21483621476727
 42
0
  0
VERTEX
  8
0
 10
1879.0970101649114
 20
911.17972713958125
 42
0
  0
VERTEX
  8
0
 10
1882.0868711322278
 20
905.97773525523826
 42
-0.11274677515029907
  0
VERTEX
  8
0
 10
1869.1350328644617
 20
874.70922490249541
 42
-0
  0
VERTEX
  8
0
 10
1863.3425130663693
 20
873.14501713936329
 42
0
  0
VERTEX
  8
0
 10
1852.7110846765238
 20
862.51358874951779
 42
0
  0
VERTEX
  8
0
 10
1851.1468769133917
 20
856.72106895142542
 42
-0.11274677515029907
  0
VERTEX
  8
0
 10
1819.8783665606488
 20
843.76923068365932
 42
-0
  0
VERTEX
  8
0
 10
1814.6763746763058
 20
846.75909165097573
 42
0
  0
VERTEX
  8
0
 10
1799.6412656011198
 20
846.75909165097573
 42
0
  0
VERTEX
  8
0
 10
1794.4392737167768
 20
843.76923068365932
 42
-0.11274677515029907
  0
VERTEX
  8
0
 10
1763.170763364034
 20
856.72106895142542
 42
-0
  0
VERTEX
  8
0
 10
1761.6065556009019
 20
862.51358874951779
 42
0
  0
VERTEX
  8
0
 10
1750.9751272110564
 20
873.14501713936329
 42
0
  0
VERTEX
  8
0
 10
1745.182607412964
 20
874.70922490249541
 42
-0.11274677515029907
  0
VERTEX
  8
0
 10
1732.2307691451979
 20
905.97773525523826
 42
-0
  0
VERTEX
  8
0
 10
1735.2206301125143
 20
911.17972713958125
 42
0
  0
VERTEX
  8
0
 10
1735.2206301125143
 20
926.21483621476727
 42
0
  0
VERTEX
  8
0
 10
1732.2307691451979
 20
931.41682809911026
 42
-0.11274677515029907
  0
VERTEX
  8
0
 10
1745.182607412964
 20
962.68533845185311
 42
-0
  0
VERTEX
  8
0
 10
1750.9751272110564
 20
964.24954621498523
 42
0
  0
VERTEX
  8
0
 10
1761.6065556009019
 20
974.88097460483073
 42
0
  0
SEQEND
  0
POLYLINE
  8
0
 10
0
 20
0
 39
0
 70
1
 66
1
  0
VERTEX
  8
0
 10
1814.2298878295621
 20
925.76834936802356
 42
1
  0
VERTEX
  8
0
 10
1800.0877524478635
 20
911.62621398632496
 42
1
  0
SEQEND
  0
POLYLINE
  8
0
 10
0
 20
0
 39
0
 70
1
 66
1
  0
VERTEX
  8
0
 10
1848.4015325948033
 20
772.98118671061548
 42
-0.11274677515029907
  0
VERTEX
  8
0
 10
1879.6700429475461
 20
785.93302497838158
 42
-0
  0
VERTEX
  8
0
 10
1884.8720348318891
 20
782.94316401106516
 42
0
  0
VERTEX
  8
0
 10
1899.9071439070751
 20
782.94316401106516
 42
0
  0
VERTEX
  8
0
 10
1905.1091357914181
 20
785.93302497838158
 42
-0.11274677515029907
  0
VERTEX
  8
0
 10
1936.377646144161
 20
772.98118671061548
 42
-0
  0
VERTEX
  8
0
 10
1937.9418539072931
 20
767.1886669125231
 42
0
  0
VERTEX
  8
0
 10
1948.5732822971386
 20
756.55723852267761
 42
0
  0
VERTEX
  8
0
 10
1954.3658020952309
 20
754.99303075954549
 42
-0.11274677515029907
  0
VERTEX
  8
0
 10
1967.3176403629971
 20
723.72452040680264
 42
-0
  0
VERTEX
  8
0
 10
1964.3277793956806
 20
718.52252852245965
 42
0
  0
VERTEX
  8
0
 10
1964.3277793956806
 20
703.48741944727362
 42
0
  0
VERTEX
  8
0
 10
1967.3176403629971
 20
698.28542756293064
 42
-0.11274677515029907
  0
VERTEX
  8
0
 10
1954.3658020952309
 20
667.01691721018778
 42
-0
  0
VERTEX
  8
0
 10
1948.5732822971386
 20
665.45270944705567
 42
0
  0
VERTEX
  8
0
 10
1937.9418539072931
 20
654.82128105721017
 42
0
  0
VERTEX
  8
0
 10
1936.377646144161
 20
649.0287612591178
 42
-0.11274677515029907
  0
VERTEX
  8
0
 10
1905.1091357914181
 20
636.07692299135169
 42
-0
  0
VERTEX
  8
0
 10
1899.9071439070751
 20
639.06678395866811
 42
0
  0
VERTEX
  8
0
 10
1884.8720348318891
 20
639.06678395866811
 42
0
  0
VERTEX
  8
0
 10
1879.6700429475461
 20
636.07692299135169
 42
-0.11274677515029907
  0
VERTEX
  8
0
 10
1848.4015325948033
 20
649.0287612591178
 42
-0
  0
VERTEX
  8
0
 10
1846.8373248316711
 20
654.82128105721017
 42
0
  0
VERTEX
  8
0
 10
1836.2058964418256
 20
665.45270944705567
 42
0
  0
VERTEX
  8
0
 10
1830.4133766437333
 20
667.01691721018778
 42
-0.11274677515029907
  0
VERTEX
  8
0
 10
1817.4615383759672
 20
698.28542756293064
 42
-0
  0
VERTEX
  8
0
 10
1820.4513993432836
 20
703.48741944727362
 42
0
  0
VERTEX
  8
0
 10
1820.4513993432836
 20
718.52252852245965
 42
0
  0
VERTEX
  8
0
 10
1817.4615383759672
 20
723.72452040680264
 42
-0.11274677515029907
  0
VERTEX
  8
0
 10
1830.4133766437333
 20
754.99303075954549
 42
-0
  0
VERTEX
  8
0
 10
1836.2058964418256
 20
756.55723852267761
 42
0
  0
VERTEX
  8
0
 10
1846.8373248316711
 20
767.1886669125231
 42
0
  0
SEQEND
  0
POLYLINE
  8
0
 10
0
 20
0
 39
0
 70
1
 66
1
  0
VERTEX
  8
0
 10
1899.4606570603314
 20
718.07604167571594
 42
1
  0
VERTEX
  8
0
 10
1885.3185216786328
 20
703.93390629401733
 42
1
  0
SEQEND
  0
POLYLINE
  8
0
 10
0
 20
0
 39
0
 70
1
 66
1
  0
VERTEX
  8
0
 10
1781.0361569277907
 20
121.89245703803593
 42
0
  0
VERTEX
  8
0
 10
1775.3057670347357
 20
154.39111211883122
 42
0
  0
VERTEX
  8
0
 10
1804.8499989263678
 20
159.60055747615391
 42
0
  0
VERTEX
  8
0
 10
1794.6047563902998
 20
217.704213529697
 42
0
  0
VERTEX
  8
0
 10
1802.7163519017363
 20
229.28877261268192
 42
0
  0
VERTEX
  8
0
 10
1861.8048231984872
 20
239.7076646521578
 42
0
  0
VERTEX
  8
0
 10
1863.5413049842614
 20
229.85958735494711
 42
0
  0
VERTEX
  8
0
 10
1863.54130263757
 20
78.165838273270339
 42
-0.36396992206573486
  0
VERTEX
  8
0
 10
1856.9304882911247
 20
70.287366242842864
 42
0
  0
VERTEX
  8
0
 10
1783.2863721140866
 20
57.301921215203976
 42
-1
  0
VERTEX
  8
0
 10
1772.8674800746107
 20
116.39039251195484
 42
0
  0
VERTEX
  8
0
 10
1777.7915337501895
 20
117.25863605450289
 42
0.41421392560005188
  0
SEQEND
  0
POLYLINE
  8
0
 10
0
 20
0
 39
0
 70
1
 66
1
  0
VERTEX
  8
0
 10
1779.6421645173077
 20
95.24555948033688
 42
1
  0
VERTEX
  8
0
 10
1782.4205353745465
 20
79.48863580479977
 42
1
  0
SEQEND
  0
POLYLINE
  8
0
 10
0
 20
0
 39
0
 70
1
 66
1
  0
VERTEX
  8
0
 10
1830.1675464649697
 20
96.640397220061487
 42
1
  0
VERTEX
  8
0
 10
1832.4597045419205
 20
83.64092316616464
 42
1
  0
SEQEND
  0
POLYLINE
  8
0
 10
0
 20
0
 39
0
 70
1
 66
1
  0
VERTEX
  8
0
 10
1810.3536690386873
 20
1107.0361569277907
 42
0
  0
VERTEX
  8
0
 10
1777.855013957892
 20
1101.3057670347357
 42
0
  0
VERTEX
  8
0
 10
1772.6455686005693
 20
1130.8499989263678
 42
0
  0
VERTEX
  8
0
 10
1714.5419125470262
 20
1120.6047563902998
 42
0
  0
VERTEX
  8
0
 10
1702.9573534640413
 20
1128.7163519017363
 42
0
  0
VERTEX
  8
0
 10
1692.5384614245654
 20
1187.8048231984872
 42
0
  0
VERTEX
  8
0
 10
1702.3865387217761
 20
1189.5413049842614
 42
0
  0
VERTEX
  8
0
 10
1854.0802878034528
 20
1189.54130263757
 42
-0.36396992206573486
  0
VERTEX
  8
0
 10
1861.9587598338803
 20
1182.9304882911247
 42
0
  0
VERTEX
  8
0
 10
1874.9442048615192
 20
1109.2863721140866
 42
-1
  0
VERTEX
  8
0
 10
1815.8557335647683
 20
1098.8674800746107
 42
0
  0
VERTEX
  8
0
 10
1814.9874900222203
 20
1103.7915337501895
 42
0.41421392560005188
  0
SEQEND
  0
POLYLINE
  8
0
 10
0
 20
0
 39
0
 70
1
 66
1
  0
VERTEX
  8
0
 10
1837.0005665963863
 20
1105.6421645173077
 42
1
  0
VERTEX
  8
0
 10
1852.7574902719234
 20
1108.4205353745465
 42
1
  0
SEQEND
  0
POLYLINE
  8
0
 10
0
 20
0
 39
0
 70
1
 66
1
  0
VERTEX
  8
0
 10
1835.6057288566617
 20
1156.1675464649697
 42
1
  0
VERTEX
  8
0
 10
1848.6052029105585
 20
1158.4597045419205
 42
1
  0
SEQEND
  0
ENDSEC
  0
EOF
