  0
SECTION
  2
ENTITIES
  0
POLYLINE
  8
0
 10
0
 20
0
 39
0
 70
1
 66
1
  0
VERTEX
  8
0
 10
0
 20
0
 42
0
  0
VERTEX
  8
0
 10
2000
 20
0
 42
0
  0
VERTEX
  8
0
 10
2000
 20
900
 42
0
  0
VERTEX
  8
0
 10
0
 20
900
 42
0
  0
SEQEND
  0
POLYLINE
  8
0
 10
0
 20
0
 39
0
 70
1
 66
1
  0
VERTEX
  8
0
 10
719.0391845703125
 20
550
 42
0
  0
VERTEX
  8
0
 10
719.0391845703125
 20
10
 42
0
  0
VERTEX
  8
0
 10
744.0391845703125
 20
10
 42
-0
  0
VERTEX
  8
0
 10
819.0391845703125
 20
119
 42
-0
  0
VERTEX
  8
0
 10
819.0391845703125
 20
550
 42
-0
  0
SEQEND
  0
POLYLINE
  8
0
 10
0
 20
0
 39
0
 70
1
 66
1
  0
VERTEX
  8
0
 10
794.669677734375
 20
119
 42
0
  0
VERTEX
  8
0
 10
744.0391845703125
 20
41.805694580078125
 42
0
  0
VERTEX
  8
0
 10
734.0391845703125
 20
41.805694580078125
 42
0
  0
VERTEX
  8
0
 10
734.0391845703125
 20
129
 42
-0
  0
VERTEX
  8
0
 10
794.669677734375
 20
129
 42
-0
  0
SEQEND
  0
POLYLINE
  8
0
 10
0
 20
0
 39
0
 70
1
 66
1
  0
VERTEX
  8
0
 10
781.5391845703125
 20
363.7481689453125
 42
0
  0
VERTEX
  8
0
 10
781.5391845703125
 20
163.8565673828125
 42
-0.19785122573375702
  0
VERTEX
  8
0
 10
757.16961669921875
 20
163.596923828125
 42
-0
  0
VERTEX
  8
0
 10
757.16961669921875
 20
363.7481689453125
 42
-0.19997029006481171
  0
SEQEND
  0
POLYLINE
  8
0
 10
0
 20
0
 39
0
 70
1
 66
1
  0
VERTEX
  8
0
 10
1640
 20
860
 42
0
  0
VERTEX
  8
0
 10
1640
 20
560
 42
-0
  0
VERTEX
  8
0
 10
1690
 20
560
 42
-0
  0
VERTEX
  8
0
 10
1690
 20
634.58770751953125
 42
0
  0
VERTEX
  8
0
 10
1681.6221923828125
 20
634.58770751953125
 42
-0
  0
VERTEX
  8
0
 10
1681.6221923828125
 20
785.41229248046875
 42
-0
  0
VERTEX
  8
0
 10
1690
 20
785.41229248046875
 42
-0
  0
VERTEX
  8
0
 10
1690
 20
860
 42
-0
  0
SEQEND
  0
POLYLINE
  8
0
 10
0
 20
0
 39
0
 70
1
 66
1
  0
VERTEX
  8
0
 10
1665
 20
841.01751708984375
 42
-1
  0
VERTEX
  8
0
 10
1665
 20
813.01751708984375
 42
-1
  0
SEQEND
  0
POLYLINE
  8
0
 10
0
 20
0
 39
0
 70
1
 66
1
  0
VERTEX
  8
0
 10
1665
 20
606.9825439453125
 42
-1
  0
VERTEX
  8
0
 10
1665
 20
578.9825439453125
 42
-1
  0
SEQEND
  0
POLYLINE
  8
0
 10
0
 20
0
 39
0
 70
1
 66
1
  0
VERTEX
  8
0
 10
1919.0391845703125
 20
310
 42
0
  0
VERTEX
  8
0
 10
1919.0391845703125
 20
10
 42
-0
  0
VERTEX
  8
0
 10
1969.0391845703125
 20
10
 42
-0
  0
VERTEX
  8
0
 10
1969.0391845703125
 20
84.58770751953125
 42
0
  0
VERTEX
  8
0
 10
1960.661376953125
 20
84.58770751953125
 42
-0
  0
VERTEX
  8
0
 10
1960.661376953125
 20
235.41229248046875
 42
-0
  0
VERTEX
  8
0
 10
1969.0391845703125
 20
235.41229248046875
 42
-0
  0
VERTEX
  8
0
 10
1969.0391845703125
 20
310
 42
-0
  0
SEQEND
  0
POLYLINE
  8
0
 10
0
 20
0
 39
0
 70
1
 66
1
  0
VERTEX
  8
0
 10
1944.0391845703125
 20
291.01748657226562
 42
-1
  0
VERTEX
  8
0
 10
1944.0391845703125
 20
263.01748657226562
 42
-1
  0
SEQEND
  0
POLYLINE
  8
0
 10
0
 20
0
 39
0
 70
1
 66
1
  0
VERTEX
  8
0
 10
1944.0391845703125
 20
56.982513427734375
 42
-1
  0
VERTEX
  8
0
 10
1944.0391845703125
 20
28.982513427734375
 42
-1
  0
SEQEND
  0
POLYLINE
  8
0
 10
0
 20
0
 39
0
 70
1
 66
1
  0
VERTEX
  8
0
 10
1520
 20
860
 42
0
  0
VERTEX
  8
0
 10
1520
 20
560
 42
-0
  0
VERTEX
  8
0
 10
1570
 20
560
 42
-0
  0
VERTEX
  8
0
 10
1570
 20
634.58770751953125
 42
0
  0
VERTEX
  8
0
 10
1561.6221923828125
 20
634.58770751953125
 42
-0
  0
VERTEX
  8
0
 10
1561.6221923828125
 20
785.41229248046875
 42
-0
  0
VERTEX
  8
0
 10
1570
 20
785.41229248046875
 42
-0
  0
VERTEX
  8
0
 10
1570
 20
860
 42
-0
  0
SEQEND
  0
POLYLINE
  8
0
 10
0
 20
0
 39
0
 70
1
 66
1
  0
VERTEX
  8
0
 10
1545
 20
841.01751708984375
 42
-1
  0
VERTEX
  8
0
 10
1545
 20
813.01751708984375
 42
-1
  0
SEQEND
  0
POLYLINE
  8
0
 10
0
 20
0
 39
0
 70
1
 66
1
  0
VERTEX
  8
0
 10
1545
 20
606.9825439453125
 42
-1
  0
VERTEX
  8
0
 10
1545
 20
578.9825439453125
 42
-1
  0
SEQEND
  0
POLYLINE
  8
0
 10
0
 20
0
 39
0
 70
1
 66
1
  0
VERTEX
  8
0
 10
1880
 20
620
 42
0
  0
VERTEX
  8
0
 10
1880
 20
320
 42
-0
  0
VERTEX
  8
0
 10
1930
 20
320
 42
-0
  0
VERTEX
  8
0
 10
1930
 20
394.58770751953125
 42
0
  0
VERTEX
  8
0
 10
1921.6221923828125
 20
394.58770751953125
 42
-0
  0
VERTEX
  8
0
 10
1921.6221923828125
 20
545.41229248046875
 42
-0
  0
VERTEX
  8
0
 10
1930
 20
545.41229248046875
 42
-0
  0
VERTEX
  8
0
 10
1930
 20
620
 42
-0
  0
SEQEND
  0
POLYLINE
  8
0
 10
0
 20
0
 39
0
 70
1
 66
1
  0
VERTEX
  8
0
 10
1905
 20
601.01751708984375
 42
-1
  0
VERTEX
  8
0
 10
1905
 20
573.01751708984375
 42
-1
  0
SEQEND
  0
POLYLINE
  8
0
 10
0
 20
0
 39
0
 70
1
 66
1
  0
VERTEX
  8
0
 10
1905
 20
366.98251342773437
 42
-1
  0
VERTEX
  8
0
 10
1905
 20
338.98251342773437
 42
-1
  0
SEQEND
  0
POLYLINE
  8
0
 10
0
 20
0
 39
0
 70
1
 66
1
  0
VERTEX
  8
0
 10
1760
 20
860
 42
0
  0
VERTEX
  8
0
 10
1760
 20
560
 42
-0
  0
VERTEX
  8
0
 10
1810
 20
560
 42
-0
  0
VERTEX
  8
0
 10
1810
 20
634.58770751953125
 42
0
  0
VERTEX
  8
0
 10
1801.6221923828125
 20
634.58770751953125
 42
-0
  0
VERTEX
  8
0
 10
1801.6221923828125
 20
785.41229248046875
 42
-0
  0
VERTEX
  8
0
 10
1810
 20
785.41229248046875
 42
-0
  0
VERTEX
  8
0
 10
1810
 20
860
 42
-0
  0
SEQEND
  0
POLYLINE
  8
0
 10
0
 20
0
 39
0
 70
1
 66
1
  0
VERTEX
  8
0
 10
1785
 20
841.01751708984375
 42
-1
  0
VERTEX
  8
0
 10
1785
 20
813.01751708984375
 42
-1
  0
SEQEND
  0
POLYLINE
  8
0
 10
0
 20
0
 39
0
 70
1
 66
1
  0
VERTEX
  8
0
 10
1785
 20
606.9825439453125
 42
-1
  0
VERTEX
  8
0
 10
1785
 20
578.9825439453125
 42
-1
  0
SEQEND
  0
POLYLINE
  8
0
 10
0
 20
0
 39
0
 70
1
 66
1
  0
VERTEX
  8
0
 10
1700
 20
860
 42
0
  0
VERTEX
  8
0
 10
1700
 20
560
 42
-0
  0
VERTEX
  8
0
 10
1750
 20
560
 42
-0
  0
VERTEX
  8
0
 10
1750
 20
634.58770751953125
 42
0
  0
VERTEX
  8
0
 10
1741.6221923828125
 20
634.58770751953125
 42
-0
  0
VERTEX
  8
0
 10
1741.6221923828125
 20
785.41229248046875
 42
-0
  0
VERTEX
  8
0
 10
1750
 20
785.41229248046875
 42
-0
  0
VERTEX
  8
0
 10
1750
 20
860
 42
-0
  0
SEQEND
  0
POLYLINE
  8
0
 10
0
 20
0
 39
0
 70
1
 66
1
  0
VERTEX
  8
0
 10
1725
 20
841.01751708984375
 42
-1
  0
VERTEX
  8
0
 10
1725
 20
813.01751708984375
 42
-1
  0
SEQEND
  0
POLYLINE
  8
0
 10
0
 20
0
 39
0
 70
1
 66
1
  0
VERTEX
  8
0
 10
1725
 20
606.9825439453125
 42
-1
  0
VERTEX
  8
0
 10
1725
 20
578.9825439453125
 42
-1
  0
SEQEND
  0
POLYLINE
  8
0
 10
0
 20
0
 39
0
 70
1
 66
1
  0
VERTEX
  8
0
 10
1329.0391845703125
 20
720
 42
0
  0
VERTEX
  8
0
 10
1329.0391845703125
 20
420
 42
-0
  0
VERTEX
  8
0
 10
1379.0391845703125
 20
420
 42
-0
  0
VERTEX
  8
0
 10
1379.0391845703125
 20
494.58770751953125
 42
0
  0
VERTEX
  8
0
 10
1370.661376953125
 20
494.58770751953125
 42
-0
  0
VERTEX
  8
0
 10
1370.661376953125
 20
645.41229248046875
 42
-0
  0
VERTEX
  8
0
 10
1379.0391845703125
 20
645.41229248046875
 42
-0
  0
VERTEX
  8
0
 10
1379.0391845703125
 20
720
 42
-0
  0
SEQEND
  0
POLYLINE
  8
0
 10
0
 20
0
 39
0
 70
1
 66
1
  0
VERTEX
  8
0
 10
1354.0391845703125
 20
701.01751708984375
 42
-1
  0
VERTEX
  8
0
 10
1354.0391845703125
 20
673.01751708984375
 42
-1
  0
SEQEND
  0
POLYLINE
  8
0
 10
0
 20
0
 39
0
 70
1
 66
1
  0
VERTEX
  8
0
 10
1354.0391845703125
 20
466.98251342773437
 42
-1
  0
VERTEX
  8
0
 10
1354.0391845703125
 20
438.98251342773437
 42
-1
  0
SEQEND
  0
POLYLINE
  8
0
 10
0
 20
0
 39
0
 70
1
 66
1
  0
VERTEX
  8
0
 10
1940
 20
620
 42
0
  0
VERTEX
  8
0
 10
1940
 20
320
 42
-0
  0
VERTEX
  8
0
 10
1990
 20
320
 42
-0
  0
VERTEX
  8
0
 10
1990
 20
394.58770751953125
 42
0
  0
VERTEX
  8
0
 10
1981.6221923828125
 20
394.58770751953125
 42
-0
  0
VERTEX
  8
0
 10
1981.6221923828125
 20
545.41229248046875
 42
-0
  0
VERTEX
  8
0
 10
1990
 20
545.41229248046875
 42
-0
  0
VERTEX
  8
0
 10
1990
 20
620
 42
-0
  0
SEQEND
  0
POLYLINE
  8
0
 10
0
 20
0
 39
0
 70
1
 66
1
  0
VERTEX
  8
0
 10
1965
 20
601.01751708984375
 42
-1
  0
VERTEX
  8
0
 10
1965
 20
573.01751708984375
 42
-1
  0
SEQEND
  0
POLYLINE
  8
0
 10
0
 20
0
 39
0
 70
1
 66
1
  0
VERTEX
  8
0
 10
1965
 20
366.98251342773437
 42
-1
  0
VERTEX
  8
0
 10
1965
 20
338.98251342773437
 42
-1
  0
SEQEND
  0
POLYLINE
  8
0
 10
0
 20
0
 39
0
 70
1
 66
1
  0
VERTEX
  8
0
 10
1580
 20
860
 42
0
  0
VERTEX
  8
0
 10
1580
 20
560
 42
-0
  0
VERTEX
  8
0
 10
1630
 20
560
 42
-0
  0
VERTEX
  8
0
 10
1630
 20
634.58770751953125
 42
0
  0
VERTEX
  8
0
 10
1621.6221923828125
 20
634.58770751953125
 42
-0
  0
VERTEX
  8
0
 10
1621.6221923828125
 20
785.41229248046875
 42
-0
  0
VERTEX
  8
0
 10
1630
 20
785.41229248046875
 42
-0
  0
VERTEX
  8
0
 10
1630
 20
860
 42
-0
  0
SEQEND
  0
POLYLINE
  8
0
 10
0
 20
0
 39
0
 70
1
 66
1
  0
VERTEX
  8
0
 10
1605
 20
841.01751708984375
 42
-1
  0
VERTEX
  8
0
 10
1605
 20
813.01751708984375
 42
-1
  0
SEQEND
  0
POLYLINE
  8
0
 10
0
 20
0
 39
0
 70
1
 66
1
  0
VERTEX
  8
0
 10
1605
 20
606.9825439453125
 42
-1
  0
VERTEX
  8
0
 10
1605
 20
578.9825439453125
 42
-1
  0
SEQEND
  0
POLYLINE
  8
0
 10
0
 20
0
 39
0
 70
1
 66
1
  0
VERTEX
  8
0
 10
499.03921508789063
 20
560
 42
0
  0
VERTEX
  8
0
 10
1039.0391845703125
 20
560
 42
0
  0
VERTEX
  8
0
 10
1039.0391845703125
 20
585
 42
-0
  0
VERTEX
  8
0
 10
930.0391845703125
 20
660
 42
-0
  0
VERTEX
  8
0
 10
499.03921508789063
 20
660
 42
-0
  0
SEQEND
  0
POLYLINE
  8
0
 10
0
 20
0
 39
0
 70
1
 66
1
  0
VERTEX
  8
0
 10
930.0391845703125
 20
635.63043212890625
 42
0
  0
VERTEX
  8
0
 10
1007.2335205078125
 20
585
 42
0
  0
VERTEX
  8
0
 10
1007.2335205078125
 20
575
 42
0
  0
VERTEX
  8
0
 10
920.0391845703125
 20
575
 42
-0
  0
VERTEX
  8
0
 10
920.0391845703125
 20
635.63043212890625
 42
-0
  0
SEQEND
  0
POLYLINE
  8
0
 10
0
 20
0
 39
0
 70
1
 66
1
  0
VERTEX
  8
0
 10
685.291015625
 20
622.5
 42
0
  0
VERTEX
  8
0
 10
885.1826171875
 20
622.5
 42
-0.19785122573375702
  0
VERTEX
  8
0
 10
885.4422607421875
 20
598.13043212890625
 42
-0
  0
VERTEX
  8
0
 10
685.291015625
 20
598.13043212890625
 42
-0.19997029006481171
  0
SEQEND
  0
POLYLINE
  8
0
 10
0
 20
0
 39
0
 70
1
 66
1
  0
VERTEX
  8
0
 10
829.0391845703125
 20
550
 42
0
  0
VERTEX
  8
0
 10
829.0391845703125
 20
10
 42
0
  0
VERTEX
  8
0
 10
854.0391845703125
 20
10
 42
-0
  0
VERTEX
  8
0
 10
929.0391845703125
 20
119
 42
-0
  0
VERTEX
  8
0
 10
929.0391845703125
 20
550
 42
-0
  0
SEQEND
  0
POLYLINE
  8
0
 10
0
 20
0
 39
0
 70
1
 66
1
  0
VERTEX
  8
0
 10
904.669677734375
 20
119
 42
0
  0
VERTEX
  8
0
 10
854.0391845703125
 20
41.805694580078125
 42
0
  0
VERTEX
  8
0
 10
844.0391845703125
 20
41.805694580078125
 42
0
  0
VERTEX
  8
0
 10
844.0391845703125
 20
129
 42
-0
  0
VERTEX
  8
0
 10
904.669677734375
 20
129
 42
-0
  0
SEQEND
  0
POLYLINE
  8
0
 10
0
 20
0
 39
0
 70
1
 66
1
  0
VERTEX
  8
0
 10
891.5391845703125
 20
363.7481689453125
 42
0
  0
VERTEX
  8
0
 10
891.5391845703125
 20
163.8565673828125
 42
-0.19785122573375702
  0
VERTEX
  8
0
 10
867.16961669921875
 20
163.596923828125
 42
-0
  0
VERTEX
  8
0
 10
867.16961669921875
 20
363.7481689453125
 42
-0.19997029006481171
  0
SEQEND
  0
POLYLINE
  8
0
 10
0
 20
0
 39
0
 70
1
 66
1
  0
VERTEX
  8
0
 10
1820
 20
620
 42
0
  0
VERTEX
  8
0
 10
1820
 20
320
 42
-0
  0
VERTEX
  8
0
 10
1870
 20
320
 42
-0
  0
VERTEX
  8
0
 10
1870
 20
394.58770751953125
 42
0
  0
VERTEX
  8
0
 10
1861.6221923828125
 20
394.58770751953125
 42
-0
  0
VERTEX
  8
0
 10
1861.6221923828125
 20
545.41229248046875
 42
-0
  0
VERTEX
  8
0
 10
1870
 20
545.41229248046875
 42
-0
  0
VERTEX
  8
0
 10
1870
 20
620
 42
-0
  0
SEQEND
  0
POLYLINE
  8
0
 10
0
 20
0
 39
0
 70
1
 66
1
  0
VERTEX
  8
0
 10
1845
 20
601.01751708984375
 42
-1
  0
VERTEX
  8
0
 10
1845
 20
573.01751708984375
 42
-1
  0
SEQEND
  0
POLYLINE
  8
0
 10
0
 20
0
 39
0
 70
1
 66
1
  0
VERTEX
  8
0
 10
1845
 20
366.98251342773437
 42
-1
  0
VERTEX
  8
0
 10
1845
 20
338.98251342773437
 42
-1
  0
SEQEND
  0
POLYLINE
  8
0
 10
0
 20
0
 39
0
 70
1
 66
1
  0
VERTEX
  8
0
 10
1799.0391845703125
 20
310
 42
0
  0
VERTEX
  8
0
 10
1799.0391845703125
 20
10
 42
-0
  0
VERTEX
  8
0
 10
1849.0391845703125
 20
10
 42
-0
  0
VERTEX
  8
0
 10
1849.0391845703125
 20
84.58770751953125
 42
0
  0
VERTEX
  8
0
 10
1840.661376953125
 20
84.58770751953125
 42
-0
  0
VERTEX
  8
0
 10
1840.661376953125
 20
235.41229248046875
 42
-0
  0
VERTEX
  8
0
 10
1849.0391845703125
 20
235.41229248046875
 42
-0
  0
VERTEX
  8
0
 10
1849.0391845703125
 20
310
 42
-0
  0
SEQEND
  0
POLYLINE
  8
0
 10
0
 20
0
 39
0
 70
1
 66
1
  0
VERTEX
  8
0
 10
1824.0391845703125
 20
291.01748657226562
 42
-1
  0
VERTEX
  8
0
 10
1824.0391845703125
 20
263.01748657226562
 42
-1
  0
SEQEND
  0
POLYLINE
  8
0
 10
0
 20
0
 39
0
 70
1
 66
1
  0
VERTEX
  8
0
 10
1824.0391845703125
 20
56.982513427734375
 42
-1
  0
VERTEX
  8
0
 10
1824.0391845703125
 20
28.982513427734375
 42
-1
  0
SEQEND
  0
POLYLINE
  8
0
 10
0
 20
0
 39
0
 70
1
 66
1
  0
VERTEX
  8
0
 10
1049.0391845703125
 20
660
 42
0
  0
VERTEX
  8
0
 10
1049.0391845703125
 20
260
 42
-0
  0
VERTEX
  8
0
 10
1109.0391845703125
 20
260
 42
-0
  0
VERTEX
  8
0
 10
1109.0391845703125
 20
660
 42
-0
  0
SEQEND
  0
POLYLINE
  8
0
 10
0
 20
0
 39
0
 70
1
 66
1
  0
VERTEX
  8
0
 10
1079.0391845703125
 20
632.35479736328125
 42
-1
  0
VERTEX
  8
0
 10
1079.0391845703125
 20
606.35479736328125
 42
-1
  0
SEQEND
  0
POLYLINE
  8
0
 10
0
 20
0
 39
0
 70
1
 66
1
  0
VERTEX
  8
0
 10
1079.0391845703125
 20
595.04730224609375
 42
-1
  0
VERTEX
  8
0
 10
1079.0391845703125
 20
569.04730224609375
 42
-1
  0
SEQEND
  0
POLYLINE
  8
0
 10
0
 20
0
 39
0
 70
1
 66
1
  0
VERTEX
  8
0
 10
1079.0391845703125
 20
557.19110107421875
 42
-1
  0
VERTEX
  8
0
 10
1079.0391845703125
 20
531.19110107421875
 42
-1
  0
SEQEND
  0
POLYLINE
  8
0
 10
0
 20
0
 39
0
 70
1
 66
1
  0
VERTEX
  8
0
 10
560
 20
670
 42
0
  0
VERTEX
  8
0
 10
1100
 20
670
 42
0
  0
VERTEX
  8
0
 10
1100
 20
695
 42
-0
  0
VERTEX
  8
0
 10
991
 20
770
 42
-0
  0
VERTEX
  8
0
 10
560
 20
770
 42
-0
  0
SEQEND
  0
POLYLINE
  8
0
 10
0
 20
0
 39
0
 70
1
 66
1
  0
VERTEX
  8
0
 10
991
 20
745.63043212890625
 42
0
  0
VERTEX
  8
0
 10
1068.1943359375
 20
695
 42
0
  0
VERTEX
  8
0
 10
1068.1943359375
 20
685
 42
0
  0
VERTEX
  8
0
 10
981
 20
685
 42
-0
  0
VERTEX
  8
0
 10
981
 20
745.63043212890625
 42
-0
  0
SEQEND
  0
POLYLINE
  8
0
 10
0
 20
0
 39
0
 70
1
 66
1
  0
VERTEX
  8
0
 10
746.2518310546875
 20
732.5
 42
0
  0
VERTEX
  8
0
 10
946.1434326171875
 20
732.5
 42
-0.19785122573375702
  0
VERTEX
  8
0
 10
946.403076171875
 20
708.13043212890625
 42
-0
  0
VERTEX
  8
0
 10
746.2518310546875
 20
708.13043212890625
 42
-0.19997029006481171
  0
SEQEND
  0
POLYLINE
  8
0
 10
0
 20
0
 39
0
 70
1
 66
1
  0
VERTEX
  8
0
 10
1920
 20
853.81884765625
 42
0
  0
VERTEX
  8
0
 10
1920
 20
653.81884765625
 42
0
  0
VERTEX
  8
0
 10
1940
 20
630
 42
0
  0
VERTEX
  8
0
 10
1960
 20
653.81884765625
 42
-0
  0
VERTEX
  8
0
 10
1960
 20
853.81884765625
 42
-0
  0
VERTEX
  8
0
 10
1940
 20
877.63763427734375
 42
-0
  0
SEQEND
  0
POLYLINE
  8
0
 10
0
 20
0
 39
0
 70
1
 66
1
  0
VERTEX
  8
0
 10
1940
 20
853.81884765625
 42
0
  0
VERTEX
  8
0
 10
1950
 20
843.518798828125
 42
0
  0
VERTEX
  8
0
 10
1950
 20
794.518798828125
 42
0
  0
VERTEX
  8
0
 10
1940
 20
797.40045166015625
 42
0
  0
VERTEX
  8
0
 10
1930
 20
794.518798828125
 42
-0
  0
VERTEX
  8
0
 10
1930
 20
843.518798828125
 42
-0
  0
SEQEND
  0
POLYLINE
  8
0
 10
0
 20
0
 39
0
 70
1
 66
1
  0
VERTEX
  8
0
 10
1940
 20
791.41522216796875
 42
-1
  0
VERTEX
  8
0
 10
1940
 20
771.41522216796875
 42
-1
  0
SEQEND
  0
POLYLINE
  8
0
 10
0
 20
0
 39
0
 70
1
 66
1
  0
VERTEX
  8
0
 10
376.7794189453125
 20
677.4893798828125
 42
0
  0
VERTEX
  8
0
 10
376.7794189453125
 20
518.498046875
 42
0
  0
VERTEX
  8
0
 10
411.9093017578125
 20
518.498046875
 42
0
  0
VERTEX
  8
0
 10
411.9093017578125
 20
478.49807739257812
 42
0
  0
VERTEX
  8
0
 10
376.7794189453125
 20
478.49807739257812
 42
0
  0
VERTEX
  8
0
 10
376.7794189453125
 20
236.05815124511719
 42
0
  0
VERTEX
  8
0
 10
411.9093017578125
 20
236.05815124511719
 42
0
  0
VERTEX
  8
0
 10
411.9093017578125
 20
196.05812072753906
 42
0
  0
VERTEX
  8
0
 10
376.7794189453125
 20
196.05812072753906
 42
0
  0
VERTEX
  8
0
 10
376.7794189453125
 20
36.906383514404297
 42
0.47935917973518372
  0
VERTEX
  8
0
 10
489.03921508789062
 20
36.906383514404297
 42
-0
  0
VERTEX
  8
0
 10
489.03921508789062
 20
196.05812072753906
 42
-0
  0
VERTEX
  8
0
 10
453.9093017578125
 20
196.05812072753906
 42
-0
  0
VERTEX
  8
0
 10
453.9093017578125
 20
236.05815124511719
 42
-0
  0
VERTEX
  8
0
 10
489.03921508789062
 20
236.05815124511719
 42
-0
  0
VERTEX
  8
0
 10
489.03921508789062
 20
478.49807739257812
 42
-0
  0
VERTEX
  8
0
 10
453.9093017578125
 20
478.49807739257812
 42
-0
  0
VERTEX
  8
0
 10
453.9093017578125
 20
518.498046875
 42
-0
  0
VERTEX
  8
0
 10
489.03921508789062
 20
518.498046875
 42
-0
  0
VERTEX
  8
0
 10
489.03921508789062
 20
677.4893798828125
 42
0.47935917973518372
  0
SEQEND
  0
POLYLINE
  8
0
 10
0
 20
0
 39
0
 70
1
 66
1
  0
VERTEX
  8
0
 10
432.9093017578125
 20
393.1480712890625
 42
-1
  0
VERTEX
  8
0
 10
432.9093017578125
 20
329.1480712890625
 42
-1
  0
SEQEND
  0
POLYLINE
  8
0
 10
0
 20
0
 39
0
 70
1
 66
1
  0
VERTEX
  8
0
 10
10
 20
677.4893798828125
 42
0
  0
VERTEX
  8
0
 10
10
 20
518.498046875
 42
0
  0
VERTEX
  8
0
 10
45.129901885986328
 20
518.498046875
 42
0
  0
VERTEX
  8
0
 10
45.129901885986328
 20
478.49807739257812
 42
0
  0
VERTEX
  8
0
 10
10
 20
478.49807739257812
 42
0
  0
VERTEX
  8
0
 10
10
 20
236.05815124511719
 42
0
  0
VERTEX
  8
0
 10
45.129901885986328
 20
236.05815124511719
 42
0
  0
VERTEX
  8
0
 10
45.129901885986328
 20
196.05812072753906
 42
0
  0
VERTEX
  8
0
 10
10
 20
196.05812072753906
 42
0
  0
VERTEX
  8
0
 10
10
 20
36.906383514404297
 42
0.47935917973518372
  0
VERTEX
  8
0
 10
122.25980377197266
 20
36.906383514404297
 42
-0
  0
VERTEX
  8
0
 10
122.25980377197266
 20
196.05812072753906
 42
-0
  0
VERTEX
  8
0
 10
87.129898071289062
 20
196.05812072753906
 42
-0
  0
VERTEX
  8
0
 10
87.129898071289062
 20
236.05815124511719
 42
-0
  0
VERTEX
  8
0
 10
122.25980377197266
 20
236.05815124511719
 42
-0
  0
VERTEX
  8
0
 10
122.25980377197266
 20
478.49807739257812
 42
-0
  0
VERTEX
  8
0
 10
87.129898071289062
 20
478.49807739257812
 42
-0
  0
VERTEX
  8
0
 10
87.129898071289062
 20
518.498046875
 42
-0
  0
VERTEX
  8
0
 10
122.25980377197266
 20
518.498046875
 42
-0
  0
VERTEX
  8
0
 10
122.25980377197266
 20
677.4893798828125
 42
0.47935917973518372
  0
SEQEND
  0
POLYLINE
  8
0
 10
0
 20
0
 39
0
 70
1
 66
1
  0
VERTEX
  8
0
 10
66.129905700683594
 20
393.1480712890625
 42
-1
  0
VERTEX
  8
0
 10
66.129905700683594
 20
329.1480712890625
 42
-1
  0
SEQEND
  0
POLYLINE
  8
0
 10
0
 20
0
 39
0
 70
1
 66
1
  0
VERTEX
  8
0
 10
1189.0391845703125
 20
820
 42
0
  0
VERTEX
  8
0
 10
1189.0391845703125
 20
420
 42
-0
  0
VERTEX
  8
0
 10
1249.0391845703125
 20
420
 42
-0
  0
VERTEX
  8
0
 10
1249.0391845703125
 20
820
 42
-0
  0
SEQEND
  0
POLYLINE
  8
0
 10
0
 20
0
 39
0
 70
1
 66
1
  0
VERTEX
  8
0
 10
1219.0391845703125
 20
792.35479736328125
 42
-1
  0
VERTEX
  8
0
 10
1219.0391845703125
 20
766.35479736328125
 42
-1
  0
SEQEND
  0
POLYLINE
  8
0
 10
0
 20
0
 39
0
 70
1
 66
1
  0
VERTEX
  8
0
 10
1219.0391845703125
 20
755.04730224609375
 42
-1
  0
VERTEX
  8
0
 10
1219.0391845703125
 20
729.04730224609375
 42
-1
  0
SEQEND
  0
POLYLINE
  8
0
 10
0
 20
0
 39
0
 70
1
 66
1
  0
VERTEX
  8
0
 10
1219.0391845703125
 20
717.19110107421875
 42
-1
  0
VERTEX
  8
0
 10
1219.0391845703125
 20
691.19110107421875
 42
-1
  0
SEQEND
  0
POLYLINE
  8
0
 10
0
 20
0
 39
0
 70
1
 66
1
  0
VERTEX
  8
0
 10
1189.0391845703125
 20
410
 42
0
  0
VERTEX
  8
0
 10
1189.0391845703125
 20
10
 42
-0
  0
VERTEX
  8
0
 10
1249.0391845703125
 20
10
 42
-0
  0
VERTEX
  8
0
 10
1249.0391845703125
 20
410
 42
-0
  0
SEQEND
  0
POLYLINE
  8
0
 10
0
 20
0
 39
0
 70
1
 66
1
  0
VERTEX
  8
0
 10
1219.0391845703125
 20
382.35479736328125
 42
-1
  0
VERTEX
  8
0
 10
1219.0391845703125
 20
356.35479736328125
 42
-1
  0
SEQEND
  0
POLYLINE
  8
0
 10
0
 20
0
 39
0
 70
1
 66
1
  0
VERTEX
  8
0
 10
1219.0391845703125
 20
345.04730224609375
 42
-1
  0
VERTEX
  8
0
 10
1219.0391845703125
 20
319.04730224609375
 42
-1
  0
SEQEND
  0
POLYLINE
  8
0
 10
0
 20
0
 39
0
 70
1
 66
1
  0
VERTEX
  8
0
 10
1219.0391845703125
 20
307.19113159179687
 42
-1
  0
VERTEX
  8
0
 10
1219.0391845703125
 20
281.19110107421875
 42
-1
  0
SEQEND
  0
POLYLINE
  8
0
 10
0
 20
0
 39
0
 70
1
 66
1
  0
VERTEX
  8
0
 10
560
 20
780
 42
0
  0
VERTEX
  8
0
 10
1100
 20
780
 42
0
  0
VERTEX
  8
0
 10
1100
 20
805
 42
-0
  0
VERTEX
  8
0
 10
991
 20
880
 42
-0
  0
VERTEX
  8
0
 10
560
 20
880
 42
-0
  0
SEQEND
  0
POLYLINE
  8
0
 10
0
 20
0
 39
0
 70
1
 66
1
  0
VERTEX
  8
0
 10
991
 20
855.63043212890625
 42
0
  0
VERTEX
  8
0
 10
1068.1943359375
 20
805
 42
0
  0
VERTEX
  8
0
 10
1068.1943359375
 20
795
 42
0
  0
VERTEX
  8
0
 10
981
 20
795
 42
-0
  0
VERTEX
  8
0
 10
981
 20
855.63043212890625
 42
-0
  0
SEQEND
  0
POLYLINE
  8
0
 10
0
 20
0
 39
0
 70
1
 66
1
  0
VERTEX
  8
0
 10
746.2518310546875
 20
842.5
 42
0
  0
VERTEX
  8
0
 10
946.1434326171875
 20
842.5
 42
-0.19785122573375702
  0
VERTEX
  8
0
 10
946.403076171875
 20
818.13043212890625
 42
-0
  0
VERTEX
  8
0
 10
746.2518310546875
 20
818.13043212890625
 42
-0.19997029006481171
  0
SEQEND
  0
POLYLINE
  8
0
 10
0
 20
0
 39
0
 70
1
 66
1
  0
VERTEX
  8
0
 10
1469.0391845703125
 20
550
 42
0
  0
VERTEX
  8
0
 10
1469.0391845703125
 20
10
 42
0
  0
VERTEX
  8
0
 10
1494.0391845703125
 20
10
 42
-0
  0
VERTEX
  8
0
 10
1569.0391845703125
 20
119
 42
-0
  0
VERTEX
  8
0
 10
1569.0391845703125
 20
550
 42
-0
  0
SEQEND
  0
POLYLINE
  8
0
 10
0
 20
0
 39
0
 70
1
 66
1
  0
VERTEX
  8
0
 10
1544.669677734375
 20
119
 42
0
  0
VERTEX
  8
0
 10
1494.0391845703125
 20
41.805694580078125
 42
0
  0
VERTEX
  8
0
 10
1484.0391845703125
 20
41.805694580078125
 42
0
  0
VERTEX
  8
0
 10
1484.0391845703125
 20
129
 42
-0
  0
VERTEX
  8
0
 10
1544.669677734375
 20
129
 42
-0
  0
SEQEND
  0
POLYLINE
  8
0
 10
0
 20
0
 39
0
 70
1
 66
1
  0
VERTEX
  8
0
 10
1531.5391845703125
 20
363.7481689453125
 42
0
  0
VERTEX
  8
0
 10
1531.5391845703125
 20
163.8565673828125
 42
-0.19785122573375702
  0
VERTEX
  8
0
 10
1507.169677734375
 20
163.596923828125
 42
-0
  0
VERTEX
  8
0
 10
1507.169677734375
 20
363.7481689453125
 42
-0.19997029006481171
  0
SEQEND
  0
POLYLINE
  8
0
 10
0
 20
0
 39
0
 70
1
 66
1
  0
VERTEX
  8
0
 10
132.25979614257812
 20
677.4893798828125
 42
0
  0
VERTEX
  8
0
 10
132.25981140136719
 20
518.498046875
 42
0
  0
VERTEX
  8
0
 10
167.38970947265625
 20
518.498046875
 42
0
  0
VERTEX
  8
0
 10
167.38970947265625
 20
478.49807739257812
 42
0
  0
VERTEX
  8
0
 10
132.25981140136719
 20
478.49807739257812
 42
0
  0
VERTEX
  8
0
 10
132.25981140136719
 20
236.05815124511719
 42
0
  0
VERTEX
  8
0
 10
167.38970947265625
 20
236.05815124511719
 42
0
  0
VERTEX
  8
0
 10
167.38970947265625
 20
196.05812072753906
 42
0
  0
VERTEX
  8
0
 10
132.25981140136719
 20
196.05812072753906
 42
0
  0
VERTEX
  8
0
 10
132.25981140136719
 20
36.906383514404297
 42
0.47935917973518372
  0
VERTEX
  8
0
 10
244.51960754394531
 20
36.906383514404297
 42
-0
  0
VERTEX
  8
0
 10
244.51960754394531
 20
196.05812072753906
 42
-0
  0
VERTEX
  8
0
 10
209.38970947265625
 20
196.05812072753906
 42
-0
  0
VERTEX
  8
0
 10
209.38970947265625
 20
236.05815124511719
 42
-0
  0
VERTEX
  8
0
 10
244.51960754394531
 20
236.05815124511719
 42
-0
  0
VERTEX
  8
0
 10
244.51960754394531
 20
478.49807739257812
 42
-0
  0
VERTEX
  8
0
 10
209.38970947265625
 20
478.49807739257812
 42
-0
  0
VERTEX
  8
0
 10
209.38970947265625
 20
518.498046875
 42
-0
  0
VERTEX
  8
0
 10
244.51960754394531
 20
518.498046875
 42
-0
  0
VERTEX
  8
0
 10
244.51960754394531
 20
677.4893798828125
 42
0.47935917973518372
  0
SEQEND
  0
POLYLINE
  8
0
 10
0
 20
0
 39
0
 70
1
 66
1
  0
VERTEX
  8
0
 10
188.38970947265625
 20
393.1480712890625
 42
-1
  0
VERTEX
  8
0
 10
188.38970947265625
 20
329.1480712890625
 42
-1
  0
SEQEND
  0
POLYLINE
  8
0
 10
0
 20
0
 39
0
 70
1
 66
1
  0
VERTEX
  8
0
 10
1110
 20
830
 42
0
  0
VERTEX
  8
0
 10
1510
 20
830
 42
-0
  0
VERTEX
  8
0
 10
1510
 20
890
 42
-0
  0
VERTEX
  8
0
 10
1110
 20
890
 42
-0
  0
SEQEND
  0
POLYLINE
  8
0
 10
0
 20
0
 39
0
 70
1
 66
1
  0
VERTEX
  8
0
 10
1137.6451416015625
 20
860
 42
-1
  0
VERTEX
  8
0
 10
1163.6451416015625
 20
860
 42
-1
  0
SEQEND
  0
POLYLINE
  8
0
 10
0
 20
0
 39
0
 70
1
 66
1
  0
VERTEX
  8
0
 10
1174.9527587890625
 20
860
 42
-1
  0
VERTEX
  8
0
 10
1200.9527587890625
 20
860
 42
-1
  0
SEQEND
  0
POLYLINE
  8
0
 10
0
 20
0
 39
0
 70
1
 66
1
  0
VERTEX
  8
0
 10
1212.808837890625
 20
860
 42
-1
  0
VERTEX
  8
0
 10
1238.808837890625
 20
860
 42
-1
  0
SEQEND
  0
POLYLINE
  8
0
 10
0
 20
0
 39
0
 70
1
 66
1
  0
VERTEX
  8
0
 10
1259.0391845703125
 20
820
 42
0
  0
VERTEX
  8
0
 10
1259.0391845703125
 20
420
 42
-0
  0
VERTEX
  8
0
 10
1319.0391845703125
 20
420
 42
-0
  0
VERTEX
  8
0
 10
1319.0391845703125
 20
820
 42
-0
  0
SEQEND
  0
POLYLINE
  8
0
 10
0
 20
0
 39
0
 70
1
 66
1
  0
VERTEX
  8
0
 10
1289.0391845703125
 20
792.35479736328125
 42
-1
  0
VERTEX
  8
0
 10
1289.0391845703125
 20
766.35479736328125
 42
-1
  0
SEQEND
  0
POLYLINE
  8
0
 10
0
 20
0
 39
0
 70
1
 66
1
  0
VERTEX
  8
0
 10
1289.0391845703125
 20
755.04730224609375
 42
-1
  0
VERTEX
  8
0
 10
1289.0391845703125
 20
729.04730224609375
 42
-1
  0
SEQEND
  0
POLYLINE
  8
0
 10
0
 20
0
 39
0
 70
1
 66
1
  0
VERTEX
  8
0
 10
1289.0391845703125
 20
717.19110107421875
 42
-1
  0
VERTEX
  8
0
 10
1289.0391845703125
 20
691.19110107421875
 42
-1
  0
SEQEND
  0
POLYLINE
  8
0
 10
0
 20
0
 39
0
 70
1
 66
1
  0
VERTEX
  8
0
 10
1119.0391845703125
 20
820
 42
0
  0
VERTEX
  8
0
 10
1119.0391845703125
 20
420
 42
-0
  0
VERTEX
  8
0
 10
1179.0391845703125
 20
420
 42
-0
  0
VERTEX
  8
0
 10
1179.0391845703125
 20
820
 42
-0
  0
SEQEND
  0
POLYLINE
  8
0
 10
0
 20
0
 39
0
 70
1
 66
1
  0
VERTEX
  8
0
 10
1149.0391845703125
 20
792.35479736328125
 42
-1
  0
VERTEX
  8
0
 10
1149.0391845703125
 20
766.35479736328125
 42
-1
  0
SEQEND
  0
POLYLINE
  8
0
 10
0
 20
0
 39
0
 70
1
 66
1
  0
VERTEX
  8
0
 10
1149.0391845703125
 20
755.04730224609375
 42
-1
  0
VERTEX
  8
0
 10
1149.0391845703125
 20
729.04730224609375
 42
-1
  0
SEQEND
  0
POLYLINE
  8
0
 10
0
 20
0
 39
0
 70
1
 66
1
  0
VERTEX
  8
0
 10
1149.0391845703125
 20
717.19110107421875
 42
-1
  0
VERTEX
  8
0
 10
1149.0391845703125
 20
691.19110107421875
 42
-1
  0
SEQEND
  0
POLYLINE
  8
0
 10
0
 20
0
 39
0
 70
1
 66
1
  0
VERTEX
  8
0
 10
1859.0391845703125
 20
310
 42
0
  0
VERTEX
  8
0
 10
1859.0391845703125
 20
10
 42
-0
  0
VERTEX
  8
0
 10
1909.0391845703125
 20
10
 42
-0
  0
VERTEX
  8
0
 10
1909.0391845703125
 20
84.58770751953125
 42
0
  0
VERTEX
  8
0
 10
1900.661376953125
 20
84.58770751953125
 42
-0
  0
VERTEX
  8
0
 10
1900.661376953125
 20
235.41229248046875
 42
-0
  0
VERTEX
  8
0
 10
1909.0391845703125
 20
235.41229248046875
 42
-0
  0
VERTEX
  8
0
 10
1909.0391845703125
 20
310
 42
-0
  0
SEQEND
  0
POLYLINE
  8
0
 10
0
 20
0
 39
0
 70
1
 66
1
  0
VERTEX
  8
0
 10
1884.0391845703125
 20
291.01748657226562
 42
-1
  0
VERTEX
  8
0
 10
1884.0391845703125
 20
263.01748657226562
 42
-1
  0
SEQEND
  0
POLYLINE
  8
0
 10
0
 20
0
 39
0
 70
1
 66
1
  0
VERTEX
  8
0
 10
1884.0391845703125
 20
56.982513427734375
 42
-1
  0
VERTEX
  8
0
 10
1884.0391845703125
 20
28.982513427734375
 42
-1
  0
SEQEND
  0
POLYLINE
  8
0
 10
0
 20
0
 39
0
 70
1
 66
1
  0
VERTEX
  8
0
 10
1399.0391845703125
 20
410
 42
0
  0
VERTEX
  8
0
 10
1399.0391845703125
 20
10
 42
-0
  0
VERTEX
  8
0
 10
1459.0391845703125
 20
10
 42
-0
  0
VERTEX
  8
0
 10
1459.0391845703125
 20
410
 42
-0
  0
SEQEND
  0
POLYLINE
  8
0
 10
0
 20
0
 39
0
 70
1
 66
1
  0
VERTEX
  8
0
 10
1429.0391845703125
 20
382.35479736328125
 42
-1
  0
VERTEX
  8
0
 10
1429.0391845703125
 20
356.35479736328125
 42
-1
  0
SEQEND
  0
POLYLINE
  8
0
 10
0
 20
0
 39
0
 70
1
 66
1
  0
VERTEX
  8
0
 10
1429.0391845703125
 20
345.04730224609375
 42
-1
  0
VERTEX
  8
0
 10
1429.0391845703125
 20
319.04730224609375
 42
-1
  0
SEQEND
  0
POLYLINE
  8
0
 10
0
 20
0
 39
0
 70
1
 66
1
  0
VERTEX
  8
0
 10
1429.0391845703125
 20
307.19113159179687
 42
-1
  0
VERTEX
  8
0
 10
1429.0391845703125
 20
281.19110107421875
 42
-1
  0
SEQEND
  0
POLYLINE
  8
0
 10
0
 20
0
 39
0
 70
1
 66
1
  0
VERTEX
  8
0
 10
1389.0391845703125
 20
820
 42
0
  0
VERTEX
  8
0
 10
1389.0391845703125
 20
420
 42
-0
  0
VERTEX
  8
0
 10
1449.0391845703125
 20
420
 42
-0
  0
VERTEX
  8
0
 10
1449.0391845703125
 20
820
 42
-0
  0
SEQEND
  0
POLYLINE
  8
0
 10
0
 20
0
 39
0
 70
1
 66
1
  0
VERTEX
  8
0
 10
1419.0391845703125
 20
792.35479736328125
 42
-1
  0
VERTEX
  8
0
 10
1419.0391845703125
 20
766.35479736328125
 42
-1
  0
SEQEND
  0
POLYLINE
  8
0
 10
0
 20
0
 39
0
 70
1
 66
1
  0
VERTEX
  8
0
 10
1419.0391845703125
 20
755.04730224609375
 42
-1
  0
VERTEX
  8
0
 10
1419.0391845703125
 20
729.04730224609375
 42
-1
  0
SEQEND
  0
POLYLINE
  8
0
 10
0
 20
0
 39
0
 70
1
 66
1
  0
VERTEX
  8
0
 10
1419.0391845703125
 20
717.19110107421875
 42
-1
  0
VERTEX
  8
0
 10
1419.0391845703125
 20
691.19110107421875
 42
-1
  0
SEQEND
  0
POLYLINE
  8
0
 10
0
 20
0
 39
0
 70
1
 66
1
  0
VERTEX
  8
0
 10
1870
 20
853.81884765625
 42
0
  0
VERTEX
  8
0
 10
1870
 20
653.81884765625
 42
0
  0
VERTEX
  8
0
 10
1890
 20
630
 42
0
  0
VERTEX
  8
0
 10
1910
 20
653.81884765625
 42
-0
  0
VERTEX
  8
0
 10
1910
 20
853.81884765625
 42
-0
  0
VERTEX
  8
0
 10
1890
 20
877.63763427734375
 42
-0
  0
SEQEND
  0
POLYLINE
  8
0
 10
0
 20
0
 39
0
 70
1
 66
1
  0
VERTEX
  8
0
 10
1890
 20
853.81884765625
 42
0
  0
VERTEX
  8
0
 10
1900
 20
843.518798828125
 42
0
  0
VERTEX
  8
0
 10
1900
 20
794.518798828125
 42
0
  0
VERTEX
  8
0
 10
1890
 20
797.40045166015625
 42
0
  0
VERTEX
  8
0
 10
1880
 20
794.518798828125
 42
-0
  0
VERTEX
  8
0
 10
1880
 20
843.518798828125
 42
-0
  0
SEQEND
  0
POLYLINE
  8
0
 10
0
 20
0
 39
0
 70
1
 66
1
  0
VERTEX
  8
0
 10
1890
 20
791.41522216796875
 42
-1
  0
VERTEX
  8
0
 10
1890
 20
771.41522216796875
 42
-1
  0
SEQEND
  0
POLYLINE
  8
0
 10
0
 20
0
 39
0
 70
1
 66
1
  0
VERTEX
  8
0
 10
120
 20
824.395751953125
 42
0
  0
VERTEX
  8
0
 10
520
 20
824.395751953125
 42
-0
  0
VERTEX
  8
0
 10
520
 20
884.395751953125
 42
-0
  0
VERTEX
  8
0
 10
120
 20
884.395751953125
 42
-0
  0
SEQEND
  0
POLYLINE
  8
0
 10
0
 20
0
 39
0
 70
1
 66
1
  0
VERTEX
  8
0
 10
147.64518737792969
 20
854.395751953125
 42
-1
  0
VERTEX
  8
0
 10
173.64518737792969
 20
854.395751953125
 42
-1
  0
SEQEND
  0
POLYLINE
  8
0
 10
0
 20
0
 39
0
 70
1
 66
1
  0
VERTEX
  8
0
 10
184.95271301269531
 20
854.395751953125
 42
-1
  0
VERTEX
  8
0
 10
210.95271301269531
 20
854.395751953125
 42
-1
  0
SEQEND
  0
POLYLINE
  8
0
 10
0
 20
0
 39
0
 70
1
 66
1
  0
VERTEX
  8
0
 10
222.80886840820313
 20
854.395751953125
 42
-1
  0
VERTEX
  8
0
 10
248.80888366699219
 20
854.395751953125
 42
-1
  0
SEQEND
  0
POLYLINE
  8
0
 10
0
 20
0
 39
0
 70
1
 66
1
  0
VERTEX
  8
0
 10
254.51960754394531
 20
677.4893798828125
 42
0
  0
VERTEX
  8
0
 10
254.51960754394531
 20
518.498046875
 42
0
  0
VERTEX
  8
0
 10
289.64950561523437
 20
518.498046875
 42
0
  0
VERTEX
  8
0
 10
289.64950561523437
 20
478.49807739257812
 42
0
  0
VERTEX
  8
0
 10
254.51960754394531
 20
478.49807739257812
 42
0
  0
VERTEX
  8
0
 10
254.51960754394531
 20
236.05815124511719
 42
0
  0
VERTEX
  8
0
 10
289.64950561523437
 20
236.05815124511719
 42
0
  0
VERTEX
  8
0
 10
289.64950561523437
 20
196.05812072753906
 42
0
  0
VERTEX
  8
0
 10
254.51960754394531
 20
196.05812072753906
 42
0
  0
VERTEX
  8
0
 10
254.51960754394531
 20
36.906383514404297
 42
0.47935917973518372
  0
VERTEX
  8
0
 10
366.7794189453125
 20
36.906383514404297
 42
-0
  0
VERTEX
  8
0
 10
366.7794189453125
 20
196.05812072753906
 42
-0
  0
VERTEX
  8
0
 10
331.64950561523438
 20
196.05812072753906
 42
-0
  0
VERTEX
  8
0
 10
331.64950561523438
 20
236.05815124511719
 42
-0
  0
VERTEX
  8
0
 10
366.7794189453125
 20
236.05815124511719
 42
-0
  0
VERTEX
  8
0
 10
366.7794189453125
 20
478.49807739257812
 42
-0
  0
VERTEX
  8
0
 10
331.64950561523438
 20
478.49807739257812
 42
-0
  0
VERTEX
  8
0
 10
331.64950561523438
 20
518.498046875
 42
-0
  0
VERTEX
  8
0
 10
366.7794189453125
 20
518.498046875
 42
-0
  0
VERTEX
  8
0
 10
366.7794189453125
 20
677.4893798828125
 42
0.47935917973518372
  0
SEQEND
  0
POLYLINE
  8
0
 10
0
 20
0
 39
0
 70
1
 66
1
  0
VERTEX
  8
0
 10
310.64950561523437
 20
393.1480712890625
 42
-1
  0
VERTEX
  8
0
 10
310.64950561523437
 20
329.1480712890625
 42
-1
  0
SEQEND
  0
POLYLINE
  8
0
 10
0
 20
0
 39
0
 70
1
 66
1
  0
VERTEX
  8
0
 10
1119.0391845703125
 20
410
 42
0
  0
VERTEX
  8
0
 10
1119.0391845703125
 20
10
 42
-0
  0
VERTEX
  8
0
 10
1179.0391845703125
 20
10
 42
-0
  0
VERTEX
  8
0
 10
1179.0391845703125
 20
410
 42
-0
  0
SEQEND
  0
POLYLINE
  8
0
 10
0
 20
0
 39
0
 70
1
 66
1
  0
VERTEX
  8
0
 10
1149.0391845703125
 20
382.35479736328125
 42
-1
  0
VERTEX
  8
0
 10
1149.0391845703125
 20
356.35479736328125
 42
-1
  0
SEQEND
  0
POLYLINE
  8
0
 10
0
 20
0
 39
0
 70
1
 66
1
  0
VERTEX
  8
0
 10
1149.0391845703125
 20
345.04730224609375
 42
-1
  0
VERTEX
  8
0
 10
1149.0391845703125
 20
319.04730224609375
 42
-1
  0
SEQEND
  0
POLYLINE
  8
0
 10
0
 20
0
 39
0
 70
1
 66
1
  0
VERTEX
  8
0
 10
1149.0391845703125
 20
307.19113159179687
 42
-1
  0
VERTEX
  8
0
 10
1149.0391845703125
 20
281.19110107421875
 42
-1
  0
SEQEND
  0
POLYLINE
  8
0
 10
0
 20
0
 39
0
 70
1
 66
1
  0
VERTEX
  8
0
 10
1259.0391845703125
 20
410
 42
0
  0
VERTEX
  8
0
 10
1259.0391845703125
 20
10
 42
-0
  0
VERTEX
  8
0
 10
1319.0391845703125
 20
10
 42
-0
  0
VERTEX
  8
0
 10
1319.0391845703125
 20
410
 42
-0
  0
SEQEND
  0
POLYLINE
  8
0
 10
0
 20
0
 39
0
 70
1
 66
1
  0
VERTEX
  8
0
 10
1289.0391845703125
 20
382.35479736328125
 42
-1
  0
VERTEX
  8
0
 10
1289.0391845703125
 20
356.35479736328125
 42
-1
  0
SEQEND
  0
POLYLINE
  8
0
 10
0
 20
0
 39
0
 70
1
 66
1
  0
VERTEX
  8
0
 10
1289.0391845703125
 20
345.04730224609375
 42
-1
  0
VERTEX
  8
0
 10
1289.0391845703125
 20
319.04730224609375
 42
-1
  0
SEQEND
  0
POLYLINE
  8
0
 10
0
 20
0
 39
0
 70
1
 66
1
  0
VERTEX
  8
0
 10
1289.0391845703125
 20
307.19113159179687
 42
-1
  0
VERTEX
  8
0
 10
1289.0391845703125
 20
281.19110107421875
 42
-1
  0
SEQEND
  0
POLYLINE
  8
0
 10
0
 20
0
 39
0
 70
1
 66
1
  0
VERTEX
  8
0
 10
1689.0391845703125
 20
550
 42
0
  0
VERTEX
  8
0
 10
1689.0391845703125
 20
10
 42
0
  0
VERTEX
  8
0
 10
1714.0391845703125
 20
10
 42
-0
  0
VERTEX
  8
0
 10
1789.0391845703125
 20
119
 42
-0
  0
VERTEX
  8
0
 10
1789.0391845703125
 20
550
 42
-0
  0
SEQEND
  0
POLYLINE
  8
0
 10
0
 20
0
 39
0
 70
1
 66
1
  0
VERTEX
  8
0
 10
1764.669677734375
 20
119
 42
0
  0
VERTEX
  8
0
 10
1714.0391845703125
 20
41.805694580078125
 42
0
  0
VERTEX
  8
0
 10
1704.0391845703125
 20
41.805694580078125
 42
0
  0
VERTEX
  8
0
 10
1704.0391845703125
 20
129
 42
-0
  0
VERTEX
  8
0
 10
1764.669677734375
 20
129
 42
-0
  0
SEQEND
  0
POLYLINE
  8
0
 10
0
 20
0
 39
0
 70
1
 66
1
  0
VERTEX
  8
0
 10
1751.5391845703125
 20
363.7481689453125
 42
0
  0
VERTEX
  8
0
 10
1751.5391845703125
 20
163.8565673828125
 42
-0.19785122573375702
  0
VERTEX
  8
0
 10
1727.169677734375
 20
163.596923828125
 42
-0
  0
VERTEX
  8
0
 10
1727.169677734375
 20
363.7481689453125
 42
-0.19997029006481171
  0
SEQEND
  0
POLYLINE
  8
0
 10
0
 20
0
 39
0
 70
1
 66
1
  0
VERTEX
  8
0
 10
1329.0391845703125
 20
410
 42
0
  0
VERTEX
  8
0
 10
1329.0391845703125
 20
10
 42
-0
  0
VERTEX
  8
0
 10
1389.0391845703125
 20
10
 42
-0
  0
VERTEX
  8
0
 10
1389.0391845703125
 20
410
 42
-0
  0
SEQEND
  0
POLYLINE
  8
0
 10
0
 20
0
 39
0
 70
1
 66
1
  0
VERTEX
  8
0
 10
1359.0391845703125
 20
382.35479736328125
 42
-1
  0
VERTEX
  8
0
 10
1359.0391845703125
 20
356.35479736328125
 42
-1
  0
SEQEND
  0
POLYLINE
  8
0
 10
0
 20
0
 39
0
 70
1
 66
1
  0
VERTEX
  8
0
 10
1359.0391845703125
 20
345.04730224609375
 42
-1
  0
VERTEX
  8
0
 10
1359.0391845703125
 20
319.04730224609375
 42
-1
  0
SEQEND
  0
POLYLINE
  8
0
 10
0
 20
0
 39
0
 70
1
 66
1
  0
VERTEX
  8
0
 10
1359.0391845703125
 20
307.19113159179687
 42
-1
  0
VERTEX
  8
0
 10
1359.0391845703125
 20
281.19110107421875
 42
-1
  0
SEQEND
  0
POLYLINE
  8
0
 10
0
 20
0
 39
0
 70
1
 66
1
  0
VERTEX
  8
0
 10
1820
 20
853.81884765625
 42
0
  0
VERTEX
  8
0
 10
1820
 20
653.81884765625
 42
0
  0
VERTEX
  8
0
 10
1840
 20
630
 42
0
  0
VERTEX
  8
0
 10
1860
 20
653.81884765625
 42
-0
  0
VERTEX
  8
0
 10
1860
 20
853.81884765625
 42
-0
  0
VERTEX
  8
0
 10
1840
 20
877.63763427734375
 42
-0
  0
SEQEND
  0
POLYLINE
  8
0
 10
0
 20
0
 39
0
 70
1
 66
1
  0
VERTEX
  8
0
 10
1840
 20
853.81884765625
 42
0
  0
VERTEX
  8
0
 10
1850
 20
843.518798828125
 42
0
  0
VERTEX
  8
0
 10
1850
 20
794.518798828125
 42
0
  0
VERTEX
  8
0
 10
1840
 20
797.40045166015625
 42
0
  0
VERTEX
  8
0
 10
1830
 20
794.518798828125
 42
-0
  0
VERTEX
  8
0
 10
1830
 20
843.518798828125
 42
-0
  0
SEQEND
  0
POLYLINE
  8
0
 10
0
 20
0
 39
0
 70
1
 66
1
  0
VERTEX
  8
0
 10
1840
 20
791.41522216796875
 42
-1
  0
VERTEX
  8
0
 10
1840
 20
771.41522216796875
 42
-1
  0
SEQEND
  0
POLYLINE
  8
0
 10
0
 20
0
 39
0
 70
1
 66
1
  0
VERTEX
  8
0
 10
499.03921508789063
 20
550
 42
0
  0
VERTEX
  8
0
 10
499.03921508789063
 20
10
 42
0
  0
VERTEX
  8
0
 10
524.0391845703125
 20
10
 42
-0
  0
VERTEX
  8
0
 10
599.0391845703125
 20
119
 42
-0
  0
VERTEX
  8
0
 10
599.0391845703125
 20
550
 42
-0
  0
SEQEND
  0
POLYLINE
  8
0
 10
0
 20
0
 39
0
 70
1
 66
1
  0
VERTEX
  8
0
 10
574.669677734375
 20
119
 42
0
  0
VERTEX
  8
0
 10
524.0391845703125
 20
41.805694580078125
 42
0
  0
VERTEX
  8
0
 10
514.0391845703125
 20
41.805694580078125
 42
0
  0
VERTEX
  8
0
 10
514.0391845703125
 20
129
 42
-0
  0
VERTEX
  8
0
 10
574.669677734375
 20
129
 42
-0
  0
SEQEND
  0
POLYLINE
  8
0
 10
0
 20
0
 39
0
 70
1
 66
1
  0
VERTEX
  8
0
 10
561.5391845703125
 20
363.7481689453125
 42
0
  0
VERTEX
  8
0
 10
561.5391845703125
 20
163.8565673828125
 42
-0.19785122573375702
  0
VERTEX
  8
0
 10
537.16961669921875
 20
163.596923828125
 42
-0
  0
VERTEX
  8
0
 10
537.16961669921875
 20
363.7481689453125
 42
-0.19997029006481171
  0
SEQEND
  0
POLYLINE
  8
0
 10
0
 20
0
 39
0
 70
1
 66
1
  0
VERTEX
  8
0
 10
1579.0391845703125
 20
550
 42
0
  0
VERTEX
  8
0
 10
1579.0391845703125
 20
10
 42
0
  0
VERTEX
  8
0
 10
1604.0391845703125
 20
10
 42
-0
  0
VERTEX
  8
0
 10
1679.0391845703125
 20
119
 42
-0
  0
VERTEX
  8
0
 10
1679.0391845703125
 20
550
 42
-0
  0
SEQEND
  0
POLYLINE
  8
0
 10
0
 20
0
 39
0
 70
1
 66
1
  0
VERTEX
  8
0
 10
1654.669677734375
 20
119
 42
0
  0
VERTEX
  8
0
 10
1604.0391845703125
 20
41.805694580078125
 42
0
  0
VERTEX
  8
0
 10
1594.0391845703125
 20
41.805694580078125
 42
0
  0
VERTEX
  8
0
 10
1594.0391845703125
 20
129
 42
-0
  0
VERTEX
  8
0
 10
1654.669677734375
 20
129
 42
-0
  0
SEQEND
  0
POLYLINE
  8
0
 10
0
 20
0
 39
0
 70
1
 66
1
  0
VERTEX
  8
0
 10
1641.5391845703125
 20
363.7481689453125
 42
0
  0
VERTEX
  8
0
 10
1641.5391845703125
 20
163.8565673828125
 42
-0.19785122573375702
  0
VERTEX
  8
0
 10
1617.169677734375
 20
163.596923828125
 42
-0
  0
VERTEX
  8
0
 10
1617.169677734375
 20
363.7481689453125
 42
-0.19997029006481171
  0
SEQEND
  0
POLYLINE
  8
0
 10
0
 20
0
 39
0
 70
1
 66
1
  0
VERTEX
  8
0
 10
609.0391845703125
 20
550
 42
0
  0
VERTEX
  8
0
 10
609.0391845703125
 20
10
 42
0
  0
VERTEX
  8
0
 10
634.0391845703125
 20
10
 42
-0
  0
VERTEX
  8
0
 10
709.0391845703125
 20
119
 42
-0
  0
VERTEX
  8
0
 10
709.0391845703125
 20
550
 42
-0
  0
SEQEND
  0
POLYLINE
  8
0
 10
0
 20
0
 39
0
 70
1
 66
1
  0
VERTEX
  8
0
 10
684.669677734375
 20
119
 42
0
  0
VERTEX
  8
0
 10
634.0391845703125
 20
41.805694580078125
 42
0
  0
VERTEX
  8
0
 10
624.0391845703125
 20
41.805694580078125
 42
0
  0
VERTEX
  8
0
 10
624.0391845703125
 20
129
 42
-0
  0
VERTEX
  8
0
 10
684.669677734375
 20
129
 42
-0
  0
SEQEND
  0
POLYLINE
  8
0
 10
0
 20
0
 39
0
 70
1
 66
1
  0
VERTEX
  8
0
 10
671.5391845703125
 20
363.7481689453125
 42
0
  0
VERTEX
  8
0
 10
671.5391845703125
 20
163.8565673828125
 42
-0.19785122573375702
  0
VERTEX
  8
0
 10
647.16961669921875
 20
163.596923828125
 42
-0
  0
VERTEX
  8
0
 10
647.16961669921875
 20
363.7481689453125
 42
-0.19997029006481171
  0
SEQEND
  0
POLYLINE
  8
0
 10
0
 20
0
 39
0
 70
1
 66
1
  0
VERTEX
  8
0
 10
1459.0391845703125
 20
660
 42
0
  0
VERTEX
  8
0
 10
1459.0391845703125
 20
560
 42
-0
  0
VERTEX
  8
0
 10
1509.0391845703125
 20
560
 42
-0
  0
VERTEX
  8
0
 10
1509.0391845703125
 20
660
 42
-0
  0
SEQEND
  0
POLYLINE
  8
0
 10
0
 20
0
 39
0
 70
1
 66
1
  0
VERTEX
  8
0
 10
1484.0391845703125
 20
639.59393310546875
 42
0
  0
VERTEX
  8
0
 10
1497.0391845703125
 20
639.59393310546875
 42
0
  0
VERTEX
  8
0
 10
1497.0391845703125
 20
580.40606689453125
 42
-0
  0
VERTEX
  8
0
 10
1484.0391845703125
 20
580.40606689453125
 42
-0
  0
VERTEX
  8
0
 10
1471.0391845703125
 20
580.40606689453125
 42
-0
  0
VERTEX
  8
0
 10
1471.0391845703125
 20
639.59393310546875
 42
-0
  0
SEQEND
  0
POLYLINE
  8
0
 10
0
 20
0
 39
0
 70
1
 66
1
  0
VERTEX
  8
0
 10
1049.0391845703125
 20
110
 42
0
  0
VERTEX
  8
0
 10
1049.0391845703125
 20
10
 42
-0
  0
VERTEX
  8
0
 10
1099.0391845703125
 20
10
 42
-0
  0
VERTEX
  8
0
 10
1099.0391845703125
 20
110
 42
-0
  0
SEQEND
  0
POLYLINE
  8
0
 10
0
 20
0
 39
0
 70
1
 66
1
  0
VERTEX
  8
0
 10
1074.0391845703125
 20
89.59393310546875
 42
0
  0
VERTEX
  8
0
 10
1087.0391845703125
 20
89.59393310546875
 42
0
  0
VERTEX
  8
0
 10
1087.0391845703125
 20
30.406059265136719
 42
-0
  0
VERTEX
  8
0
 10
1074.0391845703125
 20
30.406059265136719
 42
-0
  0
VERTEX
  8
0
 10
1061.0391845703125
 20
30.406059265136719
 42
-0
  0
VERTEX
  8
0
 10
1061.0391845703125
 20
89.59393310546875
 42
-0
  0
SEQEND
  0
POLYLINE
  8
0
 10
0
 20
0
 39
0
 70
1
 66
1
  0
VERTEX
  8
0
 10
10
 20
824.395751953125
 42
0
  0
VERTEX
  8
0
 10
110
 20
824.395751953125
 42
-0
  0
VERTEX
  8
0
 10
110
 20
874.395751953125
 42
-0
  0
VERTEX
  8
0
 10
10
 20
874.395751953125
 42
-0
  0
SEQEND
  0
POLYLINE
  8
0
 10
0
 20
0
 39
0
 70
1
 66
1
  0
VERTEX
  8
0
 10
30.406063079833984
 20
849.395751953125
 42
0
  0
VERTEX
  8
0
 10
30.406063079833984
 20
862.395751953125
 42
0
  0
VERTEX
  8
0
 10
89.593940734863281
 20
862.395751953125
 42
-0
  0
VERTEX
  8
0
 10
89.593940734863281
 20
849.395751953125
 42
-0
  0
VERTEX
  8
0
 10
89.593940734863281
 20
836.395751953125
 42
-0
  0
VERTEX
  8
0
 10
30.406063079833984
 20
836.395751953125
 42
-0
  0
SEQEND
  0
POLYLINE
  8
0
 10
0
 20
0
 39
0
 70
1
 66
1
  0
VERTEX
  8
0
 10
1049.0391845703125
 20
250
 42
0
  0
VERTEX
  8
0
 10
1049.0391845703125
 20
120
 42
-0
  0
VERTEX
  8
0
 10
1109.0391845703125
 20
120
 42
-0
  0
VERTEX
  8
0
 10
1109.0391845703125
 20
250
 42
-0
  0
SEQEND
  0
POLYLINE
  8
0
 10
0
 20
0
 39
0
 70
1
 66
1
  0
VERTEX
  8
0
 10
1079.0391845703125
 20
240.94801330566406
 42
-1
  0
VERTEX
  8
0
 10
1079.0391845703125
 20
214.94801330566406
 42
-1
  0
SEQEND
  0
POLYLINE
  8
0
 10
0
 20
0
 39
0
 70
1
 66
1
  0
VERTEX
  8
0
 10
939.0391845703125
 20
550
 42
0
  0
VERTEX
  8
0
 10
939.0391845703125
 20
10
 42
0
  0
VERTEX
  8
0
 10
964.0391845703125
 20
10
 42
-0
  0
VERTEX
  8
0
 10
1039.0391845703125
 20
119
 42
-0
  0
VERTEX
  8
0
 10
1039.0391845703125
 20
550
 42
-0
  0
SEQEND
  0
POLYLINE
  8
0
 10
0
 20
0
 39
0
 70
1
 66
1
  0
VERTEX
  8
0
 10
1014.669677734375
 20
119
 42
0
  0
VERTEX
  8
0
 10
964.0391845703125
 20
41.805694580078125
 42
0
  0
VERTEX
  8
0
 10
954.0391845703125
 20
41.805694580078125
 42
0
  0
VERTEX
  8
0
 10
954.0391845703125
 20
129
 42
-0
  0
VERTEX
  8
0
 10
1014.669677734375
 20
129
 42
-0
  0
SEQEND
  0
POLYLINE
  8
0
 10
0
 20
0
 39
0
 70
1
 66
1
  0
VERTEX
  8
0
 10
1001.5391845703125
 20
363.7481689453125
 42
0
  0
VERTEX
  8
0
 10
1001.5391845703125
 20
163.8565673828125
 42
-0.19785122573375702
  0
VERTEX
  8
0
 10
977.16961669921875
 20
163.596923828125
 42
-0
  0
VERTEX
  8
0
 10
977.16961669921875
 20
363.7481689453125
 42
-0.19997029006481171
  0
SEQEND
  0
POLYLINE
  8
0
 10
0
 20
0
 39
0
 70
1
 66
1
  0
VERTEX
  8
0
 10
10
 20
714.395751953125
 42
0
  0
VERTEX
  8
0
 10
550
 20
714.395751953125
 42
0
  0
VERTEX
  8
0
 10
550
 20
739.395751953125
 42
-0
  0
VERTEX
  8
0
 10
441
 20
814.395751953125
 42
-0
  0
VERTEX
  8
0
 10
10
 20
814.395751953125
 42
-0
  0
SEQEND
  0
POLYLINE
  8
0
 10
0
 20
0
 39
0
 70
1
 66
1
  0
VERTEX
  8
0
 10
441
 20
790.02618408203125
 42
0
  0
VERTEX
  8
0
 10
518.1943359375
 20
739.395751953125
 42
0
  0
VERTEX
  8
0
 10
518.1943359375
 20
729.395751953125
 42
0
  0
VERTEX
  8
0
 10
431
 20
729.395751953125
 42
-0
  0
VERTEX
  8
0
 10
431
 20
790.02618408203125
 42
-0
  0
SEQEND
  0
POLYLINE
  8
0
 10
0
 20
0
 39
0
 70
1
 66
1
  0
VERTEX
  8
0
 10
196.25181579589844
 20
776.895751953125
 42
0
  0
VERTEX
  8
0
 10
396.1434326171875
 20
776.895751953125
 42
-0.19785122573375702
  0
VERTEX
  8
0
 10
396.403076171875
 20
752.52618408203125
 42
-0
  0
VERTEX
  8
0
 10
196.25181579589844
 20
752.52618408203125
 42
-0.19997029006481171
  0
SEQEND
  0
POLYLINE
  8
0
 10
0
 20
0
 39
0
 70
1
 66
1
  0
VERTEX
  8
0
 10
1459.0391845703125
 20
770
 42
0
  0
VERTEX
  8
0
 10
1459.0391845703125
 20
670
 42
-0
  0
VERTEX
  8
0
 10
1509.0391845703125
 20
670
 42
-0
  0
VERTEX
  8
0
 10
1509.0391845703125
 20
770
 42
-0
  0
SEQEND
  0
POLYLINE
  8
0
 10
0
 20
0
 39
0
 70
1
 66
1
  0
VERTEX
  8
0
 10
1484.0391845703125
 20
749.59393310546875
 42
0
  0
VERTEX
  8
0
 10
1497.0391845703125
 20
749.59393310546875
 42
0
  0
VERTEX
  8
0
 10
1497.0391845703125
 20
690.40606689453125
 42
-0
  0
VERTEX
  8
0
 10
1484.0391845703125
 20
690.40606689453125
 42
-0
  0
VERTEX
  8
0
 10
1471.0391845703125
 20
690.40606689453125
 42
-0
  0
VERTEX
  8
0
 10
1471.0391845703125
 20
749.59393310546875
 42
-0
  0
SEQEND
  0
ENDSEC
  0
EOF
