  0
SECTION
  2
ENTITIES
  0
POLYLINE
  8
0
 10
0
 20
0
 39
0
 70
1
 66
1
  0
VERTEX
  8
0
 10
0
 20
0
 42
-0
  0
VERTEX
  8
0
 10
1550
 20
0
 42
-0
  0
VERTEX
  8
0
 10
1550
 20
1100
 42
-0
  0
VERTEX
  8
0
 10
0
 20
1100
 42
-0
  0
SEQEND
  0
POLYLINE
  8
0
 10
0
 20
0
 39
0
 70
1
 66
1
  0
VERTEX
  8
0
 10
510.12692260742187
 20
10.126922607421875
 42
-0
  0
VERTEX
  8
0
 10
510.12692260742187
 20
510.12692260742187
 42
-0
  0
VERTEX
  8
0
 10
10.126922607421875
 20
510.12692260742187
 42
-0
  0
VERTEX
  8
0
 10
10.126922607421875
 20
10.126922607421875
 42
-0
  0
SEQEND
  0
POLYLINE
  8
0
 10
0
 20
0
 39
0
 70
1
 66
1
  0
VERTEX
  8
0
 10
480.84176635742187
 20
48.330783843994141
 42
-0
  0
VERTEX
  8
0
 10
39.412078857421875
 20
48.330783843994141
 42
-0
  0
VERTEX
  8
0
 10
39.412078857421875
 20
317.30178833007812
 42
-0.77396315336227417
  0
VERTEX
  8
0
 10
480.84176635742187
 20
317.30178833007812
 42
0
  0
SEQEND
  0
POLYLINE
  8
0
 10
0
 20
0
 39
0
 70
1
 66
1
  0
VERTEX
  8
0
 10
510.12692260742187
 20
520.1961669921875
 42
-0
  0
VERTEX
  8
0
 10
510.12692260742187
 20
1020.1961669921875
 42
-0
  0
VERTEX
  8
0
 10
10.126922607421875
 20
1020.1961669921875
 42
-0
  0
VERTEX
  8
0
 10
10.126922607421875
 20
520.1961669921875
 42
-0
  0
SEQEND
  0
POLYLINE
  8
0
 10
0
 20
0
 39
0
 70
1
 66
1
  0
VERTEX
  8
0
 10
480.84176635742187
 20
558.4000244140625
 42
-0
  0
VERTEX
  8
0
 10
39.412078857421875
 20
558.4000244140625
 42
-0
  0
VERTEX
  8
0
 10
39.412078857421875
 20
827.37103271484375
 42
-0.77396315336227417
  0
VERTEX
  8
0
 10
480.84176635742187
 20
827.37103271484375
 42
0
  0
SEQEND
  0
POLYLINE
  8
0
 10
0
 20
0
 39
0
 70
1
 66
1
  0
VERTEX
  8
0
 10
1020.3153686523437
 20
10.126922607421875
 42
-0
  0
VERTEX
  8
0
 10
1020.3153686523437
 20
510.12692260742187
 42
-0
  0
VERTEX
  8
0
 10
520.31536865234375
 20
510.12692260742187
 42
-0
  0
VERTEX
  8
0
 10
520.31536865234375
 20
10.126922607421875
 42
-0
  0
SEQEND
  0
POLYLINE
  8
0
 10
0
 20
0
 39
0
 70
1
 66
1
  0
VERTEX
  8
0
 10
991.03021240234375
 20
48.330783843994141
 42
-0
  0
VERTEX
  8
0
 10
549.60052490234375
 20
48.330783843994141
 42
-0
  0
VERTEX
  8
0
 10
549.60052490234375
 20
317.30178833007812
 42
-0.77396315336227417
  0
VERTEX
  8
0
 10
991.03021240234375
 20
317.30178833007812
 42
0
  0
SEQEND
  0
POLYLINE
  8
0
 10
0
 20
0
 39
0
 70
1
 66
1
  0
VERTEX
  8
0
 10
1020.3153686523437
 20
520.1961669921875
 42
-0
  0
VERTEX
  8
0
 10
1020.3153686523437
 20
1020.1961669921875
 42
-0
  0
VERTEX
  8
0
 10
520.31536865234375
 20
1020.1961669921875
 42
-0
  0
VERTEX
  8
0
 10
520.31536865234375
 20
520.1961669921875
 42
-0
  0
SEQEND
  0
POLYLINE
  8
0
 10
0
 20
0
 39
0
 70
1
 66
1
  0
VERTEX
  8
0
 10
991.03021240234375
 20
558.4000244140625
 42
-0
  0
VERTEX
  8
0
 10
549.60052490234375
 20
558.4000244140625
 42
-0
  0
VERTEX
  8
0
 10
549.60052490234375
 20
827.37103271484375
 42
-0.77396315336227417
  0
VERTEX
  8
0
 10
991.03021240234375
 20
827.37103271484375
 42
0
  0
SEQEND
  0
POLYLINE
  8
0
 10
0
 20
0
 39
0
 70
1
 66
1
  0
VERTEX
  8
0
 10
1530.50390625
 20
10.126922607421875
 42
-0
  0
VERTEX
  8
0
 10
1530.50390625
 20
510.12692260742187
 42
-0
  0
VERTEX
  8
0
 10
1030.50390625
 20
510.12692260742187
 42
-0
  0
VERTEX
  8
0
 10
1030.50390625
 20
10.126922607421875
 42
-0
  0
SEQEND
  0
POLYLINE
  8
0
 10
0
 20
0
 39
0
 70
1
 66
1
  0
VERTEX
  8
0
 10
1501.2186279296875
 20
48.330783843994141
 42
-0
  0
VERTEX
  8
0
 10
1059.7890625
 20
48.330783843994141
 42
-0
  0
VERTEX
  8
0
 10
1059.7890625
 20
317.30178833007812
 42
-0.77396315336227417
  0
VERTEX
  8
0
 10
1501.2186279296875
 20
317.30178833007812
 42
0
  0
SEQEND
  0
POLYLINE
  8
0
 10
0
 20
0
 39
0
 70
1
 66
1
  0
VERTEX
  8
0
 10
1530.50390625
 20
520.1961669921875
 42
-0
  0
VERTEX
  8
0
 10
1530.50390625
 20
1020.1961669921875
 42
-0
  0
VERTEX
  8
0
 10
1030.50390625
 20
1020.1961669921875
 42
-0
  0
VERTEX
  8
0
 10
1030.50390625
 20
520.1961669921875
 42
-0
  0
SEQEND
  0
POLYLINE
  8
0
 10
0
 20
0
 39
0
 70
1
 66
1
  0
VERTEX
  8
0
 10
1501.2186279296875
 20
558.4000244140625
 42
-0
  0
VERTEX
  8
0
 10
1059.7890625
 20
558.4000244140625
 42
-0
  0
VERTEX
  8
0
 10
1059.7890625
 20
827.37103271484375
 42
-0.77396315336227417
  0
VERTEX
  8
0
 10
1501.2186279296875
 20
827.37103271484375
 42
0
  0
SEQEND
  0
POLYLINE
  8
0
 10
0
 20
0
 39
0
 70
1
 66
1
  0
VERTEX
  8
0
 10
467.59231567382812
 20
58.534614562988281
 42
-0
  0
VERTEX
  8
0
 10
467.59231567382812
 20
306.53460693359375
 42
-0
  0
VERTEX
  8
0
 10
272.02969360351562
 20
476.53460693359375
 42
-0
  0
VERTEX
  8
0
 10
245.15492248535156
 20
476.53460693359375
 42
0
  0
VERTEX
  8
0
 10
49.592308044433594
 20
306.53460693359375
 42
0
  0
VERTEX
  8
0
 10
49.592308044433594
 20
58.534614562988281
 42
0
  0
SEQEND
  0
POLYLINE
  8
0
 10
0
 20
0
 39
0
 70
1
 66
1
  0
VERTEX
  8
0
 10
448.59201049804687
 20
79.407218933105469
 42
-0
  0
VERTEX
  8
0
 10
333.25592041015625
 20
79.407218933105469
 42
-0
  0
VERTEX
  8
0
 10
333.49102783203125
 20
129.41114807128906
 42
-0
  0
VERTEX
  8
0
 10
293.49102783203125
 20
129.41114807128906
 42
-0
  0
VERTEX
  8
0
 10
293.49102783203125
 20
155.41114807128906
 42
-0
  0
VERTEX
  8
0
 10
223.69357299804687
 20
155.41114807128906
 42
0
  0
VERTEX
  8
0
 10
223.69357299804687
 20
129.41114807128906
 42
0
  0
VERTEX
  8
0
 10
183.69358825683594
 20
129.41114807128906
 42
0
  0
VERTEX
  8
0
 10
183.92869567871094
 20
79.407218933105469
 42
-0
  0
VERTEX
  8
0
 10
68.592613220214844
 20
79.407218933105469
 42
-0
  0
VERTEX
  8
0
 10
116.64293670654297
 20
306.53460693359375
 42
-0.79663807153701782
  0
VERTEX
  8
0
 10
400.54165649414062
 20
306.53460693359375
 42
0
  0
SEQEND
  0
POLYLINE
  8
0
 10
0
 20
0
 39
0
 70
1
 66
1
  0
VERTEX
  8
0
 10
467.59231567382812
 20
568.60382080078125
 42
-0
  0
VERTEX
  8
0
 10
467.59231567382812
 20
816.60382080078125
 42
-0
  0
VERTEX
  8
0
 10
272.02969360351562
 20
986.60382080078125
 42
-0
  0
VERTEX
  8
0
 10
245.15492248535156
 20
986.60382080078125
 42
0
  0
VERTEX
  8
0
 10
49.592308044433594
 20
816.60382080078125
 42
0
  0
VERTEX
  8
0
 10
49.592308044433594
 20
568.60382080078125
 42
0
  0
SEQEND
  0
POLYLINE
  8
0
 10
0
 20
0
 39
0
 70
1
 66
1
  0
VERTEX
  8
0
 10
448.59201049804687
 20
589.4764404296875
 42
-0
  0
VERTEX
  8
0
 10
333.25592041015625
 20
589.4764404296875
 42
-0
  0
VERTEX
  8
0
 10
333.49102783203125
 20
639.4803466796875
 42
-0
  0
VERTEX
  8
0
 10
293.49102783203125
 20
639.4803466796875
 42
-0
  0
VERTEX
  8
0
 10
293.49102783203125
 20
665.4803466796875
 42
-0
  0
VERTEX
  8
0
 10
223.69357299804687
 20
665.4803466796875
 42
0
  0
VERTEX
  8
0
 10
223.69357299804687
 20
639.4803466796875
 42
0
  0
VERTEX
  8
0
 10
183.69358825683594
 20
639.4803466796875
 42
0
  0
VERTEX
  8
0
 10
183.92869567871094
 20
589.4764404296875
 42
-0
  0
VERTEX
  8
0
 10
68.592613220214844
 20
589.4764404296875
 42
-0
  0
VERTEX
  8
0
 10
116.64293670654297
 20
816.60382080078125
 42
-0.79663807153701782
  0
VERTEX
  8
0
 10
400.54165649414062
 20
816.60382080078125
 42
0
  0
SEQEND
  0
POLYLINE
  8
0
 10
0
 20
0
 39
0
 70
1
 66
1
  0
VERTEX
  8
0
 10
977.78076171875
 20
58.534614562988281
 42
-0
  0
VERTEX
  8
0
 10
977.78076171875
 20
306.53460693359375
 42
-0
  0
VERTEX
  8
0
 10
782.2181396484375
 20
476.53460693359375
 42
-0
  0
VERTEX
  8
0
 10
755.3433837890625
 20
476.53460693359375
 42
0
  0
VERTEX
  8
0
 10
559.78076171875
 20
306.53460693359375
 42
0
  0
VERTEX
  8
0
 10
559.78076171875
 20
58.534614562988281
 42
0
  0
SEQEND
  0
POLYLINE
  8
0
 10
0
 20
0
 39
0
 70
1
 66
1
  0
VERTEX
  8
0
 10
958.78045654296875
 20
79.407218933105469
 42
-0
  0
VERTEX
  8
0
 10
843.44439697265625
 20
79.407218933105469
 42
-0
  0
VERTEX
  8
0
 10
843.67950439453125
 20
129.41114807128906
 42
-0
  0
VERTEX
  8
0
 10
803.67950439453125
 20
129.41114807128906
 42
-0
  0
VERTEX
  8
0
 10
803.67950439453125
 20
155.41114807128906
 42
-0
  0
VERTEX
  8
0
 10
733.88201904296875
 20
155.41114807128906
 42
0
  0
VERTEX
  8
0
 10
733.88201904296875
 20
129.41114807128906
 42
0
  0
VERTEX
  8
0
 10
693.882080078125
 20
129.41114807128906
 42
0
  0
VERTEX
  8
0
 10
694.1171875
 20
79.407218933105469
 42
-0
  0
VERTEX
  8
0
 10
578.78106689453125
 20
79.407218933105469
 42
-0
  0
VERTEX
  8
0
 10
626.8314208984375
 20
306.53460693359375
 42
-0.79663807153701782
  0
VERTEX
  8
0
 10
910.7301025390625
 20
306.53460693359375
 42
0
  0
SEQEND
  0
POLYLINE
  8
0
 10
0
 20
0
 39
0
 70
1
 66
1
  0
VERTEX
  8
0
 10
977.78076171875
 20
568.60382080078125
 42
-0
  0
VERTEX
  8
0
 10
977.78076171875
 20
816.60382080078125
 42
-0
  0
VERTEX
  8
0
 10
782.2181396484375
 20
986.60382080078125
 42
-0
  0
VERTEX
  8
0
 10
755.3433837890625
 20
986.60382080078125
 42
0
  0
VERTEX
  8
0
 10
559.78076171875
 20
816.60382080078125
 42
0
  0
VERTEX
  8
0
 10
559.78076171875
 20
568.60382080078125
 42
0
  0
SEQEND
  0
POLYLINE
  8
0
 10
0
 20
0
 39
0
 70
1
 66
1
  0
VERTEX
  8
0
 10
958.78045654296875
 20
589.4764404296875
 42
-0
  0
VERTEX
  8
0
 10
843.44439697265625
 20
589.4764404296875
 42
-0
  0
VERTEX
  8
0
 10
843.67950439453125
 20
639.4803466796875
 42
-0
  0
VERTEX
  8
0
 10
803.67950439453125
 20
639.4803466796875
 42
-0
  0
VERTEX
  8
0
 10
803.67950439453125
 20
665.4803466796875
 42
-0
  0
VERTEX
  8
0
 10
733.88201904296875
 20
665.4803466796875
 42
0
  0
VERTEX
  8
0
 10
733.88201904296875
 20
639.4803466796875
 42
0
  0
VERTEX
  8
0
 10
693.882080078125
 20
639.4803466796875
 42
0
  0
VERTEX
  8
0
 10
694.1171875
 20
589.4764404296875
 42
-0
  0
VERTEX
  8
0
 10
578.78106689453125
 20
589.4764404296875
 42
-0
  0
VERTEX
  8
0
 10
626.8314208984375
 20
816.60382080078125
 42
-0.79663807153701782
  0
VERTEX
  8
0
 10
910.7301025390625
 20
816.60382080078125
 42
0
  0
SEQEND
  0
POLYLINE
  8
0
 10
0
 20
0
 39
0
 70
1
 66
1
  0
VERTEX
  8
0
 10
1487.96923828125
 20
58.534614562988281
 42
-0
  0
VERTEX
  8
0
 10
1487.96923828125
 20
306.53460693359375
 42
-0
  0
VERTEX
  8
0
 10
1292.4066162109375
 20
476.53460693359375
 42
-0
  0
VERTEX
  8
0
 10
1265.5318603515625
 20
476.53460693359375
 42
0
  0
VERTEX
  8
0
 10
1069.96923828125
 20
306.53460693359375
 42
0
  0
VERTEX
  8
0
 10
1069.96923828125
 20
58.534614562988281
 42
0
  0
SEQEND
  0
POLYLINE
  8
0
 10
0
 20
0
 39
0
 70
1
 66
1
  0
VERTEX
  8
0
 10
1468.9688720703125
 20
79.407218933105469
 42
-0
  0
VERTEX
  8
0
 10
1353.6328125
 20
79.407218933105469
 42
-0
  0
VERTEX
  8
0
 10
1353.867919921875
 20
129.41114807128906
 42
-0
  0
VERTEX
  8
0
 10
1313.867919921875
 20
129.41114807128906
 42
-0
  0
VERTEX
  8
0
 10
1313.867919921875
 20
155.41114807128906
 42
-0
  0
VERTEX
  8
0
 10
1244.070556640625
 20
155.41114807128906
 42
0
  0
VERTEX
  8
0
 10
1244.070556640625
 20
129.41114807128906
 42
0
  0
VERTEX
  8
0
 10
1204.070556640625
 20
129.41114807128906
 42
0
  0
VERTEX
  8
0
 10
1204.3056640625
 20
79.407218933105469
 42
-0
  0
VERTEX
  8
0
 10
1088.969482421875
 20
79.407218933105469
 42
-0
  0
VERTEX
  8
0
 10
1137.0198974609375
 20
306.53460693359375
 42
-0.79663807153701782
  0
VERTEX
  8
0
 10
1420.9185791015625
 20
306.53460693359375
 42
0
  0
SEQEND
  0
POLYLINE
  8
0
 10
0
 20
0
 39
0
 70
1
 66
1
  0
VERTEX
  8
0
 10
1487.96923828125
 20
568.60382080078125
 42
-0
  0
VERTEX
  8
0
 10
1487.96923828125
 20
816.60382080078125
 42
-0
  0
VERTEX
  8
0
 10
1292.4066162109375
 20
986.60382080078125
 42
-0
  0
VERTEX
  8
0
 10
1265.5318603515625
 20
986.60382080078125
 42
0
  0
VERTEX
  8
0
 10
1069.96923828125
 20
816.60382080078125
 42
0
  0
VERTEX
  8
0
 10
1069.96923828125
 20
568.60382080078125
 42
0
  0
SEQEND
  0
POLYLINE
  8
0
 10
0
 20
0
 39
0
 70
1
 66
1
  0
VERTEX
  8
0
 10
1468.9688720703125
 20
589.4764404296875
 42
-0
  0
VERTEX
  8
0
 10
1353.6328125
 20
589.4764404296875
 42
-0
  0
VERTEX
  8
0
 10
1353.867919921875
 20
639.4803466796875
 42
-0
  0
VERTEX
  8
0
 10
1313.867919921875
 20
639.4803466796875
 42
-0
  0
VERTEX
  8
0
 10
1313.867919921875
 20
665.4803466796875
 42
-0
  0
VERTEX
  8
0
 10
1244.070556640625
 20
665.4803466796875
 42
0
  0
VERTEX
  8
0
 10
1244.070556640625
 20
639.4803466796875
 42
0
  0
VERTEX
  8
0
 10
1204.070556640625
 20
639.4803466796875
 42
0
  0
VERTEX
  8
0
 10
1204.3056640625
 20
589.4764404296875
 42
-0
  0
VERTEX
  8
0
 10
1088.969482421875
 20
589.4764404296875
 42
-0
  0
VERTEX
  8
0
 10
1137.0198974609375
 20
816.60382080078125
 42
-0.79663807153701782
  0
VERTEX
  8
0
 10
1420.9185791015625
 20
816.60382080078125
 42
0
  0
SEQEND
  0
POLYLINE
  8
0
 10
0
 20
0
 39
0
 70
1
 66
1
  0
VERTEX
  8
0
 10
249.16590881347656
 20
405.60269165039062
 42
1
  0
VERTEX
  8
0
 10
248.11871337890625
 20
165.60499572753906
 42
1
  0
SEQEND
  0
POLYLINE
  8
0
 10
0
 20
0
 39
0
 70
1
 66
1
  0
VERTEX
  8
0
 10
249.10044860839844
 20
390.60284423828125
 42
-1
  0
VERTEX
  8
0
 10
248.18415832519531
 20
180.60484313964844
 42
-1
  0
SEQEND
  0
POLYLINE
  8
0
 10
0
 20
0
 39
0
 70
1
 66
1
  0
VERTEX
  8
0
 10
249.16590881347656
 20
915.67193603515625
 42
1
  0
VERTEX
  8
0
 10
248.11871337890625
 20
675.6741943359375
 42
1
  0
SEQEND
  0
POLYLINE
  8
0
 10
0
 20
0
 39
0
 70
1
 66
1
  0
VERTEX
  8
0
 10
249.10044860839844
 20
900.67205810546875
 42
-1
  0
VERTEX
  8
0
 10
248.18415832519531
 20
690.674072265625
 42
-1
  0
SEQEND
  0
POLYLINE
  8
0
 10
0
 20
0
 39
0
 70
1
 66
1
  0
VERTEX
  8
0
 10
759.3543701171875
 20
405.60269165039062
 42
1
  0
VERTEX
  8
0
 10
758.30718994140625
 20
165.60499572753906
 42
1
  0
SEQEND
  0
POLYLINE
  8
0
 10
0
 20
0
 39
0
 70
1
 66
1
  0
VERTEX
  8
0
 10
759.2889404296875
 20
390.60284423828125
 42
-1
  0
VERTEX
  8
0
 10
758.37261962890625
 20
180.60484313964844
 42
-1
  0
SEQEND
  0
POLYLINE
  8
0
 10
0
 20
0
 39
0
 70
1
 66
1
  0
VERTEX
  8
0
 10
759.3543701171875
 20
915.67193603515625
 42
1
  0
VERTEX
  8
0
 10
758.30718994140625
 20
675.6741943359375
 42
1
  0
SEQEND
  0
POLYLINE
  8
0
 10
0
 20
0
 39
0
 70
1
 66
1
  0
VERTEX
  8
0
 10
759.2889404296875
 20
900.67205810546875
 42
-1
  0
VERTEX
  8
0
 10
758.37261962890625
 20
690.674072265625
 42
-1
  0
SEQEND
  0
POLYLINE
  8
0
 10
0
 20
0
 39
0
 70
1
 66
1
  0
VERTEX
  8
0
 10
1269.5428466796875
 20
405.60269165039062
 42
1
  0
VERTEX
  8
0
 10
1268.49560546875
 20
165.60499572753906
 42
1
  0
SEQEND
  0
POLYLINE
  8
0
 10
0
 20
0
 39
0
 70
1
 66
1
  0
VERTEX
  8
0
 10
1269.4774169921875
 20
390.60284423828125
 42
-1
  0
VERTEX
  8
0
 10
1268.56103515625
 20
180.60484313964844
 42
-1
  0
SEQEND
  0
POLYLINE
  8
0
 10
0
 20
0
 39
0
 70
1
 66
1
  0
VERTEX
  8
0
 10
1269.5428466796875
 20
915.67193603515625
 42
1
  0
VERTEX
  8
0
 10
1268.49560546875
 20
675.6741943359375
 42
1
  0
SEQEND
  0
POLYLINE
  8
0
 10
0
 20
0
 39
0
 70
1
 66
1
  0
VERTEX
  8
0
 10
1269.4774169921875
 20
900.67205810546875
 42
-1
  0
VERTEX
  8
0
 10
1268.56103515625
 20
690.674072265625
 42
-1
  0
SEQEND
  0
POLYLINE
  8
0
 10
0
 20
0
 39
0
 70
1
 66
1
  0
VERTEX
  8
0
 10
180.3258056640625
 20
342.7174072265625
 42
-0
  0
VERTEX
  8
0
 10
177.60536193847656
 20
318.56369018554687
 42
-0.0060555697418749332
  0
VERTEX
  8
0
 10
177.60237121582031
 20
318.5396728515625
 42
-0.5353238582611084
  0
VERTEX
  8
0
 10
176.07659912109375
 20
319.20452880859375
 42
0
  0
VERTEX
  8
0
 10
173.322998046875
 20
334.61309814453125
 42
0.63118267059326172
  0
VERTEX
  8
0
 10
172.45248413085937
 20
334.85205078125
 42
0.061611451208591461
  0
VERTEX
  8
0
 10
162.07820129394531
 20
319.3428955078125
 42
-0
  0
VERTEX
  8
0
 10
168.80805969238281
 20
295.9866943359375
 42
-0.0060556363314390182
  0
VERTEX
  8
0
 10
168.81448364257812
 20
295.96334838867188
 42
-0.5353238582611084
  0
VERTEX
  8
0
 10
167.15042114257812
 20
295.99371337890625
 42
0
  0
VERTEX
  8
0
 10
158.7098388671875
 20
309.17562866210937
 42
0.63118267059326172
  0
VERTEX
  8
0
 10
157.81413269042969
 20
309.06326293945312
 42
0.061611451208591461
  0
VERTEX
  8
0
 10
154.16465759277344
 20
290.76458740234375
 42
-0
  0
VERTEX
  8
0
 10
169.32026672363281
 20
271.76168823242187
 42
-0.0060556363314390182
  0
VERTEX
  8
0
 10
169.33514404296875
 20
271.7425537109375
 42
-0.5353238582611084
  0
VERTEX
  8
0
 10
167.78611755371094
 20
271.13381958007812
 42
0
  0
VERTEX
  8
0
 10
154.94352722167969
 20
280.08224487304687
 42
0.63118267059326172
  0
VERTEX
  8
0
 10
154.15901184082031
 20
279.63565063476562
 42
0.061611432582139969
  0
VERTEX
  8
0
 10
157.78993225097656
 20
261.33331298828125
 42
-0
  0
VERTEX
  8
0
 10
179.06398010253906
 20
249.57670593261719
 42
-0.0060556363314390182
  0
VERTEX
  8
0
 10
179.08503723144531
 20
249.56472778320312
 42
-0.53532379865646362
  0
VERTEX
  8
0
 10
177.88690185546875
 20
248.40953063964844
 42
0
  0
VERTEX
  8
0
 10
162.59747314453125
 20
251.76216125488281
 42
0.63118267059326172
  0
VERTEX
  8
0
 10
162.0435791015625
 20
251.04934692382812
 42
0.061611417680978775
  0
VERTEX
  8
0
 10
172.40211486816406
 20
235.5296630859375
 42
-0
  0
VERTEX
  8
0
 10
196.55583190917969
 20
232.8092041015625
 42
-0.0060556363314390182
  0
VERTEX
  8
0
 10
196.57986450195312
 20
232.80621337890625
 42
-0.5353238582611084
  0
VERTEX
  8
0
 10
195.91500854492187
 20
231.28044128417969
 42
0
  0
VERTEX
  8
0
 10
180.50642395019531
 20
228.52685546875
 42
0.63118267059326172
  0
VERTEX
  8
0
 10
180.26747131347656
 20
227.65632629394531
 42
0.061611425131559372
  0
VERTEX
  8
0
 10
195.77664184570312
 20
217.28205871582031
 42
-0
  0
VERTEX
  8
0
 10
219.13284301757813
 20
224.01191711425781
 42
-0.0060556363314390182
  0
VERTEX
  8
0
 10
219.15618896484375
 20
224.01834106445312
 42
-0.5353238582611084
  0
VERTEX
  8
0
 10
219.12582397460937
 20
222.35426330566406
 42
0
  0
VERTEX
  8
0
 10
205.94390869140625
 20
213.91368103027344
 42
0.63118267059326172
  0
VERTEX
  8
0
 10
206.0562744140625
 20
213.01797485351562
 42
0.061611432582139969
  0
VERTEX
  8
0
 10
224.35494995117187
 20
209.36849975585937
 42
-0
  0
VERTEX
  8
0
 10
243.35784912109375
 20
224.52410888671875
 42
-0.0060556363314390182
  0
VERTEX
  8
0
 10
243.37696838378906
 20
224.53898620605469
 42
-0.5353238582611084
  0
VERTEX
  8
0
 10
243.9857177734375
 20
222.98995971679687
 42
0
  0
VERTEX
  8
0
 10
235.03729248046875
 20
210.14738464355469
 42
0.63118267059326172
  0
VERTEX
  8
0
 10
235.48387145996094
 20
209.36286926269531
 42
0.061611451208591461
  0
VERTEX
  8
0
 10
253.78623962402344
 20
212.9937744140625
 42
-0
  0
VERTEX
  8
0
 10
265.5428466796875
 20
234.26783752441406
 42
-0.0060556028038263321
  0
VERTEX
  8
0
 10
265.5548095703125
 20
234.28889465332031
 42
-0.5353238582611084
  0
VERTEX
  8
0
 10
266.70999145507812
 20
233.09074401855469
 42
0
  0
VERTEX
  8
0
 10
263.35736083984375
 20
217.80131530761719
 42
0.63118267059326172
  0
VERTEX
  8
0
 10
264.0701904296875
 20
217.24742126464844
 42
0.061611451208591461
  0
VERTEX
  8
0
 10
279.58987426757812
 20
227.60595703125
 42
-0
  0
VERTEX
  8
0
 10
282.31033325195312
 20
251.75968933105469
 42
-0.0060556028038263321
  0
VERTEX
  8
0
 10
282.31332397460937
 20
251.78372192382812
 42
-0.53532373905181885
  0
VERTEX
  8
0
 10
283.83908081054687
 20
251.11885070800781
 42
0
  0
VERTEX
  8
0
 10
286.59268188476562
 20
235.71026611328125
 42
0.63118267059326172
  0
VERTEX
  8
0
 10
287.46319580078125
 20
235.4713134765625
 42
0.061611451208591461
  0
VERTEX
  8
0
 10
297.83749389648437
 20
250.98048400878906
 42
-0
  0
VERTEX
  8
0
 10
291.10760498046875
 20
274.336669921875
 42
-0.0060556028038263321
  0
VERTEX
  8
0
 10
291.1011962890625
 20
274.36004638671875
 42
-0.53532379865646362
  0
VERTEX
  8
0
 10
292.7652587890625
 20
274.32968139648437
 42
0
  0
VERTEX
  8
0
 10
301.20584106445312
 20
261.14773559570312
 42
0.63118267059326172
  0
VERTEX
  8
0
 10
302.1015625
 20
261.2601318359375
 42
0.061611451208591461
  0
VERTEX
  8
0
 10
305.75103759765625
 20
279.55877685546875
 42
-0
  0
VERTEX
  8
0
 10
290.59542846679687
 20
298.56170654296875
 42
-0.0060556195676326752
  0
VERTEX
  8
0
 10
290.58053588867187
 20
298.580810546875
 42
-0.53532379865646362
  0
VERTEX
  8
0
 10
292.12957763671875
 20
299.1895751953125
 42
0
  0
VERTEX
  8
0
 10
304.97213745117187
 20
290.24111938476562
 42
0.63118267059326172
  0
VERTEX
  8
0
 10
305.75668334960937
 20
290.68771362304687
 42
0.061611451208591461
  0
VERTEX
  8
0
 10
302.12576293945312
 20
308.99008178710937
 42
-0
  0
VERTEX
  8
0
 10
280.8516845703125
 20
320.74667358398437
 42
-0.0060556111857295036
  0
VERTEX
  8
0
 10
280.83065795898437
 20
320.75863647460937
 42
-0.53532379865646362
  0
VERTEX
  8
0
 10
282.02877807617187
 20
321.91384887695312
 42
0
  0
VERTEX
  8
0
 10
297.31820678710937
 20
318.56121826171875
 42
0.63118267059326172
  0
VERTEX
  8
0
 10
297.87210083007812
 20
319.2740478515625
 42
0.061611451208591461
  0
VERTEX
  8
0
 10
287.51358032226562
 20
334.79373168945312
 42
-0
  0
VERTEX
  8
0
 10
263.35986328125
 20
337.51416015625
 42
-0.0060555697418749332
  0
VERTEX
  8
0
 10
263.3358154296875
 20
337.51718139648437
 42
-0.53532379865646362
  0
VERTEX
  8
0
 10
264.00067138671875
 20
339.04293823242187
 42
0
  0
VERTEX
  8
0
 10
279.40927124023437
 20
341.79653930664062
 42
0.63118278980255127
  0
VERTEX
  8
0
 10
279.64822387695312
 20
342.66705322265625
 42
0.061611451208591461
  0
VERTEX
  8
0
 10
264.1390380859375
 20
353.04132080078125
 42
-0
  0
VERTEX
  8
0
 10
240.78285217285156
 20
346.31146240234375
 42
-0.0060555697418749332
  0
VERTEX
  8
0
 10
240.75949096679687
 20
346.3050537109375
 42
-0.53532379865646362
  0
VERTEX
  8
0
 10
240.78985595703125
 20
347.9691162109375
 42
0
  0
VERTEX
  8
0
 10
253.97178649902344
 20
356.40969848632812
 42
0.63118278980255127
  0
VERTEX
  8
0
 10
253.85940551757813
 20
357.30538940429688
 42
0.061611451208591461
  0
VERTEX
  8
0
 10
235.56074523925781
 20
360.95486450195312
 42
-0
  0
VERTEX
  8
0
 10
216.55783081054687
 20
345.79925537109375
 42
-0.0060555697418749332
  0
VERTEX
  8
0
 10
216.53871154785156
 20
345.78439331054687
 42
-0.53532379865646362
  0
VERTEX
  8
0
 10
215.92996215820312
 20
347.33340454101562
 42
0
  0
VERTEX
  8
0
 10
224.87840270996094
 20
360.17599487304687
 42
0.63118278980255127
  0
VERTEX
  8
0
 10
224.43180847167969
 20
360.96051025390625
 42
0.061611451208591461
  0
VERTEX
  8
0
 10
206.12945556640625
 20
357.32958984375
 42
-0
  0
VERTEX
  8
0
 10
194.37284851074219
 20
336.0555419921875
 42
-0.0060555697418749332
  0
VERTEX
  8
0
 10
194.36088562011719
 20
336.03448486328125
 42
-0.5353238582611084
  0
VERTEX
  8
0
 10
193.2056884765625
 20
337.23263549804687
 42
0
  0
VERTEX
  8
0
 10
196.55831909179687
 20
352.52206420898437
 42
0.63118278980255127
  0
VERTEX
  8
0
 10
195.84548950195312
 20
353.07595825195312
 42
0.061611451208591461
  0
SEQEND
  0
POLYLINE
  8
0
 10
0
 20
0
 39
0
 70
1
 66
1
  0
VERTEX
  8
0
 10
230.89726257324219
 20
291.84600830078125
 42
-1
  0
VERTEX
  8
0
 10
229.01841735839844
 20
278.47738647460937
 42
-1
  0
SEQEND
  0
POLYLINE
  8
0
 10
0
 20
0
 39
0
 70
1
 66
1
  0
VERTEX
  8
0
 10
180.3258056640625
 20
852.78662109375
 42
-0
  0
VERTEX
  8
0
 10
177.60536193847656
 20
828.6329345703125
 42
-0.0060555697418749332
  0
VERTEX
  8
0
 10
177.60237121582031
 20
828.60888671875
 42
-0.5353238582611084
  0
VERTEX
  8
0
 10
176.07659912109375
 20
829.27374267578125
 42
0
  0
VERTEX
  8
0
 10
173.322998046875
 20
844.68231201171875
 42
0.63118267059326172
  0
VERTEX
  8
0
 10
172.45248413085937
 20
844.9212646484375
 42
0.061611451208591461
  0
VERTEX
  8
0
 10
162.07820129394531
 20
829.412109375
 42
-0
  0
VERTEX
  8
0
 10
168.80805969238281
 20
806.055908203125
 42
-0.0060556363314390182
  0
VERTEX
  8
0
 10
168.81448364257812
 20
806.0325927734375
 42
-0.5353238582611084
  0
VERTEX
  8
0
 10
167.15042114257812
 20
806.06292724609375
 42
0
  0
VERTEX
  8
0
 10
158.7098388671875
 20
819.244873046875
 42
0.63118267059326172
  0
VERTEX
  8
0
 10
157.81413269042969
 20
819.13250732421875
 42
0.061611451208591461
  0
VERTEX
  8
0
 10
154.16465759277344
 20
800.83380126953125
 42
-0
  0
VERTEX
  8
0
 10
169.32026672363281
 20
781.8309326171875
 42
-0.0060556363314390182
  0
VERTEX
  8
0
 10
169.33514404296875
 20
781.811767578125
 42
-0.5353238582611084
  0
VERTEX
  8
0
 10
167.78611755371094
 20
781.20306396484375
 42
0
  0
VERTEX
  8
0
 10
154.94352722167969
 20
790.1514892578125
 42
0.63118267059326172
  0
VERTEX
  8
0
 10
154.15901184082031
 20
789.70489501953125
 42
0.061611432582139969
  0
VERTEX
  8
0
 10
157.78993225097656
 20
771.40252685546875
 42
-0
  0
VERTEX
  8
0
 10
179.06398010253906
 20
759.64593505859375
 42
-0.0060556363314390182
  0
VERTEX
  8
0
 10
179.08503723144531
 20
759.63397216796875
 42
-0.53532379865646362
  0
VERTEX
  8
0
 10
177.88690185546875
 20
758.478759765625
 42
0
  0
VERTEX
  8
0
 10
162.59747314453125
 20
761.8314208984375
 42
0.63118267059326172
  0
VERTEX
  8
0
 10
162.0435791015625
 20
761.11859130859375
 42
0.061611417680978775
  0
VERTEX
  8
0
 10
172.40211486816406
 20
745.598876953125
 42
-0
  0
VERTEX
  8
0
 10
196.55583190917969
 20
742.87841796875
 42
-0.0060556363314390182
  0
VERTEX
  8
0
 10
196.57986450195312
 20
742.87542724609375
 42
-0.5353238582611084
  0
VERTEX
  8
0
 10
195.91500854492187
 20
741.34967041015625
 42
0
  0
VERTEX
  8
0
 10
180.50642395019531
 20
738.5960693359375
 42
0.63118267059326172
  0
VERTEX
  8
0
 10
180.26747131347656
 20
737.7255859375
 42
0.061611425131559372
  0
VERTEX
  8
0
 10
195.77664184570312
 20
727.35125732421875
 42
-0
  0
VERTEX
  8
0
 10
219.13284301757813
 20
734.08111572265625
 42
-0.0060556363314390182
  0
VERTEX
  8
0
 10
219.15618896484375
 20
734.08758544921875
 42
-0.5353238582611084
  0
VERTEX
  8
0
 10
219.12582397460937
 20
732.42352294921875
 42
0
  0
VERTEX
  8
0
 10
205.94390869140625
 20
723.98291015625
 42
0.63118267059326172
  0
VERTEX
  8
0
 10
206.0562744140625
 20
723.08721923828125
 42
0.061611432582139969
  0
VERTEX
  8
0
 10
224.35494995117187
 20
719.437744140625
 42
-0
  0
VERTEX
  8
0
 10
243.35784912109375
 20
734.59332275390625
 42
-0.0060556363314390182
  0
VERTEX
  8
0
 10
243.37696838378906
 20
734.60821533203125
 42
-0.5353238582611084
  0
VERTEX
  8
0
 10
243.9857177734375
 20
733.0592041015625
 42
0
  0
VERTEX
  8
0
 10
235.03729248046875
 20
720.21661376953125
 42
0.63118267059326172
  0
VERTEX
  8
0
 10
235.48387145996094
 20
719.43206787109375
 42
0.061611451208591461
  0
VERTEX
  8
0
 10
253.78623962402344
 20
723.06298828125
 42
-0
  0
VERTEX
  8
0
 10
265.5428466796875
 20
744.3370361328125
 42
-0.0060556028038263321
  0
VERTEX
  8
0
 10
265.5548095703125
 20
744.35809326171875
 42
-0.5353238582611084
  0
VERTEX
  8
0
 10
266.70999145507812
 20
743.15997314453125
 42
0
  0
VERTEX
  8
0
 10
263.35736083984375
 20
727.87054443359375
 42
0.63118267059326172
  0
VERTEX
  8
0
 10
264.0701904296875
 20
727.316650390625
 42
0.061611451208591461
  0
VERTEX
  8
0
 10
279.58987426757812
 20
737.6751708984375
 42
-0
  0
VERTEX
  8
0
 10
282.31033325195312
 20
761.82891845703125
 42
-0.0060556028038263321
  0
VERTEX
  8
0
 10
282.31332397460937
 20
761.85296630859375
 42
-0.53532373905181885
  0
VERTEX
  8
0
 10
283.83908081054687
 20
761.1881103515625
 42
0
  0
VERTEX
  8
0
 10
286.59268188476562
 20
745.77947998046875
 42
0.63118267059326172
  0
VERTEX
  8
0
 10
287.46319580078125
 20
745.54052734375
 42
0.061611451208591461
  0
VERTEX
  8
0
 10
297.83749389648437
 20
761.04974365234375
 42
-0
  0
VERTEX
  8
0
 10
291.10760498046875
 20
784.40594482421875
 42
-0.0060556028038263321
  0
VERTEX
  8
0
 10
291.1011962890625
 20
784.42926025390625
 42
-0.53532379865646362
  0
VERTEX
  8
0
 10
292.7652587890625
 20
784.39892578125
 42
0
  0
VERTEX
  8
0
 10
301.20584106445312
 20
771.21697998046875
 42
0.63118267059326172
  0
VERTEX
  8
0
 10
302.1015625
 20
771.329345703125
 42
0.061611451208591461
  0
VERTEX
  8
0
 10
305.75103759765625
 20
789.6280517578125
 42
-0
  0
VERTEX
  8
0
 10
290.59542846679687
 20
808.63092041015625
 42
-0.0060556195676326752
  0
VERTEX
  8
0
 10
290.58053588867187
 20
808.6500244140625
 42
-0.53532379865646362
  0
VERTEX
  8
0
 10
292.12957763671875
 20
809.2587890625
 42
0
  0
VERTEX
  8
0
 10
304.97213745117187
 20
800.31036376953125
 42
0.63118267059326172
  0
VERTEX
  8
0
 10
305.75668334960937
 20
800.7569580078125
 42
0.061611451208591461
  0
VERTEX
  8
0
 10
302.12576293945312
 20
819.059326171875
 42
-0
  0
VERTEX
  8
0
 10
280.8516845703125
 20
830.81591796875
 42
-0.0060556111857295036
  0
VERTEX
  8
0
 10
280.83065795898437
 20
830.827880859375
 42
-0.53532379865646362
  0
VERTEX
  8
0
 10
282.02877807617187
 20
831.98309326171875
 42
0
  0
VERTEX
  8
0
 10
297.31820678710937
 20
828.63043212890625
 42
0.63118267059326172
  0
VERTEX
  8
0
 10
297.87210083007812
 20
829.34326171875
 42
0.061611451208591461
  0
VERTEX
  8
0
 10
287.51358032226562
 20
844.86297607421875
 42
-0
  0
VERTEX
  8
0
 10
263.35986328125
 20
847.5833740234375
 42
-0.0060555697418749332
  0
VERTEX
  8
0
 10
263.3358154296875
 20
847.58642578125
 42
-0.53532379865646362
  0
VERTEX
  8
0
 10
264.00067138671875
 20
849.1121826171875
 42
0
  0
VERTEX
  8
0
 10
279.40927124023437
 20
851.86578369140625
 42
0.63118278980255127
  0
VERTEX
  8
0
 10
279.64822387695312
 20
852.73626708984375
 42
0.061611451208591461
  0
VERTEX
  8
0
 10
264.1390380859375
 20
863.11053466796875
 42
-0
  0
VERTEX
  8
0
 10
240.78285217285156
 20
856.38067626953125
 42
-0.0060555697418749332
  0
VERTEX
  8
0
 10
240.75949096679687
 20
856.374267578125
 42
-0.53532379865646362
  0
VERTEX
  8
0
 10
240.78985595703125
 20
858.038330078125
 42
0
  0
VERTEX
  8
0
 10
253.97178649902344
 20
866.47894287109375
 42
0.63118278980255127
  0
VERTEX
  8
0
 10
253.85940551757813
 20
867.3746337890625
 42
0.061611451208591461
  0
VERTEX
  8
0
 10
235.56074523925781
 20
871.02410888671875
 42
-0
  0
VERTEX
  8
0
 10
216.55783081054687
 20
855.86846923828125
 42
-0.0060555697418749332
  0
VERTEX
  8
0
 10
216.53871154785156
 20
855.8536376953125
 42
-0.53532379865646362
  0
VERTEX
  8
0
 10
215.92996215820312
 20
857.40264892578125
 42
0
  0
VERTEX
  8
0
 10
224.87840270996094
 20
870.2452392578125
 42
0.63118278980255127
  0
VERTEX
  8
0
 10
224.43180847167969
 20
871.02972412109375
 42
0.061611451208591461
  0
VERTEX
  8
0
 10
206.12945556640625
 20
867.3988037109375
 42
-0
  0
VERTEX
  8
0
 10
194.37284851074219
 20
846.124755859375
 42
-0.0060555697418749332
  0
VERTEX
  8
0
 10
194.36088562011719
 20
846.10369873046875
 42
-0.5353238582611084
  0
VERTEX
  8
0
 10
193.2056884765625
 20
847.3018798828125
 42
0
  0
VERTEX
  8
0
 10
196.55831909179687
 20
862.59130859375
 42
0.63118278980255127
  0
VERTEX
  8
0
 10
195.84548950195312
 20
863.14520263671875
 42
0.061611451208591461
  0
SEQEND
  0
POLYLINE
  8
0
 10
0
 20
0
 39
0
 70
1
 66
1
  0
VERTEX
  8
0
 10
230.89726257324219
 20
801.91522216796875
 42
-1
  0
VERTEX
  8
0
 10
229.01841735839844
 20
788.546630859375
 42
-1
  0
SEQEND
  0
POLYLINE
  8
0
 10
0
 20
0
 39
0
 70
1
 66
1
  0
VERTEX
  8
0
 10
801.114013671875
 20
360.5538330078125
 42
-0
  0
VERTEX
  8
0
 10
701.114013671875
 20
360.5538330078125
 42
0
  0
VERTEX
  8
0
 10
666.8499755859375
 20
285.5538330078125
 42
0
  0
VERTEX
  8
0
 10
701.114013671875
 20
210.55384826660156
 42
-0
  0
VERTEX
  8
0
 10
801.114013671875
 20
210.55384826660156
 42
0
  0
SEQEND
  0
POLYLINE
  8
0
 10
0
 20
0
 39
0
 70
1
 66
1
  0
VERTEX
  8
0
 10
701.114013671875
 20
303.5538330078125
 42
-1
  0
VERTEX
  8
0
 10
701.114013671875
 20
267.5538330078125
 42
-1
  0
SEQEND
  0
POLYLINE
  8
0
 10
0
 20
0
 39
0
 70
1
 66
1
  0
VERTEX
  8
0
 10
801.114013671875
 20
870.623046875
 42
-0
  0
VERTEX
  8
0
 10
701.114013671875
 20
870.623046875
 42
0
  0
VERTEX
  8
0
 10
666.8499755859375
 20
795.623046875
 42
0
  0
VERTEX
  8
0
 10
701.114013671875
 20
720.623046875
 42
-0
  0
VERTEX
  8
0
 10
801.114013671875
 20
720.623046875
 42
0
  0
SEQEND
  0
POLYLINE
  8
0
 10
0
 20
0
 39
0
 70
1
 66
1
  0
VERTEX
  8
0
 10
701.114013671875
 20
813.623046875
 42
-1
  0
VERTEX
  8
0
 10
701.114013671875
 20
777.623046875
 42
-1
  0
SEQEND
  0
POLYLINE
  8
0
 10
0
 20
0
 39
0
 70
1
 66
1
  0
VERTEX
  8
0
 10
1311.302490234375
 20
360.5538330078125
 42
-0
  0
VERTEX
  8
0
 10
1211.302490234375
 20
360.5538330078125
 42
0
  0
VERTEX
  8
0
 10
1177.0384521484375
 20
285.5538330078125
 42
0
  0
VERTEX
  8
0
 10
1211.302490234375
 20
210.55384826660156
 42
-0
  0
VERTEX
  8
0
 10
1311.302490234375
 20
210.55384826660156
 42
0
  0
SEQEND
  0
POLYLINE
  8
0
 10
0
 20
0
 39
0
 70
1
 66
1
  0
VERTEX
  8
0
 10
1211.302490234375
 20
303.5538330078125
 42
-1
  0
VERTEX
  8
0
 10
1211.302490234375
 20
267.5538330078125
 42
-1
  0
SEQEND
  0
POLYLINE
  8
0
 10
0
 20
0
 39
0
 70
1
 66
1
  0
VERTEX
  8
0
 10
1311.302490234375
 20
870.623046875
 42
-0
  0
VERTEX
  8
0
 10
1211.302490234375
 20
870.623046875
 42
0
  0
VERTEX
  8
0
 10
1177.0384521484375
 20
795.623046875
 42
0
  0
VERTEX
  8
0
 10
1211.302490234375
 20
720.623046875
 42
-0
  0
VERTEX
  8
0
 10
1311.302490234375
 20
720.623046875
 42
0
  0
SEQEND
  0
POLYLINE
  8
0
 10
0
 20
0
 39
0
 70
1
 66
1
  0
VERTEX
  8
0
 10
1211.302490234375
 20
813.623046875
 42
-1
  0
VERTEX
  8
0
 10
1211.302490234375
 20
777.623046875
 42
-1
  0
SEQEND
  0
POLYLINE
  8
0
 10
0
 20
0
 39
0
 70
1
 66
1
  0
VERTEX
  8
0
 10
110.12692260742187
 20
1030.265380859375
 42
-0
  0
VERTEX
  8
0
 10
110.12692260742187
 20
1080.265380859375
 42
-0
  0
VERTEX
  8
0
 10
10.126922607421875
 20
1080.265380859375
 42
-0
  0
VERTEX
  8
0
 10
10.126922607421875
 20
1030.265380859375
 42
-0
  0
SEQEND
  0
POLYLINE
  8
0
 10
0
 20
0
 39
0
 70
1
 66
1
  0
VERTEX
  8
0
 10
90.376922607421875
 20
1055.265380859375
 42
-1
  0
VERTEX
  8
0
 10
69.876922607421875
 20
1055.265380859375
 42
-1
  0
SEQEND
  0
POLYLINE
  8
0
 10
0
 20
0
 39
0
 70
1
 66
1
  0
VERTEX
  8
0
 10
102.53076934814453
 20
89.534614562988281
 42
-0
  0
VERTEX
  8
0
 10
152.53076171875
 20
89.534614562988281
 42
-0
  0
VERTEX
  8
0
 10
152.53076171875
 20
189.53462219238281
 42
-0
  0
VERTEX
  8
0
 10
102.53076934814453
 20
189.53462219238281
 42
-0
  0
SEQEND
  0
POLYLINE
  8
0
 10
0
 20
0
 39
0
 70
1
 66
1
  0
VERTEX
  8
0
 10
127.53076934814453
 20
109.28461456298828
 42
-1
  0
VERTEX
  8
0
 10
127.53076934814453
 20
129.78462219238281
 42
-1
  0
SEQEND
  0
POLYLINE
  8
0
 10
0
 20
0
 39
0
 70
1
 66
1
  0
VERTEX
  8
0
 10
102.53076934814453
 20
599.60382080078125
 42
-0
  0
VERTEX
  8
0
 10
152.53076171875
 20
599.60382080078125
 42
-0
  0
VERTEX
  8
0
 10
152.53076171875
 20
699.60382080078125
 42
-0
  0
VERTEX
  8
0
 10
102.53076934814453
 20
699.60382080078125
 42
-0
  0
SEQEND
  0
POLYLINE
  8
0
 10
0
 20
0
 39
0
 70
1
 66
1
  0
VERTEX
  8
0
 10
127.53076934814453
 20
619.35382080078125
 42
-1
  0
VERTEX
  8
0
 10
127.53076934814453
 20
639.85382080078125
 42
-1
  0
SEQEND
  0
POLYLINE
  8
0
 10
0
 20
0
 39
0
 70
1
 66
1
  0
VERTEX
  8
0
 10
220.29615783691406
 20
1030.265380859375
 42
-0
  0
VERTEX
  8
0
 10
220.29615783691406
 20
1080.265380859375
 42
-0
  0
VERTEX
  8
0
 10
120.29615020751953
 20
1080.265380859375
 42
-0
  0
VERTEX
  8
0
 10
120.29615020751953
 20
1030.265380859375
 42
-0
  0
SEQEND
  0
POLYLINE
  8
0
 10
0
 20
0
 39
0
 70
1
 66
1
  0
VERTEX
  8
0
 10
200.54615783691406
 20
1055.265380859375
 42
-1
  0
VERTEX
  8
0
 10
180.04615783691406
 20
1055.265380859375
 42
-1
  0
SEQEND
  0
POLYLINE
  8
0
 10
0
 20
0
 39
0
 70
1
 66
1
  0
VERTEX
  8
0
 10
330.46539306640625
 20
1030.265380859375
 42
-0
  0
VERTEX
  8
0
 10
330.46539306640625
 20
1080.265380859375
 42
-0
  0
VERTEX
  8
0
 10
230.46537780761719
 20
1080.265380859375
 42
-0
  0
VERTEX
  8
0
 10
230.46537780761719
 20
1030.265380859375
 42
-0
  0
SEQEND
  0
POLYLINE
  8
0
 10
0
 20
0
 39
0
 70
1
 66
1
  0
VERTEX
  8
0
 10
310.71539306640625
 20
1055.265380859375
 42
-1
  0
VERTEX
  8
0
 10
290.21539306640625
 20
1055.265380859375
 42
-1
  0
SEQEND
  0
POLYLINE
  8
0
 10
0
 20
0
 39
0
 70
1
 66
1
  0
VERTEX
  8
0
 10
343.61538696289062
 20
89.534614562988281
 42
-0
  0
VERTEX
  8
0
 10
393.61538696289062
 20
89.534614562988281
 42
-0
  0
VERTEX
  8
0
 10
393.61538696289062
 20
189.53462219238281
 42
-0
  0
VERTEX
  8
0
 10
343.61538696289062
 20
189.53462219238281
 42
-0
  0
SEQEND
  0
POLYLINE
  8
0
 10
0
 20
0
 39
0
 70
1
 66
1
  0
VERTEX
  8
0
 10
368.61538696289062
 20
109.28461456298828
 42
-1
  0
VERTEX
  8
0
 10
368.61538696289062
 20
129.78462219238281
 42
-1
  0
SEQEND
  0
POLYLINE
  8
0
 10
0
 20
0
 39
0
 70
1
 66
1
  0
VERTEX
  8
0
 10
343.61538696289062
 20
599.60382080078125
 42
-0
  0
VERTEX
  8
0
 10
393.61538696289062
 20
599.60382080078125
 42
-0
  0
VERTEX
  8
0
 10
393.61538696289062
 20
699.60382080078125
 42
-0
  0
VERTEX
  8
0
 10
343.61538696289062
 20
699.60382080078125
 42
-0
  0
SEQEND
  0
POLYLINE
  8
0
 10
0
 20
0
 39
0
 70
1
 66
1
  0
VERTEX
  8
0
 10
368.61538696289062
 20
619.35382080078125
 42
-1
  0
VERTEX
  8
0
 10
368.61538696289062
 20
639.85382080078125
 42
-1
  0
SEQEND
  0
POLYLINE
  8
0
 10
0
 20
0
 39
0
 70
1
 66
1
  0
VERTEX
  8
0
 10
440.63461303710937
 20
1030.265380859375
 42
-0
  0
VERTEX
  8
0
 10
440.63461303710937
 20
1080.265380859375
 42
-0
  0
VERTEX
  8
0
 10
340.63461303710937
 20
1080.265380859375
 42
-0
  0
VERTEX
  8
0
 10
340.63461303710937
 20
1030.265380859375
 42
-0
  0
SEQEND
  0
POLYLINE
  8
0
 10
0
 20
0
 39
0
 70
1
 66
1
  0
VERTEX
  8
0
 10
420.88461303710937
 20
1055.265380859375
 42
-1
  0
VERTEX
  8
0
 10
400.38461303710937
 20
1055.265380859375
 42
-1
  0
SEQEND
  0
POLYLINE
  8
0
 10
0
 20
0
 39
0
 70
1
 66
1
  0
VERTEX
  8
0
 10
550.8038330078125
 20
1030.265380859375
 42
-0
  0
VERTEX
  8
0
 10
550.8038330078125
 20
1080.265380859375
 42
-0
  0
VERTEX
  8
0
 10
450.8038330078125
 20
1080.265380859375
 42
-0
  0
VERTEX
  8
0
 10
450.8038330078125
 20
1030.265380859375
 42
-0
  0
SEQEND
  0
POLYLINE
  8
0
 10
0
 20
0
 39
0
 70
1
 66
1
  0
VERTEX
  8
0
 10
531.0538330078125
 20
1055.265380859375
 42
-1
  0
VERTEX
  8
0
 10
510.5538330078125
 20
1055.265380859375
 42
-1
  0
SEQEND
  0
POLYLINE
  8
0
 10
0
 20
0
 39
0
 70
1
 66
1
  0
VERTEX
  8
0
 10
660.97308349609375
 20
1030.265380859375
 42
-0
  0
VERTEX
  8
0
 10
660.97308349609375
 20
1080.265380859375
 42
-0
  0
VERTEX
  8
0
 10
560.97308349609375
 20
1080.265380859375
 42
-0
  0
VERTEX
  8
0
 10
560.97308349609375
 20
1030.265380859375
 42
-0
  0
SEQEND
  0
POLYLINE
  8
0
 10
0
 20
0
 39
0
 70
1
 66
1
  0
VERTEX
  8
0
 10
641.22308349609375
 20
1055.265380859375
 42
-1
  0
VERTEX
  8
0
 10
620.72308349609375
 20
1055.265380859375
 42
-1
  0
SEQEND
  0
POLYLINE
  8
0
 10
0
 20
0
 39
0
 70
1
 66
1
  0
VERTEX
  8
0
 10
612.71923828125
 20
89.534614562988281
 42
-0
  0
VERTEX
  8
0
 10
662.71923828125
 20
89.534614562988281
 42
-0
  0
VERTEX
  8
0
 10
662.71923828125
 20
189.53462219238281
 42
-0
  0
VERTEX
  8
0
 10
612.71923828125
 20
189.53462219238281
 42
-0
  0
SEQEND
  0
POLYLINE
  8
0
 10
0
 20
0
 39
0
 70
1
 66
1
  0
VERTEX
  8
0
 10
637.71923828125
 20
109.28461456298828
 42
-1
  0
VERTEX
  8
0
 10
637.71923828125
 20
129.78462219238281
 42
-1
  0
SEQEND
  0
POLYLINE
  8
0
 10
0
 20
0
 39
0
 70
1
 66
1
  0
VERTEX
  8
0
 10
612.71923828125
 20
599.60382080078125
 42
-0
  0
VERTEX
  8
0
 10
662.71923828125
 20
599.60382080078125
 42
-0
  0
VERTEX
  8
0
 10
662.71923828125
 20
699.60382080078125
 42
-0
  0
VERTEX
  8
0
 10
612.71923828125
 20
699.60382080078125
 42
-0
  0
SEQEND
  0
POLYLINE
  8
0
 10
0
 20
0
 39
0
 70
1
 66
1
  0
VERTEX
  8
0
 10
637.71923828125
 20
619.35382080078125
 42
-1
  0
VERTEX
  8
0
 10
637.71923828125
 20
639.85382080078125
 42
-1
  0
SEQEND
  0
POLYLINE
  8
0
 10
0
 20
0
 39
0
 70
1
 66
1
  0
VERTEX
  8
0
 10
771.142333984375
 20
1030.265380859375
 42
-0
  0
VERTEX
  8
0
 10
771.142333984375
 20
1080.265380859375
 42
-0
  0
VERTEX
  8
0
 10
671.142333984375
 20
1080.265380859375
 42
-0
  0
VERTEX
  8
0
 10
671.142333984375
 20
1030.265380859375
 42
-0
  0
SEQEND
  0
POLYLINE
  8
0
 10
0
 20
0
 39
0
 70
1
 66
1
  0
VERTEX
  8
0
 10
751.392333984375
 20
1055.265380859375
 42
-1
  0
VERTEX
  8
0
 10
730.892333984375
 20
1055.265380859375
 42
-1
  0
SEQEND
  0
POLYLINE
  8
0
 10
0
 20
0
 39
0
 70
1
 66
1
  0
VERTEX
  8
0
 10
881.3115234375
 20
1030.265380859375
 42
-0
  0
VERTEX
  8
0
 10
881.3115234375
 20
1080.265380859375
 42
-0
  0
VERTEX
  8
0
 10
781.3115234375
 20
1080.265380859375
 42
-0
  0
VERTEX
  8
0
 10
781.3115234375
 20
1030.265380859375
 42
-0
  0
SEQEND
  0
POLYLINE
  8
0
 10
0
 20
0
 39
0
 70
1
 66
1
  0
VERTEX
  8
0
 10
861.5615234375
 20
1055.265380859375
 42
-1
  0
VERTEX
  8
0
 10
841.0615234375
 20
1055.265380859375
 42
-1
  0
SEQEND
  0
POLYLINE
  8
0
 10
0
 20
0
 39
0
 70
1
 66
1
  0
VERTEX
  8
0
 10
853.8038330078125
 20
89.534614562988281
 42
-0
  0
VERTEX
  8
0
 10
903.8038330078125
 20
89.534614562988281
 42
-0
  0
VERTEX
  8
0
 10
903.8038330078125
 20
189.53462219238281
 42
-0
  0
VERTEX
  8
0
 10
853.8038330078125
 20
189.53462219238281
 42
-0
  0
SEQEND
  0
POLYLINE
  8
0
 10
0
 20
0
 39
0
 70
1
 66
1
  0
VERTEX
  8
0
 10
878.8038330078125
 20
109.28461456298828
 42
-1
  0
VERTEX
  8
0
 10
878.8038330078125
 20
129.78462219238281
 42
-1
  0
SEQEND
  0
POLYLINE
  8
0
 10
0
 20
0
 39
0
 70
1
 66
1
  0
VERTEX
  8
0
 10
853.8038330078125
 20
599.60382080078125
 42
-0
  0
VERTEX
  8
0
 10
903.8038330078125
 20
599.60382080078125
 42
-0
  0
VERTEX
  8
0
 10
903.8038330078125
 20
699.60382080078125
 42
-0
  0
VERTEX
  8
0
 10
853.8038330078125
 20
699.60382080078125
 42
-0
  0
SEQEND
  0
POLYLINE
  8
0
 10
0
 20
0
 39
0
 70
1
 66
1
  0
VERTEX
  8
0
 10
878.8038330078125
 20
619.35382080078125
 42
-1
  0
VERTEX
  8
0
 10
878.8038330078125
 20
639.85382080078125
 42
-1
  0
SEQEND
  0
POLYLINE
  8
0
 10
0
 20
0
 39
0
 70
1
 66
1
  0
VERTEX
  8
0
 10
991.48077392578125
 20
1030.265380859375
 42
-0
  0
VERTEX
  8
0
 10
991.48077392578125
 20
1080.265380859375
 42
-0
  0
VERTEX
  8
0
 10
891.48077392578125
 20
1080.265380859375
 42
-0
  0
VERTEX
  8
0
 10
891.48077392578125
 20
1030.265380859375
 42
-0
  0
SEQEND
  0
POLYLINE
  8
0
 10
0
 20
0
 39
0
 70
1
 66
1
  0
VERTEX
  8
0
 10
971.73077392578125
 20
1055.265380859375
 42
-1
  0
VERTEX
  8
0
 10
951.23077392578125
 20
1055.265380859375
 42
-1
  0
SEQEND
  0
POLYLINE
  8
0
 10
0
 20
0
 39
0
 70
1
 66
1
  0
VERTEX
  8
0
 10
1101.6500244140625
 20
1030.265380859375
 42
-0
  0
VERTEX
  8
0
 10
1101.6500244140625
 20
1080.265380859375
 42
-0
  0
VERTEX
  8
0
 10
1001.6500244140625
 20
1080.265380859375
 42
-0
  0
VERTEX
  8
0
 10
1001.6500244140625
 20
1030.265380859375
 42
-0
  0
SEQEND
  0
POLYLINE
  8
0
 10
0
 20
0
 39
0
 70
1
 66
1
  0
VERTEX
  8
0
 10
1081.9000244140625
 20
1055.265380859375
 42
-1
  0
VERTEX
  8
0
 10
1061.4000244140625
 20
1055.265380859375
 42
-1
  0
SEQEND
  0
POLYLINE
  8
0
 10
0
 20
0
 39
0
 70
1
 66
1
  0
VERTEX
  8
0
 10
1122.90771484375
 20
89.534614562988281
 42
-0
  0
VERTEX
  8
0
 10
1172.90771484375
 20
89.534614562988281
 42
-0
  0
VERTEX
  8
0
 10
1172.90771484375
 20
189.53462219238281
 42
-0
  0
VERTEX
  8
0
 10
1122.90771484375
 20
189.53462219238281
 42
-0
  0
SEQEND
  0
POLYLINE
  8
0
 10
0
 20
0
 39
0
 70
1
 66
1
  0
VERTEX
  8
0
 10
1147.90771484375
 20
109.28461456298828
 42
-1
  0
VERTEX
  8
0
 10
1147.90771484375
 20
129.78462219238281
 42
-1
  0
SEQEND
  0
POLYLINE
  8
0
 10
0
 20
0
 39
0
 70
1
 66
1
  0
VERTEX
  8
0
 10
1122.90771484375
 20
599.60382080078125
 42
-0
  0
VERTEX
  8
0
 10
1172.90771484375
 20
599.60382080078125
 42
-0
  0
VERTEX
  8
0
 10
1172.90771484375
 20
699.60382080078125
 42
-0
  0
VERTEX
  8
0
 10
1122.90771484375
 20
699.60382080078125
 42
-0
  0
SEQEND
  0
POLYLINE
  8
0
 10
0
 20
0
 39
0
 70
1
 66
1
  0
VERTEX
  8
0
 10
1147.90771484375
 20
619.35382080078125
 42
-1
  0
VERTEX
  8
0
 10
1147.90771484375
 20
639.85382080078125
 42
-1
  0
SEQEND
  0
POLYLINE
  8
0
 10
0
 20
0
 39
0
 70
1
 66
1
  0
VERTEX
  8
0
 10
1211.8192138671875
 20
1030.265380859375
 42
-0
  0
VERTEX
  8
0
 10
1211.8192138671875
 20
1080.265380859375
 42
-0
  0
VERTEX
  8
0
 10
1111.8192138671875
 20
1080.265380859375
 42
-0
  0
VERTEX
  8
0
 10
1111.8192138671875
 20
1030.265380859375
 42
-0
  0
SEQEND
  0
POLYLINE
  8
0
 10
0
 20
0
 39
0
 70
1
 66
1
  0
VERTEX
  8
0
 10
1192.0692138671875
 20
1055.265380859375
 42
-1
  0
VERTEX
  8
0
 10
1171.5692138671875
 20
1055.265380859375
 42
-1
  0
SEQEND
  0
POLYLINE
  8
0
 10
0
 20
0
 39
0
 70
1
 66
1
  0
VERTEX
  8
0
 10
1321.9884033203125
 20
1030.265380859375
 42
-0
  0
VERTEX
  8
0
 10
1321.9884033203125
 20
1080.265380859375
 42
-0
  0
VERTEX
  8
0
 10
1221.9884033203125
 20
1080.265380859375
 42
-0
  0
VERTEX
  8
0
 10
1221.9884033203125
 20
1030.265380859375
 42
-0
  0
SEQEND
  0
POLYLINE
  8
0
 10
0
 20
0
 39
0
 70
1
 66
1
  0
VERTEX
  8
0
 10
1302.2384033203125
 20
1055.265380859375
 42
-1
  0
VERTEX
  8
0
 10
1281.7384033203125
 20
1055.265380859375
 42
-1
  0
SEQEND
  0
POLYLINE
  8
0
 10
0
 20
0
 39
0
 70
1
 66
1
  0
VERTEX
  8
0
 10
1363.9923095703125
 20
89.534614562988281
 42
-0
  0
VERTEX
  8
0
 10
1413.9923095703125
 20
89.534614562988281
 42
-0
  0
VERTEX
  8
0
 10
1413.9923095703125
 20
189.53462219238281
 42
-0
  0
VERTEX
  8
0
 10
1363.9923095703125
 20
189.53462219238281
 42
-0
  0
SEQEND
  0
POLYLINE
  8
0
 10
0
 20
0
 39
0
 70
1
 66
1
  0
VERTEX
  8
0
 10
1388.9923095703125
 20
109.28461456298828
 42
-1
  0
VERTEX
  8
0
 10
1388.9923095703125
 20
129.78462219238281
 42
-1
  0
SEQEND
  0
POLYLINE
  8
0
 10
0
 20
0
 39
0
 70
1
 66
1
  0
VERTEX
  8
0
 10
1363.9923095703125
 20
599.60382080078125
 42
-0
  0
VERTEX
  8
0
 10
1413.9923095703125
 20
599.60382080078125
 42
-0
  0
VERTEX
  8
0
 10
1413.9923095703125
 20
699.60382080078125
 42
-0
  0
VERTEX
  8
0
 10
1363.9923095703125
 20
699.60382080078125
 42
-0
  0
SEQEND
  0
POLYLINE
  8
0
 10
0
 20
0
 39
0
 70
1
 66
1
  0
VERTEX
  8
0
 10
1388.9923095703125
 20
619.35382080078125
 42
-1
  0
VERTEX
  8
0
 10
1388.9923095703125
 20
639.85382080078125
 42
-1
  0
SEQEND
  0
POLYLINE
  8
0
 10
0
 20
0
 39
0
 70
1
 66
1
  0
VERTEX
  8
0
 10
1432.15771484375
 20
1030.265380859375
 42
-0
  0
VERTEX
  8
0
 10
1432.15771484375
 20
1080.265380859375
 42
-0
  0
VERTEX
  8
0
 10
1332.15771484375
 20
1080.265380859375
 42
-0
  0
VERTEX
  8
0
 10
1332.15771484375
 20
1030.265380859375
 42
-0
  0
SEQEND
  0
POLYLINE
  8
0
 10
0
 20
0
 39
0
 70
1
 66
1
  0
VERTEX
  8
0
 10
1412.40771484375
 20
1055.265380859375
 42
-1
  0
VERTEX
  8
0
 10
1391.90771484375
 20
1055.265380859375
 42
-1
  0
SEQEND
  0
POLYLINE
  8
0
 10
0
 20
0
 39
0
 70
1
 66
1
  0
VERTEX
  8
0
 10
852.23846435546875
 20
297.484619140625
 42
0.23725263774394989
  0
VERTEX
  8
0
 10
846.99169921875
 20
307.91952514648437
 42
0
  0
VERTEX
  8
0
 10
811.23846435546875
 20
334.484619140625
 42
0
  0
VERTEX
  8
0
 10
811.23846435546875
 20
287.484619140625
 42
-0
  0
VERTEX
  8
0
 10
826.23846435546875
 20
287.484619140625
 42
0
  0
VERTEX
  8
0
 10
826.23846435546875
 20
271.484619140625
 42
1
  0
VERTEX
  8
0
 10
852.23846435546875
 20
271.484619140625
 42
0
  0
SEQEND
  0
POLYLINE
  8
0
 10
0
 20
0
 39
0
 70
1
 66
1
  0
VERTEX
  8
0
 10
833.98846435546875
 20
271.484619140625
 42
-1
  0
VERTEX
  8
0
 10
844.48846435546875
 20
271.484619140625
 42
-1
  0
SEQEND
  0
ENDSEC
  0
EOF
