  0
SECTION
  2
ENTITIES
  0
POLYLINE
  8
0
 10
0
 20
0
 39
0
 70
1
 66
1
  0
VERTEX
  8
0
 10
0
 20
0
 42
-0
  0
VERTEX
  8
0
 10
1550
 20
0
 42
-0
  0
VERTEX
  8
0
 10
1550
 20
1100
 42
-0
  0
VERTEX
  8
0
 10
0
 20
1100
 42
-0
  0
SEQEND
  0
POLYLINE
  8
0
 10
0
 20
0
 39
0
 70
1
 66
1
  0
VERTEX
  8
0
 10
510.12692307692305
 20
10.126923076923077
 42
0
  0
VERTEX
  8
0
 10
10.126923076923049
 20
10.126923076923077
 42
0
  0
VERTEX
  8
0
 10
10.126923076923049
 20
510.12692307692305
 42
0
  0
VERTEX
  8
0
 10
510.12692307692299
 20
510.12692307692305
 42
0
  0
SEQEND
  0
POLYLINE
  8
0
 10
0
 20
0
 39
0
 70
1
 66
1
  0
VERTEX
  8
0
 10
480.84175347548262
 20
48.330784313495343
 42
-0
  0
VERTEX
  8
0
 10
480.84175347548262
 20
317.3017887995793
 42
0.77396315336227417
  0
VERTEX
  8
0
 10
39.412079326923049
 20
317.3017887995793
 42
0
  0
VERTEX
  8
0
 10
39.412079326923049
 20
48.330784313495343
 42
0
  0
SEQEND
  0
POLYLINE
  8
0
 10
0
 20
0
 39
0
 70
1
 66
1
  0
VERTEX
  8
0
 10
510.12692307692305
 20
520.19615384615383
 42
0
  0
VERTEX
  8
0
 10
10.126923076923049
 20
520.19615384615383
 42
0
  0
VERTEX
  8
0
 10
10.126923076923049
 20
1020.1961538461538
 42
0
  0
VERTEX
  8
0
 10
510.12692307692299
 20
1020.1961538461538
 42
0
  0
SEQEND
  0
POLYLINE
  8
0
 10
0
 20
0
 39
0
 70
1
 66
1
  0
VERTEX
  8
0
 10
480.84175347548262
 20
558.4000150827261
 42
-0
  0
VERTEX
  8
0
 10
480.84175347548262
 20
827.37101956881008
 42
0.77396315336227417
  0
VERTEX
  8
0
 10
39.412079326923049
 20
827.37101956881008
 42
0
  0
VERTEX
  8
0
 10
39.412079326923049
 20
558.4000150827261
 42
0
  0
SEQEND
  0
POLYLINE
  8
0
 10
0
 20
0
 39
0
 70
1
 66
1
  0
VERTEX
  8
0
 10
1020.3153846153847
 20
10.126923076923077
 42
0
  0
VERTEX
  8
0
 10
520.31538461538469
 20
10.126923076923077
 42
0
  0
VERTEX
  8
0
 10
520.31538461538469
 20
510.12692307692305
 42
0
  0
VERTEX
  8
0
 10
1020.3153846153847
 20
510.12692307692305
 42
0
  0
SEQEND
  0
POLYLINE
  8
0
 10
0
 20
0
 39
0
 70
1
 66
1
  0
VERTEX
  8
0
 10
991.03021501394426
 20
48.330784313495343
 42
-0
  0
VERTEX
  8
0
 10
991.03021501394426
 20
317.3017887995793
 42
0.77396315336227417
  0
VERTEX
  8
0
 10
549.60054086538469
 20
317.3017887995793
 42
0
  0
VERTEX
  8
0
 10
549.60054086538469
 20
48.330784313495343
 42
0
  0
SEQEND
  0
POLYLINE
  8
0
 10
0
 20
0
 39
0
 70
1
 66
1
  0
VERTEX
  8
0
 10
1020.3153846153847
 20
520.19615384615383
 42
0
  0
VERTEX
  8
0
 10
520.31538461538469
 20
520.19615384615383
 42
0
  0
VERTEX
  8
0
 10
520.31538461538469
 20
1020.1961538461538
 42
0
  0
VERTEX
  8
0
 10
1020.3153846153847
 20
1020.1961538461538
 42
0
  0
SEQEND
  0
POLYLINE
  8
0
 10
0
 20
0
 39
0
 70
1
 66
1
  0
VERTEX
  8
0
 10
991.03021501394426
 20
558.4000150827261
 42
-0
  0
VERTEX
  8
0
 10
991.03021501394426
 20
827.37101956881008
 42
0.77396315336227417
  0
VERTEX
  8
0
 10
549.60054086538469
 20
827.37101956881008
 42
0
  0
VERTEX
  8
0
 10
549.60054086538469
 20
558.4000150827261
 42
0
  0
SEQEND
  0
POLYLINE
  8
0
 10
0
 20
0
 39
0
 70
1
 66
1
  0
VERTEX
  8
0
 10
1530.5038461538461
 20
10.126923076923077
 42
0
  0
VERTEX
  8
0
 10
1030.5038461538461
 20
10.126923076923077
 42
0
  0
VERTEX
  8
0
 10
1030.5038461538461
 20
510.12692307692305
 42
0
  0
VERTEX
  8
0
 10
1530.5038461538461
 20
510.12692307692305
 42
0
  0
SEQEND
  0
POLYLINE
  8
0
 10
0
 20
0
 39
0
 70
1
 66
1
  0
VERTEX
  8
0
 10
1501.2186765524057
 20
48.330784313495343
 42
-0
  0
VERTEX
  8
0
 10
1501.2186765524057
 20
317.3017887995793
 42
0.77396315336227417
  0
VERTEX
  8
0
 10
1059.7890024038461
 20
317.3017887995793
 42
0
  0
VERTEX
  8
0
 10
1059.7890024038461
 20
48.330784313495343
 42
0
  0
SEQEND
  0
POLYLINE
  8
0
 10
0
 20
0
 39
0
 70
1
 66
1
  0
VERTEX
  8
0
 10
1530.5038461538461
 20
520.19615384615383
 42
0
  0
VERTEX
  8
0
 10
1030.5038461538461
 20
520.19615384615383
 42
0
  0
VERTEX
  8
0
 10
1030.5038461538461
 20
1020.1961538461538
 42
0
  0
VERTEX
  8
0
 10
1530.5038461538461
 20
1020.1961538461538
 42
0
  0
SEQEND
  0
POLYLINE
  8
0
 10
0
 20
0
 39
0
 70
1
 66
1
  0
VERTEX
  8
0
 10
1501.2186765524057
 20
558.4000150827261
 42
-0
  0
VERTEX
  8
0
 10
1501.2186765524057
 20
827.37101956881008
 42
0.77396315336227417
  0
VERTEX
  8
0
 10
1059.7890024038461
 20
827.37101956881008
 42
0
  0
VERTEX
  8
0
 10
1059.7890024038461
 20
558.4000150827261
 42
0
  0
SEQEND
  0
POLYLINE
  8
0
 10
0
 20
0
 39
0
 70
1
 66
1
  0
VERTEX
  8
0
 10
467.59230769230771
 20
58.534615384615385
 42
-0
  0
VERTEX
  8
0
 10
49.592307692307713
 20
58.534615384615385
 42
-0
  0
VERTEX
  8
0
 10
49.592307692307713
 20
306.53461538461539
 42
-0
  0
VERTEX
  8
0
 10
245.15492976262021
 20
476.53461538461539
 42
0
  0
VERTEX
  8
0
 10
272.02968562199521
 20
476.53461538461539
 42
0
  0
VERTEX
  8
0
 10
467.59230769230771
 20
306.53461538461539
 42
0
  0
SEQEND
  0
POLYLINE
  8
0
 10
0
 20
0
 39
0
 70
1
 66
1
  0
VERTEX
  8
0
 10
448.5920044238751
 20
79.407221662081213
 42
-0
  0
VERTEX
  8
0
 10
400.54167140080381
 20
306.53461538461539
 42
0.79663807153701782
  0
VERTEX
  8
0
 10
116.64293635441709
 20
306.53461538461539
 42
0
  0
VERTEX
  8
0
 10
68.592612868088963
 20
79.407221662081213
 42
0
  0
VERTEX
  8
0
 10
183.92870295597959
 20
79.407221662081213
 42
-0
  0
VERTEX
  8
0
 10
183.69359553410459
 20
129.41114126352164
 42
-0
  0
VERTEX
  8
0
 10
223.69358027531553
 20
129.41114126352164
 42
-0
  0
VERTEX
  8
0
 10
223.69358027531553
 20
155.41114126352164
 42
0
  0
VERTEX
  8
0
 10
293.4910351092999
 20
155.41114126352164
 42
0
  0
VERTEX
  8
0
 10
293.4910351092999
 20
129.41114126352164
 42
0
  0
VERTEX
  8
0
 10
333.4910351092999
 20
129.41114126352164
 42
0
  0
VERTEX
  8
0
 10
333.2559276874249
 20
79.407221662081213
 42
0
  0
SEQEND
  0
POLYLINE
  8
0
 10
0
 20
0
 39
0
 70
1
 66
1
  0
VERTEX
  8
0
 10
467.59230769230771
 20
568.60384615384612
 42
-0
  0
VERTEX
  8
0
 10
49.592307692307713
 20
568.60384615384612
 42
-0
  0
VERTEX
  8
0
 10
49.592307692307713
 20
816.60384615384612
 42
-0
  0
VERTEX
  8
0
 10
245.15492976262021
 20
986.60384615384612
 42
0
  0
VERTEX
  8
0
 10
272.02968562199521
 20
986.60384615384612
 42
0
  0
VERTEX
  8
0
 10
467.59230769230771
 20
816.60384615384612
 42
0
  0
SEQEND
  0
POLYLINE
  8
0
 10
0
 20
0
 39
0
 70
1
 66
1
  0
VERTEX
  8
0
 10
448.5920044238751
 20
589.47645243131194
 42
-0
  0
VERTEX
  8
0
 10
400.54167140080381
 20
816.60384615384612
 42
0.79663807153701782
  0
VERTEX
  8
0
 10
116.64293635441709
 20
816.60384615384612
 42
0
  0
VERTEX
  8
0
 10
68.592612868088963
 20
589.47645243131194
 42
0
  0
VERTEX
  8
0
 10
183.92870295597959
 20
589.47645243131194
 42
-0
  0
VERTEX
  8
0
 10
183.69359553410459
 20
639.48037203275237
 42
-0
  0
VERTEX
  8
0
 10
223.69358027531553
 20
639.48037203275237
 42
-0
  0
VERTEX
  8
0
 10
223.69358027531553
 20
665.48037203275237
 42
0
  0
VERTEX
  8
0
 10
293.4910351092999
 20
665.48037203275237
 42
0
  0
VERTEX
  8
0
 10
293.4910351092999
 20
639.48037203275237
 42
0
  0
VERTEX
  8
0
 10
333.4910351092999
 20
639.48037203275237
 42
0
  0
VERTEX
  8
0
 10
333.2559276874249
 20
589.47645243131194
 42
0
  0
SEQEND
  0
POLYLINE
  8
0
 10
0
 20
0
 39
0
 70
1
 66
1
  0
VERTEX
  8
0
 10
977.78076923076924
 20
58.534615384615385
 42
-0
  0
VERTEX
  8
0
 10
559.78076923076924
 20
58.534615384615385
 42
-0
  0
VERTEX
  8
0
 10
559.78076923076924
 20
306.53461538461539
 42
-0
  0
VERTEX
  8
0
 10
755.34339130108174
 20
476.53461538461539
 42
0
  0
VERTEX
  8
0
 10
782.21814716045674
 20
476.53461538461539
 42
0
  0
VERTEX
  8
0
 10
977.78076923076924
 20
306.53461538461539
 42
0
  0
SEQEND
  0
POLYLINE
  8
0
 10
0
 20
0
 39
0
 70
1
 66
1
  0
VERTEX
  8
0
 10
958.78046596233662
 20
79.407221662081213
 42
-0
  0
VERTEX
  8
0
 10
910.73013293926533
 20
306.53461538461539
 42
0.79663807153701782
  0
VERTEX
  8
0
 10
626.83139789287861
 20
306.53461538461539
 42
0
  0
VERTEX
  8
0
 10
578.78107440655049
 20
79.407221662081213
 42
0
  0
VERTEX
  8
0
 10
694.11716449444111
 20
79.407221662081213
 42
-0
  0
VERTEX
  8
0
 10
693.88205707256611
 20
129.41114126352164
 42
-0
  0
VERTEX
  8
0
 10
733.88204181377705
 20
129.41114126352164
 42
-0
  0
VERTEX
  8
0
 10
733.88204181377705
 20
155.41114126352164
 42
0
  0
VERTEX
  8
0
 10
803.67949664776143
 20
155.41114126352164
 42
0
  0
VERTEX
  8
0
 10
803.67949664776143
 20
129.41114126352164
 42
0
  0
VERTEX
  8
0
 10
843.67949664776143
 20
129.41114126352164
 42
0
  0
VERTEX
  8
0
 10
843.44438922588643
 20
79.407221662081213
 42
0
  0
SEQEND
  0
POLYLINE
  8
0
 10
0
 20
0
 39
0
 70
1
 66
1
  0
VERTEX
  8
0
 10
977.78076923076924
 20
568.60384615384612
 42
-0
  0
VERTEX
  8
0
 10
559.78076923076924
 20
568.60384615384612
 42
-0
  0
VERTEX
  8
0
 10
559.78076923076924
 20
816.60384615384612
 42
-0
  0
VERTEX
  8
0
 10
755.34339130108174
 20
986.60384615384612
 42
0
  0
VERTEX
  8
0
 10
782.21814716045674
 20
986.60384615384612
 42
0
  0
VERTEX
  8
0
 10
977.78076923076924
 20
816.60384615384612
 42
0
  0
SEQEND
  0
POLYLINE
  8
0
 10
0
 20
0
 39
0
 70
1
 66
1
  0
VERTEX
  8
0
 10
958.78046596233662
 20
589.47645243131194
 42
-0
  0
VERTEX
  8
0
 10
910.73013293926533
 20
816.60384615384612
 42
0.79663807153701782
  0
VERTEX
  8
0
 10
626.83139789287861
 20
816.60384615384612
 42
0
  0
VERTEX
  8
0
 10
578.78107440655049
 20
589.47645243131194
 42
0
  0
VERTEX
  8
0
 10
694.11716449444111
 20
589.47645243131194
 42
-0
  0
VERTEX
  8
0
 10
693.88205707256611
 20
639.48037203275237
 42
-0
  0
VERTEX
  8
0
 10
733.88204181377705
 20
639.48037203275237
 42
-0
  0
VERTEX
  8
0
 10
733.88204181377705
 20
665.48037203275237
 42
0
  0
VERTEX
  8
0
 10
803.67949664776143
 20
665.48037203275237
 42
0
  0
VERTEX
  8
0
 10
803.67949664776143
 20
639.48037203275237
 42
0
  0
VERTEX
  8
0
 10
843.67949664776143
 20
639.48037203275237
 42
0
  0
VERTEX
  8
0
 10
843.44438922588643
 20
589.47645243131194
 42
0
  0
SEQEND
  0
POLYLINE
  8
0
 10
0
 20
0
 39
0
 70
1
 66
1
  0
VERTEX
  8
0
 10
1487.9692307692308
 20
58.534615384615385
 42
-0
  0
VERTEX
  8
0
 10
1069.9692307692308
 20
58.534615384615385
 42
-0
  0
VERTEX
  8
0
 10
1069.9692307692308
 20
306.53461538461539
 42
-0
  0
VERTEX
  8
0
 10
1265.5318528395433
 20
476.53461538461539
 42
0
  0
VERTEX
  8
0
 10
1292.4066086989183
 20
476.53461538461539
 42
0
  0
VERTEX
  8
0
 10
1487.9692307692308
 20
306.53461538461539
 42
0
  0
SEQEND
  0
POLYLINE
  8
0
 10
0
 20
0
 39
0
 70
1
 66
1
  0
VERTEX
  8
0
 10
1468.9689275007981
 20
79.407221662081213
 42
-0
  0
VERTEX
  8
0
 10
1420.9185944777269
 20
306.53461538461539
 42
0.79663807153701782
  0
VERTEX
  8
0
 10
1137.0198594313401
 20
306.53461538461539
 42
0
  0
VERTEX
  8
0
 10
1088.969535945012
 20
79.407221662081213
 42
0
  0
VERTEX
  8
0
 10
1204.3056260329026
 20
79.407221662081213
 42
-0
  0
VERTEX
  8
0
 10
1204.0705186110276
 20
129.41114126352164
 42
-0
  0
VERTEX
  8
0
 10
1244.0705033522386
 20
129.41114126352164
 42
-0
  0
VERTEX
  8
0
 10
1244.0705033522386
 20
155.41114126352164
 42
0
  0
VERTEX
  8
0
 10
1313.8679581862229
 20
155.41114126352164
 42
0
  0
VERTEX
  8
0
 10
1313.8679581862229
 20
129.41114126352164
 42
0
  0
VERTEX
  8
0
 10
1353.8679581862229
 20
129.41114126352164
 42
0
  0
VERTEX
  8
0
 10
1353.6328507643479
 20
79.407221662081213
 42
0
  0
SEQEND
  0
POLYLINE
  8
0
 10
0
 20
0
 39
0
 70
1
 66
1
  0
VERTEX
  8
0
 10
1487.9692307692308
 20
568.60384615384612
 42
-0
  0
VERTEX
  8
0
 10
1069.9692307692308
 20
568.60384615384612
 42
-0
  0
VERTEX
  8
0
 10
1069.9692307692308
 20
816.60384615384612
 42
-0
  0
VERTEX
  8
0
 10
1265.5318528395433
 20
986.60384615384612
 42
0
  0
VERTEX
  8
0
 10
1292.4066086989183
 20
986.60384615384612
 42
0
  0
VERTEX
  8
0
 10
1487.9692307692308
 20
816.60384615384612
 42
0
  0
SEQEND
  0
POLYLINE
  8
0
 10
0
 20
0
 39
0
 70
1
 66
1
  0
VERTEX
  8
0
 10
1468.9689275007981
 20
589.47645243131194
 42
-0
  0
VERTEX
  8
0
 10
1420.9185944777269
 20
816.60384615384612
 42
0.79663807153701782
  0
VERTEX
  8
0
 10
1137.0198594313401
 20
816.60384615384612
 42
0
  0
VERTEX
  8
0
 10
1088.969535945012
 20
589.47645243131194
 42
0
  0
VERTEX
  8
0
 10
1204.3056260329026
 20
589.47645243131194
 42
-0
  0
VERTEX
  8
0
 10
1204.0705186110276
 20
639.48037203275237
 42
-0
  0
VERTEX
  8
0
 10
1244.0705033522386
 20
639.48037203275237
 42
-0
  0
VERTEX
  8
0
 10
1244.0705033522386
 20
665.48037203275237
 42
0
  0
VERTEX
  8
0
 10
1313.8679581862229
 20
665.48037203275237
 42
0
  0
VERTEX
  8
0
 10
1313.8679581862229
 20
639.48037203275237
 42
0
  0
VERTEX
  8
0
 10
1353.8679581862229
 20
639.48037203275237
 42
0
  0
VERTEX
  8
0
 10
1353.6328507643479
 20
589.47645243131194
 42
0
  0
SEQEND
  0
POLYLINE
  8
0
 10
0
 20
0
 39
0
 70
1
 66
1
  0
VERTEX
  8
0
 10
249.16590260441643
 20
405.60269956161352
 42
-1
  0
VERTEX
  8
0
 10
248.11870841409308
 20
165.60498837997289
 42
-1
  0
SEQEND
  0
POLYLINE
  8
0
 10
0
 20
0
 39
0
 70
1
 66
1
  0
VERTEX
  8
0
 10
249.10045296752122
 20
390.60284261276098
 42
1
  0
VERTEX
  8
0
 10
248.18415805098829
 20
180.60484532882543
 42
1
  0
SEQEND
  0
POLYLINE
  8
0
 10
0
 20
0
 39
0
 70
1
 66
1
  0
VERTEX
  8
0
 10
249.16590260441643
 20
915.67193033084425
 42
-1
  0
VERTEX
  8
0
 10
248.11870841409308
 20
675.67421914920362
 42
-1
  0
SEQEND
  0
POLYLINE
  8
0
 10
0
 20
0
 39
0
 70
1
 66
1
  0
VERTEX
  8
0
 10
249.10045296752122
 20
900.67207338199171
 42
1
  0
VERTEX
  8
0
 10
248.18415805098829
 20
690.67407609805616
 42
1
  0
SEQEND
  0
POLYLINE
  8
0
 10
0
 20
0
 39
0
 70
1
 66
1
  0
VERTEX
  8
0
 10
759.35436414287801
 20
405.60269956161352
 42
-1
  0
VERTEX
  8
0
 10
758.30716995255466
 20
165.60498837997289
 42
-1
  0
SEQEND
  0
POLYLINE
  8
0
 10
0
 20
0
 39
0
 70
1
 66
1
  0
VERTEX
  8
0
 10
759.2889145059828
 20
390.60284261276098
 42
1
  0
VERTEX
  8
0
 10
758.37261958944987
 20
180.60484532882543
 42
1
  0
SEQEND
  0
POLYLINE
  8
0
 10
0
 20
0
 39
0
 70
1
 66
1
  0
VERTEX
  8
0
 10
759.35436414287801
 20
915.67193033084425
 42
-1
  0
VERTEX
  8
0
 10
758.30716995255466
 20
675.67421914920362
 42
-1
  0
SEQEND
  0
POLYLINE
  8
0
 10
0
 20
0
 39
0
 70
1
 66
1
  0
VERTEX
  8
0
 10
759.2889145059828
 20
900.67207338199171
 42
1
  0
VERTEX
  8
0
 10
758.37261958944987
 20
690.67407609805616
 42
1
  0
SEQEND
  0
POLYLINE
  8
0
 10
0
 20
0
 39
0
 70
1
 66
1
  0
VERTEX
  8
0
 10
1269.5428256813395
 20
405.60269956161352
 42
-1
  0
VERTEX
  8
0
 10
1268.4956314910162
 20
165.60498837997289
 42
-1
  0
SEQEND
  0
POLYLINE
  8
0
 10
0
 20
0
 39
0
 70
1
 66
1
  0
VERTEX
  8
0
 10
1269.4773760444443
 20
390.60284261276098
 42
1
  0
VERTEX
  8
0
 10
1268.5610811279114
 20
180.60484532882543
 42
1
  0
SEQEND
  0
POLYLINE
  8
0
 10
0
 20
0
 39
0
 70
1
 66
1
  0
VERTEX
  8
0
 10
1269.5428256813395
 20
915.67193033084425
 42
-1
  0
VERTEX
  8
0
 10
1268.4956314910162
 20
675.67421914920362
 42
-1
  0
SEQEND
  0
POLYLINE
  8
0
 10
0
 20
0
 39
0
 70
1
 66
1
  0
VERTEX
  8
0
 10
1269.4773760444443
 20
900.67207338199171
 42
1
  0
VERTEX
  8
0
 10
1268.5610811279114
 20
690.67407609805616
 42
1
  0
SEQEND
  0
POLYLINE
  8
0
 10
0
 20
0
 39
0
 70
1
 66
1
  0
VERTEX
  8
0
 10
180.32581193633709
 20
342.71741444924066
 42
-0.061611451208591461
  0
VERTEX
  8
0
 10
195.84549534393582
 20
353.0759523961184
 42
-0.63118278980255127
  0
VERTEX
  8
0
 10
196.5583156272215
 20
352.52205766483934
 42
-0
  0
VERTEX
  8
0
 10
193.20568435805316
 20
337.23263489586543
 42
0.5353238582611084
  0
VERTEX
  8
0
 10
194.36088432321898
 20
336.03449082712575
 42
0.0060555697418749332
  0
VERTEX
  8
0
 10
194.37285345713232
 20
336.05554427922556
 42
0
  0
VERTEX
  8
0
 10
206.12944827442496
 20
357.32960010868879
 42
-0.061611451208591461
  0
VERTEX
  8
0
 10
224.43180862396449
 20
360.96051595757115
 42
-0.63118278980255127
  0
VERTEX
  8
0
 10
224.87839984482477
 20
360.17599829946249
 42
-0
  0
VERTEX
  8
0
 10
215.92996550553138
 20
347.33341075944975
 42
0.53532379865646362
  0
VERTEX
  8
0
 10
216.53871748400579
 20
345.78439521424895
 42
0.0060555697418749332
  0
VERTEX
  8
0
 10
216.55783610177477
 20
345.79926653332188
 42
0
  0
VERTEX
  8
0
 10
235.56074045439397
 20
360.95487934614687
 42
-0.061611451208591461
  0
VERTEX
  8
0
 10
253.85941036265277
 20
357.30540416087103
 42
-0.63118278980255127
  0
VERTEX
  8
0
 10
253.97178431844364
 20
356.40969460841711
 42
-0
  0
VERTEX
  8
0
 10
240.78986206321522
 20
347.96910840965973
 42
0.53532379865646362
  0
VERTEX
  8
0
 10
240.75949266028704
 20
346.30504083868931
 42
0.0060555697418749332
  0
VERTEX
  8
0
 10
240.78284764754932
 20
346.31146601890379
 42
0
  0
VERTEX
  8
0
 10
264.13904295150644
 20
353.04132693094624
 42
-0.061611451208591461
  0
VERTEX
  8
0
 10
279.64821229667575
 20
342.66705313451195
 42
-0.63118278980255127
  0
VERTEX
  8
0
 10
279.40926217097979
 20
341.79652723341559
 42
-0
  0
VERTEX
  8
0
 10
264.00068124720485
 20
339.04293952289686
 42
0.53532379865646362
  0
VERTEX
  8
0
 10
263.33581379055272
 20
337.51716792360617
 42
0.0060555697418749332
  0
VERTEX
  8
0
 10
263.35984962896248
 20
337.51416742091726
 42
0
  0
VERTEX
  8
0
 10
287.5135682767434
 20
334.79371995076514
 42
-0.061611451208591461
  0
VERTEX
  8
0
 10
297.87210622362113
 20
319.2740365431664
 42
-0.63118267059326172
  0
VERTEX
  8
0
 10
297.31821149234213
 20
318.56121625988072
 42
-0
  0
VERTEX
  8
0
 10
282.02878872336817
 20
321.91384752904906
 42
0.53532379865646362
  0
VERTEX
  8
0
 10
280.83064465462849
 20
320.75864756388324
 42
0.0060556111857295036
  0
VERTEX
  8
0
 10
280.85169810672835
 20
320.7466784299699
 42
0
  0
VERTEX
  8
0
 10
302.12575393619159
 20
308.99008361267727
 42
-0.061611451208591461
  0
VERTEX
  8
0
 10
305.75666978507388
 20
290.68772326313774
 42
-0.63118267059326172
  0
VERTEX
  8
0
 10
304.97215212696523
 20
290.24113204227746
 42
-0
  0
VERTEX
  8
0
 10
292.12956458695248
 20
299.18956638157084
 42
0.53532379865646362
  0
VERTEX
  8
0
 10
290.58054904175174
 20
298.58081440309644
 42
0.0060556195676326752
  0
VERTEX
  8
0
 10
290.59542036082468
 20
298.56169578532746
 42
0
  0
VERTEX
  8
0
 10
305.75103317364966
 20
279.55879143270829
 42
-0.061611451208591461
  0
VERTEX
  8
0
 10
302.10155798837377
 20
261.26012152444946
 42
-0.63118267059326172
  0
VERTEX
  8
0
 10
301.20584843591985
 20
261.14774756865859
 42
-0
  0
VERTEX
  8
0
 10
292.76526223716246
 20
274.329669823887
 42
0.53532379865646362
  0
VERTEX
  8
0
 10
291.1011946661921
 20
274.36003922681522
 42
0.0060556028038263321
  0
VERTEX
  8
0
 10
291.10761984640658
 20
274.33668423955288
 42
0
  0
VERTEX
  8
0
 10
297.83748075844903
 20
250.98048893559576
 42
-0.061611451208591461
  0
VERTEX
  8
0
 10
287.46320696201474
 20
235.47131959042645
 42
-0.63118267059326172
  0
VERTEX
  8
0
 10
286.59268106091838
 20
235.71026971612241
 42
-0
  0
VERTEX
  8
0
 10
283.83909335039959
 20
251.1188506398974
 42
0.53532373905181885
  0
VERTEX
  8
0
 10
282.3133217511089
 20
251.78371809654953
 42
0.0060556028038263321
  0
VERTEX
  8
0
 10
282.31032124842005
 20
251.75968225813978
 42
0
  0
VERTEX
  8
0
 10
279.58987377826793
 20
227.6059636103588
 42
-0.061611451208591461
  0
VERTEX
  8
0
 10
264.07019037066914
 20
217.24742566348107
 42
-0.63118267059326172
  0
VERTEX
  8
0
 10
263.35737008738352
 20
217.80132039476013
 42
-0
  0
VERTEX
  8
0
 10
266.71000135655186
 20
233.09074316373403
 42
0.5353238582611084
  0
VERTEX
  8
0
 10
265.55480139138604
 20
234.28888723247371
 42
0.0060556028038263321
  0
VERTEX
  8
0
 10
265.5428322574727
 20
234.26783378037391
 42
0
  0
VERTEX
  8
0
 10
253.78623744018003
 20
212.99377795091067
 42
-0.061611451208591461
  0
VERTEX
  8
0
 10
235.4838770906405
 20
209.36286210202834
 42
-0.63118267059326172
  0
VERTEX
  8
0
 10
235.03728586978022
 20
210.14737976013697
 42
-0
  0
VERTEX
  8
0
 10
243.98572020907361
 20
222.98996730014971
 42
0.5353238582611084
  0
VERTEX
  8
0
 10
243.3769682305992
 20
224.53898284535052
 42
0.0060556363314390182
  0
VERTEX
  8
0
 10
243.35784961283022
 20
224.52411152627755
 42
0
  0
VERTEX
  8
0
 10
224.35494526021103
 20
209.36849871345257
 42
-0.061611432582139969
  0
VERTEX
  8
0
 10
206.05627535195222
 20
213.01797389872843
 42
-0.63118267059326172
  0
VERTEX
  8
0
 10
205.94390139616135
 20
213.91368345118235
 42
-0
  0
VERTEX
  8
0
 10
219.12582353334062
 20
222.35426966653048
 42
0.5353238582611084
  0
VERTEX
  8
0
 10
219.15619329041627
 20
224.01833718772872
 42
0.0060556363314390182
  0
VERTEX
  8
0
 10
219.13283806705567
 20
224.01191204069568
 42
0
  0
VERTEX
  8
0
 10
195.77664087431211
 20
217.28205139410485
 42
-0.061611425131559372
  0
VERTEX
  8
0
 10
180.26747341792921
 20
227.65632492508752
 42
-0.63118267059326172
  0
VERTEX
  8
0
 10
180.50642354362517
 20
228.52685082618387
 42
-0
  0
VERTEX
  8
0
 10
195.91500446740017
 20
231.2804385367026
 42
0.5353238582611084
  0
VERTEX
  8
0
 10
196.5798719240523
 20
232.80621013599333
 42
0.0060556363314390182
  0
VERTEX
  8
0
 10
196.55583608564254
 20
232.80921063868217
 42
0
  0
VERTEX
  8
0
 10
172.402114191192
 20
235.52966241731042
 42
-0.061611417680978775
  0
VERTEX
  8
0
 10
162.04357949098383
 20
251.04934151643306
 42
-0.63118267059326172
  0
VERTEX
  8
0
 10
162.59747422226289
 20
251.76216179971874
 42
-0
  0
VERTEX
  8
0
 10
177.8868969912368
 20
248.4095305305504
 42
0.53532379865646362
  0
VERTEX
  8
0
 10
179.08504105997648
 20
249.56473049571622
 42
0.0060556363314390182
  0
VERTEX
  8
0
 10
179.06398760787667
 20
249.57669962962956
 42
0
  0
VERTEX
  8
0
 10
157.7899323093167
 20
261.33329822449502
 42
-0.061611432582139969
  0
VERTEX
  8
0
 10
154.15901592953111
 20
279.63565479646172
 42
-0.63118267059326172
  0
VERTEX
  8
0
 10
154.94353358763976
 20
280.08224601732201
 42
-0
  0
VERTEX
  8
0
 10
167.78612112765248
 20
271.13381167802862
 42
0.5353238582611084
  0
VERTEX
  8
0
 10
169.33513667285328
 20
271.74256365650302
 42
0.0060556363314390182
  0
VERTEX
  8
0
 10
169.32026535378031
 20
271.761682274272
 42
0
  0
VERTEX
  8
0
 10
154.16465254095533
 20
290.76458662689117
 42
-0.061611451208591461
  0
VERTEX
  8
0
 10
157.81412772623119
 20
309.06325653515
 42
-0.63118267059326172
  0
VERTEX
  8
0
 10
158.70983727868511
 20
309.17563049094088
 42
-0
  0
VERTEX
  8
0
 10
167.15042347744253
 20
295.99370823571246
 42
0.5353238582611084
  0
VERTEX
  8
0
 10
168.81449101523145
 20
295.96333859668596
 42
0.0060556363314390182
  0
VERTEX
  8
0
 10
168.80806586819844
 20
295.98669382004658
 42
0
  0
VERTEX
  8
0
 10
162.07820495615599
 20
319.3428891240037
 42
-0.061611451208591461
  0
VERTEX
  8
0
 10
172.45247875259028
 20
334.85205846917302
 42
-0.63118267059326172
  0
VERTEX
  8
0
 10
173.32300465368664
 20
334.61310834347705
 42
-0
  0
VERTEX
  8
0
 10
176.07659236420537
 20
319.20452741970206
 42
0.5353238582611084
  0
VERTEX
  8
0
 10
177.60236396349609
 20
318.53965996304993
 42
0.0060555697418749332
  0
VERTEX
  8
0
 10
177.60536446618494
 20
318.56369580145969
 42
0
  0
SEQEND
  0
POLYLINE
  8
0
 10
0
 20
0
 39
0
 70
1
 66
1
  0
VERTEX
  8
0
 10
230.89726131847627
 20
291.84599837826374
 42
1
  0
VERTEX
  8
0
 10
229.01842439612872
 20
278.47737968133572
 42
1
  0
SEQEND
  0
POLYLINE
  8
0
 10
0
 20
0
 39
0
 70
1
 66
1
  0
VERTEX
  8
0
 10
180.32581193633709
 20
852.78664521847145
 42
-0.061611451208591461
  0
VERTEX
  8
0
 10
195.84549534393582
 20
863.14518316534918
 42
-0.63118278980255127
  0
VERTEX
  8
0
 10
196.5583156272215
 20
862.59128843407007
 42
-0
  0
VERTEX
  8
0
 10
193.20568435805316
 20
847.30186566509622
 42
0.5353238582611084
  0
VERTEX
  8
0
 10
194.36088432321898
 20
846.10372159635654
 42
0.0060555697418749332
  0
VERTEX
  8
0
 10
194.37285345713232
 20
846.12477504845629
 42
0
  0
VERTEX
  8
0
 10
206.12944827442496
 20
867.39883087791964
 42
-0.061611451208591461
  0
VERTEX
  8
0
 10
224.43180862396449
 20
871.02974672680193
 42
-0.63118278980255127
  0
VERTEX
  8
0
 10
224.87839984482477
 20
870.24522906869322
 42
-0
  0
VERTEX
  8
0
 10
215.92996550553138
 20
857.40264152868053
 42
0.53532379865646362
  0
VERTEX
  8
0
 10
216.53871748400579
 20
855.85362598347979
 42
0.0060555697418749332
  0
VERTEX
  8
0
 10
216.55783610177477
 20
855.86849730255267
 42
0
  0
VERTEX
  8
0
 10
235.56074045439397
 20
871.02411011537765
 42
-0.061611451208591461
  0
VERTEX
  8
0
 10
253.85941036265277
 20
867.37463493010182
 42
-0.63118278980255127
  0
VERTEX
  8
0
 10
253.97178431844364
 20
866.4789253776479
 42
-0
  0
VERTEX
  8
0
 10
240.78986206321522
 20
858.03833917889051
 42
0.53532379865646362
  0
VERTEX
  8
0
 10
240.75949266028704
 20
856.37427160792004
 42
0.0060555697418749332
  0
VERTEX
  8
0
 10
240.78284764754932
 20
856.38069678813463
 42
0
  0
VERTEX
  8
0
 10
264.13904295150644
 20
863.11055770017697
 42
-0.061611451208591461
  0
VERTEX
  8
0
 10
279.64821229667575
 20
852.73628390374279
 42
-0.63118278980255127
  0
VERTEX
  8
0
 10
279.40926217097979
 20
851.86575800264632
 42
-0
  0
VERTEX
  8
0
 10
264.00068124720485
 20
849.11217029212764
 42
0.53532379865646362
  0
VERTEX
  8
0
 10
263.33581379055272
 20
847.58639869283695
 42
0.0060555697418749332
  0
VERTEX
  8
0
 10
263.35984962896248
 20
847.58339819014805
 42
0
  0
VERTEX
  8
0
 10
287.5135682767434
 20
844.86295071999598
 42
-0.061611451208591461
  0
VERTEX
  8
0
 10
297.87210622362113
 20
829.34326731239719
 42
-0.63118267059326172
  0
VERTEX
  8
0
 10
297.31821149234213
 20
828.63044702911156
 42
-0
  0
VERTEX
  8
0
 10
282.02878872336817
 20
831.98307829827991
 42
0.53532379865646362
  0
VERTEX
  8
0
 10
280.83064465462849
 20
830.82787833311409
 42
0.0060556111857295036
  0
VERTEX
  8
0
 10
280.85169810672835
 20
830.81590919920063
 42
0
  0
VERTEX
  8
0
 10
302.12575393619159
 20
819.05931438190805
 42
-0.061611451208591461
  0
VERTEX
  8
0
 10
305.75666978507388
 20
800.75695403236853
 42
-0.63118267059326172
  0
VERTEX
  8
0
 10
304.97215212696523
 20
800.31036281150818
 42
-0
  0
VERTEX
  8
0
 10
292.12956458695248
 20
809.25879715080168
 42
0.53532379865646362
  0
VERTEX
  8
0
 10
290.58054904175174
 20
808.65004517232728
 42
0.0060556195676326752
  0
VERTEX
  8
0
 10
290.59542036082468
 20
808.6309265545583
 42
0
  0
VERTEX
  8
0
 10
305.75103317364966
 20
789.62802220193907
 42
-0.061611451208591461
  0
VERTEX
  8
0
 10
302.10155798837377
 20
771.32935229368024
 42
-0.63118267059326172
  0
VERTEX
  8
0
 10
301.20584843591985
 20
771.21697833788937
 42
-0
  0
VERTEX
  8
0
 10
292.76526223716246
 20
784.39890059311779
 42
0.53532379865646362
  0
VERTEX
  8
0
 10
291.1011946661921
 20
784.42926999604595
 42
0.0060556028038263321
  0
VERTEX
  8
0
 10
291.10761984640658
 20
784.40591500878372
 42
0
  0
VERTEX
  8
0
 10
297.83748075844903
 20
761.04971970482654
 42
-0.061611451208591461
  0
VERTEX
  8
0
 10
287.46320696201474
 20
745.54055035965723
 42
-0.63118267059326172
  0
VERTEX
  8
0
 10
286.59268106091838
 20
745.7795004853532
 42
-0
  0
VERTEX
  8
0
 10
283.83909335039959
 20
761.18808140912824
 42
0.53532373905181885
  0
VERTEX
  8
0
 10
282.3133217511089
 20
761.85294886578026
 42
0.0060556028038263321
  0
VERTEX
  8
0
 10
282.31032124842005
 20
761.82891302737062
 42
0
  0
VERTEX
  8
0
 10
279.58987377826793
 20
737.67519437958958
 42
-0.061611451208591461
  0
VERTEX
  8
0
 10
264.07019037066914
 20
727.31665643271185
 42
-0.63118267059326172
  0
VERTEX
  8
0
 10
263.35737008738352
 20
727.87055116399097
 42
-0
  0
VERTEX
  8
0
 10
266.71000135655186
 20
743.15997393296482
 42
0.5353238582611084
  0
VERTEX
  8
0
 10
265.55480139138604
 20
744.3581180017045
 42
0.0060556028038263321
  0
VERTEX
  8
0
 10
265.5428322574727
 20
744.33706454960475
 42
0
  0
VERTEX
  8
0
 10
253.78623744018003
 20
723.0630087201414
 42
-0.061611451208591461
  0
VERTEX
  8
0
 10
235.4838770906405
 20
719.4320928712591
 42
-0.63118267059326172
  0
VERTEX
  8
0
 10
235.03728586978022
 20
720.21661052936781
 42
-0
  0
VERTEX
  8
0
 10
243.98572020907361
 20
733.0591980693805
 42
0.5353238582611084
  0
VERTEX
  8
0
 10
243.3769682305992
 20
734.60821361458125
 42
0.0060556363314390182
  0
VERTEX
  8
0
 10
243.35784961283022
 20
734.59334229550836
 42
0
  0
VERTEX
  8
0
 10
224.35494526021103
 20
719.43772948268338
 42
-0.061611432582139969
  0
VERTEX
  8
0
 10
206.05627535195222
 20
723.08720466795921
 42
-0.63118267059326172
  0
VERTEX
  8
0
 10
205.94390139616135
 20
723.98291422041314
 42
-0
  0
VERTEX
  8
0
 10
219.12582353334062
 20
732.4235004357613
 42
0.5353238582611084
  0
VERTEX
  8
0
 10
219.15619329041627
 20
734.08756795695945
 42
0.0060556363314390182
  0
VERTEX
  8
0
 10
219.13283806705567
 20
734.0811428099264
 42
0
  0
VERTEX
  8
0
 10
195.77664087431211
 20
727.35128216333567
 42
-0.061611425131559372
  0
VERTEX
  8
0
 10
180.26747341792921
 20
737.72555569431825
 42
-0.63118267059326172
  0
VERTEX
  8
0
 10
180.50642354362517
 20
738.59608159541472
 42
-0
  0
VERTEX
  8
0
 10
195.91500446740017
 20
741.34966930593339
 42
0.5353238582611084
  0
VERTEX
  8
0
 10
196.5798719240523
 20
742.87544090522408
 42
0.0060556363314390182
  0
VERTEX
  8
0
 10
196.55583608564254
 20
742.87844140791299
 42
0
  0
VERTEX
  8
0
 10
172.402114191192
 20
745.5988931865412
 42
-0.061611417680978775
  0
VERTEX
  8
0
 10
162.04357949098383
 20
761.11857228566384
 42
-0.63118267059326172
  0
VERTEX
  8
0
 10
162.59747422226289
 20
761.83139256894947
 42
-0
  0
VERTEX
  8
0
 10
177.8868969912368
 20
758.47876129978113
 42
0.53532379865646362
  0
VERTEX
  8
0
 10
179.08504105997648
 20
759.63396126494695
 42
0.0060556363314390182
  0
VERTEX
  8
0
 10
179.06398760787667
 20
759.6459303988604
 42
0
  0
VERTEX
  8
0
 10
157.7899323093167
 20
771.40252899372581
 42
-0.061611432582139969
  0
VERTEX
  8
0
 10
154.15901592953111
 20
789.70488556569251
 42
-0.63118267059326172
  0
VERTEX
  8
0
 10
154.94353358763976
 20
790.15147678655285
 42
-0
  0
VERTEX
  8
0
 10
167.78612112765248
 20
781.20304244725935
 42
0.5353238582611084
  0
VERTEX
  8
0
 10
169.33513667285328
 20
781.81179442573375
 42
0.0060556363314390182
  0
VERTEX
  8
0
 10
169.32026535378031
 20
781.83091304350273
 42
0
  0
VERTEX
  8
0
 10
154.16465254095533
 20
800.83381739612196
 42
-0.061611451208591461
  0
VERTEX
  8
0
 10
157.81412772623119
 20
819.13248730438079
 42
-0.63118267059326172
  0
VERTEX
  8
0
 10
158.70983727868511
 20
819.24486126017166
 42
-0
  0
VERTEX
  8
0
 10
167.15042347744253
 20
806.06293900494325
 42
0.5353238582611084
  0
VERTEX
  8
0
 10
168.81449101523145
 20
806.03256936591674
 42
0.0060556363314390182
  0
VERTEX
  8
0
 10
168.80806586819844
 20
806.05592458927731
 42
0
  0
VERTEX
  8
0
 10
162.07820495615599
 20
829.41211989323449
 42
-0.061611451208591461
  0
VERTEX
  8
0
 10
172.45247875259028
 20
844.9212892384038
 42
-0.63118267059326172
  0
VERTEX
  8
0
 10
173.32300465368664
 20
844.68233911270784
 42
-0
  0
VERTEX
  8
0
 10
176.07659236420537
 20
829.27375818893279
 42
0.5353238582611084
  0
VERTEX
  8
0
 10
177.60236396349609
 20
828.60889073228077
 42
0.0060555697418749332
  0
VERTEX
  8
0
 10
177.60536446618494
 20
828.63292657069042
 42
0
  0
SEQEND
  0
POLYLINE
  8
0
 10
0
 20
0
 39
0
 70
1
 66
1
  0
VERTEX
  8
0
 10
230.89726131847627
 20
801.91522914749453
 42
1
  0
VERTEX
  8
0
 10
229.01842439612872
 20
788.5466104505665
 42
1
  0
SEQEND
  0
POLYLINE
  8
0
 10
0
 20
0
 39
0
 70
1
 66
1
  0
VERTEX
  8
0
 10
801.1140075683594
 20
360.55384615384617
 42
-0
  0
VERTEX
  8
0
 10
801.1140075683594
 20
210.55384615384617
 42
0
  0
VERTEX
  8
0
 10
701.1140075683594
 20
210.55384615384614
 42
-0
  0
VERTEX
  8
0
 10
666.85000000000002
 20
285.55384615384617
 42
-0
  0
VERTEX
  8
0
 10
701.1140075683594
 20
360.55384615384617
 42
0
  0
SEQEND
  0
POLYLINE
  8
0
 10
0
 20
0
 39
0
 70
1
 66
1
  0
VERTEX
  8
0
 10
701.1140075683594
 20
303.55384615384617
 42
1
  0
VERTEX
  8
0
 10
701.1140075683594
 20
267.55384615384617
 42
1
  0
SEQEND
  0
POLYLINE
  8
0
 10
0
 20
0
 39
0
 70
1
 66
1
  0
VERTEX
  8
0
 10
801.1140075683594
 20
870.62307692307695
 42
-0
  0
VERTEX
  8
0
 10
801.1140075683594
 20
720.62307692307695
 42
0
  0
VERTEX
  8
0
 10
701.1140075683594
 20
720.62307692307695
 42
-0
  0
VERTEX
  8
0
 10
666.85000000000002
 20
795.62307692307695
 42
-0
  0
VERTEX
  8
0
 10
701.1140075683594
 20
870.62307692307695
 42
0
  0
SEQEND
  0
POLYLINE
  8
0
 10
0
 20
0
 39
0
 70
1
 66
1
  0
VERTEX
  8
0
 10
701.1140075683594
 20
813.62307692307695
 42
1
  0
VERTEX
  8
0
 10
701.1140075683594
 20
777.62307692307695
 42
1
  0
SEQEND
  0
POLYLINE
  8
0
 10
0
 20
0
 39
0
 70
1
 66
1
  0
VERTEX
  8
0
 10
1311.302469106821
 20
360.55384615384617
 42
-0
  0
VERTEX
  8
0
 10
1311.302469106821
 20
210.55384615384617
 42
0
  0
VERTEX
  8
0
 10
1211.302469106821
 20
210.55384615384614
 42
-0
  0
VERTEX
  8
0
 10
1177.0384615384617
 20
285.55384615384617
 42
-0
  0
VERTEX
  8
0
 10
1211.302469106821
 20
360.55384615384617
 42
0
  0
SEQEND
  0
POLYLINE
  8
0
 10
0
 20
0
 39
0
 70
1
 66
1
  0
VERTEX
  8
0
 10
1211.302469106821
 20
303.55384615384617
 42
1
  0
VERTEX
  8
0
 10
1211.302469106821
 20
267.55384615384617
 42
1
  0
SEQEND
  0
POLYLINE
  8
0
 10
0
 20
0
 39
0
 70
1
 66
1
  0
VERTEX
  8
0
 10
1311.302469106821
 20
870.62307692307695
 42
-0
  0
VERTEX
  8
0
 10
1311.302469106821
 20
720.62307692307695
 42
0
  0
VERTEX
  8
0
 10
1211.302469106821
 20
720.62307692307695
 42
-0
  0
VERTEX
  8
0
 10
1177.0384615384617
 20
795.62307692307695
 42
-0
  0
VERTEX
  8
0
 10
1211.302469106821
 20
870.62307692307695
 42
0
  0
SEQEND
  0
POLYLINE
  8
0
 10
0
 20
0
 39
0
 70
1
 66
1
  0
VERTEX
  8
0
 10
1211.302469106821
 20
813.62307692307695
 42
1
  0
VERTEX
  8
0
 10
1211.302469106821
 20
777.62307692307695
 42
1
  0
SEQEND
  0
POLYLINE
  8
0
 10
0
 20
0
 39
0
 70
1
 66
1
  0
VERTEX
  8
0
 10
110.12692307692308
 20
1030.2653846153846
 42
0
  0
VERTEX
  8
0
 10
10.126923076923077
 20
1030.2653846153846
 42
0
  0
VERTEX
  8
0
 10
10.126923076923077
 20
1080.2653846153846
 42
0
  0
VERTEX
  8
0
 10
110.12692307692308
 20
1080.2653846153846
 42
0
  0
SEQEND
  0
POLYLINE
  8
0
 10
0
 20
0
 39
0
 70
1
 66
1
  0
VERTEX
  8
0
 10
90.376923076923077
 20
1055.2653846153846
 42
1
  0
VERTEX
  8
0
 10
69.876923076923077
 20
1055.2653846153846
 42
1
  0
SEQEND
  0
POLYLINE
  8
0
 10
0
 20
0
 39
0
 70
1
 66
1
  0
VERTEX
  8
0
 10
102.53076923076924
 20
89.534615384615392
 42
0
  0
VERTEX
  8
0
 10
102.53076923076924
 20
189.53461538461539
 42
0
  0
VERTEX
  8
0
 10
152.53076923076924
 20
189.53461538461539
 42
0
  0
VERTEX
  8
0
 10
152.53076923076924
 20
89.534615384615392
 42
0
  0
SEQEND
  0
POLYLINE
  8
0
 10
0
 20
0
 39
0
 70
1
 66
1
  0
VERTEX
  8
0
 10
127.53076923076924
 20
109.28461538461539
 42
1
  0
VERTEX
  8
0
 10
127.53076923076924
 20
129.78461538461539
 42
1
  0
SEQEND
  0
POLYLINE
  8
0
 10
0
 20
0
 39
0
 70
1
 66
1
  0
VERTEX
  8
0
 10
102.53076923076924
 20
599.60384615384623
 42
0
  0
VERTEX
  8
0
 10
102.53076923076924
 20
699.60384615384623
 42
0
  0
VERTEX
  8
0
 10
152.53076923076924
 20
699.60384615384623
 42
0
  0
VERTEX
  8
0
 10
152.53076923076924
 20
599.60384615384623
 42
0
  0
SEQEND
  0
POLYLINE
  8
0
 10
0
 20
0
 39
0
 70
1
 66
1
  0
VERTEX
  8
0
 10
127.53076923076924
 20
619.35384615384623
 42
1
  0
VERTEX
  8
0
 10
127.53076923076924
 20
639.85384615384623
 42
1
  0
SEQEND
  0
POLYLINE
  8
0
 10
0
 20
0
 39
0
 70
1
 66
1
  0
VERTEX
  8
0
 10
220.29615384615386
 20
1030.2653846153846
 42
0
  0
VERTEX
  8
0
 10
120.29615384615386
 20
1030.2653846153846
 42
0
  0
VERTEX
  8
0
 10
120.29615384615386
 20
1080.2653846153846
 42
0
  0
VERTEX
  8
0
 10
220.29615384615386
 20
1080.2653846153846
 42
0
  0
SEQEND
  0
POLYLINE
  8
0
 10
0
 20
0
 39
0
 70
1
 66
1
  0
VERTEX
  8
0
 10
200.54615384615386
 20
1055.2653846153846
 42
1
  0
VERTEX
  8
0
 10
180.04615384615386
 20
1055.2653846153846
 42
1
  0
SEQEND
  0
POLYLINE
  8
0
 10
0
 20
0
 39
0
 70
1
 66
1
  0
VERTEX
  8
0
 10
330.46538461538466
 20
1030.2653846153846
 42
0
  0
VERTEX
  8
0
 10
230.46538461538466
 20
1030.2653846153846
 42
0
  0
VERTEX
  8
0
 10
230.46538461538466
 20
1080.2653846153846
 42
0
  0
VERTEX
  8
0
 10
330.46538461538466
 20
1080.2653846153846
 42
0
  0
SEQEND
  0
POLYLINE
  8
0
 10
0
 20
0
 39
0
 70
1
 66
1
  0
VERTEX
  8
0
 10
310.71538461538466
 20
1055.2653846153846
 42
1
  0
VERTEX
  8
0
 10
290.21538461538466
 20
1055.2653846153846
 42
1
  0
SEQEND
  0
POLYLINE
  8
0
 10
0
 20
0
 39
0
 70
1
 66
1
  0
VERTEX
  8
0
 10
343.61538461538464
 20
89.534615384615392
 42
0
  0
VERTEX
  8
0
 10
343.61538461538464
 20
189.53461538461539
 42
0
  0
VERTEX
  8
0
 10
393.61538461538464
 20
189.53461538461539
 42
0
  0
VERTEX
  8
0
 10
393.61538461538464
 20
89.534615384615392
 42
0
  0
SEQEND
  0
POLYLINE
  8
0
 10
0
 20
0
 39
0
 70
1
 66
1
  0
VERTEX
  8
0
 10
368.61538461538464
 20
109.28461538461539
 42
1
  0
VERTEX
  8
0
 10
368.61538461538464
 20
129.78461538461539
 42
1
  0
SEQEND
  0
POLYLINE
  8
0
 10
0
 20
0
 39
0
 70
1
 66
1
  0
VERTEX
  8
0
 10
343.61538461538464
 20
599.60384615384623
 42
0
  0
VERTEX
  8
0
 10
343.61538461538464
 20
699.60384615384623
 42
0
  0
VERTEX
  8
0
 10
393.61538461538464
 20
699.60384615384623
 42
0
  0
VERTEX
  8
0
 10
393.61538461538464
 20
599.60384615384623
 42
0
  0
SEQEND
  0
POLYLINE
  8
0
 10
0
 20
0
 39
0
 70
1
 66
1
  0
VERTEX
  8
0
 10
368.61538461538464
 20
619.35384615384623
 42
1
  0
VERTEX
  8
0
 10
368.61538461538464
 20
639.85384615384623
 42
1
  0
SEQEND
  0
POLYLINE
  8
0
 10
0
 20
0
 39
0
 70
1
 66
1
  0
VERTEX
  8
0
 10
440.63461538461542
 20
1030.2653846153846
 42
0
  0
VERTEX
  8
0
 10
340.63461538461542
 20
1030.2653846153846
 42
0
  0
VERTEX
  8
0
 10
340.63461538461542
 20
1080.2653846153846
 42
0
  0
VERTEX
  8
0
 10
440.63461538461542
 20
1080.2653846153846
 42
0
  0
SEQEND
  0
POLYLINE
  8
0
 10
0
 20
0
 39
0
 70
1
 66
1
  0
VERTEX
  8
0
 10
420.88461538461542
 20
1055.2653846153846
 42
1
  0
VERTEX
  8
0
 10
400.38461538461542
 20
1055.2653846153846
 42
1
  0
SEQEND
  0
POLYLINE
  8
0
 10
0
 20
0
 39
0
 70
1
 66
1
  0
VERTEX
  8
0
 10
550.80384615384617
 20
1030.2653846153846
 42
0
  0
VERTEX
  8
0
 10
450.80384615384617
 20
1030.2653846153846
 42
0
  0
VERTEX
  8
0
 10
450.80384615384617
 20
1080.2653846153846
 42
0
  0
VERTEX
  8
0
 10
550.80384615384617
 20
1080.2653846153846
 42
0
  0
SEQEND
  0
POLYLINE
  8
0
 10
0
 20
0
 39
0
 70
1
 66
1
  0
VERTEX
  8
0
 10
531.05384615384617
 20
1055.2653846153846
 42
1
  0
VERTEX
  8
0
 10
510.55384615384617
 20
1055.2653846153846
 42
1
  0
SEQEND
  0
POLYLINE
  8
0
 10
0
 20
0
 39
0
 70
1
 66
1
  0
VERTEX
  8
0
 10
660.97307692307697
 20
1030.2653846153846
 42
0
  0
VERTEX
  8
0
 10
560.97307692307697
 20
1030.2653846153846
 42
0
  0
VERTEX
  8
0
 10
560.97307692307697
 20
1080.2653846153846
 42
0
  0
VERTEX
  8
0
 10
660.97307692307697
 20
1080.2653846153846
 42
0
  0
SEQEND
  0
POLYLINE
  8
0
 10
0
 20
0
 39
0
 70
1
 66
1
  0
VERTEX
  8
0
 10
641.22307692307697
 20
1055.2653846153846
 42
1
  0
VERTEX
  8
0
 10
620.72307692307697
 20
1055.2653846153846
 42
1
  0
SEQEND
  0
POLYLINE
  8
0
 10
0
 20
0
 39
0
 70
1
 66
1
  0
VERTEX
  8
0
 10
612.71923076923076
 20
89.534615384615392
 42
0
  0
VERTEX
  8
0
 10
612.71923076923076
 20
189.53461538461539
 42
0
  0
VERTEX
  8
0
 10
662.71923076923076
 20
189.53461538461539
 42
0
  0
VERTEX
  8
0
 10
662.71923076923076
 20
89.534615384615392
 42
0
  0
SEQEND
  0
POLYLINE
  8
0
 10
0
 20
0
 39
0
 70
1
 66
1
  0
VERTEX
  8
0
 10
637.71923076923076
 20
109.28461538461539
 42
1
  0
VERTEX
  8
0
 10
637.71923076923076
 20
129.78461538461539
 42
1
  0
SEQEND
  0
POLYLINE
  8
0
 10
0
 20
0
 39
0
 70
1
 66
1
  0
VERTEX
  8
0
 10
612.71923076923076
 20
599.60384615384623
 42
0
  0
VERTEX
  8
0
 10
612.71923076923076
 20
699.60384615384623
 42
0
  0
VERTEX
  8
0
 10
662.71923076923076
 20
699.60384615384623
 42
0
  0
VERTEX
  8
0
 10
662.71923076923076
 20
599.60384615384623
 42
0
  0
SEQEND
  0
POLYLINE
  8
0
 10
0
 20
0
 39
0
 70
1
 66
1
  0
VERTEX
  8
0
 10
637.71923076923076
 20
619.35384615384623
 42
1
  0
VERTEX
  8
0
 10
637.71923076923076
 20
639.85384615384623
 42
1
  0
SEQEND
  0
POLYLINE
  8
0
 10
0
 20
0
 39
0
 70
1
 66
1
  0
VERTEX
  8
0
 10
771.14230769230767
 20
1030.2653846153846
 42
0
  0
VERTEX
  8
0
 10
671.14230769230767
 20
1030.2653846153846
 42
0
  0
VERTEX
  8
0
 10
671.14230769230767
 20
1080.2653846153846
 42
0
  0
VERTEX
  8
0
 10
771.14230769230767
 20
1080.2653846153846
 42
0
  0
SEQEND
  0
POLYLINE
  8
0
 10
0
 20
0
 39
0
 70
1
 66
1
  0
VERTEX
  8
0
 10
751.39230769230767
 20
1055.2653846153846
 42
1
  0
VERTEX
  8
0
 10
730.89230769230767
 20
1055.2653846153846
 42
1
  0
SEQEND
  0
POLYLINE
  8
0
 10
0
 20
0
 39
0
 70
1
 66
1
  0
VERTEX
  8
0
 10
881.31153846153848
 20
1030.2653846153846
 42
0
  0
VERTEX
  8
0
 10
781.31153846153848
 20
1030.2653846153846
 42
0
  0
VERTEX
  8
0
 10
781.31153846153848
 20
1080.2653846153846
 42
0
  0
VERTEX
  8
0
 10
881.31153846153848
 20
1080.2653846153846
 42
0
  0
SEQEND
  0
POLYLINE
  8
0
 10
0
 20
0
 39
0
 70
1
 66
1
  0
VERTEX
  8
0
 10
861.56153846153848
 20
1055.2653846153846
 42
1
  0
VERTEX
  8
0
 10
841.06153846153848
 20
1055.2653846153846
 42
1
  0
SEQEND
  0
POLYLINE
  8
0
 10
0
 20
0
 39
0
 70
1
 66
1
  0
VERTEX
  8
0
 10
853.80384615384617
 20
89.534615384615392
 42
0
  0
VERTEX
  8
0
 10
853.80384615384617
 20
189.53461538461539
 42
0
  0
VERTEX
  8
0
 10
903.80384615384617
 20
189.53461538461539
 42
0
  0
VERTEX
  8
0
 10
903.80384615384617
 20
89.534615384615392
 42
0
  0
SEQEND
  0
POLYLINE
  8
0
 10
0
 20
0
 39
0
 70
1
 66
1
  0
VERTEX
  8
0
 10
878.80384615384617
 20
109.28461538461539
 42
1
  0
VERTEX
  8
0
 10
878.80384615384617
 20
129.78461538461539
 42
1
  0
SEQEND
  0
POLYLINE
  8
0
 10
0
 20
0
 39
0
 70
1
 66
1
  0
VERTEX
  8
0
 10
853.80384615384617
 20
599.60384615384623
 42
0
  0
VERTEX
  8
0
 10
853.80384615384617
 20
699.60384615384623
 42
0
  0
VERTEX
  8
0
 10
903.80384615384617
 20
699.60384615384623
 42
0
  0
VERTEX
  8
0
 10
903.80384615384617
 20
599.60384615384623
 42
0
  0
SEQEND
  0
POLYLINE
  8
0
 10
0
 20
0
 39
0
 70
1
 66
1
  0
VERTEX
  8
0
 10
878.80384615384617
 20
619.35384615384623
 42
1
  0
VERTEX
  8
0
 10
878.80384615384617
 20
639.85384615384623
 42
1
  0
SEQEND
  0
POLYLINE
  8
0
 10
0
 20
0
 39
0
 70
1
 66
1
  0
VERTEX
  8
0
 10
991.48076923076928
 20
1030.2653846153846
 42
0
  0
VERTEX
  8
0
 10
891.48076923076928
 20
1030.2653846153846
 42
0
  0
VERTEX
  8
0
 10
891.48076923076928
 20
1080.2653846153846
 42
0
  0
VERTEX
  8
0
 10
991.48076923076928
 20
1080.2653846153846
 42
0
  0
SEQEND
  0
POLYLINE
  8
0
 10
0
 20
0
 39
0
 70
1
 66
1
  0
VERTEX
  8
0
 10
971.73076923076928
 20
1055.2653846153846
 42
1
  0
VERTEX
  8
0
 10
951.23076923076928
 20
1055.2653846153846
 42
1
  0
SEQEND
  0
POLYLINE
  8
0
 10
0
 20
0
 39
0
 70
1
 66
1
  0
VERTEX
  8
0
 10
1101.6500000000001
 20
1030.2653846153846
 42
0
  0
VERTEX
  8
0
 10
1001.6500000000001
 20
1030.2653846153846
 42
0
  0
VERTEX
  8
0
 10
1001.6500000000001
 20
1080.2653846153846
 42
0
  0
VERTEX
  8
0
 10
1101.6500000000001
 20
1080.2653846153846
 42
0
  0
SEQEND
  0
POLYLINE
  8
0
 10
0
 20
0
 39
0
 70
1
 66
1
  0
VERTEX
  8
0
 10
1081.9000000000001
 20
1055.2653846153846
 42
1
  0
VERTEX
  8
0
 10
1061.4000000000001
 20
1055.2653846153846
 42
1
  0
SEQEND
  0
POLYLINE
  8
0
 10
0
 20
0
 39
0
 70
1
 66
1
  0
VERTEX
  8
0
 10
1122.9076923076923
 20
89.534615384615392
 42
0
  0
VERTEX
  8
0
 10
1122.9076923076923
 20
189.53461538461539
 42
0
  0
VERTEX
  8
0
 10
1172.9076923076923
 20
189.53461538461539
 42
0
  0
VERTEX
  8
0
 10
1172.9076923076923
 20
89.534615384615392
 42
0
  0
SEQEND
  0
POLYLINE
  8
0
 10
0
 20
0
 39
0
 70
1
 66
1
  0
VERTEX
  8
0
 10
1147.9076923076923
 20
109.28461538461539
 42
1
  0
VERTEX
  8
0
 10
1147.9076923076923
 20
129.78461538461539
 42
1
  0
SEQEND
  0
POLYLINE
  8
0
 10
0
 20
0
 39
0
 70
1
 66
1
  0
VERTEX
  8
0
 10
1122.9076923076923
 20
599.60384615384623
 42
0
  0
VERTEX
  8
0
 10
1122.9076923076923
 20
699.60384615384623
 42
0
  0
VERTEX
  8
0
 10
1172.9076923076923
 20
699.60384615384623
 42
0
  0
VERTEX
  8
0
 10
1172.9076923076923
 20
599.60384615384623
 42
0
  0
SEQEND
  0
POLYLINE
  8
0
 10
0
 20
0
 39
0
 70
1
 66
1
  0
VERTEX
  8
0
 10
1147.9076923076923
 20
619.35384615384623
 42
1
  0
VERTEX
  8
0
 10
1147.9076923076923
 20
639.85384615384623
 42
1
  0
SEQEND
  0
POLYLINE
  8
0
 10
0
 20
0
 39
0
 70
1
 66
1
  0
VERTEX
  8
0
 10
1211.8192307692309
 20
1030.2653846153846
 42
0
  0
VERTEX
  8
0
 10
1111.8192307692309
 20
1030.2653846153846
 42
0
  0
VERTEX
  8
0
 10
1111.8192307692309
 20
1080.2653846153846
 42
0
  0
VERTEX
  8
0
 10
1211.8192307692309
 20
1080.2653846153846
 42
0
  0
SEQEND
  0
POLYLINE
  8
0
 10
0
 20
0
 39
0
 70
1
 66
1
  0
VERTEX
  8
0
 10
1192.0692307692309
 20
1055.2653846153846
 42
1
  0
VERTEX
  8
0
 10
1171.5692307692309
 20
1055.2653846153846
 42
1
  0
SEQEND
  0
POLYLINE
  8
0
 10
0
 20
0
 39
0
 70
1
 66
1
  0
VERTEX
  8
0
 10
1321.9884615384615
 20
1030.2653846153846
 42
0
  0
VERTEX
  8
0
 10
1221.9884615384615
 20
1030.2653846153846
 42
0
  0
VERTEX
  8
0
 10
1221.9884615384615
 20
1080.2653846153846
 42
0
  0
VERTEX
  8
0
 10
1321.9884615384615
 20
1080.2653846153846
 42
0
  0
SEQEND
  0
POLYLINE
  8
0
 10
0
 20
0
 39
0
 70
1
 66
1
  0
VERTEX
  8
0
 10
1302.2384615384615
 20
1055.2653846153846
 42
1
  0
VERTEX
  8
0
 10
1281.7384615384615
 20
1055.2653846153846
 42
1
  0
SEQEND
  0
POLYLINE
  8
0
 10
0
 20
0
 39
0
 70
1
 66
1
  0
VERTEX
  8
0
 10
1363.9923076923078
 20
89.534615384615392
 42
0
  0
VERTEX
  8
0
 10
1363.9923076923078
 20
189.53461538461539
 42
0
  0
VERTEX
  8
0
 10
1413.9923076923078
 20
189.53461538461539
 42
0
  0
VERTEX
  8
0
 10
1413.9923076923078
 20
89.534615384615392
 42
0
  0
SEQEND
  0
POLYLINE
  8
0
 10
0
 20
0
 39
0
 70
1
 66
1
  0
VERTEX
  8
0
 10
1388.9923076923078
 20
109.28461538461539
 42
1
  0
VERTEX
  8
0
 10
1388.9923076923078
 20
129.78461538461539
 42
1
  0
SEQEND
  0
POLYLINE
  8
0
 10
0
 20
0
 39
0
 70
1
 66
1
  0
VERTEX
  8
0
 10
1363.9923076923078
 20
599.60384615384623
 42
0
  0
VERTEX
  8
0
 10
1363.9923076923078
 20
699.60384615384623
 42
0
  0
VERTEX
  8
0
 10
1413.9923076923078
 20
699.60384615384623
 42
0
  0
VERTEX
  8
0
 10
1413.9923076923078
 20
599.60384615384623
 42
0
  0
SEQEND
  0
POLYLINE
  8
0
 10
0
 20
0
 39
0
 70
1
 66
1
  0
VERTEX
  8
0
 10
1388.9923076923078
 20
619.35384615384623
 42
1
  0
VERTEX
  8
0
 10
1388.9923076923078
 20
639.85384615384623
 42
1
  0
SEQEND
  0
POLYLINE
  8
0
 10
0
 20
0
 39
0
 70
1
 66
1
  0
VERTEX
  8
0
 10
1432.1576923076923
 20
1030.2653846153846
 42
0
  0
VERTEX
  8
0
 10
1332.1576923076923
 20
1030.2653846153846
 42
0
  0
VERTEX
  8
0
 10
1332.1576923076923
 20
1080.2653846153846
 42
0
  0
VERTEX
  8
0
 10
1432.1576923076923
 20
1080.2653846153846
 42
0
  0
SEQEND
  0
POLYLINE
  8
0
 10
0
 20
0
 39
0
 70
1
 66
1
  0
VERTEX
  8
0
 10
1412.4076923076923
 20
1055.2653846153846
 42
1
  0
VERTEX
  8
0
 10
1391.9076923076923
 20
1055.2653846153846
 42
1
  0
SEQEND
  0
POLYLINE
  8
0
 10
0
 20
0
 39
0
 70
1
 66
1
  0
VERTEX
  8
0
 10
852.23846153846159
 20
297.48461538461538
 42
-0
  0
VERTEX
  8
0
 10
852.23846153846159
 20
271.48461538461538
 42
-1
  0
VERTEX
  8
0
 10
826.23846153846159
 20
271.48461538461538
 42
-0
  0
VERTEX
  8
0
 10
826.23846153846159
 20
287.48461538461538
 42
0
  0
VERTEX
  8
0
 10
811.23846153846159
 20
287.48461538461538
 42
-0
  0
VERTEX
  8
0
 10
811.23846153846159
 20
334.48461538461538
 42
-0
  0
VERTEX
  8
0
 10
846.99171547522917
 20
307.91951185373159
 42
-0.23725263774394989
  0
SEQEND
  0
POLYLINE
  8
0
 10
0
 20
0
 39
0
 70
1
 66
1
  0
VERTEX
  8
0
 10
833.98846153846159
 20
271.48461538461538
 42
1
  0
VERTEX
  8
0
 10
844.48846153846159
 20
271.48461538461538
 42
1
  0
SEQEND
  0
ENDSEC
  0
EOF
