  0
SECTION
  2
ENTITIES
  0
POLYLINE
  8
0
 10
0
 20
0
 39
0
 70
1
 66
1
  0
VERTEX
  8
0
 10
0
 20
0
 42
-0
  0
VERTEX
  8
0
 10
2600
 20
0
 42
-0
  0
VERTEX
  8
0
 10
2600
 20
1600
 42
-0
  0
VERTEX
  8
0
 10
0
 20
1600
 42
-0
  0
SEQEND
  0
POLYLINE
  8
0
 10
0
 20
0
 39
0
 70
1
 66
1
  0
VERTEX
  8
0
 10
592.5396728515625
 20
219.15632629394531
 42
1
  0
VERTEX
  8
0
 10
297.53970336914062
 20
219.15632629394531
 42
1
  0
SEQEND
  0
POLYLINE
  8
0
 10
0
 20
0
 39
0
 70
1
 66
1
  0
VERTEX
  8
0
 10
525.0396728515625
 20
219.15632629394531
 42
-1
  0
VERTEX
  8
0
 10
365.03970336914062
 20
219.15632629394531
 42
-1
  0
SEQEND
  0
POLYLINE
  8
0
 10
0
 20
0
 39
0
 70
1
 66
1
  0
VERTEX
  8
0
 10
866.04998779296875
 20
440.04998779296875
 42
1
  0
VERTEX
  8
0
 10
14.04998779296875
 20
440.04998779296875
 42
1
  0
SEQEND
  0
POLYLINE
  8
0
 10
0
 20
0
 39
0
 70
1
 66
1
  0
VERTEX
  8
0
 10
822.54998779296875
 20
440.04998779296875
 42
-1
  0
VERTEX
  8
0
 10
57.54998779296875
 20
440.04998779296875
 42
-1
  0
SEQEND
  0
POLYLINE
  8
0
 10
0
 20
0
 39
0
 70
1
 66
1
  0
VERTEX
  8
0
 10
365.57742309570312
 20
448.7315673828125
 42
1
  0
VERTEX
  8
0
 10
70.577423095703125
 20
448.7315673828125
 42
1
  0
SEQEND
  0
POLYLINE
  8
0
 10
0
 20
0
 39
0
 70
1
 66
1
  0
VERTEX
  8
0
 10
298.07742309570312
 20
448.7315673828125
 42
-1
  0
VERTEX
  8
0
 10
138.07742309570312
 20
448.7315673828125
 42
-1
  0
SEQEND
  0
POLYLINE
  8
0
 10
0
 20
0
 39
0
 70
1
 66
1
  0
VERTEX
  8
0
 10
309.05001831054687
 20
957.3948974609375
 42
1
  0
VERTEX
  8
0
 10
14.050018310546875
 20
957.3948974609375
 42
1
  0
SEQEND
  0
POLYLINE
  8
0
 10
0
 20
0
 39
0
 70
1
 66
1
  0
VERTEX
  8
0
 10
241.55001831054687
 20
957.3948974609375
 42
-1
  0
VERTEX
  8
0
 10
81.550018310546875
 20
957.3948974609375
 42
-1
  0
SEQEND
  0
POLYLINE
  8
0
 10
0
 20
0
 39
0
 70
1
 66
1
  0
VERTEX
  8
0
 10
1021.6870727539062
 20
838.3988037109375
 42
1
  0
VERTEX
  8
0
 10
726.68707275390625
 20
838.3988037109375
 42
1
  0
SEQEND
  0
POLYLINE
  8
0
 10
0
 20
0
 39
0
 70
1
 66
1
  0
VERTEX
  8
0
 10
954.18707275390625
 20
838.3988037109375
 42
-1
  0
VERTEX
  8
0
 10
794.18707275390625
 20
838.3988037109375
 42
-1
  0
SEQEND
  0
POLYLINE
  8
0
 10
0
 20
0
 39
0
 70
1
 66
1
  0
VERTEX
  8
0
 10
309.05001831054687
 20
1438.449951171875
 42
1
  0
VERTEX
  8
0
 10
14.050018310546875
 20
1438.449951171875
 42
1
  0
SEQEND
  0
POLYLINE
  8
0
 10
0
 20
0
 39
0
 70
1
 66
1
  0
VERTEX
  8
0
 10
241.55001831054687
 20
1438.449951171875
 42
-1
  0
VERTEX
  8
0
 10
81.550018310546875
 20
1438.449951171875
 42
-1
  0
SEQEND
  0
POLYLINE
  8
0
 10
0
 20
0
 39
0
 70
1
 66
1
  0
VERTEX
  8
0
 10
2525.893310546875
 20
742.8829345703125
 42
1
  0
VERTEX
  8
0
 10
2230.893310546875
 20
742.8829345703125
 42
1
  0
SEQEND
  0
POLYLINE
  8
0
 10
0
 20
0
 39
0
 70
1
 66
1
  0
VERTEX
  8
0
 10
2458.393310546875
 20
742.8829345703125
 42
-1
  0
VERTEX
  8
0
 10
2298.393310546875
 20
742.8829345703125
 42
-1
  0
SEQEND
  0
POLYLINE
  8
0
 10
0
 20
0
 39
0
 70
1
 66
1
  0
VERTEX
  8
0
 10
592.5396728515625
 20
660.94366455078125
 42
1
  0
VERTEX
  8
0
 10
297.53970336914062
 20
660.94366455078125
 42
1
  0
SEQEND
  0
POLYLINE
  8
0
 10
0
 20
0
 39
0
 70
1
 66
1
  0
VERTEX
  8
0
 10
525.0396728515625
 20
660.94366455078125
 42
-1
  0
VERTEX
  8
0
 10
365.03970336914062
 20
660.94366455078125
 42
-1
  0
SEQEND
  0
POLYLINE
  8
0
 10
0
 20
0
 39
0
 70
1
 66
1
  0
VERTEX
  8
0
 10
807.892822265625
 20
437.7528076171875
 42
1
  0
VERTEX
  8
0
 10
512.892822265625
 20
437.7528076171875
 42
1
  0
SEQEND
  0
POLYLINE
  8
0
 10
0
 20
0
 39
0
 70
1
 66
1
  0
VERTEX
  8
0
 10
740.392822265625
 20
437.7528076171875
 42
-1
  0
VERTEX
  8
0
 10
580.392822265625
 20
437.7528076171875
 42
-1
  0
SEQEND
  0
POLYLINE
  8
0
 10
0
 20
0
 39
0
 70
1
 66
1
  0
VERTEX
  8
0
 10
1458.5496826171875
 20
219.15632629394531
 42
1
  0
VERTEX
  8
0
 10
1163.5496826171875
 20
219.15632629394531
 42
1
  0
SEQEND
  0
POLYLINE
  8
0
 10
0
 20
0
 39
0
 70
1
 66
1
  0
VERTEX
  8
0
 10
1391.0496826171875
 20
219.15632629394531
 42
-1
  0
VERTEX
  8
0
 10
1231.0496826171875
 20
219.15632629394531
 42
-1
  0
SEQEND
  0
POLYLINE
  8
0
 10
0
 20
0
 39
0
 70
1
 66
1
  0
VERTEX
  8
0
 10
1732.06005859375
 20
440.04998779296875
 42
1
  0
VERTEX
  8
0
 10
880.06005859375
 20
440.04998779296875
 42
1
  0
SEQEND
  0
POLYLINE
  8
0
 10
0
 20
0
 39
0
 70
1
 66
1
  0
VERTEX
  8
0
 10
1688.56005859375
 20
440.04998779296875
 42
-1
  0
VERTEX
  8
0
 10
923.56005859375
 20
440.04998779296875
 42
-1
  0
SEQEND
  0
POLYLINE
  8
0
 10
0
 20
0
 39
0
 70
1
 66
1
  0
VERTEX
  8
0
 10
1231.58740234375
 20
448.7315673828125
 42
1
  0
VERTEX
  8
0
 10
936.58740234375
 20
448.7315673828125
 42
1
  0
SEQEND
  0
POLYLINE
  8
0
 10
0
 20
0
 39
0
 70
1
 66
1
  0
VERTEX
  8
0
 10
1164.08740234375
 20
448.7315673828125
 42
-1
  0
VERTEX
  8
0
 10
1004.08740234375
 20
448.7315673828125
 42
-1
  0
SEQEND
  0
POLYLINE
  8
0
 10
0
 20
0
 39
0
 70
1
 66
1
  0
VERTEX
  8
0
 10
1458.5496826171875
 20
660.94366455078125
 42
1
  0
VERTEX
  8
0
 10
1163.5496826171875
 20
660.94366455078125
 42
1
  0
SEQEND
  0
POLYLINE
  8
0
 10
0
 20
0
 39
0
 70
1
 66
1
  0
VERTEX
  8
0
 10
1391.0496826171875
 20
660.94366455078125
 42
-1
  0
VERTEX
  8
0
 10
1231.0496826171875
 20
660.94366455078125
 42
-1
  0
SEQEND
  0
POLYLINE
  8
0
 10
0
 20
0
 39
0
 70
1
 66
1
  0
VERTEX
  8
0
 10
1673.90283203125
 20
437.7528076171875
 42
1
  0
VERTEX
  8
0
 10
1378.90283203125
 20
437.7528076171875
 42
1
  0
SEQEND
  0
POLYLINE
  8
0
 10
0
 20
0
 39
0
 70
1
 66
1
  0
VERTEX
  8
0
 10
1606.40283203125
 20
437.7528076171875
 42
-1
  0
VERTEX
  8
0
 10
1446.40283203125
 20
437.7528076171875
 42
-1
  0
SEQEND
  0
POLYLINE
  8
0
 10
0
 20
0
 39
0
 70
1
 66
1
  0
VERTEX
  8
0
 10
618.05999755859375
 20
1438.449951171875
 42
1
  0
VERTEX
  8
0
 10
323.05999755859375
 20
1438.449951171875
 42
1
  0
SEQEND
  0
POLYLINE
  8
0
 10
0
 20
0
 39
0
 70
1
 66
1
  0
VERTEX
  8
0
 10
550.55999755859375
 20
1438.449951171875
 42
-1
  0
VERTEX
  8
0
 10
390.55999755859375
 20
1438.449951171875
 42
-1
  0
SEQEND
  0
POLYLINE
  8
0
 10
0
 20
0
 39
0
 70
1
 66
1
  0
VERTEX
  8
0
 10
927.070068359375
 20
1438.449951171875
 42
1
  0
VERTEX
  8
0
 10
632.070068359375
 20
1438.449951171875
 42
1
  0
SEQEND
  0
POLYLINE
  8
0
 10
0
 20
0
 39
0
 70
1
 66
1
  0
VERTEX
  8
0
 10
859.570068359375
 20
1438.449951171875
 42
-1
  0
VERTEX
  8
0
 10
699.570068359375
 20
1438.449951171875
 42
-1
  0
SEQEND
  0
POLYLINE
  8
0
 10
0
 20
0
 39
0
 70
1
 66
1
  0
VERTEX
  8
0
 10
1236.080078125
 20
1438.449951171875
 42
1
  0
VERTEX
  8
0
 10
941.080078125
 20
1438.449951171875
 42
1
  0
SEQEND
  0
POLYLINE
  8
0
 10
0
 20
0
 39
0
 70
1
 66
1
  0
VERTEX
  8
0
 10
1168.580078125
 20
1438.449951171875
 42
-1
  0
VERTEX
  8
0
 10
1008.580078125
 20
1438.449951171875
 42
-1
  0
SEQEND
  0
POLYLINE
  8
0
 10
0
 20
0
 39
0
 70
1
 66
1
  0
VERTEX
  8
0
 10
1545.0899658203125
 20
1438.449951171875
 42
1
  0
VERTEX
  8
0
 10
1250.0899658203125
 20
1438.449951171875
 42
1
  0
SEQEND
  0
POLYLINE
  8
0
 10
0
 20
0
 39
0
 70
1
 66
1
  0
VERTEX
  8
0
 10
1477.5899658203125
 20
1438.449951171875
 42
-1
  0
VERTEX
  8
0
 10
1317.5899658203125
 20
1438.449951171875
 42
-1
  0
SEQEND
  0
POLYLINE
  8
0
 10
0
 20
0
 39
0
 70
1
 66
1
  0
VERTEX
  8
0
 10
1854.0999755859375
 20
1438.449951171875
 42
1
  0
VERTEX
  8
0
 10
1559.0999755859375
 20
1438.449951171875
 42
1
  0
SEQEND
  0
POLYLINE
  8
0
 10
0
 20
0
 39
0
 70
1
 66
1
  0
VERTEX
  8
0
 10
1786.5999755859375
 20
1438.449951171875
 42
-1
  0
VERTEX
  8
0
 10
1626.5999755859375
 20
1438.449951171875
 42
-1
  0
SEQEND
  0
POLYLINE
  8
0
 10
0
 20
0
 39
0
 70
1
 66
1
  0
VERTEX
  8
0
 10
2163.110107421875
 20
1438.449951171875
 42
1
  0
VERTEX
  8
0
 10
1868.110107421875
 20
1438.449951171875
 42
1
  0
SEQEND
  0
POLYLINE
  8
0
 10
0
 20
0
 39
0
 70
1
 66
1
  0
VERTEX
  8
0
 10
2095.610107421875
 20
1438.449951171875
 42
-1
  0
VERTEX
  8
0
 10
1935.610107421875
 20
1438.449951171875
 42
-1
  0
SEQEND
  0
POLYLINE
  8
0
 10
0
 20
0
 39
0
 70
1
 66
1
  0
VERTEX
  8
0
 10
874.30975341796875
 20
1132.297119140625
 42
1
  0
VERTEX
  8
0
 10
579.30975341796875
 20
1132.297119140625
 42
1
  0
SEQEND
  0
POLYLINE
  8
0
 10
0
 20
0
 39
0
 70
1
 66
1
  0
VERTEX
  8
0
 10
806.80975341796875
 20
1132.297119140625
 42
-1
  0
VERTEX
  8
0
 10
646.80975341796875
 20
1132.297119140625
 42
-1
  0
SEQEND
  0
POLYLINE
  8
0
 10
0
 20
0
 39
0
 70
1
 66
1
  0
VERTEX
  8
0
 10
565.2669677734375
 20
1130.19384765625
 42
1
  0
VERTEX
  8
0
 10
270.26699829101562
 20
1130.19384765625
 42
1
  0
SEQEND
  0
POLYLINE
  8
0
 10
0
 20
0
 39
0
 70
1
 66
1
  0
VERTEX
  8
0
 10
497.76699829101562
 20
1130.19384765625
 42
-1
  0
VERTEX
  8
0
 10
337.76699829101562
 20
1130.19384765625
 42
-1
  0
SEQEND
  0
POLYLINE
  8
0
 10
0
 20
0
 39
0
 70
1
 66
1
  0
VERTEX
  8
0
 10
1183.3548583984375
 20
1130.55908203125
 42
1
  0
VERTEX
  8
0
 10
888.3548583984375
 20
1130.55908203125
 42
1
  0
SEQEND
  0
POLYLINE
  8
0
 10
0
 20
0
 39
0
 70
1
 66
1
  0
VERTEX
  8
0
 10
1115.8548583984375
 20
1130.55908203125
 42
-1
  0
VERTEX
  8
0
 10
955.8548583984375
 20
1130.55908203125
 42
-1
  0
SEQEND
  0
POLYLINE
  8
0
 10
0
 20
0
 39
0
 70
1
 66
1
  0
VERTEX
  8
0
 10
1491.6524658203125
 20
1026.3170166015625
 42
1
  0
VERTEX
  8
0
 10
1196.6524658203125
 20
1026.3170166015625
 42
1
  0
SEQEND
  0
POLYLINE
  8
0
 10
0
 20
0
 39
0
 70
1
 66
1
  0
VERTEX
  8
0
 10
1424.1524658203125
 20
1026.3170166015625
 42
-1
  0
VERTEX
  8
0
 10
1264.1524658203125
 20
1026.3170166015625
 42
-1
  0
SEQEND
  0
POLYLINE
  8
0
 10
0
 20
0
 39
0
 70
1
 66
1
  0
VERTEX
  8
0
 10
1781.357666015625
 20
1138.084228515625
 42
1
  0
VERTEX
  8
0
 10
1486.357666015625
 20
1138.084228515625
 42
1
  0
SEQEND
  0
POLYLINE
  8
0
 10
0
 20
0
 39
0
 70
1
 66
1
  0
VERTEX
  8
0
 10
1713.857666015625
 20
1138.084228515625
 42
-1
  0
VERTEX
  8
0
 10
1553.857666015625
 20
1138.084228515625
 42
-1
  0
SEQEND
  0
POLYLINE
  8
0
 10
0
 20
0
 39
0
 70
1
 66
1
  0
VERTEX
  8
0
 10
2090.31591796875
 20
1130.55908203125
 42
1
  0
VERTEX
  8
0
 10
1795.3160400390625
 20
1130.55908203125
 42
1
  0
SEQEND
  0
POLYLINE
  8
0
 10
0
 20
0
 39
0
 70
1
 66
1
  0
VERTEX
  8
0
 10
2022.8160400390625
 20
1130.55908203125
 42
-1
  0
VERTEX
  8
0
 10
1862.8160400390625
 20
1130.55908203125
 42
-1
  0
SEQEND
  0
POLYLINE
  8
0
 10
0
 20
0
 39
0
 70
1
 66
1
  0
VERTEX
  8
0
 10
1970.9049072265625
 20
161.55000305175781
 42
1
  0
VERTEX
  8
0
 10
1675.9049072265625
 20
161.55000305175781
 42
1
  0
SEQEND
  0
POLYLINE
  8
0
 10
0
 20
0
 39
0
 70
1
 66
1
  0
VERTEX
  8
0
 10
1903.4049072265625
 20
161.55000305175781
 42
-1
  0
VERTEX
  8
0
 10
1743.4049072265625
 20
161.55000305175781
 42
-1
  0
SEQEND
  0
POLYLINE
  8
0
 10
0
 20
0
 39
0
 70
1
 66
1
  0
VERTEX
  8
0
 10
1889.969482421875
 20
833.4285888671875
 42
1
  0
VERTEX
  8
0
 10
1594.969482421875
 20
833.4285888671875
 42
1
  0
SEQEND
  0
POLYLINE
  8
0
 10
0
 20
0
 39
0
 70
1
 66
1
  0
VERTEX
  8
0
 10
1822.469482421875
 20
833.4285888671875
 42
-1
  0
VERTEX
  8
0
 10
1662.469482421875
 20
833.4285888671875
 42
-1
  0
SEQEND
  0
POLYLINE
  8
0
 10
0
 20
0
 39
0
 70
1
 66
1
  0
VERTEX
  8
0
 10
2279.914794921875
 20
161.55000305175781
 42
1
  0
VERTEX
  8
0
 10
1984.914794921875
 20
161.55000305175781
 42
1
  0
SEQEND
  0
POLYLINE
  8
0
 10
0
 20
0
 39
0
 70
1
 66
1
  0
VERTEX
  8
0
 10
2212.414794921875
 20
161.55000305175781
 42
-1
  0
VERTEX
  8
0
 10
2052.414794921875
 20
161.55000305175781
 42
-1
  0
SEQEND
  0
POLYLINE
  8
0
 10
0
 20
0
 39
0
 70
1
 66
1
  0
VERTEX
  8
0
 10
2040.0391845703125
 20
474.72119140625
 42
1
  0
VERTEX
  8
0
 10
1745.0391845703125
 20
474.72119140625
 42
1
  0
SEQEND
  0
POLYLINE
  8
0
 10
0
 20
0
 39
0
 70
1
 66
1
  0
VERTEX
  8
0
 10
1972.5391845703125
 20
474.72119140625
 42
-1
  0
VERTEX
  8
0
 10
1812.5391845703125
 20
474.72119140625
 42
-1
  0
SEQEND
  0
POLYLINE
  8
0
 10
0
 20
0
 39
0
 70
1
 66
1
  0
VERTEX
  8
0
 10
2189.70166015625
 20
758.1190185546875
 42
1
  0
VERTEX
  8
0
 10
1894.7017822265625
 20
758.1190185546875
 42
1
  0
SEQEND
  0
POLYLINE
  8
0
 10
0
 20
0
 39
0
 70
1
 66
1
  0
VERTEX
  8
0
 10
2122.20166015625
 20
758.1190185546875
 42
-1
  0
VERTEX
  8
0
 10
1962.2017822265625
 20
758.1190185546875
 42
-1
  0
SEQEND
  0
POLYLINE
  8
0
 10
0
 20
0
 39
0
 70
1
 66
1
  0
VERTEX
  8
0
 10
2376.2314453125
 20
1013.248046875
 42
1
  0
VERTEX
  8
0
 10
2081.2314453125
 20
1013.248046875
 42
1
  0
SEQEND
  0
POLYLINE
  8
0
 10
0
 20
0
 39
0
 70
1
 66
1
  0
VERTEX
  8
0
 10
2308.7314453125
 20
1013.248046875
 42
-1
  0
VERTEX
  8
0
 10
2148.7314453125
 20
1013.248046875
 42
-1
  0
SEQEND
  0
POLYLINE
  8
0
 10
0
 20
0
 39
0
 70
1
 66
1
  0
VERTEX
  8
0
 10
2349.061279296875
 20
470.55999755859375
 42
1
  0
VERTEX
  8
0
 10
2054.061279296875
 20
470.55999755859375
 42
1
  0
SEQEND
  0
POLYLINE
  8
0
 10
0
 20
0
 39
0
 70
1
 66
1
  0
VERTEX
  8
0
 10
2281.561279296875
 20
470.55999755859375
 42
-1
  0
VERTEX
  8
0
 10
2121.561279296875
 20
470.55999755859375
 42
-1
  0
SEQEND
  0
POLYLINE
  8
0
 10
0
 20
0
 39
0
 70
1
 66
1
  0
VERTEX
  8
0
 10
2472.16015625
 20
1438.449951171875
 42
1
  0
VERTEX
  8
0
 10
2177.16015625
 20
1438.449951171875
 42
1
  0
SEQEND
  0
POLYLINE
  8
0
 10
0
 20
0
 39
0
 70
1
 66
1
  0
VERTEX
  8
0
 10
2404.66015625
 20
1438.449951171875
 42
-1
  0
VERTEX
  8
0
 10
2244.66015625
 20
1438.449951171875
 42
-1
  0
SEQEND
  0
ENDSEC
  0
EOF
