  0
SECTION
  2
ENTITIES
  0
POLYLINE
  8
0
 10
0
 20
0
 39
0
 70
1
 66
1
  0
VERTEX
  8
0
 10
0
 20
0
 42
0
  0
VERTEX
  8
0
 10
3600
 20
0
 42
0
  0
VERTEX
  8
0
 10
3600
 20
1500
 42
0
  0
VERTEX
  8
0
 10
0
 20
1500
 42
0
  0
SEQEND
  0
POLYLINE
  8
0
 10
0
 20
0
 39
0
 70
1
 66
1
  0
VERTEX
  8
0
 10
510.5384521484375
 20
1010.5384521484375
 42
0
  0
VERTEX
  8
0
 10
10.538461685180664
 20
1010.5384521484375
 42
0
  0
VERTEX
  8
0
 10
10.538461685180664
 20
10.538461685180664
 42
0
  0
VERTEX
  8
0
 10
510.5384521484375
 20
10.538461685180664
 42
0
  0
SEQEND
  0
POLYLINE
  8
0
 10
0
 20
0
 39
0
 70
1
 66
1
  0
VERTEX
  8
0
 10
260.5384521484375
 20
353.5384521484375
 42
-1
  0
VERTEX
  8
0
 10
260.5384521484375
 20
667.5384521484375
 42
-1
  0
SEQEND
  0
POLYLINE
  8
0
 10
0
 20
0
 39
0
 70
1
 66
1
  0
VERTEX
  8
0
 10
363.5384521484375
 20
110.53845977783203
 42
-0
  0
VERTEX
  8
0
 10
133.53846740722656
 20
110.53845977783203
 42
-0
  0
VERTEX
  8
0
 10
133.53846740722656
 20
260.5384521484375
 42
0
  0
VERTEX
  8
0
 10
363.5384521484375
 20
260.5384521484375
 42
0
  0
SEQEND
  0
POLYLINE
  8
0
 10
0
 20
0
 39
0
 70
1
 66
1
  0
VERTEX
  8
0
 10
363.5384521484375
 20
910.5384521484375
 42
-0
  0
VERTEX
  8
0
 10
363.5384521484375
 20
760.5384521484375
 42
-0
  0
VERTEX
  8
0
 10
133.53846740722656
 20
760.5384521484375
 42
0
  0
VERTEX
  8
0
 10
133.53846740722656
 20
910.5384521484375
 42
0
  0
SEQEND
  0
POLYLINE
  8
0
 10
0
 20
0
 39
0
 70
1
 66
1
  0
VERTEX
  8
0
 10
1020.90771484375
 20
1010.5384521484375
 42
0
  0
VERTEX
  8
0
 10
520.90771484375
 20
1010.5384521484375
 42
0
  0
VERTEX
  8
0
 10
520.90771484375
 20
10.538461685180664
 42
0
  0
VERTEX
  8
0
 10
1020.90771484375
 20
10.538461685180664
 42
0
  0
SEQEND
  0
POLYLINE
  8
0
 10
0
 20
0
 39
0
 70
1
 66
1
  0
VERTEX
  8
0
 10
770.90771484375
 20
353.5384521484375
 42
-1
  0
VERTEX
  8
0
 10
770.90771484375
 20
667.5384521484375
 42
-1
  0
SEQEND
  0
POLYLINE
  8
0
 10
0
 20
0
 39
0
 70
1
 66
1
  0
VERTEX
  8
0
 10
873.90771484375
 20
110.53845977783203
 42
-0
  0
VERTEX
  8
0
 10
643.90771484375
 20
110.53845977783203
 42
-0
  0
VERTEX
  8
0
 10
643.90771484375
 20
260.5384521484375
 42
0
  0
VERTEX
  8
0
 10
873.90771484375
 20
260.5384521484375
 42
0
  0
SEQEND
  0
POLYLINE
  8
0
 10
0
 20
0
 39
0
 70
1
 66
1
  0
VERTEX
  8
0
 10
873.90771484375
 20
910.5384521484375
 42
-0
  0
VERTEX
  8
0
 10
873.90771484375
 20
760.5384521484375
 42
-0
  0
VERTEX
  8
0
 10
643.90771484375
 20
760.5384521484375
 42
0
  0
VERTEX
  8
0
 10
643.90771484375
 20
910.5384521484375
 42
0
  0
SEQEND
  0
POLYLINE
  8
0
 10
0
 20
0
 39
0
 70
1
 66
1
  0
VERTEX
  8
0
 10
1531.2769775390625
 20
1010.5384521484375
 42
0
  0
VERTEX
  8
0
 10
1031.2769775390625
 20
1010.5384521484375
 42
0
  0
VERTEX
  8
0
 10
1031.2769775390625
 20
10.538461685180664
 42
0
  0
VERTEX
  8
0
 10
1531.2769775390625
 20
10.538461685180664
 42
0
  0
SEQEND
  0
POLYLINE
  8
0
 10
0
 20
0
 39
0
 70
1
 66
1
  0
VERTEX
  8
0
 10
1281.2769775390625
 20
353.5384521484375
 42
-1
  0
VERTEX
  8
0
 10
1281.2769775390625
 20
667.5384521484375
 42
-1
  0
SEQEND
  0
POLYLINE
  8
0
 10
0
 20
0
 39
0
 70
1
 66
1
  0
VERTEX
  8
0
 10
1384.2769775390625
 20
110.53845977783203
 42
-0
  0
VERTEX
  8
0
 10
1154.2769775390625
 20
110.53845977783203
 42
-0
  0
VERTEX
  8
0
 10
1154.2769775390625
 20
260.5384521484375
 42
0
  0
VERTEX
  8
0
 10
1384.2769775390625
 20
260.5384521484375
 42
0
  0
SEQEND
  0
POLYLINE
  8
0
 10
0
 20
0
 39
0
 70
1
 66
1
  0
VERTEX
  8
0
 10
1384.2769775390625
 20
910.5384521484375
 42
-0
  0
VERTEX
  8
0
 10
1384.2769775390625
 20
760.5384521484375
 42
-0
  0
VERTEX
  8
0
 10
1154.2769775390625
 20
760.5384521484375
 42
0
  0
VERTEX
  8
0
 10
1154.2769775390625
 20
910.5384521484375
 42
0
  0
SEQEND
  0
POLYLINE
  8
0
 10
0
 20
0
 39
0
 70
1
 66
1
  0
VERTEX
  8
0
 10
2041.6461181640625
 20
1010.5384521484375
 42
0
  0
VERTEX
  8
0
 10
1541.6461181640625
 20
1010.5384521484375
 42
0
  0
VERTEX
  8
0
 10
1541.6461181640625
 20
10.538461685180664
 42
0
  0
VERTEX
  8
0
 10
2041.6461181640625
 20
10.538461685180664
 42
0
  0
SEQEND
  0
POLYLINE
  8
0
 10
0
 20
0
 39
0
 70
1
 66
1
  0
VERTEX
  8
0
 10
1791.6461181640625
 20
353.5384521484375
 42
-1
  0
VERTEX
  8
0
 10
1791.6461181640625
 20
667.5384521484375
 42
-1
  0
SEQEND
  0
POLYLINE
  8
0
 10
0
 20
0
 39
0
 70
1
 66
1
  0
VERTEX
  8
0
 10
1894.6461181640625
 20
110.53845977783203
 42
-0
  0
VERTEX
  8
0
 10
1664.6461181640625
 20
110.53845977783203
 42
-0
  0
VERTEX
  8
0
 10
1664.6461181640625
 20
260.5384521484375
 42
0
  0
VERTEX
  8
0
 10
1894.6461181640625
 20
260.5384521484375
 42
0
  0
SEQEND
  0
POLYLINE
  8
0
 10
0
 20
0
 39
0
 70
1
 66
1
  0
VERTEX
  8
0
 10
1894.6461181640625
 20
910.5384521484375
 42
-0
  0
VERTEX
  8
0
 10
1894.6461181640625
 20
760.5384521484375
 42
-0
  0
VERTEX
  8
0
 10
1664.6461181640625
 20
760.5384521484375
 42
0
  0
VERTEX
  8
0
 10
1664.6461181640625
 20
910.5384521484375
 42
0
  0
SEQEND
  0
POLYLINE
  8
0
 10
0
 20
0
 39
0
 70
1
 66
1
  0
VERTEX
  8
0
 10
2552.015380859375
 20
1010.5384521484375
 42
0
  0
VERTEX
  8
0
 10
2052.015380859375
 20
1010.5384521484375
 42
0
  0
VERTEX
  8
0
 10
2052.015380859375
 20
10.538461685180664
 42
0
  0
VERTEX
  8
0
 10
2552.015380859375
 20
10.538461685180664
 42
0
  0
SEQEND
  0
POLYLINE
  8
0
 10
0
 20
0
 39
0
 70
1
 66
1
  0
VERTEX
  8
0
 10
2302.015380859375
 20
353.5384521484375
 42
-1
  0
VERTEX
  8
0
 10
2302.015380859375
 20
667.5384521484375
 42
-1
  0
SEQEND
  0
POLYLINE
  8
0
 10
0
 20
0
 39
0
 70
1
 66
1
  0
VERTEX
  8
0
 10
2405.015380859375
 20
110.53845977783203
 42
-0
  0
VERTEX
  8
0
 10
2175.015380859375
 20
110.53845977783203
 42
-0
  0
VERTEX
  8
0
 10
2175.015380859375
 20
260.5384521484375
 42
0
  0
VERTEX
  8
0
 10
2405.015380859375
 20
260.5384521484375
 42
0
  0
SEQEND
  0
POLYLINE
  8
0
 10
0
 20
0
 39
0
 70
1
 66
1
  0
VERTEX
  8
0
 10
2405.015380859375
 20
910.5384521484375
 42
-0
  0
VERTEX
  8
0
 10
2405.015380859375
 20
760.5384521484375
 42
-0
  0
VERTEX
  8
0
 10
2175.015380859375
 20
760.5384521484375
 42
0
  0
VERTEX
  8
0
 10
2175.015380859375
 20
910.5384521484375
 42
0
  0
SEQEND
  0
POLYLINE
  8
0
 10
0
 20
0
 39
0
 70
1
 66
1
  0
VERTEX
  8
0
 10
3062.384521484375
 20
1010.5384521484375
 42
0
  0
VERTEX
  8
0
 10
2562.384521484375
 20
1010.5384521484375
 42
0
  0
VERTEX
  8
0
 10
2562.384521484375
 20
10.538461685180664
 42
0
  0
VERTEX
  8
0
 10
3062.384521484375
 20
10.538461685180664
 42
0
  0
SEQEND
  0
POLYLINE
  8
0
 10
0
 20
0
 39
0
 70
1
 66
1
  0
VERTEX
  8
0
 10
2812.384521484375
 20
353.5384521484375
 42
-1
  0
VERTEX
  8
0
 10
2812.384521484375
 20
667.5384521484375
 42
-1
  0
SEQEND
  0
POLYLINE
  8
0
 10
0
 20
0
 39
0
 70
1
 66
1
  0
VERTEX
  8
0
 10
2915.384521484375
 20
110.53845977783203
 42
-0
  0
VERTEX
  8
0
 10
2685.384521484375
 20
110.53845977783203
 42
-0
  0
VERTEX
  8
0
 10
2685.384521484375
 20
260.5384521484375
 42
0
  0
VERTEX
  8
0
 10
2915.384521484375
 20
260.5384521484375
 42
0
  0
SEQEND
  0
POLYLINE
  8
0
 10
0
 20
0
 39
0
 70
1
 66
1
  0
VERTEX
  8
0
 10
2915.384521484375
 20
910.5384521484375
 42
-0
  0
VERTEX
  8
0
 10
2915.384521484375
 20
760.5384521484375
 42
-0
  0
VERTEX
  8
0
 10
2685.384521484375
 20
760.5384521484375
 42
0
  0
VERTEX
  8
0
 10
2685.384521484375
 20
910.5384521484375
 42
0
  0
SEQEND
  0
POLYLINE
  8
0
 10
0
 20
0
 39
0
 70
1
 66
1
  0
VERTEX
  8
0
 10
3572.75390625
 20
1010.5384521484375
 42
0
  0
VERTEX
  8
0
 10
3072.75390625
 20
1010.5384521484375
 42
0
  0
VERTEX
  8
0
 10
3072.75390625
 20
10.538461685180664
 42
0
  0
VERTEX
  8
0
 10
3572.75390625
 20
10.538461685180664
 42
0
  0
SEQEND
  0
POLYLINE
  8
0
 10
0
 20
0
 39
0
 70
1
 66
1
  0
VERTEX
  8
0
 10
3322.75390625
 20
353.5384521484375
 42
-1
  0
VERTEX
  8
0
 10
3322.75390625
 20
667.5384521484375
 42
-1
  0
SEQEND
  0
POLYLINE
  8
0
 10
0
 20
0
 39
0
 70
1
 66
1
  0
VERTEX
  8
0
 10
3425.75390625
 20
110.53845977783203
 42
-0
  0
VERTEX
  8
0
 10
3195.75390625
 20
110.53845977783203
 42
-0
  0
VERTEX
  8
0
 10
3195.75390625
 20
260.5384521484375
 42
0
  0
VERTEX
  8
0
 10
3425.75390625
 20
260.5384521484375
 42
0
  0
SEQEND
  0
POLYLINE
  8
0
 10
0
 20
0
 39
0
 70
1
 66
1
  0
VERTEX
  8
0
 10
3425.75390625
 20
910.5384521484375
 42
-0
  0
VERTEX
  8
0
 10
3425.75390625
 20
760.5384521484375
 42
-0
  0
VERTEX
  8
0
 10
3195.75390625
 20
760.5384521484375
 42
0
  0
VERTEX
  8
0
 10
3195.75390625
 20
910.5384521484375
 42
0
  0
SEQEND
  0
POLYLINE
  8
0
 10
0
 20
0
 39
0
 70
1
 66
1
  0
VERTEX
  8
0
 10
211.41111755371094
 20
1420.751953125
 42
1
  0
VERTEX
  8
0
 10
209.66580200195312
 20
1020.7557373046875
 42
1
  0
SEQEND
  0
POLYLINE
  8
0
 10
0
 20
0
 39
0
 70
1
 66
1
  0
VERTEX
  8
0
 10
211.21913146972656
 20
1376.7523193359375
 42
-1
  0
VERTEX
  8
0
 10
209.8577880859375
 20
1064.75537109375
 42
-1
  0
SEQEND
  0
POLYLINE
  8
0
 10
0
 20
0
 39
0
 70
1
 66
1
  0
VERTEX
  8
0
 10
616.549560546875
 20
1488.875
 42
1
  0
VERTEX
  8
0
 10
614.80426025390625
 20
1088.8787841796875
 42
1
  0
SEQEND
  0
POLYLINE
  8
0
 10
0
 20
0
 39
0
 70
1
 66
1
  0
VERTEX
  8
0
 10
616.35760498046875
 20
1444.87548828125
 42
-1
  0
VERTEX
  8
0
 10
614.9962158203125
 20
1132.87841796875
 42
-1
  0
SEQEND
  0
POLYLINE
  8
0
 10
0
 20
0
 39
0
 70
1
 66
1
  0
VERTEX
  8
0
 10
1021.6880493164062
 20
1420.751953125
 42
1
  0
VERTEX
  8
0
 10
1019.9427490234375
 20
1020.7557373046875
 42
1
  0
SEQEND
  0
POLYLINE
  8
0
 10
0
 20
0
 39
0
 70
1
 66
1
  0
VERTEX
  8
0
 10
1021.4960327148437
 20
1376.7523193359375
 42
-1
  0
VERTEX
  8
0
 10
1020.1347045898437
 20
1064.75537109375
 42
-1
  0
SEQEND
  0
POLYLINE
  8
0
 10
0
 20
0
 39
0
 70
1
 66
1
  0
VERTEX
  8
0
 10
1426.8265380859375
 20
1488.875
 42
1
  0
VERTEX
  8
0
 10
1425.0811767578125
 20
1088.8787841796875
 42
1
  0
SEQEND
  0
POLYLINE
  8
0
 10
0
 20
0
 39
0
 70
1
 66
1
  0
VERTEX
  8
0
 10
1426.634521484375
 20
1444.87548828125
 42
-1
  0
VERTEX
  8
0
 10
1425.273193359375
 20
1132.87841796875
 42
-1
  0
SEQEND
  0
POLYLINE
  8
0
 10
0
 20
0
 39
0
 70
1
 66
1
  0
VERTEX
  8
0
 10
1831.9649658203125
 20
1420.751953125
 42
1
  0
VERTEX
  8
0
 10
1830.2196044921875
 20
1020.7557373046875
 42
1
  0
SEQEND
  0
POLYLINE
  8
0
 10
0
 20
0
 39
0
 70
1
 66
1
  0
VERTEX
  8
0
 10
1831.77294921875
 20
1376.7523193359375
 42
-1
  0
VERTEX
  8
0
 10
1830.41162109375
 20
1064.75537109375
 42
-1
  0
SEQEND
  0
POLYLINE
  8
0
 10
0
 20
0
 39
0
 70
1
 66
1
  0
VERTEX
  8
0
 10
2237.103515625
 20
1488.875
 42
1
  0
VERTEX
  8
0
 10
2235.358154296875
 20
1088.8787841796875
 42
1
  0
SEQEND
  0
POLYLINE
  8
0
 10
0
 20
0
 39
0
 70
1
 66
1
  0
VERTEX
  8
0
 10
2236.911376953125
 20
1444.87548828125
 42
-1
  0
VERTEX
  8
0
 10
2235.550048828125
 20
1132.87841796875
 42
-1
  0
SEQEND
  0
POLYLINE
  8
0
 10
0
 20
0
 39
0
 70
1
 66
1
  0
VERTEX
  8
0
 10
2642.241943359375
 20
1420.751953125
 42
1
  0
VERTEX
  8
0
 10
2640.49658203125
 20
1020.7557373046875
 42
1
  0
SEQEND
  0
POLYLINE
  8
0
 10
0
 20
0
 39
0
 70
1
 66
1
  0
VERTEX
  8
0
 10
2642.0498046875
 20
1376.7523193359375
 42
-1
  0
VERTEX
  8
0
 10
2640.6884765625
 20
1064.75537109375
 42
-1
  0
SEQEND
  0
POLYLINE
  8
0
 10
0
 20
0
 39
0
 70
1
 66
1
  0
VERTEX
  8
0
 10
3047.38037109375
 20
1488.875
 42
1
  0
VERTEX
  8
0
 10
3045.635009765625
 20
1088.8787841796875
 42
1
  0
SEQEND
  0
POLYLINE
  8
0
 10
0
 20
0
 39
0
 70
1
 66
1
  0
VERTEX
  8
0
 10
3047.1884765625
 20
1444.87548828125
 42
-1
  0
VERTEX
  8
0
 10
3045.826904296875
 20
1132.87841796875
 42
-1
  0
SEQEND
  0
POLYLINE
  8
0
 10
0
 20
0
 39
0
 70
1
 66
1
  0
VERTEX
  8
0
 10
3427.063720703125
 20
1094.146484375
 42
-0
  0
VERTEX
  8
0
 10
3431.046142578125
 20
1079.623046875
 42
-0
  0
VERTEX
  8
0
 10
3431.046142578125
 20
1020.7538452148437
 42
0
  0
VERTEX
  8
0
 10
3464.322998046875
 20
1020.7538452148437
 42
0
  0
VERTEX
  8
0
 10
3464.322998046875
 20
1228.0462646484375
 42
0.19170823693275452
  0
VERTEX
  8
0
 10
3405.862060546875
 20
1290.75390625
 42
-0
  0
VERTEX
  8
0
 10
3306.7841796875
 20
1290.75390625
 42
0.19170823693275452
  0
VERTEX
  8
0
 10
3248.322998046875
 20
1228.0462646484375
 42
-0
  0
VERTEX
  8
0
 10
3248.322998046875
 20
1020.7538452148437
 42
-0
  0
VERTEX
  8
0
 10
3281.60009765625
 20
1020.7538452148437
 42
0
  0
VERTEX
  8
0
 10
3281.60009765625
 20
1079.623046875
 42
0
  0
VERTEX
  8
0
 10
3285.582275390625
 20
1094.146484375
 42
0.34054654836654663
  0
SEQEND
  0
POLYLINE
  8
0
 10
0
 20
0
 39
0
 70
1
 66
1
  0
VERTEX
  8
0
 10
3411.322998046875
 20
1185.96484375
 42
-1
  0
VERTEX
  8
0
 10
3301.322998046875
 20
1185.96484375
 42
-1
  0
SEQEND
  0
POLYLINE
  8
0
 10
0
 20
0
 39
0
 70
1
 66
1
  0
VERTEX
  8
0
 10
193.58460998535156
 20
380.5076904296875
 42
0
  0
VERTEX
  8
0
 10
323.58462524414062
 20
380.5076904296875
 42
0
  0
VERTEX
  8
0
 10
323.58462524414062
 20
640.5076904296875
 42
0
  0
VERTEX
  8
0
 10
193.58460998535156
 20
640.5076904296875
 42
0
  0
SEQEND
  0
POLYLINE
  8
0
 10
0
 20
0
 39
0
 70
1
 66
1
  0
VERTEX
  8
0
 10
267.08462524414062
 20
405.5076904296875
 42
-1
  0
VERTEX
  8
0
 10
250.08460998535156
 20
405.5076904296875
 42
-1
  0
SEQEND
  0
POLYLINE
  8
0
 10
0
 20
0
 39
0
 70
1
 66
1
  0
VERTEX
  8
0
 10
310.58462524414062
 20
435.5076904296875
 42
-1
  0
VERTEX
  8
0
 10
296.58462524414062
 20
435.5076904296875
 42
-1
  0
SEQEND
  0
POLYLINE
  8
0
 10
0
 20
0
 39
0
 70
1
 66
1
  0
VERTEX
  8
0
 10
220.58460998535156
 20
435.5076904296875
 42
-1
  0
VERTEX
  8
0
 10
206.58460998535156
 20
435.5076904296875
 42
-1
  0
SEQEND
  0
POLYLINE
  8
0
 10
0
 20
0
 39
0
 70
1
 66
1
  0
VERTEX
  8
0
 10
296.58462524414062
 20
610.5076904296875
 42
-1
  0
VERTEX
  8
0
 10
310.58462524414062
 20
610.5076904296875
 42
-0
  0
VERTEX
  8
0
 10
310.58462524414062
 20
594.5076904296875
 42
-1
  0
VERTEX
  8
0
 10
296.58462524414062
 20
594.5076904296875
 42
0
  0
SEQEND
  0
POLYLINE
  8
0
 10
0
 20
0
 39
0
 70
1
 66
1
  0
VERTEX
  8
0
 10
206.58460998535156
 20
610.5076904296875
 42
-1
  0
VERTEX
  8
0
 10
220.58460998535156
 20
610.5076904296875
 42
0
  0
VERTEX
  8
0
 10
220.58460998535156
 20
594.5076904296875
 42
-1
  0
VERTEX
  8
0
 10
206.58460998535156
 20
594.5076904296875
 42
-0
  0
SEQEND
  0
POLYLINE
  8
0
 10
0
 20
0
 39
0
 70
1
 66
1
  0
VERTEX
  8
0
 10
703.953857421875
 20
380.5076904296875
 42
0
  0
VERTEX
  8
0
 10
833.953857421875
 20
380.5076904296875
 42
0
  0
VERTEX
  8
0
 10
833.953857421875
 20
640.5076904296875
 42
0
  0
VERTEX
  8
0
 10
703.953857421875
 20
640.5076904296875
 42
0
  0
SEQEND
  0
POLYLINE
  8
0
 10
0
 20
0
 39
0
 70
1
 66
1
  0
VERTEX
  8
0
 10
777.453857421875
 20
405.5076904296875
 42
-1
  0
VERTEX
  8
0
 10
760.453857421875
 20
405.5076904296875
 42
-1
  0
SEQEND
  0
POLYLINE
  8
0
 10
0
 20
0
 39
0
 70
1
 66
1
  0
VERTEX
  8
0
 10
820.953857421875
 20
435.5076904296875
 42
-1
  0
VERTEX
  8
0
 10
806.953857421875
 20
435.5076904296875
 42
-1
  0
SEQEND
  0
POLYLINE
  8
0
 10
0
 20
0
 39
0
 70
1
 66
1
  0
VERTEX
  8
0
 10
730.953857421875
 20
435.5076904296875
 42
-1
  0
VERTEX
  8
0
 10
716.953857421875
 20
435.5076904296875
 42
-1
  0
SEQEND
  0
POLYLINE
  8
0
 10
0
 20
0
 39
0
 70
1
 66
1
  0
VERTEX
  8
0
 10
806.953857421875
 20
610.5076904296875
 42
-1
  0
VERTEX
  8
0
 10
820.953857421875
 20
610.5076904296875
 42
-0
  0
VERTEX
  8
0
 10
820.953857421875
 20
594.5076904296875
 42
-1
  0
VERTEX
  8
0
 10
806.953857421875
 20
594.5076904296875
 42
0
  0
SEQEND
  0
POLYLINE
  8
0
 10
0
 20
0
 39
0
 70
1
 66
1
  0
VERTEX
  8
0
 10
716.953857421875
 20
610.5076904296875
 42
-1
  0
VERTEX
  8
0
 10
730.953857421875
 20
610.5076904296875
 42
0
  0
VERTEX
  8
0
 10
730.953857421875
 20
594.5076904296875
 42
-1
  0
VERTEX
  8
0
 10
716.953857421875
 20
594.5076904296875
 42
-0
  0
SEQEND
  0
POLYLINE
  8
0
 10
0
 20
0
 39
0
 70
1
 66
1
  0
VERTEX
  8
0
 10
1214.3231201171875
 20
380.5076904296875
 42
0
  0
VERTEX
  8
0
 10
1344.3231201171875
 20
380.5076904296875
 42
0
  0
VERTEX
  8
0
 10
1344.3231201171875
 20
640.5076904296875
 42
0
  0
VERTEX
  8
0
 10
1214.3231201171875
 20
640.5076904296875
 42
0
  0
SEQEND
  0
POLYLINE
  8
0
 10
0
 20
0
 39
0
 70
1
 66
1
  0
VERTEX
  8
0
 10
1287.8231201171875
 20
405.5076904296875
 42
-1
  0
VERTEX
  8
0
 10
1270.8231201171875
 20
405.5076904296875
 42
-1
  0
SEQEND
  0
POLYLINE
  8
0
 10
0
 20
0
 39
0
 70
1
 66
1
  0
VERTEX
  8
0
 10
1331.3231201171875
 20
435.5076904296875
 42
-1
  0
VERTEX
  8
0
 10
1317.3231201171875
 20
435.5076904296875
 42
-1
  0
SEQEND
  0
POLYLINE
  8
0
 10
0
 20
0
 39
0
 70
1
 66
1
  0
VERTEX
  8
0
 10
1241.3231201171875
 20
435.5076904296875
 42
-1
  0
VERTEX
  8
0
 10
1227.3231201171875
 20
435.5076904296875
 42
-1
  0
SEQEND
  0
POLYLINE
  8
0
 10
0
 20
0
 39
0
 70
1
 66
1
  0
VERTEX
  8
0
 10
1317.3231201171875
 20
610.5076904296875
 42
-1
  0
VERTEX
  8
0
 10
1331.3231201171875
 20
610.5076904296875
 42
-0
  0
VERTEX
  8
0
 10
1331.3231201171875
 20
594.5076904296875
 42
-1
  0
VERTEX
  8
0
 10
1317.3231201171875
 20
594.5076904296875
 42
0
  0
SEQEND
  0
POLYLINE
  8
0
 10
0
 20
0
 39
0
 70
1
 66
1
  0
VERTEX
  8
0
 10
1227.3231201171875
 20
610.5076904296875
 42
-1
  0
VERTEX
  8
0
 10
1241.3231201171875
 20
610.5076904296875
 42
0
  0
VERTEX
  8
0
 10
1241.3231201171875
 20
594.5076904296875
 42
-1
  0
VERTEX
  8
0
 10
1227.3231201171875
 20
594.5076904296875
 42
-0
  0
SEQEND
  0
POLYLINE
  8
0
 10
0
 20
0
 39
0
 70
1
 66
1
  0
VERTEX
  8
0
 10
1724.6922607421875
 20
380.5076904296875
 42
0
  0
VERTEX
  8
0
 10
1854.6922607421875
 20
380.5076904296875
 42
0
  0
VERTEX
  8
0
 10
1854.6922607421875
 20
640.5076904296875
 42
0
  0
VERTEX
  8
0
 10
1724.6922607421875
 20
640.5076904296875
 42
0
  0
SEQEND
  0
POLYLINE
  8
0
 10
0
 20
0
 39
0
 70
1
 66
1
  0
VERTEX
  8
0
 10
1798.1922607421875
 20
405.5076904296875
 42
-1
  0
VERTEX
  8
0
 10
1781.1922607421875
 20
405.5076904296875
 42
-1
  0
SEQEND
  0
POLYLINE
  8
0
 10
0
 20
0
 39
0
 70
1
 66
1
  0
VERTEX
  8
0
 10
1841.6922607421875
 20
435.5076904296875
 42
-1
  0
VERTEX
  8
0
 10
1827.6922607421875
 20
435.5076904296875
 42
-1
  0
SEQEND
  0
POLYLINE
  8
0
 10
0
 20
0
 39
0
 70
1
 66
1
  0
VERTEX
  8
0
 10
1751.6922607421875
 20
435.5076904296875
 42
-1
  0
VERTEX
  8
0
 10
1737.6922607421875
 20
435.5076904296875
 42
-1
  0
SEQEND
  0
POLYLINE
  8
0
 10
0
 20
0
 39
0
 70
1
 66
1
  0
VERTEX
  8
0
 10
1827.6922607421875
 20
610.5076904296875
 42
-1
  0
VERTEX
  8
0
 10
1841.6922607421875
 20
610.5076904296875
 42
-0
  0
VERTEX
  8
0
 10
1841.6922607421875
 20
594.5076904296875
 42
-1
  0
VERTEX
  8
0
 10
1827.6922607421875
 20
594.5076904296875
 42
0
  0
SEQEND
  0
POLYLINE
  8
0
 10
0
 20
0
 39
0
 70
1
 66
1
  0
VERTEX
  8
0
 10
1737.6922607421875
 20
610.5076904296875
 42
-1
  0
VERTEX
  8
0
 10
1751.6922607421875
 20
610.5076904296875
 42
0
  0
VERTEX
  8
0
 10
1751.6922607421875
 20
594.5076904296875
 42
-1
  0
VERTEX
  8
0
 10
1737.6922607421875
 20
594.5076904296875
 42
-0
  0
SEQEND
  0
POLYLINE
  8
0
 10
0
 20
0
 39
0
 70
1
 66
1
  0
VERTEX
  8
0
 10
2235.0615234375
 20
380.5076904296875
 42
0
  0
VERTEX
  8
0
 10
2365.0615234375
 20
380.5076904296875
 42
0
  0
VERTEX
  8
0
 10
2365.0615234375
 20
640.5076904296875
 42
0
  0
VERTEX
  8
0
 10
2235.0615234375
 20
640.5076904296875
 42
0
  0
SEQEND
  0
POLYLINE
  8
0
 10
0
 20
0
 39
0
 70
1
 66
1
  0
VERTEX
  8
0
 10
2308.5615234375
 20
405.5076904296875
 42
-1
  0
VERTEX
  8
0
 10
2291.5615234375
 20
405.5076904296875
 42
-1
  0
SEQEND
  0
POLYLINE
  8
0
 10
0
 20
0
 39
0
 70
1
 66
1
  0
VERTEX
  8
0
 10
2352.0615234375
 20
435.5076904296875
 42
-1
  0
VERTEX
  8
0
 10
2338.0615234375
 20
435.5076904296875
 42
-1
  0
SEQEND
  0
POLYLINE
  8
0
 10
0
 20
0
 39
0
 70
1
 66
1
  0
VERTEX
  8
0
 10
2262.0615234375
 20
435.5076904296875
 42
-1
  0
VERTEX
  8
0
 10
2248.0615234375
 20
435.5076904296875
 42
-1
  0
SEQEND
  0
POLYLINE
  8
0
 10
0
 20
0
 39
0
 70
1
 66
1
  0
VERTEX
  8
0
 10
2338.0615234375
 20
610.5076904296875
 42
-1
  0
VERTEX
  8
0
 10
2352.0615234375
 20
610.5076904296875
 42
-0
  0
VERTEX
  8
0
 10
2352.0615234375
 20
594.5076904296875
 42
-1
  0
VERTEX
  8
0
 10
2338.0615234375
 20
594.5076904296875
 42
0
  0
SEQEND
  0
POLYLINE
  8
0
 10
0
 20
0
 39
0
 70
1
 66
1
  0
VERTEX
  8
0
 10
2248.0615234375
 20
610.5076904296875
 42
-1
  0
VERTEX
  8
0
 10
2262.0615234375
 20
610.5076904296875
 42
0
  0
VERTEX
  8
0
 10
2262.0615234375
 20
594.5076904296875
 42
-1
  0
VERTEX
  8
0
 10
2248.0615234375
 20
594.5076904296875
 42
-0
  0
SEQEND
  0
POLYLINE
  8
0
 10
0
 20
0
 39
0
 70
1
 66
1
  0
VERTEX
  8
0
 10
2745.4306640625
 20
380.5076904296875
 42
0
  0
VERTEX
  8
0
 10
2875.4306640625
 20
380.5076904296875
 42
0
  0
VERTEX
  8
0
 10
2875.4306640625
 20
640.5076904296875
 42
0
  0
VERTEX
  8
0
 10
2745.4306640625
 20
640.5076904296875
 42
0
  0
SEQEND
  0
POLYLINE
  8
0
 10
0
 20
0
 39
0
 70
1
 66
1
  0
VERTEX
  8
0
 10
2818.9306640625
 20
405.5076904296875
 42
-1
  0
VERTEX
  8
0
 10
2801.9306640625
 20
405.5076904296875
 42
-1
  0
SEQEND
  0
POLYLINE
  8
0
 10
0
 20
0
 39
0
 70
1
 66
1
  0
VERTEX
  8
0
 10
2862.4306640625
 20
435.5076904296875
 42
-1
  0
VERTEX
  8
0
 10
2848.4306640625
 20
435.5076904296875
 42
-1
  0
SEQEND
  0
POLYLINE
  8
0
 10
0
 20
0
 39
0
 70
1
 66
1
  0
VERTEX
  8
0
 10
2772.4306640625
 20
435.5076904296875
 42
-1
  0
VERTEX
  8
0
 10
2758.4306640625
 20
435.5076904296875
 42
-1
  0
SEQEND
  0
POLYLINE
  8
0
 10
0
 20
0
 39
0
 70
1
 66
1
  0
VERTEX
  8
0
 10
2848.4306640625
 20
610.5076904296875
 42
-1
  0
VERTEX
  8
0
 10
2862.4306640625
 20
610.5076904296875
 42
-0
  0
VERTEX
  8
0
 10
2862.4306640625
 20
594.5076904296875
 42
-1
  0
VERTEX
  8
0
 10
2848.4306640625
 20
594.5076904296875
 42
0
  0
SEQEND
  0
POLYLINE
  8
0
 10
0
 20
0
 39
0
 70
1
 66
1
  0
VERTEX
  8
0
 10
2758.4306640625
 20
610.5076904296875
 42
-1
  0
VERTEX
  8
0
 10
2772.4306640625
 20
610.5076904296875
 42
0
  0
VERTEX
  8
0
 10
2772.4306640625
 20
594.5076904296875
 42
-1
  0
VERTEX
  8
0
 10
2758.4306640625
 20
594.5076904296875
 42
-0
  0
SEQEND
  0
POLYLINE
  8
0
 10
0
 20
0
 39
0
 70
1
 66
1
  0
VERTEX
  8
0
 10
3255.800048828125
 20
380.5076904296875
 42
0
  0
VERTEX
  8
0
 10
3385.800048828125
 20
380.5076904296875
 42
0
  0
VERTEX
  8
0
 10
3385.800048828125
 20
640.5076904296875
 42
0
  0
VERTEX
  8
0
 10
3255.800048828125
 20
640.5076904296875
 42
0
  0
SEQEND
  0
POLYLINE
  8
0
 10
0
 20
0
 39
0
 70
1
 66
1
  0
VERTEX
  8
0
 10
3329.300048828125
 20
405.5076904296875
 42
-1
  0
VERTEX
  8
0
 10
3312.300048828125
 20
405.5076904296875
 42
-1
  0
SEQEND
  0
POLYLINE
  8
0
 10
0
 20
0
 39
0
 70
1
 66
1
  0
VERTEX
  8
0
 10
3372.800048828125
 20
435.5076904296875
 42
-1
  0
VERTEX
  8
0
 10
3358.800048828125
 20
435.5076904296875
 42
-1
  0
SEQEND
  0
POLYLINE
  8
0
 10
0
 20
0
 39
0
 70
1
 66
1
  0
VERTEX
  8
0
 10
3282.800048828125
 20
435.5076904296875
 42
-1
  0
VERTEX
  8
0
 10
3268.800048828125
 20
435.5076904296875
 42
-1
  0
SEQEND
  0
POLYLINE
  8
0
 10
0
 20
0
 39
0
 70
1
 66
1
  0
VERTEX
  8
0
 10
3358.800048828125
 20
610.5076904296875
 42
-1
  0
VERTEX
  8
0
 10
3372.800048828125
 20
610.5076904296875
 42
-0
  0
VERTEX
  8
0
 10
3372.800048828125
 20
594.5076904296875
 42
-1
  0
VERTEX
  8
0
 10
3358.800048828125
 20
594.5076904296875
 42
0
  0
SEQEND
  0
POLYLINE
  8
0
 10
0
 20
0
 39
0
 70
1
 66
1
  0
VERTEX
  8
0
 10
3268.800048828125
 20
610.5076904296875
 42
-1
  0
VERTEX
  8
0
 10
3282.800048828125
 20
610.5076904296875
 42
0
  0
VERTEX
  8
0
 10
3282.800048828125
 20
594.5076904296875
 42
-1
  0
VERTEX
  8
0
 10
3268.800048828125
 20
594.5076904296875
 42
-0
  0
SEQEND
  0
POLYLINE
  8
0
 10
0
 20
0
 39
0
 70
1
 66
1
  0
VERTEX
  8
0
 10
3245.27685546875
 20
1488.876953125
 42
0
  0
VERTEX
  8
0
 10
3245.27685546875
 20
1358.876953125
 42
0
  0
VERTEX
  8
0
 10
3505.27685546875
 20
1358.876953125
 42
0
  0
VERTEX
  8
0
 10
3505.27685546875
 20
1488.876953125
 42
0
  0
SEQEND
  0
POLYLINE
  8
0
 10
0
 20
0
 39
0
 70
1
 66
1
  0
VERTEX
  8
0
 10
3270.27685546875
 20
1415.376953125
 42
-1
  0
VERTEX
  8
0
 10
3270.27685546875
 20
1432.376953125
 42
-1
  0
SEQEND
  0
POLYLINE
  8
0
 10
0
 20
0
 39
0
 70
1
 66
1
  0
VERTEX
  8
0
 10
3300.27685546875
 20
1371.876953125
 42
-1
  0
VERTEX
  8
0
 10
3300.27685546875
 20
1385.876953125
 42
-1
  0
SEQEND
  0
POLYLINE
  8
0
 10
0
 20
0
 39
0
 70
1
 66
1
  0
VERTEX
  8
0
 10
3300.27685546875
 20
1461.876953125
 42
-1
  0
VERTEX
  8
0
 10
3300.27685546875
 20
1475.876953125
 42
-1
  0
SEQEND
  0
POLYLINE
  8
0
 10
0
 20
0
 39
0
 70
1
 66
1
  0
VERTEX
  8
0
 10
3475.27685546875
 20
1385.876953125
 42
-1
  0
VERTEX
  8
0
 10
3475.27685546875
 20
1371.876953125
 42
-0
  0
VERTEX
  8
0
 10
3459.27685546875
 20
1371.876953125
 42
-1
  0
VERTEX
  8
0
 10
3459.27685546875
 20
1385.876953125
 42
0
  0
SEQEND
  0
POLYLINE
  8
0
 10
0
 20
0
 39
0
 70
1
 66
1
  0
VERTEX
  8
0
 10
3475.27685546875
 20
1475.876953125
 42
-1
  0
VERTEX
  8
0
 10
3475.27685546875
 20
1461.876953125
 42
0
  0
VERTEX
  8
0
 10
3459.27685546875
 20
1461.876953125
 42
-1
  0
VERTEX
  8
0
 10
3459.27685546875
 20
1475.876953125
 42
-0
  0
SEQEND
  0
POLYLINE
  8
0
 10
0
 20
0
 39
0
 70
1
 66
1
  0
VERTEX
  8
0
 10
196.35385131835937
 20
1298.78076171875
 42
-0
  0
VERTEX
  8
0
 10
175.35385131835937
 20
1330.03076171875
 42
0
  0
VERTEX
  8
0
 10
115.35384368896484
 20
1330.03076171875
 42
-0
  0
VERTEX
  8
0
 10
94.353843688964844
 20
1298.78076171875
 42
-0
  0
VERTEX
  8
0
 10
94.353843688964844
 20
1258.53076171875
 42
-0
  0
VERTEX
  8
0
 10
70.353843688964844
 20
1258.53076171875
 42
0
  0
VERTEX
  8
0
 10
70.353843688964844
 20
1182.53076171875
 42
0
  0
VERTEX
  8
0
 10
94.353843688964844
 20
1182.53076171875
 42
-0
  0
VERTEX
  8
0
 10
94.353843688964844
 20
1142.28076171875
 42
0
  0
VERTEX
  8
0
 10
115.35384368896484
 20
1111.03076171875
 42
0
  0
VERTEX
  8
0
 10
175.35385131835937
 20
1111.03076171875
 42
0
  0
VERTEX
  8
0
 10
196.35385131835937
 20
1142.28076171875
 42
0
  0
VERTEX
  8
0
 10
196.35385131835937
 20
1182.53076171875
 42
0
  0
VERTEX
  8
0
 10
220.35385131835937
 20
1182.53076171875
 42
0
  0
VERTEX
  8
0
 10
220.35385131835937
 20
1258.53076171875
 42
-0
  0
VERTEX
  8
0
 10
196.35385131835937
 20
1258.53076171875
 42
0
  0
SEQEND
  0
POLYLINE
  8
0
 10
0
 20
0
 39
0
 70
1
 66
1
  0
VERTEX
  8
0
 10
130.35385131835937
 20
1129.78076171875
 42
-1
  0
VERTEX
  8
0
 10
130.35385131835937
 20
1142.28076171875
 42
-0
  0
VERTEX
  8
0
 10
160.35385131835937
 20
1142.28076171875
 42
-1
  0
VERTEX
  8
0
 10
160.35385131835937
 20
1129.78076171875
 42
0
  0
SEQEND
  0
POLYLINE
  8
0
 10
0
 20
0
 39
0
 70
1
 66
1
  0
VERTEX
  8
0
 10
208.60385131835937
 20
1211.78076171875
 42
-1
  0
VERTEX
  8
0
 10
196.10385131835937
 20
1211.78076171875
 42
0
  0
VERTEX
  8
0
 10
196.10385131835937
 20
1229.28076171875
 42
-1
  0
VERTEX
  8
0
 10
208.60385131835937
 20
1229.28076171875
 42
-0
  0
SEQEND
  0
POLYLINE
  8
0
 10
0
 20
0
 39
0
 70
1
 66
1
  0
VERTEX
  8
0
 10
82.103843688964844
 20
1229.28076171875
 42
-1
  0
VERTEX
  8
0
 10
94.603843688964844
 20
1229.28076171875
 42
-0
  0
VERTEX
  8
0
 10
94.603843688964844
 20
1211.78076171875
 42
-1
  0
VERTEX
  8
0
 10
82.103843688964844
 20
1211.78076171875
 42
0
  0
SEQEND
  0
POLYLINE
  8
0
 10
0
 20
0
 39
0
 70
1
 66
1
  0
VERTEX
  8
0
 10
130.35385131835937
 20
1311.28076171875
 42
-0
  0
VERTEX
  8
0
 10
160.35385131835937
 20
1311.28076171875
 42
-1
  0
VERTEX
  8
0
 10
160.35385131835937
 20
1298.78076171875
 42
0
  0
VERTEX
  8
0
 10
130.35385131835937
 20
1298.78076171875
 42
-1
  0
SEQEND
  0
POLYLINE
  8
0
 10
0
 20
0
 39
0
 70
1
 66
1
  0
VERTEX
  8
0
 10
601.4923095703125
 20
1366.90380859375
 42
-0
  0
VERTEX
  8
0
 10
580.4923095703125
 20
1398.15380859375
 42
0
  0
VERTEX
  8
0
 10
520.4923095703125
 20
1398.15380859375
 42
-0
  0
VERTEX
  8
0
 10
499.4923095703125
 20
1366.90380859375
 42
-0
  0
VERTEX
  8
0
 10
499.4923095703125
 20
1326.65380859375
 42
-0
  0
VERTEX
  8
0
 10
475.4923095703125
 20
1326.65380859375
 42
0
  0
VERTEX
  8
0
 10
475.4923095703125
 20
1250.65380859375
 42
0
  0
VERTEX
  8
0
 10
499.4923095703125
 20
1250.65380859375
 42
-0
  0
VERTEX
  8
0
 10
499.4923095703125
 20
1210.40380859375
 42
0
  0
VERTEX
  8
0
 10
520.4923095703125
 20
1179.15380859375
 42
0
  0
VERTEX
  8
0
 10
580.4923095703125
 20
1179.15380859375
 42
0
  0
VERTEX
  8
0
 10
601.4923095703125
 20
1210.40380859375
 42
0
  0
VERTEX
  8
0
 10
601.4923095703125
 20
1250.65380859375
 42
0
  0
VERTEX
  8
0
 10
625.4923095703125
 20
1250.65380859375
 42
0
  0
VERTEX
  8
0
 10
625.4923095703125
 20
1326.65380859375
 42
-0
  0
VERTEX
  8
0
 10
601.4923095703125
 20
1326.65380859375
 42
0
  0
SEQEND
  0
POLYLINE
  8
0
 10
0
 20
0
 39
0
 70
1
 66
1
  0
VERTEX
  8
0
 10
535.4923095703125
 20
1197.90380859375
 42
-1
  0
VERTEX
  8
0
 10
535.4923095703125
 20
1210.40380859375
 42
-0
  0
VERTEX
  8
0
 10
565.4923095703125
 20
1210.40380859375
 42
-1
  0
VERTEX
  8
0
 10
565.4923095703125
 20
1197.90380859375
 42
0
  0
SEQEND
  0
POLYLINE
  8
0
 10
0
 20
0
 39
0
 70
1
 66
1
  0
VERTEX
  8
0
 10
613.7423095703125
 20
1279.90380859375
 42
-1
  0
VERTEX
  8
0
 10
601.2423095703125
 20
1279.90380859375
 42
0
  0
VERTEX
  8
0
 10
601.2423095703125
 20
1297.40380859375
 42
-1
  0
VERTEX
  8
0
 10
613.7423095703125
 20
1297.40380859375
 42
-0
  0
SEQEND
  0
POLYLINE
  8
0
 10
0
 20
0
 39
0
 70
1
 66
1
  0
VERTEX
  8
0
 10
487.2423095703125
 20
1297.40380859375
 42
-1
  0
VERTEX
  8
0
 10
499.7423095703125
 20
1297.40380859375
 42
-0
  0
VERTEX
  8
0
 10
499.7423095703125
 20
1279.90380859375
 42
-1
  0
VERTEX
  8
0
 10
487.2423095703125
 20
1279.90380859375
 42
0
  0
SEQEND
  0
POLYLINE
  8
0
 10
0
 20
0
 39
0
 70
1
 66
1
  0
VERTEX
  8
0
 10
535.4923095703125
 20
1379.40380859375
 42
-0
  0
VERTEX
  8
0
 10
565.4923095703125
 20
1379.40380859375
 42
-1
  0
VERTEX
  8
0
 10
565.4923095703125
 20
1366.90380859375
 42
0
  0
VERTEX
  8
0
 10
535.4923095703125
 20
1366.90380859375
 42
-1
  0
SEQEND
  0
POLYLINE
  8
0
 10
0
 20
0
 39
0
 70
1
 66
1
  0
VERTEX
  8
0
 10
1006.6307983398437
 20
1298.78076171875
 42
-0
  0
VERTEX
  8
0
 10
985.63079833984375
 20
1330.03076171875
 42
0
  0
VERTEX
  8
0
 10
925.63079833984375
 20
1330.03076171875
 42
-0
  0
VERTEX
  8
0
 10
904.63079833984375
 20
1298.78076171875
 42
-0
  0
VERTEX
  8
0
 10
904.63079833984375
 20
1258.53076171875
 42
-0
  0
VERTEX
  8
0
 10
880.63079833984375
 20
1258.53076171875
 42
0
  0
VERTEX
  8
0
 10
880.63079833984375
 20
1182.53076171875
 42
0
  0
VERTEX
  8
0
 10
904.63079833984375
 20
1182.53076171875
 42
-0
  0
VERTEX
  8
0
 10
904.63079833984375
 20
1142.28076171875
 42
0
  0
VERTEX
  8
0
 10
925.63079833984375
 20
1111.03076171875
 42
0
  0
VERTEX
  8
0
 10
985.63079833984375
 20
1111.03076171875
 42
0
  0
VERTEX
  8
0
 10
1006.6307983398437
 20
1142.28076171875
 42
0
  0
VERTEX
  8
0
 10
1006.6307983398437
 20
1182.53076171875
 42
0
  0
VERTEX
  8
0
 10
1030.6307373046875
 20
1182.53076171875
 42
0
  0
VERTEX
  8
0
 10
1030.6307373046875
 20
1258.53076171875
 42
-0
  0
VERTEX
  8
0
 10
1006.6307983398437
 20
1258.53076171875
 42
0
  0
SEQEND
  0
POLYLINE
  8
0
 10
0
 20
0
 39
0
 70
1
 66
1
  0
VERTEX
  8
0
 10
940.63079833984375
 20
1129.78076171875
 42
-1
  0
VERTEX
  8
0
 10
940.63079833984375
 20
1142.28076171875
 42
-0
  0
VERTEX
  8
0
 10
970.63079833984375
 20
1142.28076171875
 42
-1
  0
VERTEX
  8
0
 10
970.63079833984375
 20
1129.78076171875
 42
0
  0
SEQEND
  0
POLYLINE
  8
0
 10
0
 20
0
 39
0
 70
1
 66
1
  0
VERTEX
  8
0
 10
1018.8807983398437
 20
1211.78076171875
 42
-1
  0
VERTEX
  8
0
 10
1006.3807983398437
 20
1211.78076171875
 42
0
  0
VERTEX
  8
0
 10
1006.3807983398437
 20
1229.28076171875
 42
-1
  0
VERTEX
  8
0
 10
1018.8807983398437
 20
1229.28076171875
 42
-0
  0
SEQEND
  0
POLYLINE
  8
0
 10
0
 20
0
 39
0
 70
1
 66
1
  0
VERTEX
  8
0
 10
892.38079833984375
 20
1229.28076171875
 42
-1
  0
VERTEX
  8
0
 10
904.88079833984375
 20
1229.28076171875
 42
-0
  0
VERTEX
  8
0
 10
904.88079833984375
 20
1211.78076171875
 42
-1
  0
VERTEX
  8
0
 10
892.38079833984375
 20
1211.78076171875
 42
0
  0
SEQEND
  0
POLYLINE
  8
0
 10
0
 20
0
 39
0
 70
1
 66
1
  0
VERTEX
  8
0
 10
940.63079833984375
 20
1311.28076171875
 42
-0
  0
VERTEX
  8
0
 10
970.63079833984375
 20
1311.28076171875
 42
-1
  0
VERTEX
  8
0
 10
970.63079833984375
 20
1298.78076171875
 42
0
  0
VERTEX
  8
0
 10
940.63079833984375
 20
1298.78076171875
 42
-1
  0
SEQEND
  0
POLYLINE
  8
0
 10
0
 20
0
 39
0
 70
1
 66
1
  0
VERTEX
  8
0
 10
1411.769287109375
 20
1366.90380859375
 42
-0
  0
VERTEX
  8
0
 10
1390.769287109375
 20
1398.15380859375
 42
0
  0
VERTEX
  8
0
 10
1330.769287109375
 20
1398.15380859375
 42
-0
  0
VERTEX
  8
0
 10
1309.769287109375
 20
1366.90380859375
 42
-0
  0
VERTEX
  8
0
 10
1309.769287109375
 20
1326.65380859375
 42
-0
  0
VERTEX
  8
0
 10
1285.769287109375
 20
1326.65380859375
 42
0
  0
VERTEX
  8
0
 10
1285.769287109375
 20
1250.65380859375
 42
0
  0
VERTEX
  8
0
 10
1309.769287109375
 20
1250.65380859375
 42
-0
  0
VERTEX
  8
0
 10
1309.769287109375
 20
1210.40380859375
 42
0
  0
VERTEX
  8
0
 10
1330.769287109375
 20
1179.15380859375
 42
0
  0
VERTEX
  8
0
 10
1390.769287109375
 20
1179.15380859375
 42
0
  0
VERTEX
  8
0
 10
1411.769287109375
 20
1210.40380859375
 42
0
  0
VERTEX
  8
0
 10
1411.769287109375
 20
1250.65380859375
 42
0
  0
VERTEX
  8
0
 10
1435.769287109375
 20
1250.65380859375
 42
0
  0
VERTEX
  8
0
 10
1435.769287109375
 20
1326.65380859375
 42
-0
  0
VERTEX
  8
0
 10
1411.769287109375
 20
1326.65380859375
 42
0
  0
SEQEND
  0
POLYLINE
  8
0
 10
0
 20
0
 39
0
 70
1
 66
1
  0
VERTEX
  8
0
 10
1345.769287109375
 20
1197.90380859375
 42
-1
  0
VERTEX
  8
0
 10
1345.769287109375
 20
1210.40380859375
 42
-0
  0
VERTEX
  8
0
 10
1375.769287109375
 20
1210.40380859375
 42
-1
  0
VERTEX
  8
0
 10
1375.769287109375
 20
1197.90380859375
 42
0
  0
SEQEND
  0
POLYLINE
  8
0
 10
0
 20
0
 39
0
 70
1
 66
1
  0
VERTEX
  8
0
 10
1424.019287109375
 20
1279.90380859375
 42
-1
  0
VERTEX
  8
0
 10
1411.519287109375
 20
1279.90380859375
 42
0
  0
VERTEX
  8
0
 10
1411.519287109375
 20
1297.40380859375
 42
-1
  0
VERTEX
  8
0
 10
1424.019287109375
 20
1297.40380859375
 42
-0
  0
SEQEND
  0
POLYLINE
  8
0
 10
0
 20
0
 39
0
 70
1
 66
1
  0
VERTEX
  8
0
 10
1297.519287109375
 20
1297.40380859375
 42
-1
  0
VERTEX
  8
0
 10
1310.019287109375
 20
1297.40380859375
 42
-0
  0
VERTEX
  8
0
 10
1310.019287109375
 20
1279.90380859375
 42
-1
  0
VERTEX
  8
0
 10
1297.519287109375
 20
1279.90380859375
 42
0
  0
SEQEND
  0
POLYLINE
  8
0
 10
0
 20
0
 39
0
 70
1
 66
1
  0
VERTEX
  8
0
 10
1345.769287109375
 20
1379.40380859375
 42
-0
  0
VERTEX
  8
0
 10
1375.769287109375
 20
1379.40380859375
 42
-1
  0
VERTEX
  8
0
 10
1375.769287109375
 20
1366.90380859375
 42
0
  0
VERTEX
  8
0
 10
1345.769287109375
 20
1366.90380859375
 42
-1
  0
SEQEND
  0
POLYLINE
  8
0
 10
0
 20
0
 39
0
 70
1
 66
1
  0
VERTEX
  8
0
 10
1816.90771484375
 20
1298.78076171875
 42
-0
  0
VERTEX
  8
0
 10
1795.90771484375
 20
1330.03076171875
 42
0
  0
VERTEX
  8
0
 10
1735.90771484375
 20
1330.03076171875
 42
-0
  0
VERTEX
  8
0
 10
1714.90771484375
 20
1298.78076171875
 42
-0
  0
VERTEX
  8
0
 10
1714.90771484375
 20
1258.53076171875
 42
-0
  0
VERTEX
  8
0
 10
1690.90771484375
 20
1258.53076171875
 42
0
  0
VERTEX
  8
0
 10
1690.90771484375
 20
1182.53076171875
 42
0
  0
VERTEX
  8
0
 10
1714.90771484375
 20
1182.53076171875
 42
-0
  0
VERTEX
  8
0
 10
1714.90771484375
 20
1142.28076171875
 42
0
  0
VERTEX
  8
0
 10
1735.90771484375
 20
1111.03076171875
 42
0
  0
VERTEX
  8
0
 10
1795.90771484375
 20
1111.03076171875
 42
0
  0
VERTEX
  8
0
 10
1816.90771484375
 20
1142.28076171875
 42
0
  0
VERTEX
  8
0
 10
1816.90771484375
 20
1182.53076171875
 42
0
  0
VERTEX
  8
0
 10
1840.90771484375
 20
1182.53076171875
 42
0
  0
VERTEX
  8
0
 10
1840.90771484375
 20
1258.53076171875
 42
-0
  0
VERTEX
  8
0
 10
1816.90771484375
 20
1258.53076171875
 42
0
  0
SEQEND
  0
POLYLINE
  8
0
 10
0
 20
0
 39
0
 70
1
 66
1
  0
VERTEX
  8
0
 10
1750.90771484375
 20
1129.78076171875
 42
-1
  0
VERTEX
  8
0
 10
1750.90771484375
 20
1142.28076171875
 42
-0
  0
VERTEX
  8
0
 10
1780.90771484375
 20
1142.28076171875
 42
-1
  0
VERTEX
  8
0
 10
1780.90771484375
 20
1129.78076171875
 42
0
  0
SEQEND
  0
POLYLINE
  8
0
 10
0
 20
0
 39
0
 70
1
 66
1
  0
VERTEX
  8
0
 10
1829.15771484375
 20
1211.78076171875
 42
-1
  0
VERTEX
  8
0
 10
1816.65771484375
 20
1211.78076171875
 42
0
  0
VERTEX
  8
0
 10
1816.65771484375
 20
1229.28076171875
 42
-1
  0
VERTEX
  8
0
 10
1829.15771484375
 20
1229.28076171875
 42
-0
  0
SEQEND
  0
POLYLINE
  8
0
 10
0
 20
0
 39
0
 70
1
 66
1
  0
VERTEX
  8
0
 10
1702.65771484375
 20
1229.28076171875
 42
-1
  0
VERTEX
  8
0
 10
1715.15771484375
 20
1229.28076171875
 42
-0
  0
VERTEX
  8
0
 10
1715.15771484375
 20
1211.78076171875
 42
-1
  0
VERTEX
  8
0
 10
1702.65771484375
 20
1211.78076171875
 42
0
  0
SEQEND
  0
POLYLINE
  8
0
 10
0
 20
0
 39
0
 70
1
 66
1
  0
VERTEX
  8
0
 10
1750.90771484375
 20
1311.28076171875
 42
-0
  0
VERTEX
  8
0
 10
1780.90771484375
 20
1311.28076171875
 42
-1
  0
VERTEX
  8
0
 10
1780.90771484375
 20
1298.78076171875
 42
0
  0
VERTEX
  8
0
 10
1750.90771484375
 20
1298.78076171875
 42
-1
  0
SEQEND
  0
POLYLINE
  8
0
 10
0
 20
0
 39
0
 70
1
 66
1
  0
VERTEX
  8
0
 10
2222.046142578125
 20
1366.90380859375
 42
-0
  0
VERTEX
  8
0
 10
2201.046142578125
 20
1398.15380859375
 42
0
  0
VERTEX
  8
0
 10
2141.046142578125
 20
1398.15380859375
 42
-0
  0
VERTEX
  8
0
 10
2120.046142578125
 20
1366.90380859375
 42
-0
  0
VERTEX
  8
0
 10
2120.046142578125
 20
1326.65380859375
 42
-0
  0
VERTEX
  8
0
 10
2096.046142578125
 20
1326.65380859375
 42
0
  0
VERTEX
  8
0
 10
2096.046142578125
 20
1250.65380859375
 42
0
  0
VERTEX
  8
0
 10
2120.046142578125
 20
1250.65380859375
 42
-0
  0
VERTEX
  8
0
 10
2120.046142578125
 20
1210.40380859375
 42
0
  0
VERTEX
  8
0
 10
2141.046142578125
 20
1179.15380859375
 42
0
  0
VERTEX
  8
0
 10
2201.046142578125
 20
1179.15380859375
 42
0
  0
VERTEX
  8
0
 10
2222.046142578125
 20
1210.40380859375
 42
0
  0
VERTEX
  8
0
 10
2222.046142578125
 20
1250.65380859375
 42
0
  0
VERTEX
  8
0
 10
2246.046142578125
 20
1250.65380859375
 42
0
  0
VERTEX
  8
0
 10
2246.046142578125
 20
1326.65380859375
 42
-0
  0
VERTEX
  8
0
 10
2222.046142578125
 20
1326.65380859375
 42
0
  0
SEQEND
  0
POLYLINE
  8
0
 10
0
 20
0
 39
0
 70
1
 66
1
  0
VERTEX
  8
0
 10
2156.046142578125
 20
1197.90380859375
 42
-1
  0
VERTEX
  8
0
 10
2156.046142578125
 20
1210.40380859375
 42
-0
  0
VERTEX
  8
0
 10
2186.046142578125
 20
1210.40380859375
 42
-1
  0
VERTEX
  8
0
 10
2186.046142578125
 20
1197.90380859375
 42
0
  0
SEQEND
  0
POLYLINE
  8
0
 10
0
 20
0
 39
0
 70
1
 66
1
  0
VERTEX
  8
0
 10
2234.296142578125
 20
1279.90380859375
 42
-1
  0
VERTEX
  8
0
 10
2221.796142578125
 20
1279.90380859375
 42
0
  0
VERTEX
  8
0
 10
2221.796142578125
 20
1297.40380859375
 42
-1
  0
VERTEX
  8
0
 10
2234.296142578125
 20
1297.40380859375
 42
-0
  0
SEQEND
  0
POLYLINE
  8
0
 10
0
 20
0
 39
0
 70
1
 66
1
  0
VERTEX
  8
0
 10
2107.796142578125
 20
1297.40380859375
 42
-1
  0
VERTEX
  8
0
 10
2120.296142578125
 20
1297.40380859375
 42
-0
  0
VERTEX
  8
0
 10
2120.296142578125
 20
1279.90380859375
 42
-1
  0
VERTEX
  8
0
 10
2107.796142578125
 20
1279.90380859375
 42
0
  0
SEQEND
  0
POLYLINE
  8
0
 10
0
 20
0
 39
0
 70
1
 66
1
  0
VERTEX
  8
0
 10
2156.046142578125
 20
1379.40380859375
 42
-0
  0
VERTEX
  8
0
 10
2186.046142578125
 20
1379.40380859375
 42
-1
  0
VERTEX
  8
0
 10
2186.046142578125
 20
1366.90380859375
 42
0
  0
VERTEX
  8
0
 10
2156.046142578125
 20
1366.90380859375
 42
-1
  0
SEQEND
  0
POLYLINE
  8
0
 10
0
 20
0
 39
0
 70
1
 66
1
  0
VERTEX
  8
0
 10
2627.1845703125
 20
1298.78076171875
 42
-0
  0
VERTEX
  8
0
 10
2606.1845703125
 20
1330.03076171875
 42
0
  0
VERTEX
  8
0
 10
2546.1845703125
 20
1330.03076171875
 42
-0
  0
VERTEX
  8
0
 10
2525.1845703125
 20
1298.78076171875
 42
-0
  0
VERTEX
  8
0
 10
2525.1845703125
 20
1258.53076171875
 42
-0
  0
VERTEX
  8
0
 10
2501.1845703125
 20
1258.53076171875
 42
0
  0
VERTEX
  8
0
 10
2501.1845703125
 20
1182.53076171875
 42
0
  0
VERTEX
  8
0
 10
2525.1845703125
 20
1182.53076171875
 42
-0
  0
VERTEX
  8
0
 10
2525.1845703125
 20
1142.28076171875
 42
0
  0
VERTEX
  8
0
 10
2546.1845703125
 20
1111.03076171875
 42
0
  0
VERTEX
  8
0
 10
2606.1845703125
 20
1111.03076171875
 42
0
  0
VERTEX
  8
0
 10
2627.1845703125
 20
1142.28076171875
 42
0
  0
VERTEX
  8
0
 10
2627.1845703125
 20
1182.53076171875
 42
0
  0
VERTEX
  8
0
 10
2651.1845703125
 20
1182.53076171875
 42
0
  0
VERTEX
  8
0
 10
2651.1845703125
 20
1258.53076171875
 42
-0
  0
VERTEX
  8
0
 10
2627.1845703125
 20
1258.53076171875
 42
0
  0
SEQEND
  0
POLYLINE
  8
0
 10
0
 20
0
 39
0
 70
1
 66
1
  0
VERTEX
  8
0
 10
2561.1845703125
 20
1129.78076171875
 42
-1
  0
VERTEX
  8
0
 10
2561.1845703125
 20
1142.28076171875
 42
-0
  0
VERTEX
  8
0
 10
2591.1845703125
 20
1142.28076171875
 42
-1
  0
VERTEX
  8
0
 10
2591.1845703125
 20
1129.78076171875
 42
0
  0
SEQEND
  0
POLYLINE
  8
0
 10
0
 20
0
 39
0
 70
1
 66
1
  0
VERTEX
  8
0
 10
2639.4345703125
 20
1211.78076171875
 42
-1
  0
VERTEX
  8
0
 10
2626.9345703125
 20
1211.78076171875
 42
0
  0
VERTEX
  8
0
 10
2626.9345703125
 20
1229.28076171875
 42
-1
  0
VERTEX
  8
0
 10
2639.4345703125
 20
1229.28076171875
 42
-0
  0
SEQEND
  0
POLYLINE
  8
0
 10
0
 20
0
 39
0
 70
1
 66
1
  0
VERTEX
  8
0
 10
2512.9345703125
 20
1229.28076171875
 42
-1
  0
VERTEX
  8
0
 10
2525.4345703125
 20
1229.28076171875
 42
-0
  0
VERTEX
  8
0
 10
2525.4345703125
 20
1211.78076171875
 42
-1
  0
VERTEX
  8
0
 10
2512.9345703125
 20
1211.78076171875
 42
0
  0
SEQEND
  0
POLYLINE
  8
0
 10
0
 20
0
 39
0
 70
1
 66
1
  0
VERTEX
  8
0
 10
2561.1845703125
 20
1311.28076171875
 42
-0
  0
VERTEX
  8
0
 10
2591.1845703125
 20
1311.28076171875
 42
-1
  0
VERTEX
  8
0
 10
2591.1845703125
 20
1298.78076171875
 42
0
  0
VERTEX
  8
0
 10
2561.1845703125
 20
1298.78076171875
 42
-1
  0
SEQEND
  0
POLYLINE
  8
0
 10
0
 20
0
 39
0
 70
1
 66
1
  0
VERTEX
  8
0
 10
3032.322998046875
 20
1366.90380859375
 42
-0
  0
VERTEX
  8
0
 10
3011.322998046875
 20
1398.15380859375
 42
0
  0
VERTEX
  8
0
 10
2951.322998046875
 20
1398.15380859375
 42
-0
  0
VERTEX
  8
0
 10
2930.322998046875
 20
1366.90380859375
 42
-0
  0
VERTEX
  8
0
 10
2930.322998046875
 20
1326.65380859375
 42
-0
  0
VERTEX
  8
0
 10
2906.322998046875
 20
1326.65380859375
 42
0
  0
VERTEX
  8
0
 10
2906.322998046875
 20
1250.65380859375
 42
0
  0
VERTEX
  8
0
 10
2930.322998046875
 20
1250.65380859375
 42
-0
  0
VERTEX
  8
0
 10
2930.322998046875
 20
1210.40380859375
 42
0
  0
VERTEX
  8
0
 10
2951.322998046875
 20
1179.15380859375
 42
0
  0
VERTEX
  8
0
 10
3011.322998046875
 20
1179.15380859375
 42
0
  0
VERTEX
  8
0
 10
3032.322998046875
 20
1210.40380859375
 42
0
  0
VERTEX
  8
0
 10
3032.322998046875
 20
1250.65380859375
 42
0
  0
VERTEX
  8
0
 10
3056.322998046875
 20
1250.65380859375
 42
0
  0
VERTEX
  8
0
 10
3056.322998046875
 20
1326.65380859375
 42
-0
  0
VERTEX
  8
0
 10
3032.322998046875
 20
1326.65380859375
 42
0
  0
SEQEND
  0
POLYLINE
  8
0
 10
0
 20
0
 39
0
 70
1
 66
1
  0
VERTEX
  8
0
 10
2966.322998046875
 20
1197.90380859375
 42
-1
  0
VERTEX
  8
0
 10
2966.322998046875
 20
1210.40380859375
 42
-0
  0
VERTEX
  8
0
 10
2996.322998046875
 20
1210.40380859375
 42
-1
  0
VERTEX
  8
0
 10
2996.322998046875
 20
1197.90380859375
 42
0
  0
SEQEND
  0
POLYLINE
  8
0
 10
0
 20
0
 39
0
 70
1
 66
1
  0
VERTEX
  8
0
 10
3044.572998046875
 20
1279.90380859375
 42
-1
  0
VERTEX
  8
0
 10
3032.072998046875
 20
1279.90380859375
 42
0
  0
VERTEX
  8
0
 10
3032.072998046875
 20
1297.40380859375
 42
-1
  0
VERTEX
  8
0
 10
3044.572998046875
 20
1297.40380859375
 42
-0
  0
SEQEND
  0
POLYLINE
  8
0
 10
0
 20
0
 39
0
 70
1
 66
1
  0
VERTEX
  8
0
 10
2918.072998046875
 20
1297.40380859375
 42
-1
  0
VERTEX
  8
0
 10
2930.572998046875
 20
1297.40380859375
 42
-0
  0
VERTEX
  8
0
 10
2930.572998046875
 20
1279.90380859375
 42
-1
  0
VERTEX
  8
0
 10
2918.072998046875
 20
1279.90380859375
 42
0
  0
SEQEND
  0
POLYLINE
  8
0
 10
0
 20
0
 39
0
 70
1
 66
1
  0
VERTEX
  8
0
 10
2966.322998046875
 20
1379.40380859375
 42
-0
  0
VERTEX
  8
0
 10
2996.322998046875
 20
1379.40380859375
 42
-1
  0
VERTEX
  8
0
 10
2996.322998046875
 20
1366.90380859375
 42
0
  0
VERTEX
  8
0
 10
2966.322998046875
 20
1366.90380859375
 42
-1
  0
SEQEND
  0
POLYLINE
  8
0
 10
0
 20
0
 39
0
 70
1
 66
1
  0
VERTEX
  8
0
 10
181.68174743652344
 20
146.3980712890625
 42
1.6858545541763306
  0
VERTEX
  8
0
 10
228.11277770996094
 20
231.03068542480469
 42
-0
  0
VERTEX
  8
0
 10
164.05043029785156
 20
231.14291381835937
 42
0.59317100048065186
  0
VERTEX
  8
0
 10
147.16641235351562
 20
200.36741638183594
 42
0
  0
SEQEND
  0
POLYLINE
  8
0
 10
0
 20
0
 39
0
 70
1
 66
1
  0
VERTEX
  8
0
 10
172.43267822265625
 20
226.48567199707031
 42
-1
  0
VERTEX
  8
0
 10
155.59806823730469
 20
195.80023193359375
 42
-1
  0
SEQEND
  0
POLYLINE
  8
0
 10
0
 20
0
 39
0
 70
1
 66
1
  0
VERTEX
  8
0
 10
242.44609069824219
 20
202.33256530761719
 42
-1
  0
VERTEX
  8
0
 10
213.58676147460937
 20
149.72897338867187
 42
-1
  0
SEQEND
  0
POLYLINE
  8
0
 10
0
 20
0
 39
0
 70
1
 66
1
  0
VERTEX
  8
0
 10
181.68174743652344
 20
796.3365478515625
 42
1.6858545541763306
  0
VERTEX
  8
0
 10
228.11277770996094
 20
880.9691162109375
 42
-0
  0
VERTEX
  8
0
 10
164.05043029785156
 20
881.08135986328125
 42
0.59317100048065186
  0
VERTEX
  8
0
 10
147.16641235351562
 20
850.305908203125
 42
0
  0
SEQEND
  0
POLYLINE
  8
0
 10
0
 20
0
 39
0
 70
1
 66
1
  0
VERTEX
  8
0
 10
172.43267822265625
 20
876.42413330078125
 42
-1
  0
VERTEX
  8
0
 10
155.59806823730469
 20
845.73870849609375
 42
-1
  0
SEQEND
  0
POLYLINE
  8
0
 10
0
 20
0
 39
0
 70
1
 66
1
  0
VERTEX
  8
0
 10
242.44609069824219
 20
852.27105712890625
 42
-1
  0
VERTEX
  8
0
 10
213.58676147460937
 20
799.66741943359375
 42
-1
  0
SEQEND
  0
POLYLINE
  8
0
 10
0
 20
0
 39
0
 70
1
 66
1
  0
VERTEX
  8
0
 10
314.60641479492187
 20
1123.22021484375
 42
1.6858545541763306
  0
VERTEX
  8
0
 10
229.97380065917969
 20
1169.6512451171875
 42
-0
  0
VERTEX
  8
0
 10
229.861572265625
 20
1105.5888671875
 42
0.59317100048065186
  0
VERTEX
  8
0
 10
260.63705444335937
 20
1088.704833984375
 42
0
  0
SEQEND
  0
POLYLINE
  8
0
 10
0
 20
0
 39
0
 70
1
 66
1
  0
VERTEX
  8
0
 10
234.51881408691406
 20
1113.97119140625
 42
-1
  0
VERTEX
  8
0
 10
265.20425415039063
 20
1097.1365966796875
 42
-1
  0
SEQEND
  0
POLYLINE
  8
0
 10
0
 20
0
 39
0
 70
1
 66
1
  0
VERTEX
  8
0
 10
258.67190551757813
 20
1183.9844970703125
 42
-1
  0
VERTEX
  8
0
 10
311.2755126953125
 20
1155.125244140625
 42
-1
  0
SEQEND
  0
POLYLINE
  8
0
 10
0
 20
0
 39
0
 70
1
 66
1
  0
VERTEX
  8
0
 10
322.08175659179687
 20
1404.736572265625
 42
1.6858545541763306
  0
VERTEX
  8
0
 10
368.51278686523437
 20
1489.369140625
 42
-0
  0
VERTEX
  8
0
 10
304.45040893554687
 20
1489.4813232421875
 42
0.59317100048065186
  0
VERTEX
  8
0
 10
287.56640625
 20
1458.7059326171875
 42
0
  0
SEQEND
  0
POLYLINE
  8
0
 10
0
 20
0
 39
0
 70
1
 66
1
  0
VERTEX
  8
0
 10
312.83267211914062
 20
1484.8240966796875
 42
-1
  0
VERTEX
  8
0
 10
295.99807739257812
 20
1454.138671875
 42
-1
  0
SEQEND
  0
POLYLINE
  8
0
 10
0
 20
0
 39
0
 70
1
 66
1
  0
VERTEX
  8
0
 10
382.84609985351562
 20
1460.6710205078125
 42
-1
  0
VERTEX
  8
0
 10
353.98675537109375
 20
1408.0673828125
 42
-1
  0
SEQEND
  0
POLYLINE
  8
0
 10
0
 20
0
 39
0
 70
1
 66
1
  0
VERTEX
  8
0
 10
479.9039306640625
 20
1105.498779296875
 42
1.6858545541763306
  0
VERTEX
  8
0
 10
433.47286987304687
 20
1020.8660888671875
 42
-0
  0
VERTEX
  8
0
 10
497.53524780273437
 20
1020.75390625
 42
0.59317100048065186
  0
VERTEX
  8
0
 10
514.41925048828125
 20
1051.5294189453125
 42
0
  0
SEQEND
  0
POLYLINE
  8
0
 10
0
 20
0
 39
0
 70
1
 66
1
  0
VERTEX
  8
0
 10
489.15298461914062
 20
1025.4111328125
 42
-1
  0
VERTEX
  8
0
 10
505.98757934570312
 20
1056.0965576171875
 42
-1
  0
SEQEND
  0
POLYLINE
  8
0
 10
0
 20
0
 39
0
 70
1
 66
1
  0
VERTEX
  8
0
 10
419.13955688476562
 20
1049.564208984375
 42
-1
  0
VERTEX
  8
0
 10
447.9989013671875
 20
1102.1678466796875
 42
-1
  0
SEQEND
  0
POLYLINE
  8
0
 10
0
 20
0
 39
0
 70
1
 66
1
  0
VERTEX
  8
0
 10
719.744873046875
 20
1191.6202392578125
 42
1.6858545541763306
  0
VERTEX
  8
0
 10
635.11224365234375
 20
1238.05126953125
 42
-0
  0
VERTEX
  8
0
 10
635.00006103515625
 20
1173.9888916015625
 42
0.59317100048065186
  0
VERTEX
  8
0
 10
665.7755126953125
 20
1157.1048583984375
 42
0
  0
SEQEND
  0
POLYLINE
  8
0
 10
0
 20
0
 39
0
 70
1
 66
1
  0
VERTEX
  8
0
 10
639.65728759765625
 20
1182.37109375
 42
-1
  0
VERTEX
  8
0
 10
670.34271240234375
 20
1165.5364990234375
 42
-1
  0
SEQEND
  0
POLYLINE
  8
0
 10
0
 20
0
 39
0
 70
1
 66
1
  0
VERTEX
  8
0
 10
663.81036376953125
 20
1252.384521484375
 42
-1
  0
VERTEX
  8
0
 10
716.41400146484375
 20
1223.5252685546875
 42
-1
  0
SEQEND
  0
POLYLINE
  8
0
 10
0
 20
0
 39
0
 70
1
 66
1
  0
VERTEX
  8
0
 10
692.05096435546875
 20
146.3980712890625
 42
1.6858545541763306
  0
VERTEX
  8
0
 10
738.48199462890625
 20
231.03068542480469
 42
-0
  0
VERTEX
  8
0
 10
674.419677734375
 20
231.14291381835937
 42
0.59317100048065186
  0
VERTEX
  8
0
 10
657.53564453125
 20
200.36741638183594
 42
0
  0
SEQEND
  0
POLYLINE
  8
0
 10
0
 20
0
 39
0
 70
1
 66
1
  0
VERTEX
  8
0
 10
682.80194091796875
 20
226.48567199707031
 42
-1
  0
VERTEX
  8
0
 10
665.96728515625
 20
195.80023193359375
 42
-1
  0
SEQEND
  0
POLYLINE
  8
0
 10
0
 20
0
 39
0
 70
1
 66
1
  0
VERTEX
  8
0
 10
752.8153076171875
 20
202.33256530761719
 42
-1
  0
VERTEX
  8
0
 10
723.95599365234375
 20
149.72897338867187
 42
-1
  0
SEQEND
  0
POLYLINE
  8
0
 10
0
 20
0
 39
0
 70
1
 66
1
  0
VERTEX
  8
0
 10
692.05096435546875
 20
796.3365478515625
 42
1.6858545541763306
  0
VERTEX
  8
0
 10
738.48199462890625
 20
880.9691162109375
 42
-0
  0
VERTEX
  8
0
 10
674.419677734375
 20
881.08135986328125
 42
0.59317100048065186
  0
VERTEX
  8
0
 10
657.53564453125
 20
850.305908203125
 42
0
  0
SEQEND
  0
POLYLINE
  8
0
 10
0
 20
0
 39
0
 70
1
 66
1
  0
VERTEX
  8
0
 10
682.80194091796875
 20
876.42413330078125
 42
-1
  0
VERTEX
  8
0
 10
665.96728515625
 20
845.73870849609375
 42
-1
  0
SEQEND
  0
POLYLINE
  8
0
 10
0
 20
0
 39
0
 70
1
 66
1
  0
VERTEX
  8
0
 10
752.8153076171875
 20
852.27105712890625
 42
-1
  0
VERTEX
  8
0
 10
723.95599365234375
 20
799.66741943359375
 42
-1
  0
SEQEND
  0
POLYLINE
  8
0
 10
0
 20
0
 39
0
 70
1
 66
1
  0
VERTEX
  8
0
 10
820.79620361328125
 20
1105.498779296875
 42
1.6858545541763306
  0
VERTEX
  8
0
 10
774.36517333984375
 20
1020.8660888671875
 42
-0
  0
VERTEX
  8
0
 10
838.42755126953125
 20
1020.75390625
 42
0.59317100048065186
  0
VERTEX
  8
0
 10
855.31158447265625
 20
1051.5294189453125
 42
0
  0
SEQEND
  0
POLYLINE
  8
0
 10
0
 20
0
 39
0
 70
1
 66
1
  0
VERTEX
  8
0
 10
830.0452880859375
 20
1025.4111328125
 42
-1
  0
VERTEX
  8
0
 10
846.8798828125
 20
1056.0965576171875
 42
-1
  0
SEQEND
  0
POLYLINE
  8
0
 10
0
 20
0
 39
0
 70
1
 66
1
  0
VERTEX
  8
0
 10
760.0318603515625
 20
1049.564208984375
 42
-1
  0
VERTEX
  8
0
 10
788.89117431640625
 20
1102.1678466796875
 42
-1
  0
SEQEND
  0
POLYLINE
  8
0
 10
0
 20
0
 39
0
 70
1
 66
1
  0
VERTEX
  8
0
 10
792.02020263671875
 20
1404.4595947265625
 42
1.6858545541763306
  0
VERTEX
  8
0
 10
838.45123291015625
 20
1489.0921630859375
 42
-0
  0
VERTEX
  8
0
 10
774.38885498046875
 20
1489.2044677734375
 42
0.59317100048065186
  0
VERTEX
  8
0
 10
757.5048828125
 20
1458.428955078125
 42
0
  0
SEQEND
  0
POLYLINE
  8
0
 10
0
 20
0
 39
0
 70
1
 66
1
  0
VERTEX
  8
0
 10
782.7711181640625
 20
1484.5472412109375
 42
-1
  0
VERTEX
  8
0
 10
765.9365234375
 20
1453.86181640625
 42
-1
  0
SEQEND
  0
POLYLINE
  8
0
 10
0
 20
0
 39
0
 70
1
 66
1
  0
VERTEX
  8
0
 10
852.7845458984375
 20
1460.3941650390625
 42
-1
  0
VERTEX
  8
0
 10
823.92523193359375
 20
1407.79052734375
 42
-1
  0
SEQEND
  0
POLYLINE
  8
0
 10
0
 20
0
 39
0
 70
1
 66
1
  0
VERTEX
  8
0
 10
1124.88330078125
 20
1123.22021484375
 42
1.6858545541763306
  0
VERTEX
  8
0
 10
1040.250732421875
 20
1169.6512451171875
 42
-0
  0
VERTEX
  8
0
 10
1040.1385498046875
 20
1105.5888671875
 42
0.59317100048065186
  0
VERTEX
  8
0
 10
1070.9139404296875
 20
1088.704833984375
 42
0
  0
SEQEND
  0
POLYLINE
  8
0
 10
0
 20
0
 39
0
 70
1
 66
1
  0
VERTEX
  8
0
 10
1044.7957763671875
 20
1113.97119140625
 42
-1
  0
VERTEX
  8
0
 10
1075.481201171875
 20
1097.1365966796875
 42
-1
  0
SEQEND
  0
POLYLINE
  8
0
 10
0
 20
0
 39
0
 70
1
 66
1
  0
VERTEX
  8
0
 10
1068.9488525390625
 20
1183.9844970703125
 42
-1
  0
VERTEX
  8
0
 10
1121.552490234375
 20
1155.125244140625
 42
-1
  0
SEQEND
  0
POLYLINE
  8
0
 10
0
 20
0
 39
0
 70
1
 66
1
  0
VERTEX
  8
0
 10
1132.358642578125
 20
1404.736572265625
 42
1.6858545541763306
  0
VERTEX
  8
0
 10
1178.7896728515625
 20
1489.369140625
 42
-0
  0
VERTEX
  8
0
 10
1114.727294921875
 20
1489.4813232421875
 42
0.59317100048065186
  0
VERTEX
  8
0
 10
1097.8433837890625
 20
1458.7059326171875
 42
0
  0
SEQEND
  0
POLYLINE
  8
0
 10
0
 20
0
 39
0
 70
1
 66
1
  0
VERTEX
  8
0
 10
1123.109619140625
 20
1484.8240966796875
 42
-1
  0
VERTEX
  8
0
 10
1106.2750244140625
 20
1454.138671875
 42
-1
  0
SEQEND
  0
POLYLINE
  8
0
 10
0
 20
0
 39
0
 70
1
 66
1
  0
VERTEX
  8
0
 10
1193.123046875
 20
1460.6710205078125
 42
-1
  0
VERTEX
  8
0
 10
1164.263671875
 20
1408.0673828125
 42
-1
  0
SEQEND
  0
POLYLINE
  8
0
 10
0
 20
0
 39
0
 70
1
 66
1
  0
VERTEX
  8
0
 10
1202.420166015625
 20
146.3980712890625
 42
1.6858545541763306
  0
VERTEX
  8
0
 10
1248.8511962890625
 20
231.03068542480469
 42
-0
  0
VERTEX
  8
0
 10
1184.7889404296875
 20
231.14291381835937
 42
0.59317100048065186
  0
VERTEX
  8
0
 10
1167.9049072265625
 20
200.36741638183594
 42
0
  0
SEQEND
  0
POLYLINE
  8
0
 10
0
 20
0
 39
0
 70
1
 66
1
  0
VERTEX
  8
0
 10
1193.171142578125
 20
226.48567199707031
 42
-1
  0
VERTEX
  8
0
 10
1176.3365478515625
 20
195.80023193359375
 42
-1
  0
SEQEND
  0
POLYLINE
  8
0
 10
0
 20
0
 39
0
 70
1
 66
1
  0
VERTEX
  8
0
 10
1263.1845703125
 20
202.33256530761719
 42
-1
  0
VERTEX
  8
0
 10
1234.3251953125
 20
149.72897338867187
 42
-1
  0
SEQEND
  0
POLYLINE
  8
0
 10
0
 20
0
 39
0
 70
1
 66
1
  0
VERTEX
  8
0
 10
1202.420166015625
 20
796.3365478515625
 42
1.6858545541763306
  0
VERTEX
  8
0
 10
1248.8511962890625
 20
880.9691162109375
 42
-0
  0
VERTEX
  8
0
 10
1184.7889404296875
 20
881.08135986328125
 42
0.59317100048065186
  0
VERTEX
  8
0
 10
1167.9049072265625
 20
850.305908203125
 42
0
  0
SEQEND
  0
POLYLINE
  8
0
 10
0
 20
0
 39
0
 70
1
 66
1
  0
VERTEX
  8
0
 10
1193.171142578125
 20
876.42413330078125
 42
-1
  0
VERTEX
  8
0
 10
1176.3365478515625
 20
845.73870849609375
 42
-1
  0
SEQEND
  0
POLYLINE
  8
0
 10
0
 20
0
 39
0
 70
1
 66
1
  0
VERTEX
  8
0
 10
1263.1845703125
 20
852.27105712890625
 42
-1
  0
VERTEX
  8
0
 10
1234.3251953125
 20
799.66741943359375
 42
-1
  0
SEQEND
  0
POLYLINE
  8
0
 10
0
 20
0
 39
0
 70
1
 66
1
  0
VERTEX
  8
0
 10
1290.1807861328125
 20
1105.498779296875
 42
1.6858545541763306
  0
VERTEX
  8
0
 10
1243.749755859375
 20
1020.8660888671875
 42
-0
  0
VERTEX
  8
0
 10
1307.8121337890625
 20
1020.75390625
 42
0.59317100048065186
  0
VERTEX
  8
0
 10
1324.6961669921875
 20
1051.5294189453125
 42
0
  0
SEQEND
  0
POLYLINE
  8
0
 10
0
 20
0
 39
0
 70
1
 66
1
  0
VERTEX
  8
0
 10
1299.429931640625
 20
1025.4111328125
 42
-1
  0
VERTEX
  8
0
 10
1316.2645263671875
 20
1056.0965576171875
 42
-1
  0
SEQEND
  0
POLYLINE
  8
0
 10
0
 20
0
 39
0
 70
1
 66
1
  0
VERTEX
  8
0
 10
1229.41650390625
 20
1049.564208984375
 42
-1
  0
VERTEX
  8
0
 10
1258.2757568359375
 20
1102.1678466796875
 42
-1
  0
SEQEND
  0
POLYLINE
  8
0
 10
0
 20
0
 39
0
 70
1
 66
1
  0
VERTEX
  8
0
 10
1530.0218505859375
 20
1191.34326171875
 42
1.6858545541763306
  0
VERTEX
  8
0
 10
1445.38916015625
 20
1237.7742919921875
 42
-0
  0
VERTEX
  8
0
 10
1445.2769775390625
 20
1173.7119140625
 42
0.59317100048065186
  0
VERTEX
  8
0
 10
1476.052490234375
 20
1156.8280029296875
 42
0
  0
SEQEND
  0
POLYLINE
  8
0
 10
0
 20
0
 39
0
 70
1
 66
1
  0
VERTEX
  8
0
 10
1449.9342041015625
 20
1182.09423828125
 42
-1
  0
VERTEX
  8
0
 10
1480.61962890625
 20
1165.2596435546875
 42
-1
  0
SEQEND
  0
POLYLINE
  8
0
 10
0
 20
0
 39
0
 70
1
 66
1
  0
VERTEX
  8
0
 10
1474.0872802734375
 20
1252.107666015625
 42
-1
  0
VERTEX
  8
0
 10
1526.69091796875
 20
1223.248291015625
 42
-1
  0
SEQEND
  0
POLYLINE
  8
0
 10
0
 20
0
 39
0
 70
1
 66
1
  0
VERTEX
  8
0
 10
1631.0731201171875
 20
1105.498779296875
 42
1.6858545541763306
  0
VERTEX
  8
0
 10
1584.64208984375
 20
1020.8660888671875
 42
-0
  0
VERTEX
  8
0
 10
1648.7044677734375
 20
1020.75390625
 42
0.59317100048065186
  0
VERTEX
  8
0
 10
1665.5885009765625
 20
1051.5294189453125
 42
0
  0
SEQEND
  0
POLYLINE
  8
0
 10
0
 20
0
 39
0
 70
1
 66
1
  0
VERTEX
  8
0
 10
1640.322265625
 20
1025.4111328125
 42
-1
  0
VERTEX
  8
0
 10
1657.1568603515625
 20
1056.0965576171875
 42
-1
  0
SEQEND
  0
POLYLINE
  8
0
 10
0
 20
0
 39
0
 70
1
 66
1
  0
VERTEX
  8
0
 10
1570.308837890625
 20
1049.564208984375
 42
-1
  0
VERTEX
  8
0
 10
1599.1680908203125
 20
1102.1678466796875
 42
-1
  0
SEQEND
  0
POLYLINE
  8
0
 10
0
 20
0
 39
0
 70
1
 66
1
  0
VERTEX
  8
0
 10
1602.297119140625
 20
1404.4595947265625
 42
1.6858545541763306
  0
VERTEX
  8
0
 10
1648.7281494140625
 20
1489.0921630859375
 42
-0
  0
VERTEX
  8
0
 10
1584.665771484375
 20
1489.2044677734375
 42
0.59317100048065186
  0
VERTEX
  8
0
 10
1567.78173828125
 20
1458.428955078125
 42
0
  0
SEQEND
  0
POLYLINE
  8
0
 10
0
 20
0
 39
0
 70
1
 66
1
  0
VERTEX
  8
0
 10
1593.048095703125
 20
1484.5472412109375
 42
-1
  0
VERTEX
  8
0
 10
1576.2135009765625
 20
1453.86181640625
 42
-1
  0
SEQEND
  0
POLYLINE
  8
0
 10
0
 20
0
 39
0
 70
1
 66
1
  0
VERTEX
  8
0
 10
1663.0615234375
 20
1460.3941650390625
 42
-1
  0
VERTEX
  8
0
 10
1634.2021484375
 20
1407.79052734375
 42
-1
  0
SEQEND
  0
POLYLINE
  8
0
 10
0
 20
0
 39
0
 70
1
 66
1
  0
VERTEX
  8
0
 10
1712.7894287109375
 20
146.3980712890625
 42
1.6858545541763306
  0
VERTEX
  8
0
 10
1759.220458984375
 20
231.03068542480469
 42
-0
  0
VERTEX
  8
0
 10
1695.1580810546875
 20
231.14291381835937
 42
0.59317100048065186
  0
VERTEX
  8
0
 10
1678.2740478515625
 20
200.36741638183594
 42
0
  0
SEQEND
  0
POLYLINE
  8
0
 10
0
 20
0
 39
0
 70
1
 66
1
  0
VERTEX
  8
0
 10
1703.5404052734375
 20
226.48567199707031
 42
-1
  0
VERTEX
  8
0
 10
1686.705810546875
 20
195.80023193359375
 42
-1
  0
SEQEND
  0
POLYLINE
  8
0
 10
0
 20
0
 39
0
 70
1
 66
1
  0
VERTEX
  8
0
 10
1773.5538330078125
 20
202.33256530761719
 42
-1
  0
VERTEX
  8
0
 10
1744.6944580078125
 20
149.72897338867187
 42
-1
  0
SEQEND
  0
POLYLINE
  8
0
 10
0
 20
0
 39
0
 70
1
 66
1
  0
VERTEX
  8
0
 10
1712.7894287109375
 20
796.3365478515625
 42
1.6858545541763306
  0
VERTEX
  8
0
 10
1759.220458984375
 20
880.9691162109375
 42
-0
  0
VERTEX
  8
0
 10
1695.1580810546875
 20
881.08135986328125
 42
0.59317100048065186
  0
VERTEX
  8
0
 10
1678.2740478515625
 20
850.305908203125
 42
0
  0
SEQEND
  0
POLYLINE
  8
0
 10
0
 20
0
 39
0
 70
1
 66
1
  0
VERTEX
  8
0
 10
1703.5404052734375
 20
876.42413330078125
 42
-1
  0
VERTEX
  8
0
 10
1686.705810546875
 20
845.73870849609375
 42
-1
  0
SEQEND
  0
POLYLINE
  8
0
 10
0
 20
0
 39
0
 70
1
 66
1
  0
VERTEX
  8
0
 10
1773.5538330078125
 20
852.27105712890625
 42
-1
  0
VERTEX
  8
0
 10
1744.6944580078125
 20
799.66741943359375
 42
-1
  0
SEQEND
  0
POLYLINE
  8
0
 10
0
 20
0
 39
0
 70
1
 66
1
  0
VERTEX
  8
0
 10
1935.1602783203125
 20
1123.22021484375
 42
1.6858545541763306
  0
VERTEX
  8
0
 10
1850.527587890625
 20
1169.6512451171875
 42
-0
  0
VERTEX
  8
0
 10
1850.4154052734375
 20
1105.5888671875
 42
0.59317100048065186
  0
VERTEX
  8
0
 10
1881.19091796875
 20
1088.704833984375
 42
0
  0
SEQEND
  0
POLYLINE
  8
0
 10
0
 20
0
 39
0
 70
1
 66
1
  0
VERTEX
  8
0
 10
1855.0726318359375
 20
1113.97119140625
 42
-1
  0
VERTEX
  8
0
 10
1885.758056640625
 20
1097.1365966796875
 42
-1
  0
SEQEND
  0
POLYLINE
  8
0
 10
0
 20
0
 39
0
 70
1
 66
1
  0
VERTEX
  8
0
 10
1879.2257080078125
 20
1183.9844970703125
 42
-1
  0
VERTEX
  8
0
 10
1931.829345703125
 20
1155.125244140625
 42
-1
  0
SEQEND
  0
POLYLINE
  8
0
 10
0
 20
0
 39
0
 70
1
 66
1
  0
VERTEX
  8
0
 10
1942.6356201171875
 20
1404.736572265625
 42
1.6858545541763306
  0
VERTEX
  8
0
 10
1989.066650390625
 20
1489.369140625
 42
-0
  0
VERTEX
  8
0
 10
1925.0042724609375
 20
1489.4813232421875
 42
0.59317100048065186
  0
VERTEX
  8
0
 10
1908.1202392578125
 20
1458.7059326171875
 42
0
  0
SEQEND
  0
POLYLINE
  8
0
 10
0
 20
0
 39
0
 70
1
 66
1
  0
VERTEX
  8
0
 10
1933.386474609375
 20
1484.8240966796875
 42
-1
  0
VERTEX
  8
0
 10
1916.5518798828125
 20
1454.138671875
 42
-1
  0
SEQEND
  0
POLYLINE
  8
0
 10
0
 20
0
 39
0
 70
1
 66
1
  0
VERTEX
  8
0
 10
2003.39990234375
 20
1460.6710205078125
 42
-1
  0
VERTEX
  8
0
 10
1974.5406494140625
 20
1408.0673828125
 42
-1
  0
SEQEND
  0
POLYLINE
  8
0
 10
0
 20
0
 39
0
 70
1
 66
1
  0
VERTEX
  8
0
 10
2100.457763671875
 20
1105.498779296875
 42
1.6858545541763306
  0
VERTEX
  8
0
 10
2054.026611328125
 20
1020.8660888671875
 42
-0
  0
VERTEX
  8
0
 10
2118.089111328125
 20
1020.75390625
 42
0.59317100048065186
  0
VERTEX
  8
0
 10
2134.97314453125
 20
1051.5294189453125
 42
0
  0
SEQEND
  0
POLYLINE
  8
0
 10
0
 20
0
 39
0
 70
1
 66
1
  0
VERTEX
  8
0
 10
2109.706787109375
 20
1025.4111328125
 42
-1
  0
VERTEX
  8
0
 10
2126.54150390625
 20
1056.0965576171875
 42
-1
  0
SEQEND
  0
POLYLINE
  8
0
 10
0
 20
0
 39
0
 70
1
 66
1
  0
VERTEX
  8
0
 10
2039.693359375
 20
1049.564208984375
 42
-1
  0
VERTEX
  8
0
 10
2068.552734375
 20
1102.1678466796875
 42
-1
  0
SEQEND
  0
POLYLINE
  8
0
 10
0
 20
0
 39
0
 70
1
 66
1
  0
VERTEX
  8
0
 10
2223.15869140625
 20
146.3980712890625
 42
1.6858545541763306
  0
VERTEX
  8
0
 10
2269.589599609375
 20
231.03068542480469
 42
-0
  0
VERTEX
  8
0
 10
2205.52734375
 20
231.14291381835937
 42
0.59317100048065186
  0
VERTEX
  8
0
 10
2188.643310546875
 20
200.36741638183594
 42
0
  0
SEQEND
  0
POLYLINE
  8
0
 10
0
 20
0
 39
0
 70
1
 66
1
  0
VERTEX
  8
0
 10
2213.90966796875
 20
226.48567199707031
 42
-1
  0
VERTEX
  8
0
 10
2197.074951171875
 20
195.80023193359375
 42
-1
  0
SEQEND
  0
POLYLINE
  8
0
 10
0
 20
0
 39
0
 70
1
 66
1
  0
VERTEX
  8
0
 10
2283.923095703125
 20
202.33256530761719
 42
-1
  0
VERTEX
  8
0
 10
2255.063720703125
 20
149.72897338867187
 42
-1
  0
SEQEND
  0
POLYLINE
  8
0
 10
0
 20
0
 39
0
 70
1
 66
1
  0
VERTEX
  8
0
 10
2223.15869140625
 20
796.3365478515625
 42
1.6858545541763306
  0
VERTEX
  8
0
 10
2269.589599609375
 20
880.9691162109375
 42
-0
  0
VERTEX
  8
0
 10
2205.52734375
 20
881.08135986328125
 42
0.59317100048065186
  0
VERTEX
  8
0
 10
2188.643310546875
 20
850.305908203125
 42
0
  0
SEQEND
  0
POLYLINE
  8
0
 10
0
 20
0
 39
0
 70
1
 66
1
  0
VERTEX
  8
0
 10
2213.90966796875
 20
876.42413330078125
 42
-1
  0
VERTEX
  8
0
 10
2197.074951171875
 20
845.73870849609375
 42
-1
  0
SEQEND
  0
POLYLINE
  8
0
 10
0
 20
0
 39
0
 70
1
 66
1
  0
VERTEX
  8
0
 10
2283.923095703125
 20
852.27105712890625
 42
-1
  0
VERTEX
  8
0
 10
2255.063720703125
 20
799.66741943359375
 42
-1
  0
SEQEND
  0
POLYLINE
  8
0
 10
0
 20
0
 39
0
 70
1
 66
1
  0
VERTEX
  8
0
 10
2340.298828125
 20
1191.34326171875
 42
1.6858545541763306
  0
VERTEX
  8
0
 10
2255.666015625
 20
1237.7742919921875
 42
-0
  0
VERTEX
  8
0
 10
2255.553955078125
 20
1173.7119140625
 42
0.59317100048065186
  0
VERTEX
  8
0
 10
2286.329345703125
 20
1156.8280029296875
 42
0
  0
SEQEND
  0
POLYLINE
  8
0
 10
0
 20
0
 39
0
 70
1
 66
1
  0
VERTEX
  8
0
 10
2260.211181640625
 20
1182.09423828125
 42
-1
  0
VERTEX
  8
0
 10
2290.896484375
 20
1165.2596435546875
 42
-1
  0
SEQEND
  0
POLYLINE
  8
0
 10
0
 20
0
 39
0
 70
1
 66
1
  0
VERTEX
  8
0
 10
2284.3642578125
 20
1252.107666015625
 42
-1
  0
VERTEX
  8
0
 10
2336.9677734375
 20
1223.248291015625
 42
-1
  0
SEQEND
  0
POLYLINE
  8
0
 10
0
 20
0
 39
0
 70
1
 66
1
  0
VERTEX
  8
0
 10
2441.35009765625
 20
1105.498779296875
 42
1.6858545541763306
  0
VERTEX
  8
0
 10
2394.9189453125
 20
1020.8660888671875
 42
-0
  0
VERTEX
  8
0
 10
2458.9814453125
 20
1020.75390625
 42
0.59317100048065186
  0
VERTEX
  8
0
 10
2475.865478515625
 20
1051.5294189453125
 42
0
  0
SEQEND
  0
POLYLINE
  8
0
 10
0
 20
0
 39
0
 70
1
 66
1
  0
VERTEX
  8
0
 10
2450.59912109375
 20
1025.4111328125
 42
-1
  0
VERTEX
  8
0
 10
2467.433837890625
 20
1056.0965576171875
 42
-1
  0
SEQEND
  0
POLYLINE
  8
0
 10
0
 20
0
 39
0
 70
1
 66
1
  0
VERTEX
  8
0
 10
2380.585693359375
 20
1049.564208984375
 42
-1
  0
VERTEX
  8
0
 10
2409.445068359375
 20
1102.1678466796875
 42
-1
  0
SEQEND
  0
POLYLINE
  8
0
 10
0
 20
0
 39
0
 70
1
 66
1
  0
VERTEX
  8
0
 10
2412.573974609375
 20
1404.4595947265625
 42
1.6858545541763306
  0
VERTEX
  8
0
 10
2459.005126953125
 20
1489.0921630859375
 42
-0
  0
VERTEX
  8
0
 10
2394.942626953125
 20
1489.2044677734375
 42
0.59317100048065186
  0
VERTEX
  8
0
 10
2378.05859375
 20
1458.428955078125
 42
0
  0
SEQEND
  0
POLYLINE
  8
0
 10
0
 20
0
 39
0
 70
1
 66
1
  0
VERTEX
  8
0
 10
2403.324951171875
 20
1484.5472412109375
 42
-1
  0
VERTEX
  8
0
 10
2386.490478515625
 20
1453.86181640625
 42
-1
  0
SEQEND
  0
POLYLINE
  8
0
 10
0
 20
0
 39
0
 70
1
 66
1
  0
VERTEX
  8
0
 10
2473.33837890625
 20
1460.3941650390625
 42
-1
  0
VERTEX
  8
0
 10
2444.47900390625
 20
1407.79052734375
 42
-1
  0
SEQEND
  0
POLYLINE
  8
0
 10
0
 20
0
 39
0
 70
1
 66
1
  0
VERTEX
  8
0
 10
2745.437255859375
 20
1123.22021484375
 42
1.6858545541763306
  0
VERTEX
  8
0
 10
2660.8046875
 20
1169.6512451171875
 42
-0
  0
VERTEX
  8
0
 10
2660.6923828125
 20
1105.5888671875
 42
0.59317100048065186
  0
VERTEX
  8
0
 10
2691.4677734375
 20
1088.704833984375
 42
0
  0
SEQEND
  0
POLYLINE
  8
0
 10
0
 20
0
 39
0
 70
1
 66
1
  0
VERTEX
  8
0
 10
2665.349609375
 20
1113.97119140625
 42
-1
  0
VERTEX
  8
0
 10
2696.034912109375
 20
1097.1365966796875
 42
-1
  0
SEQEND
  0
POLYLINE
  8
0
 10
0
 20
0
 39
0
 70
1
 66
1
  0
VERTEX
  8
0
 10
2689.502685546875
 20
1183.9844970703125
 42
-1
  0
VERTEX
  8
0
 10
2742.106201171875
 20
1155.125244140625
 42
-1
  0
SEQEND
  0
POLYLINE
  8
0
 10
0
 20
0
 39
0
 70
1
 66
1
  0
VERTEX
  8
0
 10
2733.52783203125
 20
146.3980712890625
 42
1.6858545541763306
  0
VERTEX
  8
0
 10
2779.958984375
 20
231.03068542480469
 42
-0
  0
VERTEX
  8
0
 10
2715.896484375
 20
231.14291381835937
 42
0.59317100048065186
  0
VERTEX
  8
0
 10
2699.012451171875
 20
200.36741638183594
 42
0
  0
SEQEND
  0
POLYLINE
  8
0
 10
0
 20
0
 39
0
 70
1
 66
1
  0
VERTEX
  8
0
 10
2724.27880859375
 20
226.48567199707031
 42
-1
  0
VERTEX
  8
0
 10
2707.4443359375
 20
195.80023193359375
 42
-1
  0
SEQEND
  0
POLYLINE
  8
0
 10
0
 20
0
 39
0
 70
1
 66
1
  0
VERTEX
  8
0
 10
2794.292236328125
 20
202.33256530761719
 42
-1
  0
VERTEX
  8
0
 10
2765.432861328125
 20
149.72897338867187
 42
-1
  0
SEQEND
  0
POLYLINE
  8
0
 10
0
 20
0
 39
0
 70
1
 66
1
  0
VERTEX
  8
0
 10
2733.52783203125
 20
796.3365478515625
 42
1.6858545541763306
  0
VERTEX
  8
0
 10
2779.958984375
 20
880.9691162109375
 42
-0
  0
VERTEX
  8
0
 10
2715.896484375
 20
881.08135986328125
 42
0.59317100048065186
  0
VERTEX
  8
0
 10
2699.012451171875
 20
850.305908203125
 42
0
  0
SEQEND
  0
POLYLINE
  8
0
 10
0
 20
0
 39
0
 70
1
 66
1
  0
VERTEX
  8
0
 10
2724.27880859375
 20
876.42413330078125
 42
-1
  0
VERTEX
  8
0
 10
2707.4443359375
 20
845.73870849609375
 42
-1
  0
SEQEND
  0
POLYLINE
  8
0
 10
0
 20
0
 39
0
 70
1
 66
1
  0
VERTEX
  8
0
 10
2794.292236328125
 20
852.27105712890625
 42
-1
  0
VERTEX
  8
0
 10
2765.432861328125
 20
799.66741943359375
 42
-1
  0
SEQEND
  0
POLYLINE
  8
0
 10
0
 20
0
 39
0
 70
1
 66
1
  0
VERTEX
  8
0
 10
2752.91259765625
 20
1404.736572265625
 42
1.6858545541763306
  0
VERTEX
  8
0
 10
2799.343505859375
 20
1489.369140625
 42
-0
  0
VERTEX
  8
0
 10
2735.28125
 20
1489.4813232421875
 42
0.59317100048065186
  0
VERTEX
  8
0
 10
2718.397216796875
 20
1458.7059326171875
 42
0
  0
SEQEND
  0
POLYLINE
  8
0
 10
0
 20
0
 39
0
 70
1
 66
1
  0
VERTEX
  8
0
 10
2743.663330078125
 20
1484.8240966796875
 42
-1
  0
VERTEX
  8
0
 10
2726.828857421875
 20
1454.138671875
 42
-1
  0
SEQEND
  0
POLYLINE
  8
0
 10
0
 20
0
 39
0
 70
1
 66
1
  0
VERTEX
  8
0
 10
2813.6767578125
 20
1460.6710205078125
 42
-1
  0
VERTEX
  8
0
 10
2784.817626953125
 20
1408.0673828125
 42
-1
  0
SEQEND
  0
POLYLINE
  8
0
 10
0
 20
0
 39
0
 70
1
 66
1
  0
VERTEX
  8
0
 10
2910.734619140625
 20
1105.498779296875
 42
1.6858545541763306
  0
VERTEX
  8
0
 10
2864.3037109375
 20
1020.8660888671875
 42
-0
  0
VERTEX
  8
0
 10
2928.365966796875
 20
1020.75390625
 42
0.59317100048065186
  0
VERTEX
  8
0
 10
2945.25
 20
1051.5294189453125
 42
0
  0
SEQEND
  0
POLYLINE
  8
0
 10
0
 20
0
 39
0
 70
1
 66
1
  0
VERTEX
  8
0
 10
2919.983642578125
 20
1025.4111328125
 42
-1
  0
VERTEX
  8
0
 10
2936.818359375
 20
1056.0965576171875
 42
-1
  0
SEQEND
  0
POLYLINE
  8
0
 10
0
 20
0
 39
0
 70
1
 66
1
  0
VERTEX
  8
0
 10
2849.97021484375
 20
1049.564208984375
 42
-1
  0
VERTEX
  8
0
 10
2878.82958984375
 20
1102.1678466796875
 42
-1
  0
SEQEND
  0
POLYLINE
  8
0
 10
0
 20
0
 39
0
 70
1
 66
1
  0
VERTEX
  8
0
 10
3150.57568359375
 20
1191.34326171875
 42
1.6858545541763306
  0
VERTEX
  8
0
 10
3065.943115234375
 20
1237.7742919921875
 42
-0
  0
VERTEX
  8
0
 10
3065.830810546875
 20
1173.7119140625
 42
0.59317100048065186
  0
VERTEX
  8
0
 10
3096.606201171875
 20
1156.8280029296875
 42
0
  0
SEQEND
  0
POLYLINE
  8
0
 10
0
 20
0
 39
0
 70
1
 66
1
  0
VERTEX
  8
0
 10
3070.488037109375
 20
1182.09423828125
 42
-1
  0
VERTEX
  8
0
 10
3101.173583984375
 20
1165.2596435546875
 42
-1
  0
SEQEND
  0
POLYLINE
  8
0
 10
0
 20
0
 39
0
 70
1
 66
1
  0
VERTEX
  8
0
 10
3094.64111328125
 20
1252.107666015625
 42
-1
  0
VERTEX
  8
0
 10
3147.24462890625
 20
1223.248291015625
 42
-1
  0
SEQEND
  0
POLYLINE
  8
0
 10
0
 20
0
 39
0
 70
1
 66
1
  0
VERTEX
  8
0
 10
3243.897216796875
 20
146.3980712890625
 42
1.6858545541763306
  0
VERTEX
  8
0
 10
3290.328125
 20
231.03068542480469
 42
-0
  0
VERTEX
  8
0
 10
3226.265869140625
 20
231.14291381835937
 42
0.59317100048065186
  0
VERTEX
  8
0
 10
3209.3818359375
 20
200.36741638183594
 42
0
  0
SEQEND
  0
POLYLINE
  8
0
 10
0
 20
0
 39
0
 70
1
 66
1
  0
VERTEX
  8
0
 10
3234.64794921875
 20
226.48567199707031
 42
-1
  0
VERTEX
  8
0
 10
3217.8134765625
 20
195.80023193359375
 42
-1
  0
SEQEND
  0
POLYLINE
  8
0
 10
0
 20
0
 39
0
 70
1
 66
1
  0
VERTEX
  8
0
 10
3304.661376953125
 20
202.33256530761719
 42
-1
  0
VERTEX
  8
0
 10
3275.80224609375
 20
149.72897338867187
 42
-1
  0
SEQEND
  0
POLYLINE
  8
0
 10
0
 20
0
 39
0
 70
1
 66
1
  0
VERTEX
  8
0
 10
3243.897216796875
 20
796.3365478515625
 42
1.6858545541763306
  0
VERTEX
  8
0
 10
3290.328125
 20
880.9691162109375
 42
-0
  0
VERTEX
  8
0
 10
3226.265869140625
 20
881.08135986328125
 42
0.59317100048065186
  0
VERTEX
  8
0
 10
3209.3818359375
 20
850.305908203125
 42
0
  0
SEQEND
  0
POLYLINE
  8
0
 10
0
 20
0
 39
0
 70
1
 66
1
  0
VERTEX
  8
0
 10
3234.64794921875
 20
876.42413330078125
 42
-1
  0
VERTEX
  8
0
 10
3217.8134765625
 20
845.73870849609375
 42
-1
  0
SEQEND
  0
POLYLINE
  8
0
 10
0
 20
0
 39
0
 70
1
 66
1
  0
VERTEX
  8
0
 10
3304.661376953125
 20
852.27105712890625
 42
-1
  0
VERTEX
  8
0
 10
3275.80224609375
 20
799.66741943359375
 42
-1
  0
SEQEND
  0
POLYLINE
  8
0
 10
0
 20
0
 39
0
 70
1
 66
1
  0
VERTEX
  8
0
 10
3456.297119140625
 20
1264.0595703125
 42
1.6858545541763306
  0
VERTEX
  8
0
 10
3502.728271484375
 20
1348.6922607421875
 42
-0
  0
VERTEX
  8
0
 10
3438.665771484375
 20
1348.804443359375
 42
0.59317100048065186
  0
VERTEX
  8
0
 10
3421.78173828125
 20
1318.0289306640625
 42
0
  0
SEQEND
  0
POLYLINE
  8
0
 10
0
 20
0
 39
0
 70
1
 66
1
  0
VERTEX
  8
0
 10
3447.048095703125
 20
1344.147216796875
 42
-1
  0
VERTEX
  8
0
 10
3430.21337890625
 20
1313.4617919921875
 42
-1
  0
SEQEND
  0
POLYLINE
  8
0
 10
0
 20
0
 39
0
 70
1
 66
1
  0
VERTEX
  8
0
 10
3517.0615234375
 20
1319.994140625
 42
-1
  0
VERTEX
  8
0
 10
3488.2021484375
 20
1267.3905029296875
 42
-1
  0
SEQEND
  0
POLYLINE
  8
0
 10
0
 20
0
 39
0
 70
1
 66
1
  0
VERTEX
  8
0
 10
3500.21337890625
 20
1122.0885009765625
 42
1.6858545541763306
  0
VERTEX
  8
0
 10
3584.845947265625
 20
1075.657470703125
 42
-0
  0
VERTEX
  8
0
 10
3584.958251953125
 20
1139.7198486328125
 42
0.59317100048065186
  0
VERTEX
  8
0
 10
3554.182861328125
 20
1156.6038818359375
 42
0
  0
SEQEND
  0
POLYLINE
  8
0
 10
0
 20
0
 39
0
 70
1
 66
1
  0
VERTEX
  8
0
 10
3580.301025390625
 20
1131.337646484375
 42
-1
  0
VERTEX
  8
0
 10
3549.61572265625
 20
1148.1722412109375
 42
-1
  0
SEQEND
  0
POLYLINE
  8
0
 10
0
 20
0
 39
0
 70
1
 66
1
  0
VERTEX
  8
0
 10
3556.14794921875
 20
1061.32421875
 42
-1
  0
VERTEX
  8
0
 10
3503.54443359375
 20
1090.1834716796875
 42
-1
  0
SEQEND
  0
ENDSEC
  0
EOF
