  0
SECTION
  2
ENTITIES
  0
POLYLINE
  8
0
 10
0
 20
0
 39
0
 70
1
 66
1
  0
VERTEX
  8
0
 10
0
 20
0
 42
0
  0
VERTEX
  8
0
 10
2800
 20
0
 42
0
  0
VERTEX
  8
0
 10
2800
 20
1200
 42
0
  0
VERTEX
  8
0
 10
0
 20
1200
 42
0
  0
SEQEND
  0
POLYLINE
  8
0
 10
0
 20
0
 39
0
 70
1
 66
1
  0
VERTEX
  8
0
 10
2049.56396484375
 20
1092.3651123046875
 42
0.91633117198944092
  0
VERTEX
  8
0
 10
2063.993408203125
 20
1133.7545166015625
 42
0
  0
VERTEX
  8
0
 10
1954.9427490234375
 20
1182.8095703125
 42
0.62152963876724243
  0
VERTEX
  8
0
 10
1865.001953125
 20
1108.6566162109375
 42
0.65655827522277832
  0
VERTEX
  8
0
 10
1904.7376708984375
 20
1101.50927734375
 42
-0.10101121664047241
  0
VERTEX
  8
0
 10
1916.08154296875
 20
1112.7906494140625
 42
0
  0
VERTEX
  8
0
 10
1911.338134765625
 20
1121.27099609375
 42
0
  0
VERTEX
  8
0
 10
1945.2657470703125
 20
1129.86865234375
 42
-0
  0
VERTEX
  8
0
 10
1945.1141357421875
 20
1118.731201171875
 42
-0.017638612538576126
  0
VERTEX
  8
0
 10
1947.8717041015625
 20
1118.135009765625
 42
-0
  0
SEQEND
  0
POLYLINE
  8
0
 10
0
 20
0
 39
0
 70
1
 66
1
  0
VERTEX
  8
0
 10
1878.4180908203125
 20
1113.6910400390625
 42
-1
  0
VERTEX
  8
0
 10
1894.4180908203125
 20
1113.6910400390625
 42
-1
  0
SEQEND
  0
POLYLINE
  8
0
 10
0
 20
0
 39
0
 70
1
 66
1
  0
VERTEX
  8
0
 10
2046.9681396484375
 20
1113.6910400390625
 42
-1
  0
VERTEX
  8
0
 10
2062.968017578125
 20
1113.6910400390625
 42
-1
  0
SEQEND
  0
POLYLINE
  8
0
 10
0
 20
0
 39
0
 70
1
 66
1
  0
VERTEX
  8
0
 10
1682.674072265625
 20
37.404209136962891
 42
0.91633117198944092
  0
VERTEX
  8
0
 10
1724.0634765625
 20
22.974687576293945
 42
0
  0
VERTEX
  8
0
 10
1773.1185302734375
 20
132.02534484863281
 42
0.62152963876724243
  0
VERTEX
  8
0
 10
1698.965576171875
 20
221.96621704101563
 42
0.65655827522277832
  0
VERTEX
  8
0
 10
1691.8182373046875
 20
182.23049926757812
 42
-0.10101121664047241
  0
VERTEX
  8
0
 10
1703.099609375
 20
170.8865966796875
 42
0
  0
VERTEX
  8
0
 10
1711.5799560546875
 20
175.6300048828125
 42
0
  0
VERTEX
  8
0
 10
1720.1776123046875
 20
141.70242309570312
 42
-0
  0
VERTEX
  8
0
 10
1709.0400390625
 20
141.85404968261719
 42
-0.017638612538576126
  0
VERTEX
  8
0
 10
1708.4439697265625
 20
139.09645080566406
 42
-0
  0
SEQEND
  0
POLYLINE
  8
0
 10
0
 20
0
 39
0
 70
1
 66
1
  0
VERTEX
  8
0
 10
1704
 20
208.55000305175781
 42
-1
  0
VERTEX
  8
0
 10
1704
 20
192.55000305175781
 42
-1
  0
SEQEND
  0
POLYLINE
  8
0
 10
0
 20
0
 39
0
 70
1
 66
1
  0
VERTEX
  8
0
 10
1704
 20
40.000003814697266
 42
-1
  0
VERTEX
  8
0
 10
1704
 20
24.000001907348633
 42
-1
  0
SEQEND
  0
POLYLINE
  8
0
 10
0
 20
0
 39
0
 70
1
 66
1
  0
VERTEX
  8
0
 10
2325.426025390625
 20
715.7459716796875
 42
0
  0
VERTEX
  8
0
 10
2325.426025390625
 20
497.74600219726562
 42
0
  0
VERTEX
  8
0
 10
2395.426025390625
 20
497.74600219726562
 42
0
  0
VERTEX
  8
0
 10
2407.426025390625
 20
509.74600219726563
 42
0
  0
VERTEX
  8
0
 10
2407.426025390625
 20
703.7459716796875
 42
0
  0
VERTEX
  8
0
 10
2395.426025390625
 20
715.7459716796875
 42
0
  0
SEQEND
  0
POLYLINE
  8
0
 10
0
 20
0
 39
0
 70
1
 66
1
  0
VERTEX
  8
0
 10
2351.926025390625
 20
646.7459716796875
 42
-1
  0
VERTEX
  8
0
 10
2374.926025390625
 20
646.7459716796875
 42
-1
  0
SEQEND
  0
POLYLINE
  8
0
 10
0
 20
0
 39
0
 70
1
 66
1
  0
VERTEX
  8
0
 10
2351.926025390625
 20
586.7459716796875
 42
-1
  0
VERTEX
  8
0
 10
2374.926025390625
 20
586.7459716796875
 42
-1
  0
SEQEND
  0
POLYLINE
  8
0
 10
0
 20
0
 39
0
 70
1
 66
1
  0
VERTEX
  8
0
 10
2068.277099609375
 20
1068
 42
0
  0
VERTEX
  8
0
 10
2068.277099609375
 20
850
 42
0
  0
VERTEX
  8
0
 10
2138.277099609375
 20
850
 42
0
  0
VERTEX
  8
0
 10
2150.277099609375
 20
862
 42
0
  0
VERTEX
  8
0
 10
2150.277099609375
 20
1056
 42
0
  0
VERTEX
  8
0
 10
2138.277099609375
 20
1068
 42
0
  0
SEQEND
  0
POLYLINE
  8
0
 10
0
 20
0
 39
0
 70
1
 66
1
  0
VERTEX
  8
0
 10
2094.777099609375
 20
999
 42
-1
  0
VERTEX
  8
0
 10
2117.777099609375
 20
999
 42
-1
  0
SEQEND
  0
POLYLINE
  8
0
 10
0
 20
0
 39
0
 70
1
 66
1
  0
VERTEX
  8
0
 10
2094.777099609375
 20
939
 42
-1
  0
VERTEX
  8
0
 10
2117.777099609375
 20
939
 42
-1
  0
SEQEND
  0
POLYLINE
  8
0
 10
0
 20
0
 39
0
 70
1
 66
1
  0
VERTEX
  8
0
 10
2208.5859375
 20
630
 42
0
  0
VERTEX
  8
0
 10
2013.5860595703125
 20
630
 42
0
  0
VERTEX
  8
0
 10
2013.5860595703125
 20
430
 42
0
  0
VERTEX
  8
0
 10
2208.5859375
 20
430
 42
0
  0
SEQEND
  0
POLYLINE
  8
0
 10
0
 20
0
 39
0
 70
1
 66
1
  0
VERTEX
  8
0
 10
2043.5860595703125
 20
564.5
 42
-1
  0
VERTEX
  8
0
 10
2043.5860595703125
 20
545.5
 42
-1
  0
SEQEND
  0
POLYLINE
  8
0
 10
0
 20
0
 39
0
 70
1
 66
1
  0
VERTEX
  8
0
 10
2043.5860595703125
 20
514.5
 42
-1
  0
VERTEX
  8
0
 10
2043.5860595703125
 20
495.5
 42
-1
  0
SEQEND
  0
POLYLINE
  8
0
 10
0
 20
0
 39
0
 70
1
 66
1
  0
VERTEX
  8
0
 10
2223.426025390625
 20
840
 42
0
  0
VERTEX
  8
0
 10
2028.4261474609375
 20
840
 42
0
  0
VERTEX
  8
0
 10
2028.4261474609375
 20
640
 42
0
  0
VERTEX
  8
0
 10
2223.426025390625
 20
640
 42
0
  0
SEQEND
  0
POLYLINE
  8
0
 10
0
 20
0
 39
0
 70
1
 66
1
  0
VERTEX
  8
0
 10
2058.426025390625
 20
774.5
 42
-1
  0
VERTEX
  8
0
 10
2058.426025390625
 20
755.5
 42
-1
  0
SEQEND
  0
POLYLINE
  8
0
 10
0
 20
0
 39
0
 70
1
 66
1
  0
VERTEX
  8
0
 10
2058.426025390625
 20
724.5
 42
-1
  0
VERTEX
  8
0
 10
2058.426025390625
 20
705.5
 42
-1
  0
SEQEND
  0
POLYLINE
  8
0
 10
0
 20
0
 39
0
 70
1
 66
1
  0
VERTEX
  8
0
 10
2160.277099609375
 20
1068
 42
0
  0
VERTEX
  8
0
 10
2160.277099609375
 20
850
 42
0
  0
VERTEX
  8
0
 10
2230.277099609375
 20
850
 42
0
  0
VERTEX
  8
0
 10
2242.277099609375
 20
862
 42
0
  0
VERTEX
  8
0
 10
2242.277099609375
 20
1056
 42
0
  0
VERTEX
  8
0
 10
2230.277099609375
 20
1068
 42
0
  0
SEQEND
  0
POLYLINE
  8
0
 10
0
 20
0
 39
0
 70
1
 66
1
  0
VERTEX
  8
0
 10
2186.777099609375
 20
999
 42
-1
  0
VERTEX
  8
0
 10
2209.777099609375
 20
999
 42
-1
  0
SEQEND
  0
POLYLINE
  8
0
 10
0
 20
0
 39
0
 70
1
 66
1
  0
VERTEX
  8
0
 10
2186.777099609375
 20
939
 42
-1
  0
VERTEX
  8
0
 10
2209.777099609375
 20
939
 42
-1
  0
SEQEND
  0
POLYLINE
  8
0
 10
0
 20
0
 39
0
 70
1
 66
1
  0
VERTEX
  8
0
 10
2550.5859375
 20
456
 42
0
  0
VERTEX
  8
0
 10
2550.5859375
 20
238
 42
0
  0
VERTEX
  8
0
 10
2620.5859375
 20
238
 42
0
  0
VERTEX
  8
0
 10
2632.5859375
 20
250
 42
0
  0
VERTEX
  8
0
 10
2632.5859375
 20
444
 42
0
  0
VERTEX
  8
0
 10
2620.5859375
 20
456
 42
0
  0
SEQEND
  0
POLYLINE
  8
0
 10
0
 20
0
 39
0
 70
1
 66
1
  0
VERTEX
  8
0
 10
2577.0859375
 20
387
 42
-1
  0
VERTEX
  8
0
 10
2600.0859375
 20
387
 42
-1
  0
SEQEND
  0
POLYLINE
  8
0
 10
0
 20
0
 39
0
 70
1
 66
1
  0
VERTEX
  8
0
 10
2577.0859375
 20
327
 42
-1
  0
VERTEX
  8
0
 10
2600.0859375
 20
327
 42
-1
  0
SEQEND
  0
POLYLINE
  8
0
 10
0
 20
0
 39
0
 70
1
 66
1
  0
VERTEX
  8
0
 10
2631.106201171875
 20
684
 42
0
  0
VERTEX
  8
0
 10
2631.106201171875
 20
466
 42
0
  0
VERTEX
  8
0
 10
2701.106201171875
 20
466
 42
0
  0
VERTEX
  8
0
 10
2713.106201171875
 20
478
 42
0
  0
VERTEX
  8
0
 10
2713.106201171875
 20
672
 42
0
  0
VERTEX
  8
0
 10
2701.106201171875
 20
684
 42
0
  0
SEQEND
  0
POLYLINE
  8
0
 10
0
 20
0
 39
0
 70
1
 66
1
  0
VERTEX
  8
0
 10
2657.606201171875
 20
615
 42
-1
  0
VERTEX
  8
0
 10
2680.606201171875
 20
615
 42
-1
  0
SEQEND
  0
POLYLINE
  8
0
 10
0
 20
0
 39
0
 70
1
 66
1
  0
VERTEX
  8
0
 10
2657.606201171875
 20
555
 42
-1
  0
VERTEX
  8
0
 10
2680.606201171875
 20
555
 42
-1
  0
SEQEND
  0
POLYLINE
  8
0
 10
0
 20
0
 39
0
 70
1
 66
1
  0
VERTEX
  8
0
 10
2252.277099609375
 20
943.7459716796875
 42
0
  0
VERTEX
  8
0
 10
2252.277099609375
 20
725.7459716796875
 42
0
  0
VERTEX
  8
0
 10
2322.277099609375
 20
725.7459716796875
 42
0
  0
VERTEX
  8
0
 10
2334.277099609375
 20
737.7459716796875
 42
0
  0
VERTEX
  8
0
 10
2334.277099609375
 20
931.7459716796875
 42
0
  0
VERTEX
  8
0
 10
2322.277099609375
 20
943.7459716796875
 42
0
  0
SEQEND
  0
POLYLINE
  8
0
 10
0
 20
0
 39
0
 70
1
 66
1
  0
VERTEX
  8
0
 10
2278.777099609375
 20
874.7459716796875
 42
-1
  0
VERTEX
  8
0
 10
2301.777099609375
 20
874.7459716796875
 42
-1
  0
SEQEND
  0
POLYLINE
  8
0
 10
0
 20
0
 39
0
 70
1
 66
1
  0
VERTEX
  8
0
 10
2278.777099609375
 20
814.7459716796875
 42
-1
  0
VERTEX
  8
0
 10
2301.777099609375
 20
814.7459716796875
 42
-1
  0
SEQEND
  0
POLYLINE
  8
0
 10
0
 20
0
 39
0
 70
1
 66
1
  0
VERTEX
  8
0
 10
342
 20
456
 42
0
  0
VERTEX
  8
0
 10
342
 20
238
 42
0
  0
VERTEX
  8
0
 10
412
 20
238
 42
0
  0
VERTEX
  8
0
 10
424
 20
250
 42
0
  0
VERTEX
  8
0
 10
424
 20
444
 42
0
  0
VERTEX
  8
0
 10
412
 20
456
 42
0
  0
SEQEND
  0
POLYLINE
  8
0
 10
0
 20
0
 39
0
 70
1
 66
1
  0
VERTEX
  8
0
 10
368.5
 20
387
 42
-1
  0
VERTEX
  8
0
 10
391.5
 20
387
 42
-1
  0
SEQEND
  0
POLYLINE
  8
0
 10
0
 20
0
 39
0
 70
1
 66
1
  0
VERTEX
  8
0
 10
368.5
 20
327
 42
-1
  0
VERTEX
  8
0
 10
391.5
 20
327
 42
-1
  0
SEQEND
  0
POLYLINE
  8
0
 10
0
 20
0
 39
0
 70
1
 66
1
  0
VERTEX
  8
0
 10
1332.5860595703125
 20
1168.840087890625
 42
0
  0
VERTEX
  8
0
 10
1114.5860595703125
 20
1168.840087890625
 42
0
  0
VERTEX
  8
0
 10
1114.5860595703125
 20
1098.840087890625
 42
0
  0
VERTEX
  8
0
 10
1126.5860595703125
 20
1086.840087890625
 42
0
  0
VERTEX
  8
0
 10
1320.5860595703125
 20
1086.840087890625
 42
0
  0
VERTEX
  8
0
 10
1332.5860595703125
 20
1098.840087890625
 42
0
  0
SEQEND
  0
POLYLINE
  8
0
 10
0
 20
0
 39
0
 70
1
 66
1
  0
VERTEX
  8
0
 10
1263.5860595703125
 20
1142.340087890625
 42
-1
  0
VERTEX
  8
0
 10
1263.5860595703125
 20
1119.340087890625
 42
-1
  0
SEQEND
  0
POLYLINE
  8
0
 10
0
 20
0
 39
0
 70
1
 66
1
  0
VERTEX
  8
0
 10
1203.5860595703125
 20
1142.340087890625
 42
-1
  0
VERTEX
  8
0
 10
1203.5860595703125
 20
1119.340087890625
 42
-1
  0
SEQEND
  0
POLYLINE
  8
0
 10
0
 20
0
 39
0
 70
1
 66
1
  0
VERTEX
  8
0
 10
1921.5860595703125
 20
648
 42
0
  0
VERTEX
  8
0
 10
1921.5860595703125
 20
430
 42
0
  0
VERTEX
  8
0
 10
1991.5860595703125
 20
430
 42
0
  0
VERTEX
  8
0
 10
2003.5860595703125
 20
442
 42
0
  0
VERTEX
  8
0
 10
2003.5860595703125
 20
636
 42
0
  0
VERTEX
  8
0
 10
1991.5860595703125
 20
648
 42
0
  0
SEQEND
  0
POLYLINE
  8
0
 10
0
 20
0
 39
0
 70
1
 66
1
  0
VERTEX
  8
0
 10
1948.0860595703125
 20
579
 42
-1
  0
VERTEX
  8
0
 10
1971.0860595703125
 20
579
 42
-1
  0
SEQEND
  0
POLYLINE
  8
0
 10
0
 20
0
 39
0
 70
1
 66
1
  0
VERTEX
  8
0
 10
1948.0860595703125
 20
519
 42
-1
  0
VERTEX
  8
0
 10
1971.0860595703125
 20
519
 42
-1
  0
SEQEND
  0
POLYLINE
  8
0
 10
0
 20
0
 39
0
 70
1
 66
1
  0
VERTEX
  8
0
 10
1716.5860595703125
 20
451.6910400390625
 42
0
  0
VERTEX
  8
0
 10
1716.5860595703125
 20
233.6910400390625
 42
0
  0
VERTEX
  8
0
 10
1786.5860595703125
 20
233.6910400390625
 42
0
  0
VERTEX
  8
0
 10
1798.5860595703125
 20
245.6910400390625
 42
0
  0
VERTEX
  8
0
 10
1798.5860595703125
 20
439.6910400390625
 42
0
  0
VERTEX
  8
0
 10
1786.5860595703125
 20
451.6910400390625
 42
0
  0
SEQEND
  0
POLYLINE
  8
0
 10
0
 20
0
 39
0
 70
1
 66
1
  0
VERTEX
  8
0
 10
1743.0860595703125
 20
382.6910400390625
 42
-1
  0
VERTEX
  8
0
 10
1766.0860595703125
 20
382.6910400390625
 42
-1
  0
SEQEND
  0
POLYLINE
  8
0
 10
0
 20
0
 39
0
 70
1
 66
1
  0
VERTEX
  8
0
 10
1743.0860595703125
 20
322.6910400390625
 42
-1
  0
VERTEX
  8
0
 10
1766.0860595703125
 20
322.6910400390625
 42
-1
  0
SEQEND
  0
POLYLINE
  8
0
 10
0
 20
0
 39
0
 70
1
 66
1
  0
VERTEX
  8
0
 10
1537.5860595703125
 20
1180
 42
0
  0
VERTEX
  8
0
 10
1342.5860595703125
 20
1180
 42
0
  0
VERTEX
  8
0
 10
1342.5860595703125
 20
980
 42
0
  0
VERTEX
  8
0
 10
1537.5860595703125
 20
980
 42
0
  0
SEQEND
  0
POLYLINE
  8
0
 10
0
 20
0
 39
0
 70
1
 66
1
  0
VERTEX
  8
0
 10
1372.5860595703125
 20
1114.5
 42
-1
  0
VERTEX
  8
0
 10
1372.5860595703125
 20
1095.5
 42
-1
  0
SEQEND
  0
POLYLINE
  8
0
 10
0
 20
0
 39
0
 70
1
 66
1
  0
VERTEX
  8
0
 10
1372.5860595703125
 20
1064.5
 42
-1
  0
VERTEX
  8
0
 10
1372.5860595703125
 20
1045.5
 42
-1
  0
SEQEND
  0
POLYLINE
  8
0
 10
0
 20
0
 39
0
 70
1
 66
1
  0
VERTEX
  8
0
 10
2344.277099609375
 20
943.7459716796875
 42
0
  0
VERTEX
  8
0
 10
2344.277099609375
 20
725.7459716796875
 42
0
  0
VERTEX
  8
0
 10
2414.277099609375
 20
725.7459716796875
 42
0
  0
VERTEX
  8
0
 10
2426.277099609375
 20
737.7459716796875
 42
0
  0
VERTEX
  8
0
 10
2426.277099609375
 20
931.7459716796875
 42
0
  0
VERTEX
  8
0
 10
2414.277099609375
 20
943.7459716796875
 42
0
  0
SEQEND
  0
POLYLINE
  8
0
 10
0
 20
0
 39
0
 70
1
 66
1
  0
VERTEX
  8
0
 10
2370.777099609375
 20
874.7459716796875
 42
-1
  0
VERTEX
  8
0
 10
2393.777099609375
 20
874.7459716796875
 42
-1
  0
SEQEND
  0
POLYLINE
  8
0
 10
0
 20
0
 39
0
 70
1
 66
1
  0
VERTEX
  8
0
 10
2370.777099609375
 20
814.7459716796875
 42
-1
  0
VERTEX
  8
0
 10
2393.777099609375
 20
814.7459716796875
 42
-1
  0
SEQEND
  0
POLYLINE
  8
0
 10
0
 20
0
 39
0
 70
1
 66
1
  0
VERTEX
  8
0
 10
2233.426025390625
 20
715.7459716796875
 42
0
  0
VERTEX
  8
0
 10
2233.426025390625
 20
497.74600219726562
 42
0
  0
VERTEX
  8
0
 10
2303.426025390625
 20
497.74600219726562
 42
0
  0
VERTEX
  8
0
 10
2315.426025390625
 20
509.74600219726563
 42
0
  0
VERTEX
  8
0
 10
2315.426025390625
 20
703.7459716796875
 42
0
  0
VERTEX
  8
0
 10
2303.426025390625
 20
715.7459716796875
 42
0
  0
SEQEND
  0
POLYLINE
  8
0
 10
0
 20
0
 39
0
 70
1
 66
1
  0
VERTEX
  8
0
 10
2259.926025390625
 20
646.7459716796875
 42
-1
  0
VERTEX
  8
0
 10
2282.926025390625
 20
646.7459716796875
 42
-1
  0
SEQEND
  0
POLYLINE
  8
0
 10
0
 20
0
 39
0
 70
1
 66
1
  0
VERTEX
  8
0
 10
2259.926025390625
 20
586.7459716796875
 42
-1
  0
VERTEX
  8
0
 10
2282.926025390625
 20
586.7459716796875
 42
-1
  0
SEQEND
  0
POLYLINE
  8
0
 10
0
 20
0
 39
0
 70
1
 66
1
  0
VERTEX
  8
0
 10
2550.5859375
 20
228
 42
0
  0
VERTEX
  8
0
 10
2550.5859375
 20
10
 42
0
  0
VERTEX
  8
0
 10
2620.5859375
 20
10
 42
0
  0
VERTEX
  8
0
 10
2632.5859375
 20
22
 42
0
  0
VERTEX
  8
0
 10
2632.5859375
 20
216
 42
0
  0
VERTEX
  8
0
 10
2620.5859375
 20
228
 42
0
  0
SEQEND
  0
POLYLINE
  8
0
 10
0
 20
0
 39
0
 70
1
 66
1
  0
VERTEX
  8
0
 10
2577.0859375
 20
159
 42
-1
  0
VERTEX
  8
0
 10
2600.0859375
 20
159
 42
-1
  0
SEQEND
  0
POLYLINE
  8
0
 10
0
 20
0
 39
0
 70
1
 66
1
  0
VERTEX
  8
0
 10
2577.0859375
 20
99
 42
-1
  0
VERTEX
  8
0
 10
2600.0859375
 20
99
 42
-1
  0
SEQEND
  0
POLYLINE
  8
0
 10
0
 20
0
 39
0
 70
1
 66
1
  0
VERTEX
  8
0
 10
2208.5859375
 20
420
 42
0
  0
VERTEX
  8
0
 10
2013.5860595703125
 20
420
 42
0
  0
VERTEX
  8
0
 10
2013.5860595703125
 20
220
 42
0
  0
VERTEX
  8
0
 10
2208.5859375
 20
220
 42
0
  0
SEQEND
  0
POLYLINE
  8
0
 10
0
 20
0
 39
0
 70
1
 66
1
  0
VERTEX
  8
0
 10
2043.5860595703125
 20
354.5
 42
-1
  0
VERTEX
  8
0
 10
2043.5860595703125
 20
335.5
 42
-1
  0
SEQEND
  0
POLYLINE
  8
0
 10
0
 20
0
 39
0
 70
1
 66
1
  0
VERTEX
  8
0
 10
2043.5860595703125
 20
304.5
 42
-1
  0
VERTEX
  8
0
 10
2043.5860595703125
 20
285.5
 42
-1
  0
SEQEND
  0
POLYLINE
  8
0
 10
0
 20
0
 39
0
 70
1
 66
1
  0
VERTEX
  8
0
 10
2641.277099609375
 20
912
 42
0
  0
VERTEX
  8
0
 10
2641.277099609375
 20
694
 42
0
  0
VERTEX
  8
0
 10
2711.277099609375
 20
694
 42
0
  0
VERTEX
  8
0
 10
2723.277099609375
 20
706
 42
0
  0
VERTEX
  8
0
 10
2723.277099609375
 20
900
 42
0
  0
VERTEX
  8
0
 10
2711.277099609375
 20
912
 42
0
  0
SEQEND
  0
POLYLINE
  8
0
 10
0
 20
0
 39
0
 70
1
 66
1
  0
VERTEX
  8
0
 10
2667.777099609375
 20
843
 42
-1
  0
VERTEX
  8
0
 10
2690.777099609375
 20
843
 42
-1
  0
SEQEND
  0
POLYLINE
  8
0
 10
0
 20
0
 39
0
 70
1
 66
1
  0
VERTEX
  8
0
 10
2667.777099609375
 20
783
 42
-1
  0
VERTEX
  8
0
 10
2690.777099609375
 20
783
 42
-1
  0
SEQEND
  0
POLYLINE
  8
0
 10
0
 20
0
 39
0
 70
1
 66
1
  0
VERTEX
  8
0
 10
2402.6591796875
 20
1171.7459716796875
 42
0
  0
VERTEX
  8
0
 10
2402.6591796875
 20
953.7459716796875
 42
0
  0
VERTEX
  8
0
 10
2472.6591796875
 20
953.7459716796875
 42
0
  0
VERTEX
  8
0
 10
2484.6591796875
 20
965.7459716796875
 42
0
  0
VERTEX
  8
0
 10
2484.6591796875
 20
1159.7459716796875
 42
0
  0
VERTEX
  8
0
 10
2472.6591796875
 20
1171.7459716796875
 42
0
  0
SEQEND
  0
POLYLINE
  8
0
 10
0
 20
0
 39
0
 70
1
 66
1
  0
VERTEX
  8
0
 10
2429.1591796875
 20
1102.7459716796875
 42
-1
  0
VERTEX
  8
0
 10
2452.1591796875
 20
1102.7459716796875
 42
-1
  0
SEQEND
  0
POLYLINE
  8
0
 10
0
 20
0
 39
0
 70
1
 66
1
  0
VERTEX
  8
0
 10
2429.1591796875
 20
1042.7459716796875
 42
-1
  0
VERTEX
  8
0
 10
2452.1591796875
 20
1042.7459716796875
 42
-1
  0
SEQEND
  0
POLYLINE
  8
0
 10
0
 20
0
 39
0
 70
1
 66
1
  0
VERTEX
  8
0
 10
1771.277099609375
 20
1113.382080078125
 42
0
  0
VERTEX
  8
0
 10
1771.277099609375
 20
895.382080078125
 42
0
  0
VERTEX
  8
0
 10
1841.277099609375
 20
895.382080078125
 42
0
  0
VERTEX
  8
0
 10
1853.277099609375
 20
907.382080078125
 42
0
  0
VERTEX
  8
0
 10
1853.277099609375
 20
1101.382080078125
 42
0
  0
VERTEX
  8
0
 10
1841.277099609375
 20
1113.382080078125
 42
0
  0
SEQEND
  0
POLYLINE
  8
0
 10
0
 20
0
 39
0
 70
1
 66
1
  0
VERTEX
  8
0
 10
1797.777099609375
 20
1044.382080078125
 42
-1
  0
VERTEX
  8
0
 10
1820.777099609375
 20
1044.382080078125
 42
-1
  0
SEQEND
  0
POLYLINE
  8
0
 10
0
 20
0
 39
0
 70
1
 66
1
  0
VERTEX
  8
0
 10
1797.777099609375
 20
984.382080078125
 42
-1
  0
VERTEX
  8
0
 10
1820.777099609375
 20
984.382080078125
 42
-1
  0
SEQEND
  0
POLYLINE
  8
0
 10
0
 20
0
 39
0
 70
1
 66
1
  0
VERTEX
  8
0
 10
2642.5859375
 20
228
 42
0
  0
VERTEX
  8
0
 10
2642.5859375
 20
10
 42
0
  0
VERTEX
  8
0
 10
2712.5859375
 20
10
 42
0
  0
VERTEX
  8
0
 10
2724.5859375
 20
22
 42
0
  0
VERTEX
  8
0
 10
2724.5859375
 20
216
 42
0
  0
VERTEX
  8
0
 10
2712.5859375
 20
228
 42
0
  0
SEQEND
  0
POLYLINE
  8
0
 10
0
 20
0
 39
0
 70
1
 66
1
  0
VERTEX
  8
0
 10
2669.0859375
 20
159
 42
-1
  0
VERTEX
  8
0
 10
2692.0859375
 20
159
 42
-1
  0
SEQEND
  0
POLYLINE
  8
0
 10
0
 20
0
 39
0
 70
1
 66
1
  0
VERTEX
  8
0
 10
2669.0859375
 20
99
 42
-1
  0
VERTEX
  8
0
 10
2692.0859375
 20
99
 42
-1
  0
SEQEND
  0
POLYLINE
  8
0
 10
0
 20
0
 39
0
 70
1
 66
1
  0
VERTEX
  8
0
 10
1300.8729248046875
 20
980.674072265625
 42
0.91633117198944092
  0
VERTEX
  8
0
 10
1315.3023681640625
 20
1022.0634765625
 42
0
  0
VERTEX
  8
0
 10
1206.251708984375
 20
1071.1185302734375
 42
0.62152963876724243
  0
VERTEX
  8
0
 10
1116.3109130859375
 20
996.965576171875
 42
0.65655827522277832
  0
VERTEX
  8
0
 10
1156.046630859375
 20
989.8182373046875
 42
-0.10101121664047241
  0
VERTEX
  8
0
 10
1167.3905029296875
 20
1001.099609375
 42
0
  0
VERTEX
  8
0
 10
1162.6470947265625
 20
1009.5800170898437
 42
0
  0
VERTEX
  8
0
 10
1196.57470703125
 20
1018.1776123046875
 42
-0
  0
VERTEX
  8
0
 10
1196.423095703125
 20
1007.0401000976562
 42
-0.017638612538576126
  0
VERTEX
  8
0
 10
1199.1806640625
 20
1006.4439697265625
 42
-0
  0
SEQEND
  0
POLYLINE
  8
0
 10
0
 20
0
 39
0
 70
1
 66
1
  0
VERTEX
  8
0
 10
1129.72705078125
 20
1002
 42
-1
  0
VERTEX
  8
0
 10
1145.72705078125
 20
1002
 42
-1
  0
SEQEND
  0
POLYLINE
  8
0
 10
0
 20
0
 39
0
 70
1
 66
1
  0
VERTEX
  8
0
 10
1298.277099609375
 20
1002
 42
-1
  0
VERTEX
  8
0
 10
1314.277099609375
 20
1002
 42
-1
  0
SEQEND
  0
POLYLINE
  8
0
 10
0
 20
0
 39
0
 70
1
 66
1
  0
VERTEX
  8
0
 10
2418.10009765625
 20
525.15020751953125
 42
0.91633117198944092
  0
VERTEX
  8
0
 10
2459.489501953125
 20
510.72067260742187
 42
0
  0
VERTEX
  8
0
 10
2508.544677734375
 20
619.7713623046875
 42
0.62152963876724243
  0
VERTEX
  8
0
 10
2434.3916015625
 20
709.71221923828125
 42
0.65655827522277832
  0
VERTEX
  8
0
 10
2427.244384765625
 20
669.97650146484375
 42
-0.10101121664047241
  0
VERTEX
  8
0
 10
2438.525634765625
 20
658.632568359375
 42
0
  0
VERTEX
  8
0
 10
2447.006103515625
 20
663.3759765625
 42
0
  0
VERTEX
  8
0
 10
2455.603759765625
 20
629.44842529296875
 42
-0
  0
VERTEX
  8
0
 10
2444.46630859375
 20
629.60003662109375
 42
-0.017638612538576126
  0
VERTEX
  8
0
 10
2443.8701171875
 20
626.84246826171875
 42
-0
  0
SEQEND
  0
POLYLINE
  8
0
 10
0
 20
0
 39
0
 70
1
 66
1
  0
VERTEX
  8
0
 10
2439.426025390625
 20
696.2960205078125
 42
-1
  0
VERTEX
  8
0
 10
2439.426025390625
 20
680.2960205078125
 42
-1
  0
SEQEND
  0
POLYLINE
  8
0
 10
0
 20
0
 39
0
 70
1
 66
1
  0
VERTEX
  8
0
 10
2439.426025390625
 20
527.7459716796875
 42
-1
  0
VERTEX
  8
0
 10
2439.426025390625
 20
511.74600219726562
 42
-1
  0
SEQEND
  0
POLYLINE
  8
0
 10
0
 20
0
 39
0
 70
1
 66
1
  0
VERTEX
  8
0
 10
2273.2548828125
 20
1078.674072265625
 42
0.91633117198944092
  0
VERTEX
  8
0
 10
2287.6845703125
 20
1120.0634765625
 42
0
  0
VERTEX
  8
0
 10
2178.6337890625
 20
1169.1185302734375
 42
0.62152963876724243
  0
VERTEX
  8
0
 10
2088.69287109375
 20
1094.965576171875
 42
0.65655827522277832
  0
VERTEX
  8
0
 10
2128.4287109375
 20
1087.8182373046875
 42
-0.10101121664047241
  0
VERTEX
  8
0
 10
2139.7724609375
 20
1099.099609375
 42
0
  0
VERTEX
  8
0
 10
2135.029052734375
 20
1107.5799560546875
 42
0
  0
VERTEX
  8
0
 10
2168.956787109375
 20
1116.1776123046875
 42
-0
  0
VERTEX
  8
0
 10
2168.80517578125
 20
1105.0401611328125
 42
-0.017638612538576126
  0
VERTEX
  8
0
 10
2171.562744140625
 20
1104.4439697265625
 42
-0
  0
SEQEND
  0
POLYLINE
  8
0
 10
0
 20
0
 39
0
 70
1
 66
1
  0
VERTEX
  8
0
 10
2102.109130859375
 20
1100
 42
-1
  0
VERTEX
  8
0
 10
2118.109130859375
 20
1100
 42
-1
  0
SEQEND
  0
POLYLINE
  8
0
 10
0
 20
0
 39
0
 70
1
 66
1
  0
VERTEX
  8
0
 10
2270.6591796875
 20
1100
 42
-1
  0
VERTEX
  8
0
 10
2286.6591796875
 20
1100
 42
-1
  0
SEQEND
  0
POLYLINE
  8
0
 10
0
 20
0
 39
0
 70
1
 66
1
  0
VERTEX
  8
0
 10
498.42007446289062
 20
981.15020751953125
 42
0.91633117198944092
  0
VERTEX
  8
0
 10
539.80950927734375
 20
966.720703125
 42
0
  0
VERTEX
  8
0
 10
588.86456298828125
 20
1075.7713623046875
 42
0.62152963876724243
  0
VERTEX
  8
0
 10
514.7115478515625
 20
1165.7122802734375
 42
0.65655827522277832
  0
VERTEX
  8
0
 10
507.56423950195312
 20
1125.9764404296875
 42
-0.10101121664047241
  0
VERTEX
  8
0
 10
518.84564208984375
 20
1114.632568359375
 42
0
  0
VERTEX
  8
0
 10
527.32598876953125
 20
1119.3759765625
 42
0
  0
VERTEX
  8
0
 10
535.923583984375
 20
1085.4483642578125
 42
-0
  0
VERTEX
  8
0
 10
524.7861328125
 20
1085.60009765625
 42
-0.017638612538576126
  0
VERTEX
  8
0
 10
524.18994140625
 20
1082.8424072265625
 42
-0
  0
SEQEND
  0
POLYLINE
  8
0
 10
0
 20
0
 39
0
 70
1
 66
1
  0
VERTEX
  8
0
 10
519.7459716796875
 20
1152.2960205078125
 42
-1
  0
VERTEX
  8
0
 10
519.7459716796875
 20
1136.2960205078125
 42
-1
  0
SEQEND
  0
POLYLINE
  8
0
 10
0
 20
0
 39
0
 70
1
 66
1
  0
VERTEX
  8
0
 10
519.7459716796875
 20
983.7459716796875
 42
-1
  0
VERTEX
  8
0
 10
519.7459716796875
 20
967.7459716796875
 42
-1
  0
SEQEND
  0
POLYLINE
  8
0
 10
0
 20
0
 39
0
 70
1
 66
1
  0
VERTEX
  8
0
 10
342
 20
228
 42
0
  0
VERTEX
  8
0
 10
342
 20
10
 42
0
  0
VERTEX
  8
0
 10
412
 20
10
 42
0
  0
VERTEX
  8
0
 10
424
 20
22
 42
0
  0
VERTEX
  8
0
 10
424
 20
216
 42
0
  0
VERTEX
  8
0
 10
412
 20
228
 42
0
  0
SEQEND
  0
POLYLINE
  8
0
 10
0
 20
0
 39
0
 70
1
 66
1
  0
VERTEX
  8
0
 10
368.5
 20
159
 42
-1
  0
VERTEX
  8
0
 10
391.5
 20
159
 42
-1
  0
SEQEND
  0
POLYLINE
  8
0
 10
0
 20
0
 39
0
 70
1
 66
1
  0
VERTEX
  8
0
 10
368.5
 20
99
 42
-1
  0
VERTEX
  8
0
 10
391.5
 20
99
 42
-1
  0
SEQEND
  0
POLYLINE
  8
0
 10
0
 20
0
 39
0
 70
1
 66
1
  0
VERTEX
  8
0
 10
1733.8729248046875
 20
980.674072265625
 42
0.91633117198944092
  0
VERTEX
  8
0
 10
1748.3023681640625
 20
1022.0634765625
 42
0
  0
VERTEX
  8
0
 10
1639.251708984375
 20
1071.1185302734375
 42
0.62152963876724243
  0
VERTEX
  8
0
 10
1549.3109130859375
 20
996.965576171875
 42
0.65655827522277832
  0
VERTEX
  8
0
 10
1589.046630859375
 20
989.8182373046875
 42
-0.10101121664047241
  0
VERTEX
  8
0
 10
1600.3905029296875
 20
1001.099609375
 42
0
  0
VERTEX
  8
0
 10
1595.6470947265625
 20
1009.5800170898437
 42
0
  0
VERTEX
  8
0
 10
1629.57470703125
 20
1018.1776123046875
 42
-0
  0
VERTEX
  8
0
 10
1629.423095703125
 20
1007.0401000976562
 42
-0.017638612538576126
  0
VERTEX
  8
0
 10
1632.1806640625
 20
1006.4439697265625
 42
-0
  0
SEQEND
  0
POLYLINE
  8
0
 10
0
 20
0
 39
0
 70
1
 66
1
  0
VERTEX
  8
0
 10
1562.72705078125
 20
1002
 42
-1
  0
VERTEX
  8
0
 10
1578.72705078125
 20
1002
 42
-1
  0
SEQEND
  0
POLYLINE
  8
0
 10
0
 20
0
 39
0
 70
1
 66
1
  0
VERTEX
  8
0
 10
1731.277099609375
 20
1002
 42
-1
  0
VERTEX
  8
0
 10
1747.277099609375
 20
1002
 42
-1
  0
SEQEND
  0
POLYLINE
  8
0
 10
0
 20
0
 39
0
 70
1
 66
1
  0
VERTEX
  8
0
 10
2310.6591796875
 20
1171.7459716796875
 42
0
  0
VERTEX
  8
0
 10
2310.6591796875
 20
953.7459716796875
 42
0
  0
VERTEX
  8
0
 10
2380.6591796875
 20
953.7459716796875
 42
0
  0
VERTEX
  8
0
 10
2392.6591796875
 20
965.7459716796875
 42
0
  0
VERTEX
  8
0
 10
2392.6591796875
 20
1159.7459716796875
 42
0
  0
VERTEX
  8
0
 10
2380.6591796875
 20
1171.7459716796875
 42
0
  0
SEQEND
  0
POLYLINE
  8
0
 10
0
 20
0
 39
0
 70
1
 66
1
  0
VERTEX
  8
0
 10
2337.1591796875
 20
1102.7459716796875
 42
-1
  0
VERTEX
  8
0
 10
2360.1591796875
 20
1102.7459716796875
 42
-1
  0
SEQEND
  0
POLYLINE
  8
0
 10
0
 20
0
 39
0
 70
1
 66
1
  0
VERTEX
  8
0
 10
2337.1591796875
 20
1042.7459716796875
 42
-1
  0
VERTEX
  8
0
 10
2360.1591796875
 20
1042.7459716796875
 42
-1
  0
SEQEND
  0
POLYLINE
  8
0
 10
0
 20
0
 39
0
 70
1
 66
1
  0
VERTEX
  8
0
 10
1733.8729248046875
 20
1087.51416015625
 42
0.91633117198944092
  0
VERTEX
  8
0
 10
1748.3023681640625
 20
1128.903564453125
 42
0
  0
VERTEX
  8
0
 10
1639.251708984375
 20
1177.9586181640625
 42
0.62152963876724243
  0
VERTEX
  8
0
 10
1549.3109130859375
 20
1103.8056640625
 42
0.65655827522277832
  0
VERTEX
  8
0
 10
1589.046630859375
 20
1096.6583251953125
 42
-0.10101121664047241
  0
VERTEX
  8
0
 10
1600.3905029296875
 20
1107.939697265625
 42
0
  0
VERTEX
  8
0
 10
1595.6470947265625
 20
1116.4200439453125
 42
0
  0
VERTEX
  8
0
 10
1629.57470703125
 20
1125.0177001953125
 42
-0
  0
VERTEX
  8
0
 10
1629.423095703125
 20
1113.880126953125
 42
-0.017638612538576126
  0
VERTEX
  8
0
 10
1632.1806640625
 20
1113.2840576171875
 42
-0
  0
SEQEND
  0
POLYLINE
  8
0
 10
0
 20
0
 39
0
 70
1
 66
1
  0
VERTEX
  8
0
 10
1562.72705078125
 20
1108.840087890625
 42
-1
  0
VERTEX
  8
0
 10
1578.72705078125
 20
1108.840087890625
 42
-1
  0
SEQEND
  0
POLYLINE
  8
0
 10
0
 20
0
 39
0
 70
1
 66
1
  0
VERTEX
  8
0
 10
1731.277099609375
 20
1108.840087890625
 42
-1
  0
VERTEX
  8
0
 10
1747.277099609375
 20
1108.840087890625
 42
-1
  0
SEQEND
  0
POLYLINE
  8
0
 10
0
 20
0
 39
0
 70
1
 66
1
  0
VERTEX
  8
0
 10
2524.940185546875
 20
525.15020751953125
 42
0.91633117198944092
  0
VERTEX
  8
0
 10
2566.32958984375
 20
510.72067260742187
 42
0
  0
VERTEX
  8
0
 10
2615.384765625
 20
619.7713623046875
 42
0.62152963876724243
  0
VERTEX
  8
0
 10
2541.231689453125
 20
709.71221923828125
 42
0.65655827522277832
  0
VERTEX
  8
0
 10
2534.08447265625
 20
669.97650146484375
 42
-0.10101121664047241
  0
VERTEX
  8
0
 10
2545.36572265625
 20
658.632568359375
 42
0
  0
VERTEX
  8
0
 10
2553.84619140625
 20
663.3759765625
 42
0
  0
VERTEX
  8
0
 10
2562.44384765625
 20
629.44842529296875
 42
-0
  0
VERTEX
  8
0
 10
2551.306396484375
 20
629.60003662109375
 42
-0.017638612538576126
  0
VERTEX
  8
0
 10
2550.710205078125
 20
626.84246826171875
 42
-0
  0
SEQEND
  0
POLYLINE
  8
0
 10
0
 20
0
 39
0
 70
1
 66
1
  0
VERTEX
  8
0
 10
2546.26611328125
 20
696.2960205078125
 42
-1
  0
VERTEX
  8
0
 10
2546.26611328125
 20
680.2960205078125
 42
-1
  0
SEQEND
  0
POLYLINE
  8
0
 10
0
 20
0
 39
0
 70
1
 66
1
  0
VERTEX
  8
0
 10
2546.26611328125
 20
527.7459716796875
 42
-1
  0
VERTEX
  8
0
 10
2546.26611328125
 20
511.74600219726562
 42
-1
  0
SEQEND
  0
POLYLINE
  8
0
 10
0
 20
0
 39
0
 70
1
 66
1
  0
VERTEX
  8
0
 10
2642.5859375
 20
456
 42
0
  0
VERTEX
  8
0
 10
2642.5859375
 20
238
 42
0
  0
VERTEX
  8
0
 10
2712.5859375
 20
238
 42
0
  0
VERTEX
  8
0
 10
2724.5859375
 20
250
 42
0
  0
VERTEX
  8
0
 10
2724.5859375
 20
444
 42
0
  0
VERTEX
  8
0
 10
2712.5859375
 20
456
 42
0
  0
SEQEND
  0
POLYLINE
  8
0
 10
0
 20
0
 39
0
 70
1
 66
1
  0
VERTEX
  8
0
 10
2669.0859375
 20
387
 42
-1
  0
VERTEX
  8
0
 10
2692.0859375
 20
387
 42
-1
  0
SEQEND
  0
POLYLINE
  8
0
 10
0
 20
0
 39
0
 70
1
 66
1
  0
VERTEX
  8
0
 10
2669.0859375
 20
327
 42
-1
  0
VERTEX
  8
0
 10
2692.0859375
 20
327
 42
-1
  0
SEQEND
  0
POLYLINE
  8
0
 10
0
 20
0
 39
0
 70
1
 66
1
  0
VERTEX
  8
0
 10
1983.840087890625
 20
210
 42
0
  0
VERTEX
  8
0
 10
1788.840087890625
 20
210
 42
0
  0
VERTEX
  8
0
 10
1788.840087890625
 20
10
 42
0
  0
VERTEX
  8
0
 10
1983.840087890625
 20
10
 42
0
  0
SEQEND
  0
POLYLINE
  8
0
 10
0
 20
0
 39
0
 70
1
 66
1
  0
VERTEX
  8
0
 10
1818.840087890625
 20
144.5
 42
-1
  0
VERTEX
  8
0
 10
1818.840087890625
 20
125.5
 42
-1
  0
SEQEND
  0
POLYLINE
  8
0
 10
0
 20
0
 39
0
 70
1
 66
1
  0
VERTEX
  8
0
 10
1818.840087890625
 20
94.5
 42
-1
  0
VERTEX
  8
0
 10
1818.840087890625
 20
75.5
 42
-1
  0
SEQEND
  0
POLYLINE
  8
0
 10
0
 20
0
 39
0
 70
1
 66
1
  0
VERTEX
  8
0
 10
2689.6591796875
 20
1131.43701171875
 42
0
  0
VERTEX
  8
0
 10
2494.6591796875
 20
1131.43701171875
 42
0
  0
VERTEX
  8
0
 10
2494.6591796875
 20
931.43701171875
 42
0
  0
VERTEX
  8
0
 10
2689.6591796875
 20
931.43701171875
 42
0
  0
SEQEND
  0
POLYLINE
  8
0
 10
0
 20
0
 39
0
 70
1
 66
1
  0
VERTEX
  8
0
 10
2524.6591796875
 20
1065.93701171875
 42
-1
  0
VERTEX
  8
0
 10
2524.6591796875
 20
1046.93701171875
 42
-1
  0
SEQEND
  0
POLYLINE
  8
0
 10
0
 20
0
 39
0
 70
1
 66
1
  0
VERTEX
  8
0
 10
2524.6591796875
 20
1015.93701171875
 42
-1
  0
VERTEX
  8
0
 10
2524.6591796875
 20
996.93701171875
 42
-1
  0
SEQEND
  0
POLYLINE
  8
0
 10
0
 20
0
 39
0
 70
1
 66
1
  0
VERTEX
  8
0
 10
2018.4261474609375
 20
871.6910400390625
 42
0
  0
VERTEX
  8
0
 10
1823.4261474609375
 20
871.6910400390625
 42
0
  0
VERTEX
  8
0
 10
1823.4261474609375
 20
671.6910400390625
 42
0
  0
VERTEX
  8
0
 10
2018.4261474609375
 20
671.6910400390625
 42
0
  0
SEQEND
  0
POLYLINE
  8
0
 10
0
 20
0
 39
0
 70
1
 66
1
  0
VERTEX
  8
0
 10
1853.4261474609375
 20
806.1910400390625
 42
-1
  0
VERTEX
  8
0
 10
1853.4261474609375
 20
787.1910400390625
 42
-1
  0
SEQEND
  0
POLYLINE
  8
0
 10
0
 20
0
 39
0
 70
1
 66
1
  0
VERTEX
  8
0
 10
1853.4261474609375
 20
756.1910400390625
 42
-1
  0
VERTEX
  8
0
 10
1853.4261474609375
 20
737.1910400390625
 42
-1
  0
SEQEND
  0
POLYLINE
  8
0
 10
0
 20
0
 39
0
 70
1
 66
1
  0
VERTEX
  8
0
 10
2003.5860595703125
 20
420
 42
0
  0
VERTEX
  8
0
 10
1808.5860595703125
 20
420
 42
0
  0
VERTEX
  8
0
 10
1808.5860595703125
 20
220
 42
0
  0
VERTEX
  8
0
 10
2003.5860595703125
 20
220
 42
0
  0
SEQEND
  0
POLYLINE
  8
0
 10
0
 20
0
 39
0
 70
1
 66
1
  0
VERTEX
  8
0
 10
1838.5860595703125
 20
354.5
 42
-1
  0
VERTEX
  8
0
 10
1838.5860595703125
 20
335.5
 42
-1
  0
SEQEND
  0
POLYLINE
  8
0
 10
0
 20
0
 39
0
 70
1
 66
1
  0
VERTEX
  8
0
 10
1838.5860595703125
 20
304.5
 42
-1
  0
VERTEX
  8
0
 10
1838.5860595703125
 20
285.5
 42
-1
  0
SEQEND
  0
POLYLINE
  8
0
 10
0
 20
0
 39
0
 70
1
 66
1
  0
VERTEX
  8
0
 10
2058.277099609375
 20
1081.6910400390625
 42
0
  0
VERTEX
  8
0
 10
1863.277099609375
 20
1081.6910400390625
 42
0
  0
VERTEX
  8
0
 10
1863.277099609375
 20
881.6910400390625
 42
0
  0
VERTEX
  8
0
 10
2058.277099609375
 20
881.6910400390625
 42
0
  0
SEQEND
  0
POLYLINE
  8
0
 10
0
 20
0
 39
0
 70
1
 66
1
  0
VERTEX
  8
0
 10
1893.277099609375
 20
1016.1910400390625
 42
-1
  0
VERTEX
  8
0
 10
1893.277099609375
 20
997.1910400390625
 42
-1
  0
SEQEND
  0
POLYLINE
  8
0
 10
0
 20
0
 39
0
 70
1
 66
1
  0
VERTEX
  8
0
 10
1893.277099609375
 20
966.1910400390625
 42
-1
  0
VERTEX
  8
0
 10
1893.277099609375
 20
947.1910400390625
 42
-1
  0
SEQEND
  0
POLYLINE
  8
0
 10
0
 20
0
 39
0
 70
1
 66
1
  0
VERTEX
  8
0
 10
2631.277099609375
 20
921.43701171875
 42
0
  0
VERTEX
  8
0
 10
2436.277099609375
 20
921.43701171875
 42
0
  0
VERTEX
  8
0
 10
2436.277099609375
 20
721.43701171875
 42
0
  0
VERTEX
  8
0
 10
2631.277099609375
 20
721.43701171875
 42
0
  0
SEQEND
  0
POLYLINE
  8
0
 10
0
 20
0
 39
0
 70
1
 66
1
  0
VERTEX
  8
0
 10
2466.277099609375
 20
855.93701171875
 42
-1
  0
VERTEX
  8
0
 10
2466.277099609375
 20
836.93701171875
 42
-1
  0
SEQEND
  0
POLYLINE
  8
0
 10
0
 20
0
 39
0
 70
1
 66
1
  0
VERTEX
  8
0
 10
2466.277099609375
 20
805.93701171875
 42
-1
  0
VERTEX
  8
0
 10
2466.277099609375
 20
786.93701171875
 42
-1
  0
SEQEND
  0
POLYLINE
  8
0
 10
0
 20
0
 39
0
 70
1
 66
1
  0
VERTEX
  8
0
 10
2188.840087890625
 20
210
 42
0
  0
VERTEX
  8
0
 10
1993.840087890625
 20
210
 42
0
  0
VERTEX
  8
0
 10
1993.840087890625
 20
10
 42
0
  0
VERTEX
  8
0
 10
2188.840087890625
 20
10
 42
0
  0
SEQEND
  0
POLYLINE
  8
0
 10
0
 20
0
 39
0
 70
1
 66
1
  0
VERTEX
  8
0
 10
2023.840087890625
 20
144.5
 42
-1
  0
VERTEX
  8
0
 10
2023.840087890625
 20
125.5
 42
-1
  0
SEQEND
  0
POLYLINE
  8
0
 10
0
 20
0
 39
0
 70
1
 66
1
  0
VERTEX
  8
0
 10
2023.840087890625
 20
94.5
 42
-1
  0
VERTEX
  8
0
 10
2023.840087890625
 20
75.5
 42
-1
  0
SEQEND
  0
POLYLINE
  8
0
 10
0
 20
0
 39
0
 70
1
 66
1
  0
VERTEX
  8
0
 10
1911.5860595703125
 20
661.6910400390625
 42
0
  0
VERTEX
  8
0
 10
1716.5860595703125
 20
661.6910400390625
 42
0
  0
VERTEX
  8
0
 10
1716.5860595703125
 20
461.6910400390625
 42
0
  0
VERTEX
  8
0
 10
1911.5860595703125
 20
461.6910400390625
 42
0
  0
SEQEND
  0
POLYLINE
  8
0
 10
0
 20
0
 39
0
 70
1
 66
1
  0
VERTEX
  8
0
 10
1746.5860595703125
 20
596.1910400390625
 42
-1
  0
VERTEX
  8
0
 10
1746.5860595703125
 20
577.1910400390625
 42
-1
  0
SEQEND
  0
POLYLINE
  8
0
 10
0
 20
0
 39
0
 70
1
 66
1
  0
VERTEX
  8
0
 10
1746.5860595703125
 20
546.1910400390625
 42
-1
  0
VERTEX
  8
0
 10
1746.5860595703125
 20
527.1910400390625
 42
-1
  0
SEQEND
  0
POLYLINE
  8
0
 10
0
 20
0
 39
0
 70
1
 66
1
  0
VERTEX
  8
0
 10
2243.147705078125
 20
181.74600219726562
 42
0
  0
VERTEX
  8
0
 10
2370.426513671875
 20
363.51895141601562
 42
0.15391500294208527
  0
VERTEX
  8
0
 10
2374.5859375
 20
376.71121215820313
 42
0
  0
VERTEX
  8
0
 10
2374.5859375
 20
423.42572021484375
 42
0.31529900431632996
  0
VERTEX
  8
0
 10
2359.45263671875
 20
445.03863525390625
 42
0
  0
VERTEX
  8
0
 10
2242.114990234375
 20
487.74600219726562
 42
0
  0
VERTEX
  8
0
 10
2218.5859375
 20
487.74600219726562
 42
0
  0
VERTEX
  8
0
 10
2218.5859375
 20
181.74600219726562
 42
0
  0
SEQEND
  0
POLYLINE
  8
0
 10
0
 20
0
 39
0
 70
1
 66
1
  0
VERTEX
  8
0
 10
2321.5859375
 20
434.24600219726562
 42
-1
  0
VERTEX
  8
0
 10
2321.5859375
 20
365.24600219726562
 42
-1
  0
SEQEND
  0
POLYLINE
  8
0
 10
0
 20
0
 39
0
 70
1
 66
1
  0
VERTEX
  8
0
 10
2350.0244140625
 20
316
 42
0
  0
VERTEX
  8
0
 10
2222.74560546875
 20
134.22703552246094
 42
0.15391500294208527
  0
VERTEX
  8
0
 10
2218.5859375
 20
121.03478240966797
 42
0
  0
VERTEX
  8
0
 10
2218.5859375
 20
74.320281982421875
 42
0.31529900431632996
  0
VERTEX
  8
0
 10
2233.719482421875
 20
52.707351684570313
 42
0
  0
VERTEX
  8
0
 10
2351.05712890625
 20
10
 42
0
  0
VERTEX
  8
0
 10
2374.5859375
 20
10
 42
0
  0
VERTEX
  8
0
 10
2374.5859375
 20
316
 42
0
  0
SEQEND
  0
POLYLINE
  8
0
 10
0
 20
0
 39
0
 70
1
 66
1
  0
VERTEX
  8
0
 10
2271.5859375
 20
63.5
 42
-1
  0
VERTEX
  8
0
 10
2271.5859375
 20
132.5
 42
-1
  0
SEQEND
  0
POLYLINE
  8
0
 10
0
 20
0
 39
0
 70
1
 66
1
  0
VERTEX
  8
0
 10
1176.5860595703125
 20
320
 42
0
  0
VERTEX
  8
0
 10
1316.5860595703125
 20
320
 42
-0
  0
VERTEX
  8
0
 10
1396.5860595703125
 20
410
 42
0
  0
VERTEX
  8
0
 10
1396.5860595703125
 20
550
 42
-0
  0
VERTEX
  8
0
 10
1316.5860595703125
 20
640
 42
0
  0
VERTEX
  8
0
 10
1176.5860595703125
 20
640
 42
-0
  0
VERTEX
  8
0
 10
1096.5860595703125
 20
550
 42
0
  0
VERTEX
  8
0
 10
1096.5860595703125
 20
410
 42
0
  0
SEQEND
  0
POLYLINE
  8
0
 10
0
 20
0
 39
0
 70
1
 66
1
  0
VERTEX
  8
0
 10
1208.5860595703125
 20
380
 42
-1
  0
VERTEX
  8
0
 10
1284.5860595703125
 20
380
 42
-1
  0
SEQEND
  0
POLYLINE
  8
0
 10
0
 20
0
 39
0
 70
1
 66
1
  0
VERTEX
  8
0
 10
922
 20
230
 42
0
  0
VERTEX
  8
0
 10
922
 20
90
 42
-0
  0
VERTEX
  8
0
 10
1012
 20
10
 42
0
  0
VERTEX
  8
0
 10
1152
 20
10
 42
-0
  0
VERTEX
  8
0
 10
1242
 20
90
 42
0
  0
VERTEX
  8
0
 10
1242
 20
230
 42
-0
  0
VERTEX
  8
0
 10
1152
 20
310
 42
0
  0
VERTEX
  8
0
 10
1012
 20
310
 42
0
  0
SEQEND
  0
POLYLINE
  8
0
 10
0
 20
0
 39
0
 70
1
 66
1
  0
VERTEX
  8
0
 10
982
 20
198
 42
-1
  0
VERTEX
  8
0
 10
982
 20
122
 42
-1
  0
SEQEND
  0
POLYLINE
  8
0
 10
0
 20
0
 39
0
 70
1
 66
1
  0
VERTEX
  8
0
 10
366.56170654296875
 20
637.7459716796875
 42
0
  0
VERTEX
  8
0
 10
493.84051513671875
 20
819.51898193359375
 42
0.15391500294208527
  0
VERTEX
  8
0
 10
498
 20
832.71124267578125
 42
0
  0
VERTEX
  8
0
 10
498
 20
879.42572021484375
 42
0.31529900431632996
  0
VERTEX
  8
0
 10
482.86648559570312
 20
901.03863525390625
 42
0
  0
VERTEX
  8
0
 10
365.52899169921875
 20
943.7459716796875
 42
0
  0
VERTEX
  8
0
 10
342
 20
943.7459716796875
 42
0
  0
VERTEX
  8
0
 10
342
 20
637.7459716796875
 42
0
  0
SEQEND
  0
POLYLINE
  8
0
 10
0
 20
0
 39
0
 70
1
 66
1
  0
VERTEX
  8
0
 10
445
 20
890.2459716796875
 42
-1
  0
VERTEX
  8
0
 10
445
 20
821.2459716796875
 42
-1
  0
SEQEND
  0
POLYLINE
  8
0
 10
0
 20
0
 39
0
 70
1
 66
1
  0
VERTEX
  8
0
 10
473.43829345703125
 20
772
 42
0
  0
VERTEX
  8
0
 10
346.15951538085937
 20
590.22705078125
 42
0.15391500294208527
  0
VERTEX
  8
0
 10
342
 20
577.0347900390625
 42
0
  0
VERTEX
  8
0
 10
342
 20
530.3203125
 42
0.31529900431632996
  0
VERTEX
  8
0
 10
357.133544921875
 20
508.70733642578125
 42
0
  0
VERTEX
  8
0
 10
474.47100830078125
 20
466
 42
0
  0
VERTEX
  8
0
 10
498
 20
466
 42
0
  0
VERTEX
  8
0
 10
498
 20
772
 42
0
  0
SEQEND
  0
POLYLINE
  8
0
 10
0
 20
0
 39
0
 70
1
 66
1
  0
VERTEX
  8
0
 10
395
 20
519.5
 42
-1
  0
VERTEX
  8
0
 10
395
 20
588.5
 42
-1
  0
SEQEND
  0
POLYLINE
  8
0
 10
0
 20
0
 39
0
 70
1
 66
1
  0
VERTEX
  8
0
 10
1176.5860595703125
 20
650
 42
0
  0
VERTEX
  8
0
 10
1316.5860595703125
 20
650
 42
-0
  0
VERTEX
  8
0
 10
1396.5860595703125
 20
740
 42
0
  0
VERTEX
  8
0
 10
1396.5860595703125
 20
880
 42
-0
  0
VERTEX
  8
0
 10
1316.5860595703125
 20
970
 42
0
  0
VERTEX
  8
0
 10
1176.5860595703125
 20
970
 42
-0
  0
VERTEX
  8
0
 10
1096.5860595703125
 20
880
 42
0
  0
VERTEX
  8
0
 10
1096.5860595703125
 20
740
 42
0
  0
SEQEND
  0
POLYLINE
  8
0
 10
0
 20
0
 39
0
 70
1
 66
1
  0
VERTEX
  8
0
 10
1208.5860595703125
 20
710
 42
-1
  0
VERTEX
  8
0
 10
1284.5860595703125
 20
710
 42
-1
  0
SEQEND
  0
POLYLINE
  8
0
 10
0
 20
0
 39
0
 70
1
 66
1
  0
VERTEX
  8
0
 10
2409.147705078125
 20
181.74600219726562
 42
0
  0
VERTEX
  8
0
 10
2536.426513671875
 20
363.51895141601562
 42
0.15391500294208527
  0
VERTEX
  8
0
 10
2540.5859375
 20
376.71121215820313
 42
0
  0
VERTEX
  8
0
 10
2540.5859375
 20
423.42572021484375
 42
0.31529900431632996
  0
VERTEX
  8
0
 10
2525.45263671875
 20
445.03863525390625
 42
0
  0
VERTEX
  8
0
 10
2408.114990234375
 20
487.74600219726562
 42
0
  0
VERTEX
  8
0
 10
2384.5859375
 20
487.74600219726562
 42
0
  0
VERTEX
  8
0
 10
2384.5859375
 20
181.74600219726562
 42
0
  0
SEQEND
  0
POLYLINE
  8
0
 10
0
 20
0
 39
0
 70
1
 66
1
  0
VERTEX
  8
0
 10
2487.5859375
 20
434.24600219726562
 42
-1
  0
VERTEX
  8
0
 10
2487.5859375
 20
365.24600219726562
 42
-1
  0
SEQEND
  0
POLYLINE
  8
0
 10
0
 20
0
 39
0
 70
1
 66
1
  0
VERTEX
  8
0
 10
2516.0244140625
 20
316
 42
0
  0
VERTEX
  8
0
 10
2388.74560546875
 20
134.22703552246094
 42
0.15391500294208527
  0
VERTEX
  8
0
 10
2384.5859375
 20
121.03478240966797
 42
0
  0
VERTEX
  8
0
 10
2384.5859375
 20
74.320281982421875
 42
0.31529900431632996
  0
VERTEX
  8
0
 10
2399.719482421875
 20
52.707351684570313
 42
0
  0
VERTEX
  8
0
 10
2517.05712890625
 20
10
 42
0
  0
VERTEX
  8
0
 10
2540.5859375
 20
10
 42
0
  0
VERTEX
  8
0
 10
2540.5859375
 20
316
 42
0
  0
SEQEND
  0
POLYLINE
  8
0
 10
0
 20
0
 39
0
 70
1
 66
1
  0
VERTEX
  8
0
 10
2437.5859375
 20
63.5
 42
-1
  0
VERTEX
  8
0
 10
2437.5859375
 20
132.5
 42
-1
  0
SEQEND
  0
POLYLINE
  8
0
 10
0
 20
0
 39
0
 70
1
 66
1
  0
VERTEX
  8
0
 10
1252
 20
230
 42
0
  0
VERTEX
  8
0
 10
1252
 20
90
 42
-0
  0
VERTEX
  8
0
 10
1342
 20
10
 42
0
  0
VERTEX
  8
0
 10
1482
 20
10
 42
-0
  0
VERTEX
  8
0
 10
1572
 20
90
 42
0
  0
VERTEX
  8
0
 10
1572
 20
230
 42
-0
  0
VERTEX
  8
0
 10
1482
 20
310
 42
0
  0
VERTEX
  8
0
 10
1342
 20
310
 42
0
  0
SEQEND
  0
POLYLINE
  8
0
 10
0
 20
0
 39
0
 70
1
 66
1
  0
VERTEX
  8
0
 10
1312
 20
198
 42
-1
  0
VERTEX
  8
0
 10
1312
 20
122
 42
-1
  0
SEQEND
  0
POLYLINE
  8
0
 10
0
 20
0
 39
0
 70
1
 66
1
  0
VERTEX
  8
0
 10
1486.5860595703125
 20
320
 42
0
  0
VERTEX
  8
0
 10
1626.5860595703125
 20
320
 42
-0
  0
VERTEX
  8
0
 10
1706.5860595703125
 20
410
 42
0
  0
VERTEX
  8
0
 10
1706.5860595703125
 20
550
 42
-0
  0
VERTEX
  8
0
 10
1626.5860595703125
 20
640
 42
0
  0
VERTEX
  8
0
 10
1486.5860595703125
 20
640
 42
-0
  0
VERTEX
  8
0
 10
1406.5860595703125
 20
550
 42
0
  0
VERTEX
  8
0
 10
1406.5860595703125
 20
410
 42
0
  0
SEQEND
  0
POLYLINE
  8
0
 10
0
 20
0
 39
0
 70
1
 66
1
  0
VERTEX
  8
0
 10
1518.5860595703125
 20
380
 42
-1
  0
VERTEX
  8
0
 10
1594.5860595703125
 20
380
 42
-1
  0
SEQEND
  0
POLYLINE
  8
0
 10
0
 20
0
 39
0
 70
1
 66
1
  0
VERTEX
  8
0
 10
1486.5860595703125
 20
650
 42
0
  0
VERTEX
  8
0
 10
1626.5860595703125
 20
650
 42
-0
  0
VERTEX
  8
0
 10
1706.5860595703125
 20
740
 42
0
  0
VERTEX
  8
0
 10
1706.5860595703125
 20
880
 42
-0
  0
VERTEX
  8
0
 10
1626.5860595703125
 20
970
 42
0
  0
VERTEX
  8
0
 10
1486.5860595703125
 20
970
 42
-0
  0
VERTEX
  8
0
 10
1406.5860595703125
 20
880
 42
0
  0
VERTEX
  8
0
 10
1406.5860595703125
 20
740
 42
0
  0
SEQEND
  0
POLYLINE
  8
0
 10
0
 20
0
 39
0
 70
1
 66
1
  0
VERTEX
  8
0
 10
1518.5860595703125
 20
710
 42
-1
  0
VERTEX
  8
0
 10
1594.5860595703125
 20
710
 42
-1
  0
SEQEND
  0
POLYLINE
  8
0
 10
0
 20
0
 39
0
 70
1
 66
1
  0
VERTEX
  8
0
 10
316
 20
1010.0537109375
 42
0
  0
VERTEX
  8
0
 10
134.22705078125
 20
1137.33251953125
 42
0.15391500294208527
  0
VERTEX
  8
0
 10
121.03478240966797
 20
1141.491943359375
 42
0
  0
VERTEX
  8
0
 10
74.320281982421875
 20
1141.491943359375
 42
0.31529900431632996
  0
VERTEX
  8
0
 10
52.707351684570313
 20
1126.3585205078125
 42
0
  0
VERTEX
  8
0
 10
10
 20
1009.02099609375
 42
0
  0
VERTEX
  8
0
 10
10
 20
985.49200439453125
 42
0
  0
VERTEX
  8
0
 10
316
 20
985.49200439453125
 42
0
  0
SEQEND
  0
POLYLINE
  8
0
 10
0
 20
0
 39
0
 70
1
 66
1
  0
VERTEX
  8
0
 10
63.5
 20
1088.491943359375
 42
-1
  0
VERTEX
  8
0
 10
132.5
 20
1088.491943359375
 42
-1
  0
SEQEND
  0
POLYLINE
  8
0
 10
0
 20
0
 39
0
 70
1
 66
1
  0
VERTEX
  8
0
 10
181.74600219726562
 20
1116.9302978515625
 42
0
  0
VERTEX
  8
0
 10
363.51895141601562
 20
989.6514892578125
 42
0.15391500294208527
  0
VERTEX
  8
0
 10
376.71121215820313
 20
985.49200439453125
 42
0
  0
VERTEX
  8
0
 10
423.42572021484375
 20
985.49200439453125
 42
0.31529900431632996
  0
VERTEX
  8
0
 10
445.03863525390625
 20
1000.6255493164062
 42
0
  0
VERTEX
  8
0
 10
487.74600219726562
 20
1117.9630126953125
 42
0
  0
VERTEX
  8
0
 10
487.74600219726562
 20
1141.491943359375
 42
0
  0
VERTEX
  8
0
 10
181.74600219726562
 20
1141.491943359375
 42
0
  0
SEQEND
  0
POLYLINE
  8
0
 10
0
 20
0
 39
0
 70
1
 66
1
  0
VERTEX
  8
0
 10
434.24600219726562
 20
1038.491943359375
 42
-1
  0
VERTEX
  8
0
 10
365.24600219726562
 20
1038.491943359375
 42
-1
  0
SEQEND
  0
POLYLINE
  8
0
 10
0
 20
0
 39
0
 70
1
 66
1
  0
VERTEX
  8
0
 10
520
 20
100.49960327148437
 42
-0
  0
VERTEX
  8
0
 10
520
 20
349.5003662109375
 42
-0
  0
VERTEX
  8
0
 10
507.12539672851562
 20
425.16867065429687
 42
-0
  0
VERTEX
  8
0
 10
487
 20
440
 42
0
  0
VERTEX
  8
0
 10
467
 20
440
 42
0
  0
VERTEX
  8
0
 10
446.87460327148437
 20
425.16867065429687
 42
0
  0
VERTEX
  8
0
 10
434
 20
349.5003662109375
 42
-0
  0
VERTEX
  8
0
 10
434
 20
100.49960327148437
 42
-0
  0
VERTEX
  8
0
 10
446.87460327148437
 20
24.831298828125
 42
-0
  0
VERTEX
  8
0
 10
467
 20
10
 42
-0
  0
VERTEX
  8
0
 10
487
 20
10
 42
0
  0
VERTEX
  8
0
 10
507.12539672851562
 20
24.831298828125
 42
0
  0
SEQEND
  0
POLYLINE
  8
0
 10
0
 20
0
 39
0
 70
1
 66
1
  0
VERTEX
  8
0
 10
485
 20
121.29452514648437
 42
0
  0
VERTEX
  8
0
 10
469
 20
121.29452514648437
 42
0
  0
VERTEX
  8
0
 10
469
 20
328.7054443359375
 42
-0
  0
VERTEX
  8
0
 10
485
 20
328.7054443359375
 42
0
  0
SEQEND
  0
POLYLINE
  8
0
 10
0
 20
0
 39
0
 70
1
 66
1
  0
VERTEX
  8
0
 10
493.0697021484375
 20
72.533538818359375
 42
-0
  0
VERTEX
  8
0
 10
477
 20
53.382415771484375
 42
0
  0
VERTEX
  8
0
 10
460.9302978515625
 20
72.533538818359375
 42
-0
  0
VERTEX
  8
0
 10
477
 20
91.68463134765625
 42
0
  0
SEQEND
  0
POLYLINE
  8
0
 10
0
 20
0
 39
0
 70
1
 66
1
  0
VERTEX
  8
0
 10
493.0697021484375
 20
377.4664306640625
 42
-0
  0
VERTEX
  8
0
 10
477
 20
358.31533813476562
 42
0
  0
VERTEX
  8
0
 10
460.9302978515625
 20
377.4664306640625
 42
-0
  0
VERTEX
  8
0
 10
477
 20
396.6175537109375
 42
0
  0
SEQEND
  0
POLYLINE
  8
0
 10
0
 20
0
 39
0
 70
1
 66
1
  0
VERTEX
  8
0
 10
34.561702728271484
 20
669.49200439453125
 42
0
  0
VERTEX
  8
0
 10
161.84049987792969
 20
851.26495361328125
 42
0.15391500294208527
  0
VERTEX
  8
0
 10
166
 20
864.45721435546875
 42
0
  0
VERTEX
  8
0
 10
166
 20
911.17169189453125
 42
0.31529900431632996
  0
VERTEX
  8
0
 10
150.86647033691406
 20
932.78466796875
 42
0
  0
VERTEX
  8
0
 10
33.528980255126953
 20
975.49200439453125
 42
0
  0
VERTEX
  8
0
 10
10
 20
975.49200439453125
 42
0
  0
VERTEX
  8
0
 10
10
 20
669.49200439453125
 42
0
  0
SEQEND
  0
POLYLINE
  8
0
 10
0
 20
0
 39
0
 70
1
 66
1
  0
VERTEX
  8
0
 10
113
 20
921.99200439453125
 42
-1
  0
VERTEX
  8
0
 10
113
 20
852.99200439453125
 42
-1
  0
SEQEND
  0
POLYLINE
  8
0
 10
0
 20
0
 39
0
 70
1
 66
1
  0
VERTEX
  8
0
 10
141.43829345703125
 20
803.7459716796875
 42
0
  0
VERTEX
  8
0
 10
14.159500122070313
 20
621.9730224609375
 42
0.15391500294208527
  0
VERTEX
  8
0
 10
10
 20
608.78076171875
 42
0
  0
VERTEX
  8
0
 10
10
 20
562.0662841796875
 42
0.31529900431632996
  0
VERTEX
  8
0
 10
25.133529663085937
 20
540.453369140625
 42
0
  0
VERTEX
  8
0
 10
142.47102355957031
 20
497.74600219726562
 42
0
  0
VERTEX
  8
0
 10
166
 20
497.74600219726562
 42
0
  0
VERTEX
  8
0
 10
166
 20
803.7459716796875
 42
0
  0
SEQEND
  0
POLYLINE
  8
0
 10
0
 20
0
 39
0
 70
1
 66
1
  0
VERTEX
  8
0
 10
63
 20
551.2459716796875
 42
-1
  0
VERTEX
  8
0
 10
63
 20
620.2459716796875
 42
-1
  0
SEQEND
  0
POLYLINE
  8
0
 10
0
 20
0
 39
0
 70
1
 66
1
  0
VERTEX
  8
0
 10
722
 20
310
 42
-0
  0
VERTEX
  8
0
 10
722
 20
55
 42
1
  0
VERTEX
  8
0
 10
812
 20
55
 42
-0
  0
VERTEX
  8
0
 10
812
 20
310
 42
-0
  0
SEQEND
  0
POLYLINE
  8
0
 10
0
 20
0
 39
0
 70
1
 66
1
  0
VERTEX
  8
0
 10
767
 20
85
 42
-1
  0
VERTEX
  8
0
 10
767
 20
25
 42
-1
  0
SEQEND
  0
POLYLINE
  8
0
 10
0
 20
0
 39
0
 70
1
 66
1
  0
VERTEX
  8
0
 10
896
 20
620
 42
-0
  0
VERTEX
  8
0
 10
896
 20
365
 42
1
  0
VERTEX
  8
0
 10
986
 20
365
 42
-0
  0
VERTEX
  8
0
 10
986
 20
620
 42
-0
  0
SEQEND
  0
POLYLINE
  8
0
 10
0
 20
0
 39
0
 70
1
 66
1
  0
VERTEX
  8
0
 10
941
 20
395
 42
-1
  0
VERTEX
  8
0
 10
941
 20
335
 42
-1
  0
SEQEND
  0
POLYLINE
  8
0
 10
0
 20
0
 39
0
 70
1
 66
1
  0
VERTEX
  8
0
 10
616
 20
100.49960327148437
 42
-0
  0
VERTEX
  8
0
 10
616
 20
349.5003662109375
 42
-0
  0
VERTEX
  8
0
 10
603.12542724609375
 20
425.16867065429687
 42
-0
  0
VERTEX
  8
0
 10
583
 20
440
 42
0
  0
VERTEX
  8
0
 10
563
 20
440
 42
0
  0
VERTEX
  8
0
 10
542.87457275390625
 20
425.16867065429687
 42
0
  0
VERTEX
  8
0
 10
530
 20
349.5003662109375
 42
-0
  0
VERTEX
  8
0
 10
530
 20
100.49960327148437
 42
-0
  0
VERTEX
  8
0
 10
542.87457275390625
 20
24.831298828125
 42
-0
  0
VERTEX
  8
0
 10
563
 20
10
 42
-0
  0
VERTEX
  8
0
 10
583
 20
10
 42
0
  0
VERTEX
  8
0
 10
603.12542724609375
 20
24.831298828125
 42
0
  0
SEQEND
  0
POLYLINE
  8
0
 10
0
 20
0
 39
0
 70
1
 66
1
  0
VERTEX
  8
0
 10
581
 20
121.29452514648437
 42
0
  0
VERTEX
  8
0
 10
565
 20
121.29452514648437
 42
0
  0
VERTEX
  8
0
 10
565
 20
328.7054443359375
 42
-0
  0
VERTEX
  8
0
 10
581
 20
328.7054443359375
 42
0
  0
SEQEND
  0
POLYLINE
  8
0
 10
0
 20
0
 39
0
 70
1
 66
1
  0
VERTEX
  8
0
 10
589.0697021484375
 20
72.533538818359375
 42
-0
  0
VERTEX
  8
0
 10
573
 20
53.382415771484375
 42
0
  0
VERTEX
  8
0
 10
556.9302978515625
 20
72.533538818359375
 42
-0
  0
VERTEX
  8
0
 10
573
 20
91.68463134765625
 42
0
  0
SEQEND
  0
POLYLINE
  8
0
 10
0
 20
0
 39
0
 70
1
 66
1
  0
VERTEX
  8
0
 10
589.0697021484375
 20
377.4664306640625
 42
-0
  0
VERTEX
  8
0
 10
573
 20
358.31533813476562
 42
0
  0
VERTEX
  8
0
 10
556.9302978515625
 20
377.4664306640625
 42
-0
  0
VERTEX
  8
0
 10
573
 20
396.6175537109375
 42
0
  0
SEQEND
  0
POLYLINE
  8
0
 10
0
 20
0
 39
0
 70
1
 66
1
  0
VERTEX
  8
0
 10
996
 20
620
 42
-0
  0
VERTEX
  8
0
 10
996
 20
365
 42
1
  0
VERTEX
  8
0
 10
1086
 20
365
 42
-0
  0
VERTEX
  8
0
 10
1086
 20
620
 42
-0
  0
SEQEND
  0
POLYLINE
  8
0
 10
0
 20
0
 39
0
 70
1
 66
1
  0
VERTEX
  8
0
 10
1041
 20
395
 42
-1
  0
VERTEX
  8
0
 10
1041
 20
335
 42
-1
  0
SEQEND
  0
POLYLINE
  8
0
 10
0
 20
0
 39
0
 70
1
 66
1
  0
VERTEX
  8
0
 10
786
 20
540.49957275390625
 42
-0
  0
VERTEX
  8
0
 10
786
 20
789.5003662109375
 42
-0
  0
VERTEX
  8
0
 10
773.1253662109375
 20
865.16864013671875
 42
-0
  0
VERTEX
  8
0
 10
753
 20
880
 42
0
  0
VERTEX
  8
0
 10
733
 20
880
 42
0
  0
VERTEX
  8
0
 10
712.87457275390625
 20
865.16864013671875
 42
0
  0
VERTEX
  8
0
 10
700
 20
789.5003662109375
 42
-0
  0
VERTEX
  8
0
 10
700
 20
540.49957275390625
 42
-0
  0
VERTEX
  8
0
 10
712.87457275390625
 20
464.831298828125
 42
-0
  0
VERTEX
  8
0
 10
733
 20
450
 42
-0
  0
VERTEX
  8
0
 10
753
 20
450
 42
0
  0
VERTEX
  8
0
 10
773.1253662109375
 20
464.831298828125
 42
0
  0
SEQEND
  0
POLYLINE
  8
0
 10
0
 20
0
 39
0
 70
1
 66
1
  0
VERTEX
  8
0
 10
751
 20
561.29449462890625
 42
0
  0
VERTEX
  8
0
 10
735
 20
561.29449462890625
 42
0
  0
VERTEX
  8
0
 10
735
 20
768.7054443359375
 42
-0
  0
VERTEX
  8
0
 10
751
 20
768.7054443359375
 42
0
  0
SEQEND
  0
POLYLINE
  8
0
 10
0
 20
0
 39
0
 70
1
 66
1
  0
VERTEX
  8
0
 10
759.0697021484375
 20
512.53350830078125
 42
-0
  0
VERTEX
  8
0
 10
743
 20
493.38241577148437
 42
0
  0
VERTEX
  8
0
 10
726.9302978515625
 20
512.53350830078125
 42
-0
  0
VERTEX
  8
0
 10
743
 20
531.68463134765625
 42
0
  0
SEQEND
  0
POLYLINE
  8
0
 10
0
 20
0
 39
0
 70
1
 66
1
  0
VERTEX
  8
0
 10
759.0697021484375
 20
817.4664306640625
 42
-0
  0
VERTEX
  8
0
 10
743
 20
798.3153076171875
 42
0
  0
VERTEX
  8
0
 10
726.9302978515625
 20
817.4664306640625
 42
-0
  0
VERTEX
  8
0
 10
743
 20
836.6175537109375
 42
0
  0
SEQEND
  0
POLYLINE
  8
0
 10
0
 20
0
 39
0
 70
1
 66
1
  0
VERTEX
  8
0
 10
704.5860595703125
 20
1190
 42
-0
  0
VERTEX
  8
0
 10
704.5860595703125
 20
935
 42
1
  0
VERTEX
  8
0
 10
794.5860595703125
 20
935
 42
-0
  0
VERTEX
  8
0
 10
794.5860595703125
 20
1190
 42
-0
  0
SEQEND
  0
POLYLINE
  8
0
 10
0
 20
0
 39
0
 70
1
 66
1
  0
VERTEX
  8
0
 10
749.5860595703125
 20
965
 42
-1
  0
VERTEX
  8
0
 10
749.5860595703125
 20
905
 42
-1
  0
SEQEND
  0
POLYLINE
  8
0
 10
0
 20
0
 39
0
 70
1
 66
1
  0
VERTEX
  8
0
 10
200.56170654296875
 20
181.74600219726562
 42
0
  0
VERTEX
  8
0
 10
327.84051513671875
 20
363.51895141601562
 42
0.15391500294208527
  0
VERTEX
  8
0
 10
332
 20
376.71121215820313
 42
0
  0
VERTEX
  8
0
 10
332
 20
423.42572021484375
 42
0.31529900431632996
  0
VERTEX
  8
0
 10
316.86648559570312
 20
445.03863525390625
 42
0
  0
VERTEX
  8
0
 10
199.52897644042969
 20
487.74600219726562
 42
0
  0
VERTEX
  8
0
 10
176
 20
487.74600219726562
 42
0
  0
VERTEX
  8
0
 10
176
 20
181.74600219726562
 42
0
  0
SEQEND
  0
POLYLINE
  8
0
 10
0
 20
0
 39
0
 70
1
 66
1
  0
VERTEX
  8
0
 10
279
 20
434.24600219726562
 42
-1
  0
VERTEX
  8
0
 10
279
 20
365.24600219726562
 42
-1
  0
SEQEND
  0
POLYLINE
  8
0
 10
0
 20
0
 39
0
 70
1
 66
1
  0
VERTEX
  8
0
 10
307.43829345703125
 20
316
 42
0
  0
VERTEX
  8
0
 10
180.15950012207031
 20
134.22703552246094
 42
0.15391500294208527
  0
VERTEX
  8
0
 10
176
 20
121.03478240966797
 42
0
  0
VERTEX
  8
0
 10
176
 20
74.320281982421875
 42
0.31529900431632996
  0
VERTEX
  8
0
 10
191.13352966308594
 20
52.707351684570313
 42
0
  0
VERTEX
  8
0
 10
308.47100830078125
 20
10
 42
0
  0
VERTEX
  8
0
 10
332
 20
10
 42
0
  0
VERTEX
  8
0
 10
332
 20
316
 42
0
  0
SEQEND
  0
POLYLINE
  8
0
 10
0
 20
0
 39
0
 70
1
 66
1
  0
VERTEX
  8
0
 10
229
 20
63.5
 42
-1
  0
VERTEX
  8
0
 10
229
 20
132.5
 42
-1
  0
SEQEND
  0
POLYLINE
  8
0
 10
0
 20
0
 39
0
 70
1
 66
1
  0
VERTEX
  8
0
 10
604.5860595703125
 20
1190
 42
-0
  0
VERTEX
  8
0
 10
604.5860595703125
 20
935
 42
1
  0
VERTEX
  8
0
 10
694.5860595703125
 20
935
 42
-0
  0
VERTEX
  8
0
 10
694.5860595703125
 20
1190
 42
-0
  0
SEQEND
  0
POLYLINE
  8
0
 10
0
 20
0
 39
0
 70
1
 66
1
  0
VERTEX
  8
0
 10
649.5860595703125
 20
965
 42
-1
  0
VERTEX
  8
0
 10
649.5860595703125
 20
905
 42
-1
  0
SEQEND
  0
POLYLINE
  8
0
 10
0
 20
0
 39
0
 70
1
 66
1
  0
VERTEX
  8
0
 10
890.5860595703125
 20
720.4996337890625
 42
-0
  0
VERTEX
  8
0
 10
890.5860595703125
 20
969.5003662109375
 42
-0
  0
VERTEX
  8
0
 10
877.71148681640625
 20
1045.168701171875
 42
-0
  0
VERTEX
  8
0
 10
857.5860595703125
 20
1060
 42
0
  0
VERTEX
  8
0
 10
837.5860595703125
 20
1060
 42
0
  0
VERTEX
  8
0
 10
817.46063232421875
 20
1045.168701171875
 42
0
  0
VERTEX
  8
0
 10
804.5860595703125
 20
969.5003662109375
 42
-0
  0
VERTEX
  8
0
 10
804.5860595703125
 20
720.4996337890625
 42
-0
  0
VERTEX
  8
0
 10
817.46063232421875
 20
644.831298828125
 42
-0
  0
VERTEX
  8
0
 10
837.5860595703125
 20
630
 42
-0
  0
VERTEX
  8
0
 10
857.5860595703125
 20
630
 42
0
  0
VERTEX
  8
0
 10
877.71148681640625
 20
644.831298828125
 42
0
  0
SEQEND
  0
POLYLINE
  8
0
 10
0
 20
0
 39
0
 70
1
 66
1
  0
VERTEX
  8
0
 10
855.5860595703125
 20
741.2945556640625
 42
0
  0
VERTEX
  8
0
 10
839.5860595703125
 20
741.2945556640625
 42
0
  0
VERTEX
  8
0
 10
839.5860595703125
 20
948.7054443359375
 42
-0
  0
VERTEX
  8
0
 10
855.5860595703125
 20
948.7054443359375
 42
0
  0
SEQEND
  0
POLYLINE
  8
0
 10
0
 20
0
 39
0
 70
1
 66
1
  0
VERTEX
  8
0
 10
863.65576171875
 20
692.5335693359375
 42
-0
  0
VERTEX
  8
0
 10
847.5860595703125
 20
673.3824462890625
 42
0
  0
VERTEX
  8
0
 10
831.516357421875
 20
692.5335693359375
 42
-0
  0
VERTEX
  8
0
 10
847.5860595703125
 20
711.68463134765625
 42
0
  0
SEQEND
  0
POLYLINE
  8
0
 10
0
 20
0
 39
0
 70
1
 66
1
  0
VERTEX
  8
0
 10
863.65576171875
 20
997.4664306640625
 42
-0
  0
VERTEX
  8
0
 10
847.5860595703125
 20
978.3153076171875
 42
0
  0
VERTEX
  8
0
 10
831.516357421875
 20
997.4664306640625
 42
-0
  0
VERTEX
  8
0
 10
847.5860595703125
 20
1016.6175537109375
 42
0
  0
SEQEND
  0
POLYLINE
  8
0
 10
0
 20
0
 39
0
 70
1
 66
1
  0
VERTEX
  8
0
 10
200.56170654296875
 20
669.49200439453125
 42
0
  0
VERTEX
  8
0
 10
327.84051513671875
 20
851.26495361328125
 42
0.15391500294208527
  0
VERTEX
  8
0
 10
332
 20
864.45721435546875
 42
0
  0
VERTEX
  8
0
 10
332
 20
911.17169189453125
 42
0.31529900431632996
  0
VERTEX
  8
0
 10
316.86648559570312
 20
932.78466796875
 42
0
  0
VERTEX
  8
0
 10
199.52897644042969
 20
975.49200439453125
 42
0
  0
VERTEX
  8
0
 10
176
 20
975.49200439453125
 42
0
  0
VERTEX
  8
0
 10
176
 20
669.49200439453125
 42
0
  0
SEQEND
  0
POLYLINE
  8
0
 10
0
 20
0
 39
0
 70
1
 66
1
  0
VERTEX
  8
0
 10
279
 20
921.99200439453125
 42
-1
  0
VERTEX
  8
0
 10
279
 20
852.99200439453125
 42
-1
  0
SEQEND
  0
POLYLINE
  8
0
 10
0
 20
0
 39
0
 70
1
 66
1
  0
VERTEX
  8
0
 10
307.43829345703125
 20
803.7459716796875
 42
0
  0
VERTEX
  8
0
 10
180.15950012207031
 20
621.9730224609375
 42
0.15391500294208527
  0
VERTEX
  8
0
 10
176
 20
608.78076171875
 42
0
  0
VERTEX
  8
0
 10
176
 20
562.0662841796875
 42
0.31529900431632996
  0
VERTEX
  8
0
 10
191.13352966308594
 20
540.453369140625
 42
0
  0
VERTEX
  8
0
 10
308.47100830078125
 20
497.74600219726562
 42
0
  0
VERTEX
  8
0
 10
332
 20
497.74600219726562
 42
0
  0
VERTEX
  8
0
 10
332
 20
803.7459716796875
 42
0
  0
SEQEND
  0
POLYLINE
  8
0
 10
0
 20
0
 39
0
 70
1
 66
1
  0
VERTEX
  8
0
 10
229
 20
551.2459716796875
 42
-1
  0
VERTEX
  8
0
 10
229
 20
620.2459716796875
 42
-1
  0
SEQEND
  0
POLYLINE
  8
0
 10
0
 20
0
 39
0
 70
1
 66
1
  0
VERTEX
  8
0
 10
34.561702728271484
 20
181.74600219726562
 42
0
  0
VERTEX
  8
0
 10
161.84049987792969
 20
363.51895141601562
 42
0.15391500294208527
  0
VERTEX
  8
0
 10
166
 20
376.71121215820313
 42
0
  0
VERTEX
  8
0
 10
166
 20
423.42572021484375
 42
0.31529900431632996
  0
VERTEX
  8
0
 10
150.86647033691406
 20
445.03863525390625
 42
0
  0
VERTEX
  8
0
 10
33.528980255126953
 20
487.74600219726562
 42
0
  0
VERTEX
  8
0
 10
10
 20
487.74600219726562
 42
0
  0
VERTEX
  8
0
 10
10
 20
181.74600219726562
 42
0
  0
SEQEND
  0
POLYLINE
  8
0
 10
0
 20
0
 39
0
 70
1
 66
1
  0
VERTEX
  8
0
 10
113
 20
434.24600219726562
 42
-1
  0
VERTEX
  8
0
 10
113
 20
365.24600219726562
 42
-1
  0
SEQEND
  0
POLYLINE
  8
0
 10
0
 20
0
 39
0
 70
1
 66
1
  0
VERTEX
  8
0
 10
141.43829345703125
 20
316
 42
0
  0
VERTEX
  8
0
 10
14.159500122070313
 20
134.22703552246094
 42
0.15391500294208527
  0
VERTEX
  8
0
 10
10
 20
121.03478240966797
 42
0
  0
VERTEX
  8
0
 10
10
 20
74.320281982421875
 42
0.31529900431632996
  0
VERTEX
  8
0
 10
25.133529663085937
 20
52.707351684570313
 42
0
  0
VERTEX
  8
0
 10
142.47102355957031
 20
10
 42
0
  0
VERTEX
  8
0
 10
166
 20
10
 42
0
  0
VERTEX
  8
0
 10
166
 20
316
 42
0
  0
SEQEND
  0
POLYLINE
  8
0
 10
0
 20
0
 39
0
 70
1
 66
1
  0
VERTEX
  8
0
 10
63
 20
63.5
 42
-1
  0
VERTEX
  8
0
 10
63
 20
132.5
 42
-1
  0
SEQEND
  0
POLYLINE
  8
0
 10
0
 20
0
 39
0
 70
1
 66
1
  0
VERTEX
  8
0
 10
690
 20
540.49957275390625
 42
-0
  0
VERTEX
  8
0
 10
690
 20
789.5003662109375
 42
-0
  0
VERTEX
  8
0
 10
677.12542724609375
 20
865.16864013671875
 42
-0
  0
VERTEX
  8
0
 10
657
 20
880
 42
0
  0
VERTEX
  8
0
 10
637
 20
880
 42
0
  0
VERTEX
  8
0
 10
616.87457275390625
 20
865.16864013671875
 42
0
  0
VERTEX
  8
0
 10
604
 20
789.5003662109375
 42
-0
  0
VERTEX
  8
0
 10
604
 20
540.49957275390625
 42
-0
  0
VERTEX
  8
0
 10
616.87457275390625
 20
464.831298828125
 42
-0
  0
VERTEX
  8
0
 10
637
 20
450
 42
-0
  0
VERTEX
  8
0
 10
657
 20
450
 42
0
  0
VERTEX
  8
0
 10
677.12542724609375
 20
464.831298828125
 42
0
  0
SEQEND
  0
POLYLINE
  8
0
 10
0
 20
0
 39
0
 70
1
 66
1
  0
VERTEX
  8
0
 10
655
 20
561.29449462890625
 42
0
  0
VERTEX
  8
0
 10
639
 20
561.29449462890625
 42
0
  0
VERTEX
  8
0
 10
639
 20
768.7054443359375
 42
-0
  0
VERTEX
  8
0
 10
655
 20
768.7054443359375
 42
0
  0
SEQEND
  0
POLYLINE
  8
0
 10
0
 20
0
 39
0
 70
1
 66
1
  0
VERTEX
  8
0
 10
663.0697021484375
 20
512.53350830078125
 42
-0
  0
VERTEX
  8
0
 10
647
 20
493.38241577148437
 42
0
  0
VERTEX
  8
0
 10
630.9302978515625
 20
512.53350830078125
 42
-0
  0
VERTEX
  8
0
 10
647
 20
531.68463134765625
 42
0
  0
SEQEND
  0
POLYLINE
  8
0
 10
0
 20
0
 39
0
 70
1
 66
1
  0
VERTEX
  8
0
 10
663.0697021484375
 20
817.4664306640625
 42
-0
  0
VERTEX
  8
0
 10
647
 20
798.3153076171875
 42
0
  0
VERTEX
  8
0
 10
630.9302978515625
 20
817.4664306640625
 42
-0
  0
VERTEX
  8
0
 10
647
 20
836.6175537109375
 42
0
  0
SEQEND
  0
POLYLINE
  8
0
 10
0
 20
0
 39
0
 70
1
 66
1
  0
VERTEX
  8
0
 10
712
 20
100.49960327148437
 42
-0
  0
VERTEX
  8
0
 10
712
 20
349.5003662109375
 42
-0
  0
VERTEX
  8
0
 10
699.1253662109375
 20
425.16867065429687
 42
-0
  0
VERTEX
  8
0
 10
679
 20
440
 42
0
  0
VERTEX
  8
0
 10
659
 20
440
 42
0
  0
VERTEX
  8
0
 10
638.87457275390625
 20
425.16867065429687
 42
0
  0
VERTEX
  8
0
 10
626
 20
349.5003662109375
 42
-0
  0
VERTEX
  8
0
 10
626
 20
100.49960327148437
 42
-0
  0
VERTEX
  8
0
 10
638.87457275390625
 20
24.831298828125
 42
-0
  0
VERTEX
  8
0
 10
659
 20
10
 42
-0
  0
VERTEX
  8
0
 10
679
 20
10
 42
0
  0
VERTEX
  8
0
 10
699.1253662109375
 20
24.831298828125
 42
0
  0
SEQEND
  0
POLYLINE
  8
0
 10
0
 20
0
 39
0
 70
1
 66
1
  0
VERTEX
  8
0
 10
677
 20
121.29452514648437
 42
0
  0
VERTEX
  8
0
 10
661
 20
121.29452514648437
 42
0
  0
VERTEX
  8
0
 10
661
 20
328.7054443359375
 42
-0
  0
VERTEX
  8
0
 10
677
 20
328.7054443359375
 42
0
  0
SEQEND
  0
POLYLINE
  8
0
 10
0
 20
0
 39
0
 70
1
 66
1
  0
VERTEX
  8
0
 10
685.0697021484375
 20
72.533538818359375
 42
-0
  0
VERTEX
  8
0
 10
669
 20
53.382415771484375
 42
0
  0
VERTEX
  8
0
 10
652.9302978515625
 20
72.533538818359375
 42
-0
  0
VERTEX
  8
0
 10
669
 20
91.68463134765625
 42
0
  0
SEQEND
  0
POLYLINE
  8
0
 10
0
 20
0
 39
0
 70
1
 66
1
  0
VERTEX
  8
0
 10
685.0697021484375
 20
377.4664306640625
 42
-0
  0
VERTEX
  8
0
 10
669
 20
358.31533813476562
 42
0
  0
VERTEX
  8
0
 10
652.9302978515625
 20
377.4664306640625
 42
-0
  0
VERTEX
  8
0
 10
669
 20
396.6175537109375
 42
0
  0
SEQEND
  0
POLYLINE
  8
0
 10
0
 20
0
 39
0
 70
1
 66
1
  0
VERTEX
  8
0
 10
796
 20
620
 42
-0
  0
VERTEX
  8
0
 10
796
 20
365
 42
1
  0
VERTEX
  8
0
 10
886
 20
365
 42
-0
  0
VERTEX
  8
0
 10
886
 20
620
 42
-0
  0
SEQEND
  0
POLYLINE
  8
0
 10
0
 20
0
 39
0
 70
1
 66
1
  0
VERTEX
  8
0
 10
841
 20
395
 42
-1
  0
VERTEX
  8
0
 10
841
 20
335
 42
-1
  0
SEQEND
  0
POLYLINE
  8
0
 10
0
 20
0
 39
0
 70
1
 66
1
  0
VERTEX
  8
0
 10
804.5860595703125
 20
1070
 42
-0
  0
VERTEX
  8
0
 10
1059.5860595703125
 20
1070
 42
1
  0
VERTEX
  8
0
 10
1059.5860595703125
 20
1160
 42
-0
  0
VERTEX
  8
0
 10
804.5860595703125
 20
1160
 42
-0
  0
SEQEND
  0
POLYLINE
  8
0
 10
0
 20
0
 39
0
 70
1
 66
1
  0
VERTEX
  8
0
 10
1029.5860595703125
 20
1115
 42
-1
  0
VERTEX
  8
0
 10
1089.5860595703125
 20
1115
 42
-1
  0
SEQEND
  0
POLYLINE
  8
0
 10
0
 20
0
 39
0
 70
1
 66
1
  0
VERTEX
  8
0
 10
594
 20
540.49957275390625
 42
-0
  0
VERTEX
  8
0
 10
594
 20
789.5003662109375
 42
-0
  0
VERTEX
  8
0
 10
581.12542724609375
 20
865.16864013671875
 42
-0
  0
VERTEX
  8
0
 10
561
 20
880
 42
0
  0
VERTEX
  8
0
 10
541
 20
880
 42
0
  0
VERTEX
  8
0
 10
520.87457275390625
 20
865.16864013671875
 42
0
  0
VERTEX
  8
0
 10
508
 20
789.5003662109375
 42
-0
  0
VERTEX
  8
0
 10
508
 20
540.49957275390625
 42
-0
  0
VERTEX
  8
0
 10
520.87457275390625
 20
464.831298828125
 42
-0
  0
VERTEX
  8
0
 10
541
 20
450
 42
-0
  0
VERTEX
  8
0
 10
561
 20
450
 42
0
  0
VERTEX
  8
0
 10
581.12542724609375
 20
464.831298828125
 42
0
  0
SEQEND
  0
POLYLINE
  8
0
 10
0
 20
0
 39
0
 70
1
 66
1
  0
VERTEX
  8
0
 10
559
 20
561.29449462890625
 42
0
  0
VERTEX
  8
0
 10
543
 20
561.29449462890625
 42
0
  0
VERTEX
  8
0
 10
543
 20
768.7054443359375
 42
-0
  0
VERTEX
  8
0
 10
559
 20
768.7054443359375
 42
0
  0
SEQEND
  0
POLYLINE
  8
0
 10
0
 20
0
 39
0
 70
1
 66
1
  0
VERTEX
  8
0
 10
567.0697021484375
 20
512.53350830078125
 42
-0
  0
VERTEX
  8
0
 10
551
 20
493.38241577148437
 42
0
  0
VERTEX
  8
0
 10
534.9302978515625
 20
512.53350830078125
 42
-0
  0
VERTEX
  8
0
 10
551
 20
531.68463134765625
 42
0
  0
SEQEND
  0
POLYLINE
  8
0
 10
0
 20
0
 39
0
 70
1
 66
1
  0
VERTEX
  8
0
 10
567.0697021484375
 20
817.4664306640625
 42
-0
  0
VERTEX
  8
0
 10
551
 20
798.3153076171875
 42
0
  0
VERTEX
  8
0
 10
534.9302978515625
 20
817.4664306640625
 42
-0
  0
VERTEX
  8
0
 10
551
 20
836.6175537109375
 42
0
  0
SEQEND
  0
POLYLINE
  8
0
 10
0
 20
0
 39
0
 70
1
 66
1
  0
VERTEX
  8
0
 10
986.5860595703125
 20
720.4996337890625
 42
-0
  0
VERTEX
  8
0
 10
986.5860595703125
 20
969.5003662109375
 42
-0
  0
VERTEX
  8
0
 10
973.71148681640625
 20
1045.168701171875
 42
-0
  0
VERTEX
  8
0
 10
953.5860595703125
 20
1060
 42
0
  0
VERTEX
  8
0
 10
933.5860595703125
 20
1060
 42
0
  0
VERTEX
  8
0
 10
913.46063232421875
 20
1045.168701171875
 42
0
  0
VERTEX
  8
0
 10
900.5860595703125
 20
969.5003662109375
 42
-0
  0
VERTEX
  8
0
 10
900.5860595703125
 20
720.4996337890625
 42
-0
  0
VERTEX
  8
0
 10
913.46063232421875
 20
644.831298828125
 42
-0
  0
VERTEX
  8
0
 10
933.5860595703125
 20
630
 42
-0
  0
VERTEX
  8
0
 10
953.5860595703125
 20
630
 42
0
  0
VERTEX
  8
0
 10
973.71148681640625
 20
644.831298828125
 42
0
  0
SEQEND
  0
POLYLINE
  8
0
 10
0
 20
0
 39
0
 70
1
 66
1
  0
VERTEX
  8
0
 10
951.5860595703125
 20
741.2945556640625
 42
0
  0
VERTEX
  8
0
 10
935.5860595703125
 20
741.2945556640625
 42
0
  0
VERTEX
  8
0
 10
935.5860595703125
 20
948.7054443359375
 42
-0
  0
VERTEX
  8
0
 10
951.5860595703125
 20
948.7054443359375
 42
0
  0
SEQEND
  0
POLYLINE
  8
0
 10
0
 20
0
 39
0
 70
1
 66
1
  0
VERTEX
  8
0
 10
959.65576171875
 20
692.5335693359375
 42
-0
  0
VERTEX
  8
0
 10
943.5860595703125
 20
673.3824462890625
 42
0
  0
VERTEX
  8
0
 10
927.516357421875
 20
692.5335693359375
 42
-0
  0
VERTEX
  8
0
 10
943.5860595703125
 20
711.68463134765625
 42
0
  0
SEQEND
  0
POLYLINE
  8
0
 10
0
 20
0
 39
0
 70
1
 66
1
  0
VERTEX
  8
0
 10
959.65576171875
 20
997.4664306640625
 42
-0
  0
VERTEX
  8
0
 10
943.5860595703125
 20
978.3153076171875
 42
0
  0
VERTEX
  8
0
 10
927.516357421875
 20
997.4664306640625
 42
-0
  0
VERTEX
  8
0
 10
943.5860595703125
 20
1016.6175537109375
 42
0
  0
SEQEND
  0
POLYLINE
  8
0
 10
0
 20
0
 39
0
 70
1
 66
1
  0
VERTEX
  8
0
 10
1717.2601318359375
 20
699.09521484375
 42
0.91633117198944092
  0
VERTEX
  8
0
 10
1758.6495361328125
 20
684.66571044921875
 42
0
  0
VERTEX
  8
0
 10
1807.70458984375
 20
793.71636962890625
 42
0.62152963876724243
  0
VERTEX
  8
0
 10
1733.5516357421875
 20
883.65728759765625
 42
0.65655827522277832
  0
VERTEX
  8
0
 10
1726.404296875
 20
843.9215087890625
 42
-0.10101121664047241
  0
VERTEX
  8
0
 10
1737.6856689453125
 20
832.57763671875
 42
0
  0
VERTEX
  8
0
 10
1746.166015625
 20
837.321044921875
 42
0
  0
VERTEX
  8
0
 10
1754.763671875
 20
803.3934326171875
 42
-0
  0
VERTEX
  8
0
 10
1743.626220703125
 20
803.54510498046875
 42
-0.017638612538576126
  0
VERTEX
  8
0
 10
1743.030029296875
 20
800.7874755859375
 42
-0
  0
SEQEND
  0
POLYLINE
  8
0
 10
0
 20
0
 39
0
 70
1
 66
1
  0
VERTEX
  8
0
 10
1738.5860595703125
 20
870.24102783203125
 42
-1
  0
VERTEX
  8
0
 10
1738.5860595703125
 20
854.24102783203125
 42
-1
  0
SEQEND
  0
POLYLINE
  8
0
 10
0
 20
0
 39
0
 70
1
 66
1
  0
VERTEX
  8
0
 10
1738.5860595703125
 20
701.6910400390625
 42
-1
  0
VERTEX
  8
0
 10
1738.5860595703125
 20
685.6910400390625
 42
-1
  0
SEQEND
  0
POLYLINE
  8
0
 10
0
 20
0
 39
0
 70
1
 66
1
  0
VERTEX
  8
0
 10
822
 20
310
 42
-0
  0
VERTEX
  8
0
 10
822
 20
55
 42
1
  0
VERTEX
  8
0
 10
912
 20
55
 42
-0
  0
VERTEX
  8
0
 10
912
 20
310
 42
-0
  0
SEQEND
  0
POLYLINE
  8
0
 10
0
 20
0
 39
0
 70
1
 66
1
  0
VERTEX
  8
0
 10
867
 20
85
 42
-1
  0
VERTEX
  8
0
 10
867
 20
25
 42
-1
  0
SEQEND
  0
POLYLINE
  8
0
 10
0
 20
0
 39
0
 70
1
 66
1
  0
VERTEX
  8
0
 10
996.5860595703125
 20
930
 42
-0
  0
VERTEX
  8
0
 10
996.5860595703125
 20
675
 42
1
  0
VERTEX
  8
0
 10
1086.5860595703125
 20
675
 42
-0
  0
VERTEX
  8
0
 10
1086.5860595703125
 20
930
 42
-0
  0
SEQEND
  0
POLYLINE
  8
0
 10
0
 20
0
 39
0
 70
1
 66
1
  0
VERTEX
  8
0
 10
1041.5860595703125
 20
705
 42
-1
  0
VERTEX
  8
0
 10
1041.5860595703125
 20
645
 42
-1
  0
SEQEND
  0
POLYLINE
  8
0
 10
0
 20
0
 39
0
 70
1
 66
1
  0
VERTEX
  8
0
 10
1582
 20
310
 42
-0
  0
VERTEX
  8
0
 10
1582
 20
55
 42
1
  0
VERTEX
  8
0
 10
1672
 20
55
 42
-0
  0
VERTEX
  8
0
 10
1672
 20
310
 42
-0
  0
SEQEND
  0
POLYLINE
  8
0
 10
0
 20
0
 39
0
 70
1
 66
1
  0
VERTEX
  8
0
 10
1627
 20
85
 42
-1
  0
VERTEX
  8
0
 10
1627
 20
25
 42
-1
  0
SEQEND
  0
ENDSEC
  0
EOF
