  0
SECTION
  2
ENTITIES
  0
POLYLINE
  8
0
 10
0
 20
0
 39
0
 70
1
 66
1
  0
VERTEX
  8
0
 10
0
 20
0
 42
0
  0
VERTEX
  8
0
 10
1200
 20
0
 42
0
  0
VERTEX
  8
0
 10
1200
 20
600
 42
0
  0
VERTEX
  8
0
 10
0
 20
600
 42
0
  0
SEQEND
  0
POLYLINE
  8
0
 10
0
 20
0
 39
0
 70
1
 66
1
  0
VERTEX
  8
0
 10
211.03265824506263
 20
410.15808907116036
 42
-1
  0
VERTEX
  8
0
 10
209.28733459452371
 20
10.161903768425987
 42
-1
  0
SEQEND
  0
POLYLINE
  8
0
 10
0
 20
0
 39
0
 70
1
 66
1
  0
VERTEX
  8
0
 10
210.90175897127222
 20
380.15837517345528
 42
1
  0
VERTEX
  8
0
 10
209.41823386831413
 20
40.161617666131065
 42
1
  0
SEQEND
  0
POLYLINE
  8
0
 10
0
 20
0
 39
0
 70
1
 66
1
  0
VERTEX
  8
0
 10
350.59856678153972
 20
208.22550092406226
 42
-1
  0
VERTEX
  8
0
 10
50.601427804488964
 20
209.53449366196645
 42
-1
  0
SEQEND
  0
POLYLINE
  8
0
 10
0
 20
0
 39
0
 70
1
 66
1
  0
VERTEX
  8
0
 10
305.5989959349821
 20
208.42184983474789
 42
1
  0
VERTEX
  8
0
 10
95.600998651046581
 20
209.33814475128082
 42
1
  0
SEQEND
  0
POLYLINE
  8
0
 10
0
 20
0
 39
0
 70
1
 66
1
  0
VERTEX
  8
0
 10
300.08000001809705
 20
412.63792968750022
 42
-0
  0
VERTEX
  8
0
 10
300.08000001809705
 20
526.88207031250022
 42
-0.29410767555236816
  0
VERTEX
  8
0
 10
311.80265626809705
 20
545.08910156250022
 42
-0
  0
VERTEX
  8
0
 10
406.13468751809705
 20
587.96703125000022
 42
-0.10706308484077454
  0
VERTEX
  8
0
 10
414.41203126809705
 20
589.76000000000022
 42
0
  0
VERTEX
  8
0
 10
500.08000001809705
 20
589.76000000000022
 42
-0.41421356797218323
  0
VERTEX
  8
0
 10
520.08000001809705
 20
569.76000000000022
 42
0
  0
VERTEX
  8
0
 10
520.08000001809705
 20
369.76000000000022
 42
-0.41421356797218323
  0
VERTEX
  8
0
 10
500.08000001809705
 20
349.76000000000022
 42
-0
  0
VERTEX
  8
0
 10
414.41203126809705
 20
349.76000000000022
 42
-0.10706308484077454
  0
VERTEX
  8
0
 10
406.13468751809705
 20
351.55296875000022
 42
0
  0
VERTEX
  8
0
 10
311.80265626809705
 20
394.43089843750022
 42
-0.29410767555236816
  0
SEQEND
  0
POLYLINE
  8
0
 10
0
 20
0
 39
0
 70
1
 66
1
  0
VERTEX
  8
0
 10
425.08000001809705
 20
419.76000000000022
 42
1
  0
VERTEX
  8
0
 10
425.08000001809705
 20
519.76000000000022
 42
1
  0
SEQEND
  0
POLYLINE
  8
0
 10
0
 20
0
 39
0
 70
1
 66
1
  0
VERTEX
  8
0
 10
419.36000001809589
 20
73.037929687499854
 42
-0
  0
VERTEX
  8
0
 10
419.36000001809589
 20
187.28207031249985
 42
-0.29410767555236816
  0
VERTEX
  8
0
 10
431.08265626809589
 20
205.48910156249985
 42
-0
  0
VERTEX
  8
0
 10
525.41468751809589
 20
248.36703124999985
 42
-0.10706308484077454
  0
VERTEX
  8
0
 10
533.69203126809589
 20
250.15999999999985
 42
0
  0
VERTEX
  8
0
 10
619.36000001809589
 20
250.15999999999985
 42
-0.41421356797218323
  0
VERTEX
  8
0
 10
639.36000001809589
 20
230.15999999999985
 42
0
  0
VERTEX
  8
0
 10
639.36000001809589
 20
30.159999999999854
 42
-0.41421356797218323
  0
VERTEX
  8
0
 10
619.36000001809589
 20
10.159999999999854
 42
-0
  0
VERTEX
  8
0
 10
533.69203126809589
 20
10.159999999999854
 42
-0.10706308484077454
  0
VERTEX
  8
0
 10
525.41468751809589
 20
11.952968749999854
 42
0
  0
VERTEX
  8
0
 10
431.08265626809589
 20
54.830898437499854
 42
-0.29410767555236816
  0
SEQEND
  0
POLYLINE
  8
0
 10
0
 20
0
 39
0
 70
1
 66
1
  0
VERTEX
  8
0
 10
544.36000001809589
 20
80.159999999999854
 42
1
  0
VERTEX
  8
0
 10
544.36000001809589
 20
180.15999999999985
 42
1
  0
SEQEND
  0
POLYLINE
  8
0
 10
0
 20
0
 39
0
 70
1
 66
1
  0
VERTEX
  8
0
 10
759.51999999999998
 20
433.16000000000003
 42
-0
  0
VERTEX
  8
0
 10
759.51999999999998
 20
10.160000000000007
 42
-0
  0
VERTEX
  8
0
 10
649.51999999999998
 20
10.16
 42
-0
  0
VERTEX
  8
0
 10
649.51999999999998
 20
433.16000000000003
 42
-0
  0
SEQEND
  0
POLYLINE
  8
0
 10
0
 20
0
 39
0
 70
1
 66
1
  0
VERTEX
  8
0
 10
704.51999999999998
 20
14.160000000000004
 42
1
  0
VERTEX
  8
0
 10
704.51999999999998
 20
84.159999999999997
 42
1
  0
SEQEND
  0
POLYLINE
  8
0
 10
0
 20
0
 39
0
 70
1
 66
1
  0
VERTEX
  8
0
 10
694.51999999999998
 20
365.66000000000003
 42
1
  0
VERTEX
  8
0
 10
694.51999999999998
 20
410.66000000000003
 42
1
  0
SEQEND
  0
POLYLINE
  8
0
 10
0
 20
0
 39
0
 70
1
 66
1
  0
VERTEX
  8
0
 10
879.75999999999999
 20
433.16000000000003
 42
-0
  0
VERTEX
  8
0
 10
879.75999999999999
 20
10.160000000000007
 42
-0
  0
VERTEX
  8
0
 10
769.75999999999999
 20
10.16
 42
-0
  0
VERTEX
  8
0
 10
769.75999999999999
 20
433.16000000000003
 42
-0
  0
SEQEND
  0
POLYLINE
  8
0
 10
0
 20
0
 39
0
 70
1
 66
1
  0
VERTEX
  8
0
 10
824.75999999999999
 20
14.160000000000004
 42
1
  0
VERTEX
  8
0
 10
824.75999999999999
 20
84.159999999999997
 42
1
  0
SEQEND
  0
POLYLINE
  8
0
 10
0
 20
0
 39
0
 70
1
 66
1
  0
VERTEX
  8
0
 10
814.75999999999999
 20
365.66000000000003
 42
1
  0
VERTEX
  8
0
 10
814.75999999999999
 20
410.66000000000003
 42
1
  0
SEQEND
  0
POLYLINE
  8
0
 10
0
 20
0
 39
0
 70
1
 66
1
  0
VERTEX
  8
0
 10
530.24000000000001
 20
553.24000000000001
 42
-0
  0
VERTEX
  8
0
 10
953.24000000000001
 20
553.24000000000001
 42
-0
  0
VERTEX
  8
0
 10
953.24000000000001
 20
443.23999999999995
 42
-0
  0
VERTEX
  8
0
 10
530.24000000000001
 20
443.23999999999995
 42
-0
  0
SEQEND
  0
POLYLINE
  8
0
 10
0
 20
0
 39
0
 70
1
 66
1
  0
VERTEX
  8
0
 10
949.24000000000001
 20
498.23999999999995
 42
1
  0
VERTEX
  8
0
 10
879.24000000000001
 20
498.23999999999995
 42
1
  0
SEQEND
  0
POLYLINE
  8
0
 10
0
 20
0
 39
0
 70
1
 66
1
  0
VERTEX
  8
0
 10
597.74000000000001
 20
488.23999999999995
 42
1
  0
VERTEX
  8
0
 10
552.74000000000001
 20
488.23999999999995
 42
1
  0
SEQEND
  0
POLYLINE
  8
0
 10
0
 20
0
 39
0
 70
1
 66
1
  0
VERTEX
  8
0
 10
10.160000000000007
 20
396.31999999999999
 42
-0
  0
VERTEX
  8
0
 10
10.159999999999998
 20
541.31999999999994
 42
0
  0
VERTEX
  8
0
 10
100.16000000000001
 20
396.31999999999999
 42
0
  0
SEQEND
  0
POLYLINE
  8
0
 10
0
 20
0
 39
0
 70
1
 66
1
  0
VERTEX
  8
0
 10
40.36667839050294
 20
414.58943969726562
 42
1
  0
VERTEX
  8
0
 10
40.366678390502933
 20
446.58943969726562
 42
1
  0
SEQEND
  0
POLYLINE
  8
0
 10
0
 20
0
 39
0
 70
1
 66
1
  0
VERTEX
  8
0
 10
112.1105
 20
541.31999999999994
 42
-0
  0
VERTEX
  8
0
 10
112.11049999999999
 20
396.31999999999994
 42
0
  0
VERTEX
  8
0
 10
22.110500000000002
 20
541.31999999999994
 42
0
  0
SEQEND
  0
POLYLINE
  8
0
 10
0
 20
0
 39
0
 70
1
 66
1
  0
VERTEX
  8
0
 10
81.903821609497072
 20
523.05056030273431
 42
1
  0
VERTEX
  8
0
 10
81.903821609497072
 20
491.05056030273431
 42
1
  0
SEQEND
  0
POLYLINE
  8
0
 10
0
 20
0
 39
0
 70
1
 66
1
  0
VERTEX
  8
0
 10
122.24000000000001
 20
420.19999999999999
 42
-0
  0
VERTEX
  8
0
 10
122.23999999999999
 20
565.20000000000005
 42
0
  0
VERTEX
  8
0
 10
212.24000000000001
 20
420.19999999999999
 42
0
  0
SEQEND
  0
POLYLINE
  8
0
 10
0
 20
0
 39
0
 70
1
 66
1
  0
VERTEX
  8
0
 10
152.44667839050294
 20
438.46943969726561
 42
1
  0
VERTEX
  8
0
 10
152.44667839050294
 20
470.46943969726561
 42
1
  0
SEQEND
  0
POLYLINE
  8
0
 10
0
 20
0
 39
0
 70
1
 66
1
  0
VERTEX
  8
0
 10
224.19049999999999
 20
565.20000000000005
 42
-0
  0
VERTEX
  8
0
 10
224.19049999999999
 20
420.20000000000005
 42
0
  0
VERTEX
  8
0
 10
134.19049999999999
 20
565.20000000000005
 42
0
  0
SEQEND
  0
POLYLINE
  8
0
 10
0
 20
0
 39
0
 70
1
 66
1
  0
VERTEX
  8
0
 10
193.98382160949706
 20
546.93056030273442
 42
1
  0
VERTEX
  8
0
 10
193.98382160949706
 20
514.93056030273442
 42
1
  0
SEQEND
  0
POLYLINE
  8
0
 10
0
 20
0
 39
0
 70
1
 66
1
  0
VERTEX
  8
0
 10
139.75999999999999
 20
136.28
 42
-0
  0
VERTEX
  8
0
 10
139.75999999999999
 20
281.27999999999997
 42
0
  0
VERTEX
  8
0
 10
229.75999999999999
 20
136.28
 42
0
  0
SEQEND
  0
POLYLINE
  8
0
 10
0
 20
0
 39
0
 70
1
 66
1
  0
VERTEX
  8
0
 10
169.96667839050292
 20
154.54943969726563
 42
1
  0
VERTEX
  8
0
 10
169.96667839050292
 20
186.54943969726563
 42
1
  0
SEQEND
  0
POLYLINE
  8
0
 10
0
 20
0
 39
0
 70
1
 66
1
  0
VERTEX
  8
0
 10
241.71049999999997
 20
281.27999999999997
 42
-0
  0
VERTEX
  8
0
 10
241.71049999999997
 20
136.27999999999997
 42
0
  0
VERTEX
  8
0
 10
151.71049999999997
 20
281.27999999999997
 42
0
  0
SEQEND
  0
POLYLINE
  8
0
 10
0
 20
0
 39
0
 70
1
 66
1
  0
VERTEX
  8
0
 10
211.50382160949704
 20
263.01056030273435
 42
1
  0
VERTEX
  8
0
 10
211.50382160949704
 20
231.01056030273435
 42
1
  0
SEQEND
  0
POLYLINE
  8
0
 10
0
 20
0
 39
0
 70
1
 66
1
  0
VERTEX
  8
0
 10
530.24000000000001
 20
260.24000000000001
 42
-0
  0
VERTEX
  8
0
 10
530.24000000000001
 20
405.24000000000001
 42
0
  0
VERTEX
  8
0
 10
620.24000000000001
 20
260.24000000000001
 42
0
  0
SEQEND
  0
POLYLINE
  8
0
 10
0
 20
0
 39
0
 70
1
 66
1
  0
VERTEX
  8
0
 10
560.44667839050294
 20
278.50943969726563
 42
1
  0
VERTEX
  8
0
 10
560.44667839050294
 20
310.50943969726563
 42
1
  0
SEQEND
  0
POLYLINE
  8
0
 10
0
 20
0
 39
0
 70
1
 66
1
  0
VERTEX
  8
0
 10
632.19050000000004
 20
405.24000000000001
 42
-0
  0
VERTEX
  8
0
 10
632.19050000000004
 20
260.24000000000001
 42
0
  0
VERTEX
  8
0
 10
542.19050000000004
 20
405.24000000000001
 42
0
  0
SEQEND
  0
POLYLINE
  8
0
 10
0
 20
0
 39
0
 70
1
 66
1
  0
VERTEX
  8
0
 10
601.98382160949711
 20
386.97056030273438
 42
1
  0
VERTEX
  8
0
 10
601.98382160949711
 20
354.97056030273438
 42
1
  0
SEQEND
  0
POLYLINE
  8
0
 10
0
 20
0
 39
0
 70
1
 66
1
  0
VERTEX
  8
0
 10
889.99999999999989
 20
10.16
 42
-0
  0
VERTEX
  8
0
 10
889.99999999999989
 20
155.16
 42
0
  0
VERTEX
  8
0
 10
979.99999999999989
 20
10.160000000000011
 42
0
  0
SEQEND
  0
POLYLINE
  8
0
 10
0
 20
0
 39
0
 70
1
 66
1
  0
VERTEX
  8
0
 10
920.20667839050282
 20
28.429439697265629
 42
1
  0
VERTEX
  8
0
 10
920.20667839050282
 20
60.429439697265622
 42
1
  0
SEQEND
  0
POLYLINE
  8
0
 10
0
 20
0
 39
0
 70
1
 66
1
  0
VERTEX
  8
0
 10
991.95049999999992
 20
155.16
 42
-0
  0
VERTEX
  8
0
 10
991.95049999999992
 20
10.159999999999997
 42
0
  0
VERTEX
  8
0
 10
901.95049999999992
 20
155.16
 42
0
  0
SEQEND
  0
POLYLINE
  8
0
 10
0
 20
0
 39
0
 70
1
 66
1
  0
VERTEX
  8
0
 10
961.74382160949699
 20
136.89056030273437
 42
1
  0
VERTEX
  8
0
 10
961.74382160949699
 20
104.89056030273437
 42
1
  0
SEQEND
  0
POLYLINE
  8
0
 10
0
 20
0
 39
0
 70
1
 66
1
  0
VERTEX
  8
0
 10
889.99999999999989
 20
165.19999999999999
 42
-0
  0
VERTEX
  8
0
 10
889.99999999999989
 20
310.19999999999999
 42
0
  0
VERTEX
  8
0
 10
979.99999999999989
 20
165.19999999999999
 42
0
  0
SEQEND
  0
POLYLINE
  8
0
 10
0
 20
0
 39
0
 70
1
 66
1
  0
VERTEX
  8
0
 10
920.20667839050282
 20
183.46943969726561
 42
1
  0
VERTEX
  8
0
 10
920.20667839050282
 20
215.46943969726561
 42
1
  0
SEQEND
  0
POLYLINE
  8
0
 10
0
 20
0
 39
0
 70
1
 66
1
  0
VERTEX
  8
0
 10
991.95049999999992
 20
310.19999999999999
 42
-0
  0
VERTEX
  8
0
 10
991.95049999999992
 20
165.19999999999999
 42
0
  0
VERTEX
  8
0
 10
901.95049999999992
 20
310.19999999999999
 42
0
  0
SEQEND
  0
POLYLINE
  8
0
 10
0
 20
0
 39
0
 70
1
 66
1
  0
VERTEX
  8
0
 10
961.74382160949699
 20
291.93056030273436
 42
1
  0
VERTEX
  8
0
 10
961.74382160949699
 20
259.93056030273436
 42
1
  0
SEQEND
  0
POLYLINE
  8
0
 10
0
 20
0
 39
0
 70
1
 66
1
  0
VERTEX
  8
0
 10
1035
 20
320.23999999999995
 42
-0
  0
VERTEX
  8
0
 10
890
 20
320.23999999999995
 42
0
  0
VERTEX
  8
0
 10
1035
 20
410.23999999999995
 42
0
  0
SEQEND
  0
POLYLINE
  8
0
 10
0
 20
0
 39
0
 70
1
 66
1
  0
VERTEX
  8
0
 10
1016.7305603027344
 20
350.44667839050288
 42
1
  0
VERTEX
  8
0
 10
984.73056030273437
 20
350.44667839050288
 42
1
  0
SEQEND
  0
POLYLINE
  8
0
 10
0
 20
0
 39
0
 70
1
 66
1
  0
VERTEX
  8
0
 10
890
 20
422.19049999999993
 42
-0
  0
VERTEX
  8
0
 10
1035
 20
422.19049999999993
 42
0
  0
VERTEX
  8
0
 10
890
 20
332.19049999999993
 42
0
  0
SEQEND
  0
POLYLINE
  8
0
 10
0
 20
0
 39
0
 70
1
 66
1
  0
VERTEX
  8
0
 10
908.26943969726562
 20
391.983821609497
 42
1
  0
VERTEX
  8
0
 10
940.26943969726562
 20
391.983821609497
 42
1
  0
SEQEND
  0
POLYLINE
  8
0
 10
0
 20
0
 39
0
 70
1
 66
1
  0
VERTEX
  8
0
 10
1063.4400000000001
 20
432.19999999999999
 42
-0
  0
VERTEX
  8
0
 10
963.44000000000005
 20
432.19999999999999
 42
-0
  0
VERTEX
  8
0
 10
963.44000000000005
 20
442.19999999999999
 42
0.41421356797218323
  0
VERTEX
  8
0
 10
1053.4400000000001
 20
532.20000000000005
 42
0
  0
VERTEX
  8
0
 10
1063.4400000000001
 20
532.20000000000005
 42
0
  0
SEQEND
  0
POLYLINE
  8
0
 10
0
 20
0
 39
0
 70
1
 66
1
  0
VERTEX
  8
0
 10
1054.1059078598023
 20
453.03128738403319
 42
1
  0
VERTEX
  8
0
 10
1030.1059088134766
 20
453.03128738403319
 42
1
  0
SEQEND
  0
POLYLINE
  8
0
 10
0
 20
0
 39
0
 70
1
 66
1
  0
VERTEX
  8
0
 10
963.44000000000005
 20
552.95699999999999
 42
-0
  0
VERTEX
  8
0
 10
1063.4400000000001
 20
552.95699999999999
 42
-0
  0
VERTEX
  8
0
 10
1063.4400000000001
 20
542.95699999999999
 42
0.41421356797218323
  0
VERTEX
  8
0
 10
973.44000000000005
 20
452.95699999999999
 42
0
  0
VERTEX
  8
0
 10
963.44000000000005
 20
452.95699999999999
 42
0
  0
SEQEND
  0
POLYLINE
  8
0
 10
0
 20
0
 39
0
 70
1
 66
1
  0
VERTEX
  8
0
 10
972.77409214019781
 20
532.12571261596679
 42
1
  0
VERTEX
  8
0
 10
996.77409118652349
 20
532.12571261596679
 42
1
  0
SEQEND
  0
POLYLINE
  8
0
 10
0
 20
0
 39
0
 70
1
 66
1
  0
VERTEX
  8
0
 10
1102.0799999999999
 20
10.16
 42
-0
  0
VERTEX
  8
0
 10
1002.0799999999999
 20
10.160000000000014
 42
-0
  0
VERTEX
  8
0
 10
1002.0799999999999
 20
20.16
 42
0.41421356797218323
  0
VERTEX
  8
0
 10
1092.0799999999999
 20
110.16
 42
0
  0
VERTEX
  8
0
 10
1102.0799999999999
 20
110.16
 42
0
  0
SEQEND
  0
POLYLINE
  8
0
 10
0
 20
0
 39
0
 70
1
 66
1
  0
VERTEX
  8
0
 10
1092.7459078598022
 20
30.991287384033203
 42
1
  0
VERTEX
  8
0
 10
1068.7459088134765
 20
30.991287384033203
 42
1
  0
SEQEND
  0
POLYLINE
  8
0
 10
0
 20
0
 39
0
 70
1
 66
1
  0
VERTEX
  8
0
 10
1002.0799999999999
 20
130.917
 42
-0
  0
VERTEX
  8
0
 10
1102.0799999999999
 20
130.91699999999997
 42
-0
  0
VERTEX
  8
0
 10
1102.0799999999999
 20
120.91699999999999
 42
0.41421356797218323
  0
VERTEX
  8
0
 10
1012.0799999999999
 20
30.917000000000002
 42
0
  0
VERTEX
  8
0
 10
1002.0799999999999
 20
30.917000000000002
 42
0
  0
SEQEND
  0
POLYLINE
  8
0
 10
0
 20
0
 39
0
 70
1
 66
1
  0
VERTEX
  8
0
 10
1011.4140921401977
 20
110.0857126159668
 42
1
  0
VERTEX
  8
0
 10
1035.4140911865234
 20
110.0857126159668
 42
1
  0
SEQEND
  0
POLYLINE
  8
0
 10
0
 20
0
 39
0
 70
1
 66
1
  0
VERTEX
  8
0
 10
1102.0799999999999
 20
140.95999999999998
 42
-0
  0
VERTEX
  8
0
 10
1002.0799999999999
 20
140.95999999999998
 42
-0
  0
VERTEX
  8
0
 10
1002.0799999999999
 20
150.95999999999998
 42
0.41421356797218323
  0
VERTEX
  8
0
 10
1092.0799999999999
 20
240.95999999999998
 42
0
  0
VERTEX
  8
0
 10
1102.0799999999999
 20
240.95999999999998
 42
0
  0
SEQEND
  0
POLYLINE
  8
0
 10
0
 20
0
 39
0
 70
1
 66
1
  0
VERTEX
  8
0
 10
1092.7459078598022
 20
161.79128738403318
 42
1
  0
VERTEX
  8
0
 10
1068.7459088134765
 20
161.79128738403318
 42
1
  0
SEQEND
  0
POLYLINE
  8
0
 10
0
 20
0
 39
0
 70
1
 66
1
  0
VERTEX
  8
0
 10
1002.0799999999999
 20
261.71699999999998
 42
-0
  0
VERTEX
  8
0
 10
1102.0799999999999
 20
261.71699999999998
 42
-0
  0
VERTEX
  8
0
 10
1102.0799999999999
 20
251.71699999999998
 42
0.41421356797218323
  0
VERTEX
  8
0
 10
1012.0799999999999
 20
161.71699999999998
 42
0
  0
VERTEX
  8
0
 10
1002.0799999999999
 20
161.71699999999998
 42
0
  0
SEQEND
  0
POLYLINE
  8
0
 10
0
 20
0
 39
0
 70
1
 66
1
  0
VERTEX
  8
0
 10
1011.4140921401977
 20
240.88571261596678
 42
1
  0
VERTEX
  8
0
 10
1035.4140911865234
 20
240.88571261596678
 42
1
  0
SEQEND
  0
POLYLINE
  8
0
 10
0
 20
0
 39
0
 70
1
 66
1
  0
VERTEX
  8
0
 10
1145.1599999999999
 20
271.75999999999999
 42
-0
  0
VERTEX
  8
0
 10
1045.1599999999999
 20
271.75999999999999
 42
-0
  0
VERTEX
  8
0
 10
1045.1599999999999
 20
281.75999999999999
 42
0.41421356797218323
  0
VERTEX
  8
0
 10
1135.1599999999999
 20
371.75999999999999
 42
0
  0
VERTEX
  8
0
 10
1145.1599999999999
 20
371.75999999999999
 42
0
  0
SEQEND
  0
POLYLINE
  8
0
 10
0
 20
0
 39
0
 70
1
 66
1
  0
VERTEX
  8
0
 10
1135.8259078598021
 20
292.59128738403319
 42
1
  0
VERTEX
  8
0
 10
1111.8259088134764
 20
292.59128738403319
 42
1
  0
SEQEND
  0
POLYLINE
  8
0
 10
0
 20
0
 39
0
 70
1
 66
1
  0
VERTEX
  8
0
 10
1045.1599999999999
 20
392.517
 42
-0
  0
VERTEX
  8
0
 10
1145.1599999999999
 20
392.517
 42
-0
  0
VERTEX
  8
0
 10
1145.1599999999999
 20
382.517
 42
0.41421356797218323
  0
VERTEX
  8
0
 10
1055.1599999999999
 20
292.517
 42
0
  0
VERTEX
  8
0
 10
1045.1599999999999
 20
292.517
 42
0
  0
SEQEND
  0
POLYLINE
  8
0
 10
0
 20
0
 39
0
 70
1
 66
1
  0
VERTEX
  8
0
 10
1054.4940921401976
 20
371.68571261596679
 42
1
  0
VERTEX
  8
0
 10
1078.4940911865233
 20
371.68571261596679
 42
1
  0
SEQEND
  0
POLYLINE
  8
0
 10
0
 20
0
 39
0
 70
1
 66
1
  0
VERTEX
  8
0
 10
234.31999999999999
 20
419.11999999999995
 42
-0
  0
VERTEX
  8
0
 10
234.31999999999999
 20
529.11999999999989
 42
-0
  0
VERTEX
  8
0
 10
284.31999999999999
 20
529.11999999999989
 42
-0
  0
VERTEX
  8
0
 10
284.31999999999999
 20
419.11999999999995
 42
0
  0
SEQEND
  0
POLYLINE
  8
0
 10
0
 20
0
 39
0
 70
1
 66
1
  0
VERTEX
  8
0
 10
259.31999999999999
 20
459.11999999999995
 42
1
  0
VERTEX
  8
0
 10
259.31999999999999
 20
489.11999999999995
 42
1
  0
SEQEND
  0
POLYLINE
  8
0
 10
0
 20
0
 39
0
 70
1
 66
1
  0
VERTEX
  8
0
 10
514.96000000000004
 20
289.51999999999998
 42
-0
  0
VERTEX
  8
0
 10
404.96000000000004
 20
289.51999999999998
 42
-0
  0
VERTEX
  8
0
 10
404.96000000000004
 20
339.51999999999998
 42
-0
  0
VERTEX
  8
0
 10
514.96000000000004
 20
339.51999999999998
 42
0
  0
SEQEND
  0
POLYLINE
  8
0
 10
0
 20
0
 39
0
 70
1
 66
1
  0
VERTEX
  8
0
 10
474.96000000000004
 20
314.51999999999998
 42
1
  0
VERTEX
  8
0
 10
444.96000000000004
 20
314.51999999999998
 42
1
  0
SEQEND
  0
POLYLINE
  8
0
 10
0
 20
0
 39
0
 70
1
 66
1
  0
VERTEX
  8
0
 10
1073.5999999999999
 20
402.55999999999995
 42
-0
  0
VERTEX
  8
0
 10
1073.5999999999999
 20
512.55999999999995
 42
-0
  0
VERTEX
  8
0
 10
1123.5999999999999
 20
512.55999999999995
 42
-0
  0
VERTEX
  8
0
 10
1123.5999999999999
 20
402.55999999999995
 42
0
  0
SEQEND
  0
POLYLINE
  8
0
 10
0
 20
0
 39
0
 70
1
 66
1
  0
VERTEX
  8
0
 10
1098.5999999999999
 20
442.55999999999995
 42
1
  0
VERTEX
  8
0
 10
1098.5999999999999
 20
472.55999999999995
 42
1
  0
SEQEND
  0
POLYLINE
  8
0
 10
0
 20
0
 39
0
 70
1
 66
1
  0
VERTEX
  8
0
 10
1112.24
 20
10.16
 42
-0
  0
VERTEX
  8
0
 10
1112.24
 20
120.16
 42
-0
  0
VERTEX
  8
0
 10
1162.24
 20
120.16
 42
-0
  0
VERTEX
  8
0
 10
1162.24
 20
10.160000000000005
 42
0
  0
SEQEND
  0
POLYLINE
  8
0
 10
0
 20
0
 39
0
 70
1
 66
1
  0
VERTEX
  8
0
 10
1137.24
 20
50.159999999999997
 42
1
  0
VERTEX
  8
0
 10
1137.24
 20
80.159999999999997
 42
1
  0
SEQEND
  0
POLYLINE
  8
0
 10
0
 20
0
 39
0
 70
1
 66
1
  0
VERTEX
  8
0
 10
1112.24
 20
130.27999999999997
 42
-0
  0
VERTEX
  8
0
 10
1112.24
 20
240.27999999999997
 42
-0
  0
VERTEX
  8
0
 10
1162.24
 20
240.27999999999997
 42
-0
  0
VERTEX
  8
0
 10
1162.24
 20
130.27999999999997
 42
0
  0
SEQEND
  0
POLYLINE
  8
0
 10
0
 20
0
 39
0
 70
1
 66
1
  0
VERTEX
  8
0
 10
1137.24
 20
170.27999999999997
 42
1
  0
VERTEX
  8
0
 10
1137.24
 20
200.27999999999997
 42
1
  0
SEQEND
  0
POLYLINE
  8
0
 10
0
 20
0
 39
0
 70
1
 66
1
  0
VERTEX
  8
0
 10
1183.5999999999999
 20
522.67999999999995
 42
-0
  0
VERTEX
  8
0
 10
1073.5999999999999
 20
522.67999999999995
 42
-0
  0
VERTEX
  8
0
 10
1073.5999999999999
 20
572.67999999999995
 42
-0
  0
VERTEX
  8
0
 10
1183.5999999999999
 20
572.67999999999995
 42
0
  0
SEQEND
  0
POLYLINE
  8
0
 10
0
 20
0
 39
0
 70
1
 66
1
  0
VERTEX
  8
0
 10
1143.5999999999999
 20
547.67999999999995
 42
1
  0
VERTEX
  8
0
 10
1113.5999999999999
 20
547.67999999999995
 42
1
  0
SEQEND
  0
POLYLINE
  8
0
 10
0
 20
0
 39
0
 70
1
 66
1
  0
VERTEX
  8
0
 10
1133.8399999999999
 20
402.55999999999995
 42
-0
  0
VERTEX
  8
0
 10
1133.8399999999999
 20
512.55999999999995
 42
-0
  0
VERTEX
  8
0
 10
1183.8399999999999
 20
512.55999999999995
 42
-0
  0
VERTEX
  8
0
 10
1183.8399999999999
 20
402.55999999999995
 42
0
  0
SEQEND
  0
POLYLINE
  8
0
 10
0
 20
0
 39
0
 70
1
 66
1
  0
VERTEX
  8
0
 10
1158.8399999999999
 20
442.55999999999995
 42
1
  0
VERTEX
  8
0
 10
1158.8399999999999
 20
472.55999999999995
 42
1
  0
SEQEND
  0
POLYLINE
  8
0
 10
0
 20
0
 39
0
 70
1
 66
1
  0
VERTEX
  8
0
 10
45.16000051740258
 20
38.951702270507809
 42
-0
  0
VERTEX
  8
0
 10
45.16000051740258
 20
10.159999999999997
 42
-0
  0
VERTEX
  8
0
 10
20.16000051740258
 20
10.159999999999997
 42
-0
  0
VERTEX
  8
0
 10
20.16000051740258
 20
38.951702270507809
 42
-3.2966630458831787
  0
SEQEND
  0
POLYLINE
  8
0
 10
0
 20
0
 39
0
 70
1
 66
1
  0
VERTEX
  8
0
 10
45.16000051740258
 20
57.660015258789059
 42
1
  0
VERTEX
  8
0
 10
20.16000051740258
 20
57.660015258789059
 42
1
  0
SEQEND
  0
POLYLINE
  8
0
 10
0
 20
0
 39
0
 70
1
 66
1
  0
VERTEX
  8
0
 10
263.11170227050781
 20
550.80000051740251
 42
-0
  0
VERTEX
  8
0
 10
234.31999999999999
 20
550.80000051740251
 42
-0
  0
VERTEX
  8
0
 10
234.31999999999999
 20
575.80000051740251
 42
-0
  0
VERTEX
  8
0
 10
263.11170227050781
 20
575.80000051740251
 42
-3.2966630458831787
  0
SEQEND
  0
POLYLINE
  8
0
 10
0
 20
0
 39
0
 70
1
 66
1
  0
VERTEX
  8
0
 10
281.82001525878906
 20
550.80000051740251
 42
1
  0
VERTEX
  8
0
 10
281.82001525878906
 20
575.80000051740251
 42
1
  0
SEQEND
  0
POLYLINE
  8
0
 10
0
 20
0
 39
0
 70
1
 66
1
  0
VERTEX
  8
0
 10
379.56828807353975
 20
45.160000517402572
 42
-0
  0
VERTEX
  8
0
 10
408.35999034404756
 20
45.16000051740258
 42
-0
  0
VERTEX
  8
0
 10
408.35999034404756
 20
20.16000051740258
 42
-0
  0
VERTEX
  8
0
 10
379.56828807353975
 20
20.16000051740258
 42
-3.2966630458831787
  0
SEQEND
  0
POLYLINE
  8
0
 10
0
 20
0
 39
0
 70
1
 66
1
  0
VERTEX
  8
0
 10
360.8599750852585
 20
45.160000517402572
 42
1
  0
VERTEX
  8
0
 10
360.8599750852585
 20
20.160000517402565
 42
1
  0
SEQEND
  0
POLYLINE
  8
0
 10
0
 20
0
 39
0
 70
1
 66
1
  0
VERTEX
  8
0
 10
403.3200005174026
 20
474.00828807353969
 42
-0
  0
VERTEX
  8
0
 10
403.3200005174026
 20
502.7999903440475
 42
-0
  0
VERTEX
  8
0
 10
428.3200005174026
 20
502.7999903440475
 42
-0
  0
VERTEX
  8
0
 10
428.3200005174026
 20
474.00828807353969
 42
-3.2966630458831787
  0
SEQEND
  0
POLYLINE
  8
0
 10
0
 20
0
 39
0
 70
1
 66
1
  0
VERTEX
  8
0
 10
403.3200005174026
 20
455.29997508525844
 42
1
  0
VERTEX
  8
0
 10
428.3200005174026
 20
455.29997508525844
 42
1
  0
SEQEND
  0
POLYLINE
  8
0
 10
0
 20
0
 39
0
 70
1
 66
1
  0
VERTEX
  8
0
 10
456.96828807353972
 20
269.44000051740255
 42
-0
  0
VERTEX
  8
0
 10
485.75999034404754
 20
269.44000051740255
 42
-0
  0
VERTEX
  8
0
 10
485.75999034404754
 20
244.44000051740255
 42
-0
  0
VERTEX
  8
0
 10
456.96828807353972
 20
244.44000051740255
 42
-3.2966630458831787
  0
SEQEND
  0
POLYLINE
  8
0
 10
0
 20
0
 39
0
 70
1
 66
1
  0
VERTEX
  8
0
 10
438.25997508525847
 20
269.44000051740255
 42
1
  0
VERTEX
  8
0
 10
438.25997508525847
 20
244.44000051740255
 42
1
  0
SEQEND
  0
POLYLINE
  8
0
 10
0
 20
0
 39
0
 70
1
 66
1
  0
VERTEX
  8
0
 10
522.60000051740258
 20
134.40828807353978
 42
-0
  0
VERTEX
  8
0
 10
522.60000051740258
 20
163.19999034404759
 42
-0
  0
VERTEX
  8
0
 10
547.60000051740258
 20
163.19999034404759
 42
-0
  0
VERTEX
  8
0
 10
547.60000051740258
 20
134.40828807353978
 42
-3.2966630458831787
  0
SEQEND
  0
POLYLINE
  8
0
 10
0
 20
0
 39
0
 70
1
 66
1
  0
VERTEX
  8
0
 10
522.60000051740258
 20
115.69997508525853
 42
1
  0
VERTEX
  8
0
 10
547.60000051740258
 20
115.69997508525853
 42
1
  0
SEQEND
  0
ENDSEC
  0
EOF
