  0
SECTION
  2
ENTITIES
  0
POLYLINE
  8
0
 10
0
 20
0
 39
0
 70
1
 66
1
  0
VERTEX
  8
0
 10
0
 20
0
 42
0
  0
VERTEX
  8
0
 10
2500
 20
0
 42
0
  0
VERTEX
  8
0
 10
2500
 20
1000
 42
0
  0
VERTEX
  8
0
 10
0
 20
1000
 42
0
  0
SEQEND
  0
POLYLINE
  8
0
 10
0
 20
0
 39
0
 70
1
 66
1
  0
VERTEX
  8
0
 10
512.5
 20
646
 42
-0
  0
VERTEX
  8
0
 10
512.5
 20
28.000000000000032
 42
-0
  0
VERTEX
  8
0
 10
496.29998779296881
 20
28.000000000000028
 42
2.4142136573791504
  0
VERTEX
  8
0
 10
495.00000000000006
 20
26.700000762939482
 42
-0
  0
VERTEX
  8
0
 10
495.00000000000006
 20
10.50000000000003
 42
-0
  0
VERTEX
  8
0
 10
28.000000000000039
 20
10.500000000000002
 42
-0
  0
VERTEX
  8
0
 10
28.000000000000039
 20
26.700000762939453
 42
2.4142136573791504
  0
VERTEX
  8
0
 10
26.700000762939492
 20
28
 42
0
  0
VERTEX
  8
0
 10
10.500000000000037
 20
28
 42
-0
  0
VERTEX
  8
0
 10
10.5
 20
646
 42
-0
  0
VERTEX
  8
0
 10
26.700000762939453
 20
646
 42
2.4142136573791504
  0
VERTEX
  8
0
 10
28
 20
647.29998779296875
 42
-0
  0
VERTEX
  8
0
 10
28
 20
663.5
 42
-0
  0
VERTEX
  8
0
 10
495
 20
663.5
 42
0
  0
VERTEX
  8
0
 10
495
 20
647.29998779296875
 42
2.4142136573791504
  0
VERTEX
  8
0
 10
496.29998779296875
 20
646
 42
-0
  0
SEQEND
  0
POLYLINE
  8
0
 10
0
 20
0
 39
0
 70
1
 66
1
  0
VERTEX
  8
0
 10
75.500000000000043
 20
80.5
 42
0.41421356797218323
  0
VERTEX
  8
0
 10
80.500000000000043
 20
75.5
 42
0
  0
VERTEX
  8
0
 10
442.50000000000006
 20
75.500000000000028
 42
0.41421356797218323
  0
VERTEX
  8
0
 10
447.50000000000006
 20
80.500000000000028
 42
0
  0
VERTEX
  8
0
 10
447.5
 20
593.5
 42
0.41421356797218323
  0
VERTEX
  8
0
 10
442.5
 20
598.5
 42
0
  0
VERTEX
  8
0
 10
80.5
 20
598.5
 42
0.41421356797218323
  0
VERTEX
  8
0
 10
75.5
 20
593.5
 42
0
  0
SEQEND
  0
POLYLINE
  8
0
 10
0
 20
0
 39
0
 70
1
 66
1
  0
VERTEX
  8
0
 10
1025
 20
646
 42
-0
  0
VERTEX
  8
0
 10
1025
 20
28.000000000000032
 42
-0
  0
VERTEX
  8
0
 10
1008.7999877929687
 20
28.000000000000028
 42
2.4142136573791504
  0
VERTEX
  8
0
 10
1007.5
 20
26.700000762939482
 42
-0
  0
VERTEX
  8
0
 10
1007.5
 20
10.50000000000003
 42
-0
  0
VERTEX
  8
0
 10
540.5
 20
10.500000000000002
 42
-0
  0
VERTEX
  8
0
 10
540.5
 20
26.700000762939453
 42
2.4142136573791504
  0
VERTEX
  8
0
 10
539.20000076293945
 20
28
 42
0
  0
VERTEX
  8
0
 10
523
 20
28
 42
-0
  0
VERTEX
  8
0
 10
523
 20
646
 42
-0
  0
VERTEX
  8
0
 10
539.20000076293945
 20
646
 42
2.4142136573791504
  0
VERTEX
  8
0
 10
540.5
 20
647.29998779296875
 42
-0
  0
VERTEX
  8
0
 10
540.5
 20
663.5
 42
-0
  0
VERTEX
  8
0
 10
1007.5
 20
663.5
 42
0
  0
VERTEX
  8
0
 10
1007.5
 20
647.29998779296875
 42
2.4142136573791504
  0
VERTEX
  8
0
 10
1008.7999877929687
 20
646
 42
-0
  0
SEQEND
  0
POLYLINE
  8
0
 10
0
 20
0
 39
0
 70
1
 66
1
  0
VERTEX
  8
0
 10
588
 20
80.5
 42
0.41421356797218323
  0
VERTEX
  8
0
 10
593
 20
75.5
 42
0
  0
VERTEX
  8
0
 10
955
 20
75.500000000000028
 42
0.41421356797218323
  0
VERTEX
  8
0
 10
960
 20
80.500000000000028
 42
0
  0
VERTEX
  8
0
 10
960
 20
593.5
 42
0.41421356797218323
  0
VERTEX
  8
0
 10
955
 20
598.5
 42
0
  0
VERTEX
  8
0
 10
593
 20
598.5
 42
0.41421356797218323
  0
VERTEX
  8
0
 10
588
 20
593.5
 42
0
  0
SEQEND
  0
POLYLINE
  8
0
 10
0
 20
0
 39
0
 70
1
 66
1
  0
VERTEX
  8
0
 10
1537.5
 20
646
 42
-0
  0
VERTEX
  8
0
 10
1537.5
 20
28.000000000000032
 42
-0
  0
VERTEX
  8
0
 10
1521.2999877929687
 20
28.000000000000028
 42
2.4142136573791504
  0
VERTEX
  8
0
 10
1520
 20
26.700000762939482
 42
-0
  0
VERTEX
  8
0
 10
1520
 20
10.50000000000003
 42
-0
  0
VERTEX
  8
0
 10
1053
 20
10.500000000000002
 42
-0
  0
VERTEX
  8
0
 10
1053
 20
26.700000762939453
 42
2.4142136573791504
  0
VERTEX
  8
0
 10
1051.7000007629395
 20
28
 42
0
  0
VERTEX
  8
0
 10
1035.5
 20
28
 42
-0
  0
VERTEX
  8
0
 10
1035.5
 20
646
 42
-0
  0
VERTEX
  8
0
 10
1051.7000007629395
 20
646
 42
2.4142136573791504
  0
VERTEX
  8
0
 10
1053
 20
647.29998779296875
 42
-0
  0
VERTEX
  8
0
 10
1053
 20
663.5
 42
-0
  0
VERTEX
  8
0
 10
1520
 20
663.5
 42
0
  0
VERTEX
  8
0
 10
1520
 20
647.29998779296875
 42
2.4142136573791504
  0
VERTEX
  8
0
 10
1521.2999877929687
 20
646
 42
-0
  0
SEQEND
  0
POLYLINE
  8
0
 10
0
 20
0
 39
0
 70
1
 66
1
  0
VERTEX
  8
0
 10
1100.5
 20
80.5
 42
0.41421356797218323
  0
VERTEX
  8
0
 10
1105.5
 20
75.5
 42
0
  0
VERTEX
  8
0
 10
1467.5
 20
75.500000000000028
 42
0.41421356797218323
  0
VERTEX
  8
0
 10
1472.5
 20
80.500000000000028
 42
0
  0
VERTEX
  8
0
 10
1472.5
 20
593.5
 42
0.41421356797218323
  0
VERTEX
  8
0
 10
1467.5
 20
598.5
 42
0
  0
VERTEX
  8
0
 10
1105.5
 20
598.5
 42
0.41421356797218323
  0
VERTEX
  8
0
 10
1100.5
 20
593.5
 42
0
  0
SEQEND
  0
POLYLINE
  8
0
 10
0
 20
0
 39
0
 70
1
 66
1
  0
VERTEX
  8
0
 10
10.500000000000009
 20
753.75
 42
-0
  0
VERTEX
  8
0
 10
10.5
 20
893.75
 42
0
  0
VERTEX
  8
0
 10
100.5
 20
973.75
 42
-0
  0
VERTEX
  8
0
 10
240.5
 20
973.75
 42
0
  0
VERTEX
  8
0
 10
330.5
 20
893.75
 42
-0
  0
VERTEX
  8
0
 10
330.5
 20
753.75
 42
0
  0
VERTEX
  8
0
 10
240.5
 20
673.75
 42
-0
  0
VERTEX
  8
0
 10
100.50000000000001
 20
673.75
 42
-0
  0
SEQEND
  0
POLYLINE
  8
0
 10
0
 20
0
 39
0
 70
1
 66
1
  0
VERTEX
  8
0
 10
70.5
 20
785.75
 42
1
  0
VERTEX
  8
0
 10
70.5
 20
861.75
 42
1
  0
SEQEND
  0
POLYLINE
  8
0
 10
0
 20
0
 39
0
 70
1
 66
1
  0
VERTEX
  8
0
 10
306
 20
86
 42
-0
  0
VERTEX
  8
0
 10
166
 20
86
 42
0
  0
VERTEX
  8
0
 10
86
 20
176
 42
-0
  0
VERTEX
  8
0
 10
86
 20
316
 42
0
  0
VERTEX
  8
0
 10
166
 20
406
 42
-0
  0
VERTEX
  8
0
 10
306
 20
406
 42
0
  0
VERTEX
  8
0
 10
386
 20
316
 42
-0
  0
VERTEX
  8
0
 10
386
 20
176
 42
-0
  0
SEQEND
  0
POLYLINE
  8
0
 10
0
 20
0
 39
0
 70
1
 66
1
  0
VERTEX
  8
0
 10
274
 20
146
 42
1
  0
VERTEX
  8
0
 10
198
 20
146
 42
1
  0
SEQEND
  0
POLYLINE
  8
0
 10
0
 20
0
 39
0
 70
1
 66
1
  0
VERTEX
  8
0
 10
341
 20
753.75
 42
-0
  0
VERTEX
  8
0
 10
341
 20
893.75
 42
0
  0
VERTEX
  8
0
 10
431
 20
973.75
 42
-0
  0
VERTEX
  8
0
 10
571
 20
973.75
 42
0
  0
VERTEX
  8
0
 10
661
 20
893.75
 42
-0
  0
VERTEX
  8
0
 10
661
 20
753.75
 42
0
  0
VERTEX
  8
0
 10
571
 20
673.75
 42
-0
  0
VERTEX
  8
0
 10
431
 20
673.75
 42
-0
  0
SEQEND
  0
POLYLINE
  8
0
 10
0
 20
0
 39
0
 70
1
 66
1
  0
VERTEX
  8
0
 10
401
 20
785.75
 42
1
  0
VERTEX
  8
0
 10
401
 20
861.75
 42
1
  0
SEQEND
  0
POLYLINE
  8
0
 10
0
 20
0
 39
0
 70
1
 66
1
  0
VERTEX
  8
0
 10
818.5
 20
86
 42
-0
  0
VERTEX
  8
0
 10
678.5
 20
86
 42
0
  0
VERTEX
  8
0
 10
598.5
 20
176
 42
-0
  0
VERTEX
  8
0
 10
598.5
 20
316
 42
0
  0
VERTEX
  8
0
 10
678.5
 20
406
 42
-0
  0
VERTEX
  8
0
 10
818.5
 20
406
 42
0
  0
VERTEX
  8
0
 10
898.5
 20
316
 42
-0
  0
VERTEX
  8
0
 10
898.5
 20
176
 42
-0
  0
SEQEND
  0
POLYLINE
  8
0
 10
0
 20
0
 39
0
 70
1
 66
1
  0
VERTEX
  8
0
 10
786.5
 20
146
 42
1
  0
VERTEX
  8
0
 10
710.5
 20
146
 42
1
  0
SEQEND
  0
POLYLINE
  8
0
 10
0
 20
0
 39
0
 70
1
 66
1
  0
VERTEX
  8
0
 10
671.50000001809531
 20
736.6279296875
 42
-0
  0
VERTEX
  8
0
 10
671.50000001809531
 20
850.8720703125
 42
-0.29410767555236816
  0
VERTEX
  8
0
 10
683.22265626809531
 20
869.0791015625
 42
-0
  0
VERTEX
  8
0
 10
777.55468751809531
 20
911.95703125
 42
-0.10706308484077454
  0
VERTEX
  8
0
 10
785.83203126809531
 20
913.75
 42
0
  0
VERTEX
  8
0
 10
871.50000001809531
 20
913.75
 42
-0.41421356797218323
  0
VERTEX
  8
0
 10
891.50000001809531
 20
893.75
 42
0
  0
VERTEX
  8
0
 10
891.50000001809531
 20
693.75
 42
-0.41421356797218323
  0
VERTEX
  8
0
 10
871.50000001809531
 20
673.75
 42
-0
  0
VERTEX
  8
0
 10
785.83203126809531
 20
673.75
 42
-0.10706308484077454
  0
VERTEX
  8
0
 10
777.55468751809531
 20
675.54296875
 42
0
  0
VERTEX
  8
0
 10
683.22265626809531
 20
718.4208984375
 42
-0.29410767555236816
  0
SEQEND
  0
POLYLINE
  8
0
 10
0
 20
0
 39
0
 70
1
 66
1
  0
VERTEX
  8
0
 10
796.50000001809531
 20
743.75
 42
1
  0
VERTEX
  8
0
 10
796.50000001809531
 20
843.75
 42
1
  0
SEQEND
  0
POLYLINE
  8
0
 10
0
 20
0
 39
0
 70
1
 66
1
  0
VERTEX
  8
0
 10
902.00000001809531
 20
736.6279296875
 42
-0
  0
VERTEX
  8
0
 10
902.00000001809531
 20
850.8720703125
 42
-0.29410767555236816
  0
VERTEX
  8
0
 10
913.72265626809531
 20
869.0791015625
 42
-0
  0
VERTEX
  8
0
 10
1008.0546875180953
 20
911.95703125
 42
-0.10706308484077454
  0
VERTEX
  8
0
 10
1016.3320312680953
 20
913.75
 42
0
  0
VERTEX
  8
0
 10
1102.0000000180953
 20
913.75
 42
-0.41421356797218323
  0
VERTEX
  8
0
 10
1122.0000000180953
 20
893.75
 42
0
  0
VERTEX
  8
0
 10
1122.0000000180953
 20
693.75
 42
-0.41421356797218323
  0
VERTEX
  8
0
 10
1102.0000000180953
 20
673.75
 42
-0
  0
VERTEX
  8
0
 10
1016.3320312680953
 20
673.75
 42
-0.10706308484077454
  0
VERTEX
  8
0
 10
1008.0546875180953
 20
675.54296875
 42
0
  0
VERTEX
  8
0
 10
913.72265626809531
 20
718.4208984375
 42
-0.29410767555236816
  0
SEQEND
  0
POLYLINE
  8
0
 10
0
 20
0
 39
0
 70
1
 66
1
  0
VERTEX
  8
0
 10
1027.0000000180953
 20
743.75
 42
1
  0
VERTEX
  8
0
 10
1027.0000000180953
 20
843.75
 42
1
  0
SEQEND
  0
POLYLINE
  8
0
 10
0
 20
0
 39
0
 70
1
 66
1
  0
VERTEX
  8
0
 10
1111.0000000180953
 20
148.8779296875
 42
-0
  0
VERTEX
  8
0
 10
1111.0000000180953
 20
263.1220703125
 42
-0.29410767555236816
  0
VERTEX
  8
0
 10
1122.7226562680953
 20
281.3291015625
 42
-0
  0
VERTEX
  8
0
 10
1217.0546875180953
 20
324.20703125
 42
-0.10706308484077454
  0
VERTEX
  8
0
 10
1225.3320312680953
 20
326
 42
0
  0
VERTEX
  8
0
 10
1311.0000000180953
 20
326
 42
-0.41421356797218323
  0
VERTEX
  8
0
 10
1331.0000000180953
 20
306
 42
0
  0
VERTEX
  8
0
 10
1331.0000000180953
 20
106
 42
-0.41421356797218323
  0
VERTEX
  8
0
 10
1311.0000000180953
 20
86
 42
-0
  0
VERTEX
  8
0
 10
1225.3320312680953
 20
86
 42
-0.10706308484077454
  0
VERTEX
  8
0
 10
1217.0546875180953
 20
87.79296875
 42
0
  0
VERTEX
  8
0
 10
1122.7226562680953
 20
130.6708984375
 42
-0.29410767555236816
  0
SEQEND
  0
POLYLINE
  8
0
 10
0
 20
0
 39
0
 70
1
 66
1
  0
VERTEX
  8
0
 10
1236.0000000180953
 20
156
 42
1
  0
VERTEX
  8
0
 10
1236.0000000180953
 20
256
 42
1
  0
SEQEND
  0
POLYLINE
  8
0
 10
0
 20
0
 39
0
 70
1
 66
1
  0
VERTEX
  8
0
 10
1331
 20
513.1220703125
 42
-0
  0
VERTEX
  8
0
 10
1331
 20
398.8779296875
 42
-0.29410767555236816
  0
VERTEX
  8
0
 10
1319.27734375
 20
380.6708984375
 42
-0
  0
VERTEX
  8
0
 10
1224.9453125
 20
337.79296875
 42
-0.10706308484077454
  0
VERTEX
  8
0
 10
1216.66796875
 20
336
 42
0
  0
VERTEX
  8
0
 10
1131
 20
336
 42
-0.41421356797218323
  0
VERTEX
  8
0
 10
1111
 20
356
 42
0
  0
VERTEX
  8
0
 10
1111
 20
556
 42
-0.41421356797218323
  0
VERTEX
  8
0
 10
1131
 20
576
 42
-0
  0
VERTEX
  8
0
 10
1216.66796875
 20
576
 42
-0.10706308484077454
  0
VERTEX
  8
0
 10
1224.9453125
 20
574.20703125
 42
0
  0
VERTEX
  8
0
 10
1319.27734375
 20
531.3291015625
 42
-0.29410767555236816
  0
SEQEND
  0
POLYLINE
  8
0
 10
0
 20
0
 39
0
 70
1
 66
1
  0
VERTEX
  8
0
 10
1206
 20
506
 42
1
  0
VERTEX
  8
0
 10
1206
 20
406
 42
1
  0
SEQEND
  0
POLYLINE
  8
0
 10
0
 20
0
 39
0
 70
1
 66
1
  0
VERTEX
  8
0
 10
1132.5000000180953
 20
736.6279296875
 42
-0
  0
VERTEX
  8
0
 10
1132.5000000180953
 20
850.8720703125
 42
-0.29410767555236816
  0
VERTEX
  8
0
 10
1144.2226562680953
 20
869.0791015625
 42
-0
  0
VERTEX
  8
0
 10
1238.5546875180953
 20
911.95703125
 42
-0.10706308484077454
  0
VERTEX
  8
0
 10
1246.8320312680953
 20
913.75
 42
0
  0
VERTEX
  8
0
 10
1332.5000000180953
 20
913.75
 42
-0.41421356797218323
  0
VERTEX
  8
0
 10
1352.5000000180953
 20
893.75
 42
0
  0
VERTEX
  8
0
 10
1352.5000000180953
 20
693.75
 42
-0.41421356797218323
  0
VERTEX
  8
0
 10
1332.5000000180953
 20
673.75
 42
-0
  0
VERTEX
  8
0
 10
1246.8320312680953
 20
673.75
 42
-0.10706308484077454
  0
VERTEX
  8
0
 10
1238.5546875180953
 20
675.54296875
 42
0
  0
VERTEX
  8
0
 10
1144.2226562680953
 20
718.4208984375
 42
-0.29410767555236816
  0
SEQEND
  0
POLYLINE
  8
0
 10
0
 20
0
 39
0
 70
1
 66
1
  0
VERTEX
  8
0
 10
1257.5000000180953
 20
743.75
 42
1
  0
VERTEX
  8
0
 10
1257.5000000180953
 20
843.75
 42
1
  0
SEQEND
  0
POLYLINE
  8
0
 10
0
 20
0
 39
0
 70
1
 66
1
  0
VERTEX
  8
0
 10
1427.4999923706055
 20
425.5003833770752
 42
0
  0
VERTEX
  8
0
 10
1427.4999923706055
 20
176.49961280822754
 42
0
  0
VERTEX
  8
0
 10
1414.6254043579102
 20
100.83132362365723
 42
0
  0
VERTEX
  8
0
 10
1394.4999923706055
 20
86
 42
-0
  0
VERTEX
  8
0
 10
1374.5
 20
86
 42
-0
  0
VERTEX
  8
0
 10
1354.3745956420898
 20
100.83132362365723
 42
-0
  0
VERTEX
  8
0
 10
1341.5
 20
176.49961280822754
 42
0
  0
VERTEX
  8
0
 10
1341.5
 20
425.5003833770752
 42
0
  0
VERTEX
  8
0
 10
1354.3745956420898
 20
501.16868782043457
 42
0
  0
VERTEX
  8
0
 10
1374.5
 20
515.99998664855957
 42
0
  0
VERTEX
  8
0
 10
1394.4999923706055
 20
515.99998664855957
 42
-0
  0
VERTEX
  8
0
 10
1414.6254043579102
 20
501.16868782043457
 42
-0
  0
SEQEND
  0
POLYLINE
  8
0
 10
0
 20
0
 39
0
 70
1
 66
1
  0
VERTEX
  8
0
 10
1392.4999923706055
 20
404.7054615020752
 42
-0
  0
VERTEX
  8
0
 10
1376.5
 20
404.7054615020752
 42
-0
  0
VERTEX
  8
0
 10
1376.5
 20
197.29455757141113
 42
0
  0
VERTEX
  8
0
 10
1392.4999923706055
 20
197.29455757141113
 42
-0
  0
SEQEND
  0
POLYLINE
  8
0
 10
0
 20
0
 39
0
 70
1
 66
1
  0
VERTEX
  8
0
 10
1400.569694519043
 20
453.4664478302002
 42
0
  0
VERTEX
  8
0
 10
1384.5
 20
472.6175708770752
 42
-0
  0
VERTEX
  8
0
 10
1368.430305480957
 20
453.4664478302002
 42
0
  0
VERTEX
  8
0
 10
1384.5
 20
434.31535530090332
 42
-0
  0
SEQEND
  0
POLYLINE
  8
0
 10
0
 20
0
 39
0
 70
1
 66
1
  0
VERTEX
  8
0
 10
1400.569694519043
 20
148.53354072570801
 42
0
  0
VERTEX
  8
0
 10
1384.5
 20
167.68465614318848
 42
-0
  0
VERTEX
  8
0
 10
1368.430305480957
 20
148.53354072570801
 42
0
  0
VERTEX
  8
0
 10
1384.5
 20
129.38243293762207
 42
-0
  0
SEQEND
  0
POLYLINE
  8
0
 10
0
 20
0
 39
0
 70
1
 66
1
  0
VERTEX
  8
0
 10
1633.7499923706055
 20
898.7503833770752
 42
0
  0
VERTEX
  8
0
 10
1633.7499923706055
 20
649.74961280822754
 42
0
  0
VERTEX
  8
0
 10
1620.8754043579102
 20
574.08132362365723
 42
0
  0
VERTEX
  8
0
 10
1600.7499923706055
 20
559.25
 42
-0
  0
VERTEX
  8
0
 10
1580.75
 20
559.25
 42
-0
  0
VERTEX
  8
0
 10
1560.6245956420898
 20
574.08132362365723
 42
-0
  0
VERTEX
  8
0
 10
1547.75
 20
649.74961280822754
 42
0
  0
VERTEX
  8
0
 10
1547.75
 20
898.7503833770752
 42
0
  0
VERTEX
  8
0
 10
1560.6245956420898
 20
974.41868782043457
 42
0
  0
VERTEX
  8
0
 10
1580.75
 20
989.24998664855957
 42
0
  0
VERTEX
  8
0
 10
1600.7499923706055
 20
989.24998664855957
 42
-0
  0
VERTEX
  8
0
 10
1620.8754043579102
 20
974.41868782043457
 42
-0
  0
SEQEND
  0
POLYLINE
  8
0
 10
0
 20
0
 39
0
 70
1
 66
1
  0
VERTEX
  8
0
 10
1598.7499923706055
 20
877.9554615020752
 42
-0
  0
VERTEX
  8
0
 10
1582.75
 20
877.9554615020752
 42
-0
  0
VERTEX
  8
0
 10
1582.75
 20
670.54455757141113
 42
0
  0
VERTEX
  8
0
 10
1598.7499923706055
 20
670.54455757141113
 42
-0
  0
SEQEND
  0
POLYLINE
  8
0
 10
0
 20
0
 39
0
 70
1
 66
1
  0
VERTEX
  8
0
 10
1606.819694519043
 20
926.7164478302002
 42
0
  0
VERTEX
  8
0
 10
1590.75
 20
945.8675708770752
 42
-0
  0
VERTEX
  8
0
 10
1574.680305480957
 20
926.7164478302002
 42
0
  0
VERTEX
  8
0
 10
1590.75
 20
907.56535530090332
 42
-0
  0
SEQEND
  0
POLYLINE
  8
0
 10
0
 20
0
 39
0
 70
1
 66
1
  0
VERTEX
  8
0
 10
1606.819694519043
 20
621.78354072570801
 42
0
  0
VERTEX
  8
0
 10
1590.75
 20
640.93465614318848
 42
-0
  0
VERTEX
  8
0
 10
1574.680305480957
 20
621.78354072570801
 42
0
  0
VERTEX
  8
0
 10
1590.75
 20
602.63243293762207
 42
-0
  0
SEQEND
  0
POLYLINE
  8
0
 10
0
 20
0
 39
0
 70
1
 66
1
  0
VERTEX
  8
0
 10
1633.9999923706055
 20
350.0003833770752
 42
0
  0
VERTEX
  8
0
 10
1633.9999923706055
 20
100.99961280822754
 42
0
  0
VERTEX
  8
0
 10
1621.1254043579102
 20
25.331323623657227
 42
0
  0
VERTEX
  8
0
 10
1600.9999923706055
 20
10.5
 42
-0
  0
VERTEX
  8
0
 10
1581
 20
10.5
 42
-0
  0
VERTEX
  8
0
 10
1560.8745956420898
 20
25.331323623657227
 42
-0
  0
VERTEX
  8
0
 10
1548
 20
100.99961280822754
 42
0
  0
VERTEX
  8
0
 10
1548
 20
350.0003833770752
 42
0
  0
VERTEX
  8
0
 10
1560.8745956420898
 20
425.66868782043457
 42
0
  0
VERTEX
  8
0
 10
1581
 20
440.49998664855957
 42
0
  0
VERTEX
  8
0
 10
1600.9999923706055
 20
440.49998664855957
 42
-0
  0
VERTEX
  8
0
 10
1621.1254043579102
 20
425.66868782043457
 42
-0
  0
SEQEND
  0
POLYLINE
  8
0
 10
0
 20
0
 39
0
 70
1
 66
1
  0
VERTEX
  8
0
 10
1598.9999923706055
 20
329.2054615020752
 42
-0
  0
VERTEX
  8
0
 10
1583
 20
329.2054615020752
 42
-0
  0
VERTEX
  8
0
 10
1583
 20
121.79455757141113
 42
0
  0
VERTEX
  8
0
 10
1598.9999923706055
 20
121.79455757141113
 42
-0
  0
SEQEND
  0
POLYLINE
  8
0
 10
0
 20
0
 39
0
 70
1
 66
1
  0
VERTEX
  8
0
 10
1607.069694519043
 20
377.9664478302002
 42
0
  0
VERTEX
  8
0
 10
1591
 20
397.1175708770752
 42
-0
  0
VERTEX
  8
0
 10
1574.930305480957
 20
377.9664478302002
 42
0
  0
VERTEX
  8
0
 10
1591
 20
358.81535530090332
 42
-0
  0
SEQEND
  0
POLYLINE
  8
0
 10
0
 20
0
 39
0
 70
1
 66
1
  0
VERTEX
  8
0
 10
1607.069694519043
 20
73.033540725708008
 42
0
  0
VERTEX
  8
0
 10
1591
 20
92.184656143188477
 42
-0
  0
VERTEX
  8
0
 10
1574.930305480957
 20
73.033540725708008
 42
0
  0
VERTEX
  8
0
 10
1591
 20
53.88243293762207
 42
-0
  0
SEQEND
  0
POLYLINE
  8
0
 10
0
 20
0
 39
0
 70
1
 66
1
  0
VERTEX
  8
0
 10
1726.4999923706055
 20
625.2503833770752
 42
0
  0
VERTEX
  8
0
 10
1726.4999923706055
 20
376.24961280822754
 42
0
  0
VERTEX
  8
0
 10
1713.6254043579102
 20
300.58132362365723
 42
0
  0
VERTEX
  8
0
 10
1693.4999923706055
 20
285.75
 42
-0
  0
VERTEX
  8
0
 10
1673.5
 20
285.75
 42
-0
  0
VERTEX
  8
0
 10
1653.3745956420898
 20
300.58132362365723
 42
-0
  0
VERTEX
  8
0
 10
1640.5
 20
376.24961280822754
 42
0
  0
VERTEX
  8
0
 10
1640.5
 20
625.2503833770752
 42
0
  0
VERTEX
  8
0
 10
1653.3745956420898
 20
700.91868782043457
 42
0
  0
VERTEX
  8
0
 10
1673.5
 20
715.74998664855957
 42
0
  0
VERTEX
  8
0
 10
1693.4999923706055
 20
715.74998664855957
 42
-0
  0
VERTEX
  8
0
 10
1713.6254043579102
 20
700.91868782043457
 42
-0
  0
SEQEND
  0
POLYLINE
  8
0
 10
0
 20
0
 39
0
 70
1
 66
1
  0
VERTEX
  8
0
 10
1691.4999923706055
 20
604.4554615020752
 42
-0
  0
VERTEX
  8
0
 10
1675.5
 20
604.4554615020752
 42
-0
  0
VERTEX
  8
0
 10
1675.5
 20
397.04455757141113
 42
0
  0
VERTEX
  8
0
 10
1691.4999923706055
 20
397.04455757141113
 42
-0
  0
SEQEND
  0
POLYLINE
  8
0
 10
0
 20
0
 39
0
 70
1
 66
1
  0
VERTEX
  8
0
 10
1699.569694519043
 20
653.2164478302002
 42
0
  0
VERTEX
  8
0
 10
1683.5
 20
672.3675708770752
 42
-0
  0
VERTEX
  8
0
 10
1667.430305480957
 20
653.2164478302002
 42
0
  0
VERTEX
  8
0
 10
1683.5
 20
634.06535530090332
 42
-0
  0
SEQEND
  0
POLYLINE
  8
0
 10
0
 20
0
 39
0
 70
1
 66
1
  0
VERTEX
  8
0
 10
1699.569694519043
 20
348.28354072570801
 42
0
  0
VERTEX
  8
0
 10
1683.5
 20
367.43465614318848
 42
-0
  0
VERTEX
  8
0
 10
1667.430305480957
 20
348.28354072570801
 42
0
  0
VERTEX
  8
0
 10
1683.5
 20
329.13243293762207
 42
-0
  0
SEQEND
  0
POLYLINE
  8
0
 10
0
 20
0
 39
0
 70
1
 66
1
  0
VERTEX
  8
0
 10
1818.9999923706055
 20
350.0003833770752
 42
0
  0
VERTEX
  8
0
 10
1818.9999923706055
 20
100.99961280822754
 42
0
  0
VERTEX
  8
0
 10
1806.1254043579102
 20
25.331323623657227
 42
0
  0
VERTEX
  8
0
 10
1785.9999923706055
 20
10.5
 42
-0
  0
VERTEX
  8
0
 10
1766
 20
10.5
 42
-0
  0
VERTEX
  8
0
 10
1745.8745956420898
 20
25.331323623657227
 42
-0
  0
VERTEX
  8
0
 10
1733
 20
100.99961280822754
 42
0
  0
VERTEX
  8
0
 10
1733
 20
350.0003833770752
 42
0
  0
VERTEX
  8
0
 10
1745.8745956420898
 20
425.66868782043457
 42
0
  0
VERTEX
  8
0
 10
1766
 20
440.49998664855957
 42
0
  0
VERTEX
  8
0
 10
1785.9999923706055
 20
440.49998664855957
 42
-0
  0
VERTEX
  8
0
 10
1806.1254043579102
 20
425.66868782043457
 42
-0
  0
SEQEND
  0
POLYLINE
  8
0
 10
0
 20
0
 39
0
 70
1
 66
1
  0
VERTEX
  8
0
 10
1783.9999923706055
 20
329.2054615020752
 42
-0
  0
VERTEX
  8
0
 10
1768
 20
329.2054615020752
 42
-0
  0
VERTEX
  8
0
 10
1768
 20
121.79455757141113
 42
0
  0
VERTEX
  8
0
 10
1783.9999923706055
 20
121.79455757141113
 42
-0
  0
SEQEND
  0
POLYLINE
  8
0
 10
0
 20
0
 39
0
 70
1
 66
1
  0
VERTEX
  8
0
 10
1792.069694519043
 20
377.9664478302002
 42
0
  0
VERTEX
  8
0
 10
1776
 20
397.1175708770752
 42
-0
  0
VERTEX
  8
0
 10
1759.930305480957
 20
377.9664478302002
 42
0
  0
VERTEX
  8
0
 10
1776
 20
358.81535530090332
 42
-0
  0
SEQEND
  0
POLYLINE
  8
0
 10
0
 20
0
 39
0
 70
1
 66
1
  0
VERTEX
  8
0
 10
1792.069694519043
 20
73.033540725708008
 42
0
  0
VERTEX
  8
0
 10
1776
 20
92.184656143188477
 42
-0
  0
VERTEX
  8
0
 10
1759.930305480957
 20
73.033540725708008
 42
0
  0
VERTEX
  8
0
 10
1776
 20
53.88243293762207
 42
-0
  0
SEQEND
  0
POLYLINE
  8
0
 10
0
 20
0
 39
0
 70
1
 66
1
  0
VERTEX
  8
0
 10
1819.2499923706055
 20
899.0003833770752
 42
0
  0
VERTEX
  8
0
 10
1819.2499923706055
 20
649.99961280822754
 42
0
  0
VERTEX
  8
0
 10
1806.3754043579102
 20
574.33132362365723
 42
0
  0
VERTEX
  8
0
 10
1786.2499923706055
 20
559.5
 42
-0
  0
VERTEX
  8
0
 10
1766.25
 20
559.5
 42
-0
  0
VERTEX
  8
0
 10
1746.1245956420898
 20
574.33132362365723
 42
-0
  0
VERTEX
  8
0
 10
1733.25
 20
649.99961280822754
 42
0
  0
VERTEX
  8
0
 10
1733.25
 20
899.0003833770752
 42
0
  0
VERTEX
  8
0
 10
1746.1245956420898
 20
974.66868782043457
 42
0
  0
VERTEX
  8
0
 10
1766.25
 20
989.49998664855957
 42
0
  0
VERTEX
  8
0
 10
1786.2499923706055
 20
989.49998664855957
 42
-0
  0
VERTEX
  8
0
 10
1806.3754043579102
 20
974.66868782043457
 42
-0
  0
SEQEND
  0
POLYLINE
  8
0
 10
0
 20
0
 39
0
 70
1
 66
1
  0
VERTEX
  8
0
 10
1784.2499923706055
 20
878.2054615020752
 42
-0
  0
VERTEX
  8
0
 10
1768.25
 20
878.2054615020752
 42
-0
  0
VERTEX
  8
0
 10
1768.25
 20
670.79455757141113
 42
0
  0
VERTEX
  8
0
 10
1784.2499923706055
 20
670.79455757141113
 42
-0
  0
SEQEND
  0
POLYLINE
  8
0
 10
0
 20
0
 39
0
 70
1
 66
1
  0
VERTEX
  8
0
 10
1792.319694519043
 20
926.9664478302002
 42
0
  0
VERTEX
  8
0
 10
1776.25
 20
946.1175708770752
 42
-0
  0
VERTEX
  8
0
 10
1760.180305480957
 20
926.9664478302002
 42
0
  0
VERTEX
  8
0
 10
1776.25
 20
907.81535530090332
 42
-0
  0
SEQEND
  0
POLYLINE
  8
0
 10
0
 20
0
 39
0
 70
1
 66
1
  0
VERTEX
  8
0
 10
1792.319694519043
 20
622.03354072570801
 42
0
  0
VERTEX
  8
0
 10
1776.25
 20
641.18465614318848
 42
-0
  0
VERTEX
  8
0
 10
1760.180305480957
 20
622.03354072570801
 42
0
  0
VERTEX
  8
0
 10
1776.25
 20
602.88243293762207
 42
-0
  0
SEQEND
  0
POLYLINE
  8
0
 10
0
 20
0
 39
0
 70
1
 66
1
  0
VERTEX
  8
0
 10
1911.7499923706055
 20
623.7503833770752
 42
0
  0
VERTEX
  8
0
 10
1911.7499923706055
 20
374.74961280822754
 42
0
  0
VERTEX
  8
0
 10
1898.8754043579102
 20
299.08132362365723
 42
0
  0
VERTEX
  8
0
 10
1878.7499923706055
 20
284.25
 42
-0
  0
VERTEX
  8
0
 10
1858.75
 20
284.25
 42
-0
  0
VERTEX
  8
0
 10
1838.6245956420898
 20
299.08132362365723
 42
-0
  0
VERTEX
  8
0
 10
1825.75
 20
374.74961280822754
 42
0
  0
VERTEX
  8
0
 10
1825.75
 20
623.7503833770752
 42
0
  0
VERTEX
  8
0
 10
1838.6245956420898
 20
699.41868782043457
 42
0
  0
VERTEX
  8
0
 10
1858.75
 20
714.24998664855957
 42
0
  0
VERTEX
  8
0
 10
1878.7499923706055
 20
714.24998664855957
 42
-0
  0
VERTEX
  8
0
 10
1898.8754043579102
 20
699.41868782043457
 42
-0
  0
SEQEND
  0
POLYLINE
  8
0
 10
0
 20
0
 39
0
 70
1
 66
1
  0
VERTEX
  8
0
 10
1876.7499923706055
 20
602.9554615020752
 42
-0
  0
VERTEX
  8
0
 10
1860.75
 20
602.9554615020752
 42
-0
  0
VERTEX
  8
0
 10
1860.75
 20
395.54455757141113
 42
0
  0
VERTEX
  8
0
 10
1876.7499923706055
 20
395.54455757141113
 42
-0
  0
SEQEND
  0
POLYLINE
  8
0
 10
0
 20
0
 39
0
 70
1
 66
1
  0
VERTEX
  8
0
 10
1884.819694519043
 20
651.7164478302002
 42
0
  0
VERTEX
  8
0
 10
1868.75
 20
670.8675708770752
 42
-0
  0
VERTEX
  8
0
 10
1852.680305480957
 20
651.7164478302002
 42
0
  0
VERTEX
  8
0
 10
1868.75
 20
632.56535530090332
 42
-0
  0
SEQEND
  0
POLYLINE
  8
0
 10
0
 20
0
 39
0
 70
1
 66
1
  0
VERTEX
  8
0
 10
1884.819694519043
 20
346.78354072570801
 42
0
  0
VERTEX
  8
0
 10
1868.75
 20
365.93465614318848
 42
-0
  0
VERTEX
  8
0
 10
1852.680305480957
 20
346.78354072570801
 42
0
  0
VERTEX
  8
0
 10
1868.75
 20
327.63243293762207
 42
-0
  0
SEQEND
  0
POLYLINE
  8
0
 10
0
 20
0
 39
0
 70
1
 66
1
  0
VERTEX
  8
0
 10
2004.2499923706055
 20
899.0003833770752
 42
0
  0
VERTEX
  8
0
 10
2004.2499923706055
 20
649.99961280822754
 42
0
  0
VERTEX
  8
0
 10
1991.3754043579102
 20
574.33132362365723
 42
0
  0
VERTEX
  8
0
 10
1971.2499923706055
 20
559.5
 42
-0
  0
VERTEX
  8
0
 10
1951.25
 20
559.5
 42
-0
  0
VERTEX
  8
0
 10
1931.1245956420898
 20
574.33132362365723
 42
-0
  0
VERTEX
  8
0
 10
1918.25
 20
649.99961280822754
 42
0
  0
VERTEX
  8
0
 10
1918.25
 20
899.0003833770752
 42
0
  0
VERTEX
  8
0
 10
1931.1245956420898
 20
974.66868782043457
 42
0
  0
VERTEX
  8
0
 10
1951.25
 20
989.49998664855957
 42
0
  0
VERTEX
  8
0
 10
1971.2499923706055
 20
989.49998664855957
 42
-0
  0
VERTEX
  8
0
 10
1991.3754043579102
 20
974.66868782043457
 42
-0
  0
SEQEND
  0
POLYLINE
  8
0
 10
0
 20
0
 39
0
 70
1
 66
1
  0
VERTEX
  8
0
 10
1969.2499923706055
 20
878.2054615020752
 42
-0
  0
VERTEX
  8
0
 10
1953.25
 20
878.2054615020752
 42
-0
  0
VERTEX
  8
0
 10
1953.25
 20
670.79455757141113
 42
0
  0
VERTEX
  8
0
 10
1969.2499923706055
 20
670.79455757141113
 42
-0
  0
SEQEND
  0
POLYLINE
  8
0
 10
0
 20
0
 39
0
 70
1
 66
1
  0
VERTEX
  8
0
 10
1977.319694519043
 20
926.9664478302002
 42
0
  0
VERTEX
  8
0
 10
1961.25
 20
946.1175708770752
 42
-0
  0
VERTEX
  8
0
 10
1945.180305480957
 20
926.9664478302002
 42
0
  0
VERTEX
  8
0
 10
1961.25
 20
907.81535530090332
 42
-0
  0
SEQEND
  0
POLYLINE
  8
0
 10
0
 20
0
 39
0
 70
1
 66
1
  0
VERTEX
  8
0
 10
1977.319694519043
 20
622.03354072570801
 42
0
  0
VERTEX
  8
0
 10
1961.25
 20
641.18465614318848
 42
-0
  0
VERTEX
  8
0
 10
1945.180305480957
 20
622.03354072570801
 42
0
  0
VERTEX
  8
0
 10
1961.25
 20
602.88243293762207
 42
-0
  0
SEQEND
  0
POLYLINE
  8
0
 10
0
 20
0
 39
0
 70
1
 66
1
  0
VERTEX
  8
0
 10
2004.4999923706055
 20
350.0003833770752
 42
0
  0
VERTEX
  8
0
 10
2004.4999923706055
 20
100.99961280822754
 42
0
  0
VERTEX
  8
0
 10
1991.6254043579102
 20
25.331323623657227
 42
0
  0
VERTEX
  8
0
 10
1971.4999923706055
 20
10.5
 42
-0
  0
VERTEX
  8
0
 10
1951.5
 20
10.5
 42
-0
  0
VERTEX
  8
0
 10
1931.3745956420898
 20
25.331323623657227
 42
-0
  0
VERTEX
  8
0
 10
1918.5
 20
100.99961280822754
 42
0
  0
VERTEX
  8
0
 10
1918.5
 20
350.0003833770752
 42
0
  0
VERTEX
  8
0
 10
1931.3745956420898
 20
425.66868782043457
 42
0
  0
VERTEX
  8
0
 10
1951.5
 20
440.49998664855957
 42
0
  0
VERTEX
  8
0
 10
1971.4999923706055
 20
440.49998664855957
 42
-0
  0
VERTEX
  8
0
 10
1991.6254043579102
 20
425.66868782043457
 42
-0
  0
SEQEND
  0
POLYLINE
  8
0
 10
0
 20
0
 39
0
 70
1
 66
1
  0
VERTEX
  8
0
 10
1969.4999923706055
 20
329.2054615020752
 42
-0
  0
VERTEX
  8
0
 10
1953.5
 20
329.2054615020752
 42
-0
  0
VERTEX
  8
0
 10
1953.5
 20
121.79455757141113
 42
0
  0
VERTEX
  8
0
 10
1969.4999923706055
 20
121.79455757141113
 42
-0
  0
SEQEND
  0
POLYLINE
  8
0
 10
0
 20
0
 39
0
 70
1
 66
1
  0
VERTEX
  8
0
 10
1977.569694519043
 20
377.9664478302002
 42
0
  0
VERTEX
  8
0
 10
1961.5
 20
397.1175708770752
 42
-0
  0
VERTEX
  8
0
 10
1945.430305480957
 20
377.9664478302002
 42
0
  0
VERTEX
  8
0
 10
1961.5
 20
358.81535530090332
 42
-0
  0
SEQEND
  0
POLYLINE
  8
0
 10
0
 20
0
 39
0
 70
1
 66
1
  0
VERTEX
  8
0
 10
1977.569694519043
 20
73.033540725708008
 42
0
  0
VERTEX
  8
0
 10
1961.5
 20
92.184656143188477
 42
-0
  0
VERTEX
  8
0
 10
1945.430305480957
 20
73.033540725708008
 42
0
  0
VERTEX
  8
0
 10
1961.5
 20
53.88243293762207
 42
-0
  0
SEQEND
  0
POLYLINE
  8
0
 10
0
 20
0
 39
0
 70
1
 66
1
  0
VERTEX
  8
0
 10
2096.9999923706055
 20
625.2503833770752
 42
0
  0
VERTEX
  8
0
 10
2096.9999923706055
 20
376.24961280822754
 42
0
  0
VERTEX
  8
0
 10
2084.1254043579102
 20
300.58132362365723
 42
0
  0
VERTEX
  8
0
 10
2063.9999923706055
 20
285.75
 42
-0
  0
VERTEX
  8
0
 10
2044
 20
285.75
 42
-0
  0
VERTEX
  8
0
 10
2023.8745956420898
 20
300.58132362365723
 42
-0
  0
VERTEX
  8
0
 10
2011
 20
376.24961280822754
 42
0
  0
VERTEX
  8
0
 10
2011
 20
625.2503833770752
 42
0
  0
VERTEX
  8
0
 10
2023.8745956420898
 20
700.91868782043457
 42
0
  0
VERTEX
  8
0
 10
2044
 20
715.74998664855957
 42
0
  0
VERTEX
  8
0
 10
2063.9999923706055
 20
715.74998664855957
 42
-0
  0
VERTEX
  8
0
 10
2084.1254043579102
 20
700.91868782043457
 42
-0
  0
SEQEND
  0
POLYLINE
  8
0
 10
0
 20
0
 39
0
 70
1
 66
1
  0
VERTEX
  8
0
 10
2061.9999923706055
 20
604.4554615020752
 42
-0
  0
VERTEX
  8
0
 10
2046
 20
604.4554615020752
 42
-0
  0
VERTEX
  8
0
 10
2046
 20
397.04455757141113
 42
0
  0
VERTEX
  8
0
 10
2061.9999923706055
 20
397.04455757141113
 42
-0
  0
SEQEND
  0
POLYLINE
  8
0
 10
0
 20
0
 39
0
 70
1
 66
1
  0
VERTEX
  8
0
 10
2070.069694519043
 20
653.2164478302002
 42
0
  0
VERTEX
  8
0
 10
2054
 20
672.3675708770752
 42
-0
  0
VERTEX
  8
0
 10
2037.930305480957
 20
653.2164478302002
 42
0
  0
VERTEX
  8
0
 10
2054
 20
634.06535530090332
 42
-0
  0
SEQEND
  0
POLYLINE
  8
0
 10
0
 20
0
 39
0
 70
1
 66
1
  0
VERTEX
  8
0
 10
2070.069694519043
 20
348.28354072570801
 42
0
  0
VERTEX
  8
0
 10
2054
 20
367.43465614318848
 42
-0
  0
VERTEX
  8
0
 10
2037.930305480957
 20
348.28354072570801
 42
0
  0
VERTEX
  8
0
 10
2054
 20
329.13243293762207
 42
-0
  0
SEQEND
  0
POLYLINE
  8
0
 10
0
 20
0
 39
0
 70
1
 66
1
  0
VERTEX
  8
0
 10
323.5
 20
416.25
 42
-0
  0
VERTEX
  8
0
 10
93.502578735351563
 20
416.25
 42
0
  0
VERTEX
  8
0
 10
86
 20
444.25
 42
-0
  0
VERTEX
  8
0
 10
86
 20
497.75
 42
0
  0
VERTEX
  8
0
 10
88.5
 20
500.25
 42
-0
  0
VERTEX
  8
0
 10
323.5
 20
500.25
 42
0
  0
VERTEX
  8
0
 10
326
 20
497.75
 42
-0
  0
VERTEX
  8
0
 10
326
 20
418.75
 42
-0
  0
SEQEND
  0
POLYLINE
  8
0
 10
0
 20
0
 39
0
 70
1
 66
1
  0
VERTEX
  8
0
 10
224
 20
458.25
 42
1
  0
VERTEX
  8
0
 10
188
 20
458.25
 42
1
  0
SEQEND
  0
POLYLINE
  8
0
 10
0
 20
0
 39
0
 70
1
 66
1
  0
VERTEX
  8
0
 10
836
 20
416.25
 42
-0
  0
VERTEX
  8
0
 10
606.00257873535156
 20
416.25
 42
0
  0
VERTEX
  8
0
 10
598.5
 20
444.25
 42
-0
  0
VERTEX
  8
0
 10
598.5
 20
497.75
 42
0
  0
VERTEX
  8
0
 10
601
 20
500.25
 42
-0
  0
VERTEX
  8
0
 10
836
 20
500.25
 42
0
  0
VERTEX
  8
0
 10
838.5
 20
497.75
 42
-0
  0
VERTEX
  8
0
 10
838.5
 20
418.75
 42
-0
  0
SEQEND
  0
POLYLINE
  8
0
 10
0
 20
0
 39
0
 70
1
 66
1
  0
VERTEX
  8
0
 10
736.5
 20
458.25
 42
1
  0
VERTEX
  8
0
 10
700.5
 20
458.25
 42
1
  0
SEQEND
  0
POLYLINE
  8
0
 10
0
 20
0
 39
0
 70
1
 66
1
  0
VERTEX
  8
0
 10
1363
 20
676.25
 42
-0
  0
VERTEX
  8
0
 10
1363
 20
906.24742126464844
 42
0
  0
VERTEX
  8
0
 10
1391
 20
913.75
 42
-0
  0
VERTEX
  8
0
 10
1444.5
 20
913.75
 42
0
  0
VERTEX
  8
0
 10
1447
 20
911.25
 42
-0
  0
VERTEX
  8
0
 10
1447
 20
676.25
 42
0
  0
VERTEX
  8
0
 10
1444.5
 20
673.75
 42
-0
  0
VERTEX
  8
0
 10
1365.5
 20
673.75
 42
-0
  0
SEQEND
  0
POLYLINE
  8
0
 10
0
 20
0
 39
0
 70
1
 66
1
  0
VERTEX
  8
0
 10
1405
 20
775.75
 42
1
  0
VERTEX
  8
0
 10
1405
 20
811.75
 42
1
  0
SEQEND
  0
POLYLINE
  8
0
 10
0
 20
0
 39
0
 70
1
 66
1
  0
VERTEX
  8
0
 10
2014.25
 20
728.25
 42
-0
  0
VERTEX
  8
0
 10
2014.25
 20
958.24742126464844
 42
0
  0
VERTEX
  8
0
 10
2042.25
 20
965.75
 42
-0
  0
VERTEX
  8
0
 10
2095.75
 20
965.75
 42
0
  0
VERTEX
  8
0
 10
2098.25
 20
963.25
 42
-0
  0
VERTEX
  8
0
 10
2098.25
 20
728.25
 42
0
  0
VERTEX
  8
0
 10
2095.75
 20
725.75
 42
-0
  0
VERTEX
  8
0
 10
2016.75
 20
725.75
 42
-0
  0
SEQEND
  0
POLYLINE
  8
0
 10
0
 20
0
 39
0
 70
1
 66
1
  0
VERTEX
  8
0
 10
2056.25
 20
827.75
 42
1
  0
VERTEX
  8
0
 10
2056.25
 20
863.75
 42
1
  0
SEQEND
  0
POLYLINE
  8
0
 10
0
 20
0
 39
0
 70
1
 66
1
  0
VERTEX
  8
0
 10
2014.5
 20
13
 42
-0
  0
VERTEX
  8
0
 10
2014.5
 20
242.99742126464844
 42
0
  0
VERTEX
  8
0
 10
2042.5
 20
250.5
 42
-0
  0
VERTEX
  8
0
 10
2096
 20
250.5
 42
0
  0
VERTEX
  8
0
 10
2098.5
 20
248
 42
-0
  0
VERTEX
  8
0
 10
2098.5
 20
13.000000000000005
 42
0
  0
VERTEX
  8
0
 10
2096
 20
10.500000000000005
 42
-0
  0
VERTEX
  8
0
 10
2017
 20
10.5
 42
-0
  0
SEQEND
  0
POLYLINE
  8
0
 10
0
 20
0
 39
0
 70
1
 66
1
  0
VERTEX
  8
0
 10
2056.5
 20
112.5
 42
1
  0
VERTEX
  8
0
 10
2056.5
 20
148.5
 42
1
  0
SEQEND
  0
POLYLINE
  8
0
 10
0
 20
0
 39
0
 70
1
 66
1
  0
VERTEX
  8
0
 10
2107
 20
254.5
 42
-0
  0
VERTEX
  8
0
 10
2107
 20
484.49742126464844
 42
0
  0
VERTEX
  8
0
 10
2135
 20
492
 42
-0
  0
VERTEX
  8
0
 10
2188.5
 20
492
 42
0
  0
VERTEX
  8
0
 10
2191
 20
489.5
 42
-0
  0
VERTEX
  8
0
 10
2191
 20
254.5
 42
0
  0
VERTEX
  8
0
 10
2188.5
 20
252
 42
-0
  0
VERTEX
  8
0
 10
2109.5
 20
252
 42
-0
  0
SEQEND
  0
POLYLINE
  8
0
 10
0
 20
0
 39
0
 70
1
 66
1
  0
VERTEX
  8
0
 10
2149
 20
354
 42
1
  0
VERTEX
  8
0
 10
2149
 20
390
 42
1
  0
SEQEND
  0
POLYLINE
  8
0
 10
0
 20
0
 39
0
 70
1
 66
1
  0
VERTEX
  8
0
 10
2108.75
 20
504.75
 42
-0
  0
VERTEX
  8
0
 10
2108.75
 20
734.74742126464844
 42
0
  0
VERTEX
  8
0
 10
2136.75
 20
742.25
 42
-0
  0
VERTEX
  8
0
 10
2190.25
 20
742.25
 42
0
  0
VERTEX
  8
0
 10
2192.75
 20
739.75
 42
-0
  0
VERTEX
  8
0
 10
2192.75
 20
504.75
 42
0
  0
VERTEX
  8
0
 10
2190.25
 20
502.25
 42
-0
  0
VERTEX
  8
0
 10
2111.25
 20
502.25
 42
-0
  0
SEQEND
  0
POLYLINE
  8
0
 10
0
 20
0
 39
0
 70
1
 66
1
  0
VERTEX
  8
0
 10
2150.75
 20
604.25
 42
1
  0
VERTEX
  8
0
 10
2150.75
 20
640.25
 42
1
  0
SEQEND
  0
POLYLINE
  8
0
 10
0
 20
0
 39
0
 70
1
 66
1
  0
VERTEX
  8
0
 10
2194.25
 20
13
 42
-0
  0
VERTEX
  8
0
 10
2194.25
 20
242.99742126464844
 42
0
  0
VERTEX
  8
0
 10
2222.25
 20
250.5
 42
-0
  0
VERTEX
  8
0
 10
2275.75
 20
250.5
 42
0
  0
VERTEX
  8
0
 10
2278.25
 20
248
 42
-0
  0
VERTEX
  8
0
 10
2278.25
 20
13.000000000000005
 42
0
  0
VERTEX
  8
0
 10
2275.75
 20
10.500000000000005
 42
-0
  0
VERTEX
  8
0
 10
2196.75
 20
10.5
 42
-0
  0
SEQEND
  0
POLYLINE
  8
0
 10
0
 20
0
 39
0
 70
1
 66
1
  0
VERTEX
  8
0
 10
2236.25
 20
112.5
 42
1
  0
VERTEX
  8
0
 10
2236.25
 20
148.5
 42
1
  0
SEQEND
  0
POLYLINE
  8
0
 10
0
 20
0
 39
0
 70
1
 66
1
  0
VERTEX
  8
0
 10
2195.75
 20
752
 42
-0
  0
VERTEX
  8
0
 10
2195.75
 20
981.99742126464844
 42
0
  0
VERTEX
  8
0
 10
2223.75
 20
989.5
 42
-0
  0
VERTEX
  8
0
 10
2277.25
 20
989.5
 42
0
  0
VERTEX
  8
0
 10
2279.75
 20
987
 42
-0
  0
VERTEX
  8
0
 10
2279.75
 20
752
 42
0
  0
VERTEX
  8
0
 10
2277.25
 20
749.5
 42
-0
  0
VERTEX
  8
0
 10
2198.25
 20
749.5
 42
-0
  0
SEQEND
  0
POLYLINE
  8
0
 10
0
 20
0
 39
0
 70
1
 66
1
  0
VERTEX
  8
0
 10
2237.75
 20
851.5
 42
1
  0
VERTEX
  8
0
 10
2237.75
 20
887.5
 42
1
  0
SEQEND
  0
POLYLINE
  8
0
 10
0
 20
0
 39
0
 70
1
 66
1
  0
VERTEX
  8
0
 10
2201.5
 20
263.25
 42
-0
  0
VERTEX
  8
0
 10
2201.5
 20
493.24742126464844
 42
0
  0
VERTEX
  8
0
 10
2229.5
 20
500.75
 42
-0
  0
VERTEX
  8
0
 10
2283
 20
500.75
 42
0
  0
VERTEX
  8
0
 10
2285.5
 20
498.25
 42
-0
  0
VERTEX
  8
0
 10
2285.5
 20
263.25
 42
0
  0
VERTEX
  8
0
 10
2283
 20
260.75
 42
-0
  0
VERTEX
  8
0
 10
2204
 20
260.75
 42
-0
  0
SEQEND
  0
POLYLINE
  8
0
 10
0
 20
0
 39
0
 70
1
 66
1
  0
VERTEX
  8
0
 10
2243.5
 20
362.75
 42
1
  0
VERTEX
  8
0
 10
2243.5
 20
398.75
 42
1
  0
SEQEND
  0
POLYLINE
  8
0
 10
0
 20
0
 39
0
 70
1
 66
1
  0
VERTEX
  8
0
 10
2285.75
 20
512.75
 42
-0
  0
VERTEX
  8
0
 10
2285.75
 20
742.74742126464844
 42
0
  0
VERTEX
  8
0
 10
2313.75
 20
750.25
 42
-0
  0
VERTEX
  8
0
 10
2367.25
 20
750.25
 42
0
  0
VERTEX
  8
0
 10
2369.75
 20
747.75
 42
-0
  0
VERTEX
  8
0
 10
2369.75
 20
512.75
 42
0
  0
VERTEX
  8
0
 10
2367.25
 20
510.25
 42
-0
  0
VERTEX
  8
0
 10
2288.25
 20
510.25
 42
-0
  0
SEQEND
  0
POLYLINE
  8
0
 10
0
 20
0
 39
0
 70
1
 66
1
  0
VERTEX
  8
0
 10
2327.75
 20
612.25
 42
1
  0
VERTEX
  8
0
 10
2327.75
 20
648.25
 42
1
  0
SEQEND
  0
POLYLINE
  8
0
 10
0
 20
0
 39
0
 70
1
 66
1
  0
VERTEX
  8
0
 10
2288.75
 20
13
 42
-0
  0
VERTEX
  8
0
 10
2288.75
 20
242.99742126464844
 42
0
  0
VERTEX
  8
0
 10
2316.75
 20
250.5
 42
-0
  0
VERTEX
  8
0
 10
2370.25
 20
250.5
 42
0
  0
VERTEX
  8
0
 10
2372.75
 20
248
 42
-0
  0
VERTEX
  8
0
 10
2372.75
 20
13.000000000000005
 42
0
  0
VERTEX
  8
0
 10
2370.25
 20
10.500000000000005
 42
-0
  0
VERTEX
  8
0
 10
2291.25
 20
10.5
 42
-0
  0
SEQEND
  0
POLYLINE
  8
0
 10
0
 20
0
 39
0
 70
1
 66
1
  0
VERTEX
  8
0
 10
2330.75
 20
112.5
 42
1
  0
VERTEX
  8
0
 10
2330.75
 20
148.5
 42
1
  0
SEQEND
  0
POLYLINE
  8
0
 10
0
 20
0
 39
0
 70
1
 66
1
  0
VERTEX
  8
0
 10
2345
 20
263.25
 42
-0
  0
VERTEX
  8
0
 10
2345
 20
493.24742126464844
 42
0
  0
VERTEX
  8
0
 10
2373
 20
500.75
 42
-0
  0
VERTEX
  8
0
 10
2426.5
 20
500.75
 42
0
  0
VERTEX
  8
0
 10
2429
 20
498.25
 42
-0
  0
VERTEX
  8
0
 10
2429
 20
263.25
 42
0
  0
VERTEX
  8
0
 10
2426.5
 20
260.75
 42
-0
  0
VERTEX
  8
0
 10
2347.5
 20
260.75
 42
-0
  0
SEQEND
  0
POLYLINE
  8
0
 10
0
 20
0
 39
0
 70
1
 66
1
  0
VERTEX
  8
0
 10
2387
 20
362.75
 42
1
  0
VERTEX
  8
0
 10
2387
 20
398.75
 42
1
  0
SEQEND
  0
POLYLINE
  8
0
 10
0
 20
0
 39
0
 70
1
 66
1
  0
VERTEX
  8
0
 10
2379.75
 20
751.75
 42
-0
  0
VERTEX
  8
0
 10
2379.75
 20
981.74742126464844
 42
0
  0
VERTEX
  8
0
 10
2407.75
 20
989.25
 42
-0
  0
VERTEX
  8
0
 10
2461.25
 20
989.25
 42
0
  0
VERTEX
  8
0
 10
2463.75
 20
986.75
 42
-0
  0
VERTEX
  8
0
 10
2463.75
 20
751.75
 42
0
  0
VERTEX
  8
0
 10
2461.25
 20
749.25
 42
-0
  0
VERTEX
  8
0
 10
2382.25
 20
749.25
 42
-0
  0
SEQEND
  0
POLYLINE
  8
0
 10
0
 20
0
 39
0
 70
1
 66
1
  0
VERTEX
  8
0
 10
2421.75
 20
851.25
 42
1
  0
VERTEX
  8
0
 10
2421.75
 20
887.25
 42
1
  0
SEQEND
  0
POLYLINE
  8
0
 10
0
 20
0
 39
0
 70
1
 66
1
  0
VERTEX
  8
0
 10
2383.25
 20
13
 42
-0
  0
VERTEX
  8
0
 10
2383.25
 20
242.99742126464844
 42
0
  0
VERTEX
  8
0
 10
2411.25
 20
250.5
 42
-0
  0
VERTEX
  8
0
 10
2464.75
 20
250.5
 42
0
  0
VERTEX
  8
0
 10
2467.25
 20
248
 42
-0
  0
VERTEX
  8
0
 10
2467.25
 20
13.000000000000005
 42
0
  0
VERTEX
  8
0
 10
2464.75
 20
10.500000000000005
 42
-0
  0
VERTEX
  8
0
 10
2385.75
 20
10.5
 42
-0
  0
SEQEND
  0
POLYLINE
  8
0
 10
0
 20
0
 39
0
 70
1
 66
1
  0
VERTEX
  8
0
 10
2425.25
 20
112.5
 42
1
  0
VERTEX
  8
0
 10
2425.25
 20
148.5
 42
1
  0
SEQEND
  0
POLYLINE
  8
0
 10
0
 20
0
 39
0
 70
1
 66
1
  0
VERTEX
  8
0
 10
96
 20
580.5
 42
-0
  0
VERTEX
  8
0
 10
206
 20
580.5
 42
-0
  0
VERTEX
  8
0
 10
216
 20
570.5
 42
-0
  0
VERTEX
  8
0
 10
216
 20
520.5
 42
-0
  0
VERTEX
  8
0
 10
206
 20
510.5
 42
-0
  0
VERTEX
  8
0
 10
96
 20
510.5
 42
-0
  0
VERTEX
  8
0
 10
86
 20
520.5
 42
-0
  0
VERTEX
  8
0
 10
86
 20
570.5
 42
-0
  0
SEQEND
  0
POLYLINE
  8
0
 10
0
 20
0
 39
0
 70
1
 66
1
  0
VERTEX
  8
0
 10
176
 20
545.5
 42
1
  0
VERTEX
  8
0
 10
126
 20
545.5
 42
1
  0
SEQEND
  0
POLYLINE
  8
0
 10
0
 20
0
 39
0
 70
1
 66
1
  0
VERTEX
  8
0
 10
209.5
 20
545.5
 42
1
  0
VERTEX
  8
0
 10
197.5
 20
545.5
 42
1
  0
SEQEND
  0
POLYLINE
  8
0
 10
0
 20
0
 39
0
 70
1
 66
1
  0
VERTEX
  8
0
 10
104.5
 20
545.5
 42
1
  0
VERTEX
  8
0
 10
92.5
 20
545.5
 42
1
  0
SEQEND
  0
POLYLINE
  8
0
 10
0
 20
0
 39
0
 70
1
 66
1
  0
VERTEX
  8
0
 10
236.5
 20
580.5
 42
-0
  0
VERTEX
  8
0
 10
346.5
 20
580.5
 42
-0
  0
VERTEX
  8
0
 10
356.5
 20
570.5
 42
-0
  0
VERTEX
  8
0
 10
356.5
 20
520.5
 42
-0
  0
VERTEX
  8
0
 10
346.5
 20
510.5
 42
-0
  0
VERTEX
  8
0
 10
236.5
 20
510.5
 42
-0
  0
VERTEX
  8
0
 10
226.5
 20
520.5
 42
-0
  0
VERTEX
  8
0
 10
226.5
 20
570.5
 42
-0
  0
SEQEND
  0
POLYLINE
  8
0
 10
0
 20
0
 39
0
 70
1
 66
1
  0
VERTEX
  8
0
 10
316.5
 20
545.5
 42
1
  0
VERTEX
  8
0
 10
266.5
 20
545.5
 42
1
  0
SEQEND
  0
POLYLINE
  8
0
 10
0
 20
0
 39
0
 70
1
 66
1
  0
VERTEX
  8
0
 10
350
 20
545.5
 42
1
  0
VERTEX
  8
0
 10
338
 20
545.5
 42
1
  0
SEQEND
  0
POLYLINE
  8
0
 10
0
 20
0
 39
0
 70
1
 66
1
  0
VERTEX
  8
0
 10
245
 20
545.5
 42
1
  0
VERTEX
  8
0
 10
233
 20
545.5
 42
1
  0
SEQEND
  0
POLYLINE
  8
0
 10
0
 20
0
 39
0
 70
1
 66
1
  0
VERTEX
  8
0
 10
412.25
 20
491.25
 42
-0
  0
VERTEX
  8
0
 10
412.25
 20
381.25
 42
-0
  0
VERTEX
  8
0
 10
402.25
 20
371.25
 42
-0
  0
VERTEX
  8
0
 10
352.25
 20
371.25
 42
-0
  0
VERTEX
  8
0
 10
342.25
 20
381.25
 42
-0
  0
VERTEX
  8
0
 10
342.25
 20
491.25
 42
-0
  0
VERTEX
  8
0
 10
352.25
 20
501.25
 42
-0
  0
VERTEX
  8
0
 10
402.25
 20
501.25
 42
-0
  0
SEQEND
  0
POLYLINE
  8
0
 10
0
 20
0
 39
0
 70
1
 66
1
  0
VERTEX
  8
0
 10
377.25
 20
411.25
 42
1
  0
VERTEX
  8
0
 10
377.25
 20
461.25
 42
1
  0
SEQEND
  0
POLYLINE
  8
0
 10
0
 20
0
 39
0
 70
1
 66
1
  0
VERTEX
  8
0
 10
377.25
 20
377.75
 42
1
  0
VERTEX
  8
0
 10
377.25
 20
389.75
 42
1
  0
SEQEND
  0
POLYLINE
  8
0
 10
0
 20
0
 39
0
 70
1
 66
1
  0
VERTEX
  8
0
 10
377.25
 20
482.75
 42
1
  0
VERTEX
  8
0
 10
377.25
 20
494.75
 42
1
  0
SEQEND
  0
POLYLINE
  8
0
 10
0
 20
0
 39
0
 70
1
 66
1
  0
VERTEX
  8
0
 10
608.5
 20
580.5
 42
-0
  0
VERTEX
  8
0
 10
718.5
 20
580.5
 42
-0
  0
VERTEX
  8
0
 10
728.5
 20
570.5
 42
-0
  0
VERTEX
  8
0
 10
728.5
 20
520.5
 42
-0
  0
VERTEX
  8
0
 10
718.5
 20
510.5
 42
-0
  0
VERTEX
  8
0
 10
608.5
 20
510.5
 42
-0
  0
VERTEX
  8
0
 10
598.5
 20
520.5
 42
-0
  0
VERTEX
  8
0
 10
598.5
 20
570.5
 42
-0
  0
SEQEND
  0
POLYLINE
  8
0
 10
0
 20
0
 39
0
 70
1
 66
1
  0
VERTEX
  8
0
 10
688.5
 20
545.5
 42
1
  0
VERTEX
  8
0
 10
638.5
 20
545.5
 42
1
  0
SEQEND
  0
POLYLINE
  8
0
 10
0
 20
0
 39
0
 70
1
 66
1
  0
VERTEX
  8
0
 10
722
 20
545.5
 42
1
  0
VERTEX
  8
0
 10
710
 20
545.5
 42
1
  0
SEQEND
  0
POLYLINE
  8
0
 10
0
 20
0
 39
0
 70
1
 66
1
  0
VERTEX
  8
0
 10
617
 20
545.5
 42
1
  0
VERTEX
  8
0
 10
605
 20
545.5
 42
1
  0
SEQEND
  0
POLYLINE
  8
0
 10
0
 20
0
 39
0
 70
1
 66
1
  0
VERTEX
  8
0
 10
648.25
 20
989.5
 42
-0
  0
VERTEX
  8
0
 10
758.25
 20
989.5
 42
-0
  0
VERTEX
  8
0
 10
768.25
 20
979.5
 42
-0
  0
VERTEX
  8
0
 10
768.25
 20
929.5
 42
-0
  0
VERTEX
  8
0
 10
758.25
 20
919.5
 42
-0
  0
VERTEX
  8
0
 10
648.25
 20
919.5
 42
-0
  0
VERTEX
  8
0
 10
638.25
 20
929.5
 42
-0
  0
VERTEX
  8
0
 10
638.25
 20
979.5
 42
-0
  0
SEQEND
  0
POLYLINE
  8
0
 10
0
 20
0
 39
0
 70
1
 66
1
  0
VERTEX
  8
0
 10
728.25
 20
954.5
 42
1
  0
VERTEX
  8
0
 10
678.25
 20
954.5
 42
1
  0
SEQEND
  0
POLYLINE
  8
0
 10
0
 20
0
 39
0
 70
1
 66
1
  0
VERTEX
  8
0
 10
761.75
 20
954.5
 42
1
  0
VERTEX
  8
0
 10
749.75
 20
954.5
 42
1
  0
SEQEND
  0
POLYLINE
  8
0
 10
0
 20
0
 39
0
 70
1
 66
1
  0
VERTEX
  8
0
 10
656.75
 20
954.5
 42
1
  0
VERTEX
  8
0
 10
644.75
 20
954.5
 42
1
  0
SEQEND
  0
POLYLINE
  8
0
 10
0
 20
0
 39
0
 70
1
 66
1
  0
VERTEX
  8
0
 10
749
 20
580.5
 42
-0
  0
VERTEX
  8
0
 10
859
 20
580.5
 42
-0
  0
VERTEX
  8
0
 10
869
 20
570.5
 42
-0
  0
VERTEX
  8
0
 10
869
 20
520.5
 42
-0
  0
VERTEX
  8
0
 10
859
 20
510.5
 42
-0
  0
VERTEX
  8
0
 10
749
 20
510.5
 42
-0
  0
VERTEX
  8
0
 10
739
 20
520.5
 42
-0
  0
VERTEX
  8
0
 10
739
 20
570.5
 42
-0
  0
SEQEND
  0
POLYLINE
  8
0
 10
0
 20
0
 39
0
 70
1
 66
1
  0
VERTEX
  8
0
 10
829
 20
545.5
 42
1
  0
VERTEX
  8
0
 10
779
 20
545.5
 42
1
  0
SEQEND
  0
POLYLINE
  8
0
 10
0
 20
0
 39
0
 70
1
 66
1
  0
VERTEX
  8
0
 10
862.5
 20
545.5
 42
1
  0
VERTEX
  8
0
 10
850.5
 20
545.5
 42
1
  0
SEQEND
  0
POLYLINE
  8
0
 10
0
 20
0
 39
0
 70
1
 66
1
  0
VERTEX
  8
0
 10
757.5
 20
545.5
 42
1
  0
VERTEX
  8
0
 10
745.5
 20
545.5
 42
1
  0
SEQEND
  0
POLYLINE
  8
0
 10
0
 20
0
 39
0
 70
1
 66
1
  0
VERTEX
  8
0
 10
924.75
 20
491.25
 42
-0
  0
VERTEX
  8
0
 10
924.75
 20
381.25
 42
-0
  0
VERTEX
  8
0
 10
914.75
 20
371.25
 42
-0
  0
VERTEX
  8
0
 10
864.75
 20
371.25
 42
-0
  0
VERTEX
  8
0
 10
854.75
 20
381.25
 42
-0
  0
VERTEX
  8
0
 10
854.75
 20
491.25
 42
-0
  0
VERTEX
  8
0
 10
864.75
 20
501.25
 42
-0
  0
VERTEX
  8
0
 10
914.75
 20
501.25
 42
-0
  0
SEQEND
  0
POLYLINE
  8
0
 10
0
 20
0
 39
0
 70
1
 66
1
  0
VERTEX
  8
0
 10
889.75
 20
411.25
 42
1
  0
VERTEX
  8
0
 10
889.75
 20
461.25
 42
1
  0
SEQEND
  0
POLYLINE
  8
0
 10
0
 20
0
 39
0
 70
1
 66
1
  0
VERTEX
  8
0
 10
889.75
 20
377.75
 42
1
  0
VERTEX
  8
0
 10
889.75
 20
389.75
 42
1
  0
SEQEND
  0
POLYLINE
  8
0
 10
0
 20
0
 39
0
 70
1
 66
1
  0
VERTEX
  8
0
 10
889.75
 20
482.75
 42
1
  0
VERTEX
  8
0
 10
889.75
 20
494.75
 42
1
  0
SEQEND
  0
POLYLINE
  8
0
 10
0
 20
0
 39
0
 70
1
 66
1
  0
VERTEX
  8
0
 10
888.25
 20
989.5
 42
-0
  0
VERTEX
  8
0
 10
998.25
 20
989.5
 42
-0
  0
VERTEX
  8
0
 10
1008.25
 20
979.5
 42
-0
  0
VERTEX
  8
0
 10
1008.25
 20
929.5
 42
-0
  0
VERTEX
  8
0
 10
998.25
 20
919.5
 42
-0
  0
VERTEX
  8
0
 10
888.25
 20
919.5
 42
-0
  0
VERTEX
  8
0
 10
878.25
 20
929.5
 42
-0
  0
VERTEX
  8
0
 10
878.25
 20
979.5
 42
-0
  0
SEQEND
  0
POLYLINE
  8
0
 10
0
 20
0
 39
0
 70
1
 66
1
  0
VERTEX
  8
0
 10
968.25
 20
954.5
 42
1
  0
VERTEX
  8
0
 10
918.25
 20
954.5
 42
1
  0
SEQEND
  0
POLYLINE
  8
0
 10
0
 20
0
 39
0
 70
1
 66
1
  0
VERTEX
  8
0
 10
1001.75
 20
954.5
 42
1
  0
VERTEX
  8
0
 10
989.75
 20
954.5
 42
1
  0
SEQEND
  0
POLYLINE
  8
0
 10
0
 20
0
 39
0
 70
1
 66
1
  0
VERTEX
  8
0
 10
896.75
 20
954.5
 42
1
  0
VERTEX
  8
0
 10
884.75
 20
954.5
 42
1
  0
SEQEND
  0
POLYLINE
  8
0
 10
0
 20
0
 39
0
 70
1
 66
1
  0
VERTEX
  8
0
 10
1118.75
 20
989.5
 42
-0
  0
VERTEX
  8
0
 10
1228.75
 20
989.5
 42
-0
  0
VERTEX
  8
0
 10
1238.75
 20
979.5
 42
-0
  0
VERTEX
  8
0
 10
1238.75
 20
929.5
 42
-0
  0
VERTEX
  8
0
 10
1228.75
 20
919.5
 42
-0
  0
VERTEX
  8
0
 10
1118.75
 20
919.5
 42
-0
  0
VERTEX
  8
0
 10
1108.75
 20
929.5
 42
-0
  0
VERTEX
  8
0
 10
1108.75
 20
979.5
 42
-0
  0
SEQEND
  0
POLYLINE
  8
0
 10
0
 20
0
 39
0
 70
1
 66
1
  0
VERTEX
  8
0
 10
1198.75
 20
954.5
 42
1
  0
VERTEX
  8
0
 10
1148.75
 20
954.5
 42
1
  0
SEQEND
  0
POLYLINE
  8
0
 10
0
 20
0
 39
0
 70
1
 66
1
  0
VERTEX
  8
0
 10
1232.25
 20
954.5
 42
1
  0
VERTEX
  8
0
 10
1220.25
 20
954.5
 42
1
  0
SEQEND
  0
POLYLINE
  8
0
 10
0
 20
0
 39
0
 70
1
 66
1
  0
VERTEX
  8
0
 10
1127.25
 20
954.5
 42
1
  0
VERTEX
  8
0
 10
1115.25
 20
954.5
 42
1
  0
SEQEND
  0
POLYLINE
  8
0
 10
0
 20
0
 39
0
 70
1
 66
1
  0
VERTEX
  8
0
 10
1527.5
 20
793.75
 42
-0
  0
VERTEX
  8
0
 10
1527.5
 20
683.75
 42
-0
  0
VERTEX
  8
0
 10
1517.5
 20
673.75
 42
-0
  0
VERTEX
  8
0
 10
1467.5
 20
673.75
 42
-0
  0
VERTEX
  8
0
 10
1457.5
 20
683.75
 42
-0
  0
VERTEX
  8
0
 10
1457.5
 20
793.75
 42
-0
  0
VERTEX
  8
0
 10
1467.5
 20
803.75
 42
-0
  0
VERTEX
  8
0
 10
1517.5
 20
803.75
 42
-0
  0
SEQEND
  0
POLYLINE
  8
0
 10
0
 20
0
 39
0
 70
1
 66
1
  0
VERTEX
  8
0
 10
1492.5
 20
713.75
 42
1
  0
VERTEX
  8
0
 10
1492.5
 20
763.75
 42
1
  0
SEQEND
  0
POLYLINE
  8
0
 10
0
 20
0
 39
0
 70
1
 66
1
  0
VERTEX
  8
0
 10
1492.5
 20
680.25
 42
1
  0
VERTEX
  8
0
 10
1492.5
 20
692.25
 42
1
  0
SEQEND
  0
POLYLINE
  8
0
 10
0
 20
0
 39
0
 70
1
 66
1
  0
VERTEX
  8
0
 10
1492.5
 20
785.25
 42
1
  0
VERTEX
  8
0
 10
1492.5
 20
797.25
 42
1
  0
SEQEND
  0
POLYLINE
  8
0
 10
0
 20
0
 39
0
 70
1
 66
1
  0
VERTEX
  8
0
 10
1527.5
 20
934
 42
-0
  0
VERTEX
  8
0
 10
1527.5
 20
824
 42
-0
  0
VERTEX
  8
0
 10
1517.5
 20
814
 42
-0
  0
VERTEX
  8
0
 10
1467.5
 20
814
 42
-0
  0
VERTEX
  8
0
 10
1457.5
 20
824
 42
-0
  0
VERTEX
  8
0
 10
1457.5
 20
934
 42
-0
  0
VERTEX
  8
0
 10
1467.5
 20
944
 42
-0
  0
VERTEX
  8
0
 10
1517.5
 20
944
 42
-0
  0
SEQEND
  0
POLYLINE
  8
0
 10
0
 20
0
 39
0
 70
1
 66
1
  0
VERTEX
  8
0
 10
1492.5
 20
854
 42
1
  0
VERTEX
  8
0
 10
1492.5
 20
904
 42
1
  0
SEQEND
  0
POLYLINE
  8
0
 10
0
 20
0
 39
0
 70
1
 66
1
  0
VERTEX
  8
0
 10
1492.5
 20
820.5
 42
1
  0
VERTEX
  8
0
 10
1492.5
 20
832.5
 42
1
  0
SEQEND
  0
POLYLINE
  8
0
 10
0
 20
0
 39
0
 70
1
 66
1
  0
VERTEX
  8
0
 10
1492.5
 20
925.5
 42
1
  0
VERTEX
  8
0
 10
1492.5
 20
937.5
 42
1
  0
SEQEND
  0
POLYLINE
  8
0
 10
0
 20
0
 39
0
 70
1
 66
1
  0
VERTEX
  8
0
 10
1713.75
 20
845.75
 42
-0
  0
VERTEX
  8
0
 10
1713.75
 20
735.75
 42
-0
  0
VERTEX
  8
0
 10
1703.75
 20
725.75
 42
-0
  0
VERTEX
  8
0
 10
1653.75
 20
725.75
 42
-0
  0
VERTEX
  8
0
 10
1643.75
 20
735.75
 42
-0
  0
VERTEX
  8
0
 10
1643.75
 20
845.75
 42
-0
  0
VERTEX
  8
0
 10
1653.75
 20
855.75
 42
-0
  0
VERTEX
  8
0
 10
1703.75
 20
855.75
 42
-0
  0
SEQEND
  0
POLYLINE
  8
0
 10
0
 20
0
 39
0
 70
1
 66
1
  0
VERTEX
  8
0
 10
1678.75
 20
765.75
 42
1
  0
VERTEX
  8
0
 10
1678.75
 20
815.75
 42
1
  0
SEQEND
  0
POLYLINE
  8
0
 10
0
 20
0
 39
0
 70
1
 66
1
  0
VERTEX
  8
0
 10
1678.75
 20
732.25
 42
1
  0
VERTEX
  8
0
 10
1678.75
 20
744.25
 42
1
  0
SEQEND
  0
POLYLINE
  8
0
 10
0
 20
0
 39
0
 70
1
 66
1
  0
VERTEX
  8
0
 10
1678.75
 20
837.25
 42
1
  0
VERTEX
  8
0
 10
1678.75
 20
849.25
 42
1
  0
SEQEND
  0
POLYLINE
  8
0
 10
0
 20
0
 39
0
 70
1
 66
1
  0
VERTEX
  8
0
 10
1714
 20
130.5
 42
-0
  0
VERTEX
  8
0
 10
1714
 20
20.500000000000004
 42
-0
  0
VERTEX
  8
0
 10
1704
 20
10.500000000000004
 42
-0
  0
VERTEX
  8
0
 10
1654
 20
10.5
 42
-0
  0
VERTEX
  8
0
 10
1644
 20
20.5
 42
-0
  0
VERTEX
  8
0
 10
1644
 20
130.5
 42
-0
  0
VERTEX
  8
0
 10
1654
 20
140.5
 42
-0
  0
VERTEX
  8
0
 10
1704
 20
140.5
 42
-0
  0
SEQEND
  0
POLYLINE
  8
0
 10
0
 20
0
 39
0
 70
1
 66
1
  0
VERTEX
  8
0
 10
1679
 20
50.5
 42
1
  0
VERTEX
  8
0
 10
1679
 20
100.5
 42
1
  0
SEQEND
  0
POLYLINE
  8
0
 10
0
 20
0
 39
0
 70
1
 66
1
  0
VERTEX
  8
0
 10
1679
 20
17
 42
1
  0
VERTEX
  8
0
 10
1679
 20
29.000000000000004
 42
1
  0
SEQEND
  0
POLYLINE
  8
0
 10
0
 20
0
 39
0
 70
1
 66
1
  0
VERTEX
  8
0
 10
1679
 20
122
 42
1
  0
VERTEX
  8
0
 10
1679
 20
134
 42
1
  0
SEQEND
  0
POLYLINE
  8
0
 10
0
 20
0
 39
0
 70
1
 66
1
  0
VERTEX
  8
0
 10
1899
 20
130.5
 42
-0
  0
VERTEX
  8
0
 10
1899
 20
20.500000000000004
 42
-0
  0
VERTEX
  8
0
 10
1889
 20
10.500000000000004
 42
-0
  0
VERTEX
  8
0
 10
1839
 20
10.5
 42
-0
  0
VERTEX
  8
0
 10
1829
 20
20.5
 42
-0
  0
VERTEX
  8
0
 10
1829
 20
130.5
 42
-0
  0
VERTEX
  8
0
 10
1839
 20
140.5
 42
-0
  0
VERTEX
  8
0
 10
1889
 20
140.5
 42
-0
  0
SEQEND
  0
POLYLINE
  8
0
 10
0
 20
0
 39
0
 70
1
 66
1
  0
VERTEX
  8
0
 10
1864
 20
50.5
 42
1
  0
VERTEX
  8
0
 10
1864
 20
100.5
 42
1
  0
SEQEND
  0
POLYLINE
  8
0
 10
0
 20
0
 39
0
 70
1
 66
1
  0
VERTEX
  8
0
 10
1864
 20
17
 42
1
  0
VERTEX
  8
0
 10
1864
 20
29.000000000000004
 42
1
  0
SEQEND
  0
POLYLINE
  8
0
 10
0
 20
0
 39
0
 70
1
 66
1
  0
VERTEX
  8
0
 10
1864
 20
122
 42
1
  0
VERTEX
  8
0
 10
1864
 20
134
 42
1
  0
SEQEND
  0
POLYLINE
  8
0
 10
0
 20
0
 39
0
 70
1
 66
1
  0
VERTEX
  8
0
 10
1899.25
 20
844.25
 42
-0
  0
VERTEX
  8
0
 10
1899.25
 20
734.25
 42
-0
  0
VERTEX
  8
0
 10
1889.25
 20
724.25
 42
-0
  0
VERTEX
  8
0
 10
1839.25
 20
724.25
 42
-0
  0
VERTEX
  8
0
 10
1829.25
 20
734.25
 42
-0
  0
VERTEX
  8
0
 10
1829.25
 20
844.25
 42
-0
  0
VERTEX
  8
0
 10
1839.25
 20
854.25
 42
-0
  0
VERTEX
  8
0
 10
1889.25
 20
854.25
 42
-0
  0
SEQEND
  0
POLYLINE
  8
0
 10
0
 20
0
 39
0
 70
1
 66
1
  0
VERTEX
  8
0
 10
1864.25
 20
764.25
 42
1
  0
VERTEX
  8
0
 10
1864.25
 20
814.25
 42
1
  0
SEQEND
  0
POLYLINE
  8
0
 10
0
 20
0
 39
0
 70
1
 66
1
  0
VERTEX
  8
0
 10
1864.25
 20
730.75
 42
1
  0
VERTEX
  8
0
 10
1864.25
 20
742.75
 42
1
  0
SEQEND
  0
POLYLINE
  8
0
 10
0
 20
0
 39
0
 70
1
 66
1
  0
VERTEX
  8
0
 10
1864.25
 20
835.75
 42
1
  0
VERTEX
  8
0
 10
1864.25
 20
847.75
 42
1
  0
SEQEND
  0
POLYLINE
  8
0
 10
0
 20
0
 39
0
 70
1
 66
1
  0
VERTEX
  8
0
 10
2178.75
 20
872.5
 42
-0
  0
VERTEX
  8
0
 10
2178.75
 20
762.5
 42
-0
  0
VERTEX
  8
0
 10
2168.75
 20
752.5
 42
-0
  0
VERTEX
  8
0
 10
2118.75
 20
752.5
 42
-0
  0
VERTEX
  8
0
 10
2108.75
 20
762.5
 42
-0
  0
VERTEX
  8
0
 10
2108.75
 20
872.5
 42
-0
  0
VERTEX
  8
0
 10
2118.75
 20
882.5
 42
-0
  0
VERTEX
  8
0
 10
2168.75
 20
882.5
 42
-0
  0
SEQEND
  0
POLYLINE
  8
0
 10
0
 20
0
 39
0
 70
1
 66
1
  0
VERTEX
  8
0
 10
2143.75
 20
792.5
 42
1
  0
VERTEX
  8
0
 10
2143.75
 20
842.5
 42
1
  0
SEQEND
  0
POLYLINE
  8
0
 10
0
 20
0
 39
0
 70
1
 66
1
  0
VERTEX
  8
0
 10
2143.75
 20
759
 42
1
  0
VERTEX
  8
0
 10
2143.75
 20
771
 42
1
  0
SEQEND
  0
POLYLINE
  8
0
 10
0
 20
0
 39
0
 70
1
 66
1
  0
VERTEX
  8
0
 10
2143.75
 20
864
 42
1
  0
VERTEX
  8
0
 10
2143.75
 20
876
 42
1
  0
SEQEND
  0
POLYLINE
  8
0
 10
0
 20
0
 39
0
 70
1
 66
1
  0
VERTEX
  8
0
 10
2179
 20
130.5
 42
-0
  0
VERTEX
  8
0
 10
2179
 20
20.500000000000004
 42
-0
  0
VERTEX
  8
0
 10
2169
 20
10.500000000000004
 42
-0
  0
VERTEX
  8
0
 10
2119
 20
10.5
 42
-0
  0
VERTEX
  8
0
 10
2109
 20
20.5
 42
-0
  0
VERTEX
  8
0
 10
2109
 20
130.5
 42
-0
  0
VERTEX
  8
0
 10
2119
 20
140.5
 42
-0
  0
VERTEX
  8
0
 10
2169
 20
140.5
 42
-0
  0
SEQEND
  0
POLYLINE
  8
0
 10
0
 20
0
 39
0
 70
1
 66
1
  0
VERTEX
  8
0
 10
2144
 20
50.5
 42
1
  0
VERTEX
  8
0
 10
2144
 20
100.5
 42
1
  0
SEQEND
  0
POLYLINE
  8
0
 10
0
 20
0
 39
0
 70
1
 66
1
  0
VERTEX
  8
0
 10
2144
 20
17
 42
1
  0
VERTEX
  8
0
 10
2144
 20
29.000000000000004
 42
1
  0
SEQEND
  0
POLYLINE
  8
0
 10
0
 20
0
 39
0
 70
1
 66
1
  0
VERTEX
  8
0
 10
2144
 20
122
 42
1
  0
VERTEX
  8
0
 10
2144
 20
134
 42
1
  0
SEQEND
  0
POLYLINE
  8
0
 10
0
 20
0
 39
0
 70
1
 66
1
  0
VERTEX
  8
0
 10
2273.25
 20
631
 42
-0
  0
VERTEX
  8
0
 10
2273.25
 20
521
 42
-0
  0
VERTEX
  8
0
 10
2263.25
 20
511
 42
-0
  0
VERTEX
  8
0
 10
2213.25
 20
511
 42
-0
  0
VERTEX
  8
0
 10
2203.25
 20
521
 42
-0
  0
VERTEX
  8
0
 10
2203.25
 20
631
 42
-0
  0
VERTEX
  8
0
 10
2213.25
 20
641
 42
-0
  0
VERTEX
  8
0
 10
2263.25
 20
641
 42
-0
  0
SEQEND
  0
POLYLINE
  8
0
 10
0
 20
0
 39
0
 70
1
 66
1
  0
VERTEX
  8
0
 10
2238.25
 20
551
 42
1
  0
VERTEX
  8
0
 10
2238.25
 20
601
 42
1
  0
SEQEND
  0
POLYLINE
  8
0
 10
0
 20
0
 39
0
 70
1
 66
1
  0
VERTEX
  8
0
 10
2238.25
 20
517.5
 42
1
  0
VERTEX
  8
0
 10
2238.25
 20
529.5
 42
1
  0
SEQEND
  0
POLYLINE
  8
0
 10
0
 20
0
 39
0
 70
1
 66
1
  0
VERTEX
  8
0
 10
2238.25
 20
622.5
 42
1
  0
VERTEX
  8
0
 10
2238.25
 20
634.5
 42
1
  0
SEQEND
  0
POLYLINE
  8
0
 10
0
 20
0
 39
0
 70
1
 66
1
  0
VERTEX
  8
0
 10
2360.25
 20
880.5
 42
-0
  0
VERTEX
  8
0
 10
2360.25
 20
770.5
 42
-0
  0
VERTEX
  8
0
 10
2350.25
 20
760.5
 42
-0
  0
VERTEX
  8
0
 10
2300.25
 20
760.5
 42
-0
  0
VERTEX
  8
0
 10
2290.25
 20
770.5
 42
-0
  0
VERTEX
  8
0
 10
2290.25
 20
880.5
 42
-0
  0
VERTEX
  8
0
 10
2300.25
 20
890.5
 42
-0
  0
VERTEX
  8
0
 10
2350.25
 20
890.5
 42
-0
  0
SEQEND
  0
POLYLINE
  8
0
 10
0
 20
0
 39
0
 70
1
 66
1
  0
VERTEX
  8
0
 10
2325.25
 20
800.5
 42
1
  0
VERTEX
  8
0
 10
2325.25
 20
850.5
 42
1
  0
SEQEND
  0
POLYLINE
  8
0
 10
0
 20
0
 39
0
 70
1
 66
1
  0
VERTEX
  8
0
 10
2325.25
 20
767
 42
1
  0
VERTEX
  8
0
 10
2325.25
 20
779
 42
1
  0
SEQEND
  0
POLYLINE
  8
0
 10
0
 20
0
 39
0
 70
1
 66
1
  0
VERTEX
  8
0
 10
2325.25
 20
872
 42
1
  0
VERTEX
  8
0
 10
2325.25
 20
884
 42
1
  0
SEQEND
  0
POLYLINE
  8
0
 10
0
 20
0
 39
0
 70
1
 66
1
  0
VERTEX
  8
0
 10
2450.25
 20
631
 42
-0
  0
VERTEX
  8
0
 10
2450.25
 20
521
 42
-0
  0
VERTEX
  8
0
 10
2440.25
 20
511
 42
-0
  0
VERTEX
  8
0
 10
2390.25
 20
511
 42
-0
  0
VERTEX
  8
0
 10
2380.25
 20
521
 42
-0
  0
VERTEX
  8
0
 10
2380.25
 20
631
 42
-0
  0
VERTEX
  8
0
 10
2390.25
 20
641
 42
-0
  0
VERTEX
  8
0
 10
2440.25
 20
641
 42
-0
  0
SEQEND
  0
POLYLINE
  8
0
 10
0
 20
0
 39
0
 70
1
 66
1
  0
VERTEX
  8
0
 10
2415.25
 20
551
 42
1
  0
VERTEX
  8
0
 10
2415.25
 20
601
 42
1
  0
SEQEND
  0
POLYLINE
  8
0
 10
0
 20
0
 39
0
 70
1
 66
1
  0
VERTEX
  8
0
 10
2415.25
 20
517.5
 42
1
  0
VERTEX
  8
0
 10
2415.25
 20
529.5
 42
1
  0
SEQEND
  0
POLYLINE
  8
0
 10
0
 20
0
 39
0
 70
1
 66
1
  0
VERTEX
  8
0
 10
2415.25
 20
622.5
 42
1
  0
VERTEX
  8
0
 10
2415.25
 20
634.5
 42
1
  0
SEQEND
  0
POLYLINE
  8
0
 10
0
 20
0
 39
0
 70
1
 66
1
  0
VERTEX
  8
0
 10
1548
 20
450.5
 42
-0
  0
VERTEX
  8
0
 10
1548
 20
540.5
 42
-0
  0
VERTEX
  8
0
 10
1618
 20
540.5
 42
-0
  0
VERTEX
  8
0
 10
1618
 20
450.5
 42
-0
  0
SEQEND
  0
POLYLINE
  8
0
 10
0
 20
0
 39
0
 70
1
 66
1
  0
VERTEX
  8
0
 10
1594.6988067626953
 20
462.24684524536133
 42
1
  0
VERTEX
  8
0
 10
1594.6988067626953
 20
484.24684524536133
 42
1
  0
SEQEND
  0
POLYLINE
  8
0
 10
0
 20
0
 39
0
 70
1
 66
1
  0
VERTEX
  8
0
 10
1574.5557746887207
 20
508.18037033081055
 42
1
  0
VERTEX
  8
0
 10
1574.5557746887207
 20
530.18037414550781
 42
1
  0
SEQEND
  0
POLYLINE
  8
0
 10
0
 20
0
 39
0
 70
1
 66
1
  0
VERTEX
  8
0
 10
1643.75
 20
866
 42
-0
  0
VERTEX
  8
0
 10
1643.75
 20
956
 42
-0
  0
VERTEX
  8
0
 10
1713.75
 20
956
 42
-0
  0
VERTEX
  8
0
 10
1713.75
 20
866
 42
-0
  0
SEQEND
  0
POLYLINE
  8
0
 10
0
 20
0
 39
0
 70
1
 66
1
  0
VERTEX
  8
0
 10
1690.4488067626953
 20
877.74684524536133
 42
1
  0
VERTEX
  8
0
 10
1690.4488067626953
 20
899.74684524536133
 42
1
  0
SEQEND
  0
POLYLINE
  8
0
 10
0
 20
0
 39
0
 70
1
 66
1
  0
VERTEX
  8
0
 10
1670.3057746887207
 20
923.68037033081055
 42
1
  0
VERTEX
  8
0
 10
1670.3057746887207
 20
945.68037414550781
 42
1
  0
SEQEND
  0
POLYLINE
  8
0
 10
0
 20
0
 39
0
 70
1
 66
1
  0
VERTEX
  8
0
 10
1644
 20
150.75
 42
-0
  0
VERTEX
  8
0
 10
1644
 20
240.75
 42
-0
  0
VERTEX
  8
0
 10
1714
 20
240.75
 42
-0
  0
VERTEX
  8
0
 10
1714
 20
150.75
 42
-0
  0
SEQEND
  0
POLYLINE
  8
0
 10
0
 20
0
 39
0
 70
1
 66
1
  0
VERTEX
  8
0
 10
1690.6988067626953
 20
162.49684524536133
 42
1
  0
VERTEX
  8
0
 10
1690.6988067626953
 20
184.49684524536133
 42
1
  0
SEQEND
  0
POLYLINE
  8
0
 10
0
 20
0
 39
0
 70
1
 66
1
  0
VERTEX
  8
0
 10
1670.5557746887207
 20
208.43037033081055
 42
1
  0
VERTEX
  8
0
 10
1670.5557746887207
 20
230.43037414550781
 42
1
  0
SEQEND
  0
POLYLINE
  8
0
 10
0
 20
0
 39
0
 70
1
 66
1
  0
VERTEX
  8
0
 10
1736.5
 20
450.5
 42
-0
  0
VERTEX
  8
0
 10
1736.5
 20
540.5
 42
-0
  0
VERTEX
  8
0
 10
1806.5
 20
540.5
 42
-0
  0
VERTEX
  8
0
 10
1806.5
 20
450.5
 42
-0
  0
SEQEND
  0
POLYLINE
  8
0
 10
0
 20
0
 39
0
 70
1
 66
1
  0
VERTEX
  8
0
 10
1783.1988067626953
 20
462.24684524536133
 42
1
  0
VERTEX
  8
0
 10
1783.1988067626953
 20
484.24684524536133
 42
1
  0
SEQEND
  0
POLYLINE
  8
0
 10
0
 20
0
 39
0
 70
1
 66
1
  0
VERTEX
  8
0
 10
1763.0557746887207
 20
508.18037033081055
 42
1
  0
VERTEX
  8
0
 10
1763.0557746887207
 20
530.18037414550781
 42
1
  0
SEQEND
  0
POLYLINE
  8
0
 10
0
 20
0
 39
0
 70
1
 66
1
  0
VERTEX
  8
0
 10
1829
 20
150.75
 42
-0
  0
VERTEX
  8
0
 10
1829
 20
240.75
 42
-0
  0
VERTEX
  8
0
 10
1899
 20
240.75
 42
-0
  0
VERTEX
  8
0
 10
1899
 20
150.75
 42
-0
  0
SEQEND
  0
POLYLINE
  8
0
 10
0
 20
0
 39
0
 70
1
 66
1
  0
VERTEX
  8
0
 10
1875.6988067626953
 20
162.49684524536133
 42
1
  0
VERTEX
  8
0
 10
1875.6988067626953
 20
184.49684524536133
 42
1
  0
SEQEND
  0
POLYLINE
  8
0
 10
0
 20
0
 39
0
 70
1
 66
1
  0
VERTEX
  8
0
 10
1855.5557746887207
 20
208.43037033081055
 42
1
  0
VERTEX
  8
0
 10
1855.5557746887207
 20
230.43037414550781
 42
1
  0
SEQEND
  0
POLYLINE
  8
0
 10
0
 20
0
 39
0
 70
1
 66
1
  0
VERTEX
  8
0
 10
1829.25
 20
864.5
 42
-0
  0
VERTEX
  8
0
 10
1829.25
 20
954.5
 42
-0
  0
VERTEX
  8
0
 10
1899.25
 20
954.5
 42
-0
  0
VERTEX
  8
0
 10
1899.25
 20
864.5
 42
-0
  0
SEQEND
  0
POLYLINE
  8
0
 10
0
 20
0
 39
0
 70
1
 66
1
  0
VERTEX
  8
0
 10
1875.9488067626953
 20
876.24684524536133
 42
1
  0
VERTEX
  8
0
 10
1875.9488067626953
 20
898.24684524536133
 42
1
  0
SEQEND
  0
POLYLINE
  8
0
 10
0
 20
0
 39
0
 70
1
 66
1
  0
VERTEX
  8
0
 10
1855.8057746887207
 20
922.18037033081055
 42
1
  0
VERTEX
  8
0
 10
1855.8057746887207
 20
944.18037414550781
 42
1
  0
SEQEND
  0
POLYLINE
  8
0
 10
0
 20
0
 39
0
 70
1
 66
1
  0
VERTEX
  8
0
 10
1921.75
 20
450.5
 42
-0
  0
VERTEX
  8
0
 10
1921.75
 20
540.5
 42
-0
  0
VERTEX
  8
0
 10
1991.75
 20
540.5
 42
-0
  0
VERTEX
  8
0
 10
1991.75
 20
450.5
 42
-0
  0
SEQEND
  0
POLYLINE
  8
0
 10
0
 20
0
 39
0
 70
1
 66
1
  0
VERTEX
  8
0
 10
1968.4488067626953
 20
462.24684524536133
 42
1
  0
VERTEX
  8
0
 10
1968.4488067626953
 20
484.24684524536133
 42
1
  0
SEQEND
  0
POLYLINE
  8
0
 10
0
 20
0
 39
0
 70
1
 66
1
  0
VERTEX
  8
0
 10
1948.3057746887207
 20
508.18037033081055
 42
1
  0
VERTEX
  8
0
 10
1948.3057746887207
 20
530.18037414550781
 42
1
  0
SEQEND
  0
POLYLINE
  8
0
 10
0
 20
0
 39
0
 70
1
 66
1
  0
VERTEX
  8
0
 10
2108.75
 20
892.75
 42
-0
  0
VERTEX
  8
0
 10
2108.75
 20
982.75
 42
-0
  0
VERTEX
  8
0
 10
2178.75
 20
982.75
 42
-0
  0
VERTEX
  8
0
 10
2178.75
 20
892.75
 42
-0
  0
SEQEND
  0
POLYLINE
  8
0
 10
0
 20
0
 39
0
 70
1
 66
1
  0
VERTEX
  8
0
 10
2155.4488067626953
 20
904.49684524536133
 42
1
  0
VERTEX
  8
0
 10
2155.4488067626953
 20
926.49684524536133
 42
1
  0
SEQEND
  0
POLYLINE
  8
0
 10
0
 20
0
 39
0
 70
1
 66
1
  0
VERTEX
  8
0
 10
2135.3057746887207
 20
950.43037033081055
 42
1
  0
VERTEX
  8
0
 10
2135.3057746887207
 20
972.43037414550781
 42
1
  0
SEQEND
  0
POLYLINE
  8
0
 10
0
 20
0
 39
0
 70
1
 66
1
  0
VERTEX
  8
0
 10
2109
 20
150.75
 42
-0
  0
VERTEX
  8
0
 10
2109
 20
240.75
 42
-0
  0
VERTEX
  8
0
 10
2179
 20
240.75
 42
-0
  0
VERTEX
  8
0
 10
2179
 20
150.75
 42
-0
  0
SEQEND
  0
POLYLINE
  8
0
 10
0
 20
0
 39
0
 70
1
 66
1
  0
VERTEX
  8
0
 10
2155.6988067626953
 20
162.49684524536133
 42
1
  0
VERTEX
  8
0
 10
2155.6988067626953
 20
184.49684524536133
 42
1
  0
SEQEND
  0
POLYLINE
  8
0
 10
0
 20
0
 39
0
 70
1
 66
1
  0
VERTEX
  8
0
 10
2135.5557746887207
 20
208.43037033081055
 42
1
  0
VERTEX
  8
0
 10
2135.5557746887207
 20
230.43037414550781
 42
1
  0
SEQEND
  0
POLYLINE
  8
0
 10
0
 20
0
 39
0
 70
1
 66
1
  0
VERTEX
  8
0
 10
2470.25
 20
651.25
 42
-0
  0
VERTEX
  8
0
 10
2380.25
 20
651.25
 42
-0
  0
VERTEX
  8
0
 10
2380.25
 20
721.25
 42
-0
  0
VERTEX
  8
0
 10
2470.25
 20
721.25
 42
-0
  0
SEQEND
  0
POLYLINE
  8
0
 10
0
 20
0
 39
0
 70
1
 66
1
  0
VERTEX
  8
0
 10
2458.5031547546387
 20
697.94880676269531
 42
1
  0
VERTEX
  8
0
 10
2436.5031547546387
 20
697.94880676269531
 42
1
  0
SEQEND
  0
POLYLINE
  8
0
 10
0
 20
0
 39
0
 70
1
 66
1
  0
VERTEX
  8
0
 10
2412.5696296691895
 20
677.8057746887207
 42
1
  0
VERTEX
  8
0
 10
2390.5696258544922
 20
677.8057746887207
 42
1
  0
SEQEND
  0
POLYLINE
  8
0
 10
0
 20
0
 39
0
 70
1
 66
1
  0
VERTEX
  8
0
 10
1354.25
 20
924
 42
-0
  0
VERTEX
  8
0
 10
1249.25
 20
924
 42
-0
  0
VERTEX
  8
0
 10
1249.25
 20
974
 42
-0
  0
VERTEX
  8
0
 10
1354.25
 20
974
 42
-0
  0
SEQEND
  0
POLYLINE
  8
0
 10
0
 20
0
 39
0
 70
1
 66
1
  0
VERTEX
  8
0
 10
1347.7044525146484
 20
949
 42
1
  0
VERTEX
  8
0
 10
1325.7044525146484
 20
949
 42
1
  0
SEQEND
  0
POLYLINE
  8
0
 10
0
 20
0
 39
0
 70
1
 66
1
  0
VERTEX
  8
0
 10
1277.7955474853516
 20
949
 42
1
  0
VERTEX
  8
0
 10
1255.7955474853516
 20
949
 42
1
  0
SEQEND
  0
POLYLINE
  8
0
 10
0
 20
0
 39
0
 70
1
 66
1
  0
VERTEX
  8
0
 10
1434
 20
538
 42
-0
  0
VERTEX
  8
0
 10
1329
 20
538
 42
-0
  0
VERTEX
  8
0
 10
1329
 20
588
 42
-0
  0
VERTEX
  8
0
 10
1434
 20
588
 42
-0
  0
SEQEND
  0
POLYLINE
  8
0
 10
0
 20
0
 39
0
 70
1
 66
1
  0
VERTEX
  8
0
 10
1427.4544525146484
 20
563
 42
1
  0
VERTEX
  8
0
 10
1405.4544525146484
 20
563
 42
1
  0
SEQEND
  0
POLYLINE
  8
0
 10
0
 20
0
 39
0
 70
1
 66
1
  0
VERTEX
  8
0
 10
1357.5455474853516
 20
563
 42
1
  0
VERTEX
  8
0
 10
1335.5455474853516
 20
563
 42
1
  0
SEQEND
  0
POLYLINE
  8
0
 10
0
 20
0
 39
0
 70
1
 66
1
  0
VERTEX
  8
0
 10
379.5
 20
989.5
 42
0
  0
VERTEX
  8
0
 10
379.5
 20
953.5
 42
0
  0
VERTEX
  8
0
 10
279.5
 20
953.5
 42
0
  0
VERTEX
  8
0
 10
279.5
 20
989.5
 42
0
  0
SEQEND
  0
POLYLINE
  8
0
 10
0
 20
0
 39
0
 70
1
 66
1
  0
VERTEX
  8
0
 10
340.5
 20
971.5
 42
1
  0
VERTEX
  8
0
 10
318.5
 20
971.5
 42
1
  0
SEQEND
  0
POLYLINE
  8
0
 10
0
 20
0
 39
0
 70
1
 66
1
  0
VERTEX
  8
0
 10
432.5
 20
86
 42
0
  0
VERTEX
  8
0
 10
396.5
 20
86
 42
0
  0
VERTEX
  8
0
 10
396.5
 20
186
 42
0
  0
VERTEX
  8
0
 10
432.5
 20
186
 42
0
  0
SEQEND
  0
POLYLINE
  8
0
 10
0
 20
0
 39
0
 70
1
 66
1
  0
VERTEX
  8
0
 10
414.5
 20
125
 42
1
  0
VERTEX
  8
0
 10
414.5
 20
147
 42
1
  0
SEQEND
  0
POLYLINE
  8
0
 10
0
 20
0
 39
0
 70
1
 66
1
  0
VERTEX
  8
0
 10
432.5
 20
196.25
 42
0
  0
VERTEX
  8
0
 10
396.5
 20
196.25
 42
0
  0
VERTEX
  8
0
 10
396.5
 20
296.25
 42
0
  0
VERTEX
  8
0
 10
432.5
 20
296.25
 42
0
  0
SEQEND
  0
POLYLINE
  8
0
 10
0
 20
0
 39
0
 70
1
 66
1
  0
VERTEX
  8
0
 10
414.5
 20
235.25
 42
1
  0
VERTEX
  8
0
 10
414.5
 20
257.25
 42
1
  0
SEQEND
  0
POLYLINE
  8
0
 10
0
 20
0
 39
0
 70
1
 66
1
  0
VERTEX
  8
0
 10
945
 20
86
 42
0
  0
VERTEX
  8
0
 10
909
 20
86
 42
0
  0
VERTEX
  8
0
 10
909
 20
186
 42
0
  0
VERTEX
  8
0
 10
945
 20
186
 42
0
  0
SEQEND
  0
POLYLINE
  8
0
 10
0
 20
0
 39
0
 70
1
 66
1
  0
VERTEX
  8
0
 10
927
 20
125
 42
1
  0
VERTEX
  8
0
 10
927
 20
147
 42
1
  0
SEQEND
  0
POLYLINE
  8
0
 10
0
 20
0
 39
0
 70
1
 66
1
  0
VERTEX
  8
0
 10
945
 20
196.25
 42
0
  0
VERTEX
  8
0
 10
909
 20
196.25
 42
0
  0
VERTEX
  8
0
 10
909
 20
296.25
 42
0
  0
VERTEX
  8
0
 10
945
 20
296.25
 42
0
  0
SEQEND
  0
POLYLINE
  8
0
 10
0
 20
0
 39
0
 70
1
 66
1
  0
VERTEX
  8
0
 10
927
 20
235.25
 42
1
  0
VERTEX
  8
0
 10
927
 20
257.25
 42
1
  0
SEQEND
  0
POLYLINE
  8
0
 10
0
 20
0
 39
0
 70
1
 66
1
  0
VERTEX
  8
0
 10
2332
 20
260.75
 42
0
  0
VERTEX
  8
0
 10
2296
 20
260.75
 42
0
  0
VERTEX
  8
0
 10
2296
 20
360.75
 42
0
  0
VERTEX
  8
0
 10
2332
 20
360.75
 42
0
  0
SEQEND
  0
POLYLINE
  8
0
 10
0
 20
0
 39
0
 70
1
 66
1
  0
VERTEX
  8
0
 10
2314
 20
299.75
 42
1
  0
VERTEX
  8
0
 10
2314
 20
321.75
 42
1
  0
SEQEND
  0
POLYLINE
  8
0
 10
0
 20
0
 39
0
 70
1
 66
1
  0
VERTEX
  8
0
 10
2332
 20
371
 42
0
  0
VERTEX
  8
0
 10
2296
 20
371
 42
0
  0
VERTEX
  8
0
 10
2296
 20
471
 42
0
  0
VERTEX
  8
0
 10
2332
 20
471
 42
0
  0
SEQEND
  0
POLYLINE
  8
0
 10
0
 20
0
 39
0
 70
1
 66
1
  0
VERTEX
  8
0
 10
2314
 20
410
 42
1
  0
VERTEX
  8
0
 10
2314
 20
432
 42
1
  0
SEQEND
  0
POLYLINE
  8
0
 10
0
 20
0
 39
0
 70
1
 66
1
  0
VERTEX
  8
0
 10
2475.5
 20
260.75
 42
0
  0
VERTEX
  8
0
 10
2439.5
 20
260.75
 42
0
  0
VERTEX
  8
0
 10
2439.5
 20
360.75
 42
0
  0
VERTEX
  8
0
 10
2475.5
 20
360.75
 42
0
  0
SEQEND
  0
POLYLINE
  8
0
 10
0
 20
0
 39
0
 70
1
 66
1
  0
VERTEX
  8
0
 10
2457.5
 20
299.75
 42
1
  0
VERTEX
  8
0
 10
2457.5
 20
321.75
 42
1
  0
SEQEND
  0
POLYLINE
  8
0
 10
0
 20
0
 39
0
 70
1
 66
1
  0
VERTEX
  8
0
 10
2475.5
 20
371
 42
0
  0
VERTEX
  8
0
 10
2439.5
 20
371
 42
0
  0
VERTEX
  8
0
 10
2439.5
 20
471
 42
0
  0
VERTEX
  8
0
 10
2475.5
 20
471
 42
0
  0
SEQEND
  0
POLYLINE
  8
0
 10
0
 20
0
 39
0
 70
1
 66
1
  0
VERTEX
  8
0
 10
2457.5
 20
410
 42
1
  0
VERTEX
  8
0
 10
2457.5
 20
432
 42
1
  0
SEQEND
  0
ENDSEC
  0
EOF
