  0
SECTION
  2
ENTITIES
  0
POLYLINE
  8
0
 10
0
 20
0
 39
0
 70
1
 66
1
  0
VERTEX
  8
0
 10
0
 20
0
 42
0
  0
VERTEX
  8
0
 10
2500
 20
0
 42
0
  0
VERTEX
  8
0
 10
2500
 20
1000
 42
0
  0
VERTEX
  8
0
 10
0
 20
1000
 42
0
  0
SEQEND
  0
POLYLINE
  8
0
 10
0
 20
0
 39
0
 70
1
 66
1
  0
VERTEX
  8
0
 10
165.38461303710937
 20
10.384614944458008
 42
0
  0
VERTEX
  8
0
 10
165.38461303710937
 20
545.3846435546875
 42
0
  0
VERTEX
  8
0
 10
10.384614944458008
 20
545.3846435546875
 42
0
  0
VERTEX
  8
0
 10
10.384614944458008
 20
10.384614944458008
 42
0
  0
SEQEND
  0
POLYLINE
  8
0
 10
0
 20
0
 39
0
 70
1
 66
1
  0
VERTEX
  8
0
 10
115.88461303710937
 20
92.034828186035156
 42
-1
  0
VERTEX
  8
0
 10
59.884616851806641
 20
92.034828186035156
 42
-1
  0
SEQEND
  0
POLYLINE
  8
0
 10
0
 20
0
 39
0
 70
1
 66
1
  0
VERTEX
  8
0
 10
115.88461303710937
 20
492.98779296875
 42
-0
  0
VERTEX
  8
0
 10
115.88461303710937
 20
162.0732421875
 42
-0.24306800961494446
  0
VERTEX
  8
0
 10
59.884616851806641
 20
162.0732421875
 42
0
  0
VERTEX
  8
0
 10
59.884616851806641
 20
492.98779296875
 42
-0.24306800961494446
  0
SEQEND
  0
POLYLINE
  8
0
 10
0
 20
0
 39
0
 70
1
 66
1
  0
VERTEX
  8
0
 10
330.76922607421875
 20
10.384614944458008
 42
0
  0
VERTEX
  8
0
 10
330.76922607421875
 20
545.3846435546875
 42
0
  0
VERTEX
  8
0
 10
175.76922607421875
 20
545.3846435546875
 42
0
  0
VERTEX
  8
0
 10
175.76922607421875
 20
10.384614944458008
 42
0
  0
SEQEND
  0
POLYLINE
  8
0
 10
0
 20
0
 39
0
 70
1
 66
1
  0
VERTEX
  8
0
 10
281.26922607421875
 20
92.034828186035156
 42
-1
  0
VERTEX
  8
0
 10
225.26922607421875
 20
92.034828186035156
 42
-1
  0
SEQEND
  0
POLYLINE
  8
0
 10
0
 20
0
 39
0
 70
1
 66
1
  0
VERTEX
  8
0
 10
281.26922607421875
 20
492.98779296875
 42
-0
  0
VERTEX
  8
0
 10
281.26922607421875
 20
162.0732421875
 42
-0.24306800961494446
  0
VERTEX
  8
0
 10
225.26922607421875
 20
162.0732421875
 42
0
  0
VERTEX
  8
0
 10
225.26922607421875
 20
492.98779296875
 42
-0.24306800961494446
  0
SEQEND
  0
POLYLINE
  8
0
 10
0
 20
0
 39
0
 70
1
 66
1
  0
VERTEX
  8
0
 10
496.15383911132812
 20
10.384614944458008
 42
0
  0
VERTEX
  8
0
 10
496.15383911132812
 20
545.3846435546875
 42
0
  0
VERTEX
  8
0
 10
341.15383911132812
 20
545.3846435546875
 42
0
  0
VERTEX
  8
0
 10
341.15383911132812
 20
10.384614944458008
 42
0
  0
SEQEND
  0
POLYLINE
  8
0
 10
0
 20
0
 39
0
 70
1
 66
1
  0
VERTEX
  8
0
 10
446.65383911132812
 20
92.034828186035156
 42
-1
  0
VERTEX
  8
0
 10
390.65383911132812
 20
92.034828186035156
 42
-1
  0
SEQEND
  0
POLYLINE
  8
0
 10
0
 20
0
 39
0
 70
1
 66
1
  0
VERTEX
  8
0
 10
446.65383911132812
 20
492.98779296875
 42
-0
  0
VERTEX
  8
0
 10
446.65383911132812
 20
162.0732421875
 42
-0.24306800961494446
  0
VERTEX
  8
0
 10
390.65383911132812
 20
162.0732421875
 42
0
  0
VERTEX
  8
0
 10
390.65383911132812
 20
492.98779296875
 42
-0.24306800961494446
  0
SEQEND
  0
POLYLINE
  8
0
 10
0
 20
0
 39
0
 70
1
 66
1
  0
VERTEX
  8
0
 10
10.384614944458008
 20
555.576904296875
 42
0
  0
VERTEX
  8
0
 10
545.3846435546875
 20
555.576904296875
 42
0
  0
VERTEX
  8
0
 10
545.3846435546875
 20
710.576904296875
 42
0
  0
VERTEX
  8
0
 10
10.384614944458008
 20
710.576904296875
 42
0
  0
SEQEND
  0
POLYLINE
  8
0
 10
0
 20
0
 39
0
 70
1
 66
1
  0
VERTEX
  8
0
 10
92.034828186035156
 20
605.076904296875
 42
-1
  0
VERTEX
  8
0
 10
92.034828186035156
 20
661.076904296875
 42
-1
  0
SEQEND
  0
POLYLINE
  8
0
 10
0
 20
0
 39
0
 70
1
 66
1
  0
VERTEX
  8
0
 10
492.98779296875
 20
605.076904296875
 42
-0
  0
VERTEX
  8
0
 10
162.0732421875
 20
605.076904296875
 42
-0.24306800961494446
  0
VERTEX
  8
0
 10
162.0732421875
 20
661.076904296875
 42
0
  0
VERTEX
  8
0
 10
492.98779296875
 20
661.076904296875
 42
-0.24306800961494446
  0
SEQEND
  0
POLYLINE
  8
0
 10
0
 20
0
 39
0
 70
1
 66
1
  0
VERTEX
  8
0
 10
10.384614944458008
 20
720.76922607421875
 42
0
  0
VERTEX
  8
0
 10
545.3846435546875
 20
720.76922607421875
 42
0
  0
VERTEX
  8
0
 10
545.3846435546875
 20
875.76922607421875
 42
0
  0
VERTEX
  8
0
 10
10.384614944458008
 20
875.76922607421875
 42
0
  0
SEQEND
  0
POLYLINE
  8
0
 10
0
 20
0
 39
0
 70
1
 66
1
  0
VERTEX
  8
0
 10
92.034828186035156
 20
770.26922607421875
 42
-1
  0
VERTEX
  8
0
 10
92.034828186035156
 20
826.26922607421875
 42
-1
  0
SEQEND
  0
POLYLINE
  8
0
 10
0
 20
0
 39
0
 70
1
 66
1
  0
VERTEX
  8
0
 10
492.98779296875
 20
770.26922607421875
 42
-0
  0
VERTEX
  8
0
 10
162.0732421875
 20
770.26922607421875
 42
-0.24306800961494446
  0
VERTEX
  8
0
 10
162.0732421875
 20
826.26922607421875
 42
0
  0
VERTEX
  8
0
 10
492.98779296875
 20
826.26922607421875
 42
-0.24306800961494446
  0
SEQEND
  0
POLYLINE
  8
0
 10
0
 20
0
 39
0
 70
1
 66
1
  0
VERTEX
  8
0
 10
661.5384521484375
 20
10.384614944458008
 42
0
  0
VERTEX
  8
0
 10
661.5384521484375
 20
545.3846435546875
 42
0
  0
VERTEX
  8
0
 10
506.5384521484375
 20
545.3846435546875
 42
0
  0
VERTEX
  8
0
 10
506.5384521484375
 20
10.384614944458008
 42
0
  0
SEQEND
  0
POLYLINE
  8
0
 10
0
 20
0
 39
0
 70
1
 66
1
  0
VERTEX
  8
0
 10
612.0384521484375
 20
92.034828186035156
 42
-1
  0
VERTEX
  8
0
 10
556.0384521484375
 20
92.034828186035156
 42
-1
  0
SEQEND
  0
POLYLINE
  8
0
 10
0
 20
0
 39
0
 70
1
 66
1
  0
VERTEX
  8
0
 10
612.0384521484375
 20
492.98779296875
 42
-0
  0
VERTEX
  8
0
 10
612.0384521484375
 20
162.0732421875
 42
-0.24306800961494446
  0
VERTEX
  8
0
 10
556.0384521484375
 20
162.0732421875
 42
0
  0
VERTEX
  8
0
 10
556.0384521484375
 20
492.98779296875
 42
-0.24306800961494446
  0
SEQEND
  0
POLYLINE
  8
0
 10
0
 20
0
 39
0
 70
1
 66
1
  0
VERTEX
  8
0
 10
831.923095703125
 20
500.38461303710938
 42
0
  0
VERTEX
  8
0
 10
671.923095703125
 20
500.38461303710938
 42
0
  0
VERTEX
  8
0
 10
671.923095703125
 20
10.384614944458008
 42
0
  0
VERTEX
  8
0
 10
831.923095703125
 20
10.384614944458008
 42
0
  0
SEQEND
  0
POLYLINE
  8
0
 10
0
 20
0
 39
0
 70
1
 66
1
  0
VERTEX
  8
0
 10
741.923095703125
 20
20.384614944458008
 42
-1
  0
VERTEX
  8
0
 10
741.923095703125
 20
70.384613037109375
 42
0
  0
VERTEX
  8
0
 10
761.923095703125
 20
70.384613037109375
 42
-1
  0
VERTEX
  8
0
 10
761.923095703125
 20
20.384614944458008
 42
-0
  0
SEQEND
  0
POLYLINE
  8
0
 10
0
 20
0
 39
0
 70
1
 66
1
  0
VERTEX
  8
0
 10
1002.3076782226562
 20
500.38461303710938
 42
0
  0
VERTEX
  8
0
 10
842.30767822265625
 20
500.38461303710938
 42
0
  0
VERTEX
  8
0
 10
842.30767822265625
 20
10.384614944458008
 42
0
  0
VERTEX
  8
0
 10
1002.3076782226562
 20
10.384614944458008
 42
0
  0
SEQEND
  0
POLYLINE
  8
0
 10
0
 20
0
 39
0
 70
1
 66
1
  0
VERTEX
  8
0
 10
912.30767822265625
 20
20.384614944458008
 42
-1
  0
VERTEX
  8
0
 10
912.30767822265625
 20
70.384613037109375
 42
0
  0
VERTEX
  8
0
 10
932.30767822265625
 20
70.384613037109375
 42
-1
  0
VERTEX
  8
0
 10
932.30767822265625
 20
20.384614944458008
 42
-0
  0
SEQEND
  0
POLYLINE
  8
0
 10
0
 20
0
 39
0
 70
1
 66
1
  0
VERTEX
  8
0
 10
555.76922607421875
 20
715.576904296875
 42
0
  0
VERTEX
  8
0
 10
555.76922607421875
 20
555.576904296875
 42
0
  0
VERTEX
  8
0
 10
1045.769287109375
 20
555.576904296875
 42
0
  0
VERTEX
  8
0
 10
1045.769287109375
 20
715.576904296875
 42
0
  0
SEQEND
  0
POLYLINE
  8
0
 10
0
 20
0
 39
0
 70
1
 66
1
  0
VERTEX
  8
0
 10
1035.769287109375
 20
625.576904296875
 42
-1
  0
VERTEX
  8
0
 10
985.76922607421875
 20
625.576904296875
 42
0
  0
VERTEX
  8
0
 10
985.76922607421875
 20
645.576904296875
 42
-1
  0
VERTEX
  8
0
 10
1035.769287109375
 20
645.576904296875
 42
-0
  0
SEQEND
  0
POLYLINE
  8
0
 10
0
 20
0
 39
0
 70
1
 66
1
  0
VERTEX
  8
0
 10
555.76922607421875
 20
885.76922607421875
 42
0
  0
VERTEX
  8
0
 10
555.76922607421875
 20
725.76922607421875
 42
0
  0
VERTEX
  8
0
 10
1045.769287109375
 20
725.76922607421875
 42
0
  0
VERTEX
  8
0
 10
1045.769287109375
 20
885.76922607421875
 42
0
  0
SEQEND
  0
POLYLINE
  8
0
 10
0
 20
0
 39
0
 70
1
 66
1
  0
VERTEX
  8
0
 10
1035.769287109375
 20
795.76922607421875
 42
-1
  0
VERTEX
  8
0
 10
985.76922607421875
 20
795.76922607421875
 42
0
  0
VERTEX
  8
0
 10
985.76922607421875
 20
815.76922607421875
 42
-1
  0
VERTEX
  8
0
 10
1035.769287109375
 20
815.76922607421875
 42
-0
  0
SEQEND
  0
POLYLINE
  8
0
 10
0
 20
0
 39
0
 70
1
 66
1
  0
VERTEX
  8
0
 10
1172.6922607421875
 20
500.38461303710938
 42
0
  0
VERTEX
  8
0
 10
1012.6923217773437
 20
500.38461303710938
 42
0
  0
VERTEX
  8
0
 10
1012.6923217773437
 20
10.384614944458008
 42
0
  0
VERTEX
  8
0
 10
1172.6922607421875
 20
10.384614944458008
 42
0
  0
SEQEND
  0
POLYLINE
  8
0
 10
0
 20
0
 39
0
 70
1
 66
1
  0
VERTEX
  8
0
 10
1082.6922607421875
 20
20.384614944458008
 42
-1
  0
VERTEX
  8
0
 10
1082.6922607421875
 20
70.384613037109375
 42
0
  0
VERTEX
  8
0
 10
1102.6922607421875
 20
70.384613037109375
 42
-1
  0
VERTEX
  8
0
 10
1102.6922607421875
 20
20.384614944458008
 42
-0
  0
SEQEND
  0
POLYLINE
  8
0
 10
0
 20
0
 39
0
 70
1
 66
1
  0
VERTEX
  8
0
 10
1343.076904296875
 20
500.38461303710938
 42
0
  0
VERTEX
  8
0
 10
1183.076904296875
 20
500.38461303710938
 42
0
  0
VERTEX
  8
0
 10
1183.076904296875
 20
10.384614944458008
 42
0
  0
VERTEX
  8
0
 10
1343.076904296875
 20
10.384614944458008
 42
0
  0
SEQEND
  0
POLYLINE
  8
0
 10
0
 20
0
 39
0
 70
1
 66
1
  0
VERTEX
  8
0
 10
1253.076904296875
 20
20.384614944458008
 42
-1
  0
VERTEX
  8
0
 10
1253.076904296875
 20
70.384613037109375
 42
0
  0
VERTEX
  8
0
 10
1273.076904296875
 20
70.384613037109375
 42
-1
  0
VERTEX
  8
0
 10
1273.076904296875
 20
20.384614944458008
 42
-0
  0
SEQEND
  0
POLYLINE
  8
0
 10
0
 20
0
 39
0
 70
1
 66
1
  0
VERTEX
  8
0
 10
1056.15380859375
 20
510.57693481445312
 42
0
  0
VERTEX
  8
0
 10
1243.15380859375
 20
510.57693481445312
 42
0
  0
VERTEX
  8
0
 10
1253.15380859375
 20
520.576904296875
 42
0
  0
VERTEX
  8
0
 10
1253.15380859375
 20
790.576904296875
 42
0
  0
VERTEX
  8
0
 10
1243.15380859375
 20
800.576904296875
 42
0
  0
VERTEX
  8
0
 10
1056.15380859375
 20
800.576904296875
 42
0
  0
SEQEND
  0
POLYLINE
  8
0
 10
0
 20
0
 39
0
 70
1
 66
1
  0
VERTEX
  8
0
 10
1188.15380859375
 20
640.076904296875
 42
-1
  0
VERTEX
  8
0
 10
1188.15380859375
 20
671.076904296875
 42
-1
  0
SEQEND
  0
POLYLINE
  8
0
 10
0
 20
0
 39
0
 70
1
 66
1
  0
VERTEX
  8
0
 10
1263.4615478515625
 20
510.57693481445312
 42
0
  0
VERTEX
  8
0
 10
1450.4615478515625
 20
510.57693481445312
 42
0
  0
VERTEX
  8
0
 10
1460.4615478515625
 20
520.576904296875
 42
0
  0
VERTEX
  8
0
 10
1460.4615478515625
 20
790.576904296875
 42
0
  0
VERTEX
  8
0
 10
1450.4615478515625
 20
800.576904296875
 42
0
  0
VERTEX
  8
0
 10
1263.4615478515625
 20
800.576904296875
 42
0
  0
SEQEND
  0
POLYLINE
  8
0
 10
0
 20
0
 39
0
 70
1
 66
1
  0
VERTEX
  8
0
 10
1395.4615478515625
 20
640.076904296875
 42
-1
  0
VERTEX
  8
0
 10
1395.4615478515625
 20
671.076904296875
 42
-1
  0
SEQEND
  0
POLYLINE
  8
0
 10
0
 20
0
 39
0
 70
1
 66
1
  0
VERTEX
  8
0
 10
1353.4615478515625
 20
10.384614944458008
 42
0
  0
VERTEX
  8
0
 10
1540.4615478515625
 20
10.384614944458008
 42
0
  0
VERTEX
  8
0
 10
1550.4615478515625
 20
20.384614944458008
 42
0
  0
VERTEX
  8
0
 10
1550.4615478515625
 20
290.38461303710938
 42
0
  0
VERTEX
  8
0
 10
1540.4615478515625
 20
300.38461303710937
 42
0
  0
VERTEX
  8
0
 10
1353.4615478515625
 20
300.38461303710937
 42
0
  0
SEQEND
  0
POLYLINE
  8
0
 10
0
 20
0
 39
0
 70
1
 66
1
  0
VERTEX
  8
0
 10
1485.4615478515625
 20
139.88461303710937
 42
-1
  0
VERTEX
  8
0
 10
1485.4615478515625
 20
170.88461303710937
 42
-1
  0
SEQEND
  0
POLYLINE
  8
0
 10
0
 20
0
 39
0
 70
1
 66
1
  0
VERTEX
  8
0
 10
1470.769287109375
 20
310.57693481445312
 42
0
  0
VERTEX
  8
0
 10
1657.769287109375
 20
310.57693481445312
 42
0
  0
VERTEX
  8
0
 10
1667.769287109375
 20
320.57693481445312
 42
0
  0
VERTEX
  8
0
 10
1667.769287109375
 20
590.576904296875
 42
0
  0
VERTEX
  8
0
 10
1657.769287109375
 20
600.576904296875
 42
0
  0
VERTEX
  8
0
 10
1470.769287109375
 20
600.576904296875
 42
0
  0
SEQEND
  0
POLYLINE
  8
0
 10
0
 20
0
 39
0
 70
1
 66
1
  0
VERTEX
  8
0
 10
1602.769287109375
 20
440.07693481445312
 42
-1
  0
VERTEX
  8
0
 10
1602.769287109375
 20
471.07693481445312
 42
-1
  0
SEQEND
  0
POLYLINE
  8
0
 10
0
 20
0
 39
0
 70
1
 66
1
  0
VERTEX
  8
0
 10
1470.769287109375
 20
610.76922607421875
 42
0
  0
VERTEX
  8
0
 10
1657.769287109375
 20
610.76922607421875
 42
0
  0
VERTEX
  8
0
 10
1667.769287109375
 20
620.76922607421875
 42
0
  0
VERTEX
  8
0
 10
1667.769287109375
 20
890.76922607421875
 42
0
  0
VERTEX
  8
0
 10
1657.769287109375
 20
900.76922607421875
 42
0
  0
VERTEX
  8
0
 10
1470.769287109375
 20
900.76922607421875
 42
0
  0
SEQEND
  0
POLYLINE
  8
0
 10
0
 20
0
 39
0
 70
1
 66
1
  0
VERTEX
  8
0
 10
1602.769287109375
 20
740.26922607421875
 42
-1
  0
VERTEX
  8
0
 10
1602.769287109375
 20
771.26922607421875
 42
-1
  0
SEQEND
  0
POLYLINE
  8
0
 10
0
 20
0
 39
0
 70
1
 66
1
  0
VERTEX
  8
0
 10
1560.769287109375
 20
10.384614944458008
 42
0
  0
VERTEX
  8
0
 10
1747.769287109375
 20
10.384614944458008
 42
0
  0
VERTEX
  8
0
 10
1757.769287109375
 20
20.384614944458008
 42
0
  0
VERTEX
  8
0
 10
1757.769287109375
 20
290.38461303710938
 42
0
  0
VERTEX
  8
0
 10
1747.769287109375
 20
300.38461303710937
 42
0
  0
VERTEX
  8
0
 10
1560.769287109375
 20
300.38461303710937
 42
0
  0
SEQEND
  0
POLYLINE
  8
0
 10
0
 20
0
 39
0
 70
1
 66
1
  0
VERTEX
  8
0
 10
1692.769287109375
 20
139.88461303710937
 42
-1
  0
VERTEX
  8
0
 10
1692.769287109375
 20
170.88461303710937
 42
-1
  0
SEQEND
  0
POLYLINE
  8
0
 10
0
 20
0
 39
0
 70
1
 66
1
  0
VERTEX
  8
0
 10
1678.076904296875
 20
310.57693481445312
 42
0
  0
VERTEX
  8
0
 10
1865.076904296875
 20
310.57693481445312
 42
0
  0
VERTEX
  8
0
 10
1875.076904296875
 20
320.57693481445312
 42
0
  0
VERTEX
  8
0
 10
1875.076904296875
 20
590.576904296875
 42
0
  0
VERTEX
  8
0
 10
1865.076904296875
 20
600.576904296875
 42
0
  0
VERTEX
  8
0
 10
1678.076904296875
 20
600.576904296875
 42
0
  0
SEQEND
  0
POLYLINE
  8
0
 10
0
 20
0
 39
0
 70
1
 66
1
  0
VERTEX
  8
0
 10
1810.076904296875
 20
440.07693481445312
 42
-1
  0
VERTEX
  8
0
 10
1810.076904296875
 20
471.07693481445312
 42
-1
  0
SEQEND
  0
POLYLINE
  8
0
 10
0
 20
0
 39
0
 70
1
 66
1
  0
VERTEX
  8
0
 10
1678.076904296875
 20
610.76922607421875
 42
0
  0
VERTEX
  8
0
 10
1865.076904296875
 20
610.76922607421875
 42
0
  0
VERTEX
  8
0
 10
1875.076904296875
 20
620.76922607421875
 42
0
  0
VERTEX
  8
0
 10
1875.076904296875
 20
890.76922607421875
 42
0
  0
VERTEX
  8
0
 10
1865.076904296875
 20
900.76922607421875
 42
0
  0
VERTEX
  8
0
 10
1678.076904296875
 20
900.76922607421875
 42
0
  0
SEQEND
  0
POLYLINE
  8
0
 10
0
 20
0
 39
0
 70
1
 66
1
  0
VERTEX
  8
0
 10
1810.076904296875
 20
740.26922607421875
 42
-1
  0
VERTEX
  8
0
 10
1810.076904296875
 20
771.26922607421875
 42
-1
  0
SEQEND
  0
POLYLINE
  8
0
 10
0
 20
0
 39
0
 70
1
 66
1
  0
VERTEX
  8
0
 10
1768.076904296875
 20
10.384614944458008
 42
0
  0
VERTEX
  8
0
 10
1955.076904296875
 20
10.384614944458008
 42
0
  0
VERTEX
  8
0
 10
1965.076904296875
 20
20.384614944458008
 42
0
  0
VERTEX
  8
0
 10
1965.076904296875
 20
290.38461303710938
 42
0
  0
VERTEX
  8
0
 10
1955.076904296875
 20
300.38461303710937
 42
0
  0
VERTEX
  8
0
 10
1768.076904296875
 20
300.38461303710937
 42
0
  0
SEQEND
  0
POLYLINE
  8
0
 10
0
 20
0
 39
0
 70
1
 66
1
  0
VERTEX
  8
0
 10
1900.076904296875
 20
139.88461303710937
 42
-1
  0
VERTEX
  8
0
 10
1900.076904296875
 20
170.88461303710937
 42
-1
  0
SEQEND
  0
POLYLINE
  8
0
 10
0
 20
0
 39
0
 70
1
 66
1
  0
VERTEX
  8
0
 10
1017.3076782226562
 20
989.6153564453125
 42
-0
  0
VERTEX
  8
0
 10
1012.3076782226562
 20
984.6153564453125
 42
0
  0
VERTEX
  8
0
 10
1012.3076782226562
 20
929.6153564453125
 42
0
  0
VERTEX
  8
0
 10
1102.3077392578125
 20
849.6153564453125
 42
0
  0
VERTEX
  8
0
 10
1214.3077392578125
 20
849.6153564453125
 42
-0
  0
VERTEX
  8
0
 10
1269.3077392578125
 20
904.6153564453125
 42
0
  0
VERTEX
  8
0
 10
1269.3077392578125
 20
939.6153564453125
 42
-0
  0
VERTEX
  8
0
 10
1260.3077392578125
 20
939.6153564453125
 42
-0
  0
VERTEX
  8
0
 10
1256.2498779296875
 20
935.5576171875
 42
-0.8055649995803833
  0
VERTEX
  8
0
 10
1089.614013671875
 20
957.36322021484375
 42
0
  0
VERTEX
  8
0
 10
1087.3077392578125
 20
984.6153564453125
 42
0
  0
VERTEX
  8
0
 10
1082.3077392578125
 20
989.6153564453125
 42
0
  0
SEQEND
  0
POLYLINE
  8
0
 10
0
 20
0
 39
0
 70
1
 66
1
  0
VERTEX
  8
0
 10
1083.3077392578125
 20
977.6153564453125
 42
-1
  0
VERTEX
  8
0
 10
1071.3077392578125
 20
977.6153564453125
 42
-1
  0
SEQEND
  0
POLYLINE
  8
0
 10
0
 20
0
 39
0
 70
1
 66
1
  0
VERTEX
  8
0
 10
1388.729736328125
 20
849.6153564453125
 42
-0
  0
VERTEX
  8
0
 10
1393.729736328125
 20
854.6153564453125
 42
0
  0
VERTEX
  8
0
 10
1393.729736328125
 20
909.6153564453125
 42
0
  0
VERTEX
  8
0
 10
1303.729736328125
 20
989.6153564453125
 42
0
  0
VERTEX
  8
0
 10
1191.729736328125
 20
989.6153564453125
 42
-0
  0
VERTEX
  8
0
 10
1136.729736328125
 20
934.6153564453125
 42
0
  0
VERTEX
  8
0
 10
1136.729736328125
 20
899.6153564453125
 42
-0
  0
VERTEX
  8
0
 10
1145.729736328125
 20
899.6153564453125
 42
-0
  0
VERTEX
  8
0
 10
1149.7874755859375
 20
903.67315673828125
 42
-0.8055649995803833
  0
VERTEX
  8
0
 10
1316.42333984375
 20
881.8675537109375
 42
0
  0
VERTEX
  8
0
 10
1318.729736328125
 20
854.6153564453125
 42
0
  0
VERTEX
  8
0
 10
1323.729736328125
 20
849.6153564453125
 42
0
  0
SEQEND
  0
POLYLINE
  8
0
 10
0
 20
0
 39
0
 70
1
 66
1
  0
VERTEX
  8
0
 10
1322.729736328125
 20
861.6153564453125
 42
-1
  0
VERTEX
  8
0
 10
1334.729736328125
 20
861.6153564453125
 42
-1
  0
SEQEND
  0
POLYLINE
  8
0
 10
0
 20
0
 39
0
 70
1
 66
1
  0
VERTEX
  8
0
 10
2025.3846435546875
 20
686.9989013671875
 42
-0
  0
VERTEX
  8
0
 10
2020.3846435546875
 20
691.9989013671875
 42
0
  0
VERTEX
  8
0
 10
1965.3846435546875
 20
691.9989013671875
 42
0
  0
VERTEX
  8
0
 10
1885.3846435546875
 20
601.9989013671875
 42
0
  0
VERTEX
  8
0
 10
1885.3846435546875
 20
489.99893188476562
 42
-0
  0
VERTEX
  8
0
 10
1940.3846435546875
 20
434.99893188476562
 42
0
  0
VERTEX
  8
0
 10
1975.3846435546875
 20
434.99893188476562
 42
-0
  0
VERTEX
  8
0
 10
1975.3846435546875
 20
443.99893188476562
 42
-0
  0
VERTEX
  8
0
 10
1971.326904296875
 20
448.05667114257812
 42
-0.8055649995803833
  0
VERTEX
  8
0
 10
1993.1324462890625
 20
614.692626953125
 42
0
  0
VERTEX
  8
0
 10
2020.3846435546875
 20
616.9989013671875
 42
0
  0
VERTEX
  8
0
 10
2025.3846435546875
 20
621.9989013671875
 42
0
  0
SEQEND
  0
POLYLINE
  8
0
 10
0
 20
0
 39
0
 70
1
 66
1
  0
VERTEX
  8
0
 10
2013.3846435546875
 20
620.9989013671875
 42
-1
  0
VERTEX
  8
0
 10
2013.3846435546875
 20
632.9989013671875
 42
-1
  0
SEQEND
  0
POLYLINE
  8
0
 10
0
 20
0
 39
0
 70
1
 66
1
  0
VERTEX
  8
0
 10
1885.3846435546875
 20
315.57693481445312
 42
-0
  0
VERTEX
  8
0
 10
1890.3846435546875
 20
310.57693481445312
 42
0
  0
VERTEX
  8
0
 10
1945.3846435546875
 20
310.57693481445312
 42
0
  0
VERTEX
  8
0
 10
2025.3846435546875
 20
400.57693481445312
 42
0
  0
VERTEX
  8
0
 10
2025.3846435546875
 20
512.576904296875
 42
-0
  0
VERTEX
  8
0
 10
1970.3846435546875
 20
567.576904296875
 42
0
  0
VERTEX
  8
0
 10
1935.3846435546875
 20
567.576904296875
 42
-0
  0
VERTEX
  8
0
 10
1935.3846435546875
 20
558.576904296875
 42
-0
  0
VERTEX
  8
0
 10
1939.4423828125
 20
554.5191650390625
 42
-0.8055649995803833
  0
VERTEX
  8
0
 10
1917.6368408203125
 20
387.88323974609375
 42
0
  0
VERTEX
  8
0
 10
1890.3846435546875
 20
385.57693481445312
 42
0
  0
VERTEX
  8
0
 10
1885.3846435546875
 20
380.57693481445312
 42
0
  0
SEQEND
  0
POLYLINE
  8
0
 10
0
 20
0
 39
0
 70
1
 66
1
  0
VERTEX
  8
0
 10
1897.3846435546875
 20
381.57693481445312
 42
-1
  0
VERTEX
  8
0
 10
1897.3846435546875
 20
369.57693481445312
 42
-1
  0
SEQEND
  0
POLYLINE
  8
0
 10
0
 20
0
 39
0
 70
1
 66
1
  0
VERTEX
  8
0
 10
2115.384521484375
 20
386.80661010742187
 42
-0
  0
VERTEX
  8
0
 10
2110.384521484375
 20
391.80661010742187
 42
0
  0
VERTEX
  8
0
 10
2055.384521484375
 20
391.80661010742187
 42
0
  0
VERTEX
  8
0
 10
1975.3846435546875
 20
301.80661010742188
 42
0
  0
VERTEX
  8
0
 10
1975.3846435546875
 20
189.80661010742187
 42
-0
  0
VERTEX
  8
0
 10
2030.3846435546875
 20
134.80661010742187
 42
0
  0
VERTEX
  8
0
 10
2065.384521484375
 20
134.80661010742187
 42
-0
  0
VERTEX
  8
0
 10
2065.384521484375
 20
143.80661010742187
 42
-0
  0
VERTEX
  8
0
 10
2061.326904296875
 20
147.86436462402344
 42
-0.8055649995803833
  0
VERTEX
  8
0
 10
2083.13232421875
 20
314.50030517578125
 42
0
  0
VERTEX
  8
0
 10
2110.384521484375
 20
316.80661010742187
 42
0
  0
VERTEX
  8
0
 10
2115.384521484375
 20
321.80661010742188
 42
0
  0
SEQEND
  0
POLYLINE
  8
0
 10
0
 20
0
 39
0
 70
1
 66
1
  0
VERTEX
  8
0
 10
2103.384521484375
 20
320.80661010742187
 42
-1
  0
VERTEX
  8
0
 10
2103.384521484375
 20
332.80661010742188
 42
-1
  0
SEQEND
  0
POLYLINE
  8
0
 10
0
 20
0
 39
0
 70
1
 66
1
  0
VERTEX
  8
0
 10
1975.3846435546875
 20
15.384614944458008
 42
-0
  0
VERTEX
  8
0
 10
1980.3846435546875
 20
10.384614944458008
 42
0
  0
VERTEX
  8
0
 10
2035.3846435546875
 20
10.384614944458008
 42
0
  0
VERTEX
  8
0
 10
2115.384521484375
 20
100.38461303710937
 42
0
  0
VERTEX
  8
0
 10
2115.384521484375
 20
212.38461303710937
 42
-0
  0
VERTEX
  8
0
 10
2060.384521484375
 20
267.38461303710937
 42
0
  0
VERTEX
  8
0
 10
2025.3846435546875
 20
267.38461303710937
 42
-0
  0
VERTEX
  8
0
 10
2025.3846435546875
 20
258.38461303710937
 42
-0
  0
VERTEX
  8
0
 10
2029.4423828125
 20
254.32685852050781
 42
-0.8055649995803833
  0
VERTEX
  8
0
 10
2007.6368408203125
 20
87.690933227539062
 42
0
  0
VERTEX
  8
0
 10
1980.3846435546875
 20
85.384613037109375
 42
0
  0
VERTEX
  8
0
 10
1975.3846435546875
 20
80.384613037109375
 42
0
  0
SEQEND
  0
POLYLINE
  8
0
 10
0
 20
0
 39
0
 70
1
 66
1
  0
VERTEX
  8
0
 10
1987.3846435546875
 20
81.384613037109375
 42
-1
  0
VERTEX
  8
0
 10
1987.3846435546875
 20
69.384613037109375
 42
-1
  0
SEQEND
  0
POLYLINE
  8
0
 10
0
 20
0
 39
0
 70
1
 66
1
  0
VERTEX
  8
0
 10
2156.53857421875
 20
907.76812744140625
 42
-0
  0
VERTEX
  8
0
 10
2151.53857421875
 20
912.76812744140625
 42
0
  0
VERTEX
  8
0
 10
2096.53857421875
 20
912.76812744140625
 42
0
  0
VERTEX
  8
0
 10
2016.5384521484375
 20
822.76812744140625
 42
0
  0
VERTEX
  8
0
 10
2016.5384521484375
 20
710.76812744140625
 42
-0
  0
VERTEX
  8
0
 10
2071.53857421875
 20
655.76812744140625
 42
0
  0
VERTEX
  8
0
 10
2106.53857421875
 20
655.76812744140625
 42
-0
  0
VERTEX
  8
0
 10
2106.53857421875
 20
664.76812744140625
 42
-0
  0
VERTEX
  8
0
 10
2102.480712890625
 20
668.825927734375
 42
-0.8055649995803833
  0
VERTEX
  8
0
 10
2124.286376953125
 20
835.46185302734375
 42
0
  0
VERTEX
  8
0
 10
2151.53857421875
 20
837.76812744140625
 42
0
  0
VERTEX
  8
0
 10
2156.53857421875
 20
842.76812744140625
 42
0
  0
SEQEND
  0
POLYLINE
  8
0
 10
0
 20
0
 39
0
 70
1
 66
1
  0
VERTEX
  8
0
 10
2144.53857421875
 20
841.76812744140625
 42
-1
  0
VERTEX
  8
0
 10
2144.53857421875
 20
853.76812744140625
 42
-1
  0
SEQEND
  0
POLYLINE
  8
0
 10
0
 20
0
 39
0
 70
1
 66
1
  0
VERTEX
  8
0
 10
2016.5384521484375
 20
536.34613037109375
 42
-0
  0
VERTEX
  8
0
 10
2021.5384521484375
 20
531.34613037109375
 42
0
  0
VERTEX
  8
0
 10
2076.53857421875
 20
531.34613037109375
 42
0
  0
VERTEX
  8
0
 10
2156.53857421875
 20
621.34613037109375
 42
0
  0
VERTEX
  8
0
 10
2156.53857421875
 20
733.34613037109375
 42
-0
  0
VERTEX
  8
0
 10
2101.53857421875
 20
788.34613037109375
 42
0
  0
VERTEX
  8
0
 10
2066.53857421875
 20
788.34613037109375
 42
-0
  0
VERTEX
  8
0
 10
2066.53857421875
 20
779.34613037109375
 42
-0
  0
VERTEX
  8
0
 10
2070.59619140625
 20
775.28839111328125
 42
-0.8055649995803833
  0
VERTEX
  8
0
 10
2048.790771484375
 20
608.6524658203125
 42
0
  0
VERTEX
  8
0
 10
2021.5384521484375
 20
606.34613037109375
 42
0
  0
VERTEX
  8
0
 10
2016.5384521484375
 20
601.34613037109375
 42
0
  0
SEQEND
  0
POLYLINE
  8
0
 10
0
 20
0
 39
0
 70
1
 66
1
  0
VERTEX
  8
0
 10
2028.5384521484375
 20
602.34613037109375
 42
-1
  0
VERTEX
  8
0
 10
2028.5384521484375
 20
590.34613037109375
 42
-1
  0
SEQEND
  0
POLYLINE
  8
0
 10
0
 20
0
 39
0
 70
1
 66
1
  0
VERTEX
  8
0
 10
2246.53857421875
 20
607.57586669921875
 42
-0
  0
VERTEX
  8
0
 10
2241.53857421875
 20
612.57586669921875
 42
0
  0
VERTEX
  8
0
 10
2186.53857421875
 20
612.57586669921875
 42
0
  0
VERTEX
  8
0
 10
2106.53857421875
 20
522.57586669921875
 42
0
  0
VERTEX
  8
0
 10
2106.53857421875
 20
410.57583618164062
 42
-0
  0
VERTEX
  8
0
 10
2161.53857421875
 20
355.57583618164062
 42
0
  0
VERTEX
  8
0
 10
2196.53857421875
 20
355.57583618164062
 42
-0
  0
VERTEX
  8
0
 10
2196.53857421875
 20
364.57583618164062
 42
-0
  0
VERTEX
  8
0
 10
2192.480712890625
 20
368.63360595703125
 42
-0.8055649995803833
  0
VERTEX
  8
0
 10
2214.286376953125
 20
535.26953125
 42
0
  0
VERTEX
  8
0
 10
2241.53857421875
 20
537.57586669921875
 42
0
  0
VERTEX
  8
0
 10
2246.53857421875
 20
542.57586669921875
 42
0
  0
SEQEND
  0
POLYLINE
  8
0
 10
0
 20
0
 39
0
 70
1
 66
1
  0
VERTEX
  8
0
 10
2234.53857421875
 20
541.57586669921875
 42
-1
  0
VERTEX
  8
0
 10
2234.53857421875
 20
553.57586669921875
 42
-1
  0
SEQEND
  0
POLYLINE
  8
0
 10
0
 20
0
 39
0
 70
1
 66
1
  0
VERTEX
  8
0
 10
2106.53857421875
 20
236.15383911132812
 42
-0
  0
VERTEX
  8
0
 10
2111.53857421875
 20
231.15383911132812
 42
0
  0
VERTEX
  8
0
 10
2166.53857421875
 20
231.15383911132812
 42
0
  0
VERTEX
  8
0
 10
2246.53857421875
 20
321.15383911132812
 42
0
  0
VERTEX
  8
0
 10
2246.53857421875
 20
433.15383911132812
 42
-0
  0
VERTEX
  8
0
 10
2191.53857421875
 20
488.15383911132812
 42
0
  0
VERTEX
  8
0
 10
2156.53857421875
 20
488.15383911132812
 42
-0
  0
VERTEX
  8
0
 10
2156.53857421875
 20
479.15383911132812
 42
-0
  0
VERTEX
  8
0
 10
2160.59619140625
 20
475.09609985351562
 42
-0.8055649995803833
  0
VERTEX
  8
0
 10
2138.790771484375
 20
308.46017456054687
 42
0
  0
VERTEX
  8
0
 10
2111.53857421875
 20
306.15383911132812
 42
0
  0
VERTEX
  8
0
 10
2106.53857421875
 20
301.15383911132812
 42
0
  0
SEQEND
  0
POLYLINE
  8
0
 10
0
 20
0
 39
0
 70
1
 66
1
  0
VERTEX
  8
0
 10
2118.53857421875
 20
302.15383911132812
 42
-1
  0
VERTEX
  8
0
 10
2118.53857421875
 20
290.15383911132812
 42
-1
  0
SEQEND
  0
POLYLINE
  8
0
 10
0
 20
0
 39
0
 70
1
 66
1
  0
VERTEX
  8
0
 10
2377.6923828125
 20
828.3450927734375
 42
-0
  0
VERTEX
  8
0
 10
2372.6923828125
 20
833.3450927734375
 42
0
  0
VERTEX
  8
0
 10
2317.6923828125
 20
833.3450927734375
 42
0
  0
VERTEX
  8
0
 10
2237.6923828125
 20
743.3450927734375
 42
0
  0
VERTEX
  8
0
 10
2237.6923828125
 20
631.3450927734375
 42
-0
  0
VERTEX
  8
0
 10
2292.6923828125
 20
576.3450927734375
 42
0
  0
VERTEX
  8
0
 10
2327.6923828125
 20
576.3450927734375
 42
-0
  0
VERTEX
  8
0
 10
2327.6923828125
 20
585.3450927734375
 42
-0
  0
VERTEX
  8
0
 10
2323.634521484375
 20
589.40283203125
 42
-0.8055649995803833
  0
VERTEX
  8
0
 10
2345.440185546875
 20
756.03875732421875
 42
0
  0
VERTEX
  8
0
 10
2372.6923828125
 20
758.3450927734375
 42
0
  0
VERTEX
  8
0
 10
2377.6923828125
 20
763.3450927734375
 42
0
  0
SEQEND
  0
POLYLINE
  8
0
 10
0
 20
0
 39
0
 70
1
 66
1
  0
VERTEX
  8
0
 10
2365.6923828125
 20
762.3450927734375
 42
-1
  0
VERTEX
  8
0
 10
2365.6923828125
 20
774.3450927734375
 42
-1
  0
SEQEND
  0
POLYLINE
  8
0
 10
0
 20
0
 39
0
 70
1
 66
1
  0
VERTEX
  8
0
 10
2237.6923828125
 20
456.92306518554687
 42
-0
  0
VERTEX
  8
0
 10
2242.6923828125
 20
451.92306518554687
 42
0
  0
VERTEX
  8
0
 10
2297.6923828125
 20
451.92306518554687
 42
0
  0
VERTEX
  8
0
 10
2377.6923828125
 20
541.923095703125
 42
0
  0
VERTEX
  8
0
 10
2377.6923828125
 20
653.923095703125
 42
-0
  0
VERTEX
  8
0
 10
2322.6923828125
 20
708.923095703125
 42
0
  0
VERTEX
  8
0
 10
2287.6923828125
 20
708.923095703125
 42
-0
  0
VERTEX
  8
0
 10
2287.6923828125
 20
699.923095703125
 42
-0
  0
VERTEX
  8
0
 10
2291.75
 20
695.86529541015625
 42
-0.8055649995803833
  0
VERTEX
  8
0
 10
2269.944580078125
 20
529.2293701171875
 42
0
  0
VERTEX
  8
0
 10
2242.6923828125
 20
526.923095703125
 42
0
  0
VERTEX
  8
0
 10
2237.6923828125
 20
521.923095703125
 42
0
  0
SEQEND
  0
POLYLINE
  8
0
 10
0
 20
0
 39
0
 70
1
 66
1
  0
VERTEX
  8
0
 10
2249.6923828125
 20
522.923095703125
 42
-1
  0
VERTEX
  8
0
 10
2249.6923828125
 20
510.92306518554687
 42
-1
  0
SEQEND
  0
POLYLINE
  8
0
 10
0
 20
0
 39
0
 70
1
 66
1
  0
VERTEX
  8
0
 10
1458.4615478515625
 20
310.57693481445312
 42
0
  0
VERTEX
  8
0
 10
1458.4615478515625
 20
485.57693481445312
 42
0
  0
VERTEX
  8
0
 10
1353.4615478515625
 20
485.57693481445312
 42
0
  0
VERTEX
  8
0
 10
1353.4615478515625
 20
310.57693481445312
 42
0
  0
SEQEND
  0
POLYLINE
  8
0
 10
0
 20
0
 39
0
 70
1
 66
1
  0
VERTEX
  8
0
 10
1453.599365234375
 20
465.97860717773437
 42
-1
  0
VERTEX
  8
0
 10
1431.599365234375
 20
465.97860717773437
 42
-1
  0
SEQEND
  0
POLYLINE
  8
0
 10
0
 20
0
 39
0
 70
1
 66
1
  0
VERTEX
  8
0
 10
1454.26171875
 20
431.09152221679687
 42
-1
  0
VERTEX
  8
0
 10
1432.26171875
 20
431.09152221679687
 42
-1
  0
SEQEND
  0
POLYLINE
  8
0
 10
0
 20
0
 39
0
 70
1
 66
1
  0
VERTEX
  8
0
 10
1453.599365234375
 20
333.75454711914062
 42
-1
  0
VERTEX
  8
0
 10
1431.599365234375
 20
333.75454711914062
 42
-1
  0
SEQEND
  0
POLYLINE
  8
0
 10
0
 20
0
 39
0
 70
1
 66
1
  0
VERTEX
  8
0
 10
1380.32373046875
 20
465.97860717773437
 42
-1
  0
VERTEX
  8
0
 10
1358.32373046875
 20
465.97860717773437
 42
-1
  0
SEQEND
  0
POLYLINE
  8
0
 10
0
 20
0
 39
0
 70
1
 66
1
  0
VERTEX
  8
0
 10
1379.6612548828125
 20
431.09152221679687
 42
-1
  0
VERTEX
  8
0
 10
1357.6612548828125
 20
431.09152221679687
 42
-1
  0
SEQEND
  0
POLYLINE
  8
0
 10
0
 20
0
 39
0
 70
1
 66
1
  0
VERTEX
  8
0
 10
1380.32373046875
 20
333.75454711914062
 42
-1
  0
VERTEX
  8
0
 10
1358.32373046875
 20
333.75454711914062
 42
-1
  0
SEQEND
  0
POLYLINE
  8
0
 10
0
 20
0
 39
0
 70
1
 66
1
  0
VERTEX
  8
0
 10
1990.3846435546875
 20
702.1153564453125
 42
0
  0
VERTEX
  8
0
 10
1990.3846435546875
 20
877.1153564453125
 42
0
  0
VERTEX
  8
0
 10
1885.3846435546875
 20
877.1153564453125
 42
0
  0
VERTEX
  8
0
 10
1885.3846435546875
 20
702.1153564453125
 42
0
  0
SEQEND
  0
POLYLINE
  8
0
 10
0
 20
0
 39
0
 70
1
 66
1
  0
VERTEX
  8
0
 10
1985.5224609375
 20
857.51708984375
 42
-1
  0
VERTEX
  8
0
 10
1963.5224609375
 20
857.51708984375
 42
-1
  0
SEQEND
  0
POLYLINE
  8
0
 10
0
 20
0
 39
0
 70
1
 66
1
  0
VERTEX
  8
0
 10
1986.184814453125
 20
822.6300048828125
 42
-1
  0
VERTEX
  8
0
 10
1964.184814453125
 20
822.6300048828125
 42
-1
  0
SEQEND
  0
POLYLINE
  8
0
 10
0
 20
0
 39
0
 70
1
 66
1
  0
VERTEX
  8
0
 10
1985.5224609375
 20
725.29302978515625
 42
-1
  0
VERTEX
  8
0
 10
1963.5224609375
 20
725.29302978515625
 42
-1
  0
SEQEND
  0
POLYLINE
  8
0
 10
0
 20
0
 39
0
 70
1
 66
1
  0
VERTEX
  8
0
 10
1912.246826171875
 20
857.51708984375
 42
-1
  0
VERTEX
  8
0
 10
1890.246826171875
 20
857.51708984375
 42
-1
  0
SEQEND
  0
POLYLINE
  8
0
 10
0
 20
0
 39
0
 70
1
 66
1
  0
VERTEX
  8
0
 10
1911.5843505859375
 20
822.6300048828125
 42
-1
  0
VERTEX
  8
0
 10
1889.5843505859375
 20
822.6300048828125
 42
-1
  0
SEQEND
  0
POLYLINE
  8
0
 10
0
 20
0
 39
0
 70
1
 66
1
  0
VERTEX
  8
0
 10
1912.246826171875
 20
725.29302978515625
 42
-1
  0
VERTEX
  8
0
 10
1890.246826171875
 20
725.29302978515625
 42
-1
  0
SEQEND
  0
POLYLINE
  8
0
 10
0
 20
0
 39
0
 70
1
 66
1
  0
VERTEX
  8
0
 10
2230.769287109375
 20
10.384614944458008
 42
0
  0
VERTEX
  8
0
 10
2230.769287109375
 20
185.38461303710937
 42
0
  0
VERTEX
  8
0
 10
2125.769287109375
 20
185.38461303710937
 42
0
  0
VERTEX
  8
0
 10
2125.769287109375
 20
10.384614944458008
 42
0
  0
SEQEND
  0
POLYLINE
  8
0
 10
0
 20
0
 39
0
 70
1
 66
1
  0
VERTEX
  8
0
 10
2225.906982421875
 20
165.78630065917969
 42
-1
  0
VERTEX
  8
0
 10
2203.906982421875
 20
165.78630065917969
 42
-1
  0
SEQEND
  0
POLYLINE
  8
0
 10
0
 20
0
 39
0
 70
1
 66
1
  0
VERTEX
  8
0
 10
2226.5693359375
 20
130.89921569824219
 42
-1
  0
VERTEX
  8
0
 10
2204.5693359375
 20
130.89921569824219
 42
-1
  0
SEQEND
  0
POLYLINE
  8
0
 10
0
 20
0
 39
0
 70
1
 66
1
  0
VERTEX
  8
0
 10
2225.906982421875
 20
33.562240600585937
 42
-1
  0
VERTEX
  8
0
 10
2203.906982421875
 20
33.562240600585937
 42
-1
  0
SEQEND
  0
POLYLINE
  8
0
 10
0
 20
0
 39
0
 70
1
 66
1
  0
VERTEX
  8
0
 10
2152.63134765625
 20
165.78630065917969
 42
-1
  0
VERTEX
  8
0
 10
2130.63134765625
 20
165.78630065917969
 42
-1
  0
SEQEND
  0
POLYLINE
  8
0
 10
0
 20
0
 39
0
 70
1
 66
1
  0
VERTEX
  8
0
 10
2151.968994140625
 20
130.89921569824219
 42
-1
  0
VERTEX
  8
0
 10
2129.968994140625
 20
130.89921569824219
 42
-1
  0
SEQEND
  0
POLYLINE
  8
0
 10
0
 20
0
 39
0
 70
1
 66
1
  0
VERTEX
  8
0
 10
2152.63134765625
 20
33.562240600585937
 42
-1
  0
VERTEX
  8
0
 10
2130.63134765625
 20
33.562240600585937
 42
-1
  0
SEQEND
  0
POLYLINE
  8
0
 10
0
 20
0
 39
0
 70
1
 66
1
  0
VERTEX
  8
0
 10
2271.923095703125
 20
797.69232177734375
 42
0
  0
VERTEX
  8
0
 10
2271.923095703125
 20
972.69232177734375
 42
0
  0
VERTEX
  8
0
 10
2166.923095703125
 20
972.69232177734375
 42
0
  0
VERTEX
  8
0
 10
2166.923095703125
 20
797.69232177734375
 42
0
  0
SEQEND
  0
POLYLINE
  8
0
 10
0
 20
0
 39
0
 70
1
 66
1
  0
VERTEX
  8
0
 10
2267.06103515625
 20
953.093994140625
 42
-1
  0
VERTEX
  8
0
 10
2245.06103515625
 20
953.093994140625
 42
-1
  0
SEQEND
  0
POLYLINE
  8
0
 10
0
 20
0
 39
0
 70
1
 66
1
  0
VERTEX
  8
0
 10
2267.723388671875
 20
918.2069091796875
 42
-1
  0
VERTEX
  8
0
 10
2245.723388671875
 20
918.2069091796875
 42
-1
  0
SEQEND
  0
POLYLINE
  8
0
 10
0
 20
0
 39
0
 70
1
 66
1
  0
VERTEX
  8
0
 10
2267.06103515625
 20
820.86993408203125
 42
-1
  0
VERTEX
  8
0
 10
2245.06103515625
 20
820.86993408203125
 42
-1
  0
SEQEND
  0
POLYLINE
  8
0
 10
0
 20
0
 39
0
 70
1
 66
1
  0
VERTEX
  8
0
 10
2193.78515625
 20
953.093994140625
 42
-1
  0
VERTEX
  8
0
 10
2171.78515625
 20
953.093994140625
 42
-1
  0
SEQEND
  0
POLYLINE
  8
0
 10
0
 20
0
 39
0
 70
1
 66
1
  0
VERTEX
  8
0
 10
2193.122802734375
 20
918.2069091796875
 42
-1
  0
VERTEX
  8
0
 10
2171.122802734375
 20
918.2069091796875
 42
-1
  0
SEQEND
  0
POLYLINE
  8
0
 10
0
 20
0
 39
0
 70
1
 66
1
  0
VERTEX
  8
0
 10
2193.78515625
 20
820.86993408203125
 42
-1
  0
VERTEX
  8
0
 10
2171.78515625
 20
820.86993408203125
 42
-1
  0
SEQEND
  0
POLYLINE
  8
0
 10
0
 20
0
 39
0
 70
1
 66
1
  0
VERTEX
  8
0
 10
2346.15380859375
 20
10.384614944458008
 42
0
  0
VERTEX
  8
0
 10
2346.15380859375
 20
185.38461303710937
 42
0
  0
VERTEX
  8
0
 10
2241.15380859375
 20
185.38461303710937
 42
0
  0
VERTEX
  8
0
 10
2241.15380859375
 20
10.384614944458008
 42
0
  0
SEQEND
  0
POLYLINE
  8
0
 10
0
 20
0
 39
0
 70
1
 66
1
  0
VERTEX
  8
0
 10
2341.291748046875
 20
165.78630065917969
 42
-1
  0
VERTEX
  8
0
 10
2319.291748046875
 20
165.78630065917969
 42
-1
  0
SEQEND
  0
POLYLINE
  8
0
 10
0
 20
0
 39
0
 70
1
 66
1
  0
VERTEX
  8
0
 10
2341.9541015625
 20
130.89921569824219
 42
-1
  0
VERTEX
  8
0
 10
2319.9541015625
 20
130.89921569824219
 42
-1
  0
SEQEND
  0
POLYLINE
  8
0
 10
0
 20
0
 39
0
 70
1
 66
1
  0
VERTEX
  8
0
 10
2341.291748046875
 20
33.562240600585937
 42
-1
  0
VERTEX
  8
0
 10
2319.291748046875
 20
33.562240600585937
 42
-1
  0
SEQEND
  0
POLYLINE
  8
0
 10
0
 20
0
 39
0
 70
1
 66
1
  0
VERTEX
  8
0
 10
2268.01611328125
 20
165.78630065917969
 42
-1
  0
VERTEX
  8
0
 10
2246.01611328125
 20
165.78630065917969
 42
-1
  0
SEQEND
  0
POLYLINE
  8
0
 10
0
 20
0
 39
0
 70
1
 66
1
  0
VERTEX
  8
0
 10
2267.353515625
 20
130.89921569824219
 42
-1
  0
VERTEX
  8
0
 10
2245.353515625
 20
130.89921569824219
 42
-1
  0
SEQEND
  0
POLYLINE
  8
0
 10
0
 20
0
 39
0
 70
1
 66
1
  0
VERTEX
  8
0
 10
2268.01611328125
 20
33.562240600585937
 42
-1
  0
VERTEX
  8
0
 10
2246.01611328125
 20
33.562240600585937
 42
-1
  0
SEQEND
  0
POLYLINE
  8
0
 10
0
 20
0
 39
0
 70
1
 66
1
  0
VERTEX
  8
0
 10
2361.923095703125
 20
195.57691955566406
 42
0
  0
VERTEX
  8
0
 10
2361.923095703125
 20
370.57693481445312
 42
0
  0
VERTEX
  8
0
 10
2256.923095703125
 20
370.57693481445312
 42
0
  0
VERTEX
  8
0
 10
2256.923095703125
 20
195.57691955566406
 42
0
  0
SEQEND
  0
POLYLINE
  8
0
 10
0
 20
0
 39
0
 70
1
 66
1
  0
VERTEX
  8
0
 10
2357.06103515625
 20
350.97860717773437
 42
-1
  0
VERTEX
  8
0
 10
2335.06103515625
 20
350.97860717773437
 42
-1
  0
SEQEND
  0
POLYLINE
  8
0
 10
0
 20
0
 39
0
 70
1
 66
1
  0
VERTEX
  8
0
 10
2357.723388671875
 20
316.09152221679687
 42
-1
  0
VERTEX
  8
0
 10
2335.723388671875
 20
316.09152221679687
 42
-1
  0
SEQEND
  0
POLYLINE
  8
0
 10
0
 20
0
 39
0
 70
1
 66
1
  0
VERTEX
  8
0
 10
2357.06103515625
 20
218.75454711914062
 42
-1
  0
VERTEX
  8
0
 10
2335.06103515625
 20
218.75454711914062
 42
-1
  0
SEQEND
  0
POLYLINE
  8
0
 10
0
 20
0
 39
0
 70
1
 66
1
  0
VERTEX
  8
0
 10
2283.78515625
 20
350.97860717773437
 42
-1
  0
VERTEX
  8
0
 10
2261.78515625
 20
350.97860717773437
 42
-1
  0
SEQEND
  0
POLYLINE
  8
0
 10
0
 20
0
 39
0
 70
1
 66
1
  0
VERTEX
  8
0
 10
2283.122802734375
 20
316.09152221679687
 42
-1
  0
VERTEX
  8
0
 10
2261.122802734375
 20
316.09152221679687
 42
-1
  0
SEQEND
  0
POLYLINE
  8
0
 10
0
 20
0
 39
0
 70
1
 66
1
  0
VERTEX
  8
0
 10
2283.78515625
 20
218.75454711914062
 42
-1
  0
VERTEX
  8
0
 10
2261.78515625
 20
218.75454711914062
 42
-1
  0
SEQEND
  0
POLYLINE
  8
0
 10
0
 20
0
 39
0
 70
1
 66
1
  0
VERTEX
  8
0
 10
2282.3076171875
 20
843.4615478515625
 42
0
  0
VERTEX
  8
0
 10
2457.3076171875
 20
843.4615478515625
 42
0
  0
VERTEX
  8
0
 10
2457.3076171875
 20
948.4615478515625
 42
0
  0
VERTEX
  8
0
 10
2282.3076171875
 20
948.4615478515625
 42
0
  0
SEQEND
  0
POLYLINE
  8
0
 10
0
 20
0
 39
0
 70
1
 66
1
  0
VERTEX
  8
0
 10
2437.70947265625
 20
848.32373046875
 42
-1
  0
VERTEX
  8
0
 10
2437.70947265625
 20
870.32373046875
 42
-1
  0
SEQEND
  0
POLYLINE
  8
0
 10
0
 20
0
 39
0
 70
1
 66
1
  0
VERTEX
  8
0
 10
2402.822265625
 20
847.66131591796875
 42
-1
  0
VERTEX
  8
0
 10
2402.822265625
 20
869.66131591796875
 42
-1
  0
SEQEND
  0
POLYLINE
  8
0
 10
0
 20
0
 39
0
 70
1
 66
1
  0
VERTEX
  8
0
 10
2305.4853515625
 20
848.32373046875
 42
-1
  0
VERTEX
  8
0
 10
2305.4853515625
 20
870.32373046875
 42
-1
  0
SEQEND
  0
POLYLINE
  8
0
 10
0
 20
0
 39
0
 70
1
 66
1
  0
VERTEX
  8
0
 10
2437.70947265625
 20
921.599365234375
 42
-1
  0
VERTEX
  8
0
 10
2437.70947265625
 20
943.599365234375
 42
-1
  0
SEQEND
  0
POLYLINE
  8
0
 10
0
 20
0
 39
0
 70
1
 66
1
  0
VERTEX
  8
0
 10
2402.822265625
 20
922.26177978515625
 42
-1
  0
VERTEX
  8
0
 10
2402.822265625
 20
944.26177978515625
 42
-1
  0
SEQEND
  0
POLYLINE
  8
0
 10
0
 20
0
 39
0
 70
1
 66
1
  0
VERTEX
  8
0
 10
2305.4853515625
 20
921.599365234375
 42
-1
  0
VERTEX
  8
0
 10
2305.4853515625
 20
943.599365234375
 42
-1
  0
SEQEND
  0
POLYLINE
  8
0
 10
0
 20
0
 39
0
 70
1
 66
1
  0
VERTEX
  8
0
 10
2461.53857421875
 20
10.384614944458008
 42
0
  0
VERTEX
  8
0
 10
2461.53857421875
 20
185.38461303710937
 42
0
  0
VERTEX
  8
0
 10
2356.53857421875
 20
185.38461303710937
 42
0
  0
VERTEX
  8
0
 10
2356.53857421875
 20
10.384614944458008
 42
0
  0
SEQEND
  0
POLYLINE
  8
0
 10
0
 20
0
 39
0
 70
1
 66
1
  0
VERTEX
  8
0
 10
2456.67626953125
 20
165.78630065917969
 42
-1
  0
VERTEX
  8
0
 10
2434.67626953125
 20
165.78630065917969
 42
-1
  0
SEQEND
  0
POLYLINE
  8
0
 10
0
 20
0
 39
0
 70
1
 66
1
  0
VERTEX
  8
0
 10
2457.338623046875
 20
130.89921569824219
 42
-1
  0
VERTEX
  8
0
 10
2435.338623046875
 20
130.89921569824219
 42
-1
  0
SEQEND
  0
POLYLINE
  8
0
 10
0
 20
0
 39
0
 70
1
 66
1
  0
VERTEX
  8
0
 10
2456.67626953125
 20
33.562240600585937
 42
-1
  0
VERTEX
  8
0
 10
2434.67626953125
 20
33.562240600585937
 42
-1
  0
SEQEND
  0
POLYLINE
  8
0
 10
0
 20
0
 39
0
 70
1
 66
1
  0
VERTEX
  8
0
 10
2383.400634765625
 20
165.78630065917969
 42
-1
  0
VERTEX
  8
0
 10
2361.400634765625
 20
165.78630065917969
 42
-1
  0
SEQEND
  0
POLYLINE
  8
0
 10
0
 20
0
 39
0
 70
1
 66
1
  0
VERTEX
  8
0
 10
2382.73828125
 20
130.89921569824219
 42
-1
  0
VERTEX
  8
0
 10
2360.73828125
 20
130.89921569824219
 42
-1
  0
SEQEND
  0
POLYLINE
  8
0
 10
0
 20
0
 39
0
 70
1
 66
1
  0
VERTEX
  8
0
 10
2383.400634765625
 20
33.562240600585937
 42
-1
  0
VERTEX
  8
0
 10
2361.400634765625
 20
33.562240600585937
 42
-1
  0
SEQEND
  0
POLYLINE
  8
0
 10
0
 20
0
 39
0
 70
1
 66
1
  0
VERTEX
  8
0
 10
2477.3076171875
 20
195.57691955566406
 42
0
  0
VERTEX
  8
0
 10
2477.3076171875
 20
370.57693481445312
 42
0
  0
VERTEX
  8
0
 10
2372.3076171875
 20
370.57693481445312
 42
0
  0
VERTEX
  8
0
 10
2372.3076171875
 20
195.57691955566406
 42
0
  0
SEQEND
  0
POLYLINE
  8
0
 10
0
 20
0
 39
0
 70
1
 66
1
  0
VERTEX
  8
0
 10
2472.445556640625
 20
350.97860717773437
 42
-1
  0
VERTEX
  8
0
 10
2450.445556640625
 20
350.97860717773437
 42
-1
  0
SEQEND
  0
POLYLINE
  8
0
 10
0
 20
0
 39
0
 70
1
 66
1
  0
VERTEX
  8
0
 10
2473.10791015625
 20
316.09152221679687
 42
-1
  0
VERTEX
  8
0
 10
2451.10791015625
 20
316.09152221679687
 42
-1
  0
SEQEND
  0
POLYLINE
  8
0
 10
0
 20
0
 39
0
 70
1
 66
1
  0
VERTEX
  8
0
 10
2472.445556640625
 20
218.75454711914062
 42
-1
  0
VERTEX
  8
0
 10
2450.445556640625
 20
218.75454711914062
 42
-1
  0
SEQEND
  0
POLYLINE
  8
0
 10
0
 20
0
 39
0
 70
1
 66
1
  0
VERTEX
  8
0
 10
2399.169921875
 20
350.97860717773437
 42
-1
  0
VERTEX
  8
0
 10
2377.169921875
 20
350.97860717773437
 42
-1
  0
SEQEND
  0
POLYLINE
  8
0
 10
0
 20
0
 39
0
 70
1
 66
1
  0
VERTEX
  8
0
 10
2398.507568359375
 20
316.09152221679687
 42
-1
  0
VERTEX
  8
0
 10
2376.507568359375
 20
316.09152221679687
 42
-1
  0
SEQEND
  0
POLYLINE
  8
0
 10
0
 20
0
 39
0
 70
1
 66
1
  0
VERTEX
  8
0
 10
2399.169921875
 20
218.75454711914062
 42
-1
  0
VERTEX
  8
0
 10
2377.169921875
 20
218.75454711914062
 42
-1
  0
SEQEND
  0
POLYLINE
  8
0
 10
0
 20
0
 39
0
 70
1
 66
1
  0
VERTEX
  8
0
 10
209.36460876464844
 20
885.9615478515625
 42
0
  0
VERTEX
  8
0
 10
209.36460876464844
 20
895.9615478515625
 42
-0
  0
VERTEX
  8
0
 10
202.72007751464844
 20
901.0709228515625
 42
-0.23288553953170776
  0
VERTEX
  8
0
 10
196.86460876464844
 20
912.9615478515625
 42
-0
  0
VERTEX
  8
0
 10
196.86460876464844
 20
920.9322509765625
 42
0.72784233093261719
  0
VERTEX
  8
0
 10
147.07945251464844
 20
937.0728759765625
 42
-0
  0
VERTEX
  8
0
 10
130.57359313964844
 20
914.2437744140625
 42
-0.16402788460254669
  0
VERTEX
  8
0
 10
120.17125701904297
 20
906.8228759765625
 42
-0
  0
VERTEX
  8
0
 10
84.364616394042969
 20
895.9615478515625
 42
0
  0
VERTEX
  8
0
 10
84.364616394042969
 20
885.9615478515625
 42
0
  0
SEQEND
  0
POLYLINE
  8
0
 10
0
 20
0
 39
0
 70
1
 66
1
  0
VERTEX
  8
0
 10
184.36460876464844
 20
920.9615478515625
 42
-1
  0
VERTEX
  8
0
 10
154.36460876464844
 20
920.9615478515625
 42
-1
  0
SEQEND
  0
POLYLINE
  8
0
 10
0
 20
0
 39
0
 70
1
 66
1
  0
VERTEX
  8
0
 10
10.384614944458008
 20
948.46087646484375
 42
0
  0
VERTEX
  8
0
 10
10.384614944458008
 20
938.46087646484375
 42
-0
  0
VERTEX
  8
0
 10
17.029146194458008
 20
933.35150146484375
 42
-0.23288553953170776
  0
VERTEX
  8
0
 10
22.884614944458008
 20
921.46087646484375
 42
-0
  0
VERTEX
  8
0
 10
22.884614944458008
 20
913.49017333984375
 42
0.72784233093261719
  0
VERTEX
  8
0
 10
72.669769287109375
 20
897.34954833984375
 42
-0
  0
VERTEX
  8
0
 10
89.175628662109375
 20
920.17864990234375
 42
-0.16402788460254669
  0
VERTEX
  8
0
 10
99.577972412109375
 20
927.59954833984375
 42
-0
  0
VERTEX
  8
0
 10
135.38461303710937
 20
938.46087646484375
 42
0
  0
VERTEX
  8
0
 10
135.38461303710937
 20
948.46087646484375
 42
0
  0
SEQEND
  0
POLYLINE
  8
0
 10
0
 20
0
 39
0
 70
1
 66
1
  0
VERTEX
  8
0
 10
35.384616851806641
 20
913.46087646484375
 42
-1
  0
VERTEX
  8
0
 10
65.384613037109375
 20
913.46087646484375
 42
-1
  0
SEQEND
  0
POLYLINE
  8
0
 10
0
 20
0
 39
0
 70
1
 66
1
  0
VERTEX
  8
0
 10
384.55691528320312
 20
927.30767822265625
 42
0
  0
VERTEX
  8
0
 10
384.55691528320312
 20
937.30767822265625
 42
-0
  0
VERTEX
  8
0
 10
377.91238403320312
 20
942.41705322265625
 42
-0.23288553953170776
  0
VERTEX
  8
0
 10
372.05691528320312
 20
954.30767822265625
 42
-0
  0
VERTEX
  8
0
 10
372.05691528320312
 20
962.27838134765625
 42
0.72784233093261719
  0
VERTEX
  8
0
 10
322.27175903320312
 20
978.41900634765625
 42
-0
  0
VERTEX
  8
0
 10
305.76589965820312
 20
955.58990478515625
 42
-0.16402788460254669
  0
VERTEX
  8
0
 10
295.36355590820312
 20
948.16900634765625
 42
-0
  0
VERTEX
  8
0
 10
259.55691528320312
 20
937.30767822265625
 42
0
  0
VERTEX
  8
0
 10
259.55691528320312
 20
927.30767822265625
 42
0
  0
SEQEND
  0
POLYLINE
  8
0
 10
0
 20
0
 39
0
 70
1
 66
1
  0
VERTEX
  8
0
 10
359.55691528320313
 20
962.30767822265625
 42
-1
  0
VERTEX
  8
0
 10
329.55691528320312
 20
962.30767822265625
 42
-1
  0
SEQEND
  0
POLYLINE
  8
0
 10
0
 20
0
 39
0
 70
1
 66
1
  0
VERTEX
  8
0
 10
185.57691955566406
 20
989.8070068359375
 42
0
  0
VERTEX
  8
0
 10
185.57691955566406
 20
979.8070068359375
 42
-0
  0
VERTEX
  8
0
 10
192.22145080566406
 20
974.6976318359375
 42
-0.23288553953170776
  0
VERTEX
  8
0
 10
198.07691955566406
 20
962.8070068359375
 42
-0
  0
VERTEX
  8
0
 10
198.07691955566406
 20
954.8363037109375
 42
0.72784233093261719
  0
VERTEX
  8
0
 10
247.86207580566406
 20
938.6956787109375
 42
-0
  0
VERTEX
  8
0
 10
264.36795043945312
 20
961.5247802734375
 42
-0.16402788460254669
  0
VERTEX
  8
0
 10
274.77029418945312
 20
968.9456787109375
 42
-0
  0
VERTEX
  8
0
 10
310.57693481445312
 20
979.8070068359375
 42
0
  0
VERTEX
  8
0
 10
310.57693481445312
 20
989.8070068359375
 42
0
  0
SEQEND
  0
POLYLINE
  8
0
 10
0
 20
0
 39
0
 70
1
 66
1
  0
VERTEX
  8
0
 10
210.57691955566406
 20
954.8070068359375
 42
-1
  0
VERTEX
  8
0
 10
240.57691955566406
 20
954.8070068359375
 42
-1
  0
SEQEND
  0
POLYLINE
  8
0
 10
0
 20
0
 39
0
 70
1
 66
1
  0
VERTEX
  8
0
 10
394.80767822265625
 20
885.9615478515625
 42
0
  0
VERTEX
  8
0
 10
464.80767822265625
 20
885.9615478515625
 42
0
  0
VERTEX
  8
0
 10
464.80767822265625
 20
965.9615478515625
 42
0
  0
VERTEX
  8
0
 10
394.80767822265625
 20
965.9615478515625
 42
0
  0
SEQEND
  0
POLYLINE
  8
0
 10
0
 20
0
 39
0
 70
1
 66
1
  0
VERTEX
  8
0
 10
447.30767822265625
 20
905.9615478515625
 42
0
  0
VERTEX
  8
0
 10
412.30767822265625
 20
905.9615478515625
 42
0
  0
VERTEX
  8
0
 10
412.30767822265625
 20
945.9615478515625
 42
0
  0
VERTEX
  8
0
 10
447.30767822265625
 20
945.9615478515625
 42
0
  0
SEQEND
  0
POLYLINE
  8
0
 10
0
 20
0
 39
0
 70
1
 66
1
  0
VERTEX
  8
0
 10
475.19232177734375
 20
885.9615478515625
 42
0
  0
VERTEX
  8
0
 10
545.19232177734375
 20
885.9615478515625
 42
0
  0
VERTEX
  8
0
 10
545.19232177734375
 20
965.9615478515625
 42
0
  0
VERTEX
  8
0
 10
475.19232177734375
 20
965.9615478515625
 42
0
  0
SEQEND
  0
POLYLINE
  8
0
 10
0
 20
0
 39
0
 70
1
 66
1
  0
VERTEX
  8
0
 10
527.69232177734375
 20
905.9615478515625
 42
0
  0
VERTEX
  8
0
 10
492.69232177734375
 20
905.9615478515625
 42
0
  0
VERTEX
  8
0
 10
492.69232177734375
 20
945.9615478515625
 42
0
  0
VERTEX
  8
0
 10
527.69232177734375
 20
945.9615478515625
 42
0
  0
SEQEND
  0
POLYLINE
  8
0
 10
0
 20
0
 39
0
 70
1
 66
1
  0
VERTEX
  8
0
 10
555.576904296875
 20
895.9615478515625
 42
0
  0
VERTEX
  8
0
 10
625.576904296875
 20
895.9615478515625
 42
0
  0
VERTEX
  8
0
 10
625.576904296875
 20
975.9615478515625
 42
0
  0
VERTEX
  8
0
 10
555.576904296875
 20
975.9615478515625
 42
0
  0
SEQEND
  0
POLYLINE
  8
0
 10
0
 20
0
 39
0
 70
1
 66
1
  0
VERTEX
  8
0
 10
608.076904296875
 20
915.9615478515625
 42
0
  0
VERTEX
  8
0
 10
573.076904296875
 20
915.9615478515625
 42
0
  0
VERTEX
  8
0
 10
573.076904296875
 20
955.9615478515625
 42
0
  0
VERTEX
  8
0
 10
608.076904296875
 20
955.9615478515625
 42
0
  0
SEQEND
  0
POLYLINE
  8
0
 10
0
 20
0
 39
0
 70
1
 66
1
  0
VERTEX
  8
0
 10
635.9615478515625
 20
895.9615478515625
 42
0
  0
VERTEX
  8
0
 10
705.9615478515625
 20
895.9615478515625
 42
0
  0
VERTEX
  8
0
 10
705.9615478515625
 20
975.9615478515625
 42
0
  0
VERTEX
  8
0
 10
635.9615478515625
 20
975.9615478515625
 42
0
  0
SEQEND
  0
POLYLINE
  8
0
 10
0
 20
0
 39
0
 70
1
 66
1
  0
VERTEX
  8
0
 10
688.4615478515625
 20
915.9615478515625
 42
0
  0
VERTEX
  8
0
 10
653.4615478515625
 20
915.9615478515625
 42
0
  0
VERTEX
  8
0
 10
653.4615478515625
 20
955.9615478515625
 42
0
  0
VERTEX
  8
0
 10
688.4615478515625
 20
955.9615478515625
 42
0
  0
SEQEND
  0
POLYLINE
  8
0
 10
0
 20
0
 39
0
 70
1
 66
1
  0
VERTEX
  8
0
 10
716.34613037109375
 20
895.9615478515625
 42
0
  0
VERTEX
  8
0
 10
786.34613037109375
 20
895.9615478515625
 42
0
  0
VERTEX
  8
0
 10
786.34613037109375
 20
975.9615478515625
 42
0
  0
VERTEX
  8
0
 10
716.34613037109375
 20
975.9615478515625
 42
0
  0
SEQEND
  0
POLYLINE
  8
0
 10
0
 20
0
 39
0
 70
1
 66
1
  0
VERTEX
  8
0
 10
768.84613037109375
 20
915.9615478515625
 42
0
  0
VERTEX
  8
0
 10
733.84613037109375
 20
915.9615478515625
 42
0
  0
VERTEX
  8
0
 10
733.84613037109375
 20
955.9615478515625
 42
0
  0
VERTEX
  8
0
 10
768.84613037109375
 20
955.9615478515625
 42
0
  0
SEQEND
  0
POLYLINE
  8
0
 10
0
 20
0
 39
0
 70
1
 66
1
  0
VERTEX
  8
0
 10
796.73077392578125
 20
895.9615478515625
 42
0
  0
VERTEX
  8
0
 10
866.73077392578125
 20
895.9615478515625
 42
0
  0
VERTEX
  8
0
 10
866.73077392578125
 20
975.9615478515625
 42
0
  0
VERTEX
  8
0
 10
796.73077392578125
 20
975.9615478515625
 42
0
  0
SEQEND
  0
POLYLINE
  8
0
 10
0
 20
0
 39
0
 70
1
 66
1
  0
VERTEX
  8
0
 10
849.23077392578125
 20
915.9615478515625
 42
0
  0
VERTEX
  8
0
 10
814.23077392578125
 20
915.9615478515625
 42
0
  0
VERTEX
  8
0
 10
814.23077392578125
 20
955.9615478515625
 42
0
  0
VERTEX
  8
0
 10
849.23077392578125
 20
955.9615478515625
 42
0
  0
SEQEND
  0
POLYLINE
  8
0
 10
0
 20
0
 39
0
 70
1
 66
1
  0
VERTEX
  8
0
 10
877.1153564453125
 20
895.9615478515625
 42
0
  0
VERTEX
  8
0
 10
947.1153564453125
 20
895.9615478515625
 42
0
  0
VERTEX
  8
0
 10
947.1153564453125
 20
975.9615478515625
 42
0
  0
VERTEX
  8
0
 10
877.1153564453125
 20
975.9615478515625
 42
0
  0
SEQEND
  0
POLYLINE
  8
0
 10
0
 20
0
 39
0
 70
1
 66
1
  0
VERTEX
  8
0
 10
929.6153564453125
 20
915.9615478515625
 42
0
  0
VERTEX
  8
0
 10
894.6153564453125
 20
915.9615478515625
 42
0
  0
VERTEX
  8
0
 10
894.6153564453125
 20
955.9615478515625
 42
0
  0
VERTEX
  8
0
 10
929.6153564453125
 20
955.9615478515625
 42
0
  0
SEQEND
  0
POLYLINE
  8
0
 10
0
 20
0
 39
0
 70
1
 66
1
  0
VERTEX
  8
0
 10
1478.269287109375
 20
919.6153564453125
 42
0
  0
VERTEX
  8
0
 10
1478.269287109375
 20
989.6153564453125
 42
0
  0
VERTEX
  8
0
 10
1398.269287109375
 20
989.6153564453125
 42
0
  0
VERTEX
  8
0
 10
1398.269287109375
 20
919.6153564453125
 42
0
  0
SEQEND
  0
POLYLINE
  8
0
 10
0
 20
0
 39
0
 70
1
 66
1
  0
VERTEX
  8
0
 10
1458.269287109375
 20
972.1153564453125
 42
0
  0
VERTEX
  8
0
 10
1458.269287109375
 20
937.1153564453125
 42
0
  0
VERTEX
  8
0
 10
1418.269287109375
 20
937.1153564453125
 42
0
  0
VERTEX
  8
0
 10
1418.269287109375
 20
972.1153564453125
 42
0
  0
SEQEND
  0
POLYLINE
  8
0
 10
0
 20
0
 39
0
 70
1
 66
1
  0
VERTEX
  8
0
 10
1568.65380859375
 20
910.9615478515625
 42
0
  0
VERTEX
  8
0
 10
1568.65380859375
 20
980.9615478515625
 42
0
  0
VERTEX
  8
0
 10
1488.65380859375
 20
980.9615478515625
 42
0
  0
VERTEX
  8
0
 10
1488.65380859375
 20
910.9615478515625
 42
0
  0
SEQEND
  0
POLYLINE
  8
0
 10
0
 20
0
 39
0
 70
1
 66
1
  0
VERTEX
  8
0
 10
1548.65380859375
 20
963.4615478515625
 42
0
  0
VERTEX
  8
0
 10
1548.65380859375
 20
928.4615478515625
 42
0
  0
VERTEX
  8
0
 10
1508.65380859375
 20
928.4615478515625
 42
0
  0
VERTEX
  8
0
 10
1508.65380859375
 20
963.4615478515625
 42
0
  0
SEQEND
  0
POLYLINE
  8
0
 10
0
 20
0
 39
0
 70
1
 66
1
  0
VERTEX
  8
0
 10
1659.0384521484375
 20
910.9615478515625
 42
0
  0
VERTEX
  8
0
 10
1659.0384521484375
 20
980.9615478515625
 42
0
  0
VERTEX
  8
0
 10
1579.0384521484375
 20
980.9615478515625
 42
0
  0
VERTEX
  8
0
 10
1579.0384521484375
 20
910.9615478515625
 42
0
  0
SEQEND
  0
POLYLINE
  8
0
 10
0
 20
0
 39
0
 70
1
 66
1
  0
VERTEX
  8
0
 10
1639.0384521484375
 20
963.4615478515625
 42
0
  0
VERTEX
  8
0
 10
1639.0384521484375
 20
928.4615478515625
 42
0
  0
VERTEX
  8
0
 10
1599.0384521484375
 20
928.4615478515625
 42
0
  0
VERTEX
  8
0
 10
1599.0384521484375
 20
963.4615478515625
 42
0
  0
SEQEND
  0
POLYLINE
  8
0
 10
0
 20
0
 39
0
 70
1
 66
1
  0
VERTEX
  8
0
 10
1749.423095703125
 20
910.9615478515625
 42
0
  0
VERTEX
  8
0
 10
1749.423095703125
 20
980.9615478515625
 42
0
  0
VERTEX
  8
0
 10
1669.423095703125
 20
980.9615478515625
 42
0
  0
VERTEX
  8
0
 10
1669.423095703125
 20
910.9615478515625
 42
0
  0
SEQEND
  0
POLYLINE
  8
0
 10
0
 20
0
 39
0
 70
1
 66
1
  0
VERTEX
  8
0
 10
1729.423095703125
 20
963.4615478515625
 42
0
  0
VERTEX
  8
0
 10
1729.423095703125
 20
928.4615478515625
 42
0
  0
VERTEX
  8
0
 10
1689.423095703125
 20
928.4615478515625
 42
0
  0
VERTEX
  8
0
 10
1689.423095703125
 20
963.4615478515625
 42
0
  0
SEQEND
  0
POLYLINE
  8
0
 10
0
 20
0
 39
0
 70
1
 66
1
  0
VERTEX
  8
0
 10
1839.8077392578125
 20
910.9615478515625
 42
0
  0
VERTEX
  8
0
 10
1839.8077392578125
 20
980.9615478515625
 42
0
  0
VERTEX
  8
0
 10
1759.8077392578125
 20
980.9615478515625
 42
0
  0
VERTEX
  8
0
 10
1759.8077392578125
 20
910.9615478515625
 42
0
  0
SEQEND
  0
POLYLINE
  8
0
 10
0
 20
0
 39
0
 70
1
 66
1
  0
VERTEX
  8
0
 10
1819.8077392578125
 20
963.4615478515625
 42
0
  0
VERTEX
  8
0
 10
1819.8077392578125
 20
928.4615478515625
 42
0
  0
VERTEX
  8
0
 10
1779.8077392578125
 20
928.4615478515625
 42
0
  0
VERTEX
  8
0
 10
1779.8077392578125
 20
963.4615478515625
 42
0
  0
SEQEND
  0
POLYLINE
  8
0
 10
0
 20
0
 39
0
 70
1
 66
1
  0
VERTEX
  8
0
 10
1930.1922607421875
 20
910.9615478515625
 42
0
  0
VERTEX
  8
0
 10
1930.1922607421875
 20
980.9615478515625
 42
0
  0
VERTEX
  8
0
 10
1850.1922607421875
 20
980.9615478515625
 42
0
  0
VERTEX
  8
0
 10
1850.1922607421875
 20
910.9615478515625
 42
0
  0
SEQEND
  0
POLYLINE
  8
0
 10
0
 20
0
 39
0
 70
1
 66
1
  0
VERTEX
  8
0
 10
1910.1922607421875
 20
963.4615478515625
 42
0
  0
VERTEX
  8
0
 10
1910.1922607421875
 20
928.4615478515625
 42
0
  0
VERTEX
  8
0
 10
1870.1922607421875
 20
928.4615478515625
 42
0
  0
VERTEX
  8
0
 10
1870.1922607421875
 20
963.4615478515625
 42
0
  0
SEQEND
  0
POLYLINE
  8
0
 10
0
 20
0
 39
0
 70
1
 66
1
  0
VERTEX
  8
0
 10
2045.576904296875
 20
887.30767822265625
 42
0
  0
VERTEX
  8
0
 10
2045.576904296875
 20
937.30767822265625
 42
0
  0
VERTEX
  8
0
 10
1940.576904296875
 20
937.30767822265625
 42
0
  0
VERTEX
  8
0
 10
1940.576904296875
 20
887.30767822265625
 42
0
  0
SEQEND
  0
POLYLINE
  8
0
 10
0
 20
0
 39
0
 70
1
 66
1
  0
VERTEX
  8
0
 10
2039.0313720703125
 20
912.30767822265625
 42
-1
  0
VERTEX
  8
0
 10
2017.0313720703125
 20
912.30767822265625
 42
-1
  0
SEQEND
  0
POLYLINE
  8
0
 10
0
 20
0
 39
0
 70
1
 66
1
  0
VERTEX
  8
0
 10
1969.1224365234375
 20
912.30767822265625
 42
-1
  0
VERTEX
  8
0
 10
1947.1224365234375
 20
912.30767822265625
 42
-1
  0
SEQEND
  0
POLYLINE
  8
0
 10
0
 20
0
 39
0
 70
1
 66
1
  0
VERTEX
  8
0
 10
2035.769287109375
 20
401.92306518554687
 42
0
  0
VERTEX
  8
0
 10
2085.769287109375
 20
401.92306518554687
 42
0
  0
VERTEX
  8
0
 10
2085.769287109375
 20
506.92306518554687
 42
0
  0
VERTEX
  8
0
 10
2035.769287109375
 20
506.92306518554687
 42
0
  0
SEQEND
  0
POLYLINE
  8
0
 10
0
 20
0
 39
0
 70
1
 66
1
  0
VERTEX
  8
0
 10
2060.769287109375
 20
408.4686279296875
 42
-1
  0
VERTEX
  8
0
 10
2060.769287109375
 20
430.4686279296875
 42
-1
  0
SEQEND
  0
POLYLINE
  8
0
 10
0
 20
0
 39
0
 70
1
 66
1
  0
VERTEX
  8
0
 10
2060.769287109375
 20
478.37753295898437
 42
-1
  0
VERTEX
  8
0
 10
2060.769287109375
 20
500.37753295898437
 42
-1
  0
SEQEND
  0
POLYLINE
  8
0
 10
0
 20
0
 39
0
 70
1
 66
1
  0
VERTEX
  8
0
 10
2166.923095703125
 20
622.69232177734375
 42
0
  0
VERTEX
  8
0
 10
2216.923095703125
 20
622.69232177734375
 42
0
  0
VERTEX
  8
0
 10
2216.923095703125
 20
727.69232177734375
 42
0
  0
VERTEX
  8
0
 10
2166.923095703125
 20
727.69232177734375
 42
0
  0
SEQEND
  0
POLYLINE
  8
0
 10
0
 20
0
 39
0
 70
1
 66
1
  0
VERTEX
  8
0
 10
2191.923095703125
 20
629.23785400390625
 42
-1
  0
VERTEX
  8
0
 10
2191.923095703125
 20
651.23785400390625
 42
-1
  0
SEQEND
  0
POLYLINE
  8
0
 10
0
 20
0
 39
0
 70
1
 66
1
  0
VERTEX
  8
0
 10
2191.923095703125
 20
699.14678955078125
 42
-1
  0
VERTEX
  8
0
 10
2191.923095703125
 20
721.14678955078125
 42
-1
  0
SEQEND
  0
POLYLINE
  8
0
 10
0
 20
0
 39
0
 70
1
 66
1
  0
VERTEX
  8
0
 10
2361.923095703125
 20
380.76922607421875
 42
0
  0
VERTEX
  8
0
 10
2361.923095703125
 20
430.76922607421875
 42
0
  0
VERTEX
  8
0
 10
2256.923095703125
 20
430.76922607421875
 42
0
  0
VERTEX
  8
0
 10
2256.923095703125
 20
380.76922607421875
 42
0
  0
SEQEND
  0
POLYLINE
  8
0
 10
0
 20
0
 39
0
 70
1
 66
1
  0
VERTEX
  8
0
 10
2355.37744140625
 20
405.76922607421875
 42
-1
  0
VERTEX
  8
0
 10
2333.37744140625
 20
405.76922607421875
 42
-1
  0
SEQEND
  0
POLYLINE
  8
0
 10
0
 20
0
 39
0
 70
1
 66
1
  0
VERTEX
  8
0
 10
2285.468505859375
 20
405.76922607421875
 42
-1
  0
VERTEX
  8
0
 10
2263.468505859375
 20
405.76922607421875
 42
-1
  0
SEQEND
  0
POLYLINE
  8
0
 10
0
 20
0
 39
0
 70
1
 66
1
  0
VERTEX
  8
0
 10
2372.3076171875
 20
380.76922607421875
 42
0
  0
VERTEX
  8
0
 10
2422.3076171875
 20
380.76922607421875
 42
0
  0
VERTEX
  8
0
 10
2422.3076171875
 20
485.76922607421875
 42
0
  0
VERTEX
  8
0
 10
2372.3076171875
 20
485.76922607421875
 42
0
  0
SEQEND
  0
POLYLINE
  8
0
 10
0
 20
0
 39
0
 70
1
 66
1
  0
VERTEX
  8
0
 10
2397.3076171875
 20
387.31478881835937
 42
-1
  0
VERTEX
  8
0
 10
2397.3076171875
 20
409.31478881835937
 42
-1
  0
SEQEND
  0
POLYLINE
  8
0
 10
0
 20
0
 39
0
 70
1
 66
1
  0
VERTEX
  8
0
 10
2397.3076171875
 20
457.22369384765625
 42
-1
  0
VERTEX
  8
0
 10
2397.3076171875
 20
479.22369384765625
 42
-1
  0
SEQEND
  0
POLYLINE
  8
0
 10
0
 20
0
 39
0
 70
1
 66
1
  0
VERTEX
  8
0
 10
2387.884521484375
 20
655.9615478515625
 42
0
  0
VERTEX
  8
0
 10
2437.884521484375
 20
655.9615478515625
 42
0
  0
VERTEX
  8
0
 10
2437.884521484375
 20
760.9615478515625
 42
0
  0
VERTEX
  8
0
 10
2387.884521484375
 20
760.9615478515625
 42
0
  0
SEQEND
  0
POLYLINE
  8
0
 10
0
 20
0
 39
0
 70
1
 66
1
  0
VERTEX
  8
0
 10
2412.884521484375
 20
662.507080078125
 42
-1
  0
VERTEX
  8
0
 10
2412.884521484375
 20
684.507080078125
 42
-1
  0
SEQEND
  0
POLYLINE
  8
0
 10
0
 20
0
 39
0
 70
1
 66
1
  0
VERTEX
  8
0
 10
2412.884521484375
 20
732.416015625
 42
-1
  0
VERTEX
  8
0
 10
2412.884521484375
 20
754.416015625
 42
-1
  0
SEQEND
  0
POLYLINE
  8
0
 10
0
 20
0
 39
0
 70
1
 66
1
  0
VERTEX
  8
0
 10
2388.076904296875
 20
495.9615478515625
 42
0
  0
VERTEX
  8
0
 10
2438.076904296875
 20
495.9615478515625
 42
0
  0
VERTEX
  8
0
 10
2438.076904296875
 20
600.9615478515625
 42
0
  0
VERTEX
  8
0
 10
2388.076904296875
 20
600.9615478515625
 42
0
  0
SEQEND
  0
POLYLINE
  8
0
 10
0
 20
0
 39
0
 70
1
 66
1
  0
VERTEX
  8
0
 10
2413.076904296875
 20
502.507080078125
 42
-1
  0
VERTEX
  8
0
 10
2413.076904296875
 20
524.507080078125
 42
-1
  0
SEQEND
  0
POLYLINE
  8
0
 10
0
 20
0
 39
0
 70
1
 66
1
  0
VERTEX
  8
0
 10
2413.076904296875
 20
572.416015625
 42
-1
  0
VERTEX
  8
0
 10
2413.076904296875
 20
594.416015625
 42
-1
  0
SEQEND
  0
POLYLINE
  8
0
 10
0
 20
0
 39
0
 70
1
 66
1
  0
VERTEX
  8
0
 10
2432.6923828125
 20
380.76922607421875
 42
0
  0
VERTEX
  8
0
 10
2482.6923828125
 20
380.76922607421875
 42
0
  0
VERTEX
  8
0
 10
2482.6923828125
 20
485.76922607421875
 42
0
  0
VERTEX
  8
0
 10
2432.6923828125
 20
485.76922607421875
 42
0
  0
SEQEND
  0
POLYLINE
  8
0
 10
0
 20
0
 39
0
 70
1
 66
1
  0
VERTEX
  8
0
 10
2457.6923828125
 20
387.31478881835937
 42
-1
  0
VERTEX
  8
0
 10
2457.6923828125
 20
409.31478881835937
 42
-1
  0
SEQEND
  0
POLYLINE
  8
0
 10
0
 20
0
 39
0
 70
1
 66
1
  0
VERTEX
  8
0
 10
2457.6923828125
 20
457.22369384765625
 42
-1
  0
VERTEX
  8
0
 10
2457.6923828125
 20
479.22369384765625
 42
-1
  0
SEQEND
  0
ENDSEC
  0
EOF
