  0
SECTION
  2
ENTITIES
  0
POLYLINE
  8
0
 10
0
 20
0
 39
0
 70
1
 66
1
  0
VERTEX
  8
0
 10
0
 20
0
 42
-0
  0
VERTEX
  8
0
 10
2500
 20
0
 42
-0
  0
VERTEX
  8
0
 10
2500
 20
1000
 42
-0
  0
VERTEX
  8
0
 10
0
 20
1000
 42
-0
  0
SEQEND
  0
POLYLINE
  8
0
 10
0
 20
0
 39
0
 70
1
 66
1
  0
VERTEX
  8
0
 10
430.38461538461547
 20
90.384615384615387
 42
0
  0
VERTEX
  8
0
 10
110.38461538461547
 20
10.384615384615383
 42
-0
  0
VERTEX
  8
0
 10
10.384615384615472
 20
10.384615384615383
 42
-0
  0
VERTEX
  8
0
 10
10.384615384615472
 20
140.38461538461539
 42
0
  0
VERTEX
  8
0
 10
430.38461538461547
 20
337.38461538461536
 42
-0
  0
VERTEX
  8
0
 10
730.38461538461547
 20
337.38461538461536
 42
0
  0
VERTEX
  8
0
 10
1272.3846153846155
 20
140.38461538461539
 42
-0
  0
VERTEX
  8
0
 10
1272.3846153846155
 20
10.384615384615383
 42
-0
  0
VERTEX
  8
0
 10
1172.3846153846155
 20
10.384615384615383
 42
-0
  0
VERTEX
  8
0
 10
730.38461538461547
 20
90.384615384615387
 42
0
  0
SEQEND
  0
POLYLINE
  8
0
 10
0
 20
0
 39
0
 70
1
 66
1
  0
VERTEX
  8
0
 10
1232.3846153846155
 20
90.384615384615387
 42
1
  0
VERTEX
  8
0
 10
1152.3846153846155
 20
90.384615384615387
 42
1
  0
SEQEND
  0
POLYLINE
  8
0
 10
0
 20
0
 39
0
 70
1
 66
1
  0
VERTEX
  8
0
 10
582.38461538461547
 20
210.38461538461539
 42
1
  0
VERTEX
  8
0
 10
502.38461538461547
 20
210.38461538461539
 42
1
  0
SEQEND
  0
POLYLINE
  8
0
 10
0
 20
0
 39
0
 70
1
 66
1
  0
VERTEX
  8
0
 10
128.38461538461547
 20
90.384615384615387
 42
1
  0
VERTEX
  8
0
 10
48.384615384615472
 20
90.384615384615387
 42
1
  0
SEQEND
  0
POLYLINE
  8
0
 10
0
 20
0
 39
0
 70
1
 66
1
  0
VERTEX
  8
0
 10
430.38461538461547
 20
348.26923076923077
 42
0
  0
VERTEX
  8
0
 10
110.38461538461547
 20
268.26923076923077
 42
-0
  0
VERTEX
  8
0
 10
10.384615384615472
 20
268.26923076923077
 42
-0
  0
VERTEX
  8
0
 10
10.384615384615472
 20
398.26923076923077
 42
0
  0
VERTEX
  8
0
 10
430.38461538461547
 20
595.26923076923072
 42
-0
  0
VERTEX
  8
0
 10
730.38461538461547
 20
595.26923076923072
 42
0
  0
VERTEX
  8
0
 10
1272.3846153846155
 20
398.26923076923077
 42
-0
  0
VERTEX
  8
0
 10
1272.3846153846155
 20
268.26923076923077
 42
-0
  0
VERTEX
  8
0
 10
1172.3846153846155
 20
268.26923076923077
 42
-0
  0
VERTEX
  8
0
 10
730.38461538461547
 20
348.26923076923077
 42
0
  0
SEQEND
  0
POLYLINE
  8
0
 10
0
 20
0
 39
0
 70
1
 66
1
  0
VERTEX
  8
0
 10
1232.3846153846155
 20
348.26923076923077
 42
1
  0
VERTEX
  8
0
 10
1152.3846153846155
 20
348.26923076923077
 42
1
  0
SEQEND
  0
POLYLINE
  8
0
 10
0
 20
0
 39
0
 70
1
 66
1
  0
VERTEX
  8
0
 10
582.38461538461547
 20
468.26923076923077
 42
1
  0
VERTEX
  8
0
 10
502.38461538461547
 20
468.26923076923077
 42
1
  0
SEQEND
  0
POLYLINE
  8
0
 10
0
 20
0
 39
0
 70
1
 66
1
  0
VERTEX
  8
0
 10
128.38461538461547
 20
348.26923076923077
 42
1
  0
VERTEX
  8
0
 10
48.384615384615472
 20
348.26923076923077
 42
1
  0
SEQEND
  0
POLYLINE
  8
0
 10
0
 20
0
 39
0
 70
1
 66
1
  0
VERTEX
  8
0
 10
430.38461538461547
 20
606.15384615384619
 42
0
  0
VERTEX
  8
0
 10
110.38461538461547
 20
526.15384615384619
 42
-0
  0
VERTEX
  8
0
 10
10.384615384615472
 20
526.15384615384619
 42
-0
  0
VERTEX
  8
0
 10
10.384615384615472
 20
656.15384615384619
 42
0
  0
VERTEX
  8
0
 10
430.38461538461547
 20
853.15384615384619
 42
-0
  0
VERTEX
  8
0
 10
730.38461538461547
 20
853.15384615384619
 42
0
  0
VERTEX
  8
0
 10
1272.3846153846155
 20
656.15384615384619
 42
-0
  0
VERTEX
  8
0
 10
1272.3846153846155
 20
526.15384615384619
 42
-0
  0
VERTEX
  8
0
 10
1172.3846153846155
 20
526.15384615384619
 42
-0
  0
VERTEX
  8
0
 10
730.38461538461547
 20
606.15384615384619
 42
0
  0
SEQEND
  0
POLYLINE
  8
0
 10
0
 20
0
 39
0
 70
1
 66
1
  0
VERTEX
  8
0
 10
1232.3846153846155
 20
606.15384615384619
 42
1
  0
VERTEX
  8
0
 10
1152.3846153846155
 20
606.15384615384619
 42
1
  0
SEQEND
  0
POLYLINE
  8
0
 10
0
 20
0
 39
0
 70
1
 66
1
  0
VERTEX
  8
0
 10
582.38461538461547
 20
726.15384615384619
 42
1
  0
VERTEX
  8
0
 10
502.38461538461547
 20
726.15384615384619
 42
1
  0
SEQEND
  0
POLYLINE
  8
0
 10
0
 20
0
 39
0
 70
1
 66
1
  0
VERTEX
  8
0
 10
128.38461538461547
 20
606.15384615384619
 42
1
  0
VERTEX
  8
0
 10
48.384615384615472
 20
606.15384615384619
 42
1
  0
SEQEND
  0
POLYLINE
  8
0
 10
0
 20
0
 39
0
 70
1
 66
1
  0
VERTEX
  8
0
 10
320.38461538461536
 20
813.26923076923072
 42
-0
  0
VERTEX
  8
0
 10
10.384615384615405
 20
813.26923076923072
 42
-0
  0
VERTEX
  8
0
 10
10.384615384615383
 20
983.26923076923072
 42
-0
  0
VERTEX
  8
0
 10
385.38461538461536
 20
983.26923076923072
 42
-0
  0
SEQEND
  0
POLYLINE
  8
0
 10
0
 20
0
 39
0
 70
1
 66
1
  0
VERTEX
  8
0
 10
66.384615384615401
 20
858.26923076923072
 42
1
  0
VERTEX
  8
0
 10
84.384615384615401
 20
858.26923076923072
 42
1
  0
SEQEND
  0
POLYLINE
  8
0
 10
0
 20
0
 39
0
 70
1
 66
1
  0
VERTEX
  8
0
 10
248.38461538461542
 20
858.26923076923072
 42
1
  0
VERTEX
  8
0
 10
266.38461538461536
 20
858.26923076923072
 42
1
  0
SEQEND
  0
POLYLINE
  8
0
 10
0
 20
0
 39
0
 70
1
 66
1
  0
VERTEX
  8
0
 10
918.46153846153857
 20
989.61538461538464
 42
-0
  0
VERTEX
  8
0
 10
1228.4615384615386
 20
989.61538461538464
 42
-0
  0
VERTEX
  8
0
 10
1228.4615384615386
 20
819.61538461538464
 42
-0
  0
VERTEX
  8
0
 10
853.46153846153857
 20
819.61538461538464
 42
-0
  0
SEQEND
  0
POLYLINE
  8
0
 10
0
 20
0
 39
0
 70
1
 66
1
  0
VERTEX
  8
0
 10
1172.4615384615386
 20
944.61538461538464
 42
1
  0
VERTEX
  8
0
 10
1154.4615384615386
 20
944.61538461538464
 42
1
  0
SEQEND
  0
POLYLINE
  8
0
 10
0
 20
0
 39
0
 70
1
 66
1
  0
VERTEX
  8
0
 10
990.46153846153857
 20
944.61538461538464
 42
1
  0
VERTEX
  8
0
 10
972.46153846153857
 20
944.61538461538464
 42
1
  0
SEQEND
  0
POLYLINE
  8
0
 10
0
 20
0
 39
0
 70
1
 66
1
  0
VERTEX
  8
0
 10
1240.7692307692307
 20
679.61538461538453
 42
-0
  0
VERTEX
  8
0
 10
1240.7692307692307
 20
989.61538461538464
 42
-0
  0
VERTEX
  8
0
 10
1410.7692307692307
 20
989.61538461538464
 42
-0
  0
VERTEX
  8
0
 10
1410.7692307692307
 20
614.61538461538464
 42
-0
  0
SEQEND
  0
POLYLINE
  8
0
 10
0
 20
0
 39
0
 70
1
 66
1
  0
VERTEX
  8
0
 10
1285.7692307692307
 20
933.61538461538464
 42
1
  0
VERTEX
  8
0
 10
1285.7692307692307
 20
915.61538461538464
 42
1
  0
SEQEND
  0
POLYLINE
  8
0
 10
0
 20
0
 39
0
 70
1
 66
1
  0
VERTEX
  8
0
 10
1285.7692307692307
 20
751.61538461538464
 42
1
  0
VERTEX
  8
0
 10
1285.7692307692307
 20
733.61538461538464
 42
1
  0
SEQEND
  0
POLYLINE
  8
0
 10
0
 20
0
 39
0
 70
1
 66
1
  0
VERTEX
  8
0
 10
1452.6923076923076
 20
320.38461538461536
 42
-0
  0
VERTEX
  8
0
 10
1452.6923076923076
 20
10.384615384615394
 42
-0
  0
VERTEX
  8
0
 10
1282.6923076923076
 20
10.384615384615383
 42
-0
  0
VERTEX
  8
0
 10
1282.6923076923076
 20
385.38461538461536
 42
-0
  0
SEQEND
  0
POLYLINE
  8
0
 10
0
 20
0
 39
0
 70
1
 66
1
  0
VERTEX
  8
0
 10
1407.6923076923076
 20
66.384615384615387
 42
1
  0
VERTEX
  8
0
 10
1407.6923076923076
 20
84.384615384615401
 42
1
  0
SEQEND
  0
POLYLINE
  8
0
 10
0
 20
0
 39
0
 70
1
 66
1
  0
VERTEX
  8
0
 10
1407.6923076923076
 20
248.38461538461539
 42
1
  0
VERTEX
  8
0
 10
1407.6923076923076
 20
266.38461538461536
 42
1
  0
SEQEND
  0
POLYLINE
  8
0
 10
0
 20
0
 39
0
 70
1
 66
1
  0
VERTEX
  8
0
 10
1421.1538461538462
 20
343.84615384615375
 42
-0
  0
VERTEX
  8
0
 10
1421.1538461538462
 20
653.84615384615381
 42
-0
  0
VERTEX
  8
0
 10
1591.1538461538462
 20
653.84615384615381
 42
-0
  0
VERTEX
  8
0
 10
1591.1538461538462
 20
278.84615384615381
 42
-0
  0
SEQEND
  0
POLYLINE
  8
0
 10
0
 20
0
 39
0
 70
1
 66
1
  0
VERTEX
  8
0
 10
1466.1538461538462
 20
597.84615384615381
 42
1
  0
VERTEX
  8
0
 10
1466.1538461538462
 20
579.84615384615381
 42
1
  0
SEQEND
  0
POLYLINE
  8
0
 10
0
 20
0
 39
0
 70
1
 66
1
  0
VERTEX
  8
0
 10
1466.1538461538462
 20
415.84615384615381
 42
1
  0
VERTEX
  8
0
 10
1466.1538461538462
 20
397.84615384615381
 42
1
  0
SEQEND
  0
POLYLINE
  8
0
 10
0
 20
0
 39
0
 70
1
 66
1
  0
VERTEX
  8
0
 10
1553.4615384615383
 20
679.61538461538453
 42
-0
  0
VERTEX
  8
0
 10
1553.4615384615383
 20
989.61538461538464
 42
-0
  0
VERTEX
  8
0
 10
1723.4615384615383
 20
989.61538461538464
 42
-0
  0
VERTEX
  8
0
 10
1723.4615384615383
 20
614.61538461538464
 42
-0
  0
SEQEND
  0
POLYLINE
  8
0
 10
0
 20
0
 39
0
 70
1
 66
1
  0
VERTEX
  8
0
 10
1598.4615384615383
 20
933.61538461538464
 42
1
  0
VERTEX
  8
0
 10
1598.4615384615383
 20
915.61538461538464
 42
1
  0
SEQEND
  0
POLYLINE
  8
0
 10
0
 20
0
 39
0
 70
1
 66
1
  0
VERTEX
  8
0
 10
1598.4615384615383
 20
751.61538461538464
 42
1
  0
VERTEX
  8
0
 10
1598.4615384615383
 20
733.61538461538464
 42
1
  0
SEQEND
  0
POLYLINE
  8
0
 10
0
 20
0
 39
0
 70
1
 66
1
  0
VERTEX
  8
0
 10
1771.5384615384614
 20
320.38461538461536
 42
-0
  0
VERTEX
  8
0
 10
1771.5384615384614
 20
10.384615384615394
 42
-0
  0
VERTEX
  8
0
 10
1601.5384615384614
 20
10.384615384615383
 42
-0
  0
VERTEX
  8
0
 10
1601.5384615384614
 20
385.38461538461536
 42
-0
  0
SEQEND
  0
POLYLINE
  8
0
 10
0
 20
0
 39
0
 70
1
 66
1
  0
VERTEX
  8
0
 10
1726.5384615384614
 20
66.384615384615387
 42
1
  0
VERTEX
  8
0
 10
1726.5384615384614
 20
84.384615384615401
 42
1
  0
SEQEND
  0
POLYLINE
  8
0
 10
0
 20
0
 39
0
 70
1
 66
1
  0
VERTEX
  8
0
 10
1726.5384615384614
 20
248.38461538461539
 42
1
  0
VERTEX
  8
0
 10
1726.5384615384614
 20
266.38461538461536
 42
1
  0
SEQEND
  0
POLYLINE
  8
0
 10
0
 20
0
 39
0
 70
1
 66
1
  0
VERTEX
  8
0
 10
1802.1564367441063
 20
516.53854830745331
 42
0.060842119157314301
  0
VERTEX
  8
0
 10
1802.6181499055772
 20
511.71116339462094
 42
-0
  0
VERTEX
  8
0
 10
1825.6026970895421
 20
407.40424401754154
 42
-1.278258204460144
  0
VERTEX
  8
0
 10
1713.0512213402715
 20
410.35150808728559
 42
0
  0
VERTEX
  8
0
 10
1741.4632701696305
 20
513.31254498955298
 42
0.060842119157314301
  0
VERTEX
  8
0
 10
1742.1769967702751
 20
518.10916519347302
 42
-0
  0
VERTEX
  8
0
 10
1747.0588717709995
 20
704.54045290727936
 42
0.034327305853366852
  0
VERTEX
  8
0
 10
1746.884275282667
 20
708.65116831052114
 42
-0
  0
VERTEX
  8
0
 10
1734.5011027040719
 20
819.67675965890066
 42
-1.1476176977157593
  0
VERTEX
  8
0
 10
1825.6046394429695
 20
817.29112962899944
 42
0
  0
VERTEX
  8
0
 10
1807.427807172817
 20
707.06578015805712
 42
0.034327238798141479
  0
VERTEX
  8
0
 10
1807.0383117448307
 20
702.96983602125965
 42
0
  0
SEQEND
  0
POLYLINE
  8
0
 10
0
 20
0
 39
0
 70
1
 66
1
  0
VERTEX
  8
0
 10
1768.3071159676629
 20
369.93164676022479
 42
1
  0
VERTEX
  8
0
 10
1769.6159633726793
 20
419.91451340508411
 42
1
  0
SEQEND
  0
POLYLINE
  8
0
 10
0
 20
0
 39
0
 70
1
 66
1
  0
VERTEX
  8
0
 10
1892.7333598210294
 20
207.11547138437641
 42
0.060842119157314301
  0
VERTEX
  8
0
 10
1893.1950729825003
 20
202.28808647154403
 42
-0
  0
VERTEX
  8
0
 10
1916.1796201664652
 20
97.981167094464638
 42
-1.278258204460144
  0
VERTEX
  8
0
 10
1803.6281444171946
 20
100.92843116420866
 42
0
  0
VERTEX
  8
0
 10
1832.0401932465536
 20
203.88946806647607
 42
0.060842119157314301
  0
VERTEX
  8
0
 10
1832.7539198471982
 20
208.68608827039611
 42
-0
  0
VERTEX
  8
0
 10
1837.6357948479226
 20
395.11737598420245
 42
0.034327305853366852
  0
VERTEX
  8
0
 10
1837.4611983595901
 20
399.22809138744429
 42
-0
  0
VERTEX
  8
0
 10
1825.0780257809949
 20
510.25368273582376
 42
-1.1476176977157593
  0
VERTEX
  8
0
 10
1916.1815625198926
 20
507.86805270592254
 42
0
  0
VERTEX
  8
0
 10
1898.0047302497401
 20
397.64270323498022
 42
0.034327238798141479
  0
VERTEX
  8
0
 10
1897.6152348217538
 20
393.54675909818275
 42
0
  0
SEQEND
  0
POLYLINE
  8
0
 10
0
 20
0
 39
0
 70
1
 66
1
  0
VERTEX
  8
0
 10
1858.884039044586
 20
60.508569837147888
 42
1
  0
VERTEX
  8
0
 10
1860.1928864496024
 20
110.4914364820072
 42
1
  0
SEQEND
  0
POLYLINE
  8
0
 10
0
 20
0
 39
0
 70
1
 66
1
  0
VERTEX
  8
0
 10
1927.4974124568239
 20
518.08332870541017
 42
0.060842119157314301
  0
VERTEX
  8
0
 10
1927.035699295353
 20
522.91071361824254
 42
-0
  0
VERTEX
  8
0
 10
1904.0511521113881
 20
627.21763299532199
 42
-1.278258204460144
  0
VERTEX
  8
0
 10
2016.6026278606587
 20
624.27036892557794
 42
0
  0
VERTEX
  8
0
 10
1988.1905790312996
 20
521.3093320233105
 42
0.060842119157314301
  0
VERTEX
  8
0
 10
1987.4768524306551
 20
516.51271181939046
 42
-0
  0
VERTEX
  8
0
 10
1982.5949774299306
 20
330.08142410558412
 42
0.034327305853366852
  0
VERTEX
  8
0
 10
1982.7695739182632
 20
325.97070870234234
 42
-0
  0
VERTEX
  8
0
 10
1995.1527464968583
 20
214.94511735396281
 42
-1.1476176977157593
  0
VERTEX
  8
0
 10
1904.0492097579606
 20
217.33074738386404
 42
0
  0
VERTEX
  8
0
 10
1922.2260420281132
 20
327.55609685480636
 42
0.034327238798141479
  0
VERTEX
  8
0
 10
1922.6155374560994
 20
331.65204099160383
 42
0
  0
SEQEND
  0
POLYLINE
  8
0
 10
0
 20
0
 39
0
 70
1
 66
1
  0
VERTEX
  8
0
 10
1961.3467332332673
 20
664.69023025263868
 42
1
  0
VERTEX
  8
0
 10
1960.0378858282509
 20
614.70736360777937
 42
1
  0
SEQEND
  0
POLYLINE
  8
0
 10
0
 20
0
 39
0
 70
1
 66
1
  0
VERTEX
  8
0
 10
2065.6179752056446
 20
190.00008676899179
 42
0.060842119157314301
  0
VERTEX
  8
0
 10
2066.0796883671155
 20
185.17270185615942
 42
-0
  0
VERTEX
  8
0
 10
2089.0642355510804
 20
80.865782479080025
 42
-1.278258204460144
  0
VERTEX
  8
0
 10
1976.51275980181
 20
83.813046548824047
 42
0
  0
VERTEX
  8
0
 10
2004.9248086311691
 20
186.77408345109146
 42
0.060842119157314301
  0
VERTEX
  8
0
 10
2005.6385352318136
 20
191.5707036550115
 42
-0
  0
VERTEX
  8
0
 10
2010.5204102325381
 20
378.00199136881781
 42
0.034327305853366852
  0
VERTEX
  8
0
 10
2010.3458137442055
 20
382.11270677205965
 42
-0
  0
VERTEX
  8
0
 10
1997.9626411656104
 20
493.13829812043912
 42
-1.1476176977157593
  0
VERTEX
  8
0
 10
2089.0661779045081
 20
490.7526680905379
 42
0
  0
VERTEX
  8
0
 10
2070.8893456343553
 20
380.52731861959558
 42
0.034327238798141479
  0
VERTEX
  8
0
 10
2070.499850206369
 20
376.43137448279811
 42
0
  0
SEQEND
  0
POLYLINE
  8
0
 10
0
 20
0
 39
0
 70
1
 66
1
  0
VERTEX
  8
0
 10
2031.7686544292014
 20
43.393185221763275
 42
1
  0
VERTEX
  8
0
 10
2033.0775018342179
 20
93.376051866622575
 42
1
  0
SEQEND
  0
POLYLINE
  8
0
 10
0
 20
0
 39
0
 70
1
 66
1
  0
VERTEX
  8
0
 10
1995.0720687651115
 20
926.249990611101
 42
0
  0
VERTEX
  8
0
 10
1995.0720691630336
 20
782.05126471374058
 42
-0.26794919371604919
  0
VERTEX
  8
0
 10
1957.5720762813555
 20
717.09936529558024
 42
-0
  0
VERTEX
  8
0
 10
1832.692308022924
 20
644.9999999326941
 42
0
  0
VERTEX
  8
0
 10
1832.6923076250018
 20
789.19872583005451
 42
-0.26794919371604919
  0
VERTEX
  8
0
 10
1870.1923057176532
 20
854.1506266444909
 42
-0
  0
SEQEND
  0
POLYLINE
  8
0
 10
0
 20
0
 39
0
 70
1
 66
1
  0
VERTEX
  8
0
 10
1886.6986118101554
 20
738.54166034227103
 42
1
  0
VERTEX
  8
0
 10
1866.1200652861075
 20
702.89857285643063
 42
1
  0
SEQEND
  0
POLYLINE
  8
0
 10
0
 20
0
 39
0
 70
1
 66
1
  0
VERTEX
  8
0
 10
1961.6443115019279
 20
868.35141768736446
 42
1
  0
VERTEX
  8
0
 10
1941.06576497788
 20
832.70833020152406
 42
1
  0
SEQEND
  0
POLYLINE
  8
0
 10
0
 20
0
 39
0
 70
1
 66
1
  0
VERTEX
  8
0
 10
1932.6321883940177
 20
818.10094733092808
 42
1
  0
VERTEX
  8
0
 10
1895.1321883940177
 20
753.14904321286701
 42
1
  0
SEQEND
  0
POLYLINE
  8
0
 10
0
 20
0
 39
0
 70
1
 66
1
  0
VERTEX
  8
0
 10
2167.7643764574191
 20
972.98075984187017
 42
0
  0
VERTEX
  8
0
 10
2167.7643768553412
 20
828.78203394450975
 42
-0.26794919371604919
  0
VERTEX
  8
0
 10
2130.2643839736629
 20
763.83013452634941
 42
-0
  0
VERTEX
  8
0
 10
2005.3846157152316
 20
691.73076916346326
 42
0
  0
VERTEX
  8
0
 10
2005.3846153173095
 20
835.92949506082368
 42
-0.26794919371604919
  0
VERTEX
  8
0
 10
2042.8846134099608
 20
900.88139587526007
 42
-0
  0
SEQEND
  0
POLYLINE
  8
0
 10
0
 20
0
 39
0
 70
1
 66
1
  0
VERTEX
  8
0
 10
2059.390919502463
 20
785.2724295730402
 42
1
  0
VERTEX
  8
0
 10
2038.8123729784152
 20
749.6293420871998
 42
1
  0
SEQEND
  0
POLYLINE
  8
0
 10
0
 20
0
 39
0
 70
1
 66
1
  0
VERTEX
  8
0
 10
2134.3366191942355
 20
915.08218691813363
 42
1
  0
VERTEX
  8
0
 10
2113.7580726701876
 20
879.43909943229323
 42
1
  0
SEQEND
  0
POLYLINE
  8
0
 10
0
 20
0
 39
0
 70
1
 66
1
  0
VERTEX
  8
0
 10
2105.3244960863253
 20
864.83171656169725
 42
1
  0
VERTEX
  8
0
 10
2067.8244960863253
 20
799.87981244363618
 42
1
  0
SEQEND
  0
POLYLINE
  8
0
 10
0
 20
0
 39
0
 70
1
 66
1
  0
VERTEX
  8
0
 10
1346.8594978371966
 20
372.30769224038647
 42
-0
  0
VERTEX
  8
0
 10
1206.5384614711556
 20
453.32207852091767
 42
-0
  0
VERTEX
  8
0
 10
1206.5384628295028
 20
476.0453879343562
 42
-0
  0
VERTEX
  8
0
 10
1340.5384617359546
 20
553.41032476296948
 42
0
  0
VERTEX
  8
0
 10
1359.8498787273238
 20
542.26087378671434
 42
0
  0
VERTEX
  8
0
 10
1359.8498786608088
 20
379.80769224038647
 42
0
  0
SEQEND
  0
POLYLINE
  8
0
 10
0
 20
0
 39
0
 70
1
 66
1
  0
VERTEX
  8
0
 10
1224.8284080754847
 20
455.42817867866086
 42
1
  0
VERTEX
  8
0
 10
1243.8809699204073
 20
466.42818058600949
 42
1
  0
SEQEND
  0
POLYLINE
  8
0
 10
0
 20
0
 39
0
 70
1
 66
1
  0
VERTEX
  8
0
 10
1329.8284065775981
 20
516.04995716682004
 42
1
  0
VERTEX
  8
0
 10
1348.8809684225207
 20
527.04995907416867
 42
1
  0
SEQEND
  0
POLYLINE
  8
0
 10
0
 20
0
 39
0
 70
1
 66
1
  0
VERTEX
  8
0
 10
1329.8284089783538
 20
394.80640311112927
 42
1
  0
VERTEX
  8
0
 10
1348.8809675196517
 20
405.80640311112927
 42
1
  0
SEQEND
  0
POLYLINE
  8
0
 10
0
 20
0
 39
0
 70
1
 66
1
  0
VERTEX
  8
0
 10
2161.0902670679657
 20
495.76923070192493
 42
-0
  0
VERTEX
  8
0
 10
2020.7692307019247
 20
576.78361698245612
 42
-0
  0
VERTEX
  8
0
 10
2020.7692320602719
 20
599.50692639589465
 42
-0
  0
VERTEX
  8
0
 10
2154.7692309667236
 20
676.87186322450793
 42
0
  0
VERTEX
  8
0
 10
2174.0806479580929
 20
665.72241224825279
 42
0
  0
VERTEX
  8
0
 10
2174.0806478915779
 20
503.26923070192493
 42
0
  0
SEQEND
  0
POLYLINE
  8
0
 10
0
 20
0
 39
0
 70
1
 66
1
  0
VERTEX
  8
0
 10
2039.0591773062538
 20
578.88971714019931
 42
1
  0
VERTEX
  8
0
 10
2058.1117391511762
 20
589.88971904754794
 42
1
  0
SEQEND
  0
POLYLINE
  8
0
 10
0
 20
0
 39
0
 70
1
 66
1
  0
VERTEX
  8
0
 10
2144.0591758083669
 20
639.51149562835849
 42
1
  0
VERTEX
  8
0
 10
2163.1117376532898
 20
650.51149753570712
 42
1
  0
SEQEND
  0
POLYLINE
  8
0
 10
0
 20
0
 39
0
 70
1
 66
1
  0
VERTEX
  8
0
 10
2144.0591782091228
 20
518.26794157266772
 42
1
  0
VERTEX
  8
0
 10
2163.1117367504207
 20
529.26794157266772
 42
1
  0
SEQEND
  0
POLYLINE
  8
0
 10
0
 20
0
 39
0
 70
1
 66
1
  0
VERTEX
  8
0
 10
2216.8594978371966
 20
105.38461531730952
 42
-0
  0
VERTEX
  8
0
 10
2076.5384614711556
 20
186.39900159784071
 42
-0
  0
VERTEX
  8
0
 10
2076.5384628295028
 20
209.12231101127924
 42
-0
  0
VERTEX
  8
0
 10
2210.5384617359546
 20
286.48724783989252
 42
0
  0
VERTEX
  8
0
 10
2229.8498787273238
 20
275.33779686363738
 42
0
  0
VERTEX
  8
0
 10
2229.8498786608088
 20
112.88461531730952
 42
0
  0
SEQEND
  0
POLYLINE
  8
0
 10
0
 20
0
 39
0
 70
1
 66
1
  0
VERTEX
  8
0
 10
2094.8284080754847
 20
188.50510175558389
 42
1
  0
VERTEX
  8
0
 10
2113.8809699204076
 20
199.50510366293253
 42
1
  0
SEQEND
  0
POLYLINE
  8
0
 10
0
 20
0
 39
0
 70
1
 66
1
  0
VERTEX
  8
0
 10
2199.8284065775979
 20
249.12688024374307
 42
1
  0
VERTEX
  8
0
 10
2218.8809684225207
 20
260.12688215109171
 42
1
  0
SEQEND
  0
POLYLINE
  8
0
 10
0
 20
0
 39
0
 70
1
 66
1
  0
VERTEX
  8
0
 10
2199.8284089783538
 20
127.88332618805231
 42
1
  0
VERTEX
  8
0
 10
2218.8809675196517
 20
138.88332618805231
 42
1
  0
SEQEND
  0
POLYLINE
  8
0
 10
0
 20
0
 39
0
 70
1
 66
1
  0
VERTEX
  8
0
 10
2224.167190144889
 20
290.76923070192493
 42
-0
  0
VERTEX
  8
0
 10
2083.846153778848
 20
371.78361698245612
 42
-0
  0
VERTEX
  8
0
 10
2083.8461551371952
 20
394.50692639589465
 42
-0
  0
VERTEX
  8
0
 10
2217.8461540436469
 20
471.87186322450793
 42
0
  0
VERTEX
  8
0
 10
2237.1575710350162
 20
460.72241224825279
 42
0
  0
VERTEX
  8
0
 10
2237.1575709685012
 20
298.26923070192493
 42
0
  0
SEQEND
  0
POLYLINE
  8
0
 10
0
 20
0
 39
0
 70
1
 66
1
  0
VERTEX
  8
0
 10
2102.1361003831771
 20
373.88971714019931
 42
1
  0
VERTEX
  8
0
 10
2121.1886622280999
 20
384.88971904754794
 42
1
  0
SEQEND
  0
POLYLINE
  8
0
 10
0
 20
0
 39
0
 70
1
 66
1
  0
VERTEX
  8
0
 10
2207.1360988852903
 20
434.51149562835849
 42
1
  0
VERTEX
  8
0
 10
2226.1886607302131
 20
445.51149753570712
 42
1
  0
SEQEND
  0
POLYLINE
  8
0
 10
0
 20
0
 39
0
 70
1
 66
1
  0
VERTEX
  8
0
 10
2207.1361012860461
 20
313.26794157266772
 42
1
  0
VERTEX
  8
0
 10
2226.1886598273441
 20
324.26794157266772
 42
1
  0
SEQEND
  0
POLYLINE
  8
0
 10
0
 20
0
 39
0
 70
1
 66
1
  0
VERTEX
  8
0
 10
2248.397959375658
 20
634.9999999326941
 42
-0
  0
VERTEX
  8
0
 10
2108.0769230096171
 20
716.01438621322529
 42
-0
  0
VERTEX
  8
0
 10
2108.0769243679642
 20
738.73769562666382
 42
-0
  0
VERTEX
  8
0
 10
2242.076923274416
 20
816.1026324552771
 42
0
  0
VERTEX
  8
0
 10
2261.3883402657852
 20
804.95318147902196
 42
0
  0
VERTEX
  8
0
 10
2261.3883401992703
 20
642.4999999326941
 42
0
  0
SEQEND
  0
POLYLINE
  8
0
 10
0
 20
0
 39
0
 70
1
 66
1
  0
VERTEX
  8
0
 10
2126.3668696139462
 20
718.12048637096848
 42
1
  0
VERTEX
  8
0
 10
2145.4194314588685
 20
729.12048827831711
 42
1
  0
SEQEND
  0
POLYLINE
  8
0
 10
0
 20
0
 39
0
 70
1
 66
1
  0
VERTEX
  8
0
 10
2231.3668681160593
 20
778.74226485912766
 42
1
  0
VERTEX
  8
0
 10
2250.4194299609821
 20
789.74226676647629
 42
1
  0
SEQEND
  0
POLYLINE
  8
0
 10
0
 20
0
 39
0
 70
1
 66
1
  0
VERTEX
  8
0
 10
2231.3668705168152
 20
657.49871080343689
 42
1
  0
VERTEX
  8
0
 10
2250.4194290581131
 20
668.49871080343689
 42
1
  0
SEQEND
  0
POLYLINE
  8
0
 10
0
 20
0
 39
0
 70
1
 66
1
  0
VERTEX
  8
0
 10
2318.397959375658
 20
784.23076916346326
 42
-0
  0
VERTEX
  8
0
 10
2178.0769230096171
 20
865.24515544399446
 42
-0
  0
VERTEX
  8
0
 10
2178.0769243679642
 20
887.96846485743299
 42
-0
  0
VERTEX
  8
0
 10
2312.076923274416
 20
965.33340168604627
 42
0
  0
VERTEX
  8
0
 10
2331.3883402657852
 20
954.18395070979113
 42
0
  0
VERTEX
  8
0
 10
2331.3883401992703
 20
791.73076916346326
 42
0
  0
SEQEND
  0
POLYLINE
  8
0
 10
0
 20
0
 39
0
 70
1
 66
1
  0
VERTEX
  8
0
 10
2196.3668696139462
 20
867.35125560173765
 42
1
  0
VERTEX
  8
0
 10
2215.4194314588685
 20
878.35125750908628
 42
1
  0
SEQEND
  0
POLYLINE
  8
0
 10
0
 20
0
 39
0
 70
1
 66
1
  0
VERTEX
  8
0
 10
2301.3668681160593
 20
927.97303408989683
 42
1
  0
VERTEX
  8
0
 10
2320.4194299609821
 20
938.97303599724546
 42
1
  0
SEQEND
  0
POLYLINE
  8
0
 10
0
 20
0
 39
0
 70
1
 66
1
  0
VERTEX
  8
0
 10
2301.3668705168152
 20
806.72948003420606
 42
1
  0
VERTEX
  8
0
 10
2320.4194290581131
 20
817.72948003420606
 42
1
  0
SEQEND
  0
POLYLINE
  8
0
 10
0
 20
0
 39
0
 70
1
 66
1
  0
VERTEX
  8
0
 10
2324.7441132218119
 20
422.30769224038647
 42
-0
  0
VERTEX
  8
0
 10
2184.4230768557709
 20
503.32207852091767
 42
-0
  0
VERTEX
  8
0
 10
2184.423078214118
 20
526.0453879343562
 42
-0
  0
VERTEX
  8
0
 10
2318.4230771205698
 20
603.41032476296948
 42
0
  0
VERTEX
  8
0
 10
2337.7344941119391
 20
592.26087378671434
 42
0
  0
VERTEX
  8
0
 10
2337.7344940454241
 20
429.80769224038647
 42
0
  0
SEQEND
  0
POLYLINE
  8
0
 10
0
 20
0
 39
0
 70
1
 66
1
  0
VERTEX
  8
0
 10
2202.7130234601
 20
505.42817867866086
 42
1
  0
VERTEX
  8
0
 10
2221.7655853050228
 20
516.42818058600949
 42
1
  0
SEQEND
  0
POLYLINE
  8
0
 10
0
 20
0
 39
0
 70
1
 66
1
  0
VERTEX
  8
0
 10
2307.7130219622131
 20
566.04995716682004
 42
1
  0
VERTEX
  8
0
 10
2326.765583807136
 20
577.04995907416867
 42
1
  0
SEQEND
  0
POLYLINE
  8
0
 10
0
 20
0
 39
0
 70
1
 66
1
  0
VERTEX
  8
0
 10
2307.713024362969
 20
444.80640311112927
 42
1
  0
VERTEX
  8
0
 10
2326.7655829042669
 20
455.80640311112927
 42
1
  0
SEQEND
  0
POLYLINE
  8
0
 10
0
 20
0
 39
0
 70
1
 66
1
  0
VERTEX
  8
0
 10
2190.3846153173095
 20
23.374996207436681
 42
-0
  0
VERTEX
  8
0
 10
2271.3990015978407
 20
163.69603257347765
 42
-0
  0
VERTEX
  8
0
 10
2294.1223110112792
 20
163.69603121513052
 42
-0
  0
VERTEX
  8
0
 10
2371.4872478398925
 20
29.69603230867876
 42
0
  0
VERTEX
  8
0
 10
2360.3377968636373
 20
10.38461531730951
 42
0
  0
VERTEX
  8
0
 10
2197.8846153173095
 20
10.384615383824467
 42
0
  0
SEQEND
  0
POLYLINE
  8
0
 10
0
 20
0
 39
0
 70
1
 66
1
  0
VERTEX
  8
0
 10
2273.5051017555838
 20
145.40608596914859
 42
1
  0
VERTEX
  8
0
 10
2284.5051036629325
 20
126.35352412422598
 42
1
  0
SEQEND
  0
POLYLINE
  8
0
 10
0
 20
0
 39
0
 70
1
 66
1
  0
VERTEX
  8
0
 10
2334.126880243743
 20
40.406087467035206
 42
1
  0
VERTEX
  8
0
 10
2345.1268821510916
 20
21.353525622112613
 42
1
  0
SEQEND
  0
POLYLINE
  8
0
 10
0
 20
0
 39
0
 70
1
 66
1
  0
VERTEX
  8
0
 10
2212.8833261880523
 20
40.406085066279537
 42
1
  0
VERTEX
  8
0
 10
2223.8833261880523
 20
21.353526524981625
 42
1
  0
SEQEND
  0
POLYLINE
  8
0
 10
0
 20
0
 39
0
 70
1
 66
1
  0
VERTEX
  8
0
 10
2380.5133439910428
 20
125.96153839423259
 42
-0
  0
VERTEX
  8
0
 10
2240.1923076250018
 20
206.97592467476375
 42
-0
  0
VERTEX
  8
0
 10
2240.192308983349
 20
229.69923408820227
 42
-0
  0
VERTEX
  8
0
 10
2374.1923078898008
 20
307.06417091681556
 42
0
  0
VERTEX
  8
0
 10
2393.50372488117
 20
295.91471994056042
 42
0
  0
VERTEX
  8
0
 10
2393.503724814655
 20
133.4615383942326
 42
0
  0
SEQEND
  0
POLYLINE
  8
0
 10
0
 20
0
 39
0
 70
1
 66
1
  0
VERTEX
  8
0
 10
2258.4822542293309
 20
209.08202483250696
 42
1
  0
VERTEX
  8
0
 10
2277.5348160742533
 20
220.08202673985559
 42
1
  0
SEQEND
  0
POLYLINE
  8
0
 10
0
 20
0
 39
0
 70
1
 66
1
  0
VERTEX
  8
0
 10
2363.4822527314441
 20
269.70380332066611
 42
1
  0
VERTEX
  8
0
 10
2382.5348145763669
 20
280.70380522801474
 42
1
  0
SEQEND
  0
POLYLINE
  8
0
 10
0
 20
0
 39
0
 70
1
 66
1
  0
VERTEX
  8
0
 10
2363.4822551322
 20
148.46024926497537
 42
1
  0
VERTEX
  8
0
 10
2382.5348136734979
 20
159.46024926497537
 42
1
  0
SEQEND
  0
POLYLINE
  8
0
 10
0
 20
0
 39
0
 70
1
 66
1
  0
VERTEX
  8
0
 10
2260.4903808228214
 20
438.41032476296942
 42
-0
  0
VERTEX
  8
0
 10
2400.8114171888624
 20
357.39593848243823
 42
-0
  0
VERTEX
  8
0
 10
2400.8114158305152
 20
334.6726290689997
 42
-0
  0
VERTEX
  8
0
 10
2266.8114169240635
 20
257.30769224038642
 42
0
  0
VERTEX
  8
0
 10
2247.4999999326942
 20
268.45714321664155
 42
0
  0
VERTEX
  8
0
 10
2247.4999999992092
 20
430.91032476296942
 42
0
  0
SEQEND
  0
POLYLINE
  8
0
 10
0
 20
0
 39
0
 70
1
 66
1
  0
VERTEX
  8
0
 10
2382.5214705845333
 20
355.28983832469504
 42
1
  0
VERTEX
  8
0
 10
2363.4689087396109
 20
344.28983641734641
 42
1
  0
SEQEND
  0
POLYLINE
  8
0
 10
0
 20
0
 39
0
 70
1
 66
1
  0
VERTEX
  8
0
 10
2277.5214720824197
 20
294.66805983653586
 42
1
  0
VERTEX
  8
0
 10
2258.4689102374973
 20
283.66805792918723
 42
1
  0
SEQEND
  0
POLYLINE
  8
0
 10
0
 20
0
 39
0
 70
1
 66
1
  0
VERTEX
  8
0
 10
2277.5214696816643
 20
415.91161389222663
 42
1
  0
VERTEX
  8
0
 10
2258.4689111403663
 20
404.91161389222663
 42
1
  0
SEQEND
  0
POLYLINE
  8
0
 10
0
 20
0
 39
0
 70
1
 66
1
  0
VERTEX
  8
0
 10
2412.0518055295042
 20
561.53846147115564
 42
-0
  0
VERTEX
  8
0
 10
2271.7307691634633
 20
642.55284775168684
 42
-0
  0
VERTEX
  8
0
 10
2271.7307705218104
 20
665.27615716512537
 42
-0
  0
VERTEX
  8
0
 10
2405.7307694282622
 20
742.64109399373865
 42
0
  0
VERTEX
  8
0
 10
2425.0421864196314
 20
731.49164301748351
 42
0
  0
VERTEX
  8
0
 10
2425.0421863531164
 20
569.03846147115564
 42
0
  0
SEQEND
  0
POLYLINE
  8
0
 10
0
 20
0
 39
0
 70
1
 66
1
  0
VERTEX
  8
0
 10
2290.0207157677924
 20
644.65894790943003
 42
1
  0
VERTEX
  8
0
 10
2309.0732776127152
 20
655.65894981677866
 42
1
  0
SEQEND
  0
POLYLINE
  8
0
 10
0
 20
0
 39
0
 70
1
 66
1
  0
VERTEX
  8
0
 10
2395.0207142699055
 20
705.28072639758921
 42
1
  0
VERTEX
  8
0
 10
2414.0732761148283
 20
716.28072830493784
 42
1
  0
SEQEND
  0
POLYLINE
  8
0
 10
0
 20
0
 39
0
 70
1
 66
1
  0
VERTEX
  8
0
 10
2395.0207166706614
 20
584.03717234189844
 42
1
  0
VERTEX
  8
0
 10
2414.0732752119593
 20
595.03717234189844
 42
1
  0
SEQEND
  0
POLYLINE
  8
0
 10
0
 20
0
 39
0
 70
1
 66
1
  0
VERTEX
  8
0
 10
338
 20
26.384615961990221
 42
0
  0
VERTEX
  8
0
 10
335
 20
29.384615961990221
 42
0
  0
VERTEX
  8
0
 10
335
 20
53.384615961990221
 42
0
  0
VERTEX
  8
0
 10
338
 20
56.384615961990221
 42
0
  0
VERTEX
  8
0
 10
438.87067985534668
 20
56.384615961990235
 42
-0.58976781368255615
  0
VERTEX
  8
0
 10
493.12931823730469
 20
56.384620730361817
 42
0
  0
VERTEX
  8
0
 10
597
 20
56.384615961990249
 42
0
  0
VERTEX
  8
0
 10
597
 20
26.384615961990249
 42
0
  0
VERTEX
  8
0
 10
493.12932014465332
 20
26.384615961990239
 42
-0.58976787328720093
  0
VERTEX
  8
0
 10
438.87067794799805
 20
26.384618823013181
 42
0
  0
SEQEND
  0
POLYLINE
  8
0
 10
0
 20
0
 39
0
 70
1
 66
1
  0
VERTEX
  8
0
 10
352
 20
41.384615961990221
 42
1
  0
VERTEX
  8
0
 10
368
 20
41.384615961990221
 42
1
  0
SEQEND
  0
POLYLINE
  8
0
 10
0
 20
0
 39
0
 70
1
 66
1
  0
VERTEX
  8
0
 10
453
 20
41.384615961990235
 42
1
  0
VERTEX
  8
0
 10
479
 20
41.384615961990235
 42
1
  0
SEQEND
  0
POLYLINE
  8
0
 10
0
 20
0
 39
0
 70
1
 66
1
  0
VERTEX
  8
0
 10
564
 20
41.384615961990249
 42
1
  0
VERTEX
  8
0
 10
580
 20
41.384615961990249
 42
1
  0
SEQEND
  0
POLYLINE
  8
0
 10
0
 20
0
 39
0
 70
1
 66
1
  0
VERTEX
  8
0
 10
370.30769230769232
 20
879.26923134660558
 42
0
  0
VERTEX
  8
0
 10
367.30769230769232
 20
882.26923134660558
 42
0
  0
VERTEX
  8
0
 10
367.30769230769232
 20
906.26923134660558
 42
0
  0
VERTEX
  8
0
 10
370.30769230769232
 20
909.26923134660558
 42
0
  0
VERTEX
  8
0
 10
471.178372163039
 20
909.26923134660558
 42
-0.58976781368255615
  0
VERTEX
  8
0
 10
525.43701054499695
 20
909.26923611497716
 42
0
  0
VERTEX
  8
0
 10
629.30769230769238
 20
909.26923134660558
 42
0
  0
VERTEX
  8
0
 10
629.30769230769238
 20
879.26923134660558
 42
0
  0
VERTEX
  8
0
 10
525.4370124523457
 20
879.26923134660558
 42
-0.58976787328720093
  0
VERTEX
  8
0
 10
471.17837025569037
 20
879.26923420762853
 42
0
  0
SEQEND
  0
POLYLINE
  8
0
 10
0
 20
0
 39
0
 70
1
 66
1
  0
VERTEX
  8
0
 10
384.30769230769232
 20
894.26923134660558
 42
1
  0
VERTEX
  8
0
 10
400.30769230769232
 20
894.26923134660558
 42
1
  0
SEQEND
  0
POLYLINE
  8
0
 10
0
 20
0
 39
0
 70
1
 66
1
  0
VERTEX
  8
0
 10
485.30769230769232
 20
894.26923134660558
 42
1
  0
VERTEX
  8
0
 10
511.30769230769232
 20
894.26923134660558
 42
1
  0
SEQEND
  0
POLYLINE
  8
0
 10
0
 20
0
 39
0
 70
1
 66
1
  0
VERTEX
  8
0
 10
596.30769230769238
 20
894.26923134660558
 42
1
  0
VERTEX
  8
0
 10
612.30769230769238
 20
894.26923134660558
 42
1
  0
SEQEND
  0
POLYLINE
  8
0
 10
0
 20
0
 39
0
 70
1
 66
1
  0
VERTEX
  8
0
 10
659.76923076923072
 20
973.69230934245343
 42
0
  0
VERTEX
  8
0
 10
662.76923076923072
 20
970.69230934245343
 42
0
  0
VERTEX
  8
0
 10
662.76923076923072
 20
946.69230934245343
 42
0
  0
VERTEX
  8
0
 10
659.76923076923072
 20
943.69230934245343
 42
0
  0
VERTEX
  8
0
 10
558.89855091388404
 20
943.69230934245343
 42
-0.58976781368255615
  0
VERTEX
  8
0
 10
504.63991253192603
 20
943.69230457408185
 42
0
  0
VERTEX
  8
0
 10
400.76923076923072
 20
943.69230934245343
 42
0
  0
VERTEX
  8
0
 10
400.76923076923072
 20
973.69230934245343
 42
0
  0
VERTEX
  8
0
 10
504.6399106245774
 20
973.69230934245343
 42
-0.58976787328720093
  0
VERTEX
  8
0
 10
558.89855282123267
 20
973.69230648143048
 42
0
  0
SEQEND
  0
POLYLINE
  8
0
 10
0
 20
0
 39
0
 70
1
 66
1
  0
VERTEX
  8
0
 10
645.76923076923072
 20
958.69230934245343
 42
1
  0
VERTEX
  8
0
 10
629.76923076923072
 20
958.69230934245343
 42
1
  0
SEQEND
  0
POLYLINE
  8
0
 10
0
 20
0
 39
0
 70
1
 66
1
  0
VERTEX
  8
0
 10
544.76923076923072
 20
958.69230934245343
 42
1
  0
VERTEX
  8
0
 10
518.76923076923072
 20
958.69230934245343
 42
1
  0
SEQEND
  0
POLYLINE
  8
0
 10
0
 20
0
 39
0
 70
1
 66
1
  0
VERTEX
  8
0
 10
433.76923076923072
 20
958.69230934245343
 42
1
  0
VERTEX
  8
0
 10
417.76923076923072
 20
958.69230934245343
 42
1
  0
SEQEND
  0
POLYLINE
  8
0
 10
0
 20
0
 39
0
 70
1
 66
1
  0
VERTEX
  8
0
 10
1467.153847803992
 20
667.03846153846155
 42
0
  0
VERTEX
  8
0
 10
1464.153847803992
 20
664.03846153846155
 42
0
  0
VERTEX
  8
0
 10
1440.153847803992
 20
664.03846153846155
 42
0
  0
VERTEX
  8
0
 10
1437.153847803992
 20
667.03846153846155
 42
0
  0
VERTEX
  8
0
 10
1437.153847803992
 20
767.90914139380823
 42
-0.58976781368255615
  0
VERTEX
  8
0
 10
1437.1538430356204
 20
822.16777977576623
 42
0
  0
VERTEX
  8
0
 10
1437.153847803992
 20
926.03846153846155
 42
0
  0
VERTEX
  8
0
 10
1467.153847803992
 20
926.03846153846155
 42
0
  0
VERTEX
  8
0
 10
1467.153847803992
 20
822.16778168311487
 42
-0.58976787328720093
  0
VERTEX
  8
0
 10
1467.153844942969
 20
767.90913948645959
 42
0
  0
SEQEND
  0
POLYLINE
  8
0
 10
0
 20
0
 39
0
 70
1
 66
1
  0
VERTEX
  8
0
 10
1452.153847803992
 20
681.03846153846155
 42
1
  0
VERTEX
  8
0
 10
1452.153847803992
 20
697.03846153846155
 42
1
  0
SEQEND
  0
POLYLINE
  8
0
 10
0
 20
0
 39
0
 70
1
 66
1
  0
VERTEX
  8
0
 10
1452.153847803992
 20
782.03846153846155
 42
1
  0
VERTEX
  8
0
 10
1452.153847803992
 20
808.03846153846155
 42
1
  0
SEQEND
  0
POLYLINE
  8
0
 10
0
 20
0
 39
0
 70
1
 66
1
  0
VERTEX
  8
0
 10
1452.153847803992
 20
893.03846153846155
 42
1
  0
VERTEX
  8
0
 10
1452.153847803992
 20
909.03846153846155
 42
1
  0
SEQEND
  0
POLYLINE
  8
0
 10
0
 20
0
 39
0
 70
1
 66
1
  0
VERTEX
  8
0
 10
1509.0769247270689
 20
13.384615384615387
 42
0
  0
VERTEX
  8
0
 10
1506.0769247270689
 20
10.384615384615387
 42
0
  0
VERTEX
  8
0
 10
1482.0769247270689
 20
10.384615384615387
 42
0
  0
VERTEX
  8
0
 10
1479.0769247270689
 20
13.384615384615387
 42
0
  0
VERTEX
  8
0
 10
1479.0769247270689
 20
114.25529523996207
 42
-0.58976781368255615
  0
VERTEX
  8
0
 10
1479.0769199586973
 20
168.51393362192007
 42
0
  0
VERTEX
  8
0
 10
1479.0769247270689
 20
272.38461538461536
 42
0
  0
VERTEX
  8
0
 10
1509.0769247270689
 20
272.38461538461536
 42
0
  0
VERTEX
  8
0
 10
1509.0769247270689
 20
168.51393552926871
 42
-0.58976787328720093
  0
VERTEX
  8
0
 10
1509.076921866046
 20
114.25529333261343
 42
0
  0
SEQEND
  0
POLYLINE
  8
0
 10
0
 20
0
 39
0
 70
1
 66
1
  0
VERTEX
  8
0
 10
1494.0769247270689
 20
27.384615384615387
 42
1
  0
VERTEX
  8
0
 10
1494.0769247270689
 20
43.384615384615387
 42
1
  0
SEQEND
  0
POLYLINE
  8
0
 10
0
 20
0
 39
0
 70
1
 66
1
  0
VERTEX
  8
0
 10
1494.0769247270689
 20
128.38461538461539
 42
1
  0
VERTEX
  8
0
 10
1494.0769247270689
 20
154.38461538461539
 42
1
  0
SEQEND
  0
POLYLINE
  8
0
 10
0
 20
0
 39
0
 70
1
 66
1
  0
VERTEX
  8
0
 10
1494.0769247270689
 20
239.38461538461539
 42
1
  0
VERTEX
  8
0
 10
1494.0769247270689
 20
255.38461538461539
 42
1
  0
SEQEND
  0
POLYLINE
  8
0
 10
0
 20
0
 39
0
 70
1
 66
1
  0
VERTEX
  8
0
 10
1523.6923093424534
 20
712.42307692307691
 42
0
  0
VERTEX
  8
0
 10
1520.6923093424534
 20
709.42307692307691
 42
0
  0
VERTEX
  8
0
 10
1496.6923093424534
 20
709.42307692307691
 42
0
  0
VERTEX
  8
0
 10
1493.6923093424534
 20
712.42307692307691
 42
0
  0
VERTEX
  8
0
 10
1493.6923093424534
 20
813.29375677842359
 42
-0.58976781368255615
  0
VERTEX
  8
0
 10
1493.6923045740818
 20
867.55239516038159
 42
0
  0
VERTEX
  8
0
 10
1493.6923093424534
 20
971.42307692307691
 42
0
  0
VERTEX
  8
0
 10
1523.6923093424534
 20
971.42307692307691
 42
0
  0
VERTEX
  8
0
 10
1523.6923093424534
 20
867.55239706773023
 42
-0.58976787328720093
  0
VERTEX
  8
0
 10
1523.6923064814305
 20
813.29375487107495
 42
0
  0
SEQEND
  0
POLYLINE
  8
0
 10
0
 20
0
 39
0
 70
1
 66
1
  0
VERTEX
  8
0
 10
1508.6923093424534
 20
726.42307692307691
 42
1
  0
VERTEX
  8
0
 10
1508.6923093424534
 20
742.42307692307691
 42
1
  0
SEQEND
  0
POLYLINE
  8
0
 10
0
 20
0
 39
0
 70
1
 66
1
  0
VERTEX
  8
0
 10
1508.6923093424534
 20
827.42307692307691
 42
1
  0
VERTEX
  8
0
 10
1508.6923093424534
 20
853.42307692307691
 42
1
  0
SEQEND
  0
POLYLINE
  8
0
 10
0
 20
0
 39
0
 70
1
 66
1
  0
VERTEX
  8
0
 10
1508.6923093424534
 20
938.42307692307691
 42
1
  0
VERTEX
  8
0
 10
1508.6923093424534
 20
954.42307692307691
 42
1
  0
SEQEND
  0
POLYLINE
  8
0
 10
0
 20
0
 39
0
 70
1
 66
1
  0
VERTEX
  8
0
 10
1992.8461538461538
 20
966.5769247270689
 42
0
  0
VERTEX
  8
0
 10
1995.8461538461538
 20
963.5769247270689
 42
0
  0
VERTEX
  8
0
 10
1995.8461538461538
 20
939.5769247270689
 42
0
  0
VERTEX
  8
0
 10
1992.8461538461538
 20
936.5769247270689
 42
0
  0
VERTEX
  8
0
 10
1891.9754739908071
 20
936.5769247270689
 42
-0.58976781368255615
  0
VERTEX
  8
0
 10
1837.7168356088491
 20
936.57691995869732
 42
0
  0
VERTEX
  8
0
 10
1733.8461538461538
 20
936.5769247270689
 42
0
  0
VERTEX
  8
0
 10
1733.8461538461538
 20
966.5769247270689
 42
0
  0
VERTEX
  8
0
 10
1837.7168337015005
 20
966.5769247270689
 42
-0.58976787328720093
  0
VERTEX
  8
0
 10
1891.9754758981558
 20
966.57692186604595
 42
0
  0
SEQEND
  0
POLYLINE
  8
0
 10
0
 20
0
 39
0
 70
1
 66
1
  0
VERTEX
  8
0
 10
1978.8461538461538
 20
951.5769247270689
 42
1
  0
VERTEX
  8
0
 10
1962.8461538461538
 20
951.5769247270689
 42
1
  0
SEQEND
  0
POLYLINE
  8
0
 10
0
 20
0
 39
0
 70
1
 66
1
  0
VERTEX
  8
0
 10
1877.8461538461538
 20
951.5769247270689
 42
1
  0
VERTEX
  8
0
 10
1851.8461538461538
 20
951.5769247270689
 42
1
  0
SEQEND
  0
POLYLINE
  8
0
 10
0
 20
0
 39
0
 70
1
 66
1
  0
VERTEX
  8
0
 10
1766.8461538461538
 20
951.5769247270689
 42
1
  0
VERTEX
  8
0
 10
1750.8461538461538
 20
951.5769247270689
 42
1
  0
SEQEND
  0
POLYLINE
  8
0
 10
0
 20
0
 39
0
 70
1
 66
1
  0
VERTEX
  8
0
 10
2441.384617034761
 20
262.23076923076923
 42
0
  0
VERTEX
  8
0
 10
2438.384617034761
 20
259.23076923076923
 42
0
  0
VERTEX
  8
0
 10
2414.384617034761
 20
259.23076923076923
 42
0
  0
VERTEX
  8
0
 10
2411.384617034761
 20
262.23076923076923
 42
0
  0
VERTEX
  8
0
 10
2411.384617034761
 20
363.10144908611591
 42
-0.58976781368255615
  0
VERTEX
  8
0
 10
2411.3846122663895
 20
417.36008746807391
 42
0
  0
VERTEX
  8
0
 10
2411.384617034761
 20
521.23076923076928
 42
0
  0
VERTEX
  8
0
 10
2441.384617034761
 20
521.23076923076928
 42
0
  0
VERTEX
  8
0
 10
2441.384617034761
 20
417.36008937542255
 42
-0.58976787328720093
  0
VERTEX
  8
0
 10
2441.3846141737381
 20
363.10144717876727
 42
0
  0
SEQEND
  0
POLYLINE
  8
0
 10
0
 20
0
 39
0
 70
1
 66
1
  0
VERTEX
  8
0
 10
2426.384617034761
 20
276.23076923076923
 42
1
  0
VERTEX
  8
0
 10
2426.384617034761
 20
292.23076923076923
 42
1
  0
SEQEND
  0
POLYLINE
  8
0
 10
0
 20
0
 39
0
 70
1
 66
1
  0
VERTEX
  8
0
 10
2426.384617034761
 20
377.23076923076923
 42
1
  0
VERTEX
  8
0
 10
2426.384617034761
 20
403.23076923076923
 42
1
  0
SEQEND
  0
POLYLINE
  8
0
 10
0
 20
0
 39
0
 70
1
 66
1
  0
VERTEX
  8
0
 10
2426.384617034761
 20
488.23076923076923
 42
1
  0
VERTEX
  8
0
 10
2426.384617034761
 20
504.23076923076923
 42
1
  0
SEQEND
  0
POLYLINE
  8
0
 10
0
 20
0
 39
0
 70
1
 66
1
  0
VERTEX
  8
0
 10
2465.6153862655306
 20
636.26923076923072
 42
0
  0
VERTEX
  8
0
 10
2462.6153862655306
 20
633.26923076923072
 42
0
  0
VERTEX
  8
0
 10
2438.6153862655306
 20
633.26923076923072
 42
0
  0
VERTEX
  8
0
 10
2435.6153862655306
 20
636.26923076923072
 42
0
  0
VERTEX
  8
0
 10
2435.6153862655306
 20
737.1399106245774
 42
-0.58976781368255615
  0
VERTEX
  8
0
 10
2435.615381497159
 20
791.3985490065354
 42
0
  0
VERTEX
  8
0
 10
2435.6153862655306
 20
895.26923076923072
 42
0
  0
VERTEX
  8
0
 10
2465.6153862655306
 20
895.26923076923072
 42
0
  0
VERTEX
  8
0
 10
2465.6153862655306
 20
791.39855091388404
 42
-0.58976787328720093
  0
VERTEX
  8
0
 10
2465.6153834045076
 20
737.13990871722876
 42
0
  0
SEQEND
  0
POLYLINE
  8
0
 10
0
 20
0
 39
0
 70
1
 66
1
  0
VERTEX
  8
0
 10
2450.6153862655306
 20
650.26923076923072
 42
1
  0
VERTEX
  8
0
 10
2450.6153862655306
 20
666.26923076923072
 42
1
  0
SEQEND
  0
POLYLINE
  8
0
 10
0
 20
0
 39
0
 70
1
 66
1
  0
VERTEX
  8
0
 10
2450.6153862655306
 20
751.26923076923072
 42
1
  0
VERTEX
  8
0
 10
2450.6153862655306
 20
777.26923076923072
 42
1
  0
SEQEND
  0
POLYLINE
  8
0
 10
0
 20
0
 39
0
 70
1
 66
1
  0
VERTEX
  8
0
 10
2450.6153862655306
 20
862.26923076923072
 42
1
  0
VERTEX
  8
0
 10
2450.6153862655306
 20
878.26923076923072
 42
1
  0
SEQEND
  0
POLYLINE
  8
0
 10
0
 20
0
 39
0
 70
1
 66
1
  0
VERTEX
  8
0
 10
44.384615384615387
 20
783.84615384615381
 42
-0
  0
VERTEX
  8
0
 10
44.384615384615387
 20
683.84615384615381
 42
-0
  0
VERTEX
  8
0
 10
10.38461538461539
 20
683.84615384615381
 42
-0
  0
VERTEX
  8
0
 10
10.384615384615385
 20
783.84615384615381
 42
-0
  0
SEQEND
  0
POLYLINE
  8
0
 10
0
 20
0
 39
0
 70
1
 66
1
  0
VERTEX
  8
0
 10
27.384615384615387
 20
760.34615384615381
 42
1
  0
VERTEX
  8
0
 10
27.384615384615383
 20
777.34615384615381
 42
1
  0
SEQEND
  0
POLYLINE
  8
0
 10
0
 20
0
 39
0
 70
1
 66
1
  0
VERTEX
  8
0
 10
27.38461538461539
 20
690.34615384615381
 42
1
  0
VERTEX
  8
0
 10
27.38461538461539
 20
707.34615384615381
 42
1
  0
SEQEND
  0
POLYLINE
  8
0
 10
0
 20
0
 39
0
 70
1
 66
1
  0
VERTEX
  8
0
 10
10.384615384615387
 20
233.03846153846152
 42
-0
  0
VERTEX
  8
0
 10
110.38461538461539
 20
233.03846153846152
 42
-0
  0
VERTEX
  8
0
 10
110.38461538461539
 20
199.03846153846152
 42
-0
  0
VERTEX
  8
0
 10
10.384615384615387
 20
199.03846153846152
 42
-0
  0
SEQEND
  0
POLYLINE
  8
0
 10
0
 20
0
 39
0
 70
1
 66
1
  0
VERTEX
  8
0
 10
33.884615384615387
 20
216.03846153846152
 42
1
  0
VERTEX
  8
0
 10
16.884615384615387
 20
216.03846153846152
 42
1
  0
SEQEND
  0
POLYLINE
  8
0
 10
0
 20
0
 39
0
 70
1
 66
1
  0
VERTEX
  8
0
 10
103.88461538461539
 20
216.03846153846152
 42
1
  0
VERTEX
  8
0
 10
86.884615384615387
 20
216.03846153846152
 42
1
  0
SEQEND
  0
POLYLINE
  8
0
 10
0
 20
0
 39
0
 70
1
 66
1
  0
VERTEX
  8
0
 10
10.384615384615387
 20
490.92307692307691
 42
-0
  0
VERTEX
  8
0
 10
110.38461538461539
 20
490.92307692307691
 42
-0
  0
VERTEX
  8
0
 10
110.38461538461539
 20
456.92307692307691
 42
-0
  0
VERTEX
  8
0
 10
10.384615384615387
 20
456.92307692307691
 42
-0
  0
SEQEND
  0
POLYLINE
  8
0
 10
0
 20
0
 39
0
 70
1
 66
1
  0
VERTEX
  8
0
 10
33.884615384615387
 20
473.92307692307691
 42
1
  0
VERTEX
  8
0
 10
16.884615384615387
 20
473.92307692307691
 42
1
  0
SEQEND
  0
POLYLINE
  8
0
 10
0
 20
0
 39
0
 70
1
 66
1
  0
VERTEX
  8
0
 10
103.88461538461539
 20
473.92307692307691
 42
1
  0
VERTEX
  8
0
 10
86.884615384615387
 20
473.92307692307691
 42
1
  0
SEQEND
  0
POLYLINE
  8
0
 10
0
 20
0
 39
0
 70
1
 66
1
  0
VERTEX
  8
0
 10
54.615384615384613
 20
769.57692307692309
 42
-0
  0
VERTEX
  8
0
 10
154.61538461538461
 20
769.57692307692309
 42
-0
  0
VERTEX
  8
0
 10
154.61538461538461
 20
735.57692307692309
 42
-0
  0
VERTEX
  8
0
 10
54.615384615384613
 20
735.57692307692309
 42
-0
  0
SEQEND
  0
POLYLINE
  8
0
 10
0
 20
0
 39
0
 70
1
 66
1
  0
VERTEX
  8
0
 10
78.115384615384613
 20
752.57692307692309
 42
1
  0
VERTEX
  8
0
 10
61.115384615384613
 20
752.57692307692309
 42
1
  0
SEQEND
  0
POLYLINE
  8
0
 10
0
 20
0
 39
0
 70
1
 66
1
  0
VERTEX
  8
0
 10
148.11538461538461
 20
752.57692307692309
 42
1
  0
VERTEX
  8
0
 10
131.11538461538461
 20
752.57692307692309
 42
1
  0
SEQEND
  0
POLYLINE
  8
0
 10
0
 20
0
 39
0
 70
1
 66
1
  0
VERTEX
  8
0
 10
707.07692307692309
 20
963.26923076923072
 42
-0
  0
VERTEX
  8
0
 10
707.07692307692309
 20
863.26923076923072
 42
-0
  0
VERTEX
  8
0
 10
673.07692307692309
 20
863.26923076923072
 42
-0
  0
VERTEX
  8
0
 10
673.07692307692309
 20
963.26923076923072
 42
-0
  0
SEQEND
  0
POLYLINE
  8
0
 10
0
 20
0
 39
0
 70
1
 66
1
  0
VERTEX
  8
0
 10
690.07692307692309
 20
939.76923076923072
 42
1
  0
VERTEX
  8
0
 10
690.07692307692309
 20
956.76923076923072
 42
1
  0
SEQEND
  0
POLYLINE
  8
0
 10
0
 20
0
 39
0
 70
1
 66
1
  0
VERTEX
  8
0
 10
690.07692307692309
 20
869.76923076923072
 42
1
  0
VERTEX
  8
0
 10
690.07692307692309
 20
886.76923076923072
 42
1
  0
SEQEND
  0
POLYLINE
  8
0
 10
0
 20
0
 39
0
 70
1
 66
1
  0
VERTEX
  8
0
 10
607.30769230769226
 20
44.384615384615387
 42
-0
  0
VERTEX
  8
0
 10
707.30769230769226
 20
44.384615384615387
 42
-0
  0
VERTEX
  8
0
 10
707.30769230769226
 20
10.384615384615383
 42
-0
  0
VERTEX
  8
0
 10
607.30769230769226
 20
10.384615384615383
 42
-0
  0
SEQEND
  0
POLYLINE
  8
0
 10
0
 20
0
 39
0
 70
1
 66
1
  0
VERTEX
  8
0
 10
630.80769230769226
 20
27.384615384615383
 42
1
  0
VERTEX
  8
0
 10
613.80769230769226
 20
27.384615384615383
 42
1
  0
SEQEND
  0
POLYLINE
  8
0
 10
0
 20
0
 39
0
 70
1
 66
1
  0
VERTEX
  8
0
 10
700.80769230769226
 20
27.384615384615383
 42
1
  0
VERTEX
  8
0
 10
683.80769230769226
 20
27.384615384615383
 42
1
  0
SEQEND
  0
POLYLINE
  8
0
 10
0
 20
0
 39
0
 70
1
 66
1
  0
VERTEX
  8
0
 10
751.30769230769226
 20
963.26923076923072
 42
-0
  0
VERTEX
  8
0
 10
751.30769230769226
 20
863.26923076923072
 42
-0
  0
VERTEX
  8
0
 10
717.30769230769226
 20
863.26923076923072
 42
-0
  0
VERTEX
  8
0
 10
717.30769230769226
 20
963.26923076923072
 42
-0
  0
SEQEND
  0
POLYLINE
  8
0
 10
0
 20
0
 39
0
 70
1
 66
1
  0
VERTEX
  8
0
 10
734.30769230769226
 20
939.76923076923072
 42
1
  0
VERTEX
  8
0
 10
734.30769230769226
 20
956.76923076923072
 42
1
  0
SEQEND
  0
POLYLINE
  8
0
 10
0
 20
0
 39
0
 70
1
 66
1
  0
VERTEX
  8
0
 10
734.30769230769226
 20
869.76923076923072
 42
1
  0
VERTEX
  8
0
 10
734.30769230769226
 20
886.76923076923072
 42
1
  0
SEQEND
  0
POLYLINE
  8
0
 10
0
 20
0
 39
0
 70
1
 66
1
  0
VERTEX
  8
0
 10
795.53846153846155
 20
953.07692307692309
 42
-0
  0
VERTEX
  8
0
 10
795.53846153846155
 20
853.07692307692309
 42
-0
  0
VERTEX
  8
0
 10
761.53846153846155
 20
853.07692307692309
 42
-0
  0
VERTEX
  8
0
 10
761.53846153846155
 20
953.07692307692309
 42
-0
  0
SEQEND
  0
POLYLINE
  8
0
 10
0
 20
0
 39
0
 70
1
 66
1
  0
VERTEX
  8
0
 10
778.53846153846155
 20
929.57692307692309
 42
1
  0
VERTEX
  8
0
 10
778.53846153846155
 20
946.57692307692309
 42
1
  0
SEQEND
  0
POLYLINE
  8
0
 10
0
 20
0
 39
0
 70
1
 66
1
  0
VERTEX
  8
0
 10
778.53846153846155
 20
859.57692307692309
 42
1
  0
VERTEX
  8
0
 10
778.53846153846155
 20
876.57692307692309
 42
1
  0
SEQEND
  0
POLYLINE
  8
0
 10
0
 20
0
 39
0
 70
1
 66
1
  0
VERTEX
  8
0
 10
717.69230769230762
 20
44.384615384615387
 42
-0
  0
VERTEX
  8
0
 10
817.69230769230762
 20
44.384615384615387
 42
-0
  0
VERTEX
  8
0
 10
817.69230769230762
 20
10.384615384615383
 42
-0
  0
VERTEX
  8
0
 10
717.69230769230762
 20
10.384615384615383
 42
-0
  0
SEQEND
  0
POLYLINE
  8
0
 10
0
 20
0
 39
0
 70
1
 66
1
  0
VERTEX
  8
0
 10
741.19230769230762
 20
27.384615384615383
 42
1
  0
VERTEX
  8
0
 10
724.19230769230762
 20
27.384615384615383
 42
1
  0
SEQEND
  0
POLYLINE
  8
0
 10
0
 20
0
 39
0
 70
1
 66
1
  0
VERTEX
  8
0
 10
811.19230769230762
 20
27.384615384615383
 42
1
  0
VERTEX
  8
0
 10
794.19230769230762
 20
27.384615384615383
 42
1
  0
SEQEND
  0
POLYLINE
  8
0
 10
0
 20
0
 39
0
 70
1
 66
1
  0
VERTEX
  8
0
 10
839.76923076923072
 20
936.92307692307691
 42
-0
  0
VERTEX
  8
0
 10
839.76923076923072
 20
836.92307692307691
 42
-0
  0
VERTEX
  8
0
 10
805.76923076923072
 20
836.92307692307691
 42
-0
  0
VERTEX
  8
0
 10
805.76923076923072
 20
936.92307692307691
 42
-0
  0
SEQEND
  0
POLYLINE
  8
0
 10
0
 20
0
 39
0
 70
1
 66
1
  0
VERTEX
  8
0
 10
822.76923076923072
 20
913.42307692307691
 42
1
  0
VERTEX
  8
0
 10
822.76923076923072
 20
930.42307692307691
 42
1
  0
SEQEND
  0
POLYLINE
  8
0
 10
0
 20
0
 39
0
 70
1
 66
1
  0
VERTEX
  8
0
 10
822.76923076923072
 20
843.42307692307691
 42
1
  0
VERTEX
  8
0
 10
822.76923076923072
 20
860.42307692307691
 42
1
  0
SEQEND
  0
POLYLINE
  8
0
 10
0
 20
0
 39
0
 70
1
 66
1
  0
VERTEX
  8
0
 10
974.61538461538453
 20
809.57692307692309
 42
-0
  0
VERTEX
  8
0
 10
1074.6153846153845
 20
809.57692307692309
 42
-0
  0
VERTEX
  8
0
 10
1074.6153846153845
 20
775.57692307692309
 42
-0
  0
VERTEX
  8
0
 10
974.61538461538453
 20
775.57692307692309
 42
-0
  0
SEQEND
  0
POLYLINE
  8
0
 10
0
 20
0
 39
0
 70
1
 66
1
  0
VERTEX
  8
0
 10
998.11538461538453
 20
792.57692307692309
 42
1
  0
VERTEX
  8
0
 10
981.11538461538453
 20
792.57692307692309
 42
1
  0
SEQEND
  0
POLYLINE
  8
0
 10
0
 20
0
 39
0
 70
1
 66
1
  0
VERTEX
  8
0
 10
1068.1153846153845
 20
792.57692307692309
 42
1
  0
VERTEX
  8
0
 10
1051.1153846153845
 20
792.57692307692309
 42
1
  0
SEQEND
  0
POLYLINE
  8
0
 10
0
 20
0
 39
0
 70
1
 66
1
  0
VERTEX
  8
0
 10
1072.5
 20
258.23076923076923
 42
-0
  0
VERTEX
  8
0
 10
1172.5
 20
258.23076923076923
 42
-0
  0
VERTEX
  8
0
 10
1172.5
 20
224.23076923076923
 42
-0
  0
VERTEX
  8
0
 10
1072.5
 20
224.23076923076923
 42
-0
  0
SEQEND
  0
POLYLINE
  8
0
 10
0
 20
0
 39
0
 70
1
 66
1
  0
VERTEX
  8
0
 10
1096
 20
241.23076923076923
 42
1
  0
VERTEX
  8
0
 10
1079
 20
241.23076923076923
 42
1
  0
SEQEND
  0
POLYLINE
  8
0
 10
0
 20
0
 39
0
 70
1
 66
1
  0
VERTEX
  8
0
 10
1166
 20
241.23076923076923
 42
1
  0
VERTEX
  8
0
 10
1149
 20
241.23076923076923
 42
1
  0
SEQEND
  0
POLYLINE
  8
0
 10
0
 20
0
 39
0
 70
1
 66
1
  0
VERTEX
  8
0
 10
1072.5
 20
516.11538461538453
 42
-0
  0
VERTEX
  8
0
 10
1172.5
 20
516.11538461538453
 42
-0
  0
VERTEX
  8
0
 10
1172.5
 20
482.11538461538458
 42
-0
  0
VERTEX
  8
0
 10
1072.5
 20
482.11538461538458
 42
-0
  0
SEQEND
  0
POLYLINE
  8
0
 10
0
 20
0
 39
0
 70
1
 66
1
  0
VERTEX
  8
0
 10
1096
 20
499.11538461538458
 42
1
  0
VERTEX
  8
0
 10
1079
 20
499.11538461538458
 42
1
  0
SEQEND
  0
POLYLINE
  8
0
 10
0
 20
0
 39
0
 70
1
 66
1
  0
VERTEX
  8
0
 10
1166
 20
499.11538461538458
 42
1
  0
VERTEX
  8
0
 10
1149
 20
499.11538461538458
 42
1
  0
SEQEND
  0
POLYLINE
  8
0
 10
0
 20
0
 39
0
 70
1
 66
1
  0
VERTEX
  8
0
 10
1083.6538461538462
 20
769.96153846153845
 42
-0
  0
VERTEX
  8
0
 10
1183.6538461538462
 20
769.96153846153845
 42
-0
  0
VERTEX
  8
0
 10
1183.6538461538462
 20
735.96153846153845
 42
-0
  0
VERTEX
  8
0
 10
1083.6538461538462
 20
735.96153846153845
 42
-0
  0
SEQEND
  0
POLYLINE
  8
0
 10
0
 20
0
 39
0
 70
1
 66
1
  0
VERTEX
  8
0
 10
1107.1538461538462
 20
752.96153846153845
 42
1
  0
VERTEX
  8
0
 10
1090.1538461538462
 20
752.96153846153845
 42
1
  0
SEQEND
  0
POLYLINE
  8
0
 10
0
 20
0
 39
0
 70
1
 66
1
  0
VERTEX
  8
0
 10
1177.1538461538462
 20
752.96153846153845
 42
1
  0
VERTEX
  8
0
 10
1160.1538461538462
 20
752.96153846153845
 42
1
  0
SEQEND
  0
POLYLINE
  8
0
 10
0
 20
0
 39
0
 70
1
 66
1
  0
VERTEX
  8
0
 10
1228.0384615384614
 20
795.96153846153845
 42
-0
  0
VERTEX
  8
0
 10
1228.0384615384614
 20
695.96153846153845
 42
-0
  0
VERTEX
  8
0
 10
1194.0384615384614
 20
695.96153846153845
 42
-0
  0
VERTEX
  8
0
 10
1194.0384615384614
 20
795.96153846153845
 42
-0
  0
SEQEND
  0
POLYLINE
  8
0
 10
0
 20
0
 39
0
 70
1
 66
1
  0
VERTEX
  8
0
 10
1211.0384615384614
 20
772.46153846153845
 42
1
  0
VERTEX
  8
0
 10
1211.0384615384614
 20
789.46153846153845
 42
1
  0
SEQEND
  0
POLYLINE
  8
0
 10
0
 20
0
 39
0
 70
1
 66
1
  0
VERTEX
  8
0
 10
1211.0384615384614
 20
702.46153846153845
 42
1
  0
VERTEX
  8
0
 10
1211.0384615384614
 20
719.46153846153845
 42
1
  0
SEQEND
  0
POLYLINE
  8
0
 10
0
 20
0
 39
0
 70
1
 66
1
  0
VERTEX
  8
0
 10
1282.6923076923076
 20
597.46153846153845
 42
-0
  0
VERTEX
  8
0
 10
1382.6923076923076
 20
597.46153846153845
 42
-0
  0
VERTEX
  8
0
 10
1382.6923076923076
 20
563.46153846153845
 42
-0
  0
VERTEX
  8
0
 10
1282.6923076923076
 20
563.46153846153845
 42
-0
  0
SEQEND
  0
POLYLINE
  8
0
 10
0
 20
0
 39
0
 70
1
 66
1
  0
VERTEX
  8
0
 10
1306.1923076923076
 20
580.46153846153845
 42
1
  0
VERTEX
  8
0
 10
1289.1923076923076
 20
580.46153846153845
 42
1
  0
SEQEND
  0
POLYLINE
  8
0
 10
0
 20
0
 39
0
 70
1
 66
1
  0
VERTEX
  8
0
 10
1376.1923076923076
 20
580.46153846153845
 42
1
  0
VERTEX
  8
0
 10
1359.1923076923076
 20
580.46153846153845
 42
1
  0
SEQEND
  0
POLYLINE
  8
0
 10
0
 20
0
 39
0
 70
1
 66
1
  0
VERTEX
  8
0
 10
1404.1923076923076
 20
463.26923076923077
 42
-0
  0
VERTEX
  8
0
 10
1404.1923076923076
 20
363.26923076923077
 42
-0
  0
VERTEX
  8
0
 10
1370.1923076923076
 20
363.26923076923077
 42
-0
  0
VERTEX
  8
0
 10
1370.1923076923076
 20
463.26923076923077
 42
-0
  0
SEQEND
  0
POLYLINE
  8
0
 10
0
 20
0
 39
0
 70
1
 66
1
  0
VERTEX
  8
0
 10
1387.1923076923076
 20
439.76923076923077
 42
1
  0
VERTEX
  8
0
 10
1387.1923076923076
 20
456.76923076923077
 42
1
  0
SEQEND
  0
POLYLINE
  8
0
 10
0
 20
0
 39
0
 70
1
 66
1
  0
VERTEX
  8
0
 10
1387.1923076923076
 20
369.76923076923077
 42
1
  0
VERTEX
  8
0
 10
1387.1923076923076
 20
386.76923076923077
 42
1
  0
SEQEND
  0
POLYLINE
  8
0
 10
0
 20
0
 39
0
 70
1
 66
1
  0
VERTEX
  8
0
 10
1553.4230769230769
 20
274.23076923076923
 42
-0
  0
VERTEX
  8
0
 10
1553.4230769230769
 20
174.23076923076923
 42
-0
  0
VERTEX
  8
0
 10
1519.4230769230769
 20
174.23076923076923
 42
-0
  0
VERTEX
  8
0
 10
1519.4230769230769
 20
274.23076923076923
 42
-0
  0
SEQEND
  0
POLYLINE
  8
0
 10
0
 20
0
 39
0
 70
1
 66
1
  0
VERTEX
  8
0
 10
1536.4230769230769
 20
250.73076923076923
 42
1
  0
VERTEX
  8
0
 10
1536.4230769230769
 20
267.73076923076923
 42
1
  0
SEQEND
  0
POLYLINE
  8
0
 10
0
 20
0
 39
0
 70
1
 66
1
  0
VERTEX
  8
0
 10
1536.4230769230769
 20
180.73076923076923
 42
1
  0
VERTEX
  8
0
 10
1536.4230769230769
 20
197.73076923076923
 42
1
  0
SEQEND
  0
POLYLINE
  8
0
 10
0
 20
0
 39
0
 70
1
 66
1
  0
VERTEX
  8
0
 10
1555.7307692307693
 20
110.38461538461539
 42
-0
  0
VERTEX
  8
0
 10
1555.7307692307693
 20
10.384615384615385
 42
-0
  0
VERTEX
  8
0
 10
1521.7307692307693
 20
10.384615384615383
 42
-0
  0
VERTEX
  8
0
 10
1521.7307692307693
 20
110.38461538461539
 42
-0
  0
SEQEND
  0
POLYLINE
  8
0
 10
0
 20
0
 39
0
 70
1
 66
1
  0
VERTEX
  8
0
 10
1538.7307692307693
 20
86.884615384615387
 42
1
  0
VERTEX
  8
0
 10
1538.7307692307693
 20
103.88461538461539
 42
1
  0
SEQEND
  0
POLYLINE
  8
0
 10
0
 20
0
 39
0
 70
1
 66
1
  0
VERTEX
  8
0
 10
1538.7307692307693
 20
16.884615384615383
 42
1
  0
VERTEX
  8
0
 10
1538.7307692307693
 20
33.884615384615387
 42
1
  0
SEQEND
  0
POLYLINE
  8
0
 10
0
 20
0
 39
0
 70
1
 66
1
  0
VERTEX
  8
0
 10
1635.5384615384614
 20
495.57692307692304
 42
-0
  0
VERTEX
  8
0
 10
1635.5384615384614
 20
395.57692307692304
 42
-0
  0
VERTEX
  8
0
 10
1601.5384615384614
 20
395.57692307692304
 42
-0
  0
VERTEX
  8
0
 10
1601.5384615384614
 20
495.57692307692304
 42
-0
  0
SEQEND
  0
POLYLINE
  8
0
 10
0
 20
0
 39
0
 70
1
 66
1
  0
VERTEX
  8
0
 10
1618.5384615384614
 20
472.07692307692304
 42
1
  0
VERTEX
  8
0
 10
1618.5384615384614
 20
489.07692307692304
 42
1
  0
SEQEND
  0
POLYLINE
  8
0
 10
0
 20
0
 39
0
 70
1
 66
1
  0
VERTEX
  8
0
 10
1618.5384615384614
 20
402.07692307692304
 42
1
  0
VERTEX
  8
0
 10
1618.5384615384614
 20
419.07692307692304
 42
1
  0
SEQEND
  0
POLYLINE
  8
0
 10
0
 20
0
 39
0
 70
1
 66
1
  0
VERTEX
  8
0
 10
1635.5384615384614
 20
605.76923076923072
 42
-0
  0
VERTEX
  8
0
 10
1635.5384615384614
 20
505.76923076923077
 42
-0
  0
VERTEX
  8
0
 10
1601.5384615384614
 20
505.76923076923077
 42
-0
  0
VERTEX
  8
0
 10
1601.5384615384614
 20
605.76923076923072
 42
-0
  0
SEQEND
  0
POLYLINE
  8
0
 10
0
 20
0
 39
0
 70
1
 66
1
  0
VERTEX
  8
0
 10
1618.5384615384614
 20
582.26923076923072
 42
1
  0
VERTEX
  8
0
 10
1618.5384615384614
 20
599.26923076923072
 42
1
  0
SEQEND
  0
POLYLINE
  8
0
 10
0
 20
0
 39
0
 70
1
 66
1
  0
VERTEX
  8
0
 10
1618.5384615384614
 20
512.26923076923083
 42
1
  0
VERTEX
  8
0
 10
1618.5384615384614
 20
529.26923076923072
 42
1
  0
SEQEND
  0
POLYLINE
  8
0
 10
0
 20
0
 39
0
 70
1
 66
1
  0
VERTEX
  8
0
 10
1679.7692307692307
 20
479.80769230769232
 42
-0
  0
VERTEX
  8
0
 10
1679.7692307692307
 20
379.80769230769232
 42
-0
  0
VERTEX
  8
0
 10
1645.7692307692307
 20
379.80769230769232
 42
-0
  0
VERTEX
  8
0
 10
1645.7692307692307
 20
479.80769230769232
 42
-0
  0
SEQEND
  0
POLYLINE
  8
0
 10
0
 20
0
 39
0
 70
1
 66
1
  0
VERTEX
  8
0
 10
1662.7692307692307
 20
456.30769230769232
 42
1
  0
VERTEX
  8
0
 10
1662.7692307692307
 20
473.30769230769232
 42
1
  0
SEQEND
  0
POLYLINE
  8
0
 10
0
 20
0
 39
0
 70
1
 66
1
  0
VERTEX
  8
0
 10
1662.7692307692307
 20
386.30769230769232
 42
1
  0
VERTEX
  8
0
 10
1662.7692307692307
 20
403.30769230769232
 42
1
  0
SEQEND
  0
POLYLINE
  8
0
 10
0
 20
0
 39
0
 70
1
 66
1
  0
VERTEX
  8
0
 10
1679.7692307692307
 20
590
 42
-0
  0
VERTEX
  8
0
 10
1679.7692307692307
 20
490
 42
-0
  0
VERTEX
  8
0
 10
1645.7692307692307
 20
490
 42
-0
  0
VERTEX
  8
0
 10
1645.7692307692307
 20
590
 42
-0
  0
SEQEND
  0
POLYLINE
  8
0
 10
0
 20
0
 39
0
 70
1
 66
1
  0
VERTEX
  8
0
 10
1662.7692307692307
 20
566.5
 42
1
  0
VERTEX
  8
0
 10
1662.7692307692307
 20
583.5
 42
1
  0
SEQEND
  0
POLYLINE
  8
0
 10
0
 20
0
 39
0
 70
1
 66
1
  0
VERTEX
  8
0
 10
1662.7692307692307
 20
496.5
 42
1
  0
VERTEX
  8
0
 10
1662.7692307692307
 20
513.5
 42
1
  0
SEQEND
  0
POLYLINE
  8
0
 10
0
 20
0
 39
0
 70
1
 66
1
  0
VERTEX
  8
0
 10
1724
 20
589.61538461538453
 42
-0
  0
VERTEX
  8
0
 10
1724
 20
489.61538461538458
 42
-0
  0
VERTEX
  8
0
 10
1690
 20
489.61538461538458
 42
-0
  0
VERTEX
  8
0
 10
1690
 20
589.61538461538453
 42
-0
  0
SEQEND
  0
POLYLINE
  8
0
 10
0
 20
0
 39
0
 70
1
 66
1
  0
VERTEX
  8
0
 10
1707
 20
566.11538461538453
 42
1
  0
VERTEX
  8
0
 10
1707
 20
583.11538461538453
 42
1
  0
SEQEND
  0
POLYLINE
  8
0
 10
0
 20
0
 39
0
 70
1
 66
1
  0
VERTEX
  8
0
 10
1707
 20
496.11538461538458
 42
1
  0
VERTEX
  8
0
 10
1707
 20
513.11538461538453
 42
1
  0
SEQEND
  0
POLYLINE
  8
0
 10
0
 20
0
 39
0
 70
1
 66
1
  0
VERTEX
  8
0
 10
1815.9230769230769
 20
285.19230769230768
 42
-0
  0
VERTEX
  8
0
 10
1815.9230769230769
 20
185.19230769230768
 42
-0
  0
VERTEX
  8
0
 10
1781.9230769230769
 20
185.19230769230768
 42
-0
  0
VERTEX
  8
0
 10
1781.9230769230769
 20
285.19230769230768
 42
-0
  0
SEQEND
  0
POLYLINE
  8
0
 10
0
 20
0
 39
0
 70
1
 66
1
  0
VERTEX
  8
0
 10
1798.9230769230769
 20
261.69230769230768
 42
1
  0
VERTEX
  8
0
 10
1798.9230769230769
 20
278.69230769230768
 42
1
  0
SEQEND
  0
POLYLINE
  8
0
 10
0
 20
0
 39
0
 70
1
 66
1
  0
VERTEX
  8
0
 10
1798.9230769230769
 20
191.69230769230768
 42
1
  0
VERTEX
  8
0
 10
1798.9230769230769
 20
208.69230769230768
 42
1
  0
SEQEND
  0
POLYLINE
  8
0
 10
0
 20
0
 39
0
 70
1
 66
1
  0
VERTEX
  8
0
 10
1733.8461538461538
 20
914.96153846153845
 42
-0
  0
VERTEX
  8
0
 10
1833.8461538461538
 20
914.96153846153845
 42
-0
  0
VERTEX
  8
0
 10
1833.8461538461538
 20
880.96153846153845
 42
-0
  0
VERTEX
  8
0
 10
1733.8461538461538
 20
880.96153846153845
 42
-0
  0
SEQEND
  0
POLYLINE
  8
0
 10
0
 20
0
 39
0
 70
1
 66
1
  0
VERTEX
  8
0
 10
1757.3461538461538
 20
897.96153846153845
 42
1
  0
VERTEX
  8
0
 10
1740.3461538461538
 20
897.96153846153845
 42
1
  0
SEQEND
  0
POLYLINE
  8
0
 10
0
 20
0
 39
0
 70
1
 66
1
  0
VERTEX
  8
0
 10
1827.3461538461538
 20
897.96153846153845
 42
1
  0
VERTEX
  8
0
 10
1810.3461538461538
 20
897.96153846153845
 42
1
  0
SEQEND
  0
POLYLINE
  8
0
 10
0
 20
0
 39
0
 70
1
 66
1
  0
VERTEX
  8
0
 10
1961.8846153846152
 20
110.38461538461539
 42
-0
  0
VERTEX
  8
0
 10
1961.8846153846152
 20
10.384615384615385
 42
-0
  0
VERTEX
  8
0
 10
1927.8846153846152
 20
10.384615384615383
 42
-0
  0
VERTEX
  8
0
 10
1927.8846153846152
 20
110.38461538461539
 42
-0
  0
SEQEND
  0
POLYLINE
  8
0
 10
0
 20
0
 39
0
 70
1
 66
1
  0
VERTEX
  8
0
 10
1944.8846153846152
 20
86.884615384615387
 42
1
  0
VERTEX
  8
0
 10
1944.8846153846152
 20
103.88461538461539
 42
1
  0
SEQEND
  0
POLYLINE
  8
0
 10
0
 20
0
 39
0
 70
1
 66
1
  0
VERTEX
  8
0
 10
1944.8846153846152
 20
16.884615384615383
 42
1
  0
VERTEX
  8
0
 10
1944.8846153846152
 20
33.884615384615387
 42
1
  0
SEQEND
  0
POLYLINE
  8
0
 10
0
 20
0
 39
0
 70
1
 66
1
  0
VERTEX
  8
0
 10
2006.1538461538462
 20
983.61538461538453
 42
-0
  0
VERTEX
  8
0
 10
2106.1538461538462
 20
983.61538461538453
 42
-0
  0
VERTEX
  8
0
 10
2106.1538461538462
 20
949.61538461538453
 42
-0
  0
VERTEX
  8
0
 10
2006.1538461538462
 20
949.61538461538453
 42
-0
  0
SEQEND
  0
POLYLINE
  8
0
 10
0
 20
0
 39
0
 70
1
 66
1
  0
VERTEX
  8
0
 10
2029.6538461538462
 20
966.61538461538453
 42
1
  0
VERTEX
  8
0
 10
2012.6538461538462
 20
966.61538461538453
 42
1
  0
SEQEND
  0
POLYLINE
  8
0
 10
0
 20
0
 39
0
 70
1
 66
1
  0
VERTEX
  8
0
 10
2099.6538461538462
 20
966.61538461538453
 42
1
  0
VERTEX
  8
0
 10
2082.6538461538462
 20
966.61538461538453
 42
1
  0
SEQEND
  0
POLYLINE
  8
0
 10
0
 20
0
 39
0
 70
1
 66
1
  0
VERTEX
  8
0
 10
2134.7692307692305
 20
110.38461538461539
 42
-0
  0
VERTEX
  8
0
 10
2134.7692307692305
 20
10.384615384615385
 42
-0
  0
VERTEX
  8
0
 10
2100.7692307692305
 20
10.384615384615383
 42
-0
  0
VERTEX
  8
0
 10
2100.7692307692305
 20
110.38461538461539
 42
-0
  0
SEQEND
  0
POLYLINE
  8
0
 10
0
 20
0
 39
0
 70
1
 66
1
  0
VERTEX
  8
0
 10
2117.7692307692305
 20
86.884615384615387
 42
1
  0
VERTEX
  8
0
 10
2117.7692307692305
 20
103.88461538461539
 42
1
  0
SEQEND
  0
POLYLINE
  8
0
 10
0
 20
0
 39
0
 70
1
 66
1
  0
VERTEX
  8
0
 10
2117.7692307692305
 20
16.884615384615383
 42
1
  0
VERTEX
  8
0
 10
2117.7692307692305
 20
33.884615384615387
 42
1
  0
SEQEND
  0
POLYLINE
  8
0
 10
0
 20
0
 39
0
 70
1
 66
1
  0
VERTEX
  8
0
 10
2179
 20
110.38461538461539
 42
-0
  0
VERTEX
  8
0
 10
2179
 20
10.384615384615385
 42
-0
  0
VERTEX
  8
0
 10
2145
 20
10.384615384615383
 42
-0
  0
VERTEX
  8
0
 10
2145
 20
110.38461538461539
 42
-0
  0
SEQEND
  0
POLYLINE
  8
0
 10
0
 20
0
 39
0
 70
1
 66
1
  0
VERTEX
  8
0
 10
2162
 20
86.884615384615387
 42
1
  0
VERTEX
  8
0
 10
2162
 20
103.88461538461539
 42
1
  0
SEQEND
  0
POLYLINE
  8
0
 10
0
 20
0
 39
0
 70
1
 66
1
  0
VERTEX
  8
0
 10
2162
 20
16.884615384615383
 42
1
  0
VERTEX
  8
0
 10
2162
 20
33.884615384615387
 42
1
  0
SEQEND
  0
POLYLINE
  8
0
 10
0
 20
0
 39
0
 70
1
 66
1
  0
VERTEX
  8
0
 10
2271.7307692307691
 20
769.19230769230762
 42
-0
  0
VERTEX
  8
0
 10
2371.7307692307691
 20
769.19230769230762
 42
-0
  0
VERTEX
  8
0
 10
2371.7307692307691
 20
735.19230769230762
 42
-0
  0
VERTEX
  8
0
 10
2271.7307692307691
 20
735.19230769230762
 42
-0
  0
SEQEND
  0
POLYLINE
  8
0
 10
0
 20
0
 39
0
 70
1
 66
1
  0
VERTEX
  8
0
 10
2295.2307692307691
 20
752.19230769230762
 42
1
  0
VERTEX
  8
0
 10
2278.2307692307691
 20
752.19230769230762
 42
1
  0
SEQEND
  0
POLYLINE
  8
0
 10
0
 20
0
 39
0
 70
1
 66
1
  0
VERTEX
  8
0
 10
2365.2307692307691
 20
752.19230769230762
 42
1
  0
VERTEX
  8
0
 10
2348.2307692307691
 20
752.19230769230762
 42
1
  0
SEQEND
  0
POLYLINE
  8
0
 10
0
 20
0
 39
0
 70
1
 66
1
  0
VERTEX
  8
0
 10
2375.7307692307691
 20
879.23076923076917
 42
-0
  0
VERTEX
  8
0
 10
2375.7307692307691
 20
779.23076923076917
 42
-0
  0
VERTEX
  8
0
 10
2341.7307692307691
 20
779.23076923076917
 42
-0
  0
VERTEX
  8
0
 10
2341.7307692307691
 20
879.23076923076917
 42
-0
  0
SEQEND
  0
POLYLINE
  8
0
 10
0
 20
0
 39
0
 70
1
 66
1
  0
VERTEX
  8
0
 10
2358.7307692307691
 20
855.73076923076917
 42
1
  0
VERTEX
  8
0
 10
2358.7307692307691
 20
872.73076923076917
 42
1
  0
SEQEND
  0
POLYLINE
  8
0
 10
0
 20
0
 39
0
 70
1
 66
1
  0
VERTEX
  8
0
 10
2358.7307692307691
 20
785.73076923076917
 42
1
  0
VERTEX
  8
0
 10
2358.7307692307691
 20
802.73076923076917
 42
1
  0
SEQEND
  0
POLYLINE
  8
0
 10
0
 20
0
 39
0
 70
1
 66
1
  0
VERTEX
  8
0
 10
2375.7307692307691
 20
989.42307692307691
 42
-0
  0
VERTEX
  8
0
 10
2375.7307692307691
 20
889.42307692307691
 42
-0
  0
VERTEX
  8
0
 10
2341.7307692307691
 20
889.42307692307691
 42
-0
  0
VERTEX
  8
0
 10
2341.7307692307691
 20
989.42307692307691
 42
-0
  0
SEQEND
  0
POLYLINE
  8
0
 10
0
 20
0
 39
0
 70
1
 66
1
  0
VERTEX
  8
0
 10
2358.7307692307691
 20
965.92307692307691
 42
1
  0
VERTEX
  8
0
 10
2358.7307692307691
 20
982.92307692307691
 42
1
  0
SEQEND
  0
POLYLINE
  8
0
 10
0
 20
0
 39
0
 70
1
 66
1
  0
VERTEX
  8
0
 10
2358.7307692307691
 20
895.92307692307691
 42
1
  0
VERTEX
  8
0
 10
2358.7307692307691
 20
912.92307692307691
 42
1
  0
SEQEND
  0
POLYLINE
  8
0
 10
0
 20
0
 39
0
 70
1
 66
1
  0
VERTEX
  8
0
 10
2382.0769230769229
 20
500
 42
-0
  0
VERTEX
  8
0
 10
2382.0769230769229
 20
400
 42
-0
  0
VERTEX
  8
0
 10
2348.0769230769229
 20
400
 42
-0
  0
VERTEX
  8
0
 10
2348.0769230769229
 20
500
 42
-0
  0
SEQEND
  0
POLYLINE
  8
0
 10
0
 20
0
 39
0
 70
1
 66
1
  0
VERTEX
  8
0
 10
2365.0769230769229
 20
476.5
 42
1
  0
VERTEX
  8
0
 10
2365.0769230769229
 20
493.5
 42
1
  0
SEQEND
  0
POLYLINE
  8
0
 10
0
 20
0
 39
0
 70
1
 66
1
  0
VERTEX
  8
0
 10
2365.0769230769229
 20
406.5
 42
1
  0
VERTEX
  8
0
 10
2365.0769230769229
 20
423.5
 42
1
  0
SEQEND
  0
POLYLINE
  8
0
 10
0
 20
0
 39
0
 70
1
 66
1
  0
VERTEX
  8
0
 10
2415.7307692307691
 20
110.38461538461539
 42
-0
  0
VERTEX
  8
0
 10
2415.7307692307691
 20
10.384615384615385
 42
-0
  0
VERTEX
  8
0
 10
2381.7307692307691
 20
10.384615384615383
 42
-0
  0
VERTEX
  8
0
 10
2381.7307692307691
 20
110.38461538461539
 42
-0
  0
SEQEND
  0
POLYLINE
  8
0
 10
0
 20
0
 39
0
 70
1
 66
1
  0
VERTEX
  8
0
 10
2398.7307692307691
 20
86.884615384615387
 42
1
  0
VERTEX
  8
0
 10
2398.7307692307691
 20
103.88461538461539
 42
1
  0
SEQEND
  0
POLYLINE
  8
0
 10
0
 20
0
 39
0
 70
1
 66
1
  0
VERTEX
  8
0
 10
2398.7307692307691
 20
16.884615384615383
 42
1
  0
VERTEX
  8
0
 10
2398.7307692307691
 20
33.884615384615387
 42
1
  0
SEQEND
  0
POLYLINE
  8
0
 10
0
 20
0
 39
0
 70
1
 66
1
  0
VERTEX
  8
0
 10
2419.9615384615386
 20
892.30769230769226
 42
-0
  0
VERTEX
  8
0
 10
2419.9615384615386
 20
792.30769230769226
 42
-0
  0
VERTEX
  8
0
 10
2385.9615384615386
 20
792.30769230769226
 42
-0
  0
VERTEX
  8
0
 10
2385.9615384615386
 20
892.30769230769226
 42
-0
  0
SEQEND
  0
POLYLINE
  8
0
 10
0
 20
0
 39
0
 70
1
 66
1
  0
VERTEX
  8
0
 10
2402.9615384615386
 20
868.80769230769226
 42
1
  0
VERTEX
  8
0
 10
2402.9615384615386
 20
885.80769230769226
 42
1
  0
SEQEND
  0
POLYLINE
  8
0
 10
0
 20
0
 39
0
 70
1
 66
1
  0
VERTEX
  8
0
 10
2402.9615384615386
 20
798.80769230769226
 42
1
  0
VERTEX
  8
0
 10
2402.9615384615386
 20
815.80769230769226
 42
1
  0
SEQEND
  0
POLYLINE
  8
0
 10
0
 20
0
 39
0
 70
1
 66
1
  0
VERTEX
  8
0
 10
2437.8461538461538
 20
220.57692307692307
 42
-0
  0
VERTEX
  8
0
 10
2437.8461538461538
 20
120.57692307692307
 42
-0
  0
VERTEX
  8
0
 10
2403.8461538461538
 20
120.57692307692307
 42
-0
  0
VERTEX
  8
0
 10
2403.8461538461538
 20
220.57692307692307
 42
-0
  0
SEQEND
  0
POLYLINE
  8
0
 10
0
 20
0
 39
0
 70
1
 66
1
  0
VERTEX
  8
0
 10
2420.8461538461538
 20
197.07692307692307
 42
1
  0
VERTEX
  8
0
 10
2420.8461538461538
 20
214.07692307692307
 42
1
  0
SEQEND
  0
POLYLINE
  8
0
 10
0
 20
0
 39
0
 70
1
 66
1
  0
VERTEX
  8
0
 10
2420.8461538461538
 20
127.07692307692307
 42
1
  0
VERTEX
  8
0
 10
2420.8461538461538
 20
144.07692307692307
 42
1
  0
SEQEND
  0
POLYLINE
  8
0
 10
0
 20
0
 39
0
 70
1
 66
1
  0
VERTEX
  8
0
 10
2459.9615384615386
 20
110.38461538461539
 42
-0
  0
VERTEX
  8
0
 10
2459.9615384615386
 20
10.384615384615385
 42
-0
  0
VERTEX
  8
0
 10
2425.9615384615386
 20
10.384615384615383
 42
-0
  0
VERTEX
  8
0
 10
2425.9615384615386
 20
110.38461538461539
 42
-0
  0
SEQEND
  0
POLYLINE
  8
0
 10
0
 20
0
 39
0
 70
1
 66
1
  0
VERTEX
  8
0
 10
2442.9615384615386
 20
86.884615384615387
 42
1
  0
VERTEX
  8
0
 10
2442.9615384615386
 20
103.88461538461539
 42
1
  0
SEQEND
  0
POLYLINE
  8
0
 10
0
 20
0
 39
0
 70
1
 66
1
  0
VERTEX
  8
0
 10
2442.9615384615386
 20
16.884615384615383
 42
1
  0
VERTEX
  8
0
 10
2442.9615384615386
 20
33.884615384615387
 42
1
  0
SEQEND
  0
POLYLINE
  8
0
 10
0
 20
0
 39
0
 70
1
 66
1
  0
VERTEX
  8
0
 10
2482.0769230769229
 20
220.57692307692307
 42
-0
  0
VERTEX
  8
0
 10
2482.0769230769229
 20
120.57692307692307
 42
-0
  0
VERTEX
  8
0
 10
2448.0769230769229
 20
120.57692307692307
 42
-0
  0
VERTEX
  8
0
 10
2448.0769230769229
 20
220.57692307692307
 42
-0
  0
SEQEND
  0
POLYLINE
  8
0
 10
0
 20
0
 39
0
 70
1
 66
1
  0
VERTEX
  8
0
 10
2465.0769230769229
 20
197.07692307692307
 42
1
  0
VERTEX
  8
0
 10
2465.0769230769229
 20
214.07692307692307
 42
1
  0
SEQEND
  0
POLYLINE
  8
0
 10
0
 20
0
 39
0
 70
1
 66
1
  0
VERTEX
  8
0
 10
2465.0769230769229
 20
127.07692307692307
 42
1
  0
VERTEX
  8
0
 10
2465.0769230769229
 20
144.07692307692307
 42
1
  0
SEQEND
  0
ENDSEC
  0
EOF
