  0
SECTION
  2
ENTITIES
  0
POLYLINE
  8
0
 10
0
 20
0
 39
0
 70
1
 66
1
  0
VERTEX
  8
0
 10
0
 20
0
 42
0
  0
VERTEX
  8
0
 10
2800
 20
0
 42
0
  0
VERTEX
  8
0
 10
2800
 20
1200
 42
0
  0
VERTEX
  8
0
 10
0
 20
1200
 42
0
  0
SEQEND
  0
POLYLINE
  8
0
 10
0
 20
0
 39
0
 70
1
 66
1
  0
VERTEX
  8
0
 10
532.2266845703125
 20
612.84344482421875
 42
0
  0
VERTEX
  8
0
 10
532.2266845703125
 20
791.41064453125
 42
0
  0
VERTEX
  8
0
 10
452.22665405273437
 20
855.65106201171875
 42
0
  0
VERTEX
  8
0
 10
10.226666450500488
 20
855.65106201171875
 42
0
  0
VERTEX
  8
0
 10
10.226666450500488
 20
335.65106201171875
 42
0
  0
VERTEX
  8
0
 10
145.92787170410156
 20
438.14694213867187
 42
0
  0
VERTEX
  8
0
 10
336.30410766601562
 20
438.14694213867187
 42
0
  0
SEQEND
  0
POLYLINE
  8
0
 10
0
 20
0
 39
0
 70
1
 66
1
  0
VERTEX
  8
0
 10
421.33331298828125
 20
791.41064453125
 42
-0
  0
VERTEX
  8
0
 10
421.33331298828125
 20
765.41064453125
 42
-0
  0
VERTEX
  8
0
 10
145.92787170410156
 20
652.12701416015625
 42
0
  0
VERTEX
  8
0
 10
145.92787170410156
 20
702.12701416015625
 42
0
  0
VERTEX
  8
0
 10
78.0772705078125
 20
739.41064453125
 42
0
  0
VERTEX
  8
0
 10
78.0772705078125
 20
791.41064453125
 42
0
  0
VERTEX
  8
0
 10
169.0821533203125
 20
791.41064453125
 42
0
  0
VERTEX
  8
0
 10
169.0821533203125
 20
765.41064453125
 42
0
  0
VERTEX
  8
0
 10
273.0821533203125
 20
765.41064453125
 42
0
  0
VERTEX
  8
0
 10
273.0821533203125
 20
791.41064453125
 42
0
  0
SEQEND
  0
POLYLINE
  8
0
 10
0
 20
0
 39
0
 70
1
 66
1
  0
VERTEX
  8
0
 10
367.30410766601562
 20
612.84344482421875
 42
-1
  0
VERTEX
  8
0
 10
305.30410766601562
 20
612.84344482421875
 42
-1
  0
SEQEND
  0
POLYLINE
  8
0
 10
0
 20
0
 39
0
 70
1
 66
1
  0
VERTEX
  8
0
 10
10.226666450500488
 20
253.03428649902344
 42
0
  0
VERTEX
  8
0
 10
10.226666450500488
 20
74.467117309570313
 42
0
  0
VERTEX
  8
0
 10
90.226669311523438
 20
10.226666450500488
 42
0
  0
VERTEX
  8
0
 10
532.2266845703125
 20
10.226666450500488
 42
0
  0
VERTEX
  8
0
 10
532.2266845703125
 20
530.2266845703125
 42
0
  0
VERTEX
  8
0
 10
396.52545166015625
 20
427.73080444335937
 42
0
  0
VERTEX
  8
0
 10
206.14921569824219
 20
427.73080444335937
 42
0
  0
SEQEND
  0
POLYLINE
  8
0
 10
0
 20
0
 39
0
 70
1
 66
1
  0
VERTEX
  8
0
 10
121.12001037597656
 20
74.467117309570313
 42
-0
  0
VERTEX
  8
0
 10
121.12001037597656
 20
100.46711730957031
 42
-0
  0
VERTEX
  8
0
 10
396.52545166015625
 20
213.75071716308594
 42
0
  0
VERTEX
  8
0
 10
396.52545166015625
 20
163.75071716308594
 42
0
  0
VERTEX
  8
0
 10
464.37606811523437
 20
126.46711730957031
 42
0
  0
VERTEX
  8
0
 10
464.37606811523437
 20
74.467117309570313
 42
0
  0
VERTEX
  8
0
 10
373.37118530273437
 20
74.467117309570313
 42
0
  0
VERTEX
  8
0
 10
373.37118530273437
 20
100.46711730957031
 42
0
  0
VERTEX
  8
0
 10
269.37115478515625
 20
100.46711730957031
 42
0
  0
VERTEX
  8
0
 10
269.37115478515625
 20
74.467117309570313
 42
0
  0
SEQEND
  0
POLYLINE
  8
0
 10
0
 20
0
 39
0
 70
1
 66
1
  0
VERTEX
  8
0
 10
175.14921569824219
 20
253.03428649902344
 42
-1
  0
VERTEX
  8
0
 10
237.14921569824219
 20
253.03428649902344
 42
-1
  0
SEQEND
  0
POLYLINE
  8
0
 10
0
 20
0
 39
0
 70
1
 66
1
  0
VERTEX
  8
0
 10
1064.413330078125
 20
612.84344482421875
 42
0
  0
VERTEX
  8
0
 10
1064.413330078125
 20
791.41064453125
 42
0
  0
VERTEX
  8
0
 10
984.413330078125
 20
855.65106201171875
 42
0
  0
VERTEX
  8
0
 10
542.413330078125
 20
855.65106201171875
 42
0
  0
VERTEX
  8
0
 10
542.413330078125
 20
335.65106201171875
 42
0
  0
VERTEX
  8
0
 10
678.11456298828125
 20
438.14694213867187
 42
0
  0
VERTEX
  8
0
 10
868.49078369140625
 20
438.14694213867187
 42
0
  0
SEQEND
  0
POLYLINE
  8
0
 10
0
 20
0
 39
0
 70
1
 66
1
  0
VERTEX
  8
0
 10
953.52001953125
 20
791.41064453125
 42
-0
  0
VERTEX
  8
0
 10
953.52001953125
 20
765.41064453125
 42
-0
  0
VERTEX
  8
0
 10
678.11456298828125
 20
652.12701416015625
 42
0
  0
VERTEX
  8
0
 10
678.11456298828125
 20
702.12701416015625
 42
0
  0
VERTEX
  8
0
 10
610.263916015625
 20
739.41064453125
 42
0
  0
VERTEX
  8
0
 10
610.263916015625
 20
791.41064453125
 42
0
  0
VERTEX
  8
0
 10
701.268798828125
 20
791.41064453125
 42
0
  0
VERTEX
  8
0
 10
701.268798828125
 20
765.41064453125
 42
0
  0
VERTEX
  8
0
 10
805.26885986328125
 20
765.41064453125
 42
0
  0
VERTEX
  8
0
 10
805.26885986328125
 20
791.41064453125
 42
0
  0
SEQEND
  0
POLYLINE
  8
0
 10
0
 20
0
 39
0
 70
1
 66
1
  0
VERTEX
  8
0
 10
899.49078369140625
 20
612.84344482421875
 42
-1
  0
VERTEX
  8
0
 10
837.49078369140625
 20
612.84344482421875
 42
-1
  0
SEQEND
  0
POLYLINE
  8
0
 10
0
 20
0
 39
0
 70
1
 66
1
  0
VERTEX
  8
0
 10
542.413330078125
 20
253.03428649902344
 42
0
  0
VERTEX
  8
0
 10
542.413330078125
 20
74.467117309570313
 42
0
  0
VERTEX
  8
0
 10
622.413330078125
 20
10.226666450500488
 42
0
  0
VERTEX
  8
0
 10
1064.413330078125
 20
10.226666450500488
 42
0
  0
VERTEX
  8
0
 10
1064.413330078125
 20
530.2266845703125
 42
0
  0
VERTEX
  8
0
 10
928.712158203125
 20
427.73080444335937
 42
0
  0
VERTEX
  8
0
 10
738.33587646484375
 20
427.73080444335937
 42
0
  0
SEQEND
  0
POLYLINE
  8
0
 10
0
 20
0
 39
0
 70
1
 66
1
  0
VERTEX
  8
0
 10
653.30670166015625
 20
74.467117309570313
 42
-0
  0
VERTEX
  8
0
 10
653.30670166015625
 20
100.46711730957031
 42
-0
  0
VERTEX
  8
0
 10
928.712158203125
 20
213.75071716308594
 42
0
  0
VERTEX
  8
0
 10
928.712158203125
 20
163.75071716308594
 42
0
  0
VERTEX
  8
0
 10
996.562744140625
 20
126.46711730957031
 42
0
  0
VERTEX
  8
0
 10
996.562744140625
 20
74.467117309570313
 42
0
  0
VERTEX
  8
0
 10
905.557861328125
 20
74.467117309570313
 42
0
  0
VERTEX
  8
0
 10
905.557861328125
 20
100.46711730957031
 42
0
  0
VERTEX
  8
0
 10
801.557861328125
 20
100.46711730957031
 42
0
  0
VERTEX
  8
0
 10
801.557861328125
 20
74.467117309570313
 42
0
  0
SEQEND
  0
POLYLINE
  8
0
 10
0
 20
0
 39
0
 70
1
 66
1
  0
VERTEX
  8
0
 10
707.33587646484375
 20
253.03428649902344
 42
-1
  0
VERTEX
  8
0
 10
769.33587646484375
 20
253.03428649902344
 42
-1
  0
SEQEND
  0
POLYLINE
  8
0
 10
0
 20
0
 39
0
 70
1
 66
1
  0
VERTEX
  8
0
 10
1596.5999755859375
 20
10.226666450500488
 42
-0
  0
VERTEX
  8
0
 10
1596.5999755859375
 20
520.2266845703125
 42
-0
  0
VERTEX
  8
0
 10
1485.7066650390625
 20
419.21841430664062
 42
0
  0
VERTEX
  8
0
 10
1485.7066650390625
 20
335.50808715820312
 42
0
  0
VERTEX
  8
0
 10
1210.3011474609375
 20
335.50808715820312
 42
0
  0
VERTEX
  8
0
 10
1074.5999755859375
 20
214.22666931152344
 42
0
  0
VERTEX
  8
0
 10
1074.5999755859375
 20
10.226666450500488
 42
0
  0
SEQEND
  0
POLYLINE
  8
0
 10
0
 20
0
 39
0
 70
1
 66
1
  0
VERTEX
  8
0
 10
1431.677490234375
 20
171.99020385742187
 42
-1
  0
VERTEX
  8
0
 10
1369.677490234375
 20
171.99020385742187
 42
-1
  0
SEQEND
  0
POLYLINE
  8
0
 10
0
 20
0
 39
0
 70
1
 66
1
  0
VERTEX
  8
0
 10
1274.4072265625
 20
171.99020385742187
 42
-1
  0
VERTEX
  8
0
 10
1212.4072265625
 20
171.99020385742187
 42
-1
  0
SEQEND
  0
POLYLINE
  8
0
 10
0
 20
0
 39
0
 70
1
 66
1
  0
VERTEX
  8
0
 10
1074.5999755859375
 20
738.39984130859375
 42
-0
  0
VERTEX
  8
0
 10
1074.5999755859375
 20
228.39987182617187
 42
-0
  0
VERTEX
  8
0
 10
1185.4932861328125
 20
329.40811157226563
 42
0
  0
VERTEX
  8
0
 10
1185.4932861328125
 20
413.11843872070312
 42
0
  0
VERTEX
  8
0
 10
1460.8988037109375
 20
413.11843872070312
 42
0
  0
VERTEX
  8
0
 10
1596.5999755859375
 20
534.39984130859375
 42
0
  0
VERTEX
  8
0
 10
1596.5999755859375
 20
738.39984130859375
 42
0
  0
SEQEND
  0
POLYLINE
  8
0
 10
0
 20
0
 39
0
 70
1
 66
1
  0
VERTEX
  8
0
 10
1239.5225830078125
 20
576.6363525390625
 42
-1
  0
VERTEX
  8
0
 10
1301.5225830078125
 20
576.6363525390625
 42
-1
  0
SEQEND
  0
POLYLINE
  8
0
 10
0
 20
0
 39
0
 70
1
 66
1
  0
VERTEX
  8
0
 10
1396.792724609375
 20
576.6363525390625
 42
-1
  0
VERTEX
  8
0
 10
1458.792724609375
 20
576.6363525390625
 42
-1
  0
SEQEND
  0
POLYLINE
  8
0
 10
0
 20
0
 39
0
 70
1
 66
1
  0
VERTEX
  8
0
 10
2128.78662109375
 20
10.226666450500488
 42
-0
  0
VERTEX
  8
0
 10
2128.78662109375
 20
520.2266845703125
 42
-0
  0
VERTEX
  8
0
 10
2017.893310546875
 20
419.21841430664062
 42
0
  0
VERTEX
  8
0
 10
2017.893310546875
 20
335.50808715820312
 42
0
  0
VERTEX
  8
0
 10
1742.4879150390625
 20
335.50808715820312
 42
0
  0
VERTEX
  8
0
 10
1606.78662109375
 20
214.22666931152344
 42
0
  0
VERTEX
  8
0
 10
1606.78662109375
 20
10.226666450500488
 42
0
  0
SEQEND
  0
POLYLINE
  8
0
 10
0
 20
0
 39
0
 70
1
 66
1
  0
VERTEX
  8
0
 10
1963.8641357421875
 20
171.99020385742187
 42
-1
  0
VERTEX
  8
0
 10
1901.8641357421875
 20
171.99020385742187
 42
-1
  0
SEQEND
  0
POLYLINE
  8
0
 10
0
 20
0
 39
0
 70
1
 66
1
  0
VERTEX
  8
0
 10
1806.593994140625
 20
171.99020385742187
 42
-1
  0
VERTEX
  8
0
 10
1744.593994140625
 20
171.99020385742187
 42
-1
  0
SEQEND
  0
POLYLINE
  8
0
 10
0
 20
0
 39
0
 70
1
 66
1
  0
VERTEX
  8
0
 10
1606.78662109375
 20
738.39984130859375
 42
-0
  0
VERTEX
  8
0
 10
1606.78662109375
 20
228.39987182617187
 42
-0
  0
VERTEX
  8
0
 10
1717.6800537109375
 20
329.40811157226563
 42
0
  0
VERTEX
  8
0
 10
1717.6800537109375
 20
413.11843872070312
 42
0
  0
VERTEX
  8
0
 10
1993.08544921875
 20
413.11843872070312
 42
0
  0
VERTEX
  8
0
 10
2128.78662109375
 20
534.39984130859375
 42
0
  0
VERTEX
  8
0
 10
2128.78662109375
 20
738.39984130859375
 42
0
  0
SEQEND
  0
POLYLINE
  8
0
 10
0
 20
0
 39
0
 70
1
 66
1
  0
VERTEX
  8
0
 10
1771.709228515625
 20
576.6363525390625
 42
-1
  0
VERTEX
  8
0
 10
1833.709228515625
 20
576.6363525390625
 42
-1
  0
SEQEND
  0
POLYLINE
  8
0
 10
0
 20
0
 39
0
 70
1
 66
1
  0
VERTEX
  8
0
 10
1928.9793701171875
 20
576.6363525390625
 42
-1
  0
VERTEX
  8
0
 10
1990.9793701171875
 20
576.6363525390625
 42
-1
  0
SEQEND
  0
POLYLINE
  8
0
 10
0
 20
0
 39
0
 70
1
 66
1
  0
VERTEX
  8
0
 10
650.2266845703125
 20
865.719970703125
 42
-0
  0
VERTEX
  8
0
 10
650.2266845703125
 20
1165.719970703125
 42
-0
  0
VERTEX
  8
0
 10
574.06207275390625
 20
1165.719970703125
 42
-0
  0
VERTEX
  8
0
 10
574.06207275390625
 20
1128.6190185546875
 42
-0
  0
VERTEX
  8
0
 10
265.06210327148437
 20
1128.6190185546875
 42
-0
  0
VERTEX
  8
0
 10
265.06210327148437
 20
1165.719970703125
 42
-0
  0
VERTEX
  8
0
 10
10.226666450500488
 20
1165.719970703125
 42
-0
  0
VERTEX
  8
0
 10
10.226666450500488
 20
865.719970703125
 42
0
  0
SEQEND
  0
POLYLINE
  8
0
 10
0
 20
0
 39
0
 70
1
 66
1
  0
VERTEX
  8
0
 10
574.06207275390625
 20
1079.8370361328125
 42
-0
  0
VERTEX
  8
0
 10
574.06207275390625
 20
1015.719970703125
 42
-0
  0
VERTEX
  8
0
 10
503.06210327148437
 20
1015.719970703125
 42
-0
  0
VERTEX
  8
0
 10
503.06210327148437
 20
1079.8370361328125
 42
-0
  0
SEQEND
  0
POLYLINE
  8
0
 10
0
 20
0
 39
0
 70
1
 66
1
  0
VERTEX
  8
0
 10
455.56210327148437
 20
1047.7784423828125
 42
-1
  0
VERTEX
  8
0
 10
383.56210327148437
 20
1047.7784423828125
 42
-1
  0
SEQEND
  0
POLYLINE
  8
0
 10
0
 20
0
 39
0
 70
1
 66
1
  0
VERTEX
  8
0
 10
345.893798828125
 20
1047.7784423828125
 42
-1
  0
VERTEX
  8
0
 10
273.893798828125
 20
1047.7784423828125
 42
-1
  0
SEQEND
  0
POLYLINE
  8
0
 10
0
 20
0
 39
0
 70
1
 66
1
  0
VERTEX
  8
0
 10
1300.5733642578125
 20
865.719970703125
 42
-0
  0
VERTEX
  8
0
 10
1300.5733642578125
 20
1165.719970703125
 42
-0
  0
VERTEX
  8
0
 10
1224.4088134765625
 20
1165.719970703125
 42
-0
  0
VERTEX
  8
0
 10
1224.4088134765625
 20
1128.6190185546875
 42
-0
  0
VERTEX
  8
0
 10
915.40875244140625
 20
1128.6190185546875
 42
-0
  0
VERTEX
  8
0
 10
915.40875244140625
 20
1165.719970703125
 42
-0
  0
VERTEX
  8
0
 10
660.57330322265625
 20
1165.719970703125
 42
-0
  0
VERTEX
  8
0
 10
660.57330322265625
 20
865.719970703125
 42
0
  0
SEQEND
  0
POLYLINE
  8
0
 10
0
 20
0
 39
0
 70
1
 66
1
  0
VERTEX
  8
0
 10
1224.4088134765625
 20
1079.8370361328125
 42
-0
  0
VERTEX
  8
0
 10
1224.4088134765625
 20
1015.719970703125
 42
-0
  0
VERTEX
  8
0
 10
1153.4088134765625
 20
1015.719970703125
 42
-0
  0
VERTEX
  8
0
 10
1153.4088134765625
 20
1079.8370361328125
 42
-0
  0
SEQEND
  0
POLYLINE
  8
0
 10
0
 20
0
 39
0
 70
1
 66
1
  0
VERTEX
  8
0
 10
1105.9088134765625
 20
1047.7784423828125
 42
-1
  0
VERTEX
  8
0
 10
1033.9088134765625
 20
1047.7784423828125
 42
-1
  0
SEQEND
  0
POLYLINE
  8
0
 10
0
 20
0
 39
0
 70
1
 66
1
  0
VERTEX
  8
0
 10
996.240478515625
 20
1047.7784423828125
 42
-1
  0
VERTEX
  8
0
 10
924.240478515625
 20
1047.7784423828125
 42
-1
  0
SEQEND
  0
POLYLINE
  8
0
 10
0
 20
0
 39
0
 70
1
 66
1
  0
VERTEX
  8
0
 10
1310.9200439453125
 20
748.49334716796875
 42
-0
  0
VERTEX
  8
0
 10
1615.9200439453125
 20
748.49334716796875
 42
-0
  0
VERTEX
  8
0
 10
1615.9200439453125
 20
1148.4932861328125
 42
-0
  0
VERTEX
  8
0
 10
1310.9200439453125
 20
1148.4932861328125
 42
0
  0
SEQEND
  0
POLYLINE
  8
0
 10
0
 20
0
 39
0
 70
1
 66
1
  0
VERTEX
  8
0
 10
1572.1075439453125
 20
1086.180419921875
 42
-1
  0
VERTEX
  8
0
 10
1572.1075439453125
 20
1116.180419921875
 42
-1
  0
SEQEND
  0
POLYLINE
  8
0
 10
0
 20
0
 39
0
 70
1
 66
1
  0
VERTEX
  8
0
 10
1511.2742919921875
 20
885.94061279296875
 42
-1
  0
VERTEX
  8
0
 10
1511.2742919921875
 20
941.94061279296875
 42
-1
  0
SEQEND
  0
POLYLINE
  8
0
 10
0
 20
0
 39
0
 70
1
 66
1
  0
VERTEX
  8
0
 10
1354.732421875
 20
1086.180419921875
 42
-1
  0
VERTEX
  8
0
 10
1354.732421875
 20
1116.180419921875
 42
-1
  0
SEQEND
  0
POLYLINE
  8
0
 10
0
 20
0
 39
0
 70
1
 66
1
  0
VERTEX
  8
0
 10
1415.565673828125
 20
885.94061279296875
 42
-1
  0
VERTEX
  8
0
 10
1415.565673828125
 20
941.94061279296875
 42
-1
  0
SEQEND
  0
POLYLINE
  8
0
 10
0
 20
0
 39
0
 70
1
 66
1
  0
VERTEX
  8
0
 10
1626.199951171875
 20
748.49334716796875
 42
-0
  0
VERTEX
  8
0
 10
1931.199951171875
 20
748.49334716796875
 42
-0
  0
VERTEX
  8
0
 10
1931.199951171875
 20
1148.4932861328125
 42
-0
  0
VERTEX
  8
0
 10
1626.199951171875
 20
1148.4932861328125
 42
0
  0
SEQEND
  0
POLYLINE
  8
0
 10
0
 20
0
 39
0
 70
1
 66
1
  0
VERTEX
  8
0
 10
1887.3875732421875
 20
1086.180419921875
 42
-1
  0
VERTEX
  8
0
 10
1887.3875732421875
 20
1116.180419921875
 42
-1
  0
SEQEND
  0
POLYLINE
  8
0
 10
0
 20
0
 39
0
 70
1
 66
1
  0
VERTEX
  8
0
 10
1826.5543212890625
 20
885.94061279296875
 42
-1
  0
VERTEX
  8
0
 10
1826.5543212890625
 20
941.94061279296875
 42
-1
  0
SEQEND
  0
POLYLINE
  8
0
 10
0
 20
0
 39
0
 70
1
 66
1
  0
VERTEX
  8
0
 10
1670.012451171875
 20
1086.180419921875
 42
-1
  0
VERTEX
  8
0
 10
1670.012451171875
 20
1116.180419921875
 42
-1
  0
SEQEND
  0
POLYLINE
  8
0
 10
0
 20
0
 39
0
 70
1
 66
1
  0
VERTEX
  8
0
 10
1730.845703125
 20
885.94061279296875
 42
-1
  0
VERTEX
  8
0
 10
1730.845703125
 20
941.94061279296875
 42
-1
  0
SEQEND
  0
POLYLINE
  8
0
 10
0
 20
0
 39
0
 70
1
 66
1
  0
VERTEX
  8
0
 10
1941.47998046875
 20
748.49334716796875
 42
-0
  0
VERTEX
  8
0
 10
2246.47998046875
 20
748.49334716796875
 42
-0
  0
VERTEX
  8
0
 10
2246.47998046875
 20
1148.4932861328125
 42
-0
  0
VERTEX
  8
0
 10
1941.47998046875
 20
1148.4932861328125
 42
0
  0
SEQEND
  0
POLYLINE
  8
0
 10
0
 20
0
 39
0
 70
1
 66
1
  0
VERTEX
  8
0
 10
2202.66748046875
 20
1086.180419921875
 42
-1
  0
VERTEX
  8
0
 10
2202.66748046875
 20
1116.180419921875
 42
-1
  0
SEQEND
  0
POLYLINE
  8
0
 10
0
 20
0
 39
0
 70
1
 66
1
  0
VERTEX
  8
0
 10
2141.834228515625
 20
885.94061279296875
 42
-1
  0
VERTEX
  8
0
 10
2141.834228515625
 20
941.94061279296875
 42
-1
  0
SEQEND
  0
POLYLINE
  8
0
 10
0
 20
0
 39
0
 70
1
 66
1
  0
VERTEX
  8
0
 10
1985.29248046875
 20
1086.180419921875
 42
-1
  0
VERTEX
  8
0
 10
1985.29248046875
 20
1116.180419921875
 42
-1
  0
SEQEND
  0
POLYLINE
  8
0
 10
0
 20
0
 39
0
 70
1
 66
1
  0
VERTEX
  8
0
 10
2046.1256103515625
 20
885.94061279296875
 42
-1
  0
VERTEX
  8
0
 10
2046.1256103515625
 20
941.94061279296875
 42
-1
  0
SEQEND
  0
POLYLINE
  8
0
 10
0
 20
0
 39
0
 70
1
 66
1
  0
VERTEX
  8
0
 10
2138.973388671875
 20
10.226666450500488
 42
-0
  0
VERTEX
  8
0
 10
2443.973388671875
 20
10.226666450500488
 42
-0
  0
VERTEX
  8
0
 10
2443.973388671875
 20
410.22665405273437
 42
-0
  0
VERTEX
  8
0
 10
2138.973388671875
 20
410.22665405273437
 42
0
  0
SEQEND
  0
POLYLINE
  8
0
 10
0
 20
0
 39
0
 70
1
 66
1
  0
VERTEX
  8
0
 10
2400.160888671875
 20
347.91378784179687
 42
-1
  0
VERTEX
  8
0
 10
2400.160888671875
 20
377.91378784179687
 42
-1
  0
SEQEND
  0
POLYLINE
  8
0
 10
0
 20
0
 39
0
 70
1
 66
1
  0
VERTEX
  8
0
 10
2339.32763671875
 20
147.67391967773437
 42
-1
  0
VERTEX
  8
0
 10
2339.32763671875
 20
203.67391967773437
 42
-1
  0
SEQEND
  0
POLYLINE
  8
0
 10
0
 20
0
 39
0
 70
1
 66
1
  0
VERTEX
  8
0
 10
2182.785888671875
 20
347.91378784179687
 42
-1
  0
VERTEX
  8
0
 10
2182.785888671875
 20
377.91378784179687
 42
-1
  0
SEQEND
  0
POLYLINE
  8
0
 10
0
 20
0
 39
0
 70
1
 66
1
  0
VERTEX
  8
0
 10
2243.618896484375
 20
147.67391967773437
 42
-1
  0
VERTEX
  8
0
 10
2243.618896484375
 20
203.67391967773437
 42
-1
  0
SEQEND
  0
POLYLINE
  8
0
 10
0
 20
0
 39
0
 70
1
 66
1
  0
VERTEX
  8
0
 10
2538.973388671875
 20
420.33334350585937
 42
-0
  0
VERTEX
  8
0
 10
2538.973388671875
 20
725.33331298828125
 42
-0
  0
VERTEX
  8
0
 10
2138.973388671875
 20
725.33331298828125
 42
-0
  0
VERTEX
  8
0
 10
2138.973388671875
 20
420.33334350585937
 42
0
  0
SEQEND
  0
POLYLINE
  8
0
 10
0
 20
0
 39
0
 70
1
 66
1
  0
VERTEX
  8
0
 10
2201.2861328125
 20
681.5208740234375
 42
-1
  0
VERTEX
  8
0
 10
2171.2861328125
 20
681.5208740234375
 42
-1
  0
SEQEND
  0
POLYLINE
  8
0
 10
0
 20
0
 39
0
 70
1
 66
1
  0
VERTEX
  8
0
 10
2401.526123046875
 20
620.68768310546875
 42
-1
  0
VERTEX
  8
0
 10
2345.526123046875
 20
620.68768310546875
 42
-1
  0
SEQEND
  0
POLYLINE
  8
0
 10
0
 20
0
 39
0
 70
1
 66
1
  0
VERTEX
  8
0
 10
2201.2861328125
 20
464.14578247070312
 42
-1
  0
VERTEX
  8
0
 10
2171.2861328125
 20
464.14578247070312
 42
-1
  0
SEQEND
  0
POLYLINE
  8
0
 10
0
 20
0
 39
0
 70
1
 66
1
  0
VERTEX
  8
0
 10
2401.526123046875
 20
524.97900390625
 42
-1
  0
VERTEX
  8
0
 10
2345.526123046875
 20
524.97900390625
 42
-1
  0
SEQEND
  0
POLYLINE
  8
0
 10
0
 20
0
 39
0
 70
1
 66
1
  0
VERTEX
  8
0
 10
2256.760009765625
 20
735.42669677734375
 42
-0
  0
VERTEX
  8
0
 10
2561.760009765625
 20
735.42669677734375
 42
-0
  0
VERTEX
  8
0
 10
2561.760009765625
 20
1135.4266357421875
 42
-0
  0
VERTEX
  8
0
 10
2256.760009765625
 20
1135.4266357421875
 42
0
  0
SEQEND
  0
POLYLINE
  8
0
 10
0
 20
0
 39
0
 70
1
 66
1
  0
VERTEX
  8
0
 10
2517.947509765625
 20
1073.11376953125
 42
-1
  0
VERTEX
  8
0
 10
2517.947509765625
 20
1103.11376953125
 42
-1
  0
SEQEND
  0
POLYLINE
  8
0
 10
0
 20
0
 39
0
 70
1
 66
1
  0
VERTEX
  8
0
 10
2457.1142578125
 20
872.8739013671875
 42
-1
  0
VERTEX
  8
0
 10
2457.1142578125
 20
928.8739013671875
 42
-1
  0
SEQEND
  0
POLYLINE
  8
0
 10
0
 20
0
 39
0
 70
1
 66
1
  0
VERTEX
  8
0
 10
2300.572509765625
 20
1073.11376953125
 42
-1
  0
VERTEX
  8
0
 10
2300.572509765625
 20
1103.11376953125
 42
-1
  0
SEQEND
  0
POLYLINE
  8
0
 10
0
 20
0
 39
0
 70
1
 66
1
  0
VERTEX
  8
0
 10
2361.40576171875
 20
872.8739013671875
 42
-1
  0
VERTEX
  8
0
 10
2361.40576171875
 20
928.8739013671875
 42
-1
  0
SEQEND
  0
POLYLINE
  8
0
 10
0
 20
0
 39
0
 70
1
 66
1
  0
VERTEX
  8
0
 10
2780.25341796875
 20
10.226666450500488
 42
-0
  0
VERTEX
  8
0
 10
2780.25341796875
 20
84.882919311523438
 42
-0.24658587574958801
  0
VERTEX
  8
0
 10
2780.25341796875
 20
308.03656005859375
 42
-0
  0
VERTEX
  8
0
 10
2780.25341796875
 20
382.69281005859375
 42
0
  0
VERTEX
  8
0
 10
2734.618408203125
 20
382.69281005859375
 42
-0.2611909806728363
  0
VERTEX
  8
0
 10
2499.888427734375
 20
382.69281005859375
 42
0
  0
VERTEX
  8
0
 10
2454.25341796875
 20
382.69281005859375
 42
0
  0
VERTEX
  8
0
 10
2454.25341796875
 20
308.03656005859375
 42
-0.24658587574958801
  0
VERTEX
  8
0
 10
2454.25341796875
 20
84.882919311523438
 42
0
  0
VERTEX
  8
0
 10
2454.25341796875
 20
10.226666450500488
 42
-0
  0
VERTEX
  8
0
 10
2499.888427734375
 20
10.226666450500488
 42
-0.2611909806728363
  0
VERTEX
  8
0
 10
2734.618408203125
 20
10.226666450500488
 42
-0
  0
SEQEND
  0
POLYLINE
  8
0
 10
0
 20
0
 39
0
 70
1
 66
1
  0
VERTEX
  8
0
 10
2617.25341796875
 20
137.45974731445312
 42
-1
  0
VERTEX
  8
0
 10
2617.25341796875
 20
255.45974731445313
 42
-1
  0
SEQEND
  0
POLYLINE
  8
0
 10
0
 20
0
 39
0
 70
1
 66
1
  0
VERTEX
  8
0
 10
2757.0400390625
 20
392.7066650390625
 42
0
  0
VERTEX
  8
0
 10
2757.0400390625
 20
737.7066650390625
 42
0
  0
VERTEX
  8
0
 10
2572.0400390625
 20
737.7066650390625
 42
0
  0
VERTEX
  8
0
 10
2572.0400390625
 20
392.7066650390625
 42
0
  0
SEQEND
  0
POLYLINE
  8
0
 10
0
 20
0
 39
0
 70
1
 66
1
  0
VERTEX
  8
0
 10
2731.39501953125
 20
485.2066650390625
 42
-0
  0
VERTEX
  8
0
 10
2691.39501953125
 20
485.2066650390625
 42
-0
  0
VERTEX
  8
0
 10
2691.39501953125
 20
645.2066650390625
 42
-0
  0
VERTEX
  8
0
 10
2731.39501953125
 20
645.2066650390625
 42
-0
  0
SEQEND
  0
POLYLINE
  8
0
 10
0
 20
0
 39
0
 70
1
 66
1
  0
VERTEX
  8
0
 10
2757.0400390625
 20
747.74664306640625
 42
0
  0
VERTEX
  8
0
 10
2757.0400390625
 20
1092.7467041015625
 42
0
  0
VERTEX
  8
0
 10
2572.0400390625
 20
1092.7467041015625
 42
0
  0
VERTEX
  8
0
 10
2572.0400390625
 20
747.74664306640625
 42
0
  0
SEQEND
  0
POLYLINE
  8
0
 10
0
 20
0
 39
0
 70
1
 66
1
  0
VERTEX
  8
0
 10
2731.39501953125
 20
840.24664306640625
 42
-0
  0
VERTEX
  8
0
 10
2691.39501953125
 20
840.24664306640625
 42
-0
  0
VERTEX
  8
0
 10
2691.39501953125
 20
1000.2466430664062
 42
-0
  0
VERTEX
  8
0
 10
2731.39501953125
 20
1000.2466430664062
 42
-0
  0
SEQEND
  0
POLYLINE
  8
0
 10
0
 20
0
 39
0
 70
1
 66
1
  0
VERTEX
  8
0
 10
425.2933349609375
 20
1138.8133544921875
 42
-0
  0
VERTEX
  8
0
 10
425.2933349609375
 20
1178.8133544921875
 42
-0
  0
VERTEX
  8
0
 10
275.2933349609375
 20
1178.8133544921875
 42
-0
  0
VERTEX
  8
0
 10
275.2933349609375
 20
1138.8133544921875
 42
0
  0
SEQEND
  0
POLYLINE
  8
0
 10
0
 20
0
 39
0
 70
1
 66
1
  0
VERTEX
  8
0
 10
415.89035034179687
 20
1158.8133544921875
 42
-1
  0
VERTEX
  8
0
 10
395.89035034179687
 20
1158.8133544921875
 42
-1
  0
SEQEND
  0
POLYLINE
  8
0
 10
0
 20
0
 39
0
 70
1
 66
1
  0
VERTEX
  8
0
 10
384.96102905273438
 20
1158.8133544921875
 42
-1
  0
VERTEX
  8
0
 10
364.96102905273438
 20
1158.8133544921875
 42
-1
  0
SEQEND
  0
POLYLINE
  8
0
 10
0
 20
0
 39
0
 70
1
 66
1
  0
VERTEX
  8
0
 10
1075.6400146484375
 20
1138.8133544921875
 42
-0
  0
VERTEX
  8
0
 10
1075.6400146484375
 20
1178.8133544921875
 42
-0
  0
VERTEX
  8
0
 10
925.6400146484375
 20
1178.8133544921875
 42
-0
  0
VERTEX
  8
0
 10
925.6400146484375
 20
1138.8133544921875
 42
0
  0
SEQEND
  0
POLYLINE
  8
0
 10
0
 20
0
 39
0
 70
1
 66
1
  0
VERTEX
  8
0
 10
1066.237060546875
 20
1158.8133544921875
 42
-1
  0
VERTEX
  8
0
 10
1046.237060546875
 20
1158.8133544921875
 42
-1
  0
SEQEND
  0
POLYLINE
  8
0
 10
0
 20
0
 39
0
 70
1
 66
1
  0
VERTEX
  8
0
 10
1035.3077392578125
 20
1158.8133544921875
 42
-1
  0
VERTEX
  8
0
 10
1015.3076782226562
 20
1158.8133544921875
 42
-1
  0
SEQEND
  0
POLYLINE
  8
0
 10
0
 20
0
 39
0
 70
1
 66
1
  0
VERTEX
  8
0
 10
1200.893310546875
 20
815.693359375
 42
-0
  0
VERTEX
  8
0
 10
1200.893310546875
 20
855.693359375
 42
-0
  0
VERTEX
  8
0
 10
1050.893310546875
 20
855.693359375
 42
-0
  0
VERTEX
  8
0
 10
1050.893310546875
 20
815.693359375
 42
0
  0
SEQEND
  0
POLYLINE
  8
0
 10
0
 20
0
 39
0
 70
1
 66
1
  0
VERTEX
  8
0
 10
1191.4903564453125
 20
835.693359375
 42
-1
  0
VERTEX
  8
0
 10
1171.4903564453125
 20
835.693359375
 42
-1
  0
SEQEND
  0
POLYLINE
  8
0
 10
0
 20
0
 39
0
 70
1
 66
1
  0
VERTEX
  8
0
 10
1160.56103515625
 20
835.693359375
 42
-1
  0
VERTEX
  8
0
 10
1140.56103515625
 20
835.693359375
 42
-1
  0
SEQEND
  0
POLYLINE
  8
0
 10
0
 20
0
 39
0
 70
1
 66
1
  0
VERTEX
  8
0
 10
1224.5999755859375
 20
748.49334716796875
 42
-0
  0
VERTEX
  8
0
 10
1224.5999755859375
 20
788.49334716796875
 42
-0
  0
VERTEX
  8
0
 10
1074.5999755859375
 20
788.49334716796875
 42
-0
  0
VERTEX
  8
0
 10
1074.5999755859375
 20
748.49334716796875
 42
0
  0
SEQEND
  0
POLYLINE
  8
0
 10
0
 20
0
 39
0
 70
1
 66
1
  0
VERTEX
  8
0
 10
1215.197021484375
 20
768.49334716796875
 42
-1
  0
VERTEX
  8
0
 10
1195.197021484375
 20
768.49334716796875
 42
-1
  0
SEQEND
  0
POLYLINE
  8
0
 10
0
 20
0
 39
0
 70
1
 66
1
  0
VERTEX
  8
0
 10
1184.2677001953125
 20
768.49334716796875
 42
-1
  0
VERTEX
  8
0
 10
1164.2677001953125
 20
768.49334716796875
 42
-1
  0
SEQEND
  0
POLYLINE
  8
0
 10
0
 20
0
 39
0
 70
1
 66
1
  0
VERTEX
  8
0
 10
1345.7467041015625
 20
345.85333251953125
 42
-0
  0
VERTEX
  8
0
 10
1345.7467041015625
 20
385.85333251953125
 42
-0
  0
VERTEX
  8
0
 10
1195.7467041015625
 20
385.85333251953125
 42
-0
  0
VERTEX
  8
0
 10
1195.7467041015625
 20
345.85333251953125
 42
0
  0
SEQEND
  0
POLYLINE
  8
0
 10
0
 20
0
 39
0
 70
1
 66
1
  0
VERTEX
  8
0
 10
1336.3436279296875
 20
365.85333251953125
 42
-1
  0
VERTEX
  8
0
 10
1316.3436279296875
 20
365.85333251953125
 42
-1
  0
SEQEND
  0
POLYLINE
  8
0
 10
0
 20
0
 39
0
 70
1
 66
1
  0
VERTEX
  8
0
 10
1305.4144287109375
 20
365.85333251953125
 42
-1
  0
VERTEX
  8
0
 10
1285.4144287109375
 20
365.85333251953125
 42
-1
  0
SEQEND
  0
POLYLINE
  8
0
 10
0
 20
0
 39
0
 70
1
 66
1
  0
VERTEX
  8
0
 10
1877.933349609375
 20
345.85333251953125
 42
-0
  0
VERTEX
  8
0
 10
1877.933349609375
 20
385.85333251953125
 42
-0
  0
VERTEX
  8
0
 10
1727.933349609375
 20
385.85333251953125
 42
-0
  0
VERTEX
  8
0
 10
1727.933349609375
 20
345.85333251953125
 42
0
  0
SEQEND
  0
POLYLINE
  8
0
 10
0
 20
0
 39
0
 70
1
 66
1
  0
VERTEX
  8
0
 10
1868.5303955078125
 20
365.85333251953125
 42
-1
  0
VERTEX
  8
0
 10
1848.5303955078125
 20
365.85333251953125
 42
-1
  0
SEQEND
  0
POLYLINE
  8
0
 10
0
 20
0
 39
0
 70
1
 66
1
  0
VERTEX
  8
0
 10
1837.60107421875
 20
365.85333251953125
 42
-1
  0
VERTEX
  8
0
 10
1817.60107421875
 20
365.85333251953125
 42
-1
  0
SEQEND
  0
POLYLINE
  8
0
 10
0
 20
0
 39
0
 70
1
 66
1
  0
VERTEX
  8
0
 10
2406.760009765625
 20
1145.5333251953125
 42
-0
  0
VERTEX
  8
0
 10
2406.760009765625
 20
1185.5333251953125
 42
-0
  0
VERTEX
  8
0
 10
2256.760009765625
 20
1185.5333251953125
 42
-0
  0
VERTEX
  8
0
 10
2256.760009765625
 20
1145.5333251953125
 42
0
  0
SEQEND
  0
POLYLINE
  8
0
 10
0
 20
0
 39
0
 70
1
 66
1
  0
VERTEX
  8
0
 10
2397.35693359375
 20
1165.5333251953125
 42
-1
  0
VERTEX
  8
0
 10
2377.35693359375
 20
1165.5333251953125
 42
-1
  0
SEQEND
  0
POLYLINE
  8
0
 10
0
 20
0
 39
0
 70
1
 66
1
  0
VERTEX
  8
0
 10
2366.427734375
 20
1165.5333251953125
 42
-1
  0
VERTEX
  8
0
 10
2346.427734375
 20
1165.5333251953125
 42
-1
  0
SEQEND
  0
POLYLINE
  8
0
 10
0
 20
0
 39
0
 70
1
 66
1
  0
VERTEX
  8
0
 10
2567.106689453125
 20
1145.5333251953125
 42
-0
  0
VERTEX
  8
0
 10
2567.106689453125
 20
1185.5333251953125
 42
-0
  0
VERTEX
  8
0
 10
2417.106689453125
 20
1185.5333251953125
 42
-0
  0
VERTEX
  8
0
 10
2417.106689453125
 20
1145.5333251953125
 42
0
  0
SEQEND
  0
POLYLINE
  8
0
 10
0
 20
0
 39
0
 70
1
 66
1
  0
VERTEX
  8
0
 10
2557.70361328125
 20
1165.5333251953125
 42
-1
  0
VERTEX
  8
0
 10
2537.70361328125
 20
1165.5333251953125
 42
-1
  0
SEQEND
  0
POLYLINE
  8
0
 10
0
 20
0
 39
0
 70
1
 66
1
  0
VERTEX
  8
0
 10
2526.7744140625
 20
1165.5333251953125
 42
-1
  0
VERTEX
  8
0
 10
2506.7744140625
 20
1165.5333251953125
 42
-1
  0
SEQEND
  0
POLYLINE
  8
0
 10
0
 20
0
 39
0
 70
1
 66
1
  0
VERTEX
  8
0
 10
2727.2666015625
 20
1102.78662109375
 42
-0
  0
VERTEX
  8
0
 10
2727.2666015625
 20
1142.78662109375
 42
-0
  0
VERTEX
  8
0
 10
2577.2666015625
 20
1142.78662109375
 42
-0
  0
VERTEX
  8
0
 10
2577.2666015625
 20
1102.78662109375
 42
0
  0
SEQEND
  0
POLYLINE
  8
0
 10
0
 20
0
 39
0
 70
1
 66
1
  0
VERTEX
  8
0
 10
2717.86376953125
 20
1122.78662109375
 42
-1
  0
VERTEX
  8
0
 10
2697.86376953125
 20
1122.78662109375
 42
-1
  0
SEQEND
  0
POLYLINE
  8
0
 10
0
 20
0
 39
0
 70
1
 66
1
  0
VERTEX
  8
0
 10
2686.934326171875
 20
1122.78662109375
 42
-1
  0
VERTEX
  8
0
 10
2666.934326171875
 20
1122.78662109375
 42
-1
  0
SEQEND
  0
ENDSEC
  0
EOF
