  0
SECTION
  2
ENTITIES
  0
POLYLINE
  8
0
 10
0
 20
0
 39
0
 70
1
 66
1
  0
VERTEX
  8
0
 10
0
 20
0
 42
-0
  0
VERTEX
  8
0
 10
3000
 20
0
 42
-0
  0
VERTEX
  8
0
 10
3000
 20
1500
 42
-0
  0
VERTEX
  8
0
 10
0
 20
1500
 42
-0
  0
SEQEND
  0
POLYLINE
  8
0
 10
0
 20
0
 39
0
 70
1
 66
1
  0
VERTEX
  8
0
 10
1962.085957384676
 20
305
 42
0
  0
VERTEX
  8
0
 10
1962.085957384676
 20
75
 42
1
  0
VERTEX
  8
0
 10
2092.085957384676
 20
75
 42
0
  0
VERTEX
  8
0
 10
2092.085957384676
 20
305
 42
1
  0
SEQEND
  0
POLYLINE
  8
0
 10
0
 20
0
 39
0
 70
1
 66
1
  0
VERTEX
  8
0
 10
2027.085957384676
 20
332.5
 42
-1
  0
VERTEX
  8
0
 10
2027.085957384676
 20
277.5
 42
-1
  0
SEQEND
  0
POLYLINE
  8
0
 10
0
 20
0
 39
0
 70
1
 66
1
  0
VERTEX
  8
0
 10
2027.085957384676
 20
102.5
 42
-1
  0
VERTEX
  8
0
 10
2027.085957384676
 20
47.5
 42
-1
  0
SEQEND
  0
POLYLINE
  8
0
 10
0
 20
0
 39
0
 70
1
 66
1
  0
VERTEX
  8
0
 10
2662.085957384676
 20
675
 42
0
  0
VERTEX
  8
0
 10
2662.085957384676
 20
445
 42
1
  0
VERTEX
  8
0
 10
2792.085957384676
 20
445
 42
0
  0
VERTEX
  8
0
 10
2792.085957384676
 20
675
 42
1
  0
SEQEND
  0
POLYLINE
  8
0
 10
0
 20
0
 39
0
 70
1
 66
1
  0
VERTEX
  8
0
 10
2727.085957384676
 20
702.5
 42
-1
  0
VERTEX
  8
0
 10
2727.085957384676
 20
647.5
 42
-1
  0
SEQEND
  0
POLYLINE
  8
0
 10
0
 20
0
 39
0
 70
1
 66
1
  0
VERTEX
  8
0
 10
2727.085957384676
 20
472.5
 42
-1
  0
VERTEX
  8
0
 10
2727.085957384676
 20
417.5
 42
-1
  0
SEQEND
  0
POLYLINE
  8
0
 10
0
 20
0
 39
0
 70
1
 66
1
  0
VERTEX
  8
0
 10
1682.085957384676
 20
675
 42
0
  0
VERTEX
  8
0
 10
1682.085957384676
 20
445
 42
1
  0
VERTEX
  8
0
 10
1812.085957384676
 20
445
 42
0
  0
VERTEX
  8
0
 10
1812.085957384676
 20
675
 42
1
  0
SEQEND
  0
POLYLINE
  8
0
 10
0
 20
0
 39
0
 70
1
 66
1
  0
VERTEX
  8
0
 10
1747.085957384676
 20
702.5
 42
-1
  0
VERTEX
  8
0
 10
1747.085957384676
 20
647.5
 42
-1
  0
SEQEND
  0
POLYLINE
  8
0
 10
0
 20
0
 39
0
 70
1
 66
1
  0
VERTEX
  8
0
 10
1747.085957384676
 20
472.5
 42
-1
  0
VERTEX
  8
0
 10
1747.085957384676
 20
417.5
 42
-1
  0
SEQEND
  0
POLYLINE
  8
0
 10
0
 20
0
 39
0
 70
1
 66
1
  0
VERTEX
  8
0
 10
2522.085957384676
 20
675
 42
0
  0
VERTEX
  8
0
 10
2522.085957384676
 20
445
 42
1
  0
VERTEX
  8
0
 10
2652.085957384676
 20
445
 42
0
  0
VERTEX
  8
0
 10
2652.085957384676
 20
675
 42
1
  0
SEQEND
  0
POLYLINE
  8
0
 10
0
 20
0
 39
0
 70
1
 66
1
  0
VERTEX
  8
0
 10
2587.085957384676
 20
702.5
 42
-1
  0
VERTEX
  8
0
 10
2587.085957384676
 20
647.5
 42
-1
  0
SEQEND
  0
POLYLINE
  8
0
 10
0
 20
0
 39
0
 70
1
 66
1
  0
VERTEX
  8
0
 10
2587.085957384676
 20
472.5
 42
-1
  0
VERTEX
  8
0
 10
2587.085957384676
 20
417.5
 42
-1
  0
SEQEND
  0
POLYLINE
  8
0
 10
0
 20
0
 39
0
 70
1
 66
1
  0
VERTEX
  8
0
 10
2242.085957384676
 20
675
 42
0
  0
VERTEX
  8
0
 10
2242.085957384676
 20
445
 42
1
  0
VERTEX
  8
0
 10
2372.085957384676
 20
445
 42
0
  0
VERTEX
  8
0
 10
2372.085957384676
 20
675
 42
1
  0
SEQEND
  0
POLYLINE
  8
0
 10
0
 20
0
 39
0
 70
1
 66
1
  0
VERTEX
  8
0
 10
2307.085957384676
 20
702.5
 42
-1
  0
VERTEX
  8
0
 10
2307.085957384676
 20
647.5
 42
-1
  0
SEQEND
  0
POLYLINE
  8
0
 10
0
 20
0
 39
0
 70
1
 66
1
  0
VERTEX
  8
0
 10
2307.085957384676
 20
472.5
 42
-1
  0
VERTEX
  8
0
 10
2307.085957384676
 20
417.5
 42
-1
  0
SEQEND
  0
POLYLINE
  8
0
 10
0
 20
0
 39
0
 70
1
 66
1
  0
VERTEX
  8
0
 10
2802.085957384676
 20
675
 42
0
  0
VERTEX
  8
0
 10
2802.085957384676
 20
445
 42
1
  0
VERTEX
  8
0
 10
2932.085957384676
 20
445
 42
0
  0
VERTEX
  8
0
 10
2932.085957384676
 20
675
 42
1
  0
SEQEND
  0
POLYLINE
  8
0
 10
0
 20
0
 39
0
 70
1
 66
1
  0
VERTEX
  8
0
 10
2867.085957384676
 20
702.5
 42
-1
  0
VERTEX
  8
0
 10
2867.085957384676
 20
647.5
 42
-1
  0
SEQEND
  0
POLYLINE
  8
0
 10
0
 20
0
 39
0
 70
1
 66
1
  0
VERTEX
  8
0
 10
2867.085957384676
 20
472.5
 42
-1
  0
VERTEX
  8
0
 10
2867.085957384676
 20
417.5
 42
-1
  0
SEQEND
  0
POLYLINE
  8
0
 10
0
 20
0
 39
0
 70
1
 66
1
  0
VERTEX
  8
0
 10
2662.085957384676
 20
1415
 42
0
  0
VERTEX
  8
0
 10
2662.085957384676
 20
1185
 42
1
  0
VERTEX
  8
0
 10
2792.085957384676
 20
1185
 42
0
  0
VERTEX
  8
0
 10
2792.085957384676
 20
1415
 42
1
  0
SEQEND
  0
POLYLINE
  8
0
 10
0
 20
0
 39
0
 70
1
 66
1
  0
VERTEX
  8
0
 10
2727.085957384676
 20
1442.5
 42
-1
  0
VERTEX
  8
0
 10
2727.085957384676
 20
1387.5
 42
-1
  0
SEQEND
  0
POLYLINE
  8
0
 10
0
 20
0
 39
0
 70
1
 66
1
  0
VERTEX
  8
0
 10
2727.085957384676
 20
1212.5
 42
-1
  0
VERTEX
  8
0
 10
2727.085957384676
 20
1157.5
 42
-1
  0
SEQEND
  0
POLYLINE
  8
0
 10
0
 20
0
 39
0
 70
1
 66
1
  0
VERTEX
  8
0
 10
2522.085957384676
 20
1415
 42
0
  0
VERTEX
  8
0
 10
2522.085957384676
 20
1185
 42
1
  0
VERTEX
  8
0
 10
2652.085957384676
 20
1185
 42
0
  0
VERTEX
  8
0
 10
2652.085957384676
 20
1415
 42
1
  0
SEQEND
  0
POLYLINE
  8
0
 10
0
 20
0
 39
0
 70
1
 66
1
  0
VERTEX
  8
0
 10
2587.085957384676
 20
1442.5
 42
-1
  0
VERTEX
  8
0
 10
2587.085957384676
 20
1387.5
 42
-1
  0
SEQEND
  0
POLYLINE
  8
0
 10
0
 20
0
 39
0
 70
1
 66
1
  0
VERTEX
  8
0
 10
2587.085957384676
 20
1212.5
 42
-1
  0
VERTEX
  8
0
 10
2587.085957384676
 20
1157.5
 42
-1
  0
SEQEND
  0
POLYLINE
  8
0
 10
0
 20
0
 39
0
 70
1
 66
1
  0
VERTEX
  8
0
 10
2242.085957384676
 20
305
 42
0
  0
VERTEX
  8
0
 10
2242.085957384676
 20
75
 42
1
  0
VERTEX
  8
0
 10
2372.085957384676
 20
75
 42
0
  0
VERTEX
  8
0
 10
2372.085957384676
 20
305
 42
1
  0
SEQEND
  0
POLYLINE
  8
0
 10
0
 20
0
 39
0
 70
1
 66
1
  0
VERTEX
  8
0
 10
2307.085957384676
 20
332.5
 42
-1
  0
VERTEX
  8
0
 10
2307.085957384676
 20
277.5
 42
-1
  0
SEQEND
  0
POLYLINE
  8
0
 10
0
 20
0
 39
0
 70
1
 66
1
  0
VERTEX
  8
0
 10
2307.085957384676
 20
102.5
 42
-1
  0
VERTEX
  8
0
 10
2307.085957384676
 20
47.5
 42
-1
  0
SEQEND
  0
POLYLINE
  8
0
 10
0
 20
0
 39
0
 70
1
 66
1
  0
VERTEX
  8
0
 10
2382.085957384676
 20
1415
 42
0
  0
VERTEX
  8
0
 10
2382.085957384676
 20
1185
 42
1
  0
VERTEX
  8
0
 10
2512.085957384676
 20
1185
 42
0
  0
VERTEX
  8
0
 10
2512.085957384676
 20
1415
 42
1
  0
SEQEND
  0
POLYLINE
  8
0
 10
0
 20
0
 39
0
 70
1
 66
1
  0
VERTEX
  8
0
 10
2447.085957384676
 20
1442.5
 42
-1
  0
VERTEX
  8
0
 10
2447.085957384676
 20
1387.5
 42
-1
  0
SEQEND
  0
POLYLINE
  8
0
 10
0
 20
0
 39
0
 70
1
 66
1
  0
VERTEX
  8
0
 10
2447.085957384676
 20
1212.5
 42
-1
  0
VERTEX
  8
0
 10
2447.085957384676
 20
1157.5
 42
-1
  0
SEQEND
  0
POLYLINE
  8
0
 10
0
 20
0
 39
0
 70
1
 66
1
  0
VERTEX
  8
0
 10
1962.085957384676
 20
675
 42
0
  0
VERTEX
  8
0
 10
1962.085957384676
 20
445
 42
1
  0
VERTEX
  8
0
 10
2092.085957384676
 20
445
 42
0
  0
VERTEX
  8
0
 10
2092.085957384676
 20
675
 42
1
  0
SEQEND
  0
POLYLINE
  8
0
 10
0
 20
0
 39
0
 70
1
 66
1
  0
VERTEX
  8
0
 10
2027.085957384676
 20
702.5
 42
-1
  0
VERTEX
  8
0
 10
2027.085957384676
 20
647.5
 42
-1
  0
SEQEND
  0
POLYLINE
  8
0
 10
0
 20
0
 39
0
 70
1
 66
1
  0
VERTEX
  8
0
 10
2027.085957384676
 20
472.5
 42
-1
  0
VERTEX
  8
0
 10
2027.085957384676
 20
417.5
 42
-1
  0
SEQEND
  0
POLYLINE
  8
0
 10
0
 20
0
 39
0
 70
1
 66
1
  0
VERTEX
  8
0
 10
1682.085957384676
 20
305
 42
0
  0
VERTEX
  8
0
 10
1682.085957384676
 20
75
 42
1
  0
VERTEX
  8
0
 10
1812.085957384676
 20
75
 42
0
  0
VERTEX
  8
0
 10
1812.085957384676
 20
305
 42
1
  0
SEQEND
  0
POLYLINE
  8
0
 10
0
 20
0
 39
0
 70
1
 66
1
  0
VERTEX
  8
0
 10
1747.085957384676
 20
332.5
 42
-1
  0
VERTEX
  8
0
 10
1747.085957384676
 20
277.5
 42
-1
  0
SEQEND
  0
POLYLINE
  8
0
 10
0
 20
0
 39
0
 70
1
 66
1
  0
VERTEX
  8
0
 10
1747.085957384676
 20
102.5
 42
-1
  0
VERTEX
  8
0
 10
1747.085957384676
 20
47.5
 42
-1
  0
SEQEND
  0
POLYLINE
  8
0
 10
0
 20
0
 39
0
 70
1
 66
1
  0
VERTEX
  8
0
 10
2802.085957384676
 20
1045
 42
0
  0
VERTEX
  8
0
 10
2802.085957384676
 20
815
 42
1
  0
VERTEX
  8
0
 10
2932.085957384676
 20
815
 42
0
  0
VERTEX
  8
0
 10
2932.085957384676
 20
1045
 42
1
  0
SEQEND
  0
POLYLINE
  8
0
 10
0
 20
0
 39
0
 70
1
 66
1
  0
VERTEX
  8
0
 10
2867.085957384676
 20
1072.5
 42
-1
  0
VERTEX
  8
0
 10
2867.085957384676
 20
1017.5
 42
-1
  0
SEQEND
  0
POLYLINE
  8
0
 10
0
 20
0
 39
0
 70
1
 66
1
  0
VERTEX
  8
0
 10
2867.085957384676
 20
842.5
 42
-1
  0
VERTEX
  8
0
 10
2867.085957384676
 20
787.5
 42
-1
  0
SEQEND
  0
POLYLINE
  8
0
 10
0
 20
0
 39
0
 70
1
 66
1
  0
VERTEX
  8
0
 10
2662.085957384676
 20
1045
 42
0
  0
VERTEX
  8
0
 10
2662.085957384676
 20
815
 42
1
  0
VERTEX
  8
0
 10
2792.085957384676
 20
815
 42
0
  0
VERTEX
  8
0
 10
2792.085957384676
 20
1045
 42
1
  0
SEQEND
  0
POLYLINE
  8
0
 10
0
 20
0
 39
0
 70
1
 66
1
  0
VERTEX
  8
0
 10
2727.085957384676
 20
1072.5
 42
-1
  0
VERTEX
  8
0
 10
2727.085957384676
 20
1017.5
 42
-1
  0
SEQEND
  0
POLYLINE
  8
0
 10
0
 20
0
 39
0
 70
1
 66
1
  0
VERTEX
  8
0
 10
2727.085957384676
 20
842.5
 42
-1
  0
VERTEX
  8
0
 10
2727.085957384676
 20
787.5
 42
-1
  0
SEQEND
  0
POLYLINE
  8
0
 10
0
 20
0
 39
0
 70
1
 66
1
  0
VERTEX
  8
0
 10
1542.085957384676
 20
675
 42
0
  0
VERTEX
  8
0
 10
1542.085957384676
 20
445
 42
1
  0
VERTEX
  8
0
 10
1672.085957384676
 20
445
 42
0
  0
VERTEX
  8
0
 10
1672.085957384676
 20
675
 42
1
  0
SEQEND
  0
POLYLINE
  8
0
 10
0
 20
0
 39
0
 70
1
 66
1
  0
VERTEX
  8
0
 10
1607.085957384676
 20
702.5
 42
-1
  0
VERTEX
  8
0
 10
1607.085957384676
 20
647.5
 42
-1
  0
SEQEND
  0
POLYLINE
  8
0
 10
0
 20
0
 39
0
 70
1
 66
1
  0
VERTEX
  8
0
 10
1607.085957384676
 20
472.5
 42
-1
  0
VERTEX
  8
0
 10
1607.085957384676
 20
417.5
 42
-1
  0
SEQEND
  0
POLYLINE
  8
0
 10
0
 20
0
 39
0
 70
1
 66
1
  0
VERTEX
  8
0
 10
445
 20
1344.0872930426146
 42
0
  0
VERTEX
  8
0
 10
675
 20
1344.0872930426146
 42
1
  0
VERTEX
  8
0
 10
675
 20
1474.0872930426146
 42
0
  0
VERTEX
  8
0
 10
445
 20
1474.0872930426146
 42
1
  0
SEQEND
  0
POLYLINE
  8
0
 10
0
 20
0
 39
0
 70
1
 66
1
  0
VERTEX
  8
0
 10
417.5
 20
1409.0872930426146
 42
-1
  0
VERTEX
  8
0
 10
472.5
 20
1409.0872930426146
 42
-1
  0
SEQEND
  0
POLYLINE
  8
0
 10
0
 20
0
 39
0
 70
1
 66
1
  0
VERTEX
  8
0
 10
647.5
 20
1409.0872930426146
 42
-1
  0
VERTEX
  8
0
 10
702.5
 20
1409.0872930426146
 42
-1
  0
SEQEND
  0
POLYLINE
  8
0
 10
0
 20
0
 39
0
 70
1
 66
1
  0
VERTEX
  8
0
 10
2522.085957384676
 20
305
 42
0
  0
VERTEX
  8
0
 10
2522.085957384676
 20
75
 42
1
  0
VERTEX
  8
0
 10
2652.085957384676
 20
75
 42
0
  0
VERTEX
  8
0
 10
2652.085957384676
 20
305
 42
1
  0
SEQEND
  0
POLYLINE
  8
0
 10
0
 20
0
 39
0
 70
1
 66
1
  0
VERTEX
  8
0
 10
2587.085957384676
 20
332.5
 42
-1
  0
VERTEX
  8
0
 10
2587.085957384676
 20
277.5
 42
-1
  0
SEQEND
  0
POLYLINE
  8
0
 10
0
 20
0
 39
0
 70
1
 66
1
  0
VERTEX
  8
0
 10
2587.085957384676
 20
102.5
 42
-1
  0
VERTEX
  8
0
 10
2587.085957384676
 20
47.5
 42
-1
  0
SEQEND
  0
POLYLINE
  8
0
 10
0
 20
0
 39
0
 70
1
 66
1
  0
VERTEX
  8
0
 10
2102.085957384676
 20
1045
 42
0
  0
VERTEX
  8
0
 10
2102.085957384676
 20
815
 42
1
  0
VERTEX
  8
0
 10
2232.085957384676
 20
815
 42
0
  0
VERTEX
  8
0
 10
2232.085957384676
 20
1045
 42
1
  0
SEQEND
  0
POLYLINE
  8
0
 10
0
 20
0
 39
0
 70
1
 66
1
  0
VERTEX
  8
0
 10
2167.085957384676
 20
1072.5
 42
-1
  0
VERTEX
  8
0
 10
2167.085957384676
 20
1017.5
 42
-1
  0
SEQEND
  0
POLYLINE
  8
0
 10
0
 20
0
 39
0
 70
1
 66
1
  0
VERTEX
  8
0
 10
2167.085957384676
 20
842.5
 42
-1
  0
VERTEX
  8
0
 10
2167.085957384676
 20
787.5
 42
-1
  0
SEQEND
  0
POLYLINE
  8
0
 10
0
 20
0
 39
0
 70
1
 66
1
  0
VERTEX
  8
0
 10
1822.085957384676
 20
305
 42
0
  0
VERTEX
  8
0
 10
1822.085957384676
 20
75
 42
1
  0
VERTEX
  8
0
 10
1952.085957384676
 20
75
 42
0
  0
VERTEX
  8
0
 10
1952.085957384676
 20
305
 42
1
  0
SEQEND
  0
POLYLINE
  8
0
 10
0
 20
0
 39
0
 70
1
 66
1
  0
VERTEX
  8
0
 10
1887.085957384676
 20
332.5
 42
-1
  0
VERTEX
  8
0
 10
1887.085957384676
 20
277.5
 42
-1
  0
SEQEND
  0
POLYLINE
  8
0
 10
0
 20
0
 39
0
 70
1
 66
1
  0
VERTEX
  8
0
 10
1887.085957384676
 20
102.5
 42
-1
  0
VERTEX
  8
0
 10
1887.085957384676
 20
47.5
 42
-1
  0
SEQEND
  0
POLYLINE
  8
0
 10
0
 20
0
 39
0
 70
1
 66
1
  0
VERTEX
  8
0
 10
2102.085957384676
 20
675
 42
0
  0
VERTEX
  8
0
 10
2102.085957384676
 20
445
 42
1
  0
VERTEX
  8
0
 10
2232.085957384676
 20
445
 42
0
  0
VERTEX
  8
0
 10
2232.085957384676
 20
675
 42
1
  0
SEQEND
  0
POLYLINE
  8
0
 10
0
 20
0
 39
0
 70
1
 66
1
  0
VERTEX
  8
0
 10
2167.085957384676
 20
702.5
 42
-1
  0
VERTEX
  8
0
 10
2167.085957384676
 20
647.5
 42
-1
  0
SEQEND
  0
POLYLINE
  8
0
 10
0
 20
0
 39
0
 70
1
 66
1
  0
VERTEX
  8
0
 10
2167.085957384676
 20
472.5
 42
-1
  0
VERTEX
  8
0
 10
2167.085957384676
 20
417.5
 42
-1
  0
SEQEND
  0
POLYLINE
  8
0
 10
0
 20
0
 39
0
 70
1
 66
1
  0
VERTEX
  8
0
 10
2102.085957384676
 20
305
 42
0
  0
VERTEX
  8
0
 10
2102.085957384676
 20
75
 42
1
  0
VERTEX
  8
0
 10
2232.085957384676
 20
75
 42
0
  0
VERTEX
  8
0
 10
2232.085957384676
 20
305
 42
1
  0
SEQEND
  0
POLYLINE
  8
0
 10
0
 20
0
 39
0
 70
1
 66
1
  0
VERTEX
  8
0
 10
2167.085957384676
 20
332.5
 42
-1
  0
VERTEX
  8
0
 10
2167.085957384676
 20
277.5
 42
-1
  0
SEQEND
  0
POLYLINE
  8
0
 10
0
 20
0
 39
0
 70
1
 66
1
  0
VERTEX
  8
0
 10
2167.085957384676
 20
102.5
 42
-1
  0
VERTEX
  8
0
 10
2167.085957384676
 20
47.5
 42
-1
  0
SEQEND
  0
POLYLINE
  8
0
 10
0
 20
0
 39
0
 70
1
 66
1
  0
VERTEX
  8
0
 10
2242.085957384676
 20
1045
 42
0
  0
VERTEX
  8
0
 10
2242.085957384676
 20
815
 42
1
  0
VERTEX
  8
0
 10
2372.085957384676
 20
815
 42
0
  0
VERTEX
  8
0
 10
2372.085957384676
 20
1045
 42
1
  0
SEQEND
  0
POLYLINE
  8
0
 10
0
 20
0
 39
0
 70
1
 66
1
  0
VERTEX
  8
0
 10
2307.085957384676
 20
1072.5
 42
-1
  0
VERTEX
  8
0
 10
2307.085957384676
 20
1017.5
 42
-1
  0
SEQEND
  0
POLYLINE
  8
0
 10
0
 20
0
 39
0
 70
1
 66
1
  0
VERTEX
  8
0
 10
2307.085957384676
 20
842.5
 42
-1
  0
VERTEX
  8
0
 10
2307.085957384676
 20
787.5
 42
-1
  0
SEQEND
  0
POLYLINE
  8
0
 10
0
 20
0
 39
0
 70
1
 66
1
  0
VERTEX
  8
0
 10
2382.085957384676
 20
675
 42
0
  0
VERTEX
  8
0
 10
2382.085957384676
 20
445
 42
1
  0
VERTEX
  8
0
 10
2512.085957384676
 20
445
 42
0
  0
VERTEX
  8
0
 10
2512.085957384676
 20
675
 42
1
  0
SEQEND
  0
POLYLINE
  8
0
 10
0
 20
0
 39
0
 70
1
 66
1
  0
VERTEX
  8
0
 10
2447.085957384676
 20
702.5
 42
-1
  0
VERTEX
  8
0
 10
2447.085957384676
 20
647.5
 42
-1
  0
SEQEND
  0
POLYLINE
  8
0
 10
0
 20
0
 39
0
 70
1
 66
1
  0
VERTEX
  8
0
 10
2447.085957384676
 20
472.5
 42
-1
  0
VERTEX
  8
0
 10
2447.085957384676
 20
417.5
 42
-1
  0
SEQEND
  0
POLYLINE
  8
0
 10
0
 20
0
 39
0
 70
1
 66
1
  0
VERTEX
  8
0
 10
1185
 20
1344.0872930426146
 42
0
  0
VERTEX
  8
0
 10
1415
 20
1344.0872930426146
 42
1
  0
VERTEX
  8
0
 10
1415
 20
1474.0872930426146
 42
0
  0
VERTEX
  8
0
 10
1185
 20
1474.0872930426146
 42
1
  0
SEQEND
  0
POLYLINE
  8
0
 10
0
 20
0
 39
0
 70
1
 66
1
  0
VERTEX
  8
0
 10
1157.5
 20
1409.0872930426146
 42
-1
  0
VERTEX
  8
0
 10
1212.5
 20
1409.0872930426146
 42
-1
  0
SEQEND
  0
POLYLINE
  8
0
 10
0
 20
0
 39
0
 70
1
 66
1
  0
VERTEX
  8
0
 10
1387.5
 20
1409.0872930426146
 42
-1
  0
VERTEX
  8
0
 10
1442.5
 20
1409.0872930426146
 42
-1
  0
SEQEND
  0
POLYLINE
  8
0
 10
0
 20
0
 39
0
 70
1
 66
1
  0
VERTEX
  8
0
 10
1822.085957384676
 20
675
 42
0
  0
VERTEX
  8
0
 10
1822.085957384676
 20
445
 42
1
  0
VERTEX
  8
0
 10
1952.085957384676
 20
445
 42
0
  0
VERTEX
  8
0
 10
1952.085957384676
 20
675
 42
1
  0
SEQEND
  0
POLYLINE
  8
0
 10
0
 20
0
 39
0
 70
1
 66
1
  0
VERTEX
  8
0
 10
1887.085957384676
 20
702.5
 42
-1
  0
VERTEX
  8
0
 10
1887.085957384676
 20
647.5
 42
-1
  0
SEQEND
  0
POLYLINE
  8
0
 10
0
 20
0
 39
0
 70
1
 66
1
  0
VERTEX
  8
0
 10
1887.085957384676
 20
472.5
 42
-1
  0
VERTEX
  8
0
 10
1887.085957384676
 20
417.5
 42
-1
  0
SEQEND
  0
POLYLINE
  8
0
 10
0
 20
0
 39
0
 70
1
 66
1
  0
VERTEX
  8
0
 10
815
 20
1344.0872930426146
 42
0
  0
VERTEX
  8
0
 10
1045
 20
1344.0872930426146
 42
1
  0
VERTEX
  8
0
 10
1045
 20
1474.0872930426146
 42
0
  0
VERTEX
  8
0
 10
815
 20
1474.0872930426146
 42
1
  0
SEQEND
  0
POLYLINE
  8
0
 10
0
 20
0
 39
0
 70
1
 66
1
  0
VERTEX
  8
0
 10
787.5
 20
1409.0872930426146
 42
-1
  0
VERTEX
  8
0
 10
842.5
 20
1409.0872930426146
 42
-1
  0
SEQEND
  0
POLYLINE
  8
0
 10
0
 20
0
 39
0
 70
1
 66
1
  0
VERTEX
  8
0
 10
1017.5
 20
1409.0872930426146
 42
-1
  0
VERTEX
  8
0
 10
1072.5
 20
1409.0872930426146
 42
-1
  0
SEQEND
  0
POLYLINE
  8
0
 10
0
 20
0
 39
0
 70
1
 66
1
  0
VERTEX
  8
0
 10
1682.085957384676
 20
1045
 42
0
  0
VERTEX
  8
0
 10
1682.085957384676
 20
815
 42
1
  0
VERTEX
  8
0
 10
1812.085957384676
 20
815
 42
0
  0
VERTEX
  8
0
 10
1812.085957384676
 20
1045
 42
1
  0
SEQEND
  0
POLYLINE
  8
0
 10
0
 20
0
 39
0
 70
1
 66
1
  0
VERTEX
  8
0
 10
1747.085957384676
 20
1072.5
 42
-1
  0
VERTEX
  8
0
 10
1747.085957384676
 20
1017.5
 42
-1
  0
SEQEND
  0
POLYLINE
  8
0
 10
0
 20
0
 39
0
 70
1
 66
1
  0
VERTEX
  8
0
 10
1747.085957384676
 20
842.5
 42
-1
  0
VERTEX
  8
0
 10
1747.085957384676
 20
787.5
 42
-1
  0
SEQEND
  0
POLYLINE
  8
0
 10
0
 20
0
 39
0
 70
1
 66
1
  0
VERTEX
  8
0
 10
2662.085957384676
 20
305
 42
0
  0
VERTEX
  8
0
 10
2662.085957384676
 20
75
 42
1
  0
VERTEX
  8
0
 10
2792.085957384676
 20
75
 42
0
  0
VERTEX
  8
0
 10
2792.085957384676
 20
305
 42
1
  0
SEQEND
  0
POLYLINE
  8
0
 10
0
 20
0
 39
0
 70
1
 66
1
  0
VERTEX
  8
0
 10
2727.085957384676
 20
332.5
 42
-1
  0
VERTEX
  8
0
 10
2727.085957384676
 20
277.5
 42
-1
  0
SEQEND
  0
POLYLINE
  8
0
 10
0
 20
0
 39
0
 70
1
 66
1
  0
VERTEX
  8
0
 10
2727.085957384676
 20
102.5
 42
-1
  0
VERTEX
  8
0
 10
2727.085957384676
 20
47.5
 42
-1
  0
SEQEND
  0
POLYLINE
  8
0
 10
0
 20
0
 39
0
 70
1
 66
1
  0
VERTEX
  8
0
 10
1822.085957384676
 20
1415
 42
0
  0
VERTEX
  8
0
 10
1822.085957384676
 20
1185
 42
1
  0
VERTEX
  8
0
 10
1952.085957384676
 20
1185
 42
0
  0
VERTEX
  8
0
 10
1952.085957384676
 20
1415
 42
1
  0
SEQEND
  0
POLYLINE
  8
0
 10
0
 20
0
 39
0
 70
1
 66
1
  0
VERTEX
  8
0
 10
1887.085957384676
 20
1442.5
 42
-1
  0
VERTEX
  8
0
 10
1887.085957384676
 20
1387.5
 42
-1
  0
SEQEND
  0
POLYLINE
  8
0
 10
0
 20
0
 39
0
 70
1
 66
1
  0
VERTEX
  8
0
 10
1887.085957384676
 20
1212.5
 42
-1
  0
VERTEX
  8
0
 10
1887.085957384676
 20
1157.5
 42
-1
  0
SEQEND
  0
POLYLINE
  8
0
 10
0
 20
0
 39
0
 70
1
 66
1
  0
VERTEX
  8
0
 10
1542.085957384676
 20
1415
 42
0
  0
VERTEX
  8
0
 10
1542.085957384676
 20
1185
 42
1
  0
VERTEX
  8
0
 10
1672.085957384676
 20
1185
 42
0
  0
VERTEX
  8
0
 10
1672.085957384676
 20
1415
 42
1
  0
SEQEND
  0
POLYLINE
  8
0
 10
0
 20
0
 39
0
 70
1
 66
1
  0
VERTEX
  8
0
 10
1607.085957384676
 20
1442.5
 42
-1
  0
VERTEX
  8
0
 10
1607.085957384676
 20
1387.5
 42
-1
  0
SEQEND
  0
POLYLINE
  8
0
 10
0
 20
0
 39
0
 70
1
 66
1
  0
VERTEX
  8
0
 10
1607.085957384676
 20
1212.5
 42
-1
  0
VERTEX
  8
0
 10
1607.085957384676
 20
1157.5
 42
-1
  0
SEQEND
  0
POLYLINE
  8
0
 10
0
 20
0
 39
0
 70
1
 66
1
  0
VERTEX
  8
0
 10
75
 20
1344.0872930426146
 42
0
  0
VERTEX
  8
0
 10
305
 20
1344.0872930426146
 42
1
  0
VERTEX
  8
0
 10
305
 20
1474.0872930426146
 42
0
  0
VERTEX
  8
0
 10
75
 20
1474.0872930426146
 42
1
  0
SEQEND
  0
POLYLINE
  8
0
 10
0
 20
0
 39
0
 70
1
 66
1
  0
VERTEX
  8
0
 10
47.5
 20
1409.0872930426146
 42
-1
  0
VERTEX
  8
0
 10
102.5
 20
1409.0872930426146
 42
-1
  0
SEQEND
  0
POLYLINE
  8
0
 10
0
 20
0
 39
0
 70
1
 66
1
  0
VERTEX
  8
0
 10
277.5
 20
1409.0872930426146
 42
-1
  0
VERTEX
  8
0
 10
332.5
 20
1409.0872930426146
 42
-1
  0
SEQEND
  0
POLYLINE
  8
0
 10
0
 20
0
 39
0
 70
1
 66
1
  0
VERTEX
  8
0
 10
2382.085957384676
 20
1045
 42
0
  0
VERTEX
  8
0
 10
2382.085957384676
 20
815
 42
1
  0
VERTEX
  8
0
 10
2512.085957384676
 20
815
 42
0
  0
VERTEX
  8
0
 10
2512.085957384676
 20
1045
 42
1
  0
SEQEND
  0
POLYLINE
  8
0
 10
0
 20
0
 39
0
 70
1
 66
1
  0
VERTEX
  8
0
 10
2447.085957384676
 20
1072.5
 42
-1
  0
VERTEX
  8
0
 10
2447.085957384676
 20
1017.5
 42
-1
  0
SEQEND
  0
POLYLINE
  8
0
 10
0
 20
0
 39
0
 70
1
 66
1
  0
VERTEX
  8
0
 10
2447.085957384676
 20
842.5
 42
-1
  0
VERTEX
  8
0
 10
2447.085957384676
 20
787.5
 42
-1
  0
SEQEND
  0
POLYLINE
  8
0
 10
0
 20
0
 39
0
 70
1
 66
1
  0
VERTEX
  8
0
 10
1682.085957384676
 20
1415
 42
0
  0
VERTEX
  8
0
 10
1682.085957384676
 20
1185
 42
1
  0
VERTEX
  8
0
 10
1812.085957384676
 20
1185
 42
0
  0
VERTEX
  8
0
 10
1812.085957384676
 20
1415
 42
1
  0
SEQEND
  0
POLYLINE
  8
0
 10
0
 20
0
 39
0
 70
1
 66
1
  0
VERTEX
  8
0
 10
1747.085957384676
 20
1442.5
 42
-1
  0
VERTEX
  8
0
 10
1747.085957384676
 20
1387.5
 42
-1
  0
SEQEND
  0
POLYLINE
  8
0
 10
0
 20
0
 39
0
 70
1
 66
1
  0
VERTEX
  8
0
 10
1747.085957384676
 20
1212.5
 42
-1
  0
VERTEX
  8
0
 10
1747.085957384676
 20
1157.5
 42
-1
  0
SEQEND
  0
POLYLINE
  8
0
 10
0
 20
0
 39
0
 70
1
 66
1
  0
VERTEX
  8
0
 10
2522.085957384676
 20
1045
 42
0
  0
VERTEX
  8
0
 10
2522.085957384676
 20
815
 42
1
  0
VERTEX
  8
0
 10
2652.085957384676
 20
815
 42
0
  0
VERTEX
  8
0
 10
2652.085957384676
 20
1045
 42
1
  0
SEQEND
  0
POLYLINE
  8
0
 10
0
 20
0
 39
0
 70
1
 66
1
  0
VERTEX
  8
0
 10
2587.085957384676
 20
1072.5
 42
-1
  0
VERTEX
  8
0
 10
2587.085957384676
 20
1017.5
 42
-1
  0
SEQEND
  0
POLYLINE
  8
0
 10
0
 20
0
 39
0
 70
1
 66
1
  0
VERTEX
  8
0
 10
2587.085957384676
 20
842.5
 42
-1
  0
VERTEX
  8
0
 10
2587.085957384676
 20
787.5
 42
-1
  0
SEQEND
  0
POLYLINE
  8
0
 10
0
 20
0
 39
0
 70
1
 66
1
  0
VERTEX
  8
0
 10
2802.085957384676
 20
1415
 42
0
  0
VERTEX
  8
0
 10
2802.085957384676
 20
1185
 42
1
  0
VERTEX
  8
0
 10
2932.085957384676
 20
1185
 42
0
  0
VERTEX
  8
0
 10
2932.085957384676
 20
1415
 42
1
  0
SEQEND
  0
POLYLINE
  8
0
 10
0
 20
0
 39
0
 70
1
 66
1
  0
VERTEX
  8
0
 10
2867.085957384676
 20
1442.5
 42
-1
  0
VERTEX
  8
0
 10
2867.085957384676
 20
1387.5
 42
-1
  0
SEQEND
  0
POLYLINE
  8
0
 10
0
 20
0
 39
0
 70
1
 66
1
  0
VERTEX
  8
0
 10
2867.085957384676
 20
1212.5
 42
-1
  0
VERTEX
  8
0
 10
2867.085957384676
 20
1157.5
 42
-1
  0
SEQEND
  0
POLYLINE
  8
0
 10
0
 20
0
 39
0
 70
1
 66
1
  0
VERTEX
  8
0
 10
2382.085957384676
 20
305
 42
0
  0
VERTEX
  8
0
 10
2382.085957384676
 20
75
 42
1
  0
VERTEX
  8
0
 10
2512.085957384676
 20
75
 42
0
  0
VERTEX
  8
0
 10
2512.085957384676
 20
305
 42
1
  0
SEQEND
  0
POLYLINE
  8
0
 10
0
 20
0
 39
0
 70
1
 66
1
  0
VERTEX
  8
0
 10
2447.085957384676
 20
332.5
 42
-1
  0
VERTEX
  8
0
 10
2447.085957384676
 20
277.5
 42
-1
  0
SEQEND
  0
POLYLINE
  8
0
 10
0
 20
0
 39
0
 70
1
 66
1
  0
VERTEX
  8
0
 10
2447.085957384676
 20
102.5
 42
-1
  0
VERTEX
  8
0
 10
2447.085957384676
 20
47.5
 42
-1
  0
SEQEND
  0
POLYLINE
  8
0
 10
0
 20
0
 39
0
 70
1
 66
1
  0
VERTEX
  8
0
 10
2102.085957384676
 20
1415
 42
0
  0
VERTEX
  8
0
 10
2102.085957384676
 20
1185
 42
1
  0
VERTEX
  8
0
 10
2232.085957384676
 20
1185
 42
0
  0
VERTEX
  8
0
 10
2232.085957384676
 20
1415
 42
1
  0
SEQEND
  0
POLYLINE
  8
0
 10
0
 20
0
 39
0
 70
1
 66
1
  0
VERTEX
  8
0
 10
2167.085957384676
 20
1442.5
 42
-1
  0
VERTEX
  8
0
 10
2167.085957384676
 20
1387.5
 42
-1
  0
SEQEND
  0
POLYLINE
  8
0
 10
0
 20
0
 39
0
 70
1
 66
1
  0
VERTEX
  8
0
 10
2167.085957384676
 20
1212.5
 42
-1
  0
VERTEX
  8
0
 10
2167.085957384676
 20
1157.5
 42
-1
  0
SEQEND
  0
POLYLINE
  8
0
 10
0
 20
0
 39
0
 70
1
 66
1
  0
VERTEX
  8
0
 10
1962.085957384676
 20
1415
 42
0
  0
VERTEX
  8
0
 10
1962.085957384676
 20
1185
 42
1
  0
VERTEX
  8
0
 10
2092.085957384676
 20
1185
 42
0
  0
VERTEX
  8
0
 10
2092.085957384676
 20
1415
 42
1
  0
SEQEND
  0
POLYLINE
  8
0
 10
0
 20
0
 39
0
 70
1
 66
1
  0
VERTEX
  8
0
 10
2027.085957384676
 20
1442.5
 42
-1
  0
VERTEX
  8
0
 10
2027.085957384676
 20
1387.5
 42
-1
  0
SEQEND
  0
POLYLINE
  8
0
 10
0
 20
0
 39
0
 70
1
 66
1
  0
VERTEX
  8
0
 10
2027.085957384676
 20
1212.5
 42
-1
  0
VERTEX
  8
0
 10
2027.085957384676
 20
1157.5
 42
-1
  0
SEQEND
  0
POLYLINE
  8
0
 10
0
 20
0
 39
0
 70
1
 66
1
  0
VERTEX
  8
0
 10
1962.085957384676
 20
1045
 42
0
  0
VERTEX
  8
0
 10
1962.085957384676
 20
815
 42
1
  0
VERTEX
  8
0
 10
2092.085957384676
 20
815
 42
0
  0
VERTEX
  8
0
 10
2092.085957384676
 20
1045
 42
1
  0
SEQEND
  0
POLYLINE
  8
0
 10
0
 20
0
 39
0
 70
1
 66
1
  0
VERTEX
  8
0
 10
2027.085957384676
 20
1072.5
 42
-1
  0
VERTEX
  8
0
 10
2027.085957384676
 20
1017.5
 42
-1
  0
SEQEND
  0
POLYLINE
  8
0
 10
0
 20
0
 39
0
 70
1
 66
1
  0
VERTEX
  8
0
 10
2027.085957384676
 20
842.5
 42
-1
  0
VERTEX
  8
0
 10
2027.085957384676
 20
787.5
 42
-1
  0
SEQEND
  0
POLYLINE
  8
0
 10
0
 20
0
 39
0
 70
1
 66
1
  0
VERTEX
  8
0
 10
1542.085957384676
 20
1045
 42
0
  0
VERTEX
  8
0
 10
1542.085957384676
 20
815
 42
1
  0
VERTEX
  8
0
 10
1672.085957384676
 20
815
 42
0
  0
VERTEX
  8
0
 10
1672.085957384676
 20
1045
 42
1
  0
SEQEND
  0
POLYLINE
  8
0
 10
0
 20
0
 39
0
 70
1
 66
1
  0
VERTEX
  8
0
 10
1607.085957384676
 20
1072.5
 42
-1
  0
VERTEX
  8
0
 10
1607.085957384676
 20
1017.5
 42
-1
  0
SEQEND
  0
POLYLINE
  8
0
 10
0
 20
0
 39
0
 70
1
 66
1
  0
VERTEX
  8
0
 10
1607.085957384676
 20
842.5
 42
-1
  0
VERTEX
  8
0
 10
1607.085957384676
 20
787.5
 42
-1
  0
SEQEND
  0
POLYLINE
  8
0
 10
0
 20
0
 39
0
 70
1
 66
1
  0
VERTEX
  8
0
 10
2802.085957384676
 20
305
 42
0
  0
VERTEX
  8
0
 10
2802.085957384676
 20
75
 42
1
  0
VERTEX
  8
0
 10
2932.085957384676
 20
75
 42
0
  0
VERTEX
  8
0
 10
2932.085957384676
 20
305
 42
1
  0
SEQEND
  0
POLYLINE
  8
0
 10
0
 20
0
 39
0
 70
1
 66
1
  0
VERTEX
  8
0
 10
2867.085957384676
 20
332.5
 42
-1
  0
VERTEX
  8
0
 10
2867.085957384676
 20
277.5
 42
-1
  0
SEQEND
  0
POLYLINE
  8
0
 10
0
 20
0
 39
0
 70
1
 66
1
  0
VERTEX
  8
0
 10
2867.085957384676
 20
102.5
 42
-1
  0
VERTEX
  8
0
 10
2867.085957384676
 20
47.5
 42
-1
  0
SEQEND
  0
POLYLINE
  8
0
 10
0
 20
0
 39
0
 70
1
 66
1
  0
VERTEX
  8
0
 10
1532.0859438150937
 20
728.12862273851078
 42
0.13957709074020386
  0
VERTEX
  8
0
 10
1520.114132451542
 20
770.27233667424389
 42
0
  0
VERTEX
  8
0
 10
1461.0603234068112
 20
865.70222531782565
 42
0.87229293584823608
  0
VERTEX
  8
0
 10
1370.5138945676997
 20
825.49071596770114
 42
0
  0
VERTEX
  8
0
 10
1453.5589343039878
 20
538.56122946088203
 42
0.86794537305831909
  0
VERTEX
  8
0
 10
1531.9819763332202
 20
549.65859555077031
 42
-0
  0
SEQEND
  0
POLYLINE
  8
0
 10
0
 20
0
 39
0
 70
1
 66
1
  0
VERTEX
  8
0
 10
1402.4511371449189
 20
855.89338352309642
 42
-1
  0
VERTEX
  8
0
 10
1426.1307646230416
 20
817.62753327714381
 42
-1
  0
SEQEND
  0
POLYLINE
  8
0
 10
0
 20
0
 39
0
 70
1
 66
1
  0
VERTEX
  8
0
 10
1475.5852541223721
 20
557.17503224836764
 42
-1
  0
VERTEX
  8
0
 10
1491.3716724411206
 20
531.66446541773257
 42
-1
  0
SEQEND
  0
POLYLINE
  8
0
 10
0
 20
0
 39
0
 70
1
 66
1
  0
VERTEX
  8
0
 10
1286.7383113901456
 20
615.95867030410386
 42
0.13957709074020386
  0
VERTEX
  8
0
 10
1298.7101227536973
 20
573.81495636837076
 42
0
  0
VERTEX
  8
0
 10
1357.7639317984281
 20
478.385067724789
 42
0.87229293584823608
  0
VERTEX
  8
0
 10
1448.3103606375396
 20
518.59657707491351
 42
0
  0
VERTEX
  8
0
 10
1365.2653209012515
 20
805.52606358173261
 42
0.86794537305831909
  0
VERTEX
  8
0
 10
1286.8422788720191
 20
794.42869749184433
 42
-0
  0
SEQEND
  0
POLYLINE
  8
0
 10
0
 20
0
 39
0
 70
1
 66
1
  0
VERTEX
  8
0
 10
1416.3731180603204
 20
488.19390951951823
 42
-1
  0
VERTEX
  8
0
 10
1392.6934905821977
 20
526.45975976547084
 42
-1
  0
SEQEND
  0
POLYLINE
  8
0
 10
0
 20
0
 39
0
 70
1
 66
1
  0
VERTEX
  8
0
 10
1343.2390010828672
 20
786.912260794247
 42
-1
  0
VERTEX
  8
0
 10
1327.4525827641187
 20
812.42282762488207
 42
-1
  0
SEQEND
  0
POLYLINE
  8
0
 10
0
 20
0
 39
0
 70
1
 66
1
  0
VERTEX
  8
0
 10
255.34764599453038
 20
283.43285839097257
 42
0.13957709074020386
  0
VERTEX
  8
0
 10
243.37583463097863
 20
325.57657232670567
 42
0
  0
VERTEX
  8
0
 10
184.32202558624786
 20
421.00646097028743
 42
0.87229293584823608
  0
VERTEX
  8
0
 10
93.775596747136348
 20
380.79495162016292
 42
0
  0
VERTEX
  8
0
 10
176.82063648342452
 20
93.86546511334376
 42
0.86794537305831909
  0
VERTEX
  8
0
 10
255.24367851265689
 20
104.9628312032321
 42
-0
  0
SEQEND
  0
POLYLINE
  8
0
 10
0
 20
0
 39
0
 70
1
 66
1
  0
VERTEX
  8
0
 10
125.71283932435554
 20
411.1976191755582
 42
-1
  0
VERTEX
  8
0
 10
149.39246680247825
 20
372.9317689296056
 42
-1
  0
SEQEND
  0
POLYLINE
  8
0
 10
0
 20
0
 39
0
 70
1
 66
1
  0
VERTEX
  8
0
 10
198.84695630180877
 20
112.47926790082943
 42
-1
  0
VERTEX
  8
0
 10
214.63337462055725
 20
86.968701070194356
 42
-1
  0
SEQEND
  0
POLYLINE
  8
0
 10
0
 20
0
 39
0
 70
1
 66
1
  0
VERTEX
  8
0
 10
10.000013569582279
 20
171.26290595656559
 42
0.13957709074020386
  0
VERTEX
  8
0
 10
21.97182493313403
 20
129.11919202083249
 42
0
  0
VERTEX
  8
0
 10
81.025633977864828
 20
33.689303377250759
 42
0.87229293584823608
  0
VERTEX
  8
0
 10
171.57206281697631
 20
73.900812727375282
 42
0
  0
VERTEX
  8
0
 10
88.52702308068811
 20
360.8302992341944
 42
0.86794537305831909
  0
VERTEX
  8
0
 10
10.103981051455747
 20
349.73293314430606
 42
-0
  0
SEQEND
  0
POLYLINE
  8
0
 10
0
 20
0
 39
0
 70
1
 66
1
  0
VERTEX
  8
0
 10
139.63482023975712
 20
43.498145171979999
 42
-1
  0
VERTEX
  8
0
 10
115.95519276163441
 20
81.763995417932591
 42
-1
  0
SEQEND
  0
POLYLINE
  8
0
 10
0
 20
0
 39
0
 70
1
 66
1
  0
VERTEX
  8
0
 10
66.500703262303858
 20
342.21649644670873
 42
-1
  0
VERTEX
  8
0
 10
50.714284943555384
 20
367.7270632773438
 42
-1
  0
SEQEND
  0
POLYLINE
  8
0
 10
0
 20
0
 39
0
 70
1
 66
1
  0
VERTEX
  8
0
 10
510.69530555864299
 20
283.43285839097257
 42
0.13957709074020386
  0
VERTEX
  8
0
 10
498.72349419509123
 20
325.57657232670567
 42
0
  0
VERTEX
  8
0
 10
439.66968515036046
 20
421.00646097028743
 42
0.87229293584823608
  0
VERTEX
  8
0
 10
349.12325631124895
 20
380.79495162016292
 42
0
  0
VERTEX
  8
0
 10
432.16829604753713
 20
93.86546511334376
 42
0.86794537305831909
  0
VERTEX
  8
0
 10
510.59133807676949
 20
104.9628312032321
 42
-0
  0
SEQEND
  0
POLYLINE
  8
0
 10
0
 20
0
 39
0
 70
1
 66
1
  0
VERTEX
  8
0
 10
381.06049888846815
 20
411.1976191755582
 42
-1
  0
VERTEX
  8
0
 10
404.74012636659086
 20
372.9317689296056
 42
-1
  0
SEQEND
  0
POLYLINE
  8
0
 10
0
 20
0
 39
0
 70
1
 66
1
  0
VERTEX
  8
0
 10
454.19461586592138
 20
112.47926790082943
 42
-1
  0
VERTEX
  8
0
 10
469.98103418466985
 20
86.968701070194356
 42
-1
  0
SEQEND
  0
POLYLINE
  8
0
 10
0
 20
0
 39
0
 70
1
 66
1
  0
VERTEX
  8
0
 10
265.3476731336948
 20
171.26290595656559
 42
0.13957709074020386
  0
VERTEX
  8
0
 10
277.31948449724655
 20
129.11919202083249
 42
0
  0
VERTEX
  8
0
 10
336.37329354197732
 20
33.689303377250759
 42
0.87229293584823608
  0
VERTEX
  8
0
 10
426.91972238108883
 20
73.900812727375282
 42
0
  0
VERTEX
  8
0
 10
343.8746826448006
 20
360.8302992341944
 42
0.86794537305831909
  0
VERTEX
  8
0
 10
265.45164061556829
 20
349.73293314430606
 42
-0
  0
SEQEND
  0
POLYLINE
  8
0
 10
0
 20
0
 39
0
 70
1
 66
1
  0
VERTEX
  8
0
 10
394.98247980386964
 20
43.498145171979999
 42
-1
  0
VERTEX
  8
0
 10
371.30285232574693
 20
81.763995417932591
 42
-1
  0
SEQEND
  0
POLYLINE
  8
0
 10
0
 20
0
 39
0
 70
1
 66
1
  0
VERTEX
  8
0
 10
321.84836282641641
 20
342.21649644670873
 42
-1
  0
VERTEX
  8
0
 10
306.06194450766793
 20
367.7270632773438
 42
-1
  0
SEQEND
  0
POLYLINE
  8
0
 10
0
 20
0
 39
0
 70
1
 66
1
  0
VERTEX
  8
0
 10
1542.085957384676
 20
305
 42
0
  0
VERTEX
  8
0
 10
1542.085957384676
 20
75
 42
1
  0
VERTEX
  8
0
 10
1672.085957384676
 20
75
 42
0
  0
VERTEX
  8
0
 10
1672.085957384676
 20
305
 42
1
  0
SEQEND
  0
POLYLINE
  8
0
 10
0
 20
0
 39
0
 70
1
 66
1
  0
VERTEX
  8
0
 10
1607.085957384676
 20
332.5
 42
-1
  0
VERTEX
  8
0
 10
1607.085957384676
 20
277.5
 42
-1
  0
SEQEND
  0
POLYLINE
  8
0
 10
0
 20
0
 39
0
 70
1
 66
1
  0
VERTEX
  8
0
 10
1607.085957384676
 20
102.5
 42
-1
  0
VERTEX
  8
0
 10
1607.085957384676
 20
47.5
 42
-1
  0
SEQEND
  0
POLYLINE
  8
0
 10
0
 20
0
 39
0
 70
1
 66
1
  0
VERTEX
  8
0
 10
1532.0859438150937
 20
1172.824387086049
 42
0.13957709074020386
  0
VERTEX
  8
0
 10
1520.114132451542
 20
1214.9681010217821
 42
0
  0
VERTEX
  8
0
 10
1461.0603234068112
 20
1310.3979896653639
 42
0.87229293584823608
  0
VERTEX
  8
0
 10
1370.5138945676997
 20
1270.1864803152394
 42
0
  0
VERTEX
  8
0
 10
1453.5589343039878
 20
983.25699380842025
 42
0.86794537305831909
  0
VERTEX
  8
0
 10
1531.9819763332202
 20
994.35435989830853
 42
-0
  0
SEQEND
  0
POLYLINE
  8
0
 10
0
 20
0
 39
0
 70
1
 66
1
  0
VERTEX
  8
0
 10
1402.4511371449189
 20
1300.5891478706346
 42
-1
  0
VERTEX
  8
0
 10
1426.1307646230416
 20
1262.323297624682
 42
-1
  0
SEQEND
  0
POLYLINE
  8
0
 10
0
 20
0
 39
0
 70
1
 66
1
  0
VERTEX
  8
0
 10
1475.5852541223721
 20
1001.8707965959059
 42
-1
  0
VERTEX
  8
0
 10
1491.3716724411206
 20
976.36022976527079
 42
-1
  0
SEQEND
  0
POLYLINE
  8
0
 10
0
 20
0
 39
0
 70
1
 66
1
  0
VERTEX
  8
0
 10
1286.7383113901456
 20
1060.6544346516421
 42
0.13957709074020386
  0
VERTEX
  8
0
 10
1298.7101227536973
 20
1018.510720715909
 42
0
  0
VERTEX
  8
0
 10
1357.7639317984281
 20
923.08083207232721
 42
0.87229293584823608
  0
VERTEX
  8
0
 10
1448.3103606375396
 20
963.29234142245173
 42
0
  0
VERTEX
  8
0
 10
1365.2653209012515
 20
1250.2218279292708
 42
0.86794537305831909
  0
VERTEX
  8
0
 10
1286.8422788720191
 20
1239.1244618393825
 42
-0
  0
SEQEND
  0
POLYLINE
  8
0
 10
0
 20
0
 39
0
 70
1
 66
1
  0
VERTEX
  8
0
 10
1416.3731180603204
 20
932.88967386705644
 42
-1
  0
VERTEX
  8
0
 10
1392.6934905821977
 20
971.15552411300905
 42
-1
  0
SEQEND
  0
POLYLINE
  8
0
 10
0
 20
0
 39
0
 70
1
 66
1
  0
VERTEX
  8
0
 10
1343.2390010828672
 20
1231.6080251417852
 42
-1
  0
VERTEX
  8
0
 10
1327.4525827641187
 20
1257.1185919724203
 42
-1
  0
SEQEND
  0
POLYLINE
  8
0
 10
0
 20
0
 39
0
 70
1
 66
1
  0
VERTEX
  8
0
 10
766.04296512275562
 20
1172.824387086049
 42
0.13957709074020386
  0
VERTEX
  8
0
 10
754.07115375920387
 20
1214.9681010217821
 42
0
  0
VERTEX
  8
0
 10
695.0173447144731
 20
1310.3979896653639
 42
0.87229293584823608
  0
VERTEX
  8
0
 10
604.47091587536158
 20
1270.1864803152394
 42
0
  0
VERTEX
  8
0
 10
687.51595561164982
 20
983.25699380842025
 42
0.86794537305831909
  0
VERTEX
  8
0
 10
765.93899764088212
 20
994.35435989830853
 42
-0
  0
SEQEND
  0
POLYLINE
  8
0
 10
0
 20
0
 39
0
 70
1
 66
1
  0
VERTEX
  8
0
 10
636.40815845258078
 20
1300.5891478706346
 42
-1
  0
VERTEX
  8
0
 10
660.08778593070349
 20
1262.323297624682
 42
-1
  0
SEQEND
  0
POLYLINE
  8
0
 10
0
 20
0
 39
0
 70
1
 66
1
  0
VERTEX
  8
0
 10
709.54227543003401
 20
1001.8707965959059
 42
-1
  0
VERTEX
  8
0
 10
725.32869374878248
 20
976.36022976527079
 42
-1
  0
SEQEND
  0
POLYLINE
  8
0
 10
0
 20
0
 39
0
 70
1
 66
1
  0
VERTEX
  8
0
 10
520.69533269780754
 20
1060.6544346516421
 42
0.13957709074020386
  0
VERTEX
  8
0
 10
532.66714406135929
 20
1018.510720715909
 42
0
  0
VERTEX
  8
0
 10
591.72095310609006
 20
923.08083207232721
 42
0.87229293584823608
  0
VERTEX
  8
0
 10
682.26738194520158
 20
963.29234142245173
 42
0
  0
VERTEX
  8
0
 10
599.22234220891335
 20
1250.2218279292708
 42
0.86794537305831909
  0
VERTEX
  8
0
 10
520.79930017968104
 20
1239.1244618393825
 42
-0
  0
SEQEND
  0
POLYLINE
  8
0
 10
0
 20
0
 39
0
 70
1
 66
1
  0
VERTEX
  8
0
 10
650.33013936798238
 20
932.88967386705644
 42
-1
  0
VERTEX
  8
0
 10
626.65051188985967
 20
971.15552411300905
 42
-1
  0
SEQEND
  0
POLYLINE
  8
0
 10
0
 20
0
 39
0
 70
1
 66
1
  0
VERTEX
  8
0
 10
577.19602239052915
 20
1231.6080251417852
 42
-1
  0
VERTEX
  8
0
 10
561.40960407178068
 20
1257.1185919724203
 42
-1
  0
SEQEND
  0
POLYLINE
  8
0
 10
0
 20
0
 39
0
 70
1
 66
1
  0
VERTEX
  8
0
 10
1822.085957384676
 20
1045
 42
0
  0
VERTEX
  8
0
 10
1822.085957384676
 20
815
 42
1
  0
VERTEX
  8
0
 10
1952.085957384676
 20
815
 42
0
  0
VERTEX
  8
0
 10
1952.085957384676
 20
1045
 42
1
  0
SEQEND
  0
POLYLINE
  8
0
 10
0
 20
0
 39
0
 70
1
 66
1
  0
VERTEX
  8
0
 10
1887.085957384676
 20
1072.5
 42
-1
  0
VERTEX
  8
0
 10
1887.085957384676
 20
1017.5
 42
-1
  0
SEQEND
  0
POLYLINE
  8
0
 10
0
 20
0
 39
0
 70
1
 66
1
  0
VERTEX
  8
0
 10
1887.085957384676
 20
842.5
 42
-1
  0
VERTEX
  8
0
 10
1887.085957384676
 20
787.5
 42
-1
  0
SEQEND
  0
POLYLINE
  8
0
 10
0
 20
0
 39
0
 70
1
 66
1
  0
VERTEX
  8
0
 10
510.69530555864299
 20
1172.824387086049
 42
0.13957709074020386
  0
VERTEX
  8
0
 10
498.72349419509123
 20
1214.9681010217821
 42
0
  0
VERTEX
  8
0
 10
439.66968515036046
 20
1310.3979896653639
 42
0.87229293584823608
  0
VERTEX
  8
0
 10
349.12325631124895
 20
1270.1864803152394
 42
0
  0
VERTEX
  8
0
 10
432.16829604753713
 20
983.25699380842025
 42
0.86794537305831909
  0
VERTEX
  8
0
 10
510.59133807676949
 20
994.35435989830853
 42
-0
  0
SEQEND
  0
POLYLINE
  8
0
 10
0
 20
0
 39
0
 70
1
 66
1
  0
VERTEX
  8
0
 10
381.06049888846815
 20
1300.5891478706346
 42
-1
  0
VERTEX
  8
0
 10
404.74012636659086
 20
1262.323297624682
 42
-1
  0
SEQEND
  0
POLYLINE
  8
0
 10
0
 20
0
 39
0
 70
1
 66
1
  0
VERTEX
  8
0
 10
454.19461586592138
 20
1001.8707965959059
 42
-1
  0
VERTEX
  8
0
 10
469.98103418466985
 20
976.36022976527079
 42
-1
  0
SEQEND
  0
POLYLINE
  8
0
 10
0
 20
0
 39
0
 70
1
 66
1
  0
VERTEX
  8
0
 10
265.3476731336948
 20
1060.6544346516421
 42
0.13957709074020386
  0
VERTEX
  8
0
 10
277.31948449724655
 20
1018.510720715909
 42
0
  0
VERTEX
  8
0
 10
336.37329354197732
 20
923.08083207232721
 42
0.87229293584823608
  0
VERTEX
  8
0
 10
426.91972238108883
 20
963.29234142245173
 42
0
  0
VERTEX
  8
0
 10
343.8746826448006
 20
1250.2218279292708
 42
0.86794537305831909
  0
VERTEX
  8
0
 10
265.45164061556829
 20
1239.1244618393825
 42
-0
  0
SEQEND
  0
POLYLINE
  8
0
 10
0
 20
0
 39
0
 70
1
 66
1
  0
VERTEX
  8
0
 10
394.98247980386964
 20
932.88967386705644
 42
-1
  0
VERTEX
  8
0
 10
371.30285232574693
 20
971.15552411300905
 42
-1
  0
SEQEND
  0
POLYLINE
  8
0
 10
0
 20
0
 39
0
 70
1
 66
1
  0
VERTEX
  8
0
 10
321.84836282641641
 20
1231.6080251417852
 42
-1
  0
VERTEX
  8
0
 10
306.06194450766793
 20
1257.1185919724203
 42
-1
  0
SEQEND
  0
POLYLINE
  8
0
 10
0
 20
0
 39
0
 70
1
 66
1
  0
VERTEX
  8
0
 10
1532.0859438150937
 20
283.43285839097257
 42
0.13957709074020386
  0
VERTEX
  8
0
 10
1520.114132451542
 20
325.57657232670567
 42
0
  0
VERTEX
  8
0
 10
1461.0603234068112
 20
421.00646097028743
 42
0.87229293584823608
  0
VERTEX
  8
0
 10
1370.5138945676997
 20
380.79495162016292
 42
0
  0
VERTEX
  8
0
 10
1453.5589343039878
 20
93.86546511334376
 42
0.86794537305831909
  0
VERTEX
  8
0
 10
1531.9819763332202
 20
104.9628312032321
 42
-0
  0
SEQEND
  0
POLYLINE
  8
0
 10
0
 20
0
 39
0
 70
1
 66
1
  0
VERTEX
  8
0
 10
1402.4511371449189
 20
411.1976191755582
 42
-1
  0
VERTEX
  8
0
 10
1426.1307646230416
 20
372.9317689296056
 42
-1
  0
SEQEND
  0
POLYLINE
  8
0
 10
0
 20
0
 39
0
 70
1
 66
1
  0
VERTEX
  8
0
 10
1475.5852541223721
 20
112.47926790082943
 42
-1
  0
VERTEX
  8
0
 10
1491.3716724411206
 20
86.968701070194356
 42
-1
  0
SEQEND
  0
POLYLINE
  8
0
 10
0
 20
0
 39
0
 70
1
 66
1
  0
VERTEX
  8
0
 10
1286.7383113901456
 20
171.26290595656559
 42
0.13957709074020386
  0
VERTEX
  8
0
 10
1298.7101227536973
 20
129.11919202083249
 42
0
  0
VERTEX
  8
0
 10
1357.7639317984281
 20
33.689303377250759
 42
0.87229293584823608
  0
VERTEX
  8
0
 10
1448.3103606375396
 20
73.900812727375282
 42
0
  0
VERTEX
  8
0
 10
1365.2653209012515
 20
360.8302992341944
 42
0.86794537305831909
  0
VERTEX
  8
0
 10
1286.8422788720191
 20
349.73293314430606
 42
-0
  0
SEQEND
  0
POLYLINE
  8
0
 10
0
 20
0
 39
0
 70
1
 66
1
  0
VERTEX
  8
0
 10
1416.3731180603204
 20
43.498145171979999
 42
-1
  0
VERTEX
  8
0
 10
1392.6934905821977
 20
81.763995417932591
 42
-1
  0
SEQEND
  0
POLYLINE
  8
0
 10
0
 20
0
 39
0
 70
1
 66
1
  0
VERTEX
  8
0
 10
1343.2390010828672
 20
342.21649644670873
 42
-1
  0
VERTEX
  8
0
 10
1327.4525827641187
 20
367.7270632773438
 42
-1
  0
SEQEND
  0
POLYLINE
  8
0
 10
0
 20
0
 39
0
 70
1
 66
1
  0
VERTEX
  8
0
 10
2242.085957384676
 20
1415
 42
0
  0
VERTEX
  8
0
 10
2242.085957384676
 20
1185
 42
1
  0
VERTEX
  8
0
 10
2372.085957384676
 20
1185
 42
0
  0
VERTEX
  8
0
 10
2372.085957384676
 20
1415
 42
1
  0
SEQEND
  0
POLYLINE
  8
0
 10
0
 20
0
 39
0
 70
1
 66
1
  0
VERTEX
  8
0
 10
2307.085957384676
 20
1442.5
 42
-1
  0
VERTEX
  8
0
 10
2307.085957384676
 20
1387.5
 42
-1
  0
SEQEND
  0
POLYLINE
  8
0
 10
0
 20
0
 39
0
 70
1
 66
1
  0
VERTEX
  8
0
 10
2307.085957384676
 20
1212.5
 42
-1
  0
VERTEX
  8
0
 10
2307.085957384676
 20
1157.5
 42
-1
  0
SEQEND
  0
POLYLINE
  8
0
 10
0
 20
0
 39
0
 70
1
 66
1
  0
VERTEX
  8
0
 10
255.34764599453038
 20
1172.824387086049
 42
0.13957709074020386
  0
VERTEX
  8
0
 10
243.37583463097863
 20
1214.9681010217821
 42
0
  0
VERTEX
  8
0
 10
184.32202558624786
 20
1310.3979896653639
 42
0.87229293584823608
  0
VERTEX
  8
0
 10
93.775596747136348
 20
1270.1864803152394
 42
0
  0
VERTEX
  8
0
 10
176.82063648342452
 20
983.25699380842025
 42
0.86794537305831909
  0
VERTEX
  8
0
 10
255.24367851265689
 20
994.35435989830853
 42
-0
  0
SEQEND
  0
POLYLINE
  8
0
 10
0
 20
0
 39
0
 70
1
 66
1
  0
VERTEX
  8
0
 10
125.71283932435554
 20
1300.5891478706346
 42
-1
  0
VERTEX
  8
0
 10
149.39246680247825
 20
1262.323297624682
 42
-1
  0
SEQEND
  0
POLYLINE
  8
0
 10
0
 20
0
 39
0
 70
1
 66
1
  0
VERTEX
  8
0
 10
198.84695630180877
 20
1001.8707965959059
 42
-1
  0
VERTEX
  8
0
 10
214.63337462055725
 20
976.36022976527079
 42
-1
  0
SEQEND
  0
POLYLINE
  8
0
 10
0
 20
0
 39
0
 70
1
 66
1
  0
VERTEX
  8
0
 10
10.000013569582279
 20
1060.6544346516421
 42
0.13957709074020386
  0
VERTEX
  8
0
 10
21.97182493313403
 20
1018.510720715909
 42
0
  0
VERTEX
  8
0
 10
81.025633977864828
 20
923.08083207232721
 42
0.87229293584823608
  0
VERTEX
  8
0
 10
171.57206281697631
 20
963.29234142245173
 42
0
  0
VERTEX
  8
0
 10
88.52702308068811
 20
1250.2218279292708
 42
0.86794537305831909
  0
VERTEX
  8
0
 10
10.103981051455747
 20
1239.1244618393825
 42
-0
  0
SEQEND
  0
POLYLINE
  8
0
 10
0
 20
0
 39
0
 70
1
 66
1
  0
VERTEX
  8
0
 10
139.63482023975712
 20
932.88967386705644
 42
-1
  0
VERTEX
  8
0
 10
115.95519276163441
 20
971.15552411300905
 42
-1
  0
SEQEND
  0
POLYLINE
  8
0
 10
0
 20
0
 39
0
 70
1
 66
1
  0
VERTEX
  8
0
 10
66.500703262303858
 20
1231.6080251417852
 42
-1
  0
VERTEX
  8
0
 10
50.714284943555384
 20
1257.1185919724203
 42
-1
  0
SEQEND
  0
POLYLINE
  8
0
 10
0
 20
0
 39
0
 70
1
 66
1
  0
VERTEX
  8
0
 10
255.34764599453038
 20
728.12862273851078
 42
0.13957709074020386
  0
VERTEX
  8
0
 10
243.37583463097863
 20
770.27233667424389
 42
0
  0
VERTEX
  8
0
 10
184.32202558624786
 20
865.70222531782565
 42
0.87229293584823608
  0
VERTEX
  8
0
 10
93.775596747136348
 20
825.49071596770114
 42
0
  0
VERTEX
  8
0
 10
176.82063648342452
 20
538.56122946088203
 42
0.86794537305831909
  0
VERTEX
  8
0
 10
255.24367851265689
 20
549.65859555077031
 42
-0
  0
SEQEND
  0
POLYLINE
  8
0
 10
0
 20
0
 39
0
 70
1
 66
1
  0
VERTEX
  8
0
 10
125.71283932435554
 20
855.89338352309642
 42
-1
  0
VERTEX
  8
0
 10
149.39246680247825
 20
817.62753327714381
 42
-1
  0
SEQEND
  0
POLYLINE
  8
0
 10
0
 20
0
 39
0
 70
1
 66
1
  0
VERTEX
  8
0
 10
198.84695630180877
 20
557.17503224836764
 42
-1
  0
VERTEX
  8
0
 10
214.63337462055725
 20
531.66446541773257
 42
-1
  0
SEQEND
  0
POLYLINE
  8
0
 10
0
 20
0
 39
0
 70
1
 66
1
  0
VERTEX
  8
0
 10
10.000013569582279
 20
615.95867030410386
 42
0.13957709074020386
  0
VERTEX
  8
0
 10
21.97182493313403
 20
573.81495636837076
 42
0
  0
VERTEX
  8
0
 10
81.025633977864828
 20
478.385067724789
 42
0.87229293584823608
  0
VERTEX
  8
0
 10
171.57206281697631
 20
518.59657707491351
 42
0
  0
VERTEX
  8
0
 10
88.52702308068811
 20
805.52606358173261
 42
0.86794537305831909
  0
VERTEX
  8
0
 10
10.103981051455747
 20
794.42869749184433
 42
-0
  0
SEQEND
  0
POLYLINE
  8
0
 10
0
 20
0
 39
0
 70
1
 66
1
  0
VERTEX
  8
0
 10
139.63482023975712
 20
488.19390951951823
 42
-1
  0
VERTEX
  8
0
 10
115.95519276163441
 20
526.45975976547084
 42
-1
  0
SEQEND
  0
POLYLINE
  8
0
 10
0
 20
0
 39
0
 70
1
 66
1
  0
VERTEX
  8
0
 10
66.500703262303858
 20
786.912260794247
 42
-1
  0
VERTEX
  8
0
 10
50.714284943555384
 20
812.42282762488207
 42
-1
  0
SEQEND
  0
POLYLINE
  8
0
 10
0
 20
0
 39
0
 70
1
 66
1
  0
VERTEX
  8
0
 10
510.69530555864299
 20
728.12862273851078
 42
0.13957709074020386
  0
VERTEX
  8
0
 10
498.72349419509123
 20
770.27233667424389
 42
0
  0
VERTEX
  8
0
 10
439.66968515036046
 20
865.70222531782565
 42
0.87229293584823608
  0
VERTEX
  8
0
 10
349.12325631124895
 20
825.49071596770114
 42
0
  0
VERTEX
  8
0
 10
432.16829604753713
 20
538.56122946088203
 42
0.86794537305831909
  0
VERTEX
  8
0
 10
510.59133807676949
 20
549.65859555077031
 42
-0
  0
SEQEND
  0
POLYLINE
  8
0
 10
0
 20
0
 39
0
 70
1
 66
1
  0
VERTEX
  8
0
 10
381.06049888846815
 20
855.89338352309642
 42
-1
  0
VERTEX
  8
0
 10
404.74012636659086
 20
817.62753327714381
 42
-1
  0
SEQEND
  0
POLYLINE
  8
0
 10
0
 20
0
 39
0
 70
1
 66
1
  0
VERTEX
  8
0
 10
454.19461586592138
 20
557.17503224836764
 42
-1
  0
VERTEX
  8
0
 10
469.98103418466985
 20
531.66446541773257
 42
-1
  0
SEQEND
  0
POLYLINE
  8
0
 10
0
 20
0
 39
0
 70
1
 66
1
  0
VERTEX
  8
0
 10
265.3476731336948
 20
615.95867030410386
 42
0.13957709074020386
  0
VERTEX
  8
0
 10
277.31948449724655
 20
573.81495636837076
 42
0
  0
VERTEX
  8
0
 10
336.37329354197732
 20
478.385067724789
 42
0.87229293584823608
  0
VERTEX
  8
0
 10
426.91972238108883
 20
518.59657707491351
 42
0
  0
VERTEX
  8
0
 10
343.8746826448006
 20
805.52606358173261
 42
0.86794537305831909
  0
VERTEX
  8
0
 10
265.45164061556829
 20
794.42869749184433
 42
-0
  0
SEQEND
  0
POLYLINE
  8
0
 10
0
 20
0
 39
0
 70
1
 66
1
  0
VERTEX
  8
0
 10
394.98247980386964
 20
488.19390951951823
 42
-1
  0
VERTEX
  8
0
 10
371.30285232574693
 20
526.45975976547084
 42
-1
  0
SEQEND
  0
POLYLINE
  8
0
 10
0
 20
0
 39
0
 70
1
 66
1
  0
VERTEX
  8
0
 10
321.84836282641641
 20
786.912260794247
 42
-1
  0
VERTEX
  8
0
 10
306.06194450766793
 20
812.42282762488207
 42
-1
  0
SEQEND
  0
POLYLINE
  8
0
 10
0
 20
0
 39
0
 70
1
 66
1
  0
VERTEX
  8
0
 10
1021.3906246868683
 20
283.43285839097257
 42
0.13957709074020386
  0
VERTEX
  8
0
 10
1009.4188133233165
 20
325.57657232670567
 42
0
  0
VERTEX
  8
0
 10
950.36500427858573
 20
421.00646097028743
 42
0.87229293584823608
  0
VERTEX
  8
0
 10
859.81857543947422
 20
380.79495162016292
 42
0
  0
VERTEX
  8
0
 10
942.86361517576233
 20
93.86546511334376
 42
0.86794537305831909
  0
VERTEX
  8
0
 10
1021.2866572049948
 20
104.9628312032321
 42
-0
  0
SEQEND
  0
POLYLINE
  8
0
 10
0
 20
0
 39
0
 70
1
 66
1
  0
VERTEX
  8
0
 10
891.75581801669341
 20
411.1976191755582
 42
-1
  0
VERTEX
  8
0
 10
915.43544549481612
 20
372.9317689296056
 42
-1
  0
SEQEND
  0
POLYLINE
  8
0
 10
0
 20
0
 39
0
 70
1
 66
1
  0
VERTEX
  8
0
 10
964.88993499414664
 20
112.47926790082943
 42
-1
  0
VERTEX
  8
0
 10
980.67635331289512
 20
86.968701070194356
 42
-1
  0
SEQEND
  0
POLYLINE
  8
0
 10
0
 20
0
 39
0
 70
1
 66
1
  0
VERTEX
  8
0
 10
776.04299226192006
 20
171.26290595656559
 42
0.13957709074020386
  0
VERTEX
  8
0
 10
788.01480362547181
 20
129.11919202083249
 42
0
  0
VERTEX
  8
0
 10
847.06861267020258
 20
33.689303377250759
 42
0.87229293584823608
  0
VERTEX
  8
0
 10
937.6150415093141
 20
73.900812727375282
 42
0
  0
VERTEX
  8
0
 10
854.57000177302587
 20
360.8302992341944
 42
0.86794537305831909
  0
VERTEX
  8
0
 10
776.14695974379356
 20
349.73293314430606
 42
-0
  0
SEQEND
  0
POLYLINE
  8
0
 10
0
 20
0
 39
0
 70
1
 66
1
  0
VERTEX
  8
0
 10
905.6777989320949
 20
43.498145171979999
 42
-1
  0
VERTEX
  8
0
 10
881.99817145397219
 20
81.763995417932591
 42
-1
  0
SEQEND
  0
POLYLINE
  8
0
 10
0
 20
0
 39
0
 70
1
 66
1
  0
VERTEX
  8
0
 10
832.54368195464167
 20
342.21649644670873
 42
-1
  0
VERTEX
  8
0
 10
816.7572636358932
 20
367.7270632773438
 42
-1
  0
SEQEND
  0
POLYLINE
  8
0
 10
0
 20
0
 39
0
 70
1
 66
1
  0
VERTEX
  8
0
 10
1021.3906246868683
 20
728.12862273851078
 42
0.13957709074020386
  0
VERTEX
  8
0
 10
1009.4188133233165
 20
770.27233667424389
 42
0
  0
VERTEX
  8
0
 10
950.36500427858573
 20
865.70222531782565
 42
0.87229293584823608
  0
VERTEX
  8
0
 10
859.81857543947422
 20
825.49071596770114
 42
0
  0
VERTEX
  8
0
 10
942.86361517576233
 20
538.56122946088203
 42
0.86794537305831909
  0
VERTEX
  8
0
 10
1021.2866572049948
 20
549.65859555077031
 42
-0
  0
SEQEND
  0
POLYLINE
  8
0
 10
0
 20
0
 39
0
 70
1
 66
1
  0
VERTEX
  8
0
 10
891.75581801669341
 20
855.89338352309642
 42
-1
  0
VERTEX
  8
0
 10
915.43544549481612
 20
817.62753327714381
 42
-1
  0
SEQEND
  0
POLYLINE
  8
0
 10
0
 20
0
 39
0
 70
1
 66
1
  0
VERTEX
  8
0
 10
964.88993499414664
 20
557.17503224836764
 42
-1
  0
VERTEX
  8
0
 10
980.67635331289512
 20
531.66446541773257
 42
-1
  0
SEQEND
  0
POLYLINE
  8
0
 10
0
 20
0
 39
0
 70
1
 66
1
  0
VERTEX
  8
0
 10
776.04299226192006
 20
615.95867030410386
 42
0.13957709074020386
  0
VERTEX
  8
0
 10
788.01480362547181
 20
573.81495636837076
 42
0
  0
VERTEX
  8
0
 10
847.06861267020258
 20
478.385067724789
 42
0.87229293584823608
  0
VERTEX
  8
0
 10
937.6150415093141
 20
518.59657707491351
 42
0
  0
VERTEX
  8
0
 10
854.57000177302587
 20
805.52606358173261
 42
0.86794537305831909
  0
VERTEX
  8
0
 10
776.14695974379356
 20
794.42869749184433
 42
-0
  0
SEQEND
  0
POLYLINE
  8
0
 10
0
 20
0
 39
0
 70
1
 66
1
  0
VERTEX
  8
0
 10
905.6777989320949
 20
488.19390951951823
 42
-1
  0
VERTEX
  8
0
 10
881.99817145397219
 20
526.45975976547084
 42
-1
  0
SEQEND
  0
POLYLINE
  8
0
 10
0
 20
0
 39
0
 70
1
 66
1
  0
VERTEX
  8
0
 10
832.54368195464167
 20
786.912260794247
 42
-1
  0
VERTEX
  8
0
 10
816.7572636358932
 20
812.42282762488207
 42
-1
  0
SEQEND
  0
POLYLINE
  8
0
 10
0
 20
0
 39
0
 70
1
 66
1
  0
VERTEX
  8
0
 10
766.04296512275562
 20
728.12862273851078
 42
0.13957709074020386
  0
VERTEX
  8
0
 10
754.07115375920387
 20
770.27233667424389
 42
0
  0
VERTEX
  8
0
 10
695.0173447144731
 20
865.70222531782565
 42
0.87229293584823608
  0
VERTEX
  8
0
 10
604.47091587536158
 20
825.49071596770114
 42
0
  0
VERTEX
  8
0
 10
687.51595561164982
 20
538.56122946088203
 42
0.86794537305831909
  0
VERTEX
  8
0
 10
765.93899764088212
 20
549.65859555077031
 42
-0
  0
SEQEND
  0
POLYLINE
  8
0
 10
0
 20
0
 39
0
 70
1
 66
1
  0
VERTEX
  8
0
 10
636.40815845258078
 20
855.89338352309642
 42
-1
  0
VERTEX
  8
0
 10
660.08778593070349
 20
817.62753327714381
 42
-1
  0
SEQEND
  0
POLYLINE
  8
0
 10
0
 20
0
 39
0
 70
1
 66
1
  0
VERTEX
  8
0
 10
709.54227543003401
 20
557.17503224836764
 42
-1
  0
VERTEX
  8
0
 10
725.32869374878248
 20
531.66446541773257
 42
-1
  0
SEQEND
  0
POLYLINE
  8
0
 10
0
 20
0
 39
0
 70
1
 66
1
  0
VERTEX
  8
0
 10
520.69533269780754
 20
615.95867030410386
 42
0.13957709074020386
  0
VERTEX
  8
0
 10
532.66714406135929
 20
573.81495636837076
 42
0
  0
VERTEX
  8
0
 10
591.72095310609006
 20
478.385067724789
 42
0.87229293584823608
  0
VERTEX
  8
0
 10
682.26738194520158
 20
518.59657707491351
 42
0
  0
VERTEX
  8
0
 10
599.22234220891335
 20
805.52606358173261
 42
0.86794537305831909
  0
VERTEX
  8
0
 10
520.79930017968104
 20
794.42869749184433
 42
-0
  0
SEQEND
  0
POLYLINE
  8
0
 10
0
 20
0
 39
0
 70
1
 66
1
  0
VERTEX
  8
0
 10
650.33013936798238
 20
488.19390951951823
 42
-1
  0
VERTEX
  8
0
 10
626.65051188985967
 20
526.45975976547084
 42
-1
  0
SEQEND
  0
POLYLINE
  8
0
 10
0
 20
0
 39
0
 70
1
 66
1
  0
VERTEX
  8
0
 10
577.19602239052915
 20
786.912260794247
 42
-1
  0
VERTEX
  8
0
 10
561.40960407178068
 20
812.42282762488207
 42
-1
  0
SEQEND
  0
POLYLINE
  8
0
 10
0
 20
0
 39
0
 70
1
 66
1
  0
VERTEX
  8
0
 10
1276.738284250981
 20
728.12862273851078
 42
0.13957709074020386
  0
VERTEX
  8
0
 10
1264.7664728874292
 20
770.27233667424389
 42
0
  0
VERTEX
  8
0
 10
1205.7126638426985
 20
865.70222531782565
 42
0.87229293584823608
  0
VERTEX
  8
0
 10
1115.166235003587
 20
825.49071596770114
 42
0
  0
VERTEX
  8
0
 10
1198.2112747398751
 20
538.56122946088203
 42
0.86794537305831909
  0
VERTEX
  8
0
 10
1276.6343167691075
 20
549.65859555077031
 42
-0
  0
SEQEND
  0
POLYLINE
  8
0
 10
0
 20
0
 39
0
 70
1
 66
1
  0
VERTEX
  8
0
 10
1147.1034775808062
 20
855.89338352309642
 42
-1
  0
VERTEX
  8
0
 10
1170.7831050589289
 20
817.62753327714381
 42
-1
  0
SEQEND
  0
POLYLINE
  8
0
 10
0
 20
0
 39
0
 70
1
 66
1
  0
VERTEX
  8
0
 10
1220.2375945582594
 20
557.17503224836764
 42
-1
  0
VERTEX
  8
0
 10
1236.0240128770079
 20
531.66446541773257
 42
-1
  0
SEQEND
  0
POLYLINE
  8
0
 10
0
 20
0
 39
0
 70
1
 66
1
  0
VERTEX
  8
0
 10
1031.3906518260328
 20
615.95867030410386
 42
0.13957709074020386
  0
VERTEX
  8
0
 10
1043.3624631895846
 20
573.81495636837076
 42
0
  0
VERTEX
  8
0
 10
1102.4162722343153
 20
478.385067724789
 42
0.87229293584823608
  0
VERTEX
  8
0
 10
1192.9627010734268
 20
518.59657707491351
 42
0
  0
VERTEX
  8
0
 10
1109.9176613371387
 20
805.52606358173261
 42
0.86794537305831909
  0
VERTEX
  8
0
 10
1031.4946193079063
 20
794.42869749184433
 42
-0
  0
SEQEND
  0
POLYLINE
  8
0
 10
0
 20
0
 39
0
 70
1
 66
1
  0
VERTEX
  8
0
 10
1161.0254584962076
 20
488.19390951951823
 42
-1
  0
VERTEX
  8
0
 10
1137.3458310180849
 20
526.45975976547084
 42
-1
  0
SEQEND
  0
POLYLINE
  8
0
 10
0
 20
0
 39
0
 70
1
 66
1
  0
VERTEX
  8
0
 10
1087.8913415187544
 20
786.912260794247
 42
-1
  0
VERTEX
  8
0
 10
1072.1049232000059
 20
812.42282762488207
 42
-1
  0
SEQEND
  0
POLYLINE
  8
0
 10
0
 20
0
 39
0
 70
1
 66
1
  0
VERTEX
  8
0
 10
1276.738284250981
 20
1172.824387086049
 42
0.13957709074020386
  0
VERTEX
  8
0
 10
1264.7664728874292
 20
1214.9681010217821
 42
0
  0
VERTEX
  8
0
 10
1205.7126638426985
 20
1310.3979896653639
 42
0.87229293584823608
  0
VERTEX
  8
0
 10
1115.166235003587
 20
1270.1864803152394
 42
0
  0
VERTEX
  8
0
 10
1198.2112747398751
 20
983.25699380842025
 42
0.86794537305831909
  0
VERTEX
  8
0
 10
1276.6343167691075
 20
994.35435989830853
 42
-0
  0
SEQEND
  0
POLYLINE
  8
0
 10
0
 20
0
 39
0
 70
1
 66
1
  0
VERTEX
  8
0
 10
1147.1034775808062
 20
1300.5891478706346
 42
-1
  0
VERTEX
  8
0
 10
1170.7831050589289
 20
1262.323297624682
 42
-1
  0
SEQEND
  0
POLYLINE
  8
0
 10
0
 20
0
 39
0
 70
1
 66
1
  0
VERTEX
  8
0
 10
1220.2375945582594
 20
1001.8707965959059
 42
-1
  0
VERTEX
  8
0
 10
1236.0240128770079
 20
976.36022976527079
 42
-1
  0
SEQEND
  0
POLYLINE
  8
0
 10
0
 20
0
 39
0
 70
1
 66
1
  0
VERTEX
  8
0
 10
1031.3906518260328
 20
1060.6544346516421
 42
0.13957709074020386
  0
VERTEX
  8
0
 10
1043.3624631895846
 20
1018.510720715909
 42
0
  0
VERTEX
  8
0
 10
1102.4162722343153
 20
923.08083207232721
 42
0.87229293584823608
  0
VERTEX
  8
0
 10
1192.9627010734268
 20
963.29234142245173
 42
0
  0
VERTEX
  8
0
 10
1109.9176613371387
 20
1250.2218279292708
 42
0.86794537305831909
  0
VERTEX
  8
0
 10
1031.4946193079063
 20
1239.1244618393825
 42
-0
  0
SEQEND
  0
POLYLINE
  8
0
 10
0
 20
0
 39
0
 70
1
 66
1
  0
VERTEX
  8
0
 10
1161.0254584962076
 20
932.88967386705644
 42
-1
  0
VERTEX
  8
0
 10
1137.3458310180849
 20
971.15552411300905
 42
-1
  0
SEQEND
  0
POLYLINE
  8
0
 10
0
 20
0
 39
0
 70
1
 66
1
  0
VERTEX
  8
0
 10
1087.8913415187544
 20
1231.6080251417852
 42
-1
  0
VERTEX
  8
0
 10
1072.1049232000059
 20
1257.1185919724203
 42
-1
  0
SEQEND
  0
POLYLINE
  8
0
 10
0
 20
0
 39
0
 70
1
 66
1
  0
VERTEX
  8
0
 10
766.04296512275562
 20
283.43285839097257
 42
0.13957709074020386
  0
VERTEX
  8
0
 10
754.07115375920387
 20
325.57657232670567
 42
0
  0
VERTEX
  8
0
 10
695.0173447144731
 20
421.00646097028743
 42
0.87229293584823608
  0
VERTEX
  8
0
 10
604.47091587536158
 20
380.79495162016292
 42
0
  0
VERTEX
  8
0
 10
687.51595561164982
 20
93.86546511334376
 42
0.86794537305831909
  0
VERTEX
  8
0
 10
765.93899764088212
 20
104.9628312032321
 42
-0
  0
SEQEND
  0
POLYLINE
  8
0
 10
0
 20
0
 39
0
 70
1
 66
1
  0
VERTEX
  8
0
 10
636.40815845258078
 20
411.1976191755582
 42
-1
  0
VERTEX
  8
0
 10
660.08778593070349
 20
372.9317689296056
 42
-1
  0
SEQEND
  0
POLYLINE
  8
0
 10
0
 20
0
 39
0
 70
1
 66
1
  0
VERTEX
  8
0
 10
709.54227543003401
 20
112.47926790082943
 42
-1
  0
VERTEX
  8
0
 10
725.32869374878248
 20
86.968701070194356
 42
-1
  0
SEQEND
  0
POLYLINE
  8
0
 10
0
 20
0
 39
0
 70
1
 66
1
  0
VERTEX
  8
0
 10
520.69533269780754
 20
171.26290595656559
 42
0.13957709074020386
  0
VERTEX
  8
0
 10
532.66714406135929
 20
129.11919202083249
 42
0
  0
VERTEX
  8
0
 10
591.72095310609006
 20
33.689303377250759
 42
0.87229293584823608
  0
VERTEX
  8
0
 10
682.26738194520158
 20
73.900812727375282
 42
0
  0
VERTEX
  8
0
 10
599.22234220891335
 20
360.8302992341944
 42
0.86794537305831909
  0
VERTEX
  8
0
 10
520.79930017968104
 20
349.73293314430606
 42
-0
  0
SEQEND
  0
POLYLINE
  8
0
 10
0
 20
0
 39
0
 70
1
 66
1
  0
VERTEX
  8
0
 10
650.33013936798238
 20
43.498145171979999
 42
-1
  0
VERTEX
  8
0
 10
626.65051188985967
 20
81.763995417932591
 42
-1
  0
SEQEND
  0
POLYLINE
  8
0
 10
0
 20
0
 39
0
 70
1
 66
1
  0
VERTEX
  8
0
 10
577.19602239052915
 20
342.21649644670873
 42
-1
  0
VERTEX
  8
0
 10
561.40960407178068
 20
367.7270632773438
 42
-1
  0
SEQEND
  0
POLYLINE
  8
0
 10
0
 20
0
 39
0
 70
1
 66
1
  0
VERTEX
  8
0
 10
1276.738284250981
 20
283.43285839097257
 42
0.13957709074020386
  0
VERTEX
  8
0
 10
1264.7664728874292
 20
325.57657232670567
 42
0
  0
VERTEX
  8
0
 10
1205.7126638426985
 20
421.00646097028743
 42
0.87229293584823608
  0
VERTEX
  8
0
 10
1115.166235003587
 20
380.79495162016292
 42
0
  0
VERTEX
  8
0
 10
1198.2112747398751
 20
93.86546511334376
 42
0.86794537305831909
  0
VERTEX
  8
0
 10
1276.6343167691075
 20
104.9628312032321
 42
-0
  0
SEQEND
  0
POLYLINE
  8
0
 10
0
 20
0
 39
0
 70
1
 66
1
  0
VERTEX
  8
0
 10
1147.1034775808062
 20
411.1976191755582
 42
-1
  0
VERTEX
  8
0
 10
1170.7831050589289
 20
372.9317689296056
 42
-1
  0
SEQEND
  0
POLYLINE
  8
0
 10
0
 20
0
 39
0
 70
1
 66
1
  0
VERTEX
  8
0
 10
1220.2375945582594
 20
112.47926790082943
 42
-1
  0
VERTEX
  8
0
 10
1236.0240128770079
 20
86.968701070194356
 42
-1
  0
SEQEND
  0
POLYLINE
  8
0
 10
0
 20
0
 39
0
 70
1
 66
1
  0
VERTEX
  8
0
 10
1031.3906518260328
 20
171.26290595656559
 42
0.13957709074020386
  0
VERTEX
  8
0
 10
1043.3624631895846
 20
129.11919202083249
 42
0
  0
VERTEX
  8
0
 10
1102.4162722343153
 20
33.689303377250759
 42
0.87229293584823608
  0
VERTEX
  8
0
 10
1192.9627010734268
 20
73.900812727375282
 42
0
  0
VERTEX
  8
0
 10
1109.9176613371387
 20
360.8302992341944
 42
0.86794537305831909
  0
VERTEX
  8
0
 10
1031.4946193079063
 20
349.73293314430606
 42
-0
  0
SEQEND
  0
POLYLINE
  8
0
 10
0
 20
0
 39
0
 70
1
 66
1
  0
VERTEX
  8
0
 10
1161.0254584962076
 20
43.498145171979999
 42
-1
  0
VERTEX
  8
0
 10
1137.3458310180849
 20
81.763995417932591
 42
-1
  0
SEQEND
  0
POLYLINE
  8
0
 10
0
 20
0
 39
0
 70
1
 66
1
  0
VERTEX
  8
0
 10
1087.8913415187544
 20
342.21649644670873
 42
-1
  0
VERTEX
  8
0
 10
1072.1049232000059
 20
367.7270632773438
 42
-1
  0
SEQEND
  0
POLYLINE
  8
0
 10
0
 20
0
 39
0
 70
1
 66
1
  0
VERTEX
  8
0
 10
1021.3906246868683
 20
1172.824387086049
 42
0.13957709074020386
  0
VERTEX
  8
0
 10
1009.4188133233165
 20
1214.9681010217821
 42
0
  0
VERTEX
  8
0
 10
950.36500427858573
 20
1310.3979896653639
 42
0.87229293584823608
  0
VERTEX
  8
0
 10
859.81857543947422
 20
1270.1864803152394
 42
0
  0
VERTEX
  8
0
 10
942.86361517576233
 20
983.25699380842025
 42
0.86794537305831909
  0
VERTEX
  8
0
 10
1021.2866572049948
 20
994.35435989830853
 42
-0
  0
SEQEND
  0
POLYLINE
  8
0
 10
0
 20
0
 39
0
 70
1
 66
1
  0
VERTEX
  8
0
 10
891.75581801669341
 20
1300.5891478706346
 42
-1
  0
VERTEX
  8
0
 10
915.43544549481612
 20
1262.323297624682
 42
-1
  0
SEQEND
  0
POLYLINE
  8
0
 10
0
 20
0
 39
0
 70
1
 66
1
  0
VERTEX
  8
0
 10
964.88993499414664
 20
1001.8707965959059
 42
-1
  0
VERTEX
  8
0
 10
980.67635331289512
 20
976.36022976527079
 42
-1
  0
SEQEND
  0
POLYLINE
  8
0
 10
0
 20
0
 39
0
 70
1
 66
1
  0
VERTEX
  8
0
 10
776.04299226192006
 20
1060.6544346516421
 42
0.13957709074020386
  0
VERTEX
  8
0
 10
788.01480362547181
 20
1018.510720715909
 42
0
  0
VERTEX
  8
0
 10
847.06861267020258
 20
923.08083207232721
 42
0.87229293584823608
  0
VERTEX
  8
0
 10
937.6150415093141
 20
963.29234142245173
 42
0
  0
VERTEX
  8
0
 10
854.57000177302587
 20
1250.2218279292708
 42
0.86794537305831909
  0
VERTEX
  8
0
 10
776.14695974379356
 20
1239.1244618393825
 42
-0
  0
SEQEND
  0
POLYLINE
  8
0
 10
0
 20
0
 39
0
 70
1
 66
1
  0
VERTEX
  8
0
 10
905.6777989320949
 20
932.88967386705644
 42
-1
  0
VERTEX
  8
0
 10
881.99817145397219
 20
971.15552411300905
 42
-1
  0
SEQEND
  0
POLYLINE
  8
0
 10
0
 20
0
 39
0
 70
1
 66
1
  0
VERTEX
  8
0
 10
832.54368195464167
 20
1231.6080251417852
 42
-1
  0
VERTEX
  8
0
 10
816.7572636358932
 20
1257.1185919724203
 42
-1
  0
SEQEND
  0
ENDSEC
  0
EOF
