  0
SECTION
  2
ENTITIES
  0
POLYLINE
  8
0
 10
0
 20
0
 39
0
 70
1
 66
1
  0
VERTEX
  8
0
 10
0
 20
0
 42
-0
  0
VERTEX
  8
0
 10
2000
 20
0
 42
-0
  0
VERTEX
  8
0
 10
2000
 20
1000
 42
-0
  0
VERTEX
  8
0
 10
0
 20
1000
 42
-0
  0
SEQEND
  0
POLYLINE
  8
0
 10
0
 20
0
 39
0
 70
1
 66
1
  0
VERTEX
  8
0
 10
1893
 20
110
 42
-0
  0
VERTEX
  8
0
 10
1857
 20
110
 42
-0
  0
VERTEX
  8
0
 10
1857
 20
10
 42
-0
  0
VERTEX
  8
0
 10
1893
 20
10
 42
-0
  0
SEQEND
  0
POLYLINE
  8
0
 10
0
 20
0
 39
0
 70
1
 66
1
  0
VERTEX
  8
0
 10
1875
 20
71
 42
-1
  0
VERTEX
  8
0
 10
1875
 20
49
 42
-1
  0
SEQEND
  0
POLYLINE
  8
0
 10
0
 20
0
 39
0
 70
1
 66
1
  0
VERTEX
  8
0
 10
1982
 20
440
 42
-0
  0
VERTEX
  8
0
 10
1946
 20
440
 42
-0
  0
VERTEX
  8
0
 10
1946
 20
340
 42
-0
  0
VERTEX
  8
0
 10
1982
 20
340
 42
-0
  0
SEQEND
  0
POLYLINE
  8
0
 10
0
 20
0
 39
0
 70
1
 66
1
  0
VERTEX
  8
0
 10
1964
 20
401
 42
-1
  0
VERTEX
  8
0
 10
1964
 20
379
 42
-1
  0
SEQEND
  0
POLYLINE
  8
0
 10
0
 20
0
 39
0
 70
1
 66
1
  0
VERTEX
  8
0
 10
1939
 20
880
 42
-0
  0
VERTEX
  8
0
 10
1903
 20
880
 42
-0
  0
VERTEX
  8
0
 10
1903
 20
780
 42
-0
  0
VERTEX
  8
0
 10
1939
 20
780
 42
-0
  0
SEQEND
  0
POLYLINE
  8
0
 10
0
 20
0
 39
0
 70
1
 66
1
  0
VERTEX
  8
0
 10
1921
 20
841
 42
-1
  0
VERTEX
  8
0
 10
1921
 20
819
 42
-1
  0
SEQEND
  0
POLYLINE
  8
0
 10
0
 20
0
 39
0
 70
1
 66
1
  0
VERTEX
  8
0
 10
1847
 20
110
 42
-0
  0
VERTEX
  8
0
 10
1811
 20
110
 42
-0
  0
VERTEX
  8
0
 10
1811
 20
10
 42
-0
  0
VERTEX
  8
0
 10
1847
 20
10
 42
-0
  0
SEQEND
  0
POLYLINE
  8
0
 10
0
 20
0
 39
0
 70
1
 66
1
  0
VERTEX
  8
0
 10
1829
 20
71
 42
-1
  0
VERTEX
  8
0
 10
1829
 20
49
 42
-1
  0
SEQEND
  0
POLYLINE
  8
0
 10
0
 20
0
 39
0
 70
1
 66
1
  0
VERTEX
  8
0
 10
1982
 20
660
 42
-0
  0
VERTEX
  8
0
 10
1946
 20
660
 42
-0
  0
VERTEX
  8
0
 10
1946
 20
560
 42
-0
  0
VERTEX
  8
0
 10
1982
 20
560
 42
-0
  0
SEQEND
  0
POLYLINE
  8
0
 10
0
 20
0
 39
0
 70
1
 66
1
  0
VERTEX
  8
0
 10
1964
 20
621
 42
-1
  0
VERTEX
  8
0
 10
1964
 20
599
 42
-1
  0
SEQEND
  0
POLYLINE
  8
0
 10
0
 20
0
 39
0
 70
1
 66
1
  0
VERTEX
  8
0
 10
1936
 20
330
 42
-0
  0
VERTEX
  8
0
 10
1900
 20
330
 42
-0
  0
VERTEX
  8
0
 10
1900
 20
230
 42
-0
  0
VERTEX
  8
0
 10
1936
 20
230
 42
-0
  0
SEQEND
  0
POLYLINE
  8
0
 10
0
 20
0
 39
0
 70
1
 66
1
  0
VERTEX
  8
0
 10
1918
 20
291
 42
-1
  0
VERTEX
  8
0
 10
1918
 20
269
 42
-1
  0
SEQEND
  0
POLYLINE
  8
0
 10
0
 20
0
 39
0
 70
1
 66
1
  0
VERTEX
  8
0
 10
1936
 20
660
 42
-0
  0
VERTEX
  8
0
 10
1900
 20
660
 42
-0
  0
VERTEX
  8
0
 10
1900
 20
560
 42
-0
  0
VERTEX
  8
0
 10
1936
 20
560
 42
-0
  0
SEQEND
  0
POLYLINE
  8
0
 10
0
 20
0
 39
0
 70
1
 66
1
  0
VERTEX
  8
0
 10
1918
 20
621
 42
-1
  0
VERTEX
  8
0
 10
1918
 20
599
 42
-1
  0
SEQEND
  0
POLYLINE
  8
0
 10
0
 20
0
 39
0
 70
1
 66
1
  0
VERTEX
  8
0
 10
1936
 20
220
 42
-0
  0
VERTEX
  8
0
 10
1900
 20
220
 42
-0
  0
VERTEX
  8
0
 10
1900
 20
120
 42
-0
  0
VERTEX
  8
0
 10
1936
 20
120
 42
-0
  0
SEQEND
  0
POLYLINE
  8
0
 10
0
 20
0
 39
0
 70
1
 66
1
  0
VERTEX
  8
0
 10
1918
 20
181
 42
-1
  0
VERTEX
  8
0
 10
1918
 20
159
 42
-1
  0
SEQEND
  0
POLYLINE
  8
0
 10
0
 20
0
 39
0
 70
1
 66
1
  0
VERTEX
  8
0
 10
1936
 20
770
 42
-0
  0
VERTEX
  8
0
 10
1900
 20
770
 42
-0
  0
VERTEX
  8
0
 10
1900
 20
670
 42
-0
  0
VERTEX
  8
0
 10
1936
 20
670
 42
-0
  0
SEQEND
  0
POLYLINE
  8
0
 10
0
 20
0
 39
0
 70
1
 66
1
  0
VERTEX
  8
0
 10
1918
 20
731
 42
-1
  0
VERTEX
  8
0
 10
1918
 20
709
 42
-1
  0
SEQEND
  0
POLYLINE
  8
0
 10
0
 20
0
 39
0
 70
1
 66
1
  0
VERTEX
  8
0
 10
1801
 20
110
 42
-0
  0
VERTEX
  8
0
 10
1765
 20
110
 42
-0
  0
VERTEX
  8
0
 10
1765
 20
10
 42
-0
  0
VERTEX
  8
0
 10
1801
 20
10
 42
-0
  0
SEQEND
  0
POLYLINE
  8
0
 10
0
 20
0
 39
0
 70
1
 66
1
  0
VERTEX
  8
0
 10
1783
 20
71
 42
-1
  0
VERTEX
  8
0
 10
1783
 20
49
 42
-1
  0
SEQEND
  0
POLYLINE
  8
0
 10
0
 20
0
 39
0
 70
1
 66
1
  0
VERTEX
  8
0
 10
1801
 20
980
 42
-0
  0
VERTEX
  8
0
 10
1765
 20
980
 42
-0
  0
VERTEX
  8
0
 10
1765
 20
880
 42
-0
  0
VERTEX
  8
0
 10
1801
 20
880
 42
-0
  0
SEQEND
  0
POLYLINE
  8
0
 10
0
 20
0
 39
0
 70
1
 66
1
  0
VERTEX
  8
0
 10
1783
 20
941
 42
-1
  0
VERTEX
  8
0
 10
1783
 20
919
 42
-1
  0
SEQEND
  0
POLYLINE
  8
0
 10
0
 20
0
 39
0
 70
1
 66
1
  0
VERTEX
  8
0
 10
1985
 20
990
 42
-0
  0
VERTEX
  8
0
 10
1949
 20
990
 42
-0
  0
VERTEX
  8
0
 10
1949
 20
890
 42
-0
  0
VERTEX
  8
0
 10
1985
 20
890
 42
-0
  0
SEQEND
  0
POLYLINE
  8
0
 10
0
 20
0
 39
0
 70
1
 66
1
  0
VERTEX
  8
0
 10
1967
 20
951
 42
-1
  0
VERTEX
  8
0
 10
1967
 20
929
 42
-1
  0
SEQEND
  0
POLYLINE
  8
0
 10
0
 20
0
 39
0
 70
1
 66
1
  0
VERTEX
  8
0
 10
1985
 20
110
 42
-0
  0
VERTEX
  8
0
 10
1949
 20
110
 42
-0
  0
VERTEX
  8
0
 10
1949
 20
10
 42
-0
  0
VERTEX
  8
0
 10
1985
 20
10
 42
-0
  0
SEQEND
  0
POLYLINE
  8
0
 10
0
 20
0
 39
0
 70
1
 66
1
  0
VERTEX
  8
0
 10
1967
 20
71
 42
-1
  0
VERTEX
  8
0
 10
1967
 20
49
 42
-1
  0
SEQEND
  0
POLYLINE
  8
0
 10
0
 20
0
 39
0
 70
1
 66
1
  0
VERTEX
  8
0
 10
1893
 20
980
 42
-0
  0
VERTEX
  8
0
 10
1857
 20
980
 42
-0
  0
VERTEX
  8
0
 10
1857
 20
880
 42
-0
  0
VERTEX
  8
0
 10
1893
 20
880
 42
-0
  0
SEQEND
  0
POLYLINE
  8
0
 10
0
 20
0
 39
0
 70
1
 66
1
  0
VERTEX
  8
0
 10
1875
 20
941
 42
-1
  0
VERTEX
  8
0
 10
1875
 20
919
 42
-1
  0
SEQEND
  0
POLYLINE
  8
0
 10
0
 20
0
 39
0
 70
1
 66
1
  0
VERTEX
  8
0
 10
1936
 20
440
 42
-0
  0
VERTEX
  8
0
 10
1900
 20
440
 42
-0
  0
VERTEX
  8
0
 10
1900
 20
340
 42
-0
  0
VERTEX
  8
0
 10
1936
 20
340
 42
-0
  0
SEQEND
  0
POLYLINE
  8
0
 10
0
 20
0
 39
0
 70
1
 66
1
  0
VERTEX
  8
0
 10
1918
 20
401
 42
-1
  0
VERTEX
  8
0
 10
1918
 20
379
 42
-1
  0
SEQEND
  0
POLYLINE
  8
0
 10
0
 20
0
 39
0
 70
1
 66
1
  0
VERTEX
  8
0
 10
1982
 20
330
 42
-0
  0
VERTEX
  8
0
 10
1946
 20
330
 42
-0
  0
VERTEX
  8
0
 10
1946
 20
230
 42
-0
  0
VERTEX
  8
0
 10
1982
 20
230
 42
-0
  0
SEQEND
  0
POLYLINE
  8
0
 10
0
 20
0
 39
0
 70
1
 66
1
  0
VERTEX
  8
0
 10
1964
 20
291
 42
-1
  0
VERTEX
  8
0
 10
1964
 20
269
 42
-1
  0
SEQEND
  0
POLYLINE
  8
0
 10
0
 20
0
 39
0
 70
1
 66
1
  0
VERTEX
  8
0
 10
1939
 20
990
 42
-0
  0
VERTEX
  8
0
 10
1903
 20
990
 42
-0
  0
VERTEX
  8
0
 10
1903
 20
890
 42
-0
  0
VERTEX
  8
0
 10
1939
 20
890
 42
-0
  0
SEQEND
  0
POLYLINE
  8
0
 10
0
 20
0
 39
0
 70
1
 66
1
  0
VERTEX
  8
0
 10
1921
 20
951
 42
-1
  0
VERTEX
  8
0
 10
1921
 20
929
 42
-1
  0
SEQEND
  0
POLYLINE
  8
0
 10
0
 20
0
 39
0
 70
1
 66
1
  0
VERTEX
  8
0
 10
1939
 20
110
 42
-0
  0
VERTEX
  8
0
 10
1903
 20
110
 42
-0
  0
VERTEX
  8
0
 10
1903
 20
10
 42
-0
  0
VERTEX
  8
0
 10
1939
 20
10
 42
-0
  0
SEQEND
  0
POLYLINE
  8
0
 10
0
 20
0
 39
0
 70
1
 66
1
  0
VERTEX
  8
0
 10
1921
 20
71
 42
-1
  0
VERTEX
  8
0
 10
1921
 20
49
 42
-1
  0
SEQEND
  0
POLYLINE
  8
0
 10
0
 20
0
 39
0
 70
1
 66
1
  0
VERTEX
  8
0
 10
1982
 20
220
 42
-0
  0
VERTEX
  8
0
 10
1946
 20
220
 42
-0
  0
VERTEX
  8
0
 10
1946
 20
120
 42
-0
  0
VERTEX
  8
0
 10
1982
 20
120
 42
-0
  0
SEQEND
  0
POLYLINE
  8
0
 10
0
 20
0
 39
0
 70
1
 66
1
  0
VERTEX
  8
0
 10
1964
 20
181
 42
-1
  0
VERTEX
  8
0
 10
1964
 20
159
 42
-1
  0
SEQEND
  0
POLYLINE
  8
0
 10
0
 20
0
 39
0
 70
1
 66
1
  0
VERTEX
  8
0
 10
415
 20
580
 42
0
  0
VERTEX
  8
0
 10
540
 20
580
 42
0
  0
VERTEX
  8
0
 10
540
 20
760
 42
0
  0
VERTEX
  8
0
 10
415
 20
760
 42
0
  0
SEQEND
  0
POLYLINE
  8
0
 10
0
 20
0
 39
0
 70
1
 66
1
  0
VERTEX
  8
0
 10
467.47104835510254
 20
745.33538818359375
 42
-0.066269710659980774
  0
VERTEX
  8
0
 10
487.52895224094391
 20
745.33538818359375
 42
0
  0
VERTEX
  8
0
 10
487.52895224094391
 20
594.66461563110352
 42
-0.066269710659980774
  0
VERTEX
  8
0
 10
467.47104835510254
 20
594.66461563110352
 42
-0
  0
SEQEND
  0
POLYLINE
  8
0
 10
0
 20
0
 39
0
 70
1
 66
1
  0
VERTEX
  8
0
 10
1765
 20
500
 42
0
  0
VERTEX
  8
0
 10
1890
 20
500
 42
0
  0
VERTEX
  8
0
 10
1890
 20
680
 42
0
  0
VERTEX
  8
0
 10
1765
 20
680
 42
0
  0
SEQEND
  0
POLYLINE
  8
0
 10
0
 20
0
 39
0
 70
1
 66
1
  0
VERTEX
  8
0
 10
1817.4710483551025
 20
665.33538818359375
 42
-0.066269710659980774
  0
VERTEX
  8
0
 10
1837.5289522409439
 20
665.33538818359375
 42
0
  0
VERTEX
  8
0
 10
1837.5289522409439
 20
514.66461563110352
 42
-0.066269710659980774
  0
VERTEX
  8
0
 10
1817.4710483551025
 20
514.66461563110352
 42
-0
  0
SEQEND
  0
POLYLINE
  8
0
 10
0
 20
0
 39
0
 70
1
 66
1
  0
VERTEX
  8
0
 10
280
 20
770
 42
0
  0
VERTEX
  8
0
 10
405
 20
770
 42
0
  0
VERTEX
  8
0
 10
405
 20
950
 42
0
  0
VERTEX
  8
0
 10
280
 20
950
 42
0
  0
SEQEND
  0
POLYLINE
  8
0
 10
0
 20
0
 39
0
 70
1
 66
1
  0
VERTEX
  8
0
 10
332.47104835510254
 20
935.33538818359375
 42
-0.066269710659980774
  0
VERTEX
  8
0
 10
352.52895224094391
 20
935.33538818359375
 42
0
  0
VERTEX
  8
0
 10
352.52895224094391
 20
784.66461563110352
 42
-0.066269710659980774
  0
VERTEX
  8
0
 10
332.47104835510254
 20
784.66461563110352
 42
-0
  0
SEQEND
  0
POLYLINE
  8
0
 10
0
 20
0
 39
0
 70
1
 66
1
  0
VERTEX
  8
0
 10
1765
 20
120
 42
0
  0
VERTEX
  8
0
 10
1890
 20
120
 42
0
  0
VERTEX
  8
0
 10
1890
 20
300
 42
0
  0
VERTEX
  8
0
 10
1765
 20
300
 42
0
  0
SEQEND
  0
POLYLINE
  8
0
 10
0
 20
0
 39
0
 70
1
 66
1
  0
VERTEX
  8
0
 10
1817.4710483551025
 20
285.33538818359375
 42
-0.066269710659980774
  0
VERTEX
  8
0
 10
1837.5289522409439
 20
285.33538818359375
 42
0
  0
VERTEX
  8
0
 10
1837.5289522409439
 20
134.66461563110352
 42
-0.066269710659980774
  0
VERTEX
  8
0
 10
1817.4710483551025
 20
134.66461563110352
 42
-0
  0
SEQEND
  0
POLYLINE
  8
0
 10
0
 20
0
 39
0
 70
1
 66
1
  0
VERTEX
  8
0
 10
1495
 20
200
 42
0
  0
VERTEX
  8
0
 10
1620
 20
200
 42
0
  0
VERTEX
  8
0
 10
1620
 20
380
 42
0
  0
VERTEX
  8
0
 10
1495
 20
380
 42
0
  0
SEQEND
  0
POLYLINE
  8
0
 10
0
 20
0
 39
0
 70
1
 66
1
  0
VERTEX
  8
0
 10
1547.4710483551025
 20
365.33538818359375
 42
-0.066269710659980774
  0
VERTEX
  8
0
 10
1567.5289522409439
 20
365.33538818359375
 42
0
  0
VERTEX
  8
0
 10
1567.5289522409439
 20
214.66461563110352
 42
-0.066269710659980774
  0
VERTEX
  8
0
 10
1547.4710483551025
 20
214.66461563110352
 42
-0
  0
SEQEND
  0
POLYLINE
  8
0
 10
0
 20
0
 39
0
 70
1
 66
1
  0
VERTEX
  8
0
 10
1495
 20
580
 42
0
  0
VERTEX
  8
0
 10
1620
 20
580
 42
0
  0
VERTEX
  8
0
 10
1620
 20
760
 42
0
  0
VERTEX
  8
0
 10
1495
 20
760
 42
0
  0
SEQEND
  0
POLYLINE
  8
0
 10
0
 20
0
 39
0
 70
1
 66
1
  0
VERTEX
  8
0
 10
1547.4710483551025
 20
745.33538818359375
 42
-0.066269710659980774
  0
VERTEX
  8
0
 10
1567.5289522409439
 20
745.33538818359375
 42
0
  0
VERTEX
  8
0
 10
1567.5289522409439
 20
594.66461563110352
 42
-0.066269710659980774
  0
VERTEX
  8
0
 10
1547.4710483551025
 20
594.66461563110352
 42
-0
  0
SEQEND
  0
POLYLINE
  8
0
 10
0
 20
0
 39
0
 70
1
 66
1
  0
VERTEX
  8
0
 10
145
 20
390
 42
0
  0
VERTEX
  8
0
 10
270
 20
390
 42
0
  0
VERTEX
  8
0
 10
270
 20
570
 42
0
  0
VERTEX
  8
0
 10
145
 20
570
 42
0
  0
SEQEND
  0
POLYLINE
  8
0
 10
0
 20
0
 39
0
 70
1
 66
1
  0
VERTEX
  8
0
 10
197.47104835510254
 20
555.33538818359375
 42
-0.066269710659980774
  0
VERTEX
  8
0
 10
217.52895224094391
 20
555.33538818359375
 42
0
  0
VERTEX
  8
0
 10
217.52895224094391
 20
404.66461563110352
 42
-0.066269710659980774
  0
VERTEX
  8
0
 10
197.47104835510254
 20
404.66461563110352
 42
-0
  0
SEQEND
  0
POLYLINE
  8
0
 10
0
 20
0
 39
0
 70
1
 66
1
  0
VERTEX
  8
0
 10
1630
 20
770
 42
0
  0
VERTEX
  8
0
 10
1755
 20
770
 42
0
  0
VERTEX
  8
0
 10
1755
 20
950
 42
0
  0
VERTEX
  8
0
 10
1630
 20
950
 42
0
  0
SEQEND
  0
POLYLINE
  8
0
 10
0
 20
0
 39
0
 70
1
 66
1
  0
VERTEX
  8
0
 10
1682.4710483551025
 20
935.33538818359375
 42
-0.066269710659980774
  0
VERTEX
  8
0
 10
1702.5289522409439
 20
935.33538818359375
 42
0
  0
VERTEX
  8
0
 10
1702.5289522409439
 20
784.66461563110352
 42
-0.066269710659980774
  0
VERTEX
  8
0
 10
1682.4710483551025
 20
784.66461563110352
 42
-0
  0
SEQEND
  0
POLYLINE
  8
0
 10
0
 20
0
 39
0
 70
1
 66
1
  0
VERTEX
  8
0
 10
1630
 20
580
 42
0
  0
VERTEX
  8
0
 10
1755
 20
580
 42
0
  0
VERTEX
  8
0
 10
1755
 20
760
 42
0
  0
VERTEX
  8
0
 10
1630
 20
760
 42
0
  0
SEQEND
  0
POLYLINE
  8
0
 10
0
 20
0
 39
0
 70
1
 66
1
  0
VERTEX
  8
0
 10
1682.4710483551025
 20
745.33538818359375
 42
-0.066269710659980774
  0
VERTEX
  8
0
 10
1702.5289522409439
 20
745.33538818359375
 42
0
  0
VERTEX
  8
0
 10
1702.5289522409439
 20
594.66461563110352
 42
-0.066269710659980774
  0
VERTEX
  8
0
 10
1682.4710483551025
 20
594.66461563110352
 42
-0
  0
SEQEND
  0
POLYLINE
  8
0
 10
0
 20
0
 39
0
 70
1
 66
1
  0
VERTEX
  8
0
 10
145
 20
770
 42
0
  0
VERTEX
  8
0
 10
270
 20
770
 42
0
  0
VERTEX
  8
0
 10
270
 20
950
 42
0
  0
VERTEX
  8
0
 10
145
 20
950
 42
0
  0
SEQEND
  0
POLYLINE
  8
0
 10
0
 20
0
 39
0
 70
1
 66
1
  0
VERTEX
  8
0
 10
197.47104835510254
 20
935.33538818359375
 42
-0.066269710659980774
  0
VERTEX
  8
0
 10
217.52895224094391
 20
935.33538818359375
 42
0
  0
VERTEX
  8
0
 10
217.52895224094391
 20
784.66461563110352
 42
-0.066269710659980774
  0
VERTEX
  8
0
 10
197.47104835510254
 20
784.66461563110352
 42
-0
  0
SEQEND
  0
POLYLINE
  8
0
 10
0
 20
0
 39
0
 70
1
 66
1
  0
VERTEX
  8
0
 10
1630
 20
10
 42
0
  0
VERTEX
  8
0
 10
1755
 20
10
 42
0
  0
VERTEX
  8
0
 10
1755
 20
190
 42
0
  0
VERTEX
  8
0
 10
1630
 20
190
 42
0
  0
SEQEND
  0
POLYLINE
  8
0
 10
0
 20
0
 39
0
 70
1
 66
1
  0
VERTEX
  8
0
 10
1682.4710483551025
 20
175.33538818359375
 42
-0.066269710659980774
  0
VERTEX
  8
0
 10
1702.5289522409439
 20
175.33538818359375
 42
0
  0
VERTEX
  8
0
 10
1702.5289522409439
 20
24.664615631103516
 42
-0.066269710659980774
  0
VERTEX
  8
0
 10
1682.4710483551025
 20
24.664615631103516
 42
-0
  0
SEQEND
  0
POLYLINE
  8
0
 10
0
 20
0
 39
0
 70
1
 66
1
  0
VERTEX
  8
0
 10
415
 20
390
 42
0
  0
VERTEX
  8
0
 10
540
 20
390
 42
0
  0
VERTEX
  8
0
 10
540
 20
570
 42
0
  0
VERTEX
  8
0
 10
415
 20
570
 42
0
  0
SEQEND
  0
POLYLINE
  8
0
 10
0
 20
0
 39
0
 70
1
 66
1
  0
VERTEX
  8
0
 10
467.47104835510254
 20
555.33538818359375
 42
-0.066269710659980774
  0
VERTEX
  8
0
 10
487.52895224094391
 20
555.33538818359375
 42
0
  0
VERTEX
  8
0
 10
487.52895224094391
 20
404.66461563110352
 42
-0.066269710659980774
  0
VERTEX
  8
0
 10
467.47104835510254
 20
404.66461563110352
 42
-0
  0
SEQEND
  0
POLYLINE
  8
0
 10
0
 20
0
 39
0
 70
1
 66
1
  0
VERTEX
  8
0
 10
145
 20
200
 42
0
  0
VERTEX
  8
0
 10
270
 20
200
 42
0
  0
VERTEX
  8
0
 10
270
 20
380
 42
0
  0
VERTEX
  8
0
 10
145
 20
380
 42
0
  0
SEQEND
  0
POLYLINE
  8
0
 10
0
 20
0
 39
0
 70
1
 66
1
  0
VERTEX
  8
0
 10
197.47104835510254
 20
365.33538818359375
 42
-0.066269710659980774
  0
VERTEX
  8
0
 10
217.52895224094391
 20
365.33538818359375
 42
0
  0
VERTEX
  8
0
 10
217.52895224094391
 20
214.66461563110352
 42
-0.066269710659980774
  0
VERTEX
  8
0
 10
197.47104835510254
 20
214.66461563110352
 42
-0
  0
SEQEND
  0
POLYLINE
  8
0
 10
0
 20
0
 39
0
 70
1
 66
1
  0
VERTEX
  8
0
 10
1765
 20
310
 42
0
  0
VERTEX
  8
0
 10
1890
 20
310
 42
0
  0
VERTEX
  8
0
 10
1890
 20
490
 42
0
  0
VERTEX
  8
0
 10
1765
 20
490
 42
0
  0
SEQEND
  0
POLYLINE
  8
0
 10
0
 20
0
 39
0
 70
1
 66
1
  0
VERTEX
  8
0
 10
1817.4710483551025
 20
475.33538818359375
 42
-0.066269710659980774
  0
VERTEX
  8
0
 10
1837.5289522409439
 20
475.33538818359375
 42
0
  0
VERTEX
  8
0
 10
1837.5289522409439
 20
324.66461563110352
 42
-0.066269710659980774
  0
VERTEX
  8
0
 10
1817.4710483551025
 20
324.66461563110352
 42
-0
  0
SEQEND
  0
POLYLINE
  8
0
 10
0
 20
0
 39
0
 70
1
 66
1
  0
VERTEX
  8
0
 10
10
 20
580
 42
0
  0
VERTEX
  8
0
 10
135
 20
580
 42
0
  0
VERTEX
  8
0
 10
135
 20
760
 42
0
  0
VERTEX
  8
0
 10
10
 20
760
 42
0
  0
SEQEND
  0
POLYLINE
  8
0
 10
0
 20
0
 39
0
 70
1
 66
1
  0
VERTEX
  8
0
 10
62.471048355102539
 20
745.33538818359375
 42
-0.066269710659980774
  0
VERTEX
  8
0
 10
82.528952240943909
 20
745.33538818359375
 42
0
  0
VERTEX
  8
0
 10
82.528952240943909
 20
594.66461563110352
 42
-0.066269710659980774
  0
VERTEX
  8
0
 10
62.471048355102539
 20
594.66461563110352
 42
-0
  0
SEQEND
  0
POLYLINE
  8
0
 10
0
 20
0
 39
0
 70
1
 66
1
  0
VERTEX
  8
0
 10
1495
 20
770
 42
0
  0
VERTEX
  8
0
 10
1620
 20
770
 42
0
  0
VERTEX
  8
0
 10
1620
 20
950
 42
0
  0
VERTEX
  8
0
 10
1495
 20
950
 42
0
  0
SEQEND
  0
POLYLINE
  8
0
 10
0
 20
0
 39
0
 70
1
 66
1
  0
VERTEX
  8
0
 10
1547.4710483551025
 20
935.33538818359375
 42
-0.066269710659980774
  0
VERTEX
  8
0
 10
1567.5289522409439
 20
935.33538818359375
 42
0
  0
VERTEX
  8
0
 10
1567.5289522409439
 20
784.66461563110352
 42
-0.066269710659980774
  0
VERTEX
  8
0
 10
1547.4710483551025
 20
784.66461563110352
 42
-0
  0
SEQEND
  0
POLYLINE
  8
0
 10
0
 20
0
 39
0
 70
1
 66
1
  0
VERTEX
  8
0
 10
10
 20
200
 42
0
  0
VERTEX
  8
0
 10
135
 20
200
 42
0
  0
VERTEX
  8
0
 10
135
 20
380
 42
0
  0
VERTEX
  8
0
 10
10
 20
380
 42
0
  0
SEQEND
  0
POLYLINE
  8
0
 10
0
 20
0
 39
0
 70
1
 66
1
  0
VERTEX
  8
0
 10
62.471048355102539
 20
365.33538818359375
 42
-0.066269710659980774
  0
VERTEX
  8
0
 10
82.528952240943909
 20
365.33538818359375
 42
0
  0
VERTEX
  8
0
 10
82.528952240943909
 20
214.66461563110352
 42
-0.066269710659980774
  0
VERTEX
  8
0
 10
62.471048355102539
 20
214.66461563110352
 42
-0
  0
SEQEND
  0
POLYLINE
  8
0
 10
0
 20
0
 39
0
 70
1
 66
1
  0
VERTEX
  8
0
 10
1495
 20
10
 42
0
  0
VERTEX
  8
0
 10
1620
 20
10
 42
0
  0
VERTEX
  8
0
 10
1620
 20
190
 42
0
  0
VERTEX
  8
0
 10
1495
 20
190
 42
0
  0
SEQEND
  0
POLYLINE
  8
0
 10
0
 20
0
 39
0
 70
1
 66
1
  0
VERTEX
  8
0
 10
1547.4710483551025
 20
175.33538818359375
 42
-0.066269710659980774
  0
VERTEX
  8
0
 10
1567.5289522409439
 20
175.33538818359375
 42
0
  0
VERTEX
  8
0
 10
1567.5289522409439
 20
24.664615631103516
 42
-0.066269710659980774
  0
VERTEX
  8
0
 10
1547.4710483551025
 20
24.664615631103516
 42
-0
  0
SEQEND
  0
POLYLINE
  8
0
 10
0
 20
0
 39
0
 70
1
 66
1
  0
VERTEX
  8
0
 10
1630
 20
390
 42
0
  0
VERTEX
  8
0
 10
1755
 20
390
 42
0
  0
VERTEX
  8
0
 10
1755
 20
570
 42
0
  0
VERTEX
  8
0
 10
1630
 20
570
 42
0
  0
SEQEND
  0
POLYLINE
  8
0
 10
0
 20
0
 39
0
 70
1
 66
1
  0
VERTEX
  8
0
 10
1682.4710483551025
 20
555.33538818359375
 42
-0.066269710659980774
  0
VERTEX
  8
0
 10
1702.5289522409439
 20
555.33538818359375
 42
0
  0
VERTEX
  8
0
 10
1702.5289522409439
 20
404.66461563110352
 42
-0.066269710659980774
  0
VERTEX
  8
0
 10
1682.4710483551025
 20
404.66461563110352
 42
-0
  0
SEQEND
  0
POLYLINE
  8
0
 10
0
 20
0
 39
0
 70
1
 66
1
  0
VERTEX
  8
0
 10
1360
 20
770
 42
0
  0
VERTEX
  8
0
 10
1485
 20
770
 42
0
  0
VERTEX
  8
0
 10
1485
 20
950
 42
0
  0
VERTEX
  8
0
 10
1360
 20
950
 42
0
  0
SEQEND
  0
POLYLINE
  8
0
 10
0
 20
0
 39
0
 70
1
 66
1
  0
VERTEX
  8
0
 10
1412.4710483551025
 20
935.33538818359375
 42
-0.066269710659980774
  0
VERTEX
  8
0
 10
1432.5289522409439
 20
935.33538818359375
 42
0
  0
VERTEX
  8
0
 10
1432.5289522409439
 20
784.66461563110352
 42
-0.066269710659980774
  0
VERTEX
  8
0
 10
1412.4710483551025
 20
784.66461563110352
 42
-0
  0
SEQEND
  0
POLYLINE
  8
0
 10
0
 20
0
 39
0
 70
1
 66
1
  0
VERTEX
  8
0
 10
10
 20
10
 42
0
  0
VERTEX
  8
0
 10
135
 20
10
 42
0
  0
VERTEX
  8
0
 10
135
 20
190
 42
0
  0
VERTEX
  8
0
 10
10
 20
190
 42
0
  0
SEQEND
  0
POLYLINE
  8
0
 10
0
 20
0
 39
0
 70
1
 66
1
  0
VERTEX
  8
0
 10
62.471048355102539
 20
175.33538818359375
 42
-0.066269710659980774
  0
VERTEX
  8
0
 10
82.528952240943909
 20
175.33538818359375
 42
0
  0
VERTEX
  8
0
 10
82.528952240943909
 20
24.664615631103516
 42
-0.066269710659980774
  0
VERTEX
  8
0
 10
62.471048355102539
 20
24.664615631103516
 42
-0
  0
SEQEND
  0
POLYLINE
  8
0
 10
0
 20
0
 39
0
 70
1
 66
1
  0
VERTEX
  8
0
 10
1360
 20
580
 42
0
  0
VERTEX
  8
0
 10
1485
 20
580
 42
0
  0
VERTEX
  8
0
 10
1485
 20
760
 42
0
  0
VERTEX
  8
0
 10
1360
 20
760
 42
0
  0
SEQEND
  0
POLYLINE
  8
0
 10
0
 20
0
 39
0
 70
1
 66
1
  0
VERTEX
  8
0
 10
1412.4710483551025
 20
745.33538818359375
 42
-0.066269710659980774
  0
VERTEX
  8
0
 10
1432.5289522409439
 20
745.33538818359375
 42
0
  0
VERTEX
  8
0
 10
1432.5289522409439
 20
594.66461563110352
 42
-0.066269710659980774
  0
VERTEX
  8
0
 10
1412.4710483551025
 20
594.66461563110352
 42
-0
  0
SEQEND
  0
POLYLINE
  8
0
 10
0
 20
0
 39
0
 70
1
 66
1
  0
VERTEX
  8
0
 10
1765
 20
690
 42
0
  0
VERTEX
  8
0
 10
1890
 20
690
 42
0
  0
VERTEX
  8
0
 10
1890
 20
870
 42
0
  0
VERTEX
  8
0
 10
1765
 20
870
 42
0
  0
SEQEND
  0
POLYLINE
  8
0
 10
0
 20
0
 39
0
 70
1
 66
1
  0
VERTEX
  8
0
 10
1817.4710483551025
 20
855.33538818359375
 42
-0.066269710659980774
  0
VERTEX
  8
0
 10
1837.5289522409439
 20
855.33538818359375
 42
0
  0
VERTEX
  8
0
 10
1837.5289522409439
 20
704.66461563110352
 42
-0.066269710659980774
  0
VERTEX
  8
0
 10
1817.4710483551025
 20
704.66461563110352
 42
-0
  0
SEQEND
  0
POLYLINE
  8
0
 10
0
 20
0
 39
0
 70
1
 66
1
  0
VERTEX
  8
0
 10
10
 20
390
 42
0
  0
VERTEX
  8
0
 10
135
 20
390
 42
0
  0
VERTEX
  8
0
 10
135
 20
570
 42
0
  0
VERTEX
  8
0
 10
10
 20
570
 42
0
  0
SEQEND
  0
POLYLINE
  8
0
 10
0
 20
0
 39
0
 70
1
 66
1
  0
VERTEX
  8
0
 10
62.471048355102539
 20
555.33538818359375
 42
-0.066269710659980774
  0
VERTEX
  8
0
 10
82.528952240943909
 20
555.33538818359375
 42
0
  0
VERTEX
  8
0
 10
82.528952240943909
 20
404.66461563110352
 42
-0.066269710659980774
  0
VERTEX
  8
0
 10
62.471048355102539
 20
404.66461563110352
 42
-0
  0
SEQEND
  0
POLYLINE
  8
0
 10
0
 20
0
 39
0
 70
1
 66
1
  0
VERTEX
  8
0
 10
1936
 20
550
 42
-0
  0
VERTEX
  8
0
 10
1900
 20
550
 42
-0
  0
VERTEX
  8
0
 10
1900
 20
450
 42
-0
  0
VERTEX
  8
0
 10
1936
 20
450
 42
-0
  0
SEQEND
  0
POLYLINE
  8
0
 10
0
 20
0
 39
0
 70
1
 66
1
  0
VERTEX
  8
0
 10
1918
 20
511
 42
-1
  0
VERTEX
  8
0
 10
1918
 20
489
 42
-1
  0
SEQEND
  0
POLYLINE
  8
0
 10
0
 20
0
 39
0
 70
1
 66
1
  0
VERTEX
  8
0
 10
10
 20
770
 42
0
  0
VERTEX
  8
0
 10
135
 20
770
 42
0
  0
VERTEX
  8
0
 10
135
 20
950
 42
0
  0
VERTEX
  8
0
 10
10
 20
950
 42
0
  0
SEQEND
  0
POLYLINE
  8
0
 10
0
 20
0
 39
0
 70
1
 66
1
  0
VERTEX
  8
0
 10
62.471048355102539
 20
935.33538818359375
 42
-0.066269710659980774
  0
VERTEX
  8
0
 10
82.528952240943909
 20
935.33538818359375
 42
0
  0
VERTEX
  8
0
 10
82.528952240943909
 20
784.66461563110352
 42
-0.066269710659980774
  0
VERTEX
  8
0
 10
62.471048355102539
 20
784.66461563110352
 42
-0
  0
SEQEND
  0
POLYLINE
  8
0
 10
0
 20
0
 39
0
 70
1
 66
1
  0
VERTEX
  8
0
 10
1630
 20
200
 42
0
  0
VERTEX
  8
0
 10
1755
 20
200
 42
0
  0
VERTEX
  8
0
 10
1755
 20
380
 42
0
  0
VERTEX
  8
0
 10
1630
 20
380
 42
0
  0
SEQEND
  0
POLYLINE
  8
0
 10
0
 20
0
 39
0
 70
1
 66
1
  0
VERTEX
  8
0
 10
1682.4710483551025
 20
365.33538818359375
 42
-0.066269710659980774
  0
VERTEX
  8
0
 10
1702.5289522409439
 20
365.33538818359375
 42
0
  0
VERTEX
  8
0
 10
1702.5289522409439
 20
214.66461563110352
 42
-0.066269710659980774
  0
VERTEX
  8
0
 10
1682.4710483551025
 20
214.66461563110352
 42
-0
  0
SEQEND
  0
POLYLINE
  8
0
 10
0
 20
0
 39
0
 70
1
 66
1
  0
VERTEX
  8
0
 10
1495
 20
390
 42
0
  0
VERTEX
  8
0
 10
1620
 20
390
 42
0
  0
VERTEX
  8
0
 10
1620
 20
570
 42
0
  0
VERTEX
  8
0
 10
1495
 20
570
 42
0
  0
SEQEND
  0
POLYLINE
  8
0
 10
0
 20
0
 39
0
 70
1
 66
1
  0
VERTEX
  8
0
 10
1547.4710483551025
 20
555.33538818359375
 42
-0.066269710659980774
  0
VERTEX
  8
0
 10
1567.5289522409439
 20
555.33538818359375
 42
0
  0
VERTEX
  8
0
 10
1567.5289522409439
 20
404.66461563110352
 42
-0.066269710659980774
  0
VERTEX
  8
0
 10
1547.4710483551025
 20
404.66461563110352
 42
-0
  0
SEQEND
  0
POLYLINE
  8
0
 10
0
 20
0
 39
0
 70
1
 66
1
  0
VERTEX
  8
0
 10
280
 20
200
 42
0
  0
VERTEX
  8
0
 10
405
 20
200
 42
0
  0
VERTEX
  8
0
 10
405
 20
380
 42
0
  0
VERTEX
  8
0
 10
280
 20
380
 42
0
  0
SEQEND
  0
POLYLINE
  8
0
 10
0
 20
0
 39
0
 70
1
 66
1
  0
VERTEX
  8
0
 10
332.47104835510254
 20
365.33538818359375
 42
-0.066269710659980774
  0
VERTEX
  8
0
 10
352.52895224094391
 20
365.33538818359375
 42
0
  0
VERTEX
  8
0
 10
352.52895224094391
 20
214.66461563110352
 42
-0.066269710659980774
  0
VERTEX
  8
0
 10
332.47104835510254
 20
214.66461563110352
 42
-0
  0
SEQEND
  0
POLYLINE
  8
0
 10
0
 20
0
 39
0
 70
1
 66
1
  0
VERTEX
  8
0
 10
280
 20
10
 42
0
  0
VERTEX
  8
0
 10
405
 20
10
 42
0
  0
VERTEX
  8
0
 10
405
 20
190
 42
0
  0
VERTEX
  8
0
 10
280
 20
190
 42
0
  0
SEQEND
  0
POLYLINE
  8
0
 10
0
 20
0
 39
0
 70
1
 66
1
  0
VERTEX
  8
0
 10
332.47104835510254
 20
175.33538818359375
 42
-0.066269710659980774
  0
VERTEX
  8
0
 10
352.52895224094391
 20
175.33538818359375
 42
0
  0
VERTEX
  8
0
 10
352.52895224094391
 20
24.664615631103516
 42
-0.066269710659980774
  0
VERTEX
  8
0
 10
332.47104835510254
 20
24.664615631103516
 42
-0
  0
SEQEND
  0
POLYLINE
  8
0
 10
0
 20
0
 39
0
 70
1
 66
1
  0
VERTEX
  8
0
 10
550
 20
10
 42
0
  0
VERTEX
  8
0
 10
675
 20
10
 42
0
  0
VERTEX
  8
0
 10
675
 20
190
 42
0
  0
VERTEX
  8
0
 10
550
 20
190
 42
0
  0
SEQEND
  0
POLYLINE
  8
0
 10
0
 20
0
 39
0
 70
1
 66
1
  0
VERTEX
  8
0
 10
602.47104835510254
 20
175.33538818359375
 42
-0.066269710659980774
  0
VERTEX
  8
0
 10
622.52895224094391
 20
175.33538818359375
 42
0
  0
VERTEX
  8
0
 10
622.52895224094391
 20
24.664615631103516
 42
-0.066269710659980774
  0
VERTEX
  8
0
 10
602.47104835510254
 20
24.664615631103516
 42
-0
  0
SEQEND
  0
POLYLINE
  8
0
 10
0
 20
0
 39
0
 70
1
 66
1
  0
VERTEX
  8
0
 10
1982
 20
550
 42
-0
  0
VERTEX
  8
0
 10
1946
 20
550
 42
-0
  0
VERTEX
  8
0
 10
1946
 20
450
 42
-0
  0
VERTEX
  8
0
 10
1982
 20
450
 42
-0
  0
SEQEND
  0
POLYLINE
  8
0
 10
0
 20
0
 39
0
 70
1
 66
1
  0
VERTEX
  8
0
 10
1964
 20
511
 42
-1
  0
VERTEX
  8
0
 10
1964
 20
489
 42
-1
  0
SEQEND
  0
POLYLINE
  8
0
 10
0
 20
0
 39
0
 70
1
 66
1
  0
VERTEX
  8
0
 10
145
 20
580
 42
0
  0
VERTEX
  8
0
 10
270
 20
580
 42
0
  0
VERTEX
  8
0
 10
270
 20
760
 42
0
  0
VERTEX
  8
0
 10
145
 20
760
 42
0
  0
SEQEND
  0
POLYLINE
  8
0
 10
0
 20
0
 39
0
 70
1
 66
1
  0
VERTEX
  8
0
 10
197.47104835510254
 20
745.33538818359375
 42
-0.066269710659980774
  0
VERTEX
  8
0
 10
217.52895224094391
 20
745.33538818359375
 42
0
  0
VERTEX
  8
0
 10
217.52895224094391
 20
594.66461563110352
 42
-0.066269710659980774
  0
VERTEX
  8
0
 10
197.47104835510254
 20
594.66461563110352
 42
-0
  0
SEQEND
  0
POLYLINE
  8
0
 10
0
 20
0
 39
0
 70
1
 66
1
  0
VERTEX
  8
0
 10
1982
 20
770
 42
-0
  0
VERTEX
  8
0
 10
1946
 20
770
 42
-0
  0
VERTEX
  8
0
 10
1946
 20
670
 42
-0
  0
VERTEX
  8
0
 10
1982
 20
670
 42
-0
  0
SEQEND
  0
POLYLINE
  8
0
 10
0
 20
0
 39
0
 70
1
 66
1
  0
VERTEX
  8
0
 10
1964
 20
731
 42
-1
  0
VERTEX
  8
0
 10
1964
 20
709
 42
-1
  0
SEQEND
  0
POLYLINE
  8
0
 10
0
 20
0
 39
0
 70
1
 66
1
  0
VERTEX
  8
0
 10
415
 20
10
 42
0
  0
VERTEX
  8
0
 10
540
 20
10
 42
0
  0
VERTEX
  8
0
 10
540
 20
190
 42
0
  0
VERTEX
  8
0
 10
415
 20
190
 42
0
  0
SEQEND
  0
POLYLINE
  8
0
 10
0
 20
0
 39
0
 70
1
 66
1
  0
VERTEX
  8
0
 10
467.47104835510254
 20
175.33538818359375
 42
-0.066269710659980774
  0
VERTEX
  8
0
 10
487.52895224094391
 20
175.33538818359375
 42
0
  0
VERTEX
  8
0
 10
487.52895224094391
 20
24.664615631103516
 42
-0.066269710659980774
  0
VERTEX
  8
0
 10
467.47104835510254
 20
24.664615631103516
 42
-0
  0
SEQEND
  0
POLYLINE
  8
0
 10
0
 20
0
 39
0
 70
1
 66
1
  0
VERTEX
  8
0
 10
280
 20
390
 42
0
  0
VERTEX
  8
0
 10
405
 20
390
 42
0
  0
VERTEX
  8
0
 10
405
 20
570
 42
0
  0
VERTEX
  8
0
 10
280
 20
570
 42
0
  0
SEQEND
  0
POLYLINE
  8
0
 10
0
 20
0
 39
0
 70
1
 66
1
  0
VERTEX
  8
0
 10
332.47104835510254
 20
555.33538818359375
 42
-0.066269710659980774
  0
VERTEX
  8
0
 10
352.52895224094391
 20
555.33538818359375
 42
0
  0
VERTEX
  8
0
 10
352.52895224094391
 20
404.66461563110352
 42
-0.066269710659980774
  0
VERTEX
  8
0
 10
332.47104835510254
 20
404.66461563110352
 42
-0
  0
SEQEND
  0
POLYLINE
  8
0
 10
0
 20
0
 39
0
 70
1
 66
1
  0
VERTEX
  8
0
 10
1847
 20
980
 42
-0
  0
VERTEX
  8
0
 10
1811
 20
980
 42
-0
  0
VERTEX
  8
0
 10
1811
 20
880
 42
-0
  0
VERTEX
  8
0
 10
1847
 20
880
 42
-0
  0
SEQEND
  0
POLYLINE
  8
0
 10
0
 20
0
 39
0
 70
1
 66
1
  0
VERTEX
  8
0
 10
1829
 20
941
 42
-1
  0
VERTEX
  8
0
 10
1829
 20
919
 42
-1
  0
SEQEND
  0
POLYLINE
  8
0
 10
0
 20
0
 39
0
 70
1
 66
1
  0
VERTEX
  8
0
 10
550
 20
390
 42
0
  0
VERTEX
  8
0
 10
675
 20
390
 42
0
  0
VERTEX
  8
0
 10
675
 20
570
 42
0
  0
VERTEX
  8
0
 10
550
 20
570
 42
0
  0
SEQEND
  0
POLYLINE
  8
0
 10
0
 20
0
 39
0
 70
1
 66
1
  0
VERTEX
  8
0
 10
602.47104835510254
 20
555.33538818359375
 42
-0.066269710659980774
  0
VERTEX
  8
0
 10
622.52895224094391
 20
555.33538818359375
 42
0
  0
VERTEX
  8
0
 10
622.52895224094391
 20
404.66461563110352
 42
-0.066269710659980774
  0
VERTEX
  8
0
 10
602.47104835510254
 20
404.66461563110352
 42
-0
  0
SEQEND
  0
POLYLINE
  8
0
 10
0
 20
0
 39
0
 70
1
 66
1
  0
VERTEX
  8
0
 10
280
 20
580
 42
0
  0
VERTEX
  8
0
 10
405
 20
580
 42
0
  0
VERTEX
  8
0
 10
405
 20
760
 42
0
  0
VERTEX
  8
0
 10
280
 20
760
 42
0
  0
SEQEND
  0
POLYLINE
  8
0
 10
0
 20
0
 39
0
 70
1
 66
1
  0
VERTEX
  8
0
 10
332.47104835510254
 20
745.33538818359375
 42
-0.066269710659980774
  0
VERTEX
  8
0
 10
352.52895224094391
 20
745.33538818359375
 42
0
  0
VERTEX
  8
0
 10
352.52895224094391
 20
594.66461563110352
 42
-0.066269710659980774
  0
VERTEX
  8
0
 10
332.47104835510254
 20
594.66461563110352
 42
-0
  0
SEQEND
  0
POLYLINE
  8
0
 10
0
 20
0
 39
0
 70
1
 66
1
  0
VERTEX
  8
0
 10
415
 20
200
 42
0
  0
VERTEX
  8
0
 10
540
 20
200
 42
0
  0
VERTEX
  8
0
 10
540
 20
380
 42
0
  0
VERTEX
  8
0
 10
415
 20
380
 42
0
  0
SEQEND
  0
POLYLINE
  8
0
 10
0
 20
0
 39
0
 70
1
 66
1
  0
VERTEX
  8
0
 10
467.47104835510254
 20
365.33538818359375
 42
-0.066269710659980774
  0
VERTEX
  8
0
 10
487.52895224094391
 20
365.33538818359375
 42
0
  0
VERTEX
  8
0
 10
487.52895224094391
 20
214.66461563110352
 42
-0.066269710659980774
  0
VERTEX
  8
0
 10
467.47104835510254
 20
214.66461563110352
 42
-0
  0
SEQEND
  0
POLYLINE
  8
0
 10
0
 20
0
 39
0
 70
1
 66
1
  0
VERTEX
  8
0
 10
1985
 20
880
 42
-0
  0
VERTEX
  8
0
 10
1949
 20
880
 42
-0
  0
VERTEX
  8
0
 10
1949
 20
780
 42
-0
  0
VERTEX
  8
0
 10
1985
 20
780
 42
-0
  0
SEQEND
  0
POLYLINE
  8
0
 10
0
 20
0
 39
0
 70
1
 66
1
  0
VERTEX
  8
0
 10
1967
 20
841
 42
-1
  0
VERTEX
  8
0
 10
1967
 20
819
 42
-1
  0
SEQEND
  0
POLYLINE
  8
0
 10
0
 20
0
 39
0
 70
1
 66
1
  0
VERTEX
  8
0
 10
415
 20
770
 42
0
  0
VERTEX
  8
0
 10
540
 20
770
 42
0
  0
VERTEX
  8
0
 10
540
 20
950
 42
0
  0
VERTEX
  8
0
 10
415
 20
950
 42
0
  0
SEQEND
  0
POLYLINE
  8
0
 10
0
 20
0
 39
0
 70
1
 66
1
  0
VERTEX
  8
0
 10
467.47104835510254
 20
935.33538818359375
 42
-0.066269710659980774
  0
VERTEX
  8
0
 10
487.52895224094391
 20
935.33538818359375
 42
0
  0
VERTEX
  8
0
 10
487.52895224094391
 20
784.66461563110352
 42
-0.066269710659980774
  0
VERTEX
  8
0
 10
467.47104835510254
 20
784.66461563110352
 42
-0
  0
SEQEND
  0
POLYLINE
  8
0
 10
0
 20
0
 39
0
 70
1
 66
1
  0
VERTEX
  8
0
 10
145
 20
10
 42
0
  0
VERTEX
  8
0
 10
270
 20
10
 42
0
  0
VERTEX
  8
0
 10
270
 20
190
 42
0
  0
VERTEX
  8
0
 10
145
 20
190
 42
0
  0
SEQEND
  0
POLYLINE
  8
0
 10
0
 20
0
 39
0
 70
1
 66
1
  0
VERTEX
  8
0
 10
197.47104835510254
 20
175.33538818359375
 42
-0.066269710659980774
  0
VERTEX
  8
0
 10
217.52895224094391
 20
175.33538818359375
 42
0
  0
VERTEX
  8
0
 10
217.52895224094391
 20
24.664615631103516
 42
-0.066269710659980774
  0
VERTEX
  8
0
 10
197.47104835510254
 20
24.664615631103516
 42
-0
  0
SEQEND
  0
POLYLINE
  8
0
 10
0
 20
0
 39
0
 70
1
 66
1
  0
VERTEX
  8
0
 10
820
 20
580
 42
0
  0
VERTEX
  8
0
 10
945
 20
580
 42
0
  0
VERTEX
  8
0
 10
945
 20
760
 42
0
  0
VERTEX
  8
0
 10
820
 20
760
 42
0
  0
SEQEND
  0
POLYLINE
  8
0
 10
0
 20
0
 39
0
 70
1
 66
1
  0
VERTEX
  8
0
 10
872.47104835510254
 20
745.33538818359375
 42
-0.066269710659980774
  0
VERTEX
  8
0
 10
892.52895224094391
 20
745.33538818359375
 42
0
  0
VERTEX
  8
0
 10
892.52895224094391
 20
594.66461563110352
 42
-0.066269710659980774
  0
VERTEX
  8
0
 10
872.47104835510254
 20
594.66461563110352
 42
-0
  0
SEQEND
  0
POLYLINE
  8
0
 10
0
 20
0
 39
0
 70
1
 66
1
  0
VERTEX
  8
0
 10
1360
 20
10
 42
0
  0
VERTEX
  8
0
 10
1485
 20
10
 42
0
  0
VERTEX
  8
0
 10
1485
 20
190
 42
0
  0
VERTEX
  8
0
 10
1360
 20
190
 42
0
  0
SEQEND
  0
POLYLINE
  8
0
 10
0
 20
0
 39
0
 70
1
 66
1
  0
VERTEX
  8
0
 10
1412.4710483551025
 20
175.33538818359375
 42
-0.066269710659980774
  0
VERTEX
  8
0
 10
1432.5289522409439
 20
175.33538818359375
 42
0
  0
VERTEX
  8
0
 10
1432.5289522409439
 20
24.664615631103516
 42
-0.066269710659980774
  0
VERTEX
  8
0
 10
1412.4710483551025
 20
24.664615631103516
 42
-0
  0
SEQEND
  0
POLYLINE
  8
0
 10
0
 20
0
 39
0
 70
1
 66
1
  0
VERTEX
  8
0
 10
955
 20
390
 42
0
  0
VERTEX
  8
0
 10
1080
 20
390
 42
0
  0
VERTEX
  8
0
 10
1080
 20
570
 42
0
  0
VERTEX
  8
0
 10
955
 20
570
 42
0
  0
SEQEND
  0
POLYLINE
  8
0
 10
0
 20
0
 39
0
 70
1
 66
1
  0
VERTEX
  8
0
 10
1007.4710483551025
 20
555.33538818359375
 42
-0.066269710659980774
  0
VERTEX
  8
0
 10
1027.5289522409439
 20
555.33538818359375
 42
0
  0
VERTEX
  8
0
 10
1027.5289522409439
 20
404.66461563110352
 42
-0.066269710659980774
  0
VERTEX
  8
0
 10
1007.4710483551025
 20
404.66461563110352
 42
-0
  0
SEQEND
  0
POLYLINE
  8
0
 10
0
 20
0
 39
0
 70
1
 66
1
  0
VERTEX
  8
0
 10
1090
 20
10
 42
0
  0
VERTEX
  8
0
 10
1215
 20
10
 42
0
  0
VERTEX
  8
0
 10
1215
 20
190
 42
0
  0
VERTEX
  8
0
 10
1090
 20
190
 42
0
  0
SEQEND
  0
POLYLINE
  8
0
 10
0
 20
0
 39
0
 70
1
 66
1
  0
VERTEX
  8
0
 10
1142.4710483551025
 20
175.33538818359375
 42
-0.066269710659980774
  0
VERTEX
  8
0
 10
1162.5289522409439
 20
175.33538818359375
 42
0
  0
VERTEX
  8
0
 10
1162.5289522409439
 20
24.664615631103516
 42
-0.066269710659980774
  0
VERTEX
  8
0
 10
1142.4710483551025
 20
24.664615631103516
 42
-0
  0
SEQEND
  0
POLYLINE
  8
0
 10
0
 20
0
 39
0
 70
1
 66
1
  0
VERTEX
  8
0
 10
820
 20
200
 42
0
  0
VERTEX
  8
0
 10
945
 20
200
 42
0
  0
VERTEX
  8
0
 10
945
 20
380
 42
0
  0
VERTEX
  8
0
 10
820
 20
380
 42
0
  0
SEQEND
  0
POLYLINE
  8
0
 10
0
 20
0
 39
0
 70
1
 66
1
  0
VERTEX
  8
0
 10
872.47104835510254
 20
365.33538818359375
 42
-0.066269710659980774
  0
VERTEX
  8
0
 10
892.52895224094391
 20
365.33538818359375
 42
0
  0
VERTEX
  8
0
 10
892.52895224094391
 20
214.66461563110352
 42
-0.066269710659980774
  0
VERTEX
  8
0
 10
872.47104835510254
 20
214.66461563110352
 42
-0
  0
SEQEND
  0
POLYLINE
  8
0
 10
0
 20
0
 39
0
 70
1
 66
1
  0
VERTEX
  8
0
 10
955
 20
770
 42
0
  0
VERTEX
  8
0
 10
1080
 20
770
 42
0
  0
VERTEX
  8
0
 10
1080
 20
950
 42
0
  0
VERTEX
  8
0
 10
955
 20
950
 42
0
  0
SEQEND
  0
POLYLINE
  8
0
 10
0
 20
0
 39
0
 70
1
 66
1
  0
VERTEX
  8
0
 10
1007.4710483551025
 20
935.33538818359375
 42
-0.066269710659980774
  0
VERTEX
  8
0
 10
1027.5289522409439
 20
935.33538818359375
 42
0
  0
VERTEX
  8
0
 10
1027.5289522409439
 20
784.66461563110352
 42
-0.066269710659980774
  0
VERTEX
  8
0
 10
1007.4710483551025
 20
784.66461563110352
 42
-0
  0
SEQEND
  0
POLYLINE
  8
0
 10
0
 20
0
 39
0
 70
1
 66
1
  0
VERTEX
  8
0
 10
685
 20
580
 42
0
  0
VERTEX
  8
0
 10
810
 20
580
 42
0
  0
VERTEX
  8
0
 10
810
 20
760
 42
0
  0
VERTEX
  8
0
 10
685
 20
760
 42
0
  0
SEQEND
  0
POLYLINE
  8
0
 10
0
 20
0
 39
0
 70
1
 66
1
  0
VERTEX
  8
0
 10
737.47104835510254
 20
745.33538818359375
 42
-0.066269710659980774
  0
VERTEX
  8
0
 10
757.52895224094391
 20
745.33538818359375
 42
0
  0
VERTEX
  8
0
 10
757.52895224094391
 20
594.66461563110352
 42
-0.066269710659980774
  0
VERTEX
  8
0
 10
737.47104835510254
 20
594.66461563110352
 42
-0
  0
SEQEND
  0
POLYLINE
  8
0
 10
0
 20
0
 39
0
 70
1
 66
1
  0
VERTEX
  8
0
 10
685
 20
770
 42
0
  0
VERTEX
  8
0
 10
810
 20
770
 42
0
  0
VERTEX
  8
0
 10
810
 20
950
 42
0
  0
VERTEX
  8
0
 10
685
 20
950
 42
0
  0
SEQEND
  0
POLYLINE
  8
0
 10
0
 20
0
 39
0
 70
1
 66
1
  0
VERTEX
  8
0
 10
737.47104835510254
 20
935.33538818359375
 42
-0.066269710659980774
  0
VERTEX
  8
0
 10
757.52895224094391
 20
935.33538818359375
 42
0
  0
VERTEX
  8
0
 10
757.52895224094391
 20
784.66461563110352
 42
-0.066269710659980774
  0
VERTEX
  8
0
 10
737.47104835510254
 20
784.66461563110352
 42
-0
  0
SEQEND
  0
POLYLINE
  8
0
 10
0
 20
0
 39
0
 70
1
 66
1
  0
VERTEX
  8
0
 10
685
 20
10
 42
0
  0
VERTEX
  8
0
 10
810
 20
10
 42
0
  0
VERTEX
  8
0
 10
810
 20
190
 42
0
  0
VERTEX
  8
0
 10
685
 20
190
 42
0
  0
SEQEND
  0
POLYLINE
  8
0
 10
0
 20
0
 39
0
 70
1
 66
1
  0
VERTEX
  8
0
 10
737.47104835510254
 20
175.33538818359375
 42
-0.066269710659980774
  0
VERTEX
  8
0
 10
757.52895224094391
 20
175.33538818359375
 42
0
  0
VERTEX
  8
0
 10
757.52895224094391
 20
24.664615631103516
 42
-0.066269710659980774
  0
VERTEX
  8
0
 10
737.47104835510254
 20
24.664615631103516
 42
-0
  0
SEQEND
  0
POLYLINE
  8
0
 10
0
 20
0
 39
0
 70
1
 66
1
  0
VERTEX
  8
0
 10
550
 20
770
 42
0
  0
VERTEX
  8
0
 10
675
 20
770
 42
0
  0
VERTEX
  8
0
 10
675
 20
950
 42
0
  0
VERTEX
  8
0
 10
550
 20
950
 42
0
  0
SEQEND
  0
POLYLINE
  8
0
 10
0
 20
0
 39
0
 70
1
 66
1
  0
VERTEX
  8
0
 10
602.47104835510254
 20
935.33538818359375
 42
-0.066269710659980774
  0
VERTEX
  8
0
 10
622.52895224094391
 20
935.33538818359375
 42
0
  0
VERTEX
  8
0
 10
622.52895224094391
 20
784.66461563110352
 42
-0.066269710659980774
  0
VERTEX
  8
0
 10
602.47104835510254
 20
784.66461563110352
 42
-0
  0
SEQEND
  0
POLYLINE
  8
0
 10
0
 20
0
 39
0
 70
1
 66
1
  0
VERTEX
  8
0
 10
1225
 20
200
 42
0
  0
VERTEX
  8
0
 10
1350
 20
200
 42
0
  0
VERTEX
  8
0
 10
1350
 20
380
 42
0
  0
VERTEX
  8
0
 10
1225
 20
380
 42
0
  0
SEQEND
  0
POLYLINE
  8
0
 10
0
 20
0
 39
0
 70
1
 66
1
  0
VERTEX
  8
0
 10
1277.4710483551025
 20
365.33538818359375
 42
-0.066269710659980774
  0
VERTEX
  8
0
 10
1297.5289522409439
 20
365.33538818359375
 42
0
  0
VERTEX
  8
0
 10
1297.5289522409439
 20
214.66461563110352
 42
-0.066269710659980774
  0
VERTEX
  8
0
 10
1277.4710483551025
 20
214.66461563110352
 42
-0
  0
SEQEND
  0
POLYLINE
  8
0
 10
0
 20
0
 39
0
 70
1
 66
1
  0
VERTEX
  8
0
 10
820
 20
770
 42
0
  0
VERTEX
  8
0
 10
945
 20
770
 42
0
  0
VERTEX
  8
0
 10
945
 20
950
 42
0
  0
VERTEX
  8
0
 10
820
 20
950
 42
0
  0
SEQEND
  0
POLYLINE
  8
0
 10
0
 20
0
 39
0
 70
1
 66
1
  0
VERTEX
  8
0
 10
872.47104835510254
 20
935.33538818359375
 42
-0.066269710659980774
  0
VERTEX
  8
0
 10
892.52895224094391
 20
935.33538818359375
 42
0
  0
VERTEX
  8
0
 10
892.52895224094391
 20
784.66461563110352
 42
-0.066269710659980774
  0
VERTEX
  8
0
 10
872.47104835510254
 20
784.66461563110352
 42
-0
  0
SEQEND
  0
POLYLINE
  8
0
 10
0
 20
0
 39
0
 70
1
 66
1
  0
VERTEX
  8
0
 10
1225
 20
580
 42
0
  0
VERTEX
  8
0
 10
1350
 20
580
 42
0
  0
VERTEX
  8
0
 10
1350
 20
760
 42
0
  0
VERTEX
  8
0
 10
1225
 20
760
 42
0
  0
SEQEND
  0
POLYLINE
  8
0
 10
0
 20
0
 39
0
 70
1
 66
1
  0
VERTEX
  8
0
 10
1277.4710483551025
 20
745.33538818359375
 42
-0.066269710659980774
  0
VERTEX
  8
0
 10
1297.5289522409439
 20
745.33538818359375
 42
0
  0
VERTEX
  8
0
 10
1297.5289522409439
 20
594.66461563110352
 42
-0.066269710659980774
  0
VERTEX
  8
0
 10
1277.4710483551025
 20
594.66461563110352
 42
-0
  0
SEQEND
  0
POLYLINE
  8
0
 10
0
 20
0
 39
0
 70
1
 66
1
  0
VERTEX
  8
0
 10
685
 20
390
 42
0
  0
VERTEX
  8
0
 10
810
 20
390
 42
0
  0
VERTEX
  8
0
 10
810
 20
570
 42
0
  0
VERTEX
  8
0
 10
685
 20
570
 42
0
  0
SEQEND
  0
POLYLINE
  8
0
 10
0
 20
0
 39
0
 70
1
 66
1
  0
VERTEX
  8
0
 10
737.47104835510254
 20
555.33538818359375
 42
-0.066269710659980774
  0
VERTEX
  8
0
 10
757.52895224094391
 20
555.33538818359375
 42
0
  0
VERTEX
  8
0
 10
757.52895224094391
 20
404.66461563110352
 42
-0.066269710659980774
  0
VERTEX
  8
0
 10
737.47104835510254
 20
404.66461563110352
 42
-0
  0
SEQEND
  0
POLYLINE
  8
0
 10
0
 20
0
 39
0
 70
1
 66
1
  0
VERTEX
  8
0
 10
685
 20
200
 42
0
  0
VERTEX
  8
0
 10
810
 20
200
 42
0
  0
VERTEX
  8
0
 10
810
 20
380
 42
0
  0
VERTEX
  8
0
 10
685
 20
380
 42
0
  0
SEQEND
  0
POLYLINE
  8
0
 10
0
 20
0
 39
0
 70
1
 66
1
  0
VERTEX
  8
0
 10
737.47104835510254
 20
365.33538818359375
 42
-0.066269710659980774
  0
VERTEX
  8
0
 10
757.52895224094391
 20
365.33538818359375
 42
0
  0
VERTEX
  8
0
 10
757.52895224094391
 20
214.66461563110352
 42
-0.066269710659980774
  0
VERTEX
  8
0
 10
737.47104835510254
 20
214.66461563110352
 42
-0
  0
SEQEND
  0
POLYLINE
  8
0
 10
0
 20
0
 39
0
 70
1
 66
1
  0
VERTEX
  8
0
 10
955
 20
580
 42
0
  0
VERTEX
  8
0
 10
1080
 20
580
 42
0
  0
VERTEX
  8
0
 10
1080
 20
760
 42
0
  0
VERTEX
  8
0
 10
955
 20
760
 42
0
  0
SEQEND
  0
POLYLINE
  8
0
 10
0
 20
0
 39
0
 70
1
 66
1
  0
VERTEX
  8
0
 10
1007.4710483551025
 20
745.33538818359375
 42
-0.066269710659980774
  0
VERTEX
  8
0
 10
1027.5289522409439
 20
745.33538818359375
 42
0
  0
VERTEX
  8
0
 10
1027.5289522409439
 20
594.66461563110352
 42
-0.066269710659980774
  0
VERTEX
  8
0
 10
1007.4710483551025
 20
594.66461563110352
 42
-0
  0
SEQEND
  0
POLYLINE
  8
0
 10
0
 20
0
 39
0
 70
1
 66
1
  0
VERTEX
  8
0
 10
550
 20
200
 42
0
  0
VERTEX
  8
0
 10
675
 20
200
 42
0
  0
VERTEX
  8
0
 10
675
 20
380
 42
0
  0
VERTEX
  8
0
 10
550
 20
380
 42
0
  0
SEQEND
  0
POLYLINE
  8
0
 10
0
 20
0
 39
0
 70
1
 66
1
  0
VERTEX
  8
0
 10
602.47104835510254
 20
365.33538818359375
 42
-0.066269710659980774
  0
VERTEX
  8
0
 10
622.52895224094391
 20
365.33538818359375
 42
0
  0
VERTEX
  8
0
 10
622.52895224094391
 20
214.66461563110352
 42
-0.066269710659980774
  0
VERTEX
  8
0
 10
602.47104835510254
 20
214.66461563110352
 42
-0
  0
SEQEND
  0
POLYLINE
  8
0
 10
0
 20
0
 39
0
 70
1
 66
1
  0
VERTEX
  8
0
 10
1360
 20
200
 42
0
  0
VERTEX
  8
0
 10
1485
 20
200
 42
0
  0
VERTEX
  8
0
 10
1485
 20
380
 42
0
  0
VERTEX
  8
0
 10
1360
 20
380
 42
0
  0
SEQEND
  0
POLYLINE
  8
0
 10
0
 20
0
 39
0
 70
1
 66
1
  0
VERTEX
  8
0
 10
1412.4710483551025
 20
365.33538818359375
 42
-0.066269710659980774
  0
VERTEX
  8
0
 10
1432.5289522409439
 20
365.33538818359375
 42
0
  0
VERTEX
  8
0
 10
1432.5289522409439
 20
214.66461563110352
 42
-0.066269710659980774
  0
VERTEX
  8
0
 10
1412.4710483551025
 20
214.66461563110352
 42
-0
  0
SEQEND
  0
POLYLINE
  8
0
 10
0
 20
0
 39
0
 70
1
 66
1
  0
VERTEX
  8
0
 10
1360
 20
390
 42
0
  0
VERTEX
  8
0
 10
1485
 20
390
 42
0
  0
VERTEX
  8
0
 10
1485
 20
570
 42
0
  0
VERTEX
  8
0
 10
1360
 20
570
 42
0
  0
SEQEND
  0
POLYLINE
  8
0
 10
0
 20
0
 39
0
 70
1
 66
1
  0
VERTEX
  8
0
 10
1412.4710483551025
 20
555.33538818359375
 42
-0.066269710659980774
  0
VERTEX
  8
0
 10
1432.5289522409439
 20
555.33538818359375
 42
0
  0
VERTEX
  8
0
 10
1432.5289522409439
 20
404.66461563110352
 42
-0.066269710659980774
  0
VERTEX
  8
0
 10
1412.4710483551025
 20
404.66461563110352
 42
-0
  0
SEQEND
  0
POLYLINE
  8
0
 10
0
 20
0
 39
0
 70
1
 66
1
  0
VERTEX
  8
0
 10
1225
 20
390
 42
0
  0
VERTEX
  8
0
 10
1350
 20
390
 42
0
  0
VERTEX
  8
0
 10
1350
 20
570
 42
0
  0
VERTEX
  8
0
 10
1225
 20
570
 42
0
  0
SEQEND
  0
POLYLINE
  8
0
 10
0
 20
0
 39
0
 70
1
 66
1
  0
VERTEX
  8
0
 10
1277.4710483551025
 20
555.33538818359375
 42
-0.066269710659980774
  0
VERTEX
  8
0
 10
1297.5289522409439
 20
555.33538818359375
 42
0
  0
VERTEX
  8
0
 10
1297.5289522409439
 20
404.66461563110352
 42
-0.066269710659980774
  0
VERTEX
  8
0
 10
1277.4710483551025
 20
404.66461563110352
 42
-0
  0
SEQEND
  0
POLYLINE
  8
0
 10
0
 20
0
 39
0
 70
1
 66
1
  0
VERTEX
  8
0
 10
1090
 20
580
 42
0
  0
VERTEX
  8
0
 10
1215
 20
580
 42
0
  0
VERTEX
  8
0
 10
1215
 20
760
 42
0
  0
VERTEX
  8
0
 10
1090
 20
760
 42
0
  0
SEQEND
  0
POLYLINE
  8
0
 10
0
 20
0
 39
0
 70
1
 66
1
  0
VERTEX
  8
0
 10
1142.4710483551025
 20
745.33538818359375
 42
-0.066269710659980774
  0
VERTEX
  8
0
 10
1162.5289522409439
 20
745.33538818359375
 42
0
  0
VERTEX
  8
0
 10
1162.5289522409439
 20
594.66461563110352
 42
-0.066269710659980774
  0
VERTEX
  8
0
 10
1142.4710483551025
 20
594.66461563110352
 42
-0
  0
SEQEND
  0
POLYLINE
  8
0
 10
0
 20
0
 39
0
 70
1
 66
1
  0
VERTEX
  8
0
 10
1225
 20
770
 42
0
  0
VERTEX
  8
0
 10
1350
 20
770
 42
0
  0
VERTEX
  8
0
 10
1350
 20
950
 42
0
  0
VERTEX
  8
0
 10
1225
 20
950
 42
0
  0
SEQEND
  0
POLYLINE
  8
0
 10
0
 20
0
 39
0
 70
1
 66
1
  0
VERTEX
  8
0
 10
1277.4710483551025
 20
935.33538818359375
 42
-0.066269710659980774
  0
VERTEX
  8
0
 10
1297.5289522409439
 20
935.33538818359375
 42
0
  0
VERTEX
  8
0
 10
1297.5289522409439
 20
784.66461563110352
 42
-0.066269710659980774
  0
VERTEX
  8
0
 10
1277.4710483551025
 20
784.66461563110352
 42
-0
  0
SEQEND
  0
POLYLINE
  8
0
 10
0
 20
0
 39
0
 70
1
 66
1
  0
VERTEX
  8
0
 10
1225
 20
10
 42
0
  0
VERTEX
  8
0
 10
1350
 20
10
 42
0
  0
VERTEX
  8
0
 10
1350
 20
190
 42
0
  0
VERTEX
  8
0
 10
1225
 20
190
 42
0
  0
SEQEND
  0
POLYLINE
  8
0
 10
0
 20
0
 39
0
 70
1
 66
1
  0
VERTEX
  8
0
 10
1277.4710483551025
 20
175.33538818359375
 42
-0.066269710659980774
  0
VERTEX
  8
0
 10
1297.5289522409439
 20
175.33538818359375
 42
0
  0
VERTEX
  8
0
 10
1297.5289522409439
 20
24.664615631103516
 42
-0.066269710659980774
  0
VERTEX
  8
0
 10
1277.4710483551025
 20
24.664615631103516
 42
-0
  0
SEQEND
  0
POLYLINE
  8
0
 10
0
 20
0
 39
0
 70
1
 66
1
  0
VERTEX
  8
0
 10
955
 20
10
 42
0
  0
VERTEX
  8
0
 10
1080
 20
10
 42
0
  0
VERTEX
  8
0
 10
1080
 20
190
 42
0
  0
VERTEX
  8
0
 10
955
 20
190
 42
0
  0
SEQEND
  0
POLYLINE
  8
0
 10
0
 20
0
 39
0
 70
1
 66
1
  0
VERTEX
  8
0
 10
1007.4710483551025
 20
175.33538818359375
 42
-0.066269710659980774
  0
VERTEX
  8
0
 10
1027.5289522409439
 20
175.33538818359375
 42
0
  0
VERTEX
  8
0
 10
1027.5289522409439
 20
24.664615631103516
 42
-0.066269710659980774
  0
VERTEX
  8
0
 10
1007.4710483551025
 20
24.664615631103516
 42
-0
  0
SEQEND
  0
POLYLINE
  8
0
 10
0
 20
0
 39
0
 70
1
 66
1
  0
VERTEX
  8
0
 10
820
 20
10
 42
0
  0
VERTEX
  8
0
 10
945
 20
10
 42
0
  0
VERTEX
  8
0
 10
945
 20
190
 42
0
  0
VERTEX
  8
0
 10
820
 20
190
 42
0
  0
SEQEND
  0
POLYLINE
  8
0
 10
0
 20
0
 39
0
 70
1
 66
1
  0
VERTEX
  8
0
 10
872.47104835510254
 20
175.33538818359375
 42
-0.066269710659980774
  0
VERTEX
  8
0
 10
892.52895224094391
 20
175.33538818359375
 42
0
  0
VERTEX
  8
0
 10
892.52895224094391
 20
24.664615631103516
 42
-0.066269710659980774
  0
VERTEX
  8
0
 10
872.47104835510254
 20
24.664615631103516
 42
-0
  0
SEQEND
  0
POLYLINE
  8
0
 10
0
 20
0
 39
0
 70
1
 66
1
  0
VERTEX
  8
0
 10
1090
 20
390
 42
0
  0
VERTEX
  8
0
 10
1215
 20
390
 42
0
  0
VERTEX
  8
0
 10
1215
 20
570
 42
0
  0
VERTEX
  8
0
 10
1090
 20
570
 42
0
  0
SEQEND
  0
POLYLINE
  8
0
 10
0
 20
0
 39
0
 70
1
 66
1
  0
VERTEX
  8
0
 10
1142.4710483551025
 20
555.33538818359375
 42
-0.066269710659980774
  0
VERTEX
  8
0
 10
1162.5289522409439
 20
555.33538818359375
 42
0
  0
VERTEX
  8
0
 10
1162.5289522409439
 20
404.66461563110352
 42
-0.066269710659980774
  0
VERTEX
  8
0
 10
1142.4710483551025
 20
404.66461563110352
 42
-0
  0
SEQEND
  0
POLYLINE
  8
0
 10
0
 20
0
 39
0
 70
1
 66
1
  0
VERTEX
  8
0
 10
1090
 20
200
 42
0
  0
VERTEX
  8
0
 10
1215
 20
200
 42
0
  0
VERTEX
  8
0
 10
1215
 20
380
 42
0
  0
VERTEX
  8
0
 10
1090
 20
380
 42
0
  0
SEQEND
  0
POLYLINE
  8
0
 10
0
 20
0
 39
0
 70
1
 66
1
  0
VERTEX
  8
0
 10
1142.4710483551025
 20
365.33538818359375
 42
-0.066269710659980774
  0
VERTEX
  8
0
 10
1162.5289522409439
 20
365.33538818359375
 42
0
  0
VERTEX
  8
0
 10
1162.5289522409439
 20
214.66461563110352
 42
-0.066269710659980774
  0
VERTEX
  8
0
 10
1142.4710483551025
 20
214.66461563110352
 42
-0
  0
SEQEND
  0
POLYLINE
  8
0
 10
0
 20
0
 39
0
 70
1
 66
1
  0
VERTEX
  8
0
 10
820
 20
390
 42
0
  0
VERTEX
  8
0
 10
945
 20
390
 42
0
  0
VERTEX
  8
0
 10
945
 20
570
 42
0
  0
VERTEX
  8
0
 10
820
 20
570
 42
0
  0
SEQEND
  0
POLYLINE
  8
0
 10
0
 20
0
 39
0
 70
1
 66
1
  0
VERTEX
  8
0
 10
872.47104835510254
 20
555.33538818359375
 42
-0.066269710659980774
  0
VERTEX
  8
0
 10
892.52895224094391
 20
555.33538818359375
 42
0
  0
VERTEX
  8
0
 10
892.52895224094391
 20
404.66461563110352
 42
-0.066269710659980774
  0
VERTEX
  8
0
 10
872.47104835510254
 20
404.66461563110352
 42
-0
  0
SEQEND
  0
POLYLINE
  8
0
 10
0
 20
0
 39
0
 70
1
 66
1
  0
VERTEX
  8
0
 10
1090
 20
770
 42
0
  0
VERTEX
  8
0
 10
1215
 20
770
 42
0
  0
VERTEX
  8
0
 10
1215
 20
950
 42
0
  0
VERTEX
  8
0
 10
1090
 20
950
 42
0
  0
SEQEND
  0
POLYLINE
  8
0
 10
0
 20
0
 39
0
 70
1
 66
1
  0
VERTEX
  8
0
 10
1142.4710483551025
 20
935.33538818359375
 42
-0.066269710659980774
  0
VERTEX
  8
0
 10
1162.5289522409439
 20
935.33538818359375
 42
0
  0
VERTEX
  8
0
 10
1162.5289522409439
 20
784.66461563110352
 42
-0.066269710659980774
  0
VERTEX
  8
0
 10
1142.4710483551025
 20
784.66461563110352
 42
-0
  0
SEQEND
  0
POLYLINE
  8
0
 10
0
 20
0
 39
0
 70
1
 66
1
  0
VERTEX
  8
0
 10
550
 20
580
 42
0
  0
VERTEX
  8
0
 10
675
 20
580
 42
0
  0
VERTEX
  8
0
 10
675
 20
760
 42
0
  0
VERTEX
  8
0
 10
550
 20
760
 42
0
  0
SEQEND
  0
POLYLINE
  8
0
 10
0
 20
0
 39
0
 70
1
 66
1
  0
VERTEX
  8
0
 10
602.47104835510254
 20
745.33538818359375
 42
-0.066269710659980774
  0
VERTEX
  8
0
 10
622.52895224094391
 20
745.33538818359375
 42
0
  0
VERTEX
  8
0
 10
622.52895224094391
 20
594.66461563110352
 42
-0.066269710659980774
  0
VERTEX
  8
0
 10
602.47104835510254
 20
594.66461563110352
 42
-0
  0
SEQEND
  0
POLYLINE
  8
0
 10
0
 20
0
 39
0
 70
1
 66
1
  0
VERTEX
  8
0
 10
955
 20
200
 42
0
  0
VERTEX
  8
0
 10
1080
 20
200
 42
0
  0
VERTEX
  8
0
 10
1080
 20
380
 42
0
  0
VERTEX
  8
0
 10
955
 20
380
 42
0
  0
SEQEND
  0
POLYLINE
  8
0
 10
0
 20
0
 39
0
 70
1
 66
1
  0
VERTEX
  8
0
 10
1007.4710483551025
 20
365.33538818359375
 42
-0.066269710659980774
  0
VERTEX
  8
0
 10
1027.5289522409439
 20
365.33538818359375
 42
0
  0
VERTEX
  8
0
 10
1027.5289522409439
 20
214.66461563110352
 42
-0.066269710659980774
  0
VERTEX
  8
0
 10
1007.4710483551025
 20
214.66461563110352
 42
-0
  0
SEQEND
  0
ENDSEC
  0
EOF
