  0
SECTION
  2
ENTITIES
  0
POLYLINE
  8
0
 10
0
 20
0
 39
0
 70
1
 66
1
  0
VERTEX
  8
0
 10
0
 20
0
 42
0
  0
VERTEX
  8
0
 10
2000
 20
0
 42
0
  0
VERTEX
  8
0
 10
2000
 20
1000
 42
0
  0
VERTEX
  8
0
 10
0
 20
1000
 42
0
  0
SEQEND
  0
POLYLINE
  8
0
 10
0
 20
0
 39
0
 70
1
 66
1
  0
VERTEX
  8
0
 10
1881.102783203125
 20
10
 42
-0
  0
VERTEX
  8
0
 10
1983.1029052734375
 20
10
 42
-0
  0
VERTEX
  8
0
 10
1983.1029052734375
 20
380
 42
-0
  0
VERTEX
  8
0
 10
1881.102783203125
 20
380
 42
-0
  0
SEQEND
  0
POLYLINE
  8
0
 10
0
 20
0
 39
0
 70
1
 66
1
  0
VERTEX
  8
0
 10
1919.1029052734375
 20
311
 42
-1
  0
VERTEX
  8
0
 10
1945.1029052734375
 20
311
 42
-1
  0
SEQEND
  0
POLYLINE
  8
0
 10
0
 20
0
 39
0
 70
1
 66
1
  0
VERTEX
  8
0
 10
122
 20
10
 42
-0
  0
VERTEX
  8
0
 10
224
 20
10
 42
-0
  0
VERTEX
  8
0
 10
224
 20
380
 42
-0
  0
VERTEX
  8
0
 10
122
 20
380
 42
-0
  0
SEQEND
  0
POLYLINE
  8
0
 10
0
 20
0
 39
0
 70
1
 66
1
  0
VERTEX
  8
0
 10
160
 20
311
 42
-1
  0
VERTEX
  8
0
 10
186
 20
311
 42
-1
  0
SEQEND
  0
POLYLINE
  8
0
 10
0
 20
0
 39
0
 70
1
 66
1
  0
VERTEX
  8
0
 10
10
 20
10
 42
-0
  0
VERTEX
  8
0
 10
112
 20
10
 42
-0
  0
VERTEX
  8
0
 10
112
 20
380
 42
-0
  0
VERTEX
  8
0
 10
10
 20
380
 42
-0
  0
SEQEND
  0
POLYLINE
  8
0
 10
0
 20
0
 39
0
 70
1
 66
1
  0
VERTEX
  8
0
 10
48.000003814697266
 20
311
 42
-1
  0
VERTEX
  8
0
 10
74
 20
311
 42
-1
  0
SEQEND
  0
POLYLINE
  8
0
 10
0
 20
0
 39
0
 70
1
 66
1
  0
VERTEX
  8
0
 10
1390
 20
904.515869140625
 42
0
  0
VERTEX
  8
0
 10
1770
 20
904.515869140625
 42
1
  0
VERTEX
  8
0
 10
1770
 20
964.515869140625
 42
0
  0
VERTEX
  8
0
 10
1390
 20
964.515869140625
 42
1
  0
SEQEND
  0
POLYLINE
  8
0
 10
0
 20
0
 39
0
 70
1
 66
1
  0
VERTEX
  8
0
 10
1390
 20
944.515869140625
 42
0
  0
VERTEX
  8
0
 10
1770
 20
944.515869140625
 42
-1
  0
VERTEX
  8
0
 10
1770
 20
924.515869140625
 42
-0
  0
VERTEX
  8
0
 10
1390
 20
924.515869140625
 42
-1
  0
SEQEND
  0
POLYLINE
  8
0
 10
0
 20
0
 39
0
 70
1
 66
1
  0
VERTEX
  8
0
 10
1769.102783203125
 20
390
 42
-0
  0
VERTEX
  8
0
 10
1871.102783203125
 20
390
 42
-0
  0
VERTEX
  8
0
 10
1871.102783203125
 20
760
 42
-0
  0
VERTEX
  8
0
 10
1769.102783203125
 20
760
 42
-0
  0
SEQEND
  0
POLYLINE
  8
0
 10
0
 20
0
 39
0
 70
1
 66
1
  0
VERTEX
  8
0
 10
1807.102783203125
 20
691
 42
-1
  0
VERTEX
  8
0
 10
1833.102783203125
 20
691
 42
-1
  0
SEQEND
  0
POLYLINE
  8
0
 10
0
 20
0
 39
0
 70
1
 66
1
  0
VERTEX
  8
0
 10
1283.5513916015625
 20
109.26490783691406
 42
-0.36259260773658752
  0
VERTEX
  8
0
 10
1364.654296875
 20
10
 42
0
  0
VERTEX
  8
0
 10
1643.3516845703125
 20
10.549439430236816
 42
0.44512951374053955
  0
VERTEX
  8
0
 10
1339.6531982421875
 20
382.2579345703125
 42
-0
  0
SEQEND
  0
POLYLINE
  8
0
 10
0
 20
0
 39
0
 70
1
 66
1
  0
VERTEX
  8
0
 10
1424.130859375
 20
58.594474792480469
 42
0.17192822694778442
  0
VERTEX
  8
0
 10
1343.028076171875
 20
157.859375
 42
0
  0
VERTEX
  8
0
 10
1358.7999267578125
 20
234.60560607910156
 42
-0.22322621941566467
  0
VERTEX
  8
0
 10
1502.4808349609375
 20
58.748996734619141
 42
-0
  0
SEQEND
  0
POLYLINE
  8
0
 10
0
 20
0
 39
0
 70
1
 66
1
  0
VERTEX
  8
0
 10
1539.8441162109375
 20
159.54241943359375
 42
-1
  0
VERTEX
  8
0
 10
1596.78759765625
 20
89.847076416015625
 42
-1
  0
SEQEND
  0
POLYLINE
  8
0
 10
0
 20
0
 39
0
 70
1
 66
1
  0
VERTEX
  8
0
 10
1408.075439453125
 20
320.81915283203125
 42
-1
  0
VERTEX
  8
0
 10
1465.0189208984375
 20
251.12380981445312
 42
-1
  0
SEQEND
  0
POLYLINE
  8
0
 10
0
 20
0
 39
0
 70
1
 66
1
  0
VERTEX
  8
0
 10
910
 20
109.26490783691406
 42
-0.36259260773658752
  0
VERTEX
  8
0
 10
991.10284423828125
 20
10
 42
0
  0
VERTEX
  8
0
 10
1269.80029296875
 20
10.549439430236816
 42
0.44512951374053955
  0
VERTEX
  8
0
 10
966.10174560546875
 20
382.2579345703125
 42
-0
  0
SEQEND
  0
POLYLINE
  8
0
 10
0
 20
0
 39
0
 70
1
 66
1
  0
VERTEX
  8
0
 10
1050.5794677734375
 20
58.594474792480469
 42
0.17192822694778442
  0
VERTEX
  8
0
 10
969.4766845703125
 20
157.859375
 42
0
  0
VERTEX
  8
0
 10
985.24853515625
 20
234.60560607910156
 42
-0.22322621941566467
  0
VERTEX
  8
0
 10
1128.929443359375
 20
58.748996734619141
 42
-0
  0
SEQEND
  0
POLYLINE
  8
0
 10
0
 20
0
 39
0
 70
1
 66
1
  0
VERTEX
  8
0
 10
1166.292724609375
 20
159.54241943359375
 42
-1
  0
VERTEX
  8
0
 10
1223.2362060546875
 20
89.847076416015625
 42
-1
  0
SEQEND
  0
POLYLINE
  8
0
 10
0
 20
0
 39
0
 70
1
 66
1
  0
VERTEX
  8
0
 10
1034.5240478515625
 20
320.81915283203125
 42
-1
  0
VERTEX
  8
0
 10
1091.467529296875
 20
251.12380981445312
 42
-1
  0
SEQEND
  0
POLYLINE
  8
0
 10
0
 20
0
 39
0
 70
1
 66
1
  0
VERTEX
  8
0
 10
1152
 20
774.515869140625
 42
0
  0
VERTEX
  8
0
 10
1384
 20
774.515869140625
 42
0
  0
VERTEX
  8
0
 10
1384
 20
894.515869140625
 42
0
  0
VERTEX
  8
0
 10
1152
 20
894.515869140625
 42
0
  0
SEQEND
  0
POLYLINE
  8
0
 10
0
 20
0
 39
0
 70
1
 66
1
  0
VERTEX
  8
0
 10
1191.0137939453125
 20
834.515869140625
 42
-1
  0
VERTEX
  8
0
 10
1211.0137939453125
 20
834.515869140625
 42
-1
  0
SEQEND
  0
POLYLINE
  8
0
 10
0
 20
0
 39
0
 70
1
 66
1
  0
VERTEX
  8
0
 10
1313.18115234375
 20
834.515869140625
 42
-1
  0
VERTEX
  8
0
 10
1333.18115234375
 20
834.515869140625
 42
-1
  0
SEQEND
  0
POLYLINE
  8
0
 10
0
 20
0
 39
0
 70
1
 66
1
  0
VERTEX
  8
0
 10
10
 20
840
 42
0
  0
VERTEX
  8
0
 10
87
 20
840
 42
0
  0
VERTEX
  8
0
 10
87
 20
940
 42
0
  0
VERTEX
  8
0
 10
10
 20
940
 42
0
  0
SEQEND
  0
POLYLINE
  8
0
 10
0
 20
0
 39
0
 70
1
 66
1
  0
VERTEX
  8
0
 10
33.5
 20
890
 42
-1
  0
VERTEX
  8
0
 10
63.5
 20
890
 42
-1
  0
SEQEND
  0
POLYLINE
  8
0
 10
0
 20
0
 39
0
 70
1
 66
1
  0
VERTEX
  8
0
 10
426
 20
830
 42
0
  0
VERTEX
  8
0
 10
658
 20
830
 42
0
  0
VERTEX
  8
0
 10
658
 20
950
 42
0
  0
VERTEX
  8
0
 10
426
 20
950
 42
0
  0
SEQEND
  0
POLYLINE
  8
0
 10
0
 20
0
 39
0
 70
1
 66
1
  0
VERTEX
  8
0
 10
465.0137939453125
 20
890
 42
-1
  0
VERTEX
  8
0
 10
485.0137939453125
 20
890
 42
-1
  0
SEQEND
  0
POLYLINE
  8
0
 10
0
 20
0
 39
0
 70
1
 66
1
  0
VERTEX
  8
0
 10
587.18115234375
 20
890
 42
-1
  0
VERTEX
  8
0
 10
607.18115234375
 20
890
 42
-1
  0
SEQEND
  0
POLYLINE
  8
0
 10
0
 20
0
 39
0
 70
1
 66
1
  0
VERTEX
  8
0
 10
10
 20
800
 42
0
  0
VERTEX
  8
0
 10
10
 20
420
 42
1
  0
VERTEX
  8
0
 10
70
 20
420
 42
0
  0
VERTEX
  8
0
 10
70
 20
800
 42
1
  0
SEQEND
  0
POLYLINE
  8
0
 10
0
 20
0
 39
0
 70
1
 66
1
  0
VERTEX
  8
0
 10
50
 20
800
 42
0
  0
VERTEX
  8
0
 10
50
 20
420
 42
-1
  0
VERTEX
  8
0
 10
30
 20
420
 42
-0
  0
VERTEX
  8
0
 10
30
 20
800
 42
-1
  0
SEQEND
  0
POLYLINE
  8
0
 10
0
 20
0
 39
0
 70
1
 66
1
  0
VERTEX
  8
0
 10
184
 20
840
 42
0
  0
VERTEX
  8
0
 10
416
 20
840
 42
0
  0
VERTEX
  8
0
 10
416
 20
960
 42
0
  0
VERTEX
  8
0
 10
184
 20
960
 42
0
  0
SEQEND
  0
POLYLINE
  8
0
 10
0
 20
0
 39
0
 70
1
 66
1
  0
VERTEX
  8
0
 10
223.0137939453125
 20
900
 42
-1
  0
VERTEX
  8
0
 10
243.0137939453125
 20
900
 42
-1
  0
SEQEND
  0
POLYLINE
  8
0
 10
0
 20
0
 39
0
 70
1
 66
1
  0
VERTEX
  8
0
 10
345.18115234375
 20
900
 42
-1
  0
VERTEX
  8
0
 10
365.18115234375
 20
900
 42
-1
  0
SEQEND
  0
POLYLINE
  8
0
 10
0
 20
0
 39
0
 70
1
 66
1
  0
VERTEX
  8
0
 10
1657.102783203125
 20
390
 42
-0
  0
VERTEX
  8
0
 10
1759.102783203125
 20
390
 42
-0
  0
VERTEX
  8
0
 10
1759.102783203125
 20
760
 42
-0
  0
VERTEX
  8
0
 10
1657.102783203125
 20
760
 42
-0
  0
SEQEND
  0
POLYLINE
  8
0
 10
0
 20
0
 39
0
 70
1
 66
1
  0
VERTEX
  8
0
 10
1695.102783203125
 20
691
 42
-1
  0
VERTEX
  8
0
 10
1721.102783203125
 20
691
 42
-1
  0
SEQEND
  0
POLYLINE
  8
0
 10
0
 20
0
 39
0
 70
1
 66
1
  0
VERTEX
  8
0
 10
668
 20
830
 42
0
  0
VERTEX
  8
0
 10
900
 20
830
 42
0
  0
VERTEX
  8
0
 10
900
 20
950
 42
0
  0
VERTEX
  8
0
 10
668
 20
950
 42
0
  0
SEQEND
  0
POLYLINE
  8
0
 10
0
 20
0
 39
0
 70
1
 66
1
  0
VERTEX
  8
0
 10
707.0137939453125
 20
890
 42
-1
  0
VERTEX
  8
0
 10
727.0137939453125
 20
890
 42
-1
  0
SEQEND
  0
POLYLINE
  8
0
 10
0
 20
0
 39
0
 70
1
 66
1
  0
VERTEX
  8
0
 10
829.18115234375
 20
890
 42
-1
  0
VERTEX
  8
0
 10
849.18115234375
 20
890
 42
-1
  0
SEQEND
  0
POLYLINE
  8
0
 10
0
 20
0
 39
0
 70
1
 66
1
  0
VERTEX
  8
0
 10
1881.102783203125
 20
390
 42
-0
  0
VERTEX
  8
0
 10
1983.1029052734375
 20
390
 42
-0
  0
VERTEX
  8
0
 10
1983.1029052734375
 20
760
 42
-0
  0
VERTEX
  8
0
 10
1881.102783203125
 20
760
 42
-0
  0
SEQEND
  0
POLYLINE
  8
0
 10
0
 20
0
 39
0
 70
1
 66
1
  0
VERTEX
  8
0
 10
1919.1029052734375
 20
691
 42
-1
  0
VERTEX
  8
0
 10
1945.1029052734375
 20
691
 42
-1
  0
SEQEND
  0
POLYLINE
  8
0
 10
0
 20
0
 39
0
 70
1
 66
1
  0
VERTEX
  8
0
 10
600
 20
820
 42
0
  0
VERTEX
  8
0
 10
600
 20
420
 42
0
  0
VERTEX
  8
0
 10
900
 20
420
 42
0
  0
VERTEX
  8
0
 10
900
 20
820
 42
0
  0
SEQEND
  0
POLYLINE
  8
0
 10
0
 20
0
 39
0
 70
1
 66
1
  0
VERTEX
  8
0
 10
670
 20
702
 42
-1
  0
VERTEX
  8
0
 10
670
 20
678
 42
-1
  0
SEQEND
  0
POLYLINE
  8
0
 10
0
 20
0
 39
0
 70
1
 66
1
  0
VERTEX
  8
0
 10
830
 20
702
 42
-1
  0
VERTEX
  8
0
 10
830
 20
678
 42
-1
  0
SEQEND
  0
POLYLINE
  8
0
 10
0
 20
0
 39
0
 70
1
 66
1
  0
VERTEX
  8
0
 10
670
 20
562
 42
-1
  0
VERTEX
  8
0
 10
670
 20
538
 42
-1
  0
SEQEND
  0
POLYLINE
  8
0
 10
0
 20
0
 39
0
 70
1
 66
1
  0
VERTEX
  8
0
 10
830
 20
562
 42
-1
  0
VERTEX
  8
0
 10
830
 20
538
 42
-1
  0
SEQEND
  0
POLYLINE
  8
0
 10
0
 20
0
 39
0
 70
1
 66
1
  0
VERTEX
  8
0
 10
600
 20
410
 42
0
  0
VERTEX
  8
0
 10
600
 20
10
 42
0
  0
VERTEX
  8
0
 10
900
 20
10
 42
0
  0
VERTEX
  8
0
 10
900
 20
410
 42
0
  0
SEQEND
  0
POLYLINE
  8
0
 10
0
 20
0
 39
0
 70
1
 66
1
  0
VERTEX
  8
0
 10
670
 20
292
 42
-1
  0
VERTEX
  8
0
 10
670
 20
268
 42
-1
  0
SEQEND
  0
POLYLINE
  8
0
 10
0
 20
0
 39
0
 70
1
 66
1
  0
VERTEX
  8
0
 10
830
 20
292
 42
-1
  0
VERTEX
  8
0
 10
830
 20
268
 42
-1
  0
SEQEND
  0
POLYLINE
  8
0
 10
0
 20
0
 39
0
 70
1
 66
1
  0
VERTEX
  8
0
 10
670
 20
152
 42
-1
  0
VERTEX
  8
0
 10
670
 20
128
 42
-1
  0
SEQEND
  0
POLYLINE
  8
0
 10
0
 20
0
 39
0
 70
1
 66
1
  0
VERTEX
  8
0
 10
830
 20
152
 42
-1
  0
VERTEX
  8
0
 10
830
 20
128
 42
-1
  0
SEQEND
  0
POLYLINE
  8
0
 10
0
 20
0
 39
0
 70
1
 66
1
  0
VERTEX
  8
0
 10
910
 20
491.5228271484375
 42
-0.36259260773658752
  0
VERTEX
  8
0
 10
991.10284423828125
 20
392.2579345703125
 42
0
  0
VERTEX
  8
0
 10
1269.80029296875
 20
392.807373046875
 42
0.44512951374053955
  0
VERTEX
  8
0
 10
966.10174560546875
 20
764.515869140625
 42
-0
  0
SEQEND
  0
POLYLINE
  8
0
 10
0
 20
0
 39
0
 70
1
 66
1
  0
VERTEX
  8
0
 10
1050.5794677734375
 20
440.8524169921875
 42
0.17192822694778442
  0
VERTEX
  8
0
 10
969.4766845703125
 20
540.1173095703125
 42
0
  0
VERTEX
  8
0
 10
985.24853515625
 20
616.863525390625
 42
-0.22322621941566467
  0
VERTEX
  8
0
 10
1128.929443359375
 20
441.00692749023437
 42
-0
  0
SEQEND
  0
POLYLINE
  8
0
 10
0
 20
0
 39
0
 70
1
 66
1
  0
VERTEX
  8
0
 10
1166.292724609375
 20
541.80035400390625
 42
-1
  0
VERTEX
  8
0
 10
1223.2362060546875
 20
472.10501098632812
 42
-1
  0
SEQEND
  0
POLYLINE
  8
0
 10
0
 20
0
 39
0
 70
1
 66
1
  0
VERTEX
  8
0
 10
1034.5240478515625
 20
703.07708740234375
 42
-1
  0
VERTEX
  8
0
 10
1091.467529296875
 20
633.3817138671875
 42
-1
  0
SEQEND
  0
POLYLINE
  8
0
 10
0
 20
0
 39
0
 70
1
 66
1
  0
VERTEX
  8
0
 10
940
 20
904.515869140625
 42
0
  0
VERTEX
  8
0
 10
1320
 20
904.515869140625
 42
1
  0
VERTEX
  8
0
 10
1320
 20
964.515869140625
 42
0
  0
VERTEX
  8
0
 10
940
 20
964.515869140625
 42
1
  0
SEQEND
  0
POLYLINE
  8
0
 10
0
 20
0
 39
0
 70
1
 66
1
  0
VERTEX
  8
0
 10
940
 20
944.515869140625
 42
0
  0
VERTEX
  8
0
 10
1320
 20
944.515869140625
 42
-1
  0
VERTEX
  8
0
 10
1320
 20
924.515869140625
 42
-0
  0
VERTEX
  8
0
 10
940
 20
924.515869140625
 42
-1
  0
SEQEND
  0
POLYLINE
  8
0
 10
0
 20
0
 39
0
 70
1
 66
1
  0
VERTEX
  8
0
 10
97
 20
840
 42
0
  0
VERTEX
  8
0
 10
174
 20
840
 42
0
  0
VERTEX
  8
0
 10
174
 20
940
 42
0
  0
VERTEX
  8
0
 10
97
 20
940
 42
0
  0
SEQEND
  0
POLYLINE
  8
0
 10
0
 20
0
 39
0
 70
1
 66
1
  0
VERTEX
  8
0
 10
120.5
 20
890
 42
-1
  0
VERTEX
  8
0
 10
150.5
 20
890
 42
-1
  0
SEQEND
  0
POLYLINE
  8
0
 10
0
 20
0
 39
0
 70
1
 66
1
  0
VERTEX
  8
0
 10
1769.102783203125
 20
10
 42
-0
  0
VERTEX
  8
0
 10
1871.102783203125
 20
10
 42
-0
  0
VERTEX
  8
0
 10
1871.102783203125
 20
380
 42
-0
  0
VERTEX
  8
0
 10
1769.102783203125
 20
380
 42
-0
  0
SEQEND
  0
POLYLINE
  8
0
 10
0
 20
0
 39
0
 70
1
 66
1
  0
VERTEX
  8
0
 10
1807.102783203125
 20
311
 42
-1
  0
VERTEX
  8
0
 10
1833.102783203125
 20
311
 42
-1
  0
SEQEND
  0
POLYLINE
  8
0
 10
0
 20
0
 39
0
 70
1
 66
1
  0
VERTEX
  8
0
 10
910
 20
774.515869140625
 42
0
  0
VERTEX
  8
0
 10
1142
 20
774.515869140625
 42
0
  0
VERTEX
  8
0
 10
1142
 20
894.515869140625
 42
0
  0
VERTEX
  8
0
 10
910
 20
894.515869140625
 42
0
  0
SEQEND
  0
POLYLINE
  8
0
 10
0
 20
0
 39
0
 70
1
 66
1
  0
VERTEX
  8
0
 10
949.0137939453125
 20
834.515869140625
 42
-1
  0
VERTEX
  8
0
 10
969.0137939453125
 20
834.515869140625
 42
-1
  0
SEQEND
  0
POLYLINE
  8
0
 10
0
 20
0
 39
0
 70
1
 66
1
  0
VERTEX
  8
0
 10
1071.18115234375
 20
834.515869140625
 42
-1
  0
VERTEX
  8
0
 10
1091.18115234375
 20
834.515869140625
 42
-1
  0
SEQEND
  0
POLYLINE
  8
0
 10
0
 20
0
 39
0
 70
1
 66
1
  0
VERTEX
  8
0
 10
1394
 20
774.515869140625
 42
0
  0
VERTEX
  8
0
 10
1626
 20
774.515869140625
 42
0
  0
VERTEX
  8
0
 10
1626
 20
894.515869140625
 42
0
  0
VERTEX
  8
0
 10
1394
 20
894.515869140625
 42
0
  0
SEQEND
  0
POLYLINE
  8
0
 10
0
 20
0
 39
0
 70
1
 66
1
  0
VERTEX
  8
0
 10
1433.0137939453125
 20
834.515869140625
 42
-1
  0
VERTEX
  8
0
 10
1453.0137939453125
 20
834.515869140625
 42
-1
  0
SEQEND
  0
POLYLINE
  8
0
 10
0
 20
0
 39
0
 70
1
 66
1
  0
VERTEX
  8
0
 10
1555.18115234375
 20
834.515869140625
 42
-1
  0
VERTEX
  8
0
 10
1575.18115234375
 20
834.515869140625
 42
-1
  0
SEQEND
  0
POLYLINE
  8
0
 10
0
 20
0
 39
0
 70
1
 66
1
  0
VERTEX
  8
0
 10
290
 20
410
 42
0
  0
VERTEX
  8
0
 10
290
 20
10
 42
0
  0
VERTEX
  8
0
 10
590
 20
10
 42
0
  0
VERTEX
  8
0
 10
590
 20
410
 42
0
  0
SEQEND
  0
POLYLINE
  8
0
 10
0
 20
0
 39
0
 70
1
 66
1
  0
VERTEX
  8
0
 10
360
 20
292
 42
-1
  0
VERTEX
  8
0
 10
360
 20
268
 42
-1
  0
SEQEND
  0
POLYLINE
  8
0
 10
0
 20
0
 39
0
 70
1
 66
1
  0
VERTEX
  8
0
 10
520
 20
292
 42
-1
  0
VERTEX
  8
0
 10
520
 20
268
 42
-1
  0
SEQEND
  0
POLYLINE
  8
0
 10
0
 20
0
 39
0
 70
1
 66
1
  0
VERTEX
  8
0
 10
360
 20
152
 42
-1
  0
VERTEX
  8
0
 10
360
 20
128
 42
-1
  0
SEQEND
  0
POLYLINE
  8
0
 10
0
 20
0
 39
0
 70
1
 66
1
  0
VERTEX
  8
0
 10
520
 20
152
 42
-1
  0
VERTEX
  8
0
 10
520
 20
128
 42
-1
  0
SEQEND
  0
POLYLINE
  8
0
 10
0
 20
0
 39
0
 70
1
 66
1
  0
VERTEX
  8
0
 10
1657.102783203125
 20
10
 42
-0
  0
VERTEX
  8
0
 10
1759.102783203125
 20
10
 42
-0
  0
VERTEX
  8
0
 10
1759.102783203125
 20
380
 42
-0
  0
VERTEX
  8
0
 10
1657.102783203125
 20
380
 42
-0
  0
SEQEND
  0
POLYLINE
  8
0
 10
0
 20
0
 39
0
 70
1
 66
1
  0
VERTEX
  8
0
 10
1695.102783203125
 20
311
 42
-1
  0
VERTEX
  8
0
 10
1721.102783203125
 20
311
 42
-1
  0
SEQEND
  0
POLYLINE
  8
0
 10
0
 20
0
 39
0
 70
1
 66
1
  0
VERTEX
  8
0
 10
1283.5513916015625
 20
491.5228271484375
 42
-0.36259260773658752
  0
VERTEX
  8
0
 10
1364.654296875
 20
392.2579345703125
 42
0
  0
VERTEX
  8
0
 10
1643.3516845703125
 20
392.807373046875
 42
0.44512951374053955
  0
VERTEX
  8
0
 10
1339.6531982421875
 20
764.515869140625
 42
-0
  0
SEQEND
  0
POLYLINE
  8
0
 10
0
 20
0
 39
0
 70
1
 66
1
  0
VERTEX
  8
0
 10
1424.130859375
 20
440.8524169921875
 42
0.17192822694778442
  0
VERTEX
  8
0
 10
1343.028076171875
 20
540.1173095703125
 42
0
  0
VERTEX
  8
0
 10
1358.7999267578125
 20
616.863525390625
 42
-0.22322621941566467
  0
VERTEX
  8
0
 10
1502.4808349609375
 20
441.00692749023437
 42
-0
  0
SEQEND
  0
POLYLINE
  8
0
 10
0
 20
0
 39
0
 70
1
 66
1
  0
VERTEX
  8
0
 10
1539.8441162109375
 20
541.80035400390625
 42
-1
  0
VERTEX
  8
0
 10
1596.78759765625
 20
472.10501098632812
 42
-1
  0
SEQEND
  0
POLYLINE
  8
0
 10
0
 20
0
 39
0
 70
1
 66
1
  0
VERTEX
  8
0
 10
1408.075439453125
 20
703.07708740234375
 42
-1
  0
VERTEX
  8
0
 10
1465.0189208984375
 20
633.3817138671875
 42
-1
  0
SEQEND
  0
POLYLINE
  8
0
 10
0
 20
0
 39
0
 70
1
 66
1
  0
VERTEX
  8
0
 10
290
 20
820
 42
0
  0
VERTEX
  8
0
 10
290
 20
420
 42
0
  0
VERTEX
  8
0
 10
590
 20
420
 42
0
  0
VERTEX
  8
0
 10
590
 20
820
 42
0
  0
SEQEND
  0
POLYLINE
  8
0
 10
0
 20
0
 39
0
 70
1
 66
1
  0
VERTEX
  8
0
 10
360
 20
702
 42
-1
  0
VERTEX
  8
0
 10
360
 20
678
 42
-1
  0
SEQEND
  0
POLYLINE
  8
0
 10
0
 20
0
 39
0
 70
1
 66
1
  0
VERTEX
  8
0
 10
520
 20
702
 42
-1
  0
VERTEX
  8
0
 10
520
 20
678
 42
-1
  0
SEQEND
  0
POLYLINE
  8
0
 10
0
 20
0
 39
0
 70
1
 66
1
  0
VERTEX
  8
0
 10
360
 20
562
 42
-1
  0
VERTEX
  8
0
 10
360
 20
538
 42
-1
  0
SEQEND
  0
POLYLINE
  8
0
 10
0
 20
0
 39
0
 70
1
 66
1
  0
VERTEX
  8
0
 10
520
 20
562
 42
-1
  0
VERTEX
  8
0
 10
520
 20
538
 42
-1
  0
SEQEND
  0
POLYLINE
  8
0
 10
0
 20
0
 39
0
 70
1
 66
1
  0
VERTEX
  8
0
 10
150
 20
800
 42
0
  0
VERTEX
  8
0
 10
150
 20
420
 42
1
  0
VERTEX
  8
0
 10
210
 20
420
 42
0
  0
VERTEX
  8
0
 10
210
 20
800
 42
1
  0
SEQEND
  0
POLYLINE
  8
0
 10
0
 20
0
 39
0
 70
1
 66
1
  0
VERTEX
  8
0
 10
190
 20
800
 42
0
  0
VERTEX
  8
0
 10
190
 20
420
 42
-1
  0
VERTEX
  8
0
 10
170
 20
420
 42
-0
  0
VERTEX
  8
0
 10
170
 20
800
 42
-1
  0
SEQEND
  0
POLYLINE
  8
0
 10
0
 20
0
 39
0
 70
1
 66
1
  0
VERTEX
  8
0
 10
220
 20
800
 42
0
  0
VERTEX
  8
0
 10
220
 20
420
 42
1
  0
VERTEX
  8
0
 10
280
 20
420
 42
0
  0
VERTEX
  8
0
 10
280
 20
800
 42
1
  0
SEQEND
  0
POLYLINE
  8
0
 10
0
 20
0
 39
0
 70
1
 66
1
  0
VERTEX
  8
0
 10
260
 20
800
 42
0
  0
VERTEX
  8
0
 10
260
 20
420
 42
-1
  0
VERTEX
  8
0
 10
240
 20
420
 42
-0
  0
VERTEX
  8
0
 10
240
 20
800
 42
-1
  0
SEQEND
  0
POLYLINE
  8
0
 10
0
 20
0
 39
0
 70
1
 66
1
  0
VERTEX
  8
0
 10
80
 20
800
 42
0
  0
VERTEX
  8
0
 10
80
 20
420
 42
1
  0
VERTEX
  8
0
 10
140
 20
420
 42
0
  0
VERTEX
  8
0
 10
140
 20
800
 42
1
  0
SEQEND
  0
POLYLINE
  8
0
 10
0
 20
0
 39
0
 70
1
 66
1
  0
VERTEX
  8
0
 10
120
 20
800
 42
0
  0
VERTEX
  8
0
 10
120
 20
420
 42
-1
  0
VERTEX
  8
0
 10
100
 20
420
 42
-0
  0
VERTEX
  8
0
 10
100
 20
800
 42
-1
  0
SEQEND
  0
POLYLINE
  8
0
 10
0
 20
0
 39
0
 70
1
 66
1
  0
VERTEX
  8
0
 10
1897
 20
770
 42
0
  0
VERTEX
  8
0
 10
1974
 20
770
 42
0
  0
VERTEX
  8
0
 10
1974
 20
870
 42
0
  0
VERTEX
  8
0
 10
1897
 20
870
 42
0
  0
SEQEND
  0
POLYLINE
  8
0
 10
0
 20
0
 39
0
 70
1
 66
1
  0
VERTEX
  8
0
 10
1920.5
 20
820
 42
-1
  0
VERTEX
  8
0
 10
1950.5
 20
820
 42
-1
  0
SEQEND
  0
POLYLINE
  8
0
 10
0
 20
0
 39
0
 70
1
 66
1
  0
VERTEX
  8
0
 10
1723
 20
770
 42
0
  0
VERTEX
  8
0
 10
1800
 20
770
 42
0
  0
VERTEX
  8
0
 10
1800
 20
870
 42
0
  0
VERTEX
  8
0
 10
1723
 20
870
 42
0
  0
SEQEND
  0
POLYLINE
  8
0
 10
0
 20
0
 39
0
 70
1
 66
1
  0
VERTEX
  8
0
 10
1746.5
 20
820
 42
-1
  0
VERTEX
  8
0
 10
1776.5
 20
820
 42
-1
  0
SEQEND
  0
POLYLINE
  8
0
 10
0
 20
0
 39
0
 70
1
 66
1
  0
VERTEX
  8
0
 10
1897
 20
880
 42
0
  0
VERTEX
  8
0
 10
1974
 20
880
 42
0
  0
VERTEX
  8
0
 10
1974
 20
980
 42
0
  0
VERTEX
  8
0
 10
1897
 20
980
 42
0
  0
SEQEND
  0
POLYLINE
  8
0
 10
0
 20
0
 39
0
 70
1
 66
1
  0
VERTEX
  8
0
 10
1920.5
 20
930
 42
-1
  0
VERTEX
  8
0
 10
1950.5
 20
930
 42
-1
  0
SEQEND
  0
POLYLINE
  8
0
 10
0
 20
0
 39
0
 70
1
 66
1
  0
VERTEX
  8
0
 10
1810
 20
770
 42
0
  0
VERTEX
  8
0
 10
1887
 20
770
 42
0
  0
VERTEX
  8
0
 10
1887
 20
870
 42
0
  0
VERTEX
  8
0
 10
1810
 20
870
 42
0
  0
SEQEND
  0
POLYLINE
  8
0
 10
0
 20
0
 39
0
 70
1
 66
1
  0
VERTEX
  8
0
 10
1833.5
 20
820
 42
-1
  0
VERTEX
  8
0
 10
1863.5
 20
820
 42
-1
  0
SEQEND
  0
POLYLINE
  8
0
 10
0
 20
0
 39
0
 70
1
 66
1
  0
VERTEX
  8
0
 10
1810
 20
880
 42
0
  0
VERTEX
  8
0
 10
1887
 20
880
 42
0
  0
VERTEX
  8
0
 10
1887
 20
980
 42
0
  0
VERTEX
  8
0
 10
1810
 20
980
 42
0
  0
SEQEND
  0
POLYLINE
  8
0
 10
0
 20
0
 39
0
 70
1
 66
1
  0
VERTEX
  8
0
 10
1833.5
 20
930
 42
-1
  0
VERTEX
  8
0
 10
1863.5
 20
930
 42
-1
  0
SEQEND
  0
POLYLINE
  8
0
 10
0
 20
0
 39
0
 70
1
 66
1
  0
VERTEX
  8
0
 10
1636
 20
774.515869140625
 42
0
  0
VERTEX
  8
0
 10
1713
 20
774.515869140625
 42
0
  0
VERTEX
  8
0
 10
1713
 20
874.515869140625
 42
0
  0
VERTEX
  8
0
 10
1636
 20
874.515869140625
 42
0
  0
SEQEND
  0
POLYLINE
  8
0
 10
0
 20
0
 39
0
 70
1
 66
1
  0
VERTEX
  8
0
 10
1659.5
 20
824.515869140625
 42
-1
  0
VERTEX
  8
0
 10
1689.5
 20
824.515869140625
 42
-1
  0
SEQEND
  0
ENDSEC
  0
EOF
