  0
SECTION
  2
ENTITIES
  0
POLYLINE
  8
0
 10
0
 20
0
 39
0
 70
1
 66
1
  0
VERTEX
  8
0
 10
0
 20
0
 42
-0
  0
VERTEX
  8
0
 10
1700
 20
0
 42
-0
  0
VERTEX
  8
0
 10
1700
 20
1000
 42
-0
  0
VERTEX
  8
0
 10
0
 20
1000
 42
-0
  0
SEQEND
  0
POLYLINE
  8
0
 10
0
 20
0
 39
0
 70
1
 66
1
  0
VERTEX
  8
0
 10
974.00000000003229
 20
620
 42
-0
  0
VERTEX
  8
0
 10
974.00000000003229
 20
365
 42
1
  0
VERTEX
  8
0
 10
1064.0000000000323
 20
365
 42
-0
  0
VERTEX
  8
0
 10
1064.0000000000323
 20
620
 42
-0
  0
SEQEND
  0
POLYLINE
  8
0
 10
0
 20
0
 39
0
 70
1
 66
1
  0
VERTEX
  8
0
 10
1019.0000000000323
 20
395
 42
-1
  0
VERTEX
  8
0
 10
1019.0000000000323
 20
335
 42
-1
  0
SEQEND
  0
POLYLINE
  8
0
 10
0
 20
0
 39
0
 70
1
 66
1
  0
VERTEX
  8
0
 10
1074.0000000000323
 20
930
 42
-0
  0
VERTEX
  8
0
 10
1074.0000000000323
 20
675
 42
1
  0
VERTEX
  8
0
 10
1164.0000000000323
 20
675
 42
-0
  0
VERTEX
  8
0
 10
1164.0000000000323
 20
930
 42
-0
  0
SEQEND
  0
POLYLINE
  8
0
 10
0
 20
0
 39
0
 70
1
 66
1
  0
VERTEX
  8
0
 10
1119.0000000000323
 20
705
 42
-1
  0
VERTEX
  8
0
 10
1119.0000000000323
 20
645
 42
-1
  0
SEQEND
  0
POLYLINE
  8
0
 10
0
 20
0
 39
0
 70
1
 66
1
  0
VERTEX
  8
0
 10
1174.0000000000323
 20
310
 42
-0
  0
VERTEX
  8
0
 10
1174.0000000000323
 20
55
 42
1
  0
VERTEX
  8
0
 10
1264.0000000000323
 20
55
 42
-0
  0
VERTEX
  8
0
 10
1264.0000000000323
 20
310
 42
-0
  0
SEQEND
  0
POLYLINE
  8
0
 10
0
 20
0
 39
0
 70
1
 66
1
  0
VERTEX
  8
0
 10
1219.0000000000323
 20
85
 42
-1
  0
VERTEX
  8
0
 10
1219.0000000000323
 20
25
 42
-1
  0
SEQEND
  0
POLYLINE
  8
0
 10
0
 20
0
 39
0
 70
1
 66
1
  0
VERTEX
  8
0
 10
1074.0000000000323
 20
310
 42
-0
  0
VERTEX
  8
0
 10
1074.0000000000323
 20
55
 42
1
  0
VERTEX
  8
0
 10
1164.0000000000323
 20
55
 42
-0
  0
VERTEX
  8
0
 10
1164.0000000000323
 20
310
 42
-0
  0
SEQEND
  0
POLYLINE
  8
0
 10
0
 20
0
 39
0
 70
1
 66
1
  0
VERTEX
  8
0
 10
1119.0000000000323
 20
85
 42
-1
  0
VERTEX
  8
0
 10
1119.0000000000323
 20
25
 42
-1
  0
SEQEND
  0
POLYLINE
  8
0
 10
0
 20
0
 39
0
 70
1
 66
1
  0
VERTEX
  8
0
 10
974.00000000003229
 20
930
 42
-0
  0
VERTEX
  8
0
 10
974.00000000003229
 20
675
 42
1
  0
VERTEX
  8
0
 10
1064.0000000000323
 20
675
 42
-0
  0
VERTEX
  8
0
 10
1064.0000000000323
 20
930
 42
-0
  0
SEQEND
  0
POLYLINE
  8
0
 10
0
 20
0
 39
0
 70
1
 66
1
  0
VERTEX
  8
0
 10
1019.0000000000323
 20
705
 42
-1
  0
VERTEX
  8
0
 10
1019.0000000000323
 20
645
 42
-1
  0
SEQEND
  0
POLYLINE
  8
0
 10
0
 20
0
 39
0
 70
1
 66
1
  0
VERTEX
  8
0
 10
1584.674087690096
 20
261.09524399506677
 42
0.91633117198944092
  0
VERTEX
  8
0
 10
1626.063491986971
 20
246.66572434174645
 42
0
  0
VERTEX
  8
0
 10
1675.1185609566976
 20
355.71637589203942
 42
0.62152963876724243
  0
VERTEX
  8
0
 10
1600.9655534493734
 20
445.65725857483972
 42
0.65655827522277832
  0
VERTEX
  8
0
 10
1593.8182307946493
 20
405.921534125682
 42
-0.10101121664047241
  0
VERTEX
  8
0
 10
1605.0996286141683
 20
394.57763535248864
 42
0
  0
VERTEX
  8
0
 10
1613.580000089388
 20
399.32104355561364
 42
0
  0
VERTEX
  8
0
 10
1622.1776010262777
 20
365.39345413910974
 42
-0
  0
VERTEX
  8
0
 10
1611.0401155221273
 20
365.54508835541833
 42
-0.017638612538576126
  0
VERTEX
  8
0
 10
1610.4439546334554
 20
362.7874894784652
 42
-0
  0
SEQEND
  0
POLYLINE
  8
0
 10
0
 20
0
 39
0
 70
1
 66
1
  0
VERTEX
  8
0
 10
1606.000000165682
 20
432.24104172455895
 42
-1
  0
VERTEX
  8
0
 10
1606.000000165682
 20
416.24104172455895
 42
-1
  0
SEQEND
  0
POLYLINE
  8
0
 10
0
 20
0
 39
0
 70
1
 66
1
  0
VERTEX
  8
0
 10
1606.000000165682
 20
263.69103867280114
 42
-1
  0
VERTEX
  8
0
 10
1606.000000165682
 20
247.69103867280114
 42
-1
  0
SEQEND
  0
POLYLINE
  8
0
 10
0
 20
0
 39
0
 70
1
 66
1
  0
VERTEX
  8
0
 10
1584.674087690096
 20
37.404207497075362
 42
0.91633117198944092
  0
VERTEX
  8
0
 10
1626.063491986971
 20
22.974687843755049
 42
0
  0
VERTEX
  8
0
 10
1675.1185609566976
 20
132.02533939404802
 42
0.62152963876724243
  0
VERTEX
  8
0
 10
1600.9655534493734
 20
221.96622207684831
 42
0.65655827522277832
  0
VERTEX
  8
0
 10
1593.8182307946493
 20
182.2304976276906
 42
-0.10101121664047241
  0
VERTEX
  8
0
 10
1605.0996286141683
 20
170.88659885449724
 42
0
  0
VERTEX
  8
0
 10
1613.580000089388
 20
175.63000705762224
 42
0
  0
VERTEX
  8
0
 10
1622.1776010262777
 20
141.70241764111833
 42
-0
  0
VERTEX
  8
0
 10
1611.0401155221273
 20
141.85405185742692
 42
-0.017638612538576126
  0
VERTEX
  8
0
 10
1610.4439546334554
 20
139.0964529804738
 42
-0
  0
SEQEND
  0
POLYLINE
  8
0
 10
0
 20
0
 39
0
 70
1
 66
1
  0
VERTEX
  8
0
 10
1606.000000165682
 20
208.55000522656755
 42
-1
  0
VERTEX
  8
0
 10
1606.000000165682
 20
192.55000522656755
 42
-1
  0
SEQEND
  0
POLYLINE
  8
0
 10
0
 20
0
 39
0
 70
1
 66
1
  0
VERTEX
  8
0
 10
1606.000000165682
 20
40.000002174809737
 42
-1
  0
VERTEX
  8
0
 10
1606.000000165682
 20
24.000002174809737
 42
-1
  0
SEQEND
  0
POLYLINE
  8
0
 10
0
 20
0
 39
0
 70
1
 66
1
  0
VERTEX
  8
0
 10
1584.674087690096
 20
708.47731699104952
 42
0.91633117198944092
  0
VERTEX
  8
0
 10
1626.063491986971
 20
694.04779733772921
 42
0
  0
VERTEX
  8
0
 10
1675.1185609566976
 20
803.09844888802218
 42
0.62152963876724243
  0
VERTEX
  8
0
 10
1600.9655534493734
 20
893.03933157082247
 42
0.65655827522277832
  0
VERTEX
  8
0
 10
1593.8182307946493
 20
853.30360712166475
 42
-0.10101121664047241
  0
VERTEX
  8
0
 10
1605.0996286141683
 20
841.95970834847139
 42
0
  0
VERTEX
  8
0
 10
1613.580000089388
 20
846.70311655159639
 42
0
  0
VERTEX
  8
0
 10
1622.1776010262777
 20
812.77552713509249
 42
-0
  0
VERTEX
  8
0
 10
1611.0401155221273
 20
812.92716135140108
 42
-0.017638612538576126
  0
VERTEX
  8
0
 10
1610.4439546334554
 20
810.16956247444796
 42
-0
  0
SEQEND
  0
POLYLINE
  8
0
 10
0
 20
0
 39
0
 70
1
 66
1
  0
VERTEX
  8
0
 10
1606.000000165682
 20
879.62311472054171
 42
-1
  0
VERTEX
  8
0
 10
1606.000000165682
 20
863.62311472054171
 42
-1
  0
SEQEND
  0
POLYLINE
  8
0
 10
0
 20
0
 39
0
 70
1
 66
1
  0
VERTEX
  8
0
 10
1606.000000165682
 20
711.07311166878389
 42
-1
  0
VERTEX
  8
0
 10
1606.000000165682
 20
695.07311166878389
 42
-1
  0
SEQEND
  0
POLYLINE
  8
0
 10
0
 20
0
 39
0
 70
1
 66
1
  0
VERTEX
  8
0
 10
1584.674087690096
 20
484.78628049305814
 42
0.91633117198944092
  0
VERTEX
  8
0
 10
1626.063491986971
 20
470.35676083973783
 42
0
  0
VERTEX
  8
0
 10
1675.1185609566976
 20
579.4074123900308
 42
0.62152963876724243
  0
VERTEX
  8
0
 10
1600.9655534493734
 20
669.34829507283109
 42
0.65655827522277832
  0
VERTEX
  8
0
 10
1593.8182307946493
 20
629.61257062367338
 42
-0.10101121664047241
  0
VERTEX
  8
0
 10
1605.0996286141683
 20
618.26867185048002
 42
0
  0
VERTEX
  8
0
 10
1613.580000089388
 20
623.01208005360502
 42
0
  0
VERTEX
  8
0
 10
1622.1776010262777
 20
589.08449063710111
 42
-0
  0
VERTEX
  8
0
 10
1611.0401155221273
 20
589.23612485340971
 42
-0.017638612538576126
  0
VERTEX
  8
0
 10
1610.4439546334554
 20
586.47852597645658
 42
-0
  0
SEQEND
  0
POLYLINE
  8
0
 10
0
 20
0
 39
0
 70
1
 66
1
  0
VERTEX
  8
0
 10
1606.000000165682
 20
655.93207822255033
 42
-1
  0
VERTEX
  8
0
 10
1606.000000165682
 20
639.93207822255033
 42
-1
  0
SEQEND
  0
POLYLINE
  8
0
 10
0
 20
0
 39
0
 70
1
 66
1
  0
VERTEX
  8
0
 10
1606.000000165682
 20
487.38207517079252
 42
-1
  0
VERTEX
  8
0
 10
1606.000000165682
 20
471.38207517079252
 42
-1
  0
SEQEND
  0
POLYLINE
  8
0
 10
0
 20
0
 39
0
 70
1
 66
1
  0
VERTEX
  8
0
 10
200.56170082093095
 20
668.79680000000008
 42
0
  0
VERTEX
  8
0
 10
327.84049987793776
 20
850.56975684814461
 42
0.15391500294208527
  0
VERTEX
  8
0
 10
332.00000000000807
 20
863.76201759033211
 42
0
  0
VERTEX
  8
0
 10
332.00000000000807
 20
910.4765180175782
 42
0.31529900431632996
  0
VERTEX
  8
0
 10
316.86647033692213
 20
932.08944831542976
 42
0
  0
VERTEX
  8
0
 10
199.52898025513502
 20
974.79680000000008
 42
0
  0
VERTEX
  8
0
 10
176.00000000000807
 20
974.79680000000008
 42
0
  0
VERTEX
  8
0
 10
176.0000000000081
 20
668.79680000000008
 42
0
  0
SEQEND
  0
POLYLINE
  8
0
 10
0
 20
0
 39
0
 70
1
 66
1
  0
VERTEX
  8
0
 10
279.00000000000807
 20
921.29680000000008
 42
-1
  0
VERTEX
  8
0
 10
279.00000000000807
 20
852.29680000000008
 42
-1
  0
SEQEND
  0
POLYLINE
  8
0
 10
0
 20
0
 39
0
 70
1
 66
1
  0
VERTEX
  8
0
 10
307.43829917909324
 20
803.39840000000004
 42
0
  0
VERTEX
  8
0
 10
180.15950012208643
 20
621.62544315185551
 42
0.15391500294208527
  0
VERTEX
  8
0
 10
176.00000000001612
 20
608.43318240966801
 42
0
  0
VERTEX
  8
0
 10
176.00000000001614
 20
561.71868198242191
 42
0.31529900431632996
  0
VERTEX
  8
0
 10
191.13352966310208
 20
540.10575168457035
 42
0
  0
VERTEX
  8
0
 10
308.47101974488919
 20
497.39840000000004
 42
0
  0
VERTEX
  8
0
 10
332.00000000001614
 20
497.39840000000004
 42
0
  0
VERTEX
  8
0
 10
332.00000000001609
 20
803.39840000000004
 42
0
  0
SEQEND
  0
POLYLINE
  8
0
 10
0
 20
0
 39
0
 70
1
 66
1
  0
VERTEX
  8
0
 10
229.00000000001614
 20
550.89840000000004
 42
-1
  0
VERTEX
  8
0
 10
229.00000000001612
 20
619.89840000000004
 42
-1
  0
SEQEND
  0
POLYLINE
  8
0
 10
0
 20
0
 39
0
 70
1
 66
1
  0
VERTEX
  8
0
 10
774.00000000003229
 20
310
 42
-0
  0
VERTEX
  8
0
 10
774.00000000003229
 20
55
 42
1
  0
VERTEX
  8
0
 10
864.00000000003229
 20
55
 42
-0
  0
VERTEX
  8
0
 10
864.00000000003229
 20
310
 42
-0
  0
SEQEND
  0
POLYLINE
  8
0
 10
0
 20
0
 39
0
 70
1
 66
1
  0
VERTEX
  8
0
 10
819.00000000003229
 20
85
 42
-1
  0
VERTEX
  8
0
 10
819.00000000003229
 20
25
 42
-1
  0
SEQEND
  0
POLYLINE
  8
0
 10
0
 20
0
 39
0
 70
1
 66
1
  0
VERTEX
  8
0
 10
974.00000000003229
 20
310
 42
-0
  0
VERTEX
  8
0
 10
974.00000000003229
 20
55
 42
1
  0
VERTEX
  8
0
 10
1064.0000000000323
 20
55
 42
-0
  0
VERTEX
  8
0
 10
1064.0000000000323
 20
310
 42
-0
  0
SEQEND
  0
POLYLINE
  8
0
 10
0
 20
0
 39
0
 70
1
 66
1
  0
VERTEX
  8
0
 10
1019.0000000000323
 20
85
 42
-1
  0
VERTEX
  8
0
 10
1019.0000000000323
 20
25
 42
-1
  0
SEQEND
  0
POLYLINE
  8
0
 10
0
 20
0
 39
0
 70
1
 66
1
  0
VERTEX
  8
0
 10
874.00000000003229
 20
310
 42
-0
  0
VERTEX
  8
0
 10
874.00000000003229
 20
55
 42
1
  0
VERTEX
  8
0
 10
964.00000000003229
 20
55
 42
-0
  0
VERTEX
  8
0
 10
964.00000000003229
 20
310
 42
-0
  0
SEQEND
  0
POLYLINE
  8
0
 10
0
 20
0
 39
0
 70
1
 66
1
  0
VERTEX
  8
0
 10
919.00000000003229
 20
85
 42
-1
  0
VERTEX
  8
0
 10
919.00000000003229
 20
25
 42
-1
  0
SEQEND
  0
POLYLINE
  8
0
 10
0
 20
0
 39
0
 70
1
 66
1
  0
VERTEX
  8
0
 10
34.561700820922866
 20
668.79680000000008
 42
0
  0
VERTEX
  8
0
 10
161.84049987792969
 20
850.56975684814461
 42
0.15391500294208527
  0
VERTEX
  8
0
 10
166
 20
863.76201759033211
 42
0
  0
VERTEX
  8
0
 10
166
 20
910.4765180175782
 42
0.31529900431632996
  0
VERTEX
  8
0
 10
150.86647033691406
 20
932.08944831542976
 42
0
  0
VERTEX
  8
0
 10
33.528980255126953
 20
974.79680000000008
 42
0
  0
VERTEX
  8
0
 10
10
 20
974.79680000000008
 42
0
  0
VERTEX
  8
0
 10
10.000000000000018
 20
668.79680000000008
 42
0
  0
SEQEND
  0
POLYLINE
  8
0
 10
0
 20
0
 39
0
 70
1
 66
1
  0
VERTEX
  8
0
 10
113
 20
921.29680000000008
 42
-1
  0
VERTEX
  8
0
 10
113.00000000000001
 20
852.29680000000008
 42
-1
  0
SEQEND
  0
POLYLINE
  8
0
 10
0
 20
0
 39
0
 70
1
 66
1
  0
VERTEX
  8
0
 10
141.43829917908519
 20
803.39840000000004
 42
0
  0
VERTEX
  8
0
 10
14.159500122078384
 20
621.62544315185551
 42
0.15391500294208527
  0
VERTEX
  8
0
 10
10.000000000008072
 20
608.43318240966801
 42
0
  0
VERTEX
  8
0
 10
10.0000000000081
 20
561.71868198242191
 42
0.31529900431632996
  0
VERTEX
  8
0
 10
25.133529663094038
 20
540.10575168457035
 42
0
  0
VERTEX
  8
0
 10
142.47101974488115
 20
497.39840000000004
 42
0
  0
VERTEX
  8
0
 10
166.0000000000081
 20
497.39840000000004
 42
0
  0
VERTEX
  8
0
 10
166.00000000000804
 20
803.39840000000004
 42
0
  0
SEQEND
  0
POLYLINE
  8
0
 10
0
 20
0
 39
0
 70
1
 66
1
  0
VERTEX
  8
0
 10
63.000000000008086
 20
550.89840000000004
 42
-1
  0
VERTEX
  8
0
 10
63.000000000008072
 20
619.89840000000004
 42
-1
  0
SEQEND
  0
POLYLINE
  8
0
 10
0
 20
0
 39
0
 70
1
 66
1
  0
VERTEX
  8
0
 10
774.00000000003229
 20
930
 42
-0
  0
VERTEX
  8
0
 10
774.00000000003229
 20
675
 42
1
  0
VERTEX
  8
0
 10
864.00000000003229
 20
675
 42
-0
  0
VERTEX
  8
0
 10
864.00000000003229
 20
930
 42
-0
  0
SEQEND
  0
POLYLINE
  8
0
 10
0
 20
0
 39
0
 70
1
 66
1
  0
VERTEX
  8
0
 10
819.00000000003229
 20
705
 42
-1
  0
VERTEX
  8
0
 10
819.00000000003229
 20
645
 42
-1
  0
SEQEND
  0
POLYLINE
  8
0
 10
0
 20
0
 39
0
 70
1
 66
1
  0
VERTEX
  8
0
 10
774.00000000003229
 20
620
 42
-0
  0
VERTEX
  8
0
 10
774.00000000003229
 20
365
 42
1
  0
VERTEX
  8
0
 10
864.00000000003229
 20
365
 42
-0
  0
VERTEX
  8
0
 10
864.00000000003229
 20
620
 42
-0
  0
SEQEND
  0
POLYLINE
  8
0
 10
0
 20
0
 39
0
 70
1
 66
1
  0
VERTEX
  8
0
 10
819.00000000003229
 20
395
 42
-1
  0
VERTEX
  8
0
 10
819.00000000003229
 20
335
 42
-1
  0
SEQEND
  0
POLYLINE
  8
0
 10
0
 20
0
 39
0
 70
1
 66
1
  0
VERTEX
  8
0
 10
34.561700820922866
 20
181.39840000000004
 42
0
  0
VERTEX
  8
0
 10
161.84049987792969
 20
363.17135684814457
 42
0.15391500294208527
  0
VERTEX
  8
0
 10
166
 20
376.36361759033207
 42
0
  0
VERTEX
  8
0
 10
166
 20
423.07811801757816
 42
0.31529900431632996
  0
VERTEX
  8
0
 10
150.86647033691406
 20
444.69104831542973
 42
0
  0
VERTEX
  8
0
 10
33.528980255126953
 20
487.39840000000004
 42
0
  0
VERTEX
  8
0
 10
10
 20
487.39840000000004
 42
0
  0
VERTEX
  8
0
 10
10.000000000000018
 20
181.39840000000004
 42
0
  0
SEQEND
  0
POLYLINE
  8
0
 10
0
 20
0
 39
0
 70
1
 66
1
  0
VERTEX
  8
0
 10
113
 20
433.89840000000004
 42
-1
  0
VERTEX
  8
0
 10
113.00000000000001
 20
364.89840000000004
 42
-1
  0
SEQEND
  0
POLYLINE
  8
0
 10
0
 20
0
 39
0
 70
1
 66
1
  0
VERTEX
  8
0
 10
141.43829917908519
 20
316
 42
0
  0
VERTEX
  8
0
 10
14.159500122078384
 20
134.22704315185544
 42
0.15391500294208527
  0
VERTEX
  8
0
 10
10.000000000008072
 20
121.03478240966794
 42
0
  0
VERTEX
  8
0
 10
10.0000000000081
 20
74.320281982421847
 42
0.31529900431632996
  0
VERTEX
  8
0
 10
25.133529663094038
 20
52.707351684570284
 42
0
  0
VERTEX
  8
0
 10
142.47101974488115
 20
9.9999999999999964
 42
0
  0
VERTEX
  8
0
 10
166.0000000000081
 20
10
 42
0
  0
VERTEX
  8
0
 10
166.00000000000804
 20
316
 42
0
  0
SEQEND
  0
POLYLINE
  8
0
 10
0
 20
0
 39
0
 70
1
 66
1
  0
VERTEX
  8
0
 10
63.000000000008086
 20
63.499999999999979
 42
-1
  0
VERTEX
  8
0
 10
63.000000000008072
 20
132.5
 42
-1
  0
SEQEND
  0
POLYLINE
  8
0
 10
0
 20
0
 39
0
 70
1
 66
1
  0
VERTEX
  8
0
 10
1074.0000000000323
 20
620
 42
-0
  0
VERTEX
  8
0
 10
1074.0000000000323
 20
365
 42
1
  0
VERTEX
  8
0
 10
1164.0000000000323
 20
365
 42
-0
  0
VERTEX
  8
0
 10
1164.0000000000323
 20
620
 42
-0
  0
SEQEND
  0
POLYLINE
  8
0
 10
0
 20
0
 39
0
 70
1
 66
1
  0
VERTEX
  8
0
 10
1119.0000000000323
 20
395
 42
-1
  0
VERTEX
  8
0
 10
1119.0000000000323
 20
335
 42
-1
  0
SEQEND
  0
POLYLINE
  8
0
 10
0
 20
0
 39
0
 70
1
 66
1
  0
VERTEX
  8
0
 10
532.56170082094707
 20
181.39840000000004
 42
0
  0
VERTEX
  8
0
 10
659.8404998779539
 20
363.17135684814457
 42
0.15391500294208527
  0
VERTEX
  8
0
 10
664.00000000002422
 20
376.36361759033207
 42
0
  0
VERTEX
  8
0
 10
664.00000000002422
 20
423.07811801757816
 42
0.31529900431632996
  0
VERTEX
  8
0
 10
648.86647033693828
 20
444.69104831542973
 42
0
  0
VERTEX
  8
0
 10
531.52898025515117
 20
487.39840000000004
 42
0
  0
VERTEX
  8
0
 10
508.00000000002422
 20
487.39840000000004
 42
0
  0
VERTEX
  8
0
 10
508.00000000002422
 20
181.39840000000004
 42
0
  0
SEQEND
  0
POLYLINE
  8
0
 10
0
 20
0
 39
0
 70
1
 66
1
  0
VERTEX
  8
0
 10
611.00000000002422
 20
433.89840000000004
 42
-1
  0
VERTEX
  8
0
 10
611.00000000002422
 20
364.89840000000004
 42
-1
  0
SEQEND
  0
POLYLINE
  8
0
 10
0
 20
0
 39
0
 70
1
 66
1
  0
VERTEX
  8
0
 10
639.43829917910944
 20
316
 42
0
  0
VERTEX
  8
0
 10
512.1595001221026
 20
134.22704315185544
 42
0.15391500294208527
  0
VERTEX
  8
0
 10
508.00000000003229
 20
121.03478240966794
 42
0
  0
VERTEX
  8
0
 10
508.00000000003229
 20
74.320281982421847
 42
0.31529900431632996
  0
VERTEX
  8
0
 10
523.13352966311822
 20
52.707351684570284
 42
0
  0
VERTEX
  8
0
 10
640.47101974490533
 20
9.9999999999999964
 42
0
  0
VERTEX
  8
0
 10
664.00000000003229
 20
10
 42
0
  0
VERTEX
  8
0
 10
664.00000000003229
 20
316
 42
0
  0
SEQEND
  0
POLYLINE
  8
0
 10
0
 20
0
 39
0
 70
1
 66
1
  0
VERTEX
  8
0
 10
561.00000000003229
 20
63.499999999999979
 42
-1
  0
VERTEX
  8
0
 10
561.00000000003229
 20
132.5
 42
-1
  0
SEQEND
  0
POLYLINE
  8
0
 10
0
 20
0
 39
0
 70
1
 66
1
  0
VERTEX
  8
0
 10
366.561700820939
 20
668.79680000000008
 42
0
  0
VERTEX
  8
0
 10
493.84049987794583
 20
850.56975684814461
 42
0.15391500294208527
  0
VERTEX
  8
0
 10
498.00000000001614
 20
863.76201759033211
 42
0
  0
VERTEX
  8
0
 10
498.00000000001614
 20
910.4765180175782
 42
0.31529900431632996
  0
VERTEX
  8
0
 10
482.86647033693021
 20
932.08944831542976
 42
0
  0
VERTEX
  8
0
 10
365.5289802551431
 20
974.79680000000008
 42
0
  0
VERTEX
  8
0
 10
342.00000000001614
 20
974.79680000000008
 42
0
  0
VERTEX
  8
0
 10
342.00000000001614
 20
668.79680000000008
 42
0
  0
SEQEND
  0
POLYLINE
  8
0
 10
0
 20
0
 39
0
 70
1
 66
1
  0
VERTEX
  8
0
 10
445.00000000001614
 20
921.29680000000008
 42
-1
  0
VERTEX
  8
0
 10
445.00000000001614
 20
852.29680000000008
 42
-1
  0
SEQEND
  0
POLYLINE
  8
0
 10
0
 20
0
 39
0
 70
1
 66
1
  0
VERTEX
  8
0
 10
473.43829917910131
 20
803.39840000000004
 42
0
  0
VERTEX
  8
0
 10
346.15950012209453
 20
621.62544315185551
 42
0.15391500294208527
  0
VERTEX
  8
0
 10
342.00000000002422
 20
608.43318240966801
 42
0
  0
VERTEX
  8
0
 10
342.00000000002422
 20
561.71868198242191
 42
0.31529900431632996
  0
VERTEX
  8
0
 10
357.13352966311015
 20
540.10575168457035
 42
0
  0
VERTEX
  8
0
 10
474.47101974489726
 20
497.39840000000004
 42
0
  0
VERTEX
  8
0
 10
498.00000000002422
 20
497.39840000000004
 42
0
  0
VERTEX
  8
0
 10
498.00000000002416
 20
803.39840000000004
 42
0
  0
SEQEND
  0
POLYLINE
  8
0
 10
0
 20
0
 39
0
 70
1
 66
1
  0
VERTEX
  8
0
 10
395.00000000002422
 20
550.89840000000004
 42
-1
  0
VERTEX
  8
0
 10
395.00000000002422
 20
619.89840000000004
 42
-1
  0
SEQEND
  0
POLYLINE
  8
0
 10
0
 20
0
 39
0
 70
1
 66
1
  0
VERTEX
  8
0
 10
874.00000000003229
 20
930
 42
-0
  0
VERTEX
  8
0
 10
874.00000000003229
 20
675
 42
1
  0
VERTEX
  8
0
 10
964.00000000003229
 20
675
 42
-0
  0
VERTEX
  8
0
 10
964.00000000003229
 20
930
 42
-0
  0
SEQEND
  0
POLYLINE
  8
0
 10
0
 20
0
 39
0
 70
1
 66
1
  0
VERTEX
  8
0
 10
919.00000000003229
 20
705
 42
-1
  0
VERTEX
  8
0
 10
919.00000000003229
 20
645
 42
-1
  0
SEQEND
  0
POLYLINE
  8
0
 10
0
 20
0
 39
0
 70
1
 66
1
  0
VERTEX
  8
0
 10
674.00000000003229
 20
930
 42
-0
  0
VERTEX
  8
0
 10
674.00000000003229
 20
675
 42
1
  0
VERTEX
  8
0
 10
764.00000000003229
 20
675
 42
-0
  0
VERTEX
  8
0
 10
764.00000000003229
 20
930
 42
-0
  0
SEQEND
  0
POLYLINE
  8
0
 10
0
 20
0
 39
0
 70
1
 66
1
  0
VERTEX
  8
0
 10
719.00000000003229
 20
705
 42
-1
  0
VERTEX
  8
0
 10
719.00000000003229
 20
645
 42
-1
  0
SEQEND
  0
POLYLINE
  8
0
 10
0
 20
0
 39
0
 70
1
 66
1
  0
VERTEX
  8
0
 10
1174.0000000000323
 20
620
 42
-0
  0
VERTEX
  8
0
 10
1174.0000000000323
 20
365
 42
1
  0
VERTEX
  8
0
 10
1264.0000000000323
 20
365
 42
-0
  0
VERTEX
  8
0
 10
1264.0000000000323
 20
620
 42
-0
  0
SEQEND
  0
POLYLINE
  8
0
 10
0
 20
0
 39
0
 70
1
 66
1
  0
VERTEX
  8
0
 10
1219.0000000000323
 20
395
 42
-1
  0
VERTEX
  8
0
 10
1219.0000000000323
 20
335
 42
-1
  0
SEQEND
  0
POLYLINE
  8
0
 10
0
 20
0
 39
0
 70
1
 66
1
  0
VERTEX
  8
0
 10
674.00000000003229
 20
310
 42
-0
  0
VERTEX
  8
0
 10
674.00000000003229
 20
55
 42
1
  0
VERTEX
  8
0
 10
764.00000000003229
 20
55
 42
-0
  0
VERTEX
  8
0
 10
764.00000000003229
 20
310
 42
-0
  0
SEQEND
  0
POLYLINE
  8
0
 10
0
 20
0
 39
0
 70
1
 66
1
  0
VERTEX
  8
0
 10
719.00000000003229
 20
85
 42
-1
  0
VERTEX
  8
0
 10
719.00000000003229
 20
25
 42
-1
  0
SEQEND
  0
POLYLINE
  8
0
 10
0
 20
0
 39
0
 70
1
 66
1
  0
VERTEX
  8
0
 10
532.56170082094707
 20
668.79680000000008
 42
0
  0
VERTEX
  8
0
 10
659.8404998779539
 20
850.56975684814461
 42
0.15391500294208527
  0
VERTEX
  8
0
 10
664.00000000002422
 20
863.76201759033211
 42
0
  0
VERTEX
  8
0
 10
664.00000000002422
 20
910.4765180175782
 42
0.31529900431632996
  0
VERTEX
  8
0
 10
648.86647033693828
 20
932.08944831542976
 42
0
  0
VERTEX
  8
0
 10
531.52898025515117
 20
974.79680000000008
 42
0
  0
VERTEX
  8
0
 10
508.00000000002422
 20
974.79680000000008
 42
0
  0
VERTEX
  8
0
 10
508.00000000002422
 20
668.79680000000008
 42
0
  0
SEQEND
  0
POLYLINE
  8
0
 10
0
 20
0
 39
0
 70
1
 66
1
  0
VERTEX
  8
0
 10
611.00000000002422
 20
921.29680000000008
 42
-1
  0
VERTEX
  8
0
 10
611.00000000002422
 20
852.29680000000008
 42
-1
  0
SEQEND
  0
POLYLINE
  8
0
 10
0
 20
0
 39
0
 70
1
 66
1
  0
VERTEX
  8
0
 10
639.43829917910944
 20
803.39840000000004
 42
0
  0
VERTEX
  8
0
 10
512.1595001221026
 20
621.62544315185551
 42
0.15391500294208527
  0
VERTEX
  8
0
 10
508.00000000003229
 20
608.43318240966801
 42
0
  0
VERTEX
  8
0
 10
508.00000000003229
 20
561.71868198242191
 42
0.31529900431632996
  0
VERTEX
  8
0
 10
523.13352966311822
 20
540.10575168457035
 42
0
  0
VERTEX
  8
0
 10
640.47101974490533
 20
497.39840000000004
 42
0
  0
VERTEX
  8
0
 10
664.00000000003229
 20
497.39840000000004
 42
0
  0
VERTEX
  8
0
 10
664.00000000003229
 20
803.39840000000004
 42
0
  0
SEQEND
  0
POLYLINE
  8
0
 10
0
 20
0
 39
0
 70
1
 66
1
  0
VERTEX
  8
0
 10
561.00000000003229
 20
550.89840000000004
 42
-1
  0
VERTEX
  8
0
 10
561.00000000003229
 20
619.89840000000004
 42
-1
  0
SEQEND
  0
POLYLINE
  8
0
 10
0
 20
0
 39
0
 70
1
 66
1
  0
VERTEX
  8
0
 10
674.00000000003229
 20
620
 42
-0
  0
VERTEX
  8
0
 10
674.00000000003229
 20
365
 42
1
  0
VERTEX
  8
0
 10
764.00000000003229
 20
365
 42
-0
  0
VERTEX
  8
0
 10
764.00000000003229
 20
620
 42
-0
  0
SEQEND
  0
POLYLINE
  8
0
 10
0
 20
0
 39
0
 70
1
 66
1
  0
VERTEX
  8
0
 10
719.00000000003229
 20
395
 42
-1
  0
VERTEX
  8
0
 10
719.00000000003229
 20
335
 42
-1
  0
SEQEND
  0
POLYLINE
  8
0
 10
0
 20
0
 39
0
 70
1
 66
1
  0
VERTEX
  8
0
 10
874.00000000003229
 20
620
 42
-0
  0
VERTEX
  8
0
 10
874.00000000003229
 20
365
 42
1
  0
VERTEX
  8
0
 10
964.00000000003229
 20
365
 42
-0
  0
VERTEX
  8
0
 10
964.00000000003229
 20
620
 42
-0
  0
SEQEND
  0
POLYLINE
  8
0
 10
0
 20
0
 39
0
 70
1
 66
1
  0
VERTEX
  8
0
 10
919.00000000003229
 20
395
 42
-1
  0
VERTEX
  8
0
 10
919.00000000003229
 20
335
 42
-1
  0
SEQEND
  0
POLYLINE
  8
0
 10
0
 20
0
 39
0
 70
1
 66
1
  0
VERTEX
  8
0
 10
1174.0000000000323
 20
930
 42
-0
  0
VERTEX
  8
0
 10
1174.0000000000323
 20
675
 42
1
  0
VERTEX
  8
0
 10
1264.0000000000323
 20
675
 42
-0
  0
VERTEX
  8
0
 10
1264.0000000000323
 20
930
 42
-0
  0
SEQEND
  0
POLYLINE
  8
0
 10
0
 20
0
 39
0
 70
1
 66
1
  0
VERTEX
  8
0
 10
1219.0000000000323
 20
705
 42
-1
  0
VERTEX
  8
0
 10
1219.0000000000323
 20
645
 42
-1
  0
SEQEND
  0
POLYLINE
  8
0
 10
0
 20
0
 39
0
 70
1
 66
1
  0
VERTEX
  8
0
 10
366.561700820939
 20
181.39840000000004
 42
0
  0
VERTEX
  8
0
 10
493.84049987794583
 20
363.17135684814457
 42
0.15391500294208527
  0
VERTEX
  8
0
 10
498.00000000001614
 20
376.36361759033207
 42
0
  0
VERTEX
  8
0
 10
498.00000000001614
 20
423.07811801757816
 42
0.31529900431632996
  0
VERTEX
  8
0
 10
482.86647033693021
 20
444.69104831542973
 42
0
  0
VERTEX
  8
0
 10
365.5289802551431
 20
487.39840000000004
 42
0
  0
VERTEX
  8
0
 10
342.00000000001614
 20
487.39840000000004
 42
0
  0
VERTEX
  8
0
 10
342.00000000001614
 20
181.39840000000004
 42
0
  0
SEQEND
  0
POLYLINE
  8
0
 10
0
 20
0
 39
0
 70
1
 66
1
  0
VERTEX
  8
0
 10
445.00000000001614
 20
433.89840000000004
 42
-1
  0
VERTEX
  8
0
 10
445.00000000001614
 20
364.89840000000004
 42
-1
  0
SEQEND
  0
POLYLINE
  8
0
 10
0
 20
0
 39
0
 70
1
 66
1
  0
VERTEX
  8
0
 10
473.43829917910131
 20
316
 42
0
  0
VERTEX
  8
0
 10
346.15950012209453
 20
134.22704315185544
 42
0.15391500294208527
  0
VERTEX
  8
0
 10
342.00000000002422
 20
121.03478240966794
 42
0
  0
VERTEX
  8
0
 10
342.00000000002422
 20
74.320281982421847
 42
0.31529900431632996
  0
VERTEX
  8
0
 10
357.13352966311015
 20
52.707351684570284
 42
0
  0
VERTEX
  8
0
 10
474.47101974489726
 20
9.9999999999999964
 42
0
  0
VERTEX
  8
0
 10
498.00000000002422
 20
10
 42
0
  0
VERTEX
  8
0
 10
498.00000000002416
 20
316
 42
0
  0
SEQEND
  0
POLYLINE
  8
0
 10
0
 20
0
 39
0
 70
1
 66
1
  0
VERTEX
  8
0
 10
395.00000000002422
 20
63.499999999999979
 42
-1
  0
VERTEX
  8
0
 10
395.00000000002422
 20
132.5
 42
-1
  0
SEQEND
  0
POLYLINE
  8
0
 10
0
 20
0
 39
0
 70
1
 66
1
  0
VERTEX
  8
0
 10
200.56170082093095
 20
181.39840000000004
 42
0
  0
VERTEX
  8
0
 10
327.84049987793776
 20
363.17135684814457
 42
0.15391500294208527
  0
VERTEX
  8
0
 10
332.00000000000807
 20
376.36361759033207
 42
0
  0
VERTEX
  8
0
 10
332.00000000000807
 20
423.07811801757816
 42
0.31529900431632996
  0
VERTEX
  8
0
 10
316.86647033692213
 20
444.69104831542973
 42
0
  0
VERTEX
  8
0
 10
199.52898025513502
 20
487.39840000000004
 42
0
  0
VERTEX
  8
0
 10
176.00000000000807
 20
487.39840000000004
 42
0
  0
VERTEX
  8
0
 10
176.0000000000081
 20
181.39840000000004
 42
0
  0
SEQEND
  0
POLYLINE
  8
0
 10
0
 20
0
 39
0
 70
1
 66
1
  0
VERTEX
  8
0
 10
279.00000000000807
 20
433.89840000000004
 42
-1
  0
VERTEX
  8
0
 10
279.00000000000807
 20
364.89840000000004
 42
-1
  0
SEQEND
  0
POLYLINE
  8
0
 10
0
 20
0
 39
0
 70
1
 66
1
  0
VERTEX
  8
0
 10
307.43829917909324
 20
316
 42
0
  0
VERTEX
  8
0
 10
180.15950012208643
 20
134.22704315185544
 42
0.15391500294208527
  0
VERTEX
  8
0
 10
176.00000000001612
 20
121.03478240966794
 42
0
  0
VERTEX
  8
0
 10
176.00000000001614
 20
74.320281982421847
 42
0.31529900431632996
  0
VERTEX
  8
0
 10
191.13352966310208
 20
52.707351684570284
 42
0
  0
VERTEX
  8
0
 10
308.47101974488919
 20
9.9999999999999964
 42
0
  0
VERTEX
  8
0
 10
332.00000000001614
 20
10
 42
0
  0
VERTEX
  8
0
 10
332.00000000001609
 20
316
 42
0
  0
SEQEND
  0
POLYLINE
  8
0
 10
0
 20
0
 39
0
 70
1
 66
1
  0
VERTEX
  8
0
 10
229.00000000001614
 20
63.499999999999979
 42
-1
  0
VERTEX
  8
0
 10
229.00000000001612
 20
132.5
 42
-1
  0
SEQEND
  0
POLYLINE
  8
0
 10
0
 20
0
 39
0
 70
1
 66
1
  0
VERTEX
  8
0
 10
1354.0000000000323
 20
10
 42
0
  0
VERTEX
  8
0
 10
1494.0000000000323
 20
10
 42
-0
  0
VERTEX
  8
0
 10
1574.0000000000323
 20
100
 42
0
  0
VERTEX
  8
0
 10
1574.0000000000323
 20
240
 42
-0
  0
VERTEX
  8
0
 10
1494.0000000000323
 20
330
 42
0
  0
VERTEX
  8
0
 10
1354.0000000000323
 20
330
 42
-0
  0
VERTEX
  8
0
 10
1274.0000000000323
 20
240
 42
0
  0
VERTEX
  8
0
 10
1274.0000000000323
 20
100
 42
0
  0
SEQEND
  0
POLYLINE
  8
0
 10
0
 20
0
 39
0
 70
1
 66
1
  0
VERTEX
  8
0
 10
1386.0000000000323
 20
70
 42
-1
  0
VERTEX
  8
0
 10
1462.0000000000323
 20
70
 42
-1
  0
SEQEND
  0
POLYLINE
  8
0
 10
0
 20
0
 39
0
 70
1
 66
1
  0
VERTEX
  8
0
 10
1354.0000000000323
 20
340
 42
0
  0
VERTEX
  8
0
 10
1494.0000000000323
 20
340
 42
-0
  0
VERTEX
  8
0
 10
1574.0000000000323
 20
430
 42
0
  0
VERTEX
  8
0
 10
1574.0000000000323
 20
570
 42
-0
  0
VERTEX
  8
0
 10
1494.0000000000323
 20
660
 42
0
  0
VERTEX
  8
0
 10
1354.0000000000323
 20
660
 42
-0
  0
VERTEX
  8
0
 10
1274.0000000000323
 20
570
 42
0
  0
VERTEX
  8
0
 10
1274.0000000000323
 20
430
 42
0
  0
SEQEND
  0
POLYLINE
  8
0
 10
0
 20
0
 39
0
 70
1
 66
1
  0
VERTEX
  8
0
 10
1386.0000000000323
 20
400
 42
-1
  0
VERTEX
  8
0
 10
1462.0000000000323
 20
400
 42
-1
  0
SEQEND
  0
POLYLINE
  8
0
 10
0
 20
0
 39
0
 70
1
 66
1
  0
VERTEX
  8
0
 10
1354.0000000000323
 20
670
 42
0
  0
VERTEX
  8
0
 10
1494.0000000000323
 20
670
 42
-0
  0
VERTEX
  8
0
 10
1574.0000000000323
 20
760
 42
0
  0
VERTEX
  8
0
 10
1574.0000000000323
 20
900
 42
-0
  0
VERTEX
  8
0
 10
1494.0000000000323
 20
990
 42
0
  0
VERTEX
  8
0
 10
1354.0000000000323
 20
990
 42
-0
  0
VERTEX
  8
0
 10
1274.0000000000323
 20
900
 42
0
  0
VERTEX
  8
0
 10
1274.0000000000323
 20
760
 42
0
  0
SEQEND
  0
POLYLINE
  8
0
 10
0
 20
0
 39
0
 70
1
 66
1
  0
VERTEX
  8
0
 10
1386.0000000000323
 20
730
 42
-1
  0
VERTEX
  8
0
 10
1462.0000000000323
 20
730
 42
-1
  0
SEQEND
  0
ENDSEC
  0
EOF
