  0
SECTION
  2
ENTITIES
  0
POLYLINE
  8
0
 10
0
 20
0
 39
0
 70
1
 66
1
  0
VERTEX
  8
0
 10
0
 20
0
 42
0
  0
VERTEX
  8
0
 10
2400
 20
0
 42
0
  0
VERTEX
  8
0
 10
2400
 20
800
 42
0
  0
VERTEX
  8
0
 10
0
 20
800
 42
0
  0
SEQEND
  0
POLYLINE
  8
0
 10
0
 20
0
 39
0
 70
1
 66
1
  0
VERTEX
  8
0
 10
281.45808866139731
 20
550.2774202766293
 42
-1
  0
VERTEX
  8
0
 10
279.10190173316977
 20
10.282570117937837
 42
-1
  0
SEQEND
  0
POLYLINE
  8
0
 10
0
 20
0
 39
0
 70
1
 66
1
  0
VERTEX
  8
0
 10
404.38211538213721
 20
74.230193761496309
 42
1
  0
VERTEX
  8
0
 10
404.28612258135757
 20
52.230403569845919
 42
1
  0
SEQEND
  0
POLYLINE
  8
0
 10
0
 20
0
 39
0
 70
1
 66
1
  0
VERTEX
  8
0
 10
406.27148362741849
 20
507.23875954313434
 42
1
  0
VERTEX
  8
0
 10
406.17549082663885
 20
485.23896935148395
 42
1
  0
SEQEND
  0
POLYLINE
  8
0
 10
0
 20
0
 39
0
 70
1
 66
1
  0
VERTEX
  8
0
 10
30.330375783464376
 20
292.37071757469556
 42
1
  0
VERTEX
  8
0
 10
30.234382982684735
 20
270.37092738304517
 42
1
  0
SEQEND
  0
POLYLINE
  8
0
 10
0
 20
0
 39
0
 70
1
 66
1
  0
VERTEX
  8
0
 10
777.13808866139732
 20
789.6374202766292
 42
-1
  0
VERTEX
  8
0
 10
774.78190173316978
 20
249.64257011793779
 42
-1
  0
SEQEND
  0
POLYLINE
  8
0
 10
0
 20
0
 39
0
 70
1
 66
1
  0
VERTEX
  8
0
 10
900.06211538213722
 20
313.59019376149627
 42
1
  0
VERTEX
  8
0
 10
899.96612258135758
 20
291.59040356984588
 42
1
  0
SEQEND
  0
POLYLINE
  8
0
 10
0
 20
0
 39
0
 70
1
 66
1
  0
VERTEX
  8
0
 10
901.9514836274185
 20
746.59875954313429
 42
1
  0
VERTEX
  8
0
 10
901.85549082663886
 20
724.5989693514839
 42
1
  0
SEQEND
  0
POLYLINE
  8
0
 10
0
 20
0
 39
0
 70
1
 66
1
  0
VERTEX
  8
0
 10
526.01037578346438
 20
531.73071757469552
 42
1
  0
VERTEX
  8
0
 10
525.91438298268474
 20
509.73092738304513
 42
1
  0
SEQEND
  0
POLYLINE
  8
0
 10
0
 20
0
 39
0
 70
1
 66
1
  0
VERTEX
  8
0
 10
1541.6374202766292
 20
279.10190173316977
 42
-1
  0
VERTEX
  8
0
 10
1001.6425701179378
 20
281.45808866139731
 42
-1
  0
SEQEND
  0
POLYLINE
  8
0
 10
0
 20
0
 39
0
 70
1
 66
1
  0
VERTEX
  8
0
 10
1065.5901937614963
 20
156.17787501242987
 42
1
  0
VERTEX
  8
0
 10
1043.5904035698459
 20
156.27386781320951
 42
1
  0
SEQEND
  0
POLYLINE
  8
0
 10
0
 20
0
 39
0
 70
1
 66
1
  0
VERTEX
  8
0
 10
1498.5987595431343
 20
154.28850676714859
 42
1
  0
VERTEX
  8
0
 10
1476.5989693514839
 20
154.38449956792823
 42
1
  0
SEQEND
  0
POLYLINE
  8
0
 10
0
 20
0
 39
0
 70
1
 66
1
  0
VERTEX
  8
0
 10
1283.7307175746955
 20
530.22961461110276
 42
1
  0
VERTEX
  8
0
 10
1261.7309273830451
 20
530.3256074118824
 42
1
  0
SEQEND
  0
POLYLINE
  8
0
 10
0
 20
0
 39
0
 70
1
 66
1
  0
VERTEX
  8
0
 10
1768.4980886613973
 20
789.6374202766292
 42
-1
  0
VERTEX
  8
0
 10
1766.1419017331698
 20
249.64257011793779
 42
-1
  0
SEQEND
  0
POLYLINE
  8
0
 10
0
 20
0
 39
0
 70
1
 66
1
  0
VERTEX
  8
0
 10
1891.4221153821372
 20
313.59019376149627
 42
1
  0
VERTEX
  8
0
 10
1891.3261225813576
 20
291.59040356984588
 42
1
  0
SEQEND
  0
POLYLINE
  8
0
 10
0
 20
0
 39
0
 70
1
 66
1
  0
VERTEX
  8
0
 10
1893.3114836274185
 20
746.59875954313429
 42
1
  0
VERTEX
  8
0
 10
1893.2154908266389
 20
724.5989693514839
 42
1
  0
SEQEND
  0
POLYLINE
  8
0
 10
0
 20
0
 39
0
 70
1
 66
1
  0
VERTEX
  8
0
 10
1517.3703757834644
 20
531.73071757469552
 42
1
  0
VERTEX
  8
0
 10
1517.2743829826848
 20
509.73092738304513
 42
1
  0
SEQEND
  0
POLYLINE
  8
0
 10
0
 20
0
 39
0
 70
1
 66
1
  0
VERTEX
  8
0
 10
2047.5599999999999
 20
640.41302382354729
 42
-0
  0
VERTEX
  8
0
 10
2290.5498529052734
 20
476.94195448760979
 42
-0.52651196718215942
  0
VERTEX
  8
0
 10
2291.1653619384765
 20
410.98733412628167
 42
0
  0
VERTEX
  8
0
 10
2047.5599999999999
 20
240.41300856475823
 42
-0
  0
SEQEND
  0
POLYLINE
  8
0
 10
0
 20
0
 39
0
 70
1
 66
1
  0
VERTEX
  8
0
 10
2268.0664849853515
 20
424.41300856475823
 42
1
  0
VERTEX
  8
0
 10
2268.0664849853515
 20
464.41302382354729
 42
1
  0
SEQEND
  0
POLYLINE
  8
0
 10
0
 20
0
 39
0
 70
1
 66
1
  0
VERTEX
  8
0
 10
2308.2222977545644
 20
10.279999999999973
 42
-0
  0
VERTEX
  8
0
 10
2065.2324448492909
 20
173.75106933593747
 42
-0.52651196718215942
  0
VERTEX
  8
0
 10
2064.6169358160878
 20
239.70568969726563
 42
0
  0
VERTEX
  8
0
 10
2308.2222977545644
 20
410.28001525878904
 42
-0
  0
SEQEND
  0
POLYLINE
  8
0
 10
0
 20
0
 39
0
 70
1
 66
1
  0
VERTEX
  8
0
 10
2087.7158127692128
 20
226.28001525878906
 42
1
  0
VERTEX
  8
0
 10
2087.7158127692128
 20
186.27999999999997
 42
1
  0
SEQEND
  0
POLYLINE
  8
0
 10
0
 20
0
 39
0
 70
1
 66
1
  0
VERTEX
  8
0
 10
615.88001525878906
 20
789.66229775456418
 42
-0
  0
VERTEX
  8
0
 10
452.40894592285161
 20
546.67244484929074
 42
-0.52651196718215942
  0
VERTEX
  8
0
 10
386.45432556152349
 20
546.05693581608762
 42
0
  0
VERTEX
  8
0
 10
215.88
 20
789.66229775456418
 42
-0
  0
SEQEND
  0
POLYLINE
  8
0
 10
0
 20
0
 39
0
 70
1
 66
1
  0
VERTEX
  8
0
 10
399.88
 20
569.15581276921262
 42
1
  0
VERTEX
  8
0
 10
439.88001525878911
 20
569.15581276921262
 42
1
  0
SEQEND
  0
POLYLINE
  8
0
 10
0
 20
0
 39
0
 70
1
 66
1
  0
VERTEX
  8
0
 10
436.68000000000006
 20
10.280000000000001
 42
-0
  0
VERTEX
  8
0
 10
600.15106933593756
 20
253.26985290527344
 42
-0.52651196718215942
  0
VERTEX
  8
0
 10
666.10568969726569
 20
253.88536193847656
 42
0
  0
VERTEX
  8
0
 10
836.68001525878913
 20
10.280000000000001
 42
-0
  0
SEQEND
  0
POLYLINE
  8
0
 10
0
 20
0
 39
0
 70
1
 66
1
  0
VERTEX
  8
0
 10
652.68001525878913
 20
230.78648498535156
 42
1
  0
VERTEX
  8
0
 10
612.68000000000006
 20
230.78648498535156
 42
1
  0
SEQEND
  0
POLYLINE
  8
0
 10
0
 20
0
 39
0
 70
1
 66
1
  0
VERTEX
  8
0
 10
1329.3200152587892
 20
789.66229775456418
 42
-0
  0
VERTEX
  8
0
 10
1165.8489459228517
 20
546.67244484929074
 42
-0.52651196718215942
  0
VERTEX
  8
0
 10
1099.8943255615236
 20
546.05693581608762
 42
0
  0
VERTEX
  8
0
 10
929.32000000000005
 20
789.66229775456418
 42
-0
  0
SEQEND
  0
POLYLINE
  8
0
 10
0
 20
0
 39
0
 70
1
 66
1
  0
VERTEX
  8
0
 10
1113.3200000000002
 20
569.15581276921262
 42
1
  0
VERTEX
  8
0
 10
1153.3200152587892
 20
569.15581276921262
 42
1
  0
SEQEND
  0
POLYLINE
  8
0
 10
0
 20
0
 39
0
 70
1
 66
1
  0
VERTEX
  8
0
 10
1428.04
 20
10.280000000000001
 42
-0
  0
VERTEX
  8
0
 10
1591.5110693359375
 20
253.26985290527344
 42
-0.52651196718215942
  0
VERTEX
  8
0
 10
1657.4656896972656
 20
253.88536193847656
 42
0
  0
VERTEX
  8
0
 10
1828.040015258789
 20
10.280000000000001
 42
-0
  0
SEQEND
  0
POLYLINE
  8
0
 10
0
 20
0
 39
0
 70
1
 66
1
  0
VERTEX
  8
0
 10
1644.040015258789
 20
230.78648498535156
 42
1
  0
VERTEX
  8
0
 10
1604.04
 20
230.78648498535156
 42
1
  0
SEQEND
  0
POLYLINE
  8
0
 10
0
 20
0
 39
0
 70
1
 66
1
  0
VERTEX
  8
0
 10
165.28
 20
553.96000000000004
 42
-0
  0
VERTEX
  8
0
 10
125.28000000000002
 20
513.96000000000004
 42
-0
  0
VERTEX
  8
0
 10
10.280000000000012
 20
513.96000000000004
 42
-0
  0
VERTEX
  8
0
 10
10.280000000000001
 20
693.96000000000004
 42
-0
  0
VERTEX
  8
0
 10
115.28
 20
693.96000000000004
 42
-0
  0
VERTEX
  8
0
 10
165.28
 20
643.96000000000004
 42
-0
  0
SEQEND
  0
POLYLINE
  8
0
 10
0
 20
0
 39
0
 70
1
 66
1
  0
VERTEX
  8
0
 10
115.28000000000002
 20
568.96000000000004
 42
1
  0
VERTEX
  8
0
 10
115.28000000000002
 20
618.96000000000004
 42
1
  0
SEQEND
  0
POLYLINE
  8
0
 10
0
 20
0
 39
0
 70
1
 66
1
  0
VERTEX
  8
0
 10
777.96000000000004
 20
202.28
 42
-0
  0
VERTEX
  8
0
 10
817.96000000000004
 20
242.28
 42
-0
  0
VERTEX
  8
0
 10
932.96000000000004
 20
242.28000000000003
 42
-0
  0
VERTEX
  8
0
 10
932.96000000000004
 20
62.28000000000003
 42
-0
  0
VERTEX
  8
0
 10
827.96000000000004
 20
62.280000000000001
 42
-0
  0
VERTEX
  8
0
 10
777.96000000000004
 20
112.28
 42
-0
  0
SEQEND
  0
POLYLINE
  8
0
 10
0
 20
0
 39
0
 70
1
 66
1
  0
VERTEX
  8
0
 10
827.96000000000004
 20
187.28
 42
1
  0
VERTEX
  8
0
 10
827.96000000000004
 20
137.28000000000003
 42
1
  0
SEQEND
  0
POLYLINE
  8
0
 10
0
 20
0
 39
0
 70
1
 66
1
  0
VERTEX
  8
0
 10
1278.28
 20
694.91999999999996
 42
-0
  0
VERTEX
  8
0
 10
1318.28
 20
734.91999999999996
 42
-0
  0
VERTEX
  8
0
 10
1433.28
 20
734.91999999999996
 42
-0
  0
VERTEX
  8
0
 10
1433.28
 20
554.91999999999996
 42
-0
  0
VERTEX
  8
0
 10
1328.28
 20
554.91999999999996
 42
-0
  0
VERTEX
  8
0
 10
1278.28
 20
604.91999999999996
 42
-0
  0
SEQEND
  0
POLYLINE
  8
0
 10
0
 20
0
 39
0
 70
1
 66
1
  0
VERTEX
  8
0
 10
1328.28
 20
679.91999999999996
 42
1
  0
VERTEX
  8
0
 10
1328.28
 20
629.91999999999996
 42
1
  0
SEQEND
  0
POLYLINE
  8
0
 10
0
 20
0
 39
0
 70
1
 66
1
  0
VERTEX
  8
0
 10
1769.3199999999999
 20
202.28
 42
-0
  0
VERTEX
  8
0
 10
1809.3199999999999
 20
242.28
 42
-0
  0
VERTEX
  8
0
 10
1924.3199999999999
 20
242.28000000000003
 42
-0
  0
VERTEX
  8
0
 10
1924.3199999999999
 20
62.28000000000003
 42
-0
  0
VERTEX
  8
0
 10
1819.3199999999999
 20
62.280000000000001
 42
-0
  0
VERTEX
  8
0
 10
1769.3199999999999
 20
112.28
 42
-0
  0
SEQEND
  0
POLYLINE
  8
0
 10
0
 20
0
 39
0
 70
1
 66
1
  0
VERTEX
  8
0
 10
1819.3199999999999
 20
187.28
 42
1
  0
VERTEX
  8
0
 10
1819.3199999999999
 20
137.28000000000003
 42
1
  0
SEQEND
  0
POLYLINE
  8
0
 10
0
 20
0
 39
0
 70
1
 66
1
  0
VERTEX
  8
0
 10
2074.9200000000001
 20
634.60000000000002
 42
-0
  0
VERTEX
  8
0
 10
2034.9200000000001
 20
674.60000000000002
 42
-0
  0
VERTEX
  8
0
 10
2034.9200000000001
 20
789.60000000000002
 42
-0
  0
VERTEX
  8
0
 10
2214.9200000000001
 20
789.60000000000002
 42
-0
  0
VERTEX
  8
0
 10
2214.9200000000001
 20
684.60000000000002
 42
-0
  0
VERTEX
  8
0
 10
2164.9200000000001
 20
634.60000000000002
 42
-0
  0
SEQEND
  0
POLYLINE
  8
0
 10
0
 20
0
 39
0
 70
1
 66
1
  0
VERTEX
  8
0
 10
2089.9200000000001
 20
684.60000000000002
 42
1
  0
VERTEX
  8
0
 10
2139.9200000000001
 20
684.60000000000002
 42
1
  0
SEQEND
  0
POLYLINE
  8
0
 10
0
 20
0
 39
0
 70
1
 66
1
  0
VERTEX
  8
0
 10
2201.1599999999999
 20
656.04000000000008
 42
-0
  0
VERTEX
  8
0
 10
2241.1599999999999
 20
696.04000000000008
 42
-0
  0
VERTEX
  8
0
 10
2356.1599999999999
 20
696.04000000000008
 42
-0
  0
VERTEX
  8
0
 10
2356.1599999999999
 20
516.04000000000008
 42
-0
  0
VERTEX
  8
0
 10
2251.1599999999999
 20
516.04000000000008
 42
-0
  0
VERTEX
  8
0
 10
2201.1599999999999
 20
566.04000000000008
 42
-0
  0
SEQEND
  0
POLYLINE
  8
0
 10
0
 20
0
 39
0
 70
1
 66
1
  0
VERTEX
  8
0
 10
2251.1599999999999
 20
641.04000000000008
 42
1
  0
VERTEX
  8
0
 10
2251.1599999999999
 20
591.04000000000008
 42
1
  0
SEQEND
  0
POLYLINE
  8
0
 10
0
 20
0
 39
0
 70
1
 66
1
  0
VERTEX
  8
0
 10
1934.5999999999999
 20
10.280000000000001
 42
-0
  0
VERTEX
  8
0
 10
1934.5999999999999
 20
145.28
 42
0
  0
VERTEX
  8
0
 10
2044.5999999999999
 20
10.280000000000015
 42
0
  0
SEQEND
  0
POLYLINE
  8
0
 10
0
 20
0
 39
0
 70
1
 66
1
  0
VERTEX
  8
0
 10
1969.2019134521483
 20
28.740439682006841
 42
1
  0
VERTEX
  8
0
 10
1969.2019134521483
 20
68.74044158935547
 42
1
  0
SEQEND
  0
POLYLINE
  8
0
 10
0
 20
0
 39
0
 70
1
 66
1
  0
VERTEX
  8
0
 10
2057.6934999999999
 20
145.28
 42
-0
  0
VERTEX
  8
0
 10
2057.6934999999999
 20
10.280000000000001
 42
0
  0
VERTEX
  8
0
 10
1947.6934999999999
 20
145.28
 42
0
  0
SEQEND
  0
POLYLINE
  8
0
 10
0
 20
0
 39
0
 70
1
 66
1
  0
VERTEX
  8
0
 10
2023.0915865478514
 20
126.81956031799317
 42
1
  0
VERTEX
  8
0
 10
2023.0915865478514
 20
86.819558410644532
 42
1
  0
SEQEND
  0
POLYLINE
  8
0
 10
0
 20
0
 39
0
 70
1
 66
1
  0
VERTEX
  8
0
 10
10.280000000000008
 20
10.280000000000001
 42
-0
  0
VERTEX
  8
0
 10
10.279999999999999
 20
145.28
 42
0
  0
VERTEX
  8
0
 10
120.28
 20
10.280000000000015
 42
0
  0
SEQEND
  0
POLYLINE
  8
0
 10
0
 20
0
 39
0
 70
1
 66
1
  0
VERTEX
  8
0
 10
44.881913452148446
 20
28.740439682006841
 42
1
  0
VERTEX
  8
0
 10
44.881913452148439
 20
68.74044158935547
 42
1
  0
SEQEND
  0
POLYLINE
  8
0
 10
0
 20
0
 39
0
 70
1
 66
1
  0
VERTEX
  8
0
 10
169.40000000000001
 20
789.60000000000002
 42
-0
  0
VERTEX
  8
0
 10
169.40000000000003
 20
654.60000000000002
 42
0
  0
VERTEX
  8
0
 10
59.400000000000006
 20
789.60000000000002
 42
0
  0
SEQEND
  0
POLYLINE
  8
0
 10
0
 20
0
 39
0
 70
1
 66
1
  0
VERTEX
  8
0
 10
134.79808654785157
 20
771.13956031799319
 42
1
  0
VERTEX
  8
0
 10
134.7980865478516
 20
731.13955841064455
 42
1
  0
SEQEND
  0
POLYLINE
  8
0
 10
0
 20
0
 39
0
 70
1
 66
1
  0
VERTEX
  8
0
 10
179.72
 20
560.36000000000001
 42
-0
  0
VERTEX
  8
0
 10
179.72
 20
695.36000000000001
 42
0
  0
VERTEX
  8
0
 10
289.72000000000003
 20
560.36000000000001
 42
0
  0
SEQEND
  0
POLYLINE
  8
0
 10
0
 20
0
 39
0
 70
1
 66
1
  0
VERTEX
  8
0
 10
214.32191345214844
 20
578.82043968200685
 42
1
  0
VERTEX
  8
0
 10
214.32191345214844
 20
618.82044158935548
 42
1
  0
SEQEND
  0
POLYLINE
  8
0
 10
0
 20
0
 39
0
 70
1
 66
1
  0
VERTEX
  8
0
 10
1020.64
 20
10.280000000000001
 42
-0
  0
VERTEX
  8
0
 10
885.63999999999999
 20
10.280000000000001
 42
0
  0
VERTEX
  8
0
 10
1020.64
 20
120.28
 42
0
  0
SEQEND
  0
POLYLINE
  8
0
 10
0
 20
0
 39
0
 70
1
 66
1
  0
VERTEX
  8
0
 10
1002.1795603179932
 20
44.881913452148439
 42
1
  0
VERTEX
  8
0
 10
962.17955841064452
 20
44.881913452148439
 42
1
  0
SEQEND
  0
POLYLINE
  8
0
 10
0
 20
0
 39
0
 70
1
 66
1
  0
VERTEX
  8
0
 10
1512.1199999999999
 20
789.60000000000002
 42
-0
  0
VERTEX
  8
0
 10
1512.1199999999999
 20
654.60000000000002
 42
0
  0
VERTEX
  8
0
 10
1402.1199999999999
 20
789.60000000000002
 42
0
  0
SEQEND
  0
POLYLINE
  8
0
 10
0
 20
0
 39
0
 70
1
 66
1
  0
VERTEX
  8
0
 10
1477.5180865478515
 20
771.13956031799319
 42
1
  0
VERTEX
  8
0
 10
1477.5180865478515
 20
731.13955841064455
 42
1
  0
SEQEND
  0
POLYLINE
  8
0
 10
0
 20
0
 39
0
 70
1
 66
1
  0
VERTEX
  8
0
 10
2018.24
 20
252.36000000000001
 42
-0
  0
VERTEX
  8
0
 10
1883.24
 20
252.36000000000001
 42
0
  0
VERTEX
  8
0
 10
2018.24
 20
362.36000000000001
 42
0
  0
SEQEND
  0
POLYLINE
  8
0
 10
0
 20
0
 39
0
 70
1
 66
1
  0
VERTEX
  8
0
 10
1999.7795603179932
 20
286.96191345214845
 42
1
  0
VERTEX
  8
0
 10
1959.7795584106445
 20
286.96191345214845
 42
1
  0
SEQEND
  0
POLYLINE
  8
0
 10
0
 20
0
 39
0
 70
1
 66
1
  0
VERTEX
  8
0
 10
2019.1600000000001
 20
789.60000000000002
 42
-0
  0
VERTEX
  8
0
 10
2019.1600000000001
 20
654.60000000000002
 42
0
  0
VERTEX
  8
0
 10
1909.1600000000001
 20
789.60000000000002
 42
0
  0
SEQEND
  0
POLYLINE
  8
0
 10
0
 20
0
 39
0
 70
1
 66
1
  0
VERTEX
  8
0
 10
1984.5580865478516
 20
771.13956031799319
 42
1
  0
VERTEX
  8
0
 10
1984.5580865478516
 20
731.13955841064455
 42
1
  0
SEQEND
  0
POLYLINE
  8
0
 10
0
 20
0
 39
0
 70
1
 66
1
  0
VERTEX
  8
0
 10
2067.7199999999998
 20
10.280000000000001
 42
-0
  0
VERTEX
  8
0
 10
2067.7199999999998
 20
145.28
 42
0
  0
VERTEX
  8
0
 10
2177.7199999999998
 20
10.280000000000015
 42
0
  0
SEQEND
  0
POLYLINE
  8
0
 10
0
 20
0
 39
0
 70
1
 66
1
  0
VERTEX
  8
0
 10
2102.3219134521482
 20
28.740439682006841
 42
1
  0
VERTEX
  8
0
 10
2102.3219134521482
 20
68.74044158935547
 42
1
  0
SEQEND
  0
POLYLINE
  8
0
 10
0
 20
0
 39
0
 70
1
 66
1
  0
VERTEX
  8
0
 10
943.24000000000001
 20
130.44
 42
-0
  0
VERTEX
  8
0
 10
943.24000000000001
 20
275.44
 42
0
  0
VERTEX
  8
0
 10
1033.24
 20
130.44
 42
0
  0
SEQEND
  0
POLYLINE
  8
0
 10
0
 20
0
 39
0
 70
1
 66
1
  0
VERTEX
  8
0
 10
973.44667839050294
 20
148.70943969726562
 42
1
  0
VERTEX
  8
0
 10
973.44667839050294
 20
180.70943969726562
 42
1
  0
SEQEND
  0
POLYLINE
  8
0
 10
0
 20
0
 39
0
 70
1
 66
1
  0
VERTEX
  8
0
 10
1522.4400000000001
 20
787.79999999999995
 42
-0
  0
VERTEX
  8
0
 10
1667.4400000000001
 20
787.79999999999995
 42
0
  0
VERTEX
  8
0
 10
1522.4400000000001
 20
697.79999999999995
 42
0
  0
SEQEND
  0
POLYLINE
  8
0
 10
0
 20
0
 39
0
 70
1
 66
1
  0
VERTEX
  8
0
 10
1540.7094396972657
 20
757.59332160949702
 42
1
  0
VERTEX
  8
0
 10
1572.7094396972657
 20
757.59332160949702
 42
1
  0
SEQEND
  0
POLYLINE
  8
0
 10
0
 20
0
 39
0
 70
1
 66
1
  0
VERTEX
  8
0
 10
2225.1599999999999
 20
788.44000000000005
 42
-0
  0
VERTEX
  8
0
 10
2370.1599999999999
 20
788.44000000000005
 42
0
  0
VERTEX
  8
0
 10
2225.1599999999999
 20
698.44000000000005
 42
0
  0
SEQEND
  0
POLYLINE
  8
0
 10
0
 20
0
 39
0
 70
1
 66
1
  0
VERTEX
  8
0
 10
2243.4294396972655
 20
758.23332160949712
 42
1
  0
VERTEX
  8
0
 10
2275.4294396972655
 20
758.23332160949712
 42
1
  0
SEQEND
  0
POLYLINE
  8
0
 10
0
 20
0
 39
0
 70
1
 66
1
  0
VERTEX
  8
0
 10
2379
 20
506
 42
-0
  0
VERTEX
  8
0
 10
2379
 20
361
 42
0
  0
VERTEX
  8
0
 10
2289
 20
506
 42
0
  0
SEQEND
  0
POLYLINE
  8
0
 10
0
 20
0
 39
0
 70
1
 66
1
  0
VERTEX
  8
0
 10
2348.7933216094971
 20
487.73056030273437
 42
1
  0
VERTEX
  8
0
 10
2348.7933216094971
 20
455.73056030273437
 42
1
  0
SEQEND
  0
POLYLINE
  8
0
 10
0
 20
0
 39
0
 70
1
 66
1
  0
VERTEX
  8
0
 10
1483.5599999999999
 20
624.78649451255797
 42
-0
  0
VERTEX
  8
0
 10
1483.5599999999999
 20
503.25350024223326
 42
-0.53667503595352173
  0
VERTEX
  8
0
 10
1443.5599999999999
 20
503.25350119590757
 42
-0
  0
VERTEX
  8
0
 10
1443.5600005209274
 20
624.78649451255797
 42
-0.53667503595352173
  0
SEQEND
  0
POLYLINE
  8
0
 10
0
 20
0
 39
0
 70
1
 66
1
  0
VERTEX
  8
0
 10
1463.5599999999999
 20
509.16999938011168
 42
1
  0
VERTEX
  8
0
 10
1463.5599999999999
 20
523.87000014305113
 42
1
  0
SEQEND
  0
POLYLINE
  8
0
 10
0
 20
0
 39
0
 70
1
 66
1
  0
VERTEX
  8
0
 10
1463.5599999999999
 20
604.17000128746031
 42
1
  0
VERTEX
  8
0
 10
1463.5599999999999
 20
618.8699982357025
 42
1
  0
SEQEND
  0
POLYLINE
  8
0
 10
0
 20
0
 39
0
 70
1
 66
1
  0
VERTEX
  8
0
 10
2358.4400000000001
 20
142.54649451255798
 42
-0
  0
VERTEX
  8
0
 10
2358.4400000000001
 20
21.013500242233285
 42
-0.53667503595352173
  0
VERTEX
  8
0
 10
2318.4400000000001
 20
21.013501195907597
 42
-0
  0
VERTEX
  8
0
 10
2318.4400005209277
 20
142.54649451255798
 42
-0.53667503595352173
  0
SEQEND
  0
POLYLINE
  8
0
 10
0
 20
0
 39
0
 70
1
 66
1
  0
VERTEX
  8
0
 10
2338.4400000000001
 20
26.929999380111699
 42
1
  0
VERTEX
  8
0
 10
2338.4400000000001
 20
41.630000143051149
 42
1
  0
SEQEND
  0
POLYLINE
  8
0
 10
0
 20
0
 39
0
 70
1
 66
1
  0
VERTEX
  8
0
 10
2338.4400000000001
 20
121.93000128746033
 42
1
  0
VERTEX
  8
0
 10
2338.4400000000001
 20
136.62999823570252
 42
1
  0
SEQEND
  0
POLYLINE
  8
0
 10
0
 20
0
 39
0
 70
1
 66
1
  0
VERTEX
  8
0
 10
2358.4400000000001
 20
295.66649451255796
 42
-0
  0
VERTEX
  8
0
 10
2358.4400000000001
 20
174.13350024223328
 42
-0.53667503595352173
  0
VERTEX
  8
0
 10
2318.4400000000001
 20
174.1335011959076
 42
-0
  0
VERTEX
  8
0
 10
2318.4400005209277
 20
295.66649451255796
 42
-0.53667503595352173
  0
SEQEND
  0
POLYLINE
  8
0
 10
0
 20
0
 39
0
 70
1
 66
1
  0
VERTEX
  8
0
 10
2338.4400000000001
 20
180.0499993801117
 42
1
  0
VERTEX
  8
0
 10
2338.4400000000001
 20
194.75000014305115
 42
1
  0
SEQEND
  0
POLYLINE
  8
0
 10
0
 20
0
 39
0
 70
1
 66
1
  0
VERTEX
  8
0
 10
2338.4400000000001
 20
275.0500012874603
 42
1
  0
VERTEX
  8
0
 10
2338.4400000000001
 20
289.74999823570249
 42
1
  0
SEQEND
  0
ENDSEC
  0
EOF
