  0
SECTION
  2
ENTITIES
  0
POLYLINE
  8
0
 10
0
 20
0
 39
0
 70
1
 66
1
  0
VERTEX
  8
0
 10
0
 20
0
 42
-0
  0
VERTEX
  8
0
 10
1700
 20
0
 42
-0
  0
VERTEX
  8
0
 10
1700
 20
1000
 42
-0
  0
VERTEX
  8
0
 10
0
 20
1000
 42
-0
  0
SEQEND
  0
POLYLINE
  8
0
 10
0
 20
0
 39
0
 70
1
 66
1
  0
VERTEX
  8
0
 10
974
 20
620
 42
-0
  0
VERTEX
  8
0
 10
974
 20
365
 42
1
  0
VERTEX
  8
0
 10
1064
 20
365
 42
-0
  0
VERTEX
  8
0
 10
1064
 20
620
 42
-0
  0
SEQEND
  0
POLYLINE
  8
0
 10
0
 20
0
 39
0
 70
1
 66
1
  0
VERTEX
  8
0
 10
1019
 20
395
 42
-1
  0
VERTEX
  8
0
 10
1019
 20
335
 42
-1
  0
SEQEND
  0
POLYLINE
  8
0
 10
0
 20
0
 39
0
 70
1
 66
1
  0
VERTEX
  8
0
 10
1074
 20
930
 42
-0
  0
VERTEX
  8
0
 10
1074
 20
675
 42
1
  0
VERTEX
  8
0
 10
1164
 20
675
 42
-0
  0
VERTEX
  8
0
 10
1164
 20
930
 42
-0
  0
SEQEND
  0
POLYLINE
  8
0
 10
0
 20
0
 39
0
 70
1
 66
1
  0
VERTEX
  8
0
 10
1119
 20
705
 42
-1
  0
VERTEX
  8
0
 10
1119
 20
645
 42
-1
  0
SEQEND
  0
POLYLINE
  8
0
 10
0
 20
0
 39
0
 70
1
 66
1
  0
VERTEX
  8
0
 10
1174
 20
310
 42
-0
  0
VERTEX
  8
0
 10
1174
 20
55
 42
1
  0
VERTEX
  8
0
 10
1264
 20
55
 42
-0
  0
VERTEX
  8
0
 10
1264
 20
310
 42
-0
  0
SEQEND
  0
POLYLINE
  8
0
 10
0
 20
0
 39
0
 70
1
 66
1
  0
VERTEX
  8
0
 10
1219
 20
85
 42
-1
  0
VERTEX
  8
0
 10
1219
 20
25
 42
-1
  0
SEQEND
  0
POLYLINE
  8
0
 10
0
 20
0
 39
0
 70
1
 66
1
  0
VERTEX
  8
0
 10
1074
 20
310
 42
-0
  0
VERTEX
  8
0
 10
1074
 20
55
 42
1
  0
VERTEX
  8
0
 10
1164
 20
55
 42
-0
  0
VERTEX
  8
0
 10
1164
 20
310
 42
-0
  0
SEQEND
  0
POLYLINE
  8
0
 10
0
 20
0
 39
0
 70
1
 66
1
  0
VERTEX
  8
0
 10
1119
 20
85
 42
-1
  0
VERTEX
  8
0
 10
1119
 20
25
 42
-1
  0
SEQEND
  0
POLYLINE
  8
0
 10
0
 20
0
 39
0
 70
1
 66
1
  0
VERTEX
  8
0
 10
974
 20
930
 42
-0
  0
VERTEX
  8
0
 10
974
 20
675
 42
1
  0
VERTEX
  8
0
 10
1064
 20
675
 42
-0
  0
VERTEX
  8
0
 10
1064
 20
930
 42
-0
  0
SEQEND
  0
POLYLINE
  8
0
 10
0
 20
0
 39
0
 70
1
 66
1
  0
VERTEX
  8
0
 10
1019
 20
705
 42
-1
  0
VERTEX
  8
0
 10
1019
 20
645
 42
-1
  0
SEQEND
  0
POLYLINE
  8
0
 10
0
 20
0
 39
0
 70
1
 66
1
  0
VERTEX
  8
0
 10
1584.674072265625
 20
261.09524536132812
 42
0.91633117198944092
  0
VERTEX
  8
0
 10
1626.0634765625
 20
246.66572570800781
 42
0
  0
VERTEX
  8
0
 10
1675.1185302734375
 20
355.71636962890625
 42
0.62152963876724243
  0
VERTEX
  8
0
 10
1600.965576171875
 20
445.65725708007813
 42
0.65655827522277832
  0
VERTEX
  8
0
 10
1593.8182373046875
 20
405.92153930664062
 42
-0.10101121664047241
  0
VERTEX
  8
0
 10
1605.099609375
 20
394.57763671875
 42
0
  0
VERTEX
  8
0
 10
1613.5799560546875
 20
399.321044921875
 42
0
  0
VERTEX
  8
0
 10
1622.1776123046875
 20
365.39346313476562
 42
-0
  0
VERTEX
  8
0
 10
1611.0401611328125
 20
365.54507446289062
 42
-0.017638612538576126
  0
VERTEX
  8
0
 10
1610.4439697265625
 20
362.7874755859375
 42
-0
  0
SEQEND
  0
POLYLINE
  8
0
 10
0
 20
0
 39
0
 70
1
 66
1
  0
VERTEX
  8
0
 10
1606
 20
432.24102783203125
 42
-1
  0
VERTEX
  8
0
 10
1606
 20
416.24102783203125
 42
-1
  0
SEQEND
  0
POLYLINE
  8
0
 10
0
 20
0
 39
0
 70
1
 66
1
  0
VERTEX
  8
0
 10
1606
 20
263.6910400390625
 42
-1
  0
VERTEX
  8
0
 10
1606
 20
247.6910400390625
 42
-1
  0
SEQEND
  0
POLYLINE
  8
0
 10
0
 20
0
 39
0
 70
1
 66
1
  0
VERTEX
  8
0
 10
1584.674072265625
 20
37.404209136962891
 42
0.91633117198944092
  0
VERTEX
  8
0
 10
1626.0634765625
 20
22.974687576293945
 42
0
  0
VERTEX
  8
0
 10
1675.1185302734375
 20
132.02534484863281
 42
0.62152963876724243
  0
VERTEX
  8
0
 10
1600.965576171875
 20
221.96621704101563
 42
0.65655827522277832
  0
VERTEX
  8
0
 10
1593.8182373046875
 20
182.23049926757812
 42
-0.10101121664047241
  0
VERTEX
  8
0
 10
1605.099609375
 20
170.8865966796875
 42
0
  0
VERTEX
  8
0
 10
1613.5799560546875
 20
175.6300048828125
 42
0
  0
VERTEX
  8
0
 10
1622.1776123046875
 20
141.70242309570312
 42
-0
  0
VERTEX
  8
0
 10
1611.0401611328125
 20
141.85404968261719
 42
-0.017638612538576126
  0
VERTEX
  8
0
 10
1610.4439697265625
 20
139.09645080566406
 42
-0
  0
SEQEND
  0
POLYLINE
  8
0
 10
0
 20
0
 39
0
 70
1
 66
1
  0
VERTEX
  8
0
 10
1606
 20
208.55000305175781
 42
-1
  0
VERTEX
  8
0
 10
1606
 20
192.55000305175781
 42
-1
  0
SEQEND
  0
POLYLINE
  8
0
 10
0
 20
0
 39
0
 70
1
 66
1
  0
VERTEX
  8
0
 10
1606
 20
40.000003814697266
 42
-1
  0
VERTEX
  8
0
 10
1606
 20
24.000001907348633
 42
-1
  0
SEQEND
  0
POLYLINE
  8
0
 10
0
 20
0
 39
0
 70
1
 66
1
  0
VERTEX
  8
0
 10
1584.674072265625
 20
708.477294921875
 42
0.91633117198944092
  0
VERTEX
  8
0
 10
1626.0634765625
 20
694.04779052734375
 42
0
  0
VERTEX
  8
0
 10
1675.1185302734375
 20
803.09844970703125
 42
0.62152963876724243
  0
VERTEX
  8
0
 10
1600.965576171875
 20
893.039306640625
 42
0.65655827522277832
  0
VERTEX
  8
0
 10
1593.8182373046875
 20
853.3035888671875
 42
-0.10101121664047241
  0
VERTEX
  8
0
 10
1605.099609375
 20
841.959716796875
 42
0
  0
VERTEX
  8
0
 10
1613.5799560546875
 20
846.703125
 42
0
  0
VERTEX
  8
0
 10
1622.1776123046875
 20
812.7755126953125
 42
-0
  0
VERTEX
  8
0
 10
1611.0401611328125
 20
812.92718505859375
 42
-0.017638612538576126
  0
VERTEX
  8
0
 10
1610.4439697265625
 20
810.1695556640625
 42
-0
  0
SEQEND
  0
POLYLINE
  8
0
 10
0
 20
0
 39
0
 70
1
 66
1
  0
VERTEX
  8
0
 10
1606
 20
879.62310791015625
 42
-1
  0
VERTEX
  8
0
 10
1606
 20
863.62310791015625
 42
-1
  0
SEQEND
  0
POLYLINE
  8
0
 10
0
 20
0
 39
0
 70
1
 66
1
  0
VERTEX
  8
0
 10
1606
 20
711.0731201171875
 42
-1
  0
VERTEX
  8
0
 10
1606
 20
695.0731201171875
 42
-1
  0
SEQEND
  0
POLYLINE
  8
0
 10
0
 20
0
 39
0
 70
1
 66
1
  0
VERTEX
  8
0
 10
1584.674072265625
 20
484.78628540039062
 42
0.91633117198944092
  0
VERTEX
  8
0
 10
1626.0634765625
 20
470.35675048828125
 42
0
  0
VERTEX
  8
0
 10
1675.1185302734375
 20
579.40740966796875
 42
0.62152963876724243
  0
VERTEX
  8
0
 10
1600.965576171875
 20
669.3482666015625
 42
0.65655827522277832
  0
VERTEX
  8
0
 10
1593.8182373046875
 20
629.612548828125
 42
-0.10101121664047241
  0
VERTEX
  8
0
 10
1605.099609375
 20
618.2686767578125
 42
0
  0
VERTEX
  8
0
 10
1613.5799560546875
 20
623.0120849609375
 42
0
  0
VERTEX
  8
0
 10
1622.1776123046875
 20
589.08447265625
 42
-0
  0
VERTEX
  8
0
 10
1611.0401611328125
 20
589.23614501953125
 42
-0.017638612538576126
  0
VERTEX
  8
0
 10
1610.4439697265625
 20
586.478515625
 42
-0
  0
SEQEND
  0
POLYLINE
  8
0
 10
0
 20
0
 39
0
 70
1
 66
1
  0
VERTEX
  8
0
 10
1606
 20
655.93206787109375
 42
-1
  0
VERTEX
  8
0
 10
1606
 20
639.93206787109375
 42
-1
  0
SEQEND
  0
POLYLINE
  8
0
 10
0
 20
0
 39
0
 70
1
 66
1
  0
VERTEX
  8
0
 10
1606
 20
487.382080078125
 42
-1
  0
VERTEX
  8
0
 10
1606
 20
471.382080078125
 42
-1
  0
SEQEND
  0
POLYLINE
  8
0
 10
0
 20
0
 39
0
 70
1
 66
1
  0
VERTEX
  8
0
 10
200.56170654296875
 20
668.79681396484375
 42
0
  0
VERTEX
  8
0
 10
327.84051513671875
 20
850.56976318359375
 42
0.15391500294208527
  0
VERTEX
  8
0
 10
332
 20
863.76202392578125
 42
0
  0
VERTEX
  8
0
 10
332
 20
910.47650146484375
 42
0.31529900431632996
  0
VERTEX
  8
0
 10
316.86648559570312
 20
932.0894775390625
 42
0
  0
VERTEX
  8
0
 10
199.52897644042969
 20
974.79681396484375
 42
0
  0
VERTEX
  8
0
 10
176
 20
974.79681396484375
 42
0
  0
VERTEX
  8
0
 10
176
 20
668.79681396484375
 42
0
  0
SEQEND
  0
POLYLINE
  8
0
 10
0
 20
0
 39
0
 70
1
 66
1
  0
VERTEX
  8
0
 10
279
 20
921.29681396484375
 42
-1
  0
VERTEX
  8
0
 10
279
 20
852.29681396484375
 42
-1
  0
SEQEND
  0
POLYLINE
  8
0
 10
0
 20
0
 39
0
 70
1
 66
1
  0
VERTEX
  8
0
 10
307.43829345703125
 20
803.39837646484375
 42
0
  0
VERTEX
  8
0
 10
180.15950012207031
 20
621.62542724609375
 42
0.15391500294208527
  0
VERTEX
  8
0
 10
176
 20
608.43316650390625
 42
0
  0
VERTEX
  8
0
 10
176
 20
561.71868896484375
 42
0.31529900431632996
  0
VERTEX
  8
0
 10
191.13352966308594
 20
540.10577392578125
 42
0
  0
VERTEX
  8
0
 10
308.47100830078125
 20
497.39840698242187
 42
0
  0
VERTEX
  8
0
 10
332
 20
497.39840698242187
 42
0
  0
VERTEX
  8
0
 10
332
 20
803.39837646484375
 42
0
  0
SEQEND
  0
POLYLINE
  8
0
 10
0
 20
0
 39
0
 70
1
 66
1
  0
VERTEX
  8
0
 10
229
 20
550.89837646484375
 42
-1
  0
VERTEX
  8
0
 10
229
 20
619.89837646484375
 42
-1
  0
SEQEND
  0
POLYLINE
  8
0
 10
0
 20
0
 39
0
 70
1
 66
1
  0
VERTEX
  8
0
 10
774
 20
310
 42
-0
  0
VERTEX
  8
0
 10
774
 20
55
 42
1
  0
VERTEX
  8
0
 10
864
 20
55
 42
-0
  0
VERTEX
  8
0
 10
864
 20
310
 42
-0
  0
SEQEND
  0
POLYLINE
  8
0
 10
0
 20
0
 39
0
 70
1
 66
1
  0
VERTEX
  8
0
 10
819
 20
85
 42
-1
  0
VERTEX
  8
0
 10
819
 20
25
 42
-1
  0
SEQEND
  0
POLYLINE
  8
0
 10
0
 20
0
 39
0
 70
1
 66
1
  0
VERTEX
  8
0
 10
974
 20
310
 42
-0
  0
VERTEX
  8
0
 10
974
 20
55
 42
1
  0
VERTEX
  8
0
 10
1064
 20
55
 42
-0
  0
VERTEX
  8
0
 10
1064
 20
310
 42
-0
  0
SEQEND
  0
POLYLINE
  8
0
 10
0
 20
0
 39
0
 70
1
 66
1
  0
VERTEX
  8
0
 10
1019
 20
85
 42
-1
  0
VERTEX
  8
0
 10
1019
 20
25
 42
-1
  0
SEQEND
  0
POLYLINE
  8
0
 10
0
 20
0
 39
0
 70
1
 66
1
  0
VERTEX
  8
0
 10
874
 20
310
 42
-0
  0
VERTEX
  8
0
 10
874
 20
55
 42
1
  0
VERTEX
  8
0
 10
964
 20
55
 42
-0
  0
VERTEX
  8
0
 10
964
 20
310
 42
-0
  0
SEQEND
  0
POLYLINE
  8
0
 10
0
 20
0
 39
0
 70
1
 66
1
  0
VERTEX
  8
0
 10
919
 20
85
 42
-1
  0
VERTEX
  8
0
 10
919
 20
25
 42
-1
  0
SEQEND
  0
POLYLINE
  8
0
 10
0
 20
0
 39
0
 70
1
 66
1
  0
VERTEX
  8
0
 10
34.561702728271484
 20
668.79681396484375
 42
0
  0
VERTEX
  8
0
 10
161.84049987792969
 20
850.56976318359375
 42
0.15391500294208527
  0
VERTEX
  8
0
 10
166
 20
863.76202392578125
 42
0
  0
VERTEX
  8
0
 10
166
 20
910.47650146484375
 42
0.31529900431632996
  0
VERTEX
  8
0
 10
150.86647033691406
 20
932.0894775390625
 42
0
  0
VERTEX
  8
0
 10
33.528980255126953
 20
974.79681396484375
 42
0
  0
VERTEX
  8
0
 10
10
 20
974.79681396484375
 42
0
  0
VERTEX
  8
0
 10
10
 20
668.79681396484375
 42
0
  0
SEQEND
  0
POLYLINE
  8
0
 10
0
 20
0
 39
0
 70
1
 66
1
  0
VERTEX
  8
0
 10
113
 20
921.29681396484375
 42
-1
  0
VERTEX
  8
0
 10
113
 20
852.29681396484375
 42
-1
  0
SEQEND
  0
POLYLINE
  8
0
 10
0
 20
0
 39
0
 70
1
 66
1
  0
VERTEX
  8
0
 10
141.43829345703125
 20
803.39837646484375
 42
0
  0
VERTEX
  8
0
 10
14.159500122070313
 20
621.62542724609375
 42
0.15391500294208527
  0
VERTEX
  8
0
 10
10
 20
608.43316650390625
 42
0
  0
VERTEX
  8
0
 10
10
 20
561.71868896484375
 42
0.31529900431632996
  0
VERTEX
  8
0
 10
25.133529663085937
 20
540.10577392578125
 42
0
  0
VERTEX
  8
0
 10
142.47102355957031
 20
497.39840698242187
 42
0
  0
VERTEX
  8
0
 10
166
 20
497.39840698242187
 42
0
  0
VERTEX
  8
0
 10
166
 20
803.39837646484375
 42
0
  0
SEQEND
  0
POLYLINE
  8
0
 10
0
 20
0
 39
0
 70
1
 66
1
  0
VERTEX
  8
0
 10
63
 20
550.89837646484375
 42
-1
  0
VERTEX
  8
0
 10
63
 20
619.89837646484375
 42
-1
  0
SEQEND
  0
POLYLINE
  8
0
 10
0
 20
0
 39
0
 70
1
 66
1
  0
VERTEX
  8
0
 10
774
 20
930
 42
-0
  0
VERTEX
  8
0
 10
774
 20
675
 42
1
  0
VERTEX
  8
0
 10
864
 20
675
 42
-0
  0
VERTEX
  8
0
 10
864
 20
930
 42
-0
  0
SEQEND
  0
POLYLINE
  8
0
 10
0
 20
0
 39
0
 70
1
 66
1
  0
VERTEX
  8
0
 10
819
 20
705
 42
-1
  0
VERTEX
  8
0
 10
819
 20
645
 42
-1
  0
SEQEND
  0
POLYLINE
  8
0
 10
0
 20
0
 39
0
 70
1
 66
1
  0
VERTEX
  8
0
 10
774
 20
620
 42
-0
  0
VERTEX
  8
0
 10
774
 20
365
 42
1
  0
VERTEX
  8
0
 10
864
 20
365
 42
-0
  0
VERTEX
  8
0
 10
864
 20
620
 42
-0
  0
SEQEND
  0
POLYLINE
  8
0
 10
0
 20
0
 39
0
 70
1
 66
1
  0
VERTEX
  8
0
 10
819
 20
395
 42
-1
  0
VERTEX
  8
0
 10
819
 20
335
 42
-1
  0
SEQEND
  0
POLYLINE
  8
0
 10
0
 20
0
 39
0
 70
1
 66
1
  0
VERTEX
  8
0
 10
34.561702728271484
 20
181.39840698242187
 42
0
  0
VERTEX
  8
0
 10
161.84049987792969
 20
363.17135620117187
 42
0.15391500294208527
  0
VERTEX
  8
0
 10
166
 20
376.36361694335937
 42
0
  0
VERTEX
  8
0
 10
166
 20
423.078125
 42
0.31529900431632996
  0
VERTEX
  8
0
 10
150.86647033691406
 20
444.6910400390625
 42
0
  0
VERTEX
  8
0
 10
33.528980255126953
 20
487.39840698242187
 42
0
  0
VERTEX
  8
0
 10
10
 20
487.39840698242187
 42
0
  0
VERTEX
  8
0
 10
10
 20
181.39840698242187
 42
0
  0
SEQEND
  0
POLYLINE
  8
0
 10
0
 20
0
 39
0
 70
1
 66
1
  0
VERTEX
  8
0
 10
113
 20
433.89840698242187
 42
-1
  0
VERTEX
  8
0
 10
113
 20
364.89840698242187
 42
-1
  0
SEQEND
  0
POLYLINE
  8
0
 10
0
 20
0
 39
0
 70
1
 66
1
  0
VERTEX
  8
0
 10
141.43829345703125
 20
316
 42
0
  0
VERTEX
  8
0
 10
14.159500122070313
 20
134.22703552246094
 42
0.15391500294208527
  0
VERTEX
  8
0
 10
10
 20
121.03478240966797
 42
0
  0
VERTEX
  8
0
 10
10
 20
74.320281982421875
 42
0.31529900431632996
  0
VERTEX
  8
0
 10
25.133529663085937
 20
52.707351684570313
 42
0
  0
VERTEX
  8
0
 10
142.47102355957031
 20
10
 42
0
  0
VERTEX
  8
0
 10
166
 20
10
 42
0
  0
VERTEX
  8
0
 10
166
 20
316
 42
0
  0
SEQEND
  0
POLYLINE
  8
0
 10
0
 20
0
 39
0
 70
1
 66
1
  0
VERTEX
  8
0
 10
63
 20
63.5
 42
-1
  0
VERTEX
  8
0
 10
63
 20
132.5
 42
-1
  0
SEQEND
  0
POLYLINE
  8
0
 10
0
 20
0
 39
0
 70
1
 66
1
  0
VERTEX
  8
0
 10
1074
 20
620
 42
-0
  0
VERTEX
  8
0
 10
1074
 20
365
 42
1
  0
VERTEX
  8
0
 10
1164
 20
365
 42
-0
  0
VERTEX
  8
0
 10
1164
 20
620
 42
-0
  0
SEQEND
  0
POLYLINE
  8
0
 10
0
 20
0
 39
0
 70
1
 66
1
  0
VERTEX
  8
0
 10
1119
 20
395
 42
-1
  0
VERTEX
  8
0
 10
1119
 20
335
 42
-1
  0
SEQEND
  0
POLYLINE
  8
0
 10
0
 20
0
 39
0
 70
1
 66
1
  0
VERTEX
  8
0
 10
532.56170654296875
 20
181.39840698242187
 42
0
  0
VERTEX
  8
0
 10
659.84051513671875
 20
363.17135620117187
 42
0.15391500294208527
  0
VERTEX
  8
0
 10
664
 20
376.36361694335937
 42
0
  0
VERTEX
  8
0
 10
664
 20
423.078125
 42
0.31529900431632996
  0
VERTEX
  8
0
 10
648.866455078125
 20
444.6910400390625
 42
0
  0
VERTEX
  8
0
 10
531.52899169921875
 20
487.39840698242187
 42
0
  0
VERTEX
  8
0
 10
508
 20
487.39840698242187
 42
0
  0
VERTEX
  8
0
 10
508
 20
181.39840698242187
 42
0
  0
SEQEND
  0
POLYLINE
  8
0
 10
0
 20
0
 39
0
 70
1
 66
1
  0
VERTEX
  8
0
 10
611
 20
433.89840698242187
 42
-1
  0
VERTEX
  8
0
 10
611
 20
364.89840698242187
 42
-1
  0
SEQEND
  0
POLYLINE
  8
0
 10
0
 20
0
 39
0
 70
1
 66
1
  0
VERTEX
  8
0
 10
639.43829345703125
 20
316
 42
0
  0
VERTEX
  8
0
 10
512.15948486328125
 20
134.22703552246094
 42
0.15391500294208527
  0
VERTEX
  8
0
 10
508
 20
121.03478240966797
 42
0
  0
VERTEX
  8
0
 10
508
 20
74.320281982421875
 42
0.31529900431632996
  0
VERTEX
  8
0
 10
523.133544921875
 20
52.707351684570313
 42
0
  0
VERTEX
  8
0
 10
640.47100830078125
 20
10
 42
0
  0
VERTEX
  8
0
 10
664
 20
10
 42
0
  0
VERTEX
  8
0
 10
664
 20
316
 42
0
  0
SEQEND
  0
POLYLINE
  8
0
 10
0
 20
0
 39
0
 70
1
 66
1
  0
VERTEX
  8
0
 10
561
 20
63.5
 42
-1
  0
VERTEX
  8
0
 10
561
 20
132.5
 42
-1
  0
SEQEND
  0
POLYLINE
  8
0
 10
0
 20
0
 39
0
 70
1
 66
1
  0
VERTEX
  8
0
 10
366.56170654296875
 20
668.79681396484375
 42
0
  0
VERTEX
  8
0
 10
493.84051513671875
 20
850.56976318359375
 42
0.15391500294208527
  0
VERTEX
  8
0
 10
498
 20
863.76202392578125
 42
0
  0
VERTEX
  8
0
 10
498
 20
910.47650146484375
 42
0.31529900431632996
  0
VERTEX
  8
0
 10
482.86648559570312
 20
932.0894775390625
 42
0
  0
VERTEX
  8
0
 10
365.52899169921875
 20
974.79681396484375
 42
0
  0
VERTEX
  8
0
 10
342
 20
974.79681396484375
 42
0
  0
VERTEX
  8
0
 10
342
 20
668.79681396484375
 42
0
  0
SEQEND
  0
POLYLINE
  8
0
 10
0
 20
0
 39
0
 70
1
 66
1
  0
VERTEX
  8
0
 10
445
 20
921.29681396484375
 42
-1
  0
VERTEX
  8
0
 10
445
 20
852.29681396484375
 42
-1
  0
SEQEND
  0
POLYLINE
  8
0
 10
0
 20
0
 39
0
 70
1
 66
1
  0
VERTEX
  8
0
 10
473.43829345703125
 20
803.39837646484375
 42
0
  0
VERTEX
  8
0
 10
346.15951538085937
 20
621.62542724609375
 42
0.15391500294208527
  0
VERTEX
  8
0
 10
342
 20
608.43316650390625
 42
0
  0
VERTEX
  8
0
 10
342
 20
561.71868896484375
 42
0.31529900431632996
  0
VERTEX
  8
0
 10
357.133544921875
 20
540.10577392578125
 42
0
  0
VERTEX
  8
0
 10
474.47100830078125
 20
497.39840698242187
 42
0
  0
VERTEX
  8
0
 10
498
 20
497.39840698242187
 42
0
  0
VERTEX
  8
0
 10
498
 20
803.39837646484375
 42
0
  0
SEQEND
  0
POLYLINE
  8
0
 10
0
 20
0
 39
0
 70
1
 66
1
  0
VERTEX
  8
0
 10
395
 20
550.89837646484375
 42
-1
  0
VERTEX
  8
0
 10
395
 20
619.89837646484375
 42
-1
  0
SEQEND
  0
POLYLINE
  8
0
 10
0
 20
0
 39
0
 70
1
 66
1
  0
VERTEX
  8
0
 10
874
 20
930
 42
-0
  0
VERTEX
  8
0
 10
874
 20
675
 42
1
  0
VERTEX
  8
0
 10
964
 20
675
 42
-0
  0
VERTEX
  8
0
 10
964
 20
930
 42
-0
  0
SEQEND
  0
POLYLINE
  8
0
 10
0
 20
0
 39
0
 70
1
 66
1
  0
VERTEX
  8
0
 10
919
 20
705
 42
-1
  0
VERTEX
  8
0
 10
919
 20
645
 42
-1
  0
SEQEND
  0
POLYLINE
  8
0
 10
0
 20
0
 39
0
 70
1
 66
1
  0
VERTEX
  8
0
 10
674
 20
930
 42
-0
  0
VERTEX
  8
0
 10
674
 20
675
 42
1
  0
VERTEX
  8
0
 10
764
 20
675
 42
-0
  0
VERTEX
  8
0
 10
764
 20
930
 42
-0
  0
SEQEND
  0
POLYLINE
  8
0
 10
0
 20
0
 39
0
 70
1
 66
1
  0
VERTEX
  8
0
 10
719
 20
705
 42
-1
  0
VERTEX
  8
0
 10
719
 20
645
 42
-1
  0
SEQEND
  0
POLYLINE
  8
0
 10
0
 20
0
 39
0
 70
1
 66
1
  0
VERTEX
  8
0
 10
1174
 20
620
 42
-0
  0
VERTEX
  8
0
 10
1174
 20
365
 42
1
  0
VERTEX
  8
0
 10
1264
 20
365
 42
-0
  0
VERTEX
  8
0
 10
1264
 20
620
 42
-0
  0
SEQEND
  0
POLYLINE
  8
0
 10
0
 20
0
 39
0
 70
1
 66
1
  0
VERTEX
  8
0
 10
1219
 20
395
 42
-1
  0
VERTEX
  8
0
 10
1219
 20
335
 42
-1
  0
SEQEND
  0
POLYLINE
  8
0
 10
0
 20
0
 39
0
 70
1
 66
1
  0
VERTEX
  8
0
 10
674
 20
310
 42
-0
  0
VERTEX
  8
0
 10
674
 20
55
 42
1
  0
VERTEX
  8
0
 10
764
 20
55
 42
-0
  0
VERTEX
  8
0
 10
764
 20
310
 42
-0
  0
SEQEND
  0
POLYLINE
  8
0
 10
0
 20
0
 39
0
 70
1
 66
1
  0
VERTEX
  8
0
 10
719
 20
85
 42
-1
  0
VERTEX
  8
0
 10
719
 20
25
 42
-1
  0
SEQEND
  0
POLYLINE
  8
0
 10
0
 20
0
 39
0
 70
1
 66
1
  0
VERTEX
  8
0
 10
532.56170654296875
 20
668.79681396484375
 42
0
  0
VERTEX
  8
0
 10
659.84051513671875
 20
850.56976318359375
 42
0.15391500294208527
  0
VERTEX
  8
0
 10
664
 20
863.76202392578125
 42
0
  0
VERTEX
  8
0
 10
664
 20
910.47650146484375
 42
0.31529900431632996
  0
VERTEX
  8
0
 10
648.866455078125
 20
932.0894775390625
 42
0
  0
VERTEX
  8
0
 10
531.52899169921875
 20
974.79681396484375
 42
0
  0
VERTEX
  8
0
 10
508
 20
974.79681396484375
 42
0
  0
VERTEX
  8
0
 10
508
 20
668.79681396484375
 42
0
  0
SEQEND
  0
POLYLINE
  8
0
 10
0
 20
0
 39
0
 70
1
 66
1
  0
VERTEX
  8
0
 10
611
 20
921.29681396484375
 42
-1
  0
VERTEX
  8
0
 10
611
 20
852.29681396484375
 42
-1
  0
SEQEND
  0
POLYLINE
  8
0
 10
0
 20
0
 39
0
 70
1
 66
1
  0
VERTEX
  8
0
 10
639.43829345703125
 20
803.39837646484375
 42
0
  0
VERTEX
  8
0
 10
512.15948486328125
 20
621.62542724609375
 42
0.15391500294208527
  0
VERTEX
  8
0
 10
508
 20
608.43316650390625
 42
0
  0
VERTEX
  8
0
 10
508
 20
561.71868896484375
 42
0.31529900431632996
  0
VERTEX
  8
0
 10
523.133544921875
 20
540.10577392578125
 42
0
  0
VERTEX
  8
0
 10
640.47100830078125
 20
497.39840698242187
 42
0
  0
VERTEX
  8
0
 10
664
 20
497.39840698242187
 42
0
  0
VERTEX
  8
0
 10
664
 20
803.39837646484375
 42
0
  0
SEQEND
  0
POLYLINE
  8
0
 10
0
 20
0
 39
0
 70
1
 66
1
  0
VERTEX
  8
0
 10
561
 20
550.89837646484375
 42
-1
  0
VERTEX
  8
0
 10
561
 20
619.89837646484375
 42
-1
  0
SEQEND
  0
POLYLINE
  8
0
 10
0
 20
0
 39
0
 70
1
 66
1
  0
VERTEX
  8
0
 10
674
 20
620
 42
-0
  0
VERTEX
  8
0
 10
674
 20
365
 42
1
  0
VERTEX
  8
0
 10
764
 20
365
 42
-0
  0
VERTEX
  8
0
 10
764
 20
620
 42
-0
  0
SEQEND
  0
POLYLINE
  8
0
 10
0
 20
0
 39
0
 70
1
 66
1
  0
VERTEX
  8
0
 10
719
 20
395
 42
-1
  0
VERTEX
  8
0
 10
719
 20
335
 42
-1
  0
SEQEND
  0
POLYLINE
  8
0
 10
0
 20
0
 39
0
 70
1
 66
1
  0
VERTEX
  8
0
 10
874
 20
620
 42
-0
  0
VERTEX
  8
0
 10
874
 20
365
 42
1
  0
VERTEX
  8
0
 10
964
 20
365
 42
-0
  0
VERTEX
  8
0
 10
964
 20
620
 42
-0
  0
SEQEND
  0
POLYLINE
  8
0
 10
0
 20
0
 39
0
 70
1
 66
1
  0
VERTEX
  8
0
 10
919
 20
395
 42
-1
  0
VERTEX
  8
0
 10
919
 20
335
 42
-1
  0
SEQEND
  0
POLYLINE
  8
0
 10
0
 20
0
 39
0
 70
1
 66
1
  0
VERTEX
  8
0
 10
1174
 20
930
 42
-0
  0
VERTEX
  8
0
 10
1174
 20
675
 42
1
  0
VERTEX
  8
0
 10
1264
 20
675
 42
-0
  0
VERTEX
  8
0
 10
1264
 20
930
 42
-0
  0
SEQEND
  0
POLYLINE
  8
0
 10
0
 20
0
 39
0
 70
1
 66
1
  0
VERTEX
  8
0
 10
1219
 20
705
 42
-1
  0
VERTEX
  8
0
 10
1219
 20
645
 42
-1
  0
SEQEND
  0
POLYLINE
  8
0
 10
0
 20
0
 39
0
 70
1
 66
1
  0
VERTEX
  8
0
 10
366.56170654296875
 20
181.39840698242187
 42
0
  0
VERTEX
  8
0
 10
493.84051513671875
 20
363.17135620117187
 42
0.15391500294208527
  0
VERTEX
  8
0
 10
498
 20
376.36361694335937
 42
0
  0
VERTEX
  8
0
 10
498
 20
423.078125
 42
0.31529900431632996
  0
VERTEX
  8
0
 10
482.86648559570312
 20
444.6910400390625
 42
0
  0
VERTEX
  8
0
 10
365.52899169921875
 20
487.39840698242187
 42
0
  0
VERTEX
  8
0
 10
342
 20
487.39840698242187
 42
0
  0
VERTEX
  8
0
 10
342
 20
181.39840698242187
 42
0
  0
SEQEND
  0
POLYLINE
  8
0
 10
0
 20
0
 39
0
 70
1
 66
1
  0
VERTEX
  8
0
 10
445
 20
433.89840698242187
 42
-1
  0
VERTEX
  8
0
 10
445
 20
364.89840698242187
 42
-1
  0
SEQEND
  0
POLYLINE
  8
0
 10
0
 20
0
 39
0
 70
1
 66
1
  0
VERTEX
  8
0
 10
473.43829345703125
 20
316
 42
0
  0
VERTEX
  8
0
 10
346.15951538085937
 20
134.22703552246094
 42
0.15391500294208527
  0
VERTEX
  8
0
 10
342
 20
121.03478240966797
 42
0
  0
VERTEX
  8
0
 10
342
 20
74.320281982421875
 42
0.31529900431632996
  0
VERTEX
  8
0
 10
357.133544921875
 20
52.707351684570313
 42
0
  0
VERTEX
  8
0
 10
474.47100830078125
 20
10
 42
0
  0
VERTEX
  8
0
 10
498
 20
10
 42
0
  0
VERTEX
  8
0
 10
498
 20
316
 42
0
  0
SEQEND
  0
POLYLINE
  8
0
 10
0
 20
0
 39
0
 70
1
 66
1
  0
VERTEX
  8
0
 10
395
 20
63.5
 42
-1
  0
VERTEX
  8
0
 10
395
 20
132.5
 42
-1
  0
SEQEND
  0
POLYLINE
  8
0
 10
0
 20
0
 39
0
 70
1
 66
1
  0
VERTEX
  8
0
 10
200.56170654296875
 20
181.39840698242187
 42
0
  0
VERTEX
  8
0
 10
327.84051513671875
 20
363.17135620117187
 42
0.15391500294208527
  0
VERTEX
  8
0
 10
332
 20
376.36361694335937
 42
0
  0
VERTEX
  8
0
 10
332
 20
423.078125
 42
0.31529900431632996
  0
VERTEX
  8
0
 10
316.86648559570312
 20
444.6910400390625
 42
0
  0
VERTEX
  8
0
 10
199.52897644042969
 20
487.39840698242187
 42
0
  0
VERTEX
  8
0
 10
176
 20
487.39840698242187
 42
0
  0
VERTEX
  8
0
 10
176
 20
181.39840698242187
 42
0
  0
SEQEND
  0
POLYLINE
  8
0
 10
0
 20
0
 39
0
 70
1
 66
1
  0
VERTEX
  8
0
 10
279
 20
433.89840698242187
 42
-1
  0
VERTEX
  8
0
 10
279
 20
364.89840698242187
 42
-1
  0
SEQEND
  0
POLYLINE
  8
0
 10
0
 20
0
 39
0
 70
1
 66
1
  0
VERTEX
  8
0
 10
307.43829345703125
 20
316
 42
0
  0
VERTEX
  8
0
 10
180.15950012207031
 20
134.22703552246094
 42
0.15391500294208527
  0
VERTEX
  8
0
 10
176
 20
121.03478240966797
 42
0
  0
VERTEX
  8
0
 10
176
 20
74.320281982421875
 42
0.31529900431632996
  0
VERTEX
  8
0
 10
191.13352966308594
 20
52.707351684570313
 42
0
  0
VERTEX
  8
0
 10
308.47100830078125
 20
10
 42
0
  0
VERTEX
  8
0
 10
332
 20
10
 42
0
  0
VERTEX
  8
0
 10
332
 20
316
 42
0
  0
SEQEND
  0
POLYLINE
  8
0
 10
0
 20
0
 39
0
 70
1
 66
1
  0
VERTEX
  8
0
 10
229
 20
63.5
 42
-1
  0
VERTEX
  8
0
 10
229
 20
132.5
 42
-1
  0
SEQEND
  0
POLYLINE
  8
0
 10
0
 20
0
 39
0
 70
1
 66
1
  0
VERTEX
  8
0
 10
1354
 20
10
 42
0
  0
VERTEX
  8
0
 10
1494
 20
10
 42
-0
  0
VERTEX
  8
0
 10
1574
 20
100
 42
0
  0
VERTEX
  8
0
 10
1574
 20
240
 42
-0
  0
VERTEX
  8
0
 10
1494
 20
330
 42
0
  0
VERTEX
  8
0
 10
1354
 20
330
 42
-0
  0
VERTEX
  8
0
 10
1274
 20
240
 42
0
  0
VERTEX
  8
0
 10
1274
 20
100
 42
0
  0
SEQEND
  0
POLYLINE
  8
0
 10
0
 20
0
 39
0
 70
1
 66
1
  0
VERTEX
  8
0
 10
1386
 20
70
 42
-1
  0
VERTEX
  8
0
 10
1462
 20
70
 42
-1
  0
SEQEND
  0
POLYLINE
  8
0
 10
0
 20
0
 39
0
 70
1
 66
1
  0
VERTEX
  8
0
 10
1354
 20
340
 42
0
  0
VERTEX
  8
0
 10
1494
 20
340
 42
-0
  0
VERTEX
  8
0
 10
1574
 20
430
 42
0
  0
VERTEX
  8
0
 10
1574
 20
570
 42
-0
  0
VERTEX
  8
0
 10
1494
 20
660
 42
0
  0
VERTEX
  8
0
 10
1354
 20
660
 42
-0
  0
VERTEX
  8
0
 10
1274
 20
570
 42
0
  0
VERTEX
  8
0
 10
1274
 20
430
 42
0
  0
SEQEND
  0
POLYLINE
  8
0
 10
0
 20
0
 39
0
 70
1
 66
1
  0
VERTEX
  8
0
 10
1386
 20
400
 42
-1
  0
VERTEX
  8
0
 10
1462
 20
400
 42
-1
  0
SEQEND
  0
POLYLINE
  8
0
 10
0
 20
0
 39
0
 70
1
 66
1
  0
VERTEX
  8
0
 10
1354
 20
670
 42
0
  0
VERTEX
  8
0
 10
1494
 20
670
 42
-0
  0
VERTEX
  8
0
 10
1574
 20
760
 42
0
  0
VERTEX
  8
0
 10
1574
 20
900
 42
-0
  0
VERTEX
  8
0
 10
1494
 20
990
 42
0
  0
VERTEX
  8
0
 10
1354
 20
990
 42
-0
  0
VERTEX
  8
0
 10
1274
 20
900
 42
0
  0
VERTEX
  8
0
 10
1274
 20
760
 42
0
  0
SEQEND
  0
POLYLINE
  8
0
 10
0
 20
0
 39
0
 70
1
 66
1
  0
VERTEX
  8
0
 10
1386
 20
730
 42
-1
  0
VERTEX
  8
0
 10
1462
 20
730
 42
-1
  0
SEQEND
  0
ENDSEC
  0
EOF
