  0
SECTION
  2
ENTITIES
  0
POLYLINE
  8
0
 10
0
 20
0
 39
0
 70
1
 66
1
  0
VERTEX
  8
0
 10
0
 20
0
 42
-0
  0
VERTEX
  8
0
 10
1750
 20
0
 42
-0
  0
VERTEX
  8
0
 10
1750
 20
1000
 42
-0
  0
VERTEX
  8
0
 10
0
 20
1000
 42
-0
  0
SEQEND
  0
POLYLINE
  8
0
 10
0
 20
0
 39
0
 70
1
 66
1
  0
VERTEX
  8
0
 10
512.25
 20
645.75
 42
-0
  0
VERTEX
  8
0
 10
512.25
 20
27.750000000000032
 42
-0
  0
VERTEX
  8
0
 10
496.04998779296881
 20
27.750000000000028
 42
2.4142136573791504
  0
VERTEX
  8
0
 10
494.75000000000006
 20
26.450000762939482
 42
-0
  0
VERTEX
  8
0
 10
494.75000000000006
 20
10.25000000000003
 42
-0
  0
VERTEX
  8
0
 10
27.750000000000039
 20
10.250000000000002
 42
-0
  0
VERTEX
  8
0
 10
27.750000000000039
 20
26.450000762939453
 42
2.4142136573791504
  0
VERTEX
  8
0
 10
26.450000762939492
 20
27.75
 42
0
  0
VERTEX
  8
0
 10
10.250000000000037
 20
27.75
 42
-0
  0
VERTEX
  8
0
 10
10.25
 20
645.75
 42
-0
  0
VERTEX
  8
0
 10
26.450000762939453
 20
645.75
 42
2.4142136573791504
  0
VERTEX
  8
0
 10
27.75
 20
647.04998779296875
 42
-0
  0
VERTEX
  8
0
 10
27.75
 20
663.25
 42
-0
  0
VERTEX
  8
0
 10
494.75
 20
663.25
 42
0
  0
VERTEX
  8
0
 10
494.75
 20
647.04998779296875
 42
2.4142136573791504
  0
VERTEX
  8
0
 10
496.04998779296875
 20
645.75
 42
-0
  0
SEQEND
  0
POLYLINE
  8
0
 10
0
 20
0
 39
0
 70
1
 66
1
  0
VERTEX
  8
0
 10
75.250000000000043
 20
80.25
 42
0.41421356797218323
  0
VERTEX
  8
0
 10
80.250000000000043
 20
75.25
 42
0
  0
VERTEX
  8
0
 10
442.25000000000006
 20
75.250000000000028
 42
0.41421356797218323
  0
VERTEX
  8
0
 10
447.25000000000006
 20
80.250000000000028
 42
0
  0
VERTEX
  8
0
 10
447.25
 20
593.25
 42
0.41421356797218323
  0
VERTEX
  8
0
 10
442.25
 20
598.25
 42
0
  0
VERTEX
  8
0
 10
80.25
 20
598.25
 42
0.41421356797218323
  0
VERTEX
  8
0
 10
75.25
 20
593.25
 42
0
  0
SEQEND
  0
POLYLINE
  8
0
 10
0
 20
0
 39
0
 70
1
 66
1
  0
VERTEX
  8
0
 10
1024.4615384615383
 20
645.75
 42
-0
  0
VERTEX
  8
0
 10
1024.4615384615386
 20
27.750000000000032
 42
-0
  0
VERTEX
  8
0
 10
1008.2615262545072
 20
27.750000000000028
 42
2.4142136573791504
  0
VERTEX
  8
0
 10
1006.9615384615385
 20
26.450000762939482
 42
-0
  0
VERTEX
  8
0
 10
1006.9615384615385
 20
10.25000000000003
 42
-0
  0
VERTEX
  8
0
 10
539.96153846153845
 20
10.250000000000002
 42
-0
  0
VERTEX
  8
0
 10
539.96153846153845
 20
26.450000762939453
 42
2.4142136573791504
  0
VERTEX
  8
0
 10
538.66153922447791
 20
27.75
 42
0
  0
VERTEX
  8
0
 10
522.46153846153845
 20
27.75
 42
-0
  0
VERTEX
  8
0
 10
522.46153846153845
 20
645.75
 42
-0
  0
VERTEX
  8
0
 10
538.66153922447791
 20
645.75
 42
2.4142136573791504
  0
VERTEX
  8
0
 10
539.96153846153845
 20
647.04998779296875
 42
-0
  0
VERTEX
  8
0
 10
539.96153846153845
 20
663.25
 42
-0
  0
VERTEX
  8
0
 10
1006.9615384615383
 20
663.25
 42
0
  0
VERTEX
  8
0
 10
1006.9615384615383
 20
647.04998779296875
 42
2.4142136573791504
  0
VERTEX
  8
0
 10
1008.2615262545071
 20
645.75
 42
-0
  0
SEQEND
  0
POLYLINE
  8
0
 10
0
 20
0
 39
0
 70
1
 66
1
  0
VERTEX
  8
0
 10
587.46153846153845
 20
80.25
 42
0.41421356797218323
  0
VERTEX
  8
0
 10
592.46153846153845
 20
75.25
 42
0
  0
VERTEX
  8
0
 10
954.46153846153845
 20
75.250000000000028
 42
0.41421356797218323
  0
VERTEX
  8
0
 10
959.46153846153845
 20
80.250000000000028
 42
0
  0
VERTEX
  8
0
 10
959.46153846153834
 20
593.25
 42
0.41421356797218323
  0
VERTEX
  8
0
 10
954.46153846153834
 20
598.25
 42
0
  0
VERTEX
  8
0
 10
592.46153846153845
 20
598.25
 42
0.41421356797218323
  0
VERTEX
  8
0
 10
587.46153846153845
 20
593.25
 42
0
  0
SEQEND
  0
POLYLINE
  8
0
 10
0
 20
0
 39
0
 70
1
 66
1
  0
VERTEX
  8
0
 10
1536.6730769230769
 20
645.75
 42
-0
  0
VERTEX
  8
0
 10
1536.6730769230769
 20
27.750000000000032
 42
-0
  0
VERTEX
  8
0
 10
1520.4730647160457
 20
27.750000000000028
 42
2.4142136573791504
  0
VERTEX
  8
0
 10
1519.1730769230769
 20
26.450000762939482
 42
-0
  0
VERTEX
  8
0
 10
1519.1730769230769
 20
10.25000000000003
 42
-0
  0
VERTEX
  8
0
 10
1052.1730769230769
 20
10.250000000000002
 42
-0
  0
VERTEX
  8
0
 10
1052.1730769230769
 20
26.450000762939453
 42
2.4142136573791504
  0
VERTEX
  8
0
 10
1050.8730776860164
 20
27.75
 42
0
  0
VERTEX
  8
0
 10
1034.6730769230769
 20
27.75
 42
-0
  0
VERTEX
  8
0
 10
1034.6730769230769
 20
645.75
 42
-0
  0
VERTEX
  8
0
 10
1050.8730776860164
 20
645.75
 42
2.4142136573791504
  0
VERTEX
  8
0
 10
1052.1730769230769
 20
647.04998779296875
 42
-0
  0
VERTEX
  8
0
 10
1052.1730769230769
 20
663.25
 42
-0
  0
VERTEX
  8
0
 10
1519.1730769230769
 20
663.25
 42
0
  0
VERTEX
  8
0
 10
1519.1730769230769
 20
647.04998779296875
 42
2.4142136573791504
  0
VERTEX
  8
0
 10
1520.4730647160457
 20
645.75
 42
-0
  0
SEQEND
  0
POLYLINE
  8
0
 10
0
 20
0
 39
0
 70
1
 66
1
  0
VERTEX
  8
0
 10
1099.6730769230769
 20
80.25
 42
0.41421356797218323
  0
VERTEX
  8
0
 10
1104.6730769230769
 20
75.25
 42
0
  0
VERTEX
  8
0
 10
1466.6730769230769
 20
75.250000000000028
 42
0.41421356797218323
  0
VERTEX
  8
0
 10
1471.6730769230769
 20
80.250000000000028
 42
0
  0
VERTEX
  8
0
 10
1471.6730769230769
 20
593.25
 42
0.41421356797218323
  0
VERTEX
  8
0
 10
1466.6730769230769
 20
598.25
 42
0
  0
VERTEX
  8
0
 10
1104.6730769230769
 20
598.25
 42
0.41421356797218323
  0
VERTEX
  8
0
 10
1099.6730769230769
 20
593.25
 42
0
  0
SEQEND
  0
POLYLINE
  8
0
 10
0
 20
0
 39
0
 70
1
 66
1
  0
VERTEX
  8
0
 10
10.250000000000009
 20
753.36538461538464
 42
-0
  0
VERTEX
  8
0
 10
10.25
 20
893.36538461538464
 42
0
  0
VERTEX
  8
0
 10
100.25
 20
973.36538461538464
 42
-0
  0
VERTEX
  8
0
 10
240.25
 20
973.36538461538464
 42
0
  0
VERTEX
  8
0
 10
330.25
 20
893.36538461538464
 42
-0
  0
VERTEX
  8
0
 10
330.25
 20
753.36538461538464
 42
0
  0
VERTEX
  8
0
 10
240.25
 20
673.36538461538464
 42
-0
  0
VERTEX
  8
0
 10
100.25000000000001
 20
673.36538461538464
 42
-0
  0
SEQEND
  0
POLYLINE
  8
0
 10
0
 20
0
 39
0
 70
1
 66
1
  0
VERTEX
  8
0
 10
70.25
 20
785.36538461538464
 42
1
  0
VERTEX
  8
0
 10
70.25
 20
861.36538461538464
 42
1
  0
SEQEND
  0
POLYLINE
  8
0
 10
0
 20
0
 39
0
 70
1
 66
1
  0
VERTEX
  8
0
 10
305.5
 20
85.5
 42
-0
  0
VERTEX
  8
0
 10
165.5
 20
85.5
 42
0
  0
VERTEX
  8
0
 10
85.5
 20
175.5
 42
-0
  0
VERTEX
  8
0
 10
85.5
 20
315.5
 42
0
  0
VERTEX
  8
0
 10
165.5
 20
405.5
 42
-0
  0
VERTEX
  8
0
 10
305.5
 20
405.5
 42
0
  0
VERTEX
  8
0
 10
385.5
 20
315.5
 42
-0
  0
VERTEX
  8
0
 10
385.5
 20
175.5
 42
-0
  0
SEQEND
  0
POLYLINE
  8
0
 10
0
 20
0
 39
0
 70
1
 66
1
  0
VERTEX
  8
0
 10
273.5
 20
145.5
 42
1
  0
VERTEX
  8
0
 10
197.5
 20
145.5
 42
1
  0
SEQEND
  0
POLYLINE
  8
0
 10
0
 20
0
 39
0
 70
1
 66
1
  0
VERTEX
  8
0
 10
340.46153846153845
 20
753.36538461538464
 42
-0
  0
VERTEX
  8
0
 10
340.46153846153845
 20
893.36538461538464
 42
0
  0
VERTEX
  8
0
 10
430.46153846153845
 20
973.36538461538464
 42
-0
  0
VERTEX
  8
0
 10
570.46153846153845
 20
973.36538461538464
 42
0
  0
VERTEX
  8
0
 10
660.46153846153845
 20
893.36538461538464
 42
-0
  0
VERTEX
  8
0
 10
660.46153846153845
 20
753.36538461538464
 42
0
  0
VERTEX
  8
0
 10
570.46153846153845
 20
673.36538461538464
 42
-0
  0
VERTEX
  8
0
 10
430.46153846153845
 20
673.36538461538464
 42
-0
  0
SEQEND
  0
POLYLINE
  8
0
 10
0
 20
0
 39
0
 70
1
 66
1
  0
VERTEX
  8
0
 10
400.46153846153845
 20
785.36538461538464
 42
1
  0
VERTEX
  8
0
 10
400.46153846153845
 20
861.36538461538464
 42
1
  0
SEQEND
  0
POLYLINE
  8
0
 10
0
 20
0
 39
0
 70
1
 66
1
  0
VERTEX
  8
0
 10
817.71153846153845
 20
85.5
 42
-0
  0
VERTEX
  8
0
 10
677.71153846153845
 20
85.5
 42
0
  0
VERTEX
  8
0
 10
597.71153846153845
 20
175.5
 42
-0
  0
VERTEX
  8
0
 10
597.71153846153845
 20
315.5
 42
0
  0
VERTEX
  8
0
 10
677.71153846153845
 20
405.5
 42
-0
  0
VERTEX
  8
0
 10
817.71153846153845
 20
405.5
 42
0
  0
VERTEX
  8
0
 10
897.71153846153845
 20
315.5
 42
-0
  0
VERTEX
  8
0
 10
897.71153846153845
 20
175.5
 42
-0
  0
SEQEND
  0
POLYLINE
  8
0
 10
0
 20
0
 39
0
 70
1
 66
1
  0
VERTEX
  8
0
 10
785.71153846153845
 20
145.5
 42
1
  0
VERTEX
  8
0
 10
709.71153846153845
 20
145.5
 42
1
  0
SEQEND
  0
POLYLINE
  8
0
 10
0
 20
0
 39
0
 70
1
 66
1
  0
VERTEX
  8
0
 10
670.67307692307691
 20
753.36538461538464
 42
-0
  0
VERTEX
  8
0
 10
670.67307692307691
 20
893.36538461538464
 42
0
  0
VERTEX
  8
0
 10
760.67307692307691
 20
973.36538461538464
 42
-0
  0
VERTEX
  8
0
 10
900.67307692307691
 20
973.36538461538464
 42
0
  0
VERTEX
  8
0
 10
990.67307692307691
 20
893.36538461538464
 42
-0
  0
VERTEX
  8
0
 10
990.67307692307691
 20
753.36538461538464
 42
0
  0
VERTEX
  8
0
 10
900.67307692307691
 20
673.36538461538464
 42
-0
  0
VERTEX
  8
0
 10
760.67307692307691
 20
673.36538461538464
 42
-0
  0
SEQEND
  0
POLYLINE
  8
0
 10
0
 20
0
 39
0
 70
1
 66
1
  0
VERTEX
  8
0
 10
730.67307692307691
 20
785.36538461538464
 42
1
  0
VERTEX
  8
0
 10
730.67307692307691
 20
861.36538461538464
 42
1
  0
SEQEND
  0
POLYLINE
  8
0
 10
0
 20
0
 39
0
 70
1
 66
1
  0
VERTEX
  8
0
 10
1000.8846153846154
 20
753.36538461538464
 42
-0
  0
VERTEX
  8
0
 10
1000.8846153846154
 20
893.36538461538464
 42
0
  0
VERTEX
  8
0
 10
1090.8846153846152
 20
973.36538461538464
 42
-0
  0
VERTEX
  8
0
 10
1230.8846153846152
 20
973.36538461538464
 42
0
  0
VERTEX
  8
0
 10
1320.8846153846152
 20
893.36538461538464
 42
-0
  0
VERTEX
  8
0
 10
1320.8846153846152
 20
753.36538461538464
 42
0
  0
VERTEX
  8
0
 10
1230.8846153846152
 20
673.36538461538464
 42
-0
  0
VERTEX
  8
0
 10
1090.8846153846152
 20
673.36538461538464
 42
-0
  0
SEQEND
  0
POLYLINE
  8
0
 10
0
 20
0
 39
0
 70
1
 66
1
  0
VERTEX
  8
0
 10
1060.8846153846152
 20
785.36538461538464
 42
1
  0
VERTEX
  8
0
 10
1060.8846153846152
 20
861.36538461538464
 42
1
  0
SEQEND
  0
POLYLINE
  8
0
 10
0
 20
0
 39
0
 70
1
 66
1
  0
VERTEX
  8
0
 10
1329.9230769230769
 20
85.5
 42
-0
  0
VERTEX
  8
0
 10
1189.9230769230769
 20
85.5
 42
0
  0
VERTEX
  8
0
 10
1109.9230769230769
 20
175.5
 42
-0
  0
VERTEX
  8
0
 10
1109.9230769230769
 20
315.5
 42
0
  0
VERTEX
  8
0
 10
1189.9230769230769
 20
405.5
 42
-0
  0
VERTEX
  8
0
 10
1329.9230769230769
 20
405.5
 42
0
  0
VERTEX
  8
0
 10
1409.9230769230769
 20
315.5
 42
-0
  0
VERTEX
  8
0
 10
1409.9230769230769
 20
175.5
 42
-0
  0
SEQEND
  0
POLYLINE
  8
0
 10
0
 20
0
 39
0
 70
1
 66
1
  0
VERTEX
  8
0
 10
1297.9230769230769
 20
145.5
 42
1
  0
VERTEX
  8
0
 10
1221.9230769230769
 20
145.5
 42
1
  0
SEQEND
  0
POLYLINE
  8
0
 10
0
 20
0
 39
0
 70
1
 66
1
  0
VERTEX
  8
0
 10
1331.0961538461538
 20
753.36538461538464
 42
-0
  0
VERTEX
  8
0
 10
1331.0961538461538
 20
893.36538461538464
 42
0
  0
VERTEX
  8
0
 10
1421.0961538461538
 20
973.36538461538464
 42
-0
  0
VERTEX
  8
0
 10
1561.0961538461538
 20
973.36538461538464
 42
0
  0
VERTEX
  8
0
 10
1651.0961538461538
 20
893.36538461538464
 42
-0
  0
VERTEX
  8
0
 10
1651.0961538461538
 20
753.36538461538464
 42
0
  0
VERTEX
  8
0
 10
1561.0961538461538
 20
673.36538461538464
 42
-0
  0
VERTEX
  8
0
 10
1421.0961538461538
 20
673.36538461538464
 42
-0
  0
SEQEND
  0
POLYLINE
  8
0
 10
0
 20
0
 39
0
 70
1
 66
1
  0
VERTEX
  8
0
 10
1391.0961538461538
 20
785.36538461538464
 42
1
  0
VERTEX
  8
0
 10
1391.0961538461538
 20
861.36538461538464
 42
1
  0
SEQEND
  0
POLYLINE
  8
0
 10
0
 20
0
 39
0
 70
1
 66
1
  0
VERTEX
  8
0
 10
1632.8846077552207
 20
349.7503833770752
 42
0
  0
VERTEX
  8
0
 10
1632.8846077552207
 20
100.74961280822754
 42
0
  0
VERTEX
  8
0
 10
1620.0100197425254
 20
25.081323623657227
 42
0
  0
VERTEX
  8
0
 10
1599.8846077552207
 20
10.25
 42
-0
  0
VERTEX
  8
0
 10
1579.8846153846152
 20
10.25
 42
-0
  0
VERTEX
  8
0
 10
1559.7592110267051
 20
25.081323623657227
 42
-0
  0
VERTEX
  8
0
 10
1546.8846153846152
 20
100.74961280822754
 42
0
  0
VERTEX
  8
0
 10
1546.8846153846152
 20
349.7503833770752
 42
0
  0
VERTEX
  8
0
 10
1559.7592110267051
 20
425.41868782043457
 42
0
  0
VERTEX
  8
0
 10
1579.8846153846152
 20
440.24998664855957
 42
0
  0
VERTEX
  8
0
 10
1599.8846077552207
 20
440.24998664855957
 42
-0
  0
VERTEX
  8
0
 10
1620.0100197425254
 20
425.41868782043457
 42
-0
  0
SEQEND
  0
POLYLINE
  8
0
 10
0
 20
0
 39
0
 70
1
 66
1
  0
VERTEX
  8
0
 10
1597.8846077552207
 20
328.9554615020752
 42
-0
  0
VERTEX
  8
0
 10
1581.8846153846152
 20
328.9554615020752
 42
-0
  0
VERTEX
  8
0
 10
1581.8846153846152
 20
121.54455757141113
 42
0
  0
VERTEX
  8
0
 10
1597.8846077552207
 20
121.54455757141113
 42
-0
  0
SEQEND
  0
POLYLINE
  8
0
 10
0
 20
0
 39
0
 70
1
 66
1
  0
VERTEX
  8
0
 10
1605.9543099036582
 20
377.7164478302002
 42
0
  0
VERTEX
  8
0
 10
1589.8846153846152
 20
396.8675708770752
 42
-0
  0
VERTEX
  8
0
 10
1573.8149208655723
 20
377.7164478302002
 42
0
  0
VERTEX
  8
0
 10
1589.8846153846152
 20
358.56535530090332
 42
-0
  0
SEQEND
  0
POLYLINE
  8
0
 10
0
 20
0
 39
0
 70
1
 66
1
  0
VERTEX
  8
0
 10
1605.9543099036582
 20
72.783540725708008
 42
0
  0
VERTEX
  8
0
 10
1589.8846153846152
 20
91.934656143188477
 42
-0
  0
VERTEX
  8
0
 10
1573.8149208655723
 20
72.783540725708008
 42
0
  0
VERTEX
  8
0
 10
1589.8846153846152
 20
53.63243293762207
 42
-0
  0
SEQEND
  0
POLYLINE
  8
0
 10
0
 20
0
 39
0
 70
1
 66
1
  0
VERTEX
  8
0
 10
1719.1730692936824
 20
659.09653722322901
 42
0
  0
VERTEX
  8
0
 10
1719.1730692936824
 20
410.09576665438135
 42
0
  0
VERTEX
  8
0
 10
1706.2984812809871
 20
334.42747746981104
 42
0
  0
VERTEX
  8
0
 10
1686.1730692936824
 20
319.59615384615381
 42
-0
  0
VERTEX
  8
0
 10
1666.1730769230769
 20
319.59615384615381
 42
-0
  0
VERTEX
  8
0
 10
1646.0476725651667
 20
334.42747746981104
 42
-0
  0
VERTEX
  8
0
 10
1633.1730769230769
 20
410.09576665438135
 42
0
  0
VERTEX
  8
0
 10
1633.1730769230769
 20
659.09653722322901
 42
0
  0
VERTEX
  8
0
 10
1646.0476725651667
 20
734.76484166658838
 42
0
  0
VERTEX
  8
0
 10
1666.1730769230769
 20
749.59614049471338
 42
0
  0
VERTEX
  8
0
 10
1686.1730692936824
 20
749.59614049471338
 42
-0
  0
VERTEX
  8
0
 10
1706.2984812809871
 20
734.76484166658838
 42
-0
  0
SEQEND
  0
POLYLINE
  8
0
 10
0
 20
0
 39
0
 70
1
 66
1
  0
VERTEX
  8
0
 10
1684.1730692936824
 20
638.30161534822901
 42
-0
  0
VERTEX
  8
0
 10
1668.1730769230769
 20
638.30161534822901
 42
-0
  0
VERTEX
  8
0
 10
1668.1730769230769
 20
430.89071141756494
 42
0
  0
VERTEX
  8
0
 10
1684.1730692936824
 20
430.89071141756494
 42
-0
  0
SEQEND
  0
POLYLINE
  8
0
 10
0
 20
0
 39
0
 70
1
 66
1
  0
VERTEX
  8
0
 10
1692.2427714421199
 20
687.06260167635401
 42
0
  0
VERTEX
  8
0
 10
1676.1730769230769
 20
706.21372472322901
 42
-0
  0
VERTEX
  8
0
 10
1660.1033824040339
 20
687.06260167635401
 42
0
  0
VERTEX
  8
0
 10
1676.1730769230769
 20
667.91150914705713
 42
-0
  0
SEQEND
  0
POLYLINE
  8
0
 10
0
 20
0
 39
0
 70
1
 66
1
  0
VERTEX
  8
0
 10
1692.2427714421199
 20
382.12969457186182
 42
0
  0
VERTEX
  8
0
 10
1676.1730769230769
 20
401.28080998934229
 42
-0
  0
VERTEX
  8
0
 10
1660.1033824040339
 20
382.12969457186182
 42
0
  0
VERTEX
  8
0
 10
1676.1730769230769
 20
362.97858678377588
 42
-0
  0
SEQEND
  0
POLYLINE
  8
0
 10
0
 20
0
 39
0
 70
1
 66
1
  0
VERTEX
  8
0
 10
323
 20
415.57692307692304
 42
-0
  0
VERTEX
  8
0
 10
93.002578735351563
 20
415.57692307692304
 42
0
  0
VERTEX
  8
0
 10
85.5
 20
443.57692307692304
 42
-0
  0
VERTEX
  8
0
 10
85.5
 20
497.07692307692304
 42
0
  0
VERTEX
  8
0
 10
88
 20
499.57692307692304
 42
-0
  0
VERTEX
  8
0
 10
323
 20
499.57692307692304
 42
0
  0
VERTEX
  8
0
 10
325.5
 20
497.07692307692304
 42
-0
  0
VERTEX
  8
0
 10
325.5
 20
418.07692307692304
 42
-0
  0
SEQEND
  0
POLYLINE
  8
0
 10
0
 20
0
 39
0
 70
1
 66
1
  0
VERTEX
  8
0
 10
223.5
 20
457.57692307692304
 42
1
  0
VERTEX
  8
0
 10
187.5
 20
457.57692307692304
 42
1
  0
SEQEND
  0
POLYLINE
  8
0
 10
0
 20
0
 39
0
 70
1
 66
1
  0
VERTEX
  8
0
 10
835.21153846153845
 20
415.57692307692304
 42
-0
  0
VERTEX
  8
0
 10
605.21411719689002
 20
415.57692307692304
 42
0
  0
VERTEX
  8
0
 10
597.71153846153845
 20
443.57692307692304
 42
-0
  0
VERTEX
  8
0
 10
597.71153846153845
 20
497.07692307692304
 42
0
  0
VERTEX
  8
0
 10
600.21153846153845
 20
499.57692307692304
 42
-0
  0
VERTEX
  8
0
 10
835.21153846153845
 20
499.57692307692304
 42
0
  0
VERTEX
  8
0
 10
837.71153846153845
 20
497.07692307692304
 42
-0
  0
VERTEX
  8
0
 10
837.71153846153845
 20
418.07692307692304
 42
-0
  0
SEQEND
  0
POLYLINE
  8
0
 10
0
 20
0
 39
0
 70
1
 66
1
  0
VERTEX
  8
0
 10
735.71153846153845
 20
457.57692307692304
 42
1
  0
VERTEX
  8
0
 10
699.71153846153845
 20
457.57692307692304
 42
1
  0
SEQEND
  0
POLYLINE
  8
0
 10
0
 20
0
 39
0
 70
1
 66
1
  0
VERTEX
  8
0
 10
1347.4230769230769
 20
415.57692307692304
 42
-0
  0
VERTEX
  8
0
 10
1117.4256556584285
 20
415.57692307692304
 42
0
  0
VERTEX
  8
0
 10
1109.9230769230769
 20
443.57692307692304
 42
-0
  0
VERTEX
  8
0
 10
1109.9230769230769
 20
497.07692307692304
 42
0
  0
VERTEX
  8
0
 10
1112.4230769230769
 20
499.57692307692304
 42
-0
  0
VERTEX
  8
0
 10
1347.4230769230769
 20
499.57692307692304
 42
0
  0
VERTEX
  8
0
 10
1349.9230769230769
 20
497.07692307692304
 42
-0
  0
VERTEX
  8
0
 10
1349.9230769230769
 20
418.07692307692304
 42
-0
  0
SEQEND
  0
POLYLINE
  8
0
 10
0
 20
0
 39
0
 70
1
 66
1
  0
VERTEX
  8
0
 10
1247.9230769230769
 20
457.57692307692304
 42
1
  0
VERTEX
  8
0
 10
1211.9230769230769
 20
457.57692307692304
 42
1
  0
SEQEND
  0
POLYLINE
  8
0
 10
0
 20
0
 39
0
 70
1
 66
1
  0
VERTEX
  8
0
 10
1643.1346153846152
 20
12.75
 42
-0
  0
VERTEX
  8
0
 10
1643.1346153846152
 20
242.74742126464844
 42
0
  0
VERTEX
  8
0
 10
1671.1346153846152
 20
250.25
 42
-0
  0
VERTEX
  8
0
 10
1724.6346153846152
 20
250.25
 42
0
  0
VERTEX
  8
0
 10
1727.1346153846152
 20
247.75
 42
-0
  0
VERTEX
  8
0
 10
1727.1346153846152
 20
12.750000000000005
 42
0
  0
VERTEX
  8
0
 10
1724.6346153846152
 20
10.250000000000005
 42
-0
  0
VERTEX
  8
0
 10
1645.6346153846152
 20
10.25
 42
-0
  0
SEQEND
  0
POLYLINE
  8
0
 10
0
 20
0
 39
0
 70
1
 66
1
  0
VERTEX
  8
0
 10
1685.1346153846152
 20
112.25
 42
1
  0
VERTEX
  8
0
 10
1685.1346153846152
 20
148.25
 42
1
  0
SEQEND
  0
POLYLINE
  8
0
 10
0
 20
0
 39
0
 70
1
 66
1
  0
VERTEX
  8
0
 10
185.5
 20
509.67307692307691
 42
-0
  0
VERTEX
  8
0
 10
85.5
 20
509.67307692307691
 42
0
  0
VERTEX
  8
0
 10
85.5
 20
528.67307692307691
 42
1
  0
VERTEX
  8
0
 10
85.5
 20
560.67307692307691
 42
0
  0
VERTEX
  8
0
 10
85.5
 20
579.67307692307691
 42
0
  0
VERTEX
  8
0
 10
185.5
 20
579.67307692307691
 42
0
  0
SEQEND
  0
POLYLINE
  8
0
 10
0
 20
0
 39
0
 70
1
 66
1
  0
VERTEX
  8
0
 10
130.9755859375
 20
528.67307692307691
 42
1
  0
VERTEX
  8
0
 10
110.9755859375
 20
528.67307692307691
 42
1
  0
SEQEND
  0
POLYLINE
  8
0
 10
0
 20
0
 39
0
 70
1
 66
1
  0
VERTEX
  8
0
 10
295.75
 20
509.67307692307691
 42
-0
  0
VERTEX
  8
0
 10
195.75
 20
509.67307692307691
 42
0
  0
VERTEX
  8
0
 10
195.75
 20
528.67307692307691
 42
1
  0
VERTEX
  8
0
 10
195.75
 20
560.67307692307691
 42
0
  0
VERTEX
  8
0
 10
195.75
 20
579.67307692307691
 42
0
  0
VERTEX
  8
0
 10
295.75
 20
579.67307692307691
 42
0
  0
SEQEND
  0
POLYLINE
  8
0
 10
0
 20
0
 39
0
 70
1
 66
1
  0
VERTEX
  8
0
 10
241.2255859375
 20
528.67307692307691
 42
1
  0
VERTEX
  8
0
 10
221.2255859375
 20
528.67307692307691
 42
1
  0
SEQEND
  0
POLYLINE
  8
0
 10
0
 20
0
 39
0
 70
1
 66
1
  0
VERTEX
  8
0
 10
335.75
 20
386.90384615384613
 42
-0
  0
VERTEX
  8
0
 10
335.75
 20
486.90384615384613
 42
0
  0
VERTEX
  8
0
 10
354.75
 20
486.90384615384613
 42
1
  0
VERTEX
  8
0
 10
386.75
 20
486.90384615384613
 42
0
  0
VERTEX
  8
0
 10
405.75
 20
486.90384615384613
 42
0
  0
VERTEX
  8
0
 10
405.75
 20
386.90384615384613
 42
0
  0
SEQEND
  0
POLYLINE
  8
0
 10
0
 20
0
 39
0
 70
1
 66
1
  0
VERTEX
  8
0
 10
354.75
 20
441.42826021634613
 42
1
  0
VERTEX
  8
0
 10
354.75
 20
461.42826021634613
 42
1
  0
SEQEND
  0
POLYLINE
  8
0
 10
0
 20
0
 39
0
 70
1
 66
1
  0
VERTEX
  8
0
 10
406
 20
509.67307692307691
 42
-0
  0
VERTEX
  8
0
 10
306
 20
509.67307692307691
 42
0
  0
VERTEX
  8
0
 10
306
 20
528.67307692307691
 42
1
  0
VERTEX
  8
0
 10
306
 20
560.67307692307691
 42
0
  0
VERTEX
  8
0
 10
306
 20
579.67307692307691
 42
0
  0
VERTEX
  8
0
 10
406
 20
579.67307692307691
 42
0
  0
SEQEND
  0
POLYLINE
  8
0
 10
0
 20
0
 39
0
 70
1
 66
1
  0
VERTEX
  8
0
 10
351.4755859375
 20
528.67307692307691
 42
1
  0
VERTEX
  8
0
 10
331.4755859375
 20
528.67307692307691
 42
1
  0
SEQEND
  0
POLYLINE
  8
0
 10
0
 20
0
 39
0
 70
1
 66
1
  0
VERTEX
  8
0
 10
697.71153846153845
 20
509.67307692307691
 42
-0
  0
VERTEX
  8
0
 10
597.71153846153845
 20
509.67307692307691
 42
0
  0
VERTEX
  8
0
 10
597.71153846153845
 20
528.67307692307691
 42
1
  0
VERTEX
  8
0
 10
597.71153846153845
 20
560.67307692307691
 42
0
  0
VERTEX
  8
0
 10
597.71153846153845
 20
579.67307692307691
 42
0
  0
VERTEX
  8
0
 10
697.71153846153845
 20
579.67307692307691
 42
0
  0
SEQEND
  0
POLYLINE
  8
0
 10
0
 20
0
 39
0
 70
1
 66
1
  0
VERTEX
  8
0
 10
643.18712439903845
 20
528.67307692307691
 42
1
  0
VERTEX
  8
0
 10
623.18712439903845
 20
528.67307692307691
 42
1
  0
SEQEND
  0
POLYLINE
  8
0
 10
0
 20
0
 39
0
 70
1
 66
1
  0
VERTEX
  8
0
 10
807.96153846153845
 20
509.67307692307691
 42
-0
  0
VERTEX
  8
0
 10
707.96153846153845
 20
509.67307692307691
 42
0
  0
VERTEX
  8
0
 10
707.96153846153845
 20
528.67307692307691
 42
1
  0
VERTEX
  8
0
 10
707.96153846153845
 20
560.67307692307691
 42
0
  0
VERTEX
  8
0
 10
707.96153846153845
 20
579.67307692307691
 42
0
  0
VERTEX
  8
0
 10
807.96153846153845
 20
579.67307692307691
 42
0
  0
SEQEND
  0
POLYLINE
  8
0
 10
0
 20
0
 39
0
 70
1
 66
1
  0
VERTEX
  8
0
 10
753.43712439903845
 20
528.67307692307691
 42
1
  0
VERTEX
  8
0
 10
733.43712439903845
 20
528.67307692307691
 42
1
  0
SEQEND
  0
POLYLINE
  8
0
 10
0
 20
0
 39
0
 70
1
 66
1
  0
VERTEX
  8
0
 10
847.96153846153845
 20
386.90384615384613
 42
-0
  0
VERTEX
  8
0
 10
847.96153846153845
 20
486.90384615384613
 42
0
  0
VERTEX
  8
0
 10
866.96153846153845
 20
486.90384615384613
 42
1
  0
VERTEX
  8
0
 10
898.96153846153845
 20
486.90384615384613
 42
0
  0
VERTEX
  8
0
 10
917.96153846153845
 20
486.90384615384613
 42
0
  0
VERTEX
  8
0
 10
917.96153846153845
 20
386.90384615384613
 42
0
  0
SEQEND
  0
POLYLINE
  8
0
 10
0
 20
0
 39
0
 70
1
 66
1
  0
VERTEX
  8
0
 10
866.96153846153845
 20
441.42826021634613
 42
1
  0
VERTEX
  8
0
 10
866.96153846153845
 20
461.42826021634613
 42
1
  0
SEQEND
  0
POLYLINE
  8
0
 10
0
 20
0
 39
0
 70
1
 66
1
  0
VERTEX
  8
0
 10
918.21153846153845
 20
509.67307692307691
 42
-0
  0
VERTEX
  8
0
 10
818.21153846153845
 20
509.67307692307691
 42
0
  0
VERTEX
  8
0
 10
818.21153846153845
 20
528.67307692307691
 42
1
  0
VERTEX
  8
0
 10
818.21153846153845
 20
560.67307692307691
 42
0
  0
VERTEX
  8
0
 10
818.21153846153845
 20
579.67307692307691
 42
0
  0
VERTEX
  8
0
 10
918.21153846153845
 20
579.67307692307691
 42
0
  0
SEQEND
  0
POLYLINE
  8
0
 10
0
 20
0
 39
0
 70
1
 66
1
  0
VERTEX
  8
0
 10
863.68712439903845
 20
528.67307692307691
 42
1
  0
VERTEX
  8
0
 10
843.68712439903845
 20
528.67307692307691
 42
1
  0
SEQEND
  0
POLYLINE
  8
0
 10
0
 20
0
 39
0
 70
1
 66
1
  0
VERTEX
  8
0
 10
1209.9230769230769
 20
509.67307692307691
 42
-0
  0
VERTEX
  8
0
 10
1109.9230769230769
 20
509.67307692307691
 42
0
  0
VERTEX
  8
0
 10
1109.9230769230769
 20
528.67307692307691
 42
1
  0
VERTEX
  8
0
 10
1109.9230769230769
 20
560.67307692307691
 42
0
  0
VERTEX
  8
0
 10
1109.9230769230769
 20
579.67307692307691
 42
0
  0
VERTEX
  8
0
 10
1209.9230769230769
 20
579.67307692307691
 42
0
  0
SEQEND
  0
POLYLINE
  8
0
 10
0
 20
0
 39
0
 70
1
 66
1
  0
VERTEX
  8
0
 10
1155.3986628605769
 20
528.67307692307691
 42
1
  0
VERTEX
  8
0
 10
1135.3986628605769
 20
528.67307692307691
 42
1
  0
SEQEND
  0
POLYLINE
  8
0
 10
0
 20
0
 39
0
 70
1
 66
1
  0
VERTEX
  8
0
 10
1320.1730769230769
 20
509.67307692307691
 42
-0
  0
VERTEX
  8
0
 10
1220.1730769230769
 20
509.67307692307691
 42
0
  0
VERTEX
  8
0
 10
1220.1730769230769
 20
528.67307692307691
 42
1
  0
VERTEX
  8
0
 10
1220.1730769230769
 20
560.67307692307691
 42
0
  0
VERTEX
  8
0
 10
1220.1730769230769
 20
579.67307692307691
 42
0
  0
VERTEX
  8
0
 10
1320.1730769230769
 20
579.67307692307691
 42
0
  0
SEQEND
  0
POLYLINE
  8
0
 10
0
 20
0
 39
0
 70
1
 66
1
  0
VERTEX
  8
0
 10
1265.6486628605769
 20
528.67307692307691
 42
1
  0
VERTEX
  8
0
 10
1245.6486628605769
 20
528.67307692307691
 42
1
  0
SEQEND
  0
POLYLINE
  8
0
 10
0
 20
0
 39
0
 70
1
 66
1
  0
VERTEX
  8
0
 10
1360.1730769230769
 20
386.90384615384613
 42
-0
  0
VERTEX
  8
0
 10
1360.1730769230769
 20
486.90384615384613
 42
0
  0
VERTEX
  8
0
 10
1379.1730769230769
 20
486.90384615384613
 42
1
  0
VERTEX
  8
0
 10
1411.1730769230769
 20
486.90384615384613
 42
0
  0
VERTEX
  8
0
 10
1430.1730769230769
 20
486.90384615384613
 42
0
  0
VERTEX
  8
0
 10
1430.1730769230769
 20
386.90384615384613
 42
0
  0
SEQEND
  0
POLYLINE
  8
0
 10
0
 20
0
 39
0
 70
1
 66
1
  0
VERTEX
  8
0
 10
1379.1730769230769
 20
441.42826021634613
 42
1
  0
VERTEX
  8
0
 10
1379.1730769230769
 20
461.42826021634613
 42
1
  0
SEQEND
  0
POLYLINE
  8
0
 10
0
 20
0
 39
0
 70
1
 66
1
  0
VERTEX
  8
0
 10
1430.4230769230769
 20
509.67307692307691
 42
-0
  0
VERTEX
  8
0
 10
1330.4230769230769
 20
509.67307692307691
 42
0
  0
VERTEX
  8
0
 10
1330.4230769230769
 20
528.67307692307691
 42
1
  0
VERTEX
  8
0
 10
1330.4230769230769
 20
560.67307692307691
 42
0
  0
VERTEX
  8
0
 10
1330.4230769230769
 20
579.67307692307691
 42
0
  0
VERTEX
  8
0
 10
1430.4230769230769
 20
579.67307692307691
 42
0
  0
SEQEND
  0
POLYLINE
  8
0
 10
0
 20
0
 39
0
 70
1
 66
1
  0
VERTEX
  8
0
 10
1375.8986628605769
 20
528.67307692307691
 42
1
  0
VERTEX
  8
0
 10
1355.8986628605769
 20
528.67307692307691
 42
1
  0
SEQEND
  0
POLYLINE
  8
0
 10
0
 20
0
 39
0
 70
1
 66
1
  0
VERTEX
  8
0
 10
1546.8846153846152
 20
450.30769230769232
 42
-0
  0
VERTEX
  8
0
 10
1546.8846153846152
 20
555.30769230769238
 42
-0
  0
VERTEX
  8
0
 10
1596.8846153846152
 20
555.30769230769238
 42
-0
  0
VERTEX
  8
0
 10
1596.8846153846152
 20
450.30769230769232
 42
-0
  0
SEQEND
  0
POLYLINE
  8
0
 10
0
 20
0
 39
0
 70
1
 66
1
  0
VERTEX
  8
0
 10
1571.8846153846152
 20
456.85323979304388
 42
1
  0
VERTEX
  8
0
 10
1571.8846153846152
 20
478.85323979304388
 42
1
  0
SEQEND
  0
POLYLINE
  8
0
 10
0
 20
0
 39
0
 70
1
 66
1
  0
VERTEX
  8
0
 10
1571.8846153846152
 20
526.76214482234082
 42
1
  0
VERTEX
  8
0
 10
1571.8846153846152
 20
548.76214482234082
 42
1
  0
SEQEND
  0
POLYLINE
  8
0
 10
0
 20
0
 39
0
 70
1
 66
1
  0
VERTEX
  8
0
 10
1661.3076923076922
 20
759.65384615384608
 42
-0
  0
VERTEX
  8
0
 10
1661.3076923076922
 20
864.65384615384608
 42
-0
  0
VERTEX
  8
0
 10
1711.3076923076922
 20
864.65384615384608
 42
-0
  0
VERTEX
  8
0
 10
1711.3076923076922
 20
759.65384615384608
 42
-0
  0
SEQEND
  0
POLYLINE
  8
0
 10
0
 20
0
 39
0
 70
1
 66
1
  0
VERTEX
  8
0
 10
1686.3076923076922
 20
766.19939363919764
 42
1
  0
VERTEX
  8
0
 10
1686.3076923076922
 20
788.19939363919764
 42
1
  0
SEQEND
  0
POLYLINE
  8
0
 10
0
 20
0
 39
0
 70
1
 66
1
  0
VERTEX
  8
0
 10
1686.3076923076922
 20
836.10829866849451
 42
1
  0
VERTEX
  8
0
 10
1686.3076923076922
 20
858.10829866849451
 42
1
  0
SEQEND
  0
POLYLINE
  8
0
 10
0
 20
0
 39
0
 70
1
 66
1
  0
VERTEX
  8
0
 10
1661.3076923076922
 20
874.75
 42
-0
  0
VERTEX
  8
0
 10
1661.3076923076922
 20
979.75
 42
-0
  0
VERTEX
  8
0
 10
1711.3076923076922
 20
979.75
 42
-0
  0
VERTEX
  8
0
 10
1711.3076923076922
 20
874.75
 42
-0
  0
SEQEND
  0
POLYLINE
  8
0
 10
0
 20
0
 39
0
 70
1
 66
1
  0
VERTEX
  8
0
 10
1686.3076923076922
 20
881.29554748535156
 42
1
  0
VERTEX
  8
0
 10
1686.3076923076922
 20
903.29554748535156
 42
1
  0
SEQEND
  0
POLYLINE
  8
0
 10
0
 20
0
 39
0
 70
1
 66
1
  0
VERTEX
  8
0
 10
1686.3076923076922
 20
951.20445251464844
 42
1
  0
VERTEX
  8
0
 10
1686.3076923076922
 20
973.20445251464844
 42
1
  0
SEQEND
  0
POLYLINE
  8
0
 10
0
 20
0
 39
0
 70
1
 66
1
  0
VERTEX
  8
0
 10
377.86538461538458
 20
989.76923076923072
 42
0
  0
VERTEX
  8
0
 10
377.86538461538458
 20
953.76923076923072
 42
0
  0
VERTEX
  8
0
 10
277.86538461538458
 20
953.76923076923072
 42
0
  0
VERTEX
  8
0
 10
277.86538461538458
 20
989.76923076923072
 42
0
  0
SEQEND
  0
POLYLINE
  8
0
 10
0
 20
0
 39
0
 70
1
 66
1
  0
VERTEX
  8
0
 10
338.86538461538458
 20
971.76923076923072
 42
1
  0
VERTEX
  8
0
 10
316.86538461538458
 20
971.76923076923072
 42
1
  0
SEQEND
  0
POLYLINE
  8
0
 10
0
 20
0
 39
0
 70
1
 66
1
  0
VERTEX
  8
0
 10
431.65384615384613
 20
85.5
 42
0
  0
VERTEX
  8
0
 10
395.65384615384613
 20
85.5
 42
0
  0
VERTEX
  8
0
 10
395.65384615384613
 20
185.5
 42
0
  0
VERTEX
  8
0
 10
431.65384615384613
 20
185.5
 42
0
  0
SEQEND
  0
POLYLINE
  8
0
 10
0
 20
0
 39
0
 70
1
 66
1
  0
VERTEX
  8
0
 10
413.65384615384613
 20
124.5
 42
1
  0
VERTEX
  8
0
 10
413.65384615384613
 20
146.5
 42
1
  0
SEQEND
  0
POLYLINE
  8
0
 10
0
 20
0
 39
0
 70
1
 66
1
  0
VERTEX
  8
0
 10
431.65384615384613
 20
195.61538461538461
 42
0
  0
VERTEX
  8
0
 10
395.65384615384613
 20
195.61538461538461
 42
0
  0
VERTEX
  8
0
 10
395.65384615384613
 20
295.61538461538464
 42
0
  0
VERTEX
  8
0
 10
431.65384615384613
 20
295.61538461538464
 42
0
  0
SEQEND
  0
POLYLINE
  8
0
 10
0
 20
0
 39
0
 70
1
 66
1
  0
VERTEX
  8
0
 10
413.65384615384613
 20
234.61538461538461
 42
1
  0
VERTEX
  8
0
 10
413.65384615384613
 20
256.61538461538464
 42
1
  0
SEQEND
  0
POLYLINE
  8
0
 10
0
 20
0
 39
0
 70
1
 66
1
  0
VERTEX
  8
0
 10
708.07692307692309
 20
989.76923076923072
 42
0
  0
VERTEX
  8
0
 10
708.07692307692309
 20
953.76923076923072
 42
0
  0
VERTEX
  8
0
 10
608.07692307692309
 20
953.76923076923072
 42
0
  0
VERTEX
  8
0
 10
608.07692307692309
 20
989.76923076923072
 42
0
  0
SEQEND
  0
POLYLINE
  8
0
 10
0
 20
0
 39
0
 70
1
 66
1
  0
VERTEX
  8
0
 10
669.07692307692309
 20
971.76923076923072
 42
1
  0
VERTEX
  8
0
 10
647.07692307692309
 20
971.76923076923072
 42
1
  0
SEQEND
  0
POLYLINE
  8
0
 10
0
 20
0
 39
0
 70
1
 66
1
  0
VERTEX
  8
0
 10
943.86538461538453
 20
85.5
 42
0
  0
VERTEX
  8
0
 10
907.86538461538453
 20
85.5
 42
0
  0
VERTEX
  8
0
 10
907.86538461538453
 20
185.5
 42
0
  0
VERTEX
  8
0
 10
943.86538461538453
 20
185.5
 42
0
  0
SEQEND
  0
POLYLINE
  8
0
 10
0
 20
0
 39
0
 70
1
 66
1
  0
VERTEX
  8
0
 10
925.86538461538453
 20
124.5
 42
1
  0
VERTEX
  8
0
 10
925.86538461538453
 20
146.5
 42
1
  0
SEQEND
  0
POLYLINE
  8
0
 10
0
 20
0
 39
0
 70
1
 66
1
  0
VERTEX
  8
0
 10
943.86538461538453
 20
195.61538461538461
 42
0
  0
VERTEX
  8
0
 10
907.86538461538453
 20
195.61538461538461
 42
0
  0
VERTEX
  8
0
 10
907.86538461538453
 20
295.61538461538464
 42
0
  0
VERTEX
  8
0
 10
943.86538461538453
 20
295.61538461538464
 42
0
  0
SEQEND
  0
POLYLINE
  8
0
 10
0
 20
0
 39
0
 70
1
 66
1
  0
VERTEX
  8
0
 10
925.86538461538453
 20
234.61538461538461
 42
1
  0
VERTEX
  8
0
 10
925.86538461538453
 20
256.61538461538464
 42
1
  0
SEQEND
  0
POLYLINE
  8
0
 10
0
 20
0
 39
0
 70
1
 66
1
  0
VERTEX
  8
0
 10
1038.2884615384614
 20
989.76923076923072
 42
0
  0
VERTEX
  8
0
 10
1038.2884615384614
 20
953.76923076923072
 42
0
  0
VERTEX
  8
0
 10
938.28846153846155
 20
953.76923076923072
 42
0
  0
VERTEX
  8
0
 10
938.28846153846155
 20
989.76923076923072
 42
0
  0
SEQEND
  0
POLYLINE
  8
0
 10
0
 20
0
 39
0
 70
1
 66
1
  0
VERTEX
  8
0
 10
999.28846153846155
 20
971.76923076923072
 42
1
  0
VERTEX
  8
0
 10
977.28846153846155
 20
971.76923076923072
 42
1
  0
SEQEND
  0
POLYLINE
  8
0
 10
0
 20
0
 39
0
 70
1
 66
1
  0
VERTEX
  8
0
 10
1368.5
 20
989.76923076923072
 42
0
  0
VERTEX
  8
0
 10
1368.5
 20
953.76923076923072
 42
0
  0
VERTEX
  8
0
 10
1268.5
 20
953.76923076923072
 42
0
  0
VERTEX
  8
0
 10
1268.5
 20
989.76923076923072
 42
0
  0
SEQEND
  0
POLYLINE
  8
0
 10
0
 20
0
 39
0
 70
1
 66
1
  0
VERTEX
  8
0
 10
1329.5
 20
971.76923076923072
 42
1
  0
VERTEX
  8
0
 10
1307.5
 20
971.76923076923072
 42
1
  0
SEQEND
  0
POLYLINE
  8
0
 10
0
 20
0
 39
0
 70
1
 66
1
  0
VERTEX
  8
0
 10
1456.0769230769231
 20
85.5
 42
0
  0
VERTEX
  8
0
 10
1420.0769230769231
 20
85.5
 42
0
  0
VERTEX
  8
0
 10
1420.0769230769231
 20
185.5
 42
0
  0
VERTEX
  8
0
 10
1456.0769230769231
 20
185.5
 42
0
  0
SEQEND
  0
POLYLINE
  8
0
 10
0
 20
0
 39
0
 70
1
 66
1
  0
VERTEX
  8
0
 10
1438.0769230769231
 20
124.5
 42
1
  0
VERTEX
  8
0
 10
1438.0769230769231
 20
146.5
 42
1
  0
SEQEND
  0
POLYLINE
  8
0
 10
0
 20
0
 39
0
 70
1
 66
1
  0
VERTEX
  8
0
 10
1456.0769230769231
 20
195.61538461538461
 42
0
  0
VERTEX
  8
0
 10
1420.0769230769231
 20
195.61538461538461
 42
0
  0
VERTEX
  8
0
 10
1420.0769230769231
 20
295.61538461538464
 42
0
  0
VERTEX
  8
0
 10
1456.0769230769231
 20
295.61538461538464
 42
0
  0
SEQEND
  0
POLYLINE
  8
0
 10
0
 20
0
 39
0
 70
1
 66
1
  0
VERTEX
  8
0
 10
1438.0769230769231
 20
234.61538461538461
 42
1
  0
VERTEX
  8
0
 10
1438.0769230769231
 20
256.61538461538464
 42
1
  0
SEQEND
  0
POLYLINE
  8
0
 10
0
 20
0
 39
0
 70
1
 66
1
  0
VERTEX
  8
0
 10
1603.75
 20
565.40384615384619
 42
0
  0
VERTEX
  8
0
 10
1567.75
 20
565.40384615384619
 42
0
  0
VERTEX
  8
0
 10
1567.75
 20
665.40384615384619
 42
0
  0
VERTEX
  8
0
 10
1603.75
 20
665.40384615384619
 42
0
  0
SEQEND
  0
POLYLINE
  8
0
 10
0
 20
0
 39
0
 70
1
 66
1
  0
VERTEX
  8
0
 10
1585.75
 20
604.40384615384619
 42
1
  0
VERTEX
  8
0
 10
1585.75
 20
626.40384615384619
 42
1
  0
SEQEND
  0
ENDSEC
  0
EOF
