  0
SECTION
  2
ENTITIES
  0
POLYLINE
  8
0
 10
0
 20
0
 39
0
 70
1
 66
1
  0
VERTEX
  8
0
 10
0
 20
0
 42
-0
  0
VERTEX
  8
0
 10
1200
 20
0
 42
-0
  0
VERTEX
  8
0
 10
1200
 20
700
 42
-0
  0
VERTEX
  8
0
 10
0
 20
700
 42
-0
  0
SEQEND
  0
POLYLINE
  8
0
 10
0
 20
0
 39
0
 70
1
 66
1
  0
VERTEX
  8
0
 10
197.16923522949219
 20
10.169230461120605
 42
-0
  0
VERTEX
  8
0
 10
384.16925048828125
 20
10.169230461120605
 42
-0
  0
VERTEX
  8
0
 10
384.16925048828125
 20
197.16923522949219
 42
2.4142136573791504
  0
SEQEND
  0
POLYLINE
  8
0
 10
0
 20
0
 39
0
 70
1
 66
1
  0
VERTEX
  8
0
 10
349.66925048828125
 20
197.16923522949219
 42
-1
  0
VERTEX
  8
0
 10
44.669242858886719
 20
197.16923522949219
 42
-1
  0
SEQEND
  0
POLYLINE
  8
0
 10
0
 20
0
 39
0
 70
1
 66
1
  0
VERTEX
  8
0
 10
430.06155395507812
 20
315.79998779296875
 42
-0
  0
VERTEX
  8
0
 10
617.0615234375
 20
315.79998779296875
 42
-0
  0
VERTEX
  8
0
 10
617.0615234375
 20
502.79998779296875
 42
2.4142136573791504
  0
SEQEND
  0
POLYLINE
  8
0
 10
0
 20
0
 39
0
 70
1
 66
1
  0
VERTEX
  8
0
 10
582.5615234375
 20
502.79998779296875
 42
-1
  0
VERTEX
  8
0
 10
277.56155395507812
 20
502.79998779296875
 42
-1
  0
SEQEND
  0
POLYLINE
  8
0
 10
0
 20
0
 39
0
 70
1
 66
1
  0
VERTEX
  8
0
 10
774.64617919921875
 20
10.169230461120605
 42
-0
  0
VERTEX
  8
0
 10
961.64617919921875
 20
10.169230461120605
 42
-0
  0
VERTEX
  8
0
 10
961.64617919921875
 20
197.16923522949219
 42
2.4142136573791504
  0
SEQEND
  0
POLYLINE
  8
0
 10
0
 20
0
 39
0
 70
1
 66
1
  0
VERTEX
  8
0
 10
927.14617919921875
 20
197.16923522949219
 42
-1
  0
VERTEX
  8
0
 10
622.14617919921875
 20
197.16923522949219
 42
-1
  0
SEQEND
  0
POLYLINE
  8
0
 10
0
 20
0
 39
0
 70
1
 66
1
  0
VERTEX
  8
0
 10
200.97293090820312
 20
609.71368408203125
 42
0.41824883222579956
  0
VERTEX
  8
0
 10
10.169230461120605
 20
609.71368408203125
 42
-0
  0
VERTEX
  8
0
 10
10.169230461120605
 20
421.51708984375
 42
0.41824883222579956
  0
VERTEX
  8
0
 10
200.97293090820312
 20
421.51708984375
 42
0
  0
SEQEND
  0
POLYLINE
  8
0
 10
0
 20
0
 39
0
 70
1
 66
1
  0
VERTEX
  8
0
 10
32.254558563232422
 20
556.611572265625
 42
-0
  0
VERTEX
  8
0
 10
105.57108306884766
 20
628.63128662109375
 42
0
  0
VERTEX
  8
0
 10
178.88761901855469
 20
556.611572265625
 42
-0
  0
VERTEX
  8
0
 10
178.88761901855469
 20
474.61920166015625
 42
-0
  0
VERTEX
  8
0
 10
105.57108306884766
 20
402.59945678710937
 42
0
  0
VERTEX
  8
0
 10
32.254558563232422
 20
474.61920166015625
 42
-0
  0
SEQEND
  0
POLYLINE
  8
0
 10
0
 20
0
 39
0
 70
1
 66
1
  0
VERTEX
  8
0
 10
281.28060913085937
 20
291.25213623046875
 42
0.41824883222579956
  0
VERTEX
  8
0
 10
90.476921081542969
 20
291.25213623046875
 42
-0
  0
VERTEX
  8
0
 10
90.476921081542969
 20
103.05555725097656
 42
0.41824883222579956
  0
VERTEX
  8
0
 10
281.28060913085937
 20
103.05555725097656
 42
0
  0
SEQEND
  0
POLYLINE
  8
0
 10
0
 20
0
 39
0
 70
1
 66
1
  0
VERTEX
  8
0
 10
112.56224822998047
 20
238.1500244140625
 42
-0
  0
VERTEX
  8
0
 10
185.8787841796875
 20
310.16976928710937
 42
0
  0
VERTEX
  8
0
 10
259.1953125
 20
238.1500244140625
 42
-0
  0
VERTEX
  8
0
 10
259.1953125
 20
156.15768432617187
 42
-0
  0
VERTEX
  8
0
 10
185.8787841796875
 20
84.137908935546875
 42
0
  0
VERTEX
  8
0
 10
112.56224822998047
 20
156.15768432617187
 42
-0
  0
SEQEND
  0
POLYLINE
  8
0
 10
0
 20
0
 39
0
 70
1
 66
1
  0
VERTEX
  8
0
 10
514.17291259765625
 20
596.8829345703125
 42
0.41824883222579956
  0
VERTEX
  8
0
 10
323.36923217773437
 20
596.8829345703125
 42
-0
  0
VERTEX
  8
0
 10
323.36923217773437
 20
408.68634033203125
 42
0.41824883222579956
  0
VERTEX
  8
0
 10
514.17291259765625
 20
408.68634033203125
 42
0
  0
SEQEND
  0
POLYLINE
  8
0
 10
0
 20
0
 39
0
 70
1
 66
1
  0
VERTEX
  8
0
 10
345.45455932617187
 20
543.78076171875
 42
-0
  0
VERTEX
  8
0
 10
418.77108764648437
 20
615.800537109375
 42
0
  0
VERTEX
  8
0
 10
492.08761596679687
 20
543.78076171875
 42
-0
  0
VERTEX
  8
0
 10
492.08761596679687
 20
461.7884521484375
 42
-0
  0
VERTEX
  8
0
 10
418.77108764648437
 20
389.7686767578125
 42
0
  0
VERTEX
  8
0
 10
345.45455932617187
 20
461.7884521484375
 42
-0
  0
SEQEND
  0
POLYLINE
  8
0
 10
0
 20
0
 39
0
 70
1
 66
1
  0
VERTEX
  8
0
 10
818.04986572265625
 20
618.48291015625
 42
0.41824883222579956
  0
VERTEX
  8
0
 10
627.24615478515625
 20
618.48291015625
 42
-0
  0
VERTEX
  8
0
 10
627.24615478515625
 20
430.28631591796875
 42
0.41824883222579956
  0
VERTEX
  8
0
 10
818.04986572265625
 20
430.28631591796875
 42
0
  0
SEQEND
  0
POLYLINE
  8
0
 10
0
 20
0
 39
0
 70
1
 66
1
  0
VERTEX
  8
0
 10
649.33148193359375
 20
565.38079833984375
 42
-0
  0
VERTEX
  8
0
 10
722.64801025390625
 20
637.40057373046875
 42
0
  0
VERTEX
  8
0
 10
795.96453857421875
 20
565.38079833984375
 42
-0
  0
VERTEX
  8
0
 10
795.96453857421875
 20
483.38845825195312
 42
-0
  0
VERTEX
  8
0
 10
722.64801025390625
 20
411.36868286132812
 42
0
  0
VERTEX
  8
0
 10
649.33148193359375
 20
483.38845825195312
 42
-0
  0
SEQEND
  0
POLYLINE
  8
0
 10
0
 20
0
 39
0
 70
1
 66
1
  0
VERTEX
  8
0
 10
858.757568359375
 20
291.25213623046875
 42
0.41824883222579956
  0
VERTEX
  8
0
 10
667.953857421875
 20
291.25213623046875
 42
-0
  0
VERTEX
  8
0
 10
667.953857421875
 20
103.05555725097656
 42
0.41824883222579956
  0
VERTEX
  8
0
 10
858.757568359375
 20
103.05555725097656
 42
0
  0
SEQEND
  0
POLYLINE
  8
0
 10
0
 20
0
 39
0
 70
1
 66
1
  0
VERTEX
  8
0
 10
690.0391845703125
 20
238.1500244140625
 42
-0
  0
VERTEX
  8
0
 10
763.355712890625
 20
310.16976928710937
 42
0
  0
VERTEX
  8
0
 10
836.6722412109375
 20
238.1500244140625
 42
-0
  0
VERTEX
  8
0
 10
836.6722412109375
 20
156.15768432617187
 42
-0
  0
VERTEX
  8
0
 10
763.355712890625
 20
84.137908935546875
 42
0
  0
VERTEX
  8
0
 10
690.0391845703125
 20
156.15768432617187
 42
-0
  0
SEQEND
  0
POLYLINE
  8
0
 10
0
 20
0
 39
0
 70
1
 66
1
  0
VERTEX
  8
0
 10
1018.911376953125
 20
587.19061279296875
 42
0.41824883222579956
  0
VERTEX
  8
0
 10
828.107666015625
 20
587.19061279296875
 42
-0
  0
VERTEX
  8
0
 10
828.107666015625
 20
398.9940185546875
 42
0.41824883222579956
  0
VERTEX
  8
0
 10
1018.911376953125
 20
398.9940185546875
 42
0
  0
SEQEND
  0
POLYLINE
  8
0
 10
0
 20
0
 39
0
 70
1
 66
1
  0
VERTEX
  8
0
 10
850.1929931640625
 20
534.0885009765625
 42
-0
  0
VERTEX
  8
0
 10
923.509521484375
 20
606.10821533203125
 42
0
  0
VERTEX
  8
0
 10
996.8260498046875
 20
534.0885009765625
 42
-0
  0
VERTEX
  8
0
 10
996.8260498046875
 20
452.09613037109375
 42
-0
  0
VERTEX
  8
0
 10
923.509521484375
 20
380.07638549804687
 42
0
  0
VERTEX
  8
0
 10
850.1929931640625
 20
452.09613037109375
 42
-0
  0
SEQEND
  0
POLYLINE
  8
0
 10
0
 20
0
 39
0
 70
1
 66
1
  0
VERTEX
  8
0
 10
542.35382080078125
 20
10.169230461120605
 42
-0
  0
VERTEX
  8
0
 10
542.35382080078125
 20
120.16922760009766
 42
0
  0
VERTEX
  8
0
 10
394.35385131835937
 20
65.169227600097656
 42
0
  0
VERTEX
  8
0
 10
394.35385131835937
 20
10.169230461120605
 42
0
  0
SEQEND
  0
POLYLINE
  8
0
 10
0
 20
0
 39
0
 70
1
 66
1
  0
VERTEX
  8
0
 10
516.00311279296875
 20
32.669231414794922
 42
-0
  0
VERTEX
  8
0
 10
445.00311279296875
 20
32.669231414794922
 42
-0
  0
VERTEX
  8
0
 10
445.00311279296875
 20
62.669231414794922
 42
-0
  0
VERTEX
  8
0
 10
491.00311279296875
 20
62.669231414794922
 42
-0
  0
VERTEX
  8
0
 10
491.00311279296875
 20
78.669227600097656
 42
-0
  0
VERTEX
  8
0
 10
516.00311279296875
 20
78.669227600097656
 42
-0
  0
SEQEND
  0
POLYLINE
  8
0
 10
0
 20
0
 39
0
 70
1
 66
1
  0
VERTEX
  8
0
 10
394.35385131835937
 20
186.05523681640625
 42
-0
  0
VERTEX
  8
0
 10
394.35385131835937
 20
76.055229187011719
 42
0
  0
VERTEX
  8
0
 10
542.35382080078125
 20
131.05523681640625
 42
0
  0
VERTEX
  8
0
 10
542.35382080078125
 20
186.05523681640625
 42
0
  0
SEQEND
  0
POLYLINE
  8
0
 10
0
 20
0
 39
0
 70
1
 66
1
  0
VERTEX
  8
0
 10
420.70458984375
 20
163.55523681640625
 42
-0
  0
VERTEX
  8
0
 10
491.70458984375
 20
163.55523681640625
 42
-0
  0
VERTEX
  8
0
 10
491.70458984375
 20
133.55523681640625
 42
-0
  0
VERTEX
  8
0
 10
445.70458984375
 20
133.55523681640625
 42
-0
  0
VERTEX
  8
0
 10
445.70458984375
 20
117.55522918701172
 42
-0
  0
VERTEX
  8
0
 10
420.70458984375
 20
117.55522918701172
 42
-0
  0
SEQEND
  0
POLYLINE
  8
0
 10
0
 20
0
 39
0
 70
1
 66
1
  0
VERTEX
  8
0
 10
1119.830810546875
 20
10.169230461120605
 42
-0
  0
VERTEX
  8
0
 10
1119.830810546875
 20
120.16922760009766
 42
0
  0
VERTEX
  8
0
 10
971.83074951171875
 20
65.169227600097656
 42
0
  0
VERTEX
  8
0
 10
971.83074951171875
 20
10.169230461120605
 42
0
  0
SEQEND
  0
POLYLINE
  8
0
 10
0
 20
0
 39
0
 70
1
 66
1
  0
VERTEX
  8
0
 10
1093.47998046875
 20
32.669231414794922
 42
-0
  0
VERTEX
  8
0
 10
1022.4800415039062
 20
32.669231414794922
 42
-0
  0
VERTEX
  8
0
 10
1022.4800415039062
 20
62.669231414794922
 42
-0
  0
VERTEX
  8
0
 10
1068.47998046875
 20
62.669231414794922
 42
-0
  0
VERTEX
  8
0
 10
1068.47998046875
 20
78.669227600097656
 42
-0
  0
VERTEX
  8
0
 10
1093.47998046875
 20
78.669227600097656
 42
-0
  0
SEQEND
  0
POLYLINE
  8
0
 10
0
 20
0
 39
0
 70
1
 66
1
  0
VERTEX
  8
0
 10
971.83074951171875
 20
186.05523681640625
 42
-0
  0
VERTEX
  8
0
 10
971.83074951171875
 20
76.055229187011719
 42
0
  0
VERTEX
  8
0
 10
1119.830810546875
 20
131.05523681640625
 42
0
  0
VERTEX
  8
0
 10
1119.830810546875
 20
186.05523681640625
 42
0
  0
SEQEND
  0
POLYLINE
  8
0
 10
0
 20
0
 39
0
 70
1
 66
1
  0
VERTEX
  8
0
 10
998.1815185546875
 20
163.55523681640625
 42
-0
  0
VERTEX
  8
0
 10
1069.1815185546875
 20
163.55523681640625
 42
-0
  0
VERTEX
  8
0
 10
1069.1815185546875
 20
133.55523681640625
 42
-0
  0
VERTEX
  8
0
 10
1023.1815185546875
 20
133.55523681640625
 42
-0
  0
VERTEX
  8
0
 10
1023.1815185546875
 20
117.55522918701172
 42
-0
  0
VERTEX
  8
0
 10
998.1815185546875
 20
117.55522918701172
 42
-0
  0
SEQEND
  0
POLYLINE
  8
0
 10
0
 20
0
 39
0
 70
1
 66
1
  0
VERTEX
  8
0
 10
971.4615478515625
 20
208.81538391113281
 42
-0
  0
VERTEX
  8
0
 10
1081.4615478515625
 20
208.81538391113281
 42
0
  0
VERTEX
  8
0
 10
1026.4615478515625
 20
356.81539916992187
 42
0
  0
VERTEX
  8
0
 10
971.4615478515625
 20
356.81539916992187
 42
0
  0
SEQEND
  0
POLYLINE
  8
0
 10
0
 20
0
 39
0
 70
1
 66
1
  0
VERTEX
  8
0
 10
993.9615478515625
 20
235.16612243652344
 42
-0
  0
VERTEX
  8
0
 10
993.9615478515625
 20
306.1661376953125
 42
-0
  0
VERTEX
  8
0
 10
1023.9615478515625
 20
306.1661376953125
 42
-0
  0
VERTEX
  8
0
 10
1023.9615478515625
 20
260.1661376953125
 42
-0
  0
VERTEX
  8
0
 10
1039.9615478515625
 20
260.1661376953125
 42
-0
  0
VERTEX
  8
0
 10
1039.9615478515625
 20
235.16612243652344
 42
-0
  0
SEQEND
  0
POLYLINE
  8
0
 10
0
 20
0
 39
0
 70
1
 66
1
  0
VERTEX
  8
0
 10
1147.3475341796875
 20
356.81539916992187
 42
-0
  0
VERTEX
  8
0
 10
1037.3475341796875
 20
356.81539916992187
 42
0
  0
VERTEX
  8
0
 10
1092.3475341796875
 20
208.81538391113281
 42
0
  0
VERTEX
  8
0
 10
1147.3475341796875
 20
208.81538391113281
 42
0
  0
SEQEND
  0
POLYLINE
  8
0
 10
0
 20
0
 39
0
 70
1
 66
1
  0
VERTEX
  8
0
 10
1124.8475341796875
 20
330.46466064453125
 42
-0
  0
VERTEX
  8
0
 10
1124.8475341796875
 20
259.46466064453125
 42
-0
  0
VERTEX
  8
0
 10
1094.8475341796875
 20
259.46466064453125
 42
-0
  0
VERTEX
  8
0
 10
1094.8475341796875
 20
305.46466064453125
 42
-0
  0
VERTEX
  8
0
 10
1078.8475341796875
 20
305.46466064453125
 42
-0
  0
VERTEX
  8
0
 10
1078.8475341796875
 20
330.46466064453125
 42
-0
  0
SEQEND
  0
POLYLINE
  8
0
 10
0
 20
0
 39
0
 70
1
 66
1
  0
VERTEX
  8
0
 10
167.38461303710937
 20
522.465087890625
 42
1
  0
VERTEX
  8
0
 10
42.384616851806641
 20
522.465087890625
 42
-0
  0
VERTEX
  8
0
 10
42.384616851806641
 20
505.22308349609375
 42
1
  0
VERTEX
  8
0
 10
167.38461303710937
 20
505.22308349609375
 42
0
  0
SEQEND
  0
POLYLINE
  8
0
 10
0
 20
0
 39
0
 70
1
 66
1
  0
VERTEX
  8
0
 10
156.88461303710937
 20
522.465087890625
 42
-0
  0
VERTEX
  8
0
 10
156.88461303710937
 20
505.22308349609375
 42
-1
  0
VERTEX
  8
0
 10
52.884616851806641
 20
505.22308349609375
 42
0
  0
VERTEX
  8
0
 10
52.884616851806641
 20
522.465087890625
 42
-1
  0
SEQEND
  0
POLYLINE
  8
0
 10
0
 20
0
 39
0
 70
1
 66
1
  0
VERTEX
  8
0
 10
247.69230651855469
 20
204.00357055664062
 42
1
  0
VERTEX
  8
0
 10
122.69230651855469
 20
204.00357055664062
 42
-0
  0
VERTEX
  8
0
 10
122.69230651855469
 20
186.76153564453125
 42
1
  0
VERTEX
  8
0
 10
247.69230651855469
 20
186.76153564453125
 42
0
  0
SEQEND
  0
POLYLINE
  8
0
 10
0
 20
0
 39
0
 70
1
 66
1
  0
VERTEX
  8
0
 10
237.19230651855469
 20
204.00357055664062
 42
-0
  0
VERTEX
  8
0
 10
237.19230651855469
 20
186.76153564453125
 42
-1
  0
VERTEX
  8
0
 10
133.19230651855469
 20
186.76153564453125
 42
0
  0
VERTEX
  8
0
 10
133.19230651855469
 20
204.00357055664062
 42
-1
  0
SEQEND
  0
POLYLINE
  8
0
 10
0
 20
0
 39
0
 70
1
 66
1
  0
VERTEX
  8
0
 10
480.58462524414062
 20
509.63433837890625
 42
1
  0
VERTEX
  8
0
 10
355.58462524414062
 20
509.63433837890625
 42
-0
  0
VERTEX
  8
0
 10
355.58462524414062
 20
492.39230346679688
 42
1
  0
VERTEX
  8
0
 10
480.58462524414062
 20
492.39230346679688
 42
0
  0
SEQEND
  0
POLYLINE
  8
0
 10
0
 20
0
 39
0
 70
1
 66
1
  0
VERTEX
  8
0
 10
470.08462524414062
 20
509.63433837890625
 42
-0
  0
VERTEX
  8
0
 10
470.08462524414062
 20
492.39230346679688
 42
-1
  0
VERTEX
  8
0
 10
366.08462524414062
 20
492.39230346679688
 42
0
  0
VERTEX
  8
0
 10
366.08462524414062
 20
509.63433837890625
 42
-1
  0
SEQEND
  0
POLYLINE
  8
0
 10
0
 20
0
 39
0
 70
1
 66
1
  0
VERTEX
  8
0
 10
784.4615478515625
 20
531.234375
 42
1
  0
VERTEX
  8
0
 10
659.4615478515625
 20
531.234375
 42
-0
  0
VERTEX
  8
0
 10
659.4615478515625
 20
513.9923095703125
 42
1
  0
VERTEX
  8
0
 10
784.4615478515625
 20
513.9923095703125
 42
0
  0
SEQEND
  0
POLYLINE
  8
0
 10
0
 20
0
 39
0
 70
1
 66
1
  0
VERTEX
  8
0
 10
773.9615478515625
 20
531.234375
 42
-0
  0
VERTEX
  8
0
 10
773.9615478515625
 20
513.9923095703125
 42
-1
  0
VERTEX
  8
0
 10
669.9615478515625
 20
513.9923095703125
 42
0
  0
VERTEX
  8
0
 10
669.9615478515625
 20
531.234375
 42
-1
  0
SEQEND
  0
POLYLINE
  8
0
 10
0
 20
0
 39
0
 70
1
 66
1
  0
VERTEX
  8
0
 10
825.16925048828125
 20
204.00357055664062
 42
1
  0
VERTEX
  8
0
 10
700.16925048828125
 20
204.00357055664062
 42
-0
  0
VERTEX
  8
0
 10
700.16925048828125
 20
186.76153564453125
 42
1
  0
VERTEX
  8
0
 10
825.16925048828125
 20
186.76153564453125
 42
0
  0
SEQEND
  0
POLYLINE
  8
0
 10
0
 20
0
 39
0
 70
1
 66
1
  0
VERTEX
  8
0
 10
814.66925048828125
 20
204.00357055664062
 42
-0
  0
VERTEX
  8
0
 10
814.66925048828125
 20
186.76153564453125
 42
-1
  0
VERTEX
  8
0
 10
710.66925048828125
 20
186.76153564453125
 42
0
  0
VERTEX
  8
0
 10
710.66925048828125
 20
204.00357055664062
 42
-1
  0
SEQEND
  0
POLYLINE
  8
0
 10
0
 20
0
 39
0
 70
1
 66
1
  0
VERTEX
  8
0
 10
985.32305908203125
 20
499.94204711914062
 42
1
  0
VERTEX
  8
0
 10
860.32305908203125
 20
499.94204711914062
 42
-0
  0
VERTEX
  8
0
 10
860.32305908203125
 20
482.70001220703125
 42
1
  0
VERTEX
  8
0
 10
985.32305908203125
 20
482.70001220703125
 42
0
  0
SEQEND
  0
POLYLINE
  8
0
 10
0
 20
0
 39
0
 70
1
 66
1
  0
VERTEX
  8
0
 10
974.82305908203125
 20
499.94204711914062
 42
-0
  0
VERTEX
  8
0
 10
974.82305908203125
 20
482.70001220703125
 42
-1
  0
VERTEX
  8
0
 10
870.82305908203125
 20
482.70001220703125
 42
0
  0
VERTEX
  8
0
 10
870.82305908203125
 20
499.94204711914062
 42
-1
  0
SEQEND
  0
POLYLINE
  8
0
 10
0
 20
0
 39
0
 70
1
 66
1
  0
VERTEX
  8
0
 10
495.58462524414062
 20
255.61538696289062
 42
-0
  0
VERTEX
  8
0
 10
495.58462524414062
 20
305.61538696289062
 42
-0
  0
VERTEX
  8
0
 10
385.58462524414062
 20
305.61538696289062
 42
-0
  0
VERTEX
  8
0
 10
385.58462524414062
 20
255.61538696289062
 42
0
  0
SEQEND
  0
POLYLINE
  8
0
 10
0
 20
0
 39
0
 70
1
 66
1
  0
VERTEX
  8
0
 10
480.79205322265625
 20
280.61538696289062
 42
-1
  0
VERTEX
  8
0
 10
454.79205322265625
 20
280.61538696289062
 42
-1
  0
SEQEND
  0
POLYLINE
  8
0
 10
0
 20
0
 39
0
 70
1
 66
1
  0
VERTEX
  8
0
 10
919.18463134765625
 20
639.79998779296875
 42
-0
  0
VERTEX
  8
0
 10
919.18463134765625
 20
689.79998779296875
 42
-0
  0
VERTEX
  8
0
 10
809.18463134765625
 20
689.79998779296875
 42
-0
  0
VERTEX
  8
0
 10
809.18463134765625
 20
639.79998779296875
 42
0
  0
SEQEND
  0
POLYLINE
  8
0
 10
0
 20
0
 39
0
 70
1
 66
1
  0
VERTEX
  8
0
 10
904.39202880859375
 20
664.79998779296875
 42
-1
  0
VERTEX
  8
0
 10
878.39202880859375
 20
664.79998779296875
 42
-1
  0
SEQEND
  0
POLYLINE
  8
0
 10
0
 20
0
 39
0
 70
1
 66
1
  0
VERTEX
  8
0
 10
1039.3692626953125
 20
637.123046875
 42
-0
  0
VERTEX
  8
0
 10
1039.3692626953125
 20
687.123046875
 42
-0
  0
VERTEX
  8
0
 10
929.36920166015625
 20
687.123046875
 42
-0
  0
VERTEX
  8
0
 10
929.36920166015625
 20
637.123046875
 42
0
  0
SEQEND
  0
POLYLINE
  8
0
 10
0
 20
0
 39
0
 70
1
 66
1
  0
VERTEX
  8
0
 10
1024.57666015625
 20
662.123046875
 42
-1
  0
VERTEX
  8
0
 10
998.57666015625
 20
662.123046875
 42
-1
  0
SEQEND
  0
POLYLINE
  8
0
 10
0
 20
0
 39
0
 70
1
 66
1
  0
VERTEX
  8
0
 10
1028.96923828125
 20
366.84616088867187
 42
-0
  0
VERTEX
  8
0
 10
1078.96923828125
 20
366.84616088867187
 42
-0
  0
VERTEX
  8
0
 10
1078.96923828125
 20
476.84616088867187
 42
-0
  0
VERTEX
  8
0
 10
1028.96923828125
 20
476.84616088867187
 42
0
  0
SEQEND
  0
POLYLINE
  8
0
 10
0
 20
0
 39
0
 70
1
 66
1
  0
VERTEX
  8
0
 10
1053.96923828125
 20
381.63870239257812
 42
-1
  0
VERTEX
  8
0
 10
1053.96923828125
 20
407.63870239257812
 42
-1
  0
SEQEND
  0
POLYLINE
  8
0
 10
0
 20
0
 39
0
 70
1
 66
1
  0
VERTEX
  8
0
 10
1028.96923828125
 20
486.9384765625
 42
-0
  0
VERTEX
  8
0
 10
1078.96923828125
 20
486.9384765625
 42
-0
  0
VERTEX
  8
0
 10
1078.96923828125
 20
596.9384765625
 42
-0
  0
VERTEX
  8
0
 10
1028.96923828125
 20
596.9384765625
 42
0
  0
SEQEND
  0
POLYLINE
  8
0
 10
0
 20
0
 39
0
 70
1
 66
1
  0
VERTEX
  8
0
 10
1053.96923828125
 20
501.73101806640625
 42
-1
  0
VERTEX
  8
0
 10
1053.96923828125
 20
527.73101806640625
 42
-1
  0
SEQEND
  0
POLYLINE
  8
0
 10
0
 20
0
 39
0
 70
1
 66
1
  0
VERTEX
  8
0
 10
1089.15380859375
 20
366.84616088867187
 42
-0
  0
VERTEX
  8
0
 10
1139.15380859375
 20
366.84616088867187
 42
-0
  0
VERTEX
  8
0
 10
1139.15380859375
 20
476.84616088867187
 42
-0
  0
VERTEX
  8
0
 10
1089.15380859375
 20
476.84616088867187
 42
0
  0
SEQEND
  0
POLYLINE
  8
0
 10
0
 20
0
 39
0
 70
1
 66
1
  0
VERTEX
  8
0
 10
1114.15380859375
 20
381.63870239257812
 42
-1
  0
VERTEX
  8
0
 10
1114.15380859375
 20
407.63870239257812
 42
-1
  0
SEQEND
  0
POLYLINE
  8
0
 10
0
 20
0
 39
0
 70
1
 66
1
  0
VERTEX
  8
0
 10
1089.15380859375
 20
486.9384765625
 42
-0
  0
VERTEX
  8
0
 10
1139.15380859375
 20
486.9384765625
 42
-0
  0
VERTEX
  8
0
 10
1139.15380859375
 20
596.9384765625
 42
-0
  0
VERTEX
  8
0
 10
1089.15380859375
 20
596.9384765625
 42
0
  0
SEQEND
  0
POLYLINE
  8
0
 10
0
 20
0
 39
0
 70
1
 66
1
  0
VERTEX
  8
0
 10
1114.15380859375
 20
501.73101806640625
 42
-1
  0
VERTEX
  8
0
 10
1114.15380859375
 20
527.73101806640625
 42
-1
  0
SEQEND
  0
POLYLINE
  8
0
 10
0
 20
0
 39
0
 70
1
 66
1
  0
VERTEX
  8
0
 10
1159.5538330078125
 20
607.03076171875
 42
-0
  0
VERTEX
  8
0
 10
1159.5538330078125
 20
657.03076171875
 42
-0
  0
VERTEX
  8
0
 10
1049.5538330078125
 20
657.03076171875
 42
-0
  0
VERTEX
  8
0
 10
1049.5538330078125
 20
607.03076171875
 42
0
  0
SEQEND
  0
POLYLINE
  8
0
 10
0
 20
0
 39
0
 70
1
 66
1
  0
VERTEX
  8
0
 10
1144.76123046875
 20
632.03076171875
 42
-1
  0
VERTEX
  8
0
 10
1118.76123046875
 20
632.03076171875
 42
-1
  0
SEQEND
  0
POLYLINE
  8
0
 10
0
 20
0
 39
0
 70
1
 66
1
  0
VERTEX
  8
0
 10
1129.953857421875
 20
10.169230461120605
 42
-0
  0
VERTEX
  8
0
 10
1179.953857421875
 20
10.169230461120605
 42
-0
  0
VERTEX
  8
0
 10
1179.953857421875
 20
120.16922760009766
 42
-0
  0
VERTEX
  8
0
 10
1129.953857421875
 20
120.16922760009766
 42
0
  0
SEQEND
  0
POLYLINE
  8
0
 10
0
 20
0
 39
0
 70
1
 66
1
  0
VERTEX
  8
0
 10
1154.953857421875
 20
24.961788177490234
 42
-1
  0
VERTEX
  8
0
 10
1154.953857421875
 20
50.961788177490234
 42
-1
  0
SEQEND
  0
POLYLINE
  8
0
 10
0
 20
0
 39
0
 70
1
 66
1
  0
VERTEX
  8
0
 10
135.18461608886719
 20
492.36892700195312
 42
-0
  0
VERTEX
  8
0
 10
135.18461608886719
 20
535.07720947265625
 42
0.11934766173362732
  0
VERTEX
  8
0
 10
121.53877258300781
 20
548.72308349609375
 42
-0
  0
VERTEX
  8
0
 10
78.830459594726563
 20
548.72308349609375
 42
0.11934766173362732
  0
VERTEX
  8
0
 10
65.184616088867187
 20
535.07720947265625
 42
-0
  0
VERTEX
  8
0
 10
65.184616088867187
 20
492.36892700195312
 42
0.11934766173362732
  0
VERTEX
  8
0
 10
78.830459594726563
 20
478.72308349609375
 42
0
  0
VERTEX
  8
0
 10
121.53877258300781
 20
478.72308349609375
 42
0.11934766173362732
  0
SEQEND
  0
POLYLINE
  8
0
 10
0
 20
0
 39
0
 70
1
 66
1
  0
VERTEX
  8
0
 10
108.93878173828125
 20
513.72308349609375
 42
-1
  0
VERTEX
  8
0
 10
76.93878173828125
 20
513.72308349609375
 42
-1
  0
SEQEND
  0
POLYLINE
  8
0
 10
0
 20
0
 39
0
 70
1
 66
1
  0
VERTEX
  8
0
 10
215.4923095703125
 20
173.90737915039062
 42
-0
  0
VERTEX
  8
0
 10
215.4923095703125
 20
216.61569213867187
 42
0.11934766173362732
  0
VERTEX
  8
0
 10
201.84646606445312
 20
230.26153564453125
 42
-0
  0
VERTEX
  8
0
 10
159.13815307617188
 20
230.26153564453125
 42
0.11934766173362732
  0
VERTEX
  8
0
 10
145.4923095703125
 20
216.61569213867187
 42
-0
  0
VERTEX
  8
0
 10
145.4923095703125
 20
173.90737915039062
 42
0.11934766173362732
  0
VERTEX
  8
0
 10
159.13815307617188
 20
160.26153564453125
 42
0
  0
VERTEX
  8
0
 10
201.84646606445312
 20
160.26153564453125
 42
0.11934766173362732
  0
SEQEND
  0
POLYLINE
  8
0
 10
0
 20
0
 39
0
 70
1
 66
1
  0
VERTEX
  8
0
 10
189.24647521972656
 20
195.26153564453125
 42
-1
  0
VERTEX
  8
0
 10
157.24647521972656
 20
195.26153564453125
 42
-1
  0
SEQEND
  0
POLYLINE
  8
0
 10
0
 20
0
 39
0
 70
1
 66
1
  0
VERTEX
  8
0
 10
262.75384521484375
 20
633.50738525390625
 42
-0
  0
VERTEX
  8
0
 10
262.75384521484375
 20
676.2156982421875
 42
0.11934766173362732
  0
VERTEX
  8
0
 10
249.10800170898437
 20
689.86151123046875
 42
-0
  0
VERTEX
  8
0
 10
206.39968872070312
 20
689.86151123046875
 42
0.11934766173362732
  0
VERTEX
  8
0
 10
192.75384521484375
 20
676.2156982421875
 42
-0
  0
VERTEX
  8
0
 10
192.75384521484375
 20
633.50738525390625
 42
0.11934766173362732
  0
VERTEX
  8
0
 10
206.39968872070312
 20
619.86151123046875
 42
0
  0
VERTEX
  8
0
 10
249.10800170898437
 20
619.86151123046875
 42
0.11934766173362732
  0
SEQEND
  0
POLYLINE
  8
0
 10
0
 20
0
 39
0
 70
1
 66
1
  0
VERTEX
  8
0
 10
236.50801086425781
 20
654.86151123046875
 42
-1
  0
VERTEX
  8
0
 10
204.50801086425781
 20
654.86151123046875
 42
-1
  0
SEQEND
  0
POLYLINE
  8
0
 10
0
 20
0
 39
0
 70
1
 66
1
  0
VERTEX
  8
0
 10
448.38461303710937
 20
479.53814697265625
 42
-0
  0
VERTEX
  8
0
 10
448.38461303710937
 20
522.2464599609375
 42
0.11934766173362732
  0
VERTEX
  8
0
 10
434.73876953125
 20
535.892333984375
 42
-0
  0
VERTEX
  8
0
 10
392.03045654296875
 20
535.892333984375
 42
0.11934766173362732
  0
VERTEX
  8
0
 10
378.38461303710938
 20
522.2464599609375
 42
-0
  0
VERTEX
  8
0
 10
378.38461303710938
 20
479.53814697265625
 42
0.11934766173362732
  0
VERTEX
  8
0
 10
392.03045654296875
 20
465.89230346679687
 42
0
  0
VERTEX
  8
0
 10
434.73876953125
 20
465.89230346679687
 42
0.11934766173362732
  0
SEQEND
  0
POLYLINE
  8
0
 10
0
 20
0
 39
0
 70
1
 66
1
  0
VERTEX
  8
0
 10
422.1387939453125
 20
500.89230346679687
 42
-1
  0
VERTEX
  8
0
 10
390.1387939453125
 20
500.89230346679687
 42
-1
  0
SEQEND
  0
POLYLINE
  8
0
 10
0
 20
0
 39
0
 70
1
 66
1
  0
VERTEX
  8
0
 10
575.4000244140625
 20
209.72276306152344
 42
-0
  0
VERTEX
  8
0
 10
575.4000244140625
 20
252.43107604980469
 42
0.11934766173362732
  0
VERTEX
  8
0
 10
561.754150390625
 20
266.07693481445312
 42
-0
  0
VERTEX
  8
0
 10
519.04583740234375
 20
266.07693481445312
 42
0.11934766173362732
  0
VERTEX
  8
0
 10
505.39999389648438
 20
252.43107604980469
 42
-0
  0
VERTEX
  8
0
 10
505.39999389648438
 20
209.72276306152344
 42
0.11934766173362732
  0
VERTEX
  8
0
 10
519.04583740234375
 20
196.07691955566406
 42
0
  0
VERTEX
  8
0
 10
561.754150390625
 20
196.07691955566406
 42
0.11934766173362732
  0
SEQEND
  0
POLYLINE
  8
0
 10
0
 20
0
 39
0
 70
1
 66
1
  0
VERTEX
  8
0
 10
549.1541748046875
 20
231.07691955566406
 42
-1
  0
VERTEX
  8
0
 10
517.1541748046875
 20
231.07691955566406
 42
-1
  0
SEQEND
  0
POLYLINE
  8
0
 10
0
 20
0
 39
0
 70
1
 66
1
  0
VERTEX
  8
0
 10
622.4769287109375
 20
23.815074920654297
 42
-0
  0
VERTEX
  8
0
 10
622.4769287109375
 20
66.523384094238281
 42
0.11934766173362732
  0
VERTEX
  8
0
 10
608.8310546875
 20
80.169227600097656
 42
-0
  0
VERTEX
  8
0
 10
566.12274169921875
 20
80.169227600097656
 42
0.11934766173362732
  0
VERTEX
  8
0
 10
552.4769287109375
 20
66.523384094238281
 42
-0
  0
VERTEX
  8
0
 10
552.4769287109375
 20
23.815074920654297
 42
0.11934766173362732
  0
VERTEX
  8
0
 10
566.12274169921875
 20
10.169230461120605
 42
0
  0
VERTEX
  8
0
 10
608.8310546875
 20
10.169230461120605
 42
0.11934766173362732
  0
SEQEND
  0
POLYLINE
  8
0
 10
0
 20
0
 39
0
 70
1
 66
1
  0
VERTEX
  8
0
 10
596.2310791015625
 20
45.169231414794922
 42
-1
  0
VERTEX
  8
0
 10
564.2310791015625
 20
45.169231414794922
 42
-1
  0
SEQEND
  0
POLYLINE
  8
0
 10
0
 20
0
 39
0
 70
1
 66
1
  0
VERTEX
  8
0
 10
752.26153564453125
 20
501.13815307617187
 42
-0
  0
VERTEX
  8
0
 10
752.26153564453125
 20
543.846435546875
 42
0.11934766173362732
  0
VERTEX
  8
0
 10
738.61572265625
 20
557.4923095703125
 42
-0
  0
VERTEX
  8
0
 10
695.90740966796875
 20
557.4923095703125
 42
0.11934766173362732
  0
VERTEX
  8
0
 10
682.26153564453125
 20
543.846435546875
 42
-0
  0
VERTEX
  8
0
 10
682.26153564453125
 20
501.13815307617187
 42
0.11934766173362732
  0
VERTEX
  8
0
 10
695.90740966796875
 20
487.4923095703125
 42
0
  0
VERTEX
  8
0
 10
738.61572265625
 20
487.4923095703125
 42
0.11934766173362732
  0
SEQEND
  0
POLYLINE
  8
0
 10
0
 20
0
 39
0
 70
1
 66
1
  0
VERTEX
  8
0
 10
726.01568603515625
 20
522.4923095703125
 42
-1
  0
VERTEX
  8
0
 10
694.01568603515625
 20
522.4923095703125
 42
-1
  0
SEQEND
  0
POLYLINE
  8
0
 10
0
 20
0
 39
0
 70
1
 66
1
  0
VERTEX
  8
0
 10
792.96923828125
 20
173.90737915039062
 42
-0
  0
VERTEX
  8
0
 10
792.96923828125
 20
216.61569213867187
 42
0.11934766173362732
  0
VERTEX
  8
0
 10
779.3233642578125
 20
230.26153564453125
 42
-0
  0
VERTEX
  8
0
 10
736.61505126953125
 20
230.26153564453125
 42
0.11934766173362732
  0
VERTEX
  8
0
 10
722.96923828125
 20
216.61569213867187
 42
-0
  0
VERTEX
  8
0
 10
722.96923828125
 20
173.90737915039062
 42
0.11934766173362732
  0
VERTEX
  8
0
 10
736.61505126953125
 20
160.26153564453125
 42
0
  0
VERTEX
  8
0
 10
779.3233642578125
 20
160.26153564453125
 42
0.11934766173362732
  0
SEQEND
  0
POLYLINE
  8
0
 10
0
 20
0
 39
0
 70
1
 66
1
  0
VERTEX
  8
0
 10
766.723388671875
 20
195.26153564453125
 42
-1
  0
VERTEX
  8
0
 10
734.723388671875
 20
195.26153564453125
 42
-1
  0
SEQEND
  0
POLYLINE
  8
0
 10
0
 20
0
 39
0
 70
1
 66
1
  0
VERTEX
  8
0
 10
953.123046875
 20
469.84585571289062
 42
-0
  0
VERTEX
  8
0
 10
953.123046875
 20
512.55413818359375
 42
0.11934766173362732
  0
VERTEX
  8
0
 10
939.47723388671875
 20
526.20001220703125
 42
-0
  0
VERTEX
  8
0
 10
896.7689208984375
 20
526.20001220703125
 42
0.11934766173362732
  0
VERTEX
  8
0
 10
883.123046875
 20
512.55413818359375
 42
-0
  0
VERTEX
  8
0
 10
883.123046875
 20
469.84585571289062
 42
0.11934766173362732
  0
VERTEX
  8
0
 10
896.7689208984375
 20
456.20001220703125
 42
0
  0
VERTEX
  8
0
 10
939.47723388671875
 20
456.20001220703125
 42
0.11934766173362732
  0
SEQEND
  0
POLYLINE
  8
0
 10
0
 20
0
 39
0
 70
1
 66
1
  0
VERTEX
  8
0
 10
926.87725830078125
 20
491.20001220703125
 42
-1
  0
VERTEX
  8
0
 10
894.87725830078125
 20
491.20001220703125
 42
-1
  0
SEQEND
  0
POLYLINE
  8
0
 10
0
 20
0
 39
0
 70
1
 66
1
  0
VERTEX
  8
0
 10
494.16921997070312
 20
204.38461303710937
 42
-0
  0
VERTEX
  8
0
 10
494.16921997070312
 20
244.38461303710937
 42
0
  0
VERTEX
  8
0
 10
487.65744018554687
 20
244.38461303710937
 42
-0.35743856430053711
  0
VERTEX
  8
0
 10
466.10519409179687
 20
244.38461303710937
 42
0
  0
VERTEX
  8
0
 10
422.2332763671875
 20
244.38461303710937
 42
-0.35743856430053711
  0
VERTEX
  8
0
 10
400.68099975585938
 20
244.38461303710937
 42
0
  0
VERTEX
  8
0
 10
394.16921997070312
 20
244.38461303710937
 42
0
  0
VERTEX
  8
0
 10
394.16921997070312
 20
204.38461303710937
 42
0
  0
VERTEX
  8
0
 10
400.68099975585938
 20
204.38461303710937
 42
-0.35743856430053711
  0
VERTEX
  8
0
 10
422.2332763671875
 20
204.38461303710937
 42
0
  0
VERTEX
  8
0
 10
466.10519409179687
 20
204.38461303710937
 42
-0.35743856430053711
  0
VERTEX
  8
0
 10
487.65744018554687
 20
204.38461303710937
 42
0
  0
SEQEND
  0
POLYLINE
  8
0
 10
0
 20
0
 39
0
 70
1
 66
1
  0
VERTEX
  8
0
 10
455.16921997070312
 20
224.38461303710937
 42
-1
  0
VERTEX
  8
0
 10
433.16921997070312
 20
224.38461303710937
 42
-1
  0
SEQEND
  0
POLYLINE
  8
0
 10
0
 20
0
 39
0
 70
1
 66
1
  0
VERTEX
  8
0
 10
1149.3385009765625
 20
366.84616088867187
 42
-0
  0
VERTEX
  8
0
 10
1189.3385009765625
 20
366.84616088867187
 42
0
  0
VERTEX
  8
0
 10
1189.3385009765625
 20
373.35794067382812
 42
-0.35743856430053711
  0
VERTEX
  8
0
 10
1189.3385009765625
 20
394.91018676757812
 42
0
  0
VERTEX
  8
0
 10
1189.3385009765625
 20
438.78213500976562
 42
-0.35743856430053711
  0
VERTEX
  8
0
 10
1189.3385009765625
 20
460.33438110351562
 42
0
  0
VERTEX
  8
0
 10
1189.3385009765625
 20
466.84616088867187
 42
0
  0
VERTEX
  8
0
 10
1149.3385009765625
 20
466.84616088867187
 42
0
  0
VERTEX
  8
0
 10
1149.3385009765625
 20
460.33438110351562
 42
-0.35743856430053711
  0
VERTEX
  8
0
 10
1149.3385009765625
 20
438.78213500976562
 42
0
  0
VERTEX
  8
0
 10
1149.3385009765625
 20
394.91018676757812
 42
-0.35743856430053711
  0
VERTEX
  8
0
 10
1149.3385009765625
 20
373.35794067382812
 42
0
  0
SEQEND
  0
POLYLINE
  8
0
 10
0
 20
0
 39
0
 70
1
 66
1
  0
VERTEX
  8
0
 10
1169.3385009765625
 20
405.84616088867187
 42
-1
  0
VERTEX
  8
0
 10
1169.3385009765625
 20
427.84616088867187
 42
-1
  0
SEQEND
  0
POLYLINE
  8
0
 10
0
 20
0
 39
0
 70
1
 66
1
  0
VERTEX
  8
0
 10
1149.3385009765625
 20
476.87692260742187
 42
-0
  0
VERTEX
  8
0
 10
1189.3385009765625
 20
476.87692260742187
 42
0
  0
VERTEX
  8
0
 10
1189.3385009765625
 20
483.38870239257812
 42
-0.35743856430053711
  0
VERTEX
  8
0
 10
1189.3385009765625
 20
504.94094848632813
 42
0
  0
VERTEX
  8
0
 10
1189.3385009765625
 20
548.8128662109375
 42
-0.35743856430053711
  0
VERTEX
  8
0
 10
1189.3385009765625
 20
570.36517333984375
 42
0
  0
VERTEX
  8
0
 10
1189.3385009765625
 20
576.876953125
 42
0
  0
VERTEX
  8
0
 10
1149.3385009765625
 20
576.876953125
 42
0
  0
VERTEX
  8
0
 10
1149.3385009765625
 20
570.36517333984375
 42
-0.35743856430053711
  0
VERTEX
  8
0
 10
1149.3385009765625
 20
548.8128662109375
 42
0
  0
VERTEX
  8
0
 10
1149.3385009765625
 20
504.94094848632813
 42
-0.35743856430053711
  0
VERTEX
  8
0
 10
1149.3385009765625
 20
483.38870239257812
 42
0
  0
SEQEND
  0
POLYLINE
  8
0
 10
0
 20
0
 39
0
 70
1
 66
1
  0
VERTEX
  8
0
 10
1169.3385009765625
 20
515.876953125
 42
-1
  0
VERTEX
  8
0
 10
1169.3385009765625
 20
537.876953125
 42
-1
  0
SEQEND
  0
POLYLINE
  8
0
 10
0
 20
0
 39
0
 70
1
 66
1
  0
VERTEX
  8
0
 10
115.16922760009766
 20
659.64617919921875
 42
-0
  0
VERTEX
  8
0
 10
115.16922760009766
 20
689.64617919921875
 42
-0
  0
VERTEX
  8
0
 10
10.169230461120605
 20
689.64617919921875
 42
0
  0
VERTEX
  8
0
 10
10.169230461120605
 20
659.64617919921875
 42
0
  0
SEQEND
  0
POLYLINE
  8
0
 10
0
 20
0
 39
0
 70
1
 66
1
  0
VERTEX
  8
0
 10
72.669227600097656
 20
674.64617919921875
 42
-1
  0
VERTEX
  8
0
 10
52.669231414794922
 20
674.64617919921875
 42
-1
  0
SEQEND
  0
POLYLINE
  8
0
 10
0
 20
0
 39
0
 70
1
 66
1
  0
VERTEX
  8
0
 10
291.33847045898437
 20
127.76923370361328
 42
-0
  0
VERTEX
  8
0
 10
321.33847045898437
 20
127.76923370361328
 42
-0
  0
VERTEX
  8
0
 10
321.33847045898437
 20
232.76922607421875
 42
0
  0
VERTEX
  8
0
 10
291.33847045898437
 20
232.76922607421875
 42
0
  0
SEQEND
  0
POLYLINE
  8
0
 10
0
 20
0
 39
0
 70
1
 66
1
  0
VERTEX
  8
0
 10
306.33847045898438
 20
170.26922607421875
 42
-1
  0
VERTEX
  8
0
 10
306.33847045898438
 20
190.26922607421875
 42
-1
  0
SEQEND
  0
POLYLINE
  8
0
 10
0
 20
0
 39
0
 70
1
 66
1
  0
VERTEX
  8
0
 10
524.23077392578125
 20
433.39999389648437
 42
-0
  0
VERTEX
  8
0
 10
554.23077392578125
 20
433.39999389648437
 42
-0
  0
VERTEX
  8
0
 10
554.23077392578125
 20
538.4000244140625
 42
0
  0
VERTEX
  8
0
 10
524.23077392578125
 20
538.4000244140625
 42
0
  0
SEQEND
  0
POLYLINE
  8
0
 10
0
 20
0
 39
0
 70
1
 66
1
  0
VERTEX
  8
0
 10
539.23077392578125
 20
475.89999389648437
 42
-1
  0
VERTEX
  8
0
 10
539.23077392578125
 20
495.89999389648437
 42
-1
  0
SEQEND
  0
POLYLINE
  8
0
 10
0
 20
0
 39
0
 70
1
 66
1
  0
VERTEX
  8
0
 10
654.33843994140625
 20
659.83074951171875
 42
-0
  0
VERTEX
  8
0
 10
654.33843994140625
 20
689.83074951171875
 42
-0
  0
VERTEX
  8
0
 10
549.33843994140625
 20
689.83074951171875
 42
0
  0
VERTEX
  8
0
 10
549.33843994140625
 20
659.83074951171875
 42
0
  0
SEQEND
  0
POLYLINE
  8
0
 10
0
 20
0
 39
0
 70
1
 66
1
  0
VERTEX
  8
0
 10
611.83843994140625
 20
674.83074951171875
 42
-1
  0
VERTEX
  8
0
 10
591.83843994140625
 20
674.83074951171875
 42
-1
  0
SEQEND
  0
POLYLINE
  8
0
 10
0
 20
0
 39
0
 70
1
 66
1
  0
VERTEX
  8
0
 10
868.81536865234375
 20
127.76923370361328
 42
-0
  0
VERTEX
  8
0
 10
898.81536865234375
 20
127.76923370361328
 42
-0
  0
VERTEX
  8
0
 10
898.81536865234375
 20
232.76922607421875
 42
0
  0
VERTEX
  8
0
 10
868.81536865234375
 20
232.76922607421875
 42
0
  0
SEQEND
  0
POLYLINE
  8
0
 10
0
 20
0
 39
0
 70
1
 66
1
  0
VERTEX
  8
0
 10
883.81536865234375
 20
170.26922607421875
 42
-1
  0
VERTEX
  8
0
 10
883.81536865234375
 20
190.26922607421875
 42
-1
  0
SEQEND
  0
POLYLINE
  8
0
 10
0
 20
0
 39
0
 70
1
 66
1
  0
VERTEX
  8
0
 10
1157.4615478515625
 20
130.26153564453125
 42
-0
  0
VERTEX
  8
0
 10
1187.4615478515625
 20
130.26153564453125
 42
-0
  0
VERTEX
  8
0
 10
1187.4615478515625
 20
235.26153564453125
 42
0
  0
VERTEX
  8
0
 10
1157.4615478515625
 20
235.26153564453125
 42
0
  0
SEQEND
  0
POLYLINE
  8
0
 10
0
 20
0
 39
0
 70
1
 66
1
  0
VERTEX
  8
0
 10
1172.4615478515625
 20
172.76153564453125
 42
-1
  0
VERTEX
  8
0
 10
1172.4615478515625
 20
192.76153564453125
 42
-1
  0
SEQEND
  0
POLYLINE
  8
0
 10
0
 20
0
 39
0
 70
1
 66
1
  0
VERTEX
  8
0
 10
1157.4615478515625
 20
245.27691650390625
 42
-0
  0
VERTEX
  8
0
 10
1187.4615478515625
 20
245.27691650390625
 42
-0
  0
VERTEX
  8
0
 10
1187.4615478515625
 20
350.27691650390625
 42
0
  0
VERTEX
  8
0
 10
1157.4615478515625
 20
350.27691650390625
 42
0
  0
SEQEND
  0
POLYLINE
  8
0
 10
0
 20
0
 39
0
 70
1
 66
1
  0
VERTEX
  8
0
 10
1172.4615478515625
 20
287.77691650390625
 42
-1
  0
VERTEX
  8
0
 10
1172.4615478515625
 20
307.77691650390625
 42
-1
  0
SEQEND
  0
ENDSEC
  0
EOF
