  0
SECTION
  2
ENTITIES
  0
POLYLINE
  8
0
 10
0
 20
0
 39
0
 70
1
 66
1
  0
VERTEX
  8
0
 10
0
 20
0
 42
-0
  0
VERTEX
  8
0
 10
1200
 20
0
 42
-0
  0
VERTEX
  8
0
 10
1200
 20
700
 42
-0
  0
VERTEX
  8
0
 10
0
 20
700
 42
-0
  0
SEQEND
  0
POLYLINE
  8
0
 10
0
 20
0
 39
0
 70
1
 66
1
  0
VERTEX
  8
0
 10
197.16000366210937
 20
10.159999847412109
 42
-0
  0
VERTEX
  8
0
 10
384.16000366210937
 20
10.159999847412109
 42
-0
  0
VERTEX
  8
0
 10
384.16000366210937
 20
197.16000366210937
 42
2.4142136573791504
  0
SEQEND
  0
POLYLINE
  8
0
 10
0
 20
0
 39
0
 70
1
 66
1
  0
VERTEX
  8
0
 10
349.66000366210937
 20
197.16000366210937
 42
-1
  0
VERTEX
  8
0
 10
44.660011291503906
 20
197.16000366210937
 42
-1
  0
SEQEND
  0
POLYLINE
  8
0
 10
0
 20
0
 39
0
 70
1
 66
1
  0
VERTEX
  8
0
 10
430.32000732421875
 20
315.67999267578125
 42
-0
  0
VERTEX
  8
0
 10
617.32000732421875
 20
315.67999267578125
 42
-0
  0
VERTEX
  8
0
 10
617.32000732421875
 20
502.67999267578125
 42
2.4142136573791504
  0
SEQEND
  0
POLYLINE
  8
0
 10
0
 20
0
 39
0
 70
1
 66
1
  0
VERTEX
  8
0
 10
582.82000732421875
 20
502.67999267578125
 42
-1
  0
VERTEX
  8
0
 10
277.82000732421875
 20
502.67999267578125
 42
-1
  0
SEQEND
  0
POLYLINE
  8
0
 10
0
 20
0
 39
0
 70
1
 66
1
  0
VERTEX
  8
0
 10
775.08001708984375
 20
10.159999847412109
 42
-0
  0
VERTEX
  8
0
 10
962.08001708984375
 20
10.159999847412109
 42
-0
  0
VERTEX
  8
0
 10
962.08001708984375
 20
197.16000366210937
 42
2.4142136573791504
  0
SEQEND
  0
POLYLINE
  8
0
 10
0
 20
0
 39
0
 70
1
 66
1
  0
VERTEX
  8
0
 10
927.58001708984375
 20
197.16000366210937
 42
-1
  0
VERTEX
  8
0
 10
622.58001708984375
 20
197.16000366210937
 42
-1
  0
SEQEND
  0
POLYLINE
  8
0
 10
0
 20
0
 39
0
 70
1
 66
1
  0
VERTEX
  8
0
 10
200.96369934082031
 20
609.7783203125
 42
0.41824883222579956
  0
VERTEX
  8
0
 10
10.159999847412109
 20
609.7783203125
 42
-0
  0
VERTEX
  8
0
 10
10.159999847412109
 20
421.58172607421875
 42
0.41824883222579956
  0
VERTEX
  8
0
 10
200.96369934082031
 20
421.58172607421875
 42
0
  0
SEQEND
  0
POLYLINE
  8
0
 10
0
 20
0
 39
0
 70
1
 66
1
  0
VERTEX
  8
0
 10
32.245326995849609
 20
556.6761474609375
 42
-0
  0
VERTEX
  8
0
 10
105.56185913085937
 20
628.6959228515625
 42
0
  0
VERTEX
  8
0
 10
178.87838745117187
 20
556.6761474609375
 42
-0
  0
VERTEX
  8
0
 10
178.87838745117187
 20
474.683837890625
 42
-0
  0
VERTEX
  8
0
 10
105.56185913085937
 20
402.6640625
 42
0
  0
VERTEX
  8
0
 10
32.245326995849609
 20
474.683837890625
 42
-0
  0
SEQEND
  0
POLYLINE
  8
0
 10
0
 20
0
 39
0
 70
1
 66
1
  0
VERTEX
  8
0
 10
281.36370849609375
 20
291.17828369140625
 42
0.41824883222579956
  0
VERTEX
  8
0
 10
90.55999755859375
 20
291.17828369140625
 42
-0
  0
VERTEX
  8
0
 10
90.55999755859375
 20
102.98171234130859
 42
0.41824883222579956
  0
VERTEX
  8
0
 10
281.36370849609375
 20
102.98171234130859
 42
0
  0
SEQEND
  0
POLYLINE
  8
0
 10
0
 20
0
 39
0
 70
1
 66
1
  0
VERTEX
  8
0
 10
112.64532470703125
 20
238.076171875
 42
-0
  0
VERTEX
  8
0
 10
185.96185302734375
 20
310.09591674804687
 42
0
  0
VERTEX
  8
0
 10
259.27838134765625
 20
238.076171875
 42
-0
  0
VERTEX
  8
0
 10
259.27838134765625
 20
156.08383178710937
 42
-0
  0
VERTEX
  8
0
 10
185.96185302734375
 20
84.064064025878906
 42
0
  0
VERTEX
  8
0
 10
112.64532470703125
 20
156.08383178710937
 42
-0
  0
SEQEND
  0
POLYLINE
  8
0
 10
0
 20
0
 39
0
 70
1
 66
1
  0
VERTEX
  8
0
 10
514.523681640625
 20
596.69830322265625
 42
0.41824883222579956
  0
VERTEX
  8
0
 10
323.72000122070313
 20
596.69830322265625
 42
-0
  0
VERTEX
  8
0
 10
323.72000122070313
 20
408.501708984375
 42
0.41824883222579956
  0
VERTEX
  8
0
 10
514.523681640625
 20
408.501708984375
 42
0
  0
SEQEND
  0
POLYLINE
  8
0
 10
0
 20
0
 39
0
 70
1
 66
1
  0
VERTEX
  8
0
 10
345.80532836914063
 20
543.59619140625
 42
-0
  0
VERTEX
  8
0
 10
419.12185668945312
 20
615.61590576171875
 42
0
  0
VERTEX
  8
0
 10
492.43838500976562
 20
543.59619140625
 42
-0
  0
VERTEX
  8
0
 10
492.43838500976562
 20
461.60382080078125
 42
-0
  0
VERTEX
  8
0
 10
419.12185668945312
 20
389.58407592773437
 42
0
  0
VERTEX
  8
0
 10
345.80532836914063
 20
461.60382080078125
 42
-0
  0
SEQEND
  0
POLYLINE
  8
0
 10
0
 20
0
 39
0
 70
1
 66
1
  0
VERTEX
  8
0
 10
818.36370849609375
 20
618.53826904296875
 42
0.41824883222579956
  0
VERTEX
  8
0
 10
627.55999755859375
 20
618.53826904296875
 42
-0
  0
VERTEX
  8
0
 10
627.55999755859375
 20
430.34170532226562
 42
0.41824883222579956
  0
VERTEX
  8
0
 10
818.36370849609375
 20
430.34170532226562
 42
0
  0
SEQEND
  0
POLYLINE
  8
0
 10
0
 20
0
 39
0
 70
1
 66
1
  0
VERTEX
  8
0
 10
649.64532470703125
 20
565.4361572265625
 42
-0
  0
VERTEX
  8
0
 10
722.96185302734375
 20
637.4559326171875
 42
0
  0
VERTEX
  8
0
 10
796.27838134765625
 20
565.4361572265625
 42
-0
  0
VERTEX
  8
0
 10
796.27838134765625
 20
483.44381713867187
 42
-0
  0
VERTEX
  8
0
 10
722.96185302734375
 20
411.424072265625
 42
0
  0
VERTEX
  8
0
 10
649.64532470703125
 20
483.44381713867187
 42
-0
  0
SEQEND
  0
POLYLINE
  8
0
 10
0
 20
0
 39
0
 70
1
 66
1
  0
VERTEX
  8
0
 10
859.28369140625
 20
291.17828369140625
 42
0.41824883222579956
  0
VERTEX
  8
0
 10
668.47998046875
 20
291.17828369140625
 42
-0
  0
VERTEX
  8
0
 10
668.47998046875
 20
102.98171234130859
 42
0.41824883222579956
  0
VERTEX
  8
0
 10
859.28369140625
 20
102.98171234130859
 42
0
  0
SEQEND
  0
POLYLINE
  8
0
 10
0
 20
0
 39
0
 70
1
 66
1
  0
VERTEX
  8
0
 10
690.5653076171875
 20
238.076171875
 42
-0
  0
VERTEX
  8
0
 10
763.8818359375
 20
310.09591674804687
 42
0
  0
VERTEX
  8
0
 10
837.1983642578125
 20
238.076171875
 42
-0
  0
VERTEX
  8
0
 10
837.1983642578125
 20
156.08383178710937
 42
-0
  0
VERTEX
  8
0
 10
763.8818359375
 20
84.064064025878906
 42
0
  0
VERTEX
  8
0
 10
690.5653076171875
 20
156.08383178710937
 42
-0
  0
SEQEND
  0
POLYLINE
  8
0
 10
0
 20
0
 39
0
 70
1
 66
1
  0
VERTEX
  8
0
 10
1019.3637084960937
 20
587.33831787109375
 42
0.41824883222579956
  0
VERTEX
  8
0
 10
828.55999755859375
 20
587.33831787109375
 42
-0
  0
VERTEX
  8
0
 10
828.55999755859375
 20
399.1417236328125
 42
0.41824883222579956
  0
VERTEX
  8
0
 10
1019.3637084960937
 20
399.1417236328125
 42
0
  0
SEQEND
  0
POLYLINE
  8
0
 10
0
 20
0
 39
0
 70
1
 66
1
  0
VERTEX
  8
0
 10
850.64532470703125
 20
534.23614501953125
 42
-0
  0
VERTEX
  8
0
 10
923.96185302734375
 20
606.25592041015625
 42
0
  0
VERTEX
  8
0
 10
997.27838134765625
 20
534.23614501953125
 42
-0
  0
VERTEX
  8
0
 10
997.27838134765625
 20
452.24383544921875
 42
-0
  0
VERTEX
  8
0
 10
923.96185302734375
 20
380.22406005859375
 42
0
  0
VERTEX
  8
0
 10
850.64532470703125
 20
452.24383544921875
 42
-0
  0
SEQEND
  0
POLYLINE
  8
0
 10
0
 20
0
 39
0
 70
1
 66
1
  0
VERTEX
  8
0
 10
1086.9200439453125
 20
345.16000366210937
 42
1
  0
VERTEX
  8
0
 10
996.91998291015625
 20
345.16000366210937
 42
0
  0
VERTEX
  8
0
 10
996.91998291015625
 20
55.159999847412109
 42
1
  0
VERTEX
  8
0
 10
1086.9200439453125
 20
55.159999847412109
 42
0
  0
SEQEND
  0
POLYLINE
  8
0
 10
0
 20
0
 39
0
 70
1
 66
1
  0
VERTEX
  8
0
 10
1041.9200439453125
 20
329.135009765625
 42
-1
  0
VERTEX
  8
0
 10
1041.9200439453125
 20
361.18499755859375
 42
-1
  0
SEQEND
  0
POLYLINE
  8
0
 10
0
 20
0
 39
0
 70
1
 66
1
  0
VERTEX
  8
0
 10
1041.9200439453125
 20
39.135002136230469
 42
-1
  0
VERTEX
  8
0
 10
1041.9200439453125
 20
71.185005187988281
 42
-1
  0
SEQEND
  0
POLYLINE
  8
0
 10
0
 20
0
 39
0
 70
1
 66
1
  0
VERTEX
  8
0
 10
1186.8800048828125
 20
644.08001708984375
 42
1
  0
VERTEX
  8
0
 10
1096.8800048828125
 20
644.08001708984375
 42
0
  0
VERTEX
  8
0
 10
1096.8800048828125
 20
354.07998657226562
 42
1
  0
VERTEX
  8
0
 10
1186.8800048828125
 20
354.07998657226562
 42
0
  0
SEQEND
  0
POLYLINE
  8
0
 10
0
 20
0
 39
0
 70
1
 66
1
  0
VERTEX
  8
0
 10
1141.8800048828125
 20
628.05499267578125
 42
-1
  0
VERTEX
  8
0
 10
1141.8800048828125
 20
660.10498046875
 42
-1
  0
SEQEND
  0
POLYLINE
  8
0
 10
0
 20
0
 39
0
 70
1
 66
1
  0
VERTEX
  8
0
 10
1141.8800048828125
 20
338.05499267578125
 42
-1
  0
VERTEX
  8
0
 10
1141.8800048828125
 20
370.10501098632812
 42
-1
  0
SEQEND
  0
POLYLINE
  8
0
 10
0
 20
0
 39
0
 70
1
 66
1
  0
VERTEX
  8
0
 10
542.4000244140625
 20
10.159999847412109
 42
-0
  0
VERTEX
  8
0
 10
542.4000244140625
 20
120.16000366210937
 42
0
  0
VERTEX
  8
0
 10
394.39999389648437
 20
65.160003662109375
 42
0
  0
VERTEX
  8
0
 10
394.39999389648437
 20
10.159999847412109
 42
0
  0
SEQEND
  0
POLYLINE
  8
0
 10
0
 20
0
 39
0
 70
1
 66
1
  0
VERTEX
  8
0
 10
516.04925537109375
 20
32.659999847412109
 42
-0
  0
VERTEX
  8
0
 10
445.04925537109375
 20
32.659999847412109
 42
-0
  0
VERTEX
  8
0
 10
445.04925537109375
 20
62.659999847412109
 42
-0
  0
VERTEX
  8
0
 10
491.04925537109375
 20
62.659999847412109
 42
-0
  0
VERTEX
  8
0
 10
491.04925537109375
 20
78.660003662109375
 42
-0
  0
VERTEX
  8
0
 10
516.04925537109375
 20
78.660003662109375
 42
-0
  0
SEQEND
  0
POLYLINE
  8
0
 10
0
 20
0
 39
0
 70
1
 66
1
  0
VERTEX
  8
0
 10
394.39999389648437
 20
186.04600524902344
 42
-0
  0
VERTEX
  8
0
 10
394.39999389648437
 20
76.045997619628906
 42
0
  0
VERTEX
  8
0
 10
542.4000244140625
 20
131.04600524902344
 42
0
  0
VERTEX
  8
0
 10
542.4000244140625
 20
186.04600524902344
 42
0
  0
SEQEND
  0
POLYLINE
  8
0
 10
0
 20
0
 39
0
 70
1
 66
1
  0
VERTEX
  8
0
 10
420.750732421875
 20
163.54600524902344
 42
-0
  0
VERTEX
  8
0
 10
491.750732421875
 20
163.54600524902344
 42
-0
  0
VERTEX
  8
0
 10
491.750732421875
 20
133.54600524902344
 42
-0
  0
VERTEX
  8
0
 10
445.750732421875
 20
133.54600524902344
 42
-0
  0
VERTEX
  8
0
 10
445.750732421875
 20
117.54599761962891
 42
-0
  0
VERTEX
  8
0
 10
420.750732421875
 20
117.54599761962891
 42
-0
  0
SEQEND
  0
POLYLINE
  8
0
 10
0
 20
0
 39
0
 70
1
 66
1
  0
VERTEX
  8
0
 10
167.44000244140625
 20
522.50201416015625
 42
1
  0
VERTEX
  8
0
 10
42.439998626708984
 20
522.50201416015625
 42
-0
  0
VERTEX
  8
0
 10
42.439998626708984
 20
505.260009765625
 42
1
  0
VERTEX
  8
0
 10
167.44000244140625
 20
505.260009765625
 42
0
  0
SEQEND
  0
POLYLINE
  8
0
 10
0
 20
0
 39
0
 70
1
 66
1
  0
VERTEX
  8
0
 10
156.94000244140625
 20
522.50201416015625
 42
-0
  0
VERTEX
  8
0
 10
156.94000244140625
 20
505.260009765625
 42
-1
  0
VERTEX
  8
0
 10
52.939998626708984
 20
505.260009765625
 42
0
  0
VERTEX
  8
0
 10
52.939998626708984
 20
522.50201416015625
 42
-1
  0
SEQEND
  0
POLYLINE
  8
0
 10
0
 20
0
 39
0
 70
1
 66
1
  0
VERTEX
  8
0
 10
247.83999633789062
 20
203.90203857421875
 42
1
  0
VERTEX
  8
0
 10
122.83999633789062
 20
203.90203857421875
 42
-0
  0
VERTEX
  8
0
 10
122.83999633789062
 20
186.66000366210937
 42
1
  0
VERTEX
  8
0
 10
247.83999633789062
 20
186.66000366210937
 42
0
  0
SEQEND
  0
POLYLINE
  8
0
 10
0
 20
0
 39
0
 70
1
 66
1
  0
VERTEX
  8
0
 10
237.33999633789062
 20
203.90203857421875
 42
-0
  0
VERTEX
  8
0
 10
237.33999633789062
 20
186.66000366210937
 42
-1
  0
VERTEX
  8
0
 10
133.33999633789062
 20
186.66000366210937
 42
0
  0
VERTEX
  8
0
 10
133.33999633789062
 20
203.90203857421875
 42
-1
  0
SEQEND
  0
POLYLINE
  8
0
 10
0
 20
0
 39
0
 70
1
 66
1
  0
VERTEX
  8
0
 10
481
 20
509.42202758789063
 42
1
  0
VERTEX
  8
0
 10
356
 20
509.42202758789063
 42
-0
  0
VERTEX
  8
0
 10
356
 20
492.17999267578125
 42
1
  0
VERTEX
  8
0
 10
481
 20
492.17999267578125
 42
0
  0
SEQEND
  0
POLYLINE
  8
0
 10
0
 20
0
 39
0
 70
1
 66
1
  0
VERTEX
  8
0
 10
470.5
 20
509.42202758789063
 42
-0
  0
VERTEX
  8
0
 10
470.5
 20
492.17999267578125
 42
-1
  0
VERTEX
  8
0
 10
366.5
 20
492.17999267578125
 42
0
  0
VERTEX
  8
0
 10
366.5
 20
509.42202758789063
 42
-1
  0
SEQEND
  0
POLYLINE
  8
0
 10
0
 20
0
 39
0
 70
1
 66
1
  0
VERTEX
  8
0
 10
784.84002685546875
 20
531.26202392578125
 42
1
  0
VERTEX
  8
0
 10
659.84002685546875
 20
531.26202392578125
 42
-0
  0
VERTEX
  8
0
 10
659.84002685546875
 20
514.02001953125
 42
1
  0
VERTEX
  8
0
 10
784.84002685546875
 20
514.02001953125
 42
0
  0
SEQEND
  0
POLYLINE
  8
0
 10
0
 20
0
 39
0
 70
1
 66
1
  0
VERTEX
  8
0
 10
774.34002685546875
 20
531.26202392578125
 42
-0
  0
VERTEX
  8
0
 10
774.34002685546875
 20
514.02001953125
 42
-1
  0
VERTEX
  8
0
 10
670.34002685546875
 20
514.02001953125
 42
0
  0
VERTEX
  8
0
 10
670.34002685546875
 20
531.26202392578125
 42
-1
  0
SEQEND
  0
POLYLINE
  8
0
 10
0
 20
0
 39
0
 70
1
 66
1
  0
VERTEX
  8
0
 10
825.760009765625
 20
203.90203857421875
 42
1
  0
VERTEX
  8
0
 10
700.760009765625
 20
203.90203857421875
 42
-0
  0
VERTEX
  8
0
 10
700.760009765625
 20
186.66000366210937
 42
1
  0
VERTEX
  8
0
 10
825.760009765625
 20
186.66000366210937
 42
0
  0
SEQEND
  0
POLYLINE
  8
0
 10
0
 20
0
 39
0
 70
1
 66
1
  0
VERTEX
  8
0
 10
815.260009765625
 20
203.90203857421875
 42
-0
  0
VERTEX
  8
0
 10
815.260009765625
 20
186.66000366210937
 42
-1
  0
VERTEX
  8
0
 10
711.260009765625
 20
186.66000366210937
 42
0
  0
VERTEX
  8
0
 10
711.260009765625
 20
203.90203857421875
 42
-1
  0
SEQEND
  0
POLYLINE
  8
0
 10
0
 20
0
 39
0
 70
1
 66
1
  0
VERTEX
  8
0
 10
985.84002685546875
 20
500.06204223632812
 42
1
  0
VERTEX
  8
0
 10
860.84002685546875
 20
500.06204223632812
 42
-0
  0
VERTEX
  8
0
 10
860.84002685546875
 20
482.82000732421875
 42
1
  0
VERTEX
  8
0
 10
985.84002685546875
 20
482.82000732421875
 42
0
  0
SEQEND
  0
POLYLINE
  8
0
 10
0
 20
0
 39
0
 70
1
 66
1
  0
VERTEX
  8
0
 10
975.34002685546875
 20
500.06204223632812
 42
-0
  0
VERTEX
  8
0
 10
975.34002685546875
 20
482.82000732421875
 42
-1
  0
VERTEX
  8
0
 10
871.34002685546875
 20
482.82000732421875
 42
0
  0
VERTEX
  8
0
 10
871.34002685546875
 20
500.06204223632812
 42
-1
  0
SEQEND
  0
POLYLINE
  8
0
 10
0
 20
0
 39
0
 70
1
 66
1
  0
VERTEX
  8
0
 10
394.39999389648437
 20
196.16000366210937
 42
0
  0
VERTEX
  8
0
 10
542.4000244140625
 20
196.16000366210937
 42
0
  0
VERTEX
  8
0
 10
542.4000244140625
 20
251.16000366210937
 42
0
  0
VERTEX
  8
0
 10
394.39999389648437
 20
306.16000366210937
 42
-0
  0
SEQEND
  0
POLYLINE
  8
0
 10
0
 20
0
 39
0
 70
1
 66
1
  0
VERTEX
  8
0
 10
420.750732421875
 20
218.66000366210937
 42
-0
  0
VERTEX
  8
0
 10
420.750732421875
 20
264.66000366210937
 42
-0
  0
VERTEX
  8
0
 10
445.750732421875
 20
264.66000366210937
 42
-0
  0
VERTEX
  8
0
 10
445.750732421875
 20
248.66000366210937
 42
-0
  0
VERTEX
  8
0
 10
491.750732421875
 20
248.66000366210937
 42
-0
  0
VERTEX
  8
0
 10
491.750732421875
 20
218.66000366210937
 42
-0
  0
SEQEND
  0
POLYLINE
  8
0
 10
0
 20
0
 39
0
 70
1
 66
1
  0
VERTEX
  8
0
 10
919.84002685546875
 20
639.67999267578125
 42
-0
  0
VERTEX
  8
0
 10
919.84002685546875
 20
689.67999267578125
 42
-0
  0
VERTEX
  8
0
 10
809.84002685546875
 20
689.67999267578125
 42
-0
  0
VERTEX
  8
0
 10
809.84002685546875
 20
639.67999267578125
 42
0
  0
SEQEND
  0
POLYLINE
  8
0
 10
0
 20
0
 39
0
 70
1
 66
1
  0
VERTEX
  8
0
 10
905.04742431640625
 20
664.67999267578125
 42
-1
  0
VERTEX
  8
0
 10
879.04742431640625
 20
664.67999267578125
 42
-1
  0
SEQEND
  0
POLYLINE
  8
0
 10
0
 20
0
 39
0
 70
1
 66
1
  0
VERTEX
  8
0
 10
1040.0799560546875
 20
637.280029296875
 42
-0
  0
VERTEX
  8
0
 10
1040.0799560546875
 20
687.280029296875
 42
-0
  0
VERTEX
  8
0
 10
930.08001708984375
 20
687.280029296875
 42
-0
  0
VERTEX
  8
0
 10
930.08001708984375
 20
637.280029296875
 42
0
  0
SEQEND
  0
POLYLINE
  8
0
 10
0
 20
0
 39
0
 70
1
 66
1
  0
VERTEX
  8
0
 10
1025.2874755859375
 20
662.280029296875
 42
-1
  0
VERTEX
  8
0
 10
999.28741455078125
 20
662.280029296875
 42
-1
  0
SEQEND
  0
POLYLINE
  8
0
 10
0
 20
0
 39
0
 70
1
 66
1
  0
VERTEX
  8
0
 10
135.36000061035156
 20
492.40585327148437
 42
-0
  0
VERTEX
  8
0
 10
135.36000061035156
 20
535.1141357421875
 42
0.11934766173362732
  0
VERTEX
  8
0
 10
121.71415710449219
 20
548.760009765625
 42
-0
  0
VERTEX
  8
0
 10
79.005844116210937
 20
548.760009765625
 42
0.11934766173362732
  0
VERTEX
  8
0
 10
65.360000610351562
 20
535.1141357421875
 42
-0
  0
VERTEX
  8
0
 10
65.360000610351562
 20
492.40585327148437
 42
0.11934766173362732
  0
VERTEX
  8
0
 10
79.005844116210937
 20
478.760009765625
 42
0
  0
VERTEX
  8
0
 10
121.71415710449219
 20
478.760009765625
 42
0.11934766173362732
  0
SEQEND
  0
POLYLINE
  8
0
 10
0
 20
0
 39
0
 70
1
 66
1
  0
VERTEX
  8
0
 10
109.11416625976562
 20
513.760009765625
 42
-1
  0
VERTEX
  8
0
 10
77.114166259765625
 20
513.760009765625
 42
-1
  0
SEQEND
  0
POLYLINE
  8
0
 10
0
 20
0
 39
0
 70
1
 66
1
  0
VERTEX
  8
0
 10
215.75999450683594
 20
173.80584716796875
 42
-0
  0
VERTEX
  8
0
 10
215.75999450683594
 20
216.51416015625
 42
0.11934766173362732
  0
VERTEX
  8
0
 10
202.11415100097656
 20
230.16000366210937
 42
-0
  0
VERTEX
  8
0
 10
159.40583801269531
 20
230.16000366210937
 42
0.11934766173362732
  0
VERTEX
  8
0
 10
145.75999450683594
 20
216.51416015625
 42
-0
  0
VERTEX
  8
0
 10
145.75999450683594
 20
173.80584716796875
 42
0.11934766173362732
  0
VERTEX
  8
0
 10
159.40583801269531
 20
160.16000366210937
 42
0
  0
VERTEX
  8
0
 10
202.11415100097656
 20
160.16000366210937
 42
0.11934766173362732
  0
SEQEND
  0
POLYLINE
  8
0
 10
0
 20
0
 39
0
 70
1
 66
1
  0
VERTEX
  8
0
 10
189.51416015625
 20
195.16000366210937
 42
-1
  0
VERTEX
  8
0
 10
157.51416015625
 20
195.16000366210937
 42
-1
  0
SEQEND
  0
POLYLINE
  8
0
 10
0
 20
0
 39
0
 70
1
 66
1
  0
VERTEX
  8
0
 10
263.04000854492188
 20
633.40582275390625
 42
-0
  0
VERTEX
  8
0
 10
263.04000854492188
 20
676.1141357421875
 42
0.11934766173362732
  0
VERTEX
  8
0
 10
249.39414978027344
 20
689.760009765625
 42
-0
  0
VERTEX
  8
0
 10
206.68583679199219
 20
689.760009765625
 42
0.11934766173362732
  0
VERTEX
  8
0
 10
193.03999328613281
 20
676.1141357421875
 42
-0
  0
VERTEX
  8
0
 10
193.03999328613281
 20
633.40582275390625
 42
0.11934766173362732
  0
VERTEX
  8
0
 10
206.68583679199219
 20
619.760009765625
 42
0
  0
VERTEX
  8
0
 10
249.39414978027344
 20
619.760009765625
 42
0.11934766173362732
  0
SEQEND
  0
POLYLINE
  8
0
 10
0
 20
0
 39
0
 70
1
 66
1
  0
VERTEX
  8
0
 10
236.79417419433594
 20
654.760009765625
 42
-1
  0
VERTEX
  8
0
 10
204.79415893554688
 20
654.760009765625
 42
-1
  0
SEQEND
  0
POLYLINE
  8
0
 10
0
 20
0
 39
0
 70
1
 66
1
  0
VERTEX
  8
0
 10
448.92001342773437
 20
479.32583618164062
 42
-0
  0
VERTEX
  8
0
 10
448.92001342773437
 20
522.0341796875
 42
0.11934766173362732
  0
VERTEX
  8
0
 10
435.274169921875
 20
535.67999267578125
 42
-0
  0
VERTEX
  8
0
 10
392.56585693359375
 20
535.67999267578125
 42
0.11934766173362732
  0
VERTEX
  8
0
 10
378.92001342773437
 20
522.0341796875
 42
-0
  0
VERTEX
  8
0
 10
378.92001342773437
 20
479.32583618164062
 42
0.11934766173362732
  0
VERTEX
  8
0
 10
392.56585693359375
 20
465.67999267578125
 42
0
  0
VERTEX
  8
0
 10
435.274169921875
 20
465.67999267578125
 42
0.11934766173362732
  0
SEQEND
  0
POLYLINE
  8
0
 10
0
 20
0
 39
0
 70
1
 66
1
  0
VERTEX
  8
0
 10
422.67416381835937
 20
500.67999267578125
 42
-1
  0
VERTEX
  8
0
 10
390.67416381835937
 20
500.67999267578125
 42
-1
  0
SEQEND
  0
POLYLINE
  8
0
 10
0
 20
0
 39
0
 70
1
 66
1
  0
VERTEX
  8
0
 10
622.55999755859375
 20
23.805843353271484
 42
-0
  0
VERTEX
  8
0
 10
622.55999755859375
 20
66.51416015625
 42
0.11934766173362732
  0
VERTEX
  8
0
 10
608.9141845703125
 20
80.160003662109375
 42
-0
  0
VERTEX
  8
0
 10
566.20587158203125
 20
80.160003662109375
 42
0.11934766173362732
  0
VERTEX
  8
0
 10
552.55999755859375
 20
66.51416015625
 42
-0
  0
VERTEX
  8
0
 10
552.55999755859375
 20
23.805843353271484
 42
0.11934766173362732
  0
VERTEX
  8
0
 10
566.20587158203125
 20
10.159999847412109
 42
0
  0
VERTEX
  8
0
 10
608.9141845703125
 20
10.159999847412109
 42
0.11934766173362732
  0
SEQEND
  0
POLYLINE
  8
0
 10
0
 20
0
 39
0
 70
1
 66
1
  0
VERTEX
  8
0
 10
596.31414794921875
 20
45.159999847412109
 42
-1
  0
VERTEX
  8
0
 10
564.31414794921875
 20
45.159999847412109
 42
-1
  0
SEQEND
  0
POLYLINE
  8
0
 10
0
 20
0
 39
0
 70
1
 66
1
  0
VERTEX
  8
0
 10
752.760009765625
 20
501.16583251953125
 42
-0
  0
VERTEX
  8
0
 10
752.760009765625
 20
543.8741455078125
 42
0.11934766173362732
  0
VERTEX
  8
0
 10
739.1141357421875
 20
557.52001953125
 42
-0
  0
VERTEX
  8
0
 10
696.40582275390625
 20
557.52001953125
 42
0.11934766173362732
  0
VERTEX
  8
0
 10
682.760009765625
 20
543.8741455078125
 42
-0
  0
VERTEX
  8
0
 10
682.760009765625
 20
501.16583251953125
 42
0.11934766173362732
  0
VERTEX
  8
0
 10
696.40582275390625
 20
487.51998901367187
 42
0
  0
VERTEX
  8
0
 10
739.1141357421875
 20
487.51998901367187
 42
0.11934766173362732
  0
SEQEND
  0
POLYLINE
  8
0
 10
0
 20
0
 39
0
 70
1
 66
1
  0
VERTEX
  8
0
 10
726.51416015625
 20
522.52001953125
 42
-1
  0
VERTEX
  8
0
 10
694.51416015625
 20
522.52001953125
 42
-1
  0
SEQEND
  0
POLYLINE
  8
0
 10
0
 20
0
 39
0
 70
1
 66
1
  0
VERTEX
  8
0
 10
793.67999267578125
 20
173.80584716796875
 42
-0
  0
VERTEX
  8
0
 10
793.67999267578125
 20
216.51416015625
 42
0.11934766173362732
  0
VERTEX
  8
0
 10
780.0341796875
 20
230.16000366210937
 42
-0
  0
VERTEX
  8
0
 10
737.32586669921875
 20
230.16000366210937
 42
0.11934766173362732
  0
VERTEX
  8
0
 10
723.67999267578125
 20
216.51416015625
 42
-0
  0
VERTEX
  8
0
 10
723.67999267578125
 20
173.80584716796875
 42
0.11934766173362732
  0
VERTEX
  8
0
 10
737.32586669921875
 20
160.16000366210937
 42
0
  0
VERTEX
  8
0
 10
780.0341796875
 20
160.16000366210937
 42
0.11934766173362732
  0
SEQEND
  0
POLYLINE
  8
0
 10
0
 20
0
 39
0
 70
1
 66
1
  0
VERTEX
  8
0
 10
767.43414306640625
 20
195.16000366210937
 42
-1
  0
VERTEX
  8
0
 10
735.43414306640625
 20
195.16000366210937
 42
-1
  0
SEQEND
  0
POLYLINE
  8
0
 10
0
 20
0
 39
0
 70
1
 66
1
  0
VERTEX
  8
0
 10
953.760009765625
 20
469.96585083007812
 42
-0
  0
VERTEX
  8
0
 10
953.760009765625
 20
512.67413330078125
 42
0.11934766173362732
  0
VERTEX
  8
0
 10
940.1141357421875
 20
526.32000732421875
 42
-0
  0
VERTEX
  8
0
 10
897.40582275390625
 20
526.32000732421875
 42
0.11934766173362732
  0
VERTEX
  8
0
 10
883.760009765625
 20
512.67413330078125
 42
-0
  0
VERTEX
  8
0
 10
883.760009765625
 20
469.96585083007812
 42
0.11934766173362732
  0
VERTEX
  8
0
 10
897.40582275390625
 20
456.32000732421875
 42
0
  0
VERTEX
  8
0
 10
940.1141357421875
 20
456.32000732421875
 42
0.11934766173362732
  0
SEQEND
  0
POLYLINE
  8
0
 10
0
 20
0
 39
0
 70
1
 66
1
  0
VERTEX
  8
0
 10
927.51416015625
 20
491.32000732421875
 42
-1
  0
VERTEX
  8
0
 10
895.51416015625
 20
491.32000732421875
 42
-1
  0
SEQEND
  0
POLYLINE
  8
0
 10
0
 20
0
 39
0
 70
1
 66
1
  0
VERTEX
  8
0
 10
1167.1199951171875
 20
23.805843353271484
 42
-0
  0
VERTEX
  8
0
 10
1167.1199951171875
 20
66.51416015625
 42
0.11934766173362732
  0
VERTEX
  8
0
 10
1153.47412109375
 20
80.160003662109375
 42
-0
  0
VERTEX
  8
0
 10
1110.765869140625
 20
80.160003662109375
 42
0.11934766173362732
  0
VERTEX
  8
0
 10
1097.1199951171875
 20
66.51416015625
 42
-0
  0
VERTEX
  8
0
 10
1097.1199951171875
 20
23.805843353271484
 42
0.11934766173362732
  0
VERTEX
  8
0
 10
1110.765869140625
 20
10.159999847412109
 42
0
  0
VERTEX
  8
0
 10
1153.47412109375
 20
10.159999847412109
 42
0.11934766173362732
  0
SEQEND
  0
POLYLINE
  8
0
 10
0
 20
0
 39
0
 70
1
 66
1
  0
VERTEX
  8
0
 10
1140.8741455078125
 20
45.159999847412109
 42
-1
  0
VERTEX
  8
0
 10
1108.8741455078125
 20
45.159999847412109
 42
-1
  0
SEQEND
  0
POLYLINE
  8
0
 10
0
 20
0
 39
0
 70
1
 66
1
  0
VERTEX
  8
0
 10
1167.1199951171875
 20
103.84584045410156
 42
-0
  0
VERTEX
  8
0
 10
1167.1199951171875
 20
146.55415344238281
 42
0.11934766173362732
  0
VERTEX
  8
0
 10
1153.47412109375
 20
160.19999694824219
 42
-0
  0
VERTEX
  8
0
 10
1110.765869140625
 20
160.19999694824219
 42
0.11934766173362732
  0
VERTEX
  8
0
 10
1097.1199951171875
 20
146.55415344238281
 42
-0
  0
VERTEX
  8
0
 10
1097.1199951171875
 20
103.84584045410156
 42
0.11934766173362732
  0
VERTEX
  8
0
 10
1110.765869140625
 20
90.199996948242188
 42
0
  0
VERTEX
  8
0
 10
1153.47412109375
 20
90.199996948242188
 42
0.11934766173362732
  0
SEQEND
  0
POLYLINE
  8
0
 10
0
 20
0
 39
0
 70
1
 66
1
  0
VERTEX
  8
0
 10
1140.8741455078125
 20
125.19999694824219
 42
-1
  0
VERTEX
  8
0
 10
1108.8741455078125
 20
125.19999694824219
 42
-1
  0
SEQEND
  0
POLYLINE
  8
0
 10
0
 20
0
 39
0
 70
1
 66
1
  0
VERTEX
  8
0
 10
1167.1199951171875
 20
183.88584899902344
 42
-0
  0
VERTEX
  8
0
 10
1167.1199951171875
 20
226.59416198730469
 42
0.11934766173362732
  0
VERTEX
  8
0
 10
1153.47412109375
 20
240.24000549316406
 42
-0
  0
VERTEX
  8
0
 10
1110.765869140625
 20
240.24000549316406
 42
0.11934766173362732
  0
VERTEX
  8
0
 10
1097.1199951171875
 20
226.59416198730469
 42
-0
  0
VERTEX
  8
0
 10
1097.1199951171875
 20
183.88584899902344
 42
0.11934766173362732
  0
VERTEX
  8
0
 10
1110.765869140625
 20
170.24000549316406
 42
0
  0
VERTEX
  8
0
 10
1153.47412109375
 20
170.24000549316406
 42
0.11934766173362732
  0
SEQEND
  0
POLYLINE
  8
0
 10
0
 20
0
 39
0
 70
1
 66
1
  0
VERTEX
  8
0
 10
1140.8741455078125
 20
205.24000549316406
 42
-1
  0
VERTEX
  8
0
 10
1108.8741455078125
 20
205.24000549316406
 42
-1
  0
SEQEND
  0
POLYLINE
  8
0
 10
0
 20
0
 39
0
 70
1
 66
1
  0
VERTEX
  8
0
 10
1029.56005859375
 20
400.27999877929687
 42
-0
  0
VERTEX
  8
0
 10
1069.56005859375
 20
400.27999877929687
 42
0
  0
VERTEX
  8
0
 10
1069.56005859375
 20
406.79177856445312
 42
-0.35743856430053711
  0
VERTEX
  8
0
 10
1069.56005859375
 20
428.34402465820312
 42
0
  0
VERTEX
  8
0
 10
1069.56005859375
 20
472.21597290039062
 42
-0.35743856430053711
  0
VERTEX
  8
0
 10
1069.56005859375
 20
493.76821899414062
 42
0
  0
VERTEX
  8
0
 10
1069.56005859375
 20
500.27999877929687
 42
0
  0
VERTEX
  8
0
 10
1029.56005859375
 20
500.27999877929687
 42
0
  0
VERTEX
  8
0
 10
1029.56005859375
 20
493.76821899414062
 42
-0.35743856430053711
  0
VERTEX
  8
0
 10
1029.56005859375
 20
472.21597290039062
 42
0
  0
VERTEX
  8
0
 10
1029.56005859375
 20
428.34402465820312
 42
-0.35743856430053711
  0
VERTEX
  8
0
 10
1029.56005859375
 20
406.79177856445312
 42
0
  0
SEQEND
  0
POLYLINE
  8
0
 10
0
 20
0
 39
0
 70
1
 66
1
  0
VERTEX
  8
0
 10
1049.56005859375
 20
439.27999877929687
 42
-1
  0
VERTEX
  8
0
 10
1049.56005859375
 20
461.27999877929687
 42
-1
  0
SEQEND
  0
POLYLINE
  8
0
 10
0
 20
0
 39
0
 70
1
 66
1
  0
VERTEX
  8
0
 10
1029.56005859375
 20
510.32000732421875
 42
-0
  0
VERTEX
  8
0
 10
1069.56005859375
 20
510.32000732421875
 42
0
  0
VERTEX
  8
0
 10
1069.56005859375
 20
516.831787109375
 42
-0.35743856430053711
  0
VERTEX
  8
0
 10
1069.56005859375
 20
538.384033203125
 42
0
  0
VERTEX
  8
0
 10
1069.56005859375
 20
582.2559814453125
 42
-0.35743856430053711
  0
VERTEX
  8
0
 10
1069.56005859375
 20
603.8082275390625
 42
0
  0
VERTEX
  8
0
 10
1069.56005859375
 20
610.32000732421875
 42
0
  0
VERTEX
  8
0
 10
1029.56005859375
 20
610.32000732421875
 42
0
  0
VERTEX
  8
0
 10
1029.56005859375
 20
603.8082275390625
 42
-0.35743856430053711
  0
VERTEX
  8
0
 10
1029.56005859375
 20
582.2559814453125
 42
0
  0
VERTEX
  8
0
 10
1029.56005859375
 20
538.384033203125
 42
-0.35743856430053711
  0
VERTEX
  8
0
 10
1029.56005859375
 20
516.831787109375
 42
0
  0
SEQEND
  0
POLYLINE
  8
0
 10
0
 20
0
 39
0
 70
1
 66
1
  0
VERTEX
  8
0
 10
1049.56005859375
 20
549.32000732421875
 42
-1
  0
VERTEX
  8
0
 10
1049.56005859375
 20
571.32000732421875
 42
-1
  0
SEQEND
  0
POLYLINE
  8
0
 10
0
 20
0
 39
0
 70
1
 66
1
  0
VERTEX
  8
0
 10
115.16000366210937
 20
659.719970703125
 42
-0
  0
VERTEX
  8
0
 10
115.16000366210937
 20
689.719970703125
 42
-0
  0
VERTEX
  8
0
 10
10.159999847412109
 20
689.719970703125
 42
0
  0
VERTEX
  8
0
 10
10.159999847412109
 20
659.719970703125
 42
0
  0
SEQEND
  0
POLYLINE
  8
0
 10
0
 20
0
 39
0
 70
1
 66
1
  0
VERTEX
  8
0
 10
72.660003662109375
 20
674.719970703125
 42
-1
  0
VERTEX
  8
0
 10
52.659999847412109
 20
674.719970703125
 42
-1
  0
SEQEND
  0
POLYLINE
  8
0
 10
0
 20
0
 39
0
 70
1
 66
1
  0
VERTEX
  8
0
 10
291.55999755859375
 20
128.36000061035156
 42
-0
  0
VERTEX
  8
0
 10
321.55999755859375
 20
128.36000061035156
 42
-0
  0
VERTEX
  8
0
 10
321.55999755859375
 20
233.36000061035156
 42
0
  0
VERTEX
  8
0
 10
291.55999755859375
 20
233.36000061035156
 42
0
  0
SEQEND
  0
POLYLINE
  8
0
 10
0
 20
0
 39
0
 70
1
 66
1
  0
VERTEX
  8
0
 10
306.55999755859375
 20
170.86000061035156
 42
-1
  0
VERTEX
  8
0
 10
306.55999755859375
 20
190.86000061035156
 42
-1
  0
SEQEND
  0
POLYLINE
  8
0
 10
0
 20
0
 39
0
 70
1
 66
1
  0
VERTEX
  8
0
 10
524.719970703125
 20
433.8800048828125
 42
-0
  0
VERTEX
  8
0
 10
554.719970703125
 20
433.8800048828125
 42
-0
  0
VERTEX
  8
0
 10
554.719970703125
 20
538.8800048828125
 42
0
  0
VERTEX
  8
0
 10
524.719970703125
 20
538.8800048828125
 42
0
  0
SEQEND
  0
POLYLINE
  8
0
 10
0
 20
0
 39
0
 70
1
 66
1
  0
VERTEX
  8
0
 10
539.719970703125
 20
476.3800048828125
 42
-1
  0
VERTEX
  8
0
 10
539.719970703125
 20
496.3800048828125
 42
-1
  0
SEQEND
  0
POLYLINE
  8
0
 10
0
 20
0
 39
0
 70
1
 66
1
  0
VERTEX
  8
0
 10
654.79998779296875
 20
659.719970703125
 42
-0
  0
VERTEX
  8
0
 10
654.79998779296875
 20
689.719970703125
 42
-0
  0
VERTEX
  8
0
 10
549.79998779296875
 20
689.719970703125
 42
0
  0
VERTEX
  8
0
 10
549.79998779296875
 20
659.719970703125
 42
0
  0
SEQEND
  0
POLYLINE
  8
0
 10
0
 20
0
 39
0
 70
1
 66
1
  0
VERTEX
  8
0
 10
612.29998779296875
 20
674.719970703125
 42
-1
  0
VERTEX
  8
0
 10
592.29998779296875
 20
674.719970703125
 42
-1
  0
SEQEND
  0
POLYLINE
  8
0
 10
0
 20
0
 39
0
 70
1
 66
1
  0
VERTEX
  8
0
 10
869.47998046875
 20
128.36000061035156
 42
-0
  0
VERTEX
  8
0
 10
899.47998046875
 20
128.36000061035156
 42
-0
  0
VERTEX
  8
0
 10
899.47998046875
 20
233.36000061035156
 42
0
  0
VERTEX
  8
0
 10
869.47998046875
 20
233.36000061035156
 42
0
  0
SEQEND
  0
POLYLINE
  8
0
 10
0
 20
0
 39
0
 70
1
 66
1
  0
VERTEX
  8
0
 10
884.47998046875
 20
170.86000061035156
 42
-1
  0
VERTEX
  8
0
 10
884.47998046875
 20
190.86000061035156
 42
-1
  0
SEQEND
  0
ENDSEC
  0
EOF
