  0
SECTION
  2
ENTITIES
  0
POLYLINE
  8
0
 10
0
 20
0
 39
0
 70
1
 66
1
  0
VERTEX
  8
0
 10
0
 20
0
 42
-0
  0
VERTEX
  8
0
 10
1500
 20
0
 42
-0
  0
VERTEX
  8
0
 10
1500
 20
800
 42
-0
  0
VERTEX
  8
0
 10
0
 20
800
 42
-0
  0
SEQEND
  0
POLYLINE
  8
0
 10
0
 20
0
 39
0
 70
1
 66
1
  0
VERTEX
  8
0
 10
1452.999993363519
 20
10
 42
0
  0
VERTEX
  8
0
 10
1487.999993363519
 20
10
 42
0
  0
VERTEX
  8
0
 10
1487.999993363519
 20
264
 42
0
  0
VERTEX
  8
0
 10
1470.499993363519
 20
264
 42
0
  0
VERTEX
  8
0
 10
1470.499993363519
 20
300
 42
0
  0
VERTEX
  8
0
 10
1487.999993363519
 20
300
 42
0
  0
VERTEX
  8
0
 10
1487.999993363519
 20
324
 42
-0
  0
VERTEX
  8
0
 10
1452.999993363519
 20
324
 42
-0
  0
SEQEND
  0
POLYLINE
  8
0
 10
0
 20
0
 39
0
 70
1
 66
1
  0
VERTEX
  8
0
 10
1460.499993363519
 20
46.549476623535156
 42
-1
  0
VERTEX
  8
0
 10
1480.499993363519
 20
46.549476623535156
 42
-1
  0
SEQEND
  0
POLYLINE
  8
0
 10
0
 20
0
 39
0
 70
1
 66
1
  0
VERTEX
  8
0
 10
602.99999336351902
 20
588
 42
0
  0
VERTEX
  8
0
 10
532.99999336351902
 20
588
 42
-0
  0
VERTEX
  8
0
 10
522.99999336351902
 20
578
 42
0
  0
VERTEX
  8
0
 10
522.99999336351902
 20
520
 42
0
  0
VERTEX
  8
0
 10
687.99999336351902
 20
520
 42
-0
  0
SEQEND
  0
POLYLINE
  8
0
 10
0
 20
0
 39
0
 70
1
 66
1
  0
VERTEX
  8
0
 10
561.49999336351902
 20
563
 42
-1
  0
VERTEX
  8
0
 10
574.49999336351902
 20
563
 42
-1
  0
SEQEND
  0
POLYLINE
  8
0
 10
0
 20
0
 39
0
 70
1
 66
1
  0
VERTEX
  8
0
 10
704.28499336351899
 20
520
 42
0
  0
VERTEX
  8
0
 10
774.28499336351899
 20
520
 42
-0
  0
VERTEX
  8
0
 10
784.28499336351899
 20
530
 42
0
  0
VERTEX
  8
0
 10
784.28499336351899
 20
588
 42
0
  0
VERTEX
  8
0
 10
619.28499336351899
 20
588
 42
-0
  0
SEQEND
  0
POLYLINE
  8
0
 10
0
 20
0
 39
0
 70
1
 66
1
  0
VERTEX
  8
0
 10
745.78499336351899
 20
545
 42
-1
  0
VERTEX
  8
0
 10
732.78499336351899
 20
545
 42
-1
  0
SEQEND
  0
POLYLINE
  8
0
 10
0
 20
0
 39
0
 70
1
 66
1
  0
VERTEX
  8
0
 10
942.99999336351902
 20
510
 42
0
  0
VERTEX
  8
0
 10
942.99999336351902
 20
10
 42
0
  0
VERTEX
  8
0
 10
1142.999993363519
 20
10
 42
0
  0
VERTEX
  8
0
 10
1142.999993363519
 20
510
 42
0
  0
SEQEND
  0
POLYLINE
  8
0
 10
0
 20
0
 39
0
 70
1
 66
1
  0
VERTEX
  8
0
 10
1104.8850641643003
 20
75.31097412109375
 42
-1
  0
VERTEX
  8
0
 10
1104.8850641643003
 20
39.31097412109375
 42
-1
  0
SEQEND
  0
POLYLINE
  8
0
 10
0
 20
0
 39
0
 70
1
 66
1
  0
VERTEX
  8
0
 10
1042.999993363519
 20
312
 42
-1
  0
VERTEX
  8
0
 10
1042.999993363519
 20
208
 42
-1
  0
SEQEND
  0
POLYLINE
  8
0
 10
0
 20
0
 39
0
 70
1
 66
1
  0
VERTEX
  8
0
 10
732.99999336351902
 20
510
 42
0
  0
VERTEX
  8
0
 10
732.99999336351902
 20
10
 42
0
  0
VERTEX
  8
0
 10
932.99999336351902
 20
10
 42
0
  0
VERTEX
  8
0
 10
932.99999336351902
 20
510
 42
0
  0
SEQEND
  0
POLYLINE
  8
0
 10
0
 20
0
 39
0
 70
1
 66
1
  0
VERTEX
  8
0
 10
894.88506416430027
 20
75.31097412109375
 42
-1
  0
VERTEX
  8
0
 10
894.88506416430027
 20
39.31097412109375
 42
-1
  0
SEQEND
  0
POLYLINE
  8
0
 10
0
 20
0
 39
0
 70
1
 66
1
  0
VERTEX
  8
0
 10
832.99999336351902
 20
312
 42
-1
  0
VERTEX
  8
0
 10
832.99999336351902
 20
208
 42
-1
  0
SEQEND
  0
POLYLINE
  8
0
 10
0
 20
0
 39
0
 70
1
 66
1
  0
VERTEX
  8
0
 10
1261.2849933635189
 20
701.28499999999997
 42
0
  0
VERTEX
  8
0
 10
1261.2849933635189
 20
771.28499999999997
 42
-0
  0
VERTEX
  8
0
 10
1251.2849933635189
 20
781.28499999999997
 42
0
  0
VERTEX
  8
0
 10
1193.2849933635189
 20
781.28499999999997
 42
0
  0
VERTEX
  8
0
 10
1193.2849933635189
 20
616.28499999999997
 42
-0
  0
SEQEND
  0
POLYLINE
  8
0
 10
0
 20
0
 39
0
 70
1
 66
1
  0
VERTEX
  8
0
 10
1236.2849933635189
 20
742.78499999999997
 42
-1
  0
VERTEX
  8
0
 10
1236.2849933635189
 20
729.78499999999997
 42
-1
  0
SEQEND
  0
POLYLINE
  8
0
 10
0
 20
0
 39
0
 70
1
 66
1
  0
VERTEX
  8
0
 10
1193.2849933635189
 20
600
 42
0
  0
VERTEX
  8
0
 10
1193.2849933635189
 20
530
 42
-0
  0
VERTEX
  8
0
 10
1203.2849933635189
 20
520
 42
0
  0
VERTEX
  8
0
 10
1261.2849933635189
 20
520
 42
0
  0
VERTEX
  8
0
 10
1261.2849933635189
 20
685
 42
-0
  0
SEQEND
  0
POLYLINE
  8
0
 10
0
 20
0
 39
0
 70
1
 66
1
  0
VERTEX
  8
0
 10
1218.2849933635189
 20
558.5
 42
-1
  0
VERTEX
  8
0
 10
1218.2849933635189
 20
571.5
 42
-1
  0
SEQEND
  0
POLYLINE
  8
0
 10
0
 20
0
 39
0
 70
1
 66
1
  0
VERTEX
  8
0
 10
512.99999336351902
 20
191.28499999999997
 42
0
  0
VERTEX
  8
0
 10
512.99999336351902
 20
261.28499999999997
 42
-0
  0
VERTEX
  8
0
 10
502.99999336351902
 20
271.28499999999997
 42
0
  0
VERTEX
  8
0
 10
444.99999336351902
 20
271.28499999999997
 42
0
  0
VERTEX
  8
0
 10
444.99999336351902
 20
106.28499999999997
 42
-0
  0
SEQEND
  0
POLYLINE
  8
0
 10
0
 20
0
 39
0
 70
1
 66
1
  0
VERTEX
  8
0
 10
487.99999336351902
 20
232.78499999999997
 42
-1
  0
VERTEX
  8
0
 10
487.99999336351902
 20
219.78499999999997
 42
-1
  0
SEQEND
  0
POLYLINE
  8
0
 10
0
 20
0
 39
0
 70
1
 66
1
  0
VERTEX
  8
0
 10
444.99999336351902
 20
89.999999999999986
 42
0
  0
VERTEX
  8
0
 10
444.99999336351902
 20
19.999999999999986
 42
-0
  0
VERTEX
  8
0
 10
454.99999336351902
 20
9.9999999999999893
 42
0
  0
VERTEX
  8
0
 10
512.99999336351902
 20
10
 42
0
  0
VERTEX
  8
0
 10
512.99999336351902
 20
175
 42
-0
  0
SEQEND
  0
POLYLINE
  8
0
 10
0
 20
0
 39
0
 70
1
 66
1
  0
VERTEX
  8
0
 10
469.99999336351902
 20
48.499999999999993
 42
-1
  0
VERTEX
  8
0
 10
469.99999336351902
 20
61.499999999999993
 42
-1
  0
SEQEND
  0
POLYLINE
  8
0
 10
0
 20
0
 39
0
 70
1
 66
1
  0
VERTEX
  8
0
 10
1152.999993363519
 20
510
 42
0
  0
VERTEX
  8
0
 10
1152.999993363519
 20
10
 42
0
  0
VERTEX
  8
0
 10
1352.999993363519
 20
10
 42
0
  0
VERTEX
  8
0
 10
1352.999993363519
 20
510
 42
0
  0
SEQEND
  0
POLYLINE
  8
0
 10
0
 20
0
 39
0
 70
1
 66
1
  0
VERTEX
  8
0
 10
1314.8850641643003
 20
75.31097412109375
 42
-1
  0
VERTEX
  8
0
 10
1314.8850641643003
 20
39.31097412109375
 42
-1
  0
SEQEND
  0
POLYLINE
  8
0
 10
0
 20
0
 39
0
 70
1
 66
1
  0
VERTEX
  8
0
 10
1252.999993363519
 20
312
 42
-1
  0
VERTEX
  8
0
 10
1252.999993363519
 20
208
 42
-1
  0
SEQEND
  0
POLYLINE
  8
0
 10
0
 20
0
 39
0
 70
1
 66
1
  0
VERTEX
  8
0
 10
522.99999336351902
 20
510
 42
0
  0
VERTEX
  8
0
 10
522.99999336351902
 20
10
 42
0
  0
VERTEX
  8
0
 10
722.99999336351902
 20
10
 42
0
  0
VERTEX
  8
0
 10
722.99999336351902
 20
510
 42
0
  0
SEQEND
  0
POLYLINE
  8
0
 10
0
 20
0
 39
0
 70
1
 66
1
  0
VERTEX
  8
0
 10
684.88506416430027
 20
75.31097412109375
 42
-1
  0
VERTEX
  8
0
 10
684.88506416430027
 20
39.31097412109375
 42
-1
  0
SEQEND
  0
POLYLINE
  8
0
 10
0
 20
0
 39
0
 70
1
 66
1
  0
VERTEX
  8
0
 10
622.99999336351902
 20
312
 42
-1
  0
VERTEX
  8
0
 10
622.99999336351902
 20
208
 42
-1
  0
SEQEND
  0
POLYLINE
  8
0
 10
0
 20
0
 39
0
 70
1
 66
1
  0
VERTEX
  8
0
 10
923.99999336351891
 20
789
 42
0
  0
VERTEX
  8
0
 10
853.99999336351891
 20
789
 42
-0
  0
VERTEX
  8
0
 10
843.99999336351891
 20
779
 42
0
  0
VERTEX
  8
0
 10
843.99999336351891
 20
721
 42
0
  0
VERTEX
  8
0
 10
1008.9999933635189
 20
721
 42
-0
  0
SEQEND
  0
POLYLINE
  8
0
 10
0
 20
0
 39
0
 70
1
 66
1
  0
VERTEX
  8
0
 10
882.49999336351891
 20
764
 42
-1
  0
VERTEX
  8
0
 10
895.49999336351891
 20
764
 42
-1
  0
SEQEND
  0
POLYLINE
  8
0
 10
0
 20
0
 39
0
 70
1
 66
1
  0
VERTEX
  8
0
 10
1025.2849933635189
 20
721
 42
0
  0
VERTEX
  8
0
 10
1095.2849933635189
 20
721
 42
-0
  0
VERTEX
  8
0
 10
1105.2849933635189
 20
731
 42
0
  0
VERTEX
  8
0
 10
1105.2849933635189
 20
789
 42
0
  0
VERTEX
  8
0
 10
940.28499336351888
 20
789
 42
-0
  0
SEQEND
  0
POLYLINE
  8
0
 10
0
 20
0
 39
0
 70
1
 66
1
  0
VERTEX
  8
0
 10
1066.7849933635189
 20
746
 42
-1
  0
VERTEX
  8
0
 10
1053.7849933635189
 20
746
 42
-1
  0
SEQEND
  0
POLYLINE
  8
0
 10
0
 20
0
 39
0
 70
1
 66
1
  0
VERTEX
  8
0
 10
1339.2849933635189
 20
701.28499999999997
 42
0
  0
VERTEX
  8
0
 10
1339.2849933635189
 20
771.28499999999997
 42
-0
  0
VERTEX
  8
0
 10
1329.2849933635189
 20
781.28499999999997
 42
0
  0
VERTEX
  8
0
 10
1271.2849933635189
 20
781.28499999999997
 42
0
  0
VERTEX
  8
0
 10
1271.2849933635189
 20
616.28499999999997
 42
-0
  0
SEQEND
  0
POLYLINE
  8
0
 10
0
 20
0
 39
0
 70
1
 66
1
  0
VERTEX
  8
0
 10
1314.2849933635189
 20
742.78499999999997
 42
-1
  0
VERTEX
  8
0
 10
1314.2849933635189
 20
729.78499999999997
 42
-1
  0
SEQEND
  0
POLYLINE
  8
0
 10
0
 20
0
 39
0
 70
1
 66
1
  0
VERTEX
  8
0
 10
1271.2849933635189
 20
600
 42
0
  0
VERTEX
  8
0
 10
1271.2849933635189
 20
530
 42
-0
  0
VERTEX
  8
0
 10
1281.2849933635189
 20
520
 42
0
  0
VERTEX
  8
0
 10
1339.2849933635189
 20
520
 42
0
  0
VERTEX
  8
0
 10
1339.2849933635189
 20
685
 42
-0
  0
SEQEND
  0
POLYLINE
  8
0
 10
0
 20
0
 39
0
 70
1
 66
1
  0
VERTEX
  8
0
 10
1296.2849933635189
 20
558.5
 42
-1
  0
VERTEX
  8
0
 10
1296.2849933635189
 20
571.5
 42
-1
  0
SEQEND
  0
POLYLINE
  8
0
 10
0
 20
0
 39
0
 70
1
 66
1
  0
VERTEX
  8
0
 10
477.99999336351902
 20
281.28499999999997
 42
0
  0
VERTEX
  8
0
 10
512.99999336351902
 20
281.28499999999997
 42
0
  0
VERTEX
  8
0
 10
512.99999336351902
 20
535.28499999999997
 42
0
  0
VERTEX
  8
0
 10
495.49999336351902
 20
535.28499999999997
 42
0
  0
VERTEX
  8
0
 10
495.49999336351902
 20
571.28499999999997
 42
0
  0
VERTEX
  8
0
 10
512.99999336351902
 20
571.28499999999997
 42
0
  0
VERTEX
  8
0
 10
512.99999336351902
 20
595.28499999999997
 42
-0
  0
VERTEX
  8
0
 10
477.99999336351902
 20
595.28499999999997
 42
-0
  0
SEQEND
  0
POLYLINE
  8
0
 10
0
 20
0
 39
0
 70
1
 66
1
  0
VERTEX
  8
0
 10
485.49999336351902
 20
317.83447662353512
 42
-1
  0
VERTEX
  8
0
 10
505.49999336351902
 20
317.83447662353512
 42
-1
  0
SEQEND
  0
POLYLINE
  8
0
 10
0
 20
0
 39
0
 70
1
 66
1
  0
VERTEX
  8
0
 10
479.99999336351914
 20
718.28499999999997
 42
0
  0
VERTEX
  8
0
 10
409.99999336351914
 20
718.28499999999997
 42
-0
  0
VERTEX
  8
0
 10
399.99999336351914
 20
708.28499999999997
 42
0
  0
VERTEX
  8
0
 10
399.99999336351914
 20
650.28499999999997
 42
0
  0
VERTEX
  8
0
 10
564.99999336351914
 20
650.28499999999997
 42
-0
  0
SEQEND
  0
POLYLINE
  8
0
 10
0
 20
0
 39
0
 70
1
 66
1
  0
VERTEX
  8
0
 10
438.49999336351914
 20
693.28499999999997
 42
-1
  0
VERTEX
  8
0
 10
451.49999336351914
 20
693.28499999999997
 42
-1
  0
SEQEND
  0
POLYLINE
  8
0
 10
0
 20
0
 39
0
 70
1
 66
1
  0
VERTEX
  8
0
 10
581.28499336351911
 20
650.28499999999997
 42
0
  0
VERTEX
  8
0
 10
651.28499336351911
 20
650.28499999999997
 42
-0
  0
VERTEX
  8
0
 10
661.28499336351911
 20
660.28499999999997
 42
0
  0
VERTEX
  8
0
 10
661.28499336351911
 20
718.28499999999997
 42
0
  0
VERTEX
  8
0
 10
496.28499336351911
 20
718.28499999999997
 42
-0
  0
SEQEND
  0
POLYLINE
  8
0
 10
0
 20
0
 39
0
 70
1
 66
1
  0
VERTEX
  8
0
 10
622.78499336351911
 20
675.28499999999997
 42
-1
  0
VERTEX
  8
0
 10
609.78499336351911
 20
675.28499999999997
 42
-1
  0
SEQEND
  0
POLYLINE
  8
0
 10
0
 20
0
 39
0
 70
1
 66
1
  0
VERTEX
  8
0
 10
874.28499336351899
 20
588
 42
0
  0
VERTEX
  8
0
 10
804.28499336351899
 20
588
 42
-0
  0
VERTEX
  8
0
 10
794.28499336351899
 20
578
 42
0
  0
VERTEX
  8
0
 10
794.28499336351899
 20
520
 42
0
  0
VERTEX
  8
0
 10
959.28499336351899
 20
520
 42
-0
  0
SEQEND
  0
POLYLINE
  8
0
 10
0
 20
0
 39
0
 70
1
 66
1
  0
VERTEX
  8
0
 10
832.78499336351899
 20
563
 42
-1
  0
VERTEX
  8
0
 10
845.78499336351899
 20
563
 42
-1
  0
SEQEND
  0
POLYLINE
  8
0
 10
0
 20
0
 39
0
 70
1
 66
1
  0
VERTEX
  8
0
 10
975.56999336351896
 20
520
 42
0
  0
VERTEX
  8
0
 10
1045.569993363519
 20
520
 42
-0
  0
VERTEX
  8
0
 10
1055.569993363519
 20
530
 42
0
  0
VERTEX
  8
0
 10
1055.569993363519
 20
588
 42
0
  0
VERTEX
  8
0
 10
890.56999336351896
 20
588
 42
-0
  0
SEQEND
  0
POLYLINE
  8
0
 10
0
 20
0
 39
0
 70
1
 66
1
  0
VERTEX
  8
0
 10
1017.069993363519
 20
545
 42
-1
  0
VERTEX
  8
0
 10
1004.069993363519
 20
545
 42
-1
  0
SEQEND
  0
POLYLINE
  8
0
 10
0
 20
0
 39
0
 70
1
 66
1
  0
VERTEX
  8
0
 10
399.99999336351902
 20
640.28499999999997
 42
0
  0
VERTEX
  8
0
 10
399.99999336351902
 20
605.28499999999997
 42
0
  0
VERTEX
  8
0
 10
653.99999336351902
 20
605.28499999999997
 42
0
  0
VERTEX
  8
0
 10
653.99999336351902
 20
622.78499999999997
 42
0
  0
VERTEX
  8
0
 10
689.99999336351902
 20
622.78499999999997
 42
0
  0
VERTEX
  8
0
 10
689.99999336351902
 20
605.28499999999997
 42
0
  0
VERTEX
  8
0
 10
713.99999336351902
 20
605.28499999999997
 42
-0
  0
VERTEX
  8
0
 10
713.99999336351902
 20
640.28499999999997
 42
-0
  0
SEQEND
  0
POLYLINE
  8
0
 10
0
 20
0
 39
0
 70
1
 66
1
  0
VERTEX
  8
0
 10
436.54946998705418
 20
632.78499999999997
 42
-1
  0
VERTEX
  8
0
 10
436.54946998705418
 20
612.78499999999997
 42
-1
  0
SEQEND
  0
POLYLINE
  8
0
 10
0
 20
0
 39
0
 70
1
 66
1
  0
VERTEX
  8
0
 10
1183.2849933635189
 20
701.28499999999997
 42
0
  0
VERTEX
  8
0
 10
1183.2849933635189
 20
771.28499999999997
 42
-0
  0
VERTEX
  8
0
 10
1173.2849933635189
 20
781.28499999999997
 42
0
  0
VERTEX
  8
0
 10
1115.2849933635189
 20
781.28499999999997
 42
0
  0
VERTEX
  8
0
 10
1115.2849933635189
 20
616.28499999999997
 42
-0
  0
SEQEND
  0
POLYLINE
  8
0
 10
0
 20
0
 39
0
 70
1
 66
1
  0
VERTEX
  8
0
 10
1158.2849933635189
 20
742.78499999999997
 42
-1
  0
VERTEX
  8
0
 10
1158.2849933635189
 20
729.78499999999997
 42
-1
  0
SEQEND
  0
POLYLINE
  8
0
 10
0
 20
0
 39
0
 70
1
 66
1
  0
VERTEX
  8
0
 10
1115.2849933635189
 20
600
 42
0
  0
VERTEX
  8
0
 10
1115.2849933635189
 20
530
 42
-0
  0
VERTEX
  8
0
 10
1125.2849933635189
 20
520
 42
0
  0
VERTEX
  8
0
 10
1183.2849933635189
 20
520
 42
0
  0
VERTEX
  8
0
 10
1183.2849933635189
 20
685
 42
-0
  0
SEQEND
  0
POLYLINE
  8
0
 10
0
 20
0
 39
0
 70
1
 66
1
  0
VERTEX
  8
0
 10
1140.2849933635189
 20
558.5
 42
-1
  0
VERTEX
  8
0
 10
1140.2849933635189
 20
571.5
 42
-1
  0
SEQEND
  0
POLYLINE
  8
0
 10
0
 20
0
 39
0
 70
1
 66
1
  0
VERTEX
  8
0
 10
1454.2849933635189
 20
454
 42
0
  0
VERTEX
  8
0
 10
1489.2849933635189
 20
454
 42
0
  0
VERTEX
  8
0
 10
1489.2849933635189
 20
708
 42
0
  0
VERTEX
  8
0
 10
1471.7849933635189
 20
708
 42
0
  0
VERTEX
  8
0
 10
1471.7849933635189
 20
744
 42
0
  0
VERTEX
  8
0
 10
1489.2849933635189
 20
744
 42
0
  0
VERTEX
  8
0
 10
1489.2849933635189
 20
768
 42
-0
  0
VERTEX
  8
0
 10
1454.2849933635189
 20
768
 42
-0
  0
SEQEND
  0
POLYLINE
  8
0
 10
0
 20
0
 39
0
 70
1
 66
1
  0
VERTEX
  8
0
 10
1461.7849933635189
 20
490.54947662353516
 42
-1
  0
VERTEX
  8
0
 10
1481.7849933635189
 20
490.54947662353516
 42
-1
  0
SEQEND
  0
POLYLINE
  8
0
 10
0
 20
0
 39
0
 70
1
 66
1
  0
VERTEX
  8
0
 10
467.99999336351908
 20
515.28499999999997
 42
0
  0
VERTEX
  8
0
 10
467.99999336351908
 20
585.28499999999997
 42
-0
  0
VERTEX
  8
0
 10
457.99999336351908
 20
595.28499999999997
 42
0
  0
VERTEX
  8
0
 10
399.99999336351908
 20
595.28499999999997
 42
0
  0
VERTEX
  8
0
 10
399.99999336351908
 20
430.28499999999997
 42
-0
  0
SEQEND
  0
POLYLINE
  8
0
 10
0
 20
0
 39
0
 70
1
 66
1
  0
VERTEX
  8
0
 10
442.99999336351908
 20
556.78499999999997
 42
-1
  0
VERTEX
  8
0
 10
442.99999336351908
 20
543.78499999999997
 42
-1
  0
SEQEND
  0
POLYLINE
  8
0
 10
0
 20
0
 39
0
 70
1
 66
1
  0
VERTEX
  8
0
 10
399.99999336351914
 20
414
 42
0
  0
VERTEX
  8
0
 10
399.99999336351914
 20
344
 42
-0
  0
VERTEX
  8
0
 10
409.99999336351914
 20
334
 42
0
  0
VERTEX
  8
0
 10
467.99999336351914
 20
334
 42
0
  0
VERTEX
  8
0
 10
467.99999336351908
 20
499
 42
-0
  0
SEQEND
  0
POLYLINE
  8
0
 10
0
 20
0
 39
0
 70
1
 66
1
  0
VERTEX
  8
0
 10
424.99999336351914
 20
372.5
 42
-1
  0
VERTEX
  8
0
 10
424.99999336351914
 20
385.5
 42
-1
  0
SEQEND
  0
POLYLINE
  8
0
 10
0
 20
0
 39
0
 70
1
 66
1
  0
VERTEX
  8
0
 10
863.99999336351891
 20
711
 42
0
  0
VERTEX
  8
0
 10
793.99999336351891
 20
711
 42
-0
  0
VERTEX
  8
0
 10
783.99999336351891
 20
701
 42
0
  0
VERTEX
  8
0
 10
783.99999336351891
 20
643
 42
0
  0
VERTEX
  8
0
 10
948.99999336351891
 20
643
 42
-0
  0
SEQEND
  0
POLYLINE
  8
0
 10
0
 20
0
 39
0
 70
1
 66
1
  0
VERTEX
  8
0
 10
822.49999336351891
 20
686
 42
-1
  0
VERTEX
  8
0
 10
835.49999336351891
 20
686
 42
-1
  0
SEQEND
  0
POLYLINE
  8
0
 10
0
 20
0
 39
0
 70
1
 66
1
  0
VERTEX
  8
0
 10
965.28499336351888
 20
643
 42
0
  0
VERTEX
  8
0
 10
1035.2849933635189
 20
643
 42
-0
  0
VERTEX
  8
0
 10
1045.2849933635189
 20
653
 42
0
  0
VERTEX
  8
0
 10
1045.2849933635189
 20
711
 42
0
  0
VERTEX
  8
0
 10
880.28499336351888
 20
711
 42
-0
  0
SEQEND
  0
POLYLINE
  8
0
 10
0
 20
0
 39
0
 70
1
 66
1
  0
VERTEX
  8
0
 10
1006.7849933635189
 20
668
 42
-1
  0
VERTEX
  8
0
 10
993.78499336351888
 20
668
 42
-1
  0
SEQEND
  0
POLYLINE
  8
0
 10
0
 20
0
 39
0
 70
1
 66
1
  0
VERTEX
  8
0
 10
1407.999993363519
 20
444
 42
0
  0
VERTEX
  8
0
 10
1407.999993363519
 20
334
 42
-0
  0
VERTEX
  8
0
 10
1419.999993363519
 20
334
 42
-1
  0
VERTEX
  8
0
 10
1445.999993363519
 20
334
 42
-0
  0
VERTEX
  8
0
 10
1457.999993363519
 20
334
 42
-0
  0
VERTEX
  8
0
 10
1457.999993363519
 20
444
 42
-0
  0
SEQEND
  0
POLYLINE
  8
0
 10
0
 20
0
 39
0
 70
1
 66
1
  0
VERTEX
  8
0
 10
1432.999993363519
 20
402
 42
-1
  0
VERTEX
  8
0
 10
1432.999993363519
 20
376
 42
-1
  0
SEQEND
  0
POLYLINE
  8
0
 10
0
 20
0
 39
0
 70
1
 66
1
  0
VERTEX
  8
0
 10
1409.2849933635189
 20
454
 42
0
  0
VERTEX
  8
0
 10
1444.2849933635189
 20
454
 42
0
  0
VERTEX
  8
0
 10
1444.2849933635189
 20
708
 42
0
  0
VERTEX
  8
0
 10
1426.7849933635189
 20
708
 42
0
  0
VERTEX
  8
0
 10
1426.7849933635189
 20
744
 42
0
  0
VERTEX
  8
0
 10
1444.2849933635189
 20
744
 42
0
  0
VERTEX
  8
0
 10
1444.2849933635189
 20
768
 42
-0
  0
VERTEX
  8
0
 10
1409.2849933635189
 20
768
 42
-0
  0
SEQEND
  0
POLYLINE
  8
0
 10
0
 20
0
 39
0
 70
1
 66
1
  0
VERTEX
  8
0
 10
1416.7849933635189
 20
490.54947662353516
 42
-1
  0
VERTEX
  8
0
 10
1436.7849933635189
 20
490.54947662353516
 42
-1
  0
SEQEND
  0
POLYLINE
  8
0
 10
0
 20
0
 39
0
 70
1
 66
1
  0
VERTEX
  8
0
 10
399.99999336351908
 20
728.28499999999997
 42
0
  0
VERTEX
  8
0
 10
509.99999336351908
 20
728.28499999999997
 42
-0
  0
VERTEX
  8
0
 10
509.99999336351908
 20
740.28499999999997
 42
-1
  0
VERTEX
  8
0
 10
509.99999336351908
 20
766.28499999999997
 42
-0
  0
VERTEX
  8
0
 10
509.99999336351908
 20
778.28499999999997
 42
-0
  0
VERTEX
  8
0
 10
399.99999336351908
 20
778.28499999999997
 42
-0
  0
SEQEND
  0
POLYLINE
  8
0
 10
0
 20
0
 39
0
 70
1
 66
1
  0
VERTEX
  8
0
 10
441.99999336351908
 20
753.28499999999997
 42
-1
  0
VERTEX
  8
0
 10
467.99999336351908
 20
753.28499999999997
 42
-1
  0
SEQEND
  0
POLYLINE
  8
0
 10
0
 20
0
 39
0
 70
1
 66
1
  0
VERTEX
  8
0
 10
1349.2849933635189
 20
768
 42
0
  0
VERTEX
  8
0
 10
1349.2849933635189
 20
658
 42
-0
  0
VERTEX
  8
0
 10
1361.2849933635189
 20
658
 42
-1
  0
VERTEX
  8
0
 10
1387.2849933635189
 20
658
 42
-0
  0
VERTEX
  8
0
 10
1399.2849933635189
 20
658
 42
-0
  0
VERTEX
  8
0
 10
1399.2849933635189
 20
768
 42
-0
  0
SEQEND
  0
POLYLINE
  8
0
 10
0
 20
0
 39
0
 70
1
 66
1
  0
VERTEX
  8
0
 10
1374.2849933635189
 20
726
 42
-1
  0
VERTEX
  8
0
 10
1374.2849933635189
 20
700
 42
-1
  0
SEQEND
  0
POLYLINE
  8
0
 10
0
 20
0
 39
0
 70
1
 66
1
  0
VERTEX
  8
0
 10
1407.999993363519
 20
10
 42
0
  0
VERTEX
  8
0
 10
1442.999993363519
 20
10
 42
0
  0
VERTEX
  8
0
 10
1442.999993363519
 20
264
 42
0
  0
VERTEX
  8
0
 10
1425.499993363519
 20
264
 42
0
  0
VERTEX
  8
0
 10
1425.499993363519
 20
300
 42
0
  0
VERTEX
  8
0
 10
1442.999993363519
 20
300
 42
0
  0
VERTEX
  8
0
 10
1442.999993363519
 20
324
 42
-0
  0
VERTEX
  8
0
 10
1407.999993363519
 20
324
 42
-0
  0
SEQEND
  0
POLYLINE
  8
0
 10
0
 20
0
 39
0
 70
1
 66
1
  0
VERTEX
  8
0
 10
1415.499993363519
 20
46.549476623535156
 42
-1
  0
VERTEX
  8
0
 10
1435.499993363519
 20
46.549476623535156
 42
-1
  0
SEQEND
  0
POLYLINE
  8
0
 10
0
 20
0
 39
0
 70
1
 66
1
  0
VERTEX
  8
0
 10
783.99999336351902
 20
633
 42
0
  0
VERTEX
  8
0
 10
783.99999336351902
 20
598
 42
0
  0
VERTEX
  8
0
 10
1037.999993363519
 20
598
 42
0
  0
VERTEX
  8
0
 10
1037.999993363519
 20
615.5
 42
0
  0
VERTEX
  8
0
 10
1073.999993363519
 20
615.5
 42
0
  0
VERTEX
  8
0
 10
1073.999993363519
 20
598
 42
0
  0
VERTEX
  8
0
 10
1097.999993363519
 20
598
 42
-0
  0
VERTEX
  8
0
 10
1097.999993363519
 20
633
 42
-0
  0
SEQEND
  0
POLYLINE
  8
0
 10
0
 20
0
 39
0
 70
1
 66
1
  0
VERTEX
  8
0
 10
820.54946998705418
 20
625.5
 42
-1
  0
VERTEX
  8
0
 10
820.54946998705418
 20
605.5
 42
-1
  0
SEQEND
  0
POLYLINE
  8
0
 10
0
 20
0
 39
0
 70
1
 66
1
  0
VERTEX
  8
0
 10
1362.999993363519
 20
334
 42
0
  0
VERTEX
  8
0
 10
1397.999993363519
 20
334
 42
0
  0
VERTEX
  8
0
 10
1397.999993363519
 20
588
 42
0
  0
VERTEX
  8
0
 10
1380.499993363519
 20
588
 42
0
  0
VERTEX
  8
0
 10
1380.499993363519
 20
624
 42
0
  0
VERTEX
  8
0
 10
1397.999993363519
 20
624
 42
0
  0
VERTEX
  8
0
 10
1397.999993363519
 20
648
 42
-0
  0
VERTEX
  8
0
 10
1362.999993363519
 20
648
 42
-0
  0
SEQEND
  0
POLYLINE
  8
0
 10
0
 20
0
 39
0
 70
1
 66
1
  0
VERTEX
  8
0
 10
1370.499993363519
 20
370.54947662353516
 42
-1
  0
VERTEX
  8
0
 10
1390.499993363519
 20
370.54947662353516
 42
-1
  0
SEQEND
  0
POLYLINE
  8
0
 10
0
 20
0
 39
0
 70
1
 66
1
  0
VERTEX
  8
0
 10
723.99999336351902
 20
708
 42
0
  0
VERTEX
  8
0
 10
723.99999336351902
 20
598
 42
-0
  0
VERTEX
  8
0
 10
735.99999336351902
 20
598
 42
-1
  0
VERTEX
  8
0
 10
761.99999336351902
 20
598
 42
-0
  0
VERTEX
  8
0
 10
773.99999336351902
 20
598
 42
-0
  0
VERTEX
  8
0
 10
773.99999336351902
 20
708
 42
-0
  0
SEQEND
  0
POLYLINE
  8
0
 10
0
 20
0
 39
0
 70
1
 66
1
  0
VERTEX
  8
0
 10
748.99999336351902
 20
666
 42
-1
  0
VERTEX
  8
0
 10
748.99999336351902
 20
640
 42
-1
  0
SEQEND
  0
POLYLINE
  8
0
 10
0
 20
0
 39
0
 70
1
 66
1
  0
VERTEX
  8
0
 10
199.17096794775355
 20
779.99817806407748
 42
1
  0
VERTEX
  8
0
 10
200.82902541576553
 20
400.00180202647982
 42
1
  0
SEQEND
  0
POLYLINE
  8
0
 10
0
 20
0
 39
0
 70
1
 66
1
  0
VERTEX
  8
0
 10
199.35640858562331
 20
737.49858337566195
 42
-1
  0
VERTEX
  8
0
 10
199.79273949825804
 20
637.49953704997836
 42
-1
  0
SEQEND
  0
POLYLINE
  8
0
 10
0
 20
0
 39
0
 70
1
 66
1
  0
VERTEX
  8
0
 10
200.20725386526104
 20
542.50044304057894
 42
-1
  0
VERTEX
  8
0
 10
200.64358477789577
 20
442.50139671489535
 42
-1
  0
SEQEND
  0
POLYLINE
  8
0
 10
0
 20
0
 39
0
 70
1
 66
1
  0
VERTEX
  8
0
 10
102.28276105790067
 20
639.57409056830159
 42
-1
  0
VERTEX
  8
0
 10
102.7190919705354
 20
539.57504424261799
 42
-1
  0
SEQEND
  0
POLYLINE
  8
0
 10
0
 20
0
 39
0
 70
1
 66
1
  0
VERTEX
  8
0
 10
297.28090139298365
 20
640.42493584793931
 42
-1
  0
VERTEX
  8
0
 10
297.71723230561838
 20
540.42588952225572
 42
-1
  0
SEQEND
  0
POLYLINE
  8
0
 10
0
 20
0
 39
0
 70
1
 66
1
  0
VERTEX
  8
0
 10
519.99999336351902
 20
763.28499999999997
 42
0
  0
VERTEX
  8
0
 10
519.99999336351902
 20
728.28499999999997
 42
0
  0
VERTEX
  8
0
 10
773.99999336351902
 20
728.28499999999997
 42
0
  0
VERTEX
  8
0
 10
773.99999336351902
 20
745.78499999999997
 42
0
  0
VERTEX
  8
0
 10
809.99999336351902
 20
745.78499999999997
 42
0
  0
VERTEX
  8
0
 10
809.99999336351902
 20
728.28499999999997
 42
0
  0
VERTEX
  8
0
 10
833.99999336351902
 20
728.28499999999997
 42
-0
  0
VERTEX
  8
0
 10
833.99999336351902
 20
763.28499999999997
 42
-0
  0
SEQEND
  0
POLYLINE
  8
0
 10
0
 20
0
 39
0
 70
1
 66
1
  0
VERTEX
  8
0
 10
556.54946998705418
 20
755.78499999999997
 42
-1
  0
VERTEX
  8
0
 10
556.54946998705418
 20
735.78499999999997
 42
-1
  0
SEQEND
  0
POLYLINE
  8
0
 10
0
 20
0
 39
0
 70
1
 66
1
  0
VERTEX
  8
0
 10
399.99999336351908
 20
10
 42
0
  0
VERTEX
  8
0
 10
434.99999336351908
 20
10
 42
0
  0
VERTEX
  8
0
 10
434.99999336351908
 20
264
 42
0
  0
VERTEX
  8
0
 10
417.49999336351908
 20
264
 42
0
  0
VERTEX
  8
0
 10
417.49999336351908
 20
300
 42
0
  0
VERTEX
  8
0
 10
434.99999336351908
 20
300
 42
0
  0
VERTEX
  8
0
 10
434.99999336351908
 20
324
 42
-0
  0
VERTEX
  8
0
 10
399.99999336351908
 20
324
 42
-0
  0
SEQEND
  0
POLYLINE
  8
0
 10
0
 20
0
 39
0
 70
1
 66
1
  0
VERTEX
  8
0
 10
407.49999336351908
 20
46.549476623535156
 42
-1
  0
VERTEX
  8
0
 10
427.49999336351908
 20
46.549476623535156
 42
-1
  0
SEQEND
  0
POLYLINE
  8
0
 10
0
 20
0
 39
0
 70
1
 66
1
  0
VERTEX
  8
0
 10
199.17096794775355
 20
389.99818470055834
 42
1
  0
VERTEX
  8
0
 10
200.82902541576553
 20
10.001808662960713
 42
1
  0
SEQEND
  0
POLYLINE
  8
0
 10
0
 20
0
 39
0
 70
1
 66
1
  0
VERTEX
  8
0
 10
199.35640858562331
 20
347.49859001214281
 42
-1
  0
VERTEX
  8
0
 10
199.79273949825804
 20
247.49954368645925
 42
-1
  0
SEQEND
  0
POLYLINE
  8
0
 10
0
 20
0
 39
0
 70
1
 66
1
  0
VERTEX
  8
0
 10
200.20725386526104
 20
152.50044967705983
 42
-1
  0
VERTEX
  8
0
 10
200.64358477789577
 20
52.50140335137624
 42
-1
  0
SEQEND
  0
POLYLINE
  8
0
 10
0
 20
0
 39
0
 70
1
 66
1
  0
VERTEX
  8
0
 10
102.28276105790067
 20
249.57409720478248
 42
-1
  0
VERTEX
  8
0
 10
102.7190919705354
 20
149.57505087909888
 42
-1
  0
SEQEND
  0
POLYLINE
  8
0
 10
0
 20
0
 39
0
 70
1
 66
1
  0
VERTEX
  8
0
 10
297.28090139298365
 20
250.4249424844202
 42
-1
  0
VERTEX
  8
0
 10
297.71723230561838
 20
150.42589615873661
 42
-1
  0
SEQEND
  0
POLYLINE
  8
0
 10
0
 20
0
 39
0
 70
1
 66
1
  0
VERTEX
  8
0
 10
1362.999993363519
 20
10
 42
0
  0
VERTEX
  8
0
 10
1397.999993363519
 20
10
 42
0
  0
VERTEX
  8
0
 10
1397.999993363519
 20
264
 42
0
  0
VERTEX
  8
0
 10
1380.499993363519
 20
264
 42
0
  0
VERTEX
  8
0
 10
1380.499993363519
 20
300
 42
0
  0
VERTEX
  8
0
 10
1397.999993363519
 20
300
 42
0
  0
VERTEX
  8
0
 10
1397.999993363519
 20
324
 42
-0
  0
VERTEX
  8
0
 10
1362.999993363519
 20
324
 42
-0
  0
SEQEND
  0
POLYLINE
  8
0
 10
0
 20
0
 39
0
 70
1
 66
1
  0
VERTEX
  8
0
 10
1370.499993363519
 20
46.549476623535156
 42
-1
  0
VERTEX
  8
0
 10
1390.499993363519
 20
46.549476623535156
 42
-1
  0
SEQEND
  0
ENDSEC
  0
EOF
