  0
SECTION
  2
ENTITIES
  0
POLYLINE
  8
0
 10
0
 20
0
 39
0
 70
1
 66
1
  0
VERTEX
  8
0
 10
0
 20
0
 42
0
  0
VERTEX
  8
0
 10
1800
 20
0
 42
0
  0
VERTEX
  8
0
 10
1800
 20
900
 42
0
  0
VERTEX
  8
0
 10
0
 20
900
 42
0
  0
SEQEND
  0
POLYLINE
  8
0
 10
0
 20
0
 39
0
 70
1
 66
1
  0
VERTEX
  8
0
 10
10.219999999999999
 20
329.22000000000003
 42
0
  0
VERTEX
  8
0
 10
112.22
 20
287.22000000000003
 42
0
  0
VERTEX
  8
0
 10
112.22
 20
10.219999999999999
 42
0
  0
VERTEX
  8
0
 10
10.219999999999999
 20
10.219999999999999
 42
0
  0
SEQEND
  0
POLYLINE
  8
0
 10
0
 20
0
 39
0
 70
1
 66
1
  0
VERTEX
  8
0
 10
74.219999999999999
 20
79.219999999999999
 42
1
  0
VERTEX
  8
0
 10
48.219999999999999
 20
79.219999999999999
 42
1
  0
SEQEND
  0
POLYLINE
  8
0
 10
0
 20
0
 39
0
 70
1
 66
1
  0
VERTEX
  8
0
 10
112.22000000000004
 20
298.75999999999999
 42
0
  0
VERTEX
  8
0
 10
10.220000000000027
 20
340.75999999999999
 42
0
  0
VERTEX
  8
0
 10
10.219999999999999
 20
617.75999999999999
 42
0
  0
VERTEX
  8
0
 10
112.21999999999998
 20
617.75999999999999
 42
0
  0
SEQEND
  0
POLYLINE
  8
0
 10
0
 20
0
 39
0
 70
1
 66
1
  0
VERTEX
  8
0
 10
48.220000000000013
 20
548.75999999999999
 42
1
  0
VERTEX
  8
0
 10
74.220000000000013
 20
548.75999999999999
 42
1
  0
SEQEND
  0
POLYLINE
  8
0
 10
0
 20
0
 39
0
 70
1
 66
1
  0
VERTEX
  8
0
 10
122.54000000000002
 20
329.22000000000003
 42
0
  0
VERTEX
  8
0
 10
224.54000000000002
 20
287.22000000000003
 42
0
  0
VERTEX
  8
0
 10
224.54000000000002
 20
10.219999999999999
 42
0
  0
VERTEX
  8
0
 10
122.54000000000002
 20
10.219999999999999
 42
0
  0
SEQEND
  0
POLYLINE
  8
0
 10
0
 20
0
 39
0
 70
1
 66
1
  0
VERTEX
  8
0
 10
186.54000000000002
 20
79.219999999999999
 42
1
  0
VERTEX
  8
0
 10
160.54000000000002
 20
79.219999999999999
 42
1
  0
SEQEND
  0
POLYLINE
  8
0
 10
0
 20
0
 39
0
 70
1
 66
1
  0
VERTEX
  8
0
 10
224.54000000000005
 20
298.75999999999999
 42
0
  0
VERTEX
  8
0
 10
122.54000000000003
 20
340.75999999999999
 42
0
  0
VERTEX
  8
0
 10
122.54000000000001
 20
617.75999999999999
 42
0
  0
VERTEX
  8
0
 10
224.53999999999999
 20
617.75999999999999
 42
0
  0
SEQEND
  0
POLYLINE
  8
0
 10
0
 20
0
 39
0
 70
1
 66
1
  0
VERTEX
  8
0
 10
160.54000000000002
 20
548.75999999999999
 42
1
  0
VERTEX
  8
0
 10
186.54000000000002
 20
548.75999999999999
 42
1
  0
SEQEND
  0
POLYLINE
  8
0
 10
0
 20
0
 39
0
 70
1
 66
1
  0
VERTEX
  8
0
 10
329.22000000000003
 20
729.80000000000007
 42
0
  0
VERTEX
  8
0
 10
287.22000000000003
 20
627.80000000000007
 42
0
  0
VERTEX
  8
0
 10
10.220000000000013
 20
627.80000000000007
 42
0
  0
VERTEX
  8
0
 10
10.219999999999999
 20
729.80000000000007
 42
0
  0
SEQEND
  0
POLYLINE
  8
0
 10
0
 20
0
 39
0
 70
1
 66
1
  0
VERTEX
  8
0
 10
79.220000000000013
 20
665.80000000000007
 42
1
  0
VERTEX
  8
0
 10
79.220000000000013
 20
691.80000000000007
 42
1
  0
SEQEND
  0
POLYLINE
  8
0
 10
0
 20
0
 39
0
 70
1
 66
1
  0
VERTEX
  8
0
 10
329.22000000000003
 20
841.94000000000005
 42
0
  0
VERTEX
  8
0
 10
287.22000000000003
 20
739.94000000000005
 42
0
  0
VERTEX
  8
0
 10
10.220000000000013
 20
739.94000000000005
 42
0
  0
VERTEX
  8
0
 10
10.219999999999999
 20
841.94000000000005
 42
0
  0
SEQEND
  0
POLYLINE
  8
0
 10
0
 20
0
 39
0
 70
1
 66
1
  0
VERTEX
  8
0
 10
79.220000000000013
 20
777.94000000000005
 42
1
  0
VERTEX
  8
0
 10
79.220000000000013
 20
803.94000000000005
 42
1
  0
SEQEND
  0
POLYLINE
  8
0
 10
0
 20
0
 39
0
 70
1
 66
1
  0
VERTEX
  8
0
 10
234.86000000000001
 20
329.22000000000003
 42
0
  0
VERTEX
  8
0
 10
336.86000000000001
 20
287.22000000000003
 42
0
  0
VERTEX
  8
0
 10
336.86000000000001
 20
10.219999999999999
 42
0
  0
VERTEX
  8
0
 10
234.86000000000001
 20
10.219999999999999
 42
0
  0
SEQEND
  0
POLYLINE
  8
0
 10
0
 20
0
 39
0
 70
1
 66
1
  0
VERTEX
  8
0
 10
298.86000000000001
 20
79.219999999999999
 42
1
  0
VERTEX
  8
0
 10
272.86000000000001
 20
79.219999999999999
 42
1
  0
SEQEND
  0
POLYLINE
  8
0
 10
0
 20
0
 39
0
 70
1
 66
1
  0
VERTEX
  8
0
 10
336.86000000000007
 20
298.75999999999999
 42
0
  0
VERTEX
  8
0
 10
234.86000000000007
 20
340.75999999999999
 42
0
  0
VERTEX
  8
0
 10
234.86000000000001
 20
617.75999999999999
 42
0
  0
VERTEX
  8
0
 10
336.86000000000001
 20
617.75999999999999
 42
0
  0
SEQEND
  0
POLYLINE
  8
0
 10
0
 20
0
 39
0
 70
1
 66
1
  0
VERTEX
  8
0
 10
272.86000000000001
 20
548.75999999999999
 42
1
  0
VERTEX
  8
0
 10
298.86000000000001
 20
548.75999999999999
 42
1
  0
SEQEND
  0
POLYLINE
  8
0
 10
0
 20
0
 39
0
 70
1
 66
1
  0
VERTEX
  8
0
 10
347.18000000000006
 20
329.22000000000003
 42
0
  0
VERTEX
  8
0
 10
449.18000000000006
 20
287.22000000000003
 42
0
  0
VERTEX
  8
0
 10
449.18000000000006
 20
10.219999999999999
 42
0
  0
VERTEX
  8
0
 10
347.18000000000006
 20
10.219999999999999
 42
0
  0
SEQEND
  0
POLYLINE
  8
0
 10
0
 20
0
 39
0
 70
1
 66
1
  0
VERTEX
  8
0
 10
411.18000000000006
 20
79.219999999999999
 42
1
  0
VERTEX
  8
0
 10
385.18000000000006
 20
79.219999999999999
 42
1
  0
SEQEND
  0
POLYLINE
  8
0
 10
0
 20
0
 39
0
 70
1
 66
1
  0
VERTEX
  8
0
 10
449.18000000000006
 20
298.75999999999999
 42
0
  0
VERTEX
  8
0
 10
347.18000000000006
 20
340.75999999999999
 42
0
  0
VERTEX
  8
0
 10
347.18000000000001
 20
617.75999999999999
 42
0
  0
VERTEX
  8
0
 10
449.18000000000001
 20
617.75999999999999
 42
0
  0
SEQEND
  0
POLYLINE
  8
0
 10
0
 20
0
 39
0
 70
1
 66
1
  0
VERTEX
  8
0
 10
385.18000000000006
 20
548.75999999999999
 42
1
  0
VERTEX
  8
0
 10
411.18000000000006
 20
548.75999999999999
 42
1
  0
SEQEND
  0
POLYLINE
  8
0
 10
0
 20
0
 39
0
 70
1
 66
1
  0
VERTEX
  8
0
 10
459.5
 20
329.22000000000003
 42
0
  0
VERTEX
  8
0
 10
561.5
 20
287.22000000000003
 42
0
  0
VERTEX
  8
0
 10
561.5
 20
10.219999999999999
 42
0
  0
VERTEX
  8
0
 10
459.5
 20
10.219999999999999
 42
0
  0
SEQEND
  0
POLYLINE
  8
0
 10
0
 20
0
 39
0
 70
1
 66
1
  0
VERTEX
  8
0
 10
523.5
 20
79.219999999999999
 42
1
  0
VERTEX
  8
0
 10
497.5
 20
79.219999999999999
 42
1
  0
SEQEND
  0
POLYLINE
  8
0
 10
0
 20
0
 39
0
 70
1
 66
1
  0
VERTEX
  8
0
 10
561.5
 20
298.75999999999999
 42
0
  0
VERTEX
  8
0
 10
459.50000000000006
 20
340.75999999999999
 42
0
  0
VERTEX
  8
0
 10
459.5
 20
617.75999999999999
 42
0
  0
VERTEX
  8
0
 10
561.5
 20
617.75999999999999
 42
0
  0
SEQEND
  0
POLYLINE
  8
0
 10
0
 20
0
 39
0
 70
1
 66
1
  0
VERTEX
  8
0
 10
497.5
 20
548.75999999999999
 42
1
  0
VERTEX
  8
0
 10
523.5
 20
548.75999999999999
 42
1
  0
SEQEND
  0
POLYLINE
  8
0
 10
0
 20
0
 39
0
 70
1
 66
1
  0
VERTEX
  8
0
 10
298.76000000000005
 20
627.80000000000007
 42
0
  0
VERTEX
  8
0
 10
340.75999999999999
 20
729.80000000000007
 42
0
  0
VERTEX
  8
0
 10
617.75999999999999
 20
729.80000000000018
 42
0
  0
VERTEX
  8
0
 10
617.75999999999999
 20
627.80000000000018
 42
0
  0
SEQEND
  0
POLYLINE
  8
0
 10
0
 20
0
 39
0
 70
1
 66
1
  0
VERTEX
  8
0
 10
548.75999999999999
 20
691.80000000000018
 42
1
  0
VERTEX
  8
0
 10
548.75999999999999
 20
665.80000000000018
 42
1
  0
SEQEND
  0
POLYLINE
  8
0
 10
0
 20
0
 39
0
 70
1
 66
1
  0
VERTEX
  8
0
 10
298.76000000000005
 20
739.94000000000005
 42
0
  0
VERTEX
  8
0
 10
340.75999999999999
 20
841.94000000000005
 42
0
  0
VERTEX
  8
0
 10
617.75999999999999
 20
841.94000000000017
 42
0
  0
VERTEX
  8
0
 10
617.75999999999999
 20
739.94000000000017
 42
0
  0
SEQEND
  0
POLYLINE
  8
0
 10
0
 20
0
 39
0
 70
1
 66
1
  0
VERTEX
  8
0
 10
548.75999999999999
 20
803.94000000000017
 42
1
  0
VERTEX
  8
0
 10
548.75999999999999
 20
777.94000000000017
 42
1
  0
SEQEND
  0
POLYLINE
  8
0
 10
0
 20
0
 39
0
 70
1
 66
1
  0
VERTEX
  8
0
 10
571.82000000000005
 20
329.22000000000003
 42
0
  0
VERTEX
  8
0
 10
673.82000000000005
 20
287.22000000000003
 42
0
  0
VERTEX
  8
0
 10
673.82000000000005
 20
10.219999999999999
 42
0
  0
VERTEX
  8
0
 10
571.82000000000005
 20
10.219999999999999
 42
0
  0
SEQEND
  0
POLYLINE
  8
0
 10
0
 20
0
 39
0
 70
1
 66
1
  0
VERTEX
  8
0
 10
635.82000000000005
 20
79.219999999999999
 42
1
  0
VERTEX
  8
0
 10
609.82000000000005
 20
79.219999999999999
 42
1
  0
SEQEND
  0
POLYLINE
  8
0
 10
0
 20
0
 39
0
 70
1
 66
1
  0
VERTEX
  8
0
 10
673.82000000000016
 20
298.75999999999999
 42
0
  0
VERTEX
  8
0
 10
571.82000000000005
 20
340.75999999999999
 42
0
  0
VERTEX
  8
0
 10
571.82000000000005
 20
617.75999999999999
 42
0
  0
VERTEX
  8
0
 10
673.82000000000005
 20
617.75999999999999
 42
0
  0
SEQEND
  0
POLYLINE
  8
0
 10
0
 20
0
 39
0
 70
1
 66
1
  0
VERTEX
  8
0
 10
609.82000000000005
 20
548.75999999999999
 42
1
  0
VERTEX
  8
0
 10
635.82000000000005
 20
548.75999999999999
 42
1
  0
SEQEND
  0
POLYLINE
  8
0
 10
0
 20
0
 39
0
 70
1
 66
1
  0
VERTEX
  8
0
 10
684.13999999999999
 20
329.22000000000003
 42
0
  0
VERTEX
  8
0
 10
786.13999999999999
 20
287.22000000000003
 42
0
  0
VERTEX
  8
0
 10
786.13999999999999
 20
10.219999999999999
 42
0
  0
VERTEX
  8
0
 10
684.13999999999999
 20
10.219999999999999
 42
0
  0
SEQEND
  0
POLYLINE
  8
0
 10
0
 20
0
 39
0
 70
1
 66
1
  0
VERTEX
  8
0
 10
748.13999999999999
 20
79.219999999999999
 42
1
  0
VERTEX
  8
0
 10
722.13999999999999
 20
79.219999999999999
 42
1
  0
SEQEND
  0
POLYLINE
  8
0
 10
0
 20
0
 39
0
 70
1
 66
1
  0
VERTEX
  8
0
 10
786.1400000000001
 20
298.75999999999999
 42
0
  0
VERTEX
  8
0
 10
684.13999999999999
 20
340.75999999999999
 42
0
  0
VERTEX
  8
0
 10
684.13999999999999
 20
617.75999999999999
 42
0
  0
VERTEX
  8
0
 10
786.13999999999999
 20
617.75999999999999
 42
0
  0
SEQEND
  0
POLYLINE
  8
0
 10
0
 20
0
 39
0
 70
1
 66
1
  0
VERTEX
  8
0
 10
722.13999999999999
 20
548.75999999999999
 42
1
  0
VERTEX
  8
0
 10
748.13999999999999
 20
548.75999999999999
 42
1
  0
SEQEND
  0
POLYLINE
  8
0
 10
0
 20
0
 39
0
 70
1
 66
1
  0
VERTEX
  8
0
 10
796.46000000000004
 20
329.22000000000003
 42
0
  0
VERTEX
  8
0
 10
898.46000000000004
 20
287.22000000000003
 42
0
  0
VERTEX
  8
0
 10
898.46000000000004
 20
10.219999999999999
 42
0
  0
VERTEX
  8
0
 10
796.46000000000004
 20
10.219999999999999
 42
0
  0
SEQEND
  0
POLYLINE
  8
0
 10
0
 20
0
 39
0
 70
1
 66
1
  0
VERTEX
  8
0
 10
860.46000000000004
 20
79.219999999999999
 42
1
  0
VERTEX
  8
0
 10
834.46000000000004
 20
79.219999999999999
 42
1
  0
SEQEND
  0
POLYLINE
  8
0
 10
0
 20
0
 39
0
 70
1
 66
1
  0
VERTEX
  8
0
 10
898.46000000000004
 20
298.75999999999999
 42
0
  0
VERTEX
  8
0
 10
796.46000000000004
 20
340.75999999999999
 42
0
  0
VERTEX
  8
0
 10
796.46000000000004
 20
617.75999999999999
 42
0
  0
VERTEX
  8
0
 10
898.46000000000004
 20
617.75999999999999
 42
0
  0
SEQEND
  0
POLYLINE
  8
0
 10
0
 20
0
 39
0
 70
1
 66
1
  0
VERTEX
  8
0
 10
834.46000000000004
 20
548.75999999999999
 42
1
  0
VERTEX
  8
0
 10
860.46000000000004
 20
548.75999999999999
 42
1
  0
SEQEND
  0
POLYLINE
  8
0
 10
0
 20
0
 39
0
 70
1
 66
1
  0
VERTEX
  8
0
 10
627.07999999999993
 20
734.72000000000003
 42
0
  0
VERTEX
  8
0
 10
669.07999999999993
 20
836.72000000000003
 42
0
  0
VERTEX
  8
0
 10
946.07999999999993
 20
836.72000000000014
 42
0
  0
VERTEX
  8
0
 10
946.07999999999993
 20
734.72000000000014
 42
0
  0
SEQEND
  0
POLYLINE
  8
0
 10
0
 20
0
 39
0
 70
1
 66
1
  0
VERTEX
  8
0
 10
877.07999999999993
 20
798.72000000000014
 42
1
  0
VERTEX
  8
0
 10
877.07999999999993
 20
772.72000000000014
 42
1
  0
SEQEND
  0
POLYLINE
  8
0
 10
0
 20
0
 39
0
 70
1
 66
1
  0
VERTEX
  8
0
 10
908.7800000000002
 20
329.22000000000003
 42
0
  0
VERTEX
  8
0
 10
1010.7800000000002
 20
287.22000000000003
 42
0
  0
VERTEX
  8
0
 10
1010.7800000000002
 20
10.219999999999999
 42
0
  0
VERTEX
  8
0
 10
908.7800000000002
 20
10.219999999999999
 42
0
  0
SEQEND
  0
POLYLINE
  8
0
 10
0
 20
0
 39
0
 70
1
 66
1
  0
VERTEX
  8
0
 10
972.7800000000002
 20
79.219999999999999
 42
1
  0
VERTEX
  8
0
 10
946.7800000000002
 20
79.219999999999999
 42
1
  0
SEQEND
  0
POLYLINE
  8
0
 10
0
 20
0
 39
0
 70
1
 66
1
  0
VERTEX
  8
0
 10
882.98000000000002
 20
627.80000000000007
 42
-0
  0
VERTEX
  8
0
 10
627.98000000000002
 20
627.80000000000007
 42
-0
  0
VERTEX
  8
0
 10
627.98000000000002
 20
707.80000000000007
 42
-0
  0
VERTEX
  8
0
 10
882.98000000000002
 20
707.80000000000007
 42
-0
  0
SEQEND
  0
POLYLINE
  8
0
 10
0
 20
0
 39
0
 70
1
 66
1
  0
VERTEX
  8
0
 10
811.28000305175783
 20
667.80000000000007
 42
1
  0
VERTEX
  8
0
 10
761.28000305175783
 20
667.80000000000007
 42
1
  0
SEQEND
  0
POLYLINE
  8
0
 10
0
 20
0
 39
0
 70
1
 66
1
  0
VERTEX
  8
0
 10
749.67999694824221
 20
667.80000000000007
 42
1
  0
VERTEX
  8
0
 10
699.67999694824221
 20
667.80000000000007
 42
1
  0
SEQEND
  0
POLYLINE
  8
0
 10
0
 20
0
 39
0
 70
1
 66
1
  0
VERTEX
  8
0
 10
908.78000000000009
 20
339.25999999999999
 42
-0
  0
VERTEX
  8
0
 10
908.78000000000009
 20
594.25999999999999
 42
-0
  0
VERTEX
  8
0
 10
988.78000000000009
 20
594.25999999999999
 42
-0
  0
VERTEX
  8
0
 10
988.78000000000009
 20
339.25999999999999
 42
-0
  0
SEQEND
  0
POLYLINE
  8
0
 10
0
 20
0
 39
0
 70
1
 66
1
  0
VERTEX
  8
0
 10
948.78000000000009
 20
410.95999694824218
 42
1
  0
VERTEX
  8
0
 10
948.78000000000009
 20
460.95999694824218
 42
1
  0
SEQEND
  0
POLYLINE
  8
0
 10
0
 20
0
 39
0
 70
1
 66
1
  0
VERTEX
  8
0
 10
948.78000000000009
 20
472.5600030517578
 42
1
  0
VERTEX
  8
0
 10
948.78000000000009
 20
522.5600030517578
 42
1
  0
SEQEND
  0
POLYLINE
  8
0
 10
0
 20
0
 39
0
 70
1
 66
1
  0
VERTEX
  8
0
 10
956.30000000000007
 20
604.39999999999998
 42
-0
  0
VERTEX
  8
0
 10
956.30000000000007
 20
859.39999999999998
 42
-0
  0
VERTEX
  8
0
 10
1036.3
 20
859.39999999999998
 42
-0
  0
VERTEX
  8
0
 10
1036.3000000000002
 20
604.39999999999998
 42
-0
  0
SEQEND
  0
POLYLINE
  8
0
 10
0
 20
0
 39
0
 70
1
 66
1
  0
VERTEX
  8
0
 10
996.30000000000007
 20
676.09999694824216
 42
1
  0
VERTEX
  8
0
 10
996.30000000000007
 20
726.09999694824216
 42
1
  0
SEQEND
  0
POLYLINE
  8
0
 10
0
 20
0
 39
0
 70
1
 66
1
  0
VERTEX
  8
0
 10
996.30000000000007
 20
737.70000305175779
 42
1
  0
VERTEX
  8
0
 10
996.30000000000007
 20
787.70000305175779
 42
1
  0
SEQEND
  0
POLYLINE
  8
0
 10
0
 20
0
 39
0
 70
1
 66
1
  0
VERTEX
  8
0
 10
999.13999999999999
 20
303.44
 42
-0
  0
VERTEX
  8
0
 10
999.13999999999999
 20
558.44000000000005
 42
-0
  0
VERTEX
  8
0
 10
1079.1399999999999
 20
558.44000000000005
 42
-0
  0
VERTEX
  8
0
 10
1079.1399999999999
 20
303.44
 42
-0
  0
SEQEND
  0
POLYLINE
  8
0
 10
0
 20
0
 39
0
 70
1
 66
1
  0
VERTEX
  8
0
 10
1039.1399999999999
 20
375.13999694824219
 42
1
  0
VERTEX
  8
0
 10
1039.1399999999999
 20
425.13999694824219
 42
1
  0
SEQEND
  0
POLYLINE
  8
0
 10
0
 20
0
 39
0
 70
1
 66
1
  0
VERTEX
  8
0
 10
1039.1399999999999
 20
436.74000305175781
 42
1
  0
VERTEX
  8
0
 10
1039.1399999999999
 20
486.74000305175781
 42
1
  0
SEQEND
  0
POLYLINE
  8
0
 10
0
 20
0
 39
0
 70
1
 66
1
  0
VERTEX
  8
0
 10
1021.1
 20
10.219999999999999
 42
-0
  0
VERTEX
  8
0
 10
1021.1
 20
265.22000000000003
 42
-0
  0
VERTEX
  8
0
 10
1101.0999999999999
 20
265.22000000000003
 42
-0
  0
VERTEX
  8
0
 10
1101.0999999999999
 20
10.220000000000004
 42
-0
  0
SEQEND
  0
POLYLINE
  8
0
 10
0
 20
0
 39
0
 70
1
 66
1
  0
VERTEX
  8
0
 10
1061.0999999999999
 20
81.919996948242186
 42
1
  0
VERTEX
  8
0
 10
1061.0999999999999
 20
131.91999694824219
 42
1
  0
SEQEND
  0
POLYLINE
  8
0
 10
0
 20
0
 39
0
 70
1
 66
1
  0
VERTEX
  8
0
 10
1061.0999999999999
 20
143.52000305175781
 42
1
  0
VERTEX
  8
0
 10
1061.0999999999999
 20
193.52000305175781
 42
1
  0
SEQEND
  0
POLYLINE
  8
0
 10
0
 20
0
 39
0
 70
1
 66
1
  0
VERTEX
  8
0
 10
1046.6600000000001
 20
568.58000000000004
 42
-0
  0
VERTEX
  8
0
 10
1046.6600000000001
 20
823.58000000000004
 42
-0
  0
VERTEX
  8
0
 10
1126.6600000000001
 20
823.58000000000004
 42
-0
  0
VERTEX
  8
0
 10
1126.6600000000001
 20
568.58000000000004
 42
-0
  0
SEQEND
  0
POLYLINE
  8
0
 10
0
 20
0
 39
0
 70
1
 66
1
  0
VERTEX
  8
0
 10
1086.6600000000001
 20
640.27999694824223
 42
1
  0
VERTEX
  8
0
 10
1086.6600000000001
 20
690.27999694824223
 42
1
  0
SEQEND
  0
POLYLINE
  8
0
 10
0
 20
0
 39
0
 70
1
 66
1
  0
VERTEX
  8
0
 10
1086.6600000000001
 20
701.88000305175785
 42
1
  0
VERTEX
  8
0
 10
1086.6600000000001
 20
751.88000305175785
 42
1
  0
SEQEND
  0
POLYLINE
  8
0
 10
0
 20
0
 39
0
 70
1
 66
1
  0
VERTEX
  8
0
 10
1089.5
 20
275.36000000000001
 42
-0
  0
VERTEX
  8
0
 10
1089.5
 20
530.36000000000001
 42
-0
  0
VERTEX
  8
0
 10
1169.5
 20
530.36000000000001
 42
-0
  0
VERTEX
  8
0
 10
1169.5
 20
275.36000000000001
 42
-0
  0
SEQEND
  0
POLYLINE
  8
0
 10
0
 20
0
 39
0
 70
1
 66
1
  0
VERTEX
  8
0
 10
1129.5
 20
347.0599969482422
 42
1
  0
VERTEX
  8
0
 10
1129.5
 20
397.0599969482422
 42
1
  0
SEQEND
  0
POLYLINE
  8
0
 10
0
 20
0
 39
0
 70
1
 66
1
  0
VERTEX
  8
0
 10
1129.5
 20
408.66000305175783
 42
1
  0
VERTEX
  8
0
 10
1129.5
 20
458.66000305175783
 42
1
  0
SEQEND
  0
POLYLINE
  8
0
 10
0
 20
0
 39
0
 70
1
 66
1
  0
VERTEX
  8
0
 10
1111.46
 20
10.219999999999999
 42
-0
  0
VERTEX
  8
0
 10
1111.46
 20
265.22000000000003
 42
-0
  0
VERTEX
  8
0
 10
1191.46
 20
265.22000000000003
 42
-0
  0
VERTEX
  8
0
 10
1191.46
 20
10.220000000000004
 42
-0
  0
SEQEND
  0
POLYLINE
  8
0
 10
0
 20
0
 39
0
 70
1
 66
1
  0
VERTEX
  8
0
 10
1151.46
 20
81.919996948242186
 42
1
  0
VERTEX
  8
0
 10
1151.46
 20
131.91999694824219
 42
1
  0
SEQEND
  0
POLYLINE
  8
0
 10
0
 20
0
 39
0
 70
1
 66
1
  0
VERTEX
  8
0
 10
1151.46
 20
143.52000305175781
 42
1
  0
VERTEX
  8
0
 10
1151.46
 20
193.52000305175781
 42
1
  0
SEQEND
  0
POLYLINE
  8
0
 10
0
 20
0
 39
0
 70
1
 66
1
  0
VERTEX
  8
0
 10
1137.02
 20
540.5
 42
-0
  0
VERTEX
  8
0
 10
1137.02
 20
795.5
 42
-0
  0
VERTEX
  8
0
 10
1217.02
 20
795.5
 42
-0
  0
VERTEX
  8
0
 10
1217.02
 20
540.5
 42
-0
  0
SEQEND
  0
POLYLINE
  8
0
 10
0
 20
0
 39
0
 70
1
 66
1
  0
VERTEX
  8
0
 10
1177.02
 20
612.19999694824219
 42
1
  0
VERTEX
  8
0
 10
1177.02
 20
662.19999694824219
 42
1
  0
SEQEND
  0
POLYLINE
  8
0
 10
0
 20
0
 39
0
 70
1
 66
1
  0
VERTEX
  8
0
 10
1177.02
 20
673.80000305175781
 42
1
  0
VERTEX
  8
0
 10
1177.02
 20
723.80000305175781
 42
1
  0
SEQEND
  0
POLYLINE
  8
0
 10
0
 20
0
 39
0
 70
1
 66
1
  0
VERTEX
  8
0
 10
1230.0000016501458
 20
271.34000000000003
 42
0
  0
VERTEX
  8
0
 10
1227.0000016501458
 20
268.34000000000003
 42
0
  0
VERTEX
  8
0
 10
1203.0000016501458
 20
268.34000000000003
 42
0
  0
VERTEX
  8
0
 10
1200.0000016501458
 20
271.34000000000003
 42
0
  0
VERTEX
  8
0
 10
1200.0000016501458
 20
372.21067985534671
 42
-0.58976781368255615
  0
VERTEX
  8
0
 10
1199.9999968817742
 20
426.46931823730472
 42
0
  0
VERTEX
  8
0
 10
1200.0000016501458
 20
530.34000000000003
 42
0
  0
VERTEX
  8
0
 10
1230.0000016501458
 20
530.34000000000003
 42
0
  0
VERTEX
  8
0
 10
1230.0000016501458
 20
426.46932014465335
 42
-0.58976787328720093
  0
VERTEX
  8
0
 10
1229.9999987891229
 20
372.21067794799808
 42
0
  0
SEQEND
  0
POLYLINE
  8
0
 10
0
 20
0
 39
0
 70
1
 66
1
  0
VERTEX
  8
0
 10
1215.0000016501458
 20
285.34000000000003
 42
1
  0
VERTEX
  8
0
 10
1215.0000016501458
 20
301.34000000000003
 42
1
  0
SEQEND
  0
POLYLINE
  8
0
 10
0
 20
0
 39
0
 70
1
 66
1
  0
VERTEX
  8
0
 10
1215.0000016501458
 20
497.34000000000003
 42
1
  0
VERTEX
  8
0
 10
1215.0000016501458
 20
513.34000000000003
 42
1
  0
SEQEND
  0
POLYLINE
  8
0
 10
0
 20
0
 39
0
 70
1
 66
1
  0
VERTEX
  8
0
 10
1240.3200005773747
 20
269.22000000000003
 42
0
  0
VERTEX
  8
0
 10
1243.3200005773747
 20
272.22000000000003
 42
0
  0
VERTEX
  8
0
 10
1267.3200005773747
 20
272.22000000000003
 42
0
  0
VERTEX
  8
0
 10
1270.3200005773747
 20
269.22000000000003
 42
0
  0
VERTEX
  8
0
 10
1270.3200005773747
 20
168.34932014465332
 42
-0.58976781368255615
  0
VERTEX
  8
0
 10
1270.3200053457463
 20
114.09068176269531
 42
0
  0
VERTEX
  8
0
 10
1270.3200005773747
 20
10.219999999999999
 42
0
  0
VERTEX
  8
0
 10
1240.3200005773747
 20
10.219999999999999
 42
0
  0
VERTEX
  8
0
 10
1240.3200005773747
 20
114.09067985534668
 42
-0.58976787328720093
  0
VERTEX
  8
0
 10
1240.3200034383976
 20
168.34932205200195
 42
0
  0
SEQEND
  0
POLYLINE
  8
0
 10
0
 20
0
 39
0
 70
1
 66
1
  0
VERTEX
  8
0
 10
1255.3200005773747
 20
255.22
 42
1
  0
VERTEX
  8
0
 10
1255.3200005773747
 20
239.22
 42
1
  0
SEQEND
  0
POLYLINE
  8
0
 10
0
 20
0
 39
0
 70
1
 66
1
  0
VERTEX
  8
0
 10
1255.3200005773747
 20
43.219999999999999
 42
1
  0
VERTEX
  8
0
 10
1255.3200005773747
 20
27.219999999999999
 42
1
  0
SEQEND
  0
POLYLINE
  8
0
 10
0
 20
0
 39
0
 70
1
 66
1
  0
VERTEX
  8
0
 10
1273.3800016501459
 20
432.62
 42
0
  0
VERTEX
  8
0
 10
1270.3800016501459
 20
429.62
 42
0
  0
VERTEX
  8
0
 10
1246.3800016501459
 20
429.62
 42
0
  0
VERTEX
  8
0
 10
1243.3800016501459
 20
432.62
 42
0
  0
VERTEX
  8
0
 10
1243.3800016501459
 20
533.49067985534668
 42
-0.58976781368255615
  0
VERTEX
  8
0
 10
1243.3799968817743
 20
587.74931823730469
 42
0
  0
VERTEX
  8
0
 10
1243.3800016501459
 20
691.62
 42
0
  0
VERTEX
  8
0
 10
1273.3800016501459
 20
691.62
 42
0
  0
VERTEX
  8
0
 10
1273.3800016501459
 20
587.74932014465332
 42
-0.58976787328720093
  0
VERTEX
  8
0
 10
1273.379998789123
 20
533.49067794799805
 42
0
  0
SEQEND
  0
POLYLINE
  8
0
 10
0
 20
0
 39
0
 70
1
 66
1
  0
VERTEX
  8
0
 10
1258.3800016501459
 20
446.62
 42
1
  0
VERTEX
  8
0
 10
1258.3800016501459
 20
462.62
 42
1
  0
SEQEND
  0
POLYLINE
  8
0
 10
0
 20
0
 39
0
 70
1
 66
1
  0
VERTEX
  8
0
 10
1258.3800016501459
 20
658.62
 42
1
  0
VERTEX
  8
0
 10
1258.3800016501459
 20
674.62
 42
1
  0
SEQEND
  0
POLYLINE
  8
0
 10
0
 20
0
 39
0
 70
1
 66
1
  0
VERTEX
  8
0
 10
1305.6600000000001
 20
864.06000165014586
 42
0
  0
VERTEX
  8
0
 10
1308.6600000000001
 20
861.06000165014586
 42
0
  0
VERTEX
  8
0
 10
1308.6600000000001
 20
837.06000165014586
 42
0
  0
VERTEX
  8
0
 10
1305.6600000000001
 20
834.06000165014586
 42
0
  0
VERTEX
  8
0
 10
1204.7893201446534
 20
834.06000165014586
 42
-0.58976781368255615
  0
VERTEX
  8
0
 10
1150.5306817626954
 20
834.05999688177428
 42
0
  0
VERTEX
  8
0
 10
1046.6600000000001
 20
834.06000165014586
 42
0
  0
VERTEX
  8
0
 10
1046.6600000000001
 20
864.06000165014586
 42
0
  0
VERTEX
  8
0
 10
1150.5306798553468
 20
864.06000165014586
 42
-0.58976787328720093
  0
VERTEX
  8
0
 10
1204.789322052002
 20
864.05999878912291
 42
0
  0
SEQEND
  0
POLYLINE
  8
0
 10
0
 20
0
 39
0
 70
1
 66
1
  0
VERTEX
  8
0
 10
1291.6600000000001
 20
849.06000165014586
 42
1
  0
VERTEX
  8
0
 10
1275.6600000000001
 20
849.06000165014586
 42
1
  0
SEQEND
  0
POLYLINE
  8
0
 10
0
 20
0
 39
0
 70
1
 66
1
  0
VERTEX
  8
0
 10
1079.6600000000001
 20
849.06000165014586
 42
1
  0
VERTEX
  8
0
 10
1063.6600000000001
 20
849.06000165014586
 42
1
  0
SEQEND
  0
POLYLINE
  8
0
 10
0
 20
0
 39
0
 70
1
 66
1
  0
VERTEX
  8
0
 10
1313.7000016501459
 20
171.62
 42
0
  0
VERTEX
  8
0
 10
1310.7000016501459
 20
168.62
 42
0
  0
VERTEX
  8
0
 10
1286.7000016501459
 20
168.62
 42
0
  0
VERTEX
  8
0
 10
1283.7000016501459
 20
171.62
 42
0
  0
VERTEX
  8
0
 10
1283.7000016501459
 20
272.49067985534668
 42
-0.58976781368255615
  0
VERTEX
  8
0
 10
1283.6999968817743
 20
326.74931823730469
 42
0
  0
VERTEX
  8
0
 10
1283.7000016501459
 20
430.62
 42
0
  0
VERTEX
  8
0
 10
1313.7000016501459
 20
430.62
 42
0
  0
VERTEX
  8
0
 10
1313.7000016501459
 20
326.74932014465332
 42
-0.58976787328720093
  0
VERTEX
  8
0
 10
1313.6999987891229
 20
272.49067794799805
 42
0
  0
SEQEND
  0
POLYLINE
  8
0
 10
0
 20
0
 39
0
 70
1
 66
1
  0
VERTEX
  8
0
 10
1298.7000016501459
 20
185.62
 42
1
  0
VERTEX
  8
0
 10
1298.7000016501459
 20
201.62
 42
1
  0
SEQEND
  0
POLYLINE
  8
0
 10
0
 20
0
 39
0
 70
1
 66
1
  0
VERTEX
  8
0
 10
1298.7000016501459
 20
397.62
 42
1
  0
VERTEX
  8
0
 10
1298.7000016501459
 20
413.62
 42
1
  0
SEQEND
  0
POLYLINE
  8
0
 10
0
 20
0
 39
0
 70
1
 66
1
  0
VERTEX
  8
0
 10
1329.9000016501459
 20
477.98000000000002
 42
0
  0
VERTEX
  8
0
 10
1326.9000016501459
 20
474.98000000000002
 42
0
  0
VERTEX
  8
0
 10
1302.9000016501459
 20
474.98000000000002
 42
0
  0
VERTEX
  8
0
 10
1299.9000016501459
 20
477.98000000000002
 42
0
  0
VERTEX
  8
0
 10
1299.9000016501459
 20
578.8506798553467
 42
-0.58976781368255615
  0
VERTEX
  8
0
 10
1299.8999968817743
 20
633.10931823730471
 42
0
  0
VERTEX
  8
0
 10
1299.9000016501459
 20
736.98000000000002
 42
0
  0
VERTEX
  8
0
 10
1329.9000016501459
 20
736.98000000000002
 42
0
  0
VERTEX
  8
0
 10
1329.9000016501459
 20
633.10932014465334
 42
-0.58976787328720093
  0
VERTEX
  8
0
 10
1329.8999987891229
 20
578.85067794799807
 42
0
  0
SEQEND
  0
POLYLINE
  8
0
 10
0
 20
0
 39
0
 70
1
 66
1
  0
VERTEX
  8
0
 10
1314.9000016501459
 20
491.98000000000002
 42
1
  0
VERTEX
  8
0
 10
1314.9000016501459
 20
507.98000000000002
 42
1
  0
SEQEND
  0
POLYLINE
  8
0
 10
0
 20
0
 39
0
 70
1
 66
1
  0
VERTEX
  8
0
 10
1314.9000016501459
 20
703.98000000000002
 42
1
  0
VERTEX
  8
0
 10
1314.9000016501459
 20
719.98000000000002
 42
1
  0
SEQEND
  0
POLYLINE
  8
0
 10
0
 20
0
 39
0
 70
1
 66
1
  0
VERTEX
  8
0
 10
1326.9000005773748
 20
269.22000000000003
 42
0
  0
VERTEX
  8
0
 10
1329.9000005773748
 20
272.22000000000003
 42
0
  0
VERTEX
  8
0
 10
1353.9000005773748
 20
272.22000000000003
 42
0
  0
VERTEX
  8
0
 10
1356.9000005773748
 20
269.22000000000003
 42
0
  0
VERTEX
  8
0
 10
1356.9000005773748
 20
168.34932014465332
 42
-0.58976781368255615
  0
VERTEX
  8
0
 10
1356.9000053457464
 20
114.09068176269531
 42
0
  0
VERTEX
  8
0
 10
1356.9000005773748
 20
10.219999999999999
 42
0
  0
VERTEX
  8
0
 10
1326.9000005773748
 20
10.219999999999999
 42
0
  0
VERTEX
  8
0
 10
1326.9000005773748
 20
114.09067985534668
 42
-0.58976787328720093
  0
VERTEX
  8
0
 10
1326.9000034383978
 20
168.34932205200195
 42
0
  0
SEQEND
  0
POLYLINE
  8
0
 10
0
 20
0
 39
0
 70
1
 66
1
  0
VERTEX
  8
0
 10
1341.9000005773748
 20
255.22
 42
1
  0
VERTEX
  8
0
 10
1341.9000005773748
 20
239.22
 42
1
  0
SEQEND
  0
POLYLINE
  8
0
 10
0
 20
0
 39
0
 70
1
 66
1
  0
VERTEX
  8
0
 10
1341.9000005773748
 20
43.219999999999999
 42
1
  0
VERTEX
  8
0
 10
1341.9000005773748
 20
27.219999999999999
 42
1
  0
SEQEND
  0
POLYLINE
  8
0
 10
0
 20
0
 39
0
 70
1
 66
1
  0
VERTEX
  8
0
 10
1370.580001650146
 20
285.38
 42
0
  0
VERTEX
  8
0
 10
1367.580001650146
 20
282.38
 42
0
  0
VERTEX
  8
0
 10
1343.580001650146
 20
282.38
 42
0
  0
VERTEX
  8
0
 10
1340.580001650146
 20
285.38
 42
0
  0
VERTEX
  8
0
 10
1340.580001650146
 20
386.25067985534668
 42
-0.58976781368255615
  0
VERTEX
  8
0
 10
1340.5799968817744
 20
440.50931823730468
 42
0
  0
VERTEX
  8
0
 10
1340.580001650146
 20
544.38
 42
0
  0
VERTEX
  8
0
 10
1370.580001650146
 20
544.38
 42
0
  0
VERTEX
  8
0
 10
1370.580001650146
 20
440.50932014465332
 42
-0.58976787328720093
  0
VERTEX
  8
0
 10
1370.579998789123
 20
386.25067794799804
 42
0
  0
SEQEND
  0
POLYLINE
  8
0
 10
0
 20
0
 39
0
 70
1
 66
1
  0
VERTEX
  8
0
 10
1355.580001650146
 20
299.38
 42
1
  0
VERTEX
  8
0
 10
1355.580001650146
 20
315.38
 42
1
  0
SEQEND
  0
POLYLINE
  8
0
 10
0
 20
0
 39
0
 70
1
 66
1
  0
VERTEX
  8
0
 10
1355.580001650146
 20
511.38
 42
1
  0
VERTEX
  8
0
 10
1355.580001650146
 20
527.38
 42
1
  0
SEQEND
  0
POLYLINE
  8
0
 10
0
 20
0
 39
0
 70
1
 66
1
  0
VERTEX
  8
0
 10
1380.3000016501458
 20
630.62
 42
0
  0
VERTEX
  8
0
 10
1377.3000016501458
 20
627.62
 42
0
  0
VERTEX
  8
0
 10
1353.3000016501458
 20
627.62
 42
0
  0
VERTEX
  8
0
 10
1350.3000016501458
 20
630.62
 42
0
  0
VERTEX
  8
0
 10
1350.3000016501458
 20
731.49067985534668
 42
-0.58976781368255615
  0
VERTEX
  8
0
 10
1350.2999968817742
 20
785.74931823730469
 42
0
  0
VERTEX
  8
0
 10
1350.3000016501458
 20
889.62
 42
0
  0
VERTEX
  8
0
 10
1380.3000016501458
 20
889.62
 42
0
  0
VERTEX
  8
0
 10
1380.3000016501458
 20
785.74932014465332
 42
-0.58976787328720093
  0
VERTEX
  8
0
 10
1380.2999987891228
 20
731.49067794799805
 42
0
  0
SEQEND
  0
POLYLINE
  8
0
 10
0
 20
0
 39
0
 70
1
 66
1
  0
VERTEX
  8
0
 10
1365.3000016501458
 20
644.62
 42
1
  0
VERTEX
  8
0
 10
1365.3000016501458
 20
660.62
 42
1
  0
SEQEND
  0
POLYLINE
  8
0
 10
0
 20
0
 39
0
 70
1
 66
1
  0
VERTEX
  8
0
 10
1365.3000016501458
 20
856.62
 42
1
  0
VERTEX
  8
0
 10
1365.3000016501458
 20
872.62
 42
1
  0
SEQEND
  0
POLYLINE
  8
0
 10
0
 20
0
 39
0
 70
1
 66
1
  0
VERTEX
  8
0
 10
1413.4200016501459
 20
58.579999999999984
 42
0
  0
VERTEX
  8
0
 10
1410.4200016501459
 20
55.579999999999984
 42
0
  0
VERTEX
  8
0
 10
1386.4200016501459
 20
55.579999999999984
 42
0
  0
VERTEX
  8
0
 10
1383.4200016501459
 20
58.579999999999984
 42
0
  0
VERTEX
  8
0
 10
1383.4200016501459
 20
159.45067985534666
 42
-0.58976781368255615
  0
VERTEX
  8
0
 10
1383.4199968817743
 20
213.70931823730467
 42
0
  0
VERTEX
  8
0
 10
1383.4200016501459
 20
317.57999999999998
 42
0
  0
VERTEX
  8
0
 10
1413.4200016501459
 20
317.57999999999998
 42
0
  0
VERTEX
  8
0
 10
1413.4200016501459
 20
213.7093201446533
 42
-0.58976787328720093
  0
VERTEX
  8
0
 10
1413.4199987891229
 20
159.45067794799803
 42
0
  0
SEQEND
  0
POLYLINE
  8
0
 10
0
 20
0
 39
0
 70
1
 66
1
  0
VERTEX
  8
0
 10
1398.4200016501459
 20
72.579999999999984
 42
1
  0
VERTEX
  8
0
 10
1398.4200016501459
 20
88.579999999999984
 42
1
  0
SEQEND
  0
POLYLINE
  8
0
 10
0
 20
0
 39
0
 70
1
 66
1
  0
VERTEX
  8
0
 10
1398.4200016501459
 20
284.57999999999998
 42
1
  0
VERTEX
  8
0
 10
1398.4200016501459
 20
300.57999999999998
 42
1
  0
SEQEND
  0
POLYLINE
  8
0
 10
0
 20
0
 39
0
 70
1
 66
1
  0
VERTEX
  8
0
 10
1420.9800016501458
 20
438.01999999999998
 42
0
  0
VERTEX
  8
0
 10
1417.9800016501458
 20
435.01999999999998
 42
0
  0
VERTEX
  8
0
 10
1393.9800016501458
 20
435.01999999999998
 42
0
  0
VERTEX
  8
0
 10
1390.9800016501458
 20
438.01999999999998
 42
0
  0
VERTEX
  8
0
 10
1390.9800016501458
 20
538.89067985534666
 42
-0.58976781368255615
  0
VERTEX
  8
0
 10
1390.9799968817742
 20
593.14931823730467
 42
0
  0
VERTEX
  8
0
 10
1390.9800016501458
 20
697.01999999999998
 42
0
  0
VERTEX
  8
0
 10
1420.9800016501458
 20
697.01999999999998
 42
0
  0
VERTEX
  8
0
 10
1420.9800016501458
 20
593.1493201446533
 42
-0.58976787328720093
  0
VERTEX
  8
0
 10
1420.9799987891229
 20
538.89067794799803
 42
0
  0
SEQEND
  0
POLYLINE
  8
0
 10
0
 20
0
 39
0
 70
1
 66
1
  0
VERTEX
  8
0
 10
1405.9800016501458
 20
452.01999999999998
 42
1
  0
VERTEX
  8
0
 10
1405.9800016501458
 20
468.01999999999998
 42
1
  0
SEQEND
  0
POLYLINE
  8
0
 10
0
 20
0
 39
0
 70
1
 66
1
  0
VERTEX
  8
0
 10
1405.9800016501458
 20
664.01999999999998
 42
1
  0
VERTEX
  8
0
 10
1405.9800016501458
 20
680.01999999999998
 42
1
  0
SEQEND
  0
POLYLINE
  8
0
 10
0
 20
0
 39
0
 70
1
 66
1
  0
VERTEX
  8
0
 10
1461.6600016501459
 20
214.27999999999997
 42
0
  0
VERTEX
  8
0
 10
1458.6600016501459
 20
211.27999999999997
 42
0
  0
VERTEX
  8
0
 10
1434.6600016501459
 20
211.27999999999997
 42
0
  0
VERTEX
  8
0
 10
1431.6600016501459
 20
214.27999999999997
 42
0
  0
VERTEX
  8
0
 10
1431.6600016501459
 20
315.15067985534665
 42
-0.58976781368255615
  0
VERTEX
  8
0
 10
1431.6599968817743
 20
369.40931823730466
 42
0
  0
VERTEX
  8
0
 10
1431.6600016501459
 20
473.27999999999997
 42
0
  0
VERTEX
  8
0
 10
1461.6600016501459
 20
473.27999999999997
 42
0
  0
VERTEX
  8
0
 10
1461.6600016501459
 20
369.40932014465329
 42
-0.58976787328720093
  0
VERTEX
  8
0
 10
1461.6599987891229
 20
315.15067794799802
 42
0
  0
SEQEND
  0
POLYLINE
  8
0
 10
0
 20
0
 39
0
 70
1
 66
1
  0
VERTEX
  8
0
 10
1446.6600016501459
 20
228.27999999999997
 42
1
  0
VERTEX
  8
0
 10
1446.6600016501459
 20
244.27999999999997
 42
1
  0
SEQEND
  0
POLYLINE
  8
0
 10
0
 20
0
 39
0
 70
1
 66
1
  0
VERTEX
  8
0
 10
1446.6600016501459
 20
440.27999999999997
 42
1
  0
VERTEX
  8
0
 10
1446.6600016501459
 20
456.27999999999997
 42
1
  0
SEQEND
  0
POLYLINE
  8
0
 10
0
 20
0
 39
0
 70
1
 66
1
  0
VERTEX
  8
0
 10
1431.3199999999997
 20
840.29993823867699
 42
-1
  0
VERTEX
  8
0
 10
1486.3199999999997
 20
840.29993823867699
 42
0
  0
VERTEX
  8
0
 10
1486.3199999999997
 20
610.29993823867699
 42
-0.32588791847229004
  0
VERTEX
  8
0
 10
1467.2262499999997
 20
584.11634448867699
 42
-0.50842314958572388
  0
VERTEX
  8
0
 10
1431.3199999999997
 20
610.29993823867699
 42
0
  0
SEQEND
  0
POLYLINE
  8
0
 10
0
 20
0
 39
0
 70
1
 66
1
  0
VERTEX
  8
0
 10
1458.8199999999997
 20
595.29993823867699
 42
1
  0
VERTEX
  8
0
 10
1458.8199999999997
 20
625.29993823867699
 42
1
  0
SEQEND
  0
POLYLINE
  8
0
 10
0
 20
0
 39
0
 70
1
 66
1
  0
VERTEX
  8
0
 10
1458.8199999999997
 20
825.29993823867699
 42
1
  0
VERTEX
  8
0
 10
1458.8199999999997
 20
855.29993823867699
 42
1
  0
SEQEND
  0
POLYLINE
  8
0
 10
0
 20
0
 39
0
 70
1
 66
1
  0
VERTEX
  8
0
 10
1472
 20
267.71993823867888
 42
-1
  0
VERTEX
  8
0
 10
1527
 20
267.71993823867888
 42
0
  0
VERTEX
  8
0
 10
1527
 20
37.719938238678878
 42
-0.32588791847229004
  0
VERTEX
  8
0
 10
1507.90625
 20
11.536344488678878
 42
-0.50842314958572388
  0
VERTEX
  8
0
 10
1472
 20
37.719938238678878
 42
0
  0
SEQEND
  0
POLYLINE
  8
0
 10
0
 20
0
 39
0
 70
1
 66
1
  0
VERTEX
  8
0
 10
1499.5
 20
22.719938238678878
 42
1
  0
VERTEX
  8
0
 10
1499.5
 20
52.719938238678878
 42
1
  0
SEQEND
  0
POLYLINE
  8
0
 10
0
 20
0
 39
0
 70
1
 66
1
  0
VERTEX
  8
0
 10
1499.5
 20
252.71993823867888
 42
1
  0
VERTEX
  8
0
 10
1499.5
 20
282.71993823867888
 42
1
  0
SEQEND
  0
POLYLINE
  8
0
 10
0
 20
0
 39
0
 70
1
 66
1
  0
VERTEX
  8
0
 10
1487.8400000000001
 20
561.29993823867699
 42
-1
  0
VERTEX
  8
0
 10
1542.8400000000001
 20
561.29993823867699
 42
0
  0
VERTEX
  8
0
 10
1542.8400000000001
 20
331.29993823867699
 42
-0.32588791847229004
  0
VERTEX
  8
0
 10
1523.7462500000001
 20
305.11634448867699
 42
-0.50842314958572388
  0
VERTEX
  8
0
 10
1487.8400000000001
 20
331.29993823867699
 42
0
  0
SEQEND
  0
POLYLINE
  8
0
 10
0
 20
0
 39
0
 70
1
 66
1
  0
VERTEX
  8
0
 10
1515.3400000000001
 20
316.29993823867699
 42
1
  0
VERTEX
  8
0
 10
1515.3400000000001
 20
346.29993823867699
 42
1
  0
SEQEND
  0
POLYLINE
  8
0
 10
0
 20
0
 39
0
 70
1
 66
1
  0
VERTEX
  8
0
 10
1515.3400000000001
 20
546.29993823867699
 42
1
  0
VERTEX
  8
0
 10
1515.3400000000001
 20
576.29993823867699
 42
1
  0
SEQEND
  0
POLYLINE
  8
0
 10
0
 20
0
 39
0
 70
1
 66
1
  0
VERTEX
  8
0
 10
1496.6599999999999
 20
856.31993823867742
 42
-1
  0
VERTEX
  8
0
 10
1551.6599999999999
 20
856.31993823867742
 42
0
  0
VERTEX
  8
0
 10
1551.6599999999999
 20
626.31993823867742
 42
-0.32588791847229004
  0
VERTEX
  8
0
 10
1532.5662499999999
 20
600.13634448867742
 42
-0.50842314958572388
  0
VERTEX
  8
0
 10
1496.6599999999999
 20
626.31993823867742
 42
0
  0
SEQEND
  0
POLYLINE
  8
0
 10
0
 20
0
 39
0
 70
1
 66
1
  0
VERTEX
  8
0
 10
1524.1599999999999
 20
611.31993823867742
 42
1
  0
VERTEX
  8
0
 10
1524.1599999999999
 20
641.31993823867742
 42
1
  0
SEQEND
  0
POLYLINE
  8
0
 10
0
 20
0
 39
0
 70
1
 66
1
  0
VERTEX
  8
0
 10
1524.1599999999999
 20
841.31993823867742
 42
1
  0
VERTEX
  8
0
 10
1524.1599999999999
 20
871.31993823867742
 42
1
  0
SEQEND
  0
POLYLINE
  8
0
 10
0
 20
0
 39
0
 70
1
 66
1
  0
VERTEX
  8
0
 10
1537.3400000000001
 20
267.71993823867888
 42
-1
  0
VERTEX
  8
0
 10
1592.3400000000001
 20
267.71993823867888
 42
0
  0
VERTEX
  8
0
 10
1592.3400000000001
 20
37.719938238678878
 42
-0.32588791847229004
  0
VERTEX
  8
0
 10
1573.2462500000001
 20
11.536344488678878
 42
-0.50842314958572388
  0
VERTEX
  8
0
 10
1537.3400000000001
 20
37.719938238678878
 42
0
  0
SEQEND
  0
POLYLINE
  8
0
 10
0
 20
0
 39
0
 70
1
 66
1
  0
VERTEX
  8
0
 10
1564.8400000000001
 20
22.719938238678878
 42
1
  0
VERTEX
  8
0
 10
1564.8400000000001
 20
52.719938238678878
 42
1
  0
SEQEND
  0
POLYLINE
  8
0
 10
0
 20
0
 39
0
 70
1
 66
1
  0
VERTEX
  8
0
 10
1564.8400000000001
 20
252.71993823867888
 42
1
  0
VERTEX
  8
0
 10
1564.8400000000001
 20
282.71993823867888
 42
1
  0
SEQEND
  0
POLYLINE
  8
0
 10
0
 20
0
 39
0
 70
1
 66
1
  0
VERTEX
  8
0
 10
1553.1800000000003
 20
561.29993823867699
 42
-1
  0
VERTEX
  8
0
 10
1608.1800000000003
 20
561.29993823867699
 42
0
  0
VERTEX
  8
0
 10
1608.1800000000003
 20
331.29993823867699
 42
-0.32588791847229004
  0
VERTEX
  8
0
 10
1589.0862500000003
 20
305.11634448867699
 42
-0.50842314958572388
  0
VERTEX
  8
0
 10
1553.1800000000003
 20
331.29993823867699
 42
0
  0
SEQEND
  0
POLYLINE
  8
0
 10
0
 20
0
 39
0
 70
1
 66
1
  0
VERTEX
  8
0
 10
1580.6800000000003
 20
316.29993823867699
 42
1
  0
VERTEX
  8
0
 10
1580.6800000000003
 20
346.29993823867699
 42
1
  0
SEQEND
  0
POLYLINE
  8
0
 10
0
 20
0
 39
0
 70
1
 66
1
  0
VERTEX
  8
0
 10
1580.6800000000003
 20
546.29993823867699
 42
1
  0
VERTEX
  8
0
 10
1580.6800000000003
 20
576.29993823867699
 42
1
  0
SEQEND
  0
POLYLINE
  8
0
 10
0
 20
0
 39
0
 70
1
 66
1
  0
VERTEX
  8
0
 10
1562
 20
856.31993823867742
 42
-1
  0
VERTEX
  8
0
 10
1617
 20
856.31993823867742
 42
0
  0
VERTEX
  8
0
 10
1617
 20
626.31993823867742
 42
-0.32588791847229004
  0
VERTEX
  8
0
 10
1597.90625
 20
600.13634448867742
 42
-0.50842314958572388
  0
VERTEX
  8
0
 10
1562
 20
626.31993823867742
 42
0
  0
SEQEND
  0
POLYLINE
  8
0
 10
0
 20
0
 39
0
 70
1
 66
1
  0
VERTEX
  8
0
 10
1589.5
 20
611.31993823867742
 42
1
  0
VERTEX
  8
0
 10
1589.5
 20
641.31993823867742
 42
1
  0
SEQEND
  0
POLYLINE
  8
0
 10
0
 20
0
 39
0
 70
1
 66
1
  0
VERTEX
  8
0
 10
1589.5
 20
841.31993823867742
 42
1
  0
VERTEX
  8
0
 10
1589.5
 20
871.31993823867742
 42
1
  0
SEQEND
  0
POLYLINE
  8
0
 10
0
 20
0
 39
0
 70
1
 66
1
  0
VERTEX
  8
0
 10
1602.6800000000003
 20
267.71993823867888
 42
-1
  0
VERTEX
  8
0
 10
1657.6800000000003
 20
267.71993823867888
 42
0
  0
VERTEX
  8
0
 10
1657.6800000000003
 20
37.719938238678878
 42
-0.32588791847229004
  0
VERTEX
  8
0
 10
1638.5862500000003
 20
11.536344488678878
 42
-0.50842314958572388
  0
VERTEX
  8
0
 10
1602.6800000000003
 20
37.719938238678878
 42
0
  0
SEQEND
  0
POLYLINE
  8
0
 10
0
 20
0
 39
0
 70
1
 66
1
  0
VERTEX
  8
0
 10
1630.1800000000003
 20
22.719938238678878
 42
1
  0
VERTEX
  8
0
 10
1630.1800000000003
 20
52.719938238678878
 42
1
  0
SEQEND
  0
POLYLINE
  8
0
 10
0
 20
0
 39
0
 70
1
 66
1
  0
VERTEX
  8
0
 10
1630.1800000000003
 20
252.71993823867888
 42
1
  0
VERTEX
  8
0
 10
1630.1800000000003
 20
282.71993823867888
 42
1
  0
SEQEND
  0
POLYLINE
  8
0
 10
0
 20
0
 39
0
 70
1
 66
1
  0
VERTEX
  8
0
 10
1618.5200000000004
 20
561.29993823867699
 42
-1
  0
VERTEX
  8
0
 10
1673.5200000000004
 20
561.29993823867699
 42
0
  0
VERTEX
  8
0
 10
1673.5200000000004
 20
331.29993823867699
 42
-0.32588791847229004
  0
VERTEX
  8
0
 10
1654.4262500000004
 20
305.11634448867699
 42
-0.50842314958572388
  0
VERTEX
  8
0
 10
1618.5200000000004
 20
331.29993823867699
 42
0
  0
SEQEND
  0
POLYLINE
  8
0
 10
0
 20
0
 39
0
 70
1
 66
1
  0
VERTEX
  8
0
 10
1646.0200000000004
 20
316.29993823867699
 42
1
  0
VERTEX
  8
0
 10
1646.0200000000004
 20
346.29993823867699
 42
1
  0
SEQEND
  0
POLYLINE
  8
0
 10
0
 20
0
 39
0
 70
1
 66
1
  0
VERTEX
  8
0
 10
1646.0200000000004
 20
546.29993823867699
 42
1
  0
VERTEX
  8
0
 10
1646.0200000000004
 20
576.29993823867699
 42
1
  0
SEQEND
  0
POLYLINE
  8
0
 10
0
 20
0
 39
0
 70
1
 66
1
  0
VERTEX
  8
0
 10
1627.3400000000001
 20
856.31993823867742
 42
-1
  0
VERTEX
  8
0
 10
1682.3400000000001
 20
856.31993823867742
 42
0
  0
VERTEX
  8
0
 10
1682.3400000000001
 20
626.31993823867742
 42
-0.32588791847229004
  0
VERTEX
  8
0
 10
1663.2462500000001
 20
600.13634448867742
 42
-0.50842314958572388
  0
VERTEX
  8
0
 10
1627.3400000000001
 20
626.31993823867742
 42
0
  0
SEQEND
  0
POLYLINE
  8
0
 10
0
 20
0
 39
0
 70
1
 66
1
  0
VERTEX
  8
0
 10
1654.8400000000001
 20
611.31993823867742
 42
1
  0
VERTEX
  8
0
 10
1654.8400000000001
 20
641.31993823867742
 42
1
  0
SEQEND
  0
POLYLINE
  8
0
 10
0
 20
0
 39
0
 70
1
 66
1
  0
VERTEX
  8
0
 10
1654.8400000000001
 20
841.31993823867742
 42
1
  0
VERTEX
  8
0
 10
1654.8400000000001
 20
871.31993823867742
 42
1
  0
SEQEND
  0
POLYLINE
  8
0
 10
0
 20
0
 39
0
 70
1
 66
1
  0
VERTEX
  8
0
 10
1668.02
 20
10.219999999999999
 42
-0
  0
VERTEX
  8
0
 10
1668.02
 20
157.13999816894531
 42
-0
  0
VERTEX
  8
0
 10
1748.02
 20
157.13999816894531
 42
-0
  0
VERTEX
  8
0
 10
1748.02
 20
10.220000000000004
 42
-0
  0
SEQEND
  0
POLYLINE
  8
0
 10
0
 20
0
 39
0
 70
1
 66
1
  0
VERTEX
  8
0
 10
1708.02
 20
58.679999084472655
 42
1
  0
VERTEX
  8
0
 10
1708.02
 20
108.67999908447266
 42
1
  0
SEQEND
  0
POLYLINE
  8
0
 10
0
 20
0
 39
0
 70
1
 66
1
  0
VERTEX
  8
0
 10
1680.0800000000002
 20
167.18000000000001
 42
-0
  0
VERTEX
  8
0
 10
1680.0800000000002
 20
314.09999816894532
 42
-0
  0
VERTEX
  8
0
 10
1760.0800000000002
 20
314.09999816894532
 42
-0
  0
VERTEX
  8
0
 10
1760.0800000000002
 20
167.18000000000001
 42
-0
  0
SEQEND
  0
POLYLINE
  8
0
 10
0
 20
0
 39
0
 70
1
 66
1
  0
VERTEX
  8
0
 10
1720.0800000000002
 20
215.63999908447266
 42
1
  0
VERTEX
  8
0
 10
1720.0800000000002
 20
265.63999908447266
 42
1
  0
SEQEND
  0
POLYLINE
  8
0
 10
0
 20
0
 39
0
 70
1
 66
1
  0
VERTEX
  8
0
 10
1683.8600000000001
 20
324.13999999999999
 42
-0
  0
VERTEX
  8
0
 10
1683.8600000000001
 20
471.0599981689453
 42
-0
  0
VERTEX
  8
0
 10
1763.8600000000001
 20
471.0599981689453
 42
-0
  0
VERTEX
  8
0
 10
1763.8600000000001
 20
324.13999999999999
 42
-0
  0
SEQEND
  0
POLYLINE
  8
0
 10
0
 20
0
 39
0
 70
1
 66
1
  0
VERTEX
  8
0
 10
1723.8600000000001
 20
372.59999908447264
 42
1
  0
VERTEX
  8
0
 10
1723.8600000000001
 20
422.59999908447264
 42
1
  0
SEQEND
  0
POLYLINE
  8
0
 10
0
 20
0
 39
0
 70
1
 66
1
  0
VERTEX
  8
0
 10
1692.6800000000001
 20
481.10000000000002
 42
-0
  0
VERTEX
  8
0
 10
1692.6800000000001
 20
628.01999816894534
 42
-0
  0
VERTEX
  8
0
 10
1772.6800000000001
 20
628.01999816894534
 42
-0
  0
VERTEX
  8
0
 10
1772.6800000000001
 20
481.10000000000002
 42
-0
  0
SEQEND
  0
POLYLINE
  8
0
 10
0
 20
0
 39
0
 70
1
 66
1
  0
VERTEX
  8
0
 10
1732.6800000000001
 20
529.55999908447268
 42
1
  0
VERTEX
  8
0
 10
1732.6800000000001
 20
579.55999908447268
 42
1
  0
SEQEND
  0
POLYLINE
  8
0
 10
0
 20
0
 39
0
 70
1
 66
1
  0
VERTEX
  8
0
 10
1692.6800000000001
 20
638.06000000000006
 42
-0
  0
VERTEX
  8
0
 10
1692.6800000000001
 20
784.97999816894537
 42
-0
  0
VERTEX
  8
0
 10
1772.6800000000001
 20
784.97999816894537
 42
-0
  0
VERTEX
  8
0
 10
1772.6800000000001
 20
638.06000000000006
 42
-0
  0
SEQEND
  0
POLYLINE
  8
0
 10
0
 20
0
 39
0
 70
1
 66
1
  0
VERTEX
  8
0
 10
1732.6800000000001
 20
686.51999908447272
 42
1
  0
VERTEX
  8
0
 10
1732.6800000000001
 20
736.51999908447272
 42
1
  0
SEQEND
  0
POLYLINE
  8
0
 10
0
 20
0
 39
0
 70
1
 66
1
  0
VERTEX
  8
0
 10
624.84000000000003
 20
889.74000000000001
 42
-0
  0
VERTEX
  8
0
 10
756.84000000000003
 20
889.74000000000001
 42
0
  0
VERTEX
  8
0
 10
766.84000000000003
 20
879.74000000000001
 42
-0
  0
VERTEX
  8
0
 10
766.84000000000003
 20
859.74000000000001
 42
0
  0
VERTEX
  8
0
 10
756.84000000000003
 20
849.74000000000001
 42
-0
  0
VERTEX
  8
0
 10
624.84000000000003
 20
849.74000000000001
 42
-0
  0
VERTEX
  8
0
 10
614.84000000000003
 20
859.74000000000001
 42
-0
  0
VERTEX
  8
0
 10
614.84000000000003
 20
879.74000000000001
 42
0
  0
SEQEND
  0
POLYLINE
  8
0
 10
0
 20
0
 39
0
 70
1
 66
1
  0
VERTEX
  8
0
 10
753.34000000000003
 20
869.74000000000001
 42
1
  0
VERTEX
  8
0
 10
740.34000000000003
 20
869.74000000000001
 42
1
  0
SEQEND
  0
POLYLINE
  8
0
 10
0
 20
0
 39
0
 70
1
 66
1
  0
VERTEX
  8
0
 10
641.34000000000003
 20
869.74000000000001
 42
1
  0
VERTEX
  8
0
 10
628.34000000000003
 20
869.74000000000001
 42
1
  0
SEQEND
  0
POLYLINE
  8
0
 10
0
 20
0
 39
0
 70
1
 66
1
  0
VERTEX
  8
0
 10
787.20000000000005
 20
886.86000000000001
 42
-0
  0
VERTEX
  8
0
 10
919.20000000000005
 20
886.86000000000001
 42
0
  0
VERTEX
  8
0
 10
929.20000000000005
 20
876.86000000000001
 42
-0
  0
VERTEX
  8
0
 10
929.20000000000005
 20
856.86000000000001
 42
0
  0
VERTEX
  8
0
 10
919.20000000000005
 20
846.86000000000001
 42
-0
  0
VERTEX
  8
0
 10
787.20000000000005
 20
846.86000000000001
 42
-0
  0
VERTEX
  8
0
 10
777.20000000000005
 20
856.86000000000001
 42
-0
  0
VERTEX
  8
0
 10
777.20000000000005
 20
876.86000000000001
 42
0
  0
SEQEND
  0
POLYLINE
  8
0
 10
0
 20
0
 39
0
 70
1
 66
1
  0
VERTEX
  8
0
 10
915.70000000000005
 20
866.86000000000001
 42
1
  0
VERTEX
  8
0
 10
902.70000000000005
 20
866.86000000000001
 42
1
  0
SEQEND
  0
POLYLINE
  8
0
 10
0
 20
0
 39
0
 70
1
 66
1
  0
VERTEX
  8
0
 10
803.70000000000005
 20
866.86000000000001
 42
1
  0
VERTEX
  8
0
 10
790.70000000000005
 20
866.86000000000001
 42
1
  0
SEQEND
  0
POLYLINE
  8
0
 10
0
 20
0
 39
0
 70
1
 66
1
  0
VERTEX
  8
0
 10
922.32325654138572
 20
634.95297821049883
 42
-0.80577784776687622
  0
VERTEX
  8
0
 10
893.67685955151308
 20
641.17272102753486
 42
0
  0
VERTEX
  8
0
 10
893.66000225936182
 20
675.90382692559501
 42
-0.10755598545074463
  0
VERTEX
  8
0
 10
895.46480270379175
 20
684.21623332880267
 42
0
  0
VERTEX
  8
0
 10
909.88289761317151
 20
715.81320273293204
 42
-0.80577784776687622
  0
VERTEX
  8
0
 10
938.52929446197902
 20
709.59345701884115
 42
-0
  0
VERTEX
  8
0
 10
938.54615294213261
 20
674.86235476641787
 42
-0.10755591839551926
  0
VERTEX
  8
0
 10
936.74135400606656
 20
666.5499519392896
 42
0
  0
SEQEND
  0
POLYLINE
  8
0
 10
0
 20
0
 39
0
 70
1
 66
1
  0
VERTEX
  8
0
 10
924.80236271407284
 20
715.44956528325247
 42
1
  0
VERTEX
  8
0
 10
922.25623056676068
 20
703.72279225964712
 42
1
  0
SEQEND
  0
POLYLINE
  8
0
 10
0
 20
0
 39
0
 70
1
 66
1
  0
VERTEX
  8
0
 10
918.33094350632109
 20
685.64401718158888
 42
1
  0
VERTEX
  8
0
 10
913.8752122485248
 20
665.12216439027952
 42
1
  0
SEQEND
  0
POLYLINE
  8
0
 10
0
 20
0
 39
0
 70
1
 66
1
  0
VERTEX
  8
0
 10
909.94992518808522
 20
647.04338931222128
 42
1
  0
VERTEX
  8
0
 10
907.40379304077305
 20
635.31661628861593
 42
1
  0
SEQEND
  0
POLYLINE
  8
0
 10
0
 20
0
 39
0
 70
1
 66
1
  0
VERTEX
  8
0
 10
1256.0432565413857
 20
710.55297821049874
 42
-0.80577784776687622
  0
VERTEX
  8
0
 10
1227.396859551513
 20
716.77272102753477
 42
0
  0
VERTEX
  8
0
 10
1227.3800022593618
 20
751.50382692559492
 42
-0.10755598545074463
  0
VERTEX
  8
0
 10
1229.1848027037918
 20
759.81623332880258
 42
0
  0
VERTEX
  8
0
 10
1243.6028976131715
 20
791.41320273293195
 42
-0.80577784776687622
  0
VERTEX
  8
0
 10
1272.2492944619789
 20
785.19345701884106
 42
-0
  0
VERTEX
  8
0
 10
1272.2661529421327
 20
750.46235476641777
 42
-0.10755591839551926
  0
VERTEX
  8
0
 10
1270.4613540060666
 20
742.14995193928951
 42
0
  0
SEQEND
  0
POLYLINE
  8
0
 10
0
 20
0
 39
0
 70
1
 66
1
  0
VERTEX
  8
0
 10
1258.5223627140729
 20
791.04956528325238
 42
1
  0
VERTEX
  8
0
 10
1255.9762305667607
 20
779.32279225964703
 42
1
  0
SEQEND
  0
POLYLINE
  8
0
 10
0
 20
0
 39
0
 70
1
 66
1
  0
VERTEX
  8
0
 10
1252.0509435063211
 20
761.24401718158879
 42
1
  0
VERTEX
  8
0
 10
1247.5952122485248
 20
740.72216439027943
 42
1
  0
SEQEND
  0
POLYLINE
  8
0
 10
0
 20
0
 39
0
 70
1
 66
1
  0
VERTEX
  8
0
 10
1243.6699251880852
 20
722.64338931222119
 42
1
  0
VERTEX
  8
0
 10
1241.1237930407731
 20
710.91661628861584
 42
1
  0
SEQEND
  0
POLYLINE
  8
0
 10
0
 20
0
 39
0
 70
1
 66
1
  0
VERTEX
  8
0
 10
1698.3929782104988
 20
860.92289865953819
 42
-0.80577784776687622
  0
VERTEX
  8
0
 10
1704.6127210275349
 20
889.56929564941083
 42
0
  0
VERTEX
  8
0
 10
1739.3438269255951
 20
889.58615294156198
 42
-0.10755598545074463
  0
VERTEX
  8
0
 10
1747.6562333288027
 20
887.78135249713227
 42
0
  0
VERTEX
  8
0
 10
1779.2532027329321
 20
873.3632575877524
 42
-0.80577784776687622
  0
VERTEX
  8
0
 10
1773.0334570188413
 20
844.71686073894489
 42
-0
  0
VERTEX
  8
0
 10
1738.3023547664179
 20
844.7000022587913
 42
-0.10755591839551926
  0
VERTEX
  8
0
 10
1729.9899519392898
 20
846.50480119485735
 42
0
  0
SEQEND
  0
POLYLINE
  8
0
 10
0
 20
0
 39
0
 70
1
 66
1
  0
VERTEX
  8
0
 10
1778.8895652832525
 20
858.44379248685107
 42
1
  0
VERTEX
  8
0
 10
1767.1627922596472
 20
860.98992463416323
 42
1
  0
SEQEND
  0
POLYLINE
  8
0
 10
0
 20
0
 39
0
 70
1
 66
1
  0
VERTEX
  8
0
 10
1749.0840171815889
 20
864.91521169460282
 42
1
  0
VERTEX
  8
0
 10
1728.5621643902796
 20
869.3709429523991
 42
1
  0
SEQEND
  0
POLYLINE
  8
0
 10
0
 20
0
 39
0
 70
1
 66
1
  0
VERTEX
  8
0
 10
1710.4833893122213
 20
873.29623001283869
 42
1
  0
VERTEX
  8
0
 10
1698.756616288616
 20
875.84236216015086
 42
1
  0
SEQEND
  0
ENDSEC
  0
EOF
