  0
SECTION
  2
ENTITIES
  0
POLYLINE
  8
0
 10
0
 20
0
 39
0
 70
1
 66
1
  0
VERTEX
  8
0
 10
0
 20
0
 42
-0
  0
VERTEX
  8
0
 10
1500
 20
0
 42
-0
  0
VERTEX
  8
0
 10
1500
 20
900
 42
-0
  0
VERTEX
  8
0
 10
0
 20
900
 42
-0
  0
SEQEND
  0
POLYLINE
  8
0
 10
0
 20
0
 39
0
 70
1
 66
1
  0
VERTEX
  8
0
 10
336.61038208007812
 20
660.189208984375
 42
1
  0
VERTEX
  8
0
 10
333.77423095703125
 20
10.195401191711426
 42
1
  0
SEQEND
  0
POLYLINE
  8
0
 10
0
 20
0
 39
0
 70
1
 66
1
  0
VERTEX
  8
0
 10
336.37039184570312
 20
605.189697265625
 42
-1
  0
VERTEX
  8
0
 10
334.01422119140625
 20
65.194877624511719
 42
-1
  0
SEQEND
  0
POLYLINE
  8
0
 10
0
 20
0
 39
0
 70
1
 66
1
  0
VERTEX
  8
0
 10
955.76422119140625
 20
889.689208984375
 42
1
  0
VERTEX
  8
0
 10
952.9281005859375
 20
239.69540405273437
 42
1
  0
SEQEND
  0
POLYLINE
  8
0
 10
0
 20
0
 39
0
 70
1
 66
1
  0
VERTEX
  8
0
 10
955.52423095703125
 20
834.689697265625
 42
-1
  0
VERTEX
  8
0
 10
953.16802978515625
 20
294.69488525390625
 42
-1
  0
SEQEND
  0
POLYLINE
  8
0
 10
0
 20
0
 39
0
 70
1
 66
1
  0
VERTEX
  8
0
 10
273.86175537109375
 20
532.34423828125
 42
1
  0
VERTEX
  8
0
 10
272.13824462890625
 20
137.34803771972656
 42
1
  0
SEQEND
  0
POLYLINE
  8
0
 10
0
 20
0
 39
0
 70
1
 66
1
  0
VERTEX
  8
0
 10
273.818115234375
 20
522.3443603515625
 42
-1
  0
VERTEX
  8
0
 10
272.181884765625
 20
147.34793090820312
 42
-1
  0
SEQEND
  0
POLYLINE
  8
0
 10
0
 20
0
 39
0
 70
1
 66
1
  0
VERTEX
  8
0
 10
254.11029052734375
 20
491.1138916015625
 42
1
  0
VERTEX
  8
0
 10
252.73585510253906
 20
176.11688232421875
 42
1
  0
SEQEND
  0
POLYLINE
  8
0
 10
0
 20
0
 39
0
 70
1
 66
1
  0
VERTEX
  8
0
 10
253.92485046386719
 20
448.61428833007812
 42
-1
  0
VERTEX
  8
0
 10
252.92129516601562
 20
218.61648559570312
 42
-1
  0
SEQEND
  0
POLYLINE
  8
0
 10
0
 20
0
 39
0
 70
1
 66
1
  0
VERTEX
  8
0
 10
1009.65234375
 20
562.54351806640625
 42
1
  0
VERTEX
  8
0
 10
694.65533447265625
 20
563.91796875
 42
1
  0
SEQEND
  0
POLYLINE
  8
0
 10
0
 20
0
 39
0
 70
1
 66
1
  0
VERTEX
  8
0
 10
967.15277099609375
 20
562.72900390625
 42
-1
  0
VERTEX
  8
0
 10
737.15496826171875
 20
563.7325439453125
 42
-1
  0
SEQEND
  0
POLYLINE
  8
0
 10
0
 20
0
 39
0
 70
1
 66
1
  0
VERTEX
  8
0
 10
1146.84619140625
 20
10.192307472229004
 42
0
  0
VERTEX
  8
0
 10
1431.84619140625
 20
10.192307472229004
 42
0
  0
VERTEX
  8
0
 10
1431.84619140625
 20
290.19232177734375
 42
0
  0
VERTEX
  8
0
 10
1146.84619140625
 20
290.19232177734375
 42
0
  0
SEQEND
  0
POLYLINE
  8
0
 10
0
 20
0
 39
0
 70
1
 66
1
  0
VERTEX
  8
0
 10
1383.34619140625
 20
61.192306518554688
 42
-0
  0
VERTEX
  8
0
 10
1195.34619140625
 20
61.192306518554688
 42
-0
  0
VERTEX
  8
0
 10
1195.34619140625
 20
239.19230651855469
 42
0
  0
VERTEX
  8
0
 10
1383.34619140625
 20
239.19230651855469
 42
0
  0
SEQEND
  0
POLYLINE
  8
0
 10
0
 20
0
 39
0
 70
1
 66
1
  0
VERTEX
  8
0
 10
10.192307472229004
 20
670.076904296875
 42
-0
  0
VERTEX
  8
0
 10
319.960205078125
 20
670.076904296875
 42
0
  0
VERTEX
  8
0
 10
319.960205078125
 20
693.04962158203125
 42
0
  0
VERTEX
  8
0
 10
357.960205078125
 20
693.04962158203125
 42
0
  0
VERTEX
  8
0
 10
357.960205078125
 20
670.076904296875
 42
-0
  0
VERTEX
  8
0
 10
440.19232177734375
 20
670.076904296875
 42
0
  0
VERTEX
  8
0
 10
440.19232177734375
 20
719.3563232421875
 42
0
  0
VERTEX
  8
0
 10
420.87460327148437
 20
735.076904296875
 42
0
  0
VERTEX
  8
0
 10
10.192307472229004
 20
735.076904296875
 42
0
  0
SEQEND
  0
POLYLINE
  8
0
 10
0
 20
0
 39
0
 70
1
 66
1
  0
VERTEX
  8
0
 10
146.6240234375
 20
685.576904296875
 42
-1
  0
VERTEX
  8
0
 10
146.6240234375
 20
719.576904296875
 42
-1
  0
SEQEND
  0
POLYLINE
  8
0
 10
0
 20
0
 39
0
 70
1
 66
1
  0
VERTEX
  8
0
 10
10.192307472229004
 20
745.19232177734375
 42
-0
  0
VERTEX
  8
0
 10
319.960205078125
 20
745.19232177734375
 42
0
  0
VERTEX
  8
0
 10
319.960205078125
 20
768.16497802734375
 42
0
  0
VERTEX
  8
0
 10
357.960205078125
 20
768.16497802734375
 42
0
  0
VERTEX
  8
0
 10
357.960205078125
 20
745.19232177734375
 42
-0
  0
VERTEX
  8
0
 10
440.19232177734375
 20
745.19232177734375
 42
0
  0
VERTEX
  8
0
 10
440.19232177734375
 20
794.4716796875
 42
0
  0
VERTEX
  8
0
 10
420.87460327148437
 20
810.19232177734375
 42
0
  0
VERTEX
  8
0
 10
10.192307472229004
 20
810.19232177734375
 42
0
  0
SEQEND
  0
POLYLINE
  8
0
 10
0
 20
0
 39
0
 70
1
 66
1
  0
VERTEX
  8
0
 10
146.6240234375
 20
760.69232177734375
 42
-1
  0
VERTEX
  8
0
 10
146.6240234375
 20
794.69232177734375
 42
-1
  0
SEQEND
  0
POLYLINE
  8
0
 10
0
 20
0
 39
0
 70
1
 66
1
  0
VERTEX
  8
0
 10
10.192307472229004
 20
820.30767822265625
 42
-0
  0
VERTEX
  8
0
 10
319.960205078125
 20
820.30767822265625
 42
0
  0
VERTEX
  8
0
 10
319.960205078125
 20
843.28033447265625
 42
0
  0
VERTEX
  8
0
 10
357.960205078125
 20
843.28033447265625
 42
0
  0
VERTEX
  8
0
 10
357.960205078125
 20
820.30767822265625
 42
-0
  0
VERTEX
  8
0
 10
440.19232177734375
 20
820.30767822265625
 42
0
  0
VERTEX
  8
0
 10
440.19232177734375
 20
869.5870361328125
 42
0
  0
VERTEX
  8
0
 10
420.87460327148437
 20
885.30767822265625
 42
0
  0
VERTEX
  8
0
 10
10.192307472229004
 20
885.30767822265625
 42
0
  0
SEQEND
  0
POLYLINE
  8
0
 10
0
 20
0
 39
0
 70
1
 66
1
  0
VERTEX
  8
0
 10
146.6240234375
 20
835.80767822265625
 42
-1
  0
VERTEX
  8
0
 10
146.6240234375
 20
869.80767822265625
 42
-1
  0
SEQEND
  0
POLYLINE
  8
0
 10
0
 20
0
 39
0
 70
1
 66
1
  0
VERTEX
  8
0
 10
546.9615478515625
 20
10.192307472229004
 42
-0
  0
VERTEX
  8
0
 10
856.72943115234375
 20
10.192307472229004
 42
0
  0
VERTEX
  8
0
 10
856.72943115234375
 20
33.16497802734375
 42
0
  0
VERTEX
  8
0
 10
894.72943115234375
 20
33.16497802734375
 42
0
  0
VERTEX
  8
0
 10
894.72943115234375
 20
10.192307472229004
 42
-0
  0
VERTEX
  8
0
 10
976.9615478515625
 20
10.192307472229004
 42
0
  0
VERTEX
  8
0
 10
976.9615478515625
 20
59.4716796875
 42
0
  0
VERTEX
  8
0
 10
957.643798828125
 20
75.192306518554688
 42
0
  0
VERTEX
  8
0
 10
546.9615478515625
 20
75.192306518554688
 42
0
  0
SEQEND
  0
POLYLINE
  8
0
 10
0
 20
0
 39
0
 70
1
 66
1
  0
VERTEX
  8
0
 10
683.39324951171875
 20
25.69230842590332
 42
-1
  0
VERTEX
  8
0
 10
683.39324951171875
 20
59.692306518554687
 42
-1
  0
SEQEND
  0
POLYLINE
  8
0
 10
0
 20
0
 39
0
 70
1
 66
1
  0
VERTEX
  8
0
 10
522.423095703125
 20
467.92306518554688
 42
-0
  0
VERTEX
  8
0
 10
472.42306518554687
 20
467.92306518554688
 42
-0
  0
VERTEX
  8
0
 10
472.42306518554687
 20
393.33535766601562
 42
-0
  0
VERTEX
  8
0
 10
480.80093383789062
 20
393.33535766601562
 42
-0
  0
VERTEX
  8
0
 10
480.80093383789062
 20
242.51078796386719
 42
0
  0
VERTEX
  8
0
 10
472.42306518554687
 20
242.51078796386719
 42
-0
  0
VERTEX
  8
0
 10
472.42306518554687
 20
167.92308044433594
 42
-0
  0
VERTEX
  8
0
 10
522.423095703125
 20
167.92308044433594
 42
0
  0
SEQEND
  0
POLYLINE
  8
0
 10
0
 20
0
 39
0
 70
1
 66
1
  0
VERTEX
  8
0
 10
497.42306518554687
 20
448.94058227539062
 42
-1
  0
VERTEX
  8
0
 10
497.42306518554687
 20
420.94058227539062
 42
-1
  0
SEQEND
  0
POLYLINE
  8
0
 10
0
 20
0
 39
0
 70
1
 66
1
  0
VERTEX
  8
0
 10
497.42306518554687
 20
214.90559387207031
 42
-1
  0
VERTEX
  8
0
 10
497.42306518554687
 20
186.90559387207031
 42
-1
  0
SEQEND
  0
POLYLINE
  8
0
 10
0
 20
0
 39
0
 70
1
 66
1
  0
VERTEX
  8
0
 10
553.423095703125
 20
589.76922607421875
 42
-0
  0
VERTEX
  8
0
 10
603.423095703125
 20
589.76922607421875
 42
-0
  0
VERTEX
  8
0
 10
603.423095703125
 20
664.35693359375
 42
-0
  0
VERTEX
  8
0
 10
595.04522705078125
 20
664.35693359375
 42
-0
  0
VERTEX
  8
0
 10
595.04522705078125
 20
815.1815185546875
 42
0
  0
VERTEX
  8
0
 10
603.423095703125
 20
815.1815185546875
 42
-0
  0
VERTEX
  8
0
 10
603.423095703125
 20
889.76922607421875
 42
-0
  0
VERTEX
  8
0
 10
553.423095703125
 20
889.76922607421875
 42
0
  0
SEQEND
  0
POLYLINE
  8
0
 10
0
 20
0
 39
0
 70
1
 66
1
  0
VERTEX
  8
0
 10
578.423095703125
 20
608.751708984375
 42
-1
  0
VERTEX
  8
0
 10
578.423095703125
 20
636.751708984375
 42
-1
  0
SEQEND
  0
POLYLINE
  8
0
 10
0
 20
0
 39
0
 70
1
 66
1
  0
VERTEX
  8
0
 10
578.423095703125
 20
842.7867431640625
 42
-1
  0
VERTEX
  8
0
 10
578.423095703125
 20
870.7867431640625
 42
-1
  0
SEQEND
  0
POLYLINE
  8
0
 10
0
 20
0
 39
0
 70
1
 66
1
  0
VERTEX
  8
0
 10
904.5384521484375
 20
85.307693481445313
 42
-0
  0
VERTEX
  8
0
 10
904.5384521484375
 20
135.30769348144531
 42
-0
  0
VERTEX
  8
0
 10
829.95074462890625
 20
135.30769348144531
 42
-0
  0
VERTEX
  8
0
 10
829.95074462890625
 20
126.92984771728516
 42
-0
  0
VERTEX
  8
0
 10
679.12615966796875
 20
126.92984771728516
 42
0
  0
VERTEX
  8
0
 10
679.12615966796875
 20
135.30769348144531
 42
-0
  0
VERTEX
  8
0
 10
604.5384521484375
 20
135.30769348144531
 42
-0
  0
VERTEX
  8
0
 10
604.5384521484375
 20
85.307693481445313
 42
0
  0
SEQEND
  0
POLYLINE
  8
0
 10
0
 20
0
 39
0
 70
1
 66
1
  0
VERTEX
  8
0
 10
885.55596923828125
 20
110.30769348144531
 42
-1
  0
VERTEX
  8
0
 10
857.55596923828125
 20
110.30769348144531
 42
-1
  0
SEQEND
  0
POLYLINE
  8
0
 10
0
 20
0
 39
0
 70
1
 66
1
  0
VERTEX
  8
0
 10
651.52099609375
 20
110.30769348144531
 42
-1
  0
VERTEX
  8
0
 10
623.52099609375
 20
110.30769348144531
 42
-1
  0
SEQEND
  0
POLYLINE
  8
0
 10
0
 20
0
 39
0
 70
1
 66
1
  0
VERTEX
  8
0
 10
940.076904296875
 20
145.42308044433594
 42
-0
  0
VERTEX
  8
0
 10
940.076904296875
 20
195.42308044433594
 42
-0
  0
VERTEX
  8
0
 10
865.48919677734375
 20
195.42308044433594
 42
-0
  0
VERTEX
  8
0
 10
865.48919677734375
 20
187.04524230957031
 42
-0
  0
VERTEX
  8
0
 10
714.66461181640625
 20
187.04524230957031
 42
0
  0
VERTEX
  8
0
 10
714.66461181640625
 20
195.42308044433594
 42
-0
  0
VERTEX
  8
0
 10
640.076904296875
 20
195.42308044433594
 42
-0
  0
VERTEX
  8
0
 10
640.076904296875
 20
145.42308044433594
 42
0
  0
SEQEND
  0
POLYLINE
  8
0
 10
0
 20
0
 39
0
 70
1
 66
1
  0
VERTEX
  8
0
 10
921.09442138671875
 20
170.42308044433594
 42
-1
  0
VERTEX
  8
0
 10
893.09442138671875
 20
170.42308044433594
 42
-1
  0
SEQEND
  0
POLYLINE
  8
0
 10
0
 20
0
 39
0
 70
1
 66
1
  0
VERTEX
  8
0
 10
687.0594482421875
 20
170.42308044433594
 42
-1
  0
VERTEX
  8
0
 10
659.0594482421875
 20
170.42308044433594
 42
-1
  0
SEQEND
  0
POLYLINE
  8
0
 10
0
 20
0
 39
0
 70
1
 66
1
  0
VERTEX
  8
0
 10
1061.6153564453125
 20
690.15386962890625
 42
-0
  0
VERTEX
  8
0
 10
1011.6153564453125
 20
690.15386962890625
 42
-0
  0
VERTEX
  8
0
 10
1011.6153564453125
 20
615.566162109375
 42
-0
  0
VERTEX
  8
0
 10
1019.9932250976562
 20
615.566162109375
 42
-0
  0
VERTEX
  8
0
 10
1019.9932250976562
 20
464.74154663085937
 42
0
  0
VERTEX
  8
0
 10
1011.6153564453125
 20
464.74154663085937
 42
-0
  0
VERTEX
  8
0
 10
1011.6153564453125
 20
390.15383911132812
 42
-0
  0
VERTEX
  8
0
 10
1061.6153564453125
 20
390.15383911132812
 42
0
  0
SEQEND
  0
POLYLINE
  8
0
 10
0
 20
0
 39
0
 70
1
 66
1
  0
VERTEX
  8
0
 10
1036.6153564453125
 20
671.17132568359375
 42
-1
  0
VERTEX
  8
0
 10
1036.6153564453125
 20
643.17132568359375
 42
-1
  0
SEQEND
  0
POLYLINE
  8
0
 10
0
 20
0
 39
0
 70
1
 66
1
  0
VERTEX
  8
0
 10
1036.6153564453125
 20
437.1363525390625
 42
-1
  0
VERTEX
  8
0
 10
1036.6153564453125
 20
409.1363525390625
 42
-1
  0
SEQEND
  0
POLYLINE
  8
0
 10
0
 20
0
 39
0
 70
1
 66
1
  0
VERTEX
  8
0
 10
1071.84619140625
 20
366.26922607421875
 42
-0
  0
VERTEX
  8
0
 10
1121.84619140625
 20
366.26922607421875
 42
-0
  0
VERTEX
  8
0
 10
1121.84619140625
 20
440.85693359375
 42
-0
  0
VERTEX
  8
0
 10
1113.46826171875
 20
440.85693359375
 42
-0
  0
VERTEX
  8
0
 10
1113.46826171875
 20
591.6815185546875
 42
0
  0
VERTEX
  8
0
 10
1121.84619140625
 20
591.6815185546875
 42
-0
  0
VERTEX
  8
0
 10
1121.84619140625
 20
666.26922607421875
 42
-0
  0
VERTEX
  8
0
 10
1071.84619140625
 20
666.26922607421875
 42
0
  0
SEQEND
  0
POLYLINE
  8
0
 10
0
 20
0
 39
0
 70
1
 66
1
  0
VERTEX
  8
0
 10
1096.84619140625
 20
385.25173950195312
 42
-1
  0
VERTEX
  8
0
 10
1096.84619140625
 20
413.25173950195313
 42
-1
  0
SEQEND
  0
POLYLINE
  8
0
 10
0
 20
0
 39
0
 70
1
 66
1
  0
VERTEX
  8
0
 10
1096.84619140625
 20
619.2867431640625
 42
-1
  0
VERTEX
  8
0
 10
1096.84619140625
 20
647.2867431640625
 42
-1
  0
SEQEND
  0
POLYLINE
  8
0
 10
0
 20
0
 39
0
 70
1
 66
1
  0
VERTEX
  8
0
 10
180.38461303710937
 20
258.61538696289062
 42
-0
  0
VERTEX
  8
0
 10
269.38461303710937
 20
258.61538696289062
 42
-0
  0
VERTEX
  8
0
 10
269.38461303710937
 20
286.61538696289062
 42
-1
  0
VERTEX
  8
0
 10
269.38461303710937
 20
380.61538696289062
 42
-0
  0
VERTEX
  8
0
 10
269.38461303710937
 20
408.61538696289062
 42
-0
  0
VERTEX
  8
0
 10
180.38461303710937
 20
408.61538696289062
 42
0
  0
SEQEND
  0
POLYLINE
  8
0
 10
0
 20
0
 39
0
 70
1
 66
1
  0
VERTEX
  8
0
 10
209.94906616210937
 20
270.61538696289062
 42
-1
  0
VERTEX
  8
0
 10
209.94906616210937
 20
302.61538696289062
 42
-1
  0
SEQEND
  0
POLYLINE
  8
0
 10
0
 20
0
 39
0
 70
1
 66
1
  0
VERTEX
  8
0
 10
450.38461303710937
 20
650.1153564453125
 42
-0
  0
VERTEX
  8
0
 10
539.3846435546875
 20
650.1153564453125
 42
-0
  0
VERTEX
  8
0
 10
539.3846435546875
 20
678.1153564453125
 42
-1
  0
VERTEX
  8
0
 10
539.3846435546875
 20
772.1153564453125
 42
-0
  0
VERTEX
  8
0
 10
539.3846435546875
 20
800.1153564453125
 42
-0
  0
VERTEX
  8
0
 10
450.38461303710937
 20
800.1153564453125
 42
0
  0
SEQEND
  0
POLYLINE
  8
0
 10
0
 20
0
 39
0
 70
1
 66
1
  0
VERTEX
  8
0
 10
479.94906616210937
 20
662.1153564453125
 42
-1
  0
VERTEX
  8
0
 10
479.94906616210937
 20
694.1153564453125
 42
-1
  0
SEQEND
  0
POLYLINE
  8
0
 10
0
 20
0
 39
0
 70
1
 66
1
  0
VERTEX
  8
0
 10
779.1153564453125
 20
488.23077392578125
 42
-0
  0
VERTEX
  8
0
 10
868.1153564453125
 20
488.23077392578125
 42
-0
  0
VERTEX
  8
0
 10
868.1153564453125
 20
516.23077392578125
 42
-1
  0
VERTEX
  8
0
 10
868.1153564453125
 20
610.23077392578125
 42
-0
  0
VERTEX
  8
0
 10
868.1153564453125
 20
638.23077392578125
 42
-0
  0
VERTEX
  8
0
 10
779.1153564453125
 20
638.23077392578125
 42
0
  0
SEQEND
  0
POLYLINE
  8
0
 10
0
 20
0
 39
0
 70
1
 66
1
  0
VERTEX
  8
0
 10
808.6798095703125
 20
500.23077392578125
 42
-1
  0
VERTEX
  8
0
 10
808.6798095703125
 20
532.23077392578125
 42
-1
  0
SEQEND
  0
POLYLINE
  8
0
 10
0
 20
0
 39
0
 70
1
 66
1
  0
VERTEX
  8
0
 10
968.34613037109375
 20
79.769233703613281
 42
-0
  0
VERTEX
  8
0
 10
1057.34619140625
 20
79.769233703613281
 42
-0
  0
VERTEX
  8
0
 10
1057.34619140625
 20
107.76923370361328
 42
-1
  0
VERTEX
  8
0
 10
1057.34619140625
 20
201.76922607421875
 42
-0
  0
VERTEX
  8
0
 10
1057.34619140625
 20
229.76922607421875
 42
-0
  0
VERTEX
  8
0
 10
968.34613037109375
 20
229.76922607421875
 42
0
  0
SEQEND
  0
POLYLINE
  8
0
 10
0
 20
0
 39
0
 70
1
 66
1
  0
VERTEX
  8
0
 10
997.91058349609375
 20
91.769233703613281
 42
-1
  0
VERTEX
  8
0
 10
997.91058349609375
 20
123.76923370361328
 42
-1
  0
SEQEND
  0
POLYLINE
  8
0
 10
0
 20
0
 39
0
 70
1
 66
1
  0
VERTEX
  8
0
 10
1112.5
 20
168.61538696289062
 42
-0
  0
VERTEX
  8
0
 10
1023.5
 20
168.61538696289062
 42
-0
  0
VERTEX
  8
0
 10
1023.5
 20
140.61538696289062
 42
-1
  0
VERTEX
  8
0
 10
1023.5
 20
46.615383148193359
 42
-0
  0
VERTEX
  8
0
 10
1023.5
 20
18.615385055541992
 42
-0
  0
VERTEX
  8
0
 10
1112.5
 20
18.615385055541992
 42
0
  0
SEQEND
  0
POLYLINE
  8
0
 10
0
 20
0
 39
0
 70
1
 66
1
  0
VERTEX
  8
0
 10
1082.935546875
 20
156.61538696289062
 42
-1
  0
VERTEX
  8
0
 10
1082.935546875
 20
124.61538696289063
 42
-1
  0
SEQEND
  0
POLYLINE
  8
0
 10
0
 20
0
 39
0
 70
1
 66
1
  0
VERTEX
  8
0
 10
1205.576904296875
 20
71.346153259277344
 42
-0
  0
VERTEX
  8
0
 10
1294.576904296875
 20
71.346153259277344
 42
-0
  0
VERTEX
  8
0
 10
1294.576904296875
 20
99.346153259277344
 42
-1
  0
VERTEX
  8
0
 10
1294.576904296875
 20
193.34616088867187
 42
-0
  0
VERTEX
  8
0
 10
1294.576904296875
 20
221.34616088867187
 42
-0
  0
VERTEX
  8
0
 10
1205.576904296875
 20
221.34616088867187
 42
0
  0
SEQEND
  0
POLYLINE
  8
0
 10
0
 20
0
 39
0
 70
1
 66
1
  0
VERTEX
  8
0
 10
1235.141357421875
 20
83.346153259277344
 42
-1
  0
VERTEX
  8
0
 10
1235.141357421875
 20
115.34615325927734
 42
-1
  0
SEQEND
  0
POLYLINE
  8
0
 10
0
 20
0
 39
0
 70
1
 66
1
  0
VERTEX
  8
0
 10
1240.3077392578125
 20
739.76922607421875
 42
-0
  0
VERTEX
  8
0
 10
1329.3077392578125
 20
739.76922607421875
 42
-0
  0
VERTEX
  8
0
 10
1329.3077392578125
 20
767.76922607421875
 42
-1
  0
VERTEX
  8
0
 10
1329.3077392578125
 20
861.76922607421875
 42
-0
  0
VERTEX
  8
0
 10
1329.3077392578125
 20
889.76922607421875
 42
-0
  0
VERTEX
  8
0
 10
1240.3077392578125
 20
889.76922607421875
 42
0
  0
SEQEND
  0
POLYLINE
  8
0
 10
0
 20
0
 39
0
 70
1
 66
1
  0
VERTEX
  8
0
 10
1269.8721923828125
 20
751.76922607421875
 42
-1
  0
VERTEX
  8
0
 10
1269.8721923828125
 20
783.76922607421875
 42
-1
  0
SEQEND
  0
POLYLINE
  8
0
 10
0
 20
0
 39
0
 70
1
 66
1
  0
VERTEX
  8
0
 10
1269.6153564453125
 20
300.26922607421875
 42
-0
  0
VERTEX
  8
0
 10
1358.6153564453125
 20
300.26922607421875
 42
-0
  0
VERTEX
  8
0
 10
1358.6153564453125
 20
328.26922607421875
 42
-1
  0
VERTEX
  8
0
 10
1358.6153564453125
 20
422.26922607421875
 42
-0
  0
VERTEX
  8
0
 10
1358.6153564453125
 20
450.26922607421875
 42
-0
  0
VERTEX
  8
0
 10
1269.6153564453125
 20
450.26922607421875
 42
0
  0
SEQEND
  0
POLYLINE
  8
0
 10
0
 20
0
 39
0
 70
1
 66
1
  0
VERTEX
  8
0
 10
1299.1798095703125
 20
312.26922607421875
 42
-1
  0
VERTEX
  8
0
 10
1299.1798095703125
 20
344.26922607421875
 42
-1
  0
SEQEND
  0
POLYLINE
  8
0
 10
0
 20
0
 39
0
 70
1
 66
1
  0
VERTEX
  8
0
 10
1375.4615478515625
 20
639.5
 42
-0
  0
VERTEX
  8
0
 10
1286.4615478515625
 20
639.5
 42
-0
  0
VERTEX
  8
0
 10
1286.4615478515625
 20
611.5
 42
-1
  0
VERTEX
  8
0
 10
1286.4615478515625
 20
517.5
 42
-0
  0
VERTEX
  8
0
 10
1286.4615478515625
 20
489.5
 42
-0
  0
VERTEX
  8
0
 10
1375.4615478515625
 20
489.5
 42
0
  0
SEQEND
  0
POLYLINE
  8
0
 10
0
 20
0
 39
0
 70
1
 66
1
  0
VERTEX
  8
0
 10
1345.8970947265625
 20
627.5
 42
-1
  0
VERTEX
  8
0
 10
1345.8970947265625
 20
595.5
 42
-1
  0
SEQEND
  0
POLYLINE
  8
0
 10
0
 20
0
 39
0
 70
1
 66
1
  0
VERTEX
  8
0
 10
1384.4615478515625
 20
828.6153564453125
 42
-0
  0
VERTEX
  8
0
 10
1295.4615478515625
 20
828.6153564453125
 42
-0
  0
VERTEX
  8
0
 10
1295.4615478515625
 20
800.6153564453125
 42
-1
  0
VERTEX
  8
0
 10
1295.4615478515625
 20
706.6153564453125
 42
-0
  0
VERTEX
  8
0
 10
1295.4615478515625
 20
678.6153564453125
 42
-0
  0
VERTEX
  8
0
 10
1384.4615478515625
 20
678.6153564453125
 42
0
  0
SEQEND
  0
POLYLINE
  8
0
 10
0
 20
0
 39
0
 70
1
 66
1
  0
VERTEX
  8
0
 10
1354.8970947265625
 20
816.6153564453125
 42
-1
  0
VERTEX
  8
0
 10
1354.8970947265625
 20
784.6153564453125
 42
-1
  0
SEQEND
  0
POLYLINE
  8
0
 10
0
 20
0
 39
0
 70
1
 66
1
  0
VERTEX
  8
0
 10
1368.84619140625
 20
300.26922607421875
 42
-0
  0
VERTEX
  8
0
 10
1457.84619140625
 20
300.26922607421875
 42
-0
  0
VERTEX
  8
0
 10
1457.84619140625
 20
328.26922607421875
 42
-1
  0
VERTEX
  8
0
 10
1457.84619140625
 20
422.26922607421875
 42
-0
  0
VERTEX
  8
0
 10
1457.84619140625
 20
450.26922607421875
 42
-0
  0
VERTEX
  8
0
 10
1368.84619140625
 20
450.26922607421875
 42
0
  0
SEQEND
  0
POLYLINE
  8
0
 10
0
 20
0
 39
0
 70
1
 66
1
  0
VERTEX
  8
0
 10
1398.41064453125
 20
312.26922607421875
 42
-1
  0
VERTEX
  8
0
 10
1398.41064453125
 20
344.26922607421875
 42
-1
  0
SEQEND
  0
POLYLINE
  8
0
 10
0
 20
0
 39
0
 70
1
 66
1
  0
VERTEX
  8
0
 10
1385.6922607421875
 20
460.30767822265625
 42
-0
  0
VERTEX
  8
0
 10
1474.6922607421875
 20
460.30767822265625
 42
-0
  0
VERTEX
  8
0
 10
1474.6922607421875
 20
488.30767822265625
 42
-1
  0
VERTEX
  8
0
 10
1474.6922607421875
 20
582.30767822265625
 42
-0
  0
VERTEX
  8
0
 10
1474.6922607421875
 20
610.30767822265625
 42
-0
  0
VERTEX
  8
0
 10
1385.6922607421875
 20
610.30767822265625
 42
0
  0
SEQEND
  0
POLYLINE
  8
0
 10
0
 20
0
 39
0
 70
1
 66
1
  0
VERTEX
  8
0
 10
1415.2567138671875
 20
472.30767822265625
 42
-1
  0
VERTEX
  8
0
 10
1415.2567138671875
 20
504.30767822265625
 42
-1
  0
SEQEND
  0
POLYLINE
  8
0
 10
0
 20
0
 39
0
 70
1
 66
1
  0
VERTEX
  8
0
 10
85.627899169921875
 20
72.910102844238281
 42
-0
  0
VERTEX
  8
0
 10
57.910102844238281
 20
106.55120849609375
 42
0.22404871881008148
  0
VERTEX
  8
0
 10
50.192306518554688
 20
110.19230651855469
 42
0
  0
VERTEX
  8
0
 10
10.192307472229004
 20
110.19230651855469
 42
0
  0
VERTEX
  8
0
 10
10.192307472229004
 20
10.192307472229004
 42
0
  0
VERTEX
  8
0
 10
50.192306518554688
 20
10.192307472229004
 42
0.22404870390892029
  0
VERTEX
  8
0
 10
57.910102844238281
 20
13.833408355712891
 42
-0
  0
VERTEX
  8
0
 10
85.627899169921875
 20
47.474506378173828
 42
0.35889896750450134
  0
SEQEND
  0
POLYLINE
  8
0
 10
0
 20
0
 39
0
 70
1
 66
1
  0
VERTEX
  8
0
 10
70.192306518554688
 20
45.192306518554687
 42
-1
  0
VERTEX
  8
0
 10
70.192306518554688
 20
75.192306518554688
 42
-1
  0
SEQEND
  0
POLYLINE
  8
0
 10
0
 20
0
 39
0
 70
1
 66
1
  0
VERTEX
  8
0
 10
85.627899169921875
 20
585.1024169921875
 42
-0
  0
VERTEX
  8
0
 10
57.910102844238281
 20
618.7435302734375
 42
0.22404871881008148
  0
VERTEX
  8
0
 10
50.192306518554688
 20
622.3846435546875
 42
0
  0
VERTEX
  8
0
 10
10.192307472229004
 20
622.3846435546875
 42
0
  0
VERTEX
  8
0
 10
10.192307472229004
 20
522.3846435546875
 42
0
  0
VERTEX
  8
0
 10
50.192306518554688
 20
522.3846435546875
 42
0.22404870390892029
  0
VERTEX
  8
0
 10
57.910102844238281
 20
526.02569580078125
 42
-0
  0
VERTEX
  8
0
 10
85.627899169921875
 20
559.66680908203125
 42
0.35889896750450134
  0
SEQEND
  0
POLYLINE
  8
0
 10
0
 20
0
 39
0
 70
1
 66
1
  0
VERTEX
  8
0
 10
70.192306518554688
 20
557.3846435546875
 42
-1
  0
VERTEX
  8
0
 10
70.192306518554688
 20
587.3846435546875
 42
-1
  0
SEQEND
  0
POLYLINE
  8
0
 10
0
 20
0
 39
0
 70
1
 66
1
  0
VERTEX
  8
0
 10
254.52593994140625
 20
320.8206787109375
 42
-0
  0
VERTEX
  8
0
 10
282.24374389648437
 20
287.1795654296875
 42
0.22404871881008148
  0
VERTEX
  8
0
 10
289.9615478515625
 20
283.5384521484375
 42
0
  0
VERTEX
  8
0
 10
329.9615478515625
 20
283.5384521484375
 42
0
  0
VERTEX
  8
0
 10
329.9615478515625
 20
383.5384521484375
 42
0
  0
VERTEX
  8
0
 10
289.9615478515625
 20
383.5384521484375
 42
0.22404870390892029
  0
VERTEX
  8
0
 10
282.24374389648437
 20
379.89736938476562
 42
-0
  0
VERTEX
  8
0
 10
254.52593994140625
 20
346.25625610351562
 42
0.35889896750450134
  0
SEQEND
  0
POLYLINE
  8
0
 10
0
 20
0
 39
0
 70
1
 66
1
  0
VERTEX
  8
0
 10
269.9615478515625
 20
348.5384521484375
 42
-1
  0
VERTEX
  8
0
 10
269.9615478515625
 20
318.5384521484375
 42
-1
  0
SEQEND
  0
POLYLINE
  8
0
 10
0
 20
0
 39
0
 70
1
 66
1
  0
VERTEX
  8
0
 10
689.08941650390625
 20
795.33319091796875
 42
-0
  0
VERTEX
  8
0
 10
661.37164306640625
 20
828.97430419921875
 42
0.22404871881008148
  0
VERTEX
  8
0
 10
653.65386962890625
 20
832.6153564453125
 42
0
  0
VERTEX
  8
0
 10
613.65386962890625
 20
832.6153564453125
 42
0
  0
VERTEX
  8
0
 10
613.65386962890625
 20
732.6153564453125
 42
0
  0
VERTEX
  8
0
 10
653.65386962890625
 20
732.6153564453125
 42
0.22404870390892029
  0
VERTEX
  8
0
 10
661.37164306640625
 20
736.2564697265625
 42
-0
  0
VERTEX
  8
0
 10
689.08941650390625
 20
769.8975830078125
 42
0.35889896750450134
  0
SEQEND
  0
POLYLINE
  8
0
 10
0
 20
0
 39
0
 70
1
 66
1
  0
VERTEX
  8
0
 10
673.65386962890625
 20
767.6153564453125
 42
-1
  0
VERTEX
  8
0
 10
673.65386962890625
 20
797.6153564453125
 42
-1
  0
SEQEND
  0
POLYLINE
  8
0
 10
0
 20
0
 39
0
 70
1
 66
1
  0
VERTEX
  8
0
 10
666.10284423828125
 20
242.82066345214844
 42
-0
  0
VERTEX
  8
0
 10
693.8206787109375
 20
209.1795654296875
 42
0.22404871881008148
  0
VERTEX
  8
0
 10
701.5384521484375
 20
205.53846740722656
 42
0
  0
VERTEX
  8
0
 10
741.5384521484375
 20
205.53846740722656
 42
0
  0
VERTEX
  8
0
 10
741.5384521484375
 20
305.5384521484375
 42
0
  0
VERTEX
  8
0
 10
701.5384521484375
 20
305.5384521484375
 42
0.22404870390892029
  0
VERTEX
  8
0
 10
693.8206787109375
 20
301.89736938476562
 42
-0
  0
VERTEX
  8
0
 10
666.10284423828125
 20
268.25625610351562
 42
0.35889896750450134
  0
SEQEND
  0
POLYLINE
  8
0
 10
0
 20
0
 39
0
 70
1
 66
1
  0
VERTEX
  8
0
 10
681.5384521484375
 20
270.5384521484375
 42
-1
  0
VERTEX
  8
0
 10
681.5384521484375
 20
240.53846740722656
 42
-1
  0
SEQEND
  0
POLYLINE
  8
0
 10
0
 20
0
 39
0
 70
1
 66
1
  0
VERTEX
  8
0
 10
721.140869140625
 20
814.3720703125
 42
-0
  0
VERTEX
  8
0
 10
754.781982421875
 20
842.08990478515625
 42
0.22404871881008148
  0
VERTEX
  8
0
 10
758.423095703125
 20
849.80767822265625
 42
0
  0
VERTEX
  8
0
 10
758.423095703125
 20
889.80767822265625
 42
0
  0
VERTEX
  8
0
 10
658.423095703125
 20
889.80767822265625
 42
0
  0
VERTEX
  8
0
 10
658.423095703125
 20
849.80767822265625
 42
0.22404870390892029
  0
VERTEX
  8
0
 10
662.06414794921875
 20
842.08990478515625
 42
-0
  0
VERTEX
  8
0
 10
695.70526123046875
 20
814.3720703125
 42
0.35889896750450134
  0
SEQEND
  0
POLYLINE
  8
0
 10
0
 20
0
 39
0
 70
1
 66
1
  0
VERTEX
  8
0
 10
693.423095703125
 20
829.80767822265625
 42
-1
  0
VERTEX
  8
0
 10
723.423095703125
 20
829.80767822265625
 42
-1
  0
SEQEND
  0
POLYLINE
  8
0
 10
0
 20
0
 39
0
 70
1
 66
1
  0
VERTEX
  8
0
 10
862.08990478515625
 20
806.204833984375
 42
-0
  0
VERTEX
  8
0
 10
828.44879150390625
 20
778.48699951171875
 42
0.22404871881008148
  0
VERTEX
  8
0
 10
824.80767822265625
 20
770.76922607421875
 42
0
  0
VERTEX
  8
0
 10
824.80767822265625
 20
730.76922607421875
 42
0
  0
VERTEX
  8
0
 10
924.80767822265625
 20
730.76922607421875
 42
0
  0
VERTEX
  8
0
 10
924.80767822265625
 20
770.76922607421875
 42
0.22404870390892029
  0
VERTEX
  8
0
 10
921.16656494140625
 20
778.48699951171875
 42
-0
  0
VERTEX
  8
0
 10
887.5255126953125
 20
806.204833984375
 42
0.35889896750450134
  0
SEQEND
  0
POLYLINE
  8
0
 10
0
 20
0
 39
0
 70
1
 66
1
  0
VERTEX
  8
0
 10
889.80767822265625
 20
790.76922607421875
 42
-1
  0
VERTEX
  8
0
 10
859.80767822265625
 20
790.76922607421875
 42
-1
  0
SEQEND
  0
POLYLINE
  8
0
 10
0
 20
0
 39
0
 70
1
 66
1
  0
VERTEX
  8
0
 10
853.2567138671875
 20
550.43603515625
 42
-0
  0
VERTEX
  8
0
 10
880.9744873046875
 20
516.794921875
 42
0.22404871881008148
  0
VERTEX
  8
0
 10
888.69232177734375
 20
513.15386962890625
 42
0
  0
VERTEX
  8
0
 10
928.69232177734375
 20
513.15386962890625
 42
0
  0
VERTEX
  8
0
 10
928.69232177734375
 20
613.15386962890625
 42
0
  0
VERTEX
  8
0
 10
888.69232177734375
 20
613.15386962890625
 42
0.22404870390892029
  0
VERTEX
  8
0
 10
880.9744873046875
 20
609.51275634765625
 42
-0
  0
VERTEX
  8
0
 10
853.2567138671875
 20
575.87164306640625
 42
0.35889896750450134
  0
SEQEND
  0
POLYLINE
  8
0
 10
0
 20
0
 39
0
 70
1
 66
1
  0
VERTEX
  8
0
 10
868.69232177734375
 20
578.15386962890625
 42
-1
  0
VERTEX
  8
0
 10
868.69232177734375
 20
548.15386962890625
 42
-1
  0
SEQEND
  0
POLYLINE
  8
0
 10
0
 20
0
 39
0
 70
1
 66
1
  0
VERTEX
  8
0
 10
896.41009521484375
 20
320.295166015625
 42
-0
  0
VERTEX
  8
0
 10
930.05120849609375
 20
348.01296997070312
 42
0.22404871881008148
  0
VERTEX
  8
0
 10
933.69232177734375
 20
355.73077392578125
 42
0
  0
VERTEX
  8
0
 10
933.69232177734375
 20
395.73077392578125
 42
0
  0
VERTEX
  8
0
 10
833.69232177734375
 20
395.73077392578125
 42
0
  0
VERTEX
  8
0
 10
833.69232177734375
 20
355.73077392578125
 42
0.22404870390892029
  0
VERTEX
  8
0
 10
837.33343505859375
 20
348.01296997070312
 42
-0
  0
VERTEX
  8
0
 10
870.9744873046875
 20
320.295166015625
 42
0.35889896750450134
  0
SEQEND
  0
POLYLINE
  8
0
 10
0
 20
0
 39
0
 70
1
 66
1
  0
VERTEX
  8
0
 10
868.69232177734375
 20
335.73077392578125
 42
-1
  0
VERTEX
  8
0
 10
898.69232177734375
 20
335.73077392578125
 42
-1
  0
SEQEND
  0
POLYLINE
  8
0
 10
0
 20
0
 39
0
 70
1
 66
1
  0
VERTEX
  8
0
 10
939.56439208984375
 20
737.4744873046875
 42
-0
  0
VERTEX
  8
0
 10
967.2822265625
 20
703.83343505859375
 42
0.22404871881008148
  0
VERTEX
  8
0
 10
975
 20
700.19232177734375
 42
0
  0
VERTEX
  8
0
 10
1015
 20
700.19232177734375
 42
0
  0
VERTEX
  8
0
 10
1015
 20
800.19232177734375
 42
0
  0
VERTEX
  8
0
 10
975
 20
800.19232177734375
 42
0.22404870390892029
  0
VERTEX
  8
0
 10
967.2822265625
 20
796.55120849609375
 42
-0
  0
VERTEX
  8
0
 10
939.56439208984375
 20
762.91009521484375
 42
0.35889896750450134
  0
SEQEND
  0
POLYLINE
  8
0
 10
0
 20
0
 39
0
 70
1
 66
1
  0
VERTEX
  8
0
 10
955
 20
765.19232177734375
 42
-1
  0
VERTEX
  8
0
 10
955
 20
735.19232177734375
 42
-1
  0
SEQEND
  0
POLYLINE
  8
0
 10
0
 20
0
 39
0
 70
1
 66
1
  0
VERTEX
  8
0
 10
1062.3975830078125
 20
775.6279296875
 42
-0
  0
VERTEX
  8
0
 10
1028.7564697265625
 20
747.91009521484375
 42
0.22404871881008148
  0
VERTEX
  8
0
 10
1025.1153564453125
 20
740.19232177734375
 42
0
  0
VERTEX
  8
0
 10
1025.1153564453125
 20
700.19232177734375
 42
0
  0
VERTEX
  8
0
 10
1125.1153564453125
 20
700.19232177734375
 42
0
  0
VERTEX
  8
0
 10
1125.1153564453125
 20
740.19232177734375
 42
0.22404870390892029
  0
VERTEX
  8
0
 10
1121.4742431640625
 20
747.91009521484375
 42
-0
  0
VERTEX
  8
0
 10
1087.8331298828125
 20
775.6279296875
 42
0.35889896750450134
  0
SEQEND
  0
POLYLINE
  8
0
 10
0
 20
0
 39
0
 70
1
 66
1
  0
VERTEX
  8
0
 10
1090.1153564453125
 20
760.19232177734375
 42
-1
  0
VERTEX
  8
0
 10
1060.1153564453125
 20
760.19232177734375
 42
-1
  0
SEQEND
  0
POLYLINE
  8
0
 10
0
 20
0
 39
0
 70
1
 66
1
  0
VERTEX
  8
0
 10
1199.0894775390625
 20
513.79473876953125
 42
-0
  0
VERTEX
  8
0
 10
1171.37158203125
 20
547.43585205078125
 42
0.22404871881008148
  0
VERTEX
  8
0
 10
1163.65380859375
 20
551.076904296875
 42
0
  0
VERTEX
  8
0
 10
1123.65380859375
 20
551.076904296875
 42
0
  0
VERTEX
  8
0
 10
1123.65380859375
 20
451.07693481445312
 42
0
  0
VERTEX
  8
0
 10
1163.65380859375
 20
451.07693481445312
 42
0.22404870390892029
  0
VERTEX
  8
0
 10
1171.37158203125
 20
454.718017578125
 42
-0
  0
VERTEX
  8
0
 10
1199.0894775390625
 20
488.359130859375
 42
0.35889896750450134
  0
SEQEND
  0
POLYLINE
  8
0
 10
0
 20
0
 39
0
 70
1
 66
1
  0
VERTEX
  8
0
 10
1183.65380859375
 20
486.07693481445312
 42
-1
  0
VERTEX
  8
0
 10
1183.65380859375
 20
516.076904296875
 42
-1
  0
SEQEND
  0
POLYLINE
  8
0
 10
0
 20
0
 39
0
 70
1
 66
1
  0
VERTEX
  8
0
 10
1279.71826171875
 20
133.55143737792969
 42
-0
  0
VERTEX
  8
0
 10
1307.43603515625
 20
99.910331726074219
 42
0.22404871881008148
  0
VERTEX
  8
0
 10
1315.15380859375
 20
96.269233703613281
 42
0
  0
VERTEX
  8
0
 10
1355.15380859375
 20
96.269233703613281
 42
0
  0
VERTEX
  8
0
 10
1355.15380859375
 20
196.26922607421875
 42
0
  0
VERTEX
  8
0
 10
1315.15380859375
 20
196.26922607421875
 42
0.22404870390892029
  0
VERTEX
  8
0
 10
1307.43603515625
 20
192.62812805175781
 42
-0
  0
VERTEX
  8
0
 10
1279.71826171875
 20
158.98703002929687
 42
0.35889896750450134
  0
SEQEND
  0
POLYLINE
  8
0
 10
0
 20
0
 39
0
 70
1
 66
1
  0
VERTEX
  8
0
 10
1295.15380859375
 20
161.26922607421875
 42
-1
  0
VERTEX
  8
0
 10
1295.15380859375
 20
131.26922607421875
 42
-1
  0
SEQEND
  0
POLYLINE
  8
0
 10
0
 20
0
 39
0
 70
1
 66
1
  0
VERTEX
  8
0
 10
1397.295166015625
 20
826.8975830078125
 42
-0
  0
VERTEX
  8
0
 10
1425.012939453125
 20
793.2564697265625
 42
0.22404871881008148
  0
VERTEX
  8
0
 10
1432.730712890625
 20
789.6153564453125
 42
0
  0
VERTEX
  8
0
 10
1472.730712890625
 20
789.6153564453125
 42
0
  0
VERTEX
  8
0
 10
1472.730712890625
 20
889.6153564453125
 42
0
  0
VERTEX
  8
0
 10
1432.730712890625
 20
889.6153564453125
 42
0.22404870390892029
  0
VERTEX
  8
0
 10
1425.012939453125
 20
885.97430419921875
 42
-0
  0
VERTEX
  8
0
 10
1397.295166015625
 20
852.33319091796875
 42
0.35889896750450134
  0
SEQEND
  0
POLYLINE
  8
0
 10
0
 20
0
 39
0
 70
1
 66
1
  0
VERTEX
  8
0
 10
1412.730712890625
 20
854.6153564453125
 42
-1
  0
VERTEX
  8
0
 10
1412.730712890625
 20
824.6153564453125
 42
-1
  0
SEQEND
  0
POLYLINE
  8
0
 10
0
 20
0
 39
0
 70
1
 66
1
  0
VERTEX
  8
0
 10
1398.21826171875
 20
657.62835693359375
 42
-0
  0
VERTEX
  8
0
 10
1425.93603515625
 20
623.98724365234375
 42
0.22404871881008148
  0
VERTEX
  8
0
 10
1433.65380859375
 20
620.34613037109375
 42
0
  0
VERTEX
  8
0
 10
1473.65380859375
 20
620.34613037109375
 42
0
  0
VERTEX
  8
0
 10
1473.65380859375
 20
720.34613037109375
 42
0
  0
VERTEX
  8
0
 10
1433.65380859375
 20
720.34613037109375
 42
0.22404870390892029
  0
VERTEX
  8
0
 10
1425.93603515625
 20
716.705078125
 42
-0
  0
VERTEX
  8
0
 10
1398.21826171875
 20
683.06396484375
 42
0.35889896750450134
  0
SEQEND
  0
POLYLINE
  8
0
 10
0
 20
0
 39
0
 70
1
 66
1
  0
VERTEX
  8
0
 10
1413.65380859375
 20
685.34613037109375
 42
-1
  0
VERTEX
  8
0
 10
1413.65380859375
 20
655.34613037109375
 42
-1
  0
SEQEND
  0
ENDSEC
  0
EOF
