  0
SECTION
  2
ENTITIES
  0
POLYLINE
  8
0
 10
0
 20
0
 39
0
 70
1
 66
1
  0
VERTEX
  8
0
 10
0
 20
0
 42
0
  0
VERTEX
  8
0
 10
2000
 20
0
 42
0
  0
VERTEX
  8
0
 10
2000
 20
1200
 42
0
  0
VERTEX
  8
0
 10
7.3500003284175663e-014
 20
1200
 42
-0
  0
SEQEND
  0
POLYLINE
  8
0
 10
0
 20
0
 39
0
 70
1
 66
1
  0
VERTEX
  8
0
 10
388.75905914306639
 20
10.199999999999999
 42
-0
  0
VERTEX
  8
0
 10
10.199999999999989
 20
10.199999999999999
 42
-0
  0
VERTEX
  8
0
 10
10.199999999999989
 20
388.75905151367186
 42
0
  0
VERTEX
  8
0
 10
81.640948486328114
 20
460.19999999999999
 42
-0
  0
VERTEX
  8
0
 10
460.19999999999999
 20
460.19999999999999
 42
-0
  0
VERTEX
  8
0
 10
460.19999999999999
 20
81.640940856933597
 42
-0
  0
SEQEND
  0
POLYLINE
  8
0
 10
0
 20
0
 39
0
 70
1
 66
1
  0
VERTEX
  8
0
 10
397.19999999999999
 20
397.19999999999999
 42
-0
  0
VERTEX
  8
0
 10
73.199999999999989
 20
397.19999999999999
 42
0
  0
VERTEX
  8
0
 10
73.199999999999989
 20
73.200000000000003
 42
0
  0
VERTEX
  8
0
 10
397.19999999999999
 20
73.200000000000003
 42
0
  0
SEQEND
  0
POLYLINE
  8
0
 10
0
 20
0
 39
0
 70
1
 66
1
  0
VERTEX
  8
0
 10
442.47952766418456
 20
424.47954101562499
 42
1
  0
VERTEX
  8
0
 10
406.47952957153319
 20
424.47954101562499
 42
1
  0
SEQEND
  0
POLYLINE
  8
0
 10
0
 20
0
 39
0
 70
1
 66
1
  0
VERTEX
  8
0
 10
63.920458984374989
 20
45.9204704284668
 42
1
  0
VERTEX
  8
0
 10
27.920458984374989
 20
45.9204704284668
 42
1
  0
SEQEND
  0
POLYLINE
  8
0
 10
0
 20
0
 39
0
 70
1
 66
1
  0
VERTEX
  8
0
 10
388.75905914306639
 20
470.33333333333331
 42
-0
  0
VERTEX
  8
0
 10
10.199999999999989
 20
470.33333333333331
 42
-0
  0
VERTEX
  8
0
 10
10.199999999999989
 20
848.89238484700513
 42
0
  0
VERTEX
  8
0
 10
81.640948486328114
 20
920.33333333333326
 42
-0
  0
VERTEX
  8
0
 10
460.19999999999999
 20
920.33333333333326
 42
-0
  0
VERTEX
  8
0
 10
460.19999999999999
 20
541.77427419026685
 42
-0
  0
SEQEND
  0
POLYLINE
  8
0
 10
0
 20
0
 39
0
 70
1
 66
1
  0
VERTEX
  8
0
 10
397.19999999999999
 20
857.33333333333326
 42
-0
  0
VERTEX
  8
0
 10
73.199999999999989
 20
857.33333333333326
 42
0
  0
VERTEX
  8
0
 10
73.199999999999989
 20
533.33333333333326
 42
0
  0
VERTEX
  8
0
 10
397.19999999999999
 20
533.33333333333326
 42
0
  0
SEQEND
  0
POLYLINE
  8
0
 10
0
 20
0
 39
0
 70
1
 66
1
  0
VERTEX
  8
0
 10
442.47952766418456
 20
884.61287434895826
 42
1
  0
VERTEX
  8
0
 10
406.47952957153319
 20
884.61287434895826
 42
1
  0
SEQEND
  0
POLYLINE
  8
0
 10
0
 20
0
 39
0
 70
1
 66
1
  0
VERTEX
  8
0
 10
63.920458984374989
 20
506.05380376180011
 42
1
  0
VERTEX
  8
0
 10
27.920458984374989
 20
506.05380376180011
 42
1
  0
SEQEND
  0
POLYLINE
  8
0
 10
0
 20
0
 39
0
 70
1
 66
1
  0
VERTEX
  8
0
 10
849.0257258097331
 20
10.199999999999999
 42
-0
  0
VERTEX
  8
0
 10
470.4666666666667
 20
10.199999999999999
 42
-0
  0
VERTEX
  8
0
 10
470.4666666666667
 20
388.75905151367186
 42
0
  0
VERTEX
  8
0
 10
541.90761515299482
 20
460.19999999999999
 42
-0
  0
VERTEX
  8
0
 10
920.4666666666667
 20
460.19999999999999
 42
-0
  0
VERTEX
  8
0
 10
920.4666666666667
 20
81.640940856933597
 42
-0
  0
SEQEND
  0
POLYLINE
  8
0
 10
0
 20
0
 39
0
 70
1
 66
1
  0
VERTEX
  8
0
 10
857.4666666666667
 20
397.19999999999999
 42
-0
  0
VERTEX
  8
0
 10
533.4666666666667
 20
397.19999999999999
 42
0
  0
VERTEX
  8
0
 10
533.4666666666667
 20
73.200000000000003
 42
0
  0
VERTEX
  8
0
 10
857.4666666666667
 20
73.200000000000003
 42
0
  0
SEQEND
  0
POLYLINE
  8
0
 10
0
 20
0
 39
0
 70
1
 66
1
  0
VERTEX
  8
0
 10
902.74619433085127
 20
424.47954101562499
 42
1
  0
VERTEX
  8
0
 10
866.7461962381999
 20
424.47954101562499
 42
1
  0
SEQEND
  0
POLYLINE
  8
0
 10
0
 20
0
 39
0
 70
1
 66
1
  0
VERTEX
  8
0
 10
524.1871256510417
 20
45.9204704284668
 42
1
  0
VERTEX
  8
0
 10
488.1871256510417
 20
45.9204704284668
 42
1
  0
SEQEND
  0
POLYLINE
  8
0
 10
0
 20
0
 39
0
 70
1
 66
1
  0
VERTEX
  8
0
 10
849.0257258097331
 20
470.33333333333331
 42
-0
  0
VERTEX
  8
0
 10
470.4666666666667
 20
470.33333333333331
 42
-0
  0
VERTEX
  8
0
 10
470.4666666666667
 20
848.89238484700513
 42
0
  0
VERTEX
  8
0
 10
541.90761515299482
 20
920.33333333333326
 42
-0
  0
VERTEX
  8
0
 10
920.4666666666667
 20
920.33333333333326
 42
-0
  0
VERTEX
  8
0
 10
920.4666666666667
 20
541.77427419026685
 42
-0
  0
SEQEND
  0
POLYLINE
  8
0
 10
0
 20
0
 39
0
 70
1
 66
1
  0
VERTEX
  8
0
 10
857.4666666666667
 20
857.33333333333326
 42
-0
  0
VERTEX
  8
0
 10
533.4666666666667
 20
857.33333333333326
 42
0
  0
VERTEX
  8
0
 10
533.4666666666667
 20
533.33333333333326
 42
0
  0
VERTEX
  8
0
 10
857.4666666666667
 20
533.33333333333326
 42
0
  0
SEQEND
  0
POLYLINE
  8
0
 10
0
 20
0
 39
0
 70
1
 66
1
  0
VERTEX
  8
0
 10
902.74619433085127
 20
884.61287434895826
 42
1
  0
VERTEX
  8
0
 10
866.7461962381999
 20
884.61287434895826
 42
1
  0
SEQEND
  0
POLYLINE
  8
0
 10
0
 20
0
 39
0
 70
1
 66
1
  0
VERTEX
  8
0
 10
524.1871256510417
 20
506.05380376180011
 42
1
  0
VERTEX
  8
0
 10
488.1871256510417
 20
506.05380376180011
 42
1
  0
SEQEND
  0
POLYLINE
  8
0
 10
0
 20
0
 39
0
 70
1
 66
1
  0
VERTEX
  8
0
 10
1309.2923924763998
 20
10.199999999999999
 42
-0
  0
VERTEX
  8
0
 10
930.73333333333335
 20
10.199999999999999
 42
-0
  0
VERTEX
  8
0
 10
930.73333333333335
 20
388.75905151367186
 42
0
  0
VERTEX
  8
0
 10
1002.1742818196615
 20
460.19999999999999
 42
-0
  0
VERTEX
  8
0
 10
1380.7333333333333
 20
460.19999999999999
 42
-0
  0
VERTEX
  8
0
 10
1380.7333333333333
 20
81.640940856933597
 42
-0
  0
SEQEND
  0
POLYLINE
  8
0
 10
0
 20
0
 39
0
 70
1
 66
1
  0
VERTEX
  8
0
 10
1317.7333333333333
 20
397.19999999999999
 42
-0
  0
VERTEX
  8
0
 10
993.73333333333335
 20
397.19999999999999
 42
0
  0
VERTEX
  8
0
 10
993.73333333333335
 20
73.200000000000003
 42
0
  0
VERTEX
  8
0
 10
1317.7333333333333
 20
73.200000000000003
 42
0
  0
SEQEND
  0
POLYLINE
  8
0
 10
0
 20
0
 39
0
 70
1
 66
1
  0
VERTEX
  8
0
 10
1363.0128609975179
 20
424.47954101562499
 42
1
  0
VERTEX
  8
0
 10
1327.0128629048666
 20
424.47954101562499
 42
1
  0
SEQEND
  0
POLYLINE
  8
0
 10
0
 20
0
 39
0
 70
1
 66
1
  0
VERTEX
  8
0
 10
984.45379231770835
 20
45.9204704284668
 42
1
  0
VERTEX
  8
0
 10
948.45379231770835
 20
45.9204704284668
 42
1
  0
SEQEND
  0
POLYLINE
  8
0
 10
0
 20
0
 39
0
 70
1
 66
1
  0
VERTEX
  8
0
 10
1309.2923924763998
 20
470.33333333333331
 42
-0
  0
VERTEX
  8
0
 10
930.73333333333335
 20
470.33333333333331
 42
-0
  0
VERTEX
  8
0
 10
930.73333333333335
 20
848.89238484700513
 42
0
  0
VERTEX
  8
0
 10
1002.1742818196615
 20
920.33333333333326
 42
-0
  0
VERTEX
  8
0
 10
1380.7333333333333
 20
920.33333333333326
 42
-0
  0
VERTEX
  8
0
 10
1380.7333333333333
 20
541.77427419026685
 42
-0
  0
SEQEND
  0
POLYLINE
  8
0
 10
0
 20
0
 39
0
 70
1
 66
1
  0
VERTEX
  8
0
 10
1317.7333333333333
 20
857.33333333333326
 42
-0
  0
VERTEX
  8
0
 10
993.73333333333335
 20
857.33333333333326
 42
0
  0
VERTEX
  8
0
 10
993.73333333333335
 20
533.33333333333326
 42
0
  0
VERTEX
  8
0
 10
1317.7333333333333
 20
533.33333333333326
 42
0
  0
SEQEND
  0
POLYLINE
  8
0
 10
0
 20
0
 39
0
 70
1
 66
1
  0
VERTEX
  8
0
 10
1363.0128609975179
 20
884.61287434895826
 42
1
  0
VERTEX
  8
0
 10
1327.0128629048666
 20
884.61287434895826
 42
1
  0
SEQEND
  0
POLYLINE
  8
0
 10
0
 20
0
 39
0
 70
1
 66
1
  0
VERTEX
  8
0
 10
984.45379231770835
 20
506.05380376180011
 42
1
  0
VERTEX
  8
0
 10
948.45379231770835
 20
506.05380376180011
 42
1
  0
SEQEND
  0
POLYLINE
  8
0
 10
0
 20
0
 39
0
 70
1
 66
1
  0
VERTEX
  8
0
 10
510.19999999999999
 20
930.4666666666667
 42
-0
  0
VERTEX
  8
0
 10
10.199999999999989
 20
930.4666666666667
 42
-0
  0
VERTEX
  8
0
 10
10.199999999999989
 20
1185.4666666666667
 42
-0
  0
VERTEX
  8
0
 10
163.70787353515624
 20
1185.4666666666667
 42
-0
  0
VERTEX
  8
0
 10
191.07332153320311
 20
1128.9113840738933
 42
0
  0
VERTEX
  8
0
 10
329.32667846679686
 20
1128.9113840738933
 42
0
  0
VERTEX
  8
0
 10
356.69212646484374
 20
1185.4666666666667
 42
-0
  0
VERTEX
  8
0
 10
510.19999999999999
 20
1185.4666666666667
 42
0
  0
SEQEND
  0
POLYLINE
  8
0
 10
0
 20
0
 39
0
 70
1
 66
1
  0
VERTEX
  8
0
 10
459.43391342163085
 20
1057.9666666666667
 42
1
  0
VERTEX
  8
0
 10
354.58713073730468
 20
1057.9666666666667
 42
1
  0
SEQEND
  0
POLYLINE
  8
0
 10
0
 20
0
 39
0
 70
1
 66
1
  0
VERTEX
  8
0
 10
1020.4666666666667
 20
930.4666666666667
 42
-0
  0
VERTEX
  8
0
 10
520.4666666666667
 20
930.4666666666667
 42
-0
  0
VERTEX
  8
0
 10
520.4666666666667
 20
1185.4666666666667
 42
-0
  0
VERTEX
  8
0
 10
673.97454020182295
 20
1185.4666666666667
 42
-0
  0
VERTEX
  8
0
 10
701.33998819986982
 20
1128.9113840738933
 42
0
  0
VERTEX
  8
0
 10
839.59334513346357
 20
1128.9113840738933
 42
0
  0
VERTEX
  8
0
 10
866.95879313151045
 20
1185.4666666666667
 42
-0
  0
VERTEX
  8
0
 10
1020.4666666666667
 20
1185.4666666666667
 42
0
  0
SEQEND
  0
POLYLINE
  8
0
 10
0
 20
0
 39
0
 70
1
 66
1
  0
VERTEX
  8
0
 10
969.70058008829756
 20
1057.9666666666667
 42
1
  0
VERTEX
  8
0
 10
864.85379740397138
 20
1057.9666666666667
 42
1
  0
SEQEND
  0
POLYLINE
  8
0
 10
0
 20
0
 39
0
 70
1
 66
1
  0
VERTEX
  8
0
 10
1530.7333333333333
 20
930.4666666666667
 42
-0
  0
VERTEX
  8
0
 10
1030.7333333333333
 20
930.4666666666667
 42
-0
  0
VERTEX
  8
0
 10
1030.7333333333333
 20
1185.4666666666667
 42
-0
  0
VERTEX
  8
0
 10
1184.2412068684896
 20
1185.4666666666667
 42
-0
  0
VERTEX
  8
0
 10
1211.6066548665365
 20
1128.9113840738933
 42
0
  0
VERTEX
  8
0
 10
1349.8600118001302
 20
1128.9113840738933
 42
0
  0
VERTEX
  8
0
 10
1377.2254597981771
 20
1185.4666666666667
 42
-0
  0
VERTEX
  8
0
 10
1530.7333333333333
 20
1185.4666666666667
 42
0
  0
SEQEND
  0
POLYLINE
  8
0
 10
0
 20
0
 39
0
 70
1
 66
1
  0
VERTEX
  8
0
 10
1479.9672467549642
 20
1057.9666666666667
 42
1
  0
VERTEX
  8
0
 10
1375.120464070638
 20
1057.9666666666667
 42
1
  0
SEQEND
  0
POLYLINE
  8
0
 10
0
 20
0
 39
0
 70
1
 66
1
  0
VERTEX
  8
0
 10
1391
 20
10.199999999999999
 42
-0
  0
VERTEX
  8
0
 10
1391
 20
510.19999999999999
 42
-0
  0
VERTEX
  8
0
 10
1646
 20
510.19999999999999
 42
-0
  0
VERTEX
  8
0
 10
1646
 20
356.69212646484374
 42
-0
  0
VERTEX
  8
0
 10
1589.4447174072266
 20
329.32667846679686
 42
0
  0
VERTEX
  8
0
 10
1589.4447174072266
 20
191.07332153320311
 42
0
  0
VERTEX
  8
0
 10
1646
 20
163.70787353515627
 42
-0
  0
VERTEX
  8
0
 10
1646
 20
10.200000000000031
 42
0
  0
SEQEND
  0
POLYLINE
  8
0
 10
0
 20
0
 39
0
 70
1
 66
1
  0
VERTEX
  8
0
 10
1518.5
 20
60.966086578369143
 42
1
  0
VERTEX
  8
0
 10
1518.5
 20
165.8128692626953
 42
1
  0
SEQEND
  0
POLYLINE
  8
0
 10
0
 20
0
 39
0
 70
1
 66
1
  0
VERTEX
  8
0
 10
1541
 20
520.33333333333337
 42
-0
  0
VERTEX
  8
0
 10
1541
 20
1020.3333333333334
 42
-0
  0
VERTEX
  8
0
 10
1796
 20
1020.3333333333334
 42
-0
  0
VERTEX
  8
0
 10
1796
 20
866.82545979817712
 42
-0
  0
VERTEX
  8
0
 10
1739.4447174072266
 20
839.46001180013025
 42
0
  0
VERTEX
  8
0
 10
1739.4447174072266
 20
701.2066548665365
 42
0
  0
VERTEX
  8
0
 10
1796
 20
673.84120686848962
 42
-0
  0
VERTEX
  8
0
 10
1796
 20
520.33333333333337
 42
0
  0
SEQEND
  0
POLYLINE
  8
0
 10
0
 20
0
 39
0
 70
1
 66
1
  0
VERTEX
  8
0
 10
1668.5
 20
571.09941991170251
 42
1
  0
VERTEX
  8
0
 10
1668.5
 20
675.94620259602868
 42
1
  0
SEQEND
  0
POLYLINE
  8
0
 10
0
 20
0
 39
0
 70
1
 66
1
  0
VERTEX
  8
0
 10
1656.2
 20
10.199999999999999
 42
-0
  0
VERTEX
  8
0
 10
1656.2
 20
510.19999999999999
 42
-0
  0
VERTEX
  8
0
 10
1856.2
 20
510.19999999999999
 42
-0
  0
VERTEX
  8
0
 10
1856.2
 20
10.200000000000012
 42
-0
  0
SEQEND
  0
POLYLINE
  8
0
 10
0
 20
0
 39
0
 70
1
 66
1
  0
VERTEX
  8
0
 10
1818.0850708007813
 20
444.88902587890624
 42
1
  0
VERTEX
  8
0
 10
1818.0850708007813
 20
480.88902587890624
 42
1
  0
SEQEND
  0
POLYLINE
  8
0
 10
0
 20
0
 39
0
 70
1
 66
1
  0
VERTEX
  8
0
 10
1756.2
 20
208.19999999999999
 42
1
  0
VERTEX
  8
0
 10
1756.2
 20
312.19999999999999
 42
1
  0
SEQEND
  0
POLYLINE
  8
0
 10
0
 20
0
 39
0
 70
1
 66
1
  0
VERTEX
  8
0
 10
383.39999999999998
 20
83.400000000000006
 42
-0
  0
VERTEX
  8
0
 10
83.399999999999977
 20
83.400000000000006
 42
0
  0
VERTEX
  8
0
 10
83.399999999999977
 20
383.39999999999998
 42
0
  0
VERTEX
  8
0
 10
383.39999999999998
 20
383.39999999999998
 42
0
  0
SEQEND
  0
POLYLINE
  8
0
 10
0
 20
0
 39
0
 70
1
 66
1
  0
VERTEX
  8
0
 10
353.52377929687498
 20
283.10188903808591
 42
0.19911558926105499
  0
VERTEX
  8
0
 10
283.10188903808591
 20
353.52377929687498
 42
-0
  0
VERTEX
  8
0
 10
113.27622070312498
 20
183.69811096191407
 42
0.19911558926105499
  0
VERTEX
  8
0
 10
183.69811096191404
 20
113.27622070312501
 42
0
  0
SEQEND
  0
POLYLINE
  8
0
 10
0
 20
0
 39
0
 70
1
 66
1
  0
VERTEX
  8
0
 10
383.39999999999998
 20
543.5333333333333
 42
-0
  0
VERTEX
  8
0
 10
83.399999999999977
 20
543.5333333333333
 42
0
  0
VERTEX
  8
0
 10
83.399999999999977
 20
843.5333333333333
 42
0
  0
VERTEX
  8
0
 10
383.39999999999998
 20
843.5333333333333
 42
0
  0
SEQEND
  0
POLYLINE
  8
0
 10
0
 20
0
 39
0
 70
1
 66
1
  0
VERTEX
  8
0
 10
353.52377929687498
 20
743.23522237141924
 42
0.19911558926105499
  0
VERTEX
  8
0
 10
283.10188903808591
 20
813.6571126302083
 42
-0
  0
VERTEX
  8
0
 10
113.27622070312498
 20
643.83144429524737
 42
0.19911558926105499
  0
VERTEX
  8
0
 10
183.69811096191404
 20
573.4095540364583
 42
0
  0
SEQEND
  0
POLYLINE
  8
0
 10
0
 20
0
 39
0
 70
1
 66
1
  0
VERTEX
  8
0
 10
843.66666666666663
 20
83.400000000000006
 42
-0
  0
VERTEX
  8
0
 10
543.66666666666663
 20
83.400000000000006
 42
0
  0
VERTEX
  8
0
 10
543.66666666666663
 20
383.39999999999998
 42
0
  0
VERTEX
  8
0
 10
843.66666666666663
 20
383.39999999999998
 42
0
  0
SEQEND
  0
POLYLINE
  8
0
 10
0
 20
0
 39
0
 70
1
 66
1
  0
VERTEX
  8
0
 10
813.79044596354163
 20
283.10188903808591
 42
0.19911558926105499
  0
VERTEX
  8
0
 10
743.36855570475257
 20
353.52377929687498
 42
-0
  0
VERTEX
  8
0
 10
573.54288736979163
 20
183.69811096191407
 42
0.19911558926105499
  0
VERTEX
  8
0
 10
643.96477762858069
 20
113.27622070312501
 42
0
  0
SEQEND
  0
POLYLINE
  8
0
 10
0
 20
0
 39
0
 70
1
 66
1
  0
VERTEX
  8
0
 10
843.66666666666663
 20
543.5333333333333
 42
-0
  0
VERTEX
  8
0
 10
543.66666666666663
 20
543.5333333333333
 42
0
  0
VERTEX
  8
0
 10
543.66666666666663
 20
843.5333333333333
 42
0
  0
VERTEX
  8
0
 10
843.66666666666663
 20
843.5333333333333
 42
0
  0
SEQEND
  0
POLYLINE
  8
0
 10
0
 20
0
 39
0
 70
1
 66
1
  0
VERTEX
  8
0
 10
813.79044596354163
 20
743.23522237141924
 42
0.19911558926105499
  0
VERTEX
  8
0
 10
743.36855570475257
 20
813.6571126302083
 42
-0
  0
VERTEX
  8
0
 10
573.54288736979163
 20
643.83144429524737
 42
0.19911558926105499
  0
VERTEX
  8
0
 10
643.96477762858069
 20
573.4095540364583
 42
0
  0
SEQEND
  0
POLYLINE
  8
0
 10
0
 20
0
 39
0
 70
1
 66
1
  0
VERTEX
  8
0
 10
1303.9333333333334
 20
83.400000000000006
 42
-0
  0
VERTEX
  8
0
 10
1003.9333333333334
 20
83.400000000000006
 42
0
  0
VERTEX
  8
0
 10
1003.9333333333334
 20
383.39999999999998
 42
0
  0
VERTEX
  8
0
 10
1303.9333333333334
 20
383.39999999999998
 42
0
  0
SEQEND
  0
POLYLINE
  8
0
 10
0
 20
0
 39
0
 70
1
 66
1
  0
VERTEX
  8
0
 10
1274.0571126302084
 20
283.10188903808591
 42
0.19911558926105499
  0
VERTEX
  8
0
 10
1203.6352223714193
 20
353.52377929687498
 42
-0
  0
VERTEX
  8
0
 10
1033.8095540364584
 20
183.69811096191407
 42
0.19911558926105499
  0
VERTEX
  8
0
 10
1104.2314442952475
 20
113.27622070312501
 42
0
  0
SEQEND
  0
POLYLINE
  8
0
 10
0
 20
0
 39
0
 70
1
 66
1
  0
VERTEX
  8
0
 10
1303.9333333333334
 20
543.5333333333333
 42
-0
  0
VERTEX
  8
0
 10
1003.9333333333334
 20
543.5333333333333
 42
0
  0
VERTEX
  8
0
 10
1003.9333333333334
 20
843.5333333333333
 42
0
  0
VERTEX
  8
0
 10
1303.9333333333334
 20
843.5333333333333
 42
0
  0
SEQEND
  0
POLYLINE
  8
0
 10
0
 20
0
 39
0
 70
1
 66
1
  0
VERTEX
  8
0
 10
1274.0571126302084
 20
743.23522237141924
 42
0.19911558926105499
  0
VERTEX
  8
0
 10
1203.6352223714193
 20
813.6571126302083
 42
-0
  0
VERTEX
  8
0
 10
1033.8095540364584
 20
643.83144429524737
 42
0.19911558926105499
  0
VERTEX
  8
0
 10
1104.2314442952475
 20
573.4095540364583
 42
0
  0
SEQEND
  0
POLYLINE
  8
0
 10
0
 20
0
 39
0
 70
1
 66
1
  0
VERTEX
  8
0
 10
1806.2
 20
520.33333333333337
 42
-0
  0
VERTEX
  8
0
 10
1806.2
 20
925.33333333333337
 42
-0
  0
VERTEX
  8
0
 10
1856.2
 20
925.33333333333337
 42
-0
  0
VERTEX
  8
0
 10
1921.2
 20
520.33333333333337
 42
0
  0
SEQEND
  0
POLYLINE
  8
0
 10
0
 20
0
 39
0
 70
1
 66
1
  0
VERTEX
  8
0
 10
1831.2
 20
559.40288289388025
 42
0
  0
VERTEX
  8
0
 10
1857.939429473877
 20
540.74539311726892
 42
0
  0
VERTEX
  8
0
 10
1895.2699310302735
 20
542.91051419576013
 42
0
  0
VERTEX
  8
0
 10
1880.646533203125
 20
650.78055318196618
 42
-0
  0
VERTEX
  8
0
 10
1853.664527130127
 20
665.06787618001306
 42
0
  0
VERTEX
  8
0
 10
1831.2
 20
659.81787618001306
 42
0
  0
SEQEND
  0
POLYLINE
  8
0
 10
0
 20
0
 39
0
 70
1
 66
1
  0
VERTEX
  8
0
 10
1981.8315
 20
925.33333333333337
 42
-0
  0
VERTEX
  8
0
 10
1981.8315
 20
520.33333333333337
 42
-0
  0
VERTEX
  8
0
 10
1931.8315
 20
520.33333333333337
 42
-0
  0
VERTEX
  8
0
 10
1866.8315
 20
925.33333333333337
 42
0
  0
SEQEND
  0
POLYLINE
  8
0
 10
0
 20
0
 39
0
 70
1
 66
1
  0
VERTEX
  8
0
 10
1956.8315
 20
886.2637837727865
 42
0
  0
VERTEX
  8
0
 10
1930.0920705261231
 20
904.92127354939782
 42
0
  0
VERTEX
  8
0
 10
1892.7615689697266
 20
902.75615247090661
 42
0
  0
VERTEX
  8
0
 10
1907.384966796875
 20
794.88611348470056
 42
-0
  0
VERTEX
  8
0
 10
1934.3669728698731
 20
780.59879048665368
 42
0
  0
VERTEX
  8
0
 10
1956.8315
 20
785.84879048665368
 42
0
  0
SEQEND
  0
POLYLINE
  8
0
 10
0
 20
0
 39
0
 70
1
 66
1
  0
VERTEX
  8
0
 10
1946
 20
1030.4666666666667
 42
-0
  0
VERTEX
  8
0
 10
1541
 20
1030.4666666666667
 42
-0
  0
VERTEX
  8
0
 10
1541
 20
1080.4666666666667
 42
-0
  0
VERTEX
  8
0
 10
1946
 20
1145.4666666666667
 42
0
  0
SEQEND
  0
POLYLINE
  8
0
 10
0
 20
0
 39
0
 70
1
 66
1
  0
VERTEX
  8
0
 10
1906.9304504394531
 20
1055.4666666666667
 42
0
  0
VERTEX
  8
0
 10
1925.5879402160645
 20
1082.2060961405437
 42
0
  0
VERTEX
  8
0
 10
1923.4228191375732
 20
1119.5365976969401
 42
0
  0
VERTEX
  8
0
 10
1815.5527801513672
 20
1104.9131998697917
 42
-0
  0
VERTEX
  8
0
 10
1801.2654571533203
 20
1077.9311937967937
 42
0
  0
VERTEX
  8
0
 10
1806.5154571533203
 20
1055.4666666666667
 42
0
  0
SEQEND
  0
POLYLINE
  8
0
 10
0
 20
0
 39
0
 70
1
 66
1
  0
VERTEX
  8
0
 10
1491.0000000000002
 20
527.4171687861284
 42
-0.14167670905590057
  0
VERTEX
  8
0
 10
1391
 20
527.4171687861284
 42
0
  0
VERTEX
  8
0
 10
1391.0000000000002
 20
873.24950187404954
 42
-0.14167670905590057
  0
VERTEX
  8
0
 10
1491.0000000000002
 20
873.24950187404954
 42
0
  0
SEQEND
  0
POLYLINE
  8
0
 10
0
 20
0
 39
0
 70
1
 66
1
  0
VERTEX
  8
0
 10
1441.0000000000002
 20
530.66941993435228
 42
1
  0
VERTEX
  8
0
 10
1441.0000000000002
 20
562.66941993435228
 42
1
  0
SEQEND
  0
POLYLINE
  8
0
 10
0
 20
0
 39
0
 70
1
 66
1
  0
VERTEX
  8
0
 10
1441.0000000000002
 20
841.15584342678392
 42
1
  0
VERTEX
  8
0
 10
1441.0000000000002
 20
873.15584342678392
 42
1
  0
SEQEND
  0
POLYLINE
  8
0
 10
0
 20
0
 39
0
 70
1
 66
1
  0
VERTEX
  8
0
 10
1966.4666666666669
 20
17.283835452795035
 42
-0.14167670905590057
  0
VERTEX
  8
0
 10
1866.4666666666667
 20
17.283835452795028
 42
0
  0
VERTEX
  8
0
 10
1866.4666666666669
 20
363.11616854071616
 42
-0.14167670905590057
  0
VERTEX
  8
0
 10
1966.4666666666669
 20
363.11616854071616
 42
0
  0
SEQEND
  0
POLYLINE
  8
0
 10
0
 20
0
 39
0
 70
1
 66
1
  0
VERTEX
  8
0
 10
1916.4666666666669
 20
20.536086601018908
 42
1
  0
VERTEX
  8
0
 10
1916.4666666666669
 20
52.536086601018908
 42
1
  0
SEQEND
  0
POLYLINE
  8
0
 10
0
 20
0
 39
0
 70
1
 66
1
  0
VERTEX
  8
0
 10
1916.4666666666669
 20
331.02251009345053
 42
1
  0
VERTEX
  8
0
 10
1916.4666666666669
 20
363.02251009345053
 42
1
  0
SEQEND
  0
POLYLINE
  8
0
 10
0
 20
0
 39
0
 70
1
 66
1
  0
VERTEX
  8
0
 10
1671
 20
1111.8
 42
-0
  0
VERTEX
  8
0
 10
1541
 20
1111.8
 42
0
  0
VERTEX
  8
0
 10
1541
 20
1171.8
 42
0
  0
VERTEX
  8
0
 10
1671
 20
1171.8
 42
0
  0
SEQEND
  0
POLYLINE
  8
0
 10
0
 20
0
 39
0
 70
1
 66
1
  0
VERTEX
  8
0
 10
1661.9480171203613
 20
1141.8
 42
1
  0
VERTEX
  8
0
 10
1635.9480171203613
 20
1141.8
 42
1
  0
SEQEND
  0
POLYLINE
  8
0
 10
0
 20
0
 39
0
 70
1
 66
1
  0
VERTEX
  8
0
 10
1936.2
 20
935.39999999999998
 42
-0
  0
VERTEX
  8
0
 10
1806.2
 20
935.39999999999998
 42
0
  0
VERTEX
  8
0
 10
1806.2
 20
995.39999999999998
 42
0
  0
VERTEX
  8
0
 10
1936.2
 20
995.39999999999998
 42
0
  0
SEQEND
  0
POLYLINE
  8
0
 10
0
 20
0
 39
0
 70
1
 66
1
  0
VERTEX
  8
0
 10
1927.1480171203614
 20
965.39999999999998
 42
1
  0
VERTEX
  8
0
 10
1901.1480171203614
 20
965.39999999999998
 42
1
  0
SEQEND
  0
POLYLINE
  8
0
 10
0
 20
0
 39
0
 70
1
 66
1
  0
VERTEX
  8
0
 10
297.5333333333333
 20
1139.4000000000001
 42
-0
  0
VERTEX
  8
0
 10
197.5333333333333
 20
1139.4000000000001
 42
0
  0
VERTEX
  8
0
 10
197.5333333333333
 20
1189.4000000000001
 42
0
  0
VERTEX
  8
0
 10
297.5333333333333
 20
1189.4000000000001
 42
0
  0
SEQEND
  0
POLYLINE
  8
0
 10
0
 20
0
 39
0
 70
1
 66
1
  0
VERTEX
  8
0
 10
277.12727025349932
 20
1164.4000000000001
 42
-0
  0
VERTEX
  8
0
 10
277.12727025349932
 20
1177.4000000000001
 42
-0
  0
VERTEX
  8
0
 10
217.93939259847002
 20
1177.4000000000001
 42
0
  0
VERTEX
  8
0
 10
217.93939259847002
 20
1164.4000000000001
 42
0
  0
VERTEX
  8
0
 10
217.93939259847002
 20
1151.4000000000001
 42
0
  0
VERTEX
  8
0
 10
277.12727025349932
 20
1151.4000000000001
 42
0
  0
SEQEND
  0
POLYLINE
  8
0
 10
0
 20
0
 39
0
 70
1
 66
1
  0
VERTEX
  8
0
 10
807.79999999999995
 20
1139.4000000000001
 42
-0
  0
VERTEX
  8
0
 10
707.79999999999995
 20
1139.4000000000001
 42
0
  0
VERTEX
  8
0
 10
707.79999999999995
 20
1189.4000000000001
 42
0
  0
VERTEX
  8
0
 10
807.79999999999995
 20
1189.4000000000001
 42
0
  0
SEQEND
  0
POLYLINE
  8
0
 10
0
 20
0
 39
0
 70
1
 66
1
  0
VERTEX
  8
0
 10
787.39393692016597
 20
1164.4000000000001
 42
-0
  0
VERTEX
  8
0
 10
787.39393692016597
 20
1177.4000000000001
 42
-0
  0
VERTEX
  8
0
 10
728.20605926513667
 20
1177.4000000000001
 42
0
  0
VERTEX
  8
0
 10
728.20605926513667
 20
1164.4000000000001
 42
0
  0
VERTEX
  8
0
 10
728.20605926513667
 20
1151.4000000000001
 42
0
  0
VERTEX
  8
0
 10
787.39393692016597
 20
1151.4000000000001
 42
0
  0
SEQEND
  0
POLYLINE
  8
0
 10
0
 20
0
 39
0
 70
1
 66
1
  0
VERTEX
  8
0
 10
1318.0666666666666
 20
1139.4000000000001
 42
-0
  0
VERTEX
  8
0
 10
1218.0666666666666
 20
1139.4000000000001
 42
0
  0
VERTEX
  8
0
 10
1218.0666666666666
 20
1189.4000000000001
 42
0
  0
VERTEX
  8
0
 10
1318.0666666666666
 20
1189.4000000000001
 42
0
  0
SEQEND
  0
POLYLINE
  8
0
 10
0
 20
0
 39
0
 70
1
 66
1
  0
VERTEX
  8
0
 10
1297.6606035868326
 20
1164.4000000000001
 42
-0
  0
VERTEX
  8
0
 10
1297.6606035868326
 20
1177.4000000000001
 42
-0
  0
VERTEX
  8
0
 10
1238.4727259318033
 20
1177.4000000000001
 42
0
  0
VERTEX
  8
0
 10
1238.4727259318033
 20
1164.4000000000001
 42
0
  0
VERTEX
  8
0
 10
1238.4727259318033
 20
1151.4000000000001
 42
0
  0
VERTEX
  8
0
 10
1297.6606035868326
 20
1151.4000000000001
 42
0
  0
SEQEND
  0
POLYLINE
  8
0
 10
0
 20
0
 39
0
 70
1
 66
1
  0
VERTEX
  8
0
 10
1781.2666666666667
 20
1129.5333333333333
 42
-0
  0
VERTEX
  8
0
 10
1681.2666666666667
 20
1129.5333333333333
 42
0
  0
VERTEX
  8
0
 10
1681.2666666666667
 20
1179.5333333333333
 42
0
  0
VERTEX
  8
0
 10
1781.2666666666667
 20
1179.5333333333333
 42
0
  0
SEQEND
  0
POLYLINE
  8
0
 10
0
 20
0
 39
0
 70
1
 66
1
  0
VERTEX
  8
0
 10
1760.8606035868327
 20
1154.5333333333333
 42
-0
  0
VERTEX
  8
0
 10
1760.8606035868327
 20
1167.5333333333333
 42
-0
  0
VERTEX
  8
0
 10
1701.6727259318034
 20
1167.5333333333333
 42
0
  0
VERTEX
  8
0
 10
1701.6727259318034
 20
1154.5333333333333
 42
0
  0
VERTEX
  8
0
 10
1701.6727259318034
 20
1141.5333333333333
 42
0
  0
VERTEX
  8
0
 10
1760.8606035868327
 20
1141.5333333333333
 42
0
  0
SEQEND
  0
POLYLINE
  8
0
 10
0
 20
0
 39
0
 70
1
 66
1
  0
VERTEX
  8
0
 10
1866.4666666666667
 20
380.33333333333331
 42
-0
  0
VERTEX
  8
0
 10
1866.4666666666667
 20
480.33333333333331
 42
0
  0
VERTEX
  8
0
 10
1916.4666666666667
 20
480.33333333333331
 42
0
  0
VERTEX
  8
0
 10
1916.4666666666667
 20
380.33333333333331
 42
0
  0
SEQEND
  0
POLYLINE
  8
0
 10
0
 20
0
 39
0
 70
1
 66
1
  0
VERTEX
  8
0
 10
1891.4666666666667
 20
400.7393964131673
 42
-0
  0
VERTEX
  8
0
 10
1904.4666666666667
 20
400.7393964131673
 42
-0
  0
VERTEX
  8
0
 10
1904.4666666666667
 20
459.9272740681966
 42
0
  0
VERTEX
  8
0
 10
1891.4666666666667
 20
459.9272740681966
 42
0
  0
VERTEX
  8
0
 10
1878.4666666666667
 20
459.9272740681966
 42
0
  0
VERTEX
  8
0
 10
1878.4666666666667
 20
400.7393964131673
 42
0
  0
SEQEND
  0
POLYLINE
  8
0
 10
0
 20
0
 39
0
 70
1
 66
1
  0
VERTEX
  8
0
 10
1926.7333333333333
 20
380.19999999999999
 42
-0
  0
VERTEX
  8
0
 10
1926.7333333333333
 20
480.19999999999999
 42
0
  0
VERTEX
  8
0
 10
1976.7333333333333
 20
480.19999999999999
 42
0
  0
VERTEX
  8
0
 10
1976.7333333333333
 20
380.19999999999999
 42
0
  0
SEQEND
  0
POLYLINE
  8
0
 10
0
 20
0
 39
0
 70
1
 66
1
  0
VERTEX
  8
0
 10
1951.7333333333333
 20
400.60606307983397
 42
-0
  0
VERTEX
  8
0
 10
1964.7333333333333
 20
400.60606307983397
 42
-0
  0
VERTEX
  8
0
 10
1964.7333333333333
 20
459.79394073486327
 42
0
  0
VERTEX
  8
0
 10
1951.7333333333333
 20
459.79394073486327
 42
0
  0
VERTEX
  8
0
 10
1938.7333333333333
 20
459.79394073486327
 42
0
  0
VERTEX
  8
0
 10
1938.7333333333333
 20
400.60606307983397
 42
0
  0
SEQEND
  0
ENDSEC
  0
EOF
