  0
SECTION
  2
ENTITIES
  0
POLYLINE
  8
0
 10
0
 20
0
 39
0
 70
1
 66
1
  0
VERTEX
  8
0
 10
0
 20
0
 42
0
  0
VERTEX
  8
0
 10
1800
 20
0
 42
0
  0
VERTEX
  8
0
 10
1800
 20
900
 42
0
  0
VERTEX
  8
0
 10
0
 20
900
 42
0
  0
SEQEND
  0
POLYLINE
  8
0
 10
0
 20
0
 39
0
 70
1
 66
1
  0
VERTEX
  8
0
 10
419
 20
780
 42
-0
  0
VERTEX
  8
0
 10
377
 20
882
 42
-0
  0
VERTEX
  8
0
 10
100
 20
882
 42
-0
  0
VERTEX
  8
0
 10
100.00000000000001
 20
780
 42
-0
  0
SEQEND
  0
POLYLINE
  8
0
 10
0
 20
0
 39
0
 70
1
 66
1
  0
VERTEX
  8
0
 10
169
 20
844
 42
-1
  0
VERTEX
  8
0
 10
169
 20
818
 42
-1
  0
SEQEND
  0
POLYLINE
  8
0
 10
0
 20
0
 39
0
 70
1
 66
1
  0
VERTEX
  8
0
 10
224
 20
329
 42
-0
  0
VERTEX
  8
0
 10
122
 20
287
 42
-0
  0
VERTEX
  8
0
 10
122
 20
10
 42
-0
  0
VERTEX
  8
0
 10
224
 20
10
 42
-0
  0
SEQEND
  0
POLYLINE
  8
0
 10
0
 20
0
 39
0
 70
1
 66
1
  0
VERTEX
  8
0
 10
160
 20
79
 42
-1
  0
VERTEX
  8
0
 10
186
 20
79
 42
-1
  0
SEQEND
  0
POLYLINE
  8
0
 10
0
 20
0
 39
0
 70
1
 66
1
  0
VERTEX
  8
0
 10
336
 20
329
 42
-0
  0
VERTEX
  8
0
 10
234
 20
287
 42
-0
  0
VERTEX
  8
0
 10
234
 20
10
 42
-0
  0
VERTEX
  8
0
 10
336
 20
10
 42
-0
  0
SEQEND
  0
POLYLINE
  8
0
 10
0
 20
0
 39
0
 70
1
 66
1
  0
VERTEX
  8
0
 10
272
 20
79
 42
-1
  0
VERTEX
  8
0
 10
298
 20
79
 42
-1
  0
SEQEND
  0
POLYLINE
  8
0
 10
0
 20
0
 39
0
 70
1
 66
1
  0
VERTEX
  8
0
 10
838
 20
785
 42
0
  0
VERTEX
  8
0
 10
984.91999816894531
 20
785
 42
0
  0
VERTEX
  8
0
 10
984.91999816894531
 20
865
 42
0
  0
VERTEX
  8
0
 10
838
 20
865
 42
0
  0
SEQEND
  0
POLYLINE
  8
0
 10
0
 20
0
 39
0
 70
1
 66
1
  0
VERTEX
  8
0
 10
886.45999908447266
 20
825
 42
-1
  0
VERTEX
  8
0
 10
936.45999908447266
 20
825
 42
-1
  0
SEQEND
  0
POLYLINE
  8
0
 10
0
 20
0
 39
0
 70
1
 66
1
  0
VERTEX
  8
0
 10
672
 20
329
 42
-0
  0
VERTEX
  8
0
 10
570
 20
287
 42
-0
  0
VERTEX
  8
0
 10
570
 20
10
 42
-0
  0
VERTEX
  8
0
 10
672
 20
10
 42
-0
  0
SEQEND
  0
POLYLINE
  8
0
 10
0
 20
0
 39
0
 70
1
 66
1
  0
VERTEX
  8
0
 10
608
 20
79
 42
-1
  0
VERTEX
  8
0
 10
634
 20
79
 42
-1
  0
SEQEND
  0
POLYLINE
  8
0
 10
0
 20
0
 39
0
 70
1
 66
1
  0
VERTEX
  8
0
 10
448
 20
658
 42
-0
  0
VERTEX
  8
0
 10
346
 20
616
 42
-0
  0
VERTEX
  8
0
 10
346
 20
339
 42
-0
  0
VERTEX
  8
0
 10
448
 20
339
 42
-0
  0
SEQEND
  0
POLYLINE
  8
0
 10
0
 20
0
 39
0
 70
1
 66
1
  0
VERTEX
  8
0
 10
384
 20
408
 42
-1
  0
VERTEX
  8
0
 10
410
 20
408
 42
-1
  0
SEQEND
  0
POLYLINE
  8
0
 10
0
 20
0
 39
0
 70
1
 66
1
  0
VERTEX
  8
0
 10
896
 20
329
 42
-0
  0
VERTEX
  8
0
 10
794
 20
287
 42
-0
  0
VERTEX
  8
0
 10
794
 20
10
 42
-0
  0
VERTEX
  8
0
 10
896
 20
10
 42
-0
  0
SEQEND
  0
POLYLINE
  8
0
 10
0
 20
0
 39
0
 70
1
 66
1
  0
VERTEX
  8
0
 10
832
 20
79
 42
-1
  0
VERTEX
  8
0
 10
858
 20
79
 42
-1
  0
SEQEND
  0
POLYLINE
  8
0
 10
0
 20
0
 39
0
 70
1
 66
1
  0
VERTEX
  8
0
 10
672
 20
658
 42
-0
  0
VERTEX
  8
0
 10
570
 20
616
 42
-0
  0
VERTEX
  8
0
 10
570
 20
339
 42
-0
  0
VERTEX
  8
0
 10
672
 20
339
 42
-0
  0
SEQEND
  0
POLYLINE
  8
0
 10
0
 20
0
 39
0
 70
1
 66
1
  0
VERTEX
  8
0
 10
608
 20
408
 42
-1
  0
VERTEX
  8
0
 10
634
 20
408
 42
-1
  0
SEQEND
  0
POLYLINE
  8
0
 10
0
 20
0
 39
0
 70
1
 66
1
  0
VERTEX
  8
0
 10
1701
 20
313.83999633789062
 42
0
  0
VERTEX
  8
0
 10
1701
 20
166.91999816894531
 42
0
  0
VERTEX
  8
0
 10
1781
 20
166.91999816894531
 42
0
  0
VERTEX
  8
0
 10
1781
 20
313.83999633789062
 42
0
  0
SEQEND
  0
POLYLINE
  8
0
 10
0
 20
0
 39
0
 70
1
 66
1
  0
VERTEX
  8
0
 10
1741
 20
265.37999725341797
 42
-1
  0
VERTEX
  8
0
 10
1741
 20
215.37999725341797
 42
-1
  0
SEQEND
  0
POLYLINE
  8
0
 10
0
 20
0
 39
0
 70
1
 66
1
  0
VERTEX
  8
0
 10
112
 20
329
 42
-0
  0
VERTEX
  8
0
 10
10
 20
287
 42
-0
  0
VERTEX
  8
0
 10
10
 20
10
 42
-0
  0
VERTEX
  8
0
 10
112
 20
10
 42
-0
  0
SEQEND
  0
POLYLINE
  8
0
 10
0
 20
0
 39
0
 70
1
 66
1
  0
VERTEX
  8
0
 10
48
 20
79
 42
-1
  0
VERTEX
  8
0
 10
74
 20
79
 42
-1
  0
SEQEND
  0
POLYLINE
  8
0
 10
0
 20
0
 39
0
 70
1
 66
1
  0
VERTEX
  8
0
 10
560
 20
329
 42
-0
  0
VERTEX
  8
0
 10
458
 20
287
 42
-0
  0
VERTEX
  8
0
 10
458
 20
10
 42
-0
  0
VERTEX
  8
0
 10
560
 20
10
 42
-0
  0
SEQEND
  0
POLYLINE
  8
0
 10
0
 20
0
 39
0
 70
1
 66
1
  0
VERTEX
  8
0
 10
496
 20
79
 42
-1
  0
VERTEX
  8
0
 10
522
 20
79
 42
-1
  0
SEQEND
  0
POLYLINE
  8
0
 10
0
 20
0
 39
0
 70
1
 66
1
  0
VERTEX
  8
0
 10
784
 20
658
 42
-0
  0
VERTEX
  8
0
 10
682
 20
616
 42
-0
  0
VERTEX
  8
0
 10
682
 20
339
 42
-0
  0
VERTEX
  8
0
 10
784
 20
339
 42
-0
  0
SEQEND
  0
POLYLINE
  8
0
 10
0
 20
0
 39
0
 70
1
 66
1
  0
VERTEX
  8
0
 10
720
 20
408
 42
-1
  0
VERTEX
  8
0
 10
746
 20
408
 42
-1
  0
SEQEND
  0
POLYLINE
  8
0
 10
0
 20
0
 39
0
 70
1
 66
1
  0
VERTEX
  8
0
 10
1701
 20
156.91999816894531
 42
0
  0
VERTEX
  8
0
 10
1701
 20
10
 42
0
  0
VERTEX
  8
0
 10
1781
 20
10
 42
0
  0
VERTEX
  8
0
 10
1781
 20
156.91999816894531
 42
0
  0
SEQEND
  0
POLYLINE
  8
0
 10
0
 20
0
 39
0
 70
1
 66
1
  0
VERTEX
  8
0
 10
1741
 20
108.45999908447266
 42
-1
  0
VERTEX
  8
0
 10
1741
 20
58.459999084472656
 42
-1
  0
SEQEND
  0
POLYLINE
  8
0
 10
0
 20
0
 39
0
 70
1
 66
1
  0
VERTEX
  8
0
 10
896
 20
658
 42
-0
  0
VERTEX
  8
0
 10
794
 20
616
 42
-0
  0
VERTEX
  8
0
 10
794
 20
339
 42
-0
  0
VERTEX
  8
0
 10
896
 20
339
 42
-0
  0
SEQEND
  0
POLYLINE
  8
0
 10
0
 20
0
 39
0
 70
1
 66
1
  0
VERTEX
  8
0
 10
832
 20
408
 42
-1
  0
VERTEX
  8
0
 10
858
 20
408
 42
-1
  0
SEQEND
  0
POLYLINE
  8
0
 10
0
 20
0
 39
0
 70
1
 66
1
  0
VERTEX
  8
0
 10
560
 20
658
 42
-0
  0
VERTEX
  8
0
 10
458
 20
616
 42
-0
  0
VERTEX
  8
0
 10
458
 20
339
 42
-0
  0
VERTEX
  8
0
 10
560
 20
339
 42
-0
  0
SEQEND
  0
POLYLINE
  8
0
 10
0
 20
0
 39
0
 70
1
 66
1
  0
VERTEX
  8
0
 10
496
 20
408
 42
-1
  0
VERTEX
  8
0
 10
522
 20
408
 42
-1
  0
SEQEND
  0
POLYLINE
  8
0
 10
0
 20
0
 39
0
 70
1
 66
1
  0
VERTEX
  8
0
 10
112
 20
658
 42
-0
  0
VERTEX
  8
0
 10
10
 20
616
 42
-0
  0
VERTEX
  8
0
 10
10
 20
339
 42
-0
  0
VERTEX
  8
0
 10
112
 20
339
 42
-0
  0
SEQEND
  0
POLYLINE
  8
0
 10
0
 20
0
 39
0
 70
1
 66
1
  0
VERTEX
  8
0
 10
48
 20
408
 42
-1
  0
VERTEX
  8
0
 10
74
 20
408
 42
-1
  0
SEQEND
  0
POLYLINE
  8
0
 10
0
 20
0
 39
0
 70
1
 66
1
  0
VERTEX
  8
0
 10
224
 20
658
 42
-0
  0
VERTEX
  8
0
 10
122
 20
616
 42
-0
  0
VERTEX
  8
0
 10
122
 20
339
 42
-0
  0
VERTEX
  8
0
 10
224
 20
339
 42
-0
  0
SEQEND
  0
POLYLINE
  8
0
 10
0
 20
0
 39
0
 70
1
 66
1
  0
VERTEX
  8
0
 10
160
 20
408
 42
-1
  0
VERTEX
  8
0
 10
186
 20
408
 42
-1
  0
SEQEND
  0
POLYLINE
  8
0
 10
0
 20
0
 39
0
 70
1
 66
1
  0
VERTEX
  8
0
 10
828
 20
780
 42
-0
  0
VERTEX
  8
0
 10
786
 20
882
 42
-0
  0
VERTEX
  8
0
 10
509
 20
882
 42
-0
  0
VERTEX
  8
0
 10
509
 20
780
 42
-0
  0
SEQEND
  0
POLYLINE
  8
0
 10
0
 20
0
 39
0
 70
1
 66
1
  0
VERTEX
  8
0
 10
578
 20
844
 42
-1
  0
VERTEX
  8
0
 10
578
 20
818
 42
-1
  0
SEQEND
  0
POLYLINE
  8
0
 10
0
 20
0
 39
0
 70
1
 66
1
  0
VERTEX
  8
0
 10
336
 20
658
 42
-0
  0
VERTEX
  8
0
 10
234
 20
616
 42
-0
  0
VERTEX
  8
0
 10
234
 20
339
 42
-0
  0
VERTEX
  8
0
 10
336
 20
339
 42
-0
  0
SEQEND
  0
POLYLINE
  8
0
 10
0
 20
0
 39
0
 70
1
 66
1
  0
VERTEX
  8
0
 10
272
 20
408
 42
-1
  0
VERTEX
  8
0
 10
298
 20
408
 42
-1
  0
SEQEND
  0
POLYLINE
  8
0
 10
0
 20
0
 39
0
 70
1
 66
1
  0
VERTEX
  8
0
 10
1554.9199981689453
 20
800
 42
0
  0
VERTEX
  8
0
 10
1701.8399963378906
 20
800
 42
0
  0
VERTEX
  8
0
 10
1701.8399963378906
 20
880
 42
0
  0
VERTEX
  8
0
 10
1554.9199981689453
 20
880
 42
0
  0
SEQEND
  0
POLYLINE
  8
0
 10
0
 20
0
 39
0
 70
1
 66
1
  0
VERTEX
  8
0
 10
1603.379997253418
 20
840
 42
-1
  0
VERTEX
  8
0
 10
1653.379997253418
 20
840
 42
-1
  0
SEQEND
  0
POLYLINE
  8
0
 10
0
 20
0
 39
0
 70
1
 66
1
  0
VERTEX
  8
0
 10
448
 20
329
 42
-0
  0
VERTEX
  8
0
 10
346
 20
287
 42
-0
  0
VERTEX
  8
0
 10
346
 20
10
 42
-0
  0
VERTEX
  8
0
 10
448
 20
10
 42
-0
  0
SEQEND
  0
POLYLINE
  8
0
 10
0
 20
0
 39
0
 70
1
 66
1
  0
VERTEX
  8
0
 10
384
 20
79
 42
-1
  0
VERTEX
  8
0
 10
410
 20
79
 42
-1
  0
SEQEND
  0
POLYLINE
  8
0
 10
0
 20
0
 39
0
 70
1
 66
1
  0
VERTEX
  8
0
 10
419
 20
668
 42
-0
  0
VERTEX
  8
0
 10
377
 20
770
 42
-0
  0
VERTEX
  8
0
 10
100
 20
770
 42
-0
  0
VERTEX
  8
0
 10
100.00000000000001
 20
668
 42
-0
  0
SEQEND
  0
POLYLINE
  8
0
 10
0
 20
0
 39
0
 70
1
 66
1
  0
VERTEX
  8
0
 10
169
 20
732
 42
-1
  0
VERTEX
  8
0
 10
169
 20
706
 42
-1
  0
SEQEND
  0
POLYLINE
  8
0
 10
0
 20
0
 39
0
 70
1
 66
1
  0
VERTEX
  8
0
 10
784
 20
329
 42
-0
  0
VERTEX
  8
0
 10
682
 20
287
 42
-0
  0
VERTEX
  8
0
 10
682
 20
10
 42
-0
  0
VERTEX
  8
0
 10
784
 20
10
 42
-0
  0
SEQEND
  0
POLYLINE
  8
0
 10
0
 20
0
 39
0
 70
1
 66
1
  0
VERTEX
  8
0
 10
720
 20
79
 42
-1
  0
VERTEX
  8
0
 10
746
 20
79
 42
-1
  0
SEQEND
  0
POLYLINE
  8
0
 10
0
 20
0
 39
0
 70
1
 66
1
  0
VERTEX
  8
0
 10
828
 20
668
 42
-0
  0
VERTEX
  8
0
 10
786
 20
770
 42
-0
  0
VERTEX
  8
0
 10
509
 20
770
 42
-0
  0
VERTEX
  8
0
 10
509
 20
668
 42
-0
  0
SEQEND
  0
POLYLINE
  8
0
 10
0
 20
0
 39
0
 70
1
 66
1
  0
VERTEX
  8
0
 10
578
 20
732
 42
-1
  0
VERTEX
  8
0
 10
578
 20
706
 42
-1
  0
SEQEND
  0
POLYLINE
  8
0
 10
0
 20
0
 39
0
 70
1
 66
1
  0
VERTEX
  8
0
 10
1716
 20
683.83999633789062
 42
0
  0
VERTEX
  8
0
 10
1716
 20
508.83999633789062
 42
-0
  0
VERTEX
  8
0
 10
1774.1342697143555
 20
508.83999633789062
 42
-0
  0
VERTEX
  8
0
 10
1786
 20
519.77767944335937
 42
-0
  0
VERTEX
  8
0
 10
1786
 20
672.90231132507324
 42
0
  0
VERTEX
  8
0
 10
1774.1342697143555
 20
683.83999633789062
 42
-0
  0
SEQEND
  0
POLYLINE
  8
0
 10
0
 20
0
 39
0
 70
1
 66
1
  0
VERTEX
  8
0
 10
1751
 20
675.08101367950439
 42
-1
  0
VERTEX
  8
0
 10
1751
 20
643.08101272583008
 42
-1
  0
SEQEND
  0
POLYLINE
  8
0
 10
0
 20
0
 39
0
 70
1
 66
1
  0
VERTEX
  8
0
 10
1701
 20
498.83999633789062
 42
0
  0
VERTEX
  8
0
 10
1701
 20
323.83999633789062
 42
-0
  0
VERTEX
  8
0
 10
1759.1342697143555
 20
323.83999633789062
 42
-0
  0
VERTEX
  8
0
 10
1771
 20
334.77767944335937
 42
-0
  0
VERTEX
  8
0
 10
1771
 20
487.90231132507324
 42
0
  0
VERTEX
  8
0
 10
1759.1342697143555
 20
498.83999633789062
 42
-0
  0
SEQEND
  0
POLYLINE
  8
0
 10
0
 20
0
 39
0
 70
1
 66
1
  0
VERTEX
  8
0
 10
1736
 20
490.08101367950439
 42
-1
  0
VERTEX
  8
0
 10
1736
 20
458.08101272583008
 42
-1
  0
SEQEND
  0
POLYLINE
  8
0
 10
0
 20
0
 39
0
 70
1
 66
1
  0
VERTEX
  8
0
 10
1516
 20
790
 42
0
  0
VERTEX
  8
0
 10
1516
 20
520
 42
-0
  0
VERTEX
  8
0
 10
1527.0727872848511
 20
520
 42
-1
  0
VERTEX
  8
0
 10
1559.0727882385254
 20
520
 42
-0
  0
VERTEX
  8
0
 10
1570.1455726623535
 20
520
 42
0.21420902013778687
  0
VERTEX
  8
0
 10
1606
 20
552.4156494140625
 42
-0
  0
VERTEX
  8
0
 10
1606
 20
790
 42
-0
  0
SEQEND
  0
POLYLINE
  8
0
 10
0
 20
0
 39
0
 70
1
 66
1
  0
VERTEX
  8
0
 10
1561
 20
719.57688903808594
 42
-1
  0
VERTEX
  8
0
 10
1561
 20
679.57688903808594
 42
-1
  0
SEQEND
  0
POLYLINE
  8
0
 10
0
 20
0
 39
0
 70
1
 66
1
  0
VERTEX
  8
0
 10
1616
 20
790
 42
0
  0
VERTEX
  8
0
 10
1616
 20
520
 42
-0
  0
VERTEX
  8
0
 10
1627.0727872848511
 20
520
 42
-1
  0
VERTEX
  8
0
 10
1659.0727882385254
 20
520
 42
-0
  0
VERTEX
  8
0
 10
1670.1455726623535
 20
520
 42
0.21420902013778687
  0
VERTEX
  8
0
 10
1706
 20
552.4156494140625
 42
-0
  0
VERTEX
  8
0
 10
1706
 20
790
 42
-0
  0
SEQEND
  0
POLYLINE
  8
0
 10
0
 20
0
 39
0
 70
1
 66
1
  0
VERTEX
  8
0
 10
1661
 20
719.57688903808594
 42
-1
  0
VERTEX
  8
0
 10
1661
 20
679.57688903808594
 42
-1
  0
SEQEND
  0
POLYLINE
  8
0
 10
0
 20
0
 39
0
 70
1
 66
1
  0
VERTEX
  8
0
 10
1716
 20
868.83999633789062
 42
0
  0
VERTEX
  8
0
 10
1716
 20
693.83999633789062
 42
-0
  0
VERTEX
  8
0
 10
1774.1342697143555
 20
693.83999633789062
 42
-0
  0
VERTEX
  8
0
 10
1786
 20
704.77767944335937
 42
-0
  0
VERTEX
  8
0
 10
1786
 20
857.90231132507324
 42
0
  0
VERTEX
  8
0
 10
1774.1342697143555
 20
868.83999633789062
 42
-0
  0
SEQEND
  0
POLYLINE
  8
0
 10
0
 20
0
 39
0
 70
1
 66
1
  0
VERTEX
  8
0
 10
1751
 20
860.08101367950439
 42
-1
  0
VERTEX
  8
0
 10
1751
 20
828.08101272583008
 42
-1
  0
SEQEND
  0
POLYLINE
  8
0
 10
0
 20
0
 39
0
 70
1
 66
1
  0
VERTEX
  8
0
 10
1274.9199981689453
 20
800
 42
0
  0
VERTEX
  8
0
 10
1544.9199981689453
 20
800
 42
-0
  0
VERTEX
  8
0
 10
1544.9199981689453
 20
811.07278728485107
 42
-1
  0
VERTEX
  8
0
 10
1544.9199981689453
 20
843.07278823852539
 42
-0
  0
VERTEX
  8
0
 10
1544.9199981689453
 20
854.14557266235352
 42
0.21420902013778687
  0
VERTEX
  8
0
 10
1512.5043487548828
 20
890
 42
-0
  0
VERTEX
  8
0
 10
1274.9199981689453
 20
890
 42
-0
  0
SEQEND
  0
POLYLINE
  8
0
 10
0
 20
0
 39
0
 70
1
 66
1
  0
VERTEX
  8
0
 10
1345.3431091308594
 20
845
 42
-1
  0
VERTEX
  8
0
 10
1385.3431091308594
 20
845
 42
-1
  0
SEQEND
  0
POLYLINE
  8
0
 10
0
 20
0
 39
0
 70
1
 66
1
  0
VERTEX
  8
0
 10
1416
 20
790
 42
0
  0
VERTEX
  8
0
 10
1416
 20
520
 42
-0
  0
VERTEX
  8
0
 10
1427.0727872848511
 20
520
 42
-1
  0
VERTEX
  8
0
 10
1459.0727882385254
 20
520
 42
-0
  0
VERTEX
  8
0
 10
1470.1455726623535
 20
520
 42
0.21420902013778687
  0
VERTEX
  8
0
 10
1506
 20
552.4156494140625
 42
-0
  0
VERTEX
  8
0
 10
1506
 20
790
 42
-0
  0
SEQEND
  0
POLYLINE
  8
0
 10
0
 20
0
 39
0
 70
1
 66
1
  0
VERTEX
  8
0
 10
1461
 20
719.57688903808594
 42
-1
  0
VERTEX
  8
0
 10
1461
 20
679.57688903808594
 42
-1
  0
SEQEND
  0
POLYLINE
  8
0
 10
0
 20
0
 39
0
 70
1
 66
1
  0
VERTEX
  8
0
 10
994.91999816894531
 20
785
 42
0
  0
VERTEX
  8
0
 10
1264.9199981689453
 20
785
 42
-0
  0
VERTEX
  8
0
 10
1264.9199981689453
 20
796.07278728485107
 42
-1
  0
VERTEX
  8
0
 10
1264.9199981689453
 20
828.07278823852539
 42
-0
  0
VERTEX
  8
0
 10
1264.9199981689453
 20
839.14557266235352
 42
0.21420902013778687
  0
VERTEX
  8
0
 10
1232.5043487548828
 20
875
 42
-0
  0
VERTEX
  8
0
 10
994.91999816894531
 20
875
 42
-0
  0
SEQEND
  0
POLYLINE
  8
0
 10
0
 20
0
 39
0
 70
1
 66
1
  0
VERTEX
  8
0
 10
1065.3431091308594
 20
830
 42
-1
  0
VERTEX
  8
0
 10
1105.3431091308594
 20
830
 42
-1
  0
SEQEND
  0
POLYLINE
  8
0
 10
0
 20
0
 39
0
 70
1
 66
1
  0
VERTEX
  8
0
 10
10
 20
814.91999816894531
 42
0
  0
VERTEX
  8
0
 10
10.000000000000009
 20
668
 42
0
  0
VERTEX
  8
0
 10
90.000000000000014
 20
668
 42
0
  0
VERTEX
  8
0
 10
90
 20
814.91999816894531
 42
0
  0
SEQEND
  0
POLYLINE
  8
0
 10
0
 20
0
 39
0
 70
1
 66
1
  0
VERTEX
  8
0
 10
50
 20
766.45999908447266
 42
-1
  0
VERTEX
  8
0
 10
50.000000000000007
 20
716.45999908447266
 42
-1
  0
SEQEND
  0
POLYLINE
  8
0
 10
0
 20
0
 39
0
 70
1
 66
1
  0
VERTEX
  8
0
 10
429
 20
843
 42
0
  0
VERTEX
  8
0
 10
429
 20
668
 42
-0
  0
VERTEX
  8
0
 10
487.13426971435547
 20
668
 42
-0
  0
VERTEX
  8
0
 10
499
 20
678.93768310546875
 42
-0
  0
VERTEX
  8
0
 10
499
 20
832.06231498718262
 42
0
  0
VERTEX
  8
0
 10
487.13426971435547
 20
843
 42
-0
  0
SEQEND
  0
POLYLINE
  8
0
 10
0
 20
0
 39
0
 70
1
 66
1
  0
VERTEX
  8
0
 10
464
 20
834.24101734161377
 42
-1
  0
VERTEX
  8
0
 10
464
 20
802.24101638793945
 42
-1
  0
SEQEND
  0
POLYLINE
  8
0
 10
0
 20
0
 39
0
 70
1
 66
1
  0
VERTEX
  8
0
 10
1436
 20
510
 42
0
  0
VERTEX
  8
0
 10
1436
 20
10
 42
0
  0
VERTEX
  8
0
 10
1691
 20
10
 42
0
  0
VERTEX
  8
0
 10
1691
 20
163.50787353515625
 42
0
  0
VERTEX
  8
0
 10
1634.4447174072266
 20
190.87332153320312
 42
-0
  0
VERTEX
  8
0
 10
1634.4447174072266
 20
329.12667846679688
 42
-0
  0
VERTEX
  8
0
 10
1691
 20
356.49212646484375
 42
0
  0
VERTEX
  8
0
 10
1691
 20
510
 42
-0
  0
SEQEND
  0
POLYLINE
  8
0
 10
0
 20
0
 39
0
 70
1
 66
1
  0
VERTEX
  8
0
 10
1563.5
 20
459.23391342163086
 42
-1
  0
VERTEX
  8
0
 10
1563.5
 20
354.38713073730469
 42
-1
  0
SEQEND
  0
POLYLINE
  8
0
 10
0
 20
0
 39
0
 70
1
 66
1
  0
VERTEX
  8
0
 10
906
 20
510
 42
0
  0
VERTEX
  8
0
 10
906
 20
10
 42
0
  0
VERTEX
  8
0
 10
1161
 20
10
 42
0
  0
VERTEX
  8
0
 10
1161
 20
163.50787353515625
 42
0
  0
VERTEX
  8
0
 10
1104.4447174072266
 20
190.87332153320312
 42
-0
  0
VERTEX
  8
0
 10
1104.4447174072266
 20
329.12667846679688
 42
-0
  0
VERTEX
  8
0
 10
1161
 20
356.49212646484375
 42
0
  0
VERTEX
  8
0
 10
1161
 20
510
 42
-0
  0
SEQEND
  0
POLYLINE
  8
0
 10
0
 20
0
 39
0
 70
1
 66
1
  0
VERTEX
  8
0
 10
1033.5
 20
459.23391342163086
 42
-1
  0
VERTEX
  8
0
 10
1033.5
 20
354.38713073730469
 42
-1
  0
SEQEND
  0
POLYLINE
  8
0
 10
0
 20
0
 39
0
 70
1
 66
1
  0
VERTEX
  8
0
 10
1171
 20
510
 42
0
  0
VERTEX
  8
0
 10
1171
 20
10
 42
0
  0
VERTEX
  8
0
 10
1426
 20
10
 42
0
  0
VERTEX
  8
0
 10
1426
 20
163.50787353515625
 42
0
  0
VERTEX
  8
0
 10
1369.4447174072266
 20
190.87332153320312
 42
-0
  0
VERTEX
  8
0
 10
1369.4447174072266
 20
329.12667846679688
 42
-0
  0
VERTEX
  8
0
 10
1426
 20
356.49212646484375
 42
0
  0
VERTEX
  8
0
 10
1426
 20
510
 42
-0
  0
SEQEND
  0
POLYLINE
  8
0
 10
0
 20
0
 39
0
 70
1
 66
1
  0
VERTEX
  8
0
 10
1298.5
 20
459.23391342163086
 42
-1
  0
VERTEX
  8
0
 10
1298.5
 20
354.38713073730469
 42
-1
  0
SEQEND
  0
POLYLINE
  8
0
 10
0
 20
0
 39
0
 70
1
 66
1
  0
VERTEX
  8
0
 10
906
 20
520
 42
0
  0
VERTEX
  8
0
 10
1406
 20
520
 42
0
  0
VERTEX
  8
0
 10
1406
 20
775
 42
0
  0
VERTEX
  8
0
 10
1252.4921264648437
 20
775
 42
0
  0
VERTEX
  8
0
 10
1225.1266784667969
 20
718.44471740722656
 42
-0
  0
VERTEX
  8
0
 10
1086.8733215332031
 20
718.44471740722656
 42
-0
  0
VERTEX
  8
0
 10
1059.5078735351562
 20
775
 42
0
  0
VERTEX
  8
0
 10
906
 20
775
 42
-0
  0
SEQEND
  0
POLYLINE
  8
0
 10
0
 20
0
 39
0
 70
1
 66
1
  0
VERTEX
  8
0
 10
956.76608657836914
 20
647.5
 42
-1
  0
VERTEX
  8
0
 10
1061.6128692626953
 20
647.5
 42
-1
  0
SEQEND
  0
ENDSEC
  0
EOF
