  0
SECTION
  2
ENTITIES
  0
POLYLINE
  8
0
 10
0
 20
0
 39
0
 70
1
 66
1
  0
VERTEX
  8
0
 10
0
 20
0
 42
0
  0
VERTEX
  8
0
 10
2800
 20
0
 42
0
  0
VERTEX
  8
0
 10
2800
 20
1200
 42
0
  0
VERTEX
  8
0
 10
0
 20
1200
 42
0
  0
SEQEND
  0
POLYLINE
  8
0
 10
0
 20
0
 39
0
 70
1
 66
1
  0
VERTEX
  8
0
 10
1851.9999466187403
 20
10.000007629394517
 42
-0
  0
VERTEX
  8
0
 10
1955.8348160035059
 20
10
 42
0.11932211369276047
  0
VERTEX
  8
0
 10
1955.8348160035059
 20
210.00001525878906
 42
0
  0
VERTEX
  8
0
 10
1851.9999466187403
 20
210
 42
-0.1576707661151886
  0
SEQEND
  0
POLYLINE
  8
0
 10
0
 20
0
 39
0
 70
1
 66
1
  0
VERTEX
  8
0
 10
1944.7670364624903
 20
99
 42
0
  0
VERTEX
  8
0
 10
1934.7670364624903
 20
99
 42
-1
  0
VERTEX
  8
0
 10
1934.7670364624903
 20
121
 42
-0
  0
VERTEX
  8
0
 10
1944.7670364624903
 20
121
 42
-1
  0
SEQEND
  0
POLYLINE
  8
0
 10
0
 20
0
 39
0
 70
1
 66
1
  0
VERTEX
  8
0
 10
1423.9999668908715
 20
10
 42
0.61160182952880859
  0
VERTEX
  8
0
 10
1480.7743351770043
 20
120.94715881347656
 42
-0
  0
VERTEX
  8
0
 10
1329.9999668908715
 20
330
 42
0
  0
VERTEX
  8
0
 10
1329.9999668908715
 20
10
 42
0
  0
SEQEND
  0
POLYLINE
  8
0
 10
0
 20
0
 39
0
 70
1
 66
1
  0
VERTEX
  8
0
 10
1423.9999668908715
 20
98.5
 42
-1
  0
VERTEX
  8
0
 10
1423.9999668908715
 20
61.5
 42
-1
  0
SEQEND
  0
POLYLINE
  8
0
 10
0
 20
0
 39
0
 70
1
 66
1
  0
VERTEX
  8
0
 10
1399.9999600761696
 20
440.18700000000001
 42
0.61160182952880859
  0
VERTEX
  8
0
 10
1343.2255917900368
 20
329.23984118652345
 42
-0
  0
VERTEX
  8
0
 10
1493.9999600761696
 20
120.18700000000001
 42
0
  0
VERTEX
  8
0
 10
1493.9999600761696
 20
440.18700000000001
 42
0
  0
SEQEND
  0
POLYLINE
  8
0
 10
0
 20
0
 39
0
 70
1
 66
1
  0
VERTEX
  8
0
 10
1399.9999600761696
 20
351.68700000000001
 42
-1
  0
VERTEX
  8
0
 10
1399.9999600761696
 20
388.68700000000001
 42
-1
  0
SEQEND
  0
POLYLINE
  8
0
 10
0
 20
0
 39
0
 70
1
 66
1
  0
VERTEX
  8
0
 10
1771.9999533990474
 20
10
 42
0.61160182952880859
  0
VERTEX
  8
0
 10
1828.7743216851802
 20
120.94715881347656
 42
-0
  0
VERTEX
  8
0
 10
1677.9999533990474
 20
330
 42
0
  0
VERTEX
  8
0
 10
1677.9999533990474
 20
10
 42
0
  0
SEQEND
  0
POLYLINE
  8
0
 10
0
 20
0
 39
0
 70
1
 66
1
  0
VERTEX
  8
0
 10
1771.9999533990474
 20
98.5
 42
-1
  0
VERTEX
  8
0
 10
1771.9999533990474
 20
61.5
 42
-1
  0
SEQEND
  0
POLYLINE
  8
0
 10
0
 20
0
 39
0
 70
1
 66
1
  0
VERTEX
  8
0
 10
1747.9999465843455
 20
440.18700000000001
 42
0.61160182952880859
  0
VERTEX
  8
0
 10
1691.2255782982127
 20
329.23984118652345
 42
-0
  0
VERTEX
  8
0
 10
1841.9999465843455
 20
120.18700000000001
 42
0
  0
VERTEX
  8
0
 10
1841.9999465843455
 20
440.18700000000001
 42
0
  0
SEQEND
  0
POLYLINE
  8
0
 10
0
 20
0
 39
0
 70
1
 66
1
  0
VERTEX
  8
0
 10
1747.9999465843455
 20
351.68700000000001
 42
-1
  0
VERTEX
  8
0
 10
1747.9999465843455
 20
388.68700000000001
 42
-1
  0
SEQEND
  0
POLYLINE
  8
0
 10
0
 20
0
 39
0
 70
1
 66
1
  0
VERTEX
  8
0
 10
2071.7670283175325
 20
10
 42
0.61160182952880859
  0
VERTEX
  8
0
 10
2128.5413966036654
 20
120.94715881347656
 42
-0
  0
VERTEX
  8
0
 10
1977.7670283175325
 20
330
 42
0
  0
VERTEX
  8
0
 10
1977.7670283175325
 20
10
 42
0
  0
SEQEND
  0
POLYLINE
  8
0
 10
0
 20
0
 39
0
 70
1
 66
1
  0
VERTEX
  8
0
 10
2071.7670283175325
 20
98.5
 42
-1
  0
VERTEX
  8
0
 10
2071.7670283175325
 20
61.5
 42
-1
  0
SEQEND
  0
POLYLINE
  8
0
 10
0
 20
0
 39
0
 70
1
 66
1
  0
VERTEX
  8
0
 10
2047.7670215028306
 20
440.18700000000001
 42
0.61160182952880859
  0
VERTEX
  8
0
 10
1990.9926532166978
 20
329.23984118652345
 42
-0
  0
VERTEX
  8
0
 10
2141.7670215028306
 20
120.18700000000001
 42
0
  0
VERTEX
  8
0
 10
2141.7670215028306
 20
440.18700000000001
 42
0
  0
SEQEND
  0
POLYLINE
  8
0
 10
0
 20
0
 39
0
 70
1
 66
1
  0
VERTEX
  8
0
 10
2047.7670215028306
 20
351.68700000000001
 42
-1
  0
VERTEX
  8
0
 10
2047.7670215028306
 20
388.68700000000001
 42
-1
  0
SEQEND
  0
POLYLINE
  8
0
 10
0
 20
0
 39
0
 70
1
 66
1
  0
VERTEX
  8
0
 10
2649.0391407917509
 20
183.99999325408794
 42
0.61160182952880859
  0
VERTEX
  8
0
 10
2705.8135090778837
 20
294.9471520675645
 42
-0
  0
VERTEX
  8
0
 10
2555.0391407917509
 20
503.99999325408794
 42
0
  0
VERTEX
  8
0
 10
2555.0391407917509
 20
183.99999325408794
 42
0
  0
SEQEND
  0
POLYLINE
  8
0
 10
0
 20
0
 39
0
 70
1
 66
1
  0
VERTEX
  8
0
 10
2649.0391407917509
 20
272.49999325408794
 42
-1
  0
VERTEX
  8
0
 10
2649.0391407917509
 20
235.49999325408794
 42
-1
  0
SEQEND
  0
POLYLINE
  8
0
 10
0
 20
0
 39
0
 70
1
 66
1
  0
VERTEX
  8
0
 10
2625.039133977049
 20
614.18699325408795
 42
0.61160182952880859
  0
VERTEX
  8
0
 10
2568.2647656909162
 20
503.23983444061139
 42
-0
  0
VERTEX
  8
0
 10
2719.039133977049
 20
294.18699325408795
 42
0
  0
VERTEX
  8
0
 10
2719.039133977049
 20
614.18699325408795
 42
0
  0
SEQEND
  0
POLYLINE
  8
0
 10
0
 20
0
 39
0
 70
1
 66
1
  0
VERTEX
  8
0
 10
2625.039133977049
 20
525.68699325408795
 42
-1
  0
VERTEX
  8
0
 10
2625.039133977049
 20
562.68699325408795
 42
-1
  0
SEQEND
  0
POLYLINE
  8
0
 10
0
 20
0
 39
0
 70
1
 66
1
  0
VERTEX
  8
0
 10
1448.7793641326216
 20
720.18699545924983
 42
0.61160182952880859
  0
VERTEX
  8
0
 10
1505.5537324187544
 20
831.13415427272639
 42
-0
  0
VERTEX
  8
0
 10
1354.7793641326216
 20
1040.1869954592498
 42
0
  0
VERTEX
  8
0
 10
1354.7793641326216
 20
720.18699545924983
 42
0
  0
SEQEND
  0
POLYLINE
  8
0
 10
0
 20
0
 39
0
 70
1
 66
1
  0
VERTEX
  8
0
 10
1448.7793641326216
 20
808.68699545924983
 42
-1
  0
VERTEX
  8
0
 10
1448.7793641326216
 20
771.68699545924983
 42
-1
  0
SEQEND
  0
POLYLINE
  8
0
 10
0
 20
0
 39
0
 70
1
 66
1
  0
VERTEX
  8
0
 10
1424.7793573179197
 20
1150.3739954592497
 42
0.61160182952880859
  0
VERTEX
  8
0
 10
1368.0049890317869
 20
1039.4268366457732
 42
-0
  0
VERTEX
  8
0
 10
1518.7793573179197
 20
830.37399545924984
 42
0
  0
VERTEX
  8
0
 10
1518.7793573179197
 20
1150.3739954592497
 42
0
  0
SEQEND
  0
POLYLINE
  8
0
 10
0
 20
0
 39
0
 70
1
 66
1
  0
VERTEX
  8
0
 10
1424.7793573179197
 20
1061.8739954592497
 42
-1
  0
VERTEX
  8
0
 10
1424.7793573179197
 20
1098.8739954592497
 42
-1
  0
SEQEND
  0
POLYLINE
  8
0
 10
0
 20
0
 39
0
 70
1
 66
1
  0
VERTEX
  8
0
 10
1528.7793573523145
 20
930.18701834743342
 42
-0
  0
VERTEX
  8
0
 10
1632.6142267370801
 20
930.18701071803889
 42
0.11932211369276047
  0
VERTEX
  8
0
 10
1632.6142267370801
 20
1130.187025976828
 42
0
  0
VERTEX
  8
0
 10
1528.7793573523145
 20
1130.1870107180389
 42
-0.1576707661151886
  0
SEQEND
  0
POLYLINE
  8
0
 10
0
 20
0
 39
0
 70
1
 66
1
  0
VERTEX
  8
0
 10
1621.5464471960645
 20
1019.1870107180389
 42
0
  0
VERTEX
  8
0
 10
1611.5464471960645
 20
1019.1870107180389
 42
-1
  0
VERTEX
  8
0
 10
1611.5464471960645
 20
1041.1870107180389
 42
-0
  0
VERTEX
  8
0
 10
1621.5464471960645
 20
1041.1870107180389
 42
-1
  0
SEQEND
  0
POLYLINE
  8
0
 10
0
 20
0
 39
0
 70
1
 66
1
  0
VERTEX
  8
0
 10
2346.267602345506
 20
970.88673515693563
 42
-0
  0
VERTEX
  8
0
 10
2450.1024717302716
 20
970.8867275275411
 42
0.11932211369276047
  0
VERTEX
  8
0
 10
2450.1024717302716
 20
1170.8867427863302
 42
0
  0
VERTEX
  8
0
 10
2346.267602345506
 20
1170.8867275275411
 42
-0.1576707661151886
  0
SEQEND
  0
POLYLINE
  8
0
 10
0
 20
0
 39
0
 70
1
 66
1
  0
VERTEX
  8
0
 10
2439.034692189256
 20
1059.8867275275411
 42
0
  0
VERTEX
  8
0
 10
2429.034692189256
 20
1059.8867275275411
 42
-1
  0
VERTEX
  8
0
 10
2429.034692189256
 20
1081.8867275275411
 42
-0
  0
VERTEX
  8
0
 10
2439.034692189256
 20
1081.8867275275411
 42
-1
  0
SEQEND
  0
POLYLINE
  8
0
 10
0
 20
0
 39
0
 70
1
 66
1
  0
VERTEX
  8
0
 10
1528.7793573523145
 20
720.18700308864447
 42
-0
  0
VERTEX
  8
0
 10
1632.6142267370801
 20
720.18699545924994
 42
0.11932211369276047
  0
VERTEX
  8
0
 10
1632.6142267370801
 20
920.18701071803901
 42
0
  0
VERTEX
  8
0
 10
1528.7793573523145
 20
920.18699545924994
 42
-0.1576707661151886
  0
SEQEND
  0
POLYLINE
  8
0
 10
0
 20
0
 39
0
 70
1
 66
1
  0
VERTEX
  8
0
 10
1621.5464471960645
 20
809.18699545924994
 42
0
  0
VERTEX
  8
0
 10
1611.5464471960645
 20
809.18699545924994
 42
-1
  0
VERTEX
  8
0
 10
1611.5464471960645
 20
831.18699545924994
 42
-0
  0
VERTEX
  8
0
 10
1621.5464471960645
 20
831.18699545924994
 42
-1
  0
SEQEND
  0
POLYLINE
  8
0
 10
0
 20
0
 39
0
 70
1
 66
1
  0
VERTEX
  8
0
 10
2472.0346840099032
 20
970.88673515693563
 42
-0
  0
VERTEX
  8
0
 10
2575.8695533946689
 20
970.8867275275411
 42
0.11932211369276047
  0
VERTEX
  8
0
 10
2575.8695533946689
 20
1170.8867427863302
 42
0
  0
VERTEX
  8
0
 10
2472.0346840099032
 20
1170.8867275275411
 42
-0.1576707661151886
  0
SEQEND
  0
POLYLINE
  8
0
 10
0
 20
0
 39
0
 70
1
 66
1
  0
VERTEX
  8
0
 10
2564.8017738536532
 20
1059.8867275275411
 42
0
  0
VERTEX
  8
0
 10
2554.8017738536532
 20
1059.8867275275411
 42
-1
  0
VERTEX
  8
0
 10
2554.8017738536532
 20
1081.8867275275411
 42
-0
  0
VERTEX
  8
0
 10
2564.8017738536532
 20
1081.8867275275411
 42
-1
  0
SEQEND
  0
POLYLINE
  8
0
 10
0
 20
0
 39
0
 70
1
 66
1
  0
VERTEX
  8
0
 10
2597.8017656743004
 20
970.88673515693563
 42
-0
  0
VERTEX
  8
0
 10
2701.6366350590661
 20
970.8867275275411
 42
0.11932211369276047
  0
VERTEX
  8
0
 10
2701.6366350590661
 20
1170.8867427863302
 42
0
  0
VERTEX
  8
0
 10
2597.8017656743004
 20
1170.8867275275411
 42
-0.1576707661151886
  0
SEQEND
  0
POLYLINE
  8
0
 10
0
 20
0
 39
0
 70
1
 66
1
  0
VERTEX
  8
0
 10
2690.5688555180504
 20
1059.8867275275411
 42
0
  0
VERTEX
  8
0
 10
2680.5688555180504
 20
1059.8867275275411
 42
-1
  0
VERTEX
  8
0
 10
2680.5688555180504
 20
1081.8867275275411
 42
-0
  0
VERTEX
  8
0
 10
2690.5688555180504
 20
1081.8867275275411
 42
-1
  0
SEQEND
  0
POLYLINE
  8
0
 10
0
 20
0
 39
0
 70
1
 66
1
  0
VERTEX
  8
0
 10
1654.5464390167117
 20
720.18700308864447
 42
-0
  0
VERTEX
  8
0
 10
1758.3813084014773
 20
720.18699545924994
 42
0.11932211369276047
  0
VERTEX
  8
0
 10
1758.3813084014773
 20
920.18701071803901
 42
0
  0
VERTEX
  8
0
 10
1654.5464390167117
 20
920.18699545924994
 42
-0.1576707661151886
  0
SEQEND
  0
POLYLINE
  8
0
 10
0
 20
0
 39
0
 70
1
 66
1
  0
VERTEX
  8
0
 10
1747.3135288604617
 20
809.18699545924994
 42
0
  0
VERTEX
  8
0
 10
1737.3135288604617
 20
809.18699545924994
 42
-1
  0
VERTEX
  8
0
 10
1737.3135288604617
 20
831.18699545924994
 42
-0
  0
VERTEX
  8
0
 10
1747.3135288604617
 20
831.18699545924994
 42
-1
  0
SEQEND
  0
POLYLINE
  8
0
 10
0
 20
0
 39
0
 70
1
 66
1
  0
VERTEX
  8
0
 10
2210.5005206811088
 20
1084.186990952895
 42
0.61160182952880859
  0
VERTEX
  8
0
 10
2099.5533618676322
 20
1140.9613592390278
 42
-0
  0
VERTEX
  8
0
 10
1890.5005206811088
 20
990.18699095289492
 42
0
  0
VERTEX
  8
0
 10
2210.5005206811088
 20
990.18699095289492
 42
0
  0
SEQEND
  0
POLYLINE
  8
0
 10
0
 20
0
 39
0
 70
1
 66
1
  0
VERTEX
  8
0
 10
2122.0005206811088
 20
1084.186990952895
 42
-1
  0
VERTEX
  8
0
 10
2159.0005206811088
 20
1084.186990952895
 42
-1
  0
SEQEND
  0
POLYLINE
  8
0
 10
0
 20
0
 39
0
 70
1
 66
1
  0
VERTEX
  8
0
 10
1780.3135206811089
 20
1060.1869841381931
 42
0.61160182952880859
  0
VERTEX
  8
0
 10
1891.2606794945855
 20
1003.4126158520603
 42
-0
  0
VERTEX
  8
0
 10
2100.3135206811089
 20
1154.1869841381931
 42
0
  0
VERTEX
  8
0
 10
1780.3135206811089
 20
1154.1869841381931
 42
0
  0
SEQEND
  0
POLYLINE
  8
0
 10
0
 20
0
 39
0
 70
1
 66
1
  0
VERTEX
  8
0
 10
1868.8135206811089
 20
1060.1869841381931
 42
-1
  0
VERTEX
  8
0
 10
1831.8135206811089
 20
1060.1869841381931
 42
-1
  0
SEQEND
  0
POLYLINE
  8
0
 10
0
 20
0
 39
0
 70
1
 66
1
  0
VERTEX
  8
0
 10
2707.7211032016226
 20
104.00000003439493
 42
0.61160182952880859
  0
VERTEX
  8
0
 10
2596.773944388146
 20
160.77436832052774
 42
-0
  0
VERTEX
  8
0
 10
2387.7211032016226
 20
10.00000003439493
 42
0
  0
VERTEX
  8
0
 10
2707.7211032016226
 20
10.00000003439493
 42
0
  0
SEQEND
  0
POLYLINE
  8
0
 10
0
 20
0
 39
0
 70
1
 66
1
  0
VERTEX
  8
0
 10
2619.2211032016226
 20
104.00000003439493
 42
-1
  0
VERTEX
  8
0
 10
2656.2211032016226
 20
104.00000003439493
 42
-1
  0
SEQEND
  0
POLYLINE
  8
0
 10
0
 20
0
 39
0
 70
1
 66
1
  0
VERTEX
  8
0
 10
2277.5341032016227
 20
79.999993219692968
 42
0.61160182952880859
  0
VERTEX
  8
0
 10
2388.4812620150992
 20
23.225624933560169
 42
-0
  0
VERTEX
  8
0
 10
2597.5341032016227
 20
173.99999321969301
 42
0
  0
VERTEX
  8
0
 10
2277.5341032016227
 20
173.99999321969298
 42
0
  0
SEQEND
  0
POLYLINE
  8
0
 10
0
 20
0
 39
0
 70
1
 66
1
  0
VERTEX
  8
0
 10
2366.0341032016227
 20
79.999993219692982
 42
-1
  0
VERTEX
  8
0
 10
2329.0341032016227
 20
79.999993219692982
 42
-1
  0
SEQEND
  0
POLYLINE
  8
0
 10
0
 20
0
 39
0
 70
1
 66
1
  0
VERTEX
  8
0
 10
1597.9999601449595
 20
10
 42
0.61160182952880859
  0
VERTEX
  8
0
 10
1654.7743284310923
 20
120.94715881347656
 42
-0
  0
VERTEX
  8
0
 10
1503.9999601449595
 20
330
 42
0
  0
VERTEX
  8
0
 10
1503.9999601449595
 20
10
 42
0
  0
SEQEND
  0
POLYLINE
  8
0
 10
0
 20
0
 39
0
 70
1
 66
1
  0
VERTEX
  8
0
 10
1597.9999601449595
 20
98.5
 42
-1
  0
VERTEX
  8
0
 10
1597.9999601449595
 20
61.5
 42
-1
  0
SEQEND
  0
POLYLINE
  8
0
 10
0
 20
0
 39
0
 70
1
 66
1
  0
VERTEX
  8
0
 10
1573.9999533302575
 20
440.18700000000001
 42
0.61160182952880859
  0
VERTEX
  8
0
 10
1517.2255850441247
 20
329.23984118652345
 42
-0
  0
VERTEX
  8
0
 10
1667.9999533302575
 20
120.18700000000001
 42
0
  0
VERTEX
  8
0
 10
1667.9999533302575
 20
440.18700000000001
 42
0
  0
SEQEND
  0
POLYLINE
  8
0
 10
0
 20
0
 39
0
 70
1
 66
1
  0
VERTEX
  8
0
 10
1573.9999533302575
 20
351.68700000000001
 42
-1
  0
VERTEX
  8
0
 10
1573.9999533302575
 20
388.68700000000001
 42
-1
  0
SEQEND
  0
POLYLINE
  8
0
 10
0
 20
0
 39
0
 70
1
 66
1
  0
VERTEX
  8
0
 10
1484.2121316414264
 20
710.18575795301365
 42
1
  0
VERTEX
  8
0
 10
1485.3465920142767
 20
450.18823750623631
 42
1
  0
SEQEND
  0
POLYLINE
  8
0
 10
0
 20
0
 39
0
 70
1
 66
1
  0
VERTEX
  8
0
 10
1555.3999129182059
 20
590.02264099912964
 42
-0.39275187253952026
  0
VERTEX
  8
0
 10
1555.4830549926389
 20
570.96800170565939
 42
0
  0
VERTEX
  8
0
 10
1518.4989182632978
 20
570.80662694534851
 42
-7.2084965705871582
  0
VERTEX
  8
0
 10
1518.4157761888648
 20
589.86126623881876
 42
-0
  0
SEQEND
  0
POLYLINE
  8
0
 10
0
 20
0
 39
0
 70
1
 66
1
  0
VERTEX
  8
0
 10
1909.7462882243087
 20
980.18575341226358
 42
1
  0
VERTEX
  8
0
 10
1910.880748597159
 20
720.18823296548624
 42
1
  0
SEQEND
  0
POLYLINE
  8
0
 10
0
 20
0
 39
0
 70
1
 66
1
  0
VERTEX
  8
0
 10
1980.9340695010883
 20
860.02263645837957
 42
-0.39275187253952026
  0
VERTEX
  8
0
 10
1981.0172115755213
 20
840.96799716490932
 42
0
  0
VERTEX
  8
0
 10
1944.0330748461802
 20
840.80662240459844
 42
-7.2084965705871582
  0
VERTEX
  8
0
 10
1943.9499327717472
 20
859.86126169806869
 42
-0
  0
SEQEND
  0
POLYLINE
  8
0
 10
0
 20
0
 39
0
 70
1
 66
1
  0
VERTEX
  8
0
 10
1754.2121271006763
 20
710.18575795301365
 42
1
  0
VERTEX
  8
0
 10
1755.3465874735266
 20
450.18823750623631
 42
1
  0
SEQEND
  0
POLYLINE
  8
0
 10
0
 20
0
 39
0
 70
1
 66
1
  0
VERTEX
  8
0
 10
1825.3999083774559
 20
590.02264099912964
 42
-0.39275187253952026
  0
VERTEX
  8
0
 10
1825.4830504518889
 20
570.96800170565939
 42
0
  0
VERTEX
  8
0
 10
1788.4989137225477
 20
570.80662694534851
 42
-7.2084965705871582
  0
VERTEX
  8
0
 10
1788.4157716481147
 20
589.86126623881876
 42
-0
  0
SEQEND
  0
POLYLINE
  8
0
 10
0
 20
0
 39
0
 70
1
 66
1
  0
VERTEX
  8
0
 10
884.519580597154
 20
718.08047908429353
 42
0.61160182952880859
  0
VERTEX
  8
0
 10
941.29394888328682
 20
829.02763789777009
 42
-0
  0
VERTEX
  8
0
 10
790.519580597154
 20
1038.0804790842935
 42
0
  0
VERTEX
  8
0
 10
790.519580597154
 20
718.08047908429353
 42
0
  0
SEQEND
  0
POLYLINE
  8
0
 10
0
 20
0
 39
0
 70
1
 66
1
  0
VERTEX
  8
0
 10
884.519580597154
 20
806.58047908429353
 42
-1
  0
VERTEX
  8
0
 10
884.519580597154
 20
769.58047908429353
 42
-1
  0
SEQEND
  0
POLYLINE
  8
0
 10
0
 20
0
 39
0
 70
1
 66
1
  0
VERTEX
  8
0
 10
860.51957378245197
 20
1148.2674790842934
 42
0.61160182952880859
  0
VERTEX
  8
0
 10
803.74520549631927
 20
1037.3203202708169
 42
-0
  0
VERTEX
  8
0
 10
954.51957378245208
 20
828.26747908429354
 42
0
  0
VERTEX
  8
0
 10
954.51957378245197
 20
1148.2674790842934
 42
0
  0
SEQEND
  0
POLYLINE
  8
0
 10
0
 20
0
 39
0
 70
1
 66
1
  0
VERTEX
  8
0
 10
860.51957378245208
 20
1059.7674790842934
 42
-1
  0
VERTEX
  8
0
 10
860.51957378245208
 20
1096.7674790842934
 42
-1
  0
SEQEND
  0
POLYLINE
  8
0
 10
0
 20
0
 39
0
 70
1
 66
1
  0
VERTEX
  8
0
 10
2305.5133653479561
 20
960.8854900213048
 42
1
  0
VERTEX
  8
0
 10
2306.6478257208064
 20
700.88796957452746
 42
1
  0
SEQEND
  0
POLYLINE
  8
0
 10
0
 20
0
 39
0
 70
1
 66
1
  0
VERTEX
  8
0
 10
2376.7011466247354
 20
840.72237306742079
 42
-0.39275187253952026
  0
VERTEX
  8
0
 10
2376.7842886991689
 20
821.66773377395054
 42
0
  0
VERTEX
  8
0
 10
2339.8001519698278
 20
821.50635901363967
 42
-7.2084965705871582
  0
VERTEX
  8
0
 10
2339.7170098953943
 20
840.56099830710991
 42
-0
  0
SEQEND
  0
POLYLINE
  8
0
 10
0
 20
0
 39
0
 70
1
 66
1
  0
VERTEX
  8
0
 10
2575.5133608072056
 20
960.8854900213048
 42
1
  0
VERTEX
  8
0
 10
2576.6478211800559
 20
700.88796957452746
 42
1
  0
SEQEND
  0
POLYLINE
  8
0
 10
0
 20
0
 39
0
 70
1
 66
1
  0
VERTEX
  8
0
 10
2646.7011420839849
 20
840.72237306742079
 42
-0.39275187253952026
  0
VERTEX
  8
0
 10
2646.7842841584184
 20
821.66773377395054
 42
0
  0
VERTEX
  8
0
 10
2609.8001474290772
 20
821.50635901363967
 42
-7.2084965705871582
  0
VERTEX
  8
0
 10
2609.7170053546438
 20
840.56099830710991
 42
-0
  0
SEQEND
  0
POLYLINE
  8
0
 10
0
 20
0
 39
0
 70
1
 66
1
  0
VERTEX
  8
0
 10
2024.2121225599265
 20
710.18575795301365
 42
1
  0
VERTEX
  8
0
 10
2025.3465829327768
 20
450.18823750623631
 42
1
  0
SEQEND
  0
POLYLINE
  8
0
 10
0
 20
0
 39
0
 70
1
 66
1
  0
VERTEX
  8
0
 10
2095.399903836706
 20
590.02264099912964
 42
-0.39275187253952026
  0
VERTEX
  8
0
 10
2095.483045911139
 20
570.96800170565939
 42
0
  0
VERTEX
  8
0
 10
2058.4989091817979
 20
570.80662694534851
 42
-7.2084965705871582
  0
VERTEX
  8
0
 10
2058.4157671073649
 20
589.86126623881876
 42
-0
  0
SEQEND
  0
POLYLINE
  8
0
 10
0
 20
0
 39
0
 70
1
 66
1
  0
VERTEX
  8
0
 10
2151.7670215372254
 20
10.000007629394517
 42
-0
  0
VERTEX
  8
0
 10
2255.6018909219911
 20
10
 42
0.11932211369276047
  0
VERTEX
  8
0
 10
2255.6018909219911
 20
210.00001525878906
 42
0
  0
VERTEX
  8
0
 10
2151.7670215372254
 20
210
 42
-0.1576707661151886
  0
SEQEND
  0
POLYLINE
  8
0
 10
0
 20
0
 39
0
 70
1
 66
1
  0
VERTEX
  8
0
 10
2244.5341113809754
 20
99
 42
0
  0
VERTEX
  8
0
 10
2234.5341113809754
 20
99
 42
-1
  0
VERTEX
  8
0
 10
2234.5341113809754
 20
121
 42
-0
  0
VERTEX
  8
0
 10
2244.5341113809754
 20
121
 42
-1
  0
SEQEND
  0
POLYLINE
  8
0
 10
0
 20
0
 39
0
 70
1
 66
1
  0
VERTEX
  8
0
 10
38.053057882658322
 20
806.87484656215383
 42
-0
  0
VERTEX
  8
0
 10
74.082746841784683
 20
789.49618755804113
 42
0
  0
VERTEX
  8
0
 10
271.54265730800398
 20
722.7853842499826
 42
0.51879560947418213
  0
VERTEX
  8
0
 10
390.24403450296086
 20
809.76335667783133
 42
-0
  0
VERTEX
  8
0
 10
389.51640432789281
 20
1087.0002063455686
 42
0
  0
VERTEX
  8
0
 10
371.5024394364591
 20
1095.6891115846738
 42
-0.22677740454673767
  0
VERTEX
  8
0
 10
151.88180849836499
 20
853.4454684093289
 42
-0
  0
SEQEND
  0
POLYLINE
  8
0
 10
0
 20
0
 39
0
 70
1
 66
1
  0
VERTEX
  8
0
 10
268.73619926355605
 20
823.2852302231986
 42
-1
  0
VERTEX
  8
0
 10
331.78507638357405
 20
792.87406188633031
 42
-1
  0
SEQEND
  0
POLYLINE
  8
0
 10
0
 20
0
 39
0
 70
1
 66
1
  0
VERTEX
  8
0
 10
362.20673239872121
 20
1100.1728284159399
 42
-0
  0
VERTEX
  8
0
 10
326.17704343959485
 20
1117.5514874200526
 42
0
  0
VERTEX
  8
0
 10
128.71713297337556
 20
1184.2622907281111
 42
0.51879560947418213
  0
VERTEX
  8
0
 10
10.015755778418679
 20
1097.2843183002624
 42
-0
  0
VERTEX
  8
0
 10
10.743385953486722
 20
820.04746863252512
 42
0
  0
VERTEX
  8
0
 10
28.757350844920438
 20
811.3585633934199
 42
-0.22677740454673767
  0
VERTEX
  8
0
 10
248.37798178301455
 20
1053.6022065687648
 42
-0
  0
SEQEND
  0
POLYLINE
  8
0
 10
0
 20
0
 39
0
 70
1
 66
1
  0
VERTEX
  8
0
 10
131.52359101782349
 20
1083.7624447548951
 42
-1
  0
VERTEX
  8
0
 10
68.474713897805486
 20
1114.1736130917634
 42
-1
  0
SEQEND
  0
POLYLINE
  8
0
 10
0
 20
0
 39
0
 70
1
 66
1
  0
VERTEX
  8
0
 10
2220.5005206811088
 20
970.88673515693563
 42
-0
  0
VERTEX
  8
0
 10
2324.3353900658744
 20
970.8867275275411
 42
0.11932211369276047
  0
VERTEX
  8
0
 10
2324.3353900658744
 20
1170.8867427863302
 42
0
  0
VERTEX
  8
0
 10
2220.5005206811088
 20
1170.8867275275411
 42
-0.1576707661151886
  0
SEQEND
  0
POLYLINE
  8
0
 10
0
 20
0
 39
0
 70
1
 66
1
  0
VERTEX
  8
0
 10
2313.2676105248588
 20
1059.8867275275411
 42
0
  0
VERTEX
  8
0
 10
2303.2676105248588
 20
1059.8867275275411
 42
-1
  0
VERTEX
  8
0
 10
2303.2676105248588
 20
1081.8867275275411
 42
-0
  0
VERTEX
  8
0
 10
2313.2676105248588
 20
1081.8867275275411
 42
-1
  0
SEQEND
  0
POLYLINE
  8
0
 10
0
 20
0
 39
0
 70
1
 66
1
  0
VERTEX
  8
0
 10
1654.5464390167117
 20
930.18701834743342
 42
-0
  0
VERTEX
  8
0
 10
1758.3813084014773
 20
930.18701071803889
 42
0.11932211369276047
  0
VERTEX
  8
0
 10
1758.3813084014773
 20
1130.187025976828
 42
0
  0
VERTEX
  8
0
 10
1654.5464390167117
 20
1130.1870107180389
 42
-0.1576707661151886
  0
SEQEND
  0
POLYLINE
  8
0
 10
0
 20
0
 39
0
 70
1
 66
1
  0
VERTEX
  8
0
 10
1747.3135288604617
 20
1019.1870107180389
 42
0
  0
VERTEX
  8
0
 10
1737.3135288604617
 20
1019.1870107180389
 42
-1
  0
VERTEX
  8
0
 10
1737.3135288604617
 20
1041.1870107180389
 42
-0
  0
VERTEX
  8
0
 10
1747.3135288604617
 20
1041.1870107180389
 42
-1
  0
SEQEND
  0
POLYLINE
  8
0
 10
0
 20
0
 39
0
 70
1
 66
1
  0
VERTEX
  8
0
 10
2050.3135161403588
 20
720.18700308864447
 42
-0
  0
VERTEX
  8
0
 10
2154.1483855251245
 20
720.18699545924994
 42
0.11932211369276047
  0
VERTEX
  8
0
 10
2154.1483855251245
 20
920.18701071803901
 42
0
  0
VERTEX
  8
0
 10
2050.3135161403588
 20
920.18699545924994
 42
-0.1576707661151886
  0
SEQEND
  0
POLYLINE
  8
0
 10
0
 20
0
 39
0
 70
1
 66
1
  0
VERTEX
  8
0
 10
2143.0806059841088
 20
809.18699545924994
 42
0
  0
VERTEX
  8
0
 10
2133.0806059841088
 20
809.18699545924994
 42
-1
  0
VERTEX
  8
0
 10
2133.0806059841088
 20
831.18699545924994
 42
-0
  0
VERTEX
  8
0
 10
2143.0806059841088
 20
831.18699545924994
 42
-1
  0
SEQEND
  0
POLYLINE
  8
0
 10
0
 20
0
 39
0
 70
1
 66
1
  0
VERTEX
  8
0
 10
696.5065932747774
 20
254.52429111564663
 42
0.51156294345855713
  0
VERTEX
  8
0
 10
1319.6297776347565
 20
105.82043663521029
 42
-0
  0
VERTEX
  8
0
 10
1319.989256838614
 20
380.44204147746962
 42
1.2323212623596191
  0
SEQEND
  0
POLYLINE
  8
0
 10
0
 20
0
 39
0
 70
1
 66
1
  0
VERTEX
  8
0
 10
1063.1920149364778
 20
462.92310804222063
 42
-1
  0
VERTEX
  8
0
 10
926.80792713549806
 20
303.23785692546801
 42
-1
  0
SEQEND
  0
POLYLINE
  8
0
 10
0
 20
0
 39
0
 70
1
 66
1
  0
VERTEX
  8
0
 10
1851.9999466187403
 20
220.00002288818359
 42
-0
  0
VERTEX
  8
0
 10
1955.8348160035059
 20
220.00001525878909
 42
0.11932211369276047
  0
VERTEX
  8
0
 10
1955.8348160035059
 20
420.00003051757812
 42
0
  0
VERTEX
  8
0
 10
1851.9999466187403
 20
420.00001525878906
 42
-0.1576707661151886
  0
SEQEND
  0
POLYLINE
  8
0
 10
0
 20
0
 39
0
 70
1
 66
1
  0
VERTEX
  8
0
 10
1944.7670364624903
 20
309.00001525878906
 42
0
  0
VERTEX
  8
0
 10
1934.7670364624903
 20
309.00001525878906
 42
-1
  0
VERTEX
  8
0
 10
1934.7670364624903
 20
331.00001525878906
 42
-0
  0
VERTEX
  8
0
 10
1944.7670364624903
 20
331.00001525878906
 42
-1
  0
SEQEND
  0
POLYLINE
  8
0
 10
0
 20
0
 39
0
 70
1
 66
1
  0
VERTEX
  8
0
 10
992.57263169950602
 20
806.87484656215383
 42
-0
  0
VERTEX
  8
0
 10
1028.6023206586324
 20
789.49618755804113
 42
0
  0
VERTEX
  8
0
 10
1226.0622311248517
 20
722.7853842499826
 42
0.51879560947418213
  0
VERTEX
  8
0
 10
1344.7636083198086
 20
809.76335667783133
 42
-0
  0
VERTEX
  8
0
 10
1344.0359781447405
 20
1087.0002063455686
 42
0
  0
VERTEX
  8
0
 10
1326.0220132533068
 20
1095.6891115846738
 42
-0.22677740454673767
  0
VERTEX
  8
0
 10
1106.4013823152127
 20
853.4454684093289
 42
-0
  0
SEQEND
  0
POLYLINE
  8
0
 10
0
 20
0
 39
0
 70
1
 66
1
  0
VERTEX
  8
0
 10
1223.2557730804037
 20
823.2852302231986
 42
-1
  0
VERTEX
  8
0
 10
1286.3046502004217
 20
792.87406188633031
 42
-1
  0
SEQEND
  0
POLYLINE
  8
0
 10
0
 20
0
 39
0
 70
1
 66
1
  0
VERTEX
  8
0
 10
1316.7263062155689
 20
1100.1728284159399
 42
-0
  0
VERTEX
  8
0
 10
1280.6966172564426
 20
1117.5514874200526
 42
0
  0
VERTEX
  8
0
 10
1083.2367067902233
 20
1184.2622907281111
 42
0.51879560947418213
  0
VERTEX
  8
0
 10
964.53532959526638
 20
1097.2843183002624
 42
-0
  0
VERTEX
  8
0
 10
965.26295977033442
 20
820.04746863252512
 42
0
  0
VERTEX
  8
0
 10
983.27692466176813
 20
811.3585633934199
 42
-0.22677740454673767
  0
VERTEX
  8
0
 10
1202.8975555998622
 20
1053.6022065687648
 42
-0
  0
SEQEND
  0
POLYLINE
  8
0
 10
0
 20
0
 39
0
 70
1
 66
1
  0
VERTEX
  8
0
 10
1086.0431648346712
 20
1083.7624447548951
 42
-1
  0
VERTEX
  8
0
 10
1022.9942877146532
 20
1114.1736130917634
 42
-1
  0
SEQEND
  0
POLYLINE
  8
0
 10
0
 20
0
 39
0
 70
1
 66
1
  0
VERTEX
  8
0
 10
2192.832408358634
 20
308.79438273664709
 42
-0
  0
VERTEX
  8
0
 10
2228.8620973177603
 20
291.41572373253439
 42
0
  0
VERTEX
  8
0
 10
2426.3220077839796
 20
224.70492042447586
 42
0.51879560947418213
  0
VERTEX
  8
0
 10
2545.0233849789365
 20
311.68289285232458
 42
-0
  0
VERTEX
  8
0
 10
2544.2957548038685
 20
588.91974252006185
 42
0
  0
VERTEX
  8
0
 10
2526.2817899124348
 20
597.60864775916707
 42
-0.22677740454673767
  0
VERTEX
  8
0
 10
2306.6611589743407
 20
355.36500458382216
 42
-0
  0
SEQEND
  0
POLYLINE
  8
0
 10
0
 20
0
 39
0
 70
1
 66
1
  0
VERTEX
  8
0
 10
2423.5155497395317
 20
325.20476639769186
 42
-1
  0
VERTEX
  8
0
 10
2486.5644268595497
 20
294.79359806082357
 42
-1
  0
SEQEND
  0
POLYLINE
  8
0
 10
0
 20
0
 39
0
 70
1
 66
1
  0
VERTEX
  8
0
 10
2516.9860828746969
 20
602.09236459043314
 42
-0
  0
VERTEX
  8
0
 10
2480.9563939155705
 20
619.47102359454584
 42
0
  0
VERTEX
  8
0
 10
2283.4964834493512
 20
686.18182690260437
 42
0.51879560947418213
  0
VERTEX
  8
0
 10
2164.7951062543943
 20
599.20385447475564
 42
-0
  0
VERTEX
  8
0
 10
2165.5227364294624
 20
321.96700480701838
 42
0
  0
VERTEX
  8
0
 10
2183.5367013208961
 20
313.27809956791316
 42
-0.22677740454673767
  0
VERTEX
  8
0
 10
2403.1573322589902
 20
555.52174274325807
 42
-0
  0
SEQEND
  0
POLYLINE
  8
0
 10
0
 20
0
 39
0
 70
1
 66
1
  0
VERTEX
  8
0
 10
2286.3029414937992
 20
585.68198092938837
 42
-1
  0
VERTEX
  8
0
 10
2223.2540643737811
 20
616.09314926625666
 42
-1
  0
SEQEND
  0
POLYLINE
  8
0
 10
0
 20
0
 39
0
 70
1
 66
1
  0
VERTEX
  8
0
 10
36.506609846539163
 20
254.52429111564663
 42
0.51156294345855713
  0
VERTEX
  8
0
 10
659.62979420651811
 20
105.82043663521029
 42
-0
  0
VERTEX
  8
0
 10
659.98927341037563
 20
380.44204147746962
 42
1.2323212623596191
  0
SEQEND
  0
POLYLINE
  8
0
 10
0
 20
0
 39
0
 70
1
 66
1
  0
VERTEX
  8
0
 10
403.19203150823944
 20
462.92310804222063
 42
-1
  0
VERTEX
  8
0
 10
266.80794370725982
 20
303.23785692546801
 42
-1
  0
SEQEND
  0
POLYLINE
  8
0
 10
0
 20
0
 39
0
 70
1
 66
1
  0
VERTEX
  8
0
 10
428.31284816403786
 20
806.87484656215383
 42
-0
  0
VERTEX
  8
0
 10
464.34253712316422
 20
789.49618755804113
 42
0
  0
VERTEX
  8
0
 10
661.80244758938352
 20
722.7853842499826
 42
0.51879560947418213
  0
VERTEX
  8
0
 10
780.5038247843404
 20
809.76335667783133
 42
-0
  0
VERTEX
  8
0
 10
779.77619460927235
 20
1087.0002063455686
 42
0
  0
VERTEX
  8
0
 10
761.76222971783864
 20
1095.6891115846738
 42
-0.22677740454673767
  0
VERTEX
  8
0
 10
542.14159877974453
 20
853.4454684093289
 42
-0
  0
SEQEND
  0
POLYLINE
  8
0
 10
0
 20
0
 39
0
 70
1
 66
1
  0
VERTEX
  8
0
 10
658.99598954493558
 20
823.2852302231986
 42
-1
  0
VERTEX
  8
0
 10
722.04486666495359
 20
792.87406188633031
 42
-1
  0
SEQEND
  0
POLYLINE
  8
0
 10
0
 20
0
 39
0
 70
1
 66
1
  0
VERTEX
  8
0
 10
752.46652268010075
 20
1100.1728284159399
 42
-0
  0
VERTEX
  8
0
 10
716.43683372097439
 20
1117.5514874200526
 42
0
  0
VERTEX
  8
0
 10
518.97692325475509
 20
1184.2622907281111
 42
0.51879560947418213
  0
VERTEX
  8
0
 10
400.27554605979822
 20
1097.2843183002624
 42
-0
  0
VERTEX
  8
0
 10
401.00317623486626
 20
820.04746863252512
 42
0
  0
VERTEX
  8
0
 10
419.01714112629998
 20
811.3585633934199
 42
-0.22677740454673767
  0
VERTEX
  8
0
 10
638.63777206439408
 20
1053.6022065687648
 42
-0
  0
SEQEND
  0
POLYLINE
  8
0
 10
0
 20
0
 39
0
 70
1
 66
1
  0
VERTEX
  8
0
 10
521.78338129920303
 20
1083.7624447548951
 42
-1
  0
VERTEX
  8
0
 10
458.73450417918502
 20
1114.1736130917634
 42
-1
  0
SEQEND
  0
ENDSEC
  0
EOF
