  0
SECTION
  2
ENTITIES
  0
POLYLINE
  8
0
 10
0
 20
0
 39
0
 70
1
 66
1
  0
VERTEX
  8
0
 10
0
 20
0
 42
0
  0
VERTEX
  8
0
 10
2100
 20
0
 42
0
  0
VERTEX
  8
0
 10
2100
 20
1100
 42
0
  0
VERTEX
  8
0
 10
0
 20
1100
 42
0
  0
SEQEND
  0
POLYLINE
  8
0
 10
0
 20
0
 39
0
 70
1
 66
1
  0
VERTEX
  8
0
 10
510.16923076923075
 20
10.169230769230769
 42
0
  0
VERTEX
  8
0
 10
10.169230769230751
 20
10.169230769230769
 42
0
  0
VERTEX
  8
0
 10
10.169230769230751
 20
510.16923076923075
 42
0
  0
VERTEX
  8
0
 10
510.16923076923069
 20
510.16923076923075
 42
0
  0
SEQEND
  0
POLYLINE
  8
0
 10
0
 20
0
 39
0
 70
1
 66
1
  0
VERTEX
  8
0
 10
480.88406116779032
 20
48.373092005803031
 42
-0
  0
VERTEX
  8
0
 10
480.88406116779032
 20
317.344096491887
 42
0.77396315336227417
  0
VERTEX
  8
0
 10
39.454387019230751
 20
317.344096491887
 42
0
  0
VERTEX
  8
0
 10
39.454387019230751
 20
48.373092005803031
 42
0
  0
SEQEND
  0
POLYLINE
  8
0
 10
0
 20
0
 39
0
 70
1
 66
1
  0
VERTEX
  8
0
 10
510.16923076923075
 20
520.30769230769226
 42
0
  0
VERTEX
  8
0
 10
10.169230769230751
 20
520.30769230769226
 42
0
  0
VERTEX
  8
0
 10
10.169230769230751
 20
1020.3076923076923
 42
0
  0
VERTEX
  8
0
 10
510.16923076923069
 20
1020.3076923076923
 42
0
  0
SEQEND
  0
POLYLINE
  8
0
 10
0
 20
0
 39
0
 70
1
 66
1
  0
VERTEX
  8
0
 10
480.88406116779032
 20
558.51155354426453
 42
-0
  0
VERTEX
  8
0
 10
480.88406116779032
 20
827.48255803034851
 42
0.77396315336227417
  0
VERTEX
  8
0
 10
39.454387019230751
 20
827.48255803034851
 42
0
  0
VERTEX
  8
0
 10
39.454387019230751
 20
558.51155354426453
 42
0
  0
SEQEND
  0
POLYLINE
  8
0
 10
0
 20
0
 39
0
 70
1
 66
1
  0
VERTEX
  8
0
 10
1020.4692307692308
 20
10.169230769230769
 42
0
  0
VERTEX
  8
0
 10
520.46923076923076
 20
10.169230769230769
 42
0
  0
VERTEX
  8
0
 10
520.46923076923076
 20
510.16923076923075
 42
0
  0
VERTEX
  8
0
 10
1020.4692307692308
 20
510.16923076923075
 42
0
  0
SEQEND
  0
POLYLINE
  8
0
 10
0
 20
0
 39
0
 70
1
 66
1
  0
VERTEX
  8
0
 10
991.18406116779033
 20
48.373092005803031
 42
-0
  0
VERTEX
  8
0
 10
991.18406116779033
 20
317.344096491887
 42
0.77396315336227417
  0
VERTEX
  8
0
 10
549.75438701923076
 20
317.344096491887
 42
0
  0
VERTEX
  8
0
 10
549.75438701923076
 20
48.373092005803031
 42
0
  0
SEQEND
  0
POLYLINE
  8
0
 10
0
 20
0
 39
0
 70
1
 66
1
  0
VERTEX
  8
0
 10
1020.4692307692308
 20
520.30769230769226
 42
0
  0
VERTEX
  8
0
 10
520.46923076923076
 20
520.30769230769226
 42
0
  0
VERTEX
  8
0
 10
520.46923076923076
 20
1020.3076923076923
 42
0
  0
VERTEX
  8
0
 10
1020.4692307692308
 20
1020.3076923076923
 42
0
  0
SEQEND
  0
POLYLINE
  8
0
 10
0
 20
0
 39
0
 70
1
 66
1
  0
VERTEX
  8
0
 10
991.18406116779033
 20
558.51155354426453
 42
-0
  0
VERTEX
  8
0
 10
991.18406116779033
 20
827.48255803034851
 42
0.77396315336227417
  0
VERTEX
  8
0
 10
549.75438701923076
 20
827.48255803034851
 42
0
  0
VERTEX
  8
0
 10
549.75438701923076
 20
558.51155354426453
 42
0
  0
SEQEND
  0
POLYLINE
  8
0
 10
0
 20
0
 39
0
 70
1
 66
1
  0
VERTEX
  8
0
 10
1530.7692307692307
 20
10.169230769230769
 42
0
  0
VERTEX
  8
0
 10
1030.7692307692307
 20
10.169230769230769
 42
0
  0
VERTEX
  8
0
 10
1030.7692307692307
 20
510.16923076923075
 42
0
  0
VERTEX
  8
0
 10
1530.7692307692307
 20
510.16923076923075
 42
0
  0
SEQEND
  0
POLYLINE
  8
0
 10
0
 20
0
 39
0
 70
1
 66
1
  0
VERTEX
  8
0
 10
1501.4840611677903
 20
48.373092005803031
 42
-0
  0
VERTEX
  8
0
 10
1501.4840611677903
 20
317.344096491887
 42
0.77396315336227417
  0
VERTEX
  8
0
 10
1060.0543870192307
 20
317.344096491887
 42
0
  0
VERTEX
  8
0
 10
1060.0543870192307
 20
48.373092005803031
 42
0
  0
SEQEND
  0
POLYLINE
  8
0
 10
0
 20
0
 39
0
 70
1
 66
1
  0
VERTEX
  8
0
 10
1530.7692307692307
 20
520.30769230769226
 42
0
  0
VERTEX
  8
0
 10
1030.7692307692307
 20
520.30769230769226
 42
0
  0
VERTEX
  8
0
 10
1030.7692307692307
 20
1020.3076923076923
 42
0
  0
VERTEX
  8
0
 10
1530.7692307692307
 20
1020.3076923076923
 42
0
  0
SEQEND
  0
POLYLINE
  8
0
 10
0
 20
0
 39
0
 70
1
 66
1
  0
VERTEX
  8
0
 10
1501.4840611677903
 20
558.51155354426453
 42
-0
  0
VERTEX
  8
0
 10
1501.4840611677903
 20
827.48255803034851
 42
0.77396315336227417
  0
VERTEX
  8
0
 10
1060.0543870192307
 20
827.48255803034851
 42
0
  0
VERTEX
  8
0
 10
1060.0543870192307
 20
558.51155354426453
 42
0
  0
SEQEND
  0
POLYLINE
  8
0
 10
0
 20
0
 39
0
 70
1
 66
1
  0
VERTEX
  8
0
 10
2041.0692307692307
 20
10.169230769230769
 42
0
  0
VERTEX
  8
0
 10
1541.0692307692307
 20
10.169230769230769
 42
0
  0
VERTEX
  8
0
 10
1541.0692307692307
 20
510.16923076923075
 42
0
  0
VERTEX
  8
0
 10
2041.0692307692307
 20
510.16923076923075
 42
0
  0
SEQEND
  0
POLYLINE
  8
0
 10
0
 20
0
 39
0
 70
1
 66
1
  0
VERTEX
  8
0
 10
2011.7840611677902
 20
48.373092005803031
 42
-0
  0
VERTEX
  8
0
 10
2011.7840611677902
 20
317.344096491887
 42
0.77396315336227417
  0
VERTEX
  8
0
 10
1570.3543870192307
 20
317.344096491887
 42
0
  0
VERTEX
  8
0
 10
1570.3543870192307
 20
48.373092005803031
 42
0
  0
SEQEND
  0
POLYLINE
  8
0
 10
0
 20
0
 39
0
 70
1
 66
1
  0
VERTEX
  8
0
 10
2041.0692307692307
 20
520.30769230769226
 42
0
  0
VERTEX
  8
0
 10
1541.0692307692307
 20
520.30769230769226
 42
0
  0
VERTEX
  8
0
 10
1541.0692307692307
 20
1020.3076923076923
 42
0
  0
VERTEX
  8
0
 10
2041.0692307692307
 20
1020.3076923076923
 42
0
  0
SEQEND
  0
POLYLINE
  8
0
 10
0
 20
0
 39
0
 70
1
 66
1
  0
VERTEX
  8
0
 10
2011.7840611677902
 20
558.51155354426453
 42
-0
  0
VERTEX
  8
0
 10
2011.7840611677902
 20
827.48255803034851
 42
0.77396315336227417
  0
VERTEX
  8
0
 10
1570.3543870192307
 20
827.48255803034851
 42
0
  0
VERTEX
  8
0
 10
1570.3543870192307
 20
558.51155354426453
 42
0
  0
SEQEND
  0
POLYLINE
  8
0
 10
0
 20
0
 39
0
 70
1
 66
1
  0
VERTEX
  8
0
 10
467.74615384615385
 20
58.630769230769232
 42
-0
  0
VERTEX
  8
0
 10
49.746153846153845
 20
58.630769230769232
 42
-0
  0
VERTEX
  8
0
 10
49.746153846153845
 20
306.63076923076926
 42
-0
  0
VERTEX
  8
0
 10
245.30877591646635
 20
476.63076923076926
 42
0
  0
VERTEX
  8
0
 10
272.18353177584135
 20
476.63076923076926
 42
0
  0
VERTEX
  8
0
 10
467.74615384615385
 20
306.63076923076926
 42
0
  0
SEQEND
  0
POLYLINE
  8
0
 10
0
 20
0
 39
0
 70
1
 66
1
  0
VERTEX
  8
0
 10
448.74585057772123
 20
79.503375508235052
 42
-0
  0
VERTEX
  8
0
 10
400.69551755464994
 20
306.63076923076926
 42
0.79663807153701782
  0
VERTEX
  8
0
 10
116.79678250826322
 20
306.63076923076926
 42
0
  0
VERTEX
  8
0
 10
68.746459021935095
 20
79.503375508235052
 42
0
  0
VERTEX
  8
0
 10
184.08254910982572
 20
79.503375508235052
 42
-0
  0
VERTEX
  8
0
 10
183.84744168795072
 20
129.50729510967548
 42
-0
  0
VERTEX
  8
0
 10
223.84742642916166
 20
129.50729510967548
 42
-0
  0
VERTEX
  8
0
 10
223.84742642916166
 20
155.50729510967548
 42
0
  0
VERTEX
  8
0
 10
293.64488126314603
 20
155.50729510967548
 42
0
  0
VERTEX
  8
0
 10
293.64488126314603
 20
129.50729510967548
 42
0
  0
VERTEX
  8
0
 10
333.64488126314603
 20
129.50729510967548
 42
0
  0
VERTEX
  8
0
 10
333.40977384127103
 20
79.503375508235052
 42
0
  0
SEQEND
  0
POLYLINE
  8
0
 10
0
 20
0
 39
0
 70
1
 66
1
  0
VERTEX
  8
0
 10
467.74615384615385
 20
568.76923076923072
 42
-0
  0
VERTEX
  8
0
 10
49.746153846153845
 20
568.76923076923072
 42
-0
  0
VERTEX
  8
0
 10
49.746153846153845
 20
816.76923076923072
 42
-0
  0
VERTEX
  8
0
 10
245.30877591646635
 20
986.76923076923072
 42
0
  0
VERTEX
  8
0
 10
272.18353177584135
 20
986.76923076923072
 42
0
  0
VERTEX
  8
0
 10
467.74615384615385
 20
816.76923076923072
 42
0
  0
SEQEND
  0
POLYLINE
  8
0
 10
0
 20
0
 39
0
 70
1
 66
1
  0
VERTEX
  8
0
 10
448.74585057772123
 20
589.64183704669654
 42
-0
  0
VERTEX
  8
0
 10
400.69551755464994
 20
816.76923076923072
 42
0.79663807153701782
  0
VERTEX
  8
0
 10
116.79678250826322
 20
816.76923076923072
 42
0
  0
VERTEX
  8
0
 10
68.746459021935095
 20
589.64183704669654
 42
0
  0
VERTEX
  8
0
 10
184.08254910982572
 20
589.64183704669654
 42
-0
  0
VERTEX
  8
0
 10
183.84744168795072
 20
639.64575664813697
 42
-0
  0
VERTEX
  8
0
 10
223.84742642916166
 20
639.64575664813697
 42
-0
  0
VERTEX
  8
0
 10
223.84742642916166
 20
665.64575664813697
 42
0
  0
VERTEX
  8
0
 10
293.64488126314603
 20
665.64575664813697
 42
0
  0
VERTEX
  8
0
 10
293.64488126314603
 20
639.64575664813697
 42
0
  0
VERTEX
  8
0
 10
333.64488126314603
 20
639.64575664813697
 42
0
  0
VERTEX
  8
0
 10
333.40977384127103
 20
589.64183704669654
 42
0
  0
SEQEND
  0
POLYLINE
  8
0
 10
0
 20
0
 39
0
 70
1
 66
1
  0
VERTEX
  8
0
 10
978.04615384615386
 20
58.630769230769232
 42
-0
  0
VERTEX
  8
0
 10
560.04615384615386
 20
58.630769230769232
 42
-0
  0
VERTEX
  8
0
 10
560.04615384615386
 20
306.63076923076926
 42
-0
  0
VERTEX
  8
0
 10
755.60877591646636
 20
476.63076923076926
 42
0
  0
VERTEX
  8
0
 10
782.48353177584136
 20
476.63076923076926
 42
0
  0
VERTEX
  8
0
 10
978.04615384615386
 20
306.63076923076926
 42
0
  0
SEQEND
  0
POLYLINE
  8
0
 10
0
 20
0
 39
0
 70
1
 66
1
  0
VERTEX
  8
0
 10
959.04585057772124
 20
79.503375508235052
 42
-0
  0
VERTEX
  8
0
 10
910.99551755464995
 20
306.63076923076926
 42
0.79663807153701782
  0
VERTEX
  8
0
 10
627.09678250826323
 20
306.63076923076926
 42
0
  0
VERTEX
  8
0
 10
579.04645902193511
 20
79.503375508235052
 42
0
  0
VERTEX
  8
0
 10
694.38254910982573
 20
79.503375508235052
 42
-0
  0
VERTEX
  8
0
 10
694.14744168795073
 20
129.50729510967548
 42
-0
  0
VERTEX
  8
0
 10
734.14742642916167
 20
129.50729510967548
 42
-0
  0
VERTEX
  8
0
 10
734.14742642916167
 20
155.50729510967548
 42
0
  0
VERTEX
  8
0
 10
803.94488126314604
 20
155.50729510967548
 42
0
  0
VERTEX
  8
0
 10
803.94488126314604
 20
129.50729510967548
 42
0
  0
VERTEX
  8
0
 10
843.94488126314604
 20
129.50729510967548
 42
0
  0
VERTEX
  8
0
 10
843.70977384127104
 20
79.503375508235052
 42
0
  0
SEQEND
  0
POLYLINE
  8
0
 10
0
 20
0
 39
0
 70
1
 66
1
  0
VERTEX
  8
0
 10
978.04615384615386
 20
568.76923076923072
 42
-0
  0
VERTEX
  8
0
 10
560.04615384615386
 20
568.76923076923072
 42
-0
  0
VERTEX
  8
0
 10
560.04615384615386
 20
816.76923076923072
 42
-0
  0
VERTEX
  8
0
 10
755.60877591646636
 20
986.76923076923072
 42
0
  0
VERTEX
  8
0
 10
782.48353177584136
 20
986.76923076923072
 42
0
  0
VERTEX
  8
0
 10
978.04615384615386
 20
816.76923076923072
 42
0
  0
SEQEND
  0
POLYLINE
  8
0
 10
0
 20
0
 39
0
 70
1
 66
1
  0
VERTEX
  8
0
 10
959.04585057772124
 20
589.64183704669654
 42
-0
  0
VERTEX
  8
0
 10
910.99551755464995
 20
816.76923076923072
 42
0.79663807153701782
  0
VERTEX
  8
0
 10
627.09678250826323
 20
816.76923076923072
 42
0
  0
VERTEX
  8
0
 10
579.04645902193511
 20
589.64183704669654
 42
0
  0
VERTEX
  8
0
 10
694.38254910982573
 20
589.64183704669654
 42
-0
  0
VERTEX
  8
0
 10
694.14744168795073
 20
639.64575664813697
 42
-0
  0
VERTEX
  8
0
 10
734.14742642916167
 20
639.64575664813697
 42
-0
  0
VERTEX
  8
0
 10
734.14742642916167
 20
665.64575664813697
 42
0
  0
VERTEX
  8
0
 10
803.94488126314604
 20
665.64575664813697
 42
0
  0
VERTEX
  8
0
 10
803.94488126314604
 20
639.64575664813697
 42
0
  0
VERTEX
  8
0
 10
843.94488126314604
 20
639.64575664813697
 42
0
  0
VERTEX
  8
0
 10
843.70977384127104
 20
589.64183704669654
 42
0
  0
SEQEND
  0
POLYLINE
  8
0
 10
0
 20
0
 39
0
 70
1
 66
1
  0
VERTEX
  8
0
 10
1488.3461538461538
 20
58.630769230769232
 42
-0
  0
VERTEX
  8
0
 10
1070.3461538461538
 20
58.630769230769232
 42
-0
  0
VERTEX
  8
0
 10
1070.3461538461538
 20
306.63076923076926
 42
-0
  0
VERTEX
  8
0
 10
1265.9087759164663
 20
476.63076923076926
 42
0
  0
VERTEX
  8
0
 10
1292.7835317758413
 20
476.63076923076926
 42
0
  0
VERTEX
  8
0
 10
1488.3461538461538
 20
306.63076923076926
 42
0
  0
SEQEND
  0
POLYLINE
  8
0
 10
0
 20
0
 39
0
 70
1
 66
1
  0
VERTEX
  8
0
 10
1469.3458505777212
 20
79.503375508235052
 42
-0
  0
VERTEX
  8
0
 10
1421.2955175546499
 20
306.63076923076926
 42
0.79663807153701782
  0
VERTEX
  8
0
 10
1137.3967825082632
 20
306.63076923076926
 42
0
  0
VERTEX
  8
0
 10
1089.3464590219351
 20
79.503375508235052
 42
0
  0
VERTEX
  8
0
 10
1204.6825491098257
 20
79.503375508235052
 42
-0
  0
VERTEX
  8
0
 10
1204.4474416879507
 20
129.50729510967548
 42
-0
  0
VERTEX
  8
0
 10
1244.4474264291616
 20
129.50729510967548
 42
-0
  0
VERTEX
  8
0
 10
1244.4474264291616
 20
155.50729510967548
 42
0
  0
VERTEX
  8
0
 10
1314.244881263146
 20
155.50729510967548
 42
0
  0
VERTEX
  8
0
 10
1314.244881263146
 20
129.50729510967548
 42
0
  0
VERTEX
  8
0
 10
1354.244881263146
 20
129.50729510967548
 42
0
  0
VERTEX
  8
0
 10
1354.009773841271
 20
79.503375508235052
 42
0
  0
SEQEND
  0
POLYLINE
  8
0
 10
0
 20
0
 39
0
 70
1
 66
1
  0
VERTEX
  8
0
 10
1488.3461538461538
 20
568.76923076923072
 42
-0
  0
VERTEX
  8
0
 10
1070.3461538461538
 20
568.76923076923072
 42
-0
  0
VERTEX
  8
0
 10
1070.3461538461538
 20
816.76923076923072
 42
-0
  0
VERTEX
  8
0
 10
1265.9087759164663
 20
986.76923076923072
 42
0
  0
VERTEX
  8
0
 10
1292.7835317758413
 20
986.76923076923072
 42
0
  0
VERTEX
  8
0
 10
1488.3461538461538
 20
816.76923076923072
 42
0
  0
SEQEND
  0
POLYLINE
  8
0
 10
0
 20
0
 39
0
 70
1
 66
1
  0
VERTEX
  8
0
 10
1469.3458505777212
 20
589.64183704669654
 42
-0
  0
VERTEX
  8
0
 10
1421.2955175546499
 20
816.76923076923072
 42
0.79663807153701782
  0
VERTEX
  8
0
 10
1137.3967825082632
 20
816.76923076923072
 42
0
  0
VERTEX
  8
0
 10
1089.3464590219351
 20
589.64183704669654
 42
0
  0
VERTEX
  8
0
 10
1204.6825491098257
 20
589.64183704669654
 42
-0
  0
VERTEX
  8
0
 10
1204.4474416879507
 20
639.64575664813697
 42
-0
  0
VERTEX
  8
0
 10
1244.4474264291616
 20
639.64575664813697
 42
-0
  0
VERTEX
  8
0
 10
1244.4474264291616
 20
665.64575664813697
 42
0
  0
VERTEX
  8
0
 10
1314.244881263146
 20
665.64575664813697
 42
0
  0
VERTEX
  8
0
 10
1314.244881263146
 20
639.64575664813697
 42
0
  0
VERTEX
  8
0
 10
1354.244881263146
 20
639.64575664813697
 42
0
  0
VERTEX
  8
0
 10
1354.009773841271
 20
589.64183704669654
 42
0
  0
SEQEND
  0
POLYLINE
  8
0
 10
0
 20
0
 39
0
 70
1
 66
1
  0
VERTEX
  8
0
 10
1998.6461538461538
 20
58.630769230769232
 42
-0
  0
VERTEX
  8
0
 10
1580.6461538461538
 20
58.630769230769232
 42
-0
  0
VERTEX
  8
0
 10
1580.6461538461538
 20
306.63076923076926
 42
-0
  0
VERTEX
  8
0
 10
1776.2087759164663
 20
476.63076923076926
 42
0
  0
VERTEX
  8
0
 10
1803.0835317758413
 20
476.63076923076926
 42
0
  0
VERTEX
  8
0
 10
1998.6461538461538
 20
306.63076923076926
 42
0
  0
SEQEND
  0
POLYLINE
  8
0
 10
0
 20
0
 39
0
 70
1
 66
1
  0
VERTEX
  8
0
 10
1979.6458505777211
 20
79.503375508235052
 42
-0
  0
VERTEX
  8
0
 10
1931.5955175546499
 20
306.63076923076926
 42
0.79663807153701782
  0
VERTEX
  8
0
 10
1647.6967825082631
 20
306.63076923076926
 42
0
  0
VERTEX
  8
0
 10
1599.646459021935
 20
79.503375508235052
 42
0
  0
VERTEX
  8
0
 10
1714.9825491098256
 20
79.503375508235052
 42
-0
  0
VERTEX
  8
0
 10
1714.7474416879506
 20
129.50729510967548
 42
-0
  0
VERTEX
  8
0
 10
1754.7474264291616
 20
129.50729510967548
 42
-0
  0
VERTEX
  8
0
 10
1754.7474264291616
 20
155.50729510967548
 42
0
  0
VERTEX
  8
0
 10
1824.544881263146
 20
155.50729510967548
 42
0
  0
VERTEX
  8
0
 10
1824.544881263146
 20
129.50729510967548
 42
0
  0
VERTEX
  8
0
 10
1864.544881263146
 20
129.50729510967548
 42
0
  0
VERTEX
  8
0
 10
1864.309773841271
 20
79.503375508235052
 42
0
  0
SEQEND
  0
POLYLINE
  8
0
 10
0
 20
0
 39
0
 70
1
 66
1
  0
VERTEX
  8
0
 10
1998.6461538461538
 20
568.76923076923072
 42
-0
  0
VERTEX
  8
0
 10
1580.6461538461538
 20
568.76923076923072
 42
-0
  0
VERTEX
  8
0
 10
1580.6461538461538
 20
816.76923076923072
 42
-0
  0
VERTEX
  8
0
 10
1776.2087759164663
 20
986.76923076923072
 42
0
  0
VERTEX
  8
0
 10
1803.0835317758413
 20
986.76923076923072
 42
0
  0
VERTEX
  8
0
 10
1998.6461538461538
 20
816.76923076923072
 42
0
  0
SEQEND
  0
POLYLINE
  8
0
 10
0
 20
0
 39
0
 70
1
 66
1
  0
VERTEX
  8
0
 10
1979.6458505777211
 20
589.64183704669654
 42
-0
  0
VERTEX
  8
0
 10
1931.5955175546499
 20
816.76923076923072
 42
0.79663807153701782
  0
VERTEX
  8
0
 10
1647.6967825082631
 20
816.76923076923072
 42
0
  0
VERTEX
  8
0
 10
1599.646459021935
 20
589.64183704669654
 42
0
  0
VERTEX
  8
0
 10
1714.9825491098256
 20
589.64183704669654
 42
-0
  0
VERTEX
  8
0
 10
1714.7474416879506
 20
639.64575664813697
 42
-0
  0
VERTEX
  8
0
 10
1754.7474264291616
 20
639.64575664813697
 42
-0
  0
VERTEX
  8
0
 10
1754.7474264291616
 20
665.64575664813697
 42
0
  0
VERTEX
  8
0
 10
1824.544881263146
 20
665.64575664813697
 42
0
  0
VERTEX
  8
0
 10
1824.544881263146
 20
639.64575664813697
 42
0
  0
VERTEX
  8
0
 10
1864.544881263146
 20
639.64575664813697
 42
0
  0
VERTEX
  8
0
 10
1864.309773841271
 20
589.64183704669654
 42
0
  0
SEQEND
  0
POLYLINE
  8
0
 10
0
 20
0
 39
0
 70
1
 66
1
  0
VERTEX
  8
0
 10
249.58513337364721
 20
405.72962263853663
 42
-1
  0
VERTEX
  8
0
 10
248.53793918332386
 20
165.731911456896
 42
-1
  0
SEQEND
  0
POLYLINE
  8
0
 10
0
 20
0
 39
0
 70
1
 66
1
  0
VERTEX
  8
0
 10
249.519683736752
 20
390.72976568968409
 42
1
  0
VERTEX
  8
0
 10
248.60338882021907
 20
180.73176840574854
 42
1
  0
SEQEND
  0
POLYLINE
  8
0
 10
0
 20
0
 39
0
 70
1
 66
1
  0
VERTEX
  8
0
 10
249.58513337364721
 20
915.86808417699808
 42
-1
  0
VERTEX
  8
0
 10
248.53793918332386
 20
675.87037299535746
 42
-1
  0
SEQEND
  0
POLYLINE
  8
0
 10
0
 20
0
 39
0
 70
1
 66
1
  0
VERTEX
  8
0
 10
249.519683736752
 20
900.86822722814554
 42
1
  0
VERTEX
  8
0
 10
248.60338882021907
 20
690.87022994421
 42
1
  0
SEQEND
  0
POLYLINE
  8
0
 10
0
 20
0
 39
0
 70
1
 66
1
  0
VERTEX
  8
0
 10
759.88513337364714
 20
405.72962263853663
 42
-1
  0
VERTEX
  8
0
 10
758.83793918332378
 20
165.731911456896
 42
-1
  0
SEQEND
  0
POLYLINE
  8
0
 10
0
 20
0
 39
0
 70
1
 66
1
  0
VERTEX
  8
0
 10
759.81968373675193
 20
390.72976568968409
 42
1
  0
VERTEX
  8
0
 10
758.90338882021899
 20
180.73176840574854
 42
1
  0
SEQEND
  0
POLYLINE
  8
0
 10
0
 20
0
 39
0
 70
1
 66
1
  0
VERTEX
  8
0
 10
759.88513337364714
 20
915.86808417699808
 42
-1
  0
VERTEX
  8
0
 10
758.83793918332378
 20
675.87037299535746
 42
-1
  0
SEQEND
  0
POLYLINE
  8
0
 10
0
 20
0
 39
0
 70
1
 66
1
  0
VERTEX
  8
0
 10
759.81968373675193
 20
900.86822722814554
 42
1
  0
VERTEX
  8
0
 10
758.90338882021899
 20
690.87022994421
 42
1
  0
SEQEND
  0
POLYLINE
  8
0
 10
0
 20
0
 39
0
 70
1
 66
1
  0
VERTEX
  8
0
 10
1270.1851333736472
 20
405.72962263853663
 42
-1
  0
VERTEX
  8
0
 10
1269.1379391833239
 20
165.731911456896
 42
-1
  0
SEQEND
  0
POLYLINE
  8
0
 10
0
 20
0
 39
0
 70
1
 66
1
  0
VERTEX
  8
0
 10
1270.119683736752
 20
390.72976568968409
 42
1
  0
VERTEX
  8
0
 10
1269.2033888202191
 20
180.73176840574854
 42
1
  0
SEQEND
  0
POLYLINE
  8
0
 10
0
 20
0
 39
0
 70
1
 66
1
  0
VERTEX
  8
0
 10
1270.1851333736472
 20
915.86808417699808
 42
-1
  0
VERTEX
  8
0
 10
1269.1379391833239
 20
675.87037299535746
 42
-1
  0
SEQEND
  0
POLYLINE
  8
0
 10
0
 20
0
 39
0
 70
1
 66
1
  0
VERTEX
  8
0
 10
1270.119683736752
 20
900.86822722814554
 42
1
  0
VERTEX
  8
0
 10
1269.2033888202191
 20
690.87022994421
 42
1
  0
SEQEND
  0
POLYLINE
  8
0
 10
0
 20
0
 39
0
 70
1
 66
1
  0
VERTEX
  8
0
 10
1780.4851333736472
 20
405.72962263853663
 42
-1
  0
VERTEX
  8
0
 10
1779.4379391833238
 20
165.731911456896
 42
-1
  0
SEQEND
  0
POLYLINE
  8
0
 10
0
 20
0
 39
0
 70
1
 66
1
  0
VERTEX
  8
0
 10
1780.4196837367519
 20
390.72976568968409
 42
1
  0
VERTEX
  8
0
 10
1779.503388820219
 20
180.73176840574854
 42
1
  0
SEQEND
  0
POLYLINE
  8
0
 10
0
 20
0
 39
0
 70
1
 66
1
  0
VERTEX
  8
0
 10
1780.4851333736472
 20
915.86808417699808
 42
-1
  0
VERTEX
  8
0
 10
1779.4379391833238
 20
675.87037299535746
 42
-1
  0
SEQEND
  0
POLYLINE
  8
0
 10
0
 20
0
 39
0
 70
1
 66
1
  0
VERTEX
  8
0
 10
1780.4196837367519
 20
900.86822722814554
 42
1
  0
VERTEX
  8
0
 10
1779.503388820219
 20
690.87022994421
 42
1
  0
SEQEND
  0
POLYLINE
  8
0
 10
0
 20
0
 39
0
 70
1
 66
1
  0
VERTEX
  8
0
 10
229.91186217193754
 20
359.34543719326268
 42
-1
  0
VERTEX
  8
0
 10
229.25736580298545
 20
209.34686770473729
 42
-1
  0
SEQEND
  0
POLYLINE
  8
0
 10
0
 20
0
 39
0
 70
1
 66
1
  0
VERTEX
  8
0
 10
249.67168943512516
 20
304.25869553160976
 42
0
  0
VERTEX
  8
0
 10
209.67207090485172
 20
304.43322789666365
 42
0
  0
VERTEX
  8
0
 10
209.49753853979783
 20
264.43360936639021
 42
0
  0
VERTEX
  8
0
 10
249.49715707007127
 20
264.25907700133632
 42
0
  0
SEQEND
  0
POLYLINE
  8
0
 10
0
 20
0
 39
0
 70
1
 66
1
  0
VERTEX
  8
0
 10
229.91186217193754
 20
869.48389873172414
 42
-1
  0
VERTEX
  8
0
 10
229.25736580298545
 20
719.48532924319875
 42
-1
  0
SEQEND
  0
POLYLINE
  8
0
 10
0
 20
0
 39
0
 70
1
 66
1
  0
VERTEX
  8
0
 10
249.67168943512516
 20
814.39715707007122
 42
0
  0
VERTEX
  8
0
 10
209.67207090485172
 20
814.57168943512511
 42
0
  0
VERTEX
  8
0
 10
209.49753853979783
 20
774.57207090485167
 42
0
  0
VERTEX
  8
0
 10
249.49715707007127
 20
774.39753853979778
 42
0
  0
SEQEND
  0
POLYLINE
  8
0
 10
0
 20
0
 39
0
 70
1
 66
1
  0
VERTEX
  8
0
 10
666.98461538461538
 20
265.61538461538464
 42
-0
  0
VERTEX
  8
0
 10
666.98461538461538
 20
305.61538461538464
 42
0
  0
VERTEX
  8
0
 10
736.98461538461538
 20
375.61538461538464
 42
-0
  0
VERTEX
  8
0
 10
736.98461538461538
 20
195.61538461538464
 42
0
  0
SEQEND
  0
POLYLINE
  8
0
 10
0
 20
0
 39
0
 70
1
 66
1
  0
VERTEX
  8
0
 10
701.98461538461538
 20
291.11538461538464
 42
1
  0
VERTEX
  8
0
 10
701.98461538461538
 20
280.11538461538464
 42
1
  0
SEQEND
  0
POLYLINE
  8
0
 10
0
 20
0
 39
0
 70
1
 66
1
  0
VERTEX
  8
0
 10
666.98461538461538
 20
775.7538461538461
 42
-0
  0
VERTEX
  8
0
 10
666.98461538461538
 20
815.7538461538461
 42
0
  0
VERTEX
  8
0
 10
736.98461538461538
 20
885.7538461538461
 42
-0
  0
VERTEX
  8
0
 10
736.98461538461538
 20
705.7538461538461
 42
0
  0
SEQEND
  0
POLYLINE
  8
0
 10
0
 20
0
 39
0
 70
1
 66
1
  0
VERTEX
  8
0
 10
701.98461538461538
 20
801.2538461538461
 42
1
  0
VERTEX
  8
0
 10
701.98461538461538
 20
790.2538461538461
 42
1
  0
SEQEND
  0
POLYLINE
  8
0
 10
0
 20
0
 39
0
 70
1
 66
1
  0
VERTEX
  8
0
 10
110.16923076923077
 20
1030.4461538461537
 42
0
  0
VERTEX
  8
0
 10
10.169230769230765
 20
1030.4461538461537
 42
0
  0
VERTEX
  8
0
 10
10.169230769230765
 20
1080.4461538461537
 42
0
  0
VERTEX
  8
0
 10
110.16923076923077
 20
1080.4461538461537
 42
0
  0
SEQEND
  0
POLYLINE
  8
0
 10
0
 20
0
 39
0
 70
1
 66
1
  0
VERTEX
  8
0
 10
90.419230769230765
 20
1055.4461538461537
 42
1
  0
VERTEX
  8
0
 10
69.919230769230765
 20
1055.4461538461537
 42
1
  0
SEQEND
  0
POLYLINE
  8
0
 10
0
 20
0
 39
0
 70
1
 66
1
  0
VERTEX
  8
0
 10
102.73076923076923
 20
89.807692307692307
 42
0
  0
VERTEX
  8
0
 10
102.73076923076923
 20
189.80769230769232
 42
0
  0
VERTEX
  8
0
 10
152.73076923076923
 20
189.80769230769232
 42
0
  0
VERTEX
  8
0
 10
152.73076923076923
 20
89.807692307692307
 42
0
  0
SEQEND
  0
POLYLINE
  8
0
 10
0
 20
0
 39
0
 70
1
 66
1
  0
VERTEX
  8
0
 10
127.73076923076923
 20
109.55769230769231
 42
1
  0
VERTEX
  8
0
 10
127.73076923076923
 20
130.05769230769232
 42
1
  0
SEQEND
  0
POLYLINE
  8
0
 10
0
 20
0
 39
0
 70
1
 66
1
  0
VERTEX
  8
0
 10
102.73076923076923
 20
599.94615384615383
 42
0
  0
VERTEX
  8
0
 10
102.73076923076923
 20
699.94615384615383
 42
0
  0
VERTEX
  8
0
 10
152.73076923076923
 20
699.94615384615383
 42
0
  0
VERTEX
  8
0
 10
152.73076923076923
 20
599.94615384615383
 42
0
  0
SEQEND
  0
POLYLINE
  8
0
 10
0
 20
0
 39
0
 70
1
 66
1
  0
VERTEX
  8
0
 10
127.73076923076923
 20
619.69615384615383
 42
1
  0
VERTEX
  8
0
 10
127.73076923076923
 20
640.19615384615383
 42
1
  0
SEQEND
  0
POLYLINE
  8
0
 10
0
 20
0
 39
0
 70
1
 66
1
  0
VERTEX
  8
0
 10
220.33846153846153
 20
1030.4461538461537
 42
0
  0
VERTEX
  8
0
 10
120.33846153846153
 20
1030.4461538461537
 42
0
  0
VERTEX
  8
0
 10
120.33846153846153
 20
1080.4461538461537
 42
0
  0
VERTEX
  8
0
 10
220.33846153846153
 20
1080.4461538461537
 42
0
  0
SEQEND
  0
POLYLINE
  8
0
 10
0
 20
0
 39
0
 70
1
 66
1
  0
VERTEX
  8
0
 10
200.58846153846153
 20
1055.4461538461537
 42
1
  0
VERTEX
  8
0
 10
180.08846153846153
 20
1055.4461538461537
 42
1
  0
SEQEND
  0
POLYLINE
  8
0
 10
0
 20
0
 39
0
 70
1
 66
1
  0
VERTEX
  8
0
 10
330.50769230769231
 20
1030.4461538461537
 42
0
  0
VERTEX
  8
0
 10
230.50769230769231
 20
1030.4461538461537
 42
0
  0
VERTEX
  8
0
 10
230.50769230769231
 20
1080.4461538461537
 42
0
  0
VERTEX
  8
0
 10
330.50769230769231
 20
1080.4461538461537
 42
0
  0
SEQEND
  0
POLYLINE
  8
0
 10
0
 20
0
 39
0
 70
1
 66
1
  0
VERTEX
  8
0
 10
310.75769230769231
 20
1055.4461538461537
 42
1
  0
VERTEX
  8
0
 10
290.25769230769231
 20
1055.4461538461537
 42
1
  0
SEQEND
  0
POLYLINE
  8
0
 10
0
 20
0
 39
0
 70
1
 66
1
  0
VERTEX
  8
0
 10
343.90769230769229
 20
89.807692307692307
 42
0
  0
VERTEX
  8
0
 10
343.90769230769229
 20
189.80769230769232
 42
0
  0
VERTEX
  8
0
 10
393.90769230769229
 20
189.80769230769232
 42
0
  0
VERTEX
  8
0
 10
393.90769230769229
 20
89.807692307692307
 42
0
  0
SEQEND
  0
POLYLINE
  8
0
 10
0
 20
0
 39
0
 70
1
 66
1
  0
VERTEX
  8
0
 10
368.90769230769229
 20
109.55769230769231
 42
1
  0
VERTEX
  8
0
 10
368.90769230769229
 20
130.05769230769232
 42
1
  0
SEQEND
  0
POLYLINE
  8
0
 10
0
 20
0
 39
0
 70
1
 66
1
  0
VERTEX
  8
0
 10
343.90769230769229
 20
599.94615384615383
 42
0
  0
VERTEX
  8
0
 10
343.90769230769229
 20
699.94615384615383
 42
0
  0
VERTEX
  8
0
 10
393.90769230769229
 20
699.94615384615383
 42
0
  0
VERTEX
  8
0
 10
393.90769230769229
 20
599.94615384615383
 42
0
  0
SEQEND
  0
POLYLINE
  8
0
 10
0
 20
0
 39
0
 70
1
 66
1
  0
VERTEX
  8
0
 10
368.90769230769229
 20
619.69615384615383
 42
1
  0
VERTEX
  8
0
 10
368.90769230769229
 20
640.19615384615383
 42
1
  0
SEQEND
  0
POLYLINE
  8
0
 10
0
 20
0
 39
0
 70
1
 66
1
  0
VERTEX
  8
0
 10
440.67692307692306
 20
1030.4461538461537
 42
0
  0
VERTEX
  8
0
 10
340.67692307692306
 20
1030.4461538461537
 42
0
  0
VERTEX
  8
0
 10
340.67692307692306
 20
1080.4461538461537
 42
0
  0
VERTEX
  8
0
 10
440.67692307692306
 20
1080.4461538461537
 42
0
  0
SEQEND
  0
POLYLINE
  8
0
 10
0
 20
0
 39
0
 70
1
 66
1
  0
VERTEX
  8
0
 10
420.92692307692306
 20
1055.4461538461537
 42
1
  0
VERTEX
  8
0
 10
400.42692307692306
 20
1055.4461538461537
 42
1
  0
SEQEND
  0
POLYLINE
  8
0
 10
0
 20
0
 39
0
 70
1
 66
1
  0
VERTEX
  8
0
 10
550.84615384615381
 20
1030.4461538461537
 42
0
  0
VERTEX
  8
0
 10
450.84615384615381
 20
1030.4461538461537
 42
0
  0
VERTEX
  8
0
 10
450.84615384615381
 20
1080.4461538461537
 42
0
  0
VERTEX
  8
0
 10
550.84615384615381
 20
1080.4461538461537
 42
0
  0
SEQEND
  0
POLYLINE
  8
0
 10
0
 20
0
 39
0
 70
1
 66
1
  0
VERTEX
  8
0
 10
531.09615384615381
 20
1055.4461538461537
 42
1
  0
VERTEX
  8
0
 10
510.59615384615381
 20
1055.4461538461537
 42
1
  0
SEQEND
  0
POLYLINE
  8
0
 10
0
 20
0
 39
0
 70
1
 66
1
  0
VERTEX
  8
0
 10
661.01538461538462
 20
1030.4461538461537
 42
0
  0
VERTEX
  8
0
 10
561.01538461538462
 20
1030.4461538461537
 42
0
  0
VERTEX
  8
0
 10
561.01538461538462
 20
1080.4461538461537
 42
0
  0
VERTEX
  8
0
 10
661.01538461538462
 20
1080.4461538461537
 42
0
  0
SEQEND
  0
POLYLINE
  8
0
 10
0
 20
0
 39
0
 70
1
 66
1
  0
VERTEX
  8
0
 10
641.26538461538462
 20
1055.4461538461537
 42
1
  0
VERTEX
  8
0
 10
620.76538461538462
 20
1055.4461538461537
 42
1
  0
SEQEND
  0
POLYLINE
  8
0
 10
0
 20
0
 39
0
 70
1
 66
1
  0
VERTEX
  8
0
 10
613.03076923076924
 20
89.807692307692307
 42
0
  0
VERTEX
  8
0
 10
613.03076923076924
 20
189.80769230769232
 42
0
  0
VERTEX
  8
0
 10
663.03076923076924
 20
189.80769230769232
 42
0
  0
VERTEX
  8
0
 10
663.03076923076924
 20
89.807692307692307
 42
0
  0
SEQEND
  0
POLYLINE
  8
0
 10
0
 20
0
 39
0
 70
1
 66
1
  0
VERTEX
  8
0
 10
638.03076923076924
 20
109.55769230769231
 42
1
  0
VERTEX
  8
0
 10
638.03076923076924
 20
130.05769230769232
 42
1
  0
SEQEND
  0
POLYLINE
  8
0
 10
0
 20
0
 39
0
 70
1
 66
1
  0
VERTEX
  8
0
 10
613.03076923076924
 20
599.94615384615383
 42
0
  0
VERTEX
  8
0
 10
613.03076923076924
 20
699.94615384615383
 42
0
  0
VERTEX
  8
0
 10
663.03076923076924
 20
699.94615384615383
 42
0
  0
VERTEX
  8
0
 10
663.03076923076924
 20
599.94615384615383
 42
0
  0
SEQEND
  0
POLYLINE
  8
0
 10
0
 20
0
 39
0
 70
1
 66
1
  0
VERTEX
  8
0
 10
638.03076923076924
 20
619.69615384615383
 42
1
  0
VERTEX
  8
0
 10
638.03076923076924
 20
640.19615384615383
 42
1
  0
SEQEND
  0
POLYLINE
  8
0
 10
0
 20
0
 39
0
 70
1
 66
1
  0
VERTEX
  8
0
 10
771.18461538461531
 20
1030.4461538461537
 42
0
  0
VERTEX
  8
0
 10
671.18461538461531
 20
1030.4461538461537
 42
0
  0
VERTEX
  8
0
 10
671.18461538461531
 20
1080.4461538461537
 42
0
  0
VERTEX
  8
0
 10
771.18461538461531
 20
1080.4461538461537
 42
0
  0
SEQEND
  0
POLYLINE
  8
0
 10
0
 20
0
 39
0
 70
1
 66
1
  0
VERTEX
  8
0
 10
751.43461538461531
 20
1055.4461538461537
 42
1
  0
VERTEX
  8
0
 10
730.93461538461531
 20
1055.4461538461537
 42
1
  0
SEQEND
  0
POLYLINE
  8
0
 10
0
 20
0
 39
0
 70
1
 66
1
  0
VERTEX
  8
0
 10
747.26923076923072
 20
199.16923076923075
 42
0
  0
VERTEX
  8
0
 10
747.26923076923072
 20
299.16923076923075
 42
0
  0
VERTEX
  8
0
 10
797.26923076923072
 20
299.16923076923075
 42
0
  0
VERTEX
  8
0
 10
797.26923076923072
 20
199.16923076923075
 42
0
  0
SEQEND
  0
POLYLINE
  8
0
 10
0
 20
0
 39
0
 70
1
 66
1
  0
VERTEX
  8
0
 10
772.26923076923072
 20
218.91923076923075
 42
1
  0
VERTEX
  8
0
 10
772.26923076923072
 20
239.41923076923075
 42
1
  0
SEQEND
  0
POLYLINE
  8
0
 10
0
 20
0
 39
0
 70
1
 66
1
  0
VERTEX
  8
0
 10
747.26923076923072
 20
709.30769230769226
 42
0
  0
VERTEX
  8
0
 10
747.26923076923072
 20
809.30769230769226
 42
0
  0
VERTEX
  8
0
 10
797.26923076923072
 20
809.30769230769226
 42
0
  0
VERTEX
  8
0
 10
797.26923076923072
 20
709.30769230769226
 42
0
  0
SEQEND
  0
POLYLINE
  8
0
 10
0
 20
0
 39
0
 70
1
 66
1
  0
VERTEX
  8
0
 10
772.26923076923072
 20
729.05769230769226
 42
1
  0
VERTEX
  8
0
 10
772.26923076923072
 20
749.55769230769226
 42
1
  0
SEQEND
  0
POLYLINE
  8
0
 10
0
 20
0
 39
0
 70
1
 66
1
  0
VERTEX
  8
0
 10
881.35384615384612
 20
1030.4461538461537
 42
0
  0
VERTEX
  8
0
 10
781.35384615384612
 20
1030.4461538461537
 42
0
  0
VERTEX
  8
0
 10
781.35384615384612
 20
1080.4461538461537
 42
0
  0
VERTEX
  8
0
 10
881.35384615384612
 20
1080.4461538461537
 42
0
  0
SEQEND
  0
POLYLINE
  8
0
 10
0
 20
0
 39
0
 70
1
 66
1
  0
VERTEX
  8
0
 10
861.60384615384612
 20
1055.4461538461537
 42
1
  0
VERTEX
  8
0
 10
841.10384615384612
 20
1055.4461538461537
 42
1
  0
SEQEND
  0
POLYLINE
  8
0
 10
0
 20
0
 39
0
 70
1
 66
1
  0
VERTEX
  8
0
 10
854.20769230769224
 20
89.807692307692307
 42
0
  0
VERTEX
  8
0
 10
854.20769230769224
 20
189.80769230769232
 42
0
  0
VERTEX
  8
0
 10
904.20769230769224
 20
189.80769230769232
 42
0
  0
VERTEX
  8
0
 10
904.20769230769224
 20
89.807692307692307
 42
0
  0
SEQEND
  0
POLYLINE
  8
0
 10
0
 20
0
 39
0
 70
1
 66
1
  0
VERTEX
  8
0
 10
879.20769230769224
 20
109.55769230769231
 42
1
  0
VERTEX
  8
0
 10
879.20769230769224
 20
130.05769230769232
 42
1
  0
SEQEND
  0
POLYLINE
  8
0
 10
0
 20
0
 39
0
 70
1
 66
1
  0
VERTEX
  8
0
 10
854.20769230769224
 20
599.94615384615383
 42
0
  0
VERTEX
  8
0
 10
854.20769230769224
 20
699.94615384615383
 42
0
  0
VERTEX
  8
0
 10
904.20769230769224
 20
699.94615384615383
 42
0
  0
VERTEX
  8
0
 10
904.20769230769224
 20
599.94615384615383
 42
0
  0
SEQEND
  0
POLYLINE
  8
0
 10
0
 20
0
 39
0
 70
1
 66
1
  0
VERTEX
  8
0
 10
879.20769230769224
 20
619.69615384615383
 42
1
  0
VERTEX
  8
0
 10
879.20769230769224
 20
640.19615384615383
 42
1
  0
SEQEND
  0
POLYLINE
  8
0
 10
0
 20
0
 39
0
 70
1
 66
1
  0
VERTEX
  8
0
 10
991.52307692307693
 20
1030.4461538461537
 42
0
  0
VERTEX
  8
0
 10
891.52307692307693
 20
1030.4461538461537
 42
0
  0
VERTEX
  8
0
 10
891.52307692307693
 20
1080.4461538461537
 42
0
  0
VERTEX
  8
0
 10
991.52307692307693
 20
1080.4461538461537
 42
0
  0
SEQEND
  0
POLYLINE
  8
0
 10
0
 20
0
 39
0
 70
1
 66
1
  0
VERTEX
  8
0
 10
971.77307692307693
 20
1055.4461538461537
 42
1
  0
VERTEX
  8
0
 10
951.27307692307693
 20
1055.4461538461537
 42
1
  0
SEQEND
  0
POLYLINE
  8
0
 10
0
 20
0
 39
0
 70
1
 66
1
  0
VERTEX
  8
0
 10
1101.6923076923076
 20
1030.4461538461537
 42
0
  0
VERTEX
  8
0
 10
1001.6923076923076
 20
1030.4461538461537
 42
0
  0
VERTEX
  8
0
 10
1001.6923076923076
 20
1080.4461538461537
 42
0
  0
VERTEX
  8
0
 10
1101.6923076923076
 20
1080.4461538461537
 42
0
  0
SEQEND
  0
POLYLINE
  8
0
 10
0
 20
0
 39
0
 70
1
 66
1
  0
VERTEX
  8
0
 10
1081.9423076923076
 20
1055.4461538461537
 42
1
  0
VERTEX
  8
0
 10
1061.4423076923076
 20
1055.4461538461537
 42
1
  0
SEQEND
  0
POLYLINE
  8
0
 10
0
 20
0
 39
0
 70
1
 66
1
  0
VERTEX
  8
0
 10
1123.3307692307692
 20
89.807692307692307
 42
0
  0
VERTEX
  8
0
 10
1123.3307692307692
 20
189.80769230769232
 42
0
  0
VERTEX
  8
0
 10
1173.3307692307692
 20
189.80769230769232
 42
0
  0
VERTEX
  8
0
 10
1173.3307692307692
 20
89.807692307692307
 42
0
  0
SEQEND
  0
POLYLINE
  8
0
 10
0
 20
0
 39
0
 70
1
 66
1
  0
VERTEX
  8
0
 10
1148.3307692307692
 20
109.55769230769231
 42
1
  0
VERTEX
  8
0
 10
1148.3307692307692
 20
130.05769230769232
 42
1
  0
SEQEND
  0
POLYLINE
  8
0
 10
0
 20
0
 39
0
 70
1
 66
1
  0
VERTEX
  8
0
 10
1123.3307692307692
 20
599.94615384615383
 42
0
  0
VERTEX
  8
0
 10
1123.3307692307692
 20
699.94615384615383
 42
0
  0
VERTEX
  8
0
 10
1173.3307692307692
 20
699.94615384615383
 42
0
  0
VERTEX
  8
0
 10
1173.3307692307692
 20
599.94615384615383
 42
0
  0
SEQEND
  0
POLYLINE
  8
0
 10
0
 20
0
 39
0
 70
1
 66
1
  0
VERTEX
  8
0
 10
1148.3307692307692
 20
619.69615384615383
 42
1
  0
VERTEX
  8
0
 10
1148.3307692307692
 20
640.19615384615383
 42
1
  0
SEQEND
  0
POLYLINE
  8
0
 10
0
 20
0
 39
0
 70
1
 66
1
  0
VERTEX
  8
0
 10
1211.8615384615384
 20
1030.4461538461537
 42
0
  0
VERTEX
  8
0
 10
1111.8615384615384
 20
1030.4461538461537
 42
0
  0
VERTEX
  8
0
 10
1111.8615384615384
 20
1080.4461538461537
 42
0
  0
VERTEX
  8
0
 10
1211.8615384615384
 20
1080.4461538461537
 42
0
  0
SEQEND
  0
POLYLINE
  8
0
 10
0
 20
0
 39
0
 70
1
 66
1
  0
VERTEX
  8
0
 10
1192.1115384615384
 20
1055.4461538461537
 42
1
  0
VERTEX
  8
0
 10
1171.6115384615384
 20
1055.4461538461537
 42
1
  0
SEQEND
  0
POLYLINE
  8
0
 10
0
 20
0
 39
0
 70
1
 66
1
  0
VERTEX
  8
0
 10
1189.3999999999999
 20
235.67692307692306
 42
0
  0
VERTEX
  8
0
 10
1189.3999999999999
 20
335.67692307692306
 42
0
  0
VERTEX
  8
0
 10
1239.3999999999999
 20
335.67692307692306
 42
0
  0
VERTEX
  8
0
 10
1239.3999999999999
 20
235.67692307692306
 42
0
  0
SEQEND
  0
POLYLINE
  8
0
 10
0
 20
0
 39
0
 70
1
 66
1
  0
VERTEX
  8
0
 10
1214.3999999999999
 20
255.42692307692306
 42
1
  0
VERTEX
  8
0
 10
1214.3999999999999
 20
275.92692307692306
 42
1
  0
SEQEND
  0
POLYLINE
  8
0
 10
0
 20
0
 39
0
 70
1
 66
1
  0
VERTEX
  8
0
 10
1189.3999999999999
 20
745.81538461538457
 42
0
  0
VERTEX
  8
0
 10
1189.3999999999999
 20
845.81538461538457
 42
0
  0
VERTEX
  8
0
 10
1239.3999999999999
 20
845.81538461538457
 42
0
  0
VERTEX
  8
0
 10
1239.3999999999999
 20
745.81538461538457
 42
0
  0
SEQEND
  0
POLYLINE
  8
0
 10
0
 20
0
 39
0
 70
1
 66
1
  0
VERTEX
  8
0
 10
1214.3999999999999
 20
765.56538461538457
 42
1
  0
VERTEX
  8
0
 10
1214.3999999999999
 20
786.06538461538457
 42
1
  0
SEQEND
  0
POLYLINE
  8
0
 10
0
 20
0
 39
0
 70
1
 66
1
  0
VERTEX
  8
0
 10
1249.6538461538462
 20
196.09999999999999
 42
0
  0
VERTEX
  8
0
 10
1249.6538461538462
 20
296.10000000000002
 42
0
  0
VERTEX
  8
0
 10
1299.6538461538462
 20
296.10000000000002
 42
0
  0
VERTEX
  8
0
 10
1299.6538461538462
 20
196.09999999999999
 42
0
  0
SEQEND
  0
POLYLINE
  8
0
 10
0
 20
0
 39
0
 70
1
 66
1
  0
VERTEX
  8
0
 10
1274.6538461538462
 20
215.84999999999999
 42
1
  0
VERTEX
  8
0
 10
1274.6538461538462
 20
236.34999999999999
 42
1
  0
SEQEND
  0
POLYLINE
  8
0
 10
0
 20
0
 39
0
 70
1
 66
1
  0
VERTEX
  8
0
 10
1249.6538461538462
 20
706.23846153846148
 42
0
  0
VERTEX
  8
0
 10
1249.6538461538462
 20
806.23846153846148
 42
0
  0
VERTEX
  8
0
 10
1299.6538461538462
 20
806.23846153846148
 42
0
  0
VERTEX
  8
0
 10
1299.6538461538462
 20
706.23846153846148
 42
0
  0
SEQEND
  0
POLYLINE
  8
0
 10
0
 20
0
 39
0
 70
1
 66
1
  0
VERTEX
  8
0
 10
1274.6538461538462
 20
725.98846153846148
 42
1
  0
VERTEX
  8
0
 10
1274.6538461538462
 20
746.48846153846148
 42
1
  0
SEQEND
  0
POLYLINE
  8
0
 10
0
 20
0
 39
0
 70
1
 66
1
  0
VERTEX
  8
0
 10
1322.0307692307692
 20
1030.4461538461537
 42
0
  0
VERTEX
  8
0
 10
1222.0307692307692
 20
1030.4461538461537
 42
0
  0
VERTEX
  8
0
 10
1222.0307692307692
 20
1080.4461538461537
 42
0
  0
VERTEX
  8
0
 10
1322.0307692307692
 20
1080.4461538461537
 42
0
  0
SEQEND
  0
POLYLINE
  8
0
 10
0
 20
0
 39
0
 70
1
 66
1
  0
VERTEX
  8
0
 10
1302.2807692307692
 20
1055.4461538461537
 42
1
  0
VERTEX
  8
0
 10
1281.7807692307692
 20
1055.4461538461537
 42
1
  0
SEQEND
  0
POLYLINE
  8
0
 10
0
 20
0
 39
0
 70
1
 66
1
  0
VERTEX
  8
0
 10
1364.6692307692308
 20
89.807692307692307
 42
0
  0
VERTEX
  8
0
 10
1364.6692307692308
 20
189.80769230769232
 42
0
  0
VERTEX
  8
0
 10
1414.6692307692308
 20
189.80769230769232
 42
0
  0
VERTEX
  8
0
 10
1414.6692307692308
 20
89.807692307692307
 42
0
  0
SEQEND
  0
POLYLINE
  8
0
 10
0
 20
0
 39
0
 70
1
 66
1
  0
VERTEX
  8
0
 10
1389.6692307692308
 20
109.55769230769231
 42
1
  0
VERTEX
  8
0
 10
1389.6692307692308
 20
130.05769230769232
 42
1
  0
SEQEND
  0
POLYLINE
  8
0
 10
0
 20
0
 39
0
 70
1
 66
1
  0
VERTEX
  8
0
 10
1364.6692307692308
 20
599.94615384615383
 42
0
  0
VERTEX
  8
0
 10
1364.6692307692308
 20
699.94615384615383
 42
0
  0
VERTEX
  8
0
 10
1414.6692307692308
 20
699.94615384615383
 42
0
  0
VERTEX
  8
0
 10
1414.6692307692308
 20
599.94615384615383
 42
0
  0
SEQEND
  0
POLYLINE
  8
0
 10
0
 20
0
 39
0
 70
1
 66
1
  0
VERTEX
  8
0
 10
1389.6692307692308
 20
619.69615384615383
 42
1
  0
VERTEX
  8
0
 10
1389.6692307692308
 20
640.19615384615383
 42
1
  0
SEQEND
  0
POLYLINE
  8
0
 10
0
 20
0
 39
0
 70
1
 66
1
  0
VERTEX
  8
0
 10
1432.2
 20
1030.4461538461537
 42
0
  0
VERTEX
  8
0
 10
1332.2
 20
1030.4461538461537
 42
0
  0
VERTEX
  8
0
 10
1332.2
 20
1080.4461538461537
 42
0
  0
VERTEX
  8
0
 10
1432.2
 20
1080.4461538461537
 42
0
  0
SEQEND
  0
POLYLINE
  8
0
 10
0
 20
0
 39
0
 70
1
 66
1
  0
VERTEX
  8
0
 10
1412.45
 20
1055.4461538461537
 42
1
  0
VERTEX
  8
0
 10
1391.95
 20
1055.4461538461537
 42
1
  0
SEQEND
  0
POLYLINE
  8
0
 10
0
 20
0
 39
0
 70
1
 66
1
  0
VERTEX
  8
0
 10
1542.3692307692306
 20
1030.4461538461537
 42
0
  0
VERTEX
  8
0
 10
1442.3692307692306
 20
1030.4461538461537
 42
0
  0
VERTEX
  8
0
 10
1442.3692307692306
 20
1080.4461538461537
 42
0
  0
VERTEX
  8
0
 10
1542.3692307692306
 20
1080.4461538461537
 42
0
  0
SEQEND
  0
POLYLINE
  8
0
 10
0
 20
0
 39
0
 70
1
 66
1
  0
VERTEX
  8
0
 10
1522.6192307692306
 20
1055.4461538461537
 42
1
  0
VERTEX
  8
0
 10
1502.1192307692306
 20
1055.4461538461537
 42
1
  0
SEQEND
  0
POLYLINE
  8
0
 10
0
 20
0
 39
0
 70
1
 66
1
  0
VERTEX
  8
0
 10
1652.5384615384614
 20
1030.4461538461537
 42
0
  0
VERTEX
  8
0
 10
1552.5384615384614
 20
1030.4461538461537
 42
0
  0
VERTEX
  8
0
 10
1552.5384615384614
 20
1080.4461538461537
 42
0
  0
VERTEX
  8
0
 10
1652.5384615384614
 20
1080.4461538461537
 42
0
  0
SEQEND
  0
POLYLINE
  8
0
 10
0
 20
0
 39
0
 70
1
 66
1
  0
VERTEX
  8
0
 10
1632.7884615384614
 20
1055.4461538461537
 42
1
  0
VERTEX
  8
0
 10
1612.2884615384614
 20
1055.4461538461537
 42
1
  0
SEQEND
  0
POLYLINE
  8
0
 10
0
 20
0
 39
0
 70
1
 66
1
  0
VERTEX
  8
0
 10
1633.6307692307691
 20
89.807692307692307
 42
0
  0
VERTEX
  8
0
 10
1633.6307692307691
 20
189.80769230769232
 42
0
  0
VERTEX
  8
0
 10
1683.6307692307691
 20
189.80769230769232
 42
0
  0
VERTEX
  8
0
 10
1683.6307692307691
 20
89.807692307692307
 42
0
  0
SEQEND
  0
POLYLINE
  8
0
 10
0
 20
0
 39
0
 70
1
 66
1
  0
VERTEX
  8
0
 10
1658.6307692307691
 20
109.55769230769231
 42
1
  0
VERTEX
  8
0
 10
1658.6307692307691
 20
130.05769230769232
 42
1
  0
SEQEND
  0
POLYLINE
  8
0
 10
0
 20
0
 39
0
 70
1
 66
1
  0
VERTEX
  8
0
 10
1633.6307692307691
 20
599.94615384615383
 42
0
  0
VERTEX
  8
0
 10
1633.6307692307691
 20
699.94615384615383
 42
0
  0
VERTEX
  8
0
 10
1683.6307692307691
 20
699.94615384615383
 42
0
  0
VERTEX
  8
0
 10
1683.6307692307691
 20
599.94615384615383
 42
0
  0
SEQEND
  0
POLYLINE
  8
0
 10
0
 20
0
 39
0
 70
1
 66
1
  0
VERTEX
  8
0
 10
1658.6307692307691
 20
619.69615384615383
 42
1
  0
VERTEX
  8
0
 10
1658.6307692307691
 20
640.19615384615383
 42
1
  0
SEQEND
  0
POLYLINE
  8
0
 10
0
 20
0
 39
0
 70
1
 66
1
  0
VERTEX
  8
0
 10
1699.7
 20
235.67692307692306
 42
0
  0
VERTEX
  8
0
 10
1699.7
 20
335.67692307692306
 42
0
  0
VERTEX
  8
0
 10
1749.7
 20
335.67692307692306
 42
0
  0
VERTEX
  8
0
 10
1749.7
 20
235.67692307692306
 42
0
  0
SEQEND
  0
POLYLINE
  8
0
 10
0
 20
0
 39
0
 70
1
 66
1
  0
VERTEX
  8
0
 10
1724.7
 20
255.42692307692306
 42
1
  0
VERTEX
  8
0
 10
1724.7
 20
275.92692307692306
 42
1
  0
SEQEND
  0
POLYLINE
  8
0
 10
0
 20
0
 39
0
 70
1
 66
1
  0
VERTEX
  8
0
 10
1699.7
 20
745.81538461538457
 42
0
  0
VERTEX
  8
0
 10
1699.7
 20
845.81538461538457
 42
0
  0
VERTEX
  8
0
 10
1749.7
 20
845.81538461538457
 42
0
  0
VERTEX
  8
0
 10
1749.7
 20
745.81538461538457
 42
0
  0
SEQEND
  0
POLYLINE
  8
0
 10
0
 20
0
 39
0
 70
1
 66
1
  0
VERTEX
  8
0
 10
1724.7
 20
765.56538461538457
 42
1
  0
VERTEX
  8
0
 10
1724.7
 20
786.06538461538457
 42
1
  0
SEQEND
  0
POLYLINE
  8
0
 10
0
 20
0
 39
0
 70
1
 66
1
  0
VERTEX
  8
0
 10
1762.7076923076922
 20
1030.4461538461537
 42
0
  0
VERTEX
  8
0
 10
1662.7076923076922
 20
1030.4461538461537
 42
0
  0
VERTEX
  8
0
 10
1662.7076923076922
 20
1080.4461538461537
 42
0
  0
VERTEX
  8
0
 10
1762.7076923076922
 20
1080.4461538461537
 42
0
  0
SEQEND
  0
POLYLINE
  8
0
 10
0
 20
0
 39
0
 70
1
 66
1
  0
VERTEX
  8
0
 10
1742.9576923076922
 20
1055.4461538461537
 42
1
  0
VERTEX
  8
0
 10
1722.4576923076922
 20
1055.4461538461537
 42
1
  0
SEQEND
  0
POLYLINE
  8
0
 10
0
 20
0
 39
0
 70
1
 66
1
  0
VERTEX
  8
0
 10
1759.9538461538461
 20
196.09999999999999
 42
0
  0
VERTEX
  8
0
 10
1759.9538461538461
 20
296.10000000000002
 42
0
  0
VERTEX
  8
0
 10
1809.9538461538461
 20
296.10000000000002
 42
0
  0
VERTEX
  8
0
 10
1809.9538461538461
 20
196.09999999999999
 42
0
  0
SEQEND
  0
POLYLINE
  8
0
 10
0
 20
0
 39
0
 70
1
 66
1
  0
VERTEX
  8
0
 10
1784.9538461538461
 20
215.84999999999999
 42
1
  0
VERTEX
  8
0
 10
1784.9538461538461
 20
236.34999999999999
 42
1
  0
SEQEND
  0
POLYLINE
  8
0
 10
0
 20
0
 39
0
 70
1
 66
1
  0
VERTEX
  8
0
 10
1759.9538461538461
 20
706.23846153846148
 42
0
  0
VERTEX
  8
0
 10
1759.9538461538461
 20
806.23846153846148
 42
0
  0
VERTEX
  8
0
 10
1809.9538461538461
 20
806.23846153846148
 42
0
  0
VERTEX
  8
0
 10
1809.9538461538461
 20
706.23846153846148
 42
0
  0
SEQEND
  0
POLYLINE
  8
0
 10
0
 20
0
 39
0
 70
1
 66
1
  0
VERTEX
  8
0
 10
1784.9538461538461
 20
725.98846153846148
 42
1
  0
VERTEX
  8
0
 10
1784.9538461538461
 20
746.48846153846148
 42
1
  0
SEQEND
  0
POLYLINE
  8
0
 10
0
 20
0
 39
0
 70
1
 66
1
  0
VERTEX
  8
0
 10
1872.876923076923
 20
1030.4461538461537
 42
0
  0
VERTEX
  8
0
 10
1772.876923076923
 20
1030.4461538461537
 42
0
  0
VERTEX
  8
0
 10
1772.876923076923
 20
1080.4461538461537
 42
0
  0
VERTEX
  8
0
 10
1872.876923076923
 20
1080.4461538461537
 42
0
  0
SEQEND
  0
POLYLINE
  8
0
 10
0
 20
0
 39
0
 70
1
 66
1
  0
VERTEX
  8
0
 10
1853.126923076923
 20
1055.4461538461537
 42
1
  0
VERTEX
  8
0
 10
1832.626923076923
 20
1055.4461538461537
 42
1
  0
SEQEND
  0
POLYLINE
  8
0
 10
0
 20
0
 39
0
 70
1
 66
1
  0
VERTEX
  8
0
 10
1874.8076923076922
 20
89.807692307692307
 42
0
  0
VERTEX
  8
0
 10
1874.8076923076922
 20
189.80769230769232
 42
0
  0
VERTEX
  8
0
 10
1924.8076923076922
 20
189.80769230769232
 42
0
  0
VERTEX
  8
0
 10
1924.8076923076922
 20
89.807692307692307
 42
0
  0
SEQEND
  0
POLYLINE
  8
0
 10
0
 20
0
 39
0
 70
1
 66
1
  0
VERTEX
  8
0
 10
1899.8076923076922
 20
109.55769230769231
 42
1
  0
VERTEX
  8
0
 10
1899.8076923076922
 20
130.05769230769232
 42
1
  0
SEQEND
  0
POLYLINE
  8
0
 10
0
 20
0
 39
0
 70
1
 66
1
  0
VERTEX
  8
0
 10
1874.8076923076922
 20
599.94615384615383
 42
0
  0
VERTEX
  8
0
 10
1874.8076923076922
 20
699.94615384615383
 42
0
  0
VERTEX
  8
0
 10
1924.8076923076922
 20
699.94615384615383
 42
0
  0
VERTEX
  8
0
 10
1924.8076923076922
 20
599.94615384615383
 42
0
  0
SEQEND
  0
POLYLINE
  8
0
 10
0
 20
0
 39
0
 70
1
 66
1
  0
VERTEX
  8
0
 10
1899.8076923076922
 20
619.69615384615383
 42
1
  0
VERTEX
  8
0
 10
1899.8076923076922
 20
640.19615384615383
 42
1
  0
SEQEND
  0
POLYLINE
  8
0
 10
0
 20
0
 39
0
 70
1
 66
1
  0
VERTEX
  8
0
 10
1983.0461538461539
 20
1030.4461538461537
 42
0
  0
VERTEX
  8
0
 10
1883.0461538461539
 20
1030.4461538461537
 42
0
  0
VERTEX
  8
0
 10
1883.0461538461539
 20
1080.4461538461537
 42
0
  0
VERTEX
  8
0
 10
1983.0461538461539
 20
1080.4461538461537
 42
0
  0
SEQEND
  0
POLYLINE
  8
0
 10
0
 20
0
 39
0
 70
1
 66
1
  0
VERTEX
  8
0
 10
1963.2961538461539
 20
1055.4461538461537
 42
1
  0
VERTEX
  8
0
 10
1942.7961538461539
 20
1055.4461538461537
 42
1
  0
SEQEND
  0
POLYLINE
  8
0
 10
0
 20
0
 39
0
 70
1
 66
1
  0
VERTEX
  8
0
 10
789.38641826923049
 20
370.73746995192414
 42
-0.76732701063156128
  0
VERTEX
  8
0
 10
789.38739483173049
 20
317.61246995192414
 42
0
  0
VERTEX
  8
0
 10
747.26923076923049
 20
309.17692307692414
 42
0
  0
VERTEX
  8
0
 10
747.26923076923049
 20
379.17496995192414
 42
0
  0
SEQEND
  0
POLYLINE
  8
0
 10
0
 20
0
 39
0
 70
1
 66
1
  0
VERTEX
  8
0
 10
782.26923076923049
 20
329.17496995192414
 42
1
  0
VERTEX
  8
0
 10
782.26923076923049
 20
359.17496995192414
 42
1
  0
SEQEND
  0
POLYLINE
  8
0
 10
0
 20
0
 39
0
 70
1
 66
1
  0
VERTEX
  8
0
 10
789.38641826923049
 20
880.87593149038366
 42
-0.76732701063156128
  0
VERTEX
  8
0
 10
789.38739483173049
 20
827.75093149038366
 42
0
  0
VERTEX
  8
0
 10
747.26923076923049
 20
819.31538461538366
 42
0
  0
VERTEX
  8
0
 10
747.26923076923049
 20
889.31343149038366
 42
0
  0
SEQEND
  0
POLYLINE
  8
0
 10
0
 20
0
 39
0
 70
1
 66
1
  0
VERTEX
  8
0
 10
782.26923076923049
 20
839.31343149038366
 42
1
  0
VERTEX
  8
0
 10
782.26923076923049
 20
869.31343149038366
 42
1
  0
SEQEND
  0
POLYLINE
  8
0
 10
0
 20
0
 39
0
 70
1
 66
1
  0
VERTEX
  8
0
 10
1291.7710336538457
 20
367.66823918269074
 42
-0.76732701063156128
  0
VERTEX
  8
0
 10
1291.7720102163457
 20
314.54323918269074
 42
0
  0
VERTEX
  8
0
 10
1249.6538461538457
 20
306.10769230769074
 42
0
  0
VERTEX
  8
0
 10
1249.6538461538457
 20
376.10573918269074
 42
0
  0
SEQEND
  0
POLYLINE
  8
0
 10
0
 20
0
 39
0
 70
1
 66
1
  0
VERTEX
  8
0
 10
1284.6538461538457
 20
326.10573918269074
 42
1
  0
VERTEX
  8
0
 10
1284.6538461538457
 20
356.10573918269074
 42
1
  0
SEQEND
  0
POLYLINE
  8
0
 10
0
 20
0
 39
0
 70
1
 66
1
  0
VERTEX
  8
0
 10
1291.7710336538457
 20
877.8067007211539
 42
-0.76732701063156128
  0
VERTEX
  8
0
 10
1291.7720102163457
 20
824.6817007211539
 42
0
  0
VERTEX
  8
0
 10
1249.6538461538457
 20
816.2461538461539
 42
0
  0
VERTEX
  8
0
 10
1249.6538461538457
 20
886.2442007211539
 42
0
  0
SEQEND
  0
POLYLINE
  8
0
 10
0
 20
0
 39
0
 70
1
 66
1
  0
VERTEX
  8
0
 10
1284.6538461538457
 20
836.2442007211539
 42
1
  0
VERTEX
  8
0
 10
1284.6538461538457
 20
866.2442007211539
 42
1
  0
SEQEND
  0
POLYLINE
  8
0
 10
0
 20
0
 39
0
 70
1
 66
1
  0
VERTEX
  8
0
 10
1802.0710336538468
 20
367.66823918269074
 42
-0.76732701063156128
  0
VERTEX
  8
0
 10
1802.0720102163468
 20
314.54323918269074
 42
0
  0
VERTEX
  8
0
 10
1759.9538461538468
 20
306.10769230769074
 42
0
  0
VERTEX
  8
0
 10
1759.9538461538468
 20
376.10573918269074
 42
0
  0
SEQEND
  0
POLYLINE
  8
0
 10
0
 20
0
 39
0
 70
1
 66
1
  0
VERTEX
  8
0
 10
1794.9538461538468
 20
326.10573918269074
 42
1
  0
VERTEX
  8
0
 10
1794.9538461538468
 20
356.10573918269074
 42
1
  0
SEQEND
  0
POLYLINE
  8
0
 10
0
 20
0
 39
0
 70
1
 66
1
  0
VERTEX
  8
0
 10
1802.0710336538468
 20
877.8067007211539
 42
-0.76732701063156128
  0
VERTEX
  8
0
 10
1802.0720102163468
 20
824.6817007211539
 42
0
  0
VERTEX
  8
0
 10
1759.9538461538468
 20
816.2461538461539
 42
0
  0
VERTEX
  8
0
 10
1759.9538461538468
 20
886.2442007211539
 42
0
  0
SEQEND
  0
POLYLINE
  8
0
 10
0
 20
0
 39
0
 70
1
 66
1
  0
VERTEX
  8
0
 10
1794.9538461538468
 20
836.2442007211539
 42
1
  0
VERTEX
  8
0
 10
1794.9538461538468
 20
866.2442007211539
 42
1
  0
SEQEND
  0
POLYLINE
  8
0
 10
0
 20
0
 39
0
 70
1
 66
1
  0
VERTEX
  8
0
 10
1337.1307692307691
 20
318.60769230769233
 42
-0.41421356797218323
  0
VERTEX
  8
0
 10
1350.1307692307691
 20
305.60769230769233
 42
-0
  0
VERTEX
  8
0
 10
1350.1307692307691
 20
245.6076923076923
 42
-0.41421356797218323
  0
VERTEX
  8
0
 10
1337.1307692307691
 20
232.6076923076923
 42
-0
  0
VERTEX
  8
0
 10
1327.1307692307691
 20
232.6076923076923
 42
0
  0
VERTEX
  8
0
 10
1327.1307692307691
 20
292.60769230769233
 42
0
  0
VERTEX
  8
0
 10
1321.1307692307691
 20
292.60769230769233
 42
-1
  0
VERTEX
  8
0
 10
1321.1307692307691
 20
318.60769230769233
 42
-0
  0
SEQEND
  0
POLYLINE
  8
0
 10
0
 20
0
 39
0
 70
1
 66
1
  0
VERTEX
  8
0
 10
1321.1307692307691
 20
300.35769230769233
 42
1
  0
VERTEX
  8
0
 10
1321.1307692307691
 20
310.85769230769233
 42
1
  0
SEQEND
  0
POLYLINE
  8
0
 10
0
 20
0
 39
0
 70
1
 66
1
  0
VERTEX
  8
0
 10
1337.1307692307691
 20
828.74615384615379
 42
-0.41421356797218323
  0
VERTEX
  8
0
 10
1350.1307692307691
 20
815.74615384615379
 42
-0
  0
VERTEX
  8
0
 10
1350.1307692307691
 20
755.74615384615379
 42
-0.41421356797218323
  0
VERTEX
  8
0
 10
1337.1307692307691
 20
742.74615384615379
 42
-0
  0
VERTEX
  8
0
 10
1327.1307692307691
 20
742.74615384615379
 42
0
  0
VERTEX
  8
0
 10
1327.1307692307691
 20
802.74615384615379
 42
0
  0
VERTEX
  8
0
 10
1321.1307692307691
 20
802.74615384615379
 42
-1
  0
VERTEX
  8
0
 10
1321.1307692307691
 20
828.74615384615379
 42
-0
  0
SEQEND
  0
POLYLINE
  8
0
 10
0
 20
0
 39
0
 70
1
 66
1
  0
VERTEX
  8
0
 10
1321.1307692307691
 20
810.49615384615379
 42
1
  0
VERTEX
  8
0
 10
1321.1307692307691
 20
820.99615384615379
 42
1
  0
SEQEND
  0
POLYLINE
  8
0
 10
0
 20
0
 39
0
 70
1
 66
1
  0
VERTEX
  8
0
 10
1847.4307692307691
 20
318.60769230769233
 42
-0.41421356797218323
  0
VERTEX
  8
0
 10
1860.4307692307691
 20
305.60769230769233
 42
-0
  0
VERTEX
  8
0
 10
1860.4307692307691
 20
245.6076923076923
 42
-0.41421356797218323
  0
VERTEX
  8
0
 10
1847.4307692307691
 20
232.6076923076923
 42
-0
  0
VERTEX
  8
0
 10
1837.4307692307691
 20
232.6076923076923
 42
0
  0
VERTEX
  8
0
 10
1837.4307692307691
 20
292.60769230769233
 42
0
  0
VERTEX
  8
0
 10
1831.4307692307691
 20
292.60769230769233
 42
-1
  0
VERTEX
  8
0
 10
1831.4307692307691
 20
318.60769230769233
 42
-0
  0
SEQEND
  0
POLYLINE
  8
0
 10
0
 20
0
 39
0
 70
1
 66
1
  0
VERTEX
  8
0
 10
1831.4307692307691
 20
300.35769230769233
 42
1
  0
VERTEX
  8
0
 10
1831.4307692307691
 20
310.85769230769233
 42
1
  0
SEQEND
  0
POLYLINE
  8
0
 10
0
 20
0
 39
0
 70
1
 66
1
  0
VERTEX
  8
0
 10
1847.4307692307691
 20
828.74615384615379
 42
-0.41421356797218323
  0
VERTEX
  8
0
 10
1860.4307692307691
 20
815.74615384615379
 42
-0
  0
VERTEX
  8
0
 10
1860.4307692307691
 20
755.74615384615379
 42
-0.41421356797218323
  0
VERTEX
  8
0
 10
1847.4307692307691
 20
742.74615384615379
 42
-0
  0
VERTEX
  8
0
 10
1837.4307692307691
 20
742.74615384615379
 42
0
  0
VERTEX
  8
0
 10
1837.4307692307691
 20
802.74615384615379
 42
0
  0
VERTEX
  8
0
 10
1831.4307692307691
 20
802.74615384615379
 42
-1
  0
VERTEX
  8
0
 10
1831.4307692307691
 20
828.74615384615379
 42
-0
  0
SEQEND
  0
POLYLINE
  8
0
 10
0
 20
0
 39
0
 70
1
 66
1
  0
VERTEX
  8
0
 10
1831.4307692307691
 20
810.49615384615379
 42
1
  0
VERTEX
  8
0
 10
1831.4307692307691
 20
820.99615384615379
 42
1
  0
SEQEND
  0
POLYLINE
  8
0
 10
0
 20
0
 39
0
 70
1
 66
1
  0
VERTEX
  8
0
 10
2061.6307692307691
 20
1056.353846153846
 42
-0.41421356797218323
  0
VERTEX
  8
0
 10
2074.6307692307691
 20
1043.353846153846
 42
-0
  0
VERTEX
  8
0
 10
2074.6307692307691
 20
983.35384615384612
 42
-0.41421356797218323
  0
VERTEX
  8
0
 10
2061.6307692307691
 20
970.35384615384612
 42
-0
  0
VERTEX
  8
0
 10
2051.6307692307691
 20
970.35384615384612
 42
0
  0
VERTEX
  8
0
 10
2051.6307692307691
 20
1030.353846153846
 42
0
  0
VERTEX
  8
0
 10
2045.6307692307691
 20
1030.353846153846
 42
-1
  0
VERTEX
  8
0
 10
2045.6307692307691
 20
1056.353846153846
 42
-0
  0
SEQEND
  0
POLYLINE
  8
0
 10
0
 20
0
 39
0
 70
1
 66
1
  0
VERTEX
  8
0
 10
2045.6307692307691
 20
1038.103846153846
 42
1
  0
VERTEX
  8
0
 10
2045.6307692307691
 20
1048.603846153846
 42
1
  0
SEQEND
  0
POLYLINE
  8
0
 10
0
 20
0
 39
0
 70
1
 66
1
  0
VERTEX
  8
0
 10
1993.2153846153842
 20
1076.7307692307693
 42
-0.41421356797218323
  0
VERTEX
  8
0
 10
2006.2153846153842
 20
1089.7307692307693
 42
-0
  0
VERTEX
  8
0
 10
2066.2153846153842
 20
1089.7307692307693
 42
-0.41421356797218323
  0
VERTEX
  8
0
 10
2079.2153846153842
 20
1076.7307692307693
 42
-0
  0
VERTEX
  8
0
 10
2079.2153846153842
 20
1066.7307692307693
 42
0
  0
VERTEX
  8
0
 10
2019.2153846153842
 20
1066.7307692307693
 42
0
  0
VERTEX
  8
0
 10
2019.2153846153842
 20
1060.7307692307693
 42
-1
  0
VERTEX
  8
0
 10
1993.2153846153842
 20
1060.7307692307693
 42
-0
  0
SEQEND
  0
POLYLINE
  8
0
 10
0
 20
0
 39
0
 70
1
 66
1
  0
VERTEX
  8
0
 10
2011.4653846153842
 20
1060.7307692307693
 42
1
  0
VERTEX
  8
0
 10
2000.9653846153842
 20
1060.7307692307693
 42
1
  0
SEQEND
  0
POLYLINE
  8
0
 10
0
 20
0
 39
0
 70
1
 66
1
  0
VERTEX
  8
0
 10
820.52307692307693
 20
309.39999999999998
 42
0.41421356797218323
  0
VERTEX
  8
0
 10
807.52307692307693
 20
296.39999999999998
 42
0
  0
VERTEX
  8
0
 10
807.52307692307693
 20
236.40000000000001
 42
0.41421356797218323
  0
VERTEX
  8
0
 10
820.52307692307693
 20
223.40000000000001
 42
0
  0
VERTEX
  8
0
 10
830.52307692307693
 20
223.40000000000001
 42
-0
  0
VERTEX
  8
0
 10
830.52307692307693
 20
283.39999999999998
 42
-0
  0
VERTEX
  8
0
 10
836.52307692307693
 20
283.39999999999998
 42
1
  0
VERTEX
  8
0
 10
836.52307692307693
 20
309.39999999999998
 42
0
  0
SEQEND
  0
POLYLINE
  8
0
 10
0
 20
0
 39
0
 70
1
 66
1
  0
VERTEX
  8
0
 10
836.52307692307693
 20
291.14999999999998
 42
-1
  0
VERTEX
  8
0
 10
836.52307692307693
 20
301.64999999999998
 42
-1
  0
SEQEND
  0
POLYLINE
  8
0
 10
0
 20
0
 39
0
 70
1
 66
1
  0
VERTEX
  8
0
 10
820.52307692307693
 20
819.53846153846155
 42
0.41421356797218323
  0
VERTEX
  8
0
 10
807.52307692307693
 20
806.53846153846155
 42
0
  0
VERTEX
  8
0
 10
807.52307692307693
 20
746.53846153846155
 42
0.41421356797218323
  0
VERTEX
  8
0
 10
820.52307692307693
 20
733.53846153846155
 42
0
  0
VERTEX
  8
0
 10
830.52307692307693
 20
733.53846153846155
 42
-0
  0
VERTEX
  8
0
 10
830.52307692307693
 20
793.53846153846155
 42
-0
  0
VERTEX
  8
0
 10
836.52307692307693
 20
793.53846153846155
 42
1
  0
VERTEX
  8
0
 10
836.52307692307693
 20
819.53846153846155
 42
0
  0
SEQEND
  0
POLYLINE
  8
0
 10
0
 20
0
 39
0
 70
1
 66
1
  0
VERTEX
  8
0
 10
836.52307692307693
 20
801.28846153846155
 42
-1
  0
VERTEX
  8
0
 10
836.52307692307693
 20
811.78846153846155
 42
-1
  0
SEQEND
  0
ENDSEC
  0
EOF
