  0
SECTION
  2
ENTITIES
  0
POLYLINE
  8
0
 10
0
 20
0
 39
0
 70
1
 66
1
  0
VERTEX
  8
0
 10
0
 20
0
 42
0
  0
VERTEX
  8
0
 10
2000
 20
0
 42
0
  0
VERTEX
  8
0
 10
2000
 20
1000
 42
0
  0
VERTEX
  8
0
 10
0
 20
1000
 42
0
  0
SEQEND
  0
POLYLINE
  8
0
 10
0
 20
0
 39
0
 70
1
 66
1
  0
VERTEX
  8
0
 10
360.39999999999998
 20
360.39999999999998
 42
-0
  0
VERTEX
  8
0
 10
360.39999999999998
 20
10.400000000000006
 42
-0
  0
VERTEX
  8
0
 10
10.400000000000006
 20
10.400000000000006
 42
-0
  0
VERTEX
  8
0
 10
10.400000000000006
 20
360.39999999999998
 42
-0
  0
SEQEND
  0
POLYLINE
  8
0
 10
0
 20
0
 39
0
 70
1
 66
1
  0
VERTEX
  8
0
 10
341.39999999999998
 20
185.40000000000001
 42
1
  0
VERTEX
  8
0
 10
29.400000000000006
 20
185.40000000000001
 42
1
  0
SEQEND
  0
POLYLINE
  8
0
 10
0
 20
0
 39
0
 70
1
 66
1
  0
VERTEX
  8
0
 10
341.17055358886716
 20
324.42021789550779
 42
1
  0
VERTEX
  8
0
 10
309.17055358886716
 20
324.42021789550779
 42
1
  0
SEQEND
  0
POLYLINE
  8
0
 10
0
 20
0
 39
0
 70
1
 66
1
  0
VERTEX
  8
0
 10
62.379782104492193
 20
45.629446411132818
 42
1
  0
VERTEX
  8
0
 10
30.379782104492193
 20
45.629446411132818
 42
1
  0
SEQEND
  0
POLYLINE
  8
0
 10
0
 20
0
 39
0
 70
1
 66
1
  0
VERTEX
  8
0
 10
360.39999999999998
 20
720.60000000000002
 42
-0
  0
VERTEX
  8
0
 10
360.39999999999998
 20
370.60000000000002
 42
-0
  0
VERTEX
  8
0
 10
10.400000000000006
 20
370.60000000000002
 42
-0
  0
VERTEX
  8
0
 10
10.400000000000006
 20
720.60000000000002
 42
-0
  0
SEQEND
  0
POLYLINE
  8
0
 10
0
 20
0
 39
0
 70
1
 66
1
  0
VERTEX
  8
0
 10
341.39999999999998
 20
545.60000000000002
 42
1
  0
VERTEX
  8
0
 10
29.400000000000006
 20
545.60000000000002
 42
1
  0
SEQEND
  0
POLYLINE
  8
0
 10
0
 20
0
 39
0
 70
1
 66
1
  0
VERTEX
  8
0
 10
341.17055358886716
 20
684.62021789550784
 42
1
  0
VERTEX
  8
0
 10
309.17055358886716
 20
684.62021789550784
 42
1
  0
SEQEND
  0
POLYLINE
  8
0
 10
0
 20
0
 39
0
 70
1
 66
1
  0
VERTEX
  8
0
 10
62.379782104492193
 20
405.82944641113284
 42
1
  0
VERTEX
  8
0
 10
30.379782104492193
 20
405.82944641113284
 42
1
  0
SEQEND
  0
POLYLINE
  8
0
 10
0
 20
0
 39
0
 70
1
 66
1
  0
VERTEX
  8
0
 10
720.79999999999995
 20
360.39999999999998
 42
-0
  0
VERTEX
  8
0
 10
720.79999999999995
 20
10.400000000000006
 42
-0
  0
VERTEX
  8
0
 10
370.79999999999995
 20
10.400000000000006
 42
-0
  0
VERTEX
  8
0
 10
370.79999999999995
 20
360.39999999999998
 42
-0
  0
SEQEND
  0
POLYLINE
  8
0
 10
0
 20
0
 39
0
 70
1
 66
1
  0
VERTEX
  8
0
 10
701.79999999999995
 20
185.40000000000001
 42
1
  0
VERTEX
  8
0
 10
389.79999999999995
 20
185.40000000000001
 42
1
  0
SEQEND
  0
POLYLINE
  8
0
 10
0
 20
0
 39
0
 70
1
 66
1
  0
VERTEX
  8
0
 10
701.57055358886714
 20
324.42021789550779
 42
1
  0
VERTEX
  8
0
 10
669.57055358886714
 20
324.42021789550779
 42
1
  0
SEQEND
  0
POLYLINE
  8
0
 10
0
 20
0
 39
0
 70
1
 66
1
  0
VERTEX
  8
0
 10
422.77978210449214
 20
45.629446411132818
 42
1
  0
VERTEX
  8
0
 10
390.77978210449214
 20
45.629446411132818
 42
1
  0
SEQEND
  0
POLYLINE
  8
0
 10
0
 20
0
 39
0
 70
1
 66
1
  0
VERTEX
  8
0
 10
10.399999999999977
 20
980.79999999999995
 42
-0
  0
VERTEX
  8
0
 10
360.39999999999998
 20
980.79999999999995
 42
-0
  0
VERTEX
  8
0
 10
360.39999999999998
 20
730.79999999999995
 42
-0
  0
VERTEX
  8
0
 10
10.399999999999977
 20
730.79999999999995
 42
-0
  0
SEQEND
  0
POLYLINE
  8
0
 10
0
 20
0
 39
0
 70
1
 66
1
  0
VERTEX
  8
0
 10
345.39999999999998
 20
755.79999999999995
 42
1
  0
VERTEX
  8
0
 10
325.39999999999998
 20
755.79999999999995
 42
1
  0
SEQEND
  0
POLYLINE
  8
0
 10
0
 20
0
 39
0
 70
1
 66
1
  0
VERTEX
  8
0
 10
345.39999999999998
 20
955.79999999999995
 42
1
  0
VERTEX
  8
0
 10
325.39999999999998
 20
955.79999999999995
 42
1
  0
SEQEND
  0
POLYLINE
  8
0
 10
0
 20
0
 39
0
 70
1
 66
1
  0
VERTEX
  8
0
 10
45.399999999999977
 20
755.79999999999995
 42
1
  0
VERTEX
  8
0
 10
25.399999999999977
 20
755.79999999999995
 42
1
  0
SEQEND
  0
POLYLINE
  8
0
 10
0
 20
0
 39
0
 70
1
 66
1
  0
VERTEX
  8
0
 10
45.399999999999977
 20
955.79999999999995
 42
1
  0
VERTEX
  8
0
 10
25.399999999999977
 20
955.79999999999995
 42
1
  0
SEQEND
  0
POLYLINE
  8
0
 10
0
 20
0
 39
0
 70
1
 66
1
  0
VERTEX
  8
0
 10
620.79999999999995
 20
720.60000000000002
 42
-0
  0
VERTEX
  8
0
 10
620.79999999999995
 20
370.60000000000002
 42
-0
  0
VERTEX
  8
0
 10
370.80000000000001
 20
370.60000000000002
 42
-0
  0
VERTEX
  8
0
 10
370.80000000000001
 20
720.60000000000002
 42
-0
  0
SEQEND
  0
POLYLINE
  8
0
 10
0
 20
0
 39
0
 70
1
 66
1
  0
VERTEX
  8
0
 10
395.80000000000001
 20
385.60000000000002
 42
1
  0
VERTEX
  8
0
 10
395.80000000000001
 20
405.60000000000002
 42
1
  0
SEQEND
  0
POLYLINE
  8
0
 10
0
 20
0
 39
0
 70
1
 66
1
  0
VERTEX
  8
0
 10
595.79999999999995
 20
385.60000000000002
 42
1
  0
VERTEX
  8
0
 10
595.79999999999995
 20
405.60000000000002
 42
1
  0
SEQEND
  0
POLYLINE
  8
0
 10
0
 20
0
 39
0
 70
1
 66
1
  0
VERTEX
  8
0
 10
395.80000000000001
 20
685.60000000000002
 42
1
  0
VERTEX
  8
0
 10
395.80000000000001
 20
705.60000000000002
 42
1
  0
SEQEND
  0
POLYLINE
  8
0
 10
0
 20
0
 39
0
 70
1
 66
1
  0
VERTEX
  8
0
 10
595.79999999999995
 20
685.60000000000002
 42
1
  0
VERTEX
  8
0
 10
595.79999999999995
 20
705.60000000000002
 42
1
  0
SEQEND
  0
POLYLINE
  8
0
 10
0
 20
0
 39
0
 70
1
 66
1
  0
VERTEX
  8
0
 10
370.79999999999995
 20
980.79999999999995
 42
-0
  0
VERTEX
  8
0
 10
720.79999999999995
 20
980.79999999999995
 42
-0
  0
VERTEX
  8
0
 10
720.79999999999995
 20
730.79999999999995
 42
-0
  0
VERTEX
  8
0
 10
370.79999999999995
 20
730.79999999999995
 42
-0
  0
SEQEND
  0
POLYLINE
  8
0
 10
0
 20
0
 39
0
 70
1
 66
1
  0
VERTEX
  8
0
 10
705.79999999999995
 20
755.79999999999995
 42
1
  0
VERTEX
  8
0
 10
685.79999999999995
 20
755.79999999999995
 42
1
  0
SEQEND
  0
POLYLINE
  8
0
 10
0
 20
0
 39
0
 70
1
 66
1
  0
VERTEX
  8
0
 10
705.79999999999995
 20
955.79999999999995
 42
1
  0
VERTEX
  8
0
 10
685.79999999999995
 20
955.79999999999995
 42
1
  0
SEQEND
  0
POLYLINE
  8
0
 10
0
 20
0
 39
0
 70
1
 66
1
  0
VERTEX
  8
0
 10
405.79999999999995
 20
755.79999999999995
 42
1
  0
VERTEX
  8
0
 10
385.79999999999995
 20
755.79999999999995
 42
1
  0
SEQEND
  0
POLYLINE
  8
0
 10
0
 20
0
 39
0
 70
1
 66
1
  0
VERTEX
  8
0
 10
405.79999999999995
 20
955.79999999999995
 42
1
  0
VERTEX
  8
0
 10
385.79999999999995
 20
955.79999999999995
 42
1
  0
SEQEND
  0
POLYLINE
  8
0
 10
0
 20
0
 39
0
 70
1
 66
1
  0
VERTEX
  8
0
 10
881.20000000000005
 20
720.60000000000002
 42
-0
  0
VERTEX
  8
0
 10
881.20000000000005
 20
370.60000000000002
 42
-0
  0
VERTEX
  8
0
 10
631.20000000000005
 20
370.60000000000002
 42
-0
  0
VERTEX
  8
0
 10
631.20000000000005
 20
720.60000000000002
 42
-0
  0
SEQEND
  0
POLYLINE
  8
0
 10
0
 20
0
 39
0
 70
1
 66
1
  0
VERTEX
  8
0
 10
656.20000000000005
 20
385.60000000000002
 42
1
  0
VERTEX
  8
0
 10
656.20000000000005
 20
405.60000000000002
 42
1
  0
SEQEND
  0
POLYLINE
  8
0
 10
0
 20
0
 39
0
 70
1
 66
1
  0
VERTEX
  8
0
 10
856.20000000000005
 20
385.60000000000002
 42
1
  0
VERTEX
  8
0
 10
856.20000000000005
 20
405.60000000000002
 42
1
  0
SEQEND
  0
POLYLINE
  8
0
 10
0
 20
0
 39
0
 70
1
 66
1
  0
VERTEX
  8
0
 10
656.20000000000005
 20
685.60000000000002
 42
1
  0
VERTEX
  8
0
 10
656.20000000000005
 20
705.60000000000002
 42
1
  0
SEQEND
  0
POLYLINE
  8
0
 10
0
 20
0
 39
0
 70
1
 66
1
  0
VERTEX
  8
0
 10
856.20000000000005
 20
685.60000000000002
 42
1
  0
VERTEX
  8
0
 10
856.20000000000005
 20
705.60000000000002
 42
1
  0
SEQEND
  0
POLYLINE
  8
0
 10
0
 20
0
 39
0
 70
1
 66
1
  0
VERTEX
  8
0
 10
985.39999999999998
 20
913.78700000000003
 42
-0.61160182952880859
  0
VERTEX
  8
0
 10
1042.1743682861329
 20
802.83984118652347
 42
0
  0
VERTEX
  8
0
 10
891.39999999999998
 20
593.78700000000003
 42
-0
  0
VERTEX
  8
0
 10
891.39999999999998
 20
913.78700000000003
 42
-0
  0
SEQEND
  0
POLYLINE
  8
0
 10
0
 20
0
 39
0
 70
1
 66
1
  0
VERTEX
  8
0
 10
985.39999999999998
 20
825.28700000000003
 42
1
  0
VERTEX
  8
0
 10
985.39999999999998
 20
862.28700000000003
 42
1
  0
SEQEND
  0
POLYLINE
  8
0
 10
0
 20
0
 39
0
 70
1
 66
1
  0
VERTEX
  8
0
 10
961.39999318529817
 20
483.60000000000002
 42
-0.61160182952880859
  0
VERTEX
  8
0
 10
904.62562489916536
 20
594.54715881347659
 42
0
  0
VERTEX
  8
0
 10
1055.3999931852982
 20
803.60000000000002
 42
-0
  0
VERTEX
  8
0
 10
1055.3999931852982
 20
483.60000000000002
 42
-0
  0
SEQEND
  0
POLYLINE
  8
0
 10
0
 20
0
 39
0
 70
1
 66
1
  0
VERTEX
  8
0
 10
961.39999318529817
 20
572.10000000000002
 42
1
  0
VERTEX
  8
0
 10
961.39999318529817
 20
535.10000000000002
 42
1
  0
SEQEND
  0
POLYLINE
  8
0
 10
0
 20
0
 39
0
 70
1
 66
1
  0
VERTEX
  8
0
 10
985.60000000000002
 20
440.58699999999999
 42
-0.61160182952880859
  0
VERTEX
  8
0
 10
1042.3743682861327
 20
329.63984118652343
 42
0
  0
VERTEX
  8
0
 10
891.60000000000002
 20
120.58700000000002
 42
-0
  0
VERTEX
  8
0
 10
891.60000000000002
 20
440.58699999999999
 42
-0
  0
SEQEND
  0
POLYLINE
  8
0
 10
0
 20
0
 39
0
 70
1
 66
1
  0
VERTEX
  8
0
 10
985.60000000000002
 20
352.08699999999999
 42
1
  0
VERTEX
  8
0
 10
985.60000000000002
 20
389.08699999999999
 42
1
  0
SEQEND
  0
POLYLINE
  8
0
 10
0
 20
0
 39
0
 70
1
 66
1
  0
VERTEX
  8
0
 10
961.59999318529799
 20
10.399999999999977
 42
-0.61160182952880859
  0
VERTEX
  8
0
 10
904.82562489916518
 20
121.34715881347654
 42
0
  0
VERTEX
  8
0
 10
1055.599993185298
 20
330.39999999999998
 42
-0
  0
VERTEX
  8
0
 10
1055.599993185298
 20
10.399999999999977
 42
-0
  0
SEQEND
  0
POLYLINE
  8
0
 10
0
 20
0
 39
0
 70
1
 66
1
  0
VERTEX
  8
0
 10
961.59999318529799
 20
98.899999999999977
 42
1
  0
VERTEX
  8
0
 10
961.59999318529799
 20
61.899999999999977
 42
1
  0
SEQEND
  0
POLYLINE
  8
0
 10
0
 20
0
 39
0
 70
1
 66
1
  0
VERTEX
  8
0
 10
1159.5999999999999
 20
699.78700000000003
 42
-0.61160182952880859
  0
VERTEX
  8
0
 10
1216.3743682861327
 20
588.83984118652347
 42
0
  0
VERTEX
  8
0
 10
1065.5999999999999
 20
379.78700000000003
 42
-0
  0
VERTEX
  8
0
 10
1065.5999999999999
 20
699.78700000000003
 42
-0
  0
SEQEND
  0
POLYLINE
  8
0
 10
0
 20
0
 39
0
 70
1
 66
1
  0
VERTEX
  8
0
 10
1159.5999999999999
 20
611.28700000000003
 42
1
  0
VERTEX
  8
0
 10
1159.5999999999999
 20
648.28700000000003
 42
1
  0
SEQEND
  0
POLYLINE
  8
0
 10
0
 20
0
 39
0
 70
1
 66
1
  0
VERTEX
  8
0
 10
1135.599993185298
 20
269.60000000000002
 42
-0.61160182952880859
  0
VERTEX
  8
0
 10
1078.8256248991652
 20
380.54715881347659
 42
0
  0
VERTEX
  8
0
 10
1229.599993185298
 20
589.60000000000002
 42
-0
  0
VERTEX
  8
0
 10
1229.599993185298
 20
269.60000000000002
 42
-0
  0
SEQEND
  0
POLYLINE
  8
0
 10
0
 20
0
 39
0
 70
1
 66
1
  0
VERTEX
  8
0
 10
1135.599993185298
 20
358.10000000000002
 42
1
  0
VERTEX
  8
0
 10
1135.599993185298
 20
321.10000000000002
 42
1
  0
SEQEND
  0
POLYLINE
  8
0
 10
0
 20
0
 39
0
 70
1
 66
1
  0
VERTEX
  8
0
 10
1332.4000000000001
 20
966.58699999999999
 42
-0.61160182952880859
  0
VERTEX
  8
0
 10
1389.1743682861329
 20
855.63984118652343
 42
0
  0
VERTEX
  8
0
 10
1238.4000000000001
 20
646.58699999999999
 42
-0
  0
VERTEX
  8
0
 10
1238.4000000000001
 20
966.58699999999999
 42
-0
  0
SEQEND
  0
POLYLINE
  8
0
 10
0
 20
0
 39
0
 70
1
 66
1
  0
VERTEX
  8
0
 10
1332.4000000000001
 20
878.08699999999999
 42
1
  0
VERTEX
  8
0
 10
1332.4000000000001
 20
915.08699999999999
 42
1
  0
SEQEND
  0
POLYLINE
  8
0
 10
0
 20
0
 39
0
 70
1
 66
1
  0
VERTEX
  8
0
 10
1308.3999931852982
 20
536.39999999999998
 42
-0.61160182952880859
  0
VERTEX
  8
0
 10
1251.6256248991654
 20
647.34715881347654
 42
0
  0
VERTEX
  8
0
 10
1402.3999931852982
 20
856.39999999999998
 42
-0
  0
VERTEX
  8
0
 10
1402.3999931852982
 20
536.39999999999998
 42
-0
  0
SEQEND
  0
POLYLINE
  8
0
 10
0
 20
0
 39
0
 70
1
 66
1
  0
VERTEX
  8
0
 10
1308.3999931852982
 20
624.89999999999998
 42
1
  0
VERTEX
  8
0
 10
1308.3999931852982
 20
587.89999999999998
 42
1
  0
SEQEND
  0
POLYLINE
  8
0
 10
0
 20
0
 39
0
 70
1
 66
1
  0
VERTEX
  8
0
 10
1333.8
 20
440.58699999999999
 42
-0.61160182952880859
  0
VERTEX
  8
0
 10
1390.5743682861328
 20
329.63984118652343
 42
0
  0
VERTEX
  8
0
 10
1239.8
 20
120.58700000000002
 42
-0
  0
VERTEX
  8
0
 10
1239.8
 20
440.58699999999999
 42
-0
  0
SEQEND
  0
POLYLINE
  8
0
 10
0
 20
0
 39
0
 70
1
 66
1
  0
VERTEX
  8
0
 10
1333.8
 20
352.08699999999999
 42
1
  0
VERTEX
  8
0
 10
1333.8
 20
389.08699999999999
 42
1
  0
SEQEND
  0
POLYLINE
  8
0
 10
0
 20
0
 39
0
 70
1
 66
1
  0
VERTEX
  8
0
 10
1309.799993185298
 20
10.399999999999977
 42
-0.61160182952880859
  0
VERTEX
  8
0
 10
1253.0256248991652
 20
121.34715881347654
 42
0
  0
VERTEX
  8
0
 10
1403.799993185298
 20
330.39999999999998
 42
-0
  0
VERTEX
  8
0
 10
1403.799993185298
 20
10.399999999999977
 42
-0
  0
SEQEND
  0
POLYLINE
  8
0
 10
0
 20
0
 39
0
 70
1
 66
1
  0
VERTEX
  8
0
 10
1309.799993185298
 20
98.899999999999977
 42
1
  0
VERTEX
  8
0
 10
1309.799993185298
 20
61.899999999999977
 42
1
  0
SEQEND
  0
POLYLINE
  8
0
 10
0
 20
0
 39
0
 70
1
 66
1
  0
VERTEX
  8
0
 10
1506.5999999999999
 20
707.38699999999994
 42
-0.61160182952880859
  0
VERTEX
  8
0
 10
1563.3743682861327
 20
596.43984118652338
 42
0
  0
VERTEX
  8
0
 10
1412.5999999999999
 20
387.387
 42
-0
  0
VERTEX
  8
0
 10
1412.5999999999999
 20
707.38699999999994
 42
-0
  0
SEQEND
  0
POLYLINE
  8
0
 10
0
 20
0
 39
0
 70
1
 66
1
  0
VERTEX
  8
0
 10
1506.5999999999999
 20
618.88699999999994
 42
1
  0
VERTEX
  8
0
 10
1506.5999999999999
 20
655.88699999999994
 42
1
  0
SEQEND
  0
POLYLINE
  8
0
 10
0
 20
0
 39
0
 70
1
 66
1
  0
VERTEX
  8
0
 10
1482.599993185298
 20
277.20000000000005
 42
-0.61160182952880859
  0
VERTEX
  8
0
 10
1425.8256248991652
 20
388.14715881347661
 42
0
  0
VERTEX
  8
0
 10
1576.599993185298
 20
597.20000000000005
 42
-0
  0
VERTEX
  8
0
 10
1576.599993185298
 20
277.20000000000005
 42
-0
  0
SEQEND
  0
POLYLINE
  8
0
 10
0
 20
0
 39
0
 70
1
 66
1
  0
VERTEX
  8
0
 10
1482.599993185298
 20
365.70000000000005
 42
1
  0
VERTEX
  8
0
 10
1482.599993185298
 20
328.70000000000005
 42
1
  0
SEQEND
  0
POLYLINE
  8
0
 10
0
 20
0
 39
0
 70
1
 66
1
  0
VERTEX
  8
0
 10
56.939897289491881
 20
249.79553753480022
 42
-0
  0
VERTEX
  8
0
 10
64.507373114524881
 20
247.83845492474583
 42
-0.11944806575775146
  0
VERTEX
  8
0
 10
104.47907742226235
 20
287.81016087075375
 42
0
  0
VERTEX
  8
0
 10
102.52199517965565
 20
295.37763609404954
 42
-0.068672984838485718
  0
VERTEX
  8
0
 10
134.72735790999118
 20
308.71753392630637
 42
-0
  0
VERTEX
  8
0
 10
138.69450476328862
 20
301.98265471403431
 42
-0.11944806575775146
  0
VERTEX
  8
0
 10
195.22303226489012
 20
301.98265298091269
 42
0
  0
VERTEX
  8
0
 10
199.19017942079373
 20
308.717532797839
 42
-0.068672984838485718
  0
VERTEX
  8
0
 10
231.3955375347995
 20
295.37763649414228
 42
-0
  0
VERTEX
  8
0
 10
229.43845492474512
 20
287.81016066910934
 42
-0.11944806575775146
  0
VERTEX
  8
0
 10
269.41016087075297
 20
247.83845636137184
 42
0
  0
VERTEX
  8
0
 10
276.97763609404876
 20
249.79553860397854
 42
-0.068672984838485718
  0
VERTEX
  8
0
 10
290.3175339263056
 20
217.59017587364301
 42
-0
  0
VERTEX
  8
0
 10
283.58265471403354
 20
213.62302902034557
 42
-0.11944806575775146
  0
VERTEX
  8
0
 10
283.58265298091192
 20
157.09450151874407
 42
0
  0
VERTEX
  8
0
 10
290.31753279783834
 20
153.12735436284046
 42
-0.068672984838485718
  0
VERTEX
  8
0
 10
276.97763649414162
 20
120.92199624883469
 42
-0
  0
VERTEX
  8
0
 10
269.41016066910856
 20
122.87907885888907
 42
-0.11944806575775146
  0
VERTEX
  8
0
 10
229.43845636137112
 20
82.907372912881186
 42
0
  0
VERTEX
  8
0
 10
231.39553860397783
 20
75.339897689585399
 42
-0.068672984838485718
  0
VERTEX
  8
0
 10
199.19017587364229
 20
61.999999857328561
 42
-0
  0
VERTEX
  8
0
 10
195.22302902034485
 20
68.734879069600623
 42
-0.11944806575775146
  0
VERTEX
  8
0
 10
138.69450151874335
 20
68.734880802722245
 42
0
  0
VERTEX
  8
0
 10
134.72735436283975
 20
62.000000985795879
 42
-0.068672984838485718
  0
VERTEX
  8
0
 10
102.52199624883397
 20
75.339897289492598
 42
-0
  0
VERTEX
  8
0
 10
104.47907885888836
 20
82.907373114525598
 42
-0.11944806575775146
  0
VERTEX
  8
0
 10
64.50737291288047
 20
122.87907742226307
 42
0
  0
VERTEX
  8
0
 10
56.939897689584683
 20
120.92199517965636
 42
-0.068672984838485718
  0
VERTEX
  8
0
 10
43.599999857327845
 20
153.1273579099919
 42
-0
  0
VERTEX
  8
0
 10
50.334879069599907
 20
157.09450476328934
 42
-0.11944806575775146
  0
VERTEX
  8
0
 10
50.334880802721528
 20
213.62303226489084
 42
0
  0
VERTEX
  8
0
 10
43.600000985795162
 20
217.59017942079444
 42
-0.068672984838485718
  0
SEQEND
  0
POLYLINE
  8
0
 10
0
 20
0
 39
0
 70
1
 66
1
  0
VERTEX
  8
0
 10
211.13857739807545
 20
243.63034878964797
 42
0
  0
VERTEX
  8
0
 10
181.57443326355397
 20
255.87621842618361
 42
0
  0
VERTEX
  8
0
 10
142.73757195656108
 20
162.11574248687108
 42
0
  0
VERTEX
  8
0
 10
119.64058435146617
 20
171.68282814041456
 42
0
  0
VERTEX
  8
0
 10
104.33324730579662
 20
134.7276479722627
 42
0
  0
VERTEX
  8
0
 10
156.99437904541301
 20
112.91469268218358
 42
0
  0
SEQEND
  0
POLYLINE
  8
0
 10
0
 20
0
 39
0
 70
1
 66
1
  0
VERTEX
  8
0
 10
56.939897289491881
 20
609.99553753480018
 42
-0
  0
VERTEX
  8
0
 10
64.507373114524881
 20
608.03845492474579
 42
-0.11944806575775146
  0
VERTEX
  8
0
 10
104.47907742226235
 20
648.01016087075368
 42
0
  0
VERTEX
  8
0
 10
102.52199517965565
 20
655.57763609404947
 42
-0.068672984838485718
  0
VERTEX
  8
0
 10
134.72735790999118
 20
668.91753392630631
 42
-0
  0
VERTEX
  8
0
 10
138.69450476328862
 20
662.18265471403424
 42
-0.11944806575775146
  0
VERTEX
  8
0
 10
195.22303226489012
 20
662.18265298091262
 42
0
  0
VERTEX
  8
0
 10
199.19017942079373
 20
668.91753279783893
 42
-0.068672984838485718
  0
VERTEX
  8
0
 10
231.3955375347995
 20
655.57763649414233
 42
-0
  0
VERTEX
  8
0
 10
229.43845492474512
 20
648.01016066910927
 42
-0.11944806575775146
  0
VERTEX
  8
0
 10
269.41016087075297
 20
608.0384563613718
 42
0
  0
VERTEX
  8
0
 10
276.97763609404876
 20
609.9955386039785
 42
-0.068672984838485718
  0
VERTEX
  8
0
 10
290.3175339263056
 20
577.79017587364297
 42
-0
  0
VERTEX
  8
0
 10
283.58265471403354
 20
573.82302902034553
 42
-0.11944806575775146
  0
VERTEX
  8
0
 10
283.58265298091192
 20
517.29450151874403
 42
0
  0
VERTEX
  8
0
 10
290.31753279783834
 20
513.32735436284042
 42
-0.068672984838485718
  0
VERTEX
  8
0
 10
276.97763649414162
 20
481.12199624883465
 42
-0
  0
VERTEX
  8
0
 10
269.41016066910856
 20
483.07907885888903
 42
-0.11944806575775146
  0
VERTEX
  8
0
 10
229.43845636137112
 20
443.10737291288115
 42
0
  0
VERTEX
  8
0
 10
231.39553860397783
 20
435.53989768958536
 42
-0.068672984838485718
  0
VERTEX
  8
0
 10
199.19017587364229
 20
422.19999985732852
 42
-0
  0
VERTEX
  8
0
 10
195.22302902034485
 20
428.93487906960058
 42
-0.11944806575775146
  0
VERTEX
  8
0
 10
138.69450151874335
 20
428.9348808027222
 42
0
  0
VERTEX
  8
0
 10
134.72735436283975
 20
422.20000098579584
 42
-0.068672984838485718
  0
VERTEX
  8
0
 10
102.52199624883397
 20
435.53989728949256
 42
-0
  0
VERTEX
  8
0
 10
104.47907885888836
 20
443.10737311452556
 42
-0.11944806575775146
  0
VERTEX
  8
0
 10
64.50737291288047
 20
483.07907742226303
 42
0
  0
VERTEX
  8
0
 10
56.939897689584683
 20
481.12199517965632
 42
-0.068672984838485718
  0
VERTEX
  8
0
 10
43.599999857327845
 20
513.32735790999186
 42
-0
  0
VERTEX
  8
0
 10
50.334879069599907
 20
517.2945047632893
 42
-0.11944806575775146
  0
VERTEX
  8
0
 10
50.334880802721528
 20
573.8230322648908
 42
0
  0
VERTEX
  8
0
 10
43.600000985795162
 20
577.7901794207944
 42
-0.068672984838485718
  0
SEQEND
  0
POLYLINE
  8
0
 10
0
 20
0
 39
0
 70
1
 66
1
  0
VERTEX
  8
0
 10
211.13857739807545
 20
603.83034878964793
 42
0
  0
VERTEX
  8
0
 10
181.57443326355397
 20
616.07621842618357
 42
0
  0
VERTEX
  8
0
 10
142.73757195656108
 20
522.31574248687105
 42
0
  0
VERTEX
  8
0
 10
119.64058435146617
 20
531.88282814041452
 42
0
  0
VERTEX
  8
0
 10
104.33324730579662
 20
494.92764797226266
 42
0
  0
VERTEX
  8
0
 10
156.99437904541301
 20
473.11469268218355
 42
0
  0
SEQEND
  0
POLYLINE
  8
0
 10
0
 20
0
 39
0
 70
1
 66
1
  0
VERTEX
  8
0
 10
417.33989728949183
 20
249.79553753480022
 42
-0
  0
VERTEX
  8
0
 10
424.90737311452483
 20
247.83845492474583
 42
-0.11944806575775146
  0
VERTEX
  8
0
 10
464.8790774222623
 20
287.81016087075375
 42
0
  0
VERTEX
  8
0
 10
462.9219951796556
 20
295.37763609404954
 42
-0.068672984838485718
  0
VERTEX
  8
0
 10
495.12735790999113
 20
308.71753392630637
 42
-0
  0
VERTEX
  8
0
 10
499.09450476328857
 20
301.98265471403431
 42
-0.11944806575775146
  0
VERTEX
  8
0
 10
555.62303226489007
 20
301.98265298091269
 42
0
  0
VERTEX
  8
0
 10
559.59017942079367
 20
308.717532797839
 42
-0.068672984838485718
  0
VERTEX
  8
0
 10
591.79553753479945
 20
295.37763649414228
 42
-0
  0
VERTEX
  8
0
 10
589.83845492474507
 20
287.81016066910934
 42
-0.11944806575775146
  0
VERTEX
  8
0
 10
629.81016087075295
 20
247.83845636137184
 42
0
  0
VERTEX
  8
0
 10
637.37763609404874
 20
249.79553860397854
 42
-0.068672984838485718
  0
VERTEX
  8
0
 10
650.71753392630558
 20
217.59017587364301
 42
-0
  0
VERTEX
  8
0
 10
643.98265471403352
 20
213.62302902034557
 42
-0.11944806575775146
  0
VERTEX
  8
0
 10
643.98265298091189
 20
157.09450151874407
 42
0
  0
VERTEX
  8
0
 10
650.7175327978382
 20
153.12735436284046
 42
-0.068672984838485718
  0
VERTEX
  8
0
 10
637.3776364941416
 20
120.92199624883469
 42
-0
  0
VERTEX
  8
0
 10
629.81016066910854
 20
122.87907885888907
 42
-0.11944806575775146
  0
VERTEX
  8
0
 10
589.83845636137107
 20
82.907372912881186
 42
0
  0
VERTEX
  8
0
 10
591.79553860397777
 20
75.339897689585399
 42
-0.068672984838485718
  0
VERTEX
  8
0
 10
559.59017587364224
 20
61.999999857328561
 42
-0
  0
VERTEX
  8
0
 10
555.6230290203448
 20
68.734879069600623
 42
-0.11944806575775146
  0
VERTEX
  8
0
 10
499.0945015187433
 20
68.734880802722245
 42
0
  0
VERTEX
  8
0
 10
495.1273543628397
 20
62.000000985795879
 42
-0.068672984838485718
  0
VERTEX
  8
0
 10
462.92199624883392
 20
75.339897289492598
 42
-0
  0
VERTEX
  8
0
 10
464.87907885888831
 20
82.907373114525598
 42
-0.11944806575775146
  0
VERTEX
  8
0
 10
424.90737291288042
 20
122.87907742226307
 42
0
  0
VERTEX
  8
0
 10
417.33989768958463
 20
120.92199517965636
 42
-0.068672984838485718
  0
VERTEX
  8
0
 10
403.99999985732779
 20
153.1273579099919
 42
-0
  0
VERTEX
  8
0
 10
410.73487906959986
 20
157.09450476328934
 42
-0.11944806575775146
  0
VERTEX
  8
0
 10
410.73488080272148
 20
213.62303226489084
 42
0
  0
VERTEX
  8
0
 10
404.00000098579511
 20
217.59017942079444
 42
-0.068672984838485718
  0
SEQEND
  0
POLYLINE
  8
0
 10
0
 20
0
 39
0
 70
1
 66
1
  0
VERTEX
  8
0
 10
571.5385773980754
 20
243.63034878964797
 42
0
  0
VERTEX
  8
0
 10
541.97443326355392
 20
255.87621842618361
 42
0
  0
VERTEX
  8
0
 10
503.13757195656103
 20
162.11574248687108
 42
0
  0
VERTEX
  8
0
 10
480.04058435146612
 20
171.68282814041456
 42
0
  0
VERTEX
  8
0
 10
464.73324730579657
 20
134.7276479722627
 42
0
  0
VERTEX
  8
0
 10
517.39437904541296
 20
112.91469268218358
 42
0
  0
SEQEND
  0
POLYLINE
  8
0
 10
0
 20
0
 39
0
 70
1
 66
1
  0
VERTEX
  8
0
 10
1412.6000000180939
 20
778.8779296875
 42
-0
  0
VERTEX
  8
0
 10
1412.6000000180939
 20
893.1220703125
 42
-0.29410767555236816
  0
VERTEX
  8
0
 10
1424.3226562680939
 20
911.3291015625
 42
-0
  0
VERTEX
  8
0
 10
1518.6546875180939
 20
954.20703125
 42
-0.10706308484077454
  0
VERTEX
  8
0
 10
1526.9320312680939
 20
956
 42
0
  0
VERTEX
  8
0
 10
1612.6000000180939
 20
956
 42
-0.41421356797218323
  0
VERTEX
  8
0
 10
1632.6000000180939
 20
936
 42
0
  0
VERTEX
  8
0
 10
1632.6000000180939
 20
736
 42
-0.41421356797218323
  0
VERTEX
  8
0
 10
1612.6000000180939
 20
716
 42
-0
  0
VERTEX
  8
0
 10
1526.9320312680939
 20
716
 42
-0.10706308484077454
  0
VERTEX
  8
0
 10
1518.6546875180939
 20
717.79296875
 42
0
  0
VERTEX
  8
0
 10
1424.3226562680939
 20
760.6708984375
 42
-0.29410767555236816
  0
SEQEND
  0
POLYLINE
  8
0
 10
0
 20
0
 39
0
 70
1
 66
1
  0
VERTEX
  8
0
 10
1537.6000000180939
 20
786
 42
1
  0
VERTEX
  8
0
 10
1537.6000000180939
 20
886
 42
1
  0
SEQEND
  0
POLYLINE
  8
0
 10
0
 20
0
 39
0
 70
1
 66
1
  0
VERTEX
  8
0
 10
1414.0000000180953
 20
73.277929687499636
 42
-0
  0
VERTEX
  8
0
 10
1414.0000000180953
 20
187.52207031249964
 42
-0.29410767555236816
  0
VERTEX
  8
0
 10
1425.7226562680953
 20
205.72910156249964
 42
-0
  0
VERTEX
  8
0
 10
1520.0546875180953
 20
248.60703124999964
 42
-0.10706308484077454
  0
VERTEX
  8
0
 10
1528.3320312680953
 20
250.39999999999964
 42
0
  0
VERTEX
  8
0
 10
1614.0000000180953
 20
250.39999999999964
 42
-0.41421356797218323
  0
VERTEX
  8
0
 10
1634.0000000180953
 20
230.39999999999964
 42
0
  0
VERTEX
  8
0
 10
1634.0000000180953
 20
30.399999999999636
 42
-0.41421356797218323
  0
VERTEX
  8
0
 10
1614.0000000180953
 20
10.399999999999636
 42
-0
  0
VERTEX
  8
0
 10
1528.3320312680953
 20
10.399999999999636
 42
-0.10706308484077454
  0
VERTEX
  8
0
 10
1520.0546875180953
 20
12.192968749999636
 42
0
  0
VERTEX
  8
0
 10
1425.7226562680953
 20
55.070898437499636
 42
-0.29410767555236816
  0
SEQEND
  0
POLYLINE
  8
0
 10
0
 20
0
 39
0
 70
1
 66
1
  0
VERTEX
  8
0
 10
1539.0000000180953
 20
80.399999999999636
 42
1
  0
VERTEX
  8
0
 10
1539.0000000180953
 20
180.39999999999964
 42
1
  0
SEQEND
  0
POLYLINE
  8
0
 10
0
 20
0
 39
0
 70
1
 66
1
  0
VERTEX
  8
0
 10
1586.8000000180982
 20
289.27792968749964
 42
-0
  0
VERTEX
  8
0
 10
1586.8000000180982
 20
403.52207031249964
 42
-0.29410767555236816
  0
VERTEX
  8
0
 10
1598.5226562680982
 20
421.72910156249964
 42
-0
  0
VERTEX
  8
0
 10
1692.8546875180982
 20
464.60703124999964
 42
-0.10706308484077454
  0
VERTEX
  8
0
 10
1701.1320312680982
 20
466.39999999999964
 42
0
  0
VERTEX
  8
0
 10
1786.8000000180982
 20
466.39999999999964
 42
-0.41421356797218323
  0
VERTEX
  8
0
 10
1806.8000000180982
 20
446.39999999999964
 42
0
  0
VERTEX
  8
0
 10
1806.8000000180982
 20
246.39999999999964
 42
-0.41421356797218323
  0
VERTEX
  8
0
 10
1786.8000000180982
 20
226.39999999999964
 42
-0
  0
VERTEX
  8
0
 10
1701.1320312680982
 20
226.39999999999964
 42
-0.10706308484077454
  0
VERTEX
  8
0
 10
1692.8546875180982
 20
228.19296874999964
 42
0
  0
VERTEX
  8
0
 10
1598.5226562680982
 20
271.07089843749964
 42
-0.29410767555236816
  0
SEQEND
  0
POLYLINE
  8
0
 10
0
 20
0
 39
0
 70
1
 66
1
  0
VERTEX
  8
0
 10
1711.8000000180982
 20
296.39999999999964
 42
1
  0
VERTEX
  8
0
 10
1711.8000000180982
 20
396.39999999999964
 42
1
  0
SEQEND
  0
POLYLINE
  8
0
 10
0
 20
0
 39
0
 70
1
 66
1
  0
VERTEX
  8
0
 10
1586.8000000180982
 20
539.47792968750036
 42
-0
  0
VERTEX
  8
0
 10
1586.8000000180982
 20
653.72207031250036
 42
-0.29410767555236816
  0
VERTEX
  8
0
 10
1598.5226562680982
 20
671.92910156250036
 42
-0
  0
VERTEX
  8
0
 10
1692.8546875180982
 20
714.80703125000036
 42
-0.10706308484077454
  0
VERTEX
  8
0
 10
1701.1320312680982
 20
716.60000000000036
 42
0
  0
VERTEX
  8
0
 10
1786.8000000180982
 20
716.60000000000036
 42
-0.41421356797218323
  0
VERTEX
  8
0
 10
1806.8000000180982
 20
696.60000000000036
 42
0
  0
VERTEX
  8
0
 10
1806.8000000180982
 20
496.60000000000036
 42
-0.41421356797218323
  0
VERTEX
  8
0
 10
1786.8000000180982
 20
476.60000000000036
 42
-0
  0
VERTEX
  8
0
 10
1701.1320312680982
 20
476.60000000000036
 42
-0.10706308484077454
  0
VERTEX
  8
0
 10
1692.8546875180982
 20
478.39296875000036
 42
0
  0
VERTEX
  8
0
 10
1598.5226562680982
 20
521.27089843750036
 42
-0.29410767555236816
  0
SEQEND
  0
POLYLINE
  8
0
 10
0
 20
0
 39
0
 70
1
 66
1
  0
VERTEX
  8
0
 10
1711.8000000180982
 20
546.60000000000036
 42
1
  0
VERTEX
  8
0
 10
1711.8000000180982
 20
646.60000000000036
 42
1
  0
SEQEND
  0
POLYLINE
  8
0
 10
0
 20
0
 39
0
 70
1
 66
1
  0
VERTEX
  8
0
 10
1643
 20
726.79999999999995
 42
-0
  0
VERTEX
  8
0
 10
1643
 20
985.79999999999995
 42
-0
  0
VERTEX
  8
0
 10
1845
 20
985.79999999999995
 42
-0
  0
VERTEX
  8
0
 10
1845
 20
726.79999999999995
 42
-0
  0
SEQEND
  0
POLYLINE
  8
0
 10
0
 20
0
 39
0
 70
1
 66
1
  0
VERTEX
  8
0
 10
1664.9069118499756
 20
777.3757789611816
 42
0.11044000089168549
  0
VERTEX
  8
0
 10
1706.0549163818359
 20
751.20518379211421
 42
0
  0
VERTEX
  8
0
 10
1706.0549163818359
 20
961.39481811523433
 42
0.11044000089168549
  0
VERTEX
  8
0
 10
1664.9069118499756
 20
935.22422485351558
 42
0
  0
SEQEND
  0
POLYLINE
  8
0
 10
0
 20
0
 39
0
 70
1
 66
1
  0
VERTEX
  8
0
 10
1823.0930938720703
 20
777.3757789611816
 42
-0
  0
VERTEX
  8
0
 10
1823.0930938720703
 20
935.22422485351558
 42
0.11044000089168549
  0
VERTEX
  8
0
 10
1781.9450836181641
 20
961.39481811523433
 42
-0
  0
VERTEX
  8
0
 10
1781.9450836181641
 20
751.20518379211421
 42
0.11044000089168549
  0
SEQEND
  0
POLYLINE
  8
0
 10
0
 20
0
 39
0
 70
1
 66
1
  0
VERTEX
  8
0
 10
1903.4000000000001
 20
10.4
 42
-0
  0
VERTEX
  8
0
 10
1644.4000000000001
 20
10.4
 42
-0
  0
VERTEX
  8
0
 10
1644.4000000000001
 20
212.40000000000001
 42
-0
  0
VERTEX
  8
0
 10
1903.4000000000001
 20
212.40000000000001
 42
-0
  0
SEQEND
  0
POLYLINE
  8
0
 10
0
 20
0
 39
0
 70
1
 66
1
  0
VERTEX
  8
0
 10
1852.8242210388185
 20
32.306911849975585
 42
0.11044000089168549
  0
VERTEX
  8
0
 10
1878.9948162078858
 20
73.454916381835943
 42
0
  0
VERTEX
  8
0
 10
1668.8051818847657
 20
73.454916381835943
 42
0.11044000089168549
  0
VERTEX
  8
0
 10
1694.9757751464845
 20
32.306911849975585
 42
0
  0
SEQEND
  0
POLYLINE
  8
0
 10
0
 20
0
 39
0
 70
1
 66
1
  0
VERTEX
  8
0
 10
1852.8242210388185
 20
190.49309387207032
 42
-0
  0
VERTEX
  8
0
 10
1694.9757751464845
 20
190.49309387207032
 42
0.11044000089168549
  0
VERTEX
  8
0
 10
1668.8051818847657
 20
149.34508361816407
 42
-0
  0
VERTEX
  8
0
 10
1878.9948162078858
 20
149.34508361816407
 42
0.11044000089168549
  0
SEQEND
  0
POLYLINE
  8
0
 10
0
 20
0
 39
0
 70
1
 66
1
  0
VERTEX
  8
0
 10
731.20000000000005
 20
10.4
 42
-0
  0
VERTEX
  8
0
 10
731.20000000000005
 20
350.39999999999998
 42
-0
  0
VERTEX
  8
0
 10
786.20000000000005
 20
350.39999999999998
 42
0.41421356797218323
  0
VERTEX
  8
0
 10
876.20000000000005
 20
260.39999999999998
 42
0
  0
VERTEX
  8
0
 10
876.20000000000005
 20
223.12525024414063
 42
1
  0
VERTEX
  8
0
 10
876.20000000000005
 20
167.12525024414063
 42
0
  0
VERTEX
  8
0
 10
876.20000000000005
 20
137.53739013671876
 42
1
  0
VERTEX
  8
0
 10
876.20000000000005
 20
81.53739013671877
 42
0
  0
VERTEX
  8
0
 10
876.20000000000005
 20
10.400000000000036
 42
-0
  0
SEQEND
  0
POLYLINE
  8
0
 10
0
 20
0
 39
0
 70
1
 66
1
  0
VERTEX
  8
0
 10
786.20000000000005
 20
42.035307312011724
 42
1
  0
VERTEX
  8
0
 10
786.20000000000005
 20
98.035307312011724
 42
1
  0
SEQEND
  0
POLYLINE
  8
0
 10
0
 20
0
 39
0
 70
1
 66
1
  0
VERTEX
  8
0
 10
1962.2
 20
562.39999999999998
 42
-0
  0
VERTEX
  8
0
 10
1962.2
 20
222.39999999999998
 42
-0
  0
VERTEX
  8
0
 10
1907.2
 20
222.39999999999998
 42
0.41421356797218323
  0
VERTEX
  8
0
 10
1817.2
 20
312.39999999999998
 42
0
  0
VERTEX
  8
0
 10
1817.2
 20
349.67474975585935
 42
1
  0
VERTEX
  8
0
 10
1817.2
 20
405.67474975585935
 42
0
  0
VERTEX
  8
0
 10
1817.2
 20
435.26260986328123
 42
1
  0
VERTEX
  8
0
 10
1817.2
 20
491.26260986328123
 42
0
  0
VERTEX
  8
0
 10
1817.2
 20
562.39999999999998
 42
-0
  0
SEQEND
  0
POLYLINE
  8
0
 10
0
 20
0
 39
0
 70
1
 66
1
  0
VERTEX
  8
0
 10
1907.2
 20
530.76469268798826
 42
1
  0
VERTEX
  8
0
 10
1907.2
 20
474.76469268798826
 42
1
  0
SEQEND
  0
POLYLINE
  8
0
 10
0
 20
0
 39
0
 70
1
 66
1
  0
VERTEX
  8
0
 10
1975.4000000000001
 20
911
 42
-0
  0
VERTEX
  8
0
 10
1975.4000000000001
 20
566
 42
0
  0
VERTEX
  8
0
 10
1855.4000000000001
 20
651
 42
0
  0
VERTEX
  8
0
 10
1855.4000000000001
 20
911
 42
-0
  0
SEQEND
  0
POLYLINE
  8
0
 10
0
 20
0
 39
0
 70
1
 66
1
  0
VERTEX
  8
0
 10
1915.4000000000001
 20
889.17797470092773
 42
1
  0
VERTEX
  8
0
 10
1915.4000000000001
 20
843.177978515625
 42
1
  0
SEQEND
  0
POLYLINE
  8
0
 10
0
 20
0
 39
0
 70
1
 66
1
  0
VERTEX
  8
0
 10
1915.4000000000001
 20
760.23971557617187
 42
1
  0
VERTEX
  8
0
 10
1915.4000000000001
 20
680.23971557617187
 42
1
  0
SEQEND
  0
POLYLINE
  8
0
 10
0
 20
0
 39
0
 70
1
 66
1
  0
VERTEX
  8
0
 10
731.20000000000005
 20
730.79999999999995
 42
-0
  0
VERTEX
  8
0
 10
731.20000000000005
 20
970.79999999999995
 42
-0
  0
VERTEX
  8
0
 10
783.20000000000005
 20
970.79999999999995
 42
-0
  0
VERTEX
  8
0
 10
783.20000000000005
 20
939.79999999999995
 42
-0
  0
VERTEX
  8
0
 10
854.20000000000005
 20
939.79999999999995
 42
-0
  0
VERTEX
  8
0
 10
854.20000000000005
 20
970.79999999999995
 42
-0
  0
VERTEX
  8
0
 10
876.20000000000005
 20
970.79999999999995
 42
-0
  0
VERTEX
  8
0
 10
876.20000000000005
 20
801.9373901367187
 42
0
  0
VERTEX
  8
0
 10
876.20000000000005
 20
730.79999999999995
 42
-0
  0
SEQEND
  0
POLYLINE
  8
0
 10
0
 20
0
 39
0
 70
1
 66
1
  0
VERTEX
  8
0
 10
818.70000000000005
 20
766.36869506835933
 42
0
  0
VERTEX
  8
0
 10
854.20000000000005
 20
766.36869506835933
 42
0
  0
VERTEX
  8
0
 10
854.20000000000005
 20
878.21772460937495
 42
0
  0
VERTEX
  8
0
 10
783.20000000000005
 20
878.21772460937495
 42
0
  0
SEQEND
  0
POLYLINE
  8
0
 10
0
 20
0
 39
0
 70
1
 66
1
  0
VERTEX
  8
0
 10
757.20000000000005
 20
766.36869506835933
 42
-0
  0
VERTEX
  8
0
 10
783.20000000000005
 20
766.36869506835933
 42
-0
  0
VERTEX
  8
0
 10
783.20000000000005
 20
801.9373901367187
 42
-0
  0
VERTEX
  8
0
 10
757.20000000000005
 20
801.9373901367187
 42
-0
  0
SEQEND
  0
POLYLINE
  8
0
 10
0
 20
0
 39
0
 70
1
 66
1
  0
VERTEX
  8
0
 10
1065.5999999999999
 20
709.79999999999995
 42
-0
  0
VERTEX
  8
0
 10
1065.5999999999999
 20
949.79999999999995
 42
-0
  0
VERTEX
  8
0
 10
1117.5999999999999
 20
949.79999999999995
 42
-0
  0
VERTEX
  8
0
 10
1117.5999999999999
 20
918.79999999999995
 42
-0
  0
VERTEX
  8
0
 10
1188.5999999999999
 20
918.79999999999995
 42
-0
  0
VERTEX
  8
0
 10
1188.5999999999999
 20
949.79999999999995
 42
-0
  0
VERTEX
  8
0
 10
1210.5999999999999
 20
949.79999999999995
 42
-0
  0
VERTEX
  8
0
 10
1210.5999999999999
 20
780.9373901367187
 42
0
  0
VERTEX
  8
0
 10
1210.5999999999999
 20
709.79999999999995
 42
-0
  0
SEQEND
  0
POLYLINE
  8
0
 10
0
 20
0
 39
0
 70
1
 66
1
  0
VERTEX
  8
0
 10
1153.0999999999999
 20
745.36869506835933
 42
0
  0
VERTEX
  8
0
 10
1188.5999999999999
 20
745.36869506835933
 42
0
  0
VERTEX
  8
0
 10
1188.5999999999999
 20
857.21772460937495
 42
0
  0
VERTEX
  8
0
 10
1117.5999999999999
 20
857.21772460937495
 42
0
  0
SEQEND
  0
POLYLINE
  8
0
 10
0
 20
0
 39
0
 70
1
 66
1
  0
VERTEX
  8
0
 10
1091.5999999999999
 20
745.36869506835933
 42
-0
  0
VERTEX
  8
0
 10
1117.5999999999999
 20
745.36869506835933
 42
-0
  0
VERTEX
  8
0
 10
1117.5999999999999
 20
780.9373901367187
 42
-0
  0
VERTEX
  8
0
 10
1091.5999999999999
 20
780.9373901367187
 42
-0
  0
SEQEND
  0
POLYLINE
  8
0
 10
0
 20
0
 39
0
 70
1
 66
1
  0
VERTEX
  8
0
 10
1065.8
 20
10.4
 42
-0
  0
VERTEX
  8
0
 10
1065.8
 20
250.40000000000001
 42
-0
  0
VERTEX
  8
0
 10
1117.8
 20
250.40000000000001
 42
-0
  0
VERTEX
  8
0
 10
1117.8
 20
219.40000000000001
 42
-0
  0
VERTEX
  8
0
 10
1188.8
 20
219.40000000000001
 42
-0
  0
VERTEX
  8
0
 10
1188.8
 20
250.40000000000001
 42
-0
  0
VERTEX
  8
0
 10
1210.8
 20
250.40000000000001
 42
-0
  0
VERTEX
  8
0
 10
1210.8
 20
81.53739013671877
 42
0
  0
VERTEX
  8
0
 10
1210.8
 20
10.400000000000036
 42
-0
  0
SEQEND
  0
POLYLINE
  8
0
 10
0
 20
0
 39
0
 70
1
 66
1
  0
VERTEX
  8
0
 10
1153.3
 20
45.968695068359381
 42
0
  0
VERTEX
  8
0
 10
1188.8
 20
45.968695068359381
 42
0
  0
VERTEX
  8
0
 10
1188.8
 20
157.81772460937501
 42
0
  0
VERTEX
  8
0
 10
1117.8
 20
157.81772460937501
 42
0
  0
SEQEND
  0
POLYLINE
  8
0
 10
0
 20
0
 39
0
 70
1
 66
1
  0
VERTEX
  8
0
 10
1091.8
 20
45.968695068359374
 42
-0
  0
VERTEX
  8
0
 10
1117.8
 20
45.968695068359374
 42
-0
  0
VERTEX
  8
0
 10
1117.8
 20
81.537390136718756
 42
-0
  0
VERTEX
  8
0
 10
1091.8
 20
81.537390136718756
 42
-0
  0
SEQEND
  0
POLYLINE
  8
0
 10
0
 20
0
 39
0
 70
1
 66
1
  0
VERTEX
  8
0
 10
1399.8
 20
450.60000000000002
 42
-0
  0
VERTEX
  8
0
 10
1239.8
 20
450.60000000000002
 42
-0
  0
VERTEX
  8
0
 10
1239.8
 20
520.60000000000002
 42
-0
  0
VERTEX
  8
0
 10
1399.8
 20
520.60000000000002
 42
0
  0
SEQEND
  0
POLYLINE
  8
0
 10
0
 20
0
 39
0
 70
1
 66
1
  0
VERTEX
  8
0
 10
1283.845539855957
 20
478.83977661132815
 42
1
  0
VERTEX
  8
0
 10
1253.8455322265625
 20
478.83977661132815
 42
1
  0
SEQEND
  0
POLYLINE
  8
0
 10
0
 20
0
 39
0
 70
1
 66
1
  0
VERTEX
  8
0
 10
1913.8
 20
10.4
 42
-0
  0
VERTEX
  8
0
 10
1913.8
 20
210.40000000000001
 42
0
  0
VERTEX
  8
0
 10
1963.8
 20
210.40000000000001
 42
0
  0
VERTEX
  8
0
 10
1963.8
 20
10.400000000000006
 42
0
  0
SEQEND
  0
POLYLINE
  8
0
 10
0
 20
0
 39
0
 70
1
 66
1
  0
VERTEX
  8
0
 10
1938.8
 20
47.073324584960936
 42
1
  0
VERTEX
  8
0
 10
1938.8
 20
77.073324584960943
 42
1
  0
SEQEND
  0
ENDSEC
  0
EOF
