  0
SECTION
  2
ENTITIES
  0
POLYLINE
  8
0
 10
0
 20
0
 39
0
 70
1
 66
1
  0
VERTEX
  8
0
 10
0
 20
0
 42
-0
  0
VERTEX
  8
0
 10
1700
 20
0
 42
-0
  0
VERTEX
  8
0
 10
1700
 20
900
 42
-0
  0
VERTEX
  8
0
 10
0
 20
900
 42
-0
  0
SEQEND
  0
POLYLINE
  8
0
 10
0
 20
0
 39
0
 70
1
 66
1
  0
VERTEX
  8
0
 10
233.70160153822516
 20
455.22864333225891
 42
-1
  0
VERTEX
  8
0
 10
231.75992897700061
 20
10.232887182966891
 42
-1
  0
SEQEND
  0
POLYLINE
  8
0
 10
0
 20
0
 39
0
 70
1
 66
1
  0
VERTEX
  8
0
 10
233.41798644501259
 20
390.22926322056458
 42
1
  0
VERTEX
  8
0
 10
232.04354407021319
 20
75.232267294661227
 42
1
  0
SEQEND
  0
POLYLINE
  8
0
 10
0
 20
0
 39
0
 70
1
 66
1
  0
VERTEX
  8
0
 10
369.9631399997636
 20
889.77479717841277
 42
-1
  0
VERTEX
  8
0
 10
368.02146743853905
 20
444.77904102912078
 42
-1
  0
SEQEND
  0
POLYLINE
  8
0
 10
0
 20
0
 39
0
 70
1
 66
1
  0
VERTEX
  8
0
 10
369.67952490655102
 20
824.77541706671843
 42
1
  0
VERTEX
  8
0
 10
368.30508253175162
 20
509.77842114081511
 42
1
  0
SEQEND
  0
POLYLINE
  8
0
 10
0
 20
0
 39
0
 70
1
 66
1
  0
VERTEX
  8
0
 10
678.18621692284057
 20
554.35172025533575
 42
-1
  0
VERTEX
  8
0
 10
676.24454436161602
 20
109.35596410604381
 42
-1
  0
SEQEND
  0
POLYLINE
  8
0
 10
0
 20
0
 39
0
 70
1
 66
1
  0
VERTEX
  8
0
 10
677.902601829628
 20
489.35234014364147
 42
1
  0
VERTEX
  8
0
 10
676.5281594548286
 20
174.35534421773815
 42
1
  0
SEQEND
  0
POLYLINE
  8
0
 10
0
 20
0
 39
0
 70
1
 66
1
  0
VERTEX
  8
0
 10
986.14775538437891
 20
889.77479717841277
 42
-1
  0
VERTEX
  8
0
 10
984.20608282315436
 20
444.77904102912078
 42
-1
  0
SEQEND
  0
POLYLINE
  8
0
 10
0
 20
0
 39
0
 70
1
 66
1
  0
VERTEX
  8
0
 10
985.86414029116634
 20
824.77541706671843
 42
1
  0
VERTEX
  8
0
 10
984.48969791636694
 20
509.77842114081511
 42
1
  0
SEQEND
  0
POLYLINE
  8
0
 10
0
 20
0
 39
0
 70
1
 66
1
  0
VERTEX
  8
0
 10
1122.6708323074558
 20
455.22864333225891
 42
-1
  0
VERTEX
  8
0
 10
1120.7291597462313
 20
10.232887182966891
 42
-1
  0
SEQEND
  0
POLYLINE
  8
0
 10
0
 20
0
 39
0
 70
1
 66
1
  0
VERTEX
  8
0
 10
1122.3872172142433
 20
390.22926322056458
 42
1
  0
VERTEX
  8
0
 10
1121.0127748394439
 20
75.232267294661227
 42
1
  0
SEQEND
  0
POLYLINE
  8
0
 10
0
 20
0
 39
0
 70
1
 66
1
  0
VERTEX
  8
0
 10
1430.6323707689944
 20
790.65172025533582
 42
-1
  0
VERTEX
  8
0
 10
1428.6906982077699
 20
345.65596410604383
 42
-1
  0
SEQEND
  0
POLYLINE
  8
0
 10
0
 20
0
 39
0
 70
1
 66
1
  0
VERTEX
  8
0
 10
1430.3487556757818
 20
725.65234014364148
 42
1
  0
VERTEX
  8
0
 10
1428.9743133009824
 20
410.65534421773816
 42
1
  0
SEQEND
  0
POLYLINE
  8
0
 10
0
 20
0
 39
0
 70
1
 66
1
  0
VERTEX
  8
0
 10
228.80638435911743
 20
374.47556151501976
 42
-1
  0
VERTEX
  8
0
 10
227.56284125810845
 20
89.478279486821492
 42
-1
  0
SEQEND
  0
POLYLINE
  8
0
 10
0
 20
0
 39
0
 70
1
 66
1
  0
VERTEX
  8
0
 10
228.5773106299842
 20
321.97606219403588
 42
1
  0
VERTEX
  8
0
 10
227.79191498724168
 20
141.97777880780538
 42
1
  0
SEQEND
  0
POLYLINE
  8
0
 10
0
 20
0
 39
0
 70
1
 66
1
  0
VERTEX
  8
0
 10
365.06792282065589
 20
809.02171536117362
 42
-1
  0
VERTEX
  8
0
 10
363.82437971964691
 20
524.02443333297538
 42
-1
  0
SEQEND
  0
POLYLINE
  8
0
 10
0
 20
0
 39
0
 70
1
 66
1
  0
VERTEX
  8
0
 10
364.83884909152266
 20
756.52221604018973
 42
1
  0
VERTEX
  8
0
 10
364.05345344878015
 20
576.52393265395926
 42
1
  0
SEQEND
  0
POLYLINE
  8
0
 10
0
 20
0
 39
0
 70
1
 66
1
  0
VERTEX
  8
0
 10
673.29099974373275
 20
473.59863843809666
 42
-1
  0
VERTEX
  8
0
 10
672.04745664272377
 20
188.60135640989841
 42
-1
  0
SEQEND
  0
POLYLINE
  8
0
 10
0
 20
0
 39
0
 70
1
 66
1
  0
VERTEX
  8
0
 10
673.06192601459952
 20
421.09913911711277
 42
1
  0
VERTEX
  8
0
 10
672.27653037185701
 20
241.1008557308823
 42
1
  0
SEQEND
  0
POLYLINE
  8
0
 10
0
 20
0
 39
0
 70
1
 66
1
  0
VERTEX
  8
0
 10
981.25253820527121
 20
809.02171536117362
 42
-1
  0
VERTEX
  8
0
 10
980.00899510426223
 20
524.02443333297538
 42
-1
  0
SEQEND
  0
POLYLINE
  8
0
 10
0
 20
0
 39
0
 70
1
 66
1
  0
VERTEX
  8
0
 10
981.02346447613797
 20
756.52221604018973
 42
1
  0
VERTEX
  8
0
 10
980.23806883339546
 20
576.52393265395926
 42
1
  0
SEQEND
  0
POLYLINE
  8
0
 10
0
 20
0
 39
0
 70
1
 66
1
  0
VERTEX
  8
0
 10
1117.7756151283481
 20
374.47556151501976
 42
-1
  0
VERTEX
  8
0
 10
1116.5320720273392
 20
89.478279486821492
 42
-1
  0
SEQEND
  0
POLYLINE
  8
0
 10
0
 20
0
 39
0
 70
1
 66
1
  0
VERTEX
  8
0
 10
1117.5465413992149
 20
321.97606219403588
 42
1
  0
VERTEX
  8
0
 10
1116.7611457564724
 20
141.97777880780538
 42
1
  0
SEQEND
  0
POLYLINE
  8
0
 10
0
 20
0
 39
0
 70
1
 66
1
  0
VERTEX
  8
0
 10
1425.7371535898865
 20
709.89863843809667
 42
-1
  0
VERTEX
  8
0
 10
1424.4936104888775
 20
424.90135640989843
 42
-1
  0
SEQEND
  0
POLYLINE
  8
0
 10
0
 20
0
 39
0
 70
1
 66
1
  0
VERTEX
  8
0
 10
1425.5080798607532
 20
657.39913911711278
 42
1
  0
VERTEX
  8
0
 10
1424.7226842180107
 20
477.40085573088231
 42
1
  0
SEQEND
  0
POLYLINE
  8
0
 10
0
 20
0
 39
0
 70
1
 66
1
  0
VERTEX
  8
0
 10
730
 20
889.03076923076924
 42
-0
  0
VERTEX
  8
0
 10
730
 20
629.03076923076924
 42
-0
  0
VERTEX
  8
0
 10
667
 20
629.03076923076924
 42
0.41421356797218323
  0
VERTEX
  8
0
 10
600
 20
696.03076923076924
 42
0
  0
VERTEX
  8
0
 10
600
 20
889.03076923076924
 42
0
  0
SEQEND
  0
POLYLINE
  8
0
 10
0
 20
0
 39
0
 70
1
 66
1
  0
VERTEX
  8
0
 10
702.73416328430176
 20
869.35193813030537
 42
1
  0
VERTEX
  8
0
 10
702.73416328430176
 20
845.35193622295674
 42
1
  0
SEQEND
  0
POLYLINE
  8
0
 10
0
 20
0
 39
0
 70
1
 66
1
  0
VERTEX
  8
0
 10
1354.4076923076923
 20
10.23076923076923
 42
-0
  0
VERTEX
  8
0
 10
1354.4076923076923
 20
270.23076923076923
 42
-0
  0
VERTEX
  8
0
 10
1417.4076923076923
 20
270.23076923076923
 42
0.41421356797218323
  0
VERTEX
  8
0
 10
1484.4076923076923
 20
203.23076923076923
 42
0
  0
VERTEX
  8
0
 10
1484.4076923076923
 20
10.230769230769246
 42
0
  0
SEQEND
  0
POLYLINE
  8
0
 10
0
 20
0
 39
0
 70
1
 66
1
  0
VERTEX
  8
0
 10
1381.6735290233905
 20
29.909600331233097
 42
1
  0
VERTEX
  8
0
 10
1381.6735290233905
 20
53.909602238581726
 42
1
  0
SEQEND
  0
POLYLINE
  8
0
 10
0
 20
0
 39
0
 70
1
 66
1
  0
VERTEX
  8
0
 10
1494.5923076923077
 20
10.23076923076923
 42
-0
  0
VERTEX
  8
0
 10
1494.5923076923077
 20
270.23076923076923
 42
-0
  0
VERTEX
  8
0
 10
1557.5923076923077
 20
270.23076923076923
 42
0.41421356797218323
  0
VERTEX
  8
0
 10
1624.5923076923077
 20
203.23076923076923
 42
0
  0
VERTEX
  8
0
 10
1624.5923076923077
 20
10.230769230769246
 42
0
  0
SEQEND
  0
POLYLINE
  8
0
 10
0
 20
0
 39
0
 70
1
 66
1
  0
VERTEX
  8
0
 10
1521.858144408006
 20
29.909600331233097
 42
1
  0
VERTEX
  8
0
 10
1521.858144408006
 20
53.909602238581726
 42
1
  0
SEQEND
  0
POLYLINE
  8
0
 10
0
 20
0
 39
0
 70
1
 66
1
  0
VERTEX
  8
0
 10
10.230769230769237
 20
424.24615384615385
 42
-0
  0
VERTEX
  8
0
 10
10.23076923076923
 20
534.2461538461539
 42
-0
  0
VERTEX
  8
0
 10
32.230769230769226
 20
534.2461538461539
 42
1
  0
VERTEX
  8
0
 10
78.230769230769241
 20
534.2461538461539
 42
-0
  0
VERTEX
  8
0
 10
100.23076923076924
 20
534.2461538461539
 42
-0
  0
VERTEX
  8
0
 10
100.23076923076924
 20
497.24615384615385
 42
1
  0
VERTEX
  8
0
 10
100.23076923076924
 20
461.24615384615385
 42
-0
  0
VERTEX
  8
0
 10
100.23076923076924
 20
424.24615384615385
 42
0
  0
SEQEND
  0
POLYLINE
  8
0
 10
0
 20
0
 39
0
 70
1
 66
1
  0
VERTEX
  8
0
 10
32.230769230769241
 20
435.56429196871244
 42
1
  0
VERTEX
  8
0
 10
32.230769230769234
 20
461.56429196871244
 42
1
  0
SEQEND
  0
POLYLINE
  8
0
 10
0
 20
0
 39
0
 70
1
 66
1
  0
VERTEX
  8
0
 10
10.230769230769237
 20
544.29230769230765
 42
-0
  0
VERTEX
  8
0
 10
10.23076923076923
 20
654.29230769230765
 42
-0
  0
VERTEX
  8
0
 10
32.230769230769226
 20
654.29230769230765
 42
1
  0
VERTEX
  8
0
 10
78.230769230769241
 20
654.29230769230765
 42
-0
  0
VERTEX
  8
0
 10
100.23076923076924
 20
654.29230769230765
 42
-0
  0
VERTEX
  8
0
 10
100.23076923076924
 20
617.29230769230765
 42
1
  0
VERTEX
  8
0
 10
100.23076923076924
 20
581.29230769230765
 42
-0
  0
VERTEX
  8
0
 10
100.23076923076924
 20
544.29230769230765
 42
0
  0
SEQEND
  0
POLYLINE
  8
0
 10
0
 20
0
 39
0
 70
1
 66
1
  0
VERTEX
  8
0
 10
32.230769230769241
 20
555.61044581486624
 42
1
  0
VERTEX
  8
0
 10
32.230769230769234
 20
581.61044581486624
 42
1
  0
SEQEND
  0
POLYLINE
  8
0
 10
0
 20
0
 39
0
 70
1
 66
1
  0
VERTEX
  8
0
 10
10.230769230769237
 20
664.3384615384615
 42
-0
  0
VERTEX
  8
0
 10
10.23076923076923
 20
774.3384615384615
 42
-0
  0
VERTEX
  8
0
 10
32.230769230769226
 20
774.3384615384615
 42
1
  0
VERTEX
  8
0
 10
78.230769230769241
 20
774.3384615384615
 42
-0
  0
VERTEX
  8
0
 10
100.23076923076924
 20
774.3384615384615
 42
-0
  0
VERTEX
  8
0
 10
100.23076923076924
 20
737.3384615384615
 42
1
  0
VERTEX
  8
0
 10
100.23076923076924
 20
701.3384615384615
 42
-0
  0
VERTEX
  8
0
 10
100.23076923076924
 20
664.3384615384615
 42
0
  0
SEQEND
  0
POLYLINE
  8
0
 10
0
 20
0
 39
0
 70
1
 66
1
  0
VERTEX
  8
0
 10
32.230769230769241
 20
675.6565996610201
 42
1
  0
VERTEX
  8
0
 10
32.230769230769234
 20
701.6565996610201
 42
1
  0
SEQEND
  0
POLYLINE
  8
0
 10
0
 20
0
 39
0
 70
1
 66
1
  0
VERTEX
  8
0
 10
120.23076923076923
 20
784.38461538461536
 42
-0
  0
VERTEX
  8
0
 10
10.230769230769226
 20
784.38461538461536
 42
-0
  0
VERTEX
  8
0
 10
10.230769230769226
 20
806.38461538461536
 42
1
  0
VERTEX
  8
0
 10
10.230769230769226
 20
852.38461538461536
 42
-0
  0
VERTEX
  8
0
 10
10.230769230769226
 20
874.38461538461536
 42
-0
  0
VERTEX
  8
0
 10
47.230769230769226
 20
874.38461538461536
 42
1
  0
VERTEX
  8
0
 10
83.230769230769226
 20
874.38461538461536
 42
-0
  0
VERTEX
  8
0
 10
120.23076923076923
 20
874.38461538461536
 42
0
  0
SEQEND
  0
POLYLINE
  8
0
 10
0
 20
0
 39
0
 70
1
 66
1
  0
VERTEX
  8
0
 10
108.91263110821063
 20
806.38461538461536
 42
1
  0
VERTEX
  8
0
 10
82.912631108210633
 20
806.38461538461536
 42
1
  0
SEQEND
  0
POLYLINE
  8
0
 10
0
 20
0
 39
0
 70
1
 66
1
  0
VERTEX
  8
0
 10
170.55384615384614
 20
176.96153846153845
 42
-0
  0
VERTEX
  8
0
 10
170.55384615384614
 20
286.96153846153845
 42
-0
  0
VERTEX
  8
0
 10
192.55384615384614
 20
286.96153846153845
 42
1
  0
VERTEX
  8
0
 10
238.55384615384614
 20
286.96153846153845
 42
-0
  0
VERTEX
  8
0
 10
260.55384615384617
 20
286.96153846153845
 42
-0
  0
VERTEX
  8
0
 10
260.55384615384617
 20
249.96153846153845
 42
1
  0
VERTEX
  8
0
 10
260.55384615384617
 20
213.96153846153845
 42
-0
  0
VERTEX
  8
0
 10
260.55384615384617
 20
176.96153846153845
 42
0
  0
SEQEND
  0
POLYLINE
  8
0
 10
0
 20
0
 39
0
 70
1
 66
1
  0
VERTEX
  8
0
 10
192.55384615384614
 20
188.27967658409705
 42
1
  0
VERTEX
  8
0
 10
192.55384615384614
 20
214.27967658409705
 42
1
  0
SEQEND
  0
POLYLINE
  8
0
 10
0
 20
0
 39
0
 70
1
 66
1
  0
VERTEX
  8
0
 10
306.81538461538457
 20
611.50769230769231
 42
-0
  0
VERTEX
  8
0
 10
306.81538461538457
 20
721.50769230769231
 42
-0
  0
VERTEX
  8
0
 10
328.81538461538457
 20
721.50769230769231
 42
1
  0
VERTEX
  8
0
 10
374.81538461538457
 20
721.50769230769231
 42
-0
  0
VERTEX
  8
0
 10
396.81538461538457
 20
721.50769230769231
 42
-0
  0
VERTEX
  8
0
 10
396.81538461538457
 20
684.50769230769231
 42
1
  0
VERTEX
  8
0
 10
396.81538461538457
 20
648.50769230769231
 42
-0
  0
VERTEX
  8
0
 10
396.81538461538457
 20
611.50769230769231
 42
0
  0
SEQEND
  0
POLYLINE
  8
0
 10
0
 20
0
 39
0
 70
1
 66
1
  0
VERTEX
  8
0
 10
328.81538461538457
 20
622.8258304302509
 42
1
  0
VERTEX
  8
0
 10
328.81538461538457
 20
648.8258304302509
 42
1
  0
SEQEND
  0
POLYLINE
  8
0
 10
0
 20
0
 39
0
 70
1
 66
1
  0
VERTEX
  8
0
 10
436.66923076923075
 20
10.23076923076923
 42
-0
  0
VERTEX
  8
0
 10
436.66923076923075
 20
120.23076923076923
 42
-0
  0
VERTEX
  8
0
 10
458.66923076923075
 20
120.23076923076923
 42
1
  0
VERTEX
  8
0
 10
504.66923076923075
 20
120.23076923076923
 42
-0
  0
VERTEX
  8
0
 10
526.66923076923081
 20
120.23076923076923
 42
-0
  0
VERTEX
  8
0
 10
526.66923076923081
 20
83.230769230769226
 42
1
  0
VERTEX
  8
0
 10
526.66923076923081
 20
47.230769230769241
 42
-0
  0
VERTEX
  8
0
 10
526.66923076923081
 20
10.230769230769241
 42
0
  0
SEQEND
  0
POLYLINE
  8
0
 10
0
 20
0
 39
0
 70
1
 66
1
  0
VERTEX
  8
0
 10
458.66923076923075
 20
21.548907353327827
 42
1
  0
VERTEX
  8
0
 10
458.66923076923075
 20
47.54890735332782
 42
1
  0
SEQEND
  0
POLYLINE
  8
0
 10
0
 20
0
 39
0
 70
1
 66
1
  0
VERTEX
  8
0
 10
646.8384615384615
 20
10.23076923076923
 42
-0
  0
VERTEX
  8
0
 10
536.8384615384615
 20
10.23076923076923
 42
-0
  0
VERTEX
  8
0
 10
536.8384615384615
 20
32.230769230769226
 42
1
  0
VERTEX
  8
0
 10
536.8384615384615
 20
78.230769230769226
 42
-0
  0
VERTEX
  8
0
 10
536.8384615384615
 20
100.23076923076923
 42
-0
  0
VERTEX
  8
0
 10
573.8384615384615
 20
100.23076923076923
 42
1
  0
VERTEX
  8
0
 10
609.8384615384615
 20
100.23076923076923
 42
-0
  0
VERTEX
  8
0
 10
646.8384615384615
 20
100.23076923076923
 42
0
  0
SEQEND
  0
POLYLINE
  8
0
 10
0
 20
0
 39
0
 70
1
 66
1
  0
VERTEX
  8
0
 10
635.52032341590291
 20
32.230769230769226
 42
1
  0
VERTEX
  8
0
 10
609.52032341590291
 20
32.230769230769226
 42
1
  0
SEQEND
  0
POLYLINE
  8
0
 10
0
 20
0
 39
0
 70
1
 66
1
  0
VERTEX
  8
0
 10
615.03846153846155
 20
276.08461538461535
 42
-0
  0
VERTEX
  8
0
 10
615.03846153846155
 20
386.08461538461535
 42
-0
  0
VERTEX
  8
0
 10
637.03846153846155
 20
386.08461538461535
 42
1
  0
VERTEX
  8
0
 10
683.03846153846155
 20
386.08461538461535
 42
-0
  0
VERTEX
  8
0
 10
705.03846153846155
 20
386.08461538461535
 42
-0
  0
VERTEX
  8
0
 10
705.03846153846155
 20
349.08461538461535
 42
1
  0
VERTEX
  8
0
 10
705.03846153846155
 20
313.08461538461535
 42
-0
  0
VERTEX
  8
0
 10
705.03846153846155
 20
276.08461538461535
 42
0
  0
SEQEND
  0
POLYLINE
  8
0
 10
0
 20
0
 39
0
 70
1
 66
1
  0
VERTEX
  8
0
 10
637.03846153846155
 20
287.40275350717394
 42
1
  0
VERTEX
  8
0
 10
637.03846153846155
 20
313.40275350717394
 42
1
  0
SEQEND
  0
POLYLINE
  8
0
 10
0
 20
0
 39
0
 70
1
 66
1
  0
VERTEX
  8
0
 10
810.43076923076922
 20
10.23076923076923
 42
-0
  0
VERTEX
  8
0
 10
700.43076923076922
 20
10.23076923076923
 42
-0
  0
VERTEX
  8
0
 10
700.43076923076922
 20
32.230769230769226
 42
1
  0
VERTEX
  8
0
 10
700.43076923076922
 20
78.230769230769226
 42
-0
  0
VERTEX
  8
0
 10
700.43076923076922
 20
100.23076923076923
 42
-0
  0
VERTEX
  8
0
 10
737.43076923076922
 20
100.23076923076923
 42
1
  0
VERTEX
  8
0
 10
773.43076923076922
 20
100.23076923076923
 42
-0
  0
VERTEX
  8
0
 10
810.43076923076922
 20
100.23076923076923
 42
0
  0
SEQEND
  0
POLYLINE
  8
0
 10
0
 20
0
 39
0
 70
1
 66
1
  0
VERTEX
  8
0
 10
799.11263110821062
 20
32.230769230769226
 42
1
  0
VERTEX
  8
0
 10
773.11263110821062
 20
32.230769230769226
 42
1
  0
SEQEND
  0
POLYLINE
  8
0
 10
0
 20
0
 39
0
 70
1
 66
1
  0
VERTEX
  8
0
 10
820.60769230769222
 20
10.23076923076923
 42
-0
  0
VERTEX
  8
0
 10
820.60769230769222
 20
120.23076923076923
 42
-0
  0
VERTEX
  8
0
 10
842.60769230769222
 20
120.23076923076923
 42
1
  0
VERTEX
  8
0
 10
888.60769230769222
 20
120.23076923076923
 42
-0
  0
VERTEX
  8
0
 10
910.60769230769222
 20
120.23076923076923
 42
-0
  0
VERTEX
  8
0
 10
910.60769230769222
 20
83.230769230769226
 42
1
  0
VERTEX
  8
0
 10
910.60769230769222
 20
47.230769230769241
 42
-0
  0
VERTEX
  8
0
 10
910.60769230769222
 20
10.230769230769241
 42
0
  0
SEQEND
  0
POLYLINE
  8
0
 10
0
 20
0
 39
0
 70
1
 66
1
  0
VERTEX
  8
0
 10
842.60769230769222
 20
21.548907353327827
 42
1
  0
VERTEX
  8
0
 10
842.60769230769222
 20
47.54890735332782
 42
1
  0
SEQEND
  0
POLYLINE
  8
0
 10
0
 20
0
 39
0
 70
1
 66
1
  0
VERTEX
  8
0
 10
923
 20
611.50769230769231
 42
-0
  0
VERTEX
  8
0
 10
923
 20
721.50769230769231
 42
-0
  0
VERTEX
  8
0
 10
945
 20
721.50769230769231
 42
1
  0
VERTEX
  8
0
 10
991
 20
721.50769230769231
 42
-0
  0
VERTEX
  8
0
 10
1013
 20
721.50769230769231
 42
-0
  0
VERTEX
  8
0
 10
1013
 20
684.50769230769231
 42
1
  0
VERTEX
  8
0
 10
1013
 20
648.50769230769231
 42
-0
  0
VERTEX
  8
0
 10
1013
 20
611.50769230769231
 42
0
  0
SEQEND
  0
POLYLINE
  8
0
 10
0
 20
0
 39
0
 70
1
 66
1
  0
VERTEX
  8
0
 10
945
 20
622.8258304302509
 42
1
  0
VERTEX
  8
0
 10
945
 20
648.8258304302509
 42
1
  0
SEQEND
  0
POLYLINE
  8
0
 10
0
 20
0
 39
0
 70
1
 66
1
  0
VERTEX
  8
0
 10
1059.5230769230768
 20
176.96153846153845
 42
-0
  0
VERTEX
  8
0
 10
1059.5230769230768
 20
286.96153846153845
 42
-0
  0
VERTEX
  8
0
 10
1081.5230769230768
 20
286.96153846153845
 42
1
  0
VERTEX
  8
0
 10
1127.5230769230768
 20
286.96153846153845
 42
-0
  0
VERTEX
  8
0
 10
1149.5230769230768
 20
286.96153846153845
 42
-0
  0
VERTEX
  8
0
 10
1149.5230769230768
 20
249.96153846153845
 42
1
  0
VERTEX
  8
0
 10
1149.5230769230768
 20
213.96153846153845
 42
-0
  0
VERTEX
  8
0
 10
1149.5230769230768
 20
176.96153846153845
 42
0
  0
SEQEND
  0
POLYLINE
  8
0
 10
0
 20
0
 39
0
 70
1
 66
1
  0
VERTEX
  8
0
 10
1081.5230769230768
 20
188.27967658409705
 42
1
  0
VERTEX
  8
0
 10
1081.5230769230768
 20
214.27967658409705
 42
1
  0
SEQEND
  0
POLYLINE
  8
0
 10
0
 20
0
 39
0
 70
1
 66
1
  0
VERTEX
  8
0
 10
1189.1153846153845
 20
779.676923076923
 42
-0
  0
VERTEX
  8
0
 10
1189.1153846153845
 20
889.676923076923
 42
-0
  0
VERTEX
  8
0
 10
1211.1153846153845
 20
889.676923076923
 42
1
  0
VERTEX
  8
0
 10
1257.1153846153845
 20
889.676923076923
 42
-0
  0
VERTEX
  8
0
 10
1279.1153846153845
 20
889.676923076923
 42
-0
  0
VERTEX
  8
0
 10
1279.1153846153845
 20
852.676923076923
 42
1
  0
VERTEX
  8
0
 10
1279.1153846153845
 20
816.676923076923
 42
-0
  0
VERTEX
  8
0
 10
1279.1153846153845
 20
779.676923076923
 42
0
  0
SEQEND
  0
POLYLINE
  8
0
 10
0
 20
0
 39
0
 70
1
 66
1
  0
VERTEX
  8
0
 10
1211.1153846153845
 20
790.9950611994816
 42
1
  0
VERTEX
  8
0
 10
1211.1153846153845
 20
816.9950611994816
 42
1
  0
SEQEND
  0
POLYLINE
  8
0
 10
0
 20
0
 39
0
 70
1
 66
1
  0
VERTEX
  8
0
 10
1399.2846153846153
 20
799.03076923076924
 42
-0
  0
VERTEX
  8
0
 10
1289.2846153846153
 20
799.03076923076924
 42
-0
  0
VERTEX
  8
0
 10
1289.2846153846153
 20
821.03076923076924
 42
1
  0
VERTEX
  8
0
 10
1289.2846153846153
 20
867.03076923076924
 42
-0
  0
VERTEX
  8
0
 10
1289.2846153846153
 20
889.03076923076924
 42
-0
  0
VERTEX
  8
0
 10
1326.2846153846153
 20
889.03076923076924
 42
1
  0
VERTEX
  8
0
 10
1362.2846153846153
 20
889.03076923076924
 42
-0
  0
VERTEX
  8
0
 10
1399.2846153846153
 20
889.03076923076924
 42
0
  0
SEQEND
  0
POLYLINE
  8
0
 10
0
 20
0
 39
0
 70
1
 66
1
  0
VERTEX
  8
0
 10
1387.9664772620567
 20
821.03076923076924
 42
1
  0
VERTEX
  8
0
 10
1361.9664772620567
 20
821.03076923076924
 42
1
  0
SEQEND
  0
POLYLINE
  8
0
 10
0
 20
0
 39
0
 70
1
 66
1
  0
VERTEX
  8
0
 10
110.39999999999999
 20
454.19230769230768
 42
0
  0
VERTEX
  8
0
 10
110.39999999999999
 20
554.19230769230762
 42
0
  0
VERTEX
  8
0
 10
160.39999999999998
 20
554.19230769230762
 42
0
  0
VERTEX
  8
0
 10
160.39999999999998
 20
454.19230769230768
 42
0
  0
SEQEND
  0
POLYLINE
  8
0
 10
0
 20
0
 39
0
 70
1
 66
1
  0
VERTEX
  8
0
 10
135.39999999999998
 20
473.94230769230768
 42
1
  0
VERTEX
  8
0
 10
135.39999999999998
 20
494.44230769230768
 42
1
  0
SEQEND
  0
POLYLINE
  8
0
 10
0
 20
0
 39
0
 70
1
 66
1
  0
VERTEX
  8
0
 10
695.81538461538457
 20
564.43076923076922
 42
0
  0
VERTEX
  8
0
 10
595.81538461538457
 20
564.43076923076922
 42
0
  0
VERTEX
  8
0
 10
595.81538461538457
 20
614.43076923076922
 42
0
  0
VERTEX
  8
0
 10
695.81538461538457
 20
614.43076923076922
 42
0
  0
SEQEND
  0
POLYLINE
  8
0
 10
0
 20
0
 39
0
 70
1
 66
1
  0
VERTEX
  8
0
 10
676.06538461538457
 20
589.43076923076922
 42
1
  0
VERTEX
  8
0
 10
655.56538461538457
 20
589.43076923076922
 42
1
  0
SEQEND
  0
POLYLINE
  8
0
 10
0
 20
0
 39
0
 70
1
 66
1
  0
VERTEX
  8
0
 10
1363.1692307692308
 20
517.35384615384612
 42
0
  0
VERTEX
  8
0
 10
1363.1692307692308
 20
617.35384615384612
 42
0
  0
VERTEX
  8
0
 10
1413.1692307692308
 20
617.35384615384612
 42
0
  0
VERTEX
  8
0
 10
1413.1692307692308
 20
517.35384615384612
 42
0
  0
SEQEND
  0
POLYLINE
  8
0
 10
0
 20
0
 39
0
 70
1
 66
1
  0
VERTEX
  8
0
 10
1388.1692307692308
 20
537.10384615384612
 42
1
  0
VERTEX
  8
0
 10
1388.1692307692308
 20
557.60384615384612
 42
1
  0
SEQEND
  0
POLYLINE
  8
0
 10
0
 20
0
 39
0
 70
1
 66
1
  0
VERTEX
  8
0
 10
1448.5230769230768
 20
285.5
 42
0
  0
VERTEX
  8
0
 10
1348.5230769230768
 20
285.5
 42
0
  0
VERTEX
  8
0
 10
1348.5230769230768
 20
335.5
 42
0
  0
VERTEX
  8
0
 10
1448.5230769230768
 20
335.5
 42
0
  0
SEQEND
  0
POLYLINE
  8
0
 10
0
 20
0
 39
0
 70
1
 66
1
  0
VERTEX
  8
0
 10
1428.7730769230768
 20
310.5
 42
1
  0
VERTEX
  8
0
 10
1408.2730769230768
 20
310.5
 42
1
  0
SEQEND
  0
POLYLINE
  8
0
 10
0
 20
0
 39
0
 70
1
 66
1
  0
VERTEX
  8
0
 10
1423.3230769230768
 20
504.01538461538462
 42
0
  0
VERTEX
  8
0
 10
1423.3230769230768
 20
604.01538461538462
 42
0
  0
VERTEX
  8
0
 10
1473.3230769230768
 20
604.01538461538462
 42
0
  0
VERTEX
  8
0
 10
1473.3230769230768
 20
504.01538461538462
 42
0
  0
SEQEND
  0
POLYLINE
  8
0
 10
0
 20
0
 39
0
 70
1
 66
1
  0
VERTEX
  8
0
 10
1448.3230769230768
 20
523.76538461538462
 42
1
  0
VERTEX
  8
0
 10
1448.3230769230768
 20
544.26538461538462
 42
1
  0
SEQEND
  0
POLYLINE
  8
0
 10
0
 20
0
 39
0
 70
1
 66
1
  0
VERTEX
  8
0
 10
1509.4615384615383
 20
800.73076923076917
 42
0
  0
VERTEX
  8
0
 10
1409.4615384615383
 20
800.73076923076917
 42
0
  0
VERTEX
  8
0
 10
1409.4615384615383
 20
850.73076923076917
 42
0
  0
VERTEX
  8
0
 10
1509.4615384615383
 20
850.73076923076917
 42
0
  0
SEQEND
  0
POLYLINE
  8
0
 10
0
 20
0
 39
0
 70
1
 66
1
  0
VERTEX
  8
0
 10
1489.7115384615383
 20
825.73076923076917
 42
1
  0
VERTEX
  8
0
 10
1469.2115384615383
 20
825.73076923076917
 42
1
  0
SEQEND
  0
POLYLINE
  8
0
 10
0
 20
0
 39
0
 70
1
 66
1
  0
VERTEX
  8
0
 10
1558.7615384615383
 20
280.26923076923077
 42
0
  0
VERTEX
  8
0
 10
1458.7615384615383
 20
280.26923076923077
 42
0
  0
VERTEX
  8
0
 10
1458.7615384615383
 20
330.26923076923077
 42
0
  0
VERTEX
  8
0
 10
1558.7615384615383
 20
330.26923076923077
 42
0
  0
SEQEND
  0
POLYLINE
  8
0
 10
0
 20
0
 39
0
 70
1
 66
1
  0
VERTEX
  8
0
 10
1539.0115384615383
 20
305.26923076923077
 42
1
  0
VERTEX
  8
0
 10
1518.5115384615383
 20
305.26923076923077
 42
1
  0
SEQEND
  0
POLYLINE
  8
0
 10
0
 20
0
 39
0
 70
1
 66
1
  0
VERTEX
  8
0
 10
1519.6999999999998
 20
782.94615384615383
 42
0
  0
VERTEX
  8
0
 10
1519.6999999999998
 20
882.94615384615383
 42
0
  0
VERTEX
  8
0
 10
1569.6999999999998
 20
882.94615384615383
 42
0
  0
VERTEX
  8
0
 10
1569.6999999999998
 20
782.94615384615383
 42
0
  0
SEQEND
  0
POLYLINE
  8
0
 10
0
 20
0
 39
0
 70
1
 66
1
  0
VERTEX
  8
0
 10
1544.6999999999998
 20
802.69615384615383
 42
1
  0
VERTEX
  8
0
 10
1544.6999999999998
 20
823.19615384615383
 42
1
  0
SEQEND
  0
POLYLINE
  8
0
 10
0
 20
0
 39
0
 70
1
 66
1
  0
VERTEX
  8
0
 10
1569
 20
259.21538461538461
 42
0
  0
VERTEX
  8
0
 10
1569
 20
359.21538461538461
 42
0
  0
VERTEX
  8
0
 10
1619
 20
359.21538461538461
 42
0
  0
VERTEX
  8
0
 10
1619
 20
259.21538461538461
 42
0
  0
SEQEND
  0
POLYLINE
  8
0
 10
0
 20
0
 39
0
 70
1
 66
1
  0
VERTEX
  8
0
 10
1594
 20
278.96538461538461
 42
1
  0
VERTEX
  8
0
 10
1594
 20
299.46538461538461
 42
1
  0
SEQEND
  0
POLYLINE
  8
0
 10
0
 20
0
 39
0
 70
1
 66
1
  0
VERTEX
  8
0
 10
1579.853846153846
 20
746.06923076923078
 42
0
  0
VERTEX
  8
0
 10
1579.853846153846
 20
846.06923076923078
 42
0
  0
VERTEX
  8
0
 10
1629.853846153846
 20
846.06923076923078
 42
0
  0
VERTEX
  8
0
 10
1629.853846153846
 20
746.06923076923078
 42
0
  0
SEQEND
  0
POLYLINE
  8
0
 10
0
 20
0
 39
0
 70
1
 66
1
  0
VERTEX
  8
0
 10
1604.853846153846
 20
765.81923076923078
 42
1
  0
VERTEX
  8
0
 10
1604.853846153846
 20
786.31923076923078
 42
1
  0
SEQEND
  0
POLYLINE
  8
0
 10
0
 20
0
 39
0
 70
1
 66
1
  0
VERTEX
  8
0
 10
1629.1538461538462
 20
212.66153846153844
 42
0
  0
VERTEX
  8
0
 10
1629.1538461538462
 20
312.66153846153844
 42
0
  0
VERTEX
  8
0
 10
1679.1538461538462
 20
312.66153846153844
 42
0
  0
VERTEX
  8
0
 10
1679.1538461538462
 20
212.66153846153844
 42
0
  0
SEQEND
  0
POLYLINE
  8
0
 10
0
 20
0
 39
0
 70
1
 66
1
  0
VERTEX
  8
0
 10
1654.1538461538462
 20
232.41153846153844
 42
1
  0
VERTEX
  8
0
 10
1654.1538461538462
 20
252.91153846153844
 42
1
  0
SEQEND
  0
POLYLINE
  8
0
 10
0
 20
0
 39
0
 70
1
 66
1
  0
VERTEX
  8
0
 10
1629.1538461538462
 20
322.76923076923077
 42
0
  0
VERTEX
  8
0
 10
1629.1538461538462
 20
422.76923076923077
 42
0
  0
VERTEX
  8
0
 10
1679.1538461538462
 20
422.76923076923077
 42
0
  0
VERTEX
  8
0
 10
1679.1538461538462
 20
322.76923076923077
 42
0
  0
SEQEND
  0
POLYLINE
  8
0
 10
0
 20
0
 39
0
 70
1
 66
1
  0
VERTEX
  8
0
 10
1654.1538461538462
 20
342.51923076923077
 42
1
  0
VERTEX
  8
0
 10
1654.1538461538462
 20
363.01923076923077
 42
1
  0
SEQEND
  0
POLYLINE
  8
0
 10
0
 20
0
 39
0
 70
1
 66
1
  0
VERTEX
  8
0
 10
1634.7769230769229
 20
10.23076923076923
 42
0
  0
VERTEX
  8
0
 10
1634.7769230769229
 20
110.23076923076923
 42
0
  0
VERTEX
  8
0
 10
1684.7769230769229
 20
110.23076923076923
 42
0
  0
VERTEX
  8
0
 10
1684.7769230769229
 20
10.230769230769234
 42
0
  0
SEQEND
  0
POLYLINE
  8
0
 10
0
 20
0
 39
0
 70
1
 66
1
  0
VERTEX
  8
0
 10
1659.7769230769229
 20
29.98076923076923
 42
1
  0
VERTEX
  8
0
 10
1659.7769230769229
 20
50.480769230769226
 42
1
  0
SEQEND
  0
POLYLINE
  8
0
 10
0
 20
0
 39
0
 70
1
 66
1
  0
VERTEX
  8
0
 10
10.230769230769248
 20
10.230769230769234
 42
-0
  0
VERTEX
  8
0
 10
10.230769230769234
 20
70.230769230769226
 42
-1
  0
VERTEX
  8
0
 10
50.230769230769234
 20
70.230769230769241
 42
-0
  0
VERTEX
  8
0
 10
50.230769230769248
 20
10.230769230769241
 42
-0
  0
SEQEND
  0
POLYLINE
  8
0
 10
0
 20
0
 39
0
 70
1
 66
1
  0
VERTEX
  8
0
 10
30.230769230769234
 20
77.230769230769241
 42
1
  0
VERTEX
  8
0
 10
30.230769230769234
 20
63.230769230769241
 42
1
  0
SEQEND
  0
POLYLINE
  8
0
 10
0
 20
0
 39
0
 70
1
 66
1
  0
VERTEX
  8
0
 10
170.40769230769232
 20
854.44615384615383
 42
-0
  0
VERTEX
  8
0
 10
170.40769230769232
 20
794.44615384615383
 42
-1
  0
VERTEX
  8
0
 10
130.40769230769232
 20
794.44615384615383
 42
-0
  0
VERTEX
  8
0
 10
130.40769230769232
 20
854.44615384615383
 42
-0
  0
SEQEND
  0
POLYLINE
  8
0
 10
0
 20
0
 39
0
 70
1
 66
1
  0
VERTEX
  8
0
 10
150.40769230769232
 20
787.44615384615383
 42
1
  0
VERTEX
  8
0
 10
150.40769230769232
 20
801.44615384615383
 42
1
  0
SEQEND
  0
POLYLINE
  8
0
 10
0
 20
0
 39
0
 70
1
 66
1
  0
VERTEX
  8
0
 10
580.48461538461538
 20
849.76923076923072
 42
-0
  0
VERTEX
  8
0
 10
520.48461538461538
 20
849.76923076923072
 42
-1
  0
VERTEX
  8
0
 10
520.48461538461538
 20
889.76923076923072
 42
-0
  0
VERTEX
  8
0
 10
580.48461538461538
 20
889.76923076923072
 42
-0
  0
SEQEND
  0
POLYLINE
  8
0
 10
0
 20
0
 39
0
 70
1
 66
1
  0
VERTEX
  8
0
 10
513.48461538461538
 20
869.76923076923072
 42
1
  0
VERTEX
  8
0
 10
527.48461538461538
 20
869.76923076923072
 42
1
  0
SEQEND
  0
POLYLINE
  8
0
 10
0
 20
0
 39
0
 70
1
 66
1
  0
VERTEX
  8
0
 10
780.18461538461531
 20
842.676923076923
 42
-0
  0
VERTEX
  8
0
 10
780.18461538461531
 20
782.676923076923
 42
-1
  0
VERTEX
  8
0
 10
740.18461538461531
 20
782.676923076923
 42
-0
  0
VERTEX
  8
0
 10
740.18461538461531
 20
842.676923076923
 42
-0
  0
SEQEND
  0
POLYLINE
  8
0
 10
0
 20
0
 39
0
 70
1
 66
1
  0
VERTEX
  8
0
 10
760.18461538461531
 20
775.676923076923
 42
1
  0
VERTEX
  8
0
 10
760.18461538461531
 20
789.676923076923
 42
1
  0
SEQEND
  0
POLYLINE
  8
0
 10
0
 20
0
 39
0
 70
1
 66
1
  0
VERTEX
  8
0
 10
1333.0615384615385
 20
10.230769230769241
 42
-0
  0
VERTEX
  8
0
 10
1273.0615384615385
 20
10.230769230769234
 42
-1
  0
VERTEX
  8
0
 10
1273.0615384615385
 20
50.230769230769234
 42
-0
  0
VERTEX
  8
0
 10
1333.0615384615385
 20
50.230769230769241
 42
-0
  0
SEQEND
  0
POLYLINE
  8
0
 10
0
 20
0
 39
0
 70
1
 66
1
  0
VERTEX
  8
0
 10
1266.0615384615385
 20
30.230769230769234
 42
1
  0
VERTEX
  8
0
 10
1280.0615384615385
 20
30.230769230769234
 42
1
  0
SEQEND
  0
POLYLINE
  8
0
 10
0
 20
0
 39
0
 70
1
 66
1
  0
VERTEX
  8
0
 10
1674.7769230769229
 20
200.33846153846153
 42
-0
  0
VERTEX
  8
0
 10
1674.7769230769229
 20
140.33846153846153
 42
-1
  0
VERTEX
  8
0
 10
1634.7769230769229
 20
140.33846153846153
 42
-0
  0
VERTEX
  8
0
 10
1634.7769230769229
 20
200.33846153846153
 42
-0
  0
SEQEND
  0
POLYLINE
  8
0
 10
0
 20
0
 39
0
 70
1
 66
1
  0
VERTEX
  8
0
 10
1654.7769230769229
 20
133.33846153846153
 42
1
  0
VERTEX
  8
0
 10
1654.7769230769229
 20
147.33846153846153
 42
1
  0
SEQEND
  0
POLYLINE
  8
0
 10
0
 20
0
 39
0
 70
1
 66
1
  0
VERTEX
  8
0
 10
1677.1307692307691
 20
738.5846153846154
 42
-0
  0
VERTEX
  8
0
 10
1677.1307692307691
 20
678.5846153846154
 42
-1
  0
VERTEX
  8
0
 10
1637.1307692307691
 20
678.5846153846154
 42
-0
  0
VERTEX
  8
0
 10
1637.1307692307691
 20
738.5846153846154
 42
-0
  0
SEQEND
  0
POLYLINE
  8
0
 10
0
 20
0
 39
0
 70
1
 66
1
  0
VERTEX
  8
0
 10
1657.1307692307691
 20
671.5846153846154
 42
1
  0
VERTEX
  8
0
 10
1657.1307692307691
 20
685.5846153846154
 42
1
  0
SEQEND
  0
POLYLINE
  8
0
 10
0
 20
0
 39
0
 70
1
 66
1
  0
VERTEX
  8
0
 10
1680.0076923076922
 20
828.68461538461531
 42
-0
  0
VERTEX
  8
0
 10
1680.0076923076922
 20
768.68461538461531
 42
-1
  0
VERTEX
  8
0
 10
1640.0076923076922
 20
768.68461538461531
 42
-0
  0
VERTEX
  8
0
 10
1640.0076923076922
 20
828.68461538461531
 42
-0
  0
SEQEND
  0
POLYLINE
  8
0
 10
0
 20
0
 39
0
 70
1
 66
1
  0
VERTEX
  8
0
 10
1660.0076923076922
 20
761.68461538461531
 42
1
  0
VERTEX
  8
0
 10
1660.0076923076922
 20
775.68461538461531
 42
1
  0
SEQEND
  0
ENDSEC
  0
EOF
