  0
SECTION
  2
ENTITIES
  0
POLYLINE
  8
0
 10
0
 20
0
 39
0
 70
1
 66
1
  0
VERTEX
  8
0
 10
0
 20
0
 42
-0
  0
VERTEX
  8
0
 10
1750
 20
0
 42
-0
  0
VERTEX
  8
0
 10
1750
 20
1000
 42
-0
  0
VERTEX
  8
0
 10
0
 20
1000
 42
-0
  0
SEQEND
  0
POLYLINE
  8
0
 10
0
 20
0
 39
0
 70
1
 66
1
  0
VERTEX
  8
0
 10
512.25
 20
645.75
 42
0
  0
VERTEX
  8
0
 10
496.04998779296875
 20
645.75
 42
-2.4142136573791504
  0
VERTEX
  8
0
 10
494.75
 20
647.04998779296875
 42
-0
  0
VERTEX
  8
0
 10
494.75
 20
663.25
 42
0
  0
VERTEX
  8
0
 10
27.75
 20
663.25
 42
0
  0
VERTEX
  8
0
 10
27.75
 20
647.04998779296875
 42
-2.4142136573791504
  0
VERTEX
  8
0
 10
26.450000762939453
 20
645.75
 42
0
  0
VERTEX
  8
0
 10
10.25
 20
645.75
 42
0
  0
VERTEX
  8
0
 10
10.25
 20
27.75
 42
-0
  0
VERTEX
  8
0
 10
26.450000762939453
 20
27.75
 42
-2.4142136573791504
  0
VERTEX
  8
0
 10
27.75
 20
26.450000762939453
 42
0
  0
VERTEX
  8
0
 10
27.75
 20
10.25
 42
0
  0
VERTEX
  8
0
 10
494.75
 20
10.25
 42
0
  0
VERTEX
  8
0
 10
494.75
 20
26.450000762939453
 42
-2.4142136573791504
  0
VERTEX
  8
0
 10
496.04998779296875
 20
27.75
 42
0
  0
VERTEX
  8
0
 10
512.25
 20
27.75
 42
0
  0
SEQEND
  0
POLYLINE
  8
0
 10
0
 20
0
 39
0
 70
1
 66
1
  0
VERTEX
  8
0
 10
75.25
 20
80.25
 42
-0
  0
VERTEX
  8
0
 10
75.25
 20
593.25
 42
-0.41421356797218323
  0
VERTEX
  8
0
 10
80.25
 20
598.25
 42
-0
  0
VERTEX
  8
0
 10
442.25
 20
598.25
 42
-0.41421356797218323
  0
VERTEX
  8
0
 10
447.25
 20
593.25
 42
-0
  0
VERTEX
  8
0
 10
447.25
 20
80.25
 42
-0.41421356797218323
  0
VERTEX
  8
0
 10
442.25
 20
75.25
 42
-0
  0
VERTEX
  8
0
 10
80.25
 20
75.25
 42
-0.41421356797218323
  0
SEQEND
  0
POLYLINE
  8
0
 10
0
 20
0
 39
0
 70
1
 66
1
  0
VERTEX
  8
0
 10
1024.4615478515625
 20
645.75
 42
0
  0
VERTEX
  8
0
 10
1008.2615356445312
 20
645.75
 42
-2.4142136573791504
  0
VERTEX
  8
0
 10
1006.9615478515625
 20
647.04998779296875
 42
-0
  0
VERTEX
  8
0
 10
1006.9615478515625
 20
663.25
 42
0
  0
VERTEX
  8
0
 10
539.9615478515625
 20
663.25
 42
0
  0
VERTEX
  8
0
 10
539.9615478515625
 20
647.04998779296875
 42
-2.4142136573791504
  0
VERTEX
  8
0
 10
538.66156005859375
 20
645.75
 42
0
  0
VERTEX
  8
0
 10
522.4615478515625
 20
645.75
 42
0
  0
VERTEX
  8
0
 10
522.4615478515625
 20
27.75
 42
-0
  0
VERTEX
  8
0
 10
538.66156005859375
 20
27.75
 42
-2.4142136573791504
  0
VERTEX
  8
0
 10
539.9615478515625
 20
26.450000762939453
 42
0
  0
VERTEX
  8
0
 10
539.9615478515625
 20
10.25
 42
0
  0
VERTEX
  8
0
 10
1006.9615478515625
 20
10.25
 42
0
  0
VERTEX
  8
0
 10
1006.9615478515625
 20
26.450000762939453
 42
-2.4142136573791504
  0
VERTEX
  8
0
 10
1008.2615356445312
 20
27.75
 42
0
  0
VERTEX
  8
0
 10
1024.4615478515625
 20
27.75
 42
0
  0
SEQEND
  0
POLYLINE
  8
0
 10
0
 20
0
 39
0
 70
1
 66
1
  0
VERTEX
  8
0
 10
587.4615478515625
 20
80.25
 42
-0
  0
VERTEX
  8
0
 10
587.4615478515625
 20
593.25
 42
-0.41421356797218323
  0
VERTEX
  8
0
 10
592.4615478515625
 20
598.25
 42
-0
  0
VERTEX
  8
0
 10
954.4615478515625
 20
598.25
 42
-0.41421356797218323
  0
VERTEX
  8
0
 10
959.4615478515625
 20
593.25
 42
-0
  0
VERTEX
  8
0
 10
959.4615478515625
 20
80.25
 42
-0.41421356797218323
  0
VERTEX
  8
0
 10
954.4615478515625
 20
75.25
 42
-0
  0
VERTEX
  8
0
 10
592.4615478515625
 20
75.25
 42
-0.41421356797218323
  0
SEQEND
  0
POLYLINE
  8
0
 10
0
 20
0
 39
0
 70
1
 66
1
  0
VERTEX
  8
0
 10
1536.673095703125
 20
645.75
 42
0
  0
VERTEX
  8
0
 10
1520.4730224609375
 20
645.75
 42
-2.4142136573791504
  0
VERTEX
  8
0
 10
1519.173095703125
 20
647.04998779296875
 42
-0
  0
VERTEX
  8
0
 10
1519.173095703125
 20
663.25
 42
0
  0
VERTEX
  8
0
 10
1052.173095703125
 20
663.25
 42
0
  0
VERTEX
  8
0
 10
1052.173095703125
 20
647.04998779296875
 42
-2.4142136573791504
  0
VERTEX
  8
0
 10
1050.873046875
 20
645.75
 42
0
  0
VERTEX
  8
0
 10
1034.673095703125
 20
645.75
 42
0
  0
VERTEX
  8
0
 10
1034.673095703125
 20
27.75
 42
-0
  0
VERTEX
  8
0
 10
1050.873046875
 20
27.75
 42
-2.4142136573791504
  0
VERTEX
  8
0
 10
1052.173095703125
 20
26.450000762939453
 42
0
  0
VERTEX
  8
0
 10
1052.173095703125
 20
10.25
 42
0
  0
VERTEX
  8
0
 10
1519.173095703125
 20
10.25
 42
0
  0
VERTEX
  8
0
 10
1519.173095703125
 20
26.450000762939453
 42
-2.4142136573791504
  0
VERTEX
  8
0
 10
1520.4730224609375
 20
27.75
 42
0
  0
VERTEX
  8
0
 10
1536.673095703125
 20
27.75
 42
0
  0
SEQEND
  0
POLYLINE
  8
0
 10
0
 20
0
 39
0
 70
1
 66
1
  0
VERTEX
  8
0
 10
1099.673095703125
 20
80.25
 42
-0
  0
VERTEX
  8
0
 10
1099.673095703125
 20
593.25
 42
-0.41421356797218323
  0
VERTEX
  8
0
 10
1104.673095703125
 20
598.25
 42
-0
  0
VERTEX
  8
0
 10
1466.673095703125
 20
598.25
 42
-0.41421356797218323
  0
VERTEX
  8
0
 10
1471.673095703125
 20
593.25
 42
-0
  0
VERTEX
  8
0
 10
1471.673095703125
 20
80.25
 42
-0.41421356797218323
  0
VERTEX
  8
0
 10
1466.673095703125
 20
75.25
 42
-0
  0
VERTEX
  8
0
 10
1104.673095703125
 20
75.25
 42
-0.41421356797218323
  0
SEQEND
  0
POLYLINE
  8
0
 10
0
 20
0
 39
0
 70
1
 66
1
  0
VERTEX
  8
0
 10
10.25
 20
753.3653564453125
 42
0
  0
VERTEX
  8
0
 10
100.25
 20
673.3653564453125
 42
0
  0
VERTEX
  8
0
 10
240.25
 20
673.3653564453125
 42
-0
  0
VERTEX
  8
0
 10
330.25
 20
753.3653564453125
 42
0
  0
VERTEX
  8
0
 10
330.25
 20
893.3653564453125
 42
-0
  0
VERTEX
  8
0
 10
240.25
 20
973.3653564453125
 42
0
  0
VERTEX
  8
0
 10
100.25
 20
973.3653564453125
 42
-0
  0
VERTEX
  8
0
 10
10.25
 20
893.3653564453125
 42
0
  0
SEQEND
  0
POLYLINE
  8
0
 10
0
 20
0
 39
0
 70
1
 66
1
  0
VERTEX
  8
0
 10
70.25
 20
785.3653564453125
 42
-1
  0
VERTEX
  8
0
 10
70.25
 20
861.3653564453125
 42
-1
  0
SEQEND
  0
POLYLINE
  8
0
 10
0
 20
0
 39
0
 70
1
 66
1
  0
VERTEX
  8
0
 10
305.5
 20
85.5
 42
0
  0
VERTEX
  8
0
 10
385.5
 20
175.5
 42
0
  0
VERTEX
  8
0
 10
385.5
 20
315.5
 42
-0
  0
VERTEX
  8
0
 10
305.5
 20
405.5
 42
0
  0
VERTEX
  8
0
 10
165.5
 20
405.5
 42
-0
  0
VERTEX
  8
0
 10
85.5
 20
315.5
 42
0
  0
VERTEX
  8
0
 10
85.5
 20
175.5
 42
-0
  0
VERTEX
  8
0
 10
165.5
 20
85.5
 42
0
  0
SEQEND
  0
POLYLINE
  8
0
 10
0
 20
0
 39
0
 70
1
 66
1
  0
VERTEX
  8
0
 10
273.5
 20
145.5
 42
-1
  0
VERTEX
  8
0
 10
197.5
 20
145.5
 42
-1
  0
SEQEND
  0
POLYLINE
  8
0
 10
0
 20
0
 39
0
 70
1
 66
1
  0
VERTEX
  8
0
 10
340.4615478515625
 20
753.3653564453125
 42
0
  0
VERTEX
  8
0
 10
430.4615478515625
 20
673.3653564453125
 42
0
  0
VERTEX
  8
0
 10
570.4615478515625
 20
673.3653564453125
 42
-0
  0
VERTEX
  8
0
 10
660.4615478515625
 20
753.3653564453125
 42
0
  0
VERTEX
  8
0
 10
660.4615478515625
 20
893.3653564453125
 42
-0
  0
VERTEX
  8
0
 10
570.4615478515625
 20
973.3653564453125
 42
0
  0
VERTEX
  8
0
 10
430.4615478515625
 20
973.3653564453125
 42
-0
  0
VERTEX
  8
0
 10
340.4615478515625
 20
893.3653564453125
 42
0
  0
SEQEND
  0
POLYLINE
  8
0
 10
0
 20
0
 39
0
 70
1
 66
1
  0
VERTEX
  8
0
 10
400.4615478515625
 20
785.3653564453125
 42
-1
  0
VERTEX
  8
0
 10
400.4615478515625
 20
861.3653564453125
 42
-1
  0
SEQEND
  0
POLYLINE
  8
0
 10
0
 20
0
 39
0
 70
1
 66
1
  0
VERTEX
  8
0
 10
817.7115478515625
 20
85.5
 42
0
  0
VERTEX
  8
0
 10
897.7115478515625
 20
175.5
 42
0
  0
VERTEX
  8
0
 10
897.7115478515625
 20
315.5
 42
-0
  0
VERTEX
  8
0
 10
817.7115478515625
 20
405.5
 42
0
  0
VERTEX
  8
0
 10
677.7115478515625
 20
405.5
 42
-0
  0
VERTEX
  8
0
 10
597.7115478515625
 20
315.5
 42
0
  0
VERTEX
  8
0
 10
597.7115478515625
 20
175.5
 42
-0
  0
VERTEX
  8
0
 10
677.7115478515625
 20
85.5
 42
0
  0
SEQEND
  0
POLYLINE
  8
0
 10
0
 20
0
 39
0
 70
1
 66
1
  0
VERTEX
  8
0
 10
785.7115478515625
 20
145.5
 42
-1
  0
VERTEX
  8
0
 10
709.7115478515625
 20
145.5
 42
-1
  0
SEQEND
  0
POLYLINE
  8
0
 10
0
 20
0
 39
0
 70
1
 66
1
  0
VERTEX
  8
0
 10
670.673095703125
 20
753.3653564453125
 42
0
  0
VERTEX
  8
0
 10
760.673095703125
 20
673.3653564453125
 42
0
  0
VERTEX
  8
0
 10
900.673095703125
 20
673.3653564453125
 42
-0
  0
VERTEX
  8
0
 10
990.673095703125
 20
753.3653564453125
 42
0
  0
VERTEX
  8
0
 10
990.673095703125
 20
893.3653564453125
 42
-0
  0
VERTEX
  8
0
 10
900.673095703125
 20
973.3653564453125
 42
0
  0
VERTEX
  8
0
 10
760.673095703125
 20
973.3653564453125
 42
-0
  0
VERTEX
  8
0
 10
670.673095703125
 20
893.3653564453125
 42
0
  0
SEQEND
  0
POLYLINE
  8
0
 10
0
 20
0
 39
0
 70
1
 66
1
  0
VERTEX
  8
0
 10
730.673095703125
 20
785.3653564453125
 42
-1
  0
VERTEX
  8
0
 10
730.673095703125
 20
861.3653564453125
 42
-1
  0
SEQEND
  0
POLYLINE
  8
0
 10
0
 20
0
 39
0
 70
1
 66
1
  0
VERTEX
  8
0
 10
1000.8846435546875
 20
753.3653564453125
 42
0
  0
VERTEX
  8
0
 10
1090.8846435546875
 20
673.3653564453125
 42
0
  0
VERTEX
  8
0
 10
1230.8846435546875
 20
673.3653564453125
 42
-0
  0
VERTEX
  8
0
 10
1320.8846435546875
 20
753.3653564453125
 42
0
  0
VERTEX
  8
0
 10
1320.8846435546875
 20
893.3653564453125
 42
-0
  0
VERTEX
  8
0
 10
1230.8846435546875
 20
973.3653564453125
 42
0
  0
VERTEX
  8
0
 10
1090.8846435546875
 20
973.3653564453125
 42
-0
  0
VERTEX
  8
0
 10
1000.8846435546875
 20
893.3653564453125
 42
0
  0
SEQEND
  0
POLYLINE
  8
0
 10
0
 20
0
 39
0
 70
1
 66
1
  0
VERTEX
  8
0
 10
1060.8846435546875
 20
785.3653564453125
 42
-1
  0
VERTEX
  8
0
 10
1060.8846435546875
 20
861.3653564453125
 42
-1
  0
SEQEND
  0
POLYLINE
  8
0
 10
0
 20
0
 39
0
 70
1
 66
1
  0
VERTEX
  8
0
 10
1329.923095703125
 20
85.5
 42
0
  0
VERTEX
  8
0
 10
1409.923095703125
 20
175.5
 42
0
  0
VERTEX
  8
0
 10
1409.923095703125
 20
315.5
 42
-0
  0
VERTEX
  8
0
 10
1329.923095703125
 20
405.5
 42
0
  0
VERTEX
  8
0
 10
1189.923095703125
 20
405.5
 42
-0
  0
VERTEX
  8
0
 10
1109.923095703125
 20
315.5
 42
0
  0
VERTEX
  8
0
 10
1109.923095703125
 20
175.5
 42
-0
  0
VERTEX
  8
0
 10
1189.923095703125
 20
85.5
 42
0
  0
SEQEND
  0
POLYLINE
  8
0
 10
0
 20
0
 39
0
 70
1
 66
1
  0
VERTEX
  8
0
 10
1297.923095703125
 20
145.5
 42
-1
  0
VERTEX
  8
0
 10
1221.923095703125
 20
145.5
 42
-1
  0
SEQEND
  0
POLYLINE
  8
0
 10
0
 20
0
 39
0
 70
1
 66
1
  0
VERTEX
  8
0
 10
1331.09619140625
 20
753.3653564453125
 42
0
  0
VERTEX
  8
0
 10
1421.09619140625
 20
673.3653564453125
 42
0
  0
VERTEX
  8
0
 10
1561.09619140625
 20
673.3653564453125
 42
-0
  0
VERTEX
  8
0
 10
1651.09619140625
 20
753.3653564453125
 42
0
  0
VERTEX
  8
0
 10
1651.09619140625
 20
893.3653564453125
 42
-0
  0
VERTEX
  8
0
 10
1561.09619140625
 20
973.3653564453125
 42
0
  0
VERTEX
  8
0
 10
1421.09619140625
 20
973.3653564453125
 42
-0
  0
VERTEX
  8
0
 10
1331.09619140625
 20
893.3653564453125
 42
0
  0
SEQEND
  0
POLYLINE
  8
0
 10
0
 20
0
 39
0
 70
1
 66
1
  0
VERTEX
  8
0
 10
1391.09619140625
 20
785.3653564453125
 42
-1
  0
VERTEX
  8
0
 10
1391.09619140625
 20
861.3653564453125
 42
-1
  0
SEQEND
  0
POLYLINE
  8
0
 10
0
 20
0
 39
0
 70
1
 66
1
  0
VERTEX
  8
0
 10
1632.8846435546875
 20
349.75039672851562
 42
0
  0
VERTEX
  8
0
 10
1620.010009765625
 20
425.418701171875
 42
0
  0
VERTEX
  8
0
 10
1599.8846435546875
 20
440.25
 42
-0
  0
VERTEX
  8
0
 10
1579.8846435546875
 20
440.25
 42
-0
  0
VERTEX
  8
0
 10
1559.7591552734375
 20
425.418701171875
 42
-0
  0
VERTEX
  8
0
 10
1546.8846435546875
 20
349.75039672851562
 42
-0
  0
VERTEX
  8
0
 10
1546.8846435546875
 20
100.74961090087891
 42
0
  0
VERTEX
  8
0
 10
1559.7591552734375
 20
25.081323623657227
 42
0
  0
VERTEX
  8
0
 10
1579.8846435546875
 20
10.25
 42
0
  0
VERTEX
  8
0
 10
1599.8846435546875
 20
10.25
 42
-0
  0
VERTEX
  8
0
 10
1620.010009765625
 20
25.081323623657227
 42
-0
  0
VERTEX
  8
0
 10
1632.8846435546875
 20
100.74961090087891
 42
-0
  0
SEQEND
  0
POLYLINE
  8
0
 10
0
 20
0
 39
0
 70
1
 66
1
  0
VERTEX
  8
0
 10
1597.8846435546875
 20
328.95547485351562
 42
0
  0
VERTEX
  8
0
 10
1597.8846435546875
 20
121.5445556640625
 42
-0
  0
VERTEX
  8
0
 10
1581.8846435546875
 20
121.5445556640625
 42
0
  0
VERTEX
  8
0
 10
1581.8846435546875
 20
328.95547485351562
 42
0
  0
SEQEND
  0
POLYLINE
  8
0
 10
0
 20
0
 39
0
 70
1
 66
1
  0
VERTEX
  8
0
 10
1605.954345703125
 20
377.71646118164062
 42
0
  0
VERTEX
  8
0
 10
1589.8846435546875
 20
358.56536865234375
 42
-0
  0
VERTEX
  8
0
 10
1573.81494140625
 20
377.71646118164062
 42
0
  0
VERTEX
  8
0
 10
1589.8846435546875
 20
396.86758422851562
 42
-0
  0
SEQEND
  0
POLYLINE
  8
0
 10
0
 20
0
 39
0
 70
1
 66
1
  0
VERTEX
  8
0
 10
1605.954345703125
 20
72.783538818359375
 42
0
  0
VERTEX
  8
0
 10
1589.8846435546875
 20
53.632431030273438
 42
-0
  0
VERTEX
  8
0
 10
1573.81494140625
 20
72.783538818359375
 42
0
  0
VERTEX
  8
0
 10
1589.8846435546875
 20
91.934654235839844
 42
-0
  0
SEQEND
  0
POLYLINE
  8
0
 10
0
 20
0
 39
0
 70
1
 66
1
  0
VERTEX
  8
0
 10
1719.173095703125
 20
659.0965576171875
 42
0
  0
VERTEX
  8
0
 10
1706.2984619140625
 20
734.76483154296875
 42
0
  0
VERTEX
  8
0
 10
1686.173095703125
 20
749.59613037109375
 42
-0
  0
VERTEX
  8
0
 10
1666.173095703125
 20
749.59613037109375
 42
-0
  0
VERTEX
  8
0
 10
1646.0477294921875
 20
734.76483154296875
 42
-0
  0
VERTEX
  8
0
 10
1633.173095703125
 20
659.0965576171875
 42
-0
  0
VERTEX
  8
0
 10
1633.173095703125
 20
410.09576416015625
 42
0
  0
VERTEX
  8
0
 10
1646.0477294921875
 20
334.427490234375
 42
0
  0
VERTEX
  8
0
 10
1666.173095703125
 20
319.59616088867187
 42
0
  0
VERTEX
  8
0
 10
1686.173095703125
 20
319.59616088867187
 42
-0
  0
VERTEX
  8
0
 10
1706.2984619140625
 20
334.427490234375
 42
-0
  0
VERTEX
  8
0
 10
1719.173095703125
 20
410.09576416015625
 42
-0
  0
SEQEND
  0
POLYLINE
  8
0
 10
0
 20
0
 39
0
 70
1
 66
1
  0
VERTEX
  8
0
 10
1684.173095703125
 20
638.3016357421875
 42
0
  0
VERTEX
  8
0
 10
1684.173095703125
 20
430.89071655273437
 42
-0
  0
VERTEX
  8
0
 10
1668.173095703125
 20
430.89071655273437
 42
0
  0
VERTEX
  8
0
 10
1668.173095703125
 20
638.3016357421875
 42
0
  0
SEQEND
  0
POLYLINE
  8
0
 10
0
 20
0
 39
0
 70
1
 66
1
  0
VERTEX
  8
0
 10
1692.2427978515625
 20
687.0626220703125
 42
0
  0
VERTEX
  8
0
 10
1676.173095703125
 20
667.9114990234375
 42
-0
  0
VERTEX
  8
0
 10
1660.1033935546875
 20
687.0626220703125
 42
0
  0
VERTEX
  8
0
 10
1676.173095703125
 20
706.2137451171875
 42
-0
  0
SEQEND
  0
POLYLINE
  8
0
 10
0
 20
0
 39
0
 70
1
 66
1
  0
VERTEX
  8
0
 10
1692.2427978515625
 20
382.12969970703125
 42
0
  0
VERTEX
  8
0
 10
1676.173095703125
 20
362.97857666015625
 42
-0
  0
VERTEX
  8
0
 10
1660.1033935546875
 20
382.12969970703125
 42
0
  0
VERTEX
  8
0
 10
1676.173095703125
 20
401.28082275390625
 42
-0
  0
SEQEND
  0
POLYLINE
  8
0
 10
0
 20
0
 39
0
 70
1
 66
1
  0
VERTEX
  8
0
 10
323
 20
415.57693481445312
 42
0
  0
VERTEX
  8
0
 10
325.5
 20
418.07693481445312
 42
0
  0
VERTEX
  8
0
 10
325.5
 20
497.07693481445312
 42
-0
  0
VERTEX
  8
0
 10
323
 20
499.57693481445312
 42
0
  0
VERTEX
  8
0
 10
88
 20
499.57693481445312
 42
-0
  0
VERTEX
  8
0
 10
85.5
 20
497.07693481445312
 42
0
  0
VERTEX
  8
0
 10
85.5
 20
443.57693481445312
 42
-0
  0
VERTEX
  8
0
 10
93.002578735351563
 20
415.57693481445312
 42
0
  0
SEQEND
  0
POLYLINE
  8
0
 10
0
 20
0
 39
0
 70
1
 66
1
  0
VERTEX
  8
0
 10
223.5
 20
457.57693481445312
 42
-1
  0
VERTEX
  8
0
 10
187.5
 20
457.57693481445312
 42
-1
  0
SEQEND
  0
POLYLINE
  8
0
 10
0
 20
0
 39
0
 70
1
 66
1
  0
VERTEX
  8
0
 10
835.2115478515625
 20
415.57693481445312
 42
0
  0
VERTEX
  8
0
 10
837.7115478515625
 20
418.07693481445312
 42
0
  0
VERTEX
  8
0
 10
837.7115478515625
 20
497.07693481445312
 42
-0
  0
VERTEX
  8
0
 10
835.2115478515625
 20
499.57693481445312
 42
0
  0
VERTEX
  8
0
 10
600.2115478515625
 20
499.57693481445312
 42
-0
  0
VERTEX
  8
0
 10
597.7115478515625
 20
497.07693481445312
 42
0
  0
VERTEX
  8
0
 10
597.7115478515625
 20
443.57693481445312
 42
-0
  0
VERTEX
  8
0
 10
605.214111328125
 20
415.57693481445312
 42
0
  0
SEQEND
  0
POLYLINE
  8
0
 10
0
 20
0
 39
0
 70
1
 66
1
  0
VERTEX
  8
0
 10
735.7115478515625
 20
457.57693481445312
 42
-1
  0
VERTEX
  8
0
 10
699.7115478515625
 20
457.57693481445312
 42
-1
  0
SEQEND
  0
POLYLINE
  8
0
 10
0
 20
0
 39
0
 70
1
 66
1
  0
VERTEX
  8
0
 10
1347.423095703125
 20
415.57693481445312
 42
0
  0
VERTEX
  8
0
 10
1349.923095703125
 20
418.07693481445312
 42
0
  0
VERTEX
  8
0
 10
1349.923095703125
 20
497.07693481445312
 42
-0
  0
VERTEX
  8
0
 10
1347.423095703125
 20
499.57693481445312
 42
0
  0
VERTEX
  8
0
 10
1112.423095703125
 20
499.57693481445312
 42
-0
  0
VERTEX
  8
0
 10
1109.923095703125
 20
497.07693481445312
 42
0
  0
VERTEX
  8
0
 10
1109.923095703125
 20
443.57693481445312
 42
-0
  0
VERTEX
  8
0
 10
1117.4256591796875
 20
415.57693481445312
 42
0
  0
SEQEND
  0
POLYLINE
  8
0
 10
0
 20
0
 39
0
 70
1
 66
1
  0
VERTEX
  8
0
 10
1247.923095703125
 20
457.57693481445312
 42
-1
  0
VERTEX
  8
0
 10
1211.923095703125
 20
457.57693481445312
 42
-1
  0
SEQEND
  0
POLYLINE
  8
0
 10
0
 20
0
 39
0
 70
1
 66
1
  0
VERTEX
  8
0
 10
1643.1346435546875
 20
12.75
 42
0
  0
VERTEX
  8
0
 10
1645.6346435546875
 20
10.25
 42
0
  0
VERTEX
  8
0
 10
1724.6346435546875
 20
10.25
 42
-0
  0
VERTEX
  8
0
 10
1727.1346435546875
 20
12.75
 42
0
  0
VERTEX
  8
0
 10
1727.1346435546875
 20
247.75
 42
-0
  0
VERTEX
  8
0
 10
1724.6346435546875
 20
250.25
 42
0
  0
VERTEX
  8
0
 10
1671.1346435546875
 20
250.25
 42
-0
  0
VERTEX
  8
0
 10
1643.1346435546875
 20
242.74742126464844
 42
0
  0
SEQEND
  0
POLYLINE
  8
0
 10
0
 20
0
 39
0
 70
1
 66
1
  0
VERTEX
  8
0
 10
1685.1346435546875
 20
112.25
 42
-1
  0
VERTEX
  8
0
 10
1685.1346435546875
 20
148.25
 42
-1
  0
SEQEND
  0
POLYLINE
  8
0
 10
0
 20
0
 39
0
 70
1
 66
1
  0
VERTEX
  8
0
 10
185.5
 20
509.67306518554687
 42
-0
  0
VERTEX
  8
0
 10
185.5
 20
579.673095703125
 42
-0
  0
VERTEX
  8
0
 10
85.5
 20
579.673095703125
 42
-0
  0
VERTEX
  8
0
 10
85.5
 20
560.673095703125
 42
-1
  0
VERTEX
  8
0
 10
85.5
 20
528.673095703125
 42
-0
  0
VERTEX
  8
0
 10
85.5
 20
509.67306518554687
 42
0
  0
SEQEND
  0
POLYLINE
  8
0
 10
0
 20
0
 39
0
 70
1
 66
1
  0
VERTEX
  8
0
 10
130.9755859375
 20
528.673095703125
 42
-1
  0
VERTEX
  8
0
 10
110.9755859375
 20
528.673095703125
 42
-1
  0
SEQEND
  0
POLYLINE
  8
0
 10
0
 20
0
 39
0
 70
1
 66
1
  0
VERTEX
  8
0
 10
295.75
 20
509.67306518554687
 42
-0
  0
VERTEX
  8
0
 10
295.75
 20
579.673095703125
 42
-0
  0
VERTEX
  8
0
 10
195.75
 20
579.673095703125
 42
-0
  0
VERTEX
  8
0
 10
195.75
 20
560.673095703125
 42
-1
  0
VERTEX
  8
0
 10
195.75
 20
528.673095703125
 42
-0
  0
VERTEX
  8
0
 10
195.75
 20
509.67306518554687
 42
0
  0
SEQEND
  0
POLYLINE
  8
0
 10
0
 20
0
 39
0
 70
1
 66
1
  0
VERTEX
  8
0
 10
241.2255859375
 20
528.673095703125
 42
-1
  0
VERTEX
  8
0
 10
221.2255859375
 20
528.673095703125
 42
-1
  0
SEQEND
  0
POLYLINE
  8
0
 10
0
 20
0
 39
0
 70
1
 66
1
  0
VERTEX
  8
0
 10
335.75
 20
386.90383911132812
 42
-0
  0
VERTEX
  8
0
 10
405.75
 20
386.90383911132812
 42
-0
  0
VERTEX
  8
0
 10
405.75
 20
486.90383911132812
 42
-0
  0
VERTEX
  8
0
 10
386.75
 20
486.90383911132812
 42
-1
  0
VERTEX
  8
0
 10
354.75
 20
486.90383911132812
 42
-0
  0
VERTEX
  8
0
 10
335.75
 20
486.90383911132812
 42
0
  0
SEQEND
  0
POLYLINE
  8
0
 10
0
 20
0
 39
0
 70
1
 66
1
  0
VERTEX
  8
0
 10
354.75
 20
441.42825317382812
 42
-1
  0
VERTEX
  8
0
 10
354.75
 20
461.42825317382812
 42
-1
  0
SEQEND
  0
POLYLINE
  8
0
 10
0
 20
0
 39
0
 70
1
 66
1
  0
VERTEX
  8
0
 10
406
 20
509.67306518554687
 42
-0
  0
VERTEX
  8
0
 10
406
 20
579.673095703125
 42
-0
  0
VERTEX
  8
0
 10
306
 20
579.673095703125
 42
-0
  0
VERTEX
  8
0
 10
306
 20
560.673095703125
 42
-1
  0
VERTEX
  8
0
 10
306
 20
528.673095703125
 42
-0
  0
VERTEX
  8
0
 10
306
 20
509.67306518554687
 42
0
  0
SEQEND
  0
POLYLINE
  8
0
 10
0
 20
0
 39
0
 70
1
 66
1
  0
VERTEX
  8
0
 10
351.4755859375
 20
528.673095703125
 42
-1
  0
VERTEX
  8
0
 10
331.4755859375
 20
528.673095703125
 42
-1
  0
SEQEND
  0
POLYLINE
  8
0
 10
0
 20
0
 39
0
 70
1
 66
1
  0
VERTEX
  8
0
 10
697.7115478515625
 20
509.67306518554687
 42
-0
  0
VERTEX
  8
0
 10
697.7115478515625
 20
579.673095703125
 42
-0
  0
VERTEX
  8
0
 10
597.7115478515625
 20
579.673095703125
 42
-0
  0
VERTEX
  8
0
 10
597.7115478515625
 20
560.673095703125
 42
-1
  0
VERTEX
  8
0
 10
597.7115478515625
 20
528.673095703125
 42
-0
  0
VERTEX
  8
0
 10
597.7115478515625
 20
509.67306518554687
 42
0
  0
SEQEND
  0
POLYLINE
  8
0
 10
0
 20
0
 39
0
 70
1
 66
1
  0
VERTEX
  8
0
 10
643.1871337890625
 20
528.673095703125
 42
-1
  0
VERTEX
  8
0
 10
623.1871337890625
 20
528.673095703125
 42
-1
  0
SEQEND
  0
POLYLINE
  8
0
 10
0
 20
0
 39
0
 70
1
 66
1
  0
VERTEX
  8
0
 10
807.9615478515625
 20
509.67306518554687
 42
-0
  0
VERTEX
  8
0
 10
807.9615478515625
 20
579.673095703125
 42
-0
  0
VERTEX
  8
0
 10
707.9615478515625
 20
579.673095703125
 42
-0
  0
VERTEX
  8
0
 10
707.9615478515625
 20
560.673095703125
 42
-1
  0
VERTEX
  8
0
 10
707.9615478515625
 20
528.673095703125
 42
-0
  0
VERTEX
  8
0
 10
707.9615478515625
 20
509.67306518554687
 42
0
  0
SEQEND
  0
POLYLINE
  8
0
 10
0
 20
0
 39
0
 70
1
 66
1
  0
VERTEX
  8
0
 10
753.4371337890625
 20
528.673095703125
 42
-1
  0
VERTEX
  8
0
 10
733.4371337890625
 20
528.673095703125
 42
-1
  0
SEQEND
  0
POLYLINE
  8
0
 10
0
 20
0
 39
0
 70
1
 66
1
  0
VERTEX
  8
0
 10
847.9615478515625
 20
386.90383911132812
 42
-0
  0
VERTEX
  8
0
 10
917.9615478515625
 20
386.90383911132812
 42
-0
  0
VERTEX
  8
0
 10
917.9615478515625
 20
486.90383911132812
 42
-0
  0
VERTEX
  8
0
 10
898.9615478515625
 20
486.90383911132812
 42
-1
  0
VERTEX
  8
0
 10
866.9615478515625
 20
486.90383911132812
 42
-0
  0
VERTEX
  8
0
 10
847.9615478515625
 20
486.90383911132812
 42
0
  0
SEQEND
  0
POLYLINE
  8
0
 10
0
 20
0
 39
0
 70
1
 66
1
  0
VERTEX
  8
0
 10
866.9615478515625
 20
441.42825317382812
 42
-1
  0
VERTEX
  8
0
 10
866.9615478515625
 20
461.42825317382812
 42
-1
  0
SEQEND
  0
POLYLINE
  8
0
 10
0
 20
0
 39
0
 70
1
 66
1
  0
VERTEX
  8
0
 10
918.2115478515625
 20
509.67306518554687
 42
-0
  0
VERTEX
  8
0
 10
918.2115478515625
 20
579.673095703125
 42
-0
  0
VERTEX
  8
0
 10
818.2115478515625
 20
579.673095703125
 42
-0
  0
VERTEX
  8
0
 10
818.2115478515625
 20
560.673095703125
 42
-1
  0
VERTEX
  8
0
 10
818.2115478515625
 20
528.673095703125
 42
-0
  0
VERTEX
  8
0
 10
818.2115478515625
 20
509.67306518554687
 42
0
  0
SEQEND
  0
POLYLINE
  8
0
 10
0
 20
0
 39
0
 70
1
 66
1
  0
VERTEX
  8
0
 10
863.6871337890625
 20
528.673095703125
 42
-1
  0
VERTEX
  8
0
 10
843.6871337890625
 20
528.673095703125
 42
-1
  0
SEQEND
  0
POLYLINE
  8
0
 10
0
 20
0
 39
0
 70
1
 66
1
  0
VERTEX
  8
0
 10
1209.923095703125
 20
509.67306518554687
 42
-0
  0
VERTEX
  8
0
 10
1209.923095703125
 20
579.673095703125
 42
-0
  0
VERTEX
  8
0
 10
1109.923095703125
 20
579.673095703125
 42
-0
  0
VERTEX
  8
0
 10
1109.923095703125
 20
560.673095703125
 42
-1
  0
VERTEX
  8
0
 10
1109.923095703125
 20
528.673095703125
 42
-0
  0
VERTEX
  8
0
 10
1109.923095703125
 20
509.67306518554687
 42
0
  0
SEQEND
  0
POLYLINE
  8
0
 10
0
 20
0
 39
0
 70
1
 66
1
  0
VERTEX
  8
0
 10
1155.398681640625
 20
528.673095703125
 42
-1
  0
VERTEX
  8
0
 10
1135.398681640625
 20
528.673095703125
 42
-1
  0
SEQEND
  0
POLYLINE
  8
0
 10
0
 20
0
 39
0
 70
1
 66
1
  0
VERTEX
  8
0
 10
1320.173095703125
 20
509.67306518554687
 42
-0
  0
VERTEX
  8
0
 10
1320.173095703125
 20
579.673095703125
 42
-0
  0
VERTEX
  8
0
 10
1220.173095703125
 20
579.673095703125
 42
-0
  0
VERTEX
  8
0
 10
1220.173095703125
 20
560.673095703125
 42
-1
  0
VERTEX
  8
0
 10
1220.173095703125
 20
528.673095703125
 42
-0
  0
VERTEX
  8
0
 10
1220.173095703125
 20
509.67306518554687
 42
0
  0
SEQEND
  0
POLYLINE
  8
0
 10
0
 20
0
 39
0
 70
1
 66
1
  0
VERTEX
  8
0
 10
1265.648681640625
 20
528.673095703125
 42
-1
  0
VERTEX
  8
0
 10
1245.648681640625
 20
528.673095703125
 42
-1
  0
SEQEND
  0
POLYLINE
  8
0
 10
0
 20
0
 39
0
 70
1
 66
1
  0
VERTEX
  8
0
 10
1360.173095703125
 20
386.90383911132812
 42
-0
  0
VERTEX
  8
0
 10
1430.173095703125
 20
386.90383911132812
 42
-0
  0
VERTEX
  8
0
 10
1430.173095703125
 20
486.90383911132812
 42
-0
  0
VERTEX
  8
0
 10
1411.173095703125
 20
486.90383911132812
 42
-1
  0
VERTEX
  8
0
 10
1379.173095703125
 20
486.90383911132812
 42
-0
  0
VERTEX
  8
0
 10
1360.173095703125
 20
486.90383911132812
 42
0
  0
SEQEND
  0
POLYLINE
  8
0
 10
0
 20
0
 39
0
 70
1
 66
1
  0
VERTEX
  8
0
 10
1379.173095703125
 20
441.42825317382812
 42
-1
  0
VERTEX
  8
0
 10
1379.173095703125
 20
461.42825317382812
 42
-1
  0
SEQEND
  0
POLYLINE
  8
0
 10
0
 20
0
 39
0
 70
1
 66
1
  0
VERTEX
  8
0
 10
1430.423095703125
 20
509.67306518554687
 42
-0
  0
VERTEX
  8
0
 10
1430.423095703125
 20
579.673095703125
 42
-0
  0
VERTEX
  8
0
 10
1330.423095703125
 20
579.673095703125
 42
-0
  0
VERTEX
  8
0
 10
1330.423095703125
 20
560.673095703125
 42
-1
  0
VERTEX
  8
0
 10
1330.423095703125
 20
528.673095703125
 42
-0
  0
VERTEX
  8
0
 10
1330.423095703125
 20
509.67306518554687
 42
0
  0
SEQEND
  0
POLYLINE
  8
0
 10
0
 20
0
 39
0
 70
1
 66
1
  0
VERTEX
  8
0
 10
1375.898681640625
 20
528.673095703125
 42
-1
  0
VERTEX
  8
0
 10
1355.898681640625
 20
528.673095703125
 42
-1
  0
SEQEND
  0
POLYLINE
  8
0
 10
0
 20
0
 39
0
 70
1
 66
1
  0
VERTEX
  8
0
 10
1546.8846435546875
 20
450.30767822265625
 42
0
  0
VERTEX
  8
0
 10
1596.8846435546875
 20
450.30767822265625
 42
0
  0
VERTEX
  8
0
 10
1596.8846435546875
 20
555.30767822265625
 42
0
  0
VERTEX
  8
0
 10
1546.8846435546875
 20
555.30767822265625
 42
0
  0
SEQEND
  0
POLYLINE
  8
0
 10
0
 20
0
 39
0
 70
1
 66
1
  0
VERTEX
  8
0
 10
1571.8846435546875
 20
456.85324096679687
 42
-1
  0
VERTEX
  8
0
 10
1571.8846435546875
 20
478.85324096679687
 42
-1
  0
SEQEND
  0
POLYLINE
  8
0
 10
0
 20
0
 39
0
 70
1
 66
1
  0
VERTEX
  8
0
 10
1571.8846435546875
 20
526.76214599609375
 42
-1
  0
VERTEX
  8
0
 10
1571.8846435546875
 20
548.76214599609375
 42
-1
  0
SEQEND
  0
POLYLINE
  8
0
 10
0
 20
0
 39
0
 70
1
 66
1
  0
VERTEX
  8
0
 10
1661.3077392578125
 20
759.65386962890625
 42
0
  0
VERTEX
  8
0
 10
1711.3077392578125
 20
759.65386962890625
 42
0
  0
VERTEX
  8
0
 10
1711.3077392578125
 20
864.65386962890625
 42
0
  0
VERTEX
  8
0
 10
1661.3077392578125
 20
864.65386962890625
 42
0
  0
SEQEND
  0
POLYLINE
  8
0
 10
0
 20
0
 39
0
 70
1
 66
1
  0
VERTEX
  8
0
 10
1686.3077392578125
 20
766.19940185546875
 42
-1
  0
VERTEX
  8
0
 10
1686.3077392578125
 20
788.19940185546875
 42
-1
  0
SEQEND
  0
POLYLINE
  8
0
 10
0
 20
0
 39
0
 70
1
 66
1
  0
VERTEX
  8
0
 10
1686.3077392578125
 20
836.1082763671875
 42
-1
  0
VERTEX
  8
0
 10
1686.3077392578125
 20
858.1082763671875
 42
-1
  0
SEQEND
  0
POLYLINE
  8
0
 10
0
 20
0
 39
0
 70
1
 66
1
  0
VERTEX
  8
0
 10
1661.3077392578125
 20
874.75
 42
0
  0
VERTEX
  8
0
 10
1711.3077392578125
 20
874.75
 42
0
  0
VERTEX
  8
0
 10
1711.3077392578125
 20
979.75
 42
0
  0
VERTEX
  8
0
 10
1661.3077392578125
 20
979.75
 42
0
  0
SEQEND
  0
POLYLINE
  8
0
 10
0
 20
0
 39
0
 70
1
 66
1
  0
VERTEX
  8
0
 10
1686.3077392578125
 20
881.2955322265625
 42
-1
  0
VERTEX
  8
0
 10
1686.3077392578125
 20
903.2955322265625
 42
-1
  0
SEQEND
  0
POLYLINE
  8
0
 10
0
 20
0
 39
0
 70
1
 66
1
  0
VERTEX
  8
0
 10
1686.3077392578125
 20
951.2044677734375
 42
-1
  0
VERTEX
  8
0
 10
1686.3077392578125
 20
973.2044677734375
 42
-1
  0
SEQEND
  0
POLYLINE
  8
0
 10
0
 20
0
 39
0
 70
1
 66
1
  0
VERTEX
  8
0
 10
377.86538696289062
 20
989.76922607421875
 42
-0
  0
VERTEX
  8
0
 10
277.86538696289062
 20
989.76922607421875
 42
-0
  0
VERTEX
  8
0
 10
277.86538696289062
 20
953.76922607421875
 42
-0
  0
VERTEX
  8
0
 10
377.86538696289062
 20
953.76922607421875
 42
-0
  0
SEQEND
  0
POLYLINE
  8
0
 10
0
 20
0
 39
0
 70
1
 66
1
  0
VERTEX
  8
0
 10
338.86538696289062
 20
971.76922607421875
 42
-1
  0
VERTEX
  8
0
 10
316.86538696289062
 20
971.76922607421875
 42
-1
  0
SEQEND
  0
POLYLINE
  8
0
 10
0
 20
0
 39
0
 70
1
 66
1
  0
VERTEX
  8
0
 10
431.65383911132812
 20
85.5
 42
-0
  0
VERTEX
  8
0
 10
431.65383911132812
 20
185.5
 42
-0
  0
VERTEX
  8
0
 10
395.65383911132812
 20
185.5
 42
-0
  0
VERTEX
  8
0
 10
395.65383911132812
 20
85.5
 42
-0
  0
SEQEND
  0
POLYLINE
  8
0
 10
0
 20
0
 39
0
 70
1
 66
1
  0
VERTEX
  8
0
 10
413.65383911132812
 20
124.5
 42
-1
  0
VERTEX
  8
0
 10
413.65383911132812
 20
146.5
 42
-1
  0
SEQEND
  0
POLYLINE
  8
0
 10
0
 20
0
 39
0
 70
1
 66
1
  0
VERTEX
  8
0
 10
431.65383911132812
 20
195.61538696289062
 42
-0
  0
VERTEX
  8
0
 10
431.65383911132812
 20
295.61538696289062
 42
-0
  0
VERTEX
  8
0
 10
395.65383911132812
 20
295.61538696289062
 42
-0
  0
VERTEX
  8
0
 10
395.65383911132812
 20
195.61538696289062
 42
-0
  0
SEQEND
  0
POLYLINE
  8
0
 10
0
 20
0
 39
0
 70
1
 66
1
  0
VERTEX
  8
0
 10
413.65383911132812
 20
234.61538696289062
 42
-1
  0
VERTEX
  8
0
 10
413.65383911132812
 20
256.61538696289062
 42
-1
  0
SEQEND
  0
POLYLINE
  8
0
 10
0
 20
0
 39
0
 70
1
 66
1
  0
VERTEX
  8
0
 10
708.076904296875
 20
989.76922607421875
 42
-0
  0
VERTEX
  8
0
 10
608.076904296875
 20
989.76922607421875
 42
-0
  0
VERTEX
  8
0
 10
608.076904296875
 20
953.76922607421875
 42
-0
  0
VERTEX
  8
0
 10
708.076904296875
 20
953.76922607421875
 42
-0
  0
SEQEND
  0
POLYLINE
  8
0
 10
0
 20
0
 39
0
 70
1
 66
1
  0
VERTEX
  8
0
 10
669.076904296875
 20
971.76922607421875
 42
-1
  0
VERTEX
  8
0
 10
647.076904296875
 20
971.76922607421875
 42
-1
  0
SEQEND
  0
POLYLINE
  8
0
 10
0
 20
0
 39
0
 70
1
 66
1
  0
VERTEX
  8
0
 10
943.8653564453125
 20
85.5
 42
-0
  0
VERTEX
  8
0
 10
943.8653564453125
 20
185.5
 42
-0
  0
VERTEX
  8
0
 10
907.8653564453125
 20
185.5
 42
-0
  0
VERTEX
  8
0
 10
907.8653564453125
 20
85.5
 42
-0
  0
SEQEND
  0
POLYLINE
  8
0
 10
0
 20
0
 39
0
 70
1
 66
1
  0
VERTEX
  8
0
 10
925.8653564453125
 20
124.5
 42
-1
  0
VERTEX
  8
0
 10
925.8653564453125
 20
146.5
 42
-1
  0
SEQEND
  0
POLYLINE
  8
0
 10
0
 20
0
 39
0
 70
1
 66
1
  0
VERTEX
  8
0
 10
943.8653564453125
 20
195.61538696289062
 42
-0
  0
VERTEX
  8
0
 10
943.8653564453125
 20
295.61538696289062
 42
-0
  0
VERTEX
  8
0
 10
907.8653564453125
 20
295.61538696289062
 42
-0
  0
VERTEX
  8
0
 10
907.8653564453125
 20
195.61538696289062
 42
-0
  0
SEQEND
  0
POLYLINE
  8
0
 10
0
 20
0
 39
0
 70
1
 66
1
  0
VERTEX
  8
0
 10
925.8653564453125
 20
234.61538696289062
 42
-1
  0
VERTEX
  8
0
 10
925.8653564453125
 20
256.61538696289062
 42
-1
  0
SEQEND
  0
POLYLINE
  8
0
 10
0
 20
0
 39
0
 70
1
 66
1
  0
VERTEX
  8
0
 10
1038.2884521484375
 20
989.76922607421875
 42
-0
  0
VERTEX
  8
0
 10
938.2884521484375
 20
989.76922607421875
 42
-0
  0
VERTEX
  8
0
 10
938.2884521484375
 20
953.76922607421875
 42
-0
  0
VERTEX
  8
0
 10
1038.2884521484375
 20
953.76922607421875
 42
-0
  0
SEQEND
  0
POLYLINE
  8
0
 10
0
 20
0
 39
0
 70
1
 66
1
  0
VERTEX
  8
0
 10
999.2884521484375
 20
971.76922607421875
 42
-1
  0
VERTEX
  8
0
 10
977.2884521484375
 20
971.76922607421875
 42
-1
  0
SEQEND
  0
POLYLINE
  8
0
 10
0
 20
0
 39
0
 70
1
 66
1
  0
VERTEX
  8
0
 10
1368.5
 20
989.76922607421875
 42
-0
  0
VERTEX
  8
0
 10
1268.5
 20
989.76922607421875
 42
-0
  0
VERTEX
  8
0
 10
1268.5
 20
953.76922607421875
 42
-0
  0
VERTEX
  8
0
 10
1368.5
 20
953.76922607421875
 42
-0
  0
SEQEND
  0
POLYLINE
  8
0
 10
0
 20
0
 39
0
 70
1
 66
1
  0
VERTEX
  8
0
 10
1329.5
 20
971.76922607421875
 42
-1
  0
VERTEX
  8
0
 10
1307.5
 20
971.76922607421875
 42
-1
  0
SEQEND
  0
POLYLINE
  8
0
 10
0
 20
0
 39
0
 70
1
 66
1
  0
VERTEX
  8
0
 10
1456.076904296875
 20
85.5
 42
-0
  0
VERTEX
  8
0
 10
1456.076904296875
 20
185.5
 42
-0
  0
VERTEX
  8
0
 10
1420.076904296875
 20
185.5
 42
-0
  0
VERTEX
  8
0
 10
1420.076904296875
 20
85.5
 42
-0
  0
SEQEND
  0
POLYLINE
  8
0
 10
0
 20
0
 39
0
 70
1
 66
1
  0
VERTEX
  8
0
 10
1438.076904296875
 20
124.5
 42
-1
  0
VERTEX
  8
0
 10
1438.076904296875
 20
146.5
 42
-1
  0
SEQEND
  0
POLYLINE
  8
0
 10
0
 20
0
 39
0
 70
1
 66
1
  0
VERTEX
  8
0
 10
1456.076904296875
 20
195.61538696289062
 42
-0
  0
VERTEX
  8
0
 10
1456.076904296875
 20
295.61538696289062
 42
-0
  0
VERTEX
  8
0
 10
1420.076904296875
 20
295.61538696289062
 42
-0
  0
VERTEX
  8
0
 10
1420.076904296875
 20
195.61538696289062
 42
-0
  0
SEQEND
  0
POLYLINE
  8
0
 10
0
 20
0
 39
0
 70
1
 66
1
  0
VERTEX
  8
0
 10
1438.076904296875
 20
234.61538696289062
 42
-1
  0
VERTEX
  8
0
 10
1438.076904296875
 20
256.61538696289062
 42
-1
  0
SEQEND
  0
POLYLINE
  8
0
 10
0
 20
0
 39
0
 70
1
 66
1
  0
VERTEX
  8
0
 10
1603.75
 20
565.40386962890625
 42
-0
  0
VERTEX
  8
0
 10
1603.75
 20
665.40386962890625
 42
-0
  0
VERTEX
  8
0
 10
1567.75
 20
665.40386962890625
 42
-0
  0
VERTEX
  8
0
 10
1567.75
 20
565.40386962890625
 42
-0
  0
SEQEND
  0
POLYLINE
  8
0
 10
0
 20
0
 39
0
 70
1
 66
1
  0
VERTEX
  8
0
 10
1585.75
 20
604.40386962890625
 42
-1
  0
VERTEX
  8
0
 10
1585.75
 20
626.40386962890625
 42
-1
  0
SEQEND
  0
ENDSEC
  0
EOF
