  0
SECTION
  2
ENTITIES
  0
POLYLINE
  8
0
 10
0
 20
0
 39
0
 70
1
 66
1
  0
VERTEX
  8
0
 10
0
 20
0
 42
0
  0
VERTEX
  8
0
 10
2800
 20
0
 42
0
  0
VERTEX
  8
0
 10
2800
 20
1200
 42
0
  0
VERTEX
  8
0
 10
0
 20
1200
 42
0
  0
SEQEND
  0
POLYLINE
  8
0
 10
0
 20
0
 39
0
 70
1
 66
1
  0
VERTEX
  8
0
 10
2049.5639253294657
 20
1092.365124188055
 42
0.91633117198944092
  0
VERTEX
  8
0
 10
2063.9934449827861
 20
1133.75452848493
 42
0
  0
VERTEX
  8
0
 10
1954.9427934324931
 20
1182.8095974546566
 42
0.62152963876724243
  0
VERTEX
  8
0
 10
1865.0019107496928
 20
1108.6565899473323
 42
0.65655827522277832
  0
VERTEX
  8
0
 10
1904.7376351988505
 20
1101.5092672926082
 42
-0.10101121664047241
  0
VERTEX
  8
0
 10
1916.0815339720439
 20
1112.7906651121273
 42
0
  0
VERTEX
  8
0
 10
1911.3381257689189
 20
1121.271036587347
 42
0
  0
VERTEX
  8
0
 10
1945.2657151854228
 20
1129.8686375242366
 42
-0
  0
VERTEX
  8
0
 10
1945.1140809691142
 20
1118.7311520200863
 42
-0.017638612538576126
  0
VERTEX
  8
0
 10
1947.8716798460673
 20
1118.1349911314144
 42
-0
  0
SEQEND
  0
POLYLINE
  8
0
 10
0
 20
0
 39
0
 70
1
 66
1
  0
VERTEX
  8
0
 10
1878.4181275999736
 20
1113.6910366636409
 42
-1
  0
VERTEX
  8
0
 10
1894.4181275999736
 20
1113.6910366636409
 42
-1
  0
SEQEND
  0
POLYLINE
  8
0
 10
0
 20
0
 39
0
 70
1
 66
1
  0
VERTEX
  8
0
 10
2046.9681306517314
 20
1113.6910366636409
 42
-1
  0
VERTEX
  8
0
 10
2062.9681306517314
 20
1113.6910366636409
 42
-1
  0
SEQEND
  0
POLYLINE
  8
0
 10
0
 20
0
 39
0
 70
1
 66
1
  0
VERTEX
  8
0
 10
1682.6740648018963
 20
37.404207497075362
 42
0.91633117198944092
  0
VERTEX
  8
0
 10
1724.0634690987713
 20
22.974687843755049
 42
0
  0
VERTEX
  8
0
 10
1773.1185380684979
 20
132.02533939404802
 42
0.62152963876724243
  0
VERTEX
  8
0
 10
1698.9655305611736
 20
221.96622207684831
 42
0.65655827522277832
  0
VERTEX
  8
0
 10
1691.8182079064495
 20
182.2304976276906
 42
-0.10101121664047241
  0
VERTEX
  8
0
 10
1703.0996057259686
 20
170.88659885449724
 42
0
  0
VERTEX
  8
0
 10
1711.5799772011883
 20
175.63000705762224
 42
0
  0
VERTEX
  8
0
 10
1720.1775781380779
 20
141.70241764111833
 42
-0
  0
VERTEX
  8
0
 10
1709.0400926339275
 20
141.85405185742692
 42
-0.017638612538576126
  0
VERTEX
  8
0
 10
1708.4439317452557
 20
139.0964529804738
 42
-0
  0
SEQEND
  0
POLYLINE
  8
0
 10
0
 20
0
 39
0
 70
1
 66
1
  0
VERTEX
  8
0
 10
1703.9999772774822
 20
208.55000522656755
 42
-1
  0
VERTEX
  8
0
 10
1703.9999772774822
 20
192.55000522656755
 42
-1
  0
SEQEND
  0
POLYLINE
  8
0
 10
0
 20
0
 39
0
 70
1
 66
1
  0
VERTEX
  8
0
 10
1703.9999772774822
 20
40.000002174809737
 42
-1
  0
VERTEX
  8
0
 10
1703.9999772774822
 20
24.000002174809737
 42
-1
  0
SEQEND
  0
POLYLINE
  8
0
 10
0
 20
0
 39
0
 70
1
 66
1
  0
VERTEX
  8
0
 10
2325.4261044023278
 20
715.74599999999998
 42
0
  0
VERTEX
  8
0
 10
2325.4261044023278
 20
497.74599999999998
 42
0
  0
VERTEX
  8
0
 10
2395.4261044023278
 20
497.74599999999998
 42
0
  0
VERTEX
  8
0
 10
2407.4261044023278
 20
509.74599999999998
 42
0
  0
VERTEX
  8
0
 10
2407.4261044023278
 20
703.74599999999998
 42
0
  0
VERTEX
  8
0
 10
2395.4261044023278
 20
715.74599999999998
 42
0
  0
SEQEND
  0
POLYLINE
  8
0
 10
0
 20
0
 39
0
 70
1
 66
1
  0
VERTEX
  8
0
 10
2351.9261044023278
 20
646.74599999999998
 42
-1
  0
VERTEX
  8
0
 10
2374.9261044023278
 20
646.74599999999998
 42
-1
  0
SEQEND
  0
POLYLINE
  8
0
 10
0
 20
0
 39
0
 70
1
 66
1
  0
VERTEX
  8
0
 10
2351.9261044023278
 20
586.74599999999998
 42
-1
  0
VERTEX
  8
0
 10
2374.9261044023278
 20
586.74599999999998
 42
-1
  0
SEQEND
  0
POLYLINE
  8
0
 10
0
 20
0
 39
0
 70
1
 66
1
  0
VERTEX
  8
0
 10
2068.2770963285498
 20
1068
 42
0
  0
VERTEX
  8
0
 10
2068.2770963285498
 20
850
 42
0
  0
VERTEX
  8
0
 10
2138.2770963285498
 20
850
 42
0
  0
VERTEX
  8
0
 10
2150.2770963285498
 20
862
 42
0
  0
VERTEX
  8
0
 10
2150.2770963285498
 20
1056
 42
0
  0
VERTEX
  8
0
 10
2138.2770963285498
 20
1068
 42
0
  0
SEQEND
  0
POLYLINE
  8
0
 10
0
 20
0
 39
0
 70
1
 66
1
  0
VERTEX
  8
0
 10
2094.7770963285498
 20
999
 42
-1
  0
VERTEX
  8
0
 10
2117.7770963285498
 20
999
 42
-1
  0
SEQEND
  0
POLYLINE
  8
0
 10
0
 20
0
 39
0
 70
1
 66
1
  0
VERTEX
  8
0
 10
2094.7770963285498
 20
939
 42
-1
  0
VERTEX
  8
0
 10
2117.7770963285498
 20
939
 42
-1
  0
SEQEND
  0
POLYLINE
  8
0
 10
0
 20
0
 39
0
 70
1
 66
1
  0
VERTEX
  8
0
 10
2208.5860445717694
 20
630
 42
0
  0
VERTEX
  8
0
 10
2013.5860445717694
 20
630
 42
0
  0
VERTEX
  8
0
 10
2013.5860445717694
 20
430
 42
0
  0
VERTEX
  8
0
 10
2208.5860445717694
 20
430
 42
0
  0
SEQEND
  0
POLYLINE
  8
0
 10
0
 20
0
 39
0
 70
1
 66
1
  0
VERTEX
  8
0
 10
2043.5860445717694
 20
564.5
 42
-1
  0
VERTEX
  8
0
 10
2043.5860445717694
 20
545.5
 42
-1
  0
SEQEND
  0
POLYLINE
  8
0
 10
0
 20
0
 39
0
 70
1
 66
1
  0
VERTEX
  8
0
 10
2043.5860445717694
 20
514.5
 42
-1
  0
VERTEX
  8
0
 10
2043.5860445717694
 20
495.5
 42
-1
  0
SEQEND
  0
POLYLINE
  8
0
 10
0
 20
0
 39
0
 70
1
 66
1
  0
VERTEX
  8
0
 10
2223.4261044023278
 20
840
 42
0
  0
VERTEX
  8
0
 10
2028.4261044023278
 20
840
 42
0
  0
VERTEX
  8
0
 10
2028.4261044023278
 20
640
 42
0
  0
VERTEX
  8
0
 10
2223.4261044023278
 20
640
 42
0
  0
SEQEND
  0
POLYLINE
  8
0
 10
0
 20
0
 39
0
 70
1
 66
1
  0
VERTEX
  8
0
 10
2058.4261044023278
 20
774.5
 42
-1
  0
VERTEX
  8
0
 10
2058.4261044023278
 20
755.5
 42
-1
  0
SEQEND
  0
POLYLINE
  8
0
 10
0
 20
0
 39
0
 70
1
 66
1
  0
VERTEX
  8
0
 10
2058.4261044023278
 20
724.5
 42
-1
  0
VERTEX
  8
0
 10
2058.4261044023278
 20
705.5
 42
-1
  0
SEQEND
  0
POLYLINE
  8
0
 10
0
 20
0
 39
0
 70
1
 66
1
  0
VERTEX
  8
0
 10
2160.2770963285498
 20
1068
 42
0
  0
VERTEX
  8
0
 10
2160.2770963285498
 20
850
 42
0
  0
VERTEX
  8
0
 10
2230.2770963285498
 20
850
 42
0
  0
VERTEX
  8
0
 10
2242.2770963285498
 20
862
 42
0
  0
VERTEX
  8
0
 10
2242.2770963285498
 20
1056
 42
0
  0
VERTEX
  8
0
 10
2230.2770963285498
 20
1068
 42
0
  0
SEQEND
  0
POLYLINE
  8
0
 10
0
 20
0
 39
0
 70
1
 66
1
  0
VERTEX
  8
0
 10
2186.7770963285498
 20
999
 42
-1
  0
VERTEX
  8
0
 10
2209.7770963285498
 20
999
 42
-1
  0
SEQEND
  0
POLYLINE
  8
0
 10
0
 20
0
 39
0
 70
1
 66
1
  0
VERTEX
  8
0
 10
2186.7770963285498
 20
939
 42
-1
  0
VERTEX
  8
0
 10
2209.7770963285498
 20
939
 42
-1
  0
SEQEND
  0
POLYLINE
  8
0
 10
0
 20
0
 39
0
 70
1
 66
1
  0
VERTEX
  8
0
 10
2550.5860445717858
 20
456
 42
0
  0
VERTEX
  8
0
 10
2550.5860445717858
 20
238
 42
0
  0
VERTEX
  8
0
 10
2620.5860445717858
 20
238
 42
0
  0
VERTEX
  8
0
 10
2632.5860445717858
 20
250
 42
0
  0
VERTEX
  8
0
 10
2632.5860445717858
 20
444
 42
0
  0
VERTEX
  8
0
 10
2620.5860445717858
 20
456
 42
0
  0
SEQEND
  0
POLYLINE
  8
0
 10
0
 20
0
 39
0
 70
1
 66
1
  0
VERTEX
  8
0
 10
2577.0860445717858
 20
387
 42
-1
  0
VERTEX
  8
0
 10
2600.0860445717858
 20
387
 42
-1
  0
SEQEND
  0
POLYLINE
  8
0
 10
0
 20
0
 39
0
 70
1
 66
1
  0
VERTEX
  8
0
 10
2577.0860445717858
 20
327
 42
-1
  0
VERTEX
  8
0
 10
2600.0860445717858
 20
327
 42
-1
  0
SEQEND
  0
POLYLINE
  8
0
 10
0
 20
0
 39
0
 70
1
 66
1
  0
VERTEX
  8
0
 10
2631.1062240634456
 20
684
 42
0
  0
VERTEX
  8
0
 10
2631.1062240634456
 20
466
 42
0
  0
VERTEX
  8
0
 10
2701.1062240634456
 20
466
 42
0
  0
VERTEX
  8
0
 10
2713.1062240634456
 20
478
 42
0
  0
VERTEX
  8
0
 10
2713.1062240634456
 20
672
 42
0
  0
VERTEX
  8
0
 10
2701.1062240634456
 20
684
 42
0
  0
SEQEND
  0
POLYLINE
  8
0
 10
0
 20
0
 39
0
 70
1
 66
1
  0
VERTEX
  8
0
 10
2657.6062240634456
 20
615
 42
-1
  0
VERTEX
  8
0
 10
2680.6062240634456
 20
615
 42
-1
  0
SEQEND
  0
POLYLINE
  8
0
 10
0
 20
0
 39
0
 70
1
 66
1
  0
VERTEX
  8
0
 10
2657.6062240634456
 20
555
 42
-1
  0
VERTEX
  8
0
 10
2680.6062240634456
 20
555
 42
-1
  0
SEQEND
  0
POLYLINE
  8
0
 10
0
 20
0
 39
0
 70
1
 66
1
  0
VERTEX
  8
0
 10
2252.2770963285498
 20
943.74599999999998
 42
0
  0
VERTEX
  8
0
 10
2252.2770963285498
 20
725.74599999999998
 42
0
  0
VERTEX
  8
0
 10
2322.2770963285498
 20
725.74599999999998
 42
0
  0
VERTEX
  8
0
 10
2334.2770963285498
 20
737.74599999999998
 42
0
  0
VERTEX
  8
0
 10
2334.2770963285498
 20
931.74599999999998
 42
0
  0
VERTEX
  8
0
 10
2322.2770963285498
 20
943.74599999999998
 42
0
  0
SEQEND
  0
POLYLINE
  8
0
 10
0
 20
0
 39
0
 70
1
 66
1
  0
VERTEX
  8
0
 10
2278.7770963285498
 20
874.74599999999998
 42
-1
  0
VERTEX
  8
0
 10
2301.7770963285498
 20
874.74599999999998
 42
-1
  0
SEQEND
  0
POLYLINE
  8
0
 10
0
 20
0
 39
0
 70
1
 66
1
  0
VERTEX
  8
0
 10
2278.7770963285498
 20
814.74599999999998
 42
-1
  0
VERTEX
  8
0
 10
2301.7770963285498
 20
814.74599999999998
 42
-1
  0
SEQEND
  0
POLYLINE
  8
0
 10
0
 20
0
 39
0
 70
1
 66
1
  0
VERTEX
  8
0
 10
342.00000000001614
 20
456
 42
0
  0
VERTEX
  8
0
 10
342.00000000001614
 20
238
 42
0
  0
VERTEX
  8
0
 10
412.00000000001614
 20
238
 42
0
  0
VERTEX
  8
0
 10
424.00000000001614
 20
250
 42
0
  0
VERTEX
  8
0
 10
424.00000000001614
 20
444
 42
0
  0
VERTEX
  8
0
 10
412.00000000001614
 20
456
 42
0
  0
SEQEND
  0
POLYLINE
  8
0
 10
0
 20
0
 39
0
 70
1
 66
1
  0
VERTEX
  8
0
 10
368.50000000001614
 20
387
 42
-1
  0
VERTEX
  8
0
 10
391.50000000001614
 20
387
 42
-1
  0
SEQEND
  0
POLYLINE
  8
0
 10
0
 20
0
 39
0
 70
1
 66
1
  0
VERTEX
  8
0
 10
368.50000000001614
 20
327
 42
-1
  0
VERTEX
  8
0
 10
391.50000000001614
 20
327
 42
-1
  0
SEQEND
  0
POLYLINE
  8
0
 10
0
 20
0
 39
0
 70
1
 66
1
  0
VERTEX
  8
0
 10
1332.5860598305585
 20
1168.8400598305586
 42
0
  0
VERTEX
  8
0
 10
1114.5860598305585
 20
1168.8400598305586
 42
0
  0
VERTEX
  8
0
 10
1114.5860598305585
 20
1098.8400598305586
 42
0
  0
VERTEX
  8
0
 10
1126.5860598305585
 20
1086.8400598305586
 42
0
  0
VERTEX
  8
0
 10
1320.5860598305585
 20
1086.8400598305586
 42
0
  0
VERTEX
  8
0
 10
1332.5860598305585
 20
1098.8400598305586
 42
0
  0
SEQEND
  0
POLYLINE
  8
0
 10
0
 20
0
 39
0
 70
1
 66
1
  0
VERTEX
  8
0
 10
1263.5860598305585
 20
1142.3400598305586
 42
-1
  0
VERTEX
  8
0
 10
1263.5860598305585
 20
1119.3400598305586
 42
-1
  0
SEQEND
  0
POLYLINE
  8
0
 10
0
 20
0
 39
0
 70
1
 66
1
  0
VERTEX
  8
0
 10
1203.5860598305585
 20
1142.3400598305586
 42
-1
  0
VERTEX
  8
0
 10
1203.5860598305585
 20
1119.3400598305586
 42
-1
  0
SEQEND
  0
POLYLINE
  8
0
 10
0
 20
0
 39
0
 70
1
 66
1
  0
VERTEX
  8
0
 10
1921.5860445717694
 20
648
 42
0
  0
VERTEX
  8
0
 10
1921.5860445717694
 20
430
 42
0
  0
VERTEX
  8
0
 10
1991.5860445717694
 20
430
 42
0
  0
VERTEX
  8
0
 10
2003.5860445717694
 20
442
 42
0
  0
VERTEX
  8
0
 10
2003.5860445717694
 20
636
 42
0
  0
VERTEX
  8
0
 10
1991.5860445717694
 20
648
 42
0
  0
SEQEND
  0
POLYLINE
  8
0
 10
0
 20
0
 39
0
 70
1
 66
1
  0
VERTEX
  8
0
 10
1948.0860445717694
 20
579
 42
-1
  0
VERTEX
  8
0
 10
1971.0860445717694
 20
579
 42
-1
  0
SEQEND
  0
POLYLINE
  8
0
 10
0
 20
0
 39
0
 70
1
 66
1
  0
VERTEX
  8
0
 10
1948.0860445717694
 20
519
 42
-1
  0
VERTEX
  8
0
 10
1971.0860445717694
 20
519
 42
-1
  0
SEQEND
  0
POLYLINE
  8
0
 10
0
 20
0
 39
0
 70
1
 66
1
  0
VERTEX
  8
0
 10
1716.5860445717694
 20
451.69103649799138
 42
0
  0
VERTEX
  8
0
 10
1716.5860445717694
 20
233.69103649799138
 42
0
  0
VERTEX
  8
0
 10
1786.5860445717694
 20
233.69103649799138
 42
0
  0
VERTEX
  8
0
 10
1798.5860445717694
 20
245.69103649799138
 42
0
  0
VERTEX
  8
0
 10
1798.5860445717694
 20
439.69103649799138
 42
0
  0
VERTEX
  8
0
 10
1786.5860445717694
 20
451.69103649799138
 42
0
  0
SEQEND
  0
POLYLINE
  8
0
 10
0
 20
0
 39
0
 70
1
 66
1
  0
VERTEX
  8
0
 10
1743.0860445717694
 20
382.69103649799138
 42
-1
  0
VERTEX
  8
0
 10
1766.0860445717694
 20
382.69103649799138
 42
-1
  0
SEQEND
  0
POLYLINE
  8
0
 10
0
 20
0
 39
0
 70
1
 66
1
  0
VERTEX
  8
0
 10
1743.0860445717694
 20
322.69103649799138
 42
-1
  0
VERTEX
  8
0
 10
1766.0860445717694
 20
322.69103649799138
 42
-1
  0
SEQEND
  0
POLYLINE
  8
0
 10
0
 20
0
 39
0
 70
1
 66
1
  0
VERTEX
  8
0
 10
1537.5860598305585
 20
1180
 42
0
  0
VERTEX
  8
0
 10
1342.5860598305585
 20
1180
 42
0
  0
VERTEX
  8
0
 10
1342.5860598305585
 20
980
 42
0
  0
VERTEX
  8
0
 10
1537.5860598305585
 20
980
 42
0
  0
SEQEND
  0
POLYLINE
  8
0
 10
0
 20
0
 39
0
 70
1
 66
1
  0
VERTEX
  8
0
 10
1372.5860598305585
 20
1114.5
 42
-1
  0
VERTEX
  8
0
 10
1372.5860598305585
 20
1095.5
 42
-1
  0
SEQEND
  0
POLYLINE
  8
0
 10
0
 20
0
 39
0
 70
1
 66
1
  0
VERTEX
  8
0
 10
1372.5860598305585
 20
1064.5
 42
-1
  0
VERTEX
  8
0
 10
1372.5860598305585
 20
1045.5
 42
-1
  0
SEQEND
  0
POLYLINE
  8
0
 10
0
 20
0
 39
0
 70
1
 66
1
  0
VERTEX
  8
0
 10
2344.2770963285498
 20
943.74599999999998
 42
0
  0
VERTEX
  8
0
 10
2344.2770963285498
 20
725.74599999999998
 42
0
  0
VERTEX
  8
0
 10
2414.2770963285498
 20
725.74599999999998
 42
0
  0
VERTEX
  8
0
 10
2426.2770963285498
 20
737.74599999999998
 42
0
  0
VERTEX
  8
0
 10
2426.2770963285498
 20
931.74599999999998
 42
0
  0
VERTEX
  8
0
 10
2414.2770963285498
 20
943.74599999999998
 42
0
  0
SEQEND
  0
POLYLINE
  8
0
 10
0
 20
0
 39
0
 70
1
 66
1
  0
VERTEX
  8
0
 10
2370.7770963285498
 20
874.74599999999998
 42
-1
  0
VERTEX
  8
0
 10
2393.7770963285498
 20
874.74599999999998
 42
-1
  0
SEQEND
  0
POLYLINE
  8
0
 10
0
 20
0
 39
0
 70
1
 66
1
  0
VERTEX
  8
0
 10
2370.7770963285498
 20
814.74599999999998
 42
-1
  0
VERTEX
  8
0
 10
2393.7770963285498
 20
814.74599999999998
 42
-1
  0
SEQEND
  0
POLYLINE
  8
0
 10
0
 20
0
 39
0
 70
1
 66
1
  0
VERTEX
  8
0
 10
2233.4261044023278
 20
715.74599999999998
 42
0
  0
VERTEX
  8
0
 10
2233.4261044023278
 20
497.74599999999998
 42
0
  0
VERTEX
  8
0
 10
2303.4261044023278
 20
497.74599999999998
 42
0
  0
VERTEX
  8
0
 10
2315.4261044023278
 20
509.74599999999998
 42
0
  0
VERTEX
  8
0
 10
2315.4261044023278
 20
703.74599999999998
 42
0
  0
VERTEX
  8
0
 10
2303.4261044023278
 20
715.74599999999998
 42
0
  0
SEQEND
  0
POLYLINE
  8
0
 10
0
 20
0
 39
0
 70
1
 66
1
  0
VERTEX
  8
0
 10
2259.9261044023278
 20
646.74599999999998
 42
-1
  0
VERTEX
  8
0
 10
2282.9261044023278
 20
646.74599999999998
 42
-1
  0
SEQEND
  0
POLYLINE
  8
0
 10
0
 20
0
 39
0
 70
1
 66
1
  0
VERTEX
  8
0
 10
2259.9261044023278
 20
586.74599999999998
 42
-1
  0
VERTEX
  8
0
 10
2282.9261044023278
 20
586.74599999999998
 42
-1
  0
SEQEND
  0
POLYLINE
  8
0
 10
0
 20
0
 39
0
 70
1
 66
1
  0
VERTEX
  8
0
 10
2550.5860445717858
 20
228
 42
0
  0
VERTEX
  8
0
 10
2550.5860445717858
 20
10
 42
0
  0
VERTEX
  8
0
 10
2620.5860445717858
 20
10
 42
0
  0
VERTEX
  8
0
 10
2632.5860445717858
 20
22
 42
0
  0
VERTEX
  8
0
 10
2632.5860445717858
 20
216
 42
0
  0
VERTEX
  8
0
 10
2620.5860445717858
 20
228
 42
0
  0
SEQEND
  0
POLYLINE
  8
0
 10
0
 20
0
 39
0
 70
1
 66
1
  0
VERTEX
  8
0
 10
2577.0860445717858
 20
159
 42
-1
  0
VERTEX
  8
0
 10
2600.0860445717858
 20
159
 42
-1
  0
SEQEND
  0
POLYLINE
  8
0
 10
0
 20
0
 39
0
 70
1
 66
1
  0
VERTEX
  8
0
 10
2577.0860445717858
 20
99
 42
-1
  0
VERTEX
  8
0
 10
2600.0860445717858
 20
99
 42
-1
  0
SEQEND
  0
POLYLINE
  8
0
 10
0
 20
0
 39
0
 70
1
 66
1
  0
VERTEX
  8
0
 10
2208.5860445717694
 20
420
 42
0
  0
VERTEX
  8
0
 10
2013.5860445717694
 20
420
 42
0
  0
VERTEX
  8
0
 10
2013.5860445717694
 20
220
 42
0
  0
VERTEX
  8
0
 10
2208.5860445717694
 20
220
 42
0
  0
SEQEND
  0
POLYLINE
  8
0
 10
0
 20
0
 39
0
 70
1
 66
1
  0
VERTEX
  8
0
 10
2043.5860445717694
 20
354.5
 42
-1
  0
VERTEX
  8
0
 10
2043.5860445717694
 20
335.5
 42
-1
  0
SEQEND
  0
POLYLINE
  8
0
 10
0
 20
0
 39
0
 70
1
 66
1
  0
VERTEX
  8
0
 10
2043.5860445717694
 20
304.5
 42
-1
  0
VERTEX
  8
0
 10
2043.5860445717694
 20
285.5
 42
-1
  0
SEQEND
  0
POLYLINE
  8
0
 10
0
 20
0
 39
0
 70
1
 66
1
  0
VERTEX
  8
0
 10
2641.2770963285498
 20
912
 42
0
  0
VERTEX
  8
0
 10
2641.2770963285498
 20
694
 42
0
  0
VERTEX
  8
0
 10
2711.2770963285498
 20
694
 42
0
  0
VERTEX
  8
0
 10
2723.2770963285498
 20
706
 42
0
  0
VERTEX
  8
0
 10
2723.2770963285498
 20
900
 42
0
  0
VERTEX
  8
0
 10
2711.2770963285498
 20
912
 42
0
  0
SEQEND
  0
POLYLINE
  8
0
 10
0
 20
0
 39
0
 70
1
 66
1
  0
VERTEX
  8
0
 10
2667.7770963285498
 20
843
 42
-1
  0
VERTEX
  8
0
 10
2690.7770963285498
 20
843
 42
-1
  0
SEQEND
  0
POLYLINE
  8
0
 10
0
 20
0
 39
0
 70
1
 66
1
  0
VERTEX
  8
0
 10
2667.7770963285498
 20
783
 42
-1
  0
VERTEX
  8
0
 10
2690.7770963285498
 20
783
 42
-1
  0
SEQEND
  0
POLYLINE
  8
0
 10
0
 20
0
 39
0
 70
1
 66
1
  0
VERTEX
  8
0
 10
2402.6591693245323
 20
1171.7460000000001
 42
0
  0
VERTEX
  8
0
 10
2402.6591693245323
 20
953.74600000000009
 42
0
  0
VERTEX
  8
0
 10
2472.6591693245323
 20
953.74600000000009
 42
0
  0
VERTEX
  8
0
 10
2484.6591693245323
 20
965.74600000000009
 42
0
  0
VERTEX
  8
0
 10
2484.6591693245323
 20
1159.7460000000001
 42
0
  0
VERTEX
  8
0
 10
2472.6591693245323
 20
1171.7460000000001
 42
0
  0
SEQEND
  0
POLYLINE
  8
0
 10
0
 20
0
 39
0
 70
1
 66
1
  0
VERTEX
  8
0
 10
2429.1591693245323
 20
1102.7460000000001
 42
-1
  0
VERTEX
  8
0
 10
2452.1591693245323
 20
1102.7460000000001
 42
-1
  0
SEQEND
  0
POLYLINE
  8
0
 10
0
 20
0
 39
0
 70
1
 66
1
  0
VERTEX
  8
0
 10
2429.1591693245323
 20
1042.7460000000001
 42
-1
  0
VERTEX
  8
0
 10
2452.1591693245323
 20
1042.7460000000001
 42
-1
  0
SEQEND
  0
POLYLINE
  8
0
 10
0
 20
0
 39
0
 70
1
 66
1
  0
VERTEX
  8
0
 10
1771.2770963285498
 20
1113.3820729959828
 42
0
  0
VERTEX
  8
0
 10
1771.2770963285498
 20
895.38207299598275
 42
0
  0
VERTEX
  8
0
 10
1841.2770963285498
 20
895.38207299598275
 42
0
  0
VERTEX
  8
0
 10
1853.2770963285498
 20
907.38207299598275
 42
0
  0
VERTEX
  8
0
 10
1853.2770963285498
 20
1101.3820729959828
 42
0
  0
VERTEX
  8
0
 10
1841.2770963285498
 20
1113.3820729959828
 42
0
  0
SEQEND
  0
POLYLINE
  8
0
 10
0
 20
0
 39
0
 70
1
 66
1
  0
VERTEX
  8
0
 10
1797.7770963285498
 20
1044.3820729959828
 42
-1
  0
VERTEX
  8
0
 10
1820.7770963285498
 20
1044.3820729959828
 42
-1
  0
SEQEND
  0
POLYLINE
  8
0
 10
0
 20
0
 39
0
 70
1
 66
1
  0
VERTEX
  8
0
 10
1797.7770963285498
 20
984.38207299598275
 42
-1
  0
VERTEX
  8
0
 10
1820.7770963285498
 20
984.38207299598275
 42
-1
  0
SEQEND
  0
POLYLINE
  8
0
 10
0
 20
0
 39
0
 70
1
 66
1
  0
VERTEX
  8
0
 10
2642.5860445717858
 20
228
 42
0
  0
VERTEX
  8
0
 10
2642.5860445717858
 20
10
 42
0
  0
VERTEX
  8
0
 10
2712.5860445717858
 20
10
 42
0
  0
VERTEX
  8
0
 10
2724.5860445717858
 20
22
 42
0
  0
VERTEX
  8
0
 10
2724.5860445717858
 20
216
 42
0
  0
VERTEX
  8
0
 10
2712.5860445717858
 20
228
 42
0
  0
SEQEND
  0
POLYLINE
  8
0
 10
0
 20
0
 39
0
 70
1
 66
1
  0
VERTEX
  8
0
 10
2669.0860445717858
 20
159
 42
-1
  0
VERTEX
  8
0
 10
2692.0860445717858
 20
159
 42
-1
  0
SEQEND
  0
POLYLINE
  8
0
 10
0
 20
0
 39
0
 70
1
 66
1
  0
VERTEX
  8
0
 10
2669.0860445717858
 20
99
 42
-1
  0
VERTEX
  8
0
 10
2692.0860445717858
 20
99
 42
-1
  0
SEQEND
  0
POLYLINE
  8
0
 10
0
 20
0
 39
0
 70
1
 66
1
  0
VERTEX
  8
0
 10
1300.8728888314745
 20
980.67408769006363
 42
0.91633117198944092
  0
VERTEX
  8
0
 10
1315.3024084847948
 20
1022.0634919869386
 42
0
  0
VERTEX
  8
0
 10
1206.2517569345018
 20
1071.1185609566651
 42
0.62152963876724243
  0
VERTEX
  8
0
 10
1116.3108742517015
 20
996.96555344934097
 42
0.65655827522277832
  0
VERTEX
  8
0
 10
1156.0465987008592
 20
989.81823079461685
 42
-0.10101121664047241
  0
VERTEX
  8
0
 10
1167.3904974740526
 20
1001.0996286141359
 42
0
  0
VERTEX
  8
0
 10
1162.6470892709276
 20
1009.5800000893556
 42
0
  0
VERTEX
  8
0
 10
1196.5746786874315
 20
1018.1776010262453
 42
-0
  0
VERTEX
  8
0
 10
1196.4230444711229
 20
1007.0401155220949
 42
-0.017638612538576126
  0
VERTEX
  8
0
 10
1199.180643348076
 20
1006.443954633423
 42
-0
  0
SEQEND
  0
POLYLINE
  8
0
 10
0
 20
0
 39
0
 70
1
 66
1
  0
VERTEX
  8
0
 10
1129.7270911019823
 20
1002.0000001656496
 42
-1
  0
VERTEX
  8
0
 10
1145.7270911019823
 20
1002.0000001656496
 42
-1
  0
SEQEND
  0
POLYLINE
  8
0
 10
0
 20
0
 39
0
 70
1
 66
1
  0
VERTEX
  8
0
 10
1298.2770941537401
 20
1002.0000001656496
 42
-1
  0
VERTEX
  8
0
 10
1314.2770941537401
 20
1002.0000001656496
 42
-1
  0
SEQEND
  0
POLYLINE
  8
0
 10
0
 20
0
 39
0
 70
1
 66
1
  0
VERTEX
  8
0
 10
2418.1001920923914
 20
525.15020749707537
 42
0.91633117198944092
  0
VERTEX
  8
0
 10
2459.4895963892664
 20
510.72068784375506
 42
0
  0
VERTEX
  8
0
 10
2508.5446653589929
 20
619.77133939404803
 42
0.62152963876724243
  0
VERTEX
  8
0
 10
2434.3916578516687
 20
709.71222207684832
 42
0.65655827522277832
  0
VERTEX
  8
0
 10
2427.2443351969446
 20
669.97649762769061
 42
-0.10101121664047241
  0
VERTEX
  8
0
 10
2438.5257330164636
 20
658.63259885449725
 42
0
  0
VERTEX
  8
0
 10
2447.0061044916833
 20
663.37600705762225
 42
0
  0
VERTEX
  8
0
 10
2455.603705428573
 20
629.44841764111834
 42
-0
  0
VERTEX
  8
0
 10
2444.4662199244226
 20
629.60005185742693
 42
-0.017638612538576126
  0
VERTEX
  8
0
 10
2443.8700590357507
 20
626.84245298047381
 42
-0
  0
SEQEND
  0
POLYLINE
  8
0
 10
0
 20
0
 39
0
 70
1
 66
1
  0
VERTEX
  8
0
 10
2439.4261045679773
 20
696.29600522656756
 42
-1
  0
VERTEX
  8
0
 10
2439.4261045679773
 20
680.29600522656756
 42
-1
  0
SEQEND
  0
POLYLINE
  8
0
 10
0
 20
0
 39
0
 70
1
 66
1
  0
VERTEX
  8
0
 10
2439.4261045679773
 20
527.74600217480975
 42
-1
  0
VERTEX
  8
0
 10
2439.4261045679773
 20
511.74600217480975
 42
-1
  0
SEQEND
  0
POLYLINE
  8
0
 10
0
 20
0
 39
0
 70
1
 66
1
  0
VERTEX
  8
0
 10
2273.254961827457
 20
1078.6740876900637
 42
0.91633117198944092
  0
VERTEX
  8
0
 10
2287.6844814807773
 20
1120.0634919869387
 42
0
  0
VERTEX
  8
0
 10
2178.6338299304844
 20
1169.1185609566653
 42
0.62152963876724243
  0
VERTEX
  8
0
 10
2088.6929472476841
 20
1094.9655534493411
 42
0.65655827522277832
  0
VERTEX
  8
0
 10
2128.4286716968418
 20
1087.818230794617
 42
-0.10101121664047241
  0
VERTEX
  8
0
 10
2139.7725704700351
 20
1099.099628614136
 42
0
  0
VERTEX
  8
0
 10
2135.0291622669101
 20
1107.5800000893557
 42
0
  0
VERTEX
  8
0
 10
2168.956751683414
 20
1116.1776010262454
 42
-0
  0
VERTEX
  8
0
 10
2168.8051174671054
 20
1105.040115522095
 42
-0.017638612538576126
  0
VERTEX
  8
0
 10
2171.5627163440586
 20
1104.4439546334231
 42
-0
  0
SEQEND
  0
POLYLINE
  8
0
 10
0
 20
0
 39
0
 70
1
 66
1
  0
VERTEX
  8
0
 10
2102.1091640979648
 20
1100.0000001656497
 42
-1
  0
VERTEX
  8
0
 10
2118.1091640979648
 20
1100.0000001656497
 42
-1
  0
SEQEND
  0
POLYLINE
  8
0
 10
0
 20
0
 39
0
 70
1
 66
1
  0
VERTEX
  8
0
 10
2270.6591671497226
 20
1100.0000001656497
 42
-1
  0
VERTEX
  8
0
 10
2286.6591671497226
 20
1100.0000001656497
 42
-1
  0
SEQEND
  0
POLYLINE
  8
0
 10
0
 20
0
 39
0
 70
1
 66
1
  0
VERTEX
  8
0
 10
498.42008769006367
 20
981.15020749707537
 42
0.91633117198944092
  0
VERTEX
  8
0
 10
539.80949198693872
 20
966.72068784375506
 42
0
  0
VERTEX
  8
0
 10
588.86456095666517
 20
1075.771339394048
 42
0.62152963876724243
  0
VERTEX
  8
0
 10
514.71155344934095
 20
1165.7122220768483
 42
0.65655827522277832
  0
VERTEX
  8
0
 10
507.56423079461689
 20
1125.9764976276906
 42
-0.10101121664047241
  0
VERTEX
  8
0
 10
518.84562861413599
 20
1114.6325988544972
 42
0
  0
VERTEX
  8
0
 10
527.32600008935572
 20
1119.3760070576222
 42
0
  0
VERTEX
  8
0
 10
535.92360102624536
 20
1085.4484176411183
 42
-0
  0
VERTEX
  8
0
 10
524.78611552209497
 20
1085.6000518574269
 42
-0.017638612538576126
  0
VERTEX
  8
0
 10
524.1899546334231
 20
1082.8424529804738
 42
-0
  0
SEQEND
  0
POLYLINE
  8
0
 10
0
 20
0
 39
0
 70
1
 66
1
  0
VERTEX
  8
0
 10
519.74600016564955
 20
1152.2960052265676
 42
-1
  0
VERTEX
  8
0
 10
519.74600016564966
 20
1136.2960052265676
 42
-1
  0
SEQEND
  0
POLYLINE
  8
0
 10
0
 20
0
 39
0
 70
1
 66
1
  0
VERTEX
  8
0
 10
519.74600016564966
 20
983.74600217480975
 42
-1
  0
VERTEX
  8
0
 10
519.74600016564966
 20
967.74600217480975
 42
-1
  0
SEQEND
  0
POLYLINE
  8
0
 10
0
 20
0
 39
0
 70
1
 66
1
  0
VERTEX
  8
0
 10
342.00000000001614
 20
228
 42
0
  0
VERTEX
  8
0
 10
342.00000000001614
 20
10
 42
0
  0
VERTEX
  8
0
 10
412.00000000001614
 20
10
 42
0
  0
VERTEX
  8
0
 10
424.00000000001614
 20
22
 42
0
  0
VERTEX
  8
0
 10
424.00000000001614
 20
216
 42
0
  0
VERTEX
  8
0
 10
412.00000000001614
 20
228
 42
0
  0
SEQEND
  0
POLYLINE
  8
0
 10
0
 20
0
 39
0
 70
1
 66
1
  0
VERTEX
  8
0
 10
368.50000000001614
 20
159
 42
-1
  0
VERTEX
  8
0
 10
391.50000000001614
 20
159
 42
-1
  0
SEQEND
  0
POLYLINE
  8
0
 10
0
 20
0
 39
0
 70
1
 66
1
  0
VERTEX
  8
0
 10
368.50000000001614
 20
99
 42
-1
  0
VERTEX
  8
0
 10
391.50000000001614
 20
99
 42
-1
  0
SEQEND
  0
POLYLINE
  8
0
 10
0
 20
0
 39
0
 70
1
 66
1
  0
VERTEX
  8
0
 10
1733.8728888314745
 20
980.67408769006363
 42
0.91633117198944092
  0
VERTEX
  8
0
 10
1748.3024084847948
 20
1022.0634919869386
 42
0
  0
VERTEX
  8
0
 10
1639.2517569345018
 20
1071.1185609566651
 42
0.62152963876724243
  0
VERTEX
  8
0
 10
1549.3108742517015
 20
996.96555344934097
 42
0.65655827522277832
  0
VERTEX
  8
0
 10
1589.0465987008592
 20
989.81823079461685
 42
-0.10101121664047241
  0
VERTEX
  8
0
 10
1600.3904974740526
 20
1001.0996286141359
 42
0
  0
VERTEX
  8
0
 10
1595.6470892709276
 20
1009.5800000893556
 42
0
  0
VERTEX
  8
0
 10
1629.5746786874315
 20
1018.1776010262453
 42
-0
  0
VERTEX
  8
0
 10
1629.4230444711229
 20
1007.0401155220949
 42
-0.017638612538576126
  0
VERTEX
  8
0
 10
1632.180643348076
 20
1006.443954633423
 42
-0
  0
SEQEND
  0
POLYLINE
  8
0
 10
0
 20
0
 39
0
 70
1
 66
1
  0
VERTEX
  8
0
 10
1562.7270911019823
 20
1002.0000001656496
 42
-1
  0
VERTEX
  8
0
 10
1578.7270911019823
 20
1002.0000001656496
 42
-1
  0
SEQEND
  0
POLYLINE
  8
0
 10
0
 20
0
 39
0
 70
1
 66
1
  0
VERTEX
  8
0
 10
1731.2770941537401
 20
1002.0000001656496
 42
-1
  0
VERTEX
  8
0
 10
1747.2770941537401
 20
1002.0000001656496
 42
-1
  0
SEQEND
  0
POLYLINE
  8
0
 10
0
 20
0
 39
0
 70
1
 66
1
  0
VERTEX
  8
0
 10
2310.6591693245323
 20
1171.7460000000001
 42
0
  0
VERTEX
  8
0
 10
2310.6591693245323
 20
953.74600000000009
 42
0
  0
VERTEX
  8
0
 10
2380.6591693245323
 20
953.74600000000009
 42
0
  0
VERTEX
  8
0
 10
2392.6591693245323
 20
965.74600000000009
 42
0
  0
VERTEX
  8
0
 10
2392.6591693245323
 20
1159.7460000000001
 42
0
  0
VERTEX
  8
0
 10
2380.6591693245323
 20
1171.7460000000001
 42
0
  0
SEQEND
  0
POLYLINE
  8
0
 10
0
 20
0
 39
0
 70
1
 66
1
  0
VERTEX
  8
0
 10
2337.1591693245323
 20
1102.7460000000001
 42
-1
  0
VERTEX
  8
0
 10
2360.1591693245323
 20
1102.7460000000001
 42
-1
  0
SEQEND
  0
POLYLINE
  8
0
 10
0
 20
0
 39
0
 70
1
 66
1
  0
VERTEX
  8
0
 10
2337.1591693245323
 20
1042.7460000000001
 42
-1
  0
VERTEX
  8
0
 10
2360.1591693245323
 20
1042.7460000000001
 42
-1
  0
SEQEND
  0
POLYLINE
  8
0
 10
0
 20
0
 39
0
 70
1
 66
1
  0
VERTEX
  8
0
 10
1733.8728888314745
 20
1087.5141475206224
 42
0.91633117198944092
  0
VERTEX
  8
0
 10
1748.3024084847948
 20
1128.9035518174974
 42
0
  0
VERTEX
  8
0
 10
1639.2517569345018
 20
1177.9586207872239
 42
0.62152963876724243
  0
VERTEX
  8
0
 10
1549.3108742517015
 20
1103.8056132798997
 42
0.65655827522277832
  0
VERTEX
  8
0
 10
1589.0465987008592
 20
1096.6582906251756
 42
-0.10101121664047241
  0
VERTEX
  8
0
 10
1600.3904974740526
 20
1107.9396884446946
 42
0
  0
VERTEX
  8
0
 10
1595.6470892709276
 20
1116.4200599199144
 42
0
  0
VERTEX
  8
0
 10
1629.5746786874315
 20
1125.017660856804
 42
-0
  0
VERTEX
  8
0
 10
1629.4230444711229
 20
1113.8801753526536
 42
-0.017638612538576126
  0
VERTEX
  8
0
 10
1632.180643348076
 20
1113.2840144639817
 42
-0
  0
SEQEND
  0
POLYLINE
  8
0
 10
0
 20
0
 39
0
 70
1
 66
1
  0
VERTEX
  8
0
 10
1562.7270911019823
 20
1108.8400599962083
 42
-1
  0
VERTEX
  8
0
 10
1578.7270911019823
 20
1108.8400599962083
 42
-1
  0
SEQEND
  0
POLYLINE
  8
0
 10
0
 20
0
 39
0
 70
1
 66
1
  0
VERTEX
  8
0
 10
1731.2770941537401
 20
1108.8400599962083
 42
-1
  0
VERTEX
  8
0
 10
1747.2770941537401
 20
1108.8400599962083
 42
-1
  0
SEQEND
  0
POLYLINE
  8
0
 10
0
 20
0
 39
0
 70
1
 66
1
  0
VERTEX
  8
0
 10
2524.9402519229502
 20
525.15020749707537
 42
0.91633117198944092
  0
VERTEX
  8
0
 10
2566.3296562198252
 20
510.72068784375506
 42
0
  0
VERTEX
  8
0
 10
2615.3847251895518
 20
619.77133939404803
 42
0.62152963876724243
  0
VERTEX
  8
0
 10
2541.2317176822276
 20
709.71222207684832
 42
0.65655827522277832
  0
VERTEX
  8
0
 10
2534.0843950275034
 20
669.97649762769061
 42
-0.10101121664047241
  0
VERTEX
  8
0
 10
2545.3657928470225
 20
658.63259885449725
 42
0
  0
VERTEX
  8
0
 10
2553.8461643222422
 20
663.37600705762225
 42
0
  0
VERTEX
  8
0
 10
2562.4437652591319
 20
629.44841764111834
 42
-0
  0
VERTEX
  8
0
 10
2551.3062797549815
 20
629.60005185742693
 42
-0.017638612538576126
  0
VERTEX
  8
0
 10
2550.7101188663096
 20
626.84245298047381
 42
-0
  0
SEQEND
  0
POLYLINE
  8
0
 10
0
 20
0
 39
0
 70
1
 66
1
  0
VERTEX
  8
0
 10
2546.2661643985361
 20
696.29600522656756
 42
-1
  0
VERTEX
  8
0
 10
2546.2661643985361
 20
680.29600522656756
 42
-1
  0
SEQEND
  0
POLYLINE
  8
0
 10
0
 20
0
 39
0
 70
1
 66
1
  0
VERTEX
  8
0
 10
2546.2661643985361
 20
527.74600217480975
 42
-1
  0
VERTEX
  8
0
 10
2546.2661643985361
 20
511.74600217480975
 42
-1
  0
SEQEND
  0
POLYLINE
  8
0
 10
0
 20
0
 39
0
 70
1
 66
1
  0
VERTEX
  8
0
 10
2642.5860445717858
 20
456
 42
0
  0
VERTEX
  8
0
 10
2642.5860445717858
 20
238
 42
0
  0
VERTEX
  8
0
 10
2712.5860445717858
 20
238
 42
0
  0
VERTEX
  8
0
 10
2724.5860445717858
 20
250
 42
0
  0
VERTEX
  8
0
 10
2724.5860445717858
 20
444
 42
0
  0
VERTEX
  8
0
 10
2712.5860445717858
 20
456
 42
0
  0
SEQEND
  0
POLYLINE
  8
0
 10
0
 20
0
 39
0
 70
1
 66
1
  0
VERTEX
  8
0
 10
2669.0860445717858
 20
387
 42
-1
  0
VERTEX
  8
0
 10
2692.0860445717858
 20
387
 42
-1
  0
SEQEND
  0
POLYLINE
  8
0
 10
0
 20
0
 39
0
 70
1
 66
1
  0
VERTEX
  8
0
 10
2669.0860445717858
 20
327
 42
-1
  0
VERTEX
  8
0
 10
2692.0860445717858
 20
327
 42
-1
  0
SEQEND
  0
POLYLINE
  8
0
 10
0
 20
0
 39
0
 70
1
 66
1
  0
VERTEX
  8
0
 10
1983.8400369423912
 20
210
 42
0
  0
VERTEX
  8
0
 10
1788.8400369423912
 20
210
 42
0
  0
VERTEX
  8
0
 10
1788.8400369423912
 20
10
 42
0
  0
VERTEX
  8
0
 10
1983.8400369423912
 20
10
 42
0
  0
SEQEND
  0
POLYLINE
  8
0
 10
0
 20
0
 39
0
 70
1
 66
1
  0
VERTEX
  8
0
 10
1818.8400369423912
 20
144.5
 42
-1
  0
VERTEX
  8
0
 10
1818.8400369423912
 20
125.5
 42
-1
  0
SEQEND
  0
POLYLINE
  8
0
 10
0
 20
0
 39
0
 70
1
 66
1
  0
VERTEX
  8
0
 10
1818.8400369423912
 20
94.5
 42
-1
  0
VERTEX
  8
0
 10
1818.8400369423912
 20
75.5
 42
-1
  0
SEQEND
  0
POLYLINE
  8
0
 10
0
 20
0
 39
0
 70
1
 66
1
  0
VERTEX
  8
0
 10
2689.6591693245323
 20
1131.4370364979914
 42
0
  0
VERTEX
  8
0
 10
2494.6591693245323
 20
1131.4370364979914
 42
0
  0
VERTEX
  8
0
 10
2494.6591693245323
 20
931.43703649799136
 42
0
  0
VERTEX
  8
0
 10
2689.6591693245323
 20
931.43703649799136
 42
0
  0
SEQEND
  0
POLYLINE
  8
0
 10
0
 20
0
 39
0
 70
1
 66
1
  0
VERTEX
  8
0
 10
2524.6591693245323
 20
1065.9370364979914
 42
-1
  0
VERTEX
  8
0
 10
2524.6591693245323
 20
1046.9370364979914
 42
-1
  0
SEQEND
  0
POLYLINE
  8
0
 10
0
 20
0
 39
0
 70
1
 66
1
  0
VERTEX
  8
0
 10
2524.6591693245323
 20
1015.9370364979914
 42
-1
  0
VERTEX
  8
0
 10
2524.6591693245323
 20
996.93703649799136
 42
-1
  0
SEQEND
  0
POLYLINE
  8
0
 10
0
 20
0
 39
0
 70
1
 66
1
  0
VERTEX
  8
0
 10
2018.4261044023281
 20
871.69103649799138
 42
0
  0
VERTEX
  8
0
 10
1823.4261044023281
 20
871.69103649799138
 42
0
  0
VERTEX
  8
0
 10
1823.4261044023281
 20
671.69103649799138
 42
0
  0
VERTEX
  8
0
 10
2018.4261044023281
 20
671.69103649799138
 42
0
  0
SEQEND
  0
POLYLINE
  8
0
 10
0
 20
0
 39
0
 70
1
 66
1
  0
VERTEX
  8
0
 10
1853.4261044023281
 20
806.19103649799138
 42
-1
  0
VERTEX
  8
0
 10
1853.4261044023281
 20
787.19103649799138
 42
-1
  0
SEQEND
  0
POLYLINE
  8
0
 10
0
 20
0
 39
0
 70
1
 66
1
  0
VERTEX
  8
0
 10
1853.4261044023281
 20
756.19103649799138
 42
-1
  0
VERTEX
  8
0
 10
1853.4261044023281
 20
737.19103649799138
 42
-1
  0
SEQEND
  0
POLYLINE
  8
0
 10
0
 20
0
 39
0
 70
1
 66
1
  0
VERTEX
  8
0
 10
2003.5860445717694
 20
420
 42
0
  0
VERTEX
  8
0
 10
1808.5860445717694
 20
420
 42
0
  0
VERTEX
  8
0
 10
1808.5860445717694
 20
220
 42
0
  0
VERTEX
  8
0
 10
2003.5860445717694
 20
220
 42
0
  0
SEQEND
  0
POLYLINE
  8
0
 10
0
 20
0
 39
0
 70
1
 66
1
  0
VERTEX
  8
0
 10
1838.5860445717694
 20
354.5
 42
-1
  0
VERTEX
  8
0
 10
1838.5860445717694
 20
335.5
 42
-1
  0
SEQEND
  0
POLYLINE
  8
0
 10
0
 20
0
 39
0
 70
1
 66
1
  0
VERTEX
  8
0
 10
1838.5860445717694
 20
304.5
 42
-1
  0
VERTEX
  8
0
 10
1838.5860445717694
 20
285.5
 42
-1
  0
SEQEND
  0
POLYLINE
  8
0
 10
0
 20
0
 39
0
 70
1
 66
1
  0
VERTEX
  8
0
 10
2058.2770963285498
 20
1081.6910364979913
 42
0
  0
VERTEX
  8
0
 10
1863.2770963285498
 20
1081.6910364979913
 42
0
  0
VERTEX
  8
0
 10
1863.2770963285498
 20
881.69103649799126
 42
0
  0
VERTEX
  8
0
 10
2058.2770963285498
 20
881.69103649799126
 42
0
  0
SEQEND
  0
POLYLINE
  8
0
 10
0
 20
0
 39
0
 70
1
 66
1
  0
VERTEX
  8
0
 10
1893.2770963285498
 20
1016.1910364979913
 42
-1
  0
VERTEX
  8
0
 10
1893.2770963285498
 20
997.19103649799126
 42
-1
  0
SEQEND
  0
POLYLINE
  8
0
 10
0
 20
0
 39
0
 70
1
 66
1
  0
VERTEX
  8
0
 10
1893.2770963285498
 20
966.19103649799126
 42
-1
  0
VERTEX
  8
0
 10
1893.2770963285498
 20
947.19103649799126
 42
-1
  0
SEQEND
  0
POLYLINE
  8
0
 10
0
 20
0
 39
0
 70
1
 66
1
  0
VERTEX
  8
0
 10
2631.2770963285498
 20
921.43703649799136
 42
0
  0
VERTEX
  8
0
 10
2436.2770963285498
 20
921.43703649799136
 42
0
  0
VERTEX
  8
0
 10
2436.2770963285498
 20
721.43703649799136
 42
0
  0
VERTEX
  8
0
 10
2631.2770963285498
 20
721.43703649799136
 42
0
  0
SEQEND
  0
POLYLINE
  8
0
 10
0
 20
0
 39
0
 70
1
 66
1
  0
VERTEX
  8
0
 10
2466.2770963285498
 20
855.93703649799136
 42
-1
  0
VERTEX
  8
0
 10
2466.2770963285498
 20
836.93703649799136
 42
-1
  0
SEQEND
  0
POLYLINE
  8
0
 10
0
 20
0
 39
0
 70
1
 66
1
  0
VERTEX
  8
0
 10
2466.2770963285498
 20
805.93703649799136
 42
-1
  0
VERTEX
  8
0
 10
2466.2770963285498
 20
786.93703649799136
 42
-1
  0
SEQEND
  0
POLYLINE
  8
0
 10
0
 20
0
 39
0
 70
1
 66
1
  0
VERTEX
  8
0
 10
2188.8400369423912
 20
210
 42
0
  0
VERTEX
  8
0
 10
1993.8400369423912
 20
210
 42
0
  0
VERTEX
  8
0
 10
1993.8400369423912
 20
10
 42
0
  0
VERTEX
  8
0
 10
2188.8400369423912
 20
10
 42
0
  0
SEQEND
  0
POLYLINE
  8
0
 10
0
 20
0
 39
0
 70
1
 66
1
  0
VERTEX
  8
0
 10
2023.8400369423912
 20
144.5
 42
-1
  0
VERTEX
  8
0
 10
2023.8400369423912
 20
125.5
 42
-1
  0
SEQEND
  0
POLYLINE
  8
0
 10
0
 20
0
 39
0
 70
1
 66
1
  0
VERTEX
  8
0
 10
2023.8400369423912
 20
94.5
 42
-1
  0
VERTEX
  8
0
 10
2023.8400369423912
 20
75.5
 42
-1
  0
SEQEND
  0
POLYLINE
  8
0
 10
0
 20
0
 39
0
 70
1
 66
1
  0
VERTEX
  8
0
 10
1911.5860445717694
 20
661.69103649799138
 42
0
  0
VERTEX
  8
0
 10
1716.5860445717694
 20
661.69103649799138
 42
0
  0
VERTEX
  8
0
 10
1716.5860445717694
 20
461.69103649799138
 42
0
  0
VERTEX
  8
0
 10
1911.5860445717694
 20
461.69103649799138
 42
0
  0
SEQEND
  0
POLYLINE
  8
0
 10
0
 20
0
 39
0
 70
1
 66
1
  0
VERTEX
  8
0
 10
1746.5860445717694
 20
596.19103649799138
 42
-1
  0
VERTEX
  8
0
 10
1746.5860445717694
 20
577.19103649799138
 42
-1
  0
SEQEND
  0
POLYLINE
  8
0
 10
0
 20
0
 39
0
 70
1
 66
1
  0
VERTEX
  8
0
 10
1746.5860445717694
 20
546.19103649799138
 42
-1
  0
VERTEX
  8
0
 10
1746.5860445717694
 20
527.19103649799138
 42
-1
  0
SEQEND
  0
POLYLINE
  8
0
 10
0
 20
0
 39
0
 70
1
 66
1
  0
VERTEX
  8
0
 10
2243.1477453926923
 20
181.74599999999998
 42
0
  0
VERTEX
  8
0
 10
2370.4265444496991
 20
363.51895684814451
 42
0.15391500294208527
  0
VERTEX
  8
0
 10
2374.5860445717694
 20
376.71121759033201
 42
0
  0
VERTEX
  8
0
 10
2374.5860445717694
 20
423.42571801757811
 42
0.31529900431632996
  0
VERTEX
  8
0
 10
2359.4525149086835
 20
445.03864831542967
 42
0
  0
VERTEX
  8
0
 10
2242.1150248268964
 20
487.74599999999998
 42
0
  0
VERTEX
  8
0
 10
2218.5860445717694
 20
487.74599999999998
 42
0
  0
VERTEX
  8
0
 10
2218.5860445717694
 20
181.74599999999998
 42
0
  0
SEQEND
  0
POLYLINE
  8
0
 10
0
 20
0
 39
0
 70
1
 66
1
  0
VERTEX
  8
0
 10
2321.5860445717694
 20
434.24599999999998
 42
-1
  0
VERTEX
  8
0
 10
2321.5860445717694
 20
365.24599999999998
 42
-1
  0
SEQEND
  0
POLYLINE
  8
0
 10
0
 20
0
 39
0
 70
1
 66
1
  0
VERTEX
  8
0
 10
2350.0243437508548
 20
316
 42
0
  0
VERTEX
  8
0
 10
2222.7455446938479
 20
134.22704315185544
 42
0.15391500294208527
  0
VERTEX
  8
0
 10
2218.5860445717776
 20
121.03478240966794
 42
0
  0
VERTEX
  8
0
 10
2218.5860445717776
 20
74.320281982421847
 42
0.31529900431632996
  0
VERTEX
  8
0
 10
2233.7195742348636
 20
52.707351684570284
 42
0
  0
VERTEX
  8
0
 10
2351.0570643166507
 20
9.9999999999999964
 42
0
  0
VERTEX
  8
0
 10
2374.5860445717776
 20
10
 42
0
  0
VERTEX
  8
0
 10
2374.5860445717776
 20
316
 42
0
  0
SEQEND
  0
POLYLINE
  8
0
 10
0
 20
0
 39
0
 70
1
 66
1
  0
VERTEX
  8
0
 10
2271.5860445717776
 20
63.499999999999979
 42
-1
  0
VERTEX
  8
0
 10
2271.5860445717776
 20
132.5
 42
-1
  0
SEQEND
  0
POLYLINE
  8
0
 10
0
 20
0
 39
0
 70
1
 66
1
  0
VERTEX
  8
0
 10
1176.5860445717694
 20
320
 42
0
  0
VERTEX
  8
0
 10
1316.5860445717694
 20
320
 42
-0
  0
VERTEX
  8
0
 10
1396.5860445717694
 20
410
 42
0
  0
VERTEX
  8
0
 10
1396.5860445717694
 20
550
 42
-0
  0
VERTEX
  8
0
 10
1316.5860445717694
 20
640
 42
0
  0
VERTEX
  8
0
 10
1176.5860445717694
 20
640
 42
-0
  0
VERTEX
  8
0
 10
1096.5860445717694
 20
550
 42
0
  0
VERTEX
  8
0
 10
1096.5860445717694
 20
410
 42
0
  0
SEQEND
  0
POLYLINE
  8
0
 10
0
 20
0
 39
0
 70
1
 66
1
  0
VERTEX
  8
0
 10
1208.5860445717694
 20
380
 42
-1
  0
VERTEX
  8
0
 10
1284.5860445717694
 20
380
 42
-1
  0
SEQEND
  0
POLYLINE
  8
0
 10
0
 20
0
 39
0
 70
1
 66
1
  0
VERTEX
  8
0
 10
921.99997711183255
 20
230
 42
0
  0
VERTEX
  8
0
 10
921.99997711183255
 20
90
 42
-0
  0
VERTEX
  8
0
 10
1011.9999771118325
 20
10
 42
0
  0
VERTEX
  8
0
 10
1151.9999771118325
 20
10
 42
-0
  0
VERTEX
  8
0
 10
1241.9999771118325
 20
90.000000000000028
 42
0
  0
VERTEX
  8
0
 10
1241.9999771118325
 20
230
 42
-0
  0
VERTEX
  8
0
 10
1151.9999771118325
 20
310
 42
0
  0
VERTEX
  8
0
 10
1011.9999771118325
 20
310
 42
0
  0
SEQEND
  0
POLYLINE
  8
0
 10
0
 20
0
 39
0
 70
1
 66
1
  0
VERTEX
  8
0
 10
981.99997711183255
 20
198
 42
-1
  0
VERTEX
  8
0
 10
981.99997711183255
 20
122
 42
-1
  0
SEQEND
  0
POLYLINE
  8
0
 10
0
 20
0
 39
0
 70
1
 66
1
  0
VERTEX
  8
0
 10
366.561700820939
 20
637.74599999999998
 42
0
  0
VERTEX
  8
0
 10
493.84049987794583
 20
819.51895684814451
 42
0.15391500294208527
  0
VERTEX
  8
0
 10
498.00000000001614
 20
832.71121759033201
 42
0
  0
VERTEX
  8
0
 10
498.00000000001614
 20
879.42571801757811
 42
0.31529900431632996
  0
VERTEX
  8
0
 10
482.86647033693021
 20
901.03864831542967
 42
0
  0
VERTEX
  8
0
 10
365.5289802551431
 20
943.74599999999998
 42
0
  0
VERTEX
  8
0
 10
342.00000000001614
 20
943.74599999999998
 42
0
  0
VERTEX
  8
0
 10
342.00000000001614
 20
637.74599999999998
 42
0
  0
SEQEND
  0
POLYLINE
  8
0
 10
0
 20
0
 39
0
 70
1
 66
1
  0
VERTEX
  8
0
 10
445.00000000001614
 20
890.24599999999998
 42
-1
  0
VERTEX
  8
0
 10
445.00000000001614
 20
821.24599999999998
 42
-1
  0
SEQEND
  0
POLYLINE
  8
0
 10
0
 20
0
 39
0
 70
1
 66
1
  0
VERTEX
  8
0
 10
473.43829917910131
 20
772
 42
0
  0
VERTEX
  8
0
 10
346.15950012209453
 20
590.22704315185547
 42
0.15391500294208527
  0
VERTEX
  8
0
 10
342.00000000002422
 20
577.03478240966797
 42
0
  0
VERTEX
  8
0
 10
342.00000000002422
 20
530.32028198242187
 42
0.31529900431632996
  0
VERTEX
  8
0
 10
357.13352966311015
 20
508.70735168457031
 42
0
  0
VERTEX
  8
0
 10
474.47101974489726
 20
466
 42
0
  0
VERTEX
  8
0
 10
498.00000000002422
 20
466
 42
0
  0
VERTEX
  8
0
 10
498.00000000002416
 20
772
 42
0
  0
SEQEND
  0
POLYLINE
  8
0
 10
0
 20
0
 39
0
 70
1
 66
1
  0
VERTEX
  8
0
 10
395.00000000002422
 20
519.5
 42
-1
  0
VERTEX
  8
0
 10
395.00000000002422
 20
588.5
 42
-1
  0
SEQEND
  0
POLYLINE
  8
0
 10
0
 20
0
 39
0
 70
1
 66
1
  0
VERTEX
  8
0
 10
1176.5860445717694
 20
650
 42
0
  0
VERTEX
  8
0
 10
1316.5860445717694
 20
650
 42
-0
  0
VERTEX
  8
0
 10
1396.5860445717694
 20
740
 42
0
  0
VERTEX
  8
0
 10
1396.5860445717694
 20
880
 42
-0
  0
VERTEX
  8
0
 10
1316.5860445717694
 20
970
 42
0
  0
VERTEX
  8
0
 10
1176.5860445717694
 20
970
 42
-0
  0
VERTEX
  8
0
 10
1096.5860445717694
 20
880
 42
0
  0
VERTEX
  8
0
 10
1096.5860445717694
 20
740
 42
0
  0
SEQEND
  0
POLYLINE
  8
0
 10
0
 20
0
 39
0
 70
1
 66
1
  0
VERTEX
  8
0
 10
1208.5860445717694
 20
710
 42
-1
  0
VERTEX
  8
0
 10
1284.5860445717694
 20
710
 42
-1
  0
SEQEND
  0
POLYLINE
  8
0
 10
0
 20
0
 39
0
 70
1
 66
1
  0
VERTEX
  8
0
 10
2409.1477453927005
 20
181.74599999999998
 42
0
  0
VERTEX
  8
0
 10
2536.4265444497073
 20
363.51895684814451
 42
0.15391500294208527
  0
VERTEX
  8
0
 10
2540.5860445717776
 20
376.71121759033201
 42
0
  0
VERTEX
  8
0
 10
2540.5860445717776
 20
423.42571801757811
 42
0.31529900431632996
  0
VERTEX
  8
0
 10
2525.4525149086917
 20
445.03864831542967
 42
0
  0
VERTEX
  8
0
 10
2408.1150248269046
 20
487.74599999999998
 42
0
  0
VERTEX
  8
0
 10
2384.5860445717776
 20
487.74599999999998
 42
0
  0
VERTEX
  8
0
 10
2384.5860445717776
 20
181.74599999999998
 42
0
  0
SEQEND
  0
POLYLINE
  8
0
 10
0
 20
0
 39
0
 70
1
 66
1
  0
VERTEX
  8
0
 10
2487.5860445717776
 20
434.24599999999998
 42
-1
  0
VERTEX
  8
0
 10
2487.5860445717776
 20
365.24599999999998
 42
-1
  0
SEQEND
  0
POLYLINE
  8
0
 10
0
 20
0
 39
0
 70
1
 66
1
  0
VERTEX
  8
0
 10
2516.024343750863
 20
316
 42
0
  0
VERTEX
  8
0
 10
2388.7455446938561
 20
134.22704315185544
 42
0.15391500294208527
  0
VERTEX
  8
0
 10
2384.5860445717858
 20
121.03478240966794
 42
0
  0
VERTEX
  8
0
 10
2384.5860445717858
 20
74.320281982421847
 42
0.31529900431632996
  0
VERTEX
  8
0
 10
2399.7195742348717
 20
52.707351684570284
 42
0
  0
VERTEX
  8
0
 10
2517.0570643166589
 20
9.9999999999999964
 42
0
  0
VERTEX
  8
0
 10
2540.5860445717858
 20
10
 42
0
  0
VERTEX
  8
0
 10
2540.5860445717858
 20
316
 42
0
  0
SEQEND
  0
POLYLINE
  8
0
 10
0
 20
0
 39
0
 70
1
 66
1
  0
VERTEX
  8
0
 10
2437.5860445717858
 20
63.499999999999979
 42
-1
  0
VERTEX
  8
0
 10
2437.5860445717858
 20
132.5
 42
-1
  0
SEQEND
  0
POLYLINE
  8
0
 10
0
 20
0
 39
0
 70
1
 66
1
  0
VERTEX
  8
0
 10
1251.9999771118325
 20
230
 42
0
  0
VERTEX
  8
0
 10
1251.9999771118325
 20
90
 42
-0
  0
VERTEX
  8
0
 10
1341.9999771118325
 20
10
 42
0
  0
VERTEX
  8
0
 10
1481.9999771118325
 20
10
 42
-0
  0
VERTEX
  8
0
 10
1571.9999771118325
 20
90.000000000000028
 42
0
  0
VERTEX
  8
0
 10
1571.9999771118325
 20
230
 42
-0
  0
VERTEX
  8
0
 10
1481.9999771118325
 20
310
 42
0
  0
VERTEX
  8
0
 10
1341.9999771118325
 20
310
 42
0
  0
SEQEND
  0
POLYLINE
  8
0
 10
0
 20
0
 39
0
 70
1
 66
1
  0
VERTEX
  8
0
 10
1311.9999771118325
 20
198
 42
-1
  0
VERTEX
  8
0
 10
1311.9999771118325
 20
122
 42
-1
  0
SEQEND
  0
POLYLINE
  8
0
 10
0
 20
0
 39
0
 70
1
 66
1
  0
VERTEX
  8
0
 10
1486.5860445717694
 20
320
 42
0
  0
VERTEX
  8
0
 10
1626.5860445717694
 20
320
 42
-0
  0
VERTEX
  8
0
 10
1706.5860445717694
 20
410
 42
0
  0
VERTEX
  8
0
 10
1706.5860445717694
 20
550
 42
-0
  0
VERTEX
  8
0
 10
1626.5860445717694
 20
640
 42
0
  0
VERTEX
  8
0
 10
1486.5860445717694
 20
640
 42
-0
  0
VERTEX
  8
0
 10
1406.5860445717694
 20
550
 42
0
  0
VERTEX
  8
0
 10
1406.5860445717694
 20
410
 42
0
  0
SEQEND
  0
POLYLINE
  8
0
 10
0
 20
0
 39
0
 70
1
 66
1
  0
VERTEX
  8
0
 10
1518.5860445717694
 20
380
 42
-1
  0
VERTEX
  8
0
 10
1594.5860445717694
 20
380
 42
-1
  0
SEQEND
  0
POLYLINE
  8
0
 10
0
 20
0
 39
0
 70
1
 66
1
  0
VERTEX
  8
0
 10
1486.5860445717694
 20
650
 42
0
  0
VERTEX
  8
0
 10
1626.5860445717694
 20
650
 42
-0
  0
VERTEX
  8
0
 10
1706.5860445717694
 20
740
 42
0
  0
VERTEX
  8
0
 10
1706.5860445717694
 20
880
 42
-0
  0
VERTEX
  8
0
 10
1626.5860445717694
 20
970
 42
0
  0
VERTEX
  8
0
 10
1486.5860445717694
 20
970
 42
-0
  0
VERTEX
  8
0
 10
1406.5860445717694
 20
880
 42
0
  0
VERTEX
  8
0
 10
1406.5860445717694
 20
740
 42
0
  0
SEQEND
  0
POLYLINE
  8
0
 10
0
 20
0
 39
0
 70
1
 66
1
  0
VERTEX
  8
0
 10
1518.5860445717694
 20
710
 42
-1
  0
VERTEX
  8
0
 10
1594.5860445717694
 20
710
 42
-1
  0
SEQEND
  0
POLYLINE
  8
0
 10
0
 20
0
 39
0
 70
1
 66
1
  0
VERTEX
  8
0
 10
316
 20
1010.0537008209227
 42
0
  0
VERTEX
  8
0
 10
134.22704315185547
 20
1137.3324998779294
 42
0.15391500294208527
  0
VERTEX
  8
0
 10
121.03478240966797
 20
1141.4919999999997
 42
0
  0
VERTEX
  8
0
 10
74.320281982421875
 20
1141.4919999999997
 42
0.31529900431632996
  0
VERTEX
  8
0
 10
52.707351684570313
 20
1126.3584703369138
 42
0
  0
VERTEX
  8
0
 10
10
 20
1009.0209802551268
 42
0
  0
VERTEX
  8
0
 10
10
 20
985.49199999999985
 42
0
  0
VERTEX
  8
0
 10
316
 20
985.49199999999985
 42
0
  0
SEQEND
  0
POLYLINE
  8
0
 10
0
 20
0
 39
0
 70
1
 66
1
  0
VERTEX
  8
0
 10
63.5
 20
1088.4919999999997
 42
-1
  0
VERTEX
  8
0
 10
132.5
 20
1088.4919999999997
 42
-1
  0
SEQEND
  0
POLYLINE
  8
0
 10
0
 20
0
 39
0
 70
1
 66
1
  0
VERTEX
  8
0
 10
181.74599999999998
 20
1116.9302991790851
 42
0
  0
VERTEX
  8
0
 10
363.51895684814451
 20
989.65150012207823
 42
0.15391500294208527
  0
VERTEX
  8
0
 10
376.71121759033201
 20
985.49200000000792
 42
0
  0
VERTEX
  8
0
 10
423.42571801757811
 20
985.49200000000792
 42
0.31529900431632996
  0
VERTEX
  8
0
 10
445.03864831542967
 20
1000.6255296630939
 42
0
  0
VERTEX
  8
0
 10
487.74599999999998
 20
1117.963019744881
 42
0
  0
VERTEX
  8
0
 10
487.74599999999998
 20
1141.4920000000079
 42
0
  0
VERTEX
  8
0
 10
181.74599999999998
 20
1141.4920000000079
 42
0
  0
SEQEND
  0
POLYLINE
  8
0
 10
0
 20
0
 39
0
 70
1
 66
1
  0
VERTEX
  8
0
 10
434.24599999999998
 20
1038.4920000000079
 42
-1
  0
VERTEX
  8
0
 10
365.24599999999998
 20
1038.4920000000079
 42
-1
  0
SEQEND
  0
POLYLINE
  8
0
 10
0
 20
0
 39
0
 70
1
 66
1
  0
VERTEX
  8
0
 10
519.99999237062161
 20
100.49960327148437
 42
-0
  0
VERTEX
  8
0
 10
519.99999237062161
 20
349.50037384033203
 42
-0
  0
VERTEX
  8
0
 10
507.1254043579263
 20
425.16866302490234
 42
-0
  0
VERTEX
  8
0
 10
486.99999237062161
 20
439.99998664855957
 42
0
  0
VERTEX
  8
0
 10
467.00000000001614
 20
439.99998664855957
 42
0
  0
VERTEX
  8
0
 10
446.87459564210599
 20
425.16866302490234
 42
0
  0
VERTEX
  8
0
 10
434.00000000001614
 20
349.50037384033203
 42
-0
  0
VERTEX
  8
0
 10
434.00000000001614
 20
100.49960327148437
 42
-0
  0
VERTEX
  8
0
 10
446.87459564210599
 20
24.831298828125
 42
-0
  0
VERTEX
  8
0
 10
467.00000000001614
 20
10
 42
-0
  0
VERTEX
  8
0
 10
486.99999237062161
 20
10
 42
0
  0
VERTEX
  8
0
 10
507.1254043579263
 20
24.831298828125
 42
0
  0
SEQEND
  0
POLYLINE
  8
0
 10
0
 20
0
 39
0
 70
1
 66
1
  0
VERTEX
  8
0
 10
484.99999237062161
 20
121.29452514648437
 42
0
  0
VERTEX
  8
0
 10
469.00000000001614
 20
121.29452514648437
 42
0
  0
VERTEX
  8
0
 10
469.00000000001614
 20
328.70542907714844
 42
-0
  0
VERTEX
  8
0
 10
484.99999237062161
 20
328.70542907714844
 42
0
  0
SEQEND
  0
POLYLINE
  8
0
 10
0
 20
0
 39
0
 70
1
 66
1
  0
VERTEX
  8
0
 10
493.06969451905911
 20
72.533538818359375
 42
-0
  0
VERTEX
  8
0
 10
477.00000000001614
 20
53.382415771484375
 42
0
  0
VERTEX
  8
0
 10
460.93030548097317
 20
72.533538818359375
 42
-0
  0
VERTEX
  8
0
 10
477.00000000001614
 20
91.68463134765625
 42
0
  0
SEQEND
  0
POLYLINE
  8
0
 10
0
 20
0
 39
0
 70
1
 66
1
  0
VERTEX
  8
0
 10
493.06969451905911
 20
377.46644592285156
 42
-0
  0
VERTEX
  8
0
 10
477.00000000001614
 20
358.31533050537109
 42
0
  0
VERTEX
  8
0
 10
460.93030548097317
 20
377.46644592285156
 42
-0
  0
VERTEX
  8
0
 10
477.00000000001614
 20
396.6175537109375
 42
0
  0
SEQEND
  0
POLYLINE
  8
0
 10
0
 20
0
 39
0
 70
1
 66
1
  0
VERTEX
  8
0
 10
34.561700820922866
 20
669.49199999999996
 42
0
  0
VERTEX
  8
0
 10
161.84049987792969
 20
851.26495684814449
 42
0.15391500294208527
  0
VERTEX
  8
0
 10
166
 20
864.45721759033199
 42
0
  0
VERTEX
  8
0
 10
166
 20
911.17171801757809
 42
0.31529900431632996
  0
VERTEX
  8
0
 10
150.86647033691406
 20
932.78464831542965
 42
0
  0
VERTEX
  8
0
 10
33.528980255126953
 20
975.49199999999996
 42
0
  0
VERTEX
  8
0
 10
10
 20
975.49199999999996
 42
0
  0
VERTEX
  8
0
 10
10.000000000000018
 20
669.49199999999996
 42
0
  0
SEQEND
  0
POLYLINE
  8
0
 10
0
 20
0
 39
0
 70
1
 66
1
  0
VERTEX
  8
0
 10
113
 20
921.99199999999996
 42
-1
  0
VERTEX
  8
0
 10
113.00000000000001
 20
852.99199999999996
 42
-1
  0
SEQEND
  0
POLYLINE
  8
0
 10
0
 20
0
 39
0
 70
1
 66
1
  0
VERTEX
  8
0
 10
141.43829917908519
 20
803.74599999999998
 42
0
  0
VERTEX
  8
0
 10
14.159500122078384
 20
621.97304315185545
 42
0.15391500294208527
  0
VERTEX
  8
0
 10
10.000000000008072
 20
608.78078240966795
 42
0
  0
VERTEX
  8
0
 10
10.0000000000081
 20
562.06628198242186
 42
0.31529900431632996
  0
VERTEX
  8
0
 10
25.133529663094038
 20
540.45335168457029
 42
0
  0
VERTEX
  8
0
 10
142.47101974488115
 20
497.74599999999998
 42
0
  0
VERTEX
  8
0
 10
166.0000000000081
 20
497.74599999999998
 42
0
  0
VERTEX
  8
0
 10
166.00000000000804
 20
803.74599999999998
 42
0
  0
SEQEND
  0
POLYLINE
  8
0
 10
0
 20
0
 39
0
 70
1
 66
1
  0
VERTEX
  8
0
 10
63.000000000008086
 20
551.24599999999998
 42
-1
  0
VERTEX
  8
0
 10
63.000000000008072
 20
620.24599999999998
 42
-1
  0
SEQEND
  0
POLYLINE
  8
0
 10
0
 20
0
 39
0
 70
1
 66
1
  0
VERTEX
  8
0
 10
721.99997711183255
 20
310
 42
-0
  0
VERTEX
  8
0
 10
721.99997711183255
 20
55
 42
1
  0
VERTEX
  8
0
 10
811.99997711183255
 20
55
 42
-0
  0
VERTEX
  8
0
 10
811.99997711183255
 20
310
 42
-0
  0
SEQEND
  0
POLYLINE
  8
0
 10
0
 20
0
 39
0
 70
1
 66
1
  0
VERTEX
  8
0
 10
766.99997711183255
 20
85
 42
-1
  0
VERTEX
  8
0
 10
766.99997711183255
 20
25
 42
-1
  0
SEQEND
  0
POLYLINE
  8
0
 10
0
 20
0
 39
0
 70
1
 66
1
  0
VERTEX
  8
0
 10
895.99997711184062
 20
620
 42
-0
  0
VERTEX
  8
0
 10
895.99997711184062
 20
365
 42
1
  0
VERTEX
  8
0
 10
985.99997711184062
 20
365
 42
-0
  0
VERTEX
  8
0
 10
985.99997711184062
 20
620
 42
-0
  0
SEQEND
  0
POLYLINE
  8
0
 10
0
 20
0
 39
0
 70
1
 66
1
  0
VERTEX
  8
0
 10
940.99997711184062
 20
395
 42
-1
  0
VERTEX
  8
0
 10
940.99997711184062
 20
335
 42
-1
  0
SEQEND
  0
POLYLINE
  8
0
 10
0
 20
0
 39
0
 70
1
 66
1
  0
VERTEX
  8
0
 10
615.99998474122708
 20
100.49960327148437
 42
-0
  0
VERTEX
  8
0
 10
615.99998474122708
 20
349.50037384033203
 42
-0
  0
VERTEX
  8
0
 10
603.12539672853177
 20
425.16866302490234
 42
-0
  0
VERTEX
  8
0
 10
582.99998474122708
 20
439.99998664855957
 42
0
  0
VERTEX
  8
0
 10
562.99999237062161
 20
439.99998664855957
 42
0
  0
VERTEX
  8
0
 10
542.87458801271146
 20
425.16866302490234
 42
0
  0
VERTEX
  8
0
 10
529.99999237062161
 20
349.50037384033203
 42
-0
  0
VERTEX
  8
0
 10
529.99999237062161
 20
100.49960327148437
 42
-0
  0
VERTEX
  8
0
 10
542.87458801271146
 20
24.831298828125
 42
-0
  0
VERTEX
  8
0
 10
562.99999237062161
 20
10
 42
-0
  0
VERTEX
  8
0
 10
582.99998474122708
 20
10
 42
0
  0
VERTEX
  8
0
 10
603.12539672853177
 20
24.831298828125
 42
0
  0
SEQEND
  0
POLYLINE
  8
0
 10
0
 20
0
 39
0
 70
1
 66
1
  0
VERTEX
  8
0
 10
580.99998474122708
 20
121.29452514648437
 42
0
  0
VERTEX
  8
0
 10
564.99999237062161
 20
121.29452514648437
 42
0
  0
VERTEX
  8
0
 10
564.99999237062161
 20
328.70542907714844
 42
-0
  0
VERTEX
  8
0
 10
580.99998474122708
 20
328.70542907714844
 42
0
  0
SEQEND
  0
POLYLINE
  8
0
 10
0
 20
0
 39
0
 70
1
 66
1
  0
VERTEX
  8
0
 10
589.06968688966458
 20
72.533538818359375
 42
-0
  0
VERTEX
  8
0
 10
572.99999237062161
 20
53.382415771484375
 42
0
  0
VERTEX
  8
0
 10
556.93029785157864
 20
72.533538818359375
 42
-0
  0
VERTEX
  8
0
 10
572.99999237062161
 20
91.68463134765625
 42
0
  0
SEQEND
  0
POLYLINE
  8
0
 10
0
 20
0
 39
0
 70
1
 66
1
  0
VERTEX
  8
0
 10
589.06968688966458
 20
377.46644592285156
 42
-0
  0
VERTEX
  8
0
 10
572.99999237062161
 20
358.31533050537109
 42
0
  0
VERTEX
  8
0
 10
556.93029785157864
 20
377.46644592285156
 42
-0
  0
VERTEX
  8
0
 10
572.99999237062161
 20
396.6175537109375
 42
0
  0
SEQEND
  0
POLYLINE
  8
0
 10
0
 20
0
 39
0
 70
1
 66
1
  0
VERTEX
  8
0
 10
995.99997711184051
 20
620
 42
-0
  0
VERTEX
  8
0
 10
995.99997711184051
 20
365
 42
1
  0
VERTEX
  8
0
 10
1085.9999771118405
 20
365
 42
-0
  0
VERTEX
  8
0
 10
1085.9999771118405
 20
620
 42
-0
  0
SEQEND
  0
POLYLINE
  8
0
 10
0
 20
0
 39
0
 70
1
 66
1
  0
VERTEX
  8
0
 10
1040.9999771118405
 20
395
 42
-1
  0
VERTEX
  8
0
 10
1040.9999771118405
 20
335
 42
-1
  0
SEQEND
  0
POLYLINE
  8
0
 10
0
 20
0
 39
0
 70
1
 66
1
  0
VERTEX
  8
0
 10
785.99997711184062
 20
540.49958992004395
 42
-0
  0
VERTEX
  8
0
 10
785.99997711184062
 20
789.5003604888916
 42
-0
  0
VERTEX
  8
0
 10
773.12538909914531
 20
865.16864967346191
 42
-0
  0
VERTEX
  8
0
 10
752.99997711184062
 20
879.99997329711914
 42
0
  0
VERTEX
  8
0
 10
732.99998474123515
 20
879.99997329711914
 42
0
  0
VERTEX
  8
0
 10
712.874580383325
 20
865.16864967346191
 42
0
  0
VERTEX
  8
0
 10
699.99998474123515
 20
789.5003604888916
 42
-0
  0
VERTEX
  8
0
 10
699.99998474123515
 20
540.49958992004395
 42
-0
  0
VERTEX
  8
0
 10
712.874580383325
 20
464.83128547668457
 42
-0
  0
VERTEX
  8
0
 10
732.99998474123515
 20
449.99998664855957
 42
-0
  0
VERTEX
  8
0
 10
752.99997711184062
 20
449.99998664855957
 42
0
  0
VERTEX
  8
0
 10
773.12538909914531
 20
464.83128547668457
 42
0
  0
SEQEND
  0
POLYLINE
  8
0
 10
0
 20
0
 39
0
 70
1
 66
1
  0
VERTEX
  8
0
 10
750.99997711184062
 20
561.29451179504395
 42
0
  0
VERTEX
  8
0
 10
734.99998474123515
 20
561.29451179504395
 42
0
  0
VERTEX
  8
0
 10
734.99998474123515
 20
768.70541572570801
 42
-0
  0
VERTEX
  8
0
 10
750.99997711184062
 20
768.70541572570801
 42
0
  0
SEQEND
  0
POLYLINE
  8
0
 10
0
 20
0
 39
0
 70
1
 66
1
  0
VERTEX
  8
0
 10
759.06967926027812
 20
512.53352546691895
 42
-0
  0
VERTEX
  8
0
 10
742.99998474123515
 20
493.38240242004395
 42
0
  0
VERTEX
  8
0
 10
726.93029022219218
 20
512.53352546691895
 42
-0
  0
VERTEX
  8
0
 10
742.99998474123515
 20
531.68461799621582
 42
0
  0
SEQEND
  0
POLYLINE
  8
0
 10
0
 20
0
 39
0
 70
1
 66
1
  0
VERTEX
  8
0
 10
759.06967926027812
 20
817.46643257141113
 42
-0
  0
VERTEX
  8
0
 10
742.99998474123515
 20
798.31531715393066
 42
0
  0
VERTEX
  8
0
 10
726.93029022219218
 20
817.46643257141113
 42
-0
  0
VERTEX
  8
0
 10
742.99998474123515
 20
836.61754035949707
 42
0
  0
SEQEND
  0
POLYLINE
  8
0
 10
0
 20
0
 39
0
 70
1
 66
1
  0
VERTEX
  8
0
 10
704.58605983055861
 20
1189.9999732971191
 42
-0
  0
VERTEX
  8
0
 10
704.58605983055861
 20
934.99997329711914
 42
1
  0
VERTEX
  8
0
 10
794.58605983055861
 20
934.99997329711914
 42
-0
  0
VERTEX
  8
0
 10
794.58605983055861
 20
1189.9999732971191
 42
-0
  0
SEQEND
  0
POLYLINE
  8
0
 10
0
 20
0
 39
0
 70
1
 66
1
  0
VERTEX
  8
0
 10
749.58605983055861
 20
964.99997329711914
 42
-1
  0
VERTEX
  8
0
 10
749.58605983055861
 20
904.99997329711914
 42
-1
  0
SEQEND
  0
POLYLINE
  8
0
 10
0
 20
0
 39
0
 70
1
 66
1
  0
VERTEX
  8
0
 10
200.56170082093095
 20
181.74599999999998
 42
0
  0
VERTEX
  8
0
 10
327.84049987793776
 20
363.51895684814451
 42
0.15391500294208527
  0
VERTEX
  8
0
 10
332.00000000000807
 20
376.71121759033201
 42
0
  0
VERTEX
  8
0
 10
332.00000000000807
 20
423.42571801757811
 42
0.31529900431632996
  0
VERTEX
  8
0
 10
316.86647033692213
 20
445.03864831542967
 42
0
  0
VERTEX
  8
0
 10
199.52898025513502
 20
487.74599999999998
 42
0
  0
VERTEX
  8
0
 10
176.00000000000807
 20
487.74599999999998
 42
0
  0
VERTEX
  8
0
 10
176.0000000000081
 20
181.74599999999998
 42
0
  0
SEQEND
  0
POLYLINE
  8
0
 10
0
 20
0
 39
0
 70
1
 66
1
  0
VERTEX
  8
0
 10
279.00000000000807
 20
434.24599999999998
 42
-1
  0
VERTEX
  8
0
 10
279.00000000000807
 20
365.24599999999998
 42
-1
  0
SEQEND
  0
POLYLINE
  8
0
 10
0
 20
0
 39
0
 70
1
 66
1
  0
VERTEX
  8
0
 10
307.43829917909324
 20
316
 42
0
  0
VERTEX
  8
0
 10
180.15950012208643
 20
134.22704315185544
 42
0.15391500294208527
  0
VERTEX
  8
0
 10
176.00000000001612
 20
121.03478240966794
 42
0
  0
VERTEX
  8
0
 10
176.00000000001614
 20
74.320281982421847
 42
0.31529900431632996
  0
VERTEX
  8
0
 10
191.13352966310208
 20
52.707351684570284
 42
0
  0
VERTEX
  8
0
 10
308.47101974488919
 20
9.9999999999999964
 42
0
  0
VERTEX
  8
0
 10
332.00000000001614
 20
10
 42
0
  0
VERTEX
  8
0
 10
332.00000000001609
 20
316
 42
0
  0
SEQEND
  0
POLYLINE
  8
0
 10
0
 20
0
 39
0
 70
1
 66
1
  0
VERTEX
  8
0
 10
229.00000000001614
 20
63.499999999999979
 42
-1
  0
VERTEX
  8
0
 10
229.00000000001612
 20
132.5
 42
-1
  0
SEQEND
  0
POLYLINE
  8
0
 10
0
 20
0
 39
0
 70
1
 66
1
  0
VERTEX
  8
0
 10
604.58605983055861
 20
1189.9999732971191
 42
-0
  0
VERTEX
  8
0
 10
604.58605983055861
 20
934.99997329711914
 42
1
  0
VERTEX
  8
0
 10
694.58605983055861
 20
934.99997329711914
 42
-0
  0
VERTEX
  8
0
 10
694.58605983055861
 20
1189.9999732971191
 42
-0
  0
SEQEND
  0
POLYLINE
  8
0
 10
0
 20
0
 39
0
 70
1
 66
1
  0
VERTEX
  8
0
 10
649.58605983055861
 20
964.99997329711914
 42
-1
  0
VERTEX
  8
0
 10
649.58605983055861
 20
904.99997329711914
 42
-1
  0
SEQEND
  0
POLYLINE
  8
0
 10
0
 20
0
 39
0
 70
1
 66
1
  0
VERTEX
  8
0
 10
890.58605220116408
 20
720.49960327148437
 42
-0
  0
VERTEX
  8
0
 10
890.58605220116408
 20
969.50037384033203
 42
-0
  0
VERTEX
  8
0
 10
877.71146418846877
 20
1045.1686630249023
 42
-0
  0
VERTEX
  8
0
 10
857.58605220116408
 20
1059.9999866485596
 42
0
  0
VERTEX
  8
0
 10
837.58605983055861
 20
1059.9999866485596
 42
0
  0
VERTEX
  8
0
 10
817.46065547264845
 20
1045.1686630249023
 42
0
  0
VERTEX
  8
0
 10
804.58605983055861
 20
969.50037384033203
 42
-0
  0
VERTEX
  8
0
 10
804.58605983055861
 20
720.49960327148437
 42
-0
  0
VERTEX
  8
0
 10
817.46065547264845
 20
644.831298828125
 42
-0
  0
VERTEX
  8
0
 10
837.58605983055861
 20
630
 42
-0
  0
VERTEX
  8
0
 10
857.58605220116408
 20
630
 42
0
  0
VERTEX
  8
0
 10
877.71146418846877
 20
644.831298828125
 42
0
  0
SEQEND
  0
POLYLINE
  8
0
 10
0
 20
0
 39
0
 70
1
 66
1
  0
VERTEX
  8
0
 10
855.58605220116408
 20
741.29452514648437
 42
0
  0
VERTEX
  8
0
 10
839.58605983055861
 20
741.29452514648437
 42
0
  0
VERTEX
  8
0
 10
839.58605983055861
 20
948.70542907714844
 42
-0
  0
VERTEX
  8
0
 10
855.58605220116408
 20
948.70542907714844
 42
0
  0
SEQEND
  0
POLYLINE
  8
0
 10
0
 20
0
 39
0
 70
1
 66
1
  0
VERTEX
  8
0
 10
863.65575434960158
 20
692.53353881835938
 42
-0
  0
VERTEX
  8
0
 10
847.58605983055861
 20
673.38241577148437
 42
0
  0
VERTEX
  8
0
 10
831.51636531151564
 20
692.53353881835938
 42
-0
  0
VERTEX
  8
0
 10
847.58605983055861
 20
711.68463134765625
 42
0
  0
SEQEND
  0
POLYLINE
  8
0
 10
0
 20
0
 39
0
 70
1
 66
1
  0
VERTEX
  8
0
 10
863.65575434960158
 20
997.46644592285156
 42
-0
  0
VERTEX
  8
0
 10
847.58605983055861
 20
978.31533050537109
 42
0
  0
VERTEX
  8
0
 10
831.51636531151564
 20
997.46644592285156
 42
-0
  0
VERTEX
  8
0
 10
847.58605983055861
 20
1016.6175537109375
 42
0
  0
SEQEND
  0
POLYLINE
  8
0
 10
0
 20
0
 39
0
 70
1
 66
1
  0
VERTEX
  8
0
 10
200.56170082093095
 20
669.49199999999996
 42
0
  0
VERTEX
  8
0
 10
327.84049987793776
 20
851.26495684814449
 42
0.15391500294208527
  0
VERTEX
  8
0
 10
332.00000000000807
 20
864.45721759033199
 42
0
  0
VERTEX
  8
0
 10
332.00000000000807
 20
911.17171801757809
 42
0.31529900431632996
  0
VERTEX
  8
0
 10
316.86647033692213
 20
932.78464831542965
 42
0
  0
VERTEX
  8
0
 10
199.52898025513502
 20
975.49199999999996
 42
0
  0
VERTEX
  8
0
 10
176.00000000000807
 20
975.49199999999996
 42
0
  0
VERTEX
  8
0
 10
176.0000000000081
 20
669.49199999999996
 42
0
  0
SEQEND
  0
POLYLINE
  8
0
 10
0
 20
0
 39
0
 70
1
 66
1
  0
VERTEX
  8
0
 10
279.00000000000807
 20
921.99199999999996
 42
-1
  0
VERTEX
  8
0
 10
279.00000000000807
 20
852.99199999999996
 42
-1
  0
SEQEND
  0
POLYLINE
  8
0
 10
0
 20
0
 39
0
 70
1
 66
1
  0
VERTEX
  8
0
 10
307.43829917909324
 20
803.74599999999998
 42
0
  0
VERTEX
  8
0
 10
180.15950012208643
 20
621.97304315185545
 42
0.15391500294208527
  0
VERTEX
  8
0
 10
176.00000000001612
 20
608.78078240966795
 42
0
  0
VERTEX
  8
0
 10
176.00000000001614
 20
562.06628198242186
 42
0.31529900431632996
  0
VERTEX
  8
0
 10
191.13352966310208
 20
540.45335168457029
 42
0
  0
VERTEX
  8
0
 10
308.47101974488919
 20
497.74599999999998
 42
0
  0
VERTEX
  8
0
 10
332.00000000001614
 20
497.74599999999998
 42
0
  0
VERTEX
  8
0
 10
332.00000000001609
 20
803.74599999999998
 42
0
  0
SEQEND
  0
POLYLINE
  8
0
 10
0
 20
0
 39
0
 70
1
 66
1
  0
VERTEX
  8
0
 10
229.00000000001614
 20
551.24599999999998
 42
-1
  0
VERTEX
  8
0
 10
229.00000000001612
 20
620.24599999999998
 42
-1
  0
SEQEND
  0
POLYLINE
  8
0
 10
0
 20
0
 39
0
 70
1
 66
1
  0
VERTEX
  8
0
 10
34.561700820922866
 20
181.74599999999998
 42
0
  0
VERTEX
  8
0
 10
161.84049987792969
 20
363.51895684814451
 42
0.15391500294208527
  0
VERTEX
  8
0
 10
166
 20
376.71121759033201
 42
0
  0
VERTEX
  8
0
 10
166
 20
423.42571801757811
 42
0.31529900431632996
  0
VERTEX
  8
0
 10
150.86647033691406
 20
445.03864831542967
 42
0
  0
VERTEX
  8
0
 10
33.528980255126953
 20
487.74599999999998
 42
0
  0
VERTEX
  8
0
 10
10
 20
487.74599999999998
 42
0
  0
VERTEX
  8
0
 10
10.000000000000018
 20
181.74599999999998
 42
0
  0
SEQEND
  0
POLYLINE
  8
0
 10
0
 20
0
 39
0
 70
1
 66
1
  0
VERTEX
  8
0
 10
113
 20
434.24599999999998
 42
-1
  0
VERTEX
  8
0
 10
113.00000000000001
 20
365.24599999999998
 42
-1
  0
SEQEND
  0
POLYLINE
  8
0
 10
0
 20
0
 39
0
 70
1
 66
1
  0
VERTEX
  8
0
 10
141.43829917908519
 20
316
 42
0
  0
VERTEX
  8
0
 10
14.159500122078384
 20
134.22704315185544
 42
0.15391500294208527
  0
VERTEX
  8
0
 10
10.000000000008072
 20
121.03478240966794
 42
0
  0
VERTEX
  8
0
 10
10.0000000000081
 20
74.320281982421847
 42
0.31529900431632996
  0
VERTEX
  8
0
 10
25.133529663094038
 20
52.707351684570284
 42
0
  0
VERTEX
  8
0
 10
142.47101974488115
 20
9.9999999999999964
 42
0
  0
VERTEX
  8
0
 10
166.0000000000081
 20
10
 42
0
  0
VERTEX
  8
0
 10
166.00000000000804
 20
316
 42
0
  0
SEQEND
  0
POLYLINE
  8
0
 10
0
 20
0
 39
0
 70
1
 66
1
  0
VERTEX
  8
0
 10
63.000000000008086
 20
63.499999999999979
 42
-1
  0
VERTEX
  8
0
 10
63.000000000008072
 20
132.5
 42
-1
  0
SEQEND
  0
POLYLINE
  8
0
 10
0
 20
0
 39
0
 70
1
 66
1
  0
VERTEX
  8
0
 10
689.99998474123515
 20
540.49958992004395
 42
-0
  0
VERTEX
  8
0
 10
689.99998474123515
 20
789.5003604888916
 42
-0
  0
VERTEX
  8
0
 10
677.12539672853984
 20
865.16864967346191
 42
-0
  0
VERTEX
  8
0
 10
656.99998474123515
 20
879.99997329711914
 42
0
  0
VERTEX
  8
0
 10
636.99999237062968
 20
879.99997329711914
 42
0
  0
VERTEX
  8
0
 10
616.87458801271953
 20
865.16864967346191
 42
0
  0
VERTEX
  8
0
 10
603.99999237062968
 20
789.5003604888916
 42
-0
  0
VERTEX
  8
0
 10
603.99999237062968
 20
540.49958992004395
 42
-0
  0
VERTEX
  8
0
 10
616.87458801271953
 20
464.83128547668457
 42
-0
  0
VERTEX
  8
0
 10
636.99999237062968
 20
449.99998664855957
 42
-0
  0
VERTEX
  8
0
 10
656.99998474123515
 20
449.99998664855957
 42
0
  0
VERTEX
  8
0
 10
677.12539672853984
 20
464.83128547668457
 42
0
  0
SEQEND
  0
POLYLINE
  8
0
 10
0
 20
0
 39
0
 70
1
 66
1
  0
VERTEX
  8
0
 10
654.99998474123515
 20
561.29451179504395
 42
0
  0
VERTEX
  8
0
 10
638.99999237062968
 20
561.29451179504395
 42
0
  0
VERTEX
  8
0
 10
638.99999237062968
 20
768.70541572570801
 42
-0
  0
VERTEX
  8
0
 10
654.99998474123515
 20
768.70541572570801
 42
0
  0
SEQEND
  0
POLYLINE
  8
0
 10
0
 20
0
 39
0
 70
1
 66
1
  0
VERTEX
  8
0
 10
663.06968688967265
 20
512.53352546691895
 42
-0
  0
VERTEX
  8
0
 10
646.99999237062968
 20
493.38240242004395
 42
0
  0
VERTEX
  8
0
 10
630.93029785158672
 20
512.53352546691895
 42
-0
  0
VERTEX
  8
0
 10
646.99999237062968
 20
531.68461799621582
 42
0
  0
SEQEND
  0
POLYLINE
  8
0
 10
0
 20
0
 39
0
 70
1
 66
1
  0
VERTEX
  8
0
 10
663.06968688967265
 20
817.46643257141113
 42
-0
  0
VERTEX
  8
0
 10
646.99999237062968
 20
798.31531715393066
 42
0
  0
VERTEX
  8
0
 10
630.93029785158672
 20
817.46643257141113
 42
-0
  0
VERTEX
  8
0
 10
646.99999237062968
 20
836.61754035949707
 42
0
  0
SEQEND
  0
POLYLINE
  8
0
 10
0
 20
0
 39
0
 70
1
 66
1
  0
VERTEX
  8
0
 10
711.99997711183255
 20
100.49960327148437
 42
-0
  0
VERTEX
  8
0
 10
711.99997711183255
 20
349.50037384033203
 42
-0
  0
VERTEX
  8
0
 10
699.12538909913724
 20
425.16866302490234
 42
-0
  0
VERTEX
  8
0
 10
678.99997711183255
 20
439.99998664855957
 42
0
  0
VERTEX
  8
0
 10
658.99998474122708
 20
439.99998664855957
 42
0
  0
VERTEX
  8
0
 10
638.87458038331692
 20
425.16866302490234
 42
0
  0
VERTEX
  8
0
 10
625.99998474122708
 20
349.50037384033203
 42
-0
  0
VERTEX
  8
0
 10
625.99998474122708
 20
100.49960327148437
 42
-0
  0
VERTEX
  8
0
 10
638.87458038331692
 20
24.831298828125
 42
-0
  0
VERTEX
  8
0
 10
658.99998474122708
 20
10
 42
-0
  0
VERTEX
  8
0
 10
678.99997711183255
 20
10
 42
0
  0
VERTEX
  8
0
 10
699.12538909913724
 20
24.831298828125
 42
0
  0
SEQEND
  0
POLYLINE
  8
0
 10
0
 20
0
 39
0
 70
1
 66
1
  0
VERTEX
  8
0
 10
676.99997711183255
 20
121.29452514648437
 42
0
  0
VERTEX
  8
0
 10
660.99998474122708
 20
121.29452514648437
 42
0
  0
VERTEX
  8
0
 10
660.99998474122708
 20
328.70542907714844
 42
-0
  0
VERTEX
  8
0
 10
676.99997711183255
 20
328.70542907714844
 42
0
  0
SEQEND
  0
POLYLINE
  8
0
 10
0
 20
0
 39
0
 70
1
 66
1
  0
VERTEX
  8
0
 10
685.06967926027005
 20
72.533538818359375
 42
-0
  0
VERTEX
  8
0
 10
668.99998474122708
 20
53.382415771484375
 42
0
  0
VERTEX
  8
0
 10
652.93029022218411
 20
72.533538818359375
 42
-0
  0
VERTEX
  8
0
 10
668.99998474122708
 20
91.68463134765625
 42
0
  0
SEQEND
  0
POLYLINE
  8
0
 10
0
 20
0
 39
0
 70
1
 66
1
  0
VERTEX
  8
0
 10
685.06967926027005
 20
377.46644592285156
 42
-0
  0
VERTEX
  8
0
 10
668.99998474122708
 20
358.31533050537109
 42
0
  0
VERTEX
  8
0
 10
652.93029022218411
 20
377.46644592285156
 42
-0
  0
VERTEX
  8
0
 10
668.99998474122708
 20
396.6175537109375
 42
0
  0
SEQEND
  0
POLYLINE
  8
0
 10
0
 20
0
 39
0
 70
1
 66
1
  0
VERTEX
  8
0
 10
795.99997711184062
 20
620
 42
-0
  0
VERTEX
  8
0
 10
795.99997711184062
 20
365
 42
1
  0
VERTEX
  8
0
 10
885.99997711184062
 20
365
 42
-0
  0
VERTEX
  8
0
 10
885.99997711184062
 20
620
 42
-0
  0
SEQEND
  0
POLYLINE
  8
0
 10
0
 20
0
 39
0
 70
1
 66
1
  0
VERTEX
  8
0
 10
840.99997711184062
 20
395
 42
-1
  0
VERTEX
  8
0
 10
840.99997711184062
 20
335
 42
-1
  0
SEQEND
  0
POLYLINE
  8
0
 10
0
 20
0
 39
0
 70
1
 66
1
  0
VERTEX
  8
0
 10
804.5860598305585
 20
1069.9999866485596
 42
-0
  0
VERTEX
  8
0
 10
1059.5860598305585
 20
1069.9999866485596
 42
1
  0
VERTEX
  8
0
 10
1059.5860598305585
 20
1159.9999866485596
 42
-0
  0
VERTEX
  8
0
 10
804.5860598305585
 20
1159.9999866485596
 42
-0
  0
SEQEND
  0
POLYLINE
  8
0
 10
0
 20
0
 39
0
 70
1
 66
1
  0
VERTEX
  8
0
 10
1029.5860598305585
 20
1114.9999866485596
 42
-1
  0
VERTEX
  8
0
 10
1089.5860598305585
 20
1114.9999866485596
 42
-1
  0
SEQEND
  0
POLYLINE
  8
0
 10
0
 20
0
 39
0
 70
1
 66
1
  0
VERTEX
  8
0
 10
593.99999237062968
 20
540.49958992004395
 42
-0
  0
VERTEX
  8
0
 10
593.99999237062968
 20
789.5003604888916
 42
-0
  0
VERTEX
  8
0
 10
581.12540435793437
 20
865.16864967346191
 42
-0
  0
VERTEX
  8
0
 10
560.99999237062968
 20
879.99997329711914
 42
0
  0
VERTEX
  8
0
 10
541.00000000002422
 20
879.99997329711914
 42
0
  0
VERTEX
  8
0
 10
520.87459564211406
 20
865.16864967346191
 42
0
  0
VERTEX
  8
0
 10
508.00000000002422
 20
789.5003604888916
 42
-0
  0
VERTEX
  8
0
 10
508.00000000002422
 20
540.49958992004395
 42
-0
  0
VERTEX
  8
0
 10
520.87459564211406
 20
464.83128547668457
 42
-0
  0
VERTEX
  8
0
 10
541.00000000002422
 20
449.99998664855957
 42
-0
  0
VERTEX
  8
0
 10
560.99999237062968
 20
449.99998664855957
 42
0
  0
VERTEX
  8
0
 10
581.12540435793437
 20
464.83128547668457
 42
0
  0
SEQEND
  0
POLYLINE
  8
0
 10
0
 20
0
 39
0
 70
1
 66
1
  0
VERTEX
  8
0
 10
558.99999237062968
 20
561.29451179504395
 42
0
  0
VERTEX
  8
0
 10
543.00000000002422
 20
561.29451179504395
 42
0
  0
VERTEX
  8
0
 10
543.00000000002422
 20
768.70541572570801
 42
-0
  0
VERTEX
  8
0
 10
558.99999237062968
 20
768.70541572570801
 42
0
  0
SEQEND
  0
POLYLINE
  8
0
 10
0
 20
0
 39
0
 70
1
 66
1
  0
VERTEX
  8
0
 10
567.06969451906718
 20
512.53352546691895
 42
-0
  0
VERTEX
  8
0
 10
551.00000000002422
 20
493.38240242004395
 42
0
  0
VERTEX
  8
0
 10
534.93030548098125
 20
512.53352546691895
 42
-0
  0
VERTEX
  8
0
 10
551.00000000002422
 20
531.68461799621582
 42
0
  0
SEQEND
  0
POLYLINE
  8
0
 10
0
 20
0
 39
0
 70
1
 66
1
  0
VERTEX
  8
0
 10
567.06969451906718
 20
817.46643257141113
 42
-0
  0
VERTEX
  8
0
 10
551.00000000002422
 20
798.31531715393066
 42
0
  0
VERTEX
  8
0
 10
534.93030548098125
 20
817.46643257141113
 42
-0
  0
VERTEX
  8
0
 10
551.00000000002422
 20
836.61754035949707
 42
0
  0
SEQEND
  0
POLYLINE
  8
0
 10
0
 20
0
 39
0
 70
1
 66
1
  0
VERTEX
  8
0
 10
986.58604457176955
 20
720.49960327148437
 42
-0
  0
VERTEX
  8
0
 10
986.58604457176955
 20
969.50037384033203
 42
-0
  0
VERTEX
  8
0
 10
973.71145655907424
 20
1045.1686630249023
 42
-0
  0
VERTEX
  8
0
 10
953.58604457176955
 20
1059.9999866485596
 42
0
  0
VERTEX
  8
0
 10
933.58605220116408
 20
1059.9999866485596
 42
0
  0
VERTEX
  8
0
 10
913.46064784325392
 20
1045.1686630249023
 42
0
  0
VERTEX
  8
0
 10
900.58605220116408
 20
969.50037384033203
 42
-0
  0
VERTEX
  8
0
 10
900.58605220116408
 20
720.49960327148437
 42
-0
  0
VERTEX
  8
0
 10
913.46064784325392
 20
644.831298828125
 42
-0
  0
VERTEX
  8
0
 10
933.58605220116408
 20
630
 42
-0
  0
VERTEX
  8
0
 10
953.58604457176955
 20
630
 42
0
  0
VERTEX
  8
0
 10
973.71145655907424
 20
644.831298828125
 42
0
  0
SEQEND
  0
POLYLINE
  8
0
 10
0
 20
0
 39
0
 70
1
 66
1
  0
VERTEX
  8
0
 10
951.58604457176955
 20
741.29452514648437
 42
0
  0
VERTEX
  8
0
 10
935.58605220116408
 20
741.29452514648437
 42
0
  0
VERTEX
  8
0
 10
935.58605220116408
 20
948.70542907714844
 42
-0
  0
VERTEX
  8
0
 10
951.58604457176955
 20
948.70542907714844
 42
0
  0
SEQEND
  0
POLYLINE
  8
0
 10
0
 20
0
 39
0
 70
1
 66
1
  0
VERTEX
  8
0
 10
959.65574672020705
 20
692.53353881835938
 42
-0
  0
VERTEX
  8
0
 10
943.58605220116408
 20
673.38241577148437
 42
0
  0
VERTEX
  8
0
 10
927.51635768212111
 20
692.53353881835938
 42
-0
  0
VERTEX
  8
0
 10
943.58605220116408
 20
711.68463134765625
 42
0
  0
SEQEND
  0
POLYLINE
  8
0
 10
0
 20
0
 39
0
 70
1
 66
1
  0
VERTEX
  8
0
 10
959.65574672020705
 20
997.46644592285156
 42
-0
  0
VERTEX
  8
0
 10
943.58605220116408
 20
978.31533050537109
 42
0
  0
VERTEX
  8
0
 10
927.51635768212111
 20
997.46644592285156
 42
-0
  0
VERTEX
  8
0
 10
943.58605220116408
 20
1016.6175537109375
 42
0
  0
SEQEND
  0
POLYLINE
  8
0
 10
0
 20
0
 39
0
 70
1
 66
1
  0
VERTEX
  8
0
 10
1717.2601322618332
 20
699.09524399506677
 42
0.91633117198944092
  0
VERTEX
  8
0
 10
1758.6495365587082
 20
684.66572434174645
 42
0
  0
VERTEX
  8
0
 10
1807.7046055284347
 20
793.71637589203942
 42
0.62152963876724243
  0
VERTEX
  8
0
 10
1733.5515980211105
 20
883.65725857483972
 42
0.65655827522277832
  0
VERTEX
  8
0
 10
1726.4042753663864
 20
843.921534125682
 42
-0.10101121664047241
  0
VERTEX
  8
0
 10
1737.6856731859054
 20
832.57763535248864
 42
0
  0
VERTEX
  8
0
 10
1746.1660446611252
 20
837.32104355561364
 42
0
  0
VERTEX
  8
0
 10
1754.7636455980148
 20
803.39345413910974
 42
-0
  0
VERTEX
  8
0
 10
1743.6261600938644
 20
803.54508835541833
 42
-0.017638612538576126
  0
VERTEX
  8
0
 10
1743.0299992051926
 20
800.7874894784652
 42
-0
  0
SEQEND
  0
POLYLINE
  8
0
 10
0
 20
0
 39
0
 70
1
 66
1
  0
VERTEX
  8
0
 10
1738.5860447374191
 20
870.24104172455895
 42
-1
  0
VERTEX
  8
0
 10
1738.5860447374191
 20
854.24104172455895
 42
-1
  0
SEQEND
  0
POLYLINE
  8
0
 10
0
 20
0
 39
0
 70
1
 66
1
  0
VERTEX
  8
0
 10
1738.5860447374191
 20
701.69103867280114
 42
-1
  0
VERTEX
  8
0
 10
1738.5860447374191
 20
685.69103867280114
 42
-1
  0
SEQEND
  0
POLYLINE
  8
0
 10
0
 20
0
 39
0
 70
1
 66
1
  0
VERTEX
  8
0
 10
821.99997711183255
 20
310
 42
-0
  0
VERTEX
  8
0
 10
821.99997711183255
 20
55
 42
1
  0
VERTEX
  8
0
 10
911.99997711183255
 20
55
 42
-0
  0
VERTEX
  8
0
 10
911.99997711183255
 20
310
 42
-0
  0
SEQEND
  0
POLYLINE
  8
0
 10
0
 20
0
 39
0
 70
1
 66
1
  0
VERTEX
  8
0
 10
866.99997711183255
 20
85
 42
-1
  0
VERTEX
  8
0
 10
866.99997711183255
 20
25
 42
-1
  0
SEQEND
  0
POLYLINE
  8
0
 10
0
 20
0
 39
0
 70
1
 66
1
  0
VERTEX
  8
0
 10
996.58604457176943
 20
930
 42
-0
  0
VERTEX
  8
0
 10
996.58604457176943
 20
675
 42
1
  0
VERTEX
  8
0
 10
1086.5860445717694
 20
675
 42
-0
  0
VERTEX
  8
0
 10
1086.5860445717694
 20
930
 42
-0
  0
SEQEND
  0
POLYLINE
  8
0
 10
0
 20
0
 39
0
 70
1
 66
1
  0
VERTEX
  8
0
 10
1041.5860445717694
 20
705
 42
-1
  0
VERTEX
  8
0
 10
1041.5860445717694
 20
645
 42
-1
  0
SEQEND
  0
POLYLINE
  8
0
 10
0
 20
0
 39
0
 70
1
 66
1
  0
VERTEX
  8
0
 10
1581.9999771118325
 20
310
 42
-0
  0
VERTEX
  8
0
 10
1581.9999771118325
 20
55
 42
1
  0
VERTEX
  8
0
 10
1671.9999771118325
 20
55
 42
-0
  0
VERTEX
  8
0
 10
1671.9999771118325
 20
310
 42
-0
  0
SEQEND
  0
POLYLINE
  8
0
 10
0
 20
0
 39
0
 70
1
 66
1
  0
VERTEX
  8
0
 10
1626.9999771118325
 20
85
 42
-1
  0
VERTEX
  8
0
 10
1626.9999771118325
 20
25
 42
-1
  0
SEQEND
  0
ENDSEC
  0
EOF
