  0
SECTION
  2
ENTITIES
  0
POLYLINE
  8
0
 10
0
 20
0
 39
0
 70
1
 66
1
  0
VERTEX
  8
0
 10
0
 20
0
 42
-0
  0
VERTEX
  8
0
 10
2500
 20
0
 42
-0
  0
VERTEX
  8
0
 10
2500
 20
1200
 42
-0
  0
VERTEX
  8
0
 10
0
 20
1200
 42
-0
  0
SEQEND
  0
POLYLINE
  8
0
 10
0
 20
0
 39
0
 70
1
 66
1
  0
VERTEX
  8
0
 10
32.417671203613281
 20
233.76045227050781
 42
1.0733143091201782
  0
VERTEX
  8
0
 10
632.42303466796875
 20
479.49539184570312
 42
-0
  0
VERTEX
  8
0
 10
665.1458740234375
 20
728.05010986328125
 42
-0
  0
VERTEX
  8
0
 10
456.94247436523437
 20
755.46063232421875
 42
0.55846434831619263
  0
SEQEND
  0
POLYLINE
  8
0
 10
0
 20
0
 39
0
 70
1
 66
1
  0
VERTEX
  8
0
 10
613.76800537109375
 20
299.4898681640625
 42
-1
  0
VERTEX
  8
0
 10
68.473335266113281
 20
371.27926635742187
 42
-1
  0
SEQEND
  0
POLYLINE
  8
0
 10
0
 20
0
 39
0
 70
1
 66
1
  0
VERTEX
  8
0
 10
1280.4337158203125
 20
966.2332763671875
 42
1.0733143091201782
  0
VERTEX
  8
0
 10
680.4283447265625
 20
720.49835205078125
 42
-0
  0
VERTEX
  8
0
 10
647.70550537109375
 20
471.94363403320312
 42
-0
  0
VERTEX
  8
0
 10
855.908935546875
 20
444.53311157226563
 42
0.55846434831619263
  0
SEQEND
  0
POLYLINE
  8
0
 10
0
 20
0
 39
0
 70
1
 66
1
  0
VERTEX
  8
0
 10
699.0833740234375
 20
900.50384521484375
 42
-1
  0
VERTEX
  8
0
 10
1244.3780517578125
 20
828.7144775390625
 42
-1
  0
SEQEND
  0
POLYLINE
  8
0
 10
0
 20
0
 39
0
 70
1
 66
1
  0
VERTEX
  8
0
 10
1180.879150390625
 20
233.76045227050781
 42
1.0733143091201782
  0
VERTEX
  8
0
 10
1780.8846435546875
 20
479.49539184570312
 42
-0
  0
VERTEX
  8
0
 10
1813.607421875
 20
728.05010986328125
 42
-0
  0
VERTEX
  8
0
 10
1605.404052734375
 20
755.46063232421875
 42
0.55846434831619263
  0
SEQEND
  0
POLYLINE
  8
0
 10
0
 20
0
 39
0
 70
1
 66
1
  0
VERTEX
  8
0
 10
1762.2296142578125
 20
299.4898681640625
 42
-1
  0
VERTEX
  8
0
 10
1216.934814453125
 20
371.27926635742187
 42
-1
  0
SEQEND
  0
POLYLINE
  8
0
 10
0
 20
0
 39
0
 70
1
 66
1
  0
VERTEX
  8
0
 10
168.57183837890625
 20
1031.921630859375
 42
1
  0
VERTEX
  8
0
 10
167.1973876953125
 20
716.924560546875
 42
1
  0
SEQEND
  0
POLYLINE
  8
0
 10
0
 20
0
 39
0
 70
1
 66
1
  0
VERTEX
  8
0
 10
168.38639831542969
 20
989.4219970703125
 42
-1
  0
VERTEX
  8
0
 10
167.38282775878906
 20
759.4241943359375
 42
-1
  0
SEQEND
  0
POLYLINE
  8
0
 10
0
 20
0
 39
0
 70
1
 66
1
  0
VERTEX
  8
0
 10
234.91798400878906
 20
489.03695678710937
 42
1
  0
VERTEX
  8
0
 10
233.54354858398437
 20
174.03996276855469
 42
1
  0
SEQEND
  0
POLYLINE
  8
0
 10
0
 20
0
 39
0
 70
1
 66
1
  0
VERTEX
  8
0
 10
234.7325439453125
 20
446.537353515625
 42
-1
  0
VERTEX
  8
0
 10
233.72898864746094
 20
216.53955078125
 42
-1
  0
SEQEND
  0
POLYLINE
  8
0
 10
0
 20
0
 39
0
 70
1
 66
1
  0
VERTEX
  8
0
 10
453.3795166015625
 20
1189.6138916015625
 42
1
  0
VERTEX
  8
0
 10
452.00509643554687
 20
874.61688232421875
 42
1
  0
SEQEND
  0
POLYLINE
  8
0
 10
0
 20
0
 39
0
 70
1
 66
1
  0
VERTEX
  8
0
 10
453.194091796875
 20
1147.1142578125
 42
-1
  0
VERTEX
  8
0
 10
452.19052124023437
 20
917.116455078125
 42
-1
  0
SEQEND
  0
POLYLINE
  8
0
 10
0
 20
0
 39
0
 70
1
 66
1
  0
VERTEX
  8
0
 10
805.68719482421875
 20
325.38311767578125
 42
1
  0
VERTEX
  8
0
 10
804.31280517578125
 20
10.386114120483398
 42
1
  0
SEQEND
  0
POLYLINE
  8
0
 10
0
 20
0
 39
0
 70
1
 66
1
  0
VERTEX
  8
0
 10
805.50177001953125
 20
282.88351440429687
 42
-1
  0
VERTEX
  8
0
 10
804.49822998046875
 20
52.885707855224609
 42
-1
  0
SEQEND
  0
POLYLINE
  8
0
 10
0
 20
0
 39
0
 70
1
 66
1
  0
VERTEX
  8
0
 10
865.49493408203125
 20
1018.8446655273438
 42
1
  0
VERTEX
  8
0
 10
864.1204833984375
 20
703.84765625
 42
1
  0
SEQEND
  0
POLYLINE
  8
0
 10
0
 20
0
 39
0
 70
1
 66
1
  0
VERTEX
  8
0
 10
865.3094482421875
 20
976.34503173828125
 42
-1
  0
VERTEX
  8
0
 10
864.305908203125
 20
746.34722900390625
 42
-1
  0
SEQEND
  0
POLYLINE
  8
0
 10
0
 20
0
 39
0
 70
1
 66
1
  0
VERTEX
  8
0
 10
1383.3795166015625
 20
489.03695678710937
 42
1
  0
VERTEX
  8
0
 10
1382.005126953125
 20
174.03996276855469
 42
1
  0
SEQEND
  0
POLYLINE
  8
0
 10
0
 20
0
 39
0
 70
1
 66
1
  0
VERTEX
  8
0
 10
1383.194091796875
 20
446.537353515625
 42
-1
  0
VERTEX
  8
0
 10
1382.1905517578125
 20
216.53955078125
 42
-1
  0
SEQEND
  0
POLYLINE
  8
0
 10
0
 20
0
 39
0
 70
1
 66
1
  0
VERTEX
  8
0
 10
1436.07177734375
 20
1189.80615234375
 42
1
  0
VERTEX
  8
0
 10
1434.6973876953125
 20
874.8092041015625
 42
1
  0
SEQEND
  0
POLYLINE
  8
0
 10
0
 20
0
 39
0
 70
1
 66
1
  0
VERTEX
  8
0
 10
1435.8863525390625
 20
1147.306640625
 42
-1
  0
VERTEX
  8
0
 10
1434.8828125
 20
917.30877685546875
 42
-1
  0
SEQEND
  0
POLYLINE
  8
0
 10
0
 20
0
 39
0
 70
1
 66
1
  0
VERTEX
  8
0
 10
1737.0333251953125
 20
1065.383056640625
 42
1
  0
VERTEX
  8
0
 10
1735.658935546875
 20
750.3861083984375
 42
1
  0
SEQEND
  0
POLYLINE
  8
0
 10
0
 20
0
 39
0
 70
1
 66
1
  0
VERTEX
  8
0
 10
1736.847900390625
 20
1022.883544921875
 42
-1
  0
VERTEX
  8
0
 10
1735.8443603515625
 20
792.88568115234375
 42
-1
  0
SEQEND
  0
POLYLINE
  8
0
 10
0
 20
0
 39
0
 70
1
 66
1
  0
VERTEX
  8
0
 10
1824.8077392578125
 20
37.291000366210938
 42
0.47935917973518372
  0
VERTEX
  8
0
 10
1937.0675048828125
 20
37.291000366210938
 42
-0
  0
VERTEX
  8
0
 10
1937.0675048828125
 20
196.28228759765625
 42
-0
  0
VERTEX
  8
0
 10
1901.9376220703125
 20
196.28228759765625
 42
-0
  0
VERTEX
  8
0
 10
1901.9376220703125
 20
236.28228759765625
 42
-0
  0
VERTEX
  8
0
 10
1937.0675048828125
 20
236.28228759765625
 42
-0
  0
VERTEX
  8
0
 10
1937.0675048828125
 20
478.72222900390625
 42
-0
  0
VERTEX
  8
0
 10
1901.9376220703125
 20
478.72222900390625
 42
-0
  0
VERTEX
  8
0
 10
1901.9376220703125
 20
518.72222900390625
 42
-0
  0
VERTEX
  8
0
 10
1937.0675048828125
 20
518.72222900390625
 42
-0
  0
VERTEX
  8
0
 10
1937.0675048828125
 20
677.87396240234375
 42
0.47935917973518372
  0
VERTEX
  8
0
 10
1824.8077392578125
 20
677.87396240234375
 42
0
  0
VERTEX
  8
0
 10
1824.8077392578125
 20
518.72222900390625
 42
0
  0
VERTEX
  8
0
 10
1859.9376220703125
 20
518.72222900390625
 42
0
  0
VERTEX
  8
0
 10
1859.9376220703125
 20
478.72222900390625
 42
0
  0
VERTEX
  8
0
 10
1824.8077392578125
 20
478.72222900390625
 42
0
  0
VERTEX
  8
0
 10
1824.8077392578125
 20
236.28228759765625
 42
0
  0
VERTEX
  8
0
 10
1859.9376220703125
 20
236.28228759765625
 42
0
  0
VERTEX
  8
0
 10
1859.9376220703125
 20
196.28228759765625
 42
0
  0
VERTEX
  8
0
 10
1824.8077392578125
 20
196.28228759765625
 42
0
  0
SEQEND
  0
POLYLINE
  8
0
 10
0
 20
0
 39
0
 70
1
 66
1
  0
VERTEX
  8
0
 10
1880.9376220703125
 20
321.63229370117187
 42
-1
  0
VERTEX
  8
0
 10
1880.9376220703125
 20
385.63229370117187
 42
-1
  0
SEQEND
  0
POLYLINE
  8
0
 10
0
 20
0
 39
0
 70
1
 66
1
  0
VERTEX
  8
0
 10
1947.3077392578125
 20
37.291000366210938
 42
0.47935917973518372
  0
VERTEX
  8
0
 10
2059.5673828125
 20
37.291000366210938
 42
-0
  0
VERTEX
  8
0
 10
2059.5673828125
 20
196.28228759765625
 42
-0
  0
VERTEX
  8
0
 10
2024.4376220703125
 20
196.28228759765625
 42
-0
  0
VERTEX
  8
0
 10
2024.4376220703125
 20
236.28228759765625
 42
-0
  0
VERTEX
  8
0
 10
2059.5673828125
 20
236.28228759765625
 42
-0
  0
VERTEX
  8
0
 10
2059.5673828125
 20
478.72222900390625
 42
-0
  0
VERTEX
  8
0
 10
2024.4376220703125
 20
478.72222900390625
 42
-0
  0
VERTEX
  8
0
 10
2024.4376220703125
 20
518.72222900390625
 42
-0
  0
VERTEX
  8
0
 10
2059.5673828125
 20
518.72222900390625
 42
-0
  0
VERTEX
  8
0
 10
2059.5673828125
 20
677.87396240234375
 42
0.47935917973518372
  0
VERTEX
  8
0
 10
1947.3077392578125
 20
677.87396240234375
 42
0
  0
VERTEX
  8
0
 10
1947.3077392578125
 20
518.72222900390625
 42
0
  0
VERTEX
  8
0
 10
1982.4376220703125
 20
518.72222900390625
 42
0
  0
VERTEX
  8
0
 10
1982.4376220703125
 20
478.72222900390625
 42
0
  0
VERTEX
  8
0
 10
1947.3077392578125
 20
478.72222900390625
 42
0
  0
VERTEX
  8
0
 10
1947.3077392578125
 20
236.28228759765625
 42
0
  0
VERTEX
  8
0
 10
1982.4376220703125
 20
236.28228759765625
 42
0
  0
VERTEX
  8
0
 10
1982.4376220703125
 20
196.28228759765625
 42
0
  0
VERTEX
  8
0
 10
1947.3077392578125
 20
196.28228759765625
 42
0
  0
SEQEND
  0
POLYLINE
  8
0
 10
0
 20
0
 39
0
 70
1
 66
1
  0
VERTEX
  8
0
 10
2003.4376220703125
 20
321.63229370117187
 42
-1
  0
VERTEX
  8
0
 10
2003.4376220703125
 20
385.63229370117187
 42
-1
  0
SEQEND
  0
POLYLINE
  8
0
 10
0
 20
0
 39
0
 70
1
 66
1
  0
VERTEX
  8
0
 10
2069.8076171875
 20
37.291000366210938
 42
0.47935917973518372
  0
VERTEX
  8
0
 10
2182.0673828125
 20
37.291000366210938
 42
-0
  0
VERTEX
  8
0
 10
2182.0673828125
 20
196.28228759765625
 42
-0
  0
VERTEX
  8
0
 10
2146.9375
 20
196.28228759765625
 42
-0
  0
VERTEX
  8
0
 10
2146.9375
 20
236.28228759765625
 42
-0
  0
VERTEX
  8
0
 10
2182.0673828125
 20
236.28228759765625
 42
-0
  0
VERTEX
  8
0
 10
2182.0673828125
 20
478.72222900390625
 42
-0
  0
VERTEX
  8
0
 10
2146.9375
 20
478.72222900390625
 42
-0
  0
VERTEX
  8
0
 10
2146.9375
 20
518.72222900390625
 42
-0
  0
VERTEX
  8
0
 10
2182.0673828125
 20
518.72222900390625
 42
-0
  0
VERTEX
  8
0
 10
2182.0673828125
 20
677.87396240234375
 42
0.47935917973518372
  0
VERTEX
  8
0
 10
2069.8076171875
 20
677.87396240234375
 42
0
  0
VERTEX
  8
0
 10
2069.8076171875
 20
518.72222900390625
 42
0
  0
VERTEX
  8
0
 10
2104.9375
 20
518.72222900390625
 42
0
  0
VERTEX
  8
0
 10
2104.9375
 20
478.72222900390625
 42
0
  0
VERTEX
  8
0
 10
2069.8076171875
 20
478.72222900390625
 42
0
  0
VERTEX
  8
0
 10
2069.8076171875
 20
236.28228759765625
 42
0
  0
VERTEX
  8
0
 10
2104.9375
 20
236.28228759765625
 42
0
  0
VERTEX
  8
0
 10
2104.9375
 20
196.28228759765625
 42
0
  0
VERTEX
  8
0
 10
2069.8076171875
 20
196.28228759765625
 42
0
  0
SEQEND
  0
POLYLINE
  8
0
 10
0
 20
0
 39
0
 70
1
 66
1
  0
VERTEX
  8
0
 10
2125.9375
 20
321.63229370117187
 42
-1
  0
VERTEX
  8
0
 10
2125.9375
 20
385.63229370117187
 42
-1
  0
SEQEND
  0
POLYLINE
  8
0
 10
0
 20
0
 39
0
 70
1
 66
1
  0
VERTEX
  8
0
 10
2248.643310546875
 20
1077.1153564453125
 42
0.47935917973518372
  0
VERTEX
  8
0
 10
2248.643310546875
 20
1189.375244140625
 42
-0
  0
VERTEX
  8
0
 10
2089.65185546875
 20
1189.375244140625
 42
-0
  0
VERTEX
  8
0
 10
2089.65185546875
 20
1154.2452392578125
 42
-0
  0
VERTEX
  8
0
 10
2049.65185546875
 20
1154.2452392578125
 42
-0
  0
VERTEX
  8
0
 10
2049.65185546875
 20
1189.375244140625
 42
-0
  0
VERTEX
  8
0
 10
1807.2120361328125
 20
1189.375244140625
 42
-0
  0
VERTEX
  8
0
 10
1807.2120361328125
 20
1154.2452392578125
 42
-0
  0
VERTEX
  8
0
 10
1767.2119140625
 20
1154.2452392578125
 42
-0
  0
VERTEX
  8
0
 10
1767.2119140625
 20
1189.375244140625
 42
-0
  0
VERTEX
  8
0
 10
1608.0601806640625
 20
1189.375244140625
 42
0.47935917973518372
  0
VERTEX
  8
0
 10
1608.0601806640625
 20
1077.1153564453125
 42
0
  0
VERTEX
  8
0
 10
1767.2119140625
 20
1077.1153564453125
 42
0
  0
VERTEX
  8
0
 10
1767.2119140625
 20
1112.2452392578125
 42
0
  0
VERTEX
  8
0
 10
1807.2120361328125
 20
1112.2452392578125
 42
0
  0
VERTEX
  8
0
 10
1807.2120361328125
 20
1077.1153564453125
 42
0
  0
VERTEX
  8
0
 10
2049.65185546875
 20
1077.1153564453125
 42
0
  0
VERTEX
  8
0
 10
2049.65185546875
 20
1112.2452392578125
 42
0
  0
VERTEX
  8
0
 10
2089.65185546875
 20
1112.2452392578125
 42
0
  0
VERTEX
  8
0
 10
2089.65185546875
 20
1077.1153564453125
 42
0
  0
SEQEND
  0
POLYLINE
  8
0
 10
0
 20
0
 39
0
 70
1
 66
1
  0
VERTEX
  8
0
 10
1964.3018798828125
 20
1133.2452392578125
 42
-1
  0
VERTEX
  8
0
 10
1900.3018798828125
 20
1133.2452392578125
 42
-1
  0
SEQEND
  0
POLYLINE
  8
0
 10
0
 20
0
 39
0
 70
1
 66
1
  0
VERTEX
  8
0
 10
2192.3076171875
 20
37.291000366210938
 42
0.47935917973518372
  0
VERTEX
  8
0
 10
2304.5673828125
 20
37.291000366210938
 42
-0
  0
VERTEX
  8
0
 10
2304.5673828125
 20
196.28228759765625
 42
-0
  0
VERTEX
  8
0
 10
2269.4375
 20
196.28228759765625
 42
-0
  0
VERTEX
  8
0
 10
2269.4375
 20
236.28228759765625
 42
-0
  0
VERTEX
  8
0
 10
2304.5673828125
 20
236.28228759765625
 42
-0
  0
VERTEX
  8
0
 10
2304.5673828125
 20
478.72222900390625
 42
-0
  0
VERTEX
  8
0
 10
2269.4375
 20
478.72222900390625
 42
-0
  0
VERTEX
  8
0
 10
2269.4375
 20
518.72222900390625
 42
-0
  0
VERTEX
  8
0
 10
2304.5673828125
 20
518.72222900390625
 42
-0
  0
VERTEX
  8
0
 10
2304.5673828125
 20
677.87396240234375
 42
0.47935917973518372
  0
VERTEX
  8
0
 10
2192.3076171875
 20
677.87396240234375
 42
0
  0
VERTEX
  8
0
 10
2192.3076171875
 20
518.72222900390625
 42
0
  0
VERTEX
  8
0
 10
2227.4375
 20
518.72222900390625
 42
0
  0
VERTEX
  8
0
 10
2227.4375
 20
478.72222900390625
 42
0
  0
VERTEX
  8
0
 10
2192.3076171875
 20
478.72222900390625
 42
0
  0
VERTEX
  8
0
 10
2192.3076171875
 20
236.28228759765625
 42
0
  0
VERTEX
  8
0
 10
2227.4375
 20
236.28228759765625
 42
0
  0
VERTEX
  8
0
 10
2227.4375
 20
196.28228759765625
 42
0
  0
VERTEX
  8
0
 10
2192.3076171875
 20
196.28228759765625
 42
0
  0
SEQEND
  0
POLYLINE
  8
0
 10
0
 20
0
 39
0
 70
1
 66
1
  0
VERTEX
  8
0
 10
2248.4375
 20
321.63229370117187
 42
-1
  0
VERTEX
  8
0
 10
2248.4375
 20
385.63229370117187
 42
-1
  0
SEQEND
  0
POLYLINE
  8
0
 10
0
 20
0
 39
0
 70
1
 66
1
  0
VERTEX
  8
0
 10
2314.8076171875
 20
37.291000366210938
 42
0.47935917973518372
  0
VERTEX
  8
0
 10
2427.0673828125
 20
37.291000366210938
 42
-0
  0
VERTEX
  8
0
 10
2427.0673828125
 20
196.28228759765625
 42
-0
  0
VERTEX
  8
0
 10
2391.9375
 20
196.28228759765625
 42
-0
  0
VERTEX
  8
0
 10
2391.9375
 20
236.28228759765625
 42
-0
  0
VERTEX
  8
0
 10
2427.0673828125
 20
236.28228759765625
 42
-0
  0
VERTEX
  8
0
 10
2427.0673828125
 20
478.72222900390625
 42
-0
  0
VERTEX
  8
0
 10
2391.9375
 20
478.72222900390625
 42
-0
  0
VERTEX
  8
0
 10
2391.9375
 20
518.72222900390625
 42
-0
  0
VERTEX
  8
0
 10
2427.0673828125
 20
518.72222900390625
 42
-0
  0
VERTEX
  8
0
 10
2427.0673828125
 20
677.87396240234375
 42
0.47935917973518372
  0
VERTEX
  8
0
 10
2314.8076171875
 20
677.87396240234375
 42
0
  0
VERTEX
  8
0
 10
2314.8076171875
 20
518.72222900390625
 42
0
  0
VERTEX
  8
0
 10
2349.9375
 20
518.72222900390625
 42
0
  0
VERTEX
  8
0
 10
2349.9375
 20
478.72222900390625
 42
0
  0
VERTEX
  8
0
 10
2314.8076171875
 20
478.72222900390625
 42
0
  0
VERTEX
  8
0
 10
2314.8076171875
 20
236.28228759765625
 42
0
  0
VERTEX
  8
0
 10
2349.9375
 20
236.28228759765625
 42
0
  0
VERTEX
  8
0
 10
2349.9375
 20
196.28228759765625
 42
0
  0
VERTEX
  8
0
 10
2314.8076171875
 20
196.28228759765625
 42
0
  0
SEQEND
  0
POLYLINE
  8
0
 10
0
 20
0
 39
0
 70
1
 66
1
  0
VERTEX
  8
0
 10
2370.9375
 20
321.63229370117187
 42
-1
  0
VERTEX
  8
0
 10
2370.9375
 20
385.63229370117187
 42
-1
  0
SEQEND
  0
POLYLINE
  8
0
 10
0
 20
0
 39
0
 70
1
 66
1
  0
VERTEX
  8
0
 10
156.36514282226562
 20
966.34527587890625
 42
1
  0
VERTEX
  8
0
 10
155.55793762207031
 20
781.3470458984375
 42
1
  0
SEQEND
  0
POLYLINE
  8
0
 10
0
 20
0
 39
0
 70
1
 66
1
  0
VERTEX
  8
0
 10
156.1142578125
 20
908.8458251953125
 42
-1
  0
VERTEX
  8
0
 10
155.80882263183594
 20
838.84649658203125
 42
-1
  0
SEQEND
  0
POLYLINE
  8
0
 10
0
 20
0
 39
0
 70
1
 66
1
  0
VERTEX
  8
0
 10
222.7113037109375
 20
423.46066284179687
 42
1
  0
VERTEX
  8
0
 10
221.90408325195312
 20
238.46241760253906
 42
1
  0
SEQEND
  0
POLYLINE
  8
0
 10
0
 20
0
 39
0
 70
1
 66
1
  0
VERTEX
  8
0
 10
222.46040344238281
 20
365.96121215820312
 42
-1
  0
VERTEX
  8
0
 10
222.15496826171875
 20
295.96188354492187
 42
-1
  0
SEQEND
  0
POLYLINE
  8
0
 10
0
 20
0
 39
0
 70
1
 66
1
  0
VERTEX
  8
0
 10
441.17282104492188
 20
1124.03759765625
 42
1
  0
VERTEX
  8
0
 10
440.36563110351562
 20
939.03936767578125
 42
1
  0
SEQEND
  0
POLYLINE
  8
0
 10
0
 20
0
 39
0
 70
1
 66
1
  0
VERTEX
  8
0
 10
440.92193603515625
 20
1066.5380859375
 42
-1
  0
VERTEX
  8
0
 10
440.61651611328125
 20
996.538818359375
 42
-1
  0
SEQEND
  0
POLYLINE
  8
0
 10
0
 20
0
 39
0
 70
1
 66
1
  0
VERTEX
  8
0
 10
462.7113037109375
 20
549.9991455078125
 42
1
  0
VERTEX
  8
0
 10
461.90408325195312
 20
365.00088500976563
 42
1
  0
SEQEND
  0
POLYLINE
  8
0
 10
0
 20
0
 39
0
 70
1
 66
1
  0
VERTEX
  8
0
 10
462.46041870117187
 20
492.49966430664062
 42
-1
  0
VERTEX
  8
0
 10
462.15496826171875
 20
422.50033569335938
 42
-1
  0
SEQEND
  0
POLYLINE
  8
0
 10
0
 20
0
 39
0
 70
1
 66
1
  0
VERTEX
  8
0
 10
471.36514282226562
 20
315.19143676757812
 42
1
  0
VERTEX
  8
0
 10
470.55792236328125
 20
130.19319152832031
 42
1
  0
SEQEND
  0
POLYLINE
  8
0
 10
0
 20
0
 39
0
 70
1
 66
1
  0
VERTEX
  8
0
 10
471.1142578125
 20
257.69198608398437
 42
-1
  0
VERTEX
  8
0
 10
470.80880737304687
 20
187.69264221191406
 42
-1
  0
SEQEND
  0
POLYLINE
  8
0
 10
0
 20
0
 39
0
 70
1
 66
1
  0
VERTEX
  8
0
 10
793.48052978515625
 20
259.80679321289063
 42
1
  0
VERTEX
  8
0
 10
792.67333984375
 20
74.808570861816406
 42
1
  0
SEQEND
  0
POLYLINE
  8
0
 10
0
 20
0
 39
0
 70
1
 66
1
  0
VERTEX
  8
0
 10
793.2296142578125
 20
202.30735778808594
 42
-1
  0
VERTEX
  8
0
 10
792.9241943359375
 20
132.30802917480469
 42
-1
  0
SEQEND
  0
POLYLINE
  8
0
 10
0
 20
0
 39
0
 70
1
 66
1
  0
VERTEX
  8
0
 10
853.2882080078125
 20
953.26837158203125
 42
1
  0
VERTEX
  8
0
 10
852.48101806640625
 20
768.2701416015625
 42
1
  0
SEQEND
  0
POLYLINE
  8
0
 10
0
 20
0
 39
0
 70
1
 66
1
  0
VERTEX
  8
0
 10
853.037353515625
 20
895.7689208984375
 42
-1
  0
VERTEX
  8
0
 10
852.73187255859375
 20
825.76959228515625
 42
-1
  0
SEQEND
  0
POLYLINE
  8
0
 10
0
 20
0
 39
0
 70
1
 66
1
  0
VERTEX
  8
0
 10
995.59588623046875
 20
438.26834106445312
 42
1
  0
VERTEX
  8
0
 10
994.7886962890625
 20
253.27011108398438
 42
1
  0
SEQEND
  0
POLYLINE
  8
0
 10
0
 20
0
 39
0
 70
1
 66
1
  0
VERTEX
  8
0
 10
995.34503173828125
 20
380.76889038085937
 42
-1
  0
VERTEX
  8
0
 10
995.03961181640625
 20
310.76956176757812
 42
-1
  0
SEQEND
  0
POLYLINE
  8
0
 10
0
 20
0
 39
0
 70
1
 66
1
  0
VERTEX
  8
0
 10
1057.7113037109375
 20
195.38372802734375
 42
1
  0
VERTEX
  8
0
 10
1056.904052734375
 20
10.385496139526367
 42
1
  0
SEQEND
  0
POLYLINE
  8
0
 10
0
 20
0
 39
0
 70
1
 66
1
  0
VERTEX
  8
0
 10
1057.46044921875
 20
137.88427734375
 42
-1
  0
VERTEX
  8
0
 10
1057.155029296875
 20
67.88494873046875
 42
-1
  0
SEQEND
  0
POLYLINE
  8
0
 10
0
 20
0
 39
0
 70
1
 66
1
  0
VERTEX
  8
0
 10
1093.8651123046875
 20
1078.6529541015625
 42
1
  0
VERTEX
  8
0
 10
1093.0579833984375
 20
893.65472412109375
 42
1
  0
SEQEND
  0
POLYLINE
  8
0
 10
0
 20
0
 39
0
 70
1
 66
1
  0
VERTEX
  8
0
 10
1093.6142578125
 20
1021.1535034179687
 42
-1
  0
VERTEX
  8
0
 10
1093.308837890625
 20
951.1541748046875
 42
-1
  0
SEQEND
  0
POLYLINE
  8
0
 10
0
 20
0
 39
0
 70
1
 66
1
  0
VERTEX
  8
0
 10
1101.3651123046875
 20
843.6529541015625
 42
1
  0
VERTEX
  8
0
 10
1100.5579833984375
 20
658.65472412109375
 42
1
  0
SEQEND
  0
POLYLINE
  8
0
 10
0
 20
0
 39
0
 70
1
 66
1
  0
VERTEX
  8
0
 10
1101.1142578125
 20
786.15350341796875
 42
-1
  0
VERTEX
  8
0
 10
1100.808837890625
 20
716.1541748046875
 42
-1
  0
SEQEND
  0
POLYLINE
  8
0
 10
0
 20
0
 39
0
 70
1
 66
1
  0
VERTEX
  8
0
 10
1371.1728515625
 20
423.46066284179687
 42
1
  0
VERTEX
  8
0
 10
1370.3656005859375
 20
238.46241760253906
 42
1
  0
SEQEND
  0
POLYLINE
  8
0
 10
0
 20
0
 39
0
 70
1
 66
1
  0
VERTEX
  8
0
 10
1370.9219970703125
 20
365.96121215820312
 42
-1
  0
VERTEX
  8
0
 10
1370.616455078125
 20
295.96188354492187
 42
-1
  0
SEQEND
  0
POLYLINE
  8
0
 10
0
 20
0
 39
0
 70
1
 66
1
  0
VERTEX
  8
0
 10
1423.8651123046875
 20
1124.2298583984375
 42
1
  0
VERTEX
  8
0
 10
1423.0579833984375
 20
939.23162841796875
 42
1
  0
SEQEND
  0
POLYLINE
  8
0
 10
0
 20
0
 39
0
 70
1
 66
1
  0
VERTEX
  8
0
 10
1423.6142578125
 20
1066.73046875
 42
-1
  0
VERTEX
  8
0
 10
1423.308837890625
 20
996.7310791015625
 42
-1
  0
SEQEND
  0
POLYLINE
  8
0
 10
0
 20
0
 39
0
 70
1
 66
1
  0
VERTEX
  8
0
 10
1611.1728515625
 20
549.9991455078125
 42
1
  0
VERTEX
  8
0
 10
1610.3656005859375
 20
365.00088500976563
 42
1
  0
SEQEND
  0
POLYLINE
  8
0
 10
0
 20
0
 39
0
 70
1
 66
1
  0
VERTEX
  8
0
 10
1610.9219970703125
 20
492.49966430664062
 42
-1
  0
VERTEX
  8
0
 10
1610.616455078125
 20
422.50033569335938
 42
-1
  0
SEQEND
  0
POLYLINE
  8
0
 10
0
 20
0
 39
0
 70
1
 66
1
  0
VERTEX
  8
0
 10
1619.82666015625
 20
315.19143676757812
 42
1
  0
VERTEX
  8
0
 10
1619.0194091796875
 20
130.19319152832031
 42
1
  0
SEQEND
  0
POLYLINE
  8
0
 10
0
 20
0
 39
0
 70
1
 66
1
  0
VERTEX
  8
0
 10
1619.5758056640625
 20
257.69198608398437
 42
-1
  0
VERTEX
  8
0
 10
1619.2703857421875
 20
187.69264221191406
 42
-1
  0
SEQEND
  0
POLYLINE
  8
0
 10
0
 20
0
 39
0
 70
1
 66
1
  0
VERTEX
  8
0
 10
1724.82666015625
 20
999.80682373046875
 42
1
  0
VERTEX
  8
0
 10
1724.0194091796875
 20
814.80859375
 42
1
  0
SEQEND
  0
POLYLINE
  8
0
 10
0
 20
0
 39
0
 70
1
 66
1
  0
VERTEX
  8
0
 10
1724.5758056640625
 20
942.307373046875
 42
-1
  0
VERTEX
  8
0
 10
1724.2703857421875
 20
872.30804443359375
 42
-1
  0
SEQEND
  0
POLYLINE
  8
0
 10
0
 20
0
 39
0
 70
1
 66
1
  0
VERTEX
  8
0
 10
225.38461303710937
 20
1144.0384521484375
 42
-0
  0
VERTEX
  8
0
 10
104.8704833984375
 20
1176.462890625
 42
1.3046128749847412
  0
VERTEX
  8
0
 10
104.8704833984375
 20
1031.614013671875
 42
0
  0
VERTEX
  8
0
 10
225.38461303710937
 20
1064.0384521484375
 42
0
  0
SEQEND
  0
POLYLINE
  8
0
 10
0
 20
0
 39
0
 70
1
 66
1
  0
VERTEX
  8
0
 10
85.384613037109375
 20
1085.5384521484375
 42
-1
  0
VERTEX
  8
0
 10
85.384613037109375
 20
1122.5384521484375
 42
-1
  0
SEQEND
  0
POLYLINE
  8
0
 10
0
 20
0
 39
0
 70
1
 66
1
  0
VERTEX
  8
0
 10
1914.423095703125
 20
922.69232177734375
 42
-0
  0
VERTEX
  8
0
 10
1881.9986572265625
 20
802.17816162109375
 42
1.3046128749847412
  0
VERTEX
  8
0
 10
2026.8475341796875
 20
802.17816162109375
 42
0
  0
VERTEX
  8
0
 10
1994.423095703125
 20
922.69232177734375
 42
0
  0
SEQEND
  0
POLYLINE
  8
0
 10
0
 20
0
 39
0
 70
1
 66
1
  0
VERTEX
  8
0
 10
1972.923095703125
 20
782.69232177734375
 42
-1
  0
VERTEX
  8
0
 10
1935.923095703125
 20
782.69232177734375
 42
-1
  0
SEQEND
  0
POLYLINE
  8
0
 10
0
 20
0
 39
0
 70
1
 66
1
  0
VERTEX
  8
0
 10
1923.4615478515625
 20
952.69232177734375
 42
-0
  0
VERTEX
  8
0
 10
2043.9757080078125
 20
920.26788330078125
 42
1.3046128749847412
  0
VERTEX
  8
0
 10
2043.9757080078125
 20
1065.11669921875
 42
0
  0
VERTEX
  8
0
 10
1923.4615478515625
 20
1032.6922607421875
 42
0
  0
SEQEND
  0
POLYLINE
  8
0
 10
0
 20
0
 39
0
 70
1
 66
1
  0
VERTEX
  8
0
 10
2063.46142578125
 20
1011.1923217773437
 42
-1
  0
VERTEX
  8
0
 10
2063.46142578125
 20
974.19232177734375
 42
-1
  0
SEQEND
  0
POLYLINE
  8
0
 10
0
 20
0
 39
0
 70
1
 66
1
  0
VERTEX
  8
0
 10
2185.576904296875
 20
714.80767822265625
 42
-0
  0
VERTEX
  8
0
 10
2218.00146484375
 20
835.32183837890625
 42
1.3046128749847412
  0
VERTEX
  8
0
 10
2073.152587890625
 20
835.32183837890625
 42
0
  0
VERTEX
  8
0
 10
2105.576904296875
 20
714.80767822265625
 42
0
  0
SEQEND
  0
POLYLINE
  8
0
 10
0
 20
0
 39
0
 70
1
 66
1
  0
VERTEX
  8
0
 10
2127.076904296875
 20
854.80767822265625
 42
-1
  0
VERTEX
  8
0
 10
2164.076904296875
 20
854.80767822265625
 42
-1
  0
SEQEND
  0
POLYLINE
  8
0
 10
0
 20
0
 39
0
 70
1
 66
1
  0
VERTEX
  8
0
 10
2314.03857421875
 20
855.3846435546875
 42
-0
  0
VERTEX
  8
0
 10
2346.462890625
 20
975.89874267578125
 42
1.3046128749847412
  0
VERTEX
  8
0
 10
2201.614013671875
 20
975.89874267578125
 42
0
  0
VERTEX
  8
0
 10
2234.03857421875
 20
855.3846435546875
 42
0
  0
SEQEND
  0
POLYLINE
  8
0
 10
0
 20
0
 39
0
 70
1
 66
1
  0
VERTEX
  8
0
 10
2255.53857421875
 20
995.3846435546875
 42
-1
  0
VERTEX
  8
0
 10
2292.53857421875
 20
995.3846435546875
 42
-1
  0
SEQEND
  0
POLYLINE
  8
0
 10
0
 20
0
 39
0
 70
1
 66
1
  0
VERTEX
  8
0
 10
2345.1923828125
 20
929.80767822265625
 42
-0
  0
VERTEX
  8
0
 10
2312.767822265625
 20
809.2935791015625
 42
1.3046128749847412
  0
VERTEX
  8
0
 10
2457.61669921875
 20
809.2935791015625
 42
0
  0
VERTEX
  8
0
 10
2425.1923828125
 20
929.80767822265625
 42
0
  0
SEQEND
  0
POLYLINE
  8
0
 10
0
 20
0
 39
0
 70
1
 66
1
  0
VERTEX
  8
0
 10
2403.6923828125
 20
789.80767822265625
 42
-1
  0
VERTEX
  8
0
 10
2366.6923828125
 20
789.80767822265625
 42
-1
  0
SEQEND
  0
POLYLINE
  8
0
 10
0
 20
0
 39
0
 70
1
 66
1
  0
VERTEX
  8
0
 10
2448.269287109375
 20
974.423095703125
 42
-0
  0
VERTEX
  8
0
 10
2480.693603515625
 20
1094.937255859375
 42
1.3046128749847412
  0
VERTEX
  8
0
 10
2335.8447265625
 20
1094.937255859375
 42
0
  0
VERTEX
  8
0
 10
2368.269287109375
 20
974.423095703125
 42
0
  0
SEQEND
  0
POLYLINE
  8
0
 10
0
 20
0
 39
0
 70
1
 66
1
  0
VERTEX
  8
0
 10
2389.769287109375
 20
1114.423095703125
 42
-1
  0
VERTEX
  8
0
 10
2426.769287109375
 20
1114.423095703125
 42
-1
  0
SEQEND
  0
POLYLINE
  8
0
 10
0
 20
0
 39
0
 70
1
 66
1
  0
VERTEX
  8
0
 10
526.5384521484375
 20
768.84613037109375
 42
-0
  0
VERTEX
  8
0
 10
526.5384521484375
 20
818.84613037109375
 42
-0
  0
VERTEX
  8
0
 10
326.5384521484375
 20
818.84613037109375
 42
-0
  0
VERTEX
  8
0
 10
326.5384521484375
 20
768.84613037109375
 42
0
  0
SEQEND
  0
POLYLINE
  8
0
 10
0
 20
0
 39
0
 70
1
 66
1
  0
VERTEX
  8
0
 10
489.86514282226562
 20
793.84613037109375
 42
-1
  0
VERTEX
  8
0
 10
459.86514282226562
 20
793.84613037109375
 42
-1
  0
SEQEND
  0
POLYLINE
  8
0
 10
0
 20
0
 39
0
 70
1
 66
1
  0
VERTEX
  8
0
 10
873.4615478515625
 20
380.76922607421875
 42
-0
  0
VERTEX
  8
0
 10
873.4615478515625
 20
430.76922607421875
 42
-0
  0
VERTEX
  8
0
 10
673.4615478515625
 20
430.76922607421875
 42
-0
  0
VERTEX
  8
0
 10
673.4615478515625
 20
380.76922607421875
 42
0
  0
SEQEND
  0
POLYLINE
  8
0
 10
0
 20
0
 39
0
 70
1
 66
1
  0
VERTEX
  8
0
 10
836.7882080078125
 20
405.76922607421875
 42
-1
  0
VERTEX
  8
0
 10
806.7882080078125
 20
405.76922607421875
 42
-1
  0
SEQEND
  0
POLYLINE
  8
0
 10
0
 20
0
 39
0
 70
1
 66
1
  0
VERTEX
  8
0
 10
1097.8846435546875
 20
197.69230651855469
 42
-0
  0
VERTEX
  8
0
 10
1147.8846435546875
 20
197.69230651855469
 42
-0
  0
VERTEX
  8
0
 10
1147.8846435546875
 20
397.69232177734375
 42
-0
  0
VERTEX
  8
0
 10
1097.8846435546875
 20
397.69232177734375
 42
0
  0
SEQEND
  0
POLYLINE
  8
0
 10
0
 20
0
 39
0
 70
1
 66
1
  0
VERTEX
  8
0
 10
1122.8846435546875
 20
234.36563110351562
 42
-1
  0
VERTEX
  8
0
 10
1122.8846435546875
 20
264.36563110351562
 42
-1
  0
SEQEND
  0
POLYLINE
  8
0
 10
0
 20
0
 39
0
 70
1
 66
1
  0
VERTEX
  8
0
 10
1512.3077392578125
 20
767.1153564453125
 42
-0
  0
VERTEX
  8
0
 10
1512.3077392578125
 20
817.1153564453125
 42
-0
  0
VERTEX
  8
0
 10
1312.3077392578125
 20
817.1153564453125
 42
-0
  0
VERTEX
  8
0
 10
1312.3077392578125
 20
767.1153564453125
 42
0
  0
SEQEND
  0
POLYLINE
  8
0
 10
0
 20
0
 39
0
 70
1
 66
1
  0
VERTEX
  8
0
 10
1475.6343994140625
 20
792.1153564453125
 42
-1
  0
VERTEX
  8
0
 10
1445.6343994140625
 20
792.1153564453125
 42
-1
  0
SEQEND
  0
POLYLINE
  8
0
 10
0
 20
0
 39
0
 70
1
 66
1
  0
VERTEX
  8
0
 10
2437.3076171875
 20
10.384614944458008
 42
-0
  0
VERTEX
  8
0
 10
2487.3076171875
 20
10.384614944458008
 42
-0
  0
VERTEX
  8
0
 10
2487.3076171875
 20
210.38461303710937
 42
-0
  0
VERTEX
  8
0
 10
2437.3076171875
 20
210.38461303710937
 42
0
  0
SEQEND
  0
POLYLINE
  8
0
 10
0
 20
0
 39
0
 70
1
 66
1
  0
VERTEX
  8
0
 10
2462.3076171875
 20
47.057941436767578
 42
-1
  0
VERTEX
  8
0
 10
2462.3076171875
 20
77.057937622070312
 42
-1
  0
SEQEND
  0
POLYLINE
  8
0
 10
0
 20
0
 39
0
 70
1
 66
1
  0
VERTEX
  8
0
 10
2437.3076171875
 20
220.57691955566406
 42
-0
  0
VERTEX
  8
0
 10
2487.3076171875
 20
220.57691955566406
 42
-0
  0
VERTEX
  8
0
 10
2487.3076171875
 20
420.57693481445312
 42
-0
  0
VERTEX
  8
0
 10
2437.3076171875
 20
420.57693481445312
 42
0
  0
SEQEND
  0
POLYLINE
  8
0
 10
0
 20
0
 39
0
 70
1
 66
1
  0
VERTEX
  8
0
 10
2462.3076171875
 20
257.250244140625
 42
-1
  0
VERTEX
  8
0
 10
2462.3076171875
 20
287.250244140625
 42
-1
  0
SEQEND
  0
POLYLINE
  8
0
 10
0
 20
0
 39
0
 70
1
 66
1
  0
VERTEX
  8
0
 10
2437.3076171875
 20
430.76922607421875
 42
-0
  0
VERTEX
  8
0
 10
2487.3076171875
 20
430.76922607421875
 42
-0
  0
VERTEX
  8
0
 10
2487.3076171875
 20
630.76922607421875
 42
-0
  0
VERTEX
  8
0
 10
2437.3076171875
 20
630.76922607421875
 42
0
  0
SEQEND
  0
POLYLINE
  8
0
 10
0
 20
0
 39
0
 70
1
 66
1
  0
VERTEX
  8
0
 10
2462.3076171875
 20
467.44256591796875
 42
-1
  0
VERTEX
  8
0
 10
2462.3076171875
 20
497.44256591796875
 42
-1
  0
SEQEND
  0
ENDSEC
  0
EOF
