  0
SECTION
  2
ENTITIES
  0
POLYLINE
  8
0
 10
0
 20
0
 39
0
 70
1
 66
1
  0
VERTEX
  8
0
 10
0
 20
0
 42
-0
  0
VERTEX
  8
0
 10
1500
 20
0
 42
-0
  0
VERTEX
  8
0
 10
1500
 20
900
 42
-0
  0
VERTEX
  8
0
 10
0
 20
900
 42
-0
  0
SEQEND
  0
POLYLINE
  8
0
 10
0
 20
0
 39
0
 70
1
 66
1
  0
VERTEX
  8
0
 10
360.19232177734375
 20
10.192307472229004
 42
-0
  0
VERTEX
  8
0
 10
360.19232177734375
 20
435.19232177734375
 42
-0
  0
VERTEX
  8
0
 10
283.19232177734375
 20
435.19232177734375
 42
-0
  0
VERTEX
  8
0
 10
283.19232177734375
 20
400.19232177734375
 42
-0
  0
VERTEX
  8
0
 10
243.19230651855469
 20
400.19232177734375
 42
-0
  0
VERTEX
  8
0
 10
243.19230651855469
 20
435.19232177734375
 42
-0
  0
VERTEX
  8
0
 10
166.19230651855469
 20
435.19232177734375
 42
-0
  0
VERTEX
  8
0
 10
166.19230651855469
 20
400.19232177734375
 42
-0
  0
VERTEX
  8
0
 10
126.19230651855469
 20
400.19232177734375
 42
-0
  0
VERTEX
  8
0
 10
126.19230651855469
 20
435.19232177734375
 42
-0
  0
VERTEX
  8
0
 10
56.128646850585938
 20
435.19232177734375
 42
0
  0
VERTEX
  8
0
 10
10.192307472229004
 20
389.2559814453125
 42
-0
  0
VERTEX
  8
0
 10
10.192307472229004
 20
347.34402465820313
 42
-0.15373215079307556
  0
VERTEX
  8
0
 10
10.192307472229004
 20
98.04058837890625
 42
-0
  0
VERTEX
  8
0
 10
10.192307472229004
 20
10.192307472229004
 42
0
  0
SEQEND
  0
POLYLINE
  8
0
 10
0
 20
0
 39
0
 70
1
 66
1
  0
VERTEX
  8
0
 10
330.69232177734375
 20
342.1683349609375
 42
-0
  0
VERTEX
  8
0
 10
303.0784912109375
 20
270.18356323242187
 42
-1
  0
VERTEX
  8
0
 10
286.78857421875
 20
227.7183837890625
 42
-0
  0
VERTEX
  8
0
 10
280.3372802734375
 20
210.90089416503906
 42
-1
  0
VERTEX
  8
0
 10
264.04736328125
 20
168.43572998046875
 42
-0
  0
VERTEX
  8
0
 10
257.50833129882812
 20
151.38954162597656
 42
-1
  0
VERTEX
  8
0
 10
241.21841430664062
 20
108.92438507080078
 42
-0
  0
VERTEX
  8
0
 10
213.69230651855469
 20
37.168312072753906
 42
-0
  0
VERTEX
  8
0
 10
63.692306518554687
 20
37.168312072753906
 42
-0
  0
VERTEX
  8
0
 10
63.692306518554687
 20
372.1683349609375
 42
-0
  0
VERTEX
  8
0
 10
330.69232177734375
 20
372.1683349609375
 42
-0
  0
SEQEND
  0
POLYLINE
  8
0
 10
0
 20
0
 39
0
 70
1
 66
1
  0
VERTEX
  8
0
 10
360.19232177734375
 20
445.30767822265625
 42
-0
  0
VERTEX
  8
0
 10
360.19232177734375
 20
870.30767822265625
 42
-0
  0
VERTEX
  8
0
 10
283.19232177734375
 20
870.30767822265625
 42
-0
  0
VERTEX
  8
0
 10
283.19232177734375
 20
835.30767822265625
 42
-0
  0
VERTEX
  8
0
 10
243.19230651855469
 20
835.30767822265625
 42
-0
  0
VERTEX
  8
0
 10
243.19230651855469
 20
870.30767822265625
 42
-0
  0
VERTEX
  8
0
 10
166.19230651855469
 20
870.30767822265625
 42
-0
  0
VERTEX
  8
0
 10
166.19230651855469
 20
835.30767822265625
 42
-0
  0
VERTEX
  8
0
 10
126.19230651855469
 20
835.30767822265625
 42
-0
  0
VERTEX
  8
0
 10
126.19230651855469
 20
870.30767822265625
 42
-0
  0
VERTEX
  8
0
 10
56.128646850585938
 20
870.30767822265625
 42
0
  0
VERTEX
  8
0
 10
10.192307472229004
 20
824.371337890625
 42
-0
  0
VERTEX
  8
0
 10
10.192307472229004
 20
782.45941162109375
 42
-0.15373215079307556
  0
VERTEX
  8
0
 10
10.192307472229004
 20
533.15594482421875
 42
-0
  0
VERTEX
  8
0
 10
10.192307472229004
 20
445.30767822265625
 42
0
  0
SEQEND
  0
POLYLINE
  8
0
 10
0
 20
0
 39
0
 70
1
 66
1
  0
VERTEX
  8
0
 10
330.69232177734375
 20
777.28369140625
 42
-0
  0
VERTEX
  8
0
 10
303.0784912109375
 20
705.2989501953125
 42
-1
  0
VERTEX
  8
0
 10
286.78857421875
 20
662.833740234375
 42
-0
  0
VERTEX
  8
0
 10
280.3372802734375
 20
646.01629638671875
 42
-1
  0
VERTEX
  8
0
 10
264.04736328125
 20
603.55108642578125
 42
-0
  0
VERTEX
  8
0
 10
257.50833129882812
 20
586.50494384765625
 42
-1
  0
VERTEX
  8
0
 10
241.21841430664062
 20
544.039794921875
 42
-0
  0
VERTEX
  8
0
 10
213.69230651855469
 20
472.28369140625
 42
-0
  0
VERTEX
  8
0
 10
63.692306518554687
 20
472.28369140625
 42
-0
  0
VERTEX
  8
0
 10
63.692306518554687
 20
807.28369140625
 42
-0
  0
VERTEX
  8
0
 10
330.69232177734375
 20
807.28369140625
 42
-0
  0
SEQEND
  0
POLYLINE
  8
0
 10
0
 20
0
 39
0
 70
1
 66
1
  0
VERTEX
  8
0
 10
720.423095703125
 20
10.192307472229004
 42
-0
  0
VERTEX
  8
0
 10
720.423095703125
 20
435.19232177734375
 42
-0
  0
VERTEX
  8
0
 10
643.423095703125
 20
435.19232177734375
 42
-0
  0
VERTEX
  8
0
 10
643.423095703125
 20
400.19232177734375
 42
-0
  0
VERTEX
  8
0
 10
603.423095703125
 20
400.19232177734375
 42
-0
  0
VERTEX
  8
0
 10
603.423095703125
 20
435.19232177734375
 42
-0
  0
VERTEX
  8
0
 10
526.423095703125
 20
435.19232177734375
 42
-0
  0
VERTEX
  8
0
 10
526.423095703125
 20
400.19232177734375
 42
-0
  0
VERTEX
  8
0
 10
486.42306518554687
 20
400.19232177734375
 42
-0
  0
VERTEX
  8
0
 10
486.42306518554687
 20
435.19232177734375
 42
-0
  0
VERTEX
  8
0
 10
416.35940551757813
 20
435.19232177734375
 42
0
  0
VERTEX
  8
0
 10
370.42306518554687
 20
389.2559814453125
 42
-0
  0
VERTEX
  8
0
 10
370.42306518554687
 20
347.34402465820313
 42
-0.15373215079307556
  0
VERTEX
  8
0
 10
370.42306518554687
 20
98.04058837890625
 42
-0
  0
VERTEX
  8
0
 10
370.42306518554687
 20
10.192307472229004
 42
0
  0
SEQEND
  0
POLYLINE
  8
0
 10
0
 20
0
 39
0
 70
1
 66
1
  0
VERTEX
  8
0
 10
690.923095703125
 20
342.1683349609375
 42
-0
  0
VERTEX
  8
0
 10
663.30926513671875
 20
270.18356323242187
 42
-1
  0
VERTEX
  8
0
 10
647.01934814453125
 20
227.7183837890625
 42
-0
  0
VERTEX
  8
0
 10
640.56805419921875
 20
210.90089416503906
 42
-1
  0
VERTEX
  8
0
 10
624.27813720703125
 20
168.43572998046875
 42
-0
  0
VERTEX
  8
0
 10
617.73907470703125
 20
151.38954162597656
 42
-1
  0
VERTEX
  8
0
 10
601.44915771484375
 20
108.92438507080078
 42
-0
  0
VERTEX
  8
0
 10
573.923095703125
 20
37.168312072753906
 42
-0
  0
VERTEX
  8
0
 10
423.92306518554687
 20
37.168312072753906
 42
-0
  0
VERTEX
  8
0
 10
423.92306518554687
 20
372.1683349609375
 42
-0
  0
VERTEX
  8
0
 10
690.923095703125
 20
372.1683349609375
 42
-0
  0
SEQEND
  0
POLYLINE
  8
0
 10
0
 20
0
 39
0
 70
1
 66
1
  0
VERTEX
  8
0
 10
720.423095703125
 20
445.30767822265625
 42
-0
  0
VERTEX
  8
0
 10
720.423095703125
 20
870.30767822265625
 42
-0
  0
VERTEX
  8
0
 10
643.423095703125
 20
870.30767822265625
 42
-0
  0
VERTEX
  8
0
 10
643.423095703125
 20
835.30767822265625
 42
-0
  0
VERTEX
  8
0
 10
603.423095703125
 20
835.30767822265625
 42
-0
  0
VERTEX
  8
0
 10
603.423095703125
 20
870.30767822265625
 42
-0
  0
VERTEX
  8
0
 10
526.423095703125
 20
870.30767822265625
 42
-0
  0
VERTEX
  8
0
 10
526.423095703125
 20
835.30767822265625
 42
-0
  0
VERTEX
  8
0
 10
486.42306518554687
 20
835.30767822265625
 42
-0
  0
VERTEX
  8
0
 10
486.42306518554687
 20
870.30767822265625
 42
-0
  0
VERTEX
  8
0
 10
416.35940551757813
 20
870.30767822265625
 42
0
  0
VERTEX
  8
0
 10
370.42306518554687
 20
824.371337890625
 42
-0
  0
VERTEX
  8
0
 10
370.42306518554687
 20
782.45941162109375
 42
-0.15373215079307556
  0
VERTEX
  8
0
 10
370.42306518554687
 20
533.15594482421875
 42
-0
  0
VERTEX
  8
0
 10
370.42306518554687
 20
445.30767822265625
 42
0
  0
SEQEND
  0
POLYLINE
  8
0
 10
0
 20
0
 39
0
 70
1
 66
1
  0
VERTEX
  8
0
 10
690.923095703125
 20
777.28369140625
 42
-0
  0
VERTEX
  8
0
 10
663.30926513671875
 20
705.2989501953125
 42
-1
  0
VERTEX
  8
0
 10
647.01934814453125
 20
662.833740234375
 42
-0
  0
VERTEX
  8
0
 10
640.56805419921875
 20
646.01629638671875
 42
-1
  0
VERTEX
  8
0
 10
624.27813720703125
 20
603.55108642578125
 42
-0
  0
VERTEX
  8
0
 10
617.73907470703125
 20
586.50494384765625
 42
-1
  0
VERTEX
  8
0
 10
601.44915771484375
 20
544.039794921875
 42
-0
  0
VERTEX
  8
0
 10
573.923095703125
 20
472.28369140625
 42
-0
  0
VERTEX
  8
0
 10
423.92306518554687
 20
472.28369140625
 42
-0
  0
VERTEX
  8
0
 10
423.92306518554687
 20
807.28369140625
 42
-0
  0
VERTEX
  8
0
 10
690.923095703125
 20
807.28369140625
 42
-0
  0
SEQEND
  0
POLYLINE
  8
0
 10
0
 20
0
 39
0
 70
1
 66
1
  0
VERTEX
  8
0
 10
1080.65380859375
 20
10.192307472229004
 42
-0
  0
VERTEX
  8
0
 10
1080.65380859375
 20
435.19232177734375
 42
-0
  0
VERTEX
  8
0
 10
1003.6538696289062
 20
435.19232177734375
 42
-0
  0
VERTEX
  8
0
 10
1003.6538696289062
 20
400.19232177734375
 42
-0
  0
VERTEX
  8
0
 10
963.65386962890625
 20
400.19232177734375
 42
-0
  0
VERTEX
  8
0
 10
963.65386962890625
 20
435.19232177734375
 42
-0
  0
VERTEX
  8
0
 10
886.65386962890625
 20
435.19232177734375
 42
-0
  0
VERTEX
  8
0
 10
886.65386962890625
 20
400.19232177734375
 42
-0
  0
VERTEX
  8
0
 10
846.65386962890625
 20
400.19232177734375
 42
-0
  0
VERTEX
  8
0
 10
846.65386962890625
 20
435.19232177734375
 42
-0
  0
VERTEX
  8
0
 10
776.5902099609375
 20
435.19232177734375
 42
0
  0
VERTEX
  8
0
 10
730.65386962890625
 20
389.2559814453125
 42
-0
  0
VERTEX
  8
0
 10
730.65386962890625
 20
347.34402465820313
 42
-0.15373215079307556
  0
VERTEX
  8
0
 10
730.65386962890625
 20
98.04058837890625
 42
-0
  0
VERTEX
  8
0
 10
730.65386962890625
 20
10.192307472229004
 42
0
  0
SEQEND
  0
POLYLINE
  8
0
 10
0
 20
0
 39
0
 70
1
 66
1
  0
VERTEX
  8
0
 10
1051.15380859375
 20
342.1683349609375
 42
-0
  0
VERTEX
  8
0
 10
1023.5400390625
 20
270.18356323242187
 42
-1
  0
VERTEX
  8
0
 10
1007.2501220703125
 20
227.7183837890625
 42
-0
  0
VERTEX
  8
0
 10
1000.798828125
 20
210.90089416503906
 42
-1
  0
VERTEX
  8
0
 10
984.5089111328125
 20
168.43572998046875
 42
-0
  0
VERTEX
  8
0
 10
977.9698486328125
 20
151.38954162597656
 42
-1
  0
VERTEX
  8
0
 10
961.679931640625
 20
108.92438507080078
 42
-0
  0
VERTEX
  8
0
 10
934.15386962890625
 20
37.168312072753906
 42
-0
  0
VERTEX
  8
0
 10
784.15386962890625
 20
37.168312072753906
 42
-0
  0
VERTEX
  8
0
 10
784.15386962890625
 20
372.1683349609375
 42
-0
  0
VERTEX
  8
0
 10
1051.15380859375
 20
372.1683349609375
 42
-0
  0
SEQEND
  0
POLYLINE
  8
0
 10
0
 20
0
 39
0
 70
1
 66
1
  0
VERTEX
  8
0
 10
1080.65380859375
 20
445.30767822265625
 42
-0
  0
VERTEX
  8
0
 10
1080.65380859375
 20
870.30767822265625
 42
-0
  0
VERTEX
  8
0
 10
1003.6538696289062
 20
870.30767822265625
 42
-0
  0
VERTEX
  8
0
 10
1003.6538696289062
 20
835.30767822265625
 42
-0
  0
VERTEX
  8
0
 10
963.65386962890625
 20
835.30767822265625
 42
-0
  0
VERTEX
  8
0
 10
963.65386962890625
 20
870.30767822265625
 42
-0
  0
VERTEX
  8
0
 10
886.65386962890625
 20
870.30767822265625
 42
-0
  0
VERTEX
  8
0
 10
886.65386962890625
 20
835.30767822265625
 42
-0
  0
VERTEX
  8
0
 10
846.65386962890625
 20
835.30767822265625
 42
-0
  0
VERTEX
  8
0
 10
846.65386962890625
 20
870.30767822265625
 42
-0
  0
VERTEX
  8
0
 10
776.5902099609375
 20
870.30767822265625
 42
0
  0
VERTEX
  8
0
 10
730.65386962890625
 20
824.371337890625
 42
-0
  0
VERTEX
  8
0
 10
730.65386962890625
 20
782.45941162109375
 42
-0.15373215079307556
  0
VERTEX
  8
0
 10
730.65386962890625
 20
533.15594482421875
 42
-0
  0
VERTEX
  8
0
 10
730.65386962890625
 20
445.30767822265625
 42
0
  0
SEQEND
  0
POLYLINE
  8
0
 10
0
 20
0
 39
0
 70
1
 66
1
  0
VERTEX
  8
0
 10
1051.15380859375
 20
777.28369140625
 42
-0
  0
VERTEX
  8
0
 10
1023.5400390625
 20
705.2989501953125
 42
-1
  0
VERTEX
  8
0
 10
1007.2501220703125
 20
662.833740234375
 42
-0
  0
VERTEX
  8
0
 10
1000.798828125
 20
646.01629638671875
 42
-1
  0
VERTEX
  8
0
 10
984.5089111328125
 20
603.55108642578125
 42
-0
  0
VERTEX
  8
0
 10
977.9698486328125
 20
586.50494384765625
 42
-1
  0
VERTEX
  8
0
 10
961.679931640625
 20
544.039794921875
 42
-0
  0
VERTEX
  8
0
 10
934.15386962890625
 20
472.28369140625
 42
-0
  0
VERTEX
  8
0
 10
784.15386962890625
 20
472.28369140625
 42
-0
  0
VERTEX
  8
0
 10
784.15386962890625
 20
807.28369140625
 42
-0
  0
VERTEX
  8
0
 10
1051.15380859375
 20
807.28369140625
 42
-0
  0
SEQEND
  0
POLYLINE
  8
0
 10
0
 20
0
 39
0
 70
1
 66
1
  0
VERTEX
  8
0
 10
1440.8846435546875
 20
10.192307472229004
 42
-0
  0
VERTEX
  8
0
 10
1440.8846435546875
 20
435.19232177734375
 42
-0
  0
VERTEX
  8
0
 10
1363.8846435546875
 20
435.19232177734375
 42
-0
  0
VERTEX
  8
0
 10
1363.8846435546875
 20
400.19232177734375
 42
-0
  0
VERTEX
  8
0
 10
1323.8846435546875
 20
400.19232177734375
 42
-0
  0
VERTEX
  8
0
 10
1323.8846435546875
 20
435.19232177734375
 42
-0
  0
VERTEX
  8
0
 10
1246.8846435546875
 20
435.19232177734375
 42
-0
  0
VERTEX
  8
0
 10
1246.8846435546875
 20
400.19232177734375
 42
-0
  0
VERTEX
  8
0
 10
1206.8846435546875
 20
400.19232177734375
 42
-0
  0
VERTEX
  8
0
 10
1206.8846435546875
 20
435.19232177734375
 42
-0
  0
VERTEX
  8
0
 10
1136.8209228515625
 20
435.19232177734375
 42
0
  0
VERTEX
  8
0
 10
1090.8846435546875
 20
389.2559814453125
 42
-0
  0
VERTEX
  8
0
 10
1090.8846435546875
 20
347.34402465820313
 42
-0.15373215079307556
  0
VERTEX
  8
0
 10
1090.8846435546875
 20
98.04058837890625
 42
-0
  0
VERTEX
  8
0
 10
1090.8846435546875
 20
10.192307472229004
 42
0
  0
SEQEND
  0
POLYLINE
  8
0
 10
0
 20
0
 39
0
 70
1
 66
1
  0
VERTEX
  8
0
 10
1411.3846435546875
 20
342.1683349609375
 42
-0
  0
VERTEX
  8
0
 10
1383.770751953125
 20
270.18356323242187
 42
-1
  0
VERTEX
  8
0
 10
1367.4808349609375
 20
227.7183837890625
 42
-0
  0
VERTEX
  8
0
 10
1361.029541015625
 20
210.90089416503906
 42
-1
  0
VERTEX
  8
0
 10
1344.7396240234375
 20
168.43572998046875
 42
-0
  0
VERTEX
  8
0
 10
1338.20068359375
 20
151.38954162597656
 42
-1
  0
VERTEX
  8
0
 10
1321.9107666015625
 20
108.92438507080078
 42
-0
  0
VERTEX
  8
0
 10
1294.3846435546875
 20
37.168312072753906
 42
-0
  0
VERTEX
  8
0
 10
1144.3846435546875
 20
37.168312072753906
 42
-0
  0
VERTEX
  8
0
 10
1144.3846435546875
 20
372.1683349609375
 42
-0
  0
VERTEX
  8
0
 10
1411.3846435546875
 20
372.1683349609375
 42
-0
  0
SEQEND
  0
POLYLINE
  8
0
 10
0
 20
0
 39
0
 70
1
 66
1
  0
VERTEX
  8
0
 10
1440.8846435546875
 20
445.30767822265625
 42
-0
  0
VERTEX
  8
0
 10
1440.8846435546875
 20
870.30767822265625
 42
-0
  0
VERTEX
  8
0
 10
1363.8846435546875
 20
870.30767822265625
 42
-0
  0
VERTEX
  8
0
 10
1363.8846435546875
 20
835.30767822265625
 42
-0
  0
VERTEX
  8
0
 10
1323.8846435546875
 20
835.30767822265625
 42
-0
  0
VERTEX
  8
0
 10
1323.8846435546875
 20
870.30767822265625
 42
-0
  0
VERTEX
  8
0
 10
1246.8846435546875
 20
870.30767822265625
 42
-0
  0
VERTEX
  8
0
 10
1246.8846435546875
 20
835.30767822265625
 42
-0
  0
VERTEX
  8
0
 10
1206.8846435546875
 20
835.30767822265625
 42
-0
  0
VERTEX
  8
0
 10
1206.8846435546875
 20
870.30767822265625
 42
-0
  0
VERTEX
  8
0
 10
1136.8209228515625
 20
870.30767822265625
 42
0
  0
VERTEX
  8
0
 10
1090.8846435546875
 20
824.371337890625
 42
-0
  0
VERTEX
  8
0
 10
1090.8846435546875
 20
782.45941162109375
 42
-0.15373215079307556
  0
VERTEX
  8
0
 10
1090.8846435546875
 20
533.15594482421875
 42
-0
  0
VERTEX
  8
0
 10
1090.8846435546875
 20
445.30767822265625
 42
0
  0
SEQEND
  0
POLYLINE
  8
0
 10
0
 20
0
 39
0
 70
1
 66
1
  0
VERTEX
  8
0
 10
1411.3846435546875
 20
777.28369140625
 42
-0
  0
VERTEX
  8
0
 10
1383.770751953125
 20
705.2989501953125
 42
-1
  0
VERTEX
  8
0
 10
1367.4808349609375
 20
662.833740234375
 42
-0
  0
VERTEX
  8
0
 10
1361.029541015625
 20
646.01629638671875
 42
-1
  0
VERTEX
  8
0
 10
1344.7396240234375
 20
603.55108642578125
 42
-0
  0
VERTEX
  8
0
 10
1338.20068359375
 20
586.50494384765625
 42
-1
  0
VERTEX
  8
0
 10
1321.9107666015625
 20
544.039794921875
 42
-0
  0
VERTEX
  8
0
 10
1294.3846435546875
 20
472.28369140625
 42
-0
  0
VERTEX
  8
0
 10
1144.3846435546875
 20
472.28369140625
 42
-0
  0
VERTEX
  8
0
 10
1144.3846435546875
 20
807.28369140625
 42
-0
  0
VERTEX
  8
0
 10
1411.3846435546875
 20
807.28369140625
 42
-0
  0
SEQEND
  0
POLYLINE
  8
0
 10
0
 20
0
 39
0
 70
1
 66
1
  0
VERTEX
  8
0
 10
166.78822326660156
 20
293.49911499023437
 42
1
  0
VERTEX
  8
0
 10
165.98100280761719
 20
108.50087738037109
 42
1
  0
SEQEND
  0
POLYLINE
  8
0
 10
0
 20
0
 39
0
 70
1
 66
1
  0
VERTEX
  8
0
 10
166.72276306152344
 20
278.499267578125
 42
-1
  0
VERTEX
  8
0
 10
166.04646301269531
 20
123.50074005126953
 42
-1
  0
SEQEND
  0
POLYLINE
  8
0
 10
0
 20
0
 39
0
 70
1
 66
1
  0
VERTEX
  8
0
 10
166.78822326660156
 20
728.614501953125
 42
1
  0
VERTEX
  8
0
 10
165.98100280761719
 20
543.61627197265625
 42
1
  0
SEQEND
  0
POLYLINE
  8
0
 10
0
 20
0
 39
0
 70
1
 66
1
  0
VERTEX
  8
0
 10
166.72276306152344
 20
713.6146240234375
 42
-1
  0
VERTEX
  8
0
 10
166.04646301269531
 20
558.61614990234375
 42
-1
  0
SEQEND
  0
POLYLINE
  8
0
 10
0
 20
0
 39
0
 70
1
 66
1
  0
VERTEX
  8
0
 10
527.01898193359375
 20
293.49911499023437
 42
1
  0
VERTEX
  8
0
 10
526.2117919921875
 20
108.50087738037109
 42
1
  0
SEQEND
  0
POLYLINE
  8
0
 10
0
 20
0
 39
0
 70
1
 66
1
  0
VERTEX
  8
0
 10
526.95355224609375
 20
278.499267578125
 42
-1
  0
VERTEX
  8
0
 10
526.2772216796875
 20
123.50074005126953
 42
-1
  0
SEQEND
  0
POLYLINE
  8
0
 10
0
 20
0
 39
0
 70
1
 66
1
  0
VERTEX
  8
0
 10
527.01898193359375
 20
728.614501953125
 42
1
  0
VERTEX
  8
0
 10
526.2117919921875
 20
543.61627197265625
 42
1
  0
SEQEND
  0
POLYLINE
  8
0
 10
0
 20
0
 39
0
 70
1
 66
1
  0
VERTEX
  8
0
 10
526.95355224609375
 20
713.6146240234375
 42
-1
  0
VERTEX
  8
0
 10
526.2772216796875
 20
558.61614990234375
 42
-1
  0
SEQEND
  0
POLYLINE
  8
0
 10
0
 20
0
 39
0
 70
1
 66
1
  0
VERTEX
  8
0
 10
887.249755859375
 20
293.49911499023437
 42
1
  0
VERTEX
  8
0
 10
886.44256591796875
 20
108.50087738037109
 42
1
  0
SEQEND
  0
POLYLINE
  8
0
 10
0
 20
0
 39
0
 70
1
 66
1
  0
VERTEX
  8
0
 10
887.184326171875
 20
278.499267578125
 42
-1
  0
VERTEX
  8
0
 10
886.50799560546875
 20
123.50074005126953
 42
-1
  0
SEQEND
  0
POLYLINE
  8
0
 10
0
 20
0
 39
0
 70
1
 66
1
  0
VERTEX
  8
0
 10
887.249755859375
 20
728.614501953125
 42
1
  0
VERTEX
  8
0
 10
886.44256591796875
 20
543.61627197265625
 42
1
  0
SEQEND
  0
POLYLINE
  8
0
 10
0
 20
0
 39
0
 70
1
 66
1
  0
VERTEX
  8
0
 10
887.184326171875
 20
713.6146240234375
 42
-1
  0
VERTEX
  8
0
 10
886.50799560546875
 20
558.61614990234375
 42
-1
  0
SEQEND
  0
POLYLINE
  8
0
 10
0
 20
0
 39
0
 70
1
 66
1
  0
VERTEX
  8
0
 10
1247.48046875
 20
293.49911499023437
 42
1
  0
VERTEX
  8
0
 10
1246.67333984375
 20
108.50087738037109
 42
1
  0
SEQEND
  0
POLYLINE
  8
0
 10
0
 20
0
 39
0
 70
1
 66
1
  0
VERTEX
  8
0
 10
1247.4150390625
 20
278.499267578125
 42
-1
  0
VERTEX
  8
0
 10
1246.73876953125
 20
123.50074005126953
 42
-1
  0
SEQEND
  0
POLYLINE
  8
0
 10
0
 20
0
 39
0
 70
1
 66
1
  0
VERTEX
  8
0
 10
1247.48046875
 20
728.614501953125
 42
1
  0
VERTEX
  8
0
 10
1246.67333984375
 20
543.61627197265625
 42
1
  0
SEQEND
  0
POLYLINE
  8
0
 10
0
 20
0
 39
0
 70
1
 66
1
  0
VERTEX
  8
0
 10
1247.4150390625
 20
713.6146240234375
 42
-1
  0
VERTEX
  8
0
 10
1246.73876953125
 20
558.61614990234375
 42
-1
  0
SEQEND
  0
POLYLINE
  8
0
 10
0
 20
0
 39
0
 70
1
 66
1
  0
VERTEX
  8
0
 10
125.6495361328125
 20
250.84616088867187
 42
0.66817861795425415
  0
VERTEX
  8
0
 10
123.52821350097656
 20
245.72483825683594
 42
-0
  0
VERTEX
  8
0
 10
125.5045166015625
 20
244.06275939941406
 42
-1.0900845527648926
  0
VERTEX
  8
0
 10
114.93724822998047
 20
233.49549865722656
 42
0
  0
VERTEX
  8
0
 10
113.27516937255859
 20
235.47178649902344
 42
0.66817861795425415
  0
VERTEX
  8
0
 10
108.15384674072266
 20
233.3504638671875
 42
0
  0
VERTEX
  8
0
 10
108.15384674072266
 20
168.34184265136719
 42
0.66817861795425415
  0
VERTEX
  8
0
 10
113.27516937255859
 20
166.22052001953125
 42
-0
  0
VERTEX
  8
0
 10
114.93724822998047
 20
168.19682312011719
 42
-1.0900845527648926
  0
VERTEX
  8
0
 10
125.50450897216797
 20
157.62956237792969
 42
0
  0
VERTEX
  8
0
 10
123.52821350097656
 20
155.96746826171875
 42
0.66817861795425415
  0
VERTEX
  8
0
 10
125.6495361328125
 20
150.84616088867187
 42
0
  0
VERTEX
  8
0
 10
190.65815734863281
 20
150.84616088867187
 42
0.66817861795425415
  0
VERTEX
  8
0
 10
192.77947998046875
 20
155.96746826171875
 42
-0
  0
VERTEX
  8
0
 10
190.80317687988281
 20
157.62954711914062
 42
-1.0900845527648926
  0
VERTEX
  8
0
 10
201.37043762207031
 20
168.19682312011719
 42
0
  0
VERTEX
  8
0
 10
203.03253173828125
 20
166.22052001953125
 42
0.66817861795425415
  0
VERTEX
  8
0
 10
208.15383911132812
 20
168.34184265136719
 42
0
  0
VERTEX
  8
0
 10
208.15383911132812
 20
233.3504638671875
 42
0.66817861795425415
  0
VERTEX
  8
0
 10
203.03253173828125
 20
235.47178649902344
 42
-0
  0
VERTEX
  8
0
 10
201.37045288085937
 20
233.4954833984375
 42
-1.0900845527648926
  0
VERTEX
  8
0
 10
190.80317687988281
 20
244.06275939941406
 42
0
  0
VERTEX
  8
0
 10
192.77947998046875
 20
245.72483825683594
 42
0.66817861795425415
  0
VERTEX
  8
0
 10
190.65815734863281
 20
250.84616088867187
 42
0
  0
SEQEND
  0
POLYLINE
  8
0
 10
0
 20
0
 39
0
 70
1
 66
1
  0
VERTEX
  8
0
 10
196.15383911132812
 20
200.84616088867187
 42
-1
  0
VERTEX
  8
0
 10
120.15384674072266
 20
200.84616088867187
 42
-1
  0
SEQEND
  0
POLYLINE
  8
0
 10
0
 20
0
 39
0
 70
1
 66
1
  0
VERTEX
  8
0
 10
125.6495361328125
 20
685.9615478515625
 42
0.66817861795425415
  0
VERTEX
  8
0
 10
123.52821350097656
 20
680.8402099609375
 42
-0
  0
VERTEX
  8
0
 10
125.5045166015625
 20
679.17816162109375
 42
-1.0900845527648926
  0
VERTEX
  8
0
 10
114.93724822998047
 20
668.61090087890625
 42
0
  0
VERTEX
  8
0
 10
113.27516937255859
 20
670.587158203125
 42
0.66817861795425415
  0
VERTEX
  8
0
 10
108.15384674072266
 20
668.4658203125
 42
0
  0
VERTEX
  8
0
 10
108.15384674072266
 20
603.45721435546875
 42
0.66817861795425415
  0
VERTEX
  8
0
 10
113.27516937255859
 20
601.3359375
 42
-0
  0
VERTEX
  8
0
 10
114.93724822998047
 20
603.31219482421875
 42
-1.0900845527648926
  0
VERTEX
  8
0
 10
125.50450897216797
 20
592.74493408203125
 42
0
  0
VERTEX
  8
0
 10
123.52821350097656
 20
591.0828857421875
 42
0.66817861795425415
  0
VERTEX
  8
0
 10
125.6495361328125
 20
585.9615478515625
 42
0
  0
VERTEX
  8
0
 10
190.65815734863281
 20
585.9615478515625
 42
0.66817861795425415
  0
VERTEX
  8
0
 10
192.77947998046875
 20
591.0828857421875
 42
-0
  0
VERTEX
  8
0
 10
190.80317687988281
 20
592.74493408203125
 42
-1.0900845527648926
  0
VERTEX
  8
0
 10
201.37043762207031
 20
603.31219482421875
 42
0
  0
VERTEX
  8
0
 10
203.03253173828125
 20
601.3359375
 42
0.66817861795425415
  0
VERTEX
  8
0
 10
208.15383911132812
 20
603.45721435546875
 42
0
  0
VERTEX
  8
0
 10
208.15383911132812
 20
668.4658203125
 42
0.66817861795425415
  0
VERTEX
  8
0
 10
203.03253173828125
 20
670.587158203125
 42
-0
  0
VERTEX
  8
0
 10
201.37045288085937
 20
668.61083984375
 42
-1.0900845527648926
  0
VERTEX
  8
0
 10
190.80317687988281
 20
679.17816162109375
 42
0
  0
VERTEX
  8
0
 10
192.77947998046875
 20
680.8402099609375
 42
0.66817861795425415
  0
VERTEX
  8
0
 10
190.65815734863281
 20
685.9615478515625
 42
0
  0
SEQEND
  0
POLYLINE
  8
0
 10
0
 20
0
 39
0
 70
1
 66
1
  0
VERTEX
  8
0
 10
196.15383911132812
 20
635.9615478515625
 42
-1
  0
VERTEX
  8
0
 10
120.15384674072266
 20
635.9615478515625
 42
-1
  0
SEQEND
  0
POLYLINE
  8
0
 10
0
 20
0
 39
0
 70
1
 66
1
  0
VERTEX
  8
0
 10
485.88031005859375
 20
250.84616088867187
 42
0.66817861795425415
  0
VERTEX
  8
0
 10
483.75897216796875
 20
245.72483825683594
 42
-0
  0
VERTEX
  8
0
 10
485.73529052734375
 20
244.06275939941406
 42
-1.0900845527648926
  0
VERTEX
  8
0
 10
475.16802978515625
 20
233.49549865722656
 42
0
  0
VERTEX
  8
0
 10
473.50595092773437
 20
235.47178649902344
 42
0.66817861795425415
  0
VERTEX
  8
0
 10
468.38461303710937
 20
233.3504638671875
 42
0
  0
VERTEX
  8
0
 10
468.38461303710937
 20
168.34184265136719
 42
0.66817861795425415
  0
VERTEX
  8
0
 10
473.50595092773437
 20
166.22052001953125
 42
-0
  0
VERTEX
  8
0
 10
475.16802978515625
 20
168.19682312011719
 42
-1.0900845527648926
  0
VERTEX
  8
0
 10
485.73529052734375
 20
157.62956237792969
 42
0
  0
VERTEX
  8
0
 10
483.75897216796875
 20
155.96746826171875
 42
0.66817861795425415
  0
VERTEX
  8
0
 10
485.88031005859375
 20
150.84616088867187
 42
0
  0
VERTEX
  8
0
 10
550.888916015625
 20
150.84616088867187
 42
0.66817861795425415
  0
VERTEX
  8
0
 10
553.01025390625
 20
155.96746826171875
 42
-0
  0
VERTEX
  8
0
 10
551.033935546875
 20
157.62954711914062
 42
-1.0900845527648926
  0
VERTEX
  8
0
 10
561.6011962890625
 20
168.19682312011719
 42
0
  0
VERTEX
  8
0
 10
563.2633056640625
 20
166.22052001953125
 42
0.66817861795425415
  0
VERTEX
  8
0
 10
568.3846435546875
 20
168.34184265136719
 42
0
  0
VERTEX
  8
0
 10
568.3846435546875
 20
233.3504638671875
 42
0.66817861795425415
  0
VERTEX
  8
0
 10
563.2633056640625
 20
235.47178649902344
 42
-0
  0
VERTEX
  8
0
 10
561.6011962890625
 20
233.4954833984375
 42
-1.0900845527648926
  0
VERTEX
  8
0
 10
551.033935546875
 20
244.06275939941406
 42
0
  0
VERTEX
  8
0
 10
553.01025390625
 20
245.72483825683594
 42
0.66817861795425415
  0
VERTEX
  8
0
 10
550.888916015625
 20
250.84616088867187
 42
0
  0
SEQEND
  0
POLYLINE
  8
0
 10
0
 20
0
 39
0
 70
1
 66
1
  0
VERTEX
  8
0
 10
556.3846435546875
 20
200.84616088867187
 42
-1
  0
VERTEX
  8
0
 10
480.38461303710937
 20
200.84616088867187
 42
-1
  0
SEQEND
  0
POLYLINE
  8
0
 10
0
 20
0
 39
0
 70
1
 66
1
  0
VERTEX
  8
0
 10
485.88031005859375
 20
685.9615478515625
 42
0.66817861795425415
  0
VERTEX
  8
0
 10
483.75897216796875
 20
680.8402099609375
 42
-0
  0
VERTEX
  8
0
 10
485.73529052734375
 20
679.17816162109375
 42
-1.0900845527648926
  0
VERTEX
  8
0
 10
475.16802978515625
 20
668.61090087890625
 42
0
  0
VERTEX
  8
0
 10
473.50595092773437
 20
670.587158203125
 42
0.66817861795425415
  0
VERTEX
  8
0
 10
468.38461303710937
 20
668.4658203125
 42
0
  0
VERTEX
  8
0
 10
468.38461303710937
 20
603.45721435546875
 42
0.66817861795425415
  0
VERTEX
  8
0
 10
473.50595092773437
 20
601.3359375
 42
-0
  0
VERTEX
  8
0
 10
475.16802978515625
 20
603.31219482421875
 42
-1.0900845527648926
  0
VERTEX
  8
0
 10
485.73529052734375
 20
592.74493408203125
 42
0
  0
VERTEX
  8
0
 10
483.75897216796875
 20
591.0828857421875
 42
0.66817861795425415
  0
VERTEX
  8
0
 10
485.88031005859375
 20
585.9615478515625
 42
0
  0
VERTEX
  8
0
 10
550.888916015625
 20
585.9615478515625
 42
0.66817861795425415
  0
VERTEX
  8
0
 10
553.01025390625
 20
591.0828857421875
 42
-0
  0
VERTEX
  8
0
 10
551.033935546875
 20
592.74493408203125
 42
-1.0900845527648926
  0
VERTEX
  8
0
 10
561.6011962890625
 20
603.31219482421875
 42
0
  0
VERTEX
  8
0
 10
563.2633056640625
 20
601.3359375
 42
0.66817861795425415
  0
VERTEX
  8
0
 10
568.3846435546875
 20
603.45721435546875
 42
0
  0
VERTEX
  8
0
 10
568.3846435546875
 20
668.4658203125
 42
0.66817861795425415
  0
VERTEX
  8
0
 10
563.2633056640625
 20
670.587158203125
 42
-0
  0
VERTEX
  8
0
 10
561.6011962890625
 20
668.61083984375
 42
-1.0900845527648926
  0
VERTEX
  8
0
 10
551.033935546875
 20
679.17816162109375
 42
0
  0
VERTEX
  8
0
 10
553.01025390625
 20
680.8402099609375
 42
0.66817861795425415
  0
VERTEX
  8
0
 10
550.888916015625
 20
685.9615478515625
 42
0
  0
SEQEND
  0
POLYLINE
  8
0
 10
0
 20
0
 39
0
 70
1
 66
1
  0
VERTEX
  8
0
 10
556.3846435546875
 20
635.9615478515625
 42
-1
  0
VERTEX
  8
0
 10
480.38461303710937
 20
635.9615478515625
 42
-1
  0
SEQEND
  0
POLYLINE
  8
0
 10
0
 20
0
 39
0
 70
1
 66
1
  0
VERTEX
  8
0
 10
846.111083984375
 20
250.84616088867187
 42
0.66817861795425415
  0
VERTEX
  8
0
 10
843.98974609375
 20
245.72483825683594
 42
-0
  0
VERTEX
  8
0
 10
845.966064453125
 20
244.06275939941406
 42
-1.0900845527648926
  0
VERTEX
  8
0
 10
835.3988037109375
 20
233.49549865722656
 42
0
  0
VERTEX
  8
0
 10
833.7366943359375
 20
235.47178649902344
 42
0.66817861795425415
  0
VERTEX
  8
0
 10
828.6153564453125
 20
233.3504638671875
 42
0
  0
VERTEX
  8
0
 10
828.6153564453125
 20
168.34184265136719
 42
0.66817861795425415
  0
VERTEX
  8
0
 10
833.7366943359375
 20
166.22052001953125
 42
-0
  0
VERTEX
  8
0
 10
835.3988037109375
 20
168.19682312011719
 42
-1.0900845527648926
  0
VERTEX
  8
0
 10
845.966064453125
 20
157.62956237792969
 42
0
  0
VERTEX
  8
0
 10
843.98974609375
 20
155.96746826171875
 42
0.66817861795425415
  0
VERTEX
  8
0
 10
846.111083984375
 20
150.84616088867187
 42
0
  0
VERTEX
  8
0
 10
911.11968994140625
 20
150.84616088867187
 42
0.66817861795425415
  0
VERTEX
  8
0
 10
913.24102783203125
 20
155.96746826171875
 42
-0
  0
VERTEX
  8
0
 10
911.26470947265625
 20
157.62954711914062
 42
-1.0900845527648926
  0
VERTEX
  8
0
 10
921.83197021484375
 20
168.19682312011719
 42
0
  0
VERTEX
  8
0
 10
923.49407958984375
 20
166.22052001953125
 42
0.66817861795425415
  0
VERTEX
  8
0
 10
928.6153564453125
 20
168.34184265136719
 42
0
  0
VERTEX
  8
0
 10
928.6153564453125
 20
233.3504638671875
 42
0.66817861795425415
  0
VERTEX
  8
0
 10
923.49407958984375
 20
235.47178649902344
 42
-0
  0
VERTEX
  8
0
 10
921.83197021484375
 20
233.4954833984375
 42
-1.0900845527648926
  0
VERTEX
  8
0
 10
911.26470947265625
 20
244.06275939941406
 42
0
  0
VERTEX
  8
0
 10
913.24102783203125
 20
245.72483825683594
 42
0.66817861795425415
  0
VERTEX
  8
0
 10
911.11968994140625
 20
250.84616088867187
 42
0
  0
SEQEND
  0
POLYLINE
  8
0
 10
0
 20
0
 39
0
 70
1
 66
1
  0
VERTEX
  8
0
 10
916.6153564453125
 20
200.84616088867187
 42
-1
  0
VERTEX
  8
0
 10
840.6153564453125
 20
200.84616088867187
 42
-1
  0
SEQEND
  0
POLYLINE
  8
0
 10
0
 20
0
 39
0
 70
1
 66
1
  0
VERTEX
  8
0
 10
846.111083984375
 20
685.9615478515625
 42
0.66817861795425415
  0
VERTEX
  8
0
 10
843.98974609375
 20
680.8402099609375
 42
-0
  0
VERTEX
  8
0
 10
845.966064453125
 20
679.17816162109375
 42
-1.0900845527648926
  0
VERTEX
  8
0
 10
835.3988037109375
 20
668.61090087890625
 42
0
  0
VERTEX
  8
0
 10
833.7366943359375
 20
670.587158203125
 42
0.66817861795425415
  0
VERTEX
  8
0
 10
828.6153564453125
 20
668.4658203125
 42
0
  0
VERTEX
  8
0
 10
828.6153564453125
 20
603.45721435546875
 42
0.66817861795425415
  0
VERTEX
  8
0
 10
833.7366943359375
 20
601.3359375
 42
-0
  0
VERTEX
  8
0
 10
835.3988037109375
 20
603.31219482421875
 42
-1.0900845527648926
  0
VERTEX
  8
0
 10
845.966064453125
 20
592.74493408203125
 42
0
  0
VERTEX
  8
0
 10
843.98974609375
 20
591.0828857421875
 42
0.66817861795425415
  0
VERTEX
  8
0
 10
846.111083984375
 20
585.9615478515625
 42
0
  0
VERTEX
  8
0
 10
911.11968994140625
 20
585.9615478515625
 42
0.66817861795425415
  0
VERTEX
  8
0
 10
913.24102783203125
 20
591.0828857421875
 42
-0
  0
VERTEX
  8
0
 10
911.26470947265625
 20
592.74493408203125
 42
-1.0900845527648926
  0
VERTEX
  8
0
 10
921.83197021484375
 20
603.31219482421875
 42
0
  0
VERTEX
  8
0
 10
923.49407958984375
 20
601.3359375
 42
0.66817861795425415
  0
VERTEX
  8
0
 10
928.6153564453125
 20
603.45721435546875
 42
0
  0
VERTEX
  8
0
 10
928.6153564453125
 20
668.4658203125
 42
0.66817861795425415
  0
VERTEX
  8
0
 10
923.49407958984375
 20
670.587158203125
 42
-0
  0
VERTEX
  8
0
 10
921.83197021484375
 20
668.61083984375
 42
-1.0900845527648926
  0
VERTEX
  8
0
 10
911.26470947265625
 20
679.17816162109375
 42
0
  0
VERTEX
  8
0
 10
913.24102783203125
 20
680.8402099609375
 42
0.66817861795425415
  0
VERTEX
  8
0
 10
911.11968994140625
 20
685.9615478515625
 42
0
  0
SEQEND
  0
POLYLINE
  8
0
 10
0
 20
0
 39
0
 70
1
 66
1
  0
VERTEX
  8
0
 10
916.6153564453125
 20
635.9615478515625
 42
-1
  0
VERTEX
  8
0
 10
840.6153564453125
 20
635.9615478515625
 42
-1
  0
SEQEND
  0
POLYLINE
  8
0
 10
0
 20
0
 39
0
 70
1
 66
1
  0
VERTEX
  8
0
 10
1206.341796875
 20
250.84616088867187
 42
0.66817861795425415
  0
VERTEX
  8
0
 10
1204.2205810546875
 20
245.72483825683594
 42
-0
  0
VERTEX
  8
0
 10
1206.19677734375
 20
244.06275939941406
 42
-1.0900845527648926
  0
VERTEX
  8
0
 10
1195.6295166015625
 20
233.49549865722656
 42
0
  0
VERTEX
  8
0
 10
1193.967529296875
 20
235.47178649902344
 42
0.66817861795425415
  0
VERTEX
  8
0
 10
1188.84619140625
 20
233.3504638671875
 42
0
  0
VERTEX
  8
0
 10
1188.84619140625
 20
168.34184265136719
 42
0.66817861795425415
  0
VERTEX
  8
0
 10
1193.967529296875
 20
166.22052001953125
 42
-0
  0
VERTEX
  8
0
 10
1195.6295166015625
 20
168.19682312011719
 42
-1.0900845527648926
  0
VERTEX
  8
0
 10
1206.19677734375
 20
157.62956237792969
 42
0
  0
VERTEX
  8
0
 10
1204.2205810546875
 20
155.96746826171875
 42
0.66817861795425415
  0
VERTEX
  8
0
 10
1206.341796875
 20
150.84616088867187
 42
0
  0
VERTEX
  8
0
 10
1271.3504638671875
 20
150.84616088867187
 42
0.66817861795425415
  0
VERTEX
  8
0
 10
1273.4718017578125
 20
155.96746826171875
 42
-0
  0
VERTEX
  8
0
 10
1271.4954833984375
 20
157.62954711914062
 42
-1.0900845527648926
  0
VERTEX
  8
0
 10
1282.062744140625
 20
168.19682312011719
 42
0
  0
VERTEX
  8
0
 10
1283.724853515625
 20
166.22052001953125
 42
0.66817861795425415
  0
VERTEX
  8
0
 10
1288.84619140625
 20
168.34184265136719
 42
0
  0
VERTEX
  8
0
 10
1288.84619140625
 20
233.3504638671875
 42
0.66817861795425415
  0
VERTEX
  8
0
 10
1283.724853515625
 20
235.47178649902344
 42
-0
  0
VERTEX
  8
0
 10
1282.062744140625
 20
233.4954833984375
 42
-1.0900845527648926
  0
VERTEX
  8
0
 10
1271.4954833984375
 20
244.06275939941406
 42
0
  0
VERTEX
  8
0
 10
1273.4718017578125
 20
245.72483825683594
 42
0.66817861795425415
  0
VERTEX
  8
0
 10
1271.3504638671875
 20
250.84616088867187
 42
0
  0
SEQEND
  0
POLYLINE
  8
0
 10
0
 20
0
 39
0
 70
1
 66
1
  0
VERTEX
  8
0
 10
1276.84619140625
 20
200.84616088867187
 42
-1
  0
VERTEX
  8
0
 10
1200.84619140625
 20
200.84616088867187
 42
-1
  0
SEQEND
  0
POLYLINE
  8
0
 10
0
 20
0
 39
0
 70
1
 66
1
  0
VERTEX
  8
0
 10
1206.341796875
 20
685.9615478515625
 42
0.66817861795425415
  0
VERTEX
  8
0
 10
1204.2205810546875
 20
680.8402099609375
 42
-0
  0
VERTEX
  8
0
 10
1206.19677734375
 20
679.17816162109375
 42
-1.0900845527648926
  0
VERTEX
  8
0
 10
1195.6295166015625
 20
668.61090087890625
 42
0
  0
VERTEX
  8
0
 10
1193.967529296875
 20
670.587158203125
 42
0.66817861795425415
  0
VERTEX
  8
0
 10
1188.84619140625
 20
668.4658203125
 42
0
  0
VERTEX
  8
0
 10
1188.84619140625
 20
603.45721435546875
 42
0.66817861795425415
  0
VERTEX
  8
0
 10
1193.967529296875
 20
601.3359375
 42
-0
  0
VERTEX
  8
0
 10
1195.6295166015625
 20
603.31219482421875
 42
-1.0900845527648926
  0
VERTEX
  8
0
 10
1206.19677734375
 20
592.74493408203125
 42
0
  0
VERTEX
  8
0
 10
1204.2205810546875
 20
591.0828857421875
 42
0.66817861795425415
  0
VERTEX
  8
0
 10
1206.341796875
 20
585.9615478515625
 42
0
  0
VERTEX
  8
0
 10
1271.3504638671875
 20
585.9615478515625
 42
0.66817861795425415
  0
VERTEX
  8
0
 10
1273.4718017578125
 20
591.0828857421875
 42
-0
  0
VERTEX
  8
0
 10
1271.4954833984375
 20
592.74493408203125
 42
-1.0900845527648926
  0
VERTEX
  8
0
 10
1282.062744140625
 20
603.31219482421875
 42
0
  0
VERTEX
  8
0
 10
1283.724853515625
 20
601.3359375
 42
0.66817861795425415
  0
VERTEX
  8
0
 10
1288.84619140625
 20
603.45721435546875
 42
0
  0
VERTEX
  8
0
 10
1288.84619140625
 20
668.4658203125
 42
0.66817861795425415
  0
VERTEX
  8
0
 10
1283.724853515625
 20
670.587158203125
 42
-0
  0
VERTEX
  8
0
 10
1282.062744140625
 20
668.61083984375
 42
-1.0900845527648926
  0
VERTEX
  8
0
 10
1271.4954833984375
 20
679.17816162109375
 42
0
  0
VERTEX
  8
0
 10
1273.4718017578125
 20
680.8402099609375
 42
0.66817861795425415
  0
VERTEX
  8
0
 10
1271.3504638671875
 20
685.9615478515625
 42
0
  0
SEQEND
  0
POLYLINE
  8
0
 10
0
 20
0
 39
0
 70
1
 66
1
  0
VERTEX
  8
0
 10
1276.84619140625
 20
635.9615478515625
 42
-1
  0
VERTEX
  8
0
 10
1200.84619140625
 20
635.9615478515625
 42
-1
  0
SEQEND
  0
POLYLINE
  8
0
 10
0
 20
0
 39
0
 70
1
 66
1
  0
VERTEX
  8
0
 10
273.88461303710937
 20
303.5
 42
-0
  0
VERTEX
  8
0
 10
273.88461303710937
 20
353.5
 42
-0
  0
VERTEX
  8
0
 10
73.884613037109375
 20
353.5
 42
-0
  0
VERTEX
  8
0
 10
73.884613037109375
 20
303.5
 42
0
  0
SEQEND
  0
POLYLINE
  8
0
 10
0
 20
0
 39
0
 70
1
 66
1
  0
VERTEX
  8
0
 10
237.21128845214844
 20
328.5
 42
-1
  0
VERTEX
  8
0
 10
207.21128845214844
 20
328.5
 42
-1
  0
SEQEND
  0
POLYLINE
  8
0
 10
0
 20
0
 39
0
 70
1
 66
1
  0
VERTEX
  8
0
 10
273.88461303710937
 20
738.6153564453125
 42
-0
  0
VERTEX
  8
0
 10
273.88461303710937
 20
788.6153564453125
 42
-0
  0
VERTEX
  8
0
 10
73.884613037109375
 20
788.6153564453125
 42
-0
  0
VERTEX
  8
0
 10
73.884613037109375
 20
738.6153564453125
 42
0
  0
SEQEND
  0
POLYLINE
  8
0
 10
0
 20
0
 39
0
 70
1
 66
1
  0
VERTEX
  8
0
 10
237.21128845214844
 20
763.6153564453125
 42
-1
  0
VERTEX
  8
0
 10
207.21128845214844
 20
763.6153564453125
 42
-1
  0
SEQEND
  0
POLYLINE
  8
0
 10
0
 20
0
 39
0
 70
1
 66
1
  0
VERTEX
  8
0
 10
634.1153564453125
 20
303.5
 42
-0
  0
VERTEX
  8
0
 10
634.1153564453125
 20
353.5
 42
-0
  0
VERTEX
  8
0
 10
434.11538696289062
 20
353.5
 42
-0
  0
VERTEX
  8
0
 10
434.11538696289062
 20
303.5
 42
0
  0
SEQEND
  0
POLYLINE
  8
0
 10
0
 20
0
 39
0
 70
1
 66
1
  0
VERTEX
  8
0
 10
597.44207763671875
 20
328.5
 42
-1
  0
VERTEX
  8
0
 10
567.44207763671875
 20
328.5
 42
-1
  0
SEQEND
  0
POLYLINE
  8
0
 10
0
 20
0
 39
0
 70
1
 66
1
  0
VERTEX
  8
0
 10
634.1153564453125
 20
738.6153564453125
 42
-0
  0
VERTEX
  8
0
 10
634.1153564453125
 20
788.6153564453125
 42
-0
  0
VERTEX
  8
0
 10
434.11538696289062
 20
788.6153564453125
 42
-0
  0
VERTEX
  8
0
 10
434.11538696289062
 20
738.6153564453125
 42
0
  0
SEQEND
  0
POLYLINE
  8
0
 10
0
 20
0
 39
0
 70
1
 66
1
  0
VERTEX
  8
0
 10
597.44207763671875
 20
763.6153564453125
 42
-1
  0
VERTEX
  8
0
 10
567.44207763671875
 20
763.6153564453125
 42
-1
  0
SEQEND
  0
POLYLINE
  8
0
 10
0
 20
0
 39
0
 70
1
 66
1
  0
VERTEX
  8
0
 10
994.34613037109375
 20
303.5
 42
-0
  0
VERTEX
  8
0
 10
994.34613037109375
 20
353.5
 42
-0
  0
VERTEX
  8
0
 10
794.34613037109375
 20
353.5
 42
-0
  0
VERTEX
  8
0
 10
794.34613037109375
 20
303.5
 42
0
  0
SEQEND
  0
POLYLINE
  8
0
 10
0
 20
0
 39
0
 70
1
 66
1
  0
VERTEX
  8
0
 10
957.6728515625
 20
328.5
 42
-1
  0
VERTEX
  8
0
 10
927.6728515625
 20
328.5
 42
-1
  0
SEQEND
  0
POLYLINE
  8
0
 10
0
 20
0
 39
0
 70
1
 66
1
  0
VERTEX
  8
0
 10
994.34613037109375
 20
738.6153564453125
 42
-0
  0
VERTEX
  8
0
 10
994.34613037109375
 20
788.6153564453125
 42
-0
  0
VERTEX
  8
0
 10
794.34613037109375
 20
788.6153564453125
 42
-0
  0
VERTEX
  8
0
 10
794.34613037109375
 20
738.6153564453125
 42
0
  0
SEQEND
  0
POLYLINE
  8
0
 10
0
 20
0
 39
0
 70
1
 66
1
  0
VERTEX
  8
0
 10
957.6728515625
 20
763.6153564453125
 42
-1
  0
VERTEX
  8
0
 10
927.6728515625
 20
763.6153564453125
 42
-1
  0
SEQEND
  0
POLYLINE
  8
0
 10
0
 20
0
 39
0
 70
1
 66
1
  0
VERTEX
  8
0
 10
1354.576904296875
 20
303.5
 42
-0
  0
VERTEX
  8
0
 10
1354.576904296875
 20
353.5
 42
-0
  0
VERTEX
  8
0
 10
1154.576904296875
 20
353.5
 42
-0
  0
VERTEX
  8
0
 10
1154.576904296875
 20
303.5
 42
0
  0
SEQEND
  0
POLYLINE
  8
0
 10
0
 20
0
 39
0
 70
1
 66
1
  0
VERTEX
  8
0
 10
1317.903564453125
 20
328.5
 42
-1
  0
VERTEX
  8
0
 10
1287.903564453125
 20
328.5
 42
-1
  0
SEQEND
  0
POLYLINE
  8
0
 10
0
 20
0
 39
0
 70
1
 66
1
  0
VERTEX
  8
0
 10
1354.576904296875
 20
738.6153564453125
 42
-0
  0
VERTEX
  8
0
 10
1354.576904296875
 20
788.6153564453125
 42
-0
  0
VERTEX
  8
0
 10
1154.576904296875
 20
788.6153564453125
 42
-0
  0
VERTEX
  8
0
 10
1154.576904296875
 20
738.6153564453125
 42
0
  0
SEQEND
  0
POLYLINE
  8
0
 10
0
 20
0
 39
0
 70
1
 66
1
  0
VERTEX
  8
0
 10
1317.903564453125
 20
763.6153564453125
 42
-1
  0
VERTEX
  8
0
 10
1287.903564453125
 20
763.6153564453125
 42
-1
  0
SEQEND
  0
POLYLINE
  8
0
 10
0
 20
0
 39
0
 70
1
 66
1
  0
VERTEX
  8
0
 10
173.88461303710937
 20
47.346153259277344
 42
-0
  0
VERTEX
  8
0
 10
173.88461303710937
 20
97.346153259277344
 42
0
  0
VERTEX
  8
0
 10
73.884613037109375
 20
97.346153259277344
 42
0
  0
VERTEX
  8
0
 10
73.884613037109375
 20
47.346153259277344
 42
0
  0
SEQEND
  0
POLYLINE
  8
0
 10
0
 20
0
 39
0
 70
1
 66
1
  0
VERTEX
  8
0
 10
150.28665161132812
 20
72.346153259277344
 42
-1
  0
VERTEX
  8
0
 10
123.28665161132812
 20
72.346153259277344
 42
-1
  0
SEQEND
  0
POLYLINE
  8
0
 10
0
 20
0
 39
0
 70
1
 66
1
  0
VERTEX
  8
0
 10
173.88461303710937
 20
482.4615478515625
 42
-0
  0
VERTEX
  8
0
 10
173.88461303710937
 20
532.4615478515625
 42
0
  0
VERTEX
  8
0
 10
73.884613037109375
 20
532.4615478515625
 42
0
  0
VERTEX
  8
0
 10
73.884613037109375
 20
482.4615478515625
 42
0
  0
SEQEND
  0
POLYLINE
  8
0
 10
0
 20
0
 39
0
 70
1
 66
1
  0
VERTEX
  8
0
 10
150.28665161132812
 20
507.4615478515625
 42
-1
  0
VERTEX
  8
0
 10
123.28665161132812
 20
507.4615478515625
 42
-1
  0
SEQEND
  0
POLYLINE
  8
0
 10
0
 20
0
 39
0
 70
1
 66
1
  0
VERTEX
  8
0
 10
534.1153564453125
 20
47.346153259277344
 42
-0
  0
VERTEX
  8
0
 10
534.1153564453125
 20
97.346153259277344
 42
0
  0
VERTEX
  8
0
 10
434.11538696289062
 20
97.346153259277344
 42
0
  0
VERTEX
  8
0
 10
434.11538696289062
 20
47.346153259277344
 42
0
  0
SEQEND
  0
POLYLINE
  8
0
 10
0
 20
0
 39
0
 70
1
 66
1
  0
VERTEX
  8
0
 10
510.51742553710937
 20
72.346153259277344
 42
-1
  0
VERTEX
  8
0
 10
483.51742553710937
 20
72.346153259277344
 42
-1
  0
SEQEND
  0
POLYLINE
  8
0
 10
0
 20
0
 39
0
 70
1
 66
1
  0
VERTEX
  8
0
 10
534.1153564453125
 20
482.4615478515625
 42
-0
  0
VERTEX
  8
0
 10
534.1153564453125
 20
532.4615478515625
 42
0
  0
VERTEX
  8
0
 10
434.11538696289062
 20
532.4615478515625
 42
0
  0
VERTEX
  8
0
 10
434.11538696289062
 20
482.4615478515625
 42
0
  0
SEQEND
  0
POLYLINE
  8
0
 10
0
 20
0
 39
0
 70
1
 66
1
  0
VERTEX
  8
0
 10
510.51742553710937
 20
507.4615478515625
 42
-1
  0
VERTEX
  8
0
 10
483.51742553710937
 20
507.4615478515625
 42
-1
  0
SEQEND
  0
POLYLINE
  8
0
 10
0
 20
0
 39
0
 70
1
 66
1
  0
VERTEX
  8
0
 10
894.34613037109375
 20
47.346153259277344
 42
-0
  0
VERTEX
  8
0
 10
894.34613037109375
 20
97.346153259277344
 42
0
  0
VERTEX
  8
0
 10
794.34613037109375
 20
97.346153259277344
 42
0
  0
VERTEX
  8
0
 10
794.34613037109375
 20
47.346153259277344
 42
0
  0
SEQEND
  0
POLYLINE
  8
0
 10
0
 20
0
 39
0
 70
1
 66
1
  0
VERTEX
  8
0
 10
870.7481689453125
 20
72.346153259277344
 42
-1
  0
VERTEX
  8
0
 10
843.7481689453125
 20
72.346153259277344
 42
-1
  0
SEQEND
  0
POLYLINE
  8
0
 10
0
 20
0
 39
0
 70
1
 66
1
  0
VERTEX
  8
0
 10
894.34613037109375
 20
482.4615478515625
 42
-0
  0
VERTEX
  8
0
 10
894.34613037109375
 20
532.4615478515625
 42
0
  0
VERTEX
  8
0
 10
794.34613037109375
 20
532.4615478515625
 42
0
  0
VERTEX
  8
0
 10
794.34613037109375
 20
482.4615478515625
 42
0
  0
SEQEND
  0
POLYLINE
  8
0
 10
0
 20
0
 39
0
 70
1
 66
1
  0
VERTEX
  8
0
 10
870.7481689453125
 20
507.4615478515625
 42
-1
  0
VERTEX
  8
0
 10
843.7481689453125
 20
507.4615478515625
 42
-1
  0
SEQEND
  0
POLYLINE
  8
0
 10
0
 20
0
 39
0
 70
1
 66
1
  0
VERTEX
  8
0
 10
1254.576904296875
 20
47.346153259277344
 42
-0
  0
VERTEX
  8
0
 10
1254.576904296875
 20
97.346153259277344
 42
0
  0
VERTEX
  8
0
 10
1154.576904296875
 20
97.346153259277344
 42
0
  0
VERTEX
  8
0
 10
1154.576904296875
 20
47.346153259277344
 42
0
  0
SEQEND
  0
POLYLINE
  8
0
 10
0
 20
0
 39
0
 70
1
 66
1
  0
VERTEX
  8
0
 10
1230.97900390625
 20
72.346153259277344
 42
-1
  0
VERTEX
  8
0
 10
1203.97900390625
 20
72.346153259277344
 42
-1
  0
SEQEND
  0
POLYLINE
  8
0
 10
0
 20
0
 39
0
 70
1
 66
1
  0
VERTEX
  8
0
 10
1254.576904296875
 20
482.4615478515625
 42
-0
  0
VERTEX
  8
0
 10
1254.576904296875
 20
532.4615478515625
 42
0
  0
VERTEX
  8
0
 10
1154.576904296875
 20
532.4615478515625
 42
0
  0
VERTEX
  8
0
 10
1154.576904296875
 20
482.4615478515625
 42
0
  0
SEQEND
  0
POLYLINE
  8
0
 10
0
 20
0
 39
0
 70
1
 66
1
  0
VERTEX
  8
0
 10
1230.97900390625
 20
507.4615478515625
 42
-1
  0
VERTEX
  8
0
 10
1203.97900390625
 20
507.4615478515625
 42
-1
  0
SEQEND
  0
POLYLINE
  8
0
 10
0
 20
0
 39
0
 70
1
 66
1
  0
VERTEX
  8
0
 10
1451.1153564453125
 20
10.192307472229004
 42
-0
  0
VERTEX
  8
0
 10
1481.1153564453125
 20
10.192307472229004
 42
-0
  0
VERTEX
  8
0
 10
1481.1153564453125
 20
165.19230651855469
 42
-0
  0
VERTEX
  8
0
 10
1476.1153564453125
 20
165.19230651855469
 42
-1
  0
VERTEX
  8
0
 10
1456.1153564453125
 20
165.19230651855469
 42
-0
  0
VERTEX
  8
0
 10
1451.1153564453125
 20
165.19230651855469
 42
0
  0
SEQEND
  0
POLYLINE
  8
0
 10
0
 20
0
 39
0
 70
1
 66
1
  0
VERTEX
  8
0
 10
1466.1153564453125
 20
26.77467155456543
 42
-1
  0
VERTEX
  8
0
 10
1466.1153564453125
 20
46.774669647216797
 42
-1
  0
SEQEND
  0
POLYLINE
  8
0
 10
0
 20
0
 39
0
 70
1
 66
1
  0
VERTEX
  8
0
 10
1451.1153564453125
 20
175.30769348144531
 42
-0
  0
VERTEX
  8
0
 10
1481.1153564453125
 20
175.30769348144531
 42
-0
  0
VERTEX
  8
0
 10
1481.1153564453125
 20
330.30767822265625
 42
-0
  0
VERTEX
  8
0
 10
1476.1153564453125
 20
330.30767822265625
 42
-1
  0
VERTEX
  8
0
 10
1456.1153564453125
 20
330.30767822265625
 42
-0
  0
VERTEX
  8
0
 10
1451.1153564453125
 20
330.30767822265625
 42
0
  0
SEQEND
  0
POLYLINE
  8
0
 10
0
 20
0
 39
0
 70
1
 66
1
  0
VERTEX
  8
0
 10
1466.1153564453125
 20
191.89006042480469
 42
-1
  0
VERTEX
  8
0
 10
1466.1153564453125
 20
211.89006042480469
 42
-1
  0
SEQEND
  0
POLYLINE
  8
0
 10
0
 20
0
 39
0
 70
1
 66
1
  0
VERTEX
  8
0
 10
1451.1153564453125
 20
340.42306518554687
 42
-0
  0
VERTEX
  8
0
 10
1481.1153564453125
 20
340.42306518554687
 42
-0
  0
VERTEX
  8
0
 10
1481.1153564453125
 20
495.42306518554687
 42
-0
  0
VERTEX
  8
0
 10
1476.1153564453125
 20
495.42306518554687
 42
-1
  0
VERTEX
  8
0
 10
1456.1153564453125
 20
495.42306518554687
 42
-0
  0
VERTEX
  8
0
 10
1451.1153564453125
 20
495.42306518554687
 42
0
  0
SEQEND
  0
POLYLINE
  8
0
 10
0
 20
0
 39
0
 70
1
 66
1
  0
VERTEX
  8
0
 10
1466.1153564453125
 20
357.00543212890625
 42
-1
  0
VERTEX
  8
0
 10
1466.1153564453125
 20
377.00543212890625
 42
-1
  0
SEQEND
  0
POLYLINE
  8
0
 10
0
 20
0
 39
0
 70
1
 66
1
  0
VERTEX
  8
0
 10
1451.1153564453125
 20
505.5384521484375
 42
-0
  0
VERTEX
  8
0
 10
1481.1153564453125
 20
505.5384521484375
 42
-0
  0
VERTEX
  8
0
 10
1481.1153564453125
 20
660.5384521484375
 42
-0
  0
VERTEX
  8
0
 10
1476.1153564453125
 20
660.5384521484375
 42
-1
  0
VERTEX
  8
0
 10
1456.1153564453125
 20
660.5384521484375
 42
-0
  0
VERTEX
  8
0
 10
1451.1153564453125
 20
660.5384521484375
 42
0
  0
SEQEND
  0
POLYLINE
  8
0
 10
0
 20
0
 39
0
 70
1
 66
1
  0
VERTEX
  8
0
 10
1466.1153564453125
 20
522.120849609375
 42
-1
  0
VERTEX
  8
0
 10
1466.1153564453125
 20
542.120849609375
 42
-1
  0
SEQEND
  0
POLYLINE
  8
0
 10
0
 20
0
 39
0
 70
1
 66
1
  0
VERTEX
  8
0
 10
1451.1153564453125
 20
670.65386962890625
 42
-0
  0
VERTEX
  8
0
 10
1481.1153564453125
 20
670.65386962890625
 42
-0
  0
VERTEX
  8
0
 10
1481.1153564453125
 20
825.65386962890625
 42
-0
  0
VERTEX
  8
0
 10
1476.1153564453125
 20
825.65386962890625
 42
-1
  0
VERTEX
  8
0
 10
1456.1153564453125
 20
825.65386962890625
 42
-0
  0
VERTEX
  8
0
 10
1451.1153564453125
 20
825.65386962890625
 42
0
  0
SEQEND
  0
POLYLINE
  8
0
 10
0
 20
0
 39
0
 70
1
 66
1
  0
VERTEX
  8
0
 10
1466.1153564453125
 20
687.2362060546875
 42
-1
  0
VERTEX
  8
0
 10
1466.1153564453125
 20
707.2362060546875
 42
-1
  0
SEQEND
  0
ENDSEC
  0
EOF
