  0
SECTION
  2
ENTITIES
  0
POLYLINE
  8
0
 10
0
 20
0
 39
0
 70
1
 66
1
  0
VERTEX
  8
0
 10
0
 20
0
 42
0
  0
VERTEX
  8
0
 10
1200
 20
0
 42
0
  0
VERTEX
  8
0
 10
1200
 20
600
 42
0
  0
VERTEX
  8
0
 10
0
 20
600
 42
0
  0
SEQEND
  0
POLYLINE
  8
0
 10
0
 20
0
 39
0
 70
1
 66
1
  0
VERTEX
  8
0
 10
10.159999847412109
 20
10.159999847412109
 42
-0
  0
VERTEX
  8
0
 10
181.70542907714844
 20
10.159999847412109
 42
-0
  0
VERTEX
  8
0
 10
210.16000366210937
 20
37.552410125732422
 42
-0
  0
VERTEX
  8
0
 10
210.16000366210937
 20
245.83123779296875
 42
0
  0
VERTEX
  8
0
 10
10.159999847412109
 20
245.83123779296875
 42
0
  0
SEQEND
  0
POLYLINE
  8
0
 10
0
 20
0
 39
0
 70
1
 66
1
  0
VERTEX
  8
0
 10
22.704973220825195
 20
25.99681282043457
 42
-0
  0
VERTEX
  8
0
 10
22.704973220825195
 20
105.99681854248047
 42
-0
  0
VERTEX
  8
0
 10
122.70497131347656
 20
105.99681854248047
 42
-0
  0
VERTEX
  8
0
 10
122.70497131347656
 20
25.99681282043457
 42
-0
  0
SEQEND
  0
POLYLINE
  8
0
 10
0
 20
0
 39
0
 70
1
 66
1
  0
VERTEX
  8
0
 10
44.752857208251953
 20
201.12446594238281
 42
-1
  0
VERTEX
  8
0
 10
176.72529602050781
 20
95.410308837890625
 42
-0
  0
VERTEX
  8
0
 10
141.72529602050781
 20
95.410308837890625
 42
-0
  0
VERTEX
  8
0
 10
141.72529602050781
 20
125.12445831298828
 42
0
  0
VERTEX
  8
0
 10
44.752857208251953
 20
125.12445831298828
 42
0
  0
SEQEND
  0
POLYLINE
  8
0
 10
0
 20
0
 39
0
 70
1
 66
1
  0
VERTEX
  8
0
 10
10.159999847412109
 20
255.91999816894531
 42
-0
  0
VERTEX
  8
0
 10
181.70542907714844
 20
255.91999816894531
 42
-0
  0
VERTEX
  8
0
 10
210.16000366210937
 20
283.31240844726562
 42
-0
  0
VERTEX
  8
0
 10
210.16000366210937
 20
491.59124755859375
 42
0
  0
VERTEX
  8
0
 10
10.159999847412109
 20
491.59124755859375
 42
0
  0
SEQEND
  0
POLYLINE
  8
0
 10
0
 20
0
 39
0
 70
1
 66
1
  0
VERTEX
  8
0
 10
22.704973220825195
 20
271.75680541992187
 42
-0
  0
VERTEX
  8
0
 10
22.704973220825195
 20
351.75680541992187
 42
-0
  0
VERTEX
  8
0
 10
122.70497131347656
 20
351.75680541992187
 42
-0
  0
VERTEX
  8
0
 10
122.70497131347656
 20
271.75680541992187
 42
-0
  0
SEQEND
  0
POLYLINE
  8
0
 10
0
 20
0
 39
0
 70
1
 66
1
  0
VERTEX
  8
0
 10
44.752857208251953
 20
446.88446044921875
 42
-1
  0
VERTEX
  8
0
 10
176.72529602050781
 20
341.17031860351562
 42
-0
  0
VERTEX
  8
0
 10
141.72529602050781
 20
341.17031860351562
 42
-0
  0
VERTEX
  8
0
 10
141.72529602050781
 20
370.88446044921875
 42
0
  0
VERTEX
  8
0
 10
44.752857208251953
 20
370.88446044921875
 42
0
  0
SEQEND
  0
POLYLINE
  8
0
 10
0
 20
0
 39
0
 70
1
 66
1
  0
VERTEX
  8
0
 10
220.39999389648437
 20
10.159999847412109
 42
-0
  0
VERTEX
  8
0
 10
391.9454345703125
 20
10.159999847412109
 42
-0
  0
VERTEX
  8
0
 10
420.39999389648437
 20
37.552410125732422
 42
-0
  0
VERTEX
  8
0
 10
420.39999389648437
 20
245.83123779296875
 42
0
  0
VERTEX
  8
0
 10
220.39999389648437
 20
245.83123779296875
 42
0
  0
SEQEND
  0
POLYLINE
  8
0
 10
0
 20
0
 39
0
 70
1
 66
1
  0
VERTEX
  8
0
 10
232.94497680664062
 20
25.99681282043457
 42
-0
  0
VERTEX
  8
0
 10
232.94497680664062
 20
105.99681854248047
 42
-0
  0
VERTEX
  8
0
 10
332.94497680664062
 20
105.99681854248047
 42
-0
  0
VERTEX
  8
0
 10
332.94497680664062
 20
25.99681282043457
 42
-0
  0
SEQEND
  0
POLYLINE
  8
0
 10
0
 20
0
 39
0
 70
1
 66
1
  0
VERTEX
  8
0
 10
254.99285888671875
 20
201.12446594238281
 42
-1
  0
VERTEX
  8
0
 10
386.96530151367187
 20
95.410308837890625
 42
-0
  0
VERTEX
  8
0
 10
351.96530151367187
 20
95.410308837890625
 42
-0
  0
VERTEX
  8
0
 10
351.96530151367187
 20
125.12445831298828
 42
0
  0
VERTEX
  8
0
 10
254.99285888671875
 20
125.12445831298828
 42
0
  0
SEQEND
  0
POLYLINE
  8
0
 10
0
 20
0
 39
0
 70
1
 66
1
  0
VERTEX
  8
0
 10
305.05087280273437
 20
589.11920166015625
 42
1
  0
VERTEX
  8
0
 10
304.30911254882812
 20
419.12081909179687
 42
1
  0
SEQEND
  0
POLYLINE
  8
0
 10
0
 20
0
 39
0
 70
1
 66
1
  0
VERTEX
  8
0
 10
304.4007568359375
 20
440.12060546875
 42
-1
  0
VERTEX
  8
0
 10
304.95925903320312
 20
568.119384765625
 42
-1
  0
SEQEND
  0
POLYLINE
  8
0
 10
0
 20
0
 39
0
 70
1
 66
1
  0
VERTEX
  8
0
 10
381.85089111328125
 20
425.919189453125
 42
1
  0
VERTEX
  8
0
 10
381.109130859375
 20
255.92080688476562
 42
1
  0
SEQEND
  0
POLYLINE
  8
0
 10
0
 20
0
 39
0
 70
1
 66
1
  0
VERTEX
  8
0
 10
381.20074462890625
 20
276.92062377929687
 42
-1
  0
VERTEX
  8
0
 10
381.75924682617188
 20
404.91940307617187
 42
-1
  0
SEQEND
  0
POLYLINE
  8
0
 10
0
 20
0
 39
0
 70
1
 66
1
  0
VERTEX
  8
0
 10
484.81088256835937
 20
573.99920654296875
 42
1
  0
VERTEX
  8
0
 10
484.06912231445312
 20
404.00082397460937
 42
1
  0
SEQEND
  0
POLYLINE
  8
0
 10
0
 20
0
 39
0
 70
1
 66
1
  0
VERTEX
  8
0
 10
484.16073608398437
 20
425.0006103515625
 42
-1
  0
VERTEX
  8
0
 10
484.71923828125
 20
552.9993896484375
 42
-1
  0
SEQEND
  0
POLYLINE
  8
0
 10
0
 20
0
 39
0
 70
1
 66
1
  0
VERTEX
  8
0
 10
553.744384765625
 20
173.35879516601562
 42
-0
  0
VERTEX
  8
0
 10
484.19842529296875
 20
173.35879516601562
 42
-0
  0
VERTEX
  8
0
 10
484.19842529296875
 20
137.35879516601562
 42
0
  0
VERTEX
  8
0
 10
456.33233642578125
 20
137.35879516601562
 42
0
  0
VERTEX
  8
0
 10
456.33233642578125
 20
93.001274108886719
 42
0
  0
VERTEX
  8
0
 10
430.6400146484375
 20
93.001274108886719
 42
0
  0
VERTEX
  8
0
 10
430.6400146484375
 20
10.159999847412109
 42
0
  0
VERTEX
  8
0
 10
508.744384765625
 20
10.159999847412109
 42
-0
  0
VERTEX
  8
0
 10
508.744384765625
 20
118.35879516601562
 42
-0
  0
VERTEX
  8
0
 10
553.744384765625
 20
118.35879516601562
 42
-0
  0
SEQEND
  0
POLYLINE
  8
0
 10
0
 20
0
 39
0
 70
1
 66
1
  0
VERTEX
  8
0
 10
525.8741455078125
 20
126.27106475830078
 42
-1
  0
VERTEX
  8
0
 10
525.8741455078125
 20
165.44651794433594
 42
-1
  0
SEQEND
  0
POLYLINE
  8
0
 10
0
 20
0
 39
0
 70
1
 66
1
  0
VERTEX
  8
0
 10
431.83999633789062
 20
183.44000244140625
 42
-0
  0
VERTEX
  8
0
 10
501.38595581054687
 20
183.44000244140625
 42
-0
  0
VERTEX
  8
0
 10
501.38595581054687
 20
219.44000244140625
 42
0
  0
VERTEX
  8
0
 10
529.25201416015625
 20
219.44000244140625
 42
0
  0
VERTEX
  8
0
 10
529.25201416015625
 20
263.79751586914062
 42
0
  0
VERTEX
  8
0
 10
554.94439697265625
 20
263.79751586914062
 42
0
  0
VERTEX
  8
0
 10
554.94439697265625
 20
346.6387939453125
 42
0
  0
VERTEX
  8
0
 10
476.83999633789062
 20
346.6387939453125
 42
-0
  0
VERTEX
  8
0
 10
476.83999633789062
 20
238.44000244140625
 42
-0
  0
VERTEX
  8
0
 10
431.83999633789062
 20
238.44000244140625
 42
-0
  0
SEQEND
  0
POLYLINE
  8
0
 10
0
 20
0
 39
0
 70
1
 66
1
  0
VERTEX
  8
0
 10
459.71023559570312
 20
230.52772521972656
 42
-1
  0
VERTEX
  8
0
 10
459.71023559570312
 20
191.35227966308594
 42
-1
  0
SEQEND
  0
POLYLINE
  8
0
 10
0
 20
0
 39
0
 70
1
 66
1
  0
VERTEX
  8
0
 10
519.20001220703125
 20
10.159999847412109
 42
-0
  0
VERTEX
  8
0
 10
588.7459716796875
 20
10.159999847412109
 42
-0
  0
VERTEX
  8
0
 10
588.7459716796875
 20
46.159999847412109
 42
0
  0
VERTEX
  8
0
 10
616.612060546875
 20
46.159999847412109
 42
0
  0
VERTEX
  8
0
 10
616.612060546875
 20
90.517524719238281
 42
0
  0
VERTEX
  8
0
 10
642.30438232421875
 20
90.517524719238281
 42
0
  0
VERTEX
  8
0
 10
642.30438232421875
 20
173.35879516601562
 42
0
  0
VERTEX
  8
0
 10
564.20001220703125
 20
173.35879516601562
 42
-0
  0
VERTEX
  8
0
 10
564.20001220703125
 20
65.160003662109375
 42
-0
  0
VERTEX
  8
0
 10
519.20001220703125
 20
65.160003662109375
 42
-0
  0
SEQEND
  0
POLYLINE
  8
0
 10
0
 20
0
 39
0
 70
1
 66
1
  0
VERTEX
  8
0
 10
547.07025146484375
 20
57.247730255126953
 42
-1
  0
VERTEX
  8
0
 10
547.07025146484375
 20
18.072277069091797
 42
-1
  0
SEQEND
  0
POLYLINE
  8
0
 10
0
 20
0
 39
0
 70
1
 66
1
  0
VERTEX
  8
0
 10
539.47998046875
 20
183.44000244140625
 42
-0
  0
VERTEX
  8
0
 10
609.02593994140625
 20
183.44000244140625
 42
-0
  0
VERTEX
  8
0
 10
609.02593994140625
 20
219.44000244140625
 42
0
  0
VERTEX
  8
0
 10
636.89202880859375
 20
219.44000244140625
 42
0
  0
VERTEX
  8
0
 10
636.89202880859375
 20
263.79751586914062
 42
0
  0
VERTEX
  8
0
 10
662.5843505859375
 20
263.79751586914062
 42
0
  0
VERTEX
  8
0
 10
662.5843505859375
 20
346.6387939453125
 42
0
  0
VERTEX
  8
0
 10
584.47998046875
 20
346.6387939453125
 42
-0
  0
VERTEX
  8
0
 10
584.47998046875
 20
238.44000244140625
 42
-0
  0
VERTEX
  8
0
 10
539.47998046875
 20
238.44000244140625
 42
-0
  0
SEQEND
  0
POLYLINE
  8
0
 10
0
 20
0
 39
0
 70
1
 66
1
  0
VERTEX
  8
0
 10
567.3502197265625
 20
230.52772521972656
 42
-1
  0
VERTEX
  8
0
 10
567.3502197265625
 20
191.35227966308594
 42
-1
  0
SEQEND
  0
POLYLINE
  8
0
 10
0
 20
0
 39
0
 70
1
 66
1
  0
VERTEX
  8
0
 10
10.159999847412109
 20
571.67999267578125
 42
0
  0
VERTEX
  8
0
 10
10.159999847412109
 20
513.67999267578125
 42
0
  0
VERTEX
  8
0
 10
22.159999847412109
 20
501.67999267578125
 42
0
  0
VERTEX
  8
0
 10
170.16000366210937
 20
501.67999267578125
 42
0
  0
VERTEX
  8
0
 10
182.16000366210937
 20
513.67999267578125
 42
0
  0
VERTEX
  8
0
 10
182.16000366210937
 20
571.67999267578125
 42
0
  0
SEQEND
  0
POLYLINE
  8
0
 10
0
 20
0
 39
0
 70
1
 66
1
  0
VERTEX
  8
0
 10
135.66000366210937
 20
536.67999267578125
 42
-1
  0
VERTEX
  8
0
 10
116.66000366210937
 20
536.67999267578125
 42
-1
  0
SEQEND
  0
POLYLINE
  8
0
 10
0
 20
0
 39
0
 70
1
 66
1
  0
VERTEX
  8
0
 10
75.660003662109375
 20
536.67999267578125
 42
-1
  0
VERTEX
  8
0
 10
56.659999847412109
 20
536.67999267578125
 42
-1
  0
SEQEND
  0
POLYLINE
  8
0
 10
0
 20
0
 39
0
 70
1
 66
1
  0
VERTEX
  8
0
 10
649.55999755859375
 20
528.719970703125
 42
0
  0
VERTEX
  8
0
 10
591.55999755859375
 20
528.719970703125
 42
0
  0
VERTEX
  8
0
 10
579.55999755859375
 20
516.719970703125
 42
0
  0
VERTEX
  8
0
 10
579.55999755859375
 20
368.72000122070312
 42
0
  0
VERTEX
  8
0
 10
591.55999755859375
 20
356.72000122070312
 42
0
  0
VERTEX
  8
0
 10
649.55999755859375
 20
356.72000122070312
 42
0
  0
SEQEND
  0
POLYLINE
  8
0
 10
0
 20
0
 39
0
 70
1
 66
1
  0
VERTEX
  8
0
 10
614.55999755859375
 20
403.22000122070313
 42
-1
  0
VERTEX
  8
0
 10
614.55999755859375
 20
422.22000122070312
 42
-1
  0
SEQEND
  0
POLYLINE
  8
0
 10
0
 20
0
 39
0
 70
1
 66
1
  0
VERTEX
  8
0
 10
614.55999755859375
 20
463.22000122070313
 42
-1
  0
VERTEX
  8
0
 10
614.55999755859375
 20
482.22000122070312
 42
-1
  0
SEQEND
  0
POLYLINE
  8
0
 10
0
 20
0
 39
0
 70
1
 66
1
  0
VERTEX
  8
0
 10
722.52001953125
 20
182.16000366210937
 42
0
  0
VERTEX
  8
0
 10
664.52001953125
 20
182.16000366210937
 42
0
  0
VERTEX
  8
0
 10
652.52001953125
 20
170.16000366210937
 42
0
  0
VERTEX
  8
0
 10
652.52001953125
 20
22.159999847412109
 42
0
  0
VERTEX
  8
0
 10
664.52001953125
 20
10.159999847412109
 42
0
  0
VERTEX
  8
0
 10
722.52001953125
 20
10.159999847412109
 42
0
  0
SEQEND
  0
POLYLINE
  8
0
 10
0
 20
0
 39
0
 70
1
 66
1
  0
VERTEX
  8
0
 10
687.52001953125
 20
56.659999847412109
 42
-1
  0
VERTEX
  8
0
 10
687.52001953125
 20
75.660003662109375
 42
-1
  0
SEQEND
  0
POLYLINE
  8
0
 10
0
 20
0
 39
0
 70
1
 66
1
  0
VERTEX
  8
0
 10
687.52001953125
 20
116.66000366210937
 42
-1
  0
VERTEX
  8
0
 10
687.52001953125
 20
135.66000366210937
 42
-1
  0
SEQEND
  0
POLYLINE
  8
0
 10
0
 20
0
 39
0
 70
1
 66
1
  0
VERTEX
  8
0
 10
729.719970703125
 20
523.91998291015625
 42
0
  0
VERTEX
  8
0
 10
671.719970703125
 20
523.91998291015625
 42
0
  0
VERTEX
  8
0
 10
659.719970703125
 20
511.92001342773437
 42
0
  0
VERTEX
  8
0
 10
659.719970703125
 20
363.92001342773437
 42
0
  0
VERTEX
  8
0
 10
671.719970703125
 20
351.92001342773437
 42
0
  0
VERTEX
  8
0
 10
729.719970703125
 20
351.92001342773437
 42
0
  0
SEQEND
  0
POLYLINE
  8
0
 10
0
 20
0
 39
0
 70
1
 66
1
  0
VERTEX
  8
0
 10
694.719970703125
 20
398.42001342773437
 42
-1
  0
VERTEX
  8
0
 10
694.719970703125
 20
417.42001342773437
 42
-1
  0
SEQEND
  0
POLYLINE
  8
0
 10
0
 20
0
 39
0
 70
1
 66
1
  0
VERTEX
  8
0
 10
694.719970703125
 20
458.42001342773437
 42
-1
  0
VERTEX
  8
0
 10
694.719970703125
 20
477.42001342773437
 42
-1
  0
SEQEND
  0
POLYLINE
  8
0
 10
0
 20
0
 39
0
 70
1
 66
1
  0
VERTEX
  8
0
 10
799.79998779296875
 20
349.44000244140625
 42
0
  0
VERTEX
  8
0
 10
741.79998779296875
 20
349.44000244140625
 42
0
  0
VERTEX
  8
0
 10
729.79998779296875
 20
337.44000244140625
 42
0
  0
VERTEX
  8
0
 10
729.79998779296875
 20
189.44000244140625
 42
0
  0
VERTEX
  8
0
 10
741.79998779296875
 20
177.44000244140625
 42
0
  0
VERTEX
  8
0
 10
799.79998779296875
 20
177.44000244140625
 42
0
  0
SEQEND
  0
POLYLINE
  8
0
 10
0
 20
0
 39
0
 70
1
 66
1
  0
VERTEX
  8
0
 10
764.79998779296875
 20
223.94000244140625
 42
-1
  0
VERTEX
  8
0
 10
764.79998779296875
 20
242.94000244140625
 42
-1
  0
SEQEND
  0
POLYLINE
  8
0
 10
0
 20
0
 39
0
 70
1
 66
1
  0
VERTEX
  8
0
 10
764.79998779296875
 20
283.94000244140625
 42
-1
  0
VERTEX
  8
0
 10
764.79998779296875
 20
302.94000244140625
 42
-1
  0
SEQEND
  0
POLYLINE
  8
0
 10
0
 20
0
 39
0
 70
1
 66
1
  0
VERTEX
  8
0
 10
809.8800048828125
 20
531.47998046875
 42
0
  0
VERTEX
  8
0
 10
751.8800048828125
 20
531.47998046875
 42
0
  0
VERTEX
  8
0
 10
739.8800048828125
 20
519.47998046875
 42
0
  0
VERTEX
  8
0
 10
739.8800048828125
 20
371.48001098632812
 42
0
  0
VERTEX
  8
0
 10
751.8800048828125
 20
359.48001098632812
 42
0
  0
VERTEX
  8
0
 10
809.8800048828125
 20
359.48001098632812
 42
0
  0
SEQEND
  0
POLYLINE
  8
0
 10
0
 20
0
 39
0
 70
1
 66
1
  0
VERTEX
  8
0
 10
774.8800048828125
 20
405.98001098632812
 42
-1
  0
VERTEX
  8
0
 10
774.8800048828125
 20
424.98001098632812
 42
-1
  0
SEQEND
  0
POLYLINE
  8
0
 10
0
 20
0
 39
0
 70
1
 66
1
  0
VERTEX
  8
0
 10
774.8800048828125
 20
465.98001098632812
 42
-1
  0
VERTEX
  8
0
 10
774.8800048828125
 20
484.98001098632812
 42
-1
  0
SEQEND
  0
POLYLINE
  8
0
 10
0
 20
0
 39
0
 70
1
 66
1
  0
VERTEX
  8
0
 10
865.96002197265625
 20
187.80877685546875
 42
0.26254400610923767
  0
VERTEX
  8
0
 10
809.96002197265625
 20
187.80877685546875
 42
0
  0
VERTEX
  8
0
 10
809.96002197265625
 20
17.511232376098633
 42
0.26254403591156006
  0
VERTEX
  8
0
 10
865.96002197265625
 20
17.511232376098633
 42
0
  0
SEQEND
  0
POLYLINE
  8
0
 10
0
 20
0
 39
0
 70
1
 66
1
  0
VERTEX
  8
0
 10
837.96002197265625
 20
177.16000366210937
 42
-1
  0
VERTEX
  8
0
 10
837.96002197265625
 20
153.16000366210937
 42
-1
  0
SEQEND
  0
POLYLINE
  8
0
 10
0
 20
0
 39
0
 70
1
 66
1
  0
VERTEX
  8
0
 10
827.96002197265625
 20
46.793262481689453
 42
-3.3166251182556152
  0
VERTEX
  8
0
 10
827.96002197265625
 20
33.526752471923828
 42
0
  0
SEQEND
  0
POLYLINE
  8
0
 10
0
 20
0
 39
0
 70
1
 66
1
  0
VERTEX
  8
0
 10
876.03997802734375
 20
382.80877685546875
 42
0.26254400610923767
  0
VERTEX
  8
0
 10
820.03997802734375
 20
382.80877685546875
 42
0
  0
VERTEX
  8
0
 10
820.03997802734375
 20
212.51123046875
 42
0.26254403591156006
  0
VERTEX
  8
0
 10
876.03997802734375
 20
212.51123046875
 42
0
  0
SEQEND
  0
POLYLINE
  8
0
 10
0
 20
0
 39
0
 70
1
 66
1
  0
VERTEX
  8
0
 10
848.03997802734375
 20
372.16000366210937
 42
-1
  0
VERTEX
  8
0
 10
848.03997802734375
 20
348.16000366210937
 42
-1
  0
SEQEND
  0
POLYLINE
  8
0
 10
0
 20
0
 39
0
 70
1
 66
1
  0
VERTEX
  8
0
 10
838.03997802734375
 20
241.79325866699219
 42
-3.3166251182556152
  0
VERTEX
  8
0
 10
838.03997802734375
 20
228.52674865722656
 42
0
  0
SEQEND
  0
POLYLINE
  8
0
 10
0
 20
0
 39
0
 70
1
 66
1
  0
VERTEX
  8
0
 10
876.03997802734375
 20
577.92877197265625
 42
0.26254400610923767
  0
VERTEX
  8
0
 10
820.03997802734375
 20
577.92877197265625
 42
0
  0
VERTEX
  8
0
 10
820.03997802734375
 20
407.6312255859375
 42
0.26254403591156006
  0
VERTEX
  8
0
 10
876.03997802734375
 20
407.6312255859375
 42
0
  0
SEQEND
  0
POLYLINE
  8
0
 10
0
 20
0
 39
0
 70
1
 66
1
  0
VERTEX
  8
0
 10
848.03997802734375
 20
567.280029296875
 42
-1
  0
VERTEX
  8
0
 10
848.03997802734375
 20
543.280029296875
 42
-1
  0
SEQEND
  0
POLYLINE
  8
0
 10
0
 20
0
 39
0
 70
1
 66
1
  0
VERTEX
  8
0
 10
838.03997802734375
 20
436.91326904296875
 42
-3.3166251182556152
  0
VERTEX
  8
0
 10
838.03997802734375
 20
423.64675903320312
 42
0
  0
SEQEND
  0
POLYLINE
  8
0
 10
0
 20
0
 39
0
 70
1
 66
1
  0
VERTEX
  8
0
 10
932.08001708984375
 20
187.80877685546875
 42
0.26254400610923767
  0
VERTEX
  8
0
 10
876.08001708984375
 20
187.80877685546875
 42
0
  0
VERTEX
  8
0
 10
876.08001708984375
 20
17.511232376098633
 42
0.26254403591156006
  0
VERTEX
  8
0
 10
932.08001708984375
 20
17.511232376098633
 42
0
  0
SEQEND
  0
POLYLINE
  8
0
 10
0
 20
0
 39
0
 70
1
 66
1
  0
VERTEX
  8
0
 10
904.08001708984375
 20
177.16000366210937
 42
-1
  0
VERTEX
  8
0
 10
904.08001708984375
 20
153.16000366210937
 42
-1
  0
SEQEND
  0
POLYLINE
  8
0
 10
0
 20
0
 39
0
 70
1
 66
1
  0
VERTEX
  8
0
 10
894.08001708984375
 20
46.793262481689453
 42
-3.3166251182556152
  0
VERTEX
  8
0
 10
894.08001708984375
 20
33.526752471923828
 42
0
  0
SEQEND
  0
POLYLINE
  8
0
 10
0
 20
0
 39
0
 70
1
 66
1
  0
VERTEX
  8
0
 10
942.15997314453125
 20
382.80877685546875
 42
0.26254400610923767
  0
VERTEX
  8
0
 10
886.1600341796875
 20
382.80877685546875
 42
0
  0
VERTEX
  8
0
 10
886.15997314453125
 20
212.51123046875
 42
0.26254403591156006
  0
VERTEX
  8
0
 10
942.15997314453125
 20
212.51123046875
 42
0
  0
SEQEND
  0
POLYLINE
  8
0
 10
0
 20
0
 39
0
 70
1
 66
1
  0
VERTEX
  8
0
 10
914.15997314453125
 20
372.16000366210937
 42
-1
  0
VERTEX
  8
0
 10
914.15997314453125
 20
348.16000366210937
 42
-1
  0
SEQEND
  0
POLYLINE
  8
0
 10
0
 20
0
 39
0
 70
1
 66
1
  0
VERTEX
  8
0
 10
904.15997314453125
 20
241.79325866699219
 42
-3.3166251182556152
  0
VERTEX
  8
0
 10
904.15997314453125
 20
228.52674865722656
 42
0
  0
SEQEND
  0
POLYLINE
  8
0
 10
0
 20
0
 39
0
 70
1
 66
1
  0
VERTEX
  8
0
 10
942.15997314453125
 20
577.92877197265625
 42
0.26254400610923767
  0
VERTEX
  8
0
 10
886.1600341796875
 20
577.92877197265625
 42
0
  0
VERTEX
  8
0
 10
886.15997314453125
 20
407.6312255859375
 42
0.26254403591156006
  0
VERTEX
  8
0
 10
942.15997314453125
 20
407.6312255859375
 42
0
  0
SEQEND
  0
POLYLINE
  8
0
 10
0
 20
0
 39
0
 70
1
 66
1
  0
VERTEX
  8
0
 10
914.15997314453125
 20
567.280029296875
 42
-1
  0
VERTEX
  8
0
 10
914.15997314453125
 20
543.280029296875
 42
-1
  0
SEQEND
  0
POLYLINE
  8
0
 10
0
 20
0
 39
0
 70
1
 66
1
  0
VERTEX
  8
0
 10
904.15997314453125
 20
436.91326904296875
 42
-3.3166251182556152
  0
VERTEX
  8
0
 10
904.15997314453125
 20
423.64675903320312
 42
0
  0
SEQEND
  0
POLYLINE
  8
0
 10
0
 20
0
 39
0
 70
1
 66
1
  0
VERTEX
  8
0
 10
942.20001220703125
 20
20.159999847412109
 42
0
  0
VERTEX
  8
0
 10
952.20001220703125
 20
10.159999847412109
 42
0
  0
VERTEX
  8
0
 10
1002.2000122070312
 20
10.159999847412109
 42
0
  0
VERTEX
  8
0
 10
1012.2000122070312
 20
20.159999847412109
 42
0
  0
VERTEX
  8
0
 10
1012.2000122070312
 20
130.16000366210937
 42
0
  0
VERTEX
  8
0
 10
1002.2000122070312
 20
140.16000366210937
 42
0
  0
VERTEX
  8
0
 10
952.20001220703125
 20
140.16000366210937
 42
0
  0
VERTEX
  8
0
 10
942.20001220703125
 20
130.16000366210937
 42
0
  0
SEQEND
  0
POLYLINE
  8
0
 10
0
 20
0
 39
0
 70
1
 66
1
  0
VERTEX
  8
0
 10
977.20001220703125
 20
46.159999847412109
 42
-1
  0
VERTEX
  8
0
 10
977.20001220703125
 20
104.16000366210937
 42
-1
  0
SEQEND
  0
POLYLINE
  8
0
 10
0
 20
0
 39
0
 70
1
 66
1
  0
VERTEX
  8
0
 10
977.20001220703125
 20
16.659999847412109
 42
-1
  0
VERTEX
  8
0
 10
977.20001220703125
 20
28.659999847412109
 42
-1
  0
SEQEND
  0
POLYLINE
  8
0
 10
0
 20
0
 39
0
 70
1
 66
1
  0
VERTEX
  8
0
 10
977.20001220703125
 20
121.66000366210937
 42
-1
  0
VERTEX
  8
0
 10
977.20001220703125
 20
133.66000366210937
 42
-1
  0
SEQEND
  0
POLYLINE
  8
0
 10
0
 20
0
 39
0
 70
1
 66
1
  0
VERTEX
  8
0
 10
952.280029296875
 20
160.19999694824219
 42
0
  0
VERTEX
  8
0
 10
962.280029296875
 20
150.19999694824219
 42
0
  0
VERTEX
  8
0
 10
1012.280029296875
 20
150.19999694824219
 42
0
  0
VERTEX
  8
0
 10
1022.280029296875
 20
160.19999694824219
 42
0
  0
VERTEX
  8
0
 10
1022.280029296875
 20
270.20001220703125
 42
0
  0
VERTEX
  8
0
 10
1012.280029296875
 20
280.20001220703125
 42
0
  0
VERTEX
  8
0
 10
962.280029296875
 20
280.20001220703125
 42
0
  0
VERTEX
  8
0
 10
952.280029296875
 20
270.20001220703125
 42
0
  0
SEQEND
  0
POLYLINE
  8
0
 10
0
 20
0
 39
0
 70
1
 66
1
  0
VERTEX
  8
0
 10
987.280029296875
 20
186.19999694824219
 42
-1
  0
VERTEX
  8
0
 10
987.280029296875
 20
244.19999694824219
 42
-1
  0
SEQEND
  0
POLYLINE
  8
0
 10
0
 20
0
 39
0
 70
1
 66
1
  0
VERTEX
  8
0
 10
987.280029296875
 20
156.69999694824219
 42
-1
  0
VERTEX
  8
0
 10
987.280029296875
 20
168.69999694824219
 42
-1
  0
SEQEND
  0
POLYLINE
  8
0
 10
0
 20
0
 39
0
 70
1
 66
1
  0
VERTEX
  8
0
 10
987.280029296875
 20
261.70001220703125
 42
-1
  0
VERTEX
  8
0
 10
987.280029296875
 20
273.70001220703125
 42
-1
  0
SEQEND
  0
POLYLINE
  8
0
 10
0
 20
0
 39
0
 70
1
 66
1
  0
VERTEX
  8
0
 10
952.280029296875
 20
300.239990234375
 42
0
  0
VERTEX
  8
0
 10
962.280029296875
 20
290.239990234375
 42
0
  0
VERTEX
  8
0
 10
1012.280029296875
 20
290.239990234375
 42
0
  0
VERTEX
  8
0
 10
1022.280029296875
 20
300.239990234375
 42
0
  0
VERTEX
  8
0
 10
1022.280029296875
 20
410.239990234375
 42
0
  0
VERTEX
  8
0
 10
1012.280029296875
 20
420.239990234375
 42
0
  0
VERTEX
  8
0
 10
962.280029296875
 20
420.239990234375
 42
0
  0
VERTEX
  8
0
 10
952.280029296875
 20
410.239990234375
 42
0
  0
SEQEND
  0
POLYLINE
  8
0
 10
0
 20
0
 39
0
 70
1
 66
1
  0
VERTEX
  8
0
 10
987.280029296875
 20
326.239990234375
 42
-1
  0
VERTEX
  8
0
 10
987.280029296875
 20
384.239990234375
 42
-1
  0
SEQEND
  0
POLYLINE
  8
0
 10
0
 20
0
 39
0
 70
1
 66
1
  0
VERTEX
  8
0
 10
987.280029296875
 20
296.739990234375
 42
-1
  0
VERTEX
  8
0
 10
987.280029296875
 20
308.739990234375
 42
-1
  0
SEQEND
  0
POLYLINE
  8
0
 10
0
 20
0
 39
0
 70
1
 66
1
  0
VERTEX
  8
0
 10
987.280029296875
 20
401.739990234375
 42
-1
  0
VERTEX
  8
0
 10
987.280029296875
 20
413.739990234375
 42
-1
  0
SEQEND
  0
POLYLINE
  8
0
 10
0
 20
0
 39
0
 70
1
 66
1
  0
VERTEX
  8
0
 10
952.280029296875
 20
440.27999877929687
 42
0
  0
VERTEX
  8
0
 10
962.280029296875
 20
430.27999877929687
 42
0
  0
VERTEX
  8
0
 10
1012.280029296875
 20
430.27999877929687
 42
0
  0
VERTEX
  8
0
 10
1022.280029296875
 20
440.27999877929687
 42
0
  0
VERTEX
  8
0
 10
1022.280029296875
 20
550.280029296875
 42
0
  0
VERTEX
  8
0
 10
1012.280029296875
 20
560.280029296875
 42
0
  0
VERTEX
  8
0
 10
962.280029296875
 20
560.280029296875
 42
0
  0
VERTEX
  8
0
 10
952.280029296875
 20
550.280029296875
 42
0
  0
SEQEND
  0
POLYLINE
  8
0
 10
0
 20
0
 39
0
 70
1
 66
1
  0
VERTEX
  8
0
 10
987.280029296875
 20
466.27999877929687
 42
-1
  0
VERTEX
  8
0
 10
987.280029296875
 20
524.280029296875
 42
-1
  0
SEQEND
  0
POLYLINE
  8
0
 10
0
 20
0
 39
0
 70
1
 66
1
  0
VERTEX
  8
0
 10
987.280029296875
 20
436.77999877929687
 42
-1
  0
VERTEX
  8
0
 10
987.280029296875
 20
448.77999877929687
 42
-1
  0
SEQEND
  0
POLYLINE
  8
0
 10
0
 20
0
 39
0
 70
1
 66
1
  0
VERTEX
  8
0
 10
987.280029296875
 20
541.780029296875
 42
-1
  0
VERTEX
  8
0
 10
987.280029296875
 20
553.780029296875
 42
-1
  0
SEQEND
  0
POLYLINE
  8
0
 10
0
 20
0
 39
0
 70
1
 66
1
  0
VERTEX
  8
0
 10
1022.3599853515625
 20
20.159999847412109
 42
0
  0
VERTEX
  8
0
 10
1032.3599853515625
 20
10.159999847412109
 42
0
  0
VERTEX
  8
0
 10
1082.3599853515625
 20
10.159999847412109
 42
0
  0
VERTEX
  8
0
 10
1092.3599853515625
 20
20.159999847412109
 42
0
  0
VERTEX
  8
0
 10
1092.3599853515625
 20
130.16000366210937
 42
0
  0
VERTEX
  8
0
 10
1082.3599853515625
 20
140.16000366210937
 42
0
  0
VERTEX
  8
0
 10
1032.3599853515625
 20
140.16000366210937
 42
0
  0
VERTEX
  8
0
 10
1022.3599853515625
 20
130.16000366210937
 42
0
  0
SEQEND
  0
POLYLINE
  8
0
 10
0
 20
0
 39
0
 70
1
 66
1
  0
VERTEX
  8
0
 10
1057.3599853515625
 20
46.159999847412109
 42
-1
  0
VERTEX
  8
0
 10
1057.3599853515625
 20
104.16000366210937
 42
-1
  0
SEQEND
  0
POLYLINE
  8
0
 10
0
 20
0
 39
0
 70
1
 66
1
  0
VERTEX
  8
0
 10
1057.3599853515625
 20
16.659999847412109
 42
-1
  0
VERTEX
  8
0
 10
1057.3599853515625
 20
28.659999847412109
 42
-1
  0
SEQEND
  0
POLYLINE
  8
0
 10
0
 20
0
 39
0
 70
1
 66
1
  0
VERTEX
  8
0
 10
1057.3599853515625
 20
121.66000366210937
 42
-1
  0
VERTEX
  8
0
 10
1057.3599853515625
 20
133.66000366210937
 42
-1
  0
SEQEND
  0
POLYLINE
  8
0
 10
0
 20
0
 39
0
 70
1
 66
1
  0
VERTEX
  8
0
 10
1032.43994140625
 20
160.19999694824219
 42
0
  0
VERTEX
  8
0
 10
1042.43994140625
 20
150.19999694824219
 42
0
  0
VERTEX
  8
0
 10
1092.43994140625
 20
150.19999694824219
 42
0
  0
VERTEX
  8
0
 10
1102.43994140625
 20
160.19999694824219
 42
0
  0
VERTEX
  8
0
 10
1102.43994140625
 20
270.20001220703125
 42
0
  0
VERTEX
  8
0
 10
1092.43994140625
 20
280.20001220703125
 42
0
  0
VERTEX
  8
0
 10
1042.43994140625
 20
280.20001220703125
 42
0
  0
VERTEX
  8
0
 10
1032.43994140625
 20
270.20001220703125
 42
0
  0
SEQEND
  0
POLYLINE
  8
0
 10
0
 20
0
 39
0
 70
1
 66
1
  0
VERTEX
  8
0
 10
1067.43994140625
 20
186.19999694824219
 42
-1
  0
VERTEX
  8
0
 10
1067.43994140625
 20
244.19999694824219
 42
-1
  0
SEQEND
  0
POLYLINE
  8
0
 10
0
 20
0
 39
0
 70
1
 66
1
  0
VERTEX
  8
0
 10
1067.43994140625
 20
156.69999694824219
 42
-1
  0
VERTEX
  8
0
 10
1067.43994140625
 20
168.69999694824219
 42
-1
  0
SEQEND
  0
POLYLINE
  8
0
 10
0
 20
0
 39
0
 70
1
 66
1
  0
VERTEX
  8
0
 10
1067.43994140625
 20
261.70001220703125
 42
-1
  0
VERTEX
  8
0
 10
1067.43994140625
 20
273.70001220703125
 42
-1
  0
SEQEND
  0
POLYLINE
  8
0
 10
0
 20
0
 39
0
 70
1
 66
1
  0
VERTEX
  8
0
 10
1032.43994140625
 20
300.239990234375
 42
0
  0
VERTEX
  8
0
 10
1042.43994140625
 20
290.239990234375
 42
0
  0
VERTEX
  8
0
 10
1092.43994140625
 20
290.239990234375
 42
0
  0
VERTEX
  8
0
 10
1102.43994140625
 20
300.239990234375
 42
0
  0
VERTEX
  8
0
 10
1102.43994140625
 20
410.239990234375
 42
0
  0
VERTEX
  8
0
 10
1092.43994140625
 20
420.239990234375
 42
0
  0
VERTEX
  8
0
 10
1042.43994140625
 20
420.239990234375
 42
0
  0
VERTEX
  8
0
 10
1032.43994140625
 20
410.239990234375
 42
0
  0
SEQEND
  0
POLYLINE
  8
0
 10
0
 20
0
 39
0
 70
1
 66
1
  0
VERTEX
  8
0
 10
1067.43994140625
 20
326.239990234375
 42
-1
  0
VERTEX
  8
0
 10
1067.43994140625
 20
384.239990234375
 42
-1
  0
SEQEND
  0
POLYLINE
  8
0
 10
0
 20
0
 39
0
 70
1
 66
1
  0
VERTEX
  8
0
 10
1067.43994140625
 20
296.739990234375
 42
-1
  0
VERTEX
  8
0
 10
1067.43994140625
 20
308.739990234375
 42
-1
  0
SEQEND
  0
POLYLINE
  8
0
 10
0
 20
0
 39
0
 70
1
 66
1
  0
VERTEX
  8
0
 10
1067.43994140625
 20
401.739990234375
 42
-1
  0
VERTEX
  8
0
 10
1067.43994140625
 20
413.739990234375
 42
-1
  0
SEQEND
  0
POLYLINE
  8
0
 10
0
 20
0
 39
0
 70
1
 66
1
  0
VERTEX
  8
0
 10
1032.43994140625
 20
440.27999877929687
 42
0
  0
VERTEX
  8
0
 10
1042.43994140625
 20
430.27999877929687
 42
0
  0
VERTEX
  8
0
 10
1092.43994140625
 20
430.27999877929687
 42
0
  0
VERTEX
  8
0
 10
1102.43994140625
 20
440.27999877929687
 42
0
  0
VERTEX
  8
0
 10
1102.43994140625
 20
550.280029296875
 42
0
  0
VERTEX
  8
0
 10
1092.43994140625
 20
560.280029296875
 42
0
  0
VERTEX
  8
0
 10
1042.43994140625
 20
560.280029296875
 42
0
  0
VERTEX
  8
0
 10
1032.43994140625
 20
550.280029296875
 42
0
  0
SEQEND
  0
POLYLINE
  8
0
 10
0
 20
0
 39
0
 70
1
 66
1
  0
VERTEX
  8
0
 10
1067.43994140625
 20
466.27999877929687
 42
-1
  0
VERTEX
  8
0
 10
1067.43994140625
 20
524.280029296875
 42
-1
  0
SEQEND
  0
POLYLINE
  8
0
 10
0
 20
0
 39
0
 70
1
 66
1
  0
VERTEX
  8
0
 10
1067.43994140625
 20
436.77999877929687
 42
-1
  0
VERTEX
  8
0
 10
1067.43994140625
 20
448.77999877929687
 42
-1
  0
SEQEND
  0
POLYLINE
  8
0
 10
0
 20
0
 39
0
 70
1
 66
1
  0
VERTEX
  8
0
 10
1067.43994140625
 20
541.780029296875
 42
-1
  0
VERTEX
  8
0
 10
1067.43994140625
 20
553.780029296875
 42
-1
  0
SEQEND
  0
POLYLINE
  8
0
 10
0
 20
0
 39
0
 70
1
 66
1
  0
VERTEX
  8
0
 10
1102.52001953125
 20
20.159999847412109
 42
0
  0
VERTEX
  8
0
 10
1112.52001953125
 20
10.159999847412109
 42
0
  0
VERTEX
  8
0
 10
1162.52001953125
 20
10.159999847412109
 42
0
  0
VERTEX
  8
0
 10
1172.52001953125
 20
20.159999847412109
 42
0
  0
VERTEX
  8
0
 10
1172.52001953125
 20
130.16000366210937
 42
0
  0
VERTEX
  8
0
 10
1162.52001953125
 20
140.16000366210937
 42
0
  0
VERTEX
  8
0
 10
1112.52001953125
 20
140.16000366210937
 42
0
  0
VERTEX
  8
0
 10
1102.52001953125
 20
130.16000366210937
 42
0
  0
SEQEND
  0
POLYLINE
  8
0
 10
0
 20
0
 39
0
 70
1
 66
1
  0
VERTEX
  8
0
 10
1137.52001953125
 20
46.159999847412109
 42
-1
  0
VERTEX
  8
0
 10
1137.52001953125
 20
104.16000366210937
 42
-1
  0
SEQEND
  0
POLYLINE
  8
0
 10
0
 20
0
 39
0
 70
1
 66
1
  0
VERTEX
  8
0
 10
1137.52001953125
 20
16.659999847412109
 42
-1
  0
VERTEX
  8
0
 10
1137.52001953125
 20
28.659999847412109
 42
-1
  0
SEQEND
  0
POLYLINE
  8
0
 10
0
 20
0
 39
0
 70
1
 66
1
  0
VERTEX
  8
0
 10
1137.52001953125
 20
121.66000366210937
 42
-1
  0
VERTEX
  8
0
 10
1137.52001953125
 20
133.66000366210937
 42
-1
  0
SEQEND
  0
POLYLINE
  8
0
 10
0
 20
0
 39
0
 70
1
 66
1
  0
VERTEX
  8
0
 10
1112.5999755859375
 20
160.19999694824219
 42
0
  0
VERTEX
  8
0
 10
1122.5999755859375
 20
150.19999694824219
 42
0
  0
VERTEX
  8
0
 10
1172.5999755859375
 20
150.19999694824219
 42
0
  0
VERTEX
  8
0
 10
1182.5999755859375
 20
160.19999694824219
 42
0
  0
VERTEX
  8
0
 10
1182.5999755859375
 20
270.20001220703125
 42
0
  0
VERTEX
  8
0
 10
1172.5999755859375
 20
280.20001220703125
 42
0
  0
VERTEX
  8
0
 10
1122.5999755859375
 20
280.20001220703125
 42
0
  0
VERTEX
  8
0
 10
1112.5999755859375
 20
270.20001220703125
 42
0
  0
SEQEND
  0
POLYLINE
  8
0
 10
0
 20
0
 39
0
 70
1
 66
1
  0
VERTEX
  8
0
 10
1147.5999755859375
 20
186.19999694824219
 42
-1
  0
VERTEX
  8
0
 10
1147.5999755859375
 20
244.19999694824219
 42
-1
  0
SEQEND
  0
POLYLINE
  8
0
 10
0
 20
0
 39
0
 70
1
 66
1
  0
VERTEX
  8
0
 10
1147.5999755859375
 20
156.69999694824219
 42
-1
  0
VERTEX
  8
0
 10
1147.5999755859375
 20
168.69999694824219
 42
-1
  0
SEQEND
  0
POLYLINE
  8
0
 10
0
 20
0
 39
0
 70
1
 66
1
  0
VERTEX
  8
0
 10
1147.5999755859375
 20
261.70001220703125
 42
-1
  0
VERTEX
  8
0
 10
1147.5999755859375
 20
273.70001220703125
 42
-1
  0
SEQEND
  0
POLYLINE
  8
0
 10
0
 20
0
 39
0
 70
1
 66
1
  0
VERTEX
  8
0
 10
89.919998168945313
 20
164.11170959472656
 42
3.2966630458831787
  0
VERTEX
  8
0
 10
64.919998168945313
 20
164.11170959472656
 42
0
  0
VERTEX
  8
0
 10
64.919998168945313
 20
135.32000732421875
 42
0
  0
VERTEX
  8
0
 10
89.919998168945313
 20
135.32000732421875
 42
0
  0
SEQEND
  0
POLYLINE
  8
0
 10
0
 20
0
 39
0
 70
1
 66
1
  0
VERTEX
  8
0
 10
89.919998168945313
 20
182.82002258300781
 42
-1
  0
VERTEX
  8
0
 10
64.919998168945313
 20
182.82002258300781
 42
-1
  0
SEQEND
  0
POLYLINE
  8
0
 10
0
 20
0
 39
0
 70
1
 66
1
  0
VERTEX
  8
0
 10
89.919998168945313
 20
409.8717041015625
 42
3.2966630458831787
  0
VERTEX
  8
0
 10
64.919998168945313
 20
409.8717041015625
 42
0
  0
VERTEX
  8
0
 10
64.919998168945313
 20
381.07998657226562
 42
0
  0
VERTEX
  8
0
 10
89.919998168945313
 20
381.07998657226562
 42
0
  0
SEQEND
  0
POLYLINE
  8
0
 10
0
 20
0
 39
0
 70
1
 66
1
  0
VERTEX
  8
0
 10
89.919998168945313
 20
428.58001708984375
 42
-1
  0
VERTEX
  8
0
 10
64.919998168945313
 20
428.58001708984375
 42
-1
  0
SEQEND
  0
POLYLINE
  8
0
 10
0
 20
0
 39
0
 70
1
 66
1
  0
VERTEX
  8
0
 10
61.631702423095703
 20
46.200000762939453
 42
3.2966630458831787
  0
VERTEX
  8
0
 10
61.631702423095703
 20
71.199996948242187
 42
0
  0
VERTEX
  8
0
 10
32.840000152587891
 20
71.199996948242187
 42
0
  0
VERTEX
  8
0
 10
32.840000152587891
 20
46.200000762939453
 42
0
  0
SEQEND
  0
POLYLINE
  8
0
 10
0
 20
0
 39
0
 70
1
 66
1
  0
VERTEX
  8
0
 10
80.340011596679687
 20
46.200000762939453
 42
-1
  0
VERTEX
  8
0
 10
80.340011596679687
 20
71.199996948242187
 42
-1
  0
SEQEND
  0
POLYLINE
  8
0
 10
0
 20
0
 39
0
 70
1
 66
1
  0
VERTEX
  8
0
 10
61.631702423095703
 20
291.95999145507812
 42
3.2966630458831787
  0
VERTEX
  8
0
 10
61.631702423095703
 20
316.95999145507812
 42
0
  0
VERTEX
  8
0
 10
32.840000152587891
 20
316.95999145507812
 42
0
  0
VERTEX
  8
0
 10
32.840000152587891
 20
291.95999145507812
 42
0
  0
SEQEND
  0
POLYLINE
  8
0
 10
0
 20
0
 39
0
 70
1
 66
1
  0
VERTEX
  8
0
 10
80.340011596679687
 20
291.95999145507812
 42
-1
  0
VERTEX
  8
0
 10
80.340011596679687
 20
316.95999145507812
 42
-1
  0
SEQEND
  0
POLYLINE
  8
0
 10
0
 20
0
 39
0
 70
1
 66
1
  0
VERTEX
  8
0
 10
114.23999786376953
 20
176.52828979492187
 42
3.2966630458831787
  0
VERTEX
  8
0
 10
139.24000549316406
 20
176.52828979492187
 42
0
  0
VERTEX
  8
0
 10
139.24000549316406
 20
205.31999206542969
 42
0
  0
VERTEX
  8
0
 10
114.23999786376953
 20
205.31999206542969
 42
0
  0
SEQEND
  0
POLYLINE
  8
0
 10
0
 20
0
 39
0
 70
1
 66
1
  0
VERTEX
  8
0
 10
114.23999786376953
 20
157.81997680664062
 42
-1
  0
VERTEX
  8
0
 10
139.24000549316406
 20
157.81997680664062
 42
-1
  0
SEQEND
  0
POLYLINE
  8
0
 10
0
 20
0
 39
0
 70
1
 66
1
  0
VERTEX
  8
0
 10
114.23999786376953
 20
422.28829956054687
 42
3.2966630458831787
  0
VERTEX
  8
0
 10
139.24000549316406
 20
422.28829956054687
 42
0
  0
VERTEX
  8
0
 10
139.24000549316406
 20
451.07998657226563
 42
0
  0
VERTEX
  8
0
 10
114.23999786376953
 20
451.07998657226563
 42
0
  0
SEQEND
  0
POLYLINE
  8
0
 10
0
 20
0
 39
0
 70
1
 66
1
  0
VERTEX
  8
0
 10
114.23999786376953
 20
403.57998657226562
 42
-1
  0
VERTEX
  8
0
 10
139.24000549316406
 20
403.57998657226562
 42
-1
  0
SEQEND
  0
POLYLINE
  8
0
 10
0
 20
0
 39
0
 70
1
 66
1
  0
VERTEX
  8
0
 10
230.16000366210937
 20
297.1282958984375
 42
3.2966630458831787
  0
VERTEX
  8
0
 10
255.16000366210937
 20
297.1282958984375
 42
0
  0
VERTEX
  8
0
 10
255.16000366210937
 20
325.91998291015625
 42
0
  0
VERTEX
  8
0
 10
230.16000366210937
 20
325.91998291015625
 42
0
  0
SEQEND
  0
POLYLINE
  8
0
 10
0
 20
0
 39
0
 70
1
 66
1
  0
VERTEX
  8
0
 10
230.16000366210937
 20
278.41998291015625
 42
-1
  0
VERTEX
  8
0
 10
255.16000366210937
 20
278.41998291015625
 42
-1
  0
SEQEND
  0
POLYLINE
  8
0
 10
0
 20
0
 39
0
 70
1
 66
1
  0
VERTEX
  8
0
 10
255.39999389648437
 20
364.751708984375
 42
3.2966630458831787
  0
VERTEX
  8
0
 10
230.39999389648437
 20
364.751708984375
 42
0
  0
VERTEX
  8
0
 10
230.39999389648437
 20
335.95999145507812
 42
0
  0
VERTEX
  8
0
 10
255.39999389648437
 20
335.95999145507812
 42
0
  0
SEQEND
  0
POLYLINE
  8
0
 10
0
 20
0
 39
0
 70
1
 66
1
  0
VERTEX
  8
0
 10
255.39999389648437
 20
383.46002197265625
 42
-1
  0
VERTEX
  8
0
 10
230.39999389648437
 20
383.46002197265625
 42
-1
  0
SEQEND
  0
POLYLINE
  8
0
 10
0
 20
0
 39
0
 70
1
 66
1
  0
VERTEX
  8
0
 10
263.760009765625
 20
510.00830078125
 42
3.2966630458831787
  0
VERTEX
  8
0
 10
288.760009765625
 20
510.00830078125
 42
0
  0
VERTEX
  8
0
 10
288.760009765625
 20
538.79998779296875
 42
0
  0
VERTEX
  8
0
 10
263.760009765625
 20
538.79998779296875
 42
0
  0
SEQEND
  0
POLYLINE
  8
0
 10
0
 20
0
 39
0
 70
1
 66
1
  0
VERTEX
  8
0
 10
263.760009765625
 20
491.29998779296875
 42
-1
  0
VERTEX
  8
0
 10
288.760009765625
 20
491.29998779296875
 42
-1
  0
SEQEND
  0
POLYLINE
  8
0
 10
0
 20
0
 39
0
 70
1
 66
1
  0
VERTEX
  8
0
 10
300.16000366210937
 20
164.11170959472656
 42
3.2966630458831787
  0
VERTEX
  8
0
 10
275.16000366210937
 20
164.11170959472656
 42
0
  0
VERTEX
  8
0
 10
275.16000366210937
 20
135.32000732421875
 42
0
  0
VERTEX
  8
0
 10
300.16000366210937
 20
135.32000732421875
 42
0
  0
SEQEND
  0
POLYLINE
  8
0
 10
0
 20
0
 39
0
 70
1
 66
1
  0
VERTEX
  8
0
 10
300.16000366210937
 20
182.82002258300781
 42
-1
  0
VERTEX
  8
0
 10
275.16000366210937
 20
182.82002258300781
 42
-1
  0
SEQEND
  0
POLYLINE
  8
0
 10
0
 20
0
 39
0
 70
1
 66
1
  0
VERTEX
  8
0
 10
271.99169921875
 20
46.200000762939453
 42
3.2966630458831787
  0
VERTEX
  8
0
 10
271.99169921875
 20
71.199996948242187
 42
0
  0
VERTEX
  8
0
 10
243.19999694824219
 20
71.199996948242187
 42
0
  0
VERTEX
  8
0
 10
243.19999694824219
 20
46.200000762939453
 42
0
  0
SEQEND
  0
POLYLINE
  8
0
 10
0
 20
0
 39
0
 70
1
 66
1
  0
VERTEX
  8
0
 10
290.70001220703125
 20
46.200000762939453
 42
-1
  0
VERTEX
  8
0
 10
290.70001220703125
 20
71.199996948242187
 42
-1
  0
SEQEND
  0
POLYLINE
  8
0
 10
0
 20
0
 39
0
 70
1
 66
1
  0
VERTEX
  8
0
 10
334.1199951171875
 20
504.19171142578125
 42
3.2966630458831787
  0
VERTEX
  8
0
 10
309.1199951171875
 20
504.19171142578125
 42
0
  0
VERTEX
  8
0
 10
309.1199951171875
 20
475.39999389648437
 42
0
  0
VERTEX
  8
0
 10
334.1199951171875
 20
475.39999389648437
 42
0
  0
SEQEND
  0
POLYLINE
  8
0
 10
0
 20
0
 39
0
 70
1
 66
1
  0
VERTEX
  8
0
 10
334.1199951171875
 20
522.9000244140625
 42
-1
  0
VERTEX
  8
0
 10
309.1199951171875
 20
522.9000244140625
 42
-1
  0
SEQEND
  0
POLYLINE
  8
0
 10
0
 20
0
 39
0
 70
1
 66
1
  0
VERTEX
  8
0
 10
324.48001098632812
 20
176.52828979492187
 42
3.2966630458831787
  0
VERTEX
  8
0
 10
349.48001098632812
 20
176.52828979492187
 42
0
  0
VERTEX
  8
0
 10
349.48001098632812
 20
205.31999206542969
 42
0
  0
VERTEX
  8
0
 10
324.48001098632812
 20
205.31999206542969
 42
0
  0
SEQEND
  0
POLYLINE
  8
0
 10
0
 20
0
 39
0
 70
1
 66
1
  0
VERTEX
  8
0
 10
324.48001098632812
 20
157.81997680664062
 42
-1
  0
VERTEX
  8
0
 10
349.48001098632812
 20
157.81997680664062
 42
-1
  0
SEQEND
  0
POLYLINE
  8
0
 10
0
 20
0
 39
0
 70
1
 66
1
  0
VERTEX
  8
0
 10
340.55999755859375
 20
346.80828857421875
 42
3.2966630458831787
  0
VERTEX
  8
0
 10
365.55999755859375
 20
346.80828857421875
 42
0
  0
VERTEX
  8
0
 10
365.55999755859375
 20
375.5999755859375
 42
0
  0
VERTEX
  8
0
 10
340.55999755859375
 20
375.5999755859375
 42
0
  0
SEQEND
  0
POLYLINE
  8
0
 10
0
 20
0
 39
0
 70
1
 66
1
  0
VERTEX
  8
0
 10
340.55999755859375
 20
328.0999755859375
 42
-1
  0
VERTEX
  8
0
 10
365.55999755859375
 20
328.0999755859375
 42
-1
  0
SEQEND
  0
POLYLINE
  8
0
 10
0
 20
0
 39
0
 70
1
 66
1
  0
VERTEX
  8
0
 10
410.92001342773437
 20
340.99169921875
 42
3.2966630458831787
  0
VERTEX
  8
0
 10
385.92001342773437
 20
340.99169921875
 42
0
  0
VERTEX
  8
0
 10
385.92001342773437
 20
312.20001220703125
 42
0
  0
VERTEX
  8
0
 10
410.92001342773437
 20
312.20001220703125
 42
0
  0
SEQEND
  0
POLYLINE
  8
0
 10
0
 20
0
 39
0
 70
1
 66
1
  0
VERTEX
  8
0
 10
410.92001342773437
 20
359.70001220703125
 42
-1
  0
VERTEX
  8
0
 10
385.92001342773437
 20
359.70001220703125
 42
-1
  0
SEQEND
  0
POLYLINE
  8
0
 10
0
 20
0
 39
0
 70
1
 66
1
  0
VERTEX
  8
0
 10
443.51998901367187
 20
494.88827514648437
 42
3.2966630458831787
  0
VERTEX
  8
0
 10
468.51998901367187
 20
494.88827514648437
 42
0
  0
VERTEX
  8
0
 10
468.51998901367187
 20
523.67999267578125
 42
0
  0
VERTEX
  8
0
 10
443.51998901367187
 20
523.67999267578125
 42
0
  0
SEQEND
  0
POLYLINE
  8
0
 10
0
 20
0
 39
0
 70
1
 66
1
  0
VERTEX
  8
0
 10
443.51998901367187
 20
476.17996215820313
 42
-1
  0
VERTEX
  8
0
 10
468.51998901367187
 20
476.17996215820313
 42
-1
  0
SEQEND
  0
POLYLINE
  8
0
 10
0
 20
0
 39
0
 70
1
 66
1
  0
VERTEX
  8
0
 10
513.8800048828125
 20
489.07171630859375
 42
3.2966630458831787
  0
VERTEX
  8
0
 10
488.8800048828125
 20
489.07171630859375
 42
0
  0
VERTEX
  8
0
 10
488.8800048828125
 20
460.27999877929687
 42
0
  0
VERTEX
  8
0
 10
513.8800048828125
 20
460.27999877929687
 42
0
  0
SEQEND
  0
POLYLINE
  8
0
 10
0
 20
0
 39
0
 70
1
 66
1
  0
VERTEX
  8
0
 10
513.8800048828125
 20
507.780029296875
 42
-1
  0
VERTEX
  8
0
 10
488.8800048828125
 20
507.780029296875
 42
-1
  0
SEQEND
  0
POLYLINE
  8
0
 10
0
 20
0
 39
0
 70
1
 66
1
  0
VERTEX
  8
0
 10
508.6317138671875
 20
366.72000122070313
 42
3.2966630458831787
  0
VERTEX
  8
0
 10
508.6317138671875
 20
391.72000122070312
 42
0
  0
VERTEX
  8
0
 10
479.83999633789062
 20
391.72000122070312
 42
0
  0
VERTEX
  8
0
 10
479.83999633789062
 20
366.72000122070313
 42
0
  0
SEQEND
  0
POLYLINE
  8
0
 10
0
 20
0
 39
0
 70
1
 66
1
  0
VERTEX
  8
0
 10
527.34002685546875
 20
366.72000122070313
 42
-1
  0
VERTEX
  8
0
 10
527.34002685546875
 20
391.72000122070312
 42
-1
  0
SEQEND
  0
POLYLINE
  8
0
 10
0
 20
0
 39
0
 70
1
 66
1
  0
VERTEX
  8
0
 10
591.248291015625
 20
579.760009765625
 42
3.2966630458831787
  0
VERTEX
  8
0
 10
591.248291015625
 20
554.760009765625
 42
0
  0
VERTEX
  8
0
 10
620.03997802734375
 20
554.760009765625
 42
0
  0
VERTEX
  8
0
 10
620.03997802734375
 20
579.760009765625
 42
0
  0
SEQEND
  0
POLYLINE
  8
0
 10
0
 20
0
 39
0
 70
1
 66
1
  0
VERTEX
  8
0
 10
572.53997802734375
 20
579.760009765625
 42
-1
  0
VERTEX
  8
0
 10
572.53997802734375
 20
554.760009765625
 42
-1
  0
SEQEND
  0
POLYLINE
  8
0
 10
0
 20
0
 39
0
 70
1
 66
1
  0
VERTEX
  8
0
 10
658.99169921875
 20
543.96002197265625
 42
3.2966630458831787
  0
VERTEX
  8
0
 10
658.99169921875
 20
568.96002197265625
 42
0
  0
VERTEX
  8
0
 10
630.20001220703125
 20
568.96002197265625
 42
0
  0
VERTEX
  8
0
 10
630.20001220703125
 20
543.96002197265625
 42
0
  0
SEQEND
  0
POLYLINE
  8
0
 10
0
 20
0
 39
0
 70
1
 66
1
  0
VERTEX
  8
0
 10
677.70001220703125
 20
543.96002197265625
 42
-1
  0
VERTEX
  8
0
 10
677.70001220703125
 20
568.96002197265625
 42
-1
  0
SEQEND
  0
POLYLINE
  8
0
 10
0
 20
0
 39
0
 70
1
 66
1
  0
VERTEX
  8
0
 10
697.47998046875
 20
220.99169921875
 42
3.2966630458831787
  0
VERTEX
  8
0
 10
672.47998046875
 20
220.99169921875
 42
0
  0
VERTEX
  8
0
 10
672.47998046875
 20
192.19999694824219
 42
0
  0
VERTEX
  8
0
 10
697.47998046875
 20
192.19999694824219
 42
0
  0
SEQEND
  0
POLYLINE
  8
0
 10
0
 20
0
 39
0
 70
1
 66
1
  0
VERTEX
  8
0
 10
697.47998046875
 20
239.70001220703125
 42
-1
  0
VERTEX
  8
0
 10
672.47998046875
 20
239.70001220703125
 42
-1
  0
SEQEND
  0
POLYLINE
  8
0
 10
0
 20
0
 39
0
 70
1
 66
1
  0
VERTEX
  8
0
 10
682.79998779296875
 20
312.84829711914062
 42
3.2966630458831787
  0
VERTEX
  8
0
 10
707.79998779296875
 20
312.84829711914062
 42
0
  0
VERTEX
  8
0
 10
707.79998779296875
 20
341.63998413085937
 42
0
  0
VERTEX
  8
0
 10
682.79998779296875
 20
341.63998413085937
 42
0
  0
SEQEND
  0
POLYLINE
  8
0
 10
0
 20
0
 39
0
 70
1
 66
1
  0
VERTEX
  8
0
 10
682.79998779296875
 20
294.13998413085937
 42
-1
  0
VERTEX
  8
0
 10
707.79998779296875
 20
294.13998413085937
 42
-1
  0
SEQEND
  0
POLYLINE
  8
0
 10
0
 20
0
 39
0
 70
1
 66
1
  0
VERTEX
  8
0
 10
767.67999267578125
 20
38.951702117919922
 42
3.2966630458831787
  0
VERTEX
  8
0
 10
742.67999267578125
 20
38.951702117919922
 42
0
  0
VERTEX
  8
0
 10
742.67999267578125
 20
10.159999847412109
 42
0
  0
VERTEX
  8
0
 10
767.67999267578125
 20
10.159999847412109
 42
0
  0
SEQEND
  0
POLYLINE
  8
0
 10
0
 20
0
 39
0
 70
1
 66
1
  0
VERTEX
  8
0
 10
767.67999267578125
 20
57.660015106201172
 42
-1
  0
VERTEX
  8
0
 10
742.67999267578125
 20
57.660015106201172
 42
-1
  0
SEQEND
  0
POLYLINE
  8
0
 10
0
 20
0
 39
0
 70
1
 66
1
  0
VERTEX
  8
0
 10
782.67999267578125
 20
90.199996948242188
 42
-0
  0
VERTEX
  8
0
 10
782.67999267578125
 20
140.19999694824219
 42
-0
  0
VERTEX
  8
0
 10
732.67999267578125
 20
140.19999694824219
 42
-0
  0
VERTEX
  8
0
 10
732.67999267578125
 20
90.199996948242188
 42
-0
  0
SEQEND
  0
POLYLINE
  8
0
 10
0
 20
0
 39
0
 70
1
 66
1
  0
VERTEX
  8
0
 10
763.17999267578125
 20
125.19999694824219
 42
-1
  0
VERTEX
  8
0
 10
752.17999267578125
 20
125.19999694824219
 42
-1
  0
SEQEND
  0
POLYLINE
  8
0
 10
0
 20
0
 39
0
 70
1
 66
1
  0
VERTEX
  8
0
 10
1162.5999755859375
 20
290.239990234375
 42
-0
  0
VERTEX
  8
0
 10
1162.5999755859375
 20
340.239990234375
 42
-0
  0
VERTEX
  8
0
 10
1112.5999755859375
 20
340.239990234375
 42
-0
  0
VERTEX
  8
0
 10
1112.5999755859375
 20
290.239990234375
 42
-0
  0
SEQEND
  0
POLYLINE
  8
0
 10
0
 20
0
 39
0
 70
1
 66
1
  0
VERTEX
  8
0
 10
1143.0999755859375
 20
325.239990234375
 42
-1
  0
VERTEX
  8
0
 10
1132.0999755859375
 20
325.239990234375
 42
-1
  0
SEQEND
  0
POLYLINE
  8
0
 10
0
 20
0
 39
0
 70
1
 66
1
  0
VERTEX
  8
0
 10
1162.5999755859375
 20
350.3599853515625
 42
-0
  0
VERTEX
  8
0
 10
1162.5999755859375
 20
400.3599853515625
 42
-0
  0
VERTEX
  8
0
 10
1112.5999755859375
 20
400.3599853515625
 42
0
  0
VERTEX
  8
0
 10
1112.5999755859375
 20
350.3599853515625
 42
0
  0
SEQEND
  0
POLYLINE
  8
0
 10
0
 20
0
 39
0
 70
1
 66
1
  0
VERTEX
  8
0
 10
1150.09619140625
 20
390.01254272460937
 42
-0
  0
VERTEX
  8
0
 10
1150.09619140625
 20
362.01254272460937
 42
-0
  0
VERTEX
  8
0
 10
1137.5999755859375
 20
362.01254272460937
 42
-0
  0
VERTEX
  8
0
 10
1126.504150390625
 20
376.01254272460937
 42
-0
  0
VERTEX
  8
0
 10
1126.504150390625
 20
390.01254272460937
 42
0
  0
SEQEND
  0
POLYLINE
  8
0
 10
0
 20
0
 39
0
 70
1
 66
1
  0
VERTEX
  8
0
 10
1162.5999755859375
 20
410.48001098632812
 42
-0
  0
VERTEX
  8
0
 10
1162.5999755859375
 20
460.48001098632812
 42
-0
  0
VERTEX
  8
0
 10
1112.5999755859375
 20
460.48001098632812
 42
-0
  0
VERTEX
  8
0
 10
1112.5999755859375
 20
410.48001098632812
 42
-0
  0
SEQEND
  0
POLYLINE
  8
0
 10
0
 20
0
 39
0
 70
1
 66
1
  0
VERTEX
  8
0
 10
1143.0999755859375
 20
445.48001098632812
 42
-1
  0
VERTEX
  8
0
 10
1132.0999755859375
 20
445.48001098632812
 42
-1
  0
SEQEND
  0
POLYLINE
  8
0
 10
0
 20
0
 39
0
 70
1
 66
1
  0
VERTEX
  8
0
 10
1162.5999755859375
 20
470.60000610351562
 42
-0
  0
VERTEX
  8
0
 10
1162.5999755859375
 20
520.5999755859375
 42
-0
  0
VERTEX
  8
0
 10
1112.5999755859375
 20
520.5999755859375
 42
0
  0
VERTEX
  8
0
 10
1112.5999755859375
 20
470.60000610351562
 42
0
  0
SEQEND
  0
POLYLINE
  8
0
 10
0
 20
0
 39
0
 70
1
 66
1
  0
VERTEX
  8
0
 10
1150.09619140625
 20
510.25253295898437
 42
-0
  0
VERTEX
  8
0
 10
1150.09619140625
 20
482.25253295898437
 42
-0
  0
VERTEX
  8
0
 10
1137.5999755859375
 20
482.25253295898437
 42
-0
  0
VERTEX
  8
0
 10
1126.504150390625
 20
496.25253295898437
 42
-0
  0
VERTEX
  8
0
 10
1126.504150390625
 20
510.25253295898437
 42
0
  0
SEQEND
  0
POLYLINE
  8
0
 10
0
 20
0
 39
0
 70
1
 66
1
  0
VERTEX
  8
0
 10
1162.5999755859375
 20
530.719970703125
 42
-0
  0
VERTEX
  8
0
 10
1162.5999755859375
 20
580.719970703125
 42
-0
  0
VERTEX
  8
0
 10
1112.5999755859375
 20
580.719970703125
 42
0
  0
VERTEX
  8
0
 10
1112.5999755859375
 20
530.719970703125
 42
0
  0
SEQEND
  0
POLYLINE
  8
0
 10
0
 20
0
 39
0
 70
1
 66
1
  0
VERTEX
  8
0
 10
1150.09619140625
 20
570.37255859375
 42
-0
  0
VERTEX
  8
0
 10
1150.09619140625
 20
542.37255859375
 42
-0
  0
VERTEX
  8
0
 10
1137.5999755859375
 20
542.37255859375
 42
-0
  0
VERTEX
  8
0
 10
1126.504150390625
 20
556.37255859375
 42
-0
  0
VERTEX
  8
0
 10
1126.504150390625
 20
570.37255859375
 42
0
  0
SEQEND
  0
ENDSEC
  0
EOF
