  0
SECTION
  2
ENTITIES
  0
POLYLINE
  8
0
 10
0
 20
0
 39
0
 70
1
 66
1
  0
VERTEX
  8
0
 10
0
 20
0
 42
0
  0
VERTEX
  8
0
 10
2500
 20
0
 42
0
  0
VERTEX
  8
0
 10
2500
 20
1000
 42
0
  0
VERTEX
  8
0
 10
0
 20
1000
 42
0
  0
SEQEND
  0
POLYLINE
  8
0
 10
0
 20
0
 39
0
 70
1
 66
1
  0
VERTEX
  8
0
 10
512.5
 20
646
 42
0
  0
VERTEX
  8
0
 10
496.29998779296875
 20
646
 42
-2.4142136573791504
  0
VERTEX
  8
0
 10
495
 20
647.29998779296875
 42
-0
  0
VERTEX
  8
0
 10
495
 20
663.5
 42
0
  0
VERTEX
  8
0
 10
28
 20
663.5
 42
0
  0
VERTEX
  8
0
 10
28
 20
647.29998779296875
 42
-2.4142136573791504
  0
VERTEX
  8
0
 10
26.700000762939453
 20
646
 42
0
  0
VERTEX
  8
0
 10
10.5
 20
646
 42
0
  0
VERTEX
  8
0
 10
10.5
 20
28
 42
-0
  0
VERTEX
  8
0
 10
26.700000762939453
 20
28
 42
-2.4142136573791504
  0
VERTEX
  8
0
 10
28
 20
26.700000762939453
 42
0
  0
VERTEX
  8
0
 10
28
 20
10.5
 42
0
  0
VERTEX
  8
0
 10
495
 20
10.5
 42
0
  0
VERTEX
  8
0
 10
495
 20
26.700000762939453
 42
-2.4142136573791504
  0
VERTEX
  8
0
 10
496.29998779296875
 20
28
 42
0
  0
VERTEX
  8
0
 10
512.5
 20
28
 42
0
  0
SEQEND
  0
POLYLINE
  8
0
 10
0
 20
0
 39
0
 70
1
 66
1
  0
VERTEX
  8
0
 10
75.5
 20
80.5
 42
-0
  0
VERTEX
  8
0
 10
75.5
 20
593.5
 42
-0.41421356797218323
  0
VERTEX
  8
0
 10
80.5
 20
598.5
 42
-0
  0
VERTEX
  8
0
 10
442.5
 20
598.5
 42
-0.41421356797218323
  0
VERTEX
  8
0
 10
447.5
 20
593.5
 42
-0
  0
VERTEX
  8
0
 10
447.5
 20
80.5
 42
-0.41421356797218323
  0
VERTEX
  8
0
 10
442.5
 20
75.5
 42
-0
  0
VERTEX
  8
0
 10
80.5
 20
75.5
 42
-0.41421356797218323
  0
SEQEND
  0
POLYLINE
  8
0
 10
0
 20
0
 39
0
 70
1
 66
1
  0
VERTEX
  8
0
 10
1025
 20
646
 42
0
  0
VERTEX
  8
0
 10
1008.7999877929687
 20
646
 42
-2.4142136573791504
  0
VERTEX
  8
0
 10
1007.5
 20
647.29998779296875
 42
-0
  0
VERTEX
  8
0
 10
1007.5
 20
663.5
 42
0
  0
VERTEX
  8
0
 10
540.5
 20
663.5
 42
0
  0
VERTEX
  8
0
 10
540.5
 20
647.29998779296875
 42
-2.4142136573791504
  0
VERTEX
  8
0
 10
539.20001220703125
 20
646
 42
0
  0
VERTEX
  8
0
 10
523
 20
646
 42
0
  0
VERTEX
  8
0
 10
523
 20
28
 42
-0
  0
VERTEX
  8
0
 10
539.20001220703125
 20
28
 42
-2.4142136573791504
  0
VERTEX
  8
0
 10
540.5
 20
26.700000762939453
 42
0
  0
VERTEX
  8
0
 10
540.5
 20
10.5
 42
0
  0
VERTEX
  8
0
 10
1007.5
 20
10.5
 42
0
  0
VERTEX
  8
0
 10
1007.5
 20
26.700000762939453
 42
-2.4142136573791504
  0
VERTEX
  8
0
 10
1008.7999877929687
 20
28
 42
0
  0
VERTEX
  8
0
 10
1025
 20
28
 42
0
  0
SEQEND
  0
POLYLINE
  8
0
 10
0
 20
0
 39
0
 70
1
 66
1
  0
VERTEX
  8
0
 10
588
 20
80.5
 42
-0
  0
VERTEX
  8
0
 10
588
 20
593.5
 42
-0.41421356797218323
  0
VERTEX
  8
0
 10
593
 20
598.5
 42
-0
  0
VERTEX
  8
0
 10
955
 20
598.5
 42
-0.41421356797218323
  0
VERTEX
  8
0
 10
960
 20
593.5
 42
-0
  0
VERTEX
  8
0
 10
960
 20
80.5
 42
-0.41421356797218323
  0
VERTEX
  8
0
 10
955
 20
75.5
 42
-0
  0
VERTEX
  8
0
 10
593
 20
75.5
 42
-0.41421356797218323
  0
SEQEND
  0
POLYLINE
  8
0
 10
0
 20
0
 39
0
 70
1
 66
1
  0
VERTEX
  8
0
 10
1537.5
 20
646
 42
0
  0
VERTEX
  8
0
 10
1521.300048828125
 20
646
 42
-2.4142136573791504
  0
VERTEX
  8
0
 10
1520
 20
647.29998779296875
 42
-0
  0
VERTEX
  8
0
 10
1520
 20
663.5
 42
0
  0
VERTEX
  8
0
 10
1053
 20
663.5
 42
0
  0
VERTEX
  8
0
 10
1053
 20
647.29998779296875
 42
-2.4142136573791504
  0
VERTEX
  8
0
 10
1051.699951171875
 20
646
 42
0
  0
VERTEX
  8
0
 10
1035.5
 20
646
 42
0
  0
VERTEX
  8
0
 10
1035.5
 20
28
 42
-0
  0
VERTEX
  8
0
 10
1051.699951171875
 20
28
 42
-2.4142136573791504
  0
VERTEX
  8
0
 10
1053
 20
26.700000762939453
 42
0
  0
VERTEX
  8
0
 10
1053
 20
10.5
 42
0
  0
VERTEX
  8
0
 10
1520
 20
10.5
 42
0
  0
VERTEX
  8
0
 10
1520
 20
26.700000762939453
 42
-2.4142136573791504
  0
VERTEX
  8
0
 10
1521.300048828125
 20
28
 42
0
  0
VERTEX
  8
0
 10
1537.5
 20
28
 42
0
  0
SEQEND
  0
POLYLINE
  8
0
 10
0
 20
0
 39
0
 70
1
 66
1
  0
VERTEX
  8
0
 10
1100.5
 20
80.5
 42
-0
  0
VERTEX
  8
0
 10
1100.5
 20
593.5
 42
-0.41421356797218323
  0
VERTEX
  8
0
 10
1105.5
 20
598.5
 42
-0
  0
VERTEX
  8
0
 10
1467.5
 20
598.5
 42
-0.41421356797218323
  0
VERTEX
  8
0
 10
1472.5
 20
593.5
 42
-0
  0
VERTEX
  8
0
 10
1472.5
 20
80.5
 42
-0.41421356797218323
  0
VERTEX
  8
0
 10
1467.5
 20
75.5
 42
-0
  0
VERTEX
  8
0
 10
1105.5
 20
75.5
 42
-0.41421356797218323
  0
SEQEND
  0
POLYLINE
  8
0
 10
0
 20
0
 39
0
 70
1
 66
1
  0
VERTEX
  8
0
 10
10.5
 20
753.75
 42
0
  0
VERTEX
  8
0
 10
100.5
 20
673.75
 42
0
  0
VERTEX
  8
0
 10
240.5
 20
673.75
 42
-0
  0
VERTEX
  8
0
 10
330.5
 20
753.75
 42
0
  0
VERTEX
  8
0
 10
330.5
 20
893.75
 42
-0
  0
VERTEX
  8
0
 10
240.5
 20
973.75
 42
0
  0
VERTEX
  8
0
 10
100.5
 20
973.75
 42
-0
  0
VERTEX
  8
0
 10
10.5
 20
893.75
 42
0
  0
SEQEND
  0
POLYLINE
  8
0
 10
0
 20
0
 39
0
 70
1
 66
1
  0
VERTEX
  8
0
 10
70.5
 20
785.75
 42
-1
  0
VERTEX
  8
0
 10
70.5
 20
861.75
 42
-1
  0
SEQEND
  0
POLYLINE
  8
0
 10
0
 20
0
 39
0
 70
1
 66
1
  0
VERTEX
  8
0
 10
306
 20
86
 42
0
  0
VERTEX
  8
0
 10
386
 20
176
 42
0
  0
VERTEX
  8
0
 10
386
 20
316
 42
-0
  0
VERTEX
  8
0
 10
306
 20
406
 42
0
  0
VERTEX
  8
0
 10
166
 20
406
 42
-0
  0
VERTEX
  8
0
 10
86
 20
316
 42
0
  0
VERTEX
  8
0
 10
86
 20
176
 42
-0
  0
VERTEX
  8
0
 10
166
 20
86
 42
0
  0
SEQEND
  0
POLYLINE
  8
0
 10
0
 20
0
 39
0
 70
1
 66
1
  0
VERTEX
  8
0
 10
274
 20
146
 42
-1
  0
VERTEX
  8
0
 10
198
 20
146
 42
-1
  0
SEQEND
  0
POLYLINE
  8
0
 10
0
 20
0
 39
0
 70
1
 66
1
  0
VERTEX
  8
0
 10
341
 20
753.75
 42
0
  0
VERTEX
  8
0
 10
431
 20
673.75
 42
0
  0
VERTEX
  8
0
 10
571
 20
673.75
 42
-0
  0
VERTEX
  8
0
 10
661
 20
753.75
 42
0
  0
VERTEX
  8
0
 10
661
 20
893.75
 42
-0
  0
VERTEX
  8
0
 10
571
 20
973.75
 42
0
  0
VERTEX
  8
0
 10
431
 20
973.75
 42
-0
  0
VERTEX
  8
0
 10
341
 20
893.75
 42
0
  0
SEQEND
  0
POLYLINE
  8
0
 10
0
 20
0
 39
0
 70
1
 66
1
  0
VERTEX
  8
0
 10
401
 20
785.75
 42
-1
  0
VERTEX
  8
0
 10
401
 20
861.75
 42
-1
  0
SEQEND
  0
POLYLINE
  8
0
 10
0
 20
0
 39
0
 70
1
 66
1
  0
VERTEX
  8
0
 10
818.5
 20
86
 42
0
  0
VERTEX
  8
0
 10
898.5
 20
176
 42
0
  0
VERTEX
  8
0
 10
898.5
 20
316
 42
-0
  0
VERTEX
  8
0
 10
818.5
 20
406
 42
0
  0
VERTEX
  8
0
 10
678.5
 20
406
 42
-0
  0
VERTEX
  8
0
 10
598.5
 20
316
 42
0
  0
VERTEX
  8
0
 10
598.5
 20
176
 42
-0
  0
VERTEX
  8
0
 10
678.5
 20
86
 42
0
  0
SEQEND
  0
POLYLINE
  8
0
 10
0
 20
0
 39
0
 70
1
 66
1
  0
VERTEX
  8
0
 10
786.5
 20
146
 42
-1
  0
VERTEX
  8
0
 10
710.5
 20
146
 42
-1
  0
SEQEND
  0
POLYLINE
  8
0
 10
0
 20
0
 39
0
 70
1
 66
1
  0
VERTEX
  8
0
 10
671.5
 20
736.6279296875
 42
0.29410767555236816
  0
VERTEX
  8
0
 10
683.22265625
 20
718.4208984375
 42
-0
  0
VERTEX
  8
0
 10
777.5546875
 20
675.54296875
 42
0.10706308484077454
  0
VERTEX
  8
0
 10
785.83203125
 20
673.75
 42
0
  0
VERTEX
  8
0
 10
871.5
 20
673.75
 42
0.41421356797218323
  0
VERTEX
  8
0
 10
891.5
 20
693.75
 42
-0
  0
VERTEX
  8
0
 10
891.5
 20
893.75
 42
0.41421356797218323
  0
VERTEX
  8
0
 10
871.5
 20
913.75
 42
-0
  0
VERTEX
  8
0
 10
785.83203125
 20
913.75
 42
0.10706308484077454
  0
VERTEX
  8
0
 10
777.5546875
 20
911.95703125
 42
0
  0
VERTEX
  8
0
 10
683.22265625
 20
869.0791015625
 42
0.29410767555236816
  0
VERTEX
  8
0
 10
671.5
 20
850.8720703125
 42
0
  0
SEQEND
  0
POLYLINE
  8
0
 10
0
 20
0
 39
0
 70
1
 66
1
  0
VERTEX
  8
0
 10
796.5
 20
743.75
 42
-1
  0
VERTEX
  8
0
 10
796.5
 20
843.75
 42
-1
  0
SEQEND
  0
POLYLINE
  8
0
 10
0
 20
0
 39
0
 70
1
 66
1
  0
VERTEX
  8
0
 10
902
 20
736.6279296875
 42
0.29410767555236816
  0
VERTEX
  8
0
 10
913.72265625
 20
718.4208984375
 42
-0
  0
VERTEX
  8
0
 10
1008.0546875
 20
675.54296875
 42
0.10706308484077454
  0
VERTEX
  8
0
 10
1016.33203125
 20
673.75
 42
0
  0
VERTEX
  8
0
 10
1102
 20
673.75
 42
0.41421356797218323
  0
VERTEX
  8
0
 10
1122
 20
693.75
 42
-0
  0
VERTEX
  8
0
 10
1122
 20
893.75
 42
0.41421356797218323
  0
VERTEX
  8
0
 10
1102
 20
913.75
 42
-0
  0
VERTEX
  8
0
 10
1016.33203125
 20
913.75
 42
0.10706308484077454
  0
VERTEX
  8
0
 10
1008.0546875
 20
911.95703125
 42
0
  0
VERTEX
  8
0
 10
913.72265625
 20
869.0791015625
 42
0.29410767555236816
  0
VERTEX
  8
0
 10
902
 20
850.8720703125
 42
0
  0
SEQEND
  0
POLYLINE
  8
0
 10
0
 20
0
 39
0
 70
1
 66
1
  0
VERTEX
  8
0
 10
1027
 20
743.75
 42
-1
  0
VERTEX
  8
0
 10
1027
 20
843.75
 42
-1
  0
SEQEND
  0
POLYLINE
  8
0
 10
0
 20
0
 39
0
 70
1
 66
1
  0
VERTEX
  8
0
 10
1111
 20
148.8779296875
 42
0.29410767555236816
  0
VERTEX
  8
0
 10
1122.72265625
 20
130.6708984375
 42
-0
  0
VERTEX
  8
0
 10
1217.0546875
 20
87.79296875
 42
0.10706308484077454
  0
VERTEX
  8
0
 10
1225.33203125
 20
86
 42
0
  0
VERTEX
  8
0
 10
1311
 20
86
 42
0.41421356797218323
  0
VERTEX
  8
0
 10
1331
 20
106
 42
-0
  0
VERTEX
  8
0
 10
1331
 20
306
 42
0.41421356797218323
  0
VERTEX
  8
0
 10
1311
 20
326
 42
-0
  0
VERTEX
  8
0
 10
1225.33203125
 20
326
 42
0.10706308484077454
  0
VERTEX
  8
0
 10
1217.0546875
 20
324.20703125
 42
0
  0
VERTEX
  8
0
 10
1122.72265625
 20
281.3291015625
 42
0.29410767555236816
  0
VERTEX
  8
0
 10
1111
 20
263.1220703125
 42
0
  0
SEQEND
  0
POLYLINE
  8
0
 10
0
 20
0
 39
0
 70
1
 66
1
  0
VERTEX
  8
0
 10
1236
 20
156
 42
-1
  0
VERTEX
  8
0
 10
1236
 20
256
 42
-1
  0
SEQEND
  0
POLYLINE
  8
0
 10
0
 20
0
 39
0
 70
1
 66
1
  0
VERTEX
  8
0
 10
1331
 20
513.1220703125
 42
0.29410767555236816
  0
VERTEX
  8
0
 10
1319.27734375
 20
531.3291015625
 42
-0
  0
VERTEX
  8
0
 10
1224.9453125
 20
574.20703125
 42
0.10706308484077454
  0
VERTEX
  8
0
 10
1216.66796875
 20
576
 42
0
  0
VERTEX
  8
0
 10
1131
 20
576
 42
0.41421356797218323
  0
VERTEX
  8
0
 10
1111
 20
556
 42
-0
  0
VERTEX
  8
0
 10
1111
 20
356
 42
0.41421356797218323
  0
VERTEX
  8
0
 10
1131
 20
336
 42
-0
  0
VERTEX
  8
0
 10
1216.66796875
 20
336
 42
0.10706308484077454
  0
VERTEX
  8
0
 10
1224.9453125
 20
337.79296875
 42
0
  0
VERTEX
  8
0
 10
1319.27734375
 20
380.6708984375
 42
0.29410767555236816
  0
VERTEX
  8
0
 10
1331
 20
398.8779296875
 42
0
  0
SEQEND
  0
POLYLINE
  8
0
 10
0
 20
0
 39
0
 70
1
 66
1
  0
VERTEX
  8
0
 10
1206
 20
506
 42
-1
  0
VERTEX
  8
0
 10
1206
 20
406
 42
-1
  0
SEQEND
  0
POLYLINE
  8
0
 10
0
 20
0
 39
0
 70
1
 66
1
  0
VERTEX
  8
0
 10
1132.5
 20
736.6279296875
 42
0.29410767555236816
  0
VERTEX
  8
0
 10
1144.22265625
 20
718.4208984375
 42
-0
  0
VERTEX
  8
0
 10
1238.5546875
 20
675.54296875
 42
0.10706308484077454
  0
VERTEX
  8
0
 10
1246.83203125
 20
673.75
 42
0
  0
VERTEX
  8
0
 10
1332.5
 20
673.75
 42
0.41421356797218323
  0
VERTEX
  8
0
 10
1352.5
 20
693.75
 42
-0
  0
VERTEX
  8
0
 10
1352.5
 20
893.75
 42
0.41421356797218323
  0
VERTEX
  8
0
 10
1332.5
 20
913.75
 42
-0
  0
VERTEX
  8
0
 10
1246.83203125
 20
913.75
 42
0.10706308484077454
  0
VERTEX
  8
0
 10
1238.5546875
 20
911.95703125
 42
0
  0
VERTEX
  8
0
 10
1144.22265625
 20
869.0791015625
 42
0.29410767555236816
  0
VERTEX
  8
0
 10
1132.5
 20
850.8720703125
 42
0
  0
SEQEND
  0
POLYLINE
  8
0
 10
0
 20
0
 39
0
 70
1
 66
1
  0
VERTEX
  8
0
 10
1257.5
 20
743.75
 42
-1
  0
VERTEX
  8
0
 10
1257.5
 20
843.75
 42
-1
  0
SEQEND
  0
POLYLINE
  8
0
 10
0
 20
0
 39
0
 70
1
 66
1
  0
VERTEX
  8
0
 10
1427.5
 20
425.50039672851563
 42
0
  0
VERTEX
  8
0
 10
1414.6253662109375
 20
501.168701171875
 42
0
  0
VERTEX
  8
0
 10
1394.5
 20
516
 42
-0
  0
VERTEX
  8
0
 10
1374.5
 20
516
 42
-0
  0
VERTEX
  8
0
 10
1354.3746337890625
 20
501.168701171875
 42
-0
  0
VERTEX
  8
0
 10
1341.5
 20
425.50039672851563
 42
-0
  0
VERTEX
  8
0
 10
1341.5
 20
176.49961853027344
 42
0
  0
VERTEX
  8
0
 10
1354.3746337890625
 20
100.83132171630859
 42
0
  0
VERTEX
  8
0
 10
1374.5
 20
86
 42
0
  0
VERTEX
  8
0
 10
1394.5
 20
86
 42
-0
  0
VERTEX
  8
0
 10
1414.6253662109375
 20
100.83132171630859
 42
-0
  0
VERTEX
  8
0
 10
1427.5
 20
176.49961853027344
 42
-0
  0
SEQEND
  0
POLYLINE
  8
0
 10
0
 20
0
 39
0
 70
1
 66
1
  0
VERTEX
  8
0
 10
1392.5
 20
404.70547485351562
 42
0
  0
VERTEX
  8
0
 10
1392.5
 20
197.2945556640625
 42
-0
  0
VERTEX
  8
0
 10
1376.5
 20
197.2945556640625
 42
0
  0
VERTEX
  8
0
 10
1376.5
 20
404.70547485351562
 42
0
  0
SEQEND
  0
POLYLINE
  8
0
 10
0
 20
0
 39
0
 70
1
 66
1
  0
VERTEX
  8
0
 10
1400.5697021484375
 20
453.46646118164062
 42
0
  0
VERTEX
  8
0
 10
1384.5
 20
434.31536865234375
 42
-0
  0
VERTEX
  8
0
 10
1368.4302978515625
 20
453.46646118164062
 42
0
  0
VERTEX
  8
0
 10
1384.5
 20
472.61758422851562
 42
-0
  0
SEQEND
  0
POLYLINE
  8
0
 10
0
 20
0
 39
0
 70
1
 66
1
  0
VERTEX
  8
0
 10
1400.5697021484375
 20
148.53353881835937
 42
0
  0
VERTEX
  8
0
 10
1384.5
 20
129.38243103027344
 42
-0
  0
VERTEX
  8
0
 10
1368.4302978515625
 20
148.53353881835937
 42
0
  0
VERTEX
  8
0
 10
1384.5
 20
167.68466186523437
 42
-0
  0
SEQEND
  0
POLYLINE
  8
0
 10
0
 20
0
 39
0
 70
1
 66
1
  0
VERTEX
  8
0
 10
1633.75
 20
898.7503662109375
 42
0
  0
VERTEX
  8
0
 10
1620.8753662109375
 20
974.418701171875
 42
0
  0
VERTEX
  8
0
 10
1600.75
 20
989.25
 42
-0
  0
VERTEX
  8
0
 10
1580.75
 20
989.25
 42
-0
  0
VERTEX
  8
0
 10
1560.6246337890625
 20
974.418701171875
 42
-0
  0
VERTEX
  8
0
 10
1547.75
 20
898.7503662109375
 42
-0
  0
VERTEX
  8
0
 10
1547.75
 20
649.7496337890625
 42
0
  0
VERTEX
  8
0
 10
1560.6246337890625
 20
574.081298828125
 42
0
  0
VERTEX
  8
0
 10
1580.75
 20
559.25
 42
0
  0
VERTEX
  8
0
 10
1600.75
 20
559.25
 42
-0
  0
VERTEX
  8
0
 10
1620.8753662109375
 20
574.081298828125
 42
-0
  0
VERTEX
  8
0
 10
1633.75
 20
649.7496337890625
 42
-0
  0
SEQEND
  0
POLYLINE
  8
0
 10
0
 20
0
 39
0
 70
1
 66
1
  0
VERTEX
  8
0
 10
1598.75
 20
877.9554443359375
 42
0
  0
VERTEX
  8
0
 10
1598.75
 20
670.5445556640625
 42
-0
  0
VERTEX
  8
0
 10
1582.75
 20
670.5445556640625
 42
0
  0
VERTEX
  8
0
 10
1582.75
 20
877.9554443359375
 42
0
  0
SEQEND
  0
POLYLINE
  8
0
 10
0
 20
0
 39
0
 70
1
 66
1
  0
VERTEX
  8
0
 10
1606.8197021484375
 20
926.7164306640625
 42
0
  0
VERTEX
  8
0
 10
1590.75
 20
907.56536865234375
 42
-0
  0
VERTEX
  8
0
 10
1574.6802978515625
 20
926.7164306640625
 42
0
  0
VERTEX
  8
0
 10
1590.75
 20
945.8675537109375
 42
-0
  0
SEQEND
  0
POLYLINE
  8
0
 10
0
 20
0
 39
0
 70
1
 66
1
  0
VERTEX
  8
0
 10
1606.8197021484375
 20
621.7835693359375
 42
0
  0
VERTEX
  8
0
 10
1590.75
 20
602.6324462890625
 42
-0
  0
VERTEX
  8
0
 10
1574.6802978515625
 20
621.7835693359375
 42
0
  0
VERTEX
  8
0
 10
1590.75
 20
640.93463134765625
 42
-0
  0
SEQEND
  0
POLYLINE
  8
0
 10
0
 20
0
 39
0
 70
1
 66
1
  0
VERTEX
  8
0
 10
1634
 20
350.00039672851562
 42
0
  0
VERTEX
  8
0
 10
1621.1253662109375
 20
425.668701171875
 42
0
  0
VERTEX
  8
0
 10
1601
 20
440.5
 42
-0
  0
VERTEX
  8
0
 10
1581
 20
440.5
 42
-0
  0
VERTEX
  8
0
 10
1560.8746337890625
 20
425.668701171875
 42
-0
  0
VERTEX
  8
0
 10
1548
 20
350.00039672851562
 42
-0
  0
VERTEX
  8
0
 10
1548
 20
100.99961090087891
 42
0
  0
VERTEX
  8
0
 10
1560.8746337890625
 20
25.331323623657227
 42
0
  0
VERTEX
  8
0
 10
1581
 20
10.5
 42
0
  0
VERTEX
  8
0
 10
1601
 20
10.5
 42
-0
  0
VERTEX
  8
0
 10
1621.1253662109375
 20
25.331323623657227
 42
-0
  0
VERTEX
  8
0
 10
1634
 20
100.99961090087891
 42
-0
  0
SEQEND
  0
POLYLINE
  8
0
 10
0
 20
0
 39
0
 70
1
 66
1
  0
VERTEX
  8
0
 10
1599
 20
329.20547485351563
 42
0
  0
VERTEX
  8
0
 10
1599
 20
121.7945556640625
 42
-0
  0
VERTEX
  8
0
 10
1583
 20
121.7945556640625
 42
0
  0
VERTEX
  8
0
 10
1583
 20
329.20547485351563
 42
0
  0
SEQEND
  0
POLYLINE
  8
0
 10
0
 20
0
 39
0
 70
1
 66
1
  0
VERTEX
  8
0
 10
1607.0697021484375
 20
377.96646118164062
 42
0
  0
VERTEX
  8
0
 10
1591
 20
358.81536865234375
 42
-0
  0
VERTEX
  8
0
 10
1574.9302978515625
 20
377.96646118164062
 42
0
  0
VERTEX
  8
0
 10
1591
 20
397.11758422851562
 42
-0
  0
SEQEND
  0
POLYLINE
  8
0
 10
0
 20
0
 39
0
 70
1
 66
1
  0
VERTEX
  8
0
 10
1607.0697021484375
 20
73.033538818359375
 42
0
  0
VERTEX
  8
0
 10
1591
 20
53.882431030273437
 42
-0
  0
VERTEX
  8
0
 10
1574.9302978515625
 20
73.033538818359375
 42
0
  0
VERTEX
  8
0
 10
1591
 20
92.184654235839844
 42
-0
  0
SEQEND
  0
POLYLINE
  8
0
 10
0
 20
0
 39
0
 70
1
 66
1
  0
VERTEX
  8
0
 10
1726.5
 20
625.2503662109375
 42
0
  0
VERTEX
  8
0
 10
1713.6253662109375
 20
700.918701171875
 42
0
  0
VERTEX
  8
0
 10
1693.5
 20
715.75
 42
-0
  0
VERTEX
  8
0
 10
1673.5
 20
715.75
 42
-0
  0
VERTEX
  8
0
 10
1653.3746337890625
 20
700.918701171875
 42
-0
  0
VERTEX
  8
0
 10
1640.5
 20
625.2503662109375
 42
-0
  0
VERTEX
  8
0
 10
1640.5
 20
376.24960327148437
 42
0
  0
VERTEX
  8
0
 10
1653.3746337890625
 20
300.58132934570312
 42
0
  0
VERTEX
  8
0
 10
1673.5
 20
285.75
 42
0
  0
VERTEX
  8
0
 10
1693.5
 20
285.75
 42
-0
  0
VERTEX
  8
0
 10
1713.6253662109375
 20
300.58132934570312
 42
-0
  0
VERTEX
  8
0
 10
1726.5
 20
376.24960327148437
 42
-0
  0
SEQEND
  0
POLYLINE
  8
0
 10
0
 20
0
 39
0
 70
1
 66
1
  0
VERTEX
  8
0
 10
1691.5
 20
604.4554443359375
 42
0
  0
VERTEX
  8
0
 10
1691.5
 20
397.0445556640625
 42
-0
  0
VERTEX
  8
0
 10
1675.5
 20
397.0445556640625
 42
0
  0
VERTEX
  8
0
 10
1675.5
 20
604.4554443359375
 42
0
  0
SEQEND
  0
POLYLINE
  8
0
 10
0
 20
0
 39
0
 70
1
 66
1
  0
VERTEX
  8
0
 10
1699.5697021484375
 20
653.2164306640625
 42
0
  0
VERTEX
  8
0
 10
1683.5
 20
634.06536865234375
 42
-0
  0
VERTEX
  8
0
 10
1667.4302978515625
 20
653.2164306640625
 42
0
  0
VERTEX
  8
0
 10
1683.5
 20
672.3675537109375
 42
-0
  0
SEQEND
  0
POLYLINE
  8
0
 10
0
 20
0
 39
0
 70
1
 66
1
  0
VERTEX
  8
0
 10
1699.5697021484375
 20
348.28353881835937
 42
0
  0
VERTEX
  8
0
 10
1683.5
 20
329.1324462890625
 42
-0
  0
VERTEX
  8
0
 10
1667.4302978515625
 20
348.28353881835937
 42
0
  0
VERTEX
  8
0
 10
1683.5
 20
367.43466186523437
 42
-0
  0
SEQEND
  0
POLYLINE
  8
0
 10
0
 20
0
 39
0
 70
1
 66
1
  0
VERTEX
  8
0
 10
1819
 20
350.00039672851562
 42
0
  0
VERTEX
  8
0
 10
1806.1253662109375
 20
425.668701171875
 42
0
  0
VERTEX
  8
0
 10
1786
 20
440.5
 42
-0
  0
VERTEX
  8
0
 10
1766
 20
440.5
 42
-0
  0
VERTEX
  8
0
 10
1745.8746337890625
 20
425.668701171875
 42
-0
  0
VERTEX
  8
0
 10
1733
 20
350.00039672851562
 42
-0
  0
VERTEX
  8
0
 10
1733
 20
100.99961090087891
 42
0
  0
VERTEX
  8
0
 10
1745.8746337890625
 20
25.331323623657227
 42
0
  0
VERTEX
  8
0
 10
1766
 20
10.5
 42
0
  0
VERTEX
  8
0
 10
1786
 20
10.5
 42
-0
  0
VERTEX
  8
0
 10
1806.1253662109375
 20
25.331323623657227
 42
-0
  0
VERTEX
  8
0
 10
1819
 20
100.99961090087891
 42
-0
  0
SEQEND
  0
POLYLINE
  8
0
 10
0
 20
0
 39
0
 70
1
 66
1
  0
VERTEX
  8
0
 10
1784
 20
329.20547485351563
 42
0
  0
VERTEX
  8
0
 10
1784
 20
121.7945556640625
 42
-0
  0
VERTEX
  8
0
 10
1768
 20
121.7945556640625
 42
0
  0
VERTEX
  8
0
 10
1768
 20
329.20547485351563
 42
0
  0
SEQEND
  0
POLYLINE
  8
0
 10
0
 20
0
 39
0
 70
1
 66
1
  0
VERTEX
  8
0
 10
1792.0697021484375
 20
377.96646118164062
 42
0
  0
VERTEX
  8
0
 10
1776
 20
358.81536865234375
 42
-0
  0
VERTEX
  8
0
 10
1759.9302978515625
 20
377.96646118164062
 42
0
  0
VERTEX
  8
0
 10
1776
 20
397.11758422851562
 42
-0
  0
SEQEND
  0
POLYLINE
  8
0
 10
0
 20
0
 39
0
 70
1
 66
1
  0
VERTEX
  8
0
 10
1792.0697021484375
 20
73.033538818359375
 42
0
  0
VERTEX
  8
0
 10
1776
 20
53.882431030273437
 42
-0
  0
VERTEX
  8
0
 10
1759.9302978515625
 20
73.033538818359375
 42
0
  0
VERTEX
  8
0
 10
1776
 20
92.184654235839844
 42
-0
  0
SEQEND
  0
POLYLINE
  8
0
 10
0
 20
0
 39
0
 70
1
 66
1
  0
VERTEX
  8
0
 10
1819.25
 20
899.0003662109375
 42
0
  0
VERTEX
  8
0
 10
1806.3753662109375
 20
974.668701171875
 42
0
  0
VERTEX
  8
0
 10
1786.25
 20
989.5
 42
-0
  0
VERTEX
  8
0
 10
1766.25
 20
989.5
 42
-0
  0
VERTEX
  8
0
 10
1746.1246337890625
 20
974.668701171875
 42
-0
  0
VERTEX
  8
0
 10
1733.25
 20
899.0003662109375
 42
-0
  0
VERTEX
  8
0
 10
1733.25
 20
649.9996337890625
 42
0
  0
VERTEX
  8
0
 10
1746.1246337890625
 20
574.331298828125
 42
0
  0
VERTEX
  8
0
 10
1766.25
 20
559.5
 42
0
  0
VERTEX
  8
0
 10
1786.25
 20
559.5
 42
-0
  0
VERTEX
  8
0
 10
1806.3753662109375
 20
574.331298828125
 42
-0
  0
VERTEX
  8
0
 10
1819.25
 20
649.9996337890625
 42
-0
  0
SEQEND
  0
POLYLINE
  8
0
 10
0
 20
0
 39
0
 70
1
 66
1
  0
VERTEX
  8
0
 10
1784.25
 20
878.2054443359375
 42
0
  0
VERTEX
  8
0
 10
1784.25
 20
670.7945556640625
 42
-0
  0
VERTEX
  8
0
 10
1768.25
 20
670.7945556640625
 42
0
  0
VERTEX
  8
0
 10
1768.25
 20
878.2054443359375
 42
0
  0
SEQEND
  0
POLYLINE
  8
0
 10
0
 20
0
 39
0
 70
1
 66
1
  0
VERTEX
  8
0
 10
1792.3197021484375
 20
926.9664306640625
 42
0
  0
VERTEX
  8
0
 10
1776.25
 20
907.81536865234375
 42
-0
  0
VERTEX
  8
0
 10
1760.1802978515625
 20
926.9664306640625
 42
0
  0
VERTEX
  8
0
 10
1776.25
 20
946.1175537109375
 42
-0
  0
SEQEND
  0
POLYLINE
  8
0
 10
0
 20
0
 39
0
 70
1
 66
1
  0
VERTEX
  8
0
 10
1792.3197021484375
 20
622.0335693359375
 42
0
  0
VERTEX
  8
0
 10
1776.25
 20
602.8824462890625
 42
-0
  0
VERTEX
  8
0
 10
1760.1802978515625
 20
622.0335693359375
 42
0
  0
VERTEX
  8
0
 10
1776.25
 20
641.18463134765625
 42
-0
  0
SEQEND
  0
POLYLINE
  8
0
 10
0
 20
0
 39
0
 70
1
 66
1
  0
VERTEX
  8
0
 10
1911.75
 20
623.7503662109375
 42
0
  0
VERTEX
  8
0
 10
1898.8753662109375
 20
699.418701171875
 42
0
  0
VERTEX
  8
0
 10
1878.75
 20
714.25
 42
-0
  0
VERTEX
  8
0
 10
1858.75
 20
714.25
 42
-0
  0
VERTEX
  8
0
 10
1838.6246337890625
 20
699.418701171875
 42
-0
  0
VERTEX
  8
0
 10
1825.75
 20
623.7503662109375
 42
-0
  0
VERTEX
  8
0
 10
1825.75
 20
374.74960327148437
 42
0
  0
VERTEX
  8
0
 10
1838.6246337890625
 20
299.08132934570312
 42
0
  0
VERTEX
  8
0
 10
1858.75
 20
284.25
 42
0
  0
VERTEX
  8
0
 10
1878.75
 20
284.25
 42
-0
  0
VERTEX
  8
0
 10
1898.8753662109375
 20
299.08132934570312
 42
-0
  0
VERTEX
  8
0
 10
1911.75
 20
374.74960327148437
 42
-0
  0
SEQEND
  0
POLYLINE
  8
0
 10
0
 20
0
 39
0
 70
1
 66
1
  0
VERTEX
  8
0
 10
1876.75
 20
602.9554443359375
 42
0
  0
VERTEX
  8
0
 10
1876.75
 20
395.5445556640625
 42
-0
  0
VERTEX
  8
0
 10
1860.75
 20
395.5445556640625
 42
0
  0
VERTEX
  8
0
 10
1860.75
 20
602.9554443359375
 42
0
  0
SEQEND
  0
POLYLINE
  8
0
 10
0
 20
0
 39
0
 70
1
 66
1
  0
VERTEX
  8
0
 10
1884.8197021484375
 20
651.7164306640625
 42
0
  0
VERTEX
  8
0
 10
1868.75
 20
632.56536865234375
 42
-0
  0
VERTEX
  8
0
 10
1852.6802978515625
 20
651.7164306640625
 42
0
  0
VERTEX
  8
0
 10
1868.75
 20
670.8675537109375
 42
-0
  0
SEQEND
  0
POLYLINE
  8
0
 10
0
 20
0
 39
0
 70
1
 66
1
  0
VERTEX
  8
0
 10
1884.8197021484375
 20
346.78353881835938
 42
0
  0
VERTEX
  8
0
 10
1868.75
 20
327.6324462890625
 42
-0
  0
VERTEX
  8
0
 10
1852.6802978515625
 20
346.78353881835938
 42
0
  0
VERTEX
  8
0
 10
1868.75
 20
365.93466186523437
 42
-0
  0
SEQEND
  0
POLYLINE
  8
0
 10
0
 20
0
 39
0
 70
1
 66
1
  0
VERTEX
  8
0
 10
2004.25
 20
899.0003662109375
 42
0
  0
VERTEX
  8
0
 10
1991.3753662109375
 20
974.668701171875
 42
0
  0
VERTEX
  8
0
 10
1971.25
 20
989.5
 42
-0
  0
VERTEX
  8
0
 10
1951.25
 20
989.5
 42
-0
  0
VERTEX
  8
0
 10
1931.1246337890625
 20
974.668701171875
 42
-0
  0
VERTEX
  8
0
 10
1918.25
 20
899.0003662109375
 42
-0
  0
VERTEX
  8
0
 10
1918.25
 20
649.9996337890625
 42
0
  0
VERTEX
  8
0
 10
1931.1246337890625
 20
574.331298828125
 42
0
  0
VERTEX
  8
0
 10
1951.25
 20
559.5
 42
0
  0
VERTEX
  8
0
 10
1971.25
 20
559.5
 42
-0
  0
VERTEX
  8
0
 10
1991.3753662109375
 20
574.331298828125
 42
-0
  0
VERTEX
  8
0
 10
2004.25
 20
649.9996337890625
 42
-0
  0
SEQEND
  0
POLYLINE
  8
0
 10
0
 20
0
 39
0
 70
1
 66
1
  0
VERTEX
  8
0
 10
1969.25
 20
878.2054443359375
 42
0
  0
VERTEX
  8
0
 10
1969.25
 20
670.7945556640625
 42
-0
  0
VERTEX
  8
0
 10
1953.25
 20
670.7945556640625
 42
0
  0
VERTEX
  8
0
 10
1953.25
 20
878.2054443359375
 42
0
  0
SEQEND
  0
POLYLINE
  8
0
 10
0
 20
0
 39
0
 70
1
 66
1
  0
VERTEX
  8
0
 10
1977.3197021484375
 20
926.9664306640625
 42
0
  0
VERTEX
  8
0
 10
1961.25
 20
907.81536865234375
 42
-0
  0
VERTEX
  8
0
 10
1945.1802978515625
 20
926.9664306640625
 42
0
  0
VERTEX
  8
0
 10
1961.25
 20
946.1175537109375
 42
-0
  0
SEQEND
  0
POLYLINE
  8
0
 10
0
 20
0
 39
0
 70
1
 66
1
  0
VERTEX
  8
0
 10
1977.3197021484375
 20
622.0335693359375
 42
0
  0
VERTEX
  8
0
 10
1961.25
 20
602.8824462890625
 42
-0
  0
VERTEX
  8
0
 10
1945.1802978515625
 20
622.0335693359375
 42
0
  0
VERTEX
  8
0
 10
1961.25
 20
641.18463134765625
 42
-0
  0
SEQEND
  0
POLYLINE
  8
0
 10
0
 20
0
 39
0
 70
1
 66
1
  0
VERTEX
  8
0
 10
2004.5
 20
350.00039672851562
 42
0
  0
VERTEX
  8
0
 10
1991.6253662109375
 20
425.668701171875
 42
0
  0
VERTEX
  8
0
 10
1971.5
 20
440.5
 42
-0
  0
VERTEX
  8
0
 10
1951.5
 20
440.5
 42
-0
  0
VERTEX
  8
0
 10
1931.3746337890625
 20
425.668701171875
 42
-0
  0
VERTEX
  8
0
 10
1918.5
 20
350.00039672851562
 42
-0
  0
VERTEX
  8
0
 10
1918.5
 20
100.99961090087891
 42
0
  0
VERTEX
  8
0
 10
1931.3746337890625
 20
25.331323623657227
 42
0
  0
VERTEX
  8
0
 10
1951.5
 20
10.5
 42
0
  0
VERTEX
  8
0
 10
1971.5
 20
10.5
 42
-0
  0
VERTEX
  8
0
 10
1991.6253662109375
 20
25.331323623657227
 42
-0
  0
VERTEX
  8
0
 10
2004.5
 20
100.99961090087891
 42
-0
  0
SEQEND
  0
POLYLINE
  8
0
 10
0
 20
0
 39
0
 70
1
 66
1
  0
VERTEX
  8
0
 10
1969.5
 20
329.20547485351563
 42
0
  0
VERTEX
  8
0
 10
1969.5
 20
121.7945556640625
 42
-0
  0
VERTEX
  8
0
 10
1953.5
 20
121.7945556640625
 42
0
  0
VERTEX
  8
0
 10
1953.5
 20
329.20547485351563
 42
0
  0
SEQEND
  0
POLYLINE
  8
0
 10
0
 20
0
 39
0
 70
1
 66
1
  0
VERTEX
  8
0
 10
1977.5697021484375
 20
377.96646118164062
 42
0
  0
VERTEX
  8
0
 10
1961.5
 20
358.81536865234375
 42
-0
  0
VERTEX
  8
0
 10
1945.4302978515625
 20
377.96646118164062
 42
0
  0
VERTEX
  8
0
 10
1961.5
 20
397.11758422851562
 42
-0
  0
SEQEND
  0
POLYLINE
  8
0
 10
0
 20
0
 39
0
 70
1
 66
1
  0
VERTEX
  8
0
 10
1977.5697021484375
 20
73.033538818359375
 42
0
  0
VERTEX
  8
0
 10
1961.5
 20
53.882431030273437
 42
-0
  0
VERTEX
  8
0
 10
1945.4302978515625
 20
73.033538818359375
 42
0
  0
VERTEX
  8
0
 10
1961.5
 20
92.184654235839844
 42
-0
  0
SEQEND
  0
POLYLINE
  8
0
 10
0
 20
0
 39
0
 70
1
 66
1
  0
VERTEX
  8
0
 10
2097
 20
625.2503662109375
 42
0
  0
VERTEX
  8
0
 10
2084.12548828125
 20
700.918701171875
 42
0
  0
VERTEX
  8
0
 10
2064
 20
715.75
 42
-0
  0
VERTEX
  8
0
 10
2044
 20
715.75
 42
-0
  0
VERTEX
  8
0
 10
2023.8746337890625
 20
700.918701171875
 42
-0
  0
VERTEX
  8
0
 10
2011
 20
625.2503662109375
 42
-0
  0
VERTEX
  8
0
 10
2011
 20
376.24960327148437
 42
0
  0
VERTEX
  8
0
 10
2023.8746337890625
 20
300.58132934570312
 42
0
  0
VERTEX
  8
0
 10
2044
 20
285.75
 42
0
  0
VERTEX
  8
0
 10
2064
 20
285.75
 42
-0
  0
VERTEX
  8
0
 10
2084.12548828125
 20
300.58132934570312
 42
-0
  0
VERTEX
  8
0
 10
2097
 20
376.24960327148437
 42
-0
  0
SEQEND
  0
POLYLINE
  8
0
 10
0
 20
0
 39
0
 70
1
 66
1
  0
VERTEX
  8
0
 10
2062
 20
604.4554443359375
 42
0
  0
VERTEX
  8
0
 10
2062
 20
397.0445556640625
 42
-0
  0
VERTEX
  8
0
 10
2046
 20
397.0445556640625
 42
0
  0
VERTEX
  8
0
 10
2046
 20
604.4554443359375
 42
0
  0
SEQEND
  0
POLYLINE
  8
0
 10
0
 20
0
 39
0
 70
1
 66
1
  0
VERTEX
  8
0
 10
2070.069580078125
 20
653.2164306640625
 42
0
  0
VERTEX
  8
0
 10
2054
 20
634.06536865234375
 42
-0
  0
VERTEX
  8
0
 10
2037.9302978515625
 20
653.2164306640625
 42
0
  0
VERTEX
  8
0
 10
2054
 20
672.3675537109375
 42
-0
  0
SEQEND
  0
POLYLINE
  8
0
 10
0
 20
0
 39
0
 70
1
 66
1
  0
VERTEX
  8
0
 10
2070.069580078125
 20
348.28353881835937
 42
0
  0
VERTEX
  8
0
 10
2054
 20
329.1324462890625
 42
-0
  0
VERTEX
  8
0
 10
2037.9302978515625
 20
348.28353881835937
 42
0
  0
VERTEX
  8
0
 10
2054
 20
367.43466186523437
 42
-0
  0
SEQEND
  0
POLYLINE
  8
0
 10
0
 20
0
 39
0
 70
1
 66
1
  0
VERTEX
  8
0
 10
323.5
 20
416.25
 42
0
  0
VERTEX
  8
0
 10
326
 20
418.75
 42
0
  0
VERTEX
  8
0
 10
326
 20
497.75
 42
-0
  0
VERTEX
  8
0
 10
323.5
 20
500.25
 42
0
  0
VERTEX
  8
0
 10
88.5
 20
500.25
 42
-0
  0
VERTEX
  8
0
 10
86
 20
497.75
 42
0
  0
VERTEX
  8
0
 10
86
 20
444.25
 42
-0
  0
VERTEX
  8
0
 10
93.502578735351563
 20
416.25
 42
0
  0
SEQEND
  0
POLYLINE
  8
0
 10
0
 20
0
 39
0
 70
1
 66
1
  0
VERTEX
  8
0
 10
224
 20
458.25
 42
-1
  0
VERTEX
  8
0
 10
188
 20
458.25
 42
-1
  0
SEQEND
  0
POLYLINE
  8
0
 10
0
 20
0
 39
0
 70
1
 66
1
  0
VERTEX
  8
0
 10
836
 20
416.25
 42
0
  0
VERTEX
  8
0
 10
838.5
 20
418.75
 42
0
  0
VERTEX
  8
0
 10
838.5
 20
497.75
 42
-0
  0
VERTEX
  8
0
 10
836
 20
500.25
 42
0
  0
VERTEX
  8
0
 10
601
 20
500.25
 42
-0
  0
VERTEX
  8
0
 10
598.5
 20
497.75
 42
0
  0
VERTEX
  8
0
 10
598.5
 20
444.25
 42
-0
  0
VERTEX
  8
0
 10
606.0025634765625
 20
416.25
 42
0
  0
SEQEND
  0
POLYLINE
  8
0
 10
0
 20
0
 39
0
 70
1
 66
1
  0
VERTEX
  8
0
 10
736.5
 20
458.25
 42
-1
  0
VERTEX
  8
0
 10
700.5
 20
458.25
 42
-1
  0
SEQEND
  0
POLYLINE
  8
0
 10
0
 20
0
 39
0
 70
1
 66
1
  0
VERTEX
  8
0
 10
1363
 20
676.25
 42
0
  0
VERTEX
  8
0
 10
1365.5
 20
673.75
 42
0
  0
VERTEX
  8
0
 10
1444.5
 20
673.75
 42
-0
  0
VERTEX
  8
0
 10
1447
 20
676.25
 42
0
  0
VERTEX
  8
0
 10
1447
 20
911.25
 42
-0
  0
VERTEX
  8
0
 10
1444.5
 20
913.75
 42
0
  0
VERTEX
  8
0
 10
1391
 20
913.75
 42
-0
  0
VERTEX
  8
0
 10
1363
 20
906.2474365234375
 42
0
  0
SEQEND
  0
POLYLINE
  8
0
 10
0
 20
0
 39
0
 70
1
 66
1
  0
VERTEX
  8
0
 10
1405
 20
775.75
 42
-1
  0
VERTEX
  8
0
 10
1405
 20
811.75
 42
-1
  0
SEQEND
  0
POLYLINE
  8
0
 10
0
 20
0
 39
0
 70
1
 66
1
  0
VERTEX
  8
0
 10
2014.25
 20
728.25
 42
0
  0
VERTEX
  8
0
 10
2016.75
 20
725.75
 42
0
  0
VERTEX
  8
0
 10
2095.75
 20
725.75
 42
-0
  0
VERTEX
  8
0
 10
2098.25
 20
728.25
 42
0
  0
VERTEX
  8
0
 10
2098.25
 20
963.25
 42
-0
  0
VERTEX
  8
0
 10
2095.75
 20
965.75
 42
0
  0
VERTEX
  8
0
 10
2042.25
 20
965.75
 42
-0
  0
VERTEX
  8
0
 10
2014.25
 20
958.2474365234375
 42
0
  0
SEQEND
  0
POLYLINE
  8
0
 10
0
 20
0
 39
0
 70
1
 66
1
  0
VERTEX
  8
0
 10
2056.25
 20
827.75
 42
-1
  0
VERTEX
  8
0
 10
2056.25
 20
863.75
 42
-1
  0
SEQEND
  0
POLYLINE
  8
0
 10
0
 20
0
 39
0
 70
1
 66
1
  0
VERTEX
  8
0
 10
2014.5
 20
13
 42
0
  0
VERTEX
  8
0
 10
2017
 20
10.5
 42
0
  0
VERTEX
  8
0
 10
2096
 20
10.5
 42
-0
  0
VERTEX
  8
0
 10
2098.5
 20
13
 42
0
  0
VERTEX
  8
0
 10
2098.5
 20
248
 42
-0
  0
VERTEX
  8
0
 10
2096
 20
250.5
 42
0
  0
VERTEX
  8
0
 10
2042.5
 20
250.5
 42
-0
  0
VERTEX
  8
0
 10
2014.5
 20
242.99742126464844
 42
0
  0
SEQEND
  0
POLYLINE
  8
0
 10
0
 20
0
 39
0
 70
1
 66
1
  0
VERTEX
  8
0
 10
2056.5
 20
112.5
 42
-1
  0
VERTEX
  8
0
 10
2056.5
 20
148.5
 42
-1
  0
SEQEND
  0
POLYLINE
  8
0
 10
0
 20
0
 39
0
 70
1
 66
1
  0
VERTEX
  8
0
 10
2107
 20
254.5
 42
0
  0
VERTEX
  8
0
 10
2109.5
 20
252
 42
0
  0
VERTEX
  8
0
 10
2188.5
 20
252
 42
-0
  0
VERTEX
  8
0
 10
2191
 20
254.5
 42
0
  0
VERTEX
  8
0
 10
2191
 20
489.5
 42
-0
  0
VERTEX
  8
0
 10
2188.5
 20
492
 42
0
  0
VERTEX
  8
0
 10
2135
 20
492
 42
-0
  0
VERTEX
  8
0
 10
2107
 20
484.4974365234375
 42
0
  0
SEQEND
  0
POLYLINE
  8
0
 10
0
 20
0
 39
0
 70
1
 66
1
  0
VERTEX
  8
0
 10
2149
 20
354
 42
-1
  0
VERTEX
  8
0
 10
2149
 20
390
 42
-1
  0
SEQEND
  0
POLYLINE
  8
0
 10
0
 20
0
 39
0
 70
1
 66
1
  0
VERTEX
  8
0
 10
2108.75
 20
504.75
 42
0
  0
VERTEX
  8
0
 10
2111.25
 20
502.25
 42
0
  0
VERTEX
  8
0
 10
2190.25
 20
502.25
 42
-0
  0
VERTEX
  8
0
 10
2192.75
 20
504.75
 42
0
  0
VERTEX
  8
0
 10
2192.75
 20
739.75
 42
-0
  0
VERTEX
  8
0
 10
2190.25
 20
742.25
 42
0
  0
VERTEX
  8
0
 10
2136.75
 20
742.25
 42
-0
  0
VERTEX
  8
0
 10
2108.75
 20
734.7474365234375
 42
0
  0
SEQEND
  0
POLYLINE
  8
0
 10
0
 20
0
 39
0
 70
1
 66
1
  0
VERTEX
  8
0
 10
2150.75
 20
604.25
 42
-1
  0
VERTEX
  8
0
 10
2150.75
 20
640.25
 42
-1
  0
SEQEND
  0
POLYLINE
  8
0
 10
0
 20
0
 39
0
 70
1
 66
1
  0
VERTEX
  8
0
 10
2194.25
 20
13
 42
0
  0
VERTEX
  8
0
 10
2196.75
 20
10.5
 42
0
  0
VERTEX
  8
0
 10
2275.75
 20
10.5
 42
-0
  0
VERTEX
  8
0
 10
2278.25
 20
13
 42
0
  0
VERTEX
  8
0
 10
2278.25
 20
248
 42
-0
  0
VERTEX
  8
0
 10
2275.75
 20
250.5
 42
0
  0
VERTEX
  8
0
 10
2222.25
 20
250.5
 42
-0
  0
VERTEX
  8
0
 10
2194.25
 20
242.99742126464844
 42
0
  0
SEQEND
  0
POLYLINE
  8
0
 10
0
 20
0
 39
0
 70
1
 66
1
  0
VERTEX
  8
0
 10
2236.25
 20
112.5
 42
-1
  0
VERTEX
  8
0
 10
2236.25
 20
148.5
 42
-1
  0
SEQEND
  0
POLYLINE
  8
0
 10
0
 20
0
 39
0
 70
1
 66
1
  0
VERTEX
  8
0
 10
2195.75
 20
752
 42
0
  0
VERTEX
  8
0
 10
2198.25
 20
749.5
 42
0
  0
VERTEX
  8
0
 10
2277.25
 20
749.5
 42
-0
  0
VERTEX
  8
0
 10
2279.75
 20
752
 42
0
  0
VERTEX
  8
0
 10
2279.75
 20
987
 42
-0
  0
VERTEX
  8
0
 10
2277.25
 20
989.5
 42
0
  0
VERTEX
  8
0
 10
2223.75
 20
989.5
 42
-0
  0
VERTEX
  8
0
 10
2195.75
 20
981.9974365234375
 42
0
  0
SEQEND
  0
POLYLINE
  8
0
 10
0
 20
0
 39
0
 70
1
 66
1
  0
VERTEX
  8
0
 10
2237.75
 20
851.5
 42
-1
  0
VERTEX
  8
0
 10
2237.75
 20
887.5
 42
-1
  0
SEQEND
  0
POLYLINE
  8
0
 10
0
 20
0
 39
0
 70
1
 66
1
  0
VERTEX
  8
0
 10
2201.5
 20
263.25
 42
0
  0
VERTEX
  8
0
 10
2204
 20
260.75
 42
0
  0
VERTEX
  8
0
 10
2283
 20
260.75
 42
-0
  0
VERTEX
  8
0
 10
2285.5
 20
263.25
 42
0
  0
VERTEX
  8
0
 10
2285.5
 20
498.25
 42
-0
  0
VERTEX
  8
0
 10
2283
 20
500.75
 42
0
  0
VERTEX
  8
0
 10
2229.5
 20
500.75
 42
-0
  0
VERTEX
  8
0
 10
2201.5
 20
493.2474365234375
 42
0
  0
SEQEND
  0
POLYLINE
  8
0
 10
0
 20
0
 39
0
 70
1
 66
1
  0
VERTEX
  8
0
 10
2243.5
 20
362.75
 42
-1
  0
VERTEX
  8
0
 10
2243.5
 20
398.75
 42
-1
  0
SEQEND
  0
POLYLINE
  8
0
 10
0
 20
0
 39
0
 70
1
 66
1
  0
VERTEX
  8
0
 10
2285.75
 20
512.75
 42
0
  0
VERTEX
  8
0
 10
2288.25
 20
510.25
 42
0
  0
VERTEX
  8
0
 10
2367.25
 20
510.25
 42
-0
  0
VERTEX
  8
0
 10
2369.75
 20
512.75
 42
0
  0
VERTEX
  8
0
 10
2369.75
 20
747.75
 42
-0
  0
VERTEX
  8
0
 10
2367.25
 20
750.25
 42
0
  0
VERTEX
  8
0
 10
2313.75
 20
750.25
 42
-0
  0
VERTEX
  8
0
 10
2285.75
 20
742.7474365234375
 42
0
  0
SEQEND
  0
POLYLINE
  8
0
 10
0
 20
0
 39
0
 70
1
 66
1
  0
VERTEX
  8
0
 10
2327.75
 20
612.25
 42
-1
  0
VERTEX
  8
0
 10
2327.75
 20
648.25
 42
-1
  0
SEQEND
  0
POLYLINE
  8
0
 10
0
 20
0
 39
0
 70
1
 66
1
  0
VERTEX
  8
0
 10
2288.75
 20
13
 42
0
  0
VERTEX
  8
0
 10
2291.25
 20
10.5
 42
0
  0
VERTEX
  8
0
 10
2370.25
 20
10.5
 42
-0
  0
VERTEX
  8
0
 10
2372.75
 20
13
 42
0
  0
VERTEX
  8
0
 10
2372.75
 20
248
 42
-0
  0
VERTEX
  8
0
 10
2370.25
 20
250.5
 42
0
  0
VERTEX
  8
0
 10
2316.75
 20
250.5
 42
-0
  0
VERTEX
  8
0
 10
2288.75
 20
242.99742126464844
 42
0
  0
SEQEND
  0
POLYLINE
  8
0
 10
0
 20
0
 39
0
 70
1
 66
1
  0
VERTEX
  8
0
 10
2330.75
 20
112.5
 42
-1
  0
VERTEX
  8
0
 10
2330.75
 20
148.5
 42
-1
  0
SEQEND
  0
POLYLINE
  8
0
 10
0
 20
0
 39
0
 70
1
 66
1
  0
VERTEX
  8
0
 10
2345
 20
263.25
 42
0
  0
VERTEX
  8
0
 10
2347.5
 20
260.75
 42
0
  0
VERTEX
  8
0
 10
2426.5
 20
260.75
 42
-0
  0
VERTEX
  8
0
 10
2429
 20
263.25
 42
0
  0
VERTEX
  8
0
 10
2429
 20
498.25
 42
-0
  0
VERTEX
  8
0
 10
2426.5
 20
500.75
 42
0
  0
VERTEX
  8
0
 10
2373
 20
500.75
 42
-0
  0
VERTEX
  8
0
 10
2345
 20
493.2474365234375
 42
0
  0
SEQEND
  0
POLYLINE
  8
0
 10
0
 20
0
 39
0
 70
1
 66
1
  0
VERTEX
  8
0
 10
2387
 20
362.75
 42
-1
  0
VERTEX
  8
0
 10
2387
 20
398.75
 42
-1
  0
SEQEND
  0
POLYLINE
  8
0
 10
0
 20
0
 39
0
 70
1
 66
1
  0
VERTEX
  8
0
 10
2379.75
 20
751.75
 42
0
  0
VERTEX
  8
0
 10
2382.25
 20
749.25
 42
0
  0
VERTEX
  8
0
 10
2461.25
 20
749.25
 42
-0
  0
VERTEX
  8
0
 10
2463.75
 20
751.75
 42
0
  0
VERTEX
  8
0
 10
2463.75
 20
986.75
 42
-0
  0
VERTEX
  8
0
 10
2461.25
 20
989.25
 42
0
  0
VERTEX
  8
0
 10
2407.75
 20
989.25
 42
-0
  0
VERTEX
  8
0
 10
2379.75
 20
981.7474365234375
 42
0
  0
SEQEND
  0
POLYLINE
  8
0
 10
0
 20
0
 39
0
 70
1
 66
1
  0
VERTEX
  8
0
 10
2421.75
 20
851.25
 42
-1
  0
VERTEX
  8
0
 10
2421.75
 20
887.25
 42
-1
  0
SEQEND
  0
POLYLINE
  8
0
 10
0
 20
0
 39
0
 70
1
 66
1
  0
VERTEX
  8
0
 10
2383.25
 20
13
 42
0
  0
VERTEX
  8
0
 10
2385.75
 20
10.5
 42
0
  0
VERTEX
  8
0
 10
2464.75
 20
10.5
 42
-0
  0
VERTEX
  8
0
 10
2467.25
 20
13
 42
0
  0
VERTEX
  8
0
 10
2467.25
 20
248
 42
-0
  0
VERTEX
  8
0
 10
2464.75
 20
250.5
 42
0
  0
VERTEX
  8
0
 10
2411.25
 20
250.5
 42
-0
  0
VERTEX
  8
0
 10
2383.25
 20
242.99742126464844
 42
0
  0
SEQEND
  0
POLYLINE
  8
0
 10
0
 20
0
 39
0
 70
1
 66
1
  0
VERTEX
  8
0
 10
2425.25
 20
112.5
 42
-1
  0
VERTEX
  8
0
 10
2425.25
 20
148.5
 42
-1
  0
SEQEND
  0
POLYLINE
  8
0
 10
0
 20
0
 39
0
 70
1
 66
1
  0
VERTEX
  8
0
 10
96
 20
580.5
 42
0
  0
VERTEX
  8
0
 10
86
 20
570.5
 42
0
  0
VERTEX
  8
0
 10
86
 20
520.5
 42
0
  0
VERTEX
  8
0
 10
96
 20
510.5
 42
0
  0
VERTEX
  8
0
 10
206
 20
510.5
 42
0
  0
VERTEX
  8
0
 10
216
 20
520.5
 42
0
  0
VERTEX
  8
0
 10
216
 20
570.5
 42
0
  0
VERTEX
  8
0
 10
206
 20
580.5
 42
0
  0
SEQEND
  0
POLYLINE
  8
0
 10
0
 20
0
 39
0
 70
1
 66
1
  0
VERTEX
  8
0
 10
176
 20
545.5
 42
-1
  0
VERTEX
  8
0
 10
126
 20
545.5
 42
-1
  0
SEQEND
  0
POLYLINE
  8
0
 10
0
 20
0
 39
0
 70
1
 66
1
  0
VERTEX
  8
0
 10
209.5
 20
545.5
 42
-1
  0
VERTEX
  8
0
 10
197.5
 20
545.5
 42
-1
  0
SEQEND
  0
POLYLINE
  8
0
 10
0
 20
0
 39
0
 70
1
 66
1
  0
VERTEX
  8
0
 10
104.5
 20
545.5
 42
-1
  0
VERTEX
  8
0
 10
92.5
 20
545.5
 42
-1
  0
SEQEND
  0
POLYLINE
  8
0
 10
0
 20
0
 39
0
 70
1
 66
1
  0
VERTEX
  8
0
 10
236.5
 20
580.5
 42
0
  0
VERTEX
  8
0
 10
226.5
 20
570.5
 42
0
  0
VERTEX
  8
0
 10
226.5
 20
520.5
 42
0
  0
VERTEX
  8
0
 10
236.5
 20
510.5
 42
0
  0
VERTEX
  8
0
 10
346.5
 20
510.5
 42
0
  0
VERTEX
  8
0
 10
356.5
 20
520.5
 42
0
  0
VERTEX
  8
0
 10
356.5
 20
570.5
 42
0
  0
VERTEX
  8
0
 10
346.5
 20
580.5
 42
0
  0
SEQEND
  0
POLYLINE
  8
0
 10
0
 20
0
 39
0
 70
1
 66
1
  0
VERTEX
  8
0
 10
316.5
 20
545.5
 42
-1
  0
VERTEX
  8
0
 10
266.5
 20
545.5
 42
-1
  0
SEQEND
  0
POLYLINE
  8
0
 10
0
 20
0
 39
0
 70
1
 66
1
  0
VERTEX
  8
0
 10
350
 20
545.5
 42
-1
  0
VERTEX
  8
0
 10
338
 20
545.5
 42
-1
  0
SEQEND
  0
POLYLINE
  8
0
 10
0
 20
0
 39
0
 70
1
 66
1
  0
VERTEX
  8
0
 10
245
 20
545.5
 42
-1
  0
VERTEX
  8
0
 10
233
 20
545.5
 42
-1
  0
SEQEND
  0
POLYLINE
  8
0
 10
0
 20
0
 39
0
 70
1
 66
1
  0
VERTEX
  8
0
 10
412.25
 20
491.25
 42
0
  0
VERTEX
  8
0
 10
402.25
 20
501.25
 42
0
  0
VERTEX
  8
0
 10
352.25
 20
501.25
 42
0
  0
VERTEX
  8
0
 10
342.25
 20
491.25
 42
0
  0
VERTEX
  8
0
 10
342.25
 20
381.25
 42
0
  0
VERTEX
  8
0
 10
352.25
 20
371.25
 42
0
  0
VERTEX
  8
0
 10
402.25
 20
371.25
 42
0
  0
VERTEX
  8
0
 10
412.25
 20
381.25
 42
0
  0
SEQEND
  0
POLYLINE
  8
0
 10
0
 20
0
 39
0
 70
1
 66
1
  0
VERTEX
  8
0
 10
377.25
 20
411.25
 42
-1
  0
VERTEX
  8
0
 10
377.25
 20
461.25
 42
-1
  0
SEQEND
  0
POLYLINE
  8
0
 10
0
 20
0
 39
0
 70
1
 66
1
  0
VERTEX
  8
0
 10
377.25
 20
377.75
 42
-1
  0
VERTEX
  8
0
 10
377.25
 20
389.75
 42
-1
  0
SEQEND
  0
POLYLINE
  8
0
 10
0
 20
0
 39
0
 70
1
 66
1
  0
VERTEX
  8
0
 10
377.25
 20
482.75
 42
-1
  0
VERTEX
  8
0
 10
377.25
 20
494.75
 42
-1
  0
SEQEND
  0
POLYLINE
  8
0
 10
0
 20
0
 39
0
 70
1
 66
1
  0
VERTEX
  8
0
 10
608.5
 20
580.5
 42
0
  0
VERTEX
  8
0
 10
598.5
 20
570.5
 42
0
  0
VERTEX
  8
0
 10
598.5
 20
520.5
 42
0
  0
VERTEX
  8
0
 10
608.5
 20
510.5
 42
0
  0
VERTEX
  8
0
 10
718.5
 20
510.5
 42
0
  0
VERTEX
  8
0
 10
728.5
 20
520.5
 42
0
  0
VERTEX
  8
0
 10
728.5
 20
570.5
 42
0
  0
VERTEX
  8
0
 10
718.5
 20
580.5
 42
0
  0
SEQEND
  0
POLYLINE
  8
0
 10
0
 20
0
 39
0
 70
1
 66
1
  0
VERTEX
  8
0
 10
688.5
 20
545.5
 42
-1
  0
VERTEX
  8
0
 10
638.5
 20
545.5
 42
-1
  0
SEQEND
  0
POLYLINE
  8
0
 10
0
 20
0
 39
0
 70
1
 66
1
  0
VERTEX
  8
0
 10
722
 20
545.5
 42
-1
  0
VERTEX
  8
0
 10
710
 20
545.5
 42
-1
  0
SEQEND
  0
POLYLINE
  8
0
 10
0
 20
0
 39
0
 70
1
 66
1
  0
VERTEX
  8
0
 10
617
 20
545.5
 42
-1
  0
VERTEX
  8
0
 10
605
 20
545.5
 42
-1
  0
SEQEND
  0
POLYLINE
  8
0
 10
0
 20
0
 39
0
 70
1
 66
1
  0
VERTEX
  8
0
 10
648.25
 20
989.5
 42
0
  0
VERTEX
  8
0
 10
638.25
 20
979.5
 42
0
  0
VERTEX
  8
0
 10
638.25
 20
929.5
 42
0
  0
VERTEX
  8
0
 10
648.25
 20
919.5
 42
0
  0
VERTEX
  8
0
 10
758.25
 20
919.5
 42
0
  0
VERTEX
  8
0
 10
768.25
 20
929.5
 42
0
  0
VERTEX
  8
0
 10
768.25
 20
979.5
 42
0
  0
VERTEX
  8
0
 10
758.25
 20
989.5
 42
0
  0
SEQEND
  0
POLYLINE
  8
0
 10
0
 20
0
 39
0
 70
1
 66
1
  0
VERTEX
  8
0
 10
728.25
 20
954.5
 42
-1
  0
VERTEX
  8
0
 10
678.25
 20
954.5
 42
-1
  0
SEQEND
  0
POLYLINE
  8
0
 10
0
 20
0
 39
0
 70
1
 66
1
  0
VERTEX
  8
0
 10
761.75
 20
954.5
 42
-1
  0
VERTEX
  8
0
 10
749.75
 20
954.5
 42
-1
  0
SEQEND
  0
POLYLINE
  8
0
 10
0
 20
0
 39
0
 70
1
 66
1
  0
VERTEX
  8
0
 10
656.75
 20
954.5
 42
-1
  0
VERTEX
  8
0
 10
644.75
 20
954.5
 42
-1
  0
SEQEND
  0
POLYLINE
  8
0
 10
0
 20
0
 39
0
 70
1
 66
1
  0
VERTEX
  8
0
 10
749
 20
580.5
 42
0
  0
VERTEX
  8
0
 10
739
 20
570.5
 42
0
  0
VERTEX
  8
0
 10
739
 20
520.5
 42
0
  0
VERTEX
  8
0
 10
749
 20
510.5
 42
0
  0
VERTEX
  8
0
 10
859
 20
510.5
 42
0
  0
VERTEX
  8
0
 10
869
 20
520.5
 42
0
  0
VERTEX
  8
0
 10
869
 20
570.5
 42
0
  0
VERTEX
  8
0
 10
859
 20
580.5
 42
0
  0
SEQEND
  0
POLYLINE
  8
0
 10
0
 20
0
 39
0
 70
1
 66
1
  0
VERTEX
  8
0
 10
829
 20
545.5
 42
-1
  0
VERTEX
  8
0
 10
779
 20
545.5
 42
-1
  0
SEQEND
  0
POLYLINE
  8
0
 10
0
 20
0
 39
0
 70
1
 66
1
  0
VERTEX
  8
0
 10
862.5
 20
545.5
 42
-1
  0
VERTEX
  8
0
 10
850.5
 20
545.5
 42
-1
  0
SEQEND
  0
POLYLINE
  8
0
 10
0
 20
0
 39
0
 70
1
 66
1
  0
VERTEX
  8
0
 10
757.5
 20
545.5
 42
-1
  0
VERTEX
  8
0
 10
745.5
 20
545.5
 42
-1
  0
SEQEND
  0
POLYLINE
  8
0
 10
0
 20
0
 39
0
 70
1
 66
1
  0
VERTEX
  8
0
 10
924.75
 20
491.25
 42
0
  0
VERTEX
  8
0
 10
914.75
 20
501.25
 42
0
  0
VERTEX
  8
0
 10
864.75
 20
501.25
 42
0
  0
VERTEX
  8
0
 10
854.75
 20
491.25
 42
0
  0
VERTEX
  8
0
 10
854.75
 20
381.25
 42
0
  0
VERTEX
  8
0
 10
864.75
 20
371.25
 42
0
  0
VERTEX
  8
0
 10
914.75
 20
371.25
 42
0
  0
VERTEX
  8
0
 10
924.75
 20
381.25
 42
0
  0
SEQEND
  0
POLYLINE
  8
0
 10
0
 20
0
 39
0
 70
1
 66
1
  0
VERTEX
  8
0
 10
889.75
 20
411.25
 42
-1
  0
VERTEX
  8
0
 10
889.75
 20
461.25
 42
-1
  0
SEQEND
  0
POLYLINE
  8
0
 10
0
 20
0
 39
0
 70
1
 66
1
  0
VERTEX
  8
0
 10
889.75
 20
377.75
 42
-1
  0
VERTEX
  8
0
 10
889.75
 20
389.75
 42
-1
  0
SEQEND
  0
POLYLINE
  8
0
 10
0
 20
0
 39
0
 70
1
 66
1
  0
VERTEX
  8
0
 10
889.75
 20
482.75
 42
-1
  0
VERTEX
  8
0
 10
889.75
 20
494.75
 42
-1
  0
SEQEND
  0
POLYLINE
  8
0
 10
0
 20
0
 39
0
 70
1
 66
1
  0
VERTEX
  8
0
 10
888.25
 20
989.5
 42
0
  0
VERTEX
  8
0
 10
878.25
 20
979.5
 42
0
  0
VERTEX
  8
0
 10
878.25
 20
929.5
 42
0
  0
VERTEX
  8
0
 10
888.25
 20
919.5
 42
0
  0
VERTEX
  8
0
 10
998.25
 20
919.5
 42
0
  0
VERTEX
  8
0
 10
1008.25
 20
929.5
 42
0
  0
VERTEX
  8
0
 10
1008.25
 20
979.5
 42
0
  0
VERTEX
  8
0
 10
998.25
 20
989.5
 42
0
  0
SEQEND
  0
POLYLINE
  8
0
 10
0
 20
0
 39
0
 70
1
 66
1
  0
VERTEX
  8
0
 10
968.25
 20
954.5
 42
-1
  0
VERTEX
  8
0
 10
918.25
 20
954.5
 42
-1
  0
SEQEND
  0
POLYLINE
  8
0
 10
0
 20
0
 39
0
 70
1
 66
1
  0
VERTEX
  8
0
 10
1001.75
 20
954.5
 42
-1
  0
VERTEX
  8
0
 10
989.75
 20
954.5
 42
-1
  0
SEQEND
  0
POLYLINE
  8
0
 10
0
 20
0
 39
0
 70
1
 66
1
  0
VERTEX
  8
0
 10
896.75
 20
954.5
 42
-1
  0
VERTEX
  8
0
 10
884.75
 20
954.5
 42
-1
  0
SEQEND
  0
POLYLINE
  8
0
 10
0
 20
0
 39
0
 70
1
 66
1
  0
VERTEX
  8
0
 10
1118.75
 20
989.5
 42
0
  0
VERTEX
  8
0
 10
1108.75
 20
979.5
 42
0
  0
VERTEX
  8
0
 10
1108.75
 20
929.5
 42
0
  0
VERTEX
  8
0
 10
1118.75
 20
919.5
 42
0
  0
VERTEX
  8
0
 10
1228.75
 20
919.5
 42
0
  0
VERTEX
  8
0
 10
1238.75
 20
929.5
 42
0
  0
VERTEX
  8
0
 10
1238.75
 20
979.5
 42
0
  0
VERTEX
  8
0
 10
1228.75
 20
989.5
 42
0
  0
SEQEND
  0
POLYLINE
  8
0
 10
0
 20
0
 39
0
 70
1
 66
1
  0
VERTEX
  8
0
 10
1198.75
 20
954.5
 42
-1
  0
VERTEX
  8
0
 10
1148.75
 20
954.5
 42
-1
  0
SEQEND
  0
POLYLINE
  8
0
 10
0
 20
0
 39
0
 70
1
 66
1
  0
VERTEX
  8
0
 10
1232.25
 20
954.5
 42
-1
  0
VERTEX
  8
0
 10
1220.25
 20
954.5
 42
-1
  0
SEQEND
  0
POLYLINE
  8
0
 10
0
 20
0
 39
0
 70
1
 66
1
  0
VERTEX
  8
0
 10
1127.25
 20
954.5
 42
-1
  0
VERTEX
  8
0
 10
1115.25
 20
954.5
 42
-1
  0
SEQEND
  0
POLYLINE
  8
0
 10
0
 20
0
 39
0
 70
1
 66
1
  0
VERTEX
  8
0
 10
1527.5
 20
793.75
 42
0
  0
VERTEX
  8
0
 10
1517.5
 20
803.75
 42
0
  0
VERTEX
  8
0
 10
1467.5
 20
803.75
 42
0
  0
VERTEX
  8
0
 10
1457.5
 20
793.75
 42
0
  0
VERTEX
  8
0
 10
1457.5
 20
683.75
 42
0
  0
VERTEX
  8
0
 10
1467.5
 20
673.75
 42
0
  0
VERTEX
  8
0
 10
1517.5
 20
673.75
 42
0
  0
VERTEX
  8
0
 10
1527.5
 20
683.75
 42
0
  0
SEQEND
  0
POLYLINE
  8
0
 10
0
 20
0
 39
0
 70
1
 66
1
  0
VERTEX
  8
0
 10
1492.5
 20
713.75
 42
-1
  0
VERTEX
  8
0
 10
1492.5
 20
763.75
 42
-1
  0
SEQEND
  0
POLYLINE
  8
0
 10
0
 20
0
 39
0
 70
1
 66
1
  0
VERTEX
  8
0
 10
1492.5
 20
680.25
 42
-1
  0
VERTEX
  8
0
 10
1492.5
 20
692.25
 42
-1
  0
SEQEND
  0
POLYLINE
  8
0
 10
0
 20
0
 39
0
 70
1
 66
1
  0
VERTEX
  8
0
 10
1492.5
 20
785.25
 42
-1
  0
VERTEX
  8
0
 10
1492.5
 20
797.25
 42
-1
  0
SEQEND
  0
POLYLINE
  8
0
 10
0
 20
0
 39
0
 70
1
 66
1
  0
VERTEX
  8
0
 10
1527.5
 20
934
 42
0
  0
VERTEX
  8
0
 10
1517.5
 20
944
 42
0
  0
VERTEX
  8
0
 10
1467.5
 20
944
 42
0
  0
VERTEX
  8
0
 10
1457.5
 20
934
 42
0
  0
VERTEX
  8
0
 10
1457.5
 20
824
 42
0
  0
VERTEX
  8
0
 10
1467.5
 20
814
 42
0
  0
VERTEX
  8
0
 10
1517.5
 20
814
 42
0
  0
VERTEX
  8
0
 10
1527.5
 20
824
 42
0
  0
SEQEND
  0
POLYLINE
  8
0
 10
0
 20
0
 39
0
 70
1
 66
1
  0
VERTEX
  8
0
 10
1492.5
 20
854
 42
-1
  0
VERTEX
  8
0
 10
1492.5
 20
904
 42
-1
  0
SEQEND
  0
POLYLINE
  8
0
 10
0
 20
0
 39
0
 70
1
 66
1
  0
VERTEX
  8
0
 10
1492.5
 20
820.5
 42
-1
  0
VERTEX
  8
0
 10
1492.5
 20
832.5
 42
-1
  0
SEQEND
  0
POLYLINE
  8
0
 10
0
 20
0
 39
0
 70
1
 66
1
  0
VERTEX
  8
0
 10
1492.5
 20
925.5
 42
-1
  0
VERTEX
  8
0
 10
1492.5
 20
937.5
 42
-1
  0
SEQEND
  0
POLYLINE
  8
0
 10
0
 20
0
 39
0
 70
1
 66
1
  0
VERTEX
  8
0
 10
1713.75
 20
845.75
 42
0
  0
VERTEX
  8
0
 10
1703.75
 20
855.75
 42
0
  0
VERTEX
  8
0
 10
1653.75
 20
855.75
 42
0
  0
VERTEX
  8
0
 10
1643.75
 20
845.75
 42
0
  0
VERTEX
  8
0
 10
1643.75
 20
735.75
 42
0
  0
VERTEX
  8
0
 10
1653.75
 20
725.75
 42
0
  0
VERTEX
  8
0
 10
1703.75
 20
725.75
 42
0
  0
VERTEX
  8
0
 10
1713.75
 20
735.75
 42
0
  0
SEQEND
  0
POLYLINE
  8
0
 10
0
 20
0
 39
0
 70
1
 66
1
  0
VERTEX
  8
0
 10
1678.75
 20
765.75
 42
-1
  0
VERTEX
  8
0
 10
1678.75
 20
815.75
 42
-1
  0
SEQEND
  0
POLYLINE
  8
0
 10
0
 20
0
 39
0
 70
1
 66
1
  0
VERTEX
  8
0
 10
1678.75
 20
732.25
 42
-1
  0
VERTEX
  8
0
 10
1678.75
 20
744.25
 42
-1
  0
SEQEND
  0
POLYLINE
  8
0
 10
0
 20
0
 39
0
 70
1
 66
1
  0
VERTEX
  8
0
 10
1678.75
 20
837.25
 42
-1
  0
VERTEX
  8
0
 10
1678.75
 20
849.25
 42
-1
  0
SEQEND
  0
POLYLINE
  8
0
 10
0
 20
0
 39
0
 70
1
 66
1
  0
VERTEX
  8
0
 10
1714
 20
130.5
 42
0
  0
VERTEX
  8
0
 10
1704
 20
140.5
 42
0
  0
VERTEX
  8
0
 10
1654
 20
140.5
 42
0
  0
VERTEX
  8
0
 10
1644
 20
130.5
 42
0
  0
VERTEX
  8
0
 10
1644
 20
20.5
 42
0
  0
VERTEX
  8
0
 10
1654
 20
10.5
 42
0
  0
VERTEX
  8
0
 10
1704
 20
10.5
 42
0
  0
VERTEX
  8
0
 10
1714
 20
20.5
 42
0
  0
SEQEND
  0
POLYLINE
  8
0
 10
0
 20
0
 39
0
 70
1
 66
1
  0
VERTEX
  8
0
 10
1679
 20
50.5
 42
-1
  0
VERTEX
  8
0
 10
1679
 20
100.5
 42
-1
  0
SEQEND
  0
POLYLINE
  8
0
 10
0
 20
0
 39
0
 70
1
 66
1
  0
VERTEX
  8
0
 10
1679
 20
17
 42
-1
  0
VERTEX
  8
0
 10
1679
 20
29
 42
-1
  0
SEQEND
  0
POLYLINE
  8
0
 10
0
 20
0
 39
0
 70
1
 66
1
  0
VERTEX
  8
0
 10
1679
 20
122
 42
-1
  0
VERTEX
  8
0
 10
1679
 20
134
 42
-1
  0
SEQEND
  0
POLYLINE
  8
0
 10
0
 20
0
 39
0
 70
1
 66
1
  0
VERTEX
  8
0
 10
1899
 20
130.5
 42
0
  0
VERTEX
  8
0
 10
1889
 20
140.5
 42
0
  0
VERTEX
  8
0
 10
1839
 20
140.5
 42
0
  0
VERTEX
  8
0
 10
1829
 20
130.5
 42
0
  0
VERTEX
  8
0
 10
1829
 20
20.5
 42
0
  0
VERTEX
  8
0
 10
1839
 20
10.5
 42
0
  0
VERTEX
  8
0
 10
1889
 20
10.5
 42
0
  0
VERTEX
  8
0
 10
1899
 20
20.5
 42
0
  0
SEQEND
  0
POLYLINE
  8
0
 10
0
 20
0
 39
0
 70
1
 66
1
  0
VERTEX
  8
0
 10
1864
 20
50.5
 42
-1
  0
VERTEX
  8
0
 10
1864
 20
100.5
 42
-1
  0
SEQEND
  0
POLYLINE
  8
0
 10
0
 20
0
 39
0
 70
1
 66
1
  0
VERTEX
  8
0
 10
1864
 20
17
 42
-1
  0
VERTEX
  8
0
 10
1864
 20
29
 42
-1
  0
SEQEND
  0
POLYLINE
  8
0
 10
0
 20
0
 39
0
 70
1
 66
1
  0
VERTEX
  8
0
 10
1864
 20
122
 42
-1
  0
VERTEX
  8
0
 10
1864
 20
134
 42
-1
  0
SEQEND
  0
POLYLINE
  8
0
 10
0
 20
0
 39
0
 70
1
 66
1
  0
VERTEX
  8
0
 10
1899.25
 20
844.25
 42
0
  0
VERTEX
  8
0
 10
1889.25
 20
854.25
 42
0
  0
VERTEX
  8
0
 10
1839.25
 20
854.25
 42
0
  0
VERTEX
  8
0
 10
1829.25
 20
844.25
 42
0
  0
VERTEX
  8
0
 10
1829.25
 20
734.25
 42
0
  0
VERTEX
  8
0
 10
1839.25
 20
724.25
 42
0
  0
VERTEX
  8
0
 10
1889.25
 20
724.25
 42
0
  0
VERTEX
  8
0
 10
1899.25
 20
734.25
 42
0
  0
SEQEND
  0
POLYLINE
  8
0
 10
0
 20
0
 39
0
 70
1
 66
1
  0
VERTEX
  8
0
 10
1864.25
 20
764.25
 42
-1
  0
VERTEX
  8
0
 10
1864.25
 20
814.25
 42
-1
  0
SEQEND
  0
POLYLINE
  8
0
 10
0
 20
0
 39
0
 70
1
 66
1
  0
VERTEX
  8
0
 10
1864.25
 20
730.75
 42
-1
  0
VERTEX
  8
0
 10
1864.25
 20
742.75
 42
-1
  0
SEQEND
  0
POLYLINE
  8
0
 10
0
 20
0
 39
0
 70
1
 66
1
  0
VERTEX
  8
0
 10
1864.25
 20
835.75
 42
-1
  0
VERTEX
  8
0
 10
1864.25
 20
847.75
 42
-1
  0
SEQEND
  0
POLYLINE
  8
0
 10
0
 20
0
 39
0
 70
1
 66
1
  0
VERTEX
  8
0
 10
2178.75
 20
872.5
 42
0
  0
VERTEX
  8
0
 10
2168.75
 20
882.5
 42
0
  0
VERTEX
  8
0
 10
2118.75
 20
882.5
 42
0
  0
VERTEX
  8
0
 10
2108.75
 20
872.5
 42
0
  0
VERTEX
  8
0
 10
2108.75
 20
762.5
 42
0
  0
VERTEX
  8
0
 10
2118.75
 20
752.5
 42
0
  0
VERTEX
  8
0
 10
2168.75
 20
752.5
 42
0
  0
VERTEX
  8
0
 10
2178.75
 20
762.5
 42
0
  0
SEQEND
  0
POLYLINE
  8
0
 10
0
 20
0
 39
0
 70
1
 66
1
  0
VERTEX
  8
0
 10
2143.75
 20
792.5
 42
-1
  0
VERTEX
  8
0
 10
2143.75
 20
842.5
 42
-1
  0
SEQEND
  0
POLYLINE
  8
0
 10
0
 20
0
 39
0
 70
1
 66
1
  0
VERTEX
  8
0
 10
2143.75
 20
759
 42
-1
  0
VERTEX
  8
0
 10
2143.75
 20
771
 42
-1
  0
SEQEND
  0
POLYLINE
  8
0
 10
0
 20
0
 39
0
 70
1
 66
1
  0
VERTEX
  8
0
 10
2143.75
 20
864
 42
-1
  0
VERTEX
  8
0
 10
2143.75
 20
876
 42
-1
  0
SEQEND
  0
POLYLINE
  8
0
 10
0
 20
0
 39
0
 70
1
 66
1
  0
VERTEX
  8
0
 10
2179
 20
130.5
 42
0
  0
VERTEX
  8
0
 10
2169
 20
140.5
 42
0
  0
VERTEX
  8
0
 10
2119
 20
140.5
 42
0
  0
VERTEX
  8
0
 10
2109
 20
130.5
 42
0
  0
VERTEX
  8
0
 10
2109
 20
20.5
 42
0
  0
VERTEX
  8
0
 10
2119
 20
10.5
 42
0
  0
VERTEX
  8
0
 10
2169
 20
10.5
 42
0
  0
VERTEX
  8
0
 10
2179
 20
20.5
 42
0
  0
SEQEND
  0
POLYLINE
  8
0
 10
0
 20
0
 39
0
 70
1
 66
1
  0
VERTEX
  8
0
 10
2144
 20
50.5
 42
-1
  0
VERTEX
  8
0
 10
2144
 20
100.5
 42
-1
  0
SEQEND
  0
POLYLINE
  8
0
 10
0
 20
0
 39
0
 70
1
 66
1
  0
VERTEX
  8
0
 10
2144
 20
17
 42
-1
  0
VERTEX
  8
0
 10
2144
 20
29
 42
-1
  0
SEQEND
  0
POLYLINE
  8
0
 10
0
 20
0
 39
0
 70
1
 66
1
  0
VERTEX
  8
0
 10
2144
 20
122
 42
-1
  0
VERTEX
  8
0
 10
2144
 20
134
 42
-1
  0
SEQEND
  0
POLYLINE
  8
0
 10
0
 20
0
 39
0
 70
1
 66
1
  0
VERTEX
  8
0
 10
2273.25
 20
631
 42
0
  0
VERTEX
  8
0
 10
2263.25
 20
641
 42
0
  0
VERTEX
  8
0
 10
2213.25
 20
641
 42
0
  0
VERTEX
  8
0
 10
2203.25
 20
631
 42
0
  0
VERTEX
  8
0
 10
2203.25
 20
521
 42
0
  0
VERTEX
  8
0
 10
2213.25
 20
511
 42
0
  0
VERTEX
  8
0
 10
2263.25
 20
511
 42
0
  0
VERTEX
  8
0
 10
2273.25
 20
521
 42
0
  0
SEQEND
  0
POLYLINE
  8
0
 10
0
 20
0
 39
0
 70
1
 66
1
  0
VERTEX
  8
0
 10
2238.25
 20
551
 42
-1
  0
VERTEX
  8
0
 10
2238.25
 20
601
 42
-1
  0
SEQEND
  0
POLYLINE
  8
0
 10
0
 20
0
 39
0
 70
1
 66
1
  0
VERTEX
  8
0
 10
2238.25
 20
517.5
 42
-1
  0
VERTEX
  8
0
 10
2238.25
 20
529.5
 42
-1
  0
SEQEND
  0
POLYLINE
  8
0
 10
0
 20
0
 39
0
 70
1
 66
1
  0
VERTEX
  8
0
 10
2238.25
 20
622.5
 42
-1
  0
VERTEX
  8
0
 10
2238.25
 20
634.5
 42
-1
  0
SEQEND
  0
POLYLINE
  8
0
 10
0
 20
0
 39
0
 70
1
 66
1
  0
VERTEX
  8
0
 10
2360.25
 20
880.5
 42
0
  0
VERTEX
  8
0
 10
2350.25
 20
890.5
 42
0
  0
VERTEX
  8
0
 10
2300.25
 20
890.5
 42
0
  0
VERTEX
  8
0
 10
2290.25
 20
880.5
 42
0
  0
VERTEX
  8
0
 10
2290.25
 20
770.5
 42
0
  0
VERTEX
  8
0
 10
2300.25
 20
760.5
 42
0
  0
VERTEX
  8
0
 10
2350.25
 20
760.5
 42
0
  0
VERTEX
  8
0
 10
2360.25
 20
770.5
 42
0
  0
SEQEND
  0
POLYLINE
  8
0
 10
0
 20
0
 39
0
 70
1
 66
1
  0
VERTEX
  8
0
 10
2325.25
 20
800.5
 42
-1
  0
VERTEX
  8
0
 10
2325.25
 20
850.5
 42
-1
  0
SEQEND
  0
POLYLINE
  8
0
 10
0
 20
0
 39
0
 70
1
 66
1
  0
VERTEX
  8
0
 10
2325.25
 20
767
 42
-1
  0
VERTEX
  8
0
 10
2325.25
 20
779
 42
-1
  0
SEQEND
  0
POLYLINE
  8
0
 10
0
 20
0
 39
0
 70
1
 66
1
  0
VERTEX
  8
0
 10
2325.25
 20
872
 42
-1
  0
VERTEX
  8
0
 10
2325.25
 20
884
 42
-1
  0
SEQEND
  0
POLYLINE
  8
0
 10
0
 20
0
 39
0
 70
1
 66
1
  0
VERTEX
  8
0
 10
2450.25
 20
631
 42
0
  0
VERTEX
  8
0
 10
2440.25
 20
641
 42
0
  0
VERTEX
  8
0
 10
2390.25
 20
641
 42
0
  0
VERTEX
  8
0
 10
2380.25
 20
631
 42
0
  0
VERTEX
  8
0
 10
2380.25
 20
521
 42
0
  0
VERTEX
  8
0
 10
2390.25
 20
511
 42
0
  0
VERTEX
  8
0
 10
2440.25
 20
511
 42
0
  0
VERTEX
  8
0
 10
2450.25
 20
521
 42
0
  0
SEQEND
  0
POLYLINE
  8
0
 10
0
 20
0
 39
0
 70
1
 66
1
  0
VERTEX
  8
0
 10
2415.25
 20
551
 42
-1
  0
VERTEX
  8
0
 10
2415.25
 20
601
 42
-1
  0
SEQEND
  0
POLYLINE
  8
0
 10
0
 20
0
 39
0
 70
1
 66
1
  0
VERTEX
  8
0
 10
2415.25
 20
517.5
 42
-1
  0
VERTEX
  8
0
 10
2415.25
 20
529.5
 42
-1
  0
SEQEND
  0
POLYLINE
  8
0
 10
0
 20
0
 39
0
 70
1
 66
1
  0
VERTEX
  8
0
 10
2415.25
 20
622.5
 42
-1
  0
VERTEX
  8
0
 10
2415.25
 20
634.5
 42
-1
  0
SEQEND
  0
POLYLINE
  8
0
 10
0
 20
0
 39
0
 70
1
 66
1
  0
VERTEX
  8
0
 10
1548
 20
450.5
 42
0
  0
VERTEX
  8
0
 10
1618
 20
450.5
 42
0
  0
VERTEX
  8
0
 10
1618
 20
540.5
 42
0
  0
VERTEX
  8
0
 10
1548
 20
540.5
 42
0
  0
SEQEND
  0
POLYLINE
  8
0
 10
0
 20
0
 39
0
 70
1
 66
1
  0
VERTEX
  8
0
 10
1594.6988525390625
 20
462.24685668945312
 42
-1
  0
VERTEX
  8
0
 10
1594.6988525390625
 20
484.24685668945312
 42
-1
  0
SEQEND
  0
POLYLINE
  8
0
 10
0
 20
0
 39
0
 70
1
 66
1
  0
VERTEX
  8
0
 10
1574.5557861328125
 20
508.18035888671875
 42
-1
  0
VERTEX
  8
0
 10
1574.5557861328125
 20
530.18035888671875
 42
-1
  0
SEQEND
  0
POLYLINE
  8
0
 10
0
 20
0
 39
0
 70
1
 66
1
  0
VERTEX
  8
0
 10
1643.75
 20
866
 42
0
  0
VERTEX
  8
0
 10
1713.75
 20
866
 42
0
  0
VERTEX
  8
0
 10
1713.75
 20
956
 42
0
  0
VERTEX
  8
0
 10
1643.75
 20
956
 42
0
  0
SEQEND
  0
POLYLINE
  8
0
 10
0
 20
0
 39
0
 70
1
 66
1
  0
VERTEX
  8
0
 10
1690.4488525390625
 20
877.746826171875
 42
-1
  0
VERTEX
  8
0
 10
1690.4488525390625
 20
899.746826171875
 42
-1
  0
SEQEND
  0
POLYLINE
  8
0
 10
0
 20
0
 39
0
 70
1
 66
1
  0
VERTEX
  8
0
 10
1670.3057861328125
 20
923.68035888671875
 42
-1
  0
VERTEX
  8
0
 10
1670.3057861328125
 20
945.68035888671875
 42
-1
  0
SEQEND
  0
POLYLINE
  8
0
 10
0
 20
0
 39
0
 70
1
 66
1
  0
VERTEX
  8
0
 10
1644
 20
150.75
 42
0
  0
VERTEX
  8
0
 10
1714
 20
150.75
 42
0
  0
VERTEX
  8
0
 10
1714
 20
240.75
 42
0
  0
VERTEX
  8
0
 10
1644
 20
240.75
 42
0
  0
SEQEND
  0
POLYLINE
  8
0
 10
0
 20
0
 39
0
 70
1
 66
1
  0
VERTEX
  8
0
 10
1690.6988525390625
 20
162.49684143066406
 42
-1
  0
VERTEX
  8
0
 10
1690.6988525390625
 20
184.49684143066406
 42
-1
  0
SEQEND
  0
POLYLINE
  8
0
 10
0
 20
0
 39
0
 70
1
 66
1
  0
VERTEX
  8
0
 10
1670.5557861328125
 20
208.43037414550781
 42
-1
  0
VERTEX
  8
0
 10
1670.5557861328125
 20
230.43037414550781
 42
-1
  0
SEQEND
  0
POLYLINE
  8
0
 10
0
 20
0
 39
0
 70
1
 66
1
  0
VERTEX
  8
0
 10
1736.5
 20
450.5
 42
0
  0
VERTEX
  8
0
 10
1806.5
 20
450.5
 42
0
  0
VERTEX
  8
0
 10
1806.5
 20
540.5
 42
0
  0
VERTEX
  8
0
 10
1736.5
 20
540.5
 42
0
  0
SEQEND
  0
POLYLINE
  8
0
 10
0
 20
0
 39
0
 70
1
 66
1
  0
VERTEX
  8
0
 10
1783.1988525390625
 20
462.24685668945312
 42
-1
  0
VERTEX
  8
0
 10
1783.1988525390625
 20
484.24685668945312
 42
-1
  0
SEQEND
  0
POLYLINE
  8
0
 10
0
 20
0
 39
0
 70
1
 66
1
  0
VERTEX
  8
0
 10
1763.0557861328125
 20
508.18035888671875
 42
-1
  0
VERTEX
  8
0
 10
1763.0557861328125
 20
530.18035888671875
 42
-1
  0
SEQEND
  0
POLYLINE
  8
0
 10
0
 20
0
 39
0
 70
1
 66
1
  0
VERTEX
  8
0
 10
1829
 20
150.75
 42
0
  0
VERTEX
  8
0
 10
1899
 20
150.75
 42
0
  0
VERTEX
  8
0
 10
1899
 20
240.75
 42
0
  0
VERTEX
  8
0
 10
1829
 20
240.75
 42
0
  0
SEQEND
  0
POLYLINE
  8
0
 10
0
 20
0
 39
0
 70
1
 66
1
  0
VERTEX
  8
0
 10
1875.6988525390625
 20
162.49684143066406
 42
-1
  0
VERTEX
  8
0
 10
1875.6988525390625
 20
184.49684143066406
 42
-1
  0
SEQEND
  0
POLYLINE
  8
0
 10
0
 20
0
 39
0
 70
1
 66
1
  0
VERTEX
  8
0
 10
1855.5557861328125
 20
208.43037414550781
 42
-1
  0
VERTEX
  8
0
 10
1855.5557861328125
 20
230.43037414550781
 42
-1
  0
SEQEND
  0
POLYLINE
  8
0
 10
0
 20
0
 39
0
 70
1
 66
1
  0
VERTEX
  8
0
 10
1829.25
 20
864.5
 42
0
  0
VERTEX
  8
0
 10
1899.25
 20
864.5
 42
0
  0
VERTEX
  8
0
 10
1899.25
 20
954.5
 42
0
  0
VERTEX
  8
0
 10
1829.25
 20
954.5
 42
0
  0
SEQEND
  0
POLYLINE
  8
0
 10
0
 20
0
 39
0
 70
1
 66
1
  0
VERTEX
  8
0
 10
1875.9488525390625
 20
876.246826171875
 42
-1
  0
VERTEX
  8
0
 10
1875.9488525390625
 20
898.246826171875
 42
-1
  0
SEQEND
  0
POLYLINE
  8
0
 10
0
 20
0
 39
0
 70
1
 66
1
  0
VERTEX
  8
0
 10
1855.8057861328125
 20
922.18035888671875
 42
-1
  0
VERTEX
  8
0
 10
1855.8057861328125
 20
944.18035888671875
 42
-1
  0
SEQEND
  0
POLYLINE
  8
0
 10
0
 20
0
 39
0
 70
1
 66
1
  0
VERTEX
  8
0
 10
1921.75
 20
450.5
 42
0
  0
VERTEX
  8
0
 10
1991.75
 20
450.5
 42
0
  0
VERTEX
  8
0
 10
1991.75
 20
540.5
 42
0
  0
VERTEX
  8
0
 10
1921.75
 20
540.5
 42
0
  0
SEQEND
  0
POLYLINE
  8
0
 10
0
 20
0
 39
0
 70
1
 66
1
  0
VERTEX
  8
0
 10
1968.4488525390625
 20
462.24685668945312
 42
-1
  0
VERTEX
  8
0
 10
1968.4488525390625
 20
484.24685668945312
 42
-1
  0
SEQEND
  0
POLYLINE
  8
0
 10
0
 20
0
 39
0
 70
1
 66
1
  0
VERTEX
  8
0
 10
1948.3057861328125
 20
508.18035888671875
 42
-1
  0
VERTEX
  8
0
 10
1948.3057861328125
 20
530.18035888671875
 42
-1
  0
SEQEND
  0
POLYLINE
  8
0
 10
0
 20
0
 39
0
 70
1
 66
1
  0
VERTEX
  8
0
 10
2108.75
 20
892.75
 42
0
  0
VERTEX
  8
0
 10
2178.75
 20
892.75
 42
0
  0
VERTEX
  8
0
 10
2178.75
 20
982.75
 42
0
  0
VERTEX
  8
0
 10
2108.75
 20
982.75
 42
0
  0
SEQEND
  0
POLYLINE
  8
0
 10
0
 20
0
 39
0
 70
1
 66
1
  0
VERTEX
  8
0
 10
2155.44873046875
 20
904.496826171875
 42
-1
  0
VERTEX
  8
0
 10
2155.44873046875
 20
926.496826171875
 42
-1
  0
SEQEND
  0
POLYLINE
  8
0
 10
0
 20
0
 39
0
 70
1
 66
1
  0
VERTEX
  8
0
 10
2135.3056640625
 20
950.43035888671875
 42
-1
  0
VERTEX
  8
0
 10
2135.3056640625
 20
972.43035888671875
 42
-1
  0
SEQEND
  0
POLYLINE
  8
0
 10
0
 20
0
 39
0
 70
1
 66
1
  0
VERTEX
  8
0
 10
2109
 20
150.75
 42
0
  0
VERTEX
  8
0
 10
2179
 20
150.75
 42
0
  0
VERTEX
  8
0
 10
2179
 20
240.75
 42
0
  0
VERTEX
  8
0
 10
2109
 20
240.75
 42
0
  0
SEQEND
  0
POLYLINE
  8
0
 10
0
 20
0
 39
0
 70
1
 66
1
  0
VERTEX
  8
0
 10
2155.69873046875
 20
162.49684143066406
 42
-1
  0
VERTEX
  8
0
 10
2155.69873046875
 20
184.49684143066406
 42
-1
  0
SEQEND
  0
POLYLINE
  8
0
 10
0
 20
0
 39
0
 70
1
 66
1
  0
VERTEX
  8
0
 10
2135.5556640625
 20
208.43037414550781
 42
-1
  0
VERTEX
  8
0
 10
2135.5556640625
 20
230.43037414550781
 42
-1
  0
SEQEND
  0
POLYLINE
  8
0
 10
0
 20
0
 39
0
 70
1
 66
1
  0
VERTEX
  8
0
 10
2470.25
 20
651.25
 42
0
  0
VERTEX
  8
0
 10
2470.25
 20
721.25
 42
0
  0
VERTEX
  8
0
 10
2380.25
 20
721.25
 42
0
  0
VERTEX
  8
0
 10
2380.25
 20
651.25
 42
0
  0
SEQEND
  0
POLYLINE
  8
0
 10
0
 20
0
 39
0
 70
1
 66
1
  0
VERTEX
  8
0
 10
2458.503173828125
 20
697.94879150390625
 42
-1
  0
VERTEX
  8
0
 10
2436.503173828125
 20
697.94879150390625
 42
-1
  0
SEQEND
  0
POLYLINE
  8
0
 10
0
 20
0
 39
0
 70
1
 66
1
  0
VERTEX
  8
0
 10
2412.569580078125
 20
677.8057861328125
 42
-1
  0
VERTEX
  8
0
 10
2390.569580078125
 20
677.8057861328125
 42
-1
  0
SEQEND
  0
POLYLINE
  8
0
 10
0
 20
0
 39
0
 70
1
 66
1
  0
VERTEX
  8
0
 10
1354.25
 20
924
 42
0
  0
VERTEX
  8
0
 10
1354.25
 20
974
 42
0
  0
VERTEX
  8
0
 10
1249.25
 20
974
 42
0
  0
VERTEX
  8
0
 10
1249.25
 20
924
 42
0
  0
SEQEND
  0
POLYLINE
  8
0
 10
0
 20
0
 39
0
 70
1
 66
1
  0
VERTEX
  8
0
 10
1347.7044677734375
 20
949
 42
-1
  0
VERTEX
  8
0
 10
1325.7044677734375
 20
949
 42
-1
  0
SEQEND
  0
POLYLINE
  8
0
 10
0
 20
0
 39
0
 70
1
 66
1
  0
VERTEX
  8
0
 10
1277.7955322265625
 20
949
 42
-1
  0
VERTEX
  8
0
 10
1255.7955322265625
 20
949
 42
-1
  0
SEQEND
  0
POLYLINE
  8
0
 10
0
 20
0
 39
0
 70
1
 66
1
  0
VERTEX
  8
0
 10
1434
 20
538
 42
0
  0
VERTEX
  8
0
 10
1434
 20
588
 42
0
  0
VERTEX
  8
0
 10
1329
 20
588
 42
0
  0
VERTEX
  8
0
 10
1329
 20
538
 42
0
  0
SEQEND
  0
POLYLINE
  8
0
 10
0
 20
0
 39
0
 70
1
 66
1
  0
VERTEX
  8
0
 10
1427.4544677734375
 20
563
 42
-1
  0
VERTEX
  8
0
 10
1405.4544677734375
 20
563
 42
-1
  0
SEQEND
  0
POLYLINE
  8
0
 10
0
 20
0
 39
0
 70
1
 66
1
  0
VERTEX
  8
0
 10
1357.5455322265625
 20
563
 42
-1
  0
VERTEX
  8
0
 10
1335.5455322265625
 20
563
 42
-1
  0
SEQEND
  0
POLYLINE
  8
0
 10
0
 20
0
 39
0
 70
1
 66
1
  0
VERTEX
  8
0
 10
379.5
 20
989.5
 42
-0
  0
VERTEX
  8
0
 10
279.5
 20
989.5
 42
-0
  0
VERTEX
  8
0
 10
279.5
 20
953.5
 42
-0
  0
VERTEX
  8
0
 10
379.5
 20
953.5
 42
-0
  0
SEQEND
  0
POLYLINE
  8
0
 10
0
 20
0
 39
0
 70
1
 66
1
  0
VERTEX
  8
0
 10
340.5
 20
971.5
 42
-1
  0
VERTEX
  8
0
 10
318.5
 20
971.5
 42
-1
  0
SEQEND
  0
POLYLINE
  8
0
 10
0
 20
0
 39
0
 70
1
 66
1
  0
VERTEX
  8
0
 10
432.5
 20
86
 42
-0
  0
VERTEX
  8
0
 10
432.5
 20
186
 42
-0
  0
VERTEX
  8
0
 10
396.5
 20
186
 42
-0
  0
VERTEX
  8
0
 10
396.5
 20
86
 42
-0
  0
SEQEND
  0
POLYLINE
  8
0
 10
0
 20
0
 39
0
 70
1
 66
1
  0
VERTEX
  8
0
 10
414.5
 20
125
 42
-1
  0
VERTEX
  8
0
 10
414.5
 20
147
 42
-1
  0
SEQEND
  0
POLYLINE
  8
0
 10
0
 20
0
 39
0
 70
1
 66
1
  0
VERTEX
  8
0
 10
432.5
 20
196.25
 42
-0
  0
VERTEX
  8
0
 10
432.5
 20
296.25
 42
-0
  0
VERTEX
  8
0
 10
396.5
 20
296.25
 42
-0
  0
VERTEX
  8
0
 10
396.5
 20
196.25
 42
-0
  0
SEQEND
  0
POLYLINE
  8
0
 10
0
 20
0
 39
0
 70
1
 66
1
  0
VERTEX
  8
0
 10
414.5
 20
235.25
 42
-1
  0
VERTEX
  8
0
 10
414.5
 20
257.25
 42
-1
  0
SEQEND
  0
POLYLINE
  8
0
 10
0
 20
0
 39
0
 70
1
 66
1
  0
VERTEX
  8
0
 10
945
 20
86
 42
-0
  0
VERTEX
  8
0
 10
945
 20
186
 42
-0
  0
VERTEX
  8
0
 10
909
 20
186
 42
-0
  0
VERTEX
  8
0
 10
909
 20
86
 42
-0
  0
SEQEND
  0
POLYLINE
  8
0
 10
0
 20
0
 39
0
 70
1
 66
1
  0
VERTEX
  8
0
 10
927
 20
125
 42
-1
  0
VERTEX
  8
0
 10
927
 20
147
 42
-1
  0
SEQEND
  0
POLYLINE
  8
0
 10
0
 20
0
 39
0
 70
1
 66
1
  0
VERTEX
  8
0
 10
945
 20
196.25
 42
-0
  0
VERTEX
  8
0
 10
945
 20
296.25
 42
-0
  0
VERTEX
  8
0
 10
909
 20
296.25
 42
-0
  0
VERTEX
  8
0
 10
909
 20
196.25
 42
-0
  0
SEQEND
  0
POLYLINE
  8
0
 10
0
 20
0
 39
0
 70
1
 66
1
  0
VERTEX
  8
0
 10
927
 20
235.25
 42
-1
  0
VERTEX
  8
0
 10
927
 20
257.25
 42
-1
  0
SEQEND
  0
POLYLINE
  8
0
 10
0
 20
0
 39
0
 70
1
 66
1
  0
VERTEX
  8
0
 10
2332
 20
260.75
 42
-0
  0
VERTEX
  8
0
 10
2332
 20
360.75
 42
-0
  0
VERTEX
  8
0
 10
2296
 20
360.75
 42
-0
  0
VERTEX
  8
0
 10
2296
 20
260.75
 42
-0
  0
SEQEND
  0
POLYLINE
  8
0
 10
0
 20
0
 39
0
 70
1
 66
1
  0
VERTEX
  8
0
 10
2314
 20
299.75
 42
-1
  0
VERTEX
  8
0
 10
2314
 20
321.75
 42
-1
  0
SEQEND
  0
POLYLINE
  8
0
 10
0
 20
0
 39
0
 70
1
 66
1
  0
VERTEX
  8
0
 10
2332
 20
371
 42
-0
  0
VERTEX
  8
0
 10
2332
 20
471
 42
-0
  0
VERTEX
  8
0
 10
2296
 20
471
 42
-0
  0
VERTEX
  8
0
 10
2296
 20
371
 42
-0
  0
SEQEND
  0
POLYLINE
  8
0
 10
0
 20
0
 39
0
 70
1
 66
1
  0
VERTEX
  8
0
 10
2314
 20
410
 42
-1
  0
VERTEX
  8
0
 10
2314
 20
432
 42
-1
  0
SEQEND
  0
POLYLINE
  8
0
 10
0
 20
0
 39
0
 70
1
 66
1
  0
VERTEX
  8
0
 10
2475.5
 20
260.75
 42
-0
  0
VERTEX
  8
0
 10
2475.5
 20
360.75
 42
-0
  0
VERTEX
  8
0
 10
2439.5
 20
360.75
 42
-0
  0
VERTEX
  8
0
 10
2439.5
 20
260.75
 42
-0
  0
SEQEND
  0
POLYLINE
  8
0
 10
0
 20
0
 39
0
 70
1
 66
1
  0
VERTEX
  8
0
 10
2457.5
 20
299.75
 42
-1
  0
VERTEX
  8
0
 10
2457.5
 20
321.75
 42
-1
  0
SEQEND
  0
POLYLINE
  8
0
 10
0
 20
0
 39
0
 70
1
 66
1
  0
VERTEX
  8
0
 10
2475.5
 20
371
 42
-0
  0
VERTEX
  8
0
 10
2475.5
 20
471
 42
-0
  0
VERTEX
  8
0
 10
2439.5
 20
471
 42
-0
  0
VERTEX
  8
0
 10
2439.5
 20
371
 42
-0
  0
SEQEND
  0
POLYLINE
  8
0
 10
0
 20
0
 39
0
 70
1
 66
1
  0
VERTEX
  8
0
 10
2457.5
 20
410
 42
-1
  0
VERTEX
  8
0
 10
2457.5
 20
432
 42
-1
  0
SEQEND
  0
ENDSEC
  0
EOF
