  0
SECTION
  2
ENTITIES
  0
POLYLINE
  8
0
 10
0
 20
0
 39
0
 70
1
 66
1
  0
VERTEX
  8
0
 10
0
 20
0
 42
0
  0
VERTEX
  8
0
 10
2400
 20
0
 42
0
  0
VERTEX
  8
0
 10
2400
 20
800
 42
0
  0
VERTEX
  8
0
 10
0
 20
800
 42
0
  0
SEQEND
  0
POLYLINE
  8
0
 10
0
 20
0
 39
0
 70
1
 66
1
  0
VERTEX
  8
0
 10
130.35385131835937
 20
310.35385131835937
 42
-0
  0
VERTEX
  8
0
 10
10.353846549987793
 20
190.35385131835937
 42
0
  0
VERTEX
  8
0
 10
10.353846549987793
 20
130.35385131835937
 42
0
  0
VERTEX
  8
0
 10
130.35385131835937
 20
10.353846549987793
 42
0
  0
VERTEX
  8
0
 10
265.35385131835937
 20
10.353846549987793
 42
0
  0
VERTEX
  8
0
 10
265.35385131835937
 20
310.35385131835937
 42
0
  0
SEQEND
  0
POLYLINE
  8
0
 10
0
 20
0
 39
0
 70
1
 66
1
  0
VERTEX
  8
0
 10
100.35384368896484
 20
122.35384368896484
 42
-1
  0
VERTEX
  8
0
 10
100.35384368896484
 20
198.35385131835937
 42
-1
  0
SEQEND
  0
POLYLINE
  8
0
 10
0
 20
0
 39
0
 70
1
 66
1
  0
VERTEX
  8
0
 10
130.35385131835937
 20
620.5076904296875
 42
-0
  0
VERTEX
  8
0
 10
10.353846549987793
 20
500.5076904296875
 42
0
  0
VERTEX
  8
0
 10
10.353846549987793
 20
440.5076904296875
 42
0
  0
VERTEX
  8
0
 10
130.35385131835937
 20
320.5076904296875
 42
0
  0
VERTEX
  8
0
 10
265.35385131835937
 20
320.5076904296875
 42
0
  0
VERTEX
  8
0
 10
265.35385131835937
 20
620.5076904296875
 42
0
  0
SEQEND
  0
POLYLINE
  8
0
 10
0
 20
0
 39
0
 70
1
 66
1
  0
VERTEX
  8
0
 10
100.35384368896484
 20
432.5076904296875
 42
-1
  0
VERTEX
  8
0
 10
100.35384368896484
 20
508.5076904296875
 42
-1
  0
SEQEND
  0
POLYLINE
  8
0
 10
0
 20
0
 39
0
 70
1
 66
1
  0
VERTEX
  8
0
 10
395.64614868164062
 20
310.35385131835937
 42
-0
  0
VERTEX
  8
0
 10
275.64614868164062
 20
190.35385131835937
 42
0
  0
VERTEX
  8
0
 10
275.64614868164062
 20
130.35385131835937
 42
0
  0
VERTEX
  8
0
 10
395.64614868164062
 20
10.353846549987793
 42
0
  0
VERTEX
  8
0
 10
530.64617919921875
 20
10.353846549987793
 42
0
  0
VERTEX
  8
0
 10
530.64617919921875
 20
310.35385131835937
 42
0
  0
SEQEND
  0
POLYLINE
  8
0
 10
0
 20
0
 39
0
 70
1
 66
1
  0
VERTEX
  8
0
 10
365.64614868164062
 20
122.35384368896484
 42
-1
  0
VERTEX
  8
0
 10
365.64614868164062
 20
198.35385131835937
 42
-1
  0
SEQEND
  0
POLYLINE
  8
0
 10
0
 20
0
 39
0
 70
1
 66
1
  0
VERTEX
  8
0
 10
395.64614868164062
 20
620.5076904296875
 42
-0
  0
VERTEX
  8
0
 10
275.64614868164062
 20
500.5076904296875
 42
0
  0
VERTEX
  8
0
 10
275.64614868164062
 20
440.5076904296875
 42
0
  0
VERTEX
  8
0
 10
395.64614868164062
 20
320.5076904296875
 42
0
  0
VERTEX
  8
0
 10
530.64617919921875
 20
320.5076904296875
 42
0
  0
VERTEX
  8
0
 10
530.64617919921875
 20
620.5076904296875
 42
0
  0
SEQEND
  0
POLYLINE
  8
0
 10
0
 20
0
 39
0
 70
1
 66
1
  0
VERTEX
  8
0
 10
365.64614868164062
 20
432.5076904296875
 42
-1
  0
VERTEX
  8
0
 10
365.64614868164062
 20
508.5076904296875
 42
-1
  0
SEQEND
  0
POLYLINE
  8
0
 10
0
 20
0
 39
0
 70
1
 66
1
  0
VERTEX
  8
0
 10
660.9384765625
 20
310.35385131835937
 42
-0
  0
VERTEX
  8
0
 10
540.9384765625
 20
190.35385131835937
 42
0
  0
VERTEX
  8
0
 10
540.9384765625
 20
130.35385131835937
 42
0
  0
VERTEX
  8
0
 10
660.9384765625
 20
10.353846549987793
 42
0
  0
VERTEX
  8
0
 10
795.9384765625
 20
10.353846549987793
 42
0
  0
VERTEX
  8
0
 10
795.9384765625
 20
310.35385131835937
 42
0
  0
SEQEND
  0
POLYLINE
  8
0
 10
0
 20
0
 39
0
 70
1
 66
1
  0
VERTEX
  8
0
 10
630.9384765625
 20
122.35384368896484
 42
-1
  0
VERTEX
  8
0
 10
630.9384765625
 20
198.35385131835937
 42
-1
  0
SEQEND
  0
POLYLINE
  8
0
 10
0
 20
0
 39
0
 70
1
 66
1
  0
VERTEX
  8
0
 10
660.9384765625
 20
620.5076904296875
 42
-0
  0
VERTEX
  8
0
 10
540.9384765625
 20
500.5076904296875
 42
0
  0
VERTEX
  8
0
 10
540.9384765625
 20
440.5076904296875
 42
0
  0
VERTEX
  8
0
 10
660.9384765625
 20
320.5076904296875
 42
0
  0
VERTEX
  8
0
 10
795.9384765625
 20
320.5076904296875
 42
0
  0
VERTEX
  8
0
 10
795.9384765625
 20
620.5076904296875
 42
0
  0
SEQEND
  0
POLYLINE
  8
0
 10
0
 20
0
 39
0
 70
1
 66
1
  0
VERTEX
  8
0
 10
630.9384765625
 20
432.5076904296875
 42
-1
  0
VERTEX
  8
0
 10
630.9384765625
 20
508.5076904296875
 42
-1
  0
SEQEND
  0
POLYLINE
  8
0
 10
0
 20
0
 39
0
 70
1
 66
1
  0
VERTEX
  8
0
 10
926.23077392578125
 20
310.35385131835937
 42
-0
  0
VERTEX
  8
0
 10
806.23077392578125
 20
190.35385131835937
 42
0
  0
VERTEX
  8
0
 10
806.23077392578125
 20
130.35385131835937
 42
0
  0
VERTEX
  8
0
 10
926.23077392578125
 20
10.353846549987793
 42
0
  0
VERTEX
  8
0
 10
1061.230712890625
 20
10.353846549987793
 42
0
  0
VERTEX
  8
0
 10
1061.230712890625
 20
310.35385131835937
 42
0
  0
SEQEND
  0
POLYLINE
  8
0
 10
0
 20
0
 39
0
 70
1
 66
1
  0
VERTEX
  8
0
 10
896.23077392578125
 20
122.35384368896484
 42
-1
  0
VERTEX
  8
0
 10
896.23077392578125
 20
198.35385131835937
 42
-1
  0
SEQEND
  0
POLYLINE
  8
0
 10
0
 20
0
 39
0
 70
1
 66
1
  0
VERTEX
  8
0
 10
926.23077392578125
 20
620.5076904296875
 42
-0
  0
VERTEX
  8
0
 10
806.23077392578125
 20
500.5076904296875
 42
0
  0
VERTEX
  8
0
 10
806.23077392578125
 20
440.5076904296875
 42
0
  0
VERTEX
  8
0
 10
926.23077392578125
 20
320.5076904296875
 42
0
  0
VERTEX
  8
0
 10
1061.230712890625
 20
320.5076904296875
 42
0
  0
VERTEX
  8
0
 10
1061.230712890625
 20
620.5076904296875
 42
0
  0
SEQEND
  0
POLYLINE
  8
0
 10
0
 20
0
 39
0
 70
1
 66
1
  0
VERTEX
  8
0
 10
896.23077392578125
 20
432.5076904296875
 42
-1
  0
VERTEX
  8
0
 10
896.23077392578125
 20
508.5076904296875
 42
-1
  0
SEQEND
  0
POLYLINE
  8
0
 10
0
 20
0
 39
0
 70
1
 66
1
  0
VERTEX
  8
0
 10
1191.5230712890625
 20
310.35385131835937
 42
-0
  0
VERTEX
  8
0
 10
1071.5230712890625
 20
190.35385131835937
 42
0
  0
VERTEX
  8
0
 10
1071.5230712890625
 20
130.35385131835937
 42
0
  0
VERTEX
  8
0
 10
1191.5230712890625
 20
10.353846549987793
 42
0
  0
VERTEX
  8
0
 10
1326.5230712890625
 20
10.353846549987793
 42
0
  0
VERTEX
  8
0
 10
1326.5230712890625
 20
310.35385131835937
 42
0
  0
SEQEND
  0
POLYLINE
  8
0
 10
0
 20
0
 39
0
 70
1
 66
1
  0
VERTEX
  8
0
 10
1161.5230712890625
 20
122.35384368896484
 42
-1
  0
VERTEX
  8
0
 10
1161.5230712890625
 20
198.35385131835937
 42
-1
  0
SEQEND
  0
POLYLINE
  8
0
 10
0
 20
0
 39
0
 70
1
 66
1
  0
VERTEX
  8
0
 10
1191.5230712890625
 20
620.5076904296875
 42
-0
  0
VERTEX
  8
0
 10
1071.5230712890625
 20
500.5076904296875
 42
0
  0
VERTEX
  8
0
 10
1071.5230712890625
 20
440.5076904296875
 42
0
  0
VERTEX
  8
0
 10
1191.5230712890625
 20
320.5076904296875
 42
0
  0
VERTEX
  8
0
 10
1326.5230712890625
 20
320.5076904296875
 42
0
  0
VERTEX
  8
0
 10
1326.5230712890625
 20
620.5076904296875
 42
0
  0
SEQEND
  0
POLYLINE
  8
0
 10
0
 20
0
 39
0
 70
1
 66
1
  0
VERTEX
  8
0
 10
1161.5230712890625
 20
432.5076904296875
 42
-1
  0
VERTEX
  8
0
 10
1161.5230712890625
 20
508.5076904296875
 42
-1
  0
SEQEND
  0
POLYLINE
  8
0
 10
0
 20
0
 39
0
 70
1
 66
1
  0
VERTEX
  8
0
 10
280.35385131835937
 20
630.66156005859375
 42
0.49999997019767761
  0
VERTEX
  8
0
 10
280.35385131835937
 20
750.66156005859375
 42
0
  0
VERTEX
  8
0
 10
10.353846549987793
 20
750.66156005859375
 42
0
  0
VERTEX
  8
0
 10
10.353846549987793
 20
730.66156005859375
 42
0
  0
VERTEX
  8
0
 10
80.353843688964844
 20
630.66156005859375
 42
0
  0
SEQEND
  0
POLYLINE
  8
0
 10
0
 20
0
 39
0
 70
1
 66
1
  0
VERTEX
  8
0
 10
282.35385131835937
 20
682.66156005859375
 42
-0
  0
VERTEX
  8
0
 10
98.353843688964844
 20
682.66156005859375
 42
-1
  0
VERTEX
  8
0
 10
98.353843688964844
 20
698.66156005859375
 42
0
  0
VERTEX
  8
0
 10
282.35385131835937
 20
698.66156005859375
 42
-1
  0
SEQEND
  0
POLYLINE
  8
0
 10
0
 20
0
 39
0
 70
1
 66
1
  0
VERTEX
  8
0
 10
554.5076904296875
 20
669.6153564453125
 42
0.49999997019767761
  0
VERTEX
  8
0
 10
554.5076904296875
 20
789.6153564453125
 42
0
  0
VERTEX
  8
0
 10
284.5076904296875
 20
789.6153564453125
 42
0
  0
VERTEX
  8
0
 10
284.5076904296875
 20
769.6153564453125
 42
0
  0
VERTEX
  8
0
 10
354.5076904296875
 20
669.6153564453125
 42
0
  0
SEQEND
  0
POLYLINE
  8
0
 10
0
 20
0
 39
0
 70
1
 66
1
  0
VERTEX
  8
0
 10
556.5076904296875
 20
721.6153564453125
 42
-0
  0
VERTEX
  8
0
 10
372.5076904296875
 20
721.6153564453125
 42
-1
  0
VERTEX
  8
0
 10
372.5076904296875
 20
737.6153564453125
 42
0
  0
VERTEX
  8
0
 10
556.5076904296875
 20
737.6153564453125
 42
-1
  0
SEQEND
  0
POLYLINE
  8
0
 10
0
 20
0
 39
0
 70
1
 66
1
  0
VERTEX
  8
0
 10
855.24615478515625
 20
669.4307861328125
 42
0.49999997019767761
  0
VERTEX
  8
0
 10
855.24615478515625
 20
789.4307861328125
 42
0
  0
VERTEX
  8
0
 10
585.24615478515625
 20
789.4307861328125
 42
0
  0
VERTEX
  8
0
 10
585.24615478515625
 20
769.4307861328125
 42
0
  0
VERTEX
  8
0
 10
655.24615478515625
 20
669.4307861328125
 42
0
  0
SEQEND
  0
POLYLINE
  8
0
 10
0
 20
0
 39
0
 70
1
 66
1
  0
VERTEX
  8
0
 10
857.24615478515625
 20
721.4307861328125
 42
-0
  0
VERTEX
  8
0
 10
673.24615478515625
 20
721.4307861328125
 42
-1
  0
VERTEX
  8
0
 10
673.24615478515625
 20
737.4307861328125
 42
0
  0
VERTEX
  8
0
 10
857.24615478515625
 20
737.4307861328125
 42
-1
  0
SEQEND
  0
POLYLINE
  8
0
 10
0
 20
0
 39
0
 70
1
 66
1
  0
VERTEX
  8
0
 10
1155.800048828125
 20
669.6153564453125
 42
0.49999997019767761
  0
VERTEX
  8
0
 10
1155.800048828125
 20
789.6153564453125
 42
0
  0
VERTEX
  8
0
 10
885.79998779296875
 20
789.6153564453125
 42
0
  0
VERTEX
  8
0
 10
885.79998779296875
 20
769.6153564453125
 42
0
  0
VERTEX
  8
0
 10
955.79998779296875
 20
669.6153564453125
 42
0
  0
SEQEND
  0
POLYLINE
  8
0
 10
0
 20
0
 39
0
 70
1
 66
1
  0
VERTEX
  8
0
 10
1157.800048828125
 20
721.6153564453125
 42
-0
  0
VERTEX
  8
0
 10
973.79998779296875
 20
721.6153564453125
 42
-1
  0
VERTEX
  8
0
 10
973.79998779296875
 20
737.6153564453125
 42
0
  0
VERTEX
  8
0
 10
1157.800048828125
 20
737.6153564453125
 42
-1
  0
SEQEND
  0
POLYLINE
  8
0
 10
0
 20
0
 39
0
 70
1
 66
1
  0
VERTEX
  8
0
 10
1336.8154296875
 20
40.353843688964844
 42
0.49999997019767761
  0
VERTEX
  8
0
 10
1456.8154296875
 20
40.353843688964844
 42
0
  0
VERTEX
  8
0
 10
1456.8154296875
 20
310.35385131835937
 42
0
  0
VERTEX
  8
0
 10
1436.8154296875
 20
310.35385131835937
 42
0
  0
VERTEX
  8
0
 10
1336.8154296875
 20
240.35383605957031
 42
0
  0
SEQEND
  0
POLYLINE
  8
0
 10
0
 20
0
 39
0
 70
1
 66
1
  0
VERTEX
  8
0
 10
1388.8154296875
 20
38.353843688964844
 42
-0
  0
VERTEX
  8
0
 10
1388.8154296875
 20
222.35383605957031
 42
-1
  0
VERTEX
  8
0
 10
1404.8154296875
 20
222.35383605957031
 42
0
  0
VERTEX
  8
0
 10
1404.8154296875
 20
38.353843688964844
 42
-1
  0
SEQEND
  0
POLYLINE
  8
0
 10
0
 20
0
 39
0
 70
1
 66
1
  0
VERTEX
  8
0
 10
1456.8154296875
 20
537.15386962890625
 42
0.49999997019767761
  0
VERTEX
  8
0
 10
1336.8154296875
 20
537.15386962890625
 42
0
  0
VERTEX
  8
0
 10
1336.8154296875
 20
267.15383911132812
 42
0
  0
VERTEX
  8
0
 10
1356.8154296875
 20
267.15383911132812
 42
0
  0
VERTEX
  8
0
 10
1456.8154296875
 20
337.15383911132812
 42
0
  0
SEQEND
  0
POLYLINE
  8
0
 10
0
 20
0
 39
0
 70
1
 66
1
  0
VERTEX
  8
0
 10
1404.8154296875
 20
539.15386962890625
 42
-0
  0
VERTEX
  8
0
 10
1404.8154296875
 20
355.15383911132812
 42
-1
  0
VERTEX
  8
0
 10
1388.8154296875
 20
355.15383911132812
 42
0
  0
VERTEX
  8
0
 10
1388.8154296875
 20
539.15386962890625
 42
-1
  0
SEQEND
  0
POLYLINE
  8
0
 10
0
 20
0
 39
0
 70
1
 66
1
  0
VERTEX
  8
0
 10
1456.7230224609375
 20
669.4307861328125
 42
0.49999997019767761
  0
VERTEX
  8
0
 10
1456.7230224609375
 20
789.4307861328125
 42
0
  0
VERTEX
  8
0
 10
1186.7230224609375
 20
789.4307861328125
 42
0
  0
VERTEX
  8
0
 10
1186.7230224609375
 20
769.4307861328125
 42
0
  0
VERTEX
  8
0
 10
1256.7230224609375
 20
669.4307861328125
 42
0
  0
SEQEND
  0
POLYLINE
  8
0
 10
0
 20
0
 39
0
 70
1
 66
1
  0
VERTEX
  8
0
 10
1458.7230224609375
 20
721.4307861328125
 42
-0
  0
VERTEX
  8
0
 10
1274.7230224609375
 20
721.4307861328125
 42
-1
  0
VERTEX
  8
0
 10
1274.7230224609375
 20
737.4307861328125
 42
0
  0
VERTEX
  8
0
 10
1458.7230224609375
 20
737.4307861328125
 42
-1
  0
SEQEND
  0
POLYLINE
  8
0
 10
0
 20
0
 39
0
 70
1
 66
1
  0
VERTEX
  8
0
 10
1467.15380859375
 20
40.353843688964844
 42
0.49999997019767761
  0
VERTEX
  8
0
 10
1587.15380859375
 20
40.353843688964844
 42
0
  0
VERTEX
  8
0
 10
1587.15380859375
 20
310.35385131835937
 42
0
  0
VERTEX
  8
0
 10
1567.15380859375
 20
310.35385131835937
 42
0
  0
VERTEX
  8
0
 10
1467.15380859375
 20
240.35383605957031
 42
0
  0
SEQEND
  0
POLYLINE
  8
0
 10
0
 20
0
 39
0
 70
1
 66
1
  0
VERTEX
  8
0
 10
1519.15380859375
 20
38.353843688964844
 42
-0
  0
VERTEX
  8
0
 10
1519.15380859375
 20
222.35383605957031
 42
-1
  0
VERTEX
  8
0
 10
1535.15380859375
 20
222.35383605957031
 42
0
  0
VERTEX
  8
0
 10
1535.15380859375
 20
38.353843688964844
 42
-1
  0
SEQEND
  0
POLYLINE
  8
0
 10
0
 20
0
 39
0
 70
1
 66
1
  0
VERTEX
  8
0
 10
1587.15380859375
 20
537.15386962890625
 42
0.49999997019767761
  0
VERTEX
  8
0
 10
1467.15380859375
 20
537.15386962890625
 42
0
  0
VERTEX
  8
0
 10
1467.15380859375
 20
267.15383911132812
 42
0
  0
VERTEX
  8
0
 10
1487.15380859375
 20
267.15383911132812
 42
0
  0
VERTEX
  8
0
 10
1587.15380859375
 20
337.15383911132812
 42
0
  0
SEQEND
  0
POLYLINE
  8
0
 10
0
 20
0
 39
0
 70
1
 66
1
  0
VERTEX
  8
0
 10
1535.15380859375
 20
539.15386962890625
 42
-0
  0
VERTEX
  8
0
 10
1535.15380859375
 20
355.15383911132812
 42
-1
  0
VERTEX
  8
0
 10
1519.15380859375
 20
355.15383911132812
 42
0
  0
VERTEX
  8
0
 10
1519.15380859375
 20
539.15386962890625
 42
-1
  0
SEQEND
  0
POLYLINE
  8
0
 10
0
 20
0
 39
0
 70
1
 66
1
  0
VERTEX
  8
0
 10
1597.4923095703125
 20
40.353843688964844
 42
0.49999997019767761
  0
VERTEX
  8
0
 10
1717.4923095703125
 20
40.353843688964844
 42
0
  0
VERTEX
  8
0
 10
1717.4923095703125
 20
310.35385131835937
 42
0
  0
VERTEX
  8
0
 10
1697.4923095703125
 20
310.35385131835937
 42
0
  0
VERTEX
  8
0
 10
1597.4923095703125
 20
240.35383605957031
 42
0
  0
SEQEND
  0
POLYLINE
  8
0
 10
0
 20
0
 39
0
 70
1
 66
1
  0
VERTEX
  8
0
 10
1649.4923095703125
 20
38.353843688964844
 42
-0
  0
VERTEX
  8
0
 10
1649.4923095703125
 20
222.35383605957031
 42
-1
  0
VERTEX
  8
0
 10
1665.4923095703125
 20
222.35383605957031
 42
0
  0
VERTEX
  8
0
 10
1665.4923095703125
 20
38.353843688964844
 42
-1
  0
SEQEND
  0
POLYLINE
  8
0
 10
0
 20
0
 39
0
 70
1
 66
1
  0
VERTEX
  8
0
 10
1717.4923095703125
 20
537.15386962890625
 42
0.49999997019767761
  0
VERTEX
  8
0
 10
1597.4923095703125
 20
537.15386962890625
 42
0
  0
VERTEX
  8
0
 10
1597.4923095703125
 20
267.15383911132812
 42
0
  0
VERTEX
  8
0
 10
1617.4923095703125
 20
267.15383911132812
 42
0
  0
VERTEX
  8
0
 10
1717.4923095703125
 20
337.15383911132812
 42
0
  0
SEQEND
  0
POLYLINE
  8
0
 10
0
 20
0
 39
0
 70
1
 66
1
  0
VERTEX
  8
0
 10
1665.4923095703125
 20
539.15386962890625
 42
-0
  0
VERTEX
  8
0
 10
1665.4923095703125
 20
355.15383911132812
 42
-1
  0
VERTEX
  8
0
 10
1649.4923095703125
 20
355.15383911132812
 42
0
  0
VERTEX
  8
0
 10
1649.4923095703125
 20
539.15386962890625
 42
-1
  0
SEQEND
  0
POLYLINE
  8
0
 10
0
 20
0
 39
0
 70
1
 66
1
  0
VERTEX
  8
0
 10
1498.2615966796875
 20
697.30767822265625
 42
0.49999997019767761
  0
VERTEX
  8
0
 10
1498.2615966796875
 20
577.30767822265625
 42
0
  0
VERTEX
  8
0
 10
1768.2615966796875
 20
577.30767822265625
 42
0
  0
VERTEX
  8
0
 10
1768.2615966796875
 20
597.30767822265625
 42
0
  0
VERTEX
  8
0
 10
1698.2615966796875
 20
697.30767822265625
 42
0
  0
SEQEND
  0
POLYLINE
  8
0
 10
0
 20
0
 39
0
 70
1
 66
1
  0
VERTEX
  8
0
 10
1496.2615966796875
 20
645.30767822265625
 42
-0
  0
VERTEX
  8
0
 10
1680.2615966796875
 20
645.30767822265625
 42
-1
  0
VERTEX
  8
0
 10
1680.2615966796875
 20
629.30767822265625
 42
0
  0
VERTEX
  8
0
 10
1496.2615966796875
 20
629.30767822265625
 42
-1
  0
SEQEND
  0
POLYLINE
  8
0
 10
0
 20
0
 39
0
 70
1
 66
1
  0
VERTEX
  8
0
 10
1727.830810546875
 20
40.353843688964844
 42
0.49999997019767761
  0
VERTEX
  8
0
 10
1847.830810546875
 20
40.353843688964844
 42
0
  0
VERTEX
  8
0
 10
1847.830810546875
 20
310.35385131835937
 42
0
  0
VERTEX
  8
0
 10
1827.830810546875
 20
310.35385131835937
 42
0
  0
VERTEX
  8
0
 10
1727.830810546875
 20
240.35383605957031
 42
0
  0
SEQEND
  0
POLYLINE
  8
0
 10
0
 20
0
 39
0
 70
1
 66
1
  0
VERTEX
  8
0
 10
1779.830810546875
 20
38.353843688964844
 42
-0
  0
VERTEX
  8
0
 10
1779.830810546875
 20
222.35383605957031
 42
-1
  0
VERTEX
  8
0
 10
1795.830810546875
 20
222.35383605957031
 42
0
  0
VERTEX
  8
0
 10
1795.830810546875
 20
38.353843688964844
 42
-1
  0
SEQEND
  0
POLYLINE
  8
0
 10
0
 20
0
 39
0
 70
1
 66
1
  0
VERTEX
  8
0
 10
1847.830810546875
 20
537.15386962890625
 42
0.49999997019767761
  0
VERTEX
  8
0
 10
1727.830810546875
 20
537.15386962890625
 42
0
  0
VERTEX
  8
0
 10
1727.830810546875
 20
267.15383911132812
 42
0
  0
VERTEX
  8
0
 10
1747.830810546875
 20
267.15383911132812
 42
0
  0
VERTEX
  8
0
 10
1847.830810546875
 20
337.15383911132812
 42
0
  0
SEQEND
  0
POLYLINE
  8
0
 10
0
 20
0
 39
0
 70
1
 66
1
  0
VERTEX
  8
0
 10
1795.830810546875
 20
539.15386962890625
 42
-0
  0
VERTEX
  8
0
 10
1795.830810546875
 20
355.15383911132812
 42
-1
  0
VERTEX
  8
0
 10
1779.830810546875
 20
355.15383911132812
 42
0
  0
VERTEX
  8
0
 10
1779.830810546875
 20
539.15386962890625
 42
-1
  0
SEQEND
  0
POLYLINE
  8
0
 10
0
 20
0
 39
0
 70
1
 66
1
  0
VERTEX
  8
0
 10
1519.9461669921875
 20
734.5999755859375
 42
-0
  0
VERTEX
  8
0
 10
1749.9461669921875
 20
734.5999755859375
 42
0.50842314958572388
  0
VERTEX
  8
0
 10
1776.1297607421875
 20
770.5062255859375
 42
0.32588791847229004
  0
VERTEX
  8
0
 10
1749.9461669921875
 20
789.5999755859375
 42
-0
  0
VERTEX
  8
0
 10
1519.9461669921875
 20
789.5999755859375
 42
1
  0
SEQEND
  0
POLYLINE
  8
0
 10
0
 20
0
 39
0
 70
1
 66
1
  0
VERTEX
  8
0
 10
1764.9461669921875
 20
762.0999755859375
 42
-1
  0
VERTEX
  8
0
 10
1734.9461669921875
 20
762.0999755859375
 42
-1
  0
SEQEND
  0
POLYLINE
  8
0
 10
0
 20
0
 39
0
 70
1
 66
1
  0
VERTEX
  8
0
 10
1534.9461669921875
 20
762.0999755859375
 42
-1
  0
VERTEX
  8
0
 10
1504.9461669921875
 20
762.0999755859375
 42
-1
  0
SEQEND
  0
POLYLINE
  8
0
 10
0
 20
0
 39
0
 70
1
 66
1
  0
VERTEX
  8
0
 10
1858.169189453125
 20
267.85379028320312
 42
-0
  0
VERTEX
  8
0
 10
1858.169189453125
 20
37.853782653808594
 42
0.50842314958572388
  0
VERTEX
  8
0
 10
1894.075439453125
 20
11.670190811157227
 42
0.32588791847229004
  0
VERTEX
  8
0
 10
1913.169189453125
 20
37.853782653808594
 42
-0
  0
VERTEX
  8
0
 10
1913.169189453125
 20
267.85379028320312
 42
1
  0
SEQEND
  0
POLYLINE
  8
0
 10
0
 20
0
 39
0
 70
1
 66
1
  0
VERTEX
  8
0
 10
1885.669189453125
 20
22.853784561157227
 42
-1
  0
VERTEX
  8
0
 10
1885.669189453125
 20
52.853782653808594
 42
-1
  0
SEQEND
  0
POLYLINE
  8
0
 10
0
 20
0
 39
0
 70
1
 66
1
  0
VERTEX
  8
0
 10
1885.669189453125
 20
252.85379028320312
 42
-1
  0
VERTEX
  8
0
 10
1885.669189453125
 20
282.85379028320312
 42
-1
  0
SEQEND
  0
POLYLINE
  8
0
 10
0
 20
0
 39
0
 70
1
 66
1
  0
VERTEX
  8
0
 10
1858.169189453125
 20
562.869140625
 42
-0
  0
VERTEX
  8
0
 10
1858.169189453125
 20
332.86917114257812
 42
0.50842314958572388
  0
VERTEX
  8
0
 10
1894.075439453125
 20
306.68557739257812
 42
0.32588791847229004
  0
VERTEX
  8
0
 10
1913.169189453125
 20
332.86917114257812
 42
-0
  0
VERTEX
  8
0
 10
1913.169189453125
 20
562.869140625
 42
1
  0
SEQEND
  0
POLYLINE
  8
0
 10
0
 20
0
 39
0
 70
1
 66
1
  0
VERTEX
  8
0
 10
1885.669189453125
 20
317.86917114257812
 42
-1
  0
VERTEX
  8
0
 10
1885.669189453125
 20
347.86917114257812
 42
-1
  0
SEQEND
  0
POLYLINE
  8
0
 10
0
 20
0
 39
0
 70
1
 66
1
  0
VERTEX
  8
0
 10
1885.669189453125
 20
547.869140625
 42
-1
  0
VERTEX
  8
0
 10
1885.669189453125
 20
577.869140625
 42
-1
  0
SEQEND
  0
POLYLINE
  8
0
 10
0
 20
0
 39
0
 70
1
 66
1
  0
VERTEX
  8
0
 10
1923.5230712890625
 20
267.85379028320312
 42
-0
  0
VERTEX
  8
0
 10
1923.5230712890625
 20
37.853782653808594
 42
0.50842314958572388
  0
VERTEX
  8
0
 10
1959.4293212890625
 20
11.670190811157227
 42
0.32588791847229004
  0
VERTEX
  8
0
 10
1978.5230712890625
 20
37.853782653808594
 42
-0
  0
VERTEX
  8
0
 10
1978.5230712890625
 20
267.85379028320312
 42
1
  0
SEQEND
  0
POLYLINE
  8
0
 10
0
 20
0
 39
0
 70
1
 66
1
  0
VERTEX
  8
0
 10
1951.0230712890625
 20
22.853784561157227
 42
-1
  0
VERTEX
  8
0
 10
1951.0230712890625
 20
52.853782653808594
 42
-1
  0
SEQEND
  0
POLYLINE
  8
0
 10
0
 20
0
 39
0
 70
1
 66
1
  0
VERTEX
  8
0
 10
1951.0230712890625
 20
252.85379028320312
 42
-1
  0
VERTEX
  8
0
 10
1951.0230712890625
 20
282.85379028320312
 42
-1
  0
SEQEND
  0
POLYLINE
  8
0
 10
0
 20
0
 39
0
 70
1
 66
1
  0
VERTEX
  8
0
 10
1923.5230712890625
 20
562.869140625
 42
-0
  0
VERTEX
  8
0
 10
1923.5230712890625
 20
332.86917114257812
 42
0.50842314958572388
  0
VERTEX
  8
0
 10
1959.4293212890625
 20
306.68557739257812
 42
0.32588791847229004
  0
VERTEX
  8
0
 10
1978.5230712890625
 20
332.86917114257812
 42
-0
  0
VERTEX
  8
0
 10
1978.5230712890625
 20
562.869140625
 42
1
  0
SEQEND
  0
POLYLINE
  8
0
 10
0
 20
0
 39
0
 70
1
 66
1
  0
VERTEX
  8
0
 10
1951.0230712890625
 20
317.86917114257812
 42
-1
  0
VERTEX
  8
0
 10
1951.0230712890625
 20
347.86917114257812
 42
-1
  0
SEQEND
  0
POLYLINE
  8
0
 10
0
 20
0
 39
0
 70
1
 66
1
  0
VERTEX
  8
0
 10
1951.0230712890625
 20
547.869140625
 42
-1
  0
VERTEX
  8
0
 10
1951.0230712890625
 20
577.869140625
 42
-1
  0
SEQEND
  0
POLYLINE
  8
0
 10
0
 20
0
 39
0
 70
1
 66
1
  0
VERTEX
  8
0
 10
1744.9923095703125
 20
669.24615478515625
 42
-0
  0
VERTEX
  8
0
 10
1974.9923095703125
 20
669.24615478515625
 42
0.50842314958572388
  0
VERTEX
  8
0
 10
2001.1759033203125
 20
705.15240478515625
 42
0.32588791847229004
  0
VERTEX
  8
0
 10
1974.9923095703125
 20
724.24615478515625
 42
-0
  0
VERTEX
  8
0
 10
1744.9923095703125
 20
724.24615478515625
 42
1
  0
SEQEND
  0
POLYLINE
  8
0
 10
0
 20
0
 39
0
 70
1
 66
1
  0
VERTEX
  8
0
 10
1989.9923095703125
 20
696.74615478515625
 42
-1
  0
VERTEX
  8
0
 10
1959.9923095703125
 20
696.74615478515625
 42
-1
  0
SEQEND
  0
POLYLINE
  8
0
 10
0
 20
0
 39
0
 70
1
 66
1
  0
VERTEX
  8
0
 10
1759.9923095703125
 20
696.74615478515625
 42
-1
  0
VERTEX
  8
0
 10
1729.9923095703125
 20
696.74615478515625
 42
-1
  0
SEQEND
  0
POLYLINE
  8
0
 10
0
 20
0
 39
0
 70
1
 66
1
  0
VERTEX
  8
0
 10
1988.876953125
 20
267.85379028320312
 42
-0
  0
VERTEX
  8
0
 10
1988.876953125
 20
37.853782653808594
 42
0.50842314958572388
  0
VERTEX
  8
0
 10
2024.783203125
 20
11.670190811157227
 42
0.32588791847229004
  0
VERTEX
  8
0
 10
2043.876953125
 20
37.853782653808594
 42
-0
  0
VERTEX
  8
0
 10
2043.876953125
 20
267.85379028320312
 42
1
  0
SEQEND
  0
POLYLINE
  8
0
 10
0
 20
0
 39
0
 70
1
 66
1
  0
VERTEX
  8
0
 10
2016.376953125
 20
22.853784561157227
 42
-1
  0
VERTEX
  8
0
 10
2016.376953125
 20
52.853782653808594
 42
-1
  0
SEQEND
  0
POLYLINE
  8
0
 10
0
 20
0
 39
0
 70
1
 66
1
  0
VERTEX
  8
0
 10
2016.376953125
 20
252.85379028320312
 42
-1
  0
VERTEX
  8
0
 10
2016.376953125
 20
282.85379028320312
 42
-1
  0
SEQEND
  0
POLYLINE
  8
0
 10
0
 20
0
 39
0
 70
1
 66
1
  0
VERTEX
  8
0
 10
1988.876953125
 20
562.869140625
 42
-0
  0
VERTEX
  8
0
 10
1988.876953125
 20
332.86917114257812
 42
0.50842314958572388
  0
VERTEX
  8
0
 10
2024.783203125
 20
306.68557739257812
 42
0.32588791847229004
  0
VERTEX
  8
0
 10
2043.876953125
 20
332.86917114257812
 42
-0
  0
VERTEX
  8
0
 10
2043.876953125
 20
562.869140625
 42
1
  0
SEQEND
  0
POLYLINE
  8
0
 10
0
 20
0
 39
0
 70
1
 66
1
  0
VERTEX
  8
0
 10
2016.376953125
 20
317.86917114257812
 42
-1
  0
VERTEX
  8
0
 10
2016.376953125
 20
347.86917114257812
 42
-1
  0
SEQEND
  0
POLYLINE
  8
0
 10
0
 20
0
 39
0
 70
1
 66
1
  0
VERTEX
  8
0
 10
2016.376953125
 20
547.869140625
 42
-1
  0
VERTEX
  8
0
 10
2016.376953125
 20
577.869140625
 42
-1
  0
SEQEND
  0
POLYLINE
  8
0
 10
0
 20
0
 39
0
 70
1
 66
1
  0
VERTEX
  8
0
 10
1790.59228515625
 20
604.076904296875
 42
-0
  0
VERTEX
  8
0
 10
2020.59228515625
 20
604.076904296875
 42
0.50842314958572388
  0
VERTEX
  8
0
 10
2046.77587890625
 20
639.983154296875
 42
0.32588791847229004
  0
VERTEX
  8
0
 10
2020.59228515625
 20
659.076904296875
 42
-0
  0
VERTEX
  8
0
 10
1790.59228515625
 20
659.076904296875
 42
1
  0
SEQEND
  0
POLYLINE
  8
0
 10
0
 20
0
 39
0
 70
1
 66
1
  0
VERTEX
  8
0
 10
2035.59228515625
 20
631.576904296875
 42
-1
  0
VERTEX
  8
0
 10
2005.59228515625
 20
631.576904296875
 42
-1
  0
SEQEND
  0
POLYLINE
  8
0
 10
0
 20
0
 39
0
 70
1
 66
1
  0
VERTEX
  8
0
 10
1805.59228515625
 20
631.576904296875
 42
-1
  0
VERTEX
  8
0
 10
1775.59228515625
 20
631.576904296875
 42
-1
  0
SEQEND
  0
POLYLINE
  8
0
 10
0
 20
0
 39
0
 70
1
 66
1
  0
VERTEX
  8
0
 10
1815.1461181640625
 20
734.4154052734375
 42
-0
  0
VERTEX
  8
0
 10
2045.1461181640625
 20
734.4154052734375
 42
0.50842314958572388
  0
VERTEX
  8
0
 10
2071.329833984375
 20
770.3216552734375
 42
0.32588791847229004
  0
VERTEX
  8
0
 10
2045.1461181640625
 20
789.4154052734375
 42
-0
  0
VERTEX
  8
0
 10
1815.1461181640625
 20
789.4154052734375
 42
1
  0
SEQEND
  0
POLYLINE
  8
0
 10
0
 20
0
 39
0
 70
1
 66
1
  0
VERTEX
  8
0
 10
2060.146240234375
 20
761.9154052734375
 42
-1
  0
VERTEX
  8
0
 10
2030.1461181640625
 20
761.9154052734375
 42
-1
  0
SEQEND
  0
POLYLINE
  8
0
 10
0
 20
0
 39
0
 70
1
 66
1
  0
VERTEX
  8
0
 10
1830.1461181640625
 20
761.9154052734375
 42
-1
  0
VERTEX
  8
0
 10
1800.1461181640625
 20
761.9154052734375
 42
-1
  0
SEQEND
  0
POLYLINE
  8
0
 10
0
 20
0
 39
0
 70
1
 66
1
  0
VERTEX
  8
0
 10
2054.230712890625
 20
267.85379028320312
 42
-0
  0
VERTEX
  8
0
 10
2054.230712890625
 20
37.853782653808594
 42
0.50842314958572388
  0
VERTEX
  8
0
 10
2090.136962890625
 20
11.670190811157227
 42
0.32588791847229004
  0
VERTEX
  8
0
 10
2109.230712890625
 20
37.853782653808594
 42
-0
  0
VERTEX
  8
0
 10
2109.230712890625
 20
267.85379028320312
 42
1
  0
SEQEND
  0
POLYLINE
  8
0
 10
0
 20
0
 39
0
 70
1
 66
1
  0
VERTEX
  8
0
 10
2081.730712890625
 20
22.853784561157227
 42
-1
  0
VERTEX
  8
0
 10
2081.730712890625
 20
52.853782653808594
 42
-1
  0
SEQEND
  0
POLYLINE
  8
0
 10
0
 20
0
 39
0
 70
1
 66
1
  0
VERTEX
  8
0
 10
2081.730712890625
 20
252.85379028320312
 42
-1
  0
VERTEX
  8
0
 10
2081.730712890625
 20
282.85379028320312
 42
-1
  0
SEQEND
  0
POLYLINE
  8
0
 10
0
 20
0
 39
0
 70
1
 66
1
  0
VERTEX
  8
0
 10
2054.230712890625
 20
562.869140625
 42
-0
  0
VERTEX
  8
0
 10
2054.230712890625
 20
332.86917114257812
 42
0.50842314958572388
  0
VERTEX
  8
0
 10
2090.136962890625
 20
306.68557739257812
 42
0.32588791847229004
  0
VERTEX
  8
0
 10
2109.230712890625
 20
332.86917114257812
 42
-0
  0
VERTEX
  8
0
 10
2109.230712890625
 20
562.869140625
 42
1
  0
SEQEND
  0
POLYLINE
  8
0
 10
0
 20
0
 39
0
 70
1
 66
1
  0
VERTEX
  8
0
 10
2081.730712890625
 20
317.86917114257812
 42
-1
  0
VERTEX
  8
0
 10
2081.730712890625
 20
347.86917114257812
 42
-1
  0
SEQEND
  0
POLYLINE
  8
0
 10
0
 20
0
 39
0
 70
1
 66
1
  0
VERTEX
  8
0
 10
2081.730712890625
 20
547.869140625
 42
-1
  0
VERTEX
  8
0
 10
2081.730712890625
 20
577.869140625
 42
-1
  0
SEQEND
  0
POLYLINE
  8
0
 10
0
 20
0
 39
0
 70
1
 66
1
  0
VERTEX
  8
0
 10
2119.584716796875
 20
267.85379028320312
 42
-0
  0
VERTEX
  8
0
 10
2119.584716796875
 20
37.853782653808594
 42
0.50842314958572388
  0
VERTEX
  8
0
 10
2155.490966796875
 20
11.670190811157227
 42
0.32588791847229004
  0
VERTEX
  8
0
 10
2174.584716796875
 20
37.853782653808594
 42
-0
  0
VERTEX
  8
0
 10
2174.584716796875
 20
267.85379028320312
 42
1
  0
SEQEND
  0
POLYLINE
  8
0
 10
0
 20
0
 39
0
 70
1
 66
1
  0
VERTEX
  8
0
 10
2147.084716796875
 20
22.853784561157227
 42
-1
  0
VERTEX
  8
0
 10
2147.084716796875
 20
52.853782653808594
 42
-1
  0
SEQEND
  0
POLYLINE
  8
0
 10
0
 20
0
 39
0
 70
1
 66
1
  0
VERTEX
  8
0
 10
2147.084716796875
 20
252.85379028320312
 42
-1
  0
VERTEX
  8
0
 10
2147.084716796875
 20
282.85379028320312
 42
-1
  0
SEQEND
  0
POLYLINE
  8
0
 10
0
 20
0
 39
0
 70
1
 66
1
  0
VERTEX
  8
0
 10
2119.584716796875
 20
562.869140625
 42
-0
  0
VERTEX
  8
0
 10
2119.584716796875
 20
332.86917114257812
 42
0.50842314958572388
  0
VERTEX
  8
0
 10
2155.490966796875
 20
306.68557739257812
 42
0.32588791847229004
  0
VERTEX
  8
0
 10
2174.584716796875
 20
332.86917114257812
 42
-0
  0
VERTEX
  8
0
 10
2174.584716796875
 20
562.869140625
 42
1
  0
SEQEND
  0
POLYLINE
  8
0
 10
0
 20
0
 39
0
 70
1
 66
1
  0
VERTEX
  8
0
 10
2147.084716796875
 20
317.86917114257812
 42
-1
  0
VERTEX
  8
0
 10
2147.084716796875
 20
347.86917114257812
 42
-1
  0
SEQEND
  0
POLYLINE
  8
0
 10
0
 20
0
 39
0
 70
1
 66
1
  0
VERTEX
  8
0
 10
2147.084716796875
 20
547.869140625
 42
-1
  0
VERTEX
  8
0
 10
2147.084716796875
 20
577.869140625
 42
-1
  0
SEQEND
  0
POLYLINE
  8
0
 10
0
 20
0
 39
0
 70
1
 66
1
  0
VERTEX
  8
0
 10
2184.9384765625
 20
267.85379028320312
 42
-0
  0
VERTEX
  8
0
 10
2184.9384765625
 20
37.853782653808594
 42
0.50842314958572388
  0
VERTEX
  8
0
 10
2220.8447265625
 20
11.670190811157227
 42
0.32588791847229004
  0
VERTEX
  8
0
 10
2239.9384765625
 20
37.853782653808594
 42
-0
  0
VERTEX
  8
0
 10
2239.9384765625
 20
267.85379028320312
 42
1
  0
SEQEND
  0
POLYLINE
  8
0
 10
0
 20
0
 39
0
 70
1
 66
1
  0
VERTEX
  8
0
 10
2212.4384765625
 20
22.853784561157227
 42
-1
  0
VERTEX
  8
0
 10
2212.4384765625
 20
52.853782653808594
 42
-1
  0
SEQEND
  0
POLYLINE
  8
0
 10
0
 20
0
 39
0
 70
1
 66
1
  0
VERTEX
  8
0
 10
2212.4384765625
 20
252.85379028320312
 42
-1
  0
VERTEX
  8
0
 10
2212.4384765625
 20
282.85379028320312
 42
-1
  0
SEQEND
  0
POLYLINE
  8
0
 10
0
 20
0
 39
0
 70
1
 66
1
  0
VERTEX
  8
0
 10
2184.9384765625
 20
562.869140625
 42
-0
  0
VERTEX
  8
0
 10
2184.9384765625
 20
332.86917114257812
 42
0.50842314958572388
  0
VERTEX
  8
0
 10
2220.8447265625
 20
306.68557739257812
 42
0.32588791847229004
  0
VERTEX
  8
0
 10
2239.9384765625
 20
332.86917114257812
 42
-0
  0
VERTEX
  8
0
 10
2239.9384765625
 20
562.869140625
 42
1
  0
SEQEND
  0
POLYLINE
  8
0
 10
0
 20
0
 39
0
 70
1
 66
1
  0
VERTEX
  8
0
 10
2212.4384765625
 20
317.86917114257812
 42
-1
  0
VERTEX
  8
0
 10
2212.4384765625
 20
347.86917114257812
 42
-1
  0
SEQEND
  0
POLYLINE
  8
0
 10
0
 20
0
 39
0
 70
1
 66
1
  0
VERTEX
  8
0
 10
2212.4384765625
 20
547.869140625
 42
-1
  0
VERTEX
  8
0
 10
2212.4384765625
 20
577.869140625
 42
-1
  0
SEQEND
  0
POLYLINE
  8
0
 10
0
 20
0
 39
0
 70
1
 66
1
  0
VERTEX
  8
0
 10
2040.1922607421875
 20
666.66156005859375
 42
-0
  0
VERTEX
  8
0
 10
2270.1923828125
 20
666.66156005859375
 42
0.50842314958572388
  0
VERTEX
  8
0
 10
2296.3759765625
 20
702.56781005859375
 42
0.32588791847229004
  0
VERTEX
  8
0
 10
2270.1923828125
 20
721.66156005859375
 42
-0
  0
VERTEX
  8
0
 10
2040.1922607421875
 20
721.66156005859375
 42
1
  0
SEQEND
  0
POLYLINE
  8
0
 10
0
 20
0
 39
0
 70
1
 66
1
  0
VERTEX
  8
0
 10
2285.1923828125
 20
694.16156005859375
 42
-1
  0
VERTEX
  8
0
 10
2255.1923828125
 20
694.16156005859375
 42
-1
  0
SEQEND
  0
POLYLINE
  8
0
 10
0
 20
0
 39
0
 70
1
 66
1
  0
VERTEX
  8
0
 10
2055.1923828125
 20
694.16156005859375
 42
-1
  0
VERTEX
  8
0
 10
2025.1922607421875
 20
694.16156005859375
 42
-1
  0
SEQEND
  0
POLYLINE
  8
0
 10
0
 20
0
 39
0
 70
1
 66
1
  0
VERTEX
  8
0
 10
2250.292236328125
 20
267.85379028320312
 42
-0
  0
VERTEX
  8
0
 10
2250.292236328125
 20
37.853782653808594
 42
0.50842314958572388
  0
VERTEX
  8
0
 10
2286.198486328125
 20
11.670190811157227
 42
0.32588791847229004
  0
VERTEX
  8
0
 10
2305.292236328125
 20
37.853782653808594
 42
-0
  0
VERTEX
  8
0
 10
2305.292236328125
 20
267.85379028320312
 42
1
  0
SEQEND
  0
POLYLINE
  8
0
 10
0
 20
0
 39
0
 70
1
 66
1
  0
VERTEX
  8
0
 10
2277.792236328125
 20
22.853784561157227
 42
-1
  0
VERTEX
  8
0
 10
2277.792236328125
 20
52.853782653808594
 42
-1
  0
SEQEND
  0
POLYLINE
  8
0
 10
0
 20
0
 39
0
 70
1
 66
1
  0
VERTEX
  8
0
 10
2277.792236328125
 20
252.85379028320312
 42
-1
  0
VERTEX
  8
0
 10
2277.792236328125
 20
282.85379028320312
 42
-1
  0
SEQEND
  0
POLYLINE
  8
0
 10
0
 20
0
 39
0
 70
1
 66
1
  0
VERTEX
  8
0
 10
2250.292236328125
 20
562.869140625
 42
-0
  0
VERTEX
  8
0
 10
2250.292236328125
 20
332.86917114257812
 42
0.50842314958572388
  0
VERTEX
  8
0
 10
2286.198486328125
 20
306.68557739257812
 42
0.32588791847229004
  0
VERTEX
  8
0
 10
2305.292236328125
 20
332.86917114257812
 42
-0
  0
VERTEX
  8
0
 10
2305.292236328125
 20
562.869140625
 42
1
  0
SEQEND
  0
POLYLINE
  8
0
 10
0
 20
0
 39
0
 70
1
 66
1
  0
VERTEX
  8
0
 10
2277.792236328125
 20
317.86917114257812
 42
-1
  0
VERTEX
  8
0
 10
2277.792236328125
 20
347.86917114257812
 42
-1
  0
SEQEND
  0
POLYLINE
  8
0
 10
0
 20
0
 39
0
 70
1
 66
1
  0
VERTEX
  8
0
 10
2277.792236328125
 20
547.869140625
 42
-1
  0
VERTEX
  8
0
 10
2277.792236328125
 20
577.869140625
 42
-1
  0
SEQEND
  0
POLYLINE
  8
0
 10
0
 20
0
 39
0
 70
1
 66
1
  0
VERTEX
  8
0
 10
2085.792236328125
 20
600.3846435546875
 42
-0
  0
VERTEX
  8
0
 10
2315.792236328125
 20
600.3846435546875
 42
0.50842314958572388
  0
VERTEX
  8
0
 10
2341.975830078125
 20
636.2908935546875
 42
0.32588791847229004
  0
VERTEX
  8
0
 10
2315.792236328125
 20
655.3846435546875
 42
-0
  0
VERTEX
  8
0
 10
2085.792236328125
 20
655.3846435546875
 42
1
  0
SEQEND
  0
POLYLINE
  8
0
 10
0
 20
0
 39
0
 70
1
 66
1
  0
VERTEX
  8
0
 10
2330.792236328125
 20
627.8846435546875
 42
-1
  0
VERTEX
  8
0
 10
2300.792236328125
 20
627.8846435546875
 42
-1
  0
SEQEND
  0
POLYLINE
  8
0
 10
0
 20
0
 39
0
 70
1
 66
1
  0
VERTEX
  8
0
 10
2100.792236328125
 20
627.8846435546875
 42
-1
  0
VERTEX
  8
0
 10
2070.792236328125
 20
627.8846435546875
 42
-1
  0
SEQEND
  0
POLYLINE
  8
0
 10
0
 20
0
 39
0
 70
1
 66
1
  0
VERTEX
  8
0
 10
2110.34619140625
 20
731.83074951171875
 42
-0
  0
VERTEX
  8
0
 10
2340.34619140625
 20
731.83074951171875
 42
0.50842314958572388
  0
VERTEX
  8
0
 10
2366.52978515625
 20
767.73699951171875
 42
0.32588791847229004
  0
VERTEX
  8
0
 10
2340.34619140625
 20
786.83074951171875
 42
-0
  0
VERTEX
  8
0
 10
2110.34619140625
 20
786.83074951171875
 42
1
  0
SEQEND
  0
POLYLINE
  8
0
 10
0
 20
0
 39
0
 70
1
 66
1
  0
VERTEX
  8
0
 10
2355.34619140625
 20
759.33074951171875
 42
-1
  0
VERTEX
  8
0
 10
2325.34619140625
 20
759.33074951171875
 42
-1
  0
SEQEND
  0
POLYLINE
  8
0
 10
0
 20
0
 39
0
 70
1
 66
1
  0
VERTEX
  8
0
 10
2125.34619140625
 20
759.33074951171875
 42
-1
  0
VERTEX
  8
0
 10
2095.34619140625
 20
759.33074951171875
 42
-1
  0
SEQEND
  0
POLYLINE
  8
0
 10
0
 20
0
 39
0
 70
1
 66
1
  0
VERTEX
  8
0
 10
2315.646240234375
 20
267.85379028320312
 42
-0
  0
VERTEX
  8
0
 10
2315.646240234375
 20
37.853782653808594
 42
0.50842314958572388
  0
VERTEX
  8
0
 10
2351.552490234375
 20
11.670190811157227
 42
0.32588791847229004
  0
VERTEX
  8
0
 10
2370.646240234375
 20
37.853782653808594
 42
-0
  0
VERTEX
  8
0
 10
2370.646240234375
 20
267.85379028320312
 42
1
  0
SEQEND
  0
POLYLINE
  8
0
 10
0
 20
0
 39
0
 70
1
 66
1
  0
VERTEX
  8
0
 10
2343.146240234375
 20
22.853784561157227
 42
-1
  0
VERTEX
  8
0
 10
2343.146240234375
 20
52.853782653808594
 42
-1
  0
SEQEND
  0
POLYLINE
  8
0
 10
0
 20
0
 39
0
 70
1
 66
1
  0
VERTEX
  8
0
 10
2343.146240234375
 20
252.85379028320312
 42
-1
  0
VERTEX
  8
0
 10
2343.146240234375
 20
282.85379028320312
 42
-1
  0
SEQEND
  0
POLYLINE
  8
0
 10
0
 20
0
 39
0
 70
1
 66
1
  0
VERTEX
  8
0
 10
2315.646240234375
 20
562.869140625
 42
-0
  0
VERTEX
  8
0
 10
2315.646240234375
 20
332.86917114257812
 42
0.50842314958572388
  0
VERTEX
  8
0
 10
2351.552490234375
 20
306.68557739257812
 42
0.32588791847229004
  0
VERTEX
  8
0
 10
2370.646240234375
 20
332.86917114257812
 42
-0
  0
VERTEX
  8
0
 10
2370.646240234375
 20
562.869140625
 42
1
  0
SEQEND
  0
POLYLINE
  8
0
 10
0
 20
0
 39
0
 70
1
 66
1
  0
VERTEX
  8
0
 10
2343.146240234375
 20
317.86917114257812
 42
-1
  0
VERTEX
  8
0
 10
2343.146240234375
 20
347.86917114257812
 42
-1
  0
SEQEND
  0
POLYLINE
  8
0
 10
0
 20
0
 39
0
 70
1
 66
1
  0
VERTEX
  8
0
 10
2343.146240234375
 20
547.869140625
 42
-1
  0
VERTEX
  8
0
 10
2343.146240234375
 20
577.869140625
 42
-1
  0
SEQEND
  0
POLYLINE
  8
0
 10
0
 20
0
 39
0
 70
1
 66
1
  0
VERTEX
  8
0
 10
10.353846549987793
 20
255.15383911132813
 42
-0
  0
VERTEX
  8
0
 10
60.353847503662109
 20
255.15383911132813
 42
-0
  0
VERTEX
  8
0
 10
60.353847503662109
 20
355.15383911132812
 42
-0
  0
VERTEX
  8
0
 10
10.353846549987793
 20
355.15383911132812
 42
-0
  0
SEQEND
  0
POLYLINE
  8
0
 10
0
 20
0
 39
0
 70
1
 66
1
  0
VERTEX
  8
0
 10
35.353847503662109
 20
274.40383911132812
 42
-1
  0
VERTEX
  8
0
 10
35.353847503662109
 20
295.90383911132812
 42
-1
  0
SEQEND
  0
POLYLINE
  8
0
 10
0
 20
0
 39
0
 70
1
 66
1
  0
VERTEX
  8
0
 10
275.64614868164062
 20
255.15383911132813
 42
-0
  0
VERTEX
  8
0
 10
325.64614868164062
 20
255.15383911132813
 42
-0
  0
VERTEX
  8
0
 10
325.64614868164062
 20
355.15383911132812
 42
-0
  0
VERTEX
  8
0
 10
275.64614868164062
 20
355.15383911132812
 42
-0
  0
SEQEND
  0
POLYLINE
  8
0
 10
0
 20
0
 39
0
 70
1
 66
1
  0
VERTEX
  8
0
 10
300.64614868164062
 20
274.40383911132812
 42
-1
  0
VERTEX
  8
0
 10
300.64614868164062
 20
295.90383911132812
 42
-1
  0
SEQEND
  0
POLYLINE
  8
0
 10
0
 20
0
 39
0
 70
1
 66
1
  0
VERTEX
  8
0
 10
540.9384765625
 20
255.15383911132813
 42
-0
  0
VERTEX
  8
0
 10
590.9384765625
 20
255.15383911132813
 42
-0
  0
VERTEX
  8
0
 10
590.9384765625
 20
355.15383911132812
 42
-0
  0
VERTEX
  8
0
 10
540.9384765625
 20
355.15383911132812
 42
-0
  0
SEQEND
  0
POLYLINE
  8
0
 10
0
 20
0
 39
0
 70
1
 66
1
  0
VERTEX
  8
0
 10
565.9384765625
 20
274.40383911132812
 42
-1
  0
VERTEX
  8
0
 10
565.9384765625
 20
295.90383911132812
 42
-1
  0
SEQEND
  0
POLYLINE
  8
0
 10
0
 20
0
 39
0
 70
1
 66
1
  0
VERTEX
  8
0
 10
806.23077392578125
 20
255.15383911132813
 42
-0
  0
VERTEX
  8
0
 10
856.23077392578125
 20
255.15383911132813
 42
-0
  0
VERTEX
  8
0
 10
856.23077392578125
 20
355.15383911132812
 42
-0
  0
VERTEX
  8
0
 10
806.23077392578125
 20
355.15383911132812
 42
-0
  0
SEQEND
  0
POLYLINE
  8
0
 10
0
 20
0
 39
0
 70
1
 66
1
  0
VERTEX
  8
0
 10
831.23077392578125
 20
274.40383911132812
 42
-1
  0
VERTEX
  8
0
 10
831.23077392578125
 20
295.90383911132812
 42
-1
  0
SEQEND
  0
POLYLINE
  8
0
 10
0
 20
0
 39
0
 70
1
 66
1
  0
VERTEX
  8
0
 10
1071.5230712890625
 20
255.15383911132813
 42
-0
  0
VERTEX
  8
0
 10
1121.5230712890625
 20
255.15383911132813
 42
-0
  0
VERTEX
  8
0
 10
1121.5230712890625
 20
355.15383911132812
 42
-0
  0
VERTEX
  8
0
 10
1071.5230712890625
 20
355.15383911132812
 42
-0
  0
SEQEND
  0
POLYLINE
  8
0
 10
0
 20
0
 39
0
 70
1
 66
1
  0
VERTEX
  8
0
 10
1096.5230712890625
 20
274.40383911132812
 42
-1
  0
VERTEX
  8
0
 10
1096.5230712890625
 20
295.90383911132812
 42
-1
  0
SEQEND
  0
POLYLINE
  8
0
 10
0
 20
0
 39
0
 70
1
 66
1
  0
VERTEX
  8
0
 10
52.471035003662109
 20
615.79132080078125
 42
-0
  0
VERTEX
  8
0
 10
10.353846549987793
 20
624.22882080078125
 42
-0
  0
VERTEX
  8
0
 10
10.353846549987793
 20
554.23077392578125
 42
-0
  0
VERTEX
  8
0
 10
52.472011566162109
 20
562.66632080078125
 42
0.76732701063156128
  0
SEQEND
  0
POLYLINE
  8
0
 10
0
 20
0
 39
0
 70
1
 66
1
  0
VERTEX
  8
0
 10
45.353847503662109
 20
574.22882080078125
 42
-1
  0
VERTEX
  8
0
 10
45.353847503662109
 20
604.22882080078125
 42
-1
  0
SEQEND
  0
POLYLINE
  8
0
 10
0
 20
0
 39
0
 70
1
 66
1
  0
VERTEX
  8
0
 10
359.30178833007812
 20
657.32977294921875
 42
-0
  0
VERTEX
  8
0
 10
317.18460083007812
 20
665.76727294921875
 42
-0
  0
VERTEX
  8
0
 10
317.18460083007812
 20
595.76922607421875
 42
-0
  0
VERTEX
  8
0
 10
359.30276489257812
 20
604.20477294921875
 42
0.76732701063156128
  0
SEQEND
  0
POLYLINE
  8
0
 10
0
 20
0
 39
0
 70
1
 66
1
  0
VERTEX
  8
0
 10
352.18460083007812
 20
615.76727294921875
 42
-1
  0
VERTEX
  8
0
 10
352.18460083007812
 20
645.76727294921875
 42
-1
  0
SEQEND
  0
POLYLINE
  8
0
 10
0
 20
0
 39
0
 70
1
 66
1
  0
VERTEX
  8
0
 10
559.290283203125
 20
606.79132080078125
 42
-0
  0
VERTEX
  8
0
 10
601.407470703125
 20
598.35382080078125
 42
-0
  0
VERTEX
  8
0
 10
601.407470703125
 20
668.35186767578125
 42
-0
  0
VERTEX
  8
0
 10
559.289306640625
 20
659.91632080078125
 42
0.76732701063156128
  0
SEQEND
  0
POLYLINE
  8
0
 10
0
 20
0
 39
0
 70
1
 66
1
  0
VERTEX
  8
0
 10
566.407470703125
 20
648.35382080078125
 42
-1
  0
VERTEX
  8
0
 10
566.407470703125
 20
618.35382080078125
 42
-1
  0
SEQEND
  0
POLYLINE
  8
0
 10
0
 20
0
 39
0
 70
1
 66
1
  0
VERTEX
  8
0
 10
826.42877197265625
 20
599.77593994140625
 42
-0
  0
VERTEX
  8
0
 10
868.54595947265625
 20
591.33843994140625
 42
-0
  0
VERTEX
  8
0
 10
868.54595947265625
 20
661.33648681640625
 42
-0
  0
VERTEX
  8
0
 10
826.42779541015625
 20
652.90093994140625
 42
0.76732701063156128
  0
SEQEND
  0
POLYLINE
  8
0
 10
0
 20
0
 39
0
 70
1
 66
1
  0
VERTEX
  8
0
 10
833.54595947265625
 20
641.33843994140625
 42
-1
  0
VERTEX
  8
0
 10
833.54595947265625
 20
611.33843994140625
 42
-1
  0
SEQEND
  0
POLYLINE
  8
0
 10
0
 20
0
 39
0
 70
1
 66
1
  0
VERTEX
  8
0
 10
1113.6402587890625
 20
615.79132080078125
 42
-0
  0
VERTEX
  8
0
 10
1071.5230712890625
 20
624.22882080078125
 42
-0
  0
VERTEX
  8
0
 10
1071.5230712890625
 20
554.23077392578125
 42
-0
  0
VERTEX
  8
0
 10
1113.6412353515625
 20
562.66632080078125
 42
0.76732701063156128
  0
SEQEND
  0
POLYLINE
  8
0
 10
0
 20
0
 39
0
 70
1
 66
1
  0
VERTEX
  8
0
 10
1106.5230712890625
 20
574.22882080078125
 42
-1
  0
VERTEX
  8
0
 10
1106.5230712890625
 20
604.22882080078125
 42
-1
  0
SEQEND
  0
POLYLINE
  8
0
 10
0
 20
0
 39
0
 70
1
 66
1
  0
VERTEX
  8
0
 10
1177.6220703125
 20
672.77874755859375
 42
-0
  0
VERTEX
  8
0
 10
1169.1845703125
 20
630.66156005859375
 42
-0
  0
VERTEX
  8
0
 10
1239.1826171875
 20
630.66156005859375
 42
-0
  0
VERTEX
  8
0
 10
1230.7470703125
 20
672.77972412109375
 42
0.76732701063156128
  0
SEQEND
  0
POLYLINE
  8
0
 10
0
 20
0
 39
0
 70
1
 66
1
  0
VERTEX
  8
0
 10
1219.1845703125
 20
665.66156005859375
 42
-1
  0
VERTEX
  8
0
 10
1189.1845703125
 20
665.66156005859375
 42
-1
  0
SEQEND
  0
POLYLINE
  8
0
 10
0
 20
0
 39
0
 70
1
 66
1
  0
VERTEX
  8
0
 10
16.410070419311523
 20
35.706001281738281
 42
-0.34488147497177124
  0
VERTEX
  8
0
 10
15.197993278503418
 20
33.558708190917969
 42
0
  0
VERTEX
  8
0
 10
10.971162796020508
 20
31.807897567749023
 42
0.38417559862136841
  0
VERTEX
  8
0
 10
10.395337104797363
 20
30.598958969116211
 42
0.051863253116607666
  0
VERTEX
  8
0
 10
12.770613670349121
 20
24.864534378051758
 42
0.38417559862136841
  0
VERTEX
  8
0
 10
14.03262996673584
 20
24.416862487792969
 42
-0
  0
VERTEX
  8
0
 10
18.25946044921875
 20
26.167671203613281
 42
-0.34488147497177124
  0
VERTEX
  8
0
 10
20.634893417358398
 20
25.506372451782227
 42
0.075308501720428467
  0
VERTEX
  8
0
 10
25.506372451782227
 20
20.634893417358398
 42
-0.34488147497177124
  0
VERTEX
  8
0
 10
26.167671203613281
 20
18.25946044921875
 42
0
  0
VERTEX
  8
0
 10
24.416860580444336
 20
14.032630920410156
 42
0.38417559862136841
  0
VERTEX
  8
0
 10
24.864536285400391
 20
12.770612716674805
 42
0.051863271743059158
  0
VERTEX
  8
0
 10
30.598960876464844
 20
10.395336151123047
 42
0.38417559862136841
  0
VERTEX
  8
0
 10
31.807897567749023
 20
10.971163749694824
 42
-0
  0
VERTEX
  8
0
 10
33.558708190917969
 20
15.197994232177734
 42
-0.34488147497177124
  0
VERTEX
  8
0
 10
35.706001281738281
 20
16.410070419311523
 42
0.075308538973331451
  0
VERTEX
  8
0
 10
42.595310211181641
 20
16.410068511962891
 42
-0.34488147497177124
  0
VERTEX
  8
0
 10
44.742607116699219
 20
15.197993278503418
 42
0
  0
VERTEX
  8
0
 10
46.493415832519531
 20
10.971162796020508
 42
0.38417559862136841
  0
VERTEX
  8
0
 10
47.702350616455078
 20
10.39533519744873
 42
0.051863282918930054
  0
VERTEX
  8
0
 10
53.436779022216797
 20
12.770612716674805
 42
0.38417559862136841
  0
VERTEX
  8
0
 10
53.884452819824219
 20
14.03262996673584
 42
-0
  0
VERTEX
  8
0
 10
52.133640289306641
 20
18.25946044921875
 42
-0.34488144516944885
  0
VERTEX
  8
0
 10
52.794940948486328
 20
20.634891510009766
 42
0.075308538973331451
  0
VERTEX
  8
0
 10
57.666419982910156
 20
25.506372451782227
 42
-0.34488144516944885
  0
VERTEX
  8
0
 10
60.041851043701172
 20
26.167671203613281
 42
0
  0
VERTEX
  8
0
 10
64.268684387207031
 20
24.416860580444336
 42
0.38417559862136841
  0
VERTEX
  8
0
 10
65.53070068359375
 20
24.864534378051758
 42
0.051863282918930054
  0
VERTEX
  8
0
 10
67.905975341796875
 20
30.598960876464844
 42
0.38417559862136841
  0
VERTEX
  8
0
 10
67.330146789550781
 20
31.807897567749023
 42
-0
  0
VERTEX
  8
0
 10
63.103317260742187
 20
33.558708190917969
 42
-0.34488144516944885
  0
VERTEX
  8
0
 10
61.891242980957031
 20
35.706001281738281
 42
0.075308538973331451
  0
VERTEX
  8
0
 10
61.891242980957031
 20
42.595310211181641
 42
-0.34488147497177124
  0
VERTEX
  8
0
 10
63.103321075439453
 20
44.742603302001953
 42
0
  0
VERTEX
  8
0
 10
67.330146789550781
 20
46.493415832519531
 42
0.38417559862136841
  0
VERTEX
  8
0
 10
67.905975341796875
 20
47.702350616455078
 42
0.051863282918930054
  0
VERTEX
  8
0
 10
65.53070068359375
 20
53.436779022216797
 42
0.38417559862136841
  0
VERTEX
  8
0
 10
64.268684387207031
 20
53.884449005126953
 42
-0
  0
VERTEX
  8
0
 10
60.041851043701172
 20
52.133640289306641
 42
-0.34488147497177124
  0
VERTEX
  8
0
 10
57.666419982910156
 20
52.794940948486328
 42
0.075308538973331451
  0
VERTEX
  8
0
 10
52.794940948486328
 20
57.666419982910156
 42
-0.34488147497177124
  0
VERTEX
  8
0
 10
52.133640289306641
 20
60.041851043701172
 42
0
  0
VERTEX
  8
0
 10
53.884452819824219
 20
64.268684387207031
 42
0.38417559862136841
  0
VERTEX
  8
0
 10
53.436779022216797
 20
65.53070068359375
 42
0.051863282918930054
  0
VERTEX
  8
0
 10
47.702350616455078
 20
67.905975341796875
 42
0.38417559862136841
  0
VERTEX
  8
0
 10
46.493415832519531
 20
67.330146789550781
 42
-0
  0
VERTEX
  8
0
 10
44.742607116699219
 20
63.103317260742187
 42
-0.34488147497177124
  0
VERTEX
  8
0
 10
42.595314025878906
 20
61.891242980957031
 42
0.075308538973331451
  0
VERTEX
  8
0
 10
35.706001281738281
 20
61.891242980957031
 42
-0.34488147497177124
  0
VERTEX
  8
0
 10
33.558708190917969
 20
63.103321075439453
 42
0
  0
VERTEX
  8
0
 10
31.807899475097656
 20
67.330146789550781
 42
0.38417559862136841
  0
VERTEX
  8
0
 10
30.598962783813477
 20
67.905975341796875
 42
0.051863282918930054
  0
VERTEX
  8
0
 10
24.864534378051758
 20
65.53070068359375
 42
0.38417559862136841
  0
VERTEX
  8
0
 10
24.416862487792969
 20
64.268684387207031
 42
-0
  0
VERTEX
  8
0
 10
26.167671203613281
 20
60.041851043701172
 42
-0.34488147497177124
  0
VERTEX
  8
0
 10
25.506370544433594
 20
57.666419982910156
 42
0.075308471918106079
  0
VERTEX
  8
0
 10
20.634895324707031
 20
52.794940948486328
 42
-0.34488147497177124
  0
VERTEX
  8
0
 10
18.259462356567383
 20
52.133640289306641
 42
0
  0
VERTEX
  8
0
 10
14.032630920410156
 20
53.884452819824219
 42
0.38417559862136841
  0
VERTEX
  8
0
 10
12.770613670349121
 20
53.436779022216797
 42
0.051863282918930054
  0
VERTEX
  8
0
 10
10.395337104797363
 20
47.702350616455078
 42
0.38417559862136841
  0
VERTEX
  8
0
 10
10.971163749694824
 20
46.493415832519531
 42
-0
  0
VERTEX
  8
0
 10
15.197994232177734
 20
44.742607116699219
 42
-0.34488147497177124
  0
VERTEX
  8
0
 10
16.410068511962891
 20
42.595310211181641
 42
0.07530849426984787
  0
SEQEND
  0
POLYLINE
  8
0
 10
0
 20
0
 39
0
 70
1
 66
1
  0
VERTEX
  8
0
 10
45.273590087890625
 20
53.932727813720703
 42
-1
  0
VERTEX
  8
0
 10
33.027721405029297
 20
24.368583679199219
 42
-1
  0
SEQEND
  0
POLYLINE
  8
0
 10
0
 20
0
 39
0
 70
1
 66
1
  0
VERTEX
  8
0
 10
281.702392578125
 20
35.706001281738281
 42
-0.34488147497177124
  0
VERTEX
  8
0
 10
280.49029541015625
 20
33.558708190917969
 42
0
  0
VERTEX
  8
0
 10
276.26345825195312
 20
31.807897567749023
 42
0.38417559862136841
  0
VERTEX
  8
0
 10
275.68765258789062
 20
30.598958969116211
 42
0.051863253116607666
  0
VERTEX
  8
0
 10
278.06292724609375
 20
24.864534378051758
 42
0.38417559862136841
  0
VERTEX
  8
0
 10
279.324951171875
 20
24.416862487792969
 42
-0
  0
VERTEX
  8
0
 10
283.5517578125
 20
26.167671203613281
 42
-0.34488147497177124
  0
VERTEX
  8
0
 10
285.92721557617187
 20
25.506372451782227
 42
0.075308501720428467
  0
VERTEX
  8
0
 10
290.79867553710937
 20
20.634893417358398
 42
-0.34488147497177124
  0
VERTEX
  8
0
 10
291.45999145507812
 20
18.25946044921875
 42
0
  0
VERTEX
  8
0
 10
289.70916748046875
 20
14.032630920410156
 42
0.38417559862136841
  0
VERTEX
  8
0
 10
290.15682983398437
 20
12.770612716674805
 42
0.051863271743059158
  0
VERTEX
  8
0
 10
295.89126586914063
 20
10.395336151123047
 42
0.38417559862136841
  0
VERTEX
  8
0
 10
297.1002197265625
 20
10.971163749694824
 42
-0
  0
VERTEX
  8
0
 10
298.85101318359375
 20
15.197994232177734
 42
-0.34488147497177124
  0
VERTEX
  8
0
 10
300.99832153320312
 20
16.410070419311523
 42
0.075308538973331451
  0
VERTEX
  8
0
 10
307.88763427734375
 20
16.410068511962891
 42
-0.34488147497177124
  0
VERTEX
  8
0
 10
310.034912109375
 20
15.197993278503418
 42
0
  0
VERTEX
  8
0
 10
311.78573608398437
 20
10.971162796020508
 42
0.38417559862136841
  0
VERTEX
  8
0
 10
312.99465942382813
 20
10.39533519744873
 42
0.051863282918930054
  0
VERTEX
  8
0
 10
318.72909545898437
 20
12.770612716674805
 42
0.38417559862136841
  0
VERTEX
  8
0
 10
319.1767578125
 20
14.03262996673584
 42
-0
  0
VERTEX
  8
0
 10
317.42596435546875
 20
18.25946044921875
 42
-0.34488144516944885
  0
VERTEX
  8
0
 10
318.08724975585937
 20
20.634891510009766
 42
0.075308538973331451
  0
VERTEX
  8
0
 10
322.958740234375
 20
25.506372451782227
 42
-0.34488144516944885
  0
VERTEX
  8
0
 10
325.33416748046875
 20
26.167671203613281
 42
0
  0
VERTEX
  8
0
 10
329.56100463867187
 20
24.416860580444336
 42
0.38417559862136841
  0
VERTEX
  8
0
 10
330.822998046875
 20
24.864534378051758
 42
0.051863282918930054
  0
VERTEX
  8
0
 10
333.19827270507812
 20
30.598960876464844
 42
0.38417559862136841
  0
VERTEX
  8
0
 10
332.62246704101562
 20
31.807897567749023
 42
-0
  0
VERTEX
  8
0
 10
328.3956298828125
 20
33.558708190917969
 42
-0.34488144516944885
  0
VERTEX
  8
0
 10
327.18356323242187
 20
35.706001281738281
 42
0.075308538973331451
  0
VERTEX
  8
0
 10
327.18356323242187
 20
42.595310211181641
 42
-0.34488147497177124
  0
VERTEX
  8
0
 10
328.3956298828125
 20
44.742603302001953
 42
0
  0
VERTEX
  8
0
 10
332.62246704101562
 20
46.493415832519531
 42
0.38417559862136841
  0
VERTEX
  8
0
 10
333.19827270507812
 20
47.702350616455078
 42
0.051863282918930054
  0
VERTEX
  8
0
 10
330.822998046875
 20
53.436779022216797
 42
0.38417559862136841
  0
VERTEX
  8
0
 10
329.56100463867187
 20
53.884449005126953
 42
-0
  0
VERTEX
  8
0
 10
325.33416748046875
 20
52.133640289306641
 42
-0.34488147497177124
  0
VERTEX
  8
0
 10
322.958740234375
 20
52.794940948486328
 42
0.075308538973331451
  0
VERTEX
  8
0
 10
318.08724975585937
 20
57.666419982910156
 42
-0.34488147497177124
  0
VERTEX
  8
0
 10
317.42596435546875
 20
60.041851043701172
 42
0
  0
VERTEX
  8
0
 10
319.1767578125
 20
64.268684387207031
 42
0.38417559862136841
  0
VERTEX
  8
0
 10
318.72909545898437
 20
65.53070068359375
 42
0.051863282918930054
  0
VERTEX
  8
0
 10
312.99465942382813
 20
67.905975341796875
 42
0.38417559862136841
  0
VERTEX
  8
0
 10
311.78573608398437
 20
67.330146789550781
 42
-0
  0
VERTEX
  8
0
 10
310.034912109375
 20
63.103317260742187
 42
-0.34488147497177124
  0
VERTEX
  8
0
 10
307.88763427734375
 20
61.891242980957031
 42
0.075308538973331451
  0
VERTEX
  8
0
 10
300.99832153320312
 20
61.891242980957031
 42
-0.34488147497177124
  0
VERTEX
  8
0
 10
298.85101318359375
 20
63.103321075439453
 42
0
  0
VERTEX
  8
0
 10
297.1002197265625
 20
67.330146789550781
 42
0.38417559862136841
  0
VERTEX
  8
0
 10
295.89126586914063
 20
67.905975341796875
 42
0.051863282918930054
  0
VERTEX
  8
0
 10
290.15682983398437
 20
65.53070068359375
 42
0.38417559862136841
  0
VERTEX
  8
0
 10
289.70916748046875
 20
64.268684387207031
 42
-0
  0
VERTEX
  8
0
 10
291.45999145507812
 20
60.041851043701172
 42
-0.34488147497177124
  0
VERTEX
  8
0
 10
290.79867553710937
 20
57.666419982910156
 42
0.075308471918106079
  0
VERTEX
  8
0
 10
285.92721557617187
 20
52.794940948486328
 42
-0.34488147497177124
  0
VERTEX
  8
0
 10
283.5517578125
 20
52.133640289306641
 42
0
  0
VERTEX
  8
0
 10
279.324951171875
 20
53.884452819824219
 42
0.38417559862136841
  0
VERTEX
  8
0
 10
278.06292724609375
 20
53.436779022216797
 42
0.051863282918930054
  0
VERTEX
  8
0
 10
275.68765258789062
 20
47.702350616455078
 42
0.38417559862136841
  0
VERTEX
  8
0
 10
276.26345825195312
 20
46.493415832519531
 42
-0
  0
VERTEX
  8
0
 10
280.49029541015625
 20
44.742607116699219
 42
-0.34488147497177124
  0
VERTEX
  8
0
 10
281.70236206054687
 20
42.595310211181641
 42
0.07530849426984787
  0
SEQEND
  0
POLYLINE
  8
0
 10
0
 20
0
 39
0
 70
1
 66
1
  0
VERTEX
  8
0
 10
310.56588745117187
 20
53.932727813720703
 42
-1
  0
VERTEX
  8
0
 10
298.32003784179687
 20
24.368583679199219
 42
-1
  0
SEQEND
  0
POLYLINE
  8
0
 10
0
 20
0
 39
0
 70
1
 66
1
  0
VERTEX
  8
0
 10
546.99468994140625
 20
35.706001281738281
 42
-0.34488147497177124
  0
VERTEX
  8
0
 10
545.7825927734375
 20
33.558708190917969
 42
0
  0
VERTEX
  8
0
 10
541.5557861328125
 20
31.807897567749023
 42
0.38417559862136841
  0
VERTEX
  8
0
 10
540.97998046875
 20
30.598958969116211
 42
0.051863253116607666
  0
VERTEX
  8
0
 10
543.355224609375
 20
24.864534378051758
 42
0.38417559862136841
  0
VERTEX
  8
0
 10
544.61724853515625
 20
24.416862487792969
 42
-0
  0
VERTEX
  8
0
 10
548.84405517578125
 20
26.167671203613281
 42
-0.34488147497177124
  0
VERTEX
  8
0
 10
551.219482421875
 20
25.506372451782227
 42
0.075308501720428467
  0
VERTEX
  8
0
 10
556.09100341796875
 20
20.634893417358398
 42
-0.34488147497177124
  0
VERTEX
  8
0
 10
556.75225830078125
 20
18.25946044921875
 42
0
  0
VERTEX
  8
0
 10
555.00146484375
 20
14.032630920410156
 42
0.38417559862136841
  0
VERTEX
  8
0
 10
555.44915771484375
 20
12.770612716674805
 42
0.051863271743059158
  0
VERTEX
  8
0
 10
561.18359375
 20
10.395336151123047
 42
0.38417559862136841
  0
VERTEX
  8
0
 10
562.39251708984375
 20
10.971163749694824
 42
-0
  0
VERTEX
  8
0
 10
564.143310546875
 20
15.197994232177734
 42
-0.34488147497177124
  0
VERTEX
  8
0
 10
566.29058837890625
 20
16.410070419311523
 42
0.075308538973331451
  0
VERTEX
  8
0
 10
573.179931640625
 20
16.410068511962891
 42
-0.34488147497177124
  0
VERTEX
  8
0
 10
575.32720947265625
 20
15.197993278503418
 42
0
  0
VERTEX
  8
0
 10
577.0780029296875
 20
10.971162796020508
 42
0.38417559862136841
  0
VERTEX
  8
0
 10
578.2869873046875
 20
10.39533519744873
 42
0.051863282918930054
  0
VERTEX
  8
0
 10
584.02142333984375
 20
12.770612716674805
 42
0.38417559862136841
  0
VERTEX
  8
0
 10
584.46905517578125
 20
14.03262996673584
 42
-0
  0
VERTEX
  8
0
 10
582.71826171875
 20
18.25946044921875
 42
-0.34488144516944885
  0
VERTEX
  8
0
 10
583.37957763671875
 20
20.634891510009766
 42
0.075308538973331451
  0
VERTEX
  8
0
 10
588.25103759765625
 20
25.506372451782227
 42
-0.34488144516944885
  0
VERTEX
  8
0
 10
590.62646484375
 20
26.167671203613281
 42
0
  0
VERTEX
  8
0
 10
594.853271484375
 20
24.416860580444336
 42
0.38417559862136841
  0
VERTEX
  8
0
 10
596.11529541015625
 20
24.864534378051758
 42
0.051863282918930054
  0
VERTEX
  8
0
 10
598.4906005859375
 20
30.598960876464844
 42
0.38417559862136841
  0
VERTEX
  8
0
 10
597.914794921875
 20
31.807897567749023
 42
-0
  0
VERTEX
  8
0
 10
593.68792724609375
 20
33.558708190917969
 42
-0.34488144516944885
  0
VERTEX
  8
0
 10
592.475830078125
 20
35.706001281738281
 42
0.075308538973331451
  0
VERTEX
  8
0
 10
592.475830078125
 20
42.595310211181641
 42
-0.34488147497177124
  0
VERTEX
  8
0
 10
593.68792724609375
 20
44.742603302001953
 42
0
  0
VERTEX
  8
0
 10
597.914794921875
 20
46.493415832519531
 42
0.38417559862136841
  0
VERTEX
  8
0
 10
598.4906005859375
 20
47.702350616455078
 42
0.051863282918930054
  0
VERTEX
  8
0
 10
596.11529541015625
 20
53.436779022216797
 42
0.38417559862136841
  0
VERTEX
  8
0
 10
594.853271484375
 20
53.884449005126953
 42
-0
  0
VERTEX
  8
0
 10
590.62646484375
 20
52.133640289306641
 42
-0.34488147497177124
  0
VERTEX
  8
0
 10
588.25103759765625
 20
52.794940948486328
 42
0.075308538973331451
  0
VERTEX
  8
0
 10
583.37957763671875
 20
57.666419982910156
 42
-0.34488147497177124
  0
VERTEX
  8
0
 10
582.71826171875
 20
60.041851043701172
 42
0
  0
VERTEX
  8
0
 10
584.46905517578125
 20
64.268684387207031
 42
0.38417559862136841
  0
VERTEX
  8
0
 10
584.02142333984375
 20
65.53070068359375
 42
0.051863282918930054
  0
VERTEX
  8
0
 10
578.2869873046875
 20
67.905975341796875
 42
0.38417559862136841
  0
VERTEX
  8
0
 10
577.0780029296875
 20
67.330146789550781
 42
-0
  0
VERTEX
  8
0
 10
575.32720947265625
 20
63.103317260742187
 42
-0.34488147497177124
  0
VERTEX
  8
0
 10
573.179931640625
 20
61.891242980957031
 42
0.075308538973331451
  0
VERTEX
  8
0
 10
566.29058837890625
 20
61.891242980957031
 42
-0.34488147497177124
  0
VERTEX
  8
0
 10
564.143310546875
 20
63.103321075439453
 42
0
  0
VERTEX
  8
0
 10
562.39251708984375
 20
67.330146789550781
 42
0.38417559862136841
  0
VERTEX
  8
0
 10
561.18359375
 20
67.905975341796875
 42
0.051863282918930054
  0
VERTEX
  8
0
 10
555.44915771484375
 20
65.53070068359375
 42
0.38417559862136841
  0
VERTEX
  8
0
 10
555.00146484375
 20
64.268684387207031
 42
-0
  0
VERTEX
  8
0
 10
556.75225830078125
 20
60.041851043701172
 42
-0.34488147497177124
  0
VERTEX
  8
0
 10
556.09100341796875
 20
57.666419982910156
 42
0.075308471918106079
  0
VERTEX
  8
0
 10
551.219482421875
 20
52.794940948486328
 42
-0.34488147497177124
  0
VERTEX
  8
0
 10
548.84405517578125
 20
52.133640289306641
 42
0
  0
VERTEX
  8
0
 10
544.61724853515625
 20
53.884452819824219
 42
0.38417559862136841
  0
VERTEX
  8
0
 10
543.355224609375
 20
53.436779022216797
 42
0.051863282918930054
  0
VERTEX
  8
0
 10
540.97998046875
 20
47.702350616455078
 42
0.38417559862136841
  0
VERTEX
  8
0
 10
541.5557861328125
 20
46.493415832519531
 42
-0
  0
VERTEX
  8
0
 10
545.7825927734375
 20
44.742607116699219
 42
-0.34488147497177124
  0
VERTEX
  8
0
 10
546.99468994140625
 20
42.595310211181641
 42
0.07530849426984787
  0
SEQEND
  0
POLYLINE
  8
0
 10
0
 20
0
 39
0
 70
1
 66
1
  0
VERTEX
  8
0
 10
575.85821533203125
 20
53.932727813720703
 42
-1
  0
VERTEX
  8
0
 10
563.61236572265625
 20
24.368583679199219
 42
-1
  0
SEQEND
  0
POLYLINE
  8
0
 10
0
 20
0
 39
0
 70
1
 66
1
  0
VERTEX
  8
0
 10
812.2869873046875
 20
35.706001281738281
 42
-0.34488147497177124
  0
VERTEX
  8
0
 10
811.07489013671875
 20
33.558708190917969
 42
0
  0
VERTEX
  8
0
 10
806.84808349609375
 20
31.807897567749023
 42
0.38417559862136841
  0
VERTEX
  8
0
 10
806.27227783203125
 20
30.598958969116211
 42
0.051863253116607666
  0
VERTEX
  8
0
 10
808.64752197265625
 20
24.864534378051758
 42
0.38417559862136841
  0
VERTEX
  8
0
 10
809.9095458984375
 20
24.416862487792969
 42
-0
  0
VERTEX
  8
0
 10
814.13641357421875
 20
26.167671203613281
 42
-0.34488147497177124
  0
VERTEX
  8
0
 10
816.5118408203125
 20
25.506372451782227
 42
0.075308501720428467
  0
VERTEX
  8
0
 10
821.38330078125
 20
20.634893417358398
 42
-0.34488147497177124
  0
VERTEX
  8
0
 10
822.04461669921875
 20
18.25946044921875
 42
0
  0
VERTEX
  8
0
 10
820.29376220703125
 20
14.032630920410156
 42
0.38417559862136841
  0
VERTEX
  8
0
 10
820.741455078125
 20
12.770612716674805
 42
0.051863271743059158
  0
VERTEX
  8
0
 10
826.47589111328125
 20
10.395336151123047
 42
0.38417559862136841
  0
VERTEX
  8
0
 10
827.684814453125
 20
10.971163749694824
 42
-0
  0
VERTEX
  8
0
 10
829.43560791015625
 20
15.197994232177734
 42
-0.34488147497177124
  0
VERTEX
  8
0
 10
831.58294677734375
 20
16.410070419311523
 42
0.075308538973331451
  0
VERTEX
  8
0
 10
838.47222900390625
 20
16.410068511962891
 42
-0.34488147497177124
  0
VERTEX
  8
0
 10
840.6195068359375
 20
15.197993278503418
 42
0
  0
VERTEX
  8
0
 10
842.370361328125
 20
10.971162796020508
 42
0.38417559862136841
  0
VERTEX
  8
0
 10
843.57928466796875
 20
10.39533519744873
 42
0.051863282918930054
  0
VERTEX
  8
0
 10
849.313720703125
 20
12.770612716674805
 42
0.38417559862136841
  0
VERTEX
  8
0
 10
849.7613525390625
 20
14.03262996673584
 42
-0
  0
VERTEX
  8
0
 10
848.01055908203125
 20
18.25946044921875
 42
-0.34488144516944885
  0
VERTEX
  8
0
 10
848.671875
 20
20.634891510009766
 42
0.075308538973331451
  0
VERTEX
  8
0
 10
853.5433349609375
 20
25.506372451782227
 42
-0.34488144516944885
  0
VERTEX
  8
0
 10
855.91876220703125
 20
26.167671203613281
 42
0
  0
VERTEX
  8
0
 10
860.1456298828125
 20
24.416860580444336
 42
0.38417559862136841
  0
VERTEX
  8
0
 10
861.4075927734375
 20
24.864534378051758
 42
0.051863282918930054
  0
VERTEX
  8
0
 10
863.78289794921875
 20
30.598960876464844
 42
0.38417559862136841
  0
VERTEX
  8
0
 10
863.20709228515625
 20
31.807897567749023
 42
-0
  0
VERTEX
  8
0
 10
858.980224609375
 20
33.558708190917969
 42
-0.34488144516944885
  0
VERTEX
  8
0
 10
857.7681884765625
 20
35.706001281738281
 42
0.075308538973331451
  0
VERTEX
  8
0
 10
857.7681884765625
 20
42.595310211181641
 42
-0.34488147497177124
  0
VERTEX
  8
0
 10
858.980224609375
 20
44.742603302001953
 42
0
  0
VERTEX
  8
0
 10
863.20709228515625
 20
46.493415832519531
 42
0.38417559862136841
  0
VERTEX
  8
0
 10
863.78289794921875
 20
47.702350616455078
 42
0.051863282918930054
  0
VERTEX
  8
0
 10
861.4075927734375
 20
53.436779022216797
 42
0.38417559862136841
  0
VERTEX
  8
0
 10
860.1456298828125
 20
53.884449005126953
 42
-0
  0
VERTEX
  8
0
 10
855.91876220703125
 20
52.133640289306641
 42
-0.34488147497177124
  0
VERTEX
  8
0
 10
853.5433349609375
 20
52.794940948486328
 42
0.075308538973331451
  0
VERTEX
  8
0
 10
848.671875
 20
57.666419982910156
 42
-0.34488147497177124
  0
VERTEX
  8
0
 10
848.01055908203125
 20
60.041851043701172
 42
0
  0
VERTEX
  8
0
 10
849.7613525390625
 20
64.268684387207031
 42
0.38417559862136841
  0
VERTEX
  8
0
 10
849.313720703125
 20
65.53070068359375
 42
0.051863282918930054
  0
VERTEX
  8
0
 10
843.57928466796875
 20
67.905975341796875
 42
0.38417559862136841
  0
VERTEX
  8
0
 10
842.370361328125
 20
67.330146789550781
 42
-0
  0
VERTEX
  8
0
 10
840.6195068359375
 20
63.103317260742187
 42
-0.34488147497177124
  0
VERTEX
  8
0
 10
838.47222900390625
 20
61.891242980957031
 42
0.075308538973331451
  0
VERTEX
  8
0
 10
831.58294677734375
 20
61.891242980957031
 42
-0.34488147497177124
  0
VERTEX
  8
0
 10
829.43560791015625
 20
63.103321075439453
 42
0
  0
VERTEX
  8
0
 10
827.684814453125
 20
67.330146789550781
 42
0.38417559862136841
  0
VERTEX
  8
0
 10
826.47589111328125
 20
67.905975341796875
 42
0.051863282918930054
  0
VERTEX
  8
0
 10
820.741455078125
 20
65.53070068359375
 42
0.38417559862136841
  0
VERTEX
  8
0
 10
820.29376220703125
 20
64.268684387207031
 42
-0
  0
VERTEX
  8
0
 10
822.04461669921875
 20
60.041851043701172
 42
-0.34488147497177124
  0
VERTEX
  8
0
 10
821.38330078125
 20
57.666419982910156
 42
0.075308471918106079
  0
VERTEX
  8
0
 10
816.5118408203125
 20
52.794940948486328
 42
-0.34488147497177124
  0
VERTEX
  8
0
 10
814.13641357421875
 20
52.133640289306641
 42
0
  0
VERTEX
  8
0
 10
809.9095458984375
 20
53.884452819824219
 42
0.38417559862136841
  0
VERTEX
  8
0
 10
808.64752197265625
 20
53.436779022216797
 42
0.051863282918930054
  0
VERTEX
  8
0
 10
806.27227783203125
 20
47.702350616455078
 42
0.38417559862136841
  0
VERTEX
  8
0
 10
806.84808349609375
 20
46.493415832519531
 42
-0
  0
VERTEX
  8
0
 10
811.07489013671875
 20
44.742607116699219
 42
-0.34488147497177124
  0
VERTEX
  8
0
 10
812.2869873046875
 20
42.595310211181641
 42
0.07530849426984787
  0
SEQEND
  0
POLYLINE
  8
0
 10
0
 20
0
 39
0
 70
1
 66
1
  0
VERTEX
  8
0
 10
841.1505126953125
 20
53.932727813720703
 42
-1
  0
VERTEX
  8
0
 10
828.9046630859375
 20
24.368583679199219
 42
-1
  0
SEQEND
  0
POLYLINE
  8
0
 10
0
 20
0
 39
0
 70
1
 66
1
  0
VERTEX
  8
0
 10
884.8408203125
 20
653.05987548828125
 42
-0.34488147497177124
  0
VERTEX
  8
0
 10
883.6287841796875
 20
650.91253662109375
 42
0
  0
VERTEX
  8
0
 10
879.40191650390625
 20
649.1617431640625
 42
0.38417559862136841
  0
VERTEX
  8
0
 10
878.82611083984375
 20
647.95281982421875
 42
0.051863253116607666
  0
VERTEX
  8
0
 10
881.20135498046875
 20
642.2183837890625
 42
0.38417559862136841
  0
VERTEX
  8
0
 10
882.46337890625
 20
641.77069091796875
 42
-0
  0
VERTEX
  8
0
 10
886.69024658203125
 20
643.52154541015625
 42
-0.34488147497177124
  0
VERTEX
  8
0
 10
889.065673828125
 20
642.8602294921875
 42
0.075308501720428467
  0
VERTEX
  8
0
 10
893.9371337890625
 20
637.98876953125
 42
-0.34488147497177124
  0
VERTEX
  8
0
 10
894.59844970703125
 20
635.61328125
 42
0
  0
VERTEX
  8
0
 10
892.84765625
 20
631.386474609375
 42
0.38417559862136841
  0
VERTEX
  8
0
 10
893.2952880859375
 20
630.12445068359375
 42
0.051863271743059158
  0
VERTEX
  8
0
 10
899.02972412109375
 20
627.74920654296875
 42
0.38417559862136841
  0
VERTEX
  8
0
 10
900.2386474609375
 20
628.32501220703125
 42
-0
  0
VERTEX
  8
0
 10
901.989501953125
 20
632.55181884765625
 42
-0.34488147497177124
  0
VERTEX
  8
0
 10
904.13677978515625
 20
633.763916015625
 42
0.075308538973331451
  0
VERTEX
  8
0
 10
911.02606201171875
 20
633.763916015625
 42
-0.34488147497177124
  0
VERTEX
  8
0
 10
913.17340087890625
 20
632.55181884765625
 42
0
  0
VERTEX
  8
0
 10
914.9241943359375
 20
628.32501220703125
 42
0.38417559862136841
  0
VERTEX
  8
0
 10
916.13311767578125
 20
627.74920654296875
 42
0.051863282918930054
  0
VERTEX
  8
0
 10
921.8675537109375
 20
630.12445068359375
 42
0.38417559862136841
  0
VERTEX
  8
0
 10
922.31524658203125
 20
631.386474609375
 42
-0
  0
VERTEX
  8
0
 10
920.56439208984375
 20
635.61328125
 42
-0.34488144516944885
  0
VERTEX
  8
0
 10
921.2257080078125
 20
637.98870849609375
 42
0.075308538973331451
  0
VERTEX
  8
0
 10
926.09716796875
 20
642.8602294921875
 42
-0.34488144516944885
  0
VERTEX
  8
0
 10
928.47259521484375
 20
643.52154541015625
 42
0
  0
VERTEX
  8
0
 10
932.699462890625
 20
641.77069091796875
 42
0.38417559862136841
  0
VERTEX
  8
0
 10
933.96148681640625
 20
642.2183837890625
 42
0.051863282918930054
  0
VERTEX
  8
0
 10
936.33673095703125
 20
647.95281982421875
 42
0.38417559862136841
  0
VERTEX
  8
0
 10
935.76092529296875
 20
649.1617431640625
 42
-0
  0
VERTEX
  8
0
 10
931.53411865234375
 20
650.91253662109375
 42
-0.34488144516944885
  0
VERTEX
  8
0
 10
930.322021484375
 20
653.05987548828125
 42
0.075308538973331451
  0
VERTEX
  8
0
 10
930.322021484375
 20
659.94915771484375
 42
-0.34488147497177124
  0
VERTEX
  8
0
 10
931.53411865234375
 20
662.096435546875
 42
0
  0
VERTEX
  8
0
 10
935.76092529296875
 20
663.8472900390625
 42
0.38417559862136841
  0
VERTEX
  8
0
 10
936.33673095703125
 20
665.05621337890625
 42
0.051863282918930054
  0
VERTEX
  8
0
 10
933.96148681640625
 20
670.7906494140625
 42
0.38417559862136841
  0
VERTEX
  8
0
 10
932.699462890625
 20
671.23828125
 42
-0
  0
VERTEX
  8
0
 10
928.47259521484375
 20
669.48748779296875
 42
-0.34488147497177124
  0
VERTEX
  8
0
 10
926.09716796875
 20
670.1488037109375
 42
0.075308538973331451
  0
VERTEX
  8
0
 10
921.2257080078125
 20
675.020263671875
 42
-0.34488147497177124
  0
VERTEX
  8
0
 10
920.56439208984375
 20
677.39569091796875
 42
0
  0
VERTEX
  8
0
 10
922.31524658203125
 20
681.62249755859375
 42
0.38417559862136841
  0
VERTEX
  8
0
 10
921.8675537109375
 20
682.884521484375
 42
0.051863282918930054
  0
VERTEX
  8
0
 10
916.13311767578125
 20
685.25982666015625
 42
0.38417559862136841
  0
VERTEX
  8
0
 10
914.9241943359375
 20
684.68402099609375
 42
-0
  0
VERTEX
  8
0
 10
913.17340087890625
 20
680.4571533203125
 42
-0.34488147497177124
  0
VERTEX
  8
0
 10
911.02606201171875
 20
679.2451171875
 42
0.075308538973331451
  0
VERTEX
  8
0
 10
904.13677978515625
 20
679.2451171875
 42
-0.34488147497177124
  0
VERTEX
  8
0
 10
901.989501953125
 20
680.4571533203125
 42
0
  0
VERTEX
  8
0
 10
900.2386474609375
 20
684.68402099609375
 42
0.38417559862136841
  0
VERTEX
  8
0
 10
899.02972412109375
 20
685.25982666015625
 42
0.051863282918930054
  0
VERTEX
  8
0
 10
893.2952880859375
 20
682.884521484375
 42
0.38417559862136841
  0
VERTEX
  8
0
 10
892.84765625
 20
681.62255859375
 42
-0
  0
VERTEX
  8
0
 10
894.59844970703125
 20
677.39569091796875
 42
-0.34488147497177124
  0
VERTEX
  8
0
 10
893.9371337890625
 20
675.020263671875
 42
0.075308471918106079
  0
VERTEX
  8
0
 10
889.065673828125
 20
670.1488037109375
 42
-0.34488147497177124
  0
VERTEX
  8
0
 10
886.69024658203125
 20
669.48748779296875
 42
0
  0
VERTEX
  8
0
 10
882.46337890625
 20
671.23828125
 42
0.38417559862136841
  0
VERTEX
  8
0
 10
881.20135498046875
 20
670.7906494140625
 42
0.051863282918930054
  0
VERTEX
  8
0
 10
878.82611083984375
 20
665.05621337890625
 42
0.38417559862136841
  0
VERTEX
  8
0
 10
879.40191650390625
 20
663.8472900390625
 42
-0
  0
VERTEX
  8
0
 10
883.6287841796875
 20
662.096435546875
 42
-0.34488147497177124
  0
VERTEX
  8
0
 10
884.8408203125
 20
659.94915771484375
 42
0.07530849426984787
  0
SEQEND
  0
POLYLINE
  8
0
 10
0
 20
0
 39
0
 70
1
 66
1
  0
VERTEX
  8
0
 10
913.704345703125
 20
671.28656005859375
 42
-1
  0
VERTEX
  8
0
 10
901.45849609375
 20
641.722412109375
 42
-1
  0
SEQEND
  0
POLYLINE
  8
0
 10
0
 20
0
 39
0
 70
1
 66
1
  0
VERTEX
  8
0
 10
1077.579345703125
 20
35.706001281738281
 42
-0.34488147497177124
  0
VERTEX
  8
0
 10
1076.3671875
 20
33.558708190917969
 42
0
  0
VERTEX
  8
0
 10
1072.140380859375
 20
31.807897567749023
 42
0.38417559862136841
  0
VERTEX
  8
0
 10
1071.5645751953125
 20
30.598958969116211
 42
0.051863253116607666
  0
VERTEX
  8
0
 10
1073.9398193359375
 20
24.864534378051758
 42
0.38417559862136841
  0
VERTEX
  8
0
 10
1075.201904296875
 20
24.416862487792969
 42
-0
  0
VERTEX
  8
0
 10
1079.4287109375
 20
26.167671203613281
 42
-0.34488147497177124
  0
VERTEX
  8
0
 10
1081.8040771484375
 20
25.506372451782227
 42
0.075308501720428467
  0
VERTEX
  8
0
 10
1086.6756591796875
 20
20.634893417358398
 42
-0.34488147497177124
  0
VERTEX
  8
0
 10
1087.3369140625
 20
18.25946044921875
 42
0
  0
VERTEX
  8
0
 10
1085.5860595703125
 20
14.032630920410156
 42
0.38417559862136841
  0
VERTEX
  8
0
 10
1086.0338134765625
 20
12.770612716674805
 42
0.051863271743059158
  0
VERTEX
  8
0
 10
1091.7681884765625
 20
10.395336151123047
 42
0.38417559862136841
  0
VERTEX
  8
0
 10
1092.9771728515625
 20
10.971163749694824
 42
-0
  0
VERTEX
  8
0
 10
1094.7279052734375
 20
15.197994232177734
 42
-0.34488147497177124
  0
VERTEX
  8
0
 10
1096.875244140625
 20
16.410070419311523
 42
0.075308538973331451
  0
VERTEX
  8
0
 10
1103.7645263671875
 20
16.410068511962891
 42
-0.34488147497177124
  0
VERTEX
  8
0
 10
1105.911865234375
 20
15.197993278503418
 42
0
  0
VERTEX
  8
0
 10
1107.66259765625
 20
10.971162796020508
 42
0.38417559862136841
  0
VERTEX
  8
0
 10
1108.87158203125
 20
10.39533519744873
 42
0.051863282918930054
  0
VERTEX
  8
0
 10
1114.60595703125
 20
12.770612716674805
 42
0.38417559862136841
  0
VERTEX
  8
0
 10
1115.0537109375
 20
14.03262996673584
 42
-0
  0
VERTEX
  8
0
 10
1113.3028564453125
 20
18.25946044921875
 42
-0.34488144516944885
  0
VERTEX
  8
0
 10
1113.964111328125
 20
20.634891510009766
 42
0.075308538973331451
  0
VERTEX
  8
0
 10
1118.835693359375
 20
25.506372451782227
 42
-0.34488144516944885
  0
VERTEX
  8
0
 10
1121.2110595703125
 20
26.167671203613281
 42
0
  0
VERTEX
  8
0
 10
1125.4378662109375
 20
24.416860580444336
 42
0.38417559862136841
  0
VERTEX
  8
0
 10
1126.699951171875
 20
24.864534378051758
 42
0.051863282918930054
  0
VERTEX
  8
0
 10
1129.0751953125
 20
30.598960876464844
 42
0.38417559862136841
  0
VERTEX
  8
0
 10
1128.4993896484375
 20
31.807897567749023
 42
-0
  0
VERTEX
  8
0
 10
1124.2725830078125
 20
33.558708190917969
 42
-0.34488144516944885
  0
VERTEX
  8
0
 10
1123.0604248046875
 20
35.706001281738281
 42
0.075308538973331451
  0
VERTEX
  8
0
 10
1123.0604248046875
 20
42.595310211181641
 42
-0.34488147497177124
  0
VERTEX
  8
0
 10
1124.2725830078125
 20
44.742603302001953
 42
0
  0
VERTEX
  8
0
 10
1128.4993896484375
 20
46.493415832519531
 42
0.38417559862136841
  0
VERTEX
  8
0
 10
1129.0751953125
 20
47.702350616455078
 42
0.051863282918930054
  0
VERTEX
  8
0
 10
1126.699951171875
 20
53.436779022216797
 42
0.38417559862136841
  0
VERTEX
  8
0
 10
1125.4378662109375
 20
53.884449005126953
 42
-0
  0
VERTEX
  8
0
 10
1121.2110595703125
 20
52.133640289306641
 42
-0.34488147497177124
  0
VERTEX
  8
0
 10
1118.835693359375
 20
52.794940948486328
 42
0.075308538973331451
  0
VERTEX
  8
0
 10
1113.964111328125
 20
57.666419982910156
 42
-0.34488147497177124
  0
VERTEX
  8
0
 10
1113.3028564453125
 20
60.041851043701172
 42
0
  0
VERTEX
  8
0
 10
1115.0537109375
 20
64.268684387207031
 42
0.38417559862136841
  0
VERTEX
  8
0
 10
1114.60595703125
 20
65.53070068359375
 42
0.051863282918930054
  0
VERTEX
  8
0
 10
1108.87158203125
 20
67.905975341796875
 42
0.38417559862136841
  0
VERTEX
  8
0
 10
1107.66259765625
 20
67.330146789550781
 42
-0
  0
VERTEX
  8
0
 10
1105.911865234375
 20
63.103317260742187
 42
-0.34488147497177124
  0
VERTEX
  8
0
 10
1103.7645263671875
 20
61.891242980957031
 42
0.075308538973331451
  0
VERTEX
  8
0
 10
1096.875244140625
 20
61.891242980957031
 42
-0.34488147497177124
  0
VERTEX
  8
0
 10
1094.7279052734375
 20
63.103321075439453
 42
0
  0
VERTEX
  8
0
 10
1092.9771728515625
 20
67.330146789550781
 42
0.38417559862136841
  0
VERTEX
  8
0
 10
1091.7681884765625
 20
67.905975341796875
 42
0.051863282918930054
  0
VERTEX
  8
0
 10
1086.0338134765625
 20
65.53070068359375
 42
0.38417559862136841
  0
VERTEX
  8
0
 10
1085.5860595703125
 20
64.268684387207031
 42
-0
  0
VERTEX
  8
0
 10
1087.3369140625
 20
60.041851043701172
 42
-0.34488147497177124
  0
VERTEX
  8
0
 10
1086.6756591796875
 20
57.666419982910156
 42
0.075308471918106079
  0
VERTEX
  8
0
 10
1081.8040771484375
 20
52.794940948486328
 42
-0.34488147497177124
  0
VERTEX
  8
0
 10
1079.4287109375
 20
52.133640289306641
 42
0
  0
VERTEX
  8
0
 10
1075.201904296875
 20
53.884452819824219
 42
0.38417559862136841
  0
VERTEX
  8
0
 10
1073.9398193359375
 20
53.436779022216797
 42
0.051863282918930054
  0
VERTEX
  8
0
 10
1071.5645751953125
 20
47.702350616455078
 42
0.38417559862136841
  0
VERTEX
  8
0
 10
1072.140380859375
 20
46.493415832519531
 42
-0
  0
VERTEX
  8
0
 10
1076.3671875
 20
44.742607116699219
 42
-0.34488147497177124
  0
VERTEX
  8
0
 10
1077.579345703125
 20
42.595310211181641
 42
0.07530849426984787
  0
SEQEND
  0
POLYLINE
  8
0
 10
0
 20
0
 39
0
 70
1
 66
1
  0
VERTEX
  8
0
 10
1106.44287109375
 20
53.932727813720703
 42
-1
  0
VERTEX
  8
0
 10
1094.1968994140625
 20
24.368583679199219
 42
-1
  0
SEQEND
  0
POLYLINE
  8
0
 10
0
 20
0
 39
0
 70
1
 66
1
  0
VERTEX
  8
0
 10
1336.8154296875
 20
589.923095703125
 42
1
  0
VERTEX
  8
0
 10
1376.8154296875
 20
589.923095703125
 42
0
  0
VERTEX
  8
0
 10
1376.8154296875
 20
649.923095703125
 42
0
  0
VERTEX
  8
0
 10
1336.8154296875
 20
649.923095703125
 42
0
  0
SEQEND
  0
POLYLINE
  8
0
 10
0
 20
0
 39
0
 70
1
 66
1
  0
VERTEX
  8
0
 10
1348.8154296875
 20
589.923095703125
 42
-1
  0
VERTEX
  8
0
 10
1364.8154296875
 20
589.923095703125
 42
-1
  0
SEQEND
  0
POLYLINE
  8
0
 10
0
 20
0
 39
0
 70
1
 66
1
  0
VERTEX
  8
0
 10
1387.03076171875
 20
597.123046875
 42
1
  0
VERTEX
  8
0
 10
1427.03076171875
 20
597.123046875
 42
0
  0
VERTEX
  8
0
 10
1427.03076171875
 20
657.123046875
 42
0
  0
VERTEX
  8
0
 10
1387.03076171875
 20
657.123046875
 42
0
  0
SEQEND
  0
POLYLINE
  8
0
 10
0
 20
0
 39
0
 70
1
 66
1
  0
VERTEX
  8
0
 10
1399.03076171875
 20
597.123046875
 42
-1
  0
VERTEX
  8
0
 10
1415.03076171875
 20
597.123046875
 42
-1
  0
SEQEND
  0
POLYLINE
  8
0
 10
0
 20
0
 39
0
 70
1
 66
1
  0
VERTEX
  8
0
 10
79.953849792480469
 20
142.73846435546875
 42
0
  0
VERTEX
  8
0
 10
84.953849792480469
 20
137.73846435546875
 42
0
  0
VERTEX
  8
0
 10
106.95384979248047
 20
137.73846435546875
 42
0
  0
VERTEX
  8
0
 10
111.95384979248047
 20
142.73846435546875
 42
0
  0
VERTEX
  8
0
 10
111.95384979248047
 20
178.73846435546875
 42
0
  0
VERTEX
  8
0
 10
110.27166748046875
 20
178.73846435546875
 42
-0.34921517968177795
  0
VERTEX
  8
0
 10
81.636024475097656
 20
178.73846435546875
 42
0
  0
VERTEX
  8
0
 10
79.953849792480469
 20
178.73846435546875
 42
0
  0
SEQEND
  0
POLYLINE
  8
0
 10
0
 20
0
 39
0
 70
1
 66
1
  0
VERTEX
  8
0
 10
86.853843688964844
 20
154.73846435546875
 42
-1
  0
VERTEX
  8
0
 10
105.05384826660156
 20
154.73846435546875
 42
-1
  0
SEQEND
  0
POLYLINE
  8
0
 10
0
 20
0
 39
0
 70
1
 66
1
  0
VERTEX
  8
0
 10
79.953849792480469
 20
452.89230346679688
 42
0
  0
VERTEX
  8
0
 10
84.953849792480469
 20
447.89230346679687
 42
0
  0
VERTEX
  8
0
 10
106.95384979248047
 20
447.89230346679687
 42
0
  0
VERTEX
  8
0
 10
111.95384979248047
 20
452.89230346679688
 42
0
  0
VERTEX
  8
0
 10
111.95384979248047
 20
488.89230346679687
 42
0
  0
VERTEX
  8
0
 10
110.27166748046875
 20
488.89230346679687
 42
-0.34921517968177795
  0
VERTEX
  8
0
 10
81.636024475097656
 20
488.89230346679687
 42
0
  0
VERTEX
  8
0
 10
79.953849792480469
 20
488.89230346679687
 42
0
  0
SEQEND
  0
POLYLINE
  8
0
 10
0
 20
0
 39
0
 70
1
 66
1
  0
VERTEX
  8
0
 10
86.853843688964844
 20
464.89230346679687
 42
-1
  0
VERTEX
  8
0
 10
105.05384826660156
 20
464.89230346679687
 42
-1
  0
SEQEND
  0
POLYLINE
  8
0
 10
0
 20
0
 39
0
 70
1
 66
1
  0
VERTEX
  8
0
 10
275.64614868164062
 20
547.4154052734375
 42
0
  0
VERTEX
  8
0
 10
280.64614868164062
 20
542.4154052734375
 42
0
  0
VERTEX
  8
0
 10
302.64614868164062
 20
542.4154052734375
 42
0
  0
VERTEX
  8
0
 10
307.64614868164062
 20
547.4154052734375
 42
0
  0
VERTEX
  8
0
 10
307.64614868164062
 20
583.4154052734375
 42
0
  0
VERTEX
  8
0
 10
305.9639892578125
 20
583.4154052734375
 42
-0.34921517968177795
  0
VERTEX
  8
0
 10
277.32833862304688
 20
583.4154052734375
 42
0
  0
VERTEX
  8
0
 10
275.64614868164062
 20
583.4154052734375
 42
0
  0
SEQEND
  0
POLYLINE
  8
0
 10
0
 20
0
 39
0
 70
1
 66
1
  0
VERTEX
  8
0
 10
282.546142578125
 20
559.4154052734375
 42
-1
  0
VERTEX
  8
0
 10
300.74615478515625
 20
559.4154052734375
 42
-1
  0
SEQEND
  0
POLYLINE
  8
0
 10
0
 20
0
 39
0
 70
1
 66
1
  0
VERTEX
  8
0
 10
345.24615478515625
 20
142.73846435546875
 42
0
  0
VERTEX
  8
0
 10
350.24615478515625
 20
137.73846435546875
 42
0
  0
VERTEX
  8
0
 10
372.24615478515625
 20
137.73846435546875
 42
0
  0
VERTEX
  8
0
 10
377.24615478515625
 20
142.73846435546875
 42
0
  0
VERTEX
  8
0
 10
377.24615478515625
 20
178.73846435546875
 42
0
  0
VERTEX
  8
0
 10
375.56396484375
 20
178.73846435546875
 42
-0.34921517968177795
  0
VERTEX
  8
0
 10
346.9283447265625
 20
178.73846435546875
 42
0
  0
VERTEX
  8
0
 10
345.24615478515625
 20
178.73846435546875
 42
0
  0
SEQEND
  0
POLYLINE
  8
0
 10
0
 20
0
 39
0
 70
1
 66
1
  0
VERTEX
  8
0
 10
352.14614868164062
 20
154.73846435546875
 42
-1
  0
VERTEX
  8
0
 10
370.34616088867187
 20
154.73846435546875
 42
-1
  0
SEQEND
  0
POLYLINE
  8
0
 10
0
 20
0
 39
0
 70
1
 66
1
  0
VERTEX
  8
0
 10
345.24615478515625
 20
452.89230346679688
 42
0
  0
VERTEX
  8
0
 10
350.24615478515625
 20
447.89230346679687
 42
0
  0
VERTEX
  8
0
 10
372.24615478515625
 20
447.89230346679687
 42
0
  0
VERTEX
  8
0
 10
377.24615478515625
 20
452.89230346679688
 42
0
  0
VERTEX
  8
0
 10
377.24615478515625
 20
488.89230346679687
 42
0
  0
VERTEX
  8
0
 10
375.56396484375
 20
488.89230346679687
 42
-0.34921517968177795
  0
VERTEX
  8
0
 10
346.9283447265625
 20
488.89230346679687
 42
0
  0
VERTEX
  8
0
 10
345.24615478515625
 20
488.89230346679687
 42
0
  0
SEQEND
  0
POLYLINE
  8
0
 10
0
 20
0
 39
0
 70
1
 66
1
  0
VERTEX
  8
0
 10
352.14614868164062
 20
464.89230346679687
 42
-1
  0
VERTEX
  8
0
 10
370.34616088867187
 20
464.89230346679687
 42
-1
  0
SEQEND
  0
POLYLINE
  8
0
 10
0
 20
0
 39
0
 70
1
 66
1
  0
VERTEX
  8
0
 10
540.9384765625
 20
547.4154052734375
 42
0
  0
VERTEX
  8
0
 10
545.9384765625
 20
542.4154052734375
 42
0
  0
VERTEX
  8
0
 10
567.9384765625
 20
542.4154052734375
 42
0
  0
VERTEX
  8
0
 10
572.9384765625
 20
547.4154052734375
 42
0
  0
VERTEX
  8
0
 10
572.9384765625
 20
583.4154052734375
 42
0
  0
VERTEX
  8
0
 10
571.25628662109375
 20
583.4154052734375
 42
-0.34921517968177795
  0
VERTEX
  8
0
 10
542.62066650390625
 20
583.4154052734375
 42
0
  0
VERTEX
  8
0
 10
540.9384765625
 20
583.4154052734375
 42
0
  0
SEQEND
  0
POLYLINE
  8
0
 10
0
 20
0
 39
0
 70
1
 66
1
  0
VERTEX
  8
0
 10
547.83843994140625
 20
559.4154052734375
 42
-1
  0
VERTEX
  8
0
 10
566.0384521484375
 20
559.4154052734375
 42
-1
  0
SEQEND
  0
POLYLINE
  8
0
 10
0
 20
0
 39
0
 70
1
 66
1
  0
VERTEX
  8
0
 10
610.5384521484375
 20
142.73846435546875
 42
0
  0
VERTEX
  8
0
 10
615.5384521484375
 20
137.73846435546875
 42
0
  0
VERTEX
  8
0
 10
637.5384521484375
 20
137.73846435546875
 42
0
  0
VERTEX
  8
0
 10
642.5384521484375
 20
142.73846435546875
 42
0
  0
VERTEX
  8
0
 10
642.5384521484375
 20
178.73846435546875
 42
0
  0
VERTEX
  8
0
 10
640.85626220703125
 20
178.73846435546875
 42
-0.34921517968177795
  0
VERTEX
  8
0
 10
612.22064208984375
 20
178.73846435546875
 42
0
  0
VERTEX
  8
0
 10
610.5384521484375
 20
178.73846435546875
 42
0
  0
SEQEND
  0
POLYLINE
  8
0
 10
0
 20
0
 39
0
 70
1
 66
1
  0
VERTEX
  8
0
 10
617.4384765625
 20
154.73846435546875
 42
-1
  0
VERTEX
  8
0
 10
635.63848876953125
 20
154.73846435546875
 42
-1
  0
SEQEND
  0
POLYLINE
  8
0
 10
0
 20
0
 39
0
 70
1
 66
1
  0
VERTEX
  8
0
 10
610.5384521484375
 20
452.89230346679688
 42
0
  0
VERTEX
  8
0
 10
615.5384521484375
 20
447.89230346679687
 42
0
  0
VERTEX
  8
0
 10
637.5384521484375
 20
447.89230346679687
 42
0
  0
VERTEX
  8
0
 10
642.5384521484375
 20
452.89230346679688
 42
0
  0
VERTEX
  8
0
 10
642.5384521484375
 20
488.89230346679687
 42
0
  0
VERTEX
  8
0
 10
640.85626220703125
 20
488.89230346679687
 42
-0.34921517968177795
  0
VERTEX
  8
0
 10
612.22064208984375
 20
488.89230346679687
 42
0
  0
VERTEX
  8
0
 10
610.5384521484375
 20
488.89230346679687
 42
0
  0
SEQEND
  0
POLYLINE
  8
0
 10
0
 20
0
 39
0
 70
1
 66
1
  0
VERTEX
  8
0
 10
617.4384765625
 20
464.89230346679687
 42
-1
  0
VERTEX
  8
0
 10
635.63848876953125
 20
464.89230346679687
 42
-1
  0
SEQEND
  0
POLYLINE
  8
0
 10
0
 20
0
 39
0
 70
1
 66
1
  0
VERTEX
  8
0
 10
611.64617919921875
 20
618.123046875
 42
0
  0
VERTEX
  8
0
 10
616.64617919921875
 20
613.123046875
 42
0
  0
VERTEX
  8
0
 10
638.64617919921875
 20
613.123046875
 42
0
  0
VERTEX
  8
0
 10
643.64617919921875
 20
618.123046875
 42
0
  0
VERTEX
  8
0
 10
643.64617919921875
 20
654.123046875
 42
0
  0
VERTEX
  8
0
 10
641.9639892578125
 20
654.123046875
 42
-0.34921517968177795
  0
VERTEX
  8
0
 10
613.32830810546875
 20
654.12310791015625
 42
0
  0
VERTEX
  8
0
 10
611.64617919921875
 20
654.123046875
 42
0
  0
SEQEND
  0
POLYLINE
  8
0
 10
0
 20
0
 39
0
 70
1
 66
1
  0
VERTEX
  8
0
 10
618.546142578125
 20
630.123046875
 42
-1
  0
VERTEX
  8
0
 10
636.74615478515625
 20
630.123046875
 42
-1
  0
SEQEND
  0
POLYLINE
  8
0
 10
0
 20
0
 39
0
 70
1
 66
1
  0
VERTEX
  8
0
 10
806.23077392578125
 20
547.4154052734375
 42
0
  0
VERTEX
  8
0
 10
811.23077392578125
 20
542.4154052734375
 42
0
  0
VERTEX
  8
0
 10
833.23077392578125
 20
542.4154052734375
 42
0
  0
VERTEX
  8
0
 10
838.23077392578125
 20
547.4154052734375
 42
0
  0
VERTEX
  8
0
 10
838.23077392578125
 20
583.4154052734375
 42
0
  0
VERTEX
  8
0
 10
836.548583984375
 20
583.4154052734375
 42
-0.34921517968177795
  0
VERTEX
  8
0
 10
807.9129638671875
 20
583.4154052734375
 42
0
  0
VERTEX
  8
0
 10
806.23077392578125
 20
583.4154052734375
 42
0
  0
SEQEND
  0
POLYLINE
  8
0
 10
0
 20
0
 39
0
 70
1
 66
1
  0
VERTEX
  8
0
 10
813.13079833984375
 20
559.4154052734375
 42
-1
  0
VERTEX
  8
0
 10
831.33074951171875
 20
559.4154052734375
 42
-1
  0
SEQEND
  0
POLYLINE
  8
0
 10
0
 20
0
 39
0
 70
1
 66
1
  0
VERTEX
  8
0
 10
875.83074951171875
 20
142.73846435546875
 42
0
  0
VERTEX
  8
0
 10
880.83074951171875
 20
137.73846435546875
 42
0
  0
VERTEX
  8
0
 10
902.83074951171875
 20
137.73846435546875
 42
0
  0
VERTEX
  8
0
 10
907.83074951171875
 20
142.73846435546875
 42
0
  0
VERTEX
  8
0
 10
907.83074951171875
 20
178.73846435546875
 42
0
  0
VERTEX
  8
0
 10
906.14862060546875
 20
178.73846435546875
 42
-0.34921517968177795
  0
VERTEX
  8
0
 10
877.512939453125
 20
178.73846435546875
 42
0
  0
VERTEX
  8
0
 10
875.83074951171875
 20
178.73846435546875
 42
0
  0
SEQEND
  0
POLYLINE
  8
0
 10
0
 20
0
 39
0
 70
1
 66
1
  0
VERTEX
  8
0
 10
882.73077392578125
 20
154.73846435546875
 42
-1
  0
VERTEX
  8
0
 10
900.9307861328125
 20
154.73846435546875
 42
-1
  0
SEQEND
  0
POLYLINE
  8
0
 10
0
 20
0
 39
0
 70
1
 66
1
  0
VERTEX
  8
0
 10
875.83074951171875
 20
452.89230346679688
 42
0
  0
VERTEX
  8
0
 10
880.83074951171875
 20
447.89230346679687
 42
0
  0
VERTEX
  8
0
 10
902.83074951171875
 20
447.89230346679687
 42
0
  0
VERTEX
  8
0
 10
907.83074951171875
 20
452.89230346679688
 42
0
  0
VERTEX
  8
0
 10
907.83074951171875
 20
488.89230346679687
 42
0
  0
VERTEX
  8
0
 10
906.14862060546875
 20
488.89230346679687
 42
-0.34921517968177795
  0
VERTEX
  8
0
 10
877.512939453125
 20
488.89230346679687
 42
0
  0
VERTEX
  8
0
 10
875.83074951171875
 20
488.89230346679687
 42
0
  0
SEQEND
  0
POLYLINE
  8
0
 10
0
 20
0
 39
0
 70
1
 66
1
  0
VERTEX
  8
0
 10
882.73077392578125
 20
464.89230346679687
 42
-1
  0
VERTEX
  8
0
 10
900.9307861328125
 20
464.89230346679687
 42
-1
  0
SEQEND
  0
POLYLINE
  8
0
 10
0
 20
0
 39
0
 70
1
 66
1
  0
VERTEX
  8
0
 10
1108.4615478515625
 20
659.5230712890625
 42
0
  0
VERTEX
  8
0
 10
1103.4615478515625
 20
654.5230712890625
 42
0
  0
VERTEX
  8
0
 10
1103.4615478515625
 20
632.5230712890625
 42
0
  0
VERTEX
  8
0
 10
1108.4615478515625
 20
627.5230712890625
 42
0
  0
VERTEX
  8
0
 10
1144.4615478515625
 20
627.5230712890625
 42
0
  0
VERTEX
  8
0
 10
1144.4615478515625
 20
629.20526123046875
 42
-0.34921517968177795
  0
VERTEX
  8
0
 10
1144.4615478515625
 20
657.84088134765625
 42
0
  0
VERTEX
  8
0
 10
1144.4615478515625
 20
659.5230712890625
 42
0
  0
SEQEND
  0
POLYLINE
  8
0
 10
0
 20
0
 39
0
 70
1
 66
1
  0
VERTEX
  8
0
 10
1120.4615478515625
 20
652.623046875
 42
-1
  0
VERTEX
  8
0
 10
1120.4615478515625
 20
634.423095703125
 42
-1
  0
SEQEND
  0
POLYLINE
  8
0
 10
0
 20
0
 39
0
 70
1
 66
1
  0
VERTEX
  8
0
 10
1141.123046875
 20
142.73846435546875
 42
0
  0
VERTEX
  8
0
 10
1146.123046875
 20
137.73846435546875
 42
0
  0
VERTEX
  8
0
 10
1168.123046875
 20
137.73846435546875
 42
0
  0
VERTEX
  8
0
 10
1173.123046875
 20
142.73846435546875
 42
0
  0
VERTEX
  8
0
 10
1173.123046875
 20
178.73846435546875
 42
0
  0
VERTEX
  8
0
 10
1171.44091796875
 20
178.73846435546875
 42
-0.34921517968177795
  0
VERTEX
  8
0
 10
1142.8052978515625
 20
178.73846435546875
 42
0
  0
VERTEX
  8
0
 10
1141.123046875
 20
178.73846435546875
 42
0
  0
SEQEND
  0
POLYLINE
  8
0
 10
0
 20
0
 39
0
 70
1
 66
1
  0
VERTEX
  8
0
 10
1148.0230712890625
 20
154.73846435546875
 42
-1
  0
VERTEX
  8
0
 10
1166.2230224609375
 20
154.73846435546875
 42
-1
  0
SEQEND
  0
POLYLINE
  8
0
 10
0
 20
0
 39
0
 70
1
 66
1
  0
VERTEX
  8
0
 10
1141.123046875
 20
452.89230346679688
 42
0
  0
VERTEX
  8
0
 10
1146.123046875
 20
447.89230346679687
 42
0
  0
VERTEX
  8
0
 10
1168.123046875
 20
447.89230346679687
 42
0
  0
VERTEX
  8
0
 10
1173.123046875
 20
452.89230346679688
 42
0
  0
VERTEX
  8
0
 10
1173.123046875
 20
488.89230346679687
 42
0
  0
VERTEX
  8
0
 10
1171.44091796875
 20
488.89230346679687
 42
-0.34921517968177795
  0
VERTEX
  8
0
 10
1142.8052978515625
 20
488.89230346679687
 42
0
  0
VERTEX
  8
0
 10
1141.123046875
 20
488.89230346679687
 42
0
  0
SEQEND
  0
POLYLINE
  8
0
 10
0
 20
0
 39
0
 70
1
 66
1
  0
VERTEX
  8
0
 10
1148.0230712890625
 20
464.89230346679687
 42
-1
  0
VERTEX
  8
0
 10
1166.2230224609375
 20
464.89230346679687
 42
-1
  0
SEQEND
  0
POLYLINE
  8
0
 10
0
 20
0
 39
0
 70
1
 66
1
  0
VERTEX
  8
0
 10
2339.892333984375
 20
701.5538330078125
 42
0
  0
VERTEX
  8
0
 10
2334.892333984375
 20
706.5538330078125
 42
0
  0
VERTEX
  8
0
 10
2312.892333984375
 20
706.5538330078125
 42
0
  0
VERTEX
  8
0
 10
2307.892333984375
 20
701.5538330078125
 42
0
  0
VERTEX
  8
0
 10
2307.892333984375
 20
665.5538330078125
 42
0
  0
VERTEX
  8
0
 10
2309.574462890625
 20
665.5538330078125
 42
-0.34921517968177795
  0
VERTEX
  8
0
 10
2338.210205078125
 20
665.5538330078125
 42
0
  0
VERTEX
  8
0
 10
2339.892333984375
 20
665.5538330078125
 42
0
  0
SEQEND
  0
POLYLINE
  8
0
 10
0
 20
0
 39
0
 70
1
 66
1
  0
VERTEX
  8
0
 10
2332.9921875
 20
689.5538330078125
 42
-1
  0
VERTEX
  8
0
 10
2314.792236328125
 20
689.5538330078125
 42
-1
  0
SEQEND
  0
POLYLINE
  8
0
 10
0
 20
0
 39
0
 70
1
 66
1
  0
VERTEX
  8
0
 10
2350.169189453125
 20
644.15386962890625
 42
0
  0
VERTEX
  8
0
 10
2355.169189453125
 20
639.15386962890625
 42
0
  0
VERTEX
  8
0
 10
2377.169189453125
 20
639.15386962890625
 42
0
  0
VERTEX
  8
0
 10
2382.169189453125
 20
644.15386962890625
 42
0
  0
VERTEX
  8
0
 10
2382.169189453125
 20
680.15386962890625
 42
0
  0
VERTEX
  8
0
 10
2380.487060546875
 20
680.15386962890625
 42
-0.34921517968177795
  0
VERTEX
  8
0
 10
2351.851318359375
 20
680.15386962890625
 42
0
  0
VERTEX
  8
0
 10
2350.169189453125
 20
680.15386962890625
 42
0
  0
SEQEND
  0
POLYLINE
  8
0
 10
0
 20
0
 39
0
 70
1
 66
1
  0
VERTEX
  8
0
 10
2357.0693359375
 20
656.15386962890625
 42
-1
  0
VERTEX
  8
0
 10
2375.269287109375
 20
656.15386962890625
 42
-1
  0
SEQEND
  0
ENDSEC
  0
EOF
