  0
SECTION
  2
ENTITIES
  0
POLYLINE
  8
0
 10
0
 20
0
 39
0
 70
1
 66
1
  0
VERTEX
  8
0
 10
0
 20
0
 42
-0
  0
VERTEX
  8
0
 10
2000
 20
0
 42
-0
  0
VERTEX
  8
0
 10
2000
 20
1200
 42
-0
  0
VERTEX
  8
0
 10
0
 20
1200
 42
-0
  0
SEQEND
  0
POLYLINE
  8
0
 10
0
 20
0
 39
0
 70
1
 66
1
  0
VERTEX
  8
0
 10
521.1187744140625
 20
610.23077392578125
 42
-0
  0
VERTEX
  8
0
 10
521.1187744140625
 20
10.230769157409668
 42
-0
  0
VERTEX
  8
0
 10
721.1187744140625
 20
10.230769157409668
 42
-0
  0
VERTEX
  8
0
 10
721.1187744140625
 20
1010.2307739257812
 42
0
  0
VERTEX
  8
0
 10
221.1187744140625
 20
1010.2307739257812
 42
-0
  0
VERTEX
  8
0
 10
221.1187744140625
 20
610.23077392578125
 42
-0
  0
SEQEND
  0
POLYLINE
  8
0
 10
0
 20
0
 39
0
 70
1
 66
1
  0
VERTEX
  8
0
 10
286.1187744140625
 20
945.23077392578125
 42
-0
  0
VERTEX
  8
0
 10
556.1187744140625
 20
945.23077392578125
 42
-0
  0
VERTEX
  8
0
 10
556.1187744140625
 20
675.23077392578125
 42
0
  0
VERTEX
  8
0
 10
286.1187744140625
 20
675.23077392578125
 42
0
  0
SEQEND
  0
POLYLINE
  8
0
 10
0
 20
0
 39
0
 70
1
 66
1
  0
VERTEX
  8
0
 10
576.1187744140625
 20
477.73077392578125
 42
-0
  0
VERTEX
  8
0
 10
681.1187744140625
 20
477.73077392578125
 42
-0
  0
VERTEX
  8
0
 10
681.1187744140625
 20
322.73077392578125
 42
0
  0
VERTEX
  8
0
 10
576.1187744140625
 20
322.73077392578125
 42
0
  0
SEQEND
  0
POLYLINE
  8
0
 10
0
 20
0
 39
0
 70
1
 66
1
  0
VERTEX
  8
0
 10
210.23077392578125
 20
410.23077392578125
 42
-0
  0
VERTEX
  8
0
 10
210.23077392578125
 20
1010.2307739257812
 42
-0
  0
VERTEX
  8
0
 10
10.230769157409668
 20
1010.2307739257812
 42
-0
  0
VERTEX
  8
0
 10
10.230769157409668
 20
10.230769157409668
 42
0
  0
VERTEX
  8
0
 10
510.23077392578125
 20
10.230769157409668
 42
-0
  0
VERTEX
  8
0
 10
510.23077392578125
 20
410.23077392578125
 42
-0
  0
SEQEND
  0
POLYLINE
  8
0
 10
0
 20
0
 39
0
 70
1
 66
1
  0
VERTEX
  8
0
 10
445.23077392578125
 20
75.230766296386719
 42
-0
  0
VERTEX
  8
0
 10
175.23077392578125
 20
75.230766296386719
 42
-0
  0
VERTEX
  8
0
 10
175.23077392578125
 20
345.23077392578125
 42
0
  0
VERTEX
  8
0
 10
445.23077392578125
 20
345.23077392578125
 42
0
  0
SEQEND
  0
POLYLINE
  8
0
 10
0
 20
0
 39
0
 70
1
 66
1
  0
VERTEX
  8
0
 10
155.23077392578125
 20
542.73077392578125
 42
-0
  0
VERTEX
  8
0
 10
50.230770111083984
 20
542.73077392578125
 42
-0
  0
VERTEX
  8
0
 10
50.230770111083984
 20
697.73077392578125
 42
0
  0
VERTEX
  8
0
 10
155.23077392578125
 20
697.73077392578125
 42
0
  0
SEQEND
  0
POLYLINE
  8
0
 10
0
 20
0
 39
0
 70
1
 66
1
  0
VERTEX
  8
0
 10
1242.1956787109375
 20
610.23077392578125
 42
-0
  0
VERTEX
  8
0
 10
1242.1956787109375
 20
10.230769157409668
 42
-0
  0
VERTEX
  8
0
 10
1442.1956787109375
 20
10.230769157409668
 42
-0
  0
VERTEX
  8
0
 10
1442.1956787109375
 20
1010.2307739257812
 42
0
  0
VERTEX
  8
0
 10
942.1956787109375
 20
1010.2307739257812
 42
-0
  0
VERTEX
  8
0
 10
942.1956787109375
 20
610.23077392578125
 42
-0
  0
SEQEND
  0
POLYLINE
  8
0
 10
0
 20
0
 39
0
 70
1
 66
1
  0
VERTEX
  8
0
 10
1007.1956787109375
 20
945.23077392578125
 42
-0
  0
VERTEX
  8
0
 10
1277.1956787109375
 20
945.23077392578125
 42
-0
  0
VERTEX
  8
0
 10
1277.1956787109375
 20
675.23077392578125
 42
0
  0
VERTEX
  8
0
 10
1007.1956787109375
 20
675.23077392578125
 42
0
  0
SEQEND
  0
POLYLINE
  8
0
 10
0
 20
0
 39
0
 70
1
 66
1
  0
VERTEX
  8
0
 10
1297.1956787109375
 20
477.73077392578125
 42
-0
  0
VERTEX
  8
0
 10
1402.1956787109375
 20
477.73077392578125
 42
-0
  0
VERTEX
  8
0
 10
1402.1956787109375
 20
322.73077392578125
 42
0
  0
VERTEX
  8
0
 10
1297.1956787109375
 20
322.73077392578125
 42
0
  0
SEQEND
  0
POLYLINE
  8
0
 10
0
 20
0
 39
0
 70
1
 66
1
  0
VERTEX
  8
0
 10
931.30767822265625
 20
410.23077392578125
 42
-0
  0
VERTEX
  8
0
 10
931.30767822265625
 20
1010.2307739257812
 42
-0
  0
VERTEX
  8
0
 10
731.30767822265625
 20
1010.2307739257812
 42
-0
  0
VERTEX
  8
0
 10
731.30767822265625
 20
10.230769157409668
 42
0
  0
VERTEX
  8
0
 10
1231.3077392578125
 20
10.230769157409668
 42
-0
  0
VERTEX
  8
0
 10
1231.3077392578125
 20
410.23077392578125
 42
-0
  0
SEQEND
  0
POLYLINE
  8
0
 10
0
 20
0
 39
0
 70
1
 66
1
  0
VERTEX
  8
0
 10
1166.3077392578125
 20
75.230766296386719
 42
-0
  0
VERTEX
  8
0
 10
896.30767822265625
 20
75.230766296386719
 42
-0
  0
VERTEX
  8
0
 10
896.30767822265625
 20
345.23077392578125
 42
0
  0
VERTEX
  8
0
 10
1166.3077392578125
 20
345.23077392578125
 42
0
  0
SEQEND
  0
POLYLINE
  8
0
 10
0
 20
0
 39
0
 70
1
 66
1
  0
VERTEX
  8
0
 10
876.30767822265625
 20
542.73077392578125
 42
-0
  0
VERTEX
  8
0
 10
771.30767822265625
 20
542.73077392578125
 42
-0
  0
VERTEX
  8
0
 10
771.30767822265625
 20
697.73077392578125
 42
0
  0
VERTEX
  8
0
 10
876.30767822265625
 20
697.73077392578125
 42
0
  0
SEQEND
  0
POLYLINE
  8
0
 10
0
 20
0
 39
0
 70
1
 66
1
  0
VERTEX
  8
0
 10
1523.3201904296875
 20
318.10317993164062
 42
-0
  0
VERTEX
  8
0
 10
1452.3846435546875
 20
255.92881774902344
 42
0
  0
VERTEX
  8
0
 10
1452.3846435546875
 20
10.230769157409668
 42
0
  0
VERTEX
  8
0
 10
1924.3846435546875
 20
10.230769157409668
 42
0
  0
VERTEX
  8
0
 10
1924.3846435546875
 20
255.92881774902344
 42
0
  0
VERTEX
  8
0
 10
1853.4490966796875
 20
318.10317993164062
 42
0
  0
VERTEX
  8
0
 10
1924.3846435546875
 20
405.61544799804687
 42
0
  0
VERTEX
  8
0
 10
1924.3846435546875
 20
625.9755859375
 42
0
  0
VERTEX
  8
0
 10
1452.3846435546875
 20
625.9755859375
 42
0
  0
VERTEX
  8
0
 10
1452.3846435546875
 20
405.61544799804687
 42
-0
  0
SEQEND
  0
POLYLINE
  8
0
 10
0
 20
0
 39
0
 70
1
 66
1
  0
VERTEX
  8
0
 10
1487.8524169921875
 20
411.74850463867187
 42
0
  0
VERTEX
  8
0
 10
1487.8524169921875
 20
593.6593017578125
 42
0
  0
VERTEX
  8
0
 10
1888.9168701171875
 20
593.6593017578125
 42
0
  0
VERTEX
  8
0
 10
1888.9168701171875
 20
411.74850463867187
 42
-0
  0
VERTEX
  8
0
 10
1814.6761474609375
 20
318.10317993164062
 42
-0
  0
VERTEX
  8
0
 10
1888.9168701171875
 20
249.32814025878906
 42
0
  0
VERTEX
  8
0
 10
1888.9168701171875
 20
46.659317016601563
 42
0
  0
VERTEX
  8
0
 10
1487.8524169921875
 20
46.659317016601563
 42
0
  0
VERTEX
  8
0
 10
1487.8524169921875
 20
249.32814025878906
 42
0
  0
VERTEX
  8
0
 10
1562.093017578125
 20
318.10317993164062
 42
0
  0
SEQEND
  0
POLYLINE
  8
0
 10
0
 20
0
 39
0
 70
1
 66
1
  0
VERTEX
  8
0
 10
1579.236328125
 20
1189.5372314453125
 42
1
  0
VERTEX
  8
0
 10
1578.0712890625
 20
922.53973388671875
 42
1
  0
SEQEND
  0
POLYLINE
  8
0
 10
0
 20
0
 39
0
 70
1
 66
1
  0
VERTEX
  8
0
 10
1571.688232421875
 20
1164.7899169921875
 42
-0.034176722168922424
  0
VERTEX
  8
0
 10
1586.5682373046875
 20
1164.7249755859375
 42
-0
  0
VERTEX
  8
0
 10
1586.524658203125
 20
1154.72509765625
 42
-0.16008478403091431
  0
VERTEX
  8
0
 10
1643.525390625
 20
1130.8226318359375
 42
0
  0
VERTEX
  8
0
 10
1650.6273193359375
 20
1137.86279296875
 42
-0.034176722168922424
  0
VERTEX
  8
0
 10
1661.1031494140625
 20
1127.295166015625
 42
-0
  0
VERTEX
  8
0
 10
1654.0013427734375
 20
1120.2550048828125
 42
-0.16008478403091431
  0
VERTEX
  8
0
 10
1677.4053955078125
 20
1063.0477294921875
 42
0
  0
VERTEX
  8
0
 10
1687.4052734375
 20
1063.0040283203125
 42
-0.034176722168922424
  0
VERTEX
  8
0
 10
1687.34033203125
 20
1048.1240234375
 42
-0
  0
VERTEX
  8
0
 10
1677.3404541015625
 20
1048.167724609375
 42
-0.16008478403091431
  0
VERTEX
  8
0
 10
1653.43798828125
 20
991.1668701171875
 42
0
  0
VERTEX
  8
0
 10
1660.4781494140625
 20
984.06500244140625
 42
-0.034176722168922424
  0
VERTEX
  8
0
 10
1649.9105224609375
 20
973.58917236328125
 42
-0
  0
VERTEX
  8
0
 10
1642.870361328125
 20
980.6910400390625
 42
-0.16008478403091431
  0
VERTEX
  8
0
 10
1585.6630859375
 20
957.28692626953125
 42
0
  0
VERTEX
  8
0
 10
1585.6195068359375
 20
947.2869873046875
 42
-0.034176722168922424
  0
VERTEX
  8
0
 10
1570.739501953125
 20
947.3519287109375
 42
-0
  0
VERTEX
  8
0
 10
1570.7830810546875
 20
957.351806640625
 42
-0.16008478403091431
  0
VERTEX
  8
0
 10
1513.7822265625
 20
981.2542724609375
 42
0
  0
VERTEX
  8
0
 10
1506.680419921875
 20
974.214111328125
 42
-0.034176722168922424
  0
VERTEX
  8
0
 10
1496.20458984375
 20
984.78179931640625
 42
-0
  0
VERTEX
  8
0
 10
1503.306396484375
 20
991.82196044921875
 42
-0.16008478403091431
  0
VERTEX
  8
0
 10
1479.90234375
 20
1049.0291748046875
 42
0
  0
VERTEX
  8
0
 10
1469.90234375
 20
1049.0728759765625
 42
-0.034176722168922424
  0
VERTEX
  8
0
 10
1469.96728515625
 20
1063.952880859375
 42
-0
  0
VERTEX
  8
0
 10
1479.9671630859375
 20
1063.9091796875
 42
-0.16008478403091431
  0
VERTEX
  8
0
 10
1503.86962890625
 20
1120.9100341796875
 42
0
  0
VERTEX
  8
0
 10
1496.8294677734375
 20
1128.011962890625
 42
-0.034176722168922424
  0
VERTEX
  8
0
 10
1507.397216796875
 20
1138.48779296875
 42
-0
  0
VERTEX
  8
0
 10
1514.4373779296875
 20
1131.3858642578125
 42
-0.16008478403091431
  0
VERTEX
  8
0
 10
1571.64453125
 20
1154.7900390625
 42
0
  0
SEQEND
  0
POLYLINE
  8
0
 10
0
 20
0
 39
0
 70
1
 66
1
  0
VERTEX
  8
0
 10
1586.4671630859375
 20
903.07562255859375
 42
1
  0
VERTEX
  8
0
 10
1585.3021240234375
 20
636.07818603515625
 42
1
  0
SEQEND
  0
POLYLINE
  8
0
 10
0
 20
0
 39
0
 70
1
 66
1
  0
VERTEX
  8
0
 10
1578.9189453125
 20
878.328369140625
 42
-0.034176722168922424
  0
VERTEX
  8
0
 10
1593.7989501953125
 20
878.263427734375
 42
-0
  0
VERTEX
  8
0
 10
1593.75537109375
 20
868.2635498046875
 42
-0.16008478403091431
  0
VERTEX
  8
0
 10
1650.7562255859375
 20
844.361083984375
 42
0
  0
VERTEX
  8
0
 10
1657.8580322265625
 20
851.4012451171875
 42
-0.034176722168922424
  0
VERTEX
  8
0
 10
1668.3338623046875
 20
840.8336181640625
 42
-0
  0
VERTEX
  8
0
 10
1661.2320556640625
 20
833.79345703125
 42
-0.16008478403091431
  0
VERTEX
  8
0
 10
1684.6361083984375
 20
776.586181640625
 42
0
  0
VERTEX
  8
0
 10
1694.6361083984375
 20
776.54254150390625
 42
-0.034176722168922424
  0
VERTEX
  8
0
 10
1694.5711669921875
 20
761.66253662109375
 42
-0
  0
VERTEX
  8
0
 10
1684.5712890625
 20
761.7061767578125
 42
-0.16008478403091431
  0
VERTEX
  8
0
 10
1660.6688232421875
 20
704.705322265625
 42
0
  0
VERTEX
  8
0
 10
1667.708984375
 20
697.60345458984375
 42
-0.034176722168922424
  0
VERTEX
  8
0
 10
1657.1412353515625
 20
687.12762451171875
 42
-0
  0
VERTEX
  8
0
 10
1650.1011962890625
 20
694.2294921875
 42
-0.16008478403091431
  0
VERTEX
  8
0
 10
1592.8939208984375
 20
670.82537841796875
 42
0
  0
VERTEX
  8
0
 10
1592.8502197265625
 20
660.825439453125
 42
-0.034176722168922424
  0
VERTEX
  8
0
 10
1577.97021484375
 20
660.890380859375
 42
-0
  0
VERTEX
  8
0
 10
1578.013916015625
 20
670.89031982421875
 42
-0.16008478403091431
  0
VERTEX
  8
0
 10
1521.0130615234375
 20
694.792724609375
 42
0
  0
VERTEX
  8
0
 10
1513.9111328125
 20
687.7525634765625
 42
-0.034176722168922424
  0
VERTEX
  8
0
 10
1503.435302734375
 20
698.32025146484375
 42
-0
  0
VERTEX
  8
0
 10
1510.537109375
 20
705.36041259765625
 42
-0.16008478403091431
  0
VERTEX
  8
0
 10
1487.133056640625
 20
762.56768798828125
 42
0
  0
VERTEX
  8
0
 10
1477.1331787109375
 20
762.61126708984375
 42
-0.034176722168922424
  0
VERTEX
  8
0
 10
1477.1981201171875
 20
777.4913330078125
 42
-0
  0
VERTEX
  8
0
 10
1487.197998046875
 20
777.44769287109375
 42
-0.16008478403091431
  0
VERTEX
  8
0
 10
1511.1004638671875
 20
834.44854736328125
 42
0
  0
VERTEX
  8
0
 10
1504.060302734375
 20
841.55035400390625
 42
-0.034176722168922424
  0
VERTEX
  8
0
 10
1514.6279296875
 20
852.0262451171875
 42
-0
  0
VERTEX
  8
0
 10
1521.6680908203125
 20
844.92437744140625
 42
-0.16008478403091431
  0
VERTEX
  8
0
 10
1578.8753662109375
 20
868.3284912109375
 42
0
  0
SEQEND
  0
POLYLINE
  8
0
 10
0
 20
0
 39
0
 70
1
 66
1
  0
VERTEX
  8
0
 10
1636.4671630859375
 20
323.84487915039062
 42
1
  0
VERTEX
  8
0
 10
1635.3021240234375
 20
56.847423553466797
 42
1
  0
SEQEND
  0
POLYLINE
  8
0
 10
0
 20
0
 39
0
 70
1
 66
1
  0
VERTEX
  8
0
 10
1628.9189453125
 20
299.09759521484375
 42
-0.034176722168922424
  0
VERTEX
  8
0
 10
1643.7989501953125
 20
299.03268432617187
 42
-0
  0
VERTEX
  8
0
 10
1643.75537109375
 20
289.03277587890625
 42
-0.16008478403091431
  0
VERTEX
  8
0
 10
1700.7562255859375
 20
265.13034057617187
 42
0
  0
VERTEX
  8
0
 10
1707.8580322265625
 20
272.17050170898437
 42
-0.034176722168922424
  0
VERTEX
  8
0
 10
1718.3338623046875
 20
261.60281372070312
 42
-0
  0
VERTEX
  8
0
 10
1711.2320556640625
 20
254.56266784667969
 42
-0.16008478403091431
  0
VERTEX
  8
0
 10
1734.6361083984375
 20
197.35540771484375
 42
0
  0
VERTEX
  8
0
 10
1744.6361083984375
 20
197.31178283691406
 42
-0.034176722168922424
  0
VERTEX
  8
0
 10
1744.5711669921875
 20
182.4317626953125
 42
-0
  0
VERTEX
  8
0
 10
1734.5712890625
 20
182.47540283203125
 42
-0.16008478403091431
  0
VERTEX
  8
0
 10
1710.6688232421875
 20
125.47454833984375
 42
0
  0
VERTEX
  8
0
 10
1717.708984375
 20
118.37269592285156
 42
-0.034176722168922424
  0
VERTEX
  8
0
 10
1707.1412353515625
 20
107.8968505859375
 42
-0
  0
VERTEX
  8
0
 10
1700.1011962890625
 20
114.99870300292969
 42
-0.16008478403091431
  0
VERTEX
  8
0
 10
1642.8939208984375
 20
91.594596862792969
 42
0
  0
VERTEX
  8
0
 10
1642.8502197265625
 20
81.594696044921875
 42
-0.034176722168922424
  0
VERTEX
  8
0
 10
1627.97021484375
 20
81.659622192382812
 42
-0
  0
VERTEX
  8
0
 10
1628.013916015625
 20
91.659523010253906
 42
-0.16008478403091431
  0
VERTEX
  8
0
 10
1571.0130615234375
 20
115.56195831298828
 42
0
  0
VERTEX
  8
0
 10
1563.9111328125
 20
108.52181243896484
 42
-0.034176722168922424
  0
VERTEX
  8
0
 10
1553.435302734375
 20
119.0894775390625
 42
-0
  0
VERTEX
  8
0
 10
1560.537109375
 20
126.12963104248047
 42
-0.16008478403091431
  0
VERTEX
  8
0
 10
1537.133056640625
 20
183.33688354492187
 42
0
  0
VERTEX
  8
0
 10
1527.1331787109375
 20
183.38052368164062
 42
-0.034176722168922424
  0
VERTEX
  8
0
 10
1527.1981201171875
 20
198.26054382324219
 42
-0
  0
VERTEX
  8
0
 10
1537.197998046875
 20
198.21690368652344
 42
-0.16008478403091431
  0
VERTEX
  8
0
 10
1561.1004638671875
 20
255.21775817871094
 42
0
  0
VERTEX
  8
0
 10
1554.060302734375
 20
262.31961059570312
 42
-0.034176722168922424
  0
VERTEX
  8
0
 10
1564.6279296875
 20
272.79544067382812
 42
-0
  0
VERTEX
  8
0
 10
1571.6680908203125
 20
265.693603515625
 42
-0.16008478403091431
  0
VERTEX
  8
0
 10
1628.8753662109375
 20
289.09771728515625
 42
0
  0
SEQEND
  0
POLYLINE
  8
0
 10
0
 20
0
 39
0
 70
1
 66
1
  0
VERTEX
  8
0
 10
1734.6209716796875
 20
583.38336181640625
 42
1
  0
VERTEX
  8
0
 10
1733.4559326171875
 20
316.38589477539062
 42
1
  0
SEQEND
  0
POLYLINE
  8
0
 10
0
 20
0
 39
0
 70
1
 66
1
  0
VERTEX
  8
0
 10
1727.0728759765625
 20
558.63604736328125
 42
-0.034176722168922424
  0
VERTEX
  8
0
 10
1741.952880859375
 20
558.5711669921875
 42
-0
  0
VERTEX
  8
0
 10
1741.9091796875
 20
548.57122802734375
 42
-0.16008478403091431
  0
VERTEX
  8
0
 10
1798.9100341796875
 20
524.6688232421875
 42
0
  0
VERTEX
  8
0
 10
1806.011962890625
 20
531.70892333984375
 42
-0.034176722168922424
  0
VERTEX
  8
0
 10
1816.48779296875
 20
521.14129638671875
 42
-0
  0
VERTEX
  8
0
 10
1809.3858642578125
 20
514.10113525390625
 42
-0.16008478403091431
  0
VERTEX
  8
0
 10
1832.7900390625
 20
456.89389038085937
 42
0
  0
VERTEX
  8
0
 10
1842.7899169921875
 20
456.85025024414062
 42
-0.034176722168922424
  0
VERTEX
  8
0
 10
1842.7249755859375
 20
441.97021484375
 42
-0
  0
VERTEX
  8
0
 10
1832.72509765625
 20
442.01385498046875
 42
-0.16008478403091431
  0
VERTEX
  8
0
 10
1808.8226318359375
 20
385.01300048828125
 42
0
  0
VERTEX
  8
0
 10
1815.86279296875
 20
377.91116333007812
 42
-0.034176722168922424
  0
VERTEX
  8
0
 10
1805.295166015625
 20
367.435302734375
 42
-0
  0
VERTEX
  8
0
 10
1798.2550048828125
 20
374.53717041015625
 42
-0.16008478403091431
  0
VERTEX
  8
0
 10
1741.0477294921875
 20
351.133056640625
 42
0
  0
VERTEX
  8
0
 10
1741.0040283203125
 20
341.13314819335937
 42
-0.034176722168922424
  0
VERTEX
  8
0
 10
1726.1240234375
 20
341.19808959960937
 42
-0
  0
VERTEX
  8
0
 10
1726.167724609375
 20
351.197998046875
 42
-0.16008478403091431
  0
VERTEX
  8
0
 10
1669.1668701171875
 20
375.10043334960937
 42
0
  0
VERTEX
  8
0
 10
1662.0650634765625
 20
368.06027221679687
 42
-0.034176722168922424
  0
VERTEX
  8
0
 10
1651.589111328125
 20
378.6279296875
 42
-0
  0
VERTEX
  8
0
 10
1658.6910400390625
 20
385.6680908203125
 42
-0.16008478403091431
  0
VERTEX
  8
0
 10
1635.286865234375
 20
442.87533569335937
 42
0
  0
VERTEX
  8
0
 10
1625.2869873046875
 20
442.91897583007812
 42
-0.034176722168922424
  0
VERTEX
  8
0
 10
1625.3519287109375
 20
457.79901123046875
 42
-0
  0
VERTEX
  8
0
 10
1635.351806640625
 20
457.75537109375
 42
-0.16008478403091431
  0
VERTEX
  8
0
 10
1659.2542724609375
 20
514.7562255859375
 42
0
  0
VERTEX
  8
0
 10
1652.214111328125
 20
521.85809326171875
 42
-0.034176722168922424
  0
VERTEX
  8
0
 10
1662.78173828125
 20
532.33392333984375
 42
-0
  0
VERTEX
  8
0
 10
1669.8218994140625
 20
525.2320556640625
 42
-0.16008478403091431
  0
VERTEX
  8
0
 10
1727.0291748046875
 20
548.63616943359375
 42
0
  0
SEQEND
  0
POLYLINE
  8
0
 10
0
 20
0
 39
0
 70
1
 66
1
  0
VERTEX
  8
0
 10
1820.4671630859375
 20
1052.152587890625
 42
1
  0
VERTEX
  8
0
 10
1819.3021240234375
 20
785.15509033203125
 42
1
  0
SEQEND
  0
POLYLINE
  8
0
 10
0
 20
0
 39
0
 70
1
 66
1
  0
VERTEX
  8
0
 10
1812.9189453125
 20
1027.4052734375
 42
-0.034176722168922424
  0
VERTEX
  8
0
 10
1827.7989501953125
 20
1027.34033203125
 42
-0
  0
VERTEX
  8
0
 10
1827.75537109375
 20
1017.3404541015625
 42
-0.16008478403091431
  0
VERTEX
  8
0
 10
1884.7562255859375
 20
993.43804931640625
 42
0
  0
VERTEX
  8
0
 10
1891.8580322265625
 20
1000.4782104492187
 42
-0.034176722168922424
  0
VERTEX
  8
0
 10
1902.3338623046875
 20
989.9105224609375
 42
-0
  0
VERTEX
  8
0
 10
1895.2320556640625
 20
982.870361328125
 42
-0.16008478403091431
  0
VERTEX
  8
0
 10
1918.6361083984375
 20
925.6630859375
 42
0
  0
VERTEX
  8
0
 10
1928.6361083984375
 20
925.61944580078125
 42
-0.034176722168922424
  0
VERTEX
  8
0
 10
1928.5711669921875
 20
910.73944091796875
 42
-0
  0
VERTEX
  8
0
 10
1918.5712890625
 20
910.7830810546875
 42
-0.16008478403091431
  0
VERTEX
  8
0
 10
1894.6688232421875
 20
853.7822265625
 42
0
  0
VERTEX
  8
0
 10
1901.708984375
 20
846.680419921875
 42
-0.034176722168922424
  0
VERTEX
  8
0
 10
1891.1412353515625
 20
836.20452880859375
 42
-0
  0
VERTEX
  8
0
 10
1884.1011962890625
 20
843.306396484375
 42
-0.16008478403091431
  0
VERTEX
  8
0
 10
1826.8939208984375
 20
819.90228271484375
 42
0
  0
VERTEX
  8
0
 10
1826.8502197265625
 20
809.90240478515625
 42
-0.034176722168922424
  0
VERTEX
  8
0
 10
1811.97021484375
 20
809.96728515625
 42
-0
  0
VERTEX
  8
0
 10
1812.013916015625
 20
819.96722412109375
 42
-0.16008478403091431
  0
VERTEX
  8
0
 10
1755.0130615234375
 20
843.86962890625
 42
0
  0
VERTEX
  8
0
 10
1747.9111328125
 20
836.82952880859375
 42
-0.034176722168922424
  0
VERTEX
  8
0
 10
1737.435302734375
 20
847.39715576171875
 42
-0
  0
VERTEX
  8
0
 10
1744.537109375
 20
854.43731689453125
 42
-0.16008478403091431
  0
VERTEX
  8
0
 10
1721.133056640625
 20
911.64459228515625
 42
0
  0
VERTEX
  8
0
 10
1711.1331787109375
 20
911.688232421875
 42
-0.034176722168922424
  0
VERTEX
  8
0
 10
1711.1981201171875
 20
926.5682373046875
 42
-0
  0
VERTEX
  8
0
 10
1721.197998046875
 20
926.52459716796875
 42
-0.16008478403091431
  0
VERTEX
  8
0
 10
1745.1004638671875
 20
983.52545166015625
 42
0
  0
VERTEX
  8
0
 10
1738.060302734375
 20
990.6273193359375
 42
-0.034176722168922424
  0
VERTEX
  8
0
 10
1748.6279296875
 20
1001.1031494140625
 42
-0
  0
VERTEX
  8
0
 10
1755.6680908203125
 20
994.00128173828125
 42
-0.16008478403091431
  0
VERTEX
  8
0
 10
1812.8753662109375
 20
1017.4053955078125
 42
0
  0
SEQEND
  0
POLYLINE
  8
0
 10
0
 20
0
 39
0
 70
1
 66
1
  0
VERTEX
  8
0
 10
185.46153259277344
 20
221.46153259277344
 42
-0
  0
VERTEX
  8
0
 10
191.46153259277344
 20
215.46153259277344
 42
0
  0
VERTEX
  8
0
 10
204.46153259277344
 20
215.46153259277344
 42
-0
  0
VERTEX
  8
0
 10
210.46153259277344
 20
209.46153259277344
 42
0
  0
VERTEX
  8
0
 10
210.46153259277344
 20
151.46153259277344
 42
-0
  0
VERTEX
  8
0
 10
204.46153259277344
 20
145.46153259277344
 42
-0
  0
VERTEX
  8
0
 10
191.46153259277344
 20
145.46153259277344
 42
-0
  0
VERTEX
  8
0
 10
185.46153259277344
 20
139.46153259277344
 42
0
  0
VERTEX
  8
0
 10
185.46153259277344
 20
91.461540222167969
 42
-0
  0
VERTEX
  8
0
 10
191.46153259277344
 20
85.461540222167969
 42
0
  0
VERTEX
  8
0
 10
379.4615478515625
 20
85.461540222167969
 42
-0
  0
VERTEX
  8
0
 10
385.4615478515625
 20
91.461540222167969
 42
0
  0
VERTEX
  8
0
 10
385.4615478515625
 20
139.46153259277344
 42
0
  0
VERTEX
  8
0
 10
379.4615478515625
 20
145.46153259277344
 42
-0
  0
VERTEX
  8
0
 10
366.4615478515625
 20
145.46153259277344
 42
0
  0
VERTEX
  8
0
 10
360.4615478515625
 20
151.46153259277344
 42
0
  0
VERTEX
  8
0
 10
360.4615478515625
 20
209.46153259277344
 42
-0
  0
VERTEX
  8
0
 10
366.4615478515625
 20
215.46153259277344
 42
0
  0
VERTEX
  8
0
 10
379.4615478515625
 20
215.46153259277344
 42
-0
  0
VERTEX
  8
0
 10
385.4615478515625
 20
221.46153259277344
 42
0
  0
VERTEX
  8
0
 10
385.4615478515625
 20
299.4615478515625
 42
-0
  0
VERTEX
  8
0
 10
379.4615478515625
 20
305.4615478515625
 42
0
  0
VERTEX
  8
0
 10
331.4615478515625
 20
305.4615478515625
 42
0
  0
VERTEX
  8
0
 10
325.4615478515625
 20
299.4615478515625
 42
0
  0
VERTEX
  8
0
 10
325.4615478515625
 20
276.4615478515625
 42
-0
  0
VERTEX
  8
0
 10
319.4615478515625
 20
270.4615478515625
 42
0
  0
VERTEX
  8
0
 10
251.46153259277344
 20
270.4615478515625
 42
0
  0
VERTEX
  8
0
 10
245.46153259277344
 20
276.4615478515625
 42
-0
  0
VERTEX
  8
0
 10
245.46153259277344
 20
299.4615478515625
 42
-0
  0
VERTEX
  8
0
 10
239.46153259277344
 20
305.4615478515625
 42
0
  0
VERTEX
  8
0
 10
191.46153259277344
 20
305.4615478515625
 42
-0
  0
VERTEX
  8
0
 10
185.46153259277344
 20
299.4615478515625
 42
0
  0
SEQEND
  0
POLYLINE
  8
0
 10
0
 20
0
 39
0
 70
1
 66
1
  0
VERTEX
  8
0
 10
311.4615478515625
 20
141.66154479980469
 42
-0.41421356797218323
  0
VERTEX
  8
0
 10
310.26153564453125
 20
140.46153259277344
 42
-0
  0
VERTEX
  8
0
 10
260.66152954101562
 20
140.46153259277344
 42
-0.41421356797218323
  0
VERTEX
  8
0
 10
259.4615478515625
 20
141.66154479980469
 42
-0
  0
VERTEX
  8
0
 10
259.4615478515625
 20
209.2510986328125
 42
-0.33088359236717224
  0
VERTEX
  8
0
 10
267.2884521484375
 20
219.78349304199219
 42
-0.1473628431558609
  0
VERTEX
  8
0
 10
303.63461303710937
 20
219.78349304199219
 42
-0.33088359236717224
  0
VERTEX
  8
0
 10
311.4615478515625
 20
209.2510986328125
 42
0
  0
SEQEND
  0
POLYLINE
  8
0
 10
0
 20
0
 39
0
 70
1
 66
1
  0
VERTEX
  8
0
 10
296.38461303710938
 20
821.4615478515625
 42
-0
  0
VERTEX
  8
0
 10
302.38461303710937
 20
815.4615478515625
 42
0
  0
VERTEX
  8
0
 10
315.38461303710937
 20
815.4615478515625
 42
-0
  0
VERTEX
  8
0
 10
321.38461303710937
 20
809.4615478515625
 42
0
  0
VERTEX
  8
0
 10
321.38461303710937
 20
751.4615478515625
 42
-0
  0
VERTEX
  8
0
 10
315.38461303710937
 20
745.4615478515625
 42
-0
  0
VERTEX
  8
0
 10
302.38461303710937
 20
745.4615478515625
 42
-0
  0
VERTEX
  8
0
 10
296.38461303710938
 20
739.4615478515625
 42
0
  0
VERTEX
  8
0
 10
296.38461303710938
 20
691.4615478515625
 42
-0
  0
VERTEX
  8
0
 10
302.38461303710937
 20
685.4615478515625
 42
0
  0
VERTEX
  8
0
 10
490.38461303710937
 20
685.4615478515625
 42
-0
  0
VERTEX
  8
0
 10
496.38461303710937
 20
691.4615478515625
 42
0
  0
VERTEX
  8
0
 10
496.38461303710937
 20
739.4615478515625
 42
0
  0
VERTEX
  8
0
 10
490.38461303710937
 20
745.4615478515625
 42
-0
  0
VERTEX
  8
0
 10
477.38461303710937
 20
745.4615478515625
 42
0
  0
VERTEX
  8
0
 10
471.38461303710937
 20
751.4615478515625
 42
0
  0
VERTEX
  8
0
 10
471.38461303710937
 20
809.4615478515625
 42
-0
  0
VERTEX
  8
0
 10
477.38461303710937
 20
815.4615478515625
 42
0
  0
VERTEX
  8
0
 10
490.38461303710937
 20
815.4615478515625
 42
-0
  0
VERTEX
  8
0
 10
496.38461303710937
 20
821.4615478515625
 42
0
  0
VERTEX
  8
0
 10
496.38461303710937
 20
899.4615478515625
 42
-0
  0
VERTEX
  8
0
 10
490.38461303710937
 20
905.4615478515625
 42
0
  0
VERTEX
  8
0
 10
442.38461303710937
 20
905.4615478515625
 42
0
  0
VERTEX
  8
0
 10
436.38461303710937
 20
899.4615478515625
 42
0
  0
VERTEX
  8
0
 10
436.38461303710937
 20
876.4615478515625
 42
-0
  0
VERTEX
  8
0
 10
430.38461303710937
 20
870.4615478515625
 42
0
  0
VERTEX
  8
0
 10
362.38461303710937
 20
870.4615478515625
 42
0
  0
VERTEX
  8
0
 10
356.38461303710937
 20
876.4615478515625
 42
-0
  0
VERTEX
  8
0
 10
356.38461303710937
 20
899.4615478515625
 42
-0
  0
VERTEX
  8
0
 10
350.38461303710938
 20
905.4615478515625
 42
0
  0
VERTEX
  8
0
 10
302.38461303710937
 20
905.4615478515625
 42
-0
  0
VERTEX
  8
0
 10
296.38461303710938
 20
899.4615478515625
 42
0
  0
SEQEND
  0
POLYLINE
  8
0
 10
0
 20
0
 39
0
 70
1
 66
1
  0
VERTEX
  8
0
 10
422.38461303710937
 20
741.66156005859375
 42
-0.41421356797218323
  0
VERTEX
  8
0
 10
421.18463134765625
 20
740.4615478515625
 42
-0
  0
VERTEX
  8
0
 10
371.58462524414062
 20
740.4615478515625
 42
-0.41421356797218323
  0
VERTEX
  8
0
 10
370.38461303710937
 20
741.66156005859375
 42
-0
  0
VERTEX
  8
0
 10
370.38461303710937
 20
809.2510986328125
 42
-0.33088359236717224
  0
VERTEX
  8
0
 10
378.2115478515625
 20
819.78350830078125
 42
-0.1473628431558609
  0
VERTEX
  8
0
 10
414.55770874023437
 20
819.78350830078125
 42
-0.33088359236717224
  0
VERTEX
  8
0
 10
422.38461303710937
 20
809.2510986328125
 42
0
  0
SEQEND
  0
POLYLINE
  8
0
 10
0
 20
0
 39
0
 70
1
 66
1
  0
VERTEX
  8
0
 10
906.5384521484375
 20
221.46153259277344
 42
-0
  0
VERTEX
  8
0
 10
912.5384521484375
 20
215.46153259277344
 42
0
  0
VERTEX
  8
0
 10
925.5384521484375
 20
215.46153259277344
 42
-0
  0
VERTEX
  8
0
 10
931.5384521484375
 20
209.46153259277344
 42
0
  0
VERTEX
  8
0
 10
931.5384521484375
 20
151.46153259277344
 42
-0
  0
VERTEX
  8
0
 10
925.5384521484375
 20
145.46153259277344
 42
-0
  0
VERTEX
  8
0
 10
912.5384521484375
 20
145.46153259277344
 42
-0
  0
VERTEX
  8
0
 10
906.5384521484375
 20
139.46153259277344
 42
0
  0
VERTEX
  8
0
 10
906.5384521484375
 20
91.461540222167969
 42
-0
  0
VERTEX
  8
0
 10
912.5384521484375
 20
85.461540222167969
 42
0
  0
VERTEX
  8
0
 10
1100.5384521484375
 20
85.461540222167969
 42
-0
  0
VERTEX
  8
0
 10
1106.5384521484375
 20
91.461540222167969
 42
0
  0
VERTEX
  8
0
 10
1106.5384521484375
 20
139.46153259277344
 42
0
  0
VERTEX
  8
0
 10
1100.5384521484375
 20
145.46153259277344
 42
-0
  0
VERTEX
  8
0
 10
1087.5384521484375
 20
145.46153259277344
 42
0
  0
VERTEX
  8
0
 10
1081.5384521484375
 20
151.46153259277344
 42
0
  0
VERTEX
  8
0
 10
1081.5384521484375
 20
209.46153259277344
 42
-0
  0
VERTEX
  8
0
 10
1087.5384521484375
 20
215.46153259277344
 42
0
  0
VERTEX
  8
0
 10
1100.5384521484375
 20
215.46153259277344
 42
-0
  0
VERTEX
  8
0
 10
1106.5384521484375
 20
221.46153259277344
 42
0
  0
VERTEX
  8
0
 10
1106.5384521484375
 20
299.4615478515625
 42
-0
  0
VERTEX
  8
0
 10
1100.5384521484375
 20
305.4615478515625
 42
0
  0
VERTEX
  8
0
 10
1052.5384521484375
 20
305.4615478515625
 42
0
  0
VERTEX
  8
0
 10
1046.5384521484375
 20
299.4615478515625
 42
0
  0
VERTEX
  8
0
 10
1046.5384521484375
 20
276.4615478515625
 42
-0
  0
VERTEX
  8
0
 10
1040.5384521484375
 20
270.4615478515625
 42
0
  0
VERTEX
  8
0
 10
972.5384521484375
 20
270.4615478515625
 42
0
  0
VERTEX
  8
0
 10
966.5384521484375
 20
276.4615478515625
 42
-0
  0
VERTEX
  8
0
 10
966.5384521484375
 20
299.4615478515625
 42
-0
  0
VERTEX
  8
0
 10
960.5384521484375
 20
305.4615478515625
 42
0
  0
VERTEX
  8
0
 10
912.5384521484375
 20
305.4615478515625
 42
-0
  0
VERTEX
  8
0
 10
906.5384521484375
 20
299.4615478515625
 42
0
  0
SEQEND
  0
POLYLINE
  8
0
 10
0
 20
0
 39
0
 70
1
 66
1
  0
VERTEX
  8
0
 10
1032.5384521484375
 20
141.66154479980469
 42
-0.41421356797218323
  0
VERTEX
  8
0
 10
1031.3385009765625
 20
140.46153259277344
 42
-0
  0
VERTEX
  8
0
 10
981.73846435546875
 20
140.46153259277344
 42
-0.41421356797218323
  0
VERTEX
  8
0
 10
980.5384521484375
 20
141.66154479980469
 42
-0
  0
VERTEX
  8
0
 10
980.5384521484375
 20
209.2510986328125
 42
-0.33088359236717224
  0
VERTEX
  8
0
 10
988.36541748046875
 20
219.78349304199219
 42
-0.1473628431558609
  0
VERTEX
  8
0
 10
1024.7115478515625
 20
219.78349304199219
 42
-0.33088359236717224
  0
VERTEX
  8
0
 10
1032.5384521484375
 20
209.2510986328125
 42
0
  0
SEQEND
  0
POLYLINE
  8
0
 10
0
 20
0
 39
0
 70
1
 66
1
  0
VERTEX
  8
0
 10
1017.4615478515625
 20
821.4615478515625
 42
-0
  0
VERTEX
  8
0
 10
1023.4615478515625
 20
815.4615478515625
 42
0
  0
VERTEX
  8
0
 10
1036.4615478515625
 20
815.4615478515625
 42
-0
  0
VERTEX
  8
0
 10
1042.4615478515625
 20
809.4615478515625
 42
0
  0
VERTEX
  8
0
 10
1042.4615478515625
 20
751.4615478515625
 42
-0
  0
VERTEX
  8
0
 10
1036.4615478515625
 20
745.4615478515625
 42
-0
  0
VERTEX
  8
0
 10
1023.4615478515625
 20
745.4615478515625
 42
-0
  0
VERTEX
  8
0
 10
1017.4615478515625
 20
739.4615478515625
 42
0
  0
VERTEX
  8
0
 10
1017.4615478515625
 20
691.4615478515625
 42
-0
  0
VERTEX
  8
0
 10
1023.4615478515625
 20
685.4615478515625
 42
0
  0
VERTEX
  8
0
 10
1211.4615478515625
 20
685.4615478515625
 42
-0
  0
VERTEX
  8
0
 10
1217.4615478515625
 20
691.4615478515625
 42
0
  0
VERTEX
  8
0
 10
1217.4615478515625
 20
739.4615478515625
 42
0
  0
VERTEX
  8
0
 10
1211.4615478515625
 20
745.4615478515625
 42
-0
  0
VERTEX
  8
0
 10
1198.4615478515625
 20
745.4615478515625
 42
0
  0
VERTEX
  8
0
 10
1192.4615478515625
 20
751.4615478515625
 42
0
  0
VERTEX
  8
0
 10
1192.4615478515625
 20
809.4615478515625
 42
-0
  0
VERTEX
  8
0
 10
1198.4615478515625
 20
815.4615478515625
 42
0
  0
VERTEX
  8
0
 10
1211.4615478515625
 20
815.4615478515625
 42
-0
  0
VERTEX
  8
0
 10
1217.4615478515625
 20
821.4615478515625
 42
0
  0
VERTEX
  8
0
 10
1217.4615478515625
 20
899.4615478515625
 42
-0
  0
VERTEX
  8
0
 10
1211.4615478515625
 20
905.4615478515625
 42
0
  0
VERTEX
  8
0
 10
1163.4615478515625
 20
905.4615478515625
 42
0
  0
VERTEX
  8
0
 10
1157.4615478515625
 20
899.4615478515625
 42
0
  0
VERTEX
  8
0
 10
1157.4615478515625
 20
876.4615478515625
 42
-0
  0
VERTEX
  8
0
 10
1151.4615478515625
 20
870.4615478515625
 42
0
  0
VERTEX
  8
0
 10
1083.4615478515625
 20
870.4615478515625
 42
0
  0
VERTEX
  8
0
 10
1077.4615478515625
 20
876.4615478515625
 42
-0
  0
VERTEX
  8
0
 10
1077.4615478515625
 20
899.4615478515625
 42
-0
  0
VERTEX
  8
0
 10
1071.4615478515625
 20
905.4615478515625
 42
0
  0
VERTEX
  8
0
 10
1023.4615478515625
 20
905.4615478515625
 42
-0
  0
VERTEX
  8
0
 10
1017.4615478515625
 20
899.4615478515625
 42
0
  0
SEQEND
  0
POLYLINE
  8
0
 10
0
 20
0
 39
0
 70
1
 66
1
  0
VERTEX
  8
0
 10
1143.4615478515625
 20
741.66156005859375
 42
-0.41421356797218323
  0
VERTEX
  8
0
 10
1142.2615966796875
 20
740.4615478515625
 42
-0
  0
VERTEX
  8
0
 10
1092.6614990234375
 20
740.4615478515625
 42
-0.41421356797218323
  0
VERTEX
  8
0
 10
1091.4615478515625
 20
741.66156005859375
 42
-0
  0
VERTEX
  8
0
 10
1091.4615478515625
 20
809.2510986328125
 42
-0.33088359236717224
  0
VERTEX
  8
0
 10
1099.2884521484375
 20
819.78350830078125
 42
-0.1473628431558609
  0
VERTEX
  8
0
 10
1135.6346435546875
 20
819.78350830078125
 42
-0.33088359236717224
  0
VERTEX
  8
0
 10
1143.4615478515625
 20
809.2510986328125
 42
0
  0
SEQEND
  0
POLYLINE
  8
0
 10
0
 20
0
 39
0
 70
1
 66
1
  0
VERTEX
  8
0
 10
110.23077392578125
 20
1122.3846435546875
 42
-0.41421392560005188
  0
VERTEX
  8
0
 10
114.23075866699219
 20
1126.3846435546875
 42
-0
  0
VERTEX
  8
0
 10
119.23077392578125
 20
1126.3846435546875
 42
1
  0
VERTEX
  8
0
 10
119.23077392578125
 20
1186.3846435546875
 42
-0
  0
VERTEX
  8
0
 10
44.450580596923828
 20
1186.3846435546875
 42
0.36396992206573486
  0
VERTEX
  8
0
 10
36.572116851806641
 20
1179.7738037109375
 42
-0
  0
VERTEX
  8
0
 10
10.230769157409668
 20
1030.3846435546875
 42
-0
  0
VERTEX
  8
0
 10
10.230769157409668
 20
1020.3846435546875
 42
-0
  0
VERTEX
  8
0
 10
70.23077392578125
 20
1020.3846435546875
 42
-0
  0
VERTEX
  8
0
 10
80.23077392578125
 20
1030.3846435546875
 42
-0
  0
VERTEX
  8
0
 10
80.23077392578125
 20
1089.3846435546875
 42
-0
  0
VERTEX
  8
0
 10
110.23077392578125
 20
1089.3846435546875
 42
-0
  0
SEQEND
  0
POLYLINE
  8
0
 10
0
 20
0
 39
0
 70
1
 66
1
  0
VERTEX
  8
0
 10
116.23077392578125
 20
1148.3846435546875
 42
-1
  0
VERTEX
  8
0
 10
116.23077392578125
 20
1164.3846435546875
 42
-1
  0
SEQEND
  0
POLYLINE
  8
0
 10
0
 20
0
 39
0
 70
1
 66
1
  0
VERTEX
  8
0
 10
66.23077392578125
 20
1155.78466796875
 42
-1
  0
VERTEX
  8
0
 10
66.23077392578125
 20
1168.984619140625
 42
-1
  0
SEQEND
  0
POLYLINE
  8
0
 10
0
 20
0
 39
0
 70
1
 66
1
  0
VERTEX
  8
0
 10
129.43397521972656
 20
1084.3846435546875
 42
-0.41421392560005188
  0
VERTEX
  8
0
 10
125.43399047851562
 20
1080.3846435546875
 42
-0
  0
VERTEX
  8
0
 10
120.43397521972656
 20
1080.3846435546875
 42
1
  0
VERTEX
  8
0
 10
120.43397521972656
 20
1020.3846435546875
 42
-0
  0
VERTEX
  8
0
 10
195.21417236328125
 20
1020.3846435546875
 42
0.36396992206573486
  0
VERTEX
  8
0
 10
203.09263610839844
 20
1026.9954833984375
 42
-0
  0
VERTEX
  8
0
 10
229.43399047851562
 20
1176.3846435546875
 42
-0
  0
VERTEX
  8
0
 10
229.43399047851562
 20
1186.3846435546875
 42
-0
  0
VERTEX
  8
0
 10
169.43397521972656
 20
1186.3846435546875
 42
-0
  0
VERTEX
  8
0
 10
159.43397521972656
 20
1176.3846435546875
 42
-0
  0
VERTEX
  8
0
 10
159.43397521972656
 20
1117.3846435546875
 42
-0
  0
VERTEX
  8
0
 10
129.43397521972656
 20
1117.3846435546875
 42
-0
  0
SEQEND
  0
POLYLINE
  8
0
 10
0
 20
0
 39
0
 70
1
 66
1
  0
VERTEX
  8
0
 10
123.43397521972656
 20
1058.3846435546875
 42
-1
  0
VERTEX
  8
0
 10
123.43397521972656
 20
1042.3846435546875
 42
-1
  0
SEQEND
  0
POLYLINE
  8
0
 10
0
 20
0
 39
0
 70
1
 66
1
  0
VERTEX
  8
0
 10
173.43397521972656
 20
1050.984619140625
 42
-1
  0
VERTEX
  8
0
 10
173.43397521972656
 20
1037.78466796875
 42
-1
  0
SEQEND
  0
POLYLINE
  8
0
 10
0
 20
0
 39
0
 70
1
 66
1
  0
VERTEX
  8
0
 10
314.38461303710937
 20
1122.3846435546875
 42
-0.41421392560005188
  0
VERTEX
  8
0
 10
318.38461303710937
 20
1126.3846435546875
 42
-0
  0
VERTEX
  8
0
 10
323.38461303710937
 20
1126.3846435546875
 42
1
  0
VERTEX
  8
0
 10
323.38461303710937
 20
1186.3846435546875
 42
-0
  0
VERTEX
  8
0
 10
248.60443115234375
 20
1186.3846435546875
 42
0.36396992206573486
  0
VERTEX
  8
0
 10
240.72596740722656
 20
1179.7738037109375
 42
-0
  0
VERTEX
  8
0
 10
214.38461303710937
 20
1030.3846435546875
 42
-0
  0
VERTEX
  8
0
 10
214.38461303710937
 20
1020.3846435546875
 42
-0
  0
VERTEX
  8
0
 10
274.38461303710937
 20
1020.3846435546875
 42
-0
  0
VERTEX
  8
0
 10
284.38461303710937
 20
1030.3846435546875
 42
-0
  0
VERTEX
  8
0
 10
284.38461303710937
 20
1089.3846435546875
 42
-0
  0
VERTEX
  8
0
 10
314.38461303710937
 20
1089.3846435546875
 42
-0
  0
SEQEND
  0
POLYLINE
  8
0
 10
0
 20
0
 39
0
 70
1
 66
1
  0
VERTEX
  8
0
 10
320.38461303710937
 20
1148.3846435546875
 42
-1
  0
VERTEX
  8
0
 10
320.38461303710937
 20
1164.3846435546875
 42
-1
  0
SEQEND
  0
POLYLINE
  8
0
 10
0
 20
0
 39
0
 70
1
 66
1
  0
VERTEX
  8
0
 10
270.38461303710938
 20
1155.78466796875
 42
-1
  0
VERTEX
  8
0
 10
270.38461303710938
 20
1168.984619140625
 42
-1
  0
SEQEND
  0
POLYLINE
  8
0
 10
0
 20
0
 39
0
 70
1
 66
1
  0
VERTEX
  8
0
 10
333.58782958984375
 20
1084.3846435546875
 42
-0.41421392560005188
  0
VERTEX
  8
0
 10
329.58782958984375
 20
1080.3846435546875
 42
-0
  0
VERTEX
  8
0
 10
324.58782958984375
 20
1080.3846435546875
 42
1
  0
VERTEX
  8
0
 10
324.58782958984375
 20
1020.3846435546875
 42
-0
  0
VERTEX
  8
0
 10
399.36801147460938
 20
1020.3846435546875
 42
0.36396992206573486
  0
VERTEX
  8
0
 10
407.24649047851562
 20
1026.9954833984375
 42
-0
  0
VERTEX
  8
0
 10
433.58782958984375
 20
1176.3846435546875
 42
-0
  0
VERTEX
  8
0
 10
433.58782958984375
 20
1186.3846435546875
 42
-0
  0
VERTEX
  8
0
 10
373.58782958984375
 20
1186.3846435546875
 42
-0
  0
VERTEX
  8
0
 10
363.58782958984375
 20
1176.3846435546875
 42
-0
  0
VERTEX
  8
0
 10
363.58782958984375
 20
1117.3846435546875
 42
-0
  0
VERTEX
  8
0
 10
333.58782958984375
 20
1117.3846435546875
 42
-0
  0
SEQEND
  0
POLYLINE
  8
0
 10
0
 20
0
 39
0
 70
1
 66
1
  0
VERTEX
  8
0
 10
327.58782958984375
 20
1058.3846435546875
 42
-1
  0
VERTEX
  8
0
 10
327.58782958984375
 20
1042.3846435546875
 42
-1
  0
SEQEND
  0
POLYLINE
  8
0
 10
0
 20
0
 39
0
 70
1
 66
1
  0
VERTEX
  8
0
 10
377.58782958984375
 20
1050.984619140625
 42
-1
  0
VERTEX
  8
0
 10
377.58782958984375
 20
1037.78466796875
 42
-1
  0
SEQEND
  0
POLYLINE
  8
0
 10
0
 20
0
 39
0
 70
1
 66
1
  0
VERTEX
  8
0
 10
320.38461303710937
 20
522.5384521484375
 42
-0.41421392560005188
  0
VERTEX
  8
0
 10
324.38461303710938
 20
526.5384521484375
 42
-0
  0
VERTEX
  8
0
 10
329.38461303710937
 20
526.5384521484375
 42
1
  0
VERTEX
  8
0
 10
329.38461303710937
 20
586.5384521484375
 42
-0
  0
VERTEX
  8
0
 10
254.60443115234375
 20
586.5384521484375
 42
0.36396992206573486
  0
VERTEX
  8
0
 10
246.72596740722656
 20
579.92767333984375
 42
-0
  0
VERTEX
  8
0
 10
220.38461303710937
 20
430.5384521484375
 42
-0
  0
VERTEX
  8
0
 10
220.38461303710937
 20
420.5384521484375
 42
-0
  0
VERTEX
  8
0
 10
280.38461303710937
 20
420.5384521484375
 42
-0
  0
VERTEX
  8
0
 10
290.38461303710938
 20
430.5384521484375
 42
-0
  0
VERTEX
  8
0
 10
290.38461303710938
 20
489.5384521484375
 42
-0
  0
VERTEX
  8
0
 10
320.38461303710937
 20
489.5384521484375
 42
-0
  0
SEQEND
  0
POLYLINE
  8
0
 10
0
 20
0
 39
0
 70
1
 66
1
  0
VERTEX
  8
0
 10
326.38461303710937
 20
548.5384521484375
 42
-1
  0
VERTEX
  8
0
 10
326.38461303710937
 20
564.5384521484375
 42
-1
  0
SEQEND
  0
POLYLINE
  8
0
 10
0
 20
0
 39
0
 70
1
 66
1
  0
VERTEX
  8
0
 10
276.38461303710938
 20
555.9384765625
 42
-1
  0
VERTEX
  8
0
 10
276.38461303710938
 20
569.13848876953125
 42
-1
  0
SEQEND
  0
POLYLINE
  8
0
 10
0
 20
0
 39
0
 70
1
 66
1
  0
VERTEX
  8
0
 10
339.58782958984375
 20
484.53848266601562
 42
-0.41421392560005188
  0
VERTEX
  8
0
 10
335.58782958984375
 20
480.53848266601562
 42
-0
  0
VERTEX
  8
0
 10
330.58782958984375
 20
480.53848266601562
 42
1
  0
VERTEX
  8
0
 10
330.58782958984375
 20
420.5384521484375
 42
-0
  0
VERTEX
  8
0
 10
405.36801147460938
 20
420.5384521484375
 42
0.36396992206573486
  0
VERTEX
  8
0
 10
413.24649047851562
 20
427.1492919921875
 42
-0
  0
VERTEX
  8
0
 10
439.58782958984375
 20
576.5384521484375
 42
-0
  0
VERTEX
  8
0
 10
439.58782958984375
 20
586.5384521484375
 42
-0
  0
VERTEX
  8
0
 10
379.58782958984375
 20
586.5384521484375
 42
-0
  0
VERTEX
  8
0
 10
369.58782958984375
 20
576.5384521484375
 42
-0
  0
VERTEX
  8
0
 10
369.58782958984375
 20
517.5384521484375
 42
-0
  0
VERTEX
  8
0
 10
339.58782958984375
 20
517.5384521484375
 42
-0
  0
SEQEND
  0
POLYLINE
  8
0
 10
0
 20
0
 39
0
 70
1
 66
1
  0
VERTEX
  8
0
 10
333.58782958984375
 20
458.5384521484375
 42
-1
  0
VERTEX
  8
0
 10
333.58782958984375
 20
442.5384521484375
 42
-1
  0
SEQEND
  0
POLYLINE
  8
0
 10
0
 20
0
 39
0
 70
1
 66
1
  0
VERTEX
  8
0
 10
383.58782958984375
 20
451.13845825195312
 42
-1
  0
VERTEX
  8
0
 10
383.58782958984375
 20
437.93844604492187
 42
-1
  0
SEQEND
  0
POLYLINE
  8
0
 10
0
 20
0
 39
0
 70
1
 66
1
  0
VERTEX
  8
0
 10
518.5384521484375
 20
1122.3846435546875
 42
-0.41421392560005188
  0
VERTEX
  8
0
 10
522.5384521484375
 20
1126.3846435546875
 42
-0
  0
VERTEX
  8
0
 10
527.5384521484375
 20
1126.3846435546875
 42
1
  0
VERTEX
  8
0
 10
527.5384521484375
 20
1186.3846435546875
 42
-0
  0
VERTEX
  8
0
 10
452.75827026367187
 20
1186.3846435546875
 42
0.36396992206573486
  0
VERTEX
  8
0
 10
444.87982177734375
 20
1179.7738037109375
 42
-0
  0
VERTEX
  8
0
 10
418.5384521484375
 20
1030.3846435546875
 42
-0
  0
VERTEX
  8
0
 10
418.5384521484375
 20
1020.3846435546875
 42
-0
  0
VERTEX
  8
0
 10
478.53848266601562
 20
1020.3846435546875
 42
-0
  0
VERTEX
  8
0
 10
488.53848266601562
 20
1030.3846435546875
 42
-0
  0
VERTEX
  8
0
 10
488.53848266601562
 20
1089.3846435546875
 42
-0
  0
VERTEX
  8
0
 10
518.5384521484375
 20
1089.3846435546875
 42
-0
  0
SEQEND
  0
POLYLINE
  8
0
 10
0
 20
0
 39
0
 70
1
 66
1
  0
VERTEX
  8
0
 10
524.5384521484375
 20
1148.3846435546875
 42
-1
  0
VERTEX
  8
0
 10
524.5384521484375
 20
1164.3846435546875
 42
-1
  0
SEQEND
  0
POLYLINE
  8
0
 10
0
 20
0
 39
0
 70
1
 66
1
  0
VERTEX
  8
0
 10
474.53848266601562
 20
1155.78466796875
 42
-1
  0
VERTEX
  8
0
 10
474.53848266601562
 20
1168.984619140625
 42
-1
  0
SEQEND
  0
POLYLINE
  8
0
 10
0
 20
0
 39
0
 70
1
 66
1
  0
VERTEX
  8
0
 10
537.74169921875
 20
1084.3846435546875
 42
-0.41421392560005188
  0
VERTEX
  8
0
 10
533.74169921875
 20
1080.3846435546875
 42
-0
  0
VERTEX
  8
0
 10
528.74169921875
 20
1080.3846435546875
 42
1
  0
VERTEX
  8
0
 10
528.74169921875
 20
1020.3846435546875
 42
-0
  0
VERTEX
  8
0
 10
603.5218505859375
 20
1020.3846435546875
 42
0.36396992206573486
  0
VERTEX
  8
0
 10
611.40032958984375
 20
1026.9954833984375
 42
-0
  0
VERTEX
  8
0
 10
637.74169921875
 20
1176.3846435546875
 42
-0
  0
VERTEX
  8
0
 10
637.74169921875
 20
1186.3846435546875
 42
-0
  0
VERTEX
  8
0
 10
577.74169921875
 20
1186.3846435546875
 42
-0
  0
VERTEX
  8
0
 10
567.74169921875
 20
1176.3846435546875
 42
-0
  0
VERTEX
  8
0
 10
567.74169921875
 20
1117.3846435546875
 42
-0
  0
VERTEX
  8
0
 10
537.74169921875
 20
1117.3846435546875
 42
-0
  0
SEQEND
  0
POLYLINE
  8
0
 10
0
 20
0
 39
0
 70
1
 66
1
  0
VERTEX
  8
0
 10
531.74169921875
 20
1058.3846435546875
 42
-1
  0
VERTEX
  8
0
 10
531.74169921875
 20
1042.3846435546875
 42
-1
  0
SEQEND
  0
POLYLINE
  8
0
 10
0
 20
0
 39
0
 70
1
 66
1
  0
VERTEX
  8
0
 10
581.74169921875
 20
1050.984619140625
 42
-1
  0
VERTEX
  8
0
 10
581.74169921875
 20
1037.78466796875
 42
-1
  0
SEQEND
  0
POLYLINE
  8
0
 10
0
 20
0
 39
0
 70
1
 66
1
  0
VERTEX
  8
0
 10
722.69232177734375
 20
1122.3846435546875
 42
-0.41421392560005188
  0
VERTEX
  8
0
 10
726.69232177734375
 20
1126.3846435546875
 42
-0
  0
VERTEX
  8
0
 10
731.69232177734375
 20
1126.3846435546875
 42
1
  0
VERTEX
  8
0
 10
731.69232177734375
 20
1186.3846435546875
 42
-0
  0
VERTEX
  8
0
 10
656.912109375
 20
1186.3846435546875
 42
0.36396992206573486
  0
VERTEX
  8
0
 10
649.03363037109375
 20
1179.7738037109375
 42
-0
  0
VERTEX
  8
0
 10
622.69232177734375
 20
1030.3846435546875
 42
-0
  0
VERTEX
  8
0
 10
622.69232177734375
 20
1020.3846435546875
 42
-0
  0
VERTEX
  8
0
 10
682.69232177734375
 20
1020.3846435546875
 42
-0
  0
VERTEX
  8
0
 10
692.69232177734375
 20
1030.3846435546875
 42
-0
  0
VERTEX
  8
0
 10
692.69232177734375
 20
1089.3846435546875
 42
-0
  0
VERTEX
  8
0
 10
722.69232177734375
 20
1089.3846435546875
 42
-0
  0
SEQEND
  0
POLYLINE
  8
0
 10
0
 20
0
 39
0
 70
1
 66
1
  0
VERTEX
  8
0
 10
728.69232177734375
 20
1148.3846435546875
 42
-1
  0
VERTEX
  8
0
 10
728.69232177734375
 20
1164.3846435546875
 42
-1
  0
SEQEND
  0
POLYLINE
  8
0
 10
0
 20
0
 39
0
 70
1
 66
1
  0
VERTEX
  8
0
 10
678.69232177734375
 20
1155.78466796875
 42
-1
  0
VERTEX
  8
0
 10
678.69232177734375
 20
1168.984619140625
 42
-1
  0
SEQEND
  0
POLYLINE
  8
0
 10
0
 20
0
 39
0
 70
1
 66
1
  0
VERTEX
  8
0
 10
741.8955078125
 20
1084.3846435546875
 42
-0.41421392560005188
  0
VERTEX
  8
0
 10
737.8955078125
 20
1080.3846435546875
 42
-0
  0
VERTEX
  8
0
 10
732.8955078125
 20
1080.3846435546875
 42
1
  0
VERTEX
  8
0
 10
732.8955078125
 20
1020.3846435546875
 42
-0
  0
VERTEX
  8
0
 10
807.67572021484375
 20
1020.3846435546875
 42
0.36396992206573486
  0
VERTEX
  8
0
 10
815.55419921875
 20
1026.9954833984375
 42
-0
  0
VERTEX
  8
0
 10
841.8955078125
 20
1176.3846435546875
 42
-0
  0
VERTEX
  8
0
 10
841.8955078125
 20
1186.3846435546875
 42
-0
  0
VERTEX
  8
0
 10
781.8955078125
 20
1186.3846435546875
 42
-0
  0
VERTEX
  8
0
 10
771.8955078125
 20
1176.3846435546875
 42
-0
  0
VERTEX
  8
0
 10
771.8955078125
 20
1117.3846435546875
 42
-0
  0
VERTEX
  8
0
 10
741.8955078125
 20
1117.3846435546875
 42
-0
  0
SEQEND
  0
POLYLINE
  8
0
 10
0
 20
0
 39
0
 70
1
 66
1
  0
VERTEX
  8
0
 10
735.8955078125
 20
1058.3846435546875
 42
-1
  0
VERTEX
  8
0
 10
735.8955078125
 20
1042.3846435546875
 42
-1
  0
SEQEND
  0
POLYLINE
  8
0
 10
0
 20
0
 39
0
 70
1
 66
1
  0
VERTEX
  8
0
 10
785.8955078125
 20
1050.984619140625
 42
-1
  0
VERTEX
  8
0
 10
785.8955078125
 20
1037.78466796875
 42
-1
  0
SEQEND
  0
POLYLINE
  8
0
 10
0
 20
0
 39
0
 70
1
 66
1
  0
VERTEX
  8
0
 10
926.84619140625
 20
1122.3846435546875
 42
-0.41421392560005188
  0
VERTEX
  8
0
 10
930.84613037109375
 20
1126.3846435546875
 42
-0
  0
VERTEX
  8
0
 10
935.84619140625
 20
1126.3846435546875
 42
1
  0
VERTEX
  8
0
 10
935.84619140625
 20
1186.3846435546875
 42
-0
  0
VERTEX
  8
0
 10
861.06597900390625
 20
1186.3846435546875
 42
0.36396992206573486
  0
VERTEX
  8
0
 10
853.1875
 20
1179.7738037109375
 42
-0
  0
VERTEX
  8
0
 10
826.84613037109375
 20
1030.3846435546875
 42
-0
  0
VERTEX
  8
0
 10
826.84613037109375
 20
1020.3846435546875
 42
-0
  0
VERTEX
  8
0
 10
886.84619140625
 20
1020.3846435546875
 42
-0
  0
VERTEX
  8
0
 10
896.84619140625
 20
1030.3846435546875
 42
-0
  0
VERTEX
  8
0
 10
896.84619140625
 20
1089.3846435546875
 42
-0
  0
VERTEX
  8
0
 10
926.84619140625
 20
1089.3846435546875
 42
-0
  0
SEQEND
  0
POLYLINE
  8
0
 10
0
 20
0
 39
0
 70
1
 66
1
  0
VERTEX
  8
0
 10
932.84619140625
 20
1148.3846435546875
 42
-1
  0
VERTEX
  8
0
 10
932.84619140625
 20
1164.3846435546875
 42
-1
  0
SEQEND
  0
POLYLINE
  8
0
 10
0
 20
0
 39
0
 70
1
 66
1
  0
VERTEX
  8
0
 10
882.84619140625
 20
1155.78466796875
 42
-1
  0
VERTEX
  8
0
 10
882.84619140625
 20
1168.984619140625
 42
-1
  0
SEQEND
  0
POLYLINE
  8
0
 10
0
 20
0
 39
0
 70
1
 66
1
  0
VERTEX
  8
0
 10
946.04937744140625
 20
1084.3846435546875
 42
-0.41421392560005188
  0
VERTEX
  8
0
 10
942.04937744140625
 20
1080.3846435546875
 42
-0
  0
VERTEX
  8
0
 10
937.04937744140625
 20
1080.3846435546875
 42
1
  0
VERTEX
  8
0
 10
937.04937744140625
 20
1020.3846435546875
 42
-0
  0
VERTEX
  8
0
 10
1011.8295288085937
 20
1020.3846435546875
 42
0.36396992206573486
  0
VERTEX
  8
0
 10
1019.7080078125
 20
1026.9954833984375
 42
-0
  0
VERTEX
  8
0
 10
1046.04931640625
 20
1176.3846435546875
 42
-0
  0
VERTEX
  8
0
 10
1046.04931640625
 20
1186.3846435546875
 42
-0
  0
VERTEX
  8
0
 10
986.04937744140625
 20
1186.3846435546875
 42
-0
  0
VERTEX
  8
0
 10
976.04937744140625
 20
1176.3846435546875
 42
-0
  0
VERTEX
  8
0
 10
976.04937744140625
 20
1117.3846435546875
 42
-0
  0
VERTEX
  8
0
 10
946.04937744140625
 20
1117.3846435546875
 42
-0
  0
SEQEND
  0
POLYLINE
  8
0
 10
0
 20
0
 39
0
 70
1
 66
1
  0
VERTEX
  8
0
 10
940.04937744140625
 20
1058.3846435546875
 42
-1
  0
VERTEX
  8
0
 10
940.04937744140625
 20
1042.3846435546875
 42
-1
  0
SEQEND
  0
POLYLINE
  8
0
 10
0
 20
0
 39
0
 70
1
 66
1
  0
VERTEX
  8
0
 10
990.04937744140625
 20
1050.984619140625
 42
-1
  0
VERTEX
  8
0
 10
990.04937744140625
 20
1037.78466796875
 42
-1
  0
SEQEND
  0
POLYLINE
  8
0
 10
0
 20
0
 39
0
 70
1
 66
1
  0
VERTEX
  8
0
 10
1041.4615478515625
 20
522.5384521484375
 42
-0.41421392560005188
  0
VERTEX
  8
0
 10
1045.4615478515625
 20
526.5384521484375
 42
-0
  0
VERTEX
  8
0
 10
1050.4615478515625
 20
526.5384521484375
 42
1
  0
VERTEX
  8
0
 10
1050.4615478515625
 20
586.5384521484375
 42
-0
  0
VERTEX
  8
0
 10
975.68133544921875
 20
586.5384521484375
 42
0.36396992206573486
  0
VERTEX
  8
0
 10
967.8028564453125
 20
579.92767333984375
 42
-0
  0
VERTEX
  8
0
 10
941.4615478515625
 20
430.5384521484375
 42
-0
  0
VERTEX
  8
0
 10
941.4615478515625
 20
420.5384521484375
 42
-0
  0
VERTEX
  8
0
 10
1001.4615478515625
 20
420.5384521484375
 42
-0
  0
VERTEX
  8
0
 10
1011.4615478515625
 20
430.5384521484375
 42
-0
  0
VERTEX
  8
0
 10
1011.4615478515625
 20
489.5384521484375
 42
-0
  0
VERTEX
  8
0
 10
1041.4615478515625
 20
489.5384521484375
 42
-0
  0
SEQEND
  0
POLYLINE
  8
0
 10
0
 20
0
 39
0
 70
1
 66
1
  0
VERTEX
  8
0
 10
1047.4615478515625
 20
548.5384521484375
 42
-1
  0
VERTEX
  8
0
 10
1047.4615478515625
 20
564.5384521484375
 42
-1
  0
SEQEND
  0
POLYLINE
  8
0
 10
0
 20
0
 39
0
 70
1
 66
1
  0
VERTEX
  8
0
 10
997.4615478515625
 20
555.9384765625
 42
-1
  0
VERTEX
  8
0
 10
997.4615478515625
 20
569.13848876953125
 42
-1
  0
SEQEND
  0
POLYLINE
  8
0
 10
0
 20
0
 39
0
 70
1
 66
1
  0
VERTEX
  8
0
 10
1060.664794921875
 20
484.53848266601562
 42
-0.41421392560005188
  0
VERTEX
  8
0
 10
1056.664794921875
 20
480.53848266601562
 42
-0
  0
VERTEX
  8
0
 10
1051.664794921875
 20
480.53848266601562
 42
1
  0
VERTEX
  8
0
 10
1051.664794921875
 20
420.5384521484375
 42
-0
  0
VERTEX
  8
0
 10
1126.4449462890625
 20
420.5384521484375
 42
0.36396992206573486
  0
VERTEX
  8
0
 10
1134.3233642578125
 20
427.1492919921875
 42
-0
  0
VERTEX
  8
0
 10
1160.664794921875
 20
576.5384521484375
 42
-0
  0
VERTEX
  8
0
 10
1160.664794921875
 20
586.5384521484375
 42
-0
  0
VERTEX
  8
0
 10
1100.664794921875
 20
586.5384521484375
 42
-0
  0
VERTEX
  8
0
 10
1090.664794921875
 20
576.5384521484375
 42
-0
  0
VERTEX
  8
0
 10
1090.664794921875
 20
517.5384521484375
 42
-0
  0
VERTEX
  8
0
 10
1060.664794921875
 20
517.5384521484375
 42
-0
  0
SEQEND
  0
POLYLINE
  8
0
 10
0
 20
0
 39
0
 70
1
 66
1
  0
VERTEX
  8
0
 10
1054.664794921875
 20
458.5384521484375
 42
-1
  0
VERTEX
  8
0
 10
1054.664794921875
 20
442.5384521484375
 42
-1
  0
SEQEND
  0
POLYLINE
  8
0
 10
0
 20
0
 39
0
 70
1
 66
1
  0
VERTEX
  8
0
 10
1104.664794921875
 20
451.13845825195312
 42
-1
  0
VERTEX
  8
0
 10
1104.664794921875
 20
437.93844604492187
 42
-1
  0
SEQEND
  0
POLYLINE
  8
0
 10
0
 20
0
 39
0
 70
1
 66
1
  0
VERTEX
  8
0
 10
1131
 20
1122.3846435546875
 42
-0.41421392560005188
  0
VERTEX
  8
0
 10
1135
 20
1126.3846435546875
 42
-0
  0
VERTEX
  8
0
 10
1140
 20
1126.3846435546875
 42
1
  0
VERTEX
  8
0
 10
1140
 20
1186.3846435546875
 42
-0
  0
VERTEX
  8
0
 10
1065.2198486328125
 20
1186.3846435546875
 42
0.36396992206573486
  0
VERTEX
  8
0
 10
1057.34130859375
 20
1179.7738037109375
 42
-0
  0
VERTEX
  8
0
 10
1031
 20
1030.3846435546875
 42
-0
  0
VERTEX
  8
0
 10
1031
 20
1020.3846435546875
 42
-0
  0
VERTEX
  8
0
 10
1091
 20
1020.3846435546875
 42
-0
  0
VERTEX
  8
0
 10
1101
 20
1030.3846435546875
 42
-0
  0
VERTEX
  8
0
 10
1101
 20
1089.3846435546875
 42
-0
  0
VERTEX
  8
0
 10
1131
 20
1089.3846435546875
 42
-0
  0
SEQEND
  0
POLYLINE
  8
0
 10
0
 20
0
 39
0
 70
1
 66
1
  0
VERTEX
  8
0
 10
1137
 20
1148.3846435546875
 42
-1
  0
VERTEX
  8
0
 10
1137
 20
1164.3846435546875
 42
-1
  0
SEQEND
  0
POLYLINE
  8
0
 10
0
 20
0
 39
0
 70
1
 66
1
  0
VERTEX
  8
0
 10
1087
 20
1155.78466796875
 42
-1
  0
VERTEX
  8
0
 10
1087
 20
1168.984619140625
 42
-1
  0
SEQEND
  0
POLYLINE
  8
0
 10
0
 20
0
 39
0
 70
1
 66
1
  0
VERTEX
  8
0
 10
1150.2032470703125
 20
1084.3846435546875
 42
-0.41421392560005188
  0
VERTEX
  8
0
 10
1146.2032470703125
 20
1080.3846435546875
 42
-0
  0
VERTEX
  8
0
 10
1141.2032470703125
 20
1080.3846435546875
 42
1
  0
VERTEX
  8
0
 10
1141.2032470703125
 20
1020.3846435546875
 42
-0
  0
VERTEX
  8
0
 10
1215.9833984375
 20
1020.3846435546875
 42
0.36396992206573486
  0
VERTEX
  8
0
 10
1223.86181640625
 20
1026.9954833984375
 42
-0
  0
VERTEX
  8
0
 10
1250.2032470703125
 20
1176.3846435546875
 42
-0
  0
VERTEX
  8
0
 10
1250.2032470703125
 20
1186.3846435546875
 42
-0
  0
VERTEX
  8
0
 10
1190.2032470703125
 20
1186.3846435546875
 42
-0
  0
VERTEX
  8
0
 10
1180.2032470703125
 20
1176.3846435546875
 42
-0
  0
VERTEX
  8
0
 10
1180.2032470703125
 20
1117.3846435546875
 42
-0
  0
VERTEX
  8
0
 10
1150.2032470703125
 20
1117.3846435546875
 42
-0
  0
SEQEND
  0
POLYLINE
  8
0
 10
0
 20
0
 39
0
 70
1
 66
1
  0
VERTEX
  8
0
 10
1144.2032470703125
 20
1058.3846435546875
 42
-1
  0
VERTEX
  8
0
 10
1144.2032470703125
 20
1042.3846435546875
 42
-1
  0
SEQEND
  0
POLYLINE
  8
0
 10
0
 20
0
 39
0
 70
1
 66
1
  0
VERTEX
  8
0
 10
1194.2032470703125
 20
1050.984619140625
 42
-1
  0
VERTEX
  8
0
 10
1194.2032470703125
 20
1037.78466796875
 42
-1
  0
SEQEND
  0
POLYLINE
  8
0
 10
0
 20
0
 39
0
 70
1
 66
1
  0
VERTEX
  8
0
 10
1279.7861328125
 20
1157.288818359375
 42
-0
  0
VERTEX
  8
0
 10
1278.221923828125
 20
1151.496337890625
 42
-0
  0
VERTEX
  8
0
 10
1267.5904541015625
 20
1140.864990234375
 42
0
  0
VERTEX
  8
0
 10
1261.7979736328125
 20
1139.30078125
 42
0.11274677515029907
  0
VERTEX
  8
0
 10
1248.84619140625
 20
1108.0322265625
 42
-0
  0
VERTEX
  8
0
 10
1251.8360595703125
 20
1102.8302001953125
 42
-0
  0
VERTEX
  8
0
 10
1251.8360595703125
 20
1087.795166015625
 42
0
  0
VERTEX
  8
0
 10
1248.84619140625
 20
1082.5931396484375
 42
0.11274677515029907
  0
VERTEX
  8
0
 10
1261.7979736328125
 20
1051.3245849609375
 42
-0
  0
VERTEX
  8
0
 10
1267.5904541015625
 20
1049.7603759765625
 42
-0
  0
VERTEX
  8
0
 10
1278.221923828125
 20
1039.1290283203125
 42
0
  0
VERTEX
  8
0
 10
1279.7861328125
 20
1033.33642578125
 42
0.11274677515029907
  0
VERTEX
  8
0
 10
1311.0546875
 20
1020.3846435546875
 42
-0
  0
VERTEX
  8
0
 10
1316.256591796875
 20
1023.3744506835937
 42
-0
  0
VERTEX
  8
0
 10
1331.291748046875
 20
1023.3744506835937
 42
0
  0
VERTEX
  8
0
 10
1336.4937744140625
 20
1020.3846435546875
 42
0.11274677515029907
  0
VERTEX
  8
0
 10
1367.76220703125
 20
1033.33642578125
 42
-0
  0
VERTEX
  8
0
 10
1369.326416015625
 20
1039.1290283203125
 42
-0
  0
VERTEX
  8
0
 10
1379.9578857421875
 20
1049.7603759765625
 42
0
  0
VERTEX
  8
0
 10
1385.7503662109375
 20
1051.3245849609375
 42
0.11274677515029907
  0
VERTEX
  8
0
 10
1398.7022705078125
 20
1082.5931396484375
 42
-0
  0
VERTEX
  8
0
 10
1395.71240234375
 20
1087.795166015625
 42
-0
  0
VERTEX
  8
0
 10
1395.71240234375
 20
1102.8302001953125
 42
0
  0
VERTEX
  8
0
 10
1398.7022705078125
 20
1108.0322265625
 42
0.11274677515029907
  0
VERTEX
  8
0
 10
1385.7503662109375
 20
1139.30078125
 42
-0
  0
VERTEX
  8
0
 10
1379.9578857421875
 20
1140.864990234375
 42
-0
  0
VERTEX
  8
0
 10
1369.326416015625
 20
1151.496337890625
 42
0
  0
VERTEX
  8
0
 10
1367.76220703125
 20
1157.288818359375
 42
0.11274677515029907
  0
VERTEX
  8
0
 10
1336.4937744140625
 20
1170.24072265625
 42
-0
  0
VERTEX
  8
0
 10
1331.291748046875
 20
1167.2508544921875
 42
-0
  0
VERTEX
  8
0
 10
1316.256591796875
 20
1167.2508544921875
 42
0
  0
VERTEX
  8
0
 10
1311.0546875
 20
1170.24072265625
 42
0.11274677515029907
  0
SEQEND
  0
POLYLINE
  8
0
 10
0
 20
0
 39
0
 70
1
 66
1
  0
VERTEX
  8
0
 10
1330.84521484375
 20
1102.3837890625
 42
-1
  0
VERTEX
  8
0
 10
1316.703125
 20
1088.2415771484375
 42
-1
  0
SEQEND
  0
POLYLINE
  8
0
 10
0
 20
0
 39
0
 70
1
 66
1
  0
VERTEX
  8
0
 10
1521.93994140625
 20
1118.05810546875
 42
-0
  0
VERTEX
  8
0
 10
1520.375732421875
 20
1112.265625
 42
-0
  0
VERTEX
  8
0
 10
1509.744384765625
 20
1101.6341552734375
 42
0
  0
VERTEX
  8
0
 10
1503.9517822265625
 20
1100.0699462890625
 42
0.11274677515029907
  0
VERTEX
  8
0
 10
1491
 20
1068.8013916015625
 42
-0
  0
VERTEX
  8
0
 10
1493.9898681640625
 20
1063.5994873046875
 42
-0
  0
VERTEX
  8
0
 10
1493.9898681640625
 20
1048.5643310546875
 42
0
  0
VERTEX
  8
0
 10
1491
 20
1043.3623046875
 42
0.11274677515029907
  0
VERTEX
  8
0
 10
1503.9517822265625
 20
1012.0938110351562
 42
-0
  0
VERTEX
  8
0
 10
1509.744384765625
 20
1010.5296020507812
 42
-0
  0
VERTEX
  8
0
 10
1520.375732421875
 20
999.898193359375
 42
0
  0
VERTEX
  8
0
 10
1521.93994140625
 20
994.105712890625
 42
0.11274677515029907
  0
VERTEX
  8
0
 10
1553.20849609375
 20
981.15386962890625
 42
-0
  0
VERTEX
  8
0
 10
1558.4105224609375
 20
984.1436767578125
 42
-0
  0
VERTEX
  8
0
 10
1573.445556640625
 20
984.1436767578125
 42
0
  0
VERTEX
  8
0
 10
1578.6475830078125
 20
981.15386962890625
 42
0.11274677515029907
  0
VERTEX
  8
0
 10
1609.9161376953125
 20
994.105712890625
 42
-0
  0
VERTEX
  8
0
 10
1611.4803466796875
 20
999.898193359375
 42
-0
  0
VERTEX
  8
0
 10
1622.1116943359375
 20
1010.5296020507812
 42
0
  0
VERTEX
  8
0
 10
1627.904296875
 20
1012.0938110351562
 42
0.11274677515029907
  0
VERTEX
  8
0
 10
1640.8560791015625
 20
1043.3623046875
 42
-0
  0
VERTEX
  8
0
 10
1637.8662109375
 20
1048.5643310546875
 42
-0
  0
VERTEX
  8
0
 10
1637.8662109375
 20
1063.5994873046875
 42
0
  0
VERTEX
  8
0
 10
1640.8560791015625
 20
1068.8013916015625
 42
0.11274677515029907
  0
VERTEX
  8
0
 10
1627.904296875
 20
1100.0699462890625
 42
-0
  0
VERTEX
  8
0
 10
1622.1116943359375
 20
1101.6341552734375
 42
-0
  0
VERTEX
  8
0
 10
1611.4803466796875
 20
1112.265625
 42
0
  0
VERTEX
  8
0
 10
1609.9161376953125
 20
1118.05810546875
 42
0.11274677515029907
  0
VERTEX
  8
0
 10
1578.6475830078125
 20
1131.0098876953125
 42
-0
  0
VERTEX
  8
0
 10
1573.445556640625
 20
1128.0201416015625
 42
-0
  0
VERTEX
  8
0
 10
1558.4105224609375
 20
1128.0201416015625
 42
0
  0
VERTEX
  8
0
 10
1553.20849609375
 20
1131.0098876953125
 42
0.11274677515029907
  0
SEQEND
  0
POLYLINE
  8
0
 10
0
 20
0
 39
0
 70
1
 66
1
  0
VERTEX
  8
0
 10
1572.9991455078125
 20
1063.1529541015625
 42
-1
  0
VERTEX
  8
0
 10
1558.85693359375
 20
1049.0108642578125
 42
-1
  0
SEQEND
  0
POLYLINE
  8
0
 10
0
 20
0
 39
0
 70
1
 66
1
  0
VERTEX
  8
0
 10
1529.1707763671875
 20
831.5965576171875
 42
-0
  0
VERTEX
  8
0
 10
1527.6065673828125
 20
825.8040771484375
 42
-0
  0
VERTEX
  8
0
 10
1516.97509765625
 20
815.172607421875
 42
0
  0
VERTEX
  8
0
 10
1511.1826171875
 20
813.6083984375
 42
0.11274677515029907
  0
VERTEX
  8
0
 10
1498.230712890625
 20
782.33990478515625
 42
-0
  0
VERTEX
  8
0
 10
1501.2205810546875
 20
777.137939453125
 42
-0
  0
VERTEX
  8
0
 10
1501.2205810546875
 20
762.102783203125
 42
0
  0
VERTEX
  8
0
 10
1498.230712890625
 20
756.90081787109375
 42
0.11274677515029907
  0
VERTEX
  8
0
 10
1511.1826171875
 20
725.63232421875
 42
-0
  0
VERTEX
  8
0
 10
1516.97509765625
 20
724.068115234375
 42
-0
  0
VERTEX
  8
0
 10
1527.6065673828125
 20
713.4366455078125
 42
0
  0
VERTEX
  8
0
 10
1529.1707763671875
 20
707.6441650390625
 42
0.11274677515029907
  0
VERTEX
  8
0
 10
1560.4393310546875
 20
694.69232177734375
 42
-0
  0
VERTEX
  8
0
 10
1565.6412353515625
 20
697.68218994140625
 42
-0
  0
VERTEX
  8
0
 10
1580.6763916015625
 20
697.68218994140625
 42
0
  0
VERTEX
  8
0
 10
1585.87841796875
 20
694.69232177734375
 42
0.11274677515029907
  0
VERTEX
  8
0
 10
1617.1468505859375
 20
707.6441650390625
 42
-0
  0
VERTEX
  8
0
 10
1618.7110595703125
 20
713.4366455078125
 42
-0
  0
VERTEX
  8
0
 10
1629.342529296875
 20
724.068115234375
 42
0
  0
VERTEX
  8
0
 10
1635.135009765625
 20
725.63232421875
 42
0.11274677515029907
  0
VERTEX
  8
0
 10
1648.0869140625
 20
756.90081787109375
 42
-0
  0
VERTEX
  8
0
 10
1645.0970458984375
 20
762.102783203125
 42
-0
  0
VERTEX
  8
0
 10
1645.0970458984375
 20
777.137939453125
 42
0
  0
VERTEX
  8
0
 10
1648.0869140625
 20
782.33990478515625
 42
0.11274677515029907
  0
VERTEX
  8
0
 10
1635.135009765625
 20
813.6083984375
 42
-0
  0
VERTEX
  8
0
 10
1629.342529296875
 20
815.172607421875
 42
-0
  0
VERTEX
  8
0
 10
1618.7110595703125
 20
825.8040771484375
 42
0
  0
VERTEX
  8
0
 10
1617.1468505859375
 20
831.5965576171875
 42
0.11274677515029907
  0
VERTEX
  8
0
 10
1585.87841796875
 20
844.54840087890625
 42
-0
  0
VERTEX
  8
0
 10
1580.6763916015625
 20
841.55853271484375
 42
-0
  0
VERTEX
  8
0
 10
1565.6412353515625
 20
841.55853271484375
 42
0
  0
VERTEX
  8
0
 10
1560.4393310546875
 20
844.54840087890625
 42
0.11274677515029907
  0
SEQEND
  0
POLYLINE
  8
0
 10
0
 20
0
 39
0
 70
1
 66
1
  0
VERTEX
  8
0
 10
1580.2298583984375
 20
776.69140625
 42
-1
  0
VERTEX
  8
0
 10
1566.0877685546875
 20
762.54931640625
 42
-1
  0
SEQEND
  0
POLYLINE
  8
0
 10
0
 20
0
 39
0
 70
1
 66
1
  0
VERTEX
  8
0
 10
1579.1707763671875
 20
252.36579895019531
 42
-0
  0
VERTEX
  8
0
 10
1577.6065673828125
 20
246.57328796386719
 42
-0
  0
VERTEX
  8
0
 10
1566.97509765625
 20
235.94184875488281
 42
0
  0
VERTEX
  8
0
 10
1561.1826171875
 20
234.37763977050781
 42
0.11274677515029907
  0
VERTEX
  8
0
 10
1548.230712890625
 20
203.109130859375
 42
-0
  0
VERTEX
  8
0
 10
1551.2205810546875
 20
197.90715026855469
 42
-0
  0
VERTEX
  8
0
 10
1551.2205810546875
 20
182.87203979492187
 42
0
  0
VERTEX
  8
0
 10
1548.230712890625
 20
177.6700439453125
 42
0.11274677515029907
  0
VERTEX
  8
0
 10
1561.1826171875
 20
146.40153503417969
 42
-0
  0
VERTEX
  8
0
 10
1566.97509765625
 20
144.83732604980469
 42
-0
  0
VERTEX
  8
0
 10
1577.6065673828125
 20
134.20590209960937
 42
0
  0
VERTEX
  8
0
 10
1579.1707763671875
 20
128.41337585449219
 42
0.11274677515029907
  0
VERTEX
  8
0
 10
1610.4393310546875
 20
115.46154022216797
 42
-0
  0
VERTEX
  8
0
 10
1615.6412353515625
 20
118.45140075683594
 42
-0
  0
VERTEX
  8
0
 10
1630.6763916015625
 20
118.45140075683594
 42
0
  0
VERTEX
  8
0
 10
1635.87841796875
 20
115.46154022216797
 42
0.11274677515029907
  0
VERTEX
  8
0
 10
1667.1468505859375
 20
128.41337585449219
 42
-0
  0
VERTEX
  8
0
 10
1668.7110595703125
 20
134.20590209960937
 42
-0
  0
VERTEX
  8
0
 10
1679.342529296875
 20
144.83732604980469
 42
0
  0
VERTEX
  8
0
 10
1685.135009765625
 20
146.40153503417969
 42
0.11274677515029907
  0
VERTEX
  8
0
 10
1698.0869140625
 20
177.6700439453125
 42
-0
  0
VERTEX
  8
0
 10
1695.0970458984375
 20
182.87203979492187
 42
-0
  0
VERTEX
  8
0
 10
1695.0970458984375
 20
197.90715026855469
 42
0
  0
VERTEX
  8
0
 10
1698.0869140625
 20
203.109130859375
 42
0.11274677515029907
  0
VERTEX
  8
0
 10
1685.135009765625
 20
234.37763977050781
 42
-0
  0
VERTEX
  8
0
 10
1679.342529296875
 20
235.94184875488281
 42
-0
  0
VERTEX
  8
0
 10
1668.7110595703125
 20
246.57328796386719
 42
0
  0
VERTEX
  8
0
 10
1667.1468505859375
 20
252.36579895019531
 42
0.11274677515029907
  0
VERTEX
  8
0
 10
1635.87841796875
 20
265.317626953125
 42
-0
  0
VERTEX
  8
0
 10
1630.6763916015625
 20
262.32778930664062
 42
-0
  0
VERTEX
  8
0
 10
1615.6412353515625
 20
262.32778930664062
 42
0
  0
VERTEX
  8
0
 10
1610.4393310546875
 20
265.317626953125
 42
0.11274677515029907
  0
SEQEND
  0
POLYLINE
  8
0
 10
0
 20
0
 39
0
 70
1
 66
1
  0
VERTEX
  8
0
 10
1630.2298583984375
 20
197.46066284179687
 42
-1
  0
VERTEX
  8
0
 10
1616.0877685546875
 20
183.31852722167969
 42
-1
  0
SEQEND
  0
POLYLINE
  8
0
 10
0
 20
0
 39
0
 70
1
 66
1
  0
VERTEX
  8
0
 10
1677.3245849609375
 20
511.90426635742187
 42
-0
  0
VERTEX
  8
0
 10
1675.7603759765625
 20
506.11175537109375
 42
-0
  0
VERTEX
  8
0
 10
1665.1290283203125
 20
495.48031616210937
 42
0
  0
VERTEX
  8
0
 10
1659.33642578125
 20
493.91610717773437
 42
0.11274677515029907
  0
VERTEX
  8
0
 10
1646.3846435546875
 20
462.6475830078125
 42
-0
  0
VERTEX
  8
0
 10
1649.37451171875
 20
457.44561767578125
 42
-0
  0
VERTEX
  8
0
 10
1649.37451171875
 20
442.41049194335937
 42
0
  0
VERTEX
  8
0
 10
1646.3846435546875
 20
437.20849609375
 42
0.11274677515029907
  0
VERTEX
  8
0
 10
1659.33642578125
 20
405.94000244140625
 42
-0
  0
VERTEX
  8
0
 10
1665.1290283203125
 20
404.37579345703125
 42
-0
  0
VERTEX
  8
0
 10
1675.7603759765625
 20
393.74435424804687
 42
0
  0
VERTEX
  8
0
 10
1677.3245849609375
 20
387.95184326171875
 42
0.11274677515029907
  0
VERTEX
  8
0
 10
1708.5931396484375
 20
375
 42
-0
  0
VERTEX
  8
0
 10
1713.795166015625
 20
377.9898681640625
 42
-0
  0
VERTEX
  8
0
 10
1728.8302001953125
 20
377.9898681640625
 42
0
  0
VERTEX
  8
0
 10
1734.0322265625
 20
375
 42
0.11274677515029907
  0
VERTEX
  8
0
 10
1765.30078125
 20
387.95184326171875
 42
-0
  0
VERTEX
  8
0
 10
1766.864990234375
 20
393.74435424804687
 42
-0
  0
VERTEX
  8
0
 10
1777.496337890625
 20
404.37579345703125
 42
0
  0
VERTEX
  8
0
 10
1783.288818359375
 20
405.94000244140625
 42
0.11274677515029907
  0
VERTEX
  8
0
 10
1796.24072265625
 20
437.20849609375
 42
-0
  0
VERTEX
  8
0
 10
1793.2508544921875
 20
442.41049194335937
 42
-0
  0
VERTEX
  8
0
 10
1793.2508544921875
 20
457.44561767578125
 42
0
  0
VERTEX
  8
0
 10
1796.24072265625
 20
462.6475830078125
 42
0.11274677515029907
  0
VERTEX
  8
0
 10
1783.288818359375
 20
493.91610717773437
 42
-0
  0
VERTEX
  8
0
 10
1777.496337890625
 20
495.48031616210937
 42
-0
  0
VERTEX
  8
0
 10
1766.864990234375
 20
506.11175537109375
 42
0
  0
VERTEX
  8
0
 10
1765.30078125
 20
511.90426635742187
 42
0.11274677515029907
  0
VERTEX
  8
0
 10
1734.0322265625
 20
524.8560791015625
 42
-0
  0
VERTEX
  8
0
 10
1728.8302001953125
 20
521.8662109375
 42
-0
  0
VERTEX
  8
0
 10
1713.795166015625
 20
521.8662109375
 42
0
  0
VERTEX
  8
0
 10
1708.5931396484375
 20
524.8560791015625
 42
0.11274677515029907
  0
SEQEND
  0
POLYLINE
  8
0
 10
0
 20
0
 39
0
 70
1
 66
1
  0
VERTEX
  8
0
 10
1728.3837890625
 20
456.99911499023437
 42
-1
  0
VERTEX
  8
0
 10
1714.2415771484375
 20
442.85699462890625
 42
-1
  0
SEQEND
  0
POLYLINE
  8
0
 10
0
 20
0
 39
0
 70
1
 66
1
  0
VERTEX
  8
0
 10
1763.1707763671875
 20
980.67352294921875
 42
-0
  0
VERTEX
  8
0
 10
1761.6065673828125
 20
974.8809814453125
 42
-0
  0
VERTEX
  8
0
 10
1750.97509765625
 20
964.24957275390625
 42
0
  0
VERTEX
  8
0
 10
1745.1826171875
 20
962.68536376953125
 42
0.11274677515029907
  0
VERTEX
  8
0
 10
1732.230712890625
 20
931.41680908203125
 42
-0
  0
VERTEX
  8
0
 10
1735.2205810546875
 20
926.21484375
 42
-0
  0
VERTEX
  8
0
 10
1735.2205810546875
 20
911.17974853515625
 42
0
  0
VERTEX
  8
0
 10
1732.230712890625
 20
905.97772216796875
 42
0.11274677515029907
  0
VERTEX
  8
0
 10
1745.1826171875
 20
874.709228515625
 42
-0
  0
VERTEX
  8
0
 10
1750.97509765625
 20
873.14501953125
 42
-0
  0
VERTEX
  8
0
 10
1761.6065673828125
 20
862.51361083984375
 42
0
  0
VERTEX
  8
0
 10
1763.1707763671875
 20
856.7210693359375
 42
0.11274677515029907
  0
VERTEX
  8
0
 10
1794.4393310546875
 20
843.76922607421875
 42
-0
  0
VERTEX
  8
0
 10
1799.6412353515625
 20
846.75909423828125
 42
-0
  0
VERTEX
  8
0
 10
1814.6763916015625
 20
846.75909423828125
 42
0
  0
VERTEX
  8
0
 10
1819.87841796875
 20
843.76922607421875
 42
0.11274677515029907
  0
VERTEX
  8
0
 10
1851.1468505859375
 20
856.7210693359375
 42
-0
  0
VERTEX
  8
0
 10
1852.7110595703125
 20
862.51361083984375
 42
-0
  0
VERTEX
  8
0
 10
1863.342529296875
 20
873.14501953125
 42
0
  0
VERTEX
  8
0
 10
1869.135009765625
 20
874.709228515625
 42
0.11274677515029907
  0
VERTEX
  8
0
 10
1882.0869140625
 20
905.97772216796875
 42
-0
  0
VERTEX
  8
0
 10
1879.0970458984375
 20
911.17974853515625
 42
-0
  0
VERTEX
  8
0
 10
1879.0970458984375
 20
926.21484375
 42
0
  0
VERTEX
  8
0
 10
1882.0869140625
 20
931.41680908203125
 42
0.11274677515029907
  0
VERTEX
  8
0
 10
1869.135009765625
 20
962.68536376953125
 42
-0
  0
VERTEX
  8
0
 10
1863.342529296875
 20
964.24957275390625
 42
-0
  0
VERTEX
  8
0
 10
1852.7110595703125
 20
974.8809814453125
 42
0
  0
VERTEX
  8
0
 10
1851.1468505859375
 20
980.67352294921875
 42
0.11274677515029907
  0
VERTEX
  8
0
 10
1819.87841796875
 20
993.62530517578125
 42
-0
  0
VERTEX
  8
0
 10
1814.6763916015625
 20
990.635498046875
 42
-0
  0
VERTEX
  8
0
 10
1799.6412353515625
 20
990.635498046875
 42
0
  0
VERTEX
  8
0
 10
1794.4393310546875
 20
993.62530517578125
 42
0.11274677515029907
  0
SEQEND
  0
POLYLINE
  8
0
 10
0
 20
0
 39
0
 70
1
 66
1
  0
VERTEX
  8
0
 10
1814.2298583984375
 20
925.76837158203125
 42
-1
  0
VERTEX
  8
0
 10
1800.0877685546875
 20
911.626220703125
 42
-1
  0
SEQEND
  0
POLYLINE
  8
0
 10
0
 20
0
 39
0
 70
1
 66
1
  0
VERTEX
  8
0
 10
1848.4014892578125
 20
772.981201171875
 42
-0
  0
VERTEX
  8
0
 10
1846.8372802734375
 20
767.18865966796875
 42
-0
  0
VERTEX
  8
0
 10
1836.2059326171875
 20
756.5572509765625
 42
0
  0
VERTEX
  8
0
 10
1830.413330078125
 20
754.9930419921875
 42
0.11274677515029907
  0
VERTEX
  8
0
 10
1817.4615478515625
 20
723.72454833984375
 42
-0
  0
VERTEX
  8
0
 10
1820.451416015625
 20
718.52252197265625
 42
-0
  0
VERTEX
  8
0
 10
1820.451416015625
 20
703.4874267578125
 42
0
  0
VERTEX
  8
0
 10
1817.4615478515625
 20
698.285400390625
 42
0.11274677515029907
  0
VERTEX
  8
0
 10
1830.413330078125
 20
667.01690673828125
 42
-0
  0
VERTEX
  8
0
 10
1836.2059326171875
 20
665.45269775390625
 42
-0
  0
VERTEX
  8
0
 10
1846.8372802734375
 20
654.8212890625
 42
0
  0
VERTEX
  8
0
 10
1848.4014892578125
 20
649.02874755859375
 42
0.11274677515029907
  0
VERTEX
  8
0
 10
1879.6700439453125
 20
636.076904296875
 42
-0
  0
VERTEX
  8
0
 10
1884.8720703125
 20
639.0667724609375
 42
-0
  0
VERTEX
  8
0
 10
1899.9071044921875
 20
639.0667724609375
 42
0
  0
VERTEX
  8
0
 10
1905.109130859375
 20
636.076904296875
 42
0.11274677515029907
  0
VERTEX
  8
0
 10
1936.377685546875
 20
649.02874755859375
 42
-0
  0
VERTEX
  8
0
 10
1937.94189453125
 20
654.8212890625
 42
-0
  0
VERTEX
  8
0
 10
1948.5732421875
 20
665.45269775390625
 42
0
  0
VERTEX
  8
0
 10
1954.3658447265625
 20
667.01690673828125
 42
0.11274677515029907
  0
VERTEX
  8
0
 10
1967.317626953125
 20
698.285400390625
 42
-0
  0
VERTEX
  8
0
 10
1964.3277587890625
 20
703.4874267578125
 42
-0
  0
VERTEX
  8
0
 10
1964.3277587890625
 20
718.52252197265625
 42
0
  0
VERTEX
  8
0
 10
1967.317626953125
 20
723.72454833984375
 42
0.11274677515029907
  0
VERTEX
  8
0
 10
1954.3658447265625
 20
754.9930419921875
 42
-0
  0
VERTEX
  8
0
 10
1948.5732421875
 20
756.5572509765625
 42
-0
  0
VERTEX
  8
0
 10
1937.94189453125
 20
767.18865966796875
 42
0
  0
VERTEX
  8
0
 10
1936.377685546875
 20
772.981201171875
 42
0.11274677515029907
  0
VERTEX
  8
0
 10
1905.109130859375
 20
785.93304443359375
 42
-0
  0
VERTEX
  8
0
 10
1899.9071044921875
 20
782.94317626953125
 42
-0
  0
VERTEX
  8
0
 10
1884.8720703125
 20
782.94317626953125
 42
0
  0
VERTEX
  8
0
 10
1879.6700439453125
 20
785.93304443359375
 42
0.11274677515029907
  0
SEQEND
  0
POLYLINE
  8
0
 10
0
 20
0
 39
0
 70
1
 66
1
  0
VERTEX
  8
0
 10
1899.460693359375
 20
718.0760498046875
 42
-1
  0
VERTEX
  8
0
 10
1885.3184814453125
 20
703.93389892578125
 42
-1
  0
SEQEND
  0
POLYLINE
  8
0
 10
0
 20
0
 39
0
 70
1
 66
1
  0
VERTEX
  8
0
 10
1781.0361328125
 20
121.8924560546875
 42
-0.41421392560005188
  0
VERTEX
  8
0
 10
1777.79150390625
 20
117.25863647460937
 42
-0
  0
VERTEX
  8
0
 10
1772.867431640625
 20
116.39039611816406
 42
1
  0
VERTEX
  8
0
 10
1783.286376953125
 20
57.301921844482422
 42
-0
  0
VERTEX
  8
0
 10
1856.9305419921875
 20
70.287368774414063
 42
0.36396992206573486
  0
VERTEX
  8
0
 10
1863.541259765625
 20
78.165840148925781
 42
-0
  0
VERTEX
  8
0
 10
1863.541259765625
 20
229.85958862304687
 42
-0
  0
VERTEX
  8
0
 10
1861.8048095703125
 20
239.70767211914062
 42
-0
  0
VERTEX
  8
0
 10
1802.71630859375
 20
229.28877258300781
 42
-0
  0
VERTEX
  8
0
 10
1794.604736328125
 20
217.70420837402344
 42
-0
  0
VERTEX
  8
0
 10
1804.8499755859375
 20
159.60055541992187
 42
-0
  0
VERTEX
  8
0
 10
1775.3057861328125
 20
154.39111328125
 42
-0
  0
SEQEND
  0
POLYLINE
  8
0
 10
0
 20
0
 39
0
 70
1
 66
1
  0
VERTEX
  8
0
 10
1779.6422119140625
 20
95.245559692382812
 42
-1
  0
VERTEX
  8
0
 10
1782.4205322265625
 20
79.488632202148438
 42
-1
  0
SEQEND
  0
POLYLINE
  8
0
 10
0
 20
0
 39
0
 70
1
 66
1
  0
VERTEX
  8
0
 10
1830.1676025390625
 20
96.640396118164063
 42
-1
  0
VERTEX
  8
0
 10
1832.459716796875
 20
83.640922546386719
 42
-1
  0
SEQEND
  0
POLYLINE
  8
0
 10
0
 20
0
 39
0
 70
1
 66
1
  0
VERTEX
  8
0
 10
1810.3536376953125
 20
1107.0361328125
 42
-0.41421392560005188
  0
VERTEX
  8
0
 10
1814.987548828125
 20
1103.79150390625
 42
-0
  0
VERTEX
  8
0
 10
1815.855712890625
 20
1098.867431640625
 42
1
  0
VERTEX
  8
0
 10
1874.9442138671875
 20
1109.286376953125
 42
-0
  0
VERTEX
  8
0
 10
1861.958740234375
 20
1182.9305419921875
 42
0.36396992206573486
  0
VERTEX
  8
0
 10
1854.080322265625
 20
1189.541259765625
 42
-0
  0
VERTEX
  8
0
 10
1702.3865966796875
 20
1189.541259765625
 42
-0
  0
VERTEX
  8
0
 10
1692.5384521484375
 20
1187.8048095703125
 42
-0
  0
VERTEX
  8
0
 10
1702.9573974609375
 20
1128.71630859375
 42
-0
  0
VERTEX
  8
0
 10
1714.5418701171875
 20
1120.604736328125
 42
-0
  0
VERTEX
  8
0
 10
1772.6455078125
 20
1130.8499755859375
 42
-0
  0
VERTEX
  8
0
 10
1777.85498046875
 20
1101.3057861328125
 42
-0
  0
SEQEND
  0
POLYLINE
  8
0
 10
0
 20
0
 39
0
 70
1
 66
1
  0
VERTEX
  8
0
 10
1837.0006103515625
 20
1105.6422119140625
 42
-1
  0
VERTEX
  8
0
 10
1852.7574462890625
 20
1108.4205322265625
 42
-1
  0
SEQEND
  0
POLYLINE
  8
0
 10
0
 20
0
 39
0
 70
1
 66
1
  0
VERTEX
  8
0
 10
1835.605712890625
 20
1156.1676025390625
 42
-1
  0
VERTEX
  8
0
 10
1848.605224609375
 20
1158.459716796875
 42
-1
  0
SEQEND
  0
ENDSEC
  0
EOF
