  0
SECTION
  2
ENTITIES
  0
POLYLINE
  8
0
 10
0
 20
0
 39
0
 70
1
 66
1
  0
VERTEX
  8
0
 10
0
 20
0
 42
0
  0
VERTEX
  8
0
 10
2000
 20
0
 42
0
  0
VERTEX
  8
0
 10
2000
 20
900
 42
0
  0
VERTEX
  8
0
 10
0
 20
900
 42
0
  0
SEQEND
  0
POLYLINE
  8
0
 10
0
 20
0
 39
0
 70
1
 66
1
  0
VERTEX
  8
0
 10
719.03921508789062
 20
550
 42
0
  0
VERTEX
  8
0
 10
719.03921508789062
 20
10
 42
0
  0
VERTEX
  8
0
 10
744.03921508789062
 20
10
 42
-0
  0
VERTEX
  8
0
 10
819.03921508789062
 20
119
 42
-0
  0
VERTEX
  8
0
 10
819.03921508789062
 20
550
 42
-0
  0
SEQEND
  0
POLYLINE
  8
0
 10
0
 20
0
 39
0
 70
1
 66
1
  0
VERTEX
  8
0
 10
794.66964721679687
 20
119
 42
0
  0
VERTEX
  8
0
 10
744.03921508789062
 20
41.805694580078125
 42
0
  0
VERTEX
  8
0
 10
734.03921508789062
 20
41.805694580078125
 42
0
  0
VERTEX
  8
0
 10
734.03921508789062
 20
129
 42
-0
  0
VERTEX
  8
0
 10
794.66964721679687
 20
129
 42
-0
  0
SEQEND
  0
POLYLINE
  8
0
 10
0
 20
0
 39
0
 70
1
 66
1
  0
VERTEX
  8
0
 10
781.53921508789062
 20
363.74818420410156
 42
0
  0
VERTEX
  8
0
 10
781.53921508789062
 20
163.8565673828125
 42
-0.19785122573375702
  0
VERTEX
  8
0
 10
757.16964340209961
 20
163.596923828125
 42
-0
  0
VERTEX
  8
0
 10
757.16964340209961
 20
363.74818420410156
 42
-0.19997029006481171
  0
SEQEND
  0
POLYLINE
  8
0
 10
0
 20
0
 39
0
 70
1
 66
1
  0
VERTEX
  8
0
 10
1640
 20
860
 42
0
  0
VERTEX
  8
0
 10
1640
 20
560
 42
-0
  0
VERTEX
  8
0
 10
1690
 20
560
 42
-0
  0
VERTEX
  8
0
 10
1690
 20
634.58770751953125
 42
0
  0
VERTEX
  8
0
 10
1681.6221580505371
 20
634.58770751953125
 42
-0
  0
VERTEX
  8
0
 10
1681.6221580505371
 20
785.41229248046875
 42
-0
  0
VERTEX
  8
0
 10
1690
 20
785.41229248046875
 42
-0
  0
VERTEX
  8
0
 10
1690
 20
860
 42
-0
  0
SEQEND
  0
POLYLINE
  8
0
 10
0
 20
0
 39
0
 70
1
 66
1
  0
VERTEX
  8
0
 10
1665
 20
841.01749420166016
 42
-1
  0
VERTEX
  8
0
 10
1665
 20
813.01749420166016
 42
-1
  0
SEQEND
  0
POLYLINE
  8
0
 10
0
 20
0
 39
0
 70
1
 66
1
  0
VERTEX
  8
0
 10
1665
 20
606.98251342773437
 42
-1
  0
VERTEX
  8
0
 10
1665
 20
578.98251342773437
 42
-1
  0
SEQEND
  0
POLYLINE
  8
0
 10
0
 20
0
 39
0
 70
1
 66
1
  0
VERTEX
  8
0
 10
1919.0392150878906
 20
310
 42
0
  0
VERTEX
  8
0
 10
1919.0392150878906
 20
10
 42
-0
  0
VERTEX
  8
0
 10
1969.0392150878906
 20
10
 42
-0
  0
VERTEX
  8
0
 10
1969.0392150878906
 20
84.58770751953125
 42
0
  0
VERTEX
  8
0
 10
1960.6613731384277
 20
84.58770751953125
 42
-0
  0
VERTEX
  8
0
 10
1960.6613731384277
 20
235.41229248046875
 42
-0
  0
VERTEX
  8
0
 10
1969.0392150878906
 20
235.41229248046875
 42
-0
  0
VERTEX
  8
0
 10
1969.0392150878906
 20
310
 42
-0
  0
SEQEND
  0
POLYLINE
  8
0
 10
0
 20
0
 39
0
 70
1
 66
1
  0
VERTEX
  8
0
 10
1944.0392150878906
 20
291.01749420166016
 42
-1
  0
VERTEX
  8
0
 10
1944.0392150878906
 20
263.01749420166016
 42
-1
  0
SEQEND
  0
POLYLINE
  8
0
 10
0
 20
0
 39
0
 70
1
 66
1
  0
VERTEX
  8
0
 10
1944.0392150878906
 20
56.982513427734375
 42
-1
  0
VERTEX
  8
0
 10
1944.0392150878906
 20
28.982513427734375
 42
-1
  0
SEQEND
  0
POLYLINE
  8
0
 10
0
 20
0
 39
0
 70
1
 66
1
  0
VERTEX
  8
0
 10
1520
 20
860
 42
0
  0
VERTEX
  8
0
 10
1520
 20
560
 42
-0
  0
VERTEX
  8
0
 10
1570
 20
560
 42
-0
  0
VERTEX
  8
0
 10
1570
 20
634.58770751953125
 42
0
  0
VERTEX
  8
0
 10
1561.6221580505371
 20
634.58770751953125
 42
-0
  0
VERTEX
  8
0
 10
1561.6221580505371
 20
785.41229248046875
 42
-0
  0
VERTEX
  8
0
 10
1570
 20
785.41229248046875
 42
-0
  0
VERTEX
  8
0
 10
1570
 20
860
 42
-0
  0
SEQEND
  0
POLYLINE
  8
0
 10
0
 20
0
 39
0
 70
1
 66
1
  0
VERTEX
  8
0
 10
1545
 20
841.01749420166016
 42
-1
  0
VERTEX
  8
0
 10
1545
 20
813.01749420166016
 42
-1
  0
SEQEND
  0
POLYLINE
  8
0
 10
0
 20
0
 39
0
 70
1
 66
1
  0
VERTEX
  8
0
 10
1545
 20
606.98251342773437
 42
-1
  0
VERTEX
  8
0
 10
1545
 20
578.98251342773437
 42
-1
  0
SEQEND
  0
POLYLINE
  8
0
 10
0
 20
0
 39
0
 70
1
 66
1
  0
VERTEX
  8
0
 10
1880
 20
620
 42
0
  0
VERTEX
  8
0
 10
1880
 20
320
 42
-0
  0
VERTEX
  8
0
 10
1930
 20
320
 42
-0
  0
VERTEX
  8
0
 10
1930
 20
394.58770751953125
 42
0
  0
VERTEX
  8
0
 10
1921.6221580505371
 20
394.58770751953125
 42
-0
  0
VERTEX
  8
0
 10
1921.6221580505371
 20
545.41229248046875
 42
-0
  0
VERTEX
  8
0
 10
1930
 20
545.41229248046875
 42
-0
  0
VERTEX
  8
0
 10
1930
 20
620
 42
-0
  0
SEQEND
  0
POLYLINE
  8
0
 10
0
 20
0
 39
0
 70
1
 66
1
  0
VERTEX
  8
0
 10
1905
 20
601.01749420166016
 42
-1
  0
VERTEX
  8
0
 10
1905
 20
573.01749420166016
 42
-1
  0
SEQEND
  0
POLYLINE
  8
0
 10
0
 20
0
 39
0
 70
1
 66
1
  0
VERTEX
  8
0
 10
1905
 20
366.98251342773437
 42
-1
  0
VERTEX
  8
0
 10
1905
 20
338.98251342773437
 42
-1
  0
SEQEND
  0
POLYLINE
  8
0
 10
0
 20
0
 39
0
 70
1
 66
1
  0
VERTEX
  8
0
 10
1760
 20
860
 42
0
  0
VERTEX
  8
0
 10
1760
 20
560
 42
-0
  0
VERTEX
  8
0
 10
1810
 20
560
 42
-0
  0
VERTEX
  8
0
 10
1810
 20
634.58770751953125
 42
0
  0
VERTEX
  8
0
 10
1801.6221580505371
 20
634.58770751953125
 42
-0
  0
VERTEX
  8
0
 10
1801.6221580505371
 20
785.41229248046875
 42
-0
  0
VERTEX
  8
0
 10
1810
 20
785.41229248046875
 42
-0
  0
VERTEX
  8
0
 10
1810
 20
860
 42
-0
  0
SEQEND
  0
POLYLINE
  8
0
 10
0
 20
0
 39
0
 70
1
 66
1
  0
VERTEX
  8
0
 10
1785
 20
841.01749420166016
 42
-1
  0
VERTEX
  8
0
 10
1785
 20
813.01749420166016
 42
-1
  0
SEQEND
  0
POLYLINE
  8
0
 10
0
 20
0
 39
0
 70
1
 66
1
  0
VERTEX
  8
0
 10
1785
 20
606.98251342773437
 42
-1
  0
VERTEX
  8
0
 10
1785
 20
578.98251342773437
 42
-1
  0
SEQEND
  0
POLYLINE
  8
0
 10
0
 20
0
 39
0
 70
1
 66
1
  0
VERTEX
  8
0
 10
1700
 20
860
 42
0
  0
VERTEX
  8
0
 10
1700
 20
560
 42
-0
  0
VERTEX
  8
0
 10
1750
 20
560
 42
-0
  0
VERTEX
  8
0
 10
1750
 20
634.58770751953125
 42
0
  0
VERTEX
  8
0
 10
1741.6221580505371
 20
634.58770751953125
 42
-0
  0
VERTEX
  8
0
 10
1741.6221580505371
 20
785.41229248046875
 42
-0
  0
VERTEX
  8
0
 10
1750
 20
785.41229248046875
 42
-0
  0
VERTEX
  8
0
 10
1750
 20
860
 42
-0
  0
SEQEND
  0
POLYLINE
  8
0
 10
0
 20
0
 39
0
 70
1
 66
1
  0
VERTEX
  8
0
 10
1725
 20
841.01749420166016
 42
-1
  0
VERTEX
  8
0
 10
1725
 20
813.01749420166016
 42
-1
  0
SEQEND
  0
POLYLINE
  8
0
 10
0
 20
0
 39
0
 70
1
 66
1
  0
VERTEX
  8
0
 10
1725
 20
606.98251342773437
 42
-1
  0
VERTEX
  8
0
 10
1725
 20
578.98251342773437
 42
-1
  0
SEQEND
  0
POLYLINE
  8
0
 10
0
 20
0
 39
0
 70
1
 66
1
  0
VERTEX
  8
0
 10
1329.0392150878906
 20
720
 42
0
  0
VERTEX
  8
0
 10
1329.0392150878906
 20
420
 42
-0
  0
VERTEX
  8
0
 10
1379.0392150878906
 20
420
 42
-0
  0
VERTEX
  8
0
 10
1379.0392150878906
 20
494.58770751953125
 42
0
  0
VERTEX
  8
0
 10
1370.6613731384277
 20
494.58770751953125
 42
-0
  0
VERTEX
  8
0
 10
1370.6613731384277
 20
645.41229248046875
 42
-0
  0
VERTEX
  8
0
 10
1379.0392150878906
 20
645.41229248046875
 42
-0
  0
VERTEX
  8
0
 10
1379.0392150878906
 20
720
 42
-0
  0
SEQEND
  0
POLYLINE
  8
0
 10
0
 20
0
 39
0
 70
1
 66
1
  0
VERTEX
  8
0
 10
1354.0392150878906
 20
701.01749420166016
 42
-1
  0
VERTEX
  8
0
 10
1354.0392150878906
 20
673.01749420166016
 42
-1
  0
SEQEND
  0
POLYLINE
  8
0
 10
0
 20
0
 39
0
 70
1
 66
1
  0
VERTEX
  8
0
 10
1354.0392150878906
 20
466.98251342773437
 42
-1
  0
VERTEX
  8
0
 10
1354.0392150878906
 20
438.98251342773437
 42
-1
  0
SEQEND
  0
POLYLINE
  8
0
 10
0
 20
0
 39
0
 70
1
 66
1
  0
VERTEX
  8
0
 10
1940
 20
620
 42
0
  0
VERTEX
  8
0
 10
1940
 20
320
 42
-0
  0
VERTEX
  8
0
 10
1990
 20
320
 42
-0
  0
VERTEX
  8
0
 10
1990
 20
394.58770751953125
 42
0
  0
VERTEX
  8
0
 10
1981.6221580505371
 20
394.58770751953125
 42
-0
  0
VERTEX
  8
0
 10
1981.6221580505371
 20
545.41229248046875
 42
-0
  0
VERTEX
  8
0
 10
1990
 20
545.41229248046875
 42
-0
  0
VERTEX
  8
0
 10
1990
 20
620
 42
-0
  0
SEQEND
  0
POLYLINE
  8
0
 10
0
 20
0
 39
0
 70
1
 66
1
  0
VERTEX
  8
0
 10
1965
 20
601.01749420166016
 42
-1
  0
VERTEX
  8
0
 10
1965
 20
573.01749420166016
 42
-1
  0
SEQEND
  0
POLYLINE
  8
0
 10
0
 20
0
 39
0
 70
1
 66
1
  0
VERTEX
  8
0
 10
1965
 20
366.98251342773437
 42
-1
  0
VERTEX
  8
0
 10
1965
 20
338.98251342773437
 42
-1
  0
SEQEND
  0
POLYLINE
  8
0
 10
0
 20
0
 39
0
 70
1
 66
1
  0
VERTEX
  8
0
 10
1580
 20
860
 42
0
  0
VERTEX
  8
0
 10
1580
 20
560
 42
-0
  0
VERTEX
  8
0
 10
1630
 20
560
 42
-0
  0
VERTEX
  8
0
 10
1630
 20
634.58770751953125
 42
0
  0
VERTEX
  8
0
 10
1621.6221580505371
 20
634.58770751953125
 42
-0
  0
VERTEX
  8
0
 10
1621.6221580505371
 20
785.41229248046875
 42
-0
  0
VERTEX
  8
0
 10
1630
 20
785.41229248046875
 42
-0
  0
VERTEX
  8
0
 10
1630
 20
860
 42
-0
  0
SEQEND
  0
POLYLINE
  8
0
 10
0
 20
0
 39
0
 70
1
 66
1
  0
VERTEX
  8
0
 10
1605
 20
841.01749420166016
 42
-1
  0
VERTEX
  8
0
 10
1605
 20
813.01749420166016
 42
-1
  0
SEQEND
  0
POLYLINE
  8
0
 10
0
 20
0
 39
0
 70
1
 66
1
  0
VERTEX
  8
0
 10
1605
 20
606.98251342773437
 42
-1
  0
VERTEX
  8
0
 10
1605
 20
578.98251342773437
 42
-1
  0
SEQEND
  0
POLYLINE
  8
0
 10
0
 20
0
 39
0
 70
1
 66
1
  0
VERTEX
  8
0
 10
499.03921508789063
 20
560
 42
0
  0
VERTEX
  8
0
 10
1039.0392150878906
 20
560
 42
0
  0
VERTEX
  8
0
 10
1039.0392150878906
 20
585
 42
-0
  0
VERTEX
  8
0
 10
930.03921508789062
 20
660
 42
-0
  0
VERTEX
  8
0
 10
499.03921508789063
 20
660
 42
-0
  0
SEQEND
  0
POLYLINE
  8
0
 10
0
 20
0
 39
0
 70
1
 66
1
  0
VERTEX
  8
0
 10
930.03921508789062
 20
635.63043212890625
 42
0
  0
VERTEX
  8
0
 10
1007.2335205078125
 20
585
 42
0
  0
VERTEX
  8
0
 10
1007.2335205078125
 20
575
 42
0
  0
VERTEX
  8
0
 10
920.03921508789062
 20
575
 42
-0
  0
VERTEX
  8
0
 10
920.03921508789062
 20
635.63043212890625
 42
-0
  0
SEQEND
  0
POLYLINE
  8
0
 10
0
 20
0
 39
0
 70
1
 66
1
  0
VERTEX
  8
0
 10
685.29103088378906
 20
622.5
 42
0
  0
VERTEX
  8
0
 10
885.18264770507812
 20
622.5
 42
-0.19785122573375702
  0
VERTEX
  8
0
 10
885.44229125976562
 20
598.13042831420898
 42
-0
  0
VERTEX
  8
0
 10
685.29103088378906
 20
598.13042831420898
 42
-0.19997029006481171
  0
SEQEND
  0
POLYLINE
  8
0
 10
0
 20
0
 39
0
 70
1
 66
1
  0
VERTEX
  8
0
 10
829.03921508789062
 20
550
 42
0
  0
VERTEX
  8
0
 10
829.03921508789062
 20
10
 42
0
  0
VERTEX
  8
0
 10
854.03921508789062
 20
10
 42
-0
  0
VERTEX
  8
0
 10
929.03921508789062
 20
119
 42
-0
  0
VERTEX
  8
0
 10
929.03921508789062
 20
550
 42
-0
  0
SEQEND
  0
POLYLINE
  8
0
 10
0
 20
0
 39
0
 70
1
 66
1
  0
VERTEX
  8
0
 10
904.66964721679687
 20
119
 42
0
  0
VERTEX
  8
0
 10
854.03921508789062
 20
41.805694580078125
 42
0
  0
VERTEX
  8
0
 10
844.03921508789062
 20
41.805694580078125
 42
0
  0
VERTEX
  8
0
 10
844.03921508789062
 20
129
 42
-0
  0
VERTEX
  8
0
 10
904.66964721679687
 20
129
 42
-0
  0
SEQEND
  0
POLYLINE
  8
0
 10
0
 20
0
 39
0
 70
1
 66
1
  0
VERTEX
  8
0
 10
891.53921508789062
 20
363.74818420410156
 42
0
  0
VERTEX
  8
0
 10
891.53921508789062
 20
163.8565673828125
 42
-0.19785122573375702
  0
VERTEX
  8
0
 10
867.16964340209961
 20
163.596923828125
 42
-0
  0
VERTEX
  8
0
 10
867.16964340209961
 20
363.74818420410156
 42
-0.19997029006481171
  0
SEQEND
  0
POLYLINE
  8
0
 10
0
 20
0
 39
0
 70
1
 66
1
  0
VERTEX
  8
0
 10
1820
 20
620
 42
0
  0
VERTEX
  8
0
 10
1820
 20
320
 42
-0
  0
VERTEX
  8
0
 10
1870
 20
320
 42
-0
  0
VERTEX
  8
0
 10
1870
 20
394.58770751953125
 42
0
  0
VERTEX
  8
0
 10
1861.6221580505371
 20
394.58770751953125
 42
-0
  0
VERTEX
  8
0
 10
1861.6221580505371
 20
545.41229248046875
 42
-0
  0
VERTEX
  8
0
 10
1870
 20
545.41229248046875
 42
-0
  0
VERTEX
  8
0
 10
1870
 20
620
 42
-0
  0
SEQEND
  0
POLYLINE
  8
0
 10
0
 20
0
 39
0
 70
1
 66
1
  0
VERTEX
  8
0
 10
1845
 20
601.01749420166016
 42
-1
  0
VERTEX
  8
0
 10
1845
 20
573.01749420166016
 42
-1
  0
SEQEND
  0
POLYLINE
  8
0
 10
0
 20
0
 39
0
 70
1
 66
1
  0
VERTEX
  8
0
 10
1845
 20
366.98251342773437
 42
-1
  0
VERTEX
  8
0
 10
1845
 20
338.98251342773437
 42
-1
  0
SEQEND
  0
POLYLINE
  8
0
 10
0
 20
0
 39
0
 70
1
 66
1
  0
VERTEX
  8
0
 10
1799.0392150878906
 20
310
 42
0
  0
VERTEX
  8
0
 10
1799.0392150878906
 20
10
 42
-0
  0
VERTEX
  8
0
 10
1849.0392150878906
 20
10
 42
-0
  0
VERTEX
  8
0
 10
1849.0392150878906
 20
84.58770751953125
 42
0
  0
VERTEX
  8
0
 10
1840.6613731384277
 20
84.58770751953125
 42
-0
  0
VERTEX
  8
0
 10
1840.6613731384277
 20
235.41229248046875
 42
-0
  0
VERTEX
  8
0
 10
1849.0392150878906
 20
235.41229248046875
 42
-0
  0
VERTEX
  8
0
 10
1849.0392150878906
 20
310
 42
-0
  0
SEQEND
  0
POLYLINE
  8
0
 10
0
 20
0
 39
0
 70
1
 66
1
  0
VERTEX
  8
0
 10
1824.0392150878906
 20
291.01749420166016
 42
-1
  0
VERTEX
  8
0
 10
1824.0392150878906
 20
263.01749420166016
 42
-1
  0
SEQEND
  0
POLYLINE
  8
0
 10
0
 20
0
 39
0
 70
1
 66
1
  0
VERTEX
  8
0
 10
1824.0392150878906
 20
56.982513427734375
 42
-1
  0
VERTEX
  8
0
 10
1824.0392150878906
 20
28.982513427734375
 42
-1
  0
SEQEND
  0
POLYLINE
  8
0
 10
0
 20
0
 39
0
 70
1
 66
1
  0
VERTEX
  8
0
 10
1049.0392150878906
 20
660
 42
0
  0
VERTEX
  8
0
 10
1049.0392150878906
 20
260
 42
-0
  0
VERTEX
  8
0
 10
1109.0392150878906
 20
260
 42
-0
  0
VERTEX
  8
0
 10
1109.0392150878906
 20
660
 42
-0
  0
SEQEND
  0
POLYLINE
  8
0
 10
0
 20
0
 39
0
 70
1
 66
1
  0
VERTEX
  8
0
 10
1079.0392150878906
 20
632.35481071472168
 42
-1
  0
VERTEX
  8
0
 10
1079.0392150878906
 20
606.35481262207031
 42
-1
  0
SEQEND
  0
POLYLINE
  8
0
 10
0
 20
0
 39
0
 70
1
 66
1
  0
VERTEX
  8
0
 10
1079.0392150878906
 20
595.04728698730469
 42
-1
  0
VERTEX
  8
0
 10
1079.0392150878906
 20
569.04728698730469
 42
-1
  0
SEQEND
  0
POLYLINE
  8
0
 10
0
 20
0
 39
0
 70
1
 66
1
  0
VERTEX
  8
0
 10
1079.0392150878906
 20
557.19112396240234
 42
-1
  0
VERTEX
  8
0
 10
1079.0392150878906
 20
531.19111633300781
 42
-1
  0
SEQEND
  0
POLYLINE
  8
0
 10
0
 20
0
 39
0
 70
1
 66
1
  0
VERTEX
  8
0
 10
560
 20
670
 42
0
  0
VERTEX
  8
0
 10
1100
 20
670
 42
0
  0
VERTEX
  8
0
 10
1100
 20
695
 42
-0
  0
VERTEX
  8
0
 10
991
 20
770
 42
-0
  0
VERTEX
  8
0
 10
560
 20
770
 42
-0
  0
SEQEND
  0
POLYLINE
  8
0
 10
0
 20
0
 39
0
 70
1
 66
1
  0
VERTEX
  8
0
 10
991
 20
745.63043212890625
 42
0
  0
VERTEX
  8
0
 10
1068.1943054199219
 20
695
 42
0
  0
VERTEX
  8
0
 10
1068.1943054199219
 20
685
 42
0
  0
VERTEX
  8
0
 10
981
 20
685
 42
-0
  0
VERTEX
  8
0
 10
981
 20
745.63043212890625
 42
-0
  0
SEQEND
  0
POLYLINE
  8
0
 10
0
 20
0
 39
0
 70
1
 66
1
  0
VERTEX
  8
0
 10
746.25181579589844
 20
732.5
 42
0
  0
VERTEX
  8
0
 10
946.1434326171875
 20
732.5
 42
-0.19785122573375702
  0
VERTEX
  8
0
 10
946.403076171875
 20
708.13042831420898
 42
-0
  0
VERTEX
  8
0
 10
746.25181579589844
 20
708.13042831420898
 42
-0.19997029006481171
  0
SEQEND
  0
POLYLINE
  8
0
 10
0
 20
0
 39
0
 70
1
 66
1
  0
VERTEX
  8
0
 10
1920
 20
853.81883239746094
 42
0
  0
VERTEX
  8
0
 10
1920
 20
653.81883239746094
 42
0
  0
VERTEX
  8
0
 10
1940
 20
630
 42
0
  0
VERTEX
  8
0
 10
1960
 20
653.81883239746094
 42
-0
  0
VERTEX
  8
0
 10
1960
 20
853.81883239746094
 42
-0
  0
VERTEX
  8
0
 10
1940
 20
877.63766098022461
 42
-0
  0
SEQEND
  0
POLYLINE
  8
0
 10
0
 20
0
 39
0
 70
1
 66
1
  0
VERTEX
  8
0
 10
1940
 20
853.81883239746094
 42
0
  0
VERTEX
  8
0
 10
1950
 20
843.51878833770752
 42
0
  0
VERTEX
  8
0
 10
1950
 20
794.5187873840332
 42
0
  0
VERTEX
  8
0
 10
1940
 20
797.40044784545898
 42
0
  0
VERTEX
  8
0
 10
1930
 20
794.5187873840332
 42
-0
  0
VERTEX
  8
0
 10
1930
 20
843.51878833770752
 42
-0
  0
SEQEND
  0
POLYLINE
  8
0
 10
0
 20
0
 39
0
 70
1
 66
1
  0
VERTEX
  8
0
 10
1940
 20
791.41520690917969
 42
-1
  0
VERTEX
  8
0
 10
1940
 20
771.41520690917969
 42
-1
  0
SEQEND
  0
POLYLINE
  8
0
 10
0
 20
0
 39
0
 70
1
 66
1
  0
VERTEX
  8
0
 10
376.77941131591797
 20
677.48936483630189
 42
0
  0
VERTEX
  8
0
 10
376.77941131591803
 20
518.49807379015931
 42
0
  0
VERTEX
  8
0
 10
411.90931320190435
 20
518.49807379015931
 42
0
  0
VERTEX
  8
0
 10
411.90931320190435
 20
478.49807379015931
 42
0
  0
VERTEX
  8
0
 10
376.77941131591803
 20
478.49807379015931
 42
0
  0
VERTEX
  8
0
 10
376.77941131591808
 20
236.05814764269837
 42
0
  0
VERTEX
  8
0
 10
411.90931320190441
 20
236.05814764269837
 42
0
  0
VERTEX
  8
0
 10
411.90931320190441
 20
196.05811712512025
 42
0
  0
VERTEX
  8
0
 10
376.77941131591808
 20
196.05811712512025
 42
0
  0
VERTEX
  8
0
 10
376.77941131591803
 20
36.906383726682748
 42
0.47935917973518372
  0
VERTEX
  8
0
 10
489.03921508789074
 20
36.906383726682748
 42
-0
  0
VERTEX
  8
0
 10
489.03921508789074
 20
196.05811712512025
 42
-0
  0
VERTEX
  8
0
 10
453.90930938720714
 20
196.05811712512025
 42
-0
  0
VERTEX
  8
0
 10
453.90930938720714
 20
236.05814764269837
 42
-0
  0
VERTEX
  8
0
 10
489.03921508789074
 20
236.05814764269837
 42
-0
  0
VERTEX
  8
0
 10
489.03921508789068
 20
478.49807379015931
 42
-0
  0
VERTEX
  8
0
 10
453.90930938720709
 20
478.49807379015931
 42
-0
  0
VERTEX
  8
0
 10
453.90930938720709
 20
518.49807379015931
 42
-0
  0
VERTEX
  8
0
 10
489.03921508789068
 20
518.49807379015931
 42
-0
  0
VERTEX
  8
0
 10
489.03921508789068
 20
677.48936483630189
 42
0.47935917973518372
  0
SEQEND
  0
POLYLINE
  8
0
 10
0
 20
0
 39
0
 70
1
 66
1
  0
VERTEX
  8
0
 10
432.90931320190435
 20
393.14808294543275
 42
-1
  0
VERTEX
  8
0
 10
432.90931320190435
 20
329.14808294543275
 42
-1
  0
SEQEND
  0
POLYLINE
  8
0
 10
0
 20
0
 39
0
 70
1
 66
1
  0
VERTEX
  8
0
 10
10
 20
677.48936483630189
 42
0
  0
VERTEX
  8
0
 10
10.000000000000043
 20
518.49807379015931
 42
0
  0
VERTEX
  8
0
 10
45.129901885986371
 20
518.49807379015931
 42
0
  0
VERTEX
  8
0
 10
45.129901885986371
 20
478.49807379015931
 42
0
  0
VERTEX
  8
0
 10
10.000000000000048
 20
478.49807379015931
 42
0
  0
VERTEX
  8
0
 10
10.000000000000064
 20
236.05814764269837
 42
0
  0
VERTEX
  8
0
 10
45.129901885986385
 20
236.05814764269837
 42
0
  0
VERTEX
  8
0
 10
45.129901885986399
 20
196.05811712512025
 42
0
  0
VERTEX
  8
0
 10
10.000000000000064
 20
196.05811712512025
 42
0
  0
VERTEX
  8
0
 10
10.00000000000006
 20
36.906383726682748
 42
0.47935917973518372
  0
VERTEX
  8
0
 10
122.25980377197273
 20
36.906383726682748
 42
-0
  0
VERTEX
  8
0
 10
122.25980377197271
 20
196.05811712512025
 42
-0
  0
VERTEX
  8
0
 10
87.129898071289119
 20
196.05811712512025
 42
-0
  0
VERTEX
  8
0
 10
87.129898071289119
 20
236.05814764269837
 42
-0
  0
VERTEX
  8
0
 10
122.25980377197271
 20
236.05814764269837
 42
-0
  0
VERTEX
  8
0
 10
122.2598037719727
 20
478.49807379015931
 42
-0
  0
VERTEX
  8
0
 10
87.129898071289105
 20
478.49807379015931
 42
-0
  0
VERTEX
  8
0
 10
87.129898071289105
 20
518.49807379015931
 42
-0
  0
VERTEX
  8
0
 10
122.2598037719727
 20
518.49807379015931
 42
-0
  0
VERTEX
  8
0
 10
122.25980377197268
 20
677.48936483630189
 42
0.47935917973518372
  0
SEQEND
  0
POLYLINE
  8
0
 10
0
 20
0
 39
0
 70
1
 66
1
  0
VERTEX
  8
0
 10
66.129901885986385
 20
393.14808294543275
 42
-1
  0
VERTEX
  8
0
 10
66.129901885986385
 20
329.14808294543275
 42
-1
  0
SEQEND
  0
POLYLINE
  8
0
 10
0
 20
0
 39
0
 70
1
 66
1
  0
VERTEX
  8
0
 10
1189.0392150878906
 20
820
 42
0
  0
VERTEX
  8
0
 10
1189.0392150878906
 20
420
 42
-0
  0
VERTEX
  8
0
 10
1249.0392150878906
 20
420
 42
-0
  0
VERTEX
  8
0
 10
1249.0392150878906
 20
820
 42
-0
  0
SEQEND
  0
POLYLINE
  8
0
 10
0
 20
0
 39
0
 70
1
 66
1
  0
VERTEX
  8
0
 10
1219.0392150878906
 20
792.35481071472168
 42
-1
  0
VERTEX
  8
0
 10
1219.0392150878906
 20
766.35481262207031
 42
-1
  0
SEQEND
  0
POLYLINE
  8
0
 10
0
 20
0
 39
0
 70
1
 66
1
  0
VERTEX
  8
0
 10
1219.0392150878906
 20
755.04728698730469
 42
-1
  0
VERTEX
  8
0
 10
1219.0392150878906
 20
729.04728698730469
 42
-1
  0
SEQEND
  0
POLYLINE
  8
0
 10
0
 20
0
 39
0
 70
1
 66
1
  0
VERTEX
  8
0
 10
1219.0392150878906
 20
717.19112396240234
 42
-1
  0
VERTEX
  8
0
 10
1219.0392150878906
 20
691.19111633300781
 42
-1
  0
SEQEND
  0
POLYLINE
  8
0
 10
0
 20
0
 39
0
 70
1
 66
1
  0
VERTEX
  8
0
 10
1189.0392150878906
 20
410
 42
0
  0
VERTEX
  8
0
 10
1189.0392150878906
 20
10
 42
-0
  0
VERTEX
  8
0
 10
1249.0392150878906
 20
10
 42
-0
  0
VERTEX
  8
0
 10
1249.0392150878906
 20
410
 42
-0
  0
SEQEND
  0
POLYLINE
  8
0
 10
0
 20
0
 39
0
 70
1
 66
1
  0
VERTEX
  8
0
 10
1219.0392150878906
 20
382.35481071472168
 42
-1
  0
VERTEX
  8
0
 10
1219.0392150878906
 20
356.35481262207031
 42
-1
  0
SEQEND
  0
POLYLINE
  8
0
 10
0
 20
0
 39
0
 70
1
 66
1
  0
VERTEX
  8
0
 10
1219.0392150878906
 20
345.04728698730469
 42
-1
  0
VERTEX
  8
0
 10
1219.0392150878906
 20
319.04728698730469
 42
-1
  0
SEQEND
  0
POLYLINE
  8
0
 10
0
 20
0
 39
0
 70
1
 66
1
  0
VERTEX
  8
0
 10
1219.0392150878906
 20
307.19112396240234
 42
-1
  0
VERTEX
  8
0
 10
1219.0392150878906
 20
281.19111633300781
 42
-1
  0
SEQEND
  0
POLYLINE
  8
0
 10
0
 20
0
 39
0
 70
1
 66
1
  0
VERTEX
  8
0
 10
560
 20
780
 42
0
  0
VERTEX
  8
0
 10
1100
 20
780
 42
0
  0
VERTEX
  8
0
 10
1100
 20
805
 42
-0
  0
VERTEX
  8
0
 10
991
 20
880
 42
-0
  0
VERTEX
  8
0
 10
560
 20
880
 42
-0
  0
SEQEND
  0
POLYLINE
  8
0
 10
0
 20
0
 39
0
 70
1
 66
1
  0
VERTEX
  8
0
 10
991
 20
855.63043212890625
 42
0
  0
VERTEX
  8
0
 10
1068.1943054199219
 20
805
 42
0
  0
VERTEX
  8
0
 10
1068.1943054199219
 20
795
 42
0
  0
VERTEX
  8
0
 10
981
 20
795
 42
-0
  0
VERTEX
  8
0
 10
981
 20
855.63043212890625
 42
-0
  0
SEQEND
  0
POLYLINE
  8
0
 10
0
 20
0
 39
0
 70
1
 66
1
  0
VERTEX
  8
0
 10
746.25181579589844
 20
842.5
 42
0
  0
VERTEX
  8
0
 10
946.1434326171875
 20
842.5
 42
-0.19785122573375702
  0
VERTEX
  8
0
 10
946.403076171875
 20
818.13042831420898
 42
-0
  0
VERTEX
  8
0
 10
746.25181579589844
 20
818.13042831420898
 42
-0.19997029006481171
  0
SEQEND
  0
POLYLINE
  8
0
 10
0
 20
0
 39
0
 70
1
 66
1
  0
VERTEX
  8
0
 10
1469.0392150878906
 20
550
 42
0
  0
VERTEX
  8
0
 10
1469.0392150878906
 20
10
 42
0
  0
VERTEX
  8
0
 10
1494.0392150878906
 20
10
 42
-0
  0
VERTEX
  8
0
 10
1569.0392150878906
 20
119
 42
-0
  0
VERTEX
  8
0
 10
1569.0392150878906
 20
550
 42
-0
  0
SEQEND
  0
POLYLINE
  8
0
 10
0
 20
0
 39
0
 70
1
 66
1
  0
VERTEX
  8
0
 10
1544.6696472167969
 20
119
 42
0
  0
VERTEX
  8
0
 10
1494.0392150878906
 20
41.805694580078125
 42
0
  0
VERTEX
  8
0
 10
1484.0392150878906
 20
41.805694580078125
 42
0
  0
VERTEX
  8
0
 10
1484.0392150878906
 20
129
 42
-0
  0
VERTEX
  8
0
 10
1544.6696472167969
 20
129
 42
-0
  0
SEQEND
  0
POLYLINE
  8
0
 10
0
 20
0
 39
0
 70
1
 66
1
  0
VERTEX
  8
0
 10
1531.5392150878906
 20
363.74818420410156
 42
0
  0
VERTEX
  8
0
 10
1531.5392150878906
 20
163.8565673828125
 42
-0.19785122573375702
  0
VERTEX
  8
0
 10
1507.1696434020996
 20
163.596923828125
 42
-0
  0
VERTEX
  8
0
 10
1507.1696434020996
 20
363.74818420410156
 42
-0.19997029006481171
  0
SEQEND
  0
POLYLINE
  8
0
 10
0
 20
0
 39
0
 70
1
 66
1
  0
VERTEX
  8
0
 10
132.25980377197266
 20
677.48936483630189
 42
0
  0
VERTEX
  8
0
 10
132.25980377197268
 20
518.49807379015931
 42
0
  0
VERTEX
  8
0
 10
167.38970565795904
 20
518.49807379015931
 42
0
  0
VERTEX
  8
0
 10
167.38970565795904
 20
478.49807379015931
 42
0
  0
VERTEX
  8
0
 10
132.25980377197271
 20
478.49807379015931
 42
0
  0
VERTEX
  8
0
 10
132.25980377197271
 20
236.05814764269837
 42
0
  0
VERTEX
  8
0
 10
167.38970565795904
 20
236.05814764269837
 42
0
  0
VERTEX
  8
0
 10
167.38970565795904
 20
196.05811712512025
 42
0
  0
VERTEX
  8
0
 10
132.25980377197271
 20
196.05811712512025
 42
0
  0
VERTEX
  8
0
 10
132.25980377197271
 20
36.906383726682748
 42
0.47935917973518372
  0
VERTEX
  8
0
 10
244.51960754394537
 20
36.906383726682748
 42
-0
  0
VERTEX
  8
0
 10
244.51960754394537
 20
196.05811712512025
 42
-0
  0
VERTEX
  8
0
 10
209.38970184326178
 20
196.05811712512025
 42
-0
  0
VERTEX
  8
0
 10
209.38970184326178
 20
236.05814764269837
 42
-0
  0
VERTEX
  8
0
 10
244.51960754394537
 20
236.05814764269837
 42
-0
  0
VERTEX
  8
0
 10
244.51960754394537
 20
478.49807379015931
 42
-0
  0
VERTEX
  8
0
 10
209.38970184326178
 20
478.49807379015931
 42
-0
  0
VERTEX
  8
0
 10
209.38970184326178
 20
518.49807379015931
 42
-0
  0
VERTEX
  8
0
 10
244.51960754394537
 20
518.49807379015931
 42
-0
  0
VERTEX
  8
0
 10
244.51960754394534
 20
677.48936483630189
 42
0.47935917973518372
  0
SEQEND
  0
POLYLINE
  8
0
 10
0
 20
0
 39
0
 70
1
 66
1
  0
VERTEX
  8
0
 10
188.38970565795904
 20
393.14808294543275
 42
-1
  0
VERTEX
  8
0
 10
188.38970565795904
 20
329.14808294543275
 42
-1
  0
SEQEND
  0
POLYLINE
  8
0
 10
0
 20
0
 39
0
 70
1
 66
1
  0
VERTEX
  8
0
 10
1110
 20
830
 42
0
  0
VERTEX
  8
0
 10
1510
 20
830
 42
-0
  0
VERTEX
  8
0
 10
1510
 20
890
 42
-0
  0
VERTEX
  8
0
 10
1110
 20
890
 42
-0
  0
SEQEND
  0
POLYLINE
  8
0
 10
0
 20
0
 39
0
 70
1
 66
1
  0
VERTEX
  8
0
 10
1137.6451892852783
 20
860
 42
-1
  0
VERTEX
  8
0
 10
1163.6451873779297
 20
860
 42
-1
  0
SEQEND
  0
POLYLINE
  8
0
 10
0
 20
0
 39
0
 70
1
 66
1
  0
VERTEX
  8
0
 10
1174.9527130126953
 20
860
 42
-1
  0
VERTEX
  8
0
 10
1200.9527130126953
 20
860
 42
-1
  0
SEQEND
  0
POLYLINE
  8
0
 10
0
 20
0
 39
0
 70
1
 66
1
  0
VERTEX
  8
0
 10
1212.8088760375977
 20
860
 42
-1
  0
VERTEX
  8
0
 10
1238.8088836669922
 20
860
 42
-1
  0
SEQEND
  0
POLYLINE
  8
0
 10
0
 20
0
 39
0
 70
1
 66
1
  0
VERTEX
  8
0
 10
1259.0392150878906
 20
820
 42
0
  0
VERTEX
  8
0
 10
1259.0392150878906
 20
420
 42
-0
  0
VERTEX
  8
0
 10
1319.0392150878906
 20
420
 42
-0
  0
VERTEX
  8
0
 10
1319.0392150878906
 20
820
 42
-0
  0
SEQEND
  0
POLYLINE
  8
0
 10
0
 20
0
 39
0
 70
1
 66
1
  0
VERTEX
  8
0
 10
1289.0392150878906
 20
792.35481071472168
 42
-1
  0
VERTEX
  8
0
 10
1289.0392150878906
 20
766.35481262207031
 42
-1
  0
SEQEND
  0
POLYLINE
  8
0
 10
0
 20
0
 39
0
 70
1
 66
1
  0
VERTEX
  8
0
 10
1289.0392150878906
 20
755.04728698730469
 42
-1
  0
VERTEX
  8
0
 10
1289.0392150878906
 20
729.04728698730469
 42
-1
  0
SEQEND
  0
POLYLINE
  8
0
 10
0
 20
0
 39
0
 70
1
 66
1
  0
VERTEX
  8
0
 10
1289.0392150878906
 20
717.19112396240234
 42
-1
  0
VERTEX
  8
0
 10
1289.0392150878906
 20
691.19111633300781
 42
-1
  0
SEQEND
  0
POLYLINE
  8
0
 10
0
 20
0
 39
0
 70
1
 66
1
  0
VERTEX
  8
0
 10
1119.0392150878906
 20
820
 42
0
  0
VERTEX
  8
0
 10
1119.0392150878906
 20
420
 42
-0
  0
VERTEX
  8
0
 10
1179.0392150878906
 20
420
 42
-0
  0
VERTEX
  8
0
 10
1179.0392150878906
 20
820
 42
-0
  0
SEQEND
  0
POLYLINE
  8
0
 10
0
 20
0
 39
0
 70
1
 66
1
  0
VERTEX
  8
0
 10
1149.0392150878906
 20
792.35481071472168
 42
-1
  0
VERTEX
  8
0
 10
1149.0392150878906
 20
766.35481262207031
 42
-1
  0
SEQEND
  0
POLYLINE
  8
0
 10
0
 20
0
 39
0
 70
1
 66
1
  0
VERTEX
  8
0
 10
1149.0392150878906
 20
755.04728698730469
 42
-1
  0
VERTEX
  8
0
 10
1149.0392150878906
 20
729.04728698730469
 42
-1
  0
SEQEND
  0
POLYLINE
  8
0
 10
0
 20
0
 39
0
 70
1
 66
1
  0
VERTEX
  8
0
 10
1149.0392150878906
 20
717.19112396240234
 42
-1
  0
VERTEX
  8
0
 10
1149.0392150878906
 20
691.19111633300781
 42
-1
  0
SEQEND
  0
POLYLINE
  8
0
 10
0
 20
0
 39
0
 70
1
 66
1
  0
VERTEX
  8
0
 10
1859.0392150878906
 20
310
 42
0
  0
VERTEX
  8
0
 10
1859.0392150878906
 20
10
 42
-0
  0
VERTEX
  8
0
 10
1909.0392150878906
 20
10
 42
-0
  0
VERTEX
  8
0
 10
1909.0392150878906
 20
84.58770751953125
 42
0
  0
VERTEX
  8
0
 10
1900.6613731384277
 20
84.58770751953125
 42
-0
  0
VERTEX
  8
0
 10
1900.6613731384277
 20
235.41229248046875
 42
-0
  0
VERTEX
  8
0
 10
1909.0392150878906
 20
235.41229248046875
 42
-0
  0
VERTEX
  8
0
 10
1909.0392150878906
 20
310
 42
-0
  0
SEQEND
  0
POLYLINE
  8
0
 10
0
 20
0
 39
0
 70
1
 66
1
  0
VERTEX
  8
0
 10
1884.0392150878906
 20
291.01749420166016
 42
-1
  0
VERTEX
  8
0
 10
1884.0392150878906
 20
263.01749420166016
 42
-1
  0
SEQEND
  0
POLYLINE
  8
0
 10
0
 20
0
 39
0
 70
1
 66
1
  0
VERTEX
  8
0
 10
1884.0392150878906
 20
56.982513427734375
 42
-1
  0
VERTEX
  8
0
 10
1884.0392150878906
 20
28.982513427734375
 42
-1
  0
SEQEND
  0
POLYLINE
  8
0
 10
0
 20
0
 39
0
 70
1
 66
1
  0
VERTEX
  8
0
 10
1399.0392150878906
 20
410
 42
0
  0
VERTEX
  8
0
 10
1399.0392150878906
 20
10
 42
-0
  0
VERTEX
  8
0
 10
1459.0392150878906
 20
10
 42
-0
  0
VERTEX
  8
0
 10
1459.0392150878906
 20
410
 42
-0
  0
SEQEND
  0
POLYLINE
  8
0
 10
0
 20
0
 39
0
 70
1
 66
1
  0
VERTEX
  8
0
 10
1429.0392150878906
 20
382.35481071472168
 42
-1
  0
VERTEX
  8
0
 10
1429.0392150878906
 20
356.35481262207031
 42
-1
  0
SEQEND
  0
POLYLINE
  8
0
 10
0
 20
0
 39
0
 70
1
 66
1
  0
VERTEX
  8
0
 10
1429.0392150878906
 20
345.04728698730469
 42
-1
  0
VERTEX
  8
0
 10
1429.0392150878906
 20
319.04728698730469
 42
-1
  0
SEQEND
  0
POLYLINE
  8
0
 10
0
 20
0
 39
0
 70
1
 66
1
  0
VERTEX
  8
0
 10
1429.0392150878906
 20
307.19112396240234
 42
-1
  0
VERTEX
  8
0
 10
1429.0392150878906
 20
281.19111633300781
 42
-1
  0
SEQEND
  0
POLYLINE
  8
0
 10
0
 20
0
 39
0
 70
1
 66
1
  0
VERTEX
  8
0
 10
1389.0392150878906
 20
820
 42
0
  0
VERTEX
  8
0
 10
1389.0392150878906
 20
420
 42
-0
  0
VERTEX
  8
0
 10
1449.0392150878906
 20
420
 42
-0
  0
VERTEX
  8
0
 10
1449.0392150878906
 20
820
 42
-0
  0
SEQEND
  0
POLYLINE
  8
0
 10
0
 20
0
 39
0
 70
1
 66
1
  0
VERTEX
  8
0
 10
1419.0392150878906
 20
792.35481071472168
 42
-1
  0
VERTEX
  8
0
 10
1419.0392150878906
 20
766.35481262207031
 42
-1
  0
SEQEND
  0
POLYLINE
  8
0
 10
0
 20
0
 39
0
 70
1
 66
1
  0
VERTEX
  8
0
 10
1419.0392150878906
 20
755.04728698730469
 42
-1
  0
VERTEX
  8
0
 10
1419.0392150878906
 20
729.04728698730469
 42
-1
  0
SEQEND
  0
POLYLINE
  8
0
 10
0
 20
0
 39
0
 70
1
 66
1
  0
VERTEX
  8
0
 10
1419.0392150878906
 20
717.19112396240234
 42
-1
  0
VERTEX
  8
0
 10
1419.0392150878906
 20
691.19111633300781
 42
-1
  0
SEQEND
  0
POLYLINE
  8
0
 10
0
 20
0
 39
0
 70
1
 66
1
  0
VERTEX
  8
0
 10
1870
 20
853.81883239746094
 42
0
  0
VERTEX
  8
0
 10
1870
 20
653.81883239746094
 42
0
  0
VERTEX
  8
0
 10
1890
 20
630
 42
0
  0
VERTEX
  8
0
 10
1910
 20
653.81883239746094
 42
-0
  0
VERTEX
  8
0
 10
1910
 20
853.81883239746094
 42
-0
  0
VERTEX
  8
0
 10
1890
 20
877.63766098022461
 42
-0
  0
SEQEND
  0
POLYLINE
  8
0
 10
0
 20
0
 39
0
 70
1
 66
1
  0
VERTEX
  8
0
 10
1890
 20
853.81883239746094
 42
0
  0
VERTEX
  8
0
 10
1900
 20
843.51878833770752
 42
0
  0
VERTEX
  8
0
 10
1900
 20
794.5187873840332
 42
0
  0
VERTEX
  8
0
 10
1890
 20
797.40044784545898
 42
0
  0
VERTEX
  8
0
 10
1880
 20
794.5187873840332
 42
-0
  0
VERTEX
  8
0
 10
1880
 20
843.51878833770752
 42
-0
  0
SEQEND
  0
POLYLINE
  8
0
 10
0
 20
0
 39
0
 70
1
 66
1
  0
VERTEX
  8
0
 10
1890
 20
791.41520690917969
 42
-1
  0
VERTEX
  8
0
 10
1890
 20
771.41520690917969
 42
-1
  0
SEQEND
  0
POLYLINE
  8
0
 10
0
 20
0
 39
0
 70
1
 66
1
  0
VERTEX
  8
0
 10
120
 20
824.39574856298464
 42
0
  0
VERTEX
  8
0
 10
520
 20
824.39574856298464
 42
-0
  0
VERTEX
  8
0
 10
520
 20
884.39574856298464
 42
-0
  0
VERTEX
  8
0
 10
120
 20
884.39574856298464
 42
-0
  0
SEQEND
  0
POLYLINE
  8
0
 10
0
 20
0
 39
0
 70
1
 66
1
  0
VERTEX
  8
0
 10
147.64518928527832
 20
854.39574856298464
 42
-1
  0
VERTEX
  8
0
 10
173.64518737792969
 20
854.39574856298464
 42
-1
  0
SEQEND
  0
POLYLINE
  8
0
 10
0
 20
0
 39
0
 70
1
 66
1
  0
VERTEX
  8
0
 10
184.95271301269531
 20
854.39574856298464
 42
-1
  0
VERTEX
  8
0
 10
210.95271301269531
 20
854.39574856298464
 42
-1
  0
SEQEND
  0
POLYLINE
  8
0
 10
0
 20
0
 39
0
 70
1
 66
1
  0
VERTEX
  8
0
 10
222.80887603759766
 20
854.39574856298464
 42
-1
  0
VERTEX
  8
0
 10
248.80888366699219
 20
854.39574856298464
 42
-1
  0
SEQEND
  0
POLYLINE
  8
0
 10
0
 20
0
 39
0
 70
1
 66
1
  0
VERTEX
  8
0
 10
254.51960754394531
 20
677.48936483630189
 42
0
  0
VERTEX
  8
0
 10
254.51960754394534
 20
518.49807379015931
 42
0
  0
VERTEX
  8
0
 10
289.6495094299317
 20
518.49807379015931
 42
0
  0
VERTEX
  8
0
 10
289.6495094299317
 20
478.49807379015931
 42
0
  0
VERTEX
  8
0
 10
254.51960754394537
 20
478.49807379015931
 42
0
  0
VERTEX
  8
0
 10
254.51960754394537
 20
236.05814764269837
 42
0
  0
VERTEX
  8
0
 10
289.6495094299317
 20
236.05814764269837
 42
0
  0
VERTEX
  8
0
 10
289.6495094299317
 20
196.05811712512025
 42
0
  0
VERTEX
  8
0
 10
254.51960754394537
 20
196.05811712512025
 42
0
  0
VERTEX
  8
0
 10
254.51960754394537
 20
36.906383726682748
 42
0.47935917973518372
  0
VERTEX
  8
0
 10
366.77941131591803
 20
36.906383726682748
 42
-0
  0
VERTEX
  8
0
 10
366.77941131591803
 20
196.05811712512025
 42
-0
  0
VERTEX
  8
0
 10
331.64950561523443
 20
196.05811712512025
 42
-0
  0
VERTEX
  8
0
 10
331.64950561523443
 20
236.05814764269837
 42
-0
  0
VERTEX
  8
0
 10
366.77941131591803
 20
236.05814764269837
 42
-0
  0
VERTEX
  8
0
 10
366.77941131591803
 20
478.49807379015931
 42
-0
  0
VERTEX
  8
0
 10
331.64950561523443
 20
478.49807379015931
 42
-0
  0
VERTEX
  8
0
 10
331.64950561523443
 20
518.49807379015931
 42
-0
  0
VERTEX
  8
0
 10
366.77941131591803
 20
518.49807379015931
 42
-0
  0
VERTEX
  8
0
 10
366.77941131591797
 20
677.48936483630189
 42
0.47935917973518372
  0
SEQEND
  0
POLYLINE
  8
0
 10
0
 20
0
 39
0
 70
1
 66
1
  0
VERTEX
  8
0
 10
310.6495094299317
 20
393.14808294543275
 42
-1
  0
VERTEX
  8
0
 10
310.6495094299317
 20
329.14808294543275
 42
-1
  0
SEQEND
  0
POLYLINE
  8
0
 10
0
 20
0
 39
0
 70
1
 66
1
  0
VERTEX
  8
0
 10
1119.0392150878906
 20
410
 42
0
  0
VERTEX
  8
0
 10
1119.0392150878906
 20
10
 42
-0
  0
VERTEX
  8
0
 10
1179.0392150878906
 20
10
 42
-0
  0
VERTEX
  8
0
 10
1179.0392150878906
 20
410
 42
-0
  0
SEQEND
  0
POLYLINE
  8
0
 10
0
 20
0
 39
0
 70
1
 66
1
  0
VERTEX
  8
0
 10
1149.0392150878906
 20
382.35481071472168
 42
-1
  0
VERTEX
  8
0
 10
1149.0392150878906
 20
356.35481262207031
 42
-1
  0
SEQEND
  0
POLYLINE
  8
0
 10
0
 20
0
 39
0
 70
1
 66
1
  0
VERTEX
  8
0
 10
1149.0392150878906
 20
345.04728698730469
 42
-1
  0
VERTEX
  8
0
 10
1149.0392150878906
 20
319.04728698730469
 42
-1
  0
SEQEND
  0
POLYLINE
  8
0
 10
0
 20
0
 39
0
 70
1
 66
1
  0
VERTEX
  8
0
 10
1149.0392150878906
 20
307.19112396240234
 42
-1
  0
VERTEX
  8
0
 10
1149.0392150878906
 20
281.19111633300781
 42
-1
  0
SEQEND
  0
POLYLINE
  8
0
 10
0
 20
0
 39
0
 70
1
 66
1
  0
VERTEX
  8
0
 10
1259.0392150878906
 20
410
 42
0
  0
VERTEX
  8
0
 10
1259.0392150878906
 20
10
 42
-0
  0
VERTEX
  8
0
 10
1319.0392150878906
 20
10
 42
-0
  0
VERTEX
  8
0
 10
1319.0392150878906
 20
410
 42
-0
  0
SEQEND
  0
POLYLINE
  8
0
 10
0
 20
0
 39
0
 70
1
 66
1
  0
VERTEX
  8
0
 10
1289.0392150878906
 20
382.35481071472168
 42
-1
  0
VERTEX
  8
0
 10
1289.0392150878906
 20
356.35481262207031
 42
-1
  0
SEQEND
  0
POLYLINE
  8
0
 10
0
 20
0
 39
0
 70
1
 66
1
  0
VERTEX
  8
0
 10
1289.0392150878906
 20
345.04728698730469
 42
-1
  0
VERTEX
  8
0
 10
1289.0392150878906
 20
319.04728698730469
 42
-1
  0
SEQEND
  0
POLYLINE
  8
0
 10
0
 20
0
 39
0
 70
1
 66
1
  0
VERTEX
  8
0
 10
1289.0392150878906
 20
307.19112396240234
 42
-1
  0
VERTEX
  8
0
 10
1289.0392150878906
 20
281.19111633300781
 42
-1
  0
SEQEND
  0
POLYLINE
  8
0
 10
0
 20
0
 39
0
 70
1
 66
1
  0
VERTEX
  8
0
 10
1689.0392150878906
 20
550
 42
0
  0
VERTEX
  8
0
 10
1689.0392150878906
 20
10
 42
0
  0
VERTEX
  8
0
 10
1714.0392150878906
 20
10
 42
-0
  0
VERTEX
  8
0
 10
1789.0392150878906
 20
119
 42
-0
  0
VERTEX
  8
0
 10
1789.0392150878906
 20
550
 42
-0
  0
SEQEND
  0
POLYLINE
  8
0
 10
0
 20
0
 39
0
 70
1
 66
1
  0
VERTEX
  8
0
 10
1764.6696472167969
 20
119
 42
0
  0
VERTEX
  8
0
 10
1714.0392150878906
 20
41.805694580078125
 42
0
  0
VERTEX
  8
0
 10
1704.0392150878906
 20
41.805694580078125
 42
0
  0
VERTEX
  8
0
 10
1704.0392150878906
 20
129
 42
-0
  0
VERTEX
  8
0
 10
1764.6696472167969
 20
129
 42
-0
  0
SEQEND
  0
POLYLINE
  8
0
 10
0
 20
0
 39
0
 70
1
 66
1
  0
VERTEX
  8
0
 10
1751.5392150878906
 20
363.74818420410156
 42
0
  0
VERTEX
  8
0
 10
1751.5392150878906
 20
163.8565673828125
 42
-0.19785122573375702
  0
VERTEX
  8
0
 10
1727.1696434020996
 20
163.596923828125
 42
-0
  0
VERTEX
  8
0
 10
1727.1696434020996
 20
363.74818420410156
 42
-0.19997029006481171
  0
SEQEND
  0
POLYLINE
  8
0
 10
0
 20
0
 39
0
 70
1
 66
1
  0
VERTEX
  8
0
 10
1329.0392150878906
 20
410
 42
0
  0
VERTEX
  8
0
 10
1329.0392150878906
 20
10
 42
-0
  0
VERTEX
  8
0
 10
1389.0392150878906
 20
10
 42
-0
  0
VERTEX
  8
0
 10
1389.0392150878906
 20
410
 42
-0
  0
SEQEND
  0
POLYLINE
  8
0
 10
0
 20
0
 39
0
 70
1
 66
1
  0
VERTEX
  8
0
 10
1359.0392150878906
 20
382.35481071472168
 42
-1
  0
VERTEX
  8
0
 10
1359.0392150878906
 20
356.35481262207031
 42
-1
  0
SEQEND
  0
POLYLINE
  8
0
 10
0
 20
0
 39
0
 70
1
 66
1
  0
VERTEX
  8
0
 10
1359.0392150878906
 20
345.04728698730469
 42
-1
  0
VERTEX
  8
0
 10
1359.0392150878906
 20
319.04728698730469
 42
-1
  0
SEQEND
  0
POLYLINE
  8
0
 10
0
 20
0
 39
0
 70
1
 66
1
  0
VERTEX
  8
0
 10
1359.0392150878906
 20
307.19112396240234
 42
-1
  0
VERTEX
  8
0
 10
1359.0392150878906
 20
281.19111633300781
 42
-1
  0
SEQEND
  0
POLYLINE
  8
0
 10
0
 20
0
 39
0
 70
1
 66
1
  0
VERTEX
  8
0
 10
1820
 20
853.81883239746094
 42
0
  0
VERTEX
  8
0
 10
1820
 20
653.81883239746094
 42
0
  0
VERTEX
  8
0
 10
1840
 20
630
 42
0
  0
VERTEX
  8
0
 10
1860
 20
653.81883239746094
 42
-0
  0
VERTEX
  8
0
 10
1860
 20
853.81883239746094
 42
-0
  0
VERTEX
  8
0
 10
1840
 20
877.63766098022461
 42
-0
  0
SEQEND
  0
POLYLINE
  8
0
 10
0
 20
0
 39
0
 70
1
 66
1
  0
VERTEX
  8
0
 10
1840
 20
853.81883239746094
 42
0
  0
VERTEX
  8
0
 10
1850
 20
843.51878833770752
 42
0
  0
VERTEX
  8
0
 10
1850
 20
794.5187873840332
 42
0
  0
VERTEX
  8
0
 10
1840
 20
797.40044784545898
 42
0
  0
VERTEX
  8
0
 10
1830
 20
794.5187873840332
 42
-0
  0
VERTEX
  8
0
 10
1830
 20
843.51878833770752
 42
-0
  0
SEQEND
  0
POLYLINE
  8
0
 10
0
 20
0
 39
0
 70
1
 66
1
  0
VERTEX
  8
0
 10
1840
 20
791.41520690917969
 42
-1
  0
VERTEX
  8
0
 10
1840
 20
771.41520690917969
 42
-1
  0
SEQEND
  0
POLYLINE
  8
0
 10
0
 20
0
 39
0
 70
1
 66
1
  0
VERTEX
  8
0
 10
499.03921508789063
 20
550
 42
0
  0
VERTEX
  8
0
 10
499.03921508789068
 20
10
 42
0
  0
VERTEX
  8
0
 10
524.03921508789062
 20
10
 42
-0
  0
VERTEX
  8
0
 10
599.03921508789062
 20
119
 42
-0
  0
VERTEX
  8
0
 10
599.03921508789062
 20
550
 42
-0
  0
SEQEND
  0
POLYLINE
  8
0
 10
0
 20
0
 39
0
 70
1
 66
1
  0
VERTEX
  8
0
 10
574.66964721679687
 20
119
 42
0
  0
VERTEX
  8
0
 10
524.03921508789062
 20
41.805694580078125
 42
0
  0
VERTEX
  8
0
 10
514.03921508789062
 20
41.805694580078125
 42
0
  0
VERTEX
  8
0
 10
514.03921508789062
 20
129
 42
-0
  0
VERTEX
  8
0
 10
574.66964721679687
 20
129
 42
-0
  0
SEQEND
  0
POLYLINE
  8
0
 10
0
 20
0
 39
0
 70
1
 66
1
  0
VERTEX
  8
0
 10
561.53921508789062
 20
363.74818420410156
 42
0
  0
VERTEX
  8
0
 10
561.53921508789062
 20
163.8565673828125
 42
-0.19785122573375702
  0
VERTEX
  8
0
 10
537.16964340209961
 20
163.596923828125
 42
-0
  0
VERTEX
  8
0
 10
537.16964340209961
 20
363.74818420410156
 42
-0.19997029006481171
  0
SEQEND
  0
POLYLINE
  8
0
 10
0
 20
0
 39
0
 70
1
 66
1
  0
VERTEX
  8
0
 10
1579.0392150878906
 20
550
 42
0
  0
VERTEX
  8
0
 10
1579.0392150878906
 20
10
 42
0
  0
VERTEX
  8
0
 10
1604.0392150878906
 20
10
 42
-0
  0
VERTEX
  8
0
 10
1679.0392150878906
 20
119
 42
-0
  0
VERTEX
  8
0
 10
1679.0392150878906
 20
550
 42
-0
  0
SEQEND
  0
POLYLINE
  8
0
 10
0
 20
0
 39
0
 70
1
 66
1
  0
VERTEX
  8
0
 10
1654.6696472167969
 20
119
 42
0
  0
VERTEX
  8
0
 10
1604.0392150878906
 20
41.805694580078125
 42
0
  0
VERTEX
  8
0
 10
1594.0392150878906
 20
41.805694580078125
 42
0
  0
VERTEX
  8
0
 10
1594.0392150878906
 20
129
 42
-0
  0
VERTEX
  8
0
 10
1654.6696472167969
 20
129
 42
-0
  0
SEQEND
  0
POLYLINE
  8
0
 10
0
 20
0
 39
0
 70
1
 66
1
  0
VERTEX
  8
0
 10
1641.5392150878906
 20
363.74818420410156
 42
0
  0
VERTEX
  8
0
 10
1641.5392150878906
 20
163.8565673828125
 42
-0.19785122573375702
  0
VERTEX
  8
0
 10
1617.1696434020996
 20
163.596923828125
 42
-0
  0
VERTEX
  8
0
 10
1617.1696434020996
 20
363.74818420410156
 42
-0.19997029006481171
  0
SEQEND
  0
POLYLINE
  8
0
 10
0
 20
0
 39
0
 70
1
 66
1
  0
VERTEX
  8
0
 10
609.03921508789062
 20
550
 42
0
  0
VERTEX
  8
0
 10
609.03921508789062
 20
10
 42
0
  0
VERTEX
  8
0
 10
634.03921508789062
 20
10
 42
-0
  0
VERTEX
  8
0
 10
709.03921508789062
 20
119
 42
-0
  0
VERTEX
  8
0
 10
709.03921508789062
 20
550
 42
-0
  0
SEQEND
  0
POLYLINE
  8
0
 10
0
 20
0
 39
0
 70
1
 66
1
  0
VERTEX
  8
0
 10
684.66964721679687
 20
119
 42
0
  0
VERTEX
  8
0
 10
634.03921508789062
 20
41.805694580078125
 42
0
  0
VERTEX
  8
0
 10
624.03921508789062
 20
41.805694580078125
 42
0
  0
VERTEX
  8
0
 10
624.03921508789062
 20
129
 42
-0
  0
VERTEX
  8
0
 10
684.66964721679687
 20
129
 42
-0
  0
SEQEND
  0
POLYLINE
  8
0
 10
0
 20
0
 39
0
 70
1
 66
1
  0
VERTEX
  8
0
 10
671.53921508789062
 20
363.74818420410156
 42
0
  0
VERTEX
  8
0
 10
671.53921508789062
 20
163.8565673828125
 42
-0.19785122573375702
  0
VERTEX
  8
0
 10
647.16964340209961
 20
163.596923828125
 42
-0
  0
VERTEX
  8
0
 10
647.16964340209961
 20
363.74818420410156
 42
-0.19997029006481171
  0
SEQEND
  0
POLYLINE
  8
0
 10
0
 20
0
 39
0
 70
1
 66
1
  0
VERTEX
  8
0
 10
1459.0392150878906
 20
660
 42
0
  0
VERTEX
  8
0
 10
1459.0392150878906
 20
560
 42
-0
  0
VERTEX
  8
0
 10
1509.0392150878906
 20
560
 42
-0
  0
VERTEX
  8
0
 10
1509.0392150878906
 20
660
 42
-0
  0
SEQEND
  0
POLYLINE
  8
0
 10
0
 20
0
 39
0
 70
1
 66
1
  0
VERTEX
  8
0
 10
1484.0392150878906
 20
639.59393692016602
 42
0
  0
VERTEX
  8
0
 10
1497.0392150878906
 20
639.59393692016602
 42
0
  0
VERTEX
  8
0
 10
1497.0392150878906
 20
580.40605926513672
 42
-0
  0
VERTEX
  8
0
 10
1484.0392150878906
 20
580.40605926513672
 42
-0
  0
VERTEX
  8
0
 10
1471.0392150878906
 20
580.40605926513672
 42
-0
  0
VERTEX
  8
0
 10
1471.0392150878906
 20
639.59393692016602
 42
-0
  0
SEQEND
  0
POLYLINE
  8
0
 10
0
 20
0
 39
0
 70
1
 66
1
  0
VERTEX
  8
0
 10
1049.0392150878906
 20
110
 42
0
  0
VERTEX
  8
0
 10
1049.0392150878906
 20
10
 42
-0
  0
VERTEX
  8
0
 10
1099.0392150878906
 20
10
 42
-0
  0
VERTEX
  8
0
 10
1099.0392150878906
 20
110
 42
-0
  0
SEQEND
  0
POLYLINE
  8
0
 10
0
 20
0
 39
0
 70
1
 66
1
  0
VERTEX
  8
0
 10
1074.0392150878906
 20
89.593936920166016
 42
0
  0
VERTEX
  8
0
 10
1087.0392150878906
 20
89.593936920166016
 42
0
  0
VERTEX
  8
0
 10
1087.0392150878906
 20
30.406059265136719
 42
-0
  0
VERTEX
  8
0
 10
1074.0392150878906
 20
30.406059265136719
 42
-0
  0
VERTEX
  8
0
 10
1061.0392150878906
 20
30.406059265136719
 42
-0
  0
VERTEX
  8
0
 10
1061.0392150878906
 20
89.593936920166016
 42
-0
  0
SEQEND
  0
POLYLINE
  8
0
 10
0
 20
0
 39
0
 70
1
 66
1
  0
VERTEX
  8
0
 10
10
 20
824.39574856298464
 42
0
  0
VERTEX
  8
0
 10
110
 20
824.39574856298464
 42
-0
  0
VERTEX
  8
0
 10
110
 20
874.39574856298464
 42
-0
  0
VERTEX
  8
0
 10
10.000000000000004
 20
874.39574856298464
 42
-0
  0
SEQEND
  0
POLYLINE
  8
0
 10
0
 20
0
 39
0
 70
1
 66
1
  0
VERTEX
  8
0
 10
30.406063079833984
 20
849.39574856298464
 42
0
  0
VERTEX
  8
0
 10
30.406063079833984
 20
862.39574856298464
 42
0
  0
VERTEX
  8
0
 10
89.593940734863281
 20
862.39574856298464
 42
-0
  0
VERTEX
  8
0
 10
89.593940734863281
 20
849.39574856298464
 42
-0
  0
VERTEX
  8
0
 10
89.593940734863281
 20
836.39574856298464
 42
-0
  0
VERTEX
  8
0
 10
30.406063079833984
 20
836.39574856298464
 42
-0
  0
SEQEND
  0
POLYLINE
  8
0
 10
0
 20
0
 39
0
 70
1
 66
1
  0
VERTEX
  8
0
 10
1049.0392150878906
 20
250
 42
0
  0
VERTEX
  8
0
 10
1049.0392150878906
 20
120
 42
-0
  0
VERTEX
  8
0
 10
1109.0392150878906
 20
120
 42
-0
  0
VERTEX
  8
0
 10
1109.0392150878906
 20
250
 42
-0
  0
SEQEND
  0
POLYLINE
  8
0
 10
0
 20
0
 39
0
 70
1
 66
1
  0
VERTEX
  8
0
 10
1079.0392150878906
 20
240.94801712036133
 42
-1
  0
VERTEX
  8
0
 10
1079.0392150878906
 20
214.94801712036133
 42
-1
  0
SEQEND
  0
POLYLINE
  8
0
 10
0
 20
0
 39
0
 70
1
 66
1
  0
VERTEX
  8
0
 10
939.03921508789062
 20
550
 42
0
  0
VERTEX
  8
0
 10
939.03921508789062
 20
10
 42
0
  0
VERTEX
  8
0
 10
964.03921508789062
 20
10
 42
-0
  0
VERTEX
  8
0
 10
1039.0392150878906
 20
119
 42
-0
  0
VERTEX
  8
0
 10
1039.0392150878906
 20
550
 42
-0
  0
SEQEND
  0
POLYLINE
  8
0
 10
0
 20
0
 39
0
 70
1
 66
1
  0
VERTEX
  8
0
 10
1014.6696472167969
 20
119
 42
0
  0
VERTEX
  8
0
 10
964.03921508789062
 20
41.805694580078125
 42
0
  0
VERTEX
  8
0
 10
954.03921508789062
 20
41.805694580078125
 42
0
  0
VERTEX
  8
0
 10
954.03921508789062
 20
129
 42
-0
  0
VERTEX
  8
0
 10
1014.6696472167969
 20
129
 42
-0
  0
SEQEND
  0
POLYLINE
  8
0
 10
0
 20
0
 39
0
 70
1
 66
1
  0
VERTEX
  8
0
 10
1001.5392150878906
 20
363.74818420410156
 42
0
  0
VERTEX
  8
0
 10
1001.5392150878906
 20
163.8565673828125
 42
-0.19785122573375702
  0
VERTEX
  8
0
 10
977.16964340209961
 20
163.596923828125
 42
-0
  0
VERTEX
  8
0
 10
977.16964340209961
 20
363.74818420410156
 42
-0.19997029006481171
  0
SEQEND
  0
POLYLINE
  8
0
 10
0
 20
0
 39
0
 70
1
 66
1
  0
VERTEX
  8
0
 10
10
 20
714.39574856298464
 42
0
  0
VERTEX
  8
0
 10
550
 20
714.39574856298464
 42
0
  0
VERTEX
  8
0
 10
550
 20
739.39574856298464
 42
-0
  0
VERTEX
  8
0
 10
441
 20
814.39574856298464
 42
-0
  0
VERTEX
  8
0
 10
10.000000000000005
 20
814.39574856298464
 42
-0
  0
SEQEND
  0
POLYLINE
  8
0
 10
0
 20
0
 39
0
 70
1
 66
1
  0
VERTEX
  8
0
 10
441
 20
790.02618069189089
 42
0
  0
VERTEX
  8
0
 10
518.19430541992187
 20
739.39574856298464
 42
0
  0
VERTEX
  8
0
 10
518.19430541992187
 20
729.39574856298464
 42
0
  0
VERTEX
  8
0
 10
431
 20
729.39574856298464
 42
-0
  0
VERTEX
  8
0
 10
431
 20
790.02618069189089
 42
-0
  0
SEQEND
  0
POLYLINE
  8
0
 10
0
 20
0
 39
0
 70
1
 66
1
  0
VERTEX
  8
0
 10
196.25181579589844
 20
776.89574856298464
 42
0
  0
VERTEX
  8
0
 10
396.1434326171875
 20
776.89574856298464
 42
-0.19785122573375702
  0
VERTEX
  8
0
 10
396.403076171875
 20
752.52617687719362
 42
-0
  0
VERTEX
  8
0
 10
196.25181579589844
 20
752.52617687719362
 42
-0.19997029006481171
  0
SEQEND
  0
POLYLINE
  8
0
 10
0
 20
0
 39
0
 70
1
 66
1
  0
VERTEX
  8
0
 10
1459.0392150878906
 20
770
 42
0
  0
VERTEX
  8
0
 10
1459.0392150878906
 20
670
 42
-0
  0
VERTEX
  8
0
 10
1509.0392150878906
 20
670
 42
-0
  0
VERTEX
  8
0
 10
1509.0392150878906
 20
770
 42
-0
  0
SEQEND
  0
POLYLINE
  8
0
 10
0
 20
0
 39
0
 70
1
 66
1
  0
VERTEX
  8
0
 10
1484.0392150878906
 20
749.59393692016602
 42
0
  0
VERTEX
  8
0
 10
1497.0392150878906
 20
749.59393692016602
 42
0
  0
VERTEX
  8
0
 10
1497.0392150878906
 20
690.40605926513672
 42
-0
  0
VERTEX
  8
0
 10
1484.0392150878906
 20
690.40605926513672
 42
-0
  0
VERTEX
  8
0
 10
1471.0392150878906
 20
690.40605926513672
 42
-0
  0
VERTEX
  8
0
 10
1471.0392150878906
 20
749.59393692016602
 42
-0
  0
SEQEND
  0
ENDSEC
  0
EOF
