  0
SECTION
  2
ENTITIES
  0
POLYLINE
  8
0
 10
0
 20
0
 39
0
 70
1
 66
1
  0
VERTEX
  8
0
 10
0
 20
0
 42
-0
  0
VERTEX
  8
0
 10
2000
 20
0
 42
-0
  0
VERTEX
  8
0
 10
2000
 20
1200
 42
-0
  0
VERTEX
  8
0
 10
0
 20
1200
 42
-0
  0
SEQEND
  0
POLYLINE
  8
0
 10
0
 20
0
 39
0
 70
1
 66
1
  0
VERTEX
  8
0
 10
790.23076923076928
 20
10.230769230769232
 42
0
  0
VERTEX
  8
0
 10
790.23076923076928
 20
130.23076923076923
 42
0
  0
VERTEX
  8
0
 10
10.230769230769287
 20
130.23076923076917
 42
0
  0
VERTEX
  8
0
 10
10.23076923076923
 20
1050.2307692307693
 42
0
  0
VERTEX
  8
0
 10
790.23076923076917
 20
1050.2307692307693
 42
0
  0
VERTEX
  8
0
 10
790.23076923076917
 20
1170.2307692307693
 42
0
  0
VERTEX
  8
0
 10
990.23076923076917
 20
1170.2307692307693
 42
0
  0
VERTEX
  8
0
 10
990.23076923076928
 20
10.230769230769244
 42
0
  0
SEQEND
  0
POLYLINE
  8
0
 10
0
 20
0
 39
0
 70
1
 66
1
  0
VERTEX
  8
0
 10
140.23076923076923
 20
860.23076923076917
 42
0
  0
VERTEX
  8
0
 10
140.23076923076925
 20
320.23076923076917
 42
0.41421356797218323
  0
VERTEX
  8
0
 10
170.23076923076925
 20
290.23076923076917
 42
0
  0
VERTEX
  8
0
 10
860.23076923076928
 20
290.23076923076923
 42
0.41421356797218323
  0
VERTEX
  8
0
 10
890.23076923076928
 20
320.23076923076923
 42
0
  0
VERTEX
  8
0
 10
890.23076923076928
 20
580.23076923076917
 42
0
  0
VERTEX
  8
0
 10
870.23076923076928
 20
600.23076923076917
 42
0
  0
VERTEX
  8
0
 10
870.23076923076928
 20
860.23076923076917
 42
0.41421356797218323
  0
VERTEX
  8
0
 10
840.23076923076928
 20
890.23076923076917
 42
0
  0
VERTEX
  8
0
 10
170.23076923076923
 20
890.23076923076917
 42
0.41421356797218323
  0
SEQEND
  0
POLYLINE
  8
0
 10
0
 20
0
 39
0
 70
1
 66
1
  0
VERTEX
  8
0
 10
1780.5384615384617
 20
10.230769230769232
 42
0
  0
VERTEX
  8
0
 10
1780.5384615384617
 20
130.23076923076923
 42
0
  0
VERTEX
  8
0
 10
1000.5384615384617
 20
130.23076923076917
 42
0
  0
VERTEX
  8
0
 10
1000.5384615384615
 20
1050.2307692307693
 42
0
  0
VERTEX
  8
0
 10
1780.5384615384614
 20
1050.2307692307693
 42
0
  0
VERTEX
  8
0
 10
1780.5384615384614
 20
1170.2307692307693
 42
0
  0
VERTEX
  8
0
 10
1980.5384615384614
 20
1170.2307692307693
 42
0
  0
VERTEX
  8
0
 10
1980.5384615384617
 20
10.230769230769244
 42
0
  0
SEQEND
  0
POLYLINE
  8
0
 10
0
 20
0
 39
0
 70
1
 66
1
  0
VERTEX
  8
0
 10
1130.5384615384617
 20
860.23076923076917
 42
0
  0
VERTEX
  8
0
 10
1130.5384615384617
 20
320.23076923076917
 42
0.41421356797218323
  0
VERTEX
  8
0
 10
1160.5384615384617
 20
290.23076923076917
 42
0
  0
VERTEX
  8
0
 10
1850.5384615384617
 20
290.23076923076923
 42
0.41421356797218323
  0
VERTEX
  8
0
 10
1880.5384615384617
 20
320.23076923076923
 42
0
  0
VERTEX
  8
0
 10
1880.5384615384617
 20
580.23076923076917
 42
0
  0
VERTEX
  8
0
 10
1860.5384615384617
 20
600.23076923076917
 42
0
  0
VERTEX
  8
0
 10
1860.5384615384617
 20
860.23076923076917
 42
0.41421356797218323
  0
VERTEX
  8
0
 10
1830.5384615384617
 20
890.23076923076917
 42
0
  0
VERTEX
  8
0
 10
1160.5384615384617
 20
890.23076923076917
 42
0.41421356797218323
  0
SEQEND
  0
POLYLINE
  8
0
 10
0
 20
0
 39
0
 70
1
 66
1
  0
VERTEX
  8
0
 10
612.40563543752899
 20
492.52911217205701
 42
0
  0
VERTEX
  8
0
 10
500.50381275133361
 20
357.98179663412748
 42
0
  0
VERTEX
  8
0
 10
190.5182351382183
 20
300.38461522453008
 42
0
  0
VERTEX
  8
0
 10
150.53846137837638
 20
333.63544253699956
 42
0
  0
VERTEX
  8
0
 10
150.68079235271682
 20
648.92653561823545
 42
0
  0
VERTEX
  8
0
 10
262.58261503891219
 20
783.47385115616498
 42
0
  0
VERTEX
  8
0
 10
572.56819265202751
 20
841.07103256576238
 42
0
  0
VERTEX
  8
0
 10
612.54796641186942
 20
807.8202052532929
 42
0
  0
SEQEND
  0
POLYLINE
  8
0
 10
0
 20
0
 39
0
 70
1
 66
1
  0
VERTEX
  8
0
 10
260.04980640725364
 20
424.64788131110845
 42
1
  0
VERTEX
  8
0
 10
503.03662138299217
 20
716.80776647918401
 42
1
  0
SEQEND
  0
POLYLINE
  8
0
 10
0
 20
0
 39
0
 70
1
 66
1
  0
VERTEX
  8
0
 10
1602.7133277452212
 20
492.52911217205701
 42
0
  0
VERTEX
  8
0
 10
1490.8115050590259
 20
357.98179663412748
 42
0
  0
VERTEX
  8
0
 10
1180.8259274459106
 20
300.38461522453008
 42
0
  0
VERTEX
  8
0
 10
1140.8461536860686
 20
333.63544253699956
 42
0
  0
VERTEX
  8
0
 10
1140.9884846604091
 20
648.92653561823545
 42
0
  0
VERTEX
  8
0
 10
1252.8903073466045
 20
783.47385115616498
 42
0
  0
VERTEX
  8
0
 10
1562.8758849597198
 20
841.07103256576238
 42
0
  0
VERTEX
  8
0
 10
1602.8556587195617
 20
807.8202052532929
 42
0
  0
SEQEND
  0
POLYLINE
  8
0
 10
0
 20
0
 39
0
 70
1
 66
1
  0
VERTEX
  8
0
 10
1250.3574987149459
 20
424.64788131110845
 42
1
  0
VERTEX
  8
0
 10
1493.3443136906844
 20
716.80776647918401
 42
1
  0
SEQEND
  0
POLYLINE
  8
0
 10
0
 20
0
 39
0
 70
1
 66
1
  0
VERTEX
  8
0
 10
360.26414142635394
 20
726.46003358652126
 42
-1
  0
VERTEX
  8
0
 10
358.88969905155454
 20
411.46303766061794
 42
-1
  0
SEQEND
  0
POLYLINE
  8
0
 10
0
 20
0
 39
0
 70
1
 66
1
  0
VERTEX
  8
0
 10
360.07870078848418
 20
683.96043889810574
 42
1
  0
VERTEX
  8
0
 10
359.0751396894243
 20
453.96263234903347
 42
1
  0
SEQEND
  0
POLYLINE
  8
0
 10
0
 20
0
 39
0
 70
1
 66
1
  0
VERTEX
  8
0
 10
1350.5718337340463
 20
726.46003358652126
 42
-1
  0
VERTEX
  8
0
 10
1349.1973913592469
 20
411.46303766061794
 42
-1
  0
SEQEND
  0
POLYLINE
  8
0
 10
0
 20
0
 39
0
 70
1
 66
1
  0
VERTEX
  8
0
 10
1350.3863930961766
 20
683.96043889810574
 42
1
  0
VERTEX
  8
0
 10
1349.3828319971167
 20
453.96263234903347
 42
1
  0
SEQEND
  0
POLYLINE
  8
0
 10
0
 20
0
 39
0
 70
1
 66
1
  0
VERTEX
  8
0
 10
867.05768558493992
 20
414.54421182779163
 42
-0.34809276461601257
  0
VERTEX
  8
0
 10
752.89808914176365
 20
300.38461538461536
 42
0.94387978315353394
  0
VERTEX
  8
0
 10
722.94805595389744
 20
300.38461538461536
 42
-2.0679211616516113
  0
VERTEX
  8
0
 10
867.05768558493992
 20
444.49424501565784
 42
0.94387978315353394
  0
SEQEND
  0
POLYLINE
  8
0
 10
0
 20
0
 39
0
 70
1
 66
1
  0
VERTEX
  8
0
 10
737.92307254783054
 20
509.51922842172473
 42
1
  0
VERTEX
  8
0
 10
737.92307254783054
 20
349.51922842172473
 42
1
  0
SEQEND
  0
POLYLINE
  8
0
 10
0
 20
0
 39
0
 70
1
 66
1
  0
VERTEX
  8
0
 10
700.21981784812351
 20
521.8159737220177
 42
-0
  0
VERTEX
  8
0
 10
685.92015811911961
 20
536.11563345102161
 42
0
  0
VERTEX
  8
0
 10
631.32666751853367
 20
481.52214285043567
 42
0
  0
VERTEX
  8
0
 10
645.62632724753757
 20
467.22248312143176
 42
0
  0
SEQEND
  0
POLYLINE
  8
0
 10
0
 20
0
 39
0
 70
1
 66
1
  0
VERTEX
  8
0
 10
1857.3653778926323
 20
414.54421182779163
 42
-0.34809276461601257
  0
VERTEX
  8
0
 10
1743.205781449456
 20
300.38461538461536
 42
0.94387978315353394
  0
VERTEX
  8
0
 10
1713.2557482615898
 20
300.38461538461536
 42
-2.0679211616516113
  0
VERTEX
  8
0
 10
1857.3653778926323
 20
444.49424501565784
 42
0.94387978315353394
  0
SEQEND
  0
POLYLINE
  8
0
 10
0
 20
0
 39
0
 70
1
 66
1
  0
VERTEX
  8
0
 10
1728.2307648555229
 20
509.51922842172473
 42
1
  0
VERTEX
  8
0
 10
1728.2307648555229
 20
349.51922842172473
 42
1
  0
SEQEND
  0
POLYLINE
  8
0
 10
0
 20
0
 39
0
 70
1
 66
1
  0
VERTEX
  8
0
 10
1690.5275101558159
 20
521.8159737220177
 42
-0
  0
VERTEX
  8
0
 10
1676.227850426812
 20
536.11563345102161
 42
0
  0
VERTEX
  8
0
 10
1621.634359826226
 20
481.52214285043567
 42
0
  0
VERTEX
  8
0
 10
1635.93401955523
 20
467.22248312143176
 42
0
  0
SEQEND
  0
POLYLINE
  8
0
 10
0
 20
0
 39
0
 70
1
 66
1
  0
VERTEX
  8
0
 10
687.096443763146
 20
713.69443125798261
 42
0.28324300050735474
  0
VERTEX
  8
0
 10
678.84615384615381
 20
700.29885478093183
 42
0
  0
VERTEX
  8
0
 10
678.84615384615381
 20
684.53730769230879
 42
-1
  0
VERTEX
  8
0
 10
622.84615384615381
 20
684.53730769230879
 42
0
  0
VERTEX
  8
0
 10
622.84615384615381
 20
809.53730769230879
 42
-1
  0
VERTEX
  8
0
 10
678.84615384615381
 20
809.53730769230879
 42
0.41421398520469666
  0
VERTEX
  8
0
 10
688.84615384615381
 20
799.53730769230879
 42
0
  0
VERTEX
  8
0
 10
807.84615384615381
 20
799.53730769230879
 42
0
  0
VERTEX
  8
0
 10
807.84615384615381
 20
783.77575678898847
 42
-0.28324300050735474
  0
VERTEX
  8
0
 10
799.59586392916162
 20
770.38018031193769
 42
0
  0
SEQEND
  0
POLYLINE
  8
0
 10
0
 20
0
 39
0
 70
1
 66
1
  0
VERTEX
  8
0
 10
650.84615384615381
 20
672.53730769230879
 42
1
  0
VERTEX
  8
0
 10
650.84615384615381
 20
696.53730769230879
 42
1
  0
SEQEND
  0
POLYLINE
  8
0
 10
0
 20
0
 39
0
 70
1
 66
1
  0
VERTEX
  8
0
 10
650.84615384615381
 20
797.53730769230879
 42
1
  0
VERTEX
  8
0
 10
650.84615384615381
 20
821.53730769230879
 42
1
  0
SEQEND
  0
POLYLINE
  8
0
 10
0
 20
0
 39
0
 70
1
 66
1
  0
VERTEX
  8
0
 10
743.5958639291639
 20
688.53518412663391
 42
0.28324300050735474
  0
VERTEX
  8
0
 10
751.84615384615608
 20
701.93076060368469
 42
0
  0
VERTEX
  8
0
 10
751.84615384615608
 20
717.69230769230774
 42
-1
  0
VERTEX
  8
0
 10
807.84615384615608
 20
717.69230769230774
 42
0
  0
VERTEX
  8
0
 10
807.84615384615608
 20
592.69230769230774
 42
-1
  0
VERTEX
  8
0
 10
751.84615384615608
 20
592.69230769230774
 42
0.41421398520469666
  0
VERTEX
  8
0
 10
741.84615384615608
 20
602.69230769230774
 42
0
  0
VERTEX
  8
0
 10
622.84615384615608
 20
602.69230769230774
 42
0
  0
VERTEX
  8
0
 10
622.84615384615608
 20
618.45385859562805
 42
-0.28324300050735474
  0
VERTEX
  8
0
 10
631.09644376314827
 20
631.84943507267883
 42
0
  0
SEQEND
  0
POLYLINE
  8
0
 10
0
 20
0
 39
0
 70
1
 66
1
  0
VERTEX
  8
0
 10
779.84615384615608
 20
729.69230769230774
 42
1
  0
VERTEX
  8
0
 10
779.84615384615608
 20
705.69230769230774
 42
1
  0
SEQEND
  0
POLYLINE
  8
0
 10
0
 20
0
 39
0
 70
1
 66
1
  0
VERTEX
  8
0
 10
779.84615384615608
 20
604.69230769230774
 42
1
  0
VERTEX
  8
0
 10
779.84615384615608
 20
580.69230769230774
 42
1
  0
SEQEND
  0
POLYLINE
  8
0
 10
0
 20
0
 39
0
 70
1
 66
1
  0
VERTEX
  8
0
 10
1677.4041360708384
 20
713.69443125798261
 42
0.28324300050735474
  0
VERTEX
  8
0
 10
1669.1538461538462
 20
700.29885478093183
 42
0
  0
VERTEX
  8
0
 10
1669.1538461538462
 20
684.53730769230879
 42
-1
  0
VERTEX
  8
0
 10
1613.1538461538462
 20
684.53730769230879
 42
0
  0
VERTEX
  8
0
 10
1613.1538461538462
 20
809.53730769230879
 42
-1
  0
VERTEX
  8
0
 10
1669.1538461538462
 20
809.53730769230879
 42
0.41421398520469666
  0
VERTEX
  8
0
 10
1679.1538461538462
 20
799.53730769230879
 42
0
  0
VERTEX
  8
0
 10
1798.1538461538462
 20
799.53730769230879
 42
0
  0
VERTEX
  8
0
 10
1798.1538461538462
 20
783.77575678898847
 42
-0.28324300050735474
  0
VERTEX
  8
0
 10
1789.903556236854
 20
770.38018031193769
 42
0
  0
SEQEND
  0
POLYLINE
  8
0
 10
0
 20
0
 39
0
 70
1
 66
1
  0
VERTEX
  8
0
 10
1641.1538461538462
 20
672.53730769230879
 42
1
  0
VERTEX
  8
0
 10
1641.1538461538462
 20
696.53730769230879
 42
1
  0
SEQEND
  0
POLYLINE
  8
0
 10
0
 20
0
 39
0
 70
1
 66
1
  0
VERTEX
  8
0
 10
1641.1538461538462
 20
797.53730769230879
 42
1
  0
VERTEX
  8
0
 10
1641.1538461538462
 20
821.53730769230879
 42
1
  0
SEQEND
  0
POLYLINE
  8
0
 10
0
 20
0
 39
0
 70
1
 66
1
  0
VERTEX
  8
0
 10
1733.9035562368563
 20
688.53518412663391
 42
0.28324300050735474
  0
VERTEX
  8
0
 10
1742.1538461538485
 20
701.93076060368469
 42
0
  0
VERTEX
  8
0
 10
1742.1538461538485
 20
717.69230769230774
 42
-1
  0
VERTEX
  8
0
 10
1798.1538461538485
 20
717.69230769230774
 42
0
  0
VERTEX
  8
0
 10
1798.1538461538485
 20
592.69230769230774
 42
-1
  0
VERTEX
  8
0
 10
1742.1538461538485
 20
592.69230769230774
 42
0.41421398520469666
  0
VERTEX
  8
0
 10
1732.1538461538485
 20
602.69230769230774
 42
0
  0
VERTEX
  8
0
 10
1613.1538461538485
 20
602.69230769230774
 42
0
  0
VERTEX
  8
0
 10
1613.1538461538485
 20
618.45385859562805
 42
-0.28324300050735474
  0
VERTEX
  8
0
 10
1621.4041360708407
 20
631.84943507267883
 42
0
  0
SEQEND
  0
POLYLINE
  8
0
 10
0
 20
0
 39
0
 70
1
 66
1
  0
VERTEX
  8
0
 10
1770.1538461538485
 20
729.69230769230774
 42
1
  0
VERTEX
  8
0
 10
1770.1538461538485
 20
705.69230769230774
 42
1
  0
SEQEND
  0
POLYLINE
  8
0
 10
0
 20
0
 39
0
 70
1
 66
1
  0
VERTEX
  8
0
 10
1770.1538461538485
 20
604.69230769230774
 42
1
  0
VERTEX
  8
0
 10
1770.1538461538485
 20
580.69230769230774
 42
1
  0
SEQEND
  0
POLYLINE
  8
0
 10
0
 20
0
 39
0
 70
1
 66
1
  0
VERTEX
  8
0
 10
298.23076923076923
 20
10.23076923076923
 42
-0
  0
VERTEX
  8
0
 10
50.230769230769226
 20
10.23076923076923
 42
-1
  0
VERTEX
  8
0
 10
50.230769230769226
 20
90.230769230769226
 42
0
  0
VERTEX
  8
0
 10
298.23076923076923
 20
90.230769230769226
 42
-1
  0
SEQEND
  0
POLYLINE
  8
0
 10
0
 20
0
 39
0
 70
1
 66
1
  0
VERTEX
  8
0
 10
254.08235461895282
 20
68.053996159480164
 42
-0
  0
VERTEX
  8
0
 10
94.379176213191101
 20
68.053996159480164
 42
1
  0
VERTEX
  8
0
 10
94.379176213191101
 20
32.407542302058289
 42
0
  0
VERTEX
  8
0
 10
254.08235461895282
 20
32.407542302058289
 42
1
  0
SEQEND
  0
POLYLINE
  8
0
 10
0
 20
0
 39
0
 70
1
 66
1
  0
VERTEX
  8
0
 10
298.23076923076923
 20
1060.5384615384614
 42
-0
  0
VERTEX
  8
0
 10
50.230769230769226
 20
1060.5384615384614
 42
-1
  0
VERTEX
  8
0
 10
50.230769230769226
 20
1140.5384615384614
 42
0
  0
VERTEX
  8
0
 10
298.23076923076923
 20
1140.5384615384614
 42
-1
  0
SEQEND
  0
POLYLINE
  8
0
 10
0
 20
0
 39
0
 70
1
 66
1
  0
VERTEX
  8
0
 10
254.08235461895282
 20
1118.3616884671724
 42
-0
  0
VERTEX
  8
0
 10
94.379176213191101
 20
1118.3616884671724
 42
1
  0
VERTEX
  8
0
 10
94.379176213191101
 20
1082.7152346097505
 42
0
  0
VERTEX
  8
0
 10
254.08235461895282
 20
1082.7152346097505
 42
1
  0
SEQEND
  0
POLYLINE
  8
0
 10
0
 20
0
 39
0
 70
1
 66
1
  0
VERTEX
  8
0
 10
622.23076923076928
 20
1109.6153846153845
 42
-0
  0
VERTEX
  8
0
 10
374.23076923076928
 20
1109.6153846153845
 42
-1
  0
VERTEX
  8
0
 10
374.23076923076928
 20
1189.6153846153845
 42
0
  0
VERTEX
  8
0
 10
622.23076923076928
 20
1189.6153846153845
 42
-1
  0
SEQEND
  0
POLYLINE
  8
0
 10
0
 20
0
 39
0
 70
1
 66
1
  0
VERTEX
  8
0
 10
578.08235461895288
 20
1167.4386115440955
 42
-0
  0
VERTEX
  8
0
 10
418.37917621319116
 20
1167.4386115440955
 42
1
  0
VERTEX
  8
0
 10
418.37917621319116
 20
1131.7921576866736
 42
0
  0
VERTEX
  8
0
 10
578.08235461895288
 20
1131.7921576866736
 42
1
  0
SEQEND
  0
POLYLINE
  8
0
 10
0
 20
0
 39
0
 70
1
 66
1
  0
VERTEX
  8
0
 10
631.76923076923072
 20
39.615384615384613
 42
-0
  0
VERTEX
  8
0
 10
383.76923076923072
 20
39.615384615384613
 42
-1
  0
VERTEX
  8
0
 10
383.76923076923072
 20
119.61538461538461
 42
0
  0
VERTEX
  8
0
 10
631.76923076923072
 20
119.61538461538461
 42
-1
  0
SEQEND
  0
POLYLINE
  8
0
 10
0
 20
0
 39
0
 70
1
 66
1
  0
VERTEX
  8
0
 10
587.62081615741431
 20
97.438611544095551
 42
-0
  0
VERTEX
  8
0
 10
427.91763775165259
 20
97.438611544095551
 42
1
  0
VERTEX
  8
0
 10
427.91763775165259
 20
61.792157686673676
 42
0
  0
VERTEX
  8
0
 10
587.62081615741431
 20
61.792157686673676
 42
1
  0
SEQEND
  0
POLYLINE
  8
0
 10
0
 20
0
 39
0
 70
1
 66
1
  0
VERTEX
  8
0
 10
1288.3846153846152
 20
1060.5384615384614
 42
-0
  0
VERTEX
  8
0
 10
1040.3846153846152
 20
1060.5384615384614
 42
-1
  0
VERTEX
  8
0
 10
1040.3846153846152
 20
1140.5384615384614
 42
0
  0
VERTEX
  8
0
 10
1288.3846153846152
 20
1140.5384615384614
 42
-1
  0
SEQEND
  0
POLYLINE
  8
0
 10
0
 20
0
 39
0
 70
1
 66
1
  0
VERTEX
  8
0
 10
1244.2362007727988
 20
1118.3616884671724
 42
-0
  0
VERTEX
  8
0
 10
1084.5330223670371
 20
1118.3616884671724
 42
1
  0
VERTEX
  8
0
 10
1084.5330223670371
 20
1082.7152346097505
 42
0
  0
VERTEX
  8
0
 10
1244.2362007727988
 20
1082.7152346097505
 42
1
  0
SEQEND
  0
POLYLINE
  8
0
 10
0
 20
0
 39
0
 70
1
 66
1
  0
VERTEX
  8
0
 10
1288.5384615384614
 20
10.23076923076923
 42
-0
  0
VERTEX
  8
0
 10
1040.5384615384614
 20
10.23076923076923
 42
-1
  0
VERTEX
  8
0
 10
1040.5384615384614
 20
90.230769230769226
 42
0
  0
VERTEX
  8
0
 10
1288.5384615384614
 20
90.230769230769226
 42
-1
  0
SEQEND
  0
POLYLINE
  8
0
 10
0
 20
0
 39
0
 70
1
 66
1
  0
VERTEX
  8
0
 10
1244.390046926645
 20
68.053996159480164
 42
-0
  0
VERTEX
  8
0
 10
1084.6868685208833
 20
68.053996159480164
 42
1
  0
VERTEX
  8
0
 10
1084.6868685208833
 20
32.407542302058289
 42
0
  0
VERTEX
  8
0
 10
1244.390046926645
 20
32.407542302058289
 42
1
  0
SEQEND
  0
POLYLINE
  8
0
 10
0
 20
0
 39
0
 70
1
 66
1
  0
VERTEX
  8
0
 10
1612.3846153846155
 20
1109.6153846153845
 42
-0
  0
VERTEX
  8
0
 10
1364.3846153846155
 20
1109.6153846153845
 42
-1
  0
VERTEX
  8
0
 10
1364.3846153846155
 20
1189.6153846153845
 42
0
  0
VERTEX
  8
0
 10
1612.3846153846155
 20
1189.6153846153845
 42
-1
  0
SEQEND
  0
POLYLINE
  8
0
 10
0
 20
0
 39
0
 70
1
 66
1
  0
VERTEX
  8
0
 10
1568.2362007727991
 20
1167.4386115440955
 42
-0
  0
VERTEX
  8
0
 10
1408.5330223670373
 20
1167.4386115440955
 42
1
  0
VERTEX
  8
0
 10
1408.5330223670373
 20
1131.7921576866736
 42
0
  0
VERTEX
  8
0
 10
1568.2362007727991
 20
1131.7921576866736
 42
1
  0
SEQEND
  0
POLYLINE
  8
0
 10
0
 20
0
 39
0
 70
1
 66
1
  0
VERTEX
  8
0
 10
1622.0769230769231
 20
39.615384615384613
 42
-0
  0
VERTEX
  8
0
 10
1374.0769230769231
 20
39.615384615384613
 42
-1
  0
VERTEX
  8
0
 10
1374.0769230769231
 20
119.61538461538461
 42
0
  0
VERTEX
  8
0
 10
1622.0769230769231
 20
119.61538461538461
 42
-1
  0
SEQEND
  0
POLYLINE
  8
0
 10
0
 20
0
 39
0
 70
1
 66
1
  0
VERTEX
  8
0
 10
1577.9285084651067
 20
97.438611544095551
 42
-0
  0
VERTEX
  8
0
 10
1418.225330059345
 20
97.438611544095551
 42
1
  0
VERTEX
  8
0
 10
1418.225330059345
 20
61.792157686673676
 42
0
  0
VERTEX
  8
0
 10
1577.9285084651067
 20
61.792157686673676
 42
1
  0
SEQEND
  0
POLYLINE
  8
0
 10
0
 20
0
 39
0
 70
1
 66
1
  0
VERTEX
  8
0
 10
355.92307692307691
 20
511.92307692307691
 42
-0
  0
VERTEX
  8
0
 10
271.92307692307691
 20
511.92307692307691
 42
-0
  0
VERTEX
  8
0
 10
271.92307692307691
 20
625.92307692307691
 42
-0
  0
VERTEX
  8
0
 10
355.92307692307691
 20
625.92307692307691
 42
-0
  0
SEQEND
  0
POLYLINE
  8
0
 10
0
 20
0
 39
0
 70
1
 66
1
  0
VERTEX
  8
0
 10
336.42307692307691
 20
568.92307692307691
 42
1
  0
VERTEX
  8
0
 10
291.42307692307691
 20
568.92307692307691
 42
1
  0
SEQEND
  0
POLYLINE
  8
0
 10
0
 20
0
 39
0
 70
1
 66
1
  0
VERTEX
  8
0
 10
756.38461538461536
 20
1060.5384615384614
 42
-0
  0
VERTEX
  8
0
 10
672.38461538461536
 20
1060.5384615384614
 42
-0
  0
VERTEX
  8
0
 10
672.38461538461536
 20
1174.5384615384614
 42
-0
  0
VERTEX
  8
0
 10
756.38461538461536
 20
1174.5384615384614
 42
-0
  0
SEQEND
  0
POLYLINE
  8
0
 10
0
 20
0
 39
0
 70
1
 66
1
  0
VERTEX
  8
0
 10
736.88461538461536
 20
1117.5384615384614
 42
1
  0
VERTEX
  8
0
 10
691.88461538461536
 20
1117.5384615384614
 42
1
  0
SEQEND
  0
POLYLINE
  8
0
 10
0
 20
0
 39
0
 70
1
 66
1
  0
VERTEX
  8
0
 10
1346.2307692307693
 20
511.92307692307691
 42
-0
  0
VERTEX
  8
0
 10
1262.2307692307693
 20
511.92307692307691
 42
-0
  0
VERTEX
  8
0
 10
1262.2307692307693
 20
625.92307692307691
 42
-0
  0
VERTEX
  8
0
 10
1346.2307692307693
 20
625.92307692307691
 42
-0
  0
SEQEND
  0
POLYLINE
  8
0
 10
0
 20
0
 39
0
 70
1
 66
1
  0
VERTEX
  8
0
 10
1326.7307692307693
 20
568.92307692307691
 42
1
  0
VERTEX
  8
0
 10
1281.7307692307693
 20
568.92307692307691
 42
1
  0
SEQEND
  0
POLYLINE
  8
0
 10
0
 20
0
 39
0
 70
1
 66
1
  0
VERTEX
  8
0
 10
1746.5384615384614
 20
1060.5384615384614
 42
-0
  0
VERTEX
  8
0
 10
1662.5384615384614
 20
1060.5384615384614
 42
-0
  0
VERTEX
  8
0
 10
1662.5384615384614
 20
1174.5384615384614
 42
-0
  0
VERTEX
  8
0
 10
1746.5384615384614
 20
1174.5384615384614
 42
-0
  0
SEQEND
  0
POLYLINE
  8
0
 10
0
 20
0
 39
0
 70
1
 66
1
  0
VERTEX
  8
0
 10
1727.0384615384614
 20
1117.5384615384614
 42
1
  0
VERTEX
  8
0
 10
1682.0384615384614
 20
1117.5384615384614
 42
1
  0
SEQEND
  0
POLYLINE
  8
0
 10
0
 20
0
 39
0
 70
1
 66
1
  0
VERTEX
  8
0
 10
211.33345970740686
 20
852.07692307692309
 42
-0
  0
VERTEX
  8
0
 10
230.53846153846155
 20
799.31161088209888
 42
0
  0
VERTEX
  8
0
 10
230.53846153846155
 20
790.84223527174731
 42
0
  0
VERTEX
  8
0
 10
211.33345970740686
 20
738.07692307692309
 42
-0
  0
VERTEX
  8
0
 10
150.53846153846155
 20
738.07692307692309
 42
-0
  0
VERTEX
  8
0
 10
150.53846153846155
 20
852.07692307692309
 42
0
  0
SEQEND
  0
POLYLINE
  8
0
 10
0
 20
0
 39
0
 70
1
 66
1
  0
VERTEX
  8
0
 10
211.33345970740686
 20
787.07692307692309
 42
1
  0
VERTEX
  8
0
 10
211.33345970740686
 20
803.07692307692309
 42
1
  0
SEQEND
  0
POLYLINE
  8
0
 10
0
 20
0
 39
0
 70
1
 66
1
  0
VERTEX
  8
0
 10
163.34993157019983
 20
754.74416131239673
 42
0.16584248840808868
  0
VERTEX
  8
0
 10
191.6603487454928
 20
752.40389317732593
 42
-0
  0
VERTEX
  8
0
 10
191.6603487454928
 20
837.74995011549731
 42
0.16584248840808868
  0
VERTEX
  8
0
 10
163.34993157019983
 20
835.40968674879809
 42
0
  0
SEQEND
  0
POLYLINE
  8
0
 10
0
 20
0
 39
0
 70
1
 66
1
  0
VERTEX
  8
0
 10
427.02576739971454
 20
603
 42
-0
  0
VERTEX
  8
0
 10
446.23076923076923
 20
550.23468780517578
 42
0
  0
VERTEX
  8
0
 10
446.23076923076923
 20
541.76531219482422
 42
0
  0
VERTEX
  8
0
 10
427.02576739971454
 20
489
 42
-0
  0
VERTEX
  8
0
 10
366.23076923076923
 20
489
 42
-0
  0
VERTEX
  8
0
 10
366.23076923076923
 20
603
 42
0
  0
SEQEND
  0
POLYLINE
  8
0
 10
0
 20
0
 39
0
 70
1
 66
1
  0
VERTEX
  8
0
 10
427.02576739971454
 20
538
 42
1
  0
VERTEX
  8
0
 10
427.02576739971454
 20
554
 42
1
  0
SEQEND
  0
POLYLINE
  8
0
 10
0
 20
0
 39
0
 70
1
 66
1
  0
VERTEX
  8
0
 10
379.04223926250751
 20
505.66723823547363
 42
0.16584248840808868
  0
VERTEX
  8
0
 10
407.35265643780048
 20
503.32697010040283
 42
-0
  0
VERTEX
  8
0
 10
407.35265643780048
 20
588.67302703857422
 42
0.16584248840808868
  0
VERTEX
  8
0
 10
379.04223926250751
 20
586.332763671875
 42
0
  0
SEQEND
  0
POLYLINE
  8
0
 10
0
 20
0
 39
0
 70
1
 66
1
  0
VERTEX
  8
0
 10
698.0511556772085
 20
372.53846153846155
 42
-0
  0
VERTEX
  8
0
 10
678.84615384615381
 20
425.30377373328577
 42
0
  0
VERTEX
  8
0
 10
678.84615384615381
 20
433.77314934363733
 42
0
  0
VERTEX
  8
0
 10
698.0511556772085
 20
486.53846153846155
 42
-0
  0
VERTEX
  8
0
 10
758.84615384615381
 20
486.53846153846155
 42
-0
  0
VERTEX
  8
0
 10
758.84615384615381
 20
372.53846153846155
 42
0
  0
SEQEND
  0
POLYLINE
  8
0
 10
0
 20
0
 39
0
 70
1
 66
1
  0
VERTEX
  8
0
 10
698.0511556772085
 20
437.53846153846155
 42
1
  0
VERTEX
  8
0
 10
698.0511556772085
 20
421.53846153846155
 42
1
  0
SEQEND
  0
POLYLINE
  8
0
 10
0
 20
0
 39
0
 70
1
 66
1
  0
VERTEX
  8
0
 10
746.03468381441553
 20
469.87122330298791
 42
0.16584248840808868
  0
VERTEX
  8
0
 10
717.72426663912256
 20
472.21149143805872
 42
-0
  0
VERTEX
  8
0
 10
717.72426663912256
 20
386.86543449988733
 42
0.16584248840808868
  0
VERTEX
  8
0
 10
746.03468381441553
 20
389.20569786658655
 42
0
  0
SEQEND
  0
POLYLINE
  8
0
 10
0
 20
0
 39
0
 70
1
 66
1
  0
VERTEX
  8
0
 10
1201.6411520150991
 20
852.07692307692309
 42
-0
  0
VERTEX
  8
0
 10
1220.8461538461538
 20
799.31161088209888
 42
0
  0
VERTEX
  8
0
 10
1220.8461538461538
 20
790.84223527174731
 42
0
  0
VERTEX
  8
0
 10
1201.6411520150991
 20
738.07692307692309
 42
-0
  0
VERTEX
  8
0
 10
1140.8461538461538
 20
738.07692307692309
 42
-0
  0
VERTEX
  8
0
 10
1140.8461538461538
 20
852.07692307692309
 42
0
  0
SEQEND
  0
POLYLINE
  8
0
 10
0
 20
0
 39
0
 70
1
 66
1
  0
VERTEX
  8
0
 10
1201.6411520150991
 20
787.07692307692309
 42
1
  0
VERTEX
  8
0
 10
1201.6411520150991
 20
803.07692307692309
 42
1
  0
SEQEND
  0
POLYLINE
  8
0
 10
0
 20
0
 39
0
 70
1
 66
1
  0
VERTEX
  8
0
 10
1153.6576238778921
 20
754.74416131239673
 42
0.16584248840808868
  0
VERTEX
  8
0
 10
1181.9680410531851
 20
752.40389317732593
 42
-0
  0
VERTEX
  8
0
 10
1181.9680410531851
 20
837.74995011549731
 42
0.16584248840808868
  0
VERTEX
  8
0
 10
1153.6576238778921
 20
835.40968674879809
 42
0
  0
SEQEND
  0
POLYLINE
  8
0
 10
0
 20
0
 39
0
 70
1
 66
1
  0
VERTEX
  8
0
 10
1417.3334597074067
 20
603
 42
-0
  0
VERTEX
  8
0
 10
1436.5384615384614
 20
550.23468780517578
 42
0
  0
VERTEX
  8
0
 10
1436.5384615384614
 20
541.76531219482422
 42
0
  0
VERTEX
  8
0
 10
1417.3334597074067
 20
489
 42
-0
  0
VERTEX
  8
0
 10
1356.5384615384614
 20
489
 42
-0
  0
VERTEX
  8
0
 10
1356.5384615384614
 20
603
 42
0
  0
SEQEND
  0
POLYLINE
  8
0
 10
0
 20
0
 39
0
 70
1
 66
1
  0
VERTEX
  8
0
 10
1417.3334597074067
 20
538
 42
1
  0
VERTEX
  8
0
 10
1417.3334597074067
 20
554
 42
1
  0
SEQEND
  0
POLYLINE
  8
0
 10
0
 20
0
 39
0
 70
1
 66
1
  0
VERTEX
  8
0
 10
1369.3499315701997
 20
505.66723823547363
 42
0.16584248840808868
  0
VERTEX
  8
0
 10
1397.6603487454927
 20
503.32697010040283
 42
-0
  0
VERTEX
  8
0
 10
1397.6603487454927
 20
588.67302703857422
 42
0.16584248840808868
  0
VERTEX
  8
0
 10
1369.3499315701997
 20
586.332763671875
 42
0
  0
SEQEND
  0
POLYLINE
  8
0
 10
0
 20
0
 39
0
 70
1
 66
1
  0
VERTEX
  8
0
 10
1688.3588479849009
 20
372.53846153846155
 42
-0
  0
VERTEX
  8
0
 10
1669.1538461538462
 20
425.30377373328577
 42
0
  0
VERTEX
  8
0
 10
1669.1538461538462
 20
433.77314934363733
 42
0
  0
VERTEX
  8
0
 10
1688.3588479849009
 20
486.53846153846155
 42
-0
  0
VERTEX
  8
0
 10
1749.1538461538462
 20
486.53846153846155
 42
-0
  0
VERTEX
  8
0
 10
1749.1538461538462
 20
372.53846153846155
 42
0
  0
SEQEND
  0
POLYLINE
  8
0
 10
0
 20
0
 39
0
 70
1
 66
1
  0
VERTEX
  8
0
 10
1688.3588479849009
 20
437.53846153846155
 42
1
  0
VERTEX
  8
0
 10
1688.3588479849009
 20
421.53846153846155
 42
1
  0
SEQEND
  0
POLYLINE
  8
0
 10
0
 20
0
 39
0
 70
1
 66
1
  0
VERTEX
  8
0
 10
1736.3423761221079
 20
469.87122330298791
 42
0.16584248840808868
  0
VERTEX
  8
0
 10
1708.0319589468149
 20
472.21149143805872
 42
-0
  0
VERTEX
  8
0
 10
1708.0319589468149
 20
386.86543449988733
 42
0.16584248840808868
  0
VERTEX
  8
0
 10
1736.3423761221079
 20
389.20569786658655
 42
0
  0
SEQEND
  0
POLYLINE
  8
0
 10
0
 20
0
 39
0
 70
1
 66
1
  0
VERTEX
  8
0
 10
340.53846153846155
 20
829.76923076923072
 42
-0
  0
VERTEX
  8
0
 10
230.53846153846155
 20
829.76923076923072
 42
0
  0
VERTEX
  8
0
 10
230.53846153846155
 20
841.76923076923072
 42
1
  0
VERTEX
  8
0
 10
230.53846153846155
 20
867.76923076923072
 42
0
  0
VERTEX
  8
0
 10
230.53846153846155
 20
879.76923076923072
 42
0
  0
VERTEX
  8
0
 10
340.53846153846155
 20
879.76923076923072
 42
0
  0
SEQEND
  0
POLYLINE
  8
0
 10
0
 20
0
 39
0
 70
1
 66
1
  0
VERTEX
  8
0
 10
298.53846153846155
 20
854.76923076923072
 42
1
  0
VERTEX
  8
0
 10
272.53846153846155
 20
854.76923076923072
 42
1
  0
SEQEND
  0
POLYLINE
  8
0
 10
0
 20
0
 39
0
 70
1
 66
1
  0
VERTEX
  8
0
 10
617.61538461538464
 20
300.38461538461536
 42
-0
  0
VERTEX
  8
0
 10
507.61538461538464
 20
300.38461538461536
 42
0
  0
VERTEX
  8
0
 10
507.61538461538464
 20
312.38461538461536
 42
1
  0
VERTEX
  8
0
 10
507.61538461538464
 20
338.38461538461536
 42
0
  0
VERTEX
  8
0
 10
507.61538461538464
 20
350.38461538461536
 42
0
  0
VERTEX
  8
0
 10
617.61538461538464
 20
350.38461538461536
 42
0
  0
SEQEND
  0
POLYLINE
  8
0
 10
0
 20
0
 39
0
 70
1
 66
1
  0
VERTEX
  8
0
 10
575.61538461538464
 20
325.38461538461536
 42
1
  0
VERTEX
  8
0
 10
549.61538461538464
 20
325.38461538461536
 42
1
  0
SEQEND
  0
POLYLINE
  8
0
 10
0
 20
0
 39
0
 70
1
 66
1
  0
VERTEX
  8
0
 10
793.46153846153845
 20
829.92307692307691
 42
-0
  0
VERTEX
  8
0
 10
683.46153846153845
 20
829.92307692307691
 42
0
  0
VERTEX
  8
0
 10
683.46153846153845
 20
841.92307692307691
 42
1
  0
VERTEX
  8
0
 10
683.46153846153845
 20
867.92307692307691
 42
0
  0
VERTEX
  8
0
 10
683.46153846153845
 20
879.92307692307691
 42
0
  0
VERTEX
  8
0
 10
793.46153846153845
 20
879.92307692307691
 42
0
  0
SEQEND
  0
POLYLINE
  8
0
 10
0
 20
0
 39
0
 70
1
 66
1
  0
VERTEX
  8
0
 10
751.46153846153845
 20
854.92307692307691
 42
1
  0
VERTEX
  8
0
 10
725.46153846153845
 20
854.92307692307691
 42
1
  0
SEQEND
  0
POLYLINE
  8
0
 10
0
 20
0
 39
0
 70
1
 66
1
  0
VERTEX
  8
0
 10
1330.8461538461538
 20
829.76923076923072
 42
-0
  0
VERTEX
  8
0
 10
1220.8461538461538
 20
829.76923076923072
 42
0
  0
VERTEX
  8
0
 10
1220.8461538461538
 20
841.76923076923072
 42
1
  0
VERTEX
  8
0
 10
1220.8461538461538
 20
867.76923076923072
 42
0
  0
VERTEX
  8
0
 10
1220.8461538461538
 20
879.76923076923072
 42
0
  0
VERTEX
  8
0
 10
1330.8461538461538
 20
879.76923076923072
 42
0
  0
SEQEND
  0
POLYLINE
  8
0
 10
0
 20
0
 39
0
 70
1
 66
1
  0
VERTEX
  8
0
 10
1288.8461538461538
 20
854.76923076923072
 42
1
  0
VERTEX
  8
0
 10
1262.8461538461538
 20
854.76923076923072
 42
1
  0
SEQEND
  0
POLYLINE
  8
0
 10
0
 20
0
 39
0
 70
1
 66
1
  0
VERTEX
  8
0
 10
1607.9230769230769
 20
300.38461538461536
 42
-0
  0
VERTEX
  8
0
 10
1497.9230769230769
 20
300.38461538461536
 42
0
  0
VERTEX
  8
0
 10
1497.9230769230769
 20
312.38461538461536
 42
1
  0
VERTEX
  8
0
 10
1497.9230769230769
 20
338.38461538461536
 42
0
  0
VERTEX
  8
0
 10
1497.9230769230769
 20
350.38461538461536
 42
0
  0
VERTEX
  8
0
 10
1607.9230769230769
 20
350.38461538461536
 42
0
  0
SEQEND
  0
POLYLINE
  8
0
 10
0
 20
0
 39
0
 70
1
 66
1
  0
VERTEX
  8
0
 10
1565.9230769230769
 20
325.38461538461536
 42
1
  0
VERTEX
  8
0
 10
1539.9230769230769
 20
325.38461538461536
 42
1
  0
SEQEND
  0
POLYLINE
  8
0
 10
0
 20
0
 39
0
 70
1
 66
1
  0
VERTEX
  8
0
 10
1783.7692307692307
 20
829.92307692307691
 42
-0
  0
VERTEX
  8
0
 10
1673.7692307692307
 20
829.92307692307691
 42
0
  0
VERTEX
  8
0
 10
1673.7692307692307
 20
841.92307692307691
 42
1
  0
VERTEX
  8
0
 10
1673.7692307692307
 20
867.92307692307691
 42
0
  0
VERTEX
  8
0
 10
1673.7692307692307
 20
879.92307692307691
 42
0
  0
VERTEX
  8
0
 10
1783.7692307692307
 20
879.92307692307691
 42
0
  0
SEQEND
  0
POLYLINE
  8
0
 10
0
 20
0
 39
0
 70
1
 66
1
  0
VERTEX
  8
0
 10
1741.7692307692307
 20
854.92307692307691
 42
1
  0
VERTEX
  8
0
 10
1715.7692307692307
 20
854.92307692307691
 42
1
  0
SEQEND
  0
ENDSEC
  0
EOF
