  0
SECTION
  2
ENTITIES
  0
POLYLINE
  8
0
 10
0
 20
0
 39
0
 70
1
 66
1
  0
VERTEX
  8
0
 10
0
 20
0
 42
0
  0
VERTEX
  8
0
 10
2800
 20
0
 42
0
  0
VERTEX
  8
0
 10
2800
 20
1200
 42
0
  0
VERTEX
  8
0
 10
0
 20
1200
 42
0
  0
SEQEND
  0
POLYLINE
  8
0
 10
0
 20
0
 39
0
 70
1
 66
1
  0
VERTEX
  8
0
 10
1852
 20
10.000007629394531
 42
-0
  0
VERTEX
  8
0
 10
1955.8348388671875
 20
10
 42
0.11932211369276047
  0
VERTEX
  8
0
 10
1955.8348388671875
 20
210.00001525878906
 42
0
  0
VERTEX
  8
0
 10
1852
 20
210
 42
-0.1576707661151886
  0
SEQEND
  0
POLYLINE
  8
0
 10
0
 20
0
 39
0
 70
1
 66
1
  0
VERTEX
  8
0
 10
1944.76708984375
 20
99
 42
0
  0
VERTEX
  8
0
 10
1934.76708984375
 20
99
 42
-1
  0
VERTEX
  8
0
 10
1934.76708984375
 20
121
 42
-0
  0
VERTEX
  8
0
 10
1944.76708984375
 20
121
 42
-1
  0
SEQEND
  0
POLYLINE
  8
0
 10
0
 20
0
 39
0
 70
1
 66
1
  0
VERTEX
  8
0
 10
1424
 20
10
 42
0.61160182952880859
  0
VERTEX
  8
0
 10
1480.7742919921875
 20
120.94715881347656
 42
-0
  0
VERTEX
  8
0
 10
1330
 20
330
 42
0
  0
VERTEX
  8
0
 10
1330
 20
10
 42
0
  0
SEQEND
  0
POLYLINE
  8
0
 10
0
 20
0
 39
0
 70
1
 66
1
  0
VERTEX
  8
0
 10
1424
 20
98.5
 42
-1
  0
VERTEX
  8
0
 10
1424
 20
61.5
 42
-1
  0
SEQEND
  0
POLYLINE
  8
0
 10
0
 20
0
 39
0
 70
1
 66
1
  0
VERTEX
  8
0
 10
1400
 20
440.18701171875
 42
0.61160182952880859
  0
VERTEX
  8
0
 10
1343.2255859375
 20
329.23983764648437
 42
-0
  0
VERTEX
  8
0
 10
1494
 20
120.18699645996094
 42
0
  0
VERTEX
  8
0
 10
1494
 20
440.18701171875
 42
0
  0
SEQEND
  0
POLYLINE
  8
0
 10
0
 20
0
 39
0
 70
1
 66
1
  0
VERTEX
  8
0
 10
1400
 20
351.68701171875
 42
-1
  0
VERTEX
  8
0
 10
1400
 20
388.68701171875
 42
-1
  0
SEQEND
  0
POLYLINE
  8
0
 10
0
 20
0
 39
0
 70
1
 66
1
  0
VERTEX
  8
0
 10
1772
 20
10
 42
0.61160182952880859
  0
VERTEX
  8
0
 10
1828.7742919921875
 20
120.94715881347656
 42
-0
  0
VERTEX
  8
0
 10
1678
 20
330
 42
0
  0
VERTEX
  8
0
 10
1678
 20
10
 42
0
  0
SEQEND
  0
POLYLINE
  8
0
 10
0
 20
0
 39
0
 70
1
 66
1
  0
VERTEX
  8
0
 10
1772
 20
98.5
 42
-1
  0
VERTEX
  8
0
 10
1772
 20
61.5
 42
-1
  0
SEQEND
  0
POLYLINE
  8
0
 10
0
 20
0
 39
0
 70
1
 66
1
  0
VERTEX
  8
0
 10
1748
 20
440.18701171875
 42
0.61160182952880859
  0
VERTEX
  8
0
 10
1691.2255859375
 20
329.23983764648437
 42
-0
  0
VERTEX
  8
0
 10
1842
 20
120.18699645996094
 42
0
  0
VERTEX
  8
0
 10
1842
 20
440.18701171875
 42
0
  0
SEQEND
  0
POLYLINE
  8
0
 10
0
 20
0
 39
0
 70
1
 66
1
  0
VERTEX
  8
0
 10
1748
 20
351.68701171875
 42
-1
  0
VERTEX
  8
0
 10
1748
 20
388.68701171875
 42
-1
  0
SEQEND
  0
POLYLINE
  8
0
 10
0
 20
0
 39
0
 70
1
 66
1
  0
VERTEX
  8
0
 10
2071.76708984375
 20
10
 42
0.61160182952880859
  0
VERTEX
  8
0
 10
2128.54150390625
 20
120.94715881347656
 42
-0
  0
VERTEX
  8
0
 10
1977.7669677734375
 20
330
 42
0
  0
VERTEX
  8
0
 10
1977.7669677734375
 20
10
 42
0
  0
SEQEND
  0
POLYLINE
  8
0
 10
0
 20
0
 39
0
 70
1
 66
1
  0
VERTEX
  8
0
 10
2071.76708984375
 20
98.5
 42
-1
  0
VERTEX
  8
0
 10
2071.76708984375
 20
61.5
 42
-1
  0
SEQEND
  0
POLYLINE
  8
0
 10
0
 20
0
 39
0
 70
1
 66
1
  0
VERTEX
  8
0
 10
2047.7669677734375
 20
440.18701171875
 42
0.61160182952880859
  0
VERTEX
  8
0
 10
1990.99267578125
 20
329.23983764648437
 42
-0
  0
VERTEX
  8
0
 10
2141.76708984375
 20
120.18699645996094
 42
0
  0
VERTEX
  8
0
 10
2141.76708984375
 20
440.18701171875
 42
0
  0
SEQEND
  0
POLYLINE
  8
0
 10
0
 20
0
 39
0
 70
1
 66
1
  0
VERTEX
  8
0
 10
2047.7669677734375
 20
351.68701171875
 42
-1
  0
VERTEX
  8
0
 10
2047.7669677734375
 20
388.68701171875
 42
-1
  0
SEQEND
  0
POLYLINE
  8
0
 10
0
 20
0
 39
0
 70
1
 66
1
  0
VERTEX
  8
0
 10
2649.0390625
 20
184
 42
0.61160182952880859
  0
VERTEX
  8
0
 10
2705.8134765625
 20
294.9471435546875
 42
-0
  0
VERTEX
  8
0
 10
2555.0390625
 20
504
 42
0
  0
VERTEX
  8
0
 10
2555.0390625
 20
184
 42
0
  0
SEQEND
  0
POLYLINE
  8
0
 10
0
 20
0
 39
0
 70
1
 66
1
  0
VERTEX
  8
0
 10
2649.0390625
 20
272.5
 42
-1
  0
VERTEX
  8
0
 10
2649.0390625
 20
235.5
 42
-1
  0
SEQEND
  0
POLYLINE
  8
0
 10
0
 20
0
 39
0
 70
1
 66
1
  0
VERTEX
  8
0
 10
2625.0390625
 20
614.18701171875
 42
0.61160182952880859
  0
VERTEX
  8
0
 10
2568.2646484375
 20
503.23983764648437
 42
-0
  0
VERTEX
  8
0
 10
2719.0390625
 20
294.18698120117187
 42
0
  0
VERTEX
  8
0
 10
2719.0390625
 20
614.18701171875
 42
0
  0
SEQEND
  0
POLYLINE
  8
0
 10
0
 20
0
 39
0
 70
1
 66
1
  0
VERTEX
  8
0
 10
2625.0390625
 20
525.68701171875
 42
-1
  0
VERTEX
  8
0
 10
2625.0390625
 20
562.68701171875
 42
-1
  0
SEQEND
  0
POLYLINE
  8
0
 10
0
 20
0
 39
0
 70
1
 66
1
  0
VERTEX
  8
0
 10
1448.7794189453125
 20
720.18701171875
 42
0.61160182952880859
  0
VERTEX
  8
0
 10
1505.5537109375
 20
831.1341552734375
 42
-0
  0
VERTEX
  8
0
 10
1354.7794189453125
 20
1040.18701171875
 42
0
  0
VERTEX
  8
0
 10
1354.7794189453125
 20
720.18701171875
 42
0
  0
SEQEND
  0
POLYLINE
  8
0
 10
0
 20
0
 39
0
 70
1
 66
1
  0
VERTEX
  8
0
 10
1448.7794189453125
 20
808.68701171875
 42
-1
  0
VERTEX
  8
0
 10
1448.7794189453125
 20
771.68701171875
 42
-1
  0
SEQEND
  0
POLYLINE
  8
0
 10
0
 20
0
 39
0
 70
1
 66
1
  0
VERTEX
  8
0
 10
1424.779296875
 20
1150.3740234375
 42
0.61160182952880859
  0
VERTEX
  8
0
 10
1368.0050048828125
 20
1039.4268798828125
 42
-0
  0
VERTEX
  8
0
 10
1518.779296875
 20
830.3740234375
 42
0
  0
VERTEX
  8
0
 10
1518.779296875
 20
1150.3740234375
 42
0
  0
SEQEND
  0
POLYLINE
  8
0
 10
0
 20
0
 39
0
 70
1
 66
1
  0
VERTEX
  8
0
 10
1424.779296875
 20
1061.8740234375
 42
-1
  0
VERTEX
  8
0
 10
1424.779296875
 20
1098.8740234375
 42
-1
  0
SEQEND
  0
POLYLINE
  8
0
 10
0
 20
0
 39
0
 70
1
 66
1
  0
VERTEX
  8
0
 10
1528.779296875
 20
930.18701171875
 42
-0
  0
VERTEX
  8
0
 10
1632.6142578125
 20
930.18701171875
 42
0.11932211369276047
  0
VERTEX
  8
0
 10
1632.6142578125
 20
1130.18701171875
 42
0
  0
VERTEX
  8
0
 10
1528.779296875
 20
1130.18701171875
 42
-0.1576707661151886
  0
SEQEND
  0
POLYLINE
  8
0
 10
0
 20
0
 39
0
 70
1
 66
1
  0
VERTEX
  8
0
 10
1621.54638671875
 20
1019.18701171875
 42
0
  0
VERTEX
  8
0
 10
1611.54638671875
 20
1019.18701171875
 42
-1
  0
VERTEX
  8
0
 10
1611.54638671875
 20
1041.18701171875
 42
-0
  0
VERTEX
  8
0
 10
1621.54638671875
 20
1041.18701171875
 42
-1
  0
SEQEND
  0
POLYLINE
  8
0
 10
0
 20
0
 39
0
 70
1
 66
1
  0
VERTEX
  8
0
 10
2346.267578125
 20
970.88671875
 42
-0
  0
VERTEX
  8
0
 10
2450.1025390625
 20
970.88671875
 42
0.11932211369276047
  0
VERTEX
  8
0
 10
2450.1025390625
 20
1170.88671875
 42
0
  0
VERTEX
  8
0
 10
2346.267578125
 20
1170.88671875
 42
-0.1576707661151886
  0
SEQEND
  0
POLYLINE
  8
0
 10
0
 20
0
 39
0
 70
1
 66
1
  0
VERTEX
  8
0
 10
2439.03466796875
 20
1059.88671875
 42
0
  0
VERTEX
  8
0
 10
2429.03466796875
 20
1059.88671875
 42
-1
  0
VERTEX
  8
0
 10
2429.03466796875
 20
1081.88671875
 42
-0
  0
VERTEX
  8
0
 10
2439.03466796875
 20
1081.88671875
 42
-1
  0
SEQEND
  0
POLYLINE
  8
0
 10
0
 20
0
 39
0
 70
1
 66
1
  0
VERTEX
  8
0
 10
1528.779296875
 20
720.18701171875
 42
-0
  0
VERTEX
  8
0
 10
1632.6142578125
 20
720.18701171875
 42
0.11932211369276047
  0
VERTEX
  8
0
 10
1632.6142578125
 20
920.18701171875
 42
0
  0
VERTEX
  8
0
 10
1528.779296875
 20
920.18701171875
 42
-0.1576707661151886
  0
SEQEND
  0
POLYLINE
  8
0
 10
0
 20
0
 39
0
 70
1
 66
1
  0
VERTEX
  8
0
 10
1621.54638671875
 20
809.18701171875
 42
0
  0
VERTEX
  8
0
 10
1611.54638671875
 20
809.18701171875
 42
-1
  0
VERTEX
  8
0
 10
1611.54638671875
 20
831.18701171875
 42
-0
  0
VERTEX
  8
0
 10
1621.54638671875
 20
831.18701171875
 42
-1
  0
SEQEND
  0
POLYLINE
  8
0
 10
0
 20
0
 39
0
 70
1
 66
1
  0
VERTEX
  8
0
 10
2472.03466796875
 20
970.88671875
 42
-0
  0
VERTEX
  8
0
 10
2575.86962890625
 20
970.88671875
 42
0.11932211369276047
  0
VERTEX
  8
0
 10
2575.86962890625
 20
1170.88671875
 42
0
  0
VERTEX
  8
0
 10
2472.03466796875
 20
1170.88671875
 42
-0.1576707661151886
  0
SEQEND
  0
POLYLINE
  8
0
 10
0
 20
0
 39
0
 70
1
 66
1
  0
VERTEX
  8
0
 10
2564.8017578125
 20
1059.88671875
 42
0
  0
VERTEX
  8
0
 10
2554.8017578125
 20
1059.88671875
 42
-1
  0
VERTEX
  8
0
 10
2554.8017578125
 20
1081.88671875
 42
-0
  0
VERTEX
  8
0
 10
2564.8017578125
 20
1081.88671875
 42
-1
  0
SEQEND
  0
POLYLINE
  8
0
 10
0
 20
0
 39
0
 70
1
 66
1
  0
VERTEX
  8
0
 10
2597.8017578125
 20
970.88671875
 42
-0
  0
VERTEX
  8
0
 10
2701.63671875
 20
970.88671875
 42
0.11932211369276047
  0
VERTEX
  8
0
 10
2701.63671875
 20
1170.88671875
 42
0
  0
VERTEX
  8
0
 10
2597.8017578125
 20
1170.88671875
 42
-0.1576707661151886
  0
SEQEND
  0
POLYLINE
  8
0
 10
0
 20
0
 39
0
 70
1
 66
1
  0
VERTEX
  8
0
 10
2690.56884765625
 20
1059.88671875
 42
0
  0
VERTEX
  8
0
 10
2680.56884765625
 20
1059.88671875
 42
-1
  0
VERTEX
  8
0
 10
2680.56884765625
 20
1081.88671875
 42
-0
  0
VERTEX
  8
0
 10
2690.56884765625
 20
1081.88671875
 42
-1
  0
SEQEND
  0
POLYLINE
  8
0
 10
0
 20
0
 39
0
 70
1
 66
1
  0
VERTEX
  8
0
 10
1654.54638671875
 20
720.18701171875
 42
-0
  0
VERTEX
  8
0
 10
1758.38134765625
 20
720.18701171875
 42
0.11932211369276047
  0
VERTEX
  8
0
 10
1758.38134765625
 20
920.18701171875
 42
0
  0
VERTEX
  8
0
 10
1654.54638671875
 20
920.18701171875
 42
-0.1576707661151886
  0
SEQEND
  0
POLYLINE
  8
0
 10
0
 20
0
 39
0
 70
1
 66
1
  0
VERTEX
  8
0
 10
1747.3134765625
 20
809.18701171875
 42
0
  0
VERTEX
  8
0
 10
1737.3134765625
 20
809.18701171875
 42
-1
  0
VERTEX
  8
0
 10
1737.3134765625
 20
831.18701171875
 42
-0
  0
VERTEX
  8
0
 10
1747.3134765625
 20
831.18701171875
 42
-1
  0
SEQEND
  0
POLYLINE
  8
0
 10
0
 20
0
 39
0
 70
1
 66
1
  0
VERTEX
  8
0
 10
2210.50048828125
 20
1084.18701171875
 42
0.61160182952880859
  0
VERTEX
  8
0
 10
2099.553466796875
 20
1140.9613037109375
 42
-0
  0
VERTEX
  8
0
 10
1890.50048828125
 20
990.18701171875
 42
0
  0
VERTEX
  8
0
 10
2210.50048828125
 20
990.18701171875
 42
0
  0
SEQEND
  0
POLYLINE
  8
0
 10
0
 20
0
 39
0
 70
1
 66
1
  0
VERTEX
  8
0
 10
2122.00048828125
 20
1084.18701171875
 42
-1
  0
VERTEX
  8
0
 10
2159.00048828125
 20
1084.18701171875
 42
-1
  0
SEQEND
  0
POLYLINE
  8
0
 10
0
 20
0
 39
0
 70
1
 66
1
  0
VERTEX
  8
0
 10
1780.3134765625
 20
1060.18701171875
 42
0.61160182952880859
  0
VERTEX
  8
0
 10
1891.2606201171875
 20
1003.41259765625
 42
-0
  0
VERTEX
  8
0
 10
2100.3134765625
 20
1154.18701171875
 42
0
  0
VERTEX
  8
0
 10
1780.3134765625
 20
1154.18701171875
 42
0
  0
SEQEND
  0
POLYLINE
  8
0
 10
0
 20
0
 39
0
 70
1
 66
1
  0
VERTEX
  8
0
 10
1868.8134765625
 20
1060.18701171875
 42
-1
  0
VERTEX
  8
0
 10
1831.8134765625
 20
1060.18701171875
 42
-1
  0
SEQEND
  0
POLYLINE
  8
0
 10
0
 20
0
 39
0
 70
1
 66
1
  0
VERTEX
  8
0
 10
2707.72119140625
 20
104
 42
0.61160182952880859
  0
VERTEX
  8
0
 10
2596.77392578125
 20
160.77436828613281
 42
-0
  0
VERTEX
  8
0
 10
2387.72119140625
 20
10
 42
0
  0
VERTEX
  8
0
 10
2707.72119140625
 20
10
 42
0
  0
SEQEND
  0
POLYLINE
  8
0
 10
0
 20
0
 39
0
 70
1
 66
1
  0
VERTEX
  8
0
 10
2619.22119140625
 20
104
 42
-1
  0
VERTEX
  8
0
 10
2656.22119140625
 20
104
 42
-1
  0
SEQEND
  0
POLYLINE
  8
0
 10
0
 20
0
 39
0
 70
1
 66
1
  0
VERTEX
  8
0
 10
2277.5341796875
 20
79.999992370605469
 42
0.61160182952880859
  0
VERTEX
  8
0
 10
2388.481201171875
 20
23.225624084472656
 42
-0
  0
VERTEX
  8
0
 10
2597.5341796875
 20
174
 42
0
  0
VERTEX
  8
0
 10
2277.5341796875
 20
174
 42
0
  0
SEQEND
  0
POLYLINE
  8
0
 10
0
 20
0
 39
0
 70
1
 66
1
  0
VERTEX
  8
0
 10
2366.0341796875
 20
79.999992370605469
 42
-1
  0
VERTEX
  8
0
 10
2329.0341796875
 20
79.999992370605469
 42
-1
  0
SEQEND
  0
POLYLINE
  8
0
 10
0
 20
0
 39
0
 70
1
 66
1
  0
VERTEX
  8
0
 10
1598
 20
10
 42
0.61160182952880859
  0
VERTEX
  8
0
 10
1654.7742919921875
 20
120.94715881347656
 42
-0
  0
VERTEX
  8
0
 10
1504
 20
330
 42
0
  0
VERTEX
  8
0
 10
1504
 20
10
 42
0
  0
SEQEND
  0
POLYLINE
  8
0
 10
0
 20
0
 39
0
 70
1
 66
1
  0
VERTEX
  8
0
 10
1598
 20
98.5
 42
-1
  0
VERTEX
  8
0
 10
1598
 20
61.5
 42
-1
  0
SEQEND
  0
POLYLINE
  8
0
 10
0
 20
0
 39
0
 70
1
 66
1
  0
VERTEX
  8
0
 10
1574
 20
440.18701171875
 42
0.61160182952880859
  0
VERTEX
  8
0
 10
1517.2255859375
 20
329.23983764648437
 42
-0
  0
VERTEX
  8
0
 10
1668
 20
120.18699645996094
 42
0
  0
VERTEX
  8
0
 10
1668
 20
440.18701171875
 42
0
  0
SEQEND
  0
POLYLINE
  8
0
 10
0
 20
0
 39
0
 70
1
 66
1
  0
VERTEX
  8
0
 10
1574
 20
351.68701171875
 42
-1
  0
VERTEX
  8
0
 10
1574
 20
388.68701171875
 42
-1
  0
SEQEND
  0
POLYLINE
  8
0
 10
0
 20
0
 39
0
 70
1
 66
1
  0
VERTEX
  8
0
 10
1484.212158203125
 20
710.18572998046875
 42
1
  0
VERTEX
  8
0
 10
1485.3465576171875
 20
450.188232421875
 42
1
  0
SEQEND
  0
POLYLINE
  8
0
 10
0
 20
0
 39
0
 70
1
 66
1
  0
VERTEX
  8
0
 10
1555.39990234375
 20
590.02264404296875
 42
-0.39275187253952026
  0
VERTEX
  8
0
 10
1555.4830322265625
 20
570.968017578125
 42
0
  0
VERTEX
  8
0
 10
1518.4989013671875
 20
570.806640625
 42
-7.2084965705871582
  0
VERTEX
  8
0
 10
1518.415771484375
 20
589.86126708984375
 42
-0
  0
SEQEND
  0
POLYLINE
  8
0
 10
0
 20
0
 39
0
 70
1
 66
1
  0
VERTEX
  8
0
 10
1909.746337890625
 20
980.18572998046875
 42
1
  0
VERTEX
  8
0
 10
1910.8807373046875
 20
720.188232421875
 42
1
  0
SEQEND
  0
POLYLINE
  8
0
 10
0
 20
0
 39
0
 70
1
 66
1
  0
VERTEX
  8
0
 10
1980.93408203125
 20
860.02264404296875
 42
-0.39275187253952026
  0
VERTEX
  8
0
 10
1981.0172119140625
 20
840.968017578125
 42
0
  0
VERTEX
  8
0
 10
1944.0330810546875
 20
840.806640625
 42
-7.2084965705871582
  0
VERTEX
  8
0
 10
1943.949951171875
 20
859.86126708984375
 42
-0
  0
SEQEND
  0
POLYLINE
  8
0
 10
0
 20
0
 39
0
 70
1
 66
1
  0
VERTEX
  8
0
 10
1754.212158203125
 20
710.18572998046875
 42
1
  0
VERTEX
  8
0
 10
1755.3465576171875
 20
450.188232421875
 42
1
  0
SEQEND
  0
POLYLINE
  8
0
 10
0
 20
0
 39
0
 70
1
 66
1
  0
VERTEX
  8
0
 10
1825.39990234375
 20
590.02264404296875
 42
-0.39275187253952026
  0
VERTEX
  8
0
 10
1825.4830322265625
 20
570.968017578125
 42
0
  0
VERTEX
  8
0
 10
1788.4989013671875
 20
570.806640625
 42
-7.2084965705871582
  0
VERTEX
  8
0
 10
1788.415771484375
 20
589.86126708984375
 42
-0
  0
SEQEND
  0
POLYLINE
  8
0
 10
0
 20
0
 39
0
 70
1
 66
1
  0
VERTEX
  8
0
 10
884.51959228515625
 20
718.08050537109375
 42
0.61160182952880859
  0
VERTEX
  8
0
 10
941.2939453125
 20
829.02764892578125
 42
-0
  0
VERTEX
  8
0
 10
790.51959228515625
 20
1038.0804443359375
 42
0
  0
VERTEX
  8
0
 10
790.51959228515625
 20
718.08050537109375
 42
0
  0
SEQEND
  0
POLYLINE
  8
0
 10
0
 20
0
 39
0
 70
1
 66
1
  0
VERTEX
  8
0
 10
884.51959228515625
 20
806.58050537109375
 42
-1
  0
VERTEX
  8
0
 10
884.51959228515625
 20
769.58050537109375
 42
-1
  0
SEQEND
  0
POLYLINE
  8
0
 10
0
 20
0
 39
0
 70
1
 66
1
  0
VERTEX
  8
0
 10
860.51959228515625
 20
1148.2674560546875
 42
0.61160182952880859
  0
VERTEX
  8
0
 10
803.74517822265625
 20
1037.3203125
 42
-0
  0
VERTEX
  8
0
 10
954.51959228515625
 20
828.2674560546875
 42
0
  0
VERTEX
  8
0
 10
954.51959228515625
 20
1148.2674560546875
 42
0
  0
SEQEND
  0
POLYLINE
  8
0
 10
0
 20
0
 39
0
 70
1
 66
1
  0
VERTEX
  8
0
 10
860.51959228515625
 20
1059.7674560546875
 42
-1
  0
VERTEX
  8
0
 10
860.51959228515625
 20
1096.7674560546875
 42
-1
  0
SEQEND
  0
POLYLINE
  8
0
 10
0
 20
0
 39
0
 70
1
 66
1
  0
VERTEX
  8
0
 10
2305.513427734375
 20
960.885498046875
 42
1
  0
VERTEX
  8
0
 10
2306.647705078125
 20
700.887939453125
 42
1
  0
SEQEND
  0
POLYLINE
  8
0
 10
0
 20
0
 39
0
 70
1
 66
1
  0
VERTEX
  8
0
 10
2376.701171875
 20
840.72235107421875
 42
-0.39275187253952026
  0
VERTEX
  8
0
 10
2376.7841796875
 20
821.667724609375
 42
0
  0
VERTEX
  8
0
 10
2339.800048828125
 20
821.50634765625
 42
-7.2084965705871582
  0
VERTEX
  8
0
 10
2339.717041015625
 20
840.56097412109375
 42
-0
  0
SEQEND
  0
POLYLINE
  8
0
 10
0
 20
0
 39
0
 70
1
 66
1
  0
VERTEX
  8
0
 10
2575.513427734375
 20
960.885498046875
 42
1
  0
VERTEX
  8
0
 10
2576.647705078125
 20
700.887939453125
 42
1
  0
SEQEND
  0
POLYLINE
  8
0
 10
0
 20
0
 39
0
 70
1
 66
1
  0
VERTEX
  8
0
 10
2646.701171875
 20
840.72235107421875
 42
-0.39275187253952026
  0
VERTEX
  8
0
 10
2646.7841796875
 20
821.667724609375
 42
0
  0
VERTEX
  8
0
 10
2609.800048828125
 20
821.50634765625
 42
-7.2084965705871582
  0
VERTEX
  8
0
 10
2609.717041015625
 20
840.56097412109375
 42
-0
  0
SEQEND
  0
POLYLINE
  8
0
 10
0
 20
0
 39
0
 70
1
 66
1
  0
VERTEX
  8
0
 10
2024.212158203125
 20
710.18572998046875
 42
1
  0
VERTEX
  8
0
 10
2025.3465576171875
 20
450.188232421875
 42
1
  0
SEQEND
  0
POLYLINE
  8
0
 10
0
 20
0
 39
0
 70
1
 66
1
  0
VERTEX
  8
0
 10
2095.39990234375
 20
590.02264404296875
 42
-0.39275187253952026
  0
VERTEX
  8
0
 10
2095.483154296875
 20
570.968017578125
 42
0
  0
VERTEX
  8
0
 10
2058.4990234375
 20
570.806640625
 42
-7.2084965705871582
  0
VERTEX
  8
0
 10
2058.415771484375
 20
589.86126708984375
 42
-0
  0
SEQEND
  0
POLYLINE
  8
0
 10
0
 20
0
 39
0
 70
1
 66
1
  0
VERTEX
  8
0
 10
2151.76708984375
 20
10.000007629394531
 42
-0
  0
VERTEX
  8
0
 10
2255.601806640625
 20
10
 42
0.11932211369276047
  0
VERTEX
  8
0
 10
2255.601806640625
 20
210.00001525878906
 42
0
  0
VERTEX
  8
0
 10
2151.76708984375
 20
210
 42
-0.1576707661151886
  0
SEQEND
  0
POLYLINE
  8
0
 10
0
 20
0
 39
0
 70
1
 66
1
  0
VERTEX
  8
0
 10
2244.5341796875
 20
99
 42
0
  0
VERTEX
  8
0
 10
2234.5341796875
 20
99
 42
-1
  0
VERTEX
  8
0
 10
2234.5341796875
 20
121
 42
-0
  0
VERTEX
  8
0
 10
2244.5341796875
 20
121
 42
-1
  0
SEQEND
  0
POLYLINE
  8
0
 10
0
 20
0
 39
0
 70
1
 66
1
  0
VERTEX
  8
0
 10
38.053058624267578
 20
806.87481689453125
 42
-0
  0
VERTEX
  8
0
 10
74.082748413085938
 20
789.4962158203125
 42
0
  0
VERTEX
  8
0
 10
271.54266357421875
 20
722.785400390625
 42
0.51879560947418213
  0
VERTEX
  8
0
 10
390.24404907226563
 20
809.76336669921875
 42
-0
  0
VERTEX
  8
0
 10
389.51641845703125
 20
1087.000244140625
 42
0
  0
VERTEX
  8
0
 10
371.50244140625
 20
1095.6890869140625
 42
-0.22677740454673767
  0
VERTEX
  8
0
 10
151.88180541992187
 20
853.44549560546875
 42
-0
  0
SEQEND
  0
POLYLINE
  8
0
 10
0
 20
0
 39
0
 70
1
 66
1
  0
VERTEX
  8
0
 10
268.7362060546875
 20
823.28521728515625
 42
-1
  0
VERTEX
  8
0
 10
331.78506469726562
 20
792.87408447265625
 42
-1
  0
SEQEND
  0
POLYLINE
  8
0
 10
0
 20
0
 39
0
 70
1
 66
1
  0
VERTEX
  8
0
 10
362.20672607421875
 20
1100.1728515625
 42
-0
  0
VERTEX
  8
0
 10
326.17703247070312
 20
1117.551513671875
 42
0
  0
VERTEX
  8
0
 10
128.71713256835937
 20
1184.2623291015625
 42
0.51879560947418213
  0
VERTEX
  8
0
 10
10.015755653381348
 20
1097.2843017578125
 42
-0
  0
VERTEX
  8
0
 10
10.743386268615723
 20
820.0474853515625
 42
0
  0
VERTEX
  8
0
 10
28.757350921630859
 20
811.35858154296875
 42
-0.22677740454673767
  0
VERTEX
  8
0
 10
248.37797546386719
 20
1053.6021728515625
 42
-0
  0
SEQEND
  0
POLYLINE
  8
0
 10
0
 20
0
 39
0
 70
1
 66
1
  0
VERTEX
  8
0
 10
131.52359008789063
 20
1083.762451171875
 42
-1
  0
VERTEX
  8
0
 10
68.474716186523438
 20
1114.173583984375
 42
-1
  0
SEQEND
  0
POLYLINE
  8
0
 10
0
 20
0
 39
0
 70
1
 66
1
  0
VERTEX
  8
0
 10
2220.50048828125
 20
970.88671875
 42
-0
  0
VERTEX
  8
0
 10
2324.33544921875
 20
970.88671875
 42
0.11932211369276047
  0
VERTEX
  8
0
 10
2324.33544921875
 20
1170.88671875
 42
0
  0
VERTEX
  8
0
 10
2220.50048828125
 20
1170.88671875
 42
-0.1576707661151886
  0
SEQEND
  0
POLYLINE
  8
0
 10
0
 20
0
 39
0
 70
1
 66
1
  0
VERTEX
  8
0
 10
2313.267578125
 20
1059.88671875
 42
0
  0
VERTEX
  8
0
 10
2303.267578125
 20
1059.88671875
 42
-1
  0
VERTEX
  8
0
 10
2303.267578125
 20
1081.88671875
 42
-0
  0
VERTEX
  8
0
 10
2313.267578125
 20
1081.88671875
 42
-1
  0
SEQEND
  0
POLYLINE
  8
0
 10
0
 20
0
 39
0
 70
1
 66
1
  0
VERTEX
  8
0
 10
1654.54638671875
 20
930.18701171875
 42
-0
  0
VERTEX
  8
0
 10
1758.38134765625
 20
930.18701171875
 42
0.11932211369276047
  0
VERTEX
  8
0
 10
1758.38134765625
 20
1130.18701171875
 42
0
  0
VERTEX
  8
0
 10
1654.54638671875
 20
1130.18701171875
 42
-0.1576707661151886
  0
SEQEND
  0
POLYLINE
  8
0
 10
0
 20
0
 39
0
 70
1
 66
1
  0
VERTEX
  8
0
 10
1747.3134765625
 20
1019.18701171875
 42
0
  0
VERTEX
  8
0
 10
1737.3134765625
 20
1019.18701171875
 42
-1
  0
VERTEX
  8
0
 10
1737.3134765625
 20
1041.18701171875
 42
-0
  0
VERTEX
  8
0
 10
1747.3134765625
 20
1041.18701171875
 42
-1
  0
SEQEND
  0
POLYLINE
  8
0
 10
0
 20
0
 39
0
 70
1
 66
1
  0
VERTEX
  8
0
 10
2050.3134765625
 20
720.18701171875
 42
-0
  0
VERTEX
  8
0
 10
2154.1484375
 20
720.18701171875
 42
0.11932211369276047
  0
VERTEX
  8
0
 10
2154.1484375
 20
920.18701171875
 42
0
  0
VERTEX
  8
0
 10
2050.3134765625
 20
920.18701171875
 42
-0.1576707661151886
  0
SEQEND
  0
POLYLINE
  8
0
 10
0
 20
0
 39
0
 70
1
 66
1
  0
VERTEX
  8
0
 10
2143.08056640625
 20
809.18701171875
 42
0
  0
VERTEX
  8
0
 10
2133.08056640625
 20
809.18701171875
 42
-1
  0
VERTEX
  8
0
 10
2133.08056640625
 20
831.18701171875
 42
-0
  0
VERTEX
  8
0
 10
2143.08056640625
 20
831.18701171875
 42
-1
  0
SEQEND
  0
POLYLINE
  8
0
 10
0
 20
0
 39
0
 70
1
 66
1
  0
VERTEX
  8
0
 10
696.506591796875
 20
254.5242919921875
 42
0.51156294345855713
  0
VERTEX
  8
0
 10
1319.6297607421875
 20
105.8204345703125
 42
-0
  0
VERTEX
  8
0
 10
1319.9892578125
 20
380.44204711914062
 42
1.2323212623596191
  0
SEQEND
  0
POLYLINE
  8
0
 10
0
 20
0
 39
0
 70
1
 66
1
  0
VERTEX
  8
0
 10
1063.1920166015625
 20
462.923095703125
 42
-1
  0
VERTEX
  8
0
 10
926.80792236328125
 20
303.23785400390625
 42
-1
  0
SEQEND
  0
POLYLINE
  8
0
 10
0
 20
0
 39
0
 70
1
 66
1
  0
VERTEX
  8
0
 10
1852
 20
220.00003051757813
 42
-0
  0
VERTEX
  8
0
 10
1955.8348388671875
 20
220.00001525878906
 42
0.11932211369276047
  0
VERTEX
  8
0
 10
1955.8348388671875
 20
420.00003051757812
 42
0
  0
VERTEX
  8
0
 10
1852
 20
420
 42
-0.1576707661151886
  0
SEQEND
  0
POLYLINE
  8
0
 10
0
 20
0
 39
0
 70
1
 66
1
  0
VERTEX
  8
0
 10
1944.76708984375
 20
309
 42
0
  0
VERTEX
  8
0
 10
1934.76708984375
 20
309
 42
-1
  0
VERTEX
  8
0
 10
1934.76708984375
 20
331
 42
-0
  0
VERTEX
  8
0
 10
1944.76708984375
 20
331
 42
-1
  0
SEQEND
  0
POLYLINE
  8
0
 10
0
 20
0
 39
0
 70
1
 66
1
  0
VERTEX
  8
0
 10
992.5726318359375
 20
806.87481689453125
 42
-0
  0
VERTEX
  8
0
 10
1028.602294921875
 20
789.4962158203125
 42
0
  0
VERTEX
  8
0
 10
1226.062255859375
 20
722.785400390625
 42
0.51879560947418213
  0
VERTEX
  8
0
 10
1344.7635498046875
 20
809.76336669921875
 42
-0
  0
VERTEX
  8
0
 10
1344.0360107421875
 20
1087.000244140625
 42
0
  0
VERTEX
  8
0
 10
1326.02197265625
 20
1095.6890869140625
 42
-0.22677740454673767
  0
VERTEX
  8
0
 10
1106.4013671875
 20
853.44549560546875
 42
-0
  0
SEQEND
  0
POLYLINE
  8
0
 10
0
 20
0
 39
0
 70
1
 66
1
  0
VERTEX
  8
0
 10
1223.2557373046875
 20
823.28521728515625
 42
-1
  0
VERTEX
  8
0
 10
1286.3046875
 20
792.87408447265625
 42
-1
  0
SEQEND
  0
POLYLINE
  8
0
 10
0
 20
0
 39
0
 70
1
 66
1
  0
VERTEX
  8
0
 10
1316.726318359375
 20
1100.1728515625
 42
-0
  0
VERTEX
  8
0
 10
1280.6966552734375
 20
1117.551513671875
 42
0
  0
VERTEX
  8
0
 10
1083.2366943359375
 20
1184.2623291015625
 42
0.51879560947418213
  0
VERTEX
  8
0
 10
964.53533935546875
 20
1097.2843017578125
 42
-0
  0
VERTEX
  8
0
 10
965.262939453125
 20
820.0474853515625
 42
0
  0
VERTEX
  8
0
 10
983.27691650390625
 20
811.35858154296875
 42
-0.22677740454673767
  0
VERTEX
  8
0
 10
1202.8975830078125
 20
1053.6021728515625
 42
-0
  0
SEQEND
  0
POLYLINE
  8
0
 10
0
 20
0
 39
0
 70
1
 66
1
  0
VERTEX
  8
0
 10
1086.043212890625
 20
1083.762451171875
 42
-1
  0
VERTEX
  8
0
 10
1022.9942626953125
 20
1114.173583984375
 42
-1
  0
SEQEND
  0
POLYLINE
  8
0
 10
0
 20
0
 39
0
 70
1
 66
1
  0
VERTEX
  8
0
 10
2192.83251953125
 20
308.79437255859375
 42
-0
  0
VERTEX
  8
0
 10
2228.862060546875
 20
291.41571044921875
 42
0
  0
VERTEX
  8
0
 10
2426.322021484375
 20
224.70492553710937
 42
0.51879560947418213
  0
VERTEX
  8
0
 10
2545.0234375
 20
311.68289184570312
 42
-0
  0
VERTEX
  8
0
 10
2544.295654296875
 20
588.91973876953125
 42
0
  0
VERTEX
  8
0
 10
2526.28173828125
 20
597.608642578125
 42
-0.22677740454673767
  0
VERTEX
  8
0
 10
2306.6611328125
 20
355.364990234375
 42
-0
  0
SEQEND
  0
POLYLINE
  8
0
 10
0
 20
0
 39
0
 70
1
 66
1
  0
VERTEX
  8
0
 10
2423.515625
 20
325.20477294921875
 42
-1
  0
VERTEX
  8
0
 10
2486.564453125
 20
294.79360961914062
 42
-1
  0
SEQEND
  0
POLYLINE
  8
0
 10
0
 20
0
 39
0
 70
1
 66
1
  0
VERTEX
  8
0
 10
2516.986083984375
 20
602.09234619140625
 42
-0
  0
VERTEX
  8
0
 10
2480.956298828125
 20
619.47100830078125
 42
0
  0
VERTEX
  8
0
 10
2283.49658203125
 20
686.18182373046875
 42
0.51879560947418213
  0
VERTEX
  8
0
 10
2164.795166015625
 20
599.203857421875
 42
-0
  0
VERTEX
  8
0
 10
2165.522705078125
 20
321.96701049804687
 42
0
  0
VERTEX
  8
0
 10
2183.53662109375
 20
313.27810668945312
 42
-0.22677740454673767
  0
VERTEX
  8
0
 10
2403.1572265625
 20
555.521728515625
 42
-0
  0
SEQEND
  0
POLYLINE
  8
0
 10
0
 20
0
 39
0
 70
1
 66
1
  0
VERTEX
  8
0
 10
2286.302978515625
 20
585.6820068359375
 42
-1
  0
VERTEX
  8
0
 10
2223.254150390625
 20
616.0931396484375
 42
-1
  0
SEQEND
  0
POLYLINE
  8
0
 10
0
 20
0
 39
0
 70
1
 66
1
  0
VERTEX
  8
0
 10
36.506610870361328
 20
254.5242919921875
 42
0.51156294345855713
  0
VERTEX
  8
0
 10
659.62982177734375
 20
105.8204345703125
 42
-0
  0
VERTEX
  8
0
 10
659.9892578125
 20
380.44204711914062
 42
1.2323212623596191
  0
SEQEND
  0
POLYLINE
  8
0
 10
0
 20
0
 39
0
 70
1
 66
1
  0
VERTEX
  8
0
 10
403.1920166015625
 20
462.923095703125
 42
-1
  0
VERTEX
  8
0
 10
266.80795288085937
 20
303.23785400390625
 42
-1
  0
SEQEND
  0
POLYLINE
  8
0
 10
0
 20
0
 39
0
 70
1
 66
1
  0
VERTEX
  8
0
 10
428.31283569335937
 20
806.87481689453125
 42
-0
  0
VERTEX
  8
0
 10
464.342529296875
 20
789.4962158203125
 42
0
  0
VERTEX
  8
0
 10
661.80242919921875
 20
722.785400390625
 42
0.51879560947418213
  0
VERTEX
  8
0
 10
780.50384521484375
 20
809.76336669921875
 42
-0
  0
VERTEX
  8
0
 10
779.77618408203125
 20
1087.000244140625
 42
0
  0
VERTEX
  8
0
 10
761.76220703125
 20
1095.6890869140625
 42
-0.22677740454673767
  0
VERTEX
  8
0
 10
542.1416015625
 20
853.44549560546875
 42
-0
  0
SEQEND
  0
POLYLINE
  8
0
 10
0
 20
0
 39
0
 70
1
 66
1
  0
VERTEX
  8
0
 10
658.9959716796875
 20
823.28521728515625
 42
-1
  0
VERTEX
  8
0
 10
722.04486083984375
 20
792.87408447265625
 42
-1
  0
SEQEND
  0
POLYLINE
  8
0
 10
0
 20
0
 39
0
 70
1
 66
1
  0
VERTEX
  8
0
 10
752.466552734375
 20
1100.1728515625
 42
-0
  0
VERTEX
  8
0
 10
716.43682861328125
 20
1117.551513671875
 42
0
  0
VERTEX
  8
0
 10
518.9769287109375
 20
1184.2623291015625
 42
0.51879560947418213
  0
VERTEX
  8
0
 10
400.27554321289062
 20
1097.2843017578125
 42
-0
  0
VERTEX
  8
0
 10
401.003173828125
 20
820.0474853515625
 42
0
  0
VERTEX
  8
0
 10
419.01715087890625
 20
811.35858154296875
 42
-0.22677740454673767
  0
VERTEX
  8
0
 10
638.63775634765625
 20
1053.6021728515625
 42
-0
  0
SEQEND
  0
POLYLINE
  8
0
 10
0
 20
0
 39
0
 70
1
 66
1
  0
VERTEX
  8
0
 10
521.78338623046875
 20
1083.762451171875
 42
-1
  0
VERTEX
  8
0
 10
458.7344970703125
 20
1114.173583984375
 42
-1
  0
SEQEND
  0
ENDSEC
  0
EOF
