  0
SECTION
  2
ENTITIES
  0
POLYLINE
  8
0
 10
0
 20
0
 39
0
 70
1
 66
1
  0
VERTEX
  8
0
 10
0
 20
0
 42
0
  0
VERTEX
  8
0
 10
2500
 20
0
 42
0
  0
VERTEX
  8
0
 10
2500
 20
1000
 42
0
  0
VERTEX
  8
0
 10
0
 20
1000
 42
0
  0
SEQEND
  0
POLYLINE
  8
0
 10
0
 20
0
 39
0
 70
1
 66
1
  0
VERTEX
  8
0
 10
1646
 20
870
 42
1
  0
VERTEX
  8
0
 10
1646
 20
790
 42
0
  0
VERTEX
  8
0
 10
1894
 20
790
 42
1
  0
VERTEX
  8
0
 10
1894
 20
870
 42
-0
  0
SEQEND
  0
POLYLINE
  8
0
 10
0
 20
0
 39
0
 70
1
 66
1
  0
VERTEX
  8
0
 10
1757
 20
830
 42
-1
  0
VERTEX
  8
0
 10
1783
 20
830
 42
-1
  0
SEQEND
  0
POLYLINE
  8
0
 10
0
 20
0
 39
0
 70
1
 66
1
  0
VERTEX
  8
0
 10
1809.6719970703125
 20
830
 42
-1
  0
VERTEX
  8
0
 10
1831.6719970703125
 20
830
 42
-1
  0
SEQEND
  0
POLYLINE
  8
0
 10
0
 20
0
 39
0
 70
1
 66
1
  0
VERTEX
  8
0
 10
1708.3280029296875
 20
830
 42
-1
  0
VERTEX
  8
0
 10
1730.3280029296875
 20
830
 42
-1
  0
SEQEND
  0
POLYLINE
  8
0
 10
0
 20
0
 39
0
 70
1
 66
1
  0
VERTEX
  8
0
 10
530
 20
710
 42
0
  0
VERTEX
  8
0
 10
530
 20
10
 42
-0
  0
VERTEX
  8
0
 10
650
 20
10
 42
-0
  0
VERTEX
  8
0
 10
650
 20
710
 42
-0
  0
SEQEND
  0
POLYLINE
  8
0
 10
0
 20
0
 39
0
 70
1
 66
1
  0
VERTEX
  8
0
 10
590
 20
398
 42
-1
  0
VERTEX
  8
0
 10
590
 20
322
 42
-1
  0
SEQEND
  0
POLYLINE
  8
0
 10
0
 20
0
 39
0
 70
1
 66
1
  0
VERTEX
  8
0
 10
628
 20
668.66973876953125
 42
0
  0
VERTEX
  8
0
 10
628
 20
580.75323486328125
 42
0.085440635681152344
  0
VERTEX
  8
0
 10
552
 20
580.75323486328125
 42
-0
  0
VERTEX
  8
0
 10
552
 20
668.66973876953125
 42
-0.06132299080491066
  0
SEQEND
  0
POLYLINE
  8
0
 10
0
 20
0
 39
0
 70
1
 66
1
  0
VERTEX
  8
0
 10
628
 20
51.33026123046875
 42
-0.06132299080491066
  0
VERTEX
  8
0
 10
552
 20
51.33026123046875
 42
0
  0
VERTEX
  8
0
 10
552
 20
139.24676513671875
 42
0.085440635681152344
  0
VERTEX
  8
0
 10
628
 20
139.24676513671875
 42
-0
  0
SEQEND
  0
POLYLINE
  8
0
 10
0
 20
0
 39
0
 70
1
 66
1
  0
VERTEX
  8
0
 10
10
 20
710
 42
0
  0
VERTEX
  8
0
 10
10
 20
10
 42
-0
  0
VERTEX
  8
0
 10
130
 20
10
 42
-0
  0
VERTEX
  8
0
 10
130
 20
710
 42
-0
  0
SEQEND
  0
POLYLINE
  8
0
 10
0
 20
0
 39
0
 70
1
 66
1
  0
VERTEX
  8
0
 10
70
 20
398
 42
-1
  0
VERTEX
  8
0
 10
70
 20
322
 42
-1
  0
SEQEND
  0
POLYLINE
  8
0
 10
0
 20
0
 39
0
 70
1
 66
1
  0
VERTEX
  8
0
 10
108
 20
668.66973876953125
 42
0
  0
VERTEX
  8
0
 10
108
 20
580.75323486328125
 42
0.085440635681152344
  0
VERTEX
  8
0
 10
32
 20
580.75323486328125
 42
-0
  0
VERTEX
  8
0
 10
32
 20
668.66973876953125
 42
-0.06132299080491066
  0
SEQEND
  0
POLYLINE
  8
0
 10
0
 20
0
 39
0
 70
1
 66
1
  0
VERTEX
  8
0
 10
108
 20
51.33026123046875
 42
-0.06132299080491066
  0
VERTEX
  8
0
 10
32
 20
51.33026123046875
 42
0
  0
VERTEX
  8
0
 10
32
 20
139.24676513671875
 42
0.085440635681152344
  0
VERTEX
  8
0
 10
108
 20
139.24676513671875
 42
-0
  0
SEQEND
  0
POLYLINE
  8
0
 10
0
 20
0
 39
0
 70
1
 66
1
  0
VERTEX
  8
0
 10
400
 20
710
 42
0
  0
VERTEX
  8
0
 10
400
 20
10
 42
-0
  0
VERTEX
  8
0
 10
520
 20
10
 42
-0
  0
VERTEX
  8
0
 10
520
 20
710
 42
-0
  0
SEQEND
  0
POLYLINE
  8
0
 10
0
 20
0
 39
0
 70
1
 66
1
  0
VERTEX
  8
0
 10
460
 20
398
 42
-1
  0
VERTEX
  8
0
 10
460
 20
322
 42
-1
  0
SEQEND
  0
POLYLINE
  8
0
 10
0
 20
0
 39
0
 70
1
 66
1
  0
VERTEX
  8
0
 10
498
 20
668.66973876953125
 42
0
  0
VERTEX
  8
0
 10
498
 20
580.75323486328125
 42
0.085440635681152344
  0
VERTEX
  8
0
 10
422
 20
580.75323486328125
 42
-0
  0
VERTEX
  8
0
 10
422
 20
668.66973876953125
 42
-0.06132299080491066
  0
SEQEND
  0
POLYLINE
  8
0
 10
0
 20
0
 39
0
 70
1
 66
1
  0
VERTEX
  8
0
 10
498
 20
51.33026123046875
 42
-0.06132299080491066
  0
VERTEX
  8
0
 10
422
 20
51.33026123046875
 42
0
  0
VERTEX
  8
0
 10
422
 20
139.24676513671875
 42
0.085440635681152344
  0
VERTEX
  8
0
 10
498
 20
139.24676513671875
 42
-0
  0
SEQEND
  0
POLYLINE
  8
0
 10
0
 20
0
 39
0
 70
1
 66
1
  0
VERTEX
  8
0
 10
270
 20
710
 42
0
  0
VERTEX
  8
0
 10
270
 20
10
 42
-0
  0
VERTEX
  8
0
 10
390
 20
10
 42
-0
  0
VERTEX
  8
0
 10
390
 20
710
 42
-0
  0
SEQEND
  0
POLYLINE
  8
0
 10
0
 20
0
 39
0
 70
1
 66
1
  0
VERTEX
  8
0
 10
330
 20
398
 42
-1
  0
VERTEX
  8
0
 10
330
 20
322
 42
-1
  0
SEQEND
  0
POLYLINE
  8
0
 10
0
 20
0
 39
0
 70
1
 66
1
  0
VERTEX
  8
0
 10
368
 20
668.66973876953125
 42
0
  0
VERTEX
  8
0
 10
368
 20
580.75323486328125
 42
0.085440635681152344
  0
VERTEX
  8
0
 10
292
 20
580.75323486328125
 42
-0
  0
VERTEX
  8
0
 10
292
 20
668.66973876953125
 42
-0.06132299080491066
  0
SEQEND
  0
POLYLINE
  8
0
 10
0
 20
0
 39
0
 70
1
 66
1
  0
VERTEX
  8
0
 10
368
 20
51.33026123046875
 42
-0.06132299080491066
  0
VERTEX
  8
0
 10
292
 20
51.33026123046875
 42
0
  0
VERTEX
  8
0
 10
292
 20
139.24676513671875
 42
0.085440635681152344
  0
VERTEX
  8
0
 10
368
 20
139.24676513671875
 42
-0
  0
SEQEND
  0
POLYLINE
  8
0
 10
0
 20
0
 39
0
 70
1
 66
1
  0
VERTEX
  8
0
 10
470
 20
860
 42
0
  0
VERTEX
  8
0
 10
920
 20
860
 42
0
  0
VERTEX
  8
0
 10
920
 20
914
 42
0
  0
VERTEX
  8
0
 10
470
 20
914
 42
0
  0
SEQEND
  0
POLYLINE
  8
0
 10
0
 20
0
 39
0
 70
1
 66
1
  0
VERTEX
  8
0
 10
569.927001953125
 20
900.5
 42
0
  0
VERTEX
  8
0
 10
857.427001953125
 20
900.5
 42
-0
  0
VERTEX
  8
0
 10
857.427001953125
 20
873.5
 42
-0
  0
VERTEX
  8
0
 10
569.927001953125
 20
873.5
 42
0
  0
SEQEND
  0
POLYLINE
  8
0
 10
0
 20
0
 39
0
 70
1
 66
1
  0
VERTEX
  8
0
 10
529.927001953125
 20
896
 42
0
  0
VERTEX
  8
0
 10
557.927001953125
 20
896
 42
-0
  0
VERTEX
  8
0
 10
557.927001953125
 20
878
 42
-0
  0
VERTEX
  8
0
 10
529.927001953125
 20
878
 42
0
  0
SEQEND
  0
POLYLINE
  8
0
 10
0
 20
0
 39
0
 70
1
 66
1
  0
VERTEX
  8
0
 10
501
 20
882
 42
0
  0
VERTEX
  8
0
 10
519
 20
882
 42
0
  0
VERTEX
  8
0
 10
519
 20
864
 42
-0
  0
VERTEX
  8
0
 10
501
 20
864
 42
-0
  0
SEQEND
  0
POLYLINE
  8
0
 10
0
 20
0
 39
0
 70
1
 66
1
  0
VERTEX
  8
0
 10
501
 20
892
 42
-0
  0
VERTEX
  8
0
 10
501
 20
910
 42
0
  0
VERTEX
  8
0
 10
519
 20
910
 42
0
  0
VERTEX
  8
0
 10
519
 20
892
 42
-0
  0
SEQEND
  0
POLYLINE
  8
0
 10
0
 20
0
 39
0
 70
1
 66
1
  0
VERTEX
  8
0
 10
871
 20
882
 42
0
  0
VERTEX
  8
0
 10
889
 20
882
 42
0
  0
VERTEX
  8
0
 10
889
 20
864
 42
-0
  0
VERTEX
  8
0
 10
871
 20
864
 42
-0
  0
SEQEND
  0
POLYLINE
  8
0
 10
0
 20
0
 39
0
 70
1
 66
1
  0
VERTEX
  8
0
 10
871
 20
892
 42
-0
  0
VERTEX
  8
0
 10
871
 20
910
 42
0
  0
VERTEX
  8
0
 10
889
 20
910
 42
0
  0
VERTEX
  8
0
 10
889
 20
892
 42
-0
  0
SEQEND
  0
POLYLINE
  8
0
 10
0
 20
0
 39
0
 70
1
 66
1
  0
VERTEX
  8
0
 10
470
 20
924
 42
0
  0
VERTEX
  8
0
 10
920
 20
924
 42
0
  0
VERTEX
  8
0
 10
920
 20
978
 42
0
  0
VERTEX
  8
0
 10
470
 20
978
 42
0
  0
SEQEND
  0
POLYLINE
  8
0
 10
0
 20
0
 39
0
 70
1
 66
1
  0
VERTEX
  8
0
 10
569.927001953125
 20
964.5
 42
0
  0
VERTEX
  8
0
 10
857.427001953125
 20
964.5
 42
-0
  0
VERTEX
  8
0
 10
857.427001953125
 20
937.5
 42
-0
  0
VERTEX
  8
0
 10
569.927001953125
 20
937.5
 42
0
  0
SEQEND
  0
POLYLINE
  8
0
 10
0
 20
0
 39
0
 70
1
 66
1
  0
VERTEX
  8
0
 10
529.927001953125
 20
960
 42
0
  0
VERTEX
  8
0
 10
557.927001953125
 20
960
 42
-0
  0
VERTEX
  8
0
 10
557.927001953125
 20
942
 42
-0
  0
VERTEX
  8
0
 10
529.927001953125
 20
942
 42
0
  0
SEQEND
  0
POLYLINE
  8
0
 10
0
 20
0
 39
0
 70
1
 66
1
  0
VERTEX
  8
0
 10
501
 20
946
 42
0
  0
VERTEX
  8
0
 10
519
 20
946
 42
0
  0
VERTEX
  8
0
 10
519
 20
928
 42
-0
  0
VERTEX
  8
0
 10
501
 20
928
 42
-0
  0
SEQEND
  0
POLYLINE
  8
0
 10
0
 20
0
 39
0
 70
1
 66
1
  0
VERTEX
  8
0
 10
501
 20
956
 42
-0
  0
VERTEX
  8
0
 10
501
 20
974
 42
0
  0
VERTEX
  8
0
 10
519
 20
974
 42
0
  0
VERTEX
  8
0
 10
519
 20
956
 42
-0
  0
SEQEND
  0
POLYLINE
  8
0
 10
0
 20
0
 39
0
 70
1
 66
1
  0
VERTEX
  8
0
 10
871
 20
946
 42
0
  0
VERTEX
  8
0
 10
889
 20
946
 42
0
  0
VERTEX
  8
0
 10
889
 20
928
 42
-0
  0
VERTEX
  8
0
 10
871
 20
928
 42
-0
  0
SEQEND
  0
POLYLINE
  8
0
 10
0
 20
0
 39
0
 70
1
 66
1
  0
VERTEX
  8
0
 10
871
 20
956
 42
-0
  0
VERTEX
  8
0
 10
871
 20
974
 42
0
  0
VERTEX
  8
0
 10
889
 20
974
 42
0
  0
VERTEX
  8
0
 10
889
 20
956
 42
-0
  0
SEQEND
  0
POLYLINE
  8
0
 10
0
 20
0
 39
0
 70
1
 66
1
  0
VERTEX
  8
0
 10
2420.686767578125
 20
460
 42
0
  0
VERTEX
  8
0
 10
2420.686767578125
 20
10
 42
0
  0
VERTEX
  8
0
 10
2474.686767578125
 20
10
 42
0
  0
VERTEX
  8
0
 10
2474.686767578125
 20
460
 42
0
  0
SEQEND
  0
POLYLINE
  8
0
 10
0
 20
0
 39
0
 70
1
 66
1
  0
VERTEX
  8
0
 10
2461.186767578125
 20
360.07296752929687
 42
0
  0
VERTEX
  8
0
 10
2461.186767578125
 20
72.572967529296875
 42
-0
  0
VERTEX
  8
0
 10
2434.186767578125
 20
72.572967529296875
 42
-0
  0
VERTEX
  8
0
 10
2434.186767578125
 20
360.07296752929687
 42
0
  0
SEQEND
  0
POLYLINE
  8
0
 10
0
 20
0
 39
0
 70
1
 66
1
  0
VERTEX
  8
0
 10
2456.686767578125
 20
400.07296752929687
 42
0
  0
VERTEX
  8
0
 10
2456.686767578125
 20
372.07296752929687
 42
-0
  0
VERTEX
  8
0
 10
2438.686767578125
 20
372.07296752929687
 42
-0
  0
VERTEX
  8
0
 10
2438.686767578125
 20
400.07296752929687
 42
0
  0
SEQEND
  0
POLYLINE
  8
0
 10
0
 20
0
 39
0
 70
1
 66
1
  0
VERTEX
  8
0
 10
2442.686767578125
 20
429
 42
0
  0
VERTEX
  8
0
 10
2442.686767578125
 20
411
 42
0
  0
VERTEX
  8
0
 10
2424.686767578125
 20
411
 42
-0
  0
VERTEX
  8
0
 10
2424.686767578125
 20
429
 42
-0
  0
SEQEND
  0
POLYLINE
  8
0
 10
0
 20
0
 39
0
 70
1
 66
1
  0
VERTEX
  8
0
 10
2452.686767578125
 20
429
 42
-0
  0
VERTEX
  8
0
 10
2470.686767578125
 20
429
 42
0
  0
VERTEX
  8
0
 10
2470.686767578125
 20
411
 42
0
  0
VERTEX
  8
0
 10
2452.686767578125
 20
411
 42
-0
  0
SEQEND
  0
POLYLINE
  8
0
 10
0
 20
0
 39
0
 70
1
 66
1
  0
VERTEX
  8
0
 10
2442.686767578125
 20
59
 42
0
  0
VERTEX
  8
0
 10
2442.686767578125
 20
41
 42
0
  0
VERTEX
  8
0
 10
2424.686767578125
 20
41
 42
-0
  0
VERTEX
  8
0
 10
2424.686767578125
 20
59
 42
-0
  0
SEQEND
  0
POLYLINE
  8
0
 10
0
 20
0
 39
0
 70
1
 66
1
  0
VERTEX
  8
0
 10
2452.686767578125
 20
59
 42
-0
  0
VERTEX
  8
0
 10
2470.686767578125
 20
59
 42
0
  0
VERTEX
  8
0
 10
2470.686767578125
 20
41
 42
0
  0
VERTEX
  8
0
 10
2452.686767578125
 20
41
 42
-0
  0
SEQEND
  0
POLYLINE
  8
0
 10
0
 20
0
 39
0
 70
1
 66
1
  0
VERTEX
  8
0
 10
140
 20
710
 42
0
  0
VERTEX
  8
0
 10
140
 20
10
 42
-0
  0
VERTEX
  8
0
 10
260
 20
10
 42
-0
  0
VERTEX
  8
0
 10
260
 20
710
 42
-0
  0
SEQEND
  0
POLYLINE
  8
0
 10
0
 20
0
 39
0
 70
1
 66
1
  0
VERTEX
  8
0
 10
200
 20
398
 42
-1
  0
VERTEX
  8
0
 10
200
 20
322
 42
-1
  0
SEQEND
  0
POLYLINE
  8
0
 10
0
 20
0
 39
0
 70
1
 66
1
  0
VERTEX
  8
0
 10
238
 20
668.66973876953125
 42
0
  0
VERTEX
  8
0
 10
238
 20
580.75323486328125
 42
0.085440635681152344
  0
VERTEX
  8
0
 10
162
 20
580.75323486328125
 42
-0
  0
VERTEX
  8
0
 10
162
 20
668.66973876953125
 42
-0.06132299080491066
  0
SEQEND
  0
POLYLINE
  8
0
 10
0
 20
0
 39
0
 70
1
 66
1
  0
VERTEX
  8
0
 10
238
 20
51.33026123046875
 42
-0.06132299080491066
  0
VERTEX
  8
0
 10
162
 20
51.33026123046875
 42
0
  0
VERTEX
  8
0
 10
162
 20
139.24676513671875
 42
0.085440635681152344
  0
VERTEX
  8
0
 10
238
 20
139.24676513671875
 42
-0
  0
SEQEND
  0
POLYLINE
  8
0
 10
0
 20
0
 39
0
 70
1
 66
1
  0
VERTEX
  8
0
 10
10
 20
720
 42
0
  0
VERTEX
  8
0
 10
710
 20
720
 42
-0
  0
VERTEX
  8
0
 10
710
 20
840
 42
-0
  0
VERTEX
  8
0
 10
10
 20
840
 42
-0
  0
SEQEND
  0
POLYLINE
  8
0
 10
0
 20
0
 39
0
 70
1
 66
1
  0
VERTEX
  8
0
 10
322
 20
780
 42
-1
  0
VERTEX
  8
0
 10
398
 20
780
 42
-1
  0
SEQEND
  0
POLYLINE
  8
0
 10
0
 20
0
 39
0
 70
1
 66
1
  0
VERTEX
  8
0
 10
51.330272674560547
 20
818
 42
0
  0
VERTEX
  8
0
 10
139.24674987792969
 20
818
 42
0.085440635681152344
  0
VERTEX
  8
0
 10
139.24674987792969
 20
742
 42
-0
  0
VERTEX
  8
0
 10
51.330272674560547
 20
742
 42
-0.06132299080491066
  0
SEQEND
  0
POLYLINE
  8
0
 10
0
 20
0
 39
0
 70
1
 66
1
  0
VERTEX
  8
0
 10
668.66973876953125
 20
818
 42
-0.06132299080491066
  0
VERTEX
  8
0
 10
668.66973876953125
 20
742
 42
0
  0
VERTEX
  8
0
 10
580.75323486328125
 20
742
 42
0.085440635681152344
  0
VERTEX
  8
0
 10
580.75323486328125
 20
818
 42
-0
  0
SEQEND
  0
POLYLINE
  8
0
 10
0
 20
0
 39
0
 70
1
 66
1
  0
VERTEX
  8
0
 10
2054.686767578125
 20
298
 42
1
  0
VERTEX
  8
0
 10
1974.686767578125
 20
298
 42
0
  0
VERTEX
  8
0
 10
1974.686767578125
 20
50
 42
1
  0
VERTEX
  8
0
 10
2054.686767578125
 20
50
 42
-0
  0
SEQEND
  0
POLYLINE
  8
0
 10
0
 20
0
 39
0
 70
1
 66
1
  0
VERTEX
  8
0
 10
2014.686767578125
 20
187
 42
-1
  0
VERTEX
  8
0
 10
2014.686767578125
 20
161
 42
-1
  0
SEQEND
  0
POLYLINE
  8
0
 10
0
 20
0
 39
0
 70
1
 66
1
  0
VERTEX
  8
0
 10
2014.686767578125
 20
134.32795715332031
 42
-1
  0
VERTEX
  8
0
 10
2014.686767578125
 20
112.32795715332031
 42
-1
  0
SEQEND
  0
POLYLINE
  8
0
 10
0
 20
0
 39
0
 70
1
 66
1
  0
VERTEX
  8
0
 10
2014.686767578125
 20
235.67204284667969
 42
-1
  0
VERTEX
  8
0
 10
2014.686767578125
 20
213.67204284667969
 42
-1
  0
SEQEND
  0
POLYLINE
  8
0
 10
0
 20
0
 39
0
 70
1
 66
1
  0
VERTEX
  8
0
 10
1308
 20
870
 42
1
  0
VERTEX
  8
0
 10
1308
 20
790
 42
0
  0
VERTEX
  8
0
 10
1556
 20
790
 42
1
  0
VERTEX
  8
0
 10
1556
 20
870
 42
-0
  0
SEQEND
  0
POLYLINE
  8
0
 10
0
 20
0
 39
0
 70
1
 66
1
  0
VERTEX
  8
0
 10
1419
 20
830
 42
-1
  0
VERTEX
  8
0
 10
1445
 20
830
 42
-1
  0
SEQEND
  0
POLYLINE
  8
0
 10
0
 20
0
 39
0
 70
1
 66
1
  0
VERTEX
  8
0
 10
1471.6719970703125
 20
830
 42
-1
  0
VERTEX
  8
0
 10
1493.6719970703125
 20
830
 42
-1
  0
SEQEND
  0
POLYLINE
  8
0
 10
0
 20
0
 39
0
 70
1
 66
1
  0
VERTEX
  8
0
 10
1370.3280029296875
 20
830
 42
-1
  0
VERTEX
  8
0
 10
1392.3280029296875
 20
830
 42
-1
  0
SEQEND
  0
POLYLINE
  8
0
 10
0
 20
0
 39
0
 70
1
 66
1
  0
VERTEX
  8
0
 10
10
 20
914
 42
0
  0
VERTEX
  8
0
 10
460
 20
914
 42
0
  0
VERTEX
  8
0
 10
460
 20
968
 42
0
  0
VERTEX
  8
0
 10
10
 20
968
 42
0
  0
SEQEND
  0
POLYLINE
  8
0
 10
0
 20
0
 39
0
 70
1
 66
1
  0
VERTEX
  8
0
 10
109.92702484130859
 20
954.5
 42
0
  0
VERTEX
  8
0
 10
397.42703247070312
 20
954.5
 42
-0
  0
VERTEX
  8
0
 10
397.42703247070312
 20
927.5
 42
-0
  0
VERTEX
  8
0
 10
109.92702484130859
 20
927.5
 42
0
  0
SEQEND
  0
POLYLINE
  8
0
 10
0
 20
0
 39
0
 70
1
 66
1
  0
VERTEX
  8
0
 10
69.927032470703125
 20
950
 42
0
  0
VERTEX
  8
0
 10
97.927024841308594
 20
950
 42
-0
  0
VERTEX
  8
0
 10
97.927024841308594
 20
932
 42
-0
  0
VERTEX
  8
0
 10
69.927032470703125
 20
932
 42
0
  0
SEQEND
  0
POLYLINE
  8
0
 10
0
 20
0
 39
0
 70
1
 66
1
  0
VERTEX
  8
0
 10
41
 20
936
 42
0
  0
VERTEX
  8
0
 10
59
 20
936
 42
0
  0
VERTEX
  8
0
 10
59
 20
918
 42
-0
  0
VERTEX
  8
0
 10
41
 20
918
 42
-0
  0
SEQEND
  0
POLYLINE
  8
0
 10
0
 20
0
 39
0
 70
1
 66
1
  0
VERTEX
  8
0
 10
41
 20
946
 42
-0
  0
VERTEX
  8
0
 10
41
 20
964
 42
0
  0
VERTEX
  8
0
 10
59
 20
964
 42
0
  0
VERTEX
  8
0
 10
59
 20
946
 42
-0
  0
SEQEND
  0
POLYLINE
  8
0
 10
0
 20
0
 39
0
 70
1
 66
1
  0
VERTEX
  8
0
 10
411
 20
936
 42
0
  0
VERTEX
  8
0
 10
429
 20
936
 42
0
  0
VERTEX
  8
0
 10
429
 20
918
 42
-0
  0
VERTEX
  8
0
 10
411
 20
918
 42
-0
  0
SEQEND
  0
POLYLINE
  8
0
 10
0
 20
0
 39
0
 70
1
 66
1
  0
VERTEX
  8
0
 10
411
 20
946
 42
-0
  0
VERTEX
  8
0
 10
411
 20
964
 42
0
  0
VERTEX
  8
0
 10
429
 20
964
 42
0
  0
VERTEX
  8
0
 10
429
 20
946
 42
-0
  0
SEQEND
  0
POLYLINE
  8
0
 10
0
 20
0
 39
0
 70
1
 66
1
  0
VERTEX
  8
0
 10
811.5948486328125
 20
400
 42
0
  0
VERTEX
  8
0
 10
811.5948486328125
 20
550
 42
0
  0
VERTEX
  8
0
 10
746.0948486328125
 20
663.4493408203125
 42
0.97178131341934204
  0
VERTEX
  8
0
 10
693.3177490234375
 20
634.96026611328125
 42
-0
  0
SEQEND
  0
POLYLINE
  8
0
 10
0
 20
0
 39
0
 70
1
 66
1
  0
VERTEX
  8
0
 10
751.30767822265625
 20
566
 42
-1
  0
VERTEX
  8
0
 10
783.30767822265625
 20
566
 42
-1
  0
SEQEND
  0
POLYLINE
  8
0
 10
0
 20
0
 39
0
 70
1
 66
1
  0
VERTEX
  8
0
 10
704.1141357421875
 20
648.4493408203125
 42
-1
  0
VERTEX
  8
0
 10
736.1141357421875
 20
648.4493408203125
 42
-1
  0
SEQEND
  0
POLYLINE
  8
0
 10
0
 20
0
 39
0
 70
1
 66
1
  0
VERTEX
  8
0
 10
660
 20
678.4493408203125
 42
0
  0
VERTEX
  8
0
 10
660
 20
528.4493408203125
 42
0
  0
VERTEX
  8
0
 10
725.5
 20
415
 42
0.97178131341934204
  0
VERTEX
  8
0
 10
778.277099609375
 20
443.48907470703125
 42
-0
  0
SEQEND
  0
POLYLINE
  8
0
 10
0
 20
0
 39
0
 70
1
 66
1
  0
VERTEX
  8
0
 10
720.28717041015625
 20
512.4493408203125
 42
-1
  0
VERTEX
  8
0
 10
688.28717041015625
 20
512.4493408203125
 42
-1
  0
SEQEND
  0
POLYLINE
  8
0
 10
0
 20
0
 39
0
 70
1
 66
1
  0
VERTEX
  8
0
 10
767.48077392578125
 20
430
 42
-1
  0
VERTEX
  8
0
 10
735.48077392578125
 20
430
 42
-1
  0
SEQEND
  0
POLYLINE
  8
0
 10
0
 20
0
 39
0
 70
1
 66
1
  0
VERTEX
  8
0
 10
821.5948486328125
 20
850
 42
0
  0
VERTEX
  8
0
 10
821.5948486328125
 20
400
 42
0
  0
VERTEX
  8
0
 10
875.5948486328125
 20
400
 42
0
  0
VERTEX
  8
0
 10
875.5948486328125
 20
850
 42
0
  0
SEQEND
  0
POLYLINE
  8
0
 10
0
 20
0
 39
0
 70
1
 66
1
  0
VERTEX
  8
0
 10
862.0948486328125
 20
750.072998046875
 42
0
  0
VERTEX
  8
0
 10
862.0948486328125
 20
462.57296752929687
 42
-0
  0
VERTEX
  8
0
 10
835.0948486328125
 20
462.57296752929687
 42
-0
  0
VERTEX
  8
0
 10
835.0948486328125
 20
750.072998046875
 42
0
  0
SEQEND
  0
POLYLINE
  8
0
 10
0
 20
0
 39
0
 70
1
 66
1
  0
VERTEX
  8
0
 10
857.5948486328125
 20
790.072998046875
 42
0
  0
VERTEX
  8
0
 10
857.5948486328125
 20
762.072998046875
 42
-0
  0
VERTEX
  8
0
 10
839.5948486328125
 20
762.072998046875
 42
-0
  0
VERTEX
  8
0
 10
839.5948486328125
 20
790.072998046875
 42
0
  0
SEQEND
  0
POLYLINE
  8
0
 10
0
 20
0
 39
0
 70
1
 66
1
  0
VERTEX
  8
0
 10
843.5948486328125
 20
819
 42
0
  0
VERTEX
  8
0
 10
843.5948486328125
 20
801
 42
0
  0
VERTEX
  8
0
 10
825.5948486328125
 20
801
 42
-0
  0
VERTEX
  8
0
 10
825.5948486328125
 20
819
 42
-0
  0
SEQEND
  0
POLYLINE
  8
0
 10
0
 20
0
 39
0
 70
1
 66
1
  0
VERTEX
  8
0
 10
853.5948486328125
 20
819
 42
-0
  0
VERTEX
  8
0
 10
871.5948486328125
 20
819
 42
0
  0
VERTEX
  8
0
 10
871.5948486328125
 20
801
 42
0
  0
VERTEX
  8
0
 10
853.5948486328125
 20
801
 42
-0
  0
SEQEND
  0
POLYLINE
  8
0
 10
0
 20
0
 39
0
 70
1
 66
1
  0
VERTEX
  8
0
 10
843.5948486328125
 20
449
 42
0
  0
VERTEX
  8
0
 10
843.5948486328125
 20
431
 42
0
  0
VERTEX
  8
0
 10
825.5948486328125
 20
431
 42
-0
  0
VERTEX
  8
0
 10
825.5948486328125
 20
449
 42
-0
  0
SEQEND
  0
POLYLINE
  8
0
 10
0
 20
0
 39
0
 70
1
 66
1
  0
VERTEX
  8
0
 10
853.5948486328125
 20
449
 42
-0
  0
VERTEX
  8
0
 10
871.5948486328125
 20
449
 42
0
  0
VERTEX
  8
0
 10
871.5948486328125
 20
431
 42
0
  0
VERTEX
  8
0
 10
853.5948486328125
 20
431
 42
-0
  0
SEQEND
  0
POLYLINE
  8
0
 10
0
 20
0
 39
0
 70
1
 66
1
  0
VERTEX
  8
0
 10
2107.34423828125
 20
636
 42
1
  0
VERTEX
  8
0
 10
2027.3443603515625
 20
636
 42
0
  0
VERTEX
  8
0
 10
2027.3443603515625
 20
388
 42
1
  0
VERTEX
  8
0
 10
2107.34423828125
 20
388
 42
-0
  0
SEQEND
  0
POLYLINE
  8
0
 10
0
 20
0
 39
0
 70
1
 66
1
  0
VERTEX
  8
0
 10
2067.34423828125
 20
525
 42
-1
  0
VERTEX
  8
0
 10
2067.34423828125
 20
499
 42
-1
  0
SEQEND
  0
POLYLINE
  8
0
 10
0
 20
0
 39
0
 70
1
 66
1
  0
VERTEX
  8
0
 10
2067.34423828125
 20
472.32794189453125
 42
-1
  0
VERTEX
  8
0
 10
2067.34423828125
 20
450.32794189453125
 42
-1
  0
SEQEND
  0
POLYLINE
  8
0
 10
0
 20
0
 39
0
 70
1
 66
1
  0
VERTEX
  8
0
 10
2067.34423828125
 20
573.67205810546875
 42
-1
  0
VERTEX
  8
0
 10
2067.34423828125
 20
551.67205810546875
 42
-1
  0
SEQEND
  0
POLYLINE
  8
0
 10
0
 20
0
 39
0
 70
1
 66
1
  0
VERTEX
  8
0
 10
10
 20
850
 42
0
  0
VERTEX
  8
0
 10
460
 20
850
 42
0
  0
VERTEX
  8
0
 10
460
 20
904
 42
0
  0
VERTEX
  8
0
 10
10
 20
904
 42
0
  0
SEQEND
  0
POLYLINE
  8
0
 10
0
 20
0
 39
0
 70
1
 66
1
  0
VERTEX
  8
0
 10
109.92702484130859
 20
890.5
 42
0
  0
VERTEX
  8
0
 10
397.42703247070312
 20
890.5
 42
-0
  0
VERTEX
  8
0
 10
397.42703247070312
 20
863.5
 42
-0
  0
VERTEX
  8
0
 10
109.92702484130859
 20
863.5
 42
0
  0
SEQEND
  0
POLYLINE
  8
0
 10
0
 20
0
 39
0
 70
1
 66
1
  0
VERTEX
  8
0
 10
69.927032470703125
 20
886
 42
0
  0
VERTEX
  8
0
 10
97.927024841308594
 20
886
 42
-0
  0
VERTEX
  8
0
 10
97.927024841308594
 20
868
 42
-0
  0
VERTEX
  8
0
 10
69.927032470703125
 20
868
 42
0
  0
SEQEND
  0
POLYLINE
  8
0
 10
0
 20
0
 39
0
 70
1
 66
1
  0
VERTEX
  8
0
 10
41
 20
872
 42
0
  0
VERTEX
  8
0
 10
59
 20
872
 42
0
  0
VERTEX
  8
0
 10
59
 20
854
 42
-0
  0
VERTEX
  8
0
 10
41
 20
854
 42
-0
  0
SEQEND
  0
POLYLINE
  8
0
 10
0
 20
0
 39
0
 70
1
 66
1
  0
VERTEX
  8
0
 10
41
 20
882
 42
-0
  0
VERTEX
  8
0
 10
41
 20
900
 42
0
  0
VERTEX
  8
0
 10
59
 20
900
 42
0
  0
VERTEX
  8
0
 10
59
 20
882
 42
-0
  0
SEQEND
  0
POLYLINE
  8
0
 10
0
 20
0
 39
0
 70
1
 66
1
  0
VERTEX
  8
0
 10
411
 20
872
 42
0
  0
VERTEX
  8
0
 10
429
 20
872
 42
0
  0
VERTEX
  8
0
 10
429
 20
854
 42
-0
  0
VERTEX
  8
0
 10
411
 20
854
 42
-0
  0
SEQEND
  0
POLYLINE
  8
0
 10
0
 20
0
 39
0
 70
1
 66
1
  0
VERTEX
  8
0
 10
411
 20
882
 42
-0
  0
VERTEX
  8
0
 10
411
 20
900
 42
0
  0
VERTEX
  8
0
 10
429
 20
900
 42
0
  0
VERTEX
  8
0
 10
429
 20
882
 42
-0
  0
SEQEND
  0
POLYLINE
  8
0
 10
0
 20
0
 39
0
 70
1
 66
1
  0
VERTEX
  8
0
 10
2017.3443603515625
 20
688
 42
1
  0
VERTEX
  8
0
 10
1937.3443603515625
 20
688
 42
0
  0
VERTEX
  8
0
 10
1937.3443603515625
 20
440
 42
1
  0
VERTEX
  8
0
 10
2017.3443603515625
 20
440
 42
-0
  0
SEQEND
  0
POLYLINE
  8
0
 10
0
 20
0
 39
0
 70
1
 66
1
  0
VERTEX
  8
0
 10
1977.3443603515625
 20
577
 42
-1
  0
VERTEX
  8
0
 10
1977.3443603515625
 20
551
 42
-1
  0
SEQEND
  0
POLYLINE
  8
0
 10
0
 20
0
 39
0
 70
1
 66
1
  0
VERTEX
  8
0
 10
1977.3443603515625
 20
524.32794189453125
 42
-1
  0
VERTEX
  8
0
 10
1977.3443603515625
 20
502.32794189453125
 42
-1
  0
SEQEND
  0
POLYLINE
  8
0
 10
0
 20
0
 39
0
 70
1
 66
1
  0
VERTEX
  8
0
 10
1977.3443603515625
 20
625.67205810546875
 42
-1
  0
VERTEX
  8
0
 10
1977.3443603515625
 20
603.67205810546875
 42
-1
  0
SEQEND
  0
POLYLINE
  8
0
 10
0
 20
0
 39
0
 70
1
 66
1
  0
VERTEX
  8
0
 10
1646
 20
960
 42
1
  0
VERTEX
  8
0
 10
1646
 20
880
 42
0
  0
VERTEX
  8
0
 10
1894
 20
880
 42
1
  0
VERTEX
  8
0
 10
1894
 20
960
 42
-0
  0
SEQEND
  0
POLYLINE
  8
0
 10
0
 20
0
 39
0
 70
1
 66
1
  0
VERTEX
  8
0
 10
1757
 20
920
 42
-1
  0
VERTEX
  8
0
 10
1783
 20
920
 42
-1
  0
SEQEND
  0
POLYLINE
  8
0
 10
0
 20
0
 39
0
 70
1
 66
1
  0
VERTEX
  8
0
 10
1809.6719970703125
 20
920
 42
-1
  0
VERTEX
  8
0
 10
1831.6719970703125
 20
920
 42
-1
  0
SEQEND
  0
POLYLINE
  8
0
 10
0
 20
0
 39
0
 70
1
 66
1
  0
VERTEX
  8
0
 10
1708.3280029296875
 20
920
 42
-1
  0
VERTEX
  8
0
 10
1730.3280029296875
 20
920
 42
-1
  0
SEQEND
  0
POLYLINE
  8
0
 10
0
 20
0
 39
0
 70
1
 66
1
  0
VERTEX
  8
0
 10
2273.594970703125
 20
470
 42
0
  0
VERTEX
  8
0
 10
2273.594970703125
 20
620
 42
0
  0
VERTEX
  8
0
 10
2208.094970703125
 20
733.4493408203125
 42
0.97178131341934204
  0
VERTEX
  8
0
 10
2155.31787109375
 20
704.96026611328125
 42
-0
  0
SEQEND
  0
POLYLINE
  8
0
 10
0
 20
0
 39
0
 70
1
 66
1
  0
VERTEX
  8
0
 10
2213.3076171875
 20
636
 42
-1
  0
VERTEX
  8
0
 10
2245.3076171875
 20
636
 42
-1
  0
SEQEND
  0
POLYLINE
  8
0
 10
0
 20
0
 39
0
 70
1
 66
1
  0
VERTEX
  8
0
 10
2166.114013671875
 20
718.4493408203125
 42
-1
  0
VERTEX
  8
0
 10
2198.114013671875
 20
718.4493408203125
 42
-1
  0
SEQEND
  0
POLYLINE
  8
0
 10
0
 20
0
 39
0
 70
1
 66
1
  0
VERTEX
  8
0
 10
2122
 20
748.4493408203125
 42
0
  0
VERTEX
  8
0
 10
2122
 20
598.4493408203125
 42
0
  0
VERTEX
  8
0
 10
2187.5
 20
485
 42
0.97178131341934204
  0
VERTEX
  8
0
 10
2240.277099609375
 20
513.48907470703125
 42
-0
  0
SEQEND
  0
POLYLINE
  8
0
 10
0
 20
0
 39
0
 70
1
 66
1
  0
VERTEX
  8
0
 10
2182.287109375
 20
582.4493408203125
 42
-1
  0
VERTEX
  8
0
 10
2150.287109375
 20
582.4493408203125
 42
-1
  0
SEQEND
  0
POLYLINE
  8
0
 10
0
 20
0
 39
0
 70
1
 66
1
  0
VERTEX
  8
0
 10
2229.480712890625
 20
500
 42
-1
  0
VERTEX
  8
0
 10
2197.480712890625
 20
500
 42
-1
  0
SEQEND
  0
POLYLINE
  8
0
 10
0
 20
0
 39
0
 70
1
 66
1
  0
VERTEX
  8
0
 10
970
 20
959
 42
1
  0
VERTEX
  8
0
 10
970
 20
879
 42
0
  0
VERTEX
  8
0
 10
1218
 20
879
 42
1
  0
VERTEX
  8
0
 10
1218
 20
959
 42
-0
  0
SEQEND
  0
POLYLINE
  8
0
 10
0
 20
0
 39
0
 70
1
 66
1
  0
VERTEX
  8
0
 10
1081
 20
919
 42
-1
  0
VERTEX
  8
0
 10
1107
 20
919
 42
-1
  0
SEQEND
  0
POLYLINE
  8
0
 10
0
 20
0
 39
0
 70
1
 66
1
  0
VERTEX
  8
0
 10
1133.6719970703125
 20
919
 42
-1
  0
VERTEX
  8
0
 10
1155.6719970703125
 20
919
 42
-1
  0
SEQEND
  0
POLYLINE
  8
0
 10
0
 20
0
 39
0
 70
1
 66
1
  0
VERTEX
  8
0
 10
1032.3280029296875
 20
919
 42
-1
  0
VERTEX
  8
0
 10
1054.3280029296875
 20
919
 42
-1
  0
SEQEND
  0
POLYLINE
  8
0
 10
0
 20
0
 39
0
 70
1
 66
1
  0
VERTEX
  8
0
 10
2321.686767578125
 20
30
 42
0
  0
VERTEX
  8
0
 10
2321.686767578125
 20
210
 42
-0
  0
VERTEX
  8
0
 10
2301.686767578125
 20
230
 42
0
  0
VERTEX
  8
0
 10
2242.686767578125
 20
230
 42
0
  0
VERTEX
  8
0
 10
2242.686767578125
 20
10
 42
0
  0
VERTEX
  8
0
 10
2301.686767578125
 20
10
 42
-0
  0
SEQEND
  0
POLYLINE
  8
0
 10
0
 20
0
 39
0
 70
1
 66
1
  0
VERTEX
  8
0
 10
2301.686767578125
 20
59.5
 42
-1
  0
VERTEX
  8
0
 10
2272.686767578125
 20
59.5
 42
-0
  0
VERTEX
  8
0
 10
2272.686767578125
 20
180.5
 42
-1
  0
VERTEX
  8
0
 10
2301.686767578125
 20
180.5
 42
-0
  0
SEQEND
  0
POLYLINE
  8
0
 10
0
 20
0
 39
0
 70
1
 66
1
  0
VERTEX
  8
0
 10
2232.686767578125
 20
30
 42
0
  0
VERTEX
  8
0
 10
2232.686767578125
 20
210
 42
-0
  0
VERTEX
  8
0
 10
2212.686767578125
 20
230
 42
0
  0
VERTEX
  8
0
 10
2153.686767578125
 20
230
 42
0
  0
VERTEX
  8
0
 10
2153.686767578125
 20
10
 42
0
  0
VERTEX
  8
0
 10
2212.686767578125
 20
10
 42
-0
  0
SEQEND
  0
POLYLINE
  8
0
 10
0
 20
0
 39
0
 70
1
 66
1
  0
VERTEX
  8
0
 10
2212.686767578125
 20
59.5
 42
-1
  0
VERTEX
  8
0
 10
2183.686767578125
 20
59.5
 42
-0
  0
VERTEX
  8
0
 10
2183.686767578125
 20
180.5
 42
-1
  0
VERTEX
  8
0
 10
2212.686767578125
 20
180.5
 42
-0
  0
SEQEND
  0
POLYLINE
  8
0
 10
0
 20
0
 39
0
 70
1
 66
1
  0
VERTEX
  8
0
 10
2201
 20
778.4493408203125
 42
0
  0
VERTEX
  8
0
 10
2201
 20
958.4493408203125
 42
-0
  0
VERTEX
  8
0
 10
2181
 20
978.4493408203125
 42
0
  0
VERTEX
  8
0
 10
2122
 20
978.4493408203125
 42
0
  0
VERTEX
  8
0
 10
2122
 20
758.4493408203125
 42
0
  0
VERTEX
  8
0
 10
2181
 20
758.4493408203125
 42
-0
  0
SEQEND
  0
POLYLINE
  8
0
 10
0
 20
0
 39
0
 70
1
 66
1
  0
VERTEX
  8
0
 10
2181
 20
807.9493408203125
 42
-1
  0
VERTEX
  8
0
 10
2152
 20
807.9493408203125
 42
-0
  0
VERTEX
  8
0
 10
2152
 20
928.9493408203125
 42
-1
  0
VERTEX
  8
0
 10
2181
 20
928.9493408203125
 42
-0
  0
SEQEND
  0
POLYLINE
  8
0
 10
0
 20
0
 39
0
 70
1
 66
1
  0
VERTEX
  8
0
 10
2451.594970703125
 20
490
 42
0
  0
VERTEX
  8
0
 10
2451.594970703125
 20
670
 42
-0
  0
VERTEX
  8
0
 10
2431.594970703125
 20
690
 42
0
  0
VERTEX
  8
0
 10
2372.594970703125
 20
690
 42
0
  0
VERTEX
  8
0
 10
2372.594970703125
 20
470
 42
0
  0
VERTEX
  8
0
 10
2431.594970703125
 20
470
 42
-0
  0
SEQEND
  0
POLYLINE
  8
0
 10
0
 20
0
 39
0
 70
1
 66
1
  0
VERTEX
  8
0
 10
2431.594970703125
 20
519.5
 42
-1
  0
VERTEX
  8
0
 10
2402.594970703125
 20
519.5
 42
-0
  0
VERTEX
  8
0
 10
2402.594970703125
 20
640.5
 42
-1
  0
VERTEX
  8
0
 10
2431.594970703125
 20
640.5
 42
-0
  0
SEQEND
  0
POLYLINE
  8
0
 10
0
 20
0
 39
0
 70
1
 66
1
  0
VERTEX
  8
0
 10
922.9373779296875
 20
390
 42
0
  0
VERTEX
  8
0
 10
922.9373779296875
 20
10
 42
0
  0
VERTEX
  8
0
 10
1065.521484375
 20
10
 42
0
  0
VERTEX
  8
0
 10
1175.874755859375
 20
157.04478454589844
 42
-0
  0
VERTEX
  8
0
 10
1175.874755859375
 20
254.67083740234375
 42
-0
  0
VERTEX
  8
0
 10
1074.3138427734375
 20
390
 42
-0
  0
SEQEND
  0
POLYLINE
  8
0
 10
0
 20
0
 39
0
 70
1
 66
1
  0
VERTEX
  8
0
 10
1081.2154541015625
 20
341.99380493164062
 42
0
  0
VERTEX
  8
0
 10
1129.653564453125
 20
277.45040893554687
 42
0
  0
VERTEX
  8
0
 10
1101.139404296875
 20
277.45040893554687
 42
-0
  0
VERTEX
  8
0
 10
1075.2154541015625
 20
311.99380493164062
 42
-0
  0
VERTEX
  8
0
 10
987.21551513671875
 20
311.99380493164062
 42
-0
  0
VERTEX
  8
0
 10
987.21551513671875
 20
179.99380493164062
 42
-0
  0
VERTEX
  8
0
 10
957.21551513671875
 20
179.99380493164062
 42
-0
  0
VERTEX
  8
0
 10
957.21551513671875
 20
341.99380493164062
 42
-0
  0
SEQEND
  0
POLYLINE
  8
0
 10
0
 20
0
 39
0
 70
1
 66
1
  0
VERTEX
  8
0
 10
1052.99072265625
 20
245.99380493164062
 42
0
  0
VERTEX
  8
0
 10
1052.99072265625
 20
103.99380493164062
 42
-0
  0
VERTEX
  8
0
 10
1019.2155151367187
 20
103.99380493164062
 42
-0
  0
VERTEX
  8
0
 10
1019.2155151367187
 20
245.99380493164062
 42
-0
  0
SEQEND
  0
POLYLINE
  8
0
 10
0
 20
0
 39
0
 70
1
 66
1
  0
VERTEX
  8
0
 10
1130
 20
869
 42
0
  0
VERTEX
  8
0
 10
950
 20
869
 42
-0
  0
VERTEX
  8
0
 10
930
 20
849
 42
0
  0
VERTEX
  8
0
 10
930
 20
790
 42
0
  0
VERTEX
  8
0
 10
1150
 20
790
 42
0
  0
VERTEX
  8
0
 10
1150
 20
849
 42
-0
  0
SEQEND
  0
POLYLINE
  8
0
 10
0
 20
0
 39
0
 70
1
 66
1
  0
VERTEX
  8
0
 10
1100.5
 20
849
 42
-1
  0
VERTEX
  8
0
 10
1100.5
 20
820
 42
-0
  0
VERTEX
  8
0
 10
979.5
 20
820
 42
-1
  0
VERTEX
  8
0
 10
979.5
 20
849
 42
-0
  0
SEQEND
  0
POLYLINE
  8
0
 10
0
 20
0
 39
0
 70
1
 66
1
  0
VERTEX
  8
0
 10
2362.594970703125
 20
490
 42
0
  0
VERTEX
  8
0
 10
2362.594970703125
 20
670
 42
-0
  0
VERTEX
  8
0
 10
2342.594970703125
 20
690
 42
0
  0
VERTEX
  8
0
 10
2283.594970703125
 20
690
 42
0
  0
VERTEX
  8
0
 10
2283.594970703125
 20
470
 42
0
  0
VERTEX
  8
0
 10
2342.594970703125
 20
470
 42
-0
  0
SEQEND
  0
POLYLINE
  8
0
 10
0
 20
0
 39
0
 70
1
 66
1
  0
VERTEX
  8
0
 10
2342.594970703125
 20
519.5
 42
-1
  0
VERTEX
  8
0
 10
2313.594970703125
 20
519.5
 42
-0
  0
VERTEX
  8
0
 10
2313.594970703125
 20
640.5
 42
-1
  0
VERTEX
  8
0
 10
2342.594970703125
 20
640.5
 42
-0
  0
SEQEND
  0
POLYLINE
  8
0
 10
0
 20
0
 39
0
 70
1
 66
1
  0
VERTEX
  8
0
 10
2285.34423828125
 20
260
 42
0
  0
VERTEX
  8
0
 10
2285.34423828125
 20
440
 42
-0
  0
VERTEX
  8
0
 10
2265.34423828125
 20
460
 42
0
  0
VERTEX
  8
0
 10
2206.34423828125
 20
460
 42
0
  0
VERTEX
  8
0
 10
2206.34423828125
 20
240
 42
0
  0
VERTEX
  8
0
 10
2265.34423828125
 20
240
 42
-0
  0
SEQEND
  0
POLYLINE
  8
0
 10
0
 20
0
 39
0
 70
1
 66
1
  0
VERTEX
  8
0
 10
2265.34423828125
 20
289.5
 42
-1
  0
VERTEX
  8
0
 10
2236.34423828125
 20
289.5
 42
-0
  0
VERTEX
  8
0
 10
2236.34423828125
 20
410.5
 42
-1
  0
VERTEX
  8
0
 10
2265.34423828125
 20
410.5
 42
-0
  0
SEQEND
  0
POLYLINE
  8
0
 10
0
 20
0
 39
0
 70
1
 66
1
  0
VERTEX
  8
0
 10
2468
 20
720
 42
0
  0
VERTEX
  8
0
 10
2468
 20
900
 42
-0
  0
VERTEX
  8
0
 10
2448
 20
920
 42
0
  0
VERTEX
  8
0
 10
2389
 20
920
 42
0
  0
VERTEX
  8
0
 10
2389
 20
700
 42
0
  0
VERTEX
  8
0
 10
2448
 20
700
 42
-0
  0
SEQEND
  0
POLYLINE
  8
0
 10
0
 20
0
 39
0
 70
1
 66
1
  0
VERTEX
  8
0
 10
2448
 20
749.5
 42
-1
  0
VERTEX
  8
0
 10
2419
 20
749.5
 42
-0
  0
VERTEX
  8
0
 10
2419
 20
870.5
 42
-1
  0
VERTEX
  8
0
 10
2448
 20
870.5
 42
-0
  0
SEQEND
  0
POLYLINE
  8
0
 10
0
 20
0
 39
0
 70
1
 66
1
  0
VERTEX
  8
0
 10
2112
 20
706
 42
0
  0
VERTEX
  8
0
 10
2112
 20
886
 42
-0
  0
VERTEX
  8
0
 10
2092
 20
906
 42
0
  0
VERTEX
  8
0
 10
2033
 20
906
 42
0
  0
VERTEX
  8
0
 10
2033
 20
686
 42
0
  0
VERTEX
  8
0
 10
2092
 20
686
 42
-0
  0
SEQEND
  0
POLYLINE
  8
0
 10
0
 20
0
 39
0
 70
1
 66
1
  0
VERTEX
  8
0
 10
2092
 20
735.5
 42
-1
  0
VERTEX
  8
0
 10
2063
 20
735.5
 42
-0
  0
VERTEX
  8
0
 10
2063
 20
856.5
 42
-1
  0
VERTEX
  8
0
 10
2092
 20
856.5
 42
-0
  0
SEQEND
  0
POLYLINE
  8
0
 10
0
 20
0
 39
0
 70
1
 66
1
  0
VERTEX
  8
0
 10
1148.5322265625
 20
780
 42
0
  0
VERTEX
  8
0
 10
1148.5322265625
 20
400
 42
0
  0
VERTEX
  8
0
 10
1291.1163330078125
 20
400
 42
0
  0
VERTEX
  8
0
 10
1401.4696044921875
 20
547.0447998046875
 42
-0
  0
VERTEX
  8
0
 10
1401.4696044921875
 20
644.67083740234375
 42
-0
  0
VERTEX
  8
0
 10
1299.90869140625
 20
780
 42
-0
  0
SEQEND
  0
POLYLINE
  8
0
 10
0
 20
0
 39
0
 70
1
 66
1
  0
VERTEX
  8
0
 10
1306.8104248046875
 20
731.9937744140625
 42
0
  0
VERTEX
  8
0
 10
1355.2484130859375
 20
667.450439453125
 42
0
  0
VERTEX
  8
0
 10
1326.7342529296875
 20
667.450439453125
 42
-0
  0
VERTEX
  8
0
 10
1300.8104248046875
 20
701.9937744140625
 42
-0
  0
VERTEX
  8
0
 10
1212.8104248046875
 20
701.9937744140625
 42
-0
  0
VERTEX
  8
0
 10
1212.8104248046875
 20
569.9937744140625
 42
-0
  0
VERTEX
  8
0
 10
1182.8104248046875
 20
569.9937744140625
 42
-0
  0
VERTEX
  8
0
 10
1182.8104248046875
 20
731.9937744140625
 42
-0
  0
SEQEND
  0
POLYLINE
  8
0
 10
0
 20
0
 39
0
 70
1
 66
1
  0
VERTEX
  8
0
 10
1278.5855712890625
 20
635.9937744140625
 42
0
  0
VERTEX
  8
0
 10
1278.5855712890625
 20
493.99380493164062
 42
-0
  0
VERTEX
  8
0
 10
1244.8104248046875
 20
493.99380493164062
 42
-0
  0
VERTEX
  8
0
 10
1244.8104248046875
 20
635.9937744140625
 42
-0
  0
SEQEND
  0
POLYLINE
  8
0
 10
0
 20
0
 39
0
 70
1
 66
1
  0
VERTEX
  8
0
 10
1411.4696044921875
 20
780
 42
0
  0
VERTEX
  8
0
 10
1411.4696044921875
 20
400
 42
0
  0
VERTEX
  8
0
 10
1554.0537109375
 20
400
 42
0
  0
VERTEX
  8
0
 10
1664.406982421875
 20
547.0447998046875
 42
-0
  0
VERTEX
  8
0
 10
1664.406982421875
 20
644.67083740234375
 42
-0
  0
VERTEX
  8
0
 10
1562.8460693359375
 20
780
 42
-0
  0
SEQEND
  0
POLYLINE
  8
0
 10
0
 20
0
 39
0
 70
1
 66
1
  0
VERTEX
  8
0
 10
1569.7476806640625
 20
731.9937744140625
 42
0
  0
VERTEX
  8
0
 10
1618.185791015625
 20
667.450439453125
 42
0
  0
VERTEX
  8
0
 10
1589.671630859375
 20
667.450439453125
 42
-0
  0
VERTEX
  8
0
 10
1563.7476806640625
 20
701.9937744140625
 42
-0
  0
VERTEX
  8
0
 10
1475.7476806640625
 20
701.9937744140625
 42
-0
  0
VERTEX
  8
0
 10
1475.7476806640625
 20
569.9937744140625
 42
-0
  0
VERTEX
  8
0
 10
1445.7476806640625
 20
569.9937744140625
 42
-0
  0
VERTEX
  8
0
 10
1445.7476806640625
 20
731.9937744140625
 42
-0
  0
SEQEND
  0
POLYLINE
  8
0
 10
0
 20
0
 39
0
 70
1
 66
1
  0
VERTEX
  8
0
 10
1541.52294921875
 20
635.9937744140625
 42
0
  0
VERTEX
  8
0
 10
1541.52294921875
 20
493.99380493164062
 42
-0
  0
VERTEX
  8
0
 10
1507.7476806640625
 20
493.99380493164062
 42
-0
  0
VERTEX
  8
0
 10
1507.7476806640625
 20
635.9937744140625
 42
-0
  0
SEQEND
  0
POLYLINE
  8
0
 10
0
 20
0
 39
0
 70
1
 66
1
  0
VERTEX
  8
0
 10
2290
 20
778.4493408203125
 42
0
  0
VERTEX
  8
0
 10
2290
 20
958.4493408203125
 42
-0
  0
VERTEX
  8
0
 10
2270
 20
978.4493408203125
 42
0
  0
VERTEX
  8
0
 10
2211
 20
978.4493408203125
 42
0
  0
VERTEX
  8
0
 10
2211
 20
758.4493408203125
 42
0
  0
VERTEX
  8
0
 10
2270
 20
758.4493408203125
 42
-0
  0
SEQEND
  0
POLYLINE
  8
0
 10
0
 20
0
 39
0
 70
1
 66
1
  0
VERTEX
  8
0
 10
2270
 20
807.9493408203125
 42
-1
  0
VERTEX
  8
0
 10
2241
 20
807.9493408203125
 42
-0
  0
VERTEX
  8
0
 10
2241
 20
928.9493408203125
 42
-1
  0
VERTEX
  8
0
 10
2270
 20
928.9493408203125
 42
-0
  0
SEQEND
  0
POLYLINE
  8
0
 10
0
 20
0
 39
0
 70
1
 66
1
  0
VERTEX
  8
0
 10
2143.686767578125
 20
30
 42
0
  0
VERTEX
  8
0
 10
2143.686767578125
 20
210
 42
-0
  0
VERTEX
  8
0
 10
2123.686767578125
 20
230
 42
0
  0
VERTEX
  8
0
 10
2064.686767578125
 20
230
 42
0
  0
VERTEX
  8
0
 10
2064.686767578125
 20
10
 42
0
  0
VERTEX
  8
0
 10
2123.686767578125
 20
10
 42
-0
  0
SEQEND
  0
POLYLINE
  8
0
 10
0
 20
0
 39
0
 70
1
 66
1
  0
VERTEX
  8
0
 10
2123.686767578125
 20
59.5
 42
-1
  0
VERTEX
  8
0
 10
2094.686767578125
 20
59.5
 42
-0
  0
VERTEX
  8
0
 10
2094.686767578125
 20
180.5
 42
-1
  0
VERTEX
  8
0
 10
2123.686767578125
 20
180.5
 42
-0
  0
SEQEND
  0
POLYLINE
  8
0
 10
0
 20
0
 39
0
 70
1
 66
1
  0
VERTEX
  8
0
 10
1674.406982421875
 20
780
 42
0
  0
VERTEX
  8
0
 10
1674.406982421875
 20
400
 42
0
  0
VERTEX
  8
0
 10
1816.9910888671875
 20
400
 42
0
  0
VERTEX
  8
0
 10
1927.3443603515625
 20
547.0447998046875
 42
-0
  0
VERTEX
  8
0
 10
1927.3443603515625
 20
644.67083740234375
 42
-0
  0
VERTEX
  8
0
 10
1825.783447265625
 20
780
 42
-0
  0
SEQEND
  0
POLYLINE
  8
0
 10
0
 20
0
 39
0
 70
1
 66
1
  0
VERTEX
  8
0
 10
1832.68505859375
 20
731.9937744140625
 42
0
  0
VERTEX
  8
0
 10
1881.1231689453125
 20
667.450439453125
 42
0
  0
VERTEX
  8
0
 10
1852.6090087890625
 20
667.450439453125
 42
-0
  0
VERTEX
  8
0
 10
1826.68505859375
 20
701.9937744140625
 42
-0
  0
VERTEX
  8
0
 10
1738.68505859375
 20
701.9937744140625
 42
-0
  0
VERTEX
  8
0
 10
1738.68505859375
 20
569.9937744140625
 42
-0
  0
VERTEX
  8
0
 10
1708.68505859375
 20
569.9937744140625
 42
-0
  0
VERTEX
  8
0
 10
1708.68505859375
 20
731.9937744140625
 42
-0
  0
SEQEND
  0
POLYLINE
  8
0
 10
0
 20
0
 39
0
 70
1
 66
1
  0
VERTEX
  8
0
 10
1804.4603271484375
 20
635.9937744140625
 42
0
  0
VERTEX
  8
0
 10
1804.4603271484375
 20
493.99380493164062
 42
-0
  0
VERTEX
  8
0
 10
1770.68505859375
 20
493.99380493164062
 42
-0
  0
VERTEX
  8
0
 10
1770.68505859375
 20
635.9937744140625
 42
-0
  0
SEQEND
  0
POLYLINE
  8
0
 10
0
 20
0
 39
0
 70
1
 66
1
  0
VERTEX
  8
0
 10
2374.34423828125
 20
260
 42
0
  0
VERTEX
  8
0
 10
2374.34423828125
 20
440
 42
-0
  0
VERTEX
  8
0
 10
2354.34423828125
 20
460
 42
0
  0
VERTEX
  8
0
 10
2295.34423828125
 20
460
 42
0
  0
VERTEX
  8
0
 10
2295.34423828125
 20
240
 42
0
  0
VERTEX
  8
0
 10
2354.34423828125
 20
240
 42
-0
  0
SEQEND
  0
POLYLINE
  8
0
 10
0
 20
0
 39
0
 70
1
 66
1
  0
VERTEX
  8
0
 10
2354.34423828125
 20
289.5
 42
-1
  0
VERTEX
  8
0
 10
2325.34423828125
 20
289.5
 42
-0
  0
VERTEX
  8
0
 10
2325.34423828125
 20
410.5
 42
-1
  0
VERTEX
  8
0
 10
2354.34423828125
 20
410.5
 42
-0
  0
SEQEND
  0
POLYLINE
  8
0
 10
0
 20
0
 39
0
 70
1
 66
1
  0
VERTEX
  8
0
 10
2410.686767578125
 20
30
 42
0
  0
VERTEX
  8
0
 10
2410.686767578125
 20
210
 42
-0
  0
VERTEX
  8
0
 10
2390.686767578125
 20
230
 42
0
  0
VERTEX
  8
0
 10
2331.686767578125
 20
230
 42
0
  0
VERTEX
  8
0
 10
2331.686767578125
 20
10
 42
0
  0
VERTEX
  8
0
 10
2390.686767578125
 20
10
 42
-0
  0
SEQEND
  0
POLYLINE
  8
0
 10
0
 20
0
 39
0
 70
1
 66
1
  0
VERTEX
  8
0
 10
2390.686767578125
 20
59.5
 42
-1
  0
VERTEX
  8
0
 10
2361.686767578125
 20
59.5
 42
-0
  0
VERTEX
  8
0
 10
2361.686767578125
 20
180.5
 42
-1
  0
VERTEX
  8
0
 10
2390.686767578125
 20
180.5
 42
-0
  0
SEQEND
  0
POLYLINE
  8
0
 10
0
 20
0
 39
0
 70
1
 66
1
  0
VERTEX
  8
0
 10
2023
 20
758
 42
0
  0
VERTEX
  8
0
 10
2023
 20
938
 42
-0
  0
VERTEX
  8
0
 10
2003
 20
958
 42
0
  0
VERTEX
  8
0
 10
1944
 20
958
 42
0
  0
VERTEX
  8
0
 10
1944
 20
738
 42
0
  0
VERTEX
  8
0
 10
2003
 20
738
 42
-0
  0
SEQEND
  0
POLYLINE
  8
0
 10
0
 20
0
 39
0
 70
1
 66
1
  0
VERTEX
  8
0
 10
2003
 20
787.5
 42
-1
  0
VERTEX
  8
0
 10
1974
 20
787.5
 42
-0
  0
VERTEX
  8
0
 10
1974
 20
908.5
 42
-1
  0
VERTEX
  8
0
 10
2003
 20
908.5
 42
-0
  0
SEQEND
  0
POLYLINE
  8
0
 10
0
 20
0
 39
0
 70
1
 66
1
  0
VERTEX
  8
0
 10
1448.8121337890625
 20
390
 42
0
  0
VERTEX
  8
0
 10
1448.8121337890625
 20
10
 42
0
  0
VERTEX
  8
0
 10
1591.396240234375
 20
10
 42
0
  0
VERTEX
  8
0
 10
1701.74951171875
 20
157.04478454589844
 42
-0
  0
VERTEX
  8
0
 10
1701.74951171875
 20
254.67083740234375
 42
-0
  0
VERTEX
  8
0
 10
1600.1884765625
 20
390
 42
-0
  0
SEQEND
  0
POLYLINE
  8
0
 10
0
 20
0
 39
0
 70
1
 66
1
  0
VERTEX
  8
0
 10
1607.0902099609375
 20
341.99380493164062
 42
0
  0
VERTEX
  8
0
 10
1655.5283203125
 20
277.45040893554687
 42
0
  0
VERTEX
  8
0
 10
1627.01416015625
 20
277.45040893554687
 42
-0
  0
VERTEX
  8
0
 10
1601.0902099609375
 20
311.99380493164062
 42
-0
  0
VERTEX
  8
0
 10
1513.0902099609375
 20
311.99380493164062
 42
-0
  0
VERTEX
  8
0
 10
1513.0902099609375
 20
179.99380493164062
 42
-0
  0
VERTEX
  8
0
 10
1483.0902099609375
 20
179.99380493164062
 42
-0
  0
VERTEX
  8
0
 10
1483.0902099609375
 20
341.99380493164062
 42
-0
  0
SEQEND
  0
POLYLINE
  8
0
 10
0
 20
0
 39
0
 70
1
 66
1
  0
VERTEX
  8
0
 10
1578.865478515625
 20
245.99380493164062
 42
0
  0
VERTEX
  8
0
 10
1578.865478515625
 20
103.99380493164062
 42
-0
  0
VERTEX
  8
0
 10
1545.0902099609375
 20
103.99380493164062
 42
-0
  0
VERTEX
  8
0
 10
1545.0902099609375
 20
245.99380493164062
 42
-0
  0
SEQEND
  0
POLYLINE
  8
0
 10
0
 20
0
 39
0
 70
1
 66
1
  0
VERTEX
  8
0
 10
1308
 20
960
 42
1
  0
VERTEX
  8
0
 10
1308
 20
880
 42
0
  0
VERTEX
  8
0
 10
1556
 20
880
 42
1
  0
VERTEX
  8
0
 10
1556
 20
960
 42
-0
  0
SEQEND
  0
POLYLINE
  8
0
 10
0
 20
0
 39
0
 70
1
 66
1
  0
VERTEX
  8
0
 10
1419
 20
920
 42
-1
  0
VERTEX
  8
0
 10
1445
 20
920
 42
-1
  0
SEQEND
  0
POLYLINE
  8
0
 10
0
 20
0
 39
0
 70
1
 66
1
  0
VERTEX
  8
0
 10
1471.6719970703125
 20
920
 42
-1
  0
VERTEX
  8
0
 10
1493.6719970703125
 20
920
 42
-1
  0
SEQEND
  0
POLYLINE
  8
0
 10
0
 20
0
 39
0
 70
1
 66
1
  0
VERTEX
  8
0
 10
1370.3280029296875
 20
920
 42
-1
  0
VERTEX
  8
0
 10
1392.3280029296875
 20
920
 42
-1
  0
SEQEND
  0
POLYLINE
  8
0
 10
0
 20
0
 39
0
 70
1
 66
1
  0
VERTEX
  8
0
 10
1711.74951171875
 20
390
 42
0
  0
VERTEX
  8
0
 10
1711.74951171875
 20
10
 42
0
  0
VERTEX
  8
0
 10
1854.3336181640625
 20
10
 42
0
  0
VERTEX
  8
0
 10
1964.686767578125
 20
157.04478454589844
 42
-0
  0
VERTEX
  8
0
 10
1964.686767578125
 20
254.67083740234375
 42
-0
  0
VERTEX
  8
0
 10
1863.1258544921875
 20
390
 42
-0
  0
SEQEND
  0
POLYLINE
  8
0
 10
0
 20
0
 39
0
 70
1
 66
1
  0
VERTEX
  8
0
 10
1870.027587890625
 20
341.99380493164062
 42
0
  0
VERTEX
  8
0
 10
1918.4656982421875
 20
277.45040893554687
 42
0
  0
VERTEX
  8
0
 10
1889.951416015625
 20
277.45040893554687
 42
-0
  0
VERTEX
  8
0
 10
1864.027587890625
 20
311.99380493164062
 42
-0
  0
VERTEX
  8
0
 10
1776.027587890625
 20
311.99380493164062
 42
-0
  0
VERTEX
  8
0
 10
1776.027587890625
 20
179.99380493164062
 42
-0
  0
VERTEX
  8
0
 10
1746.027587890625
 20
179.99380493164062
 42
-0
  0
VERTEX
  8
0
 10
1746.027587890625
 20
341.99380493164062
 42
-0
  0
SEQEND
  0
POLYLINE
  8
0
 10
0
 20
0
 39
0
 70
1
 66
1
  0
VERTEX
  8
0
 10
1841.8028564453125
 20
245.99380493164062
 42
0
  0
VERTEX
  8
0
 10
1841.8028564453125
 20
103.99380493164062
 42
-0
  0
VERTEX
  8
0
 10
1808.027587890625
 20
103.99380493164062
 42
-0
  0
VERTEX
  8
0
 10
1808.027587890625
 20
245.99380493164062
 42
-0
  0
SEQEND
  0
POLYLINE
  8
0
 10
0
 20
0
 39
0
 70
1
 66
1
  0
VERTEX
  8
0
 10
1185.874755859375
 20
390
 42
0
  0
VERTEX
  8
0
 10
1185.874755859375
 20
10
 42
0
  0
VERTEX
  8
0
 10
1328.4588623046875
 20
10
 42
0
  0
VERTEX
  8
0
 10
1438.8121337890625
 20
157.04478454589844
 42
-0
  0
VERTEX
  8
0
 10
1438.8121337890625
 20
254.67083740234375
 42
-0
  0
VERTEX
  8
0
 10
1337.251220703125
 20
390
 42
-0
  0
SEQEND
  0
POLYLINE
  8
0
 10
0
 20
0
 39
0
 70
1
 66
1
  0
VERTEX
  8
0
 10
1344.15283203125
 20
341.99380493164062
 42
0
  0
VERTEX
  8
0
 10
1392.5909423828125
 20
277.45040893554687
 42
0
  0
VERTEX
  8
0
 10
1364.0767822265625
 20
277.45040893554687
 42
-0
  0
VERTEX
  8
0
 10
1338.15283203125
 20
311.99380493164062
 42
-0
  0
VERTEX
  8
0
 10
1250.15283203125
 20
311.99380493164062
 42
-0
  0
VERTEX
  8
0
 10
1250.15283203125
 20
179.99380493164062
 42
-0
  0
VERTEX
  8
0
 10
1220.15283203125
 20
179.99380493164062
 42
-0
  0
VERTEX
  8
0
 10
1220.15283203125
 20
341.99380493164062
 42
-0
  0
SEQEND
  0
POLYLINE
  8
0
 10
0
 20
0
 39
0
 70
1
 66
1
  0
VERTEX
  8
0
 10
1315.9281005859375
 20
245.99380493164062
 42
0
  0
VERTEX
  8
0
 10
1315.9281005859375
 20
103.99380493164062
 42
-0
  0
VERTEX
  8
0
 10
1282.15283203125
 20
103.99380493164062
 42
-0
  0
VERTEX
  8
0
 10
1282.15283203125
 20
245.99380493164062
 42
-0
  0
SEQEND
  0
POLYLINE
  8
0
 10
0
 20
0
 39
0
 70
1
 66
1
  0
VERTEX
  8
0
 10
885.5948486328125
 20
780
 42
0
  0
VERTEX
  8
0
 10
885.5948486328125
 20
400
 42
0
  0
VERTEX
  8
0
 10
1028.1790771484375
 20
400
 42
0
  0
VERTEX
  8
0
 10
1138.5322265625
 20
547.0447998046875
 42
-0
  0
VERTEX
  8
0
 10
1138.5322265625
 20
644.67083740234375
 42
-0
  0
VERTEX
  8
0
 10
1036.9713134765625
 20
780
 42
-0
  0
SEQEND
  0
POLYLINE
  8
0
 10
0
 20
0
 39
0
 70
1
 66
1
  0
VERTEX
  8
0
 10
1043.873046875
 20
731.9937744140625
 42
0
  0
VERTEX
  8
0
 10
1092.3111572265625
 20
667.450439453125
 42
0
  0
VERTEX
  8
0
 10
1063.796875
 20
667.450439453125
 42
-0
  0
VERTEX
  8
0
 10
1037.873046875
 20
701.9937744140625
 42
-0
  0
VERTEX
  8
0
 10
949.87298583984375
 20
701.9937744140625
 42
-0
  0
VERTEX
  8
0
 10
949.87298583984375
 20
569.9937744140625
 42
-0
  0
VERTEX
  8
0
 10
919.87298583984375
 20
569.9937744140625
 42
-0
  0
VERTEX
  8
0
 10
919.87298583984375
 20
731.9937744140625
 42
-0
  0
SEQEND
  0
POLYLINE
  8
0
 10
0
 20
0
 39
0
 70
1
 66
1
  0
VERTEX
  8
0
 10
1015.6482543945312
 20
635.9937744140625
 42
0
  0
VERTEX
  8
0
 10
1015.6482543945312
 20
493.99380493164062
 42
-0
  0
VERTEX
  8
0
 10
981.87298583984375
 20
493.99380493164062
 42
-0
  0
VERTEX
  8
0
 10
981.87298583984375
 20
635.9937744140625
 42
-0
  0
SEQEND
  0
POLYLINE
  8
0
 10
0
 20
0
 39
0
 70
1
 66
1
  0
VERTEX
  8
0
 10
660
 20
390
 42
0
  0
VERTEX
  8
0
 10
660
 20
10
 42
0
  0
VERTEX
  8
0
 10
802.58416748046875
 20
10
 42
0
  0
VERTEX
  8
0
 10
912.9373779296875
 20
157.04478454589844
 42
-0
  0
VERTEX
  8
0
 10
912.9373779296875
 20
254.67083740234375
 42
-0
  0
VERTEX
  8
0
 10
811.37646484375
 20
390
 42
-0
  0
SEQEND
  0
POLYLINE
  8
0
 10
0
 20
0
 39
0
 70
1
 66
1
  0
VERTEX
  8
0
 10
818.27813720703125
 20
341.99380493164062
 42
0
  0
VERTEX
  8
0
 10
866.71624755859375
 20
277.45040893554687
 42
0
  0
VERTEX
  8
0
 10
838.2020263671875
 20
277.45040893554687
 42
-0
  0
VERTEX
  8
0
 10
812.27813720703125
 20
311.99380493164062
 42
-0
  0
VERTEX
  8
0
 10
724.27813720703125
 20
311.99380493164062
 42
-0
  0
VERTEX
  8
0
 10
724.27813720703125
 20
179.99380493164062
 42
-0
  0
VERTEX
  8
0
 10
694.27813720703125
 20
179.99380493164062
 42
-0
  0
VERTEX
  8
0
 10
694.27813720703125
 20
341.99380493164062
 42
-0
  0
SEQEND
  0
POLYLINE
  8
0
 10
0
 20
0
 39
0
 70
1
 66
1
  0
VERTEX
  8
0
 10
790.0533447265625
 20
245.99380493164062
 42
0
  0
VERTEX
  8
0
 10
790.0533447265625
 20
103.99380493164062
 42
-0
  0
VERTEX
  8
0
 10
756.27813720703125
 20
103.99380493164062
 42
-0
  0
VERTEX
  8
0
 10
756.27813720703125
 20
245.99380493164062
 42
-0
  0
SEQEND
  0
POLYLINE
  8
0
 10
0
 20
0
 39
0
 70
1
 66
1
  0
VERTEX
  8
0
 10
2196.34423828125
 20
260
 42
0
  0
VERTEX
  8
0
 10
2196.34423828125
 20
440
 42
-0
  0
VERTEX
  8
0
 10
2176.34423828125
 20
460
 42
0
  0
VERTEX
  8
0
 10
2117.34423828125
 20
460
 42
0
  0
VERTEX
  8
0
 10
2117.34423828125
 20
240
 42
0
  0
VERTEX
  8
0
 10
2176.34423828125
 20
240
 42
-0
  0
SEQEND
  0
POLYLINE
  8
0
 10
0
 20
0
 39
0
 70
1
 66
1
  0
VERTEX
  8
0
 10
2176.34423828125
 20
289.5
 42
-1
  0
VERTEX
  8
0
 10
2147.34423828125
 20
289.5
 42
-0
  0
VERTEX
  8
0
 10
2147.34423828125
 20
410.5
 42
-1
  0
VERTEX
  8
0
 10
2176.34423828125
 20
410.5
 42
-0
  0
SEQEND
  0
POLYLINE
  8
0
 10
0
 20
0
 39
0
 70
1
 66
1
  0
VERTEX
  8
0
 10
2379
 20
720
 42
0
  0
VERTEX
  8
0
 10
2379
 20
900
 42
-0
  0
VERTEX
  8
0
 10
2359
 20
920
 42
0
  0
VERTEX
  8
0
 10
2300
 20
920
 42
0
  0
VERTEX
  8
0
 10
2300
 20
700
 42
0
  0
VERTEX
  8
0
 10
2359
 20
700
 42
-0
  0
SEQEND
  0
POLYLINE
  8
0
 10
0
 20
0
 39
0
 70
1
 66
1
  0
VERTEX
  8
0
 10
2359
 20
749.5
 42
-1
  0
VERTEX
  8
0
 10
2330
 20
749.5
 42
-0
  0
VERTEX
  8
0
 10
2330
 20
870.5
 42
-1
  0
VERTEX
  8
0
 10
2359
 20
870.5
 42
-0
  0
SEQEND
  0
ENDSEC
  0
EOF
