  0
SECTION
  2
ENTITIES
  0
POLYLINE
  8
0
 10
0
 20
0
 39
0
 70
1
 66
1
  0
VERTEX
  8
0
 10
0
 20
0
 42
0
  0
VERTEX
  8
0
 10
3000
 20
0
 42
0
  0
VERTEX
  8
0
 10
3000
 20
1000
 42
0
  0
VERTEX
  8
0
 10
0
 20
1000
 42
0
  0
SEQEND
  0
POLYLINE
  8
0
 10
0
 20
0
 39
0
 70
1
 66
1
  0
VERTEX
  8
0
 10
10.307692307692378
 20
250.30769230769232
 42
-0
  0
VERTEX
  8
0
 10
1304.3076923076924
 20
250.30769230769232
 42
-0
  0
VERTEX
  8
0
 10
1304.3076923076924
 20
10.307692307692308
 42
-0
  0
VERTEX
  8
0
 10
10.307692307692378
 20
10.307692307692308
 42
-0
  0
SEQEND
  0
POLYLINE
  8
0
 10
0
 20
0
 39
0
 70
1
 66
1
  0
VERTEX
  8
0
 10
1214.912695664626
 20
130.30769230769232
 42
1
  0
VERTEX
  8
0
 10
1199.7026889507588
 20
130.30769230769232
 42
1
  0
SEQEND
  0
POLYLINE
  8
0
 10
0
 20
0
 39
0
 70
1
 66
1
  0
VERTEX
  8
0
 10
1114.9126880352314
 20
130.30769230769232
 42
1
  0
VERTEX
  8
0
 10
1099.7026965801533
 20
130.30769230769232
 42
1
  0
SEQEND
  0
POLYLINE
  8
0
 10
0
 20
0
 39
0
 70
1
 66
1
  0
VERTEX
  8
0
 10
1014.9127032940205
 20
130.30769230769232
 42
1
  0
VERTEX
  8
0
 10
999.70268132136425
 20
130.30769230769232
 42
1
  0
SEQEND
  0
POLYLINE
  8
0
 10
0
 20
0
 39
0
 70
1
 66
1
  0
VERTEX
  8
0
 10
914.9127032940205
 20
130.30769230769232
 42
1
  0
VERTEX
  8
0
 10
899.70268132136425
 20
130.30769230769232
 42
1
  0
SEQEND
  0
POLYLINE
  8
0
 10
0
 20
0
 39
0
 70
1
 66
1
  0
VERTEX
  8
0
 10
814.9127032940205
 20
130.30769230769232
 42
1
  0
VERTEX
  8
0
 10
799.70268132136425
 20
130.30769230769232
 42
1
  0
SEQEND
  0
POLYLINE
  8
0
 10
0
 20
0
 39
0
 70
1
 66
1
  0
VERTEX
  8
0
 10
714.91267277644238
 20
130.30769230769232
 42
1
  0
VERTEX
  8
0
 10
699.70271183894238
 20
130.30769230769232
 42
1
  0
SEQEND
  0
POLYLINE
  8
0
 10
0
 20
0
 39
0
 70
1
 66
1
  0
VERTEX
  8
0
 10
614.91267277644238
 20
130.30769230769232
 42
1
  0
VERTEX
  8
0
 10
599.70271183894238
 20
130.30769230769232
 42
1
  0
SEQEND
  0
POLYLINE
  8
0
 10
0
 20
0
 39
0
 70
1
 66
1
  0
VERTEX
  8
0
 10
514.91267277644238
 20
130.30769230769232
 42
1
  0
VERTEX
  8
0
 10
499.70271183894238
 20
130.30769230769232
 42
1
  0
SEQEND
  0
POLYLINE
  8
0
 10
0
 20
0
 39
0
 70
1
 66
1
  0
VERTEX
  8
0
 10
414.91267277644238
 20
130.30769230769232
 42
1
  0
VERTEX
  8
0
 10
399.70271183894238
 20
130.30769230769232
 42
1
  0
SEQEND
  0
POLYLINE
  8
0
 10
0
 20
0
 39
0
 70
1
 66
1
  0
VERTEX
  8
0
 10
314.91267277644238
 20
130.30769230769232
 42
1
  0
VERTEX
  8
0
 10
299.70271183894238
 20
130.30769230769232
 42
1
  0
SEQEND
  0
POLYLINE
  8
0
 10
0
 20
0
 39
0
 70
1
 66
1
  0
VERTEX
  8
0
 10
214.91267277644238
 20
130.30769230769232
 42
1
  0
VERTEX
  8
0
 10
199.70271183894238
 20
130.30769230769232
 42
1
  0
SEQEND
  0
POLYLINE
  8
0
 10
0
 20
0
 39
0
 70
1
 66
1
  0
VERTEX
  8
0
 10
114.91267277644238
 20
130.30769230769232
 42
1
  0
VERTEX
  8
0
 10
99.702711838942378
 20
130.30769230769232
 42
1
  0
SEQEND
  0
POLYLINE
  8
0
 10
0
 20
0
 39
0
 70
1
 66
1
  0
VERTEX
  8
0
 10
10.307692307692378
 20
500.46153846153845
 42
-0
  0
VERTEX
  8
0
 10
1304.3076923076924
 20
500.46153846153845
 42
-0
  0
VERTEX
  8
0
 10
1304.3076923076924
 20
260.46153846153845
 42
-0
  0
VERTEX
  8
0
 10
10.307692307692378
 20
260.46153846153845
 42
-0
  0
SEQEND
  0
POLYLINE
  8
0
 10
0
 20
0
 39
0
 70
1
 66
1
  0
VERTEX
  8
0
 10
1214.912695664626
 20
380.46153846153845
 42
1
  0
VERTEX
  8
0
 10
1199.7026889507588
 20
380.46153846153845
 42
1
  0
SEQEND
  0
POLYLINE
  8
0
 10
0
 20
0
 39
0
 70
1
 66
1
  0
VERTEX
  8
0
 10
1114.9126880352314
 20
380.46153846153845
 42
1
  0
VERTEX
  8
0
 10
1099.7026965801533
 20
380.46153846153845
 42
1
  0
SEQEND
  0
POLYLINE
  8
0
 10
0
 20
0
 39
0
 70
1
 66
1
  0
VERTEX
  8
0
 10
1014.9127032940205
 20
380.46153846153845
 42
1
  0
VERTEX
  8
0
 10
999.70268132136425
 20
380.46153846153845
 42
1
  0
SEQEND
  0
POLYLINE
  8
0
 10
0
 20
0
 39
0
 70
1
 66
1
  0
VERTEX
  8
0
 10
914.9127032940205
 20
380.46153846153845
 42
1
  0
VERTEX
  8
0
 10
899.70268132136425
 20
380.46153846153845
 42
1
  0
SEQEND
  0
POLYLINE
  8
0
 10
0
 20
0
 39
0
 70
1
 66
1
  0
VERTEX
  8
0
 10
814.9127032940205
 20
380.46153846153845
 42
1
  0
VERTEX
  8
0
 10
799.70268132136425
 20
380.46153846153845
 42
1
  0
SEQEND
  0
POLYLINE
  8
0
 10
0
 20
0
 39
0
 70
1
 66
1
  0
VERTEX
  8
0
 10
714.91267277644238
 20
380.46153846153845
 42
1
  0
VERTEX
  8
0
 10
699.70271183894238
 20
380.46153846153845
 42
1
  0
SEQEND
  0
POLYLINE
  8
0
 10
0
 20
0
 39
0
 70
1
 66
1
  0
VERTEX
  8
0
 10
614.91267277644238
 20
380.46153846153845
 42
1
  0
VERTEX
  8
0
 10
599.70271183894238
 20
380.46153846153845
 42
1
  0
SEQEND
  0
POLYLINE
  8
0
 10
0
 20
0
 39
0
 70
1
 66
1
  0
VERTEX
  8
0
 10
514.91267277644238
 20
380.46153846153845
 42
1
  0
VERTEX
  8
0
 10
499.70271183894238
 20
380.46153846153845
 42
1
  0
SEQEND
  0
POLYLINE
  8
0
 10
0
 20
0
 39
0
 70
1
 66
1
  0
VERTEX
  8
0
 10
414.91267277644238
 20
380.46153846153845
 42
1
  0
VERTEX
  8
0
 10
399.70271183894238
 20
380.46153846153845
 42
1
  0
SEQEND
  0
POLYLINE
  8
0
 10
0
 20
0
 39
0
 70
1
 66
1
  0
VERTEX
  8
0
 10
314.91267277644238
 20
380.46153846153845
 42
1
  0
VERTEX
  8
0
 10
299.70271183894238
 20
380.46153846153845
 42
1
  0
SEQEND
  0
POLYLINE
  8
0
 10
0
 20
0
 39
0
 70
1
 66
1
  0
VERTEX
  8
0
 10
214.91267277644238
 20
380.46153846153845
 42
1
  0
VERTEX
  8
0
 10
199.70271183894238
 20
380.46153846153845
 42
1
  0
SEQEND
  0
POLYLINE
  8
0
 10
0
 20
0
 39
0
 70
1
 66
1
  0
VERTEX
  8
0
 10
114.91267277644238
 20
380.46153846153845
 42
1
  0
VERTEX
  8
0
 10
99.702711838942378
 20
380.46153846153845
 42
1
  0
SEQEND
  0
POLYLINE
  8
0
 10
0
 20
0
 39
0
 70
1
 66
1
  0
VERTEX
  8
0
 10
10.307692307692378
 20
750.61538461538464
 42
-0
  0
VERTEX
  8
0
 10
1304.3076923076924
 20
750.61538461538464
 42
-0
  0
VERTEX
  8
0
 10
1304.3076923076924
 20
510.61538461538464
 42
-0
  0
VERTEX
  8
0
 10
10.307692307692378
 20
510.61538461538464
 42
-0
  0
SEQEND
  0
POLYLINE
  8
0
 10
0
 20
0
 39
0
 70
1
 66
1
  0
VERTEX
  8
0
 10
1214.912695664626
 20
630.61538461538464
 42
1
  0
VERTEX
  8
0
 10
1199.7026889507588
 20
630.61538461538464
 42
1
  0
SEQEND
  0
POLYLINE
  8
0
 10
0
 20
0
 39
0
 70
1
 66
1
  0
VERTEX
  8
0
 10
1114.9126880352314
 20
630.61538461538464
 42
1
  0
VERTEX
  8
0
 10
1099.7026965801533
 20
630.61538461538464
 42
1
  0
SEQEND
  0
POLYLINE
  8
0
 10
0
 20
0
 39
0
 70
1
 66
1
  0
VERTEX
  8
0
 10
1014.9127032940205
 20
630.61538461538464
 42
1
  0
VERTEX
  8
0
 10
999.70268132136425
 20
630.61538461538464
 42
1
  0
SEQEND
  0
POLYLINE
  8
0
 10
0
 20
0
 39
0
 70
1
 66
1
  0
VERTEX
  8
0
 10
914.9127032940205
 20
630.61538461538464
 42
1
  0
VERTEX
  8
0
 10
899.70268132136425
 20
630.61538461538464
 42
1
  0
SEQEND
  0
POLYLINE
  8
0
 10
0
 20
0
 39
0
 70
1
 66
1
  0
VERTEX
  8
0
 10
814.9127032940205
 20
630.61538461538464
 42
1
  0
VERTEX
  8
0
 10
799.70268132136425
 20
630.61538461538464
 42
1
  0
SEQEND
  0
POLYLINE
  8
0
 10
0
 20
0
 39
0
 70
1
 66
1
  0
VERTEX
  8
0
 10
714.91267277644238
 20
630.61538461538464
 42
1
  0
VERTEX
  8
0
 10
699.70271183894238
 20
630.61538461538464
 42
1
  0
SEQEND
  0
POLYLINE
  8
0
 10
0
 20
0
 39
0
 70
1
 66
1
  0
VERTEX
  8
0
 10
614.91267277644238
 20
630.61538461538464
 42
1
  0
VERTEX
  8
0
 10
599.70271183894238
 20
630.61538461538464
 42
1
  0
SEQEND
  0
POLYLINE
  8
0
 10
0
 20
0
 39
0
 70
1
 66
1
  0
VERTEX
  8
0
 10
514.91267277644238
 20
630.61538461538464
 42
1
  0
VERTEX
  8
0
 10
499.70271183894238
 20
630.61538461538464
 42
1
  0
SEQEND
  0
POLYLINE
  8
0
 10
0
 20
0
 39
0
 70
1
 66
1
  0
VERTEX
  8
0
 10
414.91267277644238
 20
630.61538461538464
 42
1
  0
VERTEX
  8
0
 10
399.70271183894238
 20
630.61538461538464
 42
1
  0
SEQEND
  0
POLYLINE
  8
0
 10
0
 20
0
 39
0
 70
1
 66
1
  0
VERTEX
  8
0
 10
314.91267277644238
 20
630.61538461538464
 42
1
  0
VERTEX
  8
0
 10
299.70271183894238
 20
630.61538461538464
 42
1
  0
SEQEND
  0
POLYLINE
  8
0
 10
0
 20
0
 39
0
 70
1
 66
1
  0
VERTEX
  8
0
 10
214.91267277644238
 20
630.61538461538464
 42
1
  0
VERTEX
  8
0
 10
199.70271183894238
 20
630.61538461538464
 42
1
  0
SEQEND
  0
POLYLINE
  8
0
 10
0
 20
0
 39
0
 70
1
 66
1
  0
VERTEX
  8
0
 10
114.91267277644238
 20
630.61538461538464
 42
1
  0
VERTEX
  8
0
 10
99.702711838942378
 20
630.61538461538464
 42
1
  0
SEQEND
  0
POLYLINE
  8
0
 10
0
 20
0
 39
0
 70
1
 66
1
  0
VERTEX
  8
0
 10
1475.615385912083
 20
629.46154177422648
 42
-0.94444441795349121
  0
VERTEX
  8
0
 10
1475.6153706532939
 20
989.46153846153845
 42
-0
  0
VERTEX
  8
0
 10
1605.6153706532939
 20
989.46153846153845
 42
-0
  0
VERTEX
  8
0
 10
1605.6153706532939
 20
629.46153846153845
 42
-0
  0
SEQEND
  0
POLYLINE
  8
0
 10
0
 20
0
 39
0
 70
1
 66
1
  0
VERTEX
  8
0
 10
1545.6153706532939
 20
798.96153846153845
 42
1
  0
VERTEX
  8
0
 10
1545.6153706532939
 20
819.96153846153845
 42
1
  0
SEQEND
  0
POLYLINE
  8
0
 10
0
 20
0
 39
0
 70
1
 66
1
  0
VERTEX
  8
0
 10
1425.6153706532939
 20
809.46153846153845
 42
-0.41421356797218323
  0
VERTEX
  8
0
 10
1545.6153706532939
 20
929.46153846153845
 42
1
  0
VERTEX
  8
0
 10
1545.6153706532939
 20
951.46153846153845
 42
0.41421356797218323
  0
VERTEX
  8
0
 10
1403.6153706532939
 20
809.46153846153845
 42
1
  0
SEQEND
  0
POLYLINE
  8
0
 10
0
 20
0
 39
0
 70
1
 66
1
  0
VERTEX
  8
0
 10
1484.615385912083
 20
10.307695620380322
 42
-0.94444441795349121
  0
VERTEX
  8
0
 10
1484.6153706532939
 20
370.30769230769226
 42
-0
  0
VERTEX
  8
0
 10
1614.6153706532939
 20
370.30769230769226
 42
-0
  0
VERTEX
  8
0
 10
1614.6153706532939
 20
10.307692307692307
 42
-0
  0
SEQEND
  0
POLYLINE
  8
0
 10
0
 20
0
 39
0
 70
1
 66
1
  0
VERTEX
  8
0
 10
1554.6153706532939
 20
179.80769230769232
 42
1
  0
VERTEX
  8
0
 10
1554.6153706532939
 20
200.80769230769232
 42
1
  0
SEQEND
  0
POLYLINE
  8
0
 10
0
 20
0
 39
0
 70
1
 66
1
  0
VERTEX
  8
0
 10
1434.6153706532939
 20
190.30769230769229
 42
-0.41421356797218323
  0
VERTEX
  8
0
 10
1554.6153706532939
 20
310.30769230769226
 42
1
  0
VERTEX
  8
0
 10
1554.6153706532939
 20
332.30769230769226
 42
0.41421356797218323
  0
VERTEX
  8
0
 10
1412.6153706532939
 20
190.30769230769229
 42
1
  0
SEQEND
  0
POLYLINE
  8
0
 10
0
 20
0
 39
0
 70
1
 66
1
  0
VERTEX
  8
0
 10
1739.8461551428522
 20
324.61538792807266
 42
-0.94444441795349121
  0
VERTEX
  8
0
 10
1739.8461398840632
 20
684.61538461538464
 42
-0
  0
VERTEX
  8
0
 10
1869.8461398840632
 20
684.61538461538464
 42
-0
  0
VERTEX
  8
0
 10
1869.8461398840632
 20
324.61538461538464
 42
-0
  0
SEQEND
  0
POLYLINE
  8
0
 10
0
 20
0
 39
0
 70
1
 66
1
  0
VERTEX
  8
0
 10
1809.8461398840632
 20
494.11538461538464
 42
1
  0
VERTEX
  8
0
 10
1809.8461398840632
 20
515.11538461538464
 42
1
  0
SEQEND
  0
POLYLINE
  8
0
 10
0
 20
0
 39
0
 70
1
 66
1
  0
VERTEX
  8
0
 10
1689.8461398840632
 20
504.61538461538464
 42
-0.41421356797218323
  0
VERTEX
  8
0
 10
1809.8461398840632
 20
624.61538461538464
 42
1
  0
VERTEX
  8
0
 10
1809.8461398840632
 20
646.61538461538464
 42
0.41421356797218323
  0
VERTEX
  8
0
 10
1667.8461398840632
 20
504.61538461538464
 42
1
  0
SEQEND
  0
POLYLINE
  8
0
 10
0
 20
0
 39
0
 70
1
 66
1
  0
VERTEX
  8
0
 10
1984.7692274565429
 20
180.30769360439061
 42
-0.94444441795349121
  0
VERTEX
  8
0
 10
1624.7692307692309
 20
180.30767834560154
 42
-0
  0
VERTEX
  8
0
 10
1624.7692307692309
 20
310.30767834560152
 42
-0
  0
VERTEX
  8
0
 10
1984.7692307692309
 20
310.30767834560152
 42
-0
  0
SEQEND
  0
POLYLINE
  8
0
 10
0
 20
0
 39
0
 70
1
 66
1
  0
VERTEX
  8
0
 10
1815.2692307692309
 20
250.30767834560154
 42
1
  0
VERTEX
  8
0
 10
1794.2692307692309
 20
250.30767834560154
 42
1
  0
SEQEND
  0
POLYLINE
  8
0
 10
0
 20
0
 39
0
 70
1
 66
1
  0
VERTEX
  8
0
 10
1804.7692307692309
 20
130.30767834560154
 42
-0.41421356797218323
  0
VERTEX
  8
0
 10
1684.7692307692309
 20
250.30767834560154
 42
1
  0
VERTEX
  8
0
 10
1662.7692307692309
 20
250.30767834560154
 42
0.41421356797218323
  0
VERTEX
  8
0
 10
1804.7692307692309
 20
108.30767834560153
 42
1
  0
SEQEND
  0
POLYLINE
  8
0
 10
0
 20
0
 39
0
 70
1
 66
1
  0
VERTEX
  8
0
 10
2096.4615351488505
 20
859.46153975823677
 42
-0.94444441795349121
  0
VERTEX
  8
0
 10
1736.4615384615386
 20
859.46152449944771
 42
-0
  0
VERTEX
  8
0
 10
1736.4615384615386
 20
989.46152449944771
 42
-0
  0
VERTEX
  8
0
 10
2096.4615384615386
 20
989.46152449944771
 42
-0
  0
SEQEND
  0
POLYLINE
  8
0
 10
0
 20
0
 39
0
 70
1
 66
1
  0
VERTEX
  8
0
 10
1926.9615384615386
 20
929.46152449944771
 42
1
  0
VERTEX
  8
0
 10
1905.9615384615386
 20
929.46152449944771
 42
1
  0
SEQEND
  0
POLYLINE
  8
0
 10
0
 20
0
 39
0
 70
1
 66
1
  0
VERTEX
  8
0
 10
1916.4615384615386
 20
809.46152449944771
 42
-0.41421356797218323
  0
VERTEX
  8
0
 10
1796.4615384615386
 20
929.46152449944771
 42
1
  0
VERTEX
  8
0
 10
1774.4615384615386
 20
929.46152449944771
 42
0.41421356797218323
  0
VERTEX
  8
0
 10
1916.4615384615386
 20
787.46152449944771
 42
1
  0
SEQEND
  0
POLYLINE
  8
0
 10
0
 20
0
 39
0
 70
1
 66
1
  0
VERTEX
  8
0
 10
2050.0000012966984
 20
305.69231100499576
 42
-0.94444441795349121
  0
VERTEX
  8
0
 10
2049.9999860379094
 20
665.69230769230774
 42
-0
  0
VERTEX
  8
0
 10
2179.9999860379094
 20
665.69230769230774
 42
-0
  0
VERTEX
  8
0
 10
2179.9999860379094
 20
305.69230769230774
 42
-0
  0
SEQEND
  0
POLYLINE
  8
0
 10
0
 20
0
 39
0
 70
1
 66
1
  0
VERTEX
  8
0
 10
2119.9999860379094
 20
475.19230769230774
 42
1
  0
VERTEX
  8
0
 10
2119.9999860379094
 20
496.19230769230774
 42
1
  0
SEQEND
  0
POLYLINE
  8
0
 10
0
 20
0
 39
0
 70
1
 66
1
  0
VERTEX
  8
0
 10
1999.9999860379094
 20
485.69230769230774
 42
-0.41421356797218323
  0
VERTEX
  8
0
 10
2119.9999860379094
 20
605.69230769230774
 42
1
  0
VERTEX
  8
0
 10
2119.9999860379094
 20
627.69230769230774
 42
0.41421356797218323
  0
VERTEX
  8
0
 10
1977.9999860379094
 20
485.69230769230774
 42
1
  0
SEQEND
  0
POLYLINE
  8
0
 10
0
 20
0
 39
0
 70
1
 66
1
  0
VERTEX
  8
0
 10
2396.5803774320166
 20
894.19398677418178
 42
-0.14499309659004211
  0
VERTEX
  8
0
 10
2402.1037386380713
 20
892.86794459888881
 42
-0
  0
VERTEX
  8
0
 10
2419.5384615384619
 20
882.80201137134975
 42
-0.26794919371604919
  0
VERTEX
  8
0
 10
2424.5384615384619
 20
874.14175593922084
 42
-0
  0
VERTEX
  8
0
 10
2424.5384615384619
 20
665.75626552174049
 42
-0.26794919371604919
  0
VERTEX
  8
0
 10
2419.5384615384619
 20
657.096017719006
 42
0
  0
VERTEX
  8
0
 10
2402.1037386380713
 20
647.030099750256
 42
-0.14499309659004211
  0
VERTEX
  8
0
 10
2396.5803926908056
 20
645.7040499455685
 42
0
  0
VERTEX
  8
0
 10
2378.8455904447119
 20
646.6334933049435
 42
0.35411858558654785
  0
VERTEX
  8
0
 10
2358.4803560697119
 20
631.83725917408412
 42
0
  0
VERTEX
  8
0
 10
2340.7302034818213
 20
565.592843890881
 42
-0.35411858558654785
  0
VERTEX
  8
0
 10
2320.3649691068213
 20
550.79664027759975
 42
-0
  0
VERTEX
  8
0
 10
2290.349397512583
 20
552.36966884205287
 42
-0.32491970062255859
  0
VERTEX
  8
0
 10
2272.0776003324072
 20
567.16590297291225
 42
-0
  0
VERTEX
  8
0
 10
2252.3565576993506
 20
640.76584804127162
 42
0.32491970062255859
  0
VERTEX
  8
0
 10
2234.0847605191748
 20
655.56202113697475
 42
0
  0
VERTEX
  8
0
 10
2207.4917429410498
 20
656.95569789478725
 42
-0.39895954728126526
  0
VERTEX
  8
0
 10
2188.5384615384619
 20
676.928293109631
 42
-0
  0
VERTEX
  8
0
 10
2188.5384615384619
 20
862.96972072193569
 42
-0.39895954728126526
  0
VERTEX
  8
0
 10
2207.4917429410498
 20
882.94231593677944
 42
-0
  0
VERTEX
  8
0
 10
2234.0847605191748
 20
884.33600032398647
 42
0.32491970062255859
  0
VERTEX
  8
0
 10
2252.3565576993506
 20
899.13220393726772
 42
0
  0
VERTEX
  8
0
 10
2272.0776003324072
 20
972.7321375615353
 42
-0.32491970062255859
  0
VERTEX
  8
0
 10
2290.349397512583
 20
987.5283485657925
 42
0
  0
VERTEX
  8
0
 10
2320.3649691068213
 20
989.10139763424343
 42
-0.35411858558654785
  0
VERTEX
  8
0
 10
2340.7302187406103
 20
974.30518901417202
 42
-0
  0
VERTEX
  8
0
 10
2358.4803560697119
 20
908.06075465748256
 42
0.35411858558654785
  0
VERTEX
  8
0
 10
2378.8455904447119
 20
893.26455104420131
 42
-0
  0
SEQEND
  0
POLYLINE
  8
0
 10
0
 20
0
 39
0
 70
1
 66
1
  0
VERTEX
  8
0
 10
2292.5384615384619
 20
929.94901454517787
 42
1
  0
VERTEX
  8
0
 10
2320.5384615384619
 20
929.94901454517787
 42
1
  0
SEQEND
  0
POLYLINE
  8
0
 10
0
 20
0
 39
0
 70
1
 66
1
  0
VERTEX
  8
0
 10
2292.5384615384619
 20
609.94901454517787
 42
1
  0
VERTEX
  8
0
 10
2320.5384615384619
 20
609.94901454517787
 42
1
  0
SEQEND
  0
POLYLINE
  8
0
 10
0
 20
0
 39
0
 70
1
 66
1
  0
VERTEX
  8
0
 10
2218.1119302602915
 20
105.24251293961004
 42
-0.14499309659004211
  0
VERTEX
  8
0
 10
2212.5885690542368
 20
106.56855511490301
 42
-0
  0
VERTEX
  8
0
 10
2195.1538461538462
 20
116.63448834244207
 42
-0.26794919371604919
  0
VERTEX
  8
0
 10
2190.1538461538462
 20
125.29474377457097
 42
-0
  0
VERTEX
  8
0
 10
2190.1538461538462
 20
333.68023419205144
 42
-0.26794919371604919
  0
VERTEX
  8
0
 10
2195.1538461538462
 20
342.34048199478582
 42
0
  0
VERTEX
  8
0
 10
2212.5885690542368
 20
352.40639996353582
 42
-0.14499309659004211
  0
VERTEX
  8
0
 10
2218.1119150015024
 20
353.73244976822332
 42
0
  0
VERTEX
  8
0
 10
2235.8467172475962
 20
352.80300640884832
 42
0.35411858558654785
  0
VERTEX
  8
0
 10
2256.2119516225962
 20
367.59924053970769
 42
0
  0
VERTEX
  8
0
 10
2273.9621042104868
 20
433.84365582291082
 42
-0.35411858558654785
  0
VERTEX
  8
0
 10
2294.3273385854868
 20
448.63985943619207
 42
-0
  0
VERTEX
  8
0
 10
2324.3429101797251
 20
447.06683087173894
 42
-0.32491970062255859
  0
VERTEX
  8
0
 10
2342.6147073599009
 20
432.27059674087957
 42
-0
  0
VERTEX
  8
0
 10
2362.3357499929575
 20
358.67065167252019
 42
0.32491970062255859
  0
VERTEX
  8
0
 10
2380.6075471731333
 20
343.87447857681707
 42
0
  0
VERTEX
  8
0
 10
2407.2005647512583
 20
342.48080181900457
 42
-0.39895954728126526
  0
VERTEX
  8
0
 10
2426.1538461538462
 20
322.50820660416082
 42
-0
  0
VERTEX
  8
0
 10
2426.1538461538462
 20
136.46677899185613
 42
-0.39895954728126526
  0
VERTEX
  8
0
 10
2407.2005647512583
 20
116.49418377701238
 42
-0
  0
VERTEX
  8
0
 10
2380.6075471731333
 20
115.10049938980535
 42
0.32491970062255859
  0
VERTEX
  8
0
 10
2362.3357499929575
 20
100.3042957765241
 42
0
  0
VERTEX
  8
0
 10
2342.6147073599009
 20
26.704362152256522
 42
-0.32491970062255859
  0
VERTEX
  8
0
 10
2324.3429101797251
 20
11.908151147999318
 42
0
  0
VERTEX
  8
0
 10
2294.3273385854868
 20
10.33510207954839
 42
-0.35411858558654785
  0
VERTEX
  8
0
 10
2273.9620889516978
 20
25.131310699619803
 42
-0
  0
VERTEX
  8
0
 10
2256.2119516225962
 20
91.375745056309256
 42
0.35411858558654785
  0
VERTEX
  8
0
 10
2235.8467172475962
 20
106.17194866959051
 42
-0
  0
SEQEND
  0
POLYLINE
  8
0
 10
0
 20
0
 39
0
 70
1
 66
1
  0
VERTEX
  8
0
 10
2322.1538461538462
 20
69.487485168613944
 42
1
  0
VERTEX
  8
0
 10
2294.1538461538462
 20
69.487485168613944
 42
1
  0
SEQEND
  0
POLYLINE
  8
0
 10
0
 20
0
 39
0
 70
1
 66
1
  0
VERTEX
  8
0
 10
2322.1538461538462
 20
389.48748516861394
 42
1
  0
VERTEX
  8
0
 10
2294.1538461538462
 20
389.48748516861394
 42
1
  0
SEQEND
  0
POLYLINE
  8
0
 10
0
 20
0
 39
0
 70
1
 66
1
  0
VERTEX
  8
0
 10
2569.8880697397085
 20
621.65552523572023
 42
-0.14499309659004211
  0
VERTEX
  8
0
 10
2575.4114309457632
 20
620.32948306042726
 42
-0
  0
VERTEX
  8
0
 10
2592.8461538461538
 20
610.2635498328882
 42
-0.26794919371604919
  0
VERTEX
  8
0
 10
2597.8461538461538
 20
601.6032944007593
 42
-0
  0
VERTEX
  8
0
 10
2597.8461538461538
 20
393.21780398327888
 42
-0.26794919371604919
  0
VERTEX
  8
0
 10
2592.8461538461538
 20
384.55755618054445
 42
0
  0
VERTEX
  8
0
 10
2575.4114309457632
 20
374.49163821179445
 42
-0.14499309659004211
  0
VERTEX
  8
0
 10
2569.8880849984976
 20
373.16558840710695
 42
0
  0
VERTEX
  8
0
 10
2552.1532827524038
 20
374.09503176648195
 42
0.35411858558654785
  0
VERTEX
  8
0
 10
2531.7880483774038
 20
359.29879763562258
 42
0
  0
VERTEX
  8
0
 10
2514.0378957895132
 20
293.05438235241945
 42
-0.35411858558654785
  0
VERTEX
  8
0
 10
2493.6726614145132
 20
278.2581787391382
 42
-0
  0
VERTEX
  8
0
 10
2463.6570898202749
 20
279.83120730359133
 42
-0.32491970062255859
  0
VERTEX
  8
0
 10
2445.3852926400991
 20
294.6274414344507
 42
-0
  0
VERTEX
  8
0
 10
2425.6642500070425
 20
368.22738650281008
 42
0.32491970062255859
  0
VERTEX
  8
0
 10
2407.3924528268667
 20
383.0235595985132
 42
0
  0
VERTEX
  8
0
 10
2380.7994352487417
 20
384.4172363563257
 42
-0.39895954728126526
  0
VERTEX
  8
0
 10
2361.8461538461538
 20
404.38983157116945
 42
-0
  0
VERTEX
  8
0
 10
2361.8461538461538
 20
590.43125918347414
 42
-0.39895954728126526
  0
VERTEX
  8
0
 10
2380.7994352487417
 20
610.40385439831789
 42
-0
  0
VERTEX
  8
0
 10
2407.3924528268667
 20
611.79753878552492
 42
0.32491970062255859
  0
VERTEX
  8
0
 10
2425.6642500070425
 20
626.59374239880617
 42
0
  0
VERTEX
  8
0
 10
2445.3852926400991
 20
700.19367602307375
 42
-0.32491970062255859
  0
VERTEX
  8
0
 10
2463.6570898202749
 20
714.98988702733095
 42
0
  0
VERTEX
  8
0
 10
2493.6726614145132
 20
716.56293609578188
 42
-0.35411858558654785
  0
VERTEX
  8
0
 10
2514.0379110483022
 20
701.76672747571047
 42
-0
  0
VERTEX
  8
0
 10
2531.7880483774038
 20
635.52229311902101
 42
0.35411858558654785
  0
VERTEX
  8
0
 10
2552.1532827524038
 20
620.72608950573976
 42
-0
  0
SEQEND
  0
POLYLINE
  8
0
 10
0
 20
0
 39
0
 70
1
 66
1
  0
VERTEX
  8
0
 10
2465.8461538461538
 20
657.41055300671633
 42
1
  0
VERTEX
  8
0
 10
2493.8461538461538
 20
657.41055300671633
 42
1
  0
SEQEND
  0
POLYLINE
  8
0
 10
0
 20
0
 39
0
 70
1
 66
1
  0
VERTEX
  8
0
 10
2465.8461538461538
 20
337.41055300671633
 42
1
  0
VERTEX
  8
0
 10
2493.8461538461538
 20
337.41055300671633
 42
1
  0
SEQEND
  0
POLYLINE
  8
0
 10
0
 20
0
 39
0
 70
1
 66
1
  0
VERTEX
  8
0
 10
2742.9649928166318
 20
894.19398677418178
 42
-0.14499309659004211
  0
VERTEX
  8
0
 10
2748.4883540226865
 20
892.86794459888881
 42
-0
  0
VERTEX
  8
0
 10
2765.9230769230771
 20
882.80201137134975
 42
-0.26794919371604919
  0
VERTEX
  8
0
 10
2770.9230769230771
 20
874.14175593922084
 42
-0
  0
VERTEX
  8
0
 10
2770.9230769230771
 20
665.75626552174049
 42
-0.26794919371604919
  0
VERTEX
  8
0
 10
2765.9230769230771
 20
657.096017719006
 42
0
  0
VERTEX
  8
0
 10
2748.4883540226865
 20
647.030099750256
 42
-0.14499309659004211
  0
VERTEX
  8
0
 10
2742.9650080754209
 20
645.7040499455685
 42
0
  0
VERTEX
  8
0
 10
2725.2302058293271
 20
646.6334933049435
 42
0.35411858558654785
  0
VERTEX
  8
0
 10
2704.8649714543271
 20
631.83725917408412
 42
0
  0
VERTEX
  8
0
 10
2687.1148188664365
 20
565.592843890881
 42
-0.35411858558654785
  0
VERTEX
  8
0
 10
2666.7495844914365
 20
550.79664027759975
 42
-0
  0
VERTEX
  8
0
 10
2636.7340128971982
 20
552.36966884205287
 42
-0.32491970062255859
  0
VERTEX
  8
0
 10
2618.4622157170224
 20
567.16590297291225
 42
-0
  0
VERTEX
  8
0
 10
2598.7411730839658
 20
640.76584804127162
 42
0.32491970062255859
  0
VERTEX
  8
0
 10
2580.46937590379
 20
655.56202113697475
 42
0
  0
VERTEX
  8
0
 10
2553.876358325665
 20
656.95569789478725
 42
-0.39895954728126526
  0
VERTEX
  8
0
 10
2534.9230769230771
 20
676.928293109631
 42
-0
  0
VERTEX
  8
0
 10
2534.9230769230771
 20
862.96972072193569
 42
-0.39895954728126526
  0
VERTEX
  8
0
 10
2553.876358325665
 20
882.94231593677944
 42
-0
  0
VERTEX
  8
0
 10
2580.46937590379
 20
884.33600032398647
 42
0.32491970062255859
  0
VERTEX
  8
0
 10
2598.7411730839658
 20
899.13220393726772
 42
0
  0
VERTEX
  8
0
 10
2618.4622157170224
 20
972.7321375615353
 42
-0.32491970062255859
  0
VERTEX
  8
0
 10
2636.7340128971982
 20
987.5283485657925
 42
0
  0
VERTEX
  8
0
 10
2666.7495844914365
 20
989.10139763424343
 42
-0.35411858558654785
  0
VERTEX
  8
0
 10
2687.1148341252256
 20
974.30518901417202
 42
-0
  0
VERTEX
  8
0
 10
2704.8649714543271
 20
908.06075465748256
 42
0.35411858558654785
  0
VERTEX
  8
0
 10
2725.2302058293271
 20
893.26455104420131
 42
-0
  0
SEQEND
  0
POLYLINE
  8
0
 10
0
 20
0
 39
0
 70
1
 66
1
  0
VERTEX
  8
0
 10
2638.9230769230771
 20
929.94901454517787
 42
1
  0
VERTEX
  8
0
 10
2666.9230769230771
 20
929.94901454517787
 42
1
  0
SEQEND
  0
POLYLINE
  8
0
 10
0
 20
0
 39
0
 70
1
 66
1
  0
VERTEX
  8
0
 10
2638.9230769230771
 20
609.94901454517787
 42
1
  0
VERTEX
  8
0
 10
2666.9230769230771
 20
609.94901454517787
 42
1
  0
SEQEND
  0
POLYLINE
  8
0
 10
0
 20
0
 39
0
 70
1
 66
1
  0
VERTEX
  8
0
 10
2564.2657764141377
 20
105.24251293961004
 42
-0.14499309659004211
  0
VERTEX
  8
0
 10
2558.742415208083
 20
106.56855511490301
 42
-0
  0
VERTEX
  8
0
 10
2541.3076923076924
 20
116.63448834244207
 42
-0.26794919371604919
  0
VERTEX
  8
0
 10
2536.3076923076924
 20
125.29474377457097
 42
-0
  0
VERTEX
  8
0
 10
2536.3076923076924
 20
333.68023419205144
 42
-0.26794919371604919
  0
VERTEX
  8
0
 10
2541.3076923076924
 20
342.34048199478582
 42
0
  0
VERTEX
  8
0
 10
2558.742415208083
 20
352.40639996353582
 42
-0.14499309659004211
  0
VERTEX
  8
0
 10
2564.2657611553486
 20
353.73244976822332
 42
0
  0
VERTEX
  8
0
 10
2582.0005634014424
 20
352.80300640884832
 42
0.35411858558654785
  0
VERTEX
  8
0
 10
2602.3657977764424
 20
367.59924053970769
 42
0
  0
VERTEX
  8
0
 10
2620.115950364333
 20
433.84365582291082
 42
-0.35411858558654785
  0
VERTEX
  8
0
 10
2640.481184739333
 20
448.63985943619207
 42
-0
  0
VERTEX
  8
0
 10
2670.4967563335713
 20
447.06683087173894
 42
-0.32491970062255859
  0
VERTEX
  8
0
 10
2688.7685535137471
 20
432.27059674087957
 42
-0
  0
VERTEX
  8
0
 10
2708.4895961468037
 20
358.67065167252019
 42
0.32491970062255859
  0
VERTEX
  8
0
 10
2726.7613933269795
 20
343.87447857681707
 42
0
  0
VERTEX
  8
0
 10
2753.3544109051045
 20
342.48080181900457
 42
-0.39895954728126526
  0
VERTEX
  8
0
 10
2772.3076923076924
 20
322.50820660416082
 42
-0
  0
VERTEX
  8
0
 10
2772.3076923076924
 20
136.46677899185613
 42
-0.39895954728126526
  0
VERTEX
  8
0
 10
2753.3544109051045
 20
116.49418377701238
 42
-0
  0
VERTEX
  8
0
 10
2726.7613933269795
 20
115.10049938980535
 42
0.32491970062255859
  0
VERTEX
  8
0
 10
2708.4895961468037
 20
100.3042957765241
 42
0
  0
VERTEX
  8
0
 10
2688.7685535137471
 20
26.704362152256522
 42
-0.32491970062255859
  0
VERTEX
  8
0
 10
2670.4967563335713
 20
11.908151147999318
 42
0
  0
VERTEX
  8
0
 10
2640.481184739333
 20
10.33510207954839
 42
-0.35411858558654785
  0
VERTEX
  8
0
 10
2620.1159351055439
 20
25.131310699619803
 42
-0
  0
VERTEX
  8
0
 10
2602.3657977764424
 20
91.375745056309256
 42
0.35411858558654785
  0
VERTEX
  8
0
 10
2582.0005634014424
 20
106.17194866959051
 42
-0
  0
SEQEND
  0
POLYLINE
  8
0
 10
0
 20
0
 39
0
 70
1
 66
1
  0
VERTEX
  8
0
 10
2668.3076923076924
 20
69.487485168613944
 42
1
  0
VERTEX
  8
0
 10
2640.3076923076924
 20
69.487485168613944
 42
1
  0
SEQEND
  0
POLYLINE
  8
0
 10
0
 20
0
 39
0
 70
1
 66
1
  0
VERTEX
  8
0
 10
2668.3076923076924
 20
389.48748516861394
 42
1
  0
VERTEX
  8
0
 10
2640.3076923076924
 20
389.48748516861394
 42
1
  0
SEQEND
  0
POLYLINE
  8
0
 10
0
 20
0
 39
0
 70
1
 66
1
  0
VERTEX
  8
0
 10
2916.0419158935547
 20
621.65552523572023
 42
-0.14499309659004211
  0
VERTEX
  8
0
 10
2921.5652770996094
 20
620.32948306042726
 42
-0
  0
VERTEX
  8
0
 10
2939
 20
610.2635498328882
 42
-0.26794919371604919
  0
VERTEX
  8
0
 10
2944
 20
601.6032944007593
 42
-0
  0
VERTEX
  8
0
 10
2944
 20
393.21780398327888
 42
-0.26794919371604919
  0
VERTEX
  8
0
 10
2939
 20
384.55755618054445
 42
0
  0
VERTEX
  8
0
 10
2921.5652770996094
 20
374.49163821179445
 42
-0.14499309659004211
  0
VERTEX
  8
0
 10
2916.0419311523437
 20
373.16558840710695
 42
0
  0
VERTEX
  8
0
 10
2898.30712890625
 20
374.09503176648195
 42
0.35411858558654785
  0
VERTEX
  8
0
 10
2877.94189453125
 20
359.29879763562258
 42
0
  0
VERTEX
  8
0
 10
2860.1917419433594
 20
293.05438235241945
 42
-0.35411858558654785
  0
VERTEX
  8
0
 10
2839.8265075683594
 20
278.2581787391382
 42
-0
  0
VERTEX
  8
0
 10
2809.8109359741211
 20
279.83120730359133
 42
-0.32491970062255859
  0
VERTEX
  8
0
 10
2791.5391387939453
 20
294.6274414344507
 42
-0
  0
VERTEX
  8
0
 10
2771.8180961608887
 20
368.22738650281008
 42
0.32491970062255859
  0
VERTEX
  8
0
 10
2753.5462989807129
 20
383.0235595985132
 42
0
  0
VERTEX
  8
0
 10
2726.9532814025879
 20
384.4172363563257
 42
-0.39895954728126526
  0
VERTEX
  8
0
 10
2708
 20
404.38983157116945
 42
-0
  0
VERTEX
  8
0
 10
2708
 20
590.43125918347414
 42
-0.39895954728126526
  0
VERTEX
  8
0
 10
2726.9532814025879
 20
610.40385439831789
 42
-0
  0
VERTEX
  8
0
 10
2753.5462989807129
 20
611.79753878552492
 42
0.32491970062255859
  0
VERTEX
  8
0
 10
2771.8180961608887
 20
626.59374239880617
 42
0
  0
VERTEX
  8
0
 10
2791.5391387939453
 20
700.19367602307375
 42
-0.32491970062255859
  0
VERTEX
  8
0
 10
2809.8109359741211
 20
714.98988702733095
 42
0
  0
VERTEX
  8
0
 10
2839.8265075683594
 20
716.56293609578188
 42
-0.35411858558654785
  0
VERTEX
  8
0
 10
2860.1917572021484
 20
701.76672747571047
 42
-0
  0
VERTEX
  8
0
 10
2877.94189453125
 20
635.52229311902101
 42
0.35411858558654785
  0
VERTEX
  8
0
 10
2898.30712890625
 20
620.72608950573976
 42
-0
  0
SEQEND
  0
POLYLINE
  8
0
 10
0
 20
0
 39
0
 70
1
 66
1
  0
VERTEX
  8
0
 10
2812
 20
657.41055300671633
 42
1
  0
VERTEX
  8
0
 10
2840
 20
657.41055300671633
 42
1
  0
SEQEND
  0
POLYLINE
  8
0
 10
0
 20
0
 39
0
 70
1
 66
1
  0
VERTEX
  8
0
 10
2812
 20
337.41055300671633
 42
1
  0
VERTEX
  8
0
 10
2840
 20
337.41055300671633
 42
1
  0
SEQEND
  0
POLYLINE
  8
0
 10
0
 20
0
 39
0
 70
1
 66
1
  0
VERTEX
  8
0
 10
10.307692307692344
 20
912.53717785394861
 42
-0
  0
VERTEX
  8
0
 10
160.30769230769235
 20
912.53717785394861
 42
-0
  0
VERTEX
  8
0
 10
273.75703312800482
 20
847.03717785394861
 42
-0.97178131341934204
  0
VERTEX
  8
0
 10
245.26794316218454
 20
794.26005535639001
 42
0
  0
SEQEND
  0
POLYLINE
  8
0
 10
0
 20
0
 39
0
 70
1
 66
1
  0
VERTEX
  8
0
 10
176.30769230769235
 20
852.24999218500329
 42
1
  0
VERTEX
  8
0
 10
176.30769230769235
 20
884.24999027765466
 42
1
  0
SEQEND
  0
POLYLINE
  8
0
 10
0
 20
0
 39
0
 70
1
 66
1
  0
VERTEX
  8
0
 10
258.75701786921576
 20
805.05641918695642
 42
1
  0
VERTEX
  8
0
 10
258.75701786921576
 20
837.05641918695642
 42
1
  0
SEQEND
  0
POLYLINE
  8
0
 10
0
 20
0
 39
0
 70
1
 66
1
  0
VERTEX
  8
0
 10
288.75702961945188
 20
760.76923076923083
 42
-0
  0
VERTEX
  8
0
 10
138.75702961945188
 20
760.76923076923083
 42
-0
  0
VERTEX
  8
0
 10
25.307688799139385
 20
826.26923076923083
 42
-0.97178131341934204
  0
VERTEX
  8
0
 10
53.796778764959697
 20
879.04635326678942
 42
0
  0
SEQEND
  0
POLYLINE
  8
0
 10
0
 20
0
 39
0
 70
1
 66
1
  0
VERTEX
  8
0
 10
122.75702961945188
 20
821.05641643817614
 42
1
  0
VERTEX
  8
0
 10
122.75702961945188
 20
789.05641834552478
 42
1
  0
SEQEND
  0
POLYLINE
  8
0
 10
0
 20
0
 39
0
 70
1
 66
1
  0
VERTEX
  8
0
 10
40.307704057928447
 20
868.24998943622302
 42
1
  0
VERTEX
  8
0
 10
40.307704057928447
 20
836.24998943622302
 42
1
  0
SEQEND
  0
POLYLINE
  8
0
 10
0
 20
0
 39
0
 70
1
 66
1
  0
VERTEX
  8
0
 10
182.69230769230774
 20
989.6141009308717
 42
-0
  0
VERTEX
  8
0
 10
332.69230769230774
 20
989.6141009308717
 42
-0
  0
VERTEX
  8
0
 10
446.14164851262024
 20
924.1141009308717
 42
-0.97178131341934204
  0
VERTEX
  8
0
 10
417.65255854679992
 20
871.33697843331311
 42
0
  0
SEQEND
  0
POLYLINE
  8
0
 10
0
 20
0
 39
0
 70
1
 66
1
  0
VERTEX
  8
0
 10
348.69230769230774
 20
929.32691526192639
 42
1
  0
VERTEX
  8
0
 10
348.69230769230774
 20
961.32691335457775
 42
1
  0
SEQEND
  0
POLYLINE
  8
0
 10
0
 20
0
 39
0
 70
1
 66
1
  0
VERTEX
  8
0
 10
431.14163325383117
 20
882.13334226387951
 42
1
  0
VERTEX
  8
0
 10
431.14163325383117
 20
914.13334226387951
 42
1
  0
SEQEND
  0
POLYLINE
  8
0
 10
0
 20
0
 39
0
 70
1
 66
1
  0
VERTEX
  8
0
 10
461.1416450040673
 20
837.84615384615392
 42
-0
  0
VERTEX
  8
0
 10
311.1416450040673
 20
837.84615384615392
 42
-0
  0
VERTEX
  8
0
 10
197.6923041837548
 20
903.34615384615392
 42
-0.97178131341934204
  0
VERTEX
  8
0
 10
226.18139414957511
 20
956.12327634371252
 42
0
  0
SEQEND
  0
POLYLINE
  8
0
 10
0
 20
0
 39
0
 70
1
 66
1
  0
VERTEX
  8
0
 10
295.1416450040673
 20
898.13333951509924
 42
1
  0
VERTEX
  8
0
 10
295.1416450040673
 20
866.13334142244787
 42
1
  0
SEQEND
  0
POLYLINE
  8
0
 10
0
 20
0
 39
0
 70
1
 66
1
  0
VERTEX
  8
0
 10
212.69231944254386
 20
945.32691251314611
 42
1
  0
VERTEX
  8
0
 10
212.69231944254386
 20
913.32691251314611
 42
1
  0
SEQEND
  0
POLYLINE
  8
0
 10
0
 20
0
 39
0
 70
1
 66
1
  0
VERTEX
  8
0
 10
462.84615384615392
 20
923.6141009308717
 42
-0
  0
VERTEX
  8
0
 10
612.84615384615392
 20
923.6141009308717
 42
-0
  0
VERTEX
  8
0
 10
726.29549466646642
 20
858.1141009308717
 42
-0.97178131341934204
  0
VERTEX
  8
0
 10
697.80640470064611
 20
805.33697843331311
 42
0
  0
SEQEND
  0
POLYLINE
  8
0
 10
0
 20
0
 39
0
 70
1
 66
1
  0
VERTEX
  8
0
 10
628.84615384615392
 20
863.32691526192639
 42
1
  0
VERTEX
  8
0
 10
628.84615384615392
 20
895.32691335457775
 42
1
  0
SEQEND
  0
POLYLINE
  8
0
 10
0
 20
0
 39
0
 70
1
 66
1
  0
VERTEX
  8
0
 10
711.29547940767736
 20
816.13334226387951
 42
1
  0
VERTEX
  8
0
 10
711.29547940767736
 20
848.13334226387951
 42
1
  0
SEQEND
  0
POLYLINE
  8
0
 10
0
 20
0
 39
0
 70
1
 66
1
  0
VERTEX
  8
0
 10
741.29549115791349
 20
771.84615384615392
 42
-0
  0
VERTEX
  8
0
 10
591.29549115791349
 20
771.84615384615392
 42
-0
  0
VERTEX
  8
0
 10
477.84615033760099
 20
837.34615384615392
 42
-0.97178131341934204
  0
VERTEX
  8
0
 10
506.3352403034213
 20
890.12327634371252
 42
0
  0
SEQEND
  0
POLYLINE
  8
0
 10
0
 20
0
 39
0
 70
1
 66
1
  0
VERTEX
  8
0
 10
575.29549115791349
 20
832.13333951509924
 42
1
  0
VERTEX
  8
0
 10
575.29549115791349
 20
800.13334142244787
 42
1
  0
SEQEND
  0
POLYLINE
  8
0
 10
0
 20
0
 39
0
 70
1
 66
1
  0
VERTEX
  8
0
 10
492.84616559639005
 20
879.32691251314611
 42
1
  0
VERTEX
  8
0
 10
492.84616559639005
 20
847.32691251314611
 42
1
  0
SEQEND
  0
POLYLINE
  8
0
 10
0
 20
0
 39
0
 70
1
 66
1
  0
VERTEX
  8
0
 10
654.38461538461547
 20
989.6141009308717
 42
-0
  0
VERTEX
  8
0
 10
804.38461538461547
 20
989.6141009308717
 42
-0
  0
VERTEX
  8
0
 10
917.83395620492797
 20
924.1141009308717
 42
-0.97178131341934204
  0
VERTEX
  8
0
 10
889.34486623910766
 20
871.33697843331311
 42
0
  0
SEQEND
  0
POLYLINE
  8
0
 10
0
 20
0
 39
0
 70
1
 66
1
  0
VERTEX
  8
0
 10
820.38461538461547
 20
929.32691526192639
 42
1
  0
VERTEX
  8
0
 10
820.38461538461547
 20
961.32691335457775
 42
1
  0
SEQEND
  0
POLYLINE
  8
0
 10
0
 20
0
 39
0
 70
1
 66
1
  0
VERTEX
  8
0
 10
902.83394094613891
 20
882.13334226387951
 42
1
  0
VERTEX
  8
0
 10
902.83394094613891
 20
914.13334226387951
 42
1
  0
SEQEND
  0
POLYLINE
  8
0
 10
0
 20
0
 39
0
 70
1
 66
1
  0
VERTEX
  8
0
 10
932.83395269637504
 20
837.84615384615392
 42
-0
  0
VERTEX
  8
0
 10
782.83395269637504
 20
837.84615384615392
 42
-0
  0
VERTEX
  8
0
 10
669.38461187606254
 20
903.34615384615392
 42
-0.97178131341934204
  0
VERTEX
  8
0
 10
697.87370184188285
 20
956.12327634371252
 42
0
  0
SEQEND
  0
POLYLINE
  8
0
 10
0
 20
0
 39
0
 70
1
 66
1
  0
VERTEX
  8
0
 10
766.83395269637504
 20
898.13333951509924
 42
1
  0
VERTEX
  8
0
 10
766.83395269637504
 20
866.13334142244787
 42
1
  0
SEQEND
  0
POLYLINE
  8
0
 10
0
 20
0
 39
0
 70
1
 66
1
  0
VERTEX
  8
0
 10
684.3846271348516
 20
945.32691251314611
 42
1
  0
VERTEX
  8
0
 10
684.3846271348516
 20
913.32691251314611
 42
1
  0
SEQEND
  0
POLYLINE
  8
0
 10
0
 20
0
 39
0
 70
1
 66
1
  0
VERTEX
  8
0
 10
934.53846153846155
 20
923.6141009308717
 42
-0
  0
VERTEX
  8
0
 10
1084.5384615384614
 20
923.6141009308717
 42
-0
  0
VERTEX
  8
0
 10
1197.9878023587739
 20
858.1141009308717
 42
-0.97178131341934204
  0
VERTEX
  8
0
 10
1169.4987123929536
 20
805.33697843331311
 42
0
  0
SEQEND
  0
POLYLINE
  8
0
 10
0
 20
0
 39
0
 70
1
 66
1
  0
VERTEX
  8
0
 10
1100.5384615384614
 20
863.32691526192639
 42
1
  0
VERTEX
  8
0
 10
1100.5384615384614
 20
895.32691335457775
 42
1
  0
SEQEND
  0
POLYLINE
  8
0
 10
0
 20
0
 39
0
 70
1
 66
1
  0
VERTEX
  8
0
 10
1182.9877870999849
 20
816.13334226387951
 42
1
  0
VERTEX
  8
0
 10
1182.9877870999849
 20
848.13334226387951
 42
1
  0
SEQEND
  0
POLYLINE
  8
0
 10
0
 20
0
 39
0
 70
1
 66
1
  0
VERTEX
  8
0
 10
1212.9877988502212
 20
771.84615384615392
 42
-0
  0
VERTEX
  8
0
 10
1062.9877988502212
 20
771.84615384615392
 42
-0
  0
VERTEX
  8
0
 10
949.53845802990872
 20
837.34615384615392
 42
-0.97178131341934204
  0
VERTEX
  8
0
 10
978.02754799572904
 20
890.12327634371252
 42
0
  0
SEQEND
  0
POLYLINE
  8
0
 10
0
 20
0
 39
0
 70
1
 66
1
  0
VERTEX
  8
0
 10
1046.9877988502212
 20
832.13333951509924
 42
1
  0
VERTEX
  8
0
 10
1046.9877988502212
 20
800.13334142244787
 42
1
  0
SEQEND
  0
POLYLINE
  8
0
 10
0
 20
0
 39
0
 70
1
 66
1
  0
VERTEX
  8
0
 10
964.53847328869779
 20
879.32691251314611
 42
1
  0
VERTEX
  8
0
 10
964.53847328869779
 20
847.32691251314611
 42
1
  0
SEQEND
  0
POLYLINE
  8
0
 10
0
 20
0
 39
0
 70
1
 66
1
  0
VERTEX
  8
0
 10
1993.3076923076924
 20
10.307692307692337
 42
-0
  0
VERTEX
  8
0
 10
1993.3076923076924
 20
160.30769230769235
 42
-0
  0
VERTEX
  8
0
 10
2058.8076923076924
 20
273.75703312800482
 42
-0.97178131341934204
  0
VERTEX
  8
0
 10
2111.584814805251
 20
245.26794316218454
 42
0
  0
SEQEND
  0
POLYLINE
  8
0
 10
0
 20
0
 39
0
 70
1
 66
1
  0
VERTEX
  8
0
 10
2053.5948779766377
 20
176.30769230769235
 42
1
  0
VERTEX
  8
0
 10
2021.5948798839863
 20
176.30769230769235
 42
1
  0
SEQEND
  0
POLYLINE
  8
0
 10
0
 20
0
 39
0
 70
1
 66
1
  0
VERTEX
  8
0
 10
2100.7884509746846
 20
258.75701786921576
 42
1
  0
VERTEX
  8
0
 10
2068.7884509746846
 20
258.75701786921576
 42
1
  0
SEQEND
  0
POLYLINE
  8
0
 10
0
 20
0
 39
0
 70
1
 66
1
  0
VERTEX
  8
0
 10
2145.0756393924103
 20
288.75702961945188
 42
-0
  0
VERTEX
  8
0
 10
2145.0756393924103
 20
138.75702961945188
 42
-0
  0
VERTEX
  8
0
 10
2079.5756393924103
 20
25.307688799139385
 42
-0.97178131341934204
  0
VERTEX
  8
0
 10
2026.7985168948517
 20
53.796778764959726
 42
0
  0
SEQEND
  0
POLYLINE
  8
0
 10
0
 20
0
 39
0
 70
1
 66
1
  0
VERTEX
  8
0
 10
2084.788453723465
 20
122.75702961945188
 42
1
  0
VERTEX
  8
0
 10
2116.7884518161163
 20
122.75702961945188
 42
1
  0
SEQEND
  0
POLYLINE
  8
0
 10
0
 20
0
 39
0
 70
1
 66
1
  0
VERTEX
  8
0
 10
2037.5948807254181
 20
40.307704057928447
 42
1
  0
VERTEX
  8
0
 10
2069.5948807254181
 20
40.307704057928447
 42
1
  0
SEQEND
  0
POLYLINE
  8
0
 10
0
 20
0
 39
0
 70
1
 66
1
  0
VERTEX
  8
0
 10
1292.1538270803599
 20
989.46152701744677
 42
0
  0
VERTEX
  8
0
 10
1340.1538461538462
 20
989.46153846153857
 42
0
  0
VERTEX
  8
0
 10
1340.1538461538462
 20
949.46153846153857
 42
0
  0
VERTEX
  8
0
 10
1292.1538461538462
 20
929.46153846153857
 42
0
  0
VERTEX
  8
0
 10
1098.1538461538462
 20
929.46153846153857
 42
0
  0
VERTEX
  8
0
 10
1050.1538461538462
 20
949.46153846153857
 42
0
  0
VERTEX
  8
0
 10
1050.1538461538462
 20
989.46153846153857
 42
0
  0
VERTEX
  8
0
 10
1098.1538461538462
 20
989.46153846153857
 42
0.19762420654296875
  0
SEQEND
  0
POLYLINE
  8
0
 10
0
 20
0
 39
0
 70
1
 66
1
  0
VERTEX
  8
0
 10
1141.1538461538462
 20
944.46153846153857
 42
1
  0
VERTEX
  8
0
 10
1129.1538461538462
 20
944.46153846153857
 42
1
  0
SEQEND
  0
POLYLINE
  8
0
 10
0
 20
0
 39
0
 70
1
 66
1
  0
VERTEX
  8
0
 10
1261.1538461538462
 20
944.46153846153857
 42
1
  0
VERTEX
  8
0
 10
1249.1538461538462
 20
944.46153846153857
 42
1
  0
SEQEND
  0
POLYLINE
  8
0
 10
0
 20
0
 39
0
 70
1
 66
1
  0
VERTEX
  8
0
 10
1314.6153960594766
 20
561.53844246497522
 42
0
  0
VERTEX
  8
0
 10
1314.6153846153848
 20
609.53846153846155
 42
0
  0
VERTEX
  8
0
 10
1354.6153846153848
 20
609.53846153846155
 42
0
  0
VERTEX
  8
0
 10
1374.6153846153848
 20
561.53846153846155
 42
0
  0
VERTEX
  8
0
 10
1374.6153846153848
 20
367.53846153846155
 42
0
  0
VERTEX
  8
0
 10
1354.6153846153848
 20
319.53846153846155
 42
0
  0
VERTEX
  8
0
 10
1314.6153846153848
 20
319.53846153846155
 42
0
  0
VERTEX
  8
0
 10
1314.6153846153848
 20
367.53846153846155
 42
0.19762420654296875
  0
SEQEND
  0
POLYLINE
  8
0
 10
0
 20
0
 39
0
 70
1
 66
1
  0
VERTEX
  8
0
 10
1359.6153846153848
 20
410.53846153846155
 42
1
  0
VERTEX
  8
0
 10
1359.6153846153848
 20
398.53846153846155
 42
1
  0
SEQEND
  0
POLYLINE
  8
0
 10
0
 20
0
 39
0
 70
1
 66
1
  0
VERTEX
  8
0
 10
1359.6153846153848
 20
530.53846153846155
 42
1
  0
VERTEX
  8
0
 10
1359.6153846153848
 20
518.53846153846155
 42
1
  0
SEQEND
  0
POLYLINE
  8
0
 10
0
 20
0
 39
0
 70
1
 66
1
  0
VERTEX
  8
0
 10
1615.7692422133227
 20
912.53844246497522
 42
0
  0
VERTEX
  8
0
 10
1615.7692307692309
 20
960.53846153846155
 42
0
  0
VERTEX
  8
0
 10
1655.7692307692309
 20
960.53846153846155
 42
0
  0
VERTEX
  8
0
 10
1675.7692307692309
 20
912.53846153846155
 42
0
  0
VERTEX
  8
0
 10
1675.7692307692309
 20
718.53846153846155
 42
0
  0
VERTEX
  8
0
 10
1655.7692307692309
 20
670.53846153846155
 42
0
  0
VERTEX
  8
0
 10
1615.7692307692309
 20
670.53846153846155
 42
0
  0
VERTEX
  8
0
 10
1615.7692307692309
 20
718.53846153846155
 42
0.19762420654296875
  0
SEQEND
  0
POLYLINE
  8
0
 10
0
 20
0
 39
0
 70
1
 66
1
  0
VERTEX
  8
0
 10
1660.7692307692309
 20
761.53846153846155
 42
1
  0
VERTEX
  8
0
 10
1660.7692307692309
 20
749.53846153846155
 42
1
  0
SEQEND
  0
POLYLINE
  8
0
 10
0
 20
0
 39
0
 70
1
 66
1
  0
VERTEX
  8
0
 10
1660.7692307692309
 20
881.53846153846155
 42
1
  0
VERTEX
  8
0
 10
1660.7692307692309
 20
869.53846153846155
 42
1
  0
SEQEND
  0
POLYLINE
  8
0
 10
0
 20
0
 39
0
 70
1
 66
1
  0
VERTEX
  8
0
 10
2166.846142402062
 20
723.84617291964025
 42
0
  0
VERTEX
  8
0
 10
2166.8461538461538
 20
675.84615384615392
 42
0
  0
VERTEX
  8
0
 10
2126.8461538461538
 20
675.84615384615392
 42
0
  0
VERTEX
  8
0
 10
2106.8461538461538
 20
723.84615384615392
 42
0
  0
VERTEX
  8
0
 10
2106.8461538461538
 20
917.84615384615392
 42
0
  0
VERTEX
  8
0
 10
2126.8461538461538
 20
965.84615384615392
 42
0
  0
VERTEX
  8
0
 10
2166.8461538461538
 20
965.84615384615392
 42
0
  0
VERTEX
  8
0
 10
2166.8461538461538
 20
917.84615384615392
 42
0.19762420654296875
  0
SEQEND
  0
POLYLINE
  8
0
 10
0
 20
0
 39
0
 70
1
 66
1
  0
VERTEX
  8
0
 10
2121.8461538461538
 20
874.84615384615392
 42
1
  0
VERTEX
  8
0
 10
2121.8461538461538
 20
886.84615384615392
 42
1
  0
SEQEND
  0
POLYLINE
  8
0
 10
0
 20
0
 39
0
 70
1
 66
1
  0
VERTEX
  8
0
 10
2121.8461538461538
 20
754.84615384615392
 42
1
  0
VERTEX
  8
0
 10
2121.8461538461538
 20
766.84615384615392
 42
1
  0
SEQEND
  0
POLYLINE
  8
0
 10
0
 20
0
 39
0
 70
1
 66
1
  0
VERTEX
  8
0
 10
2912.9230654789853
 20
747.3846344581018
 42
0
  0
VERTEX
  8
0
 10
2912.9230769230771
 20
699.38461538461547
 42
0
  0
VERTEX
  8
0
 10
2872.9230769230771
 20
699.38461538461547
 42
0
  0
VERTEX
  8
0
 10
2852.9230769230771
 20
747.38461538461547
 42
0
  0
VERTEX
  8
0
 10
2852.9230769230771
 20
941.38461538461547
 42
0
  0
VERTEX
  8
0
 10
2872.9230769230771
 20
989.38461538461547
 42
0
  0
VERTEX
  8
0
 10
2912.9230769230771
 20
989.38461538461547
 42
0
  0
VERTEX
  8
0
 10
2912.9230769230771
 20
941.38461538461547
 42
0.19762420654296875
  0
SEQEND
  0
POLYLINE
  8
0
 10
0
 20
0
 39
0
 70
1
 66
1
  0
VERTEX
  8
0
 10
2867.9230769230771
 20
898.38461538461547
 42
1
  0
VERTEX
  8
0
 10
2867.9230769230771
 20
910.38461538461547
 42
1
  0
SEQEND
  0
POLYLINE
  8
0
 10
0
 20
0
 39
0
 70
1
 66
1
  0
VERTEX
  8
0
 10
2867.9230769230771
 20
778.38461538461547
 42
1
  0
VERTEX
  8
0
 10
2867.9230769230771
 20
790.38461538461547
 42
1
  0
SEQEND
  0
POLYLINE
  8
0
 10
0
 20
0
 39
0
 70
1
 66
1
  0
VERTEX
  8
0
 10
2914.9999885559082
 20
58.307711381178642
 42
0
  0
VERTEX
  8
0
 10
2915
 20
10.30769230769231
 42
0
  0
VERTEX
  8
0
 10
2875
 20
10.307692307692308
 42
0
  0
VERTEX
  8
0
 10
2855
 20
58.307692307692307
 42
0
  0
VERTEX
  8
0
 10
2855
 20
252.30769230769232
 42
0
  0
VERTEX
  8
0
 10
2875
 20
300.30769230769232
 42
0
  0
VERTEX
  8
0
 10
2915
 20
300.30769230769232
 42
0
  0
VERTEX
  8
0
 10
2915
 20
252.30769230769232
 42
0.19762420654296875
  0
SEQEND
  0
POLYLINE
  8
0
 10
0
 20
0
 39
0
 70
1
 66
1
  0
VERTEX
  8
0
 10
2870
 20
209.30769230769232
 42
1
  0
VERTEX
  8
0
 10
2870
 20
221.30769230769232
 42
1
  0
SEQEND
  0
POLYLINE
  8
0
 10
0
 20
0
 39
0
 70
1
 66
1
  0
VERTEX
  8
0
 10
2870
 20
89.307692307692307
 42
1
  0
VERTEX
  8
0
 10
2870
 20
101.30769230769231
 42
1
  0
SEQEND
  0
POLYLINE
  8
0
 10
0
 20
0
 39
0
 70
1
 66
1
  0
VERTEX
  8
0
 10
2917.0769345210151
 20
873.99998092651367
 42
0
  0
VERTEX
  8
0
 10
2917.0769230769233
 20
922
 42
0
  0
VERTEX
  8
0
 10
2957.0769230769233
 20
922
 42
0
  0
VERTEX
  8
0
 10
2977.0769230769233
 20
874
 42
0
  0
VERTEX
  8
0
 10
2977.0769230769233
 20
680
 42
0
  0
VERTEX
  8
0
 10
2957.0769230769233
 20
632
 42
0
  0
VERTEX
  8
0
 10
2917.0769230769233
 20
632
 42
0
  0
VERTEX
  8
0
 10
2917.0769230769233
 20
680
 42
0.19762420654296875
  0
SEQEND
  0
POLYLINE
  8
0
 10
0
 20
0
 39
0
 70
1
 66
1
  0
VERTEX
  8
0
 10
2962.0769230769233
 20
723
 42
1
  0
VERTEX
  8
0
 10
2962.0769230769233
 20
711
 42
1
  0
SEQEND
  0
POLYLINE
  8
0
 10
0
 20
0
 39
0
 70
1
 66
1
  0
VERTEX
  8
0
 10
2962.0769230769233
 20
843
 42
1
  0
VERTEX
  8
0
 10
2962.0769230769233
 20
831
 42
1
  0
SEQEND
  0
POLYLINE
  8
0
 10
0
 20
0
 39
0
 70
1
 66
1
  0
VERTEX
  8
0
 10
2920.7692422133227
 20
314.84613477266754
 42
0
  0
VERTEX
  8
0
 10
2920.7692307692309
 20
362.84615384615387
 42
0
  0
VERTEX
  8
0
 10
2960.7692307692309
 20
362.84615384615387
 42
0
  0
VERTEX
  8
0
 10
2980.7692307692309
 20
314.84615384615387
 42
0
  0
VERTEX
  8
0
 10
2980.7692307692309
 20
120.84615384615387
 42
0
  0
VERTEX
  8
0
 10
2960.7692307692309
 20
72.846153846153868
 42
0
  0
VERTEX
  8
0
 10
2920.7692307692309
 20
72.846153846153868
 42
0
  0
VERTEX
  8
0
 10
2920.7692307692309
 20
120.84615384615387
 42
0.19762420654296875
  0
SEQEND
  0
POLYLINE
  8
0
 10
0
 20
0
 39
0
 70
1
 66
1
  0
VERTEX
  8
0
 10
2965.7692307692309
 20
163.84615384615387
 42
1
  0
VERTEX
  8
0
 10
2965.7692307692309
 20
151.84615384615387
 42
1
  0
SEQEND
  0
POLYLINE
  8
0
 10
0
 20
0
 39
0
 70
1
 66
1
  0
VERTEX
  8
0
 10
2965.7692307692309
 20
283.84615384615387
 42
1
  0
VERTEX
  8
0
 10
2965.7692307692309
 20
271.84615384615387
 42
1
  0
SEQEND
  0
POLYLINE
  8
0
 10
0
 20
0
 39
0
 70
1
 66
1
  0
VERTEX
  8
0
 10
165.30769230769232
 20
922.53846153846155
 42
0
  0
VERTEX
  8
0
 10
10.307692307692321
 20
922.53846153846155
 42
0
  0
VERTEX
  8
0
 10
10.307692307692321
 20
972.53846153846155
 42
0
  0
VERTEX
  8
0
 10
165.30769230769232
 20
972.53846153846155
 42
0
  0
SEQEND
  0
POLYLINE
  8
0
 10
0
 20
0
 39
0
 70
1
 66
1
  0
VERTEX
  8
0
 10
145.55769230769232
 20
947.53846153846155
 42
1
  0
VERTEX
  8
0
 10
125.05769230769232
 20
947.53846153846155
 42
1
  0
SEQEND
  0
POLYLINE
  8
0
 10
0
 20
0
 39
0
 70
1
 66
1
  0
VERTEX
  8
0
 10
50.557692307692321
 20
947.53846153846155
 42
1
  0
VERTEX
  8
0
 10
30.057692307692321
 20
947.53846153846155
 42
1
  0
SEQEND
  0
POLYLINE
  8
0
 10
0
 20
0
 39
0
 70
1
 66
1
  0
VERTEX
  8
0
 10
453.76923076923077
 20
764.46153846153857
 42
0
  0
VERTEX
  8
0
 10
298.76923076923077
 20
764.46153846153857
 42
0
  0
VERTEX
  8
0
 10
298.76923076923077
 20
814.46153846153857
 42
0
  0
VERTEX
  8
0
 10
453.76923076923077
 20
814.46153846153857
 42
0
  0
SEQEND
  0
POLYLINE
  8
0
 10
0
 20
0
 39
0
 70
1
 66
1
  0
VERTEX
  8
0
 10
434.01923076923077
 20
789.46153846153857
 42
1
  0
VERTEX
  8
0
 10
413.51923076923077
 20
789.46153846153857
 42
1
  0
SEQEND
  0
POLYLINE
  8
0
 10
0
 20
0
 39
0
 70
1
 66
1
  0
VERTEX
  8
0
 10
339.01923076923077
 20
789.46153846153857
 42
1
  0
VERTEX
  8
0
 10
318.51923076923077
 20
789.46153846153857
 42
1
  0
SEQEND
  0
POLYLINE
  8
0
 10
0
 20
0
 39
0
 70
1
 66
1
  0
VERTEX
  8
0
 10
595.92307692307691
 20
939.38461538461547
 42
0
  0
VERTEX
  8
0
 10
440.92307692307691
 20
939.38461538461547
 42
0
  0
VERTEX
  8
0
 10
440.92307692307691
 20
989.38461538461547
 42
0
  0
VERTEX
  8
0
 10
595.92307692307691
 20
989.38461538461547
 42
0
  0
SEQEND
  0
POLYLINE
  8
0
 10
0
 20
0
 39
0
 70
1
 66
1
  0
VERTEX
  8
0
 10
576.17307692307691
 20
964.38461538461547
 42
1
  0
VERTEX
  8
0
 10
555.67307692307691
 20
964.38461538461547
 42
1
  0
SEQEND
  0
POLYLINE
  8
0
 10
0
 20
0
 39
0
 70
1
 66
1
  0
VERTEX
  8
0
 10
481.17307692307691
 20
964.38461538461547
 42
1
  0
VERTEX
  8
0
 10
460.67307692307691
 20
964.38461538461547
 42
1
  0
SEQEND
  0
POLYLINE
  8
0
 10
0
 20
0
 39
0
 70
1
 66
1
  0
VERTEX
  8
0
 10
906.30769230769238
 20
775.53846153846155
 42
0
  0
VERTEX
  8
0
 10
751.30769230769238
 20
775.53846153846155
 42
0
  0
VERTEX
  8
0
 10
751.30769230769238
 20
825.53846153846155
 42
0
  0
VERTEX
  8
0
 10
906.30769230769238
 20
825.53846153846155
 42
0
  0
SEQEND
  0
POLYLINE
  8
0
 10
0
 20
0
 39
0
 70
1
 66
1
  0
VERTEX
  8
0
 10
886.55769230769238
 20
800.53846153846155
 42
1
  0
VERTEX
  8
0
 10
866.05769230769238
 20
800.53846153846155
 42
1
  0
SEQEND
  0
POLYLINE
  8
0
 10
0
 20
0
 39
0
 70
1
 66
1
  0
VERTEX
  8
0
 10
791.55769230769238
 20
800.53846153846155
 42
1
  0
VERTEX
  8
0
 10
771.05769230769238
 20
800.53846153846155
 42
1
  0
SEQEND
  0
POLYLINE
  8
0
 10
0
 20
0
 39
0
 70
1
 66
1
  0
VERTEX
  8
0
 10
1223.2307692307693
 20
760.76923076923083
 42
0
  0
VERTEX
  8
0
 10
1223.2307692307693
 20
915.76923076923083
 42
0
  0
VERTEX
  8
0
 10
1273.2307692307693
 20
915.76923076923083
 42
0
  0
VERTEX
  8
0
 10
1273.2307692307693
 20
760.76923076923083
 42
0
  0
SEQEND
  0
POLYLINE
  8
0
 10
0
 20
0
 39
0
 70
1
 66
1
  0
VERTEX
  8
0
 10
1248.2307692307693
 20
780.51923076923083
 42
1
  0
VERTEX
  8
0
 10
1248.2307692307693
 20
801.01923076923083
 42
1
  0
SEQEND
  0
POLYLINE
  8
0
 10
0
 20
0
 39
0
 70
1
 66
1
  0
VERTEX
  8
0
 10
1248.2307692307693
 20
875.51923076923083
 42
1
  0
VERTEX
  8
0
 10
1248.2307692307693
 20
896.01923076923083
 42
1
  0
SEQEND
  0
POLYLINE
  8
0
 10
0
 20
0
 39
0
 70
1
 66
1
  0
VERTEX
  8
0
 10
1385
 20
371.69230769230774
 42
0
  0
VERTEX
  8
0
 10
1385
 20
526.69230769230774
 42
0
  0
VERTEX
  8
0
 10
1435
 20
526.69230769230774
 42
0
  0
VERTEX
  8
0
 10
1435
 20
371.69230769230774
 42
0
  0
SEQEND
  0
POLYLINE
  8
0
 10
0
 20
0
 39
0
 70
1
 66
1
  0
VERTEX
  8
0
 10
1410
 20
391.44230769230774
 42
1
  0
VERTEX
  8
0
 10
1410
 20
411.94230769230774
 42
1
  0
SEQEND
  0
POLYLINE
  8
0
 10
0
 20
0
 39
0
 70
1
 66
1
  0
VERTEX
  8
0
 10
1410
 20
486.44230769230774
 42
1
  0
VERTEX
  8
0
 10
1410
 20
506.94230769230774
 42
1
  0
SEQEND
  0
POLYLINE
  8
0
 10
0
 20
0
 39
0
 70
1
 66
1
  0
VERTEX
  8
0
 10
1445.4615384615386
 20
380.46153846153851
 42
0
  0
VERTEX
  8
0
 10
1445.4615384615386
 20
535.46153846153857
 42
0
  0
VERTEX
  8
0
 10
1495.4615384615386
 20
535.46153846153857
 42
0
  0
VERTEX
  8
0
 10
1495.4615384615386
 20
380.46153846153851
 42
0
  0
SEQEND
  0
POLYLINE
  8
0
 10
0
 20
0
 39
0
 70
1
 66
1
  0
VERTEX
  8
0
 10
1470.4615384615386
 20
400.21153846153851
 42
1
  0
VERTEX
  8
0
 10
1470.4615384615386
 20
420.71153846153851
 42
1
  0
SEQEND
  0
POLYLINE
  8
0
 10
0
 20
0
 39
0
 70
1
 66
1
  0
VERTEX
  8
0
 10
1470.4615384615386
 20
495.21153846153851
 42
1
  0
VERTEX
  8
0
 10
1470.4615384615386
 20
515.71153846153857
 42
1
  0
SEQEND
  0
POLYLINE
  8
0
 10
0
 20
0
 39
0
 70
1
 66
1
  0
VERTEX
  8
0
 10
1538.1538461538462
 20
568.76923076923083
 42
0
  0
VERTEX
  8
0
 10
1383.1538461538462
 20
568.76923076923083
 42
0
  0
VERTEX
  8
0
 10
1383.1538461538462
 20
618.76923076923083
 42
0
  0
VERTEX
  8
0
 10
1538.1538461538462
 20
618.76923076923083
 42
0
  0
SEQEND
  0
POLYLINE
  8
0
 10
0
 20
0
 39
0
 70
1
 66
1
  0
VERTEX
  8
0
 10
1518.4038461538462
 20
593.76923076923083
 42
1
  0
VERTEX
  8
0
 10
1497.9038461538462
 20
593.76923076923083
 42
1
  0
SEQEND
  0
POLYLINE
  8
0
 10
0
 20
0
 39
0
 70
1
 66
1
  0
VERTEX
  8
0
 10
1423.4038461538462
 20
593.76923076923083
 42
1
  0
VERTEX
  8
0
 10
1402.9038461538462
 20
593.76923076923083
 42
1
  0
SEQEND
  0
POLYLINE
  8
0
 10
0
 20
0
 39
0
 70
1
 66
1
  0
VERTEX
  8
0
 10
1505.9230769230771
 20
380.46153846153851
 42
0
  0
VERTEX
  8
0
 10
1505.9230769230771
 20
535.46153846153857
 42
0
  0
VERTEX
  8
0
 10
1555.9230769230771
 20
535.46153846153857
 42
0
  0
VERTEX
  8
0
 10
1555.9230769230771
 20
380.46153846153851
 42
0
  0
SEQEND
  0
POLYLINE
  8
0
 10
0
 20
0
 39
0
 70
1
 66
1
  0
VERTEX
  8
0
 10
1530.9230769230771
 20
400.21153846153851
 42
1
  0
VERTEX
  8
0
 10
1530.9230769230771
 20
420.71153846153851
 42
1
  0
SEQEND
  0
POLYLINE
  8
0
 10
0
 20
0
 39
0
 70
1
 66
1
  0
VERTEX
  8
0
 10
1530.9230769230771
 20
495.21153846153851
 42
1
  0
VERTEX
  8
0
 10
1530.9230769230771
 20
515.71153846153857
 42
1
  0
SEQEND
  0
POLYLINE
  8
0
 10
0
 20
0
 39
0
 70
1
 66
1
  0
VERTEX
  8
0
 10
2190.1538461538462
 20
364.07692307692309
 42
0
  0
VERTEX
  8
0
 10
2190.1538461538462
 20
519.07692307692309
 42
0
  0
VERTEX
  8
0
 10
2240.1538461538462
 20
519.07692307692309
 42
0
  0
VERTEX
  8
0
 10
2240.1538461538462
 20
364.07692307692309
 42
0
  0
SEQEND
  0
POLYLINE
  8
0
 10
0
 20
0
 39
0
 70
1
 66
1
  0
VERTEX
  8
0
 10
2215.1538461538462
 20
383.82692307692309
 42
1
  0
VERTEX
  8
0
 10
2215.1538461538462
 20
404.32692307692309
 42
1
  0
SEQEND
  0
POLYLINE
  8
0
 10
0
 20
0
 39
0
 70
1
 66
1
  0
VERTEX
  8
0
 10
2215.1538461538462
 20
478.82692307692309
 42
1
  0
VERTEX
  8
0
 10
2215.1538461538462
 20
499.32692307692309
 42
1
  0
SEQEND
  0
POLYLINE
  8
0
 10
0
 20
0
 39
0
 70
1
 66
1
  0
VERTEX
  8
0
 10
2435
 20
726.61538461538464
 42
0
  0
VERTEX
  8
0
 10
2435
 20
881.61538461538464
 42
0
  0
VERTEX
  8
0
 10
2485
 20
881.61538461538464
 42
0
  0
VERTEX
  8
0
 10
2485
 20
726.61538461538464
 42
0
  0
SEQEND
  0
POLYLINE
  8
0
 10
0
 20
0
 39
0
 70
1
 66
1
  0
VERTEX
  8
0
 10
2460
 20
746.36538461538464
 42
1
  0
VERTEX
  8
0
 10
2460
 20
766.86538461538464
 42
1
  0
SEQEND
  0
POLYLINE
  8
0
 10
0
 20
0
 39
0
 70
1
 66
1
  0
VERTEX
  8
0
 10
2460
 20
841.36538461538464
 42
1
  0
VERTEX
  8
0
 10
2460
 20
861.86538461538464
 42
1
  0
SEQEND
  0
POLYLINE
  8
0
 10
0
 20
0
 39
0
 70
1
 66
1
  0
VERTEX
  8
0
 10
2436.6153846153848
 20
10.307692307692308
 42
0
  0
VERTEX
  8
0
 10
2436.6153846153848
 20
165.30769230769232
 42
0
  0
VERTEX
  8
0
 10
2486.6153846153848
 20
165.30769230769232
 42
0
  0
VERTEX
  8
0
 10
2486.6153846153848
 20
10.307692307692312
 42
0
  0
SEQEND
  0
POLYLINE
  8
0
 10
0
 20
0
 39
0
 70
1
 66
1
  0
VERTEX
  8
0
 10
2461.6153846153848
 20
30.057692307692307
 42
1
  0
VERTEX
  8
0
 10
2461.6153846153848
 20
50.557692307692307
 42
1
  0
SEQEND
  0
POLYLINE
  8
0
 10
0
 20
0
 39
0
 70
1
 66
1
  0
VERTEX
  8
0
 10
2461.6153846153848
 20
125.05769230769231
 42
1
  0
VERTEX
  8
0
 10
2461.6153846153848
 20
145.55769230769232
 42
1
  0
SEQEND
  0
POLYLINE
  8
0
 10
0
 20
0
 39
0
 70
1
 66
1
  0
VERTEX
  8
0
 10
2516.1538461538462
 20
939.15384615384619
 42
0
  0
VERTEX
  8
0
 10
2361.1538461538462
 20
939.15384615384619
 42
0
  0
VERTEX
  8
0
 10
2361.1538461538462
 20
989.15384615384619
 42
0
  0
VERTEX
  8
0
 10
2516.1538461538462
 20
989.15384615384619
 42
0
  0
SEQEND
  0
POLYLINE
  8
0
 10
0
 20
0
 39
0
 70
1
 66
1
  0
VERTEX
  8
0
 10
2496.4038461538462
 20
964.15384615384619
 42
1
  0
VERTEX
  8
0
 10
2475.9038461538462
 20
964.15384615384619
 42
1
  0
SEQEND
  0
POLYLINE
  8
0
 10
0
 20
0
 39
0
 70
1
 66
1
  0
VERTEX
  8
0
 10
2401.4038461538462
 20
964.15384615384619
 42
1
  0
VERTEX
  8
0
 10
2380.9038461538462
 20
964.15384615384619
 42
1
  0
SEQEND
  0
POLYLINE
  8
0
 10
0
 20
0
 39
0
 70
1
 66
1
  0
VERTEX
  8
0
 10
2781.3846153846157
 20
726.61538461538464
 42
0
  0
VERTEX
  8
0
 10
2781.3846153846157
 20
881.61538461538464
 42
0
  0
VERTEX
  8
0
 10
2831.3846153846157
 20
881.61538461538464
 42
0
  0
VERTEX
  8
0
 10
2831.3846153846157
 20
726.61538461538464
 42
0
  0
SEQEND
  0
POLYLINE
  8
0
 10
0
 20
0
 39
0
 70
1
 66
1
  0
VERTEX
  8
0
 10
2806.3846153846157
 20
746.36538461538464
 42
1
  0
VERTEX
  8
0
 10
2806.3846153846157
 20
766.86538461538464
 42
1
  0
SEQEND
  0
POLYLINE
  8
0
 10
0
 20
0
 39
0
 70
1
 66
1
  0
VERTEX
  8
0
 10
2806.3846153846157
 20
841.36538461538464
 42
1
  0
VERTEX
  8
0
 10
2806.3846153846157
 20
861.86538461538464
 42
1
  0
SEQEND
  0
POLYLINE
  8
0
 10
0
 20
0
 39
0
 70
1
 66
1
  0
VERTEX
  8
0
 10
2782.7692307692309
 20
10.307692307692308
 42
0
  0
VERTEX
  8
0
 10
2782.7692307692309
 20
165.30769230769232
 42
0
  0
VERTEX
  8
0
 10
2832.7692307692309
 20
165.30769230769232
 42
0
  0
VERTEX
  8
0
 10
2832.7692307692309
 20
10.307692307692312
 42
0
  0
SEQEND
  0
POLYLINE
  8
0
 10
0
 20
0
 39
0
 70
1
 66
1
  0
VERTEX
  8
0
 10
2807.7692307692309
 20
30.057692307692307
 42
1
  0
VERTEX
  8
0
 10
2807.7692307692309
 20
50.557692307692307
 42
1
  0
SEQEND
  0
POLYLINE
  8
0
 10
0
 20
0
 39
0
 70
1
 66
1
  0
VERTEX
  8
0
 10
2807.7692307692309
 20
125.05769230769231
 42
1
  0
VERTEX
  8
0
 10
2807.7692307692309
 20
145.55769230769232
 42
1
  0
SEQEND
  0
POLYLINE
  8
0
 10
0
 20
0
 39
0
 70
1
 66
1
  0
VERTEX
  8
0
 10
2157.1469782698482
 20
95.307286166547726
 42
-1
  0
VERTEX
  8
0
 10
2156.7760969941087
 20
10.308096789716664
 42
-1
  0
SEQEND
  0
POLYLINE
  8
0
 10
0
 20
0
 39
0
 70
1
 66
1
  0
VERTEX
  8
0
 10
2157.0269872688737
 20
67.807548426984738
 42
1
  0
VERTEX
  8
0
 10
2156.8960879950832
 20
37.807834529279653
 42
1
  0
SEQEND
  0
POLYLINE
  8
0
 10
0
 20
0
 39
0
 70
1
 66
1
  0
VERTEX
  8
0
 10
2479.3008244236944
 20
260.53805539731695
 42
-1
  0
VERTEX
  8
0
 10
2478.9299431479549
 20
175.5388660204859
 42
-1
  0
SEQEND
  0
POLYLINE
  8
0
 10
0
 20
0
 39
0
 70
1
 66
1
  0
VERTEX
  8
0
 10
2479.1808334227198
 20
233.03831765775396
 42
1
  0
VERTEX
  8
0
 10
2479.0499341489294
 20
203.03860376004889
 42
1
  0
SEQEND
  0
POLYLINE
  8
0
 10
0
 20
0
 39
0
 70
1
 66
1
  0
VERTEX
  8
0
 10
2539.762362885233
 20
95.307286166547726
 42
-1
  0
VERTEX
  8
0
 10
2539.3914816094934
 20
10.308096789716664
 42
-1
  0
SEQEND
  0
POLYLINE
  8
0
 10
0
 20
0
 39
0
 70
1
 66
1
  0
VERTEX
  8
0
 10
2539.6423718842584
 20
67.807548426984738
 42
1
  0
VERTEX
  8
0
 10
2539.511472610468
 20
37.807834529279653
 42
1
  0
SEQEND
  0
POLYLINE
  8
0
 10
0
 20
0
 39
0
 70
1
 66
1
  0
VERTEX
  8
0
 10
2749.762362885233
 20
989.53805539731695
 42
-1
  0
VERTEX
  8
0
 10
2749.3914816094934
 20
904.5388660204859
 42
-1
  0
SEQEND
  0
POLYLINE
  8
0
 10
0
 20
0
 39
0
 70
1
 66
1
  0
VERTEX
  8
0
 10
2749.6423718842584
 20
962.03831765775396
 42
1
  0
VERTEX
  8
0
 10
2749.511472610468
 20
932.03860376004889
 42
1
  0
SEQEND
  0
ENDSEC
  0
EOF
