  0
SECTION
  2
ENTITIES
  0
POLYLINE
  8
0
 10
0
 20
0
 39
0
 70
1
 66
1
  0
VERTEX
  8
0
 10
0
 20
0
 42
0
  0
VERTEX
  8
0
 10
3600
 20
0
 42
0
  0
VERTEX
  8
0
 10
3600
 20
1500
 42
0
  0
VERTEX
  8
0
 10
0
 20
1500
 42
0
  0
SEQEND
  0
POLYLINE
  8
0
 10
0
 20
0
 39
0
 70
1
 66
1
  0
VERTEX
  8
0
 10
697.17453870709141
 20
10.399999931774801
 42
0
  0
VERTEX
  8
0
 10
480.03919657362712
 20
45.762736548815155
 42
0
  0
VERTEX
  8
0
 10
478.10643032725056
 20
33.919408217392629
 42
0
  0
VERTEX
  8
0
 10
325.12199566300114
 20
58.834505945764249
 42
-0.62975972890853882
  0
VERTEX
  8
0
 10
134.74069866604259
 20
707.87678438387229
 42
0
  0
VERTEX
  8
0
 10
195.50829350019194
 20
762.48694352366147
 42
0.19975088536739349
  0
VERTEX
  8
0
 10
212.02270965996286
 20
797.17009916179813
 42
0
  0
VERTEX
  8
0
 10
216.25055772411724
 20
881.47742951702094
 42
-0.31490704417228699
  0
VERTEX
  8
0
 10
251.3903424937962
 20
926.73387406588881
 42
0
  0
VERTEX
  8
0
 10
680.62728412981232
 20
1059.7046069506032
 42
0
  0
VERTEX
  8
0
 10
700.36721118326386
 20
1056.4897556308133
 42
0
  0
VERTEX
  8
0
 10
693.13379571373662
 20
1012.0749197605473
 42
0
  0
VERTEX
  8
0
 10
567.79893227453431
 20
895.70838157864637
 42
0
  0
VERTEX
  8
0
 10
602.66713962490758
 20
581.01137590440339
 42
0
  0
VERTEX
  8
0
 10
457.57867578203877
 20
604.64053310485906
 42
0
  0
VERTEX
  8
0
 10
699.74641976292332
 20
26.191941574536031
 42
0
  0
SEQEND
  0
POLYLINE
  8
0
 10
0
 20
0
 39
0
 70
1
 66
1
  0
VERTEX
  8
0
 10
290.86165026362141
 20
874.95411147209234
 42
1
  0
VERTEX
  8
0
 10
241.51183262999257
 20
882.99123977156705
 42
1
  0
SEQEND
  0
POLYLINE
  8
0
 10
0
 20
0
 39
0
 70
1
 66
1
  0
VERTEX
  8
0
 10
540.63267240794448
 20
1488.4646069506052
 42
0
  0
VERTEX
  8
0
 10
757.76801454140877
 20
1453.1018703335649
 42
0
  0
VERTEX
  8
0
 10
759.70078078778533
 20
1464.9451986649874
 42
0
  0
VERTEX
  8
0
 10
912.68521545203475
 20
1440.0301009366158
 42
-0.62975972890853882
  0
VERTEX
  8
0
 10
1103.0665124489933
 20
790.98782249850774
 42
0
  0
VERTEX
  8
0
 10
1042.298917614844
 20
736.37766335871856
 42
0.19975088536739349
  0
VERTEX
  8
0
 10
1025.784501455073
 20
701.6945077205819
 42
0
  0
VERTEX
  8
0
 10
1021.5566533909187
 20
617.38717736535909
 42
-0.31490704417228699
  0
VERTEX
  8
0
 10
986.4168686212397
 20
572.13073281649122
 42
0
  0
VERTEX
  8
0
 10
557.17992698522357
 20
439.15999993177684
 42
0
  0
VERTEX
  8
0
 10
537.43999993177204
 20
442.37485125156672
 42
0
  0
VERTEX
  8
0
 10
544.67341540129928
 20
486.78968712183269
 42
0
  0
VERTEX
  8
0
 10
670.00827884050159
 20
603.15622530373366
 42
0
  0
VERTEX
  8
0
 10
635.14007149012832
 20
917.85323097797664
 42
0
  0
VERTEX
  8
0
 10
780.22853533299713
 20
894.22407377752097
 42
0
  0
VERTEX
  8
0
 10
538.06079135211257
 20
1472.672665307844
 42
0
  0
SEQEND
  0
POLYLINE
  8
0
 10
0
 20
0
 39
0
 70
1
 66
1
  0
VERTEX
  8
0
 10
946.94556085141448
 20
623.91049541028769
 42
1
  0
VERTEX
  8
0
 10
996.29537848504333
 20
615.87336711081298
 42
1
  0
SEQEND
  0
POLYLINE
  8
0
 10
0
 20
0
 39
0
 70
1
 66
1
  0
VERTEX
  8
0
 10
1675.654538707091
 20
10.399999931774801
 42
0
  0
VERTEX
  8
0
 10
1458.5191965736267
 20
45.762736548815155
 42
0
  0
VERTEX
  8
0
 10
1456.5864303272501
 20
33.919408217392629
 42
0
  0
VERTEX
  8
0
 10
1303.6019956630007
 20
58.834505945764249
 42
-0.62975972890853882
  0
VERTEX
  8
0
 10
1113.2206986660422
 20
707.87678438387229
 42
0
  0
VERTEX
  8
0
 10
1173.9882935001915
 20
762.48694352366147
 42
0.19975088536739349
  0
VERTEX
  8
0
 10
1190.5027096599624
 20
797.17009916179813
 42
0
  0
VERTEX
  8
0
 10
1194.7305577241168
 20
881.47742951702094
 42
-0.31490704417228699
  0
VERTEX
  8
0
 10
1229.8703424937958
 20
926.73387406588881
 42
0
  0
VERTEX
  8
0
 10
1659.1072841298119
 20
1059.7046069506032
 42
0
  0
VERTEX
  8
0
 10
1678.8472111832634
 20
1056.4897556308133
 42
0
  0
VERTEX
  8
0
 10
1671.6137957137362
 20
1012.0749197605473
 42
0
  0
VERTEX
  8
0
 10
1546.2789322745339
 20
895.70838157864637
 42
0
  0
VERTEX
  8
0
 10
1581.1471396249071
 20
581.01137590440339
 42
0
  0
VERTEX
  8
0
 10
1436.0586757820383
 20
604.64053310485906
 42
0
  0
VERTEX
  8
0
 10
1678.2264197629229
 20
26.191941574536031
 42
0
  0
SEQEND
  0
POLYLINE
  8
0
 10
0
 20
0
 39
0
 70
1
 66
1
  0
VERTEX
  8
0
 10
1269.341650263621
 20
874.95411147209234
 42
1
  0
VERTEX
  8
0
 10
1219.9918326299921
 20
882.99123977156705
 42
1
  0
SEQEND
  0
POLYLINE
  8
0
 10
0
 20
0
 39
0
 70
1
 66
1
  0
VERTEX
  8
0
 10
1519.112672407944
 20
1488.4646069506052
 42
0
  0
VERTEX
  8
0
 10
1736.2480145414083
 20
1453.1018703335649
 42
0
  0
VERTEX
  8
0
 10
1738.1807807877849
 20
1464.9451986649874
 42
0
  0
VERTEX
  8
0
 10
1891.1652154520343
 20
1440.0301009366158
 42
-0.62975972890853882
  0
VERTEX
  8
0
 10
2081.5465124489929
 20
790.98782249850774
 42
0
  0
VERTEX
  8
0
 10
2020.7789176148435
 20
736.37766335871856
 42
0.19975088536739349
  0
VERTEX
  8
0
 10
2004.2645014550726
 20
701.6945077205819
 42
0
  0
VERTEX
  8
0
 10
2000.0366533909182
 20
617.38717736535909
 42
-0.31490704417228699
  0
VERTEX
  8
0
 10
1964.8968686212393
 20
572.13073281649122
 42
0
  0
VERTEX
  8
0
 10
1535.6599269852231
 20
439.15999993177684
 42
0
  0
VERTEX
  8
0
 10
1515.9199999317716
 20
442.37485125156672
 42
0
  0
VERTEX
  8
0
 10
1523.1534154012988
 20
486.78968712183269
 42
0
  0
VERTEX
  8
0
 10
1648.4882788405012
 20
603.15622530373366
 42
0
  0
VERTEX
  8
0
 10
1613.6200714901279
 20
917.85323097797664
 42
0
  0
VERTEX
  8
0
 10
1758.7085353329967
 20
894.22407377752097
 42
0
  0
VERTEX
  8
0
 10
1516.5407913521121
 20
1472.672665307844
 42
0
  0
SEQEND
  0
POLYLINE
  8
0
 10
0
 20
0
 39
0
 70
1
 66
1
  0
VERTEX
  8
0
 10
1925.425560851414
 20
623.91049541028769
 42
1
  0
VERTEX
  8
0
 10
1974.7753784850429
 20
615.87336711081298
 42
1
  0
SEQEND
  0
POLYLINE
  8
0
 10
0
 20
0
 39
0
 70
1
 66
1
  0
VERTEX
  8
0
 10
2654.1345387070905
 20
10.399999931774801
 42
0
  0
VERTEX
  8
0
 10
2436.9991965736263
 20
45.762736548815155
 42
0
  0
VERTEX
  8
0
 10
2435.0664303272497
 20
33.919408217392629
 42
0
  0
VERTEX
  8
0
 10
2282.0819956630003
 20
58.834505945764249
 42
-0.62975972890853882
  0
VERTEX
  8
0
 10
2091.7006986660417
 20
707.87678438387229
 42
0
  0
VERTEX
  8
0
 10
2152.4682935001911
 20
762.48694352366147
 42
0.19975088536739349
  0
VERTEX
  8
0
 10
2168.982709659962
 20
797.17009916179813
 42
0
  0
VERTEX
  8
0
 10
2173.2105577241164
 20
881.47742951702094
 42
-0.31490704417228699
  0
VERTEX
  8
0
 10
2208.3503424937953
 20
926.73387406588881
 42
0
  0
VERTEX
  8
0
 10
2637.5872841298115
 20
1059.7046069506032
 42
0
  0
VERTEX
  8
0
 10
2657.327211183263
 20
1056.4897556308133
 42
0
  0
VERTEX
  8
0
 10
2650.0937957137357
 20
1012.0749197605473
 42
0
  0
VERTEX
  8
0
 10
2524.7589322745334
 20
895.70838157864637
 42
0
  0
VERTEX
  8
0
 10
2559.6271396249067
 20
581.01137590440339
 42
0
  0
VERTEX
  8
0
 10
2414.5386757820379
 20
604.64053310485906
 42
0
  0
VERTEX
  8
0
 10
2656.7064197629225
 20
26.191941574536031
 42
0
  0
SEQEND
  0
POLYLINE
  8
0
 10
0
 20
0
 39
0
 70
1
 66
1
  0
VERTEX
  8
0
 10
2247.8216502636205
 20
874.95411147209234
 42
1
  0
VERTEX
  8
0
 10
2198.4718326299917
 20
882.99123977156705
 42
1
  0
SEQEND
  0
POLYLINE
  8
0
 10
0
 20
0
 39
0
 70
1
 66
1
  0
VERTEX
  8
0
 10
2497.5926724079454
 20
1488.4646069506052
 42
0
  0
VERTEX
  8
0
 10
2714.7280145414097
 20
1453.1018703335649
 42
0
  0
VERTEX
  8
0
 10
2716.6607807877863
 20
1464.9451986649874
 42
0
  0
VERTEX
  8
0
 10
2869.6452154520357
 20
1440.0301009366158
 42
-0.62975972890853882
  0
VERTEX
  8
0
 10
3060.0265124489943
 20
790.98782249850774
 42
0
  0
VERTEX
  8
0
 10
2999.2589176148449
 20
736.37766335871856
 42
0.19975088536739349
  0
VERTEX
  8
0
 10
2982.744501455074
 20
701.6945077205819
 42
0
  0
VERTEX
  8
0
 10
2978.5166533909196
 20
617.38717736535909
 42
-0.31490704417228699
  0
VERTEX
  8
0
 10
2943.3768686212406
 20
572.13073281649122
 42
0
  0
VERTEX
  8
0
 10
2514.1399269852245
 20
439.15999993177684
 42
0
  0
VERTEX
  8
0
 10
2494.399999931773
 20
442.37485125156672
 42
0
  0
VERTEX
  8
0
 10
2501.6334154013002
 20
486.78968712183269
 42
0
  0
VERTEX
  8
0
 10
2626.9682788405025
 20
603.15622530373366
 42
0
  0
VERTEX
  8
0
 10
2592.1000714901293
 20
917.85323097797664
 42
0
  0
VERTEX
  8
0
 10
2737.1885353329981
 20
894.22407377752097
 42
0
  0
VERTEX
  8
0
 10
2495.0207913521135
 20
1472.672665307844
 42
0
  0
SEQEND
  0
POLYLINE
  8
0
 10
0
 20
0
 39
0
 70
1
 66
1
  0
VERTEX
  8
0
 10
2903.9055608514154
 20
623.91049541028769
 42
1
  0
VERTEX
  8
0
 10
2953.2553784850443
 20
615.87336711081298
 42
1
  0
SEQEND
  0
POLYLINE
  8
0
 10
0
 20
0
 39
0
 70
1
 66
1
  0
VERTEX
  8
0
 10
2576.8400000000001
 20
245.12
 42
-0
  0
VERTEX
  8
0
 10
2740.3110693359376
 20
488.10985290527344
 42
-0.52651196718215942
  0
VERTEX
  8
0
 10
2806.2656896972658
 20
488.72536193847657
 42
0
  0
VERTEX
  8
0
 10
2976.8400152587892
 20
245.12
 42
-0
  0
SEQEND
  0
POLYLINE
  8
0
 10
0
 20
0
 39
0
 70
1
 66
1
  0
VERTEX
  8
0
 10
2792.8400152587892
 20
465.62648498535157
 42
1
  0
VERTEX
  8
0
 10
2752.8400000000001
 20
465.62648498535157
 42
1
  0
SEQEND
  0
POLYLINE
  8
0
 10
0
 20
0
 39
0
 70
1
 66
1
  0
VERTEX
  8
0
 10
3206.9730238235475
 20
505.78229775456424
 42
-0
  0
VERTEX
  8
0
 10
3043.50195448761
 20
262.7924448492908
 42
-0.52651196718215942
  0
VERTEX
  8
0
 10
2977.5473341262818
 20
262.17693581608768
 42
0
  0
VERTEX
  8
0
 10
2806.9730085647584
 20
505.7822977545643
 42
-0
  0
SEQEND
  0
POLYLINE
  8
0
 10
0
 20
0
 39
0
 70
1
 66
1
  0
VERTEX
  8
0
 10
2990.9730085647584
 20
285.27581276921268
 42
1
  0
VERTEX
  8
0
 10
3030.9730238235475
 20
285.27581276921268
 42
1
  0
SEQEND
  0
POLYLINE
  8
0
 10
0
 20
0
 39
0
 70
1
 66
1
  0
VERTEX
  8
0
 10
3186.3200000000002
 20
987.57302382354726
 42
-0
  0
VERTEX
  8
0
 10
3429.3098529052736
 20
824.10195448760976
 42
-0.52651196718215942
  0
VERTEX
  8
0
 10
3429.9253619384767
 20
758.14733412628163
 42
0
  0
VERTEX
  8
0
 10
3186.3200000000002
 20
587.5730085647582
 42
-0
  0
SEQEND
  0
POLYLINE
  8
0
 10
0
 20
0
 39
0
 70
1
 66
1
  0
VERTEX
  8
0
 10
3406.8264849853517
 20
771.5730085647582
 42
1
  0
VERTEX
  8
0
 10
3406.8264849853517
 20
811.57302382354726
 42
1
  0
SEQEND
  0
POLYLINE
  8
0
 10
0
 20
0
 39
0
 70
1
 66
1
  0
VERTEX
  8
0
 10
3446.9822977545646
 20
357.44000000000005
 42
-0
  0
VERTEX
  8
0
 10
3203.9924448492911
 20
520.91106933593755
 42
-0.52651196718215942
  0
VERTEX
  8
0
 10
3203.376935816088
 20
586.86568969726568
 42
0
  0
VERTEX
  8
0
 10
3446.9822977545646
 20
757.44001525878912
 42
-0
  0
SEQEND
  0
POLYLINE
  8
0
 10
0
 20
0
 39
0
 70
1
 66
1
  0
VERTEX
  8
0
 10
3226.475812769213
 20
573.44001525878912
 42
1
  0
VERTEX
  8
0
 10
3226.475812769213
 20
533.44000000000005
 42
1
  0
SEQEND
  0
POLYLINE
  8
0
 10
0
 20
0
 39
0
 70
1
 66
1
  0
VERTEX
  8
0
 10
3194.5999999999999
 20
1482.5730238235474
 42
-0
  0
VERTEX
  8
0
 10
3437.5898529052733
 20
1319.1019544876099
 42
-0.52651196718215942
  0
VERTEX
  8
0
 10
3438.2053619384765
 20
1253.1473341262817
 42
0
  0
VERTEX
  8
0
 10
3194.5999999999999
 20
1082.5730085647583
 42
-0
  0
SEQEND
  0
POLYLINE
  8
0
 10
0
 20
0
 39
0
 70
1
 66
1
  0
VERTEX
  8
0
 10
3415.1064849853515
 20
1266.5730085647583
 42
1
  0
VERTEX
  8
0
 10
3415.1064849853515
 20
1306.5730238235474
 42
1
  0
SEQEND
  0
POLYLINE
  8
0
 10
0
 20
0
 39
0
 70
1
 66
1
  0
VERTEX
  8
0
 10
3455.2622977545643
 20
852.44000000000005
 42
-0
  0
VERTEX
  8
0
 10
3212.2724448492909
 20
1015.9110693359376
 42
-0.52651196718215942
  0
VERTEX
  8
0
 10
3211.6569358160878
 20
1081.8656896972657
 42
0
  0
VERTEX
  8
0
 10
3455.2622977545643
 20
1252.4400152587891
 42
-0
  0
SEQEND
  0
POLYLINE
  8
0
 10
0
 20
0
 39
0
 70
1
 66
1
  0
VERTEX
  8
0
 10
3234.7558127692128
 20
1068.4400152587891
 42
1
  0
VERTEX
  8
0
 10
3234.7558127692128
 20
1028.4400000000001
 42
1
  0
SEQEND
  0
POLYLINE
  8
0
 10
0
 20
0
 39
0
 70
1
 66
1
  0
VERTEX
  8
0
 10
2886.8000000000002
 20
10.400000000000006
 42
-0
  0
VERTEX
  8
0
 10
3050.2710693359377
 20
253.38985290527344
 42
-0.52651196718215942
  0
VERTEX
  8
0
 10
3116.2256896972658
 20
254.00536193847657
 42
0
  0
VERTEX
  8
0
 10
3286.8000152587892
 20
10.400000000000006
 42
-0
  0
SEQEND
  0
POLYLINE
  8
0
 10
0
 20
0
 39
0
 70
1
 66
1
  0
VERTEX
  8
0
 10
3102.8000152587892
 20
230.90648498535157
 42
1
  0
VERTEX
  8
0
 10
3062.8000000000002
 20
230.90648498535157
 42
1
  0
SEQEND
  0
POLYLINE
  8
0
 10
0
 20
0
 39
0
 70
1
 66
1
  0
VERTEX
  8
0
 10
3516.9330238235475
 20
271.06229775456433
 42
-0
  0
VERTEX
  8
0
 10
3353.46195448761
 20
28.072444849290889
 42
-0.52651196718215942
  0
VERTEX
  8
0
 10
3287.5073341262819
 20
27.456935816087764
 42
0
  0
VERTEX
  8
0
 10
3116.9330085647584
 20
271.06229775456438
 42
-0
  0
SEQEND
  0
POLYLINE
  8
0
 10
0
 20
0
 39
0
 70
1
 66
1
  0
VERTEX
  8
0
 10
3300.9330085647584
 20
50.555812769212764
 42
1
  0
VERTEX
  8
0
 10
3340.9330238235475
 20
50.555812769212764
 42
1
  0
SEQEND
  0
POLYLINE
  8
0
 10
0
 20
0
 39
0
 70
1
 66
1
  0
VERTEX
  8
0
 10
10.400000000000034
 20
780.44000000000005
 42
0
  0
VERTEX
  8
0
 10
253.38985290527344
 20
943.91106933593755
 42
0.52651196718215942
  0
VERTEX
  8
0
 10
254.00536193847657
 20
1009.8656896972657
 42
-0
  0
VERTEX
  8
0
 10
10.400000000000006
 20
1180.4400152587891
 42
0
  0
SEQEND
  0
POLYLINE
  8
0
 10
0
 20
0
 39
0
 70
1
 66
1
  0
VERTEX
  8
0
 10
230.90648498535157
 20
996.44001525878912
 42
-1
  0
VERTEX
  8
0
 10
230.90648498535157
 20
956.44000000000005
 42
-1
  0
SEQEND
  0
POLYLINE
  8
0
 10
0
 20
0
 39
0
 70
1
 66
1
  0
VERTEX
  8
0
 10
271.06229775456427
 20
1410.5730238235474
 42
0
  0
VERTEX
  8
0
 10
28.072444849290889
 20
1247.1019544876099
 42
0.52651196718215942
  0
VERTEX
  8
0
 10
27.456935816087764
 20
1181.1473341262817
 42
-0
  0
VERTEX
  8
0
 10
271.06229775456438
 20
1010.5730085647583
 42
0
  0
SEQEND
  0
POLYLINE
  8
0
 10
0
 20
0
 39
0
 70
1
 66
1
  0
VERTEX
  8
0
 10
50.555812769212764
 20
1194.5730085647583
 42
-1
  0
VERTEX
  8
0
 10
50.555812769212764
 20
1234.5730238235474
 42
-1
  0
SEQEND
  0
POLYLINE
  8
0
 10
0
 20
0
 39
0
 70
1
 66
1
  0
VERTEX
  8
0
 10
281.48000000000002
 20
1015.88
 42
-0
  0
VERTEX
  8
0
 10
281.48000000000002
 20
1390.8800000000001
 42
-0
  0
VERTEX
  8
0
 10
437.24177978515627
 20
1390.8800000000001
 42
0
  0
VERTEX
  8
0
 10
502.48000000000002
 20
1316.3708447265626
 42
0
  0
VERTEX
  8
0
 10
502.48000000000002
 20
1015.88
 42
0
  0
SEQEND
  0
POLYLINE
  8
0
 10
0
 20
0
 39
0
 70
1
 66
1
  0
VERTEX
  8
0
 10
436.54123352050783
 20
1069.4747456359864
 42
0.54372489452362061
  0
VERTEX
  8
0
 10
445.66699645996096
 20
1083.5637997436525
 42
-0
  0
VERTEX
  8
0
 10
401.10577056884767
 20
1183.013529663086
 42
0.64772027730941772
  0
VERTEX
  8
0
 10
382.85422943115236
 20
1183.013529663086
 42
-0
  0
VERTEX
  8
0
 10
338.29299591064455
 20
1083.5637997436525
 42
0.54372489452362061
  0
VERTEX
  8
0
 10
347.41876647949221
 20
1069.4747456359864
 42
0
  0
SEQEND
  0
POLYLINE
  8
0
 10
0
 20
0
 39
0
 70
1
 66
1
  0
VERTEX
  8
0
 10
877.60000000000002
 20
458.12000000000006
 42
-0
  0
VERTEX
  8
0
 10
877.60000000000014
 20
83.120000000000061
 42
-0
  0
VERTEX
  8
0
 10
721.83822021484389
 20
83.120000000000005
 42
0
  0
VERTEX
  8
0
 10
656.60000000000014
 20
157.6291552734375
 42
0
  0
VERTEX
  8
0
 10
656.60000000000002
 20
458.12
 42
0
  0
SEQEND
  0
POLYLINE
  8
0
 10
0
 20
0
 39
0
 70
1
 66
1
  0
VERTEX
  8
0
 10
722.53876647949221
 20
404.52525436401368
 42
0.54372489452362061
  0
VERTEX
  8
0
 10
713.41300354003909
 20
390.43620025634766
 42
-0
  0
VERTEX
  8
0
 10
757.97422943115237
 20
290.98647033691407
 42
0.64772027730941772
  0
VERTEX
  8
0
 10
776.22577056884768
 20
290.98647033691407
 42
-0
  0
VERTEX
  8
0
 10
820.78700408935549
 20
390.43620025634772
 42
0.54372489452362061
  0
VERTEX
  8
0
 10
811.66123352050784
 20
404.52525436401373
 42
0
  0
SEQEND
  0
POLYLINE
  8
0
 10
0
 20
0
 39
0
 70
1
 66
1
  0
VERTEX
  8
0
 10
1440.6400000000001
 20
1489.1600000000001
 42
-0
  0
VERTEX
  8
0
 10
1440.6400000000001
 20
1114.1600000000001
 42
-0
  0
VERTEX
  8
0
 10
1284.8782202148439
 20
1114.1600000000001
 42
0
  0
VERTEX
  8
0
 10
1219.6400000000001
 20
1188.6691552734376
 42
0
  0
VERTEX
  8
0
 10
1219.6400000000001
 20
1489.1600000000001
 42
0
  0
SEQEND
  0
POLYLINE
  8
0
 10
0
 20
0
 39
0
 70
1
 66
1
  0
VERTEX
  8
0
 10
1285.5787664794923
 20
1435.5652543640138
 42
0.54372489452362061
  0
VERTEX
  8
0
 10
1276.4530035400392
 20
1421.4762002563477
 42
-0
  0
VERTEX
  8
0
 10
1321.0142294311524
 20
1322.0264703369141
 42
0.64772027730941772
  0
VERTEX
  8
0
 10
1339.2657705688478
 20
1322.0264703369141
 42
-0
  0
VERTEX
  8
0
 10
1383.8270040893556
 20
1421.4762002563477
 42
0.54372489452362061
  0
VERTEX
  8
0
 10
1374.7012335205079
 20
1435.5652543640138
 42
0
  0
SEQEND
  0
POLYLINE
  8
0
 10
0
 20
0
 39
0
 70
1
 66
1
  0
VERTEX
  8
0
 10
1856.0800000000002
 20
458.12000000000006
 42
-0
  0
VERTEX
  8
0
 10
1856.0800000000002
 20
83.120000000000061
 42
-0
  0
VERTEX
  8
0
 10
1700.3182202148439
 20
83.120000000000005
 42
0
  0
VERTEX
  8
0
 10
1635.0800000000002
 20
157.6291552734375
 42
0
  0
VERTEX
  8
0
 10
1635.0800000000002
 20
458.12
 42
0
  0
SEQEND
  0
POLYLINE
  8
0
 10
0
 20
0
 39
0
 70
1
 66
1
  0
VERTEX
  8
0
 10
1701.0187664794923
 20
404.52525436401368
 42
0.54372489452362061
  0
VERTEX
  8
0
 10
1691.8930035400392
 20
390.43620025634766
 42
-0
  0
VERTEX
  8
0
 10
1736.4542294311525
 20
290.98647033691407
 42
0.64772027730941772
  0
VERTEX
  8
0
 10
1754.7057705688478
 20
290.98647033691407
 42
-0
  0
VERTEX
  8
0
 10
1799.2670040893556
 20
390.43620025634772
 42
0.54372489452362061
  0
VERTEX
  8
0
 10
1790.141233520508
 20
404.52525436401373
 42
0
  0
SEQEND
  0
POLYLINE
  8
0
 10
0
 20
0
 39
0
 70
1
 66
1
  0
VERTEX
  8
0
 10
2419.1199999999999
 20
1489.1600000000001
 42
-0
  0
VERTEX
  8
0
 10
2419.1199999999999
 20
1114.1600000000001
 42
-0
  0
VERTEX
  8
0
 10
2263.3582202148436
 20
1114.1600000000001
 42
0
  0
VERTEX
  8
0
 10
2198.1199999999999
 20
1188.6691552734376
 42
0
  0
VERTEX
  8
0
 10
2198.1199999999999
 20
1489.1600000000001
 42
0
  0
SEQEND
  0
POLYLINE
  8
0
 10
0
 20
0
 39
0
 70
1
 66
1
  0
VERTEX
  8
0
 10
2264.0587664794921
 20
1435.5652543640138
 42
0.54372489452362061
  0
VERTEX
  8
0
 10
2254.933003540039
 20
1421.4762002563477
 42
-0
  0
VERTEX
  8
0
 10
2299.4942294311522
 20
1322.0264703369141
 42
0.64772027730941772
  0
VERTEX
  8
0
 10
2317.7457705688475
 20
1322.0264703369141
 42
-0
  0
VERTEX
  8
0
 10
2362.3070040893554
 20
1421.4762002563477
 42
0.54372489452362061
  0
VERTEX
  8
0
 10
2353.1812335205077
 20
1435.5652543640138
 42
0
  0
SEQEND
  0
POLYLINE
  8
0
 10
0
 20
0
 39
0
 70
1
 66
1
  0
VERTEX
  8
0
 10
2804.3620703124998
 20
14.720000018096471
 42
-0
  0
VERTEX
  8
0
 10
2690.1179296874998
 20
14.720000018096471
 42
-0.29410767555236816
  0
VERTEX
  8
0
 10
2671.9108984374998
 20
26.442656268096471
 42
-0
  0
VERTEX
  8
0
 10
2629.0329687499998
 20
120.77468751809647
 42
-0.10706308484077454
  0
VERTEX
  8
0
 10
2627.2399999999998
 20
129.05203126809647
 42
0
  0
VERTEX
  8
0
 10
2627.2399999999998
 20
214.72000001809647
 42
-0.41421356797218323
  0
VERTEX
  8
0
 10
2647.2399999999998
 20
234.72000001809647
 42
0
  0
VERTEX
  8
0
 10
2847.2399999999998
 20
234.72000001809647
 42
-0.41421356797218323
  0
VERTEX
  8
0
 10
2867.2399999999998
 20
214.72000001809647
 42
-0
  0
VERTEX
  8
0
 10
2867.2399999999998
 20
129.05203126809647
 42
-0.10706308484077454
  0
VERTEX
  8
0
 10
2865.4470312499998
 20
120.77468751809647
 42
0
  0
VERTEX
  8
0
 10
2822.5691015624998
 20
26.442656268096471
 42
-0.29410767555236816
  0
SEQEND
  0
POLYLINE
  8
0
 10
0
 20
0
 39
0
 70
1
 66
1
  0
VERTEX
  8
0
 10
2797.2399999999998
 20
139.72000001809647
 42
1
  0
VERTEX
  8
0
 10
2697.2399999999998
 20
139.72000001809647
 42
1
  0
SEQEND
  0
POLYLINE
  8
0
 10
0
 20
0
 39
0
 70
1
 66
1
  0
VERTEX
  8
0
 10
1008.08
 20
240.40000000000001
 42
-0
  0
VERTEX
  8
0
 10
1008.08
 20
40.399999999999999
 42
-0
  0
VERTEX
  8
0
 10
978.08000000000004
 20
10.4
 42
-0
  0
VERTEX
  8
0
 10
918.08000000000004
 20
10.4
 42
-0
  0
VERTEX
  8
0
 10
888.08000000000004
 20
40.399999999999999
 42
-0
  0
VERTEX
  8
0
 10
888.08000000000004
 20
240.40000000000001
 42
-1
  0
SEQEND
  0
POLYLINE
  8
0
 10
0
 20
0
 39
0
 70
1
 66
1
  0
VERTEX
  8
0
 10
963.33000000000004
 20
80.400000000000006
 42
1
  0
VERTEX
  8
0
 10
932.83000000000004
 20
80.400000000000006
 42
1
  0
SEQEND
  0
POLYLINE
  8
0
 10
0
 20
0
 39
0
 70
1
 66
1
  0
VERTEX
  8
0
 10
967.33000000000004
 20
240.40000000000001
 42
1
  0
VERTEX
  8
0
 10
928.83000000000004
 20
240.40000000000001
 42
1
  0
SEQEND
  0
POLYLINE
  8
0
 10
0
 20
0
 39
0
 70
1
 66
1
  0
VERTEX
  8
0
 10
1451.1200000000001
 20
1088.1199999999999
 42
-0
  0
VERTEX
  8
0
 10
1451.1200000000001
 20
1288.1199999999999
 42
-0
  0
VERTEX
  8
0
 10
1481.1200000000001
 20
1318.1199999999999
 42
-0
  0
VERTEX
  8
0
 10
1541.1200000000001
 20
1318.1199999999999
 42
-0
  0
VERTEX
  8
0
 10
1571.1200000000001
 20
1288.1199999999999
 42
-0
  0
VERTEX
  8
0
 10
1571.1200000000001
 20
1088.1199999999999
 42
-1
  0
SEQEND
  0
POLYLINE
  8
0
 10
0
 20
0
 39
0
 70
1
 66
1
  0
VERTEX
  8
0
 10
1495.8700000000001
 20
1248.1199999999999
 42
1
  0
VERTEX
  8
0
 10
1526.3700000000001
 20
1248.1199999999999
 42
1
  0
SEQEND
  0
POLYLINE
  8
0
 10
0
 20
0
 39
0
 70
1
 66
1
  0
VERTEX
  8
0
 10
1491.8700000000001
 20
1088.1199999999999
 42
1
  0
VERTEX
  8
0
 10
1530.3700000000001
 20
1088.1199999999999
 42
1
  0
SEQEND
  0
POLYLINE
  8
0
 10
0
 20
0
 39
0
 70
1
 66
1
  0
VERTEX
  8
0
 10
1986.5600000000002
 20
240.40000000000001
 42
-0
  0
VERTEX
  8
0
 10
1986.5600000000002
 20
40.399999999999999
 42
-0
  0
VERTEX
  8
0
 10
1956.5600000000002
 20
10.4
 42
-0
  0
VERTEX
  8
0
 10
1896.5600000000002
 20
10.4
 42
-0
  0
VERTEX
  8
0
 10
1866.5600000000002
 20
40.399999999999999
 42
-0
  0
VERTEX
  8
0
 10
1866.5600000000002
 20
240.40000000000001
 42
-1
  0
SEQEND
  0
POLYLINE
  8
0
 10
0
 20
0
 39
0
 70
1
 66
1
  0
VERTEX
  8
0
 10
1941.8100000000002
 20
80.400000000000006
 42
1
  0
VERTEX
  8
0
 10
1911.3100000000002
 20
80.400000000000006
 42
1
  0
SEQEND
  0
POLYLINE
  8
0
 10
0
 20
0
 39
0
 70
1
 66
1
  0
VERTEX
  8
0
 10
1945.8100000000002
 20
240.40000000000001
 42
1
  0
VERTEX
  8
0
 10
1907.3100000000002
 20
240.40000000000001
 42
1
  0
SEQEND
  0
POLYLINE
  8
0
 10
0
 20
0
 39
0
 70
1
 66
1
  0
VERTEX
  8
0
 10
2429.5999999999999
 20
1088.1199999999999
 42
-0
  0
VERTEX
  8
0
 10
2429.5999999999999
 20
1288.1199999999999
 42
-0
  0
VERTEX
  8
0
 10
2459.5999999999999
 20
1318.1199999999999
 42
-0
  0
VERTEX
  8
0
 10
2519.5999999999999
 20
1318.1199999999999
 42
-0
  0
VERTEX
  8
0
 10
2549.5999999999999
 20
1288.1199999999999
 42
-0
  0
VERTEX
  8
0
 10
2549.5999999999999
 20
1088.1199999999999
 42
-1
  0
SEQEND
  0
POLYLINE
  8
0
 10
0
 20
0
 39
0
 70
1
 66
1
  0
VERTEX
  8
0
 10
2474.3499999999999
 20
1248.1199999999999
 42
1
  0
VERTEX
  8
0
 10
2504.8499999999999
 20
1248.1199999999999
 42
1
  0
SEQEND
  0
POLYLINE
  8
0
 10
0
 20
0
 39
0
 70
1
 66
1
  0
VERTEX
  8
0
 10
2470.3499999999999
 20
1088.1199999999999
 42
1
  0
VERTEX
  8
0
 10
2508.8499999999999
 20
1088.1199999999999
 42
1
  0
SEQEND
  0
POLYLINE
  8
0
 10
0
 20
0
 39
0
 70
1
 66
1
  0
VERTEX
  8
0
 10
3175.6400000000003
 20
745.84000000000003
 42
-0
  0
VERTEX
  8
0
 10
3175.6400000000003
 20
545.84000000000003
 42
-0
  0
VERTEX
  8
0
 10
3145.6400000000003
 20
515.84000000000003
 42
-0
  0
VERTEX
  8
0
 10
3085.6400000000003
 20
515.84000000000003
 42
-0
  0
VERTEX
  8
0
 10
3055.6400000000003
 20
545.84000000000003
 42
-0
  0
VERTEX
  8
0
 10
3055.6400000000003
 20
745.84000000000003
 42
-1
  0
SEQEND
  0
POLYLINE
  8
0
 10
0
 20
0
 39
0
 70
1
 66
1
  0
VERTEX
  8
0
 10
3130.8900000000003
 20
585.84000000000003
 42
1
  0
VERTEX
  8
0
 10
3100.3900000000003
 20
585.84000000000003
 42
1
  0
SEQEND
  0
POLYLINE
  8
0
 10
0
 20
0
 39
0
 70
1
 66
1
  0
VERTEX
  8
0
 10
3134.8900000000003
 20
745.84000000000003
 42
1
  0
VERTEX
  8
0
 10
3096.3900000000003
 20
745.84000000000003
 42
1
  0
SEQEND
  0
POLYLINE
  8
0
 10
0
 20
0
 39
0
 70
1
 66
1
  0
VERTEX
  8
0
 10
3577.4000000000001
 20
511.12
 42
-0
  0
VERTEX
  8
0
 10
3577.4000000000001
 20
311.12
 42
-0
  0
VERTEX
  8
0
 10
3547.4000000000001
 20
281.12
 42
-0
  0
VERTEX
  8
0
 10
3487.4000000000001
 20
281.12
 42
-0
  0
VERTEX
  8
0
 10
3457.4000000000001
 20
311.12
 42
-0
  0
VERTEX
  8
0
 10
3457.4000000000001
 20
511.12
 42
-1
  0
SEQEND
  0
POLYLINE
  8
0
 10
0
 20
0
 39
0
 70
1
 66
1
  0
VERTEX
  8
0
 10
3532.6500000000001
 20
351.12
 42
1
  0
VERTEX
  8
0
 10
3502.1500000000001
 20
351.12
 42
1
  0
SEQEND
  0
POLYLINE
  8
0
 10
0
 20
0
 39
0
 70
1
 66
1
  0
VERTEX
  8
0
 10
3536.6500000000001
 20
511.12
 42
1
  0
VERTEX
  8
0
 10
3498.1500000000001
 20
511.12
 42
1
  0
SEQEND
  0
POLYLINE
  8
0
 10
0
 20
0
 39
0
 70
1
 66
1
  0
VERTEX
  8
0
 10
3577.4000000000001
 20
811.36000000000001
 42
-0
  0
VERTEX
  8
0
 10
3577.4000000000001
 20
611.36000000000001
 42
-0
  0
VERTEX
  8
0
 10
3547.4000000000001
 20
581.36000000000001
 42
-0
  0
VERTEX
  8
0
 10
3487.4000000000001
 20
581.36000000000001
 42
-0
  0
VERTEX
  8
0
 10
3457.4000000000001
 20
611.36000000000001
 42
-0
  0
VERTEX
  8
0
 10
3457.4000000000001
 20
811.36000000000001
 42
-1
  0
SEQEND
  0
POLYLINE
  8
0
 10
0
 20
0
 39
0
 70
1
 66
1
  0
VERTEX
  8
0
 10
3532.6500000000001
 20
651.36000000000001
 42
1
  0
VERTEX
  8
0
 10
3502.1500000000001
 20
651.36000000000001
 42
1
  0
SEQEND
  0
POLYLINE
  8
0
 10
0
 20
0
 39
0
 70
1
 66
1
  0
VERTEX
  8
0
 10
3536.6500000000001
 20
811.36000000000001
 42
1
  0
VERTEX
  8
0
 10
3498.1500000000001
 20
811.36000000000001
 42
1
  0
SEQEND
  0
POLYLINE
  8
0
 10
0
 20
0
 39
0
 70
1
 66
1
  0
VERTEX
  8
0
 10
3585.6800000000003
 20
1111.5999999999999
 42
-0
  0
VERTEX
  8
0
 10
3585.6800000000003
 20
911.60000000000002
 42
-0
  0
VERTEX
  8
0
 10
3555.6800000000003
 20
881.60000000000002
 42
-0
  0
VERTEX
  8
0
 10
3495.6800000000003
 20
881.60000000000002
 42
-0
  0
VERTEX
  8
0
 10
3465.6800000000003
 20
911.60000000000002
 42
-0
  0
VERTEX
  8
0
 10
3465.6800000000003
 20
1111.5999999999999
 42
-1
  0
SEQEND
  0
POLYLINE
  8
0
 10
0
 20
0
 39
0
 70
1
 66
1
  0
VERTEX
  8
0
 10
3540.9300000000003
 20
951.60000000000002
 42
1
  0
VERTEX
  8
0
 10
3510.4300000000003
 20
951.60000000000002
 42
1
  0
SEQEND
  0
POLYLINE
  8
0
 10
0
 20
0
 39
0
 70
1
 66
1
  0
VERTEX
  8
0
 10
3544.9300000000003
 20
1111.5999999999999
 42
1
  0
VERTEX
  8
0
 10
3506.4300000000003
 20
1111.5999999999999
 42
1
  0
SEQEND
  0
POLYLINE
  8
0
 10
0
 20
0
 39
0
 70
1
 66
1
  0
VERTEX
  8
0
 10
310.39999999999998
 20
1420.8800000000001
 42
-0
  0
VERTEX
  8
0
 10
10.399999999999977
 20
1420.8800000000001
 42
0
  0
VERTEX
  8
0
 10
10.399999999999977
 20
1470.8800000000001
 42
0
  0
VERTEX
  8
0
 10
84.987707519531227
 20
1470.8800000000001
 42
-0
  0
VERTEX
  8
0
 10
84.987707519531227
 20
1462.5021580505372
 42
0
  0
VERTEX
  8
0
 10
235.81229248046873
 20
1462.5021580505372
 42
0
  0
VERTEX
  8
0
 10
235.81229248046873
 20
1470.8800000000001
 42
0
  0
VERTEX
  8
0
 10
310.39999999999998
 20
1470.8800000000001
 42
0
  0
SEQEND
  0
POLYLINE
  8
0
 10
0
 20
0
 39
0
 70
1
 66
1
  0
VERTEX
  8
0
 10
291.41749420166013
 20
1445.8800000000001
 42
1
  0
VERTEX
  8
0
 10
263.41749420166013
 20
1445.8800000000001
 42
1
  0
SEQEND
  0
POLYLINE
  8
0
 10
0
 20
0
 39
0
 70
1
 66
1
  0
VERTEX
  8
0
 10
57.382513427734352
 20
1445.8800000000001
 42
1
  0
VERTEX
  8
0
 10
29.382513427734352
 20
1445.8800000000001
 42
1
  0
SEQEND
  0
POLYLINE
  8
0
 10
0
 20
0
 39
0
 70
1
 66
1
  0
VERTEX
  8
0
 10
512.96000000000004
 20
1034.6000000000001
 42
-0
  0
VERTEX
  8
0
 10
512.96000000000004
 20
1334.6000000000001
 42
0
  0
VERTEX
  8
0
 10
562.96000000000004
 20
1334.6000000000001
 42
0
  0
VERTEX
  8
0
 10
562.96000000000004
 20
1260.0122924804689
 42
-0
  0
VERTEX
  8
0
 10
554.58215805053715
 20
1260.0122924804689
 42
0
  0
VERTEX
  8
0
 10
554.58215805053715
 20
1109.1877075195314
 42
0
  0
VERTEX
  8
0
 10
562.96000000000004
 20
1109.1877075195314
 42
0
  0
VERTEX
  8
0
 10
562.96000000000004
 20
1034.6000000000001
 42
0
  0
SEQEND
  0
POLYLINE
  8
0
 10
0
 20
0
 39
0
 70
1
 66
1
  0
VERTEX
  8
0
 10
537.96000000000004
 20
1053.58250579834
 42
1
  0
VERTEX
  8
0
 10
537.96000000000004
 20
1081.58250579834
 42
1
  0
SEQEND
  0
POLYLINE
  8
0
 10
0
 20
0
 39
0
 70
1
 66
1
  0
VERTEX
  8
0
 10
537.96000000000004
 20
1287.6174865722658
 42
1
  0
VERTEX
  8
0
 10
537.96000000000004
 20
1315.6174865722658
 42
1
  0
SEQEND
  0
POLYLINE
  8
0
 10
0
 20
0
 39
0
 70
1
 66
1
  0
VERTEX
  8
0
 10
3402.8000000000002
 20
281.12
 42
-0
  0
VERTEX
  8
0
 10
3102.8000000000002
 20
281.12
 42
0
  0
VERTEX
  8
0
 10
3102.8000000000002
 20
331.12
 42
0
  0
VERTEX
  8
0
 10
3177.3877075195314
 20
331.12
 42
-0
  0
VERTEX
  8
0
 10
3177.3877075195314
 20
322.74215805053711
 42
0
  0
VERTEX
  8
0
 10
3328.2122924804689
 20
322.74215805053711
 42
0
  0
VERTEX
  8
0
 10
3328.2122924804689
 20
331.12
 42
0
  0
VERTEX
  8
0
 10
3402.8000000000002
 20
331.12
 42
0
  0
SEQEND
  0
POLYLINE
  8
0
 10
0
 20
0
 39
0
 70
1
 66
1
  0
VERTEX
  8
0
 10
3383.8174942016603
 20
306.12
 42
1
  0
VERTEX
  8
0
 10
3355.8174942016603
 20
306.12
 42
1
  0
SEQEND
  0
POLYLINE
  8
0
 10
0
 20
0
 39
0
 70
1
 66
1
  0
VERTEX
  8
0
 10
3149.7825134277346
 20
306.12
 42
1
  0
VERTEX
  8
0
 10
3121.7825134277346
 20
306.12
 42
1
  0
SEQEND
  0
POLYLINE
  8
0
 10
0
 20
0
 39
0
 70
1
 66
1
  0
VERTEX
  8
0
 10
3465.6800000000003
 20
1181.8400000000001
 42
-0
  0
VERTEX
  8
0
 10
3465.6800000000003
 20
1481.8400000000001
 42
0
  0
VERTEX
  8
0
 10
3515.6800000000003
 20
1481.8400000000001
 42
0
  0
VERTEX
  8
0
 10
3515.6800000000003
 20
1407.2522924804689
 42
-0
  0
VERTEX
  8
0
 10
3507.3021580505374
 20
1407.2522924804689
 42
0
  0
VERTEX
  8
0
 10
3507.3021580505374
 20
1256.4277075195314
 42
0
  0
VERTEX
  8
0
 10
3515.6800000000003
 20
1256.4277075195314
 42
0
  0
VERTEX
  8
0
 10
3515.6800000000003
 20
1181.8400000000001
 42
0
  0
SEQEND
  0
POLYLINE
  8
0
 10
0
 20
0
 39
0
 70
1
 66
1
  0
VERTEX
  8
0
 10
3490.6800000000003
 20
1200.82250579834
 42
1
  0
VERTEX
  8
0
 10
3490.6800000000003
 20
1228.82250579834
 42
1
  0
SEQEND
  0
POLYLINE
  8
0
 10
0
 20
0
 39
0
 70
1
 66
1
  0
VERTEX
  8
0
 10
3490.6800000000003
 20
1434.8574865722658
 42
1
  0
VERTEX
  8
0
 10
3490.6800000000003
 20
1462.8574865722658
 42
1
  0
SEQEND
  0
POLYLINE
  8
0
 10
0
 20
0
 39
0
 70
1
 66
1
  0
VERTEX
  8
0
 10
3526.1600000000003
 20
1181.8400000000001
 42
-0
  0
VERTEX
  8
0
 10
3526.1600000000003
 20
1481.8400000000001
 42
0
  0
VERTEX
  8
0
 10
3576.1600000000003
 20
1481.8400000000001
 42
0
  0
VERTEX
  8
0
 10
3576.1600000000003
 20
1407.2522924804689
 42
-0
  0
VERTEX
  8
0
 10
3567.7821580505374
 20
1407.2522924804689
 42
0
  0
VERTEX
  8
0
 10
3567.7821580505374
 20
1256.4277075195314
 42
0
  0
VERTEX
  8
0
 10
3576.1600000000003
 20
1256.4277075195314
 42
0
  0
VERTEX
  8
0
 10
3576.1600000000003
 20
1181.8400000000001
 42
0
  0
SEQEND
  0
POLYLINE
  8
0
 10
0
 20
0
 39
0
 70
1
 66
1
  0
VERTEX
  8
0
 10
3551.1600000000003
 20
1200.82250579834
 42
1
  0
VERTEX
  8
0
 10
3551.1600000000003
 20
1228.82250579834
 42
1
  0
SEQEND
  0
POLYLINE
  8
0
 10
0
 20
0
 39
0
 70
1
 66
1
  0
VERTEX
  8
0
 10
3551.1600000000003
 20
1434.8574865722658
 42
1
  0
VERTEX
  8
0
 10
3551.1600000000003
 20
1462.8574865722658
 42
1
  0
SEQEND
  0
ENDSEC
  0
EOF
