  0
SECTION
  2
ENTITIES
  0
POLYLINE
  8
0
 10
0
 20
0
 39
0
 70
1
 66
1
  0
VERTEX
  8
0
 10
0
 20
0
 42
0
  0
VERTEX
  8
0
 10
2000
 20
0
 42
0
  0
VERTEX
  8
0
 10
2000
 20
1000
 42
0
  0
VERTEX
  8
0
 10
0
 20
1000
 42
0
  0
SEQEND
  0
POLYLINE
  8
0
 10
0
 20
0
 39
0
 70
1
 66
1
  0
VERTEX
  8
0
 10
1300.4000000000001
 20
10.4
 42
-0
  0
VERTEX
  8
0
 10
10.400000000000091
 20
10.4
 42
0
  0
VERTEX
  8
0
 10
10.400000000000091
 20
250.40000000000001
 42
0
  0
VERTEX
  8
0
 10
1300.4000000000001
 20
250.40000000000001
 42
0
  0
SEQEND
  0
POLYLINE
  8
0
 10
0
 20
0
 39
0
 70
1
 66
1
  0
VERTEX
  8
0
 10
1101.5194152832032
 20
130.40000000000001
 42
-0
  0
VERTEX
  8
0
 10
726.40000000000009
 20
130.40000000000001
 42
1
  0
VERTEX
  8
0
 10
584.40000000000009
 20
130.40000000000001
 42
-0
  0
VERTEX
  8
0
 10
209.28061523437509
 20
130.40000000000001
 42
1.4933168888092041
  0
VERTEX
  8
0
 10
87.872290039062591
 20
80.400000000000006
 42
0
  0
VERTEX
  8
0
 10
1222.9277481079102
 20
80.400000000000006
 42
1.4933168888092041
  0
SEQEND
  0
POLYLINE
  8
0
 10
0
 20
0
 39
0
 70
1
 66
1
  0
VERTEX
  8
0
 10
1300.4000000000001
 20
260.60000000000002
 42
-0
  0
VERTEX
  8
0
 10
10.400000000000091
 20
260.60000000000002
 42
0
  0
VERTEX
  8
0
 10
10.400000000000091
 20
500.60000000000002
 42
0
  0
VERTEX
  8
0
 10
1300.4000000000001
 20
500.60000000000002
 42
0
  0
SEQEND
  0
POLYLINE
  8
0
 10
0
 20
0
 39
0
 70
1
 66
1
  0
VERTEX
  8
0
 10
1101.5194152832032
 20
380.60000000000002
 42
-0
  0
VERTEX
  8
0
 10
726.40000000000009
 20
380.60000000000002
 42
1
  0
VERTEX
  8
0
 10
584.40000000000009
 20
380.60000000000002
 42
-0
  0
VERTEX
  8
0
 10
209.28061523437509
 20
380.60000000000002
 42
1.4933168888092041
  0
VERTEX
  8
0
 10
87.872290039062591
 20
330.60000000000002
 42
0
  0
VERTEX
  8
0
 10
1222.9277481079102
 20
330.60000000000002
 42
1.4933168888092041
  0
SEQEND
  0
POLYLINE
  8
0
 10
0
 20
0
 39
0
 70
1
 66
1
  0
VERTEX
  8
0
 10
1300.4000000000001
 20
510.80000000000001
 42
-0
  0
VERTEX
  8
0
 10
10.400000000000091
 20
510.80000000000001
 42
0
  0
VERTEX
  8
0
 10
10.400000000000091
 20
750.79999999999995
 42
0
  0
VERTEX
  8
0
 10
1300.4000000000001
 20
750.79999999999995
 42
0
  0
SEQEND
  0
POLYLINE
  8
0
 10
0
 20
0
 39
0
 70
1
 66
1
  0
VERTEX
  8
0
 10
1101.5194152832032
 20
630.79999999999995
 42
-0
  0
VERTEX
  8
0
 10
726.40000000000009
 20
630.79999999999995
 42
1
  0
VERTEX
  8
0
 10
584.40000000000009
 20
630.79999999999995
 42
-0
  0
VERTEX
  8
0
 10
209.28061523437509
 20
630.79999999999995
 42
1.4933168888092041
  0
VERTEX
  8
0
 10
87.872290039062591
 20
580.79999999999995
 42
0
  0
VERTEX
  8
0
 10
1222.9277481079102
 20
580.79999999999995
 42
1.4933168888092041
  0
SEQEND
  0
POLYLINE
  8
0
 10
0
 20
0
 39
0
 70
1
 66
1
  0
VERTEX
  8
0
 10
1471.8000012966982
 20
629.20000331268807
 42
-0.94444441795349121
  0
VERTEX
  8
0
 10
1471.7999860379091
 20
989.20000000000005
 42
-0
  0
VERTEX
  8
0
 10
1601.7999860379091
 20
989.20000000000005
 42
-0
  0
VERTEX
  8
0
 10
1601.7999860379091
 20
629.20000000000005
 42
-0
  0
SEQEND
  0
POLYLINE
  8
0
 10
0
 20
0
 39
0
 70
1
 66
1
  0
VERTEX
  8
0
 10
1541.7999860379091
 20
798.70000000000005
 42
1
  0
VERTEX
  8
0
 10
1541.7999860379091
 20
819.70000000000005
 42
1
  0
SEQEND
  0
POLYLINE
  8
0
 10
0
 20
0
 39
0
 70
1
 66
1
  0
VERTEX
  8
0
 10
1421.7999860379091
 20
809.20000000000005
 42
-0.41421356797218323
  0
VERTEX
  8
0
 10
1541.7999860379091
 20
929.20000000000005
 42
1
  0
VERTEX
  8
0
 10
1541.7999860379091
 20
951.20000000000005
 42
0.41421356797218323
  0
VERTEX
  8
0
 10
1399.7999860379091
 20
809.20000000000005
 42
1
  0
SEQEND
  0
POLYLINE
  8
0
 10
0
 20
0
 39
0
 70
1
 66
1
  0
VERTEX
  8
0
 10
1480.8000012966982
 20
10.400003312688014
 42
-0.94444441795349121
  0
VERTEX
  8
0
 10
1480.7999860379091
 20
370.39999999999998
 42
-0
  0
VERTEX
  8
0
 10
1610.7999860379091
 20
370.39999999999998
 42
-0
  0
VERTEX
  8
0
 10
1610.7999860379091
 20
10.399999999999999
 42
-0
  0
SEQEND
  0
POLYLINE
  8
0
 10
0
 20
0
 39
0
 70
1
 66
1
  0
VERTEX
  8
0
 10
1550.7999860379091
 20
179.90000000000001
 42
1
  0
VERTEX
  8
0
 10
1550.7999860379091
 20
200.90000000000001
 42
1
  0
SEQEND
  0
POLYLINE
  8
0
 10
0
 20
0
 39
0
 70
1
 66
1
  0
VERTEX
  8
0
 10
1430.7999860379091
 20
190.39999999999998
 42
-0.41421356797218323
  0
VERTEX
  8
0
 10
1550.7999860379091
 20
310.39999999999998
 42
1
  0
VERTEX
  8
0
 10
1550.7999860379091
 20
332.39999999999998
 42
0.41421356797218323
  0
VERTEX
  8
0
 10
1408.7999860379091
 20
190.39999999999998
 42
1
  0
SEQEND
  0
POLYLINE
  8
0
 10
0
 20
0
 39
0
 70
1
 66
1
  0
VERTEX
  8
0
 10
1736.0000012966982
 20
324.60000331268805
 42
-0.94444441795349121
  0
VERTEX
  8
0
 10
1735.9999860379091
 20
684.60000000000002
 42
-0
  0
VERTEX
  8
0
 10
1865.9999860379091
 20
684.60000000000002
 42
-0
  0
VERTEX
  8
0
 10
1865.9999860379091
 20
324.60000000000002
 42
-0
  0
SEQEND
  0
POLYLINE
  8
0
 10
0
 20
0
 39
0
 70
1
 66
1
  0
VERTEX
  8
0
 10
1805.9999860379091
 20
494.10000000000002
 42
1
  0
VERTEX
  8
0
 10
1805.9999860379091
 20
515.10000000000002
 42
1
  0
SEQEND
  0
POLYLINE
  8
0
 10
0
 20
0
 39
0
 70
1
 66
1
  0
VERTEX
  8
0
 10
1685.9999860379091
 20
504.60000000000002
 42
-0.41421356797218323
  0
VERTEX
  8
0
 10
1805.9999860379091
 20
624.60000000000002
 42
1
  0
VERTEX
  8
0
 10
1805.9999860379091
 20
646.60000000000002
 42
0.41421356797218323
  0
VERTEX
  8
0
 10
1663.9999860379091
 20
504.60000000000002
 42
1
  0
SEQEND
  0
POLYLINE
  8
0
 10
0
 20
0
 39
0
 70
1
 66
1
  0
VERTEX
  8
0
 10
1980.999996687312
 20
180.40000129669829
 42
-0.94444441795349121
  0
VERTEX
  8
0
 10
1621
 20
180.39998603790923
 42
-0
  0
VERTEX
  8
0
 10
1621
 20
310.39998603790923
 42
-0
  0
VERTEX
  8
0
 10
1981
 20
310.39998603790923
 42
-0
  0
SEQEND
  0
POLYLINE
  8
0
 10
0
 20
0
 39
0
 70
1
 66
1
  0
VERTEX
  8
0
 10
1811.5
 20
250.39998603790923
 42
1
  0
VERTEX
  8
0
 10
1790.5
 20
250.39998603790923
 42
1
  0
SEQEND
  0
POLYLINE
  8
0
 10
0
 20
0
 39
0
 70
1
 66
1
  0
VERTEX
  8
0
 10
1801
 20
130.39998603790923
 42
-0.41421356797218323
  0
VERTEX
  8
0
 10
1681
 20
250.39998603790923
 42
1
  0
VERTEX
  8
0
 10
1659
 20
250.39998603790923
 42
0.41421356797218323
  0
VERTEX
  8
0
 10
1801
 20
108.39998603790923
 42
1
  0
SEQEND
  0
POLYLINE
  8
0
 10
0
 20
0
 39
0
 70
1
 66
1
  0
VERTEX
  8
0
 10
10.400000000000036
 20
912.59487748233073
 42
-0
  0
VERTEX
  8
0
 10
160.40000000000003
 20
912.59487748233073
 42
-0
  0
VERTEX
  8
0
 10
273.84934082031253
 20
847.09487748233073
 42
-0.97178131341934204
  0
VERTEX
  8
0
 10
245.36025085449222
 20
794.31775498477214
 42
0
  0
SEQEND
  0
POLYLINE
  8
0
 10
0
 20
0
 39
0
 70
1
 66
1
  0
VERTEX
  8
0
 10
176.40000000000003
 20
852.30769181338542
 42
1
  0
VERTEX
  8
0
 10
176.40000000000003
 20
884.30768990603679
 42
1
  0
SEQEND
  0
POLYLINE
  8
0
 10
0
 20
0
 39
0
 70
1
 66
1
  0
VERTEX
  8
0
 10
258.84932556152347
 20
805.11411881533854
 42
1
  0
VERTEX
  8
0
 10
258.84932556152347
 20
837.11411881533854
 42
1
  0
SEQEND
  0
POLYLINE
  8
0
 10
0
 20
0
 39
0
 70
1
 66
1
  0
VERTEX
  8
0
 10
288.8493373117596
 20
761
 42
-0
  0
VERTEX
  8
0
 10
138.8493373117596
 20
761
 42
-0
  0
VERTEX
  8
0
 10
25.399996491447098
 20
826.5
 42
-0.97178131341934204
  0
VERTEX
  8
0
 10
53.88908645726741
 20
879.27712249755859
 42
0
  0
SEQEND
  0
POLYLINE
  8
0
 10
0
 20
0
 39
0
 70
1
 66
1
  0
VERTEX
  8
0
 10
122.8493373117596
 20
821.28718566894531
 42
1
  0
VERTEX
  8
0
 10
122.8493373117596
 20
789.28718757629395
 42
1
  0
SEQEND
  0
POLYLINE
  8
0
 10
0
 20
0
 39
0
 70
1
 66
1
  0
VERTEX
  8
0
 10
40.40001175023616
 20
868.48075866699219
 42
1
  0
VERTEX
  8
0
 10
40.40001175023616
 20
836.48075866699219
 42
1
  0
SEQEND
  0
POLYLINE
  8
0
 10
0
 20
0
 39
0
 70
1
 66
1
  0
VERTEX
  8
0
 10
182.00000000000003
 20
989.79487748233078
 42
-0
  0
VERTEX
  8
0
 10
332
 20
989.79487748233078
 42
-0
  0
VERTEX
  8
0
 10
445.4493408203125
 20
924.29487748233078
 42
-0.97178131341934204
  0
VERTEX
  8
0
 10
416.96025085449219
 20
871.51775498477218
 42
0
  0
SEQEND
  0
POLYLINE
  8
0
 10
0
 20
0
 39
0
 70
1
 66
1
  0
VERTEX
  8
0
 10
348
 20
929.50769181338546
 42
1
  0
VERTEX
  8
0
 10
348
 20
961.50768990603683
 42
1
  0
SEQEND
  0
POLYLINE
  8
0
 10
0
 20
0
 39
0
 70
1
 66
1
  0
VERTEX
  8
0
 10
430.44932556152344
 20
882.31411881533859
 42
1
  0
VERTEX
  8
0
 10
430.44932556152344
 20
914.31411881533859
 42
1
  0
SEQEND
  0
POLYLINE
  8
0
 10
0
 20
0
 39
0
 70
1
 66
1
  0
VERTEX
  8
0
 10
460.44933731175956
 20
838.20000000000005
 42
-0
  0
VERTEX
  8
0
 10
310.44933731175956
 20
838.20000000000005
 42
-0
  0
VERTEX
  8
0
 10
196.99999649144706
 20
903.70000000000005
 42
-0.97178131341934204
  0
VERTEX
  8
0
 10
225.48908645726738
 20
956.47712249755864
 42
0
  0
SEQEND
  0
POLYLINE
  8
0
 10
0
 20
0
 39
0
 70
1
 66
1
  0
VERTEX
  8
0
 10
294.44933731175956
 20
898.48718566894536
 42
1
  0
VERTEX
  8
0
 10
294.44933731175956
 20
866.48718757629399
 42
1
  0
SEQEND
  0
POLYLINE
  8
0
 10
0
 20
0
 39
0
 70
1
 66
1
  0
VERTEX
  8
0
 10
212.00001175023613
 20
945.68075866699223
 42
1
  0
VERTEX
  8
0
 10
212.00001175023613
 20
913.68075866699223
 42
1
  0
SEQEND
  0
POLYLINE
  8
0
 10
0
 20
0
 39
0
 70
1
 66
1
  0
VERTEX
  8
0
 10
462.00000000000006
 20
923.79487748233078
 42
-0
  0
VERTEX
  8
0
 10
612
 20
923.79487748233078
 42
-0
  0
VERTEX
  8
0
 10
725.4493408203125
 20
858.29487748233078
 42
-0.97178131341934204
  0
VERTEX
  8
0
 10
696.96025085449219
 20
805.51775498477218
 42
0
  0
SEQEND
  0
POLYLINE
  8
0
 10
0
 20
0
 39
0
 70
1
 66
1
  0
VERTEX
  8
0
 10
628
 20
863.50769181338546
 42
1
  0
VERTEX
  8
0
 10
628
 20
895.50768990603683
 42
1
  0
SEQEND
  0
POLYLINE
  8
0
 10
0
 20
0
 39
0
 70
1
 66
1
  0
VERTEX
  8
0
 10
710.44932556152344
 20
816.31411881533859
 42
1
  0
VERTEX
  8
0
 10
710.44932556152344
 20
848.31411881533859
 42
1
  0
SEQEND
  0
POLYLINE
  8
0
 10
0
 20
0
 39
0
 70
1
 66
1
  0
VERTEX
  8
0
 10
740.44933731175956
 20
772.20000000000005
 42
-0
  0
VERTEX
  8
0
 10
590.44933731175956
 20
772.20000000000005
 42
-0
  0
VERTEX
  8
0
 10
476.99999649144706
 20
837.70000000000005
 42
-0.97178131341934204
  0
VERTEX
  8
0
 10
505.48908645726738
 20
890.47712249755864
 42
0
  0
SEQEND
  0
POLYLINE
  8
0
 10
0
 20
0
 39
0
 70
1
 66
1
  0
VERTEX
  8
0
 10
574.44933731175956
 20
832.48718566894536
 42
1
  0
VERTEX
  8
0
 10
574.44933731175956
 20
800.48718757629399
 42
1
  0
SEQEND
  0
POLYLINE
  8
0
 10
0
 20
0
 39
0
 70
1
 66
1
  0
VERTEX
  8
0
 10
492.00001175023613
 20
879.68075866699223
 42
1
  0
VERTEX
  8
0
 10
492.00001175023613
 20
847.68075866699223
 42
1
  0
SEQEND
  0
POLYLINE
  8
0
 10
0
 20
0
 39
0
 70
1
 66
1
  0
VERTEX
  8
0
 10
653
 20
989.79487748233078
 42
-0
  0
VERTEX
  8
0
 10
803
 20
989.79487748233078
 42
-0
  0
VERTEX
  8
0
 10
916.4493408203125
 20
924.29487748233078
 42
-0.97178131341934204
  0
VERTEX
  8
0
 10
887.96025085449219
 20
871.51775498477218
 42
0
  0
SEQEND
  0
POLYLINE
  8
0
 10
0
 20
0
 39
0
 70
1
 66
1
  0
VERTEX
  8
0
 10
819
 20
929.50769181338546
 42
1
  0
VERTEX
  8
0
 10
819
 20
961.50768990603683
 42
1
  0
SEQEND
  0
POLYLINE
  8
0
 10
0
 20
0
 39
0
 70
1
 66
1
  0
VERTEX
  8
0
 10
901.44932556152344
 20
882.31411881533859
 42
1
  0
VERTEX
  8
0
 10
901.44932556152344
 20
914.31411881533859
 42
1
  0
SEQEND
  0
POLYLINE
  8
0
 10
0
 20
0
 39
0
 70
1
 66
1
  0
VERTEX
  8
0
 10
931.44933731175956
 20
838.20000000000005
 42
-0
  0
VERTEX
  8
0
 10
781.44933731175956
 20
838.20000000000005
 42
-0
  0
VERTEX
  8
0
 10
667.99999649144706
 20
903.70000000000005
 42
-0.97178131341934204
  0
VERTEX
  8
0
 10
696.48908645726738
 20
956.47712249755864
 42
0
  0
SEQEND
  0
POLYLINE
  8
0
 10
0
 20
0
 39
0
 70
1
 66
1
  0
VERTEX
  8
0
 10
765.44933731175956
 20
898.48718566894536
 42
1
  0
VERTEX
  8
0
 10
765.44933731175956
 20
866.48718757629399
 42
1
  0
SEQEND
  0
POLYLINE
  8
0
 10
0
 20
0
 39
0
 70
1
 66
1
  0
VERTEX
  8
0
 10
683.00001175023613
 20
945.68075866699223
 42
1
  0
VERTEX
  8
0
 10
683.00001175023613
 20
913.68075866699223
 42
1
  0
SEQEND
  0
POLYLINE
  8
0
 10
0
 20
0
 39
0
 70
1
 66
1
  0
VERTEX
  8
0
 10
749.79999999999995
 20
822.20000000000005
 42
-0
  0
VERTEX
  8
0
 10
796.2372291564941
 20
822.20000000000005
 42
0.20908893644809723
  0
VERTEX
  8
0
 10
993.36277465820308
 20
822.20000000000016
 42
-0
  0
VERTEX
  8
0
 10
1039.8
 20
822.20000000000005
 42
0
  0
VERTEX
  8
0
 10
1039.8
 20
777.32932586669926
 42
-0
  0
VERTEX
  8
0
 10
993.58971862792964
 20
762.20000000000005
 42
0
  0
VERTEX
  8
0
 10
796.0102890014648
 20
762.20000000000005
 42
0
  0
VERTEX
  8
0
 10
749.79999999999995
 20
777.32932586669926
 42
0
  0
SEQEND
  0
POLYLINE
  8
0
 10
0
 20
0
 39
0
 70
1
 66
1
  0
VERTEX
  8
0
 10
997.94277648925777
 20
813.28931446075444
 42
-0.2103656679391861
  0
VERTEX
  8
0
 10
791.65722732543941
 20
813.28931446075444
 42
1
  0
VERTEX
  8
0
 10
784.0020988464355
 20
795.89968986511235
 42
0.2103656679391861
  0
VERTEX
  8
0
 10
1005.5978973388671
 20
795.89968986511235
 42
1
  0
SEQEND
  0
POLYLINE
  8
0
 10
0
 20
0
 39
0
 70
1
 66
1
  0
VERTEX
  8
0
 10
902.20000000000005
 20
989.60000000000002
 42
-0
  0
VERTEX
  8
0
 10
948.63722915649419
 20
989.60000000000002
 42
0.20908893644809723
  0
VERTEX
  8
0
 10
1145.7627746582032
 20
989.60000000000014
 42
-0
  0
VERTEX
  8
0
 10
1192.2
 20
989.60000000000002
 42
0
  0
VERTEX
  8
0
 10
1192.2
 20
944.72932586669924
 42
-0
  0
VERTEX
  8
0
 10
1145.9897186279297
 20
929.60000000000002
 42
0
  0
VERTEX
  8
0
 10
948.41028900146489
 20
929.60000000000002
 42
0
  0
VERTEX
  8
0
 10
902.20000000000005
 20
944.72932586669924
 42
0
  0
SEQEND
  0
POLYLINE
  8
0
 10
0
 20
0
 39
0
 70
1
 66
1
  0
VERTEX
  8
0
 10
1150.3427764892579
 20
980.68931446075442
 42
-0.2103656679391861
  0
VERTEX
  8
0
 10
944.0572273254395
 20
980.68931446075442
 42
1
  0
VERTEX
  8
0
 10
936.40209884643559
 20
963.29968986511233
 42
0.2103656679391861
  0
VERTEX
  8
0
 10
1157.9978973388672
 20
963.29968986511233
 42
1
  0
SEQEND
  0
POLYLINE
  8
0
 10
0
 20
0
 39
0
 70
1
 66
1
  0
VERTEX
  8
0
 10
1230.8
 20
843.20000000000005
 42
-0
  0
VERTEX
  8
0
 10
1184.3627708435058
 20
843.20000000000005
 42
0.20908893644809723
  0
VERTEX
  8
0
 10
987.23722534179683
 20
843.20000000000005
 42
-0
  0
VERTEX
  8
0
 10
940.79999999999995
 20
843.20000000000005
 42
0
  0
VERTEX
  8
0
 10
940.79999999999995
 20
888.07067413330083
 42
-0
  0
VERTEX
  8
0
 10
987.01028137207027
 20
903.20000000000005
 42
0
  0
VERTEX
  8
0
 10
1184.5897109985351
 20
903.20000000000005
 42
0
  0
VERTEX
  8
0
 10
1230.8
 20
888.07067413330083
 42
0
  0
SEQEND
  0
POLYLINE
  8
0
 10
0
 20
0
 39
0
 70
1
 66
1
  0
VERTEX
  8
0
 10
982.65722351074214
 20
852.11068553924565
 42
-0.2103656679391861
  0
VERTEX
  8
0
 10
1188.9427726745605
 20
852.11068553924565
 42
1
  0
VERTEX
  8
0
 10
1196.5979011535644
 20
869.50031013488774
 42
0.2103656679391861
  0
VERTEX
  8
0
 10
975.00210266113277
 20
869.50031013488774
 42
1
  0
SEQEND
  0
POLYLINE
  8
0
 10
0
 20
0
 39
0
 70
1
 66
1
  0
VERTEX
  8
0
 10
1310.8
 20
324.80000000000001
 42
-0
  0
VERTEX
  8
0
 10
1310.8
 20
371.23722915649415
 42
0.20908893644809723
  0
VERTEX
  8
0
 10
1310.8
 20
568.36277465820308
 42
-0
  0
VERTEX
  8
0
 10
1310.8
 20
614.79999999999995
 42
0
  0
VERTEX
  8
0
 10
1355.6706741333007
 20
614.79999999999995
 42
-0
  0
VERTEX
  8
0
 10
1370.8
 20
568.58971862792964
 42
0
  0
VERTEX
  8
0
 10
1370.8
 20
371.01028900146486
 42
0
  0
VERTEX
  8
0
 10
1355.6706741333007
 20
324.80000000000001
 42
0
  0
SEQEND
  0
POLYLINE
  8
0
 10
0
 20
0
 39
0
 70
1
 66
1
  0
VERTEX
  8
0
 10
1319.7106855392456
 20
572.94277648925777
 42
-0.2103656679391861
  0
VERTEX
  8
0
 10
1319.7106855392456
 20
366.65722732543946
 42
1
  0
VERTEX
  8
0
 10
1337.1003101348876
 20
359.00209884643556
 42
0.2103656679391861
  0
VERTEX
  8
0
 10
1337.1003101348876
 20
580.59789733886714
 42
1
  0
SEQEND
  0
POLYLINE
  8
0
 10
0
 20
0
 39
0
 70
1
 66
1
  0
VERTEX
  8
0
 10
1612
 20
673.39999999999998
 42
-0
  0
VERTEX
  8
0
 10
1612
 20
719.83722915649412
 42
0.20908893644809723
  0
VERTEX
  8
0
 10
1612
 20
916.9627746582031
 42
-0
  0
VERTEX
  8
0
 10
1612
 20
963.39999999999998
 42
0
  0
VERTEX
  8
0
 10
1656.8706741333008
 20
963.39999999999998
 42
-0
  0
VERTEX
  8
0
 10
1672
 20
917.18971862792966
 42
0
  0
VERTEX
  8
0
 10
1672
 20
719.61028900146482
 42
0
  0
VERTEX
  8
0
 10
1656.8706741333008
 20
673.39999999999998
 42
0
  0
SEQEND
  0
POLYLINE
  8
0
 10
0
 20
0
 39
0
 70
1
 66
1
  0
VERTEX
  8
0
 10
1620.9106855392456
 20
921.54277648925779
 42
-0.2103656679391861
  0
VERTEX
  8
0
 10
1620.9106855392456
 20
715.25722732543943
 42
1
  0
VERTEX
  8
0
 10
1638.3003101348877
 20
707.60209884643552
 42
0.2103656679391861
  0
VERTEX
  8
0
 10
1638.3003101348877
 20
929.19789733886716
 42
1
  0
SEQEND
  0
POLYLINE
  8
0
 10
0
 20
0
 39
0
 70
1
 66
1
  0
VERTEX
  8
0
 10
1682.4000000000001
 20
694.39999999999998
 42
-0
  0
VERTEX
  8
0
 10
1682.4000000000001
 20
740.83722915649412
 42
0.20908893644809723
  0
VERTEX
  8
0
 10
1682.4000000000001
 20
937.9627746582031
 42
-0
  0
VERTEX
  8
0
 10
1682.4000000000001
 20
984.39999999999998
 42
0
  0
VERTEX
  8
0
 10
1727.2706741333009
 20
984.39999999999998
 42
-0
  0
VERTEX
  8
0
 10
1742.4000000000001
 20
938.18971862792966
 42
0
  0
VERTEX
  8
0
 10
1742.4000000000001
 20
740.61028900146482
 42
0
  0
VERTEX
  8
0
 10
1727.2706741333009
 20
694.39999999999998
 42
0
  0
SEQEND
  0
POLYLINE
  8
0
 10
0
 20
0
 39
0
 70
1
 66
1
  0
VERTEX
  8
0
 10
1691.3106855392457
 20
942.54277648925779
 42
-0.2103656679391861
  0
VERTEX
  8
0
 10
1691.3106855392457
 20
736.25722732543943
 42
1
  0
VERTEX
  8
0
 10
1708.7003101348878
 20
728.60209884643552
 42
0.2103656679391861
  0
VERTEX
  8
0
 10
1708.7003101348878
 20
950.19789733886716
 42
1
  0
SEQEND
  0
POLYLINE
  8
0
 10
0
 20
0
 39
0
 70
1
 66
1
  0
VERTEX
  8
0
 10
1752.8
 20
694.79999999999995
 42
-0
  0
VERTEX
  8
0
 10
1752.8
 20
741.2372291564941
 42
0.20908893644809723
  0
VERTEX
  8
0
 10
1752.8
 20
938.36277465820308
 42
-0
  0
VERTEX
  8
0
 10
1752.8
 20
984.79999999999995
 42
0
  0
VERTEX
  8
0
 10
1797.6706741333007
 20
984.79999999999995
 42
-0
  0
VERTEX
  8
0
 10
1812.8
 20
938.58971862792964
 42
0
  0
VERTEX
  8
0
 10
1812.8
 20
741.0102890014648
 42
0
  0
VERTEX
  8
0
 10
1797.6706741333007
 20
694.79999999999995
 42
0
  0
SEQEND
  0
POLYLINE
  8
0
 10
0
 20
0
 39
0
 70
1
 66
1
  0
VERTEX
  8
0
 10
1761.7106855392456
 20
942.94277648925777
 42
-0.2103656679391861
  0
VERTEX
  8
0
 10
1761.7106855392456
 20
736.65722732543941
 42
1
  0
VERTEX
  8
0
 10
1779.1003101348876
 20
729.0020988464355
 42
0.2103656679391861
  0
VERTEX
  8
0
 10
1779.1003101348876
 20
950.59789733886714
 42
1
  0
SEQEND
  0
POLYLINE
  8
0
 10
0
 20
0
 39
0
 70
1
 66
1
  0
VERTEX
  8
0
 10
1823.2
 20
694.79999999999995
 42
-0
  0
VERTEX
  8
0
 10
1823.2
 20
741.2372291564941
 42
0.20908893644809723
  0
VERTEX
  8
0
 10
1823.2
 20
938.36277465820308
 42
-0
  0
VERTEX
  8
0
 10
1823.2
 20
984.79999999999995
 42
0
  0
VERTEX
  8
0
 10
1868.0706741333008
 20
984.79999999999995
 42
-0
  0
VERTEX
  8
0
 10
1883.2
 20
938.58971862792964
 42
0
  0
VERTEX
  8
0
 10
1883.2
 20
741.0102890014648
 42
0
  0
VERTEX
  8
0
 10
1868.0706741333008
 20
694.79999999999995
 42
0
  0
SEQEND
  0
POLYLINE
  8
0
 10
0
 20
0
 39
0
 70
1
 66
1
  0
VERTEX
  8
0
 10
1832.1106855392457
 20
942.94277648925777
 42
-0.2103656679391861
  0
VERTEX
  8
0
 10
1832.1106855392457
 20
736.65722732543941
 42
1
  0
VERTEX
  8
0
 10
1849.5003101348877
 20
729.0020988464355
 42
0.2103656679391861
  0
VERTEX
  8
0
 10
1849.5003101348877
 20
950.59789733886714
 42
1
  0
SEQEND
  0
POLYLINE
  8
0
 10
0
 20
0
 39
0
 70
1
 66
1
  0
VERTEX
  8
0
 10
1876.2
 20
320.39999999999998
 42
-0
  0
VERTEX
  8
0
 10
1876.2
 20
366.83722915649412
 42
0.20908893644809723
  0
VERTEX
  8
0
 10
1876.2
 20
563.9627746582031
 42
-0
  0
VERTEX
  8
0
 10
1876.2
 20
610.39999999999998
 42
0
  0
VERTEX
  8
0
 10
1921.0706741333008
 20
610.39999999999998
 42
-0
  0
VERTEX
  8
0
 10
1936.2
 20
564.18971862792966
 42
0
  0
VERTEX
  8
0
 10
1936.2
 20
366.61028900146482
 42
0
  0
VERTEX
  8
0
 10
1921.0706741333008
 20
320.39999999999998
 42
0
  0
SEQEND
  0
POLYLINE
  8
0
 10
0
 20
0
 39
0
 70
1
 66
1
  0
VERTEX
  8
0
 10
1885.1106855392457
 20
568.54277648925779
 42
-0.2103656679391861
  0
VERTEX
  8
0
 10
1885.1106855392457
 20
362.25722732543943
 42
1
  0
VERTEX
  8
0
 10
1902.5003101348877
 20
354.60209884643552
 42
0.2103656679391861
  0
VERTEX
  8
0
 10
1902.5003101348877
 20
576.19789733886716
 42
1
  0
SEQEND
  0
POLYLINE
  8
0
 10
0
 20
0
 39
0
 70
1
 66
1
  0
VERTEX
  8
0
 10
1893.5999999999999
 20
620.60000000000002
 42
-0
  0
VERTEX
  8
0
 10
1893.5999999999999
 20
667.03722915649416
 42
0.20908893644809723
  0
VERTEX
  8
0
 10
1893.5999999999999
 20
864.16277465820315
 42
-0
  0
VERTEX
  8
0
 10
1893.5999999999999
 20
910.60000000000002
 42
0
  0
VERTEX
  8
0
 10
1938.4706741333007
 20
910.60000000000002
 42
-0
  0
VERTEX
  8
0
 10
1953.5999999999999
 20
864.38971862792971
 42
0
  0
VERTEX
  8
0
 10
1953.5999999999999
 20
666.81028900146487
 42
0
  0
VERTEX
  8
0
 10
1938.4706741333007
 20
620.60000000000002
 42
0
  0
SEQEND
  0
POLYLINE
  8
0
 10
0
 20
0
 39
0
 70
1
 66
1
  0
VERTEX
  8
0
 10
1902.5106855392455
 20
868.74277648925784
 42
-0.2103656679391861
  0
VERTEX
  8
0
 10
1902.5106855392455
 20
662.45722732543948
 42
1
  0
VERTEX
  8
0
 10
1919.9003101348876
 20
654.80209884643557
 42
0.2103656679391861
  0
VERTEX
  8
0
 10
1919.9003101348876
 20
876.39789733886721
 42
1
  0
SEQEND
  0
POLYLINE
  8
0
 10
0
 20
0
 39
0
 70
1
 66
1
  0
VERTEX
  8
0
 10
165.40000000000001
 20
922.60000000000002
 42
-0
  0
VERTEX
  8
0
 10
10.400000000000006
 20
922.60000000000002
 42
0
  0
VERTEX
  8
0
 10
10.400000000000006
 20
948.80387077331545
 42
-0
  0
VERTEX
  8
0
 10
34.196127319335943
 20
972.60000000000002
 42
0
  0
VERTEX
  8
0
 10
165.40000000000001
 20
972.60000000000002
 42
0
  0
SEQEND
  0
POLYLINE
  8
0
 10
0
 20
0
 39
0
 70
1
 66
1
  0
VERTEX
  8
0
 10
152.97605648040772
 20
947.60000000000002
 42
1
  0
VERTEX
  8
0
 10
124.97605743408204
 20
947.60000000000002
 42
1
  0
SEQEND
  0
POLYLINE
  8
0
 10
0
 20
0
 39
0
 70
1
 66
1
  0
VERTEX
  8
0
 10
447
 20
771.20000000000005
 42
-0
  0
VERTEX
  8
0
 10
292
 20
771.20000000000005
 42
0
  0
VERTEX
  8
0
 10
292
 20
797.40387077331548
 42
-0
  0
VERTEX
  8
0
 10
315.79612731933594
 20
821.20000000000005
 42
0
  0
VERTEX
  8
0
 10
447
 20
821.20000000000005
 42
0
  0
SEQEND
  0
POLYLINE
  8
0
 10
0
 20
0
 39
0
 70
1
 66
1
  0
VERTEX
  8
0
 10
434.57605648040771
 20
796.20000000000005
 42
1
  0
VERTEX
  8
0
 10
406.57605743408203
 20
796.20000000000005
 42
1
  0
SEQEND
  0
POLYLINE
  8
0
 10
0
 20
0
 39
0
 70
1
 66
1
  0
VERTEX
  8
0
 10
595
 20
939.60000000000002
 42
-0
  0
VERTEX
  8
0
 10
440
 20
939.60000000000002
 42
0
  0
VERTEX
  8
0
 10
440
 20
965.80387077331545
 42
-0
  0
VERTEX
  8
0
 10
463.79612731933594
 20
989.60000000000002
 42
0
  0
VERTEX
  8
0
 10
595
 20
989.60000000000002
 42
0
  0
SEQEND
  0
POLYLINE
  8
0
 10
0
 20
0
 39
0
 70
1
 66
1
  0
VERTEX
  8
0
 10
582.57605648040771
 20
964.60000000000002
 42
1
  0
VERTEX
  8
0
 10
554.57605743408203
 20
964.60000000000002
 42
1
  0
SEQEND
  0
POLYLINE
  8
0
 10
0
 20
0
 39
0
 70
1
 66
1
  0
VERTEX
  8
0
 10
1205.2
 20
761
 42
-0
  0
VERTEX
  8
0
 10
1050.2
 20
761
 42
0
  0
VERTEX
  8
0
 10
1050.2
 20
787.20387077331543
 42
-0
  0
VERTEX
  8
0
 10
1073.996127319336
 20
811
 42
0
  0
VERTEX
  8
0
 10
1205.2
 20
811
 42
0
  0
SEQEND
  0
POLYLINE
  8
0
 10
0
 20
0
 39
0
 70
1
 66
1
  0
VERTEX
  8
0
 10
1192.7760564804078
 20
786
 42
1
  0
VERTEX
  8
0
 10
1164.7760574340821
 20
786
 42
1
  0
SEQEND
  0
POLYLINE
  8
0
 10
0
 20
0
 39
0
 70
1
 66
1
  0
VERTEX
  8
0
 10
1241.2
 20
761
 42
-0
  0
VERTEX
  8
0
 10
1241.2
 20
916
 42
0
  0
VERTEX
  8
0
 10
1267.4038707733155
 20
916
 42
-0
  0
VERTEX
  8
0
 10
1291.2
 20
892.20387268066406
 42
0
  0
VERTEX
  8
0
 10
1291.2
 20
761
 42
0
  0
SEQEND
  0
POLYLINE
  8
0
 10
0
 20
0
 39
0
 70
1
 66
1
  0
VERTEX
  8
0
 10
1266.2
 20
773.42394351959229
 42
1
  0
VERTEX
  8
0
 10
1266.2
 20
801.42394256591797
 42
1
  0
SEQEND
  0
POLYLINE
  8
0
 10
0
 20
0
 39
0
 70
1
 66
1
  0
VERTEX
  8
0
 10
1202.5999999999999
 20
980.60000000000002
 42
-0
  0
VERTEX
  8
0
 10
1357.5999999999999
 20
980.60000000000002
 42
0
  0
VERTEX
  8
0
 10
1357.5999999999999
 20
954.39612922668459
 42
-0
  0
VERTEX
  8
0
 10
1333.803872680664
 20
930.60000000000002
 42
0
  0
VERTEX
  8
0
 10
1202.5999999999999
 20
930.60000000000002
 42
0
  0
SEQEND
  0
POLYLINE
  8
0
 10
0
 20
0
 39
0
 70
1
 66
1
  0
VERTEX
  8
0
 10
1215.0239435195922
 20
955.60000000000002
 42
1
  0
VERTEX
  8
0
 10
1243.0239425659179
 20
955.60000000000002
 42
1
  0
SEQEND
  0
POLYLINE
  8
0
 10
0
 20
0
 39
0
 70
1
 66
1
  0
VERTEX
  8
0
 10
1381.2
 20
371.60000000000002
 42
-0
  0
VERTEX
  8
0
 10
1381.2
 20
526.60000000000002
 42
0
  0
VERTEX
  8
0
 10
1407.4038707733155
 20
526.60000000000002
 42
-0
  0
VERTEX
  8
0
 10
1431.2
 20
502.80387268066409
 42
0
  0
VERTEX
  8
0
 10
1431.2
 20
371.60000000000002
 42
0
  0
SEQEND
  0
POLYLINE
  8
0
 10
0
 20
0
 39
0
 70
1
 66
1
  0
VERTEX
  8
0
 10
1406.2
 20
384.02394351959231
 42
1
  0
VERTEX
  8
0
 10
1406.2
 20
412.02394256591799
 42
1
  0
SEQEND
  0
POLYLINE
  8
0
 10
0
 20
0
 39
0
 70
1
 66
1
  0
VERTEX
  8
0
 10
1441.5999999999999
 20
380.60000000000002
 42
-0
  0
VERTEX
  8
0
 10
1441.5999999999999
 20
535.60000000000002
 42
0
  0
VERTEX
  8
0
 10
1467.8038707733153
 20
535.60000000000002
 42
-0
  0
VERTEX
  8
0
 10
1491.5999999999999
 20
511.80387268066409
 42
0
  0
VERTEX
  8
0
 10
1491.5999999999999
 20
380.60000000000002
 42
0
  0
SEQEND
  0
POLYLINE
  8
0
 10
0
 20
0
 39
0
 70
1
 66
1
  0
VERTEX
  8
0
 10
1466.5999999999999
 20
393.02394351959231
 42
1
  0
VERTEX
  8
0
 10
1466.5999999999999
 20
421.02394256591799
 42
1
  0
SEQEND
  0
POLYLINE
  8
0
 10
0
 20
0
 39
0
 70
1
 66
1
  0
VERTEX
  8
0
 10
1536.2
 20
545.79999999999995
 42
-0
  0
VERTEX
  8
0
 10
1381.2
 20
545.79999999999995
 42
0
  0
VERTEX
  8
0
 10
1381.2
 20
572.00387077331538
 42
-0
  0
VERTEX
  8
0
 10
1404.996127319336
 20
595.79999999999995
 42
0
  0
VERTEX
  8
0
 10
1536.2
 20
595.79999999999995
 42
0
  0
SEQEND
  0
POLYLINE
  8
0
 10
0
 20
0
 39
0
 70
1
 66
1
  0
VERTEX
  8
0
 10
1523.7760564804078
 20
570.79999999999995
 42
1
  0
VERTEX
  8
0
 10
1495.7760574340821
 20
570.79999999999995
 42
1
  0
SEQEND
  0
POLYLINE
  8
0
 10
0
 20
0
 39
0
 70
1
 66
1
  0
VERTEX
  8
0
 10
1502
 20
380.60000000000002
 42
-0
  0
VERTEX
  8
0
 10
1502
 20
535.60000000000002
 42
0
  0
VERTEX
  8
0
 10
1528.2038707733154
 20
535.60000000000002
 42
-0
  0
VERTEX
  8
0
 10
1552
 20
511.80387268066409
 42
0
  0
VERTEX
  8
0
 10
1552
 20
380.60000000000002
 42
0
  0
SEQEND
  0
POLYLINE
  8
0
 10
0
 20
0
 39
0
 70
1
 66
1
  0
VERTEX
  8
0
 10
1527
 20
393.02394351959231
 42
1
  0
VERTEX
  8
0
 10
1527
 20
421.02394256591799
 42
1
  0
SEQEND
  0
POLYLINE
  8
0
 10
0
 20
0
 39
0
 70
1
 66
1
  0
VERTEX
  8
0
 10
120.88543980830966
 20
175.79959385885542
 42
-1
  0
VERTEX
  8
0
 10
120.51455853257013
 20
90.800404482024362
 42
-1
  0
SEQEND
  0
POLYLINE
  8
0
 10
0
 20
0
 39
0
 70
1
 66
1
  0
VERTEX
  8
0
 10
120.7654488073351
 20
148.29985611929243
 42
1
  0
VERTEX
  8
0
 10
120.63454953354469
 20
118.30014222158735
 42
1
  0
SEQEND
  0
POLYLINE
  8
0
 10
0
 20
0
 39
0
 70
1
 66
1
  0
VERTEX
  8
0
 10
120.88543980830966
 20
425.99959385885541
 42
-1
  0
VERTEX
  8
0
 10
120.51455853257013
 20
341.00040448202435
 42
-1
  0
SEQEND
  0
POLYLINE
  8
0
 10
0
 20
0
 39
0
 70
1
 66
1
  0
VERTEX
  8
0
 10
120.7654488073351
 20
398.49985611929242
 42
1
  0
VERTEX
  8
0
 10
120.63454953354469
 20
368.50014222158734
 42
1
  0
SEQEND
  0
POLYLINE
  8
0
 10
0
 20
0
 39
0
 70
1
 66
1
  0
VERTEX
  8
0
 10
120.88543980830966
 20
676.19959385885545
 42
-1
  0
VERTEX
  8
0
 10
120.51455853257013
 20
591.2004044820244
 42
-1
  0
SEQEND
  0
POLYLINE
  8
0
 10
0
 20
0
 39
0
 70
1
 66
1
  0
VERTEX
  8
0
 10
120.7654488073351
 20
648.69985611929246
 42
1
  0
VERTEX
  8
0
 10
120.63454953354469
 20
618.70014222158738
 42
1
  0
SEQEND
  0
POLYLINE
  8
0
 10
0
 20
0
 39
0
 70
1
 66
1
  0
VERTEX
  8
0
 10
638.08543980830962
 20
175.79959385885542
 42
-1
  0
VERTEX
  8
0
 10
637.71455853257009
 20
90.800404482024362
 42
-1
  0
SEQEND
  0
POLYLINE
  8
0
 10
0
 20
0
 39
0
 70
1
 66
1
  0
VERTEX
  8
0
 10
637.96544880733506
 20
148.29985611929243
 42
1
  0
VERTEX
  8
0
 10
637.83454953354465
 20
118.30014222158735
 42
1
  0
SEQEND
  0
POLYLINE
  8
0
 10
0
 20
0
 39
0
 70
1
 66
1
  0
VERTEX
  8
0
 10
638.08543980830962
 20
425.99959385885541
 42
-1
  0
VERTEX
  8
0
 10
637.71455853257009
 20
341.00040448202435
 42
-1
  0
SEQEND
  0
POLYLINE
  8
0
 10
0
 20
0
 39
0
 70
1
 66
1
  0
VERTEX
  8
0
 10
637.96544880733506
 20
398.49985611929242
 42
1
  0
VERTEX
  8
0
 10
637.83454953354465
 20
368.50014222158734
 42
1
  0
SEQEND
  0
POLYLINE
  8
0
 10
0
 20
0
 39
0
 70
1
 66
1
  0
VERTEX
  8
0
 10
638.08543980830962
 20
676.19959385885545
 42
-1
  0
VERTEX
  8
0
 10
637.71455853257009
 20
591.2004044820244
 42
-1
  0
SEQEND
  0
POLYLINE
  8
0
 10
0
 20
0
 39
0
 70
1
 66
1
  0
VERTEX
  8
0
 10
637.96544880733506
 20
648.69985611929246
 42
1
  0
VERTEX
  8
0
 10
637.83454953354465
 20
618.70014222158738
 42
1
  0
SEQEND
  0
POLYLINE
  8
0
 10
0
 20
0
 39
0
 70
1
 66
1
  0
VERTEX
  8
0
 10
1155.0854398083097
 20
175.79959385885542
 42
-1
  0
VERTEX
  8
0
 10
1154.7145585325702
 20
90.800404482024362
 42
-1
  0
SEQEND
  0
POLYLINE
  8
0
 10
0
 20
0
 39
0
 70
1
 66
1
  0
VERTEX
  8
0
 10
1154.9654488073352
 20
148.29985611929243
 42
1
  0
VERTEX
  8
0
 10
1154.8345495335448
 20
118.30014222158735
 42
1
  0
SEQEND
  0
POLYLINE
  8
0
 10
0
 20
0
 39
0
 70
1
 66
1
  0
VERTEX
  8
0
 10
1155.0854398083097
 20
425.99959385885541
 42
-1
  0
VERTEX
  8
0
 10
1154.7145585325702
 20
341.00040448202435
 42
-1
  0
SEQEND
  0
POLYLINE
  8
0
 10
0
 20
0
 39
0
 70
1
 66
1
  0
VERTEX
  8
0
 10
1154.9654488073352
 20
398.49985611929242
 42
1
  0
VERTEX
  8
0
 10
1154.8345495335448
 20
368.50014222158734
 42
1
  0
SEQEND
  0
POLYLINE
  8
0
 10
0
 20
0
 39
0
 70
1
 66
1
  0
VERTEX
  8
0
 10
1155.0854398083097
 20
676.19959385885545
 42
-1
  0
VERTEX
  8
0
 10
1154.7145585325702
 20
591.2004044820244
 42
-1
  0
SEQEND
  0
POLYLINE
  8
0
 10
0
 20
0
 39
0
 70
1
 66
1
  0
VERTEX
  8
0
 10
1154.9654488073352
 20
648.69985611929246
 42
1
  0
VERTEX
  8
0
 10
1154.8345495335448
 20
618.70014222158738
 42
1
  0
SEQEND
  0
ENDSEC
  0
EOF
