  0
SECTION
  2
ENTITIES
  0
POLYLINE
  8
0
 10
0
 20
0
 39
0
 70
1
 66
1
  0
VERTEX
  8
0
 10
0
 20
0
 42
-0
  0
VERTEX
  8
0
 10
1500
 20
0
 42
-0
  0
VERTEX
  8
0
 10
1500
 20
800
 42
-0
  0
VERTEX
  8
0
 10
0
 20
800
 42
-0
  0
SEQEND
  0
POLYLINE
  8
0
 10
0
 20
0
 39
0
 70
1
 66
1
  0
VERTEX
  8
0
 10
1453
 20
10
 42
0
  0
VERTEX
  8
0
 10
1488
 20
10
 42
0
  0
VERTEX
  8
0
 10
1488
 20
264
 42
0
  0
VERTEX
  8
0
 10
1470.5
 20
264
 42
0
  0
VERTEX
  8
0
 10
1470.5
 20
300
 42
0
  0
VERTEX
  8
0
 10
1488
 20
300
 42
0
  0
VERTEX
  8
0
 10
1488
 20
324
 42
-0
  0
VERTEX
  8
0
 10
1453
 20
324
 42
-0
  0
SEQEND
  0
POLYLINE
  8
0
 10
0
 20
0
 39
0
 70
1
 66
1
  0
VERTEX
  8
0
 10
1460.5
 20
46.549476623535156
 42
-1
  0
VERTEX
  8
0
 10
1480.5
 20
46.549476623535156
 42
-1
  0
SEQEND
  0
POLYLINE
  8
0
 10
0
 20
0
 39
0
 70
1
 66
1
  0
VERTEX
  8
0
 10
603
 20
588
 42
0
  0
VERTEX
  8
0
 10
533
 20
588
 42
-0
  0
VERTEX
  8
0
 10
523
 20
578
 42
0
  0
VERTEX
  8
0
 10
523
 20
520
 42
0
  0
VERTEX
  8
0
 10
688
 20
520
 42
-0
  0
SEQEND
  0
POLYLINE
  8
0
 10
0
 20
0
 39
0
 70
1
 66
1
  0
VERTEX
  8
0
 10
561.5
 20
563
 42
-1
  0
VERTEX
  8
0
 10
574.5
 20
563
 42
-1
  0
SEQEND
  0
POLYLINE
  8
0
 10
0
 20
0
 39
0
 70
1
 66
1
  0
VERTEX
  8
0
 10
704.28497314453125
 20
520
 42
0
  0
VERTEX
  8
0
 10
774.28497314453125
 20
520
 42
-0
  0
VERTEX
  8
0
 10
784.28497314453125
 20
530
 42
0
  0
VERTEX
  8
0
 10
784.28497314453125
 20
588
 42
0
  0
VERTEX
  8
0
 10
619.28497314453125
 20
588
 42
-0
  0
SEQEND
  0
POLYLINE
  8
0
 10
0
 20
0
 39
0
 70
1
 66
1
  0
VERTEX
  8
0
 10
745.78497314453125
 20
545
 42
-1
  0
VERTEX
  8
0
 10
732.78497314453125
 20
545
 42
-1
  0
SEQEND
  0
POLYLINE
  8
0
 10
0
 20
0
 39
0
 70
1
 66
1
  0
VERTEX
  8
0
 10
943
 20
510
 42
0
  0
VERTEX
  8
0
 10
943
 20
10
 42
0
  0
VERTEX
  8
0
 10
1143
 20
10
 42
0
  0
VERTEX
  8
0
 10
1143
 20
510
 42
0
  0
SEQEND
  0
POLYLINE
  8
0
 10
0
 20
0
 39
0
 70
1
 66
1
  0
VERTEX
  8
0
 10
1104.885009765625
 20
75.31097412109375
 42
-1
  0
VERTEX
  8
0
 10
1104.885009765625
 20
39.31097412109375
 42
-1
  0
SEQEND
  0
POLYLINE
  8
0
 10
0
 20
0
 39
0
 70
1
 66
1
  0
VERTEX
  8
0
 10
1043
 20
312
 42
-1
  0
VERTEX
  8
0
 10
1043
 20
208
 42
-1
  0
SEQEND
  0
POLYLINE
  8
0
 10
0
 20
0
 39
0
 70
1
 66
1
  0
VERTEX
  8
0
 10
733
 20
510
 42
0
  0
VERTEX
  8
0
 10
733
 20
10
 42
0
  0
VERTEX
  8
0
 10
933
 20
10
 42
0
  0
VERTEX
  8
0
 10
933
 20
510
 42
0
  0
SEQEND
  0
POLYLINE
  8
0
 10
0
 20
0
 39
0
 70
1
 66
1
  0
VERTEX
  8
0
 10
894.88507080078125
 20
75.31097412109375
 42
-1
  0
VERTEX
  8
0
 10
894.88507080078125
 20
39.31097412109375
 42
-1
  0
SEQEND
  0
POLYLINE
  8
0
 10
0
 20
0
 39
0
 70
1
 66
1
  0
VERTEX
  8
0
 10
833
 20
312
 42
-1
  0
VERTEX
  8
0
 10
833
 20
208
 42
-1
  0
SEQEND
  0
POLYLINE
  8
0
 10
0
 20
0
 39
0
 70
1
 66
1
  0
VERTEX
  8
0
 10
1261.2850341796875
 20
701.28497314453125
 42
0
  0
VERTEX
  8
0
 10
1261.2850341796875
 20
771.28497314453125
 42
-0
  0
VERTEX
  8
0
 10
1251.2850341796875
 20
781.28497314453125
 42
0
  0
VERTEX
  8
0
 10
1193.2850341796875
 20
781.28497314453125
 42
0
  0
VERTEX
  8
0
 10
1193.2850341796875
 20
616.28497314453125
 42
-0
  0
SEQEND
  0
POLYLINE
  8
0
 10
0
 20
0
 39
0
 70
1
 66
1
  0
VERTEX
  8
0
 10
1236.2850341796875
 20
742.78497314453125
 42
-1
  0
VERTEX
  8
0
 10
1236.2850341796875
 20
729.78497314453125
 42
-1
  0
SEQEND
  0
POLYLINE
  8
0
 10
0
 20
0
 39
0
 70
1
 66
1
  0
VERTEX
  8
0
 10
1193.2850341796875
 20
600
 42
0
  0
VERTEX
  8
0
 10
1193.2850341796875
 20
530
 42
-0
  0
VERTEX
  8
0
 10
1203.2850341796875
 20
520
 42
0
  0
VERTEX
  8
0
 10
1261.2850341796875
 20
520
 42
0
  0
VERTEX
  8
0
 10
1261.2850341796875
 20
685
 42
-0
  0
SEQEND
  0
POLYLINE
  8
0
 10
0
 20
0
 39
0
 70
1
 66
1
  0
VERTEX
  8
0
 10
1218.2850341796875
 20
558.5
 42
-1
  0
VERTEX
  8
0
 10
1218.2850341796875
 20
571.5
 42
-1
  0
SEQEND
  0
POLYLINE
  8
0
 10
0
 20
0
 39
0
 70
1
 66
1
  0
VERTEX
  8
0
 10
513
 20
191.28500366210937
 42
0
  0
VERTEX
  8
0
 10
513
 20
261.28500366210937
 42
-0
  0
VERTEX
  8
0
 10
503
 20
271.28500366210937
 42
0
  0
VERTEX
  8
0
 10
445
 20
271.28500366210937
 42
0
  0
VERTEX
  8
0
 10
445
 20
106.28500366210937
 42
-0
  0
SEQEND
  0
POLYLINE
  8
0
 10
0
 20
0
 39
0
 70
1
 66
1
  0
VERTEX
  8
0
 10
488
 20
232.78500366210937
 42
-1
  0
VERTEX
  8
0
 10
488
 20
219.78500366210937
 42
-1
  0
SEQEND
  0
POLYLINE
  8
0
 10
0
 20
0
 39
0
 70
1
 66
1
  0
VERTEX
  8
0
 10
445
 20
90
 42
0
  0
VERTEX
  8
0
 10
445
 20
20
 42
-0
  0
VERTEX
  8
0
 10
455
 20
10
 42
0
  0
VERTEX
  8
0
 10
513
 20
10
 42
0
  0
VERTEX
  8
0
 10
513
 20
175
 42
-0
  0
SEQEND
  0
POLYLINE
  8
0
 10
0
 20
0
 39
0
 70
1
 66
1
  0
VERTEX
  8
0
 10
470
 20
48.5
 42
-1
  0
VERTEX
  8
0
 10
470
 20
61.5
 42
-1
  0
SEQEND
  0
POLYLINE
  8
0
 10
0
 20
0
 39
0
 70
1
 66
1
  0
VERTEX
  8
0
 10
1153
 20
510
 42
0
  0
VERTEX
  8
0
 10
1153
 20
10
 42
0
  0
VERTEX
  8
0
 10
1353
 20
10
 42
0
  0
VERTEX
  8
0
 10
1353
 20
510
 42
0
  0
SEQEND
  0
POLYLINE
  8
0
 10
0
 20
0
 39
0
 70
1
 66
1
  0
VERTEX
  8
0
 10
1314.885009765625
 20
75.31097412109375
 42
-1
  0
VERTEX
  8
0
 10
1314.885009765625
 20
39.31097412109375
 42
-1
  0
SEQEND
  0
POLYLINE
  8
0
 10
0
 20
0
 39
0
 70
1
 66
1
  0
VERTEX
  8
0
 10
1253
 20
312
 42
-1
  0
VERTEX
  8
0
 10
1253
 20
208
 42
-1
  0
SEQEND
  0
POLYLINE
  8
0
 10
0
 20
0
 39
0
 70
1
 66
1
  0
VERTEX
  8
0
 10
523
 20
510
 42
0
  0
VERTEX
  8
0
 10
523
 20
10
 42
0
  0
VERTEX
  8
0
 10
723
 20
10
 42
0
  0
VERTEX
  8
0
 10
723
 20
510
 42
0
  0
SEQEND
  0
POLYLINE
  8
0
 10
0
 20
0
 39
0
 70
1
 66
1
  0
VERTEX
  8
0
 10
684.88507080078125
 20
75.31097412109375
 42
-1
  0
VERTEX
  8
0
 10
684.88507080078125
 20
39.31097412109375
 42
-1
  0
SEQEND
  0
POLYLINE
  8
0
 10
0
 20
0
 39
0
 70
1
 66
1
  0
VERTEX
  8
0
 10
623
 20
312
 42
-1
  0
VERTEX
  8
0
 10
623
 20
208
 42
-1
  0
SEQEND
  0
POLYLINE
  8
0
 10
0
 20
0
 39
0
 70
1
 66
1
  0
VERTEX
  8
0
 10
924
 20
789
 42
0
  0
VERTEX
  8
0
 10
854
 20
789
 42
-0
  0
VERTEX
  8
0
 10
844
 20
779
 42
0
  0
VERTEX
  8
0
 10
844
 20
721
 42
0
  0
VERTEX
  8
0
 10
1009
 20
721
 42
-0
  0
SEQEND
  0
POLYLINE
  8
0
 10
0
 20
0
 39
0
 70
1
 66
1
  0
VERTEX
  8
0
 10
882.5
 20
764
 42
-1
  0
VERTEX
  8
0
 10
895.5
 20
764
 42
-1
  0
SEQEND
  0
POLYLINE
  8
0
 10
0
 20
0
 39
0
 70
1
 66
1
  0
VERTEX
  8
0
 10
1025.2850341796875
 20
721
 42
0
  0
VERTEX
  8
0
 10
1095.2850341796875
 20
721
 42
-0
  0
VERTEX
  8
0
 10
1105.2850341796875
 20
731
 42
0
  0
VERTEX
  8
0
 10
1105.2850341796875
 20
789
 42
0
  0
VERTEX
  8
0
 10
940.28497314453125
 20
789
 42
-0
  0
SEQEND
  0
POLYLINE
  8
0
 10
0
 20
0
 39
0
 70
1
 66
1
  0
VERTEX
  8
0
 10
1066.7850341796875
 20
746
 42
-1
  0
VERTEX
  8
0
 10
1053.7850341796875
 20
746
 42
-1
  0
SEQEND
  0
POLYLINE
  8
0
 10
0
 20
0
 39
0
 70
1
 66
1
  0
VERTEX
  8
0
 10
1339.2850341796875
 20
701.28497314453125
 42
0
  0
VERTEX
  8
0
 10
1339.2850341796875
 20
771.28497314453125
 42
-0
  0
VERTEX
  8
0
 10
1329.2850341796875
 20
781.28497314453125
 42
0
  0
VERTEX
  8
0
 10
1271.2850341796875
 20
781.28497314453125
 42
0
  0
VERTEX
  8
0
 10
1271.2850341796875
 20
616.28497314453125
 42
-0
  0
SEQEND
  0
POLYLINE
  8
0
 10
0
 20
0
 39
0
 70
1
 66
1
  0
VERTEX
  8
0
 10
1314.2850341796875
 20
742.78497314453125
 42
-1
  0
VERTEX
  8
0
 10
1314.2850341796875
 20
729.78497314453125
 42
-1
  0
SEQEND
  0
POLYLINE
  8
0
 10
0
 20
0
 39
0
 70
1
 66
1
  0
VERTEX
  8
0
 10
1271.2850341796875
 20
600
 42
0
  0
VERTEX
  8
0
 10
1271.2850341796875
 20
530
 42
-0
  0
VERTEX
  8
0
 10
1281.2850341796875
 20
520
 42
0
  0
VERTEX
  8
0
 10
1339.2850341796875
 20
520
 42
0
  0
VERTEX
  8
0
 10
1339.2850341796875
 20
685
 42
-0
  0
SEQEND
  0
POLYLINE
  8
0
 10
0
 20
0
 39
0
 70
1
 66
1
  0
VERTEX
  8
0
 10
1296.2850341796875
 20
558.5
 42
-1
  0
VERTEX
  8
0
 10
1296.2850341796875
 20
571.5
 42
-1
  0
SEQEND
  0
POLYLINE
  8
0
 10
0
 20
0
 39
0
 70
1
 66
1
  0
VERTEX
  8
0
 10
478
 20
281.28500366210937
 42
0
  0
VERTEX
  8
0
 10
513
 20
281.28500366210937
 42
0
  0
VERTEX
  8
0
 10
513
 20
535.28497314453125
 42
0
  0
VERTEX
  8
0
 10
495.5
 20
535.28497314453125
 42
0
  0
VERTEX
  8
0
 10
495.5
 20
571.28497314453125
 42
0
  0
VERTEX
  8
0
 10
513
 20
571.28497314453125
 42
0
  0
VERTEX
  8
0
 10
513
 20
595.28497314453125
 42
-0
  0
VERTEX
  8
0
 10
478
 20
595.28497314453125
 42
-0
  0
SEQEND
  0
POLYLINE
  8
0
 10
0
 20
0
 39
0
 70
1
 66
1
  0
VERTEX
  8
0
 10
485.5
 20
317.83447265625
 42
-1
  0
VERTEX
  8
0
 10
505.5
 20
317.83447265625
 42
-1
  0
SEQEND
  0
POLYLINE
  8
0
 10
0
 20
0
 39
0
 70
1
 66
1
  0
VERTEX
  8
0
 10
480
 20
718.28497314453125
 42
0
  0
VERTEX
  8
0
 10
410
 20
718.28497314453125
 42
-0
  0
VERTEX
  8
0
 10
400
 20
708.28497314453125
 42
0
  0
VERTEX
  8
0
 10
400
 20
650.28497314453125
 42
0
  0
VERTEX
  8
0
 10
565
 20
650.28497314453125
 42
-0
  0
SEQEND
  0
POLYLINE
  8
0
 10
0
 20
0
 39
0
 70
1
 66
1
  0
VERTEX
  8
0
 10
438.5
 20
693.28497314453125
 42
-1
  0
VERTEX
  8
0
 10
451.5
 20
693.28497314453125
 42
-1
  0
SEQEND
  0
POLYLINE
  8
0
 10
0
 20
0
 39
0
 70
1
 66
1
  0
VERTEX
  8
0
 10
581.28497314453125
 20
650.28497314453125
 42
0
  0
VERTEX
  8
0
 10
651.28497314453125
 20
650.28497314453125
 42
-0
  0
VERTEX
  8
0
 10
661.28497314453125
 20
660.28497314453125
 42
0
  0
VERTEX
  8
0
 10
661.28497314453125
 20
718.28497314453125
 42
0
  0
VERTEX
  8
0
 10
496.28500366210937
 20
718.28497314453125
 42
-0
  0
SEQEND
  0
POLYLINE
  8
0
 10
0
 20
0
 39
0
 70
1
 66
1
  0
VERTEX
  8
0
 10
622.78497314453125
 20
675.28497314453125
 42
-1
  0
VERTEX
  8
0
 10
609.78497314453125
 20
675.28497314453125
 42
-1
  0
SEQEND
  0
POLYLINE
  8
0
 10
0
 20
0
 39
0
 70
1
 66
1
  0
VERTEX
  8
0
 10
874.28497314453125
 20
588
 42
0
  0
VERTEX
  8
0
 10
804.28497314453125
 20
588
 42
-0
  0
VERTEX
  8
0
 10
794.28497314453125
 20
578
 42
0
  0
VERTEX
  8
0
 10
794.28497314453125
 20
520
 42
0
  0
VERTEX
  8
0
 10
959.28497314453125
 20
520
 42
-0
  0
SEQEND
  0
POLYLINE
  8
0
 10
0
 20
0
 39
0
 70
1
 66
1
  0
VERTEX
  8
0
 10
832.78497314453125
 20
563
 42
-1
  0
VERTEX
  8
0
 10
845.78497314453125
 20
563
 42
-1
  0
SEQEND
  0
POLYLINE
  8
0
 10
0
 20
0
 39
0
 70
1
 66
1
  0
VERTEX
  8
0
 10
975.57000732421875
 20
520
 42
0
  0
VERTEX
  8
0
 10
1045.5699462890625
 20
520
 42
-0
  0
VERTEX
  8
0
 10
1055.5699462890625
 20
530
 42
0
  0
VERTEX
  8
0
 10
1055.5699462890625
 20
588
 42
0
  0
VERTEX
  8
0
 10
890.57000732421875
 20
588
 42
-0
  0
SEQEND
  0
POLYLINE
  8
0
 10
0
 20
0
 39
0
 70
1
 66
1
  0
VERTEX
  8
0
 10
1017.0700073242187
 20
545
 42
-1
  0
VERTEX
  8
0
 10
1004.0700073242187
 20
545
 42
-1
  0
SEQEND
  0
POLYLINE
  8
0
 10
0
 20
0
 39
0
 70
1
 66
1
  0
VERTEX
  8
0
 10
400
 20
640.28497314453125
 42
0
  0
VERTEX
  8
0
 10
400
 20
605.28497314453125
 42
0
  0
VERTEX
  8
0
 10
654
 20
605.28497314453125
 42
0
  0
VERTEX
  8
0
 10
654
 20
622.78497314453125
 42
0
  0
VERTEX
  8
0
 10
690
 20
622.78497314453125
 42
0
  0
VERTEX
  8
0
 10
690
 20
605.28497314453125
 42
0
  0
VERTEX
  8
0
 10
714
 20
605.28497314453125
 42
-0
  0
VERTEX
  8
0
 10
714
 20
640.28497314453125
 42
-0
  0
SEQEND
  0
POLYLINE
  8
0
 10
0
 20
0
 39
0
 70
1
 66
1
  0
VERTEX
  8
0
 10
436.54946899414062
 20
632.78497314453125
 42
-1
  0
VERTEX
  8
0
 10
436.54946899414062
 20
612.78497314453125
 42
-1
  0
SEQEND
  0
POLYLINE
  8
0
 10
0
 20
0
 39
0
 70
1
 66
1
  0
VERTEX
  8
0
 10
1183.2850341796875
 20
701.28497314453125
 42
0
  0
VERTEX
  8
0
 10
1183.2850341796875
 20
771.28497314453125
 42
-0
  0
VERTEX
  8
0
 10
1173.2850341796875
 20
781.28497314453125
 42
0
  0
VERTEX
  8
0
 10
1115.2850341796875
 20
781.28497314453125
 42
0
  0
VERTEX
  8
0
 10
1115.2850341796875
 20
616.28497314453125
 42
-0
  0
SEQEND
  0
POLYLINE
  8
0
 10
0
 20
0
 39
0
 70
1
 66
1
  0
VERTEX
  8
0
 10
1158.2850341796875
 20
742.78497314453125
 42
-1
  0
VERTEX
  8
0
 10
1158.2850341796875
 20
729.78497314453125
 42
-1
  0
SEQEND
  0
POLYLINE
  8
0
 10
0
 20
0
 39
0
 70
1
 66
1
  0
VERTEX
  8
0
 10
1115.2850341796875
 20
600
 42
0
  0
VERTEX
  8
0
 10
1115.2850341796875
 20
530
 42
-0
  0
VERTEX
  8
0
 10
1125.2850341796875
 20
520
 42
0
  0
VERTEX
  8
0
 10
1183.2850341796875
 20
520
 42
0
  0
VERTEX
  8
0
 10
1183.2850341796875
 20
685
 42
-0
  0
SEQEND
  0
POLYLINE
  8
0
 10
0
 20
0
 39
0
 70
1
 66
1
  0
VERTEX
  8
0
 10
1140.2850341796875
 20
558.5
 42
-1
  0
VERTEX
  8
0
 10
1140.2850341796875
 20
571.5
 42
-1
  0
SEQEND
  0
POLYLINE
  8
0
 10
0
 20
0
 39
0
 70
1
 66
1
  0
VERTEX
  8
0
 10
1454.2850341796875
 20
454
 42
0
  0
VERTEX
  8
0
 10
1489.2850341796875
 20
454
 42
0
  0
VERTEX
  8
0
 10
1489.2850341796875
 20
708
 42
0
  0
VERTEX
  8
0
 10
1471.7850341796875
 20
708
 42
0
  0
VERTEX
  8
0
 10
1471.7850341796875
 20
744
 42
0
  0
VERTEX
  8
0
 10
1489.2850341796875
 20
744
 42
0
  0
VERTEX
  8
0
 10
1489.2850341796875
 20
768
 42
-0
  0
VERTEX
  8
0
 10
1454.2850341796875
 20
768
 42
-0
  0
SEQEND
  0
POLYLINE
  8
0
 10
0
 20
0
 39
0
 70
1
 66
1
  0
VERTEX
  8
0
 10
1461.7850341796875
 20
490.54946899414062
 42
-1
  0
VERTEX
  8
0
 10
1481.7850341796875
 20
490.54946899414062
 42
-1
  0
SEQEND
  0
POLYLINE
  8
0
 10
0
 20
0
 39
0
 70
1
 66
1
  0
VERTEX
  8
0
 10
468
 20
515.28497314453125
 42
0
  0
VERTEX
  8
0
 10
468
 20
585.28497314453125
 42
-0
  0
VERTEX
  8
0
 10
458
 20
595.28497314453125
 42
0
  0
VERTEX
  8
0
 10
400
 20
595.28497314453125
 42
0
  0
VERTEX
  8
0
 10
400
 20
430.28500366210937
 42
-0
  0
SEQEND
  0
POLYLINE
  8
0
 10
0
 20
0
 39
0
 70
1
 66
1
  0
VERTEX
  8
0
 10
443
 20
556.78497314453125
 42
-1
  0
VERTEX
  8
0
 10
443
 20
543.78497314453125
 42
-1
  0
SEQEND
  0
POLYLINE
  8
0
 10
0
 20
0
 39
0
 70
1
 66
1
  0
VERTEX
  8
0
 10
400
 20
414
 42
0
  0
VERTEX
  8
0
 10
400
 20
344
 42
-0
  0
VERTEX
  8
0
 10
410
 20
334
 42
0
  0
VERTEX
  8
0
 10
468
 20
334
 42
0
  0
VERTEX
  8
0
 10
468
 20
499
 42
-0
  0
SEQEND
  0
POLYLINE
  8
0
 10
0
 20
0
 39
0
 70
1
 66
1
  0
VERTEX
  8
0
 10
425
 20
372.5
 42
-1
  0
VERTEX
  8
0
 10
425
 20
385.5
 42
-1
  0
SEQEND
  0
POLYLINE
  8
0
 10
0
 20
0
 39
0
 70
1
 66
1
  0
VERTEX
  8
0
 10
864
 20
711
 42
0
  0
VERTEX
  8
0
 10
794
 20
711
 42
-0
  0
VERTEX
  8
0
 10
784
 20
701
 42
0
  0
VERTEX
  8
0
 10
784
 20
643
 42
0
  0
VERTEX
  8
0
 10
949
 20
643
 42
-0
  0
SEQEND
  0
POLYLINE
  8
0
 10
0
 20
0
 39
0
 70
1
 66
1
  0
VERTEX
  8
0
 10
822.5
 20
686
 42
-1
  0
VERTEX
  8
0
 10
835.5
 20
686
 42
-1
  0
SEQEND
  0
POLYLINE
  8
0
 10
0
 20
0
 39
0
 70
1
 66
1
  0
VERTEX
  8
0
 10
965.28497314453125
 20
643
 42
0
  0
VERTEX
  8
0
 10
1035.2850341796875
 20
643
 42
-0
  0
VERTEX
  8
0
 10
1045.2850341796875
 20
653
 42
0
  0
VERTEX
  8
0
 10
1045.2850341796875
 20
711
 42
0
  0
VERTEX
  8
0
 10
880.28497314453125
 20
711
 42
-0
  0
SEQEND
  0
POLYLINE
  8
0
 10
0
 20
0
 39
0
 70
1
 66
1
  0
VERTEX
  8
0
 10
1006.7849731445312
 20
668
 42
-1
  0
VERTEX
  8
0
 10
993.78497314453125
 20
668
 42
-1
  0
SEQEND
  0
POLYLINE
  8
0
 10
0
 20
0
 39
0
 70
1
 66
1
  0
VERTEX
  8
0
 10
1408
 20
444
 42
0
  0
VERTEX
  8
0
 10
1408
 20
334
 42
-0
  0
VERTEX
  8
0
 10
1420
 20
334
 42
-1
  0
VERTEX
  8
0
 10
1446
 20
334
 42
-0
  0
VERTEX
  8
0
 10
1458
 20
334
 42
-0
  0
VERTEX
  8
0
 10
1458
 20
444
 42
-0
  0
SEQEND
  0
POLYLINE
  8
0
 10
0
 20
0
 39
0
 70
1
 66
1
  0
VERTEX
  8
0
 10
1433
 20
402
 42
-1
  0
VERTEX
  8
0
 10
1433
 20
376
 42
-1
  0
SEQEND
  0
POLYLINE
  8
0
 10
0
 20
0
 39
0
 70
1
 66
1
  0
VERTEX
  8
0
 10
1409.2850341796875
 20
454
 42
0
  0
VERTEX
  8
0
 10
1444.2850341796875
 20
454
 42
0
  0
VERTEX
  8
0
 10
1444.2850341796875
 20
708
 42
0
  0
VERTEX
  8
0
 10
1426.7850341796875
 20
708
 42
0
  0
VERTEX
  8
0
 10
1426.7850341796875
 20
744
 42
0
  0
VERTEX
  8
0
 10
1444.2850341796875
 20
744
 42
0
  0
VERTEX
  8
0
 10
1444.2850341796875
 20
768
 42
-0
  0
VERTEX
  8
0
 10
1409.2850341796875
 20
768
 42
-0
  0
SEQEND
  0
POLYLINE
  8
0
 10
0
 20
0
 39
0
 70
1
 66
1
  0
VERTEX
  8
0
 10
1416.7850341796875
 20
490.54946899414062
 42
-1
  0
VERTEX
  8
0
 10
1436.7850341796875
 20
490.54946899414062
 42
-1
  0
SEQEND
  0
POLYLINE
  8
0
 10
0
 20
0
 39
0
 70
1
 66
1
  0
VERTEX
  8
0
 10
400
 20
728.28497314453125
 42
0
  0
VERTEX
  8
0
 10
510
 20
728.28497314453125
 42
-0
  0
VERTEX
  8
0
 10
510
 20
740.28497314453125
 42
-1
  0
VERTEX
  8
0
 10
510
 20
766.28497314453125
 42
-0
  0
VERTEX
  8
0
 10
510
 20
778.28497314453125
 42
-0
  0
VERTEX
  8
0
 10
400
 20
778.28497314453125
 42
-0
  0
SEQEND
  0
POLYLINE
  8
0
 10
0
 20
0
 39
0
 70
1
 66
1
  0
VERTEX
  8
0
 10
442
 20
753.28497314453125
 42
-1
  0
VERTEX
  8
0
 10
468
 20
753.28497314453125
 42
-1
  0
SEQEND
  0
POLYLINE
  8
0
 10
0
 20
0
 39
0
 70
1
 66
1
  0
VERTEX
  8
0
 10
1349.2850341796875
 20
768
 42
0
  0
VERTEX
  8
0
 10
1349.2850341796875
 20
658
 42
-0
  0
VERTEX
  8
0
 10
1361.2850341796875
 20
658
 42
-1
  0
VERTEX
  8
0
 10
1387.2850341796875
 20
658
 42
-0
  0
VERTEX
  8
0
 10
1399.2850341796875
 20
658
 42
-0
  0
VERTEX
  8
0
 10
1399.2850341796875
 20
768
 42
-0
  0
SEQEND
  0
POLYLINE
  8
0
 10
0
 20
0
 39
0
 70
1
 66
1
  0
VERTEX
  8
0
 10
1374.2850341796875
 20
726
 42
-1
  0
VERTEX
  8
0
 10
1374.2850341796875
 20
700
 42
-1
  0
SEQEND
  0
POLYLINE
  8
0
 10
0
 20
0
 39
0
 70
1
 66
1
  0
VERTEX
  8
0
 10
1408
 20
10
 42
0
  0
VERTEX
  8
0
 10
1443
 20
10
 42
0
  0
VERTEX
  8
0
 10
1443
 20
264
 42
0
  0
VERTEX
  8
0
 10
1425.5
 20
264
 42
0
  0
VERTEX
  8
0
 10
1425.5
 20
300
 42
0
  0
VERTEX
  8
0
 10
1443
 20
300
 42
0
  0
VERTEX
  8
0
 10
1443
 20
324
 42
-0
  0
VERTEX
  8
0
 10
1408
 20
324
 42
-0
  0
SEQEND
  0
POLYLINE
  8
0
 10
0
 20
0
 39
0
 70
1
 66
1
  0
VERTEX
  8
0
 10
1415.5
 20
46.549476623535156
 42
-1
  0
VERTEX
  8
0
 10
1435.5
 20
46.549476623535156
 42
-1
  0
SEQEND
  0
POLYLINE
  8
0
 10
0
 20
0
 39
0
 70
1
 66
1
  0
VERTEX
  8
0
 10
784
 20
633
 42
0
  0
VERTEX
  8
0
 10
784
 20
598
 42
0
  0
VERTEX
  8
0
 10
1038
 20
598
 42
0
  0
VERTEX
  8
0
 10
1038
 20
615.5
 42
0
  0
VERTEX
  8
0
 10
1074
 20
615.5
 42
0
  0
VERTEX
  8
0
 10
1074
 20
598
 42
0
  0
VERTEX
  8
0
 10
1098
 20
598
 42
-0
  0
VERTEX
  8
0
 10
1098
 20
633
 42
-0
  0
SEQEND
  0
POLYLINE
  8
0
 10
0
 20
0
 39
0
 70
1
 66
1
  0
VERTEX
  8
0
 10
820.54949951171875
 20
625.5
 42
-1
  0
VERTEX
  8
0
 10
820.54949951171875
 20
605.5
 42
-1
  0
SEQEND
  0
POLYLINE
  8
0
 10
0
 20
0
 39
0
 70
1
 66
1
  0
VERTEX
  8
0
 10
1363
 20
334
 42
0
  0
VERTEX
  8
0
 10
1398
 20
334
 42
0
  0
VERTEX
  8
0
 10
1398
 20
588
 42
0
  0
VERTEX
  8
0
 10
1380.5
 20
588
 42
0
  0
VERTEX
  8
0
 10
1380.5
 20
624
 42
0
  0
VERTEX
  8
0
 10
1398
 20
624
 42
0
  0
VERTEX
  8
0
 10
1398
 20
648
 42
-0
  0
VERTEX
  8
0
 10
1363
 20
648
 42
-0
  0
SEQEND
  0
POLYLINE
  8
0
 10
0
 20
0
 39
0
 70
1
 66
1
  0
VERTEX
  8
0
 10
1370.5
 20
370.54946899414062
 42
-1
  0
VERTEX
  8
0
 10
1390.5
 20
370.54946899414062
 42
-1
  0
SEQEND
  0
POLYLINE
  8
0
 10
0
 20
0
 39
0
 70
1
 66
1
  0
VERTEX
  8
0
 10
724
 20
708
 42
0
  0
VERTEX
  8
0
 10
724
 20
598
 42
-0
  0
VERTEX
  8
0
 10
736
 20
598
 42
-1
  0
VERTEX
  8
0
 10
762
 20
598
 42
-0
  0
VERTEX
  8
0
 10
774
 20
598
 42
-0
  0
VERTEX
  8
0
 10
774
 20
708
 42
-0
  0
SEQEND
  0
POLYLINE
  8
0
 10
0
 20
0
 39
0
 70
1
 66
1
  0
VERTEX
  8
0
 10
749
 20
666
 42
-1
  0
VERTEX
  8
0
 10
749
 20
640
 42
-1
  0
SEQEND
  0
POLYLINE
  8
0
 10
0
 20
0
 39
0
 70
1
 66
1
  0
VERTEX
  8
0
 10
199.17097473144531
 20
779.9981689453125
 42
1
  0
VERTEX
  8
0
 10
200.82902526855469
 20
400.00180053710937
 42
1
  0
SEQEND
  0
POLYLINE
  8
0
 10
0
 20
0
 39
0
 70
1
 66
1
  0
VERTEX
  8
0
 10
199.35641479492187
 20
737.49859619140625
 42
-1
  0
VERTEX
  8
0
 10
199.79273986816406
 20
637.49951171875
 42
-1
  0
SEQEND
  0
POLYLINE
  8
0
 10
0
 20
0
 39
0
 70
1
 66
1
  0
VERTEX
  8
0
 10
200.20726013183594
 20
542.50042724609375
 42
-1
  0
VERTEX
  8
0
 10
200.64358520507812
 20
442.50140380859375
 42
-1
  0
SEQEND
  0
POLYLINE
  8
0
 10
0
 20
0
 39
0
 70
1
 66
1
  0
VERTEX
  8
0
 10
102.28276062011719
 20
639.5740966796875
 42
-1
  0
VERTEX
  8
0
 10
102.71909332275391
 20
539.5750732421875
 42
-1
  0
SEQEND
  0
POLYLINE
  8
0
 10
0
 20
0
 39
0
 70
1
 66
1
  0
VERTEX
  8
0
 10
297.28091430664062
 20
640.4249267578125
 42
-1
  0
VERTEX
  8
0
 10
297.71722412109375
 20
540.4259033203125
 42
-1
  0
SEQEND
  0
POLYLINE
  8
0
 10
0
 20
0
 39
0
 70
1
 66
1
  0
VERTEX
  8
0
 10
520
 20
763.28497314453125
 42
0
  0
VERTEX
  8
0
 10
520
 20
728.28497314453125
 42
0
  0
VERTEX
  8
0
 10
774
 20
728.28497314453125
 42
0
  0
VERTEX
  8
0
 10
774
 20
745.78497314453125
 42
0
  0
VERTEX
  8
0
 10
810
 20
745.78497314453125
 42
0
  0
VERTEX
  8
0
 10
810
 20
728.28497314453125
 42
0
  0
VERTEX
  8
0
 10
834
 20
728.28497314453125
 42
-0
  0
VERTEX
  8
0
 10
834
 20
763.28497314453125
 42
-0
  0
SEQEND
  0
POLYLINE
  8
0
 10
0
 20
0
 39
0
 70
1
 66
1
  0
VERTEX
  8
0
 10
556.54949951171875
 20
755.78497314453125
 42
-1
  0
VERTEX
  8
0
 10
556.54949951171875
 20
735.78497314453125
 42
-1
  0
SEQEND
  0
POLYLINE
  8
0
 10
0
 20
0
 39
0
 70
1
 66
1
  0
VERTEX
  8
0
 10
400
 20
10
 42
0
  0
VERTEX
  8
0
 10
435
 20
10
 42
0
  0
VERTEX
  8
0
 10
435
 20
264
 42
0
  0
VERTEX
  8
0
 10
417.5
 20
264
 42
0
  0
VERTEX
  8
0
 10
417.5
 20
300
 42
0
  0
VERTEX
  8
0
 10
435
 20
300
 42
0
  0
VERTEX
  8
0
 10
435
 20
324
 42
-0
  0
VERTEX
  8
0
 10
400
 20
324
 42
-0
  0
SEQEND
  0
POLYLINE
  8
0
 10
0
 20
0
 39
0
 70
1
 66
1
  0
VERTEX
  8
0
 10
407.5
 20
46.549476623535156
 42
-1
  0
VERTEX
  8
0
 10
427.5
 20
46.549476623535156
 42
-1
  0
SEQEND
  0
POLYLINE
  8
0
 10
0
 20
0
 39
0
 70
1
 66
1
  0
VERTEX
  8
0
 10
199.17097473144531
 20
389.99819946289062
 42
1
  0
VERTEX
  8
0
 10
200.82902526855469
 20
10.001809120178223
 42
1
  0
SEQEND
  0
POLYLINE
  8
0
 10
0
 20
0
 39
0
 70
1
 66
1
  0
VERTEX
  8
0
 10
199.35641479492187
 20
347.49859619140625
 42
-1
  0
VERTEX
  8
0
 10
199.79273986816406
 20
247.49954223632812
 42
-1
  0
SEQEND
  0
POLYLINE
  8
0
 10
0
 20
0
 39
0
 70
1
 66
1
  0
VERTEX
  8
0
 10
200.20726013183594
 20
152.50044250488281
 42
-1
  0
VERTEX
  8
0
 10
200.64358520507812
 20
52.50140380859375
 42
-1
  0
SEQEND
  0
POLYLINE
  8
0
 10
0
 20
0
 39
0
 70
1
 66
1
  0
VERTEX
  8
0
 10
102.28276062011719
 20
249.5740966796875
 42
-1
  0
VERTEX
  8
0
 10
102.71909332275391
 20
149.57505798339844
 42
-1
  0
SEQEND
  0
POLYLINE
  8
0
 10
0
 20
0
 39
0
 70
1
 66
1
  0
VERTEX
  8
0
 10
297.28091430664062
 20
250.42494201660156
 42
-1
  0
VERTEX
  8
0
 10
297.71722412109375
 20
150.4259033203125
 42
-1
  0
SEQEND
  0
POLYLINE
  8
0
 10
0
 20
0
 39
0
 70
1
 66
1
  0
VERTEX
  8
0
 10
1363
 20
10
 42
0
  0
VERTEX
  8
0
 10
1398
 20
10
 42
0
  0
VERTEX
  8
0
 10
1398
 20
264
 42
0
  0
VERTEX
  8
0
 10
1380.5
 20
264
 42
0
  0
VERTEX
  8
0
 10
1380.5
 20
300
 42
0
  0
VERTEX
  8
0
 10
1398
 20
300
 42
0
  0
VERTEX
  8
0
 10
1398
 20
324
 42
-0
  0
VERTEX
  8
0
 10
1363
 20
324
 42
-0
  0
SEQEND
  0
POLYLINE
  8
0
 10
0
 20
0
 39
0
 70
1
 66
1
  0
VERTEX
  8
0
 10
1370.5
 20
46.549476623535156
 42
-1
  0
VERTEX
  8
0
 10
1390.5
 20
46.549476623535156
 42
-1
  0
SEQEND
  0
ENDSEC
  0
EOF
