  0
SECTION
  2
ENTITIES
  0
POLYLINE
  8
0
 10
0
 20
0
 39
0
 70
1
 66
1
  0
VERTEX
  8
0
 10
0
 20
0
 42
-0
  0
VERTEX
  8
0
 10
2500
 20
0
 42
-0
  0
VERTEX
  8
0
 10
2500
 20
1000
 42
-0
  0
VERTEX
  8
0
 10
0
 20
1000
 42
-0
  0
SEQEND
  0
POLYLINE
  8
0
 10
0
 20
0
 39
0
 70
1
 66
1
  0
VERTEX
  8
0
 10
430.38461303710937
 20
90.384613037109375
 42
-0
  0
VERTEX
  8
0
 10
730.3846435546875
 20
90.384613037109375
 42
0
  0
VERTEX
  8
0
 10
1172.3846435546875
 20
10.384614944458008
 42
0
  0
VERTEX
  8
0
 10
1272.3846435546875
 20
10.384614944458008
 42
0
  0
VERTEX
  8
0
 10
1272.3846435546875
 20
140.38461303710937
 42
-0
  0
VERTEX
  8
0
 10
730.3846435546875
 20
337.38461303710937
 42
0
  0
VERTEX
  8
0
 10
430.38461303710937
 20
337.38461303710937
 42
-0
  0
VERTEX
  8
0
 10
10.384614944458008
 20
140.38461303710937
 42
0
  0
VERTEX
  8
0
 10
10.384614944458008
 20
10.384614944458008
 42
0
  0
VERTEX
  8
0
 10
110.38461303710937
 20
10.384614944458008
 42
-0
  0
SEQEND
  0
POLYLINE
  8
0
 10
0
 20
0
 39
0
 70
1
 66
1
  0
VERTEX
  8
0
 10
1232.3846435546875
 20
90.384613037109375
 42
-1
  0
VERTEX
  8
0
 10
1152.3846435546875
 20
90.384613037109375
 42
-1
  0
SEQEND
  0
POLYLINE
  8
0
 10
0
 20
0
 39
0
 70
1
 66
1
  0
VERTEX
  8
0
 10
582.3846435546875
 20
210.38461303710937
 42
-1
  0
VERTEX
  8
0
 10
502.38461303710937
 20
210.38461303710937
 42
-1
  0
SEQEND
  0
POLYLINE
  8
0
 10
0
 20
0
 39
0
 70
1
 66
1
  0
VERTEX
  8
0
 10
128.38461303710937
 20
90.384613037109375
 42
-1
  0
VERTEX
  8
0
 10
48.384616851806641
 20
90.384613037109375
 42
-1
  0
SEQEND
  0
POLYLINE
  8
0
 10
0
 20
0
 39
0
 70
1
 66
1
  0
VERTEX
  8
0
 10
430.38461303710937
 20
348.26922607421875
 42
-0
  0
VERTEX
  8
0
 10
730.3846435546875
 20
348.26922607421875
 42
0
  0
VERTEX
  8
0
 10
1172.3846435546875
 20
268.26922607421875
 42
0
  0
VERTEX
  8
0
 10
1272.3846435546875
 20
268.26922607421875
 42
0
  0
VERTEX
  8
0
 10
1272.3846435546875
 20
398.26922607421875
 42
-0
  0
VERTEX
  8
0
 10
730.3846435546875
 20
595.26922607421875
 42
0
  0
VERTEX
  8
0
 10
430.38461303710937
 20
595.26922607421875
 42
-0
  0
VERTEX
  8
0
 10
10.384614944458008
 20
398.26922607421875
 42
0
  0
VERTEX
  8
0
 10
10.384614944458008
 20
268.26922607421875
 42
0
  0
VERTEX
  8
0
 10
110.38461303710937
 20
268.26922607421875
 42
-0
  0
SEQEND
  0
POLYLINE
  8
0
 10
0
 20
0
 39
0
 70
1
 66
1
  0
VERTEX
  8
0
 10
1232.3846435546875
 20
348.26922607421875
 42
-1
  0
VERTEX
  8
0
 10
1152.3846435546875
 20
348.26922607421875
 42
-1
  0
SEQEND
  0
POLYLINE
  8
0
 10
0
 20
0
 39
0
 70
1
 66
1
  0
VERTEX
  8
0
 10
582.3846435546875
 20
468.26922607421875
 42
-1
  0
VERTEX
  8
0
 10
502.38461303710937
 20
468.26922607421875
 42
-1
  0
SEQEND
  0
POLYLINE
  8
0
 10
0
 20
0
 39
0
 70
1
 66
1
  0
VERTEX
  8
0
 10
128.38461303710937
 20
348.26922607421875
 42
-1
  0
VERTEX
  8
0
 10
48.384616851806641
 20
348.26922607421875
 42
-1
  0
SEQEND
  0
POLYLINE
  8
0
 10
0
 20
0
 39
0
 70
1
 66
1
  0
VERTEX
  8
0
 10
430.38461303710937
 20
606.15386962890625
 42
-0
  0
VERTEX
  8
0
 10
730.3846435546875
 20
606.15386962890625
 42
0
  0
VERTEX
  8
0
 10
1172.3846435546875
 20
526.15386962890625
 42
0
  0
VERTEX
  8
0
 10
1272.3846435546875
 20
526.15386962890625
 42
0
  0
VERTEX
  8
0
 10
1272.3846435546875
 20
656.15386962890625
 42
-0
  0
VERTEX
  8
0
 10
730.3846435546875
 20
853.15386962890625
 42
0
  0
VERTEX
  8
0
 10
430.38461303710937
 20
853.15386962890625
 42
-0
  0
VERTEX
  8
0
 10
10.384614944458008
 20
656.15386962890625
 42
0
  0
VERTEX
  8
0
 10
10.384614944458008
 20
526.15386962890625
 42
0
  0
VERTEX
  8
0
 10
110.38461303710937
 20
526.15386962890625
 42
-0
  0
SEQEND
  0
POLYLINE
  8
0
 10
0
 20
0
 39
0
 70
1
 66
1
  0
VERTEX
  8
0
 10
1232.3846435546875
 20
606.15386962890625
 42
-1
  0
VERTEX
  8
0
 10
1152.3846435546875
 20
606.15386962890625
 42
-1
  0
SEQEND
  0
POLYLINE
  8
0
 10
0
 20
0
 39
0
 70
1
 66
1
  0
VERTEX
  8
0
 10
582.3846435546875
 20
726.15386962890625
 42
-1
  0
VERTEX
  8
0
 10
502.38461303710937
 20
726.15386962890625
 42
-1
  0
SEQEND
  0
POLYLINE
  8
0
 10
0
 20
0
 39
0
 70
1
 66
1
  0
VERTEX
  8
0
 10
128.38461303710937
 20
606.15386962890625
 42
-1
  0
VERTEX
  8
0
 10
48.384616851806641
 20
606.15386962890625
 42
-1
  0
SEQEND
  0
POLYLINE
  8
0
 10
0
 20
0
 39
0
 70
1
 66
1
  0
VERTEX
  8
0
 10
320.38461303710937
 20
813.26922607421875
 42
0
  0
VERTEX
  8
0
 10
385.38461303710937
 20
983.26922607421875
 42
0
  0
VERTEX
  8
0
 10
10.384614944458008
 20
983.26922607421875
 42
0
  0
VERTEX
  8
0
 10
10.384614944458008
 20
813.26922607421875
 42
0
  0
SEQEND
  0
POLYLINE
  8
0
 10
0
 20
0
 39
0
 70
1
 66
1
  0
VERTEX
  8
0
 10
66.384613037109375
 20
858.26922607421875
 42
-1
  0
VERTEX
  8
0
 10
84.384613037109375
 20
858.26922607421875
 42
-1
  0
SEQEND
  0
POLYLINE
  8
0
 10
0
 20
0
 39
0
 70
1
 66
1
  0
VERTEX
  8
0
 10
248.38461303710937
 20
858.26922607421875
 42
-1
  0
VERTEX
  8
0
 10
266.38461303710937
 20
858.26922607421875
 42
-1
  0
SEQEND
  0
POLYLINE
  8
0
 10
0
 20
0
 39
0
 70
1
 66
1
  0
VERTEX
  8
0
 10
918.4615478515625
 20
989.6153564453125
 42
0
  0
VERTEX
  8
0
 10
853.4615478515625
 20
819.6153564453125
 42
0
  0
VERTEX
  8
0
 10
1228.4615478515625
 20
819.6153564453125
 42
0
  0
VERTEX
  8
0
 10
1228.4615478515625
 20
989.6153564453125
 42
0
  0
SEQEND
  0
POLYLINE
  8
0
 10
0
 20
0
 39
0
 70
1
 66
1
  0
VERTEX
  8
0
 10
1172.4615478515625
 20
944.6153564453125
 42
-1
  0
VERTEX
  8
0
 10
1154.4615478515625
 20
944.6153564453125
 42
-1
  0
SEQEND
  0
POLYLINE
  8
0
 10
0
 20
0
 39
0
 70
1
 66
1
  0
VERTEX
  8
0
 10
990.4615478515625
 20
944.6153564453125
 42
-1
  0
VERTEX
  8
0
 10
972.4615478515625
 20
944.6153564453125
 42
-1
  0
SEQEND
  0
POLYLINE
  8
0
 10
0
 20
0
 39
0
 70
1
 66
1
  0
VERTEX
  8
0
 10
1240.769287109375
 20
679.6153564453125
 42
0
  0
VERTEX
  8
0
 10
1410.769287109375
 20
614.6153564453125
 42
0
  0
VERTEX
  8
0
 10
1410.769287109375
 20
989.6153564453125
 42
0
  0
VERTEX
  8
0
 10
1240.769287109375
 20
989.6153564453125
 42
0
  0
SEQEND
  0
POLYLINE
  8
0
 10
0
 20
0
 39
0
 70
1
 66
1
  0
VERTEX
  8
0
 10
1285.769287109375
 20
933.6153564453125
 42
-1
  0
VERTEX
  8
0
 10
1285.769287109375
 20
915.6153564453125
 42
-1
  0
SEQEND
  0
POLYLINE
  8
0
 10
0
 20
0
 39
0
 70
1
 66
1
  0
VERTEX
  8
0
 10
1285.769287109375
 20
751.6153564453125
 42
-1
  0
VERTEX
  8
0
 10
1285.769287109375
 20
733.6153564453125
 42
-1
  0
SEQEND
  0
POLYLINE
  8
0
 10
0
 20
0
 39
0
 70
1
 66
1
  0
VERTEX
  8
0
 10
1452.6922607421875
 20
320.38461303710937
 42
0
  0
VERTEX
  8
0
 10
1282.6922607421875
 20
385.38461303710937
 42
0
  0
VERTEX
  8
0
 10
1282.6922607421875
 20
10.384614944458008
 42
0
  0
VERTEX
  8
0
 10
1452.6922607421875
 20
10.384614944458008
 42
0
  0
SEQEND
  0
POLYLINE
  8
0
 10
0
 20
0
 39
0
 70
1
 66
1
  0
VERTEX
  8
0
 10
1407.6922607421875
 20
66.384613037109375
 42
-1
  0
VERTEX
  8
0
 10
1407.6922607421875
 20
84.384613037109375
 42
-1
  0
SEQEND
  0
POLYLINE
  8
0
 10
0
 20
0
 39
0
 70
1
 66
1
  0
VERTEX
  8
0
 10
1407.6922607421875
 20
248.38461303710937
 42
-1
  0
VERTEX
  8
0
 10
1407.6922607421875
 20
266.38461303710937
 42
-1
  0
SEQEND
  0
POLYLINE
  8
0
 10
0
 20
0
 39
0
 70
1
 66
1
  0
VERTEX
  8
0
 10
1421.15380859375
 20
343.84616088867187
 42
0
  0
VERTEX
  8
0
 10
1591.15380859375
 20
278.84616088867187
 42
0
  0
VERTEX
  8
0
 10
1591.15380859375
 20
653.84613037109375
 42
0
  0
VERTEX
  8
0
 10
1421.15380859375
 20
653.84613037109375
 42
0
  0
SEQEND
  0
POLYLINE
  8
0
 10
0
 20
0
 39
0
 70
1
 66
1
  0
VERTEX
  8
0
 10
1466.15380859375
 20
597.84613037109375
 42
-1
  0
VERTEX
  8
0
 10
1466.15380859375
 20
579.84613037109375
 42
-1
  0
SEQEND
  0
POLYLINE
  8
0
 10
0
 20
0
 39
0
 70
1
 66
1
  0
VERTEX
  8
0
 10
1466.15380859375
 20
415.84616088867187
 42
-1
  0
VERTEX
  8
0
 10
1466.15380859375
 20
397.84616088867187
 42
-1
  0
SEQEND
  0
POLYLINE
  8
0
 10
0
 20
0
 39
0
 70
1
 66
1
  0
VERTEX
  8
0
 10
1553.4615478515625
 20
679.6153564453125
 42
0
  0
VERTEX
  8
0
 10
1723.4615478515625
 20
614.6153564453125
 42
0
  0
VERTEX
  8
0
 10
1723.4615478515625
 20
989.6153564453125
 42
0
  0
VERTEX
  8
0
 10
1553.4615478515625
 20
989.6153564453125
 42
0
  0
SEQEND
  0
POLYLINE
  8
0
 10
0
 20
0
 39
0
 70
1
 66
1
  0
VERTEX
  8
0
 10
1598.4615478515625
 20
933.6153564453125
 42
-1
  0
VERTEX
  8
0
 10
1598.4615478515625
 20
915.6153564453125
 42
-1
  0
SEQEND
  0
POLYLINE
  8
0
 10
0
 20
0
 39
0
 70
1
 66
1
  0
VERTEX
  8
0
 10
1598.4615478515625
 20
751.6153564453125
 42
-1
  0
VERTEX
  8
0
 10
1598.4615478515625
 20
733.6153564453125
 42
-1
  0
SEQEND
  0
POLYLINE
  8
0
 10
0
 20
0
 39
0
 70
1
 66
1
  0
VERTEX
  8
0
 10
1771.5384521484375
 20
320.38461303710937
 42
0
  0
VERTEX
  8
0
 10
1601.5384521484375
 20
385.38461303710937
 42
0
  0
VERTEX
  8
0
 10
1601.5384521484375
 20
10.384614944458008
 42
0
  0
VERTEX
  8
0
 10
1771.5384521484375
 20
10.384614944458008
 42
0
  0
SEQEND
  0
POLYLINE
  8
0
 10
0
 20
0
 39
0
 70
1
 66
1
  0
VERTEX
  8
0
 10
1726.5384521484375
 20
66.384613037109375
 42
-1
  0
VERTEX
  8
0
 10
1726.5384521484375
 20
84.384613037109375
 42
-1
  0
SEQEND
  0
POLYLINE
  8
0
 10
0
 20
0
 39
0
 70
1
 66
1
  0
VERTEX
  8
0
 10
1726.5384521484375
 20
248.38461303710937
 42
-1
  0
VERTEX
  8
0
 10
1726.5384521484375
 20
266.38461303710937
 42
-1
  0
SEQEND
  0
POLYLINE
  8
0
 10
0
 20
0
 39
0
 70
1
 66
1
  0
VERTEX
  8
0
 10
1802.156494140625
 20
516.53857421875
 42
-0
  0
VERTEX
  8
0
 10
1807.038330078125
 20
702.9698486328125
 42
-0.034327238798141479
  0
VERTEX
  8
0
 10
1807.4278564453125
 20
707.0657958984375
 42
-0
  0
VERTEX
  8
0
 10
1825.6046142578125
 20
817.2911376953125
 42
1.1476176977157593
  0
VERTEX
  8
0
 10
1734.5010986328125
 20
819.6767578125
 42
0
  0
VERTEX
  8
0
 10
1746.88427734375
 20
708.65118408203125
 42
-0.034327305853366852
  0
VERTEX
  8
0
 10
1747.058837890625
 20
704.54046630859375
 42
0
  0
VERTEX
  8
0
 10
1742.177001953125
 20
518.10919189453125
 42
-0.060842119157314301
  0
VERTEX
  8
0
 10
1741.4632568359375
 20
513.31256103515625
 42
-0
  0
VERTEX
  8
0
 10
1713.05126953125
 20
410.35150146484375
 42
1.278258204460144
  0
VERTEX
  8
0
 10
1825.6026611328125
 20
407.40423583984375
 42
0
  0
VERTEX
  8
0
 10
1802.6181640625
 20
511.71115112304687
 42
-0.060842119157314301
  0
SEQEND
  0
POLYLINE
  8
0
 10
0
 20
0
 39
0
 70
1
 66
1
  0
VERTEX
  8
0
 10
1768.30712890625
 20
369.931640625
 42
-1
  0
VERTEX
  8
0
 10
1769.615966796875
 20
419.91452026367187
 42
-1
  0
SEQEND
  0
POLYLINE
  8
0
 10
0
 20
0
 39
0
 70
1
 66
1
  0
VERTEX
  8
0
 10
1892.7333984375
 20
207.115478515625
 42
-0
  0
VERTEX
  8
0
 10
1897.615234375
 20
393.5467529296875
 42
-0.034327238798141479
  0
VERTEX
  8
0
 10
1898.0047607421875
 20
397.6427001953125
 42
-0
  0
VERTEX
  8
0
 10
1916.1815185546875
 20
507.8680419921875
 42
1.1476176977157593
  0
VERTEX
  8
0
 10
1825.0780029296875
 20
510.25369262695312
 42
0
  0
VERTEX
  8
0
 10
1837.461181640625
 20
399.22808837890625
 42
-0.034327305853366852
  0
VERTEX
  8
0
 10
1837.6357421875
 20
395.11737060546875
 42
0
  0
VERTEX
  8
0
 10
1832.75390625
 20
208.68608093261719
 42
-0.060842119157314301
  0
VERTEX
  8
0
 10
1832.0401611328125
 20
203.88946533203125
 42
-0
  0
VERTEX
  8
0
 10
1803.628173828125
 20
100.92842864990234
 42
1.278258204460144
  0
VERTEX
  8
0
 10
1916.1795654296875
 20
97.981170654296875
 42
0
  0
VERTEX
  8
0
 10
1893.195068359375
 20
202.2880859375
 42
-0.060842119157314301
  0
SEQEND
  0
POLYLINE
  8
0
 10
0
 20
0
 39
0
 70
1
 66
1
  0
VERTEX
  8
0
 10
1858.884033203125
 20
60.508571624755859
 42
-1
  0
VERTEX
  8
0
 10
1860.19287109375
 20
110.49143981933594
 42
-1
  0
SEQEND
  0
POLYLINE
  8
0
 10
0
 20
0
 39
0
 70
1
 66
1
  0
VERTEX
  8
0
 10
1927.4974365234375
 20
518.08331298828125
 42
-0
  0
VERTEX
  8
0
 10
1922.615478515625
 20
331.65203857421875
 42
-0.034327238798141479
  0
VERTEX
  8
0
 10
1922.22607421875
 20
327.55609130859375
 42
-0
  0
VERTEX
  8
0
 10
1904.0491943359375
 20
217.33074951171875
 42
1.1476176977157593
  0
VERTEX
  8
0
 10
1995.1527099609375
 20
214.94511413574219
 42
0
  0
VERTEX
  8
0
 10
1982.76953125
 20
325.970703125
 42
-0.034327305853366852
  0
VERTEX
  8
0
 10
1982.594970703125
 20
330.0814208984375
 42
0
  0
VERTEX
  8
0
 10
1987.476806640625
 20
516.5126953125
 42
-0.060842119157314301
  0
VERTEX
  8
0
 10
1988.1905517578125
 20
521.309326171875
 42
-0
  0
VERTEX
  8
0
 10
2016.6026611328125
 20
624.2703857421875
 42
1.278258204460144
  0
VERTEX
  8
0
 10
1904.0511474609375
 20
627.2176513671875
 42
0
  0
VERTEX
  8
0
 10
1927.03564453125
 20
522.91070556640625
 42
-0.060842119157314301
  0
SEQEND
  0
POLYLINE
  8
0
 10
0
 20
0
 39
0
 70
1
 66
1
  0
VERTEX
  8
0
 10
1961.3466796875
 20
664.69024658203125
 42
-1
  0
VERTEX
  8
0
 10
1960.037841796875
 20
614.70733642578125
 42
-1
  0
SEQEND
  0
POLYLINE
  8
0
 10
0
 20
0
 39
0
 70
1
 66
1
  0
VERTEX
  8
0
 10
2065.617919921875
 20
190.00009155273437
 42
-0
  0
VERTEX
  8
0
 10
2070.499755859375
 20
376.43136596679688
 42
-0.034327238798141479
  0
VERTEX
  8
0
 10
2070.889404296875
 20
380.52731323242187
 42
-0
  0
VERTEX
  8
0
 10
2089.066162109375
 20
490.75265502929687
 42
1.1476176977157593
  0
VERTEX
  8
0
 10
1997.962646484375
 20
493.1383056640625
 42
0
  0
VERTEX
  8
0
 10
2010.3458251953125
 20
382.11270141601562
 42
-0.034327305853366852
  0
VERTEX
  8
0
 10
2010.5203857421875
 20
378.00198364257812
 42
0
  0
VERTEX
  8
0
 10
2005.6385498046875
 20
191.57070922851563
 42
-0.060842119157314301
  0
VERTEX
  8
0
 10
2004.9248046875
 20
186.77407836914062
 42
-0
  0
VERTEX
  8
0
 10
1976.5128173828125
 20
83.81304931640625
 42
1.278258204460144
  0
VERTEX
  8
0
 10
2089.064208984375
 20
80.86578369140625
 42
0
  0
VERTEX
  8
0
 10
2066.07958984375
 20
185.17269897460937
 42
-0.060842119157314301
  0
SEQEND
  0
POLYLINE
  8
0
 10
0
 20
0
 39
0
 70
1
 66
1
  0
VERTEX
  8
0
 10
2031.7686767578125
 20
43.393184661865234
 42
-1
  0
VERTEX
  8
0
 10
2033.0775146484375
 20
93.376052856445313
 42
-1
  0
SEQEND
  0
POLYLINE
  8
0
 10
0
 20
0
 39
0
 70
1
 66
1
  0
VERTEX
  8
0
 10
1995.072021484375
 20
926.25
 42
0
  0
VERTEX
  8
0
 10
1870.1922607421875
 20
854.150634765625
 42
0.26794919371604919
  0
VERTEX
  8
0
 10
1832.6922607421875
 20
789.19873046875
 42
-0
  0
VERTEX
  8
0
 10
1832.6922607421875
 20
645
 42
0
  0
VERTEX
  8
0
 10
1957.572021484375
 20
717.099365234375
 42
0.26794919371604919
  0
VERTEX
  8
0
 10
1995.072021484375
 20
782.05126953125
 42
-0
  0
SEQEND
  0
POLYLINE
  8
0
 10
0
 20
0
 39
0
 70
1
 66
1
  0
VERTEX
  8
0
 10
1886.6986083984375
 20
738.54168701171875
 42
-1
  0
VERTEX
  8
0
 10
1866.1201171875
 20
702.8985595703125
 42
-1
  0
SEQEND
  0
POLYLINE
  8
0
 10
0
 20
0
 39
0
 70
1
 66
1
  0
VERTEX
  8
0
 10
1961.644287109375
 20
868.3514404296875
 42
-1
  0
VERTEX
  8
0
 10
1941.0657958984375
 20
832.70831298828125
 42
-1
  0
SEQEND
  0
POLYLINE
  8
0
 10
0
 20
0
 39
0
 70
1
 66
1
  0
VERTEX
  8
0
 10
1932.6322021484375
 20
818.1009521484375
 42
-1
  0
VERTEX
  8
0
 10
1895.1322021484375
 20
753.1490478515625
 42
-1
  0
SEQEND
  0
POLYLINE
  8
0
 10
0
 20
0
 39
0
 70
1
 66
1
  0
VERTEX
  8
0
 10
2167.764404296875
 20
972.98077392578125
 42
0
  0
VERTEX
  8
0
 10
2042.8846435546875
 20
900.88140869140625
 42
0.26794919371604919
  0
VERTEX
  8
0
 10
2005.3846435546875
 20
835.92950439453125
 42
-0
  0
VERTEX
  8
0
 10
2005.3846435546875
 20
691.73077392578125
 42
0
  0
VERTEX
  8
0
 10
2130.264404296875
 20
763.83013916015625
 42
0.26794919371604919
  0
VERTEX
  8
0
 10
2167.764404296875
 20
828.78204345703125
 42
-0
  0
SEQEND
  0
POLYLINE
  8
0
 10
0
 20
0
 39
0
 70
1
 66
1
  0
VERTEX
  8
0
 10
2059.390869140625
 20
785.27239990234375
 42
-1
  0
VERTEX
  8
0
 10
2038.8123779296875
 20
749.62933349609375
 42
-1
  0
SEQEND
  0
POLYLINE
  8
0
 10
0
 20
0
 39
0
 70
1
 66
1
  0
VERTEX
  8
0
 10
2134.336669921875
 20
915.08221435546875
 42
-1
  0
VERTEX
  8
0
 10
2113.758056640625
 20
879.4390869140625
 42
-1
  0
SEQEND
  0
POLYLINE
  8
0
 10
0
 20
0
 39
0
 70
1
 66
1
  0
VERTEX
  8
0
 10
2105.324462890625
 20
864.83172607421875
 42
-1
  0
VERTEX
  8
0
 10
2067.824462890625
 20
799.87982177734375
 42
-1
  0
SEQEND
  0
POLYLINE
  8
0
 10
0
 20
0
 39
0
 70
1
 66
1
  0
VERTEX
  8
0
 10
1346.8594970703125
 20
372.30767822265625
 42
-0
  0
VERTEX
  8
0
 10
1359.849853515625
 20
379.80767822265625
 42
-0
  0
VERTEX
  8
0
 10
1359.849853515625
 20
542.2608642578125
 42
-0
  0
VERTEX
  8
0
 10
1340.5384521484375
 20
553.41033935546875
 42
0
  0
VERTEX
  8
0
 10
1206.5384521484375
 20
476.04537963867187
 42
0
  0
VERTEX
  8
0
 10
1206.5384521484375
 20
453.32208251953125
 42
0
  0
SEQEND
  0
POLYLINE
  8
0
 10
0
 20
0
 39
0
 70
1
 66
1
  0
VERTEX
  8
0
 10
1224.828369140625
 20
455.42819213867187
 42
-1
  0
VERTEX
  8
0
 10
1243.8809814453125
 20
466.42819213867187
 42
-1
  0
SEQEND
  0
POLYLINE
  8
0
 10
0
 20
0
 39
0
 70
1
 66
1
  0
VERTEX
  8
0
 10
1329.828369140625
 20
516.0499267578125
 42
-1
  0
VERTEX
  8
0
 10
1348.8809814453125
 20
527.04998779296875
 42
-1
  0
SEQEND
  0
POLYLINE
  8
0
 10
0
 20
0
 39
0
 70
1
 66
1
  0
VERTEX
  8
0
 10
1329.828369140625
 20
394.806396484375
 42
-1
  0
VERTEX
  8
0
 10
1348.8809814453125
 20
405.806396484375
 42
-1
  0
SEQEND
  0
POLYLINE
  8
0
 10
0
 20
0
 39
0
 70
1
 66
1
  0
VERTEX
  8
0
 10
2161.09033203125
 20
495.76922607421875
 42
-0
  0
VERTEX
  8
0
 10
2174.08056640625
 20
503.26922607421875
 42
-0
  0
VERTEX
  8
0
 10
2174.08056640625
 20
665.722412109375
 42
-0
  0
VERTEX
  8
0
 10
2154.769287109375
 20
676.87188720703125
 42
0
  0
VERTEX
  8
0
 10
2020.769287109375
 20
599.50689697265625
 42
0
  0
VERTEX
  8
0
 10
2020.769287109375
 20
576.78363037109375
 42
0
  0
SEQEND
  0
POLYLINE
  8
0
 10
0
 20
0
 39
0
 70
1
 66
1
  0
VERTEX
  8
0
 10
2039.0592041015625
 20
578.88970947265625
 42
-1
  0
VERTEX
  8
0
 10
2058.11181640625
 20
589.88970947265625
 42
-1
  0
SEQEND
  0
POLYLINE
  8
0
 10
0
 20
0
 39
0
 70
1
 66
1
  0
VERTEX
  8
0
 10
2144.05908203125
 20
639.511474609375
 42
-1
  0
VERTEX
  8
0
 10
2163.11181640625
 20
650.511474609375
 42
-1
  0
SEQEND
  0
POLYLINE
  8
0
 10
0
 20
0
 39
0
 70
1
 66
1
  0
VERTEX
  8
0
 10
2144.05908203125
 20
518.2679443359375
 42
-1
  0
VERTEX
  8
0
 10
2163.11181640625
 20
529.2679443359375
 42
-1
  0
SEQEND
  0
POLYLINE
  8
0
 10
0
 20
0
 39
0
 70
1
 66
1
  0
VERTEX
  8
0
 10
2216.859619140625
 20
105.38461303710937
 42
-0
  0
VERTEX
  8
0
 10
2229.849853515625
 20
112.88461303710937
 42
-0
  0
VERTEX
  8
0
 10
2229.849853515625
 20
275.33779907226563
 42
-0
  0
VERTEX
  8
0
 10
2210.53857421875
 20
286.48724365234375
 42
0
  0
VERTEX
  8
0
 10
2076.53857421875
 20
209.122314453125
 42
0
  0
VERTEX
  8
0
 10
2076.53857421875
 20
186.39900207519531
 42
0
  0
SEQEND
  0
POLYLINE
  8
0
 10
0
 20
0
 39
0
 70
1
 66
1
  0
VERTEX
  8
0
 10
2094.828369140625
 20
188.50509643554687
 42
-1
  0
VERTEX
  8
0
 10
2113.880859375
 20
199.50509643554687
 42
-1
  0
SEQEND
  0
POLYLINE
  8
0
 10
0
 20
0
 39
0
 70
1
 66
1
  0
VERTEX
  8
0
 10
2199.828369140625
 20
249.12687683105469
 42
-1
  0
VERTEX
  8
0
 10
2218.880859375
 20
260.12689208984375
 42
-1
  0
SEQEND
  0
POLYLINE
  8
0
 10
0
 20
0
 39
0
 70
1
 66
1
  0
VERTEX
  8
0
 10
2199.828369140625
 20
127.88332366943359
 42
-1
  0
VERTEX
  8
0
 10
2218.880859375
 20
138.88333129882812
 42
-1
  0
SEQEND
  0
POLYLINE
  8
0
 10
0
 20
0
 39
0
 70
1
 66
1
  0
VERTEX
  8
0
 10
2224.167236328125
 20
290.76922607421875
 42
-0
  0
VERTEX
  8
0
 10
2237.157470703125
 20
298.26922607421875
 42
-0
  0
VERTEX
  8
0
 10
2237.157470703125
 20
460.722412109375
 42
-0
  0
VERTEX
  8
0
 10
2217.84619140625
 20
471.87185668945312
 42
0
  0
VERTEX
  8
0
 10
2083.84619140625
 20
394.50692749023437
 42
0
  0
VERTEX
  8
0
 10
2083.84619140625
 20
371.78363037109375
 42
0
  0
SEQEND
  0
POLYLINE
  8
0
 10
0
 20
0
 39
0
 70
1
 66
1
  0
VERTEX
  8
0
 10
2102.135986328125
 20
373.88970947265625
 42
-1
  0
VERTEX
  8
0
 10
2121.188720703125
 20
384.88970947265625
 42
-1
  0
SEQEND
  0
POLYLINE
  8
0
 10
0
 20
0
 39
0
 70
1
 66
1
  0
VERTEX
  8
0
 10
2207.135986328125
 20
434.51150512695312
 42
-1
  0
VERTEX
  8
0
 10
2226.188720703125
 20
445.51150512695312
 42
-1
  0
SEQEND
  0
POLYLINE
  8
0
 10
0
 20
0
 39
0
 70
1
 66
1
  0
VERTEX
  8
0
 10
2207.135986328125
 20
313.2679443359375
 42
-1
  0
VERTEX
  8
0
 10
2226.188720703125
 20
324.2679443359375
 42
-1
  0
SEQEND
  0
POLYLINE
  8
0
 10
0
 20
0
 39
0
 70
1
 66
1
  0
VERTEX
  8
0
 10
2248.39794921875
 20
635
 42
-0
  0
VERTEX
  8
0
 10
2261.388427734375
 20
642.5
 42
-0
  0
VERTEX
  8
0
 10
2261.388427734375
 20
804.95318603515625
 42
-0
  0
VERTEX
  8
0
 10
2242.076904296875
 20
816.1026611328125
 42
0
  0
VERTEX
  8
0
 10
2108.076904296875
 20
738.7376708984375
 42
0
  0
VERTEX
  8
0
 10
2108.076904296875
 20
716.014404296875
 42
0
  0
SEQEND
  0
POLYLINE
  8
0
 10
0
 20
0
 39
0
 70
1
 66
1
  0
VERTEX
  8
0
 10
2126.366943359375
 20
718.1204833984375
 42
-1
  0
VERTEX
  8
0
 10
2145.41943359375
 20
729.1204833984375
 42
-1
  0
SEQEND
  0
POLYLINE
  8
0
 10
0
 20
0
 39
0
 70
1
 66
1
  0
VERTEX
  8
0
 10
2231.366943359375
 20
778.74224853515625
 42
-1
  0
VERTEX
  8
0
 10
2250.41943359375
 20
789.74224853515625
 42
-1
  0
SEQEND
  0
POLYLINE
  8
0
 10
0
 20
0
 39
0
 70
1
 66
1
  0
VERTEX
  8
0
 10
2231.366943359375
 20
657.49871826171875
 42
-1
  0
VERTEX
  8
0
 10
2250.41943359375
 20
668.49871826171875
 42
-1
  0
SEQEND
  0
POLYLINE
  8
0
 10
0
 20
0
 39
0
 70
1
 66
1
  0
VERTEX
  8
0
 10
2318.39794921875
 20
784.23077392578125
 42
-0
  0
VERTEX
  8
0
 10
2331.388427734375
 20
791.73077392578125
 42
-0
  0
VERTEX
  8
0
 10
2331.388427734375
 20
954.1839599609375
 42
-0
  0
VERTEX
  8
0
 10
2312.076904296875
 20
965.3333740234375
 42
0
  0
VERTEX
  8
0
 10
2178.076904296875
 20
887.96844482421875
 42
0
  0
VERTEX
  8
0
 10
2178.076904296875
 20
865.24517822265625
 42
0
  0
SEQEND
  0
POLYLINE
  8
0
 10
0
 20
0
 39
0
 70
1
 66
1
  0
VERTEX
  8
0
 10
2196.366943359375
 20
867.35125732421875
 42
-1
  0
VERTEX
  8
0
 10
2215.41943359375
 20
878.35125732421875
 42
-1
  0
SEQEND
  0
POLYLINE
  8
0
 10
0
 20
0
 39
0
 70
1
 66
1
  0
VERTEX
  8
0
 10
2301.366943359375
 20
927.9730224609375
 42
-1
  0
VERTEX
  8
0
 10
2320.41943359375
 20
938.9730224609375
 42
-1
  0
SEQEND
  0
POLYLINE
  8
0
 10
0
 20
0
 39
0
 70
1
 66
1
  0
VERTEX
  8
0
 10
2301.366943359375
 20
806.7294921875
 42
-1
  0
VERTEX
  8
0
 10
2320.41943359375
 20
817.7294921875
 42
-1
  0
SEQEND
  0
POLYLINE
  8
0
 10
0
 20
0
 39
0
 70
1
 66
1
  0
VERTEX
  8
0
 10
2324.744140625
 20
422.30767822265625
 42
-0
  0
VERTEX
  8
0
 10
2337.734375
 20
429.80767822265625
 42
-0
  0
VERTEX
  8
0
 10
2337.734375
 20
592.2608642578125
 42
-0
  0
VERTEX
  8
0
 10
2318.423095703125
 20
603.41033935546875
 42
0
  0
VERTEX
  8
0
 10
2184.423095703125
 20
526.04541015625
 42
0
  0
VERTEX
  8
0
 10
2184.423095703125
 20
503.32208251953125
 42
0
  0
SEQEND
  0
POLYLINE
  8
0
 10
0
 20
0
 39
0
 70
1
 66
1
  0
VERTEX
  8
0
 10
2202.713134765625
 20
505.42819213867187
 42
-1
  0
VERTEX
  8
0
 10
2221.765625
 20
516.42816162109375
 42
-1
  0
SEQEND
  0
POLYLINE
  8
0
 10
0
 20
0
 39
0
 70
1
 66
1
  0
VERTEX
  8
0
 10
2307.713134765625
 20
566.0499267578125
 42
-1
  0
VERTEX
  8
0
 10
2326.765625
 20
577.04998779296875
 42
-1
  0
SEQEND
  0
POLYLINE
  8
0
 10
0
 20
0
 39
0
 70
1
 66
1
  0
VERTEX
  8
0
 10
2307.713134765625
 20
444.806396484375
 42
-1
  0
VERTEX
  8
0
 10
2326.765625
 20
455.806396484375
 42
-1
  0
SEQEND
  0
POLYLINE
  8
0
 10
0
 20
0
 39
0
 70
1
 66
1
  0
VERTEX
  8
0
 10
2190.384521484375
 20
23.374996185302734
 42
-0
  0
VERTEX
  8
0
 10
2197.884521484375
 20
10.384614944458008
 42
-0
  0
VERTEX
  8
0
 10
2360.337890625
 20
10.384614944458008
 42
-0
  0
VERTEX
  8
0
 10
2371.4873046875
 20
29.69603157043457
 42
0
  0
VERTEX
  8
0
 10
2294.122314453125
 20
163.69602966308594
 42
0
  0
VERTEX
  8
0
 10
2271.39892578125
 20
163.69602966308594
 42
0
  0
SEQEND
  0
POLYLINE
  8
0
 10
0
 20
0
 39
0
 70
1
 66
1
  0
VERTEX
  8
0
 10
2273.505126953125
 20
145.40608215332031
 42
-1
  0
VERTEX
  8
0
 10
2284.505126953125
 20
126.35352325439453
 42
-1
  0
SEQEND
  0
POLYLINE
  8
0
 10
0
 20
0
 39
0
 70
1
 66
1
  0
VERTEX
  8
0
 10
2334.126953125
 20
40.406085968017578
 42
-1
  0
VERTEX
  8
0
 10
2345.126953125
 20
21.353525161743164
 42
-1
  0
SEQEND
  0
POLYLINE
  8
0
 10
0
 20
0
 39
0
 70
1
 66
1
  0
VERTEX
  8
0
 10
2212.88330078125
 20
40.406085968017578
 42
-1
  0
VERTEX
  8
0
 10
2223.88330078125
 20
21.353527069091797
 42
-1
  0
SEQEND
  0
POLYLINE
  8
0
 10
0
 20
0
 39
0
 70
1
 66
1
  0
VERTEX
  8
0
 10
2380.513427734375
 20
125.96154022216797
 42
-0
  0
VERTEX
  8
0
 10
2393.503662109375
 20
133.46153259277344
 42
-0
  0
VERTEX
  8
0
 10
2393.503662109375
 20
295.91473388671875
 42
-0
  0
VERTEX
  8
0
 10
2374.1923828125
 20
307.06417846679688
 42
0
  0
VERTEX
  8
0
 10
2240.1923828125
 20
229.69923400878906
 42
0
  0
VERTEX
  8
0
 10
2240.1923828125
 20
206.97592163085937
 42
0
  0
SEQEND
  0
POLYLINE
  8
0
 10
0
 20
0
 39
0
 70
1
 66
1
  0
VERTEX
  8
0
 10
2258.482177734375
 20
209.08203125
 42
-1
  0
VERTEX
  8
0
 10
2277.534912109375
 20
220.08203125
 42
-1
  0
SEQEND
  0
POLYLINE
  8
0
 10
0
 20
0
 39
0
 70
1
 66
1
  0
VERTEX
  8
0
 10
2363.482177734375
 20
269.70379638671875
 42
-1
  0
VERTEX
  8
0
 10
2382.534912109375
 20
280.70379638671875
 42
-1
  0
SEQEND
  0
POLYLINE
  8
0
 10
0
 20
0
 39
0
 70
1
 66
1
  0
VERTEX
  8
0
 10
2363.482177734375
 20
148.46025085449219
 42
-1
  0
VERTEX
  8
0
 10
2382.534912109375
 20
159.46025085449219
 42
-1
  0
SEQEND
  0
POLYLINE
  8
0
 10
0
 20
0
 39
0
 70
1
 66
1
  0
VERTEX
  8
0
 10
2260.490478515625
 20
438.41033935546875
 42
-0
  0
VERTEX
  8
0
 10
2247.5
 20
430.91033935546875
 42
-0
  0
VERTEX
  8
0
 10
2247.5
 20
268.4571533203125
 42
-0
  0
VERTEX
  8
0
 10
2266.8115234375
 20
257.30767822265625
 42
0
  0
VERTEX
  8
0
 10
2400.8115234375
 20
334.67263793945312
 42
0
  0
VERTEX
  8
0
 10
2400.8115234375
 20
357.39593505859375
 42
0
  0
SEQEND
  0
POLYLINE
  8
0
 10
0
 20
0
 39
0
 70
1
 66
1
  0
VERTEX
  8
0
 10
2382.521484375
 20
355.28982543945312
 42
-1
  0
VERTEX
  8
0
 10
2363.468994140625
 20
344.28982543945312
 42
-1
  0
SEQEND
  0
POLYLINE
  8
0
 10
0
 20
0
 39
0
 70
1
 66
1
  0
VERTEX
  8
0
 10
2277.521484375
 20
294.66806030273437
 42
-1
  0
VERTEX
  8
0
 10
2258.468994140625
 20
283.66806030273437
 42
-1
  0
SEQEND
  0
POLYLINE
  8
0
 10
0
 20
0
 39
0
 70
1
 66
1
  0
VERTEX
  8
0
 10
2277.521484375
 20
415.91162109375
 42
-1
  0
VERTEX
  8
0
 10
2258.468994140625
 20
404.91162109375
 42
-1
  0
SEQEND
  0
POLYLINE
  8
0
 10
0
 20
0
 39
0
 70
1
 66
1
  0
VERTEX
  8
0
 10
2412.0517578125
 20
561.5384521484375
 42
-0
  0
VERTEX
  8
0
 10
2425.042236328125
 20
569.0384521484375
 42
-0
  0
VERTEX
  8
0
 10
2425.042236328125
 20
731.49163818359375
 42
-0
  0
VERTEX
  8
0
 10
2405.730712890625
 20
742.64111328125
 42
0
  0
VERTEX
  8
0
 10
2271.730712890625
 20
665.27618408203125
 42
0
  0
VERTEX
  8
0
 10
2271.730712890625
 20
642.5528564453125
 42
0
  0
SEQEND
  0
POLYLINE
  8
0
 10
0
 20
0
 39
0
 70
1
 66
1
  0
VERTEX
  8
0
 10
2290.020751953125
 20
644.658935546875
 42
-1
  0
VERTEX
  8
0
 10
2309.0732421875
 20
655.658935546875
 42
-1
  0
SEQEND
  0
POLYLINE
  8
0
 10
0
 20
0
 39
0
 70
1
 66
1
  0
VERTEX
  8
0
 10
2395.020751953125
 20
705.28070068359375
 42
-1
  0
VERTEX
  8
0
 10
2414.0732421875
 20
716.28070068359375
 42
-1
  0
SEQEND
  0
POLYLINE
  8
0
 10
0
 20
0
 39
0
 70
1
 66
1
  0
VERTEX
  8
0
 10
2395.020751953125
 20
584.03717041015625
 42
-1
  0
VERTEX
  8
0
 10
2414.0732421875
 20
595.03717041015625
 42
-1
  0
SEQEND
  0
POLYLINE
  8
0
 10
0
 20
0
 39
0
 70
1
 66
1
  0
VERTEX
  8
0
 10
338
 20
26.384616851806641
 42
-0
  0
VERTEX
  8
0
 10
438.87066650390625
 20
26.384618759155273
 42
0.58976787328720093
  0
VERTEX
  8
0
 10
493.12933349609375
 20
26.384616851806641
 42
-0
  0
VERTEX
  8
0
 10
597
 20
26.384616851806641
 42
-0
  0
VERTEX
  8
0
 10
597
 20
56.384616851806641
 42
-0
  0
VERTEX
  8
0
 10
493.12933349609375
 20
56.384620666503906
 42
0.58976781368255615
  0
VERTEX
  8
0
 10
438.87066650390625
 20
56.384616851806641
 42
-0
  0
VERTEX
  8
0
 10
338
 20
56.384616851806641
 42
-0
  0
VERTEX
  8
0
 10
335
 20
53.384616851806641
 42
-0
  0
VERTEX
  8
0
 10
335
 20
29.384616851806641
 42
-0
  0
SEQEND
  0
POLYLINE
  8
0
 10
0
 20
0
 39
0
 70
1
 66
1
  0
VERTEX
  8
0
 10
352
 20
41.384616851806641
 42
-1
  0
VERTEX
  8
0
 10
368
 20
41.384616851806641
 42
-1
  0
SEQEND
  0
POLYLINE
  8
0
 10
0
 20
0
 39
0
 70
1
 66
1
  0
VERTEX
  8
0
 10
453
 20
41.384616851806641
 42
-1
  0
VERTEX
  8
0
 10
479
 20
41.384616851806641
 42
-1
  0
SEQEND
  0
POLYLINE
  8
0
 10
0
 20
0
 39
0
 70
1
 66
1
  0
VERTEX
  8
0
 10
564
 20
41.384616851806641
 42
-1
  0
VERTEX
  8
0
 10
580
 20
41.384616851806641
 42
-1
  0
SEQEND
  0
POLYLINE
  8
0
 10
0
 20
0
 39
0
 70
1
 66
1
  0
VERTEX
  8
0
 10
370.30767822265625
 20
879.26922607421875
 42
-0
  0
VERTEX
  8
0
 10
471.17837524414062
 20
879.26922607421875
 42
0.58976787328720093
  0
VERTEX
  8
0
 10
525.43701171875
 20
879.26922607421875
 42
-0
  0
VERTEX
  8
0
 10
629.30767822265625
 20
879.26922607421875
 42
-0
  0
VERTEX
  8
0
 10
629.30767822265625
 20
909.26922607421875
 42
-0
  0
VERTEX
  8
0
 10
525.43701171875
 20
909.26922607421875
 42
0.58976781368255615
  0
VERTEX
  8
0
 10
471.17837524414062
 20
909.26922607421875
 42
-0
  0
VERTEX
  8
0
 10
370.30767822265625
 20
909.26922607421875
 42
-0
  0
VERTEX
  8
0
 10
367.30767822265625
 20
906.26922607421875
 42
-0
  0
VERTEX
  8
0
 10
367.30767822265625
 20
882.26922607421875
 42
-0
  0
SEQEND
  0
POLYLINE
  8
0
 10
0
 20
0
 39
0
 70
1
 66
1
  0
VERTEX
  8
0
 10
384.30767822265625
 20
894.26922607421875
 42
-1
  0
VERTEX
  8
0
 10
400.30767822265625
 20
894.26922607421875
 42
-1
  0
SEQEND
  0
POLYLINE
  8
0
 10
0
 20
0
 39
0
 70
1
 66
1
  0
VERTEX
  8
0
 10
485.30767822265625
 20
894.26922607421875
 42
-1
  0
VERTEX
  8
0
 10
511.30767822265625
 20
894.26922607421875
 42
-1
  0
SEQEND
  0
POLYLINE
  8
0
 10
0
 20
0
 39
0
 70
1
 66
1
  0
VERTEX
  8
0
 10
596.30767822265625
 20
894.26922607421875
 42
-1
  0
VERTEX
  8
0
 10
612.30767822265625
 20
894.26922607421875
 42
-1
  0
SEQEND
  0
POLYLINE
  8
0
 10
0
 20
0
 39
0
 70
1
 66
1
  0
VERTEX
  8
0
 10
659.76922607421875
 20
973.69232177734375
 42
-0
  0
VERTEX
  8
0
 10
558.8985595703125
 20
973.69232177734375
 42
0.58976787328720093
  0
VERTEX
  8
0
 10
504.63992309570312
 20
973.69232177734375
 42
-0
  0
VERTEX
  8
0
 10
400.76922607421875
 20
973.69232177734375
 42
-0
  0
VERTEX
  8
0
 10
400.76922607421875
 20
943.69232177734375
 42
-0
  0
VERTEX
  8
0
 10
504.63992309570312
 20
943.69232177734375
 42
0.58976781368255615
  0
VERTEX
  8
0
 10
558.8985595703125
 20
943.69232177734375
 42
-0
  0
VERTEX
  8
0
 10
659.76922607421875
 20
943.69232177734375
 42
-0
  0
VERTEX
  8
0
 10
662.76922607421875
 20
946.69232177734375
 42
-0
  0
VERTEX
  8
0
 10
662.76922607421875
 20
970.69232177734375
 42
-0
  0
SEQEND
  0
POLYLINE
  8
0
 10
0
 20
0
 39
0
 70
1
 66
1
  0
VERTEX
  8
0
 10
645.76922607421875
 20
958.69232177734375
 42
-1
  0
VERTEX
  8
0
 10
629.76922607421875
 20
958.69232177734375
 42
-1
  0
SEQEND
  0
POLYLINE
  8
0
 10
0
 20
0
 39
0
 70
1
 66
1
  0
VERTEX
  8
0
 10
544.76922607421875
 20
958.69232177734375
 42
-1
  0
VERTEX
  8
0
 10
518.76922607421875
 20
958.69232177734375
 42
-1
  0
SEQEND
  0
POLYLINE
  8
0
 10
0
 20
0
 39
0
 70
1
 66
1
  0
VERTEX
  8
0
 10
433.76922607421875
 20
958.69232177734375
 42
-1
  0
VERTEX
  8
0
 10
417.76922607421875
 20
958.69232177734375
 42
-1
  0
SEQEND
  0
POLYLINE
  8
0
 10
0
 20
0
 39
0
 70
1
 66
1
  0
VERTEX
  8
0
 10
1467.15380859375
 20
667.0384521484375
 42
-0
  0
VERTEX
  8
0
 10
1467.15380859375
 20
767.90911865234375
 42
0.58976787328720093
  0
VERTEX
  8
0
 10
1467.15380859375
 20
822.16778564453125
 42
-0
  0
VERTEX
  8
0
 10
1467.15380859375
 20
926.0384521484375
 42
-0
  0
VERTEX
  8
0
 10
1437.15380859375
 20
926.0384521484375
 42
-0
  0
VERTEX
  8
0
 10
1437.15380859375
 20
822.16778564453125
 42
0.58976781368255615
  0
VERTEX
  8
0
 10
1437.15380859375
 20
767.90911865234375
 42
-0
  0
VERTEX
  8
0
 10
1437.15380859375
 20
667.0384521484375
 42
-0
  0
VERTEX
  8
0
 10
1440.15380859375
 20
664.0384521484375
 42
-0
  0
VERTEX
  8
0
 10
1464.15380859375
 20
664.0384521484375
 42
-0
  0
SEQEND
  0
POLYLINE
  8
0
 10
0
 20
0
 39
0
 70
1
 66
1
  0
VERTEX
  8
0
 10
1452.15380859375
 20
681.0384521484375
 42
-1
  0
VERTEX
  8
0
 10
1452.15380859375
 20
697.0384521484375
 42
-1
  0
SEQEND
  0
POLYLINE
  8
0
 10
0
 20
0
 39
0
 70
1
 66
1
  0
VERTEX
  8
0
 10
1452.15380859375
 20
782.0384521484375
 42
-1
  0
VERTEX
  8
0
 10
1452.15380859375
 20
808.0384521484375
 42
-1
  0
SEQEND
  0
POLYLINE
  8
0
 10
0
 20
0
 39
0
 70
1
 66
1
  0
VERTEX
  8
0
 10
1452.15380859375
 20
893.0384521484375
 42
-1
  0
VERTEX
  8
0
 10
1452.15380859375
 20
909.0384521484375
 42
-1
  0
SEQEND
  0
POLYLINE
  8
0
 10
0
 20
0
 39
0
 70
1
 66
1
  0
VERTEX
  8
0
 10
1509.076904296875
 20
13.384614944458008
 42
-0
  0
VERTEX
  8
0
 10
1509.076904296875
 20
114.25529479980469
 42
0.58976787328720093
  0
VERTEX
  8
0
 10
1509.076904296875
 20
168.51393127441406
 42
-0
  0
VERTEX
  8
0
 10
1509.076904296875
 20
272.38461303710937
 42
-0
  0
VERTEX
  8
0
 10
1479.076904296875
 20
272.38461303710937
 42
-0
  0
VERTEX
  8
0
 10
1479.076904296875
 20
168.51393127441406
 42
0.58976781368255615
  0
VERTEX
  8
0
 10
1479.076904296875
 20
114.25529479980469
 42
-0
  0
VERTEX
  8
0
 10
1479.076904296875
 20
13.384614944458008
 42
-0
  0
VERTEX
  8
0
 10
1482.076904296875
 20
10.384614944458008
 42
-0
  0
VERTEX
  8
0
 10
1506.076904296875
 20
10.384614944458008
 42
-0
  0
SEQEND
  0
POLYLINE
  8
0
 10
0
 20
0
 39
0
 70
1
 66
1
  0
VERTEX
  8
0
 10
1494.076904296875
 20
27.384614944458008
 42
-1
  0
VERTEX
  8
0
 10
1494.076904296875
 20
43.384616851806641
 42
-1
  0
SEQEND
  0
POLYLINE
  8
0
 10
0
 20
0
 39
0
 70
1
 66
1
  0
VERTEX
  8
0
 10
1494.076904296875
 20
128.38461303710937
 42
-1
  0
VERTEX
  8
0
 10
1494.076904296875
 20
154.38461303710938
 42
-1
  0
SEQEND
  0
POLYLINE
  8
0
 10
0
 20
0
 39
0
 70
1
 66
1
  0
VERTEX
  8
0
 10
1494.076904296875
 20
239.38461303710937
 42
-1
  0
VERTEX
  8
0
 10
1494.076904296875
 20
255.38461303710937
 42
-1
  0
SEQEND
  0
POLYLINE
  8
0
 10
0
 20
0
 39
0
 70
1
 66
1
  0
VERTEX
  8
0
 10
1523.6922607421875
 20
712.423095703125
 42
-0
  0
VERTEX
  8
0
 10
1523.6922607421875
 20
813.29376220703125
 42
0.58976787328720093
  0
VERTEX
  8
0
 10
1523.6922607421875
 20
867.5523681640625
 42
-0
  0
VERTEX
  8
0
 10
1523.6922607421875
 20
971.423095703125
 42
-0
  0
VERTEX
  8
0
 10
1493.6922607421875
 20
971.423095703125
 42
-0
  0
VERTEX
  8
0
 10
1493.6922607421875
 20
867.5523681640625
 42
0.58976781368255615
  0
VERTEX
  8
0
 10
1493.6922607421875
 20
813.29376220703125
 42
-0
  0
VERTEX
  8
0
 10
1493.6922607421875
 20
712.423095703125
 42
-0
  0
VERTEX
  8
0
 10
1496.6922607421875
 20
709.423095703125
 42
-0
  0
VERTEX
  8
0
 10
1520.6922607421875
 20
709.423095703125
 42
-0
  0
SEQEND
  0
POLYLINE
  8
0
 10
0
 20
0
 39
0
 70
1
 66
1
  0
VERTEX
  8
0
 10
1508.6922607421875
 20
726.423095703125
 42
-1
  0
VERTEX
  8
0
 10
1508.6922607421875
 20
742.423095703125
 42
-1
  0
SEQEND
  0
POLYLINE
  8
0
 10
0
 20
0
 39
0
 70
1
 66
1
  0
VERTEX
  8
0
 10
1508.6922607421875
 20
827.423095703125
 42
-1
  0
VERTEX
  8
0
 10
1508.6922607421875
 20
853.423095703125
 42
-1
  0
SEQEND
  0
POLYLINE
  8
0
 10
0
 20
0
 39
0
 70
1
 66
1
  0
VERTEX
  8
0
 10
1508.6922607421875
 20
938.423095703125
 42
-1
  0
VERTEX
  8
0
 10
1508.6922607421875
 20
954.423095703125
 42
-1
  0
SEQEND
  0
POLYLINE
  8
0
 10
0
 20
0
 39
0
 70
1
 66
1
  0
VERTEX
  8
0
 10
1992.84619140625
 20
966.576904296875
 42
-0
  0
VERTEX
  8
0
 10
1891.9754638671875
 20
966.576904296875
 42
0.58976787328720093
  0
VERTEX
  8
0
 10
1837.716796875
 20
966.576904296875
 42
-0
  0
VERTEX
  8
0
 10
1733.84619140625
 20
966.576904296875
 42
-0
  0
VERTEX
  8
0
 10
1733.84619140625
 20
936.576904296875
 42
-0
  0
VERTEX
  8
0
 10
1837.716796875
 20
936.576904296875
 42
0.58976781368255615
  0
VERTEX
  8
0
 10
1891.9754638671875
 20
936.576904296875
 42
-0
  0
VERTEX
  8
0
 10
1992.84619140625
 20
936.576904296875
 42
-0
  0
VERTEX
  8
0
 10
1995.84619140625
 20
939.576904296875
 42
-0
  0
VERTEX
  8
0
 10
1995.84619140625
 20
963.576904296875
 42
-0
  0
SEQEND
  0
POLYLINE
  8
0
 10
0
 20
0
 39
0
 70
1
 66
1
  0
VERTEX
  8
0
 10
1978.84619140625
 20
951.576904296875
 42
-1
  0
VERTEX
  8
0
 10
1962.84619140625
 20
951.576904296875
 42
-1
  0
SEQEND
  0
POLYLINE
  8
0
 10
0
 20
0
 39
0
 70
1
 66
1
  0
VERTEX
  8
0
 10
1877.84619140625
 20
951.576904296875
 42
-1
  0
VERTEX
  8
0
 10
1851.84619140625
 20
951.576904296875
 42
-1
  0
SEQEND
  0
POLYLINE
  8
0
 10
0
 20
0
 39
0
 70
1
 66
1
  0
VERTEX
  8
0
 10
1766.84619140625
 20
951.576904296875
 42
-1
  0
VERTEX
  8
0
 10
1750.84619140625
 20
951.576904296875
 42
-1
  0
SEQEND
  0
POLYLINE
  8
0
 10
0
 20
0
 39
0
 70
1
 66
1
  0
VERTEX
  8
0
 10
2441.384521484375
 20
262.23077392578125
 42
-0
  0
VERTEX
  8
0
 10
2441.384521484375
 20
363.1014404296875
 42
0.58976787328720093
  0
VERTEX
  8
0
 10
2441.384521484375
 20
417.36007690429687
 42
-0
  0
VERTEX
  8
0
 10
2441.384521484375
 20
521.23077392578125
 42
-0
  0
VERTEX
  8
0
 10
2411.384521484375
 20
521.23077392578125
 42
-0
  0
VERTEX
  8
0
 10
2411.384521484375
 20
417.36007690429687
 42
0.58976781368255615
  0
VERTEX
  8
0
 10
2411.384521484375
 20
363.1014404296875
 42
-0
  0
VERTEX
  8
0
 10
2411.384521484375
 20
262.23077392578125
 42
-0
  0
VERTEX
  8
0
 10
2414.384521484375
 20
259.23077392578125
 42
-0
  0
VERTEX
  8
0
 10
2438.384521484375
 20
259.23077392578125
 42
-0
  0
SEQEND
  0
POLYLINE
  8
0
 10
0
 20
0
 39
0
 70
1
 66
1
  0
VERTEX
  8
0
 10
2426.384521484375
 20
276.23077392578125
 42
-1
  0
VERTEX
  8
0
 10
2426.384521484375
 20
292.23077392578125
 42
-1
  0
SEQEND
  0
POLYLINE
  8
0
 10
0
 20
0
 39
0
 70
1
 66
1
  0
VERTEX
  8
0
 10
2426.384521484375
 20
377.23077392578125
 42
-1
  0
VERTEX
  8
0
 10
2426.384521484375
 20
403.23077392578125
 42
-1
  0
SEQEND
  0
POLYLINE
  8
0
 10
0
 20
0
 39
0
 70
1
 66
1
  0
VERTEX
  8
0
 10
2426.384521484375
 20
488.23077392578125
 42
-1
  0
VERTEX
  8
0
 10
2426.384521484375
 20
504.23077392578125
 42
-1
  0
SEQEND
  0
POLYLINE
  8
0
 10
0
 20
0
 39
0
 70
1
 66
1
  0
VERTEX
  8
0
 10
2465.615478515625
 20
636.26922607421875
 42
-0
  0
VERTEX
  8
0
 10
2465.615478515625
 20
737.139892578125
 42
0.58976787328720093
  0
VERTEX
  8
0
 10
2465.615478515625
 20
791.3985595703125
 42
-0
  0
VERTEX
  8
0
 10
2465.615478515625
 20
895.26922607421875
 42
-0
  0
VERTEX
  8
0
 10
2435.615478515625
 20
895.26922607421875
 42
-0
  0
VERTEX
  8
0
 10
2435.615478515625
 20
791.3985595703125
 42
0.58976781368255615
  0
VERTEX
  8
0
 10
2435.615478515625
 20
737.139892578125
 42
-0
  0
VERTEX
  8
0
 10
2435.615478515625
 20
636.26922607421875
 42
-0
  0
VERTEX
  8
0
 10
2438.615478515625
 20
633.26922607421875
 42
-0
  0
VERTEX
  8
0
 10
2462.615478515625
 20
633.26922607421875
 42
-0
  0
SEQEND
  0
POLYLINE
  8
0
 10
0
 20
0
 39
0
 70
1
 66
1
  0
VERTEX
  8
0
 10
2450.615478515625
 20
650.26922607421875
 42
-1
  0
VERTEX
  8
0
 10
2450.615478515625
 20
666.26922607421875
 42
-1
  0
SEQEND
  0
POLYLINE
  8
0
 10
0
 20
0
 39
0
 70
1
 66
1
  0
VERTEX
  8
0
 10
2450.615478515625
 20
751.26922607421875
 42
-1
  0
VERTEX
  8
0
 10
2450.615478515625
 20
777.26922607421875
 42
-1
  0
SEQEND
  0
POLYLINE
  8
0
 10
0
 20
0
 39
0
 70
1
 66
1
  0
VERTEX
  8
0
 10
2450.615478515625
 20
862.26922607421875
 42
-1
  0
VERTEX
  8
0
 10
2450.615478515625
 20
878.26922607421875
 42
-1
  0
SEQEND
  0
POLYLINE
  8
0
 10
0
 20
0
 39
0
 70
1
 66
1
  0
VERTEX
  8
0
 10
44.384616851806641
 20
783.84613037109375
 42
0
  0
VERTEX
  8
0
 10
10.384614944458008
 20
783.84613037109375
 42
0
  0
VERTEX
  8
0
 10
10.384614944458008
 20
683.84613037109375
 42
0
  0
VERTEX
  8
0
 10
44.384616851806641
 20
683.84613037109375
 42
0
  0
SEQEND
  0
POLYLINE
  8
0
 10
0
 20
0
 39
0
 70
1
 66
1
  0
VERTEX
  8
0
 10
27.384614944458008
 20
760.34613037109375
 42
-1
  0
VERTEX
  8
0
 10
27.384614944458008
 20
777.34613037109375
 42
-1
  0
SEQEND
  0
POLYLINE
  8
0
 10
0
 20
0
 39
0
 70
1
 66
1
  0
VERTEX
  8
0
 10
27.384614944458008
 20
690.34613037109375
 42
-1
  0
VERTEX
  8
0
 10
27.384614944458008
 20
707.34613037109375
 42
-1
  0
SEQEND
  0
POLYLINE
  8
0
 10
0
 20
0
 39
0
 70
1
 66
1
  0
VERTEX
  8
0
 10
10.384614944458008
 20
233.03846740722656
 42
0
  0
VERTEX
  8
0
 10
10.384614944458008
 20
199.03846740722656
 42
0
  0
VERTEX
  8
0
 10
110.38461303710937
 20
199.03846740722656
 42
0
  0
VERTEX
  8
0
 10
110.38461303710937
 20
233.03846740722656
 42
0
  0
SEQEND
  0
POLYLINE
  8
0
 10
0
 20
0
 39
0
 70
1
 66
1
  0
VERTEX
  8
0
 10
33.884616851806641
 20
216.03846740722656
 42
-1
  0
VERTEX
  8
0
 10
16.884614944458008
 20
216.03846740722656
 42
-1
  0
SEQEND
  0
POLYLINE
  8
0
 10
0
 20
0
 39
0
 70
1
 66
1
  0
VERTEX
  8
0
 10
103.88461303710937
 20
216.03846740722656
 42
-1
  0
VERTEX
  8
0
 10
86.884613037109375
 20
216.03846740722656
 42
-1
  0
SEQEND
  0
POLYLINE
  8
0
 10
0
 20
0
 39
0
 70
1
 66
1
  0
VERTEX
  8
0
 10
10.384614944458008
 20
490.92306518554687
 42
0
  0
VERTEX
  8
0
 10
10.384614944458008
 20
456.92306518554687
 42
0
  0
VERTEX
  8
0
 10
110.38461303710937
 20
456.92306518554687
 42
0
  0
VERTEX
  8
0
 10
110.38461303710937
 20
490.92306518554687
 42
0
  0
SEQEND
  0
POLYLINE
  8
0
 10
0
 20
0
 39
0
 70
1
 66
1
  0
VERTEX
  8
0
 10
33.884616851806641
 20
473.92306518554687
 42
-1
  0
VERTEX
  8
0
 10
16.884614944458008
 20
473.92306518554687
 42
-1
  0
SEQEND
  0
POLYLINE
  8
0
 10
0
 20
0
 39
0
 70
1
 66
1
  0
VERTEX
  8
0
 10
103.88461303710937
 20
473.92306518554687
 42
-1
  0
VERTEX
  8
0
 10
86.884613037109375
 20
473.92306518554687
 42
-1
  0
SEQEND
  0
POLYLINE
  8
0
 10
0
 20
0
 39
0
 70
1
 66
1
  0
VERTEX
  8
0
 10
54.615383148193359
 20
769.576904296875
 42
0
  0
VERTEX
  8
0
 10
54.615383148193359
 20
735.576904296875
 42
0
  0
VERTEX
  8
0
 10
154.61538696289062
 20
735.576904296875
 42
0
  0
VERTEX
  8
0
 10
154.61538696289062
 20
769.576904296875
 42
0
  0
SEQEND
  0
POLYLINE
  8
0
 10
0
 20
0
 39
0
 70
1
 66
1
  0
VERTEX
  8
0
 10
78.115386962890625
 20
752.576904296875
 42
-1
  0
VERTEX
  8
0
 10
61.115383148193359
 20
752.576904296875
 42
-1
  0
SEQEND
  0
POLYLINE
  8
0
 10
0
 20
0
 39
0
 70
1
 66
1
  0
VERTEX
  8
0
 10
148.11538696289062
 20
752.576904296875
 42
-1
  0
VERTEX
  8
0
 10
131.11538696289062
 20
752.576904296875
 42
-1
  0
SEQEND
  0
POLYLINE
  8
0
 10
0
 20
0
 39
0
 70
1
 66
1
  0
VERTEX
  8
0
 10
707.076904296875
 20
963.26922607421875
 42
0
  0
VERTEX
  8
0
 10
673.076904296875
 20
963.26922607421875
 42
0
  0
VERTEX
  8
0
 10
673.076904296875
 20
863.26922607421875
 42
0
  0
VERTEX
  8
0
 10
707.076904296875
 20
863.26922607421875
 42
0
  0
SEQEND
  0
POLYLINE
  8
0
 10
0
 20
0
 39
0
 70
1
 66
1
  0
VERTEX
  8
0
 10
690.076904296875
 20
939.76922607421875
 42
-1
  0
VERTEX
  8
0
 10
690.076904296875
 20
956.76922607421875
 42
-1
  0
SEQEND
  0
POLYLINE
  8
0
 10
0
 20
0
 39
0
 70
1
 66
1
  0
VERTEX
  8
0
 10
690.076904296875
 20
869.76922607421875
 42
-1
  0
VERTEX
  8
0
 10
690.076904296875
 20
886.76922607421875
 42
-1
  0
SEQEND
  0
POLYLINE
  8
0
 10
0
 20
0
 39
0
 70
1
 66
1
  0
VERTEX
  8
0
 10
607.30767822265625
 20
44.384616851806641
 42
0
  0
VERTEX
  8
0
 10
607.30767822265625
 20
10.384614944458008
 42
0
  0
VERTEX
  8
0
 10
707.30767822265625
 20
10.384614944458008
 42
0
  0
VERTEX
  8
0
 10
707.30767822265625
 20
44.384616851806641
 42
0
  0
SEQEND
  0
POLYLINE
  8
0
 10
0
 20
0
 39
0
 70
1
 66
1
  0
VERTEX
  8
0
 10
630.80767822265625
 20
27.384614944458008
 42
-1
  0
VERTEX
  8
0
 10
613.80767822265625
 20
27.384614944458008
 42
-1
  0
SEQEND
  0
POLYLINE
  8
0
 10
0
 20
0
 39
0
 70
1
 66
1
  0
VERTEX
  8
0
 10
700.80767822265625
 20
27.384614944458008
 42
-1
  0
VERTEX
  8
0
 10
683.80767822265625
 20
27.384614944458008
 42
-1
  0
SEQEND
  0
POLYLINE
  8
0
 10
0
 20
0
 39
0
 70
1
 66
1
  0
VERTEX
  8
0
 10
751.30767822265625
 20
963.26922607421875
 42
0
  0
VERTEX
  8
0
 10
717.30767822265625
 20
963.26922607421875
 42
0
  0
VERTEX
  8
0
 10
717.30767822265625
 20
863.26922607421875
 42
0
  0
VERTEX
  8
0
 10
751.30767822265625
 20
863.26922607421875
 42
0
  0
SEQEND
  0
POLYLINE
  8
0
 10
0
 20
0
 39
0
 70
1
 66
1
  0
VERTEX
  8
0
 10
734.30767822265625
 20
939.76922607421875
 42
-1
  0
VERTEX
  8
0
 10
734.30767822265625
 20
956.76922607421875
 42
-1
  0
SEQEND
  0
POLYLINE
  8
0
 10
0
 20
0
 39
0
 70
1
 66
1
  0
VERTEX
  8
0
 10
734.30767822265625
 20
869.76922607421875
 42
-1
  0
VERTEX
  8
0
 10
734.30767822265625
 20
886.76922607421875
 42
-1
  0
SEQEND
  0
POLYLINE
  8
0
 10
0
 20
0
 39
0
 70
1
 66
1
  0
VERTEX
  8
0
 10
795.5384521484375
 20
953.076904296875
 42
0
  0
VERTEX
  8
0
 10
761.5384521484375
 20
953.076904296875
 42
0
  0
VERTEX
  8
0
 10
761.5384521484375
 20
853.076904296875
 42
0
  0
VERTEX
  8
0
 10
795.5384521484375
 20
853.076904296875
 42
0
  0
SEQEND
  0
POLYLINE
  8
0
 10
0
 20
0
 39
0
 70
1
 66
1
  0
VERTEX
  8
0
 10
778.5384521484375
 20
929.576904296875
 42
-1
  0
VERTEX
  8
0
 10
778.5384521484375
 20
946.576904296875
 42
-1
  0
SEQEND
  0
POLYLINE
  8
0
 10
0
 20
0
 39
0
 70
1
 66
1
  0
VERTEX
  8
0
 10
778.5384521484375
 20
859.576904296875
 42
-1
  0
VERTEX
  8
0
 10
778.5384521484375
 20
876.576904296875
 42
-1
  0
SEQEND
  0
POLYLINE
  8
0
 10
0
 20
0
 39
0
 70
1
 66
1
  0
VERTEX
  8
0
 10
717.69232177734375
 20
44.384616851806641
 42
0
  0
VERTEX
  8
0
 10
717.69232177734375
 20
10.384614944458008
 42
0
  0
VERTEX
  8
0
 10
817.69232177734375
 20
10.384614944458008
 42
0
  0
VERTEX
  8
0
 10
817.69232177734375
 20
44.384616851806641
 42
0
  0
SEQEND
  0
POLYLINE
  8
0
 10
0
 20
0
 39
0
 70
1
 66
1
  0
VERTEX
  8
0
 10
741.19232177734375
 20
27.384614944458008
 42
-1
  0
VERTEX
  8
0
 10
724.19232177734375
 20
27.384614944458008
 42
-1
  0
SEQEND
  0
POLYLINE
  8
0
 10
0
 20
0
 39
0
 70
1
 66
1
  0
VERTEX
  8
0
 10
811.19232177734375
 20
27.384614944458008
 42
-1
  0
VERTEX
  8
0
 10
794.19232177734375
 20
27.384614944458008
 42
-1
  0
SEQEND
  0
POLYLINE
  8
0
 10
0
 20
0
 39
0
 70
1
 66
1
  0
VERTEX
  8
0
 10
839.76922607421875
 20
936.923095703125
 42
0
  0
VERTEX
  8
0
 10
805.76922607421875
 20
936.923095703125
 42
0
  0
VERTEX
  8
0
 10
805.76922607421875
 20
836.923095703125
 42
0
  0
VERTEX
  8
0
 10
839.76922607421875
 20
836.923095703125
 42
0
  0
SEQEND
  0
POLYLINE
  8
0
 10
0
 20
0
 39
0
 70
1
 66
1
  0
VERTEX
  8
0
 10
822.76922607421875
 20
913.423095703125
 42
-1
  0
VERTEX
  8
0
 10
822.76922607421875
 20
930.423095703125
 42
-1
  0
SEQEND
  0
POLYLINE
  8
0
 10
0
 20
0
 39
0
 70
1
 66
1
  0
VERTEX
  8
0
 10
822.76922607421875
 20
843.423095703125
 42
-1
  0
VERTEX
  8
0
 10
822.76922607421875
 20
860.423095703125
 42
-1
  0
SEQEND
  0
POLYLINE
  8
0
 10
0
 20
0
 39
0
 70
1
 66
1
  0
VERTEX
  8
0
 10
974.6153564453125
 20
809.576904296875
 42
0
  0
VERTEX
  8
0
 10
974.6153564453125
 20
775.576904296875
 42
0
  0
VERTEX
  8
0
 10
1074.6153564453125
 20
775.576904296875
 42
0
  0
VERTEX
  8
0
 10
1074.6153564453125
 20
809.576904296875
 42
0
  0
SEQEND
  0
POLYLINE
  8
0
 10
0
 20
0
 39
0
 70
1
 66
1
  0
VERTEX
  8
0
 10
998.1153564453125
 20
792.576904296875
 42
-1
  0
VERTEX
  8
0
 10
981.1153564453125
 20
792.576904296875
 42
-1
  0
SEQEND
  0
POLYLINE
  8
0
 10
0
 20
0
 39
0
 70
1
 66
1
  0
VERTEX
  8
0
 10
1068.1153564453125
 20
792.576904296875
 42
-1
  0
VERTEX
  8
0
 10
1051.1153564453125
 20
792.576904296875
 42
-1
  0
SEQEND
  0
POLYLINE
  8
0
 10
0
 20
0
 39
0
 70
1
 66
1
  0
VERTEX
  8
0
 10
1072.5
 20
258.23077392578125
 42
0
  0
VERTEX
  8
0
 10
1072.5
 20
224.23077392578125
 42
0
  0
VERTEX
  8
0
 10
1172.5
 20
224.23077392578125
 42
0
  0
VERTEX
  8
0
 10
1172.5
 20
258.23077392578125
 42
0
  0
SEQEND
  0
POLYLINE
  8
0
 10
0
 20
0
 39
0
 70
1
 66
1
  0
VERTEX
  8
0
 10
1096
 20
241.23077392578125
 42
-1
  0
VERTEX
  8
0
 10
1079
 20
241.23077392578125
 42
-1
  0
SEQEND
  0
POLYLINE
  8
0
 10
0
 20
0
 39
0
 70
1
 66
1
  0
VERTEX
  8
0
 10
1166
 20
241.23077392578125
 42
-1
  0
VERTEX
  8
0
 10
1149
 20
241.23077392578125
 42
-1
  0
SEQEND
  0
POLYLINE
  8
0
 10
0
 20
0
 39
0
 70
1
 66
1
  0
VERTEX
  8
0
 10
1072.5
 20
516.1153564453125
 42
0
  0
VERTEX
  8
0
 10
1072.5
 20
482.11538696289062
 42
0
  0
VERTEX
  8
0
 10
1172.5
 20
482.11538696289062
 42
0
  0
VERTEX
  8
0
 10
1172.5
 20
516.1153564453125
 42
0
  0
SEQEND
  0
POLYLINE
  8
0
 10
0
 20
0
 39
0
 70
1
 66
1
  0
VERTEX
  8
0
 10
1096
 20
499.11538696289062
 42
-1
  0
VERTEX
  8
0
 10
1079
 20
499.11538696289062
 42
-1
  0
SEQEND
  0
POLYLINE
  8
0
 10
0
 20
0
 39
0
 70
1
 66
1
  0
VERTEX
  8
0
 10
1166
 20
499.11538696289062
 42
-1
  0
VERTEX
  8
0
 10
1149
 20
499.11538696289062
 42
-1
  0
SEQEND
  0
POLYLINE
  8
0
 10
0
 20
0
 39
0
 70
1
 66
1
  0
VERTEX
  8
0
 10
1083.65380859375
 20
769.9615478515625
 42
0
  0
VERTEX
  8
0
 10
1083.65380859375
 20
735.9615478515625
 42
0
  0
VERTEX
  8
0
 10
1183.65380859375
 20
735.9615478515625
 42
0
  0
VERTEX
  8
0
 10
1183.65380859375
 20
769.9615478515625
 42
0
  0
SEQEND
  0
POLYLINE
  8
0
 10
0
 20
0
 39
0
 70
1
 66
1
  0
VERTEX
  8
0
 10
1107.15380859375
 20
752.9615478515625
 42
-1
  0
VERTEX
  8
0
 10
1090.15380859375
 20
752.9615478515625
 42
-1
  0
SEQEND
  0
POLYLINE
  8
0
 10
0
 20
0
 39
0
 70
1
 66
1
  0
VERTEX
  8
0
 10
1177.15380859375
 20
752.9615478515625
 42
-1
  0
VERTEX
  8
0
 10
1160.15380859375
 20
752.9615478515625
 42
-1
  0
SEQEND
  0
POLYLINE
  8
0
 10
0
 20
0
 39
0
 70
1
 66
1
  0
VERTEX
  8
0
 10
1228.0384521484375
 20
795.9615478515625
 42
0
  0
VERTEX
  8
0
 10
1194.0384521484375
 20
795.9615478515625
 42
0
  0
VERTEX
  8
0
 10
1194.0384521484375
 20
695.9615478515625
 42
0
  0
VERTEX
  8
0
 10
1228.0384521484375
 20
695.9615478515625
 42
0
  0
SEQEND
  0
POLYLINE
  8
0
 10
0
 20
0
 39
0
 70
1
 66
1
  0
VERTEX
  8
0
 10
1211.0384521484375
 20
772.4615478515625
 42
-1
  0
VERTEX
  8
0
 10
1211.0384521484375
 20
789.4615478515625
 42
-1
  0
SEQEND
  0
POLYLINE
  8
0
 10
0
 20
0
 39
0
 70
1
 66
1
  0
VERTEX
  8
0
 10
1211.0384521484375
 20
702.4615478515625
 42
-1
  0
VERTEX
  8
0
 10
1211.0384521484375
 20
719.4615478515625
 42
-1
  0
SEQEND
  0
POLYLINE
  8
0
 10
0
 20
0
 39
0
 70
1
 66
1
  0
VERTEX
  8
0
 10
1282.6922607421875
 20
597.4615478515625
 42
0
  0
VERTEX
  8
0
 10
1282.6922607421875
 20
563.4615478515625
 42
0
  0
VERTEX
  8
0
 10
1382.6922607421875
 20
563.4615478515625
 42
0
  0
VERTEX
  8
0
 10
1382.6922607421875
 20
597.4615478515625
 42
0
  0
SEQEND
  0
POLYLINE
  8
0
 10
0
 20
0
 39
0
 70
1
 66
1
  0
VERTEX
  8
0
 10
1306.1922607421875
 20
580.4615478515625
 42
-1
  0
VERTEX
  8
0
 10
1289.1922607421875
 20
580.4615478515625
 42
-1
  0
SEQEND
  0
POLYLINE
  8
0
 10
0
 20
0
 39
0
 70
1
 66
1
  0
VERTEX
  8
0
 10
1376.1922607421875
 20
580.4615478515625
 42
-1
  0
VERTEX
  8
0
 10
1359.1922607421875
 20
580.4615478515625
 42
-1
  0
SEQEND
  0
POLYLINE
  8
0
 10
0
 20
0
 39
0
 70
1
 66
1
  0
VERTEX
  8
0
 10
1404.1922607421875
 20
463.26922607421875
 42
0
  0
VERTEX
  8
0
 10
1370.1922607421875
 20
463.26922607421875
 42
0
  0
VERTEX
  8
0
 10
1370.1922607421875
 20
363.26922607421875
 42
0
  0
VERTEX
  8
0
 10
1404.1922607421875
 20
363.26922607421875
 42
0
  0
SEQEND
  0
POLYLINE
  8
0
 10
0
 20
0
 39
0
 70
1
 66
1
  0
VERTEX
  8
0
 10
1387.1922607421875
 20
439.76922607421875
 42
-1
  0
VERTEX
  8
0
 10
1387.1922607421875
 20
456.76922607421875
 42
-1
  0
SEQEND
  0
POLYLINE
  8
0
 10
0
 20
0
 39
0
 70
1
 66
1
  0
VERTEX
  8
0
 10
1387.1922607421875
 20
369.76922607421875
 42
-1
  0
VERTEX
  8
0
 10
1387.1922607421875
 20
386.76922607421875
 42
-1
  0
SEQEND
  0
POLYLINE
  8
0
 10
0
 20
0
 39
0
 70
1
 66
1
  0
VERTEX
  8
0
 10
1553.423095703125
 20
274.23077392578125
 42
0
  0
VERTEX
  8
0
 10
1519.423095703125
 20
274.23077392578125
 42
0
  0
VERTEX
  8
0
 10
1519.423095703125
 20
174.23077392578125
 42
0
  0
VERTEX
  8
0
 10
1553.423095703125
 20
174.23077392578125
 42
0
  0
SEQEND
  0
POLYLINE
  8
0
 10
0
 20
0
 39
0
 70
1
 66
1
  0
VERTEX
  8
0
 10
1536.423095703125
 20
250.73077392578125
 42
-1
  0
VERTEX
  8
0
 10
1536.423095703125
 20
267.73077392578125
 42
-1
  0
SEQEND
  0
POLYLINE
  8
0
 10
0
 20
0
 39
0
 70
1
 66
1
  0
VERTEX
  8
0
 10
1536.423095703125
 20
180.73077392578125
 42
-1
  0
VERTEX
  8
0
 10
1536.423095703125
 20
197.73077392578125
 42
-1
  0
SEQEND
  0
POLYLINE
  8
0
 10
0
 20
0
 39
0
 70
1
 66
1
  0
VERTEX
  8
0
 10
1555.730712890625
 20
110.38461303710937
 42
0
  0
VERTEX
  8
0
 10
1521.730712890625
 20
110.38461303710937
 42
0
  0
VERTEX
  8
0
 10
1521.730712890625
 20
10.384614944458008
 42
0
  0
VERTEX
  8
0
 10
1555.730712890625
 20
10.384614944458008
 42
0
  0
SEQEND
  0
POLYLINE
  8
0
 10
0
 20
0
 39
0
 70
1
 66
1
  0
VERTEX
  8
0
 10
1538.730712890625
 20
86.884613037109375
 42
-1
  0
VERTEX
  8
0
 10
1538.730712890625
 20
103.88461303710937
 42
-1
  0
SEQEND
  0
POLYLINE
  8
0
 10
0
 20
0
 39
0
 70
1
 66
1
  0
VERTEX
  8
0
 10
1538.730712890625
 20
16.884614944458008
 42
-1
  0
VERTEX
  8
0
 10
1538.730712890625
 20
33.884616851806641
 42
-1
  0
SEQEND
  0
POLYLINE
  8
0
 10
0
 20
0
 39
0
 70
1
 66
1
  0
VERTEX
  8
0
 10
1635.5384521484375
 20
495.57693481445312
 42
0
  0
VERTEX
  8
0
 10
1601.5384521484375
 20
495.57693481445312
 42
0
  0
VERTEX
  8
0
 10
1601.5384521484375
 20
395.57693481445312
 42
0
  0
VERTEX
  8
0
 10
1635.5384521484375
 20
395.57693481445312
 42
0
  0
SEQEND
  0
POLYLINE
  8
0
 10
0
 20
0
 39
0
 70
1
 66
1
  0
VERTEX
  8
0
 10
1618.5384521484375
 20
472.07693481445312
 42
-1
  0
VERTEX
  8
0
 10
1618.5384521484375
 20
489.07693481445312
 42
-1
  0
SEQEND
  0
POLYLINE
  8
0
 10
0
 20
0
 39
0
 70
1
 66
1
  0
VERTEX
  8
0
 10
1618.5384521484375
 20
402.07693481445312
 42
-1
  0
VERTEX
  8
0
 10
1618.5384521484375
 20
419.07693481445312
 42
-1
  0
SEQEND
  0
POLYLINE
  8
0
 10
0
 20
0
 39
0
 70
1
 66
1
  0
VERTEX
  8
0
 10
1635.5384521484375
 20
605.76922607421875
 42
0
  0
VERTEX
  8
0
 10
1601.5384521484375
 20
605.76922607421875
 42
0
  0
VERTEX
  8
0
 10
1601.5384521484375
 20
505.76922607421875
 42
0
  0
VERTEX
  8
0
 10
1635.5384521484375
 20
505.76922607421875
 42
0
  0
SEQEND
  0
POLYLINE
  8
0
 10
0
 20
0
 39
0
 70
1
 66
1
  0
VERTEX
  8
0
 10
1618.5384521484375
 20
582.26922607421875
 42
-1
  0
VERTEX
  8
0
 10
1618.5384521484375
 20
599.26922607421875
 42
-1
  0
SEQEND
  0
POLYLINE
  8
0
 10
0
 20
0
 39
0
 70
1
 66
1
  0
VERTEX
  8
0
 10
1618.5384521484375
 20
512.26922607421875
 42
-1
  0
VERTEX
  8
0
 10
1618.5384521484375
 20
529.26922607421875
 42
-1
  0
SEQEND
  0
POLYLINE
  8
0
 10
0
 20
0
 39
0
 70
1
 66
1
  0
VERTEX
  8
0
 10
1679.769287109375
 20
479.80767822265625
 42
0
  0
VERTEX
  8
0
 10
1645.769287109375
 20
479.80767822265625
 42
0
  0
VERTEX
  8
0
 10
1645.769287109375
 20
379.80767822265625
 42
0
  0
VERTEX
  8
0
 10
1679.769287109375
 20
379.80767822265625
 42
0
  0
SEQEND
  0
POLYLINE
  8
0
 10
0
 20
0
 39
0
 70
1
 66
1
  0
VERTEX
  8
0
 10
1662.769287109375
 20
456.30767822265625
 42
-1
  0
VERTEX
  8
0
 10
1662.769287109375
 20
473.30767822265625
 42
-1
  0
SEQEND
  0
POLYLINE
  8
0
 10
0
 20
0
 39
0
 70
1
 66
1
  0
VERTEX
  8
0
 10
1662.769287109375
 20
386.30767822265625
 42
-1
  0
VERTEX
  8
0
 10
1662.769287109375
 20
403.30767822265625
 42
-1
  0
SEQEND
  0
POLYLINE
  8
0
 10
0
 20
0
 39
0
 70
1
 66
1
  0
VERTEX
  8
0
 10
1679.769287109375
 20
590
 42
0
  0
VERTEX
  8
0
 10
1645.769287109375
 20
590
 42
0
  0
VERTEX
  8
0
 10
1645.769287109375
 20
490
 42
0
  0
VERTEX
  8
0
 10
1679.769287109375
 20
490
 42
0
  0
SEQEND
  0
POLYLINE
  8
0
 10
0
 20
0
 39
0
 70
1
 66
1
  0
VERTEX
  8
0
 10
1662.769287109375
 20
566.5
 42
-1
  0
VERTEX
  8
0
 10
1662.769287109375
 20
583.5
 42
-1
  0
SEQEND
  0
POLYLINE
  8
0
 10
0
 20
0
 39
0
 70
1
 66
1
  0
VERTEX
  8
0
 10
1662.769287109375
 20
496.5
 42
-1
  0
VERTEX
  8
0
 10
1662.769287109375
 20
513.5
 42
-1
  0
SEQEND
  0
POLYLINE
  8
0
 10
0
 20
0
 39
0
 70
1
 66
1
  0
VERTEX
  8
0
 10
1724
 20
589.6153564453125
 42
0
  0
VERTEX
  8
0
 10
1690
 20
589.6153564453125
 42
0
  0
VERTEX
  8
0
 10
1690
 20
489.61538696289062
 42
0
  0
VERTEX
  8
0
 10
1724
 20
489.61538696289062
 42
0
  0
SEQEND
  0
POLYLINE
  8
0
 10
0
 20
0
 39
0
 70
1
 66
1
  0
VERTEX
  8
0
 10
1707
 20
566.1153564453125
 42
-1
  0
VERTEX
  8
0
 10
1707
 20
583.1153564453125
 42
-1
  0
SEQEND
  0
POLYLINE
  8
0
 10
0
 20
0
 39
0
 70
1
 66
1
  0
VERTEX
  8
0
 10
1707
 20
496.11538696289062
 42
-1
  0
VERTEX
  8
0
 10
1707
 20
513.1153564453125
 42
-1
  0
SEQEND
  0
POLYLINE
  8
0
 10
0
 20
0
 39
0
 70
1
 66
1
  0
VERTEX
  8
0
 10
1815.923095703125
 20
285.19232177734375
 42
0
  0
VERTEX
  8
0
 10
1781.923095703125
 20
285.19232177734375
 42
0
  0
VERTEX
  8
0
 10
1781.923095703125
 20
185.19230651855469
 42
0
  0
VERTEX
  8
0
 10
1815.923095703125
 20
185.19230651855469
 42
0
  0
SEQEND
  0
POLYLINE
  8
0
 10
0
 20
0
 39
0
 70
1
 66
1
  0
VERTEX
  8
0
 10
1798.923095703125
 20
261.69232177734375
 42
-1
  0
VERTEX
  8
0
 10
1798.923095703125
 20
278.69232177734375
 42
-1
  0
SEQEND
  0
POLYLINE
  8
0
 10
0
 20
0
 39
0
 70
1
 66
1
  0
VERTEX
  8
0
 10
1798.923095703125
 20
191.69230651855469
 42
-1
  0
VERTEX
  8
0
 10
1798.923095703125
 20
208.69230651855469
 42
-1
  0
SEQEND
  0
POLYLINE
  8
0
 10
0
 20
0
 39
0
 70
1
 66
1
  0
VERTEX
  8
0
 10
1733.84619140625
 20
914.9615478515625
 42
0
  0
VERTEX
  8
0
 10
1733.84619140625
 20
880.9615478515625
 42
0
  0
VERTEX
  8
0
 10
1833.84619140625
 20
880.9615478515625
 42
0
  0
VERTEX
  8
0
 10
1833.84619140625
 20
914.9615478515625
 42
0
  0
SEQEND
  0
POLYLINE
  8
0
 10
0
 20
0
 39
0
 70
1
 66
1
  0
VERTEX
  8
0
 10
1757.34619140625
 20
897.9615478515625
 42
-1
  0
VERTEX
  8
0
 10
1740.34619140625
 20
897.9615478515625
 42
-1
  0
SEQEND
  0
POLYLINE
  8
0
 10
0
 20
0
 39
0
 70
1
 66
1
  0
VERTEX
  8
0
 10
1827.34619140625
 20
897.9615478515625
 42
-1
  0
VERTEX
  8
0
 10
1810.34619140625
 20
897.9615478515625
 42
-1
  0
SEQEND
  0
POLYLINE
  8
0
 10
0
 20
0
 39
0
 70
1
 66
1
  0
VERTEX
  8
0
 10
1961.8846435546875
 20
110.38461303710937
 42
0
  0
VERTEX
  8
0
 10
1927.8846435546875
 20
110.38461303710937
 42
0
  0
VERTEX
  8
0
 10
1927.8846435546875
 20
10.384614944458008
 42
0
  0
VERTEX
  8
0
 10
1961.8846435546875
 20
10.384614944458008
 42
0
  0
SEQEND
  0
POLYLINE
  8
0
 10
0
 20
0
 39
0
 70
1
 66
1
  0
VERTEX
  8
0
 10
1944.8846435546875
 20
86.884613037109375
 42
-1
  0
VERTEX
  8
0
 10
1944.8846435546875
 20
103.88461303710937
 42
-1
  0
SEQEND
  0
POLYLINE
  8
0
 10
0
 20
0
 39
0
 70
1
 66
1
  0
VERTEX
  8
0
 10
1944.8846435546875
 20
16.884614944458008
 42
-1
  0
VERTEX
  8
0
 10
1944.8846435546875
 20
33.884616851806641
 42
-1
  0
SEQEND
  0
POLYLINE
  8
0
 10
0
 20
0
 39
0
 70
1
 66
1
  0
VERTEX
  8
0
 10
2006.15380859375
 20
983.6153564453125
 42
0
  0
VERTEX
  8
0
 10
2006.15380859375
 20
949.6153564453125
 42
0
  0
VERTEX
  8
0
 10
2106.15380859375
 20
949.6153564453125
 42
0
  0
VERTEX
  8
0
 10
2106.15380859375
 20
983.6153564453125
 42
0
  0
SEQEND
  0
POLYLINE
  8
0
 10
0
 20
0
 39
0
 70
1
 66
1
  0
VERTEX
  8
0
 10
2029.65380859375
 20
966.6153564453125
 42
-1
  0
VERTEX
  8
0
 10
2012.65380859375
 20
966.6153564453125
 42
-1
  0
SEQEND
  0
POLYLINE
  8
0
 10
0
 20
0
 39
0
 70
1
 66
1
  0
VERTEX
  8
0
 10
2099.65380859375
 20
966.6153564453125
 42
-1
  0
VERTEX
  8
0
 10
2082.65380859375
 20
966.6153564453125
 42
-1
  0
SEQEND
  0
POLYLINE
  8
0
 10
0
 20
0
 39
0
 70
1
 66
1
  0
VERTEX
  8
0
 10
2134.769287109375
 20
110.38461303710937
 42
0
  0
VERTEX
  8
0
 10
2100.769287109375
 20
110.38461303710937
 42
0
  0
VERTEX
  8
0
 10
2100.769287109375
 20
10.384614944458008
 42
0
  0
VERTEX
  8
0
 10
2134.769287109375
 20
10.384614944458008
 42
0
  0
SEQEND
  0
POLYLINE
  8
0
 10
0
 20
0
 39
0
 70
1
 66
1
  0
VERTEX
  8
0
 10
2117.769287109375
 20
86.884613037109375
 42
-1
  0
VERTEX
  8
0
 10
2117.769287109375
 20
103.88461303710937
 42
-1
  0
SEQEND
  0
POLYLINE
  8
0
 10
0
 20
0
 39
0
 70
1
 66
1
  0
VERTEX
  8
0
 10
2117.769287109375
 20
16.884614944458008
 42
-1
  0
VERTEX
  8
0
 10
2117.769287109375
 20
33.884616851806641
 42
-1
  0
SEQEND
  0
POLYLINE
  8
0
 10
0
 20
0
 39
0
 70
1
 66
1
  0
VERTEX
  8
0
 10
2179
 20
110.38461303710937
 42
0
  0
VERTEX
  8
0
 10
2145
 20
110.38461303710937
 42
0
  0
VERTEX
  8
0
 10
2145
 20
10.384614944458008
 42
0
  0
VERTEX
  8
0
 10
2179
 20
10.384614944458008
 42
0
  0
SEQEND
  0
POLYLINE
  8
0
 10
0
 20
0
 39
0
 70
1
 66
1
  0
VERTEX
  8
0
 10
2162
 20
86.884613037109375
 42
-1
  0
VERTEX
  8
0
 10
2162
 20
103.88461303710937
 42
-1
  0
SEQEND
  0
POLYLINE
  8
0
 10
0
 20
0
 39
0
 70
1
 66
1
  0
VERTEX
  8
0
 10
2162
 20
16.884614944458008
 42
-1
  0
VERTEX
  8
0
 10
2162
 20
33.884616851806641
 42
-1
  0
SEQEND
  0
POLYLINE
  8
0
 10
0
 20
0
 39
0
 70
1
 66
1
  0
VERTEX
  8
0
 10
2271.730712890625
 20
769.19232177734375
 42
0
  0
VERTEX
  8
0
 10
2271.730712890625
 20
735.19232177734375
 42
0
  0
VERTEX
  8
0
 10
2371.730712890625
 20
735.19232177734375
 42
0
  0
VERTEX
  8
0
 10
2371.730712890625
 20
769.19232177734375
 42
0
  0
SEQEND
  0
POLYLINE
  8
0
 10
0
 20
0
 39
0
 70
1
 66
1
  0
VERTEX
  8
0
 10
2295.230712890625
 20
752.19232177734375
 42
-1
  0
VERTEX
  8
0
 10
2278.230712890625
 20
752.19232177734375
 42
-1
  0
SEQEND
  0
POLYLINE
  8
0
 10
0
 20
0
 39
0
 70
1
 66
1
  0
VERTEX
  8
0
 10
2365.230712890625
 20
752.19232177734375
 42
-1
  0
VERTEX
  8
0
 10
2348.230712890625
 20
752.19232177734375
 42
-1
  0
SEQEND
  0
POLYLINE
  8
0
 10
0
 20
0
 39
0
 70
1
 66
1
  0
VERTEX
  8
0
 10
2375.730712890625
 20
879.23077392578125
 42
0
  0
VERTEX
  8
0
 10
2341.730712890625
 20
879.23077392578125
 42
0
  0
VERTEX
  8
0
 10
2341.730712890625
 20
779.23077392578125
 42
0
  0
VERTEX
  8
0
 10
2375.730712890625
 20
779.23077392578125
 42
0
  0
SEQEND
  0
POLYLINE
  8
0
 10
0
 20
0
 39
0
 70
1
 66
1
  0
VERTEX
  8
0
 10
2358.730712890625
 20
855.73077392578125
 42
-1
  0
VERTEX
  8
0
 10
2358.730712890625
 20
872.73077392578125
 42
-1
  0
SEQEND
  0
POLYLINE
  8
0
 10
0
 20
0
 39
0
 70
1
 66
1
  0
VERTEX
  8
0
 10
2358.730712890625
 20
785.73077392578125
 42
-1
  0
VERTEX
  8
0
 10
2358.730712890625
 20
802.73077392578125
 42
-1
  0
SEQEND
  0
POLYLINE
  8
0
 10
0
 20
0
 39
0
 70
1
 66
1
  0
VERTEX
  8
0
 10
2375.730712890625
 20
989.423095703125
 42
0
  0
VERTEX
  8
0
 10
2341.730712890625
 20
989.423095703125
 42
0
  0
VERTEX
  8
0
 10
2341.730712890625
 20
889.423095703125
 42
0
  0
VERTEX
  8
0
 10
2375.730712890625
 20
889.423095703125
 42
0
  0
SEQEND
  0
POLYLINE
  8
0
 10
0
 20
0
 39
0
 70
1
 66
1
  0
VERTEX
  8
0
 10
2358.730712890625
 20
965.923095703125
 42
-1
  0
VERTEX
  8
0
 10
2358.730712890625
 20
982.923095703125
 42
-1
  0
SEQEND
  0
POLYLINE
  8
0
 10
0
 20
0
 39
0
 70
1
 66
1
  0
VERTEX
  8
0
 10
2358.730712890625
 20
895.923095703125
 42
-1
  0
VERTEX
  8
0
 10
2358.730712890625
 20
912.923095703125
 42
-1
  0
SEQEND
  0
POLYLINE
  8
0
 10
0
 20
0
 39
0
 70
1
 66
1
  0
VERTEX
  8
0
 10
2382.076904296875
 20
500
 42
0
  0
VERTEX
  8
0
 10
2348.076904296875
 20
500
 42
0
  0
VERTEX
  8
0
 10
2348.076904296875
 20
400
 42
0
  0
VERTEX
  8
0
 10
2382.076904296875
 20
400
 42
0
  0
SEQEND
  0
POLYLINE
  8
0
 10
0
 20
0
 39
0
 70
1
 66
1
  0
VERTEX
  8
0
 10
2365.076904296875
 20
476.5
 42
-1
  0
VERTEX
  8
0
 10
2365.076904296875
 20
493.5
 42
-1
  0
SEQEND
  0
POLYLINE
  8
0
 10
0
 20
0
 39
0
 70
1
 66
1
  0
VERTEX
  8
0
 10
2365.076904296875
 20
406.5
 42
-1
  0
VERTEX
  8
0
 10
2365.076904296875
 20
423.5
 42
-1
  0
SEQEND
  0
POLYLINE
  8
0
 10
0
 20
0
 39
0
 70
1
 66
1
  0
VERTEX
  8
0
 10
2415.730712890625
 20
110.38461303710937
 42
0
  0
VERTEX
  8
0
 10
2381.730712890625
 20
110.38461303710937
 42
0
  0
VERTEX
  8
0
 10
2381.730712890625
 20
10.384614944458008
 42
0
  0
VERTEX
  8
0
 10
2415.730712890625
 20
10.384614944458008
 42
0
  0
SEQEND
  0
POLYLINE
  8
0
 10
0
 20
0
 39
0
 70
1
 66
1
  0
VERTEX
  8
0
 10
2398.730712890625
 20
86.884613037109375
 42
-1
  0
VERTEX
  8
0
 10
2398.730712890625
 20
103.88461303710937
 42
-1
  0
SEQEND
  0
POLYLINE
  8
0
 10
0
 20
0
 39
0
 70
1
 66
1
  0
VERTEX
  8
0
 10
2398.730712890625
 20
16.884614944458008
 42
-1
  0
VERTEX
  8
0
 10
2398.730712890625
 20
33.884616851806641
 42
-1
  0
SEQEND
  0
POLYLINE
  8
0
 10
0
 20
0
 39
0
 70
1
 66
1
  0
VERTEX
  8
0
 10
2419.96142578125
 20
892.30767822265625
 42
0
  0
VERTEX
  8
0
 10
2385.96142578125
 20
892.30767822265625
 42
0
  0
VERTEX
  8
0
 10
2385.96142578125
 20
792.30767822265625
 42
0
  0
VERTEX
  8
0
 10
2419.96142578125
 20
792.30767822265625
 42
0
  0
SEQEND
  0
POLYLINE
  8
0
 10
0
 20
0
 39
0
 70
1
 66
1
  0
VERTEX
  8
0
 10
2402.96142578125
 20
868.80767822265625
 42
-1
  0
VERTEX
  8
0
 10
2402.96142578125
 20
885.80767822265625
 42
-1
  0
SEQEND
  0
POLYLINE
  8
0
 10
0
 20
0
 39
0
 70
1
 66
1
  0
VERTEX
  8
0
 10
2402.96142578125
 20
798.80767822265625
 42
-1
  0
VERTEX
  8
0
 10
2402.96142578125
 20
815.80767822265625
 42
-1
  0
SEQEND
  0
POLYLINE
  8
0
 10
0
 20
0
 39
0
 70
1
 66
1
  0
VERTEX
  8
0
 10
2437.84619140625
 20
220.57691955566406
 42
0
  0
VERTEX
  8
0
 10
2403.84619140625
 20
220.57691955566406
 42
0
  0
VERTEX
  8
0
 10
2403.84619140625
 20
120.57691955566406
 42
0
  0
VERTEX
  8
0
 10
2437.84619140625
 20
120.57691955566406
 42
0
  0
SEQEND
  0
POLYLINE
  8
0
 10
0
 20
0
 39
0
 70
1
 66
1
  0
VERTEX
  8
0
 10
2420.84619140625
 20
197.07691955566406
 42
-1
  0
VERTEX
  8
0
 10
2420.84619140625
 20
214.07691955566406
 42
-1
  0
SEQEND
  0
POLYLINE
  8
0
 10
0
 20
0
 39
0
 70
1
 66
1
  0
VERTEX
  8
0
 10
2420.84619140625
 20
127.07691955566406
 42
-1
  0
VERTEX
  8
0
 10
2420.84619140625
 20
144.07691955566406
 42
-1
  0
SEQEND
  0
POLYLINE
  8
0
 10
0
 20
0
 39
0
 70
1
 66
1
  0
VERTEX
  8
0
 10
2459.96142578125
 20
110.38461303710937
 42
0
  0
VERTEX
  8
0
 10
2425.96142578125
 20
110.38461303710937
 42
0
  0
VERTEX
  8
0
 10
2425.96142578125
 20
10.384614944458008
 42
0
  0
VERTEX
  8
0
 10
2459.96142578125
 20
10.384614944458008
 42
0
  0
SEQEND
  0
POLYLINE
  8
0
 10
0
 20
0
 39
0
 70
1
 66
1
  0
VERTEX
  8
0
 10
2442.96142578125
 20
86.884613037109375
 42
-1
  0
VERTEX
  8
0
 10
2442.96142578125
 20
103.88461303710937
 42
-1
  0
SEQEND
  0
POLYLINE
  8
0
 10
0
 20
0
 39
0
 70
1
 66
1
  0
VERTEX
  8
0
 10
2442.96142578125
 20
16.884614944458008
 42
-1
  0
VERTEX
  8
0
 10
2442.96142578125
 20
33.884616851806641
 42
-1
  0
SEQEND
  0
POLYLINE
  8
0
 10
0
 20
0
 39
0
 70
1
 66
1
  0
VERTEX
  8
0
 10
2482.076904296875
 20
220.57691955566406
 42
0
  0
VERTEX
  8
0
 10
2448.076904296875
 20
220.57691955566406
 42
0
  0
VERTEX
  8
0
 10
2448.076904296875
 20
120.57691955566406
 42
0
  0
VERTEX
  8
0
 10
2482.076904296875
 20
120.57691955566406
 42
0
  0
SEQEND
  0
POLYLINE
  8
0
 10
0
 20
0
 39
0
 70
1
 66
1
  0
VERTEX
  8
0
 10
2465.076904296875
 20
197.07691955566406
 42
-1
  0
VERTEX
  8
0
 10
2465.076904296875
 20
214.07691955566406
 42
-1
  0
SEQEND
  0
POLYLINE
  8
0
 10
0
 20
0
 39
0
 70
1
 66
1
  0
VERTEX
  8
0
 10
2465.076904296875
 20
127.07691955566406
 42
-1
  0
VERTEX
  8
0
 10
2465.076904296875
 20
144.07691955566406
 42
-1
  0
SEQEND
  0
ENDSEC
  0
EOF
