  0
SECTION
  2
ENTITIES
  0
POLYLINE
  8
0
 10
0
 20
0
 39
0
 70
1
 66
1
  0
VERTEX
  8
0
 10
0
 20
0
 42
-0
  0
VERTEX
  8
0
 10
2000
 20
0
 42
-0
  0
VERTEX
  8
0
 10
2000
 20
1200
 42
-0
  0
VERTEX
  8
0
 10
0
 20
1200
 42
-0
  0
SEQEND
  0
POLYLINE
  8
0
 10
0
 20
0
 39
0
 70
1
 66
1
  0
VERTEX
  8
0
 10
388.78982837383563
 20
10.23076923076923
 42
-0
  0
VERTEX
  8
0
 10
10.230769230769226
 20
10.23076923076923
 42
-0
  0
VERTEX
  8
0
 10
10.230769230769226
 20
388.7898207444411
 42
0
  0
VERTEX
  8
0
 10
81.671717717097351
 20
460.23076923076923
 42
-0
  0
VERTEX
  8
0
 10
460.23076923076923
 20
460.23076923076923
 42
-0
  0
VERTEX
  8
0
 10
460.23076923076923
 20
81.67171008770282
 42
-0
  0
SEQEND
  0
POLYLINE
  8
0
 10
0
 20
0
 39
0
 70
1
 66
1
  0
VERTEX
  8
0
 10
397.23076923076923
 20
397.23076923076923
 42
-0
  0
VERTEX
  8
0
 10
73.230769230769226
 20
397.23076923076923
 42
0
  0
VERTEX
  8
0
 10
73.230769230769226
 20
73.230769230769226
 42
0
  0
VERTEX
  8
0
 10
397.23076923076923
 20
73.230769230769226
 42
0
  0
SEQEND
  0
POLYLINE
  8
0
 10
0
 20
0
 39
0
 70
1
 66
1
  0
VERTEX
  8
0
 10
442.5102968949538
 20
424.51031024639423
 42
1
  0
VERTEX
  8
0
 10
406.51029880230243
 20
424.51031024639423
 42
1
  0
SEQEND
  0
POLYLINE
  8
0
 10
0
 20
0
 39
0
 70
1
 66
1
  0
VERTEX
  8
0
 10
63.951228215144226
 20
45.951239659236023
 42
1
  0
VERTEX
  8
0
 10
27.951228215144226
 20
45.951239659236023
 42
1
  0
SEQEND
  0
POLYLINE
  8
0
 10
0
 20
0
 39
0
 70
1
 66
1
  0
VERTEX
  8
0
 10
388.78982837383563
 20
470.38461538461536
 42
-0
  0
VERTEX
  8
0
 10
10.230769230769226
 20
470.38461538461536
 42
-0
  0
VERTEX
  8
0
 10
10.230769230769226
 20
848.94366689828723
 42
0
  0
VERTEX
  8
0
 10
81.671717717097351
 20
920.38461538461536
 42
-0
  0
VERTEX
  8
0
 10
460.23076923076923
 20
920.38461538461536
 42
-0
  0
VERTEX
  8
0
 10
460.23076923076923
 20
541.82555624154895
 42
-0
  0
SEQEND
  0
POLYLINE
  8
0
 10
0
 20
0
 39
0
 70
1
 66
1
  0
VERTEX
  8
0
 10
397.23076923076923
 20
857.38461538461536
 42
-0
  0
VERTEX
  8
0
 10
73.230769230769226
 20
857.38461538461536
 42
0
  0
VERTEX
  8
0
 10
73.230769230769226
 20
533.38461538461536
 42
0
  0
VERTEX
  8
0
 10
397.23076923076923
 20
533.38461538461536
 42
0
  0
SEQEND
  0
POLYLINE
  8
0
 10
0
 20
0
 39
0
 70
1
 66
1
  0
VERTEX
  8
0
 10
442.5102968949538
 20
884.66415640024036
 42
1
  0
VERTEX
  8
0
 10
406.51029880230243
 20
884.66415640024036
 42
1
  0
SEQEND
  0
POLYLINE
  8
0
 10
0
 20
0
 39
0
 70
1
 66
1
  0
VERTEX
  8
0
 10
63.951228215144226
 20
506.10508581308216
 42
1
  0
VERTEX
  8
0
 10
27.951228215144226
 20
506.10508581308216
 42
1
  0
SEQEND
  0
POLYLINE
  8
0
 10
0
 20
0
 39
0
 70
1
 66
1
  0
VERTEX
  8
0
 10
849.09752068152795
 20
10.23076923076923
 42
-0
  0
VERTEX
  8
0
 10
470.53846153846155
 20
10.23076923076923
 42
-0
  0
VERTEX
  8
0
 10
470.53846153846155
 20
388.7898207444411
 42
0
  0
VERTEX
  8
0
 10
541.97941002478967
 20
460.23076923076923
 42
-0
  0
VERTEX
  8
0
 10
920.53846153846155
 20
460.23076923076923
 42
-0
  0
VERTEX
  8
0
 10
920.53846153846155
 20
81.67171008770282
 42
-0
  0
SEQEND
  0
POLYLINE
  8
0
 10
0
 20
0
 39
0
 70
1
 66
1
  0
VERTEX
  8
0
 10
857.53846153846155
 20
397.23076923076923
 42
-0
  0
VERTEX
  8
0
 10
533.53846153846155
 20
397.23076923076923
 42
0
  0
VERTEX
  8
0
 10
533.53846153846155
 20
73.230769230769226
 42
0
  0
VERTEX
  8
0
 10
857.53846153846155
 20
73.230769230769226
 42
0
  0
SEQEND
  0
POLYLINE
  8
0
 10
0
 20
0
 39
0
 70
1
 66
1
  0
VERTEX
  8
0
 10
902.81798920264612
 20
424.51031024639423
 42
1
  0
VERTEX
  8
0
 10
866.81799110999475
 20
424.51031024639423
 42
1
  0
SEQEND
  0
POLYLINE
  8
0
 10
0
 20
0
 39
0
 70
1
 66
1
  0
VERTEX
  8
0
 10
524.25892052283655
 20
45.951239659236023
 42
1
  0
VERTEX
  8
0
 10
488.25892052283655
 20
45.951239659236023
 42
1
  0
SEQEND
  0
POLYLINE
  8
0
 10
0
 20
0
 39
0
 70
1
 66
1
  0
VERTEX
  8
0
 10
849.09752068152795
 20
470.38461538461536
 42
-0
  0
VERTEX
  8
0
 10
470.53846153846155
 20
470.38461538461536
 42
-0
  0
VERTEX
  8
0
 10
470.53846153846155
 20
848.94366689828723
 42
0
  0
VERTEX
  8
0
 10
541.97941002478967
 20
920.38461538461536
 42
-0
  0
VERTEX
  8
0
 10
920.53846153846155
 20
920.38461538461536
 42
-0
  0
VERTEX
  8
0
 10
920.53846153846155
 20
541.82555624154895
 42
-0
  0
SEQEND
  0
POLYLINE
  8
0
 10
0
 20
0
 39
0
 70
1
 66
1
  0
VERTEX
  8
0
 10
857.53846153846155
 20
857.38461538461536
 42
-0
  0
VERTEX
  8
0
 10
533.53846153846155
 20
857.38461538461536
 42
0
  0
VERTEX
  8
0
 10
533.53846153846155
 20
533.38461538461536
 42
0
  0
VERTEX
  8
0
 10
857.53846153846155
 20
533.38461538461536
 42
0
  0
SEQEND
  0
POLYLINE
  8
0
 10
0
 20
0
 39
0
 70
1
 66
1
  0
VERTEX
  8
0
 10
902.81798920264612
 20
884.66415640024036
 42
1
  0
VERTEX
  8
0
 10
866.81799110999475
 20
884.66415640024036
 42
1
  0
SEQEND
  0
POLYLINE
  8
0
 10
0
 20
0
 39
0
 70
1
 66
1
  0
VERTEX
  8
0
 10
524.25892052283655
 20
506.10508581308216
 42
1
  0
VERTEX
  8
0
 10
488.25892052283655
 20
506.10508581308216
 42
1
  0
SEQEND
  0
POLYLINE
  8
0
 10
0
 20
0
 39
0
 70
1
 66
1
  0
VERTEX
  8
0
 10
1309.4052129892202
 20
10.23076923076923
 42
-0
  0
VERTEX
  8
0
 10
930.84615384615381
 20
10.23076923076923
 42
-0
  0
VERTEX
  8
0
 10
930.84615384615381
 20
388.7898207444411
 42
0
  0
VERTEX
  8
0
 10
1002.2871023324819
 20
460.23076923076923
 42
-0
  0
VERTEX
  8
0
 10
1380.8461538461538
 20
460.23076923076923
 42
-0
  0
VERTEX
  8
0
 10
1380.8461538461538
 20
81.67171008770282
 42
-0
  0
SEQEND
  0
POLYLINE
  8
0
 10
0
 20
0
 39
0
 70
1
 66
1
  0
VERTEX
  8
0
 10
1317.8461538461538
 20
397.23076923076923
 42
-0
  0
VERTEX
  8
0
 10
993.84615384615381
 20
397.23076923076923
 42
0
  0
VERTEX
  8
0
 10
993.84615384615381
 20
73.230769230769226
 42
0
  0
VERTEX
  8
0
 10
1317.8461538461538
 20
73.230769230769226
 42
0
  0
SEQEND
  0
POLYLINE
  8
0
 10
0
 20
0
 39
0
 70
1
 66
1
  0
VERTEX
  8
0
 10
1363.1256815103384
 20
424.51031024639423
 42
1
  0
VERTEX
  8
0
 10
1327.125683417687
 20
424.51031024639423
 42
1
  0
SEQEND
  0
POLYLINE
  8
0
 10
0
 20
0
 39
0
 70
1
 66
1
  0
VERTEX
  8
0
 10
984.56661283052881
 20
45.951239659236023
 42
1
  0
VERTEX
  8
0
 10
948.56661283052881
 20
45.951239659236023
 42
1
  0
SEQEND
  0
POLYLINE
  8
0
 10
0
 20
0
 39
0
 70
1
 66
1
  0
VERTEX
  8
0
 10
1309.4052129892202
 20
470.38461538461536
 42
-0
  0
VERTEX
  8
0
 10
930.84615384615381
 20
470.38461538461536
 42
-0
  0
VERTEX
  8
0
 10
930.84615384615381
 20
848.94366689828723
 42
0
  0
VERTEX
  8
0
 10
1002.2871023324819
 20
920.38461538461536
 42
-0
  0
VERTEX
  8
0
 10
1380.8461538461538
 20
920.38461538461536
 42
-0
  0
VERTEX
  8
0
 10
1380.8461538461538
 20
541.82555624154895
 42
-0
  0
SEQEND
  0
POLYLINE
  8
0
 10
0
 20
0
 39
0
 70
1
 66
1
  0
VERTEX
  8
0
 10
1317.8461538461538
 20
857.38461538461536
 42
-0
  0
VERTEX
  8
0
 10
993.84615384615381
 20
857.38461538461536
 42
0
  0
VERTEX
  8
0
 10
993.84615384615381
 20
533.38461538461536
 42
0
  0
VERTEX
  8
0
 10
1317.8461538461538
 20
533.38461538461536
 42
0
  0
SEQEND
  0
POLYLINE
  8
0
 10
0
 20
0
 39
0
 70
1
 66
1
  0
VERTEX
  8
0
 10
1363.1256815103384
 20
884.66415640024036
 42
1
  0
VERTEX
  8
0
 10
1327.125683417687
 20
884.66415640024036
 42
1
  0
SEQEND
  0
POLYLINE
  8
0
 10
0
 20
0
 39
0
 70
1
 66
1
  0
VERTEX
  8
0
 10
984.56661283052881
 20
506.10508581308216
 42
1
  0
VERTEX
  8
0
 10
948.56661283052881
 20
506.10508581308216
 42
1
  0
SEQEND
  0
POLYLINE
  8
0
 10
0
 20
0
 39
0
 70
1
 66
1
  0
VERTEX
  8
0
 10
510.23076923076923
 20
930.53846153846155
 42
-0
  0
VERTEX
  8
0
 10
10.230769230769226
 20
930.53846153846155
 42
-0
  0
VERTEX
  8
0
 10
10.230769230769226
 20
1185.5384615384614
 42
-0
  0
VERTEX
  8
0
 10
163.73864276592548
 20
1185.5384615384614
 42
-0
  0
VERTEX
  8
0
 10
191.10409076397235
 20
1128.983178945688
 42
0
  0
VERTEX
  8
0
 10
329.3574476975661
 20
1128.983178945688
 42
0
  0
VERTEX
  8
0
 10
356.72289569561298
 20
1185.5384615384614
 42
-0
  0
VERTEX
  8
0
 10
510.23076923076923
 20
1185.5384615384614
 42
0
  0
SEQEND
  0
POLYLINE
  8
0
 10
0
 20
0
 39
0
 70
1
 66
1
  0
VERTEX
  8
0
 10
459.46468265240009
 20
1058.0384615384614
 42
1
  0
VERTEX
  8
0
 10
354.61789996807391
 20
1058.0384615384614
 42
1
  0
SEQEND
  0
POLYLINE
  8
0
 10
0
 20
0
 39
0
 70
1
 66
1
  0
VERTEX
  8
0
 10
1020.5384615384615
 20
930.53846153846155
 42
-0
  0
VERTEX
  8
0
 10
520.53846153846155
 20
930.53846153846155
 42
-0
  0
VERTEX
  8
0
 10
520.53846153846155
 20
1185.5384615384614
 42
-0
  0
VERTEX
  8
0
 10
674.0463350736178
 20
1185.5384615384614
 42
-0
  0
VERTEX
  8
0
 10
701.41178307166467
 20
1128.983178945688
 42
0
  0
VERTEX
  8
0
 10
839.66514000525842
 20
1128.983178945688
 42
0
  0
VERTEX
  8
0
 10
867.0305880033053
 20
1185.5384615384614
 42
-0
  0
VERTEX
  8
0
 10
1020.5384615384615
 20
1185.5384615384614
 42
0
  0
SEQEND
  0
POLYLINE
  8
0
 10
0
 20
0
 39
0
 70
1
 66
1
  0
VERTEX
  8
0
 10
969.77237496009241
 20
1058.0384615384614
 42
1
  0
VERTEX
  8
0
 10
864.92559227576623
 20
1058.0384615384614
 42
1
  0
SEQEND
  0
POLYLINE
  8
0
 10
0
 20
0
 39
0
 70
1
 66
1
  0
VERTEX
  8
0
 10
1530.8461538461538
 20
930.53846153846155
 42
-0
  0
VERTEX
  8
0
 10
1030.8461538461538
 20
930.53846153846155
 42
-0
  0
VERTEX
  8
0
 10
1030.8461538461538
 20
1185.5384615384614
 42
-0
  0
VERTEX
  8
0
 10
1184.3540273813101
 20
1185.5384615384614
 42
-0
  0
VERTEX
  8
0
 10
1211.7194753793569
 20
1128.983178945688
 42
0
  0
VERTEX
  8
0
 10
1349.9728323129507
 20
1128.983178945688
 42
0
  0
VERTEX
  8
0
 10
1377.3382803109976
 20
1185.5384615384614
 42
-0
  0
VERTEX
  8
0
 10
1530.8461538461538
 20
1185.5384615384614
 42
0
  0
SEQEND
  0
POLYLINE
  8
0
 10
0
 20
0
 39
0
 70
1
 66
1
  0
VERTEX
  8
0
 10
1480.0800672677847
 20
1058.0384615384614
 42
1
  0
VERTEX
  8
0
 10
1375.2332845834585
 20
1058.0384615384614
 42
1
  0
SEQEND
  0
POLYLINE
  8
0
 10
0
 20
0
 39
0
 70
1
 66
1
  0
VERTEX
  8
0
 10
1391.1538461538462
 20
10.23076923076923
 42
-0
  0
VERTEX
  8
0
 10
1391.1538461538462
 20
510.23076923076923
 42
-0
  0
VERTEX
  8
0
 10
1646.1538461538462
 20
510.23076923076923
 42
-0
  0
VERTEX
  8
0
 10
1646.1538461538462
 20
356.72289569561298
 42
-0
  0
VERTEX
  8
0
 10
1589.5985635610728
 20
329.3574476975661
 42
0
  0
VERTEX
  8
0
 10
1589.5985635610728
 20
191.10409076397235
 42
0
  0
VERTEX
  8
0
 10
1646.1538461538462
 20
163.7386427659255
 42
-0
  0
VERTEX
  8
0
 10
1646.1538461538462
 20
10.230769230769262
 42
0
  0
SEQEND
  0
POLYLINE
  8
0
 10
0
 20
0
 39
0
 70
1
 66
1
  0
VERTEX
  8
0
 10
1518.6538461538462
 20
60.996855809138381
 42
1
  0
VERTEX
  8
0
 10
1518.6538461538462
 20
165.84363849346454
 42
1
  0
SEQEND
  0
POLYLINE
  8
0
 10
0
 20
0
 39
0
 70
1
 66
1
  0
VERTEX
  8
0
 10
1541.1538461538462
 20
520.38461538461536
 42
-0
  0
VERTEX
  8
0
 10
1541.1538461538462
 20
1020.3846153846154
 42
-0
  0
VERTEX
  8
0
 10
1796.1538461538462
 20
1020.3846153846154
 42
-0
  0
VERTEX
  8
0
 10
1796.1538461538462
 20
866.87674184945911
 42
-0
  0
VERTEX
  8
0
 10
1739.5985635610728
 20
839.51129385141223
 42
0
  0
VERTEX
  8
0
 10
1739.5985635610728
 20
701.25793691781848
 42
0
  0
VERTEX
  8
0
 10
1796.1538461538462
 20
673.89248891977161
 42
-0
  0
VERTEX
  8
0
 10
1796.1538461538462
 20
520.38461538461536
 42
0
  0
SEQEND
  0
POLYLINE
  8
0
 10
0
 20
0
 39
0
 70
1
 66
1
  0
VERTEX
  8
0
 10
1668.6538461538462
 20
571.1507019629845
 42
1
  0
VERTEX
  8
0
 10
1668.6538461538462
 20
675.99748464731067
 42
1
  0
SEQEND
  0
POLYLINE
  8
0
 10
0
 20
0
 39
0
 70
1
 66
1
  0
VERTEX
  8
0
 10
1656.3846153846155
 20
10.23076923076923
 42
-0
  0
VERTEX
  8
0
 10
1656.3846153846155
 20
510.23076923076923
 42
-0
  0
VERTEX
  8
0
 10
1856.3846153846155
 20
510.23076923076923
 42
-0
  0
VERTEX
  8
0
 10
1856.3846153846155
 20
10.230769230769242
 42
-0
  0
SEQEND
  0
POLYLINE
  8
0
 10
0
 20
0
 39
0
 70
1
 66
1
  0
VERTEX
  8
0
 10
1818.2696861853967
 20
444.91979510967548
 42
1
  0
VERTEX
  8
0
 10
1818.2696861853967
 20
480.91979510967548
 42
1
  0
SEQEND
  0
POLYLINE
  8
0
 10
0
 20
0
 39
0
 70
1
 66
1
  0
VERTEX
  8
0
 10
1756.3846153846155
 20
208.23076923076923
 42
1
  0
VERTEX
  8
0
 10
1756.3846153846155
 20
312.23076923076923
 42
1
  0
SEQEND
  0
POLYLINE
  8
0
 10
0
 20
0
 39
0
 70
1
 66
1
  0
VERTEX
  8
0
 10
383.46153846153845
 20
83.461538461538467
 42
-0
  0
VERTEX
  8
0
 10
83.461538461538453
 20
83.461538461538467
 42
0
  0
VERTEX
  8
0
 10
83.461538461538453
 20
383.46153846153845
 42
0
  0
VERTEX
  8
0
 10
383.46153846153845
 20
383.46153846153845
 42
0
  0
SEQEND
  0
POLYLINE
  8
0
 10
0
 20
0
 39
0
 70
1
 66
1
  0
VERTEX
  8
0
 10
353.58531775841345
 20
283.16342749962439
 42
0.19911558926105499
  0
VERTEX
  8
0
 10
283.16342749962439
 20
353.58531775841345
 42
-0
  0
VERTEX
  8
0
 10
113.33775916466345
 20
183.75964942345252
 42
0.19911558926105499
  0
VERTEX
  8
0
 10
183.75964942345252
 20
113.33775916466347
 42
0
  0
SEQEND
  0
POLYLINE
  8
0
 10
0
 20
0
 39
0
 70
1
 66
1
  0
VERTEX
  8
0
 10
383.46153846153845
 20
543.61538461538464
 42
-0
  0
VERTEX
  8
0
 10
83.461538461538453
 20
543.61538461538464
 42
0
  0
VERTEX
  8
0
 10
83.461538461538453
 20
843.61538461538464
 42
0
  0
VERTEX
  8
0
 10
383.46153846153845
 20
843.61538461538464
 42
0
  0
SEQEND
  0
POLYLINE
  8
0
 10
0
 20
0
 39
0
 70
1
 66
1
  0
VERTEX
  8
0
 10
353.58531775841345
 20
743.31727365347058
 42
0.19911558926105499
  0
VERTEX
  8
0
 10
283.16342749962439
 20
813.73916391225964
 42
-0
  0
VERTEX
  8
0
 10
113.33775916466345
 20
643.9134955772987
 42
0.19911558926105499
  0
VERTEX
  8
0
 10
183.75964942345252
 20
573.49160531850964
 42
0
  0
SEQEND
  0
POLYLINE
  8
0
 10
0
 20
0
 39
0
 70
1
 66
1
  0
VERTEX
  8
0
 10
843.76923076923072
 20
83.461538461538467
 42
-0
  0
VERTEX
  8
0
 10
543.76923076923072
 20
83.461538461538467
 42
0
  0
VERTEX
  8
0
 10
543.76923076923072
 20
383.46153846153845
 42
0
  0
VERTEX
  8
0
 10
843.76923076923072
 20
383.46153846153845
 42
0
  0
SEQEND
  0
POLYLINE
  8
0
 10
0
 20
0
 39
0
 70
1
 66
1
  0
VERTEX
  8
0
 10
813.89301006610572
 20
283.16342749962439
 42
0.19911558926105499
  0
VERTEX
  8
0
 10
743.47111980731665
 20
353.58531775841345
 42
-0
  0
VERTEX
  8
0
 10
573.64545147235572
 20
183.75964942345252
 42
0.19911558926105499
  0
VERTEX
  8
0
 10
644.06734173114478
 20
113.33775916466347
 42
0
  0
SEQEND
  0
POLYLINE
  8
0
 10
0
 20
0
 39
0
 70
1
 66
1
  0
VERTEX
  8
0
 10
843.76923076923072
 20
543.61538461538464
 42
-0
  0
VERTEX
  8
0
 10
543.76923076923072
 20
543.61538461538464
 42
0
  0
VERTEX
  8
0
 10
543.76923076923072
 20
843.61538461538464
 42
0
  0
VERTEX
  8
0
 10
843.76923076923072
 20
843.61538461538464
 42
0
  0
SEQEND
  0
POLYLINE
  8
0
 10
0
 20
0
 39
0
 70
1
 66
1
  0
VERTEX
  8
0
 10
813.89301006610572
 20
743.31727365347058
 42
0.19911558926105499
  0
VERTEX
  8
0
 10
743.47111980731665
 20
813.73916391225964
 42
-0
  0
VERTEX
  8
0
 10
573.64545147235572
 20
643.9134955772987
 42
0.19911558926105499
  0
VERTEX
  8
0
 10
644.06734173114478
 20
573.49160531850964
 42
0
  0
SEQEND
  0
POLYLINE
  8
0
 10
0
 20
0
 39
0
 70
1
 66
1
  0
VERTEX
  8
0
 10
1304.0769230769231
 20
83.461538461538467
 42
-0
  0
VERTEX
  8
0
 10
1004.0769230769231
 20
83.461538461538467
 42
0
  0
VERTEX
  8
0
 10
1004.0769230769231
 20
383.46153846153845
 42
0
  0
VERTEX
  8
0
 10
1304.0769230769231
 20
383.46153846153845
 42
0
  0
SEQEND
  0
POLYLINE
  8
0
 10
0
 20
0
 39
0
 70
1
 66
1
  0
VERTEX
  8
0
 10
1274.2007023737981
 20
283.16342749962439
 42
0.19911558926105499
  0
VERTEX
  8
0
 10
1203.778812115009
 20
353.58531775841345
 42
-0
  0
VERTEX
  8
0
 10
1033.9531437800481
 20
183.75964942345252
 42
0.19911558926105499
  0
VERTEX
  8
0
 10
1104.3750340388372
 20
113.33775916466347
 42
0
  0
SEQEND
  0
POLYLINE
  8
0
 10
0
 20
0
 39
0
 70
1
 66
1
  0
VERTEX
  8
0
 10
1304.0769230769231
 20
543.61538461538464
 42
-0
  0
VERTEX
  8
0
 10
1004.0769230769231
 20
543.61538461538464
 42
0
  0
VERTEX
  8
0
 10
1004.0769230769231
 20
843.61538461538464
 42
0
  0
VERTEX
  8
0
 10
1304.0769230769231
 20
843.61538461538464
 42
0
  0
SEQEND
  0
POLYLINE
  8
0
 10
0
 20
0
 39
0
 70
1
 66
1
  0
VERTEX
  8
0
 10
1274.2007023737981
 20
743.31727365347058
 42
0.19911558926105499
  0
VERTEX
  8
0
 10
1203.778812115009
 20
813.73916391225964
 42
-0
  0
VERTEX
  8
0
 10
1033.9531437800481
 20
643.9134955772987
 42
0.19911558926105499
  0
VERTEX
  8
0
 10
1104.3750340388372
 20
573.49160531850964
 42
0
  0
SEQEND
  0
POLYLINE
  8
0
 10
0
 20
0
 39
0
 70
1
 66
1
  0
VERTEX
  8
0
 10
1806.3846153846155
 20
520.38461538461536
 42
-0
  0
VERTEX
  8
0
 10
1806.3846153846155
 20
925.38461538461536
 42
-0
  0
VERTEX
  8
0
 10
1856.3846153846155
 20
925.38461538461536
 42
-0
  0
VERTEX
  8
0
 10
1921.3846153846155
 20
520.38461538461536
 42
0
  0
SEQEND
  0
POLYLINE
  8
0
 10
0
 20
0
 39
0
 70
1
 66
1
  0
VERTEX
  8
0
 10
1831.3846153846155
 20
559.45416494516223
 42
0
  0
VERTEX
  8
0
 10
1858.1240448584924
 20
540.79667516855091
 42
0
  0
VERTEX
  8
0
 10
1895.4545464148889
 20
542.96179624704212
 42
0
  0
VERTEX
  8
0
 10
1880.8311485877405
 20
650.83183523324817
 42
-0
  0
VERTEX
  8
0
 10
1853.8491425147424
 20
665.11915823129505
 42
0
  0
VERTEX
  8
0
 10
1831.3846153846155
 20
659.86915823129505
 42
0
  0
SEQEND
  0
POLYLINE
  8
0
 10
0
 20
0
 39
0
 70
1
 66
1
  0
VERTEX
  8
0
 10
1982.0161153846154
 20
925.38461538461536
 42
-0
  0
VERTEX
  8
0
 10
1982.0161153846154
 20
520.38461538461536
 42
-0
  0
VERTEX
  8
0
 10
1932.0161153846154
 20
520.38461538461536
 42
-0
  0
VERTEX
  8
0
 10
1867.0161153846154
 20
925.38461538461536
 42
0
  0
SEQEND
  0
POLYLINE
  8
0
 10
0
 20
0
 39
0
 70
1
 66
1
  0
VERTEX
  8
0
 10
1957.0161153846154
 20
886.31506582406848
 42
0
  0
VERTEX
  8
0
 10
1930.2766859107385
 20
904.97255560067981
 42
0
  0
VERTEX
  8
0
 10
1892.946184354342
 20
902.8074345221886
 42
0
  0
VERTEX
  8
0
 10
1907.5695821814904
 20
794.93739553598255
 42
-0
  0
VERTEX
  8
0
 10
1934.5515882544885
 20
780.65007253793567
 42
0
  0
VERTEX
  8
0
 10
1957.0161153846154
 20
785.90007253793567
 42
0
  0
SEQEND
  0
POLYLINE
  8
0
 10
0
 20
0
 39
0
 70
1
 66
1
  0
VERTEX
  8
0
 10
1946.1538461538462
 20
1030.5384615384614
 42
-0
  0
VERTEX
  8
0
 10
1541.1538461538462
 20
1030.5384615384614
 42
-0
  0
VERTEX
  8
0
 10
1541.1538461538462
 20
1080.5384615384614
 42
-0
  0
VERTEX
  8
0
 10
1946.1538461538462
 20
1145.5384615384614
 42
0
  0
SEQEND
  0
POLYLINE
  8
0
 10
0
 20
0
 39
0
 70
1
 66
1
  0
VERTEX
  8
0
 10
1907.0842965932993
 20
1055.5384615384614
 42
0
  0
VERTEX
  8
0
 10
1925.7417863699106
 20
1082.2778910123384
 42
0
  0
VERTEX
  8
0
 10
1923.5766652914194
 20
1119.6083925687349
 42
0
  0
VERTEX
  8
0
 10
1815.7066263052134
 20
1104.9849947415864
 42
-0
  0
VERTEX
  8
0
 10
1801.4193033071665
 20
1078.0029886685884
 42
0
  0
VERTEX
  8
0
 10
1806.6693033071665
 20
1055.5384615384614
 42
0
  0
SEQEND
  0
POLYLINE
  8
0
 10
0
 20
0
 39
0
 70
1
 66
1
  0
VERTEX
  8
0
 10
1491.1538461538464
 20
527.46845083741039
 42
-0.14167670905590057
  0
VERTEX
  8
0
 10
1391.1538461538462
 20
527.46845083741039
 42
0
  0
VERTEX
  8
0
 10
1391.1538461538464
 20
873.30078392533153
 42
-0.14167670905590057
  0
VERTEX
  8
0
 10
1491.1538461538464
 20
873.30078392533153
 42
0
  0
SEQEND
  0
POLYLINE
  8
0
 10
0
 20
0
 39
0
 70
1
 66
1
  0
VERTEX
  8
0
 10
1441.1538461538464
 20
530.72070198563426
 42
1
  0
VERTEX
  8
0
 10
1441.1538461538464
 20
562.72070198563426
 42
1
  0
SEQEND
  0
POLYLINE
  8
0
 10
0
 20
0
 39
0
 70
1
 66
1
  0
VERTEX
  8
0
 10
1441.1538461538464
 20
841.2071254780659
 42
1
  0
VERTEX
  8
0
 10
1441.1538461538464
 20
873.2071254780659
 42
1
  0
SEQEND
  0
POLYLINE
  8
0
 10
0
 20
0
 39
0
 70
1
 66
1
  0
VERTEX
  8
0
 10
1966.6923076923078
 20
17.314604683564266
 42
-0.14167670905590057
  0
VERTEX
  8
0
 10
1866.6923076923076
 20
17.314604683564259
 42
0
  0
VERTEX
  8
0
 10
1866.6923076923078
 20
363.1469377714854
 42
-0.14167670905590057
  0
VERTEX
  8
0
 10
1966.6923076923078
 20
363.1469377714854
 42
0
  0
SEQEND
  0
POLYLINE
  8
0
 10
0
 20
0
 39
0
 70
1
 66
1
  0
VERTEX
  8
0
 10
1916.6923076923078
 20
20.566855831788139
 42
1
  0
VERTEX
  8
0
 10
1916.6923076923078
 20
52.566855831788132
 42
1
  0
SEQEND
  0
POLYLINE
  8
0
 10
0
 20
0
 39
0
 70
1
 66
1
  0
VERTEX
  8
0
 10
1916.6923076923078
 20
331.05327932421977
 42
1
  0
VERTEX
  8
0
 10
1916.6923076923078
 20
363.05327932421977
 42
1
  0
SEQEND
  0
POLYLINE
  8
0
 10
0
 20
0
 39
0
 70
1
 66
1
  0
VERTEX
  8
0
 10
1671.1538461538462
 20
1111.9230769230769
 42
-0
  0
VERTEX
  8
0
 10
1541.1538461538462
 20
1111.9230769230769
 42
0
  0
VERTEX
  8
0
 10
1541.1538461538462
 20
1171.9230769230769
 42
0
  0
VERTEX
  8
0
 10
1671.1538461538462
 20
1171.9230769230769
 42
0
  0
SEQEND
  0
POLYLINE
  8
0
 10
0
 20
0
 39
0
 70
1
 66
1
  0
VERTEX
  8
0
 10
1662.1018632742075
 20
1141.9230769230769
 42
1
  0
VERTEX
  8
0
 10
1636.1018632742075
 20
1141.9230769230769
 42
1
  0
SEQEND
  0
POLYLINE
  8
0
 10
0
 20
0
 39
0
 70
1
 66
1
  0
VERTEX
  8
0
 10
1936.3846153846155
 20
935.46153846153845
 42
-0
  0
VERTEX
  8
0
 10
1806.3846153846155
 20
935.46153846153845
 42
0
  0
VERTEX
  8
0
 10
1806.3846153846155
 20
995.46153846153845
 42
0
  0
VERTEX
  8
0
 10
1936.3846153846155
 20
995.46153846153845
 42
0
  0
SEQEND
  0
POLYLINE
  8
0
 10
0
 20
0
 39
0
 70
1
 66
1
  0
VERTEX
  8
0
 10
1927.3326325049768
 20
965.46153846153845
 42
1
  0
VERTEX
  8
0
 10
1901.3326325049768
 20
965.46153846153845
 42
1
  0
SEQEND
  0
POLYLINE
  8
0
 10
0
 20
0
 39
0
 70
1
 66
1
  0
VERTEX
  8
0
 10
297.61538461538464
 20
1139.4615384615386
 42
-0
  0
VERTEX
  8
0
 10
197.61538461538464
 20
1139.4615384615386
 42
0
  0
VERTEX
  8
0
 10
197.61538461538464
 20
1189.4615384615386
 42
0
  0
VERTEX
  8
0
 10
297.61538461538464
 20
1189.4615384615386
 42
0
  0
SEQEND
  0
POLYLINE
  8
0
 10
0
 20
0
 39
0
 70
1
 66
1
  0
VERTEX
  8
0
 10
277.20932153555066
 20
1164.4615384615386
 42
-0
  0
VERTEX
  8
0
 10
277.20932153555066
 20
1177.4615384615386
 42
-0
  0
VERTEX
  8
0
 10
218.02144388052136
 20
1177.4615384615386
 42
0
  0
VERTEX
  8
0
 10
218.02144388052136
 20
1164.4615384615386
 42
0
  0
VERTEX
  8
0
 10
218.02144388052136
 20
1151.4615384615386
 42
0
  0
VERTEX
  8
0
 10
277.20932153555066
 20
1151.4615384615386
 42
0
  0
SEQEND
  0
POLYLINE
  8
0
 10
0
 20
0
 39
0
 70
1
 66
1
  0
VERTEX
  8
0
 10
807.92307692307691
 20
1139.4615384615386
 42
-0
  0
VERTEX
  8
0
 10
707.92307692307691
 20
1139.4615384615386
 42
0
  0
VERTEX
  8
0
 10
707.92307692307691
 20
1189.4615384615386
 42
0
  0
VERTEX
  8
0
 10
807.92307692307691
 20
1189.4615384615386
 42
0
  0
SEQEND
  0
POLYLINE
  8
0
 10
0
 20
0
 39
0
 70
1
 66
1
  0
VERTEX
  8
0
 10
787.51701384324292
 20
1164.4615384615386
 42
-0
  0
VERTEX
  8
0
 10
787.51701384324292
 20
1177.4615384615386
 42
-0
  0
VERTEX
  8
0
 10
728.32913618821362
 20
1177.4615384615386
 42
0
  0
VERTEX
  8
0
 10
728.32913618821362
 20
1164.4615384615386
 42
0
  0
VERTEX
  8
0
 10
728.32913618821362
 20
1151.4615384615386
 42
0
  0
VERTEX
  8
0
 10
787.51701384324292
 20
1151.4615384615386
 42
0
  0
SEQEND
  0
POLYLINE
  8
0
 10
0
 20
0
 39
0
 70
1
 66
1
  0
VERTEX
  8
0
 10
1318.2307692307693
 20
1139.4615384615386
 42
-0
  0
VERTEX
  8
0
 10
1218.2307692307693
 20
1139.4615384615386
 42
0
  0
VERTEX
  8
0
 10
1218.2307692307693
 20
1189.4615384615386
 42
0
  0
VERTEX
  8
0
 10
1318.2307692307693
 20
1189.4615384615386
 42
0
  0
SEQEND
  0
POLYLINE
  8
0
 10
0
 20
0
 39
0
 70
1
 66
1
  0
VERTEX
  8
0
 10
1297.8247061509353
 20
1164.4615384615386
 42
-0
  0
VERTEX
  8
0
 10
1297.8247061509353
 20
1177.4615384615386
 42
-0
  0
VERTEX
  8
0
 10
1238.636828495906
 20
1177.4615384615386
 42
0
  0
VERTEX
  8
0
 10
1238.636828495906
 20
1164.4615384615386
 42
0
  0
VERTEX
  8
0
 10
1238.636828495906
 20
1151.4615384615386
 42
0
  0
VERTEX
  8
0
 10
1297.8247061509353
 20
1151.4615384615386
 42
0
  0
SEQEND
  0
POLYLINE
  8
0
 10
0
 20
0
 39
0
 70
1
 66
1
  0
VERTEX
  8
0
 10
1781.4615384615386
 20
1129.6153846153845
 42
-0
  0
VERTEX
  8
0
 10
1681.4615384615386
 20
1129.6153846153845
 42
0
  0
VERTEX
  8
0
 10
1681.4615384615386
 20
1179.6153846153845
 42
0
  0
VERTEX
  8
0
 10
1781.4615384615386
 20
1179.6153846153845
 42
0
  0
SEQEND
  0
POLYLINE
  8
0
 10
0
 20
0
 39
0
 70
1
 66
1
  0
VERTEX
  8
0
 10
1761.0554753817046
 20
1154.6153846153845
 42
-0
  0
VERTEX
  8
0
 10
1761.0554753817046
 20
1167.6153846153845
 42
-0
  0
VERTEX
  8
0
 10
1701.8675977266753
 20
1167.6153846153845
 42
0
  0
VERTEX
  8
0
 10
1701.8675977266753
 20
1154.6153846153845
 42
0
  0
VERTEX
  8
0
 10
1701.8675977266753
 20
1141.6153846153845
 42
0
  0
VERTEX
  8
0
 10
1761.0554753817046
 20
1141.6153846153845
 42
0
  0
SEQEND
  0
POLYLINE
  8
0
 10
0
 20
0
 39
0
 70
1
 66
1
  0
VERTEX
  8
0
 10
1866.6923076923076
 20
380.38461538461536
 42
-0
  0
VERTEX
  8
0
 10
1866.6923076923076
 20
480.38461538461536
 42
0
  0
VERTEX
  8
0
 10
1916.6923076923076
 20
480.38461538461536
 42
0
  0
VERTEX
  8
0
 10
1916.6923076923076
 20
380.38461538461536
 42
0
  0
SEQEND
  0
POLYLINE
  8
0
 10
0
 20
0
 39
0
 70
1
 66
1
  0
VERTEX
  8
0
 10
1891.6923076923076
 20
400.79067846444934
 42
-0
  0
VERTEX
  8
0
 10
1904.6923076923076
 20
400.79067846444934
 42
-0
  0
VERTEX
  8
0
 10
1904.6923076923076
 20
459.97855611947864
 42
0
  0
VERTEX
  8
0
 10
1891.6923076923076
 20
459.97855611947864
 42
0
  0
VERTEX
  8
0
 10
1878.6923076923076
 20
459.97855611947864
 42
0
  0
VERTEX
  8
0
 10
1878.6923076923076
 20
400.79067846444934
 42
0
  0
SEQEND
  0
POLYLINE
  8
0
 10
0
 20
0
 39
0
 70
1
 66
1
  0
VERTEX
  8
0
 10
1927
 20
380.23076923076923
 42
-0
  0
VERTEX
  8
0
 10
1927
 20
480.23076923076923
 42
0
  0
VERTEX
  8
0
 10
1977
 20
480.23076923076923
 42
0
  0
VERTEX
  8
0
 10
1977
 20
380.23076923076923
 42
0
  0
SEQEND
  0
POLYLINE
  8
0
 10
0
 20
0
 39
0
 70
1
 66
1
  0
VERTEX
  8
0
 10
1952
 20
400.63683231060321
 42
-0
  0
VERTEX
  8
0
 10
1965
 20
400.63683231060321
 42
-0
  0
VERTEX
  8
0
 10
1965
 20
459.82470996563251
 42
0
  0
VERTEX
  8
0
 10
1952
 20
459.82470996563251
 42
0
  0
VERTEX
  8
0
 10
1939
 20
459.82470996563251
 42
0
  0
VERTEX
  8
0
 10
1939
 20
400.63683231060321
 42
0
  0
SEQEND
  0
ENDSEC
  0
EOF
