  0
SECTION
  2
ENTITIES
  0
POLYLINE
  8
0
 10
0
 20
0
 39
0
 70
1
 66
1
  0
VERTEX
  8
0
 10
0
 20
0
 42
-0
  0
VERTEX
  8
0
 10
2000
 20
0
 42
-0
  0
VERTEX
  8
0
 10
2000
 20
1700
 42
-0
  0
VERTEX
  8
0
 10
0
 20
1700
 42
-0
  0
SEQEND
  0
POLYLINE
  8
0
 10
0
 20
0
 39
0
 70
1
 66
1
  0
VERTEX
  8
0
 10
314.04998779296875
 20
762.0181884765625
 42
1
  0
VERTEX
  8
0
 10
14.050003051757813
 20
762.0181884765625
 42
1
  0
SEQEND
  0
POLYLINE
  8
0
 10
0
 20
0
 39
0
 70
1
 66
1
  0
VERTEX
  8
0
 10
216.55000305175781
 20
762.0181884765625
 42
-1
  0
VERTEX
  8
0
 10
111.55000305175781
 20
762.0181884765625
 42
-1
  0
SEQEND
  0
POLYLINE
  8
0
 10
0
 20
0
 39
0
 70
1
 66
1
  0
VERTEX
  8
0
 10
1746.856689453125
 20
1387.5587158203125
 42
0.26772299408912659
  0
VERTEX
  8
0
 10
1749.72314453125
 20
1388.4364013671875
 42
0
  0
VERTEX
  8
0
 10
1768.6954345703125
 20
1408.78173828125
 42
-0.17534300684928894
  0
VERTEX
  8
0
 10
1778.3505859375
 20
1412.0919189453125
 42
0
  0
VERTEX
  8
0
 10
1780.0792236328125
 20
1412.0941162109375
 42
-0.17131699621677399
  0
VERTEX
  8
0
 10
1789.499755859375
 20
1408.78173828125
 42
0
  0
VERTEX
  8
0
 10
1808.4720458984375
 20
1388.4364013671875
 42
0.26772299408912659
  0
VERTEX
  8
0
 10
1811.3385009765625
 20
1387.5587158203125
 42
0.083518996834754944
  0
VERTEX
  8
0
 10
1855.429443359375
 20
1405.82177734375
 42
0.26772299408912659
  0
VERTEX
  8
0
 10
1856.835693359375
 20
1408.46923828125
 42
0
  0
VERTEX
  8
0
 10
1855.8648681640625
 20
1436.27099609375
 42
-0.17534300684928894
  0
VERTEX
  8
0
 10
1860.351318359375
 20
1445.43896484375
 42
0
  0
VERTEX
  8
0
 10
1861.5721435546875
 20
1446.6627197265625
 42
-0.17131699621677399
  0
VERTEX
  8
0
 10
1870.57568359375
 20
1450.9818115234375
 42
0
  0
VERTEX
  8
0
 10
1898.37744140625
 20
1450.010986328125
 42
0.26772299408912659
  0
VERTEX
  8
0
 10
1901.02490234375
 20
1451.417236328125
 42
0.083518996834754944
  0
VERTEX
  8
0
 10
1919.2880859375
 20
1495.5081787109375
 42
0.26772299408912659
  0
VERTEX
  8
0
 10
1918.410400390625
 20
1498.3746337890625
 42
0
  0
VERTEX
  8
0
 10
1898.0650634765625
 20
1517.346923828125
 42
-0.17534300684928894
  0
VERTEX
  8
0
 10
1894.7547607421875
 20
1527.0020751953125
 42
0
  0
VERTEX
  8
0
 10
1894.752685546875
 20
1528.730712890625
 42
-0.17131699621677399
  0
VERTEX
  8
0
 10
1898.0650634765625
 20
1538.1512451171875
 42
0
  0
VERTEX
  8
0
 10
1918.410400390625
 20
1557.12353515625
 42
0.26772299408912659
  0
VERTEX
  8
0
 10
1919.2880859375
 20
1559.989990234375
 42
0.083518996834754944
  0
VERTEX
  8
0
 10
1901.02490234375
 20
1604.0809326171875
 42
0.26772299408912659
  0
VERTEX
  8
0
 10
1898.37744140625
 20
1605.4871826171875
 42
0
  0
VERTEX
  8
0
 10
1870.57568359375
 20
1604.516357421875
 42
-0.17534300684928894
  0
VERTEX
  8
0
 10
1861.4078369140625
 20
1609.0028076171875
 42
0
  0
VERTEX
  8
0
 10
1860.1839599609375
 20
1610.2236328125
 42
-0.17131699621677399
  0
VERTEX
  8
0
 10
1855.8648681640625
 20
1619.2271728515625
 42
0
  0
VERTEX
  8
0
 10
1856.835693359375
 20
1647.0289306640625
 42
0.26772299408912659
  0
VERTEX
  8
0
 10
1855.429443359375
 20
1649.6763916015625
 42
0.083518996834754944
  0
VERTEX
  8
0
 10
1811.3385009765625
 20
1667.939453125
 42
0.26772299408912659
  0
VERTEX
  8
0
 10
1808.4720458984375
 20
1667.061767578125
 42
0
  0
VERTEX
  8
0
 10
1789.499755859375
 20
1646.716552734375
 42
-0.17534300684928894
  0
VERTEX
  8
0
 10
1779.8447265625
 20
1643.40625
 42
0
  0
VERTEX
  8
0
 10
1778.1160888671875
 20
1643.404052734375
 42
-0.17131699621677399
  0
VERTEX
  8
0
 10
1768.6954345703125
 20
1646.716552734375
 42
0
  0
VERTEX
  8
0
 10
1749.72314453125
 20
1667.061767578125
 42
0.26772299408912659
  0
VERTEX
  8
0
 10
1746.856689453125
 20
1667.939453125
 42
0.083518996834754944
  0
VERTEX
  8
0
 10
1702.765869140625
 20
1649.6763916015625
 42
0.26772299408912659
  0
VERTEX
  8
0
 10
1701.3594970703125
 20
1647.0289306640625
 42
0
  0
VERTEX
  8
0
 10
1702.3304443359375
 20
1619.2271728515625
 42
-0.17534300684928894
  0
VERTEX
  8
0
 10
1697.843994140625
 20
1610.059326171875
 42
0
  0
VERTEX
  8
0
 10
1696.623046875
 20
1608.83544921875
 42
-0.17131699621677399
  0
VERTEX
  8
0
 10
1687.6195068359375
 20
1604.516357421875
 42
0
  0
VERTEX
  8
0
 10
1659.8177490234375
 20
1605.4871826171875
 42
0.26772299408912659
  0
VERTEX
  8
0
 10
1657.1702880859375
 20
1604.0809326171875
 42
0.083518996834754944
  0
VERTEX
  8
0
 10
1638.9072265625
 20
1559.989990234375
 42
0.26772299408912659
  0
VERTEX
  8
0
 10
1639.784912109375
 20
1557.12353515625
 42
0
  0
VERTEX
  8
0
 10
1660.1302490234375
 20
1538.1512451171875
 42
-0.17534300684928894
  0
VERTEX
  8
0
 10
1663.4405517578125
 20
1528.4962158203125
 42
0
  0
VERTEX
  8
0
 10
1663.442626953125
 20
1526.767578125
 42
-0.17131699621677399
  0
VERTEX
  8
0
 10
1660.1302490234375
 20
1517.346923828125
 42
0
  0
VERTEX
  8
0
 10
1639.784912109375
 20
1498.3746337890625
 42
0.26772299408912659
  0
VERTEX
  8
0
 10
1638.9072265625
 20
1495.5081787109375
 42
0.083518996834754944
  0
VERTEX
  8
0
 10
1657.1702880859375
 20
1451.417236328125
 42
0.26772299408912659
  0
VERTEX
  8
0
 10
1659.8177490234375
 20
1450.010986328125
 42
0
  0
VERTEX
  8
0
 10
1687.6195068359375
 20
1450.9818115234375
 42
-0.17534300684928894
  0
VERTEX
  8
0
 10
1696.7874755859375
 20
1446.495361328125
 42
0
  0
VERTEX
  8
0
 10
1698.01123046875
 20
1445.2745361328125
 42
-0.17131699621677399
  0
VERTEX
  8
0
 10
1702.3304443359375
 20
1436.27099609375
 42
0
  0
VERTEX
  8
0
 10
1701.3594970703125
 20
1408.46923828125
 42
0.26772299408912659
  0
VERTEX
  8
0
 10
1702.765869140625
 20
1405.82177734375
 42
0.083518996834754944
  0
SEQEND
  0
POLYLINE
  8
0
 10
0
 20
0
 39
0
 70
1
 66
1
  0
VERTEX
  8
0
 10
1726.09765625
 20
1527.7491455078125
 42
-1
  0
VERTEX
  8
0
 10
1832.09765625
 20
1527.7491455078125
 42
-1
  0
SEQEND
  0
POLYLINE
  8
0
 10
0
 20
0
 39
0
 70
1
 66
1
  0
VERTEX
  8
0
 10
651.1341552734375
 20
108.6636962890625
 42
-0.22947099804878235
  0
VERTEX
  8
0
 10
661.95782470703125
 20
101.32064056396484
 42
0
  0
VERTEX
  8
0
 10
662.9364013671875
 20
99.625595092773437
 42
-0.25135600566864014
  0
VERTEX
  8
0
 10
663.4173583984375
 20
85.448600769042969
 42
0
  0
VERTEX
  8
0
 10
657.615478515625
 20
73.553031921386719
 42
0.29157501459121704
  0
VERTEX
  8
0
 10
657.98114013671875
 20
70.349082946777344
 42
0.096179001033306122
  0
VERTEX
  8
0
 10
702.3721923828125
 20
33.112400054931641
 42
0.29148998856544495
  0
VERTEX
  8
0
 10
705.590087890625
 20
33.309116363525391
 42
0
  0
VERTEX
  8
0
 10
717.2510986328125
 20
41.781349182128906
 42
-0.22947099804878235
  0
VERTEX
  8
0
 10
730.2625732421875
 20
43.113594055175781
 42
0
  0
VERTEX
  8
0
 10
732.101806640625
 20
42.444126129150391
 42
-0.25135600566864014
  0
VERTEX
  8
0
 10
741.5830078125
 20
31.893051147460938
 42
0
  0
VERTEX
  8
0
 10
744.78485107421875
 20
19.051155090332031
 42
0.29157501459121704
  0
VERTEX
  8
0
 10
747.1243896484375
 20
16.831825256347656
 42
0.096179001033306122
  0
VERTEX
  8
0
 10
805.065185546875
 20
16.840869903564453
 42
0.29148998856544495
  0
VERTEX
  8
0
 10
807.40380859375
 20
19.060020446777344
 42
0
  0
VERTEX
  8
0
 10
810.890869140625
 20
33.045688629150391
 42
-0.22947099804878235
  0
VERTEX
  8
0
 10
820.0018310546875
 20
42.429866790771484
 42
0
  0
VERTEX
  8
0
 10
821.841064453125
 20
43.099224090576172
 42
-0.25135600566864014
  0
VERTEX
  8
0
 10
835.88623046875
 20
41.111034393310547
 42
0
  0
VERTEX
  8
0
 10
846.59356689453125
 20
33.331680297851563
 42
0.29157501459121704
  0
VERTEX
  8
0
 10
849.8123779296875
 20
33.135417938232422
 42
0.096179001033306122
  0
VERTEX
  8
0
 10
894.19171142578125
 20
70.385955810546875
 42
0.29148998856544495
  0
VERTEX
  8
0
 10
894.5567626953125
 20
73.589179992675781
 42
0
  0
VERTEX
  8
0
 10
888.2381591796875
 20
86.544227600097656
 42
-0.22947099804878235
  0
VERTEX
  8
0
 10
889.18560791015625
 20
99.589378356933594
 42
0
  0
VERTEX
  8
0
 10
890.164306640625
 20
101.28437042236328
 42
-0.25135600566864014
  0
VERTEX
  8
0
 10
902.201416015625
 20
108.78936004638672
 42
0
  0
VERTEX
  8
0
 10
915.40423583984375
 20
109.71259307861328
 42
0.29157501459121704
  0
VERTEX
  8
0
 10
917.99609375
 20
111.6312255859375
 42
0.096179001033306122
  0
VERTEX
  8
0
 10
928.04852294921875
 20
168.69329833984375
 42
0.29148998856544495
  0
VERTEX
  8
0
 10
926.2691650390625
 20
171.38177490234375
 42
0
  0
VERTEX
  8
0
 10
913.10150146484375
 20
177.24440002441406
 42
-0.22947099804878235
  0
VERTEX
  8
0
 10
905.4420166015625
 20
187.84654235839844
 42
0
  0
VERTEX
  8
0
 10
905.1021728515625
 20
189.77406311035156
 42
-0.25135600566864014
  0
VERTEX
  8
0
 10
909.49908447265625
 20
203.26055908203125
 42
0
  0
VERTEX
  8
0
 10
919.01953125
 20
212.45439147949219
 42
0.29157501459121704
  0
VERTEX
  8
0
 10
919.77178955078125
 20
215.59017944335938
 42
0.096179001033306122
  0
VERTEX
  8
0
 10
890.7935791015625
 20
265.76382446289062
 42
0.29148998856544495
  0
VERTEX
  8
0
 10
887.702392578125
 20
266.67959594726562
 42
0
  0
VERTEX
  8
0
 10
873.846923828125
 20
262.70660400390625
 42
-0.22947099804878235
  0
VERTEX
  8
0
 10
861.16448974609375
 20
265.90487670898437
 42
0
  0
VERTEX
  8
0
 10
859.6651611328125
 20
267.16302490234375
 42
-0.25135600566864014
  0
VERTEX
  8
0
 10
854.364501953125
 20
280.320556640625
 42
0
  0
VERTEX
  8
0
 10
855.7479248046875
 20
293.48306274414062
 42
0.29157501459121704
  0
VERTEX
  8
0
 10
854.3084716796875
 20
296.36874389648437
 42
0.096179001033306122
  0
VERTEX
  8
0
 10
799.85888671875
 20
316.17715454101562
 42
0.29148998856544495
  0
VERTEX
  8
0
 10
796.90228271484375
 20
314.89169311523437
 42
0
  0
VERTEX
  8
0
 10
788.8421630859375
 20
302.94210815429687
 42
-0.22947099804878235
  0
VERTEX
  8
0
 10
777.071044921875
 20
297.239990234375
 42
0
  0
VERTEX
  8
0
 10
775.11376953125
 20
297.24005126953125
 42
-0.25135600566864014
  0
VERTEX
  8
0
 10
762.595703125
 20
303.91207885742187
 42
0
  0
VERTEX
  8
0
 10
755.19476318359375
 20
314.8843994140625
 42
0.29157501459121704
  0
VERTEX
  8
0
 10
752.23724365234375
 20
316.16970825195312
 42
0.096179001033306122
  0
VERTEX
  8
0
 10
697.7938232421875
 20
296.34429931640625
 42
0.29148998856544495
  0
VERTEX
  8
0
 10
696.355224609375
 20
293.45913696289062
 42
0
  0
VERTEX
  8
0
 10
697.86187744140625
 20
279.124267578125
 42
-0.22947099804878235
  0
VERTEX
  8
0
 10
692.5098876953125
 20
267.18988037109375
 42
0
  0
VERTEX
  8
0
 10
691.010498046875
 20
265.93182373046875
 42
-0.25135600566864014
  0
VERTEX
  8
0
 10
677.13238525390625
 20
262.99639892578125
 42
0
  0
VERTEX
  8
0
 10
664.41009521484375
 20
266.64447021484375
 42
0.29157501459121704
  0
VERTEX
  8
0
 10
661.31829833984375
 20
265.72799682617188
 42
0.096179001033306122
  0
VERTEX
  8
0
 10
632.35577392578125
 20
215.54530334472656
 42
0.29148998856544495
  0
VERTEX
  8
0
 10
633.1082763671875
 20
212.41041564941406
 42
0
  0
VERTEX
  8
0
 10
643.4766845703125
 20
202.39773559570312
 42
-0.22947099804878235
  0
VERTEX
  8
0
 10
647.04815673828125
 20
189.81526184082031
 42
0
  0
VERTEX
  8
0
 10
646.70819091796875
 20
187.88777160644531
 42
-0.25135600566864014
  0
VERTEX
  8
0
 10
637.96380615234375
 20
176.71842956542969
 42
0
  0
VERTEX
  8
0
 10
625.873046875
 20
171.33526611328125
 42
0.29157501459121704
  0
VERTEX
  8
0
 10
624.09368896484375
 20
168.64585876464844
 42
0.096179001033306122
  0
VERTEX
  8
0
 10
634.16387939453125
 20
111.5869140625
 42
0.29148998856544495
  0
VERTEX
  8
0
 10
636.75543212890625
 20
109.66915130615234
 42
0
  0
SEQEND
  0
POLYLINE
  8
0
 10
0
 20
0
 39
0
 70
1
 66
1
  0
VERTEX
  8
0
 10
723.57147216796875
 20
166.05000305175781
 42
-1
  0
VERTEX
  8
0
 10
828.571533203125
 20
166.05000305175781
 42
-1
  0
SEQEND
  0
POLYLINE
  8
0
 10
0
 20
0
 39
0
 70
1
 66
1
  0
VERTEX
  8
0
 10
375.12200927734375
 20
1473.7105712890625
 42
-0.22947099804878235
  0
VERTEX
  8
0
 10
385.94573974609375
 20
1466.367431640625
 42
0
  0
VERTEX
  8
0
 10
386.92431640625
 20
1464.6724853515625
 42
-0.25135600566864014
  0
VERTEX
  8
0
 10
387.40521240234375
 20
1450.4954833984375
 42
0
  0
VERTEX
  8
0
 10
381.60336303710938
 20
1438.599853515625
 42
0.29157501459121704
  0
VERTEX
  8
0
 10
381.96902465820312
 20
1435.3958740234375
 42
0.096179001033306122
  0
VERTEX
  8
0
 10
426.36004638671875
 20
1398.1591796875
 42
0.29148998856544495
  0
VERTEX
  8
0
 10
429.5780029296875
 20
1398.35595703125
 42
0
  0
VERTEX
  8
0
 10
441.239013671875
 20
1406.8282470703125
 42
-0.22947099804878235
  0
VERTEX
  8
0
 10
454.25048828125
 20
1408.160400390625
 42
0
  0
VERTEX
  8
0
 10
456.08966064453125
 20
1407.490966796875
 42
-0.25135600566864014
  0
VERTEX
  8
0
 10
465.57086181640625
 20
1396.93994140625
 42
0
  0
VERTEX
  8
0
 10
468.772705078125
 20
1384.0980224609375
 42
0.29157501459121704
  0
VERTEX
  8
0
 10
471.1123046875
 20
1381.878662109375
 42
0.096179001033306122
  0
VERTEX
  8
0
 10
529.05303955078125
 20
1381.8876953125
 42
0.29148998856544495
  0
VERTEX
  8
0
 10
531.3917236328125
 20
1384.1068115234375
 42
0
  0
VERTEX
  8
0
 10
534.87872314453125
 20
1398.092529296875
 42
-0.22947099804878235
  0
VERTEX
  8
0
 10
543.98974609375
 20
1407.4766845703125
 42
0
  0
VERTEX
  8
0
 10
545.8289794921875
 20
1408.1461181640625
 42
-0.25135600566864014
  0
VERTEX
  8
0
 10
559.87408447265625
 20
1406.1578369140625
 42
0
  0
VERTEX
  8
0
 10
570.5814208984375
 20
1398.3785400390625
 42
0.29157501459121704
  0
VERTEX
  8
0
 10
573.80023193359375
 20
1398.1822509765625
 42
0.096179001033306122
  0
VERTEX
  8
0
 10
618.1795654296875
 20
1435.4327392578125
 42
0.29148998856544495
  0
VERTEX
  8
0
 10
618.544677734375
 20
1438.635986328125
 42
0
  0
VERTEX
  8
0
 10
612.22607421875
 20
1451.591064453125
 42
-0.22947099804878235
  0
VERTEX
  8
0
 10
613.1734619140625
 20
1464.63623046875
 42
0
  0
VERTEX
  8
0
 10
614.15216064453125
 20
1466.3311767578125
 42
-0.25135600566864014
  0
VERTEX
  8
0
 10
626.1893310546875
 20
1473.836181640625
 42
0
  0
VERTEX
  8
0
 10
639.39208984375
 20
1474.7593994140625
 42
0.29157501459121704
  0
VERTEX
  8
0
 10
641.9840087890625
 20
1476.6781005859375
 42
0.096179001033306122
  0
VERTEX
  8
0
 10
652.036376953125
 20
1533.7401123046875
 42
0.29148998856544495
  0
VERTEX
  8
0
 10
650.257080078125
 20
1536.4285888671875
 42
0
  0
VERTEX
  8
0
 10
637.08935546875
 20
1542.291259765625
 42
-0.22947099804878235
  0
VERTEX
  8
0
 10
629.42987060546875
 20
1552.8934326171875
 42
0
  0
VERTEX
  8
0
 10
629.090087890625
 20
1554.8209228515625
 42
-0.25135600566864014
  0
VERTEX
  8
0
 10
633.4869384765625
 20
1568.307373046875
 42
0
  0
VERTEX
  8
0
 10
643.0074462890625
 20
1577.501220703125
 42
0.29157501459121704
  0
VERTEX
  8
0
 10
643.7596435546875
 20
1580.636962890625
 42
0.096179001033306122
  0
VERTEX
  8
0
 10
614.78143310546875
 20
1630.8106689453125
 42
0.29148998856544495
  0
VERTEX
  8
0
 10
611.6903076171875
 20
1631.7264404296875
 42
0
  0
VERTEX
  8
0
 10
597.8348388671875
 20
1627.75341796875
 42
-0.22947099804878235
  0
VERTEX
  8
0
 10
585.15234375
 20
1630.95166015625
 42
0
  0
VERTEX
  8
0
 10
583.653076171875
 20
1632.2098388671875
 42
-0.25135600566864014
  0
VERTEX
  8
0
 10
578.35235595703125
 20
1645.367431640625
 42
0
  0
VERTEX
  8
0
 10
579.73577880859375
 20
1658.5299072265625
 42
0.29157501459121704
  0
VERTEX
  8
0
 10
578.29638671875
 20
1661.41552734375
 42
0.096179001033306122
  0
VERTEX
  8
0
 10
523.8468017578125
 20
1681.2239990234375
 42
0.29148998856544495
  0
VERTEX
  8
0
 10
520.89013671875
 20
1679.9384765625
 42
0
  0
VERTEX
  8
0
 10
512.830078125
 20
1667.989013671875
 42
-0.22947099804878235
  0
VERTEX
  8
0
 10
501.05892944335937
 20
1662.286865234375
 42
0
  0
VERTEX
  8
0
 10
499.1016845703125
 20
1662.286865234375
 42
-0.25135600566864014
  0
VERTEX
  8
0
 10
486.58358764648437
 20
1668.958984375
 42
0
  0
VERTEX
  8
0
 10
479.18264770507812
 20
1679.9312744140625
 42
0.29157501459121704
  0
VERTEX
  8
0
 10
476.22512817382812
 20
1681.216552734375
 42
0.096179001033306122
  0
VERTEX
  8
0
 10
421.78170776367187
 20
1661.39111328125
 42
0.29148998856544495
  0
VERTEX
  8
0
 10
420.34307861328125
 20
1658.5059814453125
 42
0
  0
VERTEX
  8
0
 10
421.8497314453125
 20
1644.171142578125
 42
-0.22947099804878235
  0
VERTEX
  8
0
 10
416.49777221679687
 20
1632.2366943359375
 42
0
  0
VERTEX
  8
0
 10
414.9984130859375
 20
1630.9786376953125
 42
-0.25135600566864014
  0
VERTEX
  8
0
 10
401.12030029296875
 20
1628.043212890625
 42
0
  0
VERTEX
  8
0
 10
388.39794921875
 20
1631.6912841796875
 42
0.29157501459121704
  0
VERTEX
  8
0
 10
385.30618286132813
 20
1630.77490234375
 42
0.096179001033306122
  0
VERTEX
  8
0
 10
356.3436279296875
 20
1580.5921630859375
 42
0.29148998856544495
  0
VERTEX
  8
0
 10
357.09616088867187
 20
1577.457275390625
 42
0
  0
VERTEX
  8
0
 10
367.464599609375
 20
1567.444580078125
 42
-0.22947099804878235
  0
VERTEX
  8
0
 10
371.0360107421875
 20
1554.862060546875
 42
0
  0
VERTEX
  8
0
 10
370.69610595703125
 20
1552.9345703125
 42
-0.25135600566864014
  0
VERTEX
  8
0
 10
361.95172119140625
 20
1541.7652587890625
 42
0
  0
VERTEX
  8
0
 10
349.86090087890625
 20
1536.382080078125
 42
0.29157501459121704
  0
VERTEX
  8
0
 10
348.08154296875
 20
1533.6927490234375
 42
0.096179001033306122
  0
VERTEX
  8
0
 10
358.15176391601562
 20
1476.6337890625
 42
0.29148998856544495
  0
VERTEX
  8
0
 10
360.7432861328125
 20
1474.7159423828125
 42
0
  0
SEQEND
  0
POLYLINE
  8
0
 10
0
 20
0
 39
0
 70
1
 66
1
  0
VERTEX
  8
0
 10
427.55938720703125
 20
1531.0968017578125
 42
-1
  0
VERTEX
  8
0
 10
572.55938720703125
 20
1531.0968017578125
 42
-1
  0
SEQEND
  0
POLYLINE
  8
0
 10
0
 20
0
 39
0
 70
1
 66
1
  0
VERTEX
  8
0
 10
610.04095458984375
 20
162.55000305175781
 42
1
  0
VERTEX
  8
0
 10
313.04095458984375
 20
162.55000305175781
 42
1
  0
SEQEND
  0
POLYLINE
  8
0
 10
0
 20
0
 39
0
 70
1
 66
1
  0
VERTEX
  8
0
 10
499.04095458984375
 20
162.55000305175781
 42
-1
  0
VERTEX
  8
0
 10
424.04095458984375
 20
162.55000305175781
 42
-1
  0
SEQEND
  0
POLYLINE
  8
0
 10
0
 20
0
 39
0
 70
1
 66
1
  0
VERTEX
  8
0
 10
299.04998779296875
 20
156.55000305175781
 42
1
  0
VERTEX
  8
0
 10
14.050003051757813
 20
156.55000305175781
 42
1
  0
SEQEND
  0
POLYLINE
  8
0
 10
0
 20
0
 39
0
 70
1
 66
1
  0
VERTEX
  8
0
 10
204.05000305175781
 20
156.55000305175781
 42
-1
  0
VERTEX
  8
0
 10
109.05000305175781
 20
156.55000305175781
 42
-1
  0
SEQEND
  0
POLYLINE
  8
0
 10
0
 20
0
 39
0
 70
1
 66
1
  0
VERTEX
  8
0
 10
244.05000305175781
 20
1040.4739990234375
 42
1
  0
VERTEX
  8
0
 10
14.050003051757813
 20
1040.4739990234375
 42
1
  0
SEQEND
  0
POLYLINE
  8
0
 10
0
 20
0
 39
0
 70
1
 66
1
  0
VERTEX
  8
0
 10
179.05000305175781
 20
1040.4739990234375
 42
-1
  0
VERTEX
  8
0
 10
79.050003051757813
 20
1040.4739990234375
 42
-1
  0
SEQEND
  0
POLYLINE
  8
0
 10
0
 20
0
 39
0
 70
1
 66
1
  0
VERTEX
  8
0
 10
1309.162841796875
 20
65.324661254882813
 42
0.30032598972320557
  0
VERTEX
  8
0
 10
1312.39111328125
 20
64.612953186035156
 42
0
  0
VERTEX
  8
0
 10
1333.19775390625
 20
72.599899291992187
 42
-0.27633500099182129
  0
VERTEX
  8
0
 10
1348.54052734375
 20
71.229148864746094
 42
0
  0
VERTEX
  8
0
 10
1351.776611328125
 20
68.878005981445312
 42
-0.27633500099182129
  0
VERTEX
  8
0
 10
1357.8214111328125
 20
54.709808349609375
 42
0
  0
VERTEX
  8
0
 10
1356.655029296875
 20
32.453353881835937
 42
0.30032598972320557
  0
VERTEX
  8
0
 10
1358.3294677734375
 20
29.603057861328125
 42
0.071102000772953033
  0
VERTEX
  8
0
 10
1406.058837890625
 20
14.094406127929687
 42
0.3003309965133667
  0
VERTEX
  8
0
 10
1409.0888671875
 20
15.416107177734375
 42
0
  0
VERTEX
  8
0
 10
1421.2301025390625
 20
34.112060546875
 42
-0.27633500099182129
  0
VERTEX
  8
0
 10
1434.4483642578125
 20
42.021316528320313
 42
0
  0
VERTEX
  8
0
 10
1438.4483642578125
 20
42.021316528320313
 42
-0.27633500099182129
  0
VERTEX
  8
0
 10
1451.6666259765625
 20
34.112060546875
 42
0
  0
VERTEX
  8
0
 10
1463.807861328125
 20
15.416107177734375
 42
0.3003309965133667
  0
VERTEX
  8
0
 10
1466.837890625
 20
14.094406127929687
 42
0.071102000772953033
  0
VERTEX
  8
0
 10
1514.5672607421875
 20
29.603057861328125
 42
0.30032598972320557
  0
VERTEX
  8
0
 10
1516.24169921875
 20
32.453353881835937
 42
0
  0
VERTEX
  8
0
 10
1515.0753173828125
 20
54.709808349609375
 42
-0.27633500099182129
  0
VERTEX
  8
0
 10
1521.1201171875
 20
68.878005981445312
 42
0
  0
VERTEX
  8
0
 10
1524.356201171875
 20
71.229148864746094
 42
-0.27633500099182129
  0
VERTEX
  8
0
 10
1539.698974609375
 20
72.599899291992187
 42
0
  0
VERTEX
  8
0
 10
1560.505615234375
 20
64.612953186035156
 42
0.30032598972320557
  0
VERTEX
  8
0
 10
1563.73388671875
 20
65.324661254882813
 42
0.071102000772953033
  0
VERTEX
  8
0
 10
1593.232666015625
 20
105.92552185058594
 42
0.3003309965133667
  0
VERTEX
  8
0
 10
1592.9119873046875
 20
109.21572113037109
 42
0
  0
VERTEX
  8
0
 10
1578.8829345703125
 20
126.54013824462891
 42
-0.27633500099182129
  0
VERTEX
  8
0
 10
1575.4454345703125
 20
141.55551147460937
 42
0
  0
VERTEX
  8
0
 10
1576.6815185546875
 20
145.3597412109375
 42
-0.27633500099182129
  0
VERTEX
  8
0
 10
1588.288330078125
 20
155.48692321777344
 42
0
  0
VERTEX
  8
0
 10
1609.821044921875
 20
161.25660705566406
 42
0.3003309965133667
  0
VERTEX
  8
0
 10
1612.014404296875
 20
163.72994995117187
 42
0.035503998398780823
  0
VERTEX
  8
0
 10
1613.79833984375
 20
188.82131958007812
 42
0.035503998398780823
  0
VERTEX
  8
0
 10
1612.014404296875
 20
213.91268920898437
 42
0.3003309965133667
  0
VERTEX
  8
0
 10
1609.821044921875
 20
216.38603210449219
 42
0
  0
VERTEX
  8
0
 10
1588.288330078125
 20
222.15571594238281
 42
-0.27633500099182129
  0
VERTEX
  8
0
 10
1576.6815185546875
 20
232.28289794921875
 42
0
  0
VERTEX
  8
0
 10
1575.4454345703125
 20
236.08712768554687
 42
-0.27633500099182129
  0
VERTEX
  8
0
 10
1578.8829345703125
 20
251.10250854492188
 42
0
  0
VERTEX
  8
0
 10
1592.9119873046875
 20
268.42691040039062
 42
0.3003309965133667
  0
VERTEX
  8
0
 10
1593.232666015625
 20
271.71710205078125
 42
0.071102000772953033
  0
VERTEX
  8
0
 10
1563.73388671875
 20
312.3179931640625
 42
0.30032598972320557
  0
VERTEX
  8
0
 10
1560.505615234375
 20
313.02969360351562
 42
0
  0
VERTEX
  8
0
 10
1539.698974609375
 20
305.042724609375
 42
-0.27633500099182129
  0
VERTEX
  8
0
 10
1524.356201171875
 20
306.41348266601562
 42
0
  0
VERTEX
  8
0
 10
1521.1201171875
 20
308.7646484375
 42
-0.27633500099182129
  0
VERTEX
  8
0
 10
1515.0753173828125
 20
322.93283081054687
 42
0
  0
VERTEX
  8
0
 10
1516.24169921875
 20
345.18927001953125
 42
0.30032598972320557
  0
VERTEX
  8
0
 10
1514.5672607421875
 20
348.03958129882812
 42
0.071102000772953033
  0
VERTEX
  8
0
 10
1466.837890625
 20
363.5482177734375
 42
0.3003309965133667
  0
VERTEX
  8
0
 10
1463.807861328125
 20
362.22653198242187
 42
0
  0
VERTEX
  8
0
 10
1451.6666259765625
 20
343.53057861328125
 42
-0.27633500099182129
  0
VERTEX
  8
0
 10
1438.4483642578125
 20
335.621337890625
 42
0
  0
VERTEX
  8
0
 10
1434.4483642578125
 20
335.621337890625
 42
-0.27633500099182129
  0
VERTEX
  8
0
 10
1421.2301025390625
 20
343.53057861328125
 42
0
  0
VERTEX
  8
0
 10
1409.0888671875
 20
362.22653198242187
 42
0.3003309965133667
  0
VERTEX
  8
0
 10
1406.058837890625
 20
363.5482177734375
 42
0.071102000772953033
  0
VERTEX
  8
0
 10
1358.3294677734375
 20
348.03958129882812
 42
0.30032598972320557
  0
VERTEX
  8
0
 10
1356.655029296875
 20
345.18927001953125
 42
0
  0
VERTEX
  8
0
 10
1357.8214111328125
 20
322.93283081054687
 42
-0.27633500099182129
  0
VERTEX
  8
0
 10
1351.776611328125
 20
308.7646484375
 42
0
  0
VERTEX
  8
0
 10
1348.54052734375
 20
306.41348266601562
 42
-0.27633500099182129
  0
VERTEX
  8
0
 10
1333.19775390625
 20
305.042724609375
 42
0
  0
VERTEX
  8
0
 10
1312.39111328125
 20
313.02969360351562
 42
0.30032598972320557
  0
VERTEX
  8
0
 10
1309.162841796875
 20
312.3179931640625
 42
0.071102000772953033
  0
VERTEX
  8
0
 10
1279.6640625
 20
271.71710205078125
 42
0.3003309965133667
  0
VERTEX
  8
0
 10
1279.9847412109375
 20
268.42691040039062
 42
0
  0
VERTEX
  8
0
 10
1294.0137939453125
 20
251.10250854492188
 42
-0.27633500099182129
  0
VERTEX
  8
0
 10
1297.4512939453125
 20
236.08712768554687
 42
0
  0
VERTEX
  8
0
 10
1296.2152099609375
 20
232.28289794921875
 42
-0.27633500099182129
  0
VERTEX
  8
0
 10
1284.6083984375
 20
222.15571594238281
 42
0
  0
VERTEX
  8
0
 10
1263.07568359375
 20
216.38603210449219
 42
0.3003309965133667
  0
VERTEX
  8
0
 10
1260.88232421875
 20
213.91268920898437
 42
0.035503998398780823
  0
VERTEX
  8
0
 10
1259.098388671875
 20
188.82131958007812
 42
0.035503998398780823
  0
VERTEX
  8
0
 10
1260.88232421875
 20
163.72994995117187
 42
0.3003309965133667
  0
VERTEX
  8
0
 10
1263.07568359375
 20
161.25660705566406
 42
0
  0
VERTEX
  8
0
 10
1284.6083984375
 20
155.48692321777344
 42
-0.27633500099182129
  0
VERTEX
  8
0
 10
1296.2152099609375
 20
145.3597412109375
 42
0
  0
VERTEX
  8
0
 10
1297.4512939453125
 20
141.55551147460937
 42
-0.27633500099182129
  0
VERTEX
  8
0
 10
1294.0137939453125
 20
126.54013824462891
 42
0
  0
VERTEX
  8
0
 10
1279.9847412109375
 20
109.21572113037109
 42
0.3003309965133667
  0
VERTEX
  8
0
 10
1279.6640625
 20
105.92552185058594
 42
0.071102000772953033
  0
SEQEND
  0
POLYLINE
  8
0
 10
0
 20
0
 39
0
 70
1
 66
1
  0
VERTEX
  8
0
 10
1381.4483642578125
 20
188.82131958007812
 42
-1
  0
VERTEX
  8
0
 10
1491.4483642578125
 20
188.82131958007812
 42
-1
  0
SEQEND
  0
POLYLINE
  8
0
 10
0
 20
0
 39
0
 70
1
 66
1
  0
VERTEX
  8
0
 10
334.04998779296875
 20
1525.949951171875
 42
1
  0
VERTEX
  8
0
 10
14.050003051757813
 20
1525.949951171875
 42
1
  0
SEQEND
  0
POLYLINE
  8
0
 10
0
 20
0
 39
0
 70
1
 66
1
  0
VERTEX
  8
0
 10
241.55000305175781
 20
1525.949951171875
 42
-1
  0
VERTEX
  8
0
 10
106.55000305175781
 20
1525.949951171875
 42
-1
  0
SEQEND
  0
POLYLINE
  8
0
 10
0
 20
0
 39
0
 70
1
 66
1
  0
VERTEX
  8
0
 10
299.04998779296875
 20
455.55999755859375
 42
1
  0
VERTEX
  8
0
 10
14.050003051757813
 20
455.55999755859375
 42
1
  0
SEQEND
  0
POLYLINE
  8
0
 10
0
 20
0
 39
0
 70
1
 66
1
  0
VERTEX
  8
0
 10
204.05000305175781
 20
455.55999755859375
 42
-1
  0
VERTEX
  8
0
 10
109.05000305175781
 20
455.55999755859375
 42
-1
  0
SEQEND
  0
POLYLINE
  8
0
 10
0
 20
0
 39
0
 70
1
 66
1
  0
VERTEX
  8
0
 10
610.04095458984375
 20
473.55999755859375
 42
1
  0
VERTEX
  8
0
 10
313.04095458984375
 20
473.55999755859375
 42
1
  0
SEQEND
  0
POLYLINE
  8
0
 10
0
 20
0
 39
0
 70
1
 66
1
  0
VERTEX
  8
0
 10
499.04095458984375
 20
473.55999755859375
 42
-1
  0
VERTEX
  8
0
 10
424.04095458984375
 20
473.55999755859375
 42
-1
  0
SEQEND
  0
POLYLINE
  8
0
 10
0
 20
0
 39
0
 70
1
 66
1
  0
VERTEX
  8
0
 10
558.02862548828125
 20
750.4918212890625
 42
1
  0
VERTEX
  8
0
 10
328.02862548828125
 20
750.4918212890625
 42
1
  0
SEQEND
  0
POLYLINE
  8
0
 10
0
 20
0
 39
0
 70
1
 66
1
  0
VERTEX
  8
0
 10
493.02862548828125
 20
750.4918212890625
 42
-1
  0
VERTEX
  8
0
 10
393.02862548828125
 20
750.4918212890625
 42
-1
  0
SEQEND
  0
POLYLINE
  8
0
 10
0
 20
0
 39
0
 70
1
 66
1
  0
VERTEX
  8
0
 10
669.229736328125
 20
1253.5972900390625
 42
1
  0
VERTEX
  8
0
 10
439.229736328125
 20
1253.5972900390625
 42
1
  0
SEQEND
  0
POLYLINE
  8
0
 10
0
 20
0
 39
0
 70
1
 66
1
  0
VERTEX
  8
0
 10
604.229736328125
 20
1253.5972900390625
 42
-1
  0
VERTEX
  8
0
 10
504.229736328125
 20
1253.5972900390625
 42
-1
  0
SEQEND
  0
POLYLINE
  8
0
 10
0
 20
0
 39
0
 70
1
 66
1
  0
VERTEX
  8
0
 10
378.47833251953125
 20
1251.1181640625
 42
1
  0
VERTEX
  8
0
 10
148.47833251953125
 20
1251.1181640625
 42
1
  0
SEQEND
  0
POLYLINE
  8
0
 10
0
 20
0
 39
0
 70
1
 66
1
  0
VERTEX
  8
0
 10
313.47833251953125
 20
1251.1181640625
 42
-1
  0
VERTEX
  8
0
 10
213.47833251953125
 20
1251.1181640625
 42
-1
  0
SEQEND
  0
POLYLINE
  8
0
 10
0
 20
0
 39
0
 70
1
 66
1
  0
VERTEX
  8
0
 10
651.1341552734375
 20
424.83782958984375
 42
-0.22947099804878235
  0
VERTEX
  8
0
 10
661.95782470703125
 20
417.4947509765625
 42
0
  0
VERTEX
  8
0
 10
662.9364013671875
 20
415.79971313476562
 42
-0.25135600566864014
  0
VERTEX
  8
0
 10
663.4173583984375
 20
401.62274169921875
 42
0
  0
VERTEX
  8
0
 10
657.615478515625
 20
389.7271728515625
 42
0.29157501459121704
  0
VERTEX
  8
0
 10
657.98114013671875
 20
386.523193359375
 42
0.096179001033306122
  0
VERTEX
  8
0
 10
702.3721923828125
 20
349.28652954101562
 42
0.29148998856544495
  0
VERTEX
  8
0
 10
705.590087890625
 20
349.48324584960937
 42
0
  0
VERTEX
  8
0
 10
717.2510986328125
 20
357.95547485351562
 42
-0.22947099804878235
  0
VERTEX
  8
0
 10
730.2625732421875
 20
359.2877197265625
 42
0
  0
VERTEX
  8
0
 10
732.101806640625
 20
358.61825561523437
 42
-0.25135600566864014
  0
VERTEX
  8
0
 10
741.5830078125
 20
348.06716918945312
 42
0
  0
VERTEX
  8
0
 10
744.78485107421875
 20
335.22528076171875
 42
0.29157501459121704
  0
VERTEX
  8
0
 10
747.1243896484375
 20
333.00595092773437
 42
0.096179001033306122
  0
VERTEX
  8
0
 10
805.065185546875
 20
333.0150146484375
 42
0.29148998856544495
  0
VERTEX
  8
0
 10
807.40380859375
 20
335.23416137695312
 42
0
  0
VERTEX
  8
0
 10
810.890869140625
 20
349.21981811523437
 42
-0.22947099804878235
  0
VERTEX
  8
0
 10
820.0018310546875
 20
358.60400390625
 42
0
  0
VERTEX
  8
0
 10
821.841064453125
 20
359.27334594726562
 42
-0.25135600566864014
  0
VERTEX
  8
0
 10
835.88623046875
 20
357.28515625
 42
0
  0
VERTEX
  8
0
 10
846.59356689453125
 20
349.50579833984375
 42
0.29157501459121704
  0
VERTEX
  8
0
 10
849.8123779296875
 20
349.30953979492187
 42
0.096179001033306122
  0
VERTEX
  8
0
 10
894.19171142578125
 20
386.56008911132812
 42
0.29148998856544495
  0
VERTEX
  8
0
 10
894.5567626953125
 20
389.7633056640625
 42
0
  0
VERTEX
  8
0
 10
888.2381591796875
 20
402.71835327148437
 42
-0.22947099804878235
  0
VERTEX
  8
0
 10
889.18560791015625
 20
415.76348876953125
 42
0
  0
VERTEX
  8
0
 10
890.164306640625
 20
417.45849609375
 42
-0.25135600566864014
  0
VERTEX
  8
0
 10
902.201416015625
 20
424.9635009765625
 42
0
  0
VERTEX
  8
0
 10
915.40423583984375
 20
425.88671875
 42
0.29157501459121704
  0
VERTEX
  8
0
 10
917.99609375
 20
427.80535888671875
 42
0.096179001033306122
  0
VERTEX
  8
0
 10
928.04852294921875
 20
484.867431640625
 42
0.29148998856544495
  0
VERTEX
  8
0
 10
926.2691650390625
 20
487.555908203125
 42
0
  0
VERTEX
  8
0
 10
913.10150146484375
 20
493.41851806640625
 42
-0.22947099804878235
  0
VERTEX
  8
0
 10
905.4420166015625
 20
504.02069091796875
 42
0
  0
VERTEX
  8
0
 10
905.1021728515625
 20
505.94818115234375
 42
-0.25135600566864014
  0
VERTEX
  8
0
 10
909.49908447265625
 20
519.4346923828125
 42
0
  0
VERTEX
  8
0
 10
919.01953125
 20
528.6285400390625
 42
0.29157501459121704
  0
VERTEX
  8
0
 10
919.77178955078125
 20
531.7642822265625
 42
0.096179001033306122
  0
VERTEX
  8
0
 10
890.7935791015625
 20
581.93798828125
 42
0.29148998856544495
  0
VERTEX
  8
0
 10
887.702392578125
 20
582.853759765625
 42
0
  0
VERTEX
  8
0
 10
873.846923828125
 20
578.8807373046875
 42
-0.22947099804878235
  0
VERTEX
  8
0
 10
861.16448974609375
 20
582.0789794921875
 42
0
  0
VERTEX
  8
0
 10
859.6651611328125
 20
583.337158203125
 42
-0.25135600566864014
  0
VERTEX
  8
0
 10
854.364501953125
 20
596.49468994140625
 42
0
  0
VERTEX
  8
0
 10
855.7479248046875
 20
609.6572265625
 42
0.29157501459121704
  0
VERTEX
  8
0
 10
854.3084716796875
 20
612.5428466796875
 42
0.096179001033306122
  0
VERTEX
  8
0
 10
799.85888671875
 20
632.351318359375
 42
0.29148998856544495
  0
VERTEX
  8
0
 10
796.90228271484375
 20
631.0657958984375
 42
0
  0
VERTEX
  8
0
 10
788.8421630859375
 20
619.1162109375
 42
-0.22947099804878235
  0
VERTEX
  8
0
 10
777.071044921875
 20
613.41412353515625
 42
0
  0
VERTEX
  8
0
 10
775.11376953125
 20
613.4141845703125
 42
-0.25135600566864014
  0
VERTEX
  8
0
 10
762.595703125
 20
620.086181640625
 42
0
  0
VERTEX
  8
0
 10
755.19476318359375
 20
631.05853271484375
 42
0.29157501459121704
  0
VERTEX
  8
0
 10
752.23724365234375
 20
632.3438720703125
 42
0.096179001033306122
  0
VERTEX
  8
0
 10
697.7938232421875
 20
612.5184326171875
 42
0.29148998856544495
  0
VERTEX
  8
0
 10
696.355224609375
 20
609.63330078125
 42
0
  0
VERTEX
  8
0
 10
697.86187744140625
 20
595.29840087890625
 42
-0.22947099804878235
  0
VERTEX
  8
0
 10
692.5098876953125
 20
583.364013671875
 42
0
  0
VERTEX
  8
0
 10
691.010498046875
 20
582.10595703125
 42
-0.25135600566864014
  0
VERTEX
  8
0
 10
677.13238525390625
 20
579.1705322265625
 42
0
  0
VERTEX
  8
0
 10
664.41009521484375
 20
582.818603515625
 42
0.29157501459121704
  0
VERTEX
  8
0
 10
661.31829833984375
 20
581.902099609375
 42
0.096179001033306122
  0
VERTEX
  8
0
 10
632.35577392578125
 20
531.71942138671875
 42
0.29148998856544495
  0
VERTEX
  8
0
 10
633.1082763671875
 20
528.58453369140625
 42
0
  0
VERTEX
  8
0
 10
643.4766845703125
 20
518.5718994140625
 42
-0.22947099804878235
  0
VERTEX
  8
0
 10
647.04815673828125
 20
505.9893798828125
 42
0
  0
VERTEX
  8
0
 10
646.70819091796875
 20
504.0618896484375
 42
-0.25135600566864014
  0
VERTEX
  8
0
 10
637.96380615234375
 20
492.892578125
 42
0
  0
VERTEX
  8
0
 10
625.873046875
 20
487.5093994140625
 42
0.29157501459121704
  0
VERTEX
  8
0
 10
624.09368896484375
 20
484.82000732421875
 42
0.096179001033306122
  0
VERTEX
  8
0
 10
634.16387939453125
 20
427.76104736328125
 42
0.29148998856544495
  0
VERTEX
  8
0
 10
636.75543212890625
 20
425.84326171875
 42
0
  0
SEQEND
  0
POLYLINE
  8
0
 10
0
 20
0
 39
0
 70
1
 66
1
  0
VERTEX
  8
0
 10
723.57147216796875
 20
482.22412109375
 42
-1
  0
VERTEX
  8
0
 10
828.571533203125
 20
482.22412109375
 42
-1
  0
SEQEND
  0
POLYLINE
  8
0
 10
0
 20
0
 39
0
 70
1
 66
1
  0
VERTEX
  8
0
 10
595.0274658203125
 20
741.011962890625
 42
-0.22947099804878235
  0
VERTEX
  8
0
 10
605.85113525390625
 20
733.6689453125
 42
0
  0
VERTEX
  8
0
 10
606.8297119140625
 20
731.973876953125
 42
-0.25135600566864014
  0
VERTEX
  8
0
 10
607.3106689453125
 20
717.796875
 42
0
  0
VERTEX
  8
0
 10
601.5087890625
 20
705.90130615234375
 42
0.29157501459121704
  0
VERTEX
  8
0
 10
601.87445068359375
 20
702.6973876953125
 42
0.096179001033306122
  0
VERTEX
  8
0
 10
646.2655029296875
 20
665.460693359375
 42
0.29148998856544495
  0
VERTEX
  8
0
 10
649.4833984375
 20
665.65740966796875
 42
0
  0
VERTEX
  8
0
 10
661.1444091796875
 20
674.129638671875
 42
-0.22947099804878235
  0
VERTEX
  8
0
 10
674.1558837890625
 20
675.4619140625
 42
0
  0
VERTEX
  8
0
 10
675.9951171875
 20
674.79241943359375
 42
-0.25135600566864014
  0
VERTEX
  8
0
 10
685.476318359375
 20
664.2413330078125
 42
0
  0
VERTEX
  8
0
 10
688.67816162109375
 20
651.39947509765625
 42
0.29157501459121704
  0
VERTEX
  8
0
 10
691.0177001953125
 20
649.18011474609375
 42
0.096179001033306122
  0
VERTEX
  8
0
 10
748.95849609375
 20
649.18914794921875
 42
0.29148998856544495
  0
VERTEX
  8
0
 10
751.297119140625
 20
651.4083251953125
 42
0
  0
VERTEX
  8
0
 10
754.7841796875
 20
665.39398193359375
 42
-0.22947099804878235
  0
VERTEX
  8
0
 10
763.8951416015625
 20
674.77813720703125
 42
0
  0
VERTEX
  8
0
 10
765.734375
 20
675.447509765625
 42
-0.25135600566864014
  0
VERTEX
  8
0
 10
779.779541015625
 20
673.4593505859375
 42
0
  0
VERTEX
  8
0
 10
790.48687744140625
 20
665.67999267578125
 42
0.29157501459121704
  0
VERTEX
  8
0
 10
793.7056884765625
 20
665.48370361328125
 42
0.096179001033306122
  0
VERTEX
  8
0
 10
838.08502197265625
 20
702.7342529296875
 42
0.29148998856544495
  0
VERTEX
  8
0
 10
838.4500732421875
 20
705.9375
 42
0
  0
VERTEX
  8
0
 10
832.1314697265625
 20
718.89251708984375
 42
-0.22947099804878235
  0
VERTEX
  8
0
 10
833.07891845703125
 20
731.93768310546875
 42
0
  0
VERTEX
  8
0
 10
834.0576171875
 20
733.6326904296875
 42
-0.25135600566864014
  0
VERTEX
  8
0
 10
846.0947265625
 20
741.13763427734375
 42
0
  0
VERTEX
  8
0
 10
859.29754638671875
 20
742.0609130859375
 42
0.29157501459121704
  0
VERTEX
  8
0
 10
861.889404296875
 20
743.9794921875
 42
0.096179001033306122
  0
VERTEX
  8
0
 10
871.94183349609375
 20
801.0416259765625
 42
0.29148998856544495
  0
VERTEX
  8
0
 10
870.1624755859375
 20
803.7301025390625
 42
0
  0
VERTEX
  8
0
 10
856.99481201171875
 20
809.59271240234375
 42
-0.22947099804878235
  0
VERTEX
  8
0
 10
849.3353271484375
 20
820.19482421875
 42
0
  0
VERTEX
  8
0
 10
848.9954833984375
 20
822.12237548828125
 42
-0.25135600566864014
  0
VERTEX
  8
0
 10
853.39239501953125
 20
835.60888671875
 42
0
  0
VERTEX
  8
0
 10
862.912841796875
 20
844.80267333984375
 42
0.29157501459121704
  0
VERTEX
  8
0
 10
863.66510009765625
 20
847.9384765625
 42
0.096179001033306122
  0
VERTEX
  8
0
 10
834.6868896484375
 20
898.11212158203125
 42
0.29148998856544495
  0
VERTEX
  8
0
 10
831.595703125
 20
899.02789306640625
 42
0
  0
VERTEX
  8
0
 10
817.740234375
 20
895.054931640625
 42
-0.22947099804878235
  0
VERTEX
  8
0
 10
805.05780029296875
 20
898.253173828125
 42
0
  0
VERTEX
  8
0
 10
803.5584716796875
 20
899.5113525390625
 42
-0.25135600566864014
  0
VERTEX
  8
0
 10
798.2578125
 20
912.6688232421875
 42
0
  0
VERTEX
  8
0
 10
799.6412353515625
 20
925.83135986328125
 42
0.29157501459121704
  0
VERTEX
  8
0
 10
798.2017822265625
 20
928.717041015625
 42
0.096179001033306122
  0
VERTEX
  8
0
 10
743.752197265625
 20
948.52545166015625
 42
0.29148998856544495
  0
VERTEX
  8
0
 10
740.79559326171875
 20
947.239990234375
 42
0
  0
VERTEX
  8
0
 10
732.7354736328125
 20
935.2904052734375
 42
-0.22947099804878235
  0
VERTEX
  8
0
 10
720.96435546875
 20
929.5882568359375
 42
0
  0
VERTEX
  8
0
 10
719.007080078125
 20
929.58837890625
 42
-0.25135600566864014
  0
VERTEX
  8
0
 10
706.489013671875
 20
936.2603759765625
 42
0
  0
VERTEX
  8
0
 10
699.08807373046875
 20
947.232666015625
 42
0.29157501459121704
  0
VERTEX
  8
0
 10
696.13055419921875
 20
948.51800537109375
 42
0.096179001033306122
  0
VERTEX
  8
0
 10
641.6871337890625
 20
928.692626953125
 42
0.29148998856544495
  0
VERTEX
  8
0
 10
640.24853515625
 20
925.80743408203125
 42
0
  0
VERTEX
  8
0
 10
641.75518798828125
 20
911.4725341796875
 42
-0.22947099804878235
  0
VERTEX
  8
0
 10
636.4031982421875
 20
899.5382080078125
 42
0
  0
VERTEX
  8
0
 10
634.90380859375
 20
898.2801513671875
 42
-0.25135600566864014
  0
VERTEX
  8
0
 10
621.02569580078125
 20
895.3447265625
 42
0
  0
VERTEX
  8
0
 10
608.30340576171875
 20
898.9927978515625
 42
0.29157501459121704
  0
VERTEX
  8
0
 10
605.21160888671875
 20
898.0762939453125
 42
0.096179001033306122
  0
VERTEX
  8
0
 10
576.24908447265625
 20
847.89361572265625
 42
0.29148998856544495
  0
VERTEX
  8
0
 10
577.0015869140625
 20
844.75872802734375
 42
0
  0
VERTEX
  8
0
 10
587.3699951171875
 20
834.74603271484375
 42
-0.22947099804878235
  0
VERTEX
  8
0
 10
590.94146728515625
 20
822.16357421875
 42
0
  0
VERTEX
  8
0
 10
590.60150146484375
 20
820.236083984375
 42
-0.25135600566864014
  0
VERTEX
  8
0
 10
581.85711669921875
 20
809.06671142578125
 42
0
  0
VERTEX
  8
0
 10
569.766357421875
 20
803.68359375
 42
0.29157501459121704
  0
VERTEX
  8
0
 10
567.98699951171875
 20
800.994140625
 42
0.096179001033306122
  0
VERTEX
  8
0
 10
578.05718994140625
 20
743.9351806640625
 42
0.29148998856544495
  0
VERTEX
  8
0
 10
580.64874267578125
 20
742.0174560546875
 42
0
  0
SEQEND
  0
POLYLINE
  8
0
 10
0
 20
0
 39
0
 70
1
 66
1
  0
VERTEX
  8
0
 10
667.46478271484375
 20
798.3983154296875
 42
-1
  0
VERTEX
  8
0
 10
772.46484375
 20
798.3983154296875
 42
-1
  0
SEQEND
  0
POLYLINE
  8
0
 10
0
 20
0
 39
0
 70
1
 66
1
  0
VERTEX
  8
0
 10
969.18408203125
 20
108.66368865966797
 42
-0.22947099804878235
  0
VERTEX
  8
0
 10
980.0078125
 20
101.32063293457031
 42
0
  0
VERTEX
  8
0
 10
980.98638916015625
 20
99.625587463378906
 42
-0.25135600566864014
  0
VERTEX
  8
0
 10
981.46734619140625
 20
85.448593139648438
 42
0
  0
VERTEX
  8
0
 10
975.66546630859375
 20
73.553024291992188
 42
0.29157501459121704
  0
VERTEX
  8
0
 10
976.0311279296875
 20
70.349075317382813
 42
0.096179001033306122
  0
VERTEX
  8
0
 10
1020.422119140625
 20
33.112396240234375
 42
0.29148998856544495
  0
VERTEX
  8
0
 10
1023.6400756835937
 20
33.309112548828125
 42
0
  0
VERTEX
  8
0
 10
1035.3011474609375
 20
41.781345367431641
 42
-0.22947099804878235
  0
VERTEX
  8
0
 10
1048.3126220703125
 20
43.113590240478516
 42
0
  0
VERTEX
  8
0
 10
1050.1517333984375
 20
42.444122314453125
 42
-0.25135600566864014
  0
VERTEX
  8
0
 10
1059.6329345703125
 20
31.893045425415039
 42
0
  0
VERTEX
  8
0
 10
1062.8348388671875
 20
19.051151275634766
 42
0.29157501459121704
  0
VERTEX
  8
0
 10
1065.1744384765625
 20
16.831819534301758
 42
0.096179001033306122
  0
VERTEX
  8
0
 10
1123.1151123046875
 20
16.840866088867187
 42
0.29148998856544495
  0
VERTEX
  8
0
 10
1125.453857421875
 20
19.060016632080078
 42
0
  0
VERTEX
  8
0
 10
1128.9407958984375
 20
33.045684814453125
 42
-0.22947099804878235
  0
VERTEX
  8
0
 10
1138.0518798828125
 20
42.429862976074219
 42
0
  0
VERTEX
  8
0
 10
1139.89111328125
 20
43.099220275878906
 42
-0.25135600566864014
  0
VERTEX
  8
0
 10
1153.9361572265625
 20
41.111030578613281
 42
0
  0
VERTEX
  8
0
 10
1164.6435546875
 20
33.331676483154297
 42
0.29157501459121704
  0
VERTEX
  8
0
 10
1167.8623046875
 20
33.135414123535156
 42
0.096179001033306122
  0
VERTEX
  8
0
 10
1212.24169921875
 20
70.385948181152344
 42
0.29148998856544495
  0
VERTEX
  8
0
 10
1212.6068115234375
 20
73.58917236328125
 42
0
  0
VERTEX
  8
0
 10
1206.2882080078125
 20
86.544219970703125
 42
-0.22947099804878235
  0
VERTEX
  8
0
 10
1207.235595703125
 20
99.589370727539062
 42
0
  0
VERTEX
  8
0
 10
1208.2142333984375
 20
101.28436279296875
 42
-0.25135600566864014
  0
VERTEX
  8
0
 10
1220.25146484375
 20
108.78935241699219
 42
0
  0
VERTEX
  8
0
 10
1233.4542236328125
 20
109.71258544921875
 42
0.29157501459121704
  0
VERTEX
  8
0
 10
1236.046142578125
 20
111.63121795654297
 42
0.096179001033306122
  0
VERTEX
  8
0
 10
1246.0985107421875
 20
168.69329833984375
 42
0.29148998856544495
  0
VERTEX
  8
0
 10
1244.319091796875
 20
171.38177490234375
 42
0
  0
VERTEX
  8
0
 10
1231.1514892578125
 20
177.24440002441406
 42
-0.22947099804878235
  0
VERTEX
  8
0
 10
1223.491943359375
 20
187.84654235839844
 42
0
  0
VERTEX
  8
0
 10
1223.152099609375
 20
189.77406311035156
 42
-0.25135600566864014
  0
VERTEX
  8
0
 10
1227.549072265625
 20
203.26055908203125
 42
0
  0
VERTEX
  8
0
 10
1237.069580078125
 20
212.45439147949219
 42
0.29157501459121704
  0
VERTEX
  8
0
 10
1237.82177734375
 20
215.59017944335938
 42
0.096179001033306122
  0
VERTEX
  8
0
 10
1208.843505859375
 20
265.76382446289062
 42
0.29148998856544495
  0
VERTEX
  8
0
 10
1205.75244140625
 20
266.67959594726562
 42
0
  0
VERTEX
  8
0
 10
1191.89697265625
 20
262.70660400390625
 42
-0.22947099804878235
  0
VERTEX
  8
0
 10
1179.2144775390625
 20
265.90487670898437
 42
0
  0
VERTEX
  8
0
 10
1177.7152099609375
 20
267.16302490234375
 42
-0.25135600566864014
  0
VERTEX
  8
0
 10
1172.4144287109375
 20
280.320556640625
 42
0
  0
VERTEX
  8
0
 10
1173.7978515625
 20
293.48306274414062
 42
0.29157501459121704
  0
VERTEX
  8
0
 10
1172.3583984375
 20
296.36874389648437
 42
0.096179001033306122
  0
VERTEX
  8
0
 10
1117.908935546875
 20
316.17715454101562
 42
0.29148998856544495
  0
VERTEX
  8
0
 10
1114.9522705078125
 20
314.89169311523437
 42
0
  0
VERTEX
  8
0
 10
1106.8922119140625
 20
302.94210815429687
 42
-0.22947099804878235
  0
VERTEX
  8
0
 10
1095.12109375
 20
297.239990234375
 42
0
  0
VERTEX
  8
0
 10
1093.163818359375
 20
297.24005126953125
 42
-0.25135600566864014
  0
VERTEX
  8
0
 10
1080.645751953125
 20
303.91207885742187
 42
0
  0
VERTEX
  8
0
 10
1073.2447509765625
 20
314.8843994140625
 42
0.29157501459121704
  0
VERTEX
  8
0
 10
1070.2872314453125
 20
316.16970825195312
 42
0.096179001033306122
  0
VERTEX
  8
0
 10
1015.8438110351562
 20
296.34429931640625
 42
0.29148998856544495
  0
VERTEX
  8
0
 10
1014.4052124023437
 20
293.45913696289062
 42
0
  0
VERTEX
  8
0
 10
1015.911865234375
 20
279.124267578125
 42
-0.22947099804878235
  0
VERTEX
  8
0
 10
1010.5598754882812
 20
267.18988037109375
 42
0
  0
VERTEX
  8
0
 10
1009.0604858398437
 20
265.93182373046875
 42
-0.25135600566864014
  0
VERTEX
  8
0
 10
995.182373046875
 20
262.99639892578125
 42
0
  0
VERTEX
  8
0
 10
982.4600830078125
 20
266.64447021484375
 42
0.29157501459121704
  0
VERTEX
  8
0
 10
979.3682861328125
 20
265.72799682617188
 42
0.096179001033306122
  0
VERTEX
  8
0
 10
950.40576171875
 20
215.54530334472656
 42
0.29148998856544495
  0
VERTEX
  8
0
 10
951.15826416015625
 20
212.41041564941406
 42
0
  0
VERTEX
  8
0
 10
961.52667236328125
 20
202.39773559570312
 42
-0.22947099804878235
  0
VERTEX
  8
0
 10
965.09814453125
 20
189.81526184082031
 42
0
  0
VERTEX
  8
0
 10
964.7581787109375
 20
187.88777160644531
 42
-0.25135600566864014
  0
VERTEX
  8
0
 10
956.0137939453125
 20
176.71842956542969
 42
0
  0
VERTEX
  8
0
 10
943.9229736328125
 20
171.33526611328125
 42
0.29157501459121704
  0
VERTEX
  8
0
 10
942.1436767578125
 20
168.64585876464844
 42
0.096179001033306122
  0
VERTEX
  8
0
 10
952.2138671875
 20
111.58690643310547
 42
0.29148998856544495
  0
VERTEX
  8
0
 10
954.805419921875
 20
109.66914367675781
 42
0
  0
SEQEND
  0
POLYLINE
  8
0
 10
0
 20
0
 39
0
 70
1
 66
1
  0
VERTEX
  8
0
 10
1041.6214599609375
 20
166.05000305175781
 42
-1
  0
VERTEX
  8
0
 10
1146.6214599609375
 20
166.05000305175781
 42
-1
  0
SEQEND
  0
POLYLINE
  8
0
 10
0
 20
0
 39
0
 70
1
 66
1
  0
VERTEX
  8
0
 10
693.132080078125
 20
1473.7105712890625
 42
-0.22947099804878235
  0
VERTEX
  8
0
 10
703.95574951171875
 20
1466.367431640625
 42
0
  0
VERTEX
  8
0
 10
704.934326171875
 20
1464.6724853515625
 42
-0.25135600566864014
  0
VERTEX
  8
0
 10
705.415283203125
 20
1450.4954833984375
 42
0
  0
VERTEX
  8
0
 10
699.6134033203125
 20
1438.599853515625
 42
0.29157501459121704
  0
VERTEX
  8
0
 10
699.97906494140625
 20
1435.3958740234375
 42
0.096179001033306122
  0
VERTEX
  8
0
 10
744.3701171875
 20
1398.1591796875
 42
0.29148998856544495
  0
VERTEX
  8
0
 10
747.5880126953125
 20
1398.35595703125
 42
0
  0
VERTEX
  8
0
 10
759.2490234375
 20
1406.8282470703125
 42
-0.22947099804878235
  0
VERTEX
  8
0
 10
772.260498046875
 20
1408.160400390625
 42
0
  0
VERTEX
  8
0
 10
774.0997314453125
 20
1407.490966796875
 42
-0.25135600566864014
  0
VERTEX
  8
0
 10
783.5809326171875
 20
1396.93994140625
 42
0
  0
VERTEX
  8
0
 10
786.78277587890625
 20
1384.0980224609375
 42
0.29157501459121704
  0
VERTEX
  8
0
 10
789.122314453125
 20
1381.878662109375
 42
0.096179001033306122
  0
VERTEX
  8
0
 10
847.0631103515625
 20
1381.8876953125
 42
0.29148998856544495
  0
VERTEX
  8
0
 10
849.4017333984375
 20
1384.1068115234375
 42
0
  0
VERTEX
  8
0
 10
852.8887939453125
 20
1398.092529296875
 42
-0.22947099804878235
  0
VERTEX
  8
0
 10
861.999755859375
 20
1407.4766845703125
 42
0
  0
VERTEX
  8
0
 10
863.8389892578125
 20
1408.1461181640625
 42
-0.25135600566864014
  0
VERTEX
  8
0
 10
877.8841552734375
 20
1406.1578369140625
 42
0
  0
VERTEX
  8
0
 10
888.59149169921875
 20
1398.3785400390625
 42
0.29157501459121704
  0
VERTEX
  8
0
 10
891.810302734375
 20
1398.1822509765625
 42
0.096179001033306122
  0
VERTEX
  8
0
 10
936.18963623046875
 20
1435.4327392578125
 42
0.29148998856544495
  0
VERTEX
  8
0
 10
936.5546875
 20
1438.635986328125
 42
0
  0
VERTEX
  8
0
 10
930.236083984375
 20
1451.591064453125
 42
-0.22947099804878235
  0
VERTEX
  8
0
 10
931.18353271484375
 20
1464.63623046875
 42
0
  0
VERTEX
  8
0
 10
932.1622314453125
 20
1466.3311767578125
 42
-0.25135600566864014
  0
VERTEX
  8
0
 10
944.1993408203125
 20
1473.836181640625
 42
0
  0
VERTEX
  8
0
 10
957.40216064453125
 20
1474.7593994140625
 42
0.29157501459121704
  0
VERTEX
  8
0
 10
959.9940185546875
 20
1476.6781005859375
 42
0.096179001033306122
  0
VERTEX
  8
0
 10
970.04644775390625
 20
1533.7401123046875
 42
0.29148998856544495
  0
VERTEX
  8
0
 10
968.26708984375
 20
1536.4285888671875
 42
0
  0
VERTEX
  8
0
 10
955.09942626953125
 20
1542.291259765625
 42
-0.22947099804878235
  0
VERTEX
  8
0
 10
947.43994140625
 20
1552.8934326171875
 42
0
  0
VERTEX
  8
0
 10
947.10009765625
 20
1554.8209228515625
 42
-0.25135600566864014
  0
VERTEX
  8
0
 10
951.49700927734375
 20
1568.307373046875
 42
0
  0
VERTEX
  8
0
 10
961.0174560546875
 20
1577.501220703125
 42
0.29157501459121704
  0
VERTEX
  8
0
 10
961.76971435546875
 20
1580.636962890625
 42
0.096179001033306122
  0
VERTEX
  8
0
 10
932.79150390625
 20
1630.8106689453125
 42
0.29148998856544495
  0
VERTEX
  8
0
 10
929.7003173828125
 20
1631.7264404296875
 42
0
  0
VERTEX
  8
0
 10
915.8448486328125
 20
1627.75341796875
 42
-0.22947099804878235
  0
VERTEX
  8
0
 10
903.16241455078125
 20
1630.95166015625
 42
0
  0
VERTEX
  8
0
 10
901.6630859375
 20
1632.2098388671875
 42
-0.25135600566864014
  0
VERTEX
  8
0
 10
896.3624267578125
 20
1645.367431640625
 42
0
  0
VERTEX
  8
0
 10
897.745849609375
 20
1658.5299072265625
 42
0.29157501459121704
  0
VERTEX
  8
0
 10
896.306396484375
 20
1661.41552734375
 42
0.096179001033306122
  0
VERTEX
  8
0
 10
841.8568115234375
 20
1681.2239990234375
 42
0.29148998856544495
  0
VERTEX
  8
0
 10
838.90020751953125
 20
1679.9384765625
 42
0
  0
VERTEX
  8
0
 10
830.840087890625
 20
1667.989013671875
 42
-0.22947099804878235
  0
VERTEX
  8
0
 10
819.0689697265625
 20
1662.286865234375
 42
0
  0
VERTEX
  8
0
 10
817.1116943359375
 20
1662.286865234375
 42
-0.25135600566864014
  0
VERTEX
  8
0
 10
804.5936279296875
 20
1668.958984375
 42
0
  0
VERTEX
  8
0
 10
797.19268798828125
 20
1679.9312744140625
 42
0.29157501459121704
  0
VERTEX
  8
0
 10
794.23516845703125
 20
1681.216552734375
 42
0.096179001033306122
  0
VERTEX
  8
0
 10
739.791748046875
 20
1661.39111328125
 42
0.29148998856544495
  0
VERTEX
  8
0
 10
738.3531494140625
 20
1658.5059814453125
 42
0
  0
VERTEX
  8
0
 10
739.85980224609375
 20
1644.171142578125
 42
-0.22947099804878235
  0
VERTEX
  8
0
 10
734.5078125
 20
1632.2366943359375
 42
0
  0
VERTEX
  8
0
 10
733.0084228515625
 20
1630.9786376953125
 42
-0.25135600566864014
  0
VERTEX
  8
0
 10
719.13031005859375
 20
1628.043212890625
 42
0
  0
VERTEX
  8
0
 10
706.40802001953125
 20
1631.6912841796875
 42
0.29157501459121704
  0
VERTEX
  8
0
 10
703.31622314453125
 20
1630.77490234375
 42
0.096179001033306122
  0
VERTEX
  8
0
 10
674.35369873046875
 20
1580.5921630859375
 42
0.29148998856544495
  0
VERTEX
  8
0
 10
675.106201171875
 20
1577.457275390625
 42
0
  0
VERTEX
  8
0
 10
685.474609375
 20
1567.444580078125
 42
-0.22947099804878235
  0
VERTEX
  8
0
 10
689.04608154296875
 20
1554.862060546875
 42
0
  0
VERTEX
  8
0
 10
688.70611572265625
 20
1552.9345703125
 42
-0.25135600566864014
  0
VERTEX
  8
0
 10
679.96173095703125
 20
1541.7652587890625
 42
0
  0
VERTEX
  8
0
 10
667.8709716796875
 20
1536.382080078125
 42
0.29157501459121704
  0
VERTEX
  8
0
 10
666.09161376953125
 20
1533.6927490234375
 42
0.096179001033306122
  0
VERTEX
  8
0
 10
676.16180419921875
 20
1476.6337890625
 42
0.29148998856544495
  0
VERTEX
  8
0
 10
678.75335693359375
 20
1474.7159423828125
 42
0
  0
SEQEND
  0
POLYLINE
  8
0
 10
0
 20
0
 39
0
 70
1
 66
1
  0
VERTEX
  8
0
 10
745.56939697265625
 20
1531.0968017578125
 42
-1
  0
VERTEX
  8
0
 10
890.5694580078125
 20
1531.0968017578125
 42
-1
  0
SEQEND
  0
POLYLINE
  8
0
 10
0
 20
0
 39
0
 70
1
 66
1
  0
VERTEX
  8
0
 10
1011.1419677734375
 20
1473.7105712890625
 42
-0.22947099804878235
  0
VERTEX
  8
0
 10
1021.9656372070312
 20
1466.367431640625
 42
0
  0
VERTEX
  8
0
 10
1022.9442138671875
 20
1464.6724853515625
 42
-0.25135600566864014
  0
VERTEX
  8
0
 10
1023.4251708984375
 20
1450.4954833984375
 42
0
  0
VERTEX
  8
0
 10
1017.623291015625
 20
1438.599853515625
 42
0.29157501459121704
  0
VERTEX
  8
0
 10
1017.9889526367187
 20
1435.3958740234375
 42
0.096179001033306122
  0
VERTEX
  8
0
 10
1062.3800048828125
 20
1398.1591796875
 42
0.29148998856544495
  0
VERTEX
  8
0
 10
1065.597900390625
 20
1398.35595703125
 42
0
  0
VERTEX
  8
0
 10
1077.2589111328125
 20
1406.8282470703125
 42
-0.22947099804878235
  0
VERTEX
  8
0
 10
1090.2703857421875
 20
1408.160400390625
 42
0
  0
VERTEX
  8
0
 10
1092.109619140625
 20
1407.490966796875
 42
-0.25135600566864014
  0
VERTEX
  8
0
 10
1101.5908203125
 20
1396.93994140625
 42
0
  0
VERTEX
  8
0
 10
1104.7926025390625
 20
1384.0980224609375
 42
0.29157501459121704
  0
VERTEX
  8
0
 10
1107.1322021484375
 20
1381.878662109375
 42
0.096179001033306122
  0
VERTEX
  8
0
 10
1165.072998046875
 20
1381.8876953125
 42
0.29148998856544495
  0
VERTEX
  8
0
 10
1167.41162109375
 20
1384.1068115234375
 42
0
  0
VERTEX
  8
0
 10
1170.898681640625
 20
1398.092529296875
 42
-0.22947099804878235
  0
VERTEX
  8
0
 10
1180.0096435546875
 20
1407.4766845703125
 42
0
  0
VERTEX
  8
0
 10
1181.848876953125
 20
1408.1461181640625
 42
-0.25135600566864014
  0
VERTEX
  8
0
 10
1195.89404296875
 20
1406.1578369140625
 42
0
  0
VERTEX
  8
0
 10
1206.601318359375
 20
1398.3785400390625
 42
0.29157501459121704
  0
VERTEX
  8
0
 10
1209.8201904296875
 20
1398.1822509765625
 42
0.096179001033306122
  0
VERTEX
  8
0
 10
1254.199462890625
 20
1435.4327392578125
 42
0.29148998856544495
  0
VERTEX
  8
0
 10
1254.5645751953125
 20
1438.635986328125
 42
0
  0
VERTEX
  8
0
 10
1248.2459716796875
 20
1451.591064453125
 42
-0.22947099804878235
  0
VERTEX
  8
0
 10
1249.193359375
 20
1464.63623046875
 42
0
  0
VERTEX
  8
0
 10
1250.172119140625
 20
1466.3311767578125
 42
-0.25135600566864014
  0
VERTEX
  8
0
 10
1262.209228515625
 20
1473.836181640625
 42
0
  0
VERTEX
  8
0
 10
1275.412109375
 20
1474.7593994140625
 42
0.29157501459121704
  0
VERTEX
  8
0
 10
1278.00390625
 20
1476.6781005859375
 42
0.096179001033306122
  0
VERTEX
  8
0
 10
1288.056396484375
 20
1533.7401123046875
 42
0.29148998856544495
  0
VERTEX
  8
0
 10
1286.2769775390625
 20
1536.4285888671875
 42
0
  0
VERTEX
  8
0
 10
1273.109375
 20
1542.291259765625
 42
-0.22947099804878235
  0
VERTEX
  8
0
 10
1265.4498291015625
 20
1552.8934326171875
 42
0
  0
VERTEX
  8
0
 10
1265.1099853515625
 20
1554.8209228515625
 42
-0.25135600566864014
  0
VERTEX
  8
0
 10
1269.5068359375
 20
1568.307373046875
 42
0
  0
VERTEX
  8
0
 10
1279.02734375
 20
1577.501220703125
 42
0.29157501459121704
  0
VERTEX
  8
0
 10
1279.779541015625
 20
1580.636962890625
 42
0.096179001033306122
  0
VERTEX
  8
0
 10
1250.8013916015625
 20
1630.8106689453125
 42
0.29148998856544495
  0
VERTEX
  8
0
 10
1247.710205078125
 20
1631.7264404296875
 42
0
  0
VERTEX
  8
0
 10
1233.854736328125
 20
1627.75341796875
 42
-0.22947099804878235
  0
VERTEX
  8
0
 10
1221.17236328125
 20
1630.95166015625
 42
0
  0
VERTEX
  8
0
 10
1219.6729736328125
 20
1632.2098388671875
 42
-0.25135600566864014
  0
VERTEX
  8
0
 10
1214.372314453125
 20
1645.367431640625
 42
0
  0
VERTEX
  8
0
 10
1215.7557373046875
 20
1658.5299072265625
 42
0.29157501459121704
  0
VERTEX
  8
0
 10
1214.3162841796875
 20
1661.41552734375
 42
0.096179001033306122
  0
VERTEX
  8
0
 10
1159.86669921875
 20
1681.2239990234375
 42
0.29148998856544495
  0
VERTEX
  8
0
 10
1156.91015625
 20
1679.9384765625
 42
0
  0
VERTEX
  8
0
 10
1148.8499755859375
 20
1667.989013671875
 42
-0.22947099804878235
  0
VERTEX
  8
0
 10
1137.078857421875
 20
1662.286865234375
 42
0
  0
VERTEX
  8
0
 10
1135.12158203125
 20
1662.286865234375
 42
-0.25135600566864014
  0
VERTEX
  8
0
 10
1122.603515625
 20
1668.958984375
 42
0
  0
VERTEX
  8
0
 10
1115.20263671875
 20
1679.9312744140625
 42
0.29157501459121704
  0
VERTEX
  8
0
 10
1112.2451171875
 20
1681.216552734375
 42
0.096179001033306122
  0
VERTEX
  8
0
 10
1057.8016357421875
 20
1661.39111328125
 42
0.29148998856544495
  0
VERTEX
  8
0
 10
1056.363037109375
 20
1658.5059814453125
 42
0
  0
VERTEX
  8
0
 10
1057.86962890625
 20
1644.171142578125
 42
-0.22947099804878235
  0
VERTEX
  8
0
 10
1052.5177001953125
 20
1632.2366943359375
 42
0
  0
VERTEX
  8
0
 10
1051.018310546875
 20
1630.9786376953125
 42
-0.25135600566864014
  0
VERTEX
  8
0
 10
1037.1402587890625
 20
1628.043212890625
 42
0
  0
VERTEX
  8
0
 10
1024.4178466796875
 20
1631.6912841796875
 42
0.29157501459121704
  0
VERTEX
  8
0
 10
1021.3261108398437
 20
1630.77490234375
 42
0.096179001033306122
  0
VERTEX
  8
0
 10
992.36358642578125
 20
1580.5921630859375
 42
0.29148998856544495
  0
VERTEX
  8
0
 10
993.1160888671875
 20
1577.457275390625
 42
0
  0
VERTEX
  8
0
 10
1003.4844970703125
 20
1567.444580078125
 42
-0.22947099804878235
  0
VERTEX
  8
0
 10
1007.0559692382812
 20
1554.862060546875
 42
0
  0
VERTEX
  8
0
 10
1006.7160034179687
 20
1552.9345703125
 42
-0.25135600566864014
  0
VERTEX
  8
0
 10
997.97161865234375
 20
1541.7652587890625
 42
0
  0
VERTEX
  8
0
 10
985.880859375
 20
1536.382080078125
 42
0.29157501459121704
  0
VERTEX
  8
0
 10
984.10150146484375
 20
1533.6927490234375
 42
0.096179001033306122
  0
VERTEX
  8
0
 10
994.17169189453125
 20
1476.6337890625
 42
0.29148998856544495
  0
VERTEX
  8
0
 10
996.76324462890625
 20
1474.7159423828125
 42
0
  0
SEQEND
  0
POLYLINE
  8
0
 10
0
 20
0
 39
0
 70
1
 66
1
  0
VERTEX
  8
0
 10
1063.579345703125
 20
1531.0968017578125
 42
-1
  0
VERTEX
  8
0
 10
1208.579345703125
 20
1531.0968017578125
 42
-1
  0
SEQEND
  0
POLYLINE
  8
0
 10
0
 20
0
 39
0
 70
1
 66
1
  0
VERTEX
  8
0
 10
1329.1519775390625
 20
1473.7105712890625
 42
-0.22947099804878235
  0
VERTEX
  8
0
 10
1339.9757080078125
 20
1466.367431640625
 42
0
  0
VERTEX
  8
0
 10
1340.9542236328125
 20
1464.6724853515625
 42
-0.25135600566864014
  0
VERTEX
  8
0
 10
1341.4351806640625
 20
1450.4954833984375
 42
0
  0
VERTEX
  8
0
 10
1335.63330078125
 20
1438.599853515625
 42
0.29157501459121704
  0
VERTEX
  8
0
 10
1335.9990234375
 20
1435.3958740234375
 42
0.096179001033306122
  0
VERTEX
  8
0
 10
1380.3900146484375
 20
1398.1591796875
 42
0.29148998856544495
  0
VERTEX
  8
0
 10
1383.60791015625
 20
1398.35595703125
 42
0
  0
VERTEX
  8
0
 10
1395.2689208984375
 20
1406.8282470703125
 42
-0.22947099804878235
  0
VERTEX
  8
0
 10
1408.2803955078125
 20
1408.160400390625
 42
0
  0
VERTEX
  8
0
 10
1410.11962890625
 20
1407.490966796875
 42
-0.25135600566864014
  0
VERTEX
  8
0
 10
1419.600830078125
 20
1396.93994140625
 42
0
  0
VERTEX
  8
0
 10
1422.8026123046875
 20
1384.0980224609375
 42
0.29157501459121704
  0
VERTEX
  8
0
 10
1425.1422119140625
 20
1381.878662109375
 42
0.096179001033306122
  0
VERTEX
  8
0
 10
1483.0830078125
 20
1381.8876953125
 42
0.29148998856544495
  0
VERTEX
  8
0
 10
1485.421630859375
 20
1384.1068115234375
 42
0
  0
VERTEX
  8
0
 10
1488.90869140625
 20
1398.092529296875
 42
-0.22947099804878235
  0
VERTEX
  8
0
 10
1498.0196533203125
 20
1407.4766845703125
 42
0
  0
VERTEX
  8
0
 10
1499.85888671875
 20
1408.1461181640625
 42
-0.25135600566864014
  0
VERTEX
  8
0
 10
1513.904052734375
 20
1406.1578369140625
 42
0
  0
VERTEX
  8
0
 10
1524.611328125
 20
1398.3785400390625
 42
0.29157501459121704
  0
VERTEX
  8
0
 10
1527.8302001953125
 20
1398.1822509765625
 42
0.096179001033306122
  0
VERTEX
  8
0
 10
1572.20947265625
 20
1435.4327392578125
 42
0.29148998856544495
  0
VERTEX
  8
0
 10
1572.5745849609375
 20
1438.635986328125
 42
0
  0
VERTEX
  8
0
 10
1566.2559814453125
 20
1451.591064453125
 42
-0.22947099804878235
  0
VERTEX
  8
0
 10
1567.203369140625
 20
1464.63623046875
 42
0
  0
VERTEX
  8
0
 10
1568.18212890625
 20
1466.3311767578125
 42
-0.25135600566864014
  0
VERTEX
  8
0
 10
1580.21923828125
 20
1473.836181640625
 42
0
  0
VERTEX
  8
0
 10
1593.422119140625
 20
1474.7593994140625
 42
0.29157501459121704
  0
VERTEX
  8
0
 10
1596.013916015625
 20
1476.6781005859375
 42
0.096179001033306122
  0
VERTEX
  8
0
 10
1606.06640625
 20
1533.7401123046875
 42
0.29148998856544495
  0
VERTEX
  8
0
 10
1604.2869873046875
 20
1536.4285888671875
 42
0
  0
VERTEX
  8
0
 10
1591.119384765625
 20
1542.291259765625
 42
-0.22947099804878235
  0
VERTEX
  8
0
 10
1583.4598388671875
 20
1552.8934326171875
 42
0
  0
VERTEX
  8
0
 10
1583.1199951171875
 20
1554.8209228515625
 42
-0.25135600566864014
  0
VERTEX
  8
0
 10
1587.516845703125
 20
1568.307373046875
 42
0
  0
VERTEX
  8
0
 10
1597.037353515625
 20
1577.501220703125
 42
0.29157501459121704
  0
VERTEX
  8
0
 10
1597.78955078125
 20
1580.636962890625
 42
0.096179001033306122
  0
VERTEX
  8
0
 10
1568.8114013671875
 20
1630.8106689453125
 42
0.29148998856544495
  0
VERTEX
  8
0
 10
1565.72021484375
 20
1631.7264404296875
 42
0
  0
VERTEX
  8
0
 10
1551.86474609375
 20
1627.75341796875
 42
-0.22947099804878235
  0
VERTEX
  8
0
 10
1539.182373046875
 20
1630.95166015625
 42
0
  0
VERTEX
  8
0
 10
1537.6829833984375
 20
1632.2098388671875
 42
-0.25135600566864014
  0
VERTEX
  8
0
 10
1532.38232421875
 20
1645.367431640625
 42
0
  0
VERTEX
  8
0
 10
1533.7657470703125
 20
1658.5299072265625
 42
0.29157501459121704
  0
VERTEX
  8
0
 10
1532.3262939453125
 20
1661.41552734375
 42
0.096179001033306122
  0
VERTEX
  8
0
 10
1477.876708984375
 20
1681.2239990234375
 42
0.29148998856544495
  0
VERTEX
  8
0
 10
1474.920166015625
 20
1679.9384765625
 42
0
  0
VERTEX
  8
0
 10
1466.8599853515625
 20
1667.989013671875
 42
-0.22947099804878235
  0
VERTEX
  8
0
 10
1455.0888671875
 20
1662.286865234375
 42
0
  0
VERTEX
  8
0
 10
1453.131591796875
 20
1662.286865234375
 42
-0.25135600566864014
  0
VERTEX
  8
0
 10
1440.613525390625
 20
1668.958984375
 42
0
  0
VERTEX
  8
0
 10
1433.212646484375
 20
1679.9312744140625
 42
0.29157501459121704
  0
VERTEX
  8
0
 10
1430.255126953125
 20
1681.216552734375
 42
0.096179001033306122
  0
VERTEX
  8
0
 10
1375.8116455078125
 20
1661.39111328125
 42
0.29148998856544495
  0
VERTEX
  8
0
 10
1374.373046875
 20
1658.5059814453125
 42
0
  0
VERTEX
  8
0
 10
1375.879638671875
 20
1644.171142578125
 42
-0.22947099804878235
  0
VERTEX
  8
0
 10
1370.5277099609375
 20
1632.2366943359375
 42
0
  0
VERTEX
  8
0
 10
1369.0283203125
 20
1630.9786376953125
 42
-0.25135600566864014
  0
VERTEX
  8
0
 10
1355.1502685546875
 20
1628.043212890625
 42
0
  0
VERTEX
  8
0
 10
1342.4278564453125
 20
1631.6912841796875
 42
0.29157501459121704
  0
VERTEX
  8
0
 10
1339.336181640625
 20
1630.77490234375
 42
0.096179001033306122
  0
VERTEX
  8
0
 10
1310.37353515625
 20
1580.5921630859375
 42
0.29148998856544495
  0
VERTEX
  8
0
 10
1311.1260986328125
 20
1577.457275390625
 42
0
  0
VERTEX
  8
0
 10
1321.4945068359375
 20
1567.444580078125
 42
-0.22947099804878235
  0
VERTEX
  8
0
 10
1325.06591796875
 20
1554.862060546875
 42
0
  0
VERTEX
  8
0
 10
1324.72607421875
 20
1552.9345703125
 42
-0.25135600566864014
  0
VERTEX
  8
0
 10
1315.981689453125
 20
1541.7652587890625
 42
0
  0
VERTEX
  8
0
 10
1303.890869140625
 20
1536.382080078125
 42
0.29157501459121704
  0
VERTEX
  8
0
 10
1302.1114501953125
 20
1533.6927490234375
 42
0.096179001033306122
  0
VERTEX
  8
0
 10
1312.181640625
 20
1476.6337890625
 42
0.29148998856544495
  0
VERTEX
  8
0
 10
1314.773193359375
 20
1474.7159423828125
 42
0
  0
SEQEND
  0
POLYLINE
  8
0
 10
0
 20
0
 39
0
 70
1
 66
1
  0
VERTEX
  8
0
 10
1381.58935546875
 20
1531.0968017578125
 42
-1
  0
VERTEX
  8
0
 10
1526.58935546875
 20
1531.0968017578125
 42
-1
  0
SEQEND
  0
POLYLINE
  8
0
 10
0
 20
0
 39
0
 70
1
 66
1
  0
VERTEX
  8
0
 10
1752.8653564453125
 20
767.26806640625
 42
0.26772299408912659
  0
VERTEX
  8
0
 10
1755.7318115234375
 20
768.145751953125
 42
0
  0
VERTEX
  8
0
 10
1774.7041015625
 20
788.49102783203125
 42
-0.17534300684928894
  0
VERTEX
  8
0
 10
1784.3592529296875
 20
791.80133056640625
 42
0
  0
VERTEX
  8
0
 10
1786.087890625
 20
791.803466796875
 42
-0.17131699621677399
  0
VERTEX
  8
0
 10
1795.5084228515625
 20
788.49102783203125
 42
0
  0
VERTEX
  8
0
 10
1814.480712890625
 20
768.145751953125
 42
0.26772299408912659
  0
VERTEX
  8
0
 10
1817.34716796875
 20
767.26806640625
 42
0.083518996834754944
  0
VERTEX
  8
0
 10
1861.4381103515625
 20
785.5311279296875
 42
0.26772299408912659
  0
VERTEX
  8
0
 10
1862.8443603515625
 20
788.17864990234375
 42
0
  0
VERTEX
  8
0
 10
1861.87353515625
 20
815.9803466796875
 42
-0.17534300684928894
  0
VERTEX
  8
0
 10
1866.3599853515625
 20
825.14825439453125
 42
0
  0
VERTEX
  8
0
 10
1867.580810546875
 20
826.37213134765625
 42
-0.17131699621677399
  0
VERTEX
  8
0
 10
1876.5843505859375
 20
830.69122314453125
 42
0
  0
VERTEX
  8
0
 10
1904.3861083984375
 20
829.7203369140625
 42
0.26772299408912659
  0
VERTEX
  8
0
 10
1907.03369140625
 20
831.12664794921875
 42
0.083518996834754944
  0
VERTEX
  8
0
 10
1925.296630859375
 20
875.21759033203125
 42
0.26772299408912659
  0
VERTEX
  8
0
 10
1924.4189453125
 20
878.083984375
 42
0
  0
VERTEX
  8
0
 10
1904.07373046875
 20
897.05633544921875
 42
-0.17534300684928894
  0
VERTEX
  8
0
 10
1900.763427734375
 20
906.71136474609375
 42
0
  0
VERTEX
  8
0
 10
1900.7613525390625
 20
908.4400634765625
 42
-0.17131699621677399
  0
VERTEX
  8
0
 10
1904.07373046875
 20
917.860595703125
 42
0
  0
VERTEX
  8
0
 10
1924.4189453125
 20
936.8328857421875
 42
0.26772299408912659
  0
VERTEX
  8
0
 10
1925.296630859375
 20
939.6993408203125
 42
0.083518996834754944
  0
VERTEX
  8
0
 10
1907.03369140625
 20
983.790283203125
 42
0.26772299408912659
  0
VERTEX
  8
0
 10
1904.3861083984375
 20
985.196533203125
 42
0
  0
VERTEX
  8
0
 10
1876.5843505859375
 20
984.2257080078125
 42
-0.17534300684928894
  0
VERTEX
  8
0
 10
1867.41650390625
 20
988.712158203125
 42
0
  0
VERTEX
  8
0
 10
1866.192626953125
 20
989.9329833984375
 42
-0.17131699621677399
  0
VERTEX
  8
0
 10
1861.87353515625
 20
998.9365234375
 42
0
  0
VERTEX
  8
0
 10
1862.8443603515625
 20
1026.73828125
 42
0.26772299408912659
  0
VERTEX
  8
0
 10
1861.4381103515625
 20
1029.3857421875
 42
0.083518996834754944
  0
VERTEX
  8
0
 10
1817.34716796875
 20
1047.64892578125
 42
0.26772299408912659
  0
VERTEX
  8
0
 10
1814.480712890625
 20
1046.771240234375
 42
0
  0
VERTEX
  8
0
 10
1795.5084228515625
 20
1026.4259033203125
 42
-0.17534300684928894
  0
VERTEX
  8
0
 10
1785.8533935546875
 20
1023.1156005859375
 42
0
  0
VERTEX
  8
0
 10
1784.124755859375
 20
1023.1134643554687
 42
-0.17131699621677399
  0
VERTEX
  8
0
 10
1774.7041015625
 20
1026.4259033203125
 42
0
  0
VERTEX
  8
0
 10
1755.7318115234375
 20
1046.771240234375
 42
0.26772299408912659
  0
VERTEX
  8
0
 10
1752.8653564453125
 20
1047.64892578125
 42
0.083518996834754944
  0
VERTEX
  8
0
 10
1708.7744140625
 20
1029.3857421875
 42
0.26772299408912659
  0
VERTEX
  8
0
 10
1707.3681640625
 20
1026.73828125
 42
0
  0
VERTEX
  8
0
 10
1708.339111328125
 20
998.9365234375
 42
-0.17534300684928894
  0
VERTEX
  8
0
 10
1703.8526611328125
 20
989.7686767578125
 42
0
  0
VERTEX
  8
0
 10
1702.6317138671875
 20
988.5447998046875
 42
-0.17131699621677399
  0
VERTEX
  8
0
 10
1693.628173828125
 20
984.2257080078125
 42
0
  0
VERTEX
  8
0
 10
1665.826416015625
 20
985.196533203125
 42
0.26772299408912659
  0
VERTEX
  8
0
 10
1663.178955078125
 20
983.790283203125
 42
0.083518996834754944
  0
VERTEX
  8
0
 10
1644.9158935546875
 20
939.6993408203125
 42
0.26772299408912659
  0
VERTEX
  8
0
 10
1645.7935791015625
 20
936.8328857421875
 42
0
  0
VERTEX
  8
0
 10
1666.138916015625
 20
917.860595703125
 42
-0.17534300684928894
  0
VERTEX
  8
0
 10
1669.44921875
 20
908.20550537109375
 42
0
  0
VERTEX
  8
0
 10
1669.4512939453125
 20
906.47686767578125
 42
-0.17131699621677399
  0
VERTEX
  8
0
 10
1666.138916015625
 20
897.05633544921875
 42
0
  0
VERTEX
  8
0
 10
1645.7935791015625
 20
878.083984375
 42
0.26772299408912659
  0
VERTEX
  8
0
 10
1644.9158935546875
 20
875.21759033203125
 42
0.083518996834754944
  0
VERTEX
  8
0
 10
1663.178955078125
 20
831.12664794921875
 42
0.26772299408912659
  0
VERTEX
  8
0
 10
1665.826416015625
 20
829.7203369140625
 42
0
  0
VERTEX
  8
0
 10
1693.628173828125
 20
830.69122314453125
 42
-0.17534300684928894
  0
VERTEX
  8
0
 10
1702.796142578125
 20
826.20477294921875
 42
0
  0
VERTEX
  8
0
 10
1704.0198974609375
 20
824.98394775390625
 42
-0.17131699621677399
  0
VERTEX
  8
0
 10
1708.339111328125
 20
815.9803466796875
 42
0
  0
VERTEX
  8
0
 10
1707.3681640625
 20
788.17864990234375
 42
0.26772299408912659
  0
VERTEX
  8
0
 10
1708.7744140625
 20
785.5311279296875
 42
0.083518996834754944
  0
SEQEND
  0
POLYLINE
  8
0
 10
0
 20
0
 39
0
 70
1
 66
1
  0
VERTEX
  8
0
 10
1732.1063232421875
 20
907.45843505859375
 42
-1
  0
VERTEX
  8
0
 10
1838.1063232421875
 20
907.45843505859375
 42
-1
  0
SEQEND
  0
POLYLINE
  8
0
 10
0
 20
0
 39
0
 70
1
 66
1
  0
VERTEX
  8
0
 10
1046.1494140625
 20
329.11184692382812
 42
0.26772299408912659
  0
VERTEX
  8
0
 10
1049.015869140625
 20
329.98953247070312
 42
0
  0
VERTEX
  8
0
 10
1067.9881591796875
 20
350.33480834960937
 42
-0.17534300684928894
  0
VERTEX
  8
0
 10
1077.643310546875
 20
353.64511108398437
 42
0
  0
VERTEX
  8
0
 10
1079.3719482421875
 20
353.647216796875
 42
-0.17131699621677399
  0
VERTEX
  8
0
 10
1088.79248046875
 20
350.33480834960937
 42
0
  0
VERTEX
  8
0
 10
1107.7647705078125
 20
329.98953247070312
 42
0.26772299408912659
  0
VERTEX
  8
0
 10
1110.6312255859375
 20
329.11184692382812
 42
0.083518996834754944
  0
VERTEX
  8
0
 10
1154.72216796875
 20
347.37490844726562
 42
0.26772299408912659
  0
VERTEX
  8
0
 10
1156.12841796875
 20
350.02239990234375
 42
0
  0
VERTEX
  8
0
 10
1155.1575927734375
 20
377.82415771484375
 42
-0.17534300684928894
  0
VERTEX
  8
0
 10
1159.64404296875
 20
386.99203491210937
 42
0
  0
VERTEX
  8
0
 10
1160.8648681640625
 20
388.21588134765625
 42
-0.17131699621677399
  0
VERTEX
  8
0
 10
1169.868408203125
 20
392.53500366210937
 42
0
  0
VERTEX
  8
0
 10
1197.670166015625
 20
391.56414794921875
 42
0.26772299408912659
  0
VERTEX
  8
0
 10
1200.317626953125
 20
392.97039794921875
 42
0.083518996834754944
  0
VERTEX
  8
0
 10
1218.580810546875
 20
437.06134033203125
 42
0.26772299408912659
  0
VERTEX
  8
0
 10
1217.703125
 20
439.92779541015625
 42
0
  0
VERTEX
  8
0
 10
1197.3577880859375
 20
458.90008544921875
 42
-0.17534300684928894
  0
VERTEX
  8
0
 10
1194.0474853515625
 20
468.55517578125
 42
0
  0
VERTEX
  8
0
 10
1194.04541015625
 20
470.2838134765625
 42
-0.17131699621677399
  0
VERTEX
  8
0
 10
1197.3577880859375
 20
479.70437622070312
 42
0
  0
VERTEX
  8
0
 10
1217.703125
 20
498.67669677734375
 42
0.26772299408912659
  0
VERTEX
  8
0
 10
1218.580810546875
 20
501.54312133789062
 42
0.083518996834754944
  0
VERTEX
  8
0
 10
1200.317626953125
 20
545.634033203125
 42
0.26772299408912659
  0
VERTEX
  8
0
 10
1197.670166015625
 20
547.04034423828125
 42
0
  0
VERTEX
  8
0
 10
1169.868408203125
 20
546.0694580078125
 42
-0.17534300684928894
  0
VERTEX
  8
0
 10
1160.7005615234375
 20
550.555908203125
 42
0
  0
VERTEX
  8
0
 10
1159.4766845703125
 20
551.7767333984375
 42
-0.17131699621677399
  0
VERTEX
  8
0
 10
1155.1575927734375
 20
560.78033447265625
 42
0
  0
VERTEX
  8
0
 10
1156.12841796875
 20
588.58209228515625
 42
0.26772299408912659
  0
VERTEX
  8
0
 10
1154.72216796875
 20
591.22955322265625
 42
0.083518996834754944
  0
VERTEX
  8
0
 10
1110.6312255859375
 20
609.49267578125
 42
0.26772299408912659
  0
VERTEX
  8
0
 10
1107.7647705078125
 20
608.614990234375
 42
0
  0
VERTEX
  8
0
 10
1088.79248046875
 20
588.2696533203125
 42
-0.17534300684928894
  0
VERTEX
  8
0
 10
1079.137451171875
 20
584.9593505859375
 42
0
  0
VERTEX
  8
0
 10
1077.4088134765625
 20
584.957275390625
 42
-0.17131699621677399
  0
VERTEX
  8
0
 10
1067.9881591796875
 20
588.2696533203125
 42
0
  0
VERTEX
  8
0
 10
1049.015869140625
 20
608.614990234375
 42
0.26772299408912659
  0
VERTEX
  8
0
 10
1046.1494140625
 20
609.49267578125
 42
0.083518996834754944
  0
VERTEX
  8
0
 10
1002.0585327148437
 20
591.22955322265625
 42
0.26772299408912659
  0
VERTEX
  8
0
 10
1000.6522827148437
 20
588.58209228515625
 42
0
  0
VERTEX
  8
0
 10
1001.6231079101562
 20
560.78033447265625
 42
-0.17534300684928894
  0
VERTEX
  8
0
 10
997.13665771484375
 20
551.6124267578125
 42
0
  0
VERTEX
  8
0
 10
995.91583251953125
 20
550.38861083984375
 42
-0.17131699621677399
  0
VERTEX
  8
0
 10
986.9122314453125
 20
546.0694580078125
 42
0
  0
VERTEX
  8
0
 10
959.11053466796875
 20
547.04034423828125
 42
0.26772299408912659
  0
VERTEX
  8
0
 10
956.4630126953125
 20
545.634033203125
 42
0.083518996834754944
  0
VERTEX
  8
0
 10
938.199951171875
 20
501.54312133789062
 42
0.26772299408912659
  0
VERTEX
  8
0
 10
939.07763671875
 20
498.67669677734375
 42
0
  0
VERTEX
  8
0
 10
959.4229736328125
 20
479.70437622070312
 42
-0.17534300684928894
  0
VERTEX
  8
0
 10
962.73321533203125
 20
470.04931640625
 42
0
  0
VERTEX
  8
0
 10
962.7353515625
 20
468.32064819335938
 42
-0.17131699621677399
  0
VERTEX
  8
0
 10
959.4229736328125
 20
458.90008544921875
 42
0
  0
VERTEX
  8
0
 10
939.07763671875
 20
439.92779541015625
 42
0.26772299408912659
  0
VERTEX
  8
0
 10
938.199951171875
 20
437.06134033203125
 42
0.083518996834754944
  0
VERTEX
  8
0
 10
956.4630126953125
 20
392.97039794921875
 42
0.26772299408912659
  0
VERTEX
  8
0
 10
959.11053466796875
 20
391.56414794921875
 42
0
  0
VERTEX
  8
0
 10
986.9122314453125
 20
392.53500366210937
 42
-0.17534300684928894
  0
VERTEX
  8
0
 10
996.08013916015625
 20
388.04855346679687
 42
0
  0
VERTEX
  8
0
 10
997.30401611328125
 20
386.82769775390625
 42
-0.17131699621677399
  0
VERTEX
  8
0
 10
1001.6231079101562
 20
377.82415771484375
 42
0
  0
VERTEX
  8
0
 10
1000.6522827148437
 20
350.02239990234375
 42
0.26772299408912659
  0
VERTEX
  8
0
 10
1002.0585327148437
 20
347.37490844726562
 42
0.083518996834754944
  0
SEQEND
  0
POLYLINE
  8
0
 10
0
 20
0
 39
0
 70
1
 66
1
  0
VERTEX
  8
0
 10
1025.390380859375
 20
469.30224609375
 42
-1
  0
VERTEX
  8
0
 10
1131.390380859375
 20
469.30224609375
 42
-1
  0
SEQEND
  0
POLYLINE
  8
0
 10
0
 20
0
 39
0
 70
1
 66
1
  0
VERTEX
  8
0
 10
381.37319946289062
 20
879.5513916015625
 42
0.26772299408912659
  0
VERTEX
  8
0
 10
384.23965454101562
 20
880.4290771484375
 42
0
  0
VERTEX
  8
0
 10
403.21194458007812
 20
900.77435302734375
 42
-0.17534300684928894
  0
VERTEX
  8
0
 10
412.86703491210937
 20
904.08465576171875
 42
0
  0
VERTEX
  8
0
 10
414.595703125
 20
904.0867919921875
 42
-0.17131699621677399
  0
VERTEX
  8
0
 10
424.0162353515625
 20
900.77435302734375
 42
0
  0
VERTEX
  8
0
 10
442.988525390625
 20
880.4290771484375
 42
0.26772299408912659
  0
VERTEX
  8
0
 10
445.85498046875
 20
879.5513916015625
 42
0.083518996834754944
  0
VERTEX
  8
0
 10
489.9459228515625
 20
897.814453125
 42
0.26772299408912659
  0
VERTEX
  8
0
 10
491.3521728515625
 20
900.46197509765625
 42
0
  0
VERTEX
  8
0
 10
490.38134765625
 20
928.263671875
 42
-0.17534300684928894
  0
VERTEX
  8
0
 10
494.8677978515625
 20
937.43157958984375
 42
0
  0
VERTEX
  8
0
 10
496.088623046875
 20
938.65545654296875
 42
-0.17131699621677399
  0
VERTEX
  8
0
 10
505.0921630859375
 20
942.97454833984375
 42
0
  0
VERTEX
  8
0
 10
532.8939208984375
 20
942.003662109375
 42
0.26772299408912659
  0
VERTEX
  8
0
 10
535.54144287109375
 20
943.40997314453125
 42
0.083518996834754944
  0
VERTEX
  8
0
 10
553.80450439453125
 20
987.50091552734375
 42
0.26772299408912659
  0
VERTEX
  8
0
 10
552.92681884765625
 20
990.3673095703125
 42
0
  0
VERTEX
  8
0
 10
532.58148193359375
 20
1009.3396606445312
 42
-0.17534300684928894
  0
VERTEX
  8
0
 10
529.271240234375
 20
1018.9946899414062
 42
0
  0
VERTEX
  8
0
 10
529.26910400390625
 20
1020.723388671875
 42
-0.17131699621677399
  0
VERTEX
  8
0
 10
532.58148193359375
 20
1030.1439208984375
 42
0
  0
VERTEX
  8
0
 10
552.92681884765625
 20
1049.1162109375
 42
0.26772299408912659
  0
VERTEX
  8
0
 10
553.80450439453125
 20
1051.982666015625
 42
0.083518996834754944
  0
VERTEX
  8
0
 10
535.54144287109375
 20
1096.0736083984375
 42
0.26772299408912659
  0
VERTEX
  8
0
 10
532.8939208984375
 20
1097.4798583984375
 42
0
  0
VERTEX
  8
0
 10
505.0921630859375
 20
1096.509033203125
 42
-0.17534300684928894
  0
VERTEX
  8
0
 10
495.92431640625
 20
1100.9954833984375
 42
0
  0
VERTEX
  8
0
 10
494.700439453125
 20
1102.21630859375
 42
-0.17131699621677399
  0
VERTEX
  8
0
 10
490.38134765625
 20
1111.2198486328125
 42
0
  0
VERTEX
  8
0
 10
491.3521728515625
 20
1139.0216064453125
 42
0.26772299408912659
  0
VERTEX
  8
0
 10
489.9459228515625
 20
1141.6690673828125
 42
0.083518996834754944
  0
VERTEX
  8
0
 10
445.85498046875
 20
1159.93212890625
 42
0.26772299408912659
  0
VERTEX
  8
0
 10
442.988525390625
 20
1159.054443359375
 42
0
  0
VERTEX
  8
0
 10
424.0162353515625
 20
1138.709228515625
 42
-0.17534300684928894
  0
VERTEX
  8
0
 10
414.36114501953125
 20
1135.39892578125
 42
0
  0
VERTEX
  8
0
 10
412.63250732421875
 20
1135.396728515625
 42
-0.17131699621677399
  0
VERTEX
  8
0
 10
403.21194458007812
 20
1138.709228515625
 42
0
  0
VERTEX
  8
0
 10
384.23965454101562
 20
1159.054443359375
 42
0.26772299408912659
  0
VERTEX
  8
0
 10
381.37319946289062
 20
1159.93212890625
 42
0.083518996834754944
  0
VERTEX
  8
0
 10
337.28228759765625
 20
1141.6690673828125
 42
0.26772299408912659
  0
VERTEX
  8
0
 10
335.87600708007812
 20
1139.0216064453125
 42
0
  0
VERTEX
  8
0
 10
336.84686279296875
 20
1111.2198486328125
 42
-0.17534300684928894
  0
VERTEX
  8
0
 10
332.36041259765625
 20
1102.052001953125
 42
0
  0
VERTEX
  8
0
 10
331.13955688476562
 20
1100.828125
 42
-0.17131699621677399
  0
VERTEX
  8
0
 10
322.135986328125
 20
1096.509033203125
 42
0
  0
VERTEX
  8
0
 10
294.33425903320312
 20
1097.4798583984375
 42
0.26772299408912659
  0
VERTEX
  8
0
 10
291.686767578125
 20
1096.0736083984375
 42
0.083518996834754944
  0
VERTEX
  8
0
 10
273.4237060546875
 20
1051.982666015625
 42
0.26772299408912659
  0
VERTEX
  8
0
 10
274.3013916015625
 20
1049.1162109375
 42
0
  0
VERTEX
  8
0
 10
294.64666748046875
 20
1030.1439208984375
 42
-0.17534300684928894
  0
VERTEX
  8
0
 10
297.95697021484375
 20
1020.4888305664062
 42
0
  0
VERTEX
  8
0
 10
297.95907592773437
 20
1018.7601928710937
 42
-0.17131699621677399
  0
VERTEX
  8
0
 10
294.64666748046875
 20
1009.3396606445312
 42
0
  0
VERTEX
  8
0
 10
274.3013916015625
 20
990.3673095703125
 42
0.26772299408912659
  0
VERTEX
  8
0
 10
273.4237060546875
 20
987.50091552734375
 42
0.083518996834754944
  0
VERTEX
  8
0
 10
291.686767578125
 20
943.40997314453125
 42
0.26772299408912659
  0
VERTEX
  8
0
 10
294.33425903320312
 20
942.003662109375
 42
0
  0
VERTEX
  8
0
 10
322.135986328125
 20
942.97454833984375
 42
-0.17534300684928894
  0
VERTEX
  8
0
 10
331.30389404296875
 20
938.48809814453125
 42
0
  0
VERTEX
  8
0
 10
332.52774047851562
 20
937.26727294921875
 42
-0.17131699621677399
  0
VERTEX
  8
0
 10
336.84686279296875
 20
928.263671875
 42
0
  0
VERTEX
  8
0
 10
335.87600708007812
 20
900.46197509765625
 42
0.26772299408912659
  0
VERTEX
  8
0
 10
337.28228759765625
 20
897.814453125
 42
0.083518996834754944
  0
SEQEND
  0
POLYLINE
  8
0
 10
0
 20
0
 39
0
 70
1
 66
1
  0
VERTEX
  8
0
 10
360.61407470703125
 20
1019.7417602539062
 42
-1
  0
VERTEX
  8
0
 10
466.61407470703125
 20
1019.7417602539062
 42
-1
  0
SEQEND
  0
POLYLINE
  8
0
 10
0
 20
0
 39
0
 70
1
 66
1
  0
VERTEX
  8
0
 10
1309.162841796875
 20
428.87725830078125
 42
0.30032598972320557
  0
VERTEX
  8
0
 10
1312.39111328125
 20
428.16552734375
 42
0
  0
VERTEX
  8
0
 10
1333.19775390625
 20
436.1524658203125
 42
-0.27633500099182129
  0
VERTEX
  8
0
 10
1348.54052734375
 20
434.78173828125
 42
0
  0
VERTEX
  8
0
 10
1351.776611328125
 20
432.43060302734375
 42
-0.27633500099182129
  0
VERTEX
  8
0
 10
1357.8214111328125
 20
418.26239013671875
 42
0
  0
VERTEX
  8
0
 10
1356.655029296875
 20
396.00592041015625
 42
0.30032598972320557
  0
VERTEX
  8
0
 10
1358.3294677734375
 20
393.1556396484375
 42
0.071102000772953033
  0
VERTEX
  8
0
 10
1406.058837890625
 20
377.64697265625
 42
0.3003309965133667
  0
VERTEX
  8
0
 10
1409.0888671875
 20
378.96868896484375
 42
0
  0
VERTEX
  8
0
 10
1421.2301025390625
 20
397.66464233398437
 42
-0.27633500099182129
  0
VERTEX
  8
0
 10
1434.4483642578125
 20
405.57391357421875
 42
0
  0
VERTEX
  8
0
 10
1438.4483642578125
 20
405.57391357421875
 42
-0.27633500099182129
  0
VERTEX
  8
0
 10
1451.6666259765625
 20
397.66464233398437
 42
0
  0
VERTEX
  8
0
 10
1463.807861328125
 20
378.96868896484375
 42
0.3003309965133667
  0
VERTEX
  8
0
 10
1466.837890625
 20
377.64697265625
 42
0.071102000772953033
  0
VERTEX
  8
0
 10
1514.5672607421875
 20
393.1556396484375
 42
0.30032598972320557
  0
VERTEX
  8
0
 10
1516.24169921875
 20
396.00592041015625
 42
0
  0
VERTEX
  8
0
 10
1515.0753173828125
 20
418.26239013671875
 42
-0.27633500099182129
  0
VERTEX
  8
0
 10
1521.1201171875
 20
432.43060302734375
 42
0
  0
VERTEX
  8
0
 10
1524.356201171875
 20
434.78173828125
 42
-0.27633500099182129
  0
VERTEX
  8
0
 10
1539.698974609375
 20
436.1524658203125
 42
0
  0
VERTEX
  8
0
 10
1560.505615234375
 20
428.16552734375
 42
0.30032598972320557
  0
VERTEX
  8
0
 10
1563.73388671875
 20
428.87725830078125
 42
0.071102000772953033
  0
VERTEX
  8
0
 10
1593.232666015625
 20
469.47808837890625
 42
0.3003309965133667
  0
VERTEX
  8
0
 10
1592.9119873046875
 20
472.768310546875
 42
0
  0
VERTEX
  8
0
 10
1578.8829345703125
 20
490.09271240234375
 42
-0.27633500099182129
  0
VERTEX
  8
0
 10
1575.4454345703125
 20
505.10809326171875
 42
0
  0
VERTEX
  8
0
 10
1576.6815185546875
 20
508.91232299804687
 42
-0.27633500099182129
  0
VERTEX
  8
0
 10
1588.288330078125
 20
519.03948974609375
 42
0
  0
VERTEX
  8
0
 10
1609.821044921875
 20
524.8092041015625
 42
0.3003309965133667
  0
VERTEX
  8
0
 10
1612.014404296875
 20
527.28253173828125
 42
0.035503998398780823
  0
VERTEX
  8
0
 10
1613.79833984375
 20
552.3739013671875
 42
0.035503998398780823
  0
VERTEX
  8
0
 10
1612.014404296875
 20
577.46527099609375
 42
0.3003309965133667
  0
VERTEX
  8
0
 10
1609.821044921875
 20
579.9385986328125
 42
0
  0
VERTEX
  8
0
 10
1588.288330078125
 20
585.70831298828125
 42
-0.27633500099182129
  0
VERTEX
  8
0
 10
1576.6815185546875
 20
595.83551025390625
 42
0
  0
VERTEX
  8
0
 10
1575.4454345703125
 20
599.63970947265625
 42
-0.27633500099182129
  0
VERTEX
  8
0
 10
1578.8829345703125
 20
614.65509033203125
 42
0
  0
VERTEX
  8
0
 10
1592.9119873046875
 20
631.9794921875
 42
0.3003309965133667
  0
VERTEX
  8
0
 10
1593.232666015625
 20
635.26971435546875
 42
0.071102000772953033
  0
VERTEX
  8
0
 10
1563.73388671875
 20
675.87054443359375
 42
0.30032598972320557
  0
VERTEX
  8
0
 10
1560.505615234375
 20
676.582275390625
 42
0
  0
VERTEX
  8
0
 10
1539.698974609375
 20
668.5953369140625
 42
-0.27633500099182129
  0
VERTEX
  8
0
 10
1524.356201171875
 20
669.966064453125
 42
0
  0
VERTEX
  8
0
 10
1521.1201171875
 20
672.31719970703125
 42
-0.27633500099182129
  0
VERTEX
  8
0
 10
1515.0753173828125
 20
686.48541259765625
 42
0
  0
VERTEX
  8
0
 10
1516.24169921875
 20
708.74188232421875
 42
0.30032598972320557
  0
VERTEX
  8
0
 10
1514.5672607421875
 20
711.5921630859375
 42
0.071102000772953033
  0
VERTEX
  8
0
 10
1466.837890625
 20
727.100830078125
 42
0.3003309965133667
  0
VERTEX
  8
0
 10
1463.807861328125
 20
725.77911376953125
 42
0
  0
VERTEX
  8
0
 10
1451.6666259765625
 20
707.0831298828125
 42
-0.27633500099182129
  0
VERTEX
  8
0
 10
1438.4483642578125
 20
699.17388916015625
 42
0
  0
VERTEX
  8
0
 10
1434.4483642578125
 20
699.17388916015625
 42
-0.27633500099182129
  0
VERTEX
  8
0
 10
1421.2301025390625
 20
707.0831298828125
 42
0
  0
VERTEX
  8
0
 10
1409.0888671875
 20
725.77911376953125
 42
0.3003309965133667
  0
VERTEX
  8
0
 10
1406.058837890625
 20
727.100830078125
 42
0.071102000772953033
  0
VERTEX
  8
0
 10
1358.3294677734375
 20
711.5921630859375
 42
0.30032598972320557
  0
VERTEX
  8
0
 10
1356.655029296875
 20
708.74188232421875
 42
0
  0
VERTEX
  8
0
 10
1357.8214111328125
 20
686.48541259765625
 42
-0.27633500099182129
  0
VERTEX
  8
0
 10
1351.776611328125
 20
672.31719970703125
 42
0
  0
VERTEX
  8
0
 10
1348.54052734375
 20
669.966064453125
 42
-0.27633500099182129
  0
VERTEX
  8
0
 10
1333.19775390625
 20
668.5953369140625
 42
0
  0
VERTEX
  8
0
 10
1312.39111328125
 20
676.582275390625
 42
0.30032598972320557
  0
VERTEX
  8
0
 10
1309.162841796875
 20
675.87054443359375
 42
0.071102000772953033
  0
VERTEX
  8
0
 10
1279.6640625
 20
635.26971435546875
 42
0.3003309965133667
  0
VERTEX
  8
0
 10
1279.9847412109375
 20
631.9794921875
 42
0
  0
VERTEX
  8
0
 10
1294.0137939453125
 20
614.65509033203125
 42
-0.27633500099182129
  0
VERTEX
  8
0
 10
1297.4512939453125
 20
599.63970947265625
 42
0
  0
VERTEX
  8
0
 10
1296.2152099609375
 20
595.83551025390625
 42
-0.27633500099182129
  0
VERTEX
  8
0
 10
1284.6083984375
 20
585.70831298828125
 42
0
  0
VERTEX
  8
0
 10
1263.07568359375
 20
579.9385986328125
 42
0.3003309965133667
  0
VERTEX
  8
0
 10
1260.88232421875
 20
577.46527099609375
 42
0.035503998398780823
  0
VERTEX
  8
0
 10
1259.098388671875
 20
552.3739013671875
 42
0.035503998398780823
  0
VERTEX
  8
0
 10
1260.88232421875
 20
527.28253173828125
 42
0.3003309965133667
  0
VERTEX
  8
0
 10
1263.07568359375
 20
524.8092041015625
 42
0
  0
VERTEX
  8
0
 10
1284.6083984375
 20
519.03948974609375
 42
-0.27633500099182129
  0
VERTEX
  8
0
 10
1296.2152099609375
 20
508.91232299804687
 42
0
  0
VERTEX
  8
0
 10
1297.4512939453125
 20
505.10809326171875
 42
-0.27633500099182129
  0
VERTEX
  8
0
 10
1294.0137939453125
 20
490.09271240234375
 42
0
  0
VERTEX
  8
0
 10
1279.9847412109375
 20
472.768310546875
 42
0.3003309965133667
  0
VERTEX
  8
0
 10
1279.6640625
 20
469.47808837890625
 42
0.071102000772953033
  0
SEQEND
  0
POLYLINE
  8
0
 10
0
 20
0
 39
0
 70
1
 66
1
  0
VERTEX
  8
0
 10
1381.4483642578125
 20
552.3739013671875
 42
-1
  0
VERTEX
  8
0
 10
1491.4483642578125
 20
552.3739013671875
 42
-1
  0
SEQEND
  0
POLYLINE
  8
0
 10
0
 20
0
 39
0
 70
1
 66
1
  0
VERTEX
  8
0
 10
706.66021728515625
 20
1007.7996215820312
 42
0.30032598972320557
  0
VERTEX
  8
0
 10
709.88848876953125
 20
1007.087890625
 42
0
  0
VERTEX
  8
0
 10
730.6951904296875
 20
1015.0748291015625
 42
-0.27633500099182129
  0
VERTEX
  8
0
 10
746.03790283203125
 20
1013.7041015625
 42
0
  0
VERTEX
  8
0
 10
749.27392578125
 20
1011.3529663085937
 42
-0.27633500099182129
  0
VERTEX
  8
0
 10
755.31878662109375
 20
997.18475341796875
 42
0
  0
VERTEX
  8
0
 10
754.15234375
 20
974.92828369140625
 42
0.30032598972320557
  0
VERTEX
  8
0
 10
755.82684326171875
 20
972.0780029296875
 42
0.071102000772953033
  0
VERTEX
  8
0
 10
803.55615234375
 20
956.5693359375
 42
0.3003309965133667
  0
VERTEX
  8
0
 10
806.58624267578125
 20
957.89105224609375
 42
0
  0
VERTEX
  8
0
 10
818.7275390625
 20
976.5870361328125
 42
-0.27633500099182129
  0
VERTEX
  8
0
 10
831.94573974609375
 20
984.49627685546875
 42
0
  0
VERTEX
  8
0
 10
835.94573974609375
 20
984.49627685546875
 42
-0.27633500099182129
  0
VERTEX
  8
0
 10
849.1639404296875
 20
976.5870361328125
 42
0
  0
VERTEX
  8
0
 10
861.30523681640625
 20
957.89105224609375
 42
0.3003309965133667
  0
VERTEX
  8
0
 10
864.3353271484375
 20
956.5693359375
 42
0.071102000772953033
  0
VERTEX
  8
0
 10
912.06463623046875
 20
972.0780029296875
 42
0.30032598972320557
  0
VERTEX
  8
0
 10
913.7391357421875
 20
974.92828369140625
 42
0
  0
VERTEX
  8
0
 10
912.57269287109375
 20
997.18475341796875
 42
-0.27633500099182129
  0
VERTEX
  8
0
 10
918.6175537109375
 20
1011.3529663085937
 42
0
  0
VERTEX
  8
0
 10
921.85357666015625
 20
1013.7041015625
 42
-0.27633500099182129
  0
VERTEX
  8
0
 10
937.1962890625
 20
1015.0748291015625
 42
0
  0
VERTEX
  8
0
 10
958.00299072265625
 20
1007.087890625
 42
0.30032598972320557
  0
VERTEX
  8
0
 10
961.23126220703125
 20
1007.7996215820312
 42
0.071102000772953033
  0
VERTEX
  8
0
 10
990.72998046875
 20
1048.4005126953125
 42
0.3003309965133667
  0
VERTEX
  8
0
 10
990.4093017578125
 20
1051.690673828125
 42
0
  0
VERTEX
  8
0
 10
976.38031005859375
 20
1069.01513671875
 42
-0.27633500099182129
  0
VERTEX
  8
0
 10
972.94281005859375
 20
1084.030517578125
 42
0
  0
VERTEX
  8
0
 10
974.1788330078125
 20
1087.834716796875
 42
-0.27633500099182129
  0
VERTEX
  8
0
 10
985.78564453125
 20
1097.9619140625
 42
0
  0
VERTEX
  8
0
 10
1007.3184814453125
 20
1103.7315673828125
 42
0.3003309965133667
  0
VERTEX
  8
0
 10
1009.5118408203125
 20
1106.204833984375
 42
0.035503998398780823
  0
VERTEX
  8
0
 10
1011.2957763671875
 20
1131.2962646484375
 42
0.035503998398780823
  0
VERTEX
  8
0
 10
1009.5118408203125
 20
1156.3876953125
 42
0.3003309965133667
  0
VERTEX
  8
0
 10
1007.3184814453125
 20
1158.8609619140625
 42
0
  0
VERTEX
  8
0
 10
985.78564453125
 20
1164.630615234375
 42
-0.27633500099182129
  0
VERTEX
  8
0
 10
974.1788330078125
 20
1174.7578125
 42
0
  0
VERTEX
  8
0
 10
972.94281005859375
 20
1178.56201171875
 42
-0.27633500099182129
  0
VERTEX
  8
0
 10
976.38031005859375
 20
1193.577392578125
 42
0
  0
VERTEX
  8
0
 10
990.4093017578125
 20
1210.90185546875
 42
0.3003309965133667
  0
VERTEX
  8
0
 10
990.72998046875
 20
1214.1920166015625
 42
0.071102000772953033
  0
VERTEX
  8
0
 10
961.23126220703125
 20
1254.79296875
 42
0.30032598972320557
  0
VERTEX
  8
0
 10
958.00299072265625
 20
1255.504638671875
 42
0
  0
VERTEX
  8
0
 10
937.1962890625
 20
1247.5177001953125
 42
-0.27633500099182129
  0
VERTEX
  8
0
 10
921.85357666015625
 20
1248.888427734375
 42
0
  0
VERTEX
  8
0
 10
918.6175537109375
 20
1251.2396240234375
 42
-0.27633500099182129
  0
VERTEX
  8
0
 10
912.57269287109375
 20
1265.40771484375
 42
0
  0
VERTEX
  8
0
 10
913.7391357421875
 20
1287.6641845703125
 42
0.30032598972320557
  0
VERTEX
  8
0
 10
912.06463623046875
 20
1290.5145263671875
 42
0.071102000772953033
  0
VERTEX
  8
0
 10
864.3353271484375
 20
1306.023193359375
 42
0.3003309965133667
  0
VERTEX
  8
0
 10
861.30523681640625
 20
1304.701416015625
 42
0
  0
VERTEX
  8
0
 10
849.1639404296875
 20
1286.0054931640625
 42
-0.27633500099182129
  0
VERTEX
  8
0
 10
835.94573974609375
 20
1278.0963134765625
 42
0
  0
VERTEX
  8
0
 10
831.94573974609375
 20
1278.0963134765625
 42
-0.27633500099182129
  0
VERTEX
  8
0
 10
818.7275390625
 20
1286.0054931640625
 42
0
  0
VERTEX
  8
0
 10
806.58624267578125
 20
1304.701416015625
 42
0.3003309965133667
  0
VERTEX
  8
0
 10
803.55615234375
 20
1306.023193359375
 42
0.071102000772953033
  0
VERTEX
  8
0
 10
755.82684326171875
 20
1290.5145263671875
 42
0.30032598972320557
  0
VERTEX
  8
0
 10
754.15234375
 20
1287.6641845703125
 42
0
  0
VERTEX
  8
0
 10
755.31878662109375
 20
1265.40771484375
 42
-0.27633500099182129
  0
VERTEX
  8
0
 10
749.27392578125
 20
1251.2396240234375
 42
0
  0
VERTEX
  8
0
 10
746.03790283203125
 20
1248.888427734375
 42
-0.27633500099182129
  0
VERTEX
  8
0
 10
730.6951904296875
 20
1247.5177001953125
 42
0
  0
VERTEX
  8
0
 10
709.88848876953125
 20
1255.504638671875
 42
0.30032598972320557
  0
VERTEX
  8
0
 10
706.66021728515625
 20
1254.79296875
 42
0.071102000772953033
  0
VERTEX
  8
0
 10
677.1614990234375
 20
1214.1920166015625
 42
0.3003309965133667
  0
VERTEX
  8
0
 10
677.482177734375
 20
1210.90185546875
 42
0
  0
VERTEX
  8
0
 10
691.51116943359375
 20
1193.577392578125
 42
-0.27633500099182129
  0
VERTEX
  8
0
 10
694.94866943359375
 20
1178.56201171875
 42
0
  0
VERTEX
  8
0
 10
693.712646484375
 20
1174.7578125
 42
-0.27633500099182129
  0
VERTEX
  8
0
 10
682.1058349609375
 20
1164.630615234375
 42
0
  0
VERTEX
  8
0
 10
660.572998046875
 20
1158.8609619140625
 42
0.3003309965133667
  0
VERTEX
  8
0
 10
658.379638671875
 20
1156.3876953125
 42
0.035503998398780823
  0
VERTEX
  8
0
 10
656.595703125
 20
1131.2962646484375
 42
0.035503998398780823
  0
VERTEX
  8
0
 10
658.379638671875
 20
1106.204833984375
 42
0.3003309965133667
  0
VERTEX
  8
0
 10
660.572998046875
 20
1103.7315673828125
 42
0
  0
VERTEX
  8
0
 10
682.1058349609375
 20
1097.9619140625
 42
-0.27633500099182129
  0
VERTEX
  8
0
 10
693.712646484375
 20
1087.834716796875
 42
0
  0
VERTEX
  8
0
 10
694.94866943359375
 20
1084.030517578125
 42
-0.27633500099182129
  0
VERTEX
  8
0
 10
691.51116943359375
 20
1069.01513671875
 42
0
  0
VERTEX
  8
0
 10
677.482177734375
 20
1051.690673828125
 42
0.3003309965133667
  0
VERTEX
  8
0
 10
677.1614990234375
 20
1048.4005126953125
 42
0.071102000772953033
  0
SEQEND
  0
POLYLINE
  8
0
 10
0
 20
0
 39
0
 70
1
 66
1
  0
VERTEX
  8
0
 10
778.94573974609375
 20
1131.2962646484375
 42
-1
  0
VERTEX
  8
0
 10
888.94573974609375
 20
1131.2962646484375
 42
-1
  0
SEQEND
  0
POLYLINE
  8
0
 10
0
 20
0
 39
0
 70
1
 66
1
  0
VERTEX
  8
0
 10
1081.009765625
 20
1066.9075927734375
 42
0.30032598972320557
  0
VERTEX
  8
0
 10
1084.238037109375
 20
1066.1959228515625
 42
0
  0
VERTEX
  8
0
 10
1105.044677734375
 20
1074.182861328125
 42
-0.27633500099182129
  0
VERTEX
  8
0
 10
1120.387451171875
 20
1072.8121337890625
 42
0
  0
VERTEX
  8
0
 10
1123.62353515625
 20
1070.4609375
 42
-0.27633500099182129
  0
VERTEX
  8
0
 10
1129.6683349609375
 20
1056.292724609375
 42
0
  0
VERTEX
  8
0
 10
1128.501953125
 20
1034.036376953125
 42
0.30032598972320557
  0
VERTEX
  8
0
 10
1130.1763916015625
 20
1031.18603515625
 42
0.071102000772953033
  0
VERTEX
  8
0
 10
1177.90576171875
 20
1015.6773681640625
 42
0.3003309965133667
  0
VERTEX
  8
0
 10
1180.935791015625
 20
1016.9990844726562
 42
0
  0
VERTEX
  8
0
 10
1193.0770263671875
 20
1035.695068359375
 42
-0.27633500099182129
  0
VERTEX
  8
0
 10
1206.2952880859375
 20
1043.604248046875
 42
0
  0
VERTEX
  8
0
 10
1210.2952880859375
 20
1043.604248046875
 42
-0.27633500099182129
  0
VERTEX
  8
0
 10
1223.5135498046875
 20
1035.695068359375
 42
0
  0
VERTEX
  8
0
 10
1235.65478515625
 20
1016.9990844726562
 42
0.3003309965133667
  0
VERTEX
  8
0
 10
1238.684814453125
 20
1015.6773681640625
 42
0.071102000772953033
  0
VERTEX
  8
0
 10
1286.4141845703125
 20
1031.18603515625
 42
0.30032598972320557
  0
VERTEX
  8
0
 10
1288.088623046875
 20
1034.036376953125
 42
0
  0
VERTEX
  8
0
 10
1286.9222412109375
 20
1056.292724609375
 42
-0.27633500099182129
  0
VERTEX
  8
0
 10
1292.967041015625
 20
1070.4609375
 42
0
  0
VERTEX
  8
0
 10
1296.203125
 20
1072.8121337890625
 42
-0.27633500099182129
  0
VERTEX
  8
0
 10
1311.5458984375
 20
1074.182861328125
 42
0
  0
VERTEX
  8
0
 10
1332.3525390625
 20
1066.1959228515625
 42
0.30032598972320557
  0
VERTEX
  8
0
 10
1335.580810546875
 20
1066.9075927734375
 42
0.071102000772953033
  0
VERTEX
  8
0
 10
1365.07958984375
 20
1107.508544921875
 42
0.3003309965133667
  0
VERTEX
  8
0
 10
1364.7589111328125
 20
1110.7987060546875
 42
0
  0
VERTEX
  8
0
 10
1350.7298583984375
 20
1128.1231689453125
 42
-0.27633500099182129
  0
VERTEX
  8
0
 10
1347.2923583984375
 20
1143.138427734375
 42
0
  0
VERTEX
  8
0
 10
1348.5284423828125
 20
1146.9427490234375
 42
-0.27633500099182129
  0
VERTEX
  8
0
 10
1360.13525390625
 20
1157.0699462890625
 42
0
  0
VERTEX
  8
0
 10
1381.66796875
 20
1162.839599609375
 42
0.3003309965133667
  0
VERTEX
  8
0
 10
1383.861328125
 20
1165.3128662109375
 42
0.035503998398780823
  0
VERTEX
  8
0
 10
1385.645263671875
 20
1190.404296875
 42
0.035503998398780823
  0
VERTEX
  8
0
 10
1383.861328125
 20
1215.4957275390625
 42
0.3003309965133667
  0
VERTEX
  8
0
 10
1381.66796875
 20
1217.968994140625
 42
0
  0
VERTEX
  8
0
 10
1360.13525390625
 20
1223.7386474609375
 42
-0.27633500099182129
  0
VERTEX
  8
0
 10
1348.5284423828125
 20
1233.8658447265625
 42
0
  0
VERTEX
  8
0
 10
1347.2923583984375
 20
1237.670166015625
 42
-0.27633500099182129
  0
VERTEX
  8
0
 10
1350.7298583984375
 20
1252.6854248046875
 42
0
  0
VERTEX
  8
0
 10
1364.7589111328125
 20
1270.0098876953125
 42
0.3003309965133667
  0
VERTEX
  8
0
 10
1365.07958984375
 20
1273.300048828125
 42
0.071102000772953033
  0
VERTEX
  8
0
 10
1335.580810546875
 20
1313.9010009765625
 42
0.30032598972320557
  0
VERTEX
  8
0
 10
1332.3525390625
 20
1314.6126708984375
 42
0
  0
VERTEX
  8
0
 10
1311.5458984375
 20
1306.625732421875
 42
-0.27633500099182129
  0
VERTEX
  8
0
 10
1296.203125
 20
1307.9964599609375
 42
0
  0
VERTEX
  8
0
 10
1292.967041015625
 20
1310.34765625
 42
-0.27633500099182129
  0
VERTEX
  8
0
 10
1286.9222412109375
 20
1324.515869140625
 42
0
  0
VERTEX
  8
0
 10
1288.088623046875
 20
1346.772216796875
 42
0.30032598972320557
  0
VERTEX
  8
0
 10
1286.4141845703125
 20
1349.62255859375
 42
0.071102000772953033
  0
VERTEX
  8
0
 10
1238.684814453125
 20
1365.1312255859375
 42
0.3003309965133667
  0
VERTEX
  8
0
 10
1235.65478515625
 20
1363.8095703125
 42
0
  0
VERTEX
  8
0
 10
1223.5135498046875
 20
1345.113525390625
 42
-0.27633500099182129
  0
VERTEX
  8
0
 10
1210.2952880859375
 20
1337.204345703125
 42
0
  0
VERTEX
  8
0
 10
1206.2952880859375
 20
1337.204345703125
 42
-0.27633500099182129
  0
VERTEX
  8
0
 10
1193.0770263671875
 20
1345.113525390625
 42
0
  0
VERTEX
  8
0
 10
1180.935791015625
 20
1363.8095703125
 42
0.3003309965133667
  0
VERTEX
  8
0
 10
1177.90576171875
 20
1365.1312255859375
 42
0.071102000772953033
  0
VERTEX
  8
0
 10
1130.1763916015625
 20
1349.62255859375
 42
0.30032598972320557
  0
VERTEX
  8
0
 10
1128.501953125
 20
1346.772216796875
 42
0
  0
VERTEX
  8
0
 10
1129.6683349609375
 20
1324.515869140625
 42
-0.27633500099182129
  0
VERTEX
  8
0
 10
1123.62353515625
 20
1310.34765625
 42
0
  0
VERTEX
  8
0
 10
1120.387451171875
 20
1307.9964599609375
 42
-0.27633500099182129
  0
VERTEX
  8
0
 10
1105.044677734375
 20
1306.625732421875
 42
0
  0
VERTEX
  8
0
 10
1084.238037109375
 20
1314.6126708984375
 42
0.30032598972320557
  0
VERTEX
  8
0
 10
1081.009765625
 20
1313.9010009765625
 42
0.071102000772953033
  0
VERTEX
  8
0
 10
1051.510986328125
 20
1273.300048828125
 42
0.3003309965133667
  0
VERTEX
  8
0
 10
1051.8316650390625
 20
1270.0098876953125
 42
0
  0
VERTEX
  8
0
 10
1065.8607177734375
 20
1252.6854248046875
 42
-0.27633500099182129
  0
VERTEX
  8
0
 10
1069.2982177734375
 20
1237.670166015625
 42
0
  0
VERTEX
  8
0
 10
1068.0621337890625
 20
1233.8658447265625
 42
-0.27633500099182129
  0
VERTEX
  8
0
 10
1056.455322265625
 20
1223.7386474609375
 42
0
  0
VERTEX
  8
0
 10
1034.922607421875
 20
1217.968994140625
 42
0.3003309965133667
  0
VERTEX
  8
0
 10
1032.729248046875
 20
1215.4957275390625
 42
0.035503998398780823
  0
VERTEX
  8
0
 10
1030.9453125
 20
1190.404296875
 42
0.035503998398780823
  0
VERTEX
  8
0
 10
1032.729248046875
 20
1165.3128662109375
 42
0.3003309965133667
  0
VERTEX
  8
0
 10
1034.922607421875
 20
1162.839599609375
 42
0
  0
VERTEX
  8
0
 10
1056.455322265625
 20
1157.0699462890625
 42
-0.27633500099182129
  0
VERTEX
  8
0
 10
1068.0621337890625
 20
1146.9427490234375
 42
0
  0
VERTEX
  8
0
 10
1069.2982177734375
 20
1143.138427734375
 42
-0.27633500099182129
  0
VERTEX
  8
0
 10
1065.8607177734375
 20
1128.1231689453125
 42
0
  0
VERTEX
  8
0
 10
1051.8316650390625
 20
1110.7987060546875
 42
0.3003309965133667
  0
VERTEX
  8
0
 10
1051.510986328125
 20
1107.508544921875
 42
0.071102000772953033
  0
SEQEND
  0
POLYLINE
  8
0
 10
0
 20
0
 39
0
 70
1
 66
1
  0
VERTEX
  8
0
 10
1153.2952880859375
 20
1190.404296875
 42
-1
  0
VERTEX
  8
0
 10
1263.2952880859375
 20
1190.404296875
 42
-1
  0
SEQEND
  0
POLYLINE
  8
0
 10
0
 20
0
 39
0
 70
1
 66
1
  0
VERTEX
  8
0
 10
1316.002197265625
 20
797.41314697265625
 42
0.30032598972320557
  0
VERTEX
  8
0
 10
1319.23046875
 20
796.701416015625
 42
0
  0
VERTEX
  8
0
 10
1340.037109375
 20
804.6883544921875
 42
-0.27633500099182129
  0
VERTEX
  8
0
 10
1355.3798828125
 20
803.317626953125
 42
0
  0
VERTEX
  8
0
 10
1358.615966796875
 20
800.96649169921875
 42
-0.27633500099182129
  0
VERTEX
  8
0
 10
1364.6607666015625
 20
786.79827880859375
 42
0
  0
VERTEX
  8
0
 10
1363.494384765625
 20
764.54180908203125
 42
0.30032598972320557
  0
VERTEX
  8
0
 10
1365.1688232421875
 20
761.6915283203125
 42
0.071102000772953033
  0
VERTEX
  8
0
 10
1412.898193359375
 20
746.182861328125
 42
0.3003309965133667
  0
VERTEX
  8
0
 10
1415.92822265625
 20
747.50457763671875
 42
0
  0
VERTEX
  8
0
 10
1428.0694580078125
 20
766.2005615234375
 42
-0.27633500099182129
  0
VERTEX
  8
0
 10
1441.2877197265625
 20
774.10980224609375
 42
0
  0
VERTEX
  8
0
 10
1445.2877197265625
 20
774.10980224609375
 42
-0.27633500099182129
  0
VERTEX
  8
0
 10
1458.5059814453125
 20
766.2005615234375
 42
0
  0
VERTEX
  8
0
 10
1470.647216796875
 20
747.50457763671875
 42
0.3003309965133667
  0
VERTEX
  8
0
 10
1473.67724609375
 20
746.182861328125
 42
0.071102000772953033
  0
VERTEX
  8
0
 10
1521.4066162109375
 20
761.6915283203125
 42
0.30032598972320557
  0
VERTEX
  8
0
 10
1523.0810546875
 20
764.54180908203125
 42
0
  0
VERTEX
  8
0
 10
1521.9146728515625
 20
786.79827880859375
 42
-0.27633500099182129
  0
VERTEX
  8
0
 10
1527.95947265625
 20
800.96649169921875
 42
0
  0
VERTEX
  8
0
 10
1531.195556640625
 20
803.317626953125
 42
-0.27633500099182129
  0
VERTEX
  8
0
 10
1546.538330078125
 20
804.6883544921875
 42
0
  0
VERTEX
  8
0
 10
1567.344970703125
 20
796.701416015625
 42
0.30032598972320557
  0
VERTEX
  8
0
 10
1570.5732421875
 20
797.41314697265625
 42
0.071102000772953033
  0
VERTEX
  8
0
 10
1600.072021484375
 20
838.01397705078125
 42
0.3003309965133667
  0
VERTEX
  8
0
 10
1599.7513427734375
 20
841.30419921875
 42
0
  0
VERTEX
  8
0
 10
1585.7222900390625
 20
858.62860107421875
 42
-0.27633500099182129
  0
VERTEX
  8
0
 10
1582.2847900390625
 20
873.64398193359375
 42
0
  0
VERTEX
  8
0
 10
1583.5208740234375
 20
877.44818115234375
 42
-0.27633500099182129
  0
VERTEX
  8
0
 10
1595.127685546875
 20
887.57537841796875
 42
0
  0
VERTEX
  8
0
 10
1616.660400390625
 20
893.3450927734375
 42
0.3003309965133667
  0
VERTEX
  8
0
 10
1618.853759765625
 20
895.81842041015625
 42
0.035503998398780823
  0
VERTEX
  8
0
 10
1620.6376953125
 20
920.9097900390625
 42
0.035503998398780823
  0
VERTEX
  8
0
 10
1618.853759765625
 20
946.00115966796875
 42
0.3003309965133667
  0
VERTEX
  8
0
 10
1616.660400390625
 20
948.4744873046875
 42
0
  0
VERTEX
  8
0
 10
1595.127685546875
 20
954.24420166015625
 42
-0.27633500099182129
  0
VERTEX
  8
0
 10
1583.5208740234375
 20
964.37139892578125
 42
0
  0
VERTEX
  8
0
 10
1582.2847900390625
 20
968.17559814453125
 42
-0.27633500099182129
  0
VERTEX
  8
0
 10
1585.7222900390625
 20
983.19097900390625
 42
0
  0
VERTEX
  8
0
 10
1599.7513427734375
 20
1000.515380859375
 42
0.3003309965133667
  0
VERTEX
  8
0
 10
1600.072021484375
 20
1003.8056030273437
 42
0.071102000772953033
  0
VERTEX
  8
0
 10
1570.5732421875
 20
1044.406494140625
 42
0.30032598972320557
  0
VERTEX
  8
0
 10
1567.344970703125
 20
1045.1181640625
 42
0
  0
VERTEX
  8
0
 10
1546.538330078125
 20
1037.1312255859375
 42
-0.27633500099182129
  0
VERTEX
  8
0
 10
1531.195556640625
 20
1038.501953125
 42
0
  0
VERTEX
  8
0
 10
1527.95947265625
 20
1040.8531494140625
 42
-0.27633500099182129
  0
VERTEX
  8
0
 10
1521.9146728515625
 20
1055.021240234375
 42
0
  0
VERTEX
  8
0
 10
1523.0810546875
 20
1077.2777099609375
 42
0.30032598972320557
  0
VERTEX
  8
0
 10
1521.4066162109375
 20
1080.1280517578125
 42
0.071102000772953033
  0
VERTEX
  8
0
 10
1473.67724609375
 20
1095.63671875
 42
0.3003309965133667
  0
VERTEX
  8
0
 10
1470.647216796875
 20
1094.31494140625
 42
0
  0
VERTEX
  8
0
 10
1458.5059814453125
 20
1075.6190185546875
 42
-0.27633500099182129
  0
VERTEX
  8
0
 10
1445.2877197265625
 20
1067.7098388671875
 42
0
  0
VERTEX
  8
0
 10
1441.2877197265625
 20
1067.7098388671875
 42
-0.27633500099182129
  0
VERTEX
  8
0
 10
1428.0694580078125
 20
1075.6190185546875
 42
0
  0
VERTEX
  8
0
 10
1415.92822265625
 20
1094.31494140625
 42
0.3003309965133667
  0
VERTEX
  8
0
 10
1412.898193359375
 20
1095.63671875
 42
0.071102000772953033
  0
VERTEX
  8
0
 10
1365.1688232421875
 20
1080.1280517578125
 42
0.30032598972320557
  0
VERTEX
  8
0
 10
1363.494384765625
 20
1077.2777099609375
 42
0
  0
VERTEX
  8
0
 10
1364.6607666015625
 20
1055.021240234375
 42
-0.27633500099182129
  0
VERTEX
  8
0
 10
1358.615966796875
 20
1040.8531494140625
 42
0
  0
VERTEX
  8
0
 10
1355.3798828125
 20
1038.501953125
 42
-0.27633500099182129
  0
VERTEX
  8
0
 10
1340.037109375
 20
1037.1312255859375
 42
0
  0
VERTEX
  8
0
 10
1319.23046875
 20
1045.1181640625
 42
0.30032598972320557
  0
VERTEX
  8
0
 10
1316.002197265625
 20
1044.406494140625
 42
0.071102000772953033
  0
VERTEX
  8
0
 10
1286.50341796875
 20
1003.8056030273437
 42
0.3003309965133667
  0
VERTEX
  8
0
 10
1286.8240966796875
 20
1000.515380859375
 42
0
  0
VERTEX
  8
0
 10
1300.8531494140625
 20
983.19097900390625
 42
-0.27633500099182129
  0
VERTEX
  8
0
 10
1304.2906494140625
 20
968.17559814453125
 42
0
  0
VERTEX
  8
0
 10
1303.0545654296875
 20
964.37139892578125
 42
-0.27633500099182129
  0
VERTEX
  8
0
 10
1291.44775390625
 20
954.24420166015625
 42
0
  0
VERTEX
  8
0
 10
1269.9150390625
 20
948.4744873046875
 42
0.3003309965133667
  0
VERTEX
  8
0
 10
1267.7216796875
 20
946.00115966796875
 42
0.035503998398780823
  0
VERTEX
  8
0
 10
1265.937744140625
 20
920.9097900390625
 42
0.035503998398780823
  0
VERTEX
  8
0
 10
1267.7216796875
 20
895.81842041015625
 42
0.3003309965133667
  0
VERTEX
  8
0
 10
1269.9150390625
 20
893.3450927734375
 42
0
  0
VERTEX
  8
0
 10
1291.44775390625
 20
887.57537841796875
 42
-0.27633500099182129
  0
VERTEX
  8
0
 10
1303.0545654296875
 20
877.44818115234375
 42
0
  0
VERTEX
  8
0
 10
1304.2906494140625
 20
873.64398193359375
 42
-0.27633500099182129
  0
VERTEX
  8
0
 10
1300.8531494140625
 20
858.62860107421875
 42
0
  0
VERTEX
  8
0
 10
1286.8240966796875
 20
841.30419921875
 42
0.3003309965133667
  0
VERTEX
  8
0
 10
1286.50341796875
 20
838.01397705078125
 42
0.071102000772953033
  0
SEQEND
  0
POLYLINE
  8
0
 10
0
 20
0
 39
0
 70
1
 66
1
  0
VERTEX
  8
0
 10
1388.2877197265625
 20
920.9097900390625
 42
-1
  0
VERTEX
  8
0
 10
1498.2877197265625
 20
920.9097900390625
 42
-1
  0
SEQEND
  0
POLYLINE
  8
0
 10
0
 20
0
 39
0
 70
1
 66
1
  0
VERTEX
  8
0
 10
935.2354736328125
 20
694.8402099609375
 42
0.30032598972320557
  0
VERTEX
  8
0
 10
938.4637451171875
 20
694.12847900390625
 42
0
  0
VERTEX
  8
0
 10
959.27044677734375
 20
702.11541748046875
 42
-0.27633500099182129
  0
VERTEX
  8
0
 10
974.6131591796875
 20
700.74468994140625
 42
0
  0
VERTEX
  8
0
 10
977.8492431640625
 20
698.3935546875
 42
-0.27633500099182129
  0
VERTEX
  8
0
 10
983.89404296875
 20
684.225341796875
 42
0
  0
VERTEX
  8
0
 10
982.72760009765625
 20
661.9688720703125
 42
0.30032598972320557
  0
VERTEX
  8
0
 10
984.402099609375
 20
659.11859130859375
 42
0.071102000772953033
  0
VERTEX
  8
0
 10
1032.1314697265625
 20
643.60992431640625
 42
0.3003309965133667
  0
VERTEX
  8
0
 10
1035.1614990234375
 20
644.931640625
 42
0
  0
VERTEX
  8
0
 10
1047.302734375
 20
663.6275634765625
 42
-0.27633500099182129
  0
VERTEX
  8
0
 10
1060.52099609375
 20
671.536865234375
 42
0
  0
VERTEX
  8
0
 10
1064.52099609375
 20
671.536865234375
 42
-0.27633500099182129
  0
VERTEX
  8
0
 10
1077.7392578125
 20
663.6275634765625
 42
0
  0
VERTEX
  8
0
 10
1089.8804931640625
 20
644.931640625
 42
0.3003309965133667
  0
VERTEX
  8
0
 10
1092.9105224609375
 20
643.60992431640625
 42
0.071102000772953033
  0
VERTEX
  8
0
 10
1140.639892578125
 20
659.11859130859375
 42
0.30032598972320557
  0
VERTEX
  8
0
 10
1142.3143310546875
 20
661.9688720703125
 42
0
  0
VERTEX
  8
0
 10
1141.14794921875
 20
684.225341796875
 42
-0.27633500099182129
  0
VERTEX
  8
0
 10
1147.1927490234375
 20
698.3935546875
 42
0
  0
VERTEX
  8
0
 10
1150.4288330078125
 20
700.74468994140625
 42
-0.27633500099182129
  0
VERTEX
  8
0
 10
1165.7716064453125
 20
702.11541748046875
 42
0
  0
VERTEX
  8
0
 10
1186.5782470703125
 20
694.12847900390625
 42
0.30032598972320557
  0
VERTEX
  8
0
 10
1189.8065185546875
 20
694.8402099609375
 42
0.071102000772953033
  0
VERTEX
  8
0
 10
1219.3052978515625
 20
735.4410400390625
 42
0.3003309965133667
  0
VERTEX
  8
0
 10
1218.984619140625
 20
738.73126220703125
 42
0
  0
VERTEX
  8
0
 10
1204.95556640625
 20
756.0556640625
 42
-0.27633500099182129
  0
VERTEX
  8
0
 10
1201.51806640625
 20
771.071044921875
 42
0
  0
VERTEX
  8
0
 10
1202.754150390625
 20
774.875244140625
 42
-0.27633500099182129
  0
VERTEX
  8
0
 10
1214.3609619140625
 20
785.00244140625
 42
0
  0
VERTEX
  8
0
 10
1235.8936767578125
 20
790.77215576171875
 42
0.3003309965133667
  0
VERTEX
  8
0
 10
1238.0870361328125
 20
793.2454833984375
 42
0.035503998398780823
  0
VERTEX
  8
0
 10
1239.8709716796875
 20
818.33685302734375
 42
0.035503998398780823
  0
VERTEX
  8
0
 10
1238.0870361328125
 20
843.42822265625
 42
0.3003309965133667
  0
VERTEX
  8
0
 10
1235.8936767578125
 20
845.90155029296875
 42
0
  0
VERTEX
  8
0
 10
1214.3609619140625
 20
851.6712646484375
 42
-0.27633500099182129
  0
VERTEX
  8
0
 10
1202.754150390625
 20
861.7984619140625
 42
0
  0
VERTEX
  8
0
 10
1201.51806640625
 20
865.6026611328125
 42
-0.27633500099182129
  0
VERTEX
  8
0
 10
1204.95556640625
 20
880.6180419921875
 42
0
  0
VERTEX
  8
0
 10
1218.984619140625
 20
897.94244384765625
 42
0.3003309965133667
  0
VERTEX
  8
0
 10
1219.3052978515625
 20
901.232666015625
 42
0.071102000772953033
  0
VERTEX
  8
0
 10
1189.8065185546875
 20
941.83349609375
 42
0.30032598972320557
  0
VERTEX
  8
0
 10
1186.5782470703125
 20
942.54522705078125
 42
0
  0
VERTEX
  8
0
 10
1165.7716064453125
 20
934.55828857421875
 42
-0.27633500099182129
  0
VERTEX
  8
0
 10
1150.4288330078125
 20
935.92901611328125
 42
0
  0
VERTEX
  8
0
 10
1147.1927490234375
 20
938.2801513671875
 42
-0.27633500099182129
  0
VERTEX
  8
0
 10
1141.14794921875
 20
952.4483642578125
 42
0
  0
VERTEX
  8
0
 10
1142.3143310546875
 20
974.704833984375
 42
0.30032598972320557
  0
VERTEX
  8
0
 10
1140.639892578125
 20
977.55511474609375
 42
0.071102000772953033
  0
VERTEX
  8
0
 10
1092.9105224609375
 20
993.06378173828125
 42
0.3003309965133667
  0
VERTEX
  8
0
 10
1089.8804931640625
 20
991.7420654296875
 42
0
  0
VERTEX
  8
0
 10
1077.7392578125
 20
973.046142578125
 42
-0.27633500099182129
  0
VERTEX
  8
0
 10
1064.52099609375
 20
965.1368408203125
 42
0
  0
VERTEX
  8
0
 10
1060.52099609375
 20
965.1368408203125
 42
-0.27633500099182129
  0
VERTEX
  8
0
 10
1047.302734375
 20
973.046142578125
 42
0
  0
VERTEX
  8
0
 10
1035.1614990234375
 20
991.7420654296875
 42
0.3003309965133667
  0
VERTEX
  8
0
 10
1032.1314697265625
 20
993.06378173828125
 42
0.071102000772953033
  0
VERTEX
  8
0
 10
984.402099609375
 20
977.55511474609375
 42
0.30032598972320557
  0
VERTEX
  8
0
 10
982.72760009765625
 20
974.704833984375
 42
0
  0
VERTEX
  8
0
 10
983.89404296875
 20
952.4483642578125
 42
-0.27633500099182129
  0
VERTEX
  8
0
 10
977.8492431640625
 20
938.2801513671875
 42
0
  0
VERTEX
  8
0
 10
974.6131591796875
 20
935.92901611328125
 42
-0.27633500099182129
  0
VERTEX
  8
0
 10
959.27044677734375
 20
934.55828857421875
 42
0
  0
VERTEX
  8
0
 10
938.4637451171875
 20
942.54522705078125
 42
0.30032598972320557
  0
VERTEX
  8
0
 10
935.2354736328125
 20
941.83349609375
 42
0.071102000772953033
  0
VERTEX
  8
0
 10
905.7366943359375
 20
901.232666015625
 42
0.3003309965133667
  0
VERTEX
  8
0
 10
906.057373046875
 20
897.94244384765625
 42
0
  0
VERTEX
  8
0
 10
920.08642578125
 20
880.6180419921875
 42
-0.27633500099182129
  0
VERTEX
  8
0
 10
923.52392578125
 20
865.6026611328125
 42
0
  0
VERTEX
  8
0
 10
922.287841796875
 20
861.7984619140625
 42
-0.27633500099182129
  0
VERTEX
  8
0
 10
910.6810302734375
 20
851.6712646484375
 42
0
  0
VERTEX
  8
0
 10
889.1483154296875
 20
845.90155029296875
 42
0.3003309965133667
  0
VERTEX
  8
0
 10
886.9549560546875
 20
843.42822265625
 42
0.035503998398780823
  0
VERTEX
  8
0
 10
885.1710205078125
 20
818.33685302734375
 42
0.035503998398780823
  0
VERTEX
  8
0
 10
886.9549560546875
 20
793.2454833984375
 42
0.3003309965133667
  0
VERTEX
  8
0
 10
889.1483154296875
 20
790.77215576171875
 42
0
  0
VERTEX
  8
0
 10
910.6810302734375
 20
785.00244140625
 42
-0.27633500099182129
  0
VERTEX
  8
0
 10
922.287841796875
 20
774.875244140625
 42
0
  0
VERTEX
  8
0
 10
923.52392578125
 20
771.071044921875
 42
-0.27633500099182129
  0
VERTEX
  8
0
 10
920.08642578125
 20
756.0556640625
 42
0
  0
VERTEX
  8
0
 10
906.057373046875
 20
738.73126220703125
 42
0.3003309965133667
  0
VERTEX
  8
0
 10
905.7366943359375
 20
735.4410400390625
 42
0.071102000772953033
  0
SEQEND
  0
POLYLINE
  8
0
 10
0
 20
0
 39
0
 70
1
 66
1
  0
VERTEX
  8
0
 10
1007.52099609375
 20
818.33685302734375
 42
-1
  0
VERTEX
  8
0
 10
1117.52099609375
 20
818.33685302734375
 42
-1
  0
SEQEND
  0
POLYLINE
  8
0
 10
0
 20
0
 39
0
 70
1
 66
1
  0
VERTEX
  8
0
 10
1681.314453125
 20
65.324661254882813
 42
0.30032598972320557
  0
VERTEX
  8
0
 10
1684.542724609375
 20
64.612953186035156
 42
0
  0
VERTEX
  8
0
 10
1705.349365234375
 20
72.599899291992187
 42
-0.27633500099182129
  0
VERTEX
  8
0
 10
1720.692138671875
 20
71.229148864746094
 42
0
  0
VERTEX
  8
0
 10
1723.92822265625
 20
68.878005981445312
 42
-0.27633500099182129
  0
VERTEX
  8
0
 10
1729.9730224609375
 20
54.709808349609375
 42
0
  0
VERTEX
  8
0
 10
1728.806640625
 20
32.453353881835937
 42
0.30032598972320557
  0
VERTEX
  8
0
 10
1730.4810791015625
 20
29.603057861328125
 42
0.071102000772953033
  0
VERTEX
  8
0
 10
1778.21044921875
 20
14.094406127929687
 42
0.3003309965133667
  0
VERTEX
  8
0
 10
1781.240478515625
 20
15.416107177734375
 42
0
  0
VERTEX
  8
0
 10
1793.3817138671875
 20
34.112060546875
 42
-0.27633500099182129
  0
VERTEX
  8
0
 10
1806.5999755859375
 20
42.021316528320313
 42
0
  0
VERTEX
  8
0
 10
1810.5999755859375
 20
42.021316528320313
 42
-0.27633500099182129
  0
VERTEX
  8
0
 10
1823.8182373046875
 20
34.112060546875
 42
0
  0
VERTEX
  8
0
 10
1835.95947265625
 20
15.416107177734375
 42
0.3003309965133667
  0
VERTEX
  8
0
 10
1838.989501953125
 20
14.094406127929687
 42
0.071102000772953033
  0
VERTEX
  8
0
 10
1886.7188720703125
 20
29.603057861328125
 42
0.30032598972320557
  0
VERTEX
  8
0
 10
1888.393310546875
 20
32.453353881835937
 42
0
  0
VERTEX
  8
0
 10
1887.2269287109375
 20
54.709808349609375
 42
-0.27633500099182129
  0
VERTEX
  8
0
 10
1893.271728515625
 20
68.878005981445312
 42
0
  0
VERTEX
  8
0
 10
1896.5078125
 20
71.229148864746094
 42
-0.27633500099182129
  0
VERTEX
  8
0
 10
1911.8505859375
 20
72.599899291992187
 42
0
  0
VERTEX
  8
0
 10
1932.6572265625
 20
64.612953186035156
 42
0.30032598972320557
  0
VERTEX
  8
0
 10
1935.885498046875
 20
65.324661254882813
 42
0.071102000772953033
  0
VERTEX
  8
0
 10
1965.38427734375
 20
105.92552185058594
 42
0.3003309965133667
  0
VERTEX
  8
0
 10
1965.0635986328125
 20
109.21572113037109
 42
0
  0
VERTEX
  8
0
 10
1951.0345458984375
 20
126.54013824462891
 42
-0.27633500099182129
  0
VERTEX
  8
0
 10
1947.5970458984375
 20
141.55551147460937
 42
0
  0
VERTEX
  8
0
 10
1948.8331298828125
 20
145.3597412109375
 42
-0.27633500099182129
  0
VERTEX
  8
0
 10
1960.43994140625
 20
155.48692321777344
 42
0
  0
VERTEX
  8
0
 10
1981.97265625
 20
161.25660705566406
 42
0.3003309965133667
  0
VERTEX
  8
0
 10
1984.166015625
 20
163.72994995117187
 42
0.035503998398780823
  0
VERTEX
  8
0
 10
1985.949951171875
 20
188.82131958007812
 42
0.035503998398780823
  0
VERTEX
  8
0
 10
1984.166015625
 20
213.91268920898437
 42
0.3003309965133667
  0
VERTEX
  8
0
 10
1981.97265625
 20
216.38603210449219
 42
0
  0
VERTEX
  8
0
 10
1960.43994140625
 20
222.15571594238281
 42
-0.27633500099182129
  0
VERTEX
  8
0
 10
1948.8331298828125
 20
232.28289794921875
 42
0
  0
VERTEX
  8
0
 10
1947.5970458984375
 20
236.08712768554687
 42
-0.27633500099182129
  0
VERTEX
  8
0
 10
1951.0345458984375
 20
251.10250854492188
 42
0
  0
VERTEX
  8
0
 10
1965.0635986328125
 20
268.42691040039062
 42
0.3003309965133667
  0
VERTEX
  8
0
 10
1965.38427734375
 20
271.71710205078125
 42
0.071102000772953033
  0
VERTEX
  8
0
 10
1935.885498046875
 20
312.3179931640625
 42
0.30032598972320557
  0
VERTEX
  8
0
 10
1932.6572265625
 20
313.02969360351562
 42
0
  0
VERTEX
  8
0
 10
1911.8505859375
 20
305.042724609375
 42
-0.27633500099182129
  0
VERTEX
  8
0
 10
1896.5078125
 20
306.41348266601562
 42
0
  0
VERTEX
  8
0
 10
1893.271728515625
 20
308.7646484375
 42
-0.27633500099182129
  0
VERTEX
  8
0
 10
1887.2269287109375
 20
322.93283081054687
 42
0
  0
VERTEX
  8
0
 10
1888.393310546875
 20
345.18927001953125
 42
0.30032598972320557
  0
VERTEX
  8
0
 10
1886.7188720703125
 20
348.03958129882812
 42
0.071102000772953033
  0
VERTEX
  8
0
 10
1838.989501953125
 20
363.5482177734375
 42
0.3003309965133667
  0
VERTEX
  8
0
 10
1835.95947265625
 20
362.22653198242187
 42
0
  0
VERTEX
  8
0
 10
1823.8182373046875
 20
343.53057861328125
 42
-0.27633500099182129
  0
VERTEX
  8
0
 10
1810.5999755859375
 20
335.621337890625
 42
0
  0
VERTEX
  8
0
 10
1806.5999755859375
 20
335.621337890625
 42
-0.27633500099182129
  0
VERTEX
  8
0
 10
1793.3817138671875
 20
343.53057861328125
 42
0
  0
VERTEX
  8
0
 10
1781.240478515625
 20
362.22653198242187
 42
0.3003309965133667
  0
VERTEX
  8
0
 10
1778.21044921875
 20
363.5482177734375
 42
0.071102000772953033
  0
VERTEX
  8
0
 10
1730.4810791015625
 20
348.03958129882812
 42
0.30032598972320557
  0
VERTEX
  8
0
 10
1728.806640625
 20
345.18927001953125
 42
0
  0
VERTEX
  8
0
 10
1729.9730224609375
 20
322.93283081054687
 42
-0.27633500099182129
  0
VERTEX
  8
0
 10
1723.92822265625
 20
308.7646484375
 42
0
  0
VERTEX
  8
0
 10
1720.692138671875
 20
306.41348266601562
 42
-0.27633500099182129
  0
VERTEX
  8
0
 10
1705.349365234375
 20
305.042724609375
 42
0
  0
VERTEX
  8
0
 10
1684.542724609375
 20
313.02969360351562
 42
0.30032598972320557
  0
VERTEX
  8
0
 10
1681.314453125
 20
312.3179931640625
 42
0.071102000772953033
  0
VERTEX
  8
0
 10
1651.815673828125
 20
271.71710205078125
 42
0.3003309965133667
  0
VERTEX
  8
0
 10
1652.1363525390625
 20
268.42691040039062
 42
0
  0
VERTEX
  8
0
 10
1666.1654052734375
 20
251.10250854492188
 42
-0.27633500099182129
  0
VERTEX
  8
0
 10
1669.6029052734375
 20
236.08712768554687
 42
0
  0
VERTEX
  8
0
 10
1668.3668212890625
 20
232.28289794921875
 42
-0.27633500099182129
  0
VERTEX
  8
0
 10
1656.760009765625
 20
222.15571594238281
 42
0
  0
VERTEX
  8
0
 10
1635.227294921875
 20
216.38603210449219
 42
0.3003309965133667
  0
VERTEX
  8
0
 10
1633.033935546875
 20
213.91268920898437
 42
0.035503998398780823
  0
VERTEX
  8
0
 10
1631.25
 20
188.82131958007812
 42
0.035503998398780823
  0
VERTEX
  8
0
 10
1633.033935546875
 20
163.72994995117187
 42
0.3003309965133667
  0
VERTEX
  8
0
 10
1635.227294921875
 20
161.25660705566406
 42
0
  0
VERTEX
  8
0
 10
1656.760009765625
 20
155.48692321777344
 42
-0.27633500099182129
  0
VERTEX
  8
0
 10
1668.3668212890625
 20
145.3597412109375
 42
0
  0
VERTEX
  8
0
 10
1669.6029052734375
 20
141.55551147460937
 42
-0.27633500099182129
  0
VERTEX
  8
0
 10
1666.1654052734375
 20
126.54013824462891
 42
0
  0
VERTEX
  8
0
 10
1652.1363525390625
 20
109.21572113037109
 42
0.3003309965133667
  0
VERTEX
  8
0
 10
1651.815673828125
 20
105.92552185058594
 42
0.071102000772953033
  0
SEQEND
  0
POLYLINE
  8
0
 10
0
 20
0
 39
0
 70
1
 66
1
  0
VERTEX
  8
0
 10
1753.5999755859375
 20
188.82131958007812
 42
-1
  0
VERTEX
  8
0
 10
1863.5999755859375
 20
188.82131958007812
 42
-1
  0
SEQEND
  0
POLYLINE
  8
0
 10
0
 20
0
 39
0
 70
1
 66
1
  0
VERTEX
  8
0
 10
1527.6507568359375
 20
1092.875732421875
 42
0.30032598972320557
  0
VERTEX
  8
0
 10
1530.8790283203125
 20
1092.1640625
 42
0
  0
VERTEX
  8
0
 10
1551.6856689453125
 20
1100.1510009765625
 42
-0.27633500099182129
  0
VERTEX
  8
0
 10
1567.0284423828125
 20
1098.7802734375
 42
0
  0
VERTEX
  8
0
 10
1570.2645263671875
 20
1096.4290771484375
 42
-0.27633500099182129
  0
VERTEX
  8
0
 10
1576.309326171875
 20
1082.260986328125
 42
0
  0
VERTEX
  8
0
 10
1575.1429443359375
 20
1060.0045166015625
 42
0.30032598972320557
  0
VERTEX
  8
0
 10
1576.8173828125
 20
1057.1541748046875
 42
0.071102000772953033
  0
VERTEX
  8
0
 10
1624.5467529296875
 20
1041.6455078125
 42
0.3003309965133667
  0
VERTEX
  8
0
 10
1627.5767822265625
 20
1042.96728515625
 42
0
  0
VERTEX
  8
0
 10
1639.718017578125
 20
1061.6632080078125
 42
-0.27633500099182129
  0
VERTEX
  8
0
 10
1652.936279296875
 20
1069.5723876953125
 42
0
  0
VERTEX
  8
0
 10
1656.936279296875
 20
1069.5723876953125
 42
-0.27633500099182129
  0
VERTEX
  8
0
 10
1670.154541015625
 20
1061.6632080078125
 42
0
  0
VERTEX
  8
0
 10
1682.2957763671875
 20
1042.96728515625
 42
0.3003309965133667
  0
VERTEX
  8
0
 10
1685.3258056640625
 20
1041.6455078125
 42
0.071102000772953033
  0
VERTEX
  8
0
 10
1733.05517578125
 20
1057.1541748046875
 42
0.30032598972320557
  0
VERTEX
  8
0
 10
1734.7296142578125
 20
1060.0045166015625
 42
0
  0
VERTEX
  8
0
 10
1733.563232421875
 20
1082.260986328125
 42
-0.27633500099182129
  0
VERTEX
  8
0
 10
1739.6080322265625
 20
1096.4290771484375
 42
0
  0
VERTEX
  8
0
 10
1742.8441162109375
 20
1098.7802734375
 42
-0.27633500099182129
  0
VERTEX
  8
0
 10
1758.1868896484375
 20
1100.1510009765625
 42
0
  0
VERTEX
  8
0
 10
1778.9935302734375
 20
1092.1640625
 42
0.30032598972320557
  0
VERTEX
  8
0
 10
1782.2218017578125
 20
1092.875732421875
 42
0.071102000772953033
  0
VERTEX
  8
0
 10
1811.7205810546875
 20
1133.4766845703125
 42
0.3003309965133667
  0
VERTEX
  8
0
 10
1811.39990234375
 20
1136.766845703125
 42
0
  0
VERTEX
  8
0
 10
1797.370849609375
 20
1154.09130859375
 42
-0.27633500099182129
  0
VERTEX
  8
0
 10
1793.933349609375
 20
1169.106689453125
 42
0
  0
VERTEX
  8
0
 10
1795.16943359375
 20
1172.910888671875
 42
-0.27633500099182129
  0
VERTEX
  8
0
 10
1806.7762451171875
 20
1183.0380859375
 42
0
  0
VERTEX
  8
0
 10
1828.3089599609375
 20
1188.8077392578125
 42
0.3003309965133667
  0
VERTEX
  8
0
 10
1830.5023193359375
 20
1191.281005859375
 42
0.035503998398780823
  0
VERTEX
  8
0
 10
1832.2862548828125
 20
1216.3724365234375
 42
0.035503998398780823
  0
VERTEX
  8
0
 10
1830.5023193359375
 20
1241.4638671875
 42
0.3003309965133667
  0
VERTEX
  8
0
 10
1828.3089599609375
 20
1243.9371337890625
 42
0
  0
VERTEX
  8
0
 10
1806.7762451171875
 20
1249.706787109375
 42
-0.27633500099182129
  0
VERTEX
  8
0
 10
1795.16943359375
 20
1259.833984375
 42
0
  0
VERTEX
  8
0
 10
1793.933349609375
 20
1263.63818359375
 42
-0.27633500099182129
  0
VERTEX
  8
0
 10
1797.370849609375
 20
1278.653564453125
 42
0
  0
VERTEX
  8
0
 10
1811.39990234375
 20
1295.97802734375
 42
0.3003309965133667
  0
VERTEX
  8
0
 10
1811.7205810546875
 20
1299.2681884765625
 42
0.071102000772953033
  0
VERTEX
  8
0
 10
1782.2218017578125
 20
1339.869140625
 42
0.30032598972320557
  0
VERTEX
  8
0
 10
1778.9935302734375
 20
1340.580810546875
 42
0
  0
VERTEX
  8
0
 10
1758.1868896484375
 20
1332.5938720703125
 42
-0.27633500099182129
  0
VERTEX
  8
0
 10
1742.8441162109375
 20
1333.964599609375
 42
0
  0
VERTEX
  8
0
 10
1739.6080322265625
 20
1336.3157958984375
 42
-0.27633500099182129
  0
VERTEX
  8
0
 10
1733.563232421875
 20
1350.48388671875
 42
0
  0
VERTEX
  8
0
 10
1734.7296142578125
 20
1372.7403564453125
 42
0.30032598972320557
  0
VERTEX
  8
0
 10
1733.05517578125
 20
1375.5906982421875
 42
0.071102000772953033
  0
VERTEX
  8
0
 10
1685.3258056640625
 20
1391.099365234375
 42
0.3003309965133667
  0
VERTEX
  8
0
 10
1682.2957763671875
 20
1389.777587890625
 42
0
  0
VERTEX
  8
0
 10
1670.154541015625
 20
1371.0816650390625
 42
-0.27633500099182129
  0
VERTEX
  8
0
 10
1656.936279296875
 20
1363.1724853515625
 42
0
  0
VERTEX
  8
0
 10
1652.936279296875
 20
1363.1724853515625
 42
-0.27633500099182129
  0
VERTEX
  8
0
 10
1639.718017578125
 20
1371.0816650390625
 42
0
  0
VERTEX
  8
0
 10
1627.5767822265625
 20
1389.777587890625
 42
0.3003309965133667
  0
VERTEX
  8
0
 10
1624.5467529296875
 20
1391.099365234375
 42
0.071102000772953033
  0
VERTEX
  8
0
 10
1576.8173828125
 20
1375.5906982421875
 42
0.30032598972320557
  0
VERTEX
  8
0
 10
1575.1429443359375
 20
1372.7403564453125
 42
0
  0
VERTEX
  8
0
 10
1576.309326171875
 20
1350.48388671875
 42
-0.27633500099182129
  0
VERTEX
  8
0
 10
1570.2645263671875
 20
1336.3157958984375
 42
0
  0
VERTEX
  8
0
 10
1567.0284423828125
 20
1333.964599609375
 42
-0.27633500099182129
  0
VERTEX
  8
0
 10
1551.6856689453125
 20
1332.5938720703125
 42
0
  0
VERTEX
  8
0
 10
1530.8790283203125
 20
1340.580810546875
 42
0.30032598972320557
  0
VERTEX
  8
0
 10
1527.6507568359375
 20
1339.869140625
 42
0.071102000772953033
  0
VERTEX
  8
0
 10
1498.1519775390625
 20
1299.2681884765625
 42
0.3003309965133667
  0
VERTEX
  8
0
 10
1498.47265625
 20
1295.97802734375
 42
0
  0
VERTEX
  8
0
 10
1512.501708984375
 20
1278.653564453125
 42
-0.27633500099182129
  0
VERTEX
  8
0
 10
1515.939208984375
 20
1263.63818359375
 42
0
  0
VERTEX
  8
0
 10
1514.703125
 20
1259.833984375
 42
-0.27633500099182129
  0
VERTEX
  8
0
 10
1503.0963134765625
 20
1249.706787109375
 42
0
  0
VERTEX
  8
0
 10
1481.5635986328125
 20
1243.9371337890625
 42
0.3003309965133667
  0
VERTEX
  8
0
 10
1479.3702392578125
 20
1241.4638671875
 42
0.035503998398780823
  0
VERTEX
  8
0
 10
1477.5863037109375
 20
1216.3724365234375
 42
0.035503998398780823
  0
VERTEX
  8
0
 10
1479.3702392578125
 20
1191.281005859375
 42
0.3003309965133667
  0
VERTEX
  8
0
 10
1481.5635986328125
 20
1188.8077392578125
 42
0
  0
VERTEX
  8
0
 10
1503.0963134765625
 20
1183.0380859375
 42
-0.27633500099182129
  0
VERTEX
  8
0
 10
1514.703125
 20
1172.910888671875
 42
0
  0
VERTEX
  8
0
 10
1515.939208984375
 20
1169.106689453125
 42
-0.27633500099182129
  0
VERTEX
  8
0
 10
1512.501708984375
 20
1154.09130859375
 42
0
  0
VERTEX
  8
0
 10
1498.47265625
 20
1136.766845703125
 42
0.3003309965133667
  0
VERTEX
  8
0
 10
1498.1519775390625
 20
1133.4766845703125
 42
0.071102000772953033
  0
SEQEND
  0
POLYLINE
  8
0
 10
0
 20
0
 39
0
 70
1
 66
1
  0
VERTEX
  8
0
 10
1599.936279296875
 20
1216.3724365234375
 42
-1
  0
VERTEX
  8
0
 10
1709.936279296875
 20
1216.3724365234375
 42
-1
  0
SEQEND
  0
POLYLINE
  8
0
 10
0
 20
0
 39
0
 70
1
 66
1
  0
VERTEX
  8
0
 10
1681.314453125
 20
428.91729736328125
 42
0.30032598972320557
  0
VERTEX
  8
0
 10
1684.542724609375
 20
428.20556640625
 42
0
  0
VERTEX
  8
0
 10
1705.349365234375
 20
436.1925048828125
 42
-0.27633500099182129
  0
VERTEX
  8
0
 10
1720.692138671875
 20
434.82177734375
 42
0
  0
VERTEX
  8
0
 10
1723.92822265625
 20
432.47064208984375
 42
-0.27633500099182129
  0
VERTEX
  8
0
 10
1729.9730224609375
 20
418.30242919921875
 42
0
  0
VERTEX
  8
0
 10
1728.806640625
 20
396.04595947265625
 42
0.30032598972320557
  0
VERTEX
  8
0
 10
1730.4810791015625
 20
393.1956787109375
 42
0.071102000772953033
  0
VERTEX
  8
0
 10
1778.21044921875
 20
377.68701171875
 42
0.3003309965133667
  0
VERTEX
  8
0
 10
1781.240478515625
 20
379.00872802734375
 42
0
  0
VERTEX
  8
0
 10
1793.3817138671875
 20
397.70468139648438
 42
-0.27633500099182129
  0
VERTEX
  8
0
 10
1806.5999755859375
 20
405.61395263671875
 42
0
  0
VERTEX
  8
0
 10
1810.5999755859375
 20
405.61395263671875
 42
-0.27633500099182129
  0
VERTEX
  8
0
 10
1823.8182373046875
 20
397.70468139648438
 42
0
  0
VERTEX
  8
0
 10
1835.95947265625
 20
379.00872802734375
 42
0.3003309965133667
  0
VERTEX
  8
0
 10
1838.989501953125
 20
377.68701171875
 42
0.071102000772953033
  0
VERTEX
  8
0
 10
1886.7188720703125
 20
393.1956787109375
 42
0.30032598972320557
  0
VERTEX
  8
0
 10
1888.393310546875
 20
396.04595947265625
 42
0
  0
VERTEX
  8
0
 10
1887.2269287109375
 20
418.30242919921875
 42
-0.27633500099182129
  0
VERTEX
  8
0
 10
1893.271728515625
 20
432.47064208984375
 42
0
  0
VERTEX
  8
0
 10
1896.5078125
 20
434.82177734375
 42
-0.27633500099182129
  0
VERTEX
  8
0
 10
1911.8505859375
 20
436.1925048828125
 42
0
  0
VERTEX
  8
0
 10
1932.6572265625
 20
428.20556640625
 42
0.30032598972320557
  0
VERTEX
  8
0
 10
1935.885498046875
 20
428.91729736328125
 42
0.071102000772953033
  0
VERTEX
  8
0
 10
1965.38427734375
 20
469.51812744140625
 42
0.3003309965133667
  0
VERTEX
  8
0
 10
1965.0635986328125
 20
472.808349609375
 42
0
  0
VERTEX
  8
0
 10
1951.0345458984375
 20
490.13275146484375
 42
-0.27633500099182129
  0
VERTEX
  8
0
 10
1947.5970458984375
 20
505.14813232421875
 42
0
  0
VERTEX
  8
0
 10
1948.8331298828125
 20
508.95236206054687
 42
-0.27633500099182129
  0
VERTEX
  8
0
 10
1960.43994140625
 20
519.07952880859375
 42
0
  0
VERTEX
  8
0
 10
1981.97265625
 20
524.8492431640625
 42
0.3003309965133667
  0
VERTEX
  8
0
 10
1984.166015625
 20
527.32257080078125
 42
0.035503998398780823
  0
VERTEX
  8
0
 10
1985.949951171875
 20
552.4139404296875
 42
0.035503998398780823
  0
VERTEX
  8
0
 10
1984.166015625
 20
577.50531005859375
 42
0.3003309965133667
  0
VERTEX
  8
0
 10
1981.97265625
 20
579.9786376953125
 42
0
  0
VERTEX
  8
0
 10
1960.43994140625
 20
585.74835205078125
 42
-0.27633500099182129
  0
VERTEX
  8
0
 10
1948.8331298828125
 20
595.87554931640625
 42
0
  0
VERTEX
  8
0
 10
1947.5970458984375
 20
599.67974853515625
 42
-0.27633500099182129
  0
VERTEX
  8
0
 10
1951.0345458984375
 20
614.69512939453125
 42
0
  0
VERTEX
  8
0
 10
1965.0635986328125
 20
632.01953125
 42
0.3003309965133667
  0
VERTEX
  8
0
 10
1965.38427734375
 20
635.30975341796875
 42
0.071102000772953033
  0
VERTEX
  8
0
 10
1935.885498046875
 20
675.91058349609375
 42
0.30032598972320557
  0
VERTEX
  8
0
 10
1932.6572265625
 20
676.622314453125
 42
0
  0
VERTEX
  8
0
 10
1911.8505859375
 20
668.6353759765625
 42
-0.27633500099182129
  0
VERTEX
  8
0
 10
1896.5078125
 20
670.006103515625
 42
0
  0
VERTEX
  8
0
 10
1893.271728515625
 20
672.35723876953125
 42
-0.27633500099182129
  0
VERTEX
  8
0
 10
1887.2269287109375
 20
686.52545166015625
 42
0
  0
VERTEX
  8
0
 10
1888.393310546875
 20
708.78192138671875
 42
0.30032598972320557
  0
VERTEX
  8
0
 10
1886.7188720703125
 20
711.6322021484375
 42
0.071102000772953033
  0
VERTEX
  8
0
 10
1838.989501953125
 20
727.140869140625
 42
0.3003309965133667
  0
VERTEX
  8
0
 10
1835.95947265625
 20
725.81915283203125
 42
0
  0
VERTEX
  8
0
 10
1823.8182373046875
 20
707.1231689453125
 42
-0.27633500099182129
  0
VERTEX
  8
0
 10
1810.5999755859375
 20
699.21392822265625
 42
0
  0
VERTEX
  8
0
 10
1806.5999755859375
 20
699.21392822265625
 42
-0.27633500099182129
  0
VERTEX
  8
0
 10
1793.3817138671875
 20
707.1231689453125
 42
0
  0
VERTEX
  8
0
 10
1781.240478515625
 20
725.81915283203125
 42
0.3003309965133667
  0
VERTEX
  8
0
 10
1778.21044921875
 20
727.140869140625
 42
0.071102000772953033
  0
VERTEX
  8
0
 10
1730.4810791015625
 20
711.6322021484375
 42
0.30032598972320557
  0
VERTEX
  8
0
 10
1728.806640625
 20
708.78192138671875
 42
0
  0
VERTEX
  8
0
 10
1729.9730224609375
 20
686.52545166015625
 42
-0.27633500099182129
  0
VERTEX
  8
0
 10
1723.92822265625
 20
672.35723876953125
 42
0
  0
VERTEX
  8
0
 10
1720.692138671875
 20
670.006103515625
 42
-0.27633500099182129
  0
VERTEX
  8
0
 10
1705.349365234375
 20
668.6353759765625
 42
0
  0
VERTEX
  8
0
 10
1684.542724609375
 20
676.622314453125
 42
0.30032598972320557
  0
VERTEX
  8
0
 10
1681.314453125
 20
675.91058349609375
 42
0.071102000772953033
  0
VERTEX
  8
0
 10
1651.815673828125
 20
635.30975341796875
 42
0.3003309965133667
  0
VERTEX
  8
0
 10
1652.1363525390625
 20
632.01953125
 42
0
  0
VERTEX
  8
0
 10
1666.1654052734375
 20
614.69512939453125
 42
-0.27633500099182129
  0
VERTEX
  8
0
 10
1669.6029052734375
 20
599.67974853515625
 42
0
  0
VERTEX
  8
0
 10
1668.3668212890625
 20
595.87554931640625
 42
-0.27633500099182129
  0
VERTEX
  8
0
 10
1656.760009765625
 20
585.74835205078125
 42
0
  0
VERTEX
  8
0
 10
1635.227294921875
 20
579.9786376953125
 42
0.3003309965133667
  0
VERTEX
  8
0
 10
1633.033935546875
 20
577.50531005859375
 42
0.035503998398780823
  0
VERTEX
  8
0
 10
1631.25
 20
552.4139404296875
 42
0.035503998398780823
  0
VERTEX
  8
0
 10
1633.033935546875
 20
527.32257080078125
 42
0.3003309965133667
  0
VERTEX
  8
0
 10
1635.227294921875
 20
524.8492431640625
 42
0
  0
VERTEX
  8
0
 10
1656.760009765625
 20
519.07952880859375
 42
-0.27633500099182129
  0
VERTEX
  8
0
 10
1668.3668212890625
 20
508.95236206054687
 42
0
  0
VERTEX
  8
0
 10
1669.6029052734375
 20
505.14813232421875
 42
-0.27633500099182129
  0
VERTEX
  8
0
 10
1666.1654052734375
 20
490.13275146484375
 42
0
  0
VERTEX
  8
0
 10
1652.1363525390625
 20
472.808349609375
 42
0.3003309965133667
  0
VERTEX
  8
0
 10
1651.815673828125
 20
469.51812744140625
 42
0.071102000772953033
  0
SEQEND
  0
POLYLINE
  8
0
 10
0
 20
0
 39
0
 70
1
 66
1
  0
VERTEX
  8
0
 10
1753.5999755859375
 20
552.4139404296875
 42
-1
  0
VERTEX
  8
0
 10
1863.5999755859375
 20
552.4139404296875
 42
-1
  0
SEQEND
  0
ENDSEC
  0
EOF
