  0
SECTION
  2
ENTITIES
  0
POLYLINE
  8
0
 10
0
 20
0
 39
0
 70
1
 66
1
  0
VERTEX
  8
0
 10
0
 20
0
 42
0
  0
VERTEX
  8
0
 10
3000
 20
0
 42
0
  0
VERTEX
  8
0
 10
3000
 20
1000
 42
0
  0
VERTEX
  8
0
 10
0
 20
1000
 42
0
  0
SEQEND
  0
POLYLINE
  8
0
 10
0
 20
0
 39
0
 70
1
 66
1
  0
VERTEX
  8
0
 10
230.63698126719547
 20
388.30768086360052
 42
0
  0
VERTEX
  8
0
 10
320.63696600840643
 20
190.30769612238959
 42
0
  0
VERTEX
  8
0
 10
320.63696600840643
 20
10.307692307692324
 42
0
  0
VERTEX
  8
0
 10
10.307692307692319
 20
10.307692307692307
 42
0
  0
VERTEX
  8
0
 10
10.307692307692308
 20
190.30769612238959
 42
0
  0
VERTEX
  8
0
 10
100.30768896983218
 20
388.30768086360052
 42
0
  0
SEQEND
  0
POLYLINE
  8
0
 10
0
 20
0
 39
0
 70
1
 66
1
  0
VERTEX
  8
0
 10
40.307692784529479
 20
33.307692307692307
 42
1
  0
VERTEX
  8
0
 10
40.307692784529472
 20
47.307696122389572
 42
1
  0
SEQEND
  0
POLYLINE
  8
0
 10
0
 20
0
 39
0
 70
1
 66
1
  0
VERTEX
  8
0
 10
40.307692784529465
 20
163.30769612238959
 42
1
  0
VERTEX
  8
0
 10
40.307692784529465
 20
177.30769612238959
 42
1
  0
SEQEND
  0
POLYLINE
  8
0
 10
0
 20
0
 39
0
 70
1
 66
1
  0
VERTEX
  8
0
 10
290.63696600840643
 20
33.307692307692321
 42
1
  0
VERTEX
  8
0
 10
290.63696600840643
 20
47.307696122389586
 42
1
  0
SEQEND
  0
POLYLINE
  8
0
 10
0
 20
0
 39
0
 70
1
 66
1
  0
VERTEX
  8
0
 10
290.63696600840643
 20
163.30769612238959
 42
1
  0
VERTEX
  8
0
 10
290.63696600840643
 20
177.30769612238959
 42
1
  0
SEQEND
  0
POLYLINE
  8
0
 10
0
 20
0
 39
0
 70
1
 66
1
  0
VERTEX
  8
0
 10
230.63698126719547
 20
776.46152701744677
 42
0
  0
VERTEX
  8
0
 10
320.63696600840643
 20
578.46154227623583
 42
0
  0
VERTEX
  8
0
 10
320.63696600840643
 20
398.46153846153851
 42
0
  0
VERTEX
  8
0
 10
10.307692307692319
 20
398.46153846153851
 42
0
  0
VERTEX
  8
0
 10
10.307692307692308
 20
578.46154227623583
 42
0
  0
VERTEX
  8
0
 10
100.30768896983218
 20
776.46152701744677
 42
0
  0
SEQEND
  0
POLYLINE
  8
0
 10
0
 20
0
 39
0
 70
1
 66
1
  0
VERTEX
  8
0
 10
40.307692784529479
 20
421.46153846153851
 42
1
  0
VERTEX
  8
0
 10
40.307692784529472
 20
435.46154227623578
 42
1
  0
SEQEND
  0
POLYLINE
  8
0
 10
0
 20
0
 39
0
 70
1
 66
1
  0
VERTEX
  8
0
 10
40.307692784529465
 20
551.46154227623583
 42
1
  0
VERTEX
  8
0
 10
40.307692784529465
 20
565.46154227623583
 42
1
  0
SEQEND
  0
POLYLINE
  8
0
 10
0
 20
0
 39
0
 70
1
 66
1
  0
VERTEX
  8
0
 10
290.63696600840643
 20
421.46153846153851
 42
1
  0
VERTEX
  8
0
 10
290.63696600840643
 20
435.46154227623578
 42
1
  0
SEQEND
  0
POLYLINE
  8
0
 10
0
 20
0
 39
0
 70
1
 66
1
  0
VERTEX
  8
0
 10
290.63696600840643
 20
551.46154227623583
 42
1
  0
VERTEX
  8
0
 10
290.63696600840643
 20
565.46154227623583
 42
1
  0
SEQEND
  0
POLYLINE
  8
0
 10
0
 20
0
 39
0
 70
1
 66
1
  0
VERTEX
  8
0
 10
317.4615232027495
 20
611.23076923076928
 42
0
  0
VERTEX
  8
0
 10
227.46153846153851
 20
809.23075397198022
 42
0
  0
VERTEX
  8
0
 10
227.46153846153845
 20
989.23075778667749
 42
0
  0
VERTEX
  8
0
 10
537.79081216225256
 20
989.23075778667749
 42
0
  0
VERTEX
  8
0
 10
537.79081216225256
 20
809.23075397198022
 42
0
  0
VERTEX
  8
0
 10
447.79081550011273
 20
611.23076923076928
 42
0
  0
SEQEND
  0
POLYLINE
  8
0
 10
0
 20
0
 39
0
 70
1
 66
1
  0
VERTEX
  8
0
 10
507.79081168541541
 20
966.23075778667749
 42
1
  0
VERTEX
  8
0
 10
507.79081168541541
 20
952.23075397198022
 42
1
  0
SEQEND
  0
POLYLINE
  8
0
 10
0
 20
0
 39
0
 70
1
 66
1
  0
VERTEX
  8
0
 10
507.79081168541546
 20
836.23075397198022
 42
1
  0
VERTEX
  8
0
 10
507.79081168541546
 20
822.23075397198022
 42
1
  0
SEQEND
  0
POLYLINE
  8
0
 10
0
 20
0
 39
0
 70
1
 66
1
  0
VERTEX
  8
0
 10
257.46153846153845
 20
966.23075778667749
 42
1
  0
VERTEX
  8
0
 10
257.46153846153845
 20
952.23075397198022
 42
1
  0
SEQEND
  0
POLYLINE
  8
0
 10
0
 20
0
 39
0
 70
1
 66
1
  0
VERTEX
  8
0
 10
257.46153846153851
 20
836.23075397198022
 42
1
  0
VERTEX
  8
0
 10
257.46153846153851
 20
822.23075397198022
 42
1
  0
SEQEND
  0
POLYLINE
  8
0
 10
0
 20
0
 39
0
 70
1
 66
1
  0
VERTEX
  8
0
 10
414.15383089505724
 20
10.307692307692321
 42
0
  0
VERTEX
  8
0
 10
324.15384615384625
 20
208.30767704890326
 42
0
  0
VERTEX
  8
0
 10
324.15384615384619
 20
388.30768086360052
 42
0
  0
VERTEX
  8
0
 10
634.4831198545603
 20
388.30768086360058
 42
0
  0
VERTEX
  8
0
 10
634.4831198545603
 20
208.30767704890332
 42
0
  0
VERTEX
  8
0
 10
544.48312319242052
 20
10.307692307692378
 42
0
  0
SEQEND
  0
POLYLINE
  8
0
 10
0
 20
0
 39
0
 70
1
 66
1
  0
VERTEX
  8
0
 10
604.48311937772314
 20
365.30768086360058
 42
1
  0
VERTEX
  8
0
 10
604.48311937772314
 20
351.30767704890332
 42
1
  0
SEQEND
  0
POLYLINE
  8
0
 10
0
 20
0
 39
0
 70
1
 66
1
  0
VERTEX
  8
0
 10
604.48311937772314
 20
235.30767704890332
 42
1
  0
VERTEX
  8
0
 10
604.48311937772314
 20
221.30767704890332
 42
1
  0
SEQEND
  0
POLYLINE
  8
0
 10
0
 20
0
 39
0
 70
1
 66
1
  0
VERTEX
  8
0
 10
354.15384615384619
 20
365.30768086360052
 42
1
  0
VERTEX
  8
0
 10
354.15384615384619
 20
351.30767704890326
 42
1
  0
SEQEND
  0
POLYLINE
  8
0
 10
0
 20
0
 39
0
 70
1
 66
1
  0
VERTEX
  8
0
 10
354.15384615384625
 20
235.30767704890326
 42
1
  0
VERTEX
  8
0
 10
354.15384615384625
 20
221.30767704890326
 42
1
  0
SEQEND
  0
POLYLINE
  8
0
 10
0
 20
0
 39
0
 70
1
 66
1
  0
VERTEX
  8
0
 10
664.94467357488782
 20
776.46152701744677
 42
0
  0
VERTEX
  8
0
 10
754.94465831609875
 20
578.46154227623583
 42
0
  0
VERTEX
  8
0
 10
754.94465831609875
 20
398.46153846153851
 42
0
  0
VERTEX
  8
0
 10
444.61538461538464
 20
398.46153846153851
 42
0
  0
VERTEX
  8
0
 10
444.61538461538464
 20
578.46154227623583
 42
0
  0
VERTEX
  8
0
 10
534.61538127752453
 20
776.46152701744677
 42
0
  0
SEQEND
  0
POLYLINE
  8
0
 10
0
 20
0
 39
0
 70
1
 66
1
  0
VERTEX
  8
0
 10
474.6153850922218
 20
421.46153846153851
 42
1
  0
VERTEX
  8
0
 10
474.6153850922218
 20
435.46154227623578
 42
1
  0
SEQEND
  0
POLYLINE
  8
0
 10
0
 20
0
 39
0
 70
1
 66
1
  0
VERTEX
  8
0
 10
474.6153850922218
 20
551.46154227623583
 42
1
  0
VERTEX
  8
0
 10
474.6153850922218
 20
565.46154227623583
 42
1
  0
SEQEND
  0
POLYLINE
  8
0
 10
0
 20
0
 39
0
 70
1
 66
1
  0
VERTEX
  8
0
 10
724.94465831609875
 20
421.46153846153851
 42
1
  0
VERTEX
  8
0
 10
724.94465831609875
 20
435.46154227623578
 42
1
  0
SEQEND
  0
POLYLINE
  8
0
 10
0
 20
0
 39
0
 70
1
 66
1
  0
VERTEX
  8
0
 10
724.94465831609875
 20
551.46154227623583
 42
1
  0
VERTEX
  8
0
 10
724.94465831609875
 20
565.46154227623583
 42
1
  0
SEQEND
  0
POLYLINE
  8
0
 10
0
 20
0
 39
0
 70
1
 66
1
  0
VERTEX
  8
0
 10
858.32928895950317
 20
388.30768086360052
 42
0
  0
VERTEX
  8
0
 10
948.32927370071411
 20
190.30769612238959
 42
0
  0
VERTEX
  8
0
 10
948.32927370071411
 20
10.307692307692324
 42
0
  0
VERTEX
  8
0
 10
638
 20
10.307692307692307
 42
0
  0
VERTEX
  8
0
 10
638
 20
190.30769612238959
 42
0
  0
VERTEX
  8
0
 10
727.99999666213989
 20
388.30768086360052
 42
0
  0
SEQEND
  0
POLYLINE
  8
0
 10
0
 20
0
 39
0
 70
1
 66
1
  0
VERTEX
  8
0
 10
668.00000047683716
 20
33.307692307692307
 42
1
  0
VERTEX
  8
0
 10
668.00000047683716
 20
47.307696122389572
 42
1
  0
SEQEND
  0
POLYLINE
  8
0
 10
0
 20
0
 39
0
 70
1
 66
1
  0
VERTEX
  8
0
 10
668.00000047683716
 20
163.30769612238959
 42
1
  0
VERTEX
  8
0
 10
668.00000047683716
 20
177.30769612238959
 42
1
  0
SEQEND
  0
POLYLINE
  8
0
 10
0
 20
0
 39
0
 70
1
 66
1
  0
VERTEX
  8
0
 10
918.32927370071411
 20
33.307692307692321
 42
1
  0
VERTEX
  8
0
 10
918.32927370071411
 20
47.307696122389586
 42
1
  0
SEQEND
  0
POLYLINE
  8
0
 10
0
 20
0
 39
0
 70
1
 66
1
  0
VERTEX
  8
0
 10
918.32927370071411
 20
163.30769612238959
 42
1
  0
VERTEX
  8
0
 10
918.32927370071411
 20
177.30769612238959
 42
1
  0
SEQEND
  0
POLYLINE
  8
0
 10
0
 20
0
 39
0
 70
1
 66
1
  0
VERTEX
  8
0
 10
751.76921551044188
 20
611.23076923076928
 42
0
  0
VERTEX
  8
0
 10
661.76923076923094
 20
809.23075397198022
 42
0
  0
VERTEX
  8
0
 10
661.76923076923083
 20
989.23075778667749
 42
0
  0
VERTEX
  8
0
 10
972.09850446994494
 20
989.23075778667749
 42
0
  0
VERTEX
  8
0
 10
972.09850446994494
 20
809.23075397198022
 42
0
  0
VERTEX
  8
0
 10
882.09850780780516
 20
611.23076923076928
 42
0
  0
SEQEND
  0
POLYLINE
  8
0
 10
0
 20
0
 39
0
 70
1
 66
1
  0
VERTEX
  8
0
 10
942.09850399310778
 20
966.23075778667749
 42
1
  0
VERTEX
  8
0
 10
942.09850399310778
 20
952.23075397198022
 42
1
  0
SEQEND
  0
POLYLINE
  8
0
 10
0
 20
0
 39
0
 70
1
 66
1
  0
VERTEX
  8
0
 10
942.09850399310778
 20
836.23075397198022
 42
1
  0
VERTEX
  8
0
 10
942.09850399310778
 20
822.23075397198022
 42
1
  0
SEQEND
  0
POLYLINE
  8
0
 10
0
 20
0
 39
0
 70
1
 66
1
  0
VERTEX
  8
0
 10
691.76923076923083
 20
966.23075778667749
 42
1
  0
VERTEX
  8
0
 10
691.76923076923083
 20
952.23075397198022
 42
1
  0
SEQEND
  0
POLYLINE
  8
0
 10
0
 20
0
 39
0
 70
1
 66
1
  0
VERTEX
  8
0
 10
691.76923076923094
 20
836.23075397198022
 42
1
  0
VERTEX
  8
0
 10
691.76923076923094
 20
822.23075397198022
 42
1
  0
SEQEND
  0
POLYLINE
  8
0
 10
0
 20
0
 39
0
 70
1
 66
1
  0
VERTEX
  8
0
 10
867.23076923076928
 20
398.46153846153857
 42
-1
  0
VERTEX
  8
0
 10
867.23076923076928
 20
598.46153846153857
 42
-0
  0
VERTEX
  8
0
 10
922.23076923076928
 20
598.46153846153857
 42
0
  0
VERTEX
  8
0
 10
922.23076923076928
 20
673.46153846153857
 42
-0
  0
VERTEX
  8
0
 10
972.23076923076928
 20
673.46153846153857
 42
-0
  0
VERTEX
  8
0
 10
972.2307692307694
 20
323.46153846153857
 42
-0
  0
VERTEX
  8
0
 10
922.2307692307694
 20
323.46153846153857
 42
0
  0
VERTEX
  8
0
 10
922.23076923076928
 20
398.46153846153857
 42
0
  0
SEQEND
  0
POLYLINE
  8
0
 10
0
 20
0
 39
0
 70
1
 66
1
  0
VERTEX
  8
0
 10
867.23076923076928
 20
523.46153846153857
 42
1
  0
VERTEX
  8
0
 10
867.23076923076928
 20
473.46153846153857
 42
1
  0
SEQEND
  0
POLYLINE
  8
0
 10
0
 20
0
 39
0
 70
1
 66
1
  0
VERTEX
  8
0
 10
1046.5384615384614
 20
141.61538461538464
 42
-1
  0
VERTEX
  8
0
 10
1046.5384615384614
 20
341.61538461538464
 42
-0
  0
VERTEX
  8
0
 10
1101.5384615384614
 20
341.61538461538464
 42
0
  0
VERTEX
  8
0
 10
1101.5384615384614
 20
416.61538461538464
 42
-0
  0
VERTEX
  8
0
 10
1151.5384615384614
 20
416.61538461538464
 42
-0
  0
VERTEX
  8
0
 10
1151.5384615384614
 20
66.615384615384642
 42
-0
  0
VERTEX
  8
0
 10
1101.5384615384614
 20
66.615384615384642
 42
0
  0
VERTEX
  8
0
 10
1101.5384615384614
 20
141.61538461538464
 42
0
  0
SEQEND
  0
POLYLINE
  8
0
 10
0
 20
0
 39
0
 70
1
 66
1
  0
VERTEX
  8
0
 10
1046.5384615384614
 20
266.61538461538464
 42
1
  0
VERTEX
  8
0
 10
1046.5384615384614
 20
216.61538461538461
 42
1
  0
SEQEND
  0
POLYLINE
  8
0
 10
0
 20
0
 39
0
 70
1
 66
1
  0
VERTEX
  8
0
 10
1061.7692307692307
 20
638.46153846153845
 42
-1
  0
VERTEX
  8
0
 10
1061.7692307692307
 20
838.46153846153845
 42
-0
  0
VERTEX
  8
0
 10
1116.7692307692307
 20
838.46153846153845
 42
0
  0
VERTEX
  8
0
 10
1116.7692307692307
 20
913.46153846153845
 42
-0
  0
VERTEX
  8
0
 10
1166.7692307692307
 20
913.46153846153845
 42
-0
  0
VERTEX
  8
0
 10
1166.7692307692307
 20
563.46153846153845
 42
-0
  0
VERTEX
  8
0
 10
1116.7692307692307
 20
563.46153846153845
 42
0
  0
VERTEX
  8
0
 10
1116.7692307692307
 20
638.46153846153845
 42
0
  0
SEQEND
  0
POLYLINE
  8
0
 10
0
 20
0
 39
0
 70
1
 66
1
  0
VERTEX
  8
0
 10
1061.7692307692307
 20
763.46153846153845
 42
1
  0
VERTEX
  8
0
 10
1061.7692307692307
 20
713.46153846153845
 42
1
  0
SEQEND
  0
POLYLINE
  8
0
 10
0
 20
0
 39
0
 70
1
 66
1
  0
VERTEX
  8
0
 10
1241.0769230769231
 20
381.61538461538464
 42
-1
  0
VERTEX
  8
0
 10
1241.0769230769231
 20
581.61538461538464
 42
-0
  0
VERTEX
  8
0
 10
1296.0769230769231
 20
581.61538461538464
 42
0
  0
VERTEX
  8
0
 10
1296.0769230769231
 20
656.61538461538464
 42
-0
  0
VERTEX
  8
0
 10
1346.0769230769231
 20
656.61538461538464
 42
-0
  0
VERTEX
  8
0
 10
1346.0769230769231
 20
306.61538461538464
 42
-0
  0
VERTEX
  8
0
 10
1296.0769230769231
 20
306.61538461538464
 42
0
  0
VERTEX
  8
0
 10
1296.0769230769231
 20
381.61538461538464
 42
0
  0
SEQEND
  0
POLYLINE
  8
0
 10
0
 20
0
 39
0
 70
1
 66
1
  0
VERTEX
  8
0
 10
1241.0769230769231
 20
506.61538461538464
 42
1
  0
VERTEX
  8
0
 10
1241.0769230769231
 20
456.61538461538464
 42
1
  0
SEQEND
  0
POLYLINE
  8
0
 10
0
 20
0
 39
0
 70
1
 66
1
  0
VERTEX
  8
0
 10
1266.846153846154
 20
285.30769230769232
 42
-1
  0
VERTEX
  8
0
 10
1266.846153846154
 20
85.307692307692307
 42
-0
  0
VERTEX
  8
0
 10
1211.846153846154
 20
85.307692307692307
 42
0
  0
VERTEX
  8
0
 10
1211.846153846154
 20
10.307692307692312
 42
-0
  0
VERTEX
  8
0
 10
1161.846153846154
 20
10.307692307692308
 42
-0
  0
VERTEX
  8
0
 10
1161.846153846154
 20
360.30769230769232
 42
-0
  0
VERTEX
  8
0
 10
1211.846153846154
 20
360.30769230769232
 42
0
  0
VERTEX
  8
0
 10
1211.846153846154
 20
285.30769230769232
 42
0
  0
SEQEND
  0
POLYLINE
  8
0
 10
0
 20
0
 39
0
 70
1
 66
1
  0
VERTEX
  8
0
 10
1266.846153846154
 20
160.30769230769232
 42
1
  0
VERTEX
  8
0
 10
1266.846153846154
 20
210.30769230769232
 42
1
  0
SEQEND
  0
POLYLINE
  8
0
 10
0
 20
0
 39
0
 70
1
 66
1
  0
VERTEX
  8
0
 10
1282.0769230769231
 20
866.38461538461547
 42
-1
  0
VERTEX
  8
0
 10
1282.0769230769231
 20
666.38461538461547
 42
-0
  0
VERTEX
  8
0
 10
1227.0769230769231
 20
666.38461538461547
 42
0
  0
VERTEX
  8
0
 10
1227.0769230769231
 20
591.38461538461547
 42
-0
  0
VERTEX
  8
0
 10
1177.0769230769231
 20
591.38461538461547
 42
-0
  0
VERTEX
  8
0
 10
1177.0769230769231
 20
941.38461538461547
 42
-0
  0
VERTEX
  8
0
 10
1227.0769230769231
 20
941.38461538461547
 42
0
  0
VERTEX
  8
0
 10
1227.0769230769231
 20
866.38461538461547
 42
0
  0
SEQEND
  0
POLYLINE
  8
0
 10
0
 20
0
 39
0
 70
1
 66
1
  0
VERTEX
  8
0
 10
1282.0769230769231
 20
741.38461538461547
 42
1
  0
VERTEX
  8
0
 10
1282.0769230769231
 20
791.38461538461547
 42
1
  0
SEQEND
  0
POLYLINE
  8
0
 10
0
 20
0
 39
0
 70
1
 66
1
  0
VERTEX
  8
0
 10
1454.0769230769231
 20
181.76923076923077
 42
-1
  0
VERTEX
  8
0
 10
1454.0769230769231
 20
381.76923076923077
 42
-0
  0
VERTEX
  8
0
 10
1509.0769230769231
 20
381.76923076923077
 42
0
  0
VERTEX
  8
0
 10
1509.0769230769231
 20
456.76923076923077
 42
-0
  0
VERTEX
  8
0
 10
1559.0769230769231
 20
456.76923076923077
 42
-0
  0
VERTEX
  8
0
 10
1559.0769230769231
 20
106.76923076923077
 42
-0
  0
VERTEX
  8
0
 10
1509.0769230769231
 20
106.76923076923077
 42
0
  0
VERTEX
  8
0
 10
1509.0769230769231
 20
181.76923076923077
 42
0
  0
SEQEND
  0
POLYLINE
  8
0
 10
0
 20
0
 39
0
 70
1
 66
1
  0
VERTEX
  8
0
 10
1454.0769230769231
 20
306.76923076923072
 42
1
  0
VERTEX
  8
0
 10
1454.0769230769231
 20
256.76923076923072
 42
1
  0
SEQEND
  0
POLYLINE
  8
0
 10
0
 20
0
 39
0
 70
1
 66
1
  0
VERTEX
  8
0
 10
1456.3846153846155
 20
542
 42
-1
  0
VERTEX
  8
0
 10
1456.3846153846155
 20
742
 42
-0
  0
VERTEX
  8
0
 10
1511.3846153846155
 20
742
 42
0
  0
VERTEX
  8
0
 10
1511.3846153846155
 20
817
 42
-0
  0
VERTEX
  8
0
 10
1561.3846153846155
 20
817
 42
-0
  0
VERTEX
  8
0
 10
1561.3846153846155
 20
467
 42
-0
  0
VERTEX
  8
0
 10
1511.3846153846155
 20
467
 42
0
  0
VERTEX
  8
0
 10
1511.3846153846155
 20
542
 42
0
  0
SEQEND
  0
POLYLINE
  8
0
 10
0
 20
0
 39
0
 70
1
 66
1
  0
VERTEX
  8
0
 10
1456.3846153846155
 20
667
 42
1
  0
VERTEX
  8
0
 10
1456.3846153846155
 20
617
 42
1
  0
SEQEND
  0
POLYLINE
  8
0
 10
0
 20
0
 39
0
 70
1
 66
1
  0
VERTEX
  8
0
 10
1674.3846153846155
 20
285.30769230769232
 42
-1
  0
VERTEX
  8
0
 10
1674.3846153846155
 20
85.307692307692307
 42
-0
  0
VERTEX
  8
0
 10
1619.3846153846155
 20
85.307692307692307
 42
0
  0
VERTEX
  8
0
 10
1619.3846153846155
 20
10.307692307692312
 42
-0
  0
VERTEX
  8
0
 10
1569.3846153846155
 20
10.307692307692308
 42
-0
  0
VERTEX
  8
0
 10
1569.3846153846155
 20
360.30769230769232
 42
-0
  0
VERTEX
  8
0
 10
1619.3846153846155
 20
360.30769230769232
 42
0
  0
VERTEX
  8
0
 10
1619.3846153846155
 20
285.30769230769232
 42
0
  0
SEQEND
  0
POLYLINE
  8
0
 10
0
 20
0
 39
0
 70
1
 66
1
  0
VERTEX
  8
0
 10
1674.3846153846155
 20
160.30769230769232
 42
1
  0
VERTEX
  8
0
 10
1674.3846153846155
 20
210.30769230769232
 42
1
  0
SEQEND
  0
POLYLINE
  8
0
 10
0
 20
0
 39
0
 70
1
 66
1
  0
VERTEX
  8
0
 10
1671.6923076923078
 20
357.84615384615381
 42
-1
  0
VERTEX
  8
0
 10
1671.6923076923078
 20
557.84615384615381
 42
-0
  0
VERTEX
  8
0
 10
1726.6923076923078
 20
557.84615384615381
 42
0
  0
VERTEX
  8
0
 10
1726.6923076923078
 20
632.84615384615381
 42
-0
  0
VERTEX
  8
0
 10
1776.6923076923078
 20
632.84615384615381
 42
-0
  0
VERTEX
  8
0
 10
1776.6923076923078
 20
282.84615384615381
 42
-0
  0
VERTEX
  8
0
 10
1726.6923076923078
 20
282.84615384615381
 42
0
  0
VERTEX
  8
0
 10
1726.6923076923078
 20
357.84615384615381
 42
0
  0
SEQEND
  0
POLYLINE
  8
0
 10
0
 20
0
 39
0
 70
1
 66
1
  0
VERTEX
  8
0
 10
1671.6923076923078
 20
482.84615384615381
 42
1
  0
VERTEX
  8
0
 10
1671.6923076923078
 20
432.84615384615381
 42
1
  0
SEQEND
  0
POLYLINE
  8
0
 10
0
 20
0
 39
0
 70
1
 66
1
  0
VERTEX
  8
0
 10
1676.6923076923078
 20
831.76923076923083
 42
-1
  0
VERTEX
  8
0
 10
1676.6923076923078
 20
631.76923076923083
 42
-0
  0
VERTEX
  8
0
 10
1621.6923076923078
 20
631.76923076923083
 42
0
  0
VERTEX
  8
0
 10
1621.6923076923078
 20
556.76923076923083
 42
-0
  0
VERTEX
  8
0
 10
1571.6923076923078
 20
556.76923076923083
 42
-0
  0
VERTEX
  8
0
 10
1571.6923076923078
 20
906.76923076923083
 42
-0
  0
VERTEX
  8
0
 10
1621.6923076923078
 20
906.76923076923083
 42
0
  0
VERTEX
  8
0
 10
1621.6923076923078
 20
831.76923076923083
 42
0
  0
SEQEND
  0
POLYLINE
  8
0
 10
0
 20
0
 39
0
 70
1
 66
1
  0
VERTEX
  8
0
 10
1676.6923076923078
 20
706.76923076923083
 42
1
  0
VERTEX
  8
0
 10
1676.6923076923078
 20
756.76923076923083
 42
1
  0
SEQEND
  0
POLYLINE
  8
0
 10
0
 20
0
 39
0
 70
1
 66
1
  0
VERTEX
  8
0
 10
1870.6153846153848
 20
713.92307692307702
 42
-1
  0
VERTEX
  8
0
 10
1870.6153846153848
 20
913.92307692307702
 42
-0
  0
VERTEX
  8
0
 10
1925.6153846153848
 20
913.92307692307702
 42
0
  0
VERTEX
  8
0
 10
1925.6153846153848
 20
988.92307692307702
 42
-0
  0
VERTEX
  8
0
 10
1975.6153846153848
 20
988.92307692307702
 42
-0
  0
VERTEX
  8
0
 10
1975.6153846153848
 20
638.92307692307702
 42
-0
  0
VERTEX
  8
0
 10
1925.6153846153848
 20
638.92307692307702
 42
0
  0
VERTEX
  8
0
 10
1925.6153846153848
 20
713.92307692307702
 42
0
  0
SEQEND
  0
POLYLINE
  8
0
 10
0
 20
0
 39
0
 70
1
 66
1
  0
VERTEX
  8
0
 10
1870.6153846153848
 20
838.92307692307702
 42
1
  0
VERTEX
  8
0
 10
1870.6153846153848
 20
788.92307692307702
 42
1
  0
SEQEND
  0
POLYLINE
  8
0
 10
0
 20
0
 39
0
 70
1
 66
1
  0
VERTEX
  8
0
 10
1878.2307692307693
 20
138.61538461538464
 42
-1
  0
VERTEX
  8
0
 10
1878.2307692307693
 20
338.61538461538464
 42
-0
  0
VERTEX
  8
0
 10
1933.2307692307693
 20
338.61538461538464
 42
0
  0
VERTEX
  8
0
 10
1933.2307692307693
 20
413.61538461538464
 42
-0
  0
VERTEX
  8
0
 10
1983.2307692307693
 20
413.61538461538464
 42
-0
  0
VERTEX
  8
0
 10
1983.2307692307693
 20
63.615384615384642
 42
-0
  0
VERTEX
  8
0
 10
1933.2307692307693
 20
63.615384615384642
 42
0
  0
VERTEX
  8
0
 10
1933.2307692307693
 20
138.61538461538464
 42
0
  0
SEQEND
  0
POLYLINE
  8
0
 10
0
 20
0
 39
0
 70
1
 66
1
  0
VERTEX
  8
0
 10
1878.2307692307693
 20
263.61538461538464
 42
1
  0
VERTEX
  8
0
 10
1878.2307692307693
 20
213.61538461538461
 42
1
  0
SEQEND
  0
POLYLINE
  8
0
 10
0
 20
0
 39
0
 70
1
 66
1
  0
VERTEX
  8
0
 10
1787.0000000000002
 20
553.84615384615381
 42
-0
  0
VERTEX
  8
0
 10
2112
 20
553.84615384615392
 42
-0
  0
VERTEX
  8
0
 10
2112
 20
423.84615384615387
 42
-0
  0
VERTEX
  8
0
 10
1787.0000000000002
 20
423.84615384615387
 42
-0
  0
SEQEND
  0
POLYLINE
  8
0
 10
0
 20
0
 39
0
 70
1
 66
1
  0
VERTEX
  8
0
 10
1817.0000000000002
 20
480.34615384615387
 42
1
  0
VERTEX
  8
0
 10
1817.0000000000002
 20
497.34615384615387
 42
1
  0
SEQEND
  0
POLYLINE
  8
0
 10
0
 20
0
 39
0
 70
1
 66
1
  0
VERTEX
  8
0
 10
1917.0000000000002
 20
435.84615384615387
 42
1
  0
VERTEX
  8
0
 10
1917.0000000000002
 20
451.84615384615387
 42
-0
  0
VERTEX
  8
0
 10
1857.0000000000002
 20
451.84615384615387
 42
1
  0
VERTEX
  8
0
 10
1857.0000000000002
 20
435.84615384615387
 42
0
  0
SEQEND
  0
POLYLINE
  8
0
 10
0
 20
0
 39
0
 70
1
 66
1
  0
VERTEX
  8
0
 10
1857.0000000000002
 20
525.84615384615381
 42
-0
  0
VERTEX
  8
0
 10
1917.0000000000002
 20
525.84615384615381
 42
1
  0
VERTEX
  8
0
 10
1917.0000000000002
 20
541.84615384615381
 42
0
  0
VERTEX
  8
0
 10
1857.0000000000002
 20
541.84615384615381
 42
1
  0
SEQEND
  0
POLYLINE
  8
0
 10
0
 20
0
 39
0
 70
1
 66
1
  0
VERTEX
  8
0
 10
1985.9230769230771
 20
563.92307692307691
 42
-0
  0
VERTEX
  8
0
 10
1985.9230769230771
 20
888.92307692307691
 42
-0
  0
VERTEX
  8
0
 10
2115.9230769230771
 20
888.92307692307691
 42
-0
  0
VERTEX
  8
0
 10
2115.9230769230771
 20
563.92307692307691
 42
-0
  0
SEQEND
  0
POLYLINE
  8
0
 10
0
 20
0
 39
0
 70
1
 66
1
  0
VERTEX
  8
0
 10
2059.4230769230771
 20
593.92307692307691
 42
1
  0
VERTEX
  8
0
 10
2042.4230769230771
 20
593.92307692307691
 42
1
  0
SEQEND
  0
POLYLINE
  8
0
 10
0
 20
0
 39
0
 70
1
 66
1
  0
VERTEX
  8
0
 10
2103.9230769230771
 20
693.92307692307691
 42
1
  0
VERTEX
  8
0
 10
2087.9230769230771
 20
693.92307692307691
 42
-0
  0
VERTEX
  8
0
 10
2087.9230769230771
 20
633.92307692307691
 42
1
  0
VERTEX
  8
0
 10
2103.9230769230771
 20
633.92307692307691
 42
0
  0
SEQEND
  0
POLYLINE
  8
0
 10
0
 20
0
 39
0
 70
1
 66
1
  0
VERTEX
  8
0
 10
2013.9230769230771
 20
633.92307692307691
 42
-0
  0
VERTEX
  8
0
 10
2013.9230769230771
 20
693.92307692307691
 42
1
  0
VERTEX
  8
0
 10
1997.9230769230771
 20
693.92307692307691
 42
0
  0
VERTEX
  8
0
 10
1997.9230769230771
 20
633.92307692307691
 42
1
  0
SEQEND
  0
POLYLINE
  8
0
 10
0
 20
0
 39
0
 70
1
 66
1
  0
VERTEX
  8
0
 10
1993.5384615384619
 20
10.307692307692307
 42
-0
  0
VERTEX
  8
0
 10
1993.5384615384619
 20
335.30769230769232
 42
-0
  0
VERTEX
  8
0
 10
2123.5384615384619
 20
335.30769230769232
 42
-0
  0
VERTEX
  8
0
 10
2123.5384615384619
 20
10.307692307692307
 42
-0
  0
SEQEND
  0
POLYLINE
  8
0
 10
0
 20
0
 39
0
 70
1
 66
1
  0
VERTEX
  8
0
 10
2067.0384615384619
 20
40.307692307692307
 42
1
  0
VERTEX
  8
0
 10
2050.0384615384619
 20
40.307692307692307
 42
1
  0
SEQEND
  0
POLYLINE
  8
0
 10
0
 20
0
 39
0
 70
1
 66
1
  0
VERTEX
  8
0
 10
2111.5384615384619
 20
140.30769230769232
 42
1
  0
VERTEX
  8
0
 10
2095.5384615384619
 20
140.30769230769232
 42
-0
  0
VERTEX
  8
0
 10
2095.5384615384619
 20
80.307692307692307
 42
1
  0
VERTEX
  8
0
 10
2111.5384615384619
 20
80.307692307692307
 42
0
  0
SEQEND
  0
POLYLINE
  8
0
 10
0
 20
0
 39
0
 70
1
 66
1
  0
VERTEX
  8
0
 10
2021.5384615384619
 20
80.307692307692307
 42
-0
  0
VERTEX
  8
0
 10
2021.5384615384619
 20
140.30769230769232
 42
1
  0
VERTEX
  8
0
 10
2005.5384615384619
 20
140.30769230769232
 42
0
  0
VERTEX
  8
0
 10
2005.5384615384619
 20
80.307692307692307
 42
1
  0
SEQEND
  0
POLYLINE
  8
0
 10
0
 20
0
 39
0
 70
1
 66
1
  0
VERTEX
  8
0
 10
2126.2307692307695
 20
345.38461538461542
 42
-0
  0
VERTEX
  8
0
 10
2126.2307692307695
 20
670.38461538461547
 42
-0
  0
VERTEX
  8
0
 10
2256.2307692307695
 20
670.38461538461547
 42
-0
  0
VERTEX
  8
0
 10
2256.2307692307695
 20
345.38461538461542
 42
-0
  0
SEQEND
  0
POLYLINE
  8
0
 10
0
 20
0
 39
0
 70
1
 66
1
  0
VERTEX
  8
0
 10
2199.7307692307695
 20
375.38461538461542
 42
1
  0
VERTEX
  8
0
 10
2182.7307692307695
 20
375.38461538461542
 42
1
  0
SEQEND
  0
POLYLINE
  8
0
 10
0
 20
0
 39
0
 70
1
 66
1
  0
VERTEX
  8
0
 10
2244.2307692307695
 20
475.38461538461542
 42
1
  0
VERTEX
  8
0
 10
2228.2307692307695
 20
475.38461538461542
 42
-0
  0
VERTEX
  8
0
 10
2228.2307692307695
 20
415.38461538461542
 42
1
  0
VERTEX
  8
0
 10
2244.2307692307695
 20
415.38461538461542
 42
0
  0
SEQEND
  0
POLYLINE
  8
0
 10
0
 20
0
 39
0
 70
1
 66
1
  0
VERTEX
  8
0
 10
2154.2307692307695
 20
415.38461538461542
 42
-0
  0
VERTEX
  8
0
 10
2154.2307692307695
 20
475.38461538461542
 42
1
  0
VERTEX
  8
0
 10
2138.2307692307695
 20
475.38461538461542
 42
0
  0
VERTEX
  8
0
 10
2138.2307692307695
 20
415.38461538461542
 42
1
  0
SEQEND
  0
POLYLINE
  8
0
 10
0
 20
0
 39
0
 70
1
 66
1
  0
VERTEX
  8
0
 10
2133.8461538461538
 20
10.307692307692307
 42
-0
  0
VERTEX
  8
0
 10
2133.8461538461538
 20
335.30769230769232
 42
-0
  0
VERTEX
  8
0
 10
2263.8461538461538
 20
335.30769230769232
 42
-0
  0
VERTEX
  8
0
 10
2263.8461538461538
 20
10.307692307692307
 42
-0
  0
SEQEND
  0
POLYLINE
  8
0
 10
0
 20
0
 39
0
 70
1
 66
1
  0
VERTEX
  8
0
 10
2207.3461538461538
 20
40.307692307692307
 42
1
  0
VERTEX
  8
0
 10
2190.3461538461538
 20
40.307692307692307
 42
1
  0
SEQEND
  0
POLYLINE
  8
0
 10
0
 20
0
 39
0
 70
1
 66
1
  0
VERTEX
  8
0
 10
2251.8461538461538
 20
140.30769230769232
 42
1
  0
VERTEX
  8
0
 10
2235.8461538461538
 20
140.30769230769232
 42
-0
  0
VERTEX
  8
0
 10
2235.8461538461538
 20
80.307692307692307
 42
1
  0
VERTEX
  8
0
 10
2251.8461538461538
 20
80.307692307692307
 42
0
  0
SEQEND
  0
POLYLINE
  8
0
 10
0
 20
0
 39
0
 70
1
 66
1
  0
VERTEX
  8
0
 10
2161.8461538461538
 20
80.307692307692307
 42
-0
  0
VERTEX
  8
0
 10
2161.8461538461538
 20
140.30769230769232
 42
1
  0
VERTEX
  8
0
 10
2145.8461538461538
 20
140.30769230769232
 42
0
  0
VERTEX
  8
0
 10
2145.8461538461538
 20
80.307692307692307
 42
1
  0
SEQEND
  0
POLYLINE
  8
0
 10
0
 20
0
 39
0
 70
1
 66
1
  0
VERTEX
  8
0
 10
2266.5384615384619
 20
345.38461538461542
 42
-0
  0
VERTEX
  8
0
 10
2266.5384615384619
 20
670.38461538461547
 42
-0
  0
VERTEX
  8
0
 10
2396.5384615384619
 20
670.38461538461547
 42
-0
  0
VERTEX
  8
0
 10
2396.5384615384619
 20
345.38461538461542
 42
-0
  0
SEQEND
  0
POLYLINE
  8
0
 10
0
 20
0
 39
0
 70
1
 66
1
  0
VERTEX
  8
0
 10
2340.0384615384619
 20
375.38461538461542
 42
1
  0
VERTEX
  8
0
 10
2323.0384615384619
 20
375.38461538461542
 42
1
  0
SEQEND
  0
POLYLINE
  8
0
 10
0
 20
0
 39
0
 70
1
 66
1
  0
VERTEX
  8
0
 10
2384.5384615384619
 20
475.38461538461542
 42
1
  0
VERTEX
  8
0
 10
2368.5384615384619
 20
475.38461538461542
 42
-0
  0
VERTEX
  8
0
 10
2368.5384615384619
 20
415.38461538461542
 42
1
  0
VERTEX
  8
0
 10
2384.5384615384619
 20
415.38461538461542
 42
0
  0
SEQEND
  0
POLYLINE
  8
0
 10
0
 20
0
 39
0
 70
1
 66
1
  0
VERTEX
  8
0
 10
2294.5384615384619
 20
415.38461538461542
 42
-0
  0
VERTEX
  8
0
 10
2294.5384615384619
 20
475.38461538461542
 42
1
  0
VERTEX
  8
0
 10
2278.5384615384619
 20
475.38461538461542
 42
0
  0
VERTEX
  8
0
 10
2278.5384615384619
 20
415.38461538461542
 42
1
  0
SEQEND
  0
POLYLINE
  8
0
 10
0
 20
0
 39
0
 70
1
 66
1
  0
VERTEX
  8
0
 10
2274.1538461538462
 20
10.307692307692307
 42
-0
  0
VERTEX
  8
0
 10
2274.1538461538462
 20
335.30769230769232
 42
-0
  0
VERTEX
  8
0
 10
2404.1538461538462
 20
335.30769230769232
 42
-0
  0
VERTEX
  8
0
 10
2404.1538461538462
 20
10.307692307692307
 42
-0
  0
SEQEND
  0
POLYLINE
  8
0
 10
0
 20
0
 39
0
 70
1
 66
1
  0
VERTEX
  8
0
 10
2347.6538461538462
 20
40.307692307692307
 42
1
  0
VERTEX
  8
0
 10
2330.6538461538462
 20
40.307692307692307
 42
1
  0
SEQEND
  0
POLYLINE
  8
0
 10
0
 20
0
 39
0
 70
1
 66
1
  0
VERTEX
  8
0
 10
2392.1538461538462
 20
140.30769230769232
 42
1
  0
VERTEX
  8
0
 10
2376.1538461538462
 20
140.30769230769232
 42
-0
  0
VERTEX
  8
0
 10
2376.1538461538462
 20
80.307692307692307
 42
1
  0
VERTEX
  8
0
 10
2392.1538461538462
 20
80.307692307692307
 42
0
  0
SEQEND
  0
POLYLINE
  8
0
 10
0
 20
0
 39
0
 70
1
 66
1
  0
VERTEX
  8
0
 10
2302.1538461538462
 20
80.307692307692307
 42
-0
  0
VERTEX
  8
0
 10
2302.1538461538462
 20
140.30769230769232
 42
1
  0
VERTEX
  8
0
 10
2286.1538461538462
 20
140.30769230769232
 42
0
  0
VERTEX
  8
0
 10
2286.1538461538462
 20
80.307692307692307
 42
1
  0
SEQEND
  0
POLYLINE
  8
0
 10
0
 20
0
 39
0
 70
1
 66
1
  0
VERTEX
  8
0
 10
2126.2307692307695
 20
680.46153846153845
 42
0
  0
VERTEX
  8
0
 10
2126.2307692307695
 20
782.4615413225614
 42
0
  0
VERTEX
  8
0
 10
2496.2307787675127
 20
782.4615413225614
 42
0
  0
VERTEX
  8
0
 10
2496.2307787675127
 20
680.46153846153845
 42
0
  0
SEQEND
  0
POLYLINE
  8
0
 10
0
 20
0
 39
0
 70
1
 66
1
  0
VERTEX
  8
0
 10
2427.2307787675127
 20
718.4615413225614
 42
1
  0
VERTEX
  8
0
 10
2427.2307787675127
 20
744.4615413225614
 42
1
  0
SEQEND
  0
POLYLINE
  8
0
 10
0
 20
0
 39
0
 70
1
 66
1
  0
VERTEX
  8
0
 10
2126.2307692307695
 20
792.61538461538464
 42
0
  0
VERTEX
  8
0
 10
2126.2307692307695
 20
894.61538747640759
 42
0
  0
VERTEX
  8
0
 10
2496.2307787675127
 20
894.61538747640759
 42
0
  0
VERTEX
  8
0
 10
2496.2307787675127
 20
792.61538461538464
 42
0
  0
SEQEND
  0
POLYLINE
  8
0
 10
0
 20
0
 39
0
 70
1
 66
1
  0
VERTEX
  8
0
 10
2427.2307787675127
 20
830.61538747640759
 42
1
  0
VERTEX
  8
0
 10
2427.2307787675127
 20
856.61538747640759
 42
1
  0
SEQEND
  0
POLYLINE
  8
0
 10
0
 20
0
 39
0
 70
1
 66
1
  0
VERTEX
  8
0
 10
2516.4615413225615
 20
10.307692307692308
 42
0
  0
VERTEX
  8
0
 10
2414.4615384615386
 20
10.307692307692308
 42
0
  0
VERTEX
  8
0
 10
2414.4615384615386
 20
380.30770184443548
 42
0
  0
VERTEX
  8
0
 10
2516.4615413225615
 20
380.30770184443548
 42
0
  0
SEQEND
  0
POLYLINE
  8
0
 10
0
 20
0
 39
0
 70
1
 66
1
  0
VERTEX
  8
0
 10
2478.4615384615386
 20
311.30770184443548
 42
1
  0
VERTEX
  8
0
 10
2452.4615384615386
 20
311.30770184443548
 42
1
  0
SEQEND
  0
POLYLINE
  8
0
 10
0
 20
0
 39
0
 70
1
 66
1
  0
VERTEX
  8
0
 10
2608.5384643994848
 20
390.38461538461542
 42
0
  0
VERTEX
  8
0
 10
2506.5384615384619
 20
390.38461538461542
 42
0
  0
VERTEX
  8
0
 10
2506.5384615384619
 20
760.38462492135864
 42
0
  0
VERTEX
  8
0
 10
2608.5384643994848
 20
760.38462492135864
 42
0
  0
SEQEND
  0
POLYLINE
  8
0
 10
0
 20
0
 39
0
 70
1
 66
1
  0
VERTEX
  8
0
 10
2570.5384615384619
 20
691.38462492135864
 42
1
  0
VERTEX
  8
0
 10
2544.5384615384619
 20
691.38462492135864
 42
1
  0
SEQEND
  0
POLYLINE
  8
0
 10
0
 20
0
 39
0
 70
1
 66
1
  0
VERTEX
  8
0
 10
2628.8461567071768
 20
10.307692307692308
 42
0
  0
VERTEX
  8
0
 10
2526.8461538461538
 20
10.307692307692308
 42
0
  0
VERTEX
  8
0
 10
2526.8461538461538
 20
380.30770184443548
 42
0
  0
VERTEX
  8
0
 10
2628.8461567071768
 20
380.30770184443548
 42
0
  0
SEQEND
  0
POLYLINE
  8
0
 10
0
 20
0
 39
0
 70
1
 66
1
  0
VERTEX
  8
0
 10
2590.8461538461538
 20
311.30770184443548
 42
1
  0
VERTEX
  8
0
 10
2564.8461538461538
 20
311.30770184443548
 42
1
  0
SEQEND
  0
POLYLINE
  8
0
 10
0
 20
0
 39
0
 70
1
 66
1
  0
VERTEX
  8
0
 10
2720.9230797841001
 20
390.38461538461542
 42
0
  0
VERTEX
  8
0
 10
2618.9230769230771
 20
390.38461538461542
 42
0
  0
VERTEX
  8
0
 10
2618.9230769230771
 20
760.38462492135864
 42
0
  0
VERTEX
  8
0
 10
2720.9230797841001
 20
760.38462492135864
 42
0
  0
SEQEND
  0
POLYLINE
  8
0
 10
0
 20
0
 39
0
 70
1
 66
1
  0
VERTEX
  8
0
 10
2682.9230769230771
 20
691.38462492135864
 42
1
  0
VERTEX
  8
0
 10
2656.9230769230771
 20
691.38462492135864
 42
1
  0
SEQEND
  0
POLYLINE
  8
0
 10
0
 20
0
 39
0
 70
1
 66
1
  0
VERTEX
  8
0
 10
2741.2307720917925
 20
10.307692307692308
 42
0
  0
VERTEX
  8
0
 10
2639.2307692307695
 20
10.307692307692308
 42
0
  0
VERTEX
  8
0
 10
2639.2307692307695
 20
380.30770184443548
 42
0
  0
VERTEX
  8
0
 10
2741.2307720917925
 20
380.30770184443548
 42
0
  0
SEQEND
  0
POLYLINE
  8
0
 10
0
 20
0
 39
0
 70
1
 66
1
  0
VERTEX
  8
0
 10
2703.2307692307695
 20
311.30770184443548
 42
1
  0
VERTEX
  8
0
 10
2677.2307692307695
 20
311.30770184443548
 42
1
  0
SEQEND
  0
POLYLINE
  8
0
 10
0
 20
0
 39
0
 70
1
 66
1
  0
VERTEX
  8
0
 10
2833.3076951687153
 20
390.38461538461542
 42
0
  0
VERTEX
  8
0
 10
2731.3076923076924
 20
390.38461538461542
 42
0
  0
VERTEX
  8
0
 10
2731.3076923076924
 20
760.38462492135864
 42
0
  0
VERTEX
  8
0
 10
2833.3076951687153
 20
760.38462492135864
 42
0
  0
SEQEND
  0
POLYLINE
  8
0
 10
0
 20
0
 39
0
 70
1
 66
1
  0
VERTEX
  8
0
 10
2795.3076923076924
 20
691.38462492135864
 42
1
  0
VERTEX
  8
0
 10
2769.3076923076924
 20
691.38462492135864
 42
1
  0
SEQEND
  0
POLYLINE
  8
0
 10
0
 20
0
 39
0
 70
1
 66
1
  0
VERTEX
  8
0
 10
2853.6153874764077
 20
10.307692307692308
 42
0
  0
VERTEX
  8
0
 10
2751.6153846153848
 20
10.307692307692308
 42
0
  0
VERTEX
  8
0
 10
2751.6153846153848
 20
380.30770184443548
 42
0
  0
VERTEX
  8
0
 10
2853.6153874764077
 20
380.30770184443548
 42
0
  0
SEQEND
  0
POLYLINE
  8
0
 10
0
 20
0
 39
0
 70
1
 66
1
  0
VERTEX
  8
0
 10
2815.6153846153848
 20
311.30770184443548
 42
1
  0
VERTEX
  8
0
 10
2789.6153846153848
 20
311.30770184443548
 42
1
  0
SEQEND
  0
POLYLINE
  8
0
 10
0
 20
0
 39
0
 70
1
 66
1
  0
VERTEX
  8
0
 10
2506.5384615384619
 20
770.46153846153857
 42
0
  0
VERTEX
  8
0
 10
2506.5384615384619
 20
872.46154132256152
 42
0
  0
VERTEX
  8
0
 10
2876.5384710752051
 20
872.46154132256152
 42
0
  0
VERTEX
  8
0
 10
2876.5384710752051
 20
770.46153846153857
 42
0
  0
SEQEND
  0
POLYLINE
  8
0
 10
0
 20
0
 39
0
 70
1
 66
1
  0
VERTEX
  8
0
 10
2807.5384710752051
 20
808.46154132256152
 42
1
  0
VERTEX
  8
0
 10
2807.5384710752051
 20
834.46154132256152
 42
1
  0
SEQEND
  0
POLYLINE
  8
0
 10
0
 20
0
 39
0
 70
1
 66
1
  0
VERTEX
  8
0
 10
2506.5384615384619
 20
882.61538461538464
 42
0
  0
VERTEX
  8
0
 10
2506.5384615384619
 20
984.61538747640759
 42
0
  0
VERTEX
  8
0
 10
2876.5384710752051
 20
984.61538747640759
 42
0
  0
VERTEX
  8
0
 10
2876.5384710752051
 20
882.61538461538464
 42
0
  0
SEQEND
  0
POLYLINE
  8
0
 10
0
 20
0
 39
0
 70
1
 66
1
  0
VERTEX
  8
0
 10
2807.5384710752051
 20
920.61538747640759
 42
1
  0
VERTEX
  8
0
 10
2807.5384710752051
 20
946.61538747640759
 42
1
  0
SEQEND
  0
POLYLINE
  8
0
 10
0
 20
0
 39
0
 70
1
 66
1
  0
VERTEX
  8
0
 10
1072.5384615384617
 20
611.84615384615381
 42
-0
  0
VERTEX
  8
0
 10
1072.5384615384617
 20
361.84615384615387
 42
-0.41421356797218323
  0
VERTEX
  8
0
 10
1062.5384615384617
 20
351.84615384615387
 42
-0
  0
VERTEX
  8
0
 10
982.53846153846166
 20
351.84615384615387
 42
-0
  0
VERTEX
  8
0
 10
982.53846153846166
 20
621.84615384615381
 42
-0
  0
VERTEX
  8
0
 10
1062.5384615384617
 20
621.84615384615381
 42
-0.41421356797218323
  0
SEQEND
  0
POLYLINE
  8
0
 10
0
 20
0
 39
0
 70
1
 66
1
  0
VERTEX
  8
0
 10
1017.5384615384617
 20
552.34615384615381
 42
1
  0
VERTEX
  8
0
 10
1017.5384615384617
 20
571.34615384615381
 42
1
  0
SEQEND
  0
POLYLINE
  8
0
 10
0
 20
0
 39
0
 70
1
 66
1
  0
VERTEX
  8
0
 10
1017.5384615384617
 20
452.34615384615387
 42
1
  0
VERTEX
  8
0
 10
1017.5384615384617
 20
471.34615384615387
 42
1
  0
SEQEND
  0
POLYLINE
  8
0
 10
0
 20
0
 39
0
 70
1
 66
1
  0
VERTEX
  8
0
 10
1247.5384615384617
 20
966.84615384615392
 42
-0
  0
VERTEX
  8
0
 10
1497.5384615384617
 20
966.84615384615392
 42
-0.41421356797218323
  0
VERTEX
  8
0
 10
1507.5384615384617
 20
956.84615384615392
 42
-0
  0
VERTEX
  8
0
 10
1507.5384615384617
 20
876.84615384615392
 42
-0
  0
VERTEX
  8
0
 10
1237.5384615384617
 20
876.84615384615392
 42
-0
  0
VERTEX
  8
0
 10
1237.5384615384617
 20
956.84615384615392
 42
-0.41421356797218323
  0
SEQEND
  0
POLYLINE
  8
0
 10
0
 20
0
 39
0
 70
1
 66
1
  0
VERTEX
  8
0
 10
1307.0384615384617
 20
911.84615384615392
 42
1
  0
VERTEX
  8
0
 10
1288.0384615384617
 20
911.84615384615392
 42
1
  0
SEQEND
  0
POLYLINE
  8
0
 10
0
 20
0
 39
0
 70
1
 66
1
  0
VERTEX
  8
0
 10
1407.0384615384617
 20
911.84615384615392
 42
1
  0
VERTEX
  8
0
 10
1388.0384615384617
 20
911.84615384615392
 42
1
  0
SEQEND
  0
POLYLINE
  8
0
 10
0
 20
0
 39
0
 70
1
 66
1
  0
VERTEX
  8
0
 10
2933.6923076923081
 20
650.38461538461547
 42
-0
  0
VERTEX
  8
0
 10
2933.6923076923081
 20
400.38461538461542
 42
-0.41421356797218323
  0
VERTEX
  8
0
 10
2923.6923076923081
 20
390.38461538461542
 42
-0
  0
VERTEX
  8
0
 10
2843.6923076923081
 20
390.38461538461542
 42
-0
  0
VERTEX
  8
0
 10
2843.6923076923081
 20
660.38461538461547
 42
-0
  0
VERTEX
  8
0
 10
2923.6923076923081
 20
660.38461538461547
 42
-0.41421356797218323
  0
SEQEND
  0
POLYLINE
  8
0
 10
0
 20
0
 39
0
 70
1
 66
1
  0
VERTEX
  8
0
 10
2878.6923076923081
 20
590.88461538461547
 42
1
  0
VERTEX
  8
0
 10
2878.6923076923081
 20
609.88461538461547
 42
1
  0
SEQEND
  0
POLYLINE
  8
0
 10
0
 20
0
 39
0
 70
1
 66
1
  0
VERTEX
  8
0
 10
2878.6923076923081
 20
490.88461538461542
 42
1
  0
VERTEX
  8
0
 10
2878.6923076923081
 20
509.88461538461542
 42
1
  0
SEQEND
  0
POLYLINE
  8
0
 10
0
 20
0
 39
0
 70
1
 66
1
  0
VERTEX
  8
0
 10
2954
 20
270.30769230769232
 42
-0
  0
VERTEX
  8
0
 10
2954
 20
20.307692307692314
 42
-0.41421356797218323
  0
VERTEX
  8
0
 10
2944
 20
10.307692307692314
 42
-0
  0
VERTEX
  8
0
 10
2864
 20
10.307692307692308
 42
-0
  0
VERTEX
  8
0
 10
2864
 20
280.30769230769232
 42
-0
  0
VERTEX
  8
0
 10
2944
 20
280.30769230769232
 42
-0.41421356797218323
  0
SEQEND
  0
POLYLINE
  8
0
 10
0
 20
0
 39
0
 70
1
 66
1
  0
VERTEX
  8
0
 10
2899
 20
210.80769230769232
 42
1
  0
VERTEX
  8
0
 10
2899
 20
229.80769230769232
 42
1
  0
SEQEND
  0
POLYLINE
  8
0
 10
0
 20
0
 39
0
 70
1
 66
1
  0
VERTEX
  8
0
 10
2899
 20
110.80769230769231
 42
1
  0
VERTEX
  8
0
 10
2899
 20
129.80769230769232
 42
1
  0
SEQEND
  0
POLYLINE
  8
0
 10
0
 20
0
 39
0
 70
1
 66
1
  0
VERTEX
  8
0
 10
10.307692307692321
 20
790.84243873449475
 42
-0
  0
VERTEX
  8
0
 10
24.623137253981383
 20
956.61538461538464
 42
-0
  0
VERTEX
  8
0
 10
131.62313725398138
 20
956.61538461538464
 42
0
  0
VERTEX
  8
0
 10
145.93858024821833
 20
790.84243873449475
 42
-0
  0
VERTEX
  8
0
 10
97.623137253981383
 20
786.61538461538464
 42
0
  0
VERTEX
  8
0
 10
93.571211594801696
 20
832.92907098623425
 42
0.36397022008895874
  0
VERTEX
  8
0
 10
83.723135728102477
 20
841.19259027334363
 42
-0
  0
VERTEX
  8
0
 10
72.52313877986029
 20
841.19259027334363
 42
0.36397022008895874
  0
VERTEX
  8
0
 10
62.675062913161071
 20
832.92907098623425
 42
-0
  0
VERTEX
  8
0
 10
58.623137253981383
 20
786.61538461538464
 42
-0
  0
SEQEND
  0
POLYLINE
  8
0
 10
0
 20
0
 39
0
 70
1
 66
1
  0
VERTEX
  8
0
 10
43.373137253981383
 20
931.61538461538464
 42
1
  0
VERTEX
  8
0
 10
32.873137253981383
 20
931.61538461538464
 42
1
  0
SEQEND
  0
POLYLINE
  8
0
 10
0
 20
0
 39
0
 70
1
 66
1
  0
VERTEX
  8
0
 10
123.37313725398138
 20
931.61538461538464
 42
1
  0
VERTEX
  8
0
 10
112.87313725398138
 20
931.61538461538464
 42
1
  0
SEQEND
  0
POLYLINE
  8
0
 10
0
 20
0
 39
0
 70
1
 66
1
  0
VERTEX
  8
0
 10
2240.9230769230771
 20
904.76923076923083
 42
-0
  0
VERTEX
  8
0
 10
1985.9230769230771
 20
904.76923076923083
 42
-0
  0
VERTEX
  8
0
 10
1985.9230769230771
 20
984.76923076923083
 42
-0
  0
VERTEX
  8
0
 10
2240.9230769230771
 20
984.76923076923083
 42
-0
  0
SEQEND
  0
POLYLINE
  8
0
 10
0
 20
0
 39
0
 70
1
 66
1
  0
VERTEX
  8
0
 10
2169.2230799748349
 20
944.76923076923083
 42
1
  0
VERTEX
  8
0
 10
2119.2230799748349
 20
944.76923076923083
 42
1
  0
SEQEND
  0
POLYLINE
  8
0
 10
0
 20
0
 39
0
 70
1
 66
1
  0
VERTEX
  8
0
 10
2107.6230738713193
 20
944.76923076923083
 42
1
  0
VERTEX
  8
0
 10
2057.6230738713193
 20
944.76923076923083
 42
1
  0
SEQEND
  0
POLYLINE
  8
0
 10
0
 20
0
 39
0
 70
1
 66
1
  0
VERTEX
  8
0
 10
2406.8461538461538
 20
390.38461538461542
 42
-0
  0
VERTEX
  8
0
 10
2406.8461538461538
 20
645.38461538461547
 42
-0
  0
VERTEX
  8
0
 10
2486.8461538461538
 20
645.38461538461547
 42
-0
  0
VERTEX
  8
0
 10
2486.8461538461538
 20
390.38461538461542
 42
-0
  0
SEQEND
  0
POLYLINE
  8
0
 10
0
 20
0
 39
0
 70
1
 66
1
  0
VERTEX
  8
0
 10
2446.8461538461538
 20
462.0846123328576
 42
1
  0
VERTEX
  8
0
 10
2446.8461538461538
 20
512.08461233285766
 42
1
  0
SEQEND
  0
POLYLINE
  8
0
 10
0
 20
0
 39
0
 70
1
 66
1
  0
VERTEX
  8
0
 10
2446.8461538461538
 20
523.68461843637328
 42
1
  0
VERTEX
  8
0
 10
2446.8461538461538
 20
573.68461843637328
 42
1
  0
SEQEND
  0
POLYLINE
  8
0
 10
0
 20
0
 39
0
 70
1
 66
1
  0
VERTEX
  8
0
 10
2886.8461538461543
 20
670.53846153846155
 42
-0
  0
VERTEX
  8
0
 10
2886.8461538461543
 20
925.53846153846155
 42
-0
  0
VERTEX
  8
0
 10
2966.8461538461543
 20
925.53846153846155
 42
-0
  0
VERTEX
  8
0
 10
2966.8461538461543
 20
670.53846153846155
 42
-0
  0
SEQEND
  0
POLYLINE
  8
0
 10
0
 20
0
 39
0
 70
1
 66
1
  0
VERTEX
  8
0
 10
2926.8461538461543
 20
742.23845848670373
 42
1
  0
VERTEX
  8
0
 10
2926.8461538461543
 20
792.23845848670373
 42
1
  0
SEQEND
  0
POLYLINE
  8
0
 10
0
 20
0
 39
0
 70
1
 66
1
  0
VERTEX
  8
0
 10
2926.8461538461543
 20
803.83846459021936
 42
1
  0
VERTEX
  8
0
 10
2926.8461538461543
 20
853.83846459021936
 42
1
  0
SEQEND
  0
POLYLINE
  8
0
 10
0
 20
0
 39
0
 70
1
 66
1
  0
VERTEX
  8
0
 10
331.07692307692309
 20
548.46153846153857
 42
0
  0
VERTEX
  8
0
 10
420.07692307692309
 20
548.46153846153857
 42
0
  0
VERTEX
  8
0
 10
420.07692307692309
 20
528.46153846153857
 42
1
  0
VERTEX
  8
0
 10
420.07692307692309
 20
418.46153846153851
 42
0
  0
VERTEX
  8
0
 10
420.07692307692309
 20
398.46153846153851
 42
0
  0
VERTEX
  8
0
 10
331.07692307692309
 20
398.46153846153851
 42
0
  0
SEQEND
  0
POLYLINE
  8
0
 10
0
 20
0
 39
0
 70
1
 66
1
  0
VERTEX
  8
0
 10
344.07692307692309
 20
407.96153846153851
 42
1
  0
VERTEX
  8
0
 10
344.07692307692309
 20
418.96153846153851
 42
1
  0
SEQEND
  0
POLYLINE
  8
0
 10
0
 20
0
 39
0
 70
1
 66
1
  0
VERTEX
  8
0
 10
344.07692307692309
 20
527.96153846153857
 42
1
  0
VERTEX
  8
0
 10
344.07692307692309
 20
538.96153846153857
 42
1
  0
SEQEND
  0
POLYLINE
  8
0
 10
0
 20
0
 39
0
 70
1
 66
1
  0
VERTEX
  8
0
 10
548.23076923076928
 20
936.61538461538464
 42
0
  0
VERTEX
  8
0
 10
637.23076923076928
 20
936.61538461538464
 42
0
  0
VERTEX
  8
0
 10
637.23076923076928
 20
916.61538461538464
 42
1
  0
VERTEX
  8
0
 10
637.23076923076928
 20
806.61538461538464
 42
0
  0
VERTEX
  8
0
 10
637.23076923076928
 20
786.61538461538464
 42
0
  0
VERTEX
  8
0
 10
548.23076923076928
 20
786.61538461538464
 42
0
  0
SEQEND
  0
POLYLINE
  8
0
 10
0
 20
0
 39
0
 70
1
 66
1
  0
VERTEX
  8
0
 10
561.23076923076928
 20
796.11538461538464
 42
1
  0
VERTEX
  8
0
 10
561.23076923076928
 20
807.11538461538464
 42
1
  0
SEQEND
  0
POLYLINE
  8
0
 10
0
 20
0
 39
0
 70
1
 66
1
  0
VERTEX
  8
0
 10
561.23076923076928
 20
916.11538461538464
 42
1
  0
VERTEX
  8
0
 10
561.23076923076928
 20
927.11538461538464
 42
1
  0
SEQEND
  0
POLYLINE
  8
0
 10
0
 20
0
 39
0
 70
1
 66
1
  0
VERTEX
  8
0
 10
1374.6153846153848
 20
160.30769230769232
 42
0
  0
VERTEX
  8
0
 10
1463.6153846153848
 20
160.30769230769232
 42
0
  0
VERTEX
  8
0
 10
1463.6153846153848
 20
140.30769230769232
 42
1
  0
VERTEX
  8
0
 10
1463.6153846153848
 20
30.307692307692314
 42
0
  0
VERTEX
  8
0
 10
1463.6153846153848
 20
10.307692307692314
 42
0
  0
VERTEX
  8
0
 10
1374.6153846153848
 20
10.307692307692308
 42
0
  0
SEQEND
  0
POLYLINE
  8
0
 10
0
 20
0
 39
0
 70
1
 66
1
  0
VERTEX
  8
0
 10
1387.6153846153848
 20
19.807692307692307
 42
1
  0
VERTEX
  8
0
 10
1387.6153846153848
 20
30.807692307692307
 42
1
  0
SEQEND
  0
POLYLINE
  8
0
 10
0
 20
0
 39
0
 70
1
 66
1
  0
VERTEX
  8
0
 10
1387.6153846153848
 20
139.80769230769232
 42
1
  0
VERTEX
  8
0
 10
1387.6153846153848
 20
150.80769230769232
 42
1
  0
SEQEND
  0
POLYLINE
  8
0
 10
0
 20
0
 39
0
 70
1
 66
1
  0
VERTEX
  8
0
 10
1667.9230769230771
 20
961.92307692307702
 42
0
  0
VERTEX
  8
0
 10
1667.9230769230771
 20
872.92307692307702
 42
0
  0
VERTEX
  8
0
 10
1647.9230769230771
 20
872.92307692307702
 42
1
  0
VERTEX
  8
0
 10
1537.9230769230771
 20
872.92307692307702
 42
0
  0
VERTEX
  8
0
 10
1517.9230769230771
 20
872.92307692307702
 42
0
  0
VERTEX
  8
0
 10
1517.9230769230771
 20
961.92307692307702
 42
0
  0
SEQEND
  0
POLYLINE
  8
0
 10
0
 20
0
 39
0
 70
1
 66
1
  0
VERTEX
  8
0
 10
1527.4230769230771
 20
948.92307692307702
 42
1
  0
VERTEX
  8
0
 10
1538.4230769230771
 20
948.92307692307702
 42
1
  0
SEQEND
  0
POLYLINE
  8
0
 10
0
 20
0
 39
0
 70
1
 66
1
  0
VERTEX
  8
0
 10
1647.4230769230771
 20
948.92307692307702
 42
1
  0
VERTEX
  8
0
 10
1658.4230769230771
 20
948.92307692307702
 42
1
  0
SEQEND
  0
POLYLINE
  8
0
 10
0
 20
0
 39
0
 70
1
 66
1
  0
VERTEX
  8
0
 10
1744.0769230769231
 20
10.307692307692308
 42
0
  0
VERTEX
  8
0
 10
1744.0769230769231
 20
99.307692307692307
 42
0
  0
VERTEX
  8
0
 10
1764.0769230769231
 20
99.307692307692307
 42
1
  0
VERTEX
  8
0
 10
1874.0769230769231
 20
99.307692307692307
 42
0
  0
VERTEX
  8
0
 10
1894.0769230769231
 20
99.307692307692307
 42
0
  0
VERTEX
  8
0
 10
1894.0769230769231
 20
10.307692307692308
 42
0
  0
SEQEND
  0
POLYLINE
  8
0
 10
0
 20
0
 39
0
 70
1
 66
1
  0
VERTEX
  8
0
 10
1884.5769230769231
 20
23.307692307692307
 42
1
  0
VERTEX
  8
0
 10
1873.5769230769231
 20
23.307692307692307
 42
1
  0
SEQEND
  0
POLYLINE
  8
0
 10
0
 20
0
 39
0
 70
1
 66
1
  0
VERTEX
  8
0
 10
1764.5769230769231
 20
23.307692307692307
 42
1
  0
VERTEX
  8
0
 10
1753.5769230769231
 20
23.307692307692307
 42
1
  0
SEQEND
  0
POLYLINE
  8
0
 10
0
 20
0
 39
0
 70
1
 66
1
  0
VERTEX
  8
0
 10
182.07692307692309
 20
987.00000000000011
 42
-0
  0
VERTEX
  8
0
 10
182.07692307692309
 20
887.00000000000011
 42
-0
  0
VERTEX
  8
0
 10
148.07692307692309
 20
887.00000000000011
 42
-0
  0
VERTEX
  8
0
 10
148.07692307692309
 20
987.00000000000011
 42
-0
  0
SEQEND
  0
POLYLINE
  8
0
 10
0
 20
0
 39
0
 70
1
 66
1
  0
VERTEX
  8
0
 10
165.07692307692309
 20
963.50000000000011
 42
1
  0
VERTEX
  8
0
 10
165.07692307692309
 20
980.50000000000011
 42
1
  0
SEQEND
  0
POLYLINE
  8
0
 10
0
 20
0
 39
0
 70
1
 66
1
  0
VERTEX
  8
0
 10
165.07692307692309
 20
893.50000000000011
 42
1
  0
VERTEX
  8
0
 10
165.07692307692309
 20
910.50000000000011
 42
1
  0
SEQEND
  0
POLYLINE
  8
0
 10
0
 20
0
 39
0
 70
1
 66
1
  0
VERTEX
  8
0
 10
331.07692307692309
 20
592.61538461538464
 42
-0
  0
VERTEX
  8
0
 10
431.07692307692309
 20
592.61538461538464
 42
-0
  0
VERTEX
  8
0
 10
431.07692307692309
 20
558.61538461538464
 42
-0
  0
VERTEX
  8
0
 10
331.07692307692309
 20
558.61538461538464
 42
-0
  0
SEQEND
  0
POLYLINE
  8
0
 10
0
 20
0
 39
0
 70
1
 66
1
  0
VERTEX
  8
0
 10
354.57692307692309
 20
575.61538461538464
 42
1
  0
VERTEX
  8
0
 10
337.57692307692309
 20
575.61538461538464
 42
1
  0
SEQEND
  0
POLYLINE
  8
0
 10
0
 20
0
 39
0
 70
1
 66
1
  0
VERTEX
  8
0
 10
424.57692307692309
 20
575.61538461538464
 42
1
  0
VERTEX
  8
0
 10
407.57692307692309
 20
575.61538461538464
 42
1
  0
SEQEND
  0
POLYLINE
  8
0
 10
0
 20
0
 39
0
 70
1
 66
1
  0
VERTEX
  8
0
 10
548.23076923076928
 20
980.76923076923083
 42
-0
  0
VERTEX
  8
0
 10
648.23076923076928
 20
980.76923076923083
 42
-0
  0
VERTEX
  8
0
 10
648.23076923076928
 20
946.76923076923083
 42
-0
  0
VERTEX
  8
0
 10
548.23076923076928
 20
946.76923076923083
 42
-0
  0
SEQEND
  0
POLYLINE
  8
0
 10
0
 20
0
 39
0
 70
1
 66
1
  0
VERTEX
  8
0
 10
571.73076923076928
 20
963.76923076923083
 42
1
  0
VERTEX
  8
0
 10
554.73076923076928
 20
963.76923076923083
 42
1
  0
SEQEND
  0
POLYLINE
  8
0
 10
0
 20
0
 39
0
 70
1
 66
1
  0
VERTEX
  8
0
 10
641.73076923076928
 20
963.76923076923083
 42
1
  0
VERTEX
  8
0
 10
624.73076923076928
 20
963.76923076923083
 42
1
  0
SEQEND
  0
POLYLINE
  8
0
 10
0
 20
0
 39
0
 70
1
 66
1
  0
VERTEX
  8
0
 10
992.76923076923083
 20
110.30769230769231
 42
-0
  0
VERTEX
  8
0
 10
992.76923076923083
 20
10.30769230769231
 42
-0
  0
VERTEX
  8
0
 10
958.76923076923083
 20
10.307692307692308
 42
-0
  0
VERTEX
  8
0
 10
958.76923076923083
 20
110.30769230769231
 42
-0
  0
SEQEND
  0
POLYLINE
  8
0
 10
0
 20
0
 39
0
 70
1
 66
1
  0
VERTEX
  8
0
 10
975.76923076923083
 20
86.807692307692307
 42
1
  0
VERTEX
  8
0
 10
975.76923076923083
 20
103.80769230769231
 42
1
  0
SEQEND
  0
POLYLINE
  8
0
 10
0
 20
0
 39
0
 70
1
 66
1
  0
VERTEX
  8
0
 10
975.76923076923083
 20
16.80769230769231
 42
1
  0
VERTEX
  8
0
 10
975.76923076923083
 20
33.807692307692307
 42
1
  0
SEQEND
  0
POLYLINE
  8
0
 10
0
 20
0
 39
0
 70
1
 66
1
  0
VERTEX
  8
0
 10
1016.5384615384617
 20
939.69230769230774
 42
-0
  0
VERTEX
  8
0
 10
1016.5384615384617
 20
839.69230769230774
 42
-0
  0
VERTEX
  8
0
 10
982.53846153846166
 20
839.69230769230774
 42
-0
  0
VERTEX
  8
0
 10
982.53846153846166
 20
939.69230769230774
 42
-0
  0
SEQEND
  0
POLYLINE
  8
0
 10
0
 20
0
 39
0
 70
1
 66
1
  0
VERTEX
  8
0
 10
999.53846153846166
 20
916.19230769230774
 42
1
  0
VERTEX
  8
0
 10
999.53846153846166
 20
933.19230769230774
 42
1
  0
SEQEND
  0
POLYLINE
  8
0
 10
0
 20
0
 39
0
 70
1
 66
1
  0
VERTEX
  8
0
 10
999.53846153846166
 20
846.19230769230774
 42
1
  0
VERTEX
  8
0
 10
999.53846153846166
 20
863.19230769230774
 42
1
  0
SEQEND
  0
POLYLINE
  8
0
 10
0
 20
0
 39
0
 70
1
 66
1
  0
VERTEX
  8
0
 10
1037.0769230769231
 20
110.30769230769231
 42
-0
  0
VERTEX
  8
0
 10
1037.0769230769231
 20
10.30769230769231
 42
-0
  0
VERTEX
  8
0
 10
1003.0769230769231
 20
10.307692307692308
 42
-0
  0
VERTEX
  8
0
 10
1003.0769230769231
 20
110.30769230769231
 42
-0
  0
SEQEND
  0
POLYLINE
  8
0
 10
0
 20
0
 39
0
 70
1
 66
1
  0
VERTEX
  8
0
 10
1020.0769230769231
 20
86.807692307692307
 42
1
  0
VERTEX
  8
0
 10
1020.0769230769231
 20
103.80769230769231
 42
1
  0
SEQEND
  0
POLYLINE
  8
0
 10
0
 20
0
 39
0
 70
1
 66
1
  0
VERTEX
  8
0
 10
1020.0769230769231
 20
16.80769230769231
 42
1
  0
VERTEX
  8
0
 10
1020.0769230769231
 20
33.807692307692307
 42
1
  0
SEQEND
  0
POLYLINE
  8
0
 10
0
 20
0
 39
0
 70
1
 66
1
  0
VERTEX
  8
0
 10
1060.846153846154
 20
948.69230769230774
 42
-0
  0
VERTEX
  8
0
 10
1060.846153846154
 20
848.69230769230774
 42
-0
  0
VERTEX
  8
0
 10
1026.846153846154
 20
848.69230769230774
 42
-0
  0
VERTEX
  8
0
 10
1026.846153846154
 20
948.69230769230774
 42
-0
  0
SEQEND
  0
POLYLINE
  8
0
 10
0
 20
0
 39
0
 70
1
 66
1
  0
VERTEX
  8
0
 10
1043.846153846154
 20
925.19230769230774
 42
1
  0
VERTEX
  8
0
 10
1043.846153846154
 20
942.19230769230774
 42
1
  0
SEQEND
  0
POLYLINE
  8
0
 10
0
 20
0
 39
0
 70
1
 66
1
  0
VERTEX
  8
0
 10
1043.846153846154
 20
855.19230769230774
 42
1
  0
VERTEX
  8
0
 10
1043.846153846154
 20
872.19230769230774
 42
1
  0
SEQEND
  0
POLYLINE
  8
0
 10
0
 20
0
 39
0
 70
1
 66
1
  0
VERTEX
  8
0
 10
1081.3846153846155
 20
110.30769230769231
 42
-0
  0
VERTEX
  8
0
 10
1081.3846153846155
 20
10.30769230769231
 42
-0
  0
VERTEX
  8
0
 10
1047.3846153846155
 20
10.307692307692308
 42
-0
  0
VERTEX
  8
0
 10
1047.3846153846155
 20
110.30769230769231
 42
-0
  0
SEQEND
  0
POLYLINE
  8
0
 10
0
 20
0
 39
0
 70
1
 66
1
  0
VERTEX
  8
0
 10
1064.3846153846155
 20
86.807692307692307
 42
1
  0
VERTEX
  8
0
 10
1064.3846153846155
 20
103.80769230769231
 42
1
  0
SEQEND
  0
POLYLINE
  8
0
 10
0
 20
0
 39
0
 70
1
 66
1
  0
VERTEX
  8
0
 10
1064.3846153846155
 20
16.80769230769231
 42
1
  0
VERTEX
  8
0
 10
1064.3846153846155
 20
33.807692307692307
 42
1
  0
SEQEND
  0
POLYLINE
  8
0
 10
0
 20
0
 39
0
 70
1
 66
1
  0
VERTEX
  8
0
 10
1105.1538461538462
 20
948.69230769230774
 42
-0
  0
VERTEX
  8
0
 10
1105.1538461538462
 20
848.69230769230774
 42
-0
  0
VERTEX
  8
0
 10
1071.1538461538462
 20
848.69230769230774
 42
-0
  0
VERTEX
  8
0
 10
1071.1538461538462
 20
948.69230769230774
 42
-0
  0
SEQEND
  0
POLYLINE
  8
0
 10
0
 20
0
 39
0
 70
1
 66
1
  0
VERTEX
  8
0
 10
1088.1538461538462
 20
925.19230769230774
 42
1
  0
VERTEX
  8
0
 10
1088.1538461538462
 20
942.19230769230774
 42
1
  0
SEQEND
  0
POLYLINE
  8
0
 10
0
 20
0
 39
0
 70
1
 66
1
  0
VERTEX
  8
0
 10
1088.1538461538462
 20
855.19230769230774
 42
1
  0
VERTEX
  8
0
 10
1088.1538461538462
 20
872.19230769230774
 42
1
  0
SEQEND
  0
POLYLINE
  8
0
 10
0
 20
0
 39
0
 70
1
 66
1
  0
VERTEX
  8
0
 10
1116.9230769230769
 20
526.84615384615381
 42
-0
  0
VERTEX
  8
0
 10
1116.9230769230769
 20
426.84615384615387
 42
-0
  0
VERTEX
  8
0
 10
1082.9230769230769
 20
426.84615384615387
 42
-0
  0
VERTEX
  8
0
 10
1082.9230769230769
 20
526.84615384615381
 42
-0
  0
SEQEND
  0
POLYLINE
  8
0
 10
0
 20
0
 39
0
 70
1
 66
1
  0
VERTEX
  8
0
 10
1099.9230769230769
 20
503.34615384615387
 42
1
  0
VERTEX
  8
0
 10
1099.9230769230769
 20
520.34615384615381
 42
1
  0
SEQEND
  0
POLYLINE
  8
0
 10
0
 20
0
 39
0
 70
1
 66
1
  0
VERTEX
  8
0
 10
1099.9230769230769
 20
433.34615384615387
 42
1
  0
VERTEX
  8
0
 10
1099.9230769230769
 20
450.34615384615387
 42
1
  0
SEQEND
  0
POLYLINE
  8
0
 10
0
 20
0
 39
0
 70
1
 66
1
  0
VERTEX
  8
0
 10
1113.3846153846155
 20
989.53846153846155
 42
-0
  0
VERTEX
  8
0
 10
1213.3846153846155
 20
989.53846153846155
 42
-0
  0
VERTEX
  8
0
 10
1213.3846153846155
 20
955.53846153846155
 42
-0
  0
VERTEX
  8
0
 10
1113.3846153846155
 20
955.53846153846155
 42
-0
  0
SEQEND
  0
POLYLINE
  8
0
 10
0
 20
0
 39
0
 70
1
 66
1
  0
VERTEX
  8
0
 10
1136.8846153846155
 20
972.53846153846155
 42
1
  0
VERTEX
  8
0
 10
1119.8846153846155
 20
972.53846153846155
 42
1
  0
SEQEND
  0
POLYLINE
  8
0
 10
0
 20
0
 39
0
 70
1
 66
1
  0
VERTEX
  8
0
 10
1206.8846153846155
 20
972.53846153846155
 42
1
  0
VERTEX
  8
0
 10
1189.8846153846155
 20
972.53846153846155
 42
1
  0
SEQEND
  0
POLYLINE
  8
0
 10
0
 20
0
 39
0
 70
1
 66
1
  0
VERTEX
  8
0
 10
1222.3076923076924
 20
44.307692307692307
 42
-0
  0
VERTEX
  8
0
 10
1322.3076923076924
 20
44.307692307692307
 42
-0
  0
VERTEX
  8
0
 10
1322.3076923076924
 20
10.307692307692308
 42
-0
  0
VERTEX
  8
0
 10
1222.3076923076924
 20
10.307692307692308
 42
-0
  0
SEQEND
  0
POLYLINE
  8
0
 10
0
 20
0
 39
0
 70
1
 66
1
  0
VERTEX
  8
0
 10
1245.8076923076924
 20
27.307692307692307
 42
1
  0
VERTEX
  8
0
 10
1228.8076923076924
 20
27.307692307692307
 42
1
  0
SEQEND
  0
POLYLINE
  8
0
 10
0
 20
0
 39
0
 70
1
 66
1
  0
VERTEX
  8
0
 10
1315.8076923076924
 20
27.307692307692307
 42
1
  0
VERTEX
  8
0
 10
1298.8076923076924
 20
27.307692307692307
 42
1
  0
SEQEND
  0
POLYLINE
  8
0
 10
0
 20
0
 39
0
 70
1
 66
1
  0
VERTEX
  8
0
 10
1390.3846153846155
 20
472.38461538461542
 42
-0
  0
VERTEX
  8
0
 10
1390.3846153846155
 20
372.38461538461542
 42
-0
  0
VERTEX
  8
0
 10
1356.3846153846155
 20
372.38461538461542
 42
-0
  0
VERTEX
  8
0
 10
1356.3846153846155
 20
472.38461538461542
 42
-0
  0
SEQEND
  0
POLYLINE
  8
0
 10
0
 20
0
 39
0
 70
1
 66
1
  0
VERTEX
  8
0
 10
1373.3846153846155
 20
448.88461538461542
 42
1
  0
VERTEX
  8
0
 10
1373.3846153846155
 20
465.88461538461542
 42
1
  0
SEQEND
  0
POLYLINE
  8
0
 10
0
 20
0
 39
0
 70
1
 66
1
  0
VERTEX
  8
0
 10
1373.3846153846155
 20
378.88461538461542
 42
1
  0
VERTEX
  8
0
 10
1373.3846153846155
 20
395.88461538461542
 42
1
  0
SEQEND
  0
POLYLINE
  8
0
 10
0
 20
0
 39
0
 70
1
 66
1
  0
VERTEX
  8
0
 10
1426.3846153846155
 20
848.53846153846155
 42
-0
  0
VERTEX
  8
0
 10
1426.3846153846155
 20
748.53846153846155
 42
-0
  0
VERTEX
  8
0
 10
1392.3846153846155
 20
748.53846153846155
 42
-0
  0
VERTEX
  8
0
 10
1392.3846153846155
 20
848.53846153846155
 42
-0
  0
SEQEND
  0
POLYLINE
  8
0
 10
0
 20
0
 39
0
 70
1
 66
1
  0
VERTEX
  8
0
 10
1409.3846153846155
 20
825.03846153846155
 42
1
  0
VERTEX
  8
0
 10
1409.3846153846155
 20
842.03846153846155
 42
1
  0
SEQEND
  0
POLYLINE
  8
0
 10
0
 20
0
 39
0
 70
1
 66
1
  0
VERTEX
  8
0
 10
1409.3846153846155
 20
755.03846153846155
 42
1
  0
VERTEX
  8
0
 10
1409.3846153846155
 20
772.03846153846155
 42
1
  0
SEQEND
  0
POLYLINE
  8
0
 10
0
 20
0
 39
0
 70
1
 66
1
  0
VERTEX
  8
0
 10
1434.6923076923078
 20
490.61538461538464
 42
-0
  0
VERTEX
  8
0
 10
1434.6923076923078
 20
390.61538461538464
 42
-0
  0
VERTEX
  8
0
 10
1400.6923076923078
 20
390.61538461538464
 42
-0
  0
VERTEX
  8
0
 10
1400.6923076923078
 20
490.61538461538464
 42
-0
  0
SEQEND
  0
POLYLINE
  8
0
 10
0
 20
0
 39
0
 70
1
 66
1
  0
VERTEX
  8
0
 10
1417.6923076923078
 20
467.11538461538464
 42
1
  0
VERTEX
  8
0
 10
1417.6923076923078
 20
484.11538461538464
 42
1
  0
SEQEND
  0
POLYLINE
  8
0
 10
0
 20
0
 39
0
 70
1
 66
1
  0
VERTEX
  8
0
 10
1417.6923076923078
 20
397.11538461538464
 42
1
  0
VERTEX
  8
0
 10
1417.6923076923078
 20
414.11538461538464
 42
1
  0
SEQEND
  0
POLYLINE
  8
0
 10
0
 20
0
 39
0
 70
1
 66
1
  0
VERTEX
  8
0
 10
1470.6923076923078
 20
852.23076923076928
 42
-0
  0
VERTEX
  8
0
 10
1470.6923076923078
 20
752.23076923076928
 42
-0
  0
VERTEX
  8
0
 10
1436.6923076923078
 20
752.23076923076928
 42
-0
  0
VERTEX
  8
0
 10
1436.6923076923078
 20
852.23076923076928
 42
-0
  0
SEQEND
  0
POLYLINE
  8
0
 10
0
 20
0
 39
0
 70
1
 66
1
  0
VERTEX
  8
0
 10
1453.6923076923078
 20
828.73076923076928
 42
1
  0
VERTEX
  8
0
 10
1453.6923076923078
 20
845.73076923076928
 42
1
  0
SEQEND
  0
POLYLINE
  8
0
 10
0
 20
0
 39
0
 70
1
 66
1
  0
VERTEX
  8
0
 10
1453.6923076923078
 20
758.73076923076928
 42
1
  0
VERTEX
  8
0
 10
1453.6923076923078
 20
775.73076923076928
 42
1
  0
SEQEND
  0
POLYLINE
  8
0
 10
0
 20
0
 39
0
 70
1
 66
1
  0
VERTEX
  8
0
 10
1479
 20
492
 42
-0
  0
VERTEX
  8
0
 10
1479
 20
392
 42
-0
  0
VERTEX
  8
0
 10
1445
 20
392
 42
-0
  0
VERTEX
  8
0
 10
1445
 20
492
 42
-0
  0
SEQEND
  0
POLYLINE
  8
0
 10
0
 20
0
 39
0
 70
1
 66
1
  0
VERTEX
  8
0
 10
1462
 20
468.5
 42
1
  0
VERTEX
  8
0
 10
1462
 20
485.5
 42
1
  0
SEQEND
  0
POLYLINE
  8
0
 10
0
 20
0
 39
0
 70
1
 66
1
  0
VERTEX
  8
0
 10
1462
 20
398.5
 42
1
  0
VERTEX
  8
0
 10
1462
 20
415.5
 42
1
  0
SEQEND
  0
POLYLINE
  8
0
 10
0
 20
0
 39
0
 70
1
 66
1
  0
VERTEX
  8
0
 10
1425.6153846153848
 20
96.461538461538467
 42
-0
  0
VERTEX
  8
0
 10
1525.6153846153848
 20
96.461538461538467
 42
-0
  0
VERTEX
  8
0
 10
1525.6153846153848
 20
62.461538461538467
 42
-0
  0
VERTEX
  8
0
 10
1425.6153846153848
 20
62.461538461538467
 42
-0
  0
SEQEND
  0
POLYLINE
  8
0
 10
0
 20
0
 39
0
 70
1
 66
1
  0
VERTEX
  8
0
 10
1449.1153846153848
 20
79.461538461538467
 42
1
  0
VERTEX
  8
0
 10
1432.1153846153848
 20
79.461538461538467
 42
1
  0
SEQEND
  0
POLYLINE
  8
0
 10
0
 20
0
 39
0
 70
1
 66
1
  0
VERTEX
  8
0
 10
1519.1153846153848
 20
79.461538461538467
 42
1
  0
VERTEX
  8
0
 10
1502.1153846153848
 20
79.461538461538467
 42
1
  0
SEQEND
  0
POLYLINE
  8
0
 10
0
 20
0
 39
0
 70
1
 66
1
  0
VERTEX
  8
0
 10
1712.3076923076924
 20
942.23076923076928
 42
-0
  0
VERTEX
  8
0
 10
1712.3076923076924
 20
842.23076923076928
 42
-0
  0
VERTEX
  8
0
 10
1678.3076923076924
 20
842.23076923076928
 42
-0
  0
VERTEX
  8
0
 10
1678.3076923076924
 20
942.23076923076928
 42
-0
  0
SEQEND
  0
POLYLINE
  8
0
 10
0
 20
0
 39
0
 70
1
 66
1
  0
VERTEX
  8
0
 10
1695.3076923076924
 20
918.73076923076928
 42
1
  0
VERTEX
  8
0
 10
1695.3076923076924
 20
935.73076923076928
 42
1
  0
SEQEND
  0
POLYLINE
  8
0
 10
0
 20
0
 39
0
 70
1
 66
1
  0
VERTEX
  8
0
 10
1695.3076923076924
 20
848.73076923076928
 42
1
  0
VERTEX
  8
0
 10
1695.3076923076924
 20
865.73076923076928
 42
1
  0
SEQEND
  0
POLYLINE
  8
0
 10
0
 20
0
 39
0
 70
1
 66
1
  0
VERTEX
  8
0
 10
1629.846153846154
 20
44.307692307692307
 42
-0
  0
VERTEX
  8
0
 10
1729.846153846154
 20
44.307692307692307
 42
-0
  0
VERTEX
  8
0
 10
1729.846153846154
 20
10.307692307692308
 42
-0
  0
VERTEX
  8
0
 10
1629.846153846154
 20
10.307692307692308
 42
-0
  0
SEQEND
  0
POLYLINE
  8
0
 10
0
 20
0
 39
0
 70
1
 66
1
  0
VERTEX
  8
0
 10
1653.346153846154
 20
27.307692307692307
 42
1
  0
VERTEX
  8
0
 10
1636.346153846154
 20
27.307692307692307
 42
1
  0
SEQEND
  0
POLYLINE
  8
0
 10
0
 20
0
 39
0
 70
1
 66
1
  0
VERTEX
  8
0
 10
1723.346153846154
 20
27.307692307692307
 42
1
  0
VERTEX
  8
0
 10
1706.346153846154
 20
27.307692307692307
 42
1
  0
SEQEND
  0
POLYLINE
  8
0
 10
0
 20
0
 39
0
 70
1
 66
1
  0
VERTEX
  8
0
 10
1756.6153846153848
 20
932.53846153846155
 42
-0
  0
VERTEX
  8
0
 10
1756.6153846153848
 20
832.53846153846155
 42
-0
  0
VERTEX
  8
0
 10
1722.6153846153848
 20
832.53846153846155
 42
-0
  0
VERTEX
  8
0
 10
1722.6153846153848
 20
932.53846153846155
 42
-0
  0
SEQEND
  0
POLYLINE
  8
0
 10
0
 20
0
 39
0
 70
1
 66
1
  0
VERTEX
  8
0
 10
1739.6153846153848
 20
909.03846153846155
 42
1
  0
VERTEX
  8
0
 10
1739.6153846153848
 20
926.03846153846155
 42
1
  0
SEQEND
  0
POLYLINE
  8
0
 10
0
 20
0
 39
0
 70
1
 66
1
  0
VERTEX
  8
0
 10
1739.6153846153848
 20
839.03846153846155
 42
1
  0
VERTEX
  8
0
 10
1739.6153846153848
 20
856.03846153846155
 42
1
  0
SEQEND
  0
POLYLINE
  8
0
 10
0
 20
0
 39
0
 70
1
 66
1
  0
VERTEX
  8
0
 10
1678.3076923076924
 20
986.30769230769238
 42
-0
  0
VERTEX
  8
0
 10
1778.3076923076924
 20
986.30769230769238
 42
-0
  0
VERTEX
  8
0
 10
1778.3076923076924
 20
952.30769230769238
 42
-0
  0
VERTEX
  8
0
 10
1678.3076923076924
 20
952.30769230769238
 42
-0
  0
SEQEND
  0
POLYLINE
  8
0
 10
0
 20
0
 39
0
 70
1
 66
1
  0
VERTEX
  8
0
 10
1701.8076923076924
 20
969.30769230769238
 42
1
  0
VERTEX
  8
0
 10
1684.8076923076924
 20
969.30769230769238
 42
1
  0
SEQEND
  0
POLYLINE
  8
0
 10
0
 20
0
 39
0
 70
1
 66
1
  0
VERTEX
  8
0
 10
1771.8076923076924
 20
969.30769230769238
 42
1
  0
VERTEX
  8
0
 10
1754.8076923076924
 20
969.30769230769238
 42
1
  0
SEQEND
  0
POLYLINE
  8
0
 10
0
 20
0
 39
0
 70
1
 66
1
  0
VERTEX
  8
0
 10
1821.0000000000002
 20
663.92307692307691
 42
-0
  0
VERTEX
  8
0
 10
1821.0000000000002
 20
563.92307692307691
 42
-0
  0
VERTEX
  8
0
 10
1787.0000000000002
 20
563.92307692307691
 42
-0
  0
VERTEX
  8
0
 10
1787.0000000000002
 20
663.92307692307691
 42
-0
  0
SEQEND
  0
POLYLINE
  8
0
 10
0
 20
0
 39
0
 70
1
 66
1
  0
VERTEX
  8
0
 10
1804.0000000000002
 20
640.42307692307691
 42
1
  0
VERTEX
  8
0
 10
1804.0000000000002
 20
657.42307692307691
 42
1
  0
SEQEND
  0
POLYLINE
  8
0
 10
0
 20
0
 39
0
 70
1
 66
1
  0
VERTEX
  8
0
 10
1804.0000000000002
 20
570.42307692307691
 42
1
  0
VERTEX
  8
0
 10
1804.0000000000002
 20
587.42307692307691
 42
1
  0
SEQEND
  0
POLYLINE
  8
0
 10
0
 20
0
 39
0
 70
1
 66
1
  0
VERTEX
  8
0
 10
1865.3076923076924
 20
663.92307692307691
 42
-0
  0
VERTEX
  8
0
 10
1865.3076923076924
 20
563.92307692307691
 42
-0
  0
VERTEX
  8
0
 10
1831.3076923076924
 20
563.92307692307691
 42
-0
  0
VERTEX
  8
0
 10
1831.3076923076924
 20
663.92307692307691
 42
-0
  0
SEQEND
  0
POLYLINE
  8
0
 10
0
 20
0
 39
0
 70
1
 66
1
  0
VERTEX
  8
0
 10
1848.3076923076924
 20
640.42307692307691
 42
1
  0
VERTEX
  8
0
 10
1848.3076923076924
 20
657.42307692307691
 42
1
  0
SEQEND
  0
POLYLINE
  8
0
 10
0
 20
0
 39
0
 70
1
 66
1
  0
VERTEX
  8
0
 10
1848.3076923076924
 20
570.42307692307691
 42
1
  0
VERTEX
  8
0
 10
1848.3076923076924
 20
587.42307692307691
 42
1
  0
SEQEND
  0
POLYLINE
  8
0
 10
0
 20
0
 39
0
 70
1
 66
1
  0
VERTEX
  8
0
 10
1787.0000000000002
 20
382.84615384615387
 42
-0
  0
VERTEX
  8
0
 10
1887.0000000000002
 20
382.84615384615387
 42
-0
  0
VERTEX
  8
0
 10
1887.0000000000002
 20
348.84615384615387
 42
-0
  0
VERTEX
  8
0
 10
1787.0000000000002
 20
348.84615384615387
 42
-0
  0
SEQEND
  0
POLYLINE
  8
0
 10
0
 20
0
 39
0
 70
1
 66
1
  0
VERTEX
  8
0
 10
1810.5000000000002
 20
365.84615384615387
 42
1
  0
VERTEX
  8
0
 10
1793.5000000000002
 20
365.84615384615387
 42
1
  0
SEQEND
  0
POLYLINE
  8
0
 10
0
 20
0
 39
0
 70
1
 66
1
  0
VERTEX
  8
0
 10
1880.5000000000002
 20
365.84615384615387
 42
1
  0
VERTEX
  8
0
 10
1863.5000000000002
 20
365.84615384615387
 42
1
  0
SEQEND
  0
POLYLINE
  8
0
 10
0
 20
0
 39
0
 70
1
 66
1
  0
VERTEX
  8
0
 10
1788.6153846153848
 20
958.15384615384619
 42
-0
  0
VERTEX
  8
0
 10
1888.6153846153848
 20
958.15384615384619
 42
-0
  0
VERTEX
  8
0
 10
1888.6153846153848
 20
924.15384615384619
 42
-0
  0
VERTEX
  8
0
 10
1788.6153846153848
 20
924.15384615384619
 42
-0
  0
SEQEND
  0
POLYLINE
  8
0
 10
0
 20
0
 39
0
 70
1
 66
1
  0
VERTEX
  8
0
 10
1812.1153846153848
 20
941.15384615384619
 42
1
  0
VERTEX
  8
0
 10
1795.1153846153848
 20
941.15384615384619
 42
1
  0
SEQEND
  0
POLYLINE
  8
0
 10
0
 20
0
 39
0
 70
1
 66
1
  0
VERTEX
  8
0
 10
1882.1153846153848
 20
941.15384615384619
 42
1
  0
VERTEX
  8
0
 10
1865.1153846153848
 20
941.15384615384619
 42
1
  0
SEQEND
  0
POLYLINE
  8
0
 10
0
 20
0
 39
0
 70
1
 66
1
  0
VERTEX
  8
0
 10
1909.6153846153848
 20
663.92307692307691
 42
-0
  0
VERTEX
  8
0
 10
1909.6153846153848
 20
563.92307692307691
 42
-0
  0
VERTEX
  8
0
 10
1875.6153846153848
 20
563.92307692307691
 42
-0
  0
VERTEX
  8
0
 10
1875.6153846153848
 20
663.92307692307691
 42
-0
  0
SEQEND
  0
POLYLINE
  8
0
 10
0
 20
0
 39
0
 70
1
 66
1
  0
VERTEX
  8
0
 10
1892.6153846153848
 20
640.42307692307691
 42
1
  0
VERTEX
  8
0
 10
1892.6153846153848
 20
657.42307692307691
 42
1
  0
SEQEND
  0
POLYLINE
  8
0
 10
0
 20
0
 39
0
 70
1
 66
1
  0
VERTEX
  8
0
 10
1892.6153846153848
 20
570.42307692307691
 42
1
  0
VERTEX
  8
0
 10
1892.6153846153848
 20
587.42307692307691
 42
1
  0
SEQEND
  0
POLYLINE
  8
0
 10
0
 20
0
 39
0
 70
1
 66
1
  0
VERTEX
  8
0
 10
1993.5384615384619
 20
379.38461538461542
 42
-0
  0
VERTEX
  8
0
 10
2093.5384615384619
 20
379.38461538461542
 42
-0
  0
VERTEX
  8
0
 10
2093.5384615384619
 20
345.38461538461542
 42
-0
  0
VERTEX
  8
0
 10
1993.5384615384619
 20
345.38461538461542
 42
-0
  0
SEQEND
  0
POLYLINE
  8
0
 10
0
 20
0
 39
0
 70
1
 66
1
  0
VERTEX
  8
0
 10
2017.0384615384619
 20
362.38461538461542
 42
1
  0
VERTEX
  8
0
 10
2000.0384615384619
 20
362.38461538461542
 42
1
  0
SEQEND
  0
POLYLINE
  8
0
 10
0
 20
0
 39
0
 70
1
 66
1
  0
VERTEX
  8
0
 10
2087.0384615384619
 20
362.38461538461542
 42
1
  0
VERTEX
  8
0
 10
2070.0384615384619
 20
362.38461538461542
 42
1
  0
SEQEND
  0
POLYLINE
  8
0
 10
0
 20
0
 39
0
 70
1
 66
1
  0
VERTEX
  8
0
 10
2251.3076923076924
 20
938.76923076923083
 42
-0
  0
VERTEX
  8
0
 10
2351.3076923076924
 20
938.76923076923083
 42
-0
  0
VERTEX
  8
0
 10
2351.3076923076924
 20
904.76923076923083
 42
-0
  0
VERTEX
  8
0
 10
2251.3076923076924
 20
904.76923076923083
 42
-0
  0
SEQEND
  0
POLYLINE
  8
0
 10
0
 20
0
 39
0
 70
1
 66
1
  0
VERTEX
  8
0
 10
2274.8076923076924
 20
921.76923076923083
 42
1
  0
VERTEX
  8
0
 10
2257.8076923076924
 20
921.76923076923083
 42
1
  0
SEQEND
  0
POLYLINE
  8
0
 10
0
 20
0
 39
0
 70
1
 66
1
  0
VERTEX
  8
0
 10
2344.8076923076924
 20
921.76923076923083
 42
1
  0
VERTEX
  8
0
 10
2327.8076923076924
 20
921.76923076923083
 42
1
  0
SEQEND
  0
POLYLINE
  8
0
 10
0
 20
0
 39
0
 70
1
 66
1
  0
VERTEX
  8
0
 10
2251.3076923076924
 20
982.84615384615392
 42
-0
  0
VERTEX
  8
0
 10
2351.3076923076924
 20
982.84615384615392
 42
-0
  0
VERTEX
  8
0
 10
2351.3076923076924
 20
948.84615384615392
 42
-0
  0
VERTEX
  8
0
 10
2251.3076923076924
 20
948.84615384615392
 42
-0
  0
SEQEND
  0
POLYLINE
  8
0
 10
0
 20
0
 39
0
 70
1
 66
1
  0
VERTEX
  8
0
 10
2274.8076923076924
 20
965.84615384615392
 42
1
  0
VERTEX
  8
0
 10
2257.8076923076924
 20
965.84615384615392
 42
1
  0
SEQEND
  0
POLYLINE
  8
0
 10
0
 20
0
 39
0
 70
1
 66
1
  0
VERTEX
  8
0
 10
2344.8076923076924
 20
965.84615384615392
 42
1
  0
VERTEX
  8
0
 10
2327.8076923076924
 20
965.84615384615392
 42
1
  0
SEQEND
  0
POLYLINE
  8
0
 10
0
 20
0
 39
0
 70
1
 66
1
  0
VERTEX
  8
0
 10
2361.6153846153848
 20
938.76923076923083
 42
-0
  0
VERTEX
  8
0
 10
2461.6153846153848
 20
938.76923076923083
 42
-0
  0
VERTEX
  8
0
 10
2461.6153846153848
 20
904.76923076923083
 42
-0
  0
VERTEX
  8
0
 10
2361.6153846153848
 20
904.76923076923083
 42
-0
  0
SEQEND
  0
POLYLINE
  8
0
 10
0
 20
0
 39
0
 70
1
 66
1
  0
VERTEX
  8
0
 10
2385.1153846153848
 20
921.76923076923083
 42
1
  0
VERTEX
  8
0
 10
2368.1153846153848
 20
921.76923076923083
 42
1
  0
SEQEND
  0
POLYLINE
  8
0
 10
0
 20
0
 39
0
 70
1
 66
1
  0
VERTEX
  8
0
 10
2455.1153846153848
 20
921.76923076923083
 42
1
  0
VERTEX
  8
0
 10
2438.1153846153848
 20
921.76923076923083
 42
1
  0
SEQEND
  0
POLYLINE
  8
0
 10
0
 20
0
 39
0
 70
1
 66
1
  0
VERTEX
  8
0
 10
2361.6153846153848
 20
982.84615384615392
 42
-0
  0
VERTEX
  8
0
 10
2461.6153846153848
 20
982.84615384615392
 42
-0
  0
VERTEX
  8
0
 10
2461.6153846153848
 20
948.84615384615392
 42
-0
  0
VERTEX
  8
0
 10
2361.6153846153848
 20
948.84615384615392
 42
-0
  0
SEQEND
  0
POLYLINE
  8
0
 10
0
 20
0
 39
0
 70
1
 66
1
  0
VERTEX
  8
0
 10
2385.1153846153848
 20
965.84615384615392
 42
1
  0
VERTEX
  8
0
 10
2368.1153846153848
 20
965.84615384615392
 42
1
  0
SEQEND
  0
POLYLINE
  8
0
 10
0
 20
0
 39
0
 70
1
 66
1
  0
VERTEX
  8
0
 10
2455.1153846153848
 20
965.84615384615392
 42
1
  0
VERTEX
  8
0
 10
2438.1153846153848
 20
965.84615384615392
 42
1
  0
SEQEND
  0
ENDSEC
  0
EOF
