  0
SECTION
  2
ENTITIES
  0
POLYLINE
  8
0
 10
0
 20
0
 39
0
 70
1
 66
1
  0
VERTEX
  8
0
 10
0
 20
0
 42
0
  0
VERTEX
  8
0
 10
2000
 20
0
 42
0
  0
VERTEX
  8
0
 10
2000
 20
1000
 42
0
  0
VERTEX
  8
0
 10
0
 20
1000
 42
0
  0
SEQEND
  0
POLYLINE
  8
0
 10
0
 20
0
 39
0
 70
1
 66
1
  0
VERTEX
  8
0
 10
1402.999993363519
 20
785.43249816894536
 42
0
  0
VERTEX
  8
0
 10
1402.999993363519
 20
638.51250000000005
 42
0
  0
VERTEX
  8
0
 10
1482.999993363519
 20
638.51250000000005
 42
0
  0
VERTEX
  8
0
 10
1482.999993363519
 20
785.43249816894536
 42
0
  0
SEQEND
  0
POLYLINE
  8
0
 10
0
 20
0
 39
0
 70
1
 66
1
  0
VERTEX
  8
0
 10
1442.999993363519
 20
736.9724990844727
 42
-1
  0
VERTEX
  8
0
 10
1442.999993363519
 20
686.9724990844727
 42
-1
  0
SEQEND
  0
POLYLINE
  8
0
 10
0
 20
0
 39
0
 70
1
 66
1
  0
VERTEX
  8
0
 10
1644.999993363519
 20
156.91999816894531
 42
0
  0
VERTEX
  8
0
 10
1644.999993363519
 20
10
 42
0
  0
VERTEX
  8
0
 10
1724.999993363519
 20
10
 42
0
  0
VERTEX
  8
0
 10
1724.999993363519
 20
156.91999816894531
 42
0
  0
SEQEND
  0
POLYLINE
  8
0
 10
0
 20
0
 39
0
 70
1
 66
1
  0
VERTEX
  8
0
 10
1684.999993363519
 20
108.45999908447266
 42
-1
  0
VERTEX
  8
0
 10
1684.999993363519
 20
58.459999084472656
 42
-1
  0
SEQEND
  0
POLYLINE
  8
0
 10
0
 20
0
 39
0
 70
1
 66
1
  0
VERTEX
  8
0
 10
1570.999993363519
 20
752.27249450683598
 42
0
  0
VERTEX
  8
0
 10
1717.9199915324643
 20
752.27249450683598
 42
0
  0
VERTEX
  8
0
 10
1717.9199915324643
 20
832.27249450683598
 42
0
  0
VERTEX
  8
0
 10
1570.999993363519
 20
832.27249450683598
 42
0
  0
SEQEND
  0
POLYLINE
  8
0
 10
0
 20
0
 39
0
 70
1
 66
1
  0
VERTEX
  8
0
 10
1619.4599924479917
 20
792.27249450683598
 42
-1
  0
VERTEX
  8
0
 10
1669.4599924479917
 20
792.27249450683598
 42
-1
  0
SEQEND
  0
POLYLINE
  8
0
 10
0
 20
0
 39
0
 70
1
 66
1
  0
VERTEX
  8
0
 10
1734.999993363519
 20
156.91999816894531
 42
0
  0
VERTEX
  8
0
 10
1734.999993363519
 20
10
 42
0
  0
VERTEX
  8
0
 10
1814.999993363519
 20
10
 42
0
  0
VERTEX
  8
0
 10
1814.999993363519
 20
156.91999816894531
 42
0
  0
SEQEND
  0
POLYLINE
  8
0
 10
0
 20
0
 39
0
 70
1
 66
1
  0
VERTEX
  8
0
 10
1774.999993363519
 20
108.45999908447266
 42
-1
  0
VERTEX
  8
0
 10
1774.999993363519
 20
58.459999084472656
 42
-1
  0
SEQEND
  0
POLYLINE
  8
0
 10
0
 20
0
 39
0
 70
1
 66
1
  0
VERTEX
  8
0
 10
1907.9199915324643
 20
969.9449981689454
 42
0
  0
VERTEX
  8
0
 10
1907.9199915324643
 20
823.02500000000009
 42
0
  0
VERTEX
  8
0
 10
1987.9199915324643
 20
823.02500000000009
 42
0
  0
VERTEX
  8
0
 10
1987.9199915324643
 20
969.9449981689454
 42
0
  0
SEQEND
  0
POLYLINE
  8
0
 10
0
 20
0
 39
0
 70
1
 66
1
  0
VERTEX
  8
0
 10
1947.9199915324643
 20
921.48499908447275
 42
-1
  0
VERTEX
  8
0
 10
1947.9199915324643
 20
871.48499908447275
 42
-1
  0
SEQEND
  0
POLYLINE
  8
0
 10
0
 20
0
 39
0
 70
1
 66
1
  0
VERTEX
  8
0
 10
1554.999993363519
 20
156.91999816894531
 42
0
  0
VERTEX
  8
0
 10
1554.999993363519
 20
10
 42
0
  0
VERTEX
  8
0
 10
1634.999993363519
 20
10
 42
0
  0
VERTEX
  8
0
 10
1634.999993363519
 20
156.91999816894531
 42
0
  0
SEQEND
  0
POLYLINE
  8
0
 10
0
 20
0
 39
0
 70
1
 66
1
  0
VERTEX
  8
0
 10
1594.999993363519
 20
108.45999908447266
 42
-1
  0
VERTEX
  8
0
 10
1594.999993363519
 20
58.459999084472656
 42
-1
  0
SEQEND
  0
POLYLINE
  8
0
 10
0
 20
0
 39
0
 70
1
 66
1
  0
VERTEX
  8
0
 10
1554.999993363519
 20
313.83999633789062
 42
0
  0
VERTEX
  8
0
 10
1554.999993363519
 20
166.91999816894531
 42
0
  0
VERTEX
  8
0
 10
1634.999993363519
 20
166.91999816894531
 42
0
  0
VERTEX
  8
0
 10
1634.999993363519
 20
313.83999633789062
 42
0
  0
SEQEND
  0
POLYLINE
  8
0
 10
0
 20
0
 39
0
 70
1
 66
1
  0
VERTEX
  8
0
 10
1594.999993363519
 20
265.37999725341797
 42
-1
  0
VERTEX
  8
0
 10
1594.999993363519
 20
215.37999725341797
 42
-1
  0
SEQEND
  0
POLYLINE
  8
0
 10
0
 20
0
 39
0
 70
1
 66
1
  0
VERTEX
  8
0
 10
1464.999993363519
 20
156.91999816894531
 42
0
  0
VERTEX
  8
0
 10
1464.999993363519
 20
10
 42
0
  0
VERTEX
  8
0
 10
1544.999993363519
 20
10
 42
0
  0
VERTEX
  8
0
 10
1544.999993363519
 20
156.91999816894531
 42
0
  0
SEQEND
  0
POLYLINE
  8
0
 10
0
 20
0
 39
0
 70
1
 66
1
  0
VERTEX
  8
0
 10
1504.999993363519
 20
108.45999908447266
 42
-1
  0
VERTEX
  8
0
 10
1504.999993363519
 20
58.459999084472656
 42
-1
  0
SEQEND
  0
POLYLINE
  8
0
 10
0
 20
0
 39
0
 70
1
 66
1
  0
VERTEX
  8
0
 10
1739.9199915324643
 20
899.1924926757813
 42
0
  0
VERTEX
  8
0
 10
1739.9199915324643
 20
752.27249450683598
 42
0
  0
VERTEX
  8
0
 10
1819.9199915324643
 20
752.27249450683598
 42
0
  0
VERTEX
  8
0
 10
1819.9199915324643
 20
899.1924926757813
 42
0
  0
SEQEND
  0
POLYLINE
  8
0
 10
0
 20
0
 39
0
 70
1
 66
1
  0
VERTEX
  8
0
 10
1779.9199915324643
 20
850.73249359130864
 42
-1
  0
VERTEX
  8
0
 10
1779.9199915324643
 20
800.73249359130864
 42
-1
  0
SEQEND
  0
POLYLINE
  8
0
 10
0
 20
0
 39
0
 70
1
 66
1
  0
VERTEX
  8
0
 10
1464.999993363519
 20
313.83999633789062
 42
0
  0
VERTEX
  8
0
 10
1464.999993363519
 20
166.91999816894531
 42
0
  0
VERTEX
  8
0
 10
1544.999993363519
 20
166.91999816894531
 42
0
  0
VERTEX
  8
0
 10
1544.999993363519
 20
313.83999633789062
 42
0
  0
SEQEND
  0
POLYLINE
  8
0
 10
0
 20
0
 39
0
 70
1
 66
1
  0
VERTEX
  8
0
 10
1504.999993363519
 20
265.37999725341797
 42
-1
  0
VERTEX
  8
0
 10
1504.999993363519
 20
215.37999725341797
 42
-1
  0
SEQEND
  0
POLYLINE
  8
0
 10
0
 20
0
 39
0
 70
1
 66
1
  0
VERTEX
  8
0
 10
1806.999993363519
 20
662.27249450683598
 42
0
  0
VERTEX
  8
0
 10
1806.999993363519
 20
732.27249450683598
 42
-0
  0
VERTEX
  8
0
 10
1796.999993363519
 20
742.27249450683598
 42
0
  0
VERTEX
  8
0
 10
1738.999993363519
 20
742.27249450683598
 42
0
  0
VERTEX
  8
0
 10
1738.999993363519
 20
577.27249450683598
 42
-0
  0
SEQEND
  0
POLYLINE
  8
0
 10
0
 20
0
 39
0
 70
1
 66
1
  0
VERTEX
  8
0
 10
1781.999993363519
 20
703.77249450683598
 42
-1
  0
VERTEX
  8
0
 10
1781.999993363519
 20
690.77249450683598
 42
-1
  0
SEQEND
  0
POLYLINE
  8
0
 10
0
 20
0
 39
0
 70
1
 66
1
  0
VERTEX
  8
0
 10
1738.999993363519
 20
560.75999450683594
 42
0
  0
VERTEX
  8
0
 10
1738.999993363519
 20
490.75999450683599
 42
-0
  0
VERTEX
  8
0
 10
1748.999993363519
 20
480.75999450683599
 42
0
  0
VERTEX
  8
0
 10
1806.999993363519
 20
480.75999450683599
 42
0
  0
VERTEX
  8
0
 10
1806.999993363519
 20
645.75999450683594
 42
-0
  0
SEQEND
  0
POLYLINE
  8
0
 10
0
 20
0
 39
0
 70
1
 66
1
  0
VERTEX
  8
0
 10
1763.999993363519
 20
519.25999450683594
 42
-1
  0
VERTEX
  8
0
 10
1763.999993363519
 20
532.25999450683594
 42
-1
  0
SEQEND
  0
POLYLINE
  8
0
 10
0
 20
0
 39
0
 70
1
 66
1
  0
VERTEX
  8
0
 10
1644.999993363519
 20
313.83999633789062
 42
0
  0
VERTEX
  8
0
 10
1644.999993363519
 20
166.91999816894531
 42
0
  0
VERTEX
  8
0
 10
1724.999993363519
 20
166.91999816894531
 42
0
  0
VERTEX
  8
0
 10
1724.999993363519
 20
313.83999633789062
 42
0
  0
SEQEND
  0
POLYLINE
  8
0
 10
0
 20
0
 39
0
 70
1
 66
1
  0
VERTEX
  8
0
 10
1684.999993363519
 20
265.37999725341797
 42
-1
  0
VERTEX
  8
0
 10
1684.999993363519
 20
215.37999725341797
 42
-1
  0
SEQEND
  0
POLYLINE
  8
0
 10
0
 20
0
 39
0
 70
1
 66
1
  0
VERTEX
  8
0
 10
1726.999993363519
 20
470.75999450683594
 42
0
  0
VERTEX
  8
0
 10
1726.999993363519
 20
323.83999633789062
 42
0
  0
VERTEX
  8
0
 10
1806.999993363519
 20
323.83999633789062
 42
0
  0
VERTEX
  8
0
 10
1806.999993363519
 20
470.75999450683594
 42
0
  0
SEQEND
  0
POLYLINE
  8
0
 10
0
 20
0
 39
0
 70
1
 66
1
  0
VERTEX
  8
0
 10
1766.999993363519
 20
422.29999542236328
 42
-1
  0
VERTEX
  8
0
 10
1766.999993363519
 20
372.29999542236328
 42
-1
  0
SEQEND
  0
POLYLINE
  8
0
 10
0
 20
0
 39
0
 70
1
 66
1
  0
VERTEX
  8
0
 10
1739.9199915324643
 20
909.1924926757813
 42
0
  0
VERTEX
  8
0
 10
1886.8399897014096
 20
909.1924926757813
 42
0
  0
VERTEX
  8
0
 10
1886.8399897014096
 20
989.1924926757813
 42
0
  0
VERTEX
  8
0
 10
1739.9199915324643
 20
989.1924926757813
 42
0
  0
SEQEND
  0
POLYLINE
  8
0
 10
0
 20
0
 39
0
 70
1
 66
1
  0
VERTEX
  8
0
 10
1788.379990616937
 20
949.1924926757813
 42
-1
  0
VERTEX
  8
0
 10
1838.379990616937
 20
949.1924926757813
 42
-1
  0
SEQEND
  0
POLYLINE
  8
0
 10
0
 20
0
 39
0
 70
1
 66
1
  0
VERTEX
  8
0
 10
1636.999993363519
 20
470.75999450683594
 42
0
  0
VERTEX
  8
0
 10
1636.999993363519
 20
323.83999633789062
 42
0
  0
VERTEX
  8
0
 10
1716.999993363519
 20
323.83999633789062
 42
0
  0
VERTEX
  8
0
 10
1716.999993363519
 20
470.75999450683594
 42
0
  0
SEQEND
  0
POLYLINE
  8
0
 10
0
 20
0
 39
0
 70
1
 66
1
  0
VERTEX
  8
0
 10
1676.999993363519
 20
422.29999542236328
 42
-1
  0
VERTEX
  8
0
 10
1676.999993363519
 20
372.29999542236328
 42
-1
  0
SEQEND
  0
POLYLINE
  8
0
 10
0
 20
0
 39
0
 70
1
 66
1
  0
VERTEX
  8
0
 10
1024.999993363519
 20
510
 42
0
  0
VERTEX
  8
0
 10
1024.999993363519
 20
10
 42
0
  0
VERTEX
  8
0
 10
1224.999993363519
 20
10
 42
0
  0
VERTEX
  8
0
 10
1224.999993363519
 20
510
 42
0
  0
SEQEND
  0
POLYLINE
  8
0
 10
0
 20
0
 39
0
 70
1
 66
1
  0
VERTEX
  8
0
 10
1186.8850641643003
 20
75.31097412109375
 42
-1
  0
VERTEX
  8
0
 10
1186.8850641643003
 20
39.31097412109375
 42
-1
  0
SEQEND
  0
POLYLINE
  8
0
 10
0
 20
0
 39
0
 70
1
 66
1
  0
VERTEX
  8
0
 10
1124.999993363519
 20
312
 42
-1
  0
VERTEX
  8
0
 10
1124.999993363519
 20
208
 42
-1
  0
SEQEND
  0
POLYLINE
  8
0
 10
0
 20
0
 39
0
 70
1
 66
1
  0
VERTEX
  8
0
 10
814.99999336351902
 20
510
 42
0
  0
VERTEX
  8
0
 10
814.99999336351902
 20
10
 42
0
  0
VERTEX
  8
0
 10
1014.999993363519
 20
10
 42
0
  0
VERTEX
  8
0
 10
1014.999993363519
 20
510
 42
0
  0
SEQEND
  0
POLYLINE
  8
0
 10
0
 20
0
 39
0
 70
1
 66
1
  0
VERTEX
  8
0
 10
976.88506416430027
 20
75.31097412109375
 42
-1
  0
VERTEX
  8
0
 10
976.88506416430027
 20
39.31097412109375
 42
-1
  0
SEQEND
  0
POLYLINE
  8
0
 10
0
 20
0
 39
0
 70
1
 66
1
  0
VERTEX
  8
0
 10
914.99999336351902
 20
312
 42
-1
  0
VERTEX
  8
0
 10
914.99999336351902
 20
208
 42
-1
  0
SEQEND
  0
POLYLINE
  8
0
 10
0
 20
0
 39
0
 70
1
 66
1
  0
VERTEX
  8
0
 10
814.99999336351902
 20
520
 42
0
  0
VERTEX
  8
0
 10
1314.999993363519
 20
520
 42
0
  0
VERTEX
  8
0
 10
1314.999993363519
 20
720
 42
0
  0
VERTEX
  8
0
 10
814.99999336351902
 20
720
 42
0
  0
SEQEND
  0
POLYLINE
  8
0
 10
0
 20
0
 39
0
 70
1
 66
1
  0
VERTEX
  8
0
 10
1249.6890192424253
 20
681.88507080078125
 42
-1
  0
VERTEX
  8
0
 10
1285.6890192424253
 20
681.88507080078125
 42
-1
  0
SEQEND
  0
POLYLINE
  8
0
 10
0
 20
0
 39
0
 70
1
 66
1
  0
VERTEX
  8
0
 10
1012.999993363519
 20
620
 42
-1
  0
VERTEX
  8
0
 10
1116.999993363519
 20
620
 42
-1
  0
SEQEND
  0
POLYLINE
  8
0
 10
0
 20
0
 39
0
 70
1
 66
1
  0
VERTEX
  8
0
 10
1492.999993363519
 20
866.86499633789072
 42
0
  0
VERTEX
  8
0
 10
1639.9199915324643
 20
866.86499633789072
 42
0
  0
VERTEX
  8
0
 10
1639.9199915324643
 20
946.86499633789072
 42
0
  0
VERTEX
  8
0
 10
1492.999993363519
 20
946.86499633789072
 42
0
  0
SEQEND
  0
POLYLINE
  8
0
 10
0
 20
0
 39
0
 70
1
 66
1
  0
VERTEX
  8
0
 10
1541.4599924479917
 20
906.86499633789072
 42
-1
  0
VERTEX
  8
0
 10
1591.4599924479917
 20
906.86499633789072
 42
-1
  0
SEQEND
  0
POLYLINE
  8
0
 10
0
 20
0
 39
0
 70
1
 66
1
  0
VERTEX
  8
0
 10
814.99999336351902
 20
730
 42
0
  0
VERTEX
  8
0
 10
1314.999993363519
 20
730
 42
0
  0
VERTEX
  8
0
 10
1314.999993363519
 20
930
 42
0
  0
VERTEX
  8
0
 10
814.99999336351902
 20
930
 42
0
  0
SEQEND
  0
POLYLINE
  8
0
 10
0
 20
0
 39
0
 70
1
 66
1
  0
VERTEX
  8
0
 10
1249.6890192424253
 20
891.88507080078125
 42
-1
  0
VERTEX
  8
0
 10
1285.6890192424253
 20
891.88507080078125
 42
-1
  0
SEQEND
  0
POLYLINE
  8
0
 10
0
 20
0
 39
0
 70
1
 66
1
  0
VERTEX
  8
0
 10
1012.999993363519
 20
830
 42
-1
  0
VERTEX
  8
0
 10
1116.999993363519
 20
830
 42
-1
  0
SEQEND
  0
POLYLINE
  8
0
 10
0
 20
0
 39
0
 70
1
 66
1
  0
VERTEX
  8
0
 10
1897.9199915324643
 20
776.86499633789072
 42
0
  0
VERTEX
  8
0
 10
1897.9199915324643
 20
846.86499633789072
 42
-0
  0
VERTEX
  8
0
 10
1887.9199915324643
 20
856.86499633789072
 42
0
  0
VERTEX
  8
0
 10
1829.9199915324643
 20
856.86499633789072
 42
0
  0
VERTEX
  8
0
 10
1829.9199915324643
 20
691.86499633789072
 42
-0
  0
SEQEND
  0
POLYLINE
  8
0
 10
0
 20
0
 39
0
 70
1
 66
1
  0
VERTEX
  8
0
 10
1872.9199915324643
 20
818.36499633789072
 42
-1
  0
VERTEX
  8
0
 10
1872.9199915324643
 20
805.36499633789072
 42
-1
  0
SEQEND
  0
POLYLINE
  8
0
 10
0
 20
0
 39
0
 70
1
 66
1
  0
VERTEX
  8
0
 10
1829.9199915324643
 20
675.35249633789067
 42
0
  0
VERTEX
  8
0
 10
1829.9199915324643
 20
605.35249633789067
 42
-0
  0
VERTEX
  8
0
 10
1839.9199915324643
 20
595.35249633789067
 42
0
  0
VERTEX
  8
0
 10
1897.9199915324643
 20
595.35249633789067
 42
0
  0
VERTEX
  8
0
 10
1897.9199915324643
 20
760.35249633789067
 42
-0
  0
SEQEND
  0
POLYLINE
  8
0
 10
0
 20
0
 39
0
 70
1
 66
1
  0
VERTEX
  8
0
 10
1854.9199915324643
 20
633.85249633789067
 42
-1
  0
VERTEX
  8
0
 10
1854.9199915324643
 20
646.85249633789067
 42
-1
  0
SEQEND
  0
POLYLINE
  8
0
 10
0
 20
0
 39
0
 70
1
 66
1
  0
VERTEX
  8
0
 10
1734.999993363519
 20
313.83999633789062
 42
0
  0
VERTEX
  8
0
 10
1734.999993363519
 20
166.91999816894531
 42
0
  0
VERTEX
  8
0
 10
1814.999993363519
 20
166.91999816894531
 42
0
  0
VERTEX
  8
0
 10
1814.999993363519
 20
313.83999633789062
 42
0
  0
SEQEND
  0
POLYLINE
  8
0
 10
0
 20
0
 39
0
 70
1
 66
1
  0
VERTEX
  8
0
 10
1774.999993363519
 20
265.37999725341797
 42
-1
  0
VERTEX
  8
0
 10
1774.999993363519
 20
215.37999725341797
 42
-1
  0
SEQEND
  0
POLYLINE
  8
0
 10
0
 20
0
 39
0
 70
1
 66
1
  0
VERTEX
  8
0
 10
1402.999993363519
 20
942.35249633789067
 42
0
  0
VERTEX
  8
0
 10
1402.999993363519
 20
795.43249816894536
 42
0
  0
VERTEX
  8
0
 10
1482.999993363519
 20
795.43249816894536
 42
0
  0
VERTEX
  8
0
 10
1482.999993363519
 20
942.35249633789067
 42
0
  0
SEQEND
  0
POLYLINE
  8
0
 10
0
 20
0
 39
0
 70
1
 66
1
  0
VERTEX
  8
0
 10
1442.999993363519
 20
893.89249725341801
 42
-1
  0
VERTEX
  8
0
 10
1442.999993363519
 20
843.89249725341801
 42
-1
  0
SEQEND
  0
POLYLINE
  8
0
 10
0
 20
0
 39
0
 70
1
 66
1
  0
VERTEX
  8
0
 10
1570.999993363519
 20
742.27249450683598
 42
0
  0
VERTEX
  8
0
 10
1570.999993363519
 20
595.35249633789067
 42
0
  0
VERTEX
  8
0
 10
1650.999993363519
 20
595.35249633789067
 42
0
  0
VERTEX
  8
0
 10
1650.999993363519
 20
742.27249450683598
 42
0
  0
SEQEND
  0
POLYLINE
  8
0
 10
0
 20
0
 39
0
 70
1
 66
1
  0
VERTEX
  8
0
 10
1610.999993363519
 20
693.81249542236333
 42
-1
  0
VERTEX
  8
0
 10
1610.999993363519
 20
643.81249542236333
 42
-1
  0
SEQEND
  0
POLYLINE
  8
0
 10
0
 20
0
 39
0
 70
1
 66
1
  0
VERTEX
  8
0
 10
1884.999993363519
 20
505.35249633789067
 42
0
  0
VERTEX
  8
0
 10
1884.999993363519
 20
575.35249633789067
 42
-0
  0
VERTEX
  8
0
 10
1874.999993363519
 20
585.35249633789067
 42
0
  0
VERTEX
  8
0
 10
1816.999993363519
 20
585.35249633789067
 42
0
  0
VERTEX
  8
0
 10
1816.999993363519
 20
420.35249633789067
 42
-0
  0
SEQEND
  0
POLYLINE
  8
0
 10
0
 20
0
 39
0
 70
1
 66
1
  0
VERTEX
  8
0
 10
1859.999993363519
 20
546.85249633789067
 42
-1
  0
VERTEX
  8
0
 10
1859.999993363519
 20
533.85249633789067
 42
-1
  0
SEQEND
  0
POLYLINE
  8
0
 10
0
 20
0
 39
0
 70
1
 66
1
  0
VERTEX
  8
0
 10
1816.999993363519
 20
403.83999633789068
 42
0
  0
VERTEX
  8
0
 10
1816.999993363519
 20
333.83999633789068
 42
-0
  0
VERTEX
  8
0
 10
1826.999993363519
 20
323.83999633789068
 42
0
  0
VERTEX
  8
0
 10
1884.999993363519
 20
323.83999633789068
 42
0
  0
VERTEX
  8
0
 10
1884.999993363519
 20
488.83999633789068
 42
-0
  0
SEQEND
  0
POLYLINE
  8
0
 10
0
 20
0
 39
0
 70
1
 66
1
  0
VERTEX
  8
0
 10
1841.999993363519
 20
362.33999633789068
 42
-1
  0
VERTEX
  8
0
 10
1841.999993363519
 20
375.33999633789068
 42
-1
  0
SEQEND
  0
POLYLINE
  8
0
 10
0
 20
0
 39
0
 70
1
 66
1
  0
VERTEX
  8
0
 10
1470.999993363519
 20
548.51250000000005
 42
0
  0
VERTEX
  8
0
 10
1470.999993363519
 20
618.51250000000005
 42
-0
  0
VERTEX
  8
0
 10
1460.999993363519
 20
628.51250000000005
 42
0
  0
VERTEX
  8
0
 10
1402.999993363519
 20
628.51250000000005
 42
0
  0
VERTEX
  8
0
 10
1402.999993363519
 20
463.51250000000005
 42
-0
  0
SEQEND
  0
POLYLINE
  8
0
 10
0
 20
0
 39
0
 70
1
 66
1
  0
VERTEX
  8
0
 10
1445.999993363519
 20
590.01250000000005
 42
-1
  0
VERTEX
  8
0
 10
1445.999993363519
 20
577.01250000000005
 42
-1
  0
SEQEND
  0
POLYLINE
  8
0
 10
0
 20
0
 39
0
 70
1
 66
1
  0
VERTEX
  8
0
 10
1402.999993363519
 20
447.00000000000006
 42
0
  0
VERTEX
  8
0
 10
1402.999993363519
 20
377.00000000000006
 42
-0
  0
VERTEX
  8
0
 10
1412.999993363519
 20
367.00000000000006
 42
0
  0
VERTEX
  8
0
 10
1470.999993363519
 20
367.00000000000006
 42
0
  0
VERTEX
  8
0
 10
1470.999993363519
 20
532
 42
-0
  0
SEQEND
  0
POLYLINE
  8
0
 10
0
 20
0
 39
0
 70
1
 66
1
  0
VERTEX
  8
0
 10
1427.999993363519
 20
405.50000000000006
 42
-1
  0
VERTEX
  8
0
 10
1427.999993363519
 20
418.50000000000006
 42
-1
  0
SEQEND
  0
POLYLINE
  8
0
 10
0
 20
0
 39
0
 70
1
 66
1
  0
VERTEX
  8
0
 10
1649.9199915324643
 20
989.1924926757813
 42
0
  0
VERTEX
  8
0
 10
1649.9199915324643
 20
842.27249450683598
 42
0
  0
VERTEX
  8
0
 10
1729.9199915324643
 20
842.27249450683598
 42
0
  0
VERTEX
  8
0
 10
1729.9199915324643
 20
989.1924926757813
 42
0
  0
SEQEND
  0
POLYLINE
  8
0
 10
0
 20
0
 39
0
 70
1
 66
1
  0
VERTEX
  8
0
 10
1689.9199915324643
 20
940.73249359130864
 42
-1
  0
VERTEX
  8
0
 10
1689.9199915324643
 20
890.73249359130864
 42
-1
  0
SEQEND
  0
POLYLINE
  8
0
 10
0
 20
0
 39
0
 70
1
 66
1
  0
VERTEX
  8
0
 10
334
 20
908.99998672703816
 42
0
  0
VERTEX
  8
0
 10
480.91999816894531
 20
908.99998672703816
 42
0
  0
VERTEX
  8
0
 10
480.91999816894531
 20
988.99998672703816
 42
0
  0
VERTEX
  8
0
 10
334
 20
988.99998672703816
 42
0
  0
SEQEND
  0
POLYLINE
  8
0
 10
0
 20
0
 39
0
 70
1
 66
1
  0
VERTEX
  8
0
 10
382.45999908447266
 20
948.99998672703816
 42
-1
  0
VERTEX
  8
0
 10
432.45999908447266
 20
948.99998672703816
 42
-1
  0
SEQEND
  0
POLYLINE
  8
0
 10
0
 20
0
 39
0
 70
1
 66
1
  0
VERTEX
  8
0
 10
1234.999993363519
 20
119
 42
0
  0
VERTEX
  8
0
 10
1234.999993363519
 20
10
 42
0
  0
VERTEX
  8
0
 10
1339.999993363519
 20
10
 42
0
  0
VERTEX
  8
0
 10
1339.999993363519
 20
119
 42
-0
  0
SEQEND
  0
POLYLINE
  8
0
 10
0
 20
0
 39
0
 70
1
 66
1
  0
VERTEX
  8
0
 10
1323.7708826457456
 20
42.935173034667969
 42
-1
  0
VERTEX
  8
0
 10
1323.7708826457456
 20
20.935173034667969
 42
-1
  0
SEQEND
  0
POLYLINE
  8
0
 10
0
 20
0
 39
0
 70
1
 66
1
  0
VERTEX
  8
0
 10
1323.7708826457456
 20
75.5
 42
-1
  0
VERTEX
  8
0
 10
1323.7708826457456
 20
53.5
 42
-1
  0
SEQEND
  0
POLYLINE
  8
0
 10
0
 20
0
 39
0
 70
1
 66
1
  0
VERTEX
  8
0
 10
1293.290879288812
 20
42.935173034667969
 42
-1
  0
VERTEX
  8
0
 10
1293.290879288812
 20
20.935173034667969
 42
-1
  0
SEQEND
  0
POLYLINE
  8
0
 10
0
 20
0
 39
0
 70
1
 66
1
  0
VERTEX
  8
0
 10
1349.999993363519
 20
357
 42
0
  0
VERTEX
  8
0
 10
1349.999993363519
 20
248
 42
0
  0
VERTEX
  8
0
 10
1454.999993363519
 20
248
 42
0
  0
VERTEX
  8
0
 10
1454.999993363519
 20
357
 42
-0
  0
SEQEND
  0
POLYLINE
  8
0
 10
0
 20
0
 39
0
 70
1
 66
1
  0
VERTEX
  8
0
 10
1438.7708826457456
 20
280.93517303466797
 42
-1
  0
VERTEX
  8
0
 10
1438.7708826457456
 20
258.93517303466797
 42
-1
  0
SEQEND
  0
POLYLINE
  8
0
 10
0
 20
0
 39
0
 70
1
 66
1
  0
VERTEX
  8
0
 10
1438.7708826457456
 20
313.5
 42
-1
  0
VERTEX
  8
0
 10
1438.7708826457456
 20
291.5
 42
-1
  0
SEQEND
  0
POLYLINE
  8
0
 10
0
 20
0
 39
0
 70
1
 66
1
  0
VERTEX
  8
0
 10
1408.290879288812
 20
280.93517303466797
 42
-1
  0
VERTEX
  8
0
 10
1408.290879288812
 20
258.93517303466797
 42
-1
  0
SEQEND
  0
POLYLINE
  8
0
 10
0
 20
0
 39
0
 70
1
 66
1
  0
VERTEX
  8
0
 10
444.99999336351908
 20
129
 42
0
  0
VERTEX
  8
0
 10
479.99999336351908
 20
129
 42
0
  0
VERTEX
  8
0
 10
479.99999336351908
 20
383
 42
0
  0
VERTEX
  8
0
 10
462.49999336351908
 20
383
 42
0
  0
VERTEX
  8
0
 10
462.49999336351908
 20
419
 42
0
  0
VERTEX
  8
0
 10
479.99999336351908
 20
419
 42
0
  0
VERTEX
  8
0
 10
479.99999336351908
 20
443
 42
-0
  0
VERTEX
  8
0
 10
444.99999336351908
 20
443
 42
-0
  0
SEQEND
  0
POLYLINE
  8
0
 10
0
 20
0
 39
0
 70
1
 66
1
  0
VERTEX
  8
0
 10
452.49999336351908
 20
165.54947662353516
 42
-1
  0
VERTEX
  8
0
 10
472.49999336351908
 20
165.54947662353516
 42
-1
  0
SEQEND
  0
POLYLINE
  8
0
 10
0
 20
0
 39
0
 70
1
 66
1
  0
VERTEX
  8
0
 10
664.99999336351902
 20
10
 42
0
  0
VERTEX
  8
0
 10
664.99999336351902
 20
270
 42
0
  0
VERTEX
  8
0
 10
534.99999336351902
 20
270
 42
0
  0
VERTEX
  8
0
 10
534.99999336351902
 20
10
 42
0
  0
SEQEND
  0
POLYLINE
  8
0
 10
0
 20
0
 39
0
 70
1
 66
1
  0
VERTEX
  8
0
 10
591.49999336351902
 20
35
 42
-1
  0
VERTEX
  8
0
 10
608.49999336351902
 20
35
 42
-1
  0
SEQEND
  0
POLYLINE
  8
0
 10
0
 20
0
 39
0
 70
1
 66
1
  0
VERTEX
  8
0
 10
547.99999336351902
 20
65
 42
-1
  0
VERTEX
  8
0
 10
561.99999336351902
 20
65
 42
-1
  0
SEQEND
  0
POLYLINE
  8
0
 10
0
 20
0
 39
0
 70
1
 66
1
  0
VERTEX
  8
0
 10
637.99999336351902
 20
65
 42
-1
  0
VERTEX
  8
0
 10
651.99999336351902
 20
65
 42
-1
  0
SEQEND
  0
POLYLINE
  8
0
 10
0
 20
0
 39
0
 70
1
 66
1
  0
VERTEX
  8
0
 10
561.99999336351902
 20
240
 42
0
  0
VERTEX
  8
0
 10
561.99999336351902
 20
224
 42
-1
  0
VERTEX
  8
0
 10
547.99999336351902
 20
224
 42
-0
  0
VERTEX
  8
0
 10
547.99999336351902
 20
240
 42
-1
  0
SEQEND
  0
POLYLINE
  8
0
 10
0
 20
0
 39
0
 70
1
 66
1
  0
VERTEX
  8
0
 10
651.99999336351902
 20
240
 42
-0
  0
VERTEX
  8
0
 10
651.99999336351902
 20
224
 42
-1
  0
VERTEX
  8
0
 10
637.99999336351902
 20
224
 42
0
  0
VERTEX
  8
0
 10
637.99999336351902
 20
240
 42
-1
  0
SEQEND
  0
POLYLINE
  8
0
 10
0
 20
0
 39
0
 70
1
 66
1
  0
VERTEX
  8
0
 10
489.99999336351902
 20
129
 42
0
  0
VERTEX
  8
0
 10
524.99999336351902
 20
129
 42
0
  0
VERTEX
  8
0
 10
524.99999336351902
 20
383
 42
0
  0
VERTEX
  8
0
 10
507.49999336351902
 20
383
 42
0
  0
VERTEX
  8
0
 10
507.49999336351902
 20
419
 42
0
  0
VERTEX
  8
0
 10
524.99999336351902
 20
419
 42
0
  0
VERTEX
  8
0
 10
524.99999336351902
 20
443
 42
-0
  0
VERTEX
  8
0
 10
489.99999336351902
 20
443
 42
-0
  0
SEQEND
  0
POLYLINE
  8
0
 10
0
 20
0
 39
0
 70
1
 66
1
  0
VERTEX
  8
0
 10
497.49999336351902
 20
165.54947662353516
 42
-1
  0
VERTEX
  8
0
 10
517.49999336351902
 20
165.54947662353516
 42
-1
  0
SEQEND
  0
POLYLINE
  8
0
 10
0
 20
0
 39
0
 70
1
 66
1
  0
VERTEX
  8
0
 10
10
 20
959.99998672703816
 42
0
  0
VERTEX
  8
0
 10
10.000000000000002
 20
924.99998672703816
 42
0
  0
VERTEX
  8
0
 10
264
 20
924.99998672703816
 42
0
  0
VERTEX
  8
0
 10
264
 20
942.49998672703816
 42
0
  0
VERTEX
  8
0
 10
300
 20
942.49998672703816
 42
0
  0
VERTEX
  8
0
 10
300
 20
924.99998672703816
 42
0
  0
VERTEX
  8
0
 10
324
 20
924.99998672703816
 42
-0
  0
VERTEX
  8
0
 10
324
 20
959.99998672703816
 42
-0
  0
SEQEND
  0
POLYLINE
  8
0
 10
0
 20
0
 39
0
 70
1
 66
1
  0
VERTEX
  8
0
 10
46.549476623535156
 20
952.49998672703816
 42
-1
  0
VERTEX
  8
0
 10
46.549476623535156
 20
932.49998672703816
 42
-1
  0
SEQEND
  0
POLYLINE
  8
0
 10
0
 20
0
 39
0
 70
1
 66
1
  0
VERTEX
  8
0
 10
1349.999993363519
 20
238
 42
0
  0
VERTEX
  8
0
 10
1349.999993363519
 20
129
 42
0
  0
VERTEX
  8
0
 10
1454.999993363519
 20
129
 42
0
  0
VERTEX
  8
0
 10
1454.999993363519
 20
238
 42
-0
  0
SEQEND
  0
POLYLINE
  8
0
 10
0
 20
0
 39
0
 70
1
 66
1
  0
VERTEX
  8
0
 10
1438.7708826457456
 20
161.93517303466797
 42
-1
  0
VERTEX
  8
0
 10
1438.7708826457456
 20
139.93517303466797
 42
-1
  0
SEQEND
  0
POLYLINE
  8
0
 10
0
 20
0
 39
0
 70
1
 66
1
  0
VERTEX
  8
0
 10
1438.7708826457456
 20
194.5
 42
-1
  0
VERTEX
  8
0
 10
1438.7708826457456
 20
172.5
 42
-1
  0
SEQEND
  0
POLYLINE
  8
0
 10
0
 20
0
 39
0
 70
1
 66
1
  0
VERTEX
  8
0
 10
1408.290879288812
 20
161.93517303466797
 42
-1
  0
VERTEX
  8
0
 10
1408.290879288812
 20
139.93517303466797
 42
-1
  0
SEQEND
  0
POLYLINE
  8
0
 10
0
 20
0
 39
0
 70
1
 66
1
  0
VERTEX
  8
0
 10
444.99999336351908
 20
453
 42
0
  0
VERTEX
  8
0
 10
479.99999336351908
 20
453
 42
0
  0
VERTEX
  8
0
 10
479.99999336351908
 20
707
 42
0
  0
VERTEX
  8
0
 10
462.49999336351908
 20
707
 42
0
  0
VERTEX
  8
0
 10
462.49999336351908
 20
743
 42
0
  0
VERTEX
  8
0
 10
479.99999336351908
 20
743
 42
0
  0
VERTEX
  8
0
 10
479.99999336351908
 20
767
 42
-0
  0
VERTEX
  8
0
 10
444.99999336351908
 20
767
 42
-0
  0
SEQEND
  0
POLYLINE
  8
0
 10
0
 20
0
 39
0
 70
1
 66
1
  0
VERTEX
  8
0
 10
452.49999336351908
 20
489.54947662353516
 42
-1
  0
VERTEX
  8
0
 10
472.49999336351908
 20
489.54947662353516
 42
-1
  0
SEQEND
  0
POLYLINE
  8
0
 10
0
 20
0
 39
0
 70
1
 66
1
  0
VERTEX
  8
0
 10
1084.9199981689453
 20
987.35249633789067
 42
0
  0
VERTEX
  8
0
 10
1084.9199981689453
 20
952.35249633789067
 42
0
  0
VERTEX
  8
0
 10
1338.9199981689453
 20
952.35249633789067
 42
0
  0
VERTEX
  8
0
 10
1338.9199981689453
 20
969.85249633789067
 42
0
  0
VERTEX
  8
0
 10
1374.9199981689453
 20
969.85249633789067
 42
0
  0
VERTEX
  8
0
 10
1374.9199981689453
 20
952.35249633789067
 42
0
  0
VERTEX
  8
0
 10
1398.9199981689453
 20
952.35249633789067
 42
-0
  0
VERTEX
  8
0
 10
1398.9199981689453
 20
987.35249633789067
 42
-0
  0
SEQEND
  0
POLYLINE
  8
0
 10
0
 20
0
 39
0
 70
1
 66
1
  0
VERTEX
  8
0
 10
1121.4694747924805
 20
979.85249633789067
 42
-1
  0
VERTEX
  8
0
 10
1121.4694747924805
 20
959.85249633789067
 42
-1
  0
SEQEND
  0
POLYLINE
  8
0
 10
0
 20
0
 39
0
 70
1
 66
1
  0
VERTEX
  8
0
 10
10
 20
869.99998672703816
 42
0
  0
VERTEX
  8
0
 10
10.000000000000002
 20
834.99998672703816
 42
0
  0
VERTEX
  8
0
 10
264
 20
834.99998672703816
 42
0
  0
VERTEX
  8
0
 10
264
 20
852.49998672703816
 42
0
  0
VERTEX
  8
0
 10
300
 20
852.49998672703816
 42
0
  0
VERTEX
  8
0
 10
300
 20
834.99998672703816
 42
0
  0
VERTEX
  8
0
 10
324
 20
834.99998672703816
 42
-0
  0
VERTEX
  8
0
 10
324
 20
869.99998672703816
 42
-0
  0
SEQEND
  0
POLYLINE
  8
0
 10
0
 20
0
 39
0
 70
1
 66
1
  0
VERTEX
  8
0
 10
46.549476623535156
 20
862.49998672703816
 42
-1
  0
VERTEX
  8
0
 10
46.549476623535156
 20
842.49998672703816
 42
-1
  0
SEQEND
  0
POLYLINE
  8
0
 10
0
 20
0
 39
0
 70
1
 66
1
  0
VERTEX
  8
0
 10
760.91999816894531
 20
975
 42
0
  0
VERTEX
  8
0
 10
760.91999816894531
 20
940
 42
0
  0
VERTEX
  8
0
 10
1014.9199981689453
 20
940
 42
0
  0
VERTEX
  8
0
 10
1014.9199981689453
 20
957.5
 42
0
  0
VERTEX
  8
0
 10
1050.9199981689453
 20
957.5
 42
0
  0
VERTEX
  8
0
 10
1050.9199981689453
 20
940
 42
0
  0
VERTEX
  8
0
 10
1074.9199981689453
 20
940
 42
-0
  0
VERTEX
  8
0
 10
1074.9199981689453
 20
975
 42
-0
  0
SEQEND
  0
POLYLINE
  8
0
 10
0
 20
0
 39
0
 70
1
 66
1
  0
VERTEX
  8
0
 10
797.46947479248047
 20
967.5
 42
-1
  0
VERTEX
  8
0
 10
797.46947479248047
 20
947.5
 42
-1
  0
SEQEND
  0
POLYLINE
  8
0
 10
0
 20
0
 39
0
 70
1
 66
1
  0
VERTEX
  8
0
 10
334
 20
898.99998672703816
 42
0
  0
VERTEX
  8
0
 10
334
 20
789.99998672703816
 42
0
  0
VERTEX
  8
0
 10
439
 20
789.99998672703816
 42
0
  0
VERTEX
  8
0
 10
439
 20
898.99998672703816
 42
-0
  0
SEQEND
  0
POLYLINE
  8
0
 10
0
 20
0
 39
0
 70
1
 66
1
  0
VERTEX
  8
0
 10
422.77088928222656
 20
822.93515976170613
 42
-1
  0
VERTEX
  8
0
 10
422.77088928222656
 20
800.93515976170613
 42
-1
  0
SEQEND
  0
POLYLINE
  8
0
 10
0
 20
0
 39
0
 70
1
 66
1
  0
VERTEX
  8
0
 10
422.77088928222656
 20
855.49998672703816
 42
-1
  0
VERTEX
  8
0
 10
422.77088928222656
 20
833.49998672703816
 42
-1
  0
SEQEND
  0
POLYLINE
  8
0
 10
0
 20
0
 39
0
 70
1
 66
1
  0
VERTEX
  8
0
 10
392.29088592529297
 20
822.93515976170613
 42
-1
  0
VERTEX
  8
0
 10
392.29088592529297
 20
800.93515976170613
 42
-1
  0
SEQEND
  0
POLYLINE
  8
0
 10
0
 20
0
 39
0
 70
1
 66
1
  0
VERTEX
  8
0
 10
399.99999336351908
 20
129
 42
0
  0
VERTEX
  8
0
 10
434.99999336351908
 20
129
 42
0
  0
VERTEX
  8
0
 10
434.99999336351908
 20
383
 42
0
  0
VERTEX
  8
0
 10
417.49999336351908
 20
383
 42
0
  0
VERTEX
  8
0
 10
417.49999336351908
 20
419
 42
0
  0
VERTEX
  8
0
 10
434.99999336351908
 20
419
 42
0
  0
VERTEX
  8
0
 10
434.99999336351908
 20
443
 42
-0
  0
VERTEX
  8
0
 10
399.99999336351908
 20
443
 42
-0
  0
SEQEND
  0
POLYLINE
  8
0
 10
0
 20
0
 39
0
 70
1
 66
1
  0
VERTEX
  8
0
 10
407.49999336351908
 20
165.54947662353516
 42
-1
  0
VERTEX
  8
0
 10
427.49999336351908
 20
165.54947662353516
 42
-1
  0
SEQEND
  0
POLYLINE
  8
0
 10
0
 20
0
 39
0
 70
1
 66
1
  0
VERTEX
  8
0
 10
399.99999336351908
 20
119
 42
0
  0
VERTEX
  8
0
 10
399.99999336351908
 20
10
 42
0
  0
VERTEX
  8
0
 10
504.99999336351908
 20
10
 42
0
  0
VERTEX
  8
0
 10
504.99999336351908
 20
119
 42
-0
  0
SEQEND
  0
POLYLINE
  8
0
 10
0
 20
0
 39
0
 70
1
 66
1
  0
VERTEX
  8
0
 10
488.77088264574564
 20
42.935173034667969
 42
-1
  0
VERTEX
  8
0
 10
488.77088264574564
 20
20.935173034667969
 42
-1
  0
SEQEND
  0
POLYLINE
  8
0
 10
0
 20
0
 39
0
 70
1
 66
1
  0
VERTEX
  8
0
 10
488.77088264574564
 20
75.5
 42
-1
  0
VERTEX
  8
0
 10
488.77088264574564
 20
53.5
 42
-1
  0
SEQEND
  0
POLYLINE
  8
0
 10
0
 20
0
 39
0
 70
1
 66
1
  0
VERTEX
  8
0
 10
458.29087928881205
 20
42.935173034667969
 42
-1
  0
VERTEX
  8
0
 10
458.29087928881205
 20
20.935173034667969
 42
-1
  0
SEQEND
  0
POLYLINE
  8
0
 10
0
 20
0
 39
0
 70
1
 66
1
  0
VERTEX
  8
0
 10
1349.999993363519
 20
119
 42
0
  0
VERTEX
  8
0
 10
1349.999993363519
 20
10
 42
0
  0
VERTEX
  8
0
 10
1454.999993363519
 20
10
 42
0
  0
VERTEX
  8
0
 10
1454.999993363519
 20
119
 42
-0
  0
SEQEND
  0
POLYLINE
  8
0
 10
0
 20
0
 39
0
 70
1
 66
1
  0
VERTEX
  8
0
 10
1438.7708826457456
 20
42.935173034667969
 42
-1
  0
VERTEX
  8
0
 10
1438.7708826457456
 20
20.935173034667969
 42
-1
  0
SEQEND
  0
POLYLINE
  8
0
 10
0
 20
0
 39
0
 70
1
 66
1
  0
VERTEX
  8
0
 10
1438.7708826457456
 20
75.5
 42
-1
  0
VERTEX
  8
0
 10
1438.7708826457456
 20
53.5
 42
-1
  0
SEQEND
  0
POLYLINE
  8
0
 10
0
 20
0
 39
0
 70
1
 66
1
  0
VERTEX
  8
0
 10
1408.290879288812
 20
42.935173034667969
 42
-1
  0
VERTEX
  8
0
 10
1408.290879288812
 20
20.935173034667969
 42
-1
  0
SEQEND
  0
POLYLINE
  8
0
 10
0
 20
0
 39
0
 70
1
 66
1
  0
VERTEX
  8
0
 10
1234.999993363519
 20
357
 42
0
  0
VERTEX
  8
0
 10
1234.999993363519
 20
248
 42
0
  0
VERTEX
  8
0
 10
1339.999993363519
 20
248
 42
0
  0
VERTEX
  8
0
 10
1339.999993363519
 20
357
 42
-0
  0
SEQEND
  0
POLYLINE
  8
0
 10
0
 20
0
 39
0
 70
1
 66
1
  0
VERTEX
  8
0
 10
1323.7708826457456
 20
280.93517303466797
 42
-1
  0
VERTEX
  8
0
 10
1323.7708826457456
 20
258.93517303466797
 42
-1
  0
SEQEND
  0
POLYLINE
  8
0
 10
0
 20
0
 39
0
 70
1
 66
1
  0
VERTEX
  8
0
 10
1323.7708826457456
 20
313.5
 42
-1
  0
VERTEX
  8
0
 10
1323.7708826457456
 20
291.5
 42
-1
  0
SEQEND
  0
POLYLINE
  8
0
 10
0
 20
0
 39
0
 70
1
 66
1
  0
VERTEX
  8
0
 10
1293.290879288812
 20
280.93517303466797
 42
-1
  0
VERTEX
  8
0
 10
1293.290879288812
 20
258.93517303466797
 42
-1
  0
SEQEND
  0
POLYLINE
  8
0
 10
0
 20
0
 39
0
 70
1
 66
1
  0
VERTEX
  8
0
 10
1954.999993363519
 20
10
 42
0
  0
VERTEX
  8
0
 10
1954.999993363519
 20
270
 42
0
  0
VERTEX
  8
0
 10
1824.999993363519
 20
270
 42
0
  0
VERTEX
  8
0
 10
1824.999993363519
 20
10
 42
0
  0
SEQEND
  0
POLYLINE
  8
0
 10
0
 20
0
 39
0
 70
1
 66
1
  0
VERTEX
  8
0
 10
1881.499993363519
 20
35
 42
-1
  0
VERTEX
  8
0
 10
1898.499993363519
 20
35
 42
-1
  0
SEQEND
  0
POLYLINE
  8
0
 10
0
 20
0
 39
0
 70
1
 66
1
  0
VERTEX
  8
0
 10
1837.999993363519
 20
65
 42
-1
  0
VERTEX
  8
0
 10
1851.999993363519
 20
65
 42
-1
  0
SEQEND
  0
POLYLINE
  8
0
 10
0
 20
0
 39
0
 70
1
 66
1
  0
VERTEX
  8
0
 10
1927.999993363519
 20
65
 42
-1
  0
VERTEX
  8
0
 10
1941.999993363519
 20
65
 42
-1
  0
SEQEND
  0
POLYLINE
  8
0
 10
0
 20
0
 39
0
 70
1
 66
1
  0
VERTEX
  8
0
 10
1851.999993363519
 20
240
 42
0
  0
VERTEX
  8
0
 10
1851.999993363519
 20
224
 42
-1
  0
VERTEX
  8
0
 10
1837.999993363519
 20
224
 42
-0
  0
VERTEX
  8
0
 10
1837.999993363519
 20
240
 42
-1
  0
SEQEND
  0
POLYLINE
  8
0
 10
0
 20
0
 39
0
 70
1
 66
1
  0
VERTEX
  8
0
 10
1941.999993363519
 20
240
 42
-0
  0
VERTEX
  8
0
 10
1941.999993363519
 20
224
 42
-1
  0
VERTEX
  8
0
 10
1927.999993363519
 20
224
 42
0
  0
VERTEX
  8
0
 10
1927.999993363519
 20
240
 42
-1
  0
SEQEND
  0
POLYLINE
  8
0
 10
0
 20
0
 39
0
 70
1
 66
1
  0
VERTEX
  8
0
 10
1234.999993363519
 20
238
 42
0
  0
VERTEX
  8
0
 10
1234.999993363519
 20
129
 42
0
  0
VERTEX
  8
0
 10
1339.999993363519
 20
129
 42
0
  0
VERTEX
  8
0
 10
1339.999993363519
 20
238
 42
-0
  0
SEQEND
  0
POLYLINE
  8
0
 10
0
 20
0
 39
0
 70
1
 66
1
  0
VERTEX
  8
0
 10
1323.7708826457456
 20
161.93517303466797
 42
-1
  0
VERTEX
  8
0
 10
1323.7708826457456
 20
139.93517303466797
 42
-1
  0
SEQEND
  0
POLYLINE
  8
0
 10
0
 20
0
 39
0
 70
1
 66
1
  0
VERTEX
  8
0
 10
1323.7708826457456
 20
194.5
 42
-1
  0
VERTEX
  8
0
 10
1323.7708826457456
 20
172.5
 42
-1
  0
SEQEND
  0
POLYLINE
  8
0
 10
0
 20
0
 39
0
 70
1
 66
1
  0
VERTEX
  8
0
 10
1293.290879288812
 20
161.93517303466797
 42
-1
  0
VERTEX
  8
0
 10
1293.290879288812
 20
139.93517303466797
 42
-1
  0
SEQEND
  0
POLYLINE
  8
0
 10
0
 20
0
 39
0
 70
1
 66
1
  0
VERTEX
  8
0
 10
489.99999336351902
 20
453
 42
0
  0
VERTEX
  8
0
 10
524.99999336351902
 20
453
 42
0
  0
VERTEX
  8
0
 10
524.99999336351902
 20
707
 42
0
  0
VERTEX
  8
0
 10
507.49999336351902
 20
707
 42
0
  0
VERTEX
  8
0
 10
507.49999336351902
 20
743
 42
0
  0
VERTEX
  8
0
 10
524.99999336351902
 20
743
 42
0
  0
VERTEX
  8
0
 10
524.99999336351902
 20
767
 42
-0
  0
VERTEX
  8
0
 10
489.99999336351902
 20
767
 42
-0
  0
SEQEND
  0
POLYLINE
  8
0
 10
0
 20
0
 39
0
 70
1
 66
1
  0
VERTEX
  8
0
 10
497.49999336351902
 20
489.54947662353516
 42
-1
  0
VERTEX
  8
0
 10
517.49999336351902
 20
489.54947662353516
 42
-1
  0
SEQEND
  0
POLYLINE
  8
0
 10
0
 20
0
 39
0
 70
1
 66
1
  0
VERTEX
  8
0
 10
199.17096794775355
 20
389.99818470055834
 42
1
  0
VERTEX
  8
0
 10
200.82902541576553
 20
10.001808662960713
 42
1
  0
SEQEND
  0
POLYLINE
  8
0
 10
0
 20
0
 39
0
 70
1
 66
1
  0
VERTEX
  8
0
 10
199.35640858562331
 20
347.49859001214281
 42
-1
  0
VERTEX
  8
0
 10
199.79273949825804
 20
247.49954368645925
 42
-1
  0
SEQEND
  0
POLYLINE
  8
0
 10
0
 20
0
 39
0
 70
1
 66
1
  0
VERTEX
  8
0
 10
200.20725386526104
 20
152.50044967705983
 42
-1
  0
VERTEX
  8
0
 10
200.64358477789577
 20
52.50140335137624
 42
-1
  0
SEQEND
  0
POLYLINE
  8
0
 10
0
 20
0
 39
0
 70
1
 66
1
  0
VERTEX
  8
0
 10
102.28276105790067
 20
249.57409720478248
 42
-1
  0
VERTEX
  8
0
 10
102.7190919705354
 20
149.57505087909888
 42
-1
  0
SEQEND
  0
POLYLINE
  8
0
 10
0
 20
0
 39
0
 70
1
 66
1
  0
VERTEX
  8
0
 10
297.28090139298365
 20
250.4249424844202
 42
-1
  0
VERTEX
  8
0
 10
297.71723230561838
 20
150.42589615873661
 42
-1
  0
SEQEND
  0
POLYLINE
  8
0
 10
0
 20
0
 39
0
 70
1
 66
1
  0
VERTEX
  8
0
 10
10
 20
824.99998672703816
 42
0
  0
VERTEX
  8
0
 10
10.000000000000002
 20
789.99998672703816
 42
0
  0
VERTEX
  8
0
 10
264
 20
789.99998672703816
 42
0
  0
VERTEX
  8
0
 10
264
 20
807.49998672703816
 42
0
  0
VERTEX
  8
0
 10
300
 20
807.49998672703816
 42
0
  0
VERTEX
  8
0
 10
300
 20
789.99998672703816
 42
0
  0
VERTEX
  8
0
 10
324
 20
789.99998672703816
 42
-0
  0
VERTEX
  8
0
 10
324
 20
824.99998672703816
 42
-0
  0
SEQEND
  0
POLYLINE
  8
0
 10
0
 20
0
 39
0
 70
1
 66
1
  0
VERTEX
  8
0
 10
46.549476623535156
 20
817.49998672703816
 42
-1
  0
VERTEX
  8
0
 10
46.549476623535156
 20
797.49998672703816
 42
-1
  0
SEQEND
  0
POLYLINE
  8
0
 10
0
 20
0
 39
0
 70
1
 66
1
  0
VERTEX
  8
0
 10
664.99999336351902
 20
280
 42
0
  0
VERTEX
  8
0
 10
664.99999336351902
 20
540
 42
0
  0
VERTEX
  8
0
 10
534.99999336351902
 20
540
 42
0
  0
VERTEX
  8
0
 10
534.99999336351902
 20
280
 42
0
  0
SEQEND
  0
POLYLINE
  8
0
 10
0
 20
0
 39
0
 70
1
 66
1
  0
VERTEX
  8
0
 10
591.49999336351902
 20
305
 42
-1
  0
VERTEX
  8
0
 10
608.49999336351902
 20
305
 42
-1
  0
SEQEND
  0
POLYLINE
  8
0
 10
0
 20
0
 39
0
 70
1
 66
1
  0
VERTEX
  8
0
 10
547.99999336351902
 20
335
 42
-1
  0
VERTEX
  8
0
 10
561.99999336351902
 20
335
 42
-1
  0
SEQEND
  0
POLYLINE
  8
0
 10
0
 20
0
 39
0
 70
1
 66
1
  0
VERTEX
  8
0
 10
637.99999336351902
 20
335
 42
-1
  0
VERTEX
  8
0
 10
651.99999336351902
 20
335
 42
-1
  0
SEQEND
  0
POLYLINE
  8
0
 10
0
 20
0
 39
0
 70
1
 66
1
  0
VERTEX
  8
0
 10
561.99999336351902
 20
510
 42
0
  0
VERTEX
  8
0
 10
561.99999336351902
 20
494
 42
-1
  0
VERTEX
  8
0
 10
547.99999336351902
 20
494
 42
-0
  0
VERTEX
  8
0
 10
547.99999336351902
 20
510
 42
-1
  0
SEQEND
  0
POLYLINE
  8
0
 10
0
 20
0
 39
0
 70
1
 66
1
  0
VERTEX
  8
0
 10
651.99999336351902
 20
510
 42
-0
  0
VERTEX
  8
0
 10
651.99999336351902
 20
494
 42
-1
  0
VERTEX
  8
0
 10
637.99999336351902
 20
494
 42
0
  0
VERTEX
  8
0
 10
637.99999336351902
 20
510
 42
-1
  0
SEQEND
  0
POLYLINE
  8
0
 10
0
 20
0
 39
0
 70
1
 66
1
  0
VERTEX
  8
0
 10
399.99999336351908
 20
453
 42
0
  0
VERTEX
  8
0
 10
434.99999336351908
 20
453
 42
0
  0
VERTEX
  8
0
 10
434.99999336351908
 20
707
 42
0
  0
VERTEX
  8
0
 10
417.49999336351908
 20
707
 42
0
  0
VERTEX
  8
0
 10
417.49999336351908
 20
743
 42
0
  0
VERTEX
  8
0
 10
434.99999336351908
 20
743
 42
0
  0
VERTEX
  8
0
 10
434.99999336351908
 20
767
 42
-0
  0
VERTEX
  8
0
 10
399.99999336351908
 20
767
 42
-0
  0
SEQEND
  0
POLYLINE
  8
0
 10
0
 20
0
 39
0
 70
1
 66
1
  0
VERTEX
  8
0
 10
407.49999336351908
 20
489.54947662353516
 42
-1
  0
VERTEX
  8
0
 10
427.49999336351908
 20
489.54947662353516
 42
-1
  0
SEQEND
  0
POLYLINE
  8
0
 10
0
 20
0
 39
0
 70
1
 66
1
  0
VERTEX
  8
0
 10
664.99999336351902
 20
550
 42
0
  0
VERTEX
  8
0
 10
664.99999336351902
 20
810
 42
0
  0
VERTEX
  8
0
 10
534.99999336351902
 20
810
 42
0
  0
VERTEX
  8
0
 10
534.99999336351902
 20
550
 42
0
  0
SEQEND
  0
POLYLINE
  8
0
 10
0
 20
0
 39
0
 70
1
 66
1
  0
VERTEX
  8
0
 10
591.49999336351902
 20
575
 42
-1
  0
VERTEX
  8
0
 10
608.49999336351902
 20
575
 42
-1
  0
SEQEND
  0
POLYLINE
  8
0
 10
0
 20
0
 39
0
 70
1
 66
1
  0
VERTEX
  8
0
 10
547.99999336351902
 20
605
 42
-1
  0
VERTEX
  8
0
 10
561.99999336351902
 20
605
 42
-1
  0
SEQEND
  0
POLYLINE
  8
0
 10
0
 20
0
 39
0
 70
1
 66
1
  0
VERTEX
  8
0
 10
637.99999336351902
 20
605
 42
-1
  0
VERTEX
  8
0
 10
651.99999336351902
 20
605
 42
-1
  0
SEQEND
  0
POLYLINE
  8
0
 10
0
 20
0
 39
0
 70
1
 66
1
  0
VERTEX
  8
0
 10
561.99999336351902
 20
780
 42
0
  0
VERTEX
  8
0
 10
561.99999336351902
 20
764
 42
-1
  0
VERTEX
  8
0
 10
547.99999336351902
 20
764
 42
-0
  0
VERTEX
  8
0
 10
547.99999336351902
 20
780
 42
-1
  0
SEQEND
  0
POLYLINE
  8
0
 10
0
 20
0
 39
0
 70
1
 66
1
  0
VERTEX
  8
0
 10
651.99999336351902
 20
780
 42
-0
  0
VERTEX
  8
0
 10
651.99999336351902
 20
764
 42
-1
  0
VERTEX
  8
0
 10
637.99999336351902
 20
764
 42
0
  0
VERTEX
  8
0
 10
637.99999336351902
 20
780
 42
-1
  0
SEQEND
  0
POLYLINE
  8
0
 10
0
 20
0
 39
0
 70
1
 66
1
  0
VERTEX
  8
0
 10
199.17096794775355
 20
779.99817806407748
 42
1
  0
VERTEX
  8
0
 10
200.82902541576553
 20
400.00180202647982
 42
1
  0
SEQEND
  0
POLYLINE
  8
0
 10
0
 20
0
 39
0
 70
1
 66
1
  0
VERTEX
  8
0
 10
199.35640858562331
 20
737.49858337566195
 42
-1
  0
VERTEX
  8
0
 10
199.79273949825804
 20
637.49953704997836
 42
-1
  0
SEQEND
  0
POLYLINE
  8
0
 10
0
 20
0
 39
0
 70
1
 66
1
  0
VERTEX
  8
0
 10
200.20725386526104
 20
542.50044304057894
 42
-1
  0
VERTEX
  8
0
 10
200.64358477789577
 20
442.50139671489535
 42
-1
  0
SEQEND
  0
POLYLINE
  8
0
 10
0
 20
0
 39
0
 70
1
 66
1
  0
VERTEX
  8
0
 10
102.28276105790067
 20
639.57409056830159
 42
-1
  0
VERTEX
  8
0
 10
102.7190919705354
 20
539.57504424261799
 42
-1
  0
SEQEND
  0
POLYLINE
  8
0
 10
0
 20
0
 39
0
 70
1
 66
1
  0
VERTEX
  8
0
 10
297.28090139298365
 20
640.42493584793931
 42
-1
  0
VERTEX
  8
0
 10
297.71723230561838
 20
540.42588952225572
 42
-1
  0
SEQEND
  0
POLYLINE
  8
0
 10
0
 20
0
 39
0
 70
1
 66
1
  0
VERTEX
  8
0
 10
10
 20
914.99998672703816
 42
0
  0
VERTEX
  8
0
 10
10.000000000000002
 20
879.99998672703816
 42
0
  0
VERTEX
  8
0
 10
264
 20
879.99998672703816
 42
0
  0
VERTEX
  8
0
 10
264
 20
897.49998672703816
 42
0
  0
VERTEX
  8
0
 10
300
 20
897.49998672703816
 42
0
  0
VERTEX
  8
0
 10
300
 20
879.99998672703816
 42
0
  0
VERTEX
  8
0
 10
324
 20
879.99998672703816
 42
-0
  0
VERTEX
  8
0
 10
324
 20
914.99998672703816
 42
-0
  0
SEQEND
  0
POLYLINE
  8
0
 10
0
 20
0
 39
0
 70
1
 66
1
  0
VERTEX
  8
0
 10
46.549476623535156
 20
907.49998672703816
 42
-1
  0
VERTEX
  8
0
 10
46.549476623535156
 20
887.49998672703816
 42
-1
  0
SEQEND
  0
POLYLINE
  8
0
 10
0
 20
0
 39
0
 70
1
 66
1
  0
VERTEX
  8
0
 10
490.91999816894531
 20
820
 42
0
  0
VERTEX
  8
0
 10
750.91999816894531
 20
820
 42
0
  0
VERTEX
  8
0
 10
750.91999816894531
 20
950
 42
0
  0
VERTEX
  8
0
 10
490.91999816894531
 20
950
 42
0
  0
SEQEND
  0
POLYLINE
  8
0
 10
0
 20
0
 39
0
 70
1
 66
1
  0
VERTEX
  8
0
 10
515.91999816894531
 20
893.5
 42
-1
  0
VERTEX
  8
0
 10
515.91999816894531
 20
876.5
 42
-1
  0
SEQEND
  0
POLYLINE
  8
0
 10
0
 20
0
 39
0
 70
1
 66
1
  0
VERTEX
  8
0
 10
545.91999816894531
 20
937
 42
-1
  0
VERTEX
  8
0
 10
545.91999816894531
 20
923
 42
-1
  0
SEQEND
  0
POLYLINE
  8
0
 10
0
 20
0
 39
0
 70
1
 66
1
  0
VERTEX
  8
0
 10
545.91999816894531
 20
847
 42
-1
  0
VERTEX
  8
0
 10
545.91999816894531
 20
833
 42
-1
  0
SEQEND
  0
POLYLINE
  8
0
 10
0
 20
0
 39
0
 70
1
 66
1
  0
VERTEX
  8
0
 10
720.91999816894531
 20
923
 42
0
  0
VERTEX
  8
0
 10
704.91999816894531
 20
923
 42
-1
  0
VERTEX
  8
0
 10
704.91999816894531
 20
937
 42
-0
  0
VERTEX
  8
0
 10
720.91999816894531
 20
937
 42
-1
  0
SEQEND
  0
POLYLINE
  8
0
 10
0
 20
0
 39
0
 70
1
 66
1
  0
VERTEX
  8
0
 10
720.91999816894531
 20
833
 42
-0
  0
VERTEX
  8
0
 10
704.91999816894531
 20
833
 42
-1
  0
VERTEX
  8
0
 10
704.91999816894531
 20
847
 42
0
  0
VERTEX
  8
0
 10
720.91999816894531
 20
847
 42
-1
  0
SEQEND
  0
POLYLINE
  8
0
 10
0
 20
0
 39
0
 70
1
 66
1
  0
VERTEX
  8
0
 10
1626.999993363519
 20
505.35249633789067
 42
0
  0
VERTEX
  8
0
 10
1626.999993363519
 20
575.35249633789067
 42
-0
  0
VERTEX
  8
0
 10
1616.999993363519
 20
585.35249633789067
 42
0
  0
VERTEX
  8
0
 10
1558.999993363519
 20
585.35249633789067
 42
0
  0
VERTEX
  8
0
 10
1558.999993363519
 20
420.35249633789067
 42
-0
  0
SEQEND
  0
POLYLINE
  8
0
 10
0
 20
0
 39
0
 70
1
 66
1
  0
VERTEX
  8
0
 10
1601.999993363519
 20
546.85249633789067
 42
-1
  0
VERTEX
  8
0
 10
1601.999993363519
 20
533.85249633789067
 42
-1
  0
SEQEND
  0
POLYLINE
  8
0
 10
0
 20
0
 39
0
 70
1
 66
1
  0
VERTEX
  8
0
 10
1558.999993363519
 20
403.83999633789068
 42
0
  0
VERTEX
  8
0
 10
1558.999993363519
 20
333.83999633789068
 42
-0
  0
VERTEX
  8
0
 10
1568.999993363519
 20
323.83999633789068
 42
0
  0
VERTEX
  8
0
 10
1626.999993363519
 20
323.83999633789068
 42
0
  0
VERTEX
  8
0
 10
1626.999993363519
 20
488.83999633789068
 42
-0
  0
SEQEND
  0
POLYLINE
  8
0
 10
0
 20
0
 39
0
 70
1
 66
1
  0
VERTEX
  8
0
 10
1583.999993363519
 20
362.33999633789068
 42
-1
  0
VERTEX
  8
0
 10
1583.999993363519
 20
375.33999633789068
 42
-1
  0
SEQEND
  0
POLYLINE
  8
0
 10
0
 20
0
 39
0
 70
1
 66
1
  0
VERTEX
  8
0
 10
804.99999336351902
 20
550
 42
0
  0
VERTEX
  8
0
 10
804.99999336351902
 20
810
 42
0
  0
VERTEX
  8
0
 10
674.99999336351902
 20
810
 42
0
  0
VERTEX
  8
0
 10
674.99999336351902
 20
550
 42
0
  0
SEQEND
  0
POLYLINE
  8
0
 10
0
 20
0
 39
0
 70
1
 66
1
  0
VERTEX
  8
0
 10
731.49999336351902
 20
575
 42
-1
  0
VERTEX
  8
0
 10
748.49999336351902
 20
575
 42
-1
  0
SEQEND
  0
POLYLINE
  8
0
 10
0
 20
0
 39
0
 70
1
 66
1
  0
VERTEX
  8
0
 10
687.99999336351902
 20
605
 42
-1
  0
VERTEX
  8
0
 10
701.99999336351902
 20
605
 42
-1
  0
SEQEND
  0
POLYLINE
  8
0
 10
0
 20
0
 39
0
 70
1
 66
1
  0
VERTEX
  8
0
 10
777.99999336351902
 20
605
 42
-1
  0
VERTEX
  8
0
 10
791.99999336351902
 20
605
 42
-1
  0
SEQEND
  0
POLYLINE
  8
0
 10
0
 20
0
 39
0
 70
1
 66
1
  0
VERTEX
  8
0
 10
701.99999336351902
 20
780
 42
0
  0
VERTEX
  8
0
 10
701.99999336351902
 20
764
 42
-1
  0
VERTEX
  8
0
 10
687.99999336351902
 20
764
 42
-0
  0
VERTEX
  8
0
 10
687.99999336351902
 20
780
 42
-1
  0
SEQEND
  0
POLYLINE
  8
0
 10
0
 20
0
 39
0
 70
1
 66
1
  0
VERTEX
  8
0
 10
791.99999336351902
 20
780
 42
-0
  0
VERTEX
  8
0
 10
791.99999336351902
 20
764
 42
-1
  0
VERTEX
  8
0
 10
777.99999336351902
 20
764
 42
0
  0
VERTEX
  8
0
 10
777.99999336351902
 20
780
 42
-1
  0
SEQEND
  0
POLYLINE
  8
0
 10
0
 20
0
 39
0
 70
1
 66
1
  0
VERTEX
  8
0
 10
1548.999993363519
 20
505.35249633789067
 42
0
  0
VERTEX
  8
0
 10
1548.999993363519
 20
575.35249633789067
 42
-0
  0
VERTEX
  8
0
 10
1538.999993363519
 20
585.35249633789067
 42
0
  0
VERTEX
  8
0
 10
1480.999993363519
 20
585.35249633789067
 42
0
  0
VERTEX
  8
0
 10
1480.999993363519
 20
420.35249633789067
 42
-0
  0
SEQEND
  0
POLYLINE
  8
0
 10
0
 20
0
 39
0
 70
1
 66
1
  0
VERTEX
  8
0
 10
1523.999993363519
 20
546.85249633789067
 42
-1
  0
VERTEX
  8
0
 10
1523.999993363519
 20
533.85249633789067
 42
-1
  0
SEQEND
  0
POLYLINE
  8
0
 10
0
 20
0
 39
0
 70
1
 66
1
  0
VERTEX
  8
0
 10
1480.999993363519
 20
403.83999633789068
 42
0
  0
VERTEX
  8
0
 10
1480.999993363519
 20
333.83999633789068
 42
-0
  0
VERTEX
  8
0
 10
1490.999993363519
 20
323.83999633789068
 42
0
  0
VERTEX
  8
0
 10
1548.999993363519
 20
323.83999633789068
 42
0
  0
VERTEX
  8
0
 10
1548.999993363519
 20
488.83999633789068
 42
-0
  0
SEQEND
  0
POLYLINE
  8
0
 10
0
 20
0
 39
0
 70
1
 66
1
  0
VERTEX
  8
0
 10
1505.999993363519
 20
362.33999633789068
 42
-1
  0
VERTEX
  8
0
 10
1505.999993363519
 20
375.33999633789068
 42
-1
  0
SEQEND
  0
POLYLINE
  8
0
 10
0
 20
0
 39
0
 70
1
 66
1
  0
VERTEX
  8
0
 10
1392.999993363519
 20
820.02500000000009
 42
0
  0
VERTEX
  8
0
 10
1392.999993363519
 20
890.02500000000009
 42
-0
  0
VERTEX
  8
0
 10
1382.999993363519
 20
900.02500000000009
 42
0
  0
VERTEX
  8
0
 10
1324.999993363519
 20
900.02500000000009
 42
0
  0
VERTEX
  8
0
 10
1324.999993363519
 20
735.02500000000009
 42
-0
  0
SEQEND
  0
POLYLINE
  8
0
 10
0
 20
0
 39
0
 70
1
 66
1
  0
VERTEX
  8
0
 10
1367.999993363519
 20
861.52500000000009
 42
-1
  0
VERTEX
  8
0
 10
1367.999993363519
 20
848.52500000000009
 42
-1
  0
SEQEND
  0
POLYLINE
  8
0
 10
0
 20
0
 39
0
 70
1
 66
1
  0
VERTEX
  8
0
 10
1324.999993363519
 20
718.51250000000005
 42
0
  0
VERTEX
  8
0
 10
1324.999993363519
 20
648.51250000000005
 42
-0
  0
VERTEX
  8
0
 10
1334.999993363519
 20
638.51250000000005
 42
0
  0
VERTEX
  8
0
 10
1392.999993363519
 20
638.51250000000005
 42
0
  0
VERTEX
  8
0
 10
1392.999993363519
 20
803.51250000000005
 42
-0
  0
SEQEND
  0
POLYLINE
  8
0
 10
0
 20
0
 39
0
 70
1
 66
1
  0
VERTEX
  8
0
 10
1349.999993363519
 20
677.01250000000005
 42
-1
  0
VERTEX
  8
0
 10
1349.999993363519
 20
690.01250000000005
 42
-1
  0
SEQEND
  0
POLYLINE
  8
0
 10
0
 20
0
 39
0
 70
1
 66
1
  0
VERTEX
  8
0
 10
1560.999993363519
 20
776.86499633789072
 42
0
  0
VERTEX
  8
0
 10
1560.999993363519
 20
846.86499633789072
 42
-0
  0
VERTEX
  8
0
 10
1550.999993363519
 20
856.86499633789072
 42
0
  0
VERTEX
  8
0
 10
1492.999993363519
 20
856.86499633789072
 42
0
  0
VERTEX
  8
0
 10
1492.999993363519
 20
691.86499633789072
 42
-0
  0
SEQEND
  0
POLYLINE
  8
0
 10
0
 20
0
 39
0
 70
1
 66
1
  0
VERTEX
  8
0
 10
1535.999993363519
 20
818.36499633789072
 42
-1
  0
VERTEX
  8
0
 10
1535.999993363519
 20
805.36499633789072
 42
-1
  0
SEQEND
  0
POLYLINE
  8
0
 10
0
 20
0
 39
0
 70
1
 66
1
  0
VERTEX
  8
0
 10
1492.999993363519
 20
675.35249633789067
 42
0
  0
VERTEX
  8
0
 10
1492.999993363519
 20
605.35249633789067
 42
-0
  0
VERTEX
  8
0
 10
1502.999993363519
 20
595.35249633789067
 42
0
  0
VERTEX
  8
0
 10
1560.999993363519
 20
595.35249633789067
 42
0
  0
VERTEX
  8
0
 10
1560.999993363519
 20
760.35249633789067
 42
-0
  0
SEQEND
  0
POLYLINE
  8
0
 10
0
 20
0
 39
0
 70
1
 66
1
  0
VERTEX
  8
0
 10
1517.999993363519
 20
633.85249633789067
 42
-1
  0
VERTEX
  8
0
 10
1517.999993363519
 20
646.85249633789067
 42
-1
  0
SEQEND
  0
POLYLINE
  8
0
 10
0
 20
0
 39
0
 70
1
 66
1
  0
VERTEX
  8
0
 10
1962.999993363519
 20
461.51250000000005
 42
0
  0
VERTEX
  8
0
 10
1962.999993363519
 20
531.51250000000005
 42
-0
  0
VERTEX
  8
0
 10
1952.999993363519
 20
541.51250000000005
 42
0
  0
VERTEX
  8
0
 10
1894.999993363519
 20
541.51250000000005
 42
0
  0
VERTEX
  8
0
 10
1894.999993363519
 20
376.51250000000005
 42
-0
  0
SEQEND
  0
POLYLINE
  8
0
 10
0
 20
0
 39
0
 70
1
 66
1
  0
VERTEX
  8
0
 10
1937.999993363519
 20
503.01250000000005
 42
-1
  0
VERTEX
  8
0
 10
1937.999993363519
 20
490.01250000000005
 42
-1
  0
SEQEND
  0
POLYLINE
  8
0
 10
0
 20
0
 39
0
 70
1
 66
1
  0
VERTEX
  8
0
 10
1894.999993363519
 20
360.00000000000006
 42
0
  0
VERTEX
  8
0
 10
1894.999993363519
 20
290.00000000000006
 42
-0
  0
VERTEX
  8
0
 10
1904.999993363519
 20
280.00000000000006
 42
0
  0
VERTEX
  8
0
 10
1962.999993363519
 20
280.00000000000006
 42
0
  0
VERTEX
  8
0
 10
1962.999993363519
 20
445.00000000000006
 42
-0
  0
SEQEND
  0
POLYLINE
  8
0
 10
0
 20
0
 39
0
 70
1
 66
1
  0
VERTEX
  8
0
 10
1919.999993363519
 20
318.50000000000006
 42
-1
  0
VERTEX
  8
0
 10
1919.999993363519
 20
331.50000000000006
 42
-1
  0
SEQEND
  0
POLYLINE
  8
0
 10
0
 20
0
 39
0
 70
1
 66
1
  0
VERTEX
  8
0
 10
1728.999993363519
 20
662.27249450683598
 42
0
  0
VERTEX
  8
0
 10
1728.999993363519
 20
732.27249450683598
 42
-0
  0
VERTEX
  8
0
 10
1718.999993363519
 20
742.27249450683598
 42
0
  0
VERTEX
  8
0
 10
1660.999993363519
 20
742.27249450683598
 42
0
  0
VERTEX
  8
0
 10
1660.999993363519
 20
577.27249450683598
 42
-0
  0
SEQEND
  0
POLYLINE
  8
0
 10
0
 20
0
 39
0
 70
1
 66
1
  0
VERTEX
  8
0
 10
1703.999993363519
 20
703.77249450683598
 42
-1
  0
VERTEX
  8
0
 10
1703.999993363519
 20
690.77249450683598
 42
-1
  0
SEQEND
  0
POLYLINE
  8
0
 10
0
 20
0
 39
0
 70
1
 66
1
  0
VERTEX
  8
0
 10
1660.999993363519
 20
560.75999450683594
 42
0
  0
VERTEX
  8
0
 10
1660.999993363519
 20
490.75999450683599
 42
-0
  0
VERTEX
  8
0
 10
1670.999993363519
 20
480.75999450683599
 42
0
  0
VERTEX
  8
0
 10
1728.999993363519
 20
480.75999450683599
 42
0
  0
VERTEX
  8
0
 10
1728.999993363519
 20
645.75999450683594
 42
-0
  0
SEQEND
  0
POLYLINE
  8
0
 10
0
 20
0
 39
0
 70
1
 66
1
  0
VERTEX
  8
0
 10
1685.999993363519
 20
519.25999450683594
 42
-1
  0
VERTEX
  8
0
 10
1685.999993363519
 20
532.25999450683594
 42
-1
  0
SEQEND
  0
POLYLINE
  8
0
 10
0
 20
0
 39
0
 70
1
 66
1
  0
VERTEX
  8
0
 10
1392.999993363519
 20
548.51250000000005
 42
0
  0
VERTEX
  8
0
 10
1392.999993363519
 20
618.51250000000005
 42
-0
  0
VERTEX
  8
0
 10
1382.999993363519
 20
628.51250000000005
 42
0
  0
VERTEX
  8
0
 10
1324.999993363519
 20
628.51250000000005
 42
0
  0
VERTEX
  8
0
 10
1324.999993363519
 20
463.51250000000005
 42
-0
  0
SEQEND
  0
POLYLINE
  8
0
 10
0
 20
0
 39
0
 70
1
 66
1
  0
VERTEX
  8
0
 10
1367.999993363519
 20
590.01250000000005
 42
-1
  0
VERTEX
  8
0
 10
1367.999993363519
 20
577.01250000000005
 42
-1
  0
SEQEND
  0
POLYLINE
  8
0
 10
0
 20
0
 39
0
 70
1
 66
1
  0
VERTEX
  8
0
 10
1324.999993363519
 20
447.00000000000006
 42
0
  0
VERTEX
  8
0
 10
1324.999993363519
 20
377.00000000000006
 42
-0
  0
VERTEX
  8
0
 10
1334.999993363519
 20
367.00000000000006
 42
0
  0
VERTEX
  8
0
 10
1392.999993363519
 20
367.00000000000006
 42
0
  0
VERTEX
  8
0
 10
1392.999993363519
 20
532
 42
-0
  0
SEQEND
  0
POLYLINE
  8
0
 10
0
 20
0
 39
0
 70
1
 66
1
  0
VERTEX
  8
0
 10
1349.999993363519
 20
405.50000000000006
 42
-1
  0
VERTEX
  8
0
 10
1349.999993363519
 20
418.50000000000006
 42
-1
  0
SEQEND
  0
POLYLINE
  8
0
 10
0
 20
0
 39
0
 70
1
 66
1
  0
VERTEX
  8
0
 10
1975.9199915324643
 20
733.02500000000009
 42
0
  0
VERTEX
  8
0
 10
1975.9199915324643
 20
803.02500000000009
 42
-0
  0
VERTEX
  8
0
 10
1965.9199915324643
 20
813.02500000000009
 42
0
  0
VERTEX
  8
0
 10
1907.9199915324643
 20
813.02500000000009
 42
0
  0
VERTEX
  8
0
 10
1907.9199915324643
 20
648.02500000000009
 42
-0
  0
SEQEND
  0
POLYLINE
  8
0
 10
0
 20
0
 39
0
 70
1
 66
1
  0
VERTEX
  8
0
 10
1950.9199915324643
 20
774.52500000000009
 42
-1
  0
VERTEX
  8
0
 10
1950.9199915324643
 20
761.52500000000009
 42
-1
  0
SEQEND
  0
POLYLINE
  8
0
 10
0
 20
0
 39
0
 70
1
 66
1
  0
VERTEX
  8
0
 10
1907.9199915324643
 20
631.51250000000005
 42
0
  0
VERTEX
  8
0
 10
1907.9199915324643
 20
561.51250000000005
 42
-0
  0
VERTEX
  8
0
 10
1917.9199915324643
 20
551.51250000000005
 42
0
  0
VERTEX
  8
0
 10
1975.9199915324643
 20
551.51250000000005
 42
0
  0
VERTEX
  8
0
 10
1975.9199915324643
 20
716.51250000000005
 42
-0
  0
SEQEND
  0
POLYLINE
  8
0
 10
0
 20
0
 39
0
 70
1
 66
1
  0
VERTEX
  8
0
 10
1932.9199915324643
 20
590.01250000000005
 42
-1
  0
VERTEX
  8
0
 10
1932.9199915324643
 20
603.01250000000005
 42
-1
  0
SEQEND
  0
POLYLINE
  8
0
 10
0
 20
0
 39
0
 70
1
 66
1
  0
VERTEX
  8
0
 10
804.99999336351902
 20
280
 42
0
  0
VERTEX
  8
0
 10
804.99999336351902
 20
540
 42
0
  0
VERTEX
  8
0
 10
674.99999336351902
 20
540
 42
0
  0
VERTEX
  8
0
 10
674.99999336351902
 20
280
 42
0
  0
SEQEND
  0
POLYLINE
  8
0
 10
0
 20
0
 39
0
 70
1
 66
1
  0
VERTEX
  8
0
 10
731.49999336351902
 20
305
 42
-1
  0
VERTEX
  8
0
 10
748.49999336351902
 20
305
 42
-1
  0
SEQEND
  0
POLYLINE
  8
0
 10
0
 20
0
 39
0
 70
1
 66
1
  0
VERTEX
  8
0
 10
687.99999336351902
 20
335
 42
-1
  0
VERTEX
  8
0
 10
701.99999336351902
 20
335
 42
-1
  0
SEQEND
  0
POLYLINE
  8
0
 10
0
 20
0
 39
0
 70
1
 66
1
  0
VERTEX
  8
0
 10
777.99999336351902
 20
335
 42
-1
  0
VERTEX
  8
0
 10
791.99999336351902
 20
335
 42
-1
  0
SEQEND
  0
POLYLINE
  8
0
 10
0
 20
0
 39
0
 70
1
 66
1
  0
VERTEX
  8
0
 10
701.99999336351902
 20
510
 42
0
  0
VERTEX
  8
0
 10
701.99999336351902
 20
494
 42
-1
  0
VERTEX
  8
0
 10
687.99999336351902
 20
494
 42
-0
  0
VERTEX
  8
0
 10
687.99999336351902
 20
510
 42
-1
  0
SEQEND
  0
POLYLINE
  8
0
 10
0
 20
0
 39
0
 70
1
 66
1
  0
VERTEX
  8
0
 10
791.99999336351902
 20
510
 42
-0
  0
VERTEX
  8
0
 10
791.99999336351902
 20
494
 42
-1
  0
VERTEX
  8
0
 10
777.99999336351902
 20
494
 42
0
  0
VERTEX
  8
0
 10
777.99999336351902
 20
510
 42
-1
  0
SEQEND
  0
POLYLINE
  8
0
 10
0
 20
0
 39
0
 70
1
 66
1
  0
VERTEX
  8
0
 10
804.99999336351902
 20
10
 42
0
  0
VERTEX
  8
0
 10
804.99999336351902
 20
270
 42
0
  0
VERTEX
  8
0
 10
674.99999336351902
 20
270
 42
0
  0
VERTEX
  8
0
 10
674.99999336351902
 20
10
 42
0
  0
SEQEND
  0
POLYLINE
  8
0
 10
0
 20
0
 39
0
 70
1
 66
1
  0
VERTEX
  8
0
 10
731.49999336351902
 20
35
 42
-1
  0
VERTEX
  8
0
 10
748.49999336351902
 20
35
 42
-1
  0
SEQEND
  0
POLYLINE
  8
0
 10
0
 20
0
 39
0
 70
1
 66
1
  0
VERTEX
  8
0
 10
687.99999336351902
 20
65
 42
-1
  0
VERTEX
  8
0
 10
701.99999336351902
 20
65
 42
-1
  0
SEQEND
  0
POLYLINE
  8
0
 10
0
 20
0
 39
0
 70
1
 66
1
  0
VERTEX
  8
0
 10
777.99999336351902
 20
65
 42
-1
  0
VERTEX
  8
0
 10
791.99999336351902
 20
65
 42
-1
  0
SEQEND
  0
POLYLINE
  8
0
 10
0
 20
0
 39
0
 70
1
 66
1
  0
VERTEX
  8
0
 10
701.99999336351902
 20
240
 42
0
  0
VERTEX
  8
0
 10
701.99999336351902
 20
224
 42
-1
  0
VERTEX
  8
0
 10
687.99999336351902
 20
224
 42
-0
  0
VERTEX
  8
0
 10
687.99999336351902
 20
240
 42
-1
  0
SEQEND
  0
POLYLINE
  8
0
 10
0
 20
0
 39
0
 70
1
 66
1
  0
VERTEX
  8
0
 10
791.99999336351902
 20
240
 42
-0
  0
VERTEX
  8
0
 10
791.99999336351902
 20
224
 42
-1
  0
VERTEX
  8
0
 10
777.99999336351902
 20
224
 42
0
  0
VERTEX
  8
0
 10
777.99999336351902
 20
240
 42
-1
  0
SEQEND
  0
ENDSEC
  0
EOF
