  0
SECTION
  2
ENTITIES
  0
POLYLINE
  8
0
 10
0
 20
0
 39
0
 70
1
 66
1
  0
VERTEX
  8
0
 10
0
 20
0
 42
-0
  0
VERTEX
  8
0
 10
1650
 20
0
 42
-0
  0
VERTEX
  8
0
 10
1650
 20
900
 42
-0
  0
VERTEX
  8
0
 10
0
 20
900
 42
-0
  0
SEQEND
  0
POLYLINE
  8
0
 10
0
 20
0
 39
0
 70
1
 66
1
  0
VERTEX
  8
0
 10
336.62191772460937
 20
660.20074462890625
 42
1
  0
VERTEX
  8
0
 10
333.7857666015625
 20
10.206939697265625
 42
1
  0
SEQEND
  0
POLYLINE
  8
0
 10
0
 20
0
 39
0
 70
1
 66
1
  0
VERTEX
  8
0
 10
336.38192749023437
 20
605.2012939453125
 42
-1
  0
VERTEX
  8
0
 10
334.0257568359375
 20
65.206413269042969
 42
-1
  0
SEQEND
  0
POLYLINE
  8
0
 10
0
 20
0
 39
0
 70
1
 66
1
  0
VERTEX
  8
0
 10
955.879638671875
 20
889.55072021484375
 42
1
  0
VERTEX
  8
0
 10
953.04345703125
 20
239.55694580078125
 42
1
  0
SEQEND
  0
POLYLINE
  8
0
 10
0
 20
0
 39
0
 70
1
 66
1
  0
VERTEX
  8
0
 10
955.6396484375
 20
834.55126953125
 42
-1
  0
VERTEX
  8
0
 10
953.283447265625
 20
294.55642700195312
 42
-1
  0
SEQEND
  0
POLYLINE
  8
0
 10
0
 20
0
 39
0
 70
1
 66
1
  0
VERTEX
  8
0
 10
233.75645446777344
 20
490.4561767578125
 42
1
  0
VERTEX
  8
0
 10
232.38200378417969
 20
175.45919799804687
 42
1
  0
SEQEND
  0
POLYLINE
  8
0
 10
0
 20
0
 39
0
 70
1
 66
1
  0
VERTEX
  8
0
 10
233.57101440429687
 20
447.95660400390625
 42
-1
  0
VERTEX
  8
0
 10
232.56744384765625
 20
217.95878601074219
 42
-1
  0
SEQEND
  0
POLYLINE
  8
0
 10
0
 20
0
 39
0
 70
1
 66
1
  0
VERTEX
  8
0
 10
853.01416015625
 20
719.80621337890625
 42
1
  0
VERTEX
  8
0
 10
851.63970947265625
 20
404.8092041015625
 42
1
  0
SEQEND
  0
POLYLINE
  8
0
 10
0
 20
0
 39
0
 70
1
 66
1
  0
VERTEX
  8
0
 10
852.82867431640625
 20
677.30657958984375
 42
-1
  0
VERTEX
  8
0
 10
851.82513427734375
 20
447.30877685546875
 42
-1
  0
SEQEND
  0
POLYLINE
  8
0
 10
0
 20
0
 39
0
 70
1
 66
1
  0
VERTEX
  8
0
 10
1404.1754150390625
 20
167.01661682128906
 42
1
  0
VERTEX
  8
0
 10
1089.178466796875
 20
168.39106750488281
 42
1
  0
SEQEND
  0
POLYLINE
  8
0
 10
0
 20
0
 39
0
 70
1
 66
1
  0
VERTEX
  8
0
 10
1361.67578125
 20
167.20205688476562
 42
-1
  0
VERTEX
  8
0
 10
1131.677978515625
 20
168.20562744140625
 42
-1
  0
SEQEND
  0
POLYLINE
  8
0
 10
0
 20
0
 39
0
 70
1
 66
1
  0
VERTEX
  8
0
 10
1418.7103271484375
 20
889.5023193359375
 42
1
  0
VERTEX
  8
0
 10
1417.3358154296875
 20
574.50537109375
 42
1
  0
SEQEND
  0
POLYLINE
  8
0
 10
0
 20
0
 39
0
 70
1
 66
1
  0
VERTEX
  8
0
 10
1418.52490234375
 20
847.00274658203125
 42
-1
  0
VERTEX
  8
0
 10
1417.521240234375
 20
617.00494384765625
 42
-1
  0
SEQEND
  0
POLYLINE
  8
0
 10
0
 20
0
 39
0
 70
1
 66
1
  0
VERTEX
  8
0
 10
1464.656494140625
 20
567.37158203125
 42
1
  0
VERTEX
  8
0
 10
1463.281982421875
 20
252.37457275390625
 42
1
  0
SEQEND
  0
POLYLINE
  8
0
 10
0
 20
0
 39
0
 70
1
 66
1
  0
VERTEX
  8
0
 10
1464.4710693359375
 20
524.8719482421875
 42
-1
  0
VERTEX
  8
0
 10
1463.4674072265625
 20
294.87417602539062
 42
-1
  0
SEQEND
  0
POLYLINE
  8
0
 10
0
 20
0
 39
0
 70
1
 66
1
  0
VERTEX
  8
0
 10
10.203845977783203
 20
670.203857421875
 42
-0
  0
VERTEX
  8
0
 10
260.203857421875
 20
670.203857421875
 42
1
  0
VERTEX
  8
0
 10
260.203857421875
 20
720.203857421875
 42
-0
  0
VERTEX
  8
0
 10
60.203845977783203
 20
720.203857421875
 42
-0
  0
VERTEX
  8
0
 10
60.203845977783203
 20
820.203857421875
 42
1
  0
VERTEX
  8
0
 10
10.203845977783203
 20
820.203857421875
 42
0
  0
SEQEND
  0
POLYLINE
  8
0
 10
0
 20
0
 39
0
 70
1
 66
1
  0
VERTEX
  8
0
 10
35.203845977783203
 20
805.203857421875
 42
-1
  0
VERTEX
  8
0
 10
35.203845977783203
 20
835.203857421875
 42
-1
  0
SEQEND
  0
POLYLINE
  8
0
 10
0
 20
0
 39
0
 70
1
 66
1
  0
VERTEX
  8
0
 10
345.48135375976562
 20
845.203857421875
 42
-0
  0
VERTEX
  8
0
 10
95.481346130371094
 20
845.203857421875
 42
1
  0
VERTEX
  8
0
 10
95.481346130371094
 20
795.203857421875
 42
-0
  0
VERTEX
  8
0
 10
295.48135375976562
 20
795.203857421875
 42
-0
  0
VERTEX
  8
0
 10
295.48135375976562
 20
695.203857421875
 42
1
  0
VERTEX
  8
0
 10
345.48135375976562
 20
695.203857421875
 42
0
  0
SEQEND
  0
POLYLINE
  8
0
 10
0
 20
0
 39
0
 70
1
 66
1
  0
VERTEX
  8
0
 10
320.48135375976562
 20
710.203857421875
 42
-1
  0
VERTEX
  8
0
 10
320.48135375976562
 20
680.203857421875
 42
-1
  0
SEQEND
  0
POLYLINE
  8
0
 10
0
 20
0
 39
0
 70
1
 66
1
  0
VERTEX
  8
0
 10
625.2730712890625
 20
10.203845977783203
 42
-0
  0
VERTEX
  8
0
 10
875.2730712890625
 20
10.203845977783203
 42
1
  0
VERTEX
  8
0
 10
875.2730712890625
 20
60.203845977783203
 42
-0
  0
VERTEX
  8
0
 10
675.2730712890625
 20
60.203845977783203
 42
-0
  0
VERTEX
  8
0
 10
675.2730712890625
 20
160.20384216308594
 42
1
  0
VERTEX
  8
0
 10
625.2730712890625
 20
160.20384216308594
 42
0
  0
SEQEND
  0
POLYLINE
  8
0
 10
0
 20
0
 39
0
 70
1
 66
1
  0
VERTEX
  8
0
 10
650.2730712890625
 20
145.20384216308594
 42
-1
  0
VERTEX
  8
0
 10
650.2730712890625
 20
175.20384216308594
 42
-1
  0
SEQEND
  0
POLYLINE
  8
0
 10
0
 20
0
 39
0
 70
1
 66
1
  0
VERTEX
  8
0
 10
960.55059814453125
 20
185.20384216308594
 42
-0
  0
VERTEX
  8
0
 10
710.55059814453125
 20
185.20384216308594
 42
1
  0
VERTEX
  8
0
 10
710.55059814453125
 20
135.20384216308594
 42
-0
  0
VERTEX
  8
0
 10
910.55059814453125
 20
135.20384216308594
 42
-0
  0
VERTEX
  8
0
 10
910.55059814453125
 20
35.203845977783203
 42
1
  0
VERTEX
  8
0
 10
960.55059814453125
 20
35.203845977783203
 42
0
  0
SEQEND
  0
POLYLINE
  8
0
 10
0
 20
0
 39
0
 70
1
 66
1
  0
VERTEX
  8
0
 10
935.55059814453125
 20
50.203845977783203
 42
-1
  0
VERTEX
  8
0
 10
935.55059814453125
 20
20.203845977783203
 42
-1
  0
SEQEND
  0
POLYLINE
  8
0
 10
0
 20
0
 39
0
 70
1
 66
1
  0
VERTEX
  8
0
 10
448.29998779296875
 20
550.7423095703125
 42
-0
  0
VERTEX
  8
0
 10
198.30000305175781
 20
550.7423095703125
 42
1
  0
VERTEX
  8
0
 10
198.30000305175781
 20
500.7423095703125
 42
-0
  0
VERTEX
  8
0
 10
398.29998779296875
 20
500.7423095703125
 42
-0
  0
VERTEX
  8
0
 10
398.29998779296875
 20
400.7423095703125
 42
1
  0
VERTEX
  8
0
 10
448.29998779296875
 20
400.7423095703125
 42
0
  0
SEQEND
  0
POLYLINE
  8
0
 10
0
 20
0
 39
0
 70
1
 66
1
  0
VERTEX
  8
0
 10
423.29998779296875
 20
415.7423095703125
 42
-1
  0
VERTEX
  8
0
 10
423.29998779296875
 20
385.7423095703125
 42
-1
  0
SEQEND
  0
POLYLINE
  8
0
 10
0
 20
0
 39
0
 70
1
 66
1
  0
VERTEX
  8
0
 10
507.96923828125
 20
141.31538391113281
 42
-0
  0
VERTEX
  8
0
 10
507.96923828125
 20
391.31539916992187
 42
1
  0
VERTEX
  8
0
 10
457.96923828125
 20
391.31539916992187
 42
-0
  0
VERTEX
  8
0
 10
457.96923828125
 20
191.31538391113281
 42
-0
  0
VERTEX
  8
0
 10
357.96923828125
 20
191.31538391113281
 42
1
  0
VERTEX
  8
0
 10
357.96923828125
 20
141.31538391113281
 42
0
  0
SEQEND
  0
POLYLINE
  8
0
 10
0
 20
0
 39
0
 70
1
 66
1
  0
VERTEX
  8
0
 10
372.96923828125
 20
166.31538391113281
 42
-1
  0
VERTEX
  8
0
 10
342.96923828125
 20
166.31538391113281
 42
-1
  0
SEQEND
  0
POLYLINE
  8
0
 10
0
 20
0
 39
0
 70
1
 66
1
  0
VERTEX
  8
0
 10
624.9769287109375
 20
889.75384521484375
 42
-0
  0
VERTEX
  8
0
 10
374.9769287109375
 20
889.75384521484375
 42
1
  0
VERTEX
  8
0
 10
374.9769287109375
 20
839.75384521484375
 42
-0
  0
VERTEX
  8
0
 10
574.9769287109375
 20
839.75384521484375
 42
-0
  0
VERTEX
  8
0
 10
574.9769287109375
 20
739.75384521484375
 42
1
  0
VERTEX
  8
0
 10
624.9769287109375
 20
739.75384521484375
 42
0
  0
SEQEND
  0
POLYLINE
  8
0
 10
0
 20
0
 39
0
 70
1
 66
1
  0
VERTEX
  8
0
 10
599.9769287109375
 20
754.75384521484375
 42
-1
  0
VERTEX
  8
0
 10
599.9769287109375
 20
724.75384521484375
 42
-1
  0
SEQEND
  0
POLYLINE
  8
0
 10
0
 20
0
 39
0
 70
1
 66
1
  0
VERTEX
  8
0
 10
1067.5577392578125
 20
780.09228515625
 42
-0
  0
VERTEX
  8
0
 10
817.55767822265625
 20
780.09228515625
 42
1
  0
VERTEX
  8
0
 10
817.55767822265625
 20
730.09228515625
 42
-0
  0
VERTEX
  8
0
 10
1017.5576782226562
 20
730.09228515625
 42
-0
  0
VERTEX
  8
0
 10
1017.5576782226562
 20
630.09228515625
 42
1
  0
VERTEX
  8
0
 10
1067.5577392578125
 20
630.09228515625
 42
0
  0
SEQEND
  0
POLYLINE
  8
0
 10
0
 20
0
 39
0
 70
1
 66
1
  0
VERTEX
  8
0
 10
1042.5577392578125
 20
645.09228515625
 42
-1
  0
VERTEX
  8
0
 10
1042.5577392578125
 20
615.09228515625
 42
-1
  0
SEQEND
  0
POLYLINE
  8
0
 10
0
 20
0
 39
0
 70
1
 66
1
  0
VERTEX
  8
0
 10
1127.2269287109375
 20
370.66537475585938
 42
-0
  0
VERTEX
  8
0
 10
1127.2269287109375
 20
620.6654052734375
 42
1
  0
VERTEX
  8
0
 10
1077.2269287109375
 20
620.6654052734375
 42
-0
  0
VERTEX
  8
0
 10
1077.2269287109375
 20
420.66537475585937
 42
-0
  0
VERTEX
  8
0
 10
977.2269287109375
 20
420.66537475585937
 42
1
  0
VERTEX
  8
0
 10
977.2269287109375
 20
370.66537475585938
 42
0
  0
SEQEND
  0
POLYLINE
  8
0
 10
0
 20
0
 39
0
 70
1
 66
1
  0
VERTEX
  8
0
 10
992.2269287109375
 20
395.66537475585937
 42
-1
  0
VERTEX
  8
0
 10
962.2269287109375
 20
395.66537475585937
 42
-1
  0
SEQEND
  0
POLYLINE
  8
0
 10
0
 20
0
 39
0
 70
1
 66
1
  0
VERTEX
  8
0
 10
1610.423095703125
 20
10.203845977783203
 42
-0
  0
VERTEX
  8
0
 10
1610.423095703125
 20
260.203857421875
 42
1
  0
VERTEX
  8
0
 10
1560.423095703125
 20
260.203857421875
 42
-0
  0
VERTEX
  8
0
 10
1560.423095703125
 20
60.203845977783203
 42
-0
  0
VERTEX
  8
0
 10
1460.423095703125
 20
60.203845977783203
 42
1
  0
VERTEX
  8
0
 10
1460.423095703125
 20
10.203845977783203
 42
0
  0
SEQEND
  0
POLYLINE
  8
0
 10
0
 20
0
 39
0
 70
1
 66
1
  0
VERTEX
  8
0
 10
1475.423095703125
 20
35.203845977783203
 42
-1
  0
VERTEX
  8
0
 10
1445.423095703125
 20
35.203845977783203
 42
-1
  0
SEQEND
  0
POLYLINE
  8
0
 10
0
 20
0
 39
0
 70
1
 66
1
  0
VERTEX
  8
0
 10
328.49520874023437
 20
331.88290405273437
 42
1
  0
VERTEX
  8
0
 10
128.49710083007812
 20
332.75555419921875
 42
1
  0
SEQEND
  0
POLYLINE
  8
0
 10
0
 20
0
 39
0
 70
1
 66
1
  0
VERTEX
  8
0
 10
294.08871459960937
 20
360.958984375
 42
-0
  0
VERTEX
  8
0
 10
293.80075073242187
 20
294.95962524414062
 42
-0
  0
VERTEX
  8
0
 10
162.86802673339844
 20
295.53091430664062
 42
-0
  0
VERTEX
  8
0
 10
163.156005859375
 20
361.53030395507812
 42
-1
  0
VERTEX
  8
0
 10
193.15571594238281
 20
361.39938354492187
 42
-0
  0
VERTEX
  8
0
 10
192.98118591308594
 20
321.3997802734375
 42
0
  0
VERTEX
  8
0
 10
263.91445922851562
 20
321.09027099609375
 42
0
  0
VERTEX
  8
0
 10
264.08901977539062
 20
361.08987426757812
 42
-1
  0
SEQEND
  0
POLYLINE
  8
0
 10
0
 20
0
 39
0
 70
1
 66
1
  0
VERTEX
  8
0
 10
947.75286865234375
 20
561.23291015625
 42
1
  0
VERTEX
  8
0
 10
747.75482177734375
 20
562.10552978515625
 42
1
  0
SEQEND
  0
POLYLINE
  8
0
 10
0
 20
0
 39
0
 70
1
 66
1
  0
VERTEX
  8
0
 10
913.346435546875
 20
590.3089599609375
 42
-0
  0
VERTEX
  8
0
 10
913.05841064453125
 20
524.30963134765625
 42
-0
  0
VERTEX
  8
0
 10
782.125732421875
 20
524.88092041015625
 42
-0
  0
VERTEX
  8
0
 10
782.4136962890625
 20
590.88031005859375
 42
-1
  0
VERTEX
  8
0
 10
812.41339111328125
 20
590.7493896484375
 42
-0
  0
VERTEX
  8
0
 10
812.2388916015625
 20
550.749755859375
 42
0
  0
VERTEX
  8
0
 10
883.17218017578125
 20
550.44024658203125
 42
0
  0
VERTEX
  8
0
 10
883.3466796875
 20
590.43988037109375
 42
-1
  0
SEQEND
  0
POLYLINE
  8
0
 10
0
 20
0
 39
0
 70
1
 66
1
  0
VERTEX
  8
0
 10
1342.1029052734375
 20
166.62905883789063
 42
1
  0
VERTEX
  8
0
 10
1142.1048583984375
 20
167.501708984375
 42
1
  0
SEQEND
  0
POLYLINE
  8
0
 10
0
 20
0
 39
0
 70
1
 66
1
  0
VERTEX
  8
0
 10
1307.6964111328125
 20
195.70513916015625
 42
-0
  0
VERTEX
  8
0
 10
1307.408447265625
 20
129.70576477050781
 42
-0
  0
VERTEX
  8
0
 10
1176.4757080078125
 20
130.27706909179687
 42
-0
  0
VERTEX
  8
0
 10
1176.763671875
 20
196.27644348144531
 42
-1
  0
VERTEX
  8
0
 10
1206.763427734375
 20
196.14553833007812
 42
-0
  0
VERTEX
  8
0
 10
1206.5888671875
 20
156.14591979980469
 42
0
  0
VERTEX
  8
0
 10
1277.522216796875
 20
155.83642578125
 42
0
  0
VERTEX
  8
0
 10
1277.6966552734375
 20
195.83604431152344
 42
-1
  0
SEQEND
  0
POLYLINE
  8
0
 10
0
 20
0
 39
0
 70
1
 66
1
  0
VERTEX
  8
0
 10
1513.4490966796875
 20
730.9290771484375
 42
1
  0
VERTEX
  8
0
 10
1313.450927734375
 20
731.80169677734375
 42
1
  0
SEQEND
  0
POLYLINE
  8
0
 10
0
 20
0
 39
0
 70
1
 66
1
  0
VERTEX
  8
0
 10
1479.0426025390625
 20
760.005126953125
 42
-0
  0
VERTEX
  8
0
 10
1478.754638671875
 20
694.00579833984375
 42
-0
  0
VERTEX
  8
0
 10
1347.8218994140625
 20
694.57708740234375
 42
-0
  0
VERTEX
  8
0
 10
1348.10986328125
 20
760.576416015625
 42
-1
  0
VERTEX
  8
0
 10
1378.109619140625
 20
760.445556640625
 42
-0
  0
VERTEX
  8
0
 10
1377.93505859375
 20
720.4459228515625
 42
0
  0
VERTEX
  8
0
 10
1448.8682861328125
 20
720.13641357421875
 42
0
  0
VERTEX
  8
0
 10
1449.0428466796875
 20
760.13604736328125
 42
-1
  0
SEQEND
  0
POLYLINE
  8
0
 10
0
 20
0
 39
0
 70
1
 66
1
  0
VERTEX
  8
0
 10
1559.3951416015625
 20
408.79827880859375
 42
1
  0
VERTEX
  8
0
 10
1359.3970947265625
 20
409.67095947265625
 42
1
  0
SEQEND
  0
POLYLINE
  8
0
 10
0
 20
0
 39
0
 70
1
 66
1
  0
VERTEX
  8
0
 10
1524.98876953125
 20
437.87435913085937
 42
-0
  0
VERTEX
  8
0
 10
1524.70068359375
 20
371.875
 42
-0
  0
VERTEX
  8
0
 10
1393.76806640625
 20
372.44631958007813
 42
-0
  0
VERTEX
  8
0
 10
1394.0560302734375
 20
438.4456787109375
 42
-1
  0
VERTEX
  8
0
 10
1424.0556640625
 20
438.31478881835937
 42
-0
  0
VERTEX
  8
0
 10
1423.8812255859375
 20
398.31515502929687
 42
0
  0
VERTEX
  8
0
 10
1494.814453125
 20
398.00564575195312
 42
0
  0
VERTEX
  8
0
 10
1494.989013671875
 20
438.00527954101562
 42
-1
  0
SEQEND
  0
POLYLINE
  8
0
 10
0
 20
0
 39
0
 70
1
 66
1
  0
VERTEX
  8
0
 10
355.6884765625
 20
669.82305908203125
 42
-0
  0
VERTEX
  8
0
 10
465.6884765625
 20
669.82305908203125
 42
-0
  0
VERTEX
  8
0
 10
355.6884765625
 20
804.82305908203125
 42
0
  0
SEQEND
  0
POLYLINE
  8
0
 10
0
 20
0
 39
0
 70
1
 66
1
  0
VERTEX
  8
0
 10
390.29037475585937
 20
688.28350830078125
 42
-1
  0
VERTEX
  8
0
 10
390.29037475585937
 20
728.28350830078125
 42
-1
  0
SEQEND
  0
POLYLINE
  8
0
 10
0
 20
0
 39
0
 70
1
 66
1
  0
VERTEX
  8
0
 10
478.78195190429687
 20
804.82305908203125
 42
-0
  0
VERTEX
  8
0
 10
368.78195190429687
 20
804.82305908203125
 42
-0
  0
VERTEX
  8
0
 10
478.78195190429687
 20
669.82305908203125
 42
0
  0
SEQEND
  0
POLYLINE
  8
0
 10
0
 20
0
 39
0
 70
1
 66
1
  0
VERTEX
  8
0
 10
444.1800537109375
 20
786.36260986328125
 42
-1
  0
VERTEX
  8
0
 10
444.1800537109375
 20
746.36260986328125
 42
-1
  0
SEQEND
  0
POLYLINE
  8
0
 10
0
 20
0
 39
0
 70
1
 66
1
  0
VERTEX
  8
0
 10
1414.3538818359375
 20
70.365386962890625
 42
-0
  0
VERTEX
  8
0
 10
1524.3538818359375
 20
70.365386962890625
 42
-0
  0
VERTEX
  8
0
 10
1414.3538818359375
 20
205.36538696289062
 42
0
  0
SEQEND
  0
POLYLINE
  8
0
 10
0
 20
0
 39
0
 70
1
 66
1
  0
VERTEX
  8
0
 10
1448.955810546875
 20
88.825820922851562
 42
-1
  0
VERTEX
  8
0
 10
1448.955810546875
 20
128.82582092285156
 42
-1
  0
SEQEND
  0
POLYLINE
  8
0
 10
0
 20
0
 39
0
 70
1
 66
1
  0
VERTEX
  8
0
 10
1537.4473876953125
 20
205.36538696289062
 42
-0
  0
VERTEX
  8
0
 10
1427.4473876953125
 20
205.36538696289062
 42
-0
  0
VERTEX
  8
0
 10
1537.4473876953125
 20
70.365386962890625
 42
0
  0
SEQEND
  0
POLYLINE
  8
0
 10
0
 20
0
 39
0
 70
1
 66
1
  0
VERTEX
  8
0
 10
1502.845458984375
 20
186.90493774414062
 42
-1
  0
VERTEX
  8
0
 10
1502.845458984375
 20
146.90493774414062
 42
-1
  0
SEQEND
  0
POLYLINE
  8
0
 10
0
 20
0
 39
0
 70
1
 66
1
  0
VERTEX
  8
0
 10
10.203845977783203
 20
10.203845977783203
 42
-0
  0
VERTEX
  8
0
 10
120.20384979248047
 20
10.203845977783203
 42
-0
  0
VERTEX
  8
0
 10
10.203845977783203
 20
145.20384216308594
 42
0
  0
SEQEND
  0
POLYLINE
  8
0
 10
0
 20
0
 39
0
 70
1
 66
1
  0
VERTEX
  8
0
 10
44.805759429931641
 20
28.664285659790039
 42
-1
  0
VERTEX
  8
0
 10
44.805759429931641
 20
68.664291381835938
 42
-1
  0
SEQEND
  0
POLYLINE
  8
0
 10
0
 20
0
 39
0
 70
1
 66
1
  0
VERTEX
  8
0
 10
10.203845977783203
 20
612.91925048828125
 42
-0
  0
VERTEX
  8
0
 10
10.203845977783203
 20
502.91921997070312
 42
-0
  0
VERTEX
  8
0
 10
145.20384216308594
 20
612.91925048828125
 42
0
  0
SEQEND
  0
POLYLINE
  8
0
 10
0
 20
0
 39
0
 70
1
 66
1
  0
VERTEX
  8
0
 10
28.664285659790039
 20
578.31732177734375
 42
-1
  0
VERTEX
  8
0
 10
68.664291381835938
 20
578.31732177734375
 42
-1
  0
SEQEND
  0
POLYLINE
  8
0
 10
0
 20
0
 39
0
 70
1
 66
1
  0
VERTEX
  8
0
 10
458.49615478515625
 20
426.38461303710937
 42
-0
  0
VERTEX
  8
0
 10
568.49615478515625
 20
426.38461303710937
 42
-0
  0
VERTEX
  8
0
 10
458.49615478515625
 20
561.3846435546875
 42
0
  0
SEQEND
  0
POLYLINE
  8
0
 10
0
 20
0
 39
0
 70
1
 66
1
  0
VERTEX
  8
0
 10
493.09805297851562
 20
444.84506225585938
 42
-1
  0
VERTEX
  8
0
 10
493.09805297851562
 20
484.84506225585938
 42
-1
  0
SEQEND
  0
POLYLINE
  8
0
 10
0
 20
0
 39
0
 70
1
 66
1
  0
VERTEX
  8
0
 10
598.95770263671875
 20
677.392333984375
 42
-0
  0
VERTEX
  8
0
 10
488.95770263671875
 20
677.392333984375
 42
-0
  0
VERTEX
  8
0
 10
598.95770263671875
 20
542.392333984375
 42
0
  0
SEQEND
  0
POLYLINE
  8
0
 10
0
 20
0
 39
0
 70
1
 66
1
  0
VERTEX
  8
0
 10
564.35577392578125
 20
658.931884765625
 42
-1
  0
VERTEX
  8
0
 10
564.35577392578125
 20
618.931884765625
 42
-1
  0
SEQEND
  0
POLYLINE
  8
0
 10
0
 20
0
 39
0
 70
1
 66
1
  0
VERTEX
  8
0
 10
270.36538696289062
 20
730.3653564453125
 42
-0
  0
VERTEX
  8
0
 10
270.36538696289062
 20
780.3653564453125
 42
-0
  0
VERTEX
  8
0
 10
70.365386962890625
 20
780.3653564453125
 42
-0
  0
VERTEX
  8
0
 10
70.365386962890625
 20
730.3653564453125
 42
0
  0
SEQEND
  0
POLYLINE
  8
0
 10
0
 20
0
 39
0
 70
1
 66
1
  0
VERTEX
  8
0
 10
233.69206237792969
 20
755.3653564453125
 42
-1
  0
VERTEX
  8
0
 10
203.69206237792969
 20
755.3653564453125
 42
-1
  0
SEQEND
  0
POLYLINE
  8
0
 10
0
 20
0
 39
0
 70
1
 66
1
  0
VERTEX
  8
0
 10
885.43463134765625
 20
70.365386962890625
 42
-0
  0
VERTEX
  8
0
 10
885.43463134765625
 20
120.36538696289063
 42
-0
  0
VERTEX
  8
0
 10
685.43463134765625
 20
120.36538696289063
 42
-0
  0
VERTEX
  8
0
 10
685.43463134765625
 20
70.365386962890625
 42
0
  0
SEQEND
  0
POLYLINE
  8
0
 10
0
 20
0
 39
0
 70
1
 66
1
  0
VERTEX
  8
0
 10
848.76129150390625
 20
95.365386962890625
 42
-1
  0
VERTEX
  8
0
 10
818.76129150390625
 20
95.365386962890625
 42
-1
  0
SEQEND
  0
POLYLINE
  8
0
 10
0
 20
0
 39
0
 70
1
 66
1
  0
VERTEX
  8
0
 10
970.7576904296875
 20
10.203845977783203
 42
-0
  0
VERTEX
  8
0
 10
1020.7576904296875
 20
10.203845977783203
 42
-0
  0
VERTEX
  8
0
 10
1020.7576904296875
 20
210.20384216308594
 42
-0
  0
VERTEX
  8
0
 10
970.7576904296875
 20
210.20384216308594
 42
0
  0
SEQEND
  0
POLYLINE
  8
0
 10
0
 20
0
 39
0
 70
1
 66
1
  0
VERTEX
  8
0
 10
995.7576904296875
 20
46.877170562744141
 42
-1
  0
VERTEX
  8
0
 10
995.7576904296875
 20
76.877174377441406
 42
-1
  0
SEQEND
  0
POLYLINE
  8
0
 10
0
 20
0
 39
0
 70
1
 66
1
  0
VERTEX
  8
0
 10
1137.40771484375
 20
449.9923095703125
 42
-0
  0
VERTEX
  8
0
 10
1187.40771484375
 20
449.9923095703125
 42
-0
  0
VERTEX
  8
0
 10
1187.40771484375
 20
649.9923095703125
 42
-0
  0
VERTEX
  8
0
 10
1137.40771484375
 20
649.9923095703125
 42
0
  0
SEQEND
  0
POLYLINE
  8
0
 10
0
 20
0
 39
0
 70
1
 66
1
  0
VERTEX
  8
0
 10
1162.40771484375
 20
486.66561889648437
 42
-1
  0
VERTEX
  8
0
 10
1162.40771484375
 20
516.6656494140625
 42
-1
  0
SEQEND
  0
POLYLINE
  8
0
 10
0
 20
0
 39
0
 70
1
 66
1
  0
VERTEX
  8
0
 10
1585.699951171875
 20
525.3846435546875
 42
-0
  0
VERTEX
  8
0
 10
1635.699951171875
 20
525.3846435546875
 42
-0
  0
VERTEX
  8
0
 10
1635.699951171875
 20
725.3846435546875
 42
-0
  0
VERTEX
  8
0
 10
1585.699951171875
 20
725.3846435546875
 42
0
  0
SEQEND
  0
POLYLINE
  8
0
 10
0
 20
0
 39
0
 70
1
 66
1
  0
VERTEX
  8
0
 10
1610.699951171875
 20
562.05792236328125
 42
-1
  0
VERTEX
  8
0
 10
1610.699951171875
 20
592.05792236328125
 42
-1
  0
SEQEND
  0
POLYLINE
  8
0
 10
0
 20
0
 39
0
 70
1
 66
1
  0
VERTEX
  8
0
 10
280.31396484375
 20
89.906715393066406
 42
-0
  0
VERTEX
  8
0
 10
313.95504760742187
 20
117.62451171875
 42
0.22404871881008148
  0
VERTEX
  8
0
 10
317.59616088867187
 20
125.34230804443359
 42
0
  0
VERTEX
  8
0
 10
317.59616088867187
 20
165.34230041503906
 42
0
  0
VERTEX
  8
0
 10
217.59616088867187
 20
165.34230041503906
 42
0
  0
VERTEX
  8
0
 10
217.59616088867187
 20
125.34230804443359
 42
0.22404870390892029
  0
VERTEX
  8
0
 10
221.23725891113281
 20
117.62451171875
 42
-0
  0
VERTEX
  8
0
 10
254.87835693359375
 20
89.906715393066406
 42
0.35889896750450134
  0
SEQEND
  0
POLYLINE
  8
0
 10
0
 20
0
 39
0
 70
1
 66
1
  0
VERTEX
  8
0
 10
252.59616088867188
 20
105.34230804443359
 42
-1
  0
VERTEX
  8
0
 10
282.59616088867187
 20
105.34230804443359
 42
-1
  0
SEQEND
  0
POLYLINE
  8
0
 10
0
 20
0
 39
0
 70
1
 66
1
  0
VERTEX
  8
0
 10
710.608642578125
 20
821.38702392578125
 42
-0
  0
VERTEX
  8
0
 10
682.890869140625
 20
855.02813720703125
 42
0.22404871881008148
  0
VERTEX
  8
0
 10
675.173095703125
 20
858.66925048828125
 42
0
  0
VERTEX
  8
0
 10
635.173095703125
 20
858.66925048828125
 42
0
  0
VERTEX
  8
0
 10
635.173095703125
 20
758.66925048828125
 42
0
  0
VERTEX
  8
0
 10
675.173095703125
 20
758.66925048828125
 42
0.22404870390892029
  0
VERTEX
  8
0
 10
682.890869140625
 20
762.310302734375
 42
-0
  0
VERTEX
  8
0
 10
710.608642578125
 20
795.951416015625
 42
0.35889896750450134
  0
SEQEND
  0
POLYLINE
  8
0
 10
0
 20
0
 39
0
 70
1
 66
1
  0
VERTEX
  8
0
 10
695.173095703125
 20
793.66925048828125
 42
-1
  0
VERTEX
  8
0
 10
695.173095703125
 20
823.66925048828125
 42
-1
  0
SEQEND
  0
POLYLINE
  8
0
 10
0
 20
0
 39
0
 70
1
 66
1
  0
VERTEX
  8
0
 10
663.5989990234375
 20
232.53990173339844
 42
-0
  0
VERTEX
  8
0
 10
691.31683349609375
 20
198.89878845214844
 42
0.22404871881008148
  0
VERTEX
  8
0
 10
699.03460693359375
 20
195.2576904296875
 42
0
  0
VERTEX
  8
0
 10
739.03460693359375
 20
195.2576904296875
 42
0
  0
VERTEX
  8
0
 10
739.03460693359375
 20
295.2576904296875
 42
0
  0
VERTEX
  8
0
 10
699.03460693359375
 20
295.2576904296875
 42
0.22404870390892029
  0
VERTEX
  8
0
 10
691.31683349609375
 20
291.6165771484375
 42
-0
  0
VERTEX
  8
0
 10
663.5989990234375
 20
257.97549438476562
 42
0.35889896750450134
  0
SEQEND
  0
POLYLINE
  8
0
 10
0
 20
0
 39
0
 70
1
 66
1
  0
VERTEX
  8
0
 10
679.03460693359375
 20
260.2576904296875
 42
-1
  0
VERTEX
  8
0
 10
679.03460693359375
 20
230.2576904296875
 42
-1
  0
SEQEND
  0
POLYLINE
  8
0
 10
0
 20
0
 39
0
 70
1
 66
1
  0
VERTEX
  8
0
 10
899.5716552734375
 20
319.2567138671875
 42
-0
  0
VERTEX
  8
0
 10
933.2127685546875
 20
346.97451782226562
 42
0.22404871881008148
  0
VERTEX
  8
0
 10
936.85382080078125
 20
354.69229125976562
 42
0
  0
VERTEX
  8
0
 10
936.85382080078125
 20
394.69229125976562
 42
0
  0
VERTEX
  8
0
 10
836.85382080078125
 20
394.69229125976562
 42
0
  0
VERTEX
  8
0
 10
836.85382080078125
 20
354.69229125976562
 42
0.22404870390892029
  0
VERTEX
  8
0
 10
840.49493408203125
 20
346.97451782226562
 42
-0
  0
VERTEX
  8
0
 10
874.13604736328125
 20
319.2567138671875
 42
0.35889896750450134
  0
SEQEND
  0
POLYLINE
  8
0
 10
0
 20
0
 39
0
 70
1
 66
1
  0
VERTEX
  8
0
 10
871.85382080078125
 20
334.69229125976562
 42
-1
  0
VERTEX
  8
0
 10
901.85382080078125
 20
334.69229125976562
 42
-1
  0
SEQEND
  0
POLYLINE
  8
0
 10
0
 20
0
 39
0
 70
1
 66
1
  0
VERTEX
  8
0
 10
1106.3548583984375
 20
72.921646118164063
 42
-0
  0
VERTEX
  8
0
 10
1078.6370849609375
 20
106.56275177001953
 42
0.22404871881008148
  0
VERTEX
  8
0
 10
1070.919189453125
 20
110.20384979248047
 42
0
  0
VERTEX
  8
0
 10
1030.919189453125
 20
110.20384979248047
 42
0
  0
VERTEX
  8
0
 10
1030.919189453125
 20
10.203845977783203
 42
0
  0
VERTEX
  8
0
 10
1070.919189453125
 20
10.203845977783203
 42
0.22404870390892029
  0
VERTEX
  8
0
 10
1078.6370849609375
 20
13.84494686126709
 42
-0
  0
VERTEX
  8
0
 10
1106.3548583984375
 20
47.486045837402344
 42
0.35889896750450134
  0
SEQEND
  0
POLYLINE
  8
0
 10
0
 20
0
 39
0
 70
1
 66
1
  0
VERTEX
  8
0
 10
1090.919189453125
 20
45.203845977783203
 42
-1
  0
VERTEX
  8
0
 10
1090.919189453125
 20
75.203849792480469
 42
-1
  0
SEQEND
  0
POLYLINE
  8
0
 10
0
 20
0
 39
0
 70
1
 66
1
  0
VERTEX
  8
0
 10
1153.189453125
 20
718.452392578125
 42
-0
  0
VERTEX
  8
0
 10
1125.4716796875
 20
752.093505859375
 42
0.22404871881008148
  0
VERTEX
  8
0
 10
1117.75390625
 20
755.734619140625
 42
0
  0
VERTEX
  8
0
 10
1077.75390625
 20
755.734619140625
 42
0
  0
VERTEX
  8
0
 10
1077.75390625
 20
655.734619140625
 42
0
  0
VERTEX
  8
0
 10
1117.75390625
 20
655.734619140625
 42
0.22404870390892029
  0
VERTEX
  8
0
 10
1125.4716796875
 20
659.375732421875
 42
-0
  0
VERTEX
  8
0
 10
1153.189453125
 20
693.016845703125
 42
0.35889896750450134
  0
SEQEND
  0
POLYLINE
  8
0
 10
0
 20
0
 39
0
 70
1
 66
1
  0
VERTEX
  8
0
 10
1137.75390625
 20
690.734619140625
 42
-1
  0
VERTEX
  8
0
 10
1137.75390625
 20
720.734619140625
 42
-1
  0
SEQEND
  0
POLYLINE
  8
0
 10
0
 20
0
 39
0
 70
1
 66
1
  0
VERTEX
  8
0
 10
1204.18701171875
 20
814.2567138671875
 42
-0
  0
VERTEX
  8
0
 10
1237.828125
 20
841.9744873046875
 42
0.22404871881008148
  0
VERTEX
  8
0
 10
1241.46923828125
 20
849.69232177734375
 42
0
  0
VERTEX
  8
0
 10
1241.46923828125
 20
889.69232177734375
 42
0
  0
VERTEX
  8
0
 10
1141.46923828125
 20
889.69232177734375
 42
0
  0
VERTEX
  8
0
 10
1141.46923828125
 20
849.69232177734375
 42
0.22404870390892029
  0
VERTEX
  8
0
 10
1145.1103515625
 20
841.9744873046875
 42
-0
  0
VERTEX
  8
0
 10
1178.75146484375
 20
814.2567138671875
 42
0.35889896750450134
  0
SEQEND
  0
POLYLINE
  8
0
 10
0
 20
0
 39
0
 70
1
 66
1
  0
VERTEX
  8
0
 10
1176.46923828125
 20
829.69232177734375
 42
-1
  0
VERTEX
  8
0
 10
1206.46923828125
 20
829.69232177734375
 42
-1
  0
SEQEND
  0
POLYLINE
  8
0
 10
0
 20
0
 39
0
 70
1
 66
1
  0
VERTEX
  8
0
 10
1556.5028076171875
 20
826.920654296875
 42
-0
  0
VERTEX
  8
0
 10
1584.220703125
 20
793.279541015625
 42
0.22404871881008148
  0
VERTEX
  8
0
 10
1591.9384765625
 20
789.63848876953125
 42
0
  0
VERTEX
  8
0
 10
1631.9384765625
 20
789.63848876953125
 42
0
  0
VERTEX
  8
0
 10
1631.9384765625
 20
889.63848876953125
 42
0
  0
VERTEX
  8
0
 10
1591.9384765625
 20
889.63848876953125
 42
0.22404870390892029
  0
VERTEX
  8
0
 10
1584.220703125
 20
885.99737548828125
 42
-0
  0
VERTEX
  8
0
 10
1556.5028076171875
 20
852.35626220703125
 42
0.35889896750450134
  0
SEQEND
  0
POLYLINE
  8
0
 10
0
 20
0
 39
0
 70
1
 66
1
  0
VERTEX
  8
0
 10
1571.9384765625
 20
854.63848876953125
 42
-1
  0
VERTEX
  8
0
 10
1571.9384765625
 20
824.63848876953125
 42
-1
  0
SEQEND
  0
POLYLINE
  8
0
 10
0
 20
0
 39
0
 70
1
 66
1
  0
VERTEX
  8
0
 10
488.95770263671875
 20
687.46539306640625
 42
-0
  0
VERTEX
  8
0
 10
538.95770263671875
 20
687.46539306640625
 42
-0
  0
VERTEX
  8
0
 10
538.95770263671875
 20
787.46539306640625
 42
-0
  0
VERTEX
  8
0
 10
488.95770263671875
 20
787.46539306640625
 42
0
  0
SEQEND
  0
POLYLINE
  8
0
 10
0
 20
0
 39
0
 70
1
 66
1
  0
VERTEX
  8
0
 10
513.95770263671875
 20
707.8714599609375
 42
-0
  0
VERTEX
  8
0
 10
500.95770263671875
 20
707.8714599609375
 42
-0
  0
VERTEX
  8
0
 10
500.95770263671875
 20
767.059326171875
 42
-0
  0
VERTEX
  8
0
 10
513.95770263671875
 20
767.059326171875
 42
-0
  0
VERTEX
  8
0
 10
526.95770263671875
 20
767.059326171875
 42
0
  0
VERTEX
  8
0
 10
526.95770263671875
 20
707.8714599609375
 42
0
  0
SEQEND
  0
POLYLINE
  8
0
 10
0
 20
0
 39
0
 70
1
 66
1
  0
VERTEX
  8
0
 10
518.1500244140625
 20
220.64230346679687
 42
-0
  0
VERTEX
  8
0
 10
568.1500244140625
 20
220.64230346679687
 42
-0
  0
VERTEX
  8
0
 10
568.1500244140625
 20
320.64230346679687
 42
-0
  0
VERTEX
  8
0
 10
518.1500244140625
 20
320.64230346679687
 42
0
  0
SEQEND
  0
POLYLINE
  8
0
 10
0
 20
0
 39
0
 70
1
 66
1
  0
VERTEX
  8
0
 10
543.1500244140625
 20
241.04837036132812
 42
-0
  0
VERTEX
  8
0
 10
530.1500244140625
 20
241.04837036132812
 42
-0
  0
VERTEX
  8
0
 10
530.1500244140625
 20
300.23623657226562
 42
-0
  0
VERTEX
  8
0
 10
543.1500244140625
 20
300.23623657226562
 42
-0
  0
VERTEX
  8
0
 10
556.1500244140625
 20
300.23623657226562
 42
0
  0
VERTEX
  8
0
 10
556.1500244140625
 20
241.04837036132812
 42
0
  0
SEQEND
  0
POLYLINE
  8
0
 10
0
 20
0
 39
0
 70
1
 66
1
  0
VERTEX
  8
0
 10
849.27691650390625
 20
195.2576904296875
 42
-0
  0
VERTEX
  8
0
 10
849.27691650390625
 20
245.2576904296875
 42
-0
  0
VERTEX
  8
0
 10
749.27691650390625
 20
245.2576904296875
 42
-0
  0
VERTEX
  8
0
 10
749.27691650390625
 20
195.2576904296875
 42
0
  0
SEQEND
  0
POLYLINE
  8
0
 10
0
 20
0
 39
0
 70
1
 66
1
  0
VERTEX
  8
0
 10
828.870849609375
 20
220.2576904296875
 42
-0
  0
VERTEX
  8
0
 10
828.870849609375
 20
207.2576904296875
 42
-0
  0
VERTEX
  8
0
 10
769.6829833984375
 20
207.2576904296875
 42
-0
  0
VERTEX
  8
0
 10
769.6829833984375
 20
220.2576904296875
 42
-0
  0
VERTEX
  8
0
 10
769.6829833984375
 20
233.2576904296875
 42
0
  0
VERTEX
  8
0
 10
828.870849609375
 20
233.2576904296875
 42
0
  0
SEQEND
  0
ENDSEC
  0
EOF
