  0
SECTION
  2
ENTITIES
  0
POLYLINE
  8
0
 10
0
 20
0
 39
0
 70
1
 66
1
  0
VERTEX
  8
0
 10
0
 20
0
 42
-0
  0
VERTEX
  8
0
 10
1500
 20
0
 42
-0
  0
VERTEX
  8
0
 10
1500
 20
900
 42
-0
  0
VERTEX
  8
0
 10
0
 20
900
 42
-0
  0
SEQEND
  0
POLYLINE
  8
0
 10
0
 20
0
 39
0
 70
1
 66
1
  0
VERTEX
  8
0
 10
1110
 20
830
 42
0
  0
VERTEX
  8
0
 10
1210
 20
830
 42
-0
  0
VERTEX
  8
0
 10
1210
 20
880
 42
-0
  0
VERTEX
  8
0
 10
1110
 20
880
 42
-0
  0
SEQEND
  0
POLYLINE
  8
0
 10
0
 20
0
 39
0
 70
1
 66
1
  0
VERTEX
  8
0
 10
1130.406063079834
 20
855
 42
0
  0
VERTEX
  8
0
 10
1130.406063079834
 20
868
 42
0
  0
VERTEX
  8
0
 10
1189.5939407348633
 20
868
 42
-0
  0
VERTEX
  8
0
 10
1189.5939407348633
 20
855
 42
-0
  0
VERTEX
  8
0
 10
1189.5939407348633
 20
842
 42
-0
  0
VERTEX
  8
0
 10
1130.406063079834
 20
842
 42
-0
  0
SEQEND
  0
POLYLINE
  8
0
 10
0
 20
0
 39
0
 70
1
 66
1
  0
VERTEX
  8
0
 10
1369.0392150878906
 20
233.81883239746094
 42
0
  0
VERTEX
  8
0
 10
1369.0392150878906
 20
33.818832397460937
 42
0
  0
VERTEX
  8
0
 10
1389.0392150878906
 20
10
 42
0
  0
VERTEX
  8
0
 10
1409.0392150878906
 20
33.818832397460937
 42
-0
  0
VERTEX
  8
0
 10
1409.0392150878906
 20
233.81883239746094
 42
-0
  0
VERTEX
  8
0
 10
1389.0392150878906
 20
257.63766098022461
 42
-0
  0
SEQEND
  0
POLYLINE
  8
0
 10
0
 20
0
 39
0
 70
1
 66
1
  0
VERTEX
  8
0
 10
1389.0392150878906
 20
233.81883239746094
 42
0
  0
VERTEX
  8
0
 10
1399.0392150878906
 20
223.51878833770752
 42
0
  0
VERTEX
  8
0
 10
1399.0392150878906
 20
174.5187873840332
 42
0
  0
VERTEX
  8
0
 10
1389.0392150878906
 20
177.40044784545898
 42
0
  0
VERTEX
  8
0
 10
1379.0392150878906
 20
174.5187873840332
 42
-0
  0
VERTEX
  8
0
 10
1379.0392150878906
 20
223.51878833770752
 42
-0
  0
SEQEND
  0
POLYLINE
  8
0
 10
0
 20
0
 39
0
 70
1
 66
1
  0
VERTEX
  8
0
 10
1389.0392150878906
 20
171.41520690917969
 42
-1
  0
VERTEX
  8
0
 10
1389.0392150878906
 20
151.41520690917969
 42
-1
  0
SEQEND
  0
POLYLINE
  8
0
 10
0
 20
0
 39
0
 70
1
 66
1
  0
VERTEX
  8
0
 10
499.03921508789063
 20
550
 42
0
  0
VERTEX
  8
0
 10
499.03921508789068
 20
10
 42
0
  0
VERTEX
  8
0
 10
524.03921508789062
 20
10
 42
-0
  0
VERTEX
  8
0
 10
599.03921508789062
 20
119
 42
-0
  0
VERTEX
  8
0
 10
599.03921508789062
 20
550
 42
-0
  0
SEQEND
  0
POLYLINE
  8
0
 10
0
 20
0
 39
0
 70
1
 66
1
  0
VERTEX
  8
0
 10
574.66964721679687
 20
119
 42
0
  0
VERTEX
  8
0
 10
524.03921508789062
 20
41.805694580078125
 42
0
  0
VERTEX
  8
0
 10
514.03921508789062
 20
41.805694580078125
 42
0
  0
VERTEX
  8
0
 10
514.03921508789062
 20
129
 42
-0
  0
VERTEX
  8
0
 10
574.66964721679687
 20
129
 42
-0
  0
SEQEND
  0
POLYLINE
  8
0
 10
0
 20
0
 39
0
 70
1
 66
1
  0
VERTEX
  8
0
 10
561.53921508789062
 20
363.74818420410156
 42
0
  0
VERTEX
  8
0
 10
561.53921508789062
 20
163.8565673828125
 42
-0.19785122573375702
  0
VERTEX
  8
0
 10
537.16964340209961
 20
163.596923828125
 42
-0
  0
VERTEX
  8
0
 10
537.16964340209961
 20
363.74818420410156
 42
-0.19997029006481171
  0
SEQEND
  0
POLYLINE
  8
0
 10
0
 20
0
 39
0
 70
1
 66
1
  0
VERTEX
  8
0
 10
10
 20
714.39574856298464
 42
0
  0
VERTEX
  8
0
 10
550
 20
714.39574856298464
 42
0
  0
VERTEX
  8
0
 10
550
 20
739.39574856298464
 42
-0
  0
VERTEX
  8
0
 10
441
 20
814.39574856298464
 42
-0
  0
VERTEX
  8
0
 10
10.000000000000005
 20
814.39574856298464
 42
-0
  0
SEQEND
  0
POLYLINE
  8
0
 10
0
 20
0
 39
0
 70
1
 66
1
  0
VERTEX
  8
0
 10
441
 20
790.02618069189089
 42
0
  0
VERTEX
  8
0
 10
518.19430541992187
 20
739.39574856298464
 42
0
  0
VERTEX
  8
0
 10
518.19430541992187
 20
729.39574856298464
 42
0
  0
VERTEX
  8
0
 10
431
 20
729.39574856298464
 42
-0
  0
VERTEX
  8
0
 10
431
 20
790.02618069189089
 42
-0
  0
SEQEND
  0
POLYLINE
  8
0
 10
0
 20
0
 39
0
 70
1
 66
1
  0
VERTEX
  8
0
 10
196.25181579589844
 20
776.89574856298464
 42
0
  0
VERTEX
  8
0
 10
396.1434326171875
 20
776.89574856298464
 42
-0.19785122573375702
  0
VERTEX
  8
0
 10
396.403076171875
 20
752.52617687719362
 42
-0
  0
VERTEX
  8
0
 10
196.25181579589844
 20
752.52617687719362
 42
-0.19997029006481171
  0
SEQEND
  0
POLYLINE
  8
0
 10
0
 20
0
 39
0
 70
1
 66
1
  0
VERTEX
  8
0
 10
560
 20
780
 42
0
  0
VERTEX
  8
0
 10
1100
 20
780
 42
0
  0
VERTEX
  8
0
 10
1100
 20
805
 42
-0
  0
VERTEX
  8
0
 10
991
 20
880
 42
-0
  0
VERTEX
  8
0
 10
560
 20
880
 42
-0
  0
SEQEND
  0
POLYLINE
  8
0
 10
0
 20
0
 39
0
 70
1
 66
1
  0
VERTEX
  8
0
 10
991
 20
855.63043212890625
 42
0
  0
VERTEX
  8
0
 10
1068.1943054199219
 20
805
 42
0
  0
VERTEX
  8
0
 10
1068.1943054199219
 20
795
 42
0
  0
VERTEX
  8
0
 10
981
 20
795
 42
-0
  0
VERTEX
  8
0
 10
981
 20
855.63043212890625
 42
-0
  0
SEQEND
  0
POLYLINE
  8
0
 10
0
 20
0
 39
0
 70
1
 66
1
  0
VERTEX
  8
0
 10
746.25181579589844
 20
842.5
 42
0
  0
VERTEX
  8
0
 10
946.1434326171875
 20
842.5
 42
-0.19785122573375702
  0
VERTEX
  8
0
 10
946.403076171875
 20
818.13042831420898
 42
-0
  0
VERTEX
  8
0
 10
746.25181579589844
 20
818.13042831420898
 42
-0.19997029006481171
  0
SEQEND
  0
POLYLINE
  8
0
 10
0
 20
0
 39
0
 70
1
 66
1
  0
VERTEX
  8
0
 10
559.03921508789062
 20
560
 42
0
  0
VERTEX
  8
0
 10
1099.0392150878906
 20
560
 42
0
  0
VERTEX
  8
0
 10
1099.0392150878906
 20
585
 42
-0
  0
VERTEX
  8
0
 10
990.03921508789062
 20
660
 42
-0
  0
VERTEX
  8
0
 10
559.03921508789062
 20
660
 42
-0
  0
SEQEND
  0
POLYLINE
  8
0
 10
0
 20
0
 39
0
 70
1
 66
1
  0
VERTEX
  8
0
 10
990.03921508789062
 20
635.63043212890625
 42
0
  0
VERTEX
  8
0
 10
1067.2335205078125
 20
585
 42
0
  0
VERTEX
  8
0
 10
1067.2335205078125
 20
575
 42
0
  0
VERTEX
  8
0
 10
980.03921508789062
 20
575
 42
-0
  0
VERTEX
  8
0
 10
980.03921508789062
 20
635.63043212890625
 42
-0
  0
SEQEND
  0
POLYLINE
  8
0
 10
0
 20
0
 39
0
 70
1
 66
1
  0
VERTEX
  8
0
 10
745.29103088378906
 20
622.5
 42
0
  0
VERTEX
  8
0
 10
945.18264770507812
 20
622.5
 42
-0.19785122573375702
  0
VERTEX
  8
0
 10
945.44229125976562
 20
598.13042831420898
 42
-0
  0
VERTEX
  8
0
 10
745.29103088378906
 20
598.13042831420898
 42
-0.19997029006481171
  0
SEQEND
  0
POLYLINE
  8
0
 10
0
 20
0
 39
0
 70
1
 66
1
  0
VERTEX
  8
0
 10
376.77941131591797
 20
677.48936483630189
 42
0
  0
VERTEX
  8
0
 10
376.77941131591803
 20
518.49807379015931
 42
0
  0
VERTEX
  8
0
 10
411.90931320190435
 20
518.49807379015931
 42
0
  0
VERTEX
  8
0
 10
411.90931320190435
 20
478.49807379015931
 42
0
  0
VERTEX
  8
0
 10
376.77941131591803
 20
478.49807379015931
 42
0
  0
VERTEX
  8
0
 10
376.77941131591808
 20
236.05814764269837
 42
0
  0
VERTEX
  8
0
 10
411.90931320190441
 20
236.05814764269837
 42
0
  0
VERTEX
  8
0
 10
411.90931320190441
 20
196.05811712512025
 42
0
  0
VERTEX
  8
0
 10
376.77941131591808
 20
196.05811712512025
 42
0
  0
VERTEX
  8
0
 10
376.77941131591803
 20
36.906383726682748
 42
0.47935917973518372
  0
VERTEX
  8
0
 10
489.03921508789074
 20
36.906383726682748
 42
-0
  0
VERTEX
  8
0
 10
489.03921508789074
 20
196.05811712512025
 42
-0
  0
VERTEX
  8
0
 10
453.90930938720714
 20
196.05811712512025
 42
-0
  0
VERTEX
  8
0
 10
453.90930938720714
 20
236.05814764269837
 42
-0
  0
VERTEX
  8
0
 10
489.03921508789074
 20
236.05814764269837
 42
-0
  0
VERTEX
  8
0
 10
489.03921508789068
 20
478.49807379015931
 42
-0
  0
VERTEX
  8
0
 10
453.90930938720709
 20
478.49807379015931
 42
-0
  0
VERTEX
  8
0
 10
453.90930938720709
 20
518.49807379015931
 42
-0
  0
VERTEX
  8
0
 10
489.03921508789068
 20
518.49807379015931
 42
-0
  0
VERTEX
  8
0
 10
489.03921508789068
 20
677.48936483630189
 42
0.47935917973518372
  0
SEQEND
  0
POLYLINE
  8
0
 10
0
 20
0
 39
0
 70
1
 66
1
  0
VERTEX
  8
0
 10
432.90931320190435
 20
393.14808294543275
 42
-1
  0
VERTEX
  8
0
 10
432.90931320190435
 20
329.14808294543275
 42
-1
  0
SEQEND
  0
POLYLINE
  8
0
 10
0
 20
0
 39
0
 70
1
 66
1
  0
VERTEX
  8
0
 10
939.03921508789062
 20
550
 42
0
  0
VERTEX
  8
0
 10
939.03921508789062
 20
10
 42
0
  0
VERTEX
  8
0
 10
964.03921508789062
 20
10
 42
-0
  0
VERTEX
  8
0
 10
1039.0392150878906
 20
119
 42
-0
  0
VERTEX
  8
0
 10
1039.0392150878906
 20
550
 42
-0
  0
SEQEND
  0
POLYLINE
  8
0
 10
0
 20
0
 39
0
 70
1
 66
1
  0
VERTEX
  8
0
 10
1014.6696472167969
 20
119
 42
0
  0
VERTEX
  8
0
 10
964.03921508789062
 20
41.805694580078125
 42
0
  0
VERTEX
  8
0
 10
954.03921508789062
 20
41.805694580078125
 42
0
  0
VERTEX
  8
0
 10
954.03921508789062
 20
129
 42
-0
  0
VERTEX
  8
0
 10
1014.6696472167969
 20
129
 42
-0
  0
SEQEND
  0
POLYLINE
  8
0
 10
0
 20
0
 39
0
 70
1
 66
1
  0
VERTEX
  8
0
 10
1001.5392150878906
 20
363.74818420410156
 42
0
  0
VERTEX
  8
0
 10
1001.5392150878906
 20
163.8565673828125
 42
-0.19785122573375702
  0
VERTEX
  8
0
 10
977.16964340209961
 20
163.596923828125
 42
-0
  0
VERTEX
  8
0
 10
977.16964340209961
 20
363.74818420410156
 42
-0.19997029006481171
  0
SEQEND
  0
POLYLINE
  8
0
 10
0
 20
0
 39
0
 70
1
 66
1
  0
VERTEX
  8
0
 10
719.03921508789062
 20
550
 42
0
  0
VERTEX
  8
0
 10
719.03921508789062
 20
10
 42
0
  0
VERTEX
  8
0
 10
744.03921508789062
 20
10
 42
-0
  0
VERTEX
  8
0
 10
819.03921508789062
 20
119
 42
-0
  0
VERTEX
  8
0
 10
819.03921508789062
 20
550
 42
-0
  0
SEQEND
  0
POLYLINE
  8
0
 10
0
 20
0
 39
0
 70
1
 66
1
  0
VERTEX
  8
0
 10
794.66964721679687
 20
119
 42
0
  0
VERTEX
  8
0
 10
744.03921508789062
 20
41.805694580078125
 42
0
  0
VERTEX
  8
0
 10
734.03921508789062
 20
41.805694580078125
 42
0
  0
VERTEX
  8
0
 10
734.03921508789062
 20
129
 42
-0
  0
VERTEX
  8
0
 10
794.66964721679687
 20
129
 42
-0
  0
SEQEND
  0
POLYLINE
  8
0
 10
0
 20
0
 39
0
 70
1
 66
1
  0
VERTEX
  8
0
 10
781.53921508789062
 20
363.74818420410156
 42
0
  0
VERTEX
  8
0
 10
781.53921508789062
 20
163.8565673828125
 42
-0.19785122573375702
  0
VERTEX
  8
0
 10
757.16964340209961
 20
163.596923828125
 42
-0
  0
VERTEX
  8
0
 10
757.16964340209961
 20
363.74818420410156
 42
-0.19997029006481171
  0
SEQEND
  0
POLYLINE
  8
0
 10
0
 20
0
 39
0
 70
1
 66
1
  0
VERTEX
  8
0
 10
609.03921508789062
 20
550
 42
0
  0
VERTEX
  8
0
 10
609.03921508789062
 20
10
 42
0
  0
VERTEX
  8
0
 10
634.03921508789062
 20
10
 42
-0
  0
VERTEX
  8
0
 10
709.03921508789062
 20
119
 42
-0
  0
VERTEX
  8
0
 10
709.03921508789062
 20
550
 42
-0
  0
SEQEND
  0
POLYLINE
  8
0
 10
0
 20
0
 39
0
 70
1
 66
1
  0
VERTEX
  8
0
 10
684.66964721679687
 20
119
 42
0
  0
VERTEX
  8
0
 10
634.03921508789062
 20
41.805694580078125
 42
0
  0
VERTEX
  8
0
 10
624.03921508789062
 20
41.805694580078125
 42
0
  0
VERTEX
  8
0
 10
624.03921508789062
 20
129
 42
-0
  0
VERTEX
  8
0
 10
684.66964721679687
 20
129
 42
-0
  0
SEQEND
  0
POLYLINE
  8
0
 10
0
 20
0
 39
0
 70
1
 66
1
  0
VERTEX
  8
0
 10
671.53921508789062
 20
363.74818420410156
 42
0
  0
VERTEX
  8
0
 10
671.53921508789062
 20
163.8565673828125
 42
-0.19785122573375702
  0
VERTEX
  8
0
 10
647.16964340209961
 20
163.596923828125
 42
-0
  0
VERTEX
  8
0
 10
647.16964340209961
 20
363.74818420410156
 42
-0.19997029006481171
  0
SEQEND
  0
POLYLINE
  8
0
 10
0
 20
0
 39
0
 70
1
 66
1
  0
VERTEX
  8
0
 10
829.03921508789062
 20
550
 42
0
  0
VERTEX
  8
0
 10
829.03921508789062
 20
10
 42
0
  0
VERTEX
  8
0
 10
854.03921508789062
 20
10
 42
-0
  0
VERTEX
  8
0
 10
929.03921508789062
 20
119
 42
-0
  0
VERTEX
  8
0
 10
929.03921508789062
 20
550
 42
-0
  0
SEQEND
  0
POLYLINE
  8
0
 10
0
 20
0
 39
0
 70
1
 66
1
  0
VERTEX
  8
0
 10
904.66964721679687
 20
119
 42
0
  0
VERTEX
  8
0
 10
854.03921508789062
 20
41.805694580078125
 42
0
  0
VERTEX
  8
0
 10
844.03921508789062
 20
41.805694580078125
 42
0
  0
VERTEX
  8
0
 10
844.03921508789062
 20
129
 42
-0
  0
VERTEX
  8
0
 10
904.66964721679687
 20
129
 42
-0
  0
SEQEND
  0
POLYLINE
  8
0
 10
0
 20
0
 39
0
 70
1
 66
1
  0
VERTEX
  8
0
 10
891.53921508789062
 20
363.74818420410156
 42
0
  0
VERTEX
  8
0
 10
891.53921508789062
 20
163.8565673828125
 42
-0.19785122573375702
  0
VERTEX
  8
0
 10
867.16964340209961
 20
163.596923828125
 42
-0
  0
VERTEX
  8
0
 10
867.16964340209961
 20
363.74818420410156
 42
-0.19997029006481171
  0
SEQEND
  0
POLYLINE
  8
0
 10
0
 20
0
 39
0
 70
1
 66
1
  0
VERTEX
  8
0
 10
560
 20
670
 42
0
  0
VERTEX
  8
0
 10
1100
 20
670
 42
0
  0
VERTEX
  8
0
 10
1100
 20
695
 42
-0
  0
VERTEX
  8
0
 10
991
 20
770
 42
-0
  0
VERTEX
  8
0
 10
560
 20
770
 42
-0
  0
SEQEND
  0
POLYLINE
  8
0
 10
0
 20
0
 39
0
 70
1
 66
1
  0
VERTEX
  8
0
 10
991
 20
745.63043212890625
 42
0
  0
VERTEX
  8
0
 10
1068.1943054199219
 20
695
 42
0
  0
VERTEX
  8
0
 10
1068.1943054199219
 20
685
 42
0
  0
VERTEX
  8
0
 10
981
 20
685
 42
-0
  0
VERTEX
  8
0
 10
981
 20
745.63043212890625
 42
-0
  0
SEQEND
  0
POLYLINE
  8
0
 10
0
 20
0
 39
0
 70
1
 66
1
  0
VERTEX
  8
0
 10
746.25181579589844
 20
732.5
 42
0
  0
VERTEX
  8
0
 10
946.1434326171875
 20
732.5
 42
-0.19785122573375702
  0
VERTEX
  8
0
 10
946.403076171875
 20
708.13042831420898
 42
-0
  0
VERTEX
  8
0
 10
746.25181579589844
 20
708.13042831420898
 42
-0.19997029006481171
  0
SEQEND
  0
POLYLINE
  8
0
 10
0
 20
0
 39
0
 70
1
 66
1
  0
VERTEX
  8
0
 10
1189.0392150878906
 20
550
 42
0
  0
VERTEX
  8
0
 10
1189.0392150878906
 20
10
 42
0
  0
VERTEX
  8
0
 10
1214.0392150878906
 20
10
 42
-0
  0
VERTEX
  8
0
 10
1289.0392150878906
 20
119
 42
-0
  0
VERTEX
  8
0
 10
1289.0392150878906
 20
550
 42
-0
  0
SEQEND
  0
POLYLINE
  8
0
 10
0
 20
0
 39
0
 70
1
 66
1
  0
VERTEX
  8
0
 10
1264.6696472167969
 20
119
 42
0
  0
VERTEX
  8
0
 10
1214.0392150878906
 20
41.805694580078125
 42
0
  0
VERTEX
  8
0
 10
1204.0392150878906
 20
41.805694580078125
 42
0
  0
VERTEX
  8
0
 10
1204.0392150878906
 20
129
 42
-0
  0
VERTEX
  8
0
 10
1264.6696472167969
 20
129
 42
-0
  0
SEQEND
  0
POLYLINE
  8
0
 10
0
 20
0
 39
0
 70
1
 66
1
  0
VERTEX
  8
0
 10
1251.5392150878906
 20
363.74818420410156
 42
0
  0
VERTEX
  8
0
 10
1251.5392150878906
 20
163.8565673828125
 42
-0.19785122573375702
  0
VERTEX
  8
0
 10
1227.1696434020996
 20
163.596923828125
 42
-0
  0
VERTEX
  8
0
 10
1227.1696434020996
 20
363.74818420410156
 42
-0.19997029006481171
  0
SEQEND
  0
POLYLINE
  8
0
 10
0
 20
0
 39
0
 70
1
 66
1
  0
VERTEX
  8
0
 10
499.03921508789063
 20
660
 42
0
  0
VERTEX
  8
0
 10
499.03921508789063
 20
560
 42
-0
  0
VERTEX
  8
0
 10
549.03921508789062
 20
560
 42
-0
  0
VERTEX
  8
0
 10
549.03921508789062
 20
660
 42
-0
  0
SEQEND
  0
POLYLINE
  8
0
 10
0
 20
0
 39
0
 70
1
 66
1
  0
VERTEX
  8
0
 10
524.03921508789062
 20
639.59393692016602
 42
0
  0
VERTEX
  8
0
 10
537.03921508789062
 20
639.59393692016602
 42
0
  0
VERTEX
  8
0
 10
537.03921508789062
 20
580.40605926513672
 42
-0
  0
VERTEX
  8
0
 10
524.03921508789062
 20
580.40605926513672
 42
-0
  0
VERTEX
  8
0
 10
511.03921508789062
 20
580.40605926513672
 42
-0
  0
VERTEX
  8
0
 10
511.03921508789062
 20
639.59393692016602
 42
-0
  0
SEQEND
  0
POLYLINE
  8
0
 10
0
 20
0
 39
0
 70
1
 66
1
  0
VERTEX
  8
0
 10
420
 20
824.39574856298464
 42
0
  0
VERTEX
  8
0
 10
520
 20
824.39574856298464
 42
-0
  0
VERTEX
  8
0
 10
520
 20
874.39574856298464
 42
-0
  0
VERTEX
  8
0
 10
420
 20
874.39574856298464
 42
-0
  0
SEQEND
  0
POLYLINE
  8
0
 10
0
 20
0
 39
0
 70
1
 66
1
  0
VERTEX
  8
0
 10
440.40606307983398
 20
849.39574856298464
 42
0
  0
VERTEX
  8
0
 10
440.40606307983398
 20
862.39574856298464
 42
0
  0
VERTEX
  8
0
 10
499.59394073486328
 20
862.39574856298464
 42
-0
  0
VERTEX
  8
0
 10
499.59394073486328
 20
849.39574856298464
 42
-0
  0
VERTEX
  8
0
 10
499.59394073486328
 20
836.39574856298464
 42
-0
  0
VERTEX
  8
0
 10
440.40606307983398
 20
836.39574856298464
 42
-0
  0
SEQEND
  0
POLYLINE
  8
0
 10
0
 20
0
 39
0
 70
1
 66
1
  0
VERTEX
  8
0
 10
1359.0392150878906
 20
520
 42
0
  0
VERTEX
  8
0
 10
1359.0392150878906
 20
420
 42
-0
  0
VERTEX
  8
0
 10
1409.0392150878906
 20
420
 42
-0
  0
VERTEX
  8
0
 10
1409.0392150878906
 20
520
 42
-0
  0
SEQEND
  0
POLYLINE
  8
0
 10
0
 20
0
 39
0
 70
1
 66
1
  0
VERTEX
  8
0
 10
1384.0392150878906
 20
499.59393692016602
 42
0
  0
VERTEX
  8
0
 10
1397.0392150878906
 20
499.59393692016602
 42
0
  0
VERTEX
  8
0
 10
1397.0392150878906
 20
440.40605926513672
 42
-0
  0
VERTEX
  8
0
 10
1384.0392150878906
 20
440.40605926513672
 42
-0
  0
VERTEX
  8
0
 10
1371.0392150878906
 20
440.40605926513672
 42
-0
  0
VERTEX
  8
0
 10
1371.0392150878906
 20
499.59393692016602
 42
-0
  0
SEQEND
  0
POLYLINE
  8
0
 10
0
 20
0
 39
0
 70
1
 66
1
  0
VERTEX
  8
0
 10
1189.0392150878906
 20
783.81883239746094
 42
0
  0
VERTEX
  8
0
 10
1189.0392150878906
 20
583.81883239746094
 42
0
  0
VERTEX
  8
0
 10
1209.0392150878906
 20
560
 42
0
  0
VERTEX
  8
0
 10
1229.0392150878906
 20
583.81883239746094
 42
-0
  0
VERTEX
  8
0
 10
1229.0392150878906
 20
783.81883239746094
 42
-0
  0
VERTEX
  8
0
 10
1209.0392150878906
 20
807.63766098022461
 42
-0
  0
SEQEND
  0
POLYLINE
  8
0
 10
0
 20
0
 39
0
 70
1
 66
1
  0
VERTEX
  8
0
 10
1209.0392150878906
 20
783.81883239746094
 42
0
  0
VERTEX
  8
0
 10
1219.0392150878906
 20
773.51878833770752
 42
0
  0
VERTEX
  8
0
 10
1219.0392150878906
 20
724.5187873840332
 42
0
  0
VERTEX
  8
0
 10
1209.0392150878906
 20
727.40044784545898
 42
0
  0
VERTEX
  8
0
 10
1199.0392150878906
 20
724.5187873840332
 42
-0
  0
VERTEX
  8
0
 10
1199.0392150878906
 20
773.51878833770752
 42
-0
  0
SEQEND
  0
POLYLINE
  8
0
 10
0
 20
0
 39
0
 70
1
 66
1
  0
VERTEX
  8
0
 10
1209.0392150878906
 20
721.41520690917969
 42
-1
  0
VERTEX
  8
0
 10
1209.0392150878906
 20
701.41520690917969
 42
-1
  0
SEQEND
  0
POLYLINE
  8
0
 10
0
 20
0
 39
0
 70
1
 66
1
  0
VERTEX
  8
0
 10
1119.0392150878906
 20
820
 42
0
  0
VERTEX
  8
0
 10
1119.0392150878906
 20
420
 42
-0
  0
VERTEX
  8
0
 10
1179.0392150878906
 20
420
 42
-0
  0
VERTEX
  8
0
 10
1179.0392150878906
 20
820
 42
-0
  0
SEQEND
  0
POLYLINE
  8
0
 10
0
 20
0
 39
0
 70
1
 66
1
  0
VERTEX
  8
0
 10
1149.0392150878906
 20
792.35481071472168
 42
-1
  0
VERTEX
  8
0
 10
1149.0392150878906
 20
766.35481262207031
 42
-1
  0
SEQEND
  0
POLYLINE
  8
0
 10
0
 20
0
 39
0
 70
1
 66
1
  0
VERTEX
  8
0
 10
1149.0392150878906
 20
755.04728698730469
 42
-1
  0
VERTEX
  8
0
 10
1149.0392150878906
 20
729.04728698730469
 42
-1
  0
SEQEND
  0
POLYLINE
  8
0
 10
0
 20
0
 39
0
 70
1
 66
1
  0
VERTEX
  8
0
 10
1149.0392150878906
 20
717.19112396240234
 42
-1
  0
VERTEX
  8
0
 10
1149.0392150878906
 20
691.19111633300781
 42
-1
  0
SEQEND
  0
POLYLINE
  8
0
 10
0
 20
0
 39
0
 70
1
 66
1
  0
VERTEX
  8
0
 10
1299.0392150878906
 20
410
 42
0
  0
VERTEX
  8
0
 10
1299.0392150878906
 20
10
 42
-0
  0
VERTEX
  8
0
 10
1359.0392150878906
 20
10
 42
-0
  0
VERTEX
  8
0
 10
1359.0392150878906
 20
410
 42
-0
  0
SEQEND
  0
POLYLINE
  8
0
 10
0
 20
0
 39
0
 70
1
 66
1
  0
VERTEX
  8
0
 10
1329.0392150878906
 20
382.35481071472168
 42
-1
  0
VERTEX
  8
0
 10
1329.0392150878906
 20
356.35481262207031
 42
-1
  0
SEQEND
  0
POLYLINE
  8
0
 10
0
 20
0
 39
0
 70
1
 66
1
  0
VERTEX
  8
0
 10
1329.0392150878906
 20
345.04728698730469
 42
-1
  0
VERTEX
  8
0
 10
1329.0392150878906
 20
319.04728698730469
 42
-1
  0
SEQEND
  0
POLYLINE
  8
0
 10
0
 20
0
 39
0
 70
1
 66
1
  0
VERTEX
  8
0
 10
1329.0392150878906
 20
307.19112396240234
 42
-1
  0
VERTEX
  8
0
 10
1329.0392150878906
 20
281.19111633300781
 42
-1
  0
SEQEND
  0
POLYLINE
  8
0
 10
0
 20
0
 39
0
 70
1
 66
1
  0
VERTEX
  8
0
 10
10
 20
824.39574856298464
 42
0
  0
VERTEX
  8
0
 10
410
 20
824.39574856298464
 42
-0
  0
VERTEX
  8
0
 10
410
 20
884.39574856298464
 42
-0
  0
VERTEX
  8
0
 10
10.000000000000004
 20
884.39574856298464
 42
-0
  0
SEQEND
  0
POLYLINE
  8
0
 10
0
 20
0
 39
0
 70
1
 66
1
  0
VERTEX
  8
0
 10
37.64518928527832
 20
854.39574856298464
 42
-1
  0
VERTEX
  8
0
 10
63.645187377929687
 20
854.39574856298464
 42
-1
  0
SEQEND
  0
POLYLINE
  8
0
 10
0
 20
0
 39
0
 70
1
 66
1
  0
VERTEX
  8
0
 10
74.952713012695312
 20
854.39574856298464
 42
-1
  0
VERTEX
  8
0
 10
100.95271301269531
 20
854.39574856298464
 42
-1
  0
SEQEND
  0
POLYLINE
  8
0
 10
0
 20
0
 39
0
 70
1
 66
1
  0
VERTEX
  8
0
 10
112.80887603759766
 20
854.39574856298464
 42
-1
  0
VERTEX
  8
0
 10
138.80888366699219
 20
854.39574856298464
 42
-1
  0
SEQEND
  0
POLYLINE
  8
0
 10
0
 20
0
 39
0
 70
1
 66
1
  0
VERTEX
  8
0
 10
1419.0392150878906
 20
887.63766098022461
 42
0
  0
VERTEX
  8
0
 10
1419.0392150878906
 20
487.63766098022461
 42
-0
  0
VERTEX
  8
0
 10
1479.0392150878906
 20
487.63766098022461
 42
-0
  0
VERTEX
  8
0
 10
1479.0392150878906
 20
887.63766098022461
 42
-0
  0
SEQEND
  0
POLYLINE
  8
0
 10
0
 20
0
 39
0
 70
1
 66
1
  0
VERTEX
  8
0
 10
1449.0392150878906
 20
859.99247169494629
 42
-1
  0
VERTEX
  8
0
 10
1449.0392150878906
 20
833.99247360229492
 42
-1
  0
SEQEND
  0
POLYLINE
  8
0
 10
0
 20
0
 39
0
 70
1
 66
1
  0
VERTEX
  8
0
 10
1449.0392150878906
 20
822.6849479675293
 42
-1
  0
VERTEX
  8
0
 10
1449.0392150878906
 20
796.6849479675293
 42
-1
  0
SEQEND
  0
POLYLINE
  8
0
 10
0
 20
0
 39
0
 70
1
 66
1
  0
VERTEX
  8
0
 10
1449.0392150878906
 20
784.82878494262695
 42
-1
  0
VERTEX
  8
0
 10
1449.0392150878906
 20
758.82877731323242
 42
-1
  0
SEQEND
  0
POLYLINE
  8
0
 10
0
 20
0
 39
0
 70
1
 66
1
  0
VERTEX
  8
0
 10
1119.0392150878906
 20
410
 42
0
  0
VERTEX
  8
0
 10
1119.0392150878906
 20
10
 42
-0
  0
VERTEX
  8
0
 10
1179.0392150878906
 20
10
 42
-0
  0
VERTEX
  8
0
 10
1179.0392150878906
 20
410
 42
-0
  0
SEQEND
  0
POLYLINE
  8
0
 10
0
 20
0
 39
0
 70
1
 66
1
  0
VERTEX
  8
0
 10
1149.0392150878906
 20
382.35481071472168
 42
-1
  0
VERTEX
  8
0
 10
1149.0392150878906
 20
356.35481262207031
 42
-1
  0
SEQEND
  0
POLYLINE
  8
0
 10
0
 20
0
 39
0
 70
1
 66
1
  0
VERTEX
  8
0
 10
1149.0392150878906
 20
345.04728698730469
 42
-1
  0
VERTEX
  8
0
 10
1149.0392150878906
 20
319.04728698730469
 42
-1
  0
SEQEND
  0
POLYLINE
  8
0
 10
0
 20
0
 39
0
 70
1
 66
1
  0
VERTEX
  8
0
 10
1149.0392150878906
 20
307.19112396240234
 42
-1
  0
VERTEX
  8
0
 10
1149.0392150878906
 20
281.19111633300781
 42
-1
  0
SEQEND
  0
POLYLINE
  8
0
 10
0
 20
0
 39
0
 70
1
 66
1
  0
VERTEX
  8
0
 10
1049.0392150878906
 20
550
 42
0
  0
VERTEX
  8
0
 10
1049.0392150878906
 20
150
 42
-0
  0
VERTEX
  8
0
 10
1109.0392150878906
 20
150
 42
-0
  0
VERTEX
  8
0
 10
1109.0392150878906
 20
550
 42
-0
  0
SEQEND
  0
POLYLINE
  8
0
 10
0
 20
0
 39
0
 70
1
 66
1
  0
VERTEX
  8
0
 10
1079.0392150878906
 20
522.35481071472168
 42
-1
  0
VERTEX
  8
0
 10
1079.0392150878906
 20
496.35481262207031
 42
-1
  0
SEQEND
  0
POLYLINE
  8
0
 10
0
 20
0
 39
0
 70
1
 66
1
  0
VERTEX
  8
0
 10
1079.0392150878906
 20
485.04728698730469
 42
-1
  0
VERTEX
  8
0
 10
1079.0392150878906
 20
459.04728698730469
 42
-1
  0
SEQEND
  0
POLYLINE
  8
0
 10
0
 20
0
 39
0
 70
1
 66
1
  0
VERTEX
  8
0
 10
1079.0392150878906
 20
447.19112396240234
 42
-1
  0
VERTEX
  8
0
 10
1079.0392150878906
 20
421.19111633300781
 42
-1
  0
SEQEND
  0
POLYLINE
  8
0
 10
0
 20
0
 39
0
 70
1
 66
1
  0
VERTEX
  8
0
 10
10
 20
677.48936483630189
 42
0
  0
VERTEX
  8
0
 10
10.000000000000043
 20
518.49807379015931
 42
0
  0
VERTEX
  8
0
 10
45.129901885986371
 20
518.49807379015931
 42
0
  0
VERTEX
  8
0
 10
45.129901885986371
 20
478.49807379015931
 42
0
  0
VERTEX
  8
0
 10
10.000000000000048
 20
478.49807379015931
 42
0
  0
VERTEX
  8
0
 10
10.000000000000064
 20
236.05814764269837
 42
0
  0
VERTEX
  8
0
 10
45.129901885986385
 20
236.05814764269837
 42
0
  0
VERTEX
  8
0
 10
45.129901885986399
 20
196.05811712512025
 42
0
  0
VERTEX
  8
0
 10
10.000000000000064
 20
196.05811712512025
 42
0
  0
VERTEX
  8
0
 10
10.00000000000006
 20
36.906383726682748
 42
0.47935917973518372
  0
VERTEX
  8
0
 10
122.25980377197273
 20
36.906383726682748
 42
-0
  0
VERTEX
  8
0
 10
122.25980377197271
 20
196.05811712512025
 42
-0
  0
VERTEX
  8
0
 10
87.129898071289119
 20
196.05811712512025
 42
-0
  0
VERTEX
  8
0
 10
87.129898071289119
 20
236.05814764269837
 42
-0
  0
VERTEX
  8
0
 10
122.25980377197271
 20
236.05814764269837
 42
-0
  0
VERTEX
  8
0
 10
122.2598037719727
 20
478.49807379015931
 42
-0
  0
VERTEX
  8
0
 10
87.129898071289105
 20
478.49807379015931
 42
-0
  0
VERTEX
  8
0
 10
87.129898071289105
 20
518.49807379015931
 42
-0
  0
VERTEX
  8
0
 10
122.2598037719727
 20
518.49807379015931
 42
-0
  0
VERTEX
  8
0
 10
122.25980377197268
 20
677.48936483630189
 42
0.47935917973518372
  0
SEQEND
  0
POLYLINE
  8
0
 10
0
 20
0
 39
0
 70
1
 66
1
  0
VERTEX
  8
0
 10
66.129901885986385
 20
393.14808294543275
 42
-1
  0
VERTEX
  8
0
 10
66.129901885986385
 20
329.14808294543275
 42
-1
  0
SEQEND
  0
POLYLINE
  8
0
 10
0
 20
0
 39
0
 70
1
 66
1
  0
VERTEX
  8
0
 10
1299.0392150878906
 20
720
 42
0
  0
VERTEX
  8
0
 10
1299.0392150878906
 20
420
 42
-0
  0
VERTEX
  8
0
 10
1349.0392150878906
 20
420
 42
-0
  0
VERTEX
  8
0
 10
1349.0392150878906
 20
494.58770751953125
 42
0
  0
VERTEX
  8
0
 10
1340.6613731384277
 20
494.58770751953125
 42
-0
  0
VERTEX
  8
0
 10
1340.6613731384277
 20
645.41229248046875
 42
-0
  0
VERTEX
  8
0
 10
1349.0392150878906
 20
645.41229248046875
 42
-0
  0
VERTEX
  8
0
 10
1349.0392150878906
 20
720
 42
-0
  0
SEQEND
  0
POLYLINE
  8
0
 10
0
 20
0
 39
0
 70
1
 66
1
  0
VERTEX
  8
0
 10
1324.0392150878906
 20
701.01749420166016
 42
-1
  0
VERTEX
  8
0
 10
1324.0392150878906
 20
673.01749420166016
 42
-1
  0
SEQEND
  0
POLYLINE
  8
0
 10
0
 20
0
 39
0
 70
1
 66
1
  0
VERTEX
  8
0
 10
1324.0392150878906
 20
466.98251342773437
 42
-1
  0
VERTEX
  8
0
 10
1324.0392150878906
 20
438.98251342773437
 42
-1
  0
SEQEND
  0
POLYLINE
  8
0
 10
0
 20
0
 39
0
 70
1
 66
1
  0
VERTEX
  8
0
 10
1239.0392150878906
 20
860
 42
0
  0
VERTEX
  8
0
 10
1239.0392150878906
 20
560
 42
-0
  0
VERTEX
  8
0
 10
1289.0392150878906
 20
560
 42
-0
  0
VERTEX
  8
0
 10
1289.0392150878906
 20
634.58770751953125
 42
0
  0
VERTEX
  8
0
 10
1280.6613731384277
 20
634.58770751953125
 42
-0
  0
VERTEX
  8
0
 10
1280.6613731384277
 20
785.41229248046875
 42
-0
  0
VERTEX
  8
0
 10
1289.0392150878906
 20
785.41229248046875
 42
-0
  0
VERTEX
  8
0
 10
1289.0392150878906
 20
860
 42
-0
  0
SEQEND
  0
POLYLINE
  8
0
 10
0
 20
0
 39
0
 70
1
 66
1
  0
VERTEX
  8
0
 10
1264.0392150878906
 20
841.01749420166016
 42
-1
  0
VERTEX
  8
0
 10
1264.0392150878906
 20
813.01749420166016
 42
-1
  0
SEQEND
  0
POLYLINE
  8
0
 10
0
 20
0
 39
0
 70
1
 66
1
  0
VERTEX
  8
0
 10
1264.0392150878906
 20
606.98251342773437
 42
-1
  0
VERTEX
  8
0
 10
1264.0392150878906
 20
578.98251342773437
 42
-1
  0
SEQEND
  0
POLYLINE
  8
0
 10
0
 20
0
 39
0
 70
1
 66
1
  0
VERTEX
  8
0
 10
132.25980377197266
 20
677.48936483630189
 42
0
  0
VERTEX
  8
0
 10
132.25980377197268
 20
518.49807379015931
 42
0
  0
VERTEX
  8
0
 10
167.38970565795904
 20
518.49807379015931
 42
0
  0
VERTEX
  8
0
 10
167.38970565795904
 20
478.49807379015931
 42
0
  0
VERTEX
  8
0
 10
132.25980377197271
 20
478.49807379015931
 42
0
  0
VERTEX
  8
0
 10
132.25980377197271
 20
236.05814764269837
 42
0
  0
VERTEX
  8
0
 10
167.38970565795904
 20
236.05814764269837
 42
0
  0
VERTEX
  8
0
 10
167.38970565795904
 20
196.05811712512025
 42
0
  0
VERTEX
  8
0
 10
132.25980377197271
 20
196.05811712512025
 42
0
  0
VERTEX
  8
0
 10
132.25980377197271
 20
36.906383726682748
 42
0.47935917973518372
  0
VERTEX
  8
0
 10
244.51960754394537
 20
36.906383726682748
 42
-0
  0
VERTEX
  8
0
 10
244.51960754394537
 20
196.05811712512025
 42
-0
  0
VERTEX
  8
0
 10
209.38970184326178
 20
196.05811712512025
 42
-0
  0
VERTEX
  8
0
 10
209.38970184326178
 20
236.05814764269837
 42
-0
  0
VERTEX
  8
0
 10
244.51960754394537
 20
236.05814764269837
 42
-0
  0
VERTEX
  8
0
 10
244.51960754394537
 20
478.49807379015931
 42
-0
  0
VERTEX
  8
0
 10
209.38970184326178
 20
478.49807379015931
 42
-0
  0
VERTEX
  8
0
 10
209.38970184326178
 20
518.49807379015931
 42
-0
  0
VERTEX
  8
0
 10
244.51960754394537
 20
518.49807379015931
 42
-0
  0
VERTEX
  8
0
 10
244.51960754394534
 20
677.48936483630189
 42
0.47935917973518372
  0
SEQEND
  0
POLYLINE
  8
0
 10
0
 20
0
 39
0
 70
1
 66
1
  0
VERTEX
  8
0
 10
188.38970565795904
 20
393.14808294543275
 42
-1
  0
VERTEX
  8
0
 10
188.38970565795904
 20
329.14808294543275
 42
-1
  0
SEQEND
  0
POLYLINE
  8
0
 10
0
 20
0
 39
0
 70
1
 66
1
  0
VERTEX
  8
0
 10
254.51960754394531
 20
677.48936483630189
 42
0
  0
VERTEX
  8
0
 10
254.51960754394534
 20
518.49807379015931
 42
0
  0
VERTEX
  8
0
 10
289.6495094299317
 20
518.49807379015931
 42
0
  0
VERTEX
  8
0
 10
289.6495094299317
 20
478.49807379015931
 42
0
  0
VERTEX
  8
0
 10
254.51960754394537
 20
478.49807379015931
 42
0
  0
VERTEX
  8
0
 10
254.51960754394537
 20
236.05814764269837
 42
0
  0
VERTEX
  8
0
 10
289.6495094299317
 20
236.05814764269837
 42
0
  0
VERTEX
  8
0
 10
289.6495094299317
 20
196.05811712512025
 42
0
  0
VERTEX
  8
0
 10
254.51960754394537
 20
196.05811712512025
 42
0
  0
VERTEX
  8
0
 10
254.51960754394537
 20
36.906383726682748
 42
0.47935917973518372
  0
VERTEX
  8
0
 10
366.77941131591803
 20
36.906383726682748
 42
-0
  0
VERTEX
  8
0
 10
366.77941131591803
 20
196.05811712512025
 42
-0
  0
VERTEX
  8
0
 10
331.64950561523443
 20
196.05811712512025
 42
-0
  0
VERTEX
  8
0
 10
331.64950561523443
 20
236.05814764269837
 42
-0
  0
VERTEX
  8
0
 10
366.77941131591803
 20
236.05814764269837
 42
-0
  0
VERTEX
  8
0
 10
366.77941131591803
 20
478.49807379015931
 42
-0
  0
VERTEX
  8
0
 10
331.64950561523443
 20
478.49807379015931
 42
-0
  0
VERTEX
  8
0
 10
331.64950561523443
 20
518.49807379015931
 42
-0
  0
VERTEX
  8
0
 10
366.77941131591803
 20
518.49807379015931
 42
-0
  0
VERTEX
  8
0
 10
366.77941131591797
 20
677.48936483630189
 42
0.47935917973518372
  0
SEQEND
  0
POLYLINE
  8
0
 10
0
 20
0
 39
0
 70
1
 66
1
  0
VERTEX
  8
0
 10
310.6495094299317
 20
393.14808294543275
 42
-1
  0
VERTEX
  8
0
 10
310.6495094299317
 20
329.14808294543275
 42
-1
  0
SEQEND
  0
POLYLINE
  8
0
 10
0
 20
0
 39
0
 70
1
 66
1
  0
VERTEX
  8
0
 10
1359.0392150878906
 20
830
 42
0
  0
VERTEX
  8
0
 10
1359.0392150878906
 20
530
 42
-0
  0
VERTEX
  8
0
 10
1409.0392150878906
 20
530
 42
-0
  0
VERTEX
  8
0
 10
1409.0392150878906
 20
604.58770751953125
 42
0
  0
VERTEX
  8
0
 10
1400.6613731384277
 20
604.58770751953125
 42
-0
  0
VERTEX
  8
0
 10
1400.6613731384277
 20
755.41229248046875
 42
-0
  0
VERTEX
  8
0
 10
1409.0392150878906
 20
755.41229248046875
 42
-0
  0
VERTEX
  8
0
 10
1409.0392150878906
 20
830
 42
-0
  0
SEQEND
  0
POLYLINE
  8
0
 10
0
 20
0
 39
0
 70
1
 66
1
  0
VERTEX
  8
0
 10
1384.0392150878906
 20
811.01749420166016
 42
-1
  0
VERTEX
  8
0
 10
1384.0392150878906
 20
783.01749420166016
 42
-1
  0
SEQEND
  0
POLYLINE
  8
0
 10
0
 20
0
 39
0
 70
1
 66
1
  0
VERTEX
  8
0
 10
1384.0392150878906
 20
576.98251342773437
 42
-1
  0
VERTEX
  8
0
 10
1384.0392150878906
 20
548.98251342773437
 42
-1
  0
SEQEND
  0
POLYLINE
  8
0
 10
0
 20
0
 39
0
 70
1
 66
1
  0
VERTEX
  8
0
 10
1299.0392150878906
 20
830
 42
0
  0
VERTEX
  8
0
 10
1299.0392150878906
 20
730
 42
-0
  0
VERTEX
  8
0
 10
1349.0392150878906
 20
730
 42
-0
  0
VERTEX
  8
0
 10
1349.0392150878906
 20
830
 42
-0
  0
SEQEND
  0
POLYLINE
  8
0
 10
0
 20
0
 39
0
 70
1
 66
1
  0
VERTEX
  8
0
 10
1324.0392150878906
 20
809.59393692016602
 42
0
  0
VERTEX
  8
0
 10
1337.0392150878906
 20
809.59393692016602
 42
0
  0
VERTEX
  8
0
 10
1337.0392150878906
 20
750.40605926513672
 42
-0
  0
VERTEX
  8
0
 10
1324.0392150878906
 20
750.40605926513672
 42
-0
  0
VERTEX
  8
0
 10
1311.0392150878906
 20
750.40605926513672
 42
-0
  0
VERTEX
  8
0
 10
1311.0392150878906
 20
809.59393692016602
 42
-0
  0
SEQEND
  0
POLYLINE
  8
0
 10
0
 20
0
 39
0
 70
1
 66
1
  0
VERTEX
  8
0
 10
1369.0392150878906
 20
367.63766098022461
 42
0
  0
VERTEX
  8
0
 10
1369.0392150878906
 20
267.63766098022461
 42
-0
  0
VERTEX
  8
0
 10
1419.0392150878906
 20
267.63766098022461
 42
-0
  0
VERTEX
  8
0
 10
1419.0392150878906
 20
367.63766098022461
 42
-0
  0
SEQEND
  0
POLYLINE
  8
0
 10
0
 20
0
 39
0
 70
1
 66
1
  0
VERTEX
  8
0
 10
1394.0392150878906
 20
347.23159790039062
 42
0
  0
VERTEX
  8
0
 10
1407.0392150878906
 20
347.23159790039062
 42
0
  0
VERTEX
  8
0
 10
1407.0392150878906
 20
288.04372024536133
 42
-0
  0
VERTEX
  8
0
 10
1394.0392150878906
 20
288.04372024536133
 42
-0
  0
VERTEX
  8
0
 10
1381.0392150878906
 20
288.04372024536133
 42
-0
  0
VERTEX
  8
0
 10
1381.0392150878906
 20
347.23159790039062
 42
-0
  0
SEQEND
  0
POLYLINE
  8
0
 10
0
 20
0
 39
0
 70
1
 66
1
  0
VERTEX
  8
0
 10
1419.0392150878906
 20
477.63766098022461
 42
0
  0
VERTEX
  8
0
 10
1419.0392150878906
 20
377.63766098022461
 42
-0
  0
VERTEX
  8
0
 10
1469.0392150878906
 20
377.63766098022461
 42
-0
  0
VERTEX
  8
0
 10
1469.0392150878906
 20
477.63766098022461
 42
-0
  0
SEQEND
  0
POLYLINE
  8
0
 10
0
 20
0
 39
0
 70
1
 66
1
  0
VERTEX
  8
0
 10
1444.0392150878906
 20
457.23159790039062
 42
0
  0
VERTEX
  8
0
 10
1457.0392150878906
 20
457.23159790039062
 42
0
  0
VERTEX
  8
0
 10
1457.0392150878906
 20
398.04372024536133
 42
-0
  0
VERTEX
  8
0
 10
1444.0392150878906
 20
398.04372024536133
 42
-0
  0
VERTEX
  8
0
 10
1431.0392150878906
 20
398.04372024536133
 42
-0
  0
VERTEX
  8
0
 10
1431.0392150878906
 20
457.23159790039062
 42
-0
  0
SEQEND
  0
POLYLINE
  8
0
 10
0
 20
0
 39
0
 70
1
 66
1
  0
VERTEX
  8
0
 10
1429.0392150878906
 20
330
 42
0
  0
VERTEX
  8
0
 10
1429.0392150878906
 20
230
 42
-0
  0
VERTEX
  8
0
 10
1479.0392150878906
 20
230
 42
-0
  0
VERTEX
  8
0
 10
1479.0392150878906
 20
330
 42
-0
  0
SEQEND
  0
POLYLINE
  8
0
 10
0
 20
0
 39
0
 70
1
 66
1
  0
VERTEX
  8
0
 10
1454.0392150878906
 20
309.59393692016602
 42
0
  0
VERTEX
  8
0
 10
1467.0392150878906
 20
309.59393692016602
 42
0
  0
VERTEX
  8
0
 10
1467.0392150878906
 20
250.40605926513672
 42
-0
  0
VERTEX
  8
0
 10
1454.0392150878906
 20
250.40605926513672
 42
-0
  0
VERTEX
  8
0
 10
1441.0392150878906
 20
250.40605926513672
 42
-0
  0
VERTEX
  8
0
 10
1441.0392150878906
 20
309.59393692016602
 42
-0
  0
SEQEND
  0
POLYLINE
  8
0
 10
0
 20
0
 39
0
 70
1
 66
1
  0
VERTEX
  8
0
 10
1419.0392150878906
 20
110
 42
0
  0
VERTEX
  8
0
 10
1419.0392150878906
 20
10
 42
-0
  0
VERTEX
  8
0
 10
1469.0392150878906
 20
10
 42
-0
  0
VERTEX
  8
0
 10
1469.0392150878906
 20
110
 42
-0
  0
SEQEND
  0
POLYLINE
  8
0
 10
0
 20
0
 39
0
 70
1
 66
1
  0
VERTEX
  8
0
 10
1444.0392150878906
 20
89.593936920166016
 42
0
  0
VERTEX
  8
0
 10
1457.0392150878906
 20
89.593936920166016
 42
0
  0
VERTEX
  8
0
 10
1457.0392150878906
 20
30.406059265136719
 42
-0
  0
VERTEX
  8
0
 10
1444.0392150878906
 20
30.406059265136719
 42
-0
  0
VERTEX
  8
0
 10
1431.0392150878906
 20
30.406059265136719
 42
-0
  0
VERTEX
  8
0
 10
1431.0392150878906
 20
89.593936920166016
 42
-0
  0
SEQEND
  0
POLYLINE
  8
0
 10
0
 20
0
 39
0
 70
1
 66
1
  0
VERTEX
  8
0
 10
1049.0392150878906
 20
140
 42
0
  0
VERTEX
  8
0
 10
1049.0392150878906
 20
10
 42
-0
  0
VERTEX
  8
0
 10
1109.0392150878906
 20
10
 42
-0
  0
VERTEX
  8
0
 10
1109.0392150878906
 20
140
 42
-0
  0
SEQEND
  0
POLYLINE
  8
0
 10
0
 20
0
 39
0
 70
1
 66
1
  0
VERTEX
  8
0
 10
1079.0392150878906
 20
130.94801712036133
 42
-1
  0
VERTEX
  8
0
 10
1079.0392150878906
 20
104.94801712036133
 42
-1
  0
SEQEND
  0
POLYLINE
  8
0
 10
0
 20
0
 39
0
 70
1
 66
1
  0
VERTEX
  8
0
 10
1419.0392150878906
 20
220
 42
0
  0
VERTEX
  8
0
 10
1419.0392150878906
 20
120
 42
-0
  0
VERTEX
  8
0
 10
1469.0392150878906
 20
120
 42
-0
  0
VERTEX
  8
0
 10
1469.0392150878906
 20
220
 42
-0
  0
SEQEND
  0
POLYLINE
  8
0
 10
0
 20
0
 39
0
 70
1
 66
1
  0
VERTEX
  8
0
 10
1444.0392150878906
 20
199.59393692016602
 42
0
  0
VERTEX
  8
0
 10
1457.0392150878906
 20
199.59393692016602
 42
0
  0
VERTEX
  8
0
 10
1457.0392150878906
 20
140.40605926513672
 42
-0
  0
VERTEX
  8
0
 10
1444.0392150878906
 20
140.40605926513672
 42
-0
  0
VERTEX
  8
0
 10
1431.0392150878906
 20
140.40605926513672
 42
-0
  0
VERTEX
  8
0
 10
1431.0392150878906
 20
199.59393692016602
 42
-0
  0
SEQEND
  0
POLYLINE
  8
0
 10
0
 20
0
 39
0
 70
1
 66
1
  0
VERTEX
  8
0
 10
1299.0392150878906
 20
840
 42
0
  0
VERTEX
  8
0
 10
1399.0392150878906
 20
840
 42
-0
  0
VERTEX
  8
0
 10
1399.0392150878906
 20
890
 42
-0
  0
VERTEX
  8
0
 10
1299.0392150878906
 20
890
 42
-0
  0
SEQEND
  0
POLYLINE
  8
0
 10
0
 20
0
 39
0
 70
1
 66
1
  0
VERTEX
  8
0
 10
1319.4452781677246
 20
865
 42
0
  0
VERTEX
  8
0
 10
1319.4452781677246
 20
878
 42
0
  0
VERTEX
  8
0
 10
1378.6331558227539
 20
878
 42
-0
  0
VERTEX
  8
0
 10
1378.6331558227539
 20
865
 42
-0
  0
VERTEX
  8
0
 10
1378.6331558227539
 20
852
 42
-0
  0
VERTEX
  8
0
 10
1319.4452781677246
 20
852
 42
-0
  0
SEQEND
  0
ENDSEC
  0
EOF
