  0
SECTION
  2
ENTITIES
  0
POLYLINE
  8
0
 10
0
 20
0
 39
0
 70
1
 66
1
  0
VERTEX
  8
0
 10
0
 20
0
 42
-0
  0
VERTEX
  8
0
 10
1500
 20
0
 42
-0
  0
VERTEX
  8
0
 10
1500
 20
800
 42
-0
  0
VERTEX
  8
0
 10
0
 20
800
 42
-0
  0
SEQEND
  0
POLYLINE
  8
0
 10
0
 20
0
 39
0
 70
1
 66
1
  0
VERTEX
  8
0
 10
10.192307692307708
 20
75.192307692307693
 42
-0
  0
VERTEX
  8
0
 10
10.192307692307693
 20
305.19230769230768
 42
-1
  0
VERTEX
  8
0
 10
140.19230769230768
 20
305.19230769230768
 42
-0
  0
VERTEX
  8
0
 10
140.19230769230771
 20
75.192307692307708
 42
-1
  0
SEQEND
  0
POLYLINE
  8
0
 10
0
 20
0
 39
0
 70
1
 66
1
  0
VERTEX
  8
0
 10
75.192307692307708
 20
47.692307692307701
 42
1
  0
VERTEX
  8
0
 10
75.192307692307708
 20
102.69230769230769
 42
1
  0
SEQEND
  0
POLYLINE
  8
0
 10
0
 20
0
 39
0
 70
1
 66
1
  0
VERTEX
  8
0
 10
75.192307692307693
 20
277.69230769230768
 42
1
  0
VERTEX
  8
0
 10
75.192307692307693
 20
332.69230769230768
 42
1
  0
SEQEND
  0
POLYLINE
  8
0
 10
0
 20
0
 39
0
 70
1
 66
1
  0
VERTEX
  8
0
 10
10.192307692307708
 20
445.23076923076928
 42
-0
  0
VERTEX
  8
0
 10
10.192307692307693
 20
675.23076923076928
 42
-1
  0
VERTEX
  8
0
 10
140.19230769230768
 20
675.23076923076928
 42
-0
  0
VERTEX
  8
0
 10
140.19230769230771
 20
445.23076923076928
 42
-1
  0
SEQEND
  0
POLYLINE
  8
0
 10
0
 20
0
 39
0
 70
1
 66
1
  0
VERTEX
  8
0
 10
75.192307692307708
 20
417.73076923076928
 42
1
  0
VERTEX
  8
0
 10
75.192307692307708
 20
472.73076923076928
 42
1
  0
SEQEND
  0
POLYLINE
  8
0
 10
0
 20
0
 39
0
 70
1
 66
1
  0
VERTEX
  8
0
 10
75.192307692307693
 20
647.73076923076928
 42
1
  0
VERTEX
  8
0
 10
75.192307692307693
 20
702.73076923076928
 42
1
  0
SEQEND
  0
POLYLINE
  8
0
 10
0
 20
0
 39
0
 70
1
 66
1
  0
VERTEX
  8
0
 10
150.38461538461542
 20
75.192307692307693
 42
-0
  0
VERTEX
  8
0
 10
150.38461538461539
 20
305.19230769230768
 42
-1
  0
VERTEX
  8
0
 10
280.38461538461536
 20
305.19230769230768
 42
-0
  0
VERTEX
  8
0
 10
280.38461538461542
 20
75.192307692307708
 42
-1
  0
SEQEND
  0
POLYLINE
  8
0
 10
0
 20
0
 39
0
 70
1
 66
1
  0
VERTEX
  8
0
 10
215.38461538461542
 20
47.692307692307701
 42
1
  0
VERTEX
  8
0
 10
215.38461538461542
 20
102.69230769230769
 42
1
  0
SEQEND
  0
POLYLINE
  8
0
 10
0
 20
0
 39
0
 70
1
 66
1
  0
VERTEX
  8
0
 10
215.38461538461542
 20
277.69230769230768
 42
1
  0
VERTEX
  8
0
 10
215.38461538461542
 20
332.69230769230768
 42
1
  0
SEQEND
  0
POLYLINE
  8
0
 10
0
 20
0
 39
0
 70
1
 66
1
  0
VERTEX
  8
0
 10
150.38461538461542
 20
445.23076923076928
 42
-0
  0
VERTEX
  8
0
 10
150.38461538461539
 20
675.23076923076928
 42
-1
  0
VERTEX
  8
0
 10
280.38461538461536
 20
675.23076923076928
 42
-0
  0
VERTEX
  8
0
 10
280.38461538461542
 20
445.23076923076928
 42
-1
  0
SEQEND
  0
POLYLINE
  8
0
 10
0
 20
0
 39
0
 70
1
 66
1
  0
VERTEX
  8
0
 10
215.38461538461542
 20
417.73076923076928
 42
1
  0
VERTEX
  8
0
 10
215.38461538461542
 20
472.73076923076928
 42
1
  0
SEQEND
  0
POLYLINE
  8
0
 10
0
 20
0
 39
0
 70
1
 66
1
  0
VERTEX
  8
0
 10
215.38461538461542
 20
647.73076923076928
 42
1
  0
VERTEX
  8
0
 10
215.38461538461542
 20
702.73076923076928
 42
1
  0
SEQEND
  0
POLYLINE
  8
0
 10
0
 20
0
 39
0
 70
1
 66
1
  0
VERTEX
  8
0
 10
290.57692307692309
 20
75.192307692307693
 42
-0
  0
VERTEX
  8
0
 10
290.57692307692309
 20
305.19230769230768
 42
-1
  0
VERTEX
  8
0
 10
420.57692307692309
 20
305.19230769230768
 42
-0
  0
VERTEX
  8
0
 10
420.57692307692309
 20
75.192307692307708
 42
-1
  0
SEQEND
  0
POLYLINE
  8
0
 10
0
 20
0
 39
0
 70
1
 66
1
  0
VERTEX
  8
0
 10
355.57692307692309
 20
47.692307692307701
 42
1
  0
VERTEX
  8
0
 10
355.57692307692309
 20
102.69230769230769
 42
1
  0
SEQEND
  0
POLYLINE
  8
0
 10
0
 20
0
 39
0
 70
1
 66
1
  0
VERTEX
  8
0
 10
355.57692307692309
 20
277.69230769230768
 42
1
  0
VERTEX
  8
0
 10
355.57692307692309
 20
332.69230769230768
 42
1
  0
SEQEND
  0
POLYLINE
  8
0
 10
0
 20
0
 39
0
 70
1
 66
1
  0
VERTEX
  8
0
 10
290.57692307692309
 20
445.23076923076928
 42
-0
  0
VERTEX
  8
0
 10
290.57692307692309
 20
675.23076923076928
 42
-1
  0
VERTEX
  8
0
 10
420.57692307692309
 20
675.23076923076928
 42
-0
  0
VERTEX
  8
0
 10
420.57692307692309
 20
445.23076923076928
 42
-1
  0
SEQEND
  0
POLYLINE
  8
0
 10
0
 20
0
 39
0
 70
1
 66
1
  0
VERTEX
  8
0
 10
355.57692307692309
 20
417.73076923076928
 42
1
  0
VERTEX
  8
0
 10
355.57692307692309
 20
472.73076923076928
 42
1
  0
SEQEND
  0
POLYLINE
  8
0
 10
0
 20
0
 39
0
 70
1
 66
1
  0
VERTEX
  8
0
 10
355.57692307692309
 20
647.73076923076928
 42
1
  0
VERTEX
  8
0
 10
355.57692307692309
 20
702.73076923076928
 42
1
  0
SEQEND
  0
POLYLINE
  8
0
 10
0
 20
0
 39
0
 70
1
 66
1
  0
VERTEX
  8
0
 10
430.76923076923077
 20
10.192307692307693
 42
-0
  0
VERTEX
  8
0
 10
430.76923076923077
 20
350.19230769230768
 42
-0
  0
VERTEX
  8
0
 10
463.05222790057837
 20
440.19230769230768
 42
-0
  0
VERTEX
  8
0
 10
487.48623363788306
 20
440.19230769230768
 42
0
  0
VERTEX
  8
0
 10
519.76923076923072
 20
350.19230769230768
 42
0
  0
VERTEX
  8
0
 10
519.76923076923072
 20
10.192307692307704
 42
0
  0
SEQEND
  0
POLYLINE
  8
0
 10
0
 20
0
 39
0
 70
1
 66
1
  0
VERTEX
  8
0
 10
446.9107293349046
 20
262.82006953312799
 42
-0
  0
VERTEX
  8
0
 10
503.62773601825421
 20
262.82006953312799
 42
-0
  0
VERTEX
  8
0
 10
503.62773601825421
 20
296.82005427433893
 42
-0
  0
VERTEX
  8
0
 10
446.9107293349046
 20
296.82005427433893
 42
-0
  0
SEQEND
  0
POLYLINE
  8
0
 10
0
 20
0
 39
0
 70
1
 66
1
  0
VERTEX
  8
0
 10
475.26923076923077
 20
334.19230769230768
 42
1
  0
VERTEX
  8
0
 10
475.26923076923077
 20
366.19230769230768
 42
1
  0
SEQEND
  0
POLYLINE
  8
0
 10
0
 20
0
 39
0
 70
1
 66
1
  0
VERTEX
  8
0
 10
475.26923076923077
 20
144.5060589130108
 42
1
  0
VERTEX
  8
0
 10
475.26923076923077
 20
166.5060589130108
 42
1
  0
SEQEND
  0
POLYLINE
  8
0
 10
0
 20
0
 39
0
 70
1
 66
1
  0
VERTEX
  8
0
 10
475.26923076923077
 20
84.594559889573318
 42
1
  0
VERTEX
  8
0
 10
475.26923076923077
 20
106.59455988957332
 42
1
  0
SEQEND
  0
POLYLINE
  8
0
 10
0
 20
0
 39
0
 70
1
 66
1
  0
VERTEX
  8
0
 10
584.15384615384619
 20
789.46153846153857
 42
-0
  0
VERTEX
  8
0
 10
584.1538461538463
 20
449.46153846153857
 42
-0
  0
VERTEX
  8
0
 10
551.87084902249865
 20
359.46153846153857
 42
-0
  0
VERTEX
  8
0
 10
527.43684328519396
 20
359.46153846153857
 42
0
  0
VERTEX
  8
0
 10
495.15384615384625
 20
449.46153846153857
 42
0
  0
VERTEX
  8
0
 10
495.15384615384619
 20
789.46153846153857
 42
0
  0
SEQEND
  0
POLYLINE
  8
0
 10
0
 20
0
 39
0
 70
1
 66
1
  0
VERTEX
  8
0
 10
568.01234758817236
 20
536.83377662071825
 42
-0
  0
VERTEX
  8
0
 10
511.29534090482281
 20
536.83377662071825
 42
-0
  0
VERTEX
  8
0
 10
511.29534090482281
 20
502.83379187950732
 42
-0
  0
VERTEX
  8
0
 10
568.01234758817236
 20
502.83379187950732
 42
-0
  0
SEQEND
  0
POLYLINE
  8
0
 10
0
 20
0
 39
0
 70
1
 66
1
  0
VERTEX
  8
0
 10
539.65384615384619
 20
465.46153846153857
 42
1
  0
VERTEX
  8
0
 10
539.6538461538463
 20
433.46153846153857
 42
1
  0
SEQEND
  0
POLYLINE
  8
0
 10
0
 20
0
 39
0
 70
1
 66
1
  0
VERTEX
  8
0
 10
539.65384615384619
 20
655.14778724083544
 42
1
  0
VERTEX
  8
0
 10
539.65384615384619
 20
633.14778724083544
 42
1
  0
SEQEND
  0
POLYLINE
  8
0
 10
0
 20
0
 39
0
 70
1
 66
1
  0
VERTEX
  8
0
 10
539.65384615384619
 20
715.05928626427294
 42
1
  0
VERTEX
  8
0
 10
539.65384615384619
 20
693.05928626427294
 42
1
  0
SEQEND
  0
POLYLINE
  8
0
 10
0
 20
0
 39
0
 70
1
 66
1
  0
VERTEX
  8
0
 10
559.53846153846155
 20
10.192307692307693
 42
-0
  0
VERTEX
  8
0
 10
559.53846153846155
 20
350.19230769230768
 42
-0
  0
VERTEX
  8
0
 10
591.8214586698092
 20
440.19230769230768
 42
-0
  0
VERTEX
  8
0
 10
616.25546440711389
 20
440.19230769230768
 42
0
  0
VERTEX
  8
0
 10
648.53846153846155
 20
350.19230769230768
 42
0
  0
VERTEX
  8
0
 10
648.53846153846155
 20
10.192307692307704
 42
0
  0
SEQEND
  0
POLYLINE
  8
0
 10
0
 20
0
 39
0
 70
1
 66
1
  0
VERTEX
  8
0
 10
575.67996010413538
 20
262.82006953312799
 42
-0
  0
VERTEX
  8
0
 10
632.39696678748498
 20
262.82006953312799
 42
-0
  0
VERTEX
  8
0
 10
632.39696678748498
 20
296.82005427433893
 42
-0
  0
VERTEX
  8
0
 10
575.67996010413538
 20
296.82005427433893
 42
-0
  0
SEQEND
  0
POLYLINE
  8
0
 10
0
 20
0
 39
0
 70
1
 66
1
  0
VERTEX
  8
0
 10
604.03846153846155
 20
334.19230769230768
 42
1
  0
VERTEX
  8
0
 10
604.03846153846155
 20
366.19230769230768
 42
1
  0
SEQEND
  0
POLYLINE
  8
0
 10
0
 20
0
 39
0
 70
1
 66
1
  0
VERTEX
  8
0
 10
604.03846153846155
 20
144.5060589130108
 42
1
  0
VERTEX
  8
0
 10
604.03846153846155
 20
166.5060589130108
 42
1
  0
SEQEND
  0
POLYLINE
  8
0
 10
0
 20
0
 39
0
 70
1
 66
1
  0
VERTEX
  8
0
 10
604.03846153846155
 20
84.594559889573318
 42
1
  0
VERTEX
  8
0
 10
604.03846153846155
 20
106.59455988957332
 42
1
  0
SEQEND
  0
POLYLINE
  8
0
 10
0
 20
0
 39
0
 70
1
 66
1
  0
VERTEX
  8
0
 10
712.92307692307702
 20
789.46153846153857
 42
-0
  0
VERTEX
  8
0
 10
712.92307692307713
 20
449.46153846153857
 42
-0
  0
VERTEX
  8
0
 10
680.64007979172948
 20
359.46153846153857
 42
-0
  0
VERTEX
  8
0
 10
656.20607405442479
 20
359.46153846153857
 42
0
  0
VERTEX
  8
0
 10
623.92307692307713
 20
449.46153846153857
 42
0
  0
VERTEX
  8
0
 10
623.92307692307702
 20
789.46153846153857
 42
0
  0
SEQEND
  0
POLYLINE
  8
0
 10
0
 20
0
 39
0
 70
1
 66
1
  0
VERTEX
  8
0
 10
696.78157835740319
 20
536.83377662071825
 42
-0
  0
VERTEX
  8
0
 10
640.06457167405358
 20
536.83377662071825
 42
-0
  0
VERTEX
  8
0
 10
640.0645716740537
 20
502.83379187950732
 42
-0
  0
VERTEX
  8
0
 10
696.78157835740319
 20
502.83379187950732
 42
-0
  0
SEQEND
  0
POLYLINE
  8
0
 10
0
 20
0
 39
0
 70
1
 66
1
  0
VERTEX
  8
0
 10
668.42307692307713
 20
465.46153846153857
 42
1
  0
VERTEX
  8
0
 10
668.42307692307713
 20
433.46153846153857
 42
1
  0
SEQEND
  0
POLYLINE
  8
0
 10
0
 20
0
 39
0
 70
1
 66
1
  0
VERTEX
  8
0
 10
668.42307692307702
 20
655.14778724083544
 42
1
  0
VERTEX
  8
0
 10
668.42307692307702
 20
633.14778724083544
 42
1
  0
SEQEND
  0
POLYLINE
  8
0
 10
0
 20
0
 39
0
 70
1
 66
1
  0
VERTEX
  8
0
 10
668.42307692307702
 20
715.05928626427294
 42
1
  0
VERTEX
  8
0
 10
668.42307692307702
 20
693.05928626427294
 42
1
  0
SEQEND
  0
POLYLINE
  8
0
 10
0
 20
0
 39
0
 70
1
 66
1
  0
VERTEX
  8
0
 10
688.30769230769238
 20
10.192307692307693
 42
-0
  0
VERTEX
  8
0
 10
688.30769230769238
 20
350.19230769230768
 42
-0
  0
VERTEX
  8
0
 10
720.59068943904003
 20
440.19230769230768
 42
-0
  0
VERTEX
  8
0
 10
745.02469517634472
 20
440.19230769230768
 42
0
  0
VERTEX
  8
0
 10
777.30769230769238
 20
350.19230769230768
 42
0
  0
VERTEX
  8
0
 10
777.30769230769238
 20
10.192307692307704
 42
0
  0
SEQEND
  0
POLYLINE
  8
0
 10
0
 20
0
 39
0
 70
1
 66
1
  0
VERTEX
  8
0
 10
704.44919087336621
 20
262.82006953312799
 42
-0
  0
VERTEX
  8
0
 10
761.16619755671582
 20
262.82006953312799
 42
-0
  0
VERTEX
  8
0
 10
761.16619755671582
 20
296.82005427433893
 42
-0
  0
VERTEX
  8
0
 10
704.44919087336621
 20
296.82005427433893
 42
-0
  0
SEQEND
  0
POLYLINE
  8
0
 10
0
 20
0
 39
0
 70
1
 66
1
  0
VERTEX
  8
0
 10
732.80769230769238
 20
334.19230769230768
 42
1
  0
VERTEX
  8
0
 10
732.80769230769238
 20
366.19230769230768
 42
1
  0
SEQEND
  0
POLYLINE
  8
0
 10
0
 20
0
 39
0
 70
1
 66
1
  0
VERTEX
  8
0
 10
732.80769230769238
 20
144.5060589130108
 42
1
  0
VERTEX
  8
0
 10
732.80769230769238
 20
166.5060589130108
 42
1
  0
SEQEND
  0
POLYLINE
  8
0
 10
0
 20
0
 39
0
 70
1
 66
1
  0
VERTEX
  8
0
 10
732.80769230769238
 20
84.594559889573318
 42
1
  0
VERTEX
  8
0
 10
732.80769230769238
 20
106.59455988957332
 42
1
  0
SEQEND
  0
POLYLINE
  8
0
 10
0
 20
0
 39
0
 70
1
 66
1
  0
VERTEX
  8
0
 10
841.69230769230774
 20
789.46153846153857
 42
-0
  0
VERTEX
  8
0
 10
841.69230769230785
 20
449.46153846153857
 42
-0
  0
VERTEX
  8
0
 10
809.40931056096019
 20
359.46153846153857
 42
-0
  0
VERTEX
  8
0
 10
784.97530482365551
 20
359.46153846153857
 42
0
  0
VERTEX
  8
0
 10
752.69230769230785
 20
449.46153846153857
 42
0
  0
VERTEX
  8
0
 10
752.69230769230774
 20
789.46153846153857
 42
0
  0
SEQEND
  0
POLYLINE
  8
0
 10
0
 20
0
 39
0
 70
1
 66
1
  0
VERTEX
  8
0
 10
825.55080912663391
 20
536.83377662071825
 42
-0
  0
VERTEX
  8
0
 10
768.8338024432843
 20
536.83377662071825
 42
-0
  0
VERTEX
  8
0
 10
768.83380244328441
 20
502.83379187950732
 42
-0
  0
VERTEX
  8
0
 10
825.55080912663391
 20
502.83379187950732
 42
-0
  0
SEQEND
  0
POLYLINE
  8
0
 10
0
 20
0
 39
0
 70
1
 66
1
  0
VERTEX
  8
0
 10
797.19230769230785
 20
465.46153846153857
 42
1
  0
VERTEX
  8
0
 10
797.19230769230785
 20
433.46153846153857
 42
1
  0
SEQEND
  0
POLYLINE
  8
0
 10
0
 20
0
 39
0
 70
1
 66
1
  0
VERTEX
  8
0
 10
797.19230769230774
 20
655.14778724083544
 42
1
  0
VERTEX
  8
0
 10
797.19230769230774
 20
633.14778724083544
 42
1
  0
SEQEND
  0
POLYLINE
  8
0
 10
0
 20
0
 39
0
 70
1
 66
1
  0
VERTEX
  8
0
 10
797.19230769230774
 20
715.05928626427294
 42
1
  0
VERTEX
  8
0
 10
797.19230769230774
 20
693.05928626427294
 42
1
  0
SEQEND
  0
POLYLINE
  8
0
 10
0
 20
0
 39
0
 70
1
 66
1
  0
VERTEX
  8
0
 10
910.53846153846155
 20
260.19230769230768
 42
-0
  0
VERTEX
  8
0
 10
910.53846153846155
 20
10.192307692307693
 42
-0
  0
VERTEX
  8
0
 10
787.53846153846155
 20
10.192307692307693
 42
-0
  0
VERTEX
  8
0
 10
787.53846153846155
 20
260.19230769230768
 42
-0
  0
SEQEND
  0
POLYLINE
  8
0
 10
0
 20
0
 39
0
 70
1
 66
1
  0
VERTEX
  8
0
 10
889.03846153846155
 20
220.19230769230768
 42
0.41421356797218323
  0
VERTEX
  8
0
 10
869.03846153846155
 20
240.19230769230768
 42
-0
  0
VERTEX
  8
0
 10
829.03846153846155
 20
240.19230769230768
 42
0.41421356797218323
  0
VERTEX
  8
0
 10
809.03846153846155
 20
220.19230769230768
 42
-0
  0
VERTEX
  8
0
 10
809.03846153846155
 20
60.192307692307693
 42
0.41421356797218323
  0
VERTEX
  8
0
 10
829.03846153846155
 20
40.192307692307693
 42
0
  0
VERTEX
  8
0
 10
869.03846153846155
 20
40.192307692307693
 42
0.41421356797218323
  0
VERTEX
  8
0
 10
889.03846153846155
 20
60.192307692307693
 42
0
  0
SEQEND
  0
POLYLINE
  8
0
 10
0
 20
0
 39
0
 70
1
 66
1
  0
VERTEX
  8
0
 10
974.92307692307702
 20
520.26923076923072
 42
-0
  0
VERTEX
  8
0
 10
974.92307692307702
 20
270.26923076923077
 42
-0
  0
VERTEX
  8
0
 10
851.92307692307702
 20
270.26923076923077
 42
-0
  0
VERTEX
  8
0
 10
851.92307692307702
 20
520.26923076923072
 42
-0
  0
SEQEND
  0
POLYLINE
  8
0
 10
0
 20
0
 39
0
 70
1
 66
1
  0
VERTEX
  8
0
 10
953.42307692307702
 20
480.26923076923077
 42
0.41421356797218323
  0
VERTEX
  8
0
 10
933.42307692307702
 20
500.26923076923077
 42
-0
  0
VERTEX
  8
0
 10
893.42307692307702
 20
500.26923076923077
 42
0.41421356797218323
  0
VERTEX
  8
0
 10
873.42307692307702
 20
480.26923076923077
 42
-0
  0
VERTEX
  8
0
 10
873.42307692307702
 20
320.26923076923077
 42
0.41421356797218323
  0
VERTEX
  8
0
 10
893.42307692307702
 20
300.26923076923077
 42
0
  0
VERTEX
  8
0
 10
933.42307692307702
 20
300.26923076923077
 42
0.41421356797218323
  0
VERTEX
  8
0
 10
953.42307692307702
 20
320.26923076923077
 42
0
  0
SEQEND
  0
POLYLINE
  8
0
 10
0
 20
0
 39
0
 70
1
 66
1
  0
VERTEX
  8
0
 10
974.92307692307702
 20
780.34615384615392
 42
-0
  0
VERTEX
  8
0
 10
974.92307692307702
 20
530.34615384615392
 42
-0
  0
VERTEX
  8
0
 10
851.92307692307702
 20
530.34615384615392
 42
-0
  0
VERTEX
  8
0
 10
851.92307692307702
 20
780.34615384615392
 42
-0
  0
SEQEND
  0
POLYLINE
  8
0
 10
0
 20
0
 39
0
 70
1
 66
1
  0
VERTEX
  8
0
 10
953.42307692307702
 20
740.34615384615392
 42
0.41421356797218323
  0
VERTEX
  8
0
 10
933.42307692307702
 20
760.34615384615392
 42
-0
  0
VERTEX
  8
0
 10
893.42307692307702
 20
760.34615384615392
 42
0.41421356797218323
  0
VERTEX
  8
0
 10
873.42307692307702
 20
740.34615384615392
 42
-0
  0
VERTEX
  8
0
 10
873.42307692307702
 20
580.34615384615392
 42
0.41421356797218323
  0
VERTEX
  8
0
 10
893.42307692307702
 20
560.34615384615392
 42
0
  0
VERTEX
  8
0
 10
933.42307692307702
 20
560.34615384615392
 42
0.41421356797218323
  0
VERTEX
  8
0
 10
953.42307692307702
 20
580.34615384615392
 42
0
  0
SEQEND
  0
POLYLINE
  8
0
 10
0
 20
0
 39
0
 70
1
 66
1
  0
VERTEX
  8
0
 10
1043.6923076923076
 20
260.19230769230768
 42
-0
  0
VERTEX
  8
0
 10
1043.6923076923076
 20
10.192307692307693
 42
-0
  0
VERTEX
  8
0
 10
920.69230769230762
 20
10.192307692307693
 42
-0
  0
VERTEX
  8
0
 10
920.69230769230762
 20
260.19230769230768
 42
-0
  0
SEQEND
  0
POLYLINE
  8
0
 10
0
 20
0
 39
0
 70
1
 66
1
  0
VERTEX
  8
0
 10
1022.1923076923076
 20
220.19230769230768
 42
0.41421356797218323
  0
VERTEX
  8
0
 10
1002.1923076923076
 20
240.19230769230768
 42
-0
  0
VERTEX
  8
0
 10
962.19230769230762
 20
240.19230769230768
 42
0.41421356797218323
  0
VERTEX
  8
0
 10
942.19230769230762
 20
220.19230769230768
 42
-0
  0
VERTEX
  8
0
 10
942.19230769230762
 20
60.192307692307693
 42
0.41421356797218323
  0
VERTEX
  8
0
 10
962.19230769230762
 20
40.192307692307693
 42
0
  0
VERTEX
  8
0
 10
1002.1923076923076
 20
40.192307692307693
 42
0.41421356797218323
  0
VERTEX
  8
0
 10
1022.1923076923076
 20
60.192307692307693
 42
0
  0
SEQEND
  0
POLYLINE
  8
0
 10
0
 20
0
 39
0
 70
1
 66
1
  0
VERTEX
  8
0
 10
1085.0769230769231
 20
270.26923076923077
 42
-0
  0
VERTEX
  8
0
 10
985.07692307692309
 20
270.26923076923077
 42
-0
  0
VERTEX
  8
0
 10
985.07692307692309
 20
523.26923076923072
 42
0
  0
VERTEX
  8
0
 10
1085.0769230769231
 20
523.26923076923072
 42
0
  0
SEQEND
  0
POLYLINE
  8
0
 10
0
 20
0
 39
0
 70
1
 66
1
  0
VERTEX
  8
0
 10
1012.0769230769231
 20
396.76923076923077
 42
-0
  0
VERTEX
  8
0
 10
1058.0769230769231
 20
396.76923076923077
 42
-0
  0
VERTEX
  8
0
 10
1067.934480373676
 20
496.28218548114484
 42
-0
  0
VERTEX
  8
0
 10
1002.2193638728215
 20
496.28218548114484
 42
0
  0
SEQEND
  0
POLYLINE
  8
0
 10
0
 20
0
 39
0
 70
1
 66
1
  0
VERTEX
  8
0
 10
1085.0769230769231
 20
533.34615384615392
 42
-0
  0
VERTEX
  8
0
 10
985.07692307692309
 20
533.34615384615392
 42
-0
  0
VERTEX
  8
0
 10
985.07692307692309
 20
786.34615384615392
 42
0
  0
VERTEX
  8
0
 10
1085.0769230769231
 20
786.34615384615392
 42
0
  0
SEQEND
  0
POLYLINE
  8
0
 10
0
 20
0
 39
0
 70
1
 66
1
  0
VERTEX
  8
0
 10
1012.0769230769231
 20
659.84615384615392
 42
-0
  0
VERTEX
  8
0
 10
1058.0769230769231
 20
659.84615384615392
 42
-0
  0
VERTEX
  8
0
 10
1067.934480373676
 20
759.35910855806799
 42
-0
  0
VERTEX
  8
0
 10
1002.2193638728215
 20
759.35910855806799
 42
0
  0
SEQEND
  0
POLYLINE
  8
0
 10
0
 20
0
 39
0
 70
1
 66
1
  0
VERTEX
  8
0
 10
1192.5
 20
10.192307692307693
 42
-0
  0
VERTEX
  8
0
 10
1092.5
 20
10.192307692307693
 42
-0
  0
VERTEX
  8
0
 10
1092.5
 20
263.19230769230768
 42
0
  0
VERTEX
  8
0
 10
1192.5
 20
263.19230769230768
 42
0
  0
SEQEND
  0
POLYLINE
  8
0
 10
0
 20
0
 39
0
 70
1
 66
1
  0
VERTEX
  8
0
 10
1119.5
 20
136.69230769230768
 42
-0
  0
VERTEX
  8
0
 10
1165.5
 20
136.69230769230768
 42
-0
  0
VERTEX
  8
0
 10
1175.3575572967529
 20
236.20526240422174
 42
-0
  0
VERTEX
  8
0
 10
1109.6424407958984
 20
236.20526240422174
 42
0
  0
SEQEND
  0
POLYLINE
  8
0
 10
0
 20
0
 39
0
 70
1
 66
1
  0
VERTEX
  8
0
 10
1195.2692307692309
 20
273.26923076923077
 42
-0
  0
VERTEX
  8
0
 10
1095.2692307692309
 20
273.26923076923077
 42
-0
  0
VERTEX
  8
0
 10
1095.2692307692309
 20
526.26923076923072
 42
0
  0
VERTEX
  8
0
 10
1195.2692307692309
 20
526.26923076923072
 42
0
  0
SEQEND
  0
POLYLINE
  8
0
 10
0
 20
0
 39
0
 70
1
 66
1
  0
VERTEX
  8
0
 10
1122.2692307692309
 20
399.76923076923077
 42
-0
  0
VERTEX
  8
0
 10
1168.2692307692309
 20
399.76923076923077
 42
-0
  0
VERTEX
  8
0
 10
1178.1267880659839
 20
499.28218548114484
 42
-0
  0
VERTEX
  8
0
 10
1112.4116715651294
 20
499.28218548114484
 42
0
  0
SEQEND
  0
POLYLINE
  8
0
 10
0
 20
0
 39
0
 70
1
 66
1
  0
VERTEX
  8
0
 10
1195.2692307692309
 20
536.34615384615392
 42
-0
  0
VERTEX
  8
0
 10
1095.2692307692309
 20
536.34615384615392
 42
-0
  0
VERTEX
  8
0
 10
1095.2692307692309
 20
789.34615384615392
 42
0
  0
VERTEX
  8
0
 10
1195.2692307692309
 20
789.34615384615392
 42
0
  0
SEQEND
  0
POLYLINE
  8
0
 10
0
 20
0
 39
0
 70
1
 66
1
  0
VERTEX
  8
0
 10
1122.2692307692309
 20
662.84615384615392
 42
-0
  0
VERTEX
  8
0
 10
1168.2692307692309
 20
662.84615384615392
 42
-0
  0
VERTEX
  8
0
 10
1178.1267880659839
 20
762.35910855806799
 42
-0
  0
VERTEX
  8
0
 10
1112.4116715651294
 20
762.35910855806799
 42
0
  0
SEQEND
  0
POLYLINE
  8
0
 10
0
 20
0
 39
0
 70
1
 66
1
  0
VERTEX
  8
0
 10
1302.6923076923078
 20
10.192307692307693
 42
-0
  0
VERTEX
  8
0
 10
1202.6923076923078
 20
10.192307692307693
 42
-0
  0
VERTEX
  8
0
 10
1202.6923076923078
 20
263.19230769230768
 42
0
  0
VERTEX
  8
0
 10
1302.6923076923078
 20
263.19230769230768
 42
0
  0
SEQEND
  0
POLYLINE
  8
0
 10
0
 20
0
 39
0
 70
1
 66
1
  0
VERTEX
  8
0
 10
1229.6923076923078
 20
136.69230769230768
 42
-0
  0
VERTEX
  8
0
 10
1275.6923076923078
 20
136.69230769230768
 42
-0
  0
VERTEX
  8
0
 10
1285.5498649890608
 20
236.20526240422174
 42
-0
  0
VERTEX
  8
0
 10
1219.8347484882063
 20
236.20526240422174
 42
0
  0
SEQEND
  0
POLYLINE
  8
0
 10
0
 20
0
 39
0
 70
1
 66
1
  0
VERTEX
  8
0
 10
1305.4615384615386
 20
273.26923076923077
 42
-0
  0
VERTEX
  8
0
 10
1205.4615384615386
 20
273.26923076923077
 42
-0
  0
VERTEX
  8
0
 10
1205.4615384615386
 20
526.26923076923072
 42
0
  0
VERTEX
  8
0
 10
1305.4615384615386
 20
526.26923076923072
 42
0
  0
SEQEND
  0
POLYLINE
  8
0
 10
0
 20
0
 39
0
 70
1
 66
1
  0
VERTEX
  8
0
 10
1232.4615384615386
 20
399.76923076923077
 42
-0
  0
VERTEX
  8
0
 10
1278.4615384615386
 20
399.76923076923077
 42
-0
  0
VERTEX
  8
0
 10
1288.3190957582915
 20
499.28218548114484
 42
-0
  0
VERTEX
  8
0
 10
1222.603979257437
 20
499.28218548114484
 42
0
  0
SEQEND
  0
POLYLINE
  8
0
 10
0
 20
0
 39
0
 70
1
 66
1
  0
VERTEX
  8
0
 10
1305.4615384615386
 20
536.34615384615392
 42
-0
  0
VERTEX
  8
0
 10
1205.4615384615386
 20
536.34615384615392
 42
-0
  0
VERTEX
  8
0
 10
1205.4615384615386
 20
789.34615384615392
 42
0
  0
VERTEX
  8
0
 10
1305.4615384615386
 20
789.34615384615392
 42
0
  0
SEQEND
  0
POLYLINE
  8
0
 10
0
 20
0
 39
0
 70
1
 66
1
  0
VERTEX
  8
0
 10
1232.4615384615386
 20
662.84615384615392
 42
-0
  0
VERTEX
  8
0
 10
1278.4615384615386
 20
662.84615384615392
 42
-0
  0
VERTEX
  8
0
 10
1288.3190957582915
 20
762.35910855806799
 42
-0
  0
VERTEX
  8
0
 10
1222.603979257437
 20
762.35910855806799
 42
0
  0
SEQEND
  0
POLYLINE
  8
0
 10
0
 20
0
 39
0
 70
1
 66
1
  0
VERTEX
  8
0
 10
1312.8846153846155
 20
164.45730769230764
 42
-0
  0
VERTEX
  8
0
 10
1452.8846153846155
 20
164.45730769230764
 42
-0
  0
VERTEX
  8
0
 10
1452.8846153846155
 20
24.457307692307637
 42
-0
  0
SEQEND
  0
POLYLINE
  8
0
 10
0
 20
0
 39
0
 70
1
 66
1
  0
VERTEX
  8
0
 10
1452.8846153846155
 20
10.192307692307708
 42
-0
  0
VERTEX
  8
0
 10
1312.8846153846155
 20
10.192307692307736
 42
-0
  0
VERTEX
  8
0
 10
1312.8846153846155
 20
150.19230769230774
 42
-0
  0
SEQEND
  0
POLYLINE
  8
0
 10
0
 20
0
 39
0
 70
1
 66
1
  0
VERTEX
  8
0
 10
1315.6538461538462
 20
328.76499999999993
 42
-0
  0
VERTEX
  8
0
 10
1455.6538461538462
 20
328.76499999999993
 42
-0
  0
VERTEX
  8
0
 10
1455.6538461538462
 20
188.76499999999993
 42
-0
  0
SEQEND
  0
POLYLINE
  8
0
 10
0
 20
0
 39
0
 70
1
 66
1
  0
VERTEX
  8
0
 10
1455.6538461538462
 20
174.49999999999997
 42
-0
  0
VERTEX
  8
0
 10
1315.6538461538462
 20
174.5
 42
-0
  0
VERTEX
  8
0
 10
1315.6538461538462
 20
314.5
 42
-0
  0
SEQEND
  0
POLYLINE
  8
0
 10
0
 20
0
 39
0
 70
1
 66
1
  0
VERTEX
  8
0
 10
1315.6538461538462
 20
493.07269230769225
 42
-0
  0
VERTEX
  8
0
 10
1455.6538461538462
 20
493.07269230769225
 42
-0
  0
VERTEX
  8
0
 10
1455.6538461538462
 20
353.07269230769225
 42
-0
  0
SEQEND
  0
POLYLINE
  8
0
 10
0
 20
0
 39
0
 70
1
 66
1
  0
VERTEX
  8
0
 10
1455.6538461538462
 20
338.80769230769226
 42
-0
  0
VERTEX
  8
0
 10
1315.6538461538462
 20
338.80769230769232
 42
-0
  0
VERTEX
  8
0
 10
1315.6538461538462
 20
478.80769230769232
 42
-0
  0
SEQEND
  0
POLYLINE
  8
0
 10
0
 20
0
 39
0
 70
1
 66
1
  0
VERTEX
  8
0
 10
1315.6538461538462
 20
657.38038461538463
 42
-0
  0
VERTEX
  8
0
 10
1455.6538461538462
 20
657.38038461538463
 42
-0
  0
VERTEX
  8
0
 10
1455.6538461538462
 20
517.38038461538463
 42
-0
  0
SEQEND
  0
POLYLINE
  8
0
 10
0
 20
0
 39
0
 70
1
 66
1
  0
VERTEX
  8
0
 10
1455.6538461538462
 20
503.11538461538476
 42
-0
  0
VERTEX
  8
0
 10
1315.6538461538462
 20
503.11538461538476
 42
-0
  0
VERTEX
  8
0
 10
1315.6538461538462
 20
643.11538461538476
 42
-0
  0
SEQEND
  0
POLYLINE
  8
0
 10
0
 20
0
 39
0
 70
1
 66
1
  0
VERTEX
  8
0
 10
1337.9230769230769
 20
789.65384615384619
 42
-0
  0
VERTEX
  8
0
 10
1477.9230769230769
 20
789.65384615384619
 42
-0
  0
VERTEX
  8
0
 10
1477.9230769230769
 20
649.65384615384619
 42
-0
  0
SEQEND
  0
POLYLINE
  8
0
 10
0
 20
0
 39
0
 70
1
 66
1
  0
VERTEX
  8
0
 10
430.76923076923077
 20
605.26923076923072
 42
0
  0
VERTEX
  8
0
 10
480.76923076923077
 20
605.26923076923072
 42
0
  0
VERTEX
  8
0
 10
480.76923076923077
 20
450.26923076923077
 42
0
  0
VERTEX
  8
0
 10
430.76923076923077
 20
450.26923076923077
 42
0
  0
SEQEND
  0
POLYLINE
  8
0
 10
0
 20
0
 39
0
 70
1
 66
1
  0
VERTEX
  8
0
 10
455.76923076923077
 20
470.26923076923077
 42
1
  0
VERTEX
  8
0
 10
455.76923076923077
 20
490.26923076923077
 42
1
  0
SEQEND
  0
POLYLINE
  8
0
 10
0
 20
0
 39
0
 70
1
 66
1
  0
VERTEX
  8
0
 10
455.76923076923077
 20
585.26923076923072
 42
1
  0
VERTEX
  8
0
 10
455.76923076923077
 20
565.26923076923072
 42
1
  0
SEQEND
  0
POLYLINE
  8
0
 10
0
 20
0
 39
0
 70
1
 66
1
  0
VERTEX
  8
0
 10
430.76923076923077
 20
770.38461538461547
 42
0
  0
VERTEX
  8
0
 10
480.76923076923077
 20
770.38461538461547
 42
0
  0
VERTEX
  8
0
 10
480.76923076923077
 20
615.38461538461547
 42
0
  0
VERTEX
  8
0
 10
430.76923076923077
 20
615.38461538461547
 42
0
  0
SEQEND
  0
POLYLINE
  8
0
 10
0
 20
0
 39
0
 70
1
 66
1
  0
VERTEX
  8
0
 10
455.76923076923077
 20
635.38461538461547
 42
1
  0
VERTEX
  8
0
 10
455.76923076923077
 20
655.38461538461547
 42
1
  0
SEQEND
  0
POLYLINE
  8
0
 10
0
 20
0
 39
0
 70
1
 66
1
  0
VERTEX
  8
0
 10
455.76923076923077
 20
750.38461538461547
 42
1
  0
VERTEX
  8
0
 10
455.76923076923077
 20
730.38461538461547
 42
1
  0
SEQEND
  0
POLYLINE
  8
0
 10
0
 20
0
 39
0
 70
1
 66
1
  0
VERTEX
  8
0
 10
819.26923076923083
 20
214.92307692307693
 42
0
  0
VERTEX
  8
0
 10
869.26923076923083
 20
214.92307692307693
 42
0
  0
VERTEX
  8
0
 10
869.26923076923083
 20
59.923076923076927
 42
0
  0
VERTEX
  8
0
 10
819.26923076923083
 20
59.923076923076927
 42
0
  0
SEQEND
  0
POLYLINE
  8
0
 10
0
 20
0
 39
0
 70
1
 66
1
  0
VERTEX
  8
0
 10
844.26923076923083
 20
79.923076923076934
 42
1
  0
VERTEX
  8
0
 10
844.26923076923083
 20
99.923076923076934
 42
1
  0
SEQEND
  0
POLYLINE
  8
0
 10
0
 20
0
 39
0
 70
1
 66
1
  0
VERTEX
  8
0
 10
844.26923076923083
 20
194.92307692307693
 42
1
  0
VERTEX
  8
0
 10
844.26923076923083
 20
174.92307692307693
 42
1
  0
SEQEND
  0
POLYLINE
  8
0
 10
0
 20
0
 39
0
 70
1
 66
1
  0
VERTEX
  8
0
 10
883.65384615384619
 20
475
 42
0
  0
VERTEX
  8
0
 10
933.65384615384619
 20
475
 42
0
  0
VERTEX
  8
0
 10
933.65384615384619
 20
320
 42
0
  0
VERTEX
  8
0
 10
883.65384615384619
 20
320
 42
0
  0
SEQEND
  0
POLYLINE
  8
0
 10
0
 20
0
 39
0
 70
1
 66
1
  0
VERTEX
  8
0
 10
908.65384615384619
 20
340
 42
1
  0
VERTEX
  8
0
 10
908.65384615384619
 20
360
 42
1
  0
SEQEND
  0
POLYLINE
  8
0
 10
0
 20
0
 39
0
 70
1
 66
1
  0
VERTEX
  8
0
 10
908.65384615384619
 20
455
 42
1
  0
VERTEX
  8
0
 10
908.65384615384619
 20
435
 42
1
  0
SEQEND
  0
POLYLINE
  8
0
 10
0
 20
0
 39
0
 70
1
 66
1
  0
VERTEX
  8
0
 10
191.34615384615387
 20
749.69230769230774
 42
-0
  0
VERTEX
  8
0
 10
86.346153846153868
 20
749.69230769230774
 42
-0
  0
VERTEX
  8
0
 10
86.346153846153868
 20
789.69230769230774
 42
0
  0
VERTEX
  8
0
 10
191.34615384615387
 20
789.69230769230774
 42
0
  0
SEQEND
  0
POLYLINE
  8
0
 10
0
 20
0
 39
0
 70
1
 66
1
  0
VERTEX
  8
0
 10
174.74978505648102
 20
779.69230769230774
 42
0
  0
VERTEX
  8
0
 10
138.84615384615387
 20
779.69230769230774
 42
1
  0
VERTEX
  8
0
 10
138.84615384615387
 20
759.69230769230774
 42
0
  0
VERTEX
  8
0
 10
174.74978505648102
 20
759.69230769230774
 42
0
  0
SEQEND
  0
POLYLINE
  8
0
 10
0
 20
0
 39
0
 70
1
 66
1
  0
VERTEX
  8
0
 10
331.53846153846155
 20
749.69230769230774
 42
-0
  0
VERTEX
  8
0
 10
226.53846153846155
 20
749.69230769230774
 42
-0
  0
VERTEX
  8
0
 10
226.53846153846155
 20
789.69230769230774
 42
0
  0
VERTEX
  8
0
 10
331.53846153846155
 20
789.69230769230774
 42
0
  0
SEQEND
  0
POLYLINE
  8
0
 10
0
 20
0
 39
0
 70
1
 66
1
  0
VERTEX
  8
0
 10
314.9420927487887
 20
779.69230769230774
 42
0
  0
VERTEX
  8
0
 10
279.03846153846155
 20
779.69230769230774
 42
1
  0
VERTEX
  8
0
 10
279.03846153846155
 20
759.69230769230774
 42
0
  0
VERTEX
  8
0
 10
314.9420927487887
 20
759.69230769230774
 42
0
  0
SEQEND
  0
POLYLINE
  8
0
 10
0
 20
0
 39
0
 70
1
 66
1
  0
VERTEX
  8
0
 10
883.65384615384619
 20
580.07692307692309
 42
-0
  0
VERTEX
  8
0
 10
883.65384615384619
 20
685.07692307692309
 42
-0
  0
VERTEX
  8
0
 10
923.65384615384619
 20
685.07692307692309
 42
0
  0
VERTEX
  8
0
 10
923.65384615384619
 20
580.07692307692309
 42
0
  0
SEQEND
  0
POLYLINE
  8
0
 10
0
 20
0
 39
0
 70
1
 66
1
  0
VERTEX
  8
0
 10
913.65384615384619
 20
596.67329186659595
 42
0
  0
VERTEX
  8
0
 10
913.65384615384619
 20
632.57692307692309
 42
1
  0
VERTEX
  8
0
 10
893.65384615384619
 20
632.57692307692309
 42
0
  0
VERTEX
  8
0
 10
893.65384615384619
 20
596.67329186659595
 42
0
  0
SEQEND
  0
POLYLINE
  8
0
 10
0
 20
0
 39
0
 70
1
 66
1
  0
VERTEX
  8
0
 10
952.42307692307702
 20
59.923076923076927
 42
-0
  0
VERTEX
  8
0
 10
952.42307692307702
 20
164.92307692307693
 42
-0
  0
VERTEX
  8
0
 10
992.42307692307702
 20
164.92307692307693
 42
0
  0
VERTEX
  8
0
 10
992.42307692307702
 20
59.923076923076934
 42
0
  0
SEQEND
  0
POLYLINE
  8
0
 10
0
 20
0
 39
0
 70
1
 66
1
  0
VERTEX
  8
0
 10
982.42307692307702
 20
76.519445712749786
 42
0
  0
VERTEX
  8
0
 10
982.42307692307702
 20
112.42307692307693
 42
1
  0
VERTEX
  8
0
 10
962.42307692307702
 20
112.42307692307693
 42
0
  0
VERTEX
  8
0
 10
962.42307692307702
 20
76.519445712749786
 42
0
  0
SEQEND
  0
ENDSEC
  0
EOF
