  0
SECTION
  2
ENTITIES
  0
POLYLINE
  8
0
 10
0
 20
0
 39
0
 70
1
 66
1
  0
VERTEX
  8
0
 10
0
 20
0
 42
-0
  0
VERTEX
  8
0
 10
1950
 20
0
 42
-0
  0
VERTEX
  8
0
 10
1950
 20
1000
 42
-0
  0
VERTEX
  8
0
 10
0
 20
1000
 42
-0
  0
SEQEND
  0
POLYLINE
  8
0
 10
0
 20
0
 39
0
 70
1
 66
1
  0
VERTEX
  8
0
 10
416.1402587890625
 20
10.25
 42
-0
  0
VERTEX
  8
0
 10
416.1402587890625
 20
437.25
 42
-0
  0
VERTEX
  8
0
 10
138.14022827148437
 20
437.25
 42
-0
  0
VERTEX
  8
0
 10
94.460968017578125
 20
402.2054443359375
 42
-0
  0
VERTEX
  8
0
 10
42.25
 20
437.25
 42
-0
  0
VERTEX
  8
0
 10
10.25
 20
437.25
 42
-0
  0
VERTEX
  8
0
 10
10.25
 20
10.25
 42
-0
  0
SEQEND
  0
POLYLINE
  8
0
 10
0
 20
0
 39
0
 70
1
 66
1
  0
VERTEX
  8
0
 10
389.631591796875
 20
419.72772216796875
 42
0
  0
VERTEX
  8
0
 10
389.631591796875
 20
134.47714233398437
 42
0
  0
VERTEX
  8
0
 10
42.25
 20
134.47714233398437
 42
0
  0
VERTEX
  8
0
 10
42.25
 20
366.47714233398437
 42
0
  0
VERTEX
  8
0
 10
94.460968017578125
 20
366.47714233398437
 42
-0
  0
VERTEX
  8
0
 10
160.83212280273437
 20
419.72772216796875
 42
0
  0
SEQEND
  0
POLYLINE
  8
0
 10
0
 20
0
 39
0
 70
1
 66
1
  0
VERTEX
  8
0
 10
416.1402587890625
 20
447.35000610351562
 42
-0
  0
VERTEX
  8
0
 10
416.1402587890625
 20
874.3499755859375
 42
-0
  0
VERTEX
  8
0
 10
138.14022827148437
 20
874.3499755859375
 42
-0
  0
VERTEX
  8
0
 10
94.460968017578125
 20
839.305419921875
 42
-0
  0
VERTEX
  8
0
 10
42.25
 20
874.3499755859375
 42
-0
  0
VERTEX
  8
0
 10
10.25
 20
874.3499755859375
 42
-0
  0
VERTEX
  8
0
 10
10.25
 20
447.35000610351562
 42
-0
  0
SEQEND
  0
POLYLINE
  8
0
 10
0
 20
0
 39
0
 70
1
 66
1
  0
VERTEX
  8
0
 10
389.631591796875
 20
856.82769775390625
 42
0
  0
VERTEX
  8
0
 10
389.631591796875
 20
571.5771484375
 42
0
  0
VERTEX
  8
0
 10
42.25
 20
571.5771484375
 42
0
  0
VERTEX
  8
0
 10
42.25
 20
803.5771484375
 42
0
  0
VERTEX
  8
0
 10
94.460968017578125
 20
803.5771484375
 42
-0
  0
VERTEX
  8
0
 10
160.83212280273437
 20
856.82769775390625
 42
0
  0
SEQEND
  0
POLYLINE
  8
0
 10
0
 20
0
 39
0
 70
1
 66
1
  0
VERTEX
  8
0
 10
832.240234375
 20
10.25
 42
-0
  0
VERTEX
  8
0
 10
832.240234375
 20
437.25
 42
-0
  0
VERTEX
  8
0
 10
554.240234375
 20
437.25
 42
-0
  0
VERTEX
  8
0
 10
510.56097412109375
 20
402.2054443359375
 42
-0
  0
VERTEX
  8
0
 10
458.35000610351562
 20
437.25
 42
-0
  0
VERTEX
  8
0
 10
426.35000610351562
 20
437.25
 42
-0
  0
VERTEX
  8
0
 10
426.35000610351562
 20
10.25
 42
-0
  0
SEQEND
  0
POLYLINE
  8
0
 10
0
 20
0
 39
0
 70
1
 66
1
  0
VERTEX
  8
0
 10
805.7315673828125
 20
419.72772216796875
 42
0
  0
VERTEX
  8
0
 10
805.7315673828125
 20
134.47714233398437
 42
0
  0
VERTEX
  8
0
 10
458.35000610351562
 20
134.47714233398437
 42
0
  0
VERTEX
  8
0
 10
458.35000610351562
 20
366.47714233398437
 42
0
  0
VERTEX
  8
0
 10
510.56097412109375
 20
366.47714233398437
 42
-0
  0
VERTEX
  8
0
 10
576.93212890625
 20
419.72772216796875
 42
0
  0
SEQEND
  0
POLYLINE
  8
0
 10
0
 20
0
 39
0
 70
1
 66
1
  0
VERTEX
  8
0
 10
832.240234375
 20
447.35000610351562
 42
-0
  0
VERTEX
  8
0
 10
832.240234375
 20
874.3499755859375
 42
-0
  0
VERTEX
  8
0
 10
554.240234375
 20
874.3499755859375
 42
-0
  0
VERTEX
  8
0
 10
510.56097412109375
 20
839.305419921875
 42
-0
  0
VERTEX
  8
0
 10
458.35000610351562
 20
874.3499755859375
 42
-0
  0
VERTEX
  8
0
 10
426.35000610351562
 20
874.3499755859375
 42
-0
  0
VERTEX
  8
0
 10
426.35000610351562
 20
447.35000610351562
 42
-0
  0
SEQEND
  0
POLYLINE
  8
0
 10
0
 20
0
 39
0
 70
1
 66
1
  0
VERTEX
  8
0
 10
805.7315673828125
 20
856.82769775390625
 42
0
  0
VERTEX
  8
0
 10
805.7315673828125
 20
571.5771484375
 42
0
  0
VERTEX
  8
0
 10
458.35000610351562
 20
571.5771484375
 42
0
  0
VERTEX
  8
0
 10
458.35000610351562
 20
803.5771484375
 42
0
  0
VERTEX
  8
0
 10
510.56097412109375
 20
803.5771484375
 42
-0
  0
VERTEX
  8
0
 10
576.93212890625
 20
856.82769775390625
 42
0
  0
SEQEND
  0
POLYLINE
  8
0
 10
0
 20
0
 39
0
 70
1
 66
1
  0
VERTEX
  8
0
 10
1248.3402099609375
 20
10.25
 42
-0
  0
VERTEX
  8
0
 10
1248.3402099609375
 20
437.25
 42
-0
  0
VERTEX
  8
0
 10
970.3402099609375
 20
437.25
 42
-0
  0
VERTEX
  8
0
 10
926.66094970703125
 20
402.2054443359375
 42
-0
  0
VERTEX
  8
0
 10
874.45001220703125
 20
437.25
 42
-0
  0
VERTEX
  8
0
 10
842.45001220703125
 20
437.25
 42
-0
  0
VERTEX
  8
0
 10
842.45001220703125
 20
10.25
 42
-0
  0
SEQEND
  0
POLYLINE
  8
0
 10
0
 20
0
 39
0
 70
1
 66
1
  0
VERTEX
  8
0
 10
1221.83154296875
 20
419.72772216796875
 42
0
  0
VERTEX
  8
0
 10
1221.83154296875
 20
134.47714233398437
 42
0
  0
VERTEX
  8
0
 10
874.45001220703125
 20
134.47714233398437
 42
0
  0
VERTEX
  8
0
 10
874.45001220703125
 20
366.47714233398437
 42
0
  0
VERTEX
  8
0
 10
926.66094970703125
 20
366.47714233398437
 42
-0
  0
VERTEX
  8
0
 10
993.0321044921875
 20
419.72772216796875
 42
0
  0
SEQEND
  0
POLYLINE
  8
0
 10
0
 20
0
 39
0
 70
1
 66
1
  0
VERTEX
  8
0
 10
1248.3402099609375
 20
447.35000610351562
 42
-0
  0
VERTEX
  8
0
 10
1248.3402099609375
 20
874.3499755859375
 42
-0
  0
VERTEX
  8
0
 10
970.3402099609375
 20
874.3499755859375
 42
-0
  0
VERTEX
  8
0
 10
926.66094970703125
 20
839.305419921875
 42
-0
  0
VERTEX
  8
0
 10
874.45001220703125
 20
874.3499755859375
 42
-0
  0
VERTEX
  8
0
 10
842.45001220703125
 20
874.3499755859375
 42
-0
  0
VERTEX
  8
0
 10
842.45001220703125
 20
447.35000610351562
 42
-0
  0
SEQEND
  0
POLYLINE
  8
0
 10
0
 20
0
 39
0
 70
1
 66
1
  0
VERTEX
  8
0
 10
1221.83154296875
 20
856.82769775390625
 42
0
  0
VERTEX
  8
0
 10
1221.83154296875
 20
571.5771484375
 42
0
  0
VERTEX
  8
0
 10
874.45001220703125
 20
571.5771484375
 42
0
  0
VERTEX
  8
0
 10
874.45001220703125
 20
803.5771484375
 42
0
  0
VERTEX
  8
0
 10
926.66094970703125
 20
803.5771484375
 42
-0
  0
VERTEX
  8
0
 10
993.0321044921875
 20
856.82769775390625
 42
0
  0
SEQEND
  0
POLYLINE
  8
0
 10
0
 20
0
 39
0
 70
1
 66
1
  0
VERTEX
  8
0
 10
1664.440185546875
 20
10.25
 42
-0
  0
VERTEX
  8
0
 10
1664.440185546875
 20
437.25
 42
-0
  0
VERTEX
  8
0
 10
1386.440185546875
 20
437.25
 42
-0
  0
VERTEX
  8
0
 10
1342.760986328125
 20
402.2054443359375
 42
-0
  0
VERTEX
  8
0
 10
1290.550048828125
 20
437.25
 42
-0
  0
VERTEX
  8
0
 10
1258.550048828125
 20
437.25
 42
-0
  0
VERTEX
  8
0
 10
1258.550048828125
 20
10.25
 42
-0
  0
SEQEND
  0
POLYLINE
  8
0
 10
0
 20
0
 39
0
 70
1
 66
1
  0
VERTEX
  8
0
 10
1637.931640625
 20
419.72772216796875
 42
0
  0
VERTEX
  8
0
 10
1637.931640625
 20
134.47714233398437
 42
0
  0
VERTEX
  8
0
 10
1290.550048828125
 20
134.47714233398437
 42
0
  0
VERTEX
  8
0
 10
1290.550048828125
 20
366.47714233398437
 42
0
  0
VERTEX
  8
0
 10
1342.760986328125
 20
366.47714233398437
 42
-0
  0
VERTEX
  8
0
 10
1409.132080078125
 20
419.72772216796875
 42
0
  0
SEQEND
  0
POLYLINE
  8
0
 10
0
 20
0
 39
0
 70
1
 66
1
  0
VERTEX
  8
0
 10
1664.440185546875
 20
447.35000610351562
 42
-0
  0
VERTEX
  8
0
 10
1664.440185546875
 20
874.3499755859375
 42
-0
  0
VERTEX
  8
0
 10
1386.440185546875
 20
874.3499755859375
 42
-0
  0
VERTEX
  8
0
 10
1342.760986328125
 20
839.305419921875
 42
-0
  0
VERTEX
  8
0
 10
1290.550048828125
 20
874.3499755859375
 42
-0
  0
VERTEX
  8
0
 10
1258.550048828125
 20
874.3499755859375
 42
-0
  0
VERTEX
  8
0
 10
1258.550048828125
 20
447.35000610351562
 42
-0
  0
SEQEND
  0
POLYLINE
  8
0
 10
0
 20
0
 39
0
 70
1
 66
1
  0
VERTEX
  8
0
 10
1637.931640625
 20
856.82769775390625
 42
0
  0
VERTEX
  8
0
 10
1637.931640625
 20
571.5771484375
 42
0
  0
VERTEX
  8
0
 10
1290.550048828125
 20
571.5771484375
 42
0
  0
VERTEX
  8
0
 10
1290.550048828125
 20
803.5771484375
 42
0
  0
VERTEX
  8
0
 10
1342.760986328125
 20
803.5771484375
 42
-0
  0
VERTEX
  8
0
 10
1409.132080078125
 20
856.82769775390625
 42
0
  0
SEQEND
  0
POLYLINE
  8
0
 10
0
 20
0
 39
0
 70
1
 66
1
  0
VERTEX
  8
0
 10
356.55001831054688
 20
144.64999389648437
 42
-0
  0
VERTEX
  8
0
 10
356.55001831054688
 20
386.6500244140625
 42
-0
  0
VERTEX
  8
0
 10
159.23109436035156
 20
386.6500244140625
 42
0
  0
VERTEX
  8
0
 10
52.549999237060547
 20
292.6500244140625
 42
0
  0
VERTEX
  8
0
 10
52.549999237060547
 20
144.64999389648437
 42
0
  0
SEQEND
  0
POLYLINE
  8
0
 10
0
 20
0
 39
0
 70
1
 66
1
  0
VERTEX
  8
0
 10
326.242919921875
 20
265.6500244140625
 42
-1
  0
VERTEX
  8
0
 10
106.24290466308594
 20
265.6500244140625
 42
-1
  0
SEQEND
  0
POLYLINE
  8
0
 10
0
 20
0
 39
0
 70
1
 66
1
  0
VERTEX
  8
0
 10
356.55001831054688
 20
581.75
 42
-0
  0
VERTEX
  8
0
 10
356.55001831054688
 20
823.75
 42
-0
  0
VERTEX
  8
0
 10
159.23109436035156
 20
823.75
 42
0
  0
VERTEX
  8
0
 10
52.549999237060547
 20
729.75
 42
0
  0
VERTEX
  8
0
 10
52.549999237060547
 20
581.75
 42
0
  0
SEQEND
  0
POLYLINE
  8
0
 10
0
 20
0
 39
0
 70
1
 66
1
  0
VERTEX
  8
0
 10
326.242919921875
 20
702.75
 42
-1
  0
VERTEX
  8
0
 10
106.24290466308594
 20
702.75
 42
-1
  0
SEQEND
  0
POLYLINE
  8
0
 10
0
 20
0
 39
0
 70
1
 66
1
  0
VERTEX
  8
0
 10
772.6500244140625
 20
144.64999389648437
 42
-0
  0
VERTEX
  8
0
 10
772.6500244140625
 20
386.6500244140625
 42
-0
  0
VERTEX
  8
0
 10
575.33111572265625
 20
386.6500244140625
 42
0
  0
VERTEX
  8
0
 10
468.64999389648437
 20
292.6500244140625
 42
0
  0
VERTEX
  8
0
 10
468.64999389648437
 20
144.64999389648437
 42
0
  0
SEQEND
  0
POLYLINE
  8
0
 10
0
 20
0
 39
0
 70
1
 66
1
  0
VERTEX
  8
0
 10
742.3428955078125
 20
265.6500244140625
 42
-1
  0
VERTEX
  8
0
 10
522.3428955078125
 20
265.6500244140625
 42
-1
  0
SEQEND
  0
POLYLINE
  8
0
 10
0
 20
0
 39
0
 70
1
 66
1
  0
VERTEX
  8
0
 10
772.6500244140625
 20
581.75
 42
-0
  0
VERTEX
  8
0
 10
772.6500244140625
 20
823.75
 42
-0
  0
VERTEX
  8
0
 10
575.33111572265625
 20
823.75
 42
0
  0
VERTEX
  8
0
 10
468.64999389648437
 20
729.75
 42
0
  0
VERTEX
  8
0
 10
468.64999389648437
 20
581.75
 42
0
  0
SEQEND
  0
POLYLINE
  8
0
 10
0
 20
0
 39
0
 70
1
 66
1
  0
VERTEX
  8
0
 10
742.3428955078125
 20
702.75
 42
-1
  0
VERTEX
  8
0
 10
522.3428955078125
 20
702.75
 42
-1
  0
SEQEND
  0
POLYLINE
  8
0
 10
0
 20
0
 39
0
 70
1
 66
1
  0
VERTEX
  8
0
 10
1188.75
 20
144.64999389648437
 42
-0
  0
VERTEX
  8
0
 10
1188.75
 20
386.6500244140625
 42
-0
  0
VERTEX
  8
0
 10
991.43109130859375
 20
386.6500244140625
 42
0
  0
VERTEX
  8
0
 10
884.75
 20
292.6500244140625
 42
0
  0
VERTEX
  8
0
 10
884.75
 20
144.64999389648437
 42
0
  0
SEQEND
  0
POLYLINE
  8
0
 10
0
 20
0
 39
0
 70
1
 66
1
  0
VERTEX
  8
0
 10
1158.44287109375
 20
265.6500244140625
 42
-1
  0
VERTEX
  8
0
 10
938.44287109375
 20
265.6500244140625
 42
-1
  0
SEQEND
  0
POLYLINE
  8
0
 10
0
 20
0
 39
0
 70
1
 66
1
  0
VERTEX
  8
0
 10
1188.75
 20
581.75
 42
-0
  0
VERTEX
  8
0
 10
1188.75
 20
823.75
 42
-0
  0
VERTEX
  8
0
 10
991.43109130859375
 20
823.75
 42
0
  0
VERTEX
  8
0
 10
884.75
 20
729.75
 42
0
  0
VERTEX
  8
0
 10
884.75
 20
581.75
 42
0
  0
SEQEND
  0
POLYLINE
  8
0
 10
0
 20
0
 39
0
 70
1
 66
1
  0
VERTEX
  8
0
 10
1158.44287109375
 20
702.75
 42
-1
  0
VERTEX
  8
0
 10
938.44287109375
 20
702.75
 42
-1
  0
SEQEND
  0
POLYLINE
  8
0
 10
0
 20
0
 39
0
 70
1
 66
1
  0
VERTEX
  8
0
 10
1604.8499755859375
 20
144.64999389648437
 42
-0
  0
VERTEX
  8
0
 10
1604.8499755859375
 20
386.6500244140625
 42
-0
  0
VERTEX
  8
0
 10
1407.5311279296875
 20
386.6500244140625
 42
0
  0
VERTEX
  8
0
 10
1300.8499755859375
 20
292.6500244140625
 42
0
  0
VERTEX
  8
0
 10
1300.8499755859375
 20
144.64999389648437
 42
0
  0
SEQEND
  0
POLYLINE
  8
0
 10
0
 20
0
 39
0
 70
1
 66
1
  0
VERTEX
  8
0
 10
1574.54296875
 20
265.6500244140625
 42
-1
  0
VERTEX
  8
0
 10
1354.5428466796875
 20
265.6500244140625
 42
-1
  0
SEQEND
  0
POLYLINE
  8
0
 10
0
 20
0
 39
0
 70
1
 66
1
  0
VERTEX
  8
0
 10
1604.8499755859375
 20
581.75
 42
-0
  0
VERTEX
  8
0
 10
1604.8499755859375
 20
823.75
 42
-0
  0
VERTEX
  8
0
 10
1407.5311279296875
 20
823.75
 42
0
  0
VERTEX
  8
0
 10
1300.8499755859375
 20
729.75
 42
0
  0
VERTEX
  8
0
 10
1300.8499755859375
 20
581.75
 42
0
  0
SEQEND
  0
POLYLINE
  8
0
 10
0
 20
0
 39
0
 70
1
 66
1
  0
VERTEX
  8
0
 10
1574.54296875
 20
702.75
 42
-1
  0
VERTEX
  8
0
 10
1354.5428466796875
 20
702.75
 42
-1
  0
SEQEND
  0
POLYLINE
  8
0
 10
0
 20
0
 39
0
 70
1
 66
1
  0
VERTEX
  8
0
 10
1674.6500244140625
 20
10.25
 42
-0
  0
VERTEX
  8
0
 10
1916.6500244140625
 20
10.25
 42
-0
  0
VERTEX
  8
0
 10
1916.6500244140625
 20
207.56890869140625
 42
0
  0
VERTEX
  8
0
 10
1822.6500244140625
 20
314.25
 42
0
  0
VERTEX
  8
0
 10
1674.6500244140625
 20
314.25
 42
0
  0
SEQEND
  0
POLYLINE
  8
0
 10
0
 20
0
 39
0
 70
1
 66
1
  0
VERTEX
  8
0
 10
1795.6500244140625
 20
40.557098388671875
 42
-1
  0
VERTEX
  8
0
 10
1795.6500244140625
 20
260.55709838867187
 42
-1
  0
SEQEND
  0
POLYLINE
  8
0
 10
0
 20
0
 39
0
 70
1
 66
1
  0
VERTEX
  8
0
 10
1674.6500244140625
 20
324.35000610351562
 42
-0
  0
VERTEX
  8
0
 10
1916.6500244140625
 20
324.35000610351562
 42
-0
  0
VERTEX
  8
0
 10
1916.6500244140625
 20
521.6689453125
 42
0
  0
VERTEX
  8
0
 10
1822.6500244140625
 20
628.35003662109375
 42
0
  0
VERTEX
  8
0
 10
1674.6500244140625
 20
628.35003662109375
 42
0
  0
SEQEND
  0
POLYLINE
  8
0
 10
0
 20
0
 39
0
 70
1
 66
1
  0
VERTEX
  8
0
 10
1795.6500244140625
 20
354.6571044921875
 42
-1
  0
VERTEX
  8
0
 10
1795.6500244140625
 20
574.6571044921875
 42
-1
  0
SEQEND
  0
POLYLINE
  8
0
 10
0
 20
0
 39
0
 70
1
 66
1
  0
VERTEX
  8
0
 10
1674.6500244140625
 20
638.45001220703125
 42
-0
  0
VERTEX
  8
0
 10
1916.6500244140625
 20
638.45001220703125
 42
-0
  0
VERTEX
  8
0
 10
1916.6500244140625
 20
835.7689208984375
 42
0
  0
VERTEX
  8
0
 10
1822.6500244140625
 20
942.45001220703125
 42
0
  0
VERTEX
  8
0
 10
1674.6500244140625
 20
942.45001220703125
 42
0
  0
SEQEND
  0
POLYLINE
  8
0
 10
0
 20
0
 39
0
 70
1
 66
1
  0
VERTEX
  8
0
 10
1795.6500244140625
 20
668.757080078125
 42
-1
  0
VERTEX
  8
0
 10
1795.6500244140625
 20
888.757080078125
 42
-1
  0
SEQEND
  0
POLYLINE
  8
0
 10
0
 20
0
 39
0
 70
1
 66
1
  0
VERTEX
  8
0
 10
660.25
 20
884.45001220703125
 42
-0
  0
VERTEX
  8
0
 10
660.25
 20
984.45001220703125
 42
-0
  0
VERTEX
  8
0
 10
388.9256591796875
 20
984.45001220703125
 42
-0.41036856174468994
  0
VERTEX
  8
0
 10
259.67596435546875
 20
984.45001220703125
 42
-0
  0
VERTEX
  8
0
 10
198.71939086914062
 20
984.45001220703125
 42
-0.41036856174468994
  0
VERTEX
  8
0
 10
69.4697265625
 20
984.45001220703125
 42
-0
  0
VERTEX
  8
0
 10
10.25
 20
984.45001220703125
 42
-0
  0
VERTEX
  8
0
 10
10.25
 20
884.45001220703125
 42
0
  0
VERTEX
  8
0
 10
69.4697265625
 20
884.45001220703125
 42
-0.41036856174468994
  0
VERTEX
  8
0
 10
198.71939086914062
 20
884.45001220703125
 42
0
  0
VERTEX
  8
0
 10
259.67596435546875
 20
884.45001220703125
 42
-0.41036856174468994
  0
VERTEX
  8
0
 10
388.9256591796875
 20
884.45001220703125
 42
0
  0
SEQEND
  0
POLYLINE
  8
0
 10
0
 20
0
 39
0
 70
1
 66
1
  0
VERTEX
  8
0
 10
626.82122802734375
 20
934.45001220703125
 42
-1
  0
VERTEX
  8
0
 10
576.82122802734375
 20
934.45001220703125
 42
-1
  0
SEQEND
  0
POLYLINE
  8
0
 10
0
 20
0
 39
0
 70
1
 66
1
  0
VERTEX
  8
0
 10
1320.550048828125
 20
884.45001220703125
 42
-0
  0
VERTEX
  8
0
 10
1320.550048828125
 20
984.45001220703125
 42
-0
  0
VERTEX
  8
0
 10
1049.2257080078125
 20
984.45001220703125
 42
-0.41036856174468994
  0
VERTEX
  8
0
 10
919.9759521484375
 20
984.45001220703125
 42
-0
  0
VERTEX
  8
0
 10
859.0194091796875
 20
984.45001220703125
 42
-0.41036856174468994
  0
VERTEX
  8
0
 10
729.76971435546875
 20
984.45001220703125
 42
-0
  0
VERTEX
  8
0
 10
670.54998779296875
 20
984.45001220703125
 42
-0
  0
VERTEX
  8
0
 10
670.54998779296875
 20
884.45001220703125
 42
0
  0
VERTEX
  8
0
 10
729.76971435546875
 20
884.45001220703125
 42
-0.41036856174468994
  0
VERTEX
  8
0
 10
859.0194091796875
 20
884.45001220703125
 42
0
  0
VERTEX
  8
0
 10
919.9759521484375
 20
884.45001220703125
 42
-0.41036856174468994
  0
VERTEX
  8
0
 10
1049.2257080078125
 20
884.45001220703125
 42
0
  0
SEQEND
  0
POLYLINE
  8
0
 10
0
 20
0
 39
0
 70
1
 66
1
  0
VERTEX
  8
0
 10
1287.1212158203125
 20
934.45001220703125
 42
-1
  0
VERTEX
  8
0
 10
1237.1212158203125
 20
934.45001220703125
 42
-1
  0
SEQEND
  0
POLYLINE
  8
0
 10
0
 20
0
 39
0
 70
1
 66
1
  0
VERTEX
  8
0
 10
176.86180114746094
 20
325.3994140625
 42
1
  0
VERTEX
  8
0
 10
176.33819580078125
 20
205.40057373046875
 42
1
  0
SEQEND
  0
POLYLINE
  8
0
 10
0
 20
0
 39
0
 70
1
 66
1
  0
VERTEX
  8
0
 10
206.90463256835937
 20
258.87088012695313
 42
-0.092692576348781586
  0
VERTEX
  8
0
 10
202.49769592285156
 20
248.36152648925781
 42
0.35456797480583191
  0
VERTEX
  8
0
 10
202.560302734375
 20
247.73471069335937
 42
0
  0
VERTEX
  8
0
 10
205.8536376953125
 20
244.41250610351562
 42
-0.41421356797218323
  0
VERTEX
  8
0
 10
205.85054016113281
 20
243.70541381835937
 42
0
  0
VERTEX
  8
0
 10
198.03851318359375
 20
235.96124267578125
 42
-0.41421356797218323
  0
VERTEX
  8
0
 10
197.33140563964844
 20
235.96432495117187
 42
-0
  0
VERTEX
  8
0
 10
194.0380859375
 20
239.28652954101562
 42
0.35456797480583191
  0
VERTEX
  8
0
 10
193.41183471679687
 20
239.3546142578125
 42
-0.092692576348781586
  0
VERTEX
  8
0
 10
182.86441040039062
 20
235.03955078125
 42
0.35456797480583191
  0
VERTEX
  8
0
 10
182.4654541015625
 20
234.55204772949219
 42
0
  0
VERTEX
  8
0
 10
182.44503784179687
 20
229.87416076660156
 42
-0.41421356797218323
  0
VERTEX
  8
0
 10
181.94287109375
 20
229.3763427734375
 42
0
  0
VERTEX
  8
0
 10
170.94297790527344
 20
229.42434692382812
 42
-0.41421356797218323
  0
VERTEX
  8
0
 10
170.44515991210937
 20
229.926513671875
 42
-0
  0
VERTEX
  8
0
 10
170.465576171875
 20
234.60440063476562
 42
0.35456797480583191
  0
VERTEX
  8
0
 10
170.07087707519531
 20
235.09536743164062
 42
-0.092692449688911438
  0
VERTEX
  8
0
 10
159.5615234375
 20
239.50230407714844
 42
0.35456797480583191
  0
VERTEX
  8
0
 10
158.93470764160156
 20
239.439697265625
 42
0
  0
VERTEX
  8
0
 10
155.61250305175781
 20
236.1463623046875
 42
-0.41421356797218323
  0
VERTEX
  8
0
 10
154.90541076660156
 20
236.14944458007812
 42
0
  0
VERTEX
  8
0
 10
147.16123962402344
 20
243.96148681640625
 42
-0.41421356797218323
  0
VERTEX
  8
0
 10
147.16433715820313
 20
244.66859436035156
 42
-0
  0
VERTEX
  8
0
 10
150.48652648925781
 20
247.9619140625
 42
0.35456797480583191
  0
VERTEX
  8
0
 10
150.55461120605469
 20
248.58816528320312
 42
-0.092692442238330841
  0
VERTEX
  8
0
 10
146.23954772949219
 20
259.13558959960937
 42
0.35456806421279907
  0
VERTEX
  8
0
 10
145.75204467773437
 20
259.5345458984375
 42
0
  0
VERTEX
  8
0
 10
141.07415771484375
 20
259.55496215820312
 42
-0.41421356797218323
  0
VERTEX
  8
0
 10
140.57633972167969
 20
260.05712890625
 42
0
  0
VERTEX
  8
0
 10
140.62434387207031
 20
271.05703735351562
 42
-0.41421356797218323
  0
VERTEX
  8
0
 10
141.12651062011719
 20
271.55484008789062
 42
-0
  0
VERTEX
  8
0
 10
145.80439758300781
 20
271.534423828125
 42
0.35456806421279907
  0
VERTEX
  8
0
 10
146.29536437988281
 20
271.92910766601562
 42
-0.092692442238330841
  0
VERTEX
  8
0
 10
150.70230102539062
 20
282.4384765625
 42
0.35456806421279907
  0
VERTEX
  8
0
 10
150.63969421386719
 20
283.0653076171875
 42
0
  0
VERTEX
  8
0
 10
147.34635925292969
 20
286.38748168945312
 42
-0.41421356797218323
  0
VERTEX
  8
0
 10
147.34945678710937
 20
287.0946044921875
 42
0
  0
VERTEX
  8
0
 10
155.16148376464844
 20
294.8387451171875
 42
-0.41421356797218323
  0
VERTEX
  8
0
 10
155.86859130859375
 20
294.83566284179687
 42
-0
  0
VERTEX
  8
0
 10
159.16192626953125
 20
291.51345825195312
 42
0.35456806421279907
  0
VERTEX
  8
0
 10
159.78817749023437
 20
291.44540405273437
 42
-0.092692442238330841
  0
VERTEX
  8
0
 10
170.33558654785156
 20
295.76043701171875
 42
0.35456806421279907
  0
VERTEX
  8
0
 10
170.73454284667969
 20
296.24795532226562
 42
0
  0
VERTEX
  8
0
 10
170.75495910644531
 20
300.92584228515625
 42
-0.41421356797218323
  0
VERTEX
  8
0
 10
171.25712585449219
 20
301.42364501953125
 42
0
  0
VERTEX
  8
0
 10
182.25701904296875
 20
301.37567138671875
 42
-0.41421356797218323
  0
VERTEX
  8
0
 10
182.75483703613281
 20
300.87347412109375
 42
-0
  0
VERTEX
  8
0
 10
182.73442077636719
 20
296.19558715820313
 42
0.35456797480583191
  0
VERTEX
  8
0
 10
183.12911987304687
 20
295.70462036132812
 42
-0.092692442238330841
  0
VERTEX
  8
0
 10
193.63847351074219
 20
291.29769897460938
 42
0.35456797480583191
  0
VERTEX
  8
0
 10
194.26528930664062
 20
291.36029052734375
 42
0
  0
VERTEX
  8
0
 10
197.58749389648437
 20
294.65362548828125
 42
-0.41421356797218323
  0
VERTEX
  8
0
 10
198.29458618164062
 20
294.65054321289062
 42
0
  0
VERTEX
  8
0
 10
206.03875732421875
 20
286.8385009765625
 42
-0.41421356797218323
  0
VERTEX
  8
0
 10
206.03565979003906
 20
286.13140869140625
 42
-0
  0
VERTEX
  8
0
 10
202.71347045898437
 20
282.83807373046875
 42
0.35456797480583191
  0
VERTEX
  8
0
 10
202.6453857421875
 20
282.21182250976563
 42
-0.092692509293556213
  0
VERTEX
  8
0
 10
206.96044921875
 20
271.66439819335937
 42
0.35456797480583191
  0
VERTEX
  8
0
 10
207.44795227050781
 20
271.26544189453125
 42
0
  0
VERTEX
  8
0
 10
212.12583923339844
 20
271.24505615234375
 42
-0.41421356797218323
  0
VERTEX
  8
0
 10
212.6236572265625
 20
270.74285888671875
 42
0
  0
VERTEX
  8
0
 10
212.57565307617187
 20
259.74298095703125
 42
-0.41421356797218323
  0
VERTEX
  8
0
 10
212.073486328125
 20
259.24514770507812
 42
-0
  0
VERTEX
  8
0
 10
207.39559936523437
 20
259.26556396484375
 42
0.35456797480583191
  0
SEQEND
  0
POLYLINE
  8
0
 10
0
 20
0
 39
0
 70
1
 66
1
  0
VERTEX
  8
0
 10
176.86180114746094
 20
762.49945068359375
 42
1
  0
VERTEX
  8
0
 10
176.33819580078125
 20
642.50054931640625
 42
1
  0
SEQEND
  0
POLYLINE
  8
0
 10
0
 20
0
 39
0
 70
1
 66
1
  0
VERTEX
  8
0
 10
206.90463256835937
 20
695.97088623046875
 42
-0.092692576348781586
  0
VERTEX
  8
0
 10
202.49769592285156
 20
685.4615478515625
 42
0.35456797480583191
  0
VERTEX
  8
0
 10
202.560302734375
 20
684.834716796875
 42
0
  0
VERTEX
  8
0
 10
205.8536376953125
 20
681.51251220703125
 42
-0.41421356797218323
  0
VERTEX
  8
0
 10
205.85054016113281
 20
680.805419921875
 42
0
  0
VERTEX
  8
0
 10
198.03851318359375
 20
673.06121826171875
 42
-0.41421356797218323
  0
VERTEX
  8
0
 10
197.33140563964844
 20
673.0643310546875
 42
-0
  0
VERTEX
  8
0
 10
194.0380859375
 20
676.38653564453125
 42
0.35456797480583191
  0
VERTEX
  8
0
 10
193.41183471679687
 20
676.45458984375
 42
-0.092692576348781586
  0
VERTEX
  8
0
 10
182.86441040039062
 20
672.1395263671875
 42
0.35456797480583191
  0
VERTEX
  8
0
 10
182.4654541015625
 20
671.65203857421875
 42
0
  0
VERTEX
  8
0
 10
182.44503784179687
 20
666.97418212890625
 42
-0.41421356797218323
  0
VERTEX
  8
0
 10
181.94287109375
 20
666.476318359375
 42
0
  0
VERTEX
  8
0
 10
170.94297790527344
 20
666.52435302734375
 42
-0.41421356797218323
  0
VERTEX
  8
0
 10
170.44515991210937
 20
667.0264892578125
 42
-0
  0
VERTEX
  8
0
 10
170.465576171875
 20
671.70440673828125
 42
0.35456797480583191
  0
VERTEX
  8
0
 10
170.07087707519531
 20
672.19537353515625
 42
-0.092692449688911438
  0
VERTEX
  8
0
 10
159.5615234375
 20
676.602294921875
 42
0.35456797480583191
  0
VERTEX
  8
0
 10
158.93470764160156
 20
676.5396728515625
 42
0
  0
VERTEX
  8
0
 10
155.61250305175781
 20
673.246337890625
 42
-0.41421356797218323
  0
VERTEX
  8
0
 10
154.90541076660156
 20
673.24945068359375
 42
0
  0
VERTEX
  8
0
 10
147.16123962402344
 20
681.06146240234375
 42
-0.41421356797218323
  0
VERTEX
  8
0
 10
147.16433715820313
 20
681.76861572265625
 42
-0
  0
VERTEX
  8
0
 10
150.48652648925781
 20
685.0618896484375
 42
0.35456797480583191
  0
VERTEX
  8
0
 10
150.55461120605469
 20
685.68817138671875
 42
-0.092692442238330841
  0
VERTEX
  8
0
 10
146.23954772949219
 20
696.235595703125
 42
0.35456806421279907
  0
VERTEX
  8
0
 10
145.75204467773437
 20
696.634521484375
 42
0
  0
VERTEX
  8
0
 10
141.07415771484375
 20
696.65496826171875
 42
-0.41421356797218323
  0
VERTEX
  8
0
 10
140.57633972167969
 20
697.1571044921875
 42
0
  0
VERTEX
  8
0
 10
140.62434387207031
 20
708.15704345703125
 42
-0.41421356797218323
  0
VERTEX
  8
0
 10
141.12651062011719
 20
708.65484619140625
 42
-0
  0
VERTEX
  8
0
 10
145.80439758300781
 20
708.6343994140625
 42
0.35456806421279907
  0
VERTEX
  8
0
 10
146.29536437988281
 20
709.02911376953125
 42
-0.092692442238330841
  0
VERTEX
  8
0
 10
150.70230102539062
 20
719.5384521484375
 42
0.35456806421279907
  0
VERTEX
  8
0
 10
150.63969421386719
 20
720.165283203125
 42
0
  0
VERTEX
  8
0
 10
147.34635925292969
 20
723.48748779296875
 42
-0.41421356797218323
  0
VERTEX
  8
0
 10
147.34945678710937
 20
724.194580078125
 42
0
  0
VERTEX
  8
0
 10
155.16148376464844
 20
731.93878173828125
 42
-0.41421356797218323
  0
VERTEX
  8
0
 10
155.86859130859375
 20
731.9356689453125
 42
-0
  0
VERTEX
  8
0
 10
159.16192626953125
 20
728.61346435546875
 42
0.35456806421279907
  0
VERTEX
  8
0
 10
159.78817749023437
 20
728.54541015625
 42
-0.092692442238330841
  0
VERTEX
  8
0
 10
170.33558654785156
 20
732.8604736328125
 42
0.35456806421279907
  0
VERTEX
  8
0
 10
170.73454284667969
 20
733.34796142578125
 42
0
  0
VERTEX
  8
0
 10
170.75495910644531
 20
738.02581787109375
 42
-0.41421356797218323
  0
VERTEX
  8
0
 10
171.25712585449219
 20
738.523681640625
 42
0
  0
VERTEX
  8
0
 10
182.25701904296875
 20
738.47564697265625
 42
-0.41421356797218323
  0
VERTEX
  8
0
 10
182.75483703613281
 20
737.9735107421875
 42
-0
  0
VERTEX
  8
0
 10
182.73442077636719
 20
733.29559326171875
 42
0.35456797480583191
  0
VERTEX
  8
0
 10
183.12911987304687
 20
732.80462646484375
 42
-0.092692442238330841
  0
VERTEX
  8
0
 10
193.63847351074219
 20
728.397705078125
 42
0.35456797480583191
  0
VERTEX
  8
0
 10
194.26528930664062
 20
728.4603271484375
 42
0
  0
VERTEX
  8
0
 10
197.58749389648437
 20
731.753662109375
 42
-0.41421356797218323
  0
VERTEX
  8
0
 10
198.29458618164062
 20
731.75054931640625
 42
0
  0
VERTEX
  8
0
 10
206.03875732421875
 20
723.93853759765625
 42
-0.41421356797218323
  0
VERTEX
  8
0
 10
206.03565979003906
 20
723.23138427734375
 42
-0
  0
VERTEX
  8
0
 10
202.71347045898437
 20
719.93804931640625
 42
0.35456797480583191
  0
VERTEX
  8
0
 10
202.6453857421875
 20
719.31182861328125
 42
-0.092692509293556213
  0
VERTEX
  8
0
 10
206.96044921875
 20
708.764404296875
 42
0.35456797480583191
  0
VERTEX
  8
0
 10
207.44795227050781
 20
708.365478515625
 42
0
  0
VERTEX
  8
0
 10
212.12583923339844
 20
708.34503173828125
 42
-0.41421356797218323
  0
VERTEX
  8
0
 10
212.6236572265625
 20
707.8428955078125
 42
0
  0
VERTEX
  8
0
 10
212.57565307617187
 20
696.84295654296875
 42
-0.41421356797218323
  0
VERTEX
  8
0
 10
212.073486328125
 20
696.34515380859375
 42
-0
  0
VERTEX
  8
0
 10
207.39559936523437
 20
696.36553955078125
 42
0.35456797480583191
  0
SEQEND
  0
POLYLINE
  8
0
 10
0
 20
0
 39
0
 70
1
 66
1
  0
VERTEX
  8
0
 10
592.9617919921875
 20
325.3994140625
 42
1
  0
VERTEX
  8
0
 10
592.43817138671875
 20
205.40057373046875
 42
1
  0
SEQEND
  0
POLYLINE
  8
0
 10
0
 20
0
 39
0
 70
1
 66
1
  0
VERTEX
  8
0
 10
623.004638671875
 20
258.87088012695313
 42
-0.092692576348781586
  0
VERTEX
  8
0
 10
618.59771728515625
 20
248.36152648925781
 42
0.35456797480583191
  0
VERTEX
  8
0
 10
618.6602783203125
 20
247.73471069335937
 42
0
  0
VERTEX
  8
0
 10
621.95361328125
 20
244.41250610351562
 42
-0.41421356797218323
  0
VERTEX
  8
0
 10
621.9505615234375
 20
243.70541381835937
 42
0
  0
VERTEX
  8
0
 10
614.13848876953125
 20
235.96124267578125
 42
-0.41421356797218323
  0
VERTEX
  8
0
 10
613.431396484375
 20
235.96432495117187
 42
-0
  0
VERTEX
  8
0
 10
610.1380615234375
 20
239.28652954101562
 42
0.35456797480583191
  0
VERTEX
  8
0
 10
609.5118408203125
 20
239.3546142578125
 42
-0.092692576348781586
  0
VERTEX
  8
0
 10
598.96441650390625
 20
235.03955078125
 42
0.35456797480583191
  0
VERTEX
  8
0
 10
598.5654296875
 20
234.55204772949219
 42
0
  0
VERTEX
  8
0
 10
598.5450439453125
 20
229.87416076660156
 42
-0.41421356797218323
  0
VERTEX
  8
0
 10
598.0428466796875
 20
229.3763427734375
 42
0
  0
VERTEX
  8
0
 10
587.04296875
 20
229.42434692382812
 42
-0.41421356797218323
  0
VERTEX
  8
0
 10
586.545166015625
 20
229.926513671875
 42
-0
  0
VERTEX
  8
0
 10
586.5655517578125
 20
234.60440063476562
 42
0.35456797480583191
  0
VERTEX
  8
0
 10
586.1708984375
 20
235.09536743164062
 42
-0.092692449688911438
  0
VERTEX
  8
0
 10
575.6614990234375
 20
239.50230407714844
 42
0.35456797480583191
  0
VERTEX
  8
0
 10
575.03472900390625
 20
239.439697265625
 42
0
  0
VERTEX
  8
0
 10
571.7125244140625
 20
236.1463623046875
 42
-0.41421356797218323
  0
VERTEX
  8
0
 10
571.00543212890625
 20
236.14944458007812
 42
0
  0
VERTEX
  8
0
 10
563.26123046875
 20
243.96148681640625
 42
-0.41421356797218323
  0
VERTEX
  8
0
 10
563.26434326171875
 20
244.66859436035156
 42
-0
  0
VERTEX
  8
0
 10
566.5865478515625
 20
247.9619140625
 42
0.35456797480583191
  0
VERTEX
  8
0
 10
566.65460205078125
 20
248.58816528320312
 42
-0.092692442238330841
  0
VERTEX
  8
0
 10
562.33953857421875
 20
259.13558959960937
 42
0.35456806421279907
  0
VERTEX
  8
0
 10
561.85205078125
 20
259.5345458984375
 42
0
  0
VERTEX
  8
0
 10
557.17413330078125
 20
259.55496215820312
 42
-0.41421356797218323
  0
VERTEX
  8
0
 10
556.67633056640625
 20
260.05712890625
 42
0
  0
VERTEX
  8
0
 10
556.724365234375
 20
271.05703735351562
 42
-0.41421356797218323
  0
VERTEX
  8
0
 10
557.22650146484375
 20
271.55484008789062
 42
-0
  0
VERTEX
  8
0
 10
561.9044189453125
 20
271.534423828125
 42
0.35456806421279907
  0
VERTEX
  8
0
 10
562.3953857421875
 20
271.92910766601562
 42
-0.092692442238330841
  0
VERTEX
  8
0
 10
566.80230712890625
 20
282.4384765625
 42
0.35456806421279907
  0
VERTEX
  8
0
 10
566.73968505859375
 20
283.0653076171875
 42
0
  0
VERTEX
  8
0
 10
563.44635009765625
 20
286.38748168945312
 42
-0.41421356797218323
  0
VERTEX
  8
0
 10
563.449462890625
 20
287.0946044921875
 42
0
  0
VERTEX
  8
0
 10
571.261474609375
 20
294.8387451171875
 42
-0.41421356797218323
  0
VERTEX
  8
0
 10
571.96856689453125
 20
294.83566284179687
 42
-0
  0
VERTEX
  8
0
 10
575.26190185546875
 20
291.51345825195312
 42
0.35456806421279907
  0
VERTEX
  8
0
 10
575.88818359375
 20
291.44540405273437
 42
-0.092692442238330841
  0
VERTEX
  8
0
 10
586.43560791015625
 20
295.76043701171875
 42
0.35456806421279907
  0
VERTEX
  8
0
 10
586.83453369140625
 20
296.24795532226562
 42
0
  0
VERTEX
  8
0
 10
586.85498046875
 20
300.92584228515625
 42
-0.41421356797218323
  0
VERTEX
  8
0
 10
587.35711669921875
 20
301.42364501953125
 42
0
  0
VERTEX
  8
0
 10
598.3570556640625
 20
301.37567138671875
 42
-0.41421356797218323
  0
VERTEX
  8
0
 10
598.8548583984375
 20
300.87347412109375
 42
-0
  0
VERTEX
  8
0
 10
598.83441162109375
 20
296.19558715820313
 42
0.35456797480583191
  0
VERTEX
  8
0
 10
599.2291259765625
 20
295.70462036132812
 42
-0.092692442238330841
  0
VERTEX
  8
0
 10
609.73846435546875
 20
291.29769897460938
 42
0.35456797480583191
  0
VERTEX
  8
0
 10
610.36529541015625
 20
291.36029052734375
 42
0
  0
VERTEX
  8
0
 10
613.6875
 20
294.65362548828125
 42
-0.41421356797218323
  0
VERTEX
  8
0
 10
614.39459228515625
 20
294.65054321289062
 42
0
  0
VERTEX
  8
0
 10
622.13873291015625
 20
286.8385009765625
 42
-0.41421356797218323
  0
VERTEX
  8
0
 10
622.13568115234375
 20
286.13140869140625
 42
-0
  0
VERTEX
  8
0
 10
618.8134765625
 20
282.83807373046875
 42
0.35456797480583191
  0
VERTEX
  8
0
 10
618.74542236328125
 20
282.21182250976563
 42
-0.092692509293556213
  0
VERTEX
  8
0
 10
623.0604248046875
 20
271.66439819335937
 42
0.35456797480583191
  0
VERTEX
  8
0
 10
623.5479736328125
 20
271.26544189453125
 42
0
  0
VERTEX
  8
0
 10
628.225830078125
 20
271.24505615234375
 42
-0.41421356797218323
  0
VERTEX
  8
0
 10
628.7236328125
 20
270.74285888671875
 42
0
  0
VERTEX
  8
0
 10
628.6756591796875
 20
259.74298095703125
 42
-0.41421356797218323
  0
VERTEX
  8
0
 10
628.1734619140625
 20
259.24514770507812
 42
-0
  0
VERTEX
  8
0
 10
623.49560546875
 20
259.26556396484375
 42
0.35456797480583191
  0
SEQEND
  0
POLYLINE
  8
0
 10
0
 20
0
 39
0
 70
1
 66
1
  0
VERTEX
  8
0
 10
592.9617919921875
 20
762.49945068359375
 42
1
  0
VERTEX
  8
0
 10
592.43817138671875
 20
642.50054931640625
 42
1
  0
SEQEND
  0
POLYLINE
  8
0
 10
0
 20
0
 39
0
 70
1
 66
1
  0
VERTEX
  8
0
 10
623.004638671875
 20
695.97088623046875
 42
-0.092692576348781586
  0
VERTEX
  8
0
 10
618.59771728515625
 20
685.4615478515625
 42
0.35456797480583191
  0
VERTEX
  8
0
 10
618.6602783203125
 20
684.834716796875
 42
0
  0
VERTEX
  8
0
 10
621.95361328125
 20
681.51251220703125
 42
-0.41421356797218323
  0
VERTEX
  8
0
 10
621.9505615234375
 20
680.805419921875
 42
0
  0
VERTEX
  8
0
 10
614.13848876953125
 20
673.06121826171875
 42
-0.41421356797218323
  0
VERTEX
  8
0
 10
613.431396484375
 20
673.0643310546875
 42
-0
  0
VERTEX
  8
0
 10
610.1380615234375
 20
676.38653564453125
 42
0.35456797480583191
  0
VERTEX
  8
0
 10
609.5118408203125
 20
676.45458984375
 42
-0.092692576348781586
  0
VERTEX
  8
0
 10
598.96441650390625
 20
672.1395263671875
 42
0.35456797480583191
  0
VERTEX
  8
0
 10
598.5654296875
 20
671.65203857421875
 42
0
  0
VERTEX
  8
0
 10
598.5450439453125
 20
666.97418212890625
 42
-0.41421356797218323
  0
VERTEX
  8
0
 10
598.0428466796875
 20
666.476318359375
 42
0
  0
VERTEX
  8
0
 10
587.04296875
 20
666.52435302734375
 42
-0.41421356797218323
  0
VERTEX
  8
0
 10
586.545166015625
 20
667.0264892578125
 42
-0
  0
VERTEX
  8
0
 10
586.5655517578125
 20
671.70440673828125
 42
0.35456797480583191
  0
VERTEX
  8
0
 10
586.1708984375
 20
672.19537353515625
 42
-0.092692449688911438
  0
VERTEX
  8
0
 10
575.6614990234375
 20
676.602294921875
 42
0.35456797480583191
  0
VERTEX
  8
0
 10
575.03472900390625
 20
676.5396728515625
 42
0
  0
VERTEX
  8
0
 10
571.7125244140625
 20
673.246337890625
 42
-0.41421356797218323
  0
VERTEX
  8
0
 10
571.00543212890625
 20
673.24945068359375
 42
0
  0
VERTEX
  8
0
 10
563.26123046875
 20
681.06146240234375
 42
-0.41421356797218323
  0
VERTEX
  8
0
 10
563.26434326171875
 20
681.76861572265625
 42
-0
  0
VERTEX
  8
0
 10
566.5865478515625
 20
685.0618896484375
 42
0.35456797480583191
  0
VERTEX
  8
0
 10
566.65460205078125
 20
685.68817138671875
 42
-0.092692442238330841
  0
VERTEX
  8
0
 10
562.33953857421875
 20
696.235595703125
 42
0.35456806421279907
  0
VERTEX
  8
0
 10
561.85205078125
 20
696.634521484375
 42
0
  0
VERTEX
  8
0
 10
557.17413330078125
 20
696.65496826171875
 42
-0.41421356797218323
  0
VERTEX
  8
0
 10
556.67633056640625
 20
697.1571044921875
 42
0
  0
VERTEX
  8
0
 10
556.724365234375
 20
708.15704345703125
 42
-0.41421356797218323
  0
VERTEX
  8
0
 10
557.22650146484375
 20
708.65484619140625
 42
-0
  0
VERTEX
  8
0
 10
561.9044189453125
 20
708.6343994140625
 42
0.35456806421279907
  0
VERTEX
  8
0
 10
562.3953857421875
 20
709.02911376953125
 42
-0.092692442238330841
  0
VERTEX
  8
0
 10
566.80230712890625
 20
719.5384521484375
 42
0.35456806421279907
  0
VERTEX
  8
0
 10
566.73968505859375
 20
720.165283203125
 42
0
  0
VERTEX
  8
0
 10
563.44635009765625
 20
723.48748779296875
 42
-0.41421356797218323
  0
VERTEX
  8
0
 10
563.449462890625
 20
724.194580078125
 42
0
  0
VERTEX
  8
0
 10
571.261474609375
 20
731.93878173828125
 42
-0.41421356797218323
  0
VERTEX
  8
0
 10
571.96856689453125
 20
731.9356689453125
 42
-0
  0
VERTEX
  8
0
 10
575.26190185546875
 20
728.61346435546875
 42
0.35456806421279907
  0
VERTEX
  8
0
 10
575.88818359375
 20
728.54541015625
 42
-0.092692442238330841
  0
VERTEX
  8
0
 10
586.43560791015625
 20
732.8604736328125
 42
0.35456806421279907
  0
VERTEX
  8
0
 10
586.83453369140625
 20
733.34796142578125
 42
0
  0
VERTEX
  8
0
 10
586.85498046875
 20
738.02581787109375
 42
-0.41421356797218323
  0
VERTEX
  8
0
 10
587.35711669921875
 20
738.523681640625
 42
0
  0
VERTEX
  8
0
 10
598.3570556640625
 20
738.47564697265625
 42
-0.41421356797218323
  0
VERTEX
  8
0
 10
598.8548583984375
 20
737.9735107421875
 42
-0
  0
VERTEX
  8
0
 10
598.83441162109375
 20
733.29559326171875
 42
0.35456797480583191
  0
VERTEX
  8
0
 10
599.2291259765625
 20
732.80462646484375
 42
-0.092692442238330841
  0
VERTEX
  8
0
 10
609.73846435546875
 20
728.397705078125
 42
0.35456797480583191
  0
VERTEX
  8
0
 10
610.36529541015625
 20
728.4603271484375
 42
0
  0
VERTEX
  8
0
 10
613.6875
 20
731.753662109375
 42
-0.41421356797218323
  0
VERTEX
  8
0
 10
614.39459228515625
 20
731.75054931640625
 42
0
  0
VERTEX
  8
0
 10
622.13873291015625
 20
723.93853759765625
 42
-0.41421356797218323
  0
VERTEX
  8
0
 10
622.13568115234375
 20
723.23138427734375
 42
-0
  0
VERTEX
  8
0
 10
618.8134765625
 20
719.93804931640625
 42
0.35456797480583191
  0
VERTEX
  8
0
 10
618.74542236328125
 20
719.31182861328125
 42
-0.092692509293556213
  0
VERTEX
  8
0
 10
623.0604248046875
 20
708.764404296875
 42
0.35456797480583191
  0
VERTEX
  8
0
 10
623.5479736328125
 20
708.365478515625
 42
0
  0
VERTEX
  8
0
 10
628.225830078125
 20
708.34503173828125
 42
-0.41421356797218323
  0
VERTEX
  8
0
 10
628.7236328125
 20
707.8428955078125
 42
0
  0
VERTEX
  8
0
 10
628.6756591796875
 20
696.84295654296875
 42
-0.41421356797218323
  0
VERTEX
  8
0
 10
628.1734619140625
 20
696.34515380859375
 42
-0
  0
VERTEX
  8
0
 10
623.49560546875
 20
696.36553955078125
 42
0.35456797480583191
  0
SEQEND
  0
POLYLINE
  8
0
 10
0
 20
0
 39
0
 70
1
 66
1
  0
VERTEX
  8
0
 10
1009.061767578125
 20
325.3994140625
 42
1
  0
VERTEX
  8
0
 10
1008.5382080078125
 20
205.40057373046875
 42
1
  0
SEQEND
  0
POLYLINE
  8
0
 10
0
 20
0
 39
0
 70
1
 66
1
  0
VERTEX
  8
0
 10
1039.1046142578125
 20
258.87088012695313
 42
-0.092692576348781586
  0
VERTEX
  8
0
 10
1034.6976318359375
 20
248.36152648925781
 42
0.35456797480583191
  0
VERTEX
  8
0
 10
1034.76025390625
 20
247.73471069335937
 42
0
  0
VERTEX
  8
0
 10
1038.0535888671875
 20
244.41250610351562
 42
-0.41421356797218323
  0
VERTEX
  8
0
 10
1038.050537109375
 20
243.70541381835937
 42
0
  0
VERTEX
  8
0
 10
1030.238525390625
 20
235.96124267578125
 42
-0.41421356797218323
  0
VERTEX
  8
0
 10
1029.5313720703125
 20
235.96432495117187
 42
-0
  0
VERTEX
  8
0
 10
1026.238037109375
 20
239.28652954101562
 42
0.35456797480583191
  0
VERTEX
  8
0
 10
1025.61181640625
 20
239.3546142578125
 42
-0.092692576348781586
  0
VERTEX
  8
0
 10
1015.0643920898437
 20
235.03955078125
 42
0.35456797480583191
  0
VERTEX
  8
0
 10
1014.6654663085937
 20
234.55204772949219
 42
0
  0
VERTEX
  8
0
 10
1014.64501953125
 20
229.87416076660156
 42
-0.41421356797218323
  0
VERTEX
  8
0
 10
1014.1428833007812
 20
229.3763427734375
 42
0
  0
VERTEX
  8
0
 10
1003.1429443359375
 20
229.42434692382812
 42
-0.41421356797218323
  0
VERTEX
  8
0
 10
1002.6451416015625
 20
229.926513671875
 42
-0
  0
VERTEX
  8
0
 10
1002.6655883789062
 20
234.60440063476562
 42
0.35456797480583191
  0
VERTEX
  8
0
 10
1002.2708740234375
 20
235.09536743164062
 42
-0.092692449688911438
  0
VERTEX
  8
0
 10
991.76153564453125
 20
239.50230407714844
 42
0.35456797480583191
  0
VERTEX
  8
0
 10
991.13470458984375
 20
239.439697265625
 42
0
  0
VERTEX
  8
0
 10
987.8125
 20
236.1463623046875
 42
-0.41421356797218323
  0
VERTEX
  8
0
 10
987.10540771484375
 20
236.14944458007812
 42
0
  0
VERTEX
  8
0
 10
979.36126708984375
 20
243.96148681640625
 42
-0.41421356797218323
  0
VERTEX
  8
0
 10
979.36431884765625
 20
244.66859436035156
 42
-0
  0
VERTEX
  8
0
 10
982.6865234375
 20
247.9619140625
 42
0.35456797480583191
  0
VERTEX
  8
0
 10
982.75457763671875
 20
248.58816528320312
 42
-0.092692442238330841
  0
VERTEX
  8
0
 10
978.4395751953125
 20
259.13558959960937
 42
0.35456806421279907
  0
VERTEX
  8
0
 10
977.9520263671875
 20
259.5345458984375
 42
0
  0
VERTEX
  8
0
 10
973.274169921875
 20
259.55496215820312
 42
-0.41421356797218323
  0
VERTEX
  8
0
 10
972.7763671875
 20
260.05712890625
 42
0
  0
VERTEX
  8
0
 10
972.8243408203125
 20
271.05703735351562
 42
-0.41421356797218323
  0
VERTEX
  8
0
 10
973.3265380859375
 20
271.55484008789062
 42
-0
  0
VERTEX
  8
0
 10
978.00439453125
 20
271.534423828125
 42
0.35456806421279907
  0
VERTEX
  8
0
 10
978.495361328125
 20
271.92910766601562
 42
-0.092692442238330841
  0
VERTEX
  8
0
 10
982.90228271484375
 20
282.4384765625
 42
0.35456806421279907
  0
VERTEX
  8
0
 10
982.8397216796875
 20
283.0653076171875
 42
0
  0
VERTEX
  8
0
 10
979.54638671875
 20
286.38748168945312
 42
-0.41421356797218323
  0
VERTEX
  8
0
 10
979.5494384765625
 20
287.0946044921875
 42
0
  0
VERTEX
  8
0
 10
987.36151123046875
 20
294.8387451171875
 42
-0.41421356797218323
  0
VERTEX
  8
0
 10
988.068603515625
 20
294.83566284179687
 42
-0
  0
VERTEX
  8
0
 10
991.3619384765625
 20
291.51345825195312
 42
0.35456806421279907
  0
VERTEX
  8
0
 10
991.9881591796875
 20
291.44540405273437
 42
-0.092692442238330841
  0
VERTEX
  8
0
 10
1002.5355834960937
 20
295.76043701171875
 42
0.35456806421279907
  0
VERTEX
  8
0
 10
1002.9345703125
 20
296.24795532226562
 42
0
  0
VERTEX
  8
0
 10
1002.9549560546875
 20
300.92584228515625
 42
-0.41421356797218323
  0
VERTEX
  8
0
 10
1003.4571533203125
 20
301.42364501953125
 42
0
  0
VERTEX
  8
0
 10
1014.45703125
 20
301.37567138671875
 42
-0.41421356797218323
  0
VERTEX
  8
0
 10
1014.954833984375
 20
300.87347412109375
 42
-0
  0
VERTEX
  8
0
 10
1014.9344482421875
 20
296.19558715820313
 42
0.35456797480583191
  0
VERTEX
  8
0
 10
1015.3291015625
 20
295.70462036132812
 42
-0.092692442238330841
  0
VERTEX
  8
0
 10
1025.8385009765625
 20
291.29769897460938
 42
0.35456797480583191
  0
VERTEX
  8
0
 10
1026.46533203125
 20
291.36029052734375
 42
0
  0
VERTEX
  8
0
 10
1029.7874755859375
 20
294.65362548828125
 42
-0.41421356797218323
  0
VERTEX
  8
0
 10
1030.49462890625
 20
294.65054321289062
 42
0
  0
VERTEX
  8
0
 10
1038.23876953125
 20
286.8385009765625
 42
-0.41421356797218323
  0
VERTEX
  8
0
 10
1038.2357177734375
 20
286.13140869140625
 42
-0
  0
VERTEX
  8
0
 10
1034.9134521484375
 20
282.83807373046875
 42
0.35456797480583191
  0
VERTEX
  8
0
 10
1034.8453369140625
 20
282.21182250976563
 42
-0.092692509293556213
  0
VERTEX
  8
0
 10
1039.160400390625
 20
271.66439819335937
 42
0.35456797480583191
  0
VERTEX
  8
0
 10
1039.64794921875
 20
271.26544189453125
 42
0
  0
VERTEX
  8
0
 10
1044.3258056640625
 20
271.24505615234375
 42
-0.41421356797218323
  0
VERTEX
  8
0
 10
1044.8236083984375
 20
270.74285888671875
 42
0
  0
VERTEX
  8
0
 10
1044.775634765625
 20
259.74298095703125
 42
-0.41421356797218323
  0
VERTEX
  8
0
 10
1044.2734375
 20
259.24514770507812
 42
-0
  0
VERTEX
  8
0
 10
1039.5955810546875
 20
259.26556396484375
 42
0.35456797480583191
  0
SEQEND
  0
POLYLINE
  8
0
 10
0
 20
0
 39
0
 70
1
 66
1
  0
VERTEX
  8
0
 10
1009.061767578125
 20
762.49945068359375
 42
1
  0
VERTEX
  8
0
 10
1008.5382080078125
 20
642.50054931640625
 42
1
  0
SEQEND
  0
POLYLINE
  8
0
 10
0
 20
0
 39
0
 70
1
 66
1
  0
VERTEX
  8
0
 10
1039.1046142578125
 20
695.97088623046875
 42
-0.092692576348781586
  0
VERTEX
  8
0
 10
1034.6976318359375
 20
685.4615478515625
 42
0.35456797480583191
  0
VERTEX
  8
0
 10
1034.76025390625
 20
684.834716796875
 42
0
  0
VERTEX
  8
0
 10
1038.0535888671875
 20
681.51251220703125
 42
-0.41421356797218323
  0
VERTEX
  8
0
 10
1038.050537109375
 20
680.805419921875
 42
0
  0
VERTEX
  8
0
 10
1030.238525390625
 20
673.06121826171875
 42
-0.41421356797218323
  0
VERTEX
  8
0
 10
1029.5313720703125
 20
673.0643310546875
 42
-0
  0
VERTEX
  8
0
 10
1026.238037109375
 20
676.38653564453125
 42
0.35456797480583191
  0
VERTEX
  8
0
 10
1025.61181640625
 20
676.45458984375
 42
-0.092692576348781586
  0
VERTEX
  8
0
 10
1015.0643920898437
 20
672.1395263671875
 42
0.35456797480583191
  0
VERTEX
  8
0
 10
1014.6654663085937
 20
671.65203857421875
 42
0
  0
VERTEX
  8
0
 10
1014.64501953125
 20
666.97418212890625
 42
-0.41421356797218323
  0
VERTEX
  8
0
 10
1014.1428833007812
 20
666.476318359375
 42
0
  0
VERTEX
  8
0
 10
1003.1429443359375
 20
666.52435302734375
 42
-0.41421356797218323
  0
VERTEX
  8
0
 10
1002.6451416015625
 20
667.0264892578125
 42
-0
  0
VERTEX
  8
0
 10
1002.6655883789062
 20
671.70440673828125
 42
0.35456797480583191
  0
VERTEX
  8
0
 10
1002.2708740234375
 20
672.19537353515625
 42
-0.092692449688911438
  0
VERTEX
  8
0
 10
991.76153564453125
 20
676.602294921875
 42
0.35456797480583191
  0
VERTEX
  8
0
 10
991.13470458984375
 20
676.5396728515625
 42
0
  0
VERTEX
  8
0
 10
987.8125
 20
673.246337890625
 42
-0.41421356797218323
  0
VERTEX
  8
0
 10
987.10540771484375
 20
673.24945068359375
 42
0
  0
VERTEX
  8
0
 10
979.36126708984375
 20
681.06146240234375
 42
-0.41421356797218323
  0
VERTEX
  8
0
 10
979.36431884765625
 20
681.76861572265625
 42
-0
  0
VERTEX
  8
0
 10
982.6865234375
 20
685.0618896484375
 42
0.35456797480583191
  0
VERTEX
  8
0
 10
982.75457763671875
 20
685.68817138671875
 42
-0.092692442238330841
  0
VERTEX
  8
0
 10
978.4395751953125
 20
696.235595703125
 42
0.35456806421279907
  0
VERTEX
  8
0
 10
977.9520263671875
 20
696.634521484375
 42
0
  0
VERTEX
  8
0
 10
973.274169921875
 20
696.65496826171875
 42
-0.41421356797218323
  0
VERTEX
  8
0
 10
972.7763671875
 20
697.1571044921875
 42
0
  0
VERTEX
  8
0
 10
972.8243408203125
 20
708.15704345703125
 42
-0.41421356797218323
  0
VERTEX
  8
0
 10
973.3265380859375
 20
708.65484619140625
 42
-0
  0
VERTEX
  8
0
 10
978.00439453125
 20
708.6343994140625
 42
0.35456806421279907
  0
VERTEX
  8
0
 10
978.495361328125
 20
709.02911376953125
 42
-0.092692442238330841
  0
VERTEX
  8
0
 10
982.90228271484375
 20
719.5384521484375
 42
0.35456806421279907
  0
VERTEX
  8
0
 10
982.8397216796875
 20
720.165283203125
 42
0
  0
VERTEX
  8
0
 10
979.54638671875
 20
723.48748779296875
 42
-0.41421356797218323
  0
VERTEX
  8
0
 10
979.5494384765625
 20
724.194580078125
 42
0
  0
VERTEX
  8
0
 10
987.36151123046875
 20
731.93878173828125
 42
-0.41421356797218323
  0
VERTEX
  8
0
 10
988.068603515625
 20
731.9356689453125
 42
-0
  0
VERTEX
  8
0
 10
991.3619384765625
 20
728.61346435546875
 42
0.35456806421279907
  0
VERTEX
  8
0
 10
991.9881591796875
 20
728.54541015625
 42
-0.092692442238330841
  0
VERTEX
  8
0
 10
1002.5355834960937
 20
732.8604736328125
 42
0.35456806421279907
  0
VERTEX
  8
0
 10
1002.9345703125
 20
733.34796142578125
 42
0
  0
VERTEX
  8
0
 10
1002.9549560546875
 20
738.02581787109375
 42
-0.41421356797218323
  0
VERTEX
  8
0
 10
1003.4571533203125
 20
738.523681640625
 42
0
  0
VERTEX
  8
0
 10
1014.45703125
 20
738.47564697265625
 42
-0.41421356797218323
  0
VERTEX
  8
0
 10
1014.954833984375
 20
737.9735107421875
 42
-0
  0
VERTEX
  8
0
 10
1014.9344482421875
 20
733.29559326171875
 42
0.35456797480583191
  0
VERTEX
  8
0
 10
1015.3291015625
 20
732.80462646484375
 42
-0.092692442238330841
  0
VERTEX
  8
0
 10
1025.8385009765625
 20
728.397705078125
 42
0.35456797480583191
  0
VERTEX
  8
0
 10
1026.46533203125
 20
728.4603271484375
 42
0
  0
VERTEX
  8
0
 10
1029.7874755859375
 20
731.753662109375
 42
-0.41421356797218323
  0
VERTEX
  8
0
 10
1030.49462890625
 20
731.75054931640625
 42
0
  0
VERTEX
  8
0
 10
1038.23876953125
 20
723.93853759765625
 42
-0.41421356797218323
  0
VERTEX
  8
0
 10
1038.2357177734375
 20
723.23138427734375
 42
-0
  0
VERTEX
  8
0
 10
1034.9134521484375
 20
719.93804931640625
 42
0.35456797480583191
  0
VERTEX
  8
0
 10
1034.8453369140625
 20
719.31182861328125
 42
-0.092692509293556213
  0
VERTEX
  8
0
 10
1039.160400390625
 20
708.764404296875
 42
0.35456797480583191
  0
VERTEX
  8
0
 10
1039.64794921875
 20
708.365478515625
 42
0
  0
VERTEX
  8
0
 10
1044.3258056640625
 20
708.34503173828125
 42
-0.41421356797218323
  0
VERTEX
  8
0
 10
1044.8236083984375
 20
707.8428955078125
 42
0
  0
VERTEX
  8
0
 10
1044.775634765625
 20
696.84295654296875
 42
-0.41421356797218323
  0
VERTEX
  8
0
 10
1044.2734375
 20
696.34515380859375
 42
-0
  0
VERTEX
  8
0
 10
1039.5955810546875
 20
696.36553955078125
 42
0.35456797480583191
  0
SEQEND
  0
POLYLINE
  8
0
 10
0
 20
0
 39
0
 70
1
 66
1
  0
VERTEX
  8
0
 10
1425.1617431640625
 20
325.3994140625
 42
1
  0
VERTEX
  8
0
 10
1424.63818359375
 20
205.40057373046875
 42
1
  0
SEQEND
  0
POLYLINE
  8
0
 10
0
 20
0
 39
0
 70
1
 66
1
  0
VERTEX
  8
0
 10
1455.20458984375
 20
258.87088012695313
 42
-0.092692576348781586
  0
VERTEX
  8
0
 10
1450.7977294921875
 20
248.36152648925781
 42
0.35456797480583191
  0
VERTEX
  8
0
 10
1450.8603515625
 20
247.73471069335937
 42
0
  0
VERTEX
  8
0
 10
1454.1536865234375
 20
244.41250610351562
 42
-0.41421356797218323
  0
VERTEX
  8
0
 10
1454.1505126953125
 20
243.70541381835937
 42
0
  0
VERTEX
  8
0
 10
1446.3385009765625
 20
235.96124267578125
 42
-0.41421356797218323
  0
VERTEX
  8
0
 10
1445.63134765625
 20
235.96432495117187
 42
-0
  0
VERTEX
  8
0
 10
1442.338134765625
 20
239.28652954101562
 42
0.35456797480583191
  0
VERTEX
  8
0
 10
1441.7117919921875
 20
239.3546142578125
 42
-0.092692576348781586
  0
VERTEX
  8
0
 10
1431.1644287109375
 20
235.03955078125
 42
0.35456797480583191
  0
VERTEX
  8
0
 10
1430.7655029296875
 20
234.55204772949219
 42
0
  0
VERTEX
  8
0
 10
1430.7449951171875
 20
229.87416076660156
 42
-0.41421356797218323
  0
VERTEX
  8
0
 10
1430.242919921875
 20
229.3763427734375
 42
0
  0
VERTEX
  8
0
 10
1419.242919921875
 20
229.42434692382812
 42
-0.41421356797218323
  0
VERTEX
  8
0
 10
1418.7451171875
 20
229.926513671875
 42
-0
  0
VERTEX
  8
0
 10
1418.765625
 20
234.60440063476562
 42
0.35456797480583191
  0
VERTEX
  8
0
 10
1418.370849609375
 20
235.09536743164062
 42
-0.092692449688911438
  0
VERTEX
  8
0
 10
1407.861572265625
 20
239.50230407714844
 42
0.35456797480583191
  0
VERTEX
  8
0
 10
1407.2347412109375
 20
239.439697265625
 42
0
  0
VERTEX
  8
0
 10
1403.9124755859375
 20
236.1463623046875
 42
-0.41421356797218323
  0
VERTEX
  8
0
 10
1403.2054443359375
 20
236.14944458007812
 42
0
  0
VERTEX
  8
0
 10
1395.4613037109375
 20
243.96148681640625
 42
-0.41421356797218323
  0
VERTEX
  8
0
 10
1395.46435546875
 20
244.66859436035156
 42
-0
  0
VERTEX
  8
0
 10
1398.7864990234375
 20
247.9619140625
 42
0.35456797480583191
  0
VERTEX
  8
0
 10
1398.8546142578125
 20
248.58816528320312
 42
-0.092692442238330841
  0
VERTEX
  8
0
 10
1394.53955078125
 20
259.13558959960937
 42
0.35456806421279907
  0
VERTEX
  8
0
 10
1394.052001953125
 20
259.5345458984375
 42
0
  0
VERTEX
  8
0
 10
1389.3741455078125
 20
259.55496215820312
 42
-0.41421356797218323
  0
VERTEX
  8
0
 10
1388.8763427734375
 20
260.05712890625
 42
0
  0
VERTEX
  8
0
 10
1388.92431640625
 20
271.05703735351562
 42
-0.41421356797218323
  0
VERTEX
  8
0
 10
1389.426513671875
 20
271.55484008789062
 42
-0
  0
VERTEX
  8
0
 10
1394.1043701171875
 20
271.534423828125
 42
0.35456806421279907
  0
VERTEX
  8
0
 10
1394.5953369140625
 20
271.92910766601562
 42
-0.092692442238330841
  0
VERTEX
  8
0
 10
1399.0023193359375
 20
282.4384765625
 42
0.35456806421279907
  0
VERTEX
  8
0
 10
1398.939697265625
 20
283.0653076171875
 42
0
  0
VERTEX
  8
0
 10
1395.6463623046875
 20
286.38748168945312
 42
-0.41421356797218323
  0
VERTEX
  8
0
 10
1395.6494140625
 20
287.0946044921875
 42
0
  0
VERTEX
  8
0
 10
1403.4615478515625
 20
294.8387451171875
 42
-0.41421356797218323
  0
VERTEX
  8
0
 10
1404.1685791015625
 20
294.83566284179687
 42
-0
  0
VERTEX
  8
0
 10
1407.4619140625
 20
291.51345825195312
 42
0.35456806421279907
  0
VERTEX
  8
0
 10
1408.088134765625
 20
291.44540405273437
 42
-0.092692442238330841
  0
VERTEX
  8
0
 10
1418.6356201171875
 20
295.76043701171875
 42
0.35456806421279907
  0
VERTEX
  8
0
 10
1419.0345458984375
 20
296.24795532226562
 42
0
  0
VERTEX
  8
0
 10
1419.054931640625
 20
300.92584228515625
 42
-0.41421356797218323
  0
VERTEX
  8
0
 10
1419.55712890625
 20
301.42364501953125
 42
0
  0
VERTEX
  8
0
 10
1430.5570068359375
 20
301.37567138671875
 42
-0.41421356797218323
  0
VERTEX
  8
0
 10
1431.0548095703125
 20
300.87347412109375
 42
-0
  0
VERTEX
  8
0
 10
1431.034423828125
 20
296.19558715820313
 42
0.35456797480583191
  0
VERTEX
  8
0
 10
1431.4290771484375
 20
295.70462036132812
 42
-0.092692442238330841
  0
VERTEX
  8
0
 10
1441.9384765625
 20
291.29769897460938
 42
0.35456797480583191
  0
VERTEX
  8
0
 10
1442.5653076171875
 20
291.36029052734375
 42
0
  0
VERTEX
  8
0
 10
1445.887451171875
 20
294.65362548828125
 42
-0.41421356797218323
  0
VERTEX
  8
0
 10
1446.5946044921875
 20
294.65054321289062
 42
0
  0
VERTEX
  8
0
 10
1454.3387451171875
 20
286.8385009765625
 42
-0.41421356797218323
  0
VERTEX
  8
0
 10
1454.335693359375
 20
286.13140869140625
 42
-0
  0
VERTEX
  8
0
 10
1451.013427734375
 20
282.83807373046875
 42
0.35456797480583191
  0
VERTEX
  8
0
 10
1450.9454345703125
 20
282.21182250976563
 42
-0.092692509293556213
  0
VERTEX
  8
0
 10
1455.260498046875
 20
271.66439819335937
 42
0.35456797480583191
  0
VERTEX
  8
0
 10
1455.7479248046875
 20
271.26544189453125
 42
0
  0
VERTEX
  8
0
 10
1460.42578125
 20
271.24505615234375
 42
-0.41421356797218323
  0
VERTEX
  8
0
 10
1460.9237060546875
 20
270.74285888671875
 42
0
  0
VERTEX
  8
0
 10
1460.8756103515625
 20
259.74298095703125
 42
-0.41421356797218323
  0
VERTEX
  8
0
 10
1460.37353515625
 20
259.24514770507812
 42
-0
  0
VERTEX
  8
0
 10
1455.695556640625
 20
259.26556396484375
 42
0.35456797480583191
  0
SEQEND
  0
POLYLINE
  8
0
 10
0
 20
0
 39
0
 70
1
 66
1
  0
VERTEX
  8
0
 10
1425.1617431640625
 20
762.49945068359375
 42
1
  0
VERTEX
  8
0
 10
1424.63818359375
 20
642.50054931640625
 42
1
  0
SEQEND
  0
POLYLINE
  8
0
 10
0
 20
0
 39
0
 70
1
 66
1
  0
VERTEX
  8
0
 10
1455.20458984375
 20
695.97088623046875
 42
-0.092692576348781586
  0
VERTEX
  8
0
 10
1450.7977294921875
 20
685.4615478515625
 42
0.35456797480583191
  0
VERTEX
  8
0
 10
1450.8603515625
 20
684.834716796875
 42
0
  0
VERTEX
  8
0
 10
1454.1536865234375
 20
681.51251220703125
 42
-0.41421356797218323
  0
VERTEX
  8
0
 10
1454.1505126953125
 20
680.805419921875
 42
0
  0
VERTEX
  8
0
 10
1446.3385009765625
 20
673.06121826171875
 42
-0.41421356797218323
  0
VERTEX
  8
0
 10
1445.63134765625
 20
673.0643310546875
 42
-0
  0
VERTEX
  8
0
 10
1442.338134765625
 20
676.38653564453125
 42
0.35456797480583191
  0
VERTEX
  8
0
 10
1441.7117919921875
 20
676.45458984375
 42
-0.092692576348781586
  0
VERTEX
  8
0
 10
1431.1644287109375
 20
672.1395263671875
 42
0.35456797480583191
  0
VERTEX
  8
0
 10
1430.7655029296875
 20
671.65203857421875
 42
0
  0
VERTEX
  8
0
 10
1430.7449951171875
 20
666.97418212890625
 42
-0.41421356797218323
  0
VERTEX
  8
0
 10
1430.242919921875
 20
666.476318359375
 42
0
  0
VERTEX
  8
0
 10
1419.242919921875
 20
666.52435302734375
 42
-0.41421356797218323
  0
VERTEX
  8
0
 10
1418.7451171875
 20
667.0264892578125
 42
-0
  0
VERTEX
  8
0
 10
1418.765625
 20
671.70440673828125
 42
0.35456797480583191
  0
VERTEX
  8
0
 10
1418.370849609375
 20
672.19537353515625
 42
-0.092692449688911438
  0
VERTEX
  8
0
 10
1407.861572265625
 20
676.602294921875
 42
0.35456797480583191
  0
VERTEX
  8
0
 10
1407.2347412109375
 20
676.5396728515625
 42
0
  0
VERTEX
  8
0
 10
1403.9124755859375
 20
673.246337890625
 42
-0.41421356797218323
  0
VERTEX
  8
0
 10
1403.2054443359375
 20
673.24945068359375
 42
0
  0
VERTEX
  8
0
 10
1395.4613037109375
 20
681.06146240234375
 42
-0.41421356797218323
  0
VERTEX
  8
0
 10
1395.46435546875
 20
681.76861572265625
 42
-0
  0
VERTEX
  8
0
 10
1398.7864990234375
 20
685.0618896484375
 42
0.35456797480583191
  0
VERTEX
  8
0
 10
1398.8546142578125
 20
685.68817138671875
 42
-0.092692442238330841
  0
VERTEX
  8
0
 10
1394.53955078125
 20
696.235595703125
 42
0.35456806421279907
  0
VERTEX
  8
0
 10
1394.052001953125
 20
696.634521484375
 42
0
  0
VERTEX
  8
0
 10
1389.3741455078125
 20
696.65496826171875
 42
-0.41421356797218323
  0
VERTEX
  8
0
 10
1388.8763427734375
 20
697.1571044921875
 42
0
  0
VERTEX
  8
0
 10
1388.92431640625
 20
708.15704345703125
 42
-0.41421356797218323
  0
VERTEX
  8
0
 10
1389.426513671875
 20
708.65484619140625
 42
-0
  0
VERTEX
  8
0
 10
1394.1043701171875
 20
708.6343994140625
 42
0.35456806421279907
  0
VERTEX
  8
0
 10
1394.5953369140625
 20
709.02911376953125
 42
-0.092692442238330841
  0
VERTEX
  8
0
 10
1399.0023193359375
 20
719.5384521484375
 42
0.35456806421279907
  0
VERTEX
  8
0
 10
1398.939697265625
 20
720.165283203125
 42
0
  0
VERTEX
  8
0
 10
1395.6463623046875
 20
723.48748779296875
 42
-0.41421356797218323
  0
VERTEX
  8
0
 10
1395.6494140625
 20
724.194580078125
 42
0
  0
VERTEX
  8
0
 10
1403.4615478515625
 20
731.93878173828125
 42
-0.41421356797218323
  0
VERTEX
  8
0
 10
1404.1685791015625
 20
731.9356689453125
 42
-0
  0
VERTEX
  8
0
 10
1407.4619140625
 20
728.61346435546875
 42
0.35456806421279907
  0
VERTEX
  8
0
 10
1408.088134765625
 20
728.54541015625
 42
-0.092692442238330841
  0
VERTEX
  8
0
 10
1418.6356201171875
 20
732.8604736328125
 42
0.35456806421279907
  0
VERTEX
  8
0
 10
1419.0345458984375
 20
733.34796142578125
 42
0
  0
VERTEX
  8
0
 10
1419.054931640625
 20
738.02581787109375
 42
-0.41421356797218323
  0
VERTEX
  8
0
 10
1419.55712890625
 20
738.523681640625
 42
0
  0
VERTEX
  8
0
 10
1430.5570068359375
 20
738.47564697265625
 42
-0.41421356797218323
  0
VERTEX
  8
0
 10
1431.0548095703125
 20
737.9735107421875
 42
-0
  0
VERTEX
  8
0
 10
1431.034423828125
 20
733.29559326171875
 42
0.35456797480583191
  0
VERTEX
  8
0
 10
1431.4290771484375
 20
732.80462646484375
 42
-0.092692442238330841
  0
VERTEX
  8
0
 10
1441.9384765625
 20
728.397705078125
 42
0.35456797480583191
  0
VERTEX
  8
0
 10
1442.5653076171875
 20
728.4603271484375
 42
0
  0
VERTEX
  8
0
 10
1445.887451171875
 20
731.753662109375
 42
-0.41421356797218323
  0
VERTEX
  8
0
 10
1446.5946044921875
 20
731.75054931640625
 42
0
  0
VERTEX
  8
0
 10
1454.3387451171875
 20
723.93853759765625
 42
-0.41421356797218323
  0
VERTEX
  8
0
 10
1454.335693359375
 20
723.23138427734375
 42
-0
  0
VERTEX
  8
0
 10
1451.013427734375
 20
719.93804931640625
 42
0.35456797480583191
  0
VERTEX
  8
0
 10
1450.9454345703125
 20
719.31182861328125
 42
-0.092692509293556213
  0
VERTEX
  8
0
 10
1455.260498046875
 20
708.764404296875
 42
0.35456797480583191
  0
VERTEX
  8
0
 10
1455.7479248046875
 20
708.365478515625
 42
0
  0
VERTEX
  8
0
 10
1460.42578125
 20
708.34503173828125
 42
-0.41421356797218323
  0
VERTEX
  8
0
 10
1460.9237060546875
 20
707.8428955078125
 42
0
  0
VERTEX
  8
0
 10
1460.8756103515625
 20
696.84295654296875
 42
-0.41421356797218323
  0
VERTEX
  8
0
 10
1460.37353515625
 20
696.34515380859375
 42
-0
  0
VERTEX
  8
0
 10
1455.695556640625
 20
696.36553955078125
 42
0.35456797480583191
  0
SEQEND
  0
POLYLINE
  8
0
 10
0
 20
0
 39
0
 70
1
 66
1
  0
VERTEX
  8
0
 10
1756.36181640625
 20
208.84942626953125
 42
1
  0
VERTEX
  8
0
 10
1755.8382568359375
 20
88.850570678710938
 42
1
  0
SEQEND
  0
POLYLINE
  8
0
 10
0
 20
0
 39
0
 70
1
 66
1
  0
VERTEX
  8
0
 10
1786.4046630859375
 20
142.32089233398438
 42
-0.092692576348781586
  0
VERTEX
  8
0
 10
1781.9976806640625
 20
131.8115234375
 42
0.35456797480583191
  0
VERTEX
  8
0
 10
1782.060302734375
 20
131.18470764160156
 42
0
  0
VERTEX
  8
0
 10
1785.3536376953125
 20
127.86251068115234
 42
-0.41421356797218323
  0
VERTEX
  8
0
 10
1785.3505859375
 20
127.15540313720703
 42
0
  0
VERTEX
  8
0
 10
1777.5384521484375
 20
119.41124725341797
 42
-0.41421356797218323
  0
VERTEX
  8
0
 10
1776.8314208984375
 20
119.41432952880859
 42
-0
  0
VERTEX
  8
0
 10
1773.5380859375
 20
122.73652648925781
 42
0.35456797480583191
  0
VERTEX
  8
0
 10
1772.911865234375
 20
122.80461120605469
 42
-0.092692576348781586
  0
VERTEX
  8
0
 10
1762.3643798828125
 20
118.48954772949219
 42
0.35456797480583191
  0
VERTEX
  8
0
 10
1761.9654541015625
 20
118.00204467773437
 42
0
  0
VERTEX
  8
0
 10
1761.945068359375
 20
113.32415771484375
 42
-0.41421356797218323
  0
VERTEX
  8
0
 10
1761.44287109375
 20
112.82634735107422
 42
0
  0
VERTEX
  8
0
 10
1750.4429931640625
 20
112.87434387207031
 42
-0.41421356797218323
  0
VERTEX
  8
0
 10
1749.9451904296875
 20
113.37651824951172
 42
-0
  0
VERTEX
  8
0
 10
1749.965576171875
 20
118.05440521240234
 42
0.35456797480583191
  0
VERTEX
  8
0
 10
1749.5709228515625
 20
118.54537200927734
 42
-0.092692449688911438
  0
VERTEX
  8
0
 10
1739.0615234375
 20
122.95230865478516
 42
0.35456797480583191
  0
VERTEX
  8
0
 10
1738.4346923828125
 20
122.88969421386719
 42
0
  0
VERTEX
  8
0
 10
1735.112548828125
 20
119.59636688232422
 42
-0.41421356797218323
  0
VERTEX
  8
0
 10
1734.4053955078125
 20
119.59944915771484
 42
0
  0
VERTEX
  8
0
 10
1726.6612548828125
 20
127.41149139404297
 42
-0.41421356797218323
  0
VERTEX
  8
0
 10
1726.664306640625
 20
128.11859130859375
 42
-0
  0
VERTEX
  8
0
 10
1729.986572265625
 20
131.41192626953125
 42
0.35456797480583191
  0
VERTEX
  8
0
 10
1730.0545654296875
 20
132.03817749023437
 42
-0.092692442238330841
  0
VERTEX
  8
0
 10
1725.739501953125
 20
142.58558654785156
 42
0.35456806421279907
  0
VERTEX
  8
0
 10
1725.2520751953125
 20
142.98454284667969
 42
0
  0
VERTEX
  8
0
 10
1720.5740966796875
 20
143.00495910644531
 42
-0.41421356797218323
  0
VERTEX
  8
0
 10
1720.0762939453125
 20
143.50712585449219
 42
0
  0
VERTEX
  8
0
 10
1720.1243896484375
 20
154.50701904296875
 42
-0.41421356797218323
  0
VERTEX
  8
0
 10
1720.62646484375
 20
155.00483703613281
 42
-0
  0
VERTEX
  8
0
 10
1725.304443359375
 20
154.98442077636719
 42
0.35456806421279907
  0
VERTEX
  8
0
 10
1725.79541015625
 20
155.37911987304687
 42
-0.092692442238330841
  0
VERTEX
  8
0
 10
1730.2022705078125
 20
165.88847351074219
 42
0.35456806421279907
  0
VERTEX
  8
0
 10
1730.1396484375
 20
166.51528930664062
 42
0
  0
VERTEX
  8
0
 10
1726.8463134765625
 20
169.83749389648437
 42
-0.41421356797218323
  0
VERTEX
  8
0
 10
1726.8494873046875
 20
170.54458618164062
 42
0
  0
VERTEX
  8
0
 10
1734.6614990234375
 20
178.28875732421875
 42
-0.41421356797218323
  0
VERTEX
  8
0
 10
1735.3685302734375
 20
178.28565979003906
 42
-0
  0
VERTEX
  8
0
 10
1738.661865234375
 20
174.96347045898437
 42
0.35456806421279907
  0
VERTEX
  8
0
 10
1739.2882080078125
 20
174.8953857421875
 42
-0.092692442238330841
  0
VERTEX
  8
0
 10
1749.8355712890625
 20
179.21044921875
 42
0.35456806421279907
  0
VERTEX
  8
0
 10
1750.2344970703125
 20
179.69795227050781
 42
0
  0
VERTEX
  8
0
 10
1750.2550048828125
 20
184.37583923339844
 42
-0.41421356797218323
  0
VERTEX
  8
0
 10
1750.757080078125
 20
184.8736572265625
 42
0
  0
VERTEX
  8
0
 10
1761.757080078125
 20
184.82565307617187
 42
-0.41421356797218323
  0
VERTEX
  8
0
 10
1762.2548828125
 20
184.323486328125
 42
-0
  0
VERTEX
  8
0
 10
1762.234375
 20
179.64559936523437
 42
0.35456797480583191
  0
VERTEX
  8
0
 10
1762.629150390625
 20
179.15463256835937
 42
-0.092692442238330841
  0
VERTEX
  8
0
 10
1773.138427734375
 20
174.74769592285156
 42
0.35456797480583191
  0
VERTEX
  8
0
 10
1773.7652587890625
 20
174.810302734375
 42
0
  0
VERTEX
  8
0
 10
1777.0875244140625
 20
178.1036376953125
 42
-0.41421356797218323
  0
VERTEX
  8
0
 10
1777.7945556640625
 20
178.10054016113281
 42
0
  0
VERTEX
  8
0
 10
1785.5386962890625
 20
170.28851318359375
 42
-0.41421356797218323
  0
VERTEX
  8
0
 10
1785.53564453125
 20
169.58140563964844
 42
-0
  0
VERTEX
  8
0
 10
1782.2135009765625
 20
166.2880859375
 42
0.35456797480583191
  0
VERTEX
  8
0
 10
1782.1453857421875
 20
165.66181945800781
 42
-0.092692509293556213
  0
VERTEX
  8
0
 10
1786.46044921875
 20
155.11441040039062
 42
0.35456797480583191
  0
VERTEX
  8
0
 10
1786.947998046875
 20
154.7154541015625
 42
0
  0
VERTEX
  8
0
 10
1791.6258544921875
 20
154.69503784179687
 42
-0.41421356797218323
  0
VERTEX
  8
0
 10
1792.1236572265625
 20
154.19287109375
 42
0
  0
VERTEX
  8
0
 10
1792.07568359375
 20
143.19297790527344
 42
-0.41421356797218323
  0
VERTEX
  8
0
 10
1791.573486328125
 20
142.69515991210937
 42
-0
  0
VERTEX
  8
0
 10
1786.8956298828125
 20
142.715576171875
 42
0.35456797480583191
  0
SEQEND
  0
POLYLINE
  8
0
 10
0
 20
0
 39
0
 70
1
 66
1
  0
VERTEX
  8
0
 10
1756.36181640625
 20
522.94940185546875
 42
1
  0
VERTEX
  8
0
 10
1755.8382568359375
 20
402.9505615234375
 42
1
  0
SEQEND
  0
POLYLINE
  8
0
 10
0
 20
0
 39
0
 70
1
 66
1
  0
VERTEX
  8
0
 10
1786.4046630859375
 20
456.4208984375
 42
-0.092692576348781586
  0
VERTEX
  8
0
 10
1781.9976806640625
 20
445.91152954101562
 42
0.35456797480583191
  0
VERTEX
  8
0
 10
1782.060302734375
 20
445.28469848632812
 42
0
  0
VERTEX
  8
0
 10
1785.3536376953125
 20
441.96249389648437
 42
-0.41421356797218323
  0
VERTEX
  8
0
 10
1785.3505859375
 20
441.25540161132812
 42
0
  0
VERTEX
  8
0
 10
1777.5384521484375
 20
433.51123046875
 42
-0.41421356797218323
  0
VERTEX
  8
0
 10
1776.8314208984375
 20
433.51434326171875
 42
-0
  0
VERTEX
  8
0
 10
1773.5380859375
 20
436.83651733398437
 42
0.35456797480583191
  0
VERTEX
  8
0
 10
1772.911865234375
 20
436.90460205078125
 42
-0.092692576348781586
  0
VERTEX
  8
0
 10
1762.3643798828125
 20
432.58953857421875
 42
0.35456797480583191
  0
VERTEX
  8
0
 10
1761.9654541015625
 20
432.10205078125
 42
0
  0
VERTEX
  8
0
 10
1761.945068359375
 20
427.42416381835937
 42
-0.41421356797218323
  0
VERTEX
  8
0
 10
1761.44287109375
 20
426.92633056640625
 42
0
  0
VERTEX
  8
0
 10
1750.4429931640625
 20
426.97433471679687
 42
-0.41421356797218323
  0
VERTEX
  8
0
 10
1749.9451904296875
 20
427.47653198242187
 42
-0
  0
VERTEX
  8
0
 10
1749.965576171875
 20
432.15438842773437
 42
0.35456797480583191
  0
VERTEX
  8
0
 10
1749.5709228515625
 20
432.64535522460937
 42
-0.092692449688911438
  0
VERTEX
  8
0
 10
1739.0615234375
 20
437.05230712890625
 42
0.35456797480583191
  0
VERTEX
  8
0
 10
1738.4346923828125
 20
436.98968505859375
 42
0
  0
VERTEX
  8
0
 10
1735.112548828125
 20
433.69635009765625
 42
-0.41421356797218323
  0
VERTEX
  8
0
 10
1734.4053955078125
 20
433.699462890625
 42
0
  0
VERTEX
  8
0
 10
1726.6612548828125
 20
441.511474609375
 42
-0.41421356797218323
  0
VERTEX
  8
0
 10
1726.664306640625
 20
442.21859741210937
 42
-0
  0
VERTEX
  8
0
 10
1729.986572265625
 20
445.51193237304687
 42
0.35456797480583191
  0
VERTEX
  8
0
 10
1730.0545654296875
 20
446.13818359375
 42
-0.092692442238330841
  0
VERTEX
  8
0
 10
1725.739501953125
 20
456.68557739257812
 42
0.35456806421279907
  0
VERTEX
  8
0
 10
1725.2520751953125
 20
457.08453369140625
 42
0
  0
VERTEX
  8
0
 10
1720.5740966796875
 20
457.10494995117187
 42
-0.41421356797218323
  0
VERTEX
  8
0
 10
1720.0762939453125
 20
457.60711669921875
 42
0
  0
VERTEX
  8
0
 10
1720.1243896484375
 20
468.60702514648437
 42
-0.41421356797218323
  0
VERTEX
  8
0
 10
1720.62646484375
 20
469.10482788085937
 42
-0
  0
VERTEX
  8
0
 10
1725.304443359375
 20
469.08444213867187
 42
0.35456806421279907
  0
VERTEX
  8
0
 10
1725.79541015625
 20
469.4791259765625
 42
-0.092692442238330841
  0
VERTEX
  8
0
 10
1730.2022705078125
 20
479.98846435546875
 42
0.35456806421279907
  0
VERTEX
  8
0
 10
1730.1396484375
 20
480.61529541015625
 42
0
  0
VERTEX
  8
0
 10
1726.8463134765625
 20
483.9375
 42
-0.41421356797218323
  0
VERTEX
  8
0
 10
1726.8494873046875
 20
484.64459228515625
 42
0
  0
VERTEX
  8
0
 10
1734.6614990234375
 20
492.38876342773437
 42
-0.41421356797218323
  0
VERTEX
  8
0
 10
1735.3685302734375
 20
492.38568115234375
 42
-0
  0
VERTEX
  8
0
 10
1738.661865234375
 20
489.0634765625
 42
0.35456806421279907
  0
VERTEX
  8
0
 10
1739.2882080078125
 20
488.99539184570312
 42
-0.092692442238330841
  0
VERTEX
  8
0
 10
1749.8355712890625
 20
493.31045532226562
 42
0.35456806421279907
  0
VERTEX
  8
0
 10
1750.2344970703125
 20
493.79794311523437
 42
0
  0
VERTEX
  8
0
 10
1750.2550048828125
 20
498.475830078125
 42
-0.41421356797218323
  0
VERTEX
  8
0
 10
1750.757080078125
 20
498.97366333007812
 42
0
  0
VERTEX
  8
0
 10
1761.757080078125
 20
498.9256591796875
 42
-0.41421356797218323
  0
VERTEX
  8
0
 10
1762.2548828125
 20
498.42349243164062
 42
-0
  0
VERTEX
  8
0
 10
1762.234375
 20
493.74560546875
 42
0.35456797480583191
  0
VERTEX
  8
0
 10
1762.629150390625
 20
493.254638671875
 42
-0.092692442238330841
  0
VERTEX
  8
0
 10
1773.138427734375
 20
488.84768676757812
 42
0.35456797480583191
  0
VERTEX
  8
0
 10
1773.7652587890625
 20
488.91030883789062
 42
0
  0
VERTEX
  8
0
 10
1777.0875244140625
 20
492.20364379882812
 42
-0.41421356797218323
  0
VERTEX
  8
0
 10
1777.7945556640625
 20
492.2005615234375
 42
0
  0
VERTEX
  8
0
 10
1785.5386962890625
 20
484.38851928710937
 42
-0.41421356797218323
  0
VERTEX
  8
0
 10
1785.53564453125
 20
483.681396484375
 42
-0
  0
VERTEX
  8
0
 10
1782.2135009765625
 20
480.38809204101562
 42
0.35456797480583191
  0
VERTEX
  8
0
 10
1782.1453857421875
 20
479.7618408203125
 42
-0.092692509293556213
  0
VERTEX
  8
0
 10
1786.46044921875
 20
469.21441650390625
 42
0.35456797480583191
  0
VERTEX
  8
0
 10
1786.947998046875
 20
468.81546020507812
 42
0
  0
VERTEX
  8
0
 10
1791.6258544921875
 20
468.7950439453125
 42
-0.41421356797218323
  0
VERTEX
  8
0
 10
1792.1236572265625
 20
468.29287719726562
 42
0
  0
VERTEX
  8
0
 10
1792.07568359375
 20
457.29296875
 42
-0.41421356797218323
  0
VERTEX
  8
0
 10
1791.573486328125
 20
456.795166015625
 42
-0
  0
VERTEX
  8
0
 10
1786.8956298828125
 20
456.81558227539062
 42
0.35456797480583191
  0
SEQEND
  0
POLYLINE
  8
0
 10
0
 20
0
 39
0
 70
1
 66
1
  0
VERTEX
  8
0
 10
1756.36181640625
 20
837.0494384765625
 42
1
  0
VERTEX
  8
0
 10
1755.8382568359375
 20
717.05059814453125
 42
1
  0
SEQEND
  0
POLYLINE
  8
0
 10
0
 20
0
 39
0
 70
1
 66
1
  0
VERTEX
  8
0
 10
1786.4046630859375
 20
770.5208740234375
 42
-0.092692576348781586
  0
VERTEX
  8
0
 10
1781.9976806640625
 20
760.01153564453125
 42
0.35456797480583191
  0
VERTEX
  8
0
 10
1782.060302734375
 20
759.38470458984375
 42
0
  0
VERTEX
  8
0
 10
1785.3536376953125
 20
756.0625
 42
-0.41421356797218323
  0
VERTEX
  8
0
 10
1785.3505859375
 20
755.35540771484375
 42
0
  0
VERTEX
  8
0
 10
1777.5384521484375
 20
747.61126708984375
 42
-0.41421356797218323
  0
VERTEX
  8
0
 10
1776.8314208984375
 20
747.61431884765625
 42
-0
  0
VERTEX
  8
0
 10
1773.5380859375
 20
750.9365234375
 42
0.35456797480583191
  0
VERTEX
  8
0
 10
1772.911865234375
 20
751.004638671875
 42
-0.092692576348781586
  0
VERTEX
  8
0
 10
1762.3643798828125
 20
746.6895751953125
 42
0.35456797480583191
  0
VERTEX
  8
0
 10
1761.9654541015625
 20
746.2020263671875
 42
0
  0
VERTEX
  8
0
 10
1761.945068359375
 20
741.524169921875
 42
-0.41421356797218323
  0
VERTEX
  8
0
 10
1761.44287109375
 20
741.0263671875
 42
0
  0
VERTEX
  8
0
 10
1750.4429931640625
 20
741.0743408203125
 42
-0.41421356797218323
  0
VERTEX
  8
0
 10
1749.9451904296875
 20
741.5765380859375
 42
-0
  0
VERTEX
  8
0
 10
1749.965576171875
 20
746.25439453125
 42
0.35456797480583191
  0
VERTEX
  8
0
 10
1749.5709228515625
 20
746.745361328125
 42
-0.092692449688911438
  0
VERTEX
  8
0
 10
1739.0615234375
 20
751.15228271484375
 42
0.35456797480583191
  0
VERTEX
  8
0
 10
1738.4346923828125
 20
751.0897216796875
 42
0
  0
VERTEX
  8
0
 10
1735.112548828125
 20
747.79638671875
 42
-0.41421356797218323
  0
VERTEX
  8
0
 10
1734.4053955078125
 20
747.7994384765625
 42
0
  0
VERTEX
  8
0
 10
1726.6612548828125
 20
755.61151123046875
 42
-0.41421356797218323
  0
VERTEX
  8
0
 10
1726.664306640625
 20
756.318603515625
 42
-0
  0
VERTEX
  8
0
 10
1729.986572265625
 20
759.6119384765625
 42
0.35456797480583191
  0
VERTEX
  8
0
 10
1730.0545654296875
 20
760.2381591796875
 42
-0.092692442238330841
  0
VERTEX
  8
0
 10
1725.739501953125
 20
770.78558349609375
 42
0.35456806421279907
  0
VERTEX
  8
0
 10
1725.2520751953125
 20
771.1845703125
 42
0
  0
VERTEX
  8
0
 10
1720.5740966796875
 20
771.2049560546875
 42
-0.41421356797218323
  0
VERTEX
  8
0
 10
1720.0762939453125
 20
771.7071533203125
 42
0
  0
VERTEX
  8
0
 10
1720.1243896484375
 20
782.70703125
 42
-0.41421356797218323
  0
VERTEX
  8
0
 10
1720.62646484375
 20
783.204833984375
 42
-0
  0
VERTEX
  8
0
 10
1725.304443359375
 20
783.1844482421875
 42
0.35456806421279907
  0
VERTEX
  8
0
 10
1725.79541015625
 20
783.5791015625
 42
-0.092692442238330841
  0
VERTEX
  8
0
 10
1730.2022705078125
 20
794.0885009765625
 42
0.35456806421279907
  0
VERTEX
  8
0
 10
1730.1396484375
 20
794.71527099609375
 42
0
  0
VERTEX
  8
0
 10
1726.8463134765625
 20
798.0374755859375
 42
-0.41421356797218323
  0
VERTEX
  8
0
 10
1726.8494873046875
 20
798.74456787109375
 42
0
  0
VERTEX
  8
0
 10
1734.6614990234375
 20
806.48876953125
 42
-0.41421356797218323
  0
VERTEX
  8
0
 10
1735.3685302734375
 20
806.48565673828125
 42
-0
  0
VERTEX
  8
0
 10
1738.661865234375
 20
803.1634521484375
 42
0.35456806421279907
  0
VERTEX
  8
0
 10
1739.2882080078125
 20
803.09539794921875
 42
-0.092692442238330841
  0
VERTEX
  8
0
 10
1749.8355712890625
 20
807.41046142578125
 42
0.35456806421279907
  0
VERTEX
  8
0
 10
1750.2344970703125
 20
807.89794921875
 42
0
  0
VERTEX
  8
0
 10
1750.2550048828125
 20
812.57586669921875
 42
-0.41421356797218323
  0
VERTEX
  8
0
 10
1750.757080078125
 20
813.07366943359375
 42
0
  0
VERTEX
  8
0
 10
1761.757080078125
 20
813.025634765625
 42
-0.41421356797218323
  0
VERTEX
  8
0
 10
1762.2548828125
 20
812.52349853515625
 42
-0
  0
VERTEX
  8
0
 10
1762.234375
 20
807.8455810546875
 42
0.35456797480583191
  0
VERTEX
  8
0
 10
1762.629150390625
 20
807.3546142578125
 42
-0.092692442238330841
  0
VERTEX
  8
0
 10
1773.138427734375
 20
802.94769287109375
 42
0.35456797480583191
  0
VERTEX
  8
0
 10
1773.7652587890625
 20
803.01031494140625
 42
0
  0
VERTEX
  8
0
 10
1777.0875244140625
 20
806.30364990234375
 42
-0.41421356797218323
  0
VERTEX
  8
0
 10
1777.7945556640625
 20
806.300537109375
 42
0
  0
VERTEX
  8
0
 10
1785.5386962890625
 20
798.488525390625
 42
-0.41421356797218323
  0
VERTEX
  8
0
 10
1785.53564453125
 20
797.78143310546875
 42
-0
  0
VERTEX
  8
0
 10
1782.2135009765625
 20
794.48809814453125
 42
0.35456797480583191
  0
VERTEX
  8
0
 10
1782.1453857421875
 20
793.86181640625
 42
-0.092692509293556213
  0
VERTEX
  8
0
 10
1786.46044921875
 20
783.31439208984375
 42
0.35456797480583191
  0
VERTEX
  8
0
 10
1786.947998046875
 20
782.91546630859375
 42
0
  0
VERTEX
  8
0
 10
1791.6258544921875
 20
782.89501953125
 42
-0.41421356797218323
  0
VERTEX
  8
0
 10
1792.1236572265625
 20
782.39288330078125
 42
0
  0
VERTEX
  8
0
 10
1792.07568359375
 20
771.3929443359375
 42
-0.41421356797218323
  0
VERTEX
  8
0
 10
1791.573486328125
 20
770.8951416015625
 42
-0
  0
VERTEX
  8
0
 10
1786.8956298828125
 20
770.91558837890625
 42
0.35456797480583191
  0
SEQEND
  0
POLYLINE
  8
0
 10
0
 20
0
 39
0
 70
1
 66
1
  0
VERTEX
  8
0
 10
1420.8499755859375
 20
884.45001220703125
 42
-0
  0
VERTEX
  8
0
 10
1420.8499755859375
 20
974.45001220703125
 42
0
  0
VERTEX
  8
0
 10
1330.8499755859375
 20
884.45001220703125
 42
0
  0
SEQEND
  0
POLYLINE
  8
0
 10
0
 20
0
 39
0
 70
1
 66
1
  0
VERTEX
  8
0
 10
1411.8359375
 20
910.913818359375
 42
-1
  0
VERTEX
  8
0
 10
1381.8359375
 20
910.913818359375
 42
-1
  0
SEQEND
  0
POLYLINE
  8
0
 10
0
 20
0
 39
0
 70
1
 66
1
  0
VERTEX
  8
0
 10
1330.8499755859375
 20
988.760009765625
 42
-0
  0
VERTEX
  8
0
 10
1330.8499755859375
 20
898.760009765625
 42
0
  0
VERTEX
  8
0
 10
1420.8499755859375
 20
988.760009765625
 42
0
  0
SEQEND
  0
POLYLINE
  8
0
 10
0
 20
0
 39
0
 70
1
 66
1
  0
VERTEX
  8
0
 10
1339.864013671875
 20
962.29620361328125
 42
-1
  0
VERTEX
  8
0
 10
1369.864013671875
 20
962.29620361328125
 42
-1
  0
SEQEND
  0
POLYLINE
  8
0
 10
0
 20
0
 39
0
 70
1
 66
1
  0
VERTEX
  8
0
 10
1521.050048828125
 20
884.45001220703125
 42
-0
  0
VERTEX
  8
0
 10
1521.050048828125
 20
974.45001220703125
 42
0
  0
VERTEX
  8
0
 10
1431.050048828125
 20
884.45001220703125
 42
0
  0
SEQEND
  0
POLYLINE
  8
0
 10
0
 20
0
 39
0
 70
1
 66
1
  0
VERTEX
  8
0
 10
1512.035888671875
 20
910.913818359375
 42
-1
  0
VERTEX
  8
0
 10
1482.035888671875
 20
910.913818359375
 42
-1
  0
SEQEND
  0
POLYLINE
  8
0
 10
0
 20
0
 39
0
 70
1
 66
1
  0
VERTEX
  8
0
 10
1431.050048828125
 20
988.760009765625
 42
-0
  0
VERTEX
  8
0
 10
1431.050048828125
 20
898.760009765625
 42
0
  0
VERTEX
  8
0
 10
1521.050048828125
 20
988.760009765625
 42
0
  0
SEQEND
  0
POLYLINE
  8
0
 10
0
 20
0
 39
0
 70
1
 66
1
  0
VERTEX
  8
0
 10
1440.0640869140625
 20
962.29620361328125
 42
-1
  0
VERTEX
  8
0
 10
1470.0640869140625
 20
962.29620361328125
 42
-1
  0
SEQEND
  0
POLYLINE
  8
0
 10
0
 20
0
 39
0
 70
1
 66
1
  0
VERTEX
  8
0
 10
1621.25
 20
884.45001220703125
 42
-0
  0
VERTEX
  8
0
 10
1621.25
 20
974.45001220703125
 42
0
  0
VERTEX
  8
0
 10
1531.25
 20
884.45001220703125
 42
0
  0
SEQEND
  0
POLYLINE
  8
0
 10
0
 20
0
 39
0
 70
1
 66
1
  0
VERTEX
  8
0
 10
1612.2359619140625
 20
910.913818359375
 42
-1
  0
VERTEX
  8
0
 10
1582.2359619140625
 20
910.913818359375
 42
-1
  0
SEQEND
  0
POLYLINE
  8
0
 10
0
 20
0
 39
0
 70
1
 66
1
  0
VERTEX
  8
0
 10
1531.25
 20
988.760009765625
 42
-0
  0
VERTEX
  8
0
 10
1531.25
 20
898.760009765625
 42
0
  0
VERTEX
  8
0
 10
1621.25
 20
988.760009765625
 42
0
  0
SEQEND
  0
POLYLINE
  8
0
 10
0
 20
0
 39
0
 70
1
 66
1
  0
VERTEX
  8
0
 10
1540.2640380859375
 20
962.29620361328125
 42
-1
  0
VERTEX
  8
0
 10
1570.2640380859375
 20
962.29620361328125
 42
-1
  0
SEQEND
  0
POLYLINE
  8
0
 10
0
 20
0
 39
0
 70
1
 66
1
  0
VERTEX
  8
0
 10
246.80000305175781
 20
195.35000610351562
 42
0
  0
VERTEX
  8
0
 10
286.79998779296875
 20
195.35000610351562
 42
0
  0
VERTEX
  8
0
 10
286.79998779296875
 20
305.35000610351562
 42
0
  0
VERTEX
  8
0
 10
246.80000305175781
 20
305.35000610351562
 42
0
  0
SEQEND
  0
POLYLINE
  8
0
 10
0
 20
0
 39
0
 70
1
 66
1
  0
VERTEX
  8
0
 10
254.8026123046875
 20
209.65544128417969
 42
-0
  0
VERTEX
  8
0
 10
254.8026123046875
 20
291.65545654296875
 42
-0
  0
VERTEX
  8
0
 10
278.79067993164062
 20
250.65544128417969
 42
-0
  0
SEQEND
  0
POLYLINE
  8
0
 10
0
 20
0
 39
0
 70
1
 66
1
  0
VERTEX
  8
0
 10
246.80000305175781
 20
632.45001220703125
 42
0
  0
VERTEX
  8
0
 10
286.79998779296875
 20
632.45001220703125
 42
0
  0
VERTEX
  8
0
 10
286.79998779296875
 20
742.45001220703125
 42
0
  0
VERTEX
  8
0
 10
246.80000305175781
 20
742.45001220703125
 42
0
  0
SEQEND
  0
POLYLINE
  8
0
 10
0
 20
0
 39
0
 70
1
 66
1
  0
VERTEX
  8
0
 10
254.8026123046875
 20
646.75543212890625
 42
-0
  0
VERTEX
  8
0
 10
254.8026123046875
 20
728.75543212890625
 42
-0
  0
VERTEX
  8
0
 10
278.79067993164062
 20
687.75543212890625
 42
-0
  0
SEQEND
  0
POLYLINE
  8
0
 10
0
 20
0
 39
0
 70
1
 66
1
  0
VERTEX
  8
0
 10
662.9000244140625
 20
195.35000610351562
 42
0
  0
VERTEX
  8
0
 10
702.9000244140625
 20
195.35000610351562
 42
0
  0
VERTEX
  8
0
 10
702.9000244140625
 20
305.35000610351562
 42
0
  0
VERTEX
  8
0
 10
662.9000244140625
 20
305.35000610351562
 42
0
  0
SEQEND
  0
POLYLINE
  8
0
 10
0
 20
0
 39
0
 70
1
 66
1
  0
VERTEX
  8
0
 10
670.90264892578125
 20
209.65544128417969
 42
-0
  0
VERTEX
  8
0
 10
670.90264892578125
 20
291.65545654296875
 42
-0
  0
VERTEX
  8
0
 10
694.89068603515625
 20
250.65544128417969
 42
-0
  0
SEQEND
  0
POLYLINE
  8
0
 10
0
 20
0
 39
0
 70
1
 66
1
  0
VERTEX
  8
0
 10
662.9000244140625
 20
632.45001220703125
 42
0
  0
VERTEX
  8
0
 10
702.9000244140625
 20
632.45001220703125
 42
0
  0
VERTEX
  8
0
 10
702.9000244140625
 20
742.45001220703125
 42
0
  0
VERTEX
  8
0
 10
662.9000244140625
 20
742.45001220703125
 42
0
  0
SEQEND
  0
POLYLINE
  8
0
 10
0
 20
0
 39
0
 70
1
 66
1
  0
VERTEX
  8
0
 10
670.90264892578125
 20
646.75543212890625
 42
-0
  0
VERTEX
  8
0
 10
670.90264892578125
 20
728.75543212890625
 42
-0
  0
VERTEX
  8
0
 10
694.89068603515625
 20
687.75543212890625
 42
-0
  0
SEQEND
  0
POLYLINE
  8
0
 10
0
 20
0
 39
0
 70
1
 66
1
  0
VERTEX
  8
0
 10
1079
 20
195.35000610351562
 42
0
  0
VERTEX
  8
0
 10
1119
 20
195.35000610351562
 42
0
  0
VERTEX
  8
0
 10
1119
 20
305.35000610351562
 42
0
  0
VERTEX
  8
0
 10
1079
 20
305.35000610351562
 42
0
  0
SEQEND
  0
POLYLINE
  8
0
 10
0
 20
0
 39
0
 70
1
 66
1
  0
VERTEX
  8
0
 10
1087.0025634765625
 20
209.65544128417969
 42
-0
  0
VERTEX
  8
0
 10
1087.0025634765625
 20
291.65545654296875
 42
-0
  0
VERTEX
  8
0
 10
1110.99072265625
 20
250.65544128417969
 42
-0
  0
SEQEND
  0
POLYLINE
  8
0
 10
0
 20
0
 39
0
 70
1
 66
1
  0
VERTEX
  8
0
 10
1079
 20
632.45001220703125
 42
0
  0
VERTEX
  8
0
 10
1119
 20
632.45001220703125
 42
0
  0
VERTEX
  8
0
 10
1119
 20
742.45001220703125
 42
0
  0
VERTEX
  8
0
 10
1079
 20
742.45001220703125
 42
0
  0
SEQEND
  0
POLYLINE
  8
0
 10
0
 20
0
 39
0
 70
1
 66
1
  0
VERTEX
  8
0
 10
1087.0025634765625
 20
646.75543212890625
 42
-0
  0
VERTEX
  8
0
 10
1087.0025634765625
 20
728.75543212890625
 42
-0
  0
VERTEX
  8
0
 10
1110.99072265625
 20
687.75543212890625
 42
-0
  0
SEQEND
  0
POLYLINE
  8
0
 10
0
 20
0
 39
0
 70
1
 66
1
  0
VERTEX
  8
0
 10
1495.0999755859375
 20
195.35000610351562
 42
0
  0
VERTEX
  8
0
 10
1535.0999755859375
 20
195.35000610351562
 42
0
  0
VERTEX
  8
0
 10
1535.0999755859375
 20
305.35000610351562
 42
0
  0
VERTEX
  8
0
 10
1495.0999755859375
 20
305.35000610351562
 42
0
  0
SEQEND
  0
POLYLINE
  8
0
 10
0
 20
0
 39
0
 70
1
 66
1
  0
VERTEX
  8
0
 10
1503.1026611328125
 20
209.65544128417969
 42
-0
  0
VERTEX
  8
0
 10
1503.1026611328125
 20
291.65545654296875
 42
-0
  0
VERTEX
  8
0
 10
1527.0906982421875
 20
250.65544128417969
 42
-0
  0
SEQEND
  0
POLYLINE
  8
0
 10
0
 20
0
 39
0
 70
1
 66
1
  0
VERTEX
  8
0
 10
1495.0999755859375
 20
632.45001220703125
 42
0
  0
VERTEX
  8
0
 10
1535.0999755859375
 20
632.45001220703125
 42
0
  0
VERTEX
  8
0
 10
1535.0999755859375
 20
742.45001220703125
 42
0
  0
VERTEX
  8
0
 10
1495.0999755859375
 20
742.45001220703125
 42
0
  0
SEQEND
  0
POLYLINE
  8
0
 10
0
 20
0
 39
0
 70
1
 66
1
  0
VERTEX
  8
0
 10
1503.1026611328125
 20
646.75543212890625
 42
-0
  0
VERTEX
  8
0
 10
1503.1026611328125
 20
728.75543212890625
 42
-0
  0
VERTEX
  8
0
 10
1527.0906982421875
 20
687.75543212890625
 42
-0
  0
SEQEND
  0
POLYLINE
  8
0
 10
0
 20
0
 39
0
 70
1
 66
1
  0
VERTEX
  8
0
 10
1826.300048828125
 20
80.300003051757813
 42
0
  0
VERTEX
  8
0
 10
1866.300048828125
 20
80.300003051757813
 42
0
  0
VERTEX
  8
0
 10
1866.300048828125
 20
190.30000305175781
 42
0
  0
VERTEX
  8
0
 10
1826.300048828125
 20
190.30000305175781
 42
0
  0
SEQEND
  0
POLYLINE
  8
0
 10
0
 20
0
 39
0
 70
1
 66
1
  0
VERTEX
  8
0
 10
1834.3026123046875
 20
94.605445861816406
 42
-0
  0
VERTEX
  8
0
 10
1834.3026123046875
 20
176.60545349121094
 42
-0
  0
VERTEX
  8
0
 10
1858.2906494140625
 20
135.60545349121094
 42
-0
  0
SEQEND
  0
POLYLINE
  8
0
 10
0
 20
0
 39
0
 70
1
 66
1
  0
VERTEX
  8
0
 10
1826.300048828125
 20
394.39999389648437
 42
0
  0
VERTEX
  8
0
 10
1866.300048828125
 20
394.39999389648437
 42
0
  0
VERTEX
  8
0
 10
1866.300048828125
 20
504.39999389648437
 42
0
  0
VERTEX
  8
0
 10
1826.300048828125
 20
504.39999389648437
 42
0
  0
SEQEND
  0
POLYLINE
  8
0
 10
0
 20
0
 39
0
 70
1
 66
1
  0
VERTEX
  8
0
 10
1834.3026123046875
 20
408.7054443359375
 42
-0
  0
VERTEX
  8
0
 10
1834.3026123046875
 20
490.7054443359375
 42
-0
  0
VERTEX
  8
0
 10
1858.2906494140625
 20
449.7054443359375
 42
-0
  0
SEQEND
  0
POLYLINE
  8
0
 10
0
 20
0
 39
0
 70
1
 66
1
  0
VERTEX
  8
0
 10
1826.300048828125
 20
708.5
 42
0
  0
VERTEX
  8
0
 10
1866.300048828125
 20
708.5
 42
0
  0
VERTEX
  8
0
 10
1866.300048828125
 20
818.5
 42
0
  0
VERTEX
  8
0
 10
1826.300048828125
 20
818.5
 42
0
  0
SEQEND
  0
POLYLINE
  8
0
 10
0
 20
0
 39
0
 70
1
 66
1
  0
VERTEX
  8
0
 10
1834.3026123046875
 20
722.805419921875
 42
-0
  0
VERTEX
  8
0
 10
1834.3026123046875
 20
804.805419921875
 42
-0
  0
VERTEX
  8
0
 10
1858.2906494140625
 20
763.805419921875
 42
-0
  0
SEQEND
  0
ENDSEC
  0
EOF
