  0
SECTION
  2
ENTITIES
  0
POLYLINE
  8
0
 10
0
 20
0
 39
0
 70
1
 66
1
  0
VERTEX
  8
0
 10
0
 20
0
 42
0
  0
VERTEX
  8
0
 10
1200
 20
0
 42
0
  0
VERTEX
  8
0
 10
1200
 20
600
 42
0
  0
VERTEX
  8
0
 10
0
 20
600
 42
0
  0
SEQEND
  0
POLYLINE
  8
0
 10
0
 20
0
 39
0
 70
1
 66
1
  0
VERTEX
  8
0
 10
10.160000000000014
 20
10.159999999999997
 42
-0
  0
VERTEX
  8
0
 10
10.16
 20
245.83123413085937
 42
-0
  0
VERTEX
  8
0
 10
210.16000190734866
 20
245.83123413085937
 42
0
  0
VERTEX
  8
0
 10
210.16000190734866
 20
37.552411947250377
 42
0
  0
VERTEX
  8
0
 10
181.70542732238772
 20
10.160000000000007
 42
0
  0
SEQEND
  0
POLYLINE
  8
0
 10
0
 20
0
 39
0
 70
1
 66
1
  0
VERTEX
  8
0
 10
22.704972419738784
 20
25.996812973022458
 42
0
  0
VERTEX
  8
0
 10
122.70496955871583
 20
25.996812973022465
 42
0
  0
VERTEX
  8
0
 10
122.70496955871583
 20
105.99681488037109
 42
0
  0
VERTEX
  8
0
 10
22.70497241973878
 20
105.99681488037109
 42
0
  0
SEQEND
  0
POLYLINE
  8
0
 10
0
 20
0
 39
0
 70
1
 66
1
  0
VERTEX
  8
0
 10
44.752857360839847
 20
201.12446228027343
 42
-0
  0
VERTEX
  8
0
 10
44.752857360839855
 20
125.1244546508789
 42
-0
  0
VERTEX
  8
0
 10
141.72530189514163
 20
125.1244546508789
 42
0
  0
VERTEX
  8
0
 10
141.72530189514163
 20
95.410308990478512
 42
0
  0
VERTEX
  8
0
 10
176.7252942657471
 20
95.410308990478512
 42
1
  0
SEQEND
  0
POLYLINE
  8
0
 10
0
 20
0
 39
0
 70
1
 66
1
  0
VERTEX
  8
0
 10
10.160000000000014
 20
255.91999999999996
 42
-0
  0
VERTEX
  8
0
 10
10.16
 20
491.59123413085933
 42
-0
  0
VERTEX
  8
0
 10
210.16000190734866
 20
491.59123413085933
 42
0
  0
VERTEX
  8
0
 10
210.16000190734866
 20
283.31241194725033
 42
0
  0
VERTEX
  8
0
 10
181.70542732238772
 20
255.91999999999996
 42
0
  0
SEQEND
  0
POLYLINE
  8
0
 10
0
 20
0
 39
0
 70
1
 66
1
  0
VERTEX
  8
0
 10
22.704972419738784
 20
271.75681297302242
 42
0
  0
VERTEX
  8
0
 10
122.70496955871583
 20
271.75681297302242
 42
0
  0
VERTEX
  8
0
 10
122.70496955871583
 20
351.75681488037105
 42
0
  0
VERTEX
  8
0
 10
22.70497241973878
 20
351.75681488037105
 42
0
  0
SEQEND
  0
POLYLINE
  8
0
 10
0
 20
0
 39
0
 70
1
 66
1
  0
VERTEX
  8
0
 10
44.752857360839847
 20
446.8844622802734
 42
-0
  0
VERTEX
  8
0
 10
44.752857360839855
 20
370.88445465087887
 42
-0
  0
VERTEX
  8
0
 10
141.72530189514163
 20
370.88445465087887
 42
0
  0
VERTEX
  8
0
 10
141.72530189514163
 20
341.17030899047847
 42
0
  0
VERTEX
  8
0
 10
176.7252942657471
 20
341.17030899047847
 42
1
  0
SEQEND
  0
POLYLINE
  8
0
 10
0
 20
0
 39
0
 70
1
 66
1
  0
VERTEX
  8
0
 10
220.39999999999998
 20
10.159999999999997
 42
-0
  0
VERTEX
  8
0
 10
220.39999999999998
 20
245.83123413085937
 42
-0
  0
VERTEX
  8
0
 10
420.40000190734861
 20
245.83123413085937
 42
0
  0
VERTEX
  8
0
 10
420.40000190734861
 20
37.552411947250377
 42
0
  0
VERTEX
  8
0
 10
391.94542732238767
 20
10.160000000000007
 42
0
  0
SEQEND
  0
POLYLINE
  8
0
 10
0
 20
0
 39
0
 70
1
 66
1
  0
VERTEX
  8
0
 10
232.94497241973875
 20
25.996812973022458
 42
0
  0
VERTEX
  8
0
 10
332.9449695587158
 20
25.996812973022465
 42
0
  0
VERTEX
  8
0
 10
332.9449695587158
 20
105.99681488037109
 42
0
  0
VERTEX
  8
0
 10
232.94497241973875
 20
105.99681488037109
 42
0
  0
SEQEND
  0
POLYLINE
  8
0
 10
0
 20
0
 39
0
 70
1
 66
1
  0
VERTEX
  8
0
 10
254.99285736083982
 20
201.12446228027343
 42
-0
  0
VERTEX
  8
0
 10
254.99285736083982
 20
125.1244546508789
 42
-0
  0
VERTEX
  8
0
 10
351.96530189514158
 20
125.1244546508789
 42
0
  0
VERTEX
  8
0
 10
351.96530189514158
 20
95.410308990478512
 42
0
  0
VERTEX
  8
0
 10
386.96529426574705
 20
95.410308990478512
 42
1
  0
SEQEND
  0
POLYLINE
  8
0
 10
0
 20
0
 39
0
 70
1
 66
1
  0
VERTEX
  8
0
 10
305.0508797039414
 20
589.11918780503288
 42
-1
  0
VERTEX
  8
0
 10
304.30911715246236
 20
419.12080905137077
 42
-1
  0
SEQEND
  0
POLYLINE
  8
0
 10
0
 20
0
 39
0
 70
1
 66
1
  0
VERTEX
  8
0
 10
304.40074664411566
 20
440.12060877976432
 42
1
  0
VERTEX
  8
0
 10
304.95925021228811
 20
568.11938807663932
 42
1
  0
SEQEND
  0
POLYLINE
  8
0
 10
0
 20
0
 39
0
 70
1
 66
1
  0
VERTEX
  8
0
 10
381.85087970394136
 20
425.91918780503295
 42
-1
  0
VERTEX
  8
0
 10
381.10911715246232
 20
255.92080905137084
 42
-1
  0
SEQEND
  0
POLYLINE
  8
0
 10
0
 20
0
 39
0
 70
1
 66
1
  0
VERTEX
  8
0
 10
381.20074664411561
 20
276.92060877976439
 42
1
  0
VERTEX
  8
0
 10
381.75925021228807
 20
404.91938807663939
 42
1
  0
SEQEND
  0
POLYLINE
  8
0
 10
0
 20
0
 39
0
 70
1
 66
1
  0
VERTEX
  8
0
 10
484.8108797039414
 20
573.99918780503299
 42
-1
  0
VERTEX
  8
0
 10
484.06911715246235
 20
404.00080905137082
 42
-1
  0
SEQEND
  0
POLYLINE
  8
0
 10
0
 20
0
 39
0
 70
1
 66
1
  0
VERTEX
  8
0
 10
484.16074664411565
 20
425.00060877976438
 42
1
  0
VERTEX
  8
0
 10
484.7192502122881
 20
552.99938807663943
 42
1
  0
SEQEND
  0
POLYLINE
  8
0
 10
0
 20
0
 39
0
 70
1
 66
1
  0
VERTEX
  8
0
 10
553.74437011718749
 20
173.35879150390625
 42
0
  0
VERTEX
  8
0
 10
553.74437011718749
 20
118.35879150390626
 42
0
  0
VERTEX
  8
0
 10
508.74437011718749
 20
118.35879150390625
 42
0
  0
VERTEX
  8
0
 10
508.74437011718749
 20
10.160000000000005
 42
-0
  0
VERTEX
  8
0
 10
430.63999999999999
 20
10.16
 42
-0
  0
VERTEX
  8
0
 10
430.63999999999999
 20
93.00127044677734
 42
-0
  0
VERTEX
  8
0
 10
456.33233512878417
 20
93.00127044677734
 42
-0
  0
VERTEX
  8
0
 10
456.33233512878417
 20
137.35879150390625
 42
-0
  0
VERTEX
  8
0
 10
484.19842208862303
 20
137.35879150390625
 42
0
  0
VERTEX
  8
0
 10
484.19842208862303
 20
173.35879150390625
 42
0
  0
SEQEND
  0
POLYLINE
  8
0
 10
0
 20
0
 39
0
 70
1
 66
1
  0
VERTEX
  8
0
 10
525.87413848876952
 20
126.2710610961914
 42
1
  0
VERTEX
  8
0
 10
525.87413848876952
 20
165.44651428222656
 42
1
  0
SEQEND
  0
POLYLINE
  8
0
 10
0
 20
0
 39
0
 70
1
 66
1
  0
VERTEX
  8
0
 10
431.83999999999992
 20
183.44000000000003
 42
0
  0
VERTEX
  8
0
 10
431.83999999999992
 20
238.44000000000003
 42
0
  0
VERTEX
  8
0
 10
476.83999999999992
 20
238.44000000000005
 42
0
  0
VERTEX
  8
0
 10
476.83999999999992
 20
346.6387915039063
 42
-0
  0
VERTEX
  8
0
 10
554.94437011718742
 20
346.6387915039063
 42
-0
  0
VERTEX
  8
0
 10
554.94437011718742
 20
263.79752105712896
 42
-0
  0
VERTEX
  8
0
 10
529.25203498840324
 20
263.79752105712896
 42
-0
  0
VERTEX
  8
0
 10
529.25203498840324
 20
219.44000000000005
 42
-0
  0
VERTEX
  8
0
 10
501.38594802856437
 20
219.44000000000005
 42
0
  0
VERTEX
  8
0
 10
501.38594802856437
 20
183.44000000000005
 42
0
  0
SEQEND
  0
POLYLINE
  8
0
 10
0
 20
0
 39
0
 70
1
 66
1
  0
VERTEX
  8
0
 10
459.71023162841789
 20
230.5277304077149
 42
1
  0
VERTEX
  8
0
 10
459.71023162841789
 20
191.35227722167971
 42
1
  0
SEQEND
  0
POLYLINE
  8
0
 10
0
 20
0
 39
0
 70
1
 66
1
  0
VERTEX
  8
0
 10
519.19999999999993
 20
10.159999999999997
 42
0
  0
VERTEX
  8
0
 10
519.19999999999993
 20
65.159999999999997
 42
0
  0
VERTEX
  8
0
 10
564.19999999999993
 20
65.160000000000011
 42
0
  0
VERTEX
  8
0
 10
564.19999999999993
 20
173.35879150390625
 42
-0
  0
VERTEX
  8
0
 10
642.30437011718743
 20
173.35879150390628
 42
-0
  0
VERTEX
  8
0
 10
642.30437011718743
 20
90.517521057128931
 42
-0
  0
VERTEX
  8
0
 10
616.61203498840325
 20
90.517521057128931
 42
-0
  0
VERTEX
  8
0
 10
616.61203498840325
 20
46.160000000000025
 42
-0
  0
VERTEX
  8
0
 10
588.74594802856438
 20
46.160000000000011
 42
0
  0
VERTEX
  8
0
 10
588.74594802856438
 20
10.160000000000025
 42
0
  0
SEQEND
  0
POLYLINE
  8
0
 10
0
 20
0
 39
0
 70
1
 66
1
  0
VERTEX
  8
0
 10
547.0702316284179
 20
57.247730407714855
 42
1
  0
VERTEX
  8
0
 10
547.0702316284179
 20
18.072277221679684
 42
1
  0
SEQEND
  0
POLYLINE
  8
0
 10
0
 20
0
 39
0
 70
1
 66
1
  0
VERTEX
  8
0
 10
539.48000000000002
 20
183.44000000000003
 42
0
  0
VERTEX
  8
0
 10
539.48000000000002
 20
238.44000000000003
 42
0
  0
VERTEX
  8
0
 10
584.48000000000002
 20
238.44000000000005
 42
0
  0
VERTEX
  8
0
 10
584.48000000000002
 20
346.6387915039063
 42
-0
  0
VERTEX
  8
0
 10
662.58437011718752
 20
346.6387915039063
 42
-0
  0
VERTEX
  8
0
 10
662.58437011718752
 20
263.79752105712896
 42
-0
  0
VERTEX
  8
0
 10
636.89203498840334
 20
263.79752105712896
 42
-0
  0
VERTEX
  8
0
 10
636.89203498840334
 20
219.44000000000005
 42
-0
  0
VERTEX
  8
0
 10
609.02594802856447
 20
219.44000000000005
 42
0
  0
VERTEX
  8
0
 10
609.02594802856447
 20
183.44000000000005
 42
0
  0
SEQEND
  0
POLYLINE
  8
0
 10
0
 20
0
 39
0
 70
1
 66
1
  0
VERTEX
  8
0
 10
567.35023162841799
 20
230.5277304077149
 42
1
  0
VERTEX
  8
0
 10
567.35023162841799
 20
191.35227722167971
 42
1
  0
SEQEND
  0
POLYLINE
  8
0
 10
0
 20
0
 39
0
 70
1
 66
1
  0
VERTEX
  8
0
 10
10.159999999999997
 20
571.67999999999995
 42
-0
  0
VERTEX
  8
0
 10
182.16
 20
571.67999999999995
 42
-0
  0
VERTEX
  8
0
 10
182.16
 20
513.67999999999995
 42
-0
  0
VERTEX
  8
0
 10
170.16
 20
501.67999999999995
 42
-0
  0
VERTEX
  8
0
 10
22.159999999999997
 20
501.67999999999995
 42
-0
  0
VERTEX
  8
0
 10
10.159999999999997
 20
513.67999999999995
 42
-0
  0
SEQEND
  0
POLYLINE
  8
0
 10
0
 20
0
 39
0
 70
1
 66
1
  0
VERTEX
  8
0
 10
135.66
 20
536.67999999999995
 42
1
  0
VERTEX
  8
0
 10
116.66
 20
536.67999999999995
 42
1
  0
SEQEND
  0
POLYLINE
  8
0
 10
0
 20
0
 39
0
 70
1
 66
1
  0
VERTEX
  8
0
 10
75.659999999999997
 20
536.67999999999995
 42
1
  0
VERTEX
  8
0
 10
56.659999999999997
 20
536.67999999999995
 42
1
  0
SEQEND
  0
POLYLINE
  8
0
 10
0
 20
0
 39
0
 70
1
 66
1
  0
VERTEX
  8
0
 10
649.55999999999995
 20
528.72000000000003
 42
-0
  0
VERTEX
  8
0
 10
649.55999999999995
 20
356.71999999999997
 42
-0
  0
VERTEX
  8
0
 10
591.55999999999995
 20
356.71999999999997
 42
-0
  0
VERTEX
  8
0
 10
579.55999999999995
 20
368.71999999999997
 42
-0
  0
VERTEX
  8
0
 10
579.55999999999995
 20
516.72000000000003
 42
-0
  0
VERTEX
  8
0
 10
591.55999999999995
 20
528.72000000000003
 42
-0
  0
SEQEND
  0
POLYLINE
  8
0
 10
0
 20
0
 39
0
 70
1
 66
1
  0
VERTEX
  8
0
 10
614.55999999999995
 20
403.21999999999997
 42
1
  0
VERTEX
  8
0
 10
614.55999999999995
 20
422.21999999999997
 42
1
  0
SEQEND
  0
POLYLINE
  8
0
 10
0
 20
0
 39
0
 70
1
 66
1
  0
VERTEX
  8
0
 10
614.55999999999995
 20
463.21999999999997
 42
1
  0
VERTEX
  8
0
 10
614.55999999999995
 20
482.21999999999997
 42
1
  0
SEQEND
  0
POLYLINE
  8
0
 10
0
 20
0
 39
0
 70
1
 66
1
  0
VERTEX
  8
0
 10
722.51999999999998
 20
182.16
 42
-0
  0
VERTEX
  8
0
 10
722.51999999999998
 20
10.160000000000002
 42
-0
  0
VERTEX
  8
0
 10
664.51999999999998
 20
10.159999999999998
 42
-0
  0
VERTEX
  8
0
 10
652.51999999999998
 20
22.159999999999997
 42
-0
  0
VERTEX
  8
0
 10
652.51999999999998
 20
170.16
 42
-0
  0
VERTEX
  8
0
 10
664.51999999999998
 20
182.16
 42
-0
  0
SEQEND
  0
POLYLINE
  8
0
 10
0
 20
0
 39
0
 70
1
 66
1
  0
VERTEX
  8
0
 10
687.51999999999998
 20
56.659999999999997
 42
1
  0
VERTEX
  8
0
 10
687.51999999999998
 20
75.659999999999997
 42
1
  0
SEQEND
  0
POLYLINE
  8
0
 10
0
 20
0
 39
0
 70
1
 66
1
  0
VERTEX
  8
0
 10
687.51999999999998
 20
116.66
 42
1
  0
VERTEX
  8
0
 10
687.51999999999998
 20
135.66
 42
1
  0
SEQEND
  0
POLYLINE
  8
0
 10
0
 20
0
 39
0
 70
1
 66
1
  0
VERTEX
  8
0
 10
729.71999999999991
 20
523.91999999999996
 42
-0
  0
VERTEX
  8
0
 10
729.71999999999991
 20
351.91999999999996
 42
-0
  0
VERTEX
  8
0
 10
671.71999999999991
 20
351.91999999999996
 42
-0
  0
VERTEX
  8
0
 10
659.71999999999991
 20
363.91999999999996
 42
-0
  0
VERTEX
  8
0
 10
659.71999999999991
 20
511.91999999999996
 42
-0
  0
VERTEX
  8
0
 10
671.71999999999991
 20
523.91999999999996
 42
-0
  0
SEQEND
  0
POLYLINE
  8
0
 10
0
 20
0
 39
0
 70
1
 66
1
  0
VERTEX
  8
0
 10
694.71999999999991
 20
398.41999999999996
 42
1
  0
VERTEX
  8
0
 10
694.71999999999991
 20
417.41999999999996
 42
1
  0
SEQEND
  0
POLYLINE
  8
0
 10
0
 20
0
 39
0
 70
1
 66
1
  0
VERTEX
  8
0
 10
694.71999999999991
 20
458.41999999999996
 42
1
  0
VERTEX
  8
0
 10
694.71999999999991
 20
477.41999999999996
 42
1
  0
SEQEND
  0
POLYLINE
  8
0
 10
0
 20
0
 39
0
 70
1
 66
1
  0
VERTEX
  8
0
 10
799.79999999999995
 20
349.44
 42
-0
  0
VERTEX
  8
0
 10
799.79999999999995
 20
177.44
 42
-0
  0
VERTEX
  8
0
 10
741.79999999999995
 20
177.44
 42
-0
  0
VERTEX
  8
0
 10
729.79999999999995
 20
189.44
 42
-0
  0
VERTEX
  8
0
 10
729.79999999999995
 20
337.44
 42
-0
  0
VERTEX
  8
0
 10
741.79999999999995
 20
349.44
 42
-0
  0
SEQEND
  0
POLYLINE
  8
0
 10
0
 20
0
 39
0
 70
1
 66
1
  0
VERTEX
  8
0
 10
764.79999999999995
 20
223.94
 42
1
  0
VERTEX
  8
0
 10
764.79999999999995
 20
242.94
 42
1
  0
SEQEND
  0
POLYLINE
  8
0
 10
0
 20
0
 39
0
 70
1
 66
1
  0
VERTEX
  8
0
 10
764.79999999999995
 20
283.94
 42
1
  0
VERTEX
  8
0
 10
764.79999999999995
 20
302.94
 42
1
  0
SEQEND
  0
POLYLINE
  8
0
 10
0
 20
0
 39
0
 70
1
 66
1
  0
VERTEX
  8
0
 10
809.88
 20
531.48000000000002
 42
-0
  0
VERTEX
  8
0
 10
809.88
 20
359.47999999999996
 42
-0
  0
VERTEX
  8
0
 10
751.88
 20
359.47999999999996
 42
-0
  0
VERTEX
  8
0
 10
739.88
 20
371.47999999999996
 42
-0
  0
VERTEX
  8
0
 10
739.88
 20
519.48000000000002
 42
-0
  0
VERTEX
  8
0
 10
751.88
 20
531.48000000000002
 42
-0
  0
SEQEND
  0
POLYLINE
  8
0
 10
0
 20
0
 39
0
 70
1
 66
1
  0
VERTEX
  8
0
 10
774.88
 20
405.97999999999996
 42
1
  0
VERTEX
  8
0
 10
774.88
 20
424.97999999999996
 42
1
  0
SEQEND
  0
POLYLINE
  8
0
 10
0
 20
0
 39
0
 70
1
 66
1
  0
VERTEX
  8
0
 10
774.88
 20
465.97999999999996
 42
1
  0
VERTEX
  8
0
 10
774.88
 20
484.97999999999996
 42
1
  0
SEQEND
  0
POLYLINE
  8
0
 10
0
 20
0
 39
0
 70
1
 66
1
  0
VERTEX
  8
0
 10
865.95999999999992
 20
187.8087716273603
 42
-0
  0
VERTEX
  8
0
 10
865.9599953354508
 20
17.511232393198924
 42
-0.26254403591156006
  0
VERTEX
  8
0
 10
809.95999999999992
 20
17.511232393198924
 42
-0
  0
VERTEX
  8
0
 10
809.96000381469719
 20
187.80877448838325
 42
-0.26254400610923767
  0
SEQEND
  0
POLYLINE
  8
0
 10
0
 20
0
 39
0
 70
1
 66
1
  0
VERTEX
  8
0
 10
837.95999999999992
 20
177.1600055865583
 42
1
  0
VERTEX
  8
0
 10
837.95999999999992
 20
153.1600055865583
 42
1
  0
SEQEND
  0
POLYLINE
  8
0
 10
0
 20
0
 39
0
 70
1
 66
1
  0
VERTEX
  8
0
 10
827.95999999999992
 20
46.793260591441111
 42
-0
  0
VERTEX
  8
0
 10
827.95999999999992
 20
33.526750581675486
 42
3.3166251182556152
  0
SEQEND
  0
POLYLINE
  8
0
 10
0
 20
0
 39
0
 70
1
 66
1
  0
VERTEX
  8
0
 10
876.03999999999996
 20
382.80877162736033
 42
-0
  0
VERTEX
  8
0
 10
876.03999533545084
 20
212.51123239319895
 42
-0.26254403591156006
  0
VERTEX
  8
0
 10
820.03999999999996
 20
212.51123239319895
 42
-0
  0
VERTEX
  8
0
 10
820.04000381469723
 20
382.80877448838328
 42
-0.26254400610923767
  0
SEQEND
  0
POLYLINE
  8
0
 10
0
 20
0
 39
0
 70
1
 66
1
  0
VERTEX
  8
0
 10
848.03999999999996
 20
372.16000558655833
 42
1
  0
VERTEX
  8
0
 10
848.03999999999996
 20
348.16000558655833
 42
1
  0
SEQEND
  0
POLYLINE
  8
0
 10
0
 20
0
 39
0
 70
1
 66
1
  0
VERTEX
  8
0
 10
838.03999999999996
 20
241.79326059144114
 42
-0
  0
VERTEX
  8
0
 10
838.03999999999996
 20
228.52675058167551
 42
3.3166251182556152
  0
SEQEND
  0
POLYLINE
  8
0
 10
0
 20
0
 39
0
 70
1
 66
1
  0
VERTEX
  8
0
 10
876.03999999999996
 20
577.92877162736022
 42
-0
  0
VERTEX
  8
0
 10
876.03999533545084
 20
407.63123239319884
 42
-0.26254403591156006
  0
VERTEX
  8
0
 10
820.03999999999996
 20
407.63123239319884
 42
-0
  0
VERTEX
  8
0
 10
820.04000381469723
 20
577.92877448838317
 42
-0.26254400610923767
  0
SEQEND
  0
POLYLINE
  8
0
 10
0
 20
0
 39
0
 70
1
 66
1
  0
VERTEX
  8
0
 10
848.03999999999996
 20
567.28000558655822
 42
1
  0
VERTEX
  8
0
 10
848.03999999999996
 20
543.28000558655822
 42
1
  0
SEQEND
  0
POLYLINE
  8
0
 10
0
 20
0
 39
0
 70
1
 66
1
  0
VERTEX
  8
0
 10
838.03999999999996
 20
436.91326059144103
 42
-0
  0
VERTEX
  8
0
 10
838.03999999999996
 20
423.64675058167541
 42
3.3166251182556152
  0
SEQEND
  0
POLYLINE
  8
0
 10
0
 20
0
 39
0
 70
1
 66
1
  0
VERTEX
  8
0
 10
932.07999999999993
 20
187.8087716273603
 42
-0
  0
VERTEX
  8
0
 10
932.0799953354508
 20
17.511232393198924
 42
-0.26254403591156006
  0
VERTEX
  8
0
 10
876.07999999999993
 20
17.511232393198924
 42
-0
  0
VERTEX
  8
0
 10
876.08000381469719
 20
187.80877448838325
 42
-0.26254400610923767
  0
SEQEND
  0
POLYLINE
  8
0
 10
0
 20
0
 39
0
 70
1
 66
1
  0
VERTEX
  8
0
 10
904.07999999999993
 20
177.1600055865583
 42
1
  0
VERTEX
  8
0
 10
904.07999999999993
 20
153.1600055865583
 42
1
  0
SEQEND
  0
POLYLINE
  8
0
 10
0
 20
0
 39
0
 70
1
 66
1
  0
VERTEX
  8
0
 10
894.07999999999993
 20
46.793260591441111
 42
-0
  0
VERTEX
  8
0
 10
894.07999999999993
 20
33.526750581675486
 42
3.3166251182556152
  0
SEQEND
  0
POLYLINE
  8
0
 10
0
 20
0
 39
0
 70
1
 66
1
  0
VERTEX
  8
0
 10
942.15999999999997
 20
382.80877162736033
 42
-0
  0
VERTEX
  8
0
 10
942.15999533545084
 20
212.51123239319895
 42
-0.26254403591156006
  0
VERTEX
  8
0
 10
886.15999999999997
 20
212.51123239319895
 42
-0
  0
VERTEX
  8
0
 10
886.16000381469723
 20
382.80877448838328
 42
-0.26254400610923767
  0
SEQEND
  0
POLYLINE
  8
0
 10
0
 20
0
 39
0
 70
1
 66
1
  0
VERTEX
  8
0
 10
914.15999999999997
 20
372.16000558655833
 42
1
  0
VERTEX
  8
0
 10
914.15999999999997
 20
348.16000558655833
 42
1
  0
SEQEND
  0
POLYLINE
  8
0
 10
0
 20
0
 39
0
 70
1
 66
1
  0
VERTEX
  8
0
 10
904.15999999999997
 20
241.79326059144114
 42
-0
  0
VERTEX
  8
0
 10
904.15999999999997
 20
228.52675058167551
 42
3.3166251182556152
  0
SEQEND
  0
POLYLINE
  8
0
 10
0
 20
0
 39
0
 70
1
 66
1
  0
VERTEX
  8
0
 10
942.15999999999997
 20
577.92877162736022
 42
-0
  0
VERTEX
  8
0
 10
942.15999533545084
 20
407.63123239319884
 42
-0.26254403591156006
  0
VERTEX
  8
0
 10
886.15999999999997
 20
407.63123239319884
 42
-0
  0
VERTEX
  8
0
 10
886.16000381469723
 20
577.92877448838317
 42
-0.26254400610923767
  0
SEQEND
  0
POLYLINE
  8
0
 10
0
 20
0
 39
0
 70
1
 66
1
  0
VERTEX
  8
0
 10
914.15999999999997
 20
567.28000558655822
 42
1
  0
VERTEX
  8
0
 10
914.15999999999997
 20
543.28000558655822
 42
1
  0
SEQEND
  0
POLYLINE
  8
0
 10
0
 20
0
 39
0
 70
1
 66
1
  0
VERTEX
  8
0
 10
904.15999999999997
 20
436.91326059144103
 42
-0
  0
VERTEX
  8
0
 10
904.15999999999997
 20
423.64675058167541
 42
3.3166251182556152
  0
SEQEND
  0
POLYLINE
  8
0
 10
0
 20
0
 39
0
 70
1
 66
1
  0
VERTEX
  8
0
 10
942.19999999999993
 20
20.159999999999997
 42
-0
  0
VERTEX
  8
0
 10
942.19999999999993
 20
130.16
 42
-0
  0
VERTEX
  8
0
 10
952.19999999999993
 20
140.16
 42
-0
  0
VERTEX
  8
0
 10
1002.1999999999999
 20
140.16
 42
-0
  0
VERTEX
  8
0
 10
1012.1999999999999
 20
130.16
 42
-0
  0
VERTEX
  8
0
 10
1012.1999999999999
 20
20.160000000000004
 42
-0
  0
VERTEX
  8
0
 10
1002.1999999999999
 20
10.160000000000002
 42
-0
  0
VERTEX
  8
0
 10
952.19999999999993
 20
10.159999999999998
 42
-0
  0
SEQEND
  0
POLYLINE
  8
0
 10
0
 20
0
 39
0
 70
1
 66
1
  0
VERTEX
  8
0
 10
977.19999999999993
 20
46.159999999999997
 42
1
  0
VERTEX
  8
0
 10
977.19999999999993
 20
104.16
 42
1
  0
SEQEND
  0
POLYLINE
  8
0
 10
0
 20
0
 39
0
 70
1
 66
1
  0
VERTEX
  8
0
 10
977.19999999999993
 20
16.66
 42
1
  0
VERTEX
  8
0
 10
977.19999999999993
 20
28.660000000000004
 42
1
  0
SEQEND
  0
POLYLINE
  8
0
 10
0
 20
0
 39
0
 70
1
 66
1
  0
VERTEX
  8
0
 10
977.19999999999993
 20
121.66
 42
1
  0
VERTEX
  8
0
 10
977.19999999999993
 20
133.66
 42
1
  0
SEQEND
  0
POLYLINE
  8
0
 10
0
 20
0
 39
0
 70
1
 66
1
  0
VERTEX
  8
0
 10
952.27999999999997
 20
160.19999999999999
 42
-0
  0
VERTEX
  8
0
 10
952.27999999999997
 20
270.19999999999999
 42
-0
  0
VERTEX
  8
0
 10
962.27999999999997
 20
280.19999999999999
 42
-0
  0
VERTEX
  8
0
 10
1012.28
 20
280.19999999999999
 42
-0
  0
VERTEX
  8
0
 10
1022.28
 20
270.19999999999999
 42
-0
  0
VERTEX
  8
0
 10
1022.28
 20
160.19999999999999
 42
-0
  0
VERTEX
  8
0
 10
1012.28
 20
150.19999999999999
 42
-0
  0
VERTEX
  8
0
 10
962.27999999999997
 20
150.19999999999999
 42
-0
  0
SEQEND
  0
POLYLINE
  8
0
 10
0
 20
0
 39
0
 70
1
 66
1
  0
VERTEX
  8
0
 10
987.27999999999997
 20
186.19999999999999
 42
1
  0
VERTEX
  8
0
 10
987.27999999999997
 20
244.19999999999999
 42
1
  0
SEQEND
  0
POLYLINE
  8
0
 10
0
 20
0
 39
0
 70
1
 66
1
  0
VERTEX
  8
0
 10
987.27999999999997
 20
156.69999999999999
 42
1
  0
VERTEX
  8
0
 10
987.27999999999997
 20
168.69999999999999
 42
1
  0
SEQEND
  0
POLYLINE
  8
0
 10
0
 20
0
 39
0
 70
1
 66
1
  0
VERTEX
  8
0
 10
987.27999999999997
 20
261.69999999999999
 42
1
  0
VERTEX
  8
0
 10
987.27999999999997
 20
273.69999999999999
 42
1
  0
SEQEND
  0
POLYLINE
  8
0
 10
0
 20
0
 39
0
 70
1
 66
1
  0
VERTEX
  8
0
 10
952.27999999999997
 20
300.23999999999995
 42
-0
  0
VERTEX
  8
0
 10
952.27999999999997
 20
410.23999999999995
 42
-0
  0
VERTEX
  8
0
 10
962.27999999999997
 20
420.23999999999995
 42
-0
  0
VERTEX
  8
0
 10
1012.28
 20
420.23999999999995
 42
-0
  0
VERTEX
  8
0
 10
1022.28
 20
410.23999999999995
 42
-0
  0
VERTEX
  8
0
 10
1022.28
 20
300.23999999999995
 42
-0
  0
VERTEX
  8
0
 10
1012.28
 20
290.23999999999995
 42
-0
  0
VERTEX
  8
0
 10
962.27999999999997
 20
290.23999999999995
 42
-0
  0
SEQEND
  0
POLYLINE
  8
0
 10
0
 20
0
 39
0
 70
1
 66
1
  0
VERTEX
  8
0
 10
987.27999999999997
 20
326.23999999999995
 42
1
  0
VERTEX
  8
0
 10
987.27999999999997
 20
384.23999999999995
 42
1
  0
SEQEND
  0
POLYLINE
  8
0
 10
0
 20
0
 39
0
 70
1
 66
1
  0
VERTEX
  8
0
 10
987.27999999999997
 20
296.73999999999995
 42
1
  0
VERTEX
  8
0
 10
987.27999999999997
 20
308.73999999999995
 42
1
  0
SEQEND
  0
POLYLINE
  8
0
 10
0
 20
0
 39
0
 70
1
 66
1
  0
VERTEX
  8
0
 10
987.27999999999997
 20
401.73999999999995
 42
1
  0
VERTEX
  8
0
 10
987.27999999999997
 20
413.73999999999995
 42
1
  0
SEQEND
  0
POLYLINE
  8
0
 10
0
 20
0
 39
0
 70
1
 66
1
  0
VERTEX
  8
0
 10
952.27999999999997
 20
440.27999999999997
 42
-0
  0
VERTEX
  8
0
 10
952.27999999999997
 20
550.27999999999997
 42
-0
  0
VERTEX
  8
0
 10
962.27999999999997
 20
560.27999999999997
 42
-0
  0
VERTEX
  8
0
 10
1012.28
 20
560.27999999999997
 42
-0
  0
VERTEX
  8
0
 10
1022.28
 20
550.27999999999997
 42
-0
  0
VERTEX
  8
0
 10
1022.28
 20
440.27999999999997
 42
-0
  0
VERTEX
  8
0
 10
1012.28
 20
430.27999999999997
 42
-0
  0
VERTEX
  8
0
 10
962.27999999999997
 20
430.27999999999997
 42
-0
  0
SEQEND
  0
POLYLINE
  8
0
 10
0
 20
0
 39
0
 70
1
 66
1
  0
VERTEX
  8
0
 10
987.27999999999997
 20
466.27999999999997
 42
1
  0
VERTEX
  8
0
 10
987.27999999999997
 20
524.27999999999997
 42
1
  0
SEQEND
  0
POLYLINE
  8
0
 10
0
 20
0
 39
0
 70
1
 66
1
  0
VERTEX
  8
0
 10
987.27999999999997
 20
436.77999999999997
 42
1
  0
VERTEX
  8
0
 10
987.27999999999997
 20
448.77999999999997
 42
1
  0
SEQEND
  0
POLYLINE
  8
0
 10
0
 20
0
 39
0
 70
1
 66
1
  0
VERTEX
  8
0
 10
987.27999999999997
 20
541.77999999999997
 42
1
  0
VERTEX
  8
0
 10
987.27999999999997
 20
553.77999999999997
 42
1
  0
SEQEND
  0
POLYLINE
  8
0
 10
0
 20
0
 39
0
 70
1
 66
1
  0
VERTEX
  8
0
 10
1022.3599999999999
 20
20.159999999999997
 42
-0
  0
VERTEX
  8
0
 10
1022.3599999999999
 20
130.16
 42
-0
  0
VERTEX
  8
0
 10
1032.3599999999999
 20
140.16
 42
-0
  0
VERTEX
  8
0
 10
1082.3599999999999
 20
140.16
 42
-0
  0
VERTEX
  8
0
 10
1092.3599999999999
 20
130.16
 42
-0
  0
VERTEX
  8
0
 10
1092.3599999999999
 20
20.160000000000004
 42
-0
  0
VERTEX
  8
0
 10
1082.3599999999999
 20
10.160000000000002
 42
-0
  0
VERTEX
  8
0
 10
1032.3599999999999
 20
10.159999999999998
 42
-0
  0
SEQEND
  0
POLYLINE
  8
0
 10
0
 20
0
 39
0
 70
1
 66
1
  0
VERTEX
  8
0
 10
1057.3599999999999
 20
46.159999999999997
 42
1
  0
VERTEX
  8
0
 10
1057.3599999999999
 20
104.16
 42
1
  0
SEQEND
  0
POLYLINE
  8
0
 10
0
 20
0
 39
0
 70
1
 66
1
  0
VERTEX
  8
0
 10
1057.3599999999999
 20
16.66
 42
1
  0
VERTEX
  8
0
 10
1057.3599999999999
 20
28.660000000000004
 42
1
  0
SEQEND
  0
POLYLINE
  8
0
 10
0
 20
0
 39
0
 70
1
 66
1
  0
VERTEX
  8
0
 10
1057.3599999999999
 20
121.66
 42
1
  0
VERTEX
  8
0
 10
1057.3599999999999
 20
133.66
 42
1
  0
SEQEND
  0
POLYLINE
  8
0
 10
0
 20
0
 39
0
 70
1
 66
1
  0
VERTEX
  8
0
 10
1032.4399999999998
 20
160.19999999999999
 42
-0
  0
VERTEX
  8
0
 10
1032.4399999999998
 20
270.19999999999999
 42
-0
  0
VERTEX
  8
0
 10
1042.4399999999998
 20
280.19999999999999
 42
-0
  0
VERTEX
  8
0
 10
1092.4399999999998
 20
280.19999999999999
 42
-0
  0
VERTEX
  8
0
 10
1102.4399999999998
 20
270.19999999999999
 42
-0
  0
VERTEX
  8
0
 10
1102.4399999999998
 20
160.19999999999999
 42
-0
  0
VERTEX
  8
0
 10
1092.4399999999998
 20
150.19999999999999
 42
-0
  0
VERTEX
  8
0
 10
1042.4399999999998
 20
150.19999999999999
 42
-0
  0
SEQEND
  0
POLYLINE
  8
0
 10
0
 20
0
 39
0
 70
1
 66
1
  0
VERTEX
  8
0
 10
1067.4399999999998
 20
186.19999999999999
 42
1
  0
VERTEX
  8
0
 10
1067.4399999999998
 20
244.19999999999999
 42
1
  0
SEQEND
  0
POLYLINE
  8
0
 10
0
 20
0
 39
0
 70
1
 66
1
  0
VERTEX
  8
0
 10
1067.4399999999998
 20
156.69999999999999
 42
1
  0
VERTEX
  8
0
 10
1067.4399999999998
 20
168.69999999999999
 42
1
  0
SEQEND
  0
POLYLINE
  8
0
 10
0
 20
0
 39
0
 70
1
 66
1
  0
VERTEX
  8
0
 10
1067.4399999999998
 20
261.69999999999999
 42
1
  0
VERTEX
  8
0
 10
1067.4399999999998
 20
273.69999999999999
 42
1
  0
SEQEND
  0
POLYLINE
  8
0
 10
0
 20
0
 39
0
 70
1
 66
1
  0
VERTEX
  8
0
 10
1032.4399999999998
 20
300.23999999999995
 42
-0
  0
VERTEX
  8
0
 10
1032.4399999999998
 20
410.23999999999995
 42
-0
  0
VERTEX
  8
0
 10
1042.4399999999998
 20
420.23999999999995
 42
-0
  0
VERTEX
  8
0
 10
1092.4399999999998
 20
420.23999999999995
 42
-0
  0
VERTEX
  8
0
 10
1102.4399999999998
 20
410.23999999999995
 42
-0
  0
VERTEX
  8
0
 10
1102.4399999999998
 20
300.23999999999995
 42
-0
  0
VERTEX
  8
0
 10
1092.4399999999998
 20
290.23999999999995
 42
-0
  0
VERTEX
  8
0
 10
1042.4399999999998
 20
290.23999999999995
 42
-0
  0
SEQEND
  0
POLYLINE
  8
0
 10
0
 20
0
 39
0
 70
1
 66
1
  0
VERTEX
  8
0
 10
1067.4399999999998
 20
326.23999999999995
 42
1
  0
VERTEX
  8
0
 10
1067.4399999999998
 20
384.23999999999995
 42
1
  0
SEQEND
  0
POLYLINE
  8
0
 10
0
 20
0
 39
0
 70
1
 66
1
  0
VERTEX
  8
0
 10
1067.4399999999998
 20
296.73999999999995
 42
1
  0
VERTEX
  8
0
 10
1067.4399999999998
 20
308.73999999999995
 42
1
  0
SEQEND
  0
POLYLINE
  8
0
 10
0
 20
0
 39
0
 70
1
 66
1
  0
VERTEX
  8
0
 10
1067.4399999999998
 20
401.73999999999995
 42
1
  0
VERTEX
  8
0
 10
1067.4399999999998
 20
413.73999999999995
 42
1
  0
SEQEND
  0
POLYLINE
  8
0
 10
0
 20
0
 39
0
 70
1
 66
1
  0
VERTEX
  8
0
 10
1032.4399999999998
 20
440.27999999999997
 42
-0
  0
VERTEX
  8
0
 10
1032.4399999999998
 20
550.27999999999997
 42
-0
  0
VERTEX
  8
0
 10
1042.4399999999998
 20
560.27999999999997
 42
-0
  0
VERTEX
  8
0
 10
1092.4399999999998
 20
560.27999999999997
 42
-0
  0
VERTEX
  8
0
 10
1102.4399999999998
 20
550.27999999999997
 42
-0
  0
VERTEX
  8
0
 10
1102.4399999999998
 20
440.27999999999997
 42
-0
  0
VERTEX
  8
0
 10
1092.4399999999998
 20
430.27999999999997
 42
-0
  0
VERTEX
  8
0
 10
1042.4399999999998
 20
430.27999999999997
 42
-0
  0
SEQEND
  0
POLYLINE
  8
0
 10
0
 20
0
 39
0
 70
1
 66
1
  0
VERTEX
  8
0
 10
1067.4399999999998
 20
466.27999999999997
 42
1
  0
VERTEX
  8
0
 10
1067.4399999999998
 20
524.27999999999997
 42
1
  0
SEQEND
  0
POLYLINE
  8
0
 10
0
 20
0
 39
0
 70
1
 66
1
  0
VERTEX
  8
0
 10
1067.4399999999998
 20
436.77999999999997
 42
1
  0
VERTEX
  8
0
 10
1067.4399999999998
 20
448.77999999999997
 42
1
  0
SEQEND
  0
POLYLINE
  8
0
 10
0
 20
0
 39
0
 70
1
 66
1
  0
VERTEX
  8
0
 10
1067.4399999999998
 20
541.77999999999997
 42
1
  0
VERTEX
  8
0
 10
1067.4399999999998
 20
553.77999999999997
 42
1
  0
SEQEND
  0
POLYLINE
  8
0
 10
0
 20
0
 39
0
 70
1
 66
1
  0
VERTEX
  8
0
 10
1102.52
 20
20.159999999999997
 42
-0
  0
VERTEX
  8
0
 10
1102.52
 20
130.16
 42
-0
  0
VERTEX
  8
0
 10
1112.52
 20
140.16
 42
-0
  0
VERTEX
  8
0
 10
1162.52
 20
140.16
 42
-0
  0
VERTEX
  8
0
 10
1172.52
 20
130.16
 42
-0
  0
VERTEX
  8
0
 10
1172.52
 20
20.160000000000004
 42
-0
  0
VERTEX
  8
0
 10
1162.52
 20
10.160000000000002
 42
-0
  0
VERTEX
  8
0
 10
1112.52
 20
10.159999999999998
 42
-0
  0
SEQEND
  0
POLYLINE
  8
0
 10
0
 20
0
 39
0
 70
1
 66
1
  0
VERTEX
  8
0
 10
1137.52
 20
46.159999999999997
 42
1
  0
VERTEX
  8
0
 10
1137.52
 20
104.16
 42
1
  0
SEQEND
  0
POLYLINE
  8
0
 10
0
 20
0
 39
0
 70
1
 66
1
  0
VERTEX
  8
0
 10
1137.52
 20
16.66
 42
1
  0
VERTEX
  8
0
 10
1137.52
 20
28.660000000000004
 42
1
  0
SEQEND
  0
POLYLINE
  8
0
 10
0
 20
0
 39
0
 70
1
 66
1
  0
VERTEX
  8
0
 10
1137.52
 20
121.66
 42
1
  0
VERTEX
  8
0
 10
1137.52
 20
133.66
 42
1
  0
SEQEND
  0
POLYLINE
  8
0
 10
0
 20
0
 39
0
 70
1
 66
1
  0
VERTEX
  8
0
 10
1112.5999999999999
 20
160.19999999999999
 42
-0
  0
VERTEX
  8
0
 10
1112.5999999999999
 20
270.19999999999999
 42
-0
  0
VERTEX
  8
0
 10
1122.5999999999999
 20
280.19999999999999
 42
-0
  0
VERTEX
  8
0
 10
1172.5999999999999
 20
280.19999999999999
 42
-0
  0
VERTEX
  8
0
 10
1182.5999999999999
 20
270.19999999999999
 42
-0
  0
VERTEX
  8
0
 10
1182.5999999999999
 20
160.19999999999999
 42
-0
  0
VERTEX
  8
0
 10
1172.5999999999999
 20
150.19999999999999
 42
-0
  0
VERTEX
  8
0
 10
1122.5999999999999
 20
150.19999999999999
 42
-0
  0
SEQEND
  0
POLYLINE
  8
0
 10
0
 20
0
 39
0
 70
1
 66
1
  0
VERTEX
  8
0
 10
1147.5999999999999
 20
186.19999999999999
 42
1
  0
VERTEX
  8
0
 10
1147.5999999999999
 20
244.19999999999999
 42
1
  0
SEQEND
  0
POLYLINE
  8
0
 10
0
 20
0
 39
0
 70
1
 66
1
  0
VERTEX
  8
0
 10
1147.5999999999999
 20
156.69999999999999
 42
1
  0
VERTEX
  8
0
 10
1147.5999999999999
 20
168.69999999999999
 42
1
  0
SEQEND
  0
POLYLINE
  8
0
 10
0
 20
0
 39
0
 70
1
 66
1
  0
VERTEX
  8
0
 10
1147.5999999999999
 20
261.69999999999999
 42
1
  0
VERTEX
  8
0
 10
1147.5999999999999
 20
273.69999999999999
 42
1
  0
SEQEND
  0
POLYLINE
  8
0
 10
0
 20
0
 39
0
 70
1
 66
1
  0
VERTEX
  8
0
 10
89.92000051740257
 20
164.11170227050781
 42
-0
  0
VERTEX
  8
0
 10
89.92000051740257
 20
135.31999999999999
 42
-0
  0
VERTEX
  8
0
 10
64.92000051740257
 20
135.31999999999999
 42
-0
  0
VERTEX
  8
0
 10
64.92000051740257
 20
164.11170227050781
 42
-3.2966630458831787
  0
SEQEND
  0
POLYLINE
  8
0
 10
0
 20
0
 39
0
 70
1
 66
1
  0
VERTEX
  8
0
 10
89.92000051740257
 20
182.82001525878906
 42
1
  0
VERTEX
  8
0
 10
64.92000051740257
 20
182.82001525878906
 42
1
  0
SEQEND
  0
POLYLINE
  8
0
 10
0
 20
0
 39
0
 70
1
 66
1
  0
VERTEX
  8
0
 10
89.92000051740257
 20
409.8717022705078
 42
-0
  0
VERTEX
  8
0
 10
89.92000051740257
 20
381.07999999999998
 42
-0
  0
VERTEX
  8
0
 10
64.92000051740257
 20
381.07999999999998
 42
-0
  0
VERTEX
  8
0
 10
64.92000051740257
 20
409.8717022705078
 42
-3.2966630458831787
  0
SEQEND
  0
POLYLINE
  8
0
 10
0
 20
0
 39
0
 70
1
 66
1
  0
VERTEX
  8
0
 10
89.92000051740257
 20
428.58001525878905
 42
1
  0
VERTEX
  8
0
 10
64.92000051740257
 20
428.58001525878905
 42
1
  0
SEQEND
  0
POLYLINE
  8
0
 10
0
 20
0
 39
0
 70
1
 66
1
  0
VERTEX
  8
0
 10
61.631702270507816
 20
46.200000517402586
 42
-0
  0
VERTEX
  8
0
 10
32.840000000000003
 20
46.200000517402586
 42
-0
  0
VERTEX
  8
0
 10
32.840000000000003
 20
71.200000517402586
 42
-0
  0
VERTEX
  8
0
 10
61.631702270507816
 20
71.200000517402586
 42
-3.2966630458831787
  0
SEQEND
  0
POLYLINE
  8
0
 10
0
 20
0
 39
0
 70
1
 66
1
  0
VERTEX
  8
0
 10
80.340015258789066
 20
46.200000517402586
 42
1
  0
VERTEX
  8
0
 10
80.340015258789066
 20
71.200000517402586
 42
1
  0
SEQEND
  0
POLYLINE
  8
0
 10
0
 20
0
 39
0
 70
1
 66
1
  0
VERTEX
  8
0
 10
61.631702270507816
 20
291.96000051740253
 42
-0
  0
VERTEX
  8
0
 10
32.840000000000003
 20
291.96000051740253
 42
-0
  0
VERTEX
  8
0
 10
32.840000000000003
 20
316.96000051740253
 42
-0
  0
VERTEX
  8
0
 10
61.631702270507816
 20
316.96000051740253
 42
-3.2966630458831787
  0
SEQEND
  0
POLYLINE
  8
0
 10
0
 20
0
 39
0
 70
1
 66
1
  0
VERTEX
  8
0
 10
80.340015258789066
 20
291.96000051740253
 42
1
  0
VERTEX
  8
0
 10
80.340015258789066
 20
316.96000051740253
 42
1
  0
SEQEND
  0
POLYLINE
  8
0
 10
0
 20
0
 39
0
 70
1
 66
1
  0
VERTEX
  8
0
 10
114.24000051740259
 20
176.52828807353978
 42
-0
  0
VERTEX
  8
0
 10
114.24000051740258
 20
205.3199903440476
 42
-0
  0
VERTEX
  8
0
 10
139.24000051740256
 20
205.3199903440476
 42
-0
  0
VERTEX
  8
0
 10
139.24000051740256
 20
176.52828807353978
 42
-3.2966630458831787
  0
SEQEND
  0
POLYLINE
  8
0
 10
0
 20
0
 39
0
 70
1
 66
1
  0
VERTEX
  8
0
 10
114.24000051740259
 20
157.81997508525853
 42
1
  0
VERTEX
  8
0
 10
139.24000051740256
 20
157.81997508525853
 42
1
  0
SEQEND
  0
POLYLINE
  8
0
 10
0
 20
0
 39
0
 70
1
 66
1
  0
VERTEX
  8
0
 10
114.24000051740259
 20
422.28828807353977
 42
-0
  0
VERTEX
  8
0
 10
114.24000051740258
 20
451.07999034404759
 42
-0
  0
VERTEX
  8
0
 10
139.24000051740256
 20
451.07999034404759
 42
-0
  0
VERTEX
  8
0
 10
139.24000051740256
 20
422.28828807353977
 42
-3.2966630458831787
  0
SEQEND
  0
POLYLINE
  8
0
 10
0
 20
0
 39
0
 70
1
 66
1
  0
VERTEX
  8
0
 10
114.24000051740259
 20
403.57997508525852
 42
1
  0
VERTEX
  8
0
 10
139.24000051740256
 20
403.57997508525852
 42
1
  0
SEQEND
  0
POLYLINE
  8
0
 10
0
 20
0
 39
0
 70
1
 66
1
  0
VERTEX
  8
0
 10
230.16000051740258
 20
297.12828807353981
 42
-0
  0
VERTEX
  8
0
 10
230.16000051740258
 20
325.91999034404762
 42
-0
  0
VERTEX
  8
0
 10
255.16000051740258
 20
325.91999034404762
 42
-0
  0
VERTEX
  8
0
 10
255.16000051740258
 20
297.12828807353981
 42
-3.2966630458831787
  0
SEQEND
  0
POLYLINE
  8
0
 10
0
 20
0
 39
0
 70
1
 66
1
  0
VERTEX
  8
0
 10
230.16000051740258
 20
278.41997508525856
 42
1
  0
VERTEX
  8
0
 10
255.16000051740258
 20
278.41997508525856
 42
1
  0
SEQEND
  0
POLYLINE
  8
0
 10
0
 20
0
 39
0
 70
1
 66
1
  0
VERTEX
  8
0
 10
255.40000051740253
 20
364.75170227050779
 42
-0
  0
VERTEX
  8
0
 10
255.40000051740253
 20
335.95999999999998
 42
-0
  0
VERTEX
  8
0
 10
230.40000051740253
 20
335.95999999999998
 42
-0
  0
VERTEX
  8
0
 10
230.40000051740253
 20
364.75170227050779
 42
-3.2966630458831787
  0
SEQEND
  0
POLYLINE
  8
0
 10
0
 20
0
 39
0
 70
1
 66
1
  0
VERTEX
  8
0
 10
255.40000051740253
 20
383.46001525878904
 42
1
  0
VERTEX
  8
0
 10
230.40000051740253
 20
383.46001525878904
 42
1
  0
SEQEND
  0
POLYLINE
  8
0
 10
0
 20
0
 39
0
 70
1
 66
1
  0
VERTEX
  8
0
 10
263.7600005174026
 20
510.00828807353969
 42
-0
  0
VERTEX
  8
0
 10
263.76000051740255
 20
538.7999903440475
 42
-0
  0
VERTEX
  8
0
 10
288.76000051740255
 20
538.7999903440475
 42
-0
  0
VERTEX
  8
0
 10
288.76000051740255
 20
510.00828807353969
 42
-3.2966630458831787
  0
SEQEND
  0
POLYLINE
  8
0
 10
0
 20
0
 39
0
 70
1
 66
1
  0
VERTEX
  8
0
 10
263.7600005174026
 20
491.29997508525844
 42
1
  0
VERTEX
  8
0
 10
288.76000051740255
 20
491.29997508525844
 42
1
  0
SEQEND
  0
POLYLINE
  8
0
 10
0
 20
0
 39
0
 70
1
 66
1
  0
VERTEX
  8
0
 10
300.16000051740252
 20
164.11170227050781
 42
-0
  0
VERTEX
  8
0
 10
300.16000051740252
 20
135.31999999999999
 42
-0
  0
VERTEX
  8
0
 10
275.16000051740252
 20
135.31999999999999
 42
-0
  0
VERTEX
  8
0
 10
275.16000051740252
 20
164.11170227050781
 42
-3.2966630458831787
  0
SEQEND
  0
POLYLINE
  8
0
 10
0
 20
0
 39
0
 70
1
 66
1
  0
VERTEX
  8
0
 10
300.16000051740252
 20
182.82001525878906
 42
1
  0
VERTEX
  8
0
 10
275.16000051740252
 20
182.82001525878906
 42
1
  0
SEQEND
  0
POLYLINE
  8
0
 10
0
 20
0
 39
0
 70
1
 66
1
  0
VERTEX
  8
0
 10
271.9917022705078
 20
46.200000517402586
 42
-0
  0
VERTEX
  8
0
 10
243.19999999999999
 20
46.200000517402586
 42
-0
  0
VERTEX
  8
0
 10
243.19999999999999
 20
71.200000517402586
 42
-0
  0
VERTEX
  8
0
 10
271.9917022705078
 20
71.200000517402586
 42
-3.2966630458831787
  0
SEQEND
  0
POLYLINE
  8
0
 10
0
 20
0
 39
0
 70
1
 66
1
  0
VERTEX
  8
0
 10
290.70001525878905
 20
46.200000517402586
 42
1
  0
VERTEX
  8
0
 10
290.70001525878905
 20
71.200000517402586
 42
1
  0
SEQEND
  0
POLYLINE
  8
0
 10
0
 20
0
 39
0
 70
1
 66
1
  0
VERTEX
  8
0
 10
334.12000051740256
 20
504.19170227050779
 42
-0
  0
VERTEX
  8
0
 10
334.12000051740256
 20
475.39999999999998
 42
-0
  0
VERTEX
  8
0
 10
309.12000051740256
 20
475.39999999999998
 42
-0
  0
VERTEX
  8
0
 10
309.12000051740256
 20
504.19170227050779
 42
-3.2966630458831787
  0
SEQEND
  0
POLYLINE
  8
0
 10
0
 20
0
 39
0
 70
1
 66
1
  0
VERTEX
  8
0
 10
334.12000051740256
 20
522.90001525878904
 42
1
  0
VERTEX
  8
0
 10
309.12000051740256
 20
522.90001525878904
 42
1
  0
SEQEND
  0
POLYLINE
  8
0
 10
0
 20
0
 39
0
 70
1
 66
1
  0
VERTEX
  8
0
 10
324.48000051740257
 20
176.52828807353978
 42
-0
  0
VERTEX
  8
0
 10
324.48000051740257
 20
205.3199903440476
 42
-0
  0
VERTEX
  8
0
 10
349.48000051740257
 20
205.3199903440476
 42
-0
  0
VERTEX
  8
0
 10
349.48000051740257
 20
176.52828807353978
 42
-3.2966630458831787
  0
SEQEND
  0
POLYLINE
  8
0
 10
0
 20
0
 39
0
 70
1
 66
1
  0
VERTEX
  8
0
 10
324.48000051740257
 20
157.81997508525853
 42
1
  0
VERTEX
  8
0
 10
349.48000051740257
 20
157.81997508525853
 42
1
  0
SEQEND
  0
POLYLINE
  8
0
 10
0
 20
0
 39
0
 70
1
 66
1
  0
VERTEX
  8
0
 10
340.56000051740261
 20
346.80828807353976
 42
-0
  0
VERTEX
  8
0
 10
340.56000051740261
 20
375.59999034404757
 42
-0
  0
VERTEX
  8
0
 10
365.56000051740261
 20
375.59999034404757
 42
-0
  0
VERTEX
  8
0
 10
365.56000051740261
 20
346.80828807353976
 42
-3.2966630458831787
  0
SEQEND
  0
POLYLINE
  8
0
 10
0
 20
0
 39
0
 70
1
 66
1
  0
VERTEX
  8
0
 10
340.56000051740261
 20
328.09997508525851
 42
1
  0
VERTEX
  8
0
 10
365.56000051740261
 20
328.09997508525851
 42
1
  0
SEQEND
  0
POLYLINE
  8
0
 10
0
 20
0
 39
0
 70
1
 66
1
  0
VERTEX
  8
0
 10
410.92000051740251
 20
340.9917022705078
 42
-0
  0
VERTEX
  8
0
 10
410.92000051740251
 20
312.19999999999999
 42
-0
  0
VERTEX
  8
0
 10
385.92000051740251
 20
312.19999999999999
 42
-0
  0
VERTEX
  8
0
 10
385.92000051740251
 20
340.9917022705078
 42
-3.2966630458831787
  0
SEQEND
  0
POLYLINE
  8
0
 10
0
 20
0
 39
0
 70
1
 66
1
  0
VERTEX
  8
0
 10
410.92000051740251
 20
359.70001525878905
 42
1
  0
VERTEX
  8
0
 10
385.92000051740251
 20
359.70001525878905
 42
1
  0
SEQEND
  0
POLYLINE
  8
0
 10
0
 20
0
 39
0
 70
1
 66
1
  0
VERTEX
  8
0
 10
443.52000051740259
 20
494.8882880735398
 42
-0
  0
VERTEX
  8
0
 10
443.52000051740254
 20
523.67999034404761
 42
-0
  0
VERTEX
  8
0
 10
468.52000051740254
 20
523.67999034404761
 42
-0
  0
VERTEX
  8
0
 10
468.52000051740254
 20
494.8882880735398
 42
-3.2966630458831787
  0
SEQEND
  0
POLYLINE
  8
0
 10
0
 20
0
 39
0
 70
1
 66
1
  0
VERTEX
  8
0
 10
443.52000051740259
 20
476.17997508525855
 42
1
  0
VERTEX
  8
0
 10
468.52000051740254
 20
476.17997508525855
 42
1
  0
SEQEND
  0
POLYLINE
  8
0
 10
0
 20
0
 39
0
 70
1
 66
1
  0
VERTEX
  8
0
 10
513.88000051740255
 20
489.07170227050779
 42
-0
  0
VERTEX
  8
0
 10
513.88000051740255
 20
460.27999999999997
 42
-0
  0
VERTEX
  8
0
 10
488.88000051740255
 20
460.27999999999997
 42
-0
  0
VERTEX
  8
0
 10
488.88000051740255
 20
489.07170227050779
 42
-3.2966630458831787
  0
SEQEND
  0
POLYLINE
  8
0
 10
0
 20
0
 39
0
 70
1
 66
1
  0
VERTEX
  8
0
 10
513.88000051740255
 20
507.78001525878904
 42
1
  0
VERTEX
  8
0
 10
488.88000051740255
 20
507.78001525878904
 42
1
  0
SEQEND
  0
POLYLINE
  8
0
 10
0
 20
0
 39
0
 70
1
 66
1
  0
VERTEX
  8
0
 10
508.63170227050779
 20
366.72000051740253
 42
-0
  0
VERTEX
  8
0
 10
479.83999999999997
 20
366.72000051740253
 42
-0
  0
VERTEX
  8
0
 10
479.83999999999997
 20
391.72000051740253
 42
-0
  0
VERTEX
  8
0
 10
508.63170227050779
 20
391.72000051740253
 42
-3.2966630458831787
  0
SEQEND
  0
POLYLINE
  8
0
 10
0
 20
0
 39
0
 70
1
 66
1
  0
VERTEX
  8
0
 10
527.34001525878898
 20
366.72000051740253
 42
1
  0
VERTEX
  8
0
 10
527.34001525878898
 20
391.72000051740253
 42
1
  0
SEQEND
  0
POLYLINE
  8
0
 10
0
 20
0
 39
0
 70
1
 66
1
  0
VERTEX
  8
0
 10
591.2482880735397
 20
579.76000051740266
 42
-0
  0
VERTEX
  8
0
 10
620.03999034404751
 20
579.76000051740266
 42
-0
  0
VERTEX
  8
0
 10
620.03999034404751
 20
554.76000051740266
 42
-0
  0
VERTEX
  8
0
 10
591.2482880735397
 20
554.76000051740266
 42
-3.2966630458831787
  0
SEQEND
  0
POLYLINE
  8
0
 10
0
 20
0
 39
0
 70
1
 66
1
  0
VERTEX
  8
0
 10
572.53997508525845
 20
579.76000051740266
 42
1
  0
VERTEX
  8
0
 10
572.53997508525845
 20
554.76000051740266
 42
1
  0
SEQEND
  0
POLYLINE
  8
0
 10
0
 20
0
 39
0
 70
1
 66
1
  0
VERTEX
  8
0
 10
658.99170227050774
 20
543.96000051740248
 42
-0
  0
VERTEX
  8
0
 10
630.19999999999993
 20
543.96000051740248
 42
-0
  0
VERTEX
  8
0
 10
630.19999999999993
 20
568.96000051740248
 42
-0
  0
VERTEX
  8
0
 10
658.99170227050774
 20
568.96000051740248
 42
-3.2966630458831787
  0
SEQEND
  0
POLYLINE
  8
0
 10
0
 20
0
 39
0
 70
1
 66
1
  0
VERTEX
  8
0
 10
677.70001525878899
 20
543.96000051740248
 42
1
  0
VERTEX
  8
0
 10
677.70001525878899
 20
568.96000051740248
 42
1
  0
SEQEND
  0
POLYLINE
  8
0
 10
0
 20
0
 39
0
 70
1
 66
1
  0
VERTEX
  8
0
 10
697.48000051740246
 20
220.9917022705078
 42
-0
  0
VERTEX
  8
0
 10
697.48000051740246
 20
192.19999999999999
 42
-0
  0
VERTEX
  8
0
 10
672.48000051740246
 20
192.19999999999999
 42
-0
  0
VERTEX
  8
0
 10
672.48000051740246
 20
220.9917022705078
 42
-3.2966630458831787
  0
SEQEND
  0
POLYLINE
  8
0
 10
0
 20
0
 39
0
 70
1
 66
1
  0
VERTEX
  8
0
 10
697.48000051740246
 20
239.70001525878905
 42
1
  0
VERTEX
  8
0
 10
672.48000051740246
 20
239.70001525878905
 42
1
  0
SEQEND
  0
POLYLINE
  8
0
 10
0
 20
0
 39
0
 70
1
 66
1
  0
VERTEX
  8
0
 10
682.80000051740251
 20
312.84828807353983
 42
-0
  0
VERTEX
  8
0
 10
682.80000051740251
 20
341.63999034404765
 42
-0
  0
VERTEX
  8
0
 10
707.80000051740251
 20
341.63999034404765
 42
-0
  0
VERTEX
  8
0
 10
707.80000051740251
 20
312.84828807353983
 42
-3.2966630458831787
  0
SEQEND
  0
POLYLINE
  8
0
 10
0
 20
0
 39
0
 70
1
 66
1
  0
VERTEX
  8
0
 10
682.80000051740251
 20
294.13997508525858
 42
1
  0
VERTEX
  8
0
 10
707.80000051740251
 20
294.13997508525858
 42
1
  0
SEQEND
  0
POLYLINE
  8
0
 10
0
 20
0
 39
0
 70
1
 66
1
  0
VERTEX
  8
0
 10
767.6800005174025
 20
38.951702270507809
 42
-0
  0
VERTEX
  8
0
 10
767.6800005174025
 20
10.159999999999997
 42
-0
  0
VERTEX
  8
0
 10
742.6800005174025
 20
10.159999999999997
 42
-0
  0
VERTEX
  8
0
 10
742.6800005174025
 20
38.951702270507809
 42
-3.2966630458831787
  0
SEQEND
  0
POLYLINE
  8
0
 10
0
 20
0
 39
0
 70
1
 66
1
  0
VERTEX
  8
0
 10
767.6800005174025
 20
57.660015258789059
 42
1
  0
VERTEX
  8
0
 10
742.6800005174025
 20
57.660015258789059
 42
1
  0
SEQEND
  0
POLYLINE
  8
0
 10
0
 20
0
 39
0
 70
1
 66
1
  0
VERTEX
  8
0
 10
782.67999999999995
 20
90.199999999999989
 42
0
  0
VERTEX
  8
0
 10
732.67999999999995
 20
90.199999999999989
 42
0
  0
VERTEX
  8
0
 10
732.67999999999995
 20
140.19999999999999
 42
0
  0
VERTEX
  8
0
 10
782.67999999999995
 20
140.19999999999999
 42
0
  0
SEQEND
  0
POLYLINE
  8
0
 10
0
 20
0
 39
0
 70
1
 66
1
  0
VERTEX
  8
0
 10
763.17999999999995
 20
125.19999999999999
 42
1
  0
VERTEX
  8
0
 10
752.17999999999995
 20
125.19999999999999
 42
1
  0
SEQEND
  0
POLYLINE
  8
0
 10
0
 20
0
 39
0
 70
1
 66
1
  0
VERTEX
  8
0
 10
1162.5999999999999
 20
290.23999999999995
 42
0
  0
VERTEX
  8
0
 10
1112.5999999999999
 20
290.23999999999995
 42
0
  0
VERTEX
  8
0
 10
1112.5999999999999
 20
340.23999999999995
 42
0
  0
VERTEX
  8
0
 10
1162.5999999999999
 20
340.23999999999995
 42
0
  0
SEQEND
  0
POLYLINE
  8
0
 10
0
 20
0
 39
0
 70
1
 66
1
  0
VERTEX
  8
0
 10
1143.0999999999999
 20
325.23999999999995
 42
1
  0
VERTEX
  8
0
 10
1132.0999999999999
 20
325.23999999999995
 42
1
  0
SEQEND
  0
POLYLINE
  8
0
 10
0
 20
0
 39
0
 70
1
 66
1
  0
VERTEX
  8
0
 10
1162.5999999999999
 20
350.35999999999996
 42
-0
  0
VERTEX
  8
0
 10
1112.5999999999999
 20
350.35999999999996
 42
-0
  0
VERTEX
  8
0
 10
1112.5999999999999
 20
400.35999999999996
 42
0
  0
VERTEX
  8
0
 10
1162.5999999999999
 20
400.35999999999996
 42
0
  0
SEQEND
  0
POLYLINE
  8
0
 10
0
 20
0
 39
0
 70
1
 66
1
  0
VERTEX
  8
0
 10
1150.0961547851562
 20
390.01253448486324
 42
-0
  0
VERTEX
  8
0
 10
1126.504140472412
 20
390.01253448486324
 42
0
  0
VERTEX
  8
0
 10
1126.504140472412
 20
376.01253257751461
 42
0
  0
VERTEX
  8
0
 10
1137.5999999999999
 20
362.01253257751461
 42
0
  0
VERTEX
  8
0
 10
1150.0961547851562
 20
362.01253257751461
 42
0
  0
SEQEND
  0
POLYLINE
  8
0
 10
0
 20
0
 39
0
 70
1
 66
1
  0
VERTEX
  8
0
 10
1162.5999999999999
 20
410.47999999999996
 42
0
  0
VERTEX
  8
0
 10
1112.5999999999999
 20
410.47999999999996
 42
0
  0
VERTEX
  8
0
 10
1112.5999999999999
 20
460.47999999999996
 42
0
  0
VERTEX
  8
0
 10
1162.5999999999999
 20
460.47999999999996
 42
0
  0
SEQEND
  0
POLYLINE
  8
0
 10
0
 20
0
 39
0
 70
1
 66
1
  0
VERTEX
  8
0
 10
1143.0999999999999
 20
445.47999999999996
 42
1
  0
VERTEX
  8
0
 10
1132.0999999999999
 20
445.47999999999996
 42
1
  0
SEQEND
  0
POLYLINE
  8
0
 10
0
 20
0
 39
0
 70
1
 66
1
  0
VERTEX
  8
0
 10
1162.5999999999999
 20
470.59999999999997
 42
-0
  0
VERTEX
  8
0
 10
1112.5999999999999
 20
470.59999999999997
 42
-0
  0
VERTEX
  8
0
 10
1112.5999999999999
 20
520.59999999999991
 42
0
  0
VERTEX
  8
0
 10
1162.5999999999999
 20
520.59999999999991
 42
0
  0
SEQEND
  0
POLYLINE
  8
0
 10
0
 20
0
 39
0
 70
1
 66
1
  0
VERTEX
  8
0
 10
1150.0961547851562
 20
510.25253448486325
 42
-0
  0
VERTEX
  8
0
 10
1126.504140472412
 20
510.25253448486325
 42
0
  0
VERTEX
  8
0
 10
1126.504140472412
 20
496.25253257751461
 42
0
  0
VERTEX
  8
0
 10
1137.5999999999999
 20
482.25253257751461
 42
0
  0
VERTEX
  8
0
 10
1150.0961547851562
 20
482.25253257751461
 42
0
  0
SEQEND
  0
POLYLINE
  8
0
 10
0
 20
0
 39
0
 70
1
 66
1
  0
VERTEX
  8
0
 10
1162.5999999999999
 20
530.71999999999991
 42
-0
  0
VERTEX
  8
0
 10
1112.5999999999999
 20
530.71999999999991
 42
-0
  0
VERTEX
  8
0
 10
1112.5999999999999
 20
580.71999999999991
 42
0
  0
VERTEX
  8
0
 10
1162.5999999999999
 20
580.71999999999991
 42
0
  0
SEQEND
  0
POLYLINE
  8
0
 10
0
 20
0
 39
0
 70
1
 66
1
  0
VERTEX
  8
0
 10
1150.0961547851562
 20
570.37253448486319
 42
-0
  0
VERTEX
  8
0
 10
1126.504140472412
 20
570.37253448486319
 42
0
  0
VERTEX
  8
0
 10
1126.504140472412
 20
556.37253257751456
 42
0
  0
VERTEX
  8
0
 10
1137.5999999999999
 20
542.37253257751456
 42
0
  0
VERTEX
  8
0
 10
1150.0961547851562
 20
542.37253257751456
 42
0
  0
SEQEND
  0
ENDSEC
  0
EOF
