  0
SECTION
  2
ENTITIES
  0
POLYLINE
  8
0
 10
0
 20
0
 39
0
 70
1
 66
1
  0
VERTEX
  8
0
 10
0
 20
0
 42
0
  0
VERTEX
  8
0
 10
2800
 20
0
 42
0
  0
VERTEX
  8
0
 10
2800
 20
1200
 42
0
  0
VERTEX
  8
0
 10
0
 20
1200
 42
0
  0
SEQEND
  0
POLYLINE
  8
0
 10
0
 20
0
 39
0
 70
1
 66
1
  0
VERTEX
  8
0
 10
315.31999999999999
 20
800.32000000000005
 42
-0
  0
VERTEX
  8
0
 10
315.32000000000005
 20
10.320000000000018
 42
-0
  0
VERTEX
  8
0
 10
10.320000000000046
 20
10.32
 42
-0
  0
VERTEX
  8
0
 10
10.319999999999999
 20
800.32000000000005
 42
-0
  0
SEQEND
  0
POLYLINE
  8
0
 10
0
 20
0
 39
0
 70
1
 66
1
  0
VERTEX
  8
0
 10
245.32000000000005
 20
85.320000000000022
 42
0
  0
VERTEX
  8
0
 10
245.31999999999999
 20
725.32000000000005
 42
0.41421398520469666
  0
VERTEX
  8
0
 10
240.31999999999999
 20
730.32000000000005
 42
0
  0
VERTEX
  8
0
 10
85.320000000000007
 20
730.32000000000005
 42
0.41421398520469666
  0
VERTEX
  8
0
 10
80.320000000000007
 20
725.32000000000005
 42
0
  0
VERTEX
  8
0
 10
80.32000000000005
 20
85.319999999999993
 42
0.41421398520469666
  0
VERTEX
  8
0
 10
85.32000000000005
 20
80.319999999999993
 42
0
  0
VERTEX
  8
0
 10
240.32000000000005
 20
80.320000000000022
 42
0.41421398520469666
  0
SEQEND
  0
POLYLINE
  8
0
 10
0
 20
0
 39
0
 70
1
 66
1
  0
VERTEX
  8
0
 10
280.32000000000005
 20
393.81999999999999
 42
1
  0
VERTEX
  8
0
 10
280.32000000000005
 20
416.81999999999999
 42
1
  0
SEQEND
  0
POLYLINE
  8
0
 10
0
 20
0
 39
0
 70
1
 66
1
  0
VERTEX
  8
0
 10
45.320000000000022
 20
393.81999999999999
 42
1
  0
VERTEX
  8
0
 10
45.320000000000022
 20
416.81999999999999
 42
1
  0
SEQEND
  0
POLYLINE
  8
0
 10
0
 20
0
 39
0
 70
1
 66
1
  0
VERTEX
  8
0
 10
162.82000000000005
 20
33.820000000000007
 42
1
  0
VERTEX
  8
0
 10
162.82000000000005
 20
56.820000000000007
 42
1
  0
SEQEND
  0
POLYLINE
  8
0
 10
0
 20
0
 39
0
 70
1
 66
1
  0
VERTEX
  8
0
 10
45.32000000000005
 20
33.820000000000007
 42
1
  0
VERTEX
  8
0
 10
45.320000000000043
 20
56.82
 42
1
  0
SEQEND
  0
POLYLINE
  8
0
 10
0
 20
0
 39
0
 70
1
 66
1
  0
VERTEX
  8
0
 10
45.320000000000036
 20
213.81999999999999
 42
1
  0
VERTEX
  8
0
 10
45.320000000000036
 20
236.81999999999999
 42
1
  0
SEQEND
  0
POLYLINE
  8
0
 10
0
 20
0
 39
0
 70
1
 66
1
  0
VERTEX
  8
0
 10
280.32000000000005
 20
33.820000000000022
 42
1
  0
VERTEX
  8
0
 10
280.32000000000005
 20
56.820000000000014
 42
1
  0
SEQEND
  0
POLYLINE
  8
0
 10
0
 20
0
 39
0
 70
1
 66
1
  0
VERTEX
  8
0
 10
280.32000000000005
 20
213.82000000000002
 42
1
  0
VERTEX
  8
0
 10
280.32000000000005
 20
236.82000000000002
 42
1
  0
SEQEND
  0
POLYLINE
  8
0
 10
0
 20
0
 39
0
 70
1
 66
1
  0
VERTEX
  8
0
 10
162.81999999999999
 20
753.82000000000005
 42
1
  0
VERTEX
  8
0
 10
162.81999999999999
 20
776.82000000000005
 42
1
  0
SEQEND
  0
POLYLINE
  8
0
 10
0
 20
0
 39
0
 70
1
 66
1
  0
VERTEX
  8
0
 10
45.320000000000007
 20
573.82000000000005
 42
1
  0
VERTEX
  8
0
 10
45.320000000000007
 20
596.82000000000005
 42
1
  0
SEQEND
  0
POLYLINE
  8
0
 10
0
 20
0
 39
0
 70
1
 66
1
  0
VERTEX
  8
0
 10
45.32
 20
753.82000000000005
 42
1
  0
VERTEX
  8
0
 10
45.32
 20
776.82000000000005
 42
1
  0
SEQEND
  0
POLYLINE
  8
0
 10
0
 20
0
 39
0
 70
1
 66
1
  0
VERTEX
  8
0
 10
280.31999999999999
 20
573.82000000000005
 42
1
  0
VERTEX
  8
0
 10
280.31999999999999
 20
596.82000000000005
 42
1
  0
SEQEND
  0
POLYLINE
  8
0
 10
0
 20
0
 39
0
 70
1
 66
1
  0
VERTEX
  8
0
 10
280.31999999999999
 20
753.82000000000005
 42
1
  0
VERTEX
  8
0
 10
280.31999999999999
 20
776.82000000000005
 42
1
  0
SEQEND
  0
POLYLINE
  8
0
 10
0
 20
0
 39
0
 70
1
 66
1
  0
VERTEX
  8
0
 10
630.88
 20
800.32000000000005
 42
-0
  0
VERTEX
  8
0
 10
630.88000000000011
 20
10.320000000000018
 42
-0
  0
VERTEX
  8
0
 10
325.88000000000005
 20
10.32
 42
-0
  0
VERTEX
  8
0
 10
325.88
 20
800.32000000000005
 42
-0
  0
SEQEND
  0
POLYLINE
  8
0
 10
0
 20
0
 39
0
 70
1
 66
1
  0
VERTEX
  8
0
 10
560.88000000000011
 20
85.320000000000022
 42
0
  0
VERTEX
  8
0
 10
560.88
 20
725.32000000000005
 42
0.41421398520469666
  0
VERTEX
  8
0
 10
555.88
 20
730.32000000000005
 42
0
  0
VERTEX
  8
0
 10
400.88
 20
730.32000000000005
 42
0.41421398520469666
  0
VERTEX
  8
0
 10
395.88
 20
725.32000000000005
 42
0
  0
VERTEX
  8
0
 10
395.88000000000005
 20
85.319999999999993
 42
0.41421398520469666
  0
VERTEX
  8
0
 10
400.88000000000005
 20
80.319999999999993
 42
0
  0
VERTEX
  8
0
 10
555.88000000000011
 20
80.320000000000022
 42
0.41421398520469666
  0
SEQEND
  0
POLYLINE
  8
0
 10
0
 20
0
 39
0
 70
1
 66
1
  0
VERTEX
  8
0
 10
595.88000000000011
 20
393.81999999999999
 42
1
  0
VERTEX
  8
0
 10
595.88000000000011
 20
416.81999999999999
 42
1
  0
SEQEND
  0
POLYLINE
  8
0
 10
0
 20
0
 39
0
 70
1
 66
1
  0
VERTEX
  8
0
 10
360.88000000000005
 20
393.81999999999999
 42
1
  0
VERTEX
  8
0
 10
360.88000000000005
 20
416.81999999999999
 42
1
  0
SEQEND
  0
POLYLINE
  8
0
 10
0
 20
0
 39
0
 70
1
 66
1
  0
VERTEX
  8
0
 10
478.38000000000005
 20
33.820000000000007
 42
1
  0
VERTEX
  8
0
 10
478.38000000000005
 20
56.820000000000007
 42
1
  0
SEQEND
  0
POLYLINE
  8
0
 10
0
 20
0
 39
0
 70
1
 66
1
  0
VERTEX
  8
0
 10
360.88000000000005
 20
33.820000000000007
 42
1
  0
VERTEX
  8
0
 10
360.88000000000005
 20
56.82
 42
1
  0
SEQEND
  0
POLYLINE
  8
0
 10
0
 20
0
 39
0
 70
1
 66
1
  0
VERTEX
  8
0
 10
360.88000000000005
 20
213.81999999999999
 42
1
  0
VERTEX
  8
0
 10
360.88000000000005
 20
236.81999999999999
 42
1
  0
SEQEND
  0
POLYLINE
  8
0
 10
0
 20
0
 39
0
 70
1
 66
1
  0
VERTEX
  8
0
 10
595.88000000000011
 20
33.820000000000022
 42
1
  0
VERTEX
  8
0
 10
595.88000000000011
 20
56.820000000000014
 42
1
  0
SEQEND
  0
POLYLINE
  8
0
 10
0
 20
0
 39
0
 70
1
 66
1
  0
VERTEX
  8
0
 10
595.88000000000011
 20
213.82000000000002
 42
1
  0
VERTEX
  8
0
 10
595.88000000000011
 20
236.82000000000002
 42
1
  0
SEQEND
  0
POLYLINE
  8
0
 10
0
 20
0
 39
0
 70
1
 66
1
  0
VERTEX
  8
0
 10
478.38
 20
753.82000000000005
 42
1
  0
VERTEX
  8
0
 10
478.38
 20
776.82000000000005
 42
1
  0
SEQEND
  0
POLYLINE
  8
0
 10
0
 20
0
 39
0
 70
1
 66
1
  0
VERTEX
  8
0
 10
360.88
 20
573.82000000000005
 42
1
  0
VERTEX
  8
0
 10
360.88
 20
596.82000000000005
 42
1
  0
SEQEND
  0
POLYLINE
  8
0
 10
0
 20
0
 39
0
 70
1
 66
1
  0
VERTEX
  8
0
 10
360.88
 20
753.82000000000005
 42
1
  0
VERTEX
  8
0
 10
360.88
 20
776.82000000000005
 42
1
  0
SEQEND
  0
POLYLINE
  8
0
 10
0
 20
0
 39
0
 70
1
 66
1
  0
VERTEX
  8
0
 10
595.88
 20
573.82000000000005
 42
1
  0
VERTEX
  8
0
 10
595.88
 20
596.82000000000005
 42
1
  0
SEQEND
  0
POLYLINE
  8
0
 10
0
 20
0
 39
0
 70
1
 66
1
  0
VERTEX
  8
0
 10
595.88
 20
753.82000000000005
 42
1
  0
VERTEX
  8
0
 10
595.88
 20
776.82000000000005
 42
1
  0
SEQEND
  0
POLYLINE
  8
0
 10
0
 20
0
 39
0
 70
1
 66
1
  0
VERTEX
  8
0
 10
10.32000000000005
 20
1115.5599999999999
 42
-0
  0
VERTEX
  8
0
 10
800.32000000000005
 20
1115.5599999999999
 42
-0
  0
VERTEX
  8
0
 10
800.32000000000005
 20
810.55999999999995
 42
-0
  0
VERTEX
  8
0
 10
10.32000000000005
 20
810.55999999999995
 42
-0
  0
SEQEND
  0
POLYLINE
  8
0
 10
0
 20
0
 39
0
 70
1
 66
1
  0
VERTEX
  8
0
 10
725.32000000000005
 20
1045.5599999999999
 42
0
  0
VERTEX
  8
0
 10
85.32000000000005
 20
1045.5599999999999
 42
0.41421398520469666
  0
VERTEX
  8
0
 10
80.32000000000005
 20
1040.5599999999999
 42
0
  0
VERTEX
  8
0
 10
80.32000000000005
 20
885.55999999999995
 42
0.41421398520469666
  0
VERTEX
  8
0
 10
85.32000000000005
 20
880.55999999999995
 42
0
  0
VERTEX
  8
0
 10
725.32000000000005
 20
880.55999999999995
 42
0.41421398520469666
  0
VERTEX
  8
0
 10
730.32000000000005
 20
885.55999999999995
 42
0
  0
VERTEX
  8
0
 10
730.32000000000005
 20
1040.5599999999999
 42
0.41421398520469666
  0
SEQEND
  0
POLYLINE
  8
0
 10
0
 20
0
 39
0
 70
1
 66
1
  0
VERTEX
  8
0
 10
416.82000000000005
 20
1080.5599999999999
 42
1
  0
VERTEX
  8
0
 10
393.82000000000005
 20
1080.5599999999999
 42
1
  0
SEQEND
  0
POLYLINE
  8
0
 10
0
 20
0
 39
0
 70
1
 66
1
  0
VERTEX
  8
0
 10
416.82000000000005
 20
845.55999999999995
 42
1
  0
VERTEX
  8
0
 10
393.82000000000005
 20
845.55999999999995
 42
1
  0
SEQEND
  0
POLYLINE
  8
0
 10
0
 20
0
 39
0
 70
1
 66
1
  0
VERTEX
  8
0
 10
776.82000000000005
 20
963.05999999999995
 42
1
  0
VERTEX
  8
0
 10
753.82000000000005
 20
963.05999999999995
 42
1
  0
SEQEND
  0
POLYLINE
  8
0
 10
0
 20
0
 39
0
 70
1
 66
1
  0
VERTEX
  8
0
 10
776.82000000000005
 20
845.55999999999995
 42
1
  0
VERTEX
  8
0
 10
753.82000000000005
 20
845.55999999999995
 42
1
  0
SEQEND
  0
POLYLINE
  8
0
 10
0
 20
0
 39
0
 70
1
 66
1
  0
VERTEX
  8
0
 10
596.82000000000005
 20
845.55999999999995
 42
1
  0
VERTEX
  8
0
 10
573.82000000000005
 20
845.55999999999995
 42
1
  0
SEQEND
  0
POLYLINE
  8
0
 10
0
 20
0
 39
0
 70
1
 66
1
  0
VERTEX
  8
0
 10
776.82000000000005
 20
1080.5599999999999
 42
1
  0
VERTEX
  8
0
 10
753.82000000000005
 20
1080.5599999999999
 42
1
  0
SEQEND
  0
POLYLINE
  8
0
 10
0
 20
0
 39
0
 70
1
 66
1
  0
VERTEX
  8
0
 10
596.82000000000005
 20
1080.5599999999999
 42
1
  0
VERTEX
  8
0
 10
573.82000000000005
 20
1080.5599999999999
 42
1
  0
SEQEND
  0
POLYLINE
  8
0
 10
0
 20
0
 39
0
 70
1
 66
1
  0
VERTEX
  8
0
 10
56.82000000000005
 20
963.05999999999995
 42
1
  0
VERTEX
  8
0
 10
33.82000000000005
 20
963.05999999999995
 42
1
  0
SEQEND
  0
POLYLINE
  8
0
 10
0
 20
0
 39
0
 70
1
 66
1
  0
VERTEX
  8
0
 10
236.82000000000005
 20
845.55999999999995
 42
1
  0
VERTEX
  8
0
 10
213.82000000000005
 20
845.55999999999995
 42
1
  0
SEQEND
  0
POLYLINE
  8
0
 10
0
 20
0
 39
0
 70
1
 66
1
  0
VERTEX
  8
0
 10
56.82000000000005
 20
845.55999999999995
 42
1
  0
VERTEX
  8
0
 10
33.82000000000005
 20
845.55999999999995
 42
1
  0
SEQEND
  0
POLYLINE
  8
0
 10
0
 20
0
 39
0
 70
1
 66
1
  0
VERTEX
  8
0
 10
236.82000000000005
 20
1080.5599999999999
 42
1
  0
VERTEX
  8
0
 10
213.82000000000005
 20
1080.5599999999999
 42
1
  0
SEQEND
  0
POLYLINE
  8
0
 10
0
 20
0
 39
0
 70
1
 66
1
  0
VERTEX
  8
0
 10
56.82000000000005
 20
1080.5599999999999
 42
1
  0
VERTEX
  8
0
 10
33.82000000000005
 20
1080.5599999999999
 42
1
  0
SEQEND
  0
POLYLINE
  8
0
 10
0
 20
0
 39
0
 70
1
 66
1
  0
VERTEX
  8
0
 10
946.43999999999983
 20
800.32000000000005
 42
-0
  0
VERTEX
  8
0
 10
946.43999999999994
 20
10.320000000000018
 42
-0
  0
VERTEX
  8
0
 10
641.43999999999994
 20
10.32
 42
-0
  0
VERTEX
  8
0
 10
641.43999999999994
 20
800.32000000000005
 42
-0
  0
SEQEND
  0
POLYLINE
  8
0
 10
0
 20
0
 39
0
 70
1
 66
1
  0
VERTEX
  8
0
 10
876.43999999999994
 20
85.320000000000022
 42
0
  0
VERTEX
  8
0
 10
876.43999999999983
 20
725.32000000000005
 42
0.41421398520469666
  0
VERTEX
  8
0
 10
871.43999999999983
 20
730.32000000000005
 42
0
  0
VERTEX
  8
0
 10
716.43999999999994
 20
730.32000000000005
 42
0.41421398520469666
  0
VERTEX
  8
0
 10
711.43999999999994
 20
725.32000000000005
 42
0
  0
VERTEX
  8
0
 10
711.43999999999994
 20
85.319999999999993
 42
0.41421398520469666
  0
VERTEX
  8
0
 10
716.43999999999994
 20
80.319999999999993
 42
0
  0
VERTEX
  8
0
 10
871.43999999999994
 20
80.320000000000022
 42
0.41421398520469666
  0
SEQEND
  0
POLYLINE
  8
0
 10
0
 20
0
 39
0
 70
1
 66
1
  0
VERTEX
  8
0
 10
911.43999999999994
 20
393.81999999999999
 42
1
  0
VERTEX
  8
0
 10
911.43999999999994
 20
416.81999999999999
 42
1
  0
SEQEND
  0
POLYLINE
  8
0
 10
0
 20
0
 39
0
 70
1
 66
1
  0
VERTEX
  8
0
 10
676.43999999999994
 20
393.81999999999999
 42
1
  0
VERTEX
  8
0
 10
676.43999999999994
 20
416.81999999999999
 42
1
  0
SEQEND
  0
POLYLINE
  8
0
 10
0
 20
0
 39
0
 70
1
 66
1
  0
VERTEX
  8
0
 10
793.93999999999994
 20
33.820000000000007
 42
1
  0
VERTEX
  8
0
 10
793.93999999999994
 20
56.820000000000007
 42
1
  0
SEQEND
  0
POLYLINE
  8
0
 10
0
 20
0
 39
0
 70
1
 66
1
  0
VERTEX
  8
0
 10
676.43999999999994
 20
33.820000000000007
 42
1
  0
VERTEX
  8
0
 10
676.43999999999994
 20
56.82
 42
1
  0
SEQEND
  0
POLYLINE
  8
0
 10
0
 20
0
 39
0
 70
1
 66
1
  0
VERTEX
  8
0
 10
676.43999999999994
 20
213.81999999999999
 42
1
  0
VERTEX
  8
0
 10
676.43999999999994
 20
236.81999999999999
 42
1
  0
SEQEND
  0
POLYLINE
  8
0
 10
0
 20
0
 39
0
 70
1
 66
1
  0
VERTEX
  8
0
 10
911.43999999999994
 20
33.820000000000022
 42
1
  0
VERTEX
  8
0
 10
911.43999999999994
 20
56.820000000000014
 42
1
  0
SEQEND
  0
POLYLINE
  8
0
 10
0
 20
0
 39
0
 70
1
 66
1
  0
VERTEX
  8
0
 10
911.43999999999994
 20
213.82000000000002
 42
1
  0
VERTEX
  8
0
 10
911.43999999999994
 20
236.82000000000002
 42
1
  0
SEQEND
  0
POLYLINE
  8
0
 10
0
 20
0
 39
0
 70
1
 66
1
  0
VERTEX
  8
0
 10
793.93999999999983
 20
753.82000000000005
 42
1
  0
VERTEX
  8
0
 10
793.93999999999983
 20
776.82000000000005
 42
1
  0
SEQEND
  0
POLYLINE
  8
0
 10
0
 20
0
 39
0
 70
1
 66
1
  0
VERTEX
  8
0
 10
676.43999999999994
 20
573.82000000000005
 42
1
  0
VERTEX
  8
0
 10
676.43999999999994
 20
596.82000000000005
 42
1
  0
SEQEND
  0
POLYLINE
  8
0
 10
0
 20
0
 39
0
 70
1
 66
1
  0
VERTEX
  8
0
 10
676.43999999999994
 20
753.82000000000005
 42
1
  0
VERTEX
  8
0
 10
676.43999999999994
 20
776.82000000000005
 42
1
  0
SEQEND
  0
POLYLINE
  8
0
 10
0
 20
0
 39
0
 70
1
 66
1
  0
VERTEX
  8
0
 10
911.43999999999983
 20
573.82000000000005
 42
1
  0
VERTEX
  8
0
 10
911.43999999999983
 20
596.82000000000005
 42
1
  0
SEQEND
  0
POLYLINE
  8
0
 10
0
 20
0
 39
0
 70
1
 66
1
  0
VERTEX
  8
0
 10
911.43999999999983
 20
753.82000000000005
 42
1
  0
VERTEX
  8
0
 10
911.43999999999983
 20
776.82000000000005
 42
1
  0
SEQEND
  0
POLYLINE
  8
0
 10
0
 20
0
 39
0
 70
1
 66
1
  0
VERTEX
  8
0
 10
1262
 20
800.32000000000005
 42
-0
  0
VERTEX
  8
0
 10
1262
 20
10.320000000000018
 42
-0
  0
VERTEX
  8
0
 10
957
 20
10.32
 42
-0
  0
VERTEX
  8
0
 10
957
 20
800.32000000000005
 42
-0
  0
SEQEND
  0
POLYLINE
  8
0
 10
0
 20
0
 39
0
 70
1
 66
1
  0
VERTEX
  8
0
 10
1192
 20
85.320000000000022
 42
0
  0
VERTEX
  8
0
 10
1192
 20
725.32000000000005
 42
0.41421398520469666
  0
VERTEX
  8
0
 10
1187
 20
730.32000000000005
 42
0
  0
VERTEX
  8
0
 10
1032
 20
730.32000000000005
 42
0.41421398520469666
  0
VERTEX
  8
0
 10
1027
 20
725.32000000000005
 42
0
  0
VERTEX
  8
0
 10
1027
 20
85.319999999999993
 42
0.41421398520469666
  0
VERTEX
  8
0
 10
1032
 20
80.319999999999993
 42
0
  0
VERTEX
  8
0
 10
1187
 20
80.320000000000022
 42
0.41421398520469666
  0
SEQEND
  0
POLYLINE
  8
0
 10
0
 20
0
 39
0
 70
1
 66
1
  0
VERTEX
  8
0
 10
1227
 20
393.81999999999999
 42
1
  0
VERTEX
  8
0
 10
1227
 20
416.81999999999999
 42
1
  0
SEQEND
  0
POLYLINE
  8
0
 10
0
 20
0
 39
0
 70
1
 66
1
  0
VERTEX
  8
0
 10
992
 20
393.81999999999999
 42
1
  0
VERTEX
  8
0
 10
992
 20
416.81999999999999
 42
1
  0
SEQEND
  0
POLYLINE
  8
0
 10
0
 20
0
 39
0
 70
1
 66
1
  0
VERTEX
  8
0
 10
1109.5
 20
33.820000000000007
 42
1
  0
VERTEX
  8
0
 10
1109.5
 20
56.820000000000007
 42
1
  0
SEQEND
  0
POLYLINE
  8
0
 10
0
 20
0
 39
0
 70
1
 66
1
  0
VERTEX
  8
0
 10
992
 20
33.820000000000007
 42
1
  0
VERTEX
  8
0
 10
992
 20
56.82
 42
1
  0
SEQEND
  0
POLYLINE
  8
0
 10
0
 20
0
 39
0
 70
1
 66
1
  0
VERTEX
  8
0
 10
992
 20
213.81999999999999
 42
1
  0
VERTEX
  8
0
 10
992
 20
236.81999999999999
 42
1
  0
SEQEND
  0
POLYLINE
  8
0
 10
0
 20
0
 39
0
 70
1
 66
1
  0
VERTEX
  8
0
 10
1227
 20
33.820000000000022
 42
1
  0
VERTEX
  8
0
 10
1227
 20
56.820000000000014
 42
1
  0
SEQEND
  0
POLYLINE
  8
0
 10
0
 20
0
 39
0
 70
1
 66
1
  0
VERTEX
  8
0
 10
1227
 20
213.82000000000002
 42
1
  0
VERTEX
  8
0
 10
1227
 20
236.82000000000002
 42
1
  0
SEQEND
  0
POLYLINE
  8
0
 10
0
 20
0
 39
0
 70
1
 66
1
  0
VERTEX
  8
0
 10
1109.5
 20
753.82000000000005
 42
1
  0
VERTEX
  8
0
 10
1109.5
 20
776.82000000000005
 42
1
  0
SEQEND
  0
POLYLINE
  8
0
 10
0
 20
0
 39
0
 70
1
 66
1
  0
VERTEX
  8
0
 10
992
 20
573.82000000000005
 42
1
  0
VERTEX
  8
0
 10
992
 20
596.82000000000005
 42
1
  0
SEQEND
  0
POLYLINE
  8
0
 10
0
 20
0
 39
0
 70
1
 66
1
  0
VERTEX
  8
0
 10
992
 20
753.82000000000005
 42
1
  0
VERTEX
  8
0
 10
992
 20
776.82000000000005
 42
1
  0
SEQEND
  0
POLYLINE
  8
0
 10
0
 20
0
 39
0
 70
1
 66
1
  0
VERTEX
  8
0
 10
1227
 20
573.82000000000005
 42
1
  0
VERTEX
  8
0
 10
1227
 20
596.82000000000005
 42
1
  0
SEQEND
  0
POLYLINE
  8
0
 10
0
 20
0
 39
0
 70
1
 66
1
  0
VERTEX
  8
0
 10
1227
 20
753.82000000000005
 42
1
  0
VERTEX
  8
0
 10
1227
 20
776.82000000000005
 42
1
  0
SEQEND
  0
POLYLINE
  8
0
 10
0
 20
0
 39
0
 70
1
 66
1
  0
VERTEX
  8
0
 10
810.83999999999992
 20
810.55999999999995
 42
-0
  0
VERTEX
  8
0
 10
810.83999999999992
 20
1185.5599999999999
 42
-0
  0
VERTEX
  8
0
 10
966.60177978515617
 20
1185.5599999999999
 42
0
  0
VERTEX
  8
0
 10
1031.8399999999999
 20
1111.0508447265624
 42
0
  0
VERTEX
  8
0
 10
1031.8399999999999
 20
810.55999999999995
 42
0
  0
SEQEND
  0
POLYLINE
  8
0
 10
0
 20
0
 39
0
 70
1
 66
1
  0
VERTEX
  8
0
 10
965.90123352050773
 20
864.15474563598627
 42
0.54372489452362061
  0
VERTEX
  8
0
 10
975.02699645996086
 20
878.24379974365229
 42
-0
  0
VERTEX
  8
0
 10
930.46577056884757
 20
977.69352966308588
 42
0.64772027730941772
  0
VERTEX
  8
0
 10
912.21422943115226
 20
977.69352966308588
 42
-0
  0
VERTEX
  8
0
 10
867.65299591064445
 20
878.24379974365229
 42
0.54372489452362061
  0
VERTEX
  8
0
 10
876.77876647949211
 20
864.15474563598627
 42
0
  0
SEQEND
  0
POLYLINE
  8
0
 10
0
 20
0
 39
0
 70
1
 66
1
  0
VERTEX
  8
0
 10
1042.3999999999999
 20
810.55999999999995
 42
-0
  0
VERTEX
  8
0
 10
1042.3999999999999
 20
1185.5599999999999
 42
-0
  0
VERTEX
  8
0
 10
1263.3999999999999
 20
1185.5599999999999
 42
0
  0
VERTEX
  8
0
 10
1263.3999999999999
 20
810.55999999999995
 42
0
  0
SEQEND
  0
POLYLINE
  8
0
 10
0
 20
0
 39
0
 70
1
 66
1
  0
VERTEX
  8
0
 10
1110.3999999999999
 20
885.55999999999995
 42
-0
  0
VERTEX
  8
0
 10
1195.3999999999999
 20
885.55999999999995
 42
-0
  0
VERTEX
  8
0
 10
1195.3999999999999
 20
1110.5599999999999
 42
0
  0
VERTEX
  8
0
 10
1110.3999999999999
 20
1110.5599999999999
 42
0
  0
SEQEND
  0
POLYLINE
  8
0
 10
0
 20
0
 39
0
 70
1
 66
1
  0
VERTEX
  8
0
 10
1272.5599999999999
 20
10.32
 42
-0
  0
VERTEX
  8
0
 10
1272.5599999999999
 20
385.31999999999999
 42
-0
  0
VERTEX
  8
0
 10
1493.5599999999999
 20
385.31999999999999
 42
0
  0
VERTEX
  8
0
 10
1493.5599999999999
 20
10.320000000000027
 42
0
  0
SEQEND
  0
POLYLINE
  8
0
 10
0
 20
0
 39
0
 70
1
 66
1
  0
VERTEX
  8
0
 10
1340.5599999999999
 20
85.319999999999993
 42
-0
  0
VERTEX
  8
0
 10
1425.5599999999999
 20
85.320000000000022
 42
-0
  0
VERTEX
  8
0
 10
1425.5599999999999
 20
310.31999999999999
 42
0
  0
VERTEX
  8
0
 10
1340.5599999999999
 20
310.31999999999999
 42
0
  0
SEQEND
  0
POLYLINE
  8
0
 10
0
 20
0
 39
0
 70
1
 66
1
  0
VERTEX
  8
0
 10
1272.5599999999999
 20
395.31999999999999
 42
-0
  0
VERTEX
  8
0
 10
1272.5599999999999
 20
770.31999999999994
 42
-0
  0
VERTEX
  8
0
 10
1493.5599999999999
 20
770.31999999999994
 42
0
  0
VERTEX
  8
0
 10
1493.5599999999999
 20
395.31999999999999
 42
0
  0
SEQEND
  0
POLYLINE
  8
0
 10
0
 20
0
 39
0
 70
1
 66
1
  0
VERTEX
  8
0
 10
1340.5599999999999
 20
470.31999999999999
 42
-0
  0
VERTEX
  8
0
 10
1425.5599999999999
 20
470.31999999999999
 42
-0
  0
VERTEX
  8
0
 10
1425.5599999999999
 20
695.31999999999994
 42
0
  0
VERTEX
  8
0
 10
1340.5599999999999
 20
695.31999999999994
 42
0
  0
SEQEND
  0
POLYLINE
  8
0
 10
0
 20
0
 39
0
 70
1
 66
1
  0
VERTEX
  8
0
 10
1273.96
 20
780.31999999999994
 42
-0
  0
VERTEX
  8
0
 10
1273.96
 20
1155.3199999999999
 42
-0
  0
VERTEX
  8
0
 10
1494.96
 20
1155.3199999999999
 42
0
  0
VERTEX
  8
0
 10
1494.96
 20
780.31999999999994
 42
0
  0
SEQEND
  0
POLYLINE
  8
0
 10
0
 20
0
 39
0
 70
1
 66
1
  0
VERTEX
  8
0
 10
1341.96
 20
855.31999999999994
 42
-0
  0
VERTEX
  8
0
 10
1426.96
 20
855.31999999999994
 42
-0
  0
VERTEX
  8
0
 10
1426.96
 20
1080.3199999999999
 42
0
  0
VERTEX
  8
0
 10
1341.96
 20
1080.3199999999999
 42
0
  0
SEQEND
  0
POLYLINE
  8
0
 10
0
 20
0
 39
0
 70
1
 66
1
  0
VERTEX
  8
0
 10
1504.1199999999999
 20
10.32
 42
-0
  0
VERTEX
  8
0
 10
1504.1199999999999
 20
385.31999999999999
 42
-0
  0
VERTEX
  8
0
 10
1725.1199999999999
 20
385.31999999999999
 42
0
  0
VERTEX
  8
0
 10
1725.1199999999999
 20
10.320000000000027
 42
0
  0
SEQEND
  0
POLYLINE
  8
0
 10
0
 20
0
 39
0
 70
1
 66
1
  0
VERTEX
  8
0
 10
1572.1199999999999
 20
85.319999999999993
 42
-0
  0
VERTEX
  8
0
 10
1657.1199999999999
 20
85.320000000000022
 42
-0
  0
VERTEX
  8
0
 10
1657.1199999999999
 20
310.31999999999999
 42
0
  0
VERTEX
  8
0
 10
1572.1199999999999
 20
310.31999999999999
 42
0
  0
SEQEND
  0
POLYLINE
  8
0
 10
0
 20
0
 39
0
 70
1
 66
1
  0
VERTEX
  8
0
 10
1504.1199999999999
 20
395.31999999999999
 42
-0
  0
VERTEX
  8
0
 10
1504.1199999999999
 20
770.31999999999994
 42
-0
  0
VERTEX
  8
0
 10
1659.8817797851561
 20
770.31999999999994
 42
0
  0
VERTEX
  8
0
 10
1725.1199999999999
 20
695.81084472656244
 42
0
  0
VERTEX
  8
0
 10
1725.1199999999999
 20
395.31999999999999
 42
0
  0
SEQEND
  0
POLYLINE
  8
0
 10
0
 20
0
 39
0
 70
1
 66
1
  0
VERTEX
  8
0
 10
1659.1812335205077
 20
448.91474563598632
 42
0.54372489452362061
  0
VERTEX
  8
0
 10
1668.3069964599608
 20
463.00379974365234
 42
-0
  0
VERTEX
  8
0
 10
1623.7457705688475
 20
562.45352966308587
 42
0.64772027730941772
  0
VERTEX
  8
0
 10
1605.4942294311522
 20
562.45352966308587
 42
-0
  0
VERTEX
  8
0
 10
1560.9329959106444
 20
463.00379974365234
 42
0.54372489452362061
  0
VERTEX
  8
0
 10
1570.0587664794921
 20
448.91474563598632
 42
0
  0
SEQEND
  0
POLYLINE
  8
0
 10
0
 20
0
 39
0
 70
1
 66
1
  0
VERTEX
  8
0
 10
1505.52
 20
780.31999999999994
 42
-0
  0
VERTEX
  8
0
 10
1505.52
 20
1155.3199999999999
 42
-0
  0
VERTEX
  8
0
 10
1661.2817797851562
 20
1155.3199999999999
 42
0
  0
VERTEX
  8
0
 10
1726.52
 20
1080.8108447265624
 42
0
  0
VERTEX
  8
0
 10
1726.52
 20
780.31999999999994
 42
0
  0
SEQEND
  0
POLYLINE
  8
0
 10
0
 20
0
 39
0
 70
1
 66
1
  0
VERTEX
  8
0
 10
1660.5812335205078
 20
833.91474563598626
 42
0.54372489452362061
  0
VERTEX
  8
0
 10
1669.7069964599609
 20
848.00379974365228
 42
-0
  0
VERTEX
  8
0
 10
1625.1457705688476
 20
947.45352966308587
 42
0.64772027730941772
  0
VERTEX
  8
0
 10
1606.8942294311523
 20
947.45352966308587
 42
-0
  0
VERTEX
  8
0
 10
1562.3329959106445
 20
848.00379974365228
 42
0.54372489452362061
  0
VERTEX
  8
0
 10
1571.4587664794922
 20
833.91474563598626
 42
0
  0
SEQEND
  0
POLYLINE
  8
0
 10
0
 20
0
 39
0
 70
1
 66
1
  0
VERTEX
  8
0
 10
1735.6799999999998
 20
10.32
 42
-0
  0
VERTEX
  8
0
 10
1735.6799999999998
 20
385.31999999999999
 42
-0
  0
VERTEX
  8
0
 10
1891.4417797851561
 20
385.31999999999999
 42
0
  0
VERTEX
  8
0
 10
1956.6799999999998
 20
310.81084472656249
 42
0
  0
VERTEX
  8
0
 10
1956.6799999999998
 20
10.320000000000027
 42
0
  0
SEQEND
  0
POLYLINE
  8
0
 10
0
 20
0
 39
0
 70
1
 66
1
  0
VERTEX
  8
0
 10
1890.7412335205076
 20
63.914745635986336
 42
0.54372489452362061
  0
VERTEX
  8
0
 10
1899.8669964599608
 20
78.003799743652365
 42
-0
  0
VERTEX
  8
0
 10
1855.3057705688475
 20
177.45352966308593
 42
0.64772027730941772
  0
VERTEX
  8
0
 10
1837.0542294311522
 20
177.45352966308593
 42
-0
  0
VERTEX
  8
0
 10
1792.4929959106444
 20
78.003799743652337
 42
0.54372489452362061
  0
VERTEX
  8
0
 10
1801.618766479492
 20
63.914745635986336
 42
0
  0
SEQEND
  0
POLYLINE
  8
0
 10
0
 20
0
 39
0
 70
1
 66
1
  0
VERTEX
  8
0
 10
1735.6799999999998
 20
395.31999999999999
 42
-0
  0
VERTEX
  8
0
 10
1735.6799999999998
 20
770.31999999999994
 42
-0
  0
VERTEX
  8
0
 10
1891.4417797851561
 20
770.31999999999994
 42
0
  0
VERTEX
  8
0
 10
1956.6799999999998
 20
695.81084472656244
 42
0
  0
VERTEX
  8
0
 10
1956.6799999999998
 20
395.31999999999999
 42
0
  0
SEQEND
  0
POLYLINE
  8
0
 10
0
 20
0
 39
0
 70
1
 66
1
  0
VERTEX
  8
0
 10
1890.7412335205076
 20
448.91474563598632
 42
0.54372489452362061
  0
VERTEX
  8
0
 10
1899.8669964599608
 20
463.00379974365234
 42
-0
  0
VERTEX
  8
0
 10
1855.3057705688475
 20
562.45352966308587
 42
0.64772027730941772
  0
VERTEX
  8
0
 10
1837.0542294311522
 20
562.45352966308587
 42
-0
  0
VERTEX
  8
0
 10
1792.4929959106444
 20
463.00379974365234
 42
0.54372489452362061
  0
VERTEX
  8
0
 10
1801.618766479492
 20
448.91474563598632
 42
0
  0
SEQEND
  0
POLYLINE
  8
0
 10
0
 20
0
 39
0
 70
1
 66
1
  0
VERTEX
  8
0
 10
1737.0799999999999
 20
780.31999999999994
 42
-0
  0
VERTEX
  8
0
 10
1737.0799999999999
 20
1155.3199999999999
 42
-0
  0
VERTEX
  8
0
 10
1958.0799999999999
 20
1155.3199999999999
 42
0
  0
VERTEX
  8
0
 10
1958.0799999999999
 20
780.31999999999994
 42
0
  0
SEQEND
  0
POLYLINE
  8
0
 10
0
 20
0
 39
0
 70
1
 66
1
  0
VERTEX
  8
0
 10
1805.0799999999999
 20
855.31999999999994
 42
-0
  0
VERTEX
  8
0
 10
1890.0799999999999
 20
855.31999999999994
 42
-0
  0
VERTEX
  8
0
 10
1890.0799999999999
 20
1080.3199999999999
 42
0
  0
VERTEX
  8
0
 10
1805.0799999999999
 20
1080.3199999999999
 42
0
  0
SEQEND
  0
POLYLINE
  8
0
 10
0
 20
0
 39
0
 70
1
 66
1
  0
VERTEX
  8
0
 10
1967.24
 20
10.32
 42
-0
  0
VERTEX
  8
0
 10
1967.24
 20
310.31999999999999
 42
0
  0
VERTEX
  8
0
 10
2227.2399999999998
 20
310.31999999999999
 42
0
  0
VERTEX
  8
0
 10
2227.2399999999998
 20
10.320000000000032
 42
0
  0
SEQEND
  0
POLYLINE
  8
0
 10
0
 20
0
 39
0
 70
1
 66
1
  0
VERTEX
  8
0
 10
2189.855783691406
 20
32.438375778198257
 42
1
  0
VERTEX
  8
0
 10
2189.855783691406
 20
68.438377685546897
 42
1
  0
SEQEND
  0
POLYLINE
  8
0
 10
0
 20
0
 39
0
 70
1
 66
1
  0
VERTEX
  8
0
 10
2002.8853285217285
 20
250.71212036132812
 42
1
  0
VERTEX
  8
0
 10
2002.8853285217285
 20
286.71212036132812
 42
1
  0
SEQEND
  0
POLYLINE
  8
0
 10
0
 20
0
 39
0
 70
1
 66
1
  0
VERTEX
  8
0
 10
1967.24
 20
320.56
 42
-0
  0
VERTEX
  8
0
 10
1967.24
 20
620.55999999999995
 42
0
  0
VERTEX
  8
0
 10
2227.2399999999998
 20
620.55999999999995
 42
0
  0
VERTEX
  8
0
 10
2227.2399999999998
 20
320.56000000000006
 42
0
  0
SEQEND
  0
POLYLINE
  8
0
 10
0
 20
0
 39
0
 70
1
 66
1
  0
VERTEX
  8
0
 10
2189.855783691406
 20
342.67837577819824
 42
1
  0
VERTEX
  8
0
 10
2189.855783691406
 20
378.67837768554688
 42
1
  0
SEQEND
  0
POLYLINE
  8
0
 10
0
 20
0
 39
0
 70
1
 66
1
  0
VERTEX
  8
0
 10
2002.8853285217285
 20
560.95212036132807
 42
1
  0
VERTEX
  8
0
 10
2002.8853285217285
 20
596.95212036132807
 42
1
  0
SEQEND
  0
POLYLINE
  8
0
 10
0
 20
0
 39
0
 70
1
 66
1
  0
VERTEX
  8
0
 10
1968.6399999999999
 20
630.79999999999995
 42
-0
  0
VERTEX
  8
0
 10
1968.6399999999999
 20
930.79999999999995
 42
0
  0
VERTEX
  8
0
 10
2228.6399999999999
 20
930.79999999999995
 42
0
  0
VERTEX
  8
0
 10
2228.6399999999999
 20
630.79999999999995
 42
0
  0
SEQEND
  0
POLYLINE
  8
0
 10
0
 20
0
 39
0
 70
1
 66
1
  0
VERTEX
  8
0
 10
2191.2557836914061
 20
652.9183757781982
 42
1
  0
VERTEX
  8
0
 10
2191.2557836914061
 20
688.91837768554683
 42
1
  0
SEQEND
  0
POLYLINE
  8
0
 10
0
 20
0
 39
0
 70
1
 66
1
  0
VERTEX
  8
0
 10
2004.2853285217284
 20
871.19212036132808
 42
1
  0
VERTEX
  8
0
 10
2004.2853285217284
 20
907.19212036132808
 42
1
  0
SEQEND
  0
POLYLINE
  8
0
 10
0
 20
0
 39
0
 70
1
 66
1
  0
VERTEX
  8
0
 10
2237.7199999999998
 20
10.32
 42
-0
  0
VERTEX
  8
0
 10
2237.7199999999998
 20
310.31999999999999
 42
0
  0
VERTEX
  8
0
 10
2497.7199999999998
 20
310.31999999999999
 42
0
  0
VERTEX
  8
0
 10
2497.7199999999998
 20
10.320000000000032
 42
0
  0
SEQEND
  0
POLYLINE
  8
0
 10
0
 20
0
 39
0
 70
1
 66
1
  0
VERTEX
  8
0
 10
2460.335783691406
 20
32.438375778198257
 42
1
  0
VERTEX
  8
0
 10
2460.335783691406
 20
68.438377685546897
 42
1
  0
SEQEND
  0
POLYLINE
  8
0
 10
0
 20
0
 39
0
 70
1
 66
1
  0
VERTEX
  8
0
 10
2273.3653285217283
 20
250.71212036132812
 42
1
  0
VERTEX
  8
0
 10
2273.3653285217283
 20
286.71212036132812
 42
1
  0
SEQEND
  0
POLYLINE
  8
0
 10
0
 20
0
 39
0
 70
1
 66
1
  0
VERTEX
  8
0
 10
2237.7199999999998
 20
320.56
 42
-0
  0
VERTEX
  8
0
 10
2237.7199999999998
 20
620.55999999999995
 42
0
  0
VERTEX
  8
0
 10
2497.7199999999998
 20
620.55999999999995
 42
0
  0
VERTEX
  8
0
 10
2497.7199999999998
 20
320.56000000000006
 42
0
  0
SEQEND
  0
POLYLINE
  8
0
 10
0
 20
0
 39
0
 70
1
 66
1
  0
VERTEX
  8
0
 10
2460.335783691406
 20
342.67837577819824
 42
1
  0
VERTEX
  8
0
 10
2460.335783691406
 20
378.67837768554688
 42
1
  0
SEQEND
  0
POLYLINE
  8
0
 10
0
 20
0
 39
0
 70
1
 66
1
  0
VERTEX
  8
0
 10
2273.3653285217283
 20
560.95212036132807
 42
1
  0
VERTEX
  8
0
 10
2273.3653285217283
 20
596.95212036132807
 42
1
  0
SEQEND
  0
POLYLINE
  8
0
 10
0
 20
0
 39
0
 70
1
 66
1
  0
VERTEX
  8
0
 10
2239.1199999999999
 20
630.79999999999995
 42
-0
  0
VERTEX
  8
0
 10
2239.1199999999999
 20
930.79999999999995
 42
0
  0
VERTEX
  8
0
 10
2499.1199999999999
 20
930.79999999999995
 42
0
  0
VERTEX
  8
0
 10
2499.1199999999999
 20
630.79999999999995
 42
0
  0
SEQEND
  0
POLYLINE
  8
0
 10
0
 20
0
 39
0
 70
1
 66
1
  0
VERTEX
  8
0
 10
2461.7357836914061
 20
652.9183757781982
 42
1
  0
VERTEX
  8
0
 10
2461.7357836914061
 20
688.91837768554683
 42
1
  0
SEQEND
  0
POLYLINE
  8
0
 10
0
 20
0
 39
0
 70
1
 66
1
  0
VERTEX
  8
0
 10
2274.7653285217284
 20
871.19212036132808
 42
1
  0
VERTEX
  8
0
 10
2274.7653285217284
 20
907.19212036132808
 42
1
  0
SEQEND
  0
POLYLINE
  8
0
 10
0
 20
0
 39
0
 70
1
 66
1
  0
VERTEX
  8
0
 10
90.680000000000007
 20
90.679999999999993
 42
-0
  0
VERTEX
  8
0
 10
90.679999999999993
 20
435.68000000000001
 42
0
  0
VERTEX
  8
0
 10
210.68000000000001
 20
350.68000000000001
 42
0
  0
VERTEX
  8
0
 10
210.68000000000001
 20
90.680000000000021
 42
-0
  0
SEQEND
  0
POLYLINE
  8
0
 10
0
 20
0
 39
0
 70
1
 66
1
  0
VERTEX
  8
0
 10
150.68000000000001
 20
112.50202529907226
 42
1
  0
VERTEX
  8
0
 10
150.68000000000001
 20
158.50202148437501
 42
1
  0
SEQEND
  0
POLYLINE
  8
0
 10
0
 20
0
 39
0
 70
1
 66
1
  0
VERTEX
  8
0
 10
150.68000000000001
 20
241.44028442382813
 42
1
  0
VERTEX
  8
0
 10
150.68000000000001
 20
321.44028442382813
 42
1
  0
SEQEND
  0
POLYLINE
  8
0
 10
0
 20
0
 39
0
 70
1
 66
1
  0
VERTEX
  8
0
 10
210.68000000000001
 20
708.96000000000004
 42
-0
  0
VERTEX
  8
0
 10
210.68000000000006
 20
363.96000000000004
 42
0
  0
VERTEX
  8
0
 10
90.680000000000049
 20
448.96000000000004
 42
0
  0
VERTEX
  8
0
 10
90.680000000000007
 20
708.96000000000004
 42
-0
  0
SEQEND
  0
POLYLINE
  8
0
 10
0
 20
0
 39
0
 70
1
 66
1
  0
VERTEX
  8
0
 10
150.68000000000001
 20
687.13797470092777
 42
1
  0
VERTEX
  8
0
 10
150.68000000000001
 20
641.13797851562504
 42
1
  0
SEQEND
  0
POLYLINE
  8
0
 10
0
 20
0
 39
0
 70
1
 66
1
  0
VERTEX
  8
0
 10
150.68000000000004
 20
558.19971557617191
 42
1
  0
VERTEX
  8
0
 10
150.68000000000006
 20
478.19971557617191
 42
1
  0
SEQEND
  0
POLYLINE
  8
0
 10
0
 20
0
 39
0
 70
1
 66
1
  0
VERTEX
  8
0
 10
435.68000000000001
 20
890.91999999999996
 42
-0
  0
VERTEX
  8
0
 10
90.680000000000007
 20
890.91999999999996
 42
0
  0
VERTEX
  8
0
 10
175.68000000000001
 20
1010.92
 42
0
  0
VERTEX
  8
0
 10
435.68000000000001
 20
1010.92
 42
-0
  0
SEQEND
  0
POLYLINE
  8
0
 10
0
 20
0
 39
0
 70
1
 66
1
  0
VERTEX
  8
0
 10
413.85797470092774
 20
950.91999999999996
 42
1
  0
VERTEX
  8
0
 10
367.85797851562501
 20
950.91999999999996
 42
1
  0
SEQEND
  0
POLYLINE
  8
0
 10
0
 20
0
 39
0
 70
1
 66
1
  0
VERTEX
  8
0
 10
284.91971557617188
 20
950.91999999999996
 42
1
  0
VERTEX
  8
0
 10
204.91971557617188
 20
950.91999999999996
 42
1
  0
SEQEND
  0
POLYLINE
  8
0
 10
0
 20
0
 39
0
 70
1
 66
1
  0
VERTEX
  8
0
 10
406.23999999999995
 20
90.679999999999993
 42
-0
  0
VERTEX
  8
0
 10
406.23999999999995
 20
435.68000000000001
 42
0
  0
VERTEX
  8
0
 10
526.2399999999999
 20
350.68000000000001
 42
0
  0
VERTEX
  8
0
 10
526.24000000000001
 20
90.680000000000021
 42
-0
  0
SEQEND
  0
POLYLINE
  8
0
 10
0
 20
0
 39
0
 70
1
 66
1
  0
VERTEX
  8
0
 10
466.23999999999995
 20
112.50202529907226
 42
1
  0
VERTEX
  8
0
 10
466.23999999999995
 20
158.50202148437501
 42
1
  0
SEQEND
  0
POLYLINE
  8
0
 10
0
 20
0
 39
0
 70
1
 66
1
  0
VERTEX
  8
0
 10
466.23999999999995
 20
241.44028442382813
 42
1
  0
VERTEX
  8
0
 10
466.23999999999995
 20
321.44028442382813
 42
1
  0
SEQEND
  0
POLYLINE
  8
0
 10
0
 20
0
 39
0
 70
1
 66
1
  0
VERTEX
  8
0
 10
526.24000000000001
 20
708.96000000000004
 42
-0
  0
VERTEX
  8
0
 10
526.24000000000012
 20
363.96000000000004
 42
0
  0
VERTEX
  8
0
 10
406.24000000000007
 20
448.96000000000004
 42
0
  0
VERTEX
  8
0
 10
406.24000000000001
 20
708.96000000000004
 42
-0
  0
SEQEND
  0
POLYLINE
  8
0
 10
0
 20
0
 39
0
 70
1
 66
1
  0
VERTEX
  8
0
 10
466.24000000000001
 20
687.13797470092777
 42
1
  0
VERTEX
  8
0
 10
466.24000000000001
 20
641.13797851562504
 42
1
  0
SEQEND
  0
POLYLINE
  8
0
 10
0
 20
0
 39
0
 70
1
 66
1
  0
VERTEX
  8
0
 10
466.24000000000001
 20
558.19971557617191
 42
1
  0
VERTEX
  8
0
 10
466.24000000000007
 20
478.19971557617191
 42
1
  0
SEQEND
  0
POLYLINE
  8
0
 10
0
 20
0
 39
0
 70
1
 66
1
  0
VERTEX
  8
0
 10
721.79999999999995
 20
90.679999999999993
 42
-0
  0
VERTEX
  8
0
 10
721.79999999999995
 20
435.68000000000001
 42
0
  0
VERTEX
  8
0
 10
841.79999999999995
 20
350.68000000000001
 42
0
  0
VERTEX
  8
0
 10
841.79999999999995
 20
90.680000000000021
 42
-0
  0
SEQEND
  0
POLYLINE
  8
0
 10
0
 20
0
 39
0
 70
1
 66
1
  0
VERTEX
  8
0
 10
781.79999999999995
 20
112.50202529907226
 42
1
  0
VERTEX
  8
0
 10
781.79999999999995
 20
158.50202148437501
 42
1
  0
SEQEND
  0
POLYLINE
  8
0
 10
0
 20
0
 39
0
 70
1
 66
1
  0
VERTEX
  8
0
 10
781.79999999999995
 20
241.44028442382813
 42
1
  0
VERTEX
  8
0
 10
781.79999999999995
 20
321.44028442382813
 42
1
  0
SEQEND
  0
POLYLINE
  8
0
 10
0
 20
0
 39
0
 70
1
 66
1
  0
VERTEX
  8
0
 10
841.79999999999995
 20
708.96000000000004
 42
-0
  0
VERTEX
  8
0
 10
841.80000000000007
 20
363.96000000000004
 42
0
  0
VERTEX
  8
0
 10
721.79999999999995
 20
448.96000000000004
 42
0
  0
VERTEX
  8
0
 10
721.79999999999995
 20
708.96000000000004
 42
-0
  0
SEQEND
  0
POLYLINE
  8
0
 10
0
 20
0
 39
0
 70
1
 66
1
  0
VERTEX
  8
0
 10
781.79999999999995
 20
687.13797470092777
 42
1
  0
VERTEX
  8
0
 10
781.79999999999995
 20
641.13797851562504
 42
1
  0
SEQEND
  0
POLYLINE
  8
0
 10
0
 20
0
 39
0
 70
1
 66
1
  0
VERTEX
  8
0
 10
781.79999999999995
 20
558.19971557617191
 42
1
  0
VERTEX
  8
0
 10
781.79999999999995
 20
478.19971557617191
 42
1
  0
SEQEND
  0
POLYLINE
  8
0
 10
0
 20
0
 39
0
 70
1
 66
1
  0
VERTEX
  8
0
 10
1037.3599999999999
 20
90.679999999999993
 42
-0
  0
VERTEX
  8
0
 10
1037.3599999999999
 20
435.68000000000001
 42
0
  0
VERTEX
  8
0
 10
1157.3599999999999
 20
350.68000000000001
 42
0
  0
VERTEX
  8
0
 10
1157.3599999999999
 20
90.680000000000021
 42
-0
  0
SEQEND
  0
POLYLINE
  8
0
 10
0
 20
0
 39
0
 70
1
 66
1
  0
VERTEX
  8
0
 10
1097.3599999999999
 20
112.50202529907226
 42
1
  0
VERTEX
  8
0
 10
1097.3599999999999
 20
158.50202148437501
 42
1
  0
SEQEND
  0
POLYLINE
  8
0
 10
0
 20
0
 39
0
 70
1
 66
1
  0
VERTEX
  8
0
 10
1097.3599999999999
 20
241.44028442382813
 42
1
  0
VERTEX
  8
0
 10
1097.3599999999999
 20
321.44028442382813
 42
1
  0
SEQEND
  0
POLYLINE
  8
0
 10
0
 20
0
 39
0
 70
1
 66
1
  0
VERTEX
  8
0
 10
1157.3599999999999
 20
708.96000000000004
 42
-0
  0
VERTEX
  8
0
 10
1157.3599999999999
 20
363.96000000000004
 42
0
  0
VERTEX
  8
0
 10
1037.3599999999999
 20
448.96000000000004
 42
0
  0
VERTEX
  8
0
 10
1037.3599999999999
 20
708.96000000000004
 42
-0
  0
SEQEND
  0
POLYLINE
  8
0
 10
0
 20
0
 39
0
 70
1
 66
1
  0
VERTEX
  8
0
 10
1097.3599999999999
 20
687.13797470092777
 42
1
  0
VERTEX
  8
0
 10
1097.3599999999999
 20
641.13797851562504
 42
1
  0
SEQEND
  0
POLYLINE
  8
0
 10
0
 20
0
 39
0
 70
1
 66
1
  0
VERTEX
  8
0
 10
1097.3599999999999
 20
558.19971557617191
 42
1
  0
VERTEX
  8
0
 10
1097.3599999999999
 20
478.19971557617191
 42
1
  0
SEQEND
  0
POLYLINE
  8
0
 10
0
 20
0
 39
0
 70
1
 66
1
  0
VERTEX
  8
0
 10
446
 20
954.91999999999996
 42
-0
  0
VERTEX
  8
0
 10
646
 20
954.91999999999996
 42
-0
  0
VERTEX
  8
0
 10
646
 20
890.91999999999996
 42
-0
  0
VERTEX
  8
0
 10
446
 20
890.91999999999996
 42
-0
  0
SEQEND
  0
POLYLINE
  8
0
 10
0
 20
0
 39
0
 70
1
 66
1
  0
VERTEX
  8
0
 10
624
 20
922.91999999999996
 42
1
  0
VERTEX
  8
0
 10
598
 20
922.91999999999996
 42
1
  0
SEQEND
  0
POLYLINE
  8
0
 10
0
 20
0
 39
0
 70
1
 66
1
  0
VERTEX
  8
0
 10
494
 20
922.91999999999996
 42
1
  0
VERTEX
  8
0
 10
468
 20
922.91999999999996
 42
1
  0
SEQEND
  0
POLYLINE
  8
0
 10
0
 20
0
 39
0
 70
1
 66
1
  0
VERTEX
  8
0
 10
446
 20
1029.1199999999999
 42
-0
  0
VERTEX
  8
0
 10
646
 20
1029.1199999999999
 42
-0
  0
VERTEX
  8
0
 10
646
 20
965.12
 42
-0
  0
VERTEX
  8
0
 10
446
 20
965.12
 42
-0
  0
SEQEND
  0
POLYLINE
  8
0
 10
0
 20
0
 39
0
 70
1
 66
1
  0
VERTEX
  8
0
 10
624
 20
997.12
 42
1
  0
VERTEX
  8
0
 10
598
 20
997.12
 42
1
  0
SEQEND
  0
POLYLINE
  8
0
 10
0
 20
0
 39
0
 70
1
 66
1
  0
VERTEX
  8
0
 10
494
 20
997.12
 42
1
  0
VERTEX
  8
0
 10
468
 20
997.12
 42
1
  0
SEQEND
  0
POLYLINE
  8
0
 10
0
 20
0
 39
0
 70
1
 66
1
  0
VERTEX
  8
0
 10
2032.6399999999999
 20
1141.04
 42
-0
  0
VERTEX
  8
0
 10
2032.6399999999999
 20
941.03999999999996
 42
-0
  0
VERTEX
  8
0
 10
1968.6399999999999
 20
941.03999999999996
 42
-0
  0
VERTEX
  8
0
 10
1968.6399999999999
 20
1141.04
 42
-0
  0
SEQEND
  0
POLYLINE
  8
0
 10
0
 20
0
 39
0
 70
1
 66
1
  0
VERTEX
  8
0
 10
2000.6399999999999
 20
963.03999999999996
 42
1
  0
VERTEX
  8
0
 10
2000.6399999999999
 20
989.03999999999996
 42
1
  0
SEQEND
  0
POLYLINE
  8
0
 10
0
 20
0
 39
0
 70
1
 66
1
  0
VERTEX
  8
0
 10
2000.6399999999999
 20
1093.04
 42
1
  0
VERTEX
  8
0
 10
2000.6399999999999
 20
1119.04
 42
1
  0
SEQEND
  0
POLYLINE
  8
0
 10
0
 20
0
 39
0
 70
1
 66
1
  0
VERTEX
  8
0
 10
2107.1199999999999
 20
1141.04
 42
-0
  0
VERTEX
  8
0
 10
2107.1199999999999
 20
941.03999999999996
 42
-0
  0
VERTEX
  8
0
 10
2043.1199999999999
 20
941.03999999999996
 42
-0
  0
VERTEX
  8
0
 10
2043.1199999999999
 20
1141.04
 42
-0
  0
SEQEND
  0
POLYLINE
  8
0
 10
0
 20
0
 39
0
 70
1
 66
1
  0
VERTEX
  8
0
 10
2075.1199999999999
 20
963.03999999999996
 42
1
  0
VERTEX
  8
0
 10
2075.1199999999999
 20
989.03999999999996
 42
1
  0
SEQEND
  0
POLYLINE
  8
0
 10
0
 20
0
 39
0
 70
1
 66
1
  0
VERTEX
  8
0
 10
2075.1199999999999
 20
1093.04
 42
1
  0
VERTEX
  8
0
 10
2075.1199999999999
 20
1119.04
 42
1
  0
SEQEND
  0
POLYLINE
  8
0
 10
0
 20
0
 39
0
 70
1
 66
1
  0
VERTEX
  8
0
 10
2181.5999999999999
 20
1141.04
 42
-0
  0
VERTEX
  8
0
 10
2181.5999999999999
 20
941.03999999999996
 42
-0
  0
VERTEX
  8
0
 10
2117.5999999999999
 20
941.03999999999996
 42
-0
  0
VERTEX
  8
0
 10
2117.5999999999999
 20
1141.04
 42
-0
  0
SEQEND
  0
POLYLINE
  8
0
 10
0
 20
0
 39
0
 70
1
 66
1
  0
VERTEX
  8
0
 10
2149.5999999999999
 20
963.03999999999996
 42
1
  0
VERTEX
  8
0
 10
2149.5999999999999
 20
989.03999999999996
 42
1
  0
SEQEND
  0
POLYLINE
  8
0
 10
0
 20
0
 39
0
 70
1
 66
1
  0
VERTEX
  8
0
 10
2149.5999999999999
 20
1093.04
 42
1
  0
VERTEX
  8
0
 10
2149.5999999999999
 20
1119.04
 42
1
  0
SEQEND
  0
POLYLINE
  8
0
 10
0
 20
0
 39
0
 70
1
 66
1
  0
VERTEX
  8
0
 10
2256.0799999999999
 20
1141.04
 42
-0
  0
VERTEX
  8
0
 10
2256.0799999999999
 20
941.03999999999996
 42
-0
  0
VERTEX
  8
0
 10
2192.0799999999999
 20
941.03999999999996
 42
-0
  0
VERTEX
  8
0
 10
2192.0799999999999
 20
1141.04
 42
-0
  0
SEQEND
  0
POLYLINE
  8
0
 10
0
 20
0
 39
0
 70
1
 66
1
  0
VERTEX
  8
0
 10
2224.0799999999999
 20
963.03999999999996
 42
1
  0
VERTEX
  8
0
 10
2224.0799999999999
 20
989.03999999999996
 42
1
  0
SEQEND
  0
POLYLINE
  8
0
 10
0
 20
0
 39
0
 70
1
 66
1
  0
VERTEX
  8
0
 10
2224.0799999999999
 20
1093.04
 42
1
  0
VERTEX
  8
0
 10
2224.0799999999999
 20
1119.04
 42
1
  0
SEQEND
  0
POLYLINE
  8
0
 10
0
 20
0
 39
0
 70
1
 66
1
  0
VERTEX
  8
0
 10
2330.5599999999999
 20
1141.04
 42
-0
  0
VERTEX
  8
0
 10
2330.5599999999999
 20
941.03999999999996
 42
-0
  0
VERTEX
  8
0
 10
2266.5599999999999
 20
941.03999999999996
 42
-0
  0
VERTEX
  8
0
 10
2266.5599999999999
 20
1141.04
 42
-0
  0
SEQEND
  0
POLYLINE
  8
0
 10
0
 20
0
 39
0
 70
1
 66
1
  0
VERTEX
  8
0
 10
2298.5599999999999
 20
963.03999999999996
 42
1
  0
VERTEX
  8
0
 10
2298.5599999999999
 20
989.03999999999996
 42
1
  0
SEQEND
  0
POLYLINE
  8
0
 10
0
 20
0
 39
0
 70
1
 66
1
  0
VERTEX
  8
0
 10
2298.5599999999999
 20
1093.04
 42
1
  0
VERTEX
  8
0
 10
2298.5599999999999
 20
1119.04
 42
1
  0
SEQEND
  0
POLYLINE
  8
0
 10
0
 20
0
 39
0
 70
1
 66
1
  0
VERTEX
  8
0
 10
2405.04
 20
1141.04
 42
-0
  0
VERTEX
  8
0
 10
2405.04
 20
941.03999999999996
 42
-0
  0
VERTEX
  8
0
 10
2341.04
 20
941.03999999999996
 42
-0
  0
VERTEX
  8
0
 10
2341.04
 20
1141.04
 42
-0
  0
SEQEND
  0
POLYLINE
  8
0
 10
0
 20
0
 39
0
 70
1
 66
1
  0
VERTEX
  8
0
 10
2373.04
 20
963.03999999999996
 42
1
  0
VERTEX
  8
0
 10
2373.04
 20
989.03999999999996
 42
1
  0
SEQEND
  0
POLYLINE
  8
0
 10
0
 20
0
 39
0
 70
1
 66
1
  0
VERTEX
  8
0
 10
2373.04
 20
1093.04
 42
1
  0
VERTEX
  8
0
 10
2373.04
 20
1119.04
 42
1
  0
SEQEND
  0
POLYLINE
  8
0
 10
0
 20
0
 39
0
 70
1
 66
1
  0
VERTEX
  8
0
 10
2479.52
 20
1141.04
 42
-0
  0
VERTEX
  8
0
 10
2479.52
 20
941.03999999999996
 42
-0
  0
VERTEX
  8
0
 10
2415.52
 20
941.03999999999996
 42
-0
  0
VERTEX
  8
0
 10
2415.52
 20
1141.04
 42
-0
  0
SEQEND
  0
POLYLINE
  8
0
 10
0
 20
0
 39
0
 70
1
 66
1
  0
VERTEX
  8
0
 10
2447.52
 20
963.03999999999996
 42
1
  0
VERTEX
  8
0
 10
2447.52
 20
989.03999999999996
 42
1
  0
SEQEND
  0
POLYLINE
  8
0
 10
0
 20
0
 39
0
 70
1
 66
1
  0
VERTEX
  8
0
 10
2447.52
 20
1093.04
 42
1
  0
VERTEX
  8
0
 10
2447.52
 20
1119.04
 42
1
  0
SEQEND
  0
POLYLINE
  8
0
 10
0
 20
0
 39
0
 70
1
 66
1
  0
VERTEX
  8
0
 10
2554
 20
1141.04
 42
-0
  0
VERTEX
  8
0
 10
2554
 20
941.03999999999996
 42
-0
  0
VERTEX
  8
0
 10
2490
 20
941.03999999999996
 42
-0
  0
VERTEX
  8
0
 10
2490
 20
1141.04
 42
-0
  0
SEQEND
  0
POLYLINE
  8
0
 10
0
 20
0
 39
0
 70
1
 66
1
  0
VERTEX
  8
0
 10
2522
 20
963.03999999999996
 42
1
  0
VERTEX
  8
0
 10
2522
 20
989.03999999999996
 42
1
  0
SEQEND
  0
POLYLINE
  8
0
 10
0
 20
0
 39
0
 70
1
 66
1
  0
VERTEX
  8
0
 10
2522
 20
1093.04
 42
1
  0
VERTEX
  8
0
 10
2522
 20
1119.04
 42
1
  0
SEQEND
  0
POLYLINE
  8
0
 10
0
 20
0
 39
0
 70
1
 66
1
  0
VERTEX
  8
0
 10
2572.1999999999998
 20
210.31999999999999
 42
-0
  0
VERTEX
  8
0
 10
2572.1999999999998
 20
10.320000000000004
 42
-0
  0
VERTEX
  8
0
 10
2508.1999999999998
 20
10.32
 42
-0
  0
VERTEX
  8
0
 10
2508.1999999999998
 20
210.31999999999999
 42
-0
  0
SEQEND
  0
POLYLINE
  8
0
 10
0
 20
0
 39
0
 70
1
 66
1
  0
VERTEX
  8
0
 10
2540.1999999999998
 20
32.320000000000007
 42
1
  0
VERTEX
  8
0
 10
2540.1999999999998
 20
58.32
 42
1
  0
SEQEND
  0
POLYLINE
  8
0
 10
0
 20
0
 39
0
 70
1
 66
1
  0
VERTEX
  8
0
 10
2540.1999999999998
 20
162.31999999999999
 42
1
  0
VERTEX
  8
0
 10
2540.1999999999998
 20
188.31999999999999
 42
1
  0
SEQEND
  0
POLYLINE
  8
0
 10
0
 20
0
 39
0
 70
1
 66
1
  0
VERTEX
  8
0
 10
2572.1999999999998
 20
420.60000000000002
 42
-0
  0
VERTEX
  8
0
 10
2572.1999999999998
 20
220.59999999999999
 42
-0
  0
VERTEX
  8
0
 10
2508.1999999999998
 20
220.59999999999999
 42
-0
  0
VERTEX
  8
0
 10
2508.1999999999998
 20
420.60000000000002
 42
-0
  0
SEQEND
  0
POLYLINE
  8
0
 10
0
 20
0
 39
0
 70
1
 66
1
  0
VERTEX
  8
0
 10
2540.1999999999998
 20
242.59999999999999
 42
1
  0
VERTEX
  8
0
 10
2540.1999999999998
 20
268.60000000000002
 42
1
  0
SEQEND
  0
POLYLINE
  8
0
 10
0
 20
0
 39
0
 70
1
 66
1
  0
VERTEX
  8
0
 10
2540.1999999999998
 20
372.60000000000002
 42
1
  0
VERTEX
  8
0
 10
2540.1999999999998
 20
398.60000000000002
 42
1
  0
SEQEND
  0
POLYLINE
  8
0
 10
0
 20
0
 39
0
 70
1
 66
1
  0
VERTEX
  8
0
 10
2573.5999999999999
 20
630.88
 42
-0
  0
VERTEX
  8
0
 10
2573.5999999999999
 20
430.88
 42
-0
  0
VERTEX
  8
0
 10
2509.5999999999999
 20
430.88
 42
-0
  0
VERTEX
  8
0
 10
2509.5999999999999
 20
630.88
 42
-0
  0
SEQEND
  0
POLYLINE
  8
0
 10
0
 20
0
 39
0
 70
1
 66
1
  0
VERTEX
  8
0
 10
2541.5999999999999
 20
452.88
 42
1
  0
VERTEX
  8
0
 10
2541.5999999999999
 20
478.88
 42
1
  0
SEQEND
  0
POLYLINE
  8
0
 10
0
 20
0
 39
0
 70
1
 66
1
  0
VERTEX
  8
0
 10
2541.5999999999999
 20
582.88
 42
1
  0
VERTEX
  8
0
 10
2541.5999999999999
 20
608.88
 42
1
  0
SEQEND
  0
POLYLINE
  8
0
 10
0
 20
0
 39
0
 70
1
 66
1
  0
VERTEX
  8
0
 10
2573.5999999999999
 20
841.15999999999997
 42
-0
  0
VERTEX
  8
0
 10
2573.5999999999999
 20
641.15999999999997
 42
-0
  0
VERTEX
  8
0
 10
2509.5999999999999
 20
641.15999999999997
 42
-0
  0
VERTEX
  8
0
 10
2509.5999999999999
 20
841.15999999999997
 42
-0
  0
SEQEND
  0
POLYLINE
  8
0
 10
0
 20
0
 39
0
 70
1
 66
1
  0
VERTEX
  8
0
 10
2541.5999999999999
 20
663.15999999999997
 42
1
  0
VERTEX
  8
0
 10
2541.5999999999999
 20
689.15999999999997
 42
1
  0
SEQEND
  0
POLYLINE
  8
0
 10
0
 20
0
 39
0
 70
1
 66
1
  0
VERTEX
  8
0
 10
2541.5999999999999
 20
793.15999999999997
 42
1
  0
VERTEX
  8
0
 10
2541.5999999999999
 20
819.15999999999997
 42
1
  0
SEQEND
  0
POLYLINE
  8
0
 10
0
 20
0
 39
0
 70
1
 66
1
  0
VERTEX
  8
0
 10
2628.48
 20
1051.4400000000001
 42
-0
  0
VERTEX
  8
0
 10
2628.48
 20
851.43999999999994
 42
-0
  0
VERTEX
  8
0
 10
2564.48
 20
851.43999999999994
 42
-0
  0
VERTEX
  8
0
 10
2564.48
 20
1051.4400000000001
 42
-0
  0
SEQEND
  0
POLYLINE
  8
0
 10
0
 20
0
 39
0
 70
1
 66
1
  0
VERTEX
  8
0
 10
2596.48
 20
873.43999999999994
 42
1
  0
VERTEX
  8
0
 10
2596.48
 20
899.43999999999994
 42
1
  0
SEQEND
  0
POLYLINE
  8
0
 10
0
 20
0
 39
0
 70
1
 66
1
  0
VERTEX
  8
0
 10
2596.48
 20
1003.4399999999999
 42
1
  0
VERTEX
  8
0
 10
2596.48
 20
1029.4400000000001
 42
1
  0
SEQEND
  0
POLYLINE
  8
0
 10
0
 20
0
 39
0
 70
1
 66
1
  0
VERTEX
  8
0
 10
2646.6799999999998
 20
210.31999999999999
 42
-0
  0
VERTEX
  8
0
 10
2646.6799999999998
 20
10.320000000000004
 42
-0
  0
VERTEX
  8
0
 10
2582.6799999999998
 20
10.32
 42
-0
  0
VERTEX
  8
0
 10
2582.6799999999998
 20
210.31999999999999
 42
-0
  0
SEQEND
  0
POLYLINE
  8
0
 10
0
 20
0
 39
0
 70
1
 66
1
  0
VERTEX
  8
0
 10
2614.6799999999998
 20
32.320000000000007
 42
1
  0
VERTEX
  8
0
 10
2614.6799999999998
 20
58.32
 42
1
  0
SEQEND
  0
POLYLINE
  8
0
 10
0
 20
0
 39
0
 70
1
 66
1
  0
VERTEX
  8
0
 10
2614.6799999999998
 20
162.31999999999999
 42
1
  0
VERTEX
  8
0
 10
2614.6799999999998
 20
188.31999999999999
 42
1
  0
SEQEND
  0
POLYLINE
  8
0
 10
0
 20
0
 39
0
 70
1
 66
1
  0
VERTEX
  8
0
 10
2646.6799999999998
 20
420.60000000000002
 42
-0
  0
VERTEX
  8
0
 10
2646.6799999999998
 20
220.59999999999999
 42
-0
  0
VERTEX
  8
0
 10
2582.6799999999998
 20
220.59999999999999
 42
-0
  0
VERTEX
  8
0
 10
2582.6799999999998
 20
420.60000000000002
 42
-0
  0
SEQEND
  0
POLYLINE
  8
0
 10
0
 20
0
 39
0
 70
1
 66
1
  0
VERTEX
  8
0
 10
2614.6799999999998
 20
242.59999999999999
 42
1
  0
VERTEX
  8
0
 10
2614.6799999999998
 20
268.60000000000002
 42
1
  0
SEQEND
  0
POLYLINE
  8
0
 10
0
 20
0
 39
0
 70
1
 66
1
  0
VERTEX
  8
0
 10
2614.6799999999998
 20
372.60000000000002
 42
1
  0
VERTEX
  8
0
 10
2614.6799999999998
 20
398.60000000000002
 42
1
  0
SEQEND
  0
POLYLINE
  8
0
 10
0
 20
0
 39
0
 70
1
 66
1
  0
VERTEX
  8
0
 10
2648.0799999999999
 20
630.88
 42
-0
  0
VERTEX
  8
0
 10
2648.0799999999999
 20
430.88
 42
-0
  0
VERTEX
  8
0
 10
2584.0799999999999
 20
430.88
 42
-0
  0
VERTEX
  8
0
 10
2584.0799999999999
 20
630.88
 42
-0
  0
SEQEND
  0
POLYLINE
  8
0
 10
0
 20
0
 39
0
 70
1
 66
1
  0
VERTEX
  8
0
 10
2616.0799999999999
 20
452.88
 42
1
  0
VERTEX
  8
0
 10
2616.0799999999999
 20
478.88
 42
1
  0
SEQEND
  0
POLYLINE
  8
0
 10
0
 20
0
 39
0
 70
1
 66
1
  0
VERTEX
  8
0
 10
2616.0799999999999
 20
582.88
 42
1
  0
VERTEX
  8
0
 10
2616.0799999999999
 20
608.88
 42
1
  0
SEQEND
  0
POLYLINE
  8
0
 10
0
 20
0
 39
0
 70
1
 66
1
  0
VERTEX
  8
0
 10
2648.0799999999999
 20
841.15999999999997
 42
-0
  0
VERTEX
  8
0
 10
2648.0799999999999
 20
641.15999999999997
 42
-0
  0
VERTEX
  8
0
 10
2584.0799999999999
 20
641.15999999999997
 42
-0
  0
VERTEX
  8
0
 10
2584.0799999999999
 20
841.15999999999997
 42
-0
  0
SEQEND
  0
POLYLINE
  8
0
 10
0
 20
0
 39
0
 70
1
 66
1
  0
VERTEX
  8
0
 10
2616.0799999999999
 20
663.15999999999997
 42
1
  0
VERTEX
  8
0
 10
2616.0799999999999
 20
689.15999999999997
 42
1
  0
SEQEND
  0
POLYLINE
  8
0
 10
0
 20
0
 39
0
 70
1
 66
1
  0
VERTEX
  8
0
 10
2616.0799999999999
 20
793.15999999999997
 42
1
  0
VERTEX
  8
0
 10
2616.0799999999999
 20
819.15999999999997
 42
1
  0
SEQEND
  0
POLYLINE
  8
0
 10
0
 20
0
 39
0
 70
1
 66
1
  0
VERTEX
  8
0
 10
2702.96
 20
1051.4400000000001
 42
-0
  0
VERTEX
  8
0
 10
2702.96
 20
851.43999999999994
 42
-0
  0
VERTEX
  8
0
 10
2638.96
 20
851.43999999999994
 42
-0
  0
VERTEX
  8
0
 10
2638.96
 20
1051.4400000000001
 42
-0
  0
SEQEND
  0
POLYLINE
  8
0
 10
0
 20
0
 39
0
 70
1
 66
1
  0
VERTEX
  8
0
 10
2670.96
 20
873.43999999999994
 42
1
  0
VERTEX
  8
0
 10
2670.96
 20
899.43999999999994
 42
1
  0
SEQEND
  0
POLYLINE
  8
0
 10
0
 20
0
 39
0
 70
1
 66
1
  0
VERTEX
  8
0
 10
2670.96
 20
1003.4399999999999
 42
1
  0
VERTEX
  8
0
 10
2670.96
 20
1029.4400000000001
 42
1
  0
SEQEND
  0
POLYLINE
  8
0
 10
0
 20
0
 39
0
 70
1
 66
1
  0
VERTEX
  8
0
 10
2721.1599999999999
 20
210.31999999999999
 42
-0
  0
VERTEX
  8
0
 10
2721.1599999999999
 20
10.320000000000004
 42
-0
  0
VERTEX
  8
0
 10
2657.1599999999999
 20
10.32
 42
-0
  0
VERTEX
  8
0
 10
2657.1599999999999
 20
210.31999999999999
 42
-0
  0
SEQEND
  0
POLYLINE
  8
0
 10
0
 20
0
 39
0
 70
1
 66
1
  0
VERTEX
  8
0
 10
2689.1599999999999
 20
32.320000000000007
 42
1
  0
VERTEX
  8
0
 10
2689.1599999999999
 20
58.32
 42
1
  0
SEQEND
  0
POLYLINE
  8
0
 10
0
 20
0
 39
0
 70
1
 66
1
  0
VERTEX
  8
0
 10
2689.1599999999999
 20
162.31999999999999
 42
1
  0
VERTEX
  8
0
 10
2689.1599999999999
 20
188.31999999999999
 42
1
  0
SEQEND
  0
POLYLINE
  8
0
 10
0
 20
0
 39
0
 70
1
 66
1
  0
VERTEX
  8
0
 10
2721.1599999999999
 20
420.60000000000002
 42
-0
  0
VERTEX
  8
0
 10
2721.1599999999999
 20
220.59999999999999
 42
-0
  0
VERTEX
  8
0
 10
2657.1599999999999
 20
220.59999999999999
 42
-0
  0
VERTEX
  8
0
 10
2657.1599999999999
 20
420.60000000000002
 42
-0
  0
SEQEND
  0
POLYLINE
  8
0
 10
0
 20
0
 39
0
 70
1
 66
1
  0
VERTEX
  8
0
 10
2689.1599999999999
 20
242.59999999999999
 42
1
  0
VERTEX
  8
0
 10
2689.1599999999999
 20
268.60000000000002
 42
1
  0
SEQEND
  0
POLYLINE
  8
0
 10
0
 20
0
 39
0
 70
1
 66
1
  0
VERTEX
  8
0
 10
2689.1599999999999
 20
372.60000000000002
 42
1
  0
VERTEX
  8
0
 10
2689.1599999999999
 20
398.60000000000002
 42
1
  0
SEQEND
  0
POLYLINE
  8
0
 10
0
 20
0
 39
0
 70
1
 66
1
  0
VERTEX
  8
0
 10
2722.5599999999999
 20
630.88
 42
-0
  0
VERTEX
  8
0
 10
2722.5599999999999
 20
430.88
 42
-0
  0
VERTEX
  8
0
 10
2658.5599999999999
 20
430.88
 42
-0
  0
VERTEX
  8
0
 10
2658.5599999999999
 20
630.88
 42
-0
  0
SEQEND
  0
POLYLINE
  8
0
 10
0
 20
0
 39
0
 70
1
 66
1
  0
VERTEX
  8
0
 10
2690.5599999999999
 20
452.88
 42
1
  0
VERTEX
  8
0
 10
2690.5599999999999
 20
478.88
 42
1
  0
SEQEND
  0
POLYLINE
  8
0
 10
0
 20
0
 39
0
 70
1
 66
1
  0
VERTEX
  8
0
 10
2690.5599999999999
 20
582.88
 42
1
  0
VERTEX
  8
0
 10
2690.5599999999999
 20
608.88
 42
1
  0
SEQEND
  0
POLYLINE
  8
0
 10
0
 20
0
 39
0
 70
1
 66
1
  0
VERTEX
  8
0
 10
2722.5599999999999
 20
841.15999999999997
 42
-0
  0
VERTEX
  8
0
 10
2722.5599999999999
 20
641.15999999999997
 42
-0
  0
VERTEX
  8
0
 10
2658.5599999999999
 20
641.15999999999997
 42
-0
  0
VERTEX
  8
0
 10
2658.5599999999999
 20
841.15999999999997
 42
-0
  0
SEQEND
  0
POLYLINE
  8
0
 10
0
 20
0
 39
0
 70
1
 66
1
  0
VERTEX
  8
0
 10
2690.5599999999999
 20
663.15999999999997
 42
1
  0
VERTEX
  8
0
 10
2690.5599999999999
 20
689.15999999999997
 42
1
  0
SEQEND
  0
POLYLINE
  8
0
 10
0
 20
0
 39
0
 70
1
 66
1
  0
VERTEX
  8
0
 10
2690.5599999999999
 20
793.15999999999997
 42
1
  0
VERTEX
  8
0
 10
2690.5599999999999
 20
819.15999999999997
 42
1
  0
SEQEND
  0
POLYLINE
  8
0
 10
0
 20
0
 39
0
 70
1
 66
1
  0
VERTEX
  8
0
 10
2564.48
 20
1125.72
 42
-0
  0
VERTEX
  8
0
 10
2764.48
 20
1125.72
 42
-0
  0
VERTEX
  8
0
 10
2764.48
 20
1061.72
 42
-0
  0
VERTEX
  8
0
 10
2564.48
 20
1061.72
 42
-0
  0
SEQEND
  0
POLYLINE
  8
0
 10
0
 20
0
 39
0
 70
1
 66
1
  0
VERTEX
  8
0
 10
2742.48
 20
1093.72
 42
1
  0
VERTEX
  8
0
 10
2716.48
 20
1093.72
 42
1
  0
SEQEND
  0
POLYLINE
  8
0
 10
0
 20
0
 39
0
 70
1
 66
1
  0
VERTEX
  8
0
 10
2612.48
 20
1093.72
 42
1
  0
VERTEX
  8
0
 10
2586.48
 20
1093.72
 42
1
  0
SEQEND
  0
POLYLINE
  8
0
 10
0
 20
0
 39
0
 70
1
 66
1
  0
VERTEX
  8
0
 10
2777.4400000000001
 20
1051.4400000000001
 42
-0
  0
VERTEX
  8
0
 10
2777.4400000000001
 20
851.43999999999994
 42
-0
  0
VERTEX
  8
0
 10
2713.4400000000001
 20
851.43999999999994
 42
-0
  0
VERTEX
  8
0
 10
2713.4400000000001
 20
1051.4400000000001
 42
-0
  0
SEQEND
  0
POLYLINE
  8
0
 10
0
 20
0
 39
0
 70
1
 66
1
  0
VERTEX
  8
0
 10
2745.4400000000001
 20
873.43999999999994
 42
1
  0
VERTEX
  8
0
 10
2745.4400000000001
 20
899.43999999999994
 42
1
  0
SEQEND
  0
POLYLINE
  8
0
 10
0
 20
0
 39
0
 70
1
 66
1
  0
VERTEX
  8
0
 10
2745.4400000000001
 20
1003.4399999999999
 42
1
  0
VERTEX
  8
0
 10
2745.4400000000001
 20
1029.4400000000001
 42
1
  0
SEQEND
  0
POLYLINE
  8
0
 10
0
 20
0
 39
0
 70
1
 66
1
  0
VERTEX
  8
0
 10
210.31999999999999
 20
1125.8399999999999
 42
-0
  0
VERTEX
  8
0
 10
10.319999999999993
 20
1125.8399999999999
 42
0
  0
VERTEX
  8
0
 10
10.319999999999993
 20
1175.8399999999999
 42
0
  0
VERTEX
  8
0
 10
210.31999999999999
 20
1175.8399999999999
 42
0
  0
SEQEND
  0
POLYLINE
  8
0
 10
0
 20
0
 39
0
 70
1
 66
1
  0
VERTEX
  8
0
 10
173.64667541503906
 20
1150.8399999999999
 42
1
  0
VERTEX
  8
0
 10
143.64667541503906
 20
1150.8399999999999
 42
1
  0
SEQEND
  0
POLYLINE
  8
0
 10
0
 20
0
 39
0
 70
1
 66
1
  0
VERTEX
  8
0
 10
420.88
 20
1125.8399999999999
 42
-0
  0
VERTEX
  8
0
 10
220.88
 20
1125.8399999999999
 42
0
  0
VERTEX
  8
0
 10
220.88
 20
1175.8399999999999
 42
0
  0
VERTEX
  8
0
 10
420.88
 20
1175.8399999999999
 42
0
  0
SEQEND
  0
POLYLINE
  8
0
 10
0
 20
0
 39
0
 70
1
 66
1
  0
VERTEX
  8
0
 10
384.20667541503906
 20
1150.8399999999999
 42
1
  0
VERTEX
  8
0
 10
354.20667541503906
 20
1150.8399999999999
 42
1
  0
SEQEND
  0
POLYLINE
  8
0
 10
0
 20
0
 39
0
 70
1
 66
1
  0
VERTEX
  8
0
 10
631.44000000000005
 20
1125.8399999999999
 42
-0
  0
VERTEX
  8
0
 10
431.44000000000005
 20
1125.8399999999999
 42
0
  0
VERTEX
  8
0
 10
431.44000000000005
 20
1175.8399999999999
 42
0
  0
VERTEX
  8
0
 10
631.44000000000005
 20
1175.8399999999999
 42
0
  0
SEQEND
  0
POLYLINE
  8
0
 10
0
 20
0
 39
0
 70
1
 66
1
  0
VERTEX
  8
0
 10
594.76667541503912
 20
1150.8399999999999
 42
1
  0
VERTEX
  8
0
 10
564.76667541503912
 20
1150.8399999999999
 42
1
  0
SEQEND
  0
POLYLINE
  8
0
 10
0
 20
0
 39
0
 70
1
 66
1
  0
VERTEX
  8
0
 10
1120.8
 20
895.95999999999992
 42
-0
  0
VERTEX
  8
0
 10
1120.8
 20
1095.96
 42
0
  0
VERTEX
  8
0
 10
1170.8
 20
1095.96
 42
0
  0
VERTEX
  8
0
 10
1170.8
 20
895.95999999999992
 42
0
  0
SEQEND
  0
POLYLINE
  8
0
 10
0
 20
0
 39
0
 70
1
 66
1
  0
VERTEX
  8
0
 10
1145.8
 20
932.63332458496086
 42
1
  0
VERTEX
  8
0
 10
1145.8
 20
962.63332458496086
 42
1
  0
SEQEND
  0
POLYLINE
  8
0
 10
0
 20
0
 39
0
 70
1
 66
1
  0
VERTEX
  8
0
 10
1350.96
 20
95.719999999999999
 42
-0
  0
VERTEX
  8
0
 10
1350.96
 20
295.72000000000003
 42
0
  0
VERTEX
  8
0
 10
1400.96
 20
295.72000000000003
 42
0
  0
VERTEX
  8
0
 10
1400.96
 20
95.719999999999999
 42
0
  0
SEQEND
  0
POLYLINE
  8
0
 10
0
 20
0
 39
0
 70
1
 66
1
  0
VERTEX
  8
0
 10
1375.96
 20
132.39332458496094
 42
1
  0
VERTEX
  8
0
 10
1375.96
 20
162.39332458496094
 42
1
  0
SEQEND
  0
POLYLINE
  8
0
 10
0
 20
0
 39
0
 70
1
 66
1
  0
VERTEX
  8
0
 10
1350.96
 20
480.71999999999997
 42
-0
  0
VERTEX
  8
0
 10
1350.96
 20
680.72000000000003
 42
0
  0
VERTEX
  8
0
 10
1400.96
 20
680.72000000000003
 42
0
  0
VERTEX
  8
0
 10
1400.96
 20
480.71999999999997
 42
0
  0
SEQEND
  0
POLYLINE
  8
0
 10
0
 20
0
 39
0
 70
1
 66
1
  0
VERTEX
  8
0
 10
1375.96
 20
517.39332458496096
 42
1
  0
VERTEX
  8
0
 10
1375.96
 20
547.39332458496096
 42
1
  0
SEQEND
  0
POLYLINE
  8
0
 10
0
 20
0
 39
0
 70
1
 66
1
  0
VERTEX
  8
0
 10
1352.3599999999999
 20
865.71999999999991
 42
-0
  0
VERTEX
  8
0
 10
1352.3599999999999
 20
1065.7199999999998
 42
0
  0
VERTEX
  8
0
 10
1402.3599999999999
 20
1065.7199999999998
 42
0
  0
VERTEX
  8
0
 10
1402.3599999999999
 20
865.71999999999991
 42
0
  0
SEQEND
  0
POLYLINE
  8
0
 10
0
 20
0
 39
0
 70
1
 66
1
  0
VERTEX
  8
0
 10
1377.3599999999999
 20
902.39332458496085
 42
1
  0
VERTEX
  8
0
 10
1377.3599999999999
 20
932.39332458496085
 42
1
  0
SEQEND
  0
POLYLINE
  8
0
 10
0
 20
0
 39
0
 70
1
 66
1
  0
VERTEX
  8
0
 10
1582.52
 20
95.719999999999999
 42
-0
  0
VERTEX
  8
0
 10
1582.52
 20
295.72000000000003
 42
0
  0
VERTEX
  8
0
 10
1632.52
 20
295.72000000000003
 42
0
  0
VERTEX
  8
0
 10
1632.52
 20
95.719999999999999
 42
0
  0
SEQEND
  0
POLYLINE
  8
0
 10
0
 20
0
 39
0
 70
1
 66
1
  0
VERTEX
  8
0
 10
1607.52
 20
132.39332458496094
 42
1
  0
VERTEX
  8
0
 10
1607.52
 20
162.39332458496094
 42
1
  0
SEQEND
  0
POLYLINE
  8
0
 10
0
 20
0
 39
0
 70
1
 66
1
  0
VERTEX
  8
0
 10
1815.4799999999998
 20
865.71999999999991
 42
-0
  0
VERTEX
  8
0
 10
1815.4799999999998
 20
1065.7199999999998
 42
0
  0
VERTEX
  8
0
 10
1865.4799999999998
 20
1065.7199999999998
 42
0
  0
VERTEX
  8
0
 10
1865.4799999999998
 20
865.71999999999991
 42
0
  0
SEQEND
  0
POLYLINE
  8
0
 10
0
 20
0
 39
0
 70
1
 66
1
  0
VERTEX
  8
0
 10
1840.4799999999998
 20
902.39332458496085
 42
1
  0
VERTEX
  8
0
 10
1840.4799999999998
 20
932.39332458496085
 42
1
  0
SEQEND
  0
POLYLINE
  8
0
 10
0
 20
0
 39
0
 70
1
 66
1
  0
VERTEX
  8
0
 10
2764.48
 20
1135.9199999999998
 42
-0
  0
VERTEX
  8
0
 10
2564.48
 20
1135.9199999999998
 42
0
  0
VERTEX
  8
0
 10
2564.48
 20
1185.9199999999998
 42
0
  0
VERTEX
  8
0
 10
2764.48
 20
1185.9199999999998
 42
0
  0
SEQEND
  0
POLYLINE
  8
0
 10
0
 20
0
 39
0
 70
1
 66
1
  0
VERTEX
  8
0
 10
2727.8066754150391
 20
1160.9199999999998
 42
1
  0
VERTEX
  8
0
 10
2697.8066754150391
 20
1160.9199999999998
 42
1
  0
SEQEND
  0
POLYLINE
  8
0
 10
0
 20
0
 39
0
 70
1
 66
1
  0
VERTEX
  8
0
 10
2731.6399999999999
 20
10.32
 42
-0
  0
VERTEX
  8
0
 10
2731.6399999999999
 20
210.31999999999999
 42
0
  0
VERTEX
  8
0
 10
2781.6399999999999
 20
210.31999999999999
 42
0
  0
VERTEX
  8
0
 10
2781.6399999999999
 20
10.320000000000006
 42
0
  0
SEQEND
  0
POLYLINE
  8
0
 10
0
 20
0
 39
0
 70
1
 66
1
  0
VERTEX
  8
0
 10
2756.6399999999999
 20
46.993324584960938
 42
1
  0
VERTEX
  8
0
 10
2756.6399999999999
 20
76.993324584960931
 42
1
  0
SEQEND
  0
POLYLINE
  8
0
 10
0
 20
0
 39
0
 70
1
 66
1
  0
VERTEX
  8
0
 10
2731.6399999999999
 20
220.59999999999999
 42
-0
  0
VERTEX
  8
0
 10
2731.6399999999999
 20
420.60000000000002
 42
0
  0
VERTEX
  8
0
 10
2781.6399999999999
 20
420.60000000000002
 42
0
  0
VERTEX
  8
0
 10
2781.6399999999999
 20
220.59999999999999
 42
0
  0
SEQEND
  0
POLYLINE
  8
0
 10
0
 20
0
 39
0
 70
1
 66
1
  0
VERTEX
  8
0
 10
2756.6399999999999
 20
257.27332458496096
 42
1
  0
VERTEX
  8
0
 10
2756.6399999999999
 20
287.27332458496096
 42
1
  0
SEQEND
  0
POLYLINE
  8
0
 10
0
 20
0
 39
0
 70
1
 66
1
  0
VERTEX
  8
0
 10
2733.04
 20
430.88
 42
-0
  0
VERTEX
  8
0
 10
2733.04
 20
630.88
 42
0
  0
VERTEX
  8
0
 10
2783.04
 20
630.88
 42
0
  0
VERTEX
  8
0
 10
2783.04
 20
430.88
 42
0
  0
SEQEND
  0
POLYLINE
  8
0
 10
0
 20
0
 39
0
 70
1
 66
1
  0
VERTEX
  8
0
 10
2758.04
 20
467.55332458496093
 42
1
  0
VERTEX
  8
0
 10
2758.04
 20
497.55332458496093
 42
1
  0
SEQEND
  0
POLYLINE
  8
0
 10
0
 20
0
 39
0
 70
1
 66
1
  0
VERTEX
  8
0
 10
2733.04
 20
641.15999999999997
 42
-0
  0
VERTEX
  8
0
 10
2733.04
 20
841.15999999999997
 42
0
  0
VERTEX
  8
0
 10
2783.04
 20
841.15999999999997
 42
0
  0
VERTEX
  8
0
 10
2783.04
 20
641.15999999999997
 42
0
  0
SEQEND
  0
POLYLINE
  8
0
 10
0
 20
0
 39
0
 70
1
 66
1
  0
VERTEX
  8
0
 10
2758.04
 20
677.83332458496091
 42
1
  0
VERTEX
  8
0
 10
2758.04
 20
707.83332458496091
 42
1
  0
SEQEND
  0
ENDSEC
  0
EOF
