  0
SECTION
  2
ENTITIES
  0
POLYLINE
  8
0
 10
0
 20
0
 39
0
 70
1
 66
1
  0
VERTEX
  8
0
 10
0
 20
0
 42
0
  0
VERTEX
  8
0
 10
2000
 20
0
 42
0
  0
VERTEX
  8
0
 10
2000
 20
1000
 42
0
  0
VERTEX
  8
0
 10
0
 20
1000
 42
0
  0
SEQEND
  0
POLYLINE
  8
0
 10
0
 20
0
 39
0
 70
1
 66
1
  0
VERTEX
  8
0
 10
360.39999389648437
 20
360.39999389648437
 42
0
  0
VERTEX
  8
0
 10
10.399999618530273
 20
360.39999389648437
 42
0
  0
VERTEX
  8
0
 10
10.399999618530273
 20
10.399999618530273
 42
0
  0
VERTEX
  8
0
 10
360.39999389648437
 20
10.399999618530273
 42
0
  0
SEQEND
  0
POLYLINE
  8
0
 10
0
 20
0
 39
0
 70
1
 66
1
  0
VERTEX
  8
0
 10
341.39999389648437
 20
185.39999389648437
 42
-1
  0
VERTEX
  8
0
 10
29.399999618530273
 20
185.39999389648437
 42
-1
  0
SEQEND
  0
POLYLINE
  8
0
 10
0
 20
0
 39
0
 70
1
 66
1
  0
VERTEX
  8
0
 10
341.17056274414062
 20
324.42022705078125
 42
-1
  0
VERTEX
  8
0
 10
309.17056274414062
 20
324.42022705078125
 42
-1
  0
SEQEND
  0
POLYLINE
  8
0
 10
0
 20
0
 39
0
 70
1
 66
1
  0
VERTEX
  8
0
 10
62.379783630371094
 20
45.629447937011719
 42
-1
  0
VERTEX
  8
0
 10
30.379781723022461
 20
45.629447937011719
 42
-1
  0
SEQEND
  0
POLYLINE
  8
0
 10
0
 20
0
 39
0
 70
1
 66
1
  0
VERTEX
  8
0
 10
360.39999389648437
 20
720.5999755859375
 42
0
  0
VERTEX
  8
0
 10
10.399999618530273
 20
720.5999755859375
 42
0
  0
VERTEX
  8
0
 10
10.399999618530273
 20
370.60000610351562
 42
0
  0
VERTEX
  8
0
 10
360.39999389648437
 20
370.60000610351562
 42
0
  0
SEQEND
  0
POLYLINE
  8
0
 10
0
 20
0
 39
0
 70
1
 66
1
  0
VERTEX
  8
0
 10
341.39999389648437
 20
545.5999755859375
 42
-1
  0
VERTEX
  8
0
 10
29.399999618530273
 20
545.5999755859375
 42
-1
  0
SEQEND
  0
POLYLINE
  8
0
 10
0
 20
0
 39
0
 70
1
 66
1
  0
VERTEX
  8
0
 10
341.17056274414062
 20
684.6202392578125
 42
-1
  0
VERTEX
  8
0
 10
309.17056274414062
 20
684.6202392578125
 42
-1
  0
SEQEND
  0
POLYLINE
  8
0
 10
0
 20
0
 39
0
 70
1
 66
1
  0
VERTEX
  8
0
 10
62.379783630371094
 20
405.82943725585937
 42
-1
  0
VERTEX
  8
0
 10
30.379781723022461
 20
405.82943725585937
 42
-1
  0
SEQEND
  0
POLYLINE
  8
0
 10
0
 20
0
 39
0
 70
1
 66
1
  0
VERTEX
  8
0
 10
720.79998779296875
 20
360.39999389648437
 42
0
  0
VERTEX
  8
0
 10
370.79998779296875
 20
360.39999389648437
 42
0
  0
VERTEX
  8
0
 10
370.79998779296875
 20
10.399999618530273
 42
0
  0
VERTEX
  8
0
 10
720.79998779296875
 20
10.399999618530273
 42
0
  0
SEQEND
  0
POLYLINE
  8
0
 10
0
 20
0
 39
0
 70
1
 66
1
  0
VERTEX
  8
0
 10
701.79998779296875
 20
185.39999389648437
 42
-1
  0
VERTEX
  8
0
 10
389.79998779296875
 20
185.39999389648437
 42
-1
  0
SEQEND
  0
POLYLINE
  8
0
 10
0
 20
0
 39
0
 70
1
 66
1
  0
VERTEX
  8
0
 10
701.570556640625
 20
324.42022705078125
 42
-1
  0
VERTEX
  8
0
 10
669.570556640625
 20
324.42022705078125
 42
-1
  0
SEQEND
  0
POLYLINE
  8
0
 10
0
 20
0
 39
0
 70
1
 66
1
  0
VERTEX
  8
0
 10
422.77978515625
 20
45.629447937011719
 42
-1
  0
VERTEX
  8
0
 10
390.77978515625
 20
45.629447937011719
 42
-1
  0
SEQEND
  0
POLYLINE
  8
0
 10
0
 20
0
 39
0
 70
1
 66
1
  0
VERTEX
  8
0
 10
10.399999618530273
 20
980.79998779296875
 42
0
  0
VERTEX
  8
0
 10
10.399999618530273
 20
730.79998779296875
 42
0
  0
VERTEX
  8
0
 10
360.39999389648437
 20
730.79998779296875
 42
0
  0
VERTEX
  8
0
 10
360.39999389648437
 20
980.79998779296875
 42
0
  0
SEQEND
  0
POLYLINE
  8
0
 10
0
 20
0
 39
0
 70
1
 66
1
  0
VERTEX
  8
0
 10
345.39999389648437
 20
755.79998779296875
 42
-1
  0
VERTEX
  8
0
 10
325.39999389648437
 20
755.79998779296875
 42
-1
  0
SEQEND
  0
POLYLINE
  8
0
 10
0
 20
0
 39
0
 70
1
 66
1
  0
VERTEX
  8
0
 10
345.39999389648437
 20
955.79998779296875
 42
-1
  0
VERTEX
  8
0
 10
325.39999389648437
 20
955.79998779296875
 42
-1
  0
SEQEND
  0
POLYLINE
  8
0
 10
0
 20
0
 39
0
 70
1
 66
1
  0
VERTEX
  8
0
 10
45.400001525878906
 20
755.79998779296875
 42
-1
  0
VERTEX
  8
0
 10
25.399999618530273
 20
755.79998779296875
 42
-1
  0
SEQEND
  0
POLYLINE
  8
0
 10
0
 20
0
 39
0
 70
1
 66
1
  0
VERTEX
  8
0
 10
45.400001525878906
 20
955.79998779296875
 42
-1
  0
VERTEX
  8
0
 10
25.399999618530273
 20
955.79998779296875
 42
-1
  0
SEQEND
  0
POLYLINE
  8
0
 10
0
 20
0
 39
0
 70
1
 66
1
  0
VERTEX
  8
0
 10
620.79998779296875
 20
720.5999755859375
 42
0
  0
VERTEX
  8
0
 10
370.79998779296875
 20
720.5999755859375
 42
0
  0
VERTEX
  8
0
 10
370.79998779296875
 20
370.60000610351562
 42
0
  0
VERTEX
  8
0
 10
620.79998779296875
 20
370.60000610351562
 42
0
  0
SEQEND
  0
POLYLINE
  8
0
 10
0
 20
0
 39
0
 70
1
 66
1
  0
VERTEX
  8
0
 10
395.79998779296875
 20
385.60000610351562
 42
-1
  0
VERTEX
  8
0
 10
395.79998779296875
 20
405.60000610351562
 42
-1
  0
SEQEND
  0
POLYLINE
  8
0
 10
0
 20
0
 39
0
 70
1
 66
1
  0
VERTEX
  8
0
 10
595.79998779296875
 20
385.60000610351562
 42
-1
  0
VERTEX
  8
0
 10
595.79998779296875
 20
405.60000610351562
 42
-1
  0
SEQEND
  0
POLYLINE
  8
0
 10
0
 20
0
 39
0
 70
1
 66
1
  0
VERTEX
  8
0
 10
395.79998779296875
 20
685.5999755859375
 42
-1
  0
VERTEX
  8
0
 10
395.79998779296875
 20
705.5999755859375
 42
-1
  0
SEQEND
  0
POLYLINE
  8
0
 10
0
 20
0
 39
0
 70
1
 66
1
  0
VERTEX
  8
0
 10
595.79998779296875
 20
685.5999755859375
 42
-1
  0
VERTEX
  8
0
 10
595.79998779296875
 20
705.5999755859375
 42
-1
  0
SEQEND
  0
POLYLINE
  8
0
 10
0
 20
0
 39
0
 70
1
 66
1
  0
VERTEX
  8
0
 10
370.79998779296875
 20
980.79998779296875
 42
0
  0
VERTEX
  8
0
 10
370.79998779296875
 20
730.79998779296875
 42
0
  0
VERTEX
  8
0
 10
720.79998779296875
 20
730.79998779296875
 42
0
  0
VERTEX
  8
0
 10
720.79998779296875
 20
980.79998779296875
 42
0
  0
SEQEND
  0
POLYLINE
  8
0
 10
0
 20
0
 39
0
 70
1
 66
1
  0
VERTEX
  8
0
 10
705.79998779296875
 20
755.79998779296875
 42
-1
  0
VERTEX
  8
0
 10
685.79998779296875
 20
755.79998779296875
 42
-1
  0
SEQEND
  0
POLYLINE
  8
0
 10
0
 20
0
 39
0
 70
1
 66
1
  0
VERTEX
  8
0
 10
705.79998779296875
 20
955.79998779296875
 42
-1
  0
VERTEX
  8
0
 10
685.79998779296875
 20
955.79998779296875
 42
-1
  0
SEQEND
  0
POLYLINE
  8
0
 10
0
 20
0
 39
0
 70
1
 66
1
  0
VERTEX
  8
0
 10
405.79998779296875
 20
755.79998779296875
 42
-1
  0
VERTEX
  8
0
 10
385.79998779296875
 20
755.79998779296875
 42
-1
  0
SEQEND
  0
POLYLINE
  8
0
 10
0
 20
0
 39
0
 70
1
 66
1
  0
VERTEX
  8
0
 10
405.79998779296875
 20
955.79998779296875
 42
-1
  0
VERTEX
  8
0
 10
385.79998779296875
 20
955.79998779296875
 42
-1
  0
SEQEND
  0
POLYLINE
  8
0
 10
0
 20
0
 39
0
 70
1
 66
1
  0
VERTEX
  8
0
 10
881.20001220703125
 20
720.5999755859375
 42
0
  0
VERTEX
  8
0
 10
631.20001220703125
 20
720.5999755859375
 42
0
  0
VERTEX
  8
0
 10
631.20001220703125
 20
370.60000610351562
 42
0
  0
VERTEX
  8
0
 10
881.20001220703125
 20
370.60000610351562
 42
0
  0
SEQEND
  0
POLYLINE
  8
0
 10
0
 20
0
 39
0
 70
1
 66
1
  0
VERTEX
  8
0
 10
656.20001220703125
 20
385.60000610351562
 42
-1
  0
VERTEX
  8
0
 10
656.20001220703125
 20
405.60000610351562
 42
-1
  0
SEQEND
  0
POLYLINE
  8
0
 10
0
 20
0
 39
0
 70
1
 66
1
  0
VERTEX
  8
0
 10
856.20001220703125
 20
385.60000610351562
 42
-1
  0
VERTEX
  8
0
 10
856.20001220703125
 20
405.60000610351562
 42
-1
  0
SEQEND
  0
POLYLINE
  8
0
 10
0
 20
0
 39
0
 70
1
 66
1
  0
VERTEX
  8
0
 10
656.20001220703125
 20
685.5999755859375
 42
-1
  0
VERTEX
  8
0
 10
656.20001220703125
 20
705.5999755859375
 42
-1
  0
SEQEND
  0
POLYLINE
  8
0
 10
0
 20
0
 39
0
 70
1
 66
1
  0
VERTEX
  8
0
 10
856.20001220703125
 20
685.5999755859375
 42
-1
  0
VERTEX
  8
0
 10
856.20001220703125
 20
705.5999755859375
 42
-1
  0
SEQEND
  0
POLYLINE
  8
0
 10
0
 20
0
 39
0
 70
1
 66
1
  0
VERTEX
  8
0
 10
985.4000244140625
 20
913.7869873046875
 42
0
  0
VERTEX
  8
0
 10
891.4000244140625
 20
913.7869873046875
 42
0
  0
VERTEX
  8
0
 10
891.4000244140625
 20
593.7869873046875
 42
-0
  0
VERTEX
  8
0
 10
1042.17431640625
 20
802.83984375
 42
0.61160182952880859
  0
SEQEND
  0
POLYLINE
  8
0
 10
0
 20
0
 39
0
 70
1
 66
1
  0
VERTEX
  8
0
 10
985.4000244140625
 20
825.2869873046875
 42
-1
  0
VERTEX
  8
0
 10
985.4000244140625
 20
862.2869873046875
 42
-1
  0
SEQEND
  0
POLYLINE
  8
0
 10
0
 20
0
 39
0
 70
1
 66
1
  0
VERTEX
  8
0
 10
961.39996337890625
 20
483.60000610351562
 42
0
  0
VERTEX
  8
0
 10
1055.4000244140625
 20
483.60000610351562
 42
0
  0
VERTEX
  8
0
 10
1055.4000244140625
 20
803.5999755859375
 42
-0
  0
VERTEX
  8
0
 10
904.6256103515625
 20
594.54718017578125
 42
0.61160182952880859
  0
SEQEND
  0
POLYLINE
  8
0
 10
0
 20
0
 39
0
 70
1
 66
1
  0
VERTEX
  8
0
 10
961.39996337890625
 20
572.0999755859375
 42
-1
  0
VERTEX
  8
0
 10
961.39996337890625
 20
535.0999755859375
 42
-1
  0
SEQEND
  0
POLYLINE
  8
0
 10
0
 20
0
 39
0
 70
1
 66
1
  0
VERTEX
  8
0
 10
985.5999755859375
 20
440.58700561523438
 42
0
  0
VERTEX
  8
0
 10
891.5999755859375
 20
440.58700561523438
 42
0
  0
VERTEX
  8
0
 10
891.5999755859375
 20
120.58699798583984
 42
-0
  0
VERTEX
  8
0
 10
1042.3743896484375
 20
329.63983154296875
 42
0.61160182952880859
  0
SEQEND
  0
POLYLINE
  8
0
 10
0
 20
0
 39
0
 70
1
 66
1
  0
VERTEX
  8
0
 10
985.5999755859375
 20
352.08700561523438
 42
-1
  0
VERTEX
  8
0
 10
985.5999755859375
 20
389.08700561523438
 42
-1
  0
SEQEND
  0
POLYLINE
  8
0
 10
0
 20
0
 39
0
 70
1
 66
1
  0
VERTEX
  8
0
 10
961.5999755859375
 20
10.399999618530273
 42
0
  0
VERTEX
  8
0
 10
1055.5999755859375
 20
10.399999618530273
 42
0
  0
VERTEX
  8
0
 10
1055.5999755859375
 20
330.39999389648438
 42
-0
  0
VERTEX
  8
0
 10
904.82562255859375
 20
121.34716033935547
 42
0.61160182952880859
  0
SEQEND
  0
POLYLINE
  8
0
 10
0
 20
0
 39
0
 70
1
 66
1
  0
VERTEX
  8
0
 10
961.5999755859375
 20
98.900001525878906
 42
-1
  0
VERTEX
  8
0
 10
961.5999755859375
 20
61.900001525878906
 42
-1
  0
SEQEND
  0
POLYLINE
  8
0
 10
0
 20
0
 39
0
 70
1
 66
1
  0
VERTEX
  8
0
 10
1159.5999755859375
 20
699.7869873046875
 42
0
  0
VERTEX
  8
0
 10
1065.5999755859375
 20
699.7869873046875
 42
0
  0
VERTEX
  8
0
 10
1065.5999755859375
 20
379.7869873046875
 42
-0
  0
VERTEX
  8
0
 10
1216.3743896484375
 20
588.83984375
 42
0.61160182952880859
  0
SEQEND
  0
POLYLINE
  8
0
 10
0
 20
0
 39
0
 70
1
 66
1
  0
VERTEX
  8
0
 10
1159.5999755859375
 20
611.2869873046875
 42
-1
  0
VERTEX
  8
0
 10
1159.5999755859375
 20
648.2869873046875
 42
-1
  0
SEQEND
  0
POLYLINE
  8
0
 10
0
 20
0
 39
0
 70
1
 66
1
  0
VERTEX
  8
0
 10
1135.5999755859375
 20
269.60000610351562
 42
0
  0
VERTEX
  8
0
 10
1229.5999755859375
 20
269.60000610351562
 42
0
  0
VERTEX
  8
0
 10
1229.5999755859375
 20
589.5999755859375
 42
-0
  0
VERTEX
  8
0
 10
1078.82568359375
 20
380.54714965820313
 42
0.61160182952880859
  0
SEQEND
  0
POLYLINE
  8
0
 10
0
 20
0
 39
0
 70
1
 66
1
  0
VERTEX
  8
0
 10
1135.5999755859375
 20
358.10000610351562
 42
-1
  0
VERTEX
  8
0
 10
1135.5999755859375
 20
321.10000610351562
 42
-1
  0
SEQEND
  0
POLYLINE
  8
0
 10
0
 20
0
 39
0
 70
1
 66
1
  0
VERTEX
  8
0
 10
1332.4000244140625
 20
966.58697509765625
 42
0
  0
VERTEX
  8
0
 10
1238.4000244140625
 20
966.58697509765625
 42
0
  0
VERTEX
  8
0
 10
1238.4000244140625
 20
646.58697509765625
 42
-0
  0
VERTEX
  8
0
 10
1389.17431640625
 20
855.63983154296875
 42
0.61160182952880859
  0
SEQEND
  0
POLYLINE
  8
0
 10
0
 20
0
 39
0
 70
1
 66
1
  0
VERTEX
  8
0
 10
1332.4000244140625
 20
878.08697509765625
 42
-1
  0
VERTEX
  8
0
 10
1332.4000244140625
 20
915.08697509765625
 42
-1
  0
SEQEND
  0
POLYLINE
  8
0
 10
0
 20
0
 39
0
 70
1
 66
1
  0
VERTEX
  8
0
 10
1308.4000244140625
 20
536.4000244140625
 42
0
  0
VERTEX
  8
0
 10
1402.4000244140625
 20
536.4000244140625
 42
0
  0
VERTEX
  8
0
 10
1402.4000244140625
 20
856.4000244140625
 42
-0
  0
VERTEX
  8
0
 10
1251.6256103515625
 20
647.34716796875
 42
0.61160182952880859
  0
SEQEND
  0
POLYLINE
  8
0
 10
0
 20
0
 39
0
 70
1
 66
1
  0
VERTEX
  8
0
 10
1308.4000244140625
 20
624.9000244140625
 42
-1
  0
VERTEX
  8
0
 10
1308.4000244140625
 20
587.9000244140625
 42
-1
  0
SEQEND
  0
POLYLINE
  8
0
 10
0
 20
0
 39
0
 70
1
 66
1
  0
VERTEX
  8
0
 10
1333.800048828125
 20
440.58700561523438
 42
0
  0
VERTEX
  8
0
 10
1239.800048828125
 20
440.58700561523438
 42
0
  0
VERTEX
  8
0
 10
1239.800048828125
 20
120.58699798583984
 42
-0
  0
VERTEX
  8
0
 10
1390.5743408203125
 20
329.63983154296875
 42
0.61160182952880859
  0
SEQEND
  0
POLYLINE
  8
0
 10
0
 20
0
 39
0
 70
1
 66
1
  0
VERTEX
  8
0
 10
1333.800048828125
 20
352.08700561523438
 42
-1
  0
VERTEX
  8
0
 10
1333.800048828125
 20
389.08700561523438
 42
-1
  0
SEQEND
  0
POLYLINE
  8
0
 10
0
 20
0
 39
0
 70
1
 66
1
  0
VERTEX
  8
0
 10
1309.800048828125
 20
10.399999618530273
 42
0
  0
VERTEX
  8
0
 10
1403.800048828125
 20
10.399999618530273
 42
0
  0
VERTEX
  8
0
 10
1403.800048828125
 20
330.39999389648438
 42
-0
  0
VERTEX
  8
0
 10
1253.025634765625
 20
121.34716033935547
 42
0.61160182952880859
  0
SEQEND
  0
POLYLINE
  8
0
 10
0
 20
0
 39
0
 70
1
 66
1
  0
VERTEX
  8
0
 10
1309.800048828125
 20
98.900001525878906
 42
-1
  0
VERTEX
  8
0
 10
1309.800048828125
 20
61.900001525878906
 42
-1
  0
SEQEND
  0
POLYLINE
  8
0
 10
0
 20
0
 39
0
 70
1
 66
1
  0
VERTEX
  8
0
 10
1506.5999755859375
 20
707.38702392578125
 42
0
  0
VERTEX
  8
0
 10
1412.5999755859375
 20
707.38702392578125
 42
0
  0
VERTEX
  8
0
 10
1412.5999755859375
 20
387.38699340820312
 42
-0
  0
VERTEX
  8
0
 10
1563.3743896484375
 20
596.4398193359375
 42
0.61160182952880859
  0
SEQEND
  0
POLYLINE
  8
0
 10
0
 20
0
 39
0
 70
1
 66
1
  0
VERTEX
  8
0
 10
1506.5999755859375
 20
618.88702392578125
 42
-1
  0
VERTEX
  8
0
 10
1506.5999755859375
 20
655.88702392578125
 42
-1
  0
SEQEND
  0
POLYLINE
  8
0
 10
0
 20
0
 39
0
 70
1
 66
1
  0
VERTEX
  8
0
 10
1482.5999755859375
 20
277.20001220703125
 42
0
  0
VERTEX
  8
0
 10
1576.5999755859375
 20
277.20001220703125
 42
0
  0
VERTEX
  8
0
 10
1576.5999755859375
 20
597.20001220703125
 42
-0
  0
VERTEX
  8
0
 10
1425.82568359375
 20
388.14715576171875
 42
0.61160182952880859
  0
SEQEND
  0
POLYLINE
  8
0
 10
0
 20
0
 39
0
 70
1
 66
1
  0
VERTEX
  8
0
 10
1482.5999755859375
 20
365.70001220703125
 42
-1
  0
VERTEX
  8
0
 10
1482.5999755859375
 20
328.70001220703125
 42
-1
  0
SEQEND
  0
POLYLINE
  8
0
 10
0
 20
0
 39
0
 70
1
 66
1
  0
VERTEX
  8
0
 10
56.939895629882812
 20
249.7955322265625
 42
0.068672984838485718
  0
VERTEX
  8
0
 10
43.600002288818359
 20
217.59017944335937
 42
-0
  0
VERTEX
  8
0
 10
50.334880828857422
 20
213.62303161621094
 42
0.11944806575775146
  0
VERTEX
  8
0
 10
50.334880828857422
 20
157.09449768066406
 42
0
  0
VERTEX
  8
0
 10
43.599998474121094
 20
153.12736511230469
 42
0.068672984838485718
  0
VERTEX
  8
0
 10
56.939899444580078
 20
120.9219970703125
 42
-0
  0
VERTEX
  8
0
 10
64.507369995117188
 20
122.87907409667969
 42
0.11944806575775146
  0
VERTEX
  8
0
 10
104.47908020019531
 20
82.907371520996094
 42
0
  0
VERTEX
  8
0
 10
102.52199554443359
 20
75.339897155761719
 42
0.068672984838485718
  0
VERTEX
  8
0
 10
134.72735595703125
 20
62
 42
-0
  0
VERTEX
  8
0
 10
138.69450378417969
 20
68.734878540039063
 42
0.11944806575775146
  0
VERTEX
  8
0
 10
195.2230224609375
 20
68.734878540039063
 42
0
  0
VERTEX
  8
0
 10
199.19017028808594
 20
62
 42
0.068672984838485718
  0
VERTEX
  8
0
 10
231.39553833007812
 20
75.339897155761719
 42
-0
  0
VERTEX
  8
0
 10
229.43846130371094
 20
82.907371520996094
 42
0.11944806575775146
  0
VERTEX
  8
0
 10
269.41015625
 20
122.87908172607422
 42
0
  0
VERTEX
  8
0
 10
276.97763061523437
 20
120.9219970703125
 42
0.068672984838485718
  0
VERTEX
  8
0
 10
290.31753540039062
 20
153.12734985351562
 42
-0
  0
VERTEX
  8
0
 10
283.5826416015625
 20
157.09449768066406
 42
0.11944806575775146
  0
VERTEX
  8
0
 10
283.5826416015625
 20
213.62303161621094
 42
0
  0
VERTEX
  8
0
 10
290.31753540039062
 20
217.59017944335937
 42
0.068672984838485718
  0
VERTEX
  8
0
 10
276.97763061523437
 20
249.7955322265625
 42
-0
  0
VERTEX
  8
0
 10
269.41015625
 20
247.83845520019531
 42
0.11944806575775146
  0
VERTEX
  8
0
 10
229.43846130371094
 20
287.81015014648437
 42
0
  0
VERTEX
  8
0
 10
231.39553833007812
 20
295.37762451171875
 42
0.068672984838485718
  0
VERTEX
  8
0
 10
199.190185546875
 20
308.717529296875
 42
-0
  0
VERTEX
  8
0
 10
195.22303771972656
 20
301.982666015625
 42
0.11944806575775146
  0
VERTEX
  8
0
 10
138.69450378417969
 20
301.982666015625
 42
0
  0
VERTEX
  8
0
 10
134.72735595703125
 20
308.717529296875
 42
0.068672984838485718
  0
VERTEX
  8
0
 10
102.52199554443359
 20
295.37762451171875
 42
-0
  0
VERTEX
  8
0
 10
104.47908020019531
 20
287.81015014648437
 42
0.11944806575775146
  0
VERTEX
  8
0
 10
64.507369995117188
 20
247.83845520019531
 42
0
  0
SEQEND
  0
POLYLINE
  8
0
 10
0
 20
0
 39
0
 70
1
 66
1
  0
VERTEX
  8
0
 10
211.13858032226562
 20
243.63035583496094
 42
-0
  0
VERTEX
  8
0
 10
156.994384765625
 20
112.91469573974609
 42
-0
  0
VERTEX
  8
0
 10
104.33324432373047
 20
134.72764587402344
 42
-0
  0
VERTEX
  8
0
 10
119.64058685302734
 20
171.68283081054687
 42
-0
  0
VERTEX
  8
0
 10
142.73757934570312
 20
162.11573791503906
 42
-0
  0
VERTEX
  8
0
 10
181.57443237304687
 20
255.876220703125
 42
-0
  0
SEQEND
  0
POLYLINE
  8
0
 10
0
 20
0
 39
0
 70
1
 66
1
  0
VERTEX
  8
0
 10
56.939895629882812
 20
609.99554443359375
 42
0.068672984838485718
  0
VERTEX
  8
0
 10
43.600002288818359
 20
577.7901611328125
 42
-0
  0
VERTEX
  8
0
 10
50.334880828857422
 20
573.82305908203125
 42
0.11944806575775146
  0
VERTEX
  8
0
 10
50.334880828857422
 20
517.29449462890625
 42
0
  0
VERTEX
  8
0
 10
43.599998474121094
 20
513.32733154296875
 42
0.068672984838485718
  0
VERTEX
  8
0
 10
56.939899444580078
 20
481.12200927734375
 42
-0
  0
VERTEX
  8
0
 10
64.507369995117188
 20
483.07907104492187
 42
0.11944806575775146
  0
VERTEX
  8
0
 10
104.47908020019531
 20
443.10736083984375
 42
0
  0
VERTEX
  8
0
 10
102.52199554443359
 20
435.53988647460937
 42
0.068672984838485718
  0
VERTEX
  8
0
 10
134.72735595703125
 20
422.20001220703125
 42
-0
  0
VERTEX
  8
0
 10
138.69450378417969
 20
428.93487548828125
 42
0.11944806575775146
  0
VERTEX
  8
0
 10
195.2230224609375
 20
428.93487548828125
 42
0
  0
VERTEX
  8
0
 10
199.19017028808594
 20
422.20001220703125
 42
0.068672984838485718
  0
VERTEX
  8
0
 10
231.39553833007812
 20
435.53988647460937
 42
-0
  0
VERTEX
  8
0
 10
229.43846130371094
 20
443.10736083984375
 42
0.11944806575775146
  0
VERTEX
  8
0
 10
269.41015625
 20
483.07907104492187
 42
0
  0
VERTEX
  8
0
 10
276.97763061523437
 20
481.12200927734375
 42
0.068672984838485718
  0
VERTEX
  8
0
 10
290.31753540039062
 20
513.32733154296875
 42
-0
  0
VERTEX
  8
0
 10
283.5826416015625
 20
517.29449462890625
 42
0.11944806575775146
  0
VERTEX
  8
0
 10
283.5826416015625
 20
573.82305908203125
 42
0
  0
VERTEX
  8
0
 10
290.31753540039062
 20
577.7901611328125
 42
0.068672984838485718
  0
VERTEX
  8
0
 10
276.97763061523437
 20
609.99554443359375
 42
-0
  0
VERTEX
  8
0
 10
269.41015625
 20
608.0384521484375
 42
0.11944806575775146
  0
VERTEX
  8
0
 10
229.43846130371094
 20
648.0101318359375
 42
0
  0
VERTEX
  8
0
 10
231.39553833007812
 20
655.57763671875
 42
0.068672984838485718
  0
VERTEX
  8
0
 10
199.190185546875
 20
668.91754150390625
 42
-0
  0
VERTEX
  8
0
 10
195.22303771972656
 20
662.18267822265625
 42
0.11944806575775146
  0
VERTEX
  8
0
 10
138.69450378417969
 20
662.18267822265625
 42
0
  0
VERTEX
  8
0
 10
134.72735595703125
 20
668.91754150390625
 42
0.068672984838485718
  0
VERTEX
  8
0
 10
102.52199554443359
 20
655.57763671875
 42
-0
  0
VERTEX
  8
0
 10
104.47908020019531
 20
648.0101318359375
 42
0.11944806575775146
  0
VERTEX
  8
0
 10
64.507369995117188
 20
608.0384521484375
 42
0
  0
SEQEND
  0
POLYLINE
  8
0
 10
0
 20
0
 39
0
 70
1
 66
1
  0
VERTEX
  8
0
 10
211.13858032226562
 20
603.830322265625
 42
-0
  0
VERTEX
  8
0
 10
156.994384765625
 20
473.11468505859375
 42
-0
  0
VERTEX
  8
0
 10
104.33324432373047
 20
494.92764282226562
 42
-0
  0
VERTEX
  8
0
 10
119.64058685302734
 20
531.8828125
 42
-0
  0
VERTEX
  8
0
 10
142.73757934570312
 20
522.31573486328125
 42
-0
  0
VERTEX
  8
0
 10
181.57443237304687
 20
616.07623291015625
 42
-0
  0
SEQEND
  0
POLYLINE
  8
0
 10
0
 20
0
 39
0
 70
1
 66
1
  0
VERTEX
  8
0
 10
417.33990478515625
 20
249.7955322265625
 42
0.068672984838485718
  0
VERTEX
  8
0
 10
404
 20
217.59017944335937
 42
-0
  0
VERTEX
  8
0
 10
410.73489379882813
 20
213.62303161621094
 42
0.11944806575775146
  0
VERTEX
  8
0
 10
410.73489379882813
 20
157.09449768066406
 42
0
  0
VERTEX
  8
0
 10
404
 20
153.12736511230469
 42
0.068672984838485718
  0
VERTEX
  8
0
 10
417.33990478515625
 20
120.9219970703125
 42
-0
  0
VERTEX
  8
0
 10
424.90737915039062
 20
122.87907409667969
 42
0.11944806575775146
  0
VERTEX
  8
0
 10
464.87908935546875
 20
82.907371520996094
 42
0
  0
VERTEX
  8
0
 10
462.9219970703125
 20
75.339897155761719
 42
0.068672984838485718
  0
VERTEX
  8
0
 10
495.12734985351562
 20
62
 42
-0
  0
VERTEX
  8
0
 10
499.09451293945312
 20
68.734878540039063
 42
0.11944806575775146
  0
VERTEX
  8
0
 10
555.623046875
 20
68.734878540039063
 42
0
  0
VERTEX
  8
0
 10
559.59014892578125
 20
62
 42
0.068672984838485718
  0
VERTEX
  8
0
 10
591.7955322265625
 20
75.339897155761719
 42
-0
  0
VERTEX
  8
0
 10
589.83843994140625
 20
82.907371520996094
 42
0.11944806575775146
  0
VERTEX
  8
0
 10
629.8101806640625
 20
122.87908172607422
 42
0
  0
VERTEX
  8
0
 10
637.37762451171875
 20
120.9219970703125
 42
0.068672984838485718
  0
VERTEX
  8
0
 10
650.717529296875
 20
153.12734985351562
 42
-0
  0
VERTEX
  8
0
 10
643.982666015625
 20
157.09449768066406
 42
0.11944806575775146
  0
VERTEX
  8
0
 10
643.982666015625
 20
213.62303161621094
 42
0
  0
VERTEX
  8
0
 10
650.717529296875
 20
217.59017944335937
 42
0.068672984838485718
  0
VERTEX
  8
0
 10
637.37762451171875
 20
249.7955322265625
 42
-0
  0
VERTEX
  8
0
 10
629.8101806640625
 20
247.83845520019531
 42
0.11944806575775146
  0
VERTEX
  8
0
 10
589.83843994140625
 20
287.81015014648437
 42
0
  0
VERTEX
  8
0
 10
591.7955322265625
 20
295.37762451171875
 42
0.068672984838485718
  0
VERTEX
  8
0
 10
559.59014892578125
 20
308.717529296875
 42
-0
  0
VERTEX
  8
0
 10
555.623046875
 20
301.982666015625
 42
0.11944806575775146
  0
VERTEX
  8
0
 10
499.09451293945312
 20
301.982666015625
 42
0
  0
VERTEX
  8
0
 10
495.12734985351562
 20
308.717529296875
 42
0.068672984838485718
  0
VERTEX
  8
0
 10
462.9219970703125
 20
295.37762451171875
 42
-0
  0
VERTEX
  8
0
 10
464.87908935546875
 20
287.81015014648437
 42
0.11944806575775146
  0
VERTEX
  8
0
 10
424.90737915039062
 20
247.83845520019531
 42
0
  0
SEQEND
  0
POLYLINE
  8
0
 10
0
 20
0
 39
0
 70
1
 66
1
  0
VERTEX
  8
0
 10
571.53857421875
 20
243.63035583496094
 42
-0
  0
VERTEX
  8
0
 10
517.3944091796875
 20
112.91469573974609
 42
-0
  0
VERTEX
  8
0
 10
464.73324584960937
 20
134.72764587402344
 42
-0
  0
VERTEX
  8
0
 10
480.04058837890625
 20
171.68283081054687
 42
-0
  0
VERTEX
  8
0
 10
503.1375732421875
 20
162.11573791503906
 42
-0
  0
VERTEX
  8
0
 10
541.97442626953125
 20
255.876220703125
 42
-0
  0
SEQEND
  0
POLYLINE
  8
0
 10
0
 20
0
 39
0
 70
1
 66
1
  0
VERTEX
  8
0
 10
1412.5999755859375
 20
778.8779296875
 42
0.29410767555236816
  0
VERTEX
  8
0
 10
1424.3226318359375
 20
760.6708984375
 42
-0
  0
VERTEX
  8
0
 10
1518.6546630859375
 20
717.79296875
 42
0.10706308484077454
  0
VERTEX
  8
0
 10
1526.9320068359375
 20
716
 42
0
  0
VERTEX
  8
0
 10
1612.5999755859375
 20
716
 42
0.41421356797218323
  0
VERTEX
  8
0
 10
1632.5999755859375
 20
736
 42
-0
  0
VERTEX
  8
0
 10
1632.5999755859375
 20
936
 42
0.41421356797218323
  0
VERTEX
  8
0
 10
1612.5999755859375
 20
956
 42
-0
  0
VERTEX
  8
0
 10
1526.9320068359375
 20
956
 42
0.10706308484077454
  0
VERTEX
  8
0
 10
1518.6546630859375
 20
954.20703125
 42
0
  0
VERTEX
  8
0
 10
1424.3226318359375
 20
911.3291015625
 42
0.29410767555236816
  0
VERTEX
  8
0
 10
1412.5999755859375
 20
893.1220703125
 42
0
  0
SEQEND
  0
POLYLINE
  8
0
 10
0
 20
0
 39
0
 70
1
 66
1
  0
VERTEX
  8
0
 10
1537.5999755859375
 20
786
 42
-1
  0
VERTEX
  8
0
 10
1537.5999755859375
 20
886
 42
-1
  0
SEQEND
  0
POLYLINE
  8
0
 10
0
 20
0
 39
0
 70
1
 66
1
  0
VERTEX
  8
0
 10
1414
 20
73.277931213378906
 42
0.29410767555236816
  0
VERTEX
  8
0
 10
1425.72265625
 20
55.070899963378906
 42
-0
  0
VERTEX
  8
0
 10
1520.0546875
 20
12.192968368530273
 42
0.10706308484077454
  0
VERTEX
  8
0
 10
1528.33203125
 20
10.399999618530273
 42
0
  0
VERTEX
  8
0
 10
1614
 20
10.399999618530273
 42
0.41421356797218323
  0
VERTEX
  8
0
 10
1634
 20
30.399999618530273
 42
-0
  0
VERTEX
  8
0
 10
1634
 20
230.39999389648437
 42
0.41421356797218323
  0
VERTEX
  8
0
 10
1614
 20
250.39999389648437
 42
-0
  0
VERTEX
  8
0
 10
1528.33203125
 20
250.39999389648437
 42
0.10706308484077454
  0
VERTEX
  8
0
 10
1520.0546875
 20
248.60702514648437
 42
0
  0
VERTEX
  8
0
 10
1425.72265625
 20
205.72909545898437
 42
0.29410767555236816
  0
VERTEX
  8
0
 10
1414
 20
187.52206420898437
 42
0
  0
SEQEND
  0
POLYLINE
  8
0
 10
0
 20
0
 39
0
 70
1
 66
1
  0
VERTEX
  8
0
 10
1539
 20
80.400001525878906
 42
-1
  0
VERTEX
  8
0
 10
1539
 20
180.39999389648437
 42
-1
  0
SEQEND
  0
POLYLINE
  8
0
 10
0
 20
0
 39
0
 70
1
 66
1
  0
VERTEX
  8
0
 10
1586.800048828125
 20
289.27792358398437
 42
0.29410767555236816
  0
VERTEX
  8
0
 10
1598.522705078125
 20
271.07089233398437
 42
-0
  0
VERTEX
  8
0
 10
1692.854736328125
 20
228.19296264648437
 42
0.10706308484077454
  0
VERTEX
  8
0
 10
1701.132080078125
 20
226.39999389648437
 42
0
  0
VERTEX
  8
0
 10
1786.800048828125
 20
226.39999389648437
 42
0.41421356797218323
  0
VERTEX
  8
0
 10
1806.800048828125
 20
246.39999389648437
 42
-0
  0
VERTEX
  8
0
 10
1806.800048828125
 20
446.39999389648437
 42
0.41421356797218323
  0
VERTEX
  8
0
 10
1786.800048828125
 20
466.39999389648437
 42
-0
  0
VERTEX
  8
0
 10
1701.132080078125
 20
466.39999389648437
 42
0.10706308484077454
  0
VERTEX
  8
0
 10
1692.854736328125
 20
464.60702514648437
 42
0
  0
VERTEX
  8
0
 10
1598.522705078125
 20
421.72909545898437
 42
0.29410767555236816
  0
VERTEX
  8
0
 10
1586.800048828125
 20
403.52206420898437
 42
0
  0
SEQEND
  0
POLYLINE
  8
0
 10
0
 20
0
 39
0
 70
1
 66
1
  0
VERTEX
  8
0
 10
1711.800048828125
 20
296.39999389648438
 42
-1
  0
VERTEX
  8
0
 10
1711.800048828125
 20
396.39999389648437
 42
-1
  0
SEQEND
  0
POLYLINE
  8
0
 10
0
 20
0
 39
0
 70
1
 66
1
  0
VERTEX
  8
0
 10
1586.800048828125
 20
539.4779052734375
 42
0.29410767555236816
  0
VERTEX
  8
0
 10
1598.522705078125
 20
521.2708740234375
 42
-0
  0
VERTEX
  8
0
 10
1692.854736328125
 20
478.39297485351562
 42
0.10706308484077454
  0
VERTEX
  8
0
 10
1701.132080078125
 20
476.60000610351562
 42
0
  0
VERTEX
  8
0
 10
1786.800048828125
 20
476.60000610351562
 42
0.41421356797218323
  0
VERTEX
  8
0
 10
1806.800048828125
 20
496.60000610351562
 42
-0
  0
VERTEX
  8
0
 10
1806.800048828125
 20
696.5999755859375
 42
0.41421356797218323
  0
VERTEX
  8
0
 10
1786.800048828125
 20
716.5999755859375
 42
-0
  0
VERTEX
  8
0
 10
1701.132080078125
 20
716.5999755859375
 42
0.10706308484077454
  0
VERTEX
  8
0
 10
1692.854736328125
 20
714.8070068359375
 42
0
  0
VERTEX
  8
0
 10
1598.522705078125
 20
671.9290771484375
 42
0.29410767555236816
  0
VERTEX
  8
0
 10
1586.800048828125
 20
653.7220458984375
 42
0
  0
SEQEND
  0
POLYLINE
  8
0
 10
0
 20
0
 39
0
 70
1
 66
1
  0
VERTEX
  8
0
 10
1711.800048828125
 20
546.5999755859375
 42
-1
  0
VERTEX
  8
0
 10
1711.800048828125
 20
646.5999755859375
 42
-1
  0
SEQEND
  0
POLYLINE
  8
0
 10
0
 20
0
 39
0
 70
1
 66
1
  0
VERTEX
  8
0
 10
1643
 20
726.79998779296875
 42
0
  0
VERTEX
  8
0
 10
1845
 20
726.79998779296875
 42
0
  0
VERTEX
  8
0
 10
1845
 20
985.79998779296875
 42
0
  0
VERTEX
  8
0
 10
1643
 20
985.79998779296875
 42
0
  0
SEQEND
  0
POLYLINE
  8
0
 10
0
 20
0
 39
0
 70
1
 66
1
  0
VERTEX
  8
0
 10
1664.9068603515625
 20
777.37579345703125
 42
-0
  0
VERTEX
  8
0
 10
1664.9068603515625
 20
935.2242431640625
 42
-0.11044000089168549
  0
VERTEX
  8
0
 10
1706.054931640625
 20
961.39483642578125
 42
-0
  0
VERTEX
  8
0
 10
1706.054931640625
 20
751.2052001953125
 42
-0.11044000089168549
  0
SEQEND
  0
POLYLINE
  8
0
 10
0
 20
0
 39
0
 70
1
 66
1
  0
VERTEX
  8
0
 10
1823.0931396484375
 20
777.37579345703125
 42
-0.11044000089168549
  0
VERTEX
  8
0
 10
1781.945068359375
 20
751.2052001953125
 42
0
  0
VERTEX
  8
0
 10
1781.945068359375
 20
961.39483642578125
 42
-0.11044000089168549
  0
VERTEX
  8
0
 10
1823.0931396484375
 20
935.2242431640625
 42
0
  0
SEQEND
  0
POLYLINE
  8
0
 10
0
 20
0
 39
0
 70
1
 66
1
  0
VERTEX
  8
0
 10
1903.4000244140625
 20
10.399999618530273
 42
0
  0
VERTEX
  8
0
 10
1903.4000244140625
 20
212.39999389648437
 42
0
  0
VERTEX
  8
0
 10
1644.4000244140625
 20
212.39999389648437
 42
0
  0
VERTEX
  8
0
 10
1644.4000244140625
 20
10.399999618530273
 42
0
  0
SEQEND
  0
POLYLINE
  8
0
 10
0
 20
0
 39
0
 70
1
 66
1
  0
VERTEX
  8
0
 10
1852.82421875
 20
32.306911468505859
 42
-0
  0
VERTEX
  8
0
 10
1694.975830078125
 20
32.306911468505859
 42
-0.11044000089168549
  0
VERTEX
  8
0
 10
1668.80517578125
 20
73.454917907714844
 42
-0
  0
VERTEX
  8
0
 10
1878.994873046875
 20
73.454917907714844
 42
-0.11044000089168549
  0
SEQEND
  0
POLYLINE
  8
0
 10
0
 20
0
 39
0
 70
1
 66
1
  0
VERTEX
  8
0
 10
1852.82421875
 20
190.49308776855469
 42
-0.11044000089168549
  0
VERTEX
  8
0
 10
1878.994873046875
 20
149.34507751464844
 42
0
  0
VERTEX
  8
0
 10
1668.80517578125
 20
149.34507751464844
 42
-0.11044000089168549
  0
VERTEX
  8
0
 10
1694.975830078125
 20
190.49308776855469
 42
0
  0
SEQEND
  0
POLYLINE
  8
0
 10
0
 20
0
 39
0
 70
1
 66
1
  0
VERTEX
  8
0
 10
731.20001220703125
 20
10.399999618530273
 42
0
  0
VERTEX
  8
0
 10
876.20001220703125
 20
10.399999618530273
 42
-0
  0
VERTEX
  8
0
 10
876.20001220703125
 20
81.537391662597656
 42
-1
  0
VERTEX
  8
0
 10
876.20001220703125
 20
137.53738403320312
 42
-0
  0
VERTEX
  8
0
 10
876.20001220703125
 20
167.125244140625
 42
-1
  0
VERTEX
  8
0
 10
876.20001220703125
 20
223.125244140625
 42
-0
  0
VERTEX
  8
0
 10
876.20001220703125
 20
260.39999389648437
 42
-0.41421356797218323
  0
VERTEX
  8
0
 10
786.20001220703125
 20
350.39999389648438
 42
0
  0
VERTEX
  8
0
 10
731.20001220703125
 20
350.39999389648438
 42
0
  0
SEQEND
  0
POLYLINE
  8
0
 10
0
 20
0
 39
0
 70
1
 66
1
  0
VERTEX
  8
0
 10
786.20001220703125
 20
42.035308837890625
 42
-1
  0
VERTEX
  8
0
 10
786.20001220703125
 20
98.035308837890625
 42
-1
  0
SEQEND
  0
POLYLINE
  8
0
 10
0
 20
0
 39
0
 70
1
 66
1
  0
VERTEX
  8
0
 10
1962.199951171875
 20
562.4000244140625
 42
0
  0
VERTEX
  8
0
 10
1817.199951171875
 20
562.4000244140625
 42
-0
  0
VERTEX
  8
0
 10
1817.199951171875
 20
491.26260375976562
 42
-1
  0
VERTEX
  8
0
 10
1817.199951171875
 20
435.26260375976562
 42
-0
  0
VERTEX
  8
0
 10
1817.199951171875
 20
405.67474365234375
 42
-1
  0
VERTEX
  8
0
 10
1817.199951171875
 20
349.67474365234375
 42
-0
  0
VERTEX
  8
0
 10
1817.199951171875
 20
312.39999389648437
 42
-0.41421356797218323
  0
VERTEX
  8
0
 10
1907.199951171875
 20
222.39999389648437
 42
0
  0
VERTEX
  8
0
 10
1962.199951171875
 20
222.39999389648437
 42
0
  0
SEQEND
  0
POLYLINE
  8
0
 10
0
 20
0
 39
0
 70
1
 66
1
  0
VERTEX
  8
0
 10
1907.199951171875
 20
530.76470947265625
 42
-1
  0
VERTEX
  8
0
 10
1907.199951171875
 20
474.76467895507812
 42
-1
  0
SEQEND
  0
POLYLINE
  8
0
 10
0
 20
0
 39
0
 70
1
 66
1
  0
VERTEX
  8
0
 10
1975.4000244140625
 20
911
 42
0
  0
VERTEX
  8
0
 10
1855.4000244140625
 20
911
 42
-0
  0
VERTEX
  8
0
 10
1855.4000244140625
 20
651
 42
-0
  0
VERTEX
  8
0
 10
1975.4000244140625
 20
566
 42
0
  0
SEQEND
  0
POLYLINE
  8
0
 10
0
 20
0
 39
0
 70
1
 66
1
  0
VERTEX
  8
0
 10
1915.4000244140625
 20
889.177978515625
 42
-1
  0
VERTEX
  8
0
 10
1915.4000244140625
 20
843.177978515625
 42
-1
  0
SEQEND
  0
POLYLINE
  8
0
 10
0
 20
0
 39
0
 70
1
 66
1
  0
VERTEX
  8
0
 10
1915.4000244140625
 20
760.23974609375
 42
-1
  0
VERTEX
  8
0
 10
1915.4000244140625
 20
680.23974609375
 42
-1
  0
SEQEND
  0
POLYLINE
  8
0
 10
0
 20
0
 39
0
 70
1
 66
1
  0
VERTEX
  8
0
 10
731.20001220703125
 20
730.79998779296875
 42
0
  0
VERTEX
  8
0
 10
876.20001220703125
 20
730.79998779296875
 42
-0
  0
VERTEX
  8
0
 10
876.20001220703125
 20
801.9373779296875
 42
0
  0
VERTEX
  8
0
 10
876.20001220703125
 20
970.79998779296875
 42
0
  0
VERTEX
  8
0
 10
854.20001220703125
 20
970.79998779296875
 42
0
  0
VERTEX
  8
0
 10
854.20001220703125
 20
939.79998779296875
 42
0
  0
VERTEX
  8
0
 10
783.20001220703125
 20
939.79998779296875
 42
0
  0
VERTEX
  8
0
 10
783.20001220703125
 20
970.79998779296875
 42
0
  0
VERTEX
  8
0
 10
731.20001220703125
 20
970.79998779296875
 42
0
  0
SEQEND
  0
POLYLINE
  8
0
 10
0
 20
0
 39
0
 70
1
 66
1
  0
VERTEX
  8
0
 10
818.70001220703125
 20
766.36871337890625
 42
-0
  0
VERTEX
  8
0
 10
783.20001220703125
 20
878.21771240234375
 42
-0
  0
VERTEX
  8
0
 10
854.20001220703125
 20
878.21771240234375
 42
-0
  0
VERTEX
  8
0
 10
854.20001220703125
 20
766.36871337890625
 42
-0
  0
SEQEND
  0
POLYLINE
  8
0
 10
0
 20
0
 39
0
 70
1
 66
1
  0
VERTEX
  8
0
 10
757.20001220703125
 20
766.36871337890625
 42
0
  0
VERTEX
  8
0
 10
757.20001220703125
 20
801.9373779296875
 42
0
  0
VERTEX
  8
0
 10
783.20001220703125
 20
801.9373779296875
 42
0
  0
VERTEX
  8
0
 10
783.20001220703125
 20
766.36871337890625
 42
0
  0
SEQEND
  0
POLYLINE
  8
0
 10
0
 20
0
 39
0
 70
1
 66
1
  0
VERTEX
  8
0
 10
1065.5999755859375
 20
709.79998779296875
 42
0
  0
VERTEX
  8
0
 10
1210.5999755859375
 20
709.79998779296875
 42
-0
  0
VERTEX
  8
0
 10
1210.5999755859375
 20
780.9373779296875
 42
0
  0
VERTEX
  8
0
 10
1210.5999755859375
 20
949.79998779296875
 42
0
  0
VERTEX
  8
0
 10
1188.5999755859375
 20
949.79998779296875
 42
0
  0
VERTEX
  8
0
 10
1188.5999755859375
 20
918.79998779296875
 42
0
  0
VERTEX
  8
0
 10
1117.5999755859375
 20
918.79998779296875
 42
0
  0
VERTEX
  8
0
 10
1117.5999755859375
 20
949.79998779296875
 42
0
  0
VERTEX
  8
0
 10
1065.5999755859375
 20
949.79998779296875
 42
0
  0
SEQEND
  0
POLYLINE
  8
0
 10
0
 20
0
 39
0
 70
1
 66
1
  0
VERTEX
  8
0
 10
1153.0999755859375
 20
745.36871337890625
 42
-0
  0
VERTEX
  8
0
 10
1117.5999755859375
 20
857.21771240234375
 42
-0
  0
VERTEX
  8
0
 10
1188.5999755859375
 20
857.21771240234375
 42
-0
  0
VERTEX
  8
0
 10
1188.5999755859375
 20
745.36871337890625
 42
-0
  0
SEQEND
  0
POLYLINE
  8
0
 10
0
 20
0
 39
0
 70
1
 66
1
  0
VERTEX
  8
0
 10
1091.5999755859375
 20
745.36871337890625
 42
0
  0
VERTEX
  8
0
 10
1091.5999755859375
 20
780.9373779296875
 42
0
  0
VERTEX
  8
0
 10
1117.5999755859375
 20
780.9373779296875
 42
0
  0
VERTEX
  8
0
 10
1117.5999755859375
 20
745.36871337890625
 42
0
  0
SEQEND
  0
POLYLINE
  8
0
 10
0
 20
0
 39
0
 70
1
 66
1
  0
VERTEX
  8
0
 10
1065.800048828125
 20
10.399999618530273
 42
0
  0
VERTEX
  8
0
 10
1210.800048828125
 20
10.399999618530273
 42
-0
  0
VERTEX
  8
0
 10
1210.800048828125
 20
81.537391662597656
 42
0
  0
VERTEX
  8
0
 10
1210.800048828125
 20
250.39999389648437
 42
0
  0
VERTEX
  8
0
 10
1188.800048828125
 20
250.39999389648437
 42
0
  0
VERTEX
  8
0
 10
1188.800048828125
 20
219.39999389648437
 42
0
  0
VERTEX
  8
0
 10
1117.800048828125
 20
219.39999389648437
 42
0
  0
VERTEX
  8
0
 10
1117.800048828125
 20
250.39999389648437
 42
0
  0
VERTEX
  8
0
 10
1065.800048828125
 20
250.39999389648437
 42
0
  0
SEQEND
  0
POLYLINE
  8
0
 10
0
 20
0
 39
0
 70
1
 66
1
  0
VERTEX
  8
0
 10
1153.300048828125
 20
45.968696594238281
 42
-0
  0
VERTEX
  8
0
 10
1117.800048828125
 20
157.81771850585937
 42
-0
  0
VERTEX
  8
0
 10
1188.800048828125
 20
157.81771850585937
 42
-0
  0
VERTEX
  8
0
 10
1188.800048828125
 20
45.968696594238281
 42
-0
  0
SEQEND
  0
POLYLINE
  8
0
 10
0
 20
0
 39
0
 70
1
 66
1
  0
VERTEX
  8
0
 10
1091.800048828125
 20
45.968696594238281
 42
0
  0
VERTEX
  8
0
 10
1091.800048828125
 20
81.537391662597656
 42
0
  0
VERTEX
  8
0
 10
1117.800048828125
 20
81.537391662597656
 42
0
  0
VERTEX
  8
0
 10
1117.800048828125
 20
45.968696594238281
 42
0
  0
SEQEND
  0
POLYLINE
  8
0
 10
0
 20
0
 39
0
 70
1
 66
1
  0
VERTEX
  8
0
 10
1399.800048828125
 20
450.60000610351562
 42
-0
  0
VERTEX
  8
0
 10
1399.800048828125
 20
520.5999755859375
 42
0
  0
VERTEX
  8
0
 10
1239.800048828125
 20
520.5999755859375
 42
0
  0
VERTEX
  8
0
 10
1239.800048828125
 20
450.60000610351562
 42
0
  0
SEQEND
  0
POLYLINE
  8
0
 10
0
 20
0
 39
0
 70
1
 66
1
  0
VERTEX
  8
0
 10
1283.8455810546875
 20
478.83978271484375
 42
-1
  0
VERTEX
  8
0
 10
1253.8455810546875
 20
478.83978271484375
 42
-1
  0
SEQEND
  0
POLYLINE
  8
0
 10
0
 20
0
 39
0
 70
1
 66
1
  0
VERTEX
  8
0
 10
1913.800048828125
 20
10.399999618530273
 42
-0
  0
VERTEX
  8
0
 10
1963.800048828125
 20
10.399999618530273
 42
-0
  0
VERTEX
  8
0
 10
1963.800048828125
 20
210.39999389648437
 42
-0
  0
VERTEX
  8
0
 10
1913.800048828125
 20
210.39999389648437
 42
0
  0
SEQEND
  0
POLYLINE
  8
0
 10
0
 20
0
 39
0
 70
1
 66
1
  0
VERTEX
  8
0
 10
1938.800048828125
 20
47.073326110839844
 42
-1
  0
VERTEX
  8
0
 10
1938.800048828125
 20
77.073326110839844
 42
-1
  0
SEQEND
  0
ENDSEC
  0
EOF
