  0
SECTION
  2
ENTITIES
  0
POLYLINE
  8
0
 10
0
 20
0
 39
0
 70
1
 66
1
  0
VERTEX
  8
0
 10
0
 20
0
 42
-0
  0
VERTEX
  8
0
 10
1800
 20
0
 42
-0
  0
VERTEX
  8
0
 10
1800
 20
1000
 42
-0
  0
VERTEX
  8
0
 10
0
 20
1000
 42
-0
  0
SEQEND
  0
POLYLINE
  8
0
 10
0
 20
0
 39
0
 70
1
 66
1
  0
VERTEX
  8
0
 10
430.26153564453125
 20
90.26153564453125
 42
-0
  0
VERTEX
  8
0
 10
730.26153564453125
 20
90.26153564453125
 42
0
  0
VERTEX
  8
0
 10
1172.2615966796875
 20
10.261538505554199
 42
0
  0
VERTEX
  8
0
 10
1272.2615966796875
 20
10.261538505554199
 42
0
  0
VERTEX
  8
0
 10
1272.2615966796875
 20
140.26153564453125
 42
-0
  0
VERTEX
  8
0
 10
730.26153564453125
 20
337.26153564453125
 42
0
  0
VERTEX
  8
0
 10
430.26153564453125
 20
337.26153564453125
 42
-0
  0
VERTEX
  8
0
 10
10.261538505554199
 20
140.26153564453125
 42
0
  0
VERTEX
  8
0
 10
10.261538505554199
 20
10.261538505554199
 42
0
  0
VERTEX
  8
0
 10
110.26153564453125
 20
10.261538505554199
 42
-0
  0
SEQEND
  0
POLYLINE
  8
0
 10
0
 20
0
 39
0
 70
1
 66
1
  0
VERTEX
  8
0
 10
1232.2615966796875
 20
90.26153564453125
 42
-1
  0
VERTEX
  8
0
 10
1152.2615966796875
 20
90.26153564453125
 42
-1
  0
SEQEND
  0
POLYLINE
  8
0
 10
0
 20
0
 39
0
 70
1
 66
1
  0
VERTEX
  8
0
 10
582.26153564453125
 20
210.26153564453125
 42
-1
  0
VERTEX
  8
0
 10
502.26153564453125
 20
210.26153564453125
 42
-1
  0
SEQEND
  0
POLYLINE
  8
0
 10
0
 20
0
 39
0
 70
1
 66
1
  0
VERTEX
  8
0
 10
128.26153564453125
 20
90.26153564453125
 42
-1
  0
VERTEX
  8
0
 10
48.261539459228516
 20
90.26153564453125
 42
-1
  0
SEQEND
  0
POLYLINE
  8
0
 10
0
 20
0
 39
0
 70
1
 66
1
  0
VERTEX
  8
0
 10
430.26153564453125
 20
348.07693481445312
 42
-0
  0
VERTEX
  8
0
 10
730.26153564453125
 20
348.07693481445312
 42
0
  0
VERTEX
  8
0
 10
1172.2615966796875
 20
268.07693481445312
 42
0
  0
VERTEX
  8
0
 10
1272.2615966796875
 20
268.07693481445312
 42
0
  0
VERTEX
  8
0
 10
1272.2615966796875
 20
398.07693481445312
 42
-0
  0
VERTEX
  8
0
 10
730.26153564453125
 20
595.076904296875
 42
0
  0
VERTEX
  8
0
 10
430.26153564453125
 20
595.076904296875
 42
-0
  0
VERTEX
  8
0
 10
10.261538505554199
 20
398.07693481445312
 42
0
  0
VERTEX
  8
0
 10
10.261538505554199
 20
268.07693481445312
 42
0
  0
VERTEX
  8
0
 10
110.26153564453125
 20
268.07693481445312
 42
-0
  0
SEQEND
  0
POLYLINE
  8
0
 10
0
 20
0
 39
0
 70
1
 66
1
  0
VERTEX
  8
0
 10
1232.2615966796875
 20
348.07693481445312
 42
-1
  0
VERTEX
  8
0
 10
1152.2615966796875
 20
348.07693481445312
 42
-1
  0
SEQEND
  0
POLYLINE
  8
0
 10
0
 20
0
 39
0
 70
1
 66
1
  0
VERTEX
  8
0
 10
582.26153564453125
 20
468.07693481445312
 42
-1
  0
VERTEX
  8
0
 10
502.26153564453125
 20
468.07693481445312
 42
-1
  0
SEQEND
  0
POLYLINE
  8
0
 10
0
 20
0
 39
0
 70
1
 66
1
  0
VERTEX
  8
0
 10
128.26153564453125
 20
348.07693481445312
 42
-1
  0
VERTEX
  8
0
 10
48.261539459228516
 20
348.07693481445312
 42
-1
  0
SEQEND
  0
POLYLINE
  8
0
 10
0
 20
0
 39
0
 70
1
 66
1
  0
VERTEX
  8
0
 10
430.26153564453125
 20
605.892333984375
 42
-0
  0
VERTEX
  8
0
 10
730.26153564453125
 20
605.892333984375
 42
0
  0
VERTEX
  8
0
 10
1172.2615966796875
 20
525.892333984375
 42
0
  0
VERTEX
  8
0
 10
1272.2615966796875
 20
525.892333984375
 42
0
  0
VERTEX
  8
0
 10
1272.2615966796875
 20
655.892333984375
 42
-0
  0
VERTEX
  8
0
 10
730.26153564453125
 20
852.892333984375
 42
0
  0
VERTEX
  8
0
 10
430.26153564453125
 20
852.892333984375
 42
-0
  0
VERTEX
  8
0
 10
10.261538505554199
 20
655.892333984375
 42
0
  0
VERTEX
  8
0
 10
10.261538505554199
 20
525.892333984375
 42
0
  0
VERTEX
  8
0
 10
110.26153564453125
 20
525.892333984375
 42
-0
  0
SEQEND
  0
POLYLINE
  8
0
 10
0
 20
0
 39
0
 70
1
 66
1
  0
VERTEX
  8
0
 10
1232.2615966796875
 20
605.892333984375
 42
-1
  0
VERTEX
  8
0
 10
1152.2615966796875
 20
605.892333984375
 42
-1
  0
SEQEND
  0
POLYLINE
  8
0
 10
0
 20
0
 39
0
 70
1
 66
1
  0
VERTEX
  8
0
 10
582.26153564453125
 20
725.892333984375
 42
-1
  0
VERTEX
  8
0
 10
502.26153564453125
 20
725.892333984375
 42
-1
  0
SEQEND
  0
POLYLINE
  8
0
 10
0
 20
0
 39
0
 70
1
 66
1
  0
VERTEX
  8
0
 10
128.26153564453125
 20
605.892333984375
 42
-1
  0
VERTEX
  8
0
 10
48.261539459228516
 20
605.892333984375
 42
-1
  0
SEQEND
  0
POLYLINE
  8
0
 10
0
 20
0
 39
0
 70
1
 66
1
  0
VERTEX
  8
0
 10
320.26153564453125
 20
812.78460693359375
 42
0
  0
VERTEX
  8
0
 10
385.26153564453125
 20
982.78460693359375
 42
0
  0
VERTEX
  8
0
 10
10.261538505554199
 20
982.78460693359375
 42
0
  0
VERTEX
  8
0
 10
10.261538505554199
 20
812.78460693359375
 42
0
  0
SEQEND
  0
POLYLINE
  8
0
 10
0
 20
0
 39
0
 70
1
 66
1
  0
VERTEX
  8
0
 10
66.26153564453125
 20
857.78460693359375
 42
-1
  0
VERTEX
  8
0
 10
84.26153564453125
 20
857.78460693359375
 42
-1
  0
SEQEND
  0
POLYLINE
  8
0
 10
0
 20
0
 39
0
 70
1
 66
1
  0
VERTEX
  8
0
 10
248.26153564453125
 20
857.78460693359375
 42
-1
  0
VERTEX
  8
0
 10
266.26153564453125
 20
857.78460693359375
 42
-1
  0
SEQEND
  0
POLYLINE
  8
0
 10
0
 20
0
 39
0
 70
1
 66
1
  0
VERTEX
  8
0
 10
1161.96923828125
 20
819.70770263671875
 42
0
  0
VERTEX
  8
0
 10
1226.96923828125
 20
989.70770263671875
 42
0
  0
VERTEX
  8
0
 10
851.96923828125
 20
989.70770263671875
 42
0
  0
VERTEX
  8
0
 10
851.96923828125
 20
819.70770263671875
 42
0
  0
SEQEND
  0
POLYLINE
  8
0
 10
0
 20
0
 39
0
 70
1
 66
1
  0
VERTEX
  8
0
 10
907.96923828125
 20
864.70770263671875
 42
-1
  0
VERTEX
  8
0
 10
925.96923828125
 20
864.70770263671875
 42
-1
  0
SEQEND
  0
POLYLINE
  8
0
 10
0
 20
0
 39
0
 70
1
 66
1
  0
VERTEX
  8
0
 10
1089.96923828125
 20
864.70770263671875
 42
-1
  0
VERTEX
  8
0
 10
1107.96923828125
 20
864.70770263671875
 42
-1
  0
SEQEND
  0
POLYLINE
  8
0
 10
0
 20
0
 39
0
 70
1
 66
1
  0
VERTEX
  8
0
 10
1238.96923828125
 20
679.78460693359375
 42
0
  0
VERTEX
  8
0
 10
1408.96923828125
 20
614.78460693359375
 42
0
  0
VERTEX
  8
0
 10
1408.96923828125
 20
989.78460693359375
 42
0
  0
VERTEX
  8
0
 10
1238.96923828125
 20
989.78460693359375
 42
0
  0
SEQEND
  0
POLYLINE
  8
0
 10
0
 20
0
 39
0
 70
1
 66
1
  0
VERTEX
  8
0
 10
1283.96923828125
 20
933.78460693359375
 42
-1
  0
VERTEX
  8
0
 10
1283.96923828125
 20
915.78460693359375
 42
-1
  0
SEQEND
  0
POLYLINE
  8
0
 10
0
 20
0
 39
0
 70
1
 66
1
  0
VERTEX
  8
0
 10
1283.96923828125
 20
751.78460693359375
 42
-1
  0
VERTEX
  8
0
 10
1283.96923828125
 20
733.78460693359375
 42
-1
  0
SEQEND
  0
POLYLINE
  8
0
 10
0
 20
0
 39
0
 70
1
 66
1
  0
VERTEX
  8
0
 10
1452.4461669921875
 20
320.26153564453125
 42
0
  0
VERTEX
  8
0
 10
1282.4461669921875
 20
385.26153564453125
 42
0
  0
VERTEX
  8
0
 10
1282.4461669921875
 20
10.261538505554199
 42
0
  0
VERTEX
  8
0
 10
1452.4461669921875
 20
10.261538505554199
 42
0
  0
SEQEND
  0
POLYLINE
  8
0
 10
0
 20
0
 39
0
 70
1
 66
1
  0
VERTEX
  8
0
 10
1407.4461669921875
 20
66.26153564453125
 42
-1
  0
VERTEX
  8
0
 10
1407.4461669921875
 20
84.26153564453125
 42
-1
  0
SEQEND
  0
POLYLINE
  8
0
 10
0
 20
0
 39
0
 70
1
 66
1
  0
VERTEX
  8
0
 10
1407.4461669921875
 20
248.26153564453125
 42
-1
  0
VERTEX
  8
0
 10
1407.4461669921875
 20
266.26153564453125
 42
-1
  0
SEQEND
  0
POLYLINE
  8
0
 10
0
 20
0
 39
0
 70
1
 66
1
  0
VERTEX
  8
0
 10
1419.24609375
 20
344.15383911132812
 42
0
  0
VERTEX
  8
0
 10
1589.24609375
 20
279.15383911132812
 42
0
  0
VERTEX
  8
0
 10
1589.24609375
 20
654.15386962890625
 42
0
  0
VERTEX
  8
0
 10
1419.24609375
 20
654.15386962890625
 42
0
  0
SEQEND
  0
POLYLINE
  8
0
 10
0
 20
0
 39
0
 70
1
 66
1
  0
VERTEX
  8
0
 10
1464.24609375
 20
598.15386962890625
 42
-1
  0
VERTEX
  8
0
 10
1464.24609375
 20
580.15386962890625
 42
-1
  0
SEQEND
  0
POLYLINE
  8
0
 10
0
 20
0
 39
0
 70
1
 66
1
  0
VERTEX
  8
0
 10
1464.24609375
 20
416.15383911132812
 42
-1
  0
VERTEX
  8
0
 10
1464.24609375
 20
398.15383911132812
 42
-1
  0
SEQEND
  0
POLYLINE
  8
0
 10
0
 20
0
 39
0
 70
1
 66
1
  0
VERTEX
  8
0
 10
1551.4769287109375
 20
679.78460693359375
 42
0
  0
VERTEX
  8
0
 10
1721.4769287109375
 20
614.78460693359375
 42
0
  0
VERTEX
  8
0
 10
1721.4769287109375
 20
989.78460693359375
 42
0
  0
VERTEX
  8
0
 10
1551.4769287109375
 20
989.78460693359375
 42
0
  0
SEQEND
  0
POLYLINE
  8
0
 10
0
 20
0
 39
0
 70
1
 66
1
  0
VERTEX
  8
0
 10
1596.4769287109375
 20
933.78460693359375
 42
-1
  0
VERTEX
  8
0
 10
1596.4769287109375
 20
915.78460693359375
 42
-1
  0
SEQEND
  0
POLYLINE
  8
0
 10
0
 20
0
 39
0
 70
1
 66
1
  0
VERTEX
  8
0
 10
1596.4769287109375
 20
751.78460693359375
 42
-1
  0
VERTEX
  8
0
 10
1596.4769287109375
 20
733.78460693359375
 42
-1
  0
SEQEND
  0
POLYLINE
  8
0
 10
0
 20
0
 39
0
 70
1
 66
1
  0
VERTEX
  8
0
 10
1769.5230712890625
 20
320.26153564453125
 42
0
  0
VERTEX
  8
0
 10
1599.5230712890625
 20
385.26153564453125
 42
0
  0
VERTEX
  8
0
 10
1599.5230712890625
 20
10.261538505554199
 42
0
  0
VERTEX
  8
0
 10
1769.5230712890625
 20
10.261538505554199
 42
0
  0
SEQEND
  0
POLYLINE
  8
0
 10
0
 20
0
 39
0
 70
1
 66
1
  0
VERTEX
  8
0
 10
1724.5230712890625
 20
66.26153564453125
 42
-1
  0
VERTEX
  8
0
 10
1724.5230712890625
 20
84.26153564453125
 42
-1
  0
SEQEND
  0
POLYLINE
  8
0
 10
0
 20
0
 39
0
 70
1
 66
1
  0
VERTEX
  8
0
 10
1724.5230712890625
 20
248.26153564453125
 42
-1
  0
VERTEX
  8
0
 10
1724.5230712890625
 20
266.26153564453125
 42
-1
  0
SEQEND
  0
POLYLINE
  8
0
 10
0
 20
0
 39
0
 70
1
 66
1
  0
VERTEX
  8
0
 10
1599.5230712890625
 20
615.64996337890625
 42
-0
  0
VERTEX
  8
0
 10
1599.5230712890625
 20
471.45126342773437
 42
0.26794919371604919
  0
VERTEX
  8
0
 10
1637.0230712890625
 20
406.49935913085937
 42
0
  0
VERTEX
  8
0
 10
1761.90283203125
 20
334.39999389648437
 42
-0
  0
VERTEX
  8
0
 10
1761.90283203125
 20
478.59872436523437
 42
0.26794919371604919
  0
VERTEX
  8
0
 10
1724.40283203125
 20
543.55059814453125
 42
0
  0
SEQEND
  0
POLYLINE
  8
0
 10
0
 20
0
 39
0
 70
1
 66
1
  0
VERTEX
  8
0
 10
1707.896484375
 20
427.941650390625
 42
-1
  0
VERTEX
  8
0
 10
1728.47509765625
 20
392.298583984375
 42
-1
  0
SEQEND
  0
POLYLINE
  8
0
 10
0
 20
0
 39
0
 70
1
 66
1
  0
VERTEX
  8
0
 10
1632.9508056640625
 20
557.75140380859375
 42
-1
  0
VERTEX
  8
0
 10
1653.5294189453125
 20
522.10833740234375
 42
-1
  0
SEQEND
  0
POLYLINE
  8
0
 10
0
 20
0
 39
0
 70
1
 66
1
  0
VERTEX
  8
0
 10
1661.9630126953125
 20
507.50094604492187
 42
-1
  0
VERTEX
  8
0
 10
1699.4630126953125
 20
442.54904174804687
 42
-1
  0
SEQEND
  0
POLYLINE
  8
0
 10
0
 20
0
 39
0
 70
1
 66
1
  0
VERTEX
  8
0
 10
1346.474853515625
 20
372.0615234375
 42
-0
  0
VERTEX
  8
0
 10
1359.4652099609375
 20
379.5615234375
 42
-0
  0
VERTEX
  8
0
 10
1359.4652099609375
 20
542.01470947265625
 42
-0
  0
VERTEX
  8
0
 10
1340.15380859375
 20
553.1641845703125
 42
0
  0
VERTEX
  8
0
 10
1206.15380859375
 20
475.79922485351562
 42
0
  0
VERTEX
  8
0
 10
1206.15380859375
 20
453.075927734375
 42
0
  0
SEQEND
  0
POLYLINE
  8
0
 10
0
 20
0
 39
0
 70
1
 66
1
  0
VERTEX
  8
0
 10
1224.44384765625
 20
455.18203735351562
 42
-1
  0
VERTEX
  8
0
 10
1243.496337890625
 20
466.18203735351562
 42
-1
  0
SEQEND
  0
POLYLINE
  8
0
 10
0
 20
0
 39
0
 70
1
 66
1
  0
VERTEX
  8
0
 10
1329.44384765625
 20
515.8038330078125
 42
-1
  0
VERTEX
  8
0
 10
1348.496337890625
 20
526.8038330078125
 42
-1
  0
SEQEND
  0
POLYLINE
  8
0
 10
0
 20
0
 39
0
 70
1
 66
1
  0
VERTEX
  8
0
 10
1329.44384765625
 20
394.56024169921875
 42
-1
  0
VERTEX
  8
0
 10
1348.496337890625
 20
405.56024169921875
 42
-1
  0
SEQEND
  0
POLYLINE
  8
0
 10
0
 20
0
 39
0
 70
1
 66
1
  0
VERTEX
  8
0
 10
573.076904296875
 20
30.288145065307617
 42
-0
  0
VERTEX
  8
0
 10
573.076904296875
 20
50.234939575195313
 42
-0
  0
VERTEX
  8
0
 10
471.37057495117187
 20
50.234939575195313
 42
0.70781236886978149
  0
VERTEX
  8
0
 10
414.78326416015625
 20
50.234939575195313
 42
-0
  0
VERTEX
  8
0
 10
313.07693481445312
 20
50.234939575195313
 42
-0
  0
VERTEX
  8
0
 10
313.07693481445312
 20
30.288145065307617
 42
0
  0
VERTEX
  8
0
 10
414.78326416015625
 20
30.288145065307617
 42
0.70781236886978149
  0
VERTEX
  8
0
 10
471.37057495117187
 20
30.288145065307617
 42
0
  0
SEQEND
  0
POLYLINE
  8
0
 10
0
 20
0
 39
0
 70
1
 66
1
  0
VERTEX
  8
0
 10
458.07693481445312
 20
40.261543273925781
 42
-1
  0
VERTEX
  8
0
 10
428.07693481445312
 20
40.261543273925781
 42
-1
  0
SEQEND
  0
POLYLINE
  8
0
 10
0
 20
0
 39
0
 70
1
 66
1
  0
VERTEX
  8
0
 10
625.96923828125
 20
882.934326171875
 42
-0
  0
VERTEX
  8
0
 10
625.96923828125
 20
902.881103515625
 42
-0
  0
VERTEX
  8
0
 10
524.26287841796875
 20
902.881103515625
 42
0.70781236886978149
  0
VERTEX
  8
0
 10
467.67556762695312
 20
902.881103515625
 42
-0
  0
VERTEX
  8
0
 10
365.96923828125
 20
902.881103515625
 42
-0
  0
VERTEX
  8
0
 10
365.96923828125
 20
882.934326171875
 42
0
  0
VERTEX
  8
0
 10
467.67556762695312
 20
882.934326171875
 42
0.70781236886978149
  0
VERTEX
  8
0
 10
524.26287841796875
 20
882.934326171875
 42
0
  0
SEQEND
  0
POLYLINE
  8
0
 10
0
 20
0
 39
0
 70
1
 66
1
  0
VERTEX
  8
0
 10
510.96923828125
 20
892.90771484375
 42
-1
  0
VERTEX
  8
0
 10
480.96923828125
 20
892.90771484375
 42
-1
  0
SEQEND
  0
POLYLINE
  8
0
 10
0
 20
0
 39
0
 70
1
 66
1
  0
VERTEX
  8
0
 10
651.16925048828125
 20
948.70355224609375
 42
-0
  0
VERTEX
  8
0
 10
651.16925048828125
 20
968.65032958984375
 42
-0
  0
VERTEX
  8
0
 10
549.462890625
 20
968.65032958984375
 42
0.70781236886978149
  0
VERTEX
  8
0
 10
492.87554931640625
 20
968.65032958984375
 42
-0
  0
VERTEX
  8
0
 10
391.16921997070312
 20
968.65032958984375
 42
-0
  0
VERTEX
  8
0
 10
391.16921997070312
 20
948.70355224609375
 42
0
  0
VERTEX
  8
0
 10
492.87554931640625
 20
948.70355224609375
 42
0.70781236886978149
  0
VERTEX
  8
0
 10
549.462890625
 20
948.70355224609375
 42
0
  0
SEQEND
  0
POLYLINE
  8
0
 10
0
 20
0
 39
0
 70
1
 66
1
  0
VERTEX
  8
0
 10
536.16925048828125
 20
958.67694091796875
 42
-1
  0
VERTEX
  8
0
 10
506.16921997070312
 20
958.67694091796875
 42
-1
  0
SEQEND
  0
POLYLINE
  8
0
 10
0
 20
0
 39
0
 70
1
 66
1
  0
VERTEX
  8
0
 10
812.4769287109375
 20
913.25738525390625
 42
-0
  0
VERTEX
  8
0
 10
812.4769287109375
 20
933.20416259765625
 42
-0
  0
VERTEX
  8
0
 10
710.77056884765625
 20
933.20416259765625
 42
0.70781236886978149
  0
VERTEX
  8
0
 10
654.1832275390625
 20
933.20416259765625
 42
-0
  0
VERTEX
  8
0
 10
552.4769287109375
 20
933.20416259765625
 42
-0
  0
VERTEX
  8
0
 10
552.4769287109375
 20
913.25738525390625
 42
0
  0
VERTEX
  8
0
 10
654.1832275390625
 20
913.25738525390625
 42
0.70781236886978149
  0
VERTEX
  8
0
 10
710.77056884765625
 20
913.25738525390625
 42
0
  0
SEQEND
  0
POLYLINE
  8
0
 10
0
 20
0
 39
0
 70
1
 66
1
  0
VERTEX
  8
0
 10
697.4769287109375
 20
923.23077392578125
 42
-1
  0
VERTEX
  8
0
 10
667.4769287109375
 20
923.23077392578125
 42
-1
  0
SEQEND
  0
POLYLINE
  8
0
 10
0
 20
0
 39
0
 70
1
 66
1
  0
VERTEX
  8
0
 10
843.35382080078125
 20
30.288145065307617
 42
-0
  0
VERTEX
  8
0
 10
843.35382080078125
 20
50.234939575195313
 42
-0
  0
VERTEX
  8
0
 10
741.64752197265625
 20
50.234939575195313
 42
0.70781236886978149
  0
VERTEX
  8
0
 10
685.0601806640625
 20
50.234939575195313
 42
-0
  0
VERTEX
  8
0
 10
583.35382080078125
 20
50.234939575195313
 42
-0
  0
VERTEX
  8
0
 10
583.35382080078125
 20
30.288145065307617
 42
0
  0
VERTEX
  8
0
 10
685.0601806640625
 20
30.288145065307617
 42
0.70781236886978149
  0
VERTEX
  8
0
 10
741.64752197265625
 20
30.288145065307617
 42
0
  0
SEQEND
  0
POLYLINE
  8
0
 10
0
 20
0
 39
0
 70
1
 66
1
  0
VERTEX
  8
0
 10
728.35382080078125
 20
40.261543273925781
 42
-1
  0
VERTEX
  8
0
 10
698.35382080078125
 20
40.261543273925781
 42
-1
  0
SEQEND
  0
POLYLINE
  8
0
 10
0
 20
0
 39
0
 70
1
 66
1
  0
VERTEX
  8
0
 10
1439.272705078125
 20
664.21539306640625
 42
-0
  0
VERTEX
  8
0
 10
1459.2196044921875
 20
664.21539306640625
 42
-0
  0
VERTEX
  8
0
 10
1459.2196044921875
 20
765.92169189453125
 42
0.70781236886978149
  0
VERTEX
  8
0
 10
1459.2196044921875
 20
822.509033203125
 42
-0
  0
VERTEX
  8
0
 10
1459.2196044921875
 20
924.21539306640625
 42
-0
  0
VERTEX
  8
0
 10
1439.272705078125
 20
924.21539306640625
 42
0
  0
VERTEX
  8
0
 10
1439.272705078125
 20
822.509033203125
 42
0.70781236886978149
  0
VERTEX
  8
0
 10
1439.272705078125
 20
765.92169189453125
 42
0
  0
SEQEND
  0
POLYLINE
  8
0
 10
0
 20
0
 39
0
 70
1
 66
1
  0
VERTEX
  8
0
 10
1449.2462158203125
 20
779.21539306640625
 42
-1
  0
VERTEX
  8
0
 10
1449.2462158203125
 20
809.21539306640625
 42
-1
  0
SEQEND
  0
POLYLINE
  8
0
 10
0
 20
0
 39
0
 70
1
 66
1
  0
VERTEX
  8
0
 10
1482.7496337890625
 20
10.261538505554199
 42
-0
  0
VERTEX
  8
0
 10
1502.696533203125
 20
10.261538505554199
 42
-0
  0
VERTEX
  8
0
 10
1502.696533203125
 20
111.96787261962891
 42
0.70781236886978149
  0
VERTEX
  8
0
 10
1502.696533203125
 20
168.55520629882812
 42
-0
  0
VERTEX
  8
0
 10
1502.696533203125
 20
270.26153564453125
 42
-0
  0
VERTEX
  8
0
 10
1482.7496337890625
 20
270.26153564453125
 42
0
  0
VERTEX
  8
0
 10
1482.7496337890625
 20
168.55520629882812
 42
0.70781236886978149
  0
VERTEX
  8
0
 10
1482.7496337890625
 20
111.96787261962891
 42
0
  0
SEQEND
  0
POLYLINE
  8
0
 10
0
 20
0
 39
0
 70
1
 66
1
  0
VERTEX
  8
0
 10
1492.7230224609375
 20
125.26153564453125
 42
-1
  0
VERTEX
  8
0
 10
1492.7230224609375
 20
155.26153564453125
 42
-1
  0
SEQEND
  0
POLYLINE
  8
0
 10
0
 20
0
 39
0
 70
1
 66
1
  0
VERTEX
  8
0
 10
1489.6727294921875
 20
713.36920166015625
 42
-0
  0
VERTEX
  8
0
 10
1509.6195068359375
 20
713.36920166015625
 42
-0
  0
VERTEX
  8
0
 10
1509.6195068359375
 20
815.0755615234375
 42
0.70781236886978149
  0
VERTEX
  8
0
 10
1509.6195068359375
 20
871.66290283203125
 42
-0
  0
VERTEX
  8
0
 10
1509.6195068359375
 20
973.36920166015625
 42
-0
  0
VERTEX
  8
0
 10
1489.6727294921875
 20
973.36920166015625
 42
0
  0
VERTEX
  8
0
 10
1489.6727294921875
 20
871.66290283203125
 42
0.70781236886978149
  0
VERTEX
  8
0
 10
1489.6727294921875
 20
815.0755615234375
 42
0
  0
SEQEND
  0
POLYLINE
  8
0
 10
0
 20
0
 39
0
 70
1
 66
1
  0
VERTEX
  8
0
 10
1499.6461181640625
 20
828.36920166015625
 42
-1
  0
VERTEX
  8
0
 10
1499.6461181640625
 20
858.36920166015625
 42
-1
  0
SEQEND
  0
POLYLINE
  8
0
 10
0
 20
0
 39
0
 70
1
 66
1
  0
VERTEX
  8
0
 10
10.261538505554199
 20
690.9384765625
 42
-0
  0
VERTEX
  8
0
 10
60.261539459228516
 20
690.9384765625
 42
-0
  0
VERTEX
  8
0
 10
60.261539459228516
 20
790.9384765625
 42
-0
  0
VERTEX
  8
0
 10
10.261538505554199
 20
790.9384765625
 42
0
  0
SEQEND
  0
POLYLINE
  8
0
 10
0
 20
0
 39
0
 70
1
 66
1
  0
VERTEX
  8
0
 10
35.261539459228516
 20
711.34454345703125
 42
-0
  0
VERTEX
  8
0
 10
22.261537551879883
 20
711.34454345703125
 42
-0
  0
VERTEX
  8
0
 10
22.261537551879883
 20
770.53240966796875
 42
-0
  0
VERTEX
  8
0
 10
35.261539459228516
 20
770.53240966796875
 42
-0
  0
VERTEX
  8
0
 10
48.261539459228516
 20
770.53240966796875
 42
0
  0
VERTEX
  8
0
 10
48.261539459228516
 20
711.34454345703125
 42
0
  0
SEQEND
  0
POLYLINE
  8
0
 10
0
 20
0
 39
0
 70
1
 66
1
  0
VERTEX
  8
0
 10
110.26153564453125
 20
198.70768737792969
 42
-0
  0
VERTEX
  8
0
 10
110.26153564453125
 20
248.70768737792969
 42
-0
  0
VERTEX
  8
0
 10
10.261538505554199
 20
248.70768737792969
 42
-0
  0
VERTEX
  8
0
 10
10.261538505554199
 20
198.70768737792969
 42
0
  0
SEQEND
  0
POLYLINE
  8
0
 10
0
 20
0
 39
0
 70
1
 66
1
  0
VERTEX
  8
0
 10
89.855476379394531
 20
223.70768737792969
 42
-0
  0
VERTEX
  8
0
 10
89.855476379394531
 20
210.70768737792969
 42
-0
  0
VERTEX
  8
0
 10
30.667596817016602
 20
210.70768737792969
 42
-0
  0
VERTEX
  8
0
 10
30.667596817016602
 20
223.70768737792969
 42
-0
  0
VERTEX
  8
0
 10
30.667596817016602
 20
236.70768737792969
 42
0
  0
VERTEX
  8
0
 10
89.855476379394531
 20
236.70768737792969
 42
0
  0
SEQEND
  0
POLYLINE
  8
0
 10
0
 20
0
 39
0
 70
1
 66
1
  0
VERTEX
  8
0
 10
110.26153564453125
 20
456.5230712890625
 42
-0
  0
VERTEX
  8
0
 10
110.26153564453125
 20
506.5230712890625
 42
-0
  0
VERTEX
  8
0
 10
10.261538505554199
 20
506.5230712890625
 42
-0
  0
VERTEX
  8
0
 10
10.261538505554199
 20
456.5230712890625
 42
0
  0
SEQEND
  0
POLYLINE
  8
0
 10
0
 20
0
 39
0
 70
1
 66
1
  0
VERTEX
  8
0
 10
89.855476379394531
 20
481.5230712890625
 42
-0
  0
VERTEX
  8
0
 10
89.855476379394531
 20
468.5230712890625
 42
-0
  0
VERTEX
  8
0
 10
30.667596817016602
 20
468.5230712890625
 42
-0
  0
VERTEX
  8
0
 10
30.667596817016602
 20
481.5230712890625
 42
-0
  0
VERTEX
  8
0
 10
30.667596817016602
 20
494.5230712890625
 42
0
  0
VERTEX
  8
0
 10
89.855476379394531
 20
494.5230712890625
 42
0
  0
SEQEND
  0
POLYLINE
  8
0
 10
0
 20
0
 39
0
 70
1
 66
1
  0
VERTEX
  8
0
 10
170.4923095703125
 20
742.5845947265625
 42
-0
  0
VERTEX
  8
0
 10
170.4923095703125
 20
792.5845947265625
 42
-0
  0
VERTEX
  8
0
 10
70.4923095703125
 20
792.5845947265625
 42
-0
  0
VERTEX
  8
0
 10
70.4923095703125
 20
742.5845947265625
 42
0
  0
SEQEND
  0
POLYLINE
  8
0
 10
0
 20
0
 39
0
 70
1
 66
1
  0
VERTEX
  8
0
 10
150.08624267578125
 20
767.5845947265625
 42
-0
  0
VERTEX
  8
0
 10
150.08624267578125
 20
754.5845947265625
 42
-0
  0
VERTEX
  8
0
 10
90.898368835449219
 20
754.5845947265625
 42
-0
  0
VERTEX
  8
0
 10
90.898368835449219
 20
767.5845947265625
 42
-0
  0
VERTEX
  8
0
 10
90.898368835449219
 20
780.5845947265625
 42
0
  0
VERTEX
  8
0
 10
150.08624267578125
 20
780.5845947265625
 42
0
  0
SEQEND
  0
POLYLINE
  8
0
 10
0
 20
0
 39
0
 70
1
 66
1
  0
VERTEX
  8
0
 10
1117.2923583984375
 20
759.6153564453125
 42
-0
  0
VERTEX
  8
0
 10
1117.2923583984375
 20
809.6153564453125
 42
-0
  0
VERTEX
  8
0
 10
1017.2922973632812
 20
809.6153564453125
 42
-0
  0
VERTEX
  8
0
 10
1017.2922973632812
 20
759.6153564453125
 42
0
  0
SEQEND
  0
POLYLINE
  8
0
 10
0
 20
0
 39
0
 70
1
 66
1
  0
VERTEX
  8
0
 10
1096.88623046875
 20
784.6153564453125
 42
-0
  0
VERTEX
  8
0
 10
1096.88623046875
 20
771.6153564453125
 42
-0
  0
VERTEX
  8
0
 10
1037.6983642578125
 20
771.6153564453125
 42
-0
  0
VERTEX
  8
0
 10
1037.6983642578125
 20
784.6153564453125
 42
-0
  0
VERTEX
  8
0
 10
1037.6983642578125
 20
797.6153564453125
 42
0
  0
VERTEX
  8
0
 10
1096.88623046875
 20
797.6153564453125
 42
0
  0
SEQEND
  0
POLYLINE
  8
0
 10
0
 20
0
 39
0
 70
1
 66
1
  0
VERTEX
  8
0
 10
1154.923095703125
 20
709.63079833984375
 42
-0
  0
VERTEX
  8
0
 10
1204.923095703125
 20
709.63079833984375
 42
-0
  0
VERTEX
  8
0
 10
1204.923095703125
 20
809.63079833984375
 42
-0
  0
VERTEX
  8
0
 10
1154.923095703125
 20
809.63079833984375
 42
0
  0
SEQEND
  0
POLYLINE
  8
0
 10
0
 20
0
 39
0
 70
1
 66
1
  0
VERTEX
  8
0
 10
1179.923095703125
 20
730.03680419921875
 42
-0
  0
VERTEX
  8
0
 10
1166.923095703125
 20
730.03680419921875
 42
-0
  0
VERTEX
  8
0
 10
1166.923095703125
 20
789.2247314453125
 42
-0
  0
VERTEX
  8
0
 10
1179.923095703125
 20
789.2247314453125
 42
-0
  0
VERTEX
  8
0
 10
1192.923095703125
 20
789.2247314453125
 42
0
  0
VERTEX
  8
0
 10
1192.923095703125
 20
730.03680419921875
 42
0
  0
SEQEND
  0
POLYLINE
  8
0
 10
0
 20
0
 39
0
 70
1
 66
1
  0
VERTEX
  8
0
 10
1216.4307861328125
 20
207.984619140625
 42
-0
  0
VERTEX
  8
0
 10
1216.4307861328125
 20
257.984619140625
 42
-0
  0
VERTEX
  8
0
 10
1116.4307861328125
 20
257.984619140625
 42
-0
  0
VERTEX
  8
0
 10
1116.4307861328125
 20
207.984619140625
 42
0
  0
SEQEND
  0
POLYLINE
  8
0
 10
0
 20
0
 39
0
 70
1
 66
1
  0
VERTEX
  8
0
 10
1196.024658203125
 20
232.984619140625
 42
-0
  0
VERTEX
  8
0
 10
1196.024658203125
 20
219.984619140625
 42
-0
  0
VERTEX
  8
0
 10
1136.8367919921875
 20
219.984619140625
 42
-0
  0
VERTEX
  8
0
 10
1136.8367919921875
 20
232.984619140625
 42
-0
  0
VERTEX
  8
0
 10
1136.8367919921875
 20
245.984619140625
 42
0
  0
VERTEX
  8
0
 10
1196.024658203125
 20
245.984619140625
 42
0
  0
SEQEND
  0
POLYLINE
  8
0
 10
0
 20
0
 39
0
 70
1
 66
1
  0
VERTEX
  8
0
 10
1382.4461669921875
 20
563.27691650390625
 42
-0
  0
VERTEX
  8
0
 10
1382.4461669921875
 20
613.27691650390625
 42
-0
  0
VERTEX
  8
0
 10
1282.4461669921875
 20
613.27691650390625
 42
-0
  0
VERTEX
  8
0
 10
1282.4461669921875
 20
563.27691650390625
 42
0
  0
SEQEND
  0
POLYLINE
  8
0
 10
0
 20
0
 39
0
 70
1
 66
1
  0
VERTEX
  8
0
 10
1362.0400390625
 20
588.27691650390625
 42
-0
  0
VERTEX
  8
0
 10
1362.0400390625
 20
575.27691650390625
 42
-0
  0
VERTEX
  8
0
 10
1302.8521728515625
 20
575.27691650390625
 42
-0
  0
VERTEX
  8
0
 10
1302.8521728515625
 20
588.27691650390625
 42
-0
  0
VERTEX
  8
0
 10
1302.8521728515625
 20
601.27691650390625
 42
0
  0
VERTEX
  8
0
 10
1362.0400390625
 20
601.27691650390625
 42
0
  0
SEQEND
  0
POLYLINE
  8
0
 10
0
 20
0
 39
0
 70
1
 66
1
  0
VERTEX
  8
0
 10
1512.84619140625
 20
175.30769348144531
 42
-0
  0
VERTEX
  8
0
 10
1562.84619140625
 20
175.30769348144531
 42
-0
  0
VERTEX
  8
0
 10
1562.84619140625
 20
275.30767822265625
 42
-0
  0
VERTEX
  8
0
 10
1512.84619140625
 20
275.30767822265625
 42
0
  0
SEQEND
  0
POLYLINE
  8
0
 10
0
 20
0
 39
0
 70
1
 66
1
  0
VERTEX
  8
0
 10
1537.84619140625
 20
195.71376037597656
 42
-0
  0
VERTEX
  8
0
 10
1524.84619140625
 20
195.71376037597656
 42
-0
  0
VERTEX
  8
0
 10
1524.84619140625
 20
254.90162658691406
 42
-0
  0
VERTEX
  8
0
 10
1537.84619140625
 20
254.90162658691406
 42
-0
  0
VERTEX
  8
0
 10
1550.84619140625
 20
254.90162658691406
 42
0
  0
VERTEX
  8
0
 10
1550.84619140625
 20
195.71376037597656
 42
0
  0
SEQEND
  0
POLYLINE
  8
0
 10
0
 20
0
 39
0
 70
1
 66
1
  0
VERTEX
  8
0
 10
1519.769287109375
 20
10.261538505554199
 42
-0
  0
VERTEX
  8
0
 10
1569.769287109375
 20
10.261538505554199
 42
-0
  0
VERTEX
  8
0
 10
1569.769287109375
 20
110.26153564453125
 42
-0
  0
VERTEX
  8
0
 10
1519.769287109375
 20
110.26153564453125
 42
0
  0
SEQEND
  0
POLYLINE
  8
0
 10
0
 20
0
 39
0
 70
1
 66
1
  0
VERTEX
  8
0
 10
1544.769287109375
 20
30.667600631713867
 42
-0
  0
VERTEX
  8
0
 10
1531.769287109375
 20
30.667600631713867
 42
-0
  0
VERTEX
  8
0
 10
1531.769287109375
 20
89.855476379394531
 42
-0
  0
VERTEX
  8
0
 10
1544.769287109375
 20
89.855476379394531
 42
-0
  0
VERTEX
  8
0
 10
1557.769287109375
 20
89.855476379394531
 42
0
  0
VERTEX
  8
0
 10
1557.769287109375
 20
30.667600631713867
 42
0
  0
SEQEND
  0
POLYLINE
  8
0
 10
0
 20
0
 39
0
 70
1
 66
1
  0
VERTEX
  8
0
 10
1731.75390625
 20
551.36920166015625
 42
-0
  0
VERTEX
  8
0
 10
1781.75390625
 20
551.36920166015625
 42
-0
  0
VERTEX
  8
0
 10
1781.75390625
 20
651.36920166015625
 42
-0
  0
VERTEX
  8
0
 10
1731.75390625
 20
651.36920166015625
 42
0
  0
SEQEND
  0
POLYLINE
  8
0
 10
0
 20
0
 39
0
 70
1
 66
1
  0
VERTEX
  8
0
 10
1756.75390625
 20
571.7752685546875
 42
-0
  0
VERTEX
  8
0
 10
1743.75390625
 20
571.7752685546875
 42
-0
  0
VERTEX
  8
0
 10
1743.75390625
 20
630.96319580078125
 42
-0
  0
VERTEX
  8
0
 10
1756.75390625
 20
630.96319580078125
 42
-0
  0
VERTEX
  8
0
 10
1769.75390625
 20
630.96319580078125
 42
0
  0
VERTEX
  8
0
 10
1769.75390625
 20
571.7752685546875
 42
0
  0
SEQEND
  0
POLYLINE
  8
0
 10
0
 20
0
 39
0
 70
1
 66
1
  0
VERTEX
  8
0
 10
1731.75390625
 20
661.4461669921875
 42
-0
  0
VERTEX
  8
0
 10
1781.75390625
 20
661.4461669921875
 42
-0
  0
VERTEX
  8
0
 10
1781.75390625
 20
761.4461669921875
 42
-0
  0
VERTEX
  8
0
 10
1731.75390625
 20
761.4461669921875
 42
0
  0
SEQEND
  0
POLYLINE
  8
0
 10
0
 20
0
 39
0
 70
1
 66
1
  0
VERTEX
  8
0
 10
1756.75390625
 20
681.85223388671875
 42
-0
  0
VERTEX
  8
0
 10
1743.75390625
 20
681.85223388671875
 42
-0
  0
VERTEX
  8
0
 10
1743.75390625
 20
741.04010009765625
 42
-0
  0
VERTEX
  8
0
 10
1756.75390625
 20
741.04010009765625
 42
-0
  0
VERTEX
  8
0
 10
1769.75390625
 20
741.04010009765625
 42
0
  0
VERTEX
  8
0
 10
1769.75390625
 20
681.85223388671875
 42
0
  0
SEQEND
  0
POLYLINE
  8
0
 10
0
 20
0
 39
0
 70
1
 66
1
  0
VERTEX
  8
0
 10
1731.75390625
 20
771.5230712890625
 42
-0
  0
VERTEX
  8
0
 10
1781.75390625
 20
771.5230712890625
 42
-0
  0
VERTEX
  8
0
 10
1781.75390625
 20
871.5230712890625
 42
-0
  0
VERTEX
  8
0
 10
1731.75390625
 20
871.5230712890625
 42
0
  0
SEQEND
  0
POLYLINE
  8
0
 10
0
 20
0
 39
0
 70
1
 66
1
  0
VERTEX
  8
0
 10
1756.75390625
 20
791.92913818359375
 42
-0
  0
VERTEX
  8
0
 10
1743.75390625
 20
791.92913818359375
 42
-0
  0
VERTEX
  8
0
 10
1743.75390625
 20
851.11700439453125
 42
-0
  0
VERTEX
  8
0
 10
1756.75390625
 20
851.11700439453125
 42
-0
  0
VERTEX
  8
0
 10
1769.75390625
 20
851.11700439453125
 42
0
  0
VERTEX
  8
0
 10
1769.75390625
 20
791.92913818359375
 42
0
  0
SEQEND
  0
POLYLINE
  8
0
 10
0
 20
0
 39
0
 70
1
 66
1
  0
VERTEX
  8
0
 10
1731.75390625
 20
881.5999755859375
 42
-0
  0
VERTEX
  8
0
 10
1781.75390625
 20
881.5999755859375
 42
-0
  0
VERTEX
  8
0
 10
1781.75390625
 20
981.5999755859375
 42
-0
  0
VERTEX
  8
0
 10
1731.75390625
 20
981.5999755859375
 42
0
  0
SEQEND
  0
POLYLINE
  8
0
 10
0
 20
0
 39
0
 70
1
 66
1
  0
VERTEX
  8
0
 10
1756.75390625
 20
902.00604248046875
 42
-0
  0
VERTEX
  8
0
 10
1743.75390625
 20
902.00604248046875
 42
-0
  0
VERTEX
  8
0
 10
1743.75390625
 20
961.1939697265625
 42
-0
  0
VERTEX
  8
0
 10
1756.75390625
 20
961.1939697265625
 42
-0
  0
VERTEX
  8
0
 10
1769.75390625
 20
961.1939697265625
 42
0
  0
VERTEX
  8
0
 10
1769.75390625
 20
902.00604248046875
 42
0
  0
SEQEND
  0
ENDSEC
  0
EOF
