  0
SECTION
  2
ENTITIES
  0
POLYLINE
  8
0
 10
0
 20
0
 39
0
 70
1
 66
1
  0
VERTEX
  8
0
 10
0
 20
0
 42
0
  0
VERTEX
  8
0
 10
1800
 20
0
 42
-0
  0
VERTEX
  8
0
 10
1800
 20
1000
 42
-0
  0
VERTEX
  8
0
 10
6.1200000687870737e-014
 20
1000
 42
-0
  0
SEQEND
  0
POLYLINE
  8
0
 10
0
 20
0
 39
0
 70
1
 66
1
  0
VERTEX
  8
0
 10
1771.0018429773568
 20
30
 42
0
  0
VERTEX
  8
0
 10
1771.0018429773568
 20
210
 42
-0
  0
VERTEX
  8
0
 10
1751.0018429773568
 20
230
 42
0
  0
VERTEX
  8
0
 10
1692.0018429773568
 20
230
 42
0
  0
VERTEX
  8
0
 10
1692.0018429773568
 20
10
 42
0
  0
VERTEX
  8
0
 10
1751.0018429773568
 20
10
 42
-0
  0
SEQEND
  0
POLYLINE
  8
0
 10
0
 20
0
 39
0
 70
1
 66
1
  0
VERTEX
  8
0
 10
1751.0018429773568
 20
59.5
 42
-1
  0
VERTEX
  8
0
 10
1722.0018429773568
 20
59.5
 42
-0
  0
VERTEX
  8
0
 10
1722.0018429773568
 20
180.5
 42
-1
  0
VERTEX
  8
0
 10
1751.0018429773568
 20
180.5
 42
-0
  0
SEQEND
  0
POLYLINE
  8
0
 10
0
 20
0
 39
0
 70
1
 66
1
  0
VERTEX
  8
0
 10
272.93736267089844
 20
390
 42
0
  0
VERTEX
  8
0
 10
272.93736267089844
 20
10
 42
0
  0
VERTEX
  8
0
 10
415.52151489257812
 20
10
 42
0
  0
VERTEX
  8
0
 10
525.87472534179687
 20
157.04478454589847
 42
-0
  0
VERTEX
  8
0
 10
525.87472534179687
 20
254.67083740234378
 42
-0
  0
VERTEX
  8
0
 10
424.31379699707031
 20
390
 42
-0
  0
SEQEND
  0
POLYLINE
  8
0
 10
0
 20
0
 39
0
 70
1
 66
1
  0
VERTEX
  8
0
 10
431.21549987792969
 20
341.99380111694336
 42
0
  0
VERTEX
  8
0
 10
479.65359497070312
 20
277.45040893554687
 42
0
  0
VERTEX
  8
0
 10
451.13938903808594
 20
277.45040893554687
 42
-0
  0
VERTEX
  8
0
 10
425.21549987792969
 20
311.99379730224609
 42
-0
  0
VERTEX
  8
0
 10
337.21549224853516
 20
311.99379730224609
 42
-0
  0
VERTEX
  8
0
 10
337.21549224853516
 20
179.99380493164062
 42
-0
  0
VERTEX
  8
0
 10
307.21549224853516
 20
179.99380493164062
 42
-0
  0
VERTEX
  8
0
 10
307.21549224853516
 20
341.99380111694336
 42
-0
  0
SEQEND
  0
POLYLINE
  8
0
 10
0
 20
0
 39
0
 70
1
 66
1
  0
VERTEX
  8
0
 10
402.99073791503906
 20
245.99380493164062
 42
0
  0
VERTEX
  8
0
 10
402.99073791503906
 20
103.99380493164062
 42
-0
  0
VERTEX
  8
0
 10
369.21549224853516
 20
103.99380493164062
 42
-0
  0
VERTEX
  8
0
 10
369.21549224853516
 20
245.99380493164062
 42
-0
  0
SEQEND
  0
POLYLINE
  8
0
 10
0
 20
0
 39
0
 70
1
 66
1
  0
VERTEX
  8
0
 10
388
 20
880
 42
0
  0
VERTEX
  8
0
 10
636
 20
880
 42
1
  0
VERTEX
  8
0
 10
636
 20
960
 42
-0
  0
VERTEX
  8
0
 10
388
 20
960
 42
1
  0
SEQEND
  0
POLYLINE
  8
0
 10
0
 20
0
 39
0
 70
1
 66
1
  0
VERTEX
  8
0
 10
432.14841461181641
 20
937.82322692871094
 42
0
  0
VERTEX
  8
0
 10
591.85159301757812
 20
937.82322692871094
 42
-1
  0
VERTEX
  8
0
 10
591.85159301757812
 20
902.17677307128906
 42
-0
  0
VERTEX
  8
0
 10
432.14841461181641
 20
902.17677307128906
 42
-1
  0
SEQEND
  0
POLYLINE
  8
0
 10
0
 20
0
 39
0
 70
1
 66
1
  0
VERTEX
  8
0
 10
1682.0018429773568
 20
10.000000520157187
 42
0
  0
VERTEX
  8
0
 10
1682.0018429773568
 20
160.00000052015719
 42
0
  0
VERTEX
  8
0
 10
1616.5018429773568
 20
273.44934134046969
 42
0.97178131341934204
  0
VERTEX
  8
0
 10
1563.7247204797982
 20
244.96025137464937
 42
-0
  0
SEQEND
  0
POLYLINE
  8
0
 10
0
 20
0
 39
0
 70
1
 66
1
  0
VERTEX
  8
0
 10
1621.7146573084115
 20
176.00000052015719
 42
-1
  0
VERTEX
  8
0
 10
1653.7146554010628
 20
176.00000052015719
 42
-1
  0
SEQEND
  0
POLYLINE
  8
0
 10
0
 20
0
 39
0
 70
1
 66
1
  0
VERTEX
  8
0
 10
1574.5210843103646
 20
258.44932608168062
 42
-1
  0
VERTEX
  8
0
 10
1606.5210843103646
 20
258.44932608168062
 42
-1
  0
SEQEND
  0
POLYLINE
  8
0
 10
0
 20
0
 39
0
 70
1
 66
1
  0
VERTEX
  8
0
 10
1530.406965495026
 20
288.44933783191675
 42
0
  0
VERTEX
  8
0
 10
1530.406965495026
 20
138.44933783191675
 42
0
  0
VERTEX
  8
0
 10
1595.906965495026
 20
24.99999701160425
 42
0.97178131341934204
  0
VERTEX
  8
0
 10
1648.6840879925846
 20
53.489086977424591
 42
-0
  0
SEQEND
  0
POLYLINE
  8
0
 10
0
 20
0
 39
0
 70
1
 66
1
  0
VERTEX
  8
0
 10
1590.6941511639714
 20
122.44933783191675
 42
-1
  0
VERTEX
  8
0
 10
1558.69415307132
 20
122.44933783191675
 42
-1
  0
SEQEND
  0
POLYLINE
  8
0
 10
0
 20
0
 39
0
 70
1
 66
1
  0
VERTEX
  8
0
 10
1637.8877241620182
 20
40.000012270393313
 42
-1
  0
VERTEX
  8
0
 10
1605.8877241620182
 20
40.000012270393313
 42
-1
  0
SEQEND
  0
POLYLINE
  8
0
 10
0
 20
0
 39
0
 70
1
 66
1
  0
VERTEX
  8
0
 10
50
 20
790
 42
0
  0
VERTEX
  8
0
 10
298
 20
790
 42
1
  0
VERTEX
  8
0
 10
298
 20
870
 42
-0
  0
VERTEX
  8
0
 10
50
 20
870
 42
1
  0
SEQEND
  0
POLYLINE
  8
0
 10
0
 20
0
 39
0
 70
1
 66
1
  0
VERTEX
  8
0
 10
94.148414611816406
 20
847.82322692871094
 42
0
  0
VERTEX
  8
0
 10
253.85159301757813
 20
847.82322692871094
 42
-1
  0
VERTEX
  8
0
 10
253.85159301757813
 20
812.17677307128906
 42
-0
  0
VERTEX
  8
0
 10
94.148414611816406
 20
812.17677307128906
 42
-1
  0
SEQEND
  0
POLYLINE
  8
0
 10
0
 20
0
 39
0
 70
1
 66
1
  0
VERTEX
  8
0
 10
1220.406965495026
 20
298
 42
0
  0
VERTEX
  8
0
 10
1220.406965495026
 20
50
 42
1
  0
VERTEX
  8
0
 10
1300.406965495026
 20
50
 42
-0
  0
VERTEX
  8
0
 10
1300.406965495026
 20
298
 42
1
  0
SEQEND
  0
POLYLINE
  8
0
 10
0
 20
0
 39
0
 70
1
 66
1
  0
VERTEX
  8
0
 10
1278.230192423737
 20
253.85158538818359
 42
0
  0
VERTEX
  8
0
 10
1278.230192423737
 20
94.148406982421875
 42
-1
  0
VERTEX
  8
0
 10
1242.5837385663151
 20
94.148406982421875
 42
-0
  0
VERTEX
  8
0
 10
1242.5837385663151
 20
253.85158538818359
 42
-1
  0
SEQEND
  0
POLYLINE
  8
0
 10
0
 20
0
 39
0
 70
1
 66
1
  0
VERTEX
  8
0
 10
1440.406965495026
 20
298
 42
0
  0
VERTEX
  8
0
 10
1440.406965495026
 20
50
 42
1
  0
VERTEX
  8
0
 10
1520.406965495026
 20
50
 42
-0
  0
VERTEX
  8
0
 10
1520.406965495026
 20
298
 42
1
  0
SEQEND
  0
POLYLINE
  8
0
 10
0
 20
0
 39
0
 70
1
 66
1
  0
VERTEX
  8
0
 10
1498.230192423737
 20
253.85158538818359
 42
0
  0
VERTEX
  8
0
 10
1498.230192423737
 20
94.148406982421875
 42
-1
  0
VERTEX
  8
0
 10
1462.5837385663151
 20
94.148406982421875
 42
-0
  0
VERTEX
  8
0
 10
1462.5837385663151
 20
253.85158538818359
 42
-1
  0
SEQEND
  0
POLYLINE
  8
0
 10
0
 20
0
 39
0
 70
1
 66
1
  0
VERTEX
  8
0
 10
726
 20
906.89867670414787
 42
0
  0
VERTEX
  8
0
 10
974
 20
906.89867670414787
 42
1
  0
VERTEX
  8
0
 10
974
 20
986.89867670414787
 42
-0
  0
VERTEX
  8
0
 10
726
 20
986.89867670414787
 42
1
  0
SEQEND
  0
POLYLINE
  8
0
 10
0
 20
0
 39
0
 70
1
 66
1
  0
VERTEX
  8
0
 10
770.14841461181641
 20
964.72190363285881
 42
0
  0
VERTEX
  8
0
 10
929.85159301757812
 20
964.72190363285881
 42
-1
  0
VERTEX
  8
0
 10
929.85159301757812
 20
929.07544977543694
 42
-0
  0
VERTEX
  8
0
 10
770.14841461181641
 20
929.07544977543694
 42
-1
  0
SEQEND
  0
POLYLINE
  8
0
 10
0
 20
0
 39
0
 70
1
 66
1
  0
VERTEX
  8
0
 10
726
 20
816.89867670414787
 42
0
  0
VERTEX
  8
0
 10
974
 20
816.89867670414787
 42
1
  0
VERTEX
  8
0
 10
974
 20
896.89867670414787
 42
-0
  0
VERTEX
  8
0
 10
726
 20
896.89867670414787
 42
1
  0
SEQEND
  0
POLYLINE
  8
0
 10
0
 20
0
 39
0
 70
1
 66
1
  0
VERTEX
  8
0
 10
770.14841461181641
 20
874.72190363285881
 42
0
  0
VERTEX
  8
0
 10
929.85159301757812
 20
874.72190363285881
 42
-1
  0
VERTEX
  8
0
 10
929.85159301757812
 20
839.07544977543694
 42
-0
  0
VERTEX
  8
0
 10
770.14841461181641
 20
839.07544977543694
 42
-1
  0
SEQEND
  0
POLYLINE
  8
0
 10
0
 20
0
 39
0
 70
1
 66
1
  0
VERTEX
  8
0
 10
950.40696549502604
 20
528.44933887223112
 42
0
  0
VERTEX
  8
0
 10
950.40696549502604
 20
678.44933887223112
 42
0
  0
VERTEX
  8
0
 10
884.90696549502604
 20
791.89867969254362
 42
0.97178131341934204
  0
VERTEX
  8
0
 10
832.12984299746745
 20
763.40958972672331
 42
-0
  0
SEQEND
  0
POLYLINE
  8
0
 10
0
 20
0
 39
0
 70
1
 66
1
  0
VERTEX
  8
0
 10
890.11977982608073
 20
694.44933887223112
 42
-1
  0
VERTEX
  8
0
 10
922.1197779187321
 20
694.44933887223112
 42
-1
  0
SEQEND
  0
POLYLINE
  8
0
 10
0
 20
0
 39
0
 70
1
 66
1
  0
VERTEX
  8
0
 10
842.92620682803386
 20
776.89866443375456
 42
-1
  0
VERTEX
  8
0
 10
874.92620682803386
 20
776.89866443375456
 42
-1
  0
SEQEND
  0
POLYLINE
  8
0
 10
0
 20
0
 39
0
 70
1
 66
1
  0
VERTEX
  8
0
 10
798.81208801269531
 20
806.89867618399069
 42
0
  0
VERTEX
  8
0
 10
798.81208801269531
 20
656.89867618399069
 42
0
  0
VERTEX
  8
0
 10
864.31208801269531
 20
543.44933536367819
 42
0.97178131341934204
  0
VERTEX
  8
0
 10
917.08921051025391
 20
571.9384253294985
 42
-0
  0
SEQEND
  0
POLYLINE
  8
0
 10
0
 20
0
 39
0
 70
1
 66
1
  0
VERTEX
  8
0
 10
859.09927368164062
 20
640.89867618399069
 42
-1
  0
VERTEX
  8
0
 10
827.09927558898926
 20
640.89867618399069
 42
-1
  0
SEQEND
  0
POLYLINE
  8
0
 10
0
 20
0
 39
0
 70
1
 66
1
  0
VERTEX
  8
0
 10
906.2928466796875
 20
558.44935062246725
 42
-1
  0
VERTEX
  8
0
 10
874.2928466796875
 20
558.44935062246725
 42
-1
  0
SEQEND
  0
POLYLINE
  8
0
 10
0
 20
0
 39
0
 70
1
 66
1
  0
VERTEX
  8
0
 10
388
 20
790
 42
0
  0
VERTEX
  8
0
 10
636
 20
790
 42
1
  0
VERTEX
  8
0
 10
636
 20
870
 42
-0
  0
VERTEX
  8
0
 10
388
 20
870
 42
1
  0
SEQEND
  0
POLYLINE
  8
0
 10
0
 20
0
 39
0
 70
1
 66
1
  0
VERTEX
  8
0
 10
432.14841461181641
 20
847.82322692871094
 42
0
  0
VERTEX
  8
0
 10
591.85159301757812
 20
847.82322692871094
 42
-1
  0
VERTEX
  8
0
 10
591.85159301757812
 20
812.17677307128906
 42
-0
  0
VERTEX
  8
0
 10
432.14841461181641
 20
812.17677307128906
 42
-1
  0
SEQEND
  0
POLYLINE
  8
0
 10
0
 20
0
 39
0
 70
1
 66
1
  0
VERTEX
  8
0
 10
1220.406965495026
 20
636
 42
0
  0
VERTEX
  8
0
 10
1220.406965495026
 20
388
 42
1
  0
VERTEX
  8
0
 10
1300.406965495026
 20
388
 42
-0
  0
VERTEX
  8
0
 10
1300.406965495026
 20
636
 42
1
  0
SEQEND
  0
POLYLINE
  8
0
 10
0
 20
0
 39
0
 70
1
 66
1
  0
VERTEX
  8
0
 10
1278.230192423737
 20
591.85158538818359
 42
0
  0
VERTEX
  8
0
 10
1278.230192423737
 20
432.14840698242187
 42
-1
  0
VERTEX
  8
0
 10
1242.5837385663151
 20
432.14840698242187
 42
-0
  0
VERTEX
  8
0
 10
1242.5837385663151
 20
591.85158538818359
 42
-1
  0
SEQEND
  0
POLYLINE
  8
0
 10
0
 20
0
 39
0
 70
1
 66
1
  0
VERTEX
  8
0
 10
10
 20
780
 42
0
  0
VERTEX
  8
0
 10
10.000000000000023
 20
400
 42
0
  0
VERTEX
  8
0
 10
152.58415222167972
 20
400
 42
0
  0
VERTEX
  8
0
 10
262.93736267089844
 20
547.04478454589844
 42
-0
  0
VERTEX
  8
0
 10
262.93736267089844
 20
644.67083740234375
 42
-0
  0
VERTEX
  8
0
 10
161.37643432617187
 20
780
 42
-0
  0
SEQEND
  0
POLYLINE
  8
0
 10
0
 20
0
 39
0
 70
1
 66
1
  0
VERTEX
  8
0
 10
168.27813720703125
 20
731.99380111694336
 42
0
  0
VERTEX
  8
0
 10
216.71623229980469
 20
667.45040893554687
 42
0
  0
VERTEX
  8
0
 10
188.2020263671875
 20
667.45040893554687
 42
-0
  0
VERTEX
  8
0
 10
162.27813720703125
 20
701.99379730224609
 42
-0
  0
VERTEX
  8
0
 10
74.278129577636719
 20
701.99379730224609
 42
-0
  0
VERTEX
  8
0
 10
74.278129577636733
 20
569.99380493164062
 42
-0
  0
VERTEX
  8
0
 10
44.278129577636733
 20
569.99380493164062
 42
-0
  0
VERTEX
  8
0
 10
44.278129577636719
 20
731.99380111694336
 42
-0
  0
SEQEND
  0
POLYLINE
  8
0
 10
0
 20
0
 39
0
 70
1
 66
1
  0
VERTEX
  8
0
 10
140.05337524414062
 20
635.99380493164062
 42
0
  0
VERTEX
  8
0
 10
140.05337524414065
 20
493.99380493164062
 42
-0
  0
VERTEX
  8
0
 10
106.27812957763673
 20
493.99380493164062
 42
-0
  0
VERTEX
  8
0
 10
106.27812957763673
 20
635.99380493164062
 42
-0
  0
SEQEND
  0
POLYLINE
  8
0
 10
0
 20
0
 39
0
 70
1
 66
1
  0
VERTEX
  8
0
 10
1786.406965495026
 20
260
 42
0
  0
VERTEX
  8
0
 10
1786.406965495026
 20
440
 42
-0
  0
VERTEX
  8
0
 10
1766.406965495026
 20
460
 42
0
  0
VERTEX
  8
0
 10
1707.406965495026
 20
460
 42
0
  0
VERTEX
  8
0
 10
1707.406965495026
 20
240
 42
0
  0
VERTEX
  8
0
 10
1766.406965495026
 20
240
 42
-0
  0
SEQEND
  0
POLYLINE
  8
0
 10
0
 20
0
 39
0
 70
1
 66
1
  0
VERTEX
  8
0
 10
1766.406965495026
 20
289.5
 42
-1
  0
VERTEX
  8
0
 10
1737.406965495026
 20
289.5
 42
-0
  0
VERTEX
  8
0
 10
1737.406965495026
 20
410.5
 42
-1
  0
VERTEX
  8
0
 10
1766.406965495026
 20
410.5
 42
-0
  0
SEQEND
  0
POLYLINE
  8
0
 10
0
 20
0
 39
0
 70
1
 66
1
  0
VERTEX
  8
0
 10
10
 20
390
 42
0
  0
VERTEX
  8
0
 10
10.000000000000023
 20
10
 42
0
  0
VERTEX
  8
0
 10
152.58415222167972
 20
10
 42
0
  0
VERTEX
  8
0
 10
262.93736267089844
 20
157.04478454589847
 42
-0
  0
VERTEX
  8
0
 10
262.93736267089844
 20
254.67083740234378
 42
-0
  0
VERTEX
  8
0
 10
161.37643432617187
 20
390
 42
-0
  0
SEQEND
  0
POLYLINE
  8
0
 10
0
 20
0
 39
0
 70
1
 66
1
  0
VERTEX
  8
0
 10
168.27813720703125
 20
341.99380111694336
 42
0
  0
VERTEX
  8
0
 10
216.71623229980469
 20
277.45040893554687
 42
0
  0
VERTEX
  8
0
 10
188.2020263671875
 20
277.45040893554687
 42
-0
  0
VERTEX
  8
0
 10
162.27813720703125
 20
311.99379730224609
 42
-0
  0
VERTEX
  8
0
 10
74.278129577636719
 20
311.99379730224609
 42
-0
  0
VERTEX
  8
0
 10
74.278129577636733
 20
179.99380493164062
 42
-0
  0
VERTEX
  8
0
 10
44.278129577636733
 20
179.99380493164062
 42
-0
  0
VERTEX
  8
0
 10
44.278129577636719
 20
341.99380111694336
 42
-0
  0
SEQEND
  0
POLYLINE
  8
0
 10
0
 20
0
 39
0
 70
1
 66
1
  0
VERTEX
  8
0
 10
140.05337524414062
 20
245.99380493164062
 42
0
  0
VERTEX
  8
0
 10
140.05337524414065
 20
103.99380493164062
 42
-0
  0
VERTEX
  8
0
 10
106.27812957763673
 20
103.99380493164062
 42
-0
  0
VERTEX
  8
0
 10
106.27812957763673
 20
245.99380493164062
 42
-0
  0
SEQEND
  0
POLYLINE
  8
0
 10
0
 20
0
 39
0
 70
1
 66
1
  0
VERTEX
  8
0
 10
1519.406965495026
 20
368
 42
0
  0
VERTEX
  8
0
 10
1519.406965495026
 20
548
 42
-0
  0
VERTEX
  8
0
 10
1499.406965495026
 20
568
 42
0
  0
VERTEX
  8
0
 10
1440.406965495026
 20
568
 42
0
  0
VERTEX
  8
0
 10
1440.406965495026
 20
348
 42
0
  0
VERTEX
  8
0
 10
1499.406965495026
 20
348
 42
-0
  0
SEQEND
  0
POLYLINE
  8
0
 10
0
 20
0
 39
0
 70
1
 66
1
  0
VERTEX
  8
0
 10
1499.406965495026
 20
397.5
 42
-1
  0
VERTEX
  8
0
 10
1470.406965495026
 20
397.5
 42
-0
  0
VERTEX
  8
0
 10
1470.406965495026
 20
518.5
 42
-1
  0
VERTEX
  8
0
 10
1499.406965495026
 20
518.5
 42
-0
  0
SEQEND
  0
POLYLINE
  8
0
 10
0
 20
0
 39
0
 70
1
 66
1
  0
VERTEX
  8
0
 10
1224
 20
889
 42
0
  0
VERTEX
  8
0
 10
1044
 20
889
 42
-0
  0
VERTEX
  8
0
 10
1024
 20
869
 42
0
  0
VERTEX
  8
0
 10
1024
 20
810
 42
0
  0
VERTEX
  8
0
 10
1244
 20
810
 42
0
  0
VERTEX
  8
0
 10
1244
 20
869
 42
-0
  0
SEQEND
  0
POLYLINE
  8
0
 10
0
 20
0
 39
0
 70
1
 66
1
  0
VERTEX
  8
0
 10
1194.5
 20
869
 42
-1
  0
VERTEX
  8
0
 10
1194.5
 20
840
 42
-0
  0
VERTEX
  8
0
 10
1073.5
 20
840
 42
-1
  0
VERTEX
  8
0
 10
1073.5
 20
869
 42
-0
  0
SEQEND
  0
POLYLINE
  8
0
 10
0
 20
0
 39
0
 70
1
 66
1
  0
VERTEX
  8
0
 10
1676.406965495026
 20
887
 42
0
  0
VERTEX
  8
0
 10
1496.406965495026
 20
887
 42
-0
  0
VERTEX
  8
0
 10
1476.406965495026
 20
867
 42
0
  0
VERTEX
  8
0
 10
1476.406965495026
 20
808
 42
0
  0
VERTEX
  8
0
 10
1696.406965495026
 20
808
 42
0
  0
VERTEX
  8
0
 10
1696.406965495026
 20
867
 42
-0
  0
SEQEND
  0
POLYLINE
  8
0
 10
0
 20
0
 39
0
 70
1
 66
1
  0
VERTEX
  8
0
 10
1646.906965495026
 20
867
 42
-1
  0
VERTEX
  8
0
 10
1646.906965495026
 20
838
 42
-0
  0
VERTEX
  8
0
 10
1525.906965495026
 20
838
 42
-1
  0
VERTEX
  8
0
 10
1525.906965495026
 20
867
 42
-0
  0
SEQEND
  0
POLYLINE
  8
0
 10
0
 20
0
 39
0
 70
1
 66
1
  0
VERTEX
  8
0
 10
1676.406965495026
 20
976
 42
0
  0
VERTEX
  8
0
 10
1496.406965495026
 20
976
 42
-0
  0
VERTEX
  8
0
 10
1476.406965495026
 20
956
 42
0
  0
VERTEX
  8
0
 10
1476.406965495026
 20
897
 42
0
  0
VERTEX
  8
0
 10
1696.406965495026
 20
897
 42
0
  0
VERTEX
  8
0
 10
1696.406965495026
 20
956
 42
-0
  0
SEQEND
  0
POLYLINE
  8
0
 10
0
 20
0
 39
0
 70
1
 66
1
  0
VERTEX
  8
0
 10
1646.906965495026
 20
956
 42
-1
  0
VERTEX
  8
0
 10
1646.906965495026
 20
927
 42
-0
  0
VERTEX
  8
0
 10
1525.906965495026
 20
927
 42
-1
  0
VERTEX
  8
0
 10
1525.906965495026
 20
956
 42
-0
  0
SEQEND
  0
POLYLINE
  8
0
 10
0
 20
0
 39
0
 70
1
 66
1
  0
VERTEX
  8
0
 10
50
 20
880
 42
0
  0
VERTEX
  8
0
 10
298
 20
880
 42
1
  0
VERTEX
  8
0
 10
298
 20
960
 42
-0
  0
VERTEX
  8
0
 10
50
 20
960
 42
1
  0
SEQEND
  0
POLYLINE
  8
0
 10
0
 20
0
 39
0
 70
1
 66
1
  0
VERTEX
  8
0
 10
94.148414611816406
 20
937.82322692871094
 42
0
  0
VERTEX
  8
0
 10
253.85159301757813
 20
937.82322692871094
 42
-1
  0
VERTEX
  8
0
 10
253.85159301757813
 20
902.17677307128906
 42
-0
  0
VERTEX
  8
0
 10
94.148414611816406
 20
902.17677307128906
 42
-1
  0
SEQEND
  0
POLYLINE
  8
0
 10
0
 20
0
 39
0
 70
1
 66
1
  0
VERTEX
  8
0
 10
1000.406965495026
 20
720
 42
0
  0
VERTEX
  8
0
 10
1248.406965495026
 20
720
 42
1
  0
VERTEX
  8
0
 10
1248.406965495026
 20
800
 42
-0
  0
VERTEX
  8
0
 10
1000.406965495026
 20
800
 42
1
  0
SEQEND
  0
POLYLINE
  8
0
 10
0
 20
0
 39
0
 70
1
 66
1
  0
VERTEX
  8
0
 10
1044.5553801068424
 20
777.82322692871094
 42
0
  0
VERTEX
  8
0
 10
1204.2585585126042
 20
777.82322692871094
 42
-1
  0
VERTEX
  8
0
 10
1204.2585585126042
 20
742.17677307128906
 42
-0
  0
VERTEX
  8
0
 10
1044.5553801068424
 20
742.17677307128906
 42
-1
  0
SEQEND
  0
POLYLINE
  8
0
 10
0
 20
0
 39
0
 70
1
 66
1
  0
VERTEX
  8
0
 10
950.40696549502604
 20
240.00000052015719
 42
0
  0
VERTEX
  8
0
 10
950.40696549502604
 20
390.00000052015719
 42
0
  0
VERTEX
  8
0
 10
884.90696549502604
 20
503.44934134046969
 42
0.97178131341934204
  0
VERTEX
  8
0
 10
832.12984299746745
 20
474.96025137464937
 42
-0
  0
SEQEND
  0
POLYLINE
  8
0
 10
0
 20
0
 39
0
 70
1
 66
1
  0
VERTEX
  8
0
 10
890.11977982608073
 20
406.00000052015719
 42
-1
  0
VERTEX
  8
0
 10
922.1197779187321
 20
406.00000052015719
 42
-1
  0
SEQEND
  0
POLYLINE
  8
0
 10
0
 20
0
 39
0
 70
1
 66
1
  0
VERTEX
  8
0
 10
842.92620682803386
 20
488.44932608168062
 42
-1
  0
VERTEX
  8
0
 10
874.92620682803386
 20
488.44932608168062
 42
-1
  0
SEQEND
  0
POLYLINE
  8
0
 10
0
 20
0
 39
0
 70
1
 66
1
  0
VERTEX
  8
0
 10
798.81208801269531
 20
518.44933783191675
 42
0
  0
VERTEX
  8
0
 10
798.81208801269531
 20
368.44933783191675
 42
0
  0
VERTEX
  8
0
 10
864.31208801269531
 20
254.99999701160425
 42
0.97178131341934204
  0
VERTEX
  8
0
 10
917.08921051025391
 20
283.48908697742456
 42
-0
  0
SEQEND
  0
POLYLINE
  8
0
 10
0
 20
0
 39
0
 70
1
 66
1
  0
VERTEX
  8
0
 10
859.09927368164062
 20
352.44933783191675
 42
-1
  0
VERTEX
  8
0
 10
827.09927558898926
 20
352.44933783191675
 42
-1
  0
SEQEND
  0
POLYLINE
  8
0
 10
0
 20
0
 39
0
 70
1
 66
1
  0
VERTEX
  8
0
 10
906.2928466796875
 20
270.00001227039331
 42
-1
  0
VERTEX
  8
0
 10
874.2928466796875
 20
270.00001227039331
 42
-1
  0
SEQEND
  0
POLYLINE
  8
0
 10
0
 20
0
 39
0
 70
1
 66
1
  0
VERTEX
  8
0
 10
535.87472534179687
 20
780
 42
0
  0
VERTEX
  8
0
 10
535.87472534179687
 20
400
 42
0
  0
VERTEX
  8
0
 10
678.45887756347656
 20
400
 42
0
  0
VERTEX
  8
0
 10
788.81208801269531
 20
547.04478454589844
 42
-0
  0
VERTEX
  8
0
 10
788.81208801269531
 20
644.67083740234375
 42
-0
  0
VERTEX
  8
0
 10
687.25115966796875
 20
780
 42
-0
  0
SEQEND
  0
POLYLINE
  8
0
 10
0
 20
0
 39
0
 70
1
 66
1
  0
VERTEX
  8
0
 10
694.15286254882812
 20
731.99380111694336
 42
0
  0
VERTEX
  8
0
 10
742.59095764160156
 20
667.45040893554687
 42
0
  0
VERTEX
  8
0
 10
714.07675170898437
 20
667.45040893554687
 42
-0
  0
VERTEX
  8
0
 10
688.15286254882812
 20
701.99379730224609
 42
-0
  0
VERTEX
  8
0
 10
600.15285491943359
 20
701.99379730224609
 42
-0
  0
VERTEX
  8
0
 10
600.15285491943359
 20
569.99380493164062
 42
-0
  0
VERTEX
  8
0
 10
570.15285491943359
 20
569.99380493164062
 42
-0
  0
VERTEX
  8
0
 10
570.15285491943359
 20
731.99380111694336
 42
-0
  0
SEQEND
  0
POLYLINE
  8
0
 10
0
 20
0
 39
0
 70
1
 66
1
  0
VERTEX
  8
0
 10
665.9281005859375
 20
635.99380493164062
 42
0
  0
VERTEX
  8
0
 10
665.9281005859375
 20
493.99380493164062
 42
-0
  0
VERTEX
  8
0
 10
632.15285491943359
 20
493.99380493164062
 42
-0
  0
VERTEX
  8
0
 10
632.15285491943359
 20
635.99380493164062
 42
-0
  0
SEQEND
  0
POLYLINE
  8
0
 10
0
 20
0
 39
0
 70
1
 66
1
  0
VERTEX
  8
0
 10
535.87472534179687
 20
390
 42
0
  0
VERTEX
  8
0
 10
535.87472534179687
 20
10
 42
0
  0
VERTEX
  8
0
 10
678.45887756347656
 20
10
 42
0
  0
VERTEX
  8
0
 10
788.81208801269531
 20
157.04478454589847
 42
-0
  0
VERTEX
  8
0
 10
788.81208801269531
 20
254.67083740234378
 42
-0
  0
VERTEX
  8
0
 10
687.25115966796875
 20
390
 42
-0
  0
SEQEND
  0
POLYLINE
  8
0
 10
0
 20
0
 39
0
 70
1
 66
1
  0
VERTEX
  8
0
 10
694.15286254882812
 20
341.99380111694336
 42
0
  0
VERTEX
  8
0
 10
742.59095764160156
 20
277.45040893554687
 42
0
  0
VERTEX
  8
0
 10
714.07675170898437
 20
277.45040893554687
 42
-0
  0
VERTEX
  8
0
 10
688.15286254882812
 20
311.99379730224609
 42
-0
  0
VERTEX
  8
0
 10
600.15285491943359
 20
311.99379730224609
 42
-0
  0
VERTEX
  8
0
 10
600.15285491943359
 20
179.99380493164062
 42
-0
  0
VERTEX
  8
0
 10
570.15285491943359
 20
179.99380493164062
 42
-0
  0
VERTEX
  8
0
 10
570.15285491943359
 20
341.99380111694336
 42
-0
  0
SEQEND
  0
POLYLINE
  8
0
 10
0
 20
0
 39
0
 70
1
 66
1
  0
VERTEX
  8
0
 10
665.9281005859375
 20
245.99380493164062
 42
0
  0
VERTEX
  8
0
 10
665.9281005859375
 20
103.99380493164062
 42
-0
  0
VERTEX
  8
0
 10
632.15285491943359
 20
103.99380493164062
 42
-0
  0
VERTEX
  8
0
 10
632.15285491943359
 20
245.99380493164062
 42
-0
  0
SEQEND
  0
POLYLINE
  8
0
 10
0
 20
0
 39
0
 70
1
 66
1
  0
VERTEX
  8
0
 10
272.93736267089844
 20
780
 42
0
  0
VERTEX
  8
0
 10
272.93736267089844
 20
400
 42
0
  0
VERTEX
  8
0
 10
415.52151489257812
 20
400
 42
0
  0
VERTEX
  8
0
 10
525.87472534179687
 20
547.04478454589844
 42
-0
  0
VERTEX
  8
0
 10
525.87472534179687
 20
644.67083740234375
 42
-0
  0
VERTEX
  8
0
 10
424.31379699707031
 20
780
 42
-0
  0
SEQEND
  0
POLYLINE
  8
0
 10
0
 20
0
 39
0
 70
1
 66
1
  0
VERTEX
  8
0
 10
431.21549987792969
 20
731.99380111694336
 42
0
  0
VERTEX
  8
0
 10
479.65359497070312
 20
667.45040893554687
 42
0
  0
VERTEX
  8
0
 10
451.13938903808594
 20
667.45040893554687
 42
-0
  0
VERTEX
  8
0
 10
425.21549987792969
 20
701.99379730224609
 42
-0
  0
VERTEX
  8
0
 10
337.21549224853516
 20
701.99379730224609
 42
-0
  0
VERTEX
  8
0
 10
337.21549224853516
 20
569.99380493164062
 42
-0
  0
VERTEX
  8
0
 10
307.21549224853516
 20
569.99380493164062
 42
-0
  0
VERTEX
  8
0
 10
307.21549224853516
 20
731.99380111694336
 42
-0
  0
SEQEND
  0
POLYLINE
  8
0
 10
0
 20
0
 39
0
 70
1
 66
1
  0
VERTEX
  8
0
 10
402.99073791503906
 20
635.99380493164062
 42
0
  0
VERTEX
  8
0
 10
402.99073791503906
 20
493.99380493164062
 42
-0
  0
VERTEX
  8
0
 10
369.21549224853516
 20
493.99380493164062
 42
-0
  0
VERTEX
  8
0
 10
369.21549224853516
 20
635.99380493164062
 42
-0
  0
SEQEND
  0
POLYLINE
  8
0
 10
0
 20
0
 39
0
 70
1
 66
1
  0
VERTEX
  8
0
 10
1310.406965495026
 20
710
 42
0
  0
VERTEX
  8
0
 10
1310.406965495026
 20
10
 42
-0
  0
VERTEX
  8
0
 10
1430.406965495026
 20
10
 42
-0
  0
VERTEX
  8
0
 10
1430.406965495026
 20
710
 42
-0
  0
SEQEND
  0
POLYLINE
  8
0
 10
0
 20
0
 39
0
 70
1
 66
1
  0
VERTEX
  8
0
 10
1370.406965495026
 20
398
 42
-1
  0
VERTEX
  8
0
 10
1370.406965495026
 20
322
 42
-1
  0
SEQEND
  0
POLYLINE
  8
0
 10
0
 20
0
 39
0
 70
1
 66
1
  0
VERTEX
  8
0
 10
1408.406965495026
 20
668.66972732543945
 42
0
  0
VERTEX
  8
0
 10
1408.406965495026
 20
580.75325012207031
 42
0.085440635681152344
  0
VERTEX
  8
0
 10
1332.406965495026
 20
580.75325012207031
 42
-0
  0
VERTEX
  8
0
 10
1332.406965495026
 20
668.66972732543945
 42
-0.06132299080491066
  0
SEQEND
  0
POLYLINE
  8
0
 10
0
 20
0
 39
0
 70
1
 66
1
  0
VERTEX
  8
0
 10
1408.406965495026
 20
51.33026123046875
 42
-0.06132299080491066
  0
VERTEX
  8
0
 10
1332.406965495026
 20
51.33026123046875
 42
0
  0
VERTEX
  8
0
 10
1332.406965495026
 20
139.24676513671875
 42
0.085440635681152344
  0
VERTEX
  8
0
 10
1408.406965495026
 20
139.24676513671875
 42
-0
  0
SEQEND
  0
POLYLINE
  8
0
 10
0
 20
0
 39
0
 70
1
 66
1
  0
VERTEX
  8
0
 10
960.40696549502604
 20
710
 42
0
  0
VERTEX
  8
0
 10
960.40696549502604
 20
10
 42
-0
  0
VERTEX
  8
0
 10
1080.406965495026
 20
10
 42
-0
  0
VERTEX
  8
0
 10
1080.406965495026
 20
710
 42
-0
  0
SEQEND
  0
POLYLINE
  8
0
 10
0
 20
0
 39
0
 70
1
 66
1
  0
VERTEX
  8
0
 10
1020.406965495026
 20
398
 42
-1
  0
VERTEX
  8
0
 10
1020.406965495026
 20
322
 42
-1
  0
SEQEND
  0
POLYLINE
  8
0
 10
0
 20
0
 39
0
 70
1
 66
1
  0
VERTEX
  8
0
 10
1058.406965495026
 20
668.66972732543945
 42
0
  0
VERTEX
  8
0
 10
1058.406965495026
 20
580.75325012207031
 42
0.085440635681152344
  0
VERTEX
  8
0
 10
982.40696549502604
 20
580.75325012207031
 42
-0
  0
VERTEX
  8
0
 10
982.40696549502604
 20
668.66972732543945
 42
-0.06132299080491066
  0
SEQEND
  0
POLYLINE
  8
0
 10
0
 20
0
 39
0
 70
1
 66
1
  0
VERTEX
  8
0
 10
1058.406965495026
 20
51.33026123046875
 42
-0.06132299080491066
  0
VERTEX
  8
0
 10
982.40696549502604
 20
51.33026123046875
 42
0
  0
VERTEX
  8
0
 10
982.40696549502604
 20
139.24676513671875
 42
0.085440635681152344
  0
VERTEX
  8
0
 10
1058.406965495026
 20
139.24676513671875
 42
-0
  0
SEQEND
  0
POLYLINE
  8
0
 10
0
 20
0
 39
0
 70
1
 66
1
  0
VERTEX
  8
0
 10
1090.406965495026
 20
710
 42
0
  0
VERTEX
  8
0
 10
1090.406965495026
 20
10
 42
-0
  0
VERTEX
  8
0
 10
1210.406965495026
 20
10
 42
-0
  0
VERTEX
  8
0
 10
1210.406965495026
 20
710
 42
-0
  0
SEQEND
  0
POLYLINE
  8
0
 10
0
 20
0
 39
0
 70
1
 66
1
  0
VERTEX
  8
0
 10
1150.406965495026
 20
398
 42
-1
  0
VERTEX
  8
0
 10
1150.406965495026
 20
322
 42
-1
  0
SEQEND
  0
POLYLINE
  8
0
 10
0
 20
0
 39
0
 70
1
 66
1
  0
VERTEX
  8
0
 10
1188.406965495026
 20
668.66972732543945
 42
0
  0
VERTEX
  8
0
 10
1188.406965495026
 20
580.75325012207031
 42
0.085440635681152344
  0
VERTEX
  8
0
 10
1112.406965495026
 20
580.75325012207031
 42
-0
  0
VERTEX
  8
0
 10
1112.406965495026
 20
668.66972732543945
 42
-0.06132299080491066
  0
SEQEND
  0
POLYLINE
  8
0
 10
0
 20
0
 39
0
 70
1
 66
1
  0
VERTEX
  8
0
 10
1188.406965495026
 20
51.33026123046875
 42
-0.06132299080491066
  0
VERTEX
  8
0
 10
1112.406965495026
 20
51.33026123046875
 42
0
  0
VERTEX
  8
0
 10
1112.406965495026
 20
139.24676513671875
 42
0.085440635681152344
  0
VERTEX
  8
0
 10
1188.406965495026
 20
139.24676513671875
 42
-0
  0
SEQEND
  0
POLYLINE
  8
0
 10
0
 20
0
 39
0
 70
1
 66
1
  0
VERTEX
  8
0
 10
1733.406965495026
 20
548.44933835207394
 42
0
  0
VERTEX
  8
0
 10
1733.406965495026
 20
728.44933835207394
 42
-0
  0
VERTEX
  8
0
 10
1713.406965495026
 20
748.44933835207394
 42
0
  0
VERTEX
  8
0
 10
1654.406965495026
 20
748.44933835207394
 42
0
  0
VERTEX
  8
0
 10
1654.406965495026
 20
528.44933835207394
 42
0
  0
VERTEX
  8
0
 10
1713.406965495026
 20
528.44933835207394
 42
-0
  0
SEQEND
  0
POLYLINE
  8
0
 10
0
 20
0
 39
0
 70
1
 66
1
  0
VERTEX
  8
0
 10
1713.406965495026
 20
577.94933835207394
 42
-1
  0
VERTEX
  8
0
 10
1684.406965495026
 20
577.94933835207394
 42
-0
  0
VERTEX
  8
0
 10
1684.406965495026
 20
698.94933835207394
 42
-1
  0
VERTEX
  8
0
 10
1713.406965495026
 20
698.94933835207394
 42
-0
  0
SEQEND
  0
POLYLINE
  8
0
 10
0
 20
0
 39
0
 70
1
 66
1
  0
VERTEX
  8
0
 10
1697.406965495026
 20
318.44933835207394
 42
0
  0
VERTEX
  8
0
 10
1697.406965495026
 20
498.44933835207394
 42
-0
  0
VERTEX
  8
0
 10
1677.406965495026
 20
518.44933835207394
 42
0
  0
VERTEX
  8
0
 10
1618.406965495026
 20
518.44933835207394
 42
0
  0
VERTEX
  8
0
 10
1618.406965495026
 20
298.44933835207394
 42
0
  0
VERTEX
  8
0
 10
1677.406965495026
 20
298.44933835207394
 42
-0
  0
SEQEND
  0
POLYLINE
  8
0
 10
0
 20
0
 39
0
 70
1
 66
1
  0
VERTEX
  8
0
 10
1677.406965495026
 20
347.94933835207394
 42
-1
  0
VERTEX
  8
0
 10
1648.406965495026
 20
347.94933835207394
 42
-0
  0
VERTEX
  8
0
 10
1648.406965495026
 20
468.94933835207394
 42
-1
  0
VERTEX
  8
0
 10
1677.406965495026
 20
468.94933835207394
 42
-0
  0
SEQEND
  0
POLYLINE
  8
0
 10
0
 20
0
 39
0
 70
1
 66
1
  0
VERTEX
  8
0
 10
1224
 20
978
 42
0
  0
VERTEX
  8
0
 10
1044
 20
978
 42
-0
  0
VERTEX
  8
0
 10
1024
 20
958
 42
0
  0
VERTEX
  8
0
 10
1024
 20
899
 42
0
  0
VERTEX
  8
0
 10
1244
 20
899
 42
0
  0
VERTEX
  8
0
 10
1244
 20
958
 42
-0
  0
SEQEND
  0
POLYLINE
  8
0
 10
0
 20
0
 39
0
 70
1
 66
1
  0
VERTEX
  8
0
 10
1194.5
 20
958
 42
-1
  0
VERTEX
  8
0
 10
1194.5
 20
929
 42
-0
  0
VERTEX
  8
0
 10
1073.5
 20
929
 42
-1
  0
VERTEX
  8
0
 10
1073.5
 20
958
 42
-0
  0
SEQEND
  0
POLYLINE
  8
0
 10
0
 20
0
 39
0
 70
1
 66
1
  0
VERTEX
  8
0
 10
1466.406965495026
 20
740
 42
0
  0
VERTEX
  8
0
 10
1466.406965495026
 20
920
 42
-0
  0
VERTEX
  8
0
 10
1446.406965495026
 20
940
 42
0
  0
VERTEX
  8
0
 10
1387.406965495026
 20
940
 42
0
  0
VERTEX
  8
0
 10
1387.406965495026
 20
720
 42
0
  0
VERTEX
  8
0
 10
1446.406965495026
 20
720
 42
-0
  0
SEQEND
  0
POLYLINE
  8
0
 10
0
 20
0
 39
0
 70
1
 66
1
  0
VERTEX
  8
0
 10
1446.406965495026
 20
769.5
 42
-1
  0
VERTEX
  8
0
 10
1417.406965495026
 20
769.5
 42
-0
  0
VERTEX
  8
0
 10
1417.406965495026
 20
890.5
 42
-1
  0
VERTEX
  8
0
 10
1446.406965495026
 20
890.5
 42
-0
  0
SEQEND
  0
POLYLINE
  8
0
 10
0
 20
0
 39
0
 70
1
 66
1
  0
VERTEX
  8
0
 10
1608.406965495026
 20
368
 42
0
  0
VERTEX
  8
0
 10
1608.406965495026
 20
548
 42
-0
  0
VERTEX
  8
0
 10
1588.406965495026
 20
568
 42
0
  0
VERTEX
  8
0
 10
1529.406965495026
 20
568
 42
0
  0
VERTEX
  8
0
 10
1529.406965495026
 20
348
 42
0
  0
VERTEX
  8
0
 10
1588.406965495026
 20
348
 42
-0
  0
SEQEND
  0
POLYLINE
  8
0
 10
0
 20
0
 39
0
 70
1
 66
1
  0
VERTEX
  8
0
 10
1588.406965495026
 20
397.5
 42
-1
  0
VERTEX
  8
0
 10
1559.406965495026
 20
397.5
 42
-0
  0
VERTEX
  8
0
 10
1559.406965495026
 20
518.5
 42
-1
  0
VERTEX
  8
0
 10
1588.406965495026
 20
518.5
 42
-0
  0
SEQEND
  0
POLYLINE
  8
0
 10
0
 20
0
 39
0
 70
1
 66
1
  0
VERTEX
  8
0
 10
877.81208801269531
 20
30
 42
0
  0
VERTEX
  8
0
 10
877.81208801269531
 20
210
 42
-0
  0
VERTEX
  8
0
 10
857.81208801269531
 20
230
 42
0
  0
VERTEX
  8
0
 10
798.81208801269531
 20
230
 42
0
  0
VERTEX
  8
0
 10
798.81208801269531
 20
10
 42
0
  0
VERTEX
  8
0
 10
857.81208801269531
 20
10
 42
-0
  0
SEQEND
  0
POLYLINE
  8
0
 10
0
 20
0
 39
0
 70
1
 66
1
  0
VERTEX
  8
0
 10
857.81208801269531
 20
59.5
 42
-1
  0
VERTEX
  8
0
 10
828.81208801269531
 20
59.5
 42
-0
  0
VERTEX
  8
0
 10
828.81208801269531
 20
180.5
 42
-1
  0
VERTEX
  8
0
 10
857.81208801269531
 20
180.5
 42
-0
  0
SEQEND
  0
POLYLINE
  8
0
 10
0
 20
0
 39
0
 70
1
 66
1
  0
VERTEX
  8
0
 10
1785.406965495026
 20
778.44933835207394
 42
0
  0
VERTEX
  8
0
 10
1785.406965495026
 20
958.44933835207394
 42
-0
  0
VERTEX
  8
0
 10
1765.406965495026
 20
978.44933835207394
 42
0
  0
VERTEX
  8
0
 10
1706.406965495026
 20
978.44933835207394
 42
0
  0
VERTEX
  8
0
 10
1706.406965495026
 20
758.44933835207394
 42
0
  0
VERTEX
  8
0
 10
1765.406965495026
 20
758.44933835207394
 42
-0
  0
SEQEND
  0
POLYLINE
  8
0
 10
0
 20
0
 39
0
 70
1
 66
1
  0
VERTEX
  8
0
 10
1765.406965495026
 20
807.94933835207394
 42
-1
  0
VERTEX
  8
0
 10
1736.406965495026
 20
807.94933835207394
 42
-0
  0
VERTEX
  8
0
 10
1736.406965495026
 20
928.94933835207394
 42
-1
  0
VERTEX
  8
0
 10
1765.406965495026
 20
928.94933835207394
 42
-0
  0
SEQEND
  0
POLYLINE
  8
0
 10
0
 20
0
 39
0
 70
1
 66
1
  0
VERTEX
  8
0
 10
1555.406965495026
 20
598
 42
0
  0
VERTEX
  8
0
 10
1555.406965495026
 20
778
 42
-0
  0
VERTEX
  8
0
 10
1535.406965495026
 20
798
 42
0
  0
VERTEX
  8
0
 10
1476.406965495026
 20
798
 42
0
  0
VERTEX
  8
0
 10
1476.406965495026
 20
578
 42
0
  0
VERTEX
  8
0
 10
1535.406965495026
 20
578
 42
-0
  0
SEQEND
  0
POLYLINE
  8
0
 10
0
 20
0
 39
0
 70
1
 66
1
  0
VERTEX
  8
0
 10
1535.406965495026
 20
627.5
 42
-1
  0
VERTEX
  8
0
 10
1506.406965495026
 20
627.5
 42
-0
  0
VERTEX
  8
0
 10
1506.406965495026
 20
748.5
 42
-1
  0
VERTEX
  8
0
 10
1535.406965495026
 20
748.5
 42
-0
  0
SEQEND
  0
POLYLINE
  8
0
 10
0
 20
0
 39
0
 70
1
 66
1
  0
VERTEX
  8
0
 10
1377.406965495026
 20
740
 42
0
  0
VERTEX
  8
0
 10
1377.406965495026
 20
920
 42
-0
  0
VERTEX
  8
0
 10
1357.406965495026
 20
940
 42
0
  0
VERTEX
  8
0
 10
1298.406965495026
 20
940
 42
0
  0
VERTEX
  8
0
 10
1298.406965495026
 20
720
 42
0
  0
VERTEX
  8
0
 10
1357.406965495026
 20
720
 42
-0
  0
SEQEND
  0
POLYLINE
  8
0
 10
0
 20
0
 39
0
 70
1
 66
1
  0
VERTEX
  8
0
 10
1357.406965495026
 20
769.5
 42
-1
  0
VERTEX
  8
0
 10
1328.406965495026
 20
769.5
 42
-0
  0
VERTEX
  8
0
 10
1328.406965495026
 20
890.5
 42
-1
  0
VERTEX
  8
0
 10
1357.406965495026
 20
890.5
 42
-0
  0
SEQEND
  0
POLYLINE
  8
0
 10
0
 20
0
 39
0
 70
1
 66
1
  0
VERTEX
  8
0
 10
1644.406965495026
 20
598
 42
0
  0
VERTEX
  8
0
 10
1644.406965495026
 20
778
 42
-0
  0
VERTEX
  8
0
 10
1624.406965495026
 20
798
 42
0
  0
VERTEX
  8
0
 10
1565.406965495026
 20
798
 42
0
  0
VERTEX
  8
0
 10
1565.406965495026
 20
578
 42
0
  0
VERTEX
  8
0
 10
1624.406965495026
 20
578
 42
-0
  0
SEQEND
  0
POLYLINE
  8
0
 10
0
 20
0
 39
0
 70
1
 66
1
  0
VERTEX
  8
0
 10
1624.406965495026
 20
627.5
 42
-1
  0
VERTEX
  8
0
 10
1595.406965495026
 20
627.5
 42
-0
  0
VERTEX
  8
0
 10
1595.406965495026
 20
748.5
 42
-1
  0
VERTEX
  8
0
 10
1624.406965495026
 20
748.5
 42
-0
  0
SEQEND
  0
ENDSEC
  0
EOF
